<svg viewBox="0 0 851 649" fill="none" xmlns="http://www.w3.org/2000/svg">
<path fill-rule="evenodd" clip-rule="evenodd" d="M211.25 102.5H6V196H211.25V102.5ZM211.25 97.5H6V5H211.25V97.5ZM216.25 102.5V196H424V102.5H216.25ZM424 97.5H216.25V5H424V97.5ZM429 102.5V196H635.642L635.097 102.5H429ZM635.068 97.5H429V5H634.529L635.068 97.5ZM640.097 102.5L640.642 196H846V102.5H640.097ZM846 97.5H640.068L639.529 5H846V97.5ZM851 299.25L1 304V0H851V299.25ZM6 201V298.972L211.25 297.825V201H6ZM216.25 201V297.797L424 296.636V201H216.25ZM429 201V296.608L636.221 295.45L635.671 201H429ZM640.671 201L641.221 295.422L846 294.278V201H640.671Z" fill="#13EBF9"/>
<path d="M283.592 66H280.217V40.4062H283.592V66Z" fill="#13EBF9"/>
<path d="M295.545 61.5879L300.256 46.9805H303.578L296.758 66H294.279L287.389 46.9805H290.711L295.545 61.5879Z" fill="#13EBF9"/>
<path d="M318.168 66C317.98 65.625 317.828 64.957 317.711 63.9961C316.199 65.5664 314.395 66.3516 312.297 66.3516C310.422 66.3516 308.881 65.8242 307.674 64.7695C306.479 63.7031 305.881 62.3555 305.881 60.7266C305.881 58.7461 306.631 57.2109 308.131 56.1211C309.643 55.0195 311.764 54.4688 314.494 54.4688H317.658V52.9746C317.658 51.8379 317.318 50.9355 316.639 50.2676C315.959 49.5879 314.957 49.248 313.633 49.248C312.473 49.248 311.5 49.541 310.715 50.127C309.93 50.7129 309.537 51.4219 309.537 52.2539H306.268C306.268 51.3047 306.602 50.3906 307.27 49.5117C307.949 48.6211 308.863 47.918 310.012 47.4023C311.172 46.8867 312.443 46.6289 313.826 46.6289C316.018 46.6289 317.734 47.1797 318.977 48.2812C320.219 49.3711 320.863 50.877 320.91 52.7988V61.5527C320.91 63.2988 321.133 64.6875 321.578 65.7188V66H318.168ZM312.771 63.5215C313.791 63.5215 314.758 63.2578 315.672 62.7305C316.586 62.2031 317.248 61.5176 317.658 60.6738V56.7715H315.109C311.125 56.7715 309.133 57.9375 309.133 60.2695C309.133 61.2891 309.473 62.0859 310.152 62.6602C310.832 63.2344 311.705 63.5215 312.771 63.5215ZM315.777 39H319.715L315.004 44.168H312.385L315.777 39Z" fill="#13EBF9"/>
<path d="M329.084 46.9805L329.189 49.3711C330.643 47.543 332.541 46.6289 334.885 46.6289C338.904 46.6289 340.932 48.8965 340.967 53.4316V66H337.715V53.4141C337.703 52.043 337.387 51.0293 336.766 50.373C336.156 49.7168 335.201 49.3887 333.9 49.3887C332.846 49.3887 331.92 49.6699 331.123 50.2324C330.326 50.7949 329.705 51.5332 329.26 52.4473V66H326.008V46.9805H329.084Z" fill="#13EBF9"/>
<path d="M498.693 40.4062H502.086V58.5293C502.086 60.9785 501.348 62.8945 499.871 64.2773C498.406 65.6602 496.449 66.3516 494 66.3516C491.457 66.3516 489.477 65.7012 488.059 64.4004C486.641 63.0996 485.932 61.2773 485.932 58.9336H489.307C489.307 60.3984 489.705 61.541 490.502 62.3613C491.311 63.1816 492.477 63.5918 494 63.5918C495.395 63.5918 496.52 63.1523 497.375 62.2734C498.242 61.3945 498.682 60.1641 498.693 58.582V40.4062Z" fill="#13EBF9"/>
<path d="M506.463 56.3145C506.463 54.4512 506.826 52.7754 507.553 51.2871C508.291 49.7988 509.311 48.6504 510.611 47.8418C511.924 47.0332 513.418 46.6289 515.094 46.6289C517.684 46.6289 519.775 47.5254 521.369 49.3184C522.975 51.1113 523.777 53.4961 523.777 56.4727V56.7012C523.777 58.5527 523.42 60.2168 522.705 61.6934C522.002 63.1582 520.988 64.3008 519.664 65.1211C518.352 65.9414 516.84 66.3516 515.129 66.3516C512.551 66.3516 510.459 65.4551 508.854 63.6621C507.26 61.8691 506.463 59.4961 506.463 56.543V56.3145ZM509.732 56.7012C509.732 58.8105 510.219 60.5039 511.191 61.7812C512.176 63.0586 513.488 63.6973 515.129 63.6973C516.781 63.6973 518.094 63.0527 519.066 61.7637C520.039 60.4629 520.525 58.6465 520.525 56.3145C520.525 54.2285 520.027 52.541 519.031 51.252C518.047 49.9512 516.734 49.3008 515.094 49.3008C513.488 49.3008 512.193 49.9395 511.209 51.2168C510.225 52.4941 509.732 54.3223 509.732 56.7012Z" fill="#13EBF9"/>
<path d="M538.93 60.9551C538.93 60.0762 538.596 59.3965 537.928 58.916C537.271 58.4238 536.117 58.002 534.465 57.6504C532.824 57.2988 531.518 56.877 530.545 56.3848C529.584 55.8926 528.869 55.3066 528.4 54.627C527.943 53.9473 527.715 53.1387 527.715 52.2012C527.715 50.6426 528.371 49.3242 529.684 48.2461C531.008 47.168 532.695 46.6289 534.746 46.6289C536.902 46.6289 538.648 47.1855 539.984 48.2988C541.332 49.4121 542.006 50.8359 542.006 52.5703H538.736C538.736 51.6797 538.355 50.9121 537.594 50.2676C536.844 49.623 535.895 49.3008 534.746 49.3008C533.562 49.3008 532.637 49.5586 531.969 50.0742C531.301 50.5898 530.967 51.2637 530.967 52.0957C530.967 52.8809 531.277 53.4727 531.898 53.8711C532.52 54.2695 533.639 54.6504 535.256 55.0137C536.885 55.377 538.203 55.8105 539.211 56.3145C540.219 56.8184 540.963 57.4277 541.443 58.1426C541.936 58.8457 542.182 59.707 542.182 60.7266C542.182 62.4258 541.502 63.791 540.143 64.8223C538.783 65.8418 537.02 66.3516 534.852 66.3516C533.328 66.3516 531.98 66.082 530.809 65.543C529.637 65.0039 528.717 64.2539 528.049 63.293C527.393 62.3203 527.064 61.2715 527.064 60.1465H530.316C530.375 61.2363 530.809 62.1035 531.617 62.748C532.438 63.3809 533.516 63.6973 534.852 63.6973C536.082 63.6973 537.066 63.4512 537.805 62.959C538.555 62.4551 538.93 61.7871 538.93 60.9551Z" fill="#13EBF9"/>
<path d="M554.311 66.3516C551.732 66.3516 549.635 65.5078 548.018 63.8203C546.4 62.1211 545.592 59.8535 545.592 57.0176V56.4199C545.592 54.5332 545.949 52.8516 546.664 51.375C547.391 49.8867 548.398 48.7266 549.688 47.8945C550.988 47.0508 552.395 46.6289 553.906 46.6289C556.379 46.6289 558.301 47.4434 559.672 49.0723C561.043 50.7012 561.729 53.0332 561.729 56.0684V57.4219H548.844C548.891 59.2969 549.436 60.8145 550.479 61.9746C551.533 63.123 552.869 63.6973 554.486 63.6973C555.635 63.6973 556.607 63.4629 557.404 62.9941C558.201 62.5254 558.898 61.9043 559.496 61.1309L561.482 62.6777C559.889 65.127 557.498 66.3516 554.311 66.3516ZM553.906 49.3008C552.594 49.3008 551.492 49.7812 550.602 50.7422C549.711 51.6914 549.16 53.0273 548.949 54.75H558.477V54.5039C558.383 52.8516 557.938 51.5742 557.141 50.6719C556.344 49.7578 555.266 49.3008 553.906 49.3008ZM555.488 39H559.426L554.715 44.168H552.096L555.488 39Z" fill="#13EBF9"/>
<path d="M690.797 57.8789C690.48 60.5859 689.479 62.6777 687.791 64.1543C686.115 65.6191 683.883 66.3516 681.094 66.3516C678.07 66.3516 675.645 65.2676 673.816 63.0996C672 60.9316 671.092 58.0312 671.092 54.3984V51.9375C671.092 49.5586 671.514 47.4668 672.357 45.6621C673.213 43.8574 674.42 42.4746 675.979 41.5137C677.537 40.541 679.342 40.0547 681.393 40.0547C684.111 40.0547 686.291 40.8164 687.932 42.3398C689.572 43.8516 690.527 45.9492 690.797 48.6328H687.404C687.111 46.5938 686.473 45.1172 685.488 44.2031C684.516 43.2891 683.15 42.832 681.393 42.832C679.236 42.832 677.543 43.6289 676.312 45.2227C675.094 46.8164 674.484 49.084 674.484 52.0254V54.5039C674.484 57.2812 675.064 59.4902 676.225 61.1309C677.385 62.7715 679.008 63.5918 681.094 63.5918C682.969 63.5918 684.404 63.1699 685.4 62.3262C686.408 61.4707 687.076 59.9883 687.404 57.8789H690.797Z" fill="#13EBF9"/>
<path d="M698.162 49.2832C699.604 47.5137 701.479 46.6289 703.787 46.6289C707.807 46.6289 709.834 48.8965 709.869 53.4316V66H706.617V53.4141C706.605 52.043 706.289 51.0293 705.668 50.373C705.059 49.7168 704.104 49.3887 702.803 49.3887C701.748 49.3887 700.822 49.6699 700.025 50.2324C699.229 50.7949 698.607 51.5332 698.162 52.4473V66H694.91V39H698.162V49.2832Z" fill="#13EBF9"/>
<path d="M723.932 49.8984C723.439 49.8164 722.906 49.7754 722.332 49.7754C720.199 49.7754 718.752 50.6836 717.99 52.5V66H714.738V46.9805H717.902L717.955 49.1777C719.021 47.4785 720.533 46.6289 722.49 46.6289C723.123 46.6289 723.604 46.7109 723.932 46.875V49.8984Z" fill="#13EBF9"/>
<path d="M730.471 66H727.219V46.9805H730.471V66ZM726.955 41.9355C726.955 41.4082 727.113 40.9629 727.43 40.5996C727.758 40.2363 728.238 40.0547 728.871 40.0547C729.504 40.0547 729.984 40.2363 730.312 40.5996C730.641 40.9629 730.805 41.4082 730.805 41.9355C730.805 42.4629 730.641 42.9023 730.312 43.2539C729.984 43.6055 729.504 43.7812 728.871 43.7812C728.238 43.7812 727.758 43.6055 727.43 43.2539C727.113 42.9023 726.955 42.4629 726.955 41.9355Z" fill="#13EBF9"/>
<path d="M746.766 60.9551C746.766 60.0762 746.432 59.3965 745.764 58.916C745.107 58.4238 743.953 58.002 742.301 57.6504C740.66 57.2988 739.354 56.877 738.381 56.3848C737.42 55.8926 736.705 55.3066 736.236 54.627C735.779 53.9473 735.551 53.1387 735.551 52.2012C735.551 50.6426 736.207 49.3242 737.52 48.2461C738.844 47.168 740.531 46.6289 742.582 46.6289C744.738 46.6289 746.484 47.1855 747.82 48.2988C749.168 49.4121 749.842 50.8359 749.842 52.5703H746.572C746.572 51.6797 746.191 50.9121 745.43 50.2676C744.68 49.623 743.73 49.3008 742.582 49.3008C741.398 49.3008 740.473 49.5586 739.805 50.0742C739.137 50.5898 738.803 51.2637 738.803 52.0957C738.803 52.8809 739.113 53.4727 739.734 53.8711C740.355 54.2695 741.475 54.6504 743.092 55.0137C744.721 55.377 746.039 55.8105 747.047 56.3145C748.055 56.8184 748.799 57.4277 749.279 58.1426C749.771 58.8457 750.018 59.707 750.018 60.7266C750.018 62.4258 749.338 63.791 747.979 64.8223C746.619 65.8418 744.855 66.3516 742.688 66.3516C741.164 66.3516 739.816 66.082 738.645 65.543C737.473 65.0039 736.553 64.2539 735.885 63.293C735.229 62.3203 734.9 61.2715 734.9 60.1465H738.152C738.211 61.2363 738.645 62.1035 739.453 62.748C740.273 63.3809 741.352 63.6973 742.688 63.6973C743.918 63.6973 744.902 63.4512 745.641 62.959C746.391 62.4551 746.766 61.7871 746.766 60.9551Z" fill="#13EBF9"/>
<path d="M758.666 42.375V46.9805H762.217V49.4941H758.666V61.2891C758.666 62.0508 758.824 62.625 759.141 63.0117C759.457 63.3867 759.996 63.5742 760.758 63.5742C761.133 63.5742 761.648 63.5039 762.305 63.3633V66C761.449 66.2344 760.617 66.3516 759.809 66.3516C758.355 66.3516 757.26 65.9121 756.521 65.0332C755.783 64.1543 755.414 62.9062 755.414 61.2891V49.4941H751.951V46.9805H755.414V42.375H758.666Z" fill="#13EBF9"/>
<path d="M769.564 66H766.312V46.9805H769.564V66ZM766.049 41.9355C766.049 41.4082 766.207 40.9629 766.523 40.5996C766.852 40.2363 767.332 40.0547 767.965 40.0547C768.598 40.0547 769.078 40.2363 769.406 40.5996C769.734 40.9629 769.898 41.4082 769.898 41.9355C769.898 42.4629 769.734 42.9023 769.406 43.2539C769.078 43.6055 768.598 43.7812 767.965 43.7812C767.332 43.7812 766.852 43.6055 766.523 43.2539C766.207 42.9023 766.049 42.4629 766.049 41.9355Z" fill="#13EBF9"/>
<path d="M786.527 66C786.34 65.625 786.188 64.957 786.07 63.9961C784.559 65.5664 782.754 66.3516 780.656 66.3516C778.781 66.3516 777.24 65.8242 776.033 64.7695C774.838 63.7031 774.24 62.3555 774.24 60.7266C774.24 58.7461 774.99 57.2109 776.49 56.1211C778.002 55.0195 780.123 54.4688 782.854 54.4688H786.018V52.9746C786.018 51.8379 785.678 50.9355 784.998 50.2676C784.318 49.5879 783.316 49.248 781.992 49.248C780.832 49.248 779.859 49.541 779.074 50.127C778.289 50.7129 777.896 51.4219 777.896 52.2539H774.627C774.627 51.3047 774.961 50.3906 775.629 49.5117C776.309 48.6211 777.223 47.918 778.371 47.4023C779.531 46.8867 780.803 46.6289 782.186 46.6289C784.377 46.6289 786.094 47.1797 787.336 48.2812C788.578 49.3711 789.223 50.877 789.27 52.7988V61.5527C789.27 63.2988 789.492 64.6875 789.938 65.7188V66H786.527ZM781.131 63.5215C782.15 63.5215 783.117 63.2578 784.031 62.7305C784.945 62.2031 785.607 61.5176 786.018 60.6738V56.7715H783.469C779.484 56.7715 777.492 57.9375 777.492 60.2695C777.492 61.2891 777.832 62.0859 778.512 62.6602C779.191 63.2344 780.064 63.5215 781.131 63.5215Z" fill="#13EBF9"/>
<path d="M797.443 46.9805L797.549 49.3711C799.002 47.543 800.9 46.6289 803.244 46.6289C807.264 46.6289 809.291 48.8965 809.326 53.4316V66H806.074V53.4141C806.062 52.043 805.746 51.0293 805.125 50.373C804.516 49.7168 803.561 49.3887 802.26 49.3887C801.205 49.3887 800.279 49.6699 799.482 50.2324C798.686 50.7949 798.064 51.5332 797.619 52.4473V66H794.367V46.9805H797.443Z" fill="#13EBF9"/>
<path d="M35.3301 138.406L43.6973 159.289L52.0645 138.406H56.4414V164H53.0664V154.033L53.3828 143.275L44.9805 164H42.3965L34.0117 143.328L34.3457 154.033V164H30.9707V138.406H35.3301Z" fill="#13EBF9"/>
<path d="M69.7832 164.352C67.2051 164.352 65.1074 163.508 63.4902 161.82C61.873 160.121 61.0645 157.854 61.0645 155.018V154.42C61.0645 152.533 61.4219 150.852 62.1367 149.375C62.8633 147.887 63.8711 146.727 65.1602 145.895C66.4609 145.051 67.8672 144.629 69.3789 144.629C71.8516 144.629 73.7734 145.443 75.1445 147.072C76.5156 148.701 77.2012 151.033 77.2012 154.068V155.422H64.3164C64.3633 157.297 64.9082 158.814 65.9512 159.975C67.0059 161.123 68.3418 161.697 69.959 161.697C71.1074 161.697 72.0801 161.463 72.877 160.994C73.6738 160.525 74.3711 159.904 74.9688 159.131L76.9551 160.678C75.3613 163.127 72.9707 164.352 69.7832 164.352ZM69.3789 147.301C68.0664 147.301 66.9648 147.781 66.0742 148.742C65.1836 149.691 64.6328 151.027 64.4219 152.75H73.9492V152.504C73.8555 150.852 73.4102 149.574 72.6133 148.672C71.8164 147.758 70.7383 147.301 69.3789 147.301Z" fill="#13EBF9"/>
<path d="M80.1895 154.332C80.1895 151.414 80.8809 149.07 82.2637 147.301C83.6465 145.52 85.457 144.629 87.6953 144.629C89.9219 144.629 91.6855 145.391 92.9863 146.914V137H96.2383V164H93.25L93.0918 161.961C91.791 163.555 89.9805 164.352 87.6602 164.352C85.457 164.352 83.6582 163.449 82.2637 161.645C80.8809 159.84 80.1895 157.484 80.1895 154.578V154.332ZM83.4414 154.701C83.4414 156.857 83.8867 158.545 84.7773 159.764C85.668 160.982 86.8984 161.592 88.4688 161.592C90.5312 161.592 92.0371 160.666 92.9863 158.814V150.078C92.0137 148.285 90.5195 147.389 88.5039 147.389C86.9102 147.389 85.668 148.004 84.7773 149.234C83.8867 150.465 83.4414 152.287 83.4414 154.701Z" fill="#13EBF9"/>
<path d="M104.834 164H101.582V144.98H104.834V164ZM101.318 139.936C101.318 139.408 101.477 138.963 101.793 138.6C102.121 138.236 102.602 138.055 103.234 138.055C103.867 138.055 104.348 138.236 104.676 138.6C105.004 138.963 105.168 139.408 105.168 139.936C105.168 140.463 105.004 140.902 104.676 141.254C104.348 141.605 103.867 141.781 103.234 141.781C102.602 141.781 102.121 141.605 101.793 141.254C101.477 140.902 101.318 140.463 101.318 139.936Z" fill="#13EBF9"/>
<path d="M117.684 161.697C118.844 161.697 119.857 161.346 120.725 160.643C121.592 159.939 122.072 159.061 122.166 158.006H125.242C125.184 159.096 124.809 160.133 124.117 161.117C123.426 162.102 122.5 162.887 121.34 163.473C120.191 164.059 118.973 164.352 117.684 164.352C115.094 164.352 113.031 163.49 111.496 161.768C109.973 160.033 109.211 157.666 109.211 154.666V154.121C109.211 152.27 109.551 150.623 110.23 149.182C110.91 147.74 111.883 146.621 113.148 145.824C114.426 145.027 115.932 144.629 117.666 144.629C119.799 144.629 121.568 145.268 122.975 146.545C124.393 147.822 125.148 149.48 125.242 151.52H122.166C122.072 150.289 121.604 149.281 120.76 148.496C119.928 147.699 118.896 147.301 117.666 147.301C116.014 147.301 114.73 147.898 113.816 149.094C112.914 150.277 112.463 151.994 112.463 154.244V154.859C112.463 157.051 112.914 158.738 113.816 159.922C114.719 161.105 116.008 161.697 117.684 161.697Z" fill="#13EBF9"/>
<path d="M132.432 164H129.18V144.98H132.432V164ZM128.916 139.936C128.916 139.408 129.074 138.963 129.391 138.6C129.719 138.236 130.199 138.055 130.832 138.055C131.465 138.055 131.945 138.236 132.273 138.6C132.602 138.963 132.766 139.408 132.766 139.936C132.766 140.463 132.602 140.902 132.273 141.254C131.945 141.605 131.465 141.781 130.832 141.781C130.199 141.781 129.719 141.605 129.391 141.254C129.074 140.902 128.916 140.463 128.916 139.936Z" fill="#13EBF9"/>
<path d="M140.729 144.98L140.834 147.371C142.287 145.543 144.186 144.629 146.529 144.629C150.549 144.629 152.576 146.896 152.611 151.432V164H149.359V151.414C149.348 150.043 149.031 149.029 148.41 148.373C147.801 147.717 146.846 147.389 145.545 147.389C144.49 147.389 143.564 147.67 142.768 148.232C141.971 148.795 141.35 149.533 140.904 150.447V164H137.652V144.98H140.729Z" fill="#13EBF9"/>
<path d="M169.258 164C169.07 163.625 168.918 162.957 168.801 161.996C167.289 163.566 165.484 164.352 163.387 164.352C161.512 164.352 159.971 163.824 158.764 162.77C157.568 161.703 156.971 160.355 156.971 158.727C156.971 156.746 157.721 155.211 159.221 154.121C160.732 153.02 162.854 152.469 165.584 152.469H168.748V150.975C168.748 149.838 168.408 148.936 167.729 148.268C167.049 147.588 166.047 147.248 164.723 147.248C163.562 147.248 162.59 147.541 161.805 148.127C161.02 148.713 160.627 149.422 160.627 150.254H157.357C157.357 149.305 157.691 148.391 158.359 147.512C159.039 146.621 159.953 145.918 161.102 145.402C162.262 144.887 163.533 144.629 164.916 144.629C167.107 144.629 168.824 145.18 170.066 146.281C171.309 147.371 171.953 148.877 172 150.799V159.553C172 161.299 172.223 162.688 172.668 163.719V164H169.258ZM163.861 161.521C164.881 161.521 165.848 161.258 166.762 160.73C167.676 160.203 168.338 159.518 168.748 158.674V154.771H166.199C162.215 154.771 160.223 155.938 160.223 158.27C160.223 159.289 160.562 160.086 161.242 160.66C161.922 161.234 162.795 161.521 163.861 161.521Z" fill="#13EBF9"/>
<path d="M51.0859 250.697H40.3457V262H36.9707V236.406H52.8262V239.184H40.3457V247.938H51.0859V250.697Z" fill="#13EBF9"/>
<path d="M59.8926 262H56.6406V242.98H59.8926V262ZM56.377 237.936C56.377 237.408 56.5352 236.963 56.8516 236.6C57.1797 236.236 57.6602 236.055 58.293 236.055C58.9258 236.055 59.4062 236.236 59.7344 236.6C60.0625 236.963 60.2266 237.408 60.2266 237.936C60.2266 238.463 60.0625 238.902 59.7344 239.254C59.4062 239.605 58.9258 239.781 58.293 239.781C57.6602 239.781 57.1797 239.605 56.8516 239.254C56.5352 238.902 56.377 238.463 56.377 237.936Z" fill="#13EBF9"/>
<path d="M68.6465 262H65.3945V235H68.6465V262Z" fill="#13EBF9"/>
<path d="M73.0059 252.314C73.0059 250.451 73.3691 248.775 74.0957 247.287C74.834 245.799 75.8535 244.65 77.1543 243.842C78.4668 243.033 79.9609 242.629 81.6367 242.629C84.2266 242.629 86.3184 243.525 87.9121 245.318C89.5176 247.111 90.3203 249.496 90.3203 252.473V252.701C90.3203 254.553 89.9629 256.217 89.248 257.693C88.5449 259.158 87.5312 260.301 86.207 261.121C84.8945 261.941 83.3828 262.352 81.6719 262.352C79.0938 262.352 77.002 261.455 75.3965 259.662C73.8027 257.869 73.0059 255.496 73.0059 252.543V252.314ZM76.2754 252.701C76.2754 254.811 76.7617 256.504 77.7344 257.781C78.7188 259.059 80.0312 259.697 81.6719 259.697C83.3242 259.697 84.6367 259.053 85.6094 257.764C86.582 256.463 87.0684 254.646 87.0684 252.314C87.0684 250.229 86.5703 248.541 85.5742 247.252C84.5898 245.951 83.2773 245.301 81.6367 245.301C80.0312 245.301 78.7363 245.939 77.752 247.217C76.7676 248.494 76.2754 250.322 76.2754 252.701Z" fill="#13EBF9"/>
<path d="M105.473 256.955C105.473 256.076 105.139 255.396 104.471 254.916C103.814 254.424 102.66 254.002 101.008 253.65C99.3672 253.299 98.0605 252.877 97.0879 252.385C96.127 251.893 95.4121 251.307 94.9434 250.627C94.4863 249.947 94.2578 249.139 94.2578 248.201C94.2578 246.643 94.9141 245.324 96.2266 244.246C97.5508 243.168 99.2383 242.629 101.289 242.629C103.445 242.629 105.191 243.186 106.527 244.299C107.875 245.412 108.549 246.836 108.549 248.57H105.279C105.279 247.68 104.898 246.912 104.137 246.268C103.387 245.623 102.438 245.301 101.289 245.301C100.105 245.301 99.1797 245.559 98.5117 246.074C97.8438 246.59 97.5098 247.264 97.5098 248.096C97.5098 248.881 97.8203 249.473 98.4414 249.871C99.0625 250.27 100.182 250.65 101.799 251.014C103.428 251.377 104.746 251.811 105.754 252.314C106.762 252.818 107.506 253.428 107.986 254.143C108.479 254.846 108.725 255.707 108.725 256.727C108.725 258.426 108.045 259.791 106.686 260.822C105.326 261.842 103.562 262.352 101.395 262.352C99.8711 262.352 98.5234 262.082 97.3516 261.543C96.1797 261.004 95.2598 260.254 94.5918 259.293C93.9355 258.32 93.6074 257.271 93.6074 256.146H96.8594C96.918 257.236 97.3516 258.104 98.1602 258.748C98.9805 259.381 100.059 259.697 101.395 259.697C102.625 259.697 103.609 259.451 104.348 258.959C105.098 258.455 105.473 257.787 105.473 256.955Z" fill="#13EBF9"/>
<path d="M112.1 252.314C112.1 250.451 112.463 248.775 113.189 247.287C113.928 245.799 114.947 244.65 116.248 243.842C117.561 243.033 119.055 242.629 120.73 242.629C123.32 242.629 125.412 243.525 127.006 245.318C128.611 247.111 129.414 249.496 129.414 252.473V252.701C129.414 254.553 129.057 256.217 128.342 257.693C127.639 259.158 126.625 260.301 125.301 261.121C123.988 261.941 122.477 262.352 120.766 262.352C118.188 262.352 116.096 261.455 114.49 259.662C112.896 257.869 112.1 255.496 112.1 252.543V252.314ZM115.369 252.701C115.369 254.811 115.855 256.504 116.828 257.781C117.812 259.059 119.125 259.697 120.766 259.697C122.418 259.697 123.73 259.053 124.703 257.764C125.676 256.463 126.162 254.646 126.162 252.314C126.162 250.229 125.664 248.541 124.668 247.252C123.684 245.951 122.371 245.301 120.73 245.301C119.125 245.301 117.83 245.939 116.846 247.217C115.861 248.494 115.369 250.322 115.369 252.701Z" fill="#13EBF9"/>
<path d="M135.092 262V245.494H132.086V242.98H135.092V241.029C135.092 238.99 135.637 237.414 136.727 236.301C137.816 235.188 139.357 234.631 141.35 234.631C142.1 234.631 142.844 234.73 143.582 234.93L143.406 237.566C142.855 237.461 142.27 237.408 141.648 237.408C140.594 237.408 139.779 237.719 139.205 238.34C138.631 238.949 138.344 239.828 138.344 240.977V242.98H142.404V245.494H138.344V262H135.092Z" fill="#13EBF9"/>
<path d="M149.541 262H146.271V242.98H149.541V262ZM149.576 235.018H153.514L148.803 240.186H146.184L149.576 235.018Z" fill="#13EBF9"/>
<path d="M166.645 262C166.457 261.625 166.305 260.957 166.188 259.996C164.676 261.566 162.871 262.352 160.773 262.352C158.898 262.352 157.357 261.824 156.15 260.77C154.955 259.703 154.357 258.355 154.357 256.727C154.357 254.746 155.107 253.211 156.607 252.121C158.119 251.02 160.24 250.469 162.971 250.469H166.135V248.975C166.135 247.838 165.795 246.936 165.115 246.268C164.436 245.588 163.434 245.248 162.109 245.248C160.949 245.248 159.977 245.541 159.191 246.127C158.406 246.713 158.014 247.422 158.014 248.254H154.744C154.744 247.305 155.078 246.391 155.746 245.512C156.426 244.621 157.34 243.918 158.488 243.402C159.648 242.887 160.92 242.629 162.303 242.629C164.494 242.629 166.211 243.18 167.453 244.281C168.695 245.371 169.34 246.877 169.387 248.799V257.553C169.387 259.299 169.609 260.688 170.055 261.719V262H166.645ZM161.248 259.521C162.268 259.521 163.234 259.258 164.148 258.73C165.062 258.203 165.725 257.518 166.135 256.674V252.771H163.586C159.602 252.771 157.609 253.938 157.609 256.27C157.609 257.289 157.949 258.086 158.629 258.66C159.309 259.234 160.182 259.521 161.248 259.521Z" fill="#13EBF9"/>
<path fill-rule="evenodd" clip-rule="evenodd" d="M540.967 141.446C542.042 140.579 542.211 139.005 541.344 137.931C540.477 136.856 538.903 136.687 537.828 137.554L514.421 156.431L515.515 144.947C515.646 143.573 514.638 142.353 513.263 142.222C511.889 142.091 510.668 143.099 510.537 144.473L509.011 160.496C508.911 161.55 509.481 162.513 510.371 162.964C511.244 164.009 512.796 164.165 513.859 163.307L540.967 141.446Z" fill="#2CF30B"/>
<path fill-rule="evenodd" clip-rule="evenodd" d="M727.268 134.732C726.291 133.756 724.709 133.756 723.732 134.732C722.756 135.709 722.756 137.291 723.732 138.268L737.283 151.819L724.095 165.523C723.138 166.518 723.168 168.101 724.163 169.058C725.158 170.015 726.741 169.985 727.698 168.99L740.82 155.355L754.205 168.741C755.181 169.717 756.764 169.717 757.741 168.741C758.717 167.764 758.717 166.181 757.741 165.205L744.287 151.752L757.231 138.301C758.188 137.306 758.158 135.724 757.163 134.766C756.168 133.809 754.586 133.839 753.628 134.834L740.751 148.215L727.268 134.732Z" fill="#FD0C0C"/>
<path fill-rule="evenodd" clip-rule="evenodd" d="M511.268 235.732C510.291 234.756 508.709 234.756 507.732 235.732C506.756 236.709 506.756 238.291 507.732 239.268L521.283 252.819L508.095 266.523C507.138 267.518 507.168 269.101 508.163 270.058C509.158 271.015 510.741 270.985 511.698 269.99L524.82 256.355L538.205 269.741C539.181 270.717 540.764 270.717 541.741 269.741C542.717 268.764 542.717 267.181 541.741 266.205L528.287 252.752L541.231 239.301C542.188 238.306 542.158 236.724 541.163 235.766C540.168 234.809 538.586 234.839 537.628 235.834L524.751 249.215L511.268 235.732Z" fill="#FD0C0C"/>
<path fill-rule="evenodd" clip-rule="evenodd" d="M752.967 244.446C754.042 243.579 754.211 242.005 753.344 240.931C752.477 239.856 750.903 239.687 749.828 240.554L726.421 259.431L727.515 247.947C727.646 246.573 726.638 245.353 725.263 245.222C723.889 245.091 722.668 246.099 722.537 247.473L721.011 263.496C720.911 264.55 721.481 265.513 722.371 265.964C723.244 267.009 724.796 267.165 725.859 266.307L752.967 244.446Z" fill="#2CF30B"/>
<path fill-rule="evenodd" clip-rule="evenodd" d="M326.967 141.446C328.042 140.579 328.211 139.005 327.344 137.931C326.477 136.856 324.903 136.687 323.828 137.554L300.421 156.431L301.515 144.947C301.646 143.573 300.638 142.353 299.263 142.222C297.889 142.091 296.668 143.099 296.537 144.473L295.011 160.496C294.911 161.55 295.481 162.513 296.371 162.964C297.244 164.009 298.796 164.165 299.859 163.307L326.967 141.446Z" fill="#2CF30B"/>
<path fill-rule="evenodd" clip-rule="evenodd" d="M297.268 232.732C296.291 231.756 294.709 231.756 293.732 232.732C292.756 233.709 292.756 235.291 293.732 236.268L307.283 249.819L294.095 263.523C293.138 264.518 293.168 266.101 294.163 267.058C295.158 268.015 296.741 267.985 297.698 266.99L310.82 253.355L324.205 266.741C325.181 267.717 326.764 267.717 327.741 266.741C328.717 265.764 328.717 264.181 327.741 263.205L314.287 249.752L327.231 236.301C328.188 235.306 328.158 233.724 327.163 232.766C326.168 231.809 324.586 231.839 323.628 232.834L310.751 246.215L297.268 232.732Z" fill="#FD0C0C"/>
<path fill-rule="evenodd" clip-rule="evenodd" d="M210.25 447.5H5V541H210.25V447.5ZM210.25 442.5H5V350H210.25V442.5ZM215.25 447.5V541H423V447.5H215.25ZM423 442.5H215.25V350H423V442.5ZM428 447.5V541H634.642L634.097 447.5H428ZM634.068 442.5H428V350H633.529L634.068 442.5ZM639.097 447.5L639.642 541H845V447.5H639.097ZM845 442.5H639.068L638.529 350H845V442.5ZM850 644.25L0 649V345H850V644.25ZM5 546V643.972L210.25 642.825V546H5ZM215.25 546V642.797L423 641.636V546H215.25ZM428 546V641.608L635.221 640.45L634.671 546H428ZM639.671 546L640.221 640.422L845 639.278V546H639.671Z" fill="#13EBF9"/>
<path d="M282.592 411H279.217V385.406H282.592V411Z" fill="#13EBF9"/>
<path d="M294.545 406.588L299.256 391.98H302.578L295.758 411H293.279L286.389 391.98H289.711L294.545 406.588Z" fill="#13EBF9"/>
<path d="M317.168 411C316.98 410.625 316.828 409.957 316.711 408.996C315.199 410.566 313.395 411.352 311.297 411.352C309.422 411.352 307.881 410.824 306.674 409.77C305.479 408.703 304.881 407.355 304.881 405.727C304.881 403.746 305.631 402.211 307.131 401.121C308.643 400.02 310.764 399.469 313.494 399.469H316.658V397.975C316.658 396.838 316.318 395.936 315.639 395.268C314.959 394.588 313.957 394.248 312.633 394.248C311.473 394.248 310.5 394.541 309.715 395.127C308.93 395.713 308.537 396.422 308.537 397.254H305.268C305.268 396.305 305.602 395.391 306.27 394.512C306.949 393.621 307.863 392.918 309.012 392.402C310.172 391.887 311.443 391.629 312.826 391.629C315.018 391.629 316.734 392.18 317.977 393.281C319.219 394.371 319.863 395.877 319.91 397.799V406.553C319.91 408.299 320.133 409.688 320.578 410.719V411H317.168ZM311.771 408.521C312.791 408.521 313.758 408.258 314.672 407.73C315.586 407.203 316.248 406.518 316.658 405.674V401.771H314.109C310.125 401.771 308.133 402.938 308.133 405.27C308.133 406.289 308.473 407.086 309.152 407.66C309.832 408.234 310.705 408.521 311.771 408.521ZM314.777 384H318.715L314.004 389.168H311.385L314.777 384Z" fill="#13EBF9"/>
<path d="M328.084 391.98L328.189 394.371C329.643 392.543 331.541 391.629 333.885 391.629C337.904 391.629 339.932 393.896 339.967 398.432V411H336.715V398.414C336.703 397.043 336.387 396.029 335.766 395.373C335.156 394.717 334.201 394.389 332.9 394.389C331.846 394.389 330.92 394.67 330.123 395.232C329.326 395.795 328.705 396.533 328.26 397.447V411H325.008V391.98H328.084Z" fill="#13EBF9"/>
<path d="M497.693 385.406H501.086V403.529C501.086 405.979 500.348 407.895 498.871 409.277C497.406 410.66 495.449 411.352 493 411.352C490.457 411.352 488.477 410.701 487.059 409.4C485.641 408.1 484.932 406.277 484.932 403.934H488.307C488.307 405.398 488.705 406.541 489.502 407.361C490.311 408.182 491.477 408.592 493 408.592C494.395 408.592 495.52 408.152 496.375 407.273C497.242 406.395 497.682 405.164 497.693 403.582V385.406Z" fill="#13EBF9"/>
<path d="M505.463 401.314C505.463 399.451 505.826 397.775 506.553 396.287C507.291 394.799 508.311 393.65 509.611 392.842C510.924 392.033 512.418 391.629 514.094 391.629C516.684 391.629 518.775 392.525 520.369 394.318C521.975 396.111 522.777 398.496 522.777 401.473V401.701C522.777 403.553 522.42 405.217 521.705 406.693C521.002 408.158 519.988 409.301 518.664 410.121C517.352 410.941 515.84 411.352 514.129 411.352C511.551 411.352 509.459 410.455 507.854 408.662C506.26 406.869 505.463 404.496 505.463 401.543V401.314ZM508.732 401.701C508.732 403.811 509.219 405.504 510.191 406.781C511.176 408.059 512.488 408.697 514.129 408.697C515.781 408.697 517.094 408.053 518.066 406.764C519.039 405.463 519.525 403.646 519.525 401.314C519.525 399.229 519.027 397.541 518.031 396.252C517.047 394.951 515.734 394.301 514.094 394.301C512.488 394.301 511.193 394.939 510.209 396.217C509.225 397.494 508.732 399.322 508.732 401.701Z" fill="#13EBF9"/>
<path d="M537.93 405.955C537.93 405.076 537.596 404.396 536.928 403.916C536.271 403.424 535.117 403.002 533.465 402.65C531.824 402.299 530.518 401.877 529.545 401.385C528.584 400.893 527.869 400.307 527.4 399.627C526.943 398.947 526.715 398.139 526.715 397.201C526.715 395.643 527.371 394.324 528.684 393.246C530.008 392.168 531.695 391.629 533.746 391.629C535.902 391.629 537.648 392.186 538.984 393.299C540.332 394.412 541.006 395.836 541.006 397.57H537.736C537.736 396.68 537.355 395.912 536.594 395.268C535.844 394.623 534.895 394.301 533.746 394.301C532.562 394.301 531.637 394.559 530.969 395.074C530.301 395.59 529.967 396.264 529.967 397.096C529.967 397.881 530.277 398.473 530.898 398.871C531.52 399.27 532.639 399.65 534.256 400.014C535.885 400.377 537.203 400.811 538.211 401.314C539.219 401.818 539.963 402.428 540.443 403.143C540.936 403.846 541.182 404.707 541.182 405.727C541.182 407.426 540.502 408.791 539.143 409.822C537.783 410.842 536.02 411.352 533.852 411.352C532.328 411.352 530.98 411.082 529.809 410.543C528.637 410.004 527.717 409.254 527.049 408.293C526.393 407.32 526.064 406.271 526.064 405.146H529.316C529.375 406.236 529.809 407.104 530.617 407.748C531.438 408.381 532.516 408.697 533.852 408.697C535.082 408.697 536.066 408.451 536.805 407.959C537.555 407.455 537.93 406.787 537.93 405.955Z" fill="#13EBF9"/>
<path d="M553.311 411.352C550.732 411.352 548.635 410.508 547.018 408.82C545.4 407.121 544.592 404.854 544.592 402.018V401.42C544.592 399.533 544.949 397.852 545.664 396.375C546.391 394.887 547.398 393.727 548.688 392.895C549.988 392.051 551.395 391.629 552.906 391.629C555.379 391.629 557.301 392.443 558.672 394.072C560.043 395.701 560.729 398.033 560.729 401.068V402.422H547.844C547.891 404.297 548.436 405.814 549.479 406.975C550.533 408.123 551.869 408.697 553.486 408.697C554.635 408.697 555.607 408.463 556.404 407.994C557.201 407.525 557.898 406.904 558.496 406.131L560.482 407.678C558.889 410.127 556.498 411.352 553.311 411.352ZM552.906 394.301C551.594 394.301 550.492 394.781 549.602 395.742C548.711 396.691 548.16 398.027 547.949 399.75H557.477V399.504C557.383 397.852 556.938 396.574 556.141 395.672C555.344 394.758 554.266 394.301 552.906 394.301ZM554.488 384H558.426L553.715 389.168H551.096L554.488 384Z" fill="#13EBF9"/>
<path d="M689.797 402.879C689.48 405.586 688.479 407.678 686.791 409.154C685.115 410.619 682.883 411.352 680.094 411.352C677.07 411.352 674.645 410.268 672.816 408.1C671 405.932 670.092 403.031 670.092 399.398V396.938C670.092 394.559 670.514 392.467 671.357 390.662C672.213 388.857 673.42 387.475 674.979 386.514C676.537 385.541 678.342 385.055 680.393 385.055C683.111 385.055 685.291 385.816 686.932 387.34C688.572 388.852 689.527 390.949 689.797 393.633H686.404C686.111 391.594 685.473 390.117 684.488 389.203C683.516 388.289 682.15 387.832 680.393 387.832C678.236 387.832 676.543 388.629 675.312 390.223C674.094 391.816 673.484 394.084 673.484 397.025V399.504C673.484 402.281 674.064 404.49 675.225 406.131C676.385 407.771 678.008 408.592 680.094 408.592C681.969 408.592 683.404 408.17 684.4 407.326C685.408 406.471 686.076 404.988 686.404 402.879H689.797Z" fill="#13EBF9"/>
<path d="M697.162 394.283C698.604 392.514 700.479 391.629 702.787 391.629C706.807 391.629 708.834 393.896 708.869 398.432V411H705.617V398.414C705.605 397.043 705.289 396.029 704.668 395.373C704.059 394.717 703.104 394.389 701.803 394.389C700.748 394.389 699.822 394.67 699.025 395.232C698.229 395.795 697.607 396.533 697.162 397.447V411H693.91V384H697.162V394.283Z" fill="#13EBF9"/>
<path d="M722.932 394.898C722.439 394.816 721.906 394.775 721.332 394.775C719.199 394.775 717.752 395.684 716.99 397.5V411H713.738V391.98H716.902L716.955 394.178C718.021 392.479 719.533 391.629 721.49 391.629C722.123 391.629 722.604 391.711 722.932 391.875V394.898Z" fill="#13EBF9"/>
<path d="M729.471 411H726.219V391.98H729.471V411ZM725.955 386.936C725.955 386.408 726.113 385.963 726.43 385.6C726.758 385.236 727.238 385.055 727.871 385.055C728.504 385.055 728.984 385.236 729.312 385.6C729.641 385.963 729.805 386.408 729.805 386.936C729.805 387.463 729.641 387.902 729.312 388.254C728.984 388.605 728.504 388.781 727.871 388.781C727.238 388.781 726.758 388.605 726.43 388.254C726.113 387.902 725.955 387.463 725.955 386.936Z" fill="#13EBF9"/>
<path d="M745.766 405.955C745.766 405.076 745.432 404.396 744.764 403.916C744.107 403.424 742.953 403.002 741.301 402.65C739.66 402.299 738.354 401.877 737.381 401.385C736.42 400.893 735.705 400.307 735.236 399.627C734.779 398.947 734.551 398.139 734.551 397.201C734.551 395.643 735.207 394.324 736.52 393.246C737.844 392.168 739.531 391.629 741.582 391.629C743.738 391.629 745.484 392.186 746.82 393.299C748.168 394.412 748.842 395.836 748.842 397.57H745.572C745.572 396.68 745.191 395.912 744.43 395.268C743.68 394.623 742.73 394.301 741.582 394.301C740.398 394.301 739.473 394.559 738.805 395.074C738.137 395.59 737.803 396.264 737.803 397.096C737.803 397.881 738.113 398.473 738.734 398.871C739.355 399.27 740.475 399.65 742.092 400.014C743.721 400.377 745.039 400.811 746.047 401.314C747.055 401.818 747.799 402.428 748.279 403.143C748.771 403.846 749.018 404.707 749.018 405.727C749.018 407.426 748.338 408.791 746.979 409.822C745.619 410.842 743.855 411.352 741.688 411.352C740.164 411.352 738.816 411.082 737.645 410.543C736.473 410.004 735.553 409.254 734.885 408.293C734.229 407.32 733.9 406.271 733.9 405.146H737.152C737.211 406.236 737.645 407.104 738.453 407.748C739.273 408.381 740.352 408.697 741.688 408.697C742.918 408.697 743.902 408.451 744.641 407.959C745.391 407.455 745.766 406.787 745.766 405.955Z" fill="#13EBF9"/>
<path d="M757.666 387.375V391.98H761.217V394.494H757.666V406.289C757.666 407.051 757.824 407.625 758.141 408.012C758.457 408.387 758.996 408.574 759.758 408.574C760.133 408.574 760.648 408.504 761.305 408.363V411C760.449 411.234 759.617 411.352 758.809 411.352C757.355 411.352 756.26 410.912 755.521 410.033C754.783 409.154 754.414 407.906 754.414 406.289V394.494H750.951V391.98H754.414V387.375H757.666Z" fill="#13EBF9"/>
<path d="M768.564 411H765.312V391.98H768.564V411ZM765.049 386.936C765.049 386.408 765.207 385.963 765.523 385.6C765.852 385.236 766.332 385.055 766.965 385.055C767.598 385.055 768.078 385.236 768.406 385.6C768.734 385.963 768.898 386.408 768.898 386.936C768.898 387.463 768.734 387.902 768.406 388.254C768.078 388.605 767.598 388.781 766.965 388.781C766.332 388.781 765.852 388.605 765.523 388.254C765.207 387.902 765.049 387.463 765.049 386.936Z" fill="#13EBF9"/>
<path d="M785.527 411C785.34 410.625 785.188 409.957 785.07 408.996C783.559 410.566 781.754 411.352 779.656 411.352C777.781 411.352 776.24 410.824 775.033 409.77C773.838 408.703 773.24 407.355 773.24 405.727C773.24 403.746 773.99 402.211 775.49 401.121C777.002 400.02 779.123 399.469 781.854 399.469H785.018V397.975C785.018 396.838 784.678 395.936 783.998 395.268C783.318 394.588 782.316 394.248 780.992 394.248C779.832 394.248 778.859 394.541 778.074 395.127C777.289 395.713 776.896 396.422 776.896 397.254H773.627C773.627 396.305 773.961 395.391 774.629 394.512C775.309 393.621 776.223 392.918 777.371 392.402C778.531 391.887 779.803 391.629 781.186 391.629C783.377 391.629 785.094 392.18 786.336 393.281C787.578 394.371 788.223 395.877 788.27 397.799V406.553C788.27 408.299 788.492 409.688 788.938 410.719V411H785.527ZM780.131 408.521C781.15 408.521 782.117 408.258 783.031 407.73C783.945 407.203 784.607 406.518 785.018 405.674V401.771H782.469C778.484 401.771 776.492 402.938 776.492 405.27C776.492 406.289 776.832 407.086 777.512 407.66C778.191 408.234 779.064 408.521 780.131 408.521Z" fill="#13EBF9"/>
<path d="M796.443 391.98L796.549 394.371C798.002 392.543 799.9 391.629 802.244 391.629C806.264 391.629 808.291 393.896 808.326 398.432V411H805.074V398.414C805.062 397.043 804.746 396.029 804.125 395.373C803.516 394.717 802.561 394.389 801.26 394.389C800.205 394.389 799.279 394.67 798.482 395.232C797.686 395.795 797.064 396.533 796.619 397.447V411H793.367V391.98H796.443Z" fill="#13EBF9"/>
<path d="M34.3301 483.406L42.6973 504.289L51.0645 483.406H55.4414V509H52.0664V499.033L52.3828 488.275L43.9805 509H41.3965L33.0117 488.328L33.3457 499.033V509H29.9707V483.406H34.3301Z" fill="#13EBF9"/>
<path d="M68.7832 509.352C66.2051 509.352 64.1074 508.508 62.4902 506.82C60.873 505.121 60.0645 502.854 60.0645 500.018V499.42C60.0645 497.533 60.4219 495.852 61.1367 494.375C61.8633 492.887 62.8711 491.727 64.1602 490.895C65.4609 490.051 66.8672 489.629 68.3789 489.629C70.8516 489.629 72.7734 490.443 74.1445 492.072C75.5156 493.701 76.2012 496.033 76.2012 499.068V500.422H63.3164C63.3633 502.297 63.9082 503.814 64.9512 504.975C66.0059 506.123 67.3418 506.697 68.959 506.697C70.1074 506.697 71.0801 506.463 71.877 505.994C72.6738 505.525 73.3711 504.904 73.9688 504.131L75.9551 505.678C74.3613 508.127 71.9707 509.352 68.7832 509.352ZM68.3789 492.301C67.0664 492.301 65.9648 492.781 65.0742 493.742C64.1836 494.691 63.6328 496.027 63.4219 497.75H72.9492V497.504C72.8555 495.852 72.4102 494.574 71.6133 493.672C70.8164 492.758 69.7383 492.301 68.3789 492.301Z" fill="#13EBF9"/>
<path d="M79.1895 499.332C79.1895 496.414 79.8809 494.07 81.2637 492.301C82.6465 490.52 84.457 489.629 86.6953 489.629C88.9219 489.629 90.6855 490.391 91.9863 491.914V482H95.2383V509H92.25L92.0918 506.961C90.791 508.555 88.9805 509.352 86.6602 509.352C84.457 509.352 82.6582 508.449 81.2637 506.645C79.8809 504.84 79.1895 502.484 79.1895 499.578V499.332ZM82.4414 499.701C82.4414 501.857 82.8867 503.545 83.7773 504.764C84.668 505.982 85.8984 506.592 87.4688 506.592C89.5312 506.592 91.0371 505.666 91.9863 503.814V495.078C91.0137 493.285 89.5195 492.389 87.5039 492.389C85.9102 492.389 84.668 493.004 83.7773 494.234C82.8867 495.465 82.4414 497.287 82.4414 499.701Z" fill="#13EBF9"/>
<path d="M103.834 509H100.582V489.98H103.834V509ZM100.318 484.936C100.318 484.408 100.477 483.963 100.793 483.6C101.121 483.236 101.602 483.055 102.234 483.055C102.867 483.055 103.348 483.236 103.676 483.6C104.004 483.963 104.168 484.408 104.168 484.936C104.168 485.463 104.004 485.902 103.676 486.254C103.348 486.605 102.867 486.781 102.234 486.781C101.602 486.781 101.121 486.605 100.793 486.254C100.477 485.902 100.318 485.463 100.318 484.936Z" fill="#13EBF9"/>
<path d="M116.684 506.697C117.844 506.697 118.857 506.346 119.725 505.643C120.592 504.939 121.072 504.061 121.166 503.006H124.242C124.184 504.096 123.809 505.133 123.117 506.117C122.426 507.102 121.5 507.887 120.34 508.473C119.191 509.059 117.973 509.352 116.684 509.352C114.094 509.352 112.031 508.49 110.496 506.768C108.973 505.033 108.211 502.666 108.211 499.666V499.121C108.211 497.27 108.551 495.623 109.23 494.182C109.91 492.74 110.883 491.621 112.148 490.824C113.426 490.027 114.932 489.629 116.666 489.629C118.799 489.629 120.568 490.268 121.975 491.545C123.393 492.822 124.148 494.48 124.242 496.52H121.166C121.072 495.289 120.604 494.281 119.76 493.496C118.928 492.699 117.896 492.301 116.666 492.301C115.014 492.301 113.73 492.898 112.816 494.094C111.914 495.277 111.463 496.994 111.463 499.244V499.859C111.463 502.051 111.914 503.738 112.816 504.922C113.719 506.105 115.008 506.697 116.684 506.697Z" fill="#13EBF9"/>
<path d="M131.432 509H128.18V489.98H131.432V509ZM127.916 484.936C127.916 484.408 128.074 483.963 128.391 483.6C128.719 483.236 129.199 483.055 129.832 483.055C130.465 483.055 130.945 483.236 131.273 483.6C131.602 483.963 131.766 484.408 131.766 484.936C131.766 485.463 131.602 485.902 131.273 486.254C130.945 486.605 130.465 486.781 129.832 486.781C129.199 486.781 128.719 486.605 128.391 486.254C128.074 485.902 127.916 485.463 127.916 484.936Z" fill="#13EBF9"/>
<path d="M139.729 489.98L139.834 492.371C141.287 490.543 143.186 489.629 145.529 489.629C149.549 489.629 151.576 491.896 151.611 496.432V509H148.359V496.414C148.348 495.043 148.031 494.029 147.41 493.373C146.801 492.717 145.846 492.389 144.545 492.389C143.49 492.389 142.564 492.67 141.768 493.232C140.971 493.795 140.35 494.533 139.904 495.447V509H136.652V489.98H139.729Z" fill="#13EBF9"/>
<path d="M168.258 509C168.07 508.625 167.918 507.957 167.801 506.996C166.289 508.566 164.484 509.352 162.387 509.352C160.512 509.352 158.971 508.824 157.764 507.77C156.568 506.703 155.971 505.355 155.971 503.727C155.971 501.746 156.721 500.211 158.221 499.121C159.732 498.02 161.854 497.469 164.584 497.469H167.748V495.975C167.748 494.838 167.408 493.936 166.729 493.268C166.049 492.588 165.047 492.248 163.723 492.248C162.562 492.248 161.59 492.541 160.805 493.127C160.02 493.713 159.627 494.422 159.627 495.254H156.357C156.357 494.305 156.691 493.391 157.359 492.512C158.039 491.621 158.953 490.918 160.102 490.402C161.262 489.887 162.533 489.629 163.916 489.629C166.107 489.629 167.824 490.18 169.066 491.281C170.309 492.371 170.953 493.877 171 495.799V504.553C171 506.299 171.223 507.688 171.668 508.719V509H168.258ZM162.861 506.521C163.881 506.521 164.848 506.258 165.762 505.73C166.676 505.203 167.338 504.518 167.748 503.674V499.771H165.199C161.215 499.771 159.223 500.938 159.223 503.27C159.223 504.289 159.562 505.086 160.242 505.66C160.922 506.234 161.795 506.521 162.861 506.521Z" fill="#13EBF9"/>
<path d="M50.0859 595.697H39.3457V607H35.9707V581.406H51.8262V584.184H39.3457V592.938H50.0859V595.697Z" fill="#13EBF9"/>
<path d="M58.8926 607H55.6406V587.98H58.8926V607ZM55.377 582.936C55.377 582.408 55.5352 581.963 55.8516 581.6C56.1797 581.236 56.6602 581.055 57.293 581.055C57.9258 581.055 58.4062 581.236 58.7344 581.6C59.0625 581.963 59.2266 582.408 59.2266 582.936C59.2266 583.463 59.0625 583.902 58.7344 584.254C58.4062 584.605 57.9258 584.781 57.293 584.781C56.6602 584.781 56.1797 584.605 55.8516 584.254C55.5352 583.902 55.377 583.463 55.377 582.936Z" fill="#13EBF9"/>
<path d="M67.6465 607H64.3945V580H67.6465V607Z" fill="#13EBF9"/>
<path d="M72.0059 597.314C72.0059 595.451 72.3691 593.775 73.0957 592.287C73.834 590.799 74.8535 589.65 76.1543 588.842C77.4668 588.033 78.9609 587.629 80.6367 587.629C83.2266 587.629 85.3184 588.525 86.9121 590.318C88.5176 592.111 89.3203 594.496 89.3203 597.473V597.701C89.3203 599.553 88.9629 601.217 88.248 602.693C87.5449 604.158 86.5312 605.301 85.207 606.121C83.8945 606.941 82.3828 607.352 80.6719 607.352C78.0938 607.352 76.002 606.455 74.3965 604.662C72.8027 602.869 72.0059 600.496 72.0059 597.543V597.314ZM75.2754 597.701C75.2754 599.811 75.7617 601.504 76.7344 602.781C77.7188 604.059 79.0312 604.697 80.6719 604.697C82.3242 604.697 83.6367 604.053 84.6094 602.764C85.582 601.463 86.0684 599.646 86.0684 597.314C86.0684 595.229 85.5703 593.541 84.5742 592.252C83.5898 590.951 82.2773 590.301 80.6367 590.301C79.0312 590.301 77.7363 590.939 76.752 592.217C75.7676 593.494 75.2754 595.322 75.2754 597.701Z" fill="#13EBF9"/>
<path d="M104.473 601.955C104.473 601.076 104.139 600.396 103.471 599.916C102.814 599.424 101.66 599.002 100.008 598.65C98.3672 598.299 97.0605 597.877 96.0879 597.385C95.127 596.893 94.4121 596.307 93.9434 595.627C93.4863 594.947 93.2578 594.139 93.2578 593.201C93.2578 591.643 93.9141 590.324 95.2266 589.246C96.5508 588.168 98.2383 587.629 100.289 587.629C102.445 587.629 104.191 588.186 105.527 589.299C106.875 590.412 107.549 591.836 107.549 593.57H104.279C104.279 592.68 103.898 591.912 103.137 591.268C102.387 590.623 101.438 590.301 100.289 590.301C99.1055 590.301 98.1797 590.559 97.5117 591.074C96.8438 591.59 96.5098 592.264 96.5098 593.096C96.5098 593.881 96.8203 594.473 97.4414 594.871C98.0625 595.27 99.1816 595.65 100.799 596.014C102.428 596.377 103.746 596.811 104.754 597.314C105.762 597.818 106.506 598.428 106.986 599.143C107.479 599.846 107.725 600.707 107.725 601.727C107.725 603.426 107.045 604.791 105.686 605.822C104.326 606.842 102.562 607.352 100.395 607.352C98.8711 607.352 97.5234 607.082 96.3516 606.543C95.1797 606.004 94.2598 605.254 93.5918 604.293C92.9355 603.32 92.6074 602.271 92.6074 601.146H95.8594C95.918 602.236 96.3516 603.104 97.1602 603.748C97.9805 604.381 99.0586 604.697 100.395 604.697C101.625 604.697 102.609 604.451 103.348 603.959C104.098 603.455 104.473 602.787 104.473 601.955Z" fill="#13EBF9"/>
<path d="M111.1 597.314C111.1 595.451 111.463 593.775 112.189 592.287C112.928 590.799 113.947 589.65 115.248 588.842C116.561 588.033 118.055 587.629 119.73 587.629C122.32 587.629 124.412 588.525 126.006 590.318C127.611 592.111 128.414 594.496 128.414 597.473V597.701C128.414 599.553 128.057 601.217 127.342 602.693C126.639 604.158 125.625 605.301 124.301 606.121C122.988 606.941 121.477 607.352 119.766 607.352C117.188 607.352 115.096 606.455 113.49 604.662C111.896 602.869 111.1 600.496 111.1 597.543V597.314ZM114.369 597.701C114.369 599.811 114.855 601.504 115.828 602.781C116.812 604.059 118.125 604.697 119.766 604.697C121.418 604.697 122.73 604.053 123.703 602.764C124.676 601.463 125.162 599.646 125.162 597.314C125.162 595.229 124.664 593.541 123.668 592.252C122.684 590.951 121.371 590.301 119.73 590.301C118.125 590.301 116.83 590.939 115.846 592.217C114.861 593.494 114.369 595.322 114.369 597.701Z" fill="#13EBF9"/>
<path d="M134.092 607V590.494H131.086V587.98H134.092V586.029C134.092 583.99 134.637 582.414 135.727 581.301C136.816 580.188 138.357 579.631 140.35 579.631C141.1 579.631 141.844 579.73 142.582 579.93L142.406 582.566C141.855 582.461 141.27 582.408 140.648 582.408C139.594 582.408 138.779 582.719 138.205 583.34C137.631 583.949 137.344 584.828 137.344 585.977V587.98H141.404V590.494H137.344V607H134.092Z" fill="#13EBF9"/>
<path d="M148.541 607H145.271V587.98H148.541V607ZM148.576 580.018H152.514L147.803 585.186H145.184L148.576 580.018Z" fill="#13EBF9"/>
<path d="M165.645 607C165.457 606.625 165.305 605.957 165.188 604.996C163.676 606.566 161.871 607.352 159.773 607.352C157.898 607.352 156.357 606.824 155.15 605.77C153.955 604.703 153.357 603.355 153.357 601.727C153.357 599.746 154.107 598.211 155.607 597.121C157.119 596.02 159.24 595.469 161.971 595.469H165.135V593.975C165.135 592.838 164.795 591.936 164.115 591.268C163.436 590.588 162.434 590.248 161.109 590.248C159.949 590.248 158.977 590.541 158.191 591.127C157.406 591.713 157.014 592.422 157.014 593.254H153.744C153.744 592.305 154.078 591.391 154.746 590.512C155.426 589.621 156.34 588.918 157.488 588.402C158.648 587.887 159.92 587.629 161.303 587.629C163.494 587.629 165.211 588.18 166.453 589.281C167.695 590.371 168.34 591.877 168.387 593.799V602.553C168.387 604.299 168.609 605.688 169.055 606.719V607H165.645ZM160.248 604.521C161.268 604.521 162.234 604.258 163.148 603.73C164.062 603.203 164.725 602.518 165.135 601.674V597.771H162.586C158.602 597.771 156.609 598.938 156.609 601.27C156.609 602.289 156.949 603.086 157.629 603.66C158.309 604.234 159.182 604.521 160.248 604.521Z" fill="#13EBF9"/>
<path fill-rule="evenodd" clip-rule="evenodd" d="M756.967 486.446C758.042 485.579 758.211 484.005 757.344 482.931C756.477 481.856 754.903 481.687 753.828 482.554L730.421 501.431L731.515 489.947C731.646 488.573 730.638 487.353 729.263 487.222C727.889 487.091 726.668 488.099 726.537 489.473L725.011 505.496C724.911 506.55 725.481 507.513 726.371 507.964C727.244 509.009 728.796 509.165 729.859 508.307L756.967 486.446Z" fill="#2CF30B"/>
<path fill-rule="evenodd" clip-rule="evenodd" d="M513.268 479.732C512.291 478.756 510.709 478.756 509.732 479.732C508.756 480.709 508.756 482.291 509.732 483.268L523.283 496.819L510.095 510.523C509.138 511.518 509.168 513.101 510.163 514.058C511.158 515.015 512.741 514.985 513.698 513.99L526.82 500.355L540.205 513.741C541.181 514.717 542.764 514.717 543.741 513.741C544.717 512.764 544.717 511.181 543.741 510.205L530.287 496.752L543.231 483.301C544.188 482.306 544.158 480.724 543.163 479.766C542.168 478.809 540.586 478.839 539.628 479.834L526.751 493.215L513.268 479.732Z" fill="#FD0C0C"/>
<path fill-rule="evenodd" clip-rule="evenodd" d="M727.268 586.732C726.291 585.756 724.709 585.756 723.732 586.732C722.756 587.709 722.756 589.291 723.732 590.268L737.283 603.819L724.095 617.523C723.138 618.518 723.168 620.101 724.163 621.058C725.158 622.015 726.741 621.985 727.698 620.99L740.82 607.355L754.205 620.741C755.181 621.717 756.764 621.717 757.741 620.741C758.717 619.764 758.717 618.181 757.741 617.205L744.287 603.752L757.231 590.301C758.188 589.306 758.158 587.724 757.163 586.766C756.168 585.809 754.586 585.839 753.628 586.834L740.751 600.215L727.268 586.732Z" fill="#FD0C0C"/>
<path fill-rule="evenodd" clip-rule="evenodd" d="M539.967 590.446C541.042 589.579 541.211 588.005 540.344 586.931C539.477 585.856 537.903 585.687 536.828 586.554L513.421 605.431L514.515 593.947C514.646 592.573 513.638 591.353 512.263 591.222C510.889 591.091 509.668 592.099 509.537 593.473L508.011 609.496C507.911 610.55 508.481 611.513 509.371 611.964C510.244 613.009 511.796 613.165 512.859 612.307L539.967 590.446Z" fill="#2CF30B"/>
<path fill-rule="evenodd" clip-rule="evenodd" d="M325.967 486.446C327.042 485.579 327.211 484.005 326.344 482.931C325.477 481.856 323.903 481.687 322.828 482.554L299.421 501.431L300.515 489.947C300.646 488.573 299.638 487.353 298.263 487.222C296.889 487.091 295.668 488.099 295.537 489.473L294.011 505.496C293.911 506.55 294.481 507.513 295.371 507.964C296.244 509.009 297.796 509.165 298.859 508.307L325.967 486.446Z" fill="#2CF30B"/>
<path fill-rule="evenodd" clip-rule="evenodd" d="M296.268 577.732C295.291 576.756 293.709 576.756 292.732 577.732C291.756 578.709 291.756 580.291 292.732 581.268L306.283 594.819L293.095 608.523C292.138 609.518 292.168 611.101 293.163 612.058C294.158 613.015 295.741 612.985 296.698 611.99L309.82 598.355L323.205 611.741C324.181 612.717 325.764 612.717 326.741 611.741C327.717 610.764 327.717 609.181 326.741 608.205L313.287 594.752L326.231 581.301C327.188 580.306 327.158 578.724 326.163 577.766C325.168 576.809 323.586 576.839 322.628 577.834L309.751 591.215L296.268 577.732Z" fill="#FD0C0C"/>
</svg>
