<svg viewBox="0 0 1080 150" fill="none" xmlns="http://www.w3.org/2000/svg">
<g id="01280021">
<g id="Frame 1">
<g id="Orden de Informaci&#195;&#179;n">
<path d="M255.896 61.528C258.115 60.2907 260.696 59.672 263.64 59.672C266.584 59.672 269.165 60.2907 271.384 61.528C273.603 62.7653 275.331 64.4507 276.568 66.584C279 70.7653 280.216 75.864 280.216 81.88C280.216 87.768 278.979 92.8453 276.504 97.112C275.224 99.288 273.475 100.995 271.256 102.232C269.037 103.469 266.435 104.088 263.448 104.088C260.504 104.088 257.944 103.469 255.768 102.232C253.592 100.995 251.885 99.3093 250.648 97.176C248.216 92.9947 247 87.896 247 81.88C247 75.9067 248.259 70.808 250.776 66.584C252.013 64.4507 253.72 62.7653 255.896 61.528ZM255.704 93.976C257.411 97.0907 260.035 98.648 263.576 98.648C267.117 98.648 269.72 97.0907 271.384 93.976C273.091 90.8613 273.944 86.8293 273.944 81.88C273.944 76.888 273.091 72.856 271.384 69.784C269.72 66.6693 267.117 65.112 263.576 65.112C260.035 65.112 257.411 66.6693 255.704 69.784C254.04 72.856 253.208 76.888 253.208 81.88C253.208 86.8293 254.04 90.8613 255.704 93.976Z" fill="url(#paint0_linear)"/>
<path d="M293.348 103.256H287.588V70.872H292.388L293.028 75.672C293.796 74.392 295.055 73.176 296.804 72.024C298.596 70.8293 300.623 70.232 302.884 70.232C304.121 70.232 305.06 70.3387 305.7 70.552L304.548 75.16C304.164 75.1173 303.609 75.096 302.884 75.096C298.233 75.096 295.055 76.7813 293.348 80.152V103.256Z" fill="url(#paint1_linear)"/>
<path d="M307.93 87.704C307.93 76.056 312.602 70.232 321.946 70.232C324.293 70.232 326.341 70.7227 328.09 71.704V58.456H333.914V103.768H329.37L328.538 100.632C325.85 102.765 322.714 103.832 319.13 103.832C315.589 103.832 312.837 102.381 310.874 99.48C308.911 96.5787 307.93 92.6533 307.93 87.704ZM321.882 75.032C316.549 75.032 313.882 79.2347 313.882 87.64C313.882 95.3627 316.058 99.224 320.41 99.224C323.525 99.224 326.085 98.2853 328.09 96.408V76.184C326.298 75.416 324.229 75.032 321.882 75.032Z" fill="url(#paint2_linear)"/>
<path d="M355.133 104.088C350.355 104.088 346.792 102.467 344.446 99.224C342.142 95.9387 340.99 91.8427 340.99 86.936C340.99 81.9867 342.227 77.976 344.701 74.904C347.176 71.7893 350.568 70.232 354.878 70.232C358.504 70.232 361.256 71.256 363.133 73.304C365.053 75.3093 366.014 77.976 366.014 81.304C366.014 82.7973 365.694 84.7173 365.054 87.064H346.238C346.323 90.6907 347.112 93.6347 348.605 95.896C350.099 98.1573 352.317 99.288 355.261 99.288C358.248 99.288 361.064 98.6907 363.71 97.496L365.182 101.464C362.11 103.213 358.76 104.088 355.133 104.088ZM360.766 82.392C360.766 80.088 360.296 78.2747 359.358 76.952C358.419 75.6293 357.117 74.968 355.453 74.968C353.789 74.968 352.403 75.2667 351.294 75.864C350.227 76.4187 349.395 77.144 348.798 78.04C347.774 79.7467 347.134 81.3253 346.878 82.776L360.766 82.904V82.392Z" fill="url(#paint3_linear)"/>
<path d="M397.667 81.048V103.256H391.907V81.368C391.907 79.4053 391.651 77.8693 391.139 76.76C390.627 75.6507 389.582 75.096 388.003 75.096C386.467 75.096 384.782 75.5227 382.947 76.376C381.155 77.1867 379.747 78.1893 378.723 79.384V103.256H372.963V70.872H377.763L378.403 74.776C379.598 73.624 381.198 72.5787 383.203 71.64C385.251 70.7013 387.214 70.232 389.091 70.232C392.291 70.232 394.51 71.192 395.747 73.112C397.027 74.9893 397.667 77.6347 397.667 81.048Z" fill="url(#paint4_linear)"/>
<path d="M418.18 87.704C418.18 76.056 422.852 70.232 432.196 70.232C434.543 70.232 436.591 70.7227 438.34 71.704V58.456H444.164V103.768H439.62L438.788 100.632C436.1 102.765 432.964 103.832 429.38 103.832C425.839 103.832 423.087 102.381 421.124 99.48C419.161 96.5787 418.18 92.6533 418.18 87.704ZM432.132 75.032C426.799 75.032 424.132 79.2347 424.132 87.64C424.132 95.3627 426.308 99.224 430.66 99.224C433.775 99.224 436.335 98.2853 438.34 96.408V76.184C436.548 75.416 434.479 75.032 432.132 75.032Z" fill="url(#paint5_linear)"/>
<path d="M465.383 104.088C460.605 104.088 457.042 102.467 454.695 99.224C452.391 95.9387 451.239 91.8427 451.239 86.936C451.239 81.9867 452.477 77.976 454.951 74.904C457.426 71.7893 460.818 70.232 465.127 70.232C468.754 70.232 471.506 71.256 473.383 73.304C475.303 75.3093 476.263 77.976 476.263 81.304C476.263 82.7973 475.943 84.7173 475.303 87.064H456.487C456.573 90.6907 457.362 93.6347 458.855 95.896C460.349 98.1573 462.567 99.288 465.511 99.288C468.498 99.288 471.314 98.6907 473.959 97.496L475.431 101.464C472.359 103.213 469.01 104.088 465.383 104.088ZM471.015 82.392C471.015 80.088 470.546 78.2747 469.607 76.952C468.669 75.6293 467.367 74.968 465.703 74.968C464.039 74.968 462.653 75.2667 461.543 75.864C460.477 76.4187 459.645 77.144 459.047 78.04C458.023 79.7467 457.383 81.3253 457.127 82.776L471.015 82.904V82.392Z" fill="url(#paint6_linear)"/>
<path d="M503.499 60.504V103.256H497.354V60.504H503.499Z" fill="url(#paint7_linear)"/>
<path d="M537.354 81.048V103.256H531.594V81.368C531.594 79.4053 531.339 77.8693 530.827 76.76C530.315 75.6507 529.269 75.096 527.69 75.096C526.154 75.096 524.469 75.5227 522.634 76.376C520.842 77.1867 519.434 78.1893 518.41 79.384V103.256H512.65V70.872H517.451L518.09 74.776C519.285 73.624 520.885 72.5787 522.891 71.64C524.939 70.7013 526.901 70.232 528.779 70.232C531.979 70.232 534.197 71.192 535.434 73.112C536.714 74.9893 537.354 77.6347 537.354 81.048Z" fill="url(#paint8_linear)"/>
<path d="M548.782 68.504C548.782 64.408 549.657 61.4853 551.406 59.736C553.155 57.944 556.227 57.048 560.622 57.048C563.054 57.048 565.614 57.432 568.302 58.2L567.022 62.744C565.315 62.3173 563.203 62.104 560.686 62.104C558.211 62.104 556.569 62.552 555.758 63.448C554.99 64.344 554.606 65.9653 554.606 68.312V70.872H563.374L562.734 75.416H554.606V115.16L548.782 114.584V75.416L542.83 75.096L543.406 71.32L548.782 70.872V68.504Z" fill="url(#paint9_linear)"/>
<path d="M589.279 99.992C586.805 102.723 583.562 104.088 579.551 104.088C575.541 104.088 572.341 102.744 569.952 100.056C567.562 97.368 566.367 93.1013 566.367 87.256C566.367 81.368 567.605 77.0587 570.079 74.328C572.597 71.5973 575.861 70.232 579.871 70.232C583.882 70.232 587.061 71.576 589.408 74.264C591.797 76.952 592.991 81.24 592.991 87.128C592.991 92.9733 591.754 97.2613 589.279 99.992ZM579.743 74.968C574.751 74.968 572.255 79.0427 572.255 87.192C572.255 95.2987 574.73 99.352 579.68 99.352C581.728 99.352 583.477 98.392 584.927 96.472C586.378 94.552 587.103 91.352 587.103 86.872C587.103 82.392 586.464 79.2987 585.184 77.592C583.946 75.8427 582.133 74.968 579.743 74.968Z" fill="url(#paint10_linear)"/>
<path d="M606.035 103.256H600.275V70.872H605.076L605.715 75.672C606.483 74.392 607.742 73.176 609.491 72.024C611.283 70.8293 613.31 70.232 615.572 70.232C616.809 70.232 617.747 70.3387 618.387 70.552L617.236 75.16C616.852 75.1173 616.297 75.096 615.572 75.096C610.921 75.096 607.742 76.7813 606.035 80.152V103.256Z" fill="url(#paint11_linear)"/>
<path d="M647.784 81.304V103.256H642.025V81.368C642.025 79.4053 641.769 77.8693 641.257 76.76C640.745 75.6507 639.699 75.096 638.12 75.096C636.584 75.096 634.963 75.5013 633.257 76.312C631.55 77.1227 630.184 78.1467 629.16 79.384V103.256H623.4V70.872H628.201L628.84 74.776C630.035 73.624 631.592 72.5787 633.512 71.64C635.475 70.7013 637.374 70.232 639.208 70.232C643.091 70.232 645.63 71.8107 646.824 74.968C648.104 73.7733 649.768 72.6853 651.816 71.704C653.864 70.7227 655.785 70.232 657.577 70.232C663.294 70.232 666.152 73.8373 666.152 81.048V103.256H660.392V81.368C660.392 79.3627 660.136 77.8267 659.624 76.76C659.112 75.6507 658.11 75.096 656.616 75.096C655.123 75.096 653.544 75.5013 651.88 76.312C650.216 77.1227 648.808 78.0613 647.656 79.128C647.742 79.64 647.784 80.3653 647.784 81.304Z" fill="url(#paint12_linear)"/>
<path d="M681.562 104.088C678.789 104.088 676.57 103.277 674.906 101.656C673.285 100.035 672.474 97.8587 672.474 95.128C672.474 93.336 672.858 91.8213 673.626 90.584C674.394 89.3467 675.397 88.4293 676.634 87.832C678.853 86.7653 681.179 86.232 683.611 86.232C686.043 86.232 688.304 86.3387 690.395 86.552V81.56C690.395 79.0853 689.968 77.4 689.115 76.504C688.304 75.5653 686.725 75.096 684.378 75.096C682.032 75.096 679.237 75.672 675.995 76.824L674.65 72.792C675.888 72.024 677.509 71.4053 679.514 70.936C681.562 70.4667 683.333 70.232 684.827 70.232C688.965 70.232 691.888 71.128 693.594 72.92C695.301 74.712 696.154 77.72 696.154 81.944V97.496C696.154 98.9893 696.666 99.736 697.69 99.736C698.373 99.736 699.312 99.544 700.507 99.16L701.466 102.744C700.016 103.683 698.139 104.152 695.835 104.152C693.531 104.152 691.866 103.064 690.842 100.888C689.904 101.784 688.581 102.552 686.874 103.192C685.21 103.789 683.44 104.088 681.562 104.088ZM682.779 99.544C685.467 99.544 688.005 98.776 690.395 97.24V89.816C689.371 89.6453 687.706 89.56 685.402 89.56C680.41 89.56 677.893 91.224 677.85 94.552C677.85 97.88 679.493 99.544 682.779 99.544Z" fill="url(#paint13_linear)"/>
<path d="M719.214 104.216C714.905 104.216 711.342 102.808 708.526 99.992C705.71 97.1333 704.302 92.888 704.302 87.256C704.302 81.5813 705.71 77.336 708.526 74.52C711.342 71.6613 714.798 70.232 718.894 70.232C721.795 70.232 724.441 70.8507 726.83 72.088L725.102 76.184C722.841 75.4587 720.814 75.096 719.022 75.096C716.505 75.096 714.393 76.056 712.686 77.976C711.022 79.896 710.19 82.968 710.19 87.192C710.19 95.256 713.497 99.288 720.11 99.288C721.987 99.288 723.971 99.0107 726.062 98.456L727.022 102.68C724.291 103.704 721.689 104.216 719.214 104.216Z" fill="url(#paint14_linear)"/>
<path d="M739.348 103.256H733.524V71.128L739.348 70.552V103.256ZM732.372 61.336C732.372 60.2693 732.756 59.3733 733.524 58.648C734.292 57.88 735.209 57.496 736.276 57.496C737.343 57.496 738.239 57.88 738.964 58.648C739.732 59.3733 740.116 60.2693 740.116 61.336C740.116 62.4027 739.732 63.3413 738.964 64.152C738.239 64.92 737.343 65.304 736.276 65.304C735.209 65.304 734.292 64.92 733.524 64.152C732.756 63.3413 732.372 62.4027 732.372 61.336Z" fill="url(#paint15_linear)"/>
<path d="M769.467 99.992C766.992 102.723 763.75 104.088 759.739 104.088C755.728 104.088 752.528 102.744 750.139 100.056C747.75 97.368 746.555 93.1013 746.555 87.256C746.555 81.368 747.792 77.0587 750.267 74.328C752.784 71.5973 756.048 70.232 760.059 70.232C764.07 70.232 767.248 71.576 769.595 74.264C771.984 76.952 773.179 81.24 773.179 87.128C773.179 92.9733 771.942 97.2613 769.467 99.992ZM759.931 74.968C754.939 74.968 752.443 79.0427 752.443 87.192C752.443 95.2987 754.918 99.352 759.867 99.352C761.915 99.352 763.664 98.392 765.115 96.472C766.566 94.552 767.291 91.352 767.291 86.872C767.291 82.392 766.651 79.2987 765.371 77.592C764.134 75.8427 762.32 74.968 759.931 74.968ZM766.907 59.672L755.899 66.328L753.595 62.808L763.835 55L766.907 59.672Z" fill="url(#paint16_linear)"/>
<path d="M805.167 81.048V103.256H799.407V81.368C799.407 79.4053 799.151 77.8693 798.639 76.76C798.127 75.6507 797.082 75.096 795.503 75.096C793.967 75.096 792.282 75.5227 790.447 76.376C788.655 77.1867 787.247 78.1893 786.223 79.384V103.256H780.463V70.872H785.263L785.903 74.776C787.098 73.624 788.698 72.5787 790.703 71.64C792.751 70.7013 794.714 70.232 796.591 70.232C799.791 70.232 802.01 71.192 803.247 73.112C804.527 74.9893 805.167 77.6347 805.167 81.048Z" fill="url(#paint17_linear)"/>
</g>
<path d="M247 38H822.167V115.16C822.167 124.549 814.556 132.16 805.167 132.16H230V55C230 45.6112 237.611 38 247 38Z" stroke="url(#paint18_linear)" stroke-width="6"/>
</g>
</g>
<defs>
<linearGradient id="paint0_linear" x1="526.517" y1="53.256" x2="526.517" y2="113.256" gradientUnits="userSpaceOnUse">
<stop stop-color="#E47209"/>
<stop offset="1" stop-color="#7209E4"/>
</linearGradient>
<linearGradient id="paint1_linear" x1="526.517" y1="53.256" x2="526.517" y2="113.256" gradientUnits="userSpaceOnUse">
<stop stop-color="#E47209"/>
<stop offset="1" stop-color="#7209E4"/>
</linearGradient>
<linearGradient id="paint2_linear" x1="526.517" y1="53.256" x2="526.517" y2="113.256" gradientUnits="userSpaceOnUse">
<stop stop-color="#E47209"/>
<stop offset="1" stop-color="#7209E4"/>
</linearGradient>
<linearGradient id="paint3_linear" x1="526.517" y1="53.256" x2="526.517" y2="113.256" gradientUnits="userSpaceOnUse">
<stop stop-color="#E47209"/>
<stop offset="1" stop-color="#7209E4"/>
</linearGradient>
<linearGradient id="paint4_linear" x1="526.517" y1="53.256" x2="526.517" y2="113.256" gradientUnits="userSpaceOnUse">
<stop stop-color="#E47209"/>
<stop offset="1" stop-color="#7209E4"/>
</linearGradient>
<linearGradient id="paint5_linear" x1="526.517" y1="53.256" x2="526.517" y2="113.256" gradientUnits="userSpaceOnUse">
<stop stop-color="#E47209"/>
<stop offset="1" stop-color="#7209E4"/>
</linearGradient>
<linearGradient id="paint6_linear" x1="526.517" y1="53.256" x2="526.517" y2="113.256" gradientUnits="userSpaceOnUse">
<stop stop-color="#E47209"/>
<stop offset="1" stop-color="#7209E4"/>
</linearGradient>
<linearGradient id="paint7_linear" x1="526.517" y1="53.256" x2="526.517" y2="113.256" gradientUnits="userSpaceOnUse">
<stop stop-color="#E47209"/>
<stop offset="1" stop-color="#7209E4"/>
</linearGradient>
<linearGradient id="paint8_linear" x1="526.517" y1="53.256" x2="526.517" y2="113.256" gradientUnits="userSpaceOnUse">
<stop stop-color="#E47209"/>
<stop offset="1" stop-color="#7209E4"/>
</linearGradient>
<linearGradient id="paint9_linear" x1="526.517" y1="53.256" x2="526.517" y2="113.256" gradientUnits="userSpaceOnUse">
<stop stop-color="#E47209"/>
<stop offset="1" stop-color="#7209E4"/>
</linearGradient>
<linearGradient id="paint10_linear" x1="526.517" y1="53.256" x2="526.517" y2="113.256" gradientUnits="userSpaceOnUse">
<stop stop-color="#E47209"/>
<stop offset="1" stop-color="#7209E4"/>
</linearGradient>
<linearGradient id="paint11_linear" x1="526.517" y1="53.256" x2="526.517" y2="113.256" gradientUnits="userSpaceOnUse">
<stop stop-color="#E47209"/>
<stop offset="1" stop-color="#7209E4"/>
</linearGradient>
<linearGradient id="paint12_linear" x1="526.517" y1="53.256" x2="526.517" y2="113.256" gradientUnits="userSpaceOnUse">
<stop stop-color="#E47209"/>
<stop offset="1" stop-color="#7209E4"/>
</linearGradient>
<linearGradient id="paint13_linear" x1="526.517" y1="53.256" x2="526.517" y2="113.256" gradientUnits="userSpaceOnUse">
<stop stop-color="#E47209"/>
<stop offset="1" stop-color="#7209E4"/>
</linearGradient>
<linearGradient id="paint14_linear" x1="526.517" y1="53.256" x2="526.517" y2="113.256" gradientUnits="userSpaceOnUse">
<stop stop-color="#E47209"/>
<stop offset="1" stop-color="#7209E4"/>
</linearGradient>
<linearGradient id="paint15_linear" x1="526.517" y1="53.256" x2="526.517" y2="113.256" gradientUnits="userSpaceOnUse">
<stop stop-color="#E47209"/>
<stop offset="1" stop-color="#7209E4"/>
</linearGradient>
<linearGradient id="paint16_linear" x1="526.517" y1="53.256" x2="526.517" y2="113.256" gradientUnits="userSpaceOnUse">
<stop stop-color="#E47209"/>
<stop offset="1" stop-color="#7209E4"/>
</linearGradient>
<linearGradient id="paint17_linear" x1="526.517" y1="53.256" x2="526.517" y2="113.256" gradientUnits="userSpaceOnUse">
<stop stop-color="#E47209"/>
<stop offset="1" stop-color="#7209E4"/>
</linearGradient>
<linearGradient id="paint18_linear" x1="526.084" y1="35" x2="526.084" y2="135.16" gradientUnits="userSpaceOnUse">
<stop stop-color="#E47209"/>
<stop offset="1" stop-color="#7209E4"/>
</linearGradient>
</defs>
</svg>
