<svg viewBox="0 0 803 469" fill="none" xmlns="http://www.w3.org/2000/svg">
<g id="0128212">
<g id="Group 119">
<g id="Group 113">
<path id="Ellipse 13" d="M376 189C376 257.483 320.483 313 252 313C183.517 313 128 257.483 128 189C128 120.517 183.517 65 252 65C320.483 65 376 120.517 376 189Z" fill="#BB7C42"/>
<path id="Ellipse 13 (Stroke)" fill-rule="evenodd" clip-rule="evenodd" d="M309.861 298.701C292.587 307.831 272.897 313 252 313C183.517 313 128 257.483 128 189C128 143.373 152.644 103.501 189.347 81.9695C190.783 81.1271 192.237 80.3127 193.71 79.5271C211.086 70.2555 230.929 65 252 65C320.483 65 376 120.517 376 189C376 234.801 351.168 274.802 314.233 296.276C312.794 297.112 311.336 297.921 309.861 298.701ZM316.992 300.456C355.279 278.082 381 236.545 381 189C381 117.755 323.245 60 252 60C180.755 60 123 117.755 123 189C123 260.245 180.755 318 252 318C273.844 318 294.42 312.571 312.452 302.988L314.232 304.768L317.768 301.232L316.992 300.456Z" fill="white"/>
<path id="Vector 1 (Stroke)" fill-rule="evenodd" clip-rule="evenodd" d="M381 190.5H124V187.5H381V190.5Z" fill="white"/>
<path id="Vector 2 (Stroke)" fill-rule="evenodd" clip-rule="evenodd" d="M188.688 299.273L311.688 77.2729L314.312 78.7269L191.312 300.727L188.688 299.273Z" fill="white"/>
<path id="Vector 3 (Stroke)" fill-rule="evenodd" clip-rule="evenodd" d="M312.189 301.729L188.189 78.7289L190.811 77.271L314.811 300.271L312.189 301.729Z" fill="white"/>
</g>
<g id="Group 117">
<g id="Jorge">
<path d="M201.693 0.40625H205.086V18.5293C205.086 20.9785 204.348 22.8945 202.871 24.2773C201.406 25.6602 199.449 26.3516 197 26.3516C194.457 26.3516 192.477 25.7012 191.059 24.4004C189.641 23.0996 188.932 21.2773 188.932 18.9336H192.307C192.307 20.3984 192.705 21.541 193.502 22.3613C194.311 23.1816 195.477 23.5918 197 23.5918C198.395 23.5918 199.52 23.1523 200.375 22.2734C201.242 21.3945 201.682 20.1641 201.693 18.582V0.40625Z" fill="white"/>
<path d="M209.463 16.3145C209.463 14.4512 209.826 12.7754 210.553 11.2871C211.291 9.79883 212.311 8.65039 213.611 7.8418C214.924 7.0332 216.418 6.62891 218.094 6.62891C220.684 6.62891 222.775 7.52539 224.369 9.31836C225.975 11.1113 226.777 13.4961 226.777 16.4727V16.7012C226.777 18.5527 226.42 20.2168 225.705 21.6934C225.002 23.1582 223.988 24.3008 222.664 25.1211C221.352 25.9414 219.84 26.3516 218.129 26.3516C215.551 26.3516 213.459 25.4551 211.854 23.6621C210.26 21.8691 209.463 19.4961 209.463 16.543V16.3145ZM212.732 16.7012C212.732 18.8105 213.219 20.5039 214.191 21.7812C215.176 23.0586 216.488 23.6973 218.129 23.6973C219.781 23.6973 221.094 23.0527 222.066 21.7637C223.039 20.4629 223.525 18.6465 223.525 16.3145C223.525 14.2285 223.027 12.541 222.031 11.252C221.047 9.95117 219.734 9.30078 218.094 9.30078C216.488 9.30078 215.193 9.93945 214.209 11.2168C213.225 12.4941 212.732 14.3223 212.732 16.7012Z" fill="white"/>
<path d="M240.049 9.89844C239.557 9.81641 239.023 9.77539 238.449 9.77539C236.316 9.77539 234.869 10.6836 234.107 12.5V26H230.855V6.98047H234.02L234.072 9.17773C235.139 7.47852 236.65 6.62891 238.607 6.62891C239.24 6.62891 239.721 6.71094 240.049 6.875V9.89844Z" fill="white"/>
<path d="M241.93 16.332C241.93 13.3672 242.615 11.0117 243.986 9.26562C245.357 7.50781 247.174 6.62891 249.436 6.62891C251.756 6.62891 253.566 7.44922 254.867 9.08984L255.025 6.98047H257.996V25.543C257.996 28.0039 257.264 29.9434 255.799 31.3613C254.346 32.7793 252.389 33.4883 249.928 33.4883C248.557 33.4883 247.215 33.1953 245.902 32.6094C244.59 32.0234 243.588 31.2207 242.896 30.2012L244.584 28.25C245.979 29.9727 247.684 30.834 249.699 30.834C251.281 30.834 252.512 30.3887 253.391 29.498C254.281 28.6074 254.727 27.3535 254.727 25.7363V24.1016C253.426 25.6016 251.65 26.3516 249.4 26.3516C247.174 26.3516 245.369 25.4551 243.986 23.6621C242.615 21.8691 241.93 19.4258 241.93 16.332ZM245.199 16.7012C245.199 18.8457 245.639 20.5332 246.518 21.7637C247.396 22.9824 248.627 23.5918 250.209 23.5918C252.26 23.5918 253.766 22.6602 254.727 20.7969V12.1133C253.73 10.2969 252.236 9.38867 250.244 9.38867C248.662 9.38867 247.426 10.0039 246.535 11.2344C245.645 12.4648 245.199 14.2871 245.199 16.7012Z" fill="white"/>
<path d="M270.811 26.3516C268.232 26.3516 266.135 25.5078 264.518 23.8203C262.9 22.1211 262.092 19.8535 262.092 17.0176V16.4199C262.092 14.5332 262.449 12.8516 263.164 11.375C263.891 9.88672 264.898 8.72656 266.188 7.89453C267.488 7.05078 268.895 6.62891 270.406 6.62891C272.879 6.62891 274.801 7.44336 276.172 9.07227C277.543 10.7012 278.229 13.0332 278.229 16.0684V17.4219H265.344C265.391 19.2969 265.936 20.8145 266.979 21.9746C268.033 23.123 269.369 23.6973 270.986 23.6973C272.135 23.6973 273.107 23.4629 273.904 22.9941C274.701 22.5254 275.398 21.9043 275.996 21.1309L277.982 22.6777C276.389 25.127 273.998 26.3516 270.811 26.3516ZM270.406 9.30078C269.094 9.30078 267.992 9.78125 267.102 10.7422C266.211 11.6914 265.66 13.0273 265.449 14.75H274.977V14.5039C274.883 12.8516 274.438 11.5742 273.641 10.6719C272.844 9.75781 271.766 9.30078 270.406 9.30078Z" fill="white"/>
</g>
<path id="Arrow 19 (Stroke)" fill-rule="evenodd" clip-rule="evenodd" d="M237.385 83.5096L248 62.9999L260.454 82.4478L250.917 82.8868L260.078 281.929L269.615 281.49L259 302L246.546 282.552L256.082 282.113L246.922 83.0707L237.385 83.5096Z" fill="#13EBF9"/>
<g id="Carlos">
<path d="M235.797 361.879C235.48 364.586 234.479 366.678 232.791 368.154C231.115 369.619 228.883 370.352 226.094 370.352C223.07 370.352 220.645 369.268 218.816 367.1C217 364.932 216.092 362.031 216.092 358.398V355.938C216.092 353.559 216.514 351.467 217.357 349.662C218.213 347.857 219.42 346.475 220.979 345.514C222.537 344.541 224.342 344.055 226.393 344.055C229.111 344.055 231.291 344.816 232.932 346.34C234.572 347.852 235.527 349.949 235.797 352.633H232.404C232.111 350.594 231.473 349.117 230.488 348.203C229.516 347.289 228.15 346.832 226.393 346.832C224.236 346.832 222.543 347.629 221.312 349.223C220.094 350.816 219.484 353.084 219.484 356.025V358.504C219.484 361.281 220.064 363.49 221.225 365.131C222.385 366.771 224.008 367.592 226.094 367.592C227.969 367.592 229.404 367.17 230.4 366.326C231.408 365.471 232.076 363.988 232.404 361.879H235.797Z" fill="white"/>
<path d="M251.652 370C251.465 369.625 251.312 368.957 251.195 367.996C249.684 369.566 247.879 370.352 245.781 370.352C243.906 370.352 242.365 369.824 241.158 368.77C239.963 367.703 239.365 366.355 239.365 364.727C239.365 362.746 240.115 361.211 241.615 360.121C243.127 359.02 245.248 358.469 247.979 358.469H251.143V356.975C251.143 355.838 250.803 354.936 250.123 354.268C249.443 353.588 248.441 353.248 247.117 353.248C245.957 353.248 244.984 353.541 244.199 354.127C243.414 354.713 243.021 355.422 243.021 356.254H239.752C239.752 355.305 240.086 354.391 240.754 353.512C241.434 352.621 242.348 351.918 243.496 351.402C244.656 350.887 245.928 350.629 247.311 350.629C249.502 350.629 251.219 351.18 252.461 352.281C253.703 353.371 254.348 354.877 254.395 356.799V365.553C254.395 367.299 254.617 368.688 255.062 369.719V370H251.652ZM246.256 367.521C247.275 367.521 248.242 367.258 249.156 366.73C250.07 366.203 250.732 365.518 251.143 364.674V360.771H248.594C244.609 360.771 242.617 361.938 242.617 364.27C242.617 365.289 242.957 366.086 243.637 366.66C244.316 367.234 245.189 367.521 246.256 367.521Z" fill="white"/>
<path d="M268.686 353.898C268.193 353.816 267.66 353.775 267.086 353.775C264.953 353.775 263.506 354.684 262.744 356.5V370H259.492V350.98H262.656L262.709 353.178C263.775 351.479 265.287 350.629 267.244 350.629C267.877 350.629 268.357 350.711 268.686 350.875V353.898Z" fill="white"/>
<path d="M275.225 370H271.973V343H275.225V370Z" fill="white"/>
<path d="M279.584 360.314C279.584 358.451 279.947 356.775 280.674 355.287C281.412 353.799 282.432 352.65 283.732 351.842C285.045 351.033 286.539 350.629 288.215 350.629C290.805 350.629 292.896 351.525 294.49 353.318C296.096 355.111 296.898 357.496 296.898 360.473V360.701C296.898 362.553 296.541 364.217 295.826 365.693C295.123 367.158 294.109 368.301 292.785 369.121C291.473 369.941 289.961 370.352 288.25 370.352C285.672 370.352 283.58 369.455 281.975 367.662C280.381 365.869 279.584 363.496 279.584 360.543V360.314ZM282.854 360.701C282.854 362.811 283.34 364.504 284.312 365.781C285.297 367.059 286.609 367.697 288.25 367.697C289.902 367.697 291.215 367.053 292.188 365.764C293.16 364.463 293.646 362.646 293.646 360.314C293.646 358.229 293.148 356.541 292.152 355.252C291.168 353.951 289.855 353.301 288.215 353.301C286.609 353.301 285.314 353.939 284.33 355.217C283.346 356.494 282.854 358.322 282.854 360.701Z" fill="white"/>
<path d="M312.051 364.955C312.051 364.076 311.717 363.396 311.049 362.916C310.393 362.424 309.238 362.002 307.586 361.65C305.945 361.299 304.639 360.877 303.666 360.385C302.705 359.893 301.99 359.307 301.521 358.627C301.064 357.947 300.836 357.139 300.836 356.201C300.836 354.643 301.492 353.324 302.805 352.246C304.129 351.168 305.816 350.629 307.867 350.629C310.023 350.629 311.77 351.186 313.105 352.299C314.453 353.412 315.127 354.836 315.127 356.57H311.857C311.857 355.68 311.477 354.912 310.715 354.268C309.965 353.623 309.016 353.301 307.867 353.301C306.684 353.301 305.758 353.559 305.09 354.074C304.422 354.59 304.088 355.264 304.088 356.096C304.088 356.881 304.398 357.473 305.02 357.871C305.641 358.27 306.76 358.65 308.377 359.014C310.006 359.377 311.324 359.811 312.332 360.314C313.34 360.818 314.084 361.428 314.564 362.143C315.057 362.846 315.303 363.707 315.303 364.727C315.303 366.426 314.623 367.791 313.264 368.822C311.904 369.842 310.141 370.352 307.973 370.352C306.449 370.352 305.102 370.082 303.93 369.543C302.758 369.004 301.838 368.254 301.17 367.293C300.514 366.32 300.186 365.271 300.186 364.146H303.438C303.496 365.236 303.93 366.104 304.738 366.748C305.559 367.381 306.637 367.697 307.973 367.697C309.203 367.697 310.188 367.451 310.926 366.959C311.676 366.455 312.051 365.787 312.051 364.955Z" fill="white"/>
</g>
</g>
<g id="Group 166">
<g id="Group 165">
<g id="Izquierda">
<path d="M3.5918 351H0.216797V325.406H3.5918V351Z" fill="#2CF30B"/>
<path d="M12.3281 348.345H23.4551V351H8.35547V348.609L18.8496 334.67H8.51367V331.98H22.9277V334.283L12.3281 348.345Z" fill="#2CF30B"/>
<path d="M26.0566 341.332C26.0566 338.344 26.7422 335.982 28.1133 334.248C29.4844 332.502 31.3242 331.629 33.6328 331.629C35.8828 331.629 37.6582 332.385 38.959 333.896L39.0996 331.98H42.0879V358.312H38.8359V349.242C37.5234 350.648 35.7773 351.351 33.5977 351.351C31.3008 351.351 29.4668 350.461 28.0957 348.679C26.7363 346.886 26.0566 344.513 26.0566 341.56V341.332ZM29.3086 341.701C29.3086 343.881 29.7656 345.592 30.6797 346.834C31.6055 348.076 32.8477 348.697 34.4062 348.697C36.3398 348.697 37.8164 347.842 38.8359 346.131V336.814C37.8047 335.138 36.3398 334.301 34.4414 334.301C32.8711 334.301 31.623 334.927 30.6973 336.181C29.7715 337.424 29.3086 339.263 29.3086 341.701Z" fill="#2CF30B"/>
<path d="M59.0508 349.119C57.7852 350.607 55.9277 351.351 53.4785 351.351C51.4512 351.351 49.9043 350.765 48.8379 349.594C47.7832 348.41 47.25 346.664 47.2383 344.355V331.98H50.4902V344.267C50.4902 347.15 51.6621 348.592 54.0059 348.592C56.4902 348.592 58.1426 347.666 58.9629 345.814V331.98H62.2148V351H59.1211L59.0508 349.119Z" fill="#2CF30B"/>
<path d="M70.7051 351H67.4531V331.98H70.7051V351ZM67.1895 326.935C67.1895 326.408 67.3477 325.963 67.6641 325.599C67.9922 325.236 68.4727 325.054 69.1055 325.054C69.7383 325.054 70.2188 325.236 70.5469 325.599C70.875 325.963 71.0391 326.408 71.0391 326.935C71.0391 327.463 70.875 327.902 70.5469 328.254C70.2188 328.605 69.7383 328.781 69.1055 328.781C68.4727 328.781 67.9922 328.605 67.6641 328.254C67.3477 327.902 67.1895 327.463 67.1895 326.935Z" fill="#2CF30B"/>
<path d="M83.8184 351.351C81.2402 351.351 79.1426 350.508 77.5254 348.82C75.9082 347.121 75.0996 344.853 75.0996 342.017V341.42C75.0996 339.533 75.457 337.851 76.1719 336.375C76.8984 334.886 77.9062 333.726 79.1953 332.894C80.4961 332.051 81.9023 331.629 83.4141 331.629C85.8867 331.629 87.8086 332.443 89.1797 334.072C90.5508 335.701 91.2363 338.033 91.2363 341.068V342.422H78.3516C78.3984 344.297 78.9434 345.814 79.9863 346.974C81.041 348.123 82.377 348.697 83.9941 348.697C85.1426 348.697 86.1152 348.463 86.9121 347.994C87.709 347.525 88.4062 346.904 89.0039 346.131L90.9902 347.677C89.3965 350.127 87.0059 351.351 83.8184 351.351ZM83.4141 334.301C82.1016 334.301 81 334.781 80.1094 335.742C79.2188 336.691 78.668 338.027 78.457 339.75H87.9844V339.504C87.8906 337.851 87.4453 336.574 86.6484 335.672C85.8516 334.758 84.7734 334.301 83.4141 334.301Z" fill="#2CF30B"/>
<path d="M104.209 334.898C103.717 334.816 103.184 334.775 102.609 334.775C100.477 334.775 99.0293 335.683 98.2676 337.5V351H95.0156V331.98H98.1797L98.2324 334.177C99.2988 332.478 100.811 331.629 102.768 331.629C103.4 331.629 103.881 331.711 104.209 331.875V334.898Z" fill="#2CF30B"/>
<path d="M106.072 341.332C106.072 338.414 106.764 336.07 108.146 334.301C109.529 332.519 111.34 331.629 113.578 331.629C115.805 331.629 117.568 332.39 118.869 333.914V324H122.121V351H119.133L118.975 348.961C117.674 350.554 115.863 351.351 113.543 351.351C111.34 351.351 109.541 350.449 108.146 348.644C106.764 346.84 106.072 344.484 106.072 341.578V341.332ZM109.324 341.701C109.324 343.857 109.77 345.545 110.66 346.763C111.551 347.982 112.781 348.592 114.352 348.592C116.414 348.592 117.92 347.666 118.869 345.814V337.078C117.896 335.285 116.402 334.388 114.387 334.388C112.793 334.388 111.551 335.004 110.66 336.234C109.77 337.465 109.324 339.287 109.324 341.701Z" fill="#2CF30B"/>
<path d="M138.926 351C138.738 350.625 138.586 349.957 138.469 348.996C136.957 350.566 135.152 351.351 133.055 351.351C131.18 351.351 129.639 350.824 128.432 349.769C127.236 348.703 126.639 347.355 126.639 345.726C126.639 343.746 127.389 342.211 128.889 341.121C130.4 340.019 132.521 339.469 135.252 339.469H138.416V337.974C138.416 336.838 138.076 335.935 137.396 335.267C136.717 334.588 135.715 334.248 134.391 334.248C133.23 334.248 132.258 334.541 131.473 335.127C130.688 335.713 130.295 336.422 130.295 337.254H127.025C127.025 336.304 127.359 335.39 128.027 334.511C128.707 333.621 129.621 332.918 130.77 332.402C131.93 331.886 133.201 331.629 134.584 331.629C136.775 331.629 138.492 332.179 139.734 333.281C140.977 334.371 141.621 335.877 141.668 337.799V346.552C141.668 348.299 141.891 349.687 142.336 350.719V351H138.926ZM133.529 348.521C134.549 348.521 135.516 348.258 136.43 347.73C137.344 347.203 138.006 346.517 138.416 345.674V341.771H135.867C131.883 341.771 129.891 342.937 129.891 345.269C129.891 346.289 130.23 347.086 130.91 347.66C131.59 348.234 132.463 348.521 133.529 348.521Z" fill="#2CF30B"/>
</g>
<path id="Arrow 18 (Stroke)" fill-rule="evenodd" clip-rule="evenodd" d="M126.536 279.673C126.717 278.864 127.519 278.355 128.327 278.536L141.502 281.482C142.31 281.663 142.819 282.465 142.639 283.273C142.458 284.082 141.656 284.591 140.847 284.41L131.321 282.28C132.294 283.701 133.595 285.56 135.191 287.743C138.998 292.949 144.472 299.991 151.142 307.332C164.535 322.075 182.532 337.782 201.368 342.546L200.632 345.454C180.885 340.46 162.382 324.167 148.921 309.349C142.163 301.91 136.622 294.782 132.77 289.513C131.072 287.191 129.7 285.228 128.697 283.757L126.518 293.502C126.337 294.311 125.535 294.819 124.727 294.639C123.918 294.458 123.409 293.656 123.59 292.847L126.536 279.673Z" fill="#2CF30B"/>
</g>
<g id="Manuel">
<path d="M11.3301 245.406L19.6973 266.289L28.0645 245.406H32.4414V271H29.0664V261.033L29.3828 250.275L20.9805 271H18.3965L10.0117 250.328L10.3457 261.033V271H6.9707V245.406H11.3301Z" fill="white"/>
<path d="M49.6328 271C49.4453 270.625 49.293 269.957 49.1758 268.996C47.6641 270.566 45.8594 271.352 43.7617 271.352C41.8867 271.352 40.3457 270.824 39.1387 269.77C37.9434 268.703 37.3457 267.355 37.3457 265.727C37.3457 263.746 38.0957 262.211 39.5957 261.121C41.1074 260.02 43.2285 259.469 45.959 259.469H49.123V257.975C49.123 256.838 48.7832 255.936 48.1035 255.268C47.4238 254.588 46.4219 254.248 45.0977 254.248C43.9375 254.248 42.9648 254.541 42.1797 255.127C41.3945 255.713 41.002 256.422 41.002 257.254H37.7324C37.7324 256.305 38.0664 255.391 38.7344 254.512C39.4141 253.621 40.3281 252.918 41.4766 252.402C42.6367 251.887 43.9082 251.629 45.291 251.629C47.4824 251.629 49.1992 252.18 50.4414 253.281C51.6836 254.371 52.3281 255.877 52.375 257.799V266.553C52.375 268.299 52.5977 269.688 53.043 270.719V271H49.6328ZM44.2363 268.521C45.2559 268.521 46.2227 268.258 47.1367 267.73C48.0508 267.203 48.7129 266.518 49.123 265.674V261.771H46.5742C42.5898 261.771 40.5977 262.938 40.5977 265.27C40.5977 266.289 40.9375 267.086 41.6172 267.66C42.2969 268.234 43.1699 268.521 44.2363 268.521Z" fill="white"/>
<path d="M60.5488 251.98L60.6543 254.371C62.1074 252.543 64.0059 251.629 66.3496 251.629C70.3691 251.629 72.3965 253.896 72.4316 258.432V271H69.1797V258.414C69.168 257.043 68.8516 256.029 68.2305 255.373C67.6211 254.717 66.666 254.389 65.3652 254.389C64.3105 254.389 63.3848 254.67 62.5879 255.232C61.791 255.795 61.1699 256.533 60.7246 257.447V271H57.4727V251.98H60.5488Z" fill="white"/>
<path d="M89.0781 269.119C87.8125 270.607 85.9551 271.352 83.5059 271.352C81.4785 271.352 79.9316 270.766 78.8652 269.594C77.8105 268.41 77.2773 266.664 77.2656 264.355V251.98H80.5176V264.268C80.5176 267.15 81.6895 268.592 84.0332 268.592C86.5176 268.592 88.1699 267.666 88.9902 265.814V251.98H92.2422V271H89.1484L89.0781 269.119Z" fill="white"/>
<path d="M105.092 271.352C102.514 271.352 100.416 270.508 98.7988 268.82C97.1816 267.121 96.373 264.854 96.373 262.018V261.42C96.373 259.533 96.7305 257.852 97.4453 256.375C98.1719 254.887 99.1797 253.727 100.469 252.895C101.77 252.051 103.176 251.629 104.688 251.629C107.16 251.629 109.082 252.443 110.453 254.072C111.824 255.701 112.51 258.033 112.51 261.068V262.422H99.625C99.6719 264.297 100.217 265.814 101.26 266.975C102.314 268.123 103.65 268.697 105.268 268.697C106.416 268.697 107.389 268.463 108.186 267.994C108.982 267.525 109.68 266.904 110.277 266.131L112.264 267.678C110.67 270.127 108.279 271.352 105.092 271.352ZM104.688 254.301C103.375 254.301 102.273 254.781 101.383 255.742C100.492 256.691 99.9414 258.027 99.7305 259.75H109.258V259.504C109.164 257.852 108.719 256.574 107.922 255.672C107.125 254.758 106.047 254.301 104.688 254.301Z" fill="white"/>
<path d="M119.822 271H116.57V244H119.822V271Z" fill="white"/>
</g>
</g>
<g id="Group 170">
<g id="Group 169">
<path id="Arrow 20 (Stroke)" fill-rule="evenodd" clip-rule="evenodd" d="M331.957 55.1193C320.082 45.8676 304.577 39.5049 280.691 34.4677L281.31 31.5323C305.418 36.6162 321.42 43.1076 333.8 52.7527C345.407 61.7957 353.712 73.5215 362.552 89.1283L365.286 79.6107C365.515 78.8144 366.346 78.3544 367.142 78.5832C367.938 78.8119 368.398 79.6428 368.169 80.439L364.442 93.4142C364.213 94.2104 363.382 94.6705 362.586 94.4417L349.611 90.7142C348.814 90.4854 348.354 89.6545 348.583 88.8583C348.812 88.0621 349.643 87.6021 350.439 87.8308L359.91 90.5516C351.149 75.0936 343.089 63.7924 331.957 55.1193Z" fill="#E79720"/>
<g id="junto">
<path d="M351.818 27.9805V49.1973C351.818 52.8535 350.16 54.6816 346.844 54.6816C346.129 54.6816 345.467 54.5762 344.857 54.3652V51.7637C345.232 51.8574 345.725 51.9043 346.334 51.9043C347.061 51.9043 347.611 51.7051 347.986 51.3066C348.373 50.9199 348.566 50.2402 348.566 49.2676V27.9805H351.818ZM348.232 22.9355C348.232 22.4199 348.391 21.9805 348.707 21.6172C349.035 21.2422 349.51 21.0547 350.131 21.0547C350.764 21.0547 351.244 21.2363 351.572 21.5996C351.9 21.9629 352.064 22.4082 352.064 22.9355C352.064 23.4629 351.9 23.9023 351.572 24.2539C351.244 24.6055 350.764 24.7812 350.131 24.7812C349.498 24.7812 349.023 24.6055 348.707 24.2539C348.391 23.9023 348.232 23.4629 348.232 22.9355Z" fill="#E79720"/>
<path d="M368.816 45.1191C367.551 46.6074 365.693 47.3516 363.244 47.3516C361.217 47.3516 359.67 46.7656 358.604 45.5938C357.549 44.4102 357.016 42.6641 357.004 40.3555V27.9805H360.256V40.2676C360.256 43.1504 361.428 44.5918 363.771 44.5918C366.256 44.5918 367.908 43.666 368.729 41.8145V27.9805H371.98V47H368.887L368.816 45.1191Z" fill="#E79720"/>
<path d="M380.014 27.9805L380.119 30.3711C381.572 28.543 383.471 27.6289 385.814 27.6289C389.834 27.6289 391.861 29.8965 391.896 34.4316V47H388.645V34.4141C388.633 33.043 388.316 32.0293 387.695 31.373C387.086 30.7168 386.131 30.3887 384.83 30.3887C383.775 30.3887 382.85 30.6699 382.053 31.2324C381.256 31.7949 380.635 32.5332 380.189 33.4473V47H376.938V27.9805H380.014Z" fill="#E79720"/>
<path d="M401.213 23.375V27.9805H404.764V30.4941H401.213V42.2891C401.213 43.0508 401.371 43.625 401.688 44.0117C402.004 44.3867 402.543 44.5742 403.305 44.5742C403.68 44.5742 404.195 44.5039 404.852 44.3633V47C403.996 47.2344 403.164 47.3516 402.355 47.3516C400.902 47.3516 399.807 46.9121 399.068 46.0332C398.33 45.1543 397.961 43.9062 397.961 42.2891V30.4941H394.498V27.9805H397.961V23.375H401.213Z" fill="#E79720"/>
<path d="M407.365 37.3145C407.365 35.4512 407.729 33.7754 408.455 32.2871C409.193 30.7988 410.213 29.6504 411.514 28.8418C412.826 28.0332 414.32 27.6289 415.996 27.6289C418.586 27.6289 420.678 28.5254 422.271 30.3184C423.877 32.1113 424.68 34.4961 424.68 37.4727V37.7012C424.68 39.5527 424.322 41.2168 423.607 42.6934C422.904 44.1582 421.891 45.3008 420.566 46.1211C419.254 46.9414 417.742 47.3516 416.031 47.3516C413.453 47.3516 411.361 46.4551 409.756 44.6621C408.162 42.8691 407.365 40.4961 407.365 37.543V37.3145ZM410.635 37.7012C410.635 39.8105 411.121 41.5039 412.094 42.7812C413.078 44.0586 414.391 44.6973 416.031 44.6973C417.684 44.6973 418.996 44.0527 419.969 42.7637C420.941 41.4629 421.428 39.6465 421.428 37.3145C421.428 35.2285 420.93 33.541 419.934 32.252C418.949 30.9512 417.637 30.3008 415.996 30.3008C414.391 30.3008 413.096 30.9395 412.111 32.2168C411.127 33.4941 410.635 35.3223 410.635 37.7012Z" fill="#E79720"/>
</g>
</g>
<g id="Renzo">
<path d="M388.357 115.646H382.346V126H378.953V100.406H387.426C390.309 100.406 392.523 101.062 394.07 102.375C395.629 103.688 396.408 105.598 396.408 108.105C396.408 109.699 395.975 111.088 395.107 112.271C394.252 113.455 393.057 114.34 391.521 114.926L397.533 125.789V126H393.912L388.357 115.646ZM382.346 112.887H387.531C389.207 112.887 390.537 112.453 391.521 111.586C392.518 110.719 393.016 109.559 393.016 108.105C393.016 106.523 392.541 105.311 391.592 104.467C390.654 103.623 389.295 103.195 387.514 103.184H382.346V112.887Z" fill="white"/>
<path d="M408.537 126.352C405.959 126.352 403.861 125.508 402.244 123.82C400.627 122.121 399.818 119.854 399.818 117.018V116.42C399.818 114.533 400.176 112.852 400.891 111.375C401.617 109.887 402.625 108.727 403.914 107.895C405.215 107.051 406.621 106.629 408.133 106.629C410.605 106.629 412.527 107.443 413.898 109.072C415.27 110.701 415.955 113.033 415.955 116.068V117.422H403.07C403.117 119.297 403.662 120.814 404.705 121.975C405.76 123.123 407.096 123.697 408.713 123.697C409.861 123.697 410.834 123.463 411.631 122.994C412.428 122.525 413.125 121.904 413.723 121.131L415.709 122.678C414.115 125.127 411.725 126.352 408.537 126.352ZM408.133 109.301C406.82 109.301 405.719 109.781 404.828 110.742C403.938 111.691 403.387 113.027 403.176 114.75H412.703V114.504C412.609 112.852 412.164 111.574 411.367 110.672C410.57 109.758 409.492 109.301 408.133 109.301Z" fill="white"/>
<path d="M422.811 106.98L422.916 109.371C424.369 107.543 426.268 106.629 428.611 106.629C432.631 106.629 434.658 108.896 434.693 113.432V126H431.441V113.414C431.43 112.043 431.113 111.029 430.492 110.373C429.883 109.717 428.928 109.389 427.627 109.389C426.572 109.389 425.646 109.67 424.85 110.232C424.053 110.795 423.432 111.533 422.986 112.447V126H419.734V106.98H422.811Z" fill="white"/>
<path d="M442.656 123.346H453.783V126H438.684V123.609L449.178 109.67H438.842V106.98H453.256V109.283L442.656 123.346Z" fill="white"/>
<path d="M456.314 116.314C456.314 114.451 456.678 112.775 457.404 111.287C458.143 109.799 459.162 108.65 460.463 107.842C461.775 107.033 463.27 106.629 464.945 106.629C467.535 106.629 469.627 107.525 471.221 109.318C472.826 111.111 473.629 113.496 473.629 116.473V116.701C473.629 118.553 473.271 120.217 472.557 121.693C471.854 123.158 470.84 124.301 469.516 125.121C468.203 125.941 466.691 126.352 464.98 126.352C462.402 126.352 460.311 125.455 458.705 123.662C457.111 121.869 456.314 119.496 456.314 116.543V116.314ZM459.584 116.701C459.584 118.811 460.07 120.504 461.043 121.781C462.027 123.059 463.34 123.697 464.98 123.697C466.633 123.697 467.945 123.053 468.918 121.764C469.891 120.463 470.377 118.646 470.377 116.314C470.377 114.229 469.879 112.541 468.883 111.252C467.898 109.951 466.586 109.301 464.945 109.301C463.34 109.301 462.045 109.939 461.061 111.217C460.076 112.494 459.584 114.322 459.584 116.701Z" fill="white"/>
</g>
</g>
<g id="Juan">
<path d="M389.693 266.406H393.086V284.529C393.086 286.979 392.348 288.895 390.871 290.277C389.406 291.66 387.449 292.352 385 292.352C382.457 292.352 380.477 291.701 379.059 290.4C377.641 289.1 376.932 287.277 376.932 284.934H380.307C380.307 286.398 380.705 287.541 381.502 288.361C382.311 289.182 383.477 289.592 385 289.592C386.395 289.592 387.52 289.152 388.375 288.273C389.242 287.395 389.682 286.164 389.693 284.582V266.406Z" fill="white"/>
<path d="M410.066 290.119C408.801 291.607 406.943 292.352 404.494 292.352C402.467 292.352 400.92 291.766 399.854 290.594C398.799 289.41 398.266 287.664 398.254 285.355V272.98H401.506V285.268C401.506 288.15 402.678 289.592 405.021 289.592C407.506 289.592 409.158 288.666 409.979 286.814V272.98H413.23V292H410.137L410.066 290.119Z" fill="white"/>
<path d="M429.93 292C429.742 291.625 429.59 290.957 429.473 289.996C427.961 291.566 426.156 292.352 424.059 292.352C422.184 292.352 420.643 291.824 419.436 290.77C418.24 289.703 417.643 288.355 417.643 286.727C417.643 284.746 418.393 283.211 419.893 282.121C421.404 281.02 423.525 280.469 426.256 280.469H429.42V278.975C429.42 277.838 429.08 276.936 428.4 276.268C427.721 275.588 426.719 275.248 425.395 275.248C424.234 275.248 423.262 275.541 422.477 276.127C421.691 276.713 421.299 277.422 421.299 278.254H418.029C418.029 277.305 418.363 276.391 419.031 275.512C419.711 274.621 420.625 273.918 421.773 273.402C422.934 272.887 424.205 272.629 425.588 272.629C427.779 272.629 429.496 273.18 430.738 274.281C431.98 275.371 432.625 276.877 432.672 278.799V287.553C432.672 289.299 432.895 290.688 433.34 291.719V292H429.93ZM424.533 289.521C425.553 289.521 426.52 289.258 427.434 288.73C428.348 288.203 429.01 287.518 429.42 286.674V282.771H426.871C422.887 282.771 420.895 283.938 420.895 286.27C420.895 287.289 421.234 288.086 421.914 288.66C422.594 289.234 423.467 289.521 424.533 289.521Z" fill="white"/>
<path d="M440.846 272.98L440.951 275.371C442.404 273.543 444.303 272.629 446.646 272.629C450.666 272.629 452.693 274.896 452.729 279.432V292H449.477V279.414C449.465 278.043 449.148 277.029 448.527 276.373C447.918 275.717 446.963 275.389 445.662 275.389C444.607 275.389 443.682 275.67 442.885 276.232C442.088 276.795 441.467 277.533 441.021 278.447V292H437.77V272.98H440.846Z" fill="white"/>
</g>
</g>
<g id="Juan esta frente al un lugar vac&#195;&#173;o">
<path d="M191.976 430.141H195.934V451.284C195.934 454.142 195.072 456.377 193.35 457.99C191.641 459.604 189.357 460.41 186.5 460.41C183.533 460.41 181.223 459.651 179.568 458.134C177.914 456.616 177.087 454.49 177.087 451.756H181.024C181.024 453.465 181.489 454.798 182.419 455.755C183.362 456.712 184.723 457.19 186.5 457.19C188.127 457.19 189.439 456.678 190.438 455.652C191.449 454.627 191.962 453.191 191.976 451.346V430.141Z" fill="white"/>
<path d="M215.744 457.806C214.268 459.542 212.101 460.41 209.243 460.41C206.878 460.41 205.073 459.727 203.829 458.359C202.599 456.979 201.977 454.941 201.963 452.248V437.811H205.757V452.146C205.757 455.509 207.124 457.19 209.858 457.19C212.757 457.19 214.685 456.11 215.642 453.95V437.811H219.436V460H215.826L215.744 457.806Z" fill="white"/>
<path d="M238.918 460C238.699 459.562 238.521 458.783 238.385 457.662C236.621 459.494 234.516 460.41 232.068 460.41C229.881 460.41 228.083 459.795 226.675 458.564C225.28 457.32 224.583 455.748 224.583 453.848C224.583 451.537 225.458 449.746 227.208 448.475C228.972 447.189 231.446 446.547 234.632 446.547H238.323V444.804C238.323 443.478 237.927 442.425 237.134 441.646C236.341 440.853 235.172 440.456 233.627 440.456C232.273 440.456 231.139 440.798 230.223 441.481C229.307 442.165 228.849 442.992 228.849 443.963H225.034C225.034 442.855 225.424 441.789 226.203 440.764C226.996 439.725 228.062 438.904 229.402 438.303C230.756 437.701 232.239 437.4 233.853 437.4C236.409 437.4 238.412 438.043 239.861 439.328C241.311 440.6 242.062 442.356 242.117 444.599V454.812C242.117 456.849 242.377 458.469 242.896 459.672V460H238.918ZM232.622 457.108C233.812 457.108 234.939 456.801 236.006 456.186C237.072 455.57 237.845 454.771 238.323 453.786V449.233H235.35C230.701 449.233 228.377 450.594 228.377 453.314C228.377 454.504 228.773 455.434 229.566 456.104C230.359 456.773 231.378 457.108 232.622 457.108Z" fill="white"/>
<path d="M251.653 437.811L251.776 440.6C253.472 438.467 255.687 437.4 258.421 437.4C263.11 437.4 265.476 440.046 265.517 445.337V460H261.723V445.316C261.709 443.717 261.34 442.534 260.615 441.769C259.904 441.003 258.79 440.62 257.272 440.62C256.042 440.62 254.962 440.948 254.032 441.604C253.103 442.261 252.378 443.122 251.858 444.188V460H248.064V437.811H251.653Z" fill="white"/>
<path d="M290.864 460.41C287.856 460.41 285.409 459.426 283.522 457.457C281.636 455.475 280.692 452.829 280.692 449.521V448.823C280.692 446.622 281.109 444.66 281.943 442.938C282.791 441.201 283.967 439.848 285.471 438.877C286.988 437.893 288.629 437.4 290.393 437.4C293.277 437.4 295.52 438.351 297.119 440.251C298.719 442.151 299.519 444.872 299.519 448.413V449.992H284.486C284.541 452.18 285.177 453.95 286.394 455.304C287.624 456.644 289.183 457.313 291.069 457.313C292.409 457.313 293.544 457.04 294.474 456.493C295.403 455.946 296.217 455.222 296.914 454.319L299.231 456.124C297.372 458.981 294.583 460.41 290.864 460.41ZM290.393 440.518C288.861 440.518 287.576 441.078 286.537 442.199C285.498 443.307 284.855 444.865 284.609 446.875H295.725V446.588C295.615 444.66 295.096 443.17 294.166 442.117C293.236 441.051 291.979 440.518 290.393 440.518Z" fill="white"/>
<path d="M316.848 454.114C316.848 453.089 316.458 452.296 315.679 451.735C314.913 451.161 313.566 450.669 311.639 450.259C309.725 449.849 308.2 449.356 307.065 448.782C305.944 448.208 305.11 447.524 304.563 446.731C304.03 445.938 303.764 444.995 303.764 443.901C303.764 442.083 304.529 440.545 306.061 439.287C307.605 438.029 309.574 437.4 311.967 437.4C314.482 437.4 316.52 438.05 318.078 439.349C319.65 440.647 320.437 442.309 320.437 444.332H316.622C316.622 443.293 316.178 442.397 315.289 441.646C314.414 440.894 313.307 440.518 311.967 440.518C310.586 440.518 309.506 440.818 308.727 441.42C307.947 442.021 307.558 442.808 307.558 443.778C307.558 444.694 307.92 445.385 308.645 445.85C309.369 446.314 310.675 446.759 312.562 447.183C314.462 447.606 316 448.112 317.176 448.7C318.352 449.288 319.22 449.999 319.78 450.833C320.354 451.653 320.642 452.658 320.642 453.848C320.642 455.83 319.849 457.423 318.263 458.626C316.677 459.815 314.619 460.41 312.09 460.41C310.312 460.41 308.74 460.096 307.373 459.467C306.006 458.838 304.933 457.963 304.153 456.842C303.388 455.707 303.005 454.483 303.005 453.171H306.799C306.867 454.442 307.373 455.454 308.316 456.206C309.273 456.944 310.531 457.313 312.09 457.313C313.525 457.313 314.674 457.026 315.535 456.452C316.41 455.864 316.848 455.085 316.848 454.114Z" fill="white"/>
<path d="M330.731 432.438V437.811H334.874V440.743H330.731V454.504C330.731 455.393 330.916 456.062 331.285 456.514C331.654 456.951 332.283 457.17 333.172 457.17C333.609 457.17 334.211 457.088 334.977 456.924V460C333.979 460.273 333.008 460.41 332.064 460.41C330.369 460.41 329.091 459.897 328.229 458.872C327.368 457.847 326.938 456.391 326.938 454.504V440.743H322.897V437.811H326.938V432.438H330.731Z" fill="white"/>
<path d="M353.023 460C352.805 459.562 352.627 458.783 352.49 457.662C350.727 459.494 348.621 460.41 346.174 460.41C343.986 460.41 342.188 459.795 340.78 458.564C339.386 457.32 338.688 455.748 338.688 453.848C338.688 451.537 339.563 449.746 341.313 448.475C343.077 447.189 345.552 446.547 348.737 446.547H352.429V444.804C352.429 443.478 352.032 442.425 351.239 441.646C350.446 440.853 349.277 440.456 347.732 440.456C346.379 440.456 345.244 440.798 344.328 441.481C343.412 442.165 342.954 442.992 342.954 443.963H339.14C339.14 442.855 339.529 441.789 340.309 440.764C341.102 439.725 342.168 438.904 343.508 438.303C344.861 437.701 346.345 437.4 347.958 437.4C350.515 437.4 352.518 438.043 353.967 439.328C355.416 440.6 356.168 442.356 356.223 444.599V454.812C356.223 456.849 356.482 458.469 357.002 459.672V460H353.023ZM346.728 457.108C347.917 457.108 349.045 456.801 350.111 456.186C351.178 455.57 351.95 454.771 352.429 453.786V449.233H349.455C344.807 449.233 342.482 450.594 342.482 453.314C342.482 454.504 342.879 455.434 343.672 456.104C344.465 456.773 345.483 457.108 346.728 457.108Z" fill="white"/>
<path d="M374.454 460V440.743H370.947V437.811H374.454V435.534C374.454 433.155 375.09 431.316 376.361 430.018C377.633 428.719 379.431 428.069 381.755 428.069C382.63 428.069 383.498 428.186 384.359 428.418L384.154 431.494C383.512 431.371 382.828 431.31 382.104 431.31C380.873 431.31 379.923 431.672 379.253 432.396C378.583 433.107 378.248 434.133 378.248 435.473V437.811H382.985V440.743H378.248V460H374.454Z" fill="white"/>
<path d="M397.915 441.215C397.341 441.119 396.719 441.071 396.049 441.071C393.561 441.071 391.872 442.131 390.983 444.25V460H387.189V437.811H390.881L390.942 440.374C392.187 438.392 393.95 437.4 396.233 437.4C396.972 437.4 397.532 437.496 397.915 437.688V441.215Z" fill="white"/>
<path d="M410.22 460.41C407.212 460.41 404.765 459.426 402.878 457.457C400.991 455.475 400.048 452.829 400.048 449.521V448.823C400.048 446.622 400.465 444.66 401.299 442.938C402.146 441.201 403.322 439.848 404.826 438.877C406.344 437.893 407.984 437.4 409.748 437.4C412.633 437.4 414.875 438.351 416.475 440.251C418.074 442.151 418.874 444.872 418.874 448.413V449.992H403.842C403.896 452.18 404.532 453.95 405.749 455.304C406.979 456.644 408.538 457.313 410.425 457.313C411.765 457.313 412.899 457.04 413.829 456.493C414.759 455.946 415.572 455.222 416.27 454.319L418.587 456.124C416.728 458.981 413.938 460.41 410.22 460.41ZM409.748 440.518C408.217 440.518 406.932 441.078 405.893 442.199C404.854 443.307 404.211 444.865 403.965 446.875H415.08V446.588C414.971 444.66 414.451 443.17 413.521 442.117C412.592 441.051 411.334 440.518 409.748 440.518Z" fill="white"/>
<path d="M426.872 437.811L426.995 440.6C428.69 438.467 430.905 437.4 433.64 437.4C438.329 437.4 440.694 440.046 440.735 445.337V460H436.941V445.316C436.928 443.717 436.559 442.534 435.834 441.769C435.123 441.003 434.009 440.62 432.491 440.62C431.261 440.62 430.181 440.948 429.251 441.604C428.321 442.261 427.597 443.122 427.077 444.188V460H423.283V437.811H426.872Z" fill="white"/>
<path d="M451.604 432.438V437.811H455.747V440.743H451.604V454.504C451.604 455.393 451.789 456.062 452.158 456.514C452.527 456.951 453.156 457.17 454.045 457.17C454.482 457.17 455.084 457.088 455.85 456.924V460C454.852 460.273 453.881 460.41 452.938 460.41C451.242 460.41 449.964 459.897 449.103 458.872C448.241 457.847 447.811 456.391 447.811 454.504V440.743H443.771V437.811H447.811V432.438H451.604Z" fill="white"/>
<path d="M469.405 460.41C466.397 460.41 463.95 459.426 462.063 457.457C460.177 455.475 459.233 452.829 459.233 449.521V448.823C459.233 446.622 459.65 444.66 460.484 442.938C461.332 441.201 462.508 439.848 464.012 438.877C465.529 437.893 467.17 437.4 468.934 437.4C471.818 437.4 474.061 438.351 475.66 440.251C477.26 442.151 478.06 444.872 478.06 448.413V449.992H463.027C463.082 452.18 463.718 453.95 464.935 455.304C466.165 456.644 467.724 457.313 469.61 457.313C470.95 457.313 472.085 457.04 473.015 456.493C473.944 455.946 474.758 455.222 475.455 454.319L477.772 456.124C475.913 458.981 473.124 460.41 469.405 460.41ZM468.934 440.518C467.402 440.518 466.117 441.078 465.078 442.199C464.039 443.307 463.396 444.865 463.15 446.875H474.266V446.588C474.156 444.66 473.637 443.17 472.707 442.117C471.777 441.051 470.52 440.518 468.934 440.518Z" fill="white"/>
<path d="M506.586 460C506.367 459.562 506.189 458.783 506.053 457.662C504.289 459.494 502.184 460.41 499.736 460.41C497.549 460.41 495.751 459.795 494.343 458.564C492.948 457.32 492.251 455.748 492.251 453.848C492.251 451.537 493.126 449.746 494.876 448.475C496.64 447.189 499.114 446.547 502.3 446.547H505.991V444.804C505.991 443.478 505.595 442.425 504.802 441.646C504.009 440.853 502.84 440.456 501.295 440.456C499.941 440.456 498.807 440.798 497.891 441.481C496.975 442.165 496.517 442.992 496.517 443.963H492.702C492.702 442.855 493.092 441.789 493.871 440.764C494.664 439.725 495.73 438.904 497.07 438.303C498.424 437.701 499.907 437.4 501.521 437.4C504.077 437.4 506.08 438.043 507.529 439.328C508.979 440.6 509.73 442.356 509.785 444.599V454.812C509.785 456.849 510.045 458.469 510.564 459.672V460H506.586ZM500.29 457.108C501.479 457.108 502.607 456.801 503.674 456.186C504.74 455.57 505.513 454.771 505.991 453.786V449.233H503.018C498.369 449.233 496.045 450.594 496.045 453.314C496.045 454.504 496.441 455.434 497.234 456.104C498.027 456.773 499.046 457.108 500.29 457.108Z" fill="white"/>
<path d="M519.854 460H516.061V428.5H519.854V460Z" fill="white"/>
<path d="M560.48 457.806C559.004 459.542 556.837 460.41 553.979 460.41C551.614 460.41 549.81 459.727 548.565 458.359C547.335 456.979 546.713 454.941 546.699 452.248V437.811H550.493V452.146C550.493 455.509 551.86 457.19 554.595 457.19C557.493 457.19 559.421 456.11 560.378 453.95V437.811H564.172V460H560.562L560.48 457.806Z" fill="white"/>
<path d="M573.544 437.811L573.667 440.6C575.362 438.467 577.577 437.4 580.312 437.4C585.001 437.4 587.366 440.046 587.407 445.337V460H583.613V445.316C583.6 443.717 583.23 442.534 582.506 441.769C581.795 441.003 580.681 440.62 579.163 440.62C577.933 440.62 576.853 440.948 575.923 441.604C574.993 442.261 574.269 443.122 573.749 444.188V460H569.955V437.811H573.544Z" fill="white"/>
<path d="M607.669 460H603.875V428.5H607.669V460Z" fill="white"/>
<path d="M627.459 457.806C625.982 459.542 623.815 460.41 620.958 460.41C618.593 460.41 616.788 459.727 615.544 458.359C614.313 456.979 613.691 454.941 613.678 452.248V437.811H617.472V452.146C617.472 455.509 618.839 457.19 621.573 457.19C624.472 457.19 626.399 456.11 627.356 453.95V437.811H631.15V460H627.541L627.459 457.806Z" fill="white"/>
<path d="M636.031 448.721C636.031 445.262 636.831 442.514 638.431 440.477C640.03 438.426 642.149 437.4 644.788 437.4C647.495 437.4 649.607 438.357 651.125 440.271L651.31 437.811H654.775V459.467C654.775 462.338 653.921 464.601 652.212 466.255C650.517 467.909 648.233 468.736 645.362 468.736C643.763 468.736 642.197 468.395 640.666 467.711C639.135 467.027 637.966 466.091 637.159 464.901L639.128 462.625C640.755 464.635 642.744 465.64 645.096 465.64C646.941 465.64 648.377 465.12 649.402 464.081C650.441 463.042 650.961 461.579 650.961 459.692V457.785C649.443 459.535 647.372 460.41 644.747 460.41C642.149 460.41 640.044 459.364 638.431 457.272C636.831 455.181 636.031 452.33 636.031 448.721ZM639.846 449.151C639.846 451.653 640.358 453.622 641.384 455.058C642.409 456.479 643.845 457.19 645.69 457.19C648.083 457.19 649.84 456.104 650.961 453.93V443.799C649.799 441.68 648.056 440.62 645.731 440.62C643.886 440.62 642.443 441.338 641.404 442.773C640.365 444.209 639.846 446.335 639.846 449.151Z" fill="white"/>
<path d="M674.217 460C673.998 459.562 673.82 458.783 673.684 457.662C671.92 459.494 669.814 460.41 667.367 460.41C665.18 460.41 663.382 459.795 661.974 458.564C660.579 457.32 659.882 455.748 659.882 453.848C659.882 451.537 660.757 449.746 662.507 448.475C664.271 447.189 666.745 446.547 669.931 446.547H673.622V444.804C673.622 443.478 673.226 442.425 672.433 441.646C671.64 440.853 670.471 440.456 668.926 440.456C667.572 440.456 666.438 440.798 665.521 441.481C664.605 442.165 664.147 442.992 664.147 443.963H660.333C660.333 442.855 660.723 441.789 661.502 440.764C662.295 439.725 663.361 438.904 664.701 438.303C666.055 437.701 667.538 437.4 669.151 437.4C671.708 437.4 673.711 438.043 675.16 439.328C676.609 440.6 677.361 442.356 677.416 444.599V454.812C677.416 456.849 677.676 458.469 678.195 459.672V460H674.217ZM667.921 457.108C669.11 457.108 670.238 456.801 671.305 456.186C672.371 455.57 673.144 454.771 673.622 453.786V449.233H670.648C666 449.233 663.676 450.594 663.676 453.314C663.676 454.504 664.072 455.434 664.865 456.104C665.658 456.773 666.677 457.108 667.921 457.108Z" fill="white"/>
<path d="M694.089 441.215C693.515 441.119 692.893 441.071 692.223 441.071C689.734 441.071 688.046 442.131 687.157 444.25V460H683.363V437.811H687.055L687.116 440.374C688.36 438.392 690.124 437.4 692.407 437.4C693.146 437.4 693.706 437.496 694.089 437.688V441.215Z" fill="white"/>
<path d="M715.335 454.853L720.831 437.811H724.707L716.75 460H713.858L705.819 437.811H709.695L715.335 454.853Z" fill="white"/>
<path d="M741.729 460C741.51 459.562 741.332 458.783 741.195 457.662C739.432 459.494 737.326 460.41 734.879 460.41C732.691 460.41 730.894 459.795 729.485 458.564C728.091 457.32 727.394 455.748 727.394 453.848C727.394 451.537 728.269 449.746 730.019 448.475C731.782 447.189 734.257 446.547 737.442 446.547H741.134V444.804C741.134 443.478 740.737 442.425 739.944 441.646C739.151 440.853 737.982 440.456 736.438 440.456C735.084 440.456 733.949 440.798 733.033 441.481C732.117 442.165 731.659 442.992 731.659 443.963H727.845C727.845 442.855 728.234 441.789 729.014 440.764C729.807 439.725 730.873 438.904 732.213 438.303C733.566 437.701 735.05 437.4 736.663 437.4C739.22 437.4 741.223 438.043 742.672 439.328C744.121 440.6 744.873 442.356 744.928 444.599V454.812C744.928 456.849 745.188 458.469 745.707 459.672V460H741.729ZM735.433 457.108C736.622 457.108 737.75 456.801 738.816 456.186C739.883 455.57 740.655 454.771 741.134 453.786V449.233H738.16C733.512 449.233 731.188 450.594 731.188 453.314C731.188 454.504 731.584 455.434 732.377 456.104C733.17 456.773 734.188 457.108 735.433 457.108Z" fill="white"/>
<path d="M759.775 457.313C761.129 457.313 762.312 456.903 763.323 456.083C764.335 455.263 764.896 454.237 765.005 453.007H768.594C768.525 454.278 768.088 455.488 767.281 456.637C766.475 457.785 765.395 458.701 764.041 459.385C762.701 460.068 761.279 460.41 759.775 460.41C756.754 460.41 754.348 459.405 752.557 457.396C750.779 455.372 749.891 452.61 749.891 449.11V448.475C749.891 446.314 750.287 444.394 751.08 442.712C751.873 441.03 753.008 439.725 754.484 438.795C755.975 437.865 757.731 437.4 759.755 437.4C762.243 437.4 764.308 438.146 765.948 439.636C767.603 441.126 768.484 443.061 768.594 445.439H765.005C764.896 444.004 764.349 442.828 763.364 441.912C762.394 440.982 761.19 440.518 759.755 440.518C757.827 440.518 756.33 441.215 755.264 442.609C754.211 443.99 753.685 445.993 753.685 448.618V449.336C753.685 451.893 754.211 453.861 755.264 455.242C756.316 456.623 757.82 457.313 759.775 457.313Z" fill="white"/>
<path d="M776.981 460H773.167V437.811H776.981V460ZM777.022 428.521H781.616L776.12 434.55H773.064L777.022 428.521Z" fill="white"/>
<path d="M782.231 448.7C782.231 446.526 782.655 444.571 783.503 442.835C784.364 441.099 785.554 439.759 787.071 438.815C788.603 437.872 790.346 437.4 792.301 437.4C795.322 437.4 797.763 438.446 799.622 440.538C801.495 442.63 802.432 445.412 802.432 448.885V449.151C802.432 451.312 802.015 453.253 801.181 454.976C800.36 456.685 799.178 458.018 797.633 458.975C796.102 459.932 794.338 460.41 792.342 460.41C789.334 460.41 786.894 459.364 785.021 457.272C783.161 455.181 782.231 452.412 782.231 448.967V448.7ZM786.046 449.151C786.046 451.612 786.613 453.588 787.748 455.078C788.896 456.568 790.428 457.313 792.342 457.313C794.27 457.313 795.801 456.562 796.936 455.058C798.07 453.54 798.638 451.421 798.638 448.7C798.638 446.267 798.057 444.298 796.895 442.794C795.746 441.276 794.215 440.518 792.301 440.518C790.428 440.518 788.917 441.263 787.769 442.753C786.62 444.243 786.046 446.376 786.046 449.151Z" fill="white"/>
</g>
</g>
</svg>
