<svg viewBox="0 0 587 343" fill="none" xmlns="http://www.w3.org/2000/svg">
<g id="0128201">
<g id="I.\;\;T=2(Ultimo)&#10;II.\;\;T\;S\;D y F \;&#10;III.\;\; N\;F\;S\;&#10;IV.\;\;F\;D\;&#10;">
<g id="Group">
<g id="Group 92">
<g id="Group_2">
<path id="Vector" d="M5.595 58.2149C5.19833 58.2149 5 58.1099 5 57.8999C5 57.8533 5.035 57.6899 5.105 57.4099C5.22167 56.9666 5.33833 56.7216 5.455 56.6749C5.525 56.6516 5.7 56.6399 5.98 56.6399H6.19C7.59 56.6399 8.47667 56.5583 8.85 56.3949C8.87333 56.3949 8.89667 56.3833 8.92 56.3599C9.03667 56.3133 9.165 56.0449 9.305 55.5549C9.445 55.0649 10.0167 52.7783 11.02 48.6949C11.3 47.6449 11.51 46.8166 11.65 46.2099C13.2833 39.6766 14.1 36.3866 14.1 36.3399C14.0533 36.2466 14.03 36.1883 14.03 36.1649C13.7967 36.0249 12.9683 35.9549 11.545 35.9549H10.845C10.635 35.8149 10.5883 35.5233 10.705 35.0799C10.7983 34.7299 10.8683 34.5199 10.915 34.4499C10.9617 34.3799 11.125 34.3449 11.405 34.3449H11.545C13.225 34.3916 14.9283 34.4149 16.655 34.4149C19.5017 34.4149 20.995 34.3916 21.135 34.3449H21.485C21.6483 34.5083 21.73 34.6366 21.73 34.7299C21.73 34.8233 21.695 35.0216 21.625 35.3249C21.555 35.6283 21.4733 35.8149 21.38 35.8849C21.31 35.9316 21.0417 35.9549 20.575 35.9549C19.8517 35.9549 19.105 35.9899 18.335 36.0599C18.0083 36.1299 17.7867 36.2583 17.67 36.4449C17.5067 36.7716 16.9117 38.9999 15.885 43.1299C15.6283 44.2266 15.3717 45.2883 15.115 46.3149C13.4817 52.7549 12.665 56.0449 12.665 56.1849C12.665 56.3483 12.7817 56.4533 13.015 56.4999C13.2483 56.5466 13.855 56.5933 14.835 56.6399H15.955C16.095 56.8266 16.165 56.9316 16.165 56.9549C16.165 56.9783 16.13 57.1883 16.06 57.5849C15.9667 57.8883 15.85 58.1099 15.71 58.2499H15.15C14.2867 58.2033 12.6883 58.1799 10.355 58.1799C9.515 58.1799 8.745 58.1799 8.045 58.1799C7.345 58.1799 6.785 58.1799 6.365 58.1799C5.945 58.1799 5.68833 58.1916 5.595 58.2149Z" fill="white"/>
</g>
<g id="Group_3">
<path id="Vector_2" d="M24.4602 56.1499C24.4602 55.5899 24.6585 55.0999 25.0552 54.6799C25.4519 54.2599 25.9535 54.0499 26.5602 54.0499C27.1202 54.0499 27.6102 54.2366 28.0302 54.6099C28.4502 54.9833 28.6719 55.4849 28.6952 56.1149C28.6952 56.6983 28.4969 57.1999 28.1002 57.6199C27.7035 58.0399 27.2019 58.2499 26.5952 58.2499C25.9885 58.2499 25.4869 58.0516 25.0902 57.6549C24.6935 57.2583 24.4835 56.7566 24.4602 56.1499Z" fill="white"/>
</g>
<g id="Group_4">
<path id="Vector_3" d="M93.0596 46.1049C93.0596 45.8016 93.2229 45.5683 93.5496 45.4049H115.845C116.195 45.5916 116.37 45.8249 116.37 46.1049C116.37 46.3616 116.206 46.5833 115.88 46.7699L104.75 46.8049H93.6196C93.2462 46.6883 93.0596 46.4549 93.0596 46.1049ZM93.0596 52.8949C93.0596 52.5449 93.2462 52.3116 93.6196 52.1949H115.88C116.206 52.4283 116.37 52.6616 116.37 52.8949C116.37 53.1983 116.195 53.4316 115.845 53.5949H93.5496C93.2229 53.4316 93.0596 53.1983 93.0596 52.8949Z" fill="white"/>
</g>
<g id="Group_5">
<path id="Vector_4" d="M131.868 43.2349C131.238 43.2349 130.737 43.0249 130.363 42.6049C129.99 42.1849 129.803 41.6716 129.803 41.0649C129.803 39.4083 130.422 37.9733 131.658 36.7599C132.895 35.5466 134.435 34.9399 136.278 34.9399C138.402 34.9399 140.175 35.5933 141.598 36.8999C143.022 38.2066 143.745 39.8983 143.768 41.9749C143.768 42.9783 143.535 43.9349 143.068 44.8449C142.602 45.7549 142.042 46.5483 141.388 47.2249C140.735 47.9016 139.802 48.7649 138.588 49.8149C137.748 50.5383 136.582 51.6116 135.088 53.0349L133.023 54.9949L135.683 55.0299C139.347 55.0299 141.295 54.9716 141.528 54.8549C141.692 54.8083 141.972 53.7699 142.368 51.7399V51.6349H143.768V51.7399C143.745 51.8099 143.593 52.8716 143.313 54.9249C143.033 56.9783 142.858 58.0516 142.788 58.1449V58.2499H129.803V57.5849V57.1649C129.803 57.0016 129.873 56.8266 130.013 56.6399C130.153 56.4533 130.503 56.0449 131.063 55.4149C131.74 54.6683 132.323 54.0149 132.813 53.4549C133.023 53.2216 133.42 52.7899 134.003 52.1599C134.587 51.5299 134.983 51.0983 135.193 50.8649C135.403 50.6316 135.742 50.2466 136.208 49.7099C136.675 49.1733 137.002 48.7766 137.188 48.5199C137.375 48.2633 137.643 47.9133 137.993 47.4699C138.343 47.0266 138.588 46.6533 138.728 46.3499C138.868 46.0466 139.043 45.7083 139.253 45.3349C139.463 44.9616 139.615 44.5883 139.708 44.2149C139.802 43.8416 139.883 43.4916 139.953 43.1649C140.023 42.8383 140.058 42.4533 140.058 42.0099C140.058 40.5399 139.662 39.2683 138.868 38.1949C138.075 37.1216 136.943 36.5849 135.473 36.5849C134.703 36.5849 134.027 36.7833 133.443 37.1799C132.86 37.5766 132.452 37.9616 132.218 38.3349C131.985 38.7083 131.868 38.9299 131.868 38.9999C131.868 39.0233 131.927 39.0349 132.043 39.0349C132.463 39.0349 132.895 39.1983 133.338 39.5249C133.782 39.8516 134.003 40.3883 134.003 41.1349C134.003 41.7183 133.817 42.2083 133.443 42.6049C133.07 43.0016 132.545 43.2116 131.868 43.2349Z" fill="white"/>
</g>
<g id="Group_6">
<path id="Vector_5" d="M148.842 49.4999C148.842 47.8899 148.959 46.3616 149.192 44.9149C149.426 43.4683 149.694 42.2199 149.997 41.1699C150.301 40.1199 150.732 39.0933 151.292 38.0899C151.852 37.0866 152.296 36.3049 152.622 35.7449C152.949 35.1849 153.439 34.5783 154.092 33.9249C154.746 33.2716 155.131 32.8749 155.247 32.7349C155.364 32.5949 155.656 32.3499 156.122 31.9999H156.577H156.717C157.044 31.9999 157.207 32.1049 157.207 32.3149C157.207 32.3849 157.009 32.6299 156.612 33.0499C156.216 33.4699 155.737 34.0883 155.177 34.9049C154.617 35.7216 154.046 36.7249 153.462 37.9149C152.879 39.1049 152.389 40.7149 151.992 42.7449C151.596 44.7749 151.397 47.0266 151.397 49.4999C151.397 51.9733 151.596 54.2133 151.992 56.2199C152.389 58.2266 152.867 59.8483 153.427 61.0849C153.987 62.3216 154.559 63.3249 155.142 64.0949C155.726 64.8649 156.216 65.4833 156.612 65.9499C157.009 66.4166 157.207 66.6616 157.207 66.6849C157.207 66.8949 157.032 66.9999 156.682 66.9999H156.577H156.122L155.142 66.1599C152.949 64.1766 151.351 61.7033 150.347 58.7399C149.344 55.7766 148.842 52.6966 148.842 49.4999Z" fill="white"/>
</g>
<g id="Group_7">
<path id="Vector_6" d="M162.913 35.9549C162.119 35.9549 161.699 35.9083 161.653 35.8149C161.629 35.7683 161.618 35.6749 161.618 35.5349C161.618 34.9749 161.746 34.5899 162.003 34.3799C162.049 34.3566 162.248 34.3449 162.598 34.3449C163.554 34.3916 165.141 34.4149 167.358 34.4149C168.151 34.4149 168.886 34.4149 169.563 34.4149C170.239 34.4149 170.764 34.4033 171.138 34.3799C171.511 34.3566 171.744 34.3566 171.838 34.3799C172.211 34.3799 172.398 34.4966 172.398 34.7299C172.398 34.7766 172.374 34.9399 172.328 35.2199C172.211 35.6166 172.094 35.8499 171.978 35.9199H171.908C171.861 35.9199 171.803 35.9199 171.733 35.9199C171.663 35.9199 171.581 35.9199 171.488 35.9199C171.394 35.9199 171.289 35.9316 171.173 35.9549C171.056 35.9783 170.951 35.9783 170.858 35.9549C169.948 35.9783 169.364 36.0133 169.108 36.0599C168.851 36.1066 168.641 36.2349 168.478 36.4449C168.454 36.4916 168.128 37.7166 167.498 40.1199C166.868 42.5233 166.238 45.0433 165.608 47.6799C164.978 50.3166 164.628 51.8683 164.558 52.3349C164.511 52.6616 164.488 52.9999 164.488 53.3499C164.488 54.6099 164.849 55.6016 165.573 56.3249C166.296 57.0483 167.299 57.4099 168.583 57.4099C170.146 57.4099 171.709 56.8849 173.273 55.8349C174.836 54.7849 175.979 53.1983 176.703 51.0749L178.488 44.0399C179.584 39.5599 180.133 37.2266 180.133 37.0399C180.133 36.4099 179.386 36.0483 177.893 35.9549C177.333 35.9549 177.053 35.8266 177.053 35.5699C177.053 35.5233 177.076 35.3833 177.123 35.1499C177.216 34.7766 177.286 34.5549 177.333 34.4849C177.379 34.4149 177.496 34.3683 177.683 34.3449C177.753 34.3449 178.126 34.3566 178.803 34.3799C179.479 34.4033 180.459 34.4266 181.743 34.4499C182.933 34.4499 183.843 34.4383 184.473 34.4149C185.103 34.3916 185.441 34.3799 185.488 34.3799C185.838 34.3799 186.013 34.4966 186.013 34.7299C186.013 35.2433 185.919 35.5933 185.733 35.7799C185.663 35.8966 185.406 35.9549 184.963 35.9549C183.306 36.0483 182.268 36.5149 181.848 37.3549C181.801 37.4716 181.218 39.7233 180.098 44.1099C179.141 48.0533 178.558 50.3749 178.348 51.0749C177.578 53.4083 176.236 55.3099 174.323 56.7799C172.409 58.2499 170.426 58.9966 168.373 59.0199C166.226 59.0199 164.511 58.3666 163.228 57.0599C161.944 55.7533 161.291 54.2016 161.268 52.4049V51.8449C161.268 51.4249 161.909 48.6483 163.193 43.5149C164.336 38.8249 164.908 36.4099 164.908 36.2699C164.908 36.1066 164.243 36.0016 162.913 35.9549Z" fill="white"/>
</g>
<g id="Group_8">
<path id="Vector_7" d="M190.108 56.1849C190.108 56.9549 190.399 57.3399 190.983 57.3399C191.846 57.3399 192.581 56.1149 193.188 53.6649C193.328 53.1983 193.444 52.9533 193.538 52.9299C193.584 52.9066 193.701 52.8949 193.888 52.8949H194.028C194.238 52.8949 194.378 52.8949 194.448 52.8949C194.518 52.8949 194.576 52.9183 194.623 52.9649C194.669 53.0116 194.693 53.0933 194.693 53.2099C194.669 53.3499 194.634 53.5366 194.588 53.7699C194.541 54.0033 194.413 54.4466 194.203 55.0999C193.993 55.7533 193.759 56.3016 193.503 56.7449C193.246 57.1883 192.884 57.6199 192.418 58.0399C191.951 58.4599 191.414 58.6583 190.808 58.6349C189.968 58.6349 189.186 58.3783 188.463 57.8649C187.739 57.3516 187.366 56.4883 187.343 55.2749C187.343 54.9949 187.354 54.7966 187.378 54.6799L189.653 45.6499C191.123 39.6999 191.858 36.6316 191.858 36.4449C191.858 36.3749 191.846 36.3166 191.823 36.2699C191.799 36.2233 191.753 36.1766 191.683 36.1299C191.613 36.0833 191.554 36.0599 191.508 36.0599C191.461 36.0599 191.368 36.0483 191.228 36.0249C191.088 36.0016 190.994 35.9899 190.948 35.9899C190.901 35.9899 190.796 35.9783 190.633 35.9549C190.469 35.9316 190.353 35.9316 190.283 35.9549C190.049 35.9549 189.898 35.9549 189.828 35.9549C189.758 35.9549 189.664 35.9433 189.548 35.9199C189.431 35.8966 189.361 35.8616 189.338 35.8149C189.314 35.7683 189.303 35.6983 189.303 35.6049C189.303 35.5583 189.326 35.3949 189.373 35.1149C189.489 34.6716 189.618 34.4266 189.758 34.3799C189.898 34.3333 190.738 34.2633 192.278 34.1699C192.628 34.1466 193.024 34.1233 193.468 34.0999C193.911 34.0766 194.261 34.0416 194.518 33.9949C194.774 33.9483 194.903 33.9366 194.903 33.9599C195.183 33.9599 195.323 34.0533 195.323 34.2399C195.323 34.4966 194.471 37.9966 192.768 44.7399C191.064 51.4833 190.189 55.0183 190.143 55.3449C190.143 55.3916 190.143 55.4849 190.143 55.6249C190.143 55.7649 190.131 55.8816 190.108 55.9749V56.1849Z" fill="white"/>
</g>
<g id="Group_9">
<path id="Vector_8" d="M197.353 44.7749C197.19 44.6116 197.108 44.4949 197.108 44.4249C197.108 44.3316 197.143 44.1449 197.213 43.8649C197.283 43.5849 197.341 43.4216 197.388 43.3749C197.435 43.2583 197.54 43.1999 197.703 43.1999C197.866 43.1999 198.461 43.1883 199.488 43.1649H201.343L202.008 40.3649C202.078 40.1083 202.16 39.7699 202.253 39.3499C202.346 38.9299 202.428 38.6266 202.498 38.4399C202.568 38.2533 202.638 38.0199 202.708 37.7399C202.778 37.4599 202.871 37.2616 202.988 37.1449C203.105 37.0283 203.221 36.8883 203.338 36.7249C203.455 36.5616 203.618 36.4566 203.828 36.4099C204.038 36.3633 204.248 36.3399 204.458 36.3399C204.878 36.3633 205.17 36.4916 205.333 36.7249C205.496 36.9583 205.578 37.1799 205.578 37.3899C205.578 37.5533 205.473 38.1016 205.263 39.0349C205.053 39.9683 204.82 40.8899 204.563 41.7999L204.213 43.0949C204.213 43.1416 204.796 43.1649 205.963 43.1649H207.748C207.911 43.3283 207.993 43.4566 207.993 43.5499C207.993 44.0633 207.841 44.4716 207.538 44.7749H203.793L202.533 49.8499C201.623 53.5833 201.168 55.5899 201.168 55.8699C201.168 56.8499 201.483 57.3399 202.113 57.3399C202.93 57.3399 203.723 56.9433 204.493 56.1499C205.263 55.3566 205.881 54.3766 206.348 53.2099C206.395 53.0699 206.453 52.9883 206.523 52.9649C206.593 52.9416 206.768 52.9183 207.048 52.8949H207.188C207.538 52.8949 207.713 52.9883 207.713 53.1749C207.713 53.2449 207.678 53.3849 207.608 53.5949C207.491 53.9683 207.281 54.4116 206.978 54.9249C206.675 55.4383 206.278 55.9866 205.788 56.5699C205.298 57.1533 204.703 57.6433 204.003 58.0399C203.303 58.4366 202.591 58.6349 201.868 58.6349C201.168 58.6349 200.503 58.4599 199.873 58.1099C199.243 57.7599 198.788 57.1533 198.508 56.2899C198.461 56.1033 198.438 55.7883 198.438 55.3449V54.7149L199.663 49.8149C200.48 46.5249 200.9 44.8683 200.923 44.8449C200.923 44.7983 200.328 44.7749 199.138 44.7749H197.353Z" fill="white"/>
</g>
<g id="Group_10">
<path id="Vector_9" d="M215.518 37.2499C215.518 36.6899 215.74 36.1999 216.183 35.7799C216.626 35.3599 217.14 35.1383 217.723 35.1149C218.143 35.1149 218.493 35.2549 218.773 35.5349C219.053 35.8149 219.205 36.1649 219.228 36.5849C219.228 37.1216 218.995 37.6116 218.528 38.0549C218.061 38.4983 217.548 38.7316 216.988 38.7549C216.638 38.7549 216.311 38.6383 216.008 38.4049C215.705 38.1716 215.541 37.7866 215.518 37.2499ZM209.813 48.2049C209.813 48.0183 209.918 47.6566 210.128 47.1199C210.338 46.5833 210.618 45.9883 210.968 45.3349C211.318 44.6816 211.831 44.0866 212.508 43.5499C213.185 43.0133 213.885 42.7566 214.608 42.7799C215.518 42.7799 216.276 43.0483 216.883 43.5849C217.49 44.1216 217.805 44.8449 217.828 45.7549C217.828 46.1516 217.665 46.8049 217.338 47.7149C217.011 48.6249 216.545 49.8499 215.938 51.3899C215.331 52.9299 214.841 54.2483 214.468 55.3449C214.351 55.8583 214.293 56.2316 214.293 56.4649C214.293 57.0483 214.491 57.3399 214.888 57.3399C215.098 57.3399 215.32 57.3049 215.553 57.2349C215.786 57.1649 216.055 57.0016 216.358 56.7449C216.661 56.4883 216.976 56.0799 217.303 55.5199C217.63 54.9599 217.921 54.2716 218.178 53.4549C218.248 53.1749 218.306 53.0116 218.353 52.9649C218.4 52.9183 218.598 52.8949 218.948 52.8949C219.415 52.8949 219.648 53.0116 219.648 53.2449C219.648 53.4316 219.543 53.7933 219.333 54.3299C219.123 54.8666 218.831 55.4616 218.458 56.1149C218.085 56.7683 217.56 57.3516 216.883 57.8649C216.206 58.3783 215.483 58.6349 214.713 58.6349C213.966 58.6349 213.278 58.3899 212.648 57.8999C212.018 57.4099 211.691 56.6633 211.668 55.6599C211.668 55.2633 211.726 54.8899 211.843 54.5399C211.96 54.1899 212.461 52.8599 213.348 50.5499C214.235 48.1933 214.748 46.7816 214.888 46.3149C215.028 45.8483 215.11 45.3933 215.133 44.9499C215.133 44.3899 214.935 44.1099 214.538 44.1099H214.468C213.768 44.1099 213.126 44.4949 212.543 45.2649C211.96 46.0349 211.516 47.0149 211.213 48.2049C211.19 48.2283 211.166 48.2633 211.143 48.3099C211.12 48.3566 211.108 48.3916 211.108 48.4149C211.108 48.4383 211.085 48.4616 211.038 48.4849C210.991 48.5083 210.956 48.5199 210.933 48.5199C210.91 48.5199 210.863 48.5199 210.793 48.5199C210.723 48.5199 210.63 48.5199 210.513 48.5199H210.023C209.883 48.3799 209.813 48.2749 209.813 48.2049Z" fill="white"/>
</g>
<g id="Group_11">
<path id="Vector_10" d="M221.888 48.2049C221.911 48.0649 221.946 47.8783 221.993 47.6449C222.039 47.4116 222.179 46.9683 222.413 46.3149C222.646 45.6616 222.879 45.1133 223.113 44.6699C223.346 44.2266 223.719 43.7949 224.233 43.3749C224.746 42.9549 225.259 42.7566 225.773 42.7799C226.286 42.8033 226.788 42.8849 227.278 43.0249C227.768 43.1649 228.118 43.3749 228.328 43.6549C228.538 43.9349 228.724 44.1916 228.888 44.4249C229.051 44.6583 229.144 44.8799 229.168 45.0899L229.238 45.3349C229.238 45.3816 229.249 45.4049 229.273 45.4049L229.658 45.0199C231.058 43.5266 232.703 42.7799 234.593 42.7799C234.989 42.7799 235.351 42.8033 235.678 42.8499C236.004 42.8966 236.308 42.9783 236.588 43.0949C236.868 43.2116 237.089 43.3283 237.253 43.4449C237.416 43.5616 237.591 43.7016 237.778 43.8649C237.964 44.0283 238.081 44.1799 238.128 44.3199C238.174 44.4599 238.268 44.6116 238.408 44.7749C238.548 44.9383 238.594 45.0783 238.548 45.1949C238.501 45.3116 238.536 45.4166 238.653 45.5099C238.769 45.6033 238.793 45.6849 238.723 45.7549L239.003 45.4049C240.473 43.6549 242.211 42.7799 244.218 42.7799C245.478 42.7799 246.493 43.0949 247.263 43.7249C248.033 44.3549 248.429 45.2766 248.453 46.4899C248.453 47.6799 248.009 49.5233 247.123 52.0199C246.236 54.5166 245.793 56.0099 245.793 56.4999C245.816 56.8266 245.874 57.0483 245.968 57.1649C246.061 57.2816 246.236 57.3399 246.493 57.3399C247.146 57.3399 247.753 56.9899 248.313 56.2899C248.873 55.5899 249.328 54.6333 249.678 53.4199C249.748 53.1633 249.818 53.0116 249.888 52.9649C249.958 52.9183 250.144 52.8949 250.448 52.8949C250.914 52.8949 251.148 52.9883 251.148 53.1749C251.148 53.1983 251.101 53.3733 251.008 53.6999C250.821 54.3766 250.564 55.0416 250.238 55.6949C249.911 56.3483 249.374 57.0016 248.628 57.6549C247.881 58.3083 247.076 58.6233 246.213 58.5999C245.116 58.5999 244.323 58.2849 243.833 57.6549C243.343 57.0249 243.098 56.3716 243.098 55.6949C243.098 55.2516 243.518 53.8516 244.358 51.4949C245.198 49.1383 245.629 47.3649 245.653 46.1749C245.653 44.7983 245.139 44.1099 244.113 44.1099H243.938C241.931 44.1099 240.239 45.2883 238.863 47.6449L238.618 48.0649L237.463 52.7549C236.693 55.8116 236.249 57.4566 236.133 57.6899C235.829 58.3199 235.328 58.6349 234.628 58.6349C234.324 58.6349 234.079 58.5533 233.893 58.3899C233.706 58.2266 233.578 58.0866 233.508 57.9699C233.438 57.8533 233.403 57.7366 233.403 57.6199C233.403 57.3633 233.799 55.6949 234.593 52.6149L235.853 47.5049C235.923 47.1549 235.958 46.7116 235.958 46.1749C235.958 44.7983 235.444 44.1099 234.418 44.1099H234.243C232.236 44.1099 230.544 45.2883 229.168 47.6449L228.923 48.0649L227.768 52.7549C226.998 55.8116 226.554 57.4566 226.438 57.6899C226.134 58.3199 225.633 58.6349 224.933 58.6349C224.629 58.6349 224.384 58.5649 224.198 58.4249C224.011 58.2849 223.883 58.1449 223.813 58.0049C223.743 57.8649 223.719 57.7483 223.743 57.6549C223.743 57.3516 224.186 55.4383 225.073 51.9149C225.983 48.3216 226.438 46.4433 226.438 46.2799C226.508 45.9299 226.543 45.6149 226.543 45.3349C226.543 44.4949 226.251 44.0749 225.668 44.0749C225.154 44.0749 224.723 44.4016 224.373 45.0549C224.023 45.7083 223.754 46.4199 223.568 47.1899C223.381 47.9599 223.241 48.3799 223.148 48.4499C223.101 48.4966 222.914 48.5199 222.588 48.5199H222.098C221.958 48.3799 221.888 48.2749 221.888 48.2049Z" fill="white"/>
</g>
<g id="Group_12">
<path id="Vector_11" d="M258.918 58.6349C257.168 58.6349 255.756 58.0633 254.683 56.9199C253.609 55.7766 253.073 54.3999 253.073 52.7899C253.073 51.2733 253.423 49.8383 254.123 48.4849C254.823 47.1316 255.779 45.9533 256.993 44.9499C258.766 43.5266 260.574 42.8149 262.418 42.8149C263.164 42.8149 263.631 42.8266 263.818 42.8499C264.121 42.9199 264.424 43.0016 264.728 43.0949C265.031 43.1883 265.439 43.3749 265.953 43.6549C266.466 43.9349 266.886 44.2849 267.213 44.7049C267.539 45.1249 267.843 45.6966 268.123 46.4199C268.403 47.1433 268.543 47.9599 268.543 48.8699C268.543 51.3666 267.539 53.6183 265.533 55.6249C263.526 57.6316 261.321 58.6349 258.918 58.6349ZM256.118 54.0499C256.118 55.2166 256.421 56.0566 257.028 56.5699C257.634 57.0833 258.323 57.3399 259.093 57.3399C260.119 57.3399 261.088 56.9666 261.998 56.2199C262.908 55.4733 263.631 54.4933 264.168 53.2799C264.378 52.7899 264.646 51.9266 264.973 50.6899C265.299 49.4533 265.463 48.3799 265.463 47.4699C265.463 46.4433 265.253 45.6616 264.833 45.1249C264.273 44.4249 263.526 44.0749 262.593 44.0749C261.123 44.0749 259.828 44.7516 258.708 46.1049C257.844 47.1316 257.203 48.4966 256.783 50.1999C256.363 51.9033 256.141 53.1866 256.118 54.0499Z" fill="white"/>
</g>
<g id="Group 100">
<g id="Group_13">
<path id="Vector_12" d="M58.1372 42.9549C57.6938 42.9549 57.4722 42.8616 57.4722 42.6749C57.4722 42.5583 57.6588 41.9049 58.0322 40.7149C58.4055 39.5249 58.8022 38.3466 59.2222 37.1799L59.8172 35.4649C59.9338 35.0449 60.0855 34.7416 60.2722 34.5549H76.6522H79.8022C80.5488 34.5549 80.9922 34.5666 81.1322 34.5899C81.2722 34.6133 81.3538 34.7183 81.3772 34.9049C81.3772 35.0449 81.1788 36.3749 80.7822 38.8949C80.3855 41.4149 80.1638 42.6866 80.1172 42.7099C80.1172 42.8733 79.8955 42.9549 79.4522 42.9549C79.2422 42.9549 79.1022 42.9549 79.0322 42.9549C78.9622 42.9549 78.8922 42.8966 78.8222 42.7799L78.7522 42.6749C78.7522 42.5349 78.8222 42.0099 78.9622 41.0999C79.1022 40.1899 79.1722 39.4783 79.1722 38.9649C79.1722 38.1483 79.0205 37.5299 78.7172 37.1099C78.4138 36.6899 77.7722 36.3983 76.7922 36.2349C76.6755 36.2116 75.9988 36.1883 74.7622 36.1649C73.6888 36.1649 73.0122 36.1766 72.7322 36.1999C72.4522 36.2233 72.2422 36.3166 72.1022 36.4799C72.0788 36.5033 71.2505 39.7583 69.6172 46.2449C67.9838 52.7316 67.1672 56.0333 67.1672 56.1499C67.1672 56.4299 68.1938 56.5933 70.2472 56.6399C70.9938 56.6399 71.4722 56.6516 71.6822 56.6749C71.8922 56.6983 71.9972 56.8033 71.9972 56.9899C71.9972 57.1066 71.9622 57.2699 71.8922 57.4799C71.7988 57.8999 71.6938 58.1449 71.5772 58.2149L71.5072 58.2499C71.4372 58.2499 71.3555 58.2499 71.2622 58.2499C71.1455 58.2499 70.5388 58.2383 69.4422 58.2149C68.3455 58.1916 66.7705 58.1799 64.7172 58.1799C61.7072 58.1799 59.7938 58.2033 58.9772 58.2499H58.4522C58.3122 58.1099 58.2422 58.0049 58.2422 57.9349C58.2422 57.8649 58.2655 57.6549 58.3122 57.3049C58.4055 57.0016 58.5222 56.7799 58.6622 56.6399H59.6422H60.0272C61.8938 56.6399 63.0022 56.5349 63.3522 56.3249C63.3755 56.3016 63.3988 56.2899 63.4222 56.2899C63.5388 56.2199 63.6555 55.9866 63.7722 55.5899C63.8888 55.1933 64.3555 53.3616 65.1722 50.0949C65.5688 48.5083 65.8955 47.2133 66.1522 46.2099C67.7855 39.7933 68.6022 36.5149 68.6022 36.3749C68.6022 36.2583 68.2638 36.1999 67.5872 36.1999H66.5022C64.9388 36.1999 63.9122 36.2699 63.4222 36.4099C62.3722 36.6433 61.5555 37.1216 60.9722 37.8449C60.3888 38.5683 59.7588 39.9216 59.0822 41.9049C58.9188 42.4183 58.8022 42.7216 58.7322 42.8149C58.6622 42.9083 58.4988 42.9549 58.2422 42.9549H58.1372Z" fill="white"/>
</g>
<g id="Group_14">
<path id="Vector_13" d="M270.958 32.0349L271.098 31.9999C271.214 31.9999 271.331 31.9999 271.448 31.9999H271.868L272.848 32.8399C275.041 34.8233 276.639 37.2966 277.643 40.2599C278.646 43.2233 279.148 46.3033 279.148 49.4999C279.148 51.0866 279.031 52.6149 278.798 54.0849C278.564 55.5549 278.296 56.8033 277.993 57.8299C277.689 58.8566 277.258 59.8833 276.698 60.9099C276.138 61.9366 275.694 62.7183 275.368 63.2549C275.041 63.7916 274.563 64.3866 273.933 65.0399C273.303 65.6933 272.929 66.0783 272.813 66.1949C272.696 66.3116 272.428 66.5333 272.008 66.8599C271.938 66.9299 271.891 66.9766 271.868 66.9999H271.448C271.261 66.9999 271.133 66.9999 271.063 66.9999C270.993 66.9999 270.934 66.9649 270.888 66.8949C270.841 66.8249 270.806 66.7199 270.783 66.5799C270.806 66.5566 270.934 66.4049 271.168 66.1249C274.784 62.3683 276.593 56.8266 276.593 49.4999C276.593 42.1733 274.784 36.6316 271.168 32.8749C270.934 32.5949 270.806 32.4433 270.783 32.4199C270.783 32.2333 270.841 32.1049 270.958 32.0349Z" fill="white"/>
</g>
</g>
</g>
<g id="Group 91">
<g id="Group 94">
<g id="Group_15">
<path id="Vector_14" d="M0.595 139.64C0.198333 139.64 0 139.535 0 139.325C0 139.278 0.035 139.115 0.105 138.835C0.221667 138.392 0.338333 138.147 0.455 138.1C0.525 138.077 0.7 138.065 0.98 138.065H1.19C2.59 138.065 3.47667 137.983 3.85 137.82C3.87333 137.82 3.89667 137.808 3.92 137.785C4.03667 137.738 4.165 137.47 4.305 136.98C4.445 136.49 5.01667 134.203 6.02 130.12C6.3 129.07 6.51 128.242 6.65 127.635C8.28333 121.102 9.1 117.812 9.1 117.765C9.05333 117.672 9.03 117.613 9.03 117.59C8.79667 117.45 7.96833 117.38 6.545 117.38H5.845C5.635 117.24 5.58833 116.948 5.705 116.505C5.79833 116.155 5.86833 115.945 5.915 115.875C5.96167 115.805 6.125 115.77 6.405 115.77H6.545C8.225 115.817 9.92833 115.84 11.655 115.84C14.5017 115.84 15.995 115.817 16.135 115.77H16.485C16.6483 115.933 16.73 116.062 16.73 116.155C16.73 116.248 16.695 116.447 16.625 116.75C16.555 117.053 16.4733 117.24 16.38 117.31C16.31 117.357 16.0417 117.38 15.575 117.38C14.8517 117.38 14.105 117.415 13.335 117.485C13.0083 117.555 12.7867 117.683 12.67 117.87C12.5067 118.197 11.9117 120.425 10.885 124.555C10.6283 125.652 10.3717 126.713 10.115 127.74C8.48167 134.18 7.665 137.47 7.665 137.61C7.665 137.773 7.78167 137.878 8.015 137.925C8.24833 137.972 8.855 138.018 9.835 138.065H10.955C11.095 138.252 11.165 138.357 11.165 138.38C11.165 138.403 11.13 138.613 11.06 139.01C10.9667 139.313 10.85 139.535 10.71 139.675H10.15C9.28667 139.628 7.68833 139.605 5.355 139.605C4.515 139.605 3.745 139.605 3.045 139.605C2.345 139.605 1.785 139.605 1.365 139.605C0.945 139.605 0.688333 139.617 0.595 139.64Z" fill="white"/>
</g>
<g id="Group_16">
<path id="Vector_15" d="M18.2351 139.64C17.8385 139.64 17.6401 139.535 17.6401 139.325C17.6401 139.278 17.6751 139.115 17.7451 138.835C17.8618 138.392 17.9785 138.147 18.0951 138.1C18.1651 138.077 18.3401 138.065 18.6201 138.065H18.8301C20.2301 138.065 21.1168 137.983 21.4901 137.82C21.5135 137.82 21.5368 137.808 21.5601 137.785C21.6768 137.738 21.8051 137.47 21.9451 136.98C22.0851 136.49 22.6568 134.203 23.6601 130.12C23.9401 129.07 24.1501 128.242 24.2901 127.635C25.9235 121.102 26.7401 117.812 26.7401 117.765C26.6935 117.672 26.6701 117.613 26.6701 117.59C26.4368 117.45 25.6085 117.38 24.1851 117.38H23.4851C23.2751 117.24 23.2285 116.948 23.3451 116.505C23.4385 116.155 23.5085 115.945 23.5551 115.875C23.6018 115.805 23.7651 115.77 24.0451 115.77H24.1851C25.8651 115.817 27.5685 115.84 29.2951 115.84C32.1418 115.84 33.6351 115.817 33.7751 115.77H34.1251C34.2885 115.933 34.3701 116.062 34.3701 116.155C34.3701 116.248 34.3351 116.447 34.2651 116.75C34.1951 117.053 34.1135 117.24 34.0201 117.31C33.9501 117.357 33.6818 117.38 33.2151 117.38C32.4918 117.38 31.7451 117.415 30.9751 117.485C30.6485 117.555 30.4268 117.683 30.3101 117.87C30.1468 118.197 29.5518 120.425 28.5251 124.555C28.2685 125.652 28.0118 126.713 27.7551 127.74C26.1218 134.18 25.3051 137.47 25.3051 137.61C25.3051 137.773 25.4218 137.878 25.6551 137.925C25.8885 137.972 26.4951 138.018 27.4751 138.065H28.5951C28.7351 138.252 28.8051 138.357 28.8051 138.38C28.8051 138.403 28.7701 138.613 28.7001 139.01C28.6068 139.313 28.4901 139.535 28.3501 139.675H27.7901C26.9268 139.628 25.3285 139.605 22.9951 139.605C22.1551 139.605 21.3851 139.605 20.6851 139.605C19.9851 139.605 19.4251 139.605 19.0051 139.605C18.5851 139.605 18.3285 139.617 18.2351 139.64Z" fill="white"/>
</g>
<g id="Group_17">
<path id="Vector_16" d="M37.1001 137.575C37.1001 137.015 37.2984 136.525 37.6951 136.105C38.0918 135.685 38.5934 135.475 39.2001 135.475C39.7601 135.475 40.2501 135.662 40.6701 136.035C41.0901 136.408 41.3118 136.91 41.3351 137.54C41.3351 138.123 41.1368 138.625 40.7401 139.045C40.3434 139.465 39.8418 139.675 39.2351 139.675C38.6284 139.675 38.1268 139.477 37.7301 139.08C37.3334 138.683 37.1234 138.182 37.1001 137.575Z" fill="white"/>
</g>
</g>
<g id="Group 99">
<g id="Group_18">
<path id="Vector_17" d="M70.7773 124.38C70.334 124.38 70.1123 124.287 70.1123 124.1C70.1123 123.983 70.299 123.33 70.6723 122.14C71.0456 120.95 71.4423 119.772 71.8623 118.605L72.4573 116.89C72.574 116.47 72.7256 116.167 72.9123 115.98H89.2923H92.4423C93.189 115.98 93.6323 115.992 93.7723 116.015C93.9123 116.038 93.994 116.143 94.0173 116.33C94.0173 116.47 93.819 117.8 93.4223 120.32C93.0256 122.84 92.804 124.112 92.7573 124.135C92.7573 124.298 92.5356 124.38 92.0923 124.38C91.8823 124.38 91.7423 124.38 91.6723 124.38C91.6023 124.38 91.5323 124.322 91.4623 124.205L91.3923 124.1C91.3923 123.96 91.4623 123.435 91.6023 122.525C91.7423 121.615 91.8123 120.903 91.8123 120.39C91.8123 119.573 91.6606 118.955 91.3573 118.535C91.054 118.115 90.4123 117.823 89.4323 117.66C89.3156 117.637 88.639 117.613 87.4023 117.59C86.329 117.59 85.6523 117.602 85.3723 117.625C85.0923 117.648 84.8823 117.742 84.7423 117.905C84.719 117.928 83.8906 121.183 82.2573 127.67C80.624 134.157 79.8073 137.458 79.8073 137.575C79.8073 137.855 80.834 138.018 82.8873 138.065C83.634 138.065 84.1123 138.077 84.3223 138.1C84.5323 138.123 84.6373 138.228 84.6373 138.415C84.6373 138.532 84.6023 138.695 84.5323 138.905C84.439 139.325 84.334 139.57 84.2173 139.64L84.1473 139.675C84.0773 139.675 83.9956 139.675 83.9023 139.675C83.7856 139.675 83.179 139.663 82.0823 139.64C80.9856 139.617 79.4106 139.605 77.3573 139.605C74.3473 139.605 72.434 139.628 71.6173 139.675H71.0923C70.9523 139.535 70.8823 139.43 70.8823 139.36C70.8823 139.29 70.9056 139.08 70.9523 138.73C71.0456 138.427 71.1623 138.205 71.3023 138.065H72.2823H72.6673C74.534 138.065 75.6423 137.96 75.9923 137.75C76.0156 137.727 76.039 137.715 76.0623 137.715C76.179 137.645 76.2956 137.412 76.4123 137.015C76.529 136.618 76.9956 134.787 77.8123 131.52C78.209 129.933 78.5356 128.638 78.7923 127.635C80.4256 121.218 81.2423 117.94 81.2423 117.8C81.2423 117.683 80.904 117.625 80.2273 117.625H79.1423C77.579 117.625 76.5523 117.695 76.0623 117.835C75.0123 118.068 74.1956 118.547 73.6123 119.27C73.029 119.993 72.399 121.347 71.7223 123.33C71.559 123.843 71.4423 124.147 71.3723 124.24C71.3023 124.333 71.139 124.38 70.8823 124.38H70.7773Z" fill="white"/>
</g>
<g id="Group_19">
<path id="Vector_18" d="M73.96 188.835C75.3367 188.835 76.5967 188.228 77.74 187.015C78.8833 185.802 79.4667 184.39 79.49 182.78C79.49 181.31 78.8833 180.295 77.67 179.735C75.1967 179.105 73.61 178.673 72.91 178.44C72.21 178.207 71.72 177.973 71.44 177.74C70.04 176.76 69.34 175.348 69.34 173.505C69.34 172.082 69.7133 170.787 70.46 169.62C71.2067 168.453 71.965 167.578 72.735 166.995C73.4117 166.412 74.2283 165.945 75.185 165.595C76.1417 165.245 76.8883 165.058 77.425 165.035H77.81H78.055C80.295 165.035 81.9167 165.782 82.92 167.275C82.9433 167.275 83.095 167.123 83.375 166.82C83.655 166.517 83.9583 166.178 84.285 165.805C84.6117 165.432 84.845 165.175 84.985 165.035C85.0083 165.035 85.055 165.035 85.125 165.035C85.195 165.035 85.2533 165.023 85.3 165C85.6033 165 85.755 165.082 85.755 165.245C85.755 165.408 85.4283 166.82 84.775 169.48C84.1217 172.14 83.7483 173.517 83.655 173.61C83.5617 173.703 83.375 173.738 83.095 173.715C82.6283 173.715 82.395 173.61 82.395 173.4C82.395 173.26 82.4067 173.143 82.43 173.05C82.43 172.98 82.4417 172.758 82.465 172.385C82.4883 172.012 82.5117 171.708 82.535 171.475C82.535 170.682 82.43 169.993 82.22 169.41C82.01 168.827 81.8 168.395 81.59 168.115C81.38 167.835 81.0883 167.543 80.715 167.24C79.875 166.75 78.9183 166.505 77.845 166.505C76.515 166.505 75.2783 167.042 74.135 168.115C72.9917 169.188 72.4083 170.425 72.385 171.825C72.385 172.525 72.56 173.132 72.91 173.645C73.26 174.158 73.7383 174.52 74.345 174.73C74.4383 174.777 75.255 174.998 76.795 175.395C78.335 175.792 79.1167 176.002 79.14 176.025C79.9333 176.282 80.7033 176.842 81.45 177.705C82.1967 178.568 82.57 179.735 82.57 181.205C82.57 181.812 82.4767 182.465 82.29 183.165C82.1733 183.678 81.9633 184.25 81.66 184.88C81.3567 185.51 80.9367 186.198 80.4 186.945C79.8633 187.692 79.0933 188.392 78.09 189.045C77.0867 189.698 75.99 190.142 74.8 190.375C74.52 190.422 74.1233 190.445 73.61 190.445C71.3 190.445 69.5033 189.803 68.22 188.52L67.87 188.135L66.89 189.22C66.3533 189.85 66.0267 190.212 65.91 190.305C65.7933 190.398 65.6417 190.445 65.455 190.445C65.1517 190.445 65 190.352 65 190.165C65 190.095 65.6767 187.353 67.03 181.94C67.0767 181.8 67.31 181.73 67.73 181.73H68.185C68.325 181.87 68.395 181.998 68.395 182.115C68.395 182.162 68.3833 182.267 68.36 182.43C68.3367 182.593 68.29 182.838 68.22 183.165C68.15 183.492 68.1267 183.877 68.15 184.32C68.1967 185.23 68.4067 186 68.78 186.63C69.1533 187.26 69.655 187.727 70.285 188.03C70.915 188.333 71.5217 188.543 72.105 188.66C72.6883 188.777 73.3067 188.835 73.96 188.835Z" fill="white"/>
</g>
<g id="Group 93">
<g id="Group_20">
<path id="Vector_19" d="M65.89 218.925C65.89 218.762 65.225 218.657 63.895 218.61C63.3583 218.61 63.0083 218.598 62.845 218.575C62.6817 218.552 62.6 218.447 62.6 218.26C62.6 218.073 62.6467 217.84 62.74 217.56C62.8333 217.28 62.915 217.105 62.985 217.035C63.0317 217.012 65.3533 217 69.95 217C73.8467 217.023 76.0283 217.035 76.495 217.035C76.9617 217.035 77.4283 217.105 77.895 217.245C79.575 217.642 80.9983 218.563 82.165 220.01C83.3317 221.457 83.9267 223.393 83.95 225.82C83.95 229.46 82.7017 232.727 80.205 235.62C77.7083 238.513 74.7683 240.24 71.385 240.8L70.895 240.87L64.105 240.905H60.22H58.365C57.805 240.905 57.4433 240.882 57.28 240.835C57.1167 240.788 57.0233 240.683 57 240.52C57 240.473 57.035 240.31 57.105 240.03C57.1983 239.657 57.2917 239.447 57.385 239.4C57.4783 239.353 57.7467 239.318 58.19 239.295C58.82 239.295 59.52 239.26 60.29 239.19C60.6167 239.12 60.8383 238.98 60.955 238.77C61.025 238.677 61.865 235.433 63.475 229.04C65.085 222.647 65.89 219.275 65.89 218.925ZM80.45 224.49C80.45 223.603 80.3217 222.81 80.065 222.11C79.8083 221.41 79.505 220.862 79.155 220.465C78.805 220.068 78.3733 219.73 77.86 219.45C77.3467 219.17 76.8917 218.983 76.495 218.89C76.0983 218.797 75.69 218.715 75.27 218.645C75.2233 218.645 75.06 218.645 74.78 218.645C74.5 218.645 74.1617 218.645 73.765 218.645C73.3683 218.645 72.9833 218.633 72.61 218.61H71.105C70.0783 218.61 69.495 218.727 69.355 218.96C69.3083 219.053 68.4567 222.413 66.8 229.04C65.1433 235.667 64.315 239.015 64.315 239.085C64.315 239.178 64.4433 239.225 64.7 239.225C64.9567 239.225 65.855 239.237 67.395 239.26C67.5117 239.26 67.7333 239.26 68.06 239.26C68.3867 239.26 68.6667 239.272 68.9 239.295C71.84 239.295 74.2667 238.338 76.18 236.425C77.02 235.585 77.7083 234.605 78.245 233.485C78.7817 232.365 79.2833 230.883 79.75 229.04C80.2167 227.197 80.45 225.68 80.45 224.49Z" fill="white"/>
</g>
<g id="Group_21">
<path id="Vector_20" d="M85.5591 230.86C85.5591 230.533 85.7341 229.973 86.0841 229.18C86.4341 228.387 86.9941 227.558 87.7641 226.695C88.5341 225.832 89.3974 225.412 90.3541 225.435C91.3107 225.435 92.0807 225.703 92.6641 226.24C93.2474 226.777 93.5507 227.523 93.5741 228.48C93.5274 228.923 93.4924 229.168 93.4691 229.215C93.4691 229.285 93.2824 229.822 92.9091 230.825C92.5357 231.828 92.1507 232.96 91.7541 234.22C91.3574 235.48 91.1707 236.483 91.1941 237.23C91.1941 238.233 91.3574 238.933 91.6841 239.33C92.0107 239.727 92.5007 239.937 93.1541 239.96C93.6907 239.96 94.1924 239.832 94.6591 239.575C95.1257 239.318 95.4874 239.05 95.7441 238.77C96.0007 238.49 96.3157 238.105 96.6891 237.615C96.6891 237.592 96.7474 237.358 96.8641 236.915C96.9807 236.472 97.1441 235.783 97.3541 234.85C97.5641 233.917 97.7857 233.053 98.0191 232.26C98.9057 228.76 99.3957 226.928 99.4891 226.765C99.7924 226.135 100.294 225.82 100.994 225.82C101.297 225.82 101.542 225.902 101.729 226.065C101.916 226.228 102.044 226.368 102.114 226.485C102.184 226.602 102.207 226.707 102.184 226.8C102.184 227.103 101.612 229.553 100.469 234.15C99.3257 238.747 98.6724 241.267 98.5091 241.71C97.8557 243.647 96.7241 245.187 95.1141 246.33C93.5041 247.473 91.8941 248.057 90.2841 248.08C89.2341 248.08 88.3124 247.823 87.5191 247.31C86.7257 246.797 86.3291 246.027 86.3291 245C86.3291 244.487 86.4107 244.055 86.5741 243.705C86.7374 243.355 86.9591 243.098 87.2391 242.935C87.5191 242.772 87.7524 242.655 87.9391 242.585C88.1257 242.515 88.3241 242.48 88.5341 242.48C89.5607 242.48 90.0741 242.97 90.0741 243.95C90.0741 244.417 89.9341 244.825 89.6541 245.175C89.3741 245.525 89.1057 245.758 88.8491 245.875C88.5924 245.992 88.4407 246.05 88.3941 246.05L88.2891 246.085C88.3357 246.202 88.5574 246.342 88.9541 246.505C89.3507 246.668 89.7474 246.75 90.1441 246.75H90.4241C90.8207 246.75 91.1241 246.727 91.3341 246.68C92.1041 246.47 92.8157 246.027 93.4691 245.35C94.1224 244.673 94.6241 243.95 94.9741 243.18C95.3241 242.41 95.5924 241.757 95.7791 241.22C95.9657 240.683 96.0591 240.333 96.0591 240.17L95.8491 240.31C95.7091 240.403 95.4874 240.532 95.1841 240.695C94.8807 240.858 94.5774 240.998 94.2741 241.115C93.8074 241.232 93.3524 241.29 92.9091 241.29C91.8357 241.29 90.8907 241.033 90.0741 240.52C89.2574 240.007 88.7207 239.178 88.4641 238.035C88.4407 237.872 88.4291 237.51 88.4291 236.95C88.4291 235.62 88.8374 233.882 89.6541 231.735C90.4707 229.588 90.8791 228.223 90.8791 227.64C90.8791 227.617 90.8791 227.593 90.8791 227.57C90.8791 227.36 90.8791 227.22 90.8791 227.15C90.8791 227.08 90.8324 226.998 90.7391 226.905C90.6457 226.812 90.5174 226.765 90.3541 226.765H90.2141C89.6774 226.765 89.1874 226.987 88.7441 227.43C88.3007 227.873 87.9507 228.352 87.6941 228.865C87.4374 229.378 87.2391 229.868 87.0991 230.335C86.9591 230.802 86.8657 231.058 86.8191 231.105C86.7724 231.152 86.5857 231.175 86.2591 231.175H85.7691C85.6291 231.035 85.5591 230.93 85.5591 230.86Z" fill="white"/>
</g>
<g id="Group_22">
<path id="Vector_21" d="M103.655 240.87C103.258 240.87 103.06 240.753 103.06 240.52C103.06 240.473 103.095 240.31 103.165 240.03C103.258 239.657 103.351 239.447 103.445 239.4C103.538 239.353 103.806 239.318 104.25 239.295C104.88 239.295 105.58 239.26 106.35 239.19C106.676 239.12 106.898 238.98 107.015 238.77C107.061 238.653 107.89 235.375 109.5 228.935C111.11 222.495 111.926 219.228 111.95 219.135C111.95 218.972 111.903 218.89 111.81 218.89C111.623 218.82 111.005 218.762 109.955 218.715H108.87C108.73 218.575 108.66 218.482 108.66 218.435C108.66 218.388 108.683 218.19 108.73 217.84C108.823 217.443 108.94 217.198 109.08 217.105H127.945C128.108 217.198 128.19 217.327 128.19 217.49C128.19 217.607 128.038 218.913 127.735 221.41C127.431 223.907 127.268 225.19 127.245 225.26C127.198 225.423 126.965 225.505 126.545 225.505H126.125C125.961 225.388 125.88 225.237 125.88 225.05C125.88 225.027 125.915 224.747 125.985 224.21C126.055 223.673 126.09 223.055 126.09 222.355C126.09 221.655 126.008 221.083 125.845 220.64C125.681 220.197 125.46 219.835 125.18 219.555C124.9 219.275 124.468 219.088 123.885 218.995C123.301 218.902 122.706 218.82 122.1 218.75C121.493 218.68 120.653 218.668 119.58 218.715H118.775C116.861 218.738 115.846 218.773 115.73 218.82C115.613 218.867 115.531 218.96 115.485 219.1C115.461 219.123 115.065 220.652 114.295 223.685L113.175 228.2H115.1C115.17 228.2 115.438 228.2 115.905 228.2C116.371 228.2 116.698 228.188 116.885 228.165C117.071 228.142 117.328 228.107 117.655 228.06C117.981 228.013 118.261 227.932 118.495 227.815C118.728 227.698 118.926 227.558 119.09 227.395C119.393 227.115 119.65 226.73 119.86 226.24C120.07 225.75 120.221 225.307 120.315 224.91C120.408 224.513 120.466 224.303 120.49 224.28C120.56 224.163 120.781 224.105 121.155 224.105H121.575C121.738 224.222 121.82 224.338 121.82 224.455C121.82 224.525 121.458 226.053 120.735 229.04C120.011 232.027 119.615 233.567 119.545 233.66C119.498 233.823 119.265 233.905 118.845 233.905H118.425C118.261 233.765 118.18 233.625 118.18 233.485C118.18 233.415 118.238 233.158 118.355 232.715C118.471 232.272 118.53 231.805 118.53 231.315C118.53 230.638 118.296 230.218 117.83 230.055C117.363 229.892 116.325 229.81 114.715 229.81H112.79L111.67 234.255C110.923 237.148 110.55 238.665 110.55 238.805C110.55 239.132 111.588 239.295 113.665 239.295H114.54C114.68 239.435 114.75 239.517 114.75 239.54C114.75 239.563 114.726 239.797 114.68 240.24C114.586 240.543 114.47 240.765 114.33 240.905H113.735C112.778 240.858 111.016 240.835 108.45 240.835C106.933 240.835 105.778 240.835 104.985 240.835C104.191 240.835 103.748 240.847 103.655 240.87Z" fill="white"/>
</g>
</g>
</g>
</g>
<g id="Group 90">
<g id="Group 95">
<g id="Group_23">
<path id="Vector_22" d="M439.595 58.64C439.198 58.64 439 58.535 439 58.325C439 58.2784 439.035 58.115 439.105 57.835C439.222 57.3917 439.338 57.1467 439.455 57.1C439.525 57.0767 439.7 57.065 439.98 57.065H440.19C441.59 57.065 442.477 56.9834 442.85 56.82C442.873 56.82 442.897 56.8084 442.92 56.785C443.037 56.7384 443.165 56.47 443.305 55.98C443.445 55.49 444.017 53.2034 445.02 49.12C445.3 48.07 445.51 47.2417 445.65 46.635C447.283 40.1017 448.1 36.8117 448.1 36.765C448.053 36.6717 448.03 36.6134 448.03 36.59C447.797 36.45 446.968 36.38 445.545 36.38H444.845C444.635 36.24 444.588 35.9484 444.705 35.505C444.798 35.155 444.868 34.945 444.915 34.875C444.962 34.805 445.125 34.77 445.405 34.77H445.545C447.225 34.8167 448.928 34.84 450.655 34.84C453.502 34.84 454.995 34.8167 455.135 34.77H455.485C455.648 34.9334 455.73 35.0617 455.73 35.155C455.73 35.2484 455.695 35.4467 455.625 35.75C455.555 36.0534 455.473 36.24 455.38 36.31C455.31 36.3567 455.042 36.38 454.575 36.38C453.852 36.38 453.105 36.415 452.335 36.485C452.008 36.555 451.787 36.6834 451.67 36.87C451.507 37.1967 450.912 39.425 449.885 43.555C449.628 44.6517 449.372 45.7134 449.115 46.74C447.482 53.18 446.665 56.47 446.665 56.61C446.665 56.7734 446.782 56.8784 447.015 56.925C447.248 56.9717 447.855 57.0184 448.835 57.065H449.955C450.095 57.2517 450.165 57.3567 450.165 57.38C450.165 57.4034 450.13 57.6134 450.06 58.01C449.967 58.3134 449.85 58.535 449.71 58.675H449.15C448.287 58.6284 446.688 58.605 444.355 58.605C443.515 58.605 442.745 58.605 442.045 58.605C441.345 58.605 440.785 58.605 440.365 58.605C439.945 58.605 439.688 58.6167 439.595 58.64Z" fill="white"/>
</g>
<g id="Group_24">
<path id="Vector_23" d="M457.236 58.64C456.839 58.64 456.641 58.535 456.641 58.325C456.641 58.2784 456.676 58.115 456.746 57.835C456.862 57.3917 456.979 57.1467 457.096 57.1C457.166 57.0767 457.341 57.065 457.621 57.065H457.831C459.231 57.065 460.117 56.9834 460.491 56.82C460.514 56.82 460.537 56.8084 460.561 56.785C460.677 56.7384 460.806 56.47 460.946 55.98C461.086 55.49 461.657 53.2034 462.661 49.12C462.941 48.07 463.151 47.2417 463.291 46.635C464.924 40.1017 465.741 36.8117 465.741 36.765C465.694 36.6717 465.671 36.6134 465.671 36.59C465.437 36.45 464.609 36.38 463.186 36.38H462.486C462.276 36.24 462.229 35.9484 462.346 35.505C462.439 35.155 462.509 34.945 462.556 34.875C462.602 34.805 462.766 34.77 463.046 34.77H463.186C464.866 34.8167 466.569 34.84 468.296 34.84C471.142 34.84 472.636 34.8167 472.776 34.77H473.126C473.289 34.9334 473.371 35.0617 473.371 35.155C473.371 35.2484 473.336 35.4467 473.266 35.75C473.196 36.0534 473.114 36.24 473.021 36.31C472.951 36.3567 472.682 36.38 472.216 36.38C471.492 36.38 470.746 36.415 469.976 36.485C469.649 36.555 469.427 36.6834 469.311 36.87C469.147 37.1967 468.552 39.425 467.526 43.555C467.269 44.6517 467.012 45.7134 466.756 46.74C465.122 53.18 464.306 56.47 464.306 56.61C464.306 56.7734 464.422 56.8784 464.656 56.925C464.889 56.9717 465.496 57.0184 466.476 57.065H467.596C467.736 57.2517 467.806 57.3567 467.806 57.38C467.806 57.4034 467.771 57.6134 467.701 58.01C467.607 58.3134 467.491 58.535 467.351 58.675H466.791C465.927 58.6284 464.329 58.605 461.996 58.605C461.156 58.605 460.386 58.605 459.686 58.605C458.986 58.605 458.426 58.605 458.006 58.605C457.586 58.605 457.329 58.6167 457.236 58.64Z" fill="white"/>
</g>
<g id="Group_25">
<path id="Vector_24" d="M474.875 58.64C474.478 58.64 474.28 58.535 474.28 58.325C474.28 58.2784 474.315 58.115 474.385 57.835C474.501 57.3917 474.618 57.1467 474.735 57.1C474.805 57.0767 474.98 57.065 475.26 57.065H475.47C476.87 57.065 477.756 56.9834 478.13 56.82C478.153 56.82 478.176 56.8084 478.2 56.785C478.316 56.7384 478.445 56.47 478.585 55.98C478.725 55.49 479.296 53.2034 480.3 49.12C480.58 48.07 480.79 47.2417 480.93 46.635C482.563 40.1017 483.38 36.8117 483.38 36.765C483.333 36.6717 483.31 36.6134 483.31 36.59C483.076 36.45 482.248 36.38 480.825 36.38H480.125C479.915 36.24 479.868 35.9484 479.985 35.505C480.078 35.155 480.148 34.945 480.195 34.875C480.241 34.805 480.405 34.77 480.685 34.77H480.825C482.505 34.8167 484.208 34.84 485.935 34.84C488.781 34.84 490.275 34.8167 490.415 34.77H490.765C490.928 34.9334 491.01 35.0617 491.01 35.155C491.01 35.2484 490.975 35.4467 490.905 35.75C490.835 36.0534 490.753 36.24 490.66 36.31C490.59 36.3567 490.321 36.38 489.855 36.38C489.131 36.38 488.385 36.415 487.615 36.485C487.288 36.555 487.066 36.6834 486.95 36.87C486.786 37.1967 486.191 39.425 485.165 43.555C484.908 44.6517 484.651 45.7134 484.395 46.74C482.761 53.18 481.945 56.47 481.945 56.61C481.945 56.7734 482.061 56.8784 482.295 56.925C482.528 56.9717 483.135 57.0184 484.115 57.065H485.235C485.375 57.2517 485.445 57.3567 485.445 57.38C485.445 57.4034 485.41 57.6134 485.34 58.01C485.246 58.3134 485.13 58.535 484.99 58.675H484.43C483.566 58.6284 481.968 58.605 479.635 58.605C478.795 58.605 478.025 58.605 477.325 58.605C476.625 58.605 476.065 58.605 475.645 58.605C475.225 58.605 474.968 58.6167 474.875 58.64Z" fill="white"/>
</g>
<g id="Group_26">
<path id="Vector_25" d="M493.74 56.575C493.74 56.015 493.938 55.525 494.335 55.105C494.731 54.685 495.233 54.475 495.84 54.475C496.4 54.475 496.89 54.6617 497.31 55.035C497.73 55.4084 497.951 55.91 497.975 56.54C497.975 57.1234 497.776 57.625 497.38 58.045C496.983 58.465 496.481 58.675 495.875 58.675C495.268 58.675 494.766 58.4767 494.37 58.08C493.973 57.6834 493.763 57.1817 493.74 56.575Z" fill="white"/>
</g>
</g>
<g id="Group 96">
<g id="Group_27">
<path id="Vector_26" d="M563.21 54.61C563.14 54.61 563.047 54.61 562.93 54.61C562.347 54.61 561.997 54.5983 561.88 54.575C561.764 54.5517 561.705 54.4233 561.705 54.19C561.705 53.56 561.834 53.175 562.09 53.035C562.137 53.0117 563.269 53 565.485 53C567.282 53 568.309 53 568.565 53C568.822 53 568.985 53.07 569.055 53.21C573.979 64.7833 576.487 70.7217 576.58 71.025L578.47 63.57C579.707 58.6467 580.325 56.0217 580.325 55.695C580.325 55.065 579.579 54.7033 578.085 54.61C577.525 54.61 577.245 54.4817 577.245 54.225C577.245 54.1783 577.269 54.0383 577.315 53.805C577.409 53.4317 577.479 53.21 577.525 53.14C577.572 53.07 577.689 53.0233 577.875 53C577.945 53 578.307 53.0117 578.96 53.035C579.614 53.0583 580.582 53.0817 581.865 53.105C583.032 53.105 583.919 53.0933 584.525 53.07C585.132 53.0467 585.482 53.035 585.575 53.035C585.925 53.035 586.1 53.1517 586.1 53.385C586.1 53.8983 586.007 54.2483 585.82 54.435C585.774 54.5517 585.517 54.61 585.05 54.61C583.394 54.7033 582.355 55.17 581.935 56.01L576.72 76.66C576.674 76.8233 576.429 76.905 575.985 76.905C575.659 76.905 575.46 76.8817 575.39 76.835C575.32 76.765 573.815 73.23 570.875 66.23L566.43 55.765L564.155 64.865C562.639 70.8383 561.88 73.93 561.88 74.14C561.997 74.91 562.837 75.295 564.4 75.295H564.75C564.89 75.4117 564.96 75.505 564.96 75.575C564.96 75.645 564.937 75.8667 564.89 76.24C564.797 76.5433 564.68 76.765 564.54 76.905H564.085C563.362 76.8583 562.102 76.835 560.305 76.835C559.652 76.835 559.057 76.835 558.52 76.835C557.984 76.835 557.552 76.835 557.225 76.835C556.899 76.835 556.7 76.8467 556.63 76.87C556.28 76.87 556.105 76.765 556.105 76.555C556.105 76.4617 556.14 76.275 556.21 75.995C556.28 75.715 556.339 75.5517 556.385 75.505C556.432 75.365 556.7 75.295 557.19 75.295C558.777 75.225 559.804 74.77 560.27 73.93C560.364 73.79 561.192 70.5583 562.755 64.235L565.135 54.715C565.089 54.6917 564.447 54.6567 563.21 54.61Z" fill="white"/>
</g>
<g id="Group_28">
<path id="Vector_27" d="M555.595 133.995C555.198 133.995 555 133.878 555 133.645C555 133.598 555.035 133.435 555.105 133.155C555.198 132.782 555.292 132.572 555.385 132.525C555.478 132.478 555.747 132.443 556.19 132.42C556.82 132.42 557.52 132.385 558.29 132.315C558.617 132.245 558.838 132.105 558.955 131.895C559.002 131.778 559.83 128.5 561.44 122.06C563.05 115.62 563.867 112.353 563.89 112.26C563.89 112.097 563.843 112.015 563.75 112.015C563.563 111.945 562.945 111.887 561.895 111.84H560.81C560.67 111.7 560.6 111.607 560.6 111.56C560.6 111.513 560.623 111.315 560.67 110.965C560.763 110.568 560.88 110.323 561.02 110.23H579.885C580.048 110.323 580.13 110.452 580.13 110.615C580.13 110.732 579.978 112.038 579.675 114.535C579.372 117.032 579.208 118.315 579.185 118.385C579.138 118.548 578.905 118.63 578.485 118.63H578.065C577.902 118.513 577.82 118.362 577.82 118.175C577.82 118.152 577.855 117.872 577.925 117.335C577.995 116.798 578.03 116.18 578.03 115.48C578.03 114.78 577.948 114.208 577.785 113.765C577.622 113.322 577.4 112.96 577.12 112.68C576.84 112.4 576.408 112.213 575.825 112.12C575.242 112.027 574.647 111.945 574.04 111.875C573.433 111.805 572.593 111.793 571.52 111.84H570.715C568.802 111.863 567.787 111.898 567.67 111.945C567.553 111.992 567.472 112.085 567.425 112.225C567.402 112.248 567.005 113.777 566.235 116.81L565.115 121.325H567.04C567.11 121.325 567.378 121.325 567.845 121.325C568.312 121.325 568.638 121.313 568.825 121.29C569.012 121.267 569.268 121.232 569.595 121.185C569.922 121.138 570.202 121.057 570.435 120.94C570.668 120.823 570.867 120.683 571.03 120.52C571.333 120.24 571.59 119.855 571.8 119.365C572.01 118.875 572.162 118.432 572.255 118.035C572.348 117.638 572.407 117.428 572.43 117.405C572.5 117.288 572.722 117.23 573.095 117.23H573.515C573.678 117.347 573.76 117.463 573.76 117.58C573.76 117.65 573.398 119.178 572.675 122.165C571.952 125.152 571.555 126.692 571.485 126.785C571.438 126.948 571.205 127.03 570.785 127.03H570.365C570.202 126.89 570.12 126.75 570.12 126.61C570.12 126.54 570.178 126.283 570.295 125.84C570.412 125.397 570.47 124.93 570.47 124.44C570.47 123.763 570.237 123.343 569.77 123.18C569.303 123.017 568.265 122.935 566.655 122.935H564.73L563.61 127.38C562.863 130.273 562.49 131.79 562.49 131.93C562.49 132.257 563.528 132.42 565.605 132.42H566.48C566.62 132.56 566.69 132.642 566.69 132.665C566.69 132.688 566.667 132.922 566.62 133.365C566.527 133.668 566.41 133.89 566.27 134.03H565.675C564.718 133.983 562.957 133.96 560.39 133.96C558.873 133.96 557.718 133.96 556.925 133.96C556.132 133.96 555.688 133.972 555.595 133.995Z" fill="white"/>
</g>
<g id="Group_29">
<path id="Vector_28" d="M574.538 23.835C575.915 23.835 577.175 23.2283 578.318 22.015C579.461 20.8017 580.045 19.39 580.068 17.78C580.068 16.31 579.461 15.295 578.248 14.735C575.775 14.105 574.188 13.6733 573.488 13.44C572.788 13.2067 572.298 12.9733 572.018 12.74C570.618 11.76 569.918 10.3483 569.918 8.50501C569.918 7.08167 570.291 5.78667 571.038 4.62001C571.785 3.45334 572.543 2.57834 573.313 1.99501C573.99 1.41167 574.806 0.945007 575.763 0.595007C576.72 0.245007 577.466 0.0583408 578.003 0.0350075H578.388H578.633C580.873 0.0350075 582.495 0.781674 583.498 2.27501C583.521 2.27501 583.673 2.12334 583.953 1.82001C584.233 1.51667 584.536 1.17834 584.863 0.805008C585.19 0.431675 585.423 0.175007 585.563 0.0350075C585.586 0.0350075 585.633 0.0350075 585.703 0.0350075C585.773 0.0350075 585.831 0.023341 585.878 7.62939e-06C586.181 7.62939e-06 586.333 0.0816732 586.333 0.245007C586.333 0.40834 586.006 1.82001 585.353 4.48001C584.7 7.14001 584.326 8.51667 584.233 8.61001C584.14 8.70334 583.953 8.73834 583.673 8.71501C583.206 8.71501 582.973 8.61001 582.973 8.40001C582.973 8.26001 582.985 8.14334 583.008 8.05001C583.008 7.98001 583.02 7.75834 583.043 7.38501C583.066 7.01167 583.09 6.70834 583.113 6.47501C583.113 5.68167 583.008 4.99334 582.798 4.41001C582.588 3.82667 582.378 3.39501 582.168 3.11501C581.958 2.83501 581.666 2.54334 581.293 2.24001C580.453 1.75001 579.496 1.50501 578.423 1.50501C577.093 1.50501 575.856 2.04167 574.713 3.11501C573.57 4.18834 572.986 5.42501 572.963 6.82501C572.963 7.52501 573.138 8.13167 573.488 8.64501C573.838 9.15834 574.316 9.52001 574.923 9.73001C575.016 9.77667 575.833 9.99834 577.373 10.395C578.913 10.7917 579.695 11.0017 579.718 11.025C580.511 11.2817 581.281 11.8417 582.028 12.705C582.775 13.5683 583.148 14.735 583.148 16.205C583.148 16.8117 583.055 17.465 582.868 18.165C582.751 18.6783 582.541 19.25 582.238 19.88C581.935 20.51 581.515 21.1983 580.978 21.945C580.441 22.6917 579.671 23.3917 578.668 24.045C577.665 24.6983 576.568 25.1417 575.378 25.375C575.098 25.4217 574.701 25.445 574.188 25.445C571.878 25.445 570.081 24.8033 568.798 23.52L568.448 23.135L567.468 24.22C566.931 24.85 566.605 25.2117 566.488 25.305C566.371 25.3983 566.22 25.445 566.033 25.445C565.73 25.445 565.578 25.3517 565.578 25.165C565.578 25.095 566.255 22.3533 567.608 16.94C567.655 16.8 567.888 16.73 568.308 16.73H568.763C568.903 16.87 568.973 16.9983 568.973 17.115C568.973 17.1617 568.961 17.2667 568.938 17.43C568.915 17.5933 568.868 17.8383 568.798 18.165C568.728 18.4917 568.705 18.8767 568.728 19.32C568.775 20.23 568.985 21 569.358 21.63C569.731 22.26 570.233 22.7267 570.863 23.03C571.493 23.3333 572.1 23.5433 572.683 23.66C573.266 23.7767 573.885 23.835 574.538 23.835Z" fill="white"/>
</g>
</g>
</g>
<g id="Group 89">
<g id="Group 98">
<g id="Group_30">
<path id="Vector_29" d="M475.595 223.87C475.198 223.87 475 223.765 475 223.555C475 223.508 475.035 223.345 475.105 223.065C475.222 222.622 475.338 222.377 475.455 222.33C475.525 222.307 475.7 222.295 475.98 222.295H476.19C477.59 222.295 478.477 222.213 478.85 222.05C478.873 222.05 478.897 222.038 478.92 222.015C479.037 221.968 479.165 221.7 479.305 221.21C479.445 220.72 480.017 218.433 481.02 214.35C481.3 213.3 481.51 212.472 481.65 211.865C483.283 205.332 484.1 202.042 484.1 201.995C484.053 201.902 484.03 201.843 484.03 201.82C483.797 201.68 482.968 201.61 481.545 201.61H480.845C480.635 201.47 480.588 201.178 480.705 200.735C480.798 200.385 480.868 200.175 480.915 200.105C480.962 200.035 481.125 200 481.405 200H481.545C483.225 200.047 484.928 200.07 486.655 200.07C489.502 200.07 490.995 200.047 491.135 200H491.485C491.648 200.163 491.73 200.292 491.73 200.385C491.73 200.478 491.695 200.677 491.625 200.98C491.555 201.283 491.473 201.47 491.38 201.54C491.31 201.587 491.042 201.61 490.575 201.61C489.852 201.61 489.105 201.645 488.335 201.715C488.008 201.785 487.787 201.913 487.67 202.1C487.507 202.427 486.912 204.655 485.885 208.785C485.628 209.882 485.372 210.943 485.115 211.97C483.482 218.41 482.665 221.7 482.665 221.84C482.665 222.003 482.782 222.108 483.015 222.155C483.248 222.202 483.855 222.248 484.835 222.295H485.955C486.095 222.482 486.165 222.587 486.165 222.61C486.165 222.633 486.13 222.843 486.06 223.24C485.967 223.543 485.85 223.765 485.71 223.905H485.15C484.287 223.858 482.688 223.835 480.355 223.835C479.515 223.835 478.745 223.835 478.045 223.835C477.345 223.835 476.785 223.835 476.365 223.835C475.945 223.835 475.688 223.847 475.595 223.87Z" fill="white"/>
</g>
<g id="Group_31">
<path id="Vector_30" d="M493.55 201.225C493.55 200.712 493.701 200.303 494.005 200H494.39C495.37 200.07 496.595 200.105 498.065 200.105C500.818 200.105 502.44 200.07 502.93 200H503.28C503.42 200.14 503.49 200.245 503.49 200.315C503.49 200.385 503.466 200.595 503.42 200.945C503.303 201.295 503.198 201.517 503.105 201.61H502.37C501.856 201.657 501.506 201.68 501.32 201.68C500.643 201.797 500.27 201.972 500.2 202.205C500.2 202.252 500.538 205.18 501.215 210.99C501.891 216.8 502.241 219.728 502.265 219.775L504.82 215.68C506.523 212.95 508.226 210.197 509.93 207.42C511.633 204.643 512.508 203.208 512.555 203.115C512.648 202.952 512.695 202.777 512.695 202.59C512.695 202.03 512.181 201.703 511.155 201.61C510.735 201.61 510.525 201.482 510.525 201.225C510.525 201.202 510.548 201.05 510.595 200.77C510.665 200.443 510.735 200.233 510.805 200.14C510.875 200.047 511.026 200 511.26 200C511.306 200 511.446 200 511.68 200C511.913 200 512.31 200.012 512.87 200.035C513.43 200.058 514.176 200.07 515.11 200.07C516.72 200.07 517.735 200.047 518.155 200H518.4C518.563 200.163 518.645 200.292 518.645 200.385C518.645 200.782 518.54 201.155 518.33 201.505C518.26 201.575 518.061 201.61 517.735 201.61C517.431 201.633 517.151 201.657 516.895 201.68C516.638 201.703 516.393 201.762 516.16 201.855C515.926 201.948 515.74 202.03 515.6 202.1C515.46 202.17 515.32 202.263 515.18 202.38C515.04 202.497 514.923 202.578 514.83 202.625C514.736 202.672 514.643 202.777 514.55 202.94C514.456 203.103 514.375 203.185 514.305 203.185L507.55 214.035C503.35 220.825 501.18 224.302 501.04 224.465C500.97 224.512 500.888 224.57 500.795 224.64L500.165 224.675H499.92C499.5 224.675 499.29 224.593 499.29 224.43C499.22 224.29 498.765 220.557 497.925 213.23C497.038 205.81 496.583 202.065 496.56 201.995C496.443 201.738 495.72 201.61 494.39 201.61H493.795C493.631 201.493 493.55 201.365 493.55 201.225Z" fill="white"/>
</g>
<g id="Group_32">
<path id="Vector_31" d="M521.375 221.805C521.375 221.245 521.574 220.755 521.97 220.335C522.367 219.915 522.869 219.705 523.475 219.705C524.035 219.705 524.525 219.892 524.945 220.265C525.365 220.638 525.587 221.14 525.61 221.77C525.61 222.353 525.412 222.855 525.015 223.275C524.619 223.695 524.117 223.905 523.51 223.905C522.904 223.905 522.402 223.707 522.005 223.31C521.609 222.913 521.399 222.412 521.375 221.805Z" fill="white"/>
</g>
</g>
<g id="Group 97">
<g id="Group_33">
<path id="Vector_32" d="M555.332 223.87C554.935 223.87 554.737 223.753 554.737 223.52C554.737 223.473 554.772 223.31 554.842 223.03C554.935 222.657 555.028 222.447 555.122 222.4C555.215 222.353 555.483 222.318 555.927 222.295C556.557 222.295 557.257 222.26 558.027 222.19C558.353 222.12 558.575 221.98 558.692 221.77C558.738 221.653 559.567 218.375 561.177 211.935C562.787 205.495 563.603 202.228 563.627 202.135C563.627 201.972 563.58 201.89 563.487 201.89C563.3 201.82 562.682 201.762 561.632 201.715H560.547C560.407 201.575 560.337 201.482 560.337 201.435C560.337 201.388 560.36 201.19 560.407 200.84C560.5 200.443 560.617 200.198 560.757 200.105H579.622C579.785 200.198 579.867 200.327 579.867 200.49C579.867 200.607 579.715 201.913 579.412 204.41C579.108 206.907 578.945 208.19 578.922 208.26C578.875 208.423 578.642 208.505 578.222 208.505H577.802C577.638 208.388 577.557 208.237 577.557 208.05C577.557 208.027 577.592 207.747 577.662 207.21C577.732 206.673 577.767 206.055 577.767 205.355C577.767 204.655 577.685 204.083 577.522 203.64C577.358 203.197 577.137 202.835 576.857 202.555C576.577 202.275 576.145 202.088 575.562 201.995C574.978 201.902 574.383 201.82 573.777 201.75C573.17 201.68 572.33 201.668 571.257 201.715H570.452C568.538 201.738 567.523 201.773 567.407 201.82C567.29 201.867 567.208 201.96 567.162 202.1C567.138 202.123 566.742 203.652 565.972 206.685L564.852 211.2H566.777C566.847 211.2 567.115 211.2 567.582 211.2C568.048 211.2 568.375 211.188 568.562 211.165C568.748 211.142 569.005 211.107 569.332 211.06C569.658 211.013 569.938 210.932 570.172 210.815C570.405 210.698 570.603 210.558 570.767 210.395C571.07 210.115 571.327 209.73 571.537 209.24C571.747 208.75 571.898 208.307 571.992 207.91C572.085 207.513 572.143 207.303 572.167 207.28C572.237 207.163 572.458 207.105 572.832 207.105H573.252C573.415 207.222 573.497 207.338 573.497 207.455C573.497 207.525 573.135 209.053 572.412 212.04C571.688 215.027 571.292 216.567 571.222 216.66C571.175 216.823 570.942 216.905 570.522 216.905H570.102C569.938 216.765 569.857 216.625 569.857 216.485C569.857 216.415 569.915 216.158 570.032 215.715C570.148 215.272 570.207 214.805 570.207 214.315C570.207 213.638 569.973 213.218 569.507 213.055C569.04 212.892 568.002 212.81 566.392 212.81H564.467L563.347 217.255C562.6 220.148 562.227 221.665 562.227 221.805C562.227 222.132 563.265 222.295 565.342 222.295H566.217C566.357 222.435 566.427 222.517 566.427 222.54C566.427 222.563 566.403 222.797 566.357 223.24C566.263 223.543 566.147 223.765 566.007 223.905H565.412C564.455 223.858 562.693 223.835 560.127 223.835C558.61 223.835 557.455 223.835 556.662 223.835C555.868 223.835 555.425 223.847 555.332 223.87Z" fill="white"/>
</g>
<g id="Group_34">
<path id="Vector_33" d="M552.89 249.925C552.89 249.762 552.225 249.657 550.895 249.61C550.358 249.61 550.008 249.598 549.845 249.575C549.682 249.552 549.6 249.447 549.6 249.26C549.6 249.073 549.647 248.84 549.74 248.56C549.833 248.28 549.915 248.105 549.985 248.035C550.032 248.012 552.353 248 556.95 248C560.847 248.023 563.028 248.035 563.495 248.035C563.962 248.035 564.428 248.105 564.895 248.245C566.575 248.642 567.998 249.563 569.165 251.01C570.332 252.457 570.927 254.393 570.95 256.82C570.95 260.46 569.702 263.727 567.205 266.62C564.708 269.513 561.768 271.24 558.385 271.8L557.895 271.87L551.105 271.905H547.22H545.365C544.805 271.905 544.443 271.882 544.28 271.835C544.117 271.788 544.023 271.683 544 271.52C544 271.473 544.035 271.31 544.105 271.03C544.198 270.657 544.292 270.447 544.385 270.4C544.478 270.353 544.747 270.318 545.19 270.295C545.82 270.295 546.52 270.26 547.29 270.19C547.617 270.12 547.838 269.98 547.955 269.77C548.025 269.677 548.865 266.433 550.475 260.04C552.085 253.647 552.89 250.275 552.89 249.925ZM567.45 255.49C567.45 254.603 567.322 253.81 567.065 253.11C566.808 252.41 566.505 251.862 566.155 251.465C565.805 251.068 565.373 250.73 564.86 250.45C564.347 250.17 563.892 249.983 563.495 249.89C563.098 249.797 562.69 249.715 562.27 249.645C562.223 249.645 562.06 249.645 561.78 249.645C561.5 249.645 561.162 249.645 560.765 249.645C560.368 249.645 559.983 249.633 559.61 249.61H558.105C557.078 249.61 556.495 249.727 556.355 249.96C556.308 250.053 555.457 253.413 553.8 260.04C552.143 266.667 551.315 270.015 551.315 270.085C551.315 270.178 551.443 270.225 551.7 270.225C551.957 270.225 552.855 270.237 554.395 270.26C554.512 270.26 554.733 270.26 555.06 270.26C555.387 270.26 555.667 270.272 555.9 270.295C558.84 270.295 561.267 269.338 563.18 267.425C564.02 266.585 564.708 265.605 565.245 264.485C565.782 263.365 566.283 261.883 566.75 260.04C567.217 258.197 567.45 256.68 567.45 255.49Z" fill="white"/>
</g>
</g>
</g>
</g>
</g>
<g id="\therefore\;\;T\;S\;N\;F\;D">
<g id="Group_35">
<g id="Group_36">
<path id="Vector_34" d="M154.757 321.701C154.757 320.953 155.017 320.333 155.535 319.844C156.053 319.354 156.673 319.109 157.393 319.109C158.084 319.109 158.674 319.354 159.164 319.844C159.654 320.333 159.913 320.953 159.942 321.701C159.97 322.45 159.726 323.069 159.207 323.559C158.689 324.049 158.069 324.294 157.349 324.294C156.601 324.294 155.981 324.049 155.492 323.559C155.002 323.069 154.757 322.45 154.757 321.701ZM146.592 337.816C147.341 337.816 147.946 338.061 148.407 338.55C148.867 339.04 149.112 339.659 149.141 340.408C149.141 341.099 148.911 341.704 148.45 342.222C147.989 342.741 147.355 343 146.549 343C145.8 343 145.195 342.755 144.734 342.266C144.274 341.776 144.029 341.157 144 340.408C144 339.659 144.245 339.04 144.734 338.55C145.224 338.061 145.843 337.816 146.592 337.816ZM165.601 340.408C165.601 339.659 165.846 339.04 166.335 338.55C166.825 338.061 167.444 337.816 168.193 337.816C168.884 337.816 169.475 338.061 169.964 338.55C170.454 339.04 170.713 339.659 170.742 340.408C170.742 341.07 170.512 341.661 170.051 342.179C169.59 342.698 168.956 342.971 168.15 343C167.401 343 166.796 342.755 166.335 342.266C165.875 341.776 165.63 341.157 165.601 340.408Z" fill="white"/>
</g>
<g id="Group_37">
<path id="Vector_35" d="M209.507 320.578C208.96 320.578 208.687 320.463 208.687 320.233C208.687 320.089 208.917 319.282 209.378 317.813C209.839 316.344 210.328 314.89 210.847 313.45L211.581 311.333C211.725 310.814 211.912 310.44 212.143 310.21H232.361H236.249C237.171 310.21 237.718 310.224 237.891 310.253C238.064 310.282 238.165 310.411 238.194 310.642C238.194 310.814 237.949 312.456 237.459 315.567C236.969 318.677 236.696 320.247 236.638 320.276C236.638 320.477 236.365 320.578 235.817 320.578C235.558 320.578 235.385 320.578 235.299 320.578C235.213 320.578 235.126 320.506 235.04 320.362L234.953 320.233C234.953 320.06 235.04 319.412 235.213 318.288C235.385 317.165 235.472 316.287 235.472 315.653C235.472 314.645 235.285 313.882 234.91 313.363C234.536 312.845 233.744 312.485 232.534 312.283C232.39 312.255 231.555 312.226 230.028 312.197C228.703 312.197 227.868 312.211 227.523 312.24C227.177 312.269 226.918 312.384 226.745 312.586C226.716 312.615 225.694 316.632 223.678 324.639C221.662 332.646 220.653 336.721 220.653 336.865C220.653 337.211 221.921 337.413 224.455 337.47C225.377 337.47 225.967 337.485 226.227 337.513C226.486 337.542 226.615 337.672 226.615 337.902C226.615 338.046 226.572 338.248 226.486 338.507C226.371 339.025 226.241 339.328 226.097 339.414L226.011 339.457C225.924 339.457 225.823 339.457 225.708 339.457C225.564 339.457 224.815 339.443 223.462 339.414C222.108 339.385 220.164 339.371 217.629 339.371C213.914 339.371 211.552 339.4 210.544 339.457H209.896C209.723 339.285 209.637 339.155 209.637 339.069C209.637 338.982 209.666 338.723 209.723 338.291C209.839 337.917 209.983 337.643 210.155 337.47H211.365H211.84C214.144 337.47 215.512 337.341 215.944 337.081C215.973 337.053 216.002 337.038 216.031 337.038C216.175 336.952 216.319 336.664 216.463 336.174C216.607 335.684 217.183 333.424 218.191 329.391C218.681 327.433 219.084 325.834 219.401 324.596C221.417 316.676 222.425 312.629 222.425 312.456C222.425 312.312 222.007 312.24 221.172 312.24H219.833C217.903 312.24 216.636 312.327 216.031 312.499C214.735 312.787 213.727 313.378 213.007 314.271C212.287 315.163 211.509 316.834 210.674 319.282C210.472 319.916 210.328 320.29 210.242 320.405C210.155 320.521 209.954 320.578 209.637 320.578H209.507Z" fill="white"/>
</g>
<g id="Group_38">
<path id="Vector_36" d="M263.501 338.421C265.2 338.421 266.756 337.672 268.167 336.174C269.578 334.676 270.298 332.934 270.327 330.947C270.327 329.132 269.578 327.879 268.081 327.188C265.028 326.41 263.069 325.878 262.205 325.59C261.341 325.302 260.736 325.014 260.391 324.726C258.663 323.516 257.799 321.773 257.799 319.498C257.799 317.741 258.259 316.143 259.181 314.703C260.103 313.263 261.039 312.183 261.989 311.463C262.824 310.742 263.832 310.166 265.013 309.734C266.194 309.302 267.116 309.072 267.778 309.043H268.253H268.556C271.321 309.043 273.322 309.965 274.561 311.808C274.59 311.808 274.777 311.621 275.123 311.247C275.468 310.872 275.843 310.454 276.246 309.994C276.649 309.533 276.937 309.216 277.11 309.043C277.139 309.043 277.196 309.043 277.283 309.043C277.369 309.043 277.441 309.029 277.499 309C277.873 309 278.06 309.101 278.06 309.302C278.06 309.504 277.657 311.247 276.851 314.53C276.044 317.813 275.583 319.512 275.468 319.628C275.353 319.743 275.123 319.786 274.777 319.757C274.201 319.757 273.913 319.628 273.913 319.368C273.913 319.196 273.927 319.052 273.956 318.936C273.956 318.85 273.97 318.576 273.999 318.116C274.028 317.655 274.057 317.28 274.086 316.992C274.086 316.013 273.956 315.163 273.697 314.443C273.438 313.723 273.178 313.191 272.919 312.845C272.66 312.499 272.3 312.139 271.839 311.765C270.802 311.16 269.621 310.858 268.297 310.858C266.655 310.858 265.128 311.52 263.717 312.845C262.306 314.17 261.586 315.696 261.557 317.424C261.557 318.288 261.773 319.037 262.205 319.671C262.637 320.305 263.228 320.751 263.976 321.01C264.092 321.068 265.1 321.341 267.001 321.831C268.901 322.321 269.866 322.58 269.895 322.609C270.874 322.925 271.825 323.617 272.746 324.682C273.668 325.748 274.129 327.188 274.129 329.003C274.129 329.751 274.014 330.558 273.783 331.422C273.639 332.055 273.38 332.761 273.006 333.539C272.631 334.316 272.113 335.166 271.45 336.088C270.788 337.009 269.837 337.873 268.599 338.68C267.361 339.486 266.007 340.033 264.538 340.321C264.192 340.379 263.703 340.408 263.069 340.408C260.218 340.408 258 339.616 256.416 338.032L255.984 337.557L254.774 338.896C254.112 339.673 253.709 340.12 253.565 340.235C253.421 340.35 253.234 340.408 253.003 340.408C252.629 340.408 252.441 340.293 252.441 340.062C252.441 339.976 253.277 336.592 254.947 329.91C255.005 329.737 255.293 329.651 255.811 329.651H256.373C256.546 329.823 256.632 329.982 256.632 330.126C256.632 330.183 256.618 330.313 256.589 330.515C256.56 330.716 256.502 331.019 256.416 331.422C256.33 331.825 256.301 332.3 256.33 332.848C256.387 333.971 256.646 334.921 257.107 335.699C257.568 336.476 258.187 337.053 258.965 337.427C259.743 337.801 260.491 338.061 261.211 338.205C261.932 338.349 262.695 338.421 263.501 338.421Z" fill="white"/>
</g>
<g id="Group_39">
<path id="Vector_37" d="M300.171 311.938C300.085 311.938 299.97 311.938 299.826 311.938C299.105 311.938 298.673 311.923 298.529 311.895C298.385 311.866 298.313 311.707 298.313 311.419C298.313 310.642 298.472 310.166 298.789 309.994C298.846 309.965 300.243 309.95 302.979 309.95C305.197 309.95 306.464 309.95 306.781 309.95C307.098 309.95 307.299 310.037 307.386 310.21C313.463 324.495 316.559 331.825 316.674 332.199L319.007 322.997C320.534 316.92 321.297 313.68 321.297 313.277C321.297 312.499 320.375 312.053 318.532 311.938C317.841 311.938 317.495 311.779 317.495 311.463C317.495 311.405 317.524 311.232 317.582 310.944C317.697 310.483 317.783 310.21 317.841 310.123C317.898 310.037 318.042 309.979 318.273 309.95C318.359 309.95 318.806 309.965 319.612 309.994C320.418 310.022 321.614 310.051 323.198 310.08C324.638 310.08 325.732 310.066 326.481 310.037C327.23 310.008 327.662 309.994 327.777 309.994C328.209 309.994 328.425 310.138 328.425 310.426C328.425 311.059 328.31 311.491 328.08 311.722C328.022 311.866 327.705 311.938 327.129 311.938C325.084 312.053 323.803 312.629 323.284 313.666L316.847 339.155C316.79 339.357 316.487 339.457 315.94 339.457C315.537 339.457 315.292 339.429 315.205 339.371C315.119 339.285 313.261 334.921 309.632 326.281L304.146 313.363L301.338 324.596C299.466 331.969 298.529 335.785 298.529 336.044C298.673 336.995 299.71 337.47 301.64 337.47H302.072C302.245 337.614 302.331 337.729 302.331 337.816C302.331 337.902 302.302 338.176 302.245 338.637C302.13 339.011 301.986 339.285 301.813 339.457H301.251C300.358 339.4 298.803 339.371 296.585 339.371C295.779 339.371 295.044 339.371 294.382 339.371C293.72 339.371 293.187 339.371 292.784 339.371C292.38 339.371 292.136 339.385 292.049 339.414C291.617 339.414 291.401 339.285 291.401 339.025C291.401 338.91 291.444 338.68 291.531 338.334C291.617 337.989 291.689 337.787 291.747 337.729C291.804 337.557 292.136 337.47 292.74 337.47C294.699 337.384 295.966 336.822 296.542 335.785C296.657 335.612 297.68 331.623 299.61 323.818L302.547 312.067C302.49 312.039 301.698 311.995 300.171 311.938Z" fill="white"/>
</g>
<g id="Group_40">
<path id="Vector_38" d="M342.5 339.414C342.011 339.414 341.766 339.27 341.766 338.982C341.766 338.925 341.809 338.723 341.895 338.377C342.011 337.917 342.126 337.657 342.241 337.6C342.356 337.542 342.688 337.499 343.235 337.47C344.012 337.47 344.876 337.427 345.827 337.341C346.23 337.254 346.504 337.081 346.648 336.822C346.705 336.678 347.728 332.632 349.715 324.682C351.702 316.733 352.71 312.701 352.739 312.586C352.739 312.384 352.682 312.283 352.566 312.283C352.336 312.197 351.573 312.125 350.277 312.067H348.937C348.765 311.895 348.678 311.779 348.678 311.722C348.678 311.664 348.707 311.419 348.765 310.987C348.88 310.498 349.024 310.195 349.197 310.08H372.483C372.684 310.195 372.785 310.354 372.785 310.555C372.785 310.699 372.598 312.312 372.223 315.394C371.849 318.476 371.647 320.06 371.618 320.146C371.561 320.348 371.273 320.449 370.754 320.449H370.236C370.034 320.305 369.934 320.117 369.934 319.887C369.934 319.858 369.977 319.512 370.063 318.85C370.15 318.188 370.193 317.424 370.193 316.56C370.193 315.696 370.092 314.991 369.89 314.443C369.689 313.896 369.415 313.45 369.07 313.104C368.724 312.759 368.191 312.528 367.471 312.413C366.751 312.298 366.017 312.197 365.268 312.111C364.519 312.024 363.482 312.01 362.157 312.067H361.164C358.802 312.096 357.549 312.139 357.405 312.197C357.261 312.255 357.16 312.37 357.103 312.543C357.074 312.571 356.584 314.458 355.634 318.202L354.251 323.775H356.627C356.714 323.775 357.045 323.775 357.621 323.775C358.197 323.775 358.6 323.761 358.831 323.732C359.061 323.703 359.378 323.66 359.781 323.602C360.184 323.545 360.53 323.444 360.818 323.3C361.106 323.156 361.351 322.983 361.552 322.781C361.927 322.436 362.244 321.961 362.503 321.356C362.762 320.751 362.949 320.204 363.064 319.714C363.18 319.224 363.252 318.965 363.28 318.936C363.367 318.792 363.641 318.72 364.101 318.72H364.62C364.821 318.864 364.922 319.008 364.922 319.152C364.922 319.239 364.476 321.125 363.583 324.812C362.69 328.499 362.2 330.399 362.114 330.515C362.056 330.716 361.768 330.817 361.25 330.817H360.732C360.53 330.644 360.429 330.471 360.429 330.299C360.429 330.212 360.501 329.895 360.645 329.348C360.789 328.801 360.861 328.225 360.861 327.62C360.861 326.785 360.573 326.266 359.997 326.065C359.421 325.863 358.139 325.762 356.152 325.762H353.776L352.394 331.249C351.472 334.82 351.011 336.692 351.011 336.865C351.011 337.269 352.293 337.47 354.856 337.47H355.936C356.109 337.643 356.195 337.744 356.195 337.773C356.195 337.801 356.167 338.089 356.109 338.637C355.994 339.011 355.85 339.285 355.677 339.457H354.942C353.762 339.4 351.587 339.371 348.419 339.371C346.547 339.371 345.121 339.371 344.142 339.371C343.163 339.371 342.616 339.385 342.5 339.414Z" fill="white"/>
</g>
<g id="Group_41">
<path id="Vector_39" d="M397.181 312.327C397.181 312.125 396.361 311.995 394.719 311.938C394.057 311.938 393.624 311.923 393.423 311.895C393.221 311.866 393.12 311.736 393.12 311.506C393.12 311.275 393.178 310.987 393.293 310.642C393.408 310.296 393.509 310.08 393.596 309.994C393.653 309.965 396.519 309.95 402.193 309.95C407.003 309.979 409.696 309.994 410.272 309.994C410.848 309.994 411.424 310.08 412 310.253C414.073 310.742 415.83 311.88 417.27 313.666C418.71 315.451 419.445 317.842 419.474 320.837C419.474 325.33 417.933 329.363 414.851 332.934C411.769 336.505 408.14 338.637 403.964 339.328L403.359 339.414L394.978 339.457H390.183H387.893C387.202 339.457 386.755 339.429 386.554 339.371C386.352 339.313 386.237 339.184 386.208 338.982C386.208 338.925 386.251 338.723 386.338 338.377C386.453 337.917 386.568 337.657 386.683 337.6C386.799 337.542 387.13 337.499 387.677 337.47C388.455 337.47 389.319 337.427 390.269 337.341C390.672 337.254 390.946 337.081 391.09 336.822C391.176 336.707 392.213 332.704 394.201 324.812C396.188 316.92 397.181 312.759 397.181 312.327ZM415.153 319.196C415.153 318.101 414.995 317.122 414.678 316.258C414.361 315.394 413.987 314.717 413.555 314.227C413.123 313.738 412.59 313.32 411.957 312.975C411.323 312.629 410.761 312.399 410.272 312.283C409.782 312.168 409.278 312.067 408.76 311.981C408.702 311.981 408.5 311.981 408.155 311.981C407.809 311.981 407.392 311.981 406.902 311.981C406.412 311.981 405.937 311.967 405.476 311.938H403.619C402.351 311.938 401.631 312.082 401.458 312.37C401.401 312.485 400.35 316.632 398.305 324.812C396.26 332.992 395.237 337.125 395.237 337.211C395.237 337.326 395.396 337.384 395.713 337.384C396.029 337.384 397.138 337.398 399.039 337.427C399.183 337.427 399.457 337.427 399.86 337.427C400.263 337.427 400.609 337.441 400.897 337.47C404.526 337.47 407.521 336.289 409.883 333.928C410.92 332.891 411.769 331.681 412.432 330.299C413.094 328.916 413.713 327.087 414.289 324.812C414.865 322.537 415.153 320.665 415.153 319.196Z" fill="white"/>
</g>
</g>
</g>
</g>
</svg>
