<svg viewBox="0 0 716 457" fill="none" xmlns="http://www.w3.org/2000/svg">
<g id="0128208">
<g id="Group 139">
<g id="1&#194;&#176;">
<path d="M10.8145 27H7.54492V5.32617L0.988281 7.73438V4.78125L10.3047 1.2832H10.8145V27Z" fill="white"/>
<path d="M20.5 5.625C20.5 4.40625 20.9336 3.33984 21.8008 2.42578C22.6797 1.51172 23.7402 1.05469 24.9824 1.05469C26.2012 1.05469 27.2383 1.51172 28.0938 2.42578C28.9609 3.32812 29.3945 4.39453 29.3945 5.625C29.3945 6.86719 28.9609 7.92773 28.0938 8.80664C27.2383 9.68555 26.2012 10.125 24.9824 10.125C23.752 10.125 22.6973 9.68555 21.8184 8.80664C20.9395 7.92773 20.5 6.86719 20.5 5.625ZM24.9824 7.875C25.6152 7.875 26.1484 7.66992 26.582 7.25977C27.0156 6.83789 27.2324 6.29297 27.2324 5.625C27.2324 4.94531 27.0156 4.38867 26.582 3.95508C26.1484 3.50977 25.6152 3.28711 24.9824 3.28711C24.3379 3.28711 23.793 3.52148 23.3477 3.99023C22.9141 4.44727 22.6973 4.99219 22.6973 5.625C22.6973 6.25781 22.9141 6.79102 23.3477 7.22461C23.793 7.6582 24.3379 7.875 24.9824 7.875Z" fill="white"/>
</g>
<g id="2&#194;&#176;">
<path d="M18.8965 109H2.12695V106.662L10.9863 96.8184C12.2988 95.3301 13.2012 94.123 13.6934 93.1973C14.1973 92.2598 14.4492 91.293 14.4492 90.2969C14.4492 88.9609 14.0449 87.8652 13.2363 87.0098C12.4277 86.1543 11.3496 85.7266 10.002 85.7266C8.38477 85.7266 7.125 86.1895 6.22266 87.1152C5.33203 88.0293 4.88672 89.3066 4.88672 90.9473H1.63477C1.63477 88.5918 2.39062 86.6875 3.90234 85.2344C5.42578 83.7812 7.45898 83.0547 10.002 83.0547C12.3809 83.0547 14.2617 83.6816 15.6445 84.9355C17.0273 86.1777 17.7188 87.8359 17.7188 89.9102C17.7188 92.4297 16.1133 95.4297 12.9023 98.9102L6.04688 106.346H18.8965V109Z" fill="white"/>
<path d="M22.5 87.625C22.5 86.4062 22.9336 85.3398 23.8008 84.4258C24.6797 83.5117 25.7402 83.0547 26.9824 83.0547C28.2012 83.0547 29.2383 83.5117 30.0938 84.4258C30.9609 85.3281 31.3945 86.3945 31.3945 87.625C31.3945 88.8672 30.9609 89.9277 30.0938 90.8066C29.2383 91.6855 28.2012 92.125 26.9824 92.125C25.752 92.125 24.6973 91.6855 23.8184 90.8066C22.9395 89.9277 22.5 88.8672 22.5 87.625ZM26.9824 89.875C27.6152 89.875 28.1484 89.6699 28.582 89.2598C29.0156 88.8379 29.2324 88.293 29.2324 87.625C29.2324 86.9453 29.0156 86.3887 28.582 85.9551C28.1484 85.5098 27.6152 85.2871 26.9824 85.2871C26.3379 85.2871 25.793 85.5215 25.3477 85.9902C24.9141 86.4473 24.6973 86.9922 24.6973 87.625C24.6973 88.2578 24.9141 88.791 25.3477 89.2246C25.793 89.6582 26.3379 89.875 26.9824 89.875Z" fill="white"/>
</g>
<g id="3&#194;&#176;">
<path d="M8.85547 176.621H11.2988C12.834 176.598 14.041 176.193 14.9199 175.408C15.7988 174.623 16.2383 173.562 16.2383 172.227C16.2383 169.227 14.7441 167.727 11.7559 167.727C10.3496 167.727 9.22461 168.131 8.38086 168.939C7.54883 169.736 7.13281 170.797 7.13281 172.121H3.88086C3.88086 170.094 4.61914 168.412 6.0957 167.076C7.58398 165.729 9.4707 165.055 11.7559 165.055C14.1699 165.055 16.0625 165.693 17.4336 166.971C18.8047 168.248 19.4902 170.023 19.4902 172.297C19.4902 173.41 19.127 174.488 18.4004 175.531C17.6855 176.574 16.707 177.354 15.4648 177.869C16.8711 178.314 17.9551 179.053 18.7168 180.084C19.4902 181.115 19.877 182.375 19.877 183.863C19.877 186.16 19.127 187.982 17.627 189.33C16.127 190.678 14.1758 191.352 11.7734 191.352C9.37109 191.352 7.41406 190.701 5.90234 189.4C4.40234 188.1 3.65234 186.383 3.65234 184.25H6.92188C6.92188 185.598 7.36133 186.676 8.24023 187.484C9.11914 188.293 10.2969 188.697 11.7734 188.697C13.3438 188.697 14.5449 188.287 15.377 187.467C16.209 186.646 16.625 185.469 16.625 183.934C16.625 182.445 16.168 181.303 15.2539 180.506C14.3398 179.709 13.0215 179.299 11.2988 179.275H8.85547V176.621Z" fill="white"/>
<path d="M24.5 169.625C24.5 168.406 24.9336 167.34 25.8008 166.426C26.6797 165.512 27.7402 165.055 28.9824 165.055C30.2012 165.055 31.2383 165.512 32.0938 166.426C32.9609 167.328 33.3945 168.395 33.3945 169.625C33.3945 170.867 32.9609 171.928 32.0938 172.807C31.2383 173.686 30.2012 174.125 28.9824 174.125C27.752 174.125 26.6973 173.686 25.8184 172.807C24.9395 171.928 24.5 170.867 24.5 169.625ZM28.9824 171.875C29.6152 171.875 30.1484 171.67 30.582 171.26C31.0156 170.838 31.2324 170.293 31.2324 169.625C31.2324 168.945 31.0156 168.389 30.582 167.955C30.1484 167.51 29.6152 167.287 28.9824 167.287C28.3379 167.287 27.793 167.521 27.3477 167.99C26.9141 168.447 26.6973 168.992 26.6973 169.625C26.6973 170.258 26.9141 170.791 27.3477 171.225C27.793 171.658 28.3379 171.875 28.9824 171.875Z" fill="white"/>
</g>
<g id="4&#194;&#176;">
<path d="M17.8555 264.404H21.4062V267.059H17.8555V273H14.5859V267.059H2.93164V265.143L14.3926 247.406H17.8555V264.404ZM6.62305 264.404H14.5859V251.854L14.1992 252.557L6.62305 264.404Z" fill="white"/>
<path d="M24.5 251.625C24.5 250.406 24.9336 249.34 25.8008 248.426C26.6797 247.512 27.7402 247.055 28.9824 247.055C30.2012 247.055 31.2383 247.512 32.0938 248.426C32.9609 249.328 33.3945 250.395 33.3945 251.625C33.3945 252.867 32.9609 253.928 32.0938 254.807C31.2383 255.686 30.2012 256.125 28.9824 256.125C27.752 256.125 26.6973 255.686 25.8184 254.807C24.9395 253.928 24.5 252.867 24.5 251.625ZM28.9824 253.875C29.6152 253.875 30.1484 253.67 30.582 253.26C31.0156 252.838 31.2324 252.293 31.2324 251.625C31.2324 250.945 31.0156 250.389 30.582 249.955C30.1484 249.51 29.6152 249.287 28.9824 249.287C28.3379 249.287 27.793 249.521 27.3477 249.99C26.9141 250.447 26.6973 250.992 26.6973 251.625C26.6973 252.258 26.9141 252.791 27.3477 253.225C27.793 253.658 28.3379 253.875 28.9824 253.875Z" fill="white"/>
</g>
<g id="5&#194;&#176;">
<path d="M5.62109 342.168L6.92188 329.406H20.0352V332.412H9.68164L8.9082 339.391C10.1621 338.652 11.5859 338.283 13.1797 338.283C15.5117 338.283 17.3633 339.057 18.7344 340.604C20.1055 342.139 20.791 344.219 20.791 346.844C20.791 349.48 20.0762 351.561 18.6465 353.084C17.2285 354.596 15.2422 355.352 12.6875 355.352C10.4258 355.352 8.58008 354.725 7.15039 353.471C5.7207 352.217 4.90625 350.482 4.70703 348.268H7.7832C7.98242 349.732 8.50391 350.84 9.34766 351.59C10.1914 352.328 11.3047 352.697 12.6875 352.697C14.1992 352.697 15.3828 352.182 16.2383 351.15C17.1055 350.119 17.5391 348.695 17.5391 346.879C17.5391 345.168 17.0703 343.797 16.1328 342.766C15.207 341.723 13.9707 341.201 12.4238 341.201C11.0059 341.201 9.89258 341.512 9.08398 342.133L8.22266 342.836L5.62109 342.168Z" fill="white"/>
<path d="M24.5 333.625C24.5 332.406 24.9336 331.34 25.8008 330.426C26.6797 329.512 27.7402 329.055 28.9824 329.055C30.2012 329.055 31.2383 329.512 32.0938 330.426C32.9609 331.328 33.3945 332.395 33.3945 333.625C33.3945 334.867 32.9609 335.928 32.0938 336.807C31.2383 337.686 30.2012 338.125 28.9824 338.125C27.752 338.125 26.6973 337.686 25.8184 336.807C24.9395 335.928 24.5 334.867 24.5 333.625ZM28.9824 335.875C29.6152 335.875 30.1484 335.67 30.582 335.26C31.0156 334.838 31.2324 334.293 31.2324 333.625C31.2324 332.945 31.0156 332.389 30.582 331.955C30.1484 331.51 29.6152 331.287 28.9824 331.287C28.3379 331.287 27.793 331.521 27.3477 331.99C26.9141 332.447 26.6973 332.992 26.6973 333.625C26.6973 334.258 26.9141 334.791 27.3477 335.225C27.793 335.658 28.3379 335.875 28.9824 335.875Z" fill="white"/>
</g>
</g>
<g id="Group 138">
<g id="Sandro y Ernesto">
<path d="M92.5117 15.5918C89.6172 14.7598 87.5078 13.7402 86.1836 12.5332C84.8711 11.3145 84.2148 9.81445 84.2148 8.0332C84.2148 6.01758 85.0176 4.35352 86.623 3.04102C88.2402 1.7168 90.3379 1.05469 92.916 1.05469C94.6738 1.05469 96.2383 1.39453 97.6094 2.07422C98.9922 2.75391 100.059 3.69141 100.809 4.88672C101.57 6.08203 101.951 7.38867 101.951 8.80664H98.5586C98.5586 7.25977 98.0664 6.04688 97.082 5.16797C96.0977 4.27734 94.709 3.83203 92.916 3.83203C91.252 3.83203 89.9512 4.20117 89.0137 4.93945C88.0879 5.66602 87.625 6.67969 87.625 7.98047C87.625 9.02344 88.0645 9.9082 88.9434 10.6348C89.834 11.3496 91.3398 12.0059 93.4609 12.6035C95.5938 13.2012 97.2578 13.8633 98.4531 14.5898C99.6602 15.3047 100.551 16.1426 101.125 17.1035C101.711 18.0645 102.004 19.1953 102.004 20.4961C102.004 22.5703 101.195 24.2344 99.5781 25.4883C97.9609 26.7305 95.7988 27.3516 93.0918 27.3516C91.334 27.3516 89.6934 27.0176 88.1699 26.3496C86.6465 25.6699 85.4688 24.7441 84.6367 23.5723C83.8164 22.4004 83.4062 21.0703 83.4062 19.582H86.7988C86.7988 21.1289 87.3672 22.3535 88.5039 23.2559C89.6523 24.1465 91.1816 24.5918 93.0918 24.5918C94.873 24.5918 96.2383 24.2285 97.1875 23.502C98.1367 22.7754 98.6113 21.7852 98.6113 20.5312C98.6113 19.2773 98.1719 18.3105 97.293 17.6309C96.4141 16.9395 94.8203 16.2598 92.5117 15.5918Z" fill="white"/>
<path d="M117.578 27C117.391 26.625 117.238 25.957 117.121 24.9961C115.609 26.5664 113.805 27.3516 111.707 27.3516C109.832 27.3516 108.291 26.8242 107.084 25.7695C105.889 24.7031 105.291 23.3555 105.291 21.7266C105.291 19.7461 106.041 18.2109 107.541 17.1211C109.053 16.0195 111.174 15.4688 113.904 15.4688H117.068V13.9746C117.068 12.8379 116.729 11.9355 116.049 11.2676C115.369 10.5879 114.367 10.248 113.043 10.248C111.883 10.248 110.91 10.541 110.125 11.127C109.34 11.7129 108.947 12.4219 108.947 13.2539H105.678C105.678 12.3047 106.012 11.3906 106.68 10.5117C107.359 9.62109 108.273 8.91797 109.422 8.40234C110.582 7.88672 111.854 7.62891 113.236 7.62891C115.428 7.62891 117.145 8.17969 118.387 9.28125C119.629 10.3711 120.273 11.877 120.32 13.7988V22.5527C120.32 24.2988 120.543 25.6875 120.988 26.7188V27H117.578ZM112.182 24.5215C113.201 24.5215 114.168 24.2578 115.082 23.7305C115.996 23.2031 116.658 22.5176 117.068 21.6738V17.7715H114.52C110.535 17.7715 108.543 18.9375 108.543 21.2695C108.543 22.2891 108.883 23.0859 109.562 23.6602C110.242 24.2344 111.115 24.5215 112.182 24.5215Z" fill="white"/>
<path d="M128.494 7.98047L128.6 10.3711C130.053 8.54297 131.951 7.62891 134.295 7.62891C138.314 7.62891 140.342 9.89648 140.377 14.4316V27H137.125V14.4141C137.113 13.043 136.797 12.0293 136.176 11.373C135.566 10.7168 134.611 10.3887 133.311 10.3887C132.256 10.3887 131.33 10.6699 130.533 11.2324C129.736 11.7949 129.115 12.5332 128.67 13.4473V27H125.418V7.98047H128.494Z" fill="white"/>
<path d="M144.49 17.332C144.49 14.4141 145.182 12.0703 146.564 10.3008C147.947 8.51953 149.758 7.62891 151.996 7.62891C154.223 7.62891 155.986 8.39062 157.287 9.91406V0H160.539V27H157.551L157.393 24.9609C156.092 26.5547 154.281 27.3516 151.961 27.3516C149.758 27.3516 147.959 26.4492 146.564 24.6445C145.182 22.8398 144.49 20.4844 144.49 17.5781V17.332ZM147.742 17.7012C147.742 19.8574 148.188 21.5449 149.078 22.7637C149.969 23.9824 151.199 24.5918 152.77 24.5918C154.832 24.5918 156.338 23.666 157.287 21.8145V13.0781C156.314 11.2852 154.82 10.3887 152.805 10.3887C151.211 10.3887 149.969 11.0039 149.078 12.2344C148.188 13.4648 147.742 15.2871 147.742 17.7012Z" fill="white"/>
<path d="M174.795 10.8984C174.303 10.8164 173.77 10.7754 173.195 10.7754C171.062 10.7754 169.615 11.6836 168.854 13.5V27H165.602V7.98047H168.766L168.818 10.1777C169.885 8.47852 171.396 7.62891 173.354 7.62891C173.986 7.62891 174.467 7.71094 174.795 7.875V10.8984Z" fill="white"/>
<path d="M176.588 17.3145C176.588 15.4512 176.951 13.7754 177.678 12.2871C178.416 10.7988 179.436 9.65039 180.736 8.8418C182.049 8.0332 183.543 7.62891 185.219 7.62891C187.809 7.62891 189.9 8.52539 191.494 10.3184C193.1 12.1113 193.902 14.4961 193.902 17.4727V17.7012C193.902 19.5527 193.545 21.2168 192.83 22.6934C192.127 24.1582 191.113 25.3008 189.789 26.1211C188.477 26.9414 186.965 27.3516 185.254 27.3516C182.676 27.3516 180.584 26.4551 178.979 24.6621C177.385 22.8691 176.588 20.4961 176.588 17.543V17.3145ZM179.857 17.7012C179.857 19.8105 180.344 21.5039 181.316 22.7812C182.301 24.0586 183.613 24.6973 185.254 24.6973C186.906 24.6973 188.219 24.0527 189.191 22.7637C190.164 21.4629 190.65 19.6465 190.65 17.3145C190.65 15.2285 190.152 13.541 189.156 12.252C188.172 10.9512 186.859 10.3008 185.219 10.3008C183.613 10.3008 182.318 10.9395 181.334 12.2168C180.35 13.4941 179.857 15.3223 179.857 17.7012Z" fill="white"/>
<path d="M213.133 22.2363L217.562 7.98047H221.043L213.396 29.9355C212.213 33.0996 210.332 34.6816 207.754 34.6816L207.139 34.6289L205.926 34.4004V31.7637L206.805 31.834C207.906 31.834 208.762 31.6113 209.371 31.166C209.992 30.7207 210.502 29.9062 210.9 28.7227L211.621 26.7891L204.836 7.98047H208.387L213.133 22.2363Z" fill="white"/>
<path d="M247.867 15.1699H236.775V24.2402H249.66V27H233.4V1.40625H249.484V4.18359H236.775V12.4102H247.867V15.1699Z" fill="white"/>
<path d="M262.545 10.8984C262.053 10.8164 261.52 10.7754 260.945 10.7754C258.812 10.7754 257.365 11.6836 256.604 13.5V27H253.352V7.98047H256.516L256.568 10.1777C257.635 8.47852 259.146 7.62891 261.104 7.62891C261.736 7.62891 262.217 7.71094 262.545 7.875V10.8984Z" fill="white"/>
<path d="M268.627 7.98047L268.732 10.3711C270.186 8.54297 272.084 7.62891 274.428 7.62891C278.447 7.62891 280.475 9.89648 280.51 14.4316V27H277.258V14.4141C277.246 13.043 276.93 12.0293 276.309 11.373C275.699 10.7168 274.744 10.3887 273.443 10.3887C272.389 10.3887 271.463 10.6699 270.666 11.2324C269.869 11.7949 269.248 12.5332 268.803 13.4473V27H265.551V7.98047H268.627Z" fill="white"/>
<path d="M293.307 27.3516C290.729 27.3516 288.631 26.5078 287.014 24.8203C285.396 23.1211 284.588 20.8535 284.588 18.0176V17.4199C284.588 15.5332 284.945 13.8516 285.66 12.375C286.387 10.8867 287.395 9.72656 288.684 8.89453C289.984 8.05078 291.391 7.62891 292.902 7.62891C295.375 7.62891 297.297 8.44336 298.668 10.0723C300.039 11.7012 300.725 14.0332 300.725 17.0684V18.4219H287.84C287.887 20.2969 288.432 21.8145 289.475 22.9746C290.529 24.123 291.865 24.6973 293.482 24.6973C294.631 24.6973 295.604 24.4629 296.4 23.9941C297.197 23.5254 297.895 22.9043 298.492 22.1309L300.479 23.6777C298.885 26.127 296.494 27.3516 293.307 27.3516ZM292.902 10.3008C291.59 10.3008 290.488 10.7812 289.598 11.7422C288.707 12.6914 288.156 14.0273 287.945 15.75H297.473V15.5039C297.379 13.8516 296.934 12.5742 296.137 11.6719C295.34 10.7578 294.262 10.3008 292.902 10.3008Z" fill="white"/>
<path d="M315.578 21.9551C315.578 21.0762 315.244 20.3965 314.576 19.916C313.92 19.4238 312.766 19.002 311.113 18.6504C309.473 18.2988 308.166 17.877 307.193 17.3848C306.232 16.8926 305.518 16.3066 305.049 15.627C304.592 14.9473 304.363 14.1387 304.363 13.2012C304.363 11.6426 305.02 10.3242 306.332 9.24609C307.656 8.16797 309.344 7.62891 311.395 7.62891C313.551 7.62891 315.297 8.18555 316.633 9.29883C317.98 10.4121 318.654 11.8359 318.654 13.5703H315.385C315.385 12.6797 315.004 11.9121 314.242 11.2676C313.492 10.623 312.543 10.3008 311.395 10.3008C310.211 10.3008 309.285 10.5586 308.617 11.0742C307.949 11.5898 307.615 12.2637 307.615 13.0957C307.615 13.8809 307.926 14.4727 308.547 14.8711C309.168 15.2695 310.287 15.6504 311.904 16.0137C313.533 16.377 314.852 16.8105 315.859 17.3145C316.867 17.8184 317.611 18.4277 318.092 19.1426C318.584 19.8457 318.83 20.707 318.83 21.7266C318.83 23.4258 318.15 24.791 316.791 25.8223C315.432 26.8418 313.668 27.3516 311.5 27.3516C309.977 27.3516 308.629 27.082 307.457 26.543C306.285 26.0039 305.365 25.2539 304.697 24.293C304.041 23.3203 303.713 22.2715 303.713 21.1465H306.965C307.023 22.2363 307.457 23.1035 308.266 23.748C309.086 24.3809 310.164 24.6973 311.5 24.6973C312.73 24.6973 313.715 24.4512 314.453 23.959C315.203 23.4551 315.578 22.7871 315.578 21.9551Z" fill="white"/>
<path d="M327.479 3.375V7.98047H331.029V10.4941H327.479V22.2891C327.479 23.0508 327.637 23.625 327.953 24.0117C328.27 24.3867 328.809 24.5742 329.57 24.5742C329.945 24.5742 330.461 24.5039 331.117 24.3633V27C330.262 27.2344 329.43 27.3516 328.621 27.3516C327.168 27.3516 326.072 26.9121 325.334 26.0332C324.596 25.1543 324.227 23.9062 324.227 22.2891V10.4941H320.764V7.98047H324.227V3.375H327.479Z" fill="white"/>
<path d="M333.631 17.3145C333.631 15.4512 333.994 13.7754 334.721 12.2871C335.459 10.7988 336.479 9.65039 337.779 8.8418C339.092 8.0332 340.586 7.62891 342.262 7.62891C344.852 7.62891 346.943 8.52539 348.537 10.3184C350.143 12.1113 350.945 14.4961 350.945 17.4727V17.7012C350.945 19.5527 350.588 21.2168 349.873 22.6934C349.17 24.1582 348.156 25.3008 346.832 26.1211C345.52 26.9414 344.008 27.3516 342.297 27.3516C339.719 27.3516 337.627 26.4551 336.021 24.6621C334.428 22.8691 333.631 20.4961 333.631 17.543V17.3145ZM336.9 17.7012C336.9 19.8105 337.387 21.5039 338.359 22.7812C339.344 24.0586 340.656 24.6973 342.297 24.6973C343.949 24.6973 345.262 24.0527 346.234 22.7637C347.207 21.4629 347.693 19.6465 347.693 17.3145C347.693 15.2285 347.195 13.541 346.199 12.252C345.215 10.9512 343.902 10.3008 342.262 10.3008C340.656 10.3008 339.361 10.9395 338.377 12.2168C337.393 13.4941 336.9 15.3223 336.9 17.7012Z" fill="white"/>
</g>
<g id="Kimberly y Ana">
<path d="M91.4746 97.0996L88.3457 100.352V109H84.9707V83.4062H88.3457V96.0625L99.7188 83.4062H103.797L93.7246 94.709L104.588 109H100.545L91.4746 97.0996Z" fill="white"/>
<path d="M110.564 109H107.312V89.9805H110.564V109ZM107.049 84.9355C107.049 84.4082 107.207 83.9629 107.523 83.5996C107.852 83.2363 108.332 83.0547 108.965 83.0547C109.598 83.0547 110.078 83.2363 110.406 83.5996C110.734 83.9629 110.898 84.4082 110.898 84.9355C110.898 85.4629 110.734 85.9023 110.406 86.2539C110.078 86.6055 109.598 86.7812 108.965 86.7812C108.332 86.7812 107.852 86.6055 107.523 86.2539C107.207 85.9023 107.049 85.4629 107.049 84.9355Z" fill="white"/>
<path d="M118.844 89.9805L118.932 92.0898C120.326 90.4492 122.207 89.6289 124.574 89.6289C127.234 89.6289 129.045 90.6484 130.006 92.6875C130.639 91.7734 131.459 91.0352 132.467 90.4727C133.486 89.9102 134.688 89.6289 136.07 89.6289C140.242 89.6289 142.363 91.8379 142.434 96.2559V109H139.182V96.4492C139.182 95.0898 138.871 94.0762 138.25 93.4082C137.629 92.7285 136.586 92.3887 135.121 92.3887C133.914 92.3887 132.912 92.752 132.115 93.4785C131.318 94.1934 130.855 95.1602 130.727 96.3789V109H127.457V96.5371C127.457 93.7715 126.104 92.3887 123.396 92.3887C121.264 92.3887 119.805 93.2969 119.02 95.1133V109H115.768V89.9805H118.844Z" fill="white"/>
<path d="M163.457 99.7012C163.457 102.607 162.789 104.945 161.453 106.715C160.117 108.473 158.324 109.352 156.074 109.352C153.672 109.352 151.814 108.502 150.502 106.803L150.344 109H147.355V82H150.607V92.0723C151.92 90.4434 153.73 89.6289 156.039 89.6289C158.348 89.6289 160.158 90.502 161.471 92.248C162.795 93.9941 163.457 96.3848 163.457 99.4199V99.7012ZM160.205 99.332C160.205 97.1172 159.777 95.4062 158.922 94.1992C158.066 92.9922 156.836 92.3887 155.23 92.3887C153.086 92.3887 151.545 93.3848 150.607 95.377V103.604C151.604 105.596 153.156 106.592 155.266 106.592C156.824 106.592 158.037 105.988 158.904 104.781C159.771 103.574 160.205 101.758 160.205 99.332Z" fill="white"/>
<path d="M175.463 109.352C172.885 109.352 170.787 108.508 169.17 106.82C167.553 105.121 166.744 102.854 166.744 100.018V99.4199C166.744 97.5332 167.102 95.8516 167.816 94.375C168.543 92.8867 169.551 91.7266 170.84 90.8945C172.141 90.0508 173.547 89.6289 175.059 89.6289C177.531 89.6289 179.453 90.4434 180.824 92.0723C182.195 93.7012 182.881 96.0332 182.881 99.0684V100.422H169.996C170.043 102.297 170.588 103.814 171.631 104.975C172.686 106.123 174.021 106.697 175.639 106.697C176.787 106.697 177.76 106.463 178.557 105.994C179.354 105.525 180.051 104.904 180.648 104.131L182.635 105.678C181.041 108.127 178.65 109.352 175.463 109.352ZM175.059 92.3008C173.746 92.3008 172.645 92.7812 171.754 93.7422C170.863 94.6914 170.312 96.0273 170.102 97.75H179.629V97.5039C179.535 95.8516 179.09 94.5742 178.293 93.6719C177.496 92.7578 176.418 92.3008 175.059 92.3008Z" fill="white"/>
<path d="M195.854 92.8984C195.361 92.8164 194.828 92.7754 194.254 92.7754C192.121 92.7754 190.674 93.6836 189.912 95.5V109H186.66V89.9805H189.824L189.877 92.1777C190.943 90.4785 192.455 89.6289 194.412 89.6289C195.045 89.6289 195.525 89.7109 195.854 89.875V92.8984Z" fill="white"/>
<path d="M202.393 109H199.141V82H202.393V109Z" fill="white"/>
<path d="M213.836 104.236L218.266 89.9805H221.746L214.1 111.936C212.916 115.1 211.035 116.682 208.457 116.682L207.842 116.629L206.629 116.4V113.764L207.508 113.834C208.609 113.834 209.465 113.611 210.074 113.166C210.695 112.721 211.205 111.906 211.604 110.723L212.324 108.789L205.539 89.9805H209.09L213.836 104.236Z" fill="white"/>
<path d="M239.816 104.236L244.246 89.9805H247.727L240.08 111.936C238.896 115.1 237.016 116.682 234.438 116.682L233.822 116.629L232.609 116.4V113.764L233.488 113.834C234.59 113.834 235.445 113.611 236.055 113.166C236.676 112.721 237.186 111.906 237.584 110.723L238.305 108.789L231.52 89.9805H235.07L239.816 104.236Z" fill="white"/>
<path d="M274.217 102.32H263.494L261.086 109H257.605L267.379 83.4062H270.332L280.123 109H276.66L274.217 102.32ZM264.514 99.543H273.215L268.855 87.5723L264.514 99.543Z" fill="white"/>
<path d="M286.135 89.9805L286.24 92.3711C287.693 90.543 289.592 89.6289 291.936 89.6289C295.955 89.6289 297.982 91.8965 298.018 96.4316V109H294.766V96.4141C294.754 95.043 294.438 94.0293 293.816 93.373C293.207 92.7168 292.252 92.3887 290.951 92.3887C289.896 92.3887 288.971 92.6699 288.174 93.2324C287.377 93.7949 286.756 94.5332 286.311 95.4473V109H283.059V89.9805H286.135Z" fill="white"/>
<path d="M314.664 109C314.477 108.625 314.324 107.957 314.207 106.996C312.695 108.566 310.891 109.352 308.793 109.352C306.918 109.352 305.377 108.824 304.17 107.77C302.975 106.703 302.377 105.355 302.377 103.727C302.377 101.746 303.127 100.211 304.627 99.1211C306.139 98.0195 308.26 97.4688 310.99 97.4688H314.154V95.9746C314.154 94.8379 313.814 93.9355 313.135 93.2676C312.455 92.5879 311.453 92.248 310.129 92.248C308.969 92.248 307.996 92.541 307.211 93.127C306.426 93.7129 306.033 94.4219 306.033 95.2539H302.764C302.764 94.3047 303.098 93.3906 303.766 92.5117C304.445 91.6211 305.359 90.918 306.508 90.4023C307.668 89.8867 308.939 89.6289 310.322 89.6289C312.514 89.6289 314.23 90.1797 315.473 91.2812C316.715 92.3711 317.359 93.877 317.406 95.7988V104.553C317.406 106.299 317.629 107.688 318.074 108.719V109H314.664ZM309.268 106.521C310.287 106.521 311.254 106.258 312.168 105.73C313.082 105.203 313.744 104.518 314.154 103.674V99.7715H311.605C307.621 99.7715 305.629 100.938 305.629 103.27C305.629 104.289 305.969 105.086 306.648 105.66C307.328 106.234 308.201 106.521 309.268 106.521Z" fill="white"/>
</g>
<g id="Tadeo y Ernesto">
<path d="M102.654 168.184H94.4277V191H91.0703V168.184H82.8613V165.406H102.654V168.184Z" fill="white"/>
<path d="M115.68 191C115.492 190.625 115.34 189.957 115.223 188.996C113.711 190.566 111.906 191.352 109.809 191.352C107.934 191.352 106.393 190.824 105.186 189.77C103.99 188.703 103.393 187.355 103.393 185.727C103.393 183.746 104.143 182.211 105.643 181.121C107.154 180.02 109.275 179.469 112.006 179.469H115.17V177.975C115.17 176.838 114.83 175.936 114.15 175.268C113.471 174.588 112.469 174.248 111.145 174.248C109.984 174.248 109.012 174.541 108.227 175.127C107.441 175.713 107.049 176.422 107.049 177.254H103.779C103.779 176.305 104.113 175.391 104.781 174.512C105.461 173.621 106.375 172.918 107.523 172.402C108.684 171.887 109.955 171.629 111.338 171.629C113.529 171.629 115.246 172.18 116.488 173.281C117.73 174.371 118.375 175.877 118.422 177.799V186.553C118.422 188.299 118.645 189.688 119.09 190.719V191H115.68ZM110.283 188.521C111.303 188.521 112.27 188.258 113.184 187.73C114.098 187.203 114.76 186.518 115.17 185.674V181.771H112.621C108.637 181.771 106.645 182.938 106.645 185.27C106.645 186.289 106.984 187.086 107.664 187.66C108.344 188.234 109.217 188.521 110.283 188.521Z" fill="white"/>
<path d="M122.729 181.332C122.729 178.414 123.42 176.07 124.803 174.301C126.186 172.52 127.996 171.629 130.234 171.629C132.461 171.629 134.225 172.391 135.525 173.914V164H138.777V191H135.789L135.631 188.961C134.33 190.555 132.52 191.352 130.199 191.352C127.996 191.352 126.197 190.449 124.803 188.645C123.42 186.84 122.729 184.484 122.729 181.578V181.332ZM125.98 181.701C125.98 183.857 126.426 185.545 127.316 186.764C128.207 187.982 129.438 188.592 131.008 188.592C133.07 188.592 134.576 187.666 135.525 185.814V177.078C134.553 175.285 133.059 174.389 131.043 174.389C129.449 174.389 128.207 175.004 127.316 176.234C126.426 177.465 125.98 179.287 125.98 181.701Z" fill="white"/>
<path d="M151.732 191.352C149.154 191.352 147.057 190.508 145.439 188.82C143.822 187.121 143.014 184.854 143.014 182.018V181.42C143.014 179.533 143.371 177.852 144.086 176.375C144.812 174.887 145.82 173.727 147.109 172.895C148.41 172.051 149.816 171.629 151.328 171.629C153.801 171.629 155.723 172.443 157.094 174.072C158.465 175.701 159.15 178.033 159.15 181.068V182.422H146.266C146.312 184.297 146.857 185.814 147.9 186.975C148.955 188.123 150.291 188.697 151.908 188.697C153.057 188.697 154.029 188.463 154.826 187.994C155.623 187.525 156.32 186.904 156.918 186.131L158.904 187.678C157.311 190.127 154.92 191.352 151.732 191.352ZM151.328 174.301C150.016 174.301 148.914 174.781 148.023 175.742C147.133 176.691 146.582 178.027 146.371 179.75H155.898V179.504C155.805 177.852 155.359 176.574 154.562 175.672C153.766 174.758 152.688 174.301 151.328 174.301Z" fill="white"/>
<path d="M162.068 181.314C162.068 179.451 162.432 177.775 163.158 176.287C163.896 174.799 164.916 173.65 166.217 172.842C167.529 172.033 169.023 171.629 170.699 171.629C173.289 171.629 175.381 172.525 176.975 174.318C178.58 176.111 179.383 178.496 179.383 181.473V181.701C179.383 183.553 179.025 185.217 178.311 186.693C177.607 188.158 176.594 189.301 175.27 190.121C173.957 190.941 172.445 191.352 170.734 191.352C168.156 191.352 166.064 190.455 164.459 188.662C162.865 186.869 162.068 184.496 162.068 181.543V181.314ZM165.338 181.701C165.338 183.811 165.824 185.504 166.797 186.781C167.781 188.059 169.094 188.697 170.734 188.697C172.387 188.697 173.699 188.053 174.672 186.764C175.645 185.463 176.131 183.646 176.131 181.314C176.131 179.229 175.633 177.541 174.637 176.252C173.652 174.951 172.34 174.301 170.699 174.301C169.094 174.301 167.799 174.939 166.814 176.217C165.83 177.494 165.338 179.322 165.338 181.701Z" fill="white"/>
<path d="M198.613 186.236L203.043 171.98H206.523L198.877 193.936C197.693 197.1 195.812 198.682 193.234 198.682L192.619 198.629L191.406 198.4V195.764L192.285 195.834C193.387 195.834 194.242 195.611 194.852 195.166C195.473 194.721 195.982 193.906 196.381 192.723L197.102 190.789L190.316 171.98H193.867L198.613 186.236Z" fill="white"/>
<path d="M233.348 179.17H222.256V188.24H235.141V191H218.881V165.406H234.965V168.184H222.256V176.41H233.348V179.17Z" fill="white"/>
<path d="M248.025 174.898C247.533 174.816 247 174.775 246.426 174.775C244.293 174.775 242.846 175.684 242.084 177.5V191H238.832V171.98H241.996L242.049 174.178C243.115 172.479 244.627 171.629 246.584 171.629C247.217 171.629 247.697 171.711 248.025 171.875V174.898Z" fill="white"/>
<path d="M254.107 171.98L254.213 174.371C255.666 172.543 257.564 171.629 259.908 171.629C263.928 171.629 265.955 173.896 265.99 178.432V191H262.738V178.414C262.727 177.043 262.41 176.029 261.789 175.373C261.18 174.717 260.225 174.389 258.924 174.389C257.869 174.389 256.943 174.67 256.146 175.232C255.35 175.795 254.729 176.533 254.283 177.447V191H251.031V171.98H254.107Z" fill="white"/>
<path d="M278.787 191.352C276.209 191.352 274.111 190.508 272.494 188.82C270.877 187.121 270.068 184.854 270.068 182.018V181.42C270.068 179.533 270.426 177.852 271.141 176.375C271.867 174.887 272.875 173.727 274.164 172.895C275.465 172.051 276.871 171.629 278.383 171.629C280.855 171.629 282.777 172.443 284.148 174.072C285.52 175.701 286.205 178.033 286.205 181.068V182.422H273.32C273.367 184.297 273.912 185.814 274.955 186.975C276.01 188.123 277.346 188.697 278.963 188.697C280.111 188.697 281.084 188.463 281.881 187.994C282.678 187.525 283.375 186.904 283.973 186.131L285.959 187.678C284.365 190.127 281.975 191.352 278.787 191.352ZM278.383 174.301C277.07 174.301 275.969 174.781 275.078 175.742C274.188 176.691 273.637 178.027 273.426 179.75H282.953V179.504C282.859 177.852 282.414 176.574 281.617 175.672C280.82 174.758 279.742 174.301 278.383 174.301Z" fill="white"/>
<path d="M301.059 185.955C301.059 185.076 300.725 184.396 300.057 183.916C299.4 183.424 298.246 183.002 296.594 182.65C294.953 182.299 293.646 181.877 292.674 181.385C291.713 180.893 290.998 180.307 290.529 179.627C290.072 178.947 289.844 178.139 289.844 177.201C289.844 175.643 290.5 174.324 291.812 173.246C293.137 172.168 294.824 171.629 296.875 171.629C299.031 171.629 300.777 172.186 302.113 173.299C303.461 174.412 304.135 175.836 304.135 177.57H300.865C300.865 176.68 300.484 175.912 299.723 175.268C298.973 174.623 298.023 174.301 296.875 174.301C295.691 174.301 294.766 174.559 294.098 175.074C293.43 175.59 293.096 176.264 293.096 177.096C293.096 177.881 293.406 178.473 294.027 178.871C294.648 179.27 295.768 179.65 297.385 180.014C299.014 180.377 300.332 180.811 301.34 181.314C302.348 181.818 303.092 182.428 303.572 183.143C304.064 183.846 304.311 184.707 304.311 185.727C304.311 187.426 303.631 188.791 302.271 189.822C300.912 190.842 299.148 191.352 296.98 191.352C295.457 191.352 294.109 191.082 292.938 190.543C291.766 190.004 290.846 189.254 290.178 188.293C289.521 187.32 289.193 186.271 289.193 185.146H292.445C292.504 186.236 292.938 187.104 293.746 187.748C294.566 188.381 295.645 188.697 296.98 188.697C298.211 188.697 299.195 188.451 299.934 187.959C300.684 187.455 301.059 186.787 301.059 185.955Z" fill="white"/>
<path d="M312.959 167.375V171.98H316.51V174.494H312.959V186.289C312.959 187.051 313.117 187.625 313.434 188.012C313.75 188.387 314.289 188.574 315.051 188.574C315.426 188.574 315.941 188.504 316.598 188.363V191C315.742 191.234 314.91 191.352 314.102 191.352C312.648 191.352 311.553 190.912 310.814 190.033C310.076 189.154 309.707 187.906 309.707 186.289V174.494H306.244V171.98H309.707V167.375H312.959Z" fill="white"/>
<path d="M319.111 181.314C319.111 179.451 319.475 177.775 320.201 176.287C320.939 174.799 321.959 173.65 323.26 172.842C324.572 172.033 326.066 171.629 327.742 171.629C330.332 171.629 332.424 172.525 334.018 174.318C335.623 176.111 336.426 178.496 336.426 181.473V181.701C336.426 183.553 336.068 185.217 335.354 186.693C334.65 188.158 333.637 189.301 332.312 190.121C331 190.941 329.488 191.352 327.777 191.352C325.199 191.352 323.107 190.455 321.502 188.662C319.908 186.869 319.111 184.496 319.111 181.543V181.314ZM322.381 181.701C322.381 183.811 322.867 185.504 323.84 186.781C324.824 188.059 326.137 188.697 327.777 188.697C329.43 188.697 330.742 188.053 331.715 186.764C332.688 185.463 333.174 183.646 333.174 181.314C333.174 179.229 332.676 177.541 331.68 176.252C330.695 174.951 329.383 174.301 327.742 174.301C326.137 174.301 324.842 174.939 323.857 176.217C322.873 177.494 322.381 179.322 322.381 181.701Z" fill="white"/>
</g>
<g id="Sandro y Ana">
<path d="M104.512 261.592C101.617 260.76 99.5078 259.74 98.1836 258.533C96.8711 257.314 96.2148 255.814 96.2148 254.033C96.2148 252.018 97.0176 250.354 98.623 249.041C100.24 247.717 102.338 247.055 104.916 247.055C106.674 247.055 108.238 247.395 109.609 248.074C110.992 248.754 112.059 249.691 112.809 250.887C113.57 252.082 113.951 253.389 113.951 254.807H110.559C110.559 253.26 110.066 252.047 109.082 251.168C108.098 250.277 106.709 249.832 104.916 249.832C103.252 249.832 101.951 250.201 101.014 250.939C100.088 251.666 99.625 252.68 99.625 253.98C99.625 255.023 100.064 255.908 100.943 256.635C101.834 257.35 103.34 258.006 105.461 258.604C107.594 259.201 109.258 259.863 110.453 260.59C111.66 261.305 112.551 262.143 113.125 263.104C113.711 264.064 114.004 265.195 114.004 266.496C114.004 268.57 113.195 270.234 111.578 271.488C109.961 272.73 107.799 273.352 105.092 273.352C103.334 273.352 101.693 273.018 100.17 272.35C98.6465 271.67 97.4688 270.744 96.6367 269.572C95.8164 268.4 95.4062 267.07 95.4062 265.582H98.7988C98.7988 267.129 99.3672 268.354 100.504 269.256C101.652 270.146 103.182 270.592 105.092 270.592C106.873 270.592 108.238 270.229 109.188 269.502C110.137 268.775 110.611 267.785 110.611 266.531C110.611 265.277 110.172 264.311 109.293 263.631C108.414 262.939 106.82 262.26 104.512 261.592Z" fill="white"/>
<path d="M129.578 273C129.391 272.625 129.238 271.957 129.121 270.996C127.609 272.566 125.805 273.352 123.707 273.352C121.832 273.352 120.291 272.824 119.084 271.77C117.889 270.703 117.291 269.355 117.291 267.727C117.291 265.746 118.041 264.211 119.541 263.121C121.053 262.02 123.174 261.469 125.904 261.469H129.068V259.975C129.068 258.838 128.729 257.936 128.049 257.268C127.369 256.588 126.367 256.248 125.043 256.248C123.883 256.248 122.91 256.541 122.125 257.127C121.34 257.713 120.947 258.422 120.947 259.254H117.678C117.678 258.305 118.012 257.391 118.68 256.512C119.359 255.621 120.273 254.918 121.422 254.402C122.582 253.887 123.854 253.629 125.236 253.629C127.428 253.629 129.145 254.18 130.387 255.281C131.629 256.371 132.273 257.877 132.32 259.799V268.553C132.32 270.299 132.543 271.688 132.988 272.719V273H129.578ZM124.182 270.521C125.201 270.521 126.168 270.258 127.082 269.73C127.996 269.203 128.658 268.518 129.068 267.674V263.771H126.52C122.535 263.771 120.543 264.938 120.543 267.27C120.543 268.289 120.883 269.086 121.562 269.66C122.242 270.234 123.115 270.521 124.182 270.521Z" fill="white"/>
<path d="M140.494 253.98L140.6 256.371C142.053 254.543 143.951 253.629 146.295 253.629C150.314 253.629 152.342 255.896 152.377 260.432V273H149.125V260.414C149.113 259.043 148.797 258.029 148.176 257.373C147.566 256.717 146.611 256.389 145.311 256.389C144.256 256.389 143.33 256.67 142.533 257.232C141.736 257.795 141.115 258.533 140.67 259.447V273H137.418V253.98H140.494Z" fill="white"/>
<path d="M156.49 263.332C156.49 260.414 157.182 258.07 158.564 256.301C159.947 254.52 161.758 253.629 163.996 253.629C166.223 253.629 167.986 254.391 169.287 255.914V246H172.539V273H169.551L169.393 270.961C168.092 272.555 166.281 273.352 163.961 273.352C161.758 273.352 159.959 272.449 158.564 270.645C157.182 268.84 156.49 266.484 156.49 263.578V263.332ZM159.742 263.701C159.742 265.857 160.188 267.545 161.078 268.764C161.969 269.982 163.199 270.592 164.77 270.592C166.832 270.592 168.338 269.666 169.287 267.814V259.078C168.314 257.285 166.82 256.389 164.805 256.389C163.211 256.389 161.969 257.004 161.078 258.234C160.188 259.465 159.742 261.287 159.742 263.701Z" fill="white"/>
<path d="M186.795 256.898C186.303 256.816 185.77 256.775 185.195 256.775C183.062 256.775 181.615 257.684 180.854 259.5V273H177.602V253.98H180.766L180.818 256.178C181.885 254.479 183.396 253.629 185.354 253.629C185.986 253.629 186.467 253.711 186.795 253.875V256.898Z" fill="white"/>
<path d="M188.588 263.314C188.588 261.451 188.951 259.775 189.678 258.287C190.416 256.799 191.436 255.65 192.736 254.842C194.049 254.033 195.543 253.629 197.219 253.629C199.809 253.629 201.9 254.525 203.494 256.318C205.1 258.111 205.902 260.496 205.902 263.473V263.701C205.902 265.553 205.545 267.217 204.83 268.693C204.127 270.158 203.113 271.301 201.789 272.121C200.477 272.941 198.965 273.352 197.254 273.352C194.676 273.352 192.584 272.455 190.979 270.662C189.385 268.869 188.588 266.496 188.588 263.543V263.314ZM191.857 263.701C191.857 265.811 192.344 267.504 193.316 268.781C194.301 270.059 195.613 270.697 197.254 270.697C198.906 270.697 200.219 270.053 201.191 268.764C202.164 267.463 202.65 265.646 202.65 263.314C202.65 261.229 202.152 259.541 201.156 258.252C200.172 256.951 198.859 256.301 197.219 256.301C195.613 256.301 194.318 256.939 193.334 258.217C192.35 259.494 191.857 261.322 191.857 263.701Z" fill="white"/>
<path d="M225.133 268.236L229.562 253.98H233.043L225.396 275.936C224.213 279.1 222.332 280.682 219.754 280.682L219.139 280.629L217.926 280.4V277.764L218.805 277.834C219.906 277.834 220.762 277.611 221.371 277.166C221.992 276.721 222.502 275.906 222.9 274.723L223.621 272.789L216.836 253.98H220.387L225.133 268.236Z" fill="white"/>
<path d="M259.533 266.32H248.811L246.402 273H242.922L252.695 247.406H255.648L265.439 273H261.977L259.533 266.32ZM249.83 263.543H258.531L254.172 251.572L249.83 263.543Z" fill="white"/>
<path d="M271.451 253.98L271.557 256.371C273.01 254.543 274.908 253.629 277.252 253.629C281.271 253.629 283.299 255.896 283.334 260.432V273H280.082V260.414C280.07 259.043 279.754 258.029 279.133 257.373C278.523 256.717 277.568 256.389 276.268 256.389C275.213 256.389 274.287 256.67 273.49 257.232C272.693 257.795 272.072 258.533 271.627 259.447V273H268.375V253.98H271.451Z" fill="white"/>
<path d="M299.98 273C299.793 272.625 299.641 271.957 299.523 270.996C298.012 272.566 296.207 273.352 294.109 273.352C292.234 273.352 290.693 272.824 289.486 271.77C288.291 270.703 287.693 269.355 287.693 267.727C287.693 265.746 288.443 264.211 289.943 263.121C291.455 262.02 293.576 261.469 296.307 261.469H299.471V259.975C299.471 258.838 299.131 257.936 298.451 257.268C297.771 256.588 296.77 256.248 295.445 256.248C294.285 256.248 293.312 256.541 292.527 257.127C291.742 257.713 291.35 258.422 291.35 259.254H288.08C288.08 258.305 288.414 257.391 289.082 256.512C289.762 255.621 290.676 254.918 291.824 254.402C292.984 253.887 294.256 253.629 295.639 253.629C297.83 253.629 299.547 254.18 300.789 255.281C302.031 256.371 302.676 257.877 302.723 259.799V268.553C302.723 270.299 302.945 271.688 303.391 272.719V273H299.98ZM294.584 270.521C295.604 270.521 296.57 270.258 297.484 269.73C298.398 269.203 299.061 268.518 299.471 267.674V263.771H296.922C292.938 263.771 290.945 264.938 290.945 267.27C290.945 268.289 291.285 269.086 291.965 269.66C292.645 270.234 293.518 270.521 294.584 270.521Z" fill="white"/>
</g>
<g id="Sandro y Kimberly">
<path d="M437.512 261.592C434.617 260.76 432.508 259.74 431.184 258.533C429.871 257.314 429.215 255.814 429.215 254.033C429.215 252.018 430.018 250.354 431.623 249.041C433.24 247.717 435.338 247.055 437.916 247.055C439.674 247.055 441.238 247.395 442.609 248.074C443.992 248.754 445.059 249.691 445.809 250.887C446.57 252.082 446.951 253.389 446.951 254.807H443.559C443.559 253.26 443.066 252.047 442.082 251.168C441.098 250.277 439.709 249.832 437.916 249.832C436.252 249.832 434.951 250.201 434.014 250.939C433.088 251.666 432.625 252.68 432.625 253.98C432.625 255.023 433.064 255.908 433.943 256.635C434.834 257.35 436.34 258.006 438.461 258.604C440.594 259.201 442.258 259.863 443.453 260.59C444.66 261.305 445.551 262.143 446.125 263.104C446.711 264.064 447.004 265.195 447.004 266.496C447.004 268.57 446.195 270.234 444.578 271.488C442.961 272.73 440.799 273.352 438.092 273.352C436.334 273.352 434.693 273.018 433.17 272.35C431.646 271.67 430.469 270.744 429.637 269.572C428.816 268.4 428.406 267.07 428.406 265.582H431.799C431.799 267.129 432.367 268.354 433.504 269.256C434.652 270.146 436.182 270.592 438.092 270.592C439.873 270.592 441.238 270.229 442.188 269.502C443.137 268.775 443.611 267.785 443.611 266.531C443.611 265.277 443.172 264.311 442.293 263.631C441.414 262.939 439.82 262.26 437.512 261.592Z" fill="white"/>
<path d="M462.578 273C462.391 272.625 462.238 271.957 462.121 270.996C460.609 272.566 458.805 273.352 456.707 273.352C454.832 273.352 453.291 272.824 452.084 271.77C450.889 270.703 450.291 269.355 450.291 267.727C450.291 265.746 451.041 264.211 452.541 263.121C454.053 262.02 456.174 261.469 458.904 261.469H462.068V259.975C462.068 258.838 461.729 257.936 461.049 257.268C460.369 256.588 459.367 256.248 458.043 256.248C456.883 256.248 455.91 256.541 455.125 257.127C454.34 257.713 453.947 258.422 453.947 259.254H450.678C450.678 258.305 451.012 257.391 451.68 256.512C452.359 255.621 453.273 254.918 454.422 254.402C455.582 253.887 456.854 253.629 458.236 253.629C460.428 253.629 462.145 254.18 463.387 255.281C464.629 256.371 465.273 257.877 465.32 259.799V268.553C465.32 270.299 465.543 271.688 465.988 272.719V273H462.578ZM457.182 270.521C458.201 270.521 459.168 270.258 460.082 269.73C460.996 269.203 461.658 268.518 462.068 267.674V263.771H459.52C455.535 263.771 453.543 264.938 453.543 267.27C453.543 268.289 453.883 269.086 454.562 269.66C455.242 270.234 456.115 270.521 457.182 270.521Z" fill="white"/>
<path d="M473.494 253.98L473.6 256.371C475.053 254.543 476.951 253.629 479.295 253.629C483.314 253.629 485.342 255.896 485.377 260.432V273H482.125V260.414C482.113 259.043 481.797 258.029 481.176 257.373C480.566 256.717 479.611 256.389 478.311 256.389C477.256 256.389 476.33 256.67 475.533 257.232C474.736 257.795 474.115 258.533 473.67 259.447V273H470.418V253.98H473.494Z" fill="white"/>
<path d="M489.49 263.332C489.49 260.414 490.182 258.07 491.564 256.301C492.947 254.52 494.758 253.629 496.996 253.629C499.223 253.629 500.986 254.391 502.287 255.914V246H505.539V273H502.551L502.393 270.961C501.092 272.555 499.281 273.352 496.961 273.352C494.758 273.352 492.959 272.449 491.564 270.645C490.182 268.84 489.49 266.484 489.49 263.578V263.332ZM492.742 263.701C492.742 265.857 493.188 267.545 494.078 268.764C494.969 269.982 496.199 270.592 497.77 270.592C499.832 270.592 501.338 269.666 502.287 267.814V259.078C501.314 257.285 499.82 256.389 497.805 256.389C496.211 256.389 494.969 257.004 494.078 258.234C493.188 259.465 492.742 261.287 492.742 263.701Z" fill="white"/>
<path d="M519.795 256.898C519.303 256.816 518.77 256.775 518.195 256.775C516.062 256.775 514.615 257.684 513.854 259.5V273H510.602V253.98H513.766L513.818 256.178C514.885 254.479 516.396 253.629 518.354 253.629C518.986 253.629 519.467 253.711 519.795 253.875V256.898Z" fill="white"/>
<path d="M521.588 263.314C521.588 261.451 521.951 259.775 522.678 258.287C523.416 256.799 524.436 255.65 525.736 254.842C527.049 254.033 528.543 253.629 530.219 253.629C532.809 253.629 534.9 254.525 536.494 256.318C538.1 258.111 538.902 260.496 538.902 263.473V263.701C538.902 265.553 538.545 267.217 537.83 268.693C537.127 270.158 536.113 271.301 534.789 272.121C533.477 272.941 531.965 273.352 530.254 273.352C527.676 273.352 525.584 272.455 523.979 270.662C522.385 268.869 521.588 266.496 521.588 263.543V263.314ZM524.857 263.701C524.857 265.811 525.344 267.504 526.316 268.781C527.301 270.059 528.613 270.697 530.254 270.697C531.906 270.697 533.219 270.053 534.191 268.764C535.164 267.463 535.65 265.646 535.65 263.314C535.65 261.229 535.152 259.541 534.156 258.252C533.172 256.951 531.859 256.301 530.219 256.301C528.613 256.301 527.318 256.939 526.334 258.217C525.35 259.494 524.857 261.322 524.857 263.701Z" fill="white"/>
<path d="M558.133 268.236L562.562 253.98H566.043L558.396 275.936C557.213 279.1 555.332 280.682 552.754 280.682L552.139 280.629L550.926 280.4V277.764L551.805 277.834C552.906 277.834 553.762 277.611 554.371 277.166C554.992 276.721 555.502 275.906 555.9 274.723L556.621 272.789L549.836 253.98H553.387L558.133 268.236Z" fill="white"/>
<path d="M584.904 261.1L581.775 264.352V273H578.4V247.406H581.775V260.062L593.148 247.406H597.227L587.154 258.709L598.018 273H593.975L584.904 261.1Z" fill="white"/>
<path d="M603.994 273H600.742V253.98H603.994V273ZM600.479 248.936C600.479 248.408 600.637 247.963 600.953 247.6C601.281 247.236 601.762 247.055 602.395 247.055C603.027 247.055 603.508 247.236 603.836 247.6C604.164 247.963 604.328 248.408 604.328 248.936C604.328 249.463 604.164 249.902 603.836 250.254C603.508 250.605 603.027 250.781 602.395 250.781C601.762 250.781 601.281 250.605 600.953 250.254C600.637 249.902 600.479 249.463 600.479 248.936Z" fill="white"/>
<path d="M612.273 253.98L612.361 256.09C613.756 254.449 615.637 253.629 618.004 253.629C620.664 253.629 622.475 254.648 623.436 256.688C624.068 255.773 624.889 255.035 625.896 254.473C626.916 253.91 628.117 253.629 629.5 253.629C633.672 253.629 635.793 255.838 635.863 260.256V273H632.611V260.449C632.611 259.09 632.301 258.076 631.68 257.408C631.059 256.729 630.016 256.389 628.551 256.389C627.344 256.389 626.342 256.752 625.545 257.479C624.748 258.193 624.285 259.16 624.156 260.379V273H620.887V260.537C620.887 257.771 619.533 256.389 616.826 256.389C614.693 256.389 613.234 257.297 612.449 259.113V273H609.197V253.98H612.273Z" fill="white"/>
<path d="M656.887 263.701C656.887 266.607 656.219 268.945 654.883 270.715C653.547 272.473 651.754 273.352 649.504 273.352C647.102 273.352 645.244 272.502 643.932 270.803L643.773 273H640.785V246H644.037V256.072C645.35 254.443 647.16 253.629 649.469 253.629C651.777 253.629 653.588 254.502 654.9 256.248C656.225 257.994 656.887 260.385 656.887 263.42V263.701ZM653.635 263.332C653.635 261.117 653.207 259.406 652.352 258.199C651.496 256.992 650.266 256.389 648.66 256.389C646.516 256.389 644.975 257.385 644.037 259.377V267.604C645.033 269.596 646.586 270.592 648.695 270.592C650.254 270.592 651.467 269.988 652.334 268.781C653.201 267.574 653.635 265.758 653.635 263.332Z" fill="white"/>
<path d="M668.893 273.352C666.314 273.352 664.217 272.508 662.6 270.82C660.982 269.121 660.174 266.854 660.174 264.018V263.42C660.174 261.533 660.531 259.852 661.246 258.375C661.973 256.887 662.98 255.727 664.27 254.895C665.57 254.051 666.977 253.629 668.488 253.629C670.961 253.629 672.883 254.443 674.254 256.072C675.625 257.701 676.311 260.033 676.311 263.068V264.422H663.426C663.473 266.297 664.018 267.814 665.061 268.975C666.115 270.123 667.451 270.697 669.068 270.697C670.217 270.697 671.189 270.463 671.986 269.994C672.783 269.525 673.48 268.904 674.078 268.131L676.064 269.678C674.471 272.127 672.08 273.352 668.893 273.352ZM668.488 256.301C667.176 256.301 666.074 256.781 665.184 257.742C664.293 258.691 663.742 260.027 663.531 261.75H673.059V261.504C672.965 259.852 672.52 258.574 671.723 257.672C670.926 256.758 669.848 256.301 668.488 256.301Z" fill="white"/>
<path d="M689.283 256.898C688.791 256.816 688.258 256.775 687.684 256.775C685.551 256.775 684.104 257.684 683.342 259.5V273H680.09V253.98H683.254L683.307 256.178C684.373 254.479 685.885 253.629 687.842 253.629C688.475 253.629 688.955 253.711 689.283 253.875V256.898Z" fill="white"/>
<path d="M695.822 273H692.57V246H695.822V273Z" fill="white"/>
<path d="M707.266 268.236L711.695 253.98H715.176L707.529 275.936C706.346 279.1 704.465 280.682 701.887 280.682L701.271 280.629L700.059 280.4V277.764L700.938 277.834C702.039 277.834 702.895 277.611 703.504 277.166C704.125 276.721 704.635 275.906 705.033 274.723L705.754 272.789L698.969 253.98H702.52L707.266 268.236Z" fill="white"/>
</g>
<g id="Tadeo y Kimberly">
<path d="M113.654 332.184H105.428V355H102.07V332.184H93.8613V329.406H113.654V332.184Z" fill="white"/>
<path d="M126.68 355C126.492 354.625 126.34 353.957 126.223 352.996C124.711 354.566 122.906 355.352 120.809 355.352C118.934 355.352 117.393 354.824 116.186 353.77C114.99 352.703 114.393 351.355 114.393 349.727C114.393 347.746 115.143 346.211 116.643 345.121C118.154 344.02 120.275 343.469 123.006 343.469H126.17V341.975C126.17 340.838 125.83 339.936 125.15 339.268C124.471 338.588 123.469 338.248 122.145 338.248C120.984 338.248 120.012 338.541 119.227 339.127C118.441 339.713 118.049 340.422 118.049 341.254H114.779C114.779 340.305 115.113 339.391 115.781 338.512C116.461 337.621 117.375 336.918 118.523 336.402C119.684 335.887 120.955 335.629 122.338 335.629C124.529 335.629 126.246 336.18 127.488 337.281C128.73 338.371 129.375 339.877 129.422 341.799V350.553C129.422 352.299 129.645 353.688 130.09 354.719V355H126.68ZM121.283 352.521C122.303 352.521 123.27 352.258 124.184 351.73C125.098 351.203 125.76 350.518 126.17 349.674V345.771H123.621C119.637 345.771 117.645 346.938 117.645 349.27C117.645 350.289 117.984 351.086 118.664 351.66C119.344 352.234 120.217 352.521 121.283 352.521Z" fill="white"/>
<path d="M133.729 345.332C133.729 342.414 134.42 340.07 135.803 338.301C137.186 336.52 138.996 335.629 141.234 335.629C143.461 335.629 145.225 336.391 146.525 337.914V328H149.777V355H146.789L146.631 352.961C145.33 354.555 143.52 355.352 141.199 355.352C138.996 355.352 137.197 354.449 135.803 352.645C134.42 350.84 133.729 348.484 133.729 345.578V345.332ZM136.98 345.701C136.98 347.857 137.426 349.545 138.316 350.764C139.207 351.982 140.438 352.592 142.008 352.592C144.07 352.592 145.576 351.666 146.525 349.814V341.078C145.553 339.285 144.059 338.389 142.043 338.389C140.449 338.389 139.207 339.004 138.316 340.234C137.426 341.465 136.98 343.287 136.98 345.701Z" fill="white"/>
<path d="M162.732 355.352C160.154 355.352 158.057 354.508 156.439 352.82C154.822 351.121 154.014 348.854 154.014 346.018V345.42C154.014 343.533 154.371 341.852 155.086 340.375C155.812 338.887 156.82 337.727 158.109 336.895C159.41 336.051 160.816 335.629 162.328 335.629C164.801 335.629 166.723 336.443 168.094 338.072C169.465 339.701 170.15 342.033 170.15 345.068V346.422H157.266C157.312 348.297 157.857 349.814 158.9 350.975C159.955 352.123 161.291 352.697 162.908 352.697C164.057 352.697 165.029 352.463 165.826 351.994C166.623 351.525 167.32 350.904 167.918 350.131L169.904 351.678C168.311 354.127 165.92 355.352 162.732 355.352ZM162.328 338.301C161.016 338.301 159.914 338.781 159.023 339.742C158.133 340.691 157.582 342.027 157.371 343.75H166.898V343.504C166.805 341.852 166.359 340.574 165.562 339.672C164.766 338.758 163.688 338.301 162.328 338.301Z" fill="white"/>
<path d="M173.068 345.314C173.068 343.451 173.432 341.775 174.158 340.287C174.896 338.799 175.916 337.65 177.217 336.842C178.529 336.033 180.023 335.629 181.699 335.629C184.289 335.629 186.381 336.525 187.975 338.318C189.58 340.111 190.383 342.496 190.383 345.473V345.701C190.383 347.553 190.025 349.217 189.311 350.693C188.607 352.158 187.594 353.301 186.27 354.121C184.957 354.941 183.445 355.352 181.734 355.352C179.156 355.352 177.064 354.455 175.459 352.662C173.865 350.869 173.068 348.496 173.068 345.543V345.314ZM176.338 345.701C176.338 347.811 176.824 349.504 177.797 350.781C178.781 352.059 180.094 352.697 181.734 352.697C183.387 352.697 184.699 352.053 185.672 350.764C186.645 349.463 187.131 347.646 187.131 345.314C187.131 343.229 186.633 341.541 185.637 340.252C184.652 338.951 183.34 338.301 181.699 338.301C180.094 338.301 178.799 338.939 177.814 340.217C176.83 341.494 176.338 343.322 176.338 345.701Z" fill="white"/>
<path d="M209.613 350.236L214.043 335.98H217.523L209.877 357.936C208.693 361.1 206.812 362.682 204.234 362.682L203.619 362.629L202.406 362.4V359.764L203.285 359.834C204.387 359.834 205.242 359.611 205.852 359.166C206.473 358.721 206.982 357.906 207.381 356.723L208.102 354.789L201.316 335.98H204.867L209.613 350.236Z" fill="white"/>
<path d="M236.385 343.1L233.256 346.352V355H229.881V329.406H233.256V342.062L244.629 329.406H248.707L238.635 340.709L249.498 355H245.455L236.385 343.1Z" fill="white"/>
<path d="M255.475 355H252.223V335.98H255.475V355ZM251.959 330.936C251.959 330.408 252.117 329.963 252.434 329.6C252.762 329.236 253.242 329.055 253.875 329.055C254.508 329.055 254.988 329.236 255.316 329.6C255.645 329.963 255.809 330.408 255.809 330.936C255.809 331.463 255.645 331.902 255.316 332.254C254.988 332.605 254.508 332.781 253.875 332.781C253.242 332.781 252.762 332.605 252.434 332.254C252.117 331.902 251.959 331.463 251.959 330.936Z" fill="white"/>
<path d="M263.754 335.98L263.842 338.09C265.236 336.449 267.117 335.629 269.484 335.629C272.145 335.629 273.955 336.648 274.916 338.688C275.549 337.773 276.369 337.035 277.377 336.473C278.396 335.91 279.598 335.629 280.98 335.629C285.152 335.629 287.273 337.838 287.344 342.256V355H284.092V342.449C284.092 341.09 283.781 340.076 283.16 339.408C282.539 338.729 281.496 338.389 280.031 338.389C278.824 338.389 277.822 338.752 277.025 339.479C276.229 340.193 275.766 341.16 275.637 342.379V355H272.367V342.537C272.367 339.771 271.014 338.389 268.307 338.389C266.174 338.389 264.715 339.297 263.93 341.113V355H260.678V335.98H263.754Z" fill="white"/>
<path d="M308.367 345.701C308.367 348.607 307.699 350.945 306.363 352.715C305.027 354.473 303.234 355.352 300.984 355.352C298.582 355.352 296.725 354.502 295.412 352.803L295.254 355H292.266V328H295.518V338.072C296.83 336.443 298.641 335.629 300.949 335.629C303.258 335.629 305.068 336.502 306.381 338.248C307.705 339.994 308.367 342.385 308.367 345.42V345.701ZM305.115 345.332C305.115 343.117 304.688 341.406 303.832 340.199C302.977 338.992 301.746 338.389 300.141 338.389C297.996 338.389 296.455 339.385 295.518 341.377V349.604C296.514 351.596 298.066 352.592 300.176 352.592C301.734 352.592 302.947 351.988 303.814 350.781C304.682 349.574 305.115 347.758 305.115 345.332Z" fill="white"/>
<path d="M320.373 355.352C317.795 355.352 315.697 354.508 314.08 352.82C312.463 351.121 311.654 348.854 311.654 346.018V345.42C311.654 343.533 312.012 341.852 312.727 340.375C313.453 338.887 314.461 337.727 315.75 336.895C317.051 336.051 318.457 335.629 319.969 335.629C322.441 335.629 324.363 336.443 325.734 338.072C327.105 339.701 327.791 342.033 327.791 345.068V346.422H314.906C314.953 348.297 315.498 349.814 316.541 350.975C317.596 352.123 318.932 352.697 320.549 352.697C321.697 352.697 322.67 352.463 323.467 351.994C324.264 351.525 324.961 350.904 325.559 350.131L327.545 351.678C325.951 354.127 323.561 355.352 320.373 355.352ZM319.969 338.301C318.656 338.301 317.555 338.781 316.664 339.742C315.773 340.691 315.223 342.027 315.012 343.75H324.539V343.504C324.445 341.852 324 340.574 323.203 339.672C322.406 338.758 321.328 338.301 319.969 338.301Z" fill="white"/>
<path d="M340.764 338.898C340.271 338.816 339.738 338.775 339.164 338.775C337.031 338.775 335.584 339.684 334.822 341.5V355H331.57V335.98H334.734L334.787 338.178C335.854 336.479 337.365 335.629 339.322 335.629C339.955 335.629 340.436 335.711 340.764 335.875V338.898Z" fill="white"/>
<path d="M347.303 355H344.051V328H347.303V355Z" fill="white"/>
<path d="M358.746 350.236L363.176 335.98H366.656L359.01 357.936C357.826 361.1 355.945 362.682 353.367 362.682L352.752 362.629L351.539 362.4V359.764L352.418 359.834C353.52 359.834 354.375 359.611 354.984 359.166C355.605 358.721 356.115 357.906 356.514 356.723L357.234 354.789L350.449 335.98H354L358.746 350.236Z" fill="white"/>
</g>
<g id="Tadeo y Ana">
<path d="M447.654 332.184H439.428V355H436.07V332.184H427.861V329.406H447.654V332.184Z" fill="white"/>
<path d="M460.68 355C460.492 354.625 460.34 353.957 460.223 352.996C458.711 354.566 456.906 355.352 454.809 355.352C452.934 355.352 451.393 354.824 450.186 353.77C448.99 352.703 448.393 351.355 448.393 349.727C448.393 347.746 449.143 346.211 450.643 345.121C452.154 344.02 454.275 343.469 457.006 343.469H460.17V341.975C460.17 340.838 459.83 339.936 459.15 339.268C458.471 338.588 457.469 338.248 456.145 338.248C454.984 338.248 454.012 338.541 453.227 339.127C452.441 339.713 452.049 340.422 452.049 341.254H448.779C448.779 340.305 449.113 339.391 449.781 338.512C450.461 337.621 451.375 336.918 452.523 336.402C453.684 335.887 454.955 335.629 456.338 335.629C458.529 335.629 460.246 336.18 461.488 337.281C462.73 338.371 463.375 339.877 463.422 341.799V350.553C463.422 352.299 463.645 353.688 464.09 354.719V355H460.68ZM455.283 352.521C456.303 352.521 457.27 352.258 458.184 351.73C459.098 351.203 459.76 350.518 460.17 349.674V345.771H457.621C453.637 345.771 451.645 346.938 451.645 349.27C451.645 350.289 451.984 351.086 452.664 351.66C453.344 352.234 454.217 352.521 455.283 352.521Z" fill="white"/>
<path d="M467.729 345.332C467.729 342.414 468.42 340.07 469.803 338.301C471.186 336.52 472.996 335.629 475.234 335.629C477.461 335.629 479.225 336.391 480.525 337.914V328H483.777V355H480.789L480.631 352.961C479.33 354.555 477.52 355.352 475.199 355.352C472.996 355.352 471.197 354.449 469.803 352.645C468.42 350.84 467.729 348.484 467.729 345.578V345.332ZM470.98 345.701C470.98 347.857 471.426 349.545 472.316 350.764C473.207 351.982 474.438 352.592 476.008 352.592C478.07 352.592 479.576 351.666 480.525 349.814V341.078C479.553 339.285 478.059 338.389 476.043 338.389C474.449 338.389 473.207 339.004 472.316 340.234C471.426 341.465 470.98 343.287 470.98 345.701Z" fill="white"/>
<path d="M496.732 355.352C494.154 355.352 492.057 354.508 490.439 352.82C488.822 351.121 488.014 348.854 488.014 346.018V345.42C488.014 343.533 488.371 341.852 489.086 340.375C489.812 338.887 490.82 337.727 492.109 336.895C493.41 336.051 494.816 335.629 496.328 335.629C498.801 335.629 500.723 336.443 502.094 338.072C503.465 339.701 504.15 342.033 504.15 345.068V346.422H491.266C491.312 348.297 491.857 349.814 492.9 350.975C493.955 352.123 495.291 352.697 496.908 352.697C498.057 352.697 499.029 352.463 499.826 351.994C500.623 351.525 501.32 350.904 501.918 350.131L503.904 351.678C502.311 354.127 499.92 355.352 496.732 355.352ZM496.328 338.301C495.016 338.301 493.914 338.781 493.023 339.742C492.133 340.691 491.582 342.027 491.371 343.75H500.898V343.504C500.805 341.852 500.359 340.574 499.562 339.672C498.766 338.758 497.688 338.301 496.328 338.301Z" fill="white"/>
<path d="M507.068 345.314C507.068 343.451 507.432 341.775 508.158 340.287C508.896 338.799 509.916 337.65 511.217 336.842C512.529 336.033 514.023 335.629 515.699 335.629C518.289 335.629 520.381 336.525 521.975 338.318C523.58 340.111 524.383 342.496 524.383 345.473V345.701C524.383 347.553 524.025 349.217 523.311 350.693C522.607 352.158 521.594 353.301 520.27 354.121C518.957 354.941 517.445 355.352 515.734 355.352C513.156 355.352 511.064 354.455 509.459 352.662C507.865 350.869 507.068 348.496 507.068 345.543V345.314ZM510.338 345.701C510.338 347.811 510.824 349.504 511.797 350.781C512.781 352.059 514.094 352.697 515.734 352.697C517.387 352.697 518.699 352.053 519.672 350.764C520.645 349.463 521.131 347.646 521.131 345.314C521.131 343.229 520.633 341.541 519.637 340.252C518.652 338.951 517.34 338.301 515.699 338.301C514.094 338.301 512.799 338.939 511.814 340.217C510.83 341.494 510.338 343.322 510.338 345.701Z" fill="white"/>
<path d="M543.613 350.236L548.043 335.98H551.523L543.877 357.936C542.693 361.1 540.812 362.682 538.234 362.682L537.619 362.629L536.406 362.4V359.764L537.285 359.834C538.387 359.834 539.242 359.611 539.852 359.166C540.473 358.721 540.982 357.906 541.381 356.723L542.102 354.789L535.316 335.98H538.867L543.613 350.236Z" fill="white"/>
<path d="M578.014 348.32H567.291L564.883 355H561.402L571.176 329.406H574.129L583.92 355H580.457L578.014 348.32ZM568.311 345.543H577.012L572.652 333.572L568.311 345.543Z" fill="white"/>
<path d="M589.932 335.98L590.037 338.371C591.49 336.543 593.389 335.629 595.732 335.629C599.752 335.629 601.779 337.896 601.814 342.432V355H598.562V342.414C598.551 341.043 598.234 340.029 597.613 339.373C597.004 338.717 596.049 338.389 594.748 338.389C593.693 338.389 592.768 338.67 591.971 339.232C591.174 339.795 590.553 340.533 590.107 341.447V355H586.855V335.98H589.932Z" fill="white"/>
<path d="M618.461 355C618.273 354.625 618.121 353.957 618.004 352.996C616.492 354.566 614.688 355.352 612.59 355.352C610.715 355.352 609.174 354.824 607.967 353.77C606.771 352.703 606.174 351.355 606.174 349.727C606.174 347.746 606.924 346.211 608.424 345.121C609.936 344.02 612.057 343.469 614.787 343.469H617.951V341.975C617.951 340.838 617.611 339.936 616.932 339.268C616.252 338.588 615.25 338.248 613.926 338.248C612.766 338.248 611.793 338.541 611.008 339.127C610.223 339.713 609.83 340.422 609.83 341.254H606.561C606.561 340.305 606.895 339.391 607.562 338.512C608.242 337.621 609.156 336.918 610.305 336.402C611.465 335.887 612.736 335.629 614.119 335.629C616.311 335.629 618.027 336.18 619.27 337.281C620.512 338.371 621.156 339.877 621.203 341.799V350.553C621.203 352.299 621.426 353.688 621.871 354.719V355H618.461ZM613.064 352.521C614.084 352.521 615.051 352.258 615.965 351.73C616.879 351.203 617.541 350.518 617.951 349.674V345.771H615.402C611.418 345.771 609.426 346.938 609.426 349.27C609.426 350.289 609.766 351.086 610.445 351.66C611.125 352.234 611.998 352.521 613.064 352.521Z" fill="white"/>
</g>
</g>
<g id="I. ( V )">
<path d="M69.5918 448H66.2168V422.406H69.5918V448Z" fill="white"/>
<path d="M75.3398 446.295C75.3398 445.732 75.5039 445.264 75.832 444.889C76.1719 444.514 76.6758 444.326 77.3438 444.326C78.0117 444.326 78.5156 444.514 78.8555 444.889C79.207 445.264 79.3828 445.732 79.3828 446.295C79.3828 446.834 79.207 447.285 78.8555 447.648C78.5156 448.012 78.0117 448.193 77.3438 448.193C76.6758 448.193 76.1719 448.012 75.832 447.648C75.5039 447.285 75.3398 446.834 75.3398 446.295Z" fill="white"/>
<path d="M93.5684 437.611C93.5684 434.963 93.9199 432.42 94.623 429.982C95.3379 427.545 96.3984 425.33 97.8047 423.338C99.2109 421.346 100.67 419.939 102.182 419.119L102.85 421.264C101.139 422.576 99.7324 424.58 98.6309 427.275C97.541 429.971 96.9434 432.988 96.8379 436.328L96.8203 437.822C96.8203 442.346 97.6465 446.271 99.2988 449.6C100.295 451.592 101.479 453.15 102.85 454.275L102.182 456.262C100.623 455.395 99.1348 453.941 97.7168 451.902C94.9512 447.918 93.5684 443.154 93.5684 437.611Z" fill="white"/>
<path d="M123.908 443.518L131.221 422.406H134.912L125.42 448H122.432L112.957 422.406H116.631L123.908 443.518Z" fill="white"/>
<path d="M154.283 437.787C154.283 440.4 153.938 442.908 153.246 445.311C152.566 447.701 151.518 449.91 150.1 451.938C148.693 453.965 147.217 455.406 145.67 456.262L144.984 454.275C146.789 452.893 148.236 450.748 149.326 447.842C150.428 444.924 150.99 441.689 151.014 438.139V437.576C151.014 435.115 150.756 432.83 150.24 430.721C149.725 428.6 149.004 426.701 148.078 425.025C147.164 423.35 146.133 422.043 144.984 421.105L145.67 419.119C147.217 419.975 148.688 421.404 150.082 423.408C151.488 425.412 152.537 427.621 153.229 430.035C153.932 432.449 154.283 435.033 154.283 437.787Z" fill="white"/>
</g>
<g id="II. ( N.S )">
<path d="M283.592 448H280.217V422.406H283.592V448Z" fill="white"/>
<path d="M293.4 448H290.025V422.406H293.4V448Z" fill="white"/>
<path d="M299.148 446.295C299.148 445.732 299.312 445.264 299.641 444.889C299.98 444.514 300.484 444.326 301.152 444.326C301.82 444.326 302.324 444.514 302.664 444.889C303.016 445.264 303.191 445.732 303.191 446.295C303.191 446.834 303.016 447.285 302.664 447.648C302.324 448.012 301.82 448.193 301.152 448.193C300.484 448.193 299.98 448.012 299.641 447.648C299.312 447.285 299.148 446.834 299.148 446.295Z" fill="white"/>
<path d="M317.377 437.611C317.377 434.963 317.729 432.42 318.432 429.982C319.146 427.545 320.207 425.33 321.613 423.338C323.02 421.346 324.479 419.939 325.99 419.119L326.658 421.264C324.947 422.576 323.541 424.58 322.439 427.275C321.35 429.971 320.752 432.988 320.646 436.328L320.629 437.822C320.629 442.346 321.455 446.271 323.107 449.6C324.104 451.592 325.287 453.15 326.658 454.275L325.99 456.262C324.432 455.395 322.943 453.941 321.525 451.902C318.76 447.918 317.377 443.154 317.377 437.611Z" fill="white"/>
<path d="M358.914 448H355.521L342.637 428.277V448H339.244V422.406H342.637L355.557 442.217V422.406H358.914V448Z" fill="white"/>
<path d="M364.469 446.295C364.469 445.732 364.633 445.264 364.961 444.889C365.301 444.514 365.805 444.326 366.473 444.326C367.141 444.326 367.645 444.514 367.984 444.889C368.336 445.264 368.512 445.732 368.512 446.295C368.512 446.834 368.336 447.285 367.984 447.648C367.645 448.012 367.141 448.193 366.473 448.193C365.805 448.193 365.301 448.012 364.961 447.648C364.633 447.285 364.469 446.834 364.469 446.295Z" fill="white"/>
<path d="M381.941 436.592C379.047 435.76 376.938 434.74 375.613 433.533C374.301 432.314 373.645 430.814 373.645 429.033C373.645 427.018 374.447 425.354 376.053 424.041C377.67 422.717 379.768 422.055 382.346 422.055C384.104 422.055 385.668 422.395 387.039 423.074C388.422 423.754 389.488 424.691 390.238 425.887C391 427.082 391.381 428.389 391.381 429.807H387.988C387.988 428.26 387.496 427.047 386.512 426.168C385.527 425.277 384.139 424.832 382.346 424.832C380.682 424.832 379.381 425.201 378.443 425.939C377.518 426.666 377.055 427.68 377.055 428.98C377.055 430.023 377.494 430.908 378.373 431.635C379.264 432.35 380.77 433.006 382.891 433.604C385.023 434.201 386.688 434.863 387.883 435.59C389.09 436.305 389.98 437.143 390.555 438.104C391.141 439.064 391.434 440.195 391.434 441.496C391.434 443.57 390.625 445.234 389.008 446.488C387.391 447.73 385.229 448.352 382.521 448.352C380.764 448.352 379.123 448.018 377.6 447.35C376.076 446.67 374.898 445.744 374.066 444.572C373.246 443.4 372.836 442.07 372.836 440.582H376.229C376.229 442.129 376.797 443.354 377.934 444.256C379.082 445.146 380.611 445.592 382.521 445.592C384.303 445.592 385.668 445.229 386.617 444.502C387.566 443.775 388.041 442.785 388.041 441.531C388.041 440.277 387.602 439.311 386.723 438.631C385.844 437.939 384.25 437.26 381.941 436.592Z" fill="white"/>
<path d="M411.701 437.787C411.701 440.4 411.355 442.908 410.664 445.311C409.984 447.701 408.936 449.91 407.518 451.938C406.111 453.965 404.635 455.406 403.088 456.262L402.402 454.275C404.207 452.893 405.654 450.748 406.744 447.842C407.846 444.924 408.408 441.689 408.432 438.139V437.576C408.432 435.115 408.174 432.83 407.658 430.721C407.143 428.6 406.422 426.701 405.496 425.025C404.582 423.35 403.551 422.043 402.402 421.105L403.088 419.119C404.635 419.975 406.105 421.404 407.5 423.408C408.906 425.412 409.955 427.621 410.646 430.035C411.35 432.449 411.701 435.033 411.701 437.787Z" fill="white"/>
</g>
<g id="III. ( V )">
<path d="M501.592 448H498.217V422.406H501.592V448Z" fill="white"/>
<path d="M511.4 448H508.025V422.406H511.4V448Z" fill="white"/>
<path d="M521.209 448H517.834V422.406H521.209V448Z" fill="white"/>
<path d="M526.957 446.295C526.957 445.732 527.121 445.264 527.449 444.889C527.789 444.514 528.293 444.326 528.961 444.326C529.629 444.326 530.133 444.514 530.473 444.889C530.824 445.264 531 445.732 531 446.295C531 446.834 530.824 447.285 530.473 447.648C530.133 448.012 529.629 448.193 528.961 448.193C528.293 448.193 527.789 448.012 527.449 447.648C527.121 447.285 526.957 446.834 526.957 446.295Z" fill="white"/>
<path d="M545.186 437.611C545.186 434.963 545.537 432.42 546.24 429.982C546.955 427.545 548.016 425.33 549.422 423.338C550.828 421.346 552.287 419.939 553.799 419.119L554.467 421.264C552.756 422.576 551.35 424.58 550.248 427.275C549.158 429.971 548.561 432.988 548.455 436.328L548.438 437.822C548.438 442.346 549.264 446.271 550.916 449.6C551.912 451.592 553.096 453.15 554.467 454.275L553.799 456.262C552.24 455.395 550.752 453.941 549.334 451.902C546.568 447.918 545.186 443.154 545.186 437.611Z" fill="white"/>
<path d="M575.525 443.518L582.838 422.406H586.529L577.037 448H574.049L564.574 422.406H568.248L575.525 443.518Z" fill="white"/>
<path d="M605.9 437.787C605.9 440.4 605.555 442.908 604.863 445.311C604.184 447.701 603.135 449.91 601.717 451.938C600.311 453.965 598.834 455.406 597.287 456.262L596.602 454.275C598.406 452.893 599.854 450.748 600.943 447.842C602.045 444.924 602.607 441.689 602.631 438.139V437.576C602.631 435.115 602.373 432.83 601.857 430.721C601.342 428.6 600.621 426.701 599.695 425.025C598.781 423.35 597.75 422.043 596.602 421.105L597.287 419.119C598.834 419.975 600.305 421.404 601.699 423.408C603.105 425.412 604.154 427.621 604.846 430.035C605.549 432.449 605.9 435.033 605.9 437.787Z" fill="white"/>
</g>
</g>
</svg>
