<svg width="779" height="354" viewBox="0 0 779 354" fill="none" xmlns="http://www.w3.org/2000/svg">
<g id="0128209">
<path id="Union" fill-rule="evenodd" clip-rule="evenodd" d="M120.549 54.2008H118.402L110.246 41.7164V54.2008H108.098V38H110.246L118.424 50.5401V38H120.549V54.2008ZM113.756 257.454C114.312 258.01 115.214 258.01 115.77 257.454L124.834 248.39C125.39 247.834 125.39 246.932 124.834 246.376C124.278 245.82 123.376 245.82 122.82 246.376L116.187 253.008V166.594L177.245 227.652H167.865C167.079 227.652 166.441 228.289 166.441 229.076C166.441 229.863 167.079 230.5 167.865 230.5H180.683C181.47 230.5 182.108 229.863 182.108 229.076V216.258C182.108 215.471 181.47 214.833 180.683 214.833C179.897 214.833 179.259 215.471 179.259 216.258V225.637L118.202 164.58H203.915L197.282 171.212C196.726 171.769 196.726 172.67 197.282 173.227C197.838 173.783 198.74 173.783 199.296 173.227L208.36 164.163C208.916 163.607 208.916 162.705 208.36 162.149L199.296 153.085C198.74 152.529 197.838 152.529 197.282 153.085C196.726 153.641 196.726 154.543 197.282 155.099L203.915 161.731H118.606L179.259 101.079V110.459C179.259 111.245 179.897 111.883 180.683 111.883C181.47 111.883 182.108 111.245 182.108 110.459V97.6403C182.108 96.8537 181.47 96.216 180.683 96.216H167.865C167.079 96.216 166.441 96.8537 166.441 97.6403C166.441 98.4269 167.079 99.0645 167.865 99.0645H177.245L116.187 160.122V74.0072L122.82 80.6397C123.376 81.1959 124.278 81.1959 124.834 80.6397C125.39 80.0835 125.39 79.1817 124.834 78.6255L115.77 69.5616C115.214 69.0054 114.312 69.0054 113.756 69.5616L104.692 78.6255C104.136 79.1817 104.136 80.0835 104.692 80.6397C105.248 81.1959 106.15 81.1959 106.706 80.6397L113.339 74.0072V159.717L52.6862 99.0646H62.066C62.8526 99.0646 63.4903 98.4269 63.4903 97.6403C63.4903 96.8538 62.8526 96.2161 62.066 96.2161H49.2478C48.4612 96.2161 47.8236 96.8538 47.8236 97.6403V110.459C47.8236 111.245 48.4612 111.883 49.2478 111.883C50.0344 111.883 50.672 111.245 50.672 110.459V101.079L111.325 161.731H24.9134L31.5459 155.099C32.1021 154.543 32.1021 153.641 31.5459 153.085C30.9897 152.529 30.088 152.529 29.5318 153.085L20.4679 162.149C19.9117 162.705 19.9117 163.607 20.4679 164.163L29.5318 173.227C30.088 173.783 30.9897 173.783 31.5459 173.227C32.1021 172.67 32.1021 171.769 31.5459 171.212L24.9134 164.58H111.729L50.6721 225.637V216.258C50.6721 215.471 50.0344 214.833 49.2478 214.833C48.4612 214.833 47.8236 215.471 47.8236 216.258V229.076C47.8236 229.862 48.4612 230.5 49.2478 230.5H62.066C62.8526 230.5 63.4903 229.862 63.4903 229.076C63.4903 228.289 62.8526 227.652 62.066 227.652H52.6862L113.339 166.999V253.008L106.706 246.376C106.15 245.82 105.248 245.82 104.692 246.376C104.136 246.932 104.136 247.834 104.692 248.39L113.756 257.454ZM108.866 278.62C109.704 279.384 111.039 280.029 112.872 280.556C114.333 280.979 115.342 281.409 115.898 281.847C116.455 282.277 116.733 282.889 116.733 283.683C116.733 284.477 116.432 285.103 115.831 285.563C115.231 286.023 114.366 286.253 113.239 286.253C112.03 286.253 111.062 285.971 110.335 285.407C109.615 284.836 109.255 284.061 109.255 283.082H107.108C107.108 284.024 107.368 284.866 107.887 285.608C108.413 286.35 109.159 286.936 110.123 287.366C111.088 287.789 112.126 288 113.239 288C114.952 288 116.321 287.607 117.345 286.821C118.368 286.027 118.88 284.974 118.88 283.661C118.88 282.837 118.695 282.121 118.324 281.513C117.96 280.905 117.397 280.374 116.633 279.922C115.876 279.462 114.823 279.043 113.473 278.665C112.13 278.286 111.177 277.871 110.613 277.418C110.057 276.958 109.778 276.398 109.778 275.738C109.778 274.915 110.071 274.273 110.657 273.813C111.251 273.346 112.074 273.112 113.128 273.112C114.263 273.112 115.142 273.394 115.765 273.958C116.388 274.514 116.699 275.282 116.699 276.261H118.847C118.847 275.364 118.606 274.536 118.124 273.78C117.649 273.023 116.974 272.43 116.098 271.999C115.231 271.569 114.24 271.354 113.128 271.354C111.496 271.354 110.168 271.773 109.144 272.611C108.128 273.442 107.62 274.496 107.62 275.772C107.62 276.899 108.035 277.849 108.866 278.62ZM227.635 155.667H220.614V161.409H228.77V163.156H218.477V146.955H228.659V148.713H220.614V153.92H227.635V155.667ZM12.2285 159.74C12.7626 158.553 13.0296 157.166 13.0296 155.578V154.555C13.0296 152.975 12.7626 151.591 12.2285 150.404C11.6944 149.21 10.9304 148.301 9.93635 147.678C8.94977 147.048 7.8074 146.732 6.50926 146.732C5.23337 146.732 4.09842 147.051 3.10442 147.689C2.11783 148.32 1.35378 149.232 0.812266 150.427C0.270755 151.621 0 152.997 0 154.555V155.723C0.0148359 157.251 0.293009 158.597 0.83452 159.762C1.38345 160.919 2.15121 161.813 3.1378 162.444C4.12438 163.067 5.25562 163.378 6.53151 163.378C7.83707 163.378 8.97944 163.067 9.95861 162.444C10.9378 161.821 11.6944 160.919 12.2285 159.74ZM9.7472 150.115C10.5187 151.139 10.9044 152.611 10.9044 154.532V155.734C10.8821 157.611 10.4927 159.054 9.73607 160.062C8.97944 161.064 7.91125 161.565 6.53151 161.565C5.15919 161.565 4.07988 161.034 3.29357 159.973C2.51469 158.905 2.12524 157.44 2.12524 155.578V154.388C2.1475 152.563 2.54436 151.139 3.31583 150.115C4.09471 149.084 5.15919 148.568 6.50926 148.568C7.89642 148.568 8.97573 149.084 9.7472 150.115ZM52.0629 84.366C52.0629 85.9534 51.7959 87.3406 51.2618 88.5274C50.7277 89.7069 49.9711 90.6082 48.9919 91.2313C48.0127 91.8544 46.8704 92.166 45.5648 92.166C44.2889 92.166 43.1577 91.8544 42.1711 91.2313C41.1845 90.6008 40.4168 89.7069 39.8678 88.5497C39.3263 87.3851 39.0481 86.0387 39.0333 84.5106V83.3423C39.0333 81.7845 39.3041 80.4085 39.8456 79.2142C40.3871 78.0199 41.1511 77.1075 42.1377 76.477C43.1317 75.839 44.2667 75.5201 45.5426 75.5201C46.8407 75.5201 47.9831 75.8353 48.9697 76.4658C49.9637 77.089 50.7277 77.9977 51.2618 79.1919C51.7959 80.3788 52.0629 81.7623 52.0629 83.3423V84.366ZM49.9377 83.32C49.9377 81.3988 49.552 79.9263 48.7805 78.9026C48.009 77.8715 46.9297 77.356 45.5426 77.356C44.1925 77.356 43.128 77.8715 42.3491 78.9026C41.5777 79.9263 41.1808 81.3506 41.1586 83.1754V84.366C41.1586 86.2279 41.548 87.6929 42.3269 88.7611C43.1132 89.8219 44.1925 90.3523 45.5648 90.3523C46.9446 90.3523 48.0127 89.8515 48.7694 88.8501C49.526 87.8413 49.9154 86.3985 49.9377 84.5217V83.32ZM35.8065 91.9434H33.659L25.503 79.459V91.9434H23.3555V75.7426H25.503L33.6812 88.2826V75.7426H35.8065V91.9434ZM196.735 97.6404H198.883V81.4396H196.758V93.9797L188.579 81.4396H186.432V97.6404H188.579V85.156L196.735 97.6404ZM204.813 90.152H211.835V88.4051H204.813V83.1977H212.858V81.4396H202.677V97.6404H212.97V95.8935H204.813V90.152ZM21.0077 229.995C19.1754 229.469 17.8402 228.823 17.002 228.059C16.1712 227.288 15.7558 226.338 15.7558 225.211C15.7558 223.935 16.2639 222.881 17.2802 222.051C18.3038 221.212 19.6316 220.793 21.2636 220.793C22.3763 220.793 23.3666 221.008 24.2345 221.439C25.1098 221.869 25.7848 222.462 26.2596 223.219C26.7418 223.976 26.9828 224.803 26.9828 225.7H24.8353C24.8353 224.721 24.5238 223.953 23.9007 223.397C23.2776 222.833 22.3985 222.551 21.2636 222.551C20.2102 222.551 19.3869 222.785 18.7934 223.252C18.2074 223.712 17.9144 224.354 17.9144 225.177C17.9144 225.838 18.1926 226.398 18.7489 226.857C19.3127 227.31 20.2659 227.725 21.6085 228.104C22.9586 228.482 24.0119 228.901 24.7686 229.361C25.5326 229.814 26.0964 230.344 26.4599 230.952C26.8308 231.56 27.0162 232.276 27.0162 233.1C27.0162 234.413 26.5044 235.466 25.4807 236.26C24.457 237.046 23.0884 237.439 21.3749 237.439C20.2622 237.439 19.2237 237.228 18.2593 236.805C17.295 236.375 16.5495 235.789 16.0228 235.047C15.5036 234.305 15.2439 233.463 15.2439 232.521H17.3914C17.3914 233.5 17.7512 234.275 18.4707 234.847C19.1977 235.41 20.1657 235.692 21.3749 235.692C22.5024 235.692 23.3666 235.462 23.9674 235.002C24.5683 234.543 24.8687 233.916 24.8687 233.122C24.8687 232.328 24.5905 231.716 24.0342 231.286C23.4779 230.848 22.469 230.418 21.0077 229.995ZM42.2267 229.639C42.2267 231.227 41.9597 232.614 41.4256 233.801C40.8915 234.98 40.1349 235.881 39.1557 236.505C38.1765 237.128 37.0342 237.439 35.7286 237.439C34.4527 237.439 33.3215 237.128 32.3349 236.505C31.3483 235.874 30.5805 234.98 30.0316 233.823C29.4901 232.658 29.2119 231.312 29.1971 229.784V228.616C29.1971 227.058 29.4679 225.682 30.0094 224.487C30.5509 223.293 31.3149 222.381 32.3015 221.75C33.2955 221.112 34.4305 220.793 35.7064 220.793C37.0045 220.793 38.1469 221.109 39.1335 221.739C40.1275 222.362 40.8915 223.271 41.4256 224.465C41.9597 225.652 42.2267 227.036 42.2267 228.616V229.639ZM40.1015 228.593C40.1015 226.672 39.7158 225.2 38.9443 224.176C38.1728 223.145 37.0935 222.629 35.7064 222.629C34.3563 222.629 33.2918 223.145 32.5129 224.176C31.7415 225.2 31.3446 226.624 31.3223 228.449V229.639C31.3223 231.501 31.7118 232.966 32.4907 234.034C33.277 235.095 34.3563 235.626 35.7286 235.626C37.1084 235.626 38.1765 235.125 38.9332 234.123C39.6898 233.115 40.0792 231.672 40.1015 229.795V228.593ZM187.2 233.756C188.038 234.52 189.373 235.166 191.205 235.692C192.667 236.115 193.675 236.545 194.232 236.983C194.788 237.413 195.066 238.025 195.066 238.819C195.066 239.613 194.766 240.24 194.165 240.699C193.564 241.159 192.7 241.389 191.572 241.389C190.363 241.389 189.395 241.107 188.668 240.544C187.949 239.972 187.589 239.197 187.589 238.218H185.442C185.442 239.16 185.701 240.002 186.22 240.744C186.747 241.486 187.493 242.072 188.457 242.502C189.421 242.925 190.46 243.136 191.572 243.136C193.286 243.136 194.655 242.743 195.678 241.957C196.702 241.163 197.214 240.11 197.214 238.797C197.214 237.973 197.028 237.258 196.658 236.649C196.294 236.041 195.73 235.511 194.966 235.058C194.21 234.598 193.156 234.179 191.806 233.801C190.464 233.422 189.51 233.007 188.947 232.555C188.39 232.095 188.112 231.535 188.112 230.874C188.112 230.051 188.405 229.409 188.991 228.949C189.584 228.482 190.408 228.248 191.461 228.248C192.596 228.248 193.475 228.53 194.098 229.094C194.721 229.65 195.033 230.418 195.033 231.397H197.18C197.18 230.5 196.939 229.673 196.457 228.916C195.982 228.159 195.307 227.566 194.432 227.136C193.564 226.705 192.574 226.49 191.461 226.49C189.829 226.49 188.501 226.909 187.478 227.748C186.462 228.578 185.953 229.632 185.953 230.908C185.953 232.035 186.369 232.985 187.2 233.756ZM202.099 235.425H209.12V233.678H202.099V228.471H210.143V226.713H199.962V242.914H210.255V241.167H202.099V235.425Z" fill="white"/>
<g id="Group 143">
<g id="Group 141">
<g id="Jorge">
<path d="M697.172 98.25H700.188V114.359C700.188 116.536 699.531 118.24 698.219 119.469C696.917 120.698 695.177 121.312 693 121.312C690.74 121.312 688.979 120.734 687.719 119.578C686.458 118.422 685.828 116.802 685.828 114.719H688.828C688.828 116.021 689.182 117.036 689.891 117.766C690.609 118.495 691.646 118.859 693 118.859C694.24 118.859 695.24 118.469 696 117.688C696.771 116.906 697.161 115.812 697.172 114.406V98.25Z" fill="white"/>
<path d="M704.078 112.391C704.078 110.734 704.401 109.245 705.047 107.922C705.703 106.599 706.609 105.578 707.766 104.859C708.932 104.141 710.26 103.781 711.75 103.781C714.052 103.781 715.911 104.578 717.328 106.172C718.755 107.766 719.469 109.885 719.469 112.531V112.734C719.469 114.38 719.151 115.859 718.516 117.172C717.891 118.474 716.99 119.49 715.812 120.219C714.646 120.948 713.302 121.312 711.781 121.312C709.49 121.312 707.63 120.516 706.203 118.922C704.786 117.328 704.078 115.219 704.078 112.594V112.391ZM706.984 112.734C706.984 114.609 707.417 116.115 708.281 117.25C709.156 118.385 710.323 118.953 711.781 118.953C713.25 118.953 714.417 118.38 715.281 117.234C716.146 116.078 716.578 114.464 716.578 112.391C716.578 110.536 716.135 109.036 715.25 107.891C714.375 106.734 713.208 106.156 711.75 106.156C710.323 106.156 709.172 106.724 708.297 107.859C707.422 108.995 706.984 110.62 706.984 112.734Z" fill="white"/>
<path d="M731.266 106.688C730.828 106.615 730.354 106.578 729.844 106.578C727.948 106.578 726.661 107.385 725.984 109V121H723.094V104.094H725.906L725.953 106.047C726.901 104.536 728.245 103.781 729.984 103.781C730.547 103.781 730.974 103.854 731.266 104V106.688Z" fill="white"/>
<path d="M732.938 112.406C732.938 109.771 733.547 107.677 734.766 106.125C735.984 104.562 737.599 103.781 739.609 103.781C741.672 103.781 743.281 104.51 744.438 105.969L744.578 104.094H747.219V120.594C747.219 122.781 746.568 124.505 745.266 125.766C743.974 127.026 742.234 127.656 740.047 127.656C738.828 127.656 737.635 127.396 736.469 126.875C735.302 126.354 734.411 125.641 733.797 124.734L735.297 123C736.536 124.531 738.052 125.297 739.844 125.297C741.25 125.297 742.344 124.901 743.125 124.109C743.917 123.318 744.312 122.203 744.312 120.766V119.312C743.156 120.646 741.578 121.312 739.578 121.312C737.599 121.312 735.995 120.516 734.766 118.922C733.547 117.328 732.938 115.156 732.938 112.406ZM735.844 112.734C735.844 114.641 736.234 116.141 737.016 117.234C737.797 118.318 738.891 118.859 740.297 118.859C742.12 118.859 743.458 118.031 744.312 116.375V108.656C743.427 107.042 742.099 106.234 740.328 106.234C738.922 106.234 737.823 106.781 737.031 107.875C736.24 108.969 735.844 110.589 735.844 112.734Z" fill="white"/>
<path d="M758.609 121.312C756.318 121.312 754.453 120.562 753.016 119.062C751.578 117.552 750.859 115.536 750.859 113.016V112.484C750.859 110.807 751.177 109.312 751.812 108C752.458 106.677 753.354 105.646 754.5 104.906C755.656 104.156 756.906 103.781 758.25 103.781C760.448 103.781 762.156 104.505 763.375 105.953C764.594 107.401 765.203 109.474 765.203 112.172V113.375H753.75C753.792 115.042 754.276 116.391 755.203 117.422C756.141 118.443 757.328 118.953 758.766 118.953C759.786 118.953 760.651 118.745 761.359 118.328C762.068 117.911 762.688 117.359 763.219 116.672L764.984 118.047C763.568 120.224 761.443 121.312 758.609 121.312ZM758.25 106.156C757.083 106.156 756.104 106.583 755.312 107.438C754.521 108.281 754.031 109.469 753.844 111H762.312V110.781C762.229 109.312 761.833 108.177 761.125 107.375C760.417 106.562 759.458 106.156 758.25 106.156Z" fill="white"/>
</g>
<path id="Arrow 10 (Stroke)" fill-rule="evenodd" clip-rule="evenodd" d="M631.836 219.142L613.873 217.996C612.77 217.926 611.934 216.975 612.004 215.873L613.151 197.909C613.221 196.807 614.172 195.97 615.274 196.041C616.376 196.111 617.213 197.062 617.143 198.164L616.304 211.309L712.679 126.499L715.321 129.501L618.946 214.312L632.091 215.151C633.193 215.221 634.03 216.172 633.959 217.274C633.889 218.376 632.938 219.213 631.836 219.142Z" fill="#2CF30B"/>
<g id="SO">
<path d="M679.344 207.859C676.771 207.12 674.896 206.214 673.719 205.141C672.552 204.057 671.969 202.724 671.969 201.141C671.969 199.349 672.682 197.87 674.109 196.703C675.547 195.526 677.411 194.938 679.703 194.938C681.266 194.938 682.656 195.24 683.875 195.844C685.104 196.448 686.052 197.281 686.719 198.344C687.396 199.406 687.734 200.568 687.734 201.828H684.719C684.719 200.453 684.281 199.375 683.406 198.594C682.531 197.802 681.297 197.406 679.703 197.406C678.224 197.406 677.068 197.734 676.234 198.391C675.411 199.036 675 199.938 675 201.094C675 202.021 675.391 202.807 676.172 203.453C676.964 204.089 678.302 204.672 680.188 205.203C682.083 205.734 683.562 206.323 684.625 206.969C685.698 207.604 686.49 208.349 687 209.203C687.521 210.057 687.781 211.062 687.781 212.219C687.781 214.062 687.062 215.542 685.625 216.656C684.188 217.76 682.266 218.312 679.859 218.312C678.297 218.312 676.839 218.016 675.484 217.422C674.13 216.818 673.083 215.995 672.344 214.953C671.615 213.911 671.25 212.729 671.25 211.406H674.266C674.266 212.781 674.771 213.87 675.781 214.672C676.802 215.464 678.161 215.859 679.859 215.859C681.443 215.859 682.656 215.536 683.5 214.891C684.344 214.245 684.766 213.365 684.766 212.25C684.766 211.135 684.375 210.276 683.594 209.672C682.812 209.057 681.396 208.453 679.344 207.859Z" fill="#2CF30B"/>
<path d="M709.141 207.359C709.141 209.589 708.766 211.536 708.016 213.203C707.266 214.859 706.203 216.125 704.828 217C703.453 217.875 701.849 218.312 700.016 218.312C698.224 218.312 696.635 217.875 695.25 217C693.865 216.115 692.786 214.859 692.016 213.234C691.255 211.599 690.865 209.708 690.844 207.562V205.922C690.844 203.734 691.224 201.802 691.984 200.125C692.745 198.448 693.818 197.167 695.203 196.281C696.599 195.385 698.193 194.938 699.984 194.938C701.807 194.938 703.411 195.38 704.797 196.266C706.193 197.141 707.266 198.417 708.016 200.094C708.766 201.76 709.141 203.703 709.141 205.922V207.359ZM706.156 205.891C706.156 203.193 705.615 201.125 704.531 199.688C703.448 198.24 701.932 197.516 699.984 197.516C698.089 197.516 696.594 198.24 695.5 199.688C694.417 201.125 693.859 203.125 693.828 205.688V207.359C693.828 209.974 694.375 212.031 695.469 213.531C696.573 215.021 698.089 215.766 700.016 215.766C701.953 215.766 703.453 215.062 704.516 213.656C705.578 212.24 706.125 210.214 706.156 207.578V205.891Z" fill="#2CF30B"/>
</g>
<path id="SO (Stroke)" fill-rule="evenodd" clip-rule="evenodd" d="M687.66 200.828C687.527 199.947 687.213 199.119 686.719 198.344C686.052 197.281 685.104 196.448 683.875 195.844C682.656 195.24 681.266 194.938 679.703 194.938C677.411 194.938 675.547 195.526 674.109 196.703C672.682 197.87 671.969 199.349 671.969 201.141C671.969 202.724 672.552 204.057 673.719 205.141C674.896 206.214 676.771 207.12 679.344 207.859C681.396 208.453 682.812 209.057 683.594 209.672C684.375 210.276 684.766 211.135 684.766 212.25C684.766 213.365 684.344 214.245 683.5 214.891C682.656 215.536 681.443 215.859 679.859 215.859C678.161 215.859 676.802 215.464 675.781 214.672C674.771 213.87 674.266 212.781 674.266 211.406H671.25C671.25 211.749 671.274 212.082 671.323 212.406C671.463 213.332 671.804 214.181 672.344 214.953C673.083 215.995 674.13 216.818 675.484 217.422C676.839 218.016 678.297 218.312 679.859 218.312C682.266 218.312 684.188 217.76 685.625 216.656C687.062 215.542 687.781 214.062 687.781 212.219C687.781 211.062 687.521 210.057 687 209.203C686.49 208.349 685.698 207.604 684.625 206.969C683.562 206.323 682.083 205.734 680.188 205.203C678.302 204.672 676.964 204.089 676.172 203.453C675.391 202.807 675 202.021 675 201.094C675 199.938 675.411 199.036 676.234 198.391C677.068 197.734 678.224 197.406 679.703 197.406C681.297 197.406 682.531 197.802 683.406 198.594C684.281 199.375 684.719 200.453 684.719 201.828H687.734C687.734 201.488 687.71 201.154 687.66 200.828ZM680.458 204.24C678.61 203.72 677.434 203.181 676.803 202.678C676.232 202.203 676 201.69 676 201.094C676 200.208 676.298 199.612 676.852 199.177L676.853 199.176C677.452 198.705 678.361 198.406 679.703 198.406C681.137 198.406 682.1 198.761 682.735 199.335L682.74 199.34C683.366 199.898 683.719 200.684 683.719 201.828V202.828H688.734V201.828C688.734 200.379 688.342 199.032 687.564 197.809C686.79 196.577 685.696 195.625 684.318 194.947C682.942 194.265 681.396 193.938 679.703 193.938C677.236 193.938 675.131 194.574 673.476 195.929M680.458 204.24C682.394 204.783 683.968 205.4 685.14 206.111C686.316 206.809 687.242 207.66 687.856 208.686C688.485 209.72 688.781 210.91 688.781 212.219C688.781 214.367 687.923 216.14 686.238 217.447L686.234 217.449C684.572 218.726 682.414 219.312 679.859 219.312C678.167 219.312 676.571 218.99 675.083 218.338L675.077 218.335C673.586 217.67 672.387 216.742 671.528 215.532L671.524 215.527C670.673 214.31 670.25 212.926 670.25 211.406V210.406H675.266V211.406C675.266 212.497 675.648 213.287 676.399 213.885C677.196 214.501 678.316 214.859 679.859 214.859C681.326 214.859 682.29 214.557 682.892 214.097C683.475 213.65 683.766 213.071 683.766 212.25C683.766 211.4 683.485 210.852 682.982 210.463L682.975 210.458C682.357 209.972 681.104 209.41 679.067 208.82C676.434 208.064 674.388 207.104 673.045 205.88L673.038 205.873C671.669 204.602 670.969 203.004 670.969 201.141C670.969 199.039 671.825 197.279 673.476 195.929M708.928 213.613L708.927 213.616C708.106 215.428 706.923 216.853 705.365 217.844C703.81 218.833 702.015 219.312 700.016 219.312C698.053 219.312 696.276 218.831 694.716 217.845L694.711 217.843C693.153 216.847 691.956 215.441 691.112 213.663L691.109 213.656C690.278 211.869 689.866 209.834 689.844 207.572L689.844 207.562L689.844 205.922C689.844 203.618 690.244 201.541 691.074 199.712C691.904 197.881 693.097 196.441 694.664 195.439C696.234 194.432 698.018 193.938 699.984 193.938C701.975 193.938 703.769 194.423 705.332 195.421C706.912 196.412 708.107 197.849 708.928 199.683M703.733 200.289L703.731 200.287C702.852 199.113 701.645 198.516 699.984 198.516C698.386 198.516 697.194 199.105 696.299 200.289C695.388 201.497 694.859 203.26 694.828 205.694V207.359C694.828 209.844 695.349 211.667 696.274 212.939C697.181 214.16 698.392 214.766 700.016 214.766C701.675 214.766 702.864 214.183 703.717 213.055C704.602 211.874 705.126 210.09 705.156 207.572V205.891C705.156 203.307 704.634 201.486 703.733 200.289ZM706.156 207.578C706.125 210.214 705.578 212.24 704.516 213.656C703.453 215.062 701.953 215.766 700.016 215.766C698.089 215.766 696.573 215.021 695.469 213.531C694.375 212.031 693.828 209.974 693.828 207.359V205.688C693.859 203.125 694.417 201.125 695.5 199.688C696.594 198.24 698.089 197.516 699.984 197.516C701.932 197.516 703.448 198.24 704.531 199.688C705.615 201.125 706.156 203.193 706.156 205.891V207.578ZM708.928 213.613C709.747 211.793 710.141 209.7 710.141 207.359L708.928 213.613ZM708.928 199.686C709.747 201.505 710.141 203.592 710.141 205.922V207.359M708.016 213.203C708.766 211.536 709.141 209.589 709.141 207.359V205.922C709.141 203.703 708.766 201.76 708.016 200.094C707.266 198.417 706.193 197.141 704.797 196.266C703.411 195.38 701.807 194.938 699.984 194.938C698.193 194.938 696.599 195.385 695.203 196.281C693.818 197.167 692.745 198.448 691.984 200.125C691.224 201.802 690.844 203.734 690.844 205.922V207.562C690.865 209.708 691.255 211.599 692.016 213.234C692.786 214.859 693.865 216.115 695.25 217C696.635 217.875 698.224 218.312 700.016 218.312C701.849 218.312 703.453 217.875 704.828 217C706.203 216.125 707.266 214.859 708.016 213.203Z" fill="#2CF30B"/>
<g id="Marcos">
<path d="M540.516 223.25L547.953 241.812L555.391 223.25H559.281V246H556.281V237.141L556.562 227.578L549.094 246H546.797L539.344 227.625L539.641 237.141V246H536.641V223.25H540.516Z" fill="white"/>
<path d="M574.562 246C574.396 245.667 574.26 245.073 574.156 244.219C572.812 245.615 571.208 246.312 569.344 246.312C567.677 246.312 566.307 245.844 565.234 244.906C564.172 243.958 563.641 242.76 563.641 241.312C563.641 239.552 564.307 238.188 565.641 237.219C566.984 236.24 568.87 235.75 571.297 235.75H574.109V234.422C574.109 233.411 573.807 232.609 573.203 232.016C572.599 231.411 571.708 231.109 570.531 231.109C569.5 231.109 568.635 231.37 567.938 231.891C567.24 232.411 566.891 233.042 566.891 233.781H563.984C563.984 232.938 564.281 232.125 564.875 231.344C565.479 230.552 566.292 229.927 567.312 229.469C568.344 229.01 569.474 228.781 570.703 228.781C572.651 228.781 574.177 229.271 575.281 230.25C576.385 231.219 576.958 232.557 577 234.266V242.047C577 243.599 577.198 244.833 577.594 245.75V246H574.562ZM569.766 243.797C570.672 243.797 571.531 243.562 572.344 243.094C573.156 242.625 573.745 242.016 574.109 241.266V237.797H571.844C568.302 237.797 566.531 238.833 566.531 240.906C566.531 241.812 566.833 242.521 567.438 243.031C568.042 243.542 568.818 243.797 569.766 243.797Z" fill="white"/>
<path d="M589.703 231.688C589.266 231.615 588.792 231.578 588.281 231.578C586.385 231.578 585.099 232.385 584.422 234V246H581.531V229.094H584.344L584.391 231.047C585.339 229.536 586.682 228.781 588.422 228.781C588.984 228.781 589.411 228.854 589.703 229V231.688Z" fill="white"/>
<path d="M598.844 243.953C599.875 243.953 600.776 243.641 601.547 243.016C602.318 242.391 602.745 241.609 602.828 240.672H605.562C605.51 241.641 605.177 242.562 604.562 243.438C603.948 244.312 603.125 245.01 602.094 245.531C601.073 246.052 599.99 246.312 598.844 246.312C596.542 246.312 594.708 245.547 593.344 244.016C591.99 242.474 591.312 240.37 591.312 237.703V237.219C591.312 235.573 591.615 234.109 592.219 232.828C592.823 231.547 593.688 230.552 594.812 229.844C595.948 229.135 597.286 228.781 598.828 228.781C600.724 228.781 602.297 229.349 603.547 230.484C604.807 231.62 605.479 233.094 605.562 234.906H602.828C602.745 233.812 602.328 232.917 601.578 232.219C600.839 231.51 599.922 231.156 598.828 231.156C597.359 231.156 596.219 231.688 595.406 232.75C594.604 233.802 594.203 235.328 594.203 237.328V237.875C594.203 239.823 594.604 241.323 595.406 242.375C596.208 243.427 597.354 243.953 598.844 243.953Z" fill="white"/>
<path d="M608.047 237.391C608.047 235.734 608.37 234.245 609.016 232.922C609.672 231.599 610.578 230.578 611.734 229.859C612.901 229.141 614.229 228.781 615.719 228.781C618.021 228.781 619.88 229.578 621.297 231.172C622.724 232.766 623.438 234.885 623.438 237.531V237.734C623.438 239.38 623.12 240.859 622.484 242.172C621.859 243.474 620.958 244.49 619.781 245.219C618.615 245.948 617.271 246.312 615.75 246.312C613.458 246.312 611.599 245.516 610.172 243.922C608.755 242.328 608.047 240.219 608.047 237.594V237.391ZM610.953 237.734C610.953 239.609 611.385 241.115 612.25 242.25C613.125 243.385 614.292 243.953 615.75 243.953C617.219 243.953 618.385 243.38 619.25 242.234C620.115 241.078 620.547 239.464 620.547 237.391C620.547 235.536 620.104 234.036 619.219 232.891C618.344 231.734 617.177 231.156 615.719 231.156C614.292 231.156 613.141 231.724 612.266 232.859C611.391 233.995 610.953 235.62 610.953 237.734Z" fill="white"/>
<path d="M636.906 241.516C636.906 240.734 636.609 240.13 636.016 239.703C635.432 239.266 634.406 238.891 632.938 238.578C631.479 238.266 630.318 237.891 629.453 237.453C628.599 237.016 627.964 236.495 627.547 235.891C627.141 235.286 626.938 234.568 626.938 233.734C626.938 232.349 627.521 231.177 628.688 230.219C629.865 229.26 631.365 228.781 633.188 228.781C635.104 228.781 636.656 229.276 637.844 230.266C639.042 231.255 639.641 232.521 639.641 234.062H636.734C636.734 233.271 636.396 232.589 635.719 232.016C635.052 231.443 634.208 231.156 633.188 231.156C632.135 231.156 631.312 231.385 630.719 231.844C630.125 232.302 629.828 232.901 629.828 233.641C629.828 234.339 630.104 234.865 630.656 235.219C631.208 235.573 632.203 235.911 633.641 236.234C635.089 236.557 636.26 236.943 637.156 237.391C638.052 237.839 638.714 238.38 639.141 239.016C639.578 239.641 639.797 240.406 639.797 241.312C639.797 242.823 639.193 244.036 637.984 244.953C636.776 245.859 635.208 246.312 633.281 246.312C631.927 246.312 630.729 246.073 629.688 245.594C628.646 245.115 627.828 244.448 627.234 243.594C626.651 242.729 626.359 241.797 626.359 240.797H629.25C629.302 241.766 629.688 242.536 630.406 243.109C631.135 243.672 632.094 243.953 633.281 243.953C634.375 243.953 635.25 243.734 635.906 243.297C636.573 242.849 636.906 242.255 636.906 241.516Z" fill="white"/>
</g>
</g>
<g id="Group 142">
<path id="Arrow 11 (Stroke)" fill-rule="evenodd" clip-rule="evenodd" d="M413.638 146.1L411.021 128.291C410.861 127.198 411.616 126.182 412.709 126.021L430.518 123.405C431.611 123.244 432.627 124 432.788 125.093C432.948 126.186 432.192 127.202 431.1 127.362L418.068 129.277L535.194 216.395L532.806 219.605L415.681 132.486L417.595 145.518C417.756 146.611 417 147.627 415.907 147.788C414.814 147.948 413.798 147.192 413.638 146.1Z" fill="#13EBF9"/>
<g id="NO">
<path d="M414.125 199H411.109L399.656 181.469V199H396.641V176.25H399.656L411.141 193.859V176.25H414.125V199Z" fill="#13EBF9"/>
<path d="M436.953 188.359C436.953 190.589 436.578 192.536 435.828 194.203C435.078 195.859 434.016 197.125 432.641 198C431.266 198.875 429.661 199.312 427.828 199.312C426.036 199.312 424.448 198.875 423.062 198C421.677 197.115 420.599 195.859 419.828 194.234C419.068 192.599 418.677 190.708 418.656 188.562V186.922C418.656 184.734 419.036 182.802 419.797 181.125C420.557 179.448 421.63 178.167 423.016 177.281C424.411 176.385 426.005 175.938 427.797 175.938C429.62 175.938 431.224 176.38 432.609 177.266C434.005 178.141 435.078 179.417 435.828 181.094C436.578 182.76 436.953 184.703 436.953 186.922V188.359ZM433.969 186.891C433.969 184.193 433.427 182.125 432.344 180.688C431.26 179.24 429.745 178.516 427.797 178.516C425.901 178.516 424.406 179.24 423.312 180.688C422.229 182.125 421.672 184.125 421.641 186.688V188.359C421.641 190.974 422.188 193.031 423.281 194.531C424.385 196.021 425.901 196.766 427.828 196.766C429.766 196.766 431.266 196.062 432.328 194.656C433.391 193.24 433.938 191.214 433.969 188.578V186.891Z" fill="#13EBF9"/>
</g>
<path id="NO (Stroke)" fill-rule="evenodd" clip-rule="evenodd" d="M415.125 200H410.568L400.656 184.828V200H395.641V175.25H400.198L410.141 190.495V175.25H415.125V200ZM411.141 193.859L399.656 176.25H396.641V199H399.656V181.469L411.109 199H414.125V176.25H411.141V193.859ZM436.74 194.613L436.739 194.616C435.919 196.428 434.735 197.853 433.178 198.844C431.623 199.833 429.827 200.312 427.828 200.312C425.866 200.312 424.089 199.831 422.529 198.845L422.524 198.843C420.966 197.847 419.768 196.441 418.925 194.663L418.921 194.656C418.091 192.869 417.678 190.834 417.656 188.572L417.656 188.562L417.656 186.922C417.656 184.618 418.057 182.541 418.886 180.712C419.716 178.881 420.909 177.441 422.476 176.439C424.046 175.432 425.83 174.938 427.797 174.938C429.788 174.938 431.582 175.423 433.144 176.421C434.725 177.412 435.919 178.849 436.74 180.683M432.609 177.266C431.224 176.38 429.62 175.938 427.797 175.938C426.005 175.938 424.411 176.385 423.016 177.281C421.63 178.167 420.557 179.448 419.797 181.125C419.036 182.802 418.656 184.734 418.656 186.922V188.562C418.677 190.708 419.068 192.599 419.828 194.234C420.599 195.859 421.677 197.115 423.062 198C424.448 198.875 426.036 199.312 427.828 199.312C429.661 199.312 431.266 198.875 432.641 198C434.016 197.125 435.078 195.859 435.828 194.203C436.578 192.536 436.953 190.589 436.953 188.359V186.922C436.953 184.703 436.578 182.76 435.828 181.094C435.078 179.417 434.005 178.141 432.609 177.266ZM436.741 180.686C437.559 182.505 437.953 184.592 437.953 186.922V188.359C437.953 190.7 437.559 192.793 436.74 194.613M431.545 181.289L431.543 181.287C430.665 180.113 429.458 179.516 427.797 179.516C426.199 179.516 425.006 180.105 424.111 181.289C423.201 182.497 422.671 184.26 422.641 186.694V188.359C422.641 190.844 423.161 192.667 424.087 193.939C424.994 195.16 426.205 195.766 427.828 195.766C429.487 195.766 430.676 195.183 431.529 194.055C432.414 192.874 432.938 191.09 432.969 188.572V186.891C432.969 184.307 432.447 182.486 431.545 181.289ZM433.969 188.578C433.938 191.214 433.391 193.24 432.328 194.656C431.266 196.062 429.766 196.766 427.828 196.766C425.901 196.766 424.385 196.021 423.281 194.531C422.188 193.031 421.641 190.974 421.641 188.359V186.688C421.672 184.125 422.229 182.125 423.312 180.688C424.406 179.24 425.901 178.516 427.797 178.516C429.745 178.516 431.26 179.24 432.344 180.688C433.427 182.125 433.969 184.193 433.969 186.891V188.578Z" fill="#13EBF9"/>
<path id="Arrow 12 (Stroke)" fill-rule="evenodd" clip-rule="evenodd" d="M446.507 124.177L433.608 111.623C432.816 110.853 432.799 109.587 433.569 108.795L446.123 95.8956C446.894 95.104 448.16 95.0868 448.951 95.8572C449.743 96.6276 449.76 97.8938 448.99 98.6854L439.803 108.125L669.973 105L670.027 109L439.858 112.124L449.297 121.311C450.089 122.081 450.106 123.347 449.335 124.139C448.565 124.93 447.299 124.948 446.507 124.177Z" fill="#E79720"/>
<path id="O" d="M483.141 72.3594C483.141 74.5885 482.766 76.5365 482.016 78.2031C481.266 79.8594 480.203 81.125 478.828 82C477.453 82.875 475.849 83.3125 474.016 83.3125C472.224 83.3125 470.635 82.875 469.25 82C467.865 81.1146 466.786 79.8594 466.016 78.2344C465.255 76.599 464.865 74.7083 464.844 72.5625V70.9219C464.844 68.7344 465.224 66.8021 465.984 65.125C466.745 63.4479 467.818 62.1667 469.203 61.2812C470.599 60.3854 472.193 59.9375 473.984 59.9375C475.807 59.9375 477.411 60.3802 478.797 61.2656C480.193 62.1406 481.266 63.4167 482.016 65.0938C482.766 66.7604 483.141 68.7031 483.141 70.9219V72.3594ZM480.156 70.8906C480.156 68.1927 479.615 66.125 478.531 64.6875C477.448 63.2396 475.932 62.5156 473.984 62.5156C472.089 62.5156 470.594 63.2396 469.5 64.6875C468.417 66.125 467.859 68.125 467.828 70.6875V72.3594C467.828 74.974 468.375 77.0312 469.469 78.5312C470.573 80.0208 472.089 80.7656 474.016 80.7656C475.953 80.7656 477.453 80.0625 478.516 78.6562C479.578 77.2396 480.125 75.2135 480.156 72.5781V70.8906Z" fill="#E79720"/>
<path id="O (Stroke)" fill-rule="evenodd" clip-rule="evenodd" d="M482.928 78.6135L482.927 78.6156C482.106 80.4277 480.923 81.8525 479.365 82.8437C477.81 83.8331 476.015 84.3125 474.016 84.3125C472.053 84.3125 470.276 83.8308 468.716 82.8455L468.712 82.8426C467.153 81.8468 465.956 80.441 465.112 78.663L465.109 78.656L465.109 78.656C464.278 76.8693 463.866 74.8338 463.844 72.5722L463.844 72.5625H463.844V70.9219C463.844 68.6183 464.244 66.5409 465.074 64.712C465.904 62.8809 467.097 61.4409 468.664 60.4391C470.234 59.4319 472.018 58.9375 473.984 58.9375C475.975 58.9375 477.769 59.4231 479.332 60.4207C480.912 61.4125 482.107 62.8498 482.928 64.6841C483.747 66.5041 484.141 68.5916 484.141 70.9219V72.3594C484.141 74.6996 483.747 76.7927 482.928 78.6135ZM482.016 65.0938C481.266 63.4167 480.193 62.1406 478.797 61.2656C477.412 60.3802 475.807 59.9375 473.984 59.9375C472.193 59.9375 470.599 60.3854 469.203 61.2812C467.818 62.1667 466.745 63.4479 465.984 65.125C465.224 66.8021 464.844 68.7344 464.844 70.9219V72.5625C464.865 74.7083 465.255 76.599 466.016 78.2344C466.787 79.8594 467.865 81.1146 469.25 82C470.635 82.875 472.224 83.3125 474.016 83.3125C475.849 83.3125 477.453 82.875 478.828 82C480.203 81.125 481.266 79.8594 482.016 78.2031C482.766 76.5365 483.141 74.5885 483.141 72.3594V70.9219C483.141 68.7031 482.766 66.7604 482.016 65.0938ZM477.733 65.2894L477.731 65.2866C476.852 64.1128 475.645 63.5156 473.984 63.5156C472.386 63.5156 471.193 64.1052 470.298 65.2898C469.388 66.4977 468.859 68.2603 468.828 70.6937V72.3594C468.828 74.844 469.349 76.6674 470.274 77.9389C471.181 79.1604 472.392 79.7656 474.016 79.7656C475.675 79.7656 476.864 79.1827 477.717 78.0549C478.602 76.8737 479.126 75.0897 479.156 72.5721V70.8906C479.156 68.3068 478.635 66.486 477.733 65.2894ZM480.156 72.5781C480.125 75.2135 479.578 77.2396 478.516 78.6562C477.453 80.0625 475.953 80.7656 474.016 80.7656C472.089 80.7656 470.573 80.0208 469.469 78.5312C468.375 77.0312 467.828 74.974 467.828 72.3594V70.6875C467.859 68.125 468.417 66.125 469.5 64.6875C470.594 63.2396 472.089 62.5156 473.984 62.5156C475.932 62.5156 477.448 63.2396 478.531 64.6875C479.615 66.125 480.156 68.1927 480.156 70.8906V72.5781Z" fill="#E79720"/>
<g id="Elias">
<path d="M351.5 110.484H341.641V118.547H353.094V121H338.641V98.25H352.938V100.719H341.641V108.031H351.5V110.484Z" fill="white"/>
<path d="M359.516 121H356.625V97H359.516V121Z" fill="white"/>
<path d="M367.297 121H364.406V104.094H367.297V121ZM364.172 99.6094C364.172 99.1406 364.312 98.7448 364.594 98.4219C364.885 98.099 365.312 97.9375 365.875 97.9375C366.438 97.9375 366.865 98.099 367.156 98.4219C367.448 98.7448 367.594 99.1406 367.594 99.6094C367.594 100.078 367.448 100.469 367.156 100.781C366.865 101.094 366.438 101.25 365.875 101.25C365.312 101.25 364.885 101.094 364.594 100.781C364.312 100.469 364.172 100.078 364.172 99.6094Z" fill="white"/>
<path d="M382.375 121C382.208 120.667 382.073 120.073 381.969 119.219C380.625 120.615 379.021 121.312 377.156 121.312C375.49 121.312 374.12 120.844 373.047 119.906C371.984 118.958 371.453 117.76 371.453 116.312C371.453 114.552 372.12 113.188 373.453 112.219C374.797 111.24 376.682 110.75 379.109 110.75H381.922V109.422C381.922 108.411 381.62 107.609 381.016 107.016C380.411 106.411 379.521 106.109 378.344 106.109C377.312 106.109 376.448 106.37 375.75 106.891C375.052 107.411 374.703 108.042 374.703 108.781H371.797C371.797 107.938 372.094 107.125 372.688 106.344C373.292 105.552 374.104 104.927 375.125 104.469C376.156 104.01 377.286 103.781 378.516 103.781C380.464 103.781 381.99 104.271 383.094 105.25C384.198 106.219 384.771 107.557 384.812 109.266V117.047C384.812 118.599 385.01 119.833 385.406 120.75V121H382.375ZM377.578 118.797C378.484 118.797 379.344 118.562 380.156 118.094C380.969 117.625 381.557 117.016 381.922 116.266V112.797H379.656C376.115 112.797 374.344 113.833 374.344 115.906C374.344 116.812 374.646 117.521 375.25 118.031C375.854 118.542 376.63 118.797 377.578 118.797Z" fill="white"/>
<path d="M399.188 116.516C399.188 115.734 398.891 115.13 398.297 114.703C397.714 114.266 396.688 113.891 395.219 113.578C393.76 113.266 392.599 112.891 391.734 112.453C390.88 112.016 390.245 111.495 389.828 110.891C389.422 110.286 389.219 109.568 389.219 108.734C389.219 107.349 389.802 106.177 390.969 105.219C392.146 104.26 393.646 103.781 395.469 103.781C397.385 103.781 398.938 104.276 400.125 105.266C401.323 106.255 401.922 107.521 401.922 109.062H399.016C399.016 108.271 398.677 107.589 398 107.016C397.333 106.443 396.49 106.156 395.469 106.156C394.417 106.156 393.594 106.385 393 106.844C392.406 107.302 392.109 107.901 392.109 108.641C392.109 109.339 392.385 109.865 392.938 110.219C393.49 110.573 394.484 110.911 395.922 111.234C397.37 111.557 398.542 111.943 399.438 112.391C400.333 112.839 400.995 113.38 401.422 114.016C401.859 114.641 402.078 115.406 402.078 116.312C402.078 117.823 401.474 119.036 400.266 119.953C399.057 120.859 397.49 121.312 395.562 121.312C394.208 121.312 393.01 121.073 391.969 120.594C390.927 120.115 390.109 119.448 389.516 118.594C388.932 117.729 388.641 116.797 388.641 115.797H391.531C391.583 116.766 391.969 117.536 392.688 118.109C393.417 118.672 394.375 118.953 395.562 118.953C396.656 118.953 397.531 118.734 398.188 118.297C398.854 117.849 399.188 117.255 399.188 116.516Z" fill="white"/>
</g>
</g>
</g>
<g id="Group 144">
<g id="Group 190">
<path id="Arrow 27 (Stroke)" fill-rule="evenodd" clip-rule="evenodd" d="M310.442 231.951L296.95 231.499C296.122 231.471 295.473 230.778 295.501 229.95L295.953 216.457C295.98 215.629 296.674 214.981 297.502 215.008C298.33 215.036 298.979 215.73 298.951 216.558L298.62 226.431L403.975 127.904L406.025 130.095L300.669 228.622L310.543 228.953C311.371 228.98 312.019 229.674 311.992 230.502C311.964 231.33 311.27 231.979 310.442 231.951Z" fill="#FD0C0C"/>
<g id="SO_2">
<path d="M321.512 244.592C318.617 243.76 316.508 242.74 315.184 241.533C313.871 240.314 313.215 238.814 313.215 237.033C313.215 235.018 314.018 233.354 315.623 232.041C317.24 230.717 319.338 230.055 321.916 230.055C323.674 230.055 325.238 230.395 326.609 231.074C327.992 231.754 329.059 232.691 329.809 233.887C330.57 235.082 330.951 236.389 330.951 237.807H327.559C327.559 236.26 327.066 235.047 326.082 234.168C325.098 233.277 323.709 232.832 321.916 232.832C320.252 232.832 318.951 233.201 318.014 233.939C317.088 234.666 316.625 235.68 316.625 236.98C316.625 238.023 317.064 238.908 317.943 239.635C318.834 240.35 320.34 241.006 322.461 241.604C324.594 242.201 326.258 242.863 327.453 243.59C328.66 244.305 329.551 245.143 330.125 246.104C330.711 247.064 331.004 248.195 331.004 249.496C331.004 251.57 330.195 253.234 328.578 254.488C326.961 255.73 324.799 256.352 322.092 256.352C320.334 256.352 318.693 256.018 317.17 255.35C315.646 254.67 314.469 253.744 313.637 252.572C312.816 251.4 312.406 250.07 312.406 248.582H315.799C315.799 250.129 316.367 251.354 317.504 252.256C318.652 253.146 320.182 253.592 322.092 253.592C323.873 253.592 325.238 253.229 326.188 252.502C327.137 251.775 327.611 250.785 327.611 249.531C327.611 248.277 327.172 247.311 326.293 246.631C325.414 245.939 323.82 245.26 321.512 244.592Z" fill="#FD0C0C"/>
<path d="M355.033 244.029C355.033 246.537 354.611 248.729 353.768 250.604C352.924 252.467 351.729 253.891 350.182 254.875C348.635 255.859 346.83 256.352 344.768 256.352C342.752 256.352 340.965 255.859 339.406 254.875C337.848 253.879 336.635 252.467 335.768 250.639C334.912 248.799 334.473 246.672 334.449 244.258V242.412C334.449 239.951 334.877 237.777 335.732 235.891C336.588 234.004 337.795 232.562 339.354 231.566C340.924 230.559 342.717 230.055 344.732 230.055C346.783 230.055 348.588 230.553 350.146 231.549C351.717 232.533 352.924 233.969 353.768 235.855C354.611 237.73 355.033 239.916 355.033 242.412V244.029ZM351.676 242.377C351.676 239.342 351.066 237.016 349.848 235.398C348.629 233.77 346.924 232.955 344.732 232.955C342.6 232.955 340.918 233.77 339.688 235.398C338.469 237.016 337.842 239.266 337.807 242.148V244.029C337.807 246.971 338.422 249.285 339.652 250.973C340.895 252.648 342.6 253.486 344.768 253.486C346.947 253.486 348.635 252.695 349.83 251.113C351.025 249.52 351.641 247.24 351.676 244.275V242.377Z" fill="#FD0C0C"/>
</g>
<path id="Arrow 28 (Stroke)" fill-rule="evenodd" clip-rule="evenodd" d="M703.531 27.3934L713.077 36.9394C713.663 37.5252 713.663 38.4749 713.077 39.0607L703.531 48.6066C702.945 49.1924 701.996 49.1924 701.41 48.6066C700.824 48.0209 700.824 47.0711 701.41 46.4853L708.395 39.5H437V36.5H708.395L701.41 29.5148C700.824 28.929 700.824 27.9792 701.41 27.3934C701.996 26.8077 702.945 26.8077 703.531 27.3934Z" fill="#CD08D1"/>
<path id="E" d="M660.438 14.1699H649.346V23.2402H662.23V26H645.971V0.40625H662.055V3.18359H649.346V11.4102H660.438V14.1699Z" fill="#CD08D1"/>
<path id="Arrow 29 (Stroke)" fill-rule="evenodd" clip-rule="evenodd" d="M386.485 245.607L376.939 236.061C376.354 235.475 376.354 234.525 376.939 233.939L386.485 224.393C387.071 223.808 388.021 223.808 388.607 224.393C389.192 224.979 389.192 225.929 388.607 226.515L381.621 233.5L521 233.5V236.5L381.621 236.5L388.607 243.485C389.192 244.071 389.192 245.021 388.607 245.607C388.021 246.192 387.071 246.192 386.485 245.607Z" fill="#E8A1EE"/>
<path id="O_2" d="M418.658 265.029C418.658 267.537 418.236 269.729 417.393 271.604C416.549 273.467 415.354 274.891 413.807 275.875C412.26 276.859 410.455 277.352 408.393 277.352C406.377 277.352 404.59 276.859 403.031 275.875C401.473 274.879 400.26 273.467 399.393 271.639C398.537 269.799 398.098 267.672 398.074 265.258V263.412C398.074 260.951 398.502 258.777 399.357 256.891C400.213 255.004 401.42 253.562 402.979 252.566C404.549 251.559 406.342 251.055 408.357 251.055C410.408 251.055 412.213 251.553 413.771 252.549C415.342 253.533 416.549 254.969 417.393 256.855C418.236 258.73 418.658 260.916 418.658 263.412V265.029ZM415.301 263.377C415.301 260.342 414.691 258.016 413.473 256.398C412.254 254.77 410.549 253.955 408.357 253.955C406.225 253.955 404.543 254.77 403.312 256.398C402.094 258.016 401.467 260.266 401.432 263.148V265.029C401.432 267.971 402.047 270.285 403.277 271.973C404.52 273.648 406.225 274.486 408.393 274.486C410.572 274.486 412.26 273.695 413.455 272.113C414.65 270.52 415.266 268.24 415.301 265.275V263.377Z" fill="#E8A1EE"/>
</g>
<g id="I. ( V )">
<path d="M341.859 346H338.859V323.25H341.859V346Z" fill="white"/>
<path d="M346.969 344.484C346.969 343.984 347.115 343.568 347.406 343.234C347.708 342.901 348.156 342.734 348.75 342.734C349.344 342.734 349.792 342.901 350.094 343.234C350.406 343.568 350.562 343.984 350.562 344.484C350.562 344.964 350.406 345.365 350.094 345.688C349.792 346.01 349.344 346.172 348.75 346.172C348.156 346.172 347.708 346.01 347.406 345.688C347.115 345.365 346.969 344.964 346.969 344.484Z" fill="white"/>
<path d="M363.172 336.766C363.172 334.411 363.484 332.151 364.109 329.984C364.745 327.818 365.688 325.849 366.938 324.078C368.188 322.307 369.484 321.057 370.828 320.328L371.422 322.234C369.901 323.401 368.651 325.182 367.672 327.578C366.703 329.974 366.172 332.656 366.078 335.625L366.062 336.953C366.062 340.974 366.797 344.464 368.266 347.422C369.151 349.193 370.203 350.578 371.422 351.578L370.828 353.344C369.443 352.573 368.12 351.281 366.859 349.469C364.401 345.927 363.172 341.693 363.172 336.766Z" fill="white"/>
<path d="M417.141 336.922C417.141 339.245 416.833 341.474 416.219 343.609C415.615 345.734 414.682 347.698 413.422 349.5C412.172 351.302 410.859 352.583 409.484 353.344L408.875 351.578C410.479 350.349 411.766 348.443 412.734 345.859C413.714 343.266 414.214 340.391 414.234 337.234V336.734C414.234 334.547 414.005 332.516 413.547 330.641C413.089 328.755 412.448 327.068 411.625 325.578C410.812 324.089 409.896 322.927 408.875 322.094L409.484 320.328C410.859 321.089 412.167 322.359 413.406 324.141C414.656 325.922 415.589 327.885 416.203 330.031C416.828 332.177 417.141 334.474 417.141 336.922Z" fill="white"/>
</g>
<g id="II. ( V )">
<path d="M518.859 346H515.859V323.25H518.859V346Z" fill="white"/>
<path d="M527.578 346H524.578V323.25H527.578V346Z" fill="white"/>
<path d="M532.688 344.484C532.688 343.984 532.833 343.568 533.125 343.234C533.427 342.901 533.875 342.734 534.469 342.734C535.062 342.734 535.51 342.901 535.812 343.234C536.125 343.568 536.281 343.984 536.281 344.484C536.281 344.964 536.125 345.365 535.812 345.688C535.51 346.01 535.062 346.172 534.469 346.172C533.875 346.172 533.427 346.01 533.125 345.688C532.833 345.365 532.688 344.964 532.688 344.484Z" fill="white"/>
<path d="M548.891 336.766C548.891 334.411 549.203 332.151 549.828 329.984C550.464 327.818 551.406 325.849 552.656 324.078C553.906 322.307 555.203 321.057 556.547 320.328L557.141 322.234C555.62 323.401 554.37 325.182 553.391 327.578C552.422 329.974 551.891 332.656 551.797 335.625L551.781 336.953C551.781 340.974 552.516 344.464 553.984 347.422C554.87 349.193 555.922 350.578 557.141 351.578L556.547 353.344C555.161 352.573 553.839 351.281 552.578 349.469C550.12 345.927 548.891 341.693 548.891 336.766Z" fill="white"/>
<path d="M575.859 342.016L582.359 323.25H585.641L577.203 346H574.547L566.125 323.25H569.391L575.859 342.016Z" fill="white"/>
<path d="M602.859 336.922C602.859 339.245 602.552 341.474 601.938 343.609C601.333 345.734 600.401 347.698 599.141 349.5C597.891 351.302 596.578 352.583 595.203 353.344L594.594 351.578C596.198 350.349 597.484 348.443 598.453 345.859C599.432 343.266 599.932 340.391 599.953 337.234V336.734C599.953 334.547 599.724 332.516 599.266 330.641C598.807 328.755 598.167 327.068 597.344 325.578C596.531 324.089 595.615 322.927 594.594 322.094L595.203 320.328C596.578 321.089 597.885 322.359 599.125 324.141C600.375 325.922 601.307 327.885 601.922 330.031C602.547 332.177 602.859 334.474 602.859 336.922Z" fill="white"/>
</g>
<g id="III. ( F )">
<path d="M688.859 346H685.859V323.25H688.859V346Z" fill="white"/>
<path d="M697.578 346H694.578V323.25H697.578V346Z" fill="white"/>
<path d="M706.297 346H703.297V323.25H706.297V346Z" fill="white"/>
<path d="M711.406 344.484C711.406 343.984 711.552 343.568 711.844 343.234C712.146 342.901 712.594 342.734 713.188 342.734C713.781 342.734 714.229 342.901 714.531 343.234C714.844 343.568 715 343.984 715 344.484C715 344.964 714.844 345.365 714.531 345.688C714.229 346.01 713.781 346.172 713.188 346.172C712.594 346.172 712.146 346.01 711.844 345.688C711.552 345.365 711.406 344.964 711.406 344.484Z" fill="white"/>
<path d="M727.609 336.766C727.609 334.411 727.922 332.151 728.547 329.984C729.182 327.818 730.125 325.849 731.375 324.078C732.625 322.307 733.922 321.057 735.266 320.328L735.859 322.234C734.339 323.401 733.089 325.182 732.109 327.578C731.141 329.974 730.609 332.656 730.516 335.625L730.5 336.953C730.5 340.974 731.234 344.464 732.703 347.422C733.589 349.193 734.641 350.578 735.859 351.578L735.266 353.344C733.88 352.573 732.557 351.281 731.297 349.469C728.839 345.927 727.609 341.693 727.609 336.766Z" fill="white"/>
<path d="M759.594 335.953H750.047V346H747.047V323.25H761.141V325.719H750.047V333.5H759.594V335.953Z" fill="white"/>
<path d="M778.891 336.922C778.891 339.245 778.583 341.474 777.969 343.609C777.365 345.734 776.432 347.698 775.172 349.5C773.922 351.302 772.609 352.583 771.234 353.344L770.625 351.578C772.229 350.349 773.516 348.443 774.484 345.859C775.464 343.266 775.964 340.391 775.984 337.234V336.734C775.984 334.547 775.755 332.516 775.297 330.641C774.839 328.755 774.198 327.068 773.375 325.578C772.562 324.089 771.646 322.927 770.625 322.094L771.234 320.328C772.609 321.089 773.917 322.359 775.156 324.141C776.406 325.922 777.339 327.885 777.953 330.031C778.578 332.177 778.891 334.474 778.891 336.922Z" fill="white"/>
<path d="M396.453 338.453H386.906V348.5H383.906V325.75H398V328.219H386.906V336H396.453V338.453Z" fill="white"/>
</g>
</g>
</g>
</svg>
