<svg viewBox="0 0 786 373" fill="none" xmlns="http://www.w3.org/2000/svg">
<g id="0128207">
<g id="Group 119">
<g id="Group 113">
<path id="Ellipse 13" d="M454 195C454 263.483 398.483 319 330 319C261.517 319 206 263.483 206 195C206 126.517 261.517 71 330 71C398.483 71 454 126.517 454 195Z" fill="#BB7C42"/>
<path id="Ellipse 13 (Stroke)" fill-rule="evenodd" clip-rule="evenodd" d="M387.861 304.701C370.587 313.831 350.897 319 330 319C261.517 319 206 263.483 206 195C206 149.373 230.644 109.501 267.347 87.9695C268.783 87.1271 270.237 86.3127 271.71 85.5271C289.086 76.2555 308.929 71 330 71C398.483 71 454 126.517 454 195C454 240.801 429.168 280.802 392.233 302.276C390.794 303.112 389.336 303.921 387.861 304.701ZM394.992 306.456C433.279 284.082 459 242.545 459 195C459 123.755 401.245 66 330 66C258.755 66 201 123.755 201 195C201 266.245 258.755 324 330 324C351.844 324 372.42 318.571 390.452 308.988L392.232 310.768L395.768 307.232L394.992 306.456Z" fill="white"/>
<path id="Vector 1 (Stroke)" fill-rule="evenodd" clip-rule="evenodd" d="M459 196.5H202V193.5H459V196.5Z" fill="white"/>
<path id="Vector 2 (Stroke)" fill-rule="evenodd" clip-rule="evenodd" d="M266.688 305.273L389.688 83.2731L392.312 84.727L269.312 306.727L266.688 305.273Z" fill="white"/>
<path id="Vector 3 (Stroke)" fill-rule="evenodd" clip-rule="evenodd" d="M390.189 307.729L266.189 84.729L268.811 83.2711L392.811 306.271L390.189 307.729Z" fill="white"/>
</g>
<g id="Group 117">
<g id="Group 116">
<g id="Alicia">
<path d="M471.104 122.32H460.381L457.973 129H454.492L464.266 103.406H467.219L477.01 129H473.547L471.104 122.32ZM461.4 119.543H470.102L465.742 107.572L461.4 119.543Z" fill="white"/>
<path d="M483.479 129H480.227V102H483.479V129Z" fill="white"/>
<path d="M492.232 129H488.98V109.98H492.232V129ZM488.717 104.936C488.717 104.408 488.875 103.963 489.191 103.6C489.52 103.236 490 103.055 490.633 103.055C491.266 103.055 491.746 103.236 492.074 103.6C492.402 103.963 492.566 104.408 492.566 104.936C492.566 105.463 492.402 105.902 492.074 106.254C491.746 106.605 491.266 106.781 490.633 106.781C490 106.781 489.52 106.605 489.191 106.254C488.875 105.902 488.717 105.463 488.717 104.936Z" fill="white"/>
<path d="M505.082 126.697C506.242 126.697 507.256 126.346 508.123 125.643C508.99 124.939 509.471 124.061 509.564 123.006H512.641C512.582 124.096 512.207 125.133 511.516 126.117C510.824 127.102 509.898 127.887 508.738 128.473C507.59 129.059 506.371 129.352 505.082 129.352C502.492 129.352 500.43 128.49 498.895 126.768C497.371 125.033 496.609 122.666 496.609 119.666V119.121C496.609 117.27 496.949 115.623 497.629 114.182C498.309 112.74 499.281 111.621 500.547 110.824C501.824 110.027 503.33 109.629 505.064 109.629C507.197 109.629 508.967 110.268 510.373 111.545C511.791 112.822 512.547 114.48 512.641 116.52H509.564C509.471 115.289 509.002 114.281 508.158 113.496C507.326 112.699 506.295 112.301 505.064 112.301C503.412 112.301 502.129 112.898 501.215 114.094C500.312 115.277 499.861 116.994 499.861 119.244V119.859C499.861 122.051 500.312 123.738 501.215 124.922C502.117 126.105 503.406 126.697 505.082 126.697Z" fill="white"/>
<path d="M519.83 129H516.578V109.98H519.83V129ZM516.314 104.936C516.314 104.408 516.473 103.963 516.789 103.6C517.117 103.236 517.598 103.055 518.23 103.055C518.863 103.055 519.344 103.236 519.672 103.6C520 103.963 520.164 104.408 520.164 104.936C520.164 105.463 520 105.902 519.672 106.254C519.344 106.605 518.863 106.781 518.23 106.781C517.598 106.781 517.117 106.605 516.789 106.254C516.473 105.902 516.314 105.463 516.314 104.936Z" fill="white"/>
<path d="M536.793 129C536.605 128.625 536.453 127.957 536.336 126.996C534.824 128.566 533.02 129.352 530.922 129.352C529.047 129.352 527.506 128.824 526.299 127.77C525.104 126.703 524.506 125.355 524.506 123.727C524.506 121.746 525.256 120.211 526.756 119.121C528.268 118.02 530.389 117.469 533.119 117.469H536.283V115.975C536.283 114.838 535.943 113.936 535.264 113.268C534.584 112.588 533.582 112.248 532.258 112.248C531.098 112.248 530.125 112.541 529.34 113.127C528.555 113.713 528.162 114.422 528.162 115.254H524.893C524.893 114.305 525.227 113.391 525.895 112.512C526.574 111.621 527.488 110.918 528.637 110.402C529.797 109.887 531.068 109.629 532.451 109.629C534.643 109.629 536.359 110.18 537.602 111.281C538.844 112.371 539.488 113.877 539.535 115.799V124.553C539.535 126.299 539.758 127.688 540.203 128.719V129H536.793ZM531.396 126.521C532.416 126.521 533.383 126.258 534.297 125.73C535.211 125.203 535.873 124.518 536.283 123.674V119.771H533.734C529.75 119.771 527.758 120.938 527.758 123.27C527.758 124.289 528.098 125.086 528.777 125.66C529.457 126.234 530.33 126.521 531.396 126.521Z" fill="white"/>
</g>
<g id="Group 115">
<g id="Derecha-Diestra">
<path d="M409.971 59V33.4062H417.195C419.422 33.4062 421.391 33.8984 423.102 34.8828C424.812 35.8672 426.131 37.2676 427.057 39.084C427.994 40.9004 428.469 42.9863 428.48 45.3418V46.9766C428.48 49.3906 428.012 51.5059 427.074 53.3223C426.148 55.1387 424.818 56.5332 423.084 57.5059C421.361 58.4785 419.352 58.9766 417.055 59H409.971ZM413.346 36.1836V56.2402H416.896C419.498 56.2402 421.52 55.4316 422.961 53.8145C424.414 52.1973 425.141 49.8945 425.141 46.9062V45.4121C425.141 42.5059 424.455 40.25 423.084 38.6445C421.725 37.0273 419.791 36.207 417.283 36.1836H413.346Z" fill="#E79720"/>
<path d="M440.979 59.3516C438.4 59.3516 436.303 58.5078 434.686 56.8203C433.068 55.1211 432.26 52.8535 432.26 50.0176V49.4199C432.26 47.5332 432.617 45.8516 433.332 44.375C434.059 42.8867 435.066 41.7266 436.355 40.8945C437.656 40.0508 439.062 39.6289 440.574 39.6289C443.047 39.6289 444.969 40.4434 446.34 42.0723C447.711 43.7012 448.396 46.0332 448.396 49.0684V50.4219H435.512C435.559 52.2969 436.104 53.8145 437.146 54.9746C438.201 56.123 439.537 56.6973 441.154 56.6973C442.303 56.6973 443.275 56.4629 444.072 55.9941C444.869 55.5254 445.566 54.9043 446.164 54.1309L448.15 55.6777C446.557 58.127 444.166 59.3516 440.979 59.3516ZM440.574 42.3008C439.262 42.3008 438.16 42.7812 437.27 43.7422C436.379 44.6914 435.828 46.0273 435.617 47.75H445.145V47.5039C445.051 45.8516 444.605 44.5742 443.809 43.6719C443.012 42.7578 441.934 42.3008 440.574 42.3008Z" fill="#E79720"/>
<path d="M461.369 42.8984C460.877 42.8164 460.344 42.7754 459.77 42.7754C457.637 42.7754 456.189 43.6836 455.428 45.5V59H452.176V39.9805H455.34L455.393 42.1777C456.459 40.4785 457.971 39.6289 459.928 39.6289C460.561 39.6289 461.041 39.7109 461.369 39.875V42.8984Z" fill="#E79720"/>
<path d="M471.916 59.3516C469.338 59.3516 467.24 58.5078 465.623 56.8203C464.006 55.1211 463.197 52.8535 463.197 50.0176V49.4199C463.197 47.5332 463.555 45.8516 464.27 44.375C464.996 42.8867 466.004 41.7266 467.293 40.8945C468.594 40.0508 470 39.6289 471.512 39.6289C473.984 39.6289 475.906 40.4434 477.277 42.0723C478.648 43.7012 479.334 46.0332 479.334 49.0684V50.4219H466.449C466.496 52.2969 467.041 53.8145 468.084 54.9746C469.139 56.123 470.475 56.6973 472.092 56.6973C473.24 56.6973 474.213 56.4629 475.01 55.9941C475.807 55.5254 476.504 54.9043 477.102 54.1309L479.088 55.6777C477.494 58.127 475.104 59.3516 471.916 59.3516ZM471.512 42.3008C470.199 42.3008 469.098 42.7812 468.207 43.7422C467.316 44.6914 466.766 46.0273 466.555 47.75H476.082V47.5039C475.988 45.8516 475.543 44.5742 474.746 43.6719C473.949 42.7578 472.871 42.3008 471.512 42.3008Z" fill="#E79720"/>
<path d="M490.742 56.6973C491.902 56.6973 492.916 56.3457 493.783 55.6426C494.65 54.9395 495.131 54.0605 495.225 53.0059H498.301C498.242 54.0957 497.867 55.1328 497.176 56.1172C496.484 57.1016 495.559 57.8867 494.398 58.4727C493.25 59.0586 492.031 59.3516 490.742 59.3516C488.152 59.3516 486.09 58.4902 484.555 56.7676C483.031 55.0332 482.27 52.666 482.27 49.666V49.1211C482.27 47.2695 482.609 45.623 483.289 44.1816C483.969 42.7402 484.941 41.6211 486.207 40.8242C487.484 40.0273 488.99 39.6289 490.725 39.6289C492.857 39.6289 494.627 40.2676 496.033 41.5449C497.451 42.8223 498.207 44.4805 498.301 46.5195H495.225C495.131 45.2891 494.662 44.2812 493.818 43.4961C492.986 42.6992 491.955 42.3008 490.725 42.3008C489.072 42.3008 487.789 42.8984 486.875 44.0938C485.973 45.2773 485.521 46.9941 485.521 49.2441V49.8594C485.521 52.0508 485.973 53.7383 486.875 54.9219C487.777 56.1055 489.066 56.6973 490.742 56.6973Z" fill="#E79720"/>
<path d="M505.209 42.2832C506.65 40.5137 508.525 39.6289 510.834 39.6289C514.854 39.6289 516.881 41.8965 516.916 46.4316V59H513.664V46.4141C513.652 45.043 513.336 44.0293 512.715 43.373C512.105 42.7168 511.15 42.3887 509.85 42.3887C508.795 42.3887 507.869 42.6699 507.072 43.2324C506.275 43.7949 505.654 44.5332 505.209 45.4473V59H501.957V32H505.209V42.2832Z" fill="#E79720"/>
<path d="M533.527 59C533.34 58.625 533.188 57.957 533.07 56.9961C531.559 58.5664 529.754 59.3516 527.656 59.3516C525.781 59.3516 524.24 58.8242 523.033 57.7695C521.838 56.7031 521.24 55.3555 521.24 53.7266C521.24 51.7461 521.99 50.2109 523.49 49.1211C525.002 48.0195 527.123 47.4688 529.854 47.4688H533.018V45.9746C533.018 44.8379 532.678 43.9355 531.998 43.2676C531.318 42.5879 530.316 42.248 528.992 42.248C527.832 42.248 526.859 42.541 526.074 43.127C525.289 43.7129 524.896 44.4219 524.896 45.2539H521.627C521.627 44.3047 521.961 43.3906 522.629 42.5117C523.309 41.6211 524.223 40.918 525.371 40.4023C526.531 39.8867 527.803 39.6289 529.186 39.6289C531.377 39.6289 533.094 40.1797 534.336 41.2812C535.578 42.3711 536.223 43.877 536.27 45.7988V54.5527C536.27 56.2988 536.492 57.6875 536.938 58.7188V59H533.527ZM528.131 56.5215C529.15 56.5215 530.117 56.2578 531.031 55.7305C531.945 55.2031 532.607 54.5176 533.018 53.6738V49.7715H530.469C526.484 49.7715 524.492 50.9375 524.492 53.2695C524.492 54.2891 524.832 55.0859 525.512 55.6602C526.191 56.2344 527.064 56.5215 528.131 56.5215Z" fill="#E79720"/>
<path d="M548.135 49.4551H539.557V46.8008H548.135V49.4551Z" fill="#E79720"/>
<path d="M551.826 59V33.4062H559.051C561.277 33.4062 563.246 33.8984 564.957 34.8828C566.668 35.8672 567.986 37.2676 568.912 39.084C569.85 40.9004 570.324 42.9863 570.336 45.3418V46.9766C570.336 49.3906 569.867 51.5059 568.93 53.3223C568.004 55.1387 566.674 56.5332 564.939 57.5059C563.217 58.4785 561.207 58.9766 558.91 59H551.826ZM555.201 36.1836V56.2402H558.752C561.354 56.2402 563.375 55.4316 564.816 53.8145C566.27 52.1973 566.996 49.8945 566.996 46.9062V45.4121C566.996 42.5059 566.311 40.25 564.939 38.6445C563.58 37.0273 561.646 36.207 559.139 36.1836H555.201Z" fill="#E79720"/>
<path d="M578.475 59H575.223V39.9805H578.475V59ZM574.959 34.9355C574.959 34.4082 575.117 33.9629 575.434 33.5996C575.762 33.2363 576.242 33.0547 576.875 33.0547C577.508 33.0547 577.988 33.2363 578.316 33.5996C578.645 33.9629 578.809 34.4082 578.809 34.9355C578.809 35.4629 578.645 35.9023 578.316 36.2539C577.988 36.6055 577.508 36.7812 576.875 36.7812C576.242 36.7812 575.762 36.6055 575.434 36.2539C575.117 35.9023 574.959 35.4629 574.959 34.9355Z" fill="#E79720"/>
<path d="M591.588 59.3516C589.01 59.3516 586.912 58.5078 585.295 56.8203C583.678 55.1211 582.869 52.8535 582.869 50.0176V49.4199C582.869 47.5332 583.227 45.8516 583.941 44.375C584.668 42.8867 585.676 41.7266 586.965 40.8945C588.266 40.0508 589.672 39.6289 591.184 39.6289C593.656 39.6289 595.578 40.4434 596.949 42.0723C598.32 43.7012 599.006 46.0332 599.006 49.0684V50.4219H586.121C586.168 52.2969 586.713 53.8145 587.756 54.9746C588.811 56.123 590.146 56.6973 591.764 56.6973C592.912 56.6973 593.885 56.4629 594.682 55.9941C595.479 55.5254 596.176 54.9043 596.773 54.1309L598.76 55.6777C597.166 58.127 594.775 59.3516 591.588 59.3516ZM591.184 42.3008C589.871 42.3008 588.77 42.7812 587.879 43.7422C586.988 44.6914 586.438 46.0273 586.227 47.75H595.754V47.5039C595.66 45.8516 595.215 44.5742 594.418 43.6719C593.621 42.7578 592.543 42.3008 591.184 42.3008Z" fill="#E79720"/>
<path d="M613.859 53.9551C613.859 53.0762 613.525 52.3965 612.857 51.916C612.201 51.4238 611.047 51.002 609.395 50.6504C607.754 50.2988 606.447 49.877 605.475 49.3848C604.514 48.8926 603.799 48.3066 603.33 47.627C602.873 46.9473 602.645 46.1387 602.645 45.2012C602.645 43.6426 603.301 42.3242 604.613 41.2461C605.938 40.168 607.625 39.6289 609.676 39.6289C611.832 39.6289 613.578 40.1855 614.914 41.2988C616.262 42.4121 616.936 43.8359 616.936 45.5703H613.666C613.666 44.6797 613.285 43.9121 612.523 43.2676C611.773 42.623 610.824 42.3008 609.676 42.3008C608.492 42.3008 607.566 42.5586 606.898 43.0742C606.23 43.5898 605.896 44.2637 605.896 45.0957C605.896 45.8809 606.207 46.4727 606.828 46.8711C607.449 47.2695 608.568 47.6504 610.186 48.0137C611.814 48.377 613.133 48.8105 614.141 49.3145C615.148 49.8184 615.893 50.4277 616.373 51.1426C616.865 51.8457 617.111 52.707 617.111 53.7266C617.111 55.4258 616.432 56.791 615.072 57.8223C613.713 58.8418 611.949 59.3516 609.781 59.3516C608.258 59.3516 606.91 59.082 605.738 58.543C604.566 58.0039 603.646 57.2539 602.979 56.293C602.322 55.3203 601.994 54.2715 601.994 53.1465H605.246C605.305 54.2363 605.738 55.1035 606.547 55.748C607.367 56.3809 608.445 56.6973 609.781 56.6973C611.012 56.6973 611.996 56.4512 612.734 55.959C613.484 55.4551 613.859 54.7871 613.859 53.9551Z" fill="#E79720"/>
<path d="M625.76 35.375V39.9805H629.311V42.4941H625.76V54.2891C625.76 55.0508 625.918 55.625 626.234 56.0117C626.551 56.3867 627.09 56.5742 627.852 56.5742C628.227 56.5742 628.742 56.5039 629.398 56.3633V59C628.543 59.2344 627.711 59.3516 626.902 59.3516C625.449 59.3516 624.354 58.9121 623.615 58.0332C622.877 57.1543 622.508 55.9062 622.508 54.2891V42.4941H619.045V39.9805H622.508V35.375H625.76Z" fill="#E79720"/>
<path d="M642.318 42.8984C641.826 42.8164 641.293 42.7754 640.719 42.7754C638.586 42.7754 637.139 43.6836 636.377 45.5V59H633.125V39.9805H636.289L636.342 42.1777C637.408 40.4785 638.92 39.6289 640.877 39.6289C641.51 39.6289 641.99 39.7109 642.318 39.875V42.8984Z" fill="#E79720"/>
<path d="M656.363 59C656.176 58.625 656.023 57.957 655.906 56.9961C654.395 58.5664 652.59 59.3516 650.492 59.3516C648.617 59.3516 647.076 58.8242 645.869 57.7695C644.674 56.7031 644.076 55.3555 644.076 53.7266C644.076 51.7461 644.826 50.2109 646.326 49.1211C647.838 48.0195 649.959 47.4688 652.689 47.4688H655.854V45.9746C655.854 44.8379 655.514 43.9355 654.834 43.2676C654.154 42.5879 653.152 42.248 651.828 42.248C650.668 42.248 649.695 42.541 648.91 43.127C648.125 43.7129 647.732 44.4219 647.732 45.2539H644.463C644.463 44.3047 644.797 43.3906 645.465 42.5117C646.145 41.6211 647.059 40.918 648.207 40.4023C649.367 39.8867 650.639 39.6289 652.021 39.6289C654.213 39.6289 655.93 40.1797 657.172 41.2812C658.414 42.3711 659.059 43.877 659.105 45.7988V54.5527C659.105 56.2988 659.328 57.6875 659.773 58.7188V59H656.363ZM650.967 56.5215C651.986 56.5215 652.953 56.2578 653.867 55.7305C654.781 55.2031 655.443 54.5176 655.854 53.6738V49.7715H653.305C649.32 49.7715 647.328 50.9375 647.328 53.2695C647.328 54.2891 647.668 55.0859 648.348 55.6602C649.027 56.2344 649.9 56.5215 650.967 56.5215Z" fill="#E79720"/>
</g>
<path id="Arrow 3 (Stroke)" fill-rule="evenodd" clip-rule="evenodd" d="M346.334 50.1055C345.723 49.185 345.974 47.9439 346.895 47.3333L361.895 37.3837C362.815 36.7731 364.057 37.0244 364.667 37.9448C365.278 38.8653 365.026 40.1065 364.106 40.717L353.096 48.0196C369.277 51.4993 382.221 55.4533 394.689 61.5809C408.338 68.2889 421.317 77.5535 437.314 91.4921L434.686 94.5079C418.83 80.6921 406.145 71.6682 392.925 65.1707C380.879 59.2506 368.309 55.3876 352.359 51.9525L359.617 62.8946C360.227 63.8151 359.976 65.0563 359.055 65.6668C358.135 66.2774 356.894 66.0262 356.283 65.1057L346.334 50.1055Z" fill="#E79720"/>
</g>
<g id="Group 114">
<g id="Izquierda-Siniestra">
<path d="M497.591 207H494.216V181.406H497.591V207Z" fill="#E79720"/>
<path d="M506.328 204.346H517.455V207H502.355V204.609L512.849 190.67H502.513V187.98H516.927V190.283L506.328 204.346Z" fill="#E79720"/>
<path d="M520.056 197.332C520.056 194.344 520.742 191.982 522.113 190.248C523.484 188.502 525.324 187.629 527.632 187.629C529.882 187.629 531.658 188.385 532.958 189.896L533.099 187.98H536.087V214.312H532.835V205.242C531.523 206.648 529.777 207.352 527.597 207.352C525.3 207.352 523.466 206.461 522.095 204.68C520.736 202.887 520.056 200.514 520.056 197.561V197.332ZM523.308 197.701C523.308 199.881 523.765 201.592 524.679 202.834C525.605 204.076 526.847 204.697 528.406 204.697C530.339 204.697 531.816 203.842 532.835 202.131V192.814C531.804 191.139 530.339 190.301 528.441 190.301C526.871 190.301 525.623 190.928 524.697 192.182C523.771 193.424 523.308 195.264 523.308 197.701Z" fill="#E79720"/>
<path d="M553.05 205.119C551.785 206.607 549.927 207.352 547.478 207.352C545.451 207.352 543.904 206.766 542.837 205.594C541.783 204.41 541.25 202.664 541.238 200.355V187.98H544.49V200.268C544.49 203.15 545.662 204.592 548.005 204.592C550.49 204.592 552.142 203.666 552.962 201.814V187.98H556.214V207H553.121L553.05 205.119Z" fill="#E79720"/>
<path d="M564.705 207H561.453V187.98H564.705V207ZM561.189 182.936C561.189 182.408 561.347 181.963 561.664 181.6C561.992 181.236 562.472 181.055 563.105 181.055C563.738 181.055 564.218 181.236 564.546 181.6C564.875 181.963 565.039 182.408 565.039 182.936C565.039 183.463 564.875 183.902 564.546 184.254C564.218 184.605 563.738 184.781 563.105 184.781C562.472 184.781 561.992 184.605 561.664 184.254C561.347 183.902 561.189 183.463 561.189 182.936Z" fill="#E79720"/>
<path d="M577.818 207.352C575.24 207.352 573.142 206.508 571.525 204.82C569.908 203.121 569.099 200.854 569.099 198.018V197.42C569.099 195.533 569.457 193.852 570.171 192.375C570.898 190.887 571.906 189.727 573.195 188.895C574.496 188.051 575.902 187.629 577.414 187.629C579.886 187.629 581.808 188.443 583.179 190.072C584.55 191.701 585.236 194.033 585.236 197.068V198.422H572.351C572.398 200.297 572.943 201.814 573.986 202.975C575.041 204.123 576.376 204.697 577.994 204.697C579.142 204.697 580.115 204.463 580.912 203.994C581.708 203.525 582.406 202.904 583.003 202.131L584.99 203.678C583.396 206.127 581.005 207.352 577.818 207.352ZM577.414 190.301C576.101 190.301 575 190.781 574.109 191.742C573.218 192.691 572.667 194.027 572.457 195.75H581.984V195.504C581.89 193.852 581.445 192.574 580.648 191.672C579.851 190.758 578.773 190.301 577.414 190.301Z" fill="#E79720"/>
<path d="M598.208 190.898C597.716 190.816 597.183 190.775 596.609 190.775C594.476 190.775 593.029 191.684 592.267 193.5V207H589.015V187.98H592.179L592.232 190.178C593.298 188.479 594.81 187.629 596.767 187.629C597.4 187.629 597.88 187.711 598.208 187.875V190.898Z" fill="#E79720"/>
<path d="M600.072 197.332C600.072 194.414 600.763 192.07 602.146 190.301C603.529 188.52 605.339 187.629 607.578 187.629C609.804 187.629 611.568 188.391 612.869 189.914V180H616.121V207H613.132L612.974 204.961C611.673 206.555 609.863 207.352 607.542 207.352C605.339 207.352 603.541 206.449 602.146 204.645C600.763 202.84 600.072 200.484 600.072 197.578V197.332ZM603.324 197.701C603.324 199.857 603.769 201.545 604.66 202.764C605.55 203.982 606.781 204.592 608.351 204.592C610.414 204.592 611.919 203.666 612.869 201.814V193.078C611.896 191.285 610.402 190.389 608.386 190.389C606.792 190.389 605.55 191.004 604.66 192.234C603.769 193.465 603.324 195.287 603.324 197.701Z" fill="#E79720"/>
<path d="M632.925 207C632.738 206.625 632.585 205.957 632.468 204.996C630.957 206.566 629.152 207.352 627.054 207.352C625.179 207.352 623.638 206.824 622.431 205.77C621.236 204.703 620.638 203.355 620.638 201.727C620.638 199.746 621.388 198.211 622.888 197.121C624.4 196.02 626.521 195.469 629.251 195.469H632.416V193.975C632.416 192.838 632.076 191.936 631.396 191.268C630.716 190.588 629.714 190.248 628.39 190.248C627.23 190.248 626.257 190.541 625.472 191.127C624.687 191.713 624.294 192.422 624.294 193.254H621.025C621.025 192.305 621.359 191.391 622.027 190.512C622.707 189.621 623.621 188.918 624.769 188.402C625.929 187.887 627.201 187.629 628.583 187.629C630.775 187.629 632.492 188.18 633.734 189.281C634.976 190.371 635.621 191.877 635.667 193.799V202.553C635.667 204.299 635.89 205.688 636.335 206.719V207H632.925ZM627.529 204.521C628.548 204.521 629.515 204.258 630.429 203.73C631.343 203.203 632.005 202.518 632.416 201.674V197.771H629.867C625.882 197.771 623.89 198.938 623.89 201.27C623.89 202.289 624.23 203.086 624.91 203.66C625.589 204.234 626.462 204.521 627.529 204.521Z" fill="#E79720"/>
<path d="M647.533 197.455H638.955V194.801H647.533V197.455Z" fill="#E79720"/>
<path d="M658.765 195.592C655.871 194.76 653.761 193.74 652.437 192.533C651.125 191.314 650.468 189.814 650.468 188.033C650.468 186.018 651.271 184.354 652.876 183.041C654.494 181.717 656.591 181.055 659.169 181.055C660.927 181.055 662.492 181.395 663.863 182.074C665.246 182.754 666.312 183.691 667.062 184.887C667.824 186.082 668.205 187.389 668.205 188.807H664.812C664.812 187.26 664.32 186.047 663.335 185.168C662.351 184.277 660.962 183.832 659.169 183.832C657.505 183.832 656.205 184.201 655.267 184.939C654.341 185.666 653.878 186.68 653.878 187.98C653.878 189.023 654.318 189.908 655.197 190.635C656.087 191.35 657.593 192.006 659.714 192.604C661.847 193.201 663.511 193.863 664.707 194.59C665.914 195.305 666.804 196.143 667.378 197.104C667.964 198.064 668.257 199.195 668.257 200.496C668.257 202.57 667.449 204.234 665.832 205.488C664.214 206.73 662.052 207.352 659.345 207.352C657.587 207.352 655.947 207.018 654.423 206.35C652.9 205.67 651.722 204.744 650.89 203.572C650.07 202.4 649.66 201.07 649.66 199.582H653.052C653.052 201.129 653.621 202.354 654.757 203.256C655.906 204.146 657.435 204.592 659.345 204.592C661.126 204.592 662.492 204.229 663.441 203.502C664.39 202.775 664.865 201.785 664.865 200.531C664.865 199.277 664.425 198.311 663.546 197.631C662.667 196.939 661.074 196.26 658.765 195.592Z" fill="#E79720"/>
<path d="M675.623 207H672.371V187.98H675.623V207ZM672.107 182.936C672.107 182.408 672.265 181.963 672.582 181.6C672.91 181.236 673.39 181.055 674.023 181.055C674.656 181.055 675.136 181.236 675.464 181.6C675.792 181.963 675.957 182.408 675.957 182.936C675.957 183.463 675.792 183.902 675.464 184.254C675.136 184.605 674.656 184.781 674.023 184.781C673.39 184.781 672.91 184.605 672.582 184.254C672.265 183.902 672.107 183.463 672.107 182.936Z" fill="#E79720"/>
<path d="M683.919 187.98L684.025 190.371C685.478 188.543 687.376 187.629 689.72 187.629C693.74 187.629 695.767 189.896 695.802 194.432V207H692.55V194.414C692.539 193.043 692.222 192.029 691.601 191.373C690.992 190.717 690.037 190.389 688.736 190.389C687.681 190.389 686.755 190.67 685.958 191.232C685.162 191.795 684.541 192.533 684.095 193.447V207H680.843V187.98H683.919Z" fill="#E79720"/>
<path d="M704.24 207H700.988V187.98H704.24V207ZM700.724 182.936C700.724 182.408 700.882 181.963 701.199 181.6C701.527 181.236 702.007 181.055 702.64 181.055C703.273 181.055 703.753 181.236 704.082 181.6C704.41 181.963 704.574 182.408 704.574 182.936C704.574 183.463 704.41 183.902 704.082 184.254C703.753 184.605 703.273 184.781 702.64 184.781C702.007 184.781 701.527 184.605 701.199 184.254C700.882 183.902 700.724 183.463 700.724 182.936Z" fill="#E79720"/>
<path d="M717.353 207.352C714.775 207.352 712.677 206.508 711.06 204.82C709.443 203.121 708.634 200.854 708.634 198.018V197.42C708.634 195.533 708.992 193.852 709.707 192.375C710.433 190.887 711.441 189.727 712.73 188.895C714.031 188.051 715.437 187.629 716.949 187.629C719.421 187.629 721.343 188.443 722.714 190.072C724.085 191.701 724.771 194.033 724.771 197.068V198.422H711.886C711.933 200.297 712.478 201.814 713.521 202.975C714.576 204.123 715.912 204.697 717.529 204.697C718.677 204.697 719.65 204.463 720.447 203.994C721.244 203.525 721.941 202.904 722.539 202.131L724.525 203.678C722.931 206.127 720.541 207.352 717.353 207.352ZM716.949 190.301C715.636 190.301 714.535 190.781 713.644 191.742C712.753 192.691 712.203 194.027 711.992 195.75H721.519V195.504C721.425 193.852 720.98 192.574 720.183 191.672C719.386 190.758 718.308 190.301 716.949 190.301Z" fill="#E79720"/>
<path d="M739.625 201.955C739.625 201.076 739.291 200.396 738.623 199.916C737.966 199.424 736.812 199.002 735.16 198.65C733.519 198.299 732.212 197.877 731.24 197.385C730.279 196.893 729.564 196.307 729.095 195.627C728.638 194.947 728.41 194.139 728.41 193.201C728.41 191.643 729.066 190.324 730.378 189.246C731.703 188.168 733.39 187.629 735.441 187.629C737.597 187.629 739.343 188.186 740.679 189.299C742.027 190.412 742.701 191.836 742.701 193.57H739.431C739.431 192.68 739.05 191.912 738.289 191.268C737.539 190.623 736.589 190.301 735.441 190.301C734.257 190.301 733.332 190.559 732.664 191.074C731.996 191.59 731.662 192.264 731.662 193.096C731.662 193.881 731.972 194.473 732.593 194.871C733.214 195.27 734.333 195.65 735.951 196.014C737.58 196.377 738.898 196.811 739.906 197.314C740.914 197.818 741.658 198.428 742.138 199.143C742.63 199.846 742.876 200.707 742.876 201.727C742.876 203.426 742.197 204.791 740.837 205.822C739.478 206.842 737.714 207.352 735.546 207.352C734.023 207.352 732.675 207.082 731.503 206.543C730.332 206.004 729.412 205.254 728.744 204.293C728.087 203.32 727.759 202.271 727.759 201.146H731.011C731.07 202.236 731.503 203.104 732.312 203.748C733.132 204.381 734.21 204.697 735.546 204.697C736.777 204.697 737.761 204.451 738.5 203.959C739.25 203.455 739.625 202.787 739.625 201.955Z" fill="#E79720"/>
<path d="M751.525 183.375V187.98H755.076V190.494H751.525V202.289C751.525 203.051 751.683 203.625 752 204.012C752.316 204.387 752.855 204.574 753.617 204.574C753.992 204.574 754.507 204.504 755.164 204.363V207C754.308 207.234 753.476 207.352 752.667 207.352C751.214 207.352 750.119 206.912 749.38 206.033C748.642 205.154 748.273 203.906 748.273 202.289V190.494H744.81V187.98H748.273V183.375H751.525Z" fill="#E79720"/>
<path d="M768.083 190.898C767.591 190.816 767.058 190.775 766.484 190.775C764.351 190.775 762.904 191.684 762.142 193.5V207H758.89V187.98H762.054L762.107 190.178C763.173 188.479 764.685 187.629 766.642 187.629C767.275 187.629 767.755 187.711 768.083 187.875V190.898Z" fill="#E79720"/>
<path d="M782.128 207C781.941 206.625 781.789 205.957 781.671 204.996C780.16 206.566 778.355 207.352 776.257 207.352C774.382 207.352 772.841 206.824 771.634 205.77C770.439 204.703 769.841 203.355 769.841 201.727C769.841 199.746 770.591 198.211 772.091 197.121C773.603 196.02 775.724 195.469 778.455 195.469H781.619V193.975C781.619 192.838 781.279 191.936 780.599 191.268C779.919 190.588 778.917 190.248 777.593 190.248C776.433 190.248 775.46 190.541 774.675 191.127C773.89 191.713 773.498 192.422 773.498 193.254H770.228C770.228 192.305 770.562 191.391 771.23 190.512C771.91 189.621 772.824 188.918 773.972 188.402C775.132 187.887 776.404 187.629 777.787 187.629C779.978 187.629 781.695 188.18 782.937 189.281C784.179 190.371 784.824 191.877 784.871 193.799V202.553C784.871 204.299 785.093 205.688 785.539 206.719V207H782.128ZM776.732 204.521C777.751 204.521 778.718 204.258 779.632 203.73C780.546 203.203 781.208 202.518 781.619 201.674V197.771H779.07C775.085 197.771 773.093 198.938 773.093 201.27C773.093 202.289 773.433 203.086 774.113 203.66C774.792 204.234 775.666 204.521 776.732 204.521Z" fill="#E79720"/>
</g>
<path id="Arrow 4 (Stroke)" fill-rule="evenodd" clip-rule="evenodd" d="M469.004 253.73C468.049 254.284 466.825 253.959 466.27 253.004L457.233 237.437C456.678 236.482 457.003 235.258 457.958 234.704C458.914 234.149 460.138 234.474 460.692 235.429L467.291 246.796C471.719 229.533 474.325 215.691 474.884 201.898C475.493 186.897 473.685 171.857 469.055 152.464L472.945 151.536C477.632 171.167 479.509 186.588 478.881 202.061C478.304 216.271 475.618 230.443 471.148 247.86L482.563 241.233C483.518 240.678 484.742 241.003 485.296 241.959C485.851 242.914 485.526 244.138 484.571 244.692L469.004 253.73Z" fill="#E79720"/>
</g>
</g>
<g id="Carmen">
<path d="M469.797 290.879C469.48 293.586 468.479 295.678 466.791 297.154C465.115 298.619 462.883 299.352 460.094 299.352C457.07 299.352 454.645 298.268 452.816 296.1C451 293.932 450.092 291.031 450.092 287.398V284.938C450.092 282.559 450.514 280.467 451.357 278.662C452.213 276.857 453.42 275.475 454.979 274.514C456.537 273.541 458.342 273.055 460.393 273.055C463.111 273.055 465.291 273.816 466.932 275.34C468.572 276.852 469.527 278.949 469.797 281.633H466.404C466.111 279.594 465.473 278.117 464.488 277.203C463.516 276.289 462.15 275.832 460.393 275.832C458.236 275.832 456.543 276.629 455.312 278.223C454.094 279.816 453.484 282.084 453.484 285.025V287.504C453.484 290.281 454.064 292.49 455.225 294.131C456.385 295.771 458.008 296.592 460.094 296.592C461.969 296.592 463.404 296.17 464.4 295.326C465.408 294.471 466.076 292.988 466.404 290.879H469.797Z" fill="white"/>
<path d="M485.652 299C485.465 298.625 485.312 297.957 485.195 296.996C483.684 298.566 481.879 299.352 479.781 299.352C477.906 299.352 476.365 298.824 475.158 297.77C473.963 296.703 473.365 295.355 473.365 293.727C473.365 291.746 474.115 290.211 475.615 289.121C477.127 288.02 479.248 287.469 481.979 287.469H485.143V285.975C485.143 284.838 484.803 283.936 484.123 283.268C483.443 282.588 482.441 282.248 481.117 282.248C479.957 282.248 478.984 282.541 478.199 283.127C477.414 283.713 477.021 284.422 477.021 285.254H473.752C473.752 284.305 474.086 283.391 474.754 282.512C475.434 281.621 476.348 280.918 477.496 280.402C478.656 279.887 479.928 279.629 481.311 279.629C483.502 279.629 485.219 280.18 486.461 281.281C487.703 282.371 488.348 283.877 488.395 285.799V294.553C488.395 296.299 488.617 297.688 489.062 298.719V299H485.652ZM480.256 296.521C481.275 296.521 482.242 296.258 483.156 295.73C484.07 295.203 484.732 294.518 485.143 293.674V289.771H482.594C478.609 289.771 476.617 290.938 476.617 293.27C476.617 294.289 476.957 295.086 477.637 295.66C478.316 296.234 479.189 296.521 480.256 296.521Z" fill="white"/>
<path d="M502.686 282.898C502.193 282.816 501.66 282.775 501.086 282.775C498.953 282.775 497.506 283.684 496.744 285.5V299H493.492V279.98H496.656L496.709 282.178C497.775 280.479 499.287 279.629 501.244 279.629C501.877 279.629 502.357 279.711 502.686 279.875V282.898Z" fill="white"/>
<path d="M508.75 279.98L508.838 282.09C510.232 280.449 512.113 279.629 514.48 279.629C517.141 279.629 518.951 280.648 519.912 282.688C520.545 281.773 521.365 281.035 522.373 280.473C523.393 279.91 524.594 279.629 525.977 279.629C530.148 279.629 532.27 281.838 532.34 286.256V299H529.088V286.449C529.088 285.09 528.777 284.076 528.156 283.408C527.535 282.729 526.492 282.389 525.027 282.389C523.82 282.389 522.818 282.752 522.021 283.479C521.225 284.193 520.762 285.16 520.633 286.379V299H517.363V286.537C517.363 283.771 516.01 282.389 513.303 282.389C511.17 282.389 509.711 283.297 508.926 285.113V299H505.674V279.98H508.75Z" fill="white"/>
<path d="M545.154 299.352C542.576 299.352 540.479 298.508 538.861 296.82C537.244 295.121 536.436 292.854 536.436 290.018V289.42C536.436 287.533 536.793 285.852 537.508 284.375C538.234 282.887 539.242 281.727 540.531 280.895C541.832 280.051 543.238 279.629 544.75 279.629C547.223 279.629 549.145 280.443 550.516 282.072C551.887 283.701 552.572 286.033 552.572 289.068V290.422H539.688C539.734 292.297 540.279 293.814 541.322 294.975C542.377 296.123 543.713 296.697 545.33 296.697C546.479 296.697 547.451 296.463 548.248 295.994C549.045 295.525 549.742 294.904 550.34 294.131L552.326 295.678C550.732 298.127 548.342 299.352 545.154 299.352ZM544.75 282.301C543.438 282.301 542.336 282.781 541.445 283.742C540.555 284.691 540.004 286.027 539.793 287.75H549.32V287.504C549.227 285.852 548.781 284.574 547.984 283.672C547.188 282.758 546.109 282.301 544.75 282.301Z" fill="white"/>
<path d="M559.428 279.98L559.533 282.371C560.986 280.543 562.885 279.629 565.229 279.629C569.248 279.629 571.275 281.896 571.311 286.432V299H568.059V286.414C568.047 285.043 567.73 284.029 567.109 283.373C566.5 282.717 565.545 282.389 564.244 282.389C563.189 282.389 562.264 282.67 561.467 283.232C560.67 283.795 560.049 284.533 559.604 285.447V299H556.352V279.98H559.428Z" fill="white"/>
</g>
</g>
<g id="Group 136">
<g id="Diana">
<path d="M297.971 26V0.40625H305.195C307.422 0.40625 309.391 0.898438 311.102 1.88281C312.812 2.86719 314.131 4.26758 315.057 6.08398C315.994 7.90039 316.469 9.98633 316.48 12.3418V13.9766C316.48 16.3906 316.012 18.5059 315.074 20.3223C314.148 22.1387 312.818 23.5332 311.084 24.5059C309.361 25.4785 307.352 25.9766 305.055 26H297.971ZM301.346 3.18359V23.2402H304.896C307.498 23.2402 309.52 22.4316 310.961 20.8145C312.414 19.1973 313.141 16.8945 313.141 13.9062V12.4121C313.141 9.50586 312.455 7.25 311.084 5.64453C309.725 4.02734 307.791 3.20703 305.283 3.18359H301.346Z" fill="white"/>
<path d="M324.619 26H321.367V6.98047H324.619V26ZM321.104 1.93555C321.104 1.4082 321.262 0.962891 321.578 0.599609C321.906 0.236328 322.387 0.0546875 323.02 0.0546875C323.652 0.0546875 324.133 0.236328 324.461 0.599609C324.789 0.962891 324.953 1.4082 324.953 1.93555C324.953 2.46289 324.789 2.90234 324.461 3.25391C324.133 3.60547 323.652 3.78125 323.02 3.78125C322.387 3.78125 321.906 3.60547 321.578 3.25391C321.262 2.90234 321.104 2.46289 321.104 1.93555Z" fill="white"/>
<path d="M341.582 26C341.395 25.625 341.242 24.957 341.125 23.9961C339.613 25.5664 337.809 26.3516 335.711 26.3516C333.836 26.3516 332.295 25.8242 331.088 24.7695C329.893 23.7031 329.295 22.3555 329.295 20.7266C329.295 18.7461 330.045 17.2109 331.545 16.1211C333.057 15.0195 335.178 14.4688 337.908 14.4688H341.072V12.9746C341.072 11.8379 340.732 10.9355 340.053 10.2676C339.373 9.58789 338.371 9.24805 337.047 9.24805C335.887 9.24805 334.914 9.54102 334.129 10.127C333.344 10.7129 332.951 11.4219 332.951 12.2539H329.682C329.682 11.3047 330.016 10.3906 330.684 9.51172C331.363 8.62109 332.277 7.91797 333.426 7.40234C334.586 6.88672 335.857 6.62891 337.24 6.62891C339.432 6.62891 341.148 7.17969 342.391 8.28125C343.633 9.37109 344.277 10.877 344.324 12.7988V21.5527C344.324 23.2988 344.547 24.6875 344.992 25.7188V26H341.582ZM336.186 23.5215C337.205 23.5215 338.172 23.2578 339.086 22.7305C340 22.2031 340.662 21.5176 341.072 20.6738V16.7715H338.523C334.539 16.7715 332.547 17.9375 332.547 20.2695C332.547 21.2891 332.887 22.0859 333.566 22.6602C334.246 23.2344 335.119 23.5215 336.186 23.5215Z" fill="white"/>
<path d="M352.498 6.98047L352.604 9.37109C354.057 7.54297 355.955 6.62891 358.299 6.62891C362.318 6.62891 364.346 8.89648 364.381 13.4316V26H361.129V13.4141C361.117 12.043 360.801 11.0293 360.18 10.373C359.57 9.7168 358.615 9.38867 357.314 9.38867C356.26 9.38867 355.334 9.66992 354.537 10.2324C353.74 10.7949 353.119 11.5332 352.674 12.4473V26H349.422V6.98047H352.498Z" fill="white"/>
<path d="M381.027 26C380.84 25.625 380.688 24.957 380.57 23.9961C379.059 25.5664 377.254 26.3516 375.156 26.3516C373.281 26.3516 371.74 25.8242 370.533 24.7695C369.338 23.7031 368.74 22.3555 368.74 20.7266C368.74 18.7461 369.49 17.2109 370.99 16.1211C372.502 15.0195 374.623 14.4688 377.354 14.4688H380.518V12.9746C380.518 11.8379 380.178 10.9355 379.498 10.2676C378.818 9.58789 377.816 9.24805 376.492 9.24805C375.332 9.24805 374.359 9.54102 373.574 10.127C372.789 10.7129 372.396 11.4219 372.396 12.2539H369.127C369.127 11.3047 369.461 10.3906 370.129 9.51172C370.809 8.62109 371.723 7.91797 372.871 7.40234C374.031 6.88672 375.303 6.62891 376.686 6.62891C378.877 6.62891 380.594 7.17969 381.836 8.28125C383.078 9.37109 383.723 10.877 383.77 12.7988V21.5527C383.77 23.2988 383.992 24.6875 384.438 25.7188V26H381.027ZM375.631 23.5215C376.65 23.5215 377.617 23.2578 378.531 22.7305C379.445 22.2031 380.107 21.5176 380.518 20.6738V16.7715H377.969C373.984 16.7715 371.992 17.9375 371.992 20.2695C371.992 21.2891 372.332 22.0859 373.012 22.6602C373.691 23.2344 374.564 23.5215 375.631 23.5215Z" fill="white"/>
</g>
<g id="Edith">
<path d="M317.467 360.17H306.375V369.24H319.26V372H303V346.406H319.084V349.184H306.375V357.41H317.467V360.17Z" fill="white"/>
<path d="M321.809 362.332C321.809 359.414 322.5 357.07 323.883 355.301C325.266 353.52 327.076 352.629 329.314 352.629C331.541 352.629 333.305 353.391 334.605 354.914V345H337.857V372H334.869L334.711 369.961C333.41 371.555 331.6 372.352 329.279 372.352C327.076 372.352 325.277 371.449 323.883 369.645C322.5 367.84 321.809 365.484 321.809 362.578V362.332ZM325.061 362.701C325.061 364.857 325.506 366.545 326.396 367.764C327.287 368.982 328.518 369.592 330.088 369.592C332.15 369.592 333.656 368.666 334.605 366.814V358.078C333.633 356.285 332.139 355.389 330.123 355.389C328.529 355.389 327.287 356.004 326.396 357.234C325.506 358.465 325.061 360.287 325.061 362.701Z" fill="white"/>
<path d="M346.453 372H343.201V352.98H346.453V372ZM342.938 347.936C342.938 347.408 343.096 346.963 343.412 346.6C343.74 346.236 344.221 346.055 344.854 346.055C345.486 346.055 345.967 346.236 346.295 346.6C346.623 346.963 346.787 347.408 346.787 347.936C346.787 348.463 346.623 348.902 346.295 349.254C345.967 349.605 345.486 349.781 344.854 349.781C344.221 349.781 343.74 349.605 343.412 349.254C343.096 348.902 342.938 348.463 342.938 347.936Z" fill="white"/>
<path d="M356.086 348.375V352.98H359.637V355.494H356.086V367.289C356.086 368.051 356.244 368.625 356.561 369.012C356.877 369.387 357.416 369.574 358.178 369.574C358.553 369.574 359.068 369.504 359.725 369.363V372C358.869 372.234 358.037 372.352 357.229 372.352C355.775 372.352 354.68 371.912 353.941 371.033C353.203 370.154 352.834 368.906 352.834 367.289V355.494H349.371V352.98H352.834V348.375H356.086Z" fill="white"/>
<path d="M366.703 355.283C368.145 353.514 370.02 352.629 372.328 352.629C376.348 352.629 378.375 354.896 378.41 359.432V372H375.158V359.414C375.146 358.043 374.83 357.029 374.209 356.373C373.6 355.717 372.645 355.389 371.344 355.389C370.289 355.389 369.363 355.67 368.566 356.232C367.77 356.795 367.148 357.533 366.703 358.447V372H363.451V345H366.703V355.283Z" fill="white"/>
</g>
</g>
<g id="Beatriz">
<path d="M94 114.945V89.3516H102.367C105.145 89.3516 107.23 89.9258 108.625 91.0742C110.031 92.2227 110.734 93.9219 110.734 96.1719C110.734 97.3672 110.395 98.4277 109.715 99.3535C109.035 100.268 108.109 100.977 106.938 101.48C108.32 101.867 109.41 102.605 110.207 103.695C111.016 104.773 111.42 106.062 111.42 107.562C111.42 109.859 110.676 111.664 109.188 112.977C107.699 114.289 105.596 114.945 102.877 114.945H94ZM97.375 102.975V112.186H102.947C104.518 112.186 105.754 111.781 106.656 110.973C107.57 110.152 108.027 109.027 108.027 107.598C108.027 104.516 106.352 102.975 103 102.975H97.375ZM97.375 100.268H102.473C103.949 100.268 105.127 99.8984 106.006 99.1602C106.896 98.4219 107.342 97.4199 107.342 96.1543C107.342 94.748 106.932 93.7285 106.111 93.0957C105.291 92.4512 104.043 92.1289 102.367 92.1289H97.375V100.268Z" fill="white"/>
<path d="M123.812 115.297C121.234 115.297 119.137 114.453 117.52 112.766C115.902 111.066 115.094 108.799 115.094 105.963V105.365C115.094 103.479 115.451 101.797 116.166 100.32C116.893 98.832 117.9 97.6719 119.189 96.8398C120.49 95.9961 121.896 95.5742 123.408 95.5742C125.881 95.5742 127.803 96.3887 129.174 98.0176C130.545 99.6465 131.23 101.979 131.23 105.014V106.367H118.346C118.393 108.242 118.938 109.76 119.98 110.92C121.035 112.068 122.371 112.643 123.988 112.643C125.137 112.643 126.109 112.408 126.906 111.939C127.703 111.471 128.4 110.85 128.998 110.076L130.984 111.623C129.391 114.072 127 115.297 123.812 115.297ZM123.408 98.2461C122.096 98.2461 120.994 98.7266 120.104 99.6875C119.213 100.637 118.662 101.973 118.451 103.695H127.979V103.449C127.885 101.797 127.439 100.52 126.643 99.6172C125.846 98.7031 124.768 98.2461 123.408 98.2461Z" fill="white"/>
<path d="M146.752 114.945C146.564 114.57 146.412 113.902 146.295 112.941C144.783 114.512 142.979 115.297 140.881 115.297C139.006 115.297 137.465 114.77 136.258 113.715C135.062 112.648 134.465 111.301 134.465 109.672C134.465 107.691 135.215 106.156 136.715 105.066C138.227 103.965 140.348 103.414 143.078 103.414H146.242V101.92C146.242 100.783 145.902 99.8809 145.223 99.2129C144.543 98.5332 143.541 98.1934 142.217 98.1934C141.057 98.1934 140.084 98.4863 139.299 99.0723C138.514 99.6582 138.121 100.367 138.121 101.199H134.852C134.852 100.25 135.186 99.3359 135.854 98.457C136.533 97.5664 137.447 96.8633 138.596 96.3477C139.756 95.832 141.027 95.5742 142.41 95.5742C144.602 95.5742 146.318 96.125 147.561 97.2266C148.803 98.3164 149.447 99.8223 149.494 101.744V110.498C149.494 112.244 149.717 113.633 150.162 114.664V114.945H146.752ZM141.355 112.467C142.375 112.467 143.342 112.203 144.256 111.676C145.17 111.148 145.832 110.463 146.242 109.619V105.717H143.693C139.709 105.717 137.717 106.883 137.717 109.215C137.717 110.234 138.057 111.031 138.736 111.605C139.416 112.18 140.289 112.467 141.355 112.467Z" fill="white"/>
<path d="M159.004 91.3203V95.9258H162.555V98.4395H159.004V110.234C159.004 110.996 159.162 111.57 159.479 111.957C159.795 112.332 160.334 112.52 161.096 112.52C161.471 112.52 161.986 112.449 162.643 112.309V114.945C161.787 115.18 160.955 115.297 160.146 115.297C158.693 115.297 157.598 114.857 156.859 113.979C156.121 113.1 155.752 111.852 155.752 110.234V98.4395H152.289V95.9258H155.752V91.3203H159.004Z" fill="white"/>
<path d="M175.562 98.8438C175.07 98.7617 174.537 98.7207 173.963 98.7207C171.83 98.7207 170.383 99.6289 169.621 101.445V114.945H166.369V95.9258H169.533L169.586 98.123C170.652 96.4238 172.164 95.5742 174.121 95.5742C174.754 95.5742 175.234 95.6562 175.562 95.8203V98.8438Z" fill="white"/>
<path d="M182.102 114.945H178.85V95.9258H182.102V114.945ZM178.586 90.8809C178.586 90.3535 178.744 89.9082 179.061 89.5449C179.389 89.1816 179.869 89 180.502 89C181.135 89 181.615 89.1816 181.943 89.5449C182.271 89.9082 182.436 90.3535 182.436 90.8809C182.436 91.4082 182.271 91.8477 181.943 92.1992C181.615 92.5508 181.135 92.7266 180.502 92.7266C179.869 92.7266 179.389 92.5508 179.061 92.1992C178.744 91.8477 178.586 91.4082 178.586 90.8809Z" fill="white"/>
<path d="M190.381 112.291H201.508V114.945H186.408V112.555L196.902 98.6152H186.566V95.9258H200.98V98.2285L190.381 112.291Z" fill="white"/>
</g>
<g id="Fiorela">
<path d="M103.086 273.697H92.3457V285H88.9707V259.406H104.826V262.184H92.3457V270.938H103.086V273.697Z" fill="white"/>
<path d="M111.893 285H108.641V265.98H111.893V285ZM108.377 260.936C108.377 260.408 108.535 259.963 108.852 259.6C109.18 259.236 109.66 259.055 110.293 259.055C110.926 259.055 111.406 259.236 111.734 259.6C112.062 259.963 112.227 260.408 112.227 260.936C112.227 261.463 112.062 261.902 111.734 262.254C111.406 262.605 110.926 262.781 110.293 262.781C109.66 262.781 109.18 262.605 108.852 262.254C108.535 261.902 108.377 261.463 108.377 260.936Z" fill="white"/>
<path d="M116.252 275.314C116.252 273.451 116.615 271.775 117.342 270.287C118.08 268.799 119.1 267.65 120.4 266.842C121.713 266.033 123.207 265.629 124.883 265.629C127.473 265.629 129.564 266.525 131.158 268.318C132.764 270.111 133.566 272.496 133.566 275.473V275.701C133.566 277.553 133.209 279.217 132.494 280.693C131.791 282.158 130.777 283.301 129.453 284.121C128.141 284.941 126.629 285.352 124.918 285.352C122.34 285.352 120.248 284.455 118.643 282.662C117.049 280.869 116.252 278.496 116.252 275.543V275.314ZM119.521 275.701C119.521 277.811 120.008 279.504 120.98 280.781C121.965 282.059 123.277 282.697 124.918 282.697C126.57 282.697 127.883 282.053 128.855 280.764C129.828 279.463 130.314 277.646 130.314 275.314C130.314 273.229 129.816 271.541 128.82 270.252C127.836 268.951 126.523 268.301 124.883 268.301C123.277 268.301 121.982 268.939 120.998 270.217C120.014 271.494 119.521 273.322 119.521 275.701Z" fill="white"/>
<path d="M146.838 268.898C146.346 268.816 145.812 268.775 145.238 268.775C143.105 268.775 141.658 269.684 140.896 271.5V285H137.645V265.98H140.809L140.861 268.178C141.928 266.479 143.439 265.629 145.396 265.629C146.029 265.629 146.51 265.711 146.838 265.875V268.898Z" fill="white"/>
<path d="M157.385 285.352C154.807 285.352 152.709 284.508 151.092 282.82C149.475 281.121 148.666 278.854 148.666 276.018V275.42C148.666 273.533 149.023 271.852 149.738 270.375C150.465 268.887 151.473 267.727 152.762 266.895C154.062 266.051 155.469 265.629 156.98 265.629C159.453 265.629 161.375 266.443 162.746 268.072C164.117 269.701 164.803 272.033 164.803 275.068V276.422H151.918C151.965 278.297 152.51 279.814 153.553 280.975C154.607 282.123 155.943 282.697 157.561 282.697C158.709 282.697 159.682 282.463 160.479 281.994C161.275 281.525 161.973 280.904 162.57 280.131L164.557 281.678C162.963 284.127 160.572 285.352 157.385 285.352ZM156.98 268.301C155.668 268.301 154.566 268.781 153.676 269.742C152.785 270.691 152.234 272.027 152.023 273.75H161.551V273.504C161.457 271.852 161.012 270.574 160.215 269.672C159.418 268.758 158.34 268.301 156.98 268.301Z" fill="white"/>
<path d="M172.115 285H168.863V258H172.115V285Z" fill="white"/>
<path d="M189.078 285C188.891 284.625 188.738 283.957 188.621 282.996C187.109 284.566 185.305 285.352 183.207 285.352C181.332 285.352 179.791 284.824 178.584 283.77C177.389 282.703 176.791 281.355 176.791 279.727C176.791 277.746 177.541 276.211 179.041 275.121C180.553 274.02 182.674 273.469 185.404 273.469H188.568V271.975C188.568 270.838 188.229 269.936 187.549 269.268C186.869 268.588 185.867 268.248 184.543 268.248C183.383 268.248 182.41 268.541 181.625 269.127C180.84 269.713 180.447 270.422 180.447 271.254H177.178C177.178 270.305 177.512 269.391 178.18 268.512C178.859 267.621 179.773 266.918 180.922 266.402C182.082 265.887 183.354 265.629 184.736 265.629C186.928 265.629 188.645 266.18 189.887 267.281C191.129 268.371 191.773 269.877 191.82 271.799V280.553C191.82 282.299 192.043 283.688 192.488 284.719V285H189.078ZM183.682 282.521C184.701 282.521 185.668 282.258 186.582 281.73C187.496 281.203 188.158 280.518 188.568 279.674V275.771H186.02C182.035 275.771 180.043 276.938 180.043 279.27C180.043 280.289 180.383 281.086 181.062 281.66C181.742 282.234 182.615 282.521 183.682 282.521Z" fill="white"/>
</g>
</g>
<g id="Group 114_2">
<g id="Izquierda">
<path d="M3.5918 207H0.216797V181.406H3.5918V207Z" fill="#2CF30B"/>
<path d="M12.3281 204.346H23.4551V207H8.35547V204.609L18.8496 190.67H8.51367V187.98H22.9277V190.283L12.3281 204.346Z" fill="#2CF30B"/>
<path d="M26.0566 197.332C26.0566 194.344 26.7422 191.982 28.1133 190.248C29.4844 188.502 31.3242 187.629 33.6328 187.629C35.8828 187.629 37.6582 188.385 38.959 189.896L39.0996 187.98H42.0879V214.312H38.8359V205.242C37.5234 206.648 35.7773 207.352 33.5977 207.352C31.3008 207.352 29.4668 206.461 28.0957 204.68C26.7363 202.887 26.0566 200.514 26.0566 197.561V197.332ZM29.3086 197.701C29.3086 199.881 29.7656 201.592 30.6797 202.834C31.6055 204.076 32.8477 204.697 34.4062 204.697C36.3398 204.697 37.8164 203.842 38.8359 202.131V192.814C37.8047 191.139 36.3398 190.301 34.4414 190.301C32.8711 190.301 31.623 190.928 30.6973 192.182C29.7715 193.424 29.3086 195.264 29.3086 197.701Z" fill="#2CF30B"/>
<path d="M59.0508 205.119C57.7852 206.607 55.9277 207.352 53.4785 207.352C51.4512 207.352 49.9043 206.766 48.8379 205.594C47.7832 204.41 47.25 202.664 47.2383 200.355V187.98H50.4902V200.268C50.4902 203.15 51.6621 204.592 54.0059 204.592C56.4902 204.592 58.1426 203.666 58.9629 201.814V187.98H62.2148V207H59.1211L59.0508 205.119Z" fill="#2CF30B"/>
<path d="M70.7051 207H67.4531V187.98H70.7051V207ZM67.1895 182.936C67.1895 182.408 67.3477 181.963 67.6641 181.6C67.9922 181.236 68.4727 181.055 69.1055 181.055C69.7383 181.055 70.2188 181.236 70.5469 181.6C70.875 181.963 71.0391 182.408 71.0391 182.936C71.0391 183.463 70.875 183.902 70.5469 184.254C70.2188 184.605 69.7383 184.781 69.1055 184.781C68.4727 184.781 67.9922 184.605 67.6641 184.254C67.3477 183.902 67.1895 183.463 67.1895 182.936Z" fill="#2CF30B"/>
<path d="M83.8184 207.352C81.2402 207.352 79.1426 206.508 77.5254 204.82C75.9082 203.121 75.0996 200.854 75.0996 198.018V197.42C75.0996 195.533 75.457 193.852 76.1719 192.375C76.8984 190.887 77.9062 189.727 79.1953 188.895C80.4961 188.051 81.9023 187.629 83.4141 187.629C85.8867 187.629 87.8086 188.443 89.1797 190.072C90.5508 191.701 91.2363 194.033 91.2363 197.068V198.422H78.3516C78.3984 200.297 78.9434 201.814 79.9863 202.975C81.041 204.123 82.377 204.697 83.9941 204.697C85.1426 204.697 86.1152 204.463 86.9121 203.994C87.709 203.525 88.4062 202.904 89.0039 202.131L90.9902 203.678C89.3965 206.127 87.0059 207.352 83.8184 207.352ZM83.4141 190.301C82.1016 190.301 81 190.781 80.1094 191.742C79.2188 192.691 78.668 194.027 78.457 195.75H87.9844V195.504C87.8906 193.852 87.4453 192.574 86.6484 191.672C85.8516 190.758 84.7734 190.301 83.4141 190.301Z" fill="#2CF30B"/>
<path d="M104.209 190.898C103.717 190.816 103.184 190.775 102.609 190.775C100.477 190.775 99.0293 191.684 98.2676 193.5V207H95.0156V187.98H98.1797L98.2324 190.178C99.2988 188.479 100.811 187.629 102.768 187.629C103.4 187.629 103.881 187.711 104.209 187.875V190.898Z" fill="#2CF30B"/>
<path d="M106.072 197.332C106.072 194.414 106.764 192.07 108.146 190.301C109.529 188.52 111.34 187.629 113.578 187.629C115.805 187.629 117.568 188.391 118.869 189.914V180H122.121V207H119.133L118.975 204.961C117.674 206.555 115.863 207.352 113.543 207.352C111.34 207.352 109.541 206.449 108.146 204.645C106.764 202.84 106.072 200.484 106.072 197.578V197.332ZM109.324 197.701C109.324 199.857 109.77 201.545 110.66 202.764C111.551 203.982 112.781 204.592 114.352 204.592C116.414 204.592 117.92 203.666 118.869 201.814V193.078C117.896 191.285 116.402 190.389 114.387 190.389C112.793 190.389 111.551 191.004 110.66 192.234C109.77 193.465 109.324 195.287 109.324 197.701Z" fill="#2CF30B"/>
<path d="M138.926 207C138.738 206.625 138.586 205.957 138.469 204.996C136.957 206.566 135.152 207.352 133.055 207.352C131.18 207.352 129.639 206.824 128.432 205.77C127.236 204.703 126.639 203.355 126.639 201.727C126.639 199.746 127.389 198.211 128.889 197.121C130.4 196.02 132.521 195.469 135.252 195.469H138.416V193.975C138.416 192.838 138.076 191.936 137.396 191.268C136.717 190.588 135.715 190.248 134.391 190.248C133.23 190.248 132.258 190.541 131.473 191.127C130.688 191.713 130.295 192.422 130.295 193.254H127.025C127.025 192.305 127.359 191.391 128.027 190.512C128.707 189.621 129.621 188.918 130.77 188.402C131.93 187.887 133.201 187.629 134.584 187.629C136.775 187.629 138.492 188.18 139.734 189.281C140.977 190.371 141.621 191.877 141.668 193.799V202.553C141.668 204.299 141.891 205.688 142.336 206.719V207H138.926ZM133.529 204.521C134.549 204.521 135.516 204.258 136.43 203.73C137.344 203.203 138.006 202.518 138.416 201.674V197.771H135.867C131.883 197.771 129.891 198.938 129.891 201.27C129.891 202.289 130.23 203.086 130.91 203.66C131.59 204.234 132.463 204.521 133.529 204.521Z" fill="#2CF30B"/>
</g>
<path id="Arrow 4 (Stroke)_2" fill-rule="evenodd" clip-rule="evenodd" d="M178.517 146.48C179.448 145.887 180.685 146.161 181.278 147.092L190.952 162.272C191.546 163.203 191.272 164.44 190.341 165.033C189.409 165.627 188.173 165.353 187.579 164.421L180.514 153.335C176.571 171.786 174.36 186.536 174.213 201.173C174.054 217.025 176.317 232.834 181.529 253.132L177.655 254.127C172.384 233.602 170.05 217.432 170.213 201.133C170.364 186.098 172.64 171.032 176.615 152.436L165.487 159.527C164.556 160.121 163.319 159.847 162.726 158.916C162.132 157.984 162.406 156.748 163.337 156.154L178.517 146.48Z" fill="#2CF30B"/>
</g>
</g>
</svg>
