<svg viewBox="0 0 984 777" fill="none" xmlns="http://www.w3.org/2000/svg">
<g id="0128213">
<g id="Group 185">
<path id="Rectangle 19 (Stroke)" fill-rule="evenodd" clip-rule="evenodd" d="M201 164V74H106V164H201ZM101 169V69H901V169H101ZM301.5 164H206V74H301.5V164ZM306.5 164H400V74H306.5V164ZM405 74V164H496.5V74H405ZM501.5 74V164H597.5V74H501.5ZM602.5 74V164H693.5V74H602.5ZM698.5 74V164H796V74H698.5ZM801 74V164H896V74H801Z" fill="white"/>
<g id="Izquierda">
<path d="M844.592 27H841.217V1.40625H844.592V27Z" fill="white"/>
<path d="M853.328 24.3457H864.455V27H849.355V24.6094L859.85 10.6699H849.514V7.98047H863.928V10.2832L853.328 24.3457Z" fill="white"/>
<path d="M867.057 17.332C867.057 14.3438 867.742 11.9824 869.113 10.248C870.484 8.50195 872.324 7.62891 874.633 7.62891C876.883 7.62891 878.658 8.38477 879.959 9.89648L880.1 7.98047H883.088V34.3125H879.836V25.2422C878.523 26.6484 876.777 27.3516 874.598 27.3516C872.301 27.3516 870.467 26.4609 869.096 24.6797C867.736 22.8867 867.057 20.5137 867.057 17.5605V17.332ZM870.309 17.7012C870.309 19.8809 870.766 21.5918 871.68 22.834C872.605 24.0762 873.848 24.6973 875.406 24.6973C877.34 24.6973 878.816 23.8418 879.836 22.1309V12.8145C878.805 11.1387 877.34 10.3008 875.441 10.3008C873.871 10.3008 872.623 10.9277 871.697 12.1816C870.771 13.4238 870.309 15.2637 870.309 17.7012Z" fill="white"/>
<path d="M900.051 25.1191C898.785 26.6074 896.928 27.3516 894.479 27.3516C892.451 27.3516 890.904 26.7656 889.838 25.5938C888.783 24.4102 888.25 22.6641 888.238 20.3555V7.98047H891.49V20.2676C891.49 23.1504 892.662 24.5918 895.006 24.5918C897.49 24.5918 899.143 23.666 899.963 21.8145V7.98047H903.215V27H900.121L900.051 25.1191Z" fill="white"/>
<path d="M911.705 27H908.453V7.98047H911.705V27ZM908.189 2.93555C908.189 2.4082 908.348 1.96289 908.664 1.59961C908.992 1.23633 909.473 1.05469 910.105 1.05469C910.738 1.05469 911.219 1.23633 911.547 1.59961C911.875 1.96289 912.039 2.4082 912.039 2.93555C912.039 3.46289 911.875 3.90234 911.547 4.25391C911.219 4.60547 910.738 4.78125 910.105 4.78125C909.473 4.78125 908.992 4.60547 908.664 4.25391C908.348 3.90234 908.189 3.46289 908.189 2.93555Z" fill="white"/>
<path d="M924.818 27.3516C922.24 27.3516 920.143 26.5078 918.525 24.8203C916.908 23.1211 916.1 20.8535 916.1 18.0176V17.4199C916.1 15.5332 916.457 13.8516 917.172 12.375C917.898 10.8867 918.906 9.72656 920.195 8.89453C921.496 8.05078 922.902 7.62891 924.414 7.62891C926.887 7.62891 928.809 8.44336 930.18 10.0723C931.551 11.7012 932.236 14.0332 932.236 17.0684V18.4219H919.352C919.398 20.2969 919.943 21.8145 920.986 22.9746C922.041 24.123 923.377 24.6973 924.994 24.6973C926.143 24.6973 927.115 24.4629 927.912 23.9941C928.709 23.5254 929.406 22.9043 930.004 22.1309L931.99 23.6777C930.396 26.127 928.006 27.3516 924.818 27.3516ZM924.414 10.3008C923.102 10.3008 922 10.7812 921.109 11.7422C920.219 12.6914 919.668 14.0273 919.457 15.75H928.984V15.5039C928.891 13.8516 928.445 12.5742 927.648 11.6719C926.852 10.7578 925.773 10.3008 924.414 10.3008Z" fill="white"/>
<path d="M945.209 10.8984C944.717 10.8164 944.184 10.7754 943.609 10.7754C941.477 10.7754 940.029 11.6836 939.268 13.5V27H936.016V7.98047H939.18L939.232 10.1777C940.299 8.47852 941.811 7.62891 943.768 7.62891C944.4 7.62891 944.881 7.71094 945.209 7.875V10.8984Z" fill="white"/>
<path d="M947.072 17.332C947.072 14.4141 947.764 12.0703 949.146 10.3008C950.529 8.51953 952.34 7.62891 954.578 7.62891C956.805 7.62891 958.568 8.39062 959.869 9.91406V0H963.121V27H960.133L959.975 24.9609C958.674 26.5547 956.863 27.3516 954.543 27.3516C952.34 27.3516 950.541 26.4492 949.146 24.6445C947.764 22.8398 947.072 20.4844 947.072 17.5781V17.332ZM950.324 17.7012C950.324 19.8574 950.77 21.5449 951.66 22.7637C952.551 23.9824 953.781 24.5918 955.352 24.5918C957.414 24.5918 958.92 23.666 959.869 21.8145V13.0781C958.896 11.2852 957.402 10.3887 955.387 10.3887C953.793 10.3887 952.551 11.0039 951.66 12.2344C950.77 13.4648 950.324 15.2871 950.324 17.7012Z" fill="white"/>
<path d="M979.926 27C979.738 26.625 979.586 25.957 979.469 24.9961C977.957 26.5664 976.152 27.3516 974.055 27.3516C972.18 27.3516 970.639 26.8242 969.432 25.7695C968.236 24.7031 967.639 23.3555 967.639 21.7266C967.639 19.7461 968.389 18.2109 969.889 17.1211C971.4 16.0195 973.521 15.4688 976.252 15.4688H979.416V13.9746C979.416 12.8379 979.076 11.9355 978.396 11.2676C977.717 10.5879 976.715 10.248 975.391 10.248C974.23 10.248 973.258 10.541 972.473 11.127C971.688 11.7129 971.295 12.4219 971.295 13.2539H968.025C968.025 12.3047 968.359 11.3906 969.027 10.5117C969.707 9.62109 970.621 8.91797 971.77 8.40234C972.93 7.88672 974.201 7.62891 975.584 7.62891C977.775 7.62891 979.492 8.17969 980.734 9.28125C981.977 10.3711 982.621 11.877 982.668 13.7988V22.5527C982.668 24.2988 982.891 25.6875 983.336 26.7188V27H979.926ZM974.529 24.5215C975.549 24.5215 976.516 24.2578 977.43 23.7305C978.344 23.2031 979.006 22.5176 979.416 21.6738V17.7715H976.867C972.883 17.7715 970.891 18.9375 970.891 21.2695C970.891 22.2891 971.23 23.0859 971.91 23.6602C972.59 24.2344 973.463 24.5215 974.529 24.5215Z" fill="white"/>
</g>
<g id="Derecha">
<path d="M0.970703 27V1.40625H8.19531C10.4219 1.40625 12.3906 1.89844 14.1016 2.88281C15.8125 3.86719 17.1309 5.26758 18.0566 7.08398C18.9941 8.90039 19.4688 10.9863 19.4805 13.3418V14.9766C19.4805 17.3906 19.0117 19.5059 18.0742 21.3223C17.1484 23.1387 15.8184 24.5332 14.084 25.5059C12.3613 26.4785 10.3516 26.9766 8.05469 27H0.970703ZM4.3457 4.18359V24.2402H7.89648C10.498 24.2402 12.5195 23.4316 13.9609 21.8145C15.4141 20.1973 16.1406 17.8945 16.1406 14.9062V13.4121C16.1406 10.5059 15.4551 8.25 14.084 6.64453C12.7246 5.02734 10.791 4.20703 8.2832 4.18359H4.3457Z" fill="white"/>
<path d="M31.9785 27.3516C29.4004 27.3516 27.3027 26.5078 25.6855 24.8203C24.0684 23.1211 23.2598 20.8535 23.2598 18.0176V17.4199C23.2598 15.5332 23.6172 13.8516 24.332 12.375C25.0586 10.8867 26.0664 9.72656 27.3555 8.89453C28.6562 8.05078 30.0625 7.62891 31.5742 7.62891C34.0469 7.62891 35.9688 8.44336 37.3398 10.0723C38.7109 11.7012 39.3965 14.0332 39.3965 17.0684V18.4219H26.5117C26.5586 20.2969 27.1035 21.8145 28.1465 22.9746C29.2012 24.123 30.5371 24.6973 32.1543 24.6973C33.3027 24.6973 34.2754 24.4629 35.0723 23.9941C35.8691 23.5254 36.5664 22.9043 37.1641 22.1309L39.1504 23.6777C37.5566 26.127 35.166 27.3516 31.9785 27.3516ZM31.5742 10.3008C30.2617 10.3008 29.1602 10.7812 28.2695 11.7422C27.3789 12.6914 26.8281 14.0273 26.6172 15.75H36.1445V15.5039C36.0508 13.8516 35.6055 12.5742 34.8086 11.6719C34.0117 10.7578 32.9336 10.3008 31.5742 10.3008Z" fill="white"/>
<path d="M52.3691 10.8984C51.877 10.8164 51.3438 10.7754 50.7695 10.7754C48.6367 10.7754 47.1895 11.6836 46.4277 13.5V27H43.1758V7.98047H46.3398L46.3926 10.1777C47.459 8.47852 48.9707 7.62891 50.9277 7.62891C51.5605 7.62891 52.041 7.71094 52.3691 7.875V10.8984Z" fill="white"/>
<path d="M62.916 27.3516C60.3379 27.3516 58.2402 26.5078 56.623 24.8203C55.0059 23.1211 54.1973 20.8535 54.1973 18.0176V17.4199C54.1973 15.5332 54.5547 13.8516 55.2695 12.375C55.9961 10.8867 57.0039 9.72656 58.293 8.89453C59.5938 8.05078 61 7.62891 62.5117 7.62891C64.9844 7.62891 66.9062 8.44336 68.2773 10.0723C69.6484 11.7012 70.334 14.0332 70.334 17.0684V18.4219H57.4492C57.4961 20.2969 58.041 21.8145 59.084 22.9746C60.1387 24.123 61.4746 24.6973 63.0918 24.6973C64.2402 24.6973 65.2129 24.4629 66.0098 23.9941C66.8066 23.5254 67.5039 22.9043 68.1016 22.1309L70.0879 23.6777C68.4941 26.127 66.1035 27.3516 62.916 27.3516ZM62.5117 10.3008C61.1992 10.3008 60.0977 10.7812 59.207 11.7422C58.3164 12.6914 57.7656 14.0273 57.5547 15.75H67.082V15.5039C66.9883 13.8516 66.543 12.5742 65.7461 11.6719C64.9492 10.7578 63.8711 10.3008 62.5117 10.3008Z" fill="white"/>
<path d="M81.7422 24.6973C82.9023 24.6973 83.916 24.3457 84.7832 23.6426C85.6504 22.9395 86.1309 22.0605 86.2246 21.0059H89.3008C89.2422 22.0957 88.8672 23.1328 88.1758 24.1172C87.4844 25.1016 86.5586 25.8867 85.3984 26.4727C84.25 27.0586 83.0312 27.3516 81.7422 27.3516C79.1523 27.3516 77.0898 26.4902 75.5547 24.7676C74.0312 23.0332 73.2695 20.666 73.2695 17.666V17.1211C73.2695 15.2695 73.6094 13.623 74.2891 12.1816C74.9688 10.7402 75.9414 9.62109 77.207 8.82422C78.4844 8.02734 79.9902 7.62891 81.7246 7.62891C83.8574 7.62891 85.627 8.26758 87.0332 9.54492C88.4512 10.8223 89.207 12.4805 89.3008 14.5195H86.2246C86.1309 13.2891 85.6621 12.2812 84.8184 11.4961C83.9863 10.6992 82.9551 10.3008 81.7246 10.3008C80.0723 10.3008 78.7891 10.8984 77.875 12.0938C76.9727 13.2773 76.5215 14.9941 76.5215 17.2441V17.8594C76.5215 20.0508 76.9727 21.7383 77.875 22.9219C78.7773 24.1055 80.0664 24.6973 81.7422 24.6973Z" fill="white"/>
<path d="M96.209 10.2832C97.6504 8.51367 99.5254 7.62891 101.834 7.62891C105.854 7.62891 107.881 9.89648 107.916 14.4316V27H104.664V14.4141C104.652 13.043 104.336 12.0293 103.715 11.373C103.105 10.7168 102.15 10.3887 100.85 10.3887C99.7949 10.3887 98.8691 10.6699 98.0723 11.2324C97.2754 11.7949 96.6543 12.5332 96.209 13.4473V27H92.957V0H96.209V10.2832Z" fill="white"/>
<path d="M124.527 27C124.34 26.625 124.188 25.957 124.07 24.9961C122.559 26.5664 120.754 27.3516 118.656 27.3516C116.781 27.3516 115.24 26.8242 114.033 25.7695C112.838 24.7031 112.24 23.3555 112.24 21.7266C112.24 19.7461 112.99 18.2109 114.49 17.1211C116.002 16.0195 118.123 15.4688 120.854 15.4688H124.018V13.9746C124.018 12.8379 123.678 11.9355 122.998 11.2676C122.318 10.5879 121.316 10.248 119.992 10.248C118.832 10.248 117.859 10.541 117.074 11.127C116.289 11.7129 115.896 12.4219 115.896 13.2539H112.627C112.627 12.3047 112.961 11.3906 113.629 10.5117C114.309 9.62109 115.223 8.91797 116.371 8.40234C117.531 7.88672 118.803 7.62891 120.186 7.62891C122.377 7.62891 124.094 8.17969 125.336 9.28125C126.578 10.3711 127.223 11.877 127.27 13.7988V22.5527C127.27 24.2988 127.492 25.6875 127.938 26.7188V27H124.527ZM119.131 24.5215C120.15 24.5215 121.117 24.2578 122.031 23.7305C122.945 23.2031 123.607 22.5176 124.018 21.6738V17.7715H121.469C117.484 17.7715 115.492 18.9375 115.492 21.2695C115.492 22.2891 115.832 23.0859 116.512 23.6602C117.191 24.2344 118.064 24.5215 119.131 24.5215Z" fill="white"/>
</g>
</g>
<g id="Group 172">
<g id="Dato 1:">
<path d="M45.9707 313V287.406H53.1953C55.4219 287.406 57.3906 287.898 59.1016 288.883C60.8125 289.867 62.1309 291.268 63.0566 293.084C63.9941 294.9 64.4688 296.986 64.4805 299.342V300.977C64.4805 303.391 64.0117 305.506 63.0742 307.322C62.1484 309.139 60.8184 310.533 59.084 311.506C57.3613 312.479 55.3516 312.977 53.0547 313H45.9707ZM49.3457 290.184V310.24H52.8965C55.498 310.24 57.5195 309.432 58.9609 307.814C60.4141 306.197 61.1406 303.895 61.1406 300.906V299.412C61.1406 296.506 60.4551 294.25 59.084 292.645C57.7246 291.027 55.791 290.207 53.2832 290.184H49.3457Z" fill="white"/>
<path d="M80.8281 313C80.6406 312.625 80.4883 311.957 80.3711 310.996C78.8594 312.566 77.0547 313.352 74.957 313.352C73.082 313.352 71.541 312.824 70.334 311.77C69.1387 310.703 68.541 309.355 68.541 307.727C68.541 305.746 69.291 304.211 70.791 303.121C72.3027 302.02 74.4238 301.469 77.1543 301.469H80.3184V299.975C80.3184 298.838 79.9785 297.936 79.2988 297.268C78.6191 296.588 77.6172 296.248 76.293 296.248C75.1328 296.248 74.1602 296.541 73.375 297.127C72.5898 297.713 72.1973 298.422 72.1973 299.254H68.9277C68.9277 298.305 69.2617 297.391 69.9297 296.512C70.6094 295.621 71.5234 294.918 72.6719 294.402C73.832 293.887 75.1035 293.629 76.4863 293.629C78.6777 293.629 80.3945 294.18 81.6367 295.281C82.8789 296.371 83.5234 297.877 83.5703 299.799V308.553C83.5703 310.299 83.793 311.688 84.2383 312.719V313H80.8281ZM75.4316 310.521C76.4512 310.521 77.418 310.258 78.332 309.73C79.2461 309.203 79.9082 308.518 80.3184 307.674V303.771H77.7695C73.7852 303.771 71.793 304.938 71.793 307.27C71.793 308.289 72.1328 309.086 72.8125 309.66C73.4922 310.234 74.3652 310.521 75.4316 310.521Z" fill="white"/>
<path d="M93.0801 289.375V293.98H96.6309V296.494H93.0801V308.289C93.0801 309.051 93.2383 309.625 93.5547 310.012C93.8711 310.387 94.4102 310.574 95.1719 310.574C95.5469 310.574 96.0625 310.504 96.7188 310.363V313C95.8633 313.234 95.0312 313.352 94.2227 313.352C92.7695 313.352 91.6738 312.912 90.9355 312.033C90.1973 311.154 89.8281 309.906 89.8281 308.289V296.494H86.3652V293.98H89.8281V289.375H93.0801Z" fill="white"/>
<path d="M99.2324 303.314C99.2324 301.451 99.5957 299.775 100.322 298.287C101.061 296.799 102.08 295.65 103.381 294.842C104.693 294.033 106.188 293.629 107.863 293.629C110.453 293.629 112.545 294.525 114.139 296.318C115.744 298.111 116.547 300.496 116.547 303.473V303.701C116.547 305.553 116.189 307.217 115.475 308.693C114.771 310.158 113.758 311.301 112.434 312.121C111.121 312.941 109.609 313.352 107.898 313.352C105.32 313.352 103.229 312.455 101.623 310.662C100.029 308.869 99.2324 306.496 99.2324 303.543V303.314ZM102.502 303.701C102.502 305.811 102.988 307.504 103.961 308.781C104.945 310.059 106.258 310.697 107.898 310.697C109.551 310.697 110.863 310.053 111.836 308.764C112.809 307.463 113.295 305.646 113.295 303.314C113.295 301.229 112.797 299.541 111.801 298.252C110.816 296.951 109.504 296.301 107.863 296.301C106.258 296.301 104.963 296.939 103.979 298.217C102.994 299.494 102.502 301.322 102.502 303.701Z" fill="white"/>
<path d="M139.908 313H136.639V291.326L130.082 293.734V290.781L139.398 287.283H139.908V313Z" fill="white"/>
<path d="M149.664 311.295C149.664 310.732 149.828 310.264 150.156 309.889C150.496 309.514 151 309.326 151.668 309.326C152.336 309.326 152.84 309.514 153.18 309.889C153.531 310.264 153.707 310.732 153.707 311.295C153.707 311.834 153.531 312.285 153.18 312.648C152.84 313.012 152.336 313.193 151.668 313.193C151 313.193 150.496 313.012 150.156 312.648C149.828 312.285 149.664 311.834 149.664 311.295ZM149.682 295.773C149.682 295.211 149.846 294.742 150.174 294.367C150.514 293.992 151.018 293.805 151.686 293.805C152.354 293.805 152.857 293.992 153.197 294.367C153.549 294.742 153.725 295.211 153.725 295.773C153.725 296.312 153.549 296.764 153.197 297.127C152.857 297.49 152.354 297.672 151.686 297.672C151.018 297.672 150.514 297.49 150.174 297.127C149.846 296.764 149.682 296.312 149.682 295.773Z" fill="white"/>
</g>
<g id="Group 171">
<path id="Rectangle 20" d="M141 342H241V442H141V342Z" fill="white"/>
<path id="torre" fill-rule="evenodd" clip-rule="evenodd" d="M162 430H214.5L201.375 412.5V381.875L210.125 373.125V360H201.646V364.375H192.349V360H184.146V364.375H174.849V360H166.375V373.125L175.125 381.875V412.5L162 430ZM192.625 381.875H197V412.5H192.625V381.875Z" fill="black"/>
</g>
</g>
<g id="Group 173">
<path id="Rectangle 21 (Stroke)" fill-rule="evenodd" clip-rule="evenodd" d="M243 549H153V639H243V549ZM148 544V644H248V544H148Z" fill="white"/>
<path id="Rectangle 22 (Stroke)" fill-rule="evenodd" clip-rule="evenodd" d="M243 658H153V748H243V658ZM148 653V753H248V653H148Z" fill="white"/>
<g id="Dato 2:">
<path d="M34.9707 516V490.406H42.1953C44.4219 490.406 46.3906 490.898 48.1016 491.883C49.8125 492.867 51.1309 494.268 52.0566 496.084C52.9941 497.9 53.4688 499.986 53.4805 502.342V503.977C53.4805 506.391 53.0117 508.506 52.0742 510.322C51.1484 512.139 49.8184 513.533 48.084 514.506C46.3613 515.479 44.3516 515.977 42.0547 516H34.9707ZM38.3457 493.184V513.24H41.8965C44.498 513.24 46.5195 512.432 47.9609 510.814C49.4141 509.197 50.1406 506.895 50.1406 503.906V502.412C50.1406 499.506 49.4551 497.25 48.084 495.645C46.7246 494.027 44.791 493.207 42.2832 493.184H38.3457Z" fill="white"/>
<path d="M69.8281 516C69.6406 515.625 69.4883 514.957 69.3711 513.996C67.8594 515.566 66.0547 516.352 63.957 516.352C62.082 516.352 60.541 515.824 59.334 514.77C58.1387 513.703 57.541 512.355 57.541 510.727C57.541 508.746 58.291 507.211 59.791 506.121C61.3027 505.02 63.4238 504.469 66.1543 504.469H69.3184V502.975C69.3184 501.838 68.9785 500.936 68.2988 500.268C67.6191 499.588 66.6172 499.248 65.293 499.248C64.1328 499.248 63.1602 499.541 62.375 500.127C61.5898 500.713 61.1973 501.422 61.1973 502.254H57.9277C57.9277 501.305 58.2617 500.391 58.9297 499.512C59.6094 498.621 60.5234 497.918 61.6719 497.402C62.832 496.887 64.1035 496.629 65.4863 496.629C67.6777 496.629 69.3945 497.18 70.6367 498.281C71.8789 499.371 72.5234 500.877 72.5703 502.799V511.553C72.5703 513.299 72.793 514.688 73.2383 515.719V516H69.8281ZM64.4316 513.521C65.4512 513.521 66.418 513.258 67.332 512.73C68.2461 512.203 68.9082 511.518 69.3184 510.674V506.771H66.7695C62.7852 506.771 60.793 507.938 60.793 510.27C60.793 511.289 61.1328 512.086 61.8125 512.66C62.4922 513.234 63.3652 513.521 64.4316 513.521Z" fill="white"/>
<path d="M82.0801 492.375V496.98H85.6309V499.494H82.0801V511.289C82.0801 512.051 82.2383 512.625 82.5547 513.012C82.8711 513.387 83.4102 513.574 84.1719 513.574C84.5469 513.574 85.0625 513.504 85.7188 513.363V516C84.8633 516.234 84.0312 516.352 83.2227 516.352C81.7695 516.352 80.6738 515.912 79.9355 515.033C79.1973 514.154 78.8281 512.906 78.8281 511.289V499.494H75.3652V496.98H78.8281V492.375H82.0801Z" fill="white"/>
<path d="M88.2324 506.314C88.2324 504.451 88.5957 502.775 89.3223 501.287C90.0605 499.799 91.0801 498.65 92.3809 497.842C93.6934 497.033 95.1875 496.629 96.8633 496.629C99.4531 496.629 101.545 497.525 103.139 499.318C104.744 501.111 105.547 503.496 105.547 506.473V506.701C105.547 508.553 105.189 510.217 104.475 511.693C103.771 513.158 102.758 514.301 101.434 515.121C100.121 515.941 98.6094 516.352 96.8984 516.352C94.3203 516.352 92.2285 515.455 90.623 513.662C89.0293 511.869 88.2324 509.496 88.2324 506.543V506.314ZM91.502 506.701C91.502 508.811 91.9883 510.504 92.9609 511.781C93.9453 513.059 95.2578 513.697 96.8984 513.697C98.5508 513.697 99.8633 513.053 100.836 511.764C101.809 510.463 102.295 508.646 102.295 506.314C102.295 504.229 101.797 502.541 100.801 501.252C99.8164 499.951 98.5039 499.301 96.8633 499.301C95.2578 499.301 93.9629 499.939 92.9785 501.217C91.9941 502.494 91.502 504.322 91.502 506.701Z" fill="white"/>
<path d="M134.99 516H118.221V513.662L127.08 503.818C128.393 502.33 129.295 501.123 129.787 500.197C130.291 499.26 130.543 498.293 130.543 497.297C130.543 495.961 130.139 494.865 129.33 494.01C128.521 493.154 127.443 492.727 126.096 492.727C124.479 492.727 123.219 493.189 122.316 494.115C121.426 495.029 120.98 496.307 120.98 497.947H117.729C117.729 495.592 118.484 493.688 119.996 492.234C121.52 490.781 123.553 490.055 126.096 490.055C128.475 490.055 130.355 490.682 131.738 491.936C133.121 493.178 133.812 494.836 133.812 496.91C133.812 499.43 132.207 502.43 128.996 505.91L122.141 513.346H134.99V516Z" fill="white"/>
<path d="M138.664 514.295C138.664 513.732 138.828 513.264 139.156 512.889C139.496 512.514 140 512.326 140.668 512.326C141.336 512.326 141.84 512.514 142.18 512.889C142.531 513.264 142.707 513.732 142.707 514.295C142.707 514.834 142.531 515.285 142.18 515.648C141.84 516.012 141.336 516.193 140.668 516.193C140 516.193 139.496 516.012 139.156 515.648C138.828 515.285 138.664 514.834 138.664 514.295ZM138.682 498.773C138.682 498.211 138.846 497.742 139.174 497.367C139.514 496.992 140.018 496.805 140.686 496.805C141.354 496.805 141.857 496.992 142.197 497.367C142.549 497.742 142.725 498.211 142.725 498.773C142.725 499.312 142.549 499.764 142.197 500.127C141.857 500.49 141.354 500.672 140.686 500.672C140.018 500.672 139.514 500.49 139.174 500.127C138.846 499.764 138.682 499.312 138.682 498.773Z" fill="white"/>
</g>
<path id="rey" fill-rule="evenodd" clip-rule="evenodd" d="M65.8333 559.621V566.943C63.7111 567.496 62.1111 569.518 62.1111 571.886C62.1111 572.803 62.38 573.686 62.798 574.432H47.4444V580.48L47.9798 581.117L56.9167 592.257C55.5722 592.346 54.5382 593.561 54.6238 594.964C54.7118 596.365 55.8753 597.439 57.2222 597.35H58.8258L55.0076 611.516L54.8536 611.913L53.25 615.175H49.6591C48.3147 615.244 47.2636 616.438 47.3296 617.841C47.3956 619.242 48.542 620.337 49.8889 620.268L45.4571 626.395L45 627.031V633H89V627.031L88.5404 626.395L84.1111 620.268C84.9911 620.278 85.81 619.799 86.2598 619.005C86.4756 618.614 86.5891 618.172 86.5891 617.721C86.5891 617.271 86.4756 616.828 86.2598 616.438C85.81 615.644 84.9887 615.165 84.1111 615.175H80.75L79.1464 611.913L79.0682 611.753L78.9949 611.516L75.1718 597.35H76.7778C77.4258 597.401 78.0669 597.183 78.5608 596.743C79.0547 596.303 79.3611 595.677 79.4129 595.002C79.4622 594.327 79.2527 593.659 78.8302 593.145C78.4078 592.63 77.8069 592.311 77.1591 592.257L86.0202 581.117L86.5556 580.48V574.432H71.202C71.6224 573.686 71.8889 572.803 71.8889 571.886C71.8889 569.773 70.6152 567.936 68.8333 567.171V559.621H71.5704C72.3989 559.621 73.0704 558.949 73.0704 558.121C73.0704 557.292 72.3989 556.621 71.5704 556.621H68.8333V554.5C68.8333 553.672 68.1617 553 67.3333 553C66.5048 553 65.8333 553.672 65.8333 554.5V556.621H62.9186C62.0902 556.621 61.4186 557.292 61.4186 558.121C61.4186 558.949 62.0902 559.621 62.9186 559.621H65.8333ZM80.904 579.525L70.7424 592.257H63.26L53.096 579.525H80.904ZM70.0556 597.35L74.4091 613.344L74.4873 613.584L75.25 615.175H58.75L59.5151 613.584L59.5884 613.344L63.9444 597.35H70.0556ZM78 620.268L83.5 627.907H50.5L56 620.268H78Z" fill="white"/>
<path id="peon" fill-rule="evenodd" clip-rule="evenodd" d="M317.291 582.79C321.122 581.31 323.84 577.591 323.84 573.237C323.84 567.583 319.257 563 313.602 563C307.948 563 303.365 567.583 303.365 573.237C303.365 577.588 306.079 581.306 309.907 582.788C309.686 583.7 309.106 584.657 307.717 585.091C307.556 585.141 307.398 585.19 307.243 585.238C304.476 586.099 302.776 586.627 302.776 587.821C302.776 588.862 303.349 589.043 304.575 589.43L304.575 589.43L304.575 589.43L304.576 589.43C304.834 589.511 305.12 589.601 305.436 589.711C305.818 589.843 306.167 589.942 306.48 590.03C307.657 590.362 308.335 590.554 308.446 591.881C308.586 593.561 308.236 604.352 306.556 605.752C305.752 606.423 304.786 606.708 304.006 606.938C303.156 607.189 302.526 607.375 302.566 607.922C302.602 608.42 302.887 608.839 303.184 609.276C303.514 609.762 303.859 610.27 303.896 610.932C303.966 612.192 303.826 614.152 301.096 615.768C300.814 615.935 300.525 616.102 300.233 616.271C297.706 617.732 295 619.298 295 621.374C295 623.684 295.7 624.944 296.61 625.86C296.61 625.86 296.525 625.908 296.396 626.001L296.394 626C296.24 626.11 296.023 626.283 295.814 626.51C295.468 626.883 295.14 627.402 295.14 628.03V631.6C295.14 631.6 298.576 633 313.602 633C324.872 633 329.619 632.212 331.288 631.819C331.845 631.687 332.059 631.6 332.059 631.6V628.03C332.059 627.78 332.007 627.546 331.924 627.333C331.669 626.686 331.118 626.219 330.811 626L330.81 626C330.677 625.905 330.589 625.854 330.589 625.854C331.499 624.944 332.199 623.684 332.199 621.368C332.199 619.297 329.499 617.733 326.968 616.267L326.968 616.266C326.676 616.097 326.386 615.93 326.103 615.763C323.944 614.489 323.405 612.996 323.309 611.802H323.322C323.298 611.487 323.298 611.195 323.316 610.932C323.346 610.269 323.691 609.76 324.021 609.274C324.317 608.838 324.601 608.419 324.634 607.922C324.637 607.882 324.636 607.843 324.631 607.807C324.58 607.343 323.981 607.166 323.192 606.933C322.412 606.702 321.448 606.417 320.643 605.747C320.611 605.72 320.579 605.689 320.548 605.655C320.527 605.632 320.506 605.608 320.486 605.583H320.486C318.941 603.663 318.618 593.501 318.753 591.875C318.794 591.387 318.912 591.052 319.103 590.807H319.109C319.438 590.392 319.984 590.238 320.727 590.028L320.727 590.028C321.039 589.94 321.385 589.842 321.764 589.711C322.08 589.601 322.366 589.511 322.624 589.43L322.624 589.43C323.85 589.043 324.424 588.862 324.424 587.821C324.424 587.807 324.423 587.793 324.423 587.779C324.389 586.601 322.67 586.07 319.883 585.209L319.882 585.208C319.751 585.168 319.618 585.127 319.482 585.085C318.093 584.655 317.512 583.701 317.291 582.79Z" fill="white"/>
<path id="peon_2" fill-rule="evenodd" clip-rule="evenodd" d="M74.2907 702.79C78.1223 701.31 80.84 697.591 80.84 693.237C80.84 687.583 76.2565 683 70.6025 683C64.9485 683 60.365 687.583 60.365 693.237C60.365 697.588 63.0793 701.306 66.907 702.788C66.6863 703.7 66.1057 704.657 64.7167 705.091C64.5556 705.141 64.3977 705.19 64.2432 705.238C61.4764 706.099 59.7758 706.627 59.7758 707.821C59.7758 708.862 60.3492 709.043 61.575 709.43L61.5751 709.43L61.5755 709.43L61.5759 709.43C61.8335 709.511 62.1199 709.601 62.4358 709.711C62.8183 709.843 63.1668 709.942 63.4799 710.03C64.657 710.362 65.3353 710.554 65.4458 711.881C65.5858 713.561 65.2358 724.352 63.5558 725.752C62.7517 726.423 61.7859 726.708 61.0057 726.938C60.1559 727.189 59.5263 727.375 59.5658 727.922C59.6018 728.42 59.8866 728.839 60.1837 729.276C60.5137 729.762 60.859 730.27 60.8958 730.932C60.9658 732.192 60.8258 734.152 58.0958 735.768C57.8136 735.935 57.5246 736.102 57.2332 736.271C54.7059 737.732 52 739.298 52 741.374C52 743.684 52.7 744.944 53.61 745.86C53.61 745.86 53.5252 745.908 53.3962 746.001L53.3942 746C53.2396 746.11 53.0233 746.283 52.814 746.51C52.4679 746.883 52.14 747.402 52.14 748.03V751.6C52.14 751.6 55.5758 753 70.6025 753C81.8725 753 86.6194 752.212 88.2884 751.819C88.8448 751.687 89.0592 751.6 89.0592 751.6V748.03C89.0592 747.78 89.0075 747.546 88.9235 747.333C88.669 746.686 88.1179 746.219 87.8108 746L87.8103 746C87.6773 745.905 87.5892 745.854 87.5892 745.854C88.4992 744.944 89.1992 743.684 89.1992 741.368C89.1992 739.297 86.4987 737.733 83.9684 736.267L83.9678 736.266C83.6759 736.097 83.3863 735.93 83.1033 735.763C80.9438 734.489 80.405 732.996 80.3087 731.802H80.3215C80.2982 731.487 80.2982 731.195 80.3157 730.932C80.3464 730.269 80.6913 729.76 81.021 729.274C81.317 728.838 81.6009 728.419 81.634 727.922C81.6367 727.882 81.6358 727.843 81.6313 727.807C81.5803 727.343 80.9811 727.166 80.192 726.933C79.4125 726.702 78.4477 726.417 77.6433 725.747C77.611 725.72 77.5791 725.689 77.5477 725.655C77.5266 725.632 77.5062 725.608 77.4865 725.583H77.4856C75.9414 723.663 75.6178 713.501 75.7533 711.875C75.794 711.387 75.9117 711.052 76.1028 710.807H76.1093C76.4382 710.392 76.9843 710.238 77.7272 710.028L77.7273 710.028C78.0386 709.94 78.3845 709.842 78.7635 709.711C79.0798 709.601 79.3664 709.511 79.6242 709.43L79.6243 709.43C80.8501 709.043 81.4235 708.862 81.4235 707.821C81.4235 707.807 81.4233 707.793 81.4228 707.779C81.389 706.601 79.67 706.07 76.8832 705.209L76.8818 705.208C76.751 705.168 76.6179 705.127 76.4825 705.085C75.0927 704.655 74.5116 703.701 74.2907 702.79Z" fill="white"/>
<path id="rey_2" fill-rule="evenodd" clip-rule="evenodd" d="M315.833 679.621V686.943C313.711 687.496 312.111 689.518 312.111 691.886C312.111 692.803 312.38 693.686 312.798 694.432H297.444V700.48L297.98 701.117L306.917 712.257C305.572 712.346 304.538 713.561 304.624 714.964C304.712 716.365 305.875 717.439 307.222 717.35H308.826L305.008 731.516L304.854 731.913L303.25 735.175H299.659C298.315 735.244 297.264 736.438 297.33 737.841C297.396 739.242 298.542 740.337 299.889 740.268L295.457 746.395L295 747.031V753H339V747.031L338.54 746.395L334.111 740.268C334.991 740.278 335.81 739.799 336.26 739.005C336.476 738.614 336.589 738.172 336.589 737.721C336.589 737.271 336.476 736.828 336.26 736.438C335.81 735.644 334.989 735.165 334.111 735.175H330.75L329.146 731.913L329.068 731.753L328.995 731.516L325.172 717.35H326.778C327.426 717.401 328.067 717.183 328.561 716.743C329.055 716.303 329.361 715.677 329.413 715.002C329.462 714.327 329.253 713.659 328.83 713.145C328.408 712.63 327.807 712.311 327.159 712.257L336.02 701.117L336.556 700.48V694.432H321.202C321.622 693.686 321.889 692.803 321.889 691.886C321.889 689.773 320.615 687.936 318.833 687.171V679.621H321.57C322.399 679.621 323.07 678.949 323.07 678.121C323.07 677.292 322.399 676.621 321.57 676.621H318.833V674.5C318.833 673.672 318.162 673 317.333 673C316.505 673 315.833 673.672 315.833 674.5V676.621H312.919C312.09 676.621 311.419 677.292 311.419 678.121C311.419 678.949 312.09 679.621 312.919 679.621H315.833ZM330.904 699.525L320.742 712.257H313.26L303.096 699.525H330.904ZM320.056 717.35L324.409 733.344L324.487 733.584L325.25 735.175H308.75L309.515 733.584L309.588 733.344L313.944 717.35H320.056ZM328 740.268L333.5 747.907H300.5L306 740.268H328Z" fill="white"/>
</g>
<g id="Group 174">
<g id="Dato 3:">
<path d="M485.971 549V523.406H493.195C495.422 523.406 497.391 523.898 499.102 524.883C500.812 525.867 502.131 527.268 503.057 529.084C503.994 530.9 504.469 532.986 504.48 535.342V536.977C504.48 539.391 504.012 541.506 503.074 543.322C502.148 545.139 500.818 546.533 499.084 547.506C497.361 548.479 495.352 548.977 493.055 549H485.971ZM489.346 526.184V546.24H492.896C495.498 546.24 497.52 545.432 498.961 543.814C500.414 542.197 501.141 539.895 501.141 536.906V535.412C501.141 532.506 500.455 530.25 499.084 528.645C497.725 527.027 495.791 526.207 493.283 526.184H489.346Z" fill="white"/>
<path d="M520.828 549C520.641 548.625 520.488 547.957 520.371 546.996C518.859 548.566 517.055 549.352 514.957 549.352C513.082 549.352 511.541 548.824 510.334 547.77C509.139 546.703 508.541 545.355 508.541 543.727C508.541 541.746 509.291 540.211 510.791 539.121C512.303 538.02 514.424 537.469 517.154 537.469H520.318V535.975C520.318 534.838 519.979 533.936 519.299 533.268C518.619 532.588 517.617 532.248 516.293 532.248C515.133 532.248 514.16 532.541 513.375 533.127C512.59 533.713 512.197 534.422 512.197 535.254H508.928C508.928 534.305 509.262 533.391 509.93 532.512C510.609 531.621 511.523 530.918 512.672 530.402C513.832 529.887 515.104 529.629 516.486 529.629C518.678 529.629 520.395 530.18 521.637 531.281C522.879 532.371 523.523 533.877 523.57 535.799V544.553C523.57 546.299 523.793 547.688 524.238 548.719V549H520.828ZM515.432 546.521C516.451 546.521 517.418 546.258 518.332 545.73C519.246 545.203 519.908 544.518 520.318 543.674V539.771H517.77C513.785 539.771 511.793 540.938 511.793 543.27C511.793 544.289 512.133 545.086 512.812 545.66C513.492 546.234 514.365 546.521 515.432 546.521Z" fill="white"/>
<path d="M533.08 525.375V529.98H536.631V532.494H533.08V544.289C533.08 545.051 533.238 545.625 533.555 546.012C533.871 546.387 534.41 546.574 535.172 546.574C535.547 546.574 536.062 546.504 536.719 546.363V549C535.863 549.234 535.031 549.352 534.223 549.352C532.77 549.352 531.674 548.912 530.936 548.033C530.197 547.154 529.828 545.906 529.828 544.289V532.494H526.365V529.98H529.828V525.375H533.08Z" fill="white"/>
<path d="M539.232 539.314C539.232 537.451 539.596 535.775 540.322 534.287C541.061 532.799 542.08 531.65 543.381 530.842C544.693 530.033 546.188 529.629 547.863 529.629C550.453 529.629 552.545 530.525 554.139 532.318C555.744 534.111 556.547 536.496 556.547 539.473V539.701C556.547 541.553 556.189 543.217 555.475 544.693C554.771 546.158 553.758 547.301 552.434 548.121C551.121 548.941 549.609 549.352 547.898 549.352C545.32 549.352 543.229 548.455 541.623 546.662C540.029 544.869 539.232 542.496 539.232 539.543V539.314ZM542.502 539.701C542.502 541.811 542.988 543.504 543.961 544.781C544.945 546.059 546.258 546.697 547.898 546.697C549.551 546.697 550.863 546.053 551.836 544.764C552.809 543.463 553.295 541.646 553.295 539.314C553.295 537.229 552.797 535.541 551.801 534.252C550.816 532.951 549.504 532.301 547.863 532.301C546.258 532.301 544.963 532.939 543.979 534.217C542.994 535.494 542.502 537.322 542.502 539.701Z" fill="white"/>
<path d="M573.949 534.621H576.393C577.928 534.598 579.135 534.193 580.014 533.408C580.893 532.623 581.332 531.562 581.332 530.227C581.332 527.227 579.838 525.727 576.85 525.727C575.443 525.727 574.318 526.131 573.475 526.939C572.643 527.736 572.227 528.797 572.227 530.121H568.975C568.975 528.094 569.713 526.412 571.189 525.076C572.678 523.729 574.564 523.055 576.85 523.055C579.264 523.055 581.156 523.693 582.527 524.971C583.898 526.248 584.584 528.023 584.584 530.297C584.584 531.41 584.221 532.488 583.494 533.531C582.779 534.574 581.801 535.354 580.559 535.869C581.965 536.314 583.049 537.053 583.811 538.084C584.584 539.115 584.971 540.375 584.971 541.863C584.971 544.16 584.221 545.982 582.721 547.33C581.221 548.678 579.27 549.352 576.867 549.352C574.465 549.352 572.508 548.701 570.996 547.4C569.496 546.1 568.746 544.383 568.746 542.25H572.016C572.016 543.598 572.455 544.676 573.334 545.484C574.213 546.293 575.391 546.697 576.867 546.697C578.438 546.697 579.639 546.287 580.471 545.467C581.303 544.646 581.719 543.469 581.719 541.934C581.719 540.445 581.262 539.303 580.348 538.506C579.434 537.709 578.115 537.299 576.393 537.275H573.949V534.621Z" fill="white"/>
<path d="M589.664 547.295C589.664 546.732 589.828 546.264 590.156 545.889C590.496 545.514 591 545.326 591.668 545.326C592.336 545.326 592.84 545.514 593.18 545.889C593.531 546.264 593.707 546.732 593.707 547.295C593.707 547.834 593.531 548.285 593.18 548.648C592.84 549.012 592.336 549.193 591.668 549.193C591 549.193 590.496 549.012 590.156 548.648C589.828 548.285 589.664 547.834 589.664 547.295ZM589.682 531.773C589.682 531.211 589.846 530.742 590.174 530.367C590.514 529.992 591.018 529.805 591.686 529.805C592.354 529.805 592.857 529.992 593.197 530.367C593.549 530.742 593.725 531.211 593.725 531.773C593.725 532.312 593.549 532.764 593.197 533.127C592.857 533.49 592.354 533.672 591.686 533.672C591.018 533.672 590.514 533.49 590.174 533.127C589.846 532.764 589.682 532.312 589.682 531.773Z" fill="white"/>
</g>
<path id="reina" d="M530.962 601C527.806 601 525.192 603.613 525.192 606.769C525.192 608.875 526.352 610.724 528.077 611.728V616.144C528.077 617.373 527.142 618.308 525.913 618.308H519.152C518.731 618.313 518.315 618.217 517.939 618.029C517.563 617.841 517.237 617.565 516.988 617.226C517.74 616.697 518.353 615.995 518.777 615.179C519.201 614.363 519.422 613.458 519.423 612.538C519.423 609.383 516.81 606.769 513.654 606.769C510.498 606.769 507.885 609.383 507.885 612.538C507.885 614.644 509.044 616.493 510.769 617.497V622.363L511.58 623.266L518.341 630.028C517.705 630.267 517.173 630.724 516.841 631.317C516.509 631.911 516.398 632.603 516.527 633.27C516.654 633.94 517.015 634.544 517.545 634.973C518.076 635.403 518.741 635.63 519.423 635.615H521.315L516.81 651.662L516.628 652.112L514.736 655.808H510.498C508.912 655.886 507.671 657.238 507.749 658.828C507.827 660.414 509.18 661.655 510.769 661.577L505.539 668.517L505 669.238V676H556.923V669.238L556.381 668.517L551.154 661.577C552.192 661.588 553.159 661.046 553.689 660.146C553.944 659.704 554.078 659.203 554.078 658.692C554.078 658.182 553.944 657.681 553.689 657.238C553.159 656.338 552.189 655.796 551.154 655.808H547.187L545.295 652.112L545.203 651.931L545.116 651.662L540.605 635.615H542.5C543.183 635.635 543.85 635.41 544.383 634.983C544.915 634.555 545.279 633.952 545.408 633.282C545.537 632.611 545.425 631.916 545.09 631.319C544.756 630.723 544.222 630.265 543.582 630.025L550.343 623.266L551.154 622.363V617.5C552.879 616.496 554.038 614.647 554.038 612.541C554.038 609.386 551.425 606.772 548.269 606.772C545.113 606.772 542.5 609.386 542.5 612.541C542.5 614.468 543.458 616.182 544.935 617.229C544.686 617.568 544.36 617.844 543.984 618.032C543.608 618.22 543.192 618.316 542.771 618.311H536.01C535.724 618.316 535.44 618.264 535.175 618.157C534.91 618.05 534.67 617.891 534.468 617.689C534.266 617.487 534.106 617.246 534 616.981C533.893 616.717 533.841 616.433 533.846 616.147V611.728C535.571 610.724 536.731 608.875 536.731 606.769C536.731 603.613 534.117 601 530.962 601ZM530.962 622.185C532.346 623.344 534.083 624.077 536.01 624.077H541.239L535.47 629.846H526.456L520.687 624.077H525.913C527.84 624.077 529.577 623.344 530.962 622.185V622.185ZM527.356 635.615H534.567L539.705 653.734L539.797 654.005L540.697 655.808H521.226L522.129 654.005L522.215 653.734L527.356 635.615ZM517.981 661.577H543.942L550.433 670.231H511.49L517.981 661.577Z" fill="white"/>
<g id="Group 186">
<path id="Arrow 21 (Stroke)" fill-rule="evenodd" clip-rule="evenodd" d="M671.718 701.588C672.479 701.916 672.83 702.798 672.502 703.559L667.161 715.957C666.833 716.718 665.951 717.069 665.19 716.742C664.429 716.414 664.078 715.531 664.406 714.771L668.321 705.682C641.129 716.289 619.736 721.946 598.946 721.987C577.281 722.031 556.42 715.976 530.468 703.349L531.781 700.651C557.501 713.166 577.896 719.029 598.94 718.987C619.175 718.947 640.149 713.448 667.19 702.904L658.133 699.002C657.372 698.674 657.021 697.792 657.349 697.031C657.676 696.27 658.559 695.919 659.32 696.247L671.718 701.588Z" fill="#2CF30B"/>
<g id="Izquierda_2">
<path d="M537.592 769H534.217V743.406H537.592V769Z" fill="#2CF30B"/>
<path d="M546.328 766.346H557.455V769H542.356V766.609L552.85 752.67H542.514V749.98H556.928V752.283L546.328 766.346Z" fill="#2CF30B"/>
<path d="M560.057 759.332C560.057 756.344 560.742 753.982 562.113 752.248C563.484 750.502 565.324 749.629 567.633 749.629C569.883 749.629 571.658 750.385 572.959 751.896L573.1 749.98H576.088V776.312H572.836V767.242C571.524 768.648 569.777 769.352 567.598 769.352C565.301 769.352 563.467 768.461 562.096 766.68C560.736 764.887 560.057 762.514 560.057 759.561V759.332ZM563.309 759.701C563.309 761.881 563.766 763.592 564.68 764.834C565.606 766.076 566.848 766.697 568.406 766.697C570.34 766.697 571.817 765.842 572.836 764.131V754.814C571.805 753.139 570.34 752.301 568.442 752.301C566.871 752.301 565.623 752.928 564.697 754.182C563.772 755.424 563.309 757.264 563.309 759.701Z" fill="#2CF30B"/>
<path d="M593.051 767.119C591.785 768.607 589.928 769.352 587.479 769.352C585.451 769.352 583.904 768.766 582.838 767.594C581.783 766.41 581.25 764.664 581.238 762.355V749.98H584.49V762.268C584.49 765.15 585.662 766.592 588.006 766.592C590.49 766.592 592.143 765.666 592.963 763.814V749.98H596.215V769H593.121L593.051 767.119Z" fill="#2CF30B"/>
<path d="M604.705 769H601.453V749.98H604.705V769ZM601.19 744.936C601.19 744.408 601.348 743.963 601.664 743.6C601.992 743.236 602.473 743.055 603.106 743.055C603.738 743.055 604.219 743.236 604.547 743.6C604.875 743.963 605.039 744.408 605.039 744.936C605.039 745.463 604.875 745.902 604.547 746.254C604.219 746.605 603.738 746.781 603.106 746.781C602.473 746.781 601.992 746.605 601.664 746.254C601.348 745.902 601.19 745.463 601.19 744.936Z" fill="#2CF30B"/>
<path d="M617.818 769.352C615.24 769.352 613.143 768.508 611.526 766.82C609.908 765.121 609.1 762.854 609.1 760.018V759.42C609.1 757.533 609.457 755.852 610.172 754.375C610.899 752.887 611.906 751.727 613.195 750.895C614.496 750.051 615.902 749.629 617.414 749.629C619.887 749.629 621.809 750.443 623.18 752.072C624.551 753.701 625.236 756.033 625.236 759.068V760.422H612.352C612.399 762.297 612.943 763.814 613.986 764.975C615.041 766.123 616.377 766.697 617.994 766.697C619.143 766.697 620.115 766.463 620.912 765.994C621.709 765.525 622.406 764.904 623.004 764.131L624.99 765.678C623.397 768.127 621.006 769.352 617.818 769.352ZM617.414 752.301C616.102 752.301 615 752.781 614.109 753.742C613.219 754.691 612.668 756.027 612.457 757.75H621.984V757.504C621.891 755.852 621.445 754.574 620.649 753.672C619.852 752.758 618.774 752.301 617.414 752.301Z" fill="#2CF30B"/>
<path d="M638.209 752.898C637.717 752.816 637.184 752.775 636.609 752.775C634.477 752.775 633.029 753.684 632.268 755.5V769H629.016V749.98H632.18L632.233 752.178C633.299 750.479 634.811 749.629 636.768 749.629C637.401 749.629 637.881 749.711 638.209 749.875V752.898Z" fill="#2CF30B"/>
<path d="M640.072 759.332C640.072 756.414 640.764 754.07 642.147 752.301C643.529 750.52 645.34 749.629 647.578 749.629C649.805 749.629 651.568 750.391 652.869 751.914V742H656.121V769H653.133L652.975 766.961C651.674 768.555 649.863 769.352 647.543 769.352C645.34 769.352 643.541 768.449 642.147 766.645C640.764 764.84 640.072 762.484 640.072 759.578V759.332ZM643.324 759.701C643.324 761.857 643.77 763.545 644.66 764.764C645.551 765.982 646.781 766.592 648.352 766.592C650.414 766.592 651.92 765.666 652.869 763.814V755.078C651.897 753.285 650.402 752.389 648.387 752.389C646.793 752.389 645.551 753.004 644.66 754.234C643.77 755.465 643.324 757.287 643.324 759.701Z" fill="#2CF30B"/>
<path d="M672.926 769C672.738 768.625 672.586 767.957 672.469 766.996C670.957 768.566 669.152 769.352 667.055 769.352C665.18 769.352 663.639 768.824 662.432 767.77C661.236 766.703 660.639 765.355 660.639 763.727C660.639 761.746 661.389 760.211 662.889 759.121C664.401 758.02 666.522 757.469 669.252 757.469H672.416V755.975C672.416 754.838 672.076 753.936 671.397 753.268C670.717 752.588 669.715 752.248 668.391 752.248C667.231 752.248 666.258 752.541 665.473 753.127C664.688 753.713 664.295 754.422 664.295 755.254H661.026C661.026 754.305 661.359 753.391 662.027 752.512C662.707 751.621 663.621 750.918 664.77 750.402C665.93 749.887 667.201 749.629 668.584 749.629C670.776 749.629 672.492 750.18 673.734 751.281C674.977 752.371 675.621 753.877 675.668 755.799V764.553C675.668 766.299 675.891 767.688 676.336 768.719V769H672.926ZM667.529 766.521C668.549 766.521 669.516 766.258 670.43 765.73C671.344 765.203 672.006 764.518 672.416 763.674V759.771H669.867C665.883 759.771 663.891 760.938 663.891 763.27C663.891 764.289 664.231 765.086 664.91 765.66C665.59 766.234 666.463 766.521 667.529 766.521Z" fill="#2CF30B"/>
</g>
</g>
<path id="alfil" d="M647.172 643.17C647.172 650.734 650.415 653.985 655.375 655.562V661.938H683.5V655.562C688.46 653.985 691.703 650.729 691.703 643.17C691.703 638.686 690.131 633.341 687.793 628.146L673.1 642.843C672.88 643.063 672.582 643.186 672.271 643.186C671.961 643.186 671.663 643.063 671.443 642.843L669.786 641.187C669.567 640.967 669.443 640.669 669.443 640.358C669.443 640.047 669.567 639.75 669.786 639.53L685.59 623.72C682.543 618.167 678.783 613.158 675.209 610.157C677.26 609.656 678.812 607.892 678.812 605.688C678.812 604.444 678.319 603.252 677.44 602.373C676.56 601.494 675.368 601 674.125 601H664.75C663.507 601 662.315 601.494 661.435 602.373C660.556 603.252 660.062 604.444 660.062 605.688C660.062 607.885 661.615 609.656 663.666 610.157C655.933 616.645 647.172 632.421 647.172 643.17ZM690.531 666.625H648.344C647.722 666.625 647.126 666.872 646.686 667.311C646.247 667.751 646 668.347 646 668.969V673.656C646 674.278 646.247 674.874 646.686 675.314C647.126 675.753 647.722 676 648.344 676H690.531C691.153 676 691.749 675.753 692.189 675.314C692.628 674.874 692.875 674.278 692.875 673.656V668.969C692.875 668.347 692.628 667.751 692.189 667.311C691.749 666.872 691.153 666.625 690.531 666.625Z" fill="white"/>
</g>
<path id="caballo" fill-rule="evenodd" clip-rule="evenodd" d="M180.777 125.218V98.6223C180.777 94.8324 178.649 91.5745 175.524 89.879L180.777 82H154.181C148.645 82.0023 143.295 84.0001 139.112 87.6271C134.929 91.2541 132.194 96.2672 131.408 101.747L127.585 128.543L160.83 141.84L157.505 111.289C157.239 109.493 159.666 108.729 160.531 110.258L170.803 128.543L180.777 125.218ZM185.83 145.032H122V157H185.83V145.032Z" fill="white"/>
<path id="peon_3" fill-rule="evenodd" clip-rule="evenodd" d="M263.291 106.79C267.122 105.31 269.84 101.591 269.84 97.2375C269.84 91.5835 265.257 87 259.602 87C253.948 87 249.365 91.5835 249.365 97.2375C249.365 101.588 252.079 105.306 255.907 106.788C255.686 107.7 255.106 108.657 253.717 109.091C253.556 109.141 253.398 109.19 253.243 109.238C250.476 110.099 248.776 110.627 248.776 111.821C248.776 112.862 249.349 113.043 250.575 113.43L250.575 113.43L250.575 113.43L250.576 113.43C250.834 113.511 251.12 113.601 251.436 113.711C251.818 113.843 252.167 113.942 252.48 114.03C253.657 114.362 254.335 114.554 254.446 115.881C254.586 117.561 254.236 128.352 252.556 129.752C251.752 130.423 250.786 130.708 250.006 130.938C249.156 131.189 248.526 131.375 248.566 131.922C248.602 132.42 248.887 132.839 249.184 133.276C249.514 133.762 249.859 134.27 249.896 134.932C249.966 136.192 249.826 138.152 247.096 139.768C246.814 139.935 246.525 140.102 246.233 140.271C243.706 141.732 241 143.298 241 145.374C241 147.684 241.7 148.944 242.61 149.86C242.61 149.86 242.525 149.908 242.396 150.001L242.394 150C242.24 150.11 242.023 150.283 241.814 150.51C241.468 150.883 241.14 151.402 241.14 152.03V155.6C241.14 155.6 244.576 157 259.602 157C270.872 157 275.619 156.212 277.288 155.819C277.845 155.687 278.059 155.6 278.059 155.6V152.03C278.059 151.78 278.007 151.546 277.924 151.333C277.669 150.686 277.118 150.219 276.811 150L276.81 150C276.677 149.905 276.589 149.854 276.589 149.854C277.499 148.944 278.199 147.684 278.199 145.368C278.199 143.297 275.499 141.733 272.968 140.267L272.968 140.266C272.676 140.097 272.386 139.93 272.103 139.763C269.944 138.489 269.405 136.996 269.309 135.802H269.322C269.298 135.487 269.298 135.195 269.316 134.932C269.346 134.269 269.691 133.76 270.021 133.274C270.317 132.838 270.601 132.419 270.634 131.922C270.637 131.882 270.636 131.843 270.631 131.807C270.58 131.343 269.981 131.166 269.192 130.933C268.412 130.702 267.448 130.417 266.643 129.747C266.611 129.72 266.579 129.689 266.548 129.655C266.527 129.632 266.506 129.608 266.486 129.583H266.486C264.941 127.663 264.618 117.501 264.753 115.875C264.794 115.387 264.912 115.052 265.103 114.807H265.109C265.438 114.392 265.984 114.238 266.727 114.028L266.727 114.028C267.039 113.94 267.385 113.842 267.764 113.711C268.08 113.601 268.366 113.511 268.624 113.43L268.624 113.43C269.85 113.043 270.424 112.862 270.424 111.821C270.424 111.807 270.423 111.793 270.423 111.779C270.389 110.601 268.67 110.07 265.883 109.209L265.882 109.208C265.751 109.168 265.618 109.127 265.482 109.085C264.093 108.655 263.512 107.701 263.291 106.79Z" fill="white"/>
<g id="Group 130">
<path id="Union" fill-rule="evenodd" clip-rule="evenodd" d="M359.962 610.453C358.873 611.302 358.68 612.873 359.529 613.962C360.379 615.05 361.95 615.244 363.038 614.395L380.342 600.889L397.068 613.433C398.172 614.261 399.739 614.037 400.568 612.933C401.396 611.828 401.172 610.261 400.068 609.433L384.426 597.702L400.097 585.471C401.185 584.621 401.379 583.05 400.529 581.962C399.68 580.873 398.109 580.68 397.02 581.529L380.282 594.594L364.067 582.433C362.963 581.604 361.396 581.828 360.567 582.933C359.739 584.037 359.963 585.604 361.067 586.433L376.198 597.781L359.962 610.453Z" fill="#FD0C0C"/>
<path id="Union_2" fill-rule="evenodd" clip-rule="evenodd" d="M370.939 738.374C370.343 738.793 369.569 738.949 368.814 738.733C367.486 738.353 366.718 736.97 367.097 735.642L371.723 719.45C372.103 718.122 373.486 717.353 374.814 717.733C376.141 718.112 376.91 719.496 376.531 720.823L373.584 731.136L397.556 717.334C398.753 716.645 400.281 717.056 400.97 718.253C401.659 719.45 401.248 720.978 400.051 721.667L371.384 738.172C371.24 738.255 371.091 738.322 370.939 738.374Z" fill="#2CF30B"/>
</g>
<path id="rey_3" fill-rule="evenodd" clip-rule="evenodd" d="M459.833 88.6209V95.9428C457.711 96.4963 456.111 98.5182 456.111 100.886C456.111 101.803 456.38 102.686 456.798 103.432H441.444V109.48L441.98 110.117L450.917 121.257C449.572 121.346 448.538 122.561 448.624 123.964C448.712 125.365 449.875 126.439 451.222 126.35H452.826L449.008 140.516L448.854 140.913L447.25 144.175H443.659C442.315 144.244 441.264 145.438 441.33 146.841C441.396 148.242 442.542 149.337 443.889 149.268L439.457 155.395L439 156.031V162H483V156.031L482.54 155.395L478.111 149.268C478.991 149.278 479.81 148.799 480.26 148.005C480.476 147.614 480.589 147.172 480.589 146.721C480.589 146.271 480.476 145.828 480.26 145.438C479.81 144.644 478.989 144.165 478.111 144.175H474.75L473.146 140.913L473.068 140.753L472.995 140.516L469.172 126.35H470.778C471.426 126.401 472.067 126.183 472.561 125.743C473.055 125.303 473.361 124.677 473.413 124.002C473.462 123.327 473.253 122.659 472.83 122.145C472.408 121.63 471.807 121.311 471.159 121.257L480.02 110.117L480.556 109.48V103.432H465.202C465.622 102.686 465.889 101.803 465.889 100.886C465.889 98.7734 464.615 96.936 462.833 96.1715V88.6209H465.57C466.399 88.6209 467.07 87.9493 467.07 87.1209C467.07 86.2925 466.399 85.6209 465.57 85.6209H462.833V83.5C462.833 82.6716 462.162 82 461.333 82C460.505 82 459.833 82.6716 459.833 83.5V85.6209H456.919C456.09 85.6209 455.419 86.2925 455.419 87.1209C455.419 87.9493 456.09 88.6209 456.919 88.6209H459.833ZM474.904 108.525L464.742 121.257H457.26L447.096 108.525H474.904ZM464.056 126.35L468.409 142.344L468.487 142.584L469.25 144.175H452.75L453.515 142.584L453.588 142.344L457.944 126.35H464.056ZM472 149.268L477.5 156.907H444.5L450 149.268H472Z" fill="white"/>
<g id="Group 187">
<g id="Group 179">
<path id="alfil_2" d="M836.625 214.491C836.625 218.525 838.355 220.259 841 221.1V224.5H856V221.1C858.645 220.259 860.375 218.522 860.375 214.491C860.375 212.099 859.537 209.248 858.29 206.478L850.453 214.316C850.336 214.434 850.177 214.499 850.011 214.499C849.846 214.499 849.687 214.434 849.57 214.316L848.686 213.433C848.569 213.316 848.503 213.157 848.503 212.991C848.503 212.825 848.569 212.666 848.686 212.549L857.115 204.117C855.49 201.155 853.484 198.484 851.578 196.884C852.672 196.616 853.5 195.676 853.5 194.5C853.5 193.837 853.237 193.201 852.768 192.732C852.299 192.263 851.663 192 851 192H846C845.337 192 844.701 192.263 844.232 192.732C843.763 193.201 843.5 193.837 843.5 194.5C843.5 195.672 844.328 196.616 845.422 196.884C841.298 200.344 836.625 208.758 836.625 214.491ZM859.75 227H837.25C836.918 227 836.601 227.132 836.366 227.366C836.132 227.601 836 227.918 836 228.25V230.75C836 231.082 836.132 231.399 836.366 231.634C836.601 231.868 836.918 232 837.25 232H859.75C860.082 232 860.399 231.868 860.634 231.634C860.868 231.399 861 231.082 861 230.75V228.25C861 227.918 860.868 227.601 860.634 227.366C860.399 227.132 860.082 227 859.75 227Z" fill="white"/>
<g id="Group 172_2">
<path id="Rectangle 20_2" d="M619 181H669V231H619V181Z" fill="white"/>
<path id="torre_2" fill-rule="evenodd" clip-rule="evenodd" d="M629.5 225H655.75L649.188 216.25V200.938L653.562 196.562V190H649.323V192.188H644.675V190H640.573V192.188H635.925V190H631.688V196.562L636.062 200.938V216.25L629.5 225ZM644.812 200.938H647V216.25H644.812V200.938Z" fill="black"/>
</g>
<path id="reina_2" d="M752.846 190C751.163 190 749.769 191.394 749.769 193.077C749.769 194.2 750.388 195.186 751.308 195.722V198.077C751.308 198.732 750.809 199.231 750.154 199.231H746.548C746.323 199.233 746.102 199.182 745.901 199.082C745.7 198.982 745.526 198.835 745.394 198.654C745.795 198.372 746.122 197.997 746.348 197.562C746.574 197.127 746.692 196.644 746.692 196.154C746.692 194.471 745.298 193.077 743.615 193.077C741.932 193.077 740.538 194.471 740.538 196.154C740.538 197.277 741.157 198.263 742.077 198.798V201.394L742.509 201.875L746.115 205.482C745.776 205.609 745.492 205.853 745.315 206.169C745.138 206.486 745.079 206.855 745.148 207.211C745.216 207.568 745.408 207.89 745.691 208.119C745.974 208.348 746.329 208.469 746.692 208.462H747.702L745.298 217.02L745.202 217.26L744.192 219.231H741.932C741.086 219.272 740.425 219.994 740.466 220.842C740.508 221.688 741.229 222.349 742.077 222.308L739.288 226.009L739 226.394V230H766.692V226.394L766.403 226.009L763.615 222.308C764.169 222.314 764.685 222.025 764.968 221.545C765.103 221.309 765.175 221.041 765.175 220.769C765.175 220.497 765.103 220.23 764.968 219.994C764.685 219.514 764.168 219.225 763.615 219.231H761.5L760.491 217.26L760.442 217.163L760.395 217.02L757.989 208.462H759C759.364 208.472 759.72 208.352 760.004 208.124C760.288 207.896 760.482 207.575 760.551 207.217C760.62 206.859 760.56 206.488 760.382 206.17C760.203 205.852 759.918 205.608 759.577 205.48L763.183 201.875L763.615 201.394V198.8C764.535 198.265 765.154 197.278 765.154 196.155C765.154 194.472 763.76 193.078 762.077 193.078C760.394 193.078 759 194.472 759 196.155C759 197.183 759.511 198.097 760.298 198.655C760.166 198.836 759.992 198.983 759.791 199.084C759.591 199.184 759.369 199.235 759.145 199.232H755.538C755.386 199.235 755.235 199.207 755.093 199.15C754.952 199.093 754.824 199.009 754.716 198.901C754.608 198.793 754.523 198.665 754.466 198.523C754.41 198.382 754.382 198.231 754.385 198.078V195.722C755.305 195.186 755.923 194.2 755.923 193.077C755.923 191.394 754.529 190 752.846 190ZM752.846 201.298C753.585 201.917 754.511 202.308 755.538 202.308H758.328L755.251 205.385H750.443L747.366 202.308H750.154C751.182 202.308 752.108 201.917 752.846 201.298V201.298ZM750.923 208.462H754.769L757.509 218.125L757.558 218.269L758.038 219.231H747.654L748.135 218.269L748.182 218.125L750.923 208.462ZM745.923 222.308H759.769L763.231 226.923H742.462L745.923 222.308Z" fill="white"/>
</g>
<g id="Group 180">
<path id="alfil_3" d="M631.625 283.491C631.625 287.525 633.355 289.259 636 290.1V293.5H651V290.1C653.645 289.259 655.375 287.522 655.375 283.491C655.375 281.099 654.537 278.248 653.29 275.478L645.453 283.316C645.336 283.434 645.177 283.499 645.011 283.499C644.846 283.499 644.687 283.434 644.57 283.316L643.686 282.433C643.569 282.316 643.503 282.157 643.503 281.991C643.503 281.825 643.569 281.666 643.686 281.549L652.115 273.117C650.49 270.155 648.484 267.484 646.578 265.884C647.672 265.616 648.5 264.676 648.5 263.5C648.5 262.837 648.237 262.201 647.768 261.732C647.299 261.263 646.663 261 646 261H641C640.337 261 639.701 261.263 639.232 261.732C638.763 262.201 638.5 262.837 638.5 263.5C638.5 264.672 639.328 265.616 640.422 265.884C636.298 269.344 631.625 277.758 631.625 283.491ZM654.75 296H632.25C631.918 296 631.601 296.132 631.366 296.366C631.132 296.601 631 296.918 631 297.25V299.75C631 300.082 631.132 300.399 631.366 300.634C631.601 300.868 631.918 301 632.25 301H654.75C655.082 301 655.399 300.868 655.634 300.634C655.868 300.399 656 300.082 656 299.75V297.25C656 296.918 655.868 296.601 655.634 296.366C655.399 296.132 655.082 296 654.75 296Z" fill="white"/>
<g id="Group 175">
<path id="Rectangle 20_3" d="M824 251H874V301H824V251Z" fill="white"/>
<path id="torre_3" fill-rule="evenodd" clip-rule="evenodd" d="M834.5 295H860.75L854.188 286.25V270.938L858.562 266.562V260H854.323V262.188H849.675V260H845.573V262.188H840.925V260H836.688V266.562L841.062 270.938V286.25L834.5 295ZM849.812 270.938H852V286.25H849.812V270.938Z" fill="black"/>
</g>
<path id="reina_3" d="M544.846 260C543.163 260 541.769 261.394 541.769 263.077C541.769 264.2 542.388 265.186 543.308 265.722V268.077C543.308 268.732 542.809 269.231 542.154 269.231H538.548C538.323 269.233 538.102 269.182 537.901 269.082C537.7 268.982 537.526 268.835 537.394 268.654C537.795 268.372 538.122 267.997 538.348 267.562C538.574 267.127 538.692 266.644 538.692 266.154C538.692 264.471 537.298 263.077 535.615 263.077C533.932 263.077 532.538 264.471 532.538 266.154C532.538 267.277 533.157 268.263 534.077 268.798V271.394L534.509 271.875L538.115 275.482C537.776 275.609 537.492 275.853 537.315 276.169C537.138 276.486 537.079 276.855 537.148 277.211C537.216 277.568 537.408 277.89 537.691 278.119C537.974 278.348 538.329 278.469 538.692 278.462H539.702L537.298 287.02L537.202 287.26L536.192 289.231H533.932C533.086 289.272 532.425 289.994 532.466 290.842C532.508 291.688 533.229 292.349 534.077 292.308L531.288 296.009L531 296.394V300H558.692V296.394L558.403 296.009L555.615 292.308C556.169 292.314 556.685 292.025 556.968 291.545C557.103 291.309 557.175 291.041 557.175 290.769C557.175 290.497 557.103 290.23 556.968 289.994C556.685 289.514 556.168 289.225 555.615 289.231H553.5L552.491 287.26L552.442 287.163L552.395 287.02L549.989 278.462H551C551.364 278.472 551.72 278.352 552.004 278.124C552.288 277.896 552.482 277.575 552.551 277.217C552.62 276.859 552.56 276.488 552.382 276.17C552.203 275.852 551.918 275.608 551.577 275.48L555.183 271.875L555.615 271.394V268.8C556.535 268.265 557.154 267.278 557.154 266.155C557.154 264.472 555.76 263.078 554.077 263.078C552.394 263.078 551 264.472 551 266.155C551 267.183 551.511 268.097 552.298 268.655C552.166 268.836 551.992 268.983 551.791 269.084C551.591 269.184 551.369 269.235 551.145 269.232H547.538C547.386 269.235 547.235 269.207 547.093 269.15C546.952 269.093 546.824 269.009 546.716 268.901C546.608 268.793 546.523 268.665 546.466 268.523C546.41 268.382 546.382 268.231 546.385 268.078V265.722C547.305 265.186 547.923 264.2 547.923 263.077C547.923 261.394 546.529 260 544.846 260ZM544.846 271.298C545.585 271.917 546.511 272.308 547.538 272.308H550.328L547.251 275.385H542.443L539.366 272.308H542.154C543.182 272.308 544.108 271.917 544.846 271.298V271.298ZM542.923 278.462H546.769L549.509 288.125L549.558 288.269L550.038 289.231H539.654L540.135 288.269L540.182 288.125L542.923 278.462ZM537.923 292.308H551.769L555.231 296.923H534.462L537.923 292.308Z" fill="white"/>
</g>
<g id="Group 181">
<path id="alfil_4" d="M742.625 354.491C742.625 358.525 744.355 360.259 747 361.1V364.5H762V361.1C764.645 360.259 766.375 358.522 766.375 354.491C766.375 352.099 765.537 349.248 764.29 346.478L756.453 354.316C756.336 354.434 756.177 354.499 756.011 354.499C755.846 354.499 755.687 354.434 755.57 354.316L754.686 353.433C754.569 353.316 754.503 353.157 754.503 352.991C754.503 352.825 754.569 352.666 754.686 352.549L763.115 344.117C761.49 341.155 759.484 338.484 757.578 336.884C758.672 336.616 759.5 335.676 759.5 334.5C759.5 333.837 759.237 333.201 758.768 332.732C758.299 332.263 757.663 332 757 332H752C751.337 332 750.701 332.263 750.232 332.732C749.763 333.201 749.5 333.837 749.5 334.5C749.5 335.672 750.328 336.616 751.422 336.884C747.298 340.344 742.625 348.758 742.625 354.491ZM765.75 367H743.25C742.918 367 742.601 367.132 742.366 367.366C742.132 367.601 742 367.918 742 368.25V370.75C742 371.082 742.132 371.399 742.366 371.634C742.601 371.868 742.918 372 743.25 372H765.75C766.082 372 766.399 371.868 766.634 371.634C766.868 371.399 767 371.082 767 370.75V368.25C767 367.918 766.868 367.601 766.634 367.366C766.399 367.132 766.082 367 765.75 367Z" fill="white"/>
<g id="Group 176">
<path id="Rectangle 20_4" d="M619 326H669V376H619V326Z" fill="white"/>
<path id="torre_4" fill-rule="evenodd" clip-rule="evenodd" d="M629.5 370H655.75L649.188 361.25V345.938L653.562 341.562V335H649.323V337.188H644.675V335H640.573V337.188H635.925V335H631.688V341.562L636.062 345.938V361.25L629.5 370ZM644.812 345.938H647V361.25H644.812V345.938Z" fill="black"/>
</g>
<path id="reina_4" d="M542.846 331C541.163 331 539.769 332.394 539.769 334.077C539.769 335.2 540.388 336.186 541.308 336.722V339.077C541.308 339.732 540.809 340.231 540.154 340.231H536.548C536.323 340.233 536.102 340.182 535.901 340.082C535.7 339.982 535.526 339.835 535.394 339.654C535.795 339.372 536.122 338.997 536.348 338.562C536.574 338.127 536.692 337.644 536.692 337.154C536.692 335.471 535.298 334.077 533.615 334.077C531.932 334.077 530.538 335.471 530.538 337.154C530.538 338.277 531.157 339.263 532.077 339.798V342.394L532.509 342.875L536.115 346.482C535.776 346.609 535.492 346.853 535.315 347.169C535.138 347.486 535.079 347.855 535.148 348.211C535.216 348.568 535.408 348.89 535.691 349.119C535.974 349.348 536.329 349.469 536.692 349.462H537.702L535.298 358.02L535.202 358.26L534.192 360.231H531.932C531.086 360.272 530.425 360.994 530.466 361.842C530.508 362.688 531.229 363.349 532.077 363.308L529.288 367.009L529 367.394V371H556.692V367.394L556.403 367.009L553.615 363.308C554.169 363.314 554.685 363.025 554.968 362.545C555.103 362.309 555.175 362.041 555.175 361.769C555.175 361.497 555.103 361.23 554.968 360.994C554.685 360.514 554.168 360.225 553.615 360.231H551.5L550.491 358.26L550.442 358.163L550.395 358.02L547.989 349.462H549C549.364 349.472 549.72 349.352 550.004 349.124C550.288 348.896 550.482 348.575 550.551 348.217C550.62 347.859 550.56 347.488 550.382 347.17C550.203 346.852 549.918 346.608 549.577 346.48L553.183 342.875L553.615 342.394V339.8C554.535 339.265 555.154 338.278 555.154 337.155C555.154 335.472 553.76 334.078 552.077 334.078C550.394 334.078 549 335.472 549 337.155C549 338.183 549.511 339.097 550.298 339.655C550.166 339.836 549.992 339.983 549.791 340.084C549.591 340.184 549.369 340.235 549.145 340.232H545.538C545.386 340.235 545.235 340.207 545.093 340.15C544.952 340.093 544.824 340.009 544.716 339.901C544.608 339.793 544.523 339.665 544.466 339.523C544.41 339.382 544.382 339.231 544.385 339.078V336.722C545.305 336.186 545.923 335.2 545.923 334.077C545.923 332.394 544.529 331 542.846 331ZM542.846 342.298C543.585 342.917 544.511 343.308 545.538 343.308H548.328L545.251 346.385H540.443L537.366 343.308H540.154C541.182 343.308 542.108 342.917 542.846 342.298V342.298ZM540.923 349.462H544.769L547.509 359.125L547.558 359.269L548.038 360.231H537.654L538.135 359.269L538.182 359.125L540.923 349.462ZM535.923 363.308H549.769L553.231 367.923H532.462L535.923 363.308Z" fill="white"/>
</g>
<g id="Group 182">
<path id="alfil_5" d="M843.625 423.491C843.625 427.525 845.355 429.259 848 430.1V433.5H863V430.1C865.645 429.259 867.375 427.522 867.375 423.491C867.375 421.099 866.537 418.248 865.29 415.478L857.453 423.316C857.336 423.434 857.177 423.499 857.011 423.499C856.846 423.499 856.687 423.434 856.57 423.316L855.686 422.433C855.569 422.316 855.503 422.157 855.503 421.991C855.503 421.825 855.569 421.666 855.686 421.549L864.115 413.117C862.49 410.155 860.484 407.484 858.578 405.884C859.672 405.616 860.5 404.676 860.5 403.5C860.5 402.837 860.237 402.201 859.768 401.732C859.299 401.263 858.663 401 858 401H853C852.337 401 851.701 401.263 851.232 401.732C850.763 402.201 850.5 402.837 850.5 403.5C850.5 404.672 851.328 405.616 852.422 405.884C848.298 409.344 843.625 417.758 843.625 423.491ZM866.75 436H844.25C843.918 436 843.601 436.132 843.366 436.366C843.132 436.601 843 436.918 843 437.25V439.75C843 440.082 843.132 440.399 843.366 440.634C843.601 440.868 843.918 441 844.25 441H866.75C867.082 441 867.399 440.868 867.634 440.634C867.868 440.399 868 440.082 868 439.75V437.25C868 436.918 867.868 436.601 867.634 436.366C867.399 436.132 867.082 436 866.75 436Z" fill="white"/>
<g id="Group 177">
<path id="Rectangle 20_5" d="M720 395H770V445H720V395Z" fill="white"/>
<path id="torre_5" fill-rule="evenodd" clip-rule="evenodd" d="M730.5 439H756.75L750.188 430.25V414.938L754.562 410.562V404H750.323V406.188H745.675V404H741.573V406.188H736.925V404H732.688V410.562L737.062 414.938V430.25L730.5 439ZM745.812 414.938H748V430.25H745.812V414.938Z" fill="black"/>
</g>
<path id="reina_5" d="M643.846 400C642.163 400 640.769 401.394 640.769 403.077C640.769 404.2 641.388 405.186 642.308 405.722V408.077C642.308 408.732 641.809 409.231 641.154 409.231H637.548C637.323 409.233 637.102 409.182 636.901 409.082C636.7 408.982 636.526 408.835 636.394 408.654C636.795 408.372 637.122 407.997 637.348 407.562C637.574 407.127 637.692 406.644 637.692 406.154C637.692 404.471 636.298 403.077 634.615 403.077C632.932 403.077 631.538 404.471 631.538 406.154C631.538 407.277 632.157 408.263 633.077 408.798V411.394L633.509 411.875L637.115 415.482C636.776 415.609 636.492 415.853 636.315 416.169C636.138 416.486 636.079 416.855 636.148 417.211C636.216 417.568 636.408 417.89 636.691 418.119C636.974 418.348 637.329 418.469 637.692 418.462H638.702L636.298 427.02L636.202 427.26L635.192 429.231H632.932C632.086 429.272 631.425 429.994 631.466 430.842C631.508 431.688 632.229 432.349 633.077 432.308L630.288 436.009L630 436.394V440H657.692V436.394L657.403 436.009L654.615 432.308C655.169 432.314 655.685 432.025 655.968 431.545C656.103 431.309 656.175 431.041 656.175 430.769C656.175 430.497 656.103 430.23 655.968 429.994C655.685 429.514 655.168 429.225 654.615 429.231H652.5L651.491 427.26L651.442 427.163L651.395 427.02L648.989 418.462H650C650.364 418.472 650.72 418.352 651.004 418.124C651.288 417.896 651.482 417.575 651.551 417.217C651.62 416.859 651.56 416.488 651.382 416.17C651.203 415.852 650.918 415.608 650.577 415.48L654.183 411.875L654.615 411.394V408.8C655.535 408.265 656.154 407.278 656.154 406.155C656.154 404.472 654.76 403.078 653.077 403.078C651.394 403.078 650 404.472 650 406.155C650 407.183 650.511 408.097 651.298 408.655C651.166 408.836 650.992 408.983 650.791 409.084C650.591 409.184 650.369 409.235 650.145 409.232H646.538C646.386 409.235 646.235 409.207 646.093 409.15C645.952 409.093 645.824 409.009 645.716 408.901C645.608 408.793 645.523 408.665 645.466 408.523C645.41 408.382 645.382 408.231 645.385 408.078V405.722C646.305 405.186 646.923 404.2 646.923 403.077C646.923 401.394 645.529 400 643.846 400ZM643.846 411.298C644.585 411.917 645.511 412.308 646.538 412.308H649.328L646.251 415.385H641.443L638.366 412.308H641.154C642.182 412.308 643.108 411.917 643.846 411.298V411.298ZM641.923 418.462H645.769L648.509 428.125L648.558 428.269L649.038 429.231H638.654L639.135 428.269L639.182 428.125L641.923 418.462ZM636.923 432.308H650.769L654.231 436.923H633.462L636.923 432.308Z" fill="white"/>
</g>
<g id="Group 183">
<path id="alfil_6" d="M843.625 486.491C843.625 490.525 845.355 492.259 848 493.1V496.5H863V493.1C865.645 492.259 867.375 490.522 867.375 486.491C867.375 484.099 866.537 481.248 865.29 478.478L857.453 486.316C857.336 486.434 857.177 486.499 857.011 486.499C856.846 486.499 856.687 486.434 856.57 486.316L855.686 485.433C855.569 485.316 855.503 485.157 855.503 484.991C855.503 484.825 855.569 484.666 855.686 484.549L864.115 476.117C862.49 473.155 860.484 470.484 858.578 468.884C859.672 468.616 860.5 467.676 860.5 466.5C860.5 465.837 860.237 465.201 859.768 464.732C859.299 464.263 858.663 464 858 464H853C852.337 464 851.701 464.263 851.232 464.732C850.763 465.201 850.5 465.837 850.5 466.5C850.5 467.672 851.328 468.616 852.422 468.884C848.298 472.344 843.625 480.758 843.625 486.491ZM866.75 499H844.25C843.918 499 843.601 499.132 843.366 499.366C843.132 499.601 843 499.918 843 500.25V502.75C843 503.082 843.132 503.399 843.366 503.634C843.601 503.868 843.918 504 844.25 504H866.75C867.082 504 867.399 503.868 867.634 503.634C867.868 503.399 868 503.082 868 502.75V500.25C868 499.918 867.868 499.601 867.634 499.366C867.399 499.132 867.082 499 866.75 499Z" fill="white"/>
<g id="Group 178">
<path id="Rectangle 20_6" d="M627 456H677V506H627V456Z" fill="white"/>
<path id="torre_6" fill-rule="evenodd" clip-rule="evenodd" d="M637.5 500H663.75L657.188 491.25V475.938L661.562 471.562V465H657.323V467.188H652.675V465H648.573V467.188H643.925V465H639.688V471.562L644.062 475.938V491.25L637.5 500ZM652.812 475.938H655V491.25H652.812V475.938Z" fill="black"/>
</g>
<path id="reina_6" d="M550.846 461C549.163 461 547.769 462.394 547.769 464.077C547.769 465.2 548.388 466.186 549.308 466.722V469.077C549.308 469.732 548.809 470.231 548.154 470.231H544.548C544.323 470.233 544.102 470.182 543.901 470.082C543.7 469.982 543.526 469.835 543.394 469.654C543.795 469.372 544.122 468.997 544.348 468.562C544.574 468.127 544.692 467.644 544.692 467.154C544.692 465.471 543.298 464.077 541.615 464.077C539.932 464.077 538.538 465.471 538.538 467.154C538.538 468.277 539.157 469.263 540.077 469.798V472.394L540.509 472.875L544.115 476.482C543.776 476.609 543.492 476.853 543.315 477.169C543.138 477.486 543.079 477.855 543.148 478.211C543.216 478.568 543.408 478.89 543.691 479.119C543.974 479.348 544.329 479.469 544.692 479.462H545.702L543.298 488.02L543.202 488.26L542.192 490.231H539.932C539.086 490.272 538.425 490.994 538.466 491.842C538.508 492.688 539.229 493.349 540.077 493.308L537.288 497.009L537 497.394V501H564.692V497.394L564.403 497.009L561.615 493.308C562.169 493.314 562.685 493.025 562.968 492.545C563.103 492.309 563.175 492.041 563.175 491.769C563.175 491.497 563.103 491.23 562.968 490.994C562.685 490.514 562.168 490.225 561.615 490.231H559.5L558.491 488.26L558.442 488.163L558.395 488.02L555.989 479.462H557C557.364 479.472 557.72 479.352 558.004 479.124C558.288 478.896 558.482 478.575 558.551 478.217C558.62 477.859 558.56 477.488 558.382 477.17C558.203 476.852 557.918 476.608 557.577 476.48L561.183 472.875L561.615 472.394V469.8C562.535 469.265 563.154 468.278 563.154 467.155C563.154 465.472 561.76 464.078 560.077 464.078C558.394 464.078 557 465.472 557 467.155C557 468.183 557.511 469.097 558.298 469.655C558.166 469.836 557.992 469.983 557.791 470.084C557.591 470.184 557.369 470.235 557.145 470.232H553.538C553.386 470.235 553.235 470.207 553.093 470.15C552.952 470.093 552.824 470.009 552.716 469.901C552.608 469.793 552.523 469.665 552.466 469.523C552.41 469.382 552.382 469.231 552.385 469.078V466.722C553.305 466.186 553.923 465.2 553.923 464.077C553.923 462.394 552.529 461 550.846 461ZM550.846 472.298C551.585 472.917 552.511 473.308 553.538 473.308H556.328L553.251 476.385H548.443L545.366 473.308H548.154C549.182 473.308 550.108 472.917 550.846 472.298V472.298ZM548.923 479.462H552.769L555.509 489.125L555.558 489.269L556.038 490.231H545.654L546.135 489.269L546.182 489.125L548.923 479.462ZM543.923 493.308H557.769L561.231 497.923H540.462L543.923 493.308Z" fill="white"/>
</g>
</g>
</g>
</svg>
