<svg viewBox="0 0 950 500" fill="none" xmlns="http://www.w3.org/2000/svg">
<g id="0128218">
<g id="Group 196">
<path id="Rectangle 24 (Stroke)" fill-rule="evenodd" clip-rule="evenodd" d="M187 93.5V5H5V93.5H187ZM187 98.5H5V194H187V98.5ZM192 194V98.5H377.5V194H192ZM187 199H5V296H187V199ZM192 296V199H377.5V296H192ZM187 301H5V396.75H187V301ZM192 396.75V301H377.5V396.75H192ZM187 401.75H5V495H187V401.75ZM192 495V401.75H377.5V495H192ZM0 500V0H950V500H0ZM382.5 495H564.5V401.75H382.5V495ZM382.5 396.75H564.5V301H382.5V396.75ZM382.5 296H564.5V199H382.5V296ZM382.5 194H564.5V98.5H382.5V194ZM382.5 93.5H564.5V5H382.5V93.5ZM377.5 5H192V93.5H377.5V5ZM569.5 5V93.5H756V5H569.5ZM761 5V93.5H945V5H761ZM945 98.5H761V194H945V98.5ZM945 199H761V296H945V199ZM945 301H761V396.75H945V301ZM945 401.75H761V495H945V401.75ZM756 495V401.75H569.5V495H756ZM569.5 396.75H756V301H569.5V396.75ZM569.5 296H756V199H569.5V296ZM569.5 194H756V98.5H569.5V194Z" fill="#13EBF9"/>
<g id="Jaime">
<path d="M242.693 38.4062H246.086V56.5293C246.086 58.9785 245.348 60.8945 243.871 62.2773C242.406 63.6602 240.449 64.3516 238 64.3516C235.457 64.3516 233.477 63.7012 232.059 62.4004C230.641 61.0996 229.932 59.2773 229.932 56.9336H233.307C233.307 58.3984 233.705 59.541 234.502 60.3613C235.311 61.1816 236.477 61.5918 238 61.5918C239.395 61.5918 240.52 61.1523 241.375 60.2734C242.242 59.3945 242.682 58.1641 242.693 56.582V38.4062Z" fill="#13EBF9"/>
<path d="M263.066 64C262.879 63.625 262.727 62.957 262.609 61.9961C261.098 63.5664 259.293 64.3516 257.195 64.3516C255.32 64.3516 253.779 63.8242 252.572 62.7695C251.377 61.7031 250.779 60.3555 250.779 58.7266C250.779 56.7461 251.529 55.2109 253.029 54.1211C254.541 53.0195 256.662 52.4688 259.393 52.4688H262.557V50.9746C262.557 49.8379 262.217 48.9355 261.537 48.2676C260.857 47.5879 259.855 47.248 258.531 47.248C257.371 47.248 256.398 47.541 255.613 48.127C254.828 48.7129 254.436 49.4219 254.436 50.2539H251.166C251.166 49.3047 251.5 48.3906 252.168 47.5117C252.848 46.6211 253.762 45.918 254.91 45.4023C256.07 44.8867 257.342 44.6289 258.725 44.6289C260.916 44.6289 262.633 45.1797 263.875 46.2812C265.117 47.3711 265.762 48.877 265.809 50.7988V59.5527C265.809 61.2988 266.031 62.6875 266.477 63.7188V64H263.066ZM257.67 61.5215C258.689 61.5215 259.656 61.2578 260.57 60.7305C261.484 60.2031 262.146 59.5176 262.557 58.6738V54.7715H260.008C256.023 54.7715 254.031 55.9375 254.031 58.2695C254.031 59.2891 254.371 60.0859 255.051 60.6602C255.73 61.2344 256.604 61.5215 257.67 61.5215Z" fill="#13EBF9"/>
<path d="M274.439 64H271.188V44.9805H274.439V64ZM270.924 39.9355C270.924 39.4082 271.082 38.9629 271.398 38.5996C271.727 38.2363 272.207 38.0547 272.84 38.0547C273.473 38.0547 273.953 38.2363 274.281 38.5996C274.609 38.9629 274.773 39.4082 274.773 39.9355C274.773 40.4629 274.609 40.9023 274.281 41.2539C273.953 41.6055 273.473 41.7812 272.84 41.7812C272.207 41.7812 271.727 41.6055 271.398 41.2539C271.082 40.9023 270.924 40.4629 270.924 39.9355Z" fill="#13EBF9"/>
<path d="M282.719 44.9805L282.807 47.0898C284.201 45.4492 286.082 44.6289 288.449 44.6289C291.109 44.6289 292.92 45.6484 293.881 47.6875C294.514 46.7734 295.334 46.0352 296.342 45.4727C297.361 44.9102 298.562 44.6289 299.945 44.6289C304.117 44.6289 306.238 46.8379 306.309 51.2559V64H303.057V51.4492C303.057 50.0898 302.746 49.0762 302.125 48.4082C301.504 47.7285 300.461 47.3887 298.996 47.3887C297.789 47.3887 296.787 47.752 295.99 48.4785C295.193 49.1934 294.73 50.1602 294.602 51.3789V64H291.332V51.5371C291.332 48.7715 289.979 47.3887 287.271 47.3887C285.139 47.3887 283.68 48.2969 282.895 50.1133V64H279.643V44.9805H282.719Z" fill="#13EBF9"/>
<path d="M319.123 64.3516C316.545 64.3516 314.447 63.5078 312.83 61.8203C311.213 60.1211 310.404 57.8535 310.404 55.0176V54.4199C310.404 52.5332 310.762 50.8516 311.477 49.375C312.203 47.8867 313.211 46.7266 314.5 45.8945C315.801 45.0508 317.207 44.6289 318.719 44.6289C321.191 44.6289 323.113 45.4434 324.484 47.0723C325.855 48.7012 326.541 51.0332 326.541 54.0684V55.4219H313.656C313.703 57.2969 314.248 58.8145 315.291 59.9746C316.346 61.123 317.682 61.6973 319.299 61.6973C320.447 61.6973 321.42 61.4629 322.217 60.9941C323.014 60.5254 323.711 59.9043 324.309 59.1309L326.295 60.6777C324.701 63.127 322.311 64.3516 319.123 64.3516ZM318.719 47.3008C317.406 47.3008 316.305 47.7812 315.414 48.7422C314.523 49.6914 313.973 51.0273 313.762 52.75H323.289V52.5039C323.195 50.8516 322.75 49.5742 321.953 48.6719C321.156 47.7578 320.078 47.3008 318.719 47.3008Z" fill="#13EBF9"/>
</g>
<g id="Carlos">
<path d="M446.797 55.8789C446.48 58.5859 445.479 60.6777 443.791 62.1543C442.115 63.6191 439.883 64.3516 437.094 64.3516C434.07 64.3516 431.645 63.2676 429.816 61.0996C428 58.9316 427.092 56.0312 427.092 52.3984V49.9375C427.092 47.5586 427.514 45.4668 428.357 43.6621C429.213 41.8574 430.42 40.4746 431.979 39.5137C433.537 38.541 435.342 38.0547 437.393 38.0547C440.111 38.0547 442.291 38.8164 443.932 40.3398C445.572 41.8516 446.527 43.9492 446.797 46.6328H443.404C443.111 44.5938 442.473 43.1172 441.488 42.2031C440.516 41.2891 439.15 40.832 437.393 40.832C435.236 40.832 433.543 41.6289 432.312 43.2227C431.094 44.8164 430.484 47.084 430.484 50.0254V52.5039C430.484 55.2812 431.064 57.4902 432.225 59.1309C433.385 60.7715 435.008 61.5918 437.094 61.5918C438.969 61.5918 440.404 61.1699 441.4 60.3262C442.408 59.4707 443.076 57.9883 443.404 55.8789H446.797Z" fill="#13EBF9"/>
<path d="M462.652 64C462.465 63.625 462.312 62.957 462.195 61.9961C460.684 63.5664 458.879 64.3516 456.781 64.3516C454.906 64.3516 453.365 63.8242 452.158 62.7695C450.963 61.7031 450.365 60.3555 450.365 58.7266C450.365 56.7461 451.115 55.2109 452.615 54.1211C454.127 53.0195 456.248 52.4688 458.979 52.4688H462.143V50.9746C462.143 49.8379 461.803 48.9355 461.123 48.2676C460.443 47.5879 459.441 47.248 458.117 47.248C456.957 47.248 455.984 47.541 455.199 48.127C454.414 48.7129 454.021 49.4219 454.021 50.2539H450.752C450.752 49.3047 451.086 48.3906 451.754 47.5117C452.434 46.6211 453.348 45.918 454.496 45.4023C455.656 44.8867 456.928 44.6289 458.311 44.6289C460.502 44.6289 462.219 45.1797 463.461 46.2812C464.703 47.3711 465.348 48.877 465.395 50.7988V59.5527C465.395 61.2988 465.617 62.6875 466.062 63.7188V64H462.652ZM457.256 61.5215C458.275 61.5215 459.242 61.2578 460.156 60.7305C461.07 60.2031 461.732 59.5176 462.143 58.6738V54.7715H459.594C455.609 54.7715 453.617 55.9375 453.617 58.2695C453.617 59.2891 453.957 60.0859 454.637 60.6602C455.316 61.2344 456.189 61.5215 457.256 61.5215Z" fill="#13EBF9"/>
<path d="M479.686 47.8984C479.193 47.8164 478.66 47.7754 478.086 47.7754C475.953 47.7754 474.506 48.6836 473.744 50.5V64H470.492V44.9805H473.656L473.709 47.1777C474.775 45.4785 476.287 44.6289 478.244 44.6289C478.877 44.6289 479.357 44.7109 479.686 44.875V47.8984Z" fill="#13EBF9"/>
<path d="M486.225 64H482.973V37H486.225V64Z" fill="#13EBF9"/>
<path d="M490.584 54.3145C490.584 52.4512 490.947 50.7754 491.674 49.2871C492.412 47.7988 493.432 46.6504 494.732 45.8418C496.045 45.0332 497.539 44.6289 499.215 44.6289C501.805 44.6289 503.896 45.5254 505.49 47.3184C507.096 49.1113 507.898 51.4961 507.898 54.4727V54.7012C507.898 56.5527 507.541 58.2168 506.826 59.6934C506.123 61.1582 505.109 62.3008 503.785 63.1211C502.473 63.9414 500.961 64.3516 499.25 64.3516C496.672 64.3516 494.58 63.4551 492.975 61.6621C491.381 59.8691 490.584 57.4961 490.584 54.543V54.3145ZM493.854 54.7012C493.854 56.8105 494.34 58.5039 495.312 59.7812C496.297 61.0586 497.609 61.6973 499.25 61.6973C500.902 61.6973 502.215 61.0527 503.188 59.7637C504.16 58.4629 504.646 56.6465 504.646 54.3145C504.646 52.2285 504.148 50.541 503.152 49.252C502.168 47.9512 500.855 47.3008 499.215 47.3008C497.609 47.3008 496.314 47.9395 495.33 49.2168C494.346 50.4941 493.854 52.3223 493.854 54.7012Z" fill="#13EBF9"/>
<path d="M523.051 58.9551C523.051 58.0762 522.717 57.3965 522.049 56.916C521.393 56.4238 520.238 56.002 518.586 55.6504C516.945 55.2988 515.639 54.877 514.666 54.3848C513.705 53.8926 512.99 53.3066 512.521 52.627C512.064 51.9473 511.836 51.1387 511.836 50.2012C511.836 48.6426 512.492 47.3242 513.805 46.2461C515.129 45.168 516.816 44.6289 518.867 44.6289C521.023 44.6289 522.77 45.1855 524.105 46.2988C525.453 47.4121 526.127 48.8359 526.127 50.5703H522.857C522.857 49.6797 522.477 48.9121 521.715 48.2676C520.965 47.623 520.016 47.3008 518.867 47.3008C517.684 47.3008 516.758 47.5586 516.09 48.0742C515.422 48.5898 515.088 49.2637 515.088 50.0957C515.088 50.8809 515.398 51.4727 516.02 51.8711C516.641 52.2695 517.76 52.6504 519.377 53.0137C521.006 53.377 522.324 53.8105 523.332 54.3145C524.34 54.8184 525.084 55.4277 525.564 56.1426C526.057 56.8457 526.303 57.707 526.303 58.7266C526.303 60.4258 525.623 61.791 524.264 62.8223C522.904 63.8418 521.141 64.3516 518.973 64.3516C517.449 64.3516 516.102 64.082 514.93 63.543C513.758 63.0039 512.838 62.2539 512.17 61.293C511.514 60.3203 511.186 59.2715 511.186 58.1465H514.438C514.496 59.2363 514.93 60.1035 515.738 60.748C516.559 61.3809 517.637 61.6973 518.973 61.6973C520.203 61.6973 521.188 61.4512 521.926 60.959C522.676 60.4551 523.051 59.7871 523.051 58.9551Z" fill="#13EBF9"/>
</g>
<g id="Alberto">
<path d="M627.104 57.3203H616.381L613.973 64H610.492L620.266 38.4062H623.219L633.01 64H629.547L627.104 57.3203ZM617.4 54.543H626.102L621.742 42.5723L617.4 54.543Z" fill="#13EBF9"/>
<path d="M639.479 64H636.227V37H639.479V64Z" fill="#13EBF9"/>
<path d="M660.801 54.7012C660.801 57.6074 660.133 59.9453 658.797 61.7148C657.461 63.4727 655.668 64.3516 653.418 64.3516C651.016 64.3516 649.158 63.502 647.846 61.8027L647.688 64H644.699V37H647.951V47.0723C649.264 45.4434 651.074 44.6289 653.383 44.6289C655.691 44.6289 657.502 45.502 658.814 47.248C660.139 48.9941 660.801 51.3848 660.801 54.4199V54.7012ZM657.549 54.332C657.549 52.1172 657.121 50.4062 656.266 49.1992C655.41 47.9922 654.18 47.3887 652.574 47.3887C650.43 47.3887 648.889 48.3848 647.951 50.377V58.6035C648.947 60.5957 650.5 61.5918 652.609 61.5918C654.168 61.5918 655.381 60.9883 656.248 59.7812C657.115 58.5742 657.549 56.7578 657.549 54.332Z" fill="#13EBF9"/>
<path d="M672.807 64.3516C670.229 64.3516 668.131 63.5078 666.514 61.8203C664.896 60.1211 664.088 57.8535 664.088 55.0176V54.4199C664.088 52.5332 664.445 50.8516 665.16 49.375C665.887 47.8867 666.895 46.7266 668.184 45.8945C669.484 45.0508 670.891 44.6289 672.402 44.6289C674.875 44.6289 676.797 45.4434 678.168 47.0723C679.539 48.7012 680.225 51.0332 680.225 54.0684V55.4219H667.34C667.387 57.2969 667.932 58.8145 668.975 59.9746C670.029 61.123 671.365 61.6973 672.982 61.6973C674.131 61.6973 675.104 61.4629 675.9 60.9941C676.697 60.5254 677.395 59.9043 677.992 59.1309L679.979 60.6777C678.385 63.127 675.994 64.3516 672.807 64.3516ZM672.402 47.3008C671.09 47.3008 669.988 47.7812 669.098 48.7422C668.207 49.6914 667.656 51.0273 667.445 52.75H676.973V52.5039C676.879 50.8516 676.434 49.5742 675.637 48.6719C674.84 47.7578 673.762 47.3008 672.402 47.3008Z" fill="#13EBF9"/>
<path d="M693.197 47.8984C692.705 47.8164 692.172 47.7754 691.598 47.7754C689.465 47.7754 688.018 48.6836 687.256 50.5V64H684.004V44.9805H687.168L687.221 47.1777C688.287 45.4785 689.799 44.6289 691.756 44.6289C692.389 44.6289 692.869 44.7109 693.197 44.875V47.8984Z" fill="#13EBF9"/>
<path d="M701.494 40.375V44.9805H705.045V47.4941H701.494V59.2891C701.494 60.0508 701.652 60.625 701.969 61.0117C702.285 61.3867 702.824 61.5742 703.586 61.5742C703.961 61.5742 704.477 61.5039 705.133 61.3633V64C704.277 64.2344 703.445 64.3516 702.637 64.3516C701.184 64.3516 700.088 63.9121 699.35 63.0332C698.611 62.1543 698.242 60.9062 698.242 59.2891V47.4941H694.779V44.9805H698.242V40.375H701.494Z" fill="#13EBF9"/>
<path d="M707.646 54.3145C707.646 52.4512 708.01 50.7754 708.736 49.2871C709.475 47.7988 710.494 46.6504 711.795 45.8418C713.107 45.0332 714.602 44.6289 716.277 44.6289C718.867 44.6289 720.959 45.5254 722.553 47.3184C724.158 49.1113 724.961 51.4961 724.961 54.4727V54.7012C724.961 56.5527 724.604 58.2168 723.889 59.6934C723.186 61.1582 722.172 62.3008 720.848 63.1211C719.535 63.9414 718.023 64.3516 716.312 64.3516C713.734 64.3516 711.643 63.4551 710.037 61.6621C708.443 59.8691 707.646 57.4961 707.646 54.543V54.3145ZM710.916 54.7012C710.916 56.8105 711.402 58.5039 712.375 59.7812C713.359 61.0586 714.672 61.6973 716.312 61.6973C717.965 61.6973 719.277 61.0527 720.25 59.7637C721.223 58.4629 721.709 56.6465 721.709 54.3145C721.709 52.2285 721.211 50.541 720.215 49.252C719.23 47.9512 717.918 47.3008 716.277 47.3008C714.672 47.3008 713.377 47.9395 712.393 49.2168C711.408 50.4941 710.916 52.3223 710.916 54.7012Z" fill="#13EBF9"/>
</g>
<g id="Juan">
<path d="M821.693 38.4062H825.086V56.5293C825.086 58.9785 824.348 60.8945 822.871 62.2773C821.406 63.6602 819.449 64.3516 817 64.3516C814.457 64.3516 812.477 63.7012 811.059 62.4004C809.641 61.0996 808.932 59.2773 808.932 56.9336H812.307C812.307 58.3984 812.705 59.541 813.502 60.3613C814.311 61.1816 815.477 61.5918 817 61.5918C818.395 61.5918 819.52 61.1523 820.375 60.2734C821.242 59.3945 821.682 58.1641 821.693 56.582V38.4062Z" fill="#13EBF9"/>
<path d="M842.066 62.1191C840.801 63.6074 838.943 64.3516 836.494 64.3516C834.467 64.3516 832.92 63.7656 831.854 62.5938C830.799 61.4102 830.266 59.6641 830.254 57.3555V44.9805H833.506V57.2676C833.506 60.1504 834.678 61.5918 837.021 61.5918C839.506 61.5918 841.158 60.666 841.979 58.8145V44.9805H845.23V64H842.137L842.066 62.1191Z" fill="#13EBF9"/>
<path d="M861.93 64C861.742 63.625 861.59 62.957 861.473 61.9961C859.961 63.5664 858.156 64.3516 856.059 64.3516C854.184 64.3516 852.643 63.8242 851.436 62.7695C850.24 61.7031 849.643 60.3555 849.643 58.7266C849.643 56.7461 850.393 55.2109 851.893 54.1211C853.404 53.0195 855.525 52.4688 858.256 52.4688H861.42V50.9746C861.42 49.8379 861.08 48.9355 860.4 48.2676C859.721 47.5879 858.719 47.248 857.395 47.248C856.234 47.248 855.262 47.541 854.477 48.127C853.691 48.7129 853.299 49.4219 853.299 50.2539H850.029C850.029 49.3047 850.363 48.3906 851.031 47.5117C851.711 46.6211 852.625 45.918 853.773 45.4023C854.934 44.8867 856.205 44.6289 857.588 44.6289C859.779 44.6289 861.496 45.1797 862.738 46.2812C863.98 47.3711 864.625 48.877 864.672 50.7988V59.5527C864.672 61.2988 864.895 62.6875 865.34 63.7188V64H861.93ZM856.533 61.5215C857.553 61.5215 858.52 61.2578 859.434 60.7305C860.348 60.2031 861.01 59.5176 861.42 58.6738V54.7715H858.871C854.887 54.7715 852.895 55.9375 852.895 58.2695C852.895 59.2891 853.234 60.0859 853.914 60.6602C854.594 61.2344 855.467 61.5215 856.533 61.5215Z" fill="#13EBF9"/>
<path d="M872.846 44.9805L872.951 47.3711C874.404 45.543 876.303 44.6289 878.646 44.6289C882.666 44.6289 884.693 46.8965 884.729 51.4316V64H881.477V51.4141C881.465 50.043 881.148 49.0293 880.527 48.373C879.918 47.7168 878.963 47.3887 877.662 47.3887C876.607 47.3887 875.682 47.6699 874.885 48.2324C874.088 48.7949 873.467 49.5332 873.021 50.4473V64H869.77V44.9805H872.846Z" fill="#13EBF9"/>
</g>
<g id="1982">
<path d="M65.8145 160H62.5449V138.326L55.9883 140.734V137.781L65.3047 134.283H65.8145V160Z" fill="#13EBF9"/>
<path d="M87.8047 148.75C87.125 149.559 86.3105 150.209 85.3613 150.701C84.4238 151.193 83.3926 151.439 82.2676 151.439C80.791 151.439 79.502 151.076 78.4004 150.35C77.3105 149.623 76.4668 148.604 75.8691 147.291C75.2715 145.967 74.9727 144.508 74.9727 142.914C74.9727 141.203 75.2949 139.662 75.9395 138.291C76.5957 136.92 77.5215 135.871 78.7168 135.145C79.9121 134.418 81.3066 134.055 82.9004 134.055C85.4316 134.055 87.4238 135.004 88.877 136.902C90.3418 138.789 91.0742 141.367 91.0742 144.637V145.586C91.0742 150.566 90.0898 154.205 88.1211 156.502C86.1523 158.787 83.1816 159.959 79.209 160.018H78.5762V157.275H79.2617C81.9453 157.229 84.0078 156.531 85.4492 155.184C86.8906 153.824 87.6758 151.68 87.8047 148.75ZM82.7949 148.75C83.8848 148.75 84.8867 148.416 85.8008 147.748C86.7266 147.08 87.4004 146.254 87.8223 145.27V143.969C87.8223 141.836 87.3594 140.102 86.4336 138.766C85.5078 137.43 84.3359 136.762 82.918 136.762C81.4883 136.762 80.3398 137.312 79.4727 138.414C78.6055 139.504 78.1719 140.945 78.1719 142.738C78.1719 144.484 78.5879 145.926 79.4199 147.062C80.2637 148.188 81.3887 148.75 82.7949 148.75Z" fill="#13EBF9"/>
<path d="M111.078 141.086C111.078 142.363 110.738 143.5 110.059 144.496C109.391 145.492 108.482 146.271 107.334 146.834C108.67 147.408 109.725 148.246 110.498 149.348C111.283 150.449 111.676 151.697 111.676 153.092C111.676 155.307 110.926 157.07 109.426 158.383C107.938 159.695 105.975 160.352 103.537 160.352C101.076 160.352 99.1016 159.695 97.6133 158.383C96.1367 157.059 95.3984 155.295 95.3984 153.092C95.3984 151.709 95.7734 150.461 96.5234 149.348C97.2852 148.234 98.334 147.391 99.6699 146.816C98.5332 146.254 97.6367 145.475 96.9805 144.479C96.3242 143.482 95.9961 142.352 95.9961 141.086C95.9961 138.93 96.6875 137.219 98.0703 135.953C99.4531 134.688 101.275 134.055 103.537 134.055C105.787 134.055 107.604 134.688 108.986 135.953C110.381 137.219 111.078 138.93 111.078 141.086ZM108.424 153.021C108.424 151.592 107.967 150.426 107.053 149.523C106.15 148.621 104.967 148.17 103.502 148.17C102.037 148.17 100.859 148.615 99.9688 149.506C99.0898 150.396 98.6504 151.568 98.6504 153.021C98.6504 154.475 99.0781 155.617 99.9336 156.449C100.801 157.281 102.002 157.697 103.537 157.697C105.061 157.697 106.256 157.281 107.123 156.449C107.99 155.605 108.424 154.463 108.424 153.021ZM103.537 136.727C102.26 136.727 101.223 137.125 100.426 137.922C99.6406 138.707 99.248 139.779 99.248 141.139C99.248 142.439 99.6348 143.494 100.408 144.303C101.193 145.1 102.236 145.498 103.537 145.498C104.838 145.498 105.875 145.1 106.648 144.303C107.434 143.494 107.826 142.439 107.826 141.139C107.826 139.838 107.422 138.777 106.613 137.957C105.805 137.137 104.779 136.727 103.537 136.727Z" fill="#13EBF9"/>
<path d="M132.541 160H115.771V157.662L124.631 147.818C125.943 146.33 126.846 145.123 127.338 144.197C127.842 143.26 128.094 142.293 128.094 141.297C128.094 139.961 127.689 138.865 126.881 138.01C126.072 137.154 124.994 136.727 123.646 136.727C122.029 136.727 120.77 137.189 119.867 138.115C118.977 139.029 118.531 140.307 118.531 141.947H115.279C115.279 139.592 116.035 137.688 117.547 136.234C119.07 134.781 121.104 134.055 123.646 134.055C126.025 134.055 127.906 134.682 129.289 135.936C130.672 137.178 131.363 138.836 131.363 140.91C131.363 143.43 129.758 146.43 126.547 149.91L119.691 157.346H132.541V160Z" fill="#13EBF9"/>
</g>
<g id="1983">
<path d="M65.8145 262H62.5449V240.326L55.9883 242.734V239.781L65.3047 236.283H65.8145V262Z" fill="#13EBF9"/>
<path d="M87.8047 250.75C87.125 251.559 86.3105 252.209 85.3613 252.701C84.4238 253.193 83.3926 253.439 82.2676 253.439C80.791 253.439 79.502 253.076 78.4004 252.35C77.3105 251.623 76.4668 250.604 75.8691 249.291C75.2715 247.967 74.9727 246.508 74.9727 244.914C74.9727 243.203 75.2949 241.662 75.9395 240.291C76.5957 238.92 77.5215 237.871 78.7168 237.145C79.9121 236.418 81.3066 236.055 82.9004 236.055C85.4316 236.055 87.4238 237.004 88.877 238.902C90.3418 240.789 91.0742 243.367 91.0742 246.637V247.586C91.0742 252.566 90.0898 256.205 88.1211 258.502C86.1523 260.787 83.1816 261.959 79.209 262.018H78.5762V259.275H79.2617C81.9453 259.229 84.0078 258.531 85.4492 257.184C86.8906 255.824 87.6758 253.68 87.8047 250.75ZM82.7949 250.75C83.8848 250.75 84.8867 250.416 85.8008 249.748C86.7266 249.08 87.4004 248.254 87.8223 247.27V245.969C87.8223 243.836 87.3594 242.102 86.4336 240.766C85.5078 239.43 84.3359 238.762 82.918 238.762C81.4883 238.762 80.3398 239.312 79.4727 240.414C78.6055 241.504 78.1719 242.945 78.1719 244.738C78.1719 246.484 78.5879 247.926 79.4199 249.062C80.2637 250.188 81.3887 250.75 82.7949 250.75Z" fill="#13EBF9"/>
<path d="M111.078 243.086C111.078 244.363 110.738 245.5 110.059 246.496C109.391 247.492 108.482 248.271 107.334 248.834C108.67 249.408 109.725 250.246 110.498 251.348C111.283 252.449 111.676 253.697 111.676 255.092C111.676 257.307 110.926 259.07 109.426 260.383C107.938 261.695 105.975 262.352 103.537 262.352C101.076 262.352 99.1016 261.695 97.6133 260.383C96.1367 259.059 95.3984 257.295 95.3984 255.092C95.3984 253.709 95.7734 252.461 96.5234 251.348C97.2852 250.234 98.334 249.391 99.6699 248.816C98.5332 248.254 97.6367 247.475 96.9805 246.479C96.3242 245.482 95.9961 244.352 95.9961 243.086C95.9961 240.93 96.6875 239.219 98.0703 237.953C99.4531 236.688 101.275 236.055 103.537 236.055C105.787 236.055 107.604 236.688 108.986 237.953C110.381 239.219 111.078 240.93 111.078 243.086ZM108.424 255.021C108.424 253.592 107.967 252.426 107.053 251.523C106.15 250.621 104.967 250.17 103.502 250.17C102.037 250.17 100.859 250.615 99.9688 251.506C99.0898 252.396 98.6504 253.568 98.6504 255.021C98.6504 256.475 99.0781 257.617 99.9336 258.449C100.801 259.281 102.002 259.697 103.537 259.697C105.061 259.697 106.256 259.281 107.123 258.449C107.99 257.605 108.424 256.463 108.424 255.021ZM103.537 238.727C102.26 238.727 101.223 239.125 100.426 239.922C99.6406 240.707 99.248 241.779 99.248 243.139C99.248 244.439 99.6348 245.494 100.408 246.303C101.193 247.1 102.236 247.498 103.537 247.498C104.838 247.498 105.875 247.1 106.648 246.303C107.434 245.494 107.826 244.439 107.826 243.139C107.826 241.838 107.422 240.777 106.613 239.957C105.805 239.137 104.779 238.727 103.537 238.727Z" fill="#13EBF9"/>
<path d="M120.5 247.621H122.943C124.479 247.598 125.686 247.193 126.564 246.408C127.443 245.623 127.883 244.562 127.883 243.227C127.883 240.227 126.389 238.727 123.4 238.727C121.994 238.727 120.869 239.131 120.025 239.939C119.193 240.736 118.777 241.797 118.777 243.121H115.525C115.525 241.094 116.264 239.412 117.74 238.076C119.229 236.729 121.115 236.055 123.4 236.055C125.814 236.055 127.707 236.693 129.078 237.971C130.449 239.248 131.135 241.023 131.135 243.297C131.135 244.41 130.771 245.488 130.045 246.531C129.33 247.574 128.352 248.354 127.109 248.869C128.516 249.314 129.6 250.053 130.361 251.084C131.135 252.115 131.521 253.375 131.521 254.863C131.521 257.16 130.771 258.982 129.271 260.33C127.771 261.678 125.82 262.352 123.418 262.352C121.016 262.352 119.059 261.701 117.547 260.4C116.047 259.1 115.297 257.383 115.297 255.25H118.566C118.566 256.598 119.006 257.676 119.885 258.484C120.764 259.293 121.941 259.697 123.418 259.697C124.988 259.697 126.189 259.287 127.021 258.467C127.854 257.646 128.27 256.469 128.27 254.934C128.27 253.445 127.812 252.303 126.898 251.506C125.984 250.709 124.666 250.299 122.943 250.275H120.5V247.621Z" fill="#13EBF9"/>
</g>
<g id="1985">
<path d="M65.8145 364H62.5449V342.326L55.9883 344.734V341.781L65.3047 338.283H65.8145V364Z" fill="#13EBF9"/>
<path d="M87.8047 352.75C87.125 353.559 86.3105 354.209 85.3613 354.701C84.4238 355.193 83.3926 355.439 82.2676 355.439C80.791 355.439 79.502 355.076 78.4004 354.35C77.3105 353.623 76.4668 352.604 75.8691 351.291C75.2715 349.967 74.9727 348.508 74.9727 346.914C74.9727 345.203 75.2949 343.662 75.9395 342.291C76.5957 340.92 77.5215 339.871 78.7168 339.145C79.9121 338.418 81.3066 338.055 82.9004 338.055C85.4316 338.055 87.4238 339.004 88.877 340.902C90.3418 342.789 91.0742 345.367 91.0742 348.637V349.586C91.0742 354.566 90.0898 358.205 88.1211 360.502C86.1523 362.787 83.1816 363.959 79.209 364.018H78.5762V361.275H79.2617C81.9453 361.229 84.0078 360.531 85.4492 359.184C86.8906 357.824 87.6758 355.68 87.8047 352.75ZM82.7949 352.75C83.8848 352.75 84.8867 352.416 85.8008 351.748C86.7266 351.08 87.4004 350.254 87.8223 349.27V347.969C87.8223 345.836 87.3594 344.102 86.4336 342.766C85.5078 341.43 84.3359 340.762 82.918 340.762C81.4883 340.762 80.3398 341.312 79.4727 342.414C78.6055 343.504 78.1719 344.945 78.1719 346.738C78.1719 348.484 78.5879 349.926 79.4199 351.062C80.2637 352.188 81.3887 352.75 82.7949 352.75Z" fill="#13EBF9"/>
<path d="M111.078 345.086C111.078 346.363 110.738 347.5 110.059 348.496C109.391 349.492 108.482 350.271 107.334 350.834C108.67 351.408 109.725 352.246 110.498 353.348C111.283 354.449 111.676 355.697 111.676 357.092C111.676 359.307 110.926 361.07 109.426 362.383C107.938 363.695 105.975 364.352 103.537 364.352C101.076 364.352 99.1016 363.695 97.6133 362.383C96.1367 361.059 95.3984 359.295 95.3984 357.092C95.3984 355.709 95.7734 354.461 96.5234 353.348C97.2852 352.234 98.334 351.391 99.6699 350.816C98.5332 350.254 97.6367 349.475 96.9805 348.479C96.3242 347.482 95.9961 346.352 95.9961 345.086C95.9961 342.93 96.6875 341.219 98.0703 339.953C99.4531 338.688 101.275 338.055 103.537 338.055C105.787 338.055 107.604 338.688 108.986 339.953C110.381 341.219 111.078 342.93 111.078 345.086ZM108.424 357.021C108.424 355.592 107.967 354.426 107.053 353.523C106.15 352.621 104.967 352.17 103.502 352.17C102.037 352.17 100.859 352.615 99.9688 353.506C99.0898 354.396 98.6504 355.568 98.6504 357.021C98.6504 358.475 99.0781 359.617 99.9336 360.449C100.801 361.281 102.002 361.697 103.537 361.697C105.061 361.697 106.256 361.281 107.123 360.449C107.99 359.605 108.424 358.463 108.424 357.021ZM103.537 340.727C102.26 340.727 101.223 341.125 100.426 341.922C99.6406 342.707 99.248 343.779 99.248 345.139C99.248 346.439 99.6348 347.494 100.408 348.303C101.193 349.1 102.236 349.498 103.537 349.498C104.838 349.498 105.875 349.1 106.648 348.303C107.434 347.494 107.826 346.439 107.826 345.139C107.826 343.838 107.422 342.777 106.613 341.957C105.805 341.137 104.779 340.727 103.537 340.727Z" fill="#13EBF9"/>
<path d="M117.266 351.168L118.566 338.406H131.68V341.412H121.326L120.553 348.391C121.807 347.652 123.23 347.283 124.824 347.283C127.156 347.283 129.008 348.057 130.379 349.604C131.75 351.139 132.436 353.219 132.436 355.844C132.436 358.48 131.721 360.561 130.291 362.084C128.873 363.596 126.887 364.352 124.332 364.352C122.07 364.352 120.225 363.725 118.795 362.471C117.365 361.217 116.551 359.482 116.352 357.268H119.428C119.627 358.732 120.148 359.84 120.992 360.59C121.836 361.328 122.949 361.697 124.332 361.697C125.844 361.697 127.027 361.182 127.883 360.15C128.75 359.119 129.184 357.695 129.184 355.879C129.184 354.168 128.715 352.797 127.777 351.766C126.852 350.723 125.615 350.201 124.068 350.201C122.65 350.201 121.537 350.512 120.729 351.133L119.867 351.836L117.266 351.168Z" fill="#13EBF9"/>
</g>
<g id="1987">
<path d="M65.8145 466H62.5449V444.326L55.9883 446.734V443.781L65.3047 440.283H65.8145V466Z" fill="#13EBF9"/>
<path d="M87.8047 454.75C87.125 455.559 86.3105 456.209 85.3613 456.701C84.4238 457.193 83.3926 457.439 82.2676 457.439C80.791 457.439 79.502 457.076 78.4004 456.35C77.3105 455.623 76.4668 454.604 75.8691 453.291C75.2715 451.967 74.9727 450.508 74.9727 448.914C74.9727 447.203 75.2949 445.662 75.9395 444.291C76.5957 442.92 77.5215 441.871 78.7168 441.145C79.9121 440.418 81.3066 440.055 82.9004 440.055C85.4316 440.055 87.4238 441.004 88.877 442.902C90.3418 444.789 91.0742 447.367 91.0742 450.637V451.586C91.0742 456.566 90.0898 460.205 88.1211 462.502C86.1523 464.787 83.1816 465.959 79.209 466.018H78.5762V463.275H79.2617C81.9453 463.229 84.0078 462.531 85.4492 461.184C86.8906 459.824 87.6758 457.68 87.8047 454.75ZM82.7949 454.75C83.8848 454.75 84.8867 454.416 85.8008 453.748C86.7266 453.08 87.4004 452.254 87.8223 451.27V449.969C87.8223 447.836 87.3594 446.102 86.4336 444.766C85.5078 443.43 84.3359 442.762 82.918 442.762C81.4883 442.762 80.3398 443.312 79.4727 444.414C78.6055 445.504 78.1719 446.945 78.1719 448.738C78.1719 450.484 78.5879 451.926 79.4199 453.062C80.2637 454.188 81.3887 454.75 82.7949 454.75Z" fill="#13EBF9"/>
<path d="M111.078 447.086C111.078 448.363 110.738 449.5 110.059 450.496C109.391 451.492 108.482 452.271 107.334 452.834C108.67 453.408 109.725 454.246 110.498 455.348C111.283 456.449 111.676 457.697 111.676 459.092C111.676 461.307 110.926 463.07 109.426 464.383C107.938 465.695 105.975 466.352 103.537 466.352C101.076 466.352 99.1016 465.695 97.6133 464.383C96.1367 463.059 95.3984 461.295 95.3984 459.092C95.3984 457.709 95.7734 456.461 96.5234 455.348C97.2852 454.234 98.334 453.391 99.6699 452.816C98.5332 452.254 97.6367 451.475 96.9805 450.479C96.3242 449.482 95.9961 448.352 95.9961 447.086C95.9961 444.93 96.6875 443.219 98.0703 441.953C99.4531 440.688 101.275 440.055 103.537 440.055C105.787 440.055 107.604 440.688 108.986 441.953C110.381 443.219 111.078 444.93 111.078 447.086ZM108.424 459.021C108.424 457.592 107.967 456.426 107.053 455.523C106.15 454.621 104.967 454.17 103.502 454.17C102.037 454.17 100.859 454.615 99.9688 455.506C99.0898 456.396 98.6504 457.568 98.6504 459.021C98.6504 460.475 99.0781 461.617 99.9336 462.449C100.801 463.281 102.002 463.697 103.537 463.697C105.061 463.697 106.256 463.281 107.123 462.449C107.99 461.605 108.424 460.463 108.424 459.021ZM103.537 442.727C102.26 442.727 101.223 443.125 100.426 443.922C99.6406 444.707 99.248 445.779 99.248 447.139C99.248 448.439 99.6348 449.494 100.408 450.303C101.193 451.1 102.236 451.498 103.537 451.498C104.838 451.498 105.875 451.1 106.648 450.303C107.434 449.494 107.826 448.439 107.826 447.139C107.826 445.838 107.422 444.777 106.613 443.957C105.805 443.137 104.779 442.727 103.537 442.727Z" fill="#13EBF9"/>
<path d="M132.295 442.234L121.695 466H118.285L128.85 443.078H114.998V440.406H132.295V442.234Z" fill="#13EBF9"/>
</g>
</g>
<g id="Group 195">
<g id="Group 218">
<g id="Group 217">
<g id="Group 216">
<g id="Group 215">
<g id="Group 214">
<path id="Union" fill-rule="evenodd" clip-rule="evenodd" d="M259.268 433.732C258.291 432.756 256.709 432.756 255.732 433.732C254.756 434.709 254.756 436.291 255.732 437.268L269.283 450.819L256.095 464.523C255.138 465.518 255.168 467.101 256.163 468.058C257.158 469.015 258.741 468.985 259.698 467.99L272.82 454.355L286.205 467.741C287.181 468.717 288.764 468.717 289.741 467.741C290.717 466.764 290.717 465.181 289.741 464.205L276.287 450.752L289.231 437.301C290.188 436.306 290.158 434.724 289.163 433.766C288.168 432.809 286.586 432.839 285.628 433.834L272.751 447.215L259.268 433.732Z" fill="#FD0C0C"/>
<path id="Union_2" fill-rule="evenodd" clip-rule="evenodd" d="M834.268 433.732C833.291 432.756 831.709 432.756 830.732 433.732C829.756 434.709 829.756 436.291 830.732 437.268L844.283 450.819L831.095 464.523C830.138 465.518 830.168 467.101 831.163 468.058C832.158 469.015 833.741 468.985 834.698 467.99L847.82 454.355L861.205 467.741C862.181 468.717 863.764 468.717 864.741 467.741C865.717 466.764 865.717 465.181 864.741 464.205L851.287 450.752L864.231 437.301C865.188 436.306 865.158 434.724 864.163 433.766C863.168 432.809 861.586 432.839 860.628 433.834L847.751 447.215L834.268 433.732Z" fill="#FD0C0C"/>
</g>
<path id="Union_3" fill-rule="evenodd" clip-rule="evenodd" d="M667.967 139.446C669.042 138.579 669.211 137.005 668.344 135.931C667.477 134.856 665.903 134.687 664.828 135.554L641.421 154.431L642.515 142.947C642.646 141.573 641.638 140.353 640.263 140.222C638.889 140.091 637.668 141.099 637.537 142.473L636.011 158.496C635.911 159.55 636.481 160.513 637.371 160.964C638.244 162.009 639.796 162.165 640.859 161.307L667.967 139.446Z" fill="#2CF30B"/>
<path id="Union_4" fill-rule="evenodd" clip-rule="evenodd" d="M286.967 343.446C288.042 342.579 288.211 341.005 287.344 339.931C286.477 338.856 284.903 338.687 283.828 339.554L260.421 358.431L261.515 346.947C261.646 345.573 260.638 344.353 259.263 344.222C257.889 344.091 256.668 345.099 256.537 346.473L255.011 362.496C254.911 363.55 255.481 364.513 256.371 364.964C257.244 366.009 258.796 366.165 259.859 365.307L286.967 343.446Z" fill="#2CF30B"/>
</g>
<path id="Union_5" fill-rule="evenodd" clip-rule="evenodd" d="M259.268 232.732C258.291 231.756 256.709 231.756 255.732 232.732C254.756 233.709 254.756 235.291 255.732 236.268L269.283 249.819L256.095 263.523C255.138 264.518 255.168 266.101 256.163 267.058C257.158 268.015 258.741 267.985 259.698 266.99L272.82 253.355L286.205 266.741C287.181 267.717 288.764 267.717 289.741 266.741C290.717 265.764 290.717 264.181 289.741 263.205L276.287 249.752L289.231 236.301C290.188 235.306 290.158 233.724 289.163 232.766C288.168 231.809 286.586 231.839 285.628 232.834L272.751 246.215L259.268 232.732Z" fill="#FD0C0C"/>
<path id="Union_6" fill-rule="evenodd" clip-rule="evenodd" d="M257.268 124.732C256.291 123.756 254.709 123.756 253.732 124.732C252.756 125.709 252.756 127.291 253.732 128.268L267.283 141.819L254.095 155.523C253.138 156.518 253.168 158.101 254.163 159.058C255.158 160.015 256.741 159.985 257.698 158.99L270.82 145.355L284.205 158.741C285.181 159.717 286.764 159.717 287.741 158.741C288.717 157.764 288.717 156.181 287.741 155.205L274.287 141.752L287.231 128.301C288.188 127.306 288.158 125.724 287.163 124.766C286.168 123.809 284.586 123.839 283.628 124.834L270.751 138.215L257.268 124.732Z" fill="#FD0C0C"/>
<path id="Union_7" fill-rule="evenodd" clip-rule="evenodd" d="M463.268 331.732C462.291 330.756 460.709 330.756 459.732 331.732C458.756 332.709 458.756 334.291 459.732 335.268L473.283 348.819L460.095 362.523C459.138 363.518 459.168 365.101 460.163 366.058C461.158 367.015 462.741 366.985 463.698 365.99L476.82 352.355L490.205 365.741C491.181 366.717 492.764 366.717 493.741 365.741C494.717 364.764 494.717 363.181 493.741 362.205L480.287 348.752L493.231 335.301C494.188 334.306 494.158 332.724 493.163 331.766C492.168 330.809 490.586 330.839 489.628 331.834L476.751 345.215L463.268 331.732Z" fill="#FD0C0C"/>
<path id="Union_8" fill-rule="evenodd" clip-rule="evenodd" d="M655.268 328.732C654.291 327.756 652.709 327.756 651.732 328.732C650.756 329.709 650.756 331.291 651.732 332.268L665.283 345.819L652.095 359.523C651.138 360.518 651.168 362.101 652.163 363.058C653.158 364.015 654.741 363.985 655.698 362.99L668.82 349.355L682.205 362.741C683.181 363.717 684.764 363.717 685.741 362.741C686.717 361.764 686.717 360.181 685.741 359.205L672.287 345.752L685.231 332.301C686.188 331.306 686.158 329.724 685.163 328.766C684.168 327.809 682.586 327.839 681.628 328.834L668.751 342.215L655.268 328.732Z" fill="#FD0C0C"/>
<path id="Union_9" fill-rule="evenodd" clip-rule="evenodd" d="M834.268 321.732C833.291 320.756 831.709 320.756 830.732 321.732C829.756 322.709 829.756 324.291 830.732 325.268L844.283 338.819L831.095 352.523C830.138 353.518 830.168 355.101 831.163 356.058C832.158 357.015 833.741 356.985 834.698 355.99L847.82 342.355L861.205 355.741C862.181 356.717 863.764 356.717 864.741 355.741C865.717 354.764 865.717 353.181 864.741 352.205L851.287 338.752L864.231 325.301C865.188 324.306 865.158 322.724 864.163 321.766C863.168 320.809 861.586 320.839 860.628 321.834L847.751 335.215L834.268 321.732Z" fill="#FD0C0C"/>
</g>
<path id="Union_10" fill-rule="evenodd" clip-rule="evenodd" d="M655.268 229.732C654.291 228.756 652.709 228.756 651.732 229.732C650.756 230.709 650.756 232.291 651.732 233.268L665.283 246.819L652.095 260.523C651.138 261.518 651.168 263.101 652.163 264.058C653.158 265.015 654.741 264.985 655.698 263.99L668.82 250.355L682.205 263.741C683.181 264.717 684.764 264.717 685.741 263.741C686.717 262.764 686.717 261.181 685.741 260.205L672.287 246.752L685.231 233.301C686.188 232.306 686.158 230.724 685.163 229.766C684.168 228.809 682.586 228.839 681.628 229.834L668.751 243.215L655.268 229.732Z" fill="#FD0C0C"/>
<path id="Union_11" fill-rule="evenodd" clip-rule="evenodd" d="M655.268 430.732C654.291 429.756 652.709 429.756 651.732 430.732C650.756 431.709 650.756 433.291 651.732 434.268L665.283 447.819L652.095 461.523C651.138 462.518 651.168 464.101 652.163 465.058C653.158 466.015 654.741 465.985 655.698 464.99L668.82 451.355L682.205 464.741C683.181 465.717 684.764 465.717 685.741 464.741C686.717 463.764 686.717 462.181 685.741 461.205L672.287 447.752L685.231 434.301C686.188 433.306 686.158 431.724 685.163 430.766C684.168 429.809 682.586 429.839 681.628 430.834L668.751 444.215L655.268 430.732Z" fill="#FD0C0C"/>
<path id="Union_12" fill-rule="evenodd" clip-rule="evenodd" d="M463.268 130.732C462.291 129.756 460.709 129.756 459.732 130.732C458.756 131.709 458.756 133.291 459.732 134.268L473.283 147.819L460.095 161.523C459.138 162.518 459.168 164.101 460.163 165.058C461.158 166.015 462.741 165.985 463.698 164.99L476.82 151.355L490.205 164.741C491.181 165.717 492.764 165.717 493.741 164.741C494.717 163.764 494.717 162.181 493.741 161.205L480.287 147.752L493.231 134.301C494.188 133.306 494.158 131.724 493.163 130.766C492.168 129.809 490.586 129.839 489.628 130.834L476.751 144.215L463.268 130.732Z" fill="#FD0C0C"/>
<path id="Union_13" fill-rule="evenodd" clip-rule="evenodd" d="M843.268 130.732C842.291 129.756 840.709 129.756 839.732 130.732C838.756 131.709 838.756 133.291 839.732 134.268L853.283 147.819L840.095 161.523C839.138 162.518 839.168 164.101 840.163 165.058C841.158 166.015 842.741 165.985 843.698 164.99L856.82 151.355L870.205 164.741C871.181 165.717 872.764 165.717 873.741 164.741C874.717 163.764 874.717 162.181 873.741 161.205L860.287 147.752L873.231 134.301C874.188 133.306 874.158 131.724 873.163 130.766C872.168 129.809 870.586 129.839 869.628 130.834L856.751 144.215L843.268 130.732Z" fill="#FD0C0C"/>
</g>
<path id="Union_14" fill-rule="evenodd" clip-rule="evenodd" d="M490.967 452.446C492.042 451.579 492.211 450.005 491.344 448.931C490.477 447.856 488.903 447.687 487.828 448.554L464.421 467.431L465.515 455.947C465.646 454.573 464.638 453.353 463.263 453.222C461.889 453.091 460.668 454.099 460.537 455.473L459.011 471.496C458.911 472.55 459.481 473.513 460.371 473.964C461.244 475.009 462.796 475.165 463.859 474.307L490.967 452.446Z" fill="#2CF30B"/>
<path id="Union_15" fill-rule="evenodd" clip-rule="evenodd" d="M463.268 230.732C462.291 229.756 460.709 229.756 459.732 230.732C458.756 231.709 458.756 233.291 459.732 234.268L473.283 247.819L460.095 261.523C459.138 262.518 459.168 264.101 460.163 265.058C461.158 266.015 462.741 265.985 463.698 264.99L476.82 251.355L490.205 264.741C491.181 265.717 492.764 265.717 493.741 264.741C494.717 263.764 494.717 262.181 493.741 261.205L480.287 247.752L493.231 234.301C494.188 233.306 494.158 231.724 493.163 230.766C492.168 229.809 490.586 229.839 489.628 230.834L476.751 244.215L463.268 230.732Z" fill="#FD0C0C"/>
</g>
<path id="Union_16" fill-rule="evenodd" clip-rule="evenodd" d="M870.967 239.446C872.042 238.579 872.211 237.005 871.344 235.931C870.477 234.856 868.903 234.687 867.828 235.554L844.421 254.431L845.515 242.947C845.646 241.573 844.638 240.353 843.263 240.222C841.889 240.091 840.668 241.099 840.537 242.473L839.011 258.496C838.911 259.55 839.481 260.513 840.371 260.964C841.244 262.009 842.796 262.165 843.859 261.307L870.967 239.446Z" fill="#2CF30B"/>
</g>
</g>
</svg>
