<svg viewBox="0 0 769 408" fill="none" xmlns="http://www.w3.org/2000/svg">
<g id="0128211">
<g id="Group 119">
<g id="Group 113">
<path id="Ellipse 13" d="M437 189C437 257.483 381.483 313 313 313C244.517 313 189 257.483 189 189C189 120.517 244.517 65 313 65C381.483 65 437 120.517 437 189Z" fill="#BB7C42"/>
<path id="Ellipse 13 (Stroke)" fill-rule="evenodd" clip-rule="evenodd" d="M370.861 298.701C353.587 307.831 333.897 313 313 313C244.517 313 189 257.483 189 189C189 143.373 213.644 103.501 250.347 81.9695C251.783 81.1271 253.237 80.3127 254.71 79.5271C272.086 70.2555 291.929 65 313 65C381.483 65 437 120.517 437 189C437 234.801 412.168 274.802 375.233 296.276C373.794 297.112 372.336 297.921 370.861 298.701ZM377.992 300.456C416.279 278.082 442 236.545 442 189C442 117.755 384.245 60 313 60C241.755 60 184 117.755 184 189C184 260.245 241.755 318 313 318C334.844 318 355.42 312.571 373.452 302.988L375.232 304.768L378.768 301.232L377.992 300.456Z" fill="white"/>
<path id="Vector 1 (Stroke)" fill-rule="evenodd" clip-rule="evenodd" d="M442 190.5H185V187.5H442V190.5Z" fill="white"/>
<path id="Vector 2 (Stroke)" fill-rule="evenodd" clip-rule="evenodd" d="M249.688 299.273L372.688 77.2729L375.312 78.7269L252.312 300.727L249.688 299.273Z" fill="white"/>
<path id="Vector 3 (Stroke)" fill-rule="evenodd" clip-rule="evenodd" d="M373.189 301.729L249.189 78.7289L251.811 77.271L375.811 300.271L373.189 301.729Z" fill="white"/>
</g>
<g id="Group 117">
<g id="Group 116">
<g id="Pilar">
<path d="M443.346 118.98V129H439.971V103.406H449.41C452.211 103.406 454.402 104.121 455.984 105.551C457.578 106.98 458.375 108.873 458.375 111.229C458.375 113.713 457.596 115.629 456.037 116.977C454.49 118.312 452.27 118.98 449.375 118.98H443.346ZM443.346 116.221H449.41C451.215 116.221 452.598 115.799 453.559 114.955C454.52 114.1 455 112.869 455 111.264C455 109.74 454.52 108.521 453.559 107.607C452.598 106.693 451.279 106.219 449.604 106.184H443.346V116.221Z" fill="white"/>
<path d="M465.705 129H462.453V109.98H465.705V129ZM462.189 104.936C462.189 104.408 462.348 103.963 462.664 103.6C462.992 103.236 463.473 103.055 464.105 103.055C464.738 103.055 465.219 103.236 465.547 103.6C465.875 103.963 466.039 104.408 466.039 104.936C466.039 105.463 465.875 105.902 465.547 106.254C465.219 106.605 464.738 106.781 464.105 106.781C463.473 106.781 462.992 106.605 462.664 106.254C462.348 105.902 462.189 105.463 462.189 104.936Z" fill="white"/>
<path d="M474.459 129H471.207V102H474.459V129Z" fill="white"/>
<path d="M491.422 129C491.234 128.625 491.082 127.957 490.965 126.996C489.453 128.566 487.648 129.352 485.551 129.352C483.676 129.352 482.135 128.824 480.928 127.77C479.732 126.703 479.135 125.355 479.135 123.727C479.135 121.746 479.885 120.211 481.385 119.121C482.896 118.02 485.018 117.469 487.748 117.469H490.912V115.975C490.912 114.838 490.572 113.936 489.893 113.268C489.213 112.588 488.211 112.248 486.887 112.248C485.727 112.248 484.754 112.541 483.969 113.127C483.184 113.713 482.791 114.422 482.791 115.254H479.521C479.521 114.305 479.855 113.391 480.523 112.512C481.203 111.621 482.117 110.918 483.266 110.402C484.426 109.887 485.697 109.629 487.08 109.629C489.271 109.629 490.988 110.18 492.23 111.281C493.473 112.371 494.117 113.877 494.164 115.799V124.553C494.164 126.299 494.387 127.688 494.832 128.719V129H491.422ZM486.025 126.521C487.045 126.521 488.012 126.258 488.926 125.73C489.84 125.203 490.502 124.518 490.912 123.674V119.771H488.363C484.379 119.771 482.387 120.938 482.387 123.27C482.387 124.289 482.727 125.086 483.406 125.66C484.086 126.234 484.959 126.521 486.025 126.521Z" fill="white"/>
<path d="M508.455 112.898C507.963 112.816 507.43 112.775 506.855 112.775C504.723 112.775 503.275 113.684 502.514 115.5V129H499.262V109.98H502.426L502.479 112.178C503.545 110.479 505.057 109.629 507.014 109.629C507.646 109.629 508.127 109.711 508.455 109.875V112.898Z" fill="white"/>
</g>
<g id="Group 115">
<g id="Derecha-Diestra">
<path d="M392.971 53V27.4062H400.195C402.422 27.4062 404.391 27.8984 406.102 28.8828C407.812 29.8672 409.131 31.2676 410.057 33.084C410.994 34.9004 411.469 36.9863 411.48 39.3418V40.9766C411.48 43.3906 411.012 45.5059 410.074 47.3223C409.148 49.1387 407.818 50.5332 406.084 51.5059C404.361 52.4785 402.352 52.9766 400.055 53H392.971ZM396.346 30.1836V50.2402H399.896C402.498 50.2402 404.52 49.4316 405.961 47.8145C407.414 46.1973 408.141 43.8945 408.141 40.9062V39.4121C408.141 36.5059 407.455 34.25 406.084 32.6445C404.725 31.0273 402.791 30.207 400.283 30.1836H396.346Z" fill="#E79720"/>
<path d="M423.979 53.3516C421.4 53.3516 419.303 52.5078 417.686 50.8203C416.068 49.1211 415.26 46.8535 415.26 44.0176V43.4199C415.26 41.5332 415.617 39.8516 416.332 38.375C417.059 36.8867 418.066 35.7266 419.355 34.8945C420.656 34.0508 422.062 33.6289 423.574 33.6289C426.047 33.6289 427.969 34.4434 429.34 36.0723C430.711 37.7012 431.396 40.0332 431.396 43.0684V44.4219H418.512C418.559 46.2969 419.104 47.8145 420.146 48.9746C421.201 50.123 422.537 50.6973 424.154 50.6973C425.303 50.6973 426.275 50.4629 427.072 49.9941C427.869 49.5254 428.566 48.9043 429.164 48.1309L431.15 49.6777C429.557 52.127 427.166 53.3516 423.979 53.3516ZM423.574 36.3008C422.262 36.3008 421.16 36.7812 420.27 37.7422C419.379 38.6914 418.828 40.0273 418.617 41.75H428.145V41.5039C428.051 39.8516 427.605 38.5742 426.809 37.6719C426.012 36.7578 424.934 36.3008 423.574 36.3008Z" fill="#E79720"/>
<path d="M444.369 36.8984C443.877 36.8164 443.344 36.7754 442.77 36.7754C440.637 36.7754 439.189 37.6836 438.428 39.5V53H435.176V33.9805H438.34L438.393 36.1777C439.459 34.4785 440.971 33.6289 442.928 33.6289C443.561 33.6289 444.041 33.7109 444.369 33.875V36.8984Z" fill="#E79720"/>
<path d="M454.916 53.3516C452.338 53.3516 450.24 52.5078 448.623 50.8203C447.006 49.1211 446.197 46.8535 446.197 44.0176V43.4199C446.197 41.5332 446.555 39.8516 447.27 38.375C447.996 36.8867 449.004 35.7266 450.293 34.8945C451.594 34.0508 453 33.6289 454.512 33.6289C456.984 33.6289 458.906 34.4434 460.277 36.0723C461.648 37.7012 462.334 40.0332 462.334 43.0684V44.4219H449.449C449.496 46.2969 450.041 47.8145 451.084 48.9746C452.139 50.123 453.475 50.6973 455.092 50.6973C456.24 50.6973 457.213 50.4629 458.01 49.9941C458.807 49.5254 459.504 48.9043 460.102 48.1309L462.088 49.6777C460.494 52.127 458.104 53.3516 454.916 53.3516ZM454.512 36.3008C453.199 36.3008 452.098 36.7812 451.207 37.7422C450.316 38.6914 449.766 40.0273 449.555 41.75H459.082V41.5039C458.988 39.8516 458.543 38.5742 457.746 37.6719C456.949 36.7578 455.871 36.3008 454.512 36.3008Z" fill="#E79720"/>
<path d="M473.742 50.6973C474.902 50.6973 475.916 50.3457 476.783 49.6426C477.65 48.9395 478.131 48.0605 478.225 47.0059H481.301C481.242 48.0957 480.867 49.1328 480.176 50.1172C479.484 51.1016 478.559 51.8867 477.398 52.4727C476.25 53.0586 475.031 53.3516 473.742 53.3516C471.152 53.3516 469.09 52.4902 467.555 50.7676C466.031 49.0332 465.27 46.666 465.27 43.666V43.1211C465.27 41.2695 465.609 39.623 466.289 38.1816C466.969 36.7402 467.941 35.6211 469.207 34.8242C470.484 34.0273 471.99 33.6289 473.725 33.6289C475.857 33.6289 477.627 34.2676 479.033 35.5449C480.451 36.8223 481.207 38.4805 481.301 40.5195H478.225C478.131 39.2891 477.662 38.2812 476.818 37.4961C475.986 36.6992 474.955 36.3008 473.725 36.3008C472.072 36.3008 470.789 36.8984 469.875 38.0938C468.973 39.2773 468.521 40.9941 468.521 43.2441V43.8594C468.521 46.0508 468.973 47.7383 469.875 48.9219C470.777 50.1055 472.066 50.6973 473.742 50.6973Z" fill="#E79720"/>
<path d="M488.209 36.2832C489.65 34.5137 491.525 33.6289 493.834 33.6289C497.854 33.6289 499.881 35.8965 499.916 40.4316V53H496.664V40.4141C496.652 39.043 496.336 38.0293 495.715 37.373C495.105 36.7168 494.15 36.3887 492.85 36.3887C491.795 36.3887 490.869 36.6699 490.072 37.2324C489.275 37.7949 488.654 38.5332 488.209 39.4473V53H484.957V26H488.209V36.2832Z" fill="#E79720"/>
<path d="M516.527 53C516.34 52.625 516.188 51.957 516.07 50.9961C514.559 52.5664 512.754 53.3516 510.656 53.3516C508.781 53.3516 507.24 52.8242 506.033 51.7695C504.838 50.7031 504.24 49.3555 504.24 47.7266C504.24 45.7461 504.99 44.2109 506.49 43.1211C508.002 42.0195 510.123 41.4688 512.854 41.4688H516.018V39.9746C516.018 38.8379 515.678 37.9355 514.998 37.2676C514.318 36.5879 513.316 36.248 511.992 36.248C510.832 36.248 509.859 36.541 509.074 37.127C508.289 37.7129 507.896 38.4219 507.896 39.2539H504.627C504.627 38.3047 504.961 37.3906 505.629 36.5117C506.309 35.6211 507.223 34.918 508.371 34.4023C509.531 33.8867 510.803 33.6289 512.186 33.6289C514.377 33.6289 516.094 34.1797 517.336 35.2812C518.578 36.3711 519.223 37.877 519.27 39.7988V48.5527C519.27 50.2988 519.492 51.6875 519.938 52.7188V53H516.527ZM511.131 50.5215C512.15 50.5215 513.117 50.2578 514.031 49.7305C514.945 49.2031 515.607 48.5176 516.018 47.6738V43.7715H513.469C509.484 43.7715 507.492 44.9375 507.492 47.2695C507.492 48.2891 507.832 49.0859 508.512 49.6602C509.191 50.2344 510.064 50.5215 511.131 50.5215Z" fill="#E79720"/>
<path d="M531.135 43.4551H522.557V40.8008H531.135V43.4551Z" fill="#E79720"/>
<path d="M534.826 53V27.4062H542.051C544.277 27.4062 546.246 27.8984 547.957 28.8828C549.668 29.8672 550.986 31.2676 551.912 33.084C552.85 34.9004 553.324 36.9863 553.336 39.3418V40.9766C553.336 43.3906 552.867 45.5059 551.93 47.3223C551.004 49.1387 549.674 50.5332 547.939 51.5059C546.217 52.4785 544.207 52.9766 541.91 53H534.826ZM538.201 30.1836V50.2402H541.752C544.354 50.2402 546.375 49.4316 547.816 47.8145C549.27 46.1973 549.996 43.8945 549.996 40.9062V39.4121C549.996 36.5059 549.311 34.25 547.939 32.6445C546.58 31.0273 544.646 30.207 542.139 30.1836H538.201Z" fill="#E79720"/>
<path d="M561.475 53H558.223V33.9805H561.475V53ZM557.959 28.9355C557.959 28.4082 558.117 27.9629 558.434 27.5996C558.762 27.2363 559.242 27.0547 559.875 27.0547C560.508 27.0547 560.988 27.2363 561.316 27.5996C561.645 27.9629 561.809 28.4082 561.809 28.9355C561.809 29.4629 561.645 29.9023 561.316 30.2539C560.988 30.6055 560.508 30.7812 559.875 30.7812C559.242 30.7812 558.762 30.6055 558.434 30.2539C558.117 29.9023 557.959 29.4629 557.959 28.9355Z" fill="#E79720"/>
<path d="M574.588 53.3516C572.01 53.3516 569.912 52.5078 568.295 50.8203C566.678 49.1211 565.869 46.8535 565.869 44.0176V43.4199C565.869 41.5332 566.227 39.8516 566.941 38.375C567.668 36.8867 568.676 35.7266 569.965 34.8945C571.266 34.0508 572.672 33.6289 574.184 33.6289C576.656 33.6289 578.578 34.4434 579.949 36.0723C581.32 37.7012 582.006 40.0332 582.006 43.0684V44.4219H569.121C569.168 46.2969 569.713 47.8145 570.756 48.9746C571.811 50.123 573.146 50.6973 574.764 50.6973C575.912 50.6973 576.885 50.4629 577.682 49.9941C578.479 49.5254 579.176 48.9043 579.773 48.1309L581.76 49.6777C580.166 52.127 577.775 53.3516 574.588 53.3516ZM574.184 36.3008C572.871 36.3008 571.77 36.7812 570.879 37.7422C569.988 38.6914 569.438 40.0273 569.227 41.75H578.754V41.5039C578.66 39.8516 578.215 38.5742 577.418 37.6719C576.621 36.7578 575.543 36.3008 574.184 36.3008Z" fill="#E79720"/>
<path d="M596.859 47.9551C596.859 47.0762 596.525 46.3965 595.857 45.916C595.201 45.4238 594.047 45.002 592.395 44.6504C590.754 44.2988 589.447 43.877 588.475 43.3848C587.514 42.8926 586.799 42.3066 586.33 41.627C585.873 40.9473 585.645 40.1387 585.645 39.2012C585.645 37.6426 586.301 36.3242 587.613 35.2461C588.938 34.168 590.625 33.6289 592.676 33.6289C594.832 33.6289 596.578 34.1855 597.914 35.2988C599.262 36.4121 599.936 37.8359 599.936 39.5703H596.666C596.666 38.6797 596.285 37.9121 595.523 37.2676C594.773 36.623 593.824 36.3008 592.676 36.3008C591.492 36.3008 590.566 36.5586 589.898 37.0742C589.23 37.5898 588.896 38.2637 588.896 39.0957C588.896 39.8809 589.207 40.4727 589.828 40.8711C590.449 41.2695 591.568 41.6504 593.186 42.0137C594.814 42.377 596.133 42.8105 597.141 43.3145C598.148 43.8184 598.893 44.4277 599.373 45.1426C599.865 45.8457 600.111 46.707 600.111 47.7266C600.111 49.4258 599.432 50.791 598.072 51.8223C596.713 52.8418 594.949 53.3516 592.781 53.3516C591.258 53.3516 589.91 53.082 588.738 52.543C587.566 52.0039 586.646 51.2539 585.979 50.293C585.322 49.3203 584.994 48.2715 584.994 47.1465H588.246C588.305 48.2363 588.738 49.1035 589.547 49.748C590.367 50.3809 591.445 50.6973 592.781 50.6973C594.012 50.6973 594.996 50.4512 595.734 49.959C596.484 49.4551 596.859 48.7871 596.859 47.9551Z" fill="#E79720"/>
<path d="M608.76 29.375V33.9805H612.311V36.4941H608.76V48.2891C608.76 49.0508 608.918 49.625 609.234 50.0117C609.551 50.3867 610.09 50.5742 610.852 50.5742C611.227 50.5742 611.742 50.5039 612.398 50.3633V53C611.543 53.2344 610.711 53.3516 609.902 53.3516C608.449 53.3516 607.354 52.9121 606.615 52.0332C605.877 51.1543 605.508 49.9062 605.508 48.2891V36.4941H602.045V33.9805H605.508V29.375H608.76Z" fill="#E79720"/>
<path d="M625.318 36.8984C624.826 36.8164 624.293 36.7754 623.719 36.7754C621.586 36.7754 620.139 37.6836 619.377 39.5V53H616.125V33.9805H619.289L619.342 36.1777C620.408 34.4785 621.92 33.6289 623.877 33.6289C624.51 33.6289 624.99 33.7109 625.318 33.875V36.8984Z" fill="#E79720"/>
<path d="M639.363 53C639.176 52.625 639.023 51.957 638.906 50.9961C637.395 52.5664 635.59 53.3516 633.492 53.3516C631.617 53.3516 630.076 52.8242 628.869 51.7695C627.674 50.7031 627.076 49.3555 627.076 47.7266C627.076 45.7461 627.826 44.2109 629.326 43.1211C630.838 42.0195 632.959 41.4688 635.689 41.4688H638.854V39.9746C638.854 38.8379 638.514 37.9355 637.834 37.2676C637.154 36.5879 636.152 36.248 634.828 36.248C633.668 36.248 632.695 36.541 631.91 37.127C631.125 37.7129 630.732 38.4219 630.732 39.2539H627.463C627.463 38.3047 627.797 37.3906 628.465 36.5117C629.145 35.6211 630.059 34.918 631.207 34.4023C632.367 33.8867 633.639 33.6289 635.021 33.6289C637.213 33.6289 638.93 34.1797 640.172 35.2812C641.414 36.3711 642.059 37.877 642.105 39.7988V48.5527C642.105 50.2988 642.328 51.6875 642.773 52.7188V53H639.363ZM633.967 50.5215C634.986 50.5215 635.953 50.2578 636.867 49.7305C637.781 49.2031 638.443 48.5176 638.854 47.6738V43.7715H636.305C632.32 43.7715 630.328 44.9375 630.328 47.2695C630.328 48.2891 630.668 49.0859 631.348 49.6602C632.027 50.2344 632.9 50.5215 633.967 50.5215Z" fill="#E79720"/>
</g>
<path id="Arrow 3 (Stroke)" fill-rule="evenodd" clip-rule="evenodd" d="M329.334 44.1056C328.723 43.1851 328.974 41.9439 329.895 41.3334L344.895 31.3837C345.815 30.7732 347.057 31.0244 347.667 31.9449C348.278 32.8654 348.026 34.1065 347.106 34.7171L336.096 42.0197C352.277 45.4993 365.221 49.4534 377.689 55.5809C391.338 62.289 404.317 71.5536 420.314 85.4921L417.686 88.508C401.83 74.6921 389.145 65.6683 375.925 59.1708C363.879 53.2507 351.309 49.3877 335.359 45.9525L342.617 56.8947C343.227 57.8152 342.976 59.0563 342.055 59.6669C341.135 60.2775 339.894 60.0262 339.283 59.1057L329.334 44.1056Z" fill="#E79720"/>
</g>
<g id="Group 114">
<g id="Izquierda-Siniestra">
<path d="M480.591 201H477.216V175.406H480.591V201Z" fill="#E79720"/>
<path d="M489.328 198.346H500.455V201H485.355V198.609L495.849 184.67H485.513V181.98H499.927V184.283L489.328 198.346Z" fill="#E79720"/>
<path d="M503.056 191.332C503.056 188.344 503.742 185.982 505.113 184.248C506.484 182.502 508.324 181.629 510.632 181.629C512.882 181.629 514.658 182.385 515.958 183.896L516.099 181.98H519.087V208.312H515.835V199.242C514.523 200.648 512.777 201.352 510.597 201.352C508.3 201.352 506.466 200.461 505.095 198.68C503.736 196.887 503.056 194.514 503.056 191.561V191.332ZM506.308 191.701C506.308 193.881 506.765 195.592 507.679 196.834C508.605 198.076 509.847 198.697 511.406 198.697C513.339 198.697 514.816 197.842 515.835 196.131V186.814C514.804 185.139 513.339 184.301 511.441 184.301C509.871 184.301 508.623 184.928 507.697 186.182C506.771 187.424 506.308 189.264 506.308 191.701Z" fill="#E79720"/>
<path d="M536.05 199.119C534.785 200.607 532.927 201.352 530.478 201.352C528.451 201.352 526.904 200.766 525.837 199.594C524.783 198.41 524.25 196.664 524.238 194.355V181.98H527.49V194.268C527.49 197.15 528.662 198.592 531.005 198.592C533.49 198.592 535.142 197.666 535.962 195.814V181.98H539.214V201H536.121L536.05 199.119Z" fill="#E79720"/>
<path d="M547.705 201H544.453V181.98H547.705V201ZM544.189 176.936C544.189 176.408 544.347 175.963 544.664 175.6C544.992 175.236 545.472 175.055 546.105 175.055C546.738 175.055 547.218 175.236 547.546 175.6C547.875 175.963 548.039 176.408 548.039 176.936C548.039 177.463 547.875 177.902 547.546 178.254C547.218 178.605 546.738 178.781 546.105 178.781C545.472 178.781 544.992 178.605 544.664 178.254C544.347 177.902 544.189 177.463 544.189 176.936Z" fill="#E79720"/>
<path d="M560.818 201.352C558.24 201.352 556.142 200.508 554.525 198.82C552.908 197.121 552.099 194.854 552.099 192.018V191.42C552.099 189.533 552.457 187.852 553.171 186.375C553.898 184.887 554.906 183.727 556.195 182.895C557.496 182.051 558.902 181.629 560.414 181.629C562.886 181.629 564.808 182.443 566.179 184.072C567.55 185.701 568.236 188.033 568.236 191.068V192.422H555.351C555.398 194.297 555.943 195.814 556.986 196.975C558.041 198.123 559.376 198.697 560.994 198.697C562.142 198.697 563.115 198.463 563.912 197.994C564.708 197.525 565.406 196.904 566.003 196.131L567.99 197.678C566.396 200.127 564.005 201.352 560.818 201.352ZM560.414 184.301C559.101 184.301 558 184.781 557.109 185.742C556.218 186.691 555.667 188.027 555.457 189.75H564.984V189.504C564.89 187.852 564.445 186.574 563.648 185.672C562.851 184.758 561.773 184.301 560.414 184.301Z" fill="#E79720"/>
<path d="M581.208 184.898C580.716 184.816 580.183 184.775 579.609 184.775C577.476 184.775 576.029 185.684 575.267 187.5V201H572.015V181.98H575.179L575.232 184.178C576.298 182.479 577.81 181.629 579.767 181.629C580.4 181.629 580.88 181.711 581.208 181.875V184.898Z" fill="#E79720"/>
<path d="M583.072 191.332C583.072 188.414 583.763 186.07 585.146 184.301C586.529 182.52 588.339 181.629 590.578 181.629C592.804 181.629 594.568 182.391 595.869 183.914V174H599.121V201H596.132L595.974 198.961C594.673 200.555 592.863 201.352 590.542 201.352C588.339 201.352 586.541 200.449 585.146 198.645C583.763 196.84 583.072 194.484 583.072 191.578V191.332ZM586.324 191.701C586.324 193.857 586.769 195.545 587.66 196.764C588.55 197.982 589.781 198.592 591.351 198.592C593.414 198.592 594.919 197.666 595.869 195.814V187.078C594.896 185.285 593.402 184.389 591.386 184.389C589.792 184.389 588.55 185.004 587.66 186.234C586.769 187.465 586.324 189.287 586.324 191.701Z" fill="#E79720"/>
<path d="M615.925 201C615.738 200.625 615.585 199.957 615.468 198.996C613.957 200.566 612.152 201.352 610.054 201.352C608.179 201.352 606.638 200.824 605.431 199.77C604.236 198.703 603.638 197.355 603.638 195.727C603.638 193.746 604.388 192.211 605.888 191.121C607.4 190.02 609.521 189.469 612.251 189.469H615.416V187.975C615.416 186.838 615.076 185.936 614.396 185.268C613.716 184.588 612.714 184.248 611.39 184.248C610.23 184.248 609.257 184.541 608.472 185.127C607.687 185.713 607.294 186.422 607.294 187.254H604.025C604.025 186.305 604.359 185.391 605.027 184.512C605.707 183.621 606.621 182.918 607.769 182.402C608.929 181.887 610.201 181.629 611.583 181.629C613.775 181.629 615.492 182.18 616.734 183.281C617.976 184.371 618.621 185.877 618.667 187.799V196.553C618.667 198.299 618.89 199.688 619.335 200.719V201H615.925ZM610.529 198.521C611.548 198.521 612.515 198.258 613.429 197.73C614.343 197.203 615.005 196.518 615.416 195.674V191.771H612.867C608.882 191.771 606.89 192.938 606.89 195.27C606.89 196.289 607.23 197.086 607.91 197.66C608.589 198.234 609.462 198.521 610.529 198.521Z" fill="#E79720"/>
<path d="M630.533 191.455H621.955V188.801H630.533V191.455Z" fill="#E79720"/>
<path d="M641.765 189.592C638.871 188.76 636.761 187.74 635.437 186.533C634.125 185.314 633.468 183.814 633.468 182.033C633.468 180.018 634.271 178.354 635.876 177.041C637.494 175.717 639.591 175.055 642.169 175.055C643.927 175.055 645.492 175.395 646.863 176.074C648.246 176.754 649.312 177.691 650.062 178.887C650.824 180.082 651.205 181.389 651.205 182.807H647.812C647.812 181.26 647.32 180.047 646.335 179.168C645.351 178.277 643.962 177.832 642.169 177.832C640.505 177.832 639.205 178.201 638.267 178.939C637.341 179.666 636.878 180.68 636.878 181.98C636.878 183.023 637.318 183.908 638.197 184.635C639.087 185.35 640.593 186.006 642.714 186.604C644.847 187.201 646.511 187.863 647.707 188.59C648.914 189.305 649.804 190.143 650.378 191.104C650.964 192.064 651.257 193.195 651.257 194.496C651.257 196.57 650.449 198.234 648.832 199.488C647.214 200.73 645.052 201.352 642.345 201.352C640.587 201.352 638.947 201.018 637.423 200.35C635.9 199.67 634.722 198.744 633.89 197.572C633.07 196.4 632.66 195.07 632.66 193.582H636.052C636.052 195.129 636.621 196.354 637.757 197.256C638.906 198.146 640.435 198.592 642.345 198.592C644.126 198.592 645.492 198.229 646.441 197.502C647.39 196.775 647.865 195.785 647.865 194.531C647.865 193.277 647.425 192.311 646.546 191.631C645.667 190.939 644.074 190.26 641.765 189.592Z" fill="#E79720"/>
<path d="M658.623 201H655.371V181.98H658.623V201ZM655.107 176.936C655.107 176.408 655.265 175.963 655.582 175.6C655.91 175.236 656.39 175.055 657.023 175.055C657.656 175.055 658.136 175.236 658.464 175.6C658.792 175.963 658.957 176.408 658.957 176.936C658.957 177.463 658.792 177.902 658.464 178.254C658.136 178.605 657.656 178.781 657.023 178.781C656.39 178.781 655.91 178.605 655.582 178.254C655.265 177.902 655.107 177.463 655.107 176.936Z" fill="#E79720"/>
<path d="M666.919 181.98L667.025 184.371C668.478 182.543 670.376 181.629 672.72 181.629C676.74 181.629 678.767 183.896 678.802 188.432V201H675.55V188.414C675.539 187.043 675.222 186.029 674.601 185.373C673.992 184.717 673.037 184.389 671.736 184.389C670.681 184.389 669.755 184.67 668.958 185.232C668.162 185.795 667.541 186.533 667.095 187.447V201H663.843V181.98H666.919Z" fill="#E79720"/>
<path d="M687.24 201H683.988V181.98H687.24V201ZM683.724 176.936C683.724 176.408 683.882 175.963 684.199 175.6C684.527 175.236 685.007 175.055 685.64 175.055C686.273 175.055 686.753 175.236 687.082 175.6C687.41 175.963 687.574 176.408 687.574 176.936C687.574 177.463 687.41 177.902 687.082 178.254C686.753 178.605 686.273 178.781 685.64 178.781C685.007 178.781 684.527 178.605 684.199 178.254C683.882 177.902 683.724 177.463 683.724 176.936Z" fill="#E79720"/>
<path d="M700.353 201.352C697.775 201.352 695.677 200.508 694.06 198.82C692.443 197.121 691.634 194.854 691.634 192.018V191.42C691.634 189.533 691.992 187.852 692.707 186.375C693.433 184.887 694.441 183.727 695.73 182.895C697.031 182.051 698.437 181.629 699.949 181.629C702.421 181.629 704.343 182.443 705.714 184.072C707.085 185.701 707.771 188.033 707.771 191.068V192.422H694.886C694.933 194.297 695.478 195.814 696.521 196.975C697.576 198.123 698.912 198.697 700.529 198.697C701.677 198.697 702.65 198.463 703.447 197.994C704.244 197.525 704.941 196.904 705.539 196.131L707.525 197.678C705.931 200.127 703.541 201.352 700.353 201.352ZM699.949 184.301C698.636 184.301 697.535 184.781 696.644 185.742C695.753 186.691 695.203 188.027 694.992 189.75H704.519V189.504C704.425 187.852 703.98 186.574 703.183 185.672C702.386 184.758 701.308 184.301 699.949 184.301Z" fill="#E79720"/>
<path d="M722.625 195.955C722.625 195.076 722.291 194.396 721.623 193.916C720.966 193.424 719.812 193.002 718.16 192.65C716.519 192.299 715.212 191.877 714.24 191.385C713.279 190.893 712.564 190.307 712.095 189.627C711.638 188.947 711.41 188.139 711.41 187.201C711.41 185.643 712.066 184.324 713.378 183.246C714.703 182.168 716.39 181.629 718.441 181.629C720.597 181.629 722.343 182.186 723.679 183.299C725.027 184.412 725.701 185.836 725.701 187.57H722.431C722.431 186.68 722.05 185.912 721.289 185.268C720.539 184.623 719.589 184.301 718.441 184.301C717.257 184.301 716.332 184.559 715.664 185.074C714.996 185.59 714.662 186.264 714.662 187.096C714.662 187.881 714.972 188.473 715.593 188.871C716.214 189.27 717.333 189.65 718.951 190.014C720.58 190.377 721.898 190.811 722.906 191.314C723.914 191.818 724.658 192.428 725.138 193.143C725.63 193.846 725.876 194.707 725.876 195.727C725.876 197.426 725.197 198.791 723.837 199.822C722.478 200.842 720.714 201.352 718.546 201.352C717.023 201.352 715.675 201.082 714.503 200.543C713.332 200.004 712.412 199.254 711.744 198.293C711.087 197.32 710.759 196.271 710.759 195.146H714.011C714.07 196.236 714.503 197.104 715.312 197.748C716.132 198.381 717.21 198.697 718.546 198.697C719.777 198.697 720.761 198.451 721.5 197.959C722.25 197.455 722.625 196.787 722.625 195.955Z" fill="#E79720"/>
<path d="M734.525 177.375V181.98H738.076V184.494H734.525V196.289C734.525 197.051 734.683 197.625 735 198.012C735.316 198.387 735.855 198.574 736.617 198.574C736.992 198.574 737.507 198.504 738.164 198.363V201C737.308 201.234 736.476 201.352 735.667 201.352C734.214 201.352 733.119 200.912 732.38 200.033C731.642 199.154 731.273 197.906 731.273 196.289V184.494H727.81V181.98H731.273V177.375H734.525Z" fill="#E79720"/>
<path d="M751.083 184.898C750.591 184.816 750.058 184.775 749.484 184.775C747.351 184.775 745.904 185.684 745.142 187.5V201H741.89V181.98H745.054L745.107 184.178C746.173 182.479 747.685 181.629 749.642 181.629C750.275 181.629 750.755 181.711 751.083 181.875V184.898Z" fill="#E79720"/>
<path d="M765.128 201C764.941 200.625 764.789 199.957 764.671 198.996C763.16 200.566 761.355 201.352 759.257 201.352C757.382 201.352 755.841 200.824 754.634 199.77C753.439 198.703 752.841 197.355 752.841 195.727C752.841 193.746 753.591 192.211 755.091 191.121C756.603 190.02 758.724 189.469 761.455 189.469H764.619V187.975C764.619 186.838 764.279 185.936 763.599 185.268C762.919 184.588 761.917 184.248 760.593 184.248C759.433 184.248 758.46 184.541 757.675 185.127C756.89 185.713 756.498 186.422 756.498 187.254H753.228C753.228 186.305 753.562 185.391 754.23 184.512C754.91 183.621 755.824 182.918 756.972 182.402C758.132 181.887 759.404 181.629 760.787 181.629C762.978 181.629 764.695 182.18 765.937 183.281C767.179 184.371 767.824 185.877 767.871 187.799V196.553C767.871 198.299 768.093 199.688 768.539 200.719V201H765.128ZM759.732 198.521C760.751 198.521 761.718 198.258 762.632 197.73C763.546 197.203 764.208 196.518 764.619 195.674V191.771H762.07C758.085 191.771 756.093 192.938 756.093 195.27C756.093 196.289 756.433 197.086 757.113 197.66C757.792 198.234 758.666 198.521 759.732 198.521Z" fill="#E79720"/>
</g>
<path id="Arrow 4 (Stroke)" fill-rule="evenodd" clip-rule="evenodd" d="M452.004 247.73C451.049 248.284 449.825 247.959 449.27 247.004L440.233 231.437C439.678 230.482 440.003 229.258 440.958 228.704C441.914 228.149 443.138 228.474 443.692 229.429L450.291 240.796C454.719 223.533 457.325 209.691 457.884 195.898C458.493 180.897 456.685 165.857 452.055 146.464L455.945 145.536C460.632 165.167 462.509 180.588 461.881 196.061C461.304 210.271 458.618 224.443 454.148 241.86L465.563 235.233C466.518 234.678 467.742 235.003 468.296 235.959C468.851 236.914 468.526 238.138 467.571 238.692L452.004 247.73Z" fill="#E79720"/>
</g>
</g>
<g id="Mari">
<path d="M275.33 0.40625L283.697 21.2891L292.064 0.40625H296.441V26H293.066V16.0332L293.383 5.27539L284.98 26H282.396L274.012 5.32812L274.346 16.0332V26H270.971V0.40625H275.33Z" fill="white"/>
<path d="M313.633 26C313.445 25.625 313.293 24.957 313.176 23.9961C311.664 25.5664 309.859 26.3516 307.762 26.3516C305.887 26.3516 304.346 25.8242 303.139 24.7695C301.943 23.7031 301.346 22.3555 301.346 20.7266C301.346 18.7461 302.096 17.2109 303.596 16.1211C305.107 15.0195 307.229 14.4688 309.959 14.4688H313.123V12.9746C313.123 11.8379 312.783 10.9355 312.104 10.2676C311.424 9.58789 310.422 9.24805 309.098 9.24805C307.938 9.24805 306.965 9.54102 306.18 10.127C305.395 10.7129 305.002 11.4219 305.002 12.2539H301.732C301.732 11.3047 302.066 10.3906 302.734 9.51172C303.414 8.62109 304.328 7.91797 305.477 7.40234C306.637 6.88672 307.908 6.62891 309.291 6.62891C311.482 6.62891 313.199 7.17969 314.441 8.28125C315.684 9.37109 316.328 10.877 316.375 12.7988V21.5527C316.375 23.2988 316.598 24.6875 317.043 25.7188V26H313.633ZM308.236 23.5215C309.256 23.5215 310.223 23.2578 311.137 22.7305C312.051 22.2031 312.713 21.5176 313.123 20.6738V16.7715H310.574C306.59 16.7715 304.598 17.9375 304.598 20.2695C304.598 21.2891 304.938 22.0859 305.617 22.6602C306.297 23.2344 307.17 23.5215 308.236 23.5215Z" fill="white"/>
<path d="M330.666 9.89844C330.174 9.81641 329.641 9.77539 329.066 9.77539C326.934 9.77539 325.486 10.6836 324.725 12.5V26H321.473V6.98047H324.637L324.689 9.17773C325.756 7.47852 327.268 6.62891 329.225 6.62891C329.857 6.62891 330.338 6.71094 330.666 6.875V9.89844Z" fill="white"/>
<path d="M337.205 26H333.953V6.98047H337.205V26ZM333.689 1.93555C333.689 1.4082 333.848 0.962891 334.164 0.599609C334.492 0.236328 334.973 0.0546875 335.605 0.0546875C336.238 0.0546875 336.719 0.236328 337.047 0.599609C337.375 0.962891 337.539 1.4082 337.539 1.93555C337.539 2.46289 337.375 2.90234 337.047 3.25391C336.719 3.60547 336.238 3.78125 335.605 3.78125C334.973 3.78125 334.492 3.60547 334.164 3.25391C333.848 2.90234 333.689 2.46289 333.689 1.93555Z" fill="white"/>
</g>
<g id="Nadia">
<path d="M297.641 370H294.248L281.363 350.277V370H277.971V344.406H281.363L294.283 364.217V344.406H297.641V370Z" fill="white"/>
<path d="M314.867 370C314.68 369.625 314.527 368.957 314.41 367.996C312.898 369.566 311.094 370.352 308.996 370.352C307.121 370.352 305.58 369.824 304.373 368.77C303.178 367.703 302.58 366.355 302.58 364.727C302.58 362.746 303.33 361.211 304.83 360.121C306.342 359.02 308.463 358.469 311.193 358.469H314.357V356.975C314.357 355.838 314.018 354.936 313.338 354.268C312.658 353.588 311.656 353.248 310.332 353.248C309.172 353.248 308.199 353.541 307.414 354.127C306.629 354.713 306.236 355.422 306.236 356.254H302.967C302.967 355.305 303.301 354.391 303.969 353.512C304.648 352.621 305.562 351.918 306.711 351.402C307.871 350.887 309.143 350.629 310.525 350.629C312.717 350.629 314.434 351.18 315.676 352.281C316.918 353.371 317.562 354.877 317.609 356.799V365.553C317.609 367.299 317.832 368.688 318.277 369.719V370H314.867ZM309.471 367.521C310.49 367.521 311.457 367.258 312.371 366.73C313.285 366.203 313.947 365.518 314.357 364.674V360.771H311.809C307.824 360.771 305.832 361.938 305.832 364.27C305.832 365.289 306.172 366.086 306.852 366.66C307.531 367.234 308.404 367.521 309.471 367.521Z" fill="white"/>
<path d="M321.916 360.332C321.916 357.414 322.607 355.07 323.99 353.301C325.373 351.52 327.184 350.629 329.422 350.629C331.648 350.629 333.412 351.391 334.713 352.914V343H337.965V370H334.977L334.818 367.961C333.518 369.555 331.707 370.352 329.387 370.352C327.184 370.352 325.385 369.449 323.99 367.645C322.607 365.84 321.916 363.484 321.916 360.578V360.332ZM325.168 360.701C325.168 362.857 325.613 364.545 326.504 365.764C327.395 366.982 328.625 367.592 330.195 367.592C332.258 367.592 333.764 366.666 334.713 364.814V356.078C333.74 354.285 332.246 353.389 330.23 353.389C328.637 353.389 327.395 354.004 326.504 355.234C325.613 356.465 325.168 358.287 325.168 360.701Z" fill="white"/>
<path d="M346.561 370H343.309V350.98H346.561V370ZM343.045 345.936C343.045 345.408 343.203 344.963 343.52 344.6C343.848 344.236 344.328 344.055 344.961 344.055C345.594 344.055 346.074 344.236 346.402 344.6C346.73 344.963 346.895 345.408 346.895 345.936C346.895 346.463 346.73 346.902 346.402 347.254C346.074 347.605 345.594 347.781 344.961 347.781C344.328 347.781 343.848 347.605 343.52 347.254C343.203 346.902 343.045 346.463 343.045 345.936Z" fill="white"/>
<path d="M363.523 370C363.336 369.625 363.184 368.957 363.066 367.996C361.555 369.566 359.75 370.352 357.652 370.352C355.777 370.352 354.236 369.824 353.029 368.77C351.834 367.703 351.236 366.355 351.236 364.727C351.236 362.746 351.986 361.211 353.486 360.121C354.998 359.02 357.119 358.469 359.85 358.469H363.014V356.975C363.014 355.838 362.674 354.936 361.994 354.268C361.314 353.588 360.312 353.248 358.988 353.248C357.828 353.248 356.855 353.541 356.07 354.127C355.285 354.713 354.893 355.422 354.893 356.254H351.623C351.623 355.305 351.957 354.391 352.625 353.512C353.305 352.621 354.219 351.918 355.367 351.402C356.527 350.887 357.799 350.629 359.182 350.629C361.373 350.629 363.09 351.18 364.332 352.281C365.574 353.371 366.219 354.877 366.266 356.799V365.553C366.266 367.299 366.488 368.688 366.934 369.719V370H363.523ZM358.127 367.521C359.146 367.521 360.113 367.258 361.027 366.73C361.941 366.203 362.604 365.518 363.014 364.674V360.771H360.465C356.48 360.771 354.488 361.938 354.488 364.27C354.488 365.289 354.828 366.086 355.508 366.66C356.188 367.234 357.061 367.521 358.127 367.521Z" fill="white"/>
</g>
</g>
</g>
<g id="Group 166">
<g id="Susi">
<path d="M102.512 111.592C99.6172 110.76 97.5078 109.74 96.1836 108.533C94.8711 107.314 94.2148 105.814 94.2148 104.033C94.2148 102.018 95.0176 100.354 96.623 99.041C98.2402 97.7168 100.338 97.0547 102.916 97.0547C104.674 97.0547 106.238 97.3945 107.609 98.0742C108.992 98.7539 110.059 99.6914 110.809 100.887C111.57 102.082 111.951 103.389 111.951 104.807H108.559C108.559 103.26 108.066 102.047 107.082 101.168C106.098 100.277 104.709 99.832 102.916 99.832C101.252 99.832 99.9512 100.201 99.0137 100.939C98.0879 101.666 97.625 102.68 97.625 103.98C97.625 105.023 98.0645 105.908 98.9434 106.635C99.834 107.35 101.34 108.006 103.461 108.604C105.594 109.201 107.258 109.863 108.453 110.59C109.66 111.305 110.551 112.143 111.125 113.104C111.711 114.064 112.004 115.195 112.004 116.496C112.004 118.57 111.195 120.234 109.578 121.488C107.961 122.73 105.799 123.352 103.092 123.352C101.334 123.352 99.6934 123.018 98.1699 122.35C96.6465 121.67 95.4688 120.744 94.6367 119.572C93.8164 118.4 93.4062 117.07 93.4062 115.582H96.7988C96.7988 117.129 97.3672 118.354 98.5039 119.256C99.6523 120.146 101.182 120.592 103.092 120.592C104.873 120.592 106.238 120.229 107.188 119.502C108.137 118.775 108.611 117.785 108.611 116.531C108.611 115.277 108.172 114.311 107.293 113.631C106.414 112.939 104.82 112.26 102.512 111.592Z" fill="white"/>
<path d="M127.578 121.119C126.312 122.607 124.455 123.352 122.006 123.352C119.979 123.352 118.432 122.766 117.365 121.594C116.311 120.41 115.777 118.664 115.766 116.355V103.98H119.018V116.268C119.018 119.15 120.189 120.592 122.533 120.592C125.018 120.592 126.67 119.666 127.49 117.814V103.98H130.742V123H127.648L127.578 121.119Z" fill="white"/>
<path d="M146.773 117.955C146.773 117.076 146.439 116.396 145.771 115.916C145.115 115.424 143.961 115.002 142.309 114.65C140.668 114.299 139.361 113.877 138.389 113.385C137.428 112.893 136.713 112.307 136.244 111.627C135.787 110.947 135.559 110.139 135.559 109.201C135.559 107.643 136.215 106.324 137.527 105.246C138.852 104.168 140.539 103.629 142.59 103.629C144.746 103.629 146.492 104.186 147.828 105.299C149.176 106.412 149.85 107.836 149.85 109.57H146.58C146.58 108.68 146.199 107.912 145.438 107.268C144.688 106.623 143.738 106.301 142.59 106.301C141.406 106.301 140.48 106.559 139.812 107.074C139.145 107.59 138.811 108.264 138.811 109.096C138.811 109.881 139.121 110.473 139.742 110.871C140.363 111.27 141.482 111.65 143.1 112.014C144.729 112.377 146.047 112.811 147.055 113.314C148.062 113.818 148.807 114.428 149.287 115.143C149.779 115.846 150.025 116.707 150.025 117.727C150.025 119.426 149.346 120.791 147.986 121.822C146.627 122.842 144.863 123.352 142.695 123.352C141.172 123.352 139.824 123.082 138.652 122.543C137.48 122.004 136.561 121.254 135.893 120.293C135.236 119.32 134.908 118.271 134.908 117.146H138.16C138.219 118.236 138.652 119.104 139.461 119.748C140.281 120.381 141.359 120.697 142.695 120.697C143.926 120.697 144.91 120.451 145.648 119.959C146.398 119.455 146.773 118.787 146.773 117.955Z" fill="white"/>
<path d="M157.795 123H154.543V103.98H157.795V123ZM154.279 98.9355C154.279 98.4082 154.438 97.9629 154.754 97.5996C155.082 97.2363 155.562 97.0547 156.195 97.0547C156.828 97.0547 157.309 97.2363 157.637 97.5996C157.965 97.9629 158.129 98.4082 158.129 98.9355C158.129 99.4629 157.965 99.9023 157.637 100.254C157.309 100.605 156.828 100.781 156.195 100.781C155.562 100.781 155.082 100.605 154.754 100.254C154.438 99.9023 154.279 99.4629 154.279 98.9355Z" fill="white"/>
</g>
<g id="Group 165">
<path id="Arrow 16 (Stroke)" fill-rule="evenodd" clip-rule="evenodd" d="M162.277 240.787C161.842 241.492 160.918 241.712 160.213 241.277L148.72 234.195C148.014 233.761 147.795 232.837 148.23 232.131C148.664 231.426 149.588 231.207 150.293 231.641L158.703 236.823C154.417 218.784 151.48 206.138 151.063 192.922C150.619 178.821 153.04 164.149 159.559 141.584L162.441 142.416C155.96 164.851 153.631 179.179 154.062 192.828C154.468 205.7 157.324 218.036 161.622 236.131L166.805 227.72C167.239 227.014 168.163 226.795 168.869 227.23C169.574 227.664 169.793 228.588 169.359 229.294L162.277 240.787Z" fill="#2CF30B"/>
<g id="Junto Derecha">
<path d="M13.6934 152.406H17.0859V170.529C17.0859 172.979 16.3477 174.895 14.8711 176.277C13.4062 177.66 11.4492 178.352 9 178.352C6.45703 178.352 4.47656 177.701 3.05859 176.4C1.64062 175.1 0.931641 173.277 0.931641 170.934H4.30664C4.30664 172.398 4.70508 173.541 5.50195 174.361C6.31055 175.182 7.47656 175.592 9 175.592C10.3945 175.592 11.5195 175.152 12.375 174.273C13.2422 173.395 13.6816 172.164 13.6934 170.582V152.406Z" fill="#2CF30B"/>
<path d="M34.0664 176.119C32.8008 177.607 30.9434 178.352 28.4941 178.352C26.4668 178.352 24.9199 177.766 23.8535 176.594C22.7988 175.41 22.2656 173.664 22.2539 171.355V158.98H25.5059V171.268C25.5059 174.15 26.6777 175.592 29.0215 175.592C31.5059 175.592 33.1582 174.666 33.9785 172.814V158.98H37.2305V178H34.1367L34.0664 176.119Z" fill="#2CF30B"/>
<path d="M45.2637 158.98L45.3691 161.371C46.8223 159.543 48.7207 158.629 51.0645 158.629C55.084 158.629 57.1113 160.896 57.1465 165.432V178H53.8945V165.414C53.8828 164.043 53.5664 163.029 52.9453 162.373C52.3359 161.717 51.3809 161.389 50.0801 161.389C49.0254 161.389 48.0996 161.67 47.3027 162.232C46.5059 162.795 45.8848 163.533 45.4395 164.447V178H42.1875V158.98H45.2637Z" fill="#2CF30B"/>
<path d="M66.4629 154.375V158.98H70.0137V161.494H66.4629V173.289C66.4629 174.051 66.6211 174.625 66.9375 175.012C67.2539 175.387 67.793 175.574 68.5547 175.574C68.9297 175.574 69.4453 175.504 70.1016 175.363V178C69.2461 178.234 68.4141 178.352 67.6055 178.352C66.1523 178.352 65.0566 177.912 64.3184 177.033C63.5801 176.154 63.2109 174.906 63.2109 173.289V161.494H59.748V158.98H63.2109V154.375H66.4629Z" fill="#2CF30B"/>
<path d="M72.6152 168.314C72.6152 166.451 72.9785 164.775 73.7051 163.287C74.4434 161.799 75.4629 160.65 76.7637 159.842C78.0762 159.033 79.5703 158.629 81.2461 158.629C83.8359 158.629 85.9277 159.525 87.5215 161.318C89.127 163.111 89.9297 165.496 89.9297 168.473V168.701C89.9297 170.553 89.5723 172.217 88.8574 173.693C88.1543 175.158 87.1406 176.301 85.8164 177.121C84.5039 177.941 82.9922 178.352 81.2812 178.352C78.7031 178.352 76.6113 177.455 75.0059 175.662C73.4121 173.869 72.6152 171.496 72.6152 168.543V168.314ZM75.8848 168.701C75.8848 170.811 76.3711 172.504 77.3438 173.781C78.3281 175.059 79.6406 175.697 81.2812 175.697C82.9336 175.697 84.2461 175.053 85.2188 173.764C86.1914 172.463 86.6777 170.646 86.6777 168.314C86.6777 166.229 86.1797 164.541 85.1836 163.252C84.1992 161.951 82.8867 161.301 81.2461 161.301C79.6406 161.301 78.3457 161.939 77.3613 163.217C76.377 164.494 75.8848 166.322 75.8848 168.701Z" fill="#2CF30B"/>
<path d="M2.9707 220V194.406H10.1953C12.4219 194.406 14.3906 194.898 16.1016 195.883C17.8125 196.867 19.1309 198.268 20.0566 200.084C20.9941 201.9 21.4688 203.986 21.4805 206.342V207.977C21.4805 210.391 21.0117 212.506 20.0742 214.322C19.1484 216.139 17.8184 217.533 16.084 218.506C14.3613 219.479 12.3516 219.977 10.0547 220H2.9707ZM6.3457 197.184V217.24H9.89648C12.498 217.24 14.5195 216.432 15.9609 214.814C17.4141 213.197 18.1406 210.895 18.1406 207.906V206.412C18.1406 203.506 17.4551 201.25 16.084 199.645C14.7246 198.027 12.791 197.207 10.2832 197.184H6.3457Z" fill="#2CF30B"/>
<path d="M33.9785 220.352C31.4004 220.352 29.3027 219.508 27.6855 217.82C26.0684 216.121 25.2598 213.854 25.2598 211.018V210.42C25.2598 208.533 25.6172 206.852 26.332 205.375C27.0586 203.887 28.0664 202.727 29.3555 201.895C30.6562 201.051 32.0625 200.629 33.5742 200.629C36.0469 200.629 37.9688 201.443 39.3398 203.072C40.7109 204.701 41.3965 207.033 41.3965 210.068V211.422H28.5117C28.5586 213.297 29.1035 214.814 30.1465 215.975C31.2012 217.123 32.5371 217.697 34.1543 217.697C35.3027 217.697 36.2754 217.463 37.0723 216.994C37.8691 216.525 38.5664 215.904 39.1641 215.131L41.1504 216.678C39.5566 219.127 37.166 220.352 33.9785 220.352ZM33.5742 203.301C32.2617 203.301 31.1602 203.781 30.2695 204.742C29.3789 205.691 28.8281 207.027 28.6172 208.75H38.1445V208.504C38.0508 206.852 37.6055 205.574 36.8086 204.672C36.0117 203.758 34.9336 203.301 33.5742 203.301Z" fill="#2CF30B"/>
<path d="M54.3691 203.898C53.877 203.816 53.3438 203.775 52.7695 203.775C50.6367 203.775 49.1895 204.684 48.4277 206.5V220H45.1758V200.98H48.3398L48.3926 203.178C49.459 201.479 50.9707 200.629 52.9277 200.629C53.5605 200.629 54.041 200.711 54.3691 200.875V203.898Z" fill="#2CF30B"/>
<path d="M64.916 220.352C62.3379 220.352 60.2402 219.508 58.623 217.82C57.0059 216.121 56.1973 213.854 56.1973 211.018V210.42C56.1973 208.533 56.5547 206.852 57.2695 205.375C57.9961 203.887 59.0039 202.727 60.293 201.895C61.5938 201.051 63 200.629 64.5117 200.629C66.9844 200.629 68.9062 201.443 70.2773 203.072C71.6484 204.701 72.334 207.033 72.334 210.068V211.422H59.4492C59.4961 213.297 60.041 214.814 61.084 215.975C62.1387 217.123 63.4746 217.697 65.0918 217.697C66.2402 217.697 67.2129 217.463 68.0098 216.994C68.8066 216.525 69.5039 215.904 70.1016 215.131L72.0879 216.678C70.4941 219.127 68.1035 220.352 64.916 220.352ZM64.5117 203.301C63.1992 203.301 62.0977 203.781 61.207 204.742C60.3164 205.691 59.7656 207.027 59.5547 208.75H69.082V208.504C68.9883 206.852 68.543 205.574 67.7461 204.672C66.9492 203.758 65.8711 203.301 64.5117 203.301Z" fill="#2CF30B"/>
<path d="M83.7422 217.697C84.9023 217.697 85.916 217.346 86.7832 216.643C87.6504 215.939 88.1309 215.061 88.2246 214.006H91.3008C91.2422 215.096 90.8672 216.133 90.1758 217.117C89.4844 218.102 88.5586 218.887 87.3984 219.473C86.25 220.059 85.0312 220.352 83.7422 220.352C81.1523 220.352 79.0898 219.49 77.5547 217.768C76.0312 216.033 75.2695 213.666 75.2695 210.666V210.121C75.2695 208.27 75.6094 206.623 76.2891 205.182C76.9688 203.74 77.9414 202.621 79.207 201.824C80.4844 201.027 81.9902 200.629 83.7246 200.629C85.8574 200.629 87.627 201.268 89.0332 202.545C90.4512 203.822 91.207 205.48 91.3008 207.52H88.2246C88.1309 206.289 87.6621 205.281 86.8184 204.496C85.9863 203.699 84.9551 203.301 83.7246 203.301C82.0723 203.301 80.7891 203.898 79.875 205.094C78.9727 206.277 78.5215 207.994 78.5215 210.244V210.859C78.5215 213.051 78.9727 214.738 79.875 215.922C80.7773 217.105 82.0664 217.697 83.7422 217.697Z" fill="#2CF30B"/>
<path d="M98.209 203.283C99.6504 201.514 101.525 200.629 103.834 200.629C107.854 200.629 109.881 202.896 109.916 207.432V220H106.664V207.414C106.652 206.043 106.336 205.029 105.715 204.373C105.105 203.717 104.15 203.389 102.85 203.389C101.795 203.389 100.869 203.67 100.072 204.232C99.2754 204.795 98.6543 205.533 98.209 206.447V220H94.957V193H98.209V203.283Z" fill="#2CF30B"/>
<path d="M126.527 220C126.34 219.625 126.188 218.957 126.07 217.996C124.559 219.566 122.754 220.352 120.656 220.352C118.781 220.352 117.24 219.824 116.033 218.77C114.838 217.703 114.24 216.355 114.24 214.727C114.24 212.746 114.99 211.211 116.49 210.121C118.002 209.02 120.123 208.469 122.854 208.469H126.018V206.975C126.018 205.838 125.678 204.936 124.998 204.268C124.318 203.588 123.316 203.248 121.992 203.248C120.832 203.248 119.859 203.541 119.074 204.127C118.289 204.713 117.896 205.422 117.896 206.254H114.627C114.627 205.305 114.961 204.391 115.629 203.512C116.309 202.621 117.223 201.918 118.371 201.402C119.531 200.887 120.803 200.629 122.186 200.629C124.377 200.629 126.094 201.18 127.336 202.281C128.578 203.371 129.223 204.877 129.27 206.799V215.553C129.27 217.299 129.492 218.688 129.938 219.719V220H126.527ZM121.131 217.521C122.15 217.521 123.117 217.258 124.031 216.73C124.945 216.203 125.607 215.518 126.018 214.674V210.771H123.469C119.484 210.771 117.492 211.938 117.492 214.27C117.492 215.289 117.832 216.086 118.512 216.66C119.191 217.234 120.064 217.521 121.131 217.521Z" fill="#2CF30B"/>
</g>
</g>
</g>
<g id="Rosa">
<path d="M449.357 281.646H443.346V292H439.953V266.406H448.426C451.309 266.406 453.523 267.062 455.07 268.375C456.629 269.688 457.408 271.598 457.408 274.105C457.408 275.699 456.975 277.088 456.107 278.271C455.252 279.455 454.057 280.34 452.521 280.926L458.533 291.789V292H454.912L449.357 281.646ZM443.346 278.887H448.531C450.207 278.887 451.537 278.453 452.521 277.586C453.518 276.719 454.016 275.559 454.016 274.105C454.016 272.523 453.541 271.311 452.592 270.467C451.654 269.623 450.295 269.195 448.514 269.184H443.346V278.887Z" fill="white"/>
<path d="M460.783 282.314C460.783 280.451 461.146 278.775 461.873 277.287C462.611 275.799 463.631 274.65 464.932 273.842C466.244 273.033 467.738 272.629 469.414 272.629C472.004 272.629 474.096 273.525 475.689 275.318C477.295 277.111 478.098 279.496 478.098 282.473V282.701C478.098 284.553 477.74 286.217 477.025 287.693C476.322 289.158 475.309 290.301 473.984 291.121C472.672 291.941 471.16 292.352 469.449 292.352C466.871 292.352 464.779 291.455 463.174 289.662C461.58 287.869 460.783 285.496 460.783 282.543V282.314ZM464.053 282.701C464.053 284.811 464.539 286.504 465.512 287.781C466.496 289.059 467.809 289.697 469.449 289.697C471.102 289.697 472.414 289.053 473.387 287.764C474.359 286.463 474.846 284.646 474.846 282.314C474.846 280.229 474.348 278.541 473.352 277.252C472.367 275.951 471.055 275.301 469.414 275.301C467.809 275.301 466.514 275.939 465.529 277.217C464.545 278.494 464.053 280.322 464.053 282.701Z" fill="white"/>
<path d="M493.25 286.955C493.25 286.076 492.916 285.396 492.248 284.916C491.592 284.424 490.438 284.002 488.785 283.65C487.145 283.299 485.838 282.877 484.865 282.385C483.904 281.893 483.189 281.307 482.721 280.627C482.264 279.947 482.035 279.139 482.035 278.201C482.035 276.643 482.691 275.324 484.004 274.246C485.328 273.168 487.016 272.629 489.066 272.629C491.223 272.629 492.969 273.186 494.305 274.299C495.652 275.412 496.326 276.836 496.326 278.57H493.057C493.057 277.68 492.676 276.912 491.914 276.268C491.164 275.623 490.215 275.301 489.066 275.301C487.883 275.301 486.957 275.559 486.289 276.074C485.621 276.59 485.287 277.264 485.287 278.096C485.287 278.881 485.598 279.473 486.219 279.871C486.84 280.27 487.959 280.65 489.576 281.014C491.205 281.377 492.523 281.811 493.531 282.314C494.539 282.818 495.283 283.428 495.764 284.143C496.256 284.846 496.502 285.707 496.502 286.727C496.502 288.426 495.822 289.791 494.463 290.822C493.104 291.842 491.34 292.352 489.172 292.352C487.648 292.352 486.301 292.082 485.129 291.543C483.957 291.004 483.037 290.254 482.369 289.293C481.713 288.32 481.385 287.271 481.385 286.146H484.637C484.695 287.236 485.129 288.104 485.938 288.748C486.758 289.381 487.836 289.697 489.172 289.697C490.402 289.697 491.387 289.451 492.125 288.959C492.875 288.455 493.25 287.787 493.25 286.955Z" fill="white"/>
<path d="M512.48 292C512.293 291.625 512.141 290.957 512.023 289.996C510.512 291.566 508.707 292.352 506.609 292.352C504.734 292.352 503.193 291.824 501.986 290.77C500.791 289.703 500.193 288.355 500.193 286.727C500.193 284.746 500.943 283.211 502.443 282.121C503.955 281.02 506.076 280.469 508.807 280.469H511.971V278.975C511.971 277.838 511.631 276.936 510.951 276.268C510.271 275.588 509.27 275.248 507.945 275.248C506.785 275.248 505.812 275.541 505.027 276.127C504.242 276.713 503.85 277.422 503.85 278.254H500.58C500.58 277.305 500.914 276.391 501.582 275.512C502.262 274.621 503.176 273.918 504.324 273.402C505.484 272.887 506.756 272.629 508.139 272.629C510.33 272.629 512.047 273.18 513.289 274.281C514.531 275.371 515.176 276.877 515.223 278.799V287.553C515.223 289.299 515.445 290.688 515.891 291.719V292H512.48ZM507.084 289.521C508.104 289.521 509.07 289.258 509.984 288.73C510.898 288.203 511.561 287.518 511.971 286.674V282.771H509.422C505.438 282.771 503.445 283.938 503.445 286.27C503.445 287.289 503.785 288.086 504.465 288.66C505.145 289.234 506.018 289.521 507.084 289.521Z" fill="white"/>
</g>
<g id="Group 168">
<g id="Cielo">
<path d="M107.797 277.879C107.48 280.586 106.479 282.678 104.791 284.154C103.115 285.619 100.883 286.352 98.0938 286.352C95.0703 286.352 92.6445 285.268 90.8164 283.1C89 280.932 88.0918 278.031 88.0918 274.398V271.938C88.0918 269.559 88.5137 267.467 89.3574 265.662C90.2129 263.857 91.4199 262.475 92.9785 261.514C94.5371 260.541 96.3418 260.055 98.3926 260.055C101.111 260.055 103.291 260.816 104.932 262.34C106.572 263.852 107.527 265.949 107.797 268.633H104.404C104.111 266.594 103.473 265.117 102.488 264.203C101.516 263.289 100.15 262.832 98.3926 262.832C96.2363 262.832 94.543 263.629 93.3125 265.223C92.0938 266.816 91.4844 269.084 91.4844 272.025V274.504C91.4844 277.281 92.0645 279.49 93.2246 281.131C94.3848 282.771 96.0078 283.592 98.0938 283.592C99.9688 283.592 101.404 283.17 102.4 282.326C103.408 281.471 104.076 279.988 104.404 277.879H107.797Z" fill="white"/>
<path d="M115.443 286H112.191V266.98H115.443V286ZM111.928 261.936C111.928 261.408 112.086 260.963 112.402 260.6C112.73 260.236 113.211 260.055 113.844 260.055C114.477 260.055 114.957 260.236 115.285 260.6C115.613 260.963 115.777 261.408 115.777 261.936C115.777 262.463 115.613 262.902 115.285 263.254C114.957 263.605 114.477 263.781 113.844 263.781C113.211 263.781 112.73 263.605 112.402 263.254C112.086 262.902 111.928 262.463 111.928 261.936Z" fill="white"/>
<path d="M128.557 286.352C125.979 286.352 123.881 285.508 122.264 283.82C120.646 282.121 119.838 279.854 119.838 277.018V276.42C119.838 274.533 120.195 272.852 120.91 271.375C121.637 269.887 122.645 268.727 123.934 267.895C125.234 267.051 126.641 266.629 128.152 266.629C130.625 266.629 132.547 267.443 133.918 269.072C135.289 270.701 135.975 273.033 135.975 276.068V277.422H123.09C123.137 279.297 123.682 280.814 124.725 281.975C125.779 283.123 127.115 283.697 128.732 283.697C129.881 283.697 130.854 283.463 131.65 282.994C132.447 282.525 133.145 281.904 133.742 281.131L135.729 282.678C134.135 285.127 131.744 286.352 128.557 286.352ZM128.152 269.301C126.84 269.301 125.738 269.781 124.848 270.742C123.957 271.691 123.406 273.027 123.195 274.75H132.723V274.504C132.629 272.852 132.184 271.574 131.387 270.672C130.59 269.758 129.512 269.301 128.152 269.301Z" fill="white"/>
<path d="M143.287 286H140.035V259H143.287V286Z" fill="white"/>
<path d="M147.646 276.314C147.646 274.451 148.01 272.775 148.736 271.287C149.475 269.799 150.494 268.65 151.795 267.842C153.107 267.033 154.602 266.629 156.277 266.629C158.867 266.629 160.959 267.525 162.553 269.318C164.158 271.111 164.961 273.496 164.961 276.473V276.701C164.961 278.553 164.604 280.217 163.889 281.693C163.186 283.158 162.172 284.301 160.848 285.121C159.535 285.941 158.023 286.352 156.312 286.352C153.734 286.352 151.643 285.455 150.037 283.662C148.443 281.869 147.646 279.496 147.646 276.543V276.314ZM150.916 276.701C150.916 278.811 151.402 280.504 152.375 281.781C153.359 283.059 154.672 283.697 156.312 283.697C157.965 283.697 159.277 283.053 160.25 281.764C161.223 280.463 161.709 278.646 161.709 276.314C161.709 274.229 161.211 272.541 160.215 271.252C159.23 269.951 157.918 269.301 156.277 269.301C154.672 269.301 153.377 269.939 152.393 271.217C151.408 272.494 150.916 274.322 150.916 276.701Z" fill="white"/>
</g>
<g id="Group 167">
<path id="Arrow 17 (Stroke)" fill-rule="evenodd" clip-rule="evenodd" d="M269.395 336.447C269.7 337.217 269.323 338.089 268.553 338.394L256.004 343.372C255.234 343.677 254.363 343.301 254.057 342.531C253.752 341.761 254.128 340.889 254.898 340.583L264.095 336.935C244.19 328.196 229.16 320.24 215.959 310.387C202.026 299.988 190.192 287.523 176.806 269.908L179.194 268.092C192.472 285.565 204.114 297.802 217.754 307.983C230.688 317.636 245.474 325.482 265.265 334.173L261.628 325.004C261.323 324.234 261.699 323.362 262.469 323.057C263.239 322.751 264.111 323.128 264.417 323.898L269.395 336.447Z" fill="#E8A1EE"/>
<g id="Junto Derecha_2">
<path d="M114.693 315.406H118.086V333.529C118.086 335.979 117.348 337.895 115.871 339.277C114.406 340.66 112.449 341.352 110 341.352C107.457 341.352 105.477 340.701 104.059 339.4C102.641 338.1 101.932 336.277 101.932 333.934H105.307C105.307 335.398 105.705 336.541 106.502 337.361C107.311 338.182 108.477 338.592 110 338.592C111.395 338.592 112.52 338.152 113.375 337.273C114.242 336.395 114.682 335.164 114.693 333.582V315.406Z" fill="#E8A1EE"/>
<path d="M135.066 339.119C133.801 340.607 131.943 341.352 129.494 341.352C127.467 341.352 125.92 340.766 124.854 339.594C123.799 338.41 123.266 336.664 123.254 334.355V321.98H126.506V334.268C126.506 337.15 127.678 338.592 130.021 338.592C132.506 338.592 134.158 337.666 134.979 335.814V321.98H138.23V341H135.137L135.066 339.119Z" fill="#E8A1EE"/>
<path d="M146.264 321.98L146.369 324.371C147.822 322.543 149.721 321.629 152.064 321.629C156.084 321.629 158.111 323.896 158.146 328.432V341H154.895V328.414C154.883 327.043 154.566 326.029 153.945 325.373C153.336 324.717 152.381 324.389 151.08 324.389C150.025 324.389 149.1 324.67 148.303 325.232C147.506 325.795 146.885 326.533 146.439 327.447V341H143.188V321.98H146.264Z" fill="#E8A1EE"/>
<path d="M167.463 317.375V321.98H171.014V324.494H167.463V336.289C167.463 337.051 167.621 337.625 167.938 338.012C168.254 338.387 168.793 338.574 169.555 338.574C169.93 338.574 170.445 338.504 171.102 338.363V341C170.246 341.234 169.414 341.352 168.605 341.352C167.152 341.352 166.057 340.912 165.318 340.033C164.58 339.154 164.211 337.906 164.211 336.289V324.494H160.748V321.98H164.211V317.375H167.463Z" fill="#E8A1EE"/>
<path d="M173.615 331.314C173.615 329.451 173.979 327.775 174.705 326.287C175.443 324.799 176.463 323.65 177.764 322.842C179.076 322.033 180.57 321.629 182.246 321.629C184.836 321.629 186.928 322.525 188.521 324.318C190.127 326.111 190.93 328.496 190.93 331.473V331.701C190.93 333.553 190.572 335.217 189.857 336.693C189.154 338.158 188.141 339.301 186.816 340.121C185.504 340.941 183.992 341.352 182.281 341.352C179.703 341.352 177.611 340.455 176.006 338.662C174.412 336.869 173.615 334.496 173.615 331.543V331.314ZM176.885 331.701C176.885 333.811 177.371 335.504 178.344 336.781C179.328 338.059 180.641 338.697 182.281 338.697C183.934 338.697 185.246 338.053 186.219 336.764C187.191 335.463 187.678 333.646 187.678 331.314C187.678 329.229 187.18 327.541 186.184 326.252C185.199 324.951 183.887 324.301 182.246 324.301C180.641 324.301 179.346 324.939 178.361 326.217C177.377 327.494 176.885 329.322 176.885 331.701Z" fill="#E8A1EE"/>
<path d="M103.971 383V357.406H111.195C113.422 357.406 115.391 357.898 117.102 358.883C118.812 359.867 120.131 361.268 121.057 363.084C121.994 364.9 122.469 366.986 122.48 369.342V370.977C122.48 373.391 122.012 375.506 121.074 377.322C120.148 379.139 118.818 380.533 117.084 381.506C115.361 382.479 113.352 382.977 111.055 383H103.971ZM107.346 360.184V380.24H110.896C113.498 380.24 115.52 379.432 116.961 377.814C118.414 376.197 119.141 373.895 119.141 370.906V369.412C119.141 366.506 118.455 364.25 117.084 362.645C115.725 361.027 113.791 360.207 111.283 360.184H107.346Z" fill="#E8A1EE"/>
<path d="M134.979 383.352C132.4 383.352 130.303 382.508 128.686 380.82C127.068 379.121 126.26 376.854 126.26 374.018V373.42C126.26 371.533 126.617 369.852 127.332 368.375C128.059 366.887 129.066 365.727 130.355 364.895C131.656 364.051 133.062 363.629 134.574 363.629C137.047 363.629 138.969 364.443 140.34 366.072C141.711 367.701 142.396 370.033 142.396 373.068V374.422H129.512C129.559 376.297 130.104 377.814 131.146 378.975C132.201 380.123 133.537 380.697 135.154 380.697C136.303 380.697 137.275 380.463 138.072 379.994C138.869 379.525 139.566 378.904 140.164 378.131L142.15 379.678C140.557 382.127 138.166 383.352 134.979 383.352ZM134.574 366.301C133.262 366.301 132.16 366.781 131.27 367.742C130.379 368.691 129.828 370.027 129.617 371.75H139.145V371.504C139.051 369.852 138.605 368.574 137.809 367.672C137.012 366.758 135.934 366.301 134.574 366.301Z" fill="#E8A1EE"/>
<path d="M155.369 366.898C154.877 366.816 154.344 366.775 153.77 366.775C151.637 366.775 150.189 367.684 149.428 369.5V383H146.176V363.98H149.34L149.393 366.178C150.459 364.479 151.971 363.629 153.928 363.629C154.561 363.629 155.041 363.711 155.369 363.875V366.898Z" fill="#E8A1EE"/>
<path d="M165.916 383.352C163.338 383.352 161.24 382.508 159.623 380.82C158.006 379.121 157.197 376.854 157.197 374.018V373.42C157.197 371.533 157.555 369.852 158.27 368.375C158.996 366.887 160.004 365.727 161.293 364.895C162.594 364.051 164 363.629 165.512 363.629C167.984 363.629 169.906 364.443 171.277 366.072C172.648 367.701 173.334 370.033 173.334 373.068V374.422H160.449C160.496 376.297 161.041 377.814 162.084 378.975C163.139 380.123 164.475 380.697 166.092 380.697C167.24 380.697 168.213 380.463 169.01 379.994C169.807 379.525 170.504 378.904 171.102 378.131L173.088 379.678C171.494 382.127 169.104 383.352 165.916 383.352ZM165.512 366.301C164.199 366.301 163.098 366.781 162.207 367.742C161.316 368.691 160.766 370.027 160.555 371.75H170.082V371.504C169.988 369.852 169.543 368.574 168.746 367.672C167.949 366.758 166.871 366.301 165.512 366.301Z" fill="#E8A1EE"/>
<path d="M184.742 380.697C185.902 380.697 186.916 380.346 187.783 379.643C188.65 378.939 189.131 378.061 189.225 377.006H192.301C192.242 378.096 191.867 379.133 191.176 380.117C190.484 381.102 189.559 381.887 188.398 382.473C187.25 383.059 186.031 383.352 184.742 383.352C182.152 383.352 180.09 382.49 178.555 380.768C177.031 379.033 176.27 376.666 176.27 373.666V373.121C176.27 371.27 176.609 369.623 177.289 368.182C177.969 366.74 178.941 365.621 180.207 364.824C181.484 364.027 182.99 363.629 184.725 363.629C186.857 363.629 188.627 364.268 190.033 365.545C191.451 366.822 192.207 368.48 192.301 370.52H189.225C189.131 369.289 188.662 368.281 187.818 367.496C186.986 366.699 185.955 366.301 184.725 366.301C183.072 366.301 181.789 366.898 180.875 368.094C179.973 369.277 179.521 370.994 179.521 373.244V373.859C179.521 376.051 179.973 377.738 180.875 378.922C181.777 380.105 183.066 380.697 184.742 380.697Z" fill="#E8A1EE"/>
<path d="M199.209 366.283C200.65 364.514 202.525 363.629 204.834 363.629C208.854 363.629 210.881 365.896 210.916 370.432V383H207.664V370.414C207.652 369.043 207.336 368.029 206.715 367.373C206.105 366.717 205.15 366.389 203.85 366.389C202.795 366.389 201.869 366.67 201.072 367.232C200.275 367.795 199.654 368.533 199.209 369.447V383H195.957V356H199.209V366.283Z" fill="#E8A1EE"/>
<path d="M227.527 383C227.34 382.625 227.188 381.957 227.07 380.996C225.559 382.566 223.754 383.352 221.656 383.352C219.781 383.352 218.24 382.824 217.033 381.77C215.838 380.703 215.24 379.355 215.24 377.727C215.24 375.746 215.99 374.211 217.49 373.121C219.002 372.02 221.123 371.469 223.854 371.469H227.018V369.975C227.018 368.838 226.678 367.936 225.998 367.268C225.318 366.588 224.316 366.248 222.992 366.248C221.832 366.248 220.859 366.541 220.074 367.127C219.289 367.713 218.896 368.422 218.896 369.254H215.627C215.627 368.305 215.961 367.391 216.629 366.512C217.309 365.621 218.223 364.918 219.371 364.402C220.531 363.887 221.803 363.629 223.186 363.629C225.377 363.629 227.094 364.18 228.336 365.281C229.578 366.371 230.223 367.877 230.27 369.799V378.553C230.27 380.299 230.492 381.688 230.938 382.719V383H227.527ZM222.131 380.521C223.15 380.521 224.117 380.258 225.031 379.73C225.945 379.203 226.607 378.518 227.018 377.674V373.771H224.469C220.484 373.771 218.492 374.938 218.492 377.27C218.492 378.289 218.832 379.086 219.512 379.66C220.191 380.234 221.064 380.521 222.131 380.521Z" fill="#E8A1EE"/>
</g>
</g>
</g>
<path id="Ellipse 18 (Stroke)" fill-rule="evenodd" clip-rule="evenodd" d="M383.338 386.83C398.472 376.912 407 363.784 407 350C407 336.216 398.472 323.088 383.338 313.17C368.248 303.28 347.106 297 323.5 297C299.894 297 278.752 303.28 263.662 313.17C248.528 323.088 240 336.216 240 350C240 363.784 248.528 376.912 263.662 386.83C278.752 396.72 299.894 403 323.5 403C347.106 403 368.248 396.72 383.338 386.83ZM323.5 408C372.377 408 412 382.033 412 350C412 317.967 372.377 292 323.5 292C274.623 292 235 317.967 235 350C235 382.033 274.623 408 323.5 408Z" fill="#FD0C0C"/>
</g>
</svg>
