<svg viewBox="0 0 980 490" fill="none" xmlns="http://www.w3.org/2000/svg">
<path fill-rule="evenodd" clip-rule="evenodd" d="M0 0V490H980V0H0ZM273.5 5H142.176C141.599 16.1564 141.221 37.8525 140.998 66.5H273.5V5ZM273.5 71.5H140.961C140.829 90.3748 140.759 112.024 140.739 135.5H273.5V71.5ZM278.5 135.5V71.5H419.781C419.855 91.8998 419.927 113.42 419.994 135.5H278.5ZM273.5 140.5H140.736C140.725 159.835 140.748 180.339 140.796 201.5H273.5V140.5ZM278.5 201.5V140.5H420.01C420.07 160.547 420.126 181.019 420.176 201.5H278.5ZM273.5 206.5H140.808C140.866 230.314 140.957 254.889 141.07 279.5H273.5V206.5ZM278.5 279.5V206.5H420.188C420.246 231.108 420.294 255.681 420.329 279.5H278.5ZM273.5 284.5H141.093C141.191 305.257 141.304 326.003 141.427 346.306C179.981 346.36 224.719 346.384 273.5 346.383V284.5ZM278.5 346.383V284.5H420.335C420.341 288.373 420.346 292.225 420.35 296.053C420.37 313.414 420.382 330.268 420.383 346.324C406.871 346.334 393.481 346.342 380.249 346.35C345.012 346.37 310.89 346.382 278.5 346.383ZM273.5 351.384C224.757 351.384 180.027 351.36 141.457 351.306C141.594 373.472 141.741 395.061 141.892 415.5H273.5V351.384ZM278.5 415.5V351.383C310.902 351.382 345.026 351.37 380.251 351.35C393.483 351.342 406.872 351.334 420.383 351.324C420.382 374.852 420.359 396.56 420.306 415.5H278.5ZM273.5 420.5H141.93C142.105 443.892 142.284 465.686 142.455 485H273.5V420.5ZM278.5 485V420.5H420.291C420.284 422.768 420.277 424.992 420.269 427.172C420.166 455.172 419.988 475.643 419.72 485H278.5ZM424.72 485H553.458C553.295 465.518 553.125 443.742 552.958 420.5H425.291C425.284 422.774 425.277 425.005 425.269 427.19C425.168 454.806 424.995 475.325 424.72 485ZM425.306 415.5H552.922C552.776 394.96 552.633 373.34 552.5 351.197C509.633 351.247 466.945 351.288 425.383 351.32C425.382 374.847 425.359 396.557 425.306 415.5ZM425.383 346.32C466.935 346.288 509.613 346.247 552.47 346.197C552.35 325.891 552.238 305.184 552.139 284.5H425.336C425.341 288.372 425.346 292.222 425.35 296.047C425.37 313.408 425.382 330.263 425.383 346.32ZM425.329 279.5H552.115C552 254.844 551.905 230.27 551.839 206.5H425.188C425.246 231.108 425.294 255.681 425.329 279.5ZM425.176 201.5H551.825C551.816 198.117 551.808 194.752 551.8 191.406C551.759 173.792 551.736 156.721 551.733 140.5H425.01C425.07 160.548 425.126 181.019 425.176 201.5ZM424.994 135.5H551.733C551.736 111.939 551.785 90.2808 551.891 71.5H424.781C424.855 91.9 424.927 113.42 424.994 135.5ZM424.763 66.5H551.921C551.934 64.4605 551.948 62.4581 551.963 60.494C552.09 43.329 552.274 29.0844 552.527 18.6752C552.654 13.4723 552.798 9.21278 552.961 6.01965C552.979 5.66963 552.997 5.32955 553.016 5H424.521C424.6 23.6098 424.682 44.3552 424.763 66.5ZM419.521 5H278.5V66.5H419.763C419.682 44.3548 419.6 23.6093 419.521 5ZM558.025 5C558.001 5.39853 557.978 5.82347 557.955 6.27527C557.795 9.40311 557.652 13.6116 557.526 18.7967C557.274 29.1636 557.089 43.3751 556.962 60.531C556.948 62.4831 556.934 64.4732 556.921 66.5H695.5V5H558.025ZM700.5 5V66.5H836.5V5H700.5ZM841.5 5V66.5H975V5H841.5ZM975 71.5H841.5V135.5H975V71.5ZM975 140.5H841.5V201.5H975V140.5ZM975 206.5H841.5V279.5H975V206.5ZM975 284.5H841.5V345.769C889.762 345.682 934.879 345.594 975 345.51V284.5ZM975 350.51C934.878 350.594 889.762 350.682 841.5 350.769V415.5H975V350.51ZM975 420.5H841.5V485H975V420.5ZM836.5 485V420.5H700.5V485H836.5ZM695.5 485V420.5H557.958C558.125 443.743 558.295 465.519 558.458 485H695.5ZM557.922 415.5H695.5V351.008C650.126 351.076 603.73 351.138 557.5 351.192C557.634 373.336 557.777 394.958 557.922 415.5ZM557.47 346.192C603.71 346.138 650.116 346.076 695.5 346.008V284.5H557.139C557.238 305.182 557.35 325.887 557.47 346.192ZM557.115 279.5H695.5V206.5H556.839C556.905 230.27 557 254.843 557.115 279.5ZM556.825 201.5H695.5V140.5H556.733C556.736 156.716 556.759 173.783 556.8 191.394C556.808 194.744 556.816 198.113 556.825 201.5ZM556.733 135.5H695.5V71.5H556.891C556.785 90.2757 556.736 111.934 556.733 135.5ZM700.5 71.5V135.5H836.5V71.5H700.5ZM836.5 140.5H700.5V201.5H836.5V140.5ZM836.5 206.5H700.5V279.5H836.5V206.5ZM836.5 284.5H700.5V346.001C747.415 345.93 793.188 345.855 836.5 345.778V284.5ZM836.5 350.778C793.188 350.855 747.415 350.93 700.5 351.001V415.5H836.5V350.778ZM137.455 485C137.284 465.685 137.105 443.891 136.929 420.5H5V485H137.455ZM5 415.5H136.892C136.741 395.058 136.594 373.467 136.457 351.299C68.8631 351.197 21.0251 350.998 5 350.663V415.5ZM5 345.665C20.6273 345.998 68.5062 346.197 136.427 346.298C136.304 325.998 136.191 305.254 136.093 284.5H5V345.665ZM5 279.5H136.07C135.957 254.889 135.866 230.314 135.808 206.5H5V279.5ZM5 201.5H135.796C135.748 180.359 135.725 159.852 135.735 140.5H5V201.5ZM5 135.5H135.739C135.759 112.052 135.828 90.4014 135.961 71.5H5V135.5ZM5 66.5H135.998C136.22 38.0578 136.596 16.3862 137.171 5H5V66.5Z" fill="#E8A1EE"/>
<path d="M167.104 42.3203H156.381L153.973 49H150.492L160.266 23.4062H163.219L173.01 49H169.547L167.104 42.3203ZM157.4 39.543H166.102L161.742 27.5723L157.4 39.543Z" fill="#E8A1EE"/>
<path d="M179.021 29.9805L179.127 32.3711C180.58 30.543 182.479 29.6289 184.822 29.6289C188.842 29.6289 190.869 31.8965 190.904 36.4316V49H187.652V36.4141C187.641 35.043 187.324 34.0293 186.703 33.373C186.094 32.7168 185.139 32.3887 183.838 32.3887C182.783 32.3887 181.857 32.6699 181.061 33.2324C180.264 33.7949 179.643 34.5332 179.197 35.4473V49H175.945V29.9805H179.021Z" fill="#E8A1EE"/>
<path d="M195.018 39.332C195.018 36.4141 195.709 34.0703 197.092 32.3008C198.475 30.5195 200.285 29.6289 202.523 29.6289C204.75 29.6289 206.514 30.3906 207.814 31.9141V22H211.066V49H208.078L207.92 46.9609C206.619 48.5547 204.809 49.3516 202.488 49.3516C200.285 49.3516 198.486 48.4492 197.092 46.6445C195.709 44.8398 195.018 42.4844 195.018 39.5781V39.332ZM198.27 39.7012C198.27 41.8574 198.715 43.5449 199.605 44.7637C200.496 45.9824 201.727 46.5918 203.297 46.5918C205.359 46.5918 206.865 45.666 207.814 43.8145V35.0781C206.842 33.2852 205.348 32.3887 203.332 32.3887C201.738 32.3887 200.496 33.0039 199.605 34.2344C198.715 35.4648 198.27 37.2871 198.27 39.7012Z" fill="#E8A1EE"/>
<path d="M225.322 32.8984C224.83 32.8164 224.297 32.7754 223.723 32.7754C221.59 32.7754 220.143 33.6836 219.381 35.5V49H216.129V29.9805H219.293L219.346 32.1777C220.412 30.4785 221.924 29.6289 223.881 29.6289C224.514 29.6289 224.994 29.7109 225.322 29.875V32.8984Z" fill="#E8A1EE"/>
<path d="M235.869 49.3516C233.291 49.3516 231.193 48.5078 229.576 46.8203C227.959 45.1211 227.15 42.8535 227.15 40.0176V39.4199C227.15 37.5332 227.508 35.8516 228.223 34.375C228.949 32.8867 229.957 31.7266 231.246 30.8945C232.547 30.0508 233.953 29.6289 235.465 29.6289C237.938 29.6289 239.859 30.4434 241.23 32.0723C242.602 33.7012 243.287 36.0332 243.287 39.0684V40.4219H230.402C230.449 42.2969 230.994 43.8145 232.037 44.9746C233.092 46.123 234.428 46.6973 236.045 46.6973C237.193 46.6973 238.166 46.4629 238.963 45.9941C239.76 45.5254 240.457 44.9043 241.055 44.1309L243.041 45.6777C241.447 48.127 239.057 49.3516 235.869 49.3516ZM235.465 32.3008C234.152 32.3008 233.051 32.7812 232.16 33.7422C231.27 34.6914 230.719 36.0273 230.508 37.75H240.035V37.5039C239.941 35.8516 239.496 34.5742 238.699 33.6719C237.902 32.7578 236.824 32.3008 235.465 32.3008Z" fill="#E8A1EE"/>
<path d="M258.141 43.9551C258.141 43.0762 257.807 42.3965 257.139 41.916C256.482 41.4238 255.328 41.002 253.676 40.6504C252.035 40.2988 250.729 39.877 249.756 39.3848C248.795 38.8926 248.08 38.3066 247.611 37.627C247.154 36.9473 246.926 36.1387 246.926 35.2012C246.926 33.6426 247.582 32.3242 248.895 31.2461C250.219 30.168 251.906 29.6289 253.957 29.6289C256.113 29.6289 257.859 30.1855 259.195 31.2988C260.543 32.4121 261.217 33.8359 261.217 35.5703H257.947C257.947 34.6797 257.566 33.9121 256.805 33.2676C256.055 32.623 255.105 32.3008 253.957 32.3008C252.773 32.3008 251.848 32.5586 251.18 33.0742C250.512 33.5898 250.178 34.2637 250.178 35.0957C250.178 35.8809 250.488 36.4727 251.109 36.8711C251.73 37.2695 252.85 37.6504 254.467 38.0137C256.096 38.377 257.414 38.8105 258.422 39.3145C259.43 39.8184 260.174 40.4277 260.654 41.1426C261.146 41.8457 261.393 42.707 261.393 43.7266C261.393 45.4258 260.713 46.791 259.354 47.8223C257.994 48.8418 256.23 49.3516 254.062 49.3516C252.539 49.3516 251.191 49.082 250.02 48.543C248.848 48.0039 247.928 47.2539 247.26 46.293C246.604 45.3203 246.275 44.2715 246.275 43.1465H249.527C249.586 44.2363 250.02 45.1035 250.828 45.748C251.648 46.3809 252.727 46.6973 254.062 46.6973C255.293 46.6973 256.277 46.4512 257.016 45.959C257.766 45.4551 258.141 44.7871 258.141 43.9551Z" fill="#E8A1EE"/>
<path d="M61.1035 112.32H50.3809L47.9727 119H44.4922L54.2656 93.4062H57.2188L67.0098 119H63.5469L61.1035 112.32ZM51.4004 109.543H60.1016L55.7422 97.5723L51.4004 109.543Z" fill="#E8A1EE"/>
<path d="M79.8418 108.646H73.8301V119H70.4375V93.4062H78.9102C81.793 93.4062 84.0078 94.0625 85.5547 95.375C87.1133 96.6875 87.8926 98.5977 87.8926 101.105C87.8926 102.699 87.459 104.088 86.5918 105.271C85.7363 106.455 84.541 107.34 83.0059 107.926L89.0176 118.789V119H85.3965L79.8418 108.646ZM73.8301 105.887H79.0156C80.6914 105.887 82.0215 105.453 83.0059 104.586C84.002 103.719 84.5 102.559 84.5 101.105C84.5 99.5234 84.0254 98.3105 83.0762 97.4668C82.1387 96.623 80.7793 96.1953 78.998 96.1836H73.8301V105.887Z" fill="#E8A1EE"/>
<path d="M65.7969 174.879C65.4805 177.586 64.4785 179.678 62.791 181.154C61.1152 182.619 58.8828 183.352 56.0938 183.352C53.0703 183.352 50.6445 182.268 48.8164 180.1C47 177.932 46.0918 175.031 46.0918 171.398V168.938C46.0918 166.559 46.5137 164.467 47.3574 162.662C48.2129 160.857 49.4199 159.475 50.9785 158.514C52.5371 157.541 54.3418 157.055 56.3926 157.055C59.1113 157.055 61.291 157.816 62.9316 159.34C64.5723 160.852 65.5273 162.949 65.7969 165.633H62.4043C62.1113 163.594 61.4727 162.117 60.4883 161.203C59.5156 160.289 58.1504 159.832 56.3926 159.832C54.2363 159.832 52.543 160.629 51.3125 162.223C50.0938 163.816 49.4844 166.084 49.4844 169.025V171.504C49.4844 174.281 50.0645 176.49 51.2246 178.131C52.3848 179.771 54.0078 180.592 56.0938 180.592C57.9688 180.592 59.4043 180.17 60.4004 179.326C61.4082 178.471 62.0762 176.988 62.4043 174.879H65.7969Z" fill="#E8A1EE"/>
<path d="M79.3496 183V157.406H86.5742C88.8008 157.406 90.7695 157.898 92.4805 158.883C94.1914 159.867 95.5098 161.268 96.4355 163.084C97.373 164.9 97.8477 166.986 97.8594 169.342V170.977C97.8594 173.391 97.3906 175.506 96.4531 177.322C95.5273 179.139 94.1973 180.533 92.4629 181.506C90.7402 182.479 88.7305 182.977 86.4336 183H79.3496ZM82.7246 160.184V180.24H86.2754C88.877 180.24 90.8984 179.432 92.3398 177.814C93.793 176.197 94.5195 173.895 94.5195 170.906V169.412C94.5195 166.506 93.834 164.25 92.4629 162.645C91.1035 161.027 89.1699 160.207 86.6621 160.184H82.7246Z" fill="#E8A1EE"/>
<path d="M51.3301 231.406L59.6973 252.289L68.0645 231.406H72.4414V257H69.0664V247.033L69.3828 236.275L60.9805 257H58.3965L50.0117 236.328L50.3457 247.033V257H46.9707V231.406H51.3301Z" fill="#E8A1EE"/>
<path d="M90.9512 257H87.5762V231.406H90.9512V257Z" fill="#E8A1EE"/>
<path d="M54.3301 305.406L62.6973 326.289L71.0645 305.406H75.4414V331H72.0664V321.033L72.3828 310.275L63.9805 331H61.3965L53.0117 310.328L53.3457 321.033V331H49.9707V305.406H54.3301Z" fill="#E8A1EE"/>
<path d="M90.3301 331V305.406H97.5547C99.7812 305.406 101.75 305.898 103.461 306.883C105.172 307.867 106.49 309.268 107.416 311.084C108.354 312.9 108.828 314.986 108.84 317.342V318.977C108.84 321.391 108.371 323.506 107.434 325.322C106.508 327.139 105.178 328.533 103.443 329.506C101.721 330.479 99.7109 330.977 97.4141 331H90.3301ZM93.7051 308.184V328.24H97.2559C99.8574 328.24 101.879 327.432 103.32 325.814C104.773 324.197 105.5 321.895 105.5 318.906V317.412C105.5 314.506 104.814 312.25 103.443 310.645C102.084 309.027 100.15 308.207 97.6426 308.184H93.7051Z" fill="#E8A1EE"/>
<path d="M55.9707 400V374.406H63.1953C65.4219 374.406 67.3906 374.898 69.1016 375.883C70.8125 376.867 72.1309 378.268 73.0566 380.084C73.9941 381.9 74.4688 383.986 74.4805 386.342V387.977C74.4805 390.391 74.0117 392.506 73.0742 394.322C72.1484 396.139 70.8184 397.533 69.084 398.506C67.3613 399.479 65.3516 399.977 63.0547 400H55.9707ZM59.3457 377.184V397.24H62.8965C65.498 397.24 67.5195 396.432 68.9609 394.814C70.4141 393.197 71.1406 390.895 71.1406 387.906V386.412C71.1406 383.506 70.4551 381.25 69.084 379.645C67.7246 378.027 65.791 377.207 63.2832 377.184H59.3457Z" fill="#E8A1EE"/>
<path d="M92.1465 400H88.7715V374.406H92.1465V400Z" fill="#E8A1EE"/>
<path d="M53.9707 469V443.406H61.1953C63.4219 443.406 65.3906 443.898 67.1016 444.883C68.8125 445.867 70.1309 447.268 71.0566 449.084C71.9941 450.9 72.4688 452.986 72.4805 455.342V456.977C72.4805 459.391 72.0117 461.506 71.0742 463.322C70.1484 465.139 68.8184 466.533 67.084 467.506C65.3613 468.479 63.3516 468.977 61.0547 469H53.9707ZM57.3457 446.184V466.24H60.8965C63.498 466.24 65.5195 465.432 66.9609 463.814C68.4141 462.197 69.1406 459.895 69.1406 456.906V455.412C69.1406 452.506 68.4551 450.25 67.084 448.645C65.7246 447.027 63.791 446.207 61.2832 446.184H57.3457Z" fill="#E8A1EE"/>
<path d="M86.5254 469V443.406H93.75C95.9766 443.406 97.9453 443.898 99.6562 444.883C101.367 445.867 102.686 447.268 103.611 449.084C104.549 450.9 105.023 452.986 105.035 455.342V456.977C105.035 459.391 104.566 461.506 103.629 463.322C102.703 465.139 101.373 466.533 99.6387 467.506C97.916 468.479 95.9062 468.977 93.6094 469H86.5254ZM89.9004 446.184V466.24H93.4512C96.0527 466.24 98.0742 465.432 99.5156 463.814C100.969 462.197 101.695 459.895 101.695 456.906V455.412C101.695 452.506 101.01 450.25 99.6387 448.645C98.2793 447.027 96.3457 446.207 93.8379 446.184H89.9004Z" fill="#E8A1EE"/>
<path d="M297.33 23.4062L305.697 44.2891L314.064 23.4062H318.441V49H315.066V39.0332L315.383 28.2754L306.98 49H304.396L296.012 28.3281L296.346 39.0332V49H292.971V23.4062H297.33Z" fill="#E8A1EE"/>
<path d="M335.633 49C335.445 48.625 335.293 47.957 335.176 46.9961C333.664 48.5664 331.859 49.3516 329.762 49.3516C327.887 49.3516 326.346 48.8242 325.139 47.7695C323.943 46.7031 323.346 45.3555 323.346 43.7266C323.346 41.7461 324.096 40.2109 325.596 39.1211C327.107 38.0195 329.229 37.4688 331.959 37.4688H335.123V35.9746C335.123 34.8379 334.783 33.9355 334.104 33.2676C333.424 32.5879 332.422 32.248 331.098 32.248C329.938 32.248 328.965 32.541 328.18 33.127C327.395 33.7129 327.002 34.4219 327.002 35.2539H323.732C323.732 34.3047 324.066 33.3906 324.734 32.5117C325.414 31.6211 326.328 30.918 327.477 30.4023C328.637 29.8867 329.908 29.6289 331.291 29.6289C333.482 29.6289 335.199 30.1797 336.441 31.2812C337.684 32.3711 338.328 33.877 338.375 35.7988V44.5527C338.375 46.2988 338.598 47.6875 339.043 48.7188V49H335.633ZM330.236 46.5215C331.256 46.5215 332.223 46.2578 333.137 45.7305C334.051 45.2031 334.713 44.5176 335.123 43.6738V39.7715H332.574C328.59 39.7715 326.598 40.9375 326.598 43.2695C326.598 44.2891 326.938 45.0859 327.617 45.6602C328.297 46.2344 329.17 46.5215 330.236 46.5215Z" fill="#E8A1EE"/>
<path d="M346.549 29.9805L346.654 32.3711C348.107 30.543 350.006 29.6289 352.35 29.6289C356.369 29.6289 358.396 31.8965 358.432 36.4316V49H355.18V36.4141C355.168 35.043 354.852 34.0293 354.23 33.373C353.621 32.7168 352.666 32.3887 351.365 32.3887C350.311 32.3887 349.385 32.6699 348.588 33.2324C347.791 33.7949 347.17 34.5332 346.725 35.4473V49H343.473V29.9805H346.549Z" fill="#E8A1EE"/>
<path d="M375.078 47.1191C373.812 48.6074 371.955 49.3516 369.506 49.3516C367.479 49.3516 365.932 48.7656 364.865 47.5938C363.811 46.4102 363.277 44.6641 363.266 42.3555V29.9805H366.518V42.2676C366.518 45.1504 367.689 46.5918 370.033 46.5918C372.518 46.5918 374.17 45.666 374.99 43.8145V29.9805H378.242V49H375.148L375.078 47.1191Z" fill="#E8A1EE"/>
<path d="M391.092 49.3516C388.514 49.3516 386.416 48.5078 384.799 46.8203C383.182 45.1211 382.373 42.8535 382.373 40.0176V39.4199C382.373 37.5332 382.73 35.8516 383.445 34.375C384.172 32.8867 385.18 31.7266 386.469 30.8945C387.77 30.0508 389.176 29.6289 390.688 29.6289C393.16 29.6289 395.082 30.4434 396.453 32.0723C397.824 33.7012 398.51 36.0332 398.51 39.0684V40.4219H385.625C385.672 42.2969 386.217 43.8145 387.26 44.9746C388.314 46.123 389.65 46.6973 391.268 46.6973C392.416 46.6973 393.389 46.4629 394.186 45.9941C394.982 45.5254 395.68 44.9043 396.277 44.1309L398.264 45.6777C396.67 48.127 394.279 49.3516 391.092 49.3516ZM390.688 32.3008C389.375 32.3008 388.273 32.7812 387.383 33.7422C386.492 34.6914 385.941 36.0273 385.73 37.75H395.258V37.5039C395.164 35.8516 394.719 34.5742 393.922 33.6719C393.125 32.7578 392.047 32.3008 390.688 32.3008Z" fill="#E8A1EE"/>
<path d="M405.822 49H402.57V22H405.822V49Z" fill="#E8A1EE"/>
<path d="M451.797 40.8789C451.48 43.5859 450.479 45.6777 448.791 47.1543C447.115 48.6191 444.883 49.3516 442.094 49.3516C439.07 49.3516 436.645 48.2676 434.816 46.0996C433 43.9316 432.092 41.0312 432.092 37.3984V34.9375C432.092 32.5586 432.514 30.4668 433.357 28.6621C434.213 26.8574 435.42 25.4746 436.979 24.5137C438.537 23.541 440.342 23.0547 442.393 23.0547C445.111 23.0547 447.291 23.8164 448.932 25.3398C450.572 26.8516 451.527 28.9492 451.797 31.6328H448.404C448.111 29.5938 447.473 28.1172 446.488 27.2031C445.516 26.2891 444.15 25.832 442.393 25.832C440.236 25.832 438.543 26.6289 437.312 28.2227C436.094 29.8164 435.484 32.084 435.484 35.0254V37.5039C435.484 40.2812 436.064 42.4902 437.225 44.1309C438.385 45.7715 440.008 46.5918 442.094 46.5918C443.969 46.5918 445.404 46.1699 446.4 45.3262C447.408 44.4707 448.076 42.9883 448.404 40.8789H451.797Z" fill="#E8A1EE"/>
<path d="M467.652 49C467.465 48.625 467.312 47.957 467.195 46.9961C465.684 48.5664 463.879 49.3516 461.781 49.3516C459.906 49.3516 458.365 48.8242 457.158 47.7695C455.963 46.7031 455.365 45.3555 455.365 43.7266C455.365 41.7461 456.115 40.2109 457.615 39.1211C459.127 38.0195 461.248 37.4688 463.979 37.4688H467.143V35.9746C467.143 34.8379 466.803 33.9355 466.123 33.2676C465.443 32.5879 464.441 32.248 463.117 32.248C461.957 32.248 460.984 32.541 460.199 33.127C459.414 33.7129 459.021 34.4219 459.021 35.2539H455.752C455.752 34.3047 456.086 33.3906 456.754 32.5117C457.434 31.6211 458.348 30.918 459.496 30.4023C460.656 29.8867 461.928 29.6289 463.311 29.6289C465.502 29.6289 467.219 30.1797 468.461 31.2812C469.703 32.3711 470.348 33.877 470.395 35.7988V44.5527C470.395 46.2988 470.617 47.6875 471.062 48.7188V49H467.652ZM462.256 46.5215C463.275 46.5215 464.242 46.2578 465.156 45.7305C466.07 45.2031 466.732 44.5176 467.143 43.6738V39.7715H464.594C460.609 39.7715 458.617 40.9375 458.617 43.2695C458.617 44.2891 458.957 45.0859 459.637 45.6602C460.316 46.2344 461.189 46.5215 462.256 46.5215Z" fill="#E8A1EE"/>
<path d="M484.686 32.8984C484.193 32.8164 483.66 32.7754 483.086 32.7754C480.953 32.7754 479.506 33.6836 478.744 35.5V49H475.492V29.9805H478.656L478.709 32.1777C479.775 30.4785 481.287 29.6289 483.244 29.6289C483.877 29.6289 484.357 29.7109 484.686 29.875V32.8984Z" fill="#E8A1EE"/>
<path d="M491.225 49H487.973V22H491.225V49Z" fill="#E8A1EE"/>
<path d="M495.584 39.3145C495.584 37.4512 495.947 35.7754 496.674 34.2871C497.412 32.7988 498.432 31.6504 499.732 30.8418C501.045 30.0332 502.539 29.6289 504.215 29.6289C506.805 29.6289 508.896 30.5254 510.49 32.3184C512.096 34.1113 512.898 36.4961 512.898 39.4727V39.7012C512.898 41.5527 512.541 43.2168 511.826 44.6934C511.123 46.1582 510.109 47.3008 508.785 48.1211C507.473 48.9414 505.961 49.3516 504.25 49.3516C501.672 49.3516 499.58 48.4551 497.975 46.6621C496.381 44.8691 495.584 42.4961 495.584 39.543V39.3145ZM498.854 39.7012C498.854 41.8105 499.34 43.5039 500.312 44.7812C501.297 46.0586 502.609 46.6973 504.25 46.6973C505.902 46.6973 507.215 46.0527 508.188 44.7637C509.16 43.4629 509.646 41.6465 509.646 39.3145C509.646 37.2285 509.148 35.541 508.152 34.252C507.168 32.9512 505.855 32.3008 504.215 32.3008C502.609 32.3008 501.314 32.9395 500.33 34.2168C499.346 35.4941 498.854 37.3223 498.854 39.7012Z" fill="#E8A1EE"/>
<path d="M528.051 43.9551C528.051 43.0762 527.717 42.3965 527.049 41.916C526.393 41.4238 525.238 41.002 523.586 40.6504C521.945 40.2988 520.639 39.877 519.666 39.3848C518.705 38.8926 517.99 38.3066 517.521 37.627C517.064 36.9473 516.836 36.1387 516.836 35.2012C516.836 33.6426 517.492 32.3242 518.805 31.2461C520.129 30.168 521.816 29.6289 523.867 29.6289C526.023 29.6289 527.77 30.1855 529.105 31.2988C530.453 32.4121 531.127 33.8359 531.127 35.5703H527.857C527.857 34.6797 527.477 33.9121 526.715 33.2676C525.965 32.623 525.016 32.3008 523.867 32.3008C522.684 32.3008 521.758 32.5586 521.09 33.0742C520.422 33.5898 520.088 34.2637 520.088 35.0957C520.088 35.8809 520.398 36.4727 521.02 36.8711C521.641 37.2695 522.76 37.6504 524.377 38.0137C526.006 38.377 527.324 38.8105 528.332 39.3145C529.34 39.8184 530.084 40.4277 530.564 41.1426C531.057 41.8457 531.303 42.707 531.303 43.7266C531.303 45.4258 530.623 46.791 529.264 47.8223C527.904 48.8418 526.141 49.3516 523.973 49.3516C522.449 49.3516 521.102 49.082 519.93 48.543C518.758 48.0039 517.838 47.2539 517.17 46.293C516.514 45.3203 516.186 44.2715 516.186 43.1465H519.438C519.496 44.2363 519.93 45.1035 520.738 45.748C521.559 46.3809 522.637 46.6973 523.973 46.6973C525.203 46.6973 526.188 46.4512 526.926 45.959C527.676 45.4551 528.051 44.7871 528.051 43.9551Z" fill="#E8A1EE"/>
<path d="M596.641 49H593.248V37.1699H580.346V49H576.971V23.4062H580.346V34.4102H593.248V23.4062H596.641V49Z" fill="#E8A1EE"/>
<path d="M610.018 49.3516C607.439 49.3516 605.342 48.5078 603.725 46.8203C602.107 45.1211 601.299 42.8535 601.299 40.0176V39.4199C601.299 37.5332 601.656 35.8516 602.371 34.375C603.098 32.8867 604.105 31.7266 605.395 30.8945C606.695 30.0508 608.102 29.6289 609.613 29.6289C612.086 29.6289 614.008 30.4434 615.379 32.0723C616.75 33.7012 617.436 36.0332 617.436 39.0684V40.4219H604.551C604.598 42.2969 605.143 43.8145 606.186 44.9746C607.24 46.123 608.576 46.6973 610.193 46.6973C611.342 46.6973 612.314 46.4629 613.111 45.9941C613.908 45.5254 614.605 44.9043 615.203 44.1309L617.189 45.6777C615.596 48.127 613.205 49.3516 610.018 49.3516ZM609.613 32.3008C608.301 32.3008 607.199 32.7812 606.309 33.7422C605.418 34.6914 604.867 36.0273 604.656 37.75H614.184V37.5039C614.09 35.8516 613.645 34.5742 612.848 33.6719C612.051 32.7578 610.973 32.3008 609.613 32.3008Z" fill="#E8A1EE"/>
<path d="M630.408 32.8984C629.916 32.8164 629.383 32.7754 628.809 32.7754C626.676 32.7754 625.229 33.6836 624.467 35.5V49H621.215V29.9805H624.379L624.432 32.1777C625.498 30.4785 627.01 29.6289 628.967 29.6289C629.6 29.6289 630.08 29.7109 630.408 29.875V32.8984Z" fill="#E8A1EE"/>
<path d="M636.49 29.9805L636.596 32.3711C638.049 30.543 639.947 29.6289 642.291 29.6289C646.311 29.6289 648.338 31.8965 648.373 36.4316V49H645.121V36.4141C645.109 35.043 644.793 34.0293 644.172 33.373C643.562 32.7168 642.607 32.3887 641.307 32.3887C640.252 32.3887 639.326 32.6699 638.529 33.2324C637.732 33.7949 637.111 34.5332 636.666 35.4473V49H633.414V29.9805H636.49Z" fill="#E8A1EE"/>
<path d="M665.02 49C664.832 48.625 664.68 47.957 664.562 46.9961C663.051 48.5664 661.246 49.3516 659.148 49.3516C657.273 49.3516 655.732 48.8242 654.525 47.7695C653.33 46.7031 652.732 45.3555 652.732 43.7266C652.732 41.7461 653.482 40.2109 654.982 39.1211C656.494 38.0195 658.615 37.4688 661.346 37.4688H664.51V35.9746C664.51 34.8379 664.17 33.9355 663.49 33.2676C662.811 32.5879 661.809 32.248 660.484 32.248C659.324 32.248 658.352 32.541 657.566 33.127C656.781 33.7129 656.389 34.4219 656.389 35.2539H653.119C653.119 34.3047 653.453 33.3906 654.121 32.5117C654.801 31.6211 655.715 30.918 656.863 30.4023C658.023 29.8867 659.295 29.6289 660.678 29.6289C662.869 29.6289 664.586 30.1797 665.828 31.2812C667.07 32.3711 667.715 33.877 667.762 35.7988V44.5527C667.762 46.2988 667.984 47.6875 668.43 48.7188V49H665.02ZM659.623 46.5215C660.643 46.5215 661.609 46.2578 662.523 45.7305C663.438 45.2031 664.1 44.5176 664.51 43.6738V39.7715H661.961C657.977 39.7715 655.984 40.9375 655.984 43.2695C655.984 44.2891 656.324 45.0859 657.004 45.6602C657.684 46.2344 658.557 46.5215 659.623 46.5215Z" fill="#E8A1EE"/>
<path d="M675.936 29.9805L676.041 32.3711C677.494 30.543 679.393 29.6289 681.736 29.6289C685.756 29.6289 687.783 31.8965 687.818 36.4316V49H684.566V36.4141C684.555 35.043 684.238 34.0293 683.617 33.373C683.008 32.7168 682.053 32.3887 680.752 32.3887C679.697 32.3887 678.771 32.6699 677.975 33.2324C677.178 33.7949 676.557 34.5332 676.111 35.4473V49H672.859V29.9805H675.936Z" fill="#E8A1EE"/>
<path d="M729.438 37.1699H718.346V46.2402H731.23V49H714.971V23.4062H731.055V26.1836H718.346V34.4102H729.438V37.1699Z" fill="#E8A1EE"/>
<path d="M737.998 29.9805L738.104 32.3711C739.557 30.543 741.455 29.6289 743.799 29.6289C747.818 29.6289 749.846 31.8965 749.881 36.4316V49H746.629V36.4141C746.617 35.043 746.301 34.0293 745.68 33.373C745.07 32.7168 744.115 32.3887 742.814 32.3887C741.76 32.3887 740.834 32.6699 740.037 33.2324C739.24 33.7949 738.619 34.5332 738.174 35.4473V49H734.922V29.9805H737.998Z" fill="#E8A1EE"/>
<path d="M763.979 32.8984C763.486 32.8164 762.953 32.7754 762.379 32.7754C760.246 32.7754 758.799 33.6836 758.037 35.5V49H754.785V29.9805H757.949L758.002 32.1777C759.068 30.4785 760.58 29.6289 762.537 29.6289C763.17 29.6289 763.65 29.7109 763.979 29.875V32.8984Z" fill="#E8A1EE"/>
<path d="M770.518 49H767.266V29.9805H770.518V49ZM767.002 24.9355C767.002 24.4082 767.16 23.9629 767.477 23.5996C767.805 23.2363 768.285 23.0547 768.918 23.0547C769.551 23.0547 770.031 23.2363 770.359 23.5996C770.688 23.9629 770.852 24.4082 770.852 24.9355C770.852 25.4629 770.688 25.9023 770.359 26.2539C770.031 26.6055 769.551 26.7812 768.918 26.7812C768.285 26.7812 767.805 26.6055 767.477 26.2539C767.16 25.9023 767.002 25.4629 767.002 24.9355Z" fill="#E8A1EE"/>
<path d="M774.947 39.332C774.947 36.3438 775.633 33.9824 777.004 32.248C778.375 30.502 780.215 29.6289 782.523 29.6289C784.773 29.6289 786.549 30.3848 787.85 31.8965L787.99 29.9805H790.979V56.3125H787.727V47.2422C786.414 48.6484 784.668 49.3516 782.488 49.3516C780.191 49.3516 778.357 48.4609 776.986 46.6797C775.627 44.8867 774.947 42.5137 774.947 39.5605V39.332ZM778.199 39.7012C778.199 41.8809 778.656 43.5918 779.57 44.834C780.496 46.0762 781.738 46.6973 783.297 46.6973C785.23 46.6973 786.707 45.8418 787.727 44.1309V34.8145C786.695 33.1387 785.23 32.3008 783.332 32.3008C781.762 32.3008 780.514 32.9277 779.588 34.1816C778.662 35.4238 778.199 37.2637 778.199 39.7012Z" fill="#E8A1EE"/>
<path d="M807.941 47.1191C806.676 48.6074 804.818 49.3516 802.369 49.3516C800.342 49.3516 798.795 48.7656 797.729 47.5938C796.674 46.4102 796.141 44.6641 796.129 42.3555V29.9805H799.381V42.2676C799.381 45.1504 800.553 46.5918 802.896 46.5918C805.381 46.5918 807.033 45.666 807.854 43.8145V29.9805H811.105V49H808.012L807.941 47.1191Z" fill="#E8A1EE"/>
<path d="M823.955 49.3516C821.377 49.3516 819.279 48.5078 817.662 46.8203C816.045 45.1211 815.236 42.8535 815.236 40.0176V39.4199C815.236 37.5332 815.594 35.8516 816.309 34.375C817.035 32.8867 818.043 31.7266 819.332 30.8945C820.633 30.0508 822.039 29.6289 823.551 29.6289C826.023 29.6289 827.945 30.4434 829.316 32.0723C830.688 33.7012 831.373 36.0332 831.373 39.0684V40.4219H818.488C818.535 42.2969 819.08 43.8145 820.123 44.9746C821.178 46.123 822.514 46.6973 824.131 46.6973C825.279 46.6973 826.252 46.4629 827.049 45.9941C827.846 45.5254 828.543 44.9043 829.141 44.1309L831.127 45.6777C829.533 48.127 827.143 49.3516 823.955 49.3516ZM823.551 32.3008C822.238 32.3008 821.137 32.7812 820.246 33.7422C819.355 34.6914 818.805 36.0273 818.594 37.75H828.121V37.5039C828.027 35.8516 827.582 34.5742 826.785 33.6719C825.988 32.7578 824.91 32.3008 823.551 32.3008Z" fill="#E8A1EE"/>
<path d="M861.33 23.4062L869.697 44.2891L878.064 23.4062H882.441V49H879.066V39.0332L879.383 28.2754L870.98 49H868.396L860.012 28.3281L860.346 39.0332V49H856.971V23.4062H861.33Z" fill="#E8A1EE"/>
<path d="M891.424 49H888.172V29.9805H891.424V49ZM887.908 24.9355C887.908 24.4082 888.066 23.9629 888.383 23.5996C888.711 23.2363 889.191 23.0547 889.824 23.0547C890.457 23.0547 890.938 23.2363 891.266 23.5996C891.594 23.9629 891.758 24.4082 891.758 24.9355C891.758 25.4629 891.594 25.9023 891.266 26.2539C890.938 26.6055 890.457 26.7812 889.824 26.7812C889.191 26.7812 888.711 26.6055 888.383 26.2539C888.066 25.9023 887.908 25.4629 887.908 24.9355Z" fill="#E8A1EE"/>
<path d="M895.871 39.332C895.871 36.3672 896.557 34.0117 897.928 32.2656C899.299 30.5078 901.115 29.6289 903.377 29.6289C905.697 29.6289 907.508 30.4492 908.809 32.0898L908.967 29.9805H911.938V48.543C911.938 51.0039 911.205 52.9434 909.74 54.3613C908.287 55.7793 906.33 56.4883 903.869 56.4883C902.498 56.4883 901.156 56.1953 899.844 55.6094C898.531 55.0234 897.529 54.2207 896.838 53.2012L898.525 51.25C899.92 52.9727 901.625 53.834 903.641 53.834C905.223 53.834 906.453 53.3887 907.332 52.498C908.223 51.6074 908.668 50.3535 908.668 48.7363V47.1016C907.367 48.6016 905.592 49.3516 903.342 49.3516C901.115 49.3516 899.311 48.4551 897.928 46.6621C896.557 44.8691 895.871 42.4258 895.871 39.332ZM899.141 39.7012C899.141 41.8457 899.58 43.5332 900.459 44.7637C901.338 45.9824 902.568 46.5918 904.15 46.5918C906.201 46.5918 907.707 45.6602 908.668 43.7969V35.1133C907.672 33.2969 906.178 32.3887 904.186 32.3887C902.604 32.3887 901.367 33.0039 900.477 34.2344C899.586 35.4648 899.141 37.2871 899.141 39.7012Z" fill="#E8A1EE"/>
<path d="M928.602 47.1191C927.336 48.6074 925.479 49.3516 923.029 49.3516C921.002 49.3516 919.455 48.7656 918.389 47.5938C917.334 46.4102 916.801 44.6641 916.789 42.3555V29.9805H920.041V42.2676C920.041 45.1504 921.213 46.5918 923.557 46.5918C926.041 46.5918 927.693 45.666 928.514 43.8145V29.9805H931.766V49H928.672L928.602 47.1191Z" fill="#E8A1EE"/>
<path d="M944.615 49.3516C942.037 49.3516 939.939 48.5078 938.322 46.8203C936.705 45.1211 935.896 42.8535 935.896 40.0176V39.4199C935.896 37.5332 936.254 35.8516 936.969 34.375C937.695 32.8867 938.703 31.7266 939.992 30.8945C941.293 30.0508 942.699 29.6289 944.211 29.6289C946.684 29.6289 948.605 30.4434 949.977 32.0723C951.348 33.7012 952.033 36.0332 952.033 39.0684V40.4219H939.148C939.195 42.2969 939.74 43.8145 940.783 44.9746C941.838 46.123 943.174 46.6973 944.791 46.6973C945.939 46.6973 946.912 46.4629 947.709 45.9941C948.506 45.5254 949.203 44.9043 949.801 44.1309L951.787 45.6777C950.193 48.127 947.803 49.3516 944.615 49.3516ZM944.211 32.3008C942.898 32.3008 941.797 32.7812 940.906 33.7422C940.016 34.6914 939.465 36.0273 939.254 37.75H948.781V37.5039C948.688 35.8516 948.242 34.5742 947.445 33.6719C946.648 32.7578 945.57 32.3008 944.211 32.3008Z" fill="#E8A1EE"/>
<path d="M959.346 49H956.094V22H959.346V49Z" fill="#E8A1EE"/>
<path fill-rule="evenodd" clip-rule="evenodd" d="M193.268 367.732C192.291 366.756 190.709 366.756 189.732 367.732C188.756 368.709 188.756 370.291 189.732 371.268L203.283 384.819L190.095 398.523C189.138 399.518 189.168 401.101 190.163 402.058C191.158 403.015 192.741 402.985 193.698 401.99L206.82 388.355L220.205 401.741C221.181 402.717 222.764 402.717 223.741 401.741C224.717 400.764 224.717 399.181 223.741 398.205L210.287 384.752L223.231 371.301C224.188 370.306 224.158 368.724 223.163 367.766C222.168 366.809 220.586 366.839 219.628 367.834L206.751 381.215L193.268 367.732Z" fill="#FD0C0C"/>
<path fill-rule="evenodd" clip-rule="evenodd" d="M193.268 436.732C192.291 435.756 190.709 435.756 189.732 436.732C188.756 437.709 188.756 439.291 189.732 440.268L203.283 453.819L190.095 467.523C189.138 468.518 189.168 470.101 190.163 471.058C191.158 472.015 192.741 471.985 193.698 470.99L206.82 457.355L220.205 470.741C221.181 471.717 222.764 471.717 223.741 470.741C224.717 469.764 224.717 468.181 223.741 467.205L210.287 453.752L223.231 440.301C224.188 439.306 224.158 437.724 223.163 436.766C222.168 435.809 220.586 435.839 219.628 436.834L206.751 450.215L193.268 436.732Z" fill="#FD0C0C"/>
<path fill-rule="evenodd" clip-rule="evenodd" d="M336.268 227.732C335.291 226.756 333.709 226.756 332.732 227.732C331.756 228.709 331.756 230.291 332.732 231.268L346.283 244.819L333.095 258.523C332.138 259.518 332.168 261.101 333.163 262.058C334.158 263.015 335.741 262.985 336.698 261.99L349.82 248.355L363.205 261.741C364.181 262.717 365.764 262.717 366.741 261.741C367.717 260.764 367.717 259.181 366.741 258.205L353.287 244.752L366.231 231.301C367.188 230.306 367.158 228.724 366.163 227.766C365.168 226.809 363.586 226.839 362.628 227.834L349.751 241.215L336.268 227.732Z" fill="#FD0C0C"/>
<path fill-rule="evenodd" clip-rule="evenodd" d="M473.268 153.732C472.291 152.756 470.709 152.756 469.732 153.732C468.756 154.709 468.756 156.291 469.732 157.268L483.283 170.819L470.095 184.523C469.138 185.518 469.168 187.101 470.163 188.058C471.158 189.015 472.741 188.985 473.698 187.99L486.82 174.355L500.205 187.741C501.181 188.717 502.764 188.717 503.741 187.741C504.717 186.764 504.717 185.181 503.741 184.205L490.287 170.752L503.231 157.301C504.188 156.306 504.158 154.724 503.163 153.766C502.168 152.809 500.586 152.839 499.628 153.834L486.751 167.215L473.268 153.732Z" fill="#FD0C0C"/>
<path fill-rule="evenodd" clip-rule="evenodd" d="M619.268 83.7322C618.291 82.7559 616.709 82.7559 615.732 83.7322C614.756 84.7085 614.756 86.2915 615.732 87.2678L629.283 100.819L616.095 114.523C615.138 115.518 615.168 117.101 616.163 118.058C617.158 119.015 618.741 118.985 619.698 117.99L632.82 104.355L646.205 117.741C647.181 118.717 648.764 118.717 649.741 117.741C650.717 116.764 650.717 115.181 649.741 114.205L636.287 100.752L649.231 87.3014C650.188 86.3065 650.158 84.7239 649.163 83.7665C648.168 82.8091 646.586 82.8395 645.628 83.8343L632.751 97.2155L619.268 83.7322Z" fill="#FD0C0C"/>
<path fill-rule="evenodd" clip-rule="evenodd" d="M759.268 83.7322C758.291 82.7559 756.709 82.7559 755.732 83.7322C754.756 84.7085 754.756 86.2915 755.732 87.2678L769.283 100.819L756.095 114.523C755.138 115.518 755.168 117.101 756.163 118.058C757.158 119.015 758.741 118.985 759.698 117.99L772.82 104.355L786.205 117.741C787.181 118.717 788.764 118.717 789.741 117.741C790.717 116.764 790.717 115.181 789.741 114.205L776.287 100.752L789.231 87.3014C790.188 86.3065 790.158 84.7239 789.163 83.7665C788.168 82.8091 786.586 82.8395 785.628 83.8343L772.751 97.2155L759.268 83.7322Z" fill="#FD0C0C"/>
<path fill-rule="evenodd" clip-rule="evenodd" d="M619.268 364.732C618.291 363.756 616.709 363.756 615.732 364.732C614.756 365.709 614.756 367.291 615.732 368.268L629.283 381.819L616.095 395.523C615.138 396.518 615.168 398.101 616.163 399.058C617.158 400.015 618.741 399.985 619.698 398.99L632.82 385.355L646.205 398.741C647.181 399.717 648.764 399.717 649.741 398.741C650.717 397.764 650.717 396.181 649.741 395.205L636.287 381.752L649.231 368.301C650.188 367.306 650.158 365.724 649.163 364.766C648.168 363.809 646.586 363.839 645.628 364.834L632.751 378.215L619.268 364.732Z" fill="#FD0C0C"/>
<path fill-rule="evenodd" clip-rule="evenodd" d="M473.268 364.732C472.291 363.756 470.709 363.756 469.732 364.732C468.756 365.709 468.756 367.291 469.732 368.268L483.283 381.819L470.095 395.523C469.138 396.518 469.168 398.101 470.163 399.058C471.158 400.015 472.741 399.985 473.698 398.99L486.82 385.355L500.205 398.741C501.181 399.717 502.764 399.717 503.741 398.741C504.717 397.764 504.717 396.181 503.741 395.205L490.287 381.752L503.231 368.301C504.188 367.306 504.158 365.724 503.163 364.766C502.168 363.809 500.586 363.839 499.628 364.834L486.751 378.215L473.268 364.732Z" fill="#FD0C0C"/>
<path fill-rule="evenodd" clip-rule="evenodd" d="M336.268 86.7322C335.291 85.7559 333.709 85.7559 332.732 86.7322C331.756 87.7085 331.756 89.2915 332.732 90.2678L346.283 103.819L333.095 117.523C332.138 118.518 332.168 120.101 333.163 121.058C334.158 122.015 335.741 121.985 336.698 120.99L349.82 107.355L363.205 120.741C364.181 121.717 365.764 121.717 366.741 120.741C367.717 119.764 367.717 118.181 366.741 117.205L353.287 103.752L366.231 90.3014C367.188 89.3065 367.158 87.7239 366.163 86.7665C365.168 85.8091 363.586 85.8395 362.628 86.8343L349.751 100.215L336.268 86.7322Z" fill="#FD0C0C"/>
<path fill-rule="evenodd" clip-rule="evenodd" d="M895.268 86.7322C894.291 85.7559 892.709 85.7559 891.732 86.7322C890.756 87.7085 890.756 89.2915 891.732 90.2678L905.283 103.819L892.095 117.523C891.138 118.518 891.168 120.101 892.163 121.058C893.158 122.015 894.741 121.985 895.698 120.99L908.82 107.355L922.205 120.741C923.181 121.717 924.764 121.717 925.741 120.741C926.717 119.764 926.717 118.181 925.741 117.205L912.287 103.752L925.231 90.3014C926.188 89.3065 926.158 87.7239 925.163 86.7665C924.168 85.8091 922.586 85.8395 921.628 86.8343L908.751 100.215L895.268 86.7322Z" fill="#FD0C0C"/>
<path fill-rule="evenodd" clip-rule="evenodd" d="M333.268 368.732C332.291 367.756 330.709 367.756 329.732 368.732C328.756 369.709 328.756 371.291 329.732 372.268L343.283 385.819L330.095 399.523C329.138 400.518 329.168 402.101 330.163 403.058C331.158 404.015 332.741 403.985 333.698 402.99L346.82 389.355L360.205 402.741C361.181 403.717 362.764 403.717 363.741 402.741C364.717 401.764 364.717 400.181 363.741 399.205L350.287 385.752L363.231 372.301C364.188 371.306 364.158 369.724 363.163 368.766C362.168 367.809 360.586 367.839 359.628 368.834L346.751 382.215L333.268 368.732Z" fill="#FD0C0C"/>
<path fill-rule="evenodd" clip-rule="evenodd" d="M895.268 364.732C894.291 363.756 892.709 363.756 891.732 364.732C890.756 365.709 890.756 367.291 891.732 368.268L905.283 381.819L892.095 395.523C891.138 396.518 891.168 398.101 892.163 399.058C893.158 400.015 894.741 399.985 895.698 398.99L908.82 385.355L922.205 398.741C923.181 399.717 924.764 399.717 925.741 398.741C926.717 397.764 926.717 396.181 925.741 395.205L912.287 381.752L925.231 368.301C926.188 367.306 926.158 365.724 925.163 364.766C924.168 363.809 922.586 363.839 921.628 364.834L908.751 378.215L895.268 364.732Z" fill="#FD0C0C"/>
<path fill-rule="evenodd" clip-rule="evenodd" d="M336.268 153.732C335.291 152.756 333.709 152.756 332.732 153.732C331.756 154.709 331.756 156.291 332.732 157.268L346.283 170.819L333.095 184.523C332.138 185.518 332.168 187.101 333.163 188.058C334.158 189.015 335.741 188.985 336.698 187.99L349.82 174.355L363.205 187.741C364.181 188.717 365.764 188.717 366.741 187.741C367.717 186.764 367.717 185.181 366.741 184.205L353.287 170.752L366.231 157.301C367.188 156.306 367.158 154.724 366.163 153.766C365.168 152.809 363.586 152.839 362.628 153.834L349.751 167.215L336.268 153.732Z" fill="#FD0C0C"/>
<path fill-rule="evenodd" clip-rule="evenodd" d="M619.268 156.732C618.291 155.756 616.709 155.756 615.732 156.732C614.756 157.709 614.756 159.291 615.732 160.268L629.283 173.819L616.095 187.523C615.138 188.518 615.168 190.101 616.163 191.058C617.158 192.015 618.741 191.985 619.698 190.99L632.82 177.355L646.205 190.741C647.181 191.717 648.764 191.717 649.741 190.741C650.717 189.764 650.717 188.181 649.741 187.205L636.287 173.752L649.231 160.301C650.188 159.306 650.158 157.724 649.163 156.766C648.168 155.809 646.586 155.839 645.628 156.834L632.751 170.215L619.268 156.732Z" fill="#FD0C0C"/>
<path fill-rule="evenodd" clip-rule="evenodd" d="M895.268 156.732C894.291 155.756 892.709 155.756 891.732 156.732C890.756 157.709 890.756 159.291 891.732 160.268L905.283 173.819L892.095 187.523C891.138 188.518 891.168 190.101 892.163 191.058C893.158 192.015 894.741 191.985 895.698 190.99L908.82 177.355L922.205 190.741C923.181 191.717 924.764 191.717 925.741 190.741C926.717 189.764 926.717 188.181 925.741 187.205L912.287 173.752L925.231 160.301C926.188 159.306 926.158 157.724 925.163 156.766C924.168 155.809 922.586 155.839 921.628 156.834L908.751 170.215L895.268 156.732Z" fill="#FD0C0C"/>
<path fill-rule="evenodd" clip-rule="evenodd" d="M619.268 230.732C618.291 229.756 616.709 229.756 615.732 230.732C614.756 231.709 614.756 233.291 615.732 234.268L629.283 247.819L616.095 261.523C615.138 262.518 615.168 264.101 616.163 265.058C617.158 266.015 618.741 265.985 619.698 264.99L632.82 251.355L646.205 264.741C647.181 265.717 648.764 265.717 649.741 264.741C650.717 263.764 650.717 262.181 649.741 261.205L636.287 247.752L649.231 234.301C650.188 233.306 650.158 231.724 649.163 230.766C648.168 229.809 646.586 229.839 645.628 230.834L632.751 244.215L619.268 230.732Z" fill="#FD0C0C"/>
<path fill-rule="evenodd" clip-rule="evenodd" d="M473.268 230.732C472.291 229.756 470.709 229.756 469.732 230.732C468.756 231.709 468.756 233.291 469.732 234.268L483.283 247.819L470.095 261.523C469.138 262.518 469.168 264.101 470.163 265.058C471.158 266.015 472.741 265.985 473.698 264.99L486.82 251.355L500.205 264.741C501.181 265.717 502.764 265.717 503.741 264.741C504.717 263.764 504.717 262.181 503.741 261.205L490.287 247.752L503.231 234.301C504.188 233.306 504.158 231.724 503.163 230.766C502.168 229.809 500.586 229.839 499.628 230.834L486.751 244.215L473.268 230.732Z" fill="#FD0C0C"/>
<path fill-rule="evenodd" clip-rule="evenodd" d="M473.268 433.732C472.291 432.756 470.709 432.756 469.732 433.732C468.756 434.709 468.756 436.291 469.732 437.268L483.283 450.819L470.095 464.523C469.138 465.518 469.168 467.101 470.163 468.058C471.158 469.015 472.741 468.985 473.698 467.99L486.82 454.355L500.205 467.741C501.181 468.717 502.764 468.717 503.741 467.741C504.717 466.764 504.717 465.181 503.741 464.205L490.287 450.752L503.231 437.301C504.188 436.306 504.158 434.724 503.163 433.766C502.168 432.809 500.586 432.839 499.628 433.834L486.751 447.215L473.268 433.732Z" fill="#FD0C0C"/>
<path fill-rule="evenodd" clip-rule="evenodd" d="M619.268 433.732C618.291 432.756 616.709 432.756 615.732 433.732C614.756 434.709 614.756 436.291 615.732 437.268L629.283 450.819L616.095 464.523C615.138 465.518 615.168 467.101 616.163 468.058C617.158 469.015 618.741 468.985 619.698 467.99L632.82 454.355L646.205 467.741C647.181 468.717 648.764 468.717 649.741 467.741C650.717 466.764 650.717 465.181 649.741 464.205L636.287 450.752L649.231 437.301C650.188 436.306 650.158 434.724 649.163 433.766C648.168 432.809 646.586 432.839 645.628 433.834L632.751 447.215L619.268 433.732Z" fill="#FD0C0C"/>
<path fill-rule="evenodd" clip-rule="evenodd" d="M790.967 384.446C792.042 383.579 792.211 382.005 791.344 380.931C790.477 379.856 788.903 379.687 787.828 380.554L764.421 399.431L765.515 387.947C765.646 386.573 764.638 385.353 763.263 385.222C761.889 385.091 760.668 386.099 760.537 387.473L759.011 403.496C758.911 404.55 759.481 405.513 760.371 405.964C761.244 407.009 762.796 407.165 763.859 406.307L790.967 384.446Z" fill="#2CF30B"/>
<path fill-rule="evenodd" clip-rule="evenodd" d="M762.268 309.732C761.291 308.756 759.709 308.756 758.732 309.732C757.756 310.709 757.756 312.291 758.732 313.268L772.283 326.819L759.095 340.523C758.138 341.518 758.168 343.101 759.163 344.058C760.158 345.015 761.741 344.985 762.698 343.99L775.82 330.355L789.205 343.741C790.181 344.717 791.764 344.717 792.741 343.741C793.717 342.764 793.717 341.181 792.741 340.205L779.287 326.752L792.231 313.301C793.188 312.306 793.158 310.724 792.163 309.766C791.168 308.809 789.586 308.839 788.628 309.834L775.751 323.215L762.268 309.732Z" fill="#FD0C0C"/>
<path fill-rule="evenodd" clip-rule="evenodd" d="M759.268 235.732C758.291 234.756 756.709 234.756 755.732 235.732C754.756 236.709 754.756 238.291 755.732 239.268L769.283 252.819L756.095 266.523C755.138 267.518 755.168 269.101 756.163 270.058C757.158 271.015 758.741 270.985 759.698 269.99L772.82 256.355L786.205 269.741C787.181 270.717 788.764 270.717 789.741 269.741C790.717 268.764 790.717 267.181 789.741 266.205L776.287 252.752L789.231 239.301C790.188 238.306 790.158 236.724 789.163 235.766C788.168 234.809 786.586 234.839 785.628 235.834L772.751 249.215L759.268 235.732Z" fill="#FD0C0C"/>
<path fill-rule="evenodd" clip-rule="evenodd" d="M759.268 161.732C758.291 160.756 756.709 160.756 755.732 161.732C754.756 162.709 754.756 164.291 755.732 165.268L769.283 178.819L756.095 192.523C755.138 193.518 755.168 195.101 756.163 196.058C757.158 197.015 758.741 196.985 759.698 195.99L772.82 182.355L786.205 195.741C787.181 196.717 788.764 196.717 789.741 195.741C790.717 194.764 790.717 193.181 789.741 192.205L776.287 178.752L789.231 165.301C790.188 164.306 790.158 162.724 789.163 161.766C788.168 160.809 786.586 160.839 785.628 161.834L772.751 175.215L759.268 161.732Z" fill="#FD0C0C"/>
<path fill-rule="evenodd" clip-rule="evenodd" d="M759.268 441.732C758.291 440.756 756.709 440.756 755.732 441.732C754.756 442.709 754.756 444.291 755.732 445.268L769.283 458.819L756.095 472.523C755.138 473.518 755.168 475.101 756.163 476.058C757.158 477.015 758.741 476.985 759.698 475.99L772.82 462.355L786.205 475.741C787.181 476.717 788.764 476.717 789.741 475.741C790.717 474.764 790.717 473.181 789.741 472.205L776.287 458.752L789.231 445.301C790.188 444.306 790.158 442.724 789.163 441.766C788.168 440.809 786.586 440.839 785.628 441.834L772.751 455.215L759.268 441.732Z" fill="#FD0C0C"/>
<path fill-rule="evenodd" clip-rule="evenodd" d="M217.967 172.446C219.042 171.579 219.211 170.005 218.344 168.931C217.477 167.856 215.903 167.687 214.828 168.554L191.421 187.431L192.515 175.947C192.646 174.573 191.638 173.353 190.263 173.222C188.889 173.091 187.668 174.099 187.537 175.473L186.011 191.496C185.911 192.55 186.481 193.513 187.371 193.964C188.244 195.009 189.796 195.165 190.859 194.307L217.967 172.446Z" fill="#2CF30B"/>
<path fill-rule="evenodd" clip-rule="evenodd" d="M190.268 232.732C189.291 231.756 187.709 231.756 186.732 232.732C185.756 233.709 185.756 235.291 186.732 236.268L200.283 249.819L187.095 263.523C186.138 264.518 186.168 266.101 187.163 267.058C188.158 268.015 189.741 267.985 190.698 266.99L203.82 253.355L217.205 266.741C218.181 267.717 219.764 267.717 220.741 266.741C221.717 265.764 221.717 264.181 220.741 263.205L207.287 249.752L220.231 236.301C221.188 235.306 221.158 233.724 220.163 232.766C219.168 231.809 217.586 231.839 216.628 232.834L203.751 246.215L190.268 232.732Z" fill="#FD0C0C"/>
<path fill-rule="evenodd" clip-rule="evenodd" d="M197.268 309.732C196.291 308.756 194.709 308.756 193.732 309.732C192.756 310.709 192.756 312.291 193.732 313.268L207.283 326.819L194.095 340.523C193.138 341.518 193.168 343.101 194.163 344.058C195.158 345.015 196.741 344.985 197.698 343.99L210.82 330.355L224.205 343.741C225.181 344.717 226.764 344.717 227.741 343.741C228.717 342.764 228.717 341.181 227.741 340.205L214.287 326.752L227.231 313.301C228.188 312.306 228.158 310.724 227.163 309.766C226.168 308.809 224.586 308.839 223.628 309.834L210.751 323.215L197.268 309.732Z" fill="#FD0C0C"/>
<path fill-rule="evenodd" clip-rule="evenodd" d="M191.268 94.7322C190.291 93.7559 188.709 93.7559 187.732 94.7322C186.756 95.7085 186.756 97.2915 187.732 98.2678L201.283 111.819L188.095 125.523C187.138 126.518 187.168 128.101 188.163 129.058C189.158 130.015 190.741 129.985 191.698 128.99L204.82 115.355L218.205 128.741C219.181 129.717 220.764 129.717 221.741 128.741C222.717 127.764 222.717 126.181 221.741 125.205L208.287 111.752L221.231 98.3014C222.188 97.3065 222.158 95.7239 221.163 94.7665C220.168 93.8091 218.586 93.8395 217.628 94.8343L204.751 108.215L191.268 94.7322Z" fill="#FD0C0C"/>
<path fill-rule="evenodd" clip-rule="evenodd" d="M505.967 90.4461C507.042 89.5794 507.211 88.0055 506.344 86.9307C505.477 85.8559 503.903 85.6873 502.828 86.5541L479.421 105.431L480.515 93.9475C480.646 92.573 479.638 91.3526 478.263 91.2217C476.889 91.0908 475.668 92.0989 475.537 93.4734L474.011 109.496C473.911 110.55 474.481 111.513 475.371 111.964C476.244 113.009 477.796 113.165 478.859 112.307L505.967 90.4461Z" fill="#2CF30B"/>
<path fill-rule="evenodd" clip-rule="evenodd" d="M476.268 301.732C475.291 300.756 473.709 300.756 472.732 301.732C471.756 302.709 471.756 304.291 472.732 305.268L486.283 318.819L473.095 332.523C472.138 333.518 472.168 335.101 473.163 336.058C474.158 337.015 475.741 336.985 476.698 335.99L489.82 322.355L503.205 335.741C504.181 336.717 505.764 336.717 506.741 335.741C507.717 334.764 507.717 333.181 506.741 332.205L493.287 318.752L506.231 305.301C507.188 304.306 507.158 302.724 506.163 301.766C505.168 300.809 503.586 300.839 502.628 301.834L489.751 315.215L476.268 301.732Z" fill="#FD0C0C"/>
<path fill-rule="evenodd" clip-rule="evenodd" d="M923.967 237.446C925.042 236.579 925.211 235.005 924.344 233.931C923.477 232.856 921.903 232.687 920.828 233.554L897.421 252.431L898.515 240.947C898.646 239.573 897.638 238.353 896.263 238.222C894.889 238.091 893.668 239.099 893.537 240.473L892.011 256.496C891.911 257.55 892.481 258.513 893.371 258.964C894.244 260.009 895.796 260.165 896.859 259.307L923.967 237.446Z" fill="#2CF30B"/>
<path fill-rule="evenodd" clip-rule="evenodd" d="M894.268 295.732C893.291 294.756 891.709 294.756 890.732 295.732C889.756 296.709 889.756 298.291 890.732 299.268L904.283 312.819L891.095 326.523C890.138 327.518 890.168 329.101 891.163 330.058C892.158 331.015 893.741 330.985 894.698 329.99L907.82 316.355L921.205 329.741C922.181 330.717 923.764 330.717 924.741 329.741C925.717 328.764 925.717 327.181 924.741 326.205L911.287 312.752L924.231 299.301C925.188 298.306 925.158 296.724 924.163 295.766C923.168 294.809 921.586 294.839 920.628 295.834L907.751 309.215L894.268 295.732Z" fill="#FD0C0C"/>
<path fill-rule="evenodd" clip-rule="evenodd" d="M896.268 433.732C895.291 432.756 893.709 432.756 892.732 433.732C891.756 434.709 891.756 436.291 892.732 437.268L906.283 450.819L893.095 464.523C892.138 465.518 892.168 467.101 893.163 468.058C894.158 469.015 895.741 468.985 896.698 467.99L909.82 454.355L923.205 467.741C924.181 468.717 925.764 468.717 926.741 467.741C927.717 466.764 927.717 465.181 926.741 464.205L913.287 450.752L926.231 437.301C927.188 436.306 927.158 434.724 926.163 433.766C925.168 432.809 923.586 432.839 922.628 433.834L909.751 447.215L896.268 433.732Z" fill="#FD0C0C"/>
<path fill-rule="evenodd" clip-rule="evenodd" d="M363.967 440.446C365.042 439.579 365.211 438.005 364.344 436.931C363.477 435.856 361.903 435.687 360.828 436.554L337.421 455.431L338.515 443.947C338.646 442.573 337.638 441.353 336.263 441.222C334.889 441.091 333.668 442.099 333.537 443.473L332.011 459.496C331.911 460.55 332.481 461.513 333.371 461.964C334.244 463.009 335.796 463.165 336.859 462.307L363.967 440.446Z" fill="#2CF30B"/>
<path fill-rule="evenodd" clip-rule="evenodd" d="M336.268 301.732C335.291 300.756 333.709 300.756 332.732 301.732C331.756 302.709 331.756 304.291 332.732 305.268L346.283 318.819L333.095 332.523C332.138 333.518 332.168 335.101 333.163 336.058C334.158 337.015 335.741 336.985 336.698 335.99L349.82 322.355L363.205 335.741C364.181 336.717 365.764 336.717 366.741 335.741C367.717 334.764 367.717 333.181 366.741 332.205L353.287 318.752L366.231 305.301C367.188 304.306 367.158 302.724 366.163 301.766C365.168 300.809 363.586 300.839 362.628 301.834L349.751 315.215L336.268 301.732Z" fill="#FD0C0C"/>
<path fill-rule="evenodd" clip-rule="evenodd" d="M642.967 308.446C644.042 307.579 644.211 306.005 643.344 304.931C642.477 303.856 640.903 303.687 639.828 304.554L616.421 323.431L617.515 311.947C617.646 310.573 616.638 309.353 615.263 309.222C613.889 309.091 612.668 310.099 612.537 311.473L611.011 327.496C610.911 328.55 611.481 329.513 612.371 329.964C613.244 331.009 614.796 331.165 615.859 330.307L642.967 308.446Z" fill="#2CF30B"/>
</svg>
