<svg viewBox="0 0 617 504" fill="none" xmlns="http://www.w3.org/2000/svg">
<g id="0128215">
<g id="Group 119">
<g id="Group 113">
<path id="Ellipse 13" d="M396 259C396 327.483 340.483 383 272 383C203.517 383 148 327.483 148 259C148 190.517 203.517 135 272 135C340.483 135 396 190.517 396 259Z" fill="#BB7C42"/>
<path id="Ellipse 13 (Stroke)" fill-rule="evenodd" clip-rule="evenodd" d="M329.861 368.701C312.587 377.831 292.897 383 272 383C203.517 383 148 327.483 148 259C148 213.373 172.644 173.501 209.347 151.97C210.783 151.127 212.237 150.313 213.71 149.527C231.086 140.255 250.929 135 272 135C340.483 135 396 190.517 396 259C396 304.801 371.168 344.802 334.233 366.276C332.794 367.112 331.336 367.921 329.861 368.701ZM336.992 370.456C375.279 348.082 401 306.545 401 259C401 187.755 343.245 130 272 130C200.755 130 143 187.755 143 259C143 330.245 200.755 388 272 388C293.844 388 314.42 382.571 332.452 372.988L334.232 374.768L337.768 371.232L336.992 370.456Z" fill="white"/>
<path id="Vector 1 (Stroke)" fill-rule="evenodd" clip-rule="evenodd" d="M401 260.5H144V257.5H401V260.5Z" fill="white"/>
<path id="Vector 2 (Stroke)" fill-rule="evenodd" clip-rule="evenodd" d="M208.688 369.273L331.688 147.273L334.312 148.727L211.312 370.727L208.688 369.273Z" fill="white"/>
<path id="Vector 3 (Stroke)" fill-rule="evenodd" clip-rule="evenodd" d="M332.189 371.729L208.189 148.729L210.811 147.271L334.811 370.271L332.189 371.729Z" fill="white"/>
</g>
<g id="Group 117">
<g id="Beatriz">
<path d="M210.971 96V70.4062H219.338C222.115 70.4062 224.201 70.9805 225.596 72.1289C227.002 73.2773 227.705 74.9766 227.705 77.2266C227.705 78.4219 227.365 79.4824 226.686 80.4082C226.006 81.3223 225.08 82.0312 223.908 82.5352C225.291 82.9219 226.381 83.6602 227.178 84.75C227.986 85.8281 228.391 87.1172 228.391 88.6172C228.391 90.9141 227.646 92.7188 226.158 94.0312C224.67 95.3438 222.566 96 219.848 96H210.971ZM214.346 84.0293V93.2402H219.918C221.488 93.2402 222.725 92.8359 223.627 92.0273C224.541 91.207 224.998 90.082 224.998 88.6523C224.998 85.5703 223.322 84.0293 219.971 84.0293H214.346ZM214.346 81.3223H219.443C220.92 81.3223 222.098 80.9531 222.977 80.2148C223.867 79.4766 224.312 78.4746 224.312 77.209C224.312 75.8027 223.902 74.7832 223.082 74.1504C222.262 73.5059 221.014 73.1836 219.338 73.1836H214.346V81.3223Z" fill="white"/>
<path d="M240.783 96.3516C238.205 96.3516 236.107 95.5078 234.49 93.8203C232.873 92.1211 232.064 89.8535 232.064 87.0176V86.4199C232.064 84.5332 232.422 82.8516 233.137 81.375C233.863 79.8867 234.871 78.7266 236.16 77.8945C237.461 77.0508 238.867 76.6289 240.379 76.6289C242.852 76.6289 244.773 77.4434 246.145 79.0723C247.516 80.7012 248.201 83.0332 248.201 86.0684V87.4219H235.316C235.363 89.2969 235.908 90.8145 236.951 91.9746C238.006 93.123 239.342 93.6973 240.959 93.6973C242.107 93.6973 243.08 93.4629 243.877 92.9941C244.674 92.5254 245.371 91.9043 245.969 91.1309L247.955 92.6777C246.361 95.127 243.971 96.3516 240.783 96.3516ZM240.379 79.3008C239.066 79.3008 237.965 79.7812 237.074 80.7422C236.184 81.6914 235.633 83.0273 235.422 84.75H244.949V84.5039C244.855 82.8516 244.41 81.5742 243.613 80.6719C242.816 79.7578 241.738 79.3008 240.379 79.3008Z" fill="white"/>
<path d="M263.723 96C263.535 95.625 263.383 94.957 263.266 93.9961C261.754 95.5664 259.949 96.3516 257.852 96.3516C255.977 96.3516 254.436 95.8242 253.229 94.7695C252.033 93.7031 251.436 92.3555 251.436 90.7266C251.436 88.7461 252.186 87.2109 253.686 86.1211C255.197 85.0195 257.318 84.4688 260.049 84.4688H263.213V82.9746C263.213 81.8379 262.873 80.9355 262.193 80.2676C261.514 79.5879 260.512 79.248 259.188 79.248C258.027 79.248 257.055 79.541 256.27 80.127C255.484 80.7129 255.092 81.4219 255.092 82.2539H251.822C251.822 81.3047 252.156 80.3906 252.824 79.5117C253.504 78.6211 254.418 77.918 255.566 77.4023C256.727 76.8867 257.998 76.6289 259.381 76.6289C261.572 76.6289 263.289 77.1797 264.531 78.2812C265.773 79.3711 266.418 80.877 266.465 82.7988V91.5527C266.465 93.2988 266.688 94.6875 267.133 95.7188V96H263.723ZM258.326 93.5215C259.346 93.5215 260.312 93.2578 261.227 92.7305C262.141 92.2031 262.803 91.5176 263.213 90.6738V86.7715H260.664C256.68 86.7715 254.688 87.9375 254.688 90.2695C254.688 91.2891 255.027 92.0859 255.707 92.6602C256.387 93.2344 257.26 93.5215 258.326 93.5215Z" fill="white"/>
<path d="M275.975 72.375V76.9805H279.525V79.4941H275.975V91.2891C275.975 92.0508 276.133 92.625 276.449 93.0117C276.766 93.3867 277.305 93.5742 278.066 93.5742C278.441 93.5742 278.957 93.5039 279.613 93.3633V96C278.758 96.2344 277.926 96.3516 277.117 96.3516C275.664 96.3516 274.568 95.9121 273.83 95.0332C273.092 94.1543 272.723 92.9062 272.723 91.2891V79.4941H269.26V76.9805H272.723V72.375H275.975Z" fill="white"/>
<path d="M292.533 79.8984C292.041 79.8164 291.508 79.7754 290.934 79.7754C288.801 79.7754 287.354 80.6836 286.592 82.5V96H283.34V76.9805H286.504L286.557 79.1777C287.623 77.4785 289.135 76.6289 291.092 76.6289C291.725 76.6289 292.205 76.7109 292.533 76.875V79.8984Z" fill="white"/>
<path d="M299.072 96H295.82V76.9805H299.072V96ZM295.557 71.9355C295.557 71.4082 295.715 70.9629 296.031 70.5996C296.359 70.2363 296.84 70.0547 297.473 70.0547C298.105 70.0547 298.586 70.2363 298.914 70.5996C299.242 70.9629 299.406 71.4082 299.406 71.9355C299.406 72.4629 299.242 72.9023 298.914 73.2539C298.586 73.6055 298.105 73.7812 297.473 73.7812C296.84 73.7812 296.359 73.6055 296.031 73.2539C295.715 72.9023 295.557 72.4629 295.557 71.9355Z" fill="white"/>
<path d="M307.352 93.3457H318.479V96H303.379V93.6094L313.873 79.6699H303.537V76.9805H317.951V79.2832L307.352 93.3457Z" fill="white"/>
</g>
<path id="Arrow 19 (Stroke)" fill-rule="evenodd" clip-rule="evenodd" d="M257.385 153.51L268 133L280.454 152.448L270.917 152.887L280.078 351.929L289.615 351.49L279 372L266.546 352.552L276.082 352.113L266.922 153.071L257.385 153.51Z" fill="#13EBF9"/>
<g id="Ernesto">
<path d="M232.438 428.17H221.346V437.24H234.23V440H217.971V414.406H234.055V417.184H221.346V425.41H232.438V428.17Z" fill="white"/>
<path d="M247.115 423.898C246.623 423.816 246.09 423.775 245.516 423.775C243.383 423.775 241.936 424.684 241.174 426.5V440H237.922V420.98H241.086L241.139 423.178C242.205 421.479 243.717 420.629 245.674 420.629C246.307 420.629 246.787 420.711 247.115 420.875V423.898Z" fill="white"/>
<path d="M253.197 420.98L253.303 423.371C254.756 421.543 256.654 420.629 258.998 420.629C263.018 420.629 265.045 422.896 265.08 427.432V440H261.828V427.414C261.816 426.043 261.5 425.029 260.879 424.373C260.27 423.717 259.314 423.389 258.014 423.389C256.959 423.389 256.033 423.67 255.236 424.232C254.439 424.795 253.818 425.533 253.373 426.447V440H250.121V420.98H253.197Z" fill="white"/>
<path d="M277.877 440.352C275.299 440.352 273.201 439.508 271.584 437.82C269.967 436.121 269.158 433.854 269.158 431.018V430.42C269.158 428.533 269.516 426.852 270.23 425.375C270.957 423.887 271.965 422.727 273.254 421.895C274.555 421.051 275.961 420.629 277.473 420.629C279.945 420.629 281.867 421.443 283.238 423.072C284.609 424.701 285.295 427.033 285.295 430.068V431.422H272.41C272.457 433.297 273.002 434.814 274.045 435.975C275.1 437.123 276.436 437.697 278.053 437.697C279.201 437.697 280.174 437.463 280.971 436.994C281.768 436.525 282.465 435.904 283.062 435.131L285.049 436.678C283.455 439.127 281.064 440.352 277.877 440.352ZM277.473 423.301C276.16 423.301 275.059 423.781 274.168 424.742C273.277 425.691 272.727 427.027 272.516 428.75H282.043V428.504C281.949 426.852 281.504 425.574 280.707 424.672C279.91 423.758 278.832 423.301 277.473 423.301Z" fill="white"/>
<path d="M300.148 434.955C300.148 434.076 299.814 433.396 299.146 432.916C298.49 432.424 297.336 432.002 295.684 431.65C294.043 431.299 292.736 430.877 291.764 430.385C290.803 429.893 290.088 429.307 289.619 428.627C289.162 427.947 288.934 427.139 288.934 426.201C288.934 424.643 289.59 423.324 290.902 422.246C292.227 421.168 293.914 420.629 295.965 420.629C298.121 420.629 299.867 421.186 301.203 422.299C302.551 423.412 303.225 424.836 303.225 426.57H299.955C299.955 425.68 299.574 424.912 298.812 424.268C298.062 423.623 297.113 423.301 295.965 423.301C294.781 423.301 293.855 423.559 293.188 424.074C292.52 424.59 292.186 425.264 292.186 426.096C292.186 426.881 292.496 427.473 293.117 427.871C293.738 428.27 294.857 428.65 296.475 429.014C298.104 429.377 299.422 429.811 300.43 430.314C301.438 430.818 302.182 431.428 302.662 432.143C303.154 432.846 303.4 433.707 303.4 434.727C303.4 436.426 302.721 437.791 301.361 438.822C300.002 439.842 298.238 440.352 296.07 440.352C294.547 440.352 293.199 440.082 292.027 439.543C290.855 439.004 289.936 438.254 289.268 437.293C288.611 436.32 288.283 435.271 288.283 434.146H291.535C291.594 435.236 292.027 436.104 292.836 436.748C293.656 437.381 294.734 437.697 296.07 437.697C297.301 437.697 298.285 437.451 299.023 436.959C299.773 436.455 300.148 435.787 300.148 434.955Z" fill="white"/>
<path d="M312.049 416.375V420.98H315.6V423.494H312.049V435.289C312.049 436.051 312.207 436.625 312.523 437.012C312.84 437.387 313.379 437.574 314.141 437.574C314.516 437.574 315.031 437.504 315.688 437.363V440C314.832 440.234 314 440.352 313.191 440.352C311.738 440.352 310.643 439.912 309.904 439.033C309.166 438.154 308.797 436.906 308.797 435.289V423.494H305.334V420.98H308.797V416.375H312.049Z" fill="white"/>
<path d="M318.201 430.314C318.201 428.451 318.564 426.775 319.291 425.287C320.029 423.799 321.049 422.65 322.35 421.842C323.662 421.033 325.156 420.629 326.832 420.629C329.422 420.629 331.514 421.525 333.107 423.318C334.713 425.111 335.516 427.496 335.516 430.473V430.701C335.516 432.553 335.158 434.217 334.443 435.693C333.74 437.158 332.727 438.301 331.402 439.121C330.09 439.941 328.578 440.352 326.867 440.352C324.289 440.352 322.197 439.455 320.592 437.662C318.998 435.869 318.201 433.496 318.201 430.543V430.314ZM321.471 430.701C321.471 432.811 321.957 434.504 322.93 435.781C323.914 437.059 325.227 437.697 326.867 437.697C328.52 437.697 329.832 437.053 330.805 435.764C331.777 434.463 332.264 432.646 332.264 430.314C332.264 428.229 331.766 426.541 330.77 425.252C329.785 423.951 328.473 423.301 326.832 423.301C325.227 423.301 323.932 423.939 322.947 425.217C321.963 426.494 321.471 428.322 321.471 430.701Z" fill="white"/>
</g>
</g>
<g id="Group 166">
<g id="Felipe">
<path d="M416.086 179.697H405.346V191H401.971V165.406H417.826V168.184H405.346V176.938H416.086V179.697Z" fill="white"/>
<path d="M428.865 191.352C426.287 191.352 424.189 190.508 422.572 188.82C420.955 187.121 420.146 184.854 420.146 182.018V181.42C420.146 179.533 420.504 177.852 421.219 176.375C421.945 174.887 422.953 173.727 424.242 172.895C425.543 172.051 426.949 171.629 428.461 171.629C430.934 171.629 432.855 172.443 434.227 174.072C435.598 175.701 436.283 178.033 436.283 181.068V182.422H423.398C423.445 184.297 423.99 185.814 425.033 186.975C426.088 188.123 427.424 188.697 429.041 188.697C430.189 188.697 431.162 188.463 431.959 187.994C432.756 187.525 433.453 186.904 434.051 186.131L436.037 187.678C434.443 190.127 432.053 191.352 428.865 191.352ZM428.461 174.301C427.148 174.301 426.047 174.781 425.156 175.742C424.266 176.691 423.715 178.027 423.504 179.75H433.031V179.504C432.938 177.852 432.492 176.574 431.695 175.672C430.898 174.758 429.82 174.301 428.461 174.301Z" fill="white"/>
<path d="M443.596 191H440.344V164H443.596V191Z" fill="white"/>
<path d="M452.35 191H449.098V171.98H452.35V191ZM448.834 166.936C448.834 166.408 448.992 165.963 449.309 165.6C449.637 165.236 450.117 165.055 450.75 165.055C451.383 165.055 451.863 165.236 452.191 165.6C452.52 165.963 452.684 166.408 452.684 166.936C452.684 167.463 452.52 167.902 452.191 168.254C451.863 168.605 451.383 168.781 450.75 168.781C450.117 168.781 449.637 168.605 449.309 168.254C448.992 167.902 448.834 167.463 448.834 166.936Z" fill="white"/>
<path d="M473.637 181.701C473.637 184.596 472.975 186.928 471.65 188.697C470.326 190.467 468.533 191.352 466.271 191.352C463.963 191.352 462.146 190.619 460.822 189.154V198.312H457.57V171.98H460.541L460.699 174.09C462.023 172.449 463.863 171.629 466.219 171.629C468.504 171.629 470.309 172.49 471.633 174.213C472.969 175.936 473.637 178.332 473.637 181.402V181.701ZM470.385 181.332C470.385 179.188 469.928 177.494 469.014 176.252C468.1 175.01 466.846 174.389 465.252 174.389C463.283 174.389 461.807 175.262 460.822 177.008V186.096C461.795 187.83 463.283 188.697 465.287 188.697C466.846 188.697 468.082 188.082 468.996 186.852C469.922 185.609 470.385 183.77 470.385 181.332Z" fill="white"/>
<path d="M485.678 191.352C483.1 191.352 481.002 190.508 479.385 188.82C477.768 187.121 476.959 184.854 476.959 182.018V181.42C476.959 179.533 477.316 177.852 478.031 176.375C478.758 174.887 479.766 173.727 481.055 172.895C482.355 172.051 483.762 171.629 485.273 171.629C487.746 171.629 489.668 172.443 491.039 174.072C492.41 175.701 493.096 178.033 493.096 181.068V182.422H480.211C480.258 184.297 480.803 185.814 481.846 186.975C482.9 188.123 484.236 188.697 485.854 188.697C487.002 188.697 487.975 188.463 488.771 187.994C489.568 187.525 490.266 186.904 490.863 186.131L492.85 187.678C491.256 190.127 488.865 191.352 485.678 191.352ZM485.273 174.301C483.961 174.301 482.859 174.781 481.969 175.742C481.078 176.691 480.527 178.027 480.316 179.75H489.844V179.504C489.75 177.852 489.305 176.574 488.508 175.672C487.711 174.758 486.633 174.301 485.273 174.301Z" fill="white"/>
</g>
<g id="Group 165">
<path id="Arrow 24 (Stroke)" fill-rule="evenodd" clip-rule="evenodd" d="M80.1004 131.497C79.2739 131.552 78.5587 130.927 78.5031 130.101L77.5971 116.631C77.5415 115.804 78.1665 115.089 78.9931 115.034C79.8196 114.978 80.5348 115.603 80.5904 116.43L81.2553 126.315C133.137 68.3196 198.51 39.2499 262.625 39.2499C327.735 39.2499 391.412 69.2313 438.182 129.076L435.818 130.924C389.588 71.7686 326.765 42.2499 262.625 42.2499C199.469 42.2499 134.905 70.8716 83.5426 128.258L93.3687 127.597C94.1952 127.542 94.9103 128.167 94.9659 128.993C95.0215 129.82 94.3965 130.535 93.57 130.591L80.1004 131.497Z" fill="#2CF30B"/>
<g id="Derecha">
<path d="M233.971 27V1.40625H241.195C243.422 1.40625 245.391 1.89844 247.102 2.88281C248.812 3.86719 250.131 5.26758 251.057 7.08398C251.994 8.90039 252.469 10.9863 252.48 13.3418V14.9766C252.48 17.3906 252.012 19.5059 251.074 21.3223C250.148 23.1387 248.818 24.5332 247.084 25.5059C245.361 26.4785 243.352 26.9766 241.055 27H233.971ZM237.346 4.18359V24.2402H240.896C243.498 24.2402 245.52 23.4316 246.961 21.8145C248.414 20.1973 249.141 17.8945 249.141 14.9062V13.4121C249.141 10.5059 248.455 8.25 247.084 6.64453C245.725 5.02734 243.791 4.20703 241.283 4.18359H237.346Z" fill="#2CF30B"/>
<path d="M264.979 27.3516C262.4 27.3516 260.303 26.5078 258.686 24.8203C257.068 23.1211 256.26 20.8535 256.26 18.0176V17.4199C256.26 15.5332 256.617 13.8516 257.332 12.375C258.059 10.8867 259.066 9.72656 260.355 8.89453C261.656 8.05078 263.062 7.62891 264.574 7.62891C267.047 7.62891 268.969 8.44336 270.34 10.0723C271.711 11.7012 272.396 14.0332 272.396 17.0684V18.4219H259.512C259.559 20.2969 260.104 21.8145 261.146 22.9746C262.201 24.123 263.537 24.6973 265.154 24.6973C266.303 24.6973 267.275 24.4629 268.072 23.9941C268.869 23.5254 269.566 22.9043 270.164 22.1309L272.15 23.6777C270.557 26.127 268.166 27.3516 264.979 27.3516ZM264.574 10.3008C263.262 10.3008 262.16 10.7812 261.27 11.7422C260.379 12.6914 259.828 14.0273 259.617 15.75H269.145V15.5039C269.051 13.8516 268.605 12.5742 267.809 11.6719C267.012 10.7578 265.934 10.3008 264.574 10.3008Z" fill="#2CF30B"/>
<path d="M285.369 10.8984C284.877 10.8164 284.344 10.7754 283.77 10.7754C281.637 10.7754 280.189 11.6836 279.428 13.5V27H276.176V7.98047H279.34L279.393 10.1777C280.459 8.47852 281.971 7.62891 283.928 7.62891C284.561 7.62891 285.041 7.71094 285.369 7.875V10.8984Z" fill="#2CF30B"/>
<path d="M295.916 27.3516C293.338 27.3516 291.24 26.5078 289.623 24.8203C288.006 23.1211 287.197 20.8535 287.197 18.0176V17.4199C287.197 15.5332 287.555 13.8516 288.27 12.375C288.996 10.8867 290.004 9.72656 291.293 8.89453C292.594 8.05078 294 7.62891 295.512 7.62891C297.984 7.62891 299.906 8.44336 301.277 10.0723C302.648 11.7012 303.334 14.0332 303.334 17.0684V18.4219H290.449C290.496 20.2969 291.041 21.8145 292.084 22.9746C293.139 24.123 294.475 24.6973 296.092 24.6973C297.24 24.6973 298.213 24.4629 299.01 23.9941C299.807 23.5254 300.504 22.9043 301.102 22.1309L303.088 23.6777C301.494 26.127 299.104 27.3516 295.916 27.3516ZM295.512 10.3008C294.199 10.3008 293.098 10.7812 292.207 11.7422C291.316 12.6914 290.766 14.0273 290.555 15.75H300.082V15.5039C299.988 13.8516 299.543 12.5742 298.746 11.6719C297.949 10.7578 296.871 10.3008 295.512 10.3008Z" fill="#2CF30B"/>
<path d="M314.742 24.6973C315.902 24.6973 316.916 24.3457 317.783 23.6426C318.65 22.9395 319.131 22.0605 319.225 21.0059H322.301C322.242 22.0957 321.867 23.1328 321.176 24.1172C320.484 25.1016 319.559 25.8867 318.398 26.4727C317.25 27.0586 316.031 27.3516 314.742 27.3516C312.152 27.3516 310.09 26.4902 308.555 24.7676C307.031 23.0332 306.27 20.666 306.27 17.666V17.1211C306.27 15.2695 306.609 13.623 307.289 12.1816C307.969 10.7402 308.941 9.62109 310.207 8.82422C311.484 8.02734 312.99 7.62891 314.725 7.62891C316.857 7.62891 318.627 8.26758 320.033 9.54492C321.451 10.8223 322.207 12.4805 322.301 14.5195H319.225C319.131 13.2891 318.662 12.2812 317.818 11.4961C316.986 10.6992 315.955 10.3008 314.725 10.3008C313.072 10.3008 311.789 10.8984 310.875 12.0938C309.973 13.2773 309.521 14.9941 309.521 17.2441V17.8594C309.521 20.0508 309.973 21.7383 310.875 22.9219C311.777 24.1055 313.066 24.6973 314.742 24.6973Z" fill="#2CF30B"/>
<path d="M329.209 10.2832C330.65 8.51367 332.525 7.62891 334.834 7.62891C338.854 7.62891 340.881 9.89648 340.916 14.4316V27H337.664V14.4141C337.652 13.043 337.336 12.0293 336.715 11.373C336.105 10.7168 335.15 10.3887 333.85 10.3887C332.795 10.3887 331.869 10.6699 331.072 11.2324C330.275 11.7949 329.654 12.5332 329.209 13.4473V27H325.957V0H329.209V10.2832Z" fill="#2CF30B"/>
<path d="M357.527 27C357.34 26.625 357.188 25.957 357.07 24.9961C355.559 26.5664 353.754 27.3516 351.656 27.3516C349.781 27.3516 348.24 26.8242 347.033 25.7695C345.838 24.7031 345.24 23.3555 345.24 21.7266C345.24 19.7461 345.99 18.2109 347.49 17.1211C349.002 16.0195 351.123 15.4688 353.854 15.4688H357.018V13.9746C357.018 12.8379 356.678 11.9355 355.998 11.2676C355.318 10.5879 354.316 10.248 352.992 10.248C351.832 10.248 350.859 10.541 350.074 11.127C349.289 11.7129 348.896 12.4219 348.896 13.2539H345.627C345.627 12.3047 345.961 11.3906 346.629 10.5117C347.309 9.62109 348.223 8.91797 349.371 8.40234C350.531 7.88672 351.803 7.62891 353.186 7.62891C355.377 7.62891 357.094 8.17969 358.336 9.28125C359.578 10.3711 360.223 11.877 360.27 13.7988V22.5527C360.27 24.2988 360.492 25.6875 360.938 26.7188V27H357.527ZM352.131 24.5215C353.15 24.5215 354.117 24.2578 355.031 23.7305C355.945 23.2031 356.607 22.5176 357.018 21.6738V17.7715H354.469C350.484 17.7715 348.492 18.9375 348.492 21.2695C348.492 22.2891 348.832 23.0859 349.512 23.6602C350.191 24.2344 351.064 24.5215 352.131 24.5215Z" fill="#2CF30B"/>
</g>
</g>
<g id="David">
<path d="M19.9707 191V165.406H27.1953C29.4219 165.406 31.3906 165.898 33.1016 166.883C34.8125 167.867 36.1309 169.268 37.0566 171.084C37.9941 172.9 38.4688 174.986 38.4805 177.342V178.977C38.4805 181.391 38.0117 183.506 37.0742 185.322C36.1484 187.139 34.8184 188.533 33.084 189.506C31.3613 190.479 29.3516 190.977 27.0547 191H19.9707ZM23.3457 168.184V188.24H26.8965C29.498 188.24 31.5195 187.432 32.9609 185.814C34.4141 184.197 35.1406 181.895 35.1406 178.906V177.412C35.1406 174.506 34.4551 172.25 33.084 170.645C31.7246 169.027 29.791 168.207 27.2832 168.184H23.3457Z" fill="white"/>
<path d="M54.8281 191C54.6406 190.625 54.4883 189.957 54.3711 188.996C52.8594 190.566 51.0547 191.352 48.957 191.352C47.082 191.352 45.541 190.824 44.334 189.77C43.1387 188.703 42.541 187.355 42.541 185.727C42.541 183.746 43.291 182.211 44.791 181.121C46.3027 180.02 48.4238 179.469 51.1543 179.469H54.3184V177.975C54.3184 176.838 53.9785 175.936 53.2988 175.268C52.6191 174.588 51.6172 174.248 50.293 174.248C49.1328 174.248 48.1602 174.541 47.375 175.127C46.5898 175.713 46.1973 176.422 46.1973 177.254H42.9277C42.9277 176.305 43.2617 175.391 43.9297 174.512C44.6094 173.621 45.5234 172.918 46.6719 172.402C47.832 171.887 49.1035 171.629 50.4863 171.629C52.6777 171.629 54.3945 172.18 55.6367 173.281C56.8789 174.371 57.5234 175.877 57.5703 177.799V186.553C57.5703 188.299 57.793 189.688 58.2383 190.719V191H54.8281ZM49.4316 188.521C50.4512 188.521 51.418 188.258 52.332 187.73C53.2461 187.203 53.9082 186.518 54.3184 185.674V181.771H51.7695C47.7852 181.771 45.793 182.938 45.793 185.27C45.793 186.289 46.1328 187.086 46.8125 187.66C47.4922 188.234 48.3652 188.521 49.4316 188.521Z" fill="white"/>
<path d="M68.6621 186.588L73.373 171.98H76.6953L69.875 191H67.3965L60.5059 171.98H63.8281L68.6621 186.588Z" fill="white"/>
<path d="M83.3574 191H80.1055V171.98H83.3574V191ZM79.8418 166.936C79.8418 166.408 80 165.963 80.3164 165.6C80.6445 165.236 81.125 165.055 81.7578 165.055C82.3906 165.055 82.8711 165.236 83.1992 165.6C83.5273 165.963 83.6914 166.408 83.6914 166.936C83.6914 167.463 83.5273 167.902 83.1992 168.254C82.8711 168.605 82.3906 168.781 81.7578 168.781C81.125 168.781 80.6445 168.605 80.3164 168.254C80 167.902 79.8418 167.463 79.8418 166.936Z" fill="white"/>
<path d="M87.7871 181.332C87.7871 178.414 88.4785 176.07 89.8613 174.301C91.2441 172.52 93.0547 171.629 95.293 171.629C97.5195 171.629 99.2832 172.391 100.584 173.914V164H103.836V191H100.848L100.689 188.961C99.3887 190.555 97.5781 191.352 95.2578 191.352C93.0547 191.352 91.2559 190.449 89.8613 188.645C88.4785 186.84 87.7871 184.484 87.7871 181.578V181.332ZM91.0391 181.701C91.0391 183.857 91.4844 185.545 92.375 186.764C93.2656 187.982 94.4961 188.592 96.0664 188.592C98.1289 188.592 99.6348 187.666 100.584 185.814V177.078C99.6113 175.285 98.1172 174.389 96.1016 174.389C94.5078 174.389 93.2656 175.004 92.375 176.234C91.4844 177.465 91.0391 179.287 91.0391 181.701Z" fill="white"/>
</g>
</g>
<g id="Group 188">
<g id="Manuel">
<path d="M430.33 327.406L438.697 348.289L447.064 327.406H451.441V353H448.066V343.033L448.383 332.275L439.98 353H437.396L429.012 332.328L429.346 343.033V353H425.971V327.406H430.33Z" fill="white"/>
<path d="M468.633 353C468.445 352.625 468.293 351.957 468.176 350.996C466.664 352.566 464.859 353.352 462.762 353.352C460.887 353.352 459.346 352.824 458.139 351.77C456.943 350.703 456.346 349.355 456.346 347.727C456.346 345.746 457.096 344.211 458.596 343.121C460.107 342.02 462.229 341.469 464.959 341.469H468.123V339.975C468.123 338.838 467.783 337.936 467.104 337.268C466.424 336.588 465.422 336.248 464.098 336.248C462.938 336.248 461.965 336.541 461.18 337.127C460.395 337.713 460.002 338.422 460.002 339.254H456.732C456.732 338.305 457.066 337.391 457.734 336.512C458.414 335.621 459.328 334.918 460.477 334.402C461.637 333.887 462.908 333.629 464.291 333.629C466.482 333.629 468.199 334.18 469.441 335.281C470.684 336.371 471.328 337.877 471.375 339.799V348.553C471.375 350.299 471.598 351.688 472.043 352.719V353H468.633ZM463.236 350.521C464.256 350.521 465.223 350.258 466.137 349.73C467.051 349.203 467.713 348.518 468.123 347.674V343.771H465.574C461.59 343.771 459.598 344.938 459.598 347.27C459.598 348.289 459.938 349.086 460.617 349.66C461.297 350.234 462.17 350.521 463.236 350.521Z" fill="white"/>
<path d="M479.549 333.98L479.654 336.371C481.107 334.543 483.006 333.629 485.35 333.629C489.369 333.629 491.396 335.896 491.432 340.432V353H488.18V340.414C488.168 339.043 487.852 338.029 487.23 337.373C486.621 336.717 485.666 336.389 484.365 336.389C483.311 336.389 482.385 336.67 481.588 337.232C480.791 337.795 480.17 338.533 479.725 339.447V353H476.473V333.98H479.549Z" fill="white"/>
<path d="M508.078 351.119C506.812 352.607 504.955 353.352 502.506 353.352C500.479 353.352 498.932 352.766 497.865 351.594C496.811 350.41 496.277 348.664 496.266 346.355V333.98H499.518V346.268C499.518 349.15 500.689 350.592 503.033 350.592C505.518 350.592 507.17 349.666 507.99 347.814V333.98H511.242V353H508.148L508.078 351.119Z" fill="white"/>
<path d="M524.092 353.352C521.514 353.352 519.416 352.508 517.799 350.82C516.182 349.121 515.373 346.854 515.373 344.018V343.42C515.373 341.533 515.73 339.852 516.445 338.375C517.172 336.887 518.18 335.727 519.469 334.895C520.77 334.051 522.176 333.629 523.688 333.629C526.16 333.629 528.082 334.443 529.453 336.072C530.824 337.701 531.51 340.033 531.51 343.068V344.422H518.625C518.672 346.297 519.217 347.814 520.26 348.975C521.314 350.123 522.65 350.697 524.268 350.697C525.416 350.697 526.389 350.463 527.186 349.994C527.982 349.525 528.68 348.904 529.277 348.131L531.264 349.678C529.67 352.127 527.279 353.352 524.092 353.352ZM523.688 336.301C522.375 336.301 521.273 336.781 520.383 337.742C519.492 338.691 518.941 340.027 518.73 341.75H528.258V341.504C528.164 339.852 527.719 338.574 526.922 337.672C526.125 336.758 525.047 336.301 523.688 336.301Z" fill="white"/>
<path d="M538.822 353H535.57V326H538.822V353Z" fill="white"/>
</g>
<g id="Group 169">
<path id="Arrow 25 (Stroke)" fill-rule="evenodd" clip-rule="evenodd" d="M256.612 468.313C321.541 467.754 385.148 431.548 394.514 361.8L397.487 362.2C387.852 433.952 322.459 470.746 256.638 471.312C191.849 471.87 125.836 437.347 111.195 365.775L105.506 373.93C105.032 374.609 104.097 374.776 103.417 374.302C102.738 373.828 102.572 372.893 103.046 372.213L110.77 361.142C111.244 360.462 112.179 360.296 112.858 360.77L123.93 368.494C124.61 368.968 124.776 369.903 124.302 370.583C123.828 371.262 122.893 371.429 122.214 370.955L114.169 365.342C128.507 434.953 192.795 468.862 256.612 468.313Z" fill="#E79720"/>
<g id="dos asientos">
<path d="M176.67 493.332C176.67 490.414 177.361 488.07 178.744 486.301C180.127 484.519 181.938 483.629 184.176 483.629C186.402 483.629 188.166 484.39 189.467 485.914V476H192.719V503H189.73L189.572 500.961C188.271 502.554 186.461 503.351 184.141 503.351C181.938 503.351 180.139 502.449 178.744 500.644C177.361 498.84 176.67 496.484 176.67 493.578V493.332ZM179.922 493.701C179.922 495.857 180.367 497.545 181.258 498.763C182.148 499.982 183.379 500.592 184.949 500.592C187.012 500.592 188.518 499.666 189.467 497.814V489.078C188.494 487.285 187 486.388 184.984 486.388C183.391 486.388 182.148 487.004 181.258 488.234C180.367 489.465 179.922 491.287 179.922 493.701Z" fill="#E79720"/>
<path d="M196.92 493.314C196.92 491.451 197.283 489.775 198.01 488.287C198.748 486.799 199.768 485.65 201.068 484.842C202.381 484.033 203.875 483.629 205.551 483.629C208.141 483.629 210.232 484.525 211.826 486.318C213.432 488.111 214.234 490.496 214.234 493.472V493.701C214.234 495.552 213.877 497.217 213.162 498.693C212.459 500.158 211.445 501.301 210.121 502.121C208.809 502.941 207.297 503.351 205.586 503.351C203.008 503.351 200.916 502.455 199.311 500.662C197.717 498.869 196.92 496.496 196.92 493.543V493.314ZM200.189 493.701C200.189 495.81 200.676 497.504 201.648 498.781C202.633 500.058 203.945 500.697 205.586 500.697C207.238 500.697 208.551 500.052 209.523 498.763C210.496 497.463 210.982 495.646 210.982 493.314C210.982 491.228 210.484 489.541 209.488 488.252C208.504 486.951 207.191 486.301 205.551 486.301C203.945 486.301 202.65 486.939 201.666 488.217C200.682 489.494 200.189 491.322 200.189 493.701Z" fill="#E79720"/>
<path d="M229.387 497.955C229.387 497.076 229.053 496.396 228.385 495.916C227.729 495.424 226.574 495.002 224.922 494.65C223.281 494.299 221.975 493.877 221.002 493.385C220.041 492.892 219.326 492.306 218.857 491.627C218.4 490.947 218.172 490.138 218.172 489.201C218.172 487.642 218.828 486.324 220.141 485.246C221.465 484.168 223.152 483.629 225.203 483.629C227.359 483.629 229.105 484.185 230.441 485.299C231.789 486.412 232.463 487.836 232.463 489.57H229.193C229.193 488.679 228.812 487.912 228.051 487.267C227.301 486.623 226.352 486.301 225.203 486.301C224.02 486.301 223.094 486.558 222.426 487.074C221.758 487.59 221.424 488.263 221.424 489.095C221.424 489.881 221.734 490.472 222.355 490.871C222.977 491.269 224.096 491.65 225.713 492.013C227.342 492.377 228.66 492.81 229.668 493.314C230.676 493.818 231.42 494.427 231.9 495.142C232.393 495.845 232.639 496.707 232.639 497.726C232.639 499.426 231.959 500.791 230.6 501.822C229.24 502.842 227.477 503.351 225.309 503.351C223.785 503.351 222.438 503.082 221.266 502.543C220.094 502.004 219.174 501.254 218.506 500.293C217.85 499.32 217.521 498.271 217.521 497.146H220.773C220.832 498.236 221.266 499.103 222.074 499.748C222.895 500.381 223.973 500.697 225.309 500.697C226.539 500.697 227.523 500.451 228.262 499.959C229.012 499.455 229.387 498.787 229.387 497.955Z" fill="#E79720"/>
<path d="M257.547 503C257.359 502.625 257.207 501.957 257.09 500.996C255.578 502.566 253.773 503.351 251.676 503.351C249.801 503.351 248.26 502.824 247.053 501.769C245.857 500.703 245.26 499.355 245.26 497.726C245.26 495.746 246.01 494.211 247.51 493.121C249.021 492.019 251.143 491.469 253.873 491.469H257.037V489.974C257.037 488.838 256.697 487.935 256.018 487.267C255.338 486.588 254.336 486.248 253.012 486.248C251.852 486.248 250.879 486.541 250.094 487.127C249.309 487.713 248.916 488.422 248.916 489.254H245.646C245.646 488.304 245.98 487.39 246.648 486.511C247.328 485.621 248.242 484.918 249.391 484.402C250.551 483.886 251.822 483.629 253.205 483.629C255.396 483.629 257.113 484.179 258.355 485.281C259.598 486.371 260.242 487.877 260.289 489.799V498.552C260.289 500.299 260.512 501.687 260.957 502.719V503H257.547ZM252.15 500.521C253.17 500.521 254.137 500.258 255.051 499.73C255.965 499.203 256.627 498.517 257.037 497.674V493.771H254.488C250.504 493.771 248.512 494.937 248.512 497.269C248.512 498.289 248.852 499.086 249.531 499.66C250.211 500.234 251.084 500.521 252.15 500.521Z" fill="#E79720"/>
<path d="M276.461 497.955C276.461 497.076 276.127 496.396 275.459 495.916C274.803 495.424 273.648 495.002 271.996 494.65C270.355 494.299 269.049 493.877 268.076 493.385C267.115 492.892 266.4 492.306 265.932 491.627C265.475 490.947 265.246 490.138 265.246 489.201C265.246 487.642 265.902 486.324 267.215 485.246C268.539 484.168 270.227 483.629 272.277 483.629C274.434 483.629 276.18 484.185 277.516 485.299C278.863 486.412 279.537 487.836 279.537 489.57H276.268C276.268 488.679 275.887 487.912 275.125 487.267C274.375 486.623 273.426 486.301 272.277 486.301C271.094 486.301 270.168 486.558 269.5 487.074C268.832 487.59 268.498 488.263 268.498 489.095C268.498 489.881 268.809 490.472 269.43 490.871C270.051 491.269 271.17 491.65 272.787 492.013C274.416 492.377 275.734 492.81 276.742 493.314C277.75 493.818 278.494 494.427 278.975 495.142C279.467 495.845 279.713 496.707 279.713 497.726C279.713 499.426 279.033 500.791 277.674 501.822C276.314 502.842 274.551 503.351 272.383 503.351C270.859 503.351 269.512 503.082 268.34 502.543C267.168 502.004 266.248 501.254 265.58 500.293C264.924 499.32 264.596 498.271 264.596 497.146H267.848C267.906 498.236 268.34 499.103 269.148 499.748C269.969 500.381 271.047 500.697 272.383 500.697C273.613 500.697 274.598 500.451 275.336 499.959C276.086 499.455 276.461 498.787 276.461 497.955Z" fill="#E79720"/>
<path d="M287.482 503H284.23V483.98H287.482V503ZM283.967 478.935C283.967 478.408 284.125 477.963 284.441 477.599C284.77 477.236 285.25 477.054 285.883 477.054C286.516 477.054 286.996 477.236 287.324 477.599C287.652 477.963 287.816 478.408 287.816 478.935C287.816 479.463 287.652 479.902 287.324 480.254C286.996 480.605 286.516 480.781 285.883 480.781C285.25 480.781 284.77 480.605 284.441 480.254C284.125 479.902 283.967 479.463 283.967 478.935Z" fill="#E79720"/>
<path d="M300.596 503.351C298.018 503.351 295.92 502.508 294.303 500.82C292.686 499.121 291.877 496.853 291.877 494.017V493.42C291.877 491.533 292.234 489.851 292.949 488.375C293.676 486.886 294.684 485.726 295.973 484.894C297.273 484.051 298.68 483.629 300.191 483.629C302.664 483.629 304.586 484.443 305.957 486.072C307.328 487.701 308.014 490.033 308.014 493.068V494.422H295.129C295.176 496.297 295.721 497.814 296.764 498.974C297.818 500.123 299.154 500.697 300.771 500.697C301.92 500.697 302.893 500.463 303.689 499.994C304.486 499.525 305.184 498.904 305.781 498.131L307.768 499.677C306.174 502.127 303.783 503.351 300.596 503.351ZM300.191 486.301C298.879 486.301 297.777 486.781 296.887 487.742C295.996 488.691 295.445 490.027 295.234 491.75H304.762V491.504C304.668 489.851 304.223 488.574 303.426 487.672C302.629 486.758 301.551 486.301 300.191 486.301Z" fill="#E79720"/>
<path d="M314.869 483.98L314.975 486.371C316.428 484.543 318.326 483.629 320.67 483.629C324.689 483.629 326.717 485.896 326.752 490.431V503H323.5V490.414C323.488 489.043 323.172 488.029 322.551 487.373C321.941 486.717 320.986 486.388 319.686 486.388C318.631 486.388 317.705 486.67 316.908 487.232C316.111 487.795 315.49 488.533 315.045 489.447V503H311.793V483.98H314.869Z" fill="#E79720"/>
<path d="M336.068 479.375V483.98H339.619V486.494H336.068V498.289C336.068 499.051 336.227 499.625 336.543 500.011C336.859 500.386 337.398 500.574 338.16 500.574C338.535 500.574 339.051 500.504 339.707 500.363V503C338.852 503.234 338.02 503.351 337.211 503.351C335.758 503.351 334.662 502.912 333.924 502.033C333.186 501.154 332.816 499.906 332.816 498.289V486.494H329.354V483.98H332.816V479.375H336.068Z" fill="#E79720"/>
<path d="M342.221 493.314C342.221 491.451 342.584 489.775 343.311 488.287C344.049 486.799 345.068 485.65 346.369 484.842C347.682 484.033 349.176 483.629 350.852 483.629C353.441 483.629 355.533 484.525 357.127 486.318C358.732 488.111 359.535 490.496 359.535 493.472V493.701C359.535 495.552 359.178 497.217 358.463 498.693C357.76 500.158 356.746 501.301 355.422 502.121C354.109 502.941 352.598 503.351 350.887 503.351C348.309 503.351 346.217 502.455 344.611 500.662C343.018 498.869 342.221 496.496 342.221 493.543V493.314ZM345.49 493.701C345.49 495.81 345.977 497.504 346.949 498.781C347.934 500.058 349.246 500.697 350.887 500.697C352.539 500.697 353.852 500.052 354.824 498.763C355.797 497.463 356.283 495.646 356.283 493.314C356.283 491.228 355.785 489.541 354.789 488.252C353.805 486.951 352.492 486.301 350.852 486.301C349.246 486.301 347.951 486.939 346.967 488.217C345.982 489.494 345.49 491.322 345.49 493.701Z" fill="#E79720"/>
<path d="M374.688 497.955C374.688 497.076 374.354 496.396 373.686 495.916C373.029 495.424 371.875 495.002 370.223 494.65C368.582 494.299 367.275 493.877 366.303 493.385C365.342 492.892 364.627 492.306 364.158 491.627C363.701 490.947 363.473 490.138 363.473 489.201C363.473 487.642 364.129 486.324 365.441 485.246C366.766 484.168 368.453 483.629 370.504 483.629C372.66 483.629 374.406 484.185 375.742 485.299C377.09 486.412 377.764 487.836 377.764 489.57H374.494C374.494 488.679 374.113 487.912 373.352 487.267C372.602 486.623 371.652 486.301 370.504 486.301C369.32 486.301 368.395 486.558 367.727 487.074C367.059 487.59 366.725 488.263 366.725 489.095C366.725 489.881 367.035 490.472 367.656 490.871C368.277 491.269 369.396 491.65 371.014 492.013C372.643 492.377 373.961 492.81 374.969 493.314C375.977 493.818 376.721 494.427 377.201 495.142C377.693 495.845 377.939 496.707 377.939 497.726C377.939 499.426 377.26 500.791 375.9 501.822C374.541 502.842 372.777 503.351 370.609 503.351C369.086 503.351 367.738 503.082 366.566 502.543C365.395 502.004 364.475 501.254 363.807 500.293C363.15 499.32 362.822 498.271 362.822 497.146H366.074C366.133 498.236 366.566 499.103 367.375 499.748C368.195 500.381 369.273 500.697 370.609 500.697C371.84 500.697 372.824 500.451 373.562 499.959C374.312 499.455 374.688 498.787 374.688 497.955Z" fill="#E79720"/>
</g>
</g>
<g id="Gerardo">
<path d="M19.8672 340.643C19 341.885 17.7871 342.816 16.2285 343.438C14.6816 344.047 12.877 344.352 10.8145 344.352C8.72852 344.352 6.87695 343.865 5.25977 342.893C3.64258 341.908 2.38867 340.514 1.49805 338.709C0.619141 336.904 0.167969 334.812 0.144531 332.434V330.201C0.144531 326.346 1.04102 323.357 2.83398 321.236C4.63867 319.115 7.16992 318.055 10.4277 318.055C13.0996 318.055 15.25 318.74 16.8789 320.111C18.5078 321.471 19.5039 323.404 19.8672 325.912H16.4922C15.8594 322.525 13.8438 320.832 10.4453 320.832C8.18359 320.832 6.4668 321.629 5.29492 323.223C4.13477 324.805 3.54883 327.102 3.53711 330.113V332.205C3.53711 335.076 4.19336 337.361 5.50586 339.061C6.81836 340.748 8.59375 341.592 10.832 341.592C12.0977 341.592 13.2051 341.451 14.1543 341.17C15.1035 340.889 15.8887 340.414 16.5098 339.746V333.998H10.5859V331.256H19.8672V340.643Z" fill="white"/>
<path d="M32.8926 344.352C30.3145 344.352 28.2168 343.508 26.5996 341.82C24.9824 340.121 24.1738 337.854 24.1738 335.018V334.42C24.1738 332.533 24.5312 330.852 25.2461 329.375C25.9727 327.887 26.9805 326.727 28.2695 325.895C29.5703 325.051 30.9766 324.629 32.4883 324.629C34.9609 324.629 36.8828 325.443 38.2539 327.072C39.625 328.701 40.3105 331.033 40.3105 334.068V335.422H27.4258C27.4727 337.297 28.0176 338.814 29.0605 339.975C30.1152 341.123 31.4512 341.697 33.0684 341.697C34.2168 341.697 35.1895 341.463 35.9863 340.994C36.7832 340.525 37.4805 339.904 38.0781 339.131L40.0645 340.678C38.4707 343.127 36.0801 344.352 32.8926 344.352ZM32.4883 327.301C31.1758 327.301 30.0742 327.781 29.1836 328.742C28.293 329.691 27.7422 331.027 27.5312 332.75H37.0586V332.504C36.9648 330.852 36.5195 329.574 35.7227 328.672C34.9258 327.758 33.8477 327.301 32.4883 327.301Z" fill="white"/>
<path d="M53.2832 327.898C52.791 327.816 52.2578 327.775 51.6836 327.775C49.5508 327.775 48.1035 328.684 47.3418 330.5V344H44.0898V324.98H47.2539L47.3066 327.178C48.373 325.479 49.8848 324.629 51.8418 324.629C52.4746 324.629 52.9551 324.711 53.2832 324.875V327.898Z" fill="white"/>
<path d="M67.3281 344C67.1406 343.625 66.9883 342.957 66.8711 341.996C65.3594 343.566 63.5547 344.352 61.457 344.352C59.582 344.352 58.041 343.824 56.834 342.77C55.6387 341.703 55.041 340.355 55.041 338.727C55.041 336.746 55.791 335.211 57.291 334.121C58.8027 333.02 60.9238 332.469 63.6543 332.469H66.8184V330.975C66.8184 329.838 66.4785 328.936 65.7988 328.268C65.1191 327.588 64.1172 327.248 62.793 327.248C61.6328 327.248 60.6602 327.541 59.875 328.127C59.0898 328.713 58.6973 329.422 58.6973 330.254H55.4277C55.4277 329.305 55.7617 328.391 56.4297 327.512C57.1094 326.621 58.0234 325.918 59.1719 325.402C60.332 324.887 61.6035 324.629 62.9863 324.629C65.1777 324.629 66.8945 325.18 68.1367 326.281C69.3789 327.371 70.0234 328.877 70.0703 330.799V339.553C70.0703 341.299 70.293 342.688 70.7383 343.719V344H67.3281ZM61.9316 341.521C62.9512 341.521 63.918 341.258 64.832 340.73C65.7461 340.203 66.4082 339.518 66.8184 338.674V334.771H64.2695C60.2852 334.771 58.293 335.938 58.293 338.27C58.293 339.289 58.6328 340.086 59.3125 340.66C59.9922 341.234 60.8652 341.521 61.9316 341.521Z" fill="white"/>
<path d="M84.3613 327.898C83.8691 327.816 83.3359 327.775 82.7617 327.775C80.6289 327.775 79.1816 328.684 78.4199 330.5V344H75.168V324.98H78.332L78.3848 327.178C79.4512 325.479 80.9629 324.629 82.9199 324.629C83.5527 324.629 84.0332 324.711 84.3613 324.875V327.898Z" fill="white"/>
<path d="M86.2246 334.332C86.2246 331.414 86.916 329.07 88.2988 327.301C89.6816 325.52 91.4922 324.629 93.7305 324.629C95.957 324.629 97.7207 325.391 99.0215 326.914V317H102.273V344H99.2852L99.127 341.961C97.8262 343.555 96.0156 344.352 93.6953 344.352C91.4922 344.352 89.6934 343.449 88.2988 341.645C86.916 339.84 86.2246 337.484 86.2246 334.578V334.332ZM89.4766 334.701C89.4766 336.857 89.9219 338.545 90.8125 339.764C91.7031 340.982 92.9336 341.592 94.5039 341.592C96.5664 341.592 98.0723 340.666 99.0215 338.814V330.078C98.0488 328.285 96.5547 327.389 94.5391 327.389C92.9453 327.389 91.7031 328.004 90.8125 329.234C89.9219 330.465 89.4766 332.287 89.4766 334.701Z" fill="white"/>
<path d="M106.475 334.314C106.475 332.451 106.838 330.775 107.564 329.287C108.303 327.799 109.322 326.65 110.623 325.842C111.936 325.033 113.43 324.629 115.105 324.629C117.695 324.629 119.787 325.525 121.381 327.318C122.986 329.111 123.789 331.496 123.789 334.473V334.701C123.789 336.553 123.432 338.217 122.717 339.693C122.014 341.158 121 342.301 119.676 343.121C118.363 343.941 116.852 344.352 115.141 344.352C112.562 344.352 110.471 343.455 108.865 341.662C107.271 339.869 106.475 337.496 106.475 334.543V334.314ZM109.744 334.701C109.744 336.811 110.23 338.504 111.203 339.781C112.188 341.059 113.5 341.697 115.141 341.697C116.793 341.697 118.105 341.053 119.078 339.764C120.051 338.463 120.537 336.646 120.537 334.314C120.537 332.229 120.039 330.541 119.043 329.252C118.059 327.951 116.746 327.301 115.105 327.301C113.5 327.301 112.205 327.939 111.221 329.217C110.236 330.494 109.744 332.322 109.744 334.701Z" fill="white"/>
</g>
</g>
</g>
<g id="Group 189">
<path id="Arrow 26 (Stroke)" fill-rule="evenodd" clip-rule="evenodd" d="M437.562 312.391C436.793 312.701 435.919 312.329 435.609 311.561L430.558 299.042C430.248 298.274 430.619 297.4 431.388 297.09C432.156 296.78 433.03 297.151 433.34 297.919L437.025 307.054C443.736 290.742 447.431 277.5 447.647 263.681C447.878 248.925 444.142 233.363 435.613 212.569L438.388 211.431C446.994 232.41 450.886 248.4 450.647 263.728C450.422 278.101 446.565 291.762 439.771 308.264L448.958 304.557C449.727 304.247 450.601 304.619 450.911 305.387C451.221 306.155 450.849 307.029 450.081 307.339L437.562 312.391Z" fill="#E8A1EE"/>
<g id="Junto Izquierda">
<path d="M484.694 226.406H488.086V244.529C488.086 246.979 487.348 248.895 485.872 250.277C484.407 251.66 482.45 252.352 480 252.352C477.458 252.352 475.477 251.701 474.059 250.4C472.641 249.1 471.932 247.277 471.932 244.934H475.307C475.307 246.398 475.706 247.541 476.502 248.361C477.311 249.182 478.477 249.592 480 249.592C481.395 249.592 482.52 249.152 483.375 248.273C484.243 247.395 484.682 246.164 484.694 244.582V226.406Z" fill="#E8A1EE"/>
<path d="M505.067 250.119C503.801 251.607 501.944 252.352 499.495 252.352C497.467 252.352 495.92 251.766 494.854 250.594C493.799 249.41 493.266 247.664 493.254 245.355V232.98H496.506V245.268C496.506 248.15 497.678 249.592 500.022 249.592C502.506 249.592 504.159 248.666 504.979 246.814V232.98H508.231V252H505.137L505.067 250.119Z" fill="#E8A1EE"/>
<path d="M516.264 232.98L516.37 235.371C517.823 233.543 519.721 232.629 522.065 232.629C526.084 232.629 528.112 234.896 528.147 239.432V252H524.895V239.414C524.883 238.043 524.567 237.029 523.946 236.373C523.336 235.717 522.381 235.389 521.081 235.389C520.026 235.389 519.1 235.67 518.303 236.232C517.506 236.795 516.885 237.533 516.44 238.447V252H513.188V232.98H516.264Z" fill="#E8A1EE"/>
<path d="M537.463 228.375V232.98H541.014V235.494H537.463V247.289C537.463 248.051 537.622 248.625 537.938 249.012C538.254 249.387 538.793 249.574 539.555 249.574C539.93 249.574 540.446 249.504 541.102 249.363V252C540.247 252.234 539.415 252.352 538.606 252.352C537.153 252.352 536.057 251.912 535.319 251.033C534.581 250.154 534.211 248.906 534.211 247.289V235.494H530.749V232.98H534.211V228.375H537.463Z" fill="#E8A1EE"/>
<path d="M543.616 242.314C543.616 240.451 543.979 238.775 544.706 237.287C545.444 235.799 546.463 234.65 547.764 233.842C549.077 233.033 550.571 232.629 552.247 232.629C554.836 232.629 556.928 233.525 558.522 235.318C560.127 237.111 560.93 239.496 560.93 242.473V242.701C560.93 244.553 560.573 246.217 559.858 247.693C559.155 249.158 558.141 250.301 556.817 251.121C555.504 251.941 553.993 252.352 552.282 252.352C549.704 252.352 547.612 251.455 546.006 249.662C544.413 247.869 543.616 245.496 543.616 242.543V242.314ZM546.885 242.701C546.885 244.811 547.372 246.504 548.344 247.781C549.329 249.059 550.641 249.697 552.282 249.697C553.934 249.697 555.247 249.053 556.219 247.764C557.192 246.463 557.678 244.646 557.678 242.314C557.678 240.229 557.18 238.541 556.184 237.252C555.2 235.951 553.887 235.301 552.247 235.301C550.641 235.301 549.346 235.939 548.362 237.217C547.377 238.494 546.885 240.322 546.885 242.701Z" fill="#E8A1EE"/>
<path d="M477.592 294H474.217V268.406H477.592V294Z" fill="#E8A1EE"/>
<path d="M486.329 291.346H497.456V294H482.356V291.609L492.85 277.67H482.514V274.98H496.928V277.283L486.329 291.346Z" fill="#E8A1EE"/>
<path d="M500.057 284.332C500.057 281.344 500.743 278.982 502.114 277.248C503.485 275.502 505.325 274.629 507.633 274.629C509.883 274.629 511.659 275.385 512.959 276.896L513.1 274.98H516.088V301.312H512.836V292.242C511.524 293.648 509.778 294.352 507.598 294.352C505.301 294.352 503.467 293.461 502.096 291.68C500.737 289.887 500.057 287.514 500.057 284.561V284.332ZM503.309 284.701C503.309 286.881 503.766 288.592 504.68 289.834C505.606 291.076 506.848 291.697 508.407 291.697C510.34 291.697 511.817 290.842 512.836 289.131V279.814C511.805 278.139 510.34 277.301 508.442 277.301C506.872 277.301 505.624 277.928 504.698 279.182C503.772 280.424 503.309 282.264 503.309 284.701Z" fill="#E8A1EE"/>
<path d="M533.051 292.119C531.786 293.607 529.928 294.352 527.479 294.352C525.452 294.352 523.905 293.766 522.838 292.594C521.784 291.41 521.25 289.664 521.239 287.355V274.98H524.491V287.268C524.491 290.15 525.663 291.592 528.006 291.592C530.491 291.592 532.143 290.666 532.963 288.814V274.98H536.215V294H533.122L533.051 292.119Z" fill="#E8A1EE"/>
<path d="M544.706 294H541.454V274.98H544.706V294ZM541.19 269.936C541.19 269.408 541.348 268.963 541.665 268.6C541.993 268.236 542.473 268.055 543.106 268.055C543.739 268.055 544.219 268.236 544.547 268.6C544.875 268.963 545.04 269.408 545.04 269.936C545.04 270.463 544.875 270.902 544.547 271.254C544.219 271.605 543.739 271.781 543.106 271.781C542.473 271.781 541.993 271.605 541.665 271.254C541.348 270.902 541.19 270.463 541.19 269.936Z" fill="#E8A1EE"/>
<path d="M557.819 294.352C555.241 294.352 553.143 293.508 551.526 291.82C549.909 290.121 549.1 287.854 549.1 285.018V284.42C549.1 282.533 549.458 280.852 550.172 279.375C550.899 277.887 551.907 276.727 553.196 275.895C554.497 275.051 555.903 274.629 557.415 274.629C559.887 274.629 561.809 275.443 563.18 277.072C564.551 278.701 565.237 281.033 565.237 284.068V285.422H552.352C552.399 287.297 552.944 288.814 553.987 289.975C555.042 291.123 556.377 291.697 557.995 291.697C559.143 291.697 560.116 291.463 560.913 290.994C561.709 290.525 562.407 289.904 563.004 289.131L564.991 290.678C563.397 293.127 561.006 294.352 557.819 294.352ZM557.415 277.301C556.102 277.301 555 277.781 554.11 278.742C553.219 279.691 552.668 281.027 552.458 282.75H561.985V282.504C561.891 280.852 561.446 279.574 560.649 278.672C559.852 277.758 558.774 277.301 557.415 277.301Z" fill="#E8A1EE"/>
<path d="M578.209 277.898C577.717 277.816 577.184 277.775 576.61 277.775C574.477 277.775 573.03 278.684 572.268 280.5V294H569.016V274.98H572.18L572.233 277.178C573.299 275.479 574.811 274.629 576.768 274.629C577.401 274.629 577.881 274.711 578.209 274.875V277.898Z" fill="#E8A1EE"/>
<path d="M580.073 284.332C580.073 281.414 580.764 279.07 582.147 277.301C583.53 275.52 585.34 274.629 587.579 274.629C589.805 274.629 591.569 275.391 592.87 276.914V267H596.122V294H593.133L592.975 291.961C591.674 293.555 589.864 294.352 587.543 294.352C585.34 294.352 583.542 293.449 582.147 291.645C580.764 289.84 580.073 287.484 580.073 284.578V284.332ZM583.325 284.701C583.325 286.857 583.77 288.545 584.661 289.764C585.551 290.982 586.782 291.592 588.352 291.592C590.415 291.592 591.92 290.666 592.87 288.814V280.078C591.897 278.285 590.403 277.389 588.387 277.389C586.793 277.389 585.551 278.004 584.661 279.234C583.77 280.465 583.325 282.287 583.325 284.701Z" fill="#E8A1EE"/>
<path d="M612.926 294C612.739 293.625 612.586 292.957 612.469 291.996C610.958 293.566 609.153 294.352 607.055 294.352C605.18 294.352 603.639 293.824 602.432 292.77C601.237 291.703 600.639 290.355 600.639 288.727C600.639 286.746 601.389 285.211 602.889 284.121C604.401 283.02 606.522 282.469 609.252 282.469H612.417V280.975C612.417 279.838 612.077 278.936 611.397 278.268C610.717 277.588 609.715 277.248 608.391 277.248C607.231 277.248 606.258 277.541 605.473 278.127C604.688 278.713 604.295 279.422 604.295 280.254H601.026C601.026 279.305 601.36 278.391 602.028 277.512C602.708 276.621 603.622 275.918 604.77 275.402C605.93 274.887 607.202 274.629 608.584 274.629C610.776 274.629 612.493 275.18 613.735 276.281C614.977 277.371 615.622 278.877 615.668 280.799V289.553C615.668 291.299 615.891 292.688 616.336 293.719V294H612.926ZM607.53 291.521C608.549 291.521 609.516 291.258 610.43 290.73C611.344 290.203 612.006 289.518 612.417 288.674V284.771H609.868C605.883 284.771 603.891 285.938 603.891 288.27C603.891 289.289 604.231 290.086 604.911 290.66C605.59 291.234 606.463 291.521 607.53 291.521Z" fill="#E8A1EE"/>
</g>
</g>
<path id="Ellipse 19 (Stroke)" fill-rule="evenodd" clip-rule="evenodd" d="M556.045 380.406C577.975 369.486 590 355.143 590 340.5C590 325.857 577.975 311.514 556.045 300.594C534.359 289.794 504.119 283 470.5 283C436.881 283 406.641 289.794 384.955 300.594C363.025 311.514 351 325.857 351 340.5C351 355.143 363.025 369.486 384.955 380.406C406.641 391.206 436.881 398 470.5 398C504.119 398 534.359 391.206 556.045 380.406ZM470.5 402C538.707 402 594 374.466 594 340.5C594 306.534 538.707 279 470.5 279C402.293 279 347 306.534 347 340.5C347 374.466 402.293 402 470.5 402Z" fill="#FD0C0C"/>
</g>
</svg>
