<svg viewBox="0 0 727 153" fill="none" xmlns="http://www.w3.org/2000/svg">
<g id="0128219">
<g id="Group 198">
<g id="Qu&#195;&#173;mica">
<path d="M14.0117 47.0195C14.0117 48.668 13.75 50.0898 13.2266 51.2852C12.7031 52.4727 11.9688 53.4023 11.0234 54.0742L14.0703 56.4648L12.5352 57.8828L8.9375 55.0234C8.375 55.1641 7.78125 55.2344 7.15625 55.2344C5.8125 55.2344 4.62109 54.9062 3.58203 54.25C2.54297 53.5859 1.73438 52.6445 1.15625 51.4258C0.585938 50.1992 0.292969 48.7812 0.277344 47.1719V45.9414C0.277344 44.3008 0.5625 42.8516 1.13281 41.5938C1.70312 40.3359 2.50781 39.375 3.54688 38.7109C4.59375 38.0391 5.78906 37.7031 7.13281 37.7031C8.50781 37.7031 9.71484 38.0352 10.7539 38.6992C11.8008 39.3633 12.6055 40.3203 13.168 41.5703C13.7305 42.8125 14.0117 44.2656 14.0117 45.9297V47.0195ZM11.7617 45.918C11.7617 43.9102 11.3594 42.3633 10.5547 41.2773C9.75781 40.1836 8.61719 39.6367 7.13281 39.6367C5.71875 39.6367 4.60156 40.1797 3.78125 41.2656C2.96875 42.3438 2.55078 43.8438 2.52734 45.7656V47.0195C2.52734 48.9727 2.93359 50.5117 3.74609 51.6367C4.56641 52.7617 5.70312 53.3242 7.15625 53.3242C8.60938 53.3242 9.73438 52.7969 10.5312 51.7422C11.3281 50.6797 11.7383 49.1602 11.7617 47.1836V45.918Z" fill="white"/>
<path d="M24.9688 53.7461C24.125 54.7383 22.8867 55.2344 21.2539 55.2344C19.9023 55.2344 18.8711 54.8438 18.1602 54.0625C17.457 53.2734 17.1016 52.1094 17.0938 50.5703V42.3203H19.2617V50.5117C19.2617 52.4336 20.043 53.3945 21.6055 53.3945C23.2617 53.3945 24.3633 52.7773 24.9102 51.543V42.3203H27.0781V55H25.0156L24.9688 53.7461Z" fill="white"/>
<path d="M32.7383 55H30.5586V42.3203H32.7383V55ZM32.7617 37.0117H35.3867L32.2461 40.457H30.5L32.7617 37.0117Z" fill="white"/>
<path d="M38.3516 42.3203L38.4102 43.7266C39.3398 42.6328 40.5938 42.0859 42.1719 42.0859C43.9453 42.0859 45.1523 42.7656 45.793 44.125C46.2148 43.5156 46.7617 43.0234 47.4336 42.6484C48.1133 42.2734 48.9141 42.0859 49.8359 42.0859C52.6172 42.0859 54.0312 43.5586 54.0781 46.5039V55H51.9102V46.6328C51.9102 45.7266 51.7031 45.0508 51.2891 44.6055C50.875 44.1523 50.1797 43.9258 49.2031 43.9258C48.3984 43.9258 47.7305 44.168 47.1992 44.6523C46.668 45.1289 46.3594 45.7734 46.2734 46.5859V55H44.0938V46.6914C44.0938 44.8477 43.1914 43.9258 41.3867 43.9258C39.9648 43.9258 38.9922 44.5312 38.4688 45.7422V55H36.3008V42.3203H38.3516Z" fill="white"/>
<path d="M59.7148 55H57.5469V42.3203H59.7148V55ZM57.3711 38.957C57.3711 38.6055 57.4766 38.3086 57.6875 38.0664C57.9062 37.8242 58.2266 37.7031 58.6484 37.7031C59.0703 37.7031 59.3906 37.8242 59.6094 38.0664C59.8281 38.3086 59.9375 38.6055 59.9375 38.957C59.9375 39.3086 59.8281 39.6016 59.6094 39.8359C59.3906 40.0703 59.0703 40.1875 58.6484 40.1875C58.2266 40.1875 57.9062 40.0703 57.6875 39.8359C57.4766 39.6016 57.3711 39.3086 57.3711 38.957Z" fill="white"/>
<path d="M68.2812 53.4648C69.0547 53.4648 69.7305 53.2305 70.3086 52.7617C70.8867 52.293 71.207 51.707 71.2695 51.0039H73.3203C73.2812 51.7305 73.0312 52.4219 72.5703 53.0781C72.1094 53.7344 71.4922 54.2578 70.7188 54.6484C69.9531 55.0391 69.1406 55.2344 68.2812 55.2344C66.5547 55.2344 65.1797 54.6602 64.1562 53.5117C63.1406 52.3555 62.6328 50.7773 62.6328 48.7773V48.4141C62.6328 47.1797 62.8594 46.082 63.3125 45.1211C63.7656 44.1602 64.4141 43.4141 65.2578 42.8828C66.1094 42.3516 67.1133 42.0859 68.2695 42.0859C69.6914 42.0859 70.8711 42.5117 71.8086 43.3633C72.7539 44.2148 73.2578 45.3203 73.3203 46.6797H71.2695C71.207 45.8594 70.8945 45.1875 70.332 44.6641C69.7773 44.1328 69.0898 43.8672 68.2695 43.8672C67.168 43.8672 66.3125 44.2656 65.7031 45.0625C65.1016 45.8516 64.8008 46.9961 64.8008 48.4961V48.9062C64.8008 50.3672 65.1016 51.4922 65.7031 52.2812C66.3047 53.0703 67.1641 53.4648 68.2812 53.4648Z" fill="white"/>
<path d="M83.5859 55C83.4609 54.75 83.3594 54.3047 83.2812 53.6641C82.2734 54.7109 81.0703 55.2344 79.6719 55.2344C78.4219 55.2344 77.3945 54.8828 76.5898 54.1797C75.793 53.4688 75.3945 52.5703 75.3945 51.4844C75.3945 50.1641 75.8945 49.1406 76.8945 48.4141C77.9023 47.6797 79.3164 47.3125 81.1367 47.3125H83.2461V46.3164C83.2461 45.5586 83.0195 44.957 82.5664 44.5117C82.1133 44.0586 81.4453 43.832 80.5625 43.832C79.7891 43.832 79.1406 44.0273 78.6172 44.418C78.0938 44.8086 77.832 45.2812 77.832 45.8359H75.6523C75.6523 45.2031 75.875 44.5938 76.3203 44.0078C76.7734 43.4141 77.3828 42.9453 78.1484 42.6016C78.9219 42.2578 79.7695 42.0859 80.6914 42.0859C82.1523 42.0859 83.2969 42.4531 84.125 43.1875C84.9531 43.9141 85.3828 44.918 85.4141 46.1992V52.0352C85.4141 53.1992 85.5625 54.125 85.8594 54.8125V55H83.5859ZM79.9883 53.3477C80.668 53.3477 81.3125 53.1719 81.9219 52.8203C82.5312 52.4688 82.9727 52.0117 83.2461 51.4492V48.8477H81.5469C78.8906 48.8477 77.5625 49.625 77.5625 51.1797C77.5625 51.8594 77.7891 52.3906 78.2422 52.7734C78.6953 53.1562 79.2773 53.3477 79.9883 53.3477Z" fill="white"/>
</g>
<g id="Biolog&#195;&#173;a">
<path d="M103.98 55V37.9375H109.559C111.41 37.9375 112.801 38.3203 113.73 39.0859C114.668 39.8516 115.137 40.9844 115.137 42.4844C115.137 43.2812 114.91 43.9883 114.457 44.6055C114.004 45.2148 113.387 45.6875 112.605 46.0234C113.527 46.2812 114.254 46.7734 114.785 47.5C115.324 48.2188 115.594 49.0781 115.594 50.0781C115.594 51.6094 115.098 52.8125 114.105 53.6875C113.113 54.5625 111.711 55 109.898 55H103.98ZM106.23 47.0195V53.1602H109.945C110.992 53.1602 111.816 52.8906 112.418 52.3516C113.027 51.8047 113.332 51.0547 113.332 50.1016C113.332 48.0469 112.215 47.0195 109.98 47.0195H106.23ZM106.23 45.2148H109.629C110.613 45.2148 111.398 44.9688 111.984 44.4766C112.578 43.9844 112.875 43.3164 112.875 42.4727C112.875 41.5352 112.602 40.8555 112.055 40.4336C111.508 40.0039 110.676 39.7891 109.559 39.7891H106.23V45.2148Z" fill="white"/>
<path d="M120.949 55H118.781V42.3203H120.949V55ZM118.605 38.957C118.605 38.6055 118.711 38.3086 118.922 38.0664C119.141 37.8242 119.461 37.7031 119.883 37.7031C120.305 37.7031 120.625 37.8242 120.844 38.0664C121.062 38.3086 121.172 38.6055 121.172 38.957C121.172 39.3086 121.062 39.6016 120.844 39.8359C120.625 40.0703 120.305 40.1875 119.883 40.1875C119.461 40.1875 119.141 40.0703 118.922 39.8359C118.711 39.6016 118.605 39.3086 118.605 38.957Z" fill="white"/>
<path d="M123.855 48.543C123.855 47.3008 124.098 46.1836 124.582 45.1914C125.074 44.1992 125.754 43.4336 126.621 42.8945C127.496 42.3555 128.492 42.0859 129.609 42.0859C131.336 42.0859 132.73 42.6836 133.793 43.8789C134.863 45.0742 135.398 46.6641 135.398 48.6484V48.8008C135.398 50.0352 135.16 51.1445 134.684 52.1289C134.215 53.1055 133.539 53.8672 132.656 54.4141C131.781 54.9609 130.773 55.2344 129.633 55.2344C127.914 55.2344 126.52 54.6367 125.449 53.4414C124.387 52.2461 123.855 50.6641 123.855 48.6953V48.543ZM126.035 48.8008C126.035 50.207 126.359 51.3359 127.008 52.1875C127.664 53.0391 128.539 53.4648 129.633 53.4648C130.734 53.4648 131.609 53.0352 132.258 52.1758C132.906 51.3086 133.23 50.0977 133.23 48.543C133.23 47.1523 132.898 46.0273 132.234 45.168C131.578 44.3008 130.703 43.8672 129.609 43.8672C128.539 43.8672 127.676 44.293 127.02 45.1445C126.363 45.9961 126.035 47.2148 126.035 48.8008Z" fill="white"/>
<path d="M140.473 55H138.305V37H140.473V55Z" fill="white"/>
<path d="M143.379 48.543C143.379 47.3008 143.621 46.1836 144.105 45.1914C144.598 44.1992 145.277 43.4336 146.145 42.8945C147.02 42.3555 148.016 42.0859 149.133 42.0859C150.859 42.0859 152.254 42.6836 153.316 43.8789C154.387 45.0742 154.922 46.6641 154.922 48.6484V48.8008C154.922 50.0352 154.684 51.1445 154.207 52.1289C153.738 53.1055 153.062 53.8672 152.18 54.4141C151.305 54.9609 150.297 55.2344 149.156 55.2344C147.438 55.2344 146.043 54.6367 144.973 53.4414C143.91 52.2461 143.379 50.6641 143.379 48.6953V48.543ZM145.559 48.8008C145.559 50.207 145.883 51.3359 146.531 52.1875C147.188 53.0391 148.062 53.4648 149.156 53.4648C150.258 53.4648 151.133 53.0352 151.781 52.1758C152.43 51.3086 152.754 50.0977 152.754 48.543C152.754 47.1523 152.422 46.0273 151.758 45.168C151.102 44.3008 150.227 43.8672 149.133 43.8672C148.062 43.8672 147.199 44.293 146.543 45.1445C145.887 45.9961 145.559 47.2148 145.559 48.8008Z" fill="white"/>
<path d="M157.125 48.5547C157.125 46.5781 157.582 45.0078 158.496 43.8438C159.41 42.6719 160.621 42.0859 162.129 42.0859C163.676 42.0859 164.883 42.6328 165.75 43.7266L165.855 42.3203H167.836V54.6953C167.836 56.3359 167.348 57.6289 166.371 58.5742C165.402 59.5195 164.098 59.9922 162.457 59.9922C161.543 59.9922 160.648 59.7969 159.773 59.4062C158.898 59.0156 158.23 58.4805 157.77 57.8008L158.895 56.5C159.824 57.6484 160.961 58.2227 162.305 58.2227C163.359 58.2227 164.18 57.9258 164.766 57.332C165.359 56.7383 165.656 55.9023 165.656 54.8242V53.7344C164.789 54.7344 163.605 55.2344 162.105 55.2344C160.621 55.2344 159.418 54.6367 158.496 53.4414C157.582 52.2461 157.125 50.6172 157.125 48.5547ZM159.305 48.8008C159.305 50.2305 159.598 51.3555 160.184 52.1758C160.77 52.9883 161.59 53.3945 162.645 53.3945C164.012 53.3945 165.016 52.7734 165.656 51.5312V45.7422C164.992 44.5312 163.996 43.9258 162.668 43.9258C161.613 43.9258 160.789 44.3359 160.195 45.1562C159.602 45.9766 159.305 47.1914 159.305 48.8008Z" fill="white"/>
<path d="M173.473 55H171.293V42.3203H173.473V55ZM173.496 37.0117H176.121L172.98 40.457H171.234L173.496 37.0117Z" fill="white"/>
<path d="M184.875 55C184.75 54.75 184.648 54.3047 184.57 53.6641C183.562 54.7109 182.359 55.2344 180.961 55.2344C179.711 55.2344 178.684 54.8828 177.879 54.1797C177.082 53.4688 176.684 52.5703 176.684 51.4844C176.684 50.1641 177.184 49.1406 178.184 48.4141C179.191 47.6797 180.605 47.3125 182.426 47.3125H184.535V46.3164C184.535 45.5586 184.309 44.957 183.855 44.5117C183.402 44.0586 182.734 43.832 181.852 43.832C181.078 43.832 180.43 44.0273 179.906 44.418C179.383 44.8086 179.121 45.2812 179.121 45.8359H176.941C176.941 45.2031 177.164 44.5938 177.609 44.0078C178.062 43.4141 178.672 42.9453 179.438 42.6016C180.211 42.2578 181.059 42.0859 181.98 42.0859C183.441 42.0859 184.586 42.4531 185.414 43.1875C186.242 43.9141 186.672 44.918 186.703 46.1992V52.0352C186.703 53.1992 186.852 54.125 187.148 54.8125V55H184.875ZM181.277 53.3477C181.957 53.3477 182.602 53.1719 183.211 52.8203C183.82 52.4688 184.262 52.0117 184.535 51.4492V48.8477H182.836C180.18 48.8477 178.852 49.625 178.852 51.1797C178.852 51.8594 179.078 52.3906 179.531 52.7734C179.984 53.1562 180.566 53.3477 181.277 53.3477Z" fill="white"/>
</g>
<g id="F&#195;&#173;sica">
<path d="M214.391 47.4648H207.23V55H204.98V37.9375H215.551V39.7891H207.23V45.625H214.391V47.4648Z" fill="white"/>
<path d="M220.262 55H218.082V42.3203H220.262V55ZM220.285 37.0117H222.91L219.77 40.457H218.023L220.285 37.0117Z" fill="white"/>
<path d="M231.219 51.6367C231.219 51.0508 230.996 50.5977 230.551 50.2773C230.113 49.9492 229.344 49.668 228.242 49.4336C227.148 49.1992 226.277 48.918 225.629 48.5898C224.988 48.2617 224.512 47.8711 224.199 47.418C223.895 46.9648 223.742 46.4258 223.742 45.8008C223.742 44.7617 224.18 43.8828 225.055 43.1641C225.938 42.4453 227.062 42.0859 228.43 42.0859C229.867 42.0859 231.031 42.457 231.922 43.1992C232.82 43.9414 233.27 44.8906 233.27 46.0469H231.09C231.09 45.4531 230.836 44.9414 230.328 44.5117C229.828 44.082 229.195 43.8672 228.43 43.8672C227.641 43.8672 227.023 44.0391 226.578 44.3828C226.133 44.7266 225.91 45.1758 225.91 45.7305C225.91 46.2539 226.117 46.6484 226.531 46.9141C226.945 47.1797 227.691 47.4336 228.77 47.6758C229.855 47.918 230.734 48.207 231.406 48.543C232.078 48.8789 232.574 49.2852 232.895 49.7617C233.223 50.2305 233.387 50.8047 233.387 51.4844C233.387 52.6172 232.934 53.5273 232.027 54.2148C231.121 54.8945 229.945 55.2344 228.5 55.2344C227.484 55.2344 226.586 55.0547 225.805 54.6953C225.023 54.3359 224.41 53.8359 223.965 53.1953C223.527 52.5469 223.309 51.8477 223.309 51.0977H225.477C225.516 51.8242 225.805 52.4023 226.344 52.832C226.891 53.2539 227.609 53.4648 228.5 53.4648C229.32 53.4648 229.977 53.3008 230.469 52.9727C230.969 52.6367 231.219 52.1914 231.219 51.6367Z" fill="white"/>
<path d="M238.566 55H236.398V42.3203H238.566V55ZM236.223 38.957C236.223 38.6055 236.328 38.3086 236.539 38.0664C236.758 37.8242 237.078 37.7031 237.5 37.7031C237.922 37.7031 238.242 37.8242 238.461 38.0664C238.68 38.3086 238.789 38.6055 238.789 38.957C238.789 39.3086 238.68 39.6016 238.461 39.8359C238.242 40.0703 237.922 40.1875 237.5 40.1875C237.078 40.1875 236.758 40.0703 236.539 39.8359C236.328 39.6016 236.223 39.3086 236.223 38.957Z" fill="white"/>
<path d="M247.133 53.4648C247.906 53.4648 248.582 53.2305 249.16 52.7617C249.738 52.293 250.059 51.707 250.121 51.0039H252.172C252.133 51.7305 251.883 52.4219 251.422 53.0781C250.961 53.7344 250.344 54.2578 249.57 54.6484C248.805 55.0391 247.992 55.2344 247.133 55.2344C245.406 55.2344 244.031 54.6602 243.008 53.5117C241.992 52.3555 241.484 50.7773 241.484 48.7773V48.4141C241.484 47.1797 241.711 46.082 242.164 45.1211C242.617 44.1602 243.266 43.4141 244.109 42.8828C244.961 42.3516 245.965 42.0859 247.121 42.0859C248.543 42.0859 249.723 42.5117 250.66 43.3633C251.605 44.2148 252.109 45.3203 252.172 46.6797H250.121C250.059 45.8594 249.746 45.1875 249.184 44.6641C248.629 44.1328 247.941 43.8672 247.121 43.8672C246.02 43.8672 245.164 44.2656 244.555 45.0625C243.953 45.8516 243.652 46.9961 243.652 48.4961V48.9062C243.652 50.3672 243.953 51.4922 244.555 52.2812C245.156 53.0703 246.016 53.4648 247.133 53.4648Z" fill="white"/>
<path d="M262.438 55C262.312 54.75 262.211 54.3047 262.133 53.6641C261.125 54.7109 259.922 55.2344 258.523 55.2344C257.273 55.2344 256.246 54.8828 255.441 54.1797C254.645 53.4688 254.246 52.5703 254.246 51.4844C254.246 50.1641 254.746 49.1406 255.746 48.4141C256.754 47.6797 258.168 47.3125 259.988 47.3125H262.098V46.3164C262.098 45.5586 261.871 44.957 261.418 44.5117C260.965 44.0586 260.297 43.832 259.414 43.832C258.641 43.832 257.992 44.0273 257.469 44.418C256.945 44.8086 256.684 45.2812 256.684 45.8359H254.504C254.504 45.2031 254.727 44.5938 255.172 44.0078C255.625 43.4141 256.234 42.9453 257 42.6016C257.773 42.2578 258.621 42.0859 259.543 42.0859C261.004 42.0859 262.148 42.4531 262.977 43.1875C263.805 43.9141 264.234 44.918 264.266 46.1992V52.0352C264.266 53.1992 264.414 54.125 264.711 54.8125V55H262.438ZM258.84 53.3477C259.52 53.3477 260.164 53.1719 260.773 52.8203C261.383 52.4688 261.824 52.0117 262.098 51.4492V48.8477H260.398C257.742 48.8477 256.414 49.625 256.414 51.1797C256.414 51.8594 256.641 52.3906 257.094 52.7734C257.547 53.1562 258.129 53.3477 258.84 53.3477Z" fill="white"/>
</g>
<g id="Deportes">
<path d="M282.98 55V37.9375H287.797C289.281 37.9375 290.594 38.2656 291.734 38.9219C292.875 39.5781 293.754 40.5117 294.371 41.7227C294.996 42.9336 295.312 44.3242 295.32 45.8945V46.9844C295.32 48.5938 295.008 50.0039 294.383 51.2148C293.766 52.4258 292.879 53.3555 291.723 54.0039C290.574 54.6523 289.234 54.9844 287.703 55H282.98ZM285.23 39.7891V53.1602H287.598C289.332 53.1602 290.68 52.6211 291.641 51.543C292.609 50.4648 293.094 48.9297 293.094 46.9375V45.9414C293.094 44.0039 292.637 42.5 291.723 41.4297C290.816 40.3516 289.527 39.8047 287.855 39.7891H285.23Z" fill="white"/>
<path d="M303.652 55.2344C301.934 55.2344 300.535 54.6719 299.457 53.5469C298.379 52.4141 297.84 50.9023 297.84 49.0117V48.6133C297.84 47.3555 298.078 46.2344 298.555 45.25C299.039 44.2578 299.711 43.4844 300.57 42.9297C301.438 42.3672 302.375 42.0859 303.383 42.0859C305.031 42.0859 306.312 42.6289 307.227 43.7148C308.141 44.8008 308.598 46.3555 308.598 48.3789V49.2812H300.008C300.039 50.5312 300.402 51.543 301.098 52.3164C301.801 53.082 302.691 53.4648 303.77 53.4648C304.535 53.4648 305.184 53.3086 305.715 52.9961C306.246 52.6836 306.711 52.2695 307.109 51.7539L308.434 52.7852C307.371 54.418 305.777 55.2344 303.652 55.2344ZM303.383 43.8672C302.508 43.8672 301.773 44.1875 301.18 44.8281C300.586 45.4609 300.219 46.3516 300.078 47.5H306.43V47.3359C306.367 46.2344 306.07 45.3828 305.539 44.7812C305.008 44.1719 304.289 43.8672 303.383 43.8672Z" fill="white"/>
<path d="M321.828 48.8008C321.828 50.7305 321.387 52.2852 320.504 53.4648C319.621 54.6445 318.426 55.2344 316.918 55.2344C315.379 55.2344 314.168 54.7461 313.285 53.7695V59.875H311.117V42.3203H313.098L313.203 43.7266C314.086 42.6328 315.312 42.0859 316.883 42.0859C318.406 42.0859 319.609 42.6602 320.492 43.8086C321.383 44.957 321.828 46.5547 321.828 48.6016V48.8008ZM319.66 48.5547C319.66 47.125 319.355 45.9961 318.746 45.168C318.137 44.3398 317.301 43.9258 316.238 43.9258C314.926 43.9258 313.941 44.5078 313.285 45.6719V51.7305C313.934 52.8867 314.926 53.4648 316.262 53.4648C317.301 53.4648 318.125 53.0547 318.734 52.2344C319.352 51.4062 319.66 50.1797 319.66 48.5547Z" fill="white"/>
<path d="M324.02 48.543C324.02 47.3008 324.262 46.1836 324.746 45.1914C325.238 44.1992 325.918 43.4336 326.785 42.8945C327.66 42.3555 328.656 42.0859 329.773 42.0859C331.5 42.0859 332.895 42.6836 333.957 43.8789C335.027 45.0742 335.562 46.6641 335.562 48.6484V48.8008C335.562 50.0352 335.324 51.1445 334.848 52.1289C334.379 53.1055 333.703 53.8672 332.82 54.4141C331.945 54.9609 330.938 55.2344 329.797 55.2344C328.078 55.2344 326.684 54.6367 325.613 53.4414C324.551 52.2461 324.02 50.6641 324.02 48.6953V48.543ZM326.199 48.8008C326.199 50.207 326.523 51.3359 327.172 52.1875C327.828 53.0391 328.703 53.4648 329.797 53.4648C330.898 53.4648 331.773 53.0352 332.422 52.1758C333.07 51.3086 333.395 50.0977 333.395 48.543C333.395 47.1523 333.062 46.0273 332.398 45.168C331.742 44.3008 330.867 43.8672 329.773 43.8672C328.703 43.8672 327.84 44.293 327.184 45.1445C326.527 45.9961 326.199 47.2148 326.199 48.8008Z" fill="white"/>
<path d="M344.41 44.2656C344.082 44.2109 343.727 44.1836 343.344 44.1836C341.922 44.1836 340.957 44.7891 340.449 46V55H338.281V42.3203H340.391L340.426 43.7852C341.137 42.6523 342.145 42.0859 343.449 42.0859C343.871 42.0859 344.191 42.1406 344.41 42.25V44.2656Z" fill="white"/>
<path d="M349.941 39.25V42.3203H352.309V43.9961H349.941V51.8594C349.941 52.3672 350.047 52.75 350.258 53.0078C350.469 53.2578 350.828 53.3828 351.336 53.3828C351.586 53.3828 351.93 53.3359 352.367 53.2422V55C351.797 55.1562 351.242 55.2344 350.703 55.2344C349.734 55.2344 349.004 54.9414 348.512 54.3555C348.02 53.7695 347.773 52.9375 347.773 51.8594V43.9961H345.465V42.3203H347.773V39.25H349.941Z" fill="white"/>
<path d="M360.113 55.2344C358.395 55.2344 356.996 54.6719 355.918 53.5469C354.84 52.4141 354.301 50.9023 354.301 49.0117V48.6133C354.301 47.3555 354.539 46.2344 355.016 45.25C355.5 44.2578 356.172 43.4844 357.031 42.9297C357.898 42.3672 358.836 42.0859 359.844 42.0859C361.492 42.0859 362.773 42.6289 363.688 43.7148C364.602 44.8008 365.059 46.3555 365.059 48.3789V49.2812H356.469C356.5 50.5312 356.863 51.543 357.559 52.3164C358.262 53.082 359.152 53.4648 360.23 53.4648C360.996 53.4648 361.645 53.3086 362.176 52.9961C362.707 52.6836 363.172 52.2695 363.57 51.7539L364.895 52.7852C363.832 54.418 362.238 55.2344 360.113 55.2344ZM359.844 43.8672C358.969 43.8672 358.234 44.1875 357.641 44.8281C357.047 45.4609 356.68 46.3516 356.539 47.5H362.891V47.3359C362.828 46.2344 362.531 45.3828 362 44.7812C361.469 44.1719 360.75 43.8672 359.844 43.8672Z" fill="white"/>
<path d="M374.961 51.6367C374.961 51.0508 374.738 50.5977 374.293 50.2773C373.855 49.9492 373.086 49.668 371.984 49.4336C370.891 49.1992 370.02 48.918 369.371 48.5898C368.73 48.2617 368.254 47.8711 367.941 47.418C367.637 46.9648 367.484 46.4258 367.484 45.8008C367.484 44.7617 367.922 43.8828 368.797 43.1641C369.68 42.4453 370.805 42.0859 372.172 42.0859C373.609 42.0859 374.773 42.457 375.664 43.1992C376.562 43.9414 377.012 44.8906 377.012 46.0469H374.832C374.832 45.4531 374.578 44.9414 374.07 44.5117C373.57 44.082 372.938 43.8672 372.172 43.8672C371.383 43.8672 370.766 44.0391 370.32 44.3828C369.875 44.7266 369.652 45.1758 369.652 45.7305C369.652 46.2539 369.859 46.6484 370.273 46.9141C370.688 47.1797 371.434 47.4336 372.512 47.6758C373.598 47.918 374.477 48.207 375.148 48.543C375.82 48.8789 376.316 49.2852 376.637 49.7617C376.965 50.2305 377.129 50.8047 377.129 51.4844C377.129 52.6172 376.676 53.5273 375.77 54.2148C374.863 54.8945 373.688 55.2344 372.242 55.2344C371.227 55.2344 370.328 55.0547 369.547 54.6953C368.766 54.3359 368.152 53.8359 367.707 53.1953C367.27 52.5469 367.051 51.8477 367.051 51.0977H369.219C369.258 51.8242 369.547 52.4023 370.086 52.832C370.633 53.2539 371.352 53.4648 372.242 53.4648C373.062 53.4648 373.719 53.3008 374.211 52.9727C374.711 52.6367 374.961 52.1914 374.961 51.6367Z" fill="white"/>
</g>
<g id="M&#195;&#186;sica">
<path d="M397.887 37.9375L403.465 51.8594L409.043 37.9375H411.961V55H409.711V48.3555L409.922 41.1836L404.32 55H402.598L397.008 41.2188L397.23 48.3555V55H394.98V37.9375H397.887Z" fill="white"/>
<path d="M423.422 53.7461C422.578 54.7383 421.34 55.2344 419.707 55.2344C418.355 55.2344 417.324 54.8438 416.613 54.0625C415.91 53.2734 415.555 52.1094 415.547 50.5703V42.3203H417.715V50.5117C417.715 52.4336 418.496 53.3945 420.059 53.3945C421.715 53.3945 422.816 52.7773 423.363 51.543V42.3203H425.531V55H423.469L423.422 53.7461ZM421.664 37H424.289L421.148 40.4453H419.402L421.664 37Z" fill="white"/>
<path d="M436.219 51.6367C436.219 51.0508 435.996 50.5977 435.551 50.2773C435.113 49.9492 434.344 49.668 433.242 49.4336C432.148 49.1992 431.277 48.918 430.629 48.5898C429.988 48.2617 429.512 47.8711 429.199 47.418C428.895 46.9648 428.742 46.4258 428.742 45.8008C428.742 44.7617 429.18 43.8828 430.055 43.1641C430.938 42.4453 432.062 42.0859 433.43 42.0859C434.867 42.0859 436.031 42.457 436.922 43.1992C437.82 43.9414 438.27 44.8906 438.27 46.0469H436.09C436.09 45.4531 435.836 44.9414 435.328 44.5117C434.828 44.082 434.195 43.8672 433.43 43.8672C432.641 43.8672 432.023 44.0391 431.578 44.3828C431.133 44.7266 430.91 45.1758 430.91 45.7305C430.91 46.2539 431.117 46.6484 431.531 46.9141C431.945 47.1797 432.691 47.4336 433.77 47.6758C434.855 47.918 435.734 48.207 436.406 48.543C437.078 48.8789 437.574 49.2852 437.895 49.7617C438.223 50.2305 438.387 50.8047 438.387 51.4844C438.387 52.6172 437.934 53.5273 437.027 54.2148C436.121 54.8945 434.945 55.2344 433.5 55.2344C432.484 55.2344 431.586 55.0547 430.805 54.6953C430.023 54.3359 429.41 53.8359 428.965 53.1953C428.527 52.5469 428.309 51.8477 428.309 51.0977H430.477C430.516 51.8242 430.805 52.4023 431.344 52.832C431.891 53.2539 432.609 53.4648 433.5 53.4648C434.32 53.4648 434.977 53.3008 435.469 52.9727C435.969 52.6367 436.219 52.1914 436.219 51.6367Z" fill="white"/>
<path d="M443.566 55H441.398V42.3203H443.566V55ZM441.223 38.957C441.223 38.6055 441.328 38.3086 441.539 38.0664C441.758 37.8242 442.078 37.7031 442.5 37.7031C442.922 37.7031 443.242 37.8242 443.461 38.0664C443.68 38.3086 443.789 38.6055 443.789 38.957C443.789 39.3086 443.68 39.6016 443.461 39.8359C443.242 40.0703 442.922 40.1875 442.5 40.1875C442.078 40.1875 441.758 40.0703 441.539 39.8359C441.328 39.6016 441.223 39.3086 441.223 38.957Z" fill="white"/>
<path d="M452.133 53.4648C452.906 53.4648 453.582 53.2305 454.16 52.7617C454.738 52.293 455.059 51.707 455.121 51.0039H457.172C457.133 51.7305 456.883 52.4219 456.422 53.0781C455.961 53.7344 455.344 54.2578 454.57 54.6484C453.805 55.0391 452.992 55.2344 452.133 55.2344C450.406 55.2344 449.031 54.6602 448.008 53.5117C446.992 52.3555 446.484 50.7773 446.484 48.7773V48.4141C446.484 47.1797 446.711 46.082 447.164 45.1211C447.617 44.1602 448.266 43.4141 449.109 42.8828C449.961 42.3516 450.965 42.0859 452.121 42.0859C453.543 42.0859 454.723 42.5117 455.66 43.3633C456.605 44.2148 457.109 45.3203 457.172 46.6797H455.121C455.059 45.8594 454.746 45.1875 454.184 44.6641C453.629 44.1328 452.941 43.8672 452.121 43.8672C451.02 43.8672 450.164 44.2656 449.555 45.0625C448.953 45.8516 448.652 46.9961 448.652 48.4961V48.9062C448.652 50.3672 448.953 51.4922 449.555 52.2812C450.156 53.0703 451.016 53.4648 452.133 53.4648Z" fill="white"/>
<path d="M467.438 55C467.312 54.75 467.211 54.3047 467.133 53.6641C466.125 54.7109 464.922 55.2344 463.523 55.2344C462.273 55.2344 461.246 54.8828 460.441 54.1797C459.645 53.4688 459.246 52.5703 459.246 51.4844C459.246 50.1641 459.746 49.1406 460.746 48.4141C461.754 47.6797 463.168 47.3125 464.988 47.3125H467.098V46.3164C467.098 45.5586 466.871 44.957 466.418 44.5117C465.965 44.0586 465.297 43.832 464.414 43.832C463.641 43.832 462.992 44.0273 462.469 44.418C461.945 44.8086 461.684 45.2812 461.684 45.8359H459.504C459.504 45.2031 459.727 44.5938 460.172 44.0078C460.625 43.4141 461.234 42.9453 462 42.6016C462.773 42.2578 463.621 42.0859 464.543 42.0859C466.004 42.0859 467.148 42.4531 467.977 43.1875C468.805 43.9141 469.234 44.918 469.266 46.1992V52.0352C469.266 53.1992 469.414 54.125 469.711 54.8125V55H467.438ZM463.84 53.3477C464.52 53.3477 465.164 53.1719 465.773 52.8203C466.383 52.4688 466.824 52.0117 467.098 51.4492V48.8477H465.398C462.742 48.8477 461.414 49.625 461.414 51.1797C461.414 51.8594 461.641 52.3906 462.094 52.7734C462.547 53.1562 463.129 53.3477 463.84 53.3477Z" fill="white"/>
</g>
<g id="Historia">
<path d="M501.094 55H498.832V47.1133H490.23V55H487.98V37.9375H490.23V45.2734H498.832V37.9375H501.094V55Z" fill="white"/>
<path d="M507.105 55H504.938V42.3203H507.105V55ZM504.762 38.957C504.762 38.6055 504.867 38.3086 505.078 38.0664C505.297 37.8242 505.617 37.7031 506.039 37.7031C506.461 37.7031 506.781 37.8242 507 38.0664C507.219 38.3086 507.328 38.6055 507.328 38.957C507.328 39.3086 507.219 39.6016 507 39.8359C506.781 40.0703 506.461 40.1875 506.039 40.1875C505.617 40.1875 505.297 40.0703 505.078 39.8359C504.867 39.6016 504.762 39.3086 504.762 38.957Z" fill="white"/>
<path d="M517.969 51.6367C517.969 51.0508 517.746 50.5977 517.301 50.2773C516.863 49.9492 516.094 49.668 514.992 49.4336C513.898 49.1992 513.027 48.918 512.379 48.5898C511.738 48.2617 511.262 47.8711 510.949 47.418C510.645 46.9648 510.492 46.4258 510.492 45.8008C510.492 44.7617 510.93 43.8828 511.805 43.1641C512.688 42.4453 513.812 42.0859 515.18 42.0859C516.617 42.0859 517.781 42.457 518.672 43.1992C519.57 43.9414 520.02 44.8906 520.02 46.0469H517.84C517.84 45.4531 517.586 44.9414 517.078 44.5117C516.578 44.082 515.945 43.8672 515.18 43.8672C514.391 43.8672 513.773 44.0391 513.328 44.3828C512.883 44.7266 512.66 45.1758 512.66 45.7305C512.66 46.2539 512.867 46.6484 513.281 46.9141C513.695 47.1797 514.441 47.4336 515.52 47.6758C516.605 47.918 517.484 48.207 518.156 48.543C518.828 48.8789 519.324 49.2852 519.645 49.7617C519.973 50.2305 520.137 50.8047 520.137 51.4844C520.137 52.6172 519.684 53.5273 518.777 54.2148C517.871 54.8945 516.695 55.2344 515.25 55.2344C514.234 55.2344 513.336 55.0547 512.555 54.6953C511.773 54.3359 511.16 53.8359 510.715 53.1953C510.277 52.5469 510.059 51.8477 510.059 51.0977H512.227C512.266 51.8242 512.555 52.4023 513.094 52.832C513.641 53.2539 514.359 53.4648 515.25 53.4648C516.07 53.4648 516.727 53.3008 517.219 52.9727C517.719 52.6367 517.969 52.1914 517.969 51.6367Z" fill="white"/>
<path d="M525.902 39.25V42.3203H528.27V43.9961H525.902V51.8594C525.902 52.3672 526.008 52.75 526.219 53.0078C526.43 53.2578 526.789 53.3828 527.297 53.3828C527.547 53.3828 527.891 53.3359 528.328 53.2422V55C527.758 55.1562 527.203 55.2344 526.664 55.2344C525.695 55.2344 524.965 54.9414 524.473 54.3555C523.98 53.7695 523.734 52.9375 523.734 51.8594V43.9961H521.426V42.3203H523.734V39.25H525.902Z" fill="white"/>
<path d="M530.004 48.543C530.004 47.3008 530.246 46.1836 530.73 45.1914C531.223 44.1992 531.902 43.4336 532.77 42.8945C533.645 42.3555 534.641 42.0859 535.758 42.0859C537.484 42.0859 538.879 42.6836 539.941 43.8789C541.012 45.0742 541.547 46.6641 541.547 48.6484V48.8008C541.547 50.0352 541.309 51.1445 540.832 52.1289C540.363 53.1055 539.688 53.8672 538.805 54.4141C537.93 54.9609 536.922 55.2344 535.781 55.2344C534.062 55.2344 532.668 54.6367 531.598 53.4414C530.535 52.2461 530.004 50.6641 530.004 48.6953V48.543ZM532.184 48.8008C532.184 50.207 532.508 51.3359 533.156 52.1875C533.812 53.0391 534.688 53.4648 535.781 53.4648C536.883 53.4648 537.758 53.0352 538.406 52.1758C539.055 51.3086 539.379 50.0977 539.379 48.543C539.379 47.1523 539.047 46.0273 538.383 45.168C537.727 44.3008 536.852 43.8672 535.758 43.8672C534.688 43.8672 533.824 44.293 533.168 45.1445C532.512 45.9961 532.184 47.2148 532.184 48.8008Z" fill="white"/>
<path d="M550.395 44.2656C550.066 44.2109 549.711 44.1836 549.328 44.1836C547.906 44.1836 546.941 44.7891 546.434 46V55H544.266V42.3203H546.375L546.41 43.7852C547.121 42.6523 548.129 42.0859 549.434 42.0859C549.855 42.0859 550.176 42.1406 550.395 42.25V44.2656Z" fill="white"/>
<path d="M554.754 55H552.586V42.3203H554.754V55ZM552.41 38.957C552.41 38.6055 552.516 38.3086 552.727 38.0664C552.945 37.8242 553.266 37.7031 553.688 37.7031C554.109 37.7031 554.43 37.8242 554.648 38.0664C554.867 38.3086 554.977 38.6055 554.977 38.957C554.977 39.3086 554.867 39.6016 554.648 39.8359C554.43 40.0703 554.109 40.1875 553.688 40.1875C553.266 40.1875 552.945 40.0703 552.727 39.8359C552.516 39.6016 552.41 39.3086 552.41 38.957Z" fill="white"/>
<path d="M566.062 55C565.938 54.75 565.836 54.3047 565.758 53.6641C564.75 54.7109 563.547 55.2344 562.148 55.2344C560.898 55.2344 559.871 54.8828 559.066 54.1797C558.27 53.4688 557.871 52.5703 557.871 51.4844C557.871 50.1641 558.371 49.1406 559.371 48.4141C560.379 47.6797 561.793 47.3125 563.613 47.3125H565.723V46.3164C565.723 45.5586 565.496 44.957 565.043 44.5117C564.59 44.0586 563.922 43.832 563.039 43.832C562.266 43.832 561.617 44.0273 561.094 44.418C560.57 44.8086 560.309 45.2812 560.309 45.8359H558.129C558.129 45.2031 558.352 44.5938 558.797 44.0078C559.25 43.4141 559.859 42.9453 560.625 42.6016C561.398 42.2578 562.246 42.0859 563.168 42.0859C564.629 42.0859 565.773 42.4531 566.602 43.1875C567.43 43.9141 567.859 44.918 567.891 46.1992V52.0352C567.891 53.1992 568.039 54.125 568.336 54.8125V55H566.062ZM562.465 53.3477C563.145 53.3477 563.789 53.1719 564.398 52.8203C565.008 52.4688 565.449 52.0117 565.723 51.4492V48.8477H564.023C561.367 48.8477 560.039 49.625 560.039 51.1797C560.039 51.8594 560.266 52.3906 560.719 52.7734C561.172 53.1562 561.754 53.3477 562.465 53.3477Z" fill="white"/>
</g>
<g id="Idiomas Arte">
<path d="M588.395 55H586.145V37.9375H588.395V55Z" fill="white"/>
<path d="M591.652 48.5547C591.652 46.6094 592.113 45.0469 593.035 43.8672C593.957 42.6797 595.164 42.0859 596.656 42.0859C598.141 42.0859 599.316 42.5938 600.184 43.6094V37H602.352V55H600.359L600.254 53.6406C599.387 54.7031 598.18 55.2344 596.633 55.2344C595.164 55.2344 593.965 54.6328 593.035 53.4297C592.113 52.2266 591.652 50.6562 591.652 48.7188V48.5547ZM593.82 48.8008C593.82 50.2383 594.117 51.3633 594.711 52.1758C595.305 52.9883 596.125 53.3945 597.172 53.3945C598.547 53.3945 599.551 52.7773 600.184 51.543V45.7188C599.535 44.5234 598.539 43.9258 597.195 43.9258C596.133 43.9258 595.305 44.3359 594.711 45.1562C594.117 45.9766 593.82 47.1914 593.82 48.8008Z" fill="white"/>
<path d="M608.082 55H605.914V42.3203H608.082V55ZM605.738 38.957C605.738 38.6055 605.844 38.3086 606.055 38.0664C606.273 37.8242 606.594 37.7031 607.016 37.7031C607.438 37.7031 607.758 37.8242 607.977 38.0664C608.195 38.3086 608.305 38.6055 608.305 38.957C608.305 39.3086 608.195 39.6016 607.977 39.8359C607.758 40.0703 607.438 40.1875 607.016 40.1875C606.594 40.1875 606.273 40.0703 606.055 39.8359C605.844 39.6016 605.738 39.3086 605.738 38.957Z" fill="white"/>
<path d="M610.988 48.543C610.988 47.3008 611.23 46.1836 611.715 45.1914C612.207 44.1992 612.887 43.4336 613.754 42.8945C614.629 42.3555 615.625 42.0859 616.742 42.0859C618.469 42.0859 619.863 42.6836 620.926 43.8789C621.996 45.0742 622.531 46.6641 622.531 48.6484V48.8008C622.531 50.0352 622.293 51.1445 621.816 52.1289C621.348 53.1055 620.672 53.8672 619.789 54.4141C618.914 54.9609 617.906 55.2344 616.766 55.2344C615.047 55.2344 613.652 54.6367 612.582 53.4414C611.52 52.2461 610.988 50.6641 610.988 48.6953V48.543ZM613.168 48.8008C613.168 50.207 613.492 51.3359 614.141 52.1875C614.797 53.0391 615.672 53.4648 616.766 53.4648C617.867 53.4648 618.742 53.0352 619.391 52.1758C620.039 51.3086 620.363 50.0977 620.363 48.543C620.363 47.1523 620.031 46.0273 619.367 45.168C618.711 44.3008 617.836 43.8672 616.742 43.8672C615.672 43.8672 614.809 44.293 614.152 45.1445C613.496 45.9961 613.168 47.2148 613.168 48.8008Z" fill="white"/>
<path d="M627.289 42.3203L627.348 43.7266C628.277 42.6328 629.531 42.0859 631.109 42.0859C632.883 42.0859 634.09 42.7656 634.73 44.125C635.152 43.5156 635.699 43.0234 636.371 42.6484C637.051 42.2734 637.852 42.0859 638.773 42.0859C641.555 42.0859 642.969 43.5586 643.016 46.5039V55H640.848V46.6328C640.848 45.7266 640.641 45.0508 640.227 44.6055C639.812 44.1523 639.117 43.9258 638.141 43.9258C637.336 43.9258 636.668 44.168 636.137 44.6523C635.605 45.1289 635.297 45.7734 635.211 46.5859V55H633.031V46.6914C633.031 44.8477 632.129 43.9258 630.324 43.9258C628.902 43.9258 627.93 44.5312 627.406 45.7422V55H625.238V42.3203H627.289Z" fill="white"/>
<path d="M654.125 55C654 54.75 653.898 54.3047 653.82 53.6641C652.812 54.7109 651.609 55.2344 650.211 55.2344C648.961 55.2344 647.934 54.8828 647.129 54.1797C646.332 53.4688 645.934 52.5703 645.934 51.4844C645.934 50.1641 646.434 49.1406 647.434 48.4141C648.441 47.6797 649.855 47.3125 651.676 47.3125H653.785V46.3164C653.785 45.5586 653.559 44.957 653.105 44.5117C652.652 44.0586 651.984 43.832 651.102 43.832C650.328 43.832 649.68 44.0273 649.156 44.418C648.633 44.8086 648.371 45.2812 648.371 45.8359H646.191C646.191 45.2031 646.414 44.5938 646.859 44.0078C647.312 43.4141 647.922 42.9453 648.688 42.6016C649.461 42.2578 650.309 42.0859 651.23 42.0859C652.691 42.0859 653.836 42.4531 654.664 43.1875C655.492 43.9141 655.922 44.918 655.953 46.1992V52.0352C655.953 53.1992 656.102 54.125 656.398 54.8125V55H654.125ZM650.527 53.3477C651.207 53.3477 651.852 53.1719 652.461 52.8203C653.07 52.4688 653.512 52.0117 653.785 51.4492V48.8477H652.086C649.43 48.8477 648.102 49.625 648.102 51.1797C648.102 51.8594 648.328 52.3906 648.781 52.7734C649.234 53.1562 649.816 53.3477 650.527 53.3477Z" fill="white"/>
<path d="M666.734 51.6367C666.734 51.0508 666.512 50.5977 666.066 50.2773C665.629 49.9492 664.859 49.668 663.758 49.4336C662.664 49.1992 661.793 48.918 661.145 48.5898C660.504 48.2617 660.027 47.8711 659.715 47.418C659.41 46.9648 659.258 46.4258 659.258 45.8008C659.258 44.7617 659.695 43.8828 660.57 43.1641C661.453 42.4453 662.578 42.0859 663.945 42.0859C665.383 42.0859 666.547 42.457 667.438 43.1992C668.336 43.9414 668.785 44.8906 668.785 46.0469H666.605C666.605 45.4531 666.352 44.9414 665.844 44.5117C665.344 44.082 664.711 43.8672 663.945 43.8672C663.156 43.8672 662.539 44.0391 662.094 44.3828C661.648 44.7266 661.426 45.1758 661.426 45.7305C661.426 46.2539 661.633 46.6484 662.047 46.9141C662.461 47.1797 663.207 47.4336 664.285 47.6758C665.371 47.918 666.25 48.207 666.922 48.543C667.594 48.8789 668.09 49.2852 668.41 49.7617C668.738 50.2305 668.902 50.8047 668.902 51.4844C668.902 52.6172 668.449 53.5273 667.543 54.2148C666.637 54.8945 665.461 55.2344 664.016 55.2344C663 55.2344 662.102 55.0547 661.32 54.6953C660.539 54.3359 659.926 53.8359 659.48 53.1953C659.043 52.5469 658.824 51.8477 658.824 51.0977H660.992C661.031 51.8242 661.32 52.4023 661.859 52.832C662.406 53.2539 663.125 53.4648 664.016 53.4648C664.836 53.4648 665.492 53.3008 665.984 52.9727C666.484 52.6367 666.734 52.1914 666.734 51.6367Z" fill="white"/>
<path d="M693.395 50.5469H686.246L684.641 55H682.32L688.836 37.9375H690.805L697.332 55H695.023L693.395 50.5469ZM686.926 48.6953H692.727L689.82 40.7148L686.926 48.6953Z" fill="white"/>
<path d="M705.418 44.2656C705.09 44.2109 704.734 44.1836 704.352 44.1836C702.93 44.1836 701.965 44.7891 701.457 46V55H699.289V42.3203H701.398L701.434 43.7852C702.145 42.6523 703.152 42.0859 704.457 42.0859C704.879 42.0859 705.199 42.1406 705.418 42.25V44.2656Z" fill="white"/>
<path d="M710.949 39.25V42.3203H713.316V43.9961H710.949V51.8594C710.949 52.3672 711.055 52.75 711.266 53.0078C711.477 53.2578 711.836 53.3828 712.344 53.3828C712.594 53.3828 712.938 53.3359 713.375 53.2422V55C712.805 55.1562 712.25 55.2344 711.711 55.2344C710.742 55.2344 710.012 54.9414 709.52 54.3555C709.027 53.7695 708.781 52.9375 708.781 51.8594V43.9961H706.473V42.3203H708.781V39.25H710.949Z" fill="white"/>
<path d="M721.121 55.2344C719.402 55.2344 718.004 54.6719 716.926 53.5469C715.848 52.4141 715.309 50.9023 715.309 49.0117V48.6133C715.309 47.3555 715.547 46.2344 716.023 45.25C716.508 44.2578 717.18 43.4844 718.039 42.9297C718.906 42.3672 719.844 42.0859 720.852 42.0859C722.5 42.0859 723.781 42.6289 724.695 43.7148C725.609 44.8008 726.066 46.3555 726.066 48.3789V49.2812H717.477C717.508 50.5312 717.871 51.543 718.566 52.3164C719.27 53.082 720.16 53.4648 721.238 53.4648C722.004 53.4648 722.652 53.3086 723.184 52.9961C723.715 52.6836 724.18 52.2695 724.578 51.7539L725.902 52.7852C724.84 54.418 723.246 55.2344 721.121 55.2344ZM720.852 43.8672C719.977 43.8672 719.242 44.1875 718.648 44.8281C718.055 45.4609 717.688 46.3516 717.547 47.5H723.898V47.3359C723.836 46.2344 723.539 45.3828 723.008 44.7812C722.477 44.1719 721.758 43.8672 720.852 43.8672Z" fill="white"/>
</g>
</g>
<g id="Group 199">
<path id="Arrow 30 (Stroke)" fill-rule="evenodd" clip-rule="evenodd" d="M507.453 87L519 67L530.547 87H521V97H698V87H688.453L700 67L711.547 87H702V101H517V87H507.453Z" fill="#E79720"/>
<path id="Arrow 31 (Stroke)" fill-rule="evenodd" clip-rule="evenodd" d="M223.453 13L235 33L246.547 13H237V4H628V13H618.453L630 33L641.547 13H632V0H233V13H223.453Z" fill="#E79720"/>
</g>
<g id="Group 200">
<path id="Union" fill-rule="evenodd" clip-rule="evenodd" d="M448.967 76.4461C450.042 75.5794 450.211 74.0055 449.344 72.9307C448.477 71.8559 446.903 71.6873 445.828 72.5541L422.421 91.4308L423.515 79.9475C423.646 78.573 422.638 77.3526 421.263 77.2217C419.889 77.0908 418.668 78.0989 418.537 79.4734L417.011 95.4959C416.911 96.55 417.481 97.5135 418.371 97.9644C419.244 99.0089 420.796 99.165 421.859 98.3074L448.967 76.4461Z" fill="#2CF30B"/>
<path id="Union_2" fill-rule="evenodd" clip-rule="evenodd" d="M316.268 67.7322C315.291 66.7559 313.709 66.7559 312.732 67.7322C311.756 68.7085 311.756 70.2915 312.732 71.2678L326.283 84.8189L313.095 98.5231C312.138 99.518 312.168 101.101 313.163 102.058C314.158 103.015 315.741 102.985 316.698 101.99L329.82 88.3551L343.205 101.741C344.181 102.717 345.764 102.717 346.741 101.741C347.717 100.764 347.717 99.1814 346.741 98.2051L333.287 84.7517L346.231 71.3014C347.188 70.3065 347.158 68.7239 346.163 67.7665C345.168 66.8091 343.586 66.8395 342.628 67.8343L329.751 81.2155L316.268 67.7322Z" fill="#FD0C0C"/>
<path id="Union_3" fill-rule="evenodd" clip-rule="evenodd" d="M596.268 117.732C595.291 116.756 593.709 116.756 592.732 117.732C591.756 118.709 591.756 120.291 592.732 121.268L606.283 134.819L593.095 148.523C592.138 149.518 592.168 151.101 593.163 152.058C594.158 153.015 595.741 152.985 596.698 151.99L609.82 138.355L623.205 151.741C624.181 152.717 625.764 152.717 626.741 151.741C627.717 150.764 627.717 149.181 626.741 148.205L613.287 134.752L626.231 121.301C627.188 120.306 627.158 118.724 626.163 117.766C625.168 116.809 623.586 116.839 622.628 117.834L609.751 131.215L596.268 117.732Z" fill="#FD0C0C"/>
<path id="Union_4" fill-rule="evenodd" clip-rule="evenodd" d="M30.2678 70.7322C29.2915 69.7559 27.7085 69.7559 26.7322 70.7322C25.7559 71.7085 25.7559 73.2915 26.7322 74.2678L40.2833 87.8189L27.0953 101.523C26.1379 102.518 26.1682 104.101 27.1631 105.058C28.158 106.015 29.7406 105.985 30.698 104.99L43.8195 91.3551L57.2051 104.741C58.1814 105.717 59.7643 105.717 60.7406 104.741C61.7169 103.764 61.7169 102.181 60.7406 101.205L47.2872 87.7517L60.2309 74.3014C61.1883 73.3065 61.158 71.7239 60.1631 70.7665C59.1682 69.8091 57.5856 69.8395 56.6282 70.8343L43.751 84.2155L30.2678 70.7322Z" fill="#FD0C0C"/>
<path id="Union_5" fill-rule="evenodd" clip-rule="evenodd" d="M161.967 83.4461C163.042 82.5794 163.211 81.0055 162.344 79.9307C161.477 78.8559 159.903 78.6873 158.828 79.5541L135.421 98.4308L136.515 86.9475C136.646 85.573 135.638 84.3526 134.263 84.2217C132.889 84.0908 131.668 85.0989 131.537 86.4734L130.011 102.496C129.911 103.55 130.481 104.513 131.371 104.964C132.244 106.009 133.796 106.165 134.859 105.307L161.967 83.4461Z" fill="#2CF30B"/>
<path id="Union_6" fill-rule="evenodd" clip-rule="evenodd" d="M250.967 80.4461C252.042 79.5794 252.211 78.0055 251.344 76.9307C250.477 75.8559 248.903 75.6873 247.828 76.5541L224.421 95.4308L225.515 83.9475C225.646 82.573 224.638 81.3526 223.263 81.2217C221.889 81.0908 220.668 82.0989 220.537 83.4734L219.011 99.4959C218.911 100.55 219.481 101.513 220.371 101.964C221.244 103.009 222.796 103.165 223.859 102.307L250.967 80.4461Z" fill="#2CF30B"/>
<path id="Union_7" fill-rule="evenodd" clip-rule="evenodd" d="M642.967 71.4461C644.042 70.5794 644.211 69.0055 643.344 67.9307C642.477 66.8559 640.903 66.6873 639.828 67.5541L616.421 86.4308L617.515 74.9475C617.646 73.573 616.638 72.3526 615.263 72.2217C613.889 72.0908 612.668 73.0989 612.537 74.4734L611.011 90.4959C610.911 91.55 611.481 92.5135 612.371 92.9644C613.244 94.0089 614.796 94.165 615.859 93.3074L642.967 71.4461Z" fill="#2CF30B"/>
</g>
</g>
</svg>
