<svg viewBox="0 0 897 379" fill="none" xmlns="http://www.w3.org/2000/svg">
<path fill-rule="evenodd" clip-rule="evenodd" d="M112 127H32V184.5H112V127ZM112 122H32V69H112V122ZM117 324H27V64H117V324ZM32 189.5V253H112V189.5H32ZM112 258H32V319H112V258Z" fill="white"/>
<path d="M51.8145 301H48.5449V279.326L41.9883 281.734V278.781L51.3047 275.283H51.8145V301Z" fill="white"/>
<path d="M61.5 279.625C61.5 278.406 61.9336 277.34 62.8008 276.426C63.6797 275.512 64.7402 275.055 65.9824 275.055C67.2012 275.055 68.2383 275.512 69.0938 276.426C69.9609 277.328 70.3945 278.395 70.3945 279.625C70.3945 280.867 69.9609 281.928 69.0938 282.807C68.2383 283.686 67.2012 284.125 65.9824 284.125C64.752 284.125 63.6973 283.686 62.8184 282.807C61.9395 281.928 61.5 280.867 61.5 279.625ZM65.9824 281.875C66.6152 281.875 67.1484 281.67 67.582 281.26C68.0156 280.838 68.2324 280.293 68.2324 279.625C68.2324 278.945 68.0156 278.389 67.582 277.955C67.1484 277.51 66.6152 277.287 65.9824 277.287C65.3379 277.287 64.793 277.521 64.3477 277.99C63.9141 278.447 63.6973 278.992 63.6973 279.625C63.6973 280.258 63.9141 280.791 64.3477 281.225C64.793 281.658 65.3379 281.875 65.9824 281.875Z" fill="white"/>
<path d="M87.9551 290.98V301H84.5801V275.406H94.0195C96.8203 275.406 99.0117 276.121 100.594 277.551C102.188 278.98 102.984 280.873 102.984 283.229C102.984 285.713 102.205 287.629 100.646 288.977C99.0996 290.312 96.8789 290.98 93.9844 290.98H87.9551ZM87.9551 288.221H94.0195C95.8242 288.221 97.207 287.799 98.168 286.955C99.1289 286.1 99.6094 284.869 99.6094 283.264C99.6094 281.74 99.1289 280.521 98.168 279.607C97.207 278.693 95.8887 278.219 94.2129 278.184H87.9551V288.221Z" fill="white"/>
<path d="M57.8965 234H41.127V231.662L49.9863 221.818C51.2988 220.33 52.2012 219.123 52.6934 218.197C53.1973 217.26 53.4492 216.293 53.4492 215.297C53.4492 213.961 53.0449 212.865 52.2363 212.01C51.4277 211.154 50.3496 210.727 49.002 210.727C47.3848 210.727 46.125 211.189 45.2227 212.115C44.332 213.029 43.8867 214.307 43.8867 215.947H40.6348C40.6348 213.592 41.3906 211.688 42.9023 210.234C44.4258 208.781 46.459 208.055 49.002 208.055C51.3809 208.055 53.2617 208.682 54.6445 209.936C56.0273 211.178 56.7188 212.836 56.7188 214.91C56.7188 217.43 55.1133 220.43 51.9023 223.91L45.0469 231.346H57.8965V234Z" fill="white"/>
<path d="M61.5 212.625C61.5 211.406 61.9336 210.34 62.8008 209.426C63.6797 208.512 64.7402 208.055 65.9824 208.055C67.2012 208.055 68.2383 208.512 69.0938 209.426C69.9609 210.328 70.3945 211.395 70.3945 212.625C70.3945 213.867 69.9609 214.928 69.0938 215.807C68.2383 216.686 67.2012 217.125 65.9824 217.125C64.752 217.125 63.6973 216.686 62.8184 215.807C61.9395 214.928 61.5 213.867 61.5 212.625ZM65.9824 214.875C66.6152 214.875 67.1484 214.67 67.582 214.26C68.0156 213.838 68.2324 213.293 68.2324 212.625C68.2324 211.945 68.0156 211.389 67.582 210.955C67.1484 210.51 66.6152 210.287 65.9824 210.287C65.3379 210.287 64.793 210.521 64.3477 210.99C63.9141 211.447 63.6973 211.992 63.6973 212.625C63.6973 213.258 63.9141 213.791 64.3477 214.225C64.793 214.658 65.3379 214.875 65.9824 214.875Z" fill="white"/>
<path d="M87.9551 223.98V234H84.5801V208.406H94.0195C96.8203 208.406 99.0117 209.121 100.594 210.551C102.188 211.98 102.984 213.873 102.984 216.229C102.984 218.713 102.205 220.629 100.646 221.977C99.0996 223.312 96.8789 223.98 93.9844 223.98H87.9551ZM87.9551 221.221H94.0195C95.8242 221.221 97.207 220.799 98.168 219.955C99.1289 219.1 99.6094 217.869 99.6094 216.264C99.6094 214.74 99.1289 213.521 98.168 212.607C97.207 211.693 95.8887 211.219 94.2129 211.184H87.9551V221.221Z" fill="white"/>
<path d="M45.8555 152.621H48.2988C49.834 152.598 51.041 152.193 51.9199 151.408C52.7988 150.623 53.2383 149.562 53.2383 148.227C53.2383 145.227 51.7441 143.727 48.7559 143.727C47.3496 143.727 46.2246 144.131 45.3809 144.939C44.5488 145.736 44.1328 146.797 44.1328 148.121H40.8809C40.8809 146.094 41.6191 144.412 43.0957 143.076C44.584 141.729 46.4707 141.055 48.7559 141.055C51.1699 141.055 53.0625 141.693 54.4336 142.971C55.8047 144.248 56.4902 146.023 56.4902 148.297C56.4902 149.41 56.127 150.488 55.4004 151.531C54.6855 152.574 53.707 153.354 52.4648 153.869C53.8711 154.314 54.9551 155.053 55.7168 156.084C56.4902 157.115 56.877 158.375 56.877 159.863C56.877 162.16 56.127 163.982 54.627 165.33C53.127 166.678 51.1758 167.352 48.7734 167.352C46.3711 167.352 44.4141 166.701 42.9023 165.4C41.4023 164.1 40.6523 162.383 40.6523 160.25H43.9219C43.9219 161.598 44.3613 162.676 45.2402 163.484C46.1191 164.293 47.2969 164.697 48.7734 164.697C50.3438 164.697 51.5449 164.287 52.377 163.467C53.209 162.646 53.625 161.469 53.625 159.934C53.625 158.445 53.168 157.303 52.2539 156.506C51.3398 155.709 50.0215 155.299 48.2988 155.275H45.8555V152.621Z" fill="white"/>
<path d="M61.5 145.625C61.5 144.406 61.9336 143.34 62.8008 142.426C63.6797 141.512 64.7402 141.055 65.9824 141.055C67.2012 141.055 68.2383 141.512 69.0938 142.426C69.9609 143.328 70.3945 144.395 70.3945 145.625C70.3945 146.867 69.9609 147.928 69.0938 148.807C68.2383 149.686 67.2012 150.125 65.9824 150.125C64.752 150.125 63.6973 149.686 62.8184 148.807C61.9395 147.928 61.5 146.867 61.5 145.625ZM65.9824 147.875C66.6152 147.875 67.1484 147.67 67.582 147.26C68.0156 146.838 68.2324 146.293 68.2324 145.625C68.2324 144.945 68.0156 144.389 67.582 143.955C67.1484 143.51 66.6152 143.287 65.9824 143.287C65.3379 143.287 64.793 143.521 64.3477 143.99C63.9141 144.447 63.6973 144.992 63.6973 145.625C63.6973 146.258 63.9141 146.791 64.3477 147.225C64.793 147.658 65.3379 147.875 65.9824 147.875Z" fill="white"/>
<path d="M87.9551 156.98V167H84.5801V141.406H94.0195C96.8203 141.406 99.0117 142.121 100.594 143.551C102.188 144.98 102.984 146.873 102.984 149.229C102.984 151.713 102.205 153.629 100.646 154.977C99.0996 156.312 96.8789 156.98 93.9844 156.98H87.9551ZM87.9551 154.221H94.0195C95.8242 154.221 97.207 153.799 98.168 152.955C99.1289 152.1 99.6094 150.869 99.6094 149.264C99.6094 147.74 99.1289 146.521 98.168 145.607C97.207 144.693 95.8887 144.219 94.2129 144.184H87.9551V154.221Z" fill="white"/>
<path d="M55.8555 98.4043H59.4062V101.059H55.8555V107H52.5859V101.059H40.9316V99.1426L52.3926 81.4062H55.8555V98.4043ZM44.623 98.4043H52.5859V85.8535L52.1992 86.5566L44.623 98.4043Z" fill="white"/>
<path d="M62.5 85.625C62.5 84.4062 62.9336 83.3398 63.8008 82.4258C64.6797 81.5117 65.7402 81.0547 66.9824 81.0547C68.2012 81.0547 69.2383 81.5117 70.0938 82.4258C70.9609 83.3281 71.3945 84.3945 71.3945 85.625C71.3945 86.8672 70.9609 87.9277 70.0938 88.8066C69.2383 89.6855 68.2012 90.125 66.9824 90.125C65.752 90.125 64.6973 89.6855 63.8184 88.8066C62.9395 87.9277 62.5 86.8672 62.5 85.625ZM66.9824 87.875C67.6152 87.875 68.1484 87.6699 68.582 87.2598C69.0156 86.8379 69.2324 86.293 69.2324 85.625C69.2324 84.9453 69.0156 84.3887 68.582 83.9551C68.1484 83.5098 67.6152 83.2871 66.9824 83.2871C66.3379 83.2871 65.793 83.5215 65.3477 83.9902C64.9141 84.4473 64.6973 84.9922 64.6973 85.625C64.6973 86.2578 64.9141 86.791 65.3477 87.2246C65.793 87.6582 66.3379 87.875 66.9824 87.875Z" fill="white"/>
<path d="M88.9551 96.9805V107H85.5801V81.4062H95.0195C97.8203 81.4062 100.012 82.1211 101.594 83.5508C103.188 84.9805 103.984 86.873 103.984 89.2285C103.984 91.7129 103.205 93.6289 101.646 94.9766C100.1 96.3125 97.8789 96.9805 94.9844 96.9805H88.9551ZM88.9551 94.2207H95.0195C96.8242 94.2207 98.207 93.7988 99.168 92.9551C100.129 92.0996 100.609 90.8691 100.609 89.2637C100.609 87.7402 100.129 86.5215 99.168 85.6074C98.207 84.6934 96.8887 84.2188 95.2129 84.1836H88.9551V94.2207Z" fill="white"/>
<path d="M37.1035 30.3203H26.3809L23.9727 37H20.4922L30.2656 11.4062H33.2188L43.0098 37H39.5469L37.1035 30.3203ZM27.4004 27.543H36.1016L31.7422 15.5723L27.4004 27.543Z" fill="white"/>
<path d="M55.1387 20.8984C54.6465 20.8164 54.1133 20.7754 53.5391 20.7754C51.4062 20.7754 49.959 21.6836 49.1973 23.5V37H45.9453V17.9805H49.1094L49.1621 20.1777C50.2285 18.4785 51.7402 17.6289 53.6973 17.6289C54.3301 17.6289 54.8105 17.7109 55.1387 17.875V20.8984Z" fill="white"/>
<path d="M67.3379 20.8984C66.8457 20.8164 66.3125 20.7754 65.7383 20.7754C63.6055 20.7754 62.1582 21.6836 61.3965 23.5V37H58.1445V17.9805H61.3086L61.3613 20.1777C62.4277 18.4785 63.9395 17.6289 65.8965 17.6289C66.5293 17.6289 67.0098 17.7109 67.3379 17.875V20.8984Z" fill="white"/>
<path d="M73.877 37H70.625V17.9805H73.877V37ZM70.3613 12.9355C70.3613 12.4082 70.5195 11.9629 70.8359 11.5996C71.1641 11.2363 71.6445 11.0547 72.2773 11.0547C72.9102 11.0547 73.3906 11.2363 73.7188 11.5996C74.0469 11.9629 74.2109 12.4082 74.2109 12.9355C74.2109 13.4629 74.0469 13.9023 73.7188 14.2539C73.3906 14.6055 72.9102 14.7812 72.2773 14.7812C71.6445 14.7812 71.1641 14.6055 70.8359 14.2539C70.5195 13.9023 70.3613 13.4629 70.3613 12.9355Z" fill="white"/>
<path d="M95.1992 27.7012C95.1992 30.6074 94.5312 32.9453 93.1953 34.7148C91.8594 36.4727 90.0664 37.3516 87.8164 37.3516C85.4141 37.3516 83.5566 36.502 82.2441 34.8027L82.0859 37H79.0977V10H82.3496V20.0723C83.6621 18.4434 85.4727 17.6289 87.7812 17.6289C90.0898 17.6289 91.9004 18.502 93.2129 20.248C94.5371 21.9941 95.1992 24.3848 95.1992 27.4199V27.7012ZM91.9473 27.332C91.9473 25.1172 91.5195 23.4062 90.6641 22.1992C89.8086 20.9922 88.5781 20.3887 86.9727 20.3887C84.8281 20.3887 83.2871 21.3848 82.3496 23.377V31.6035C83.3457 33.5957 84.8984 34.5918 87.0078 34.5918C88.5664 34.5918 89.7793 33.9883 90.6465 32.7812C91.5137 31.5742 91.9473 29.7578 91.9473 27.332Z" fill="white"/>
<path d="M111.055 37C110.867 36.625 110.715 35.957 110.598 34.9961C109.086 36.5664 107.281 37.3516 105.184 37.3516C103.309 37.3516 101.768 36.8242 100.561 35.7695C99.3652 34.7031 98.7676 33.3555 98.7676 31.7266C98.7676 29.7461 99.5176 28.2109 101.018 27.1211C102.529 26.0195 104.65 25.4688 107.381 25.4688H110.545V23.9746C110.545 22.8379 110.205 21.9355 109.525 21.2676C108.846 20.5879 107.844 20.248 106.52 20.248C105.359 20.248 104.387 20.541 103.602 21.127C102.816 21.7129 102.424 22.4219 102.424 23.2539H99.1543C99.1543 22.3047 99.4883 21.3906 100.156 20.5117C100.836 19.6211 101.75 18.918 102.898 18.4023C104.059 17.8867 105.33 17.6289 106.713 17.6289C108.904 17.6289 110.621 18.1797 111.863 19.2812C113.105 20.3711 113.75 21.877 113.797 23.7988V32.5527C113.797 34.2988 114.02 35.6875 114.465 36.7188V37H111.055ZM105.658 34.5215C106.678 34.5215 107.645 34.2578 108.559 33.7305C109.473 33.2031 110.135 32.5176 110.545 31.6738V27.7715H107.996C104.012 27.7715 102.02 28.9375 102.02 31.2695C102.02 32.2891 102.359 33.0859 103.039 33.6602C103.719 34.2344 104.592 34.5215 105.658 34.5215Z" fill="white"/>
<path d="M44.1035 364.32H33.3809L30.9727 371H27.4922L37.2656 345.406H40.2188L50.0098 371H46.5469L44.1035 364.32ZM34.4004 361.543H43.1016L38.7422 349.572L34.4004 361.543Z" fill="white"/>
<path d="M69.0469 361.701C69.0469 364.607 68.3789 366.945 67.043 368.715C65.707 370.473 63.9141 371.352 61.6641 371.352C59.2617 371.352 57.4043 370.502 56.0918 368.803L55.9336 371H52.9453V344H56.1973V354.072C57.5098 352.443 59.3203 351.629 61.6289 351.629C63.9375 351.629 65.748 352.502 67.0605 354.248C68.3848 355.994 69.0469 358.385 69.0469 361.42V361.701ZM65.7949 361.332C65.7949 359.117 65.3672 357.406 64.5117 356.199C63.6562 354.992 62.4258 354.389 60.8203 354.389C58.6758 354.389 57.1348 355.385 56.1973 357.377V365.604C57.1934 367.596 58.7461 368.592 60.8555 368.592C62.4141 368.592 63.627 367.988 64.4941 366.781C65.3613 365.574 65.7949 363.758 65.7949 361.332Z" fill="white"/>
<path d="M84.9023 371C84.7148 370.625 84.5625 369.957 84.4453 368.996C82.9336 370.566 81.1289 371.352 79.0312 371.352C77.1562 371.352 75.6152 370.824 74.4082 369.77C73.2129 368.703 72.6152 367.355 72.6152 365.727C72.6152 363.746 73.3652 362.211 74.8652 361.121C76.377 360.02 78.498 359.469 81.2285 359.469H84.3926V357.975C84.3926 356.838 84.0527 355.936 83.373 355.268C82.6934 354.588 81.6914 354.248 80.3672 354.248C79.207 354.248 78.2344 354.541 77.4492 355.127C76.6641 355.713 76.2715 356.422 76.2715 357.254H73.002C73.002 356.305 73.3359 355.391 74.0039 354.512C74.6836 353.621 75.5977 352.918 76.7461 352.402C77.9062 351.887 79.1777 351.629 80.5605 351.629C82.752 351.629 84.4688 352.18 85.7109 353.281C86.9531 354.371 87.5977 355.877 87.6445 357.799V366.553C87.6445 368.299 87.8672 369.688 88.3125 370.719V371H84.9023ZM79.5059 368.521C80.5254 368.521 81.4922 368.258 82.4062 367.73C83.3203 367.203 83.9824 366.518 84.3926 365.674V361.771H81.8438C77.8594 361.771 75.8672 362.938 75.8672 365.27C75.8672 366.289 76.207 367.086 76.8867 367.66C77.5664 368.234 78.4395 368.521 79.5059 368.521Z" fill="white"/>
<path d="M96.0996 351.98V373.197C96.0996 376.854 94.4414 378.682 91.125 378.682C90.4102 378.682 89.748 378.576 89.1387 378.365V375.764C89.5137 375.857 90.0059 375.904 90.6152 375.904C91.3418 375.904 91.8926 375.705 92.2676 375.307C92.6543 374.92 92.8477 374.24 92.8477 373.268V351.98H96.0996ZM92.5137 346.936C92.5137 346.42 92.6719 345.98 92.9883 345.617C93.3164 345.242 93.791 345.055 94.4121 345.055C95.0449 345.055 95.5254 345.236 95.8535 345.6C96.1816 345.963 96.3457 346.408 96.3457 346.936C96.3457 347.463 96.1816 347.902 95.8535 348.254C95.5254 348.605 95.0449 348.781 94.4121 348.781C93.7793 348.781 93.3047 348.605 92.9883 348.254C92.6719 347.902 92.5137 347.463 92.5137 346.936Z" fill="white"/>
<path d="M100.494 361.314C100.494 359.451 100.857 357.775 101.584 356.287C102.322 354.799 103.342 353.65 104.643 352.842C105.955 352.033 107.449 351.629 109.125 351.629C111.715 351.629 113.807 352.525 115.4 354.318C117.006 356.111 117.809 358.496 117.809 361.473V361.701C117.809 363.553 117.451 365.217 116.736 366.693C116.033 368.158 115.02 369.301 113.695 370.121C112.383 370.941 110.871 371.352 109.16 371.352C106.582 371.352 104.49 370.455 102.885 368.662C101.291 366.869 100.494 364.496 100.494 361.543V361.314ZM103.764 361.701C103.764 363.811 104.25 365.504 105.223 366.781C106.207 368.059 107.52 368.697 109.16 368.697C110.812 368.697 112.125 368.053 113.098 366.764C114.07 365.463 114.557 363.646 114.557 361.314C114.557 359.229 114.059 357.541 113.062 356.252C112.078 354.951 110.766 354.301 109.125 354.301C107.52 354.301 106.225 354.939 105.24 356.217C104.256 357.494 103.764 359.322 103.764 361.701Z" fill="white"/>
<path d="M402.971 56V30.4062H410.195C412.422 30.4062 414.391 30.8984 416.102 31.8828C417.812 32.8672 419.131 34.2676 420.057 36.084C420.994 37.9004 421.469 39.9863 421.48 42.3418V43.9766C421.48 46.3906 421.012 48.5059 420.074 50.3223C419.148 52.1387 417.818 53.5332 416.084 54.5059C414.361 55.4785 412.352 55.9766 410.055 56H402.971ZM406.346 33.1836V53.2402H409.896C412.498 53.2402 414.52 52.4316 415.961 50.8145C417.414 49.1973 418.141 46.8945 418.141 43.9062V42.4121C418.141 39.5059 417.455 37.25 416.084 35.6445C414.725 34.0273 412.791 33.207 410.283 33.1836H406.346Z" fill="white"/>
<path d="M437.828 56C437.641 55.625 437.488 54.957 437.371 53.9961C435.859 55.5664 434.055 56.3516 431.957 56.3516C430.082 56.3516 428.541 55.8242 427.334 54.7695C426.139 53.7031 425.541 52.3555 425.541 50.7266C425.541 48.7461 426.291 47.2109 427.791 46.1211C429.303 45.0195 431.424 44.4688 434.154 44.4688H437.318V42.9746C437.318 41.8379 436.979 40.9355 436.299 40.2676C435.619 39.5879 434.617 39.248 433.293 39.248C432.133 39.248 431.16 39.541 430.375 40.127C429.59 40.7129 429.197 41.4219 429.197 42.2539H425.928C425.928 41.3047 426.262 40.3906 426.93 39.5117C427.609 38.6211 428.523 37.918 429.672 37.4023C430.832 36.8867 432.104 36.6289 433.486 36.6289C435.678 36.6289 437.395 37.1797 438.637 38.2812C439.879 39.3711 440.523 40.877 440.57 42.7988V51.5527C440.57 53.2988 440.793 54.6875 441.238 55.7188V56H437.828ZM432.432 53.5215C433.451 53.5215 434.418 53.2578 435.332 52.7305C436.246 52.2031 436.908 51.5176 437.318 50.6738V46.7715H434.77C430.785 46.7715 428.793 47.9375 428.793 50.2695C428.793 51.2891 429.133 52.0859 429.812 52.6602C430.492 53.2344 431.365 53.5215 432.432 53.5215Z" fill="white"/>
<path d="M450.08 32.375V36.9805H453.631V39.4941H450.08V51.2891C450.08 52.0508 450.238 52.625 450.555 53.0117C450.871 53.3867 451.41 53.5742 452.172 53.5742C452.547 53.5742 453.062 53.5039 453.719 53.3633V56C452.863 56.2344 452.031 56.3516 451.223 56.3516C449.77 56.3516 448.674 55.9121 447.936 55.0332C447.197 54.1543 446.828 52.9062 446.828 51.2891V39.4941H443.365V36.9805H446.828V32.375H450.08Z" fill="white"/>
<path d="M456.232 46.3145C456.232 44.4512 456.596 42.7754 457.322 41.2871C458.061 39.7988 459.08 38.6504 460.381 37.8418C461.693 37.0332 463.188 36.6289 464.863 36.6289C467.453 36.6289 469.545 37.5254 471.139 39.3184C472.744 41.1113 473.547 43.4961 473.547 46.4727V46.7012C473.547 48.5527 473.189 50.2168 472.475 51.6934C471.771 53.1582 470.758 54.3008 469.434 55.1211C468.121 55.9414 466.609 56.3516 464.898 56.3516C462.32 56.3516 460.229 55.4551 458.623 53.6621C457.029 51.8691 456.232 49.4961 456.232 46.543V46.3145ZM459.502 46.7012C459.502 48.8105 459.988 50.5039 460.961 51.7812C461.945 53.0586 463.258 53.6973 464.898 53.6973C466.551 53.6973 467.863 53.0527 468.836 51.7637C469.809 50.4629 470.295 48.6465 470.295 46.3145C470.295 44.2285 469.797 42.541 468.801 41.252C467.816 39.9512 466.504 39.3008 464.863 39.3008C463.258 39.3008 461.963 39.9395 460.979 41.2168C459.994 42.4941 459.502 44.3223 459.502 46.7012Z" fill="white"/>
<path d="M496.908 56H493.639V34.3262L487.082 36.7344V33.7812L496.398 30.2832H496.908V56Z" fill="white"/>
<path d="M506.664 54.2949C506.664 53.7324 506.828 53.2637 507.156 52.8887C507.496 52.5137 508 52.3262 508.668 52.3262C509.336 52.3262 509.84 52.5137 510.18 52.8887C510.531 53.2637 510.707 53.7324 510.707 54.2949C510.707 54.834 510.531 55.2852 510.18 55.6484C509.84 56.0117 509.336 56.1934 508.668 56.1934C508 56.1934 507.496 56.0117 507.156 55.6484C506.828 55.2852 506.664 54.834 506.664 54.2949ZM506.682 38.7734C506.682 38.2109 506.846 37.7422 507.174 37.3672C507.514 36.9922 508.018 36.8047 508.686 36.8047C509.354 36.8047 509.857 36.9922 510.197 37.3672C510.549 37.7422 510.725 38.2109 510.725 38.7734C510.725 39.3125 510.549 39.7637 510.197 40.127C509.857 40.4902 509.354 40.6719 508.686 40.6719C508.018 40.6719 507.514 40.4902 507.174 40.127C506.846 39.7637 506.682 39.3125 506.682 38.7734Z" fill="white"/>
<path d="M571.971 26V0.40625H579.195C581.422 0.40625 583.391 0.898438 585.102 1.88281C586.812 2.86719 588.131 4.26758 589.057 6.08398C589.994 7.90039 590.469 9.98633 590.48 12.3418V13.9766C590.48 16.3906 590.012 18.5059 589.074 20.3223C588.148 22.1387 586.818 23.5332 585.084 24.5059C583.361 25.4785 581.352 25.9766 579.055 26H571.971ZM575.346 3.18359V23.2402H578.896C581.498 23.2402 583.52 22.4316 584.961 20.8145C586.414 19.1973 587.141 16.8945 587.141 13.9062V12.4121C587.141 9.50586 586.455 7.25 585.084 5.64453C583.725 4.02734 581.791 3.20703 579.283 3.18359H575.346Z" fill="white"/>
<path d="M606.828 24.1191C605.562 25.6074 603.705 26.3516 601.256 26.3516C599.229 26.3516 597.682 25.7656 596.615 24.5938C595.561 23.4102 595.027 21.6641 595.016 19.3555V6.98047H598.268V19.2676C598.268 22.1504 599.439 23.5918 601.783 23.5918C604.268 23.5918 605.92 22.666 606.74 20.8145V6.98047H609.992V26H606.898L606.828 24.1191Z" fill="white"/>
<path d="M624.143 9.89844C623.65 9.81641 623.117 9.77539 622.543 9.77539C620.41 9.77539 618.963 10.6836 618.201 12.5V26H614.949V6.98047H618.113L618.166 9.17773C619.232 7.47852 620.744 6.62891 622.701 6.62891C623.334 6.62891 623.814 6.71094 624.143 6.875V9.89844Z" fill="white"/>
<path d="M638.188 26C638 25.625 637.848 24.957 637.73 23.9961C636.219 25.5664 634.414 26.3516 632.316 26.3516C630.441 26.3516 628.9 25.8242 627.693 24.7695C626.498 23.7031 625.9 22.3555 625.9 20.7266C625.9 18.7461 626.65 17.2109 628.15 16.1211C629.662 15.0195 631.783 14.4688 634.514 14.4688H637.678V12.9746C637.678 11.8379 637.338 10.9355 636.658 10.2676C635.979 9.58789 634.977 9.24805 633.652 9.24805C632.492 9.24805 631.52 9.54102 630.734 10.127C629.949 10.7129 629.557 11.4219 629.557 12.2539H626.287C626.287 11.3047 626.621 10.3906 627.289 9.51172C627.969 8.62109 628.883 7.91797 630.031 7.40234C631.191 6.88672 632.463 6.62891 633.846 6.62891C636.037 6.62891 637.754 7.17969 638.996 8.28125C640.238 9.37109 640.883 10.877 640.93 12.7988V21.5527C640.93 23.2988 641.152 24.6875 641.598 25.7188V26H638.188ZM632.791 23.5215C633.811 23.5215 634.777 23.2578 635.691 22.7305C636.605 22.2031 637.268 21.5176 637.678 20.6738V16.7715H635.129C631.145 16.7715 629.152 17.9375 629.152 20.2695C629.152 21.2891 629.492 22.0859 630.172 22.6602C630.852 23.2344 631.725 23.5215 632.791 23.5215Z" fill="white"/>
<path d="M649.104 6.98047L649.209 9.37109C650.662 7.54297 652.561 6.62891 654.904 6.62891C658.924 6.62891 660.951 8.89648 660.986 13.4316V26H657.734V13.4141C657.723 12.043 657.406 11.0293 656.785 10.373C656.176 9.7168 655.221 9.38867 653.92 9.38867C652.865 9.38867 651.939 9.66992 651.143 10.2324C650.346 10.7949 649.725 11.5332 649.279 12.4473V26H646.027V6.98047H649.104Z" fill="white"/>
<path d="M586.086 83.6973H575.346V95H571.971V69.4062H587.826V72.1836H575.346V80.9375H586.086V83.6973Z" fill="white"/>
<path d="M598.865 95.3516C596.287 95.3516 594.189 94.5078 592.572 92.8203C590.955 91.1211 590.146 88.8535 590.146 86.0176V85.4199C590.146 83.5332 590.504 81.8516 591.219 80.375C591.945 78.8867 592.953 77.7266 594.242 76.8945C595.543 76.0508 596.949 75.6289 598.461 75.6289C600.934 75.6289 602.855 76.4434 604.227 78.0723C605.598 79.7012 606.283 82.0332 606.283 85.0684V86.4219H593.398C593.445 88.2969 593.99 89.8145 595.033 90.9746C596.088 92.123 597.424 92.6973 599.041 92.6973C600.189 92.6973 601.162 92.4629 601.959 91.9941C602.756 91.5254 603.453 90.9043 604.051 90.1309L606.037 91.6777C604.443 94.127 602.053 95.3516 598.865 95.3516ZM598.461 78.3008C597.148 78.3008 596.047 78.7812 595.156 79.7422C594.266 80.6914 593.715 82.0273 593.504 83.75H603.031V83.5039C602.938 81.8516 602.492 80.5742 601.695 79.6719C600.898 78.7578 599.82 78.3008 598.461 78.3008Z" fill="white"/>
<path d="M619.256 78.8984C618.764 78.8164 618.23 78.7754 617.656 78.7754C615.523 78.7754 614.076 79.6836 613.314 81.5V95H610.062V75.9805H613.227L613.279 78.1777C614.346 76.4785 615.857 75.6289 617.814 75.6289C618.447 75.6289 618.928 75.7109 619.256 75.875V78.8984Z" fill="white"/>
<path d="M625.338 75.9805L625.443 78.3711C626.896 76.543 628.795 75.6289 631.139 75.6289C635.158 75.6289 637.186 77.8965 637.221 82.4316V95H633.969V82.4141C633.957 81.043 633.641 80.0293 633.02 79.373C632.41 78.7168 631.455 78.3887 630.154 78.3887C629.1 78.3887 628.174 78.6699 627.377 79.2324C626.58 79.7949 625.959 80.5332 625.514 81.4473V95H622.262V75.9805H625.338Z" fill="white"/>
<path d="M653.867 95C653.68 94.625 653.527 93.957 653.41 92.9961C651.898 94.5664 650.094 95.3516 647.996 95.3516C646.121 95.3516 644.58 94.8242 643.373 93.7695C642.178 92.7031 641.58 91.3555 641.58 89.7266C641.58 87.7461 642.33 86.2109 643.83 85.1211C645.342 84.0195 647.463 83.4688 650.193 83.4688H653.357V81.9746C653.357 80.8379 653.018 79.9355 652.338 79.2676C651.658 78.5879 650.656 78.248 649.332 78.248C648.172 78.248 647.199 78.541 646.414 79.127C645.629 79.7129 645.236 80.4219 645.236 81.2539H641.967C641.967 80.3047 642.301 79.3906 642.969 78.5117C643.648 77.6211 644.562 76.918 645.711 76.4023C646.871 75.8867 648.143 75.6289 649.525 75.6289C651.717 75.6289 653.434 76.1797 654.676 77.2812C655.918 78.3711 656.562 79.877 656.609 81.7988V90.5527C656.609 92.2988 656.832 93.6875 657.277 94.7188V95H653.867ZM648.471 92.5215C649.49 92.5215 650.457 92.2578 651.371 91.7305C652.285 91.2031 652.947 90.5176 653.357 89.6738V85.7715H650.809C646.824 85.7715 644.832 86.9375 644.832 89.2695C644.832 90.2891 645.172 91.0859 645.852 91.6602C646.531 92.2344 647.404 92.5215 648.471 92.5215Z" fill="white"/>
<path d="M664.783 75.9805L664.889 78.3711C666.342 76.543 668.24 75.6289 670.584 75.6289C674.604 75.6289 676.631 77.8965 676.666 82.4316V95H673.414V82.4141C673.402 81.043 673.086 80.0293 672.465 79.373C671.855 78.7168 670.9 78.3887 669.6 78.3887C668.545 78.3887 667.619 78.6699 666.822 79.2324C666.025 79.7949 665.404 80.5332 664.959 81.4473V95H661.707V75.9805H664.783Z" fill="white"/>
<path d="M680.779 85.332C680.779 82.4141 681.471 80.0703 682.854 78.3008C684.236 76.5195 686.047 75.6289 688.285 75.6289C690.512 75.6289 692.275 76.3906 693.576 77.9141V68H696.828V95H693.84L693.682 92.9609C692.381 94.5547 690.57 95.3516 688.25 95.3516C686.047 95.3516 684.248 94.4492 682.854 92.6445C681.471 90.8398 680.779 88.4844 680.779 85.5781V85.332ZM684.031 85.7012C684.031 87.8574 684.477 89.5449 685.367 90.7637C686.258 91.9824 687.488 92.5918 689.059 92.5918C691.121 92.5918 692.627 91.666 693.576 89.8145V81.0781C692.604 79.2852 691.109 78.3887 689.094 78.3887C687.5 78.3887 686.258 79.0039 685.367 80.2344C684.477 81.4648 684.031 83.2871 684.031 85.7012Z" fill="white"/>
<path d="M709.783 95.3516C707.205 95.3516 705.107 94.5078 703.49 92.8203C701.873 91.1211 701.064 88.8535 701.064 86.0176V85.4199C701.064 83.5332 701.422 81.8516 702.137 80.375C702.863 78.8867 703.871 77.7266 705.16 76.8945C706.461 76.0508 707.867 75.6289 709.379 75.6289C711.852 75.6289 713.773 76.4434 715.145 78.0723C716.516 79.7012 717.201 82.0332 717.201 85.0684V86.4219H704.316C704.363 88.2969 704.908 89.8145 705.951 90.9746C707.006 92.123 708.342 92.6973 709.959 92.6973C711.107 92.6973 712.08 92.4629 712.877 91.9941C713.674 91.5254 714.371 90.9043 714.969 90.1309L716.955 91.6777C715.361 94.127 712.971 95.3516 709.783 95.3516ZM709.379 78.3008C708.066 78.3008 706.965 78.7812 706.074 79.7422C705.184 80.6914 704.633 82.0273 704.422 83.75H713.949V83.5039C713.855 81.8516 713.41 80.5742 712.613 79.6719C711.816 78.7578 710.738 78.3008 709.379 78.3008Z" fill="white"/>
<path d="M732.055 89.9551C732.055 89.0762 731.721 88.3965 731.053 87.916C730.396 87.4238 729.242 87.002 727.59 86.6504C725.949 86.2988 724.643 85.877 723.67 85.3848C722.709 84.8926 721.994 84.3066 721.525 83.627C721.068 82.9473 720.84 82.1387 720.84 81.2012C720.84 79.6426 721.496 78.3242 722.809 77.2461C724.133 76.168 725.82 75.6289 727.871 75.6289C730.027 75.6289 731.773 76.1855 733.109 77.2988C734.457 78.4121 735.131 79.8359 735.131 81.5703H731.861C731.861 80.6797 731.48 79.9121 730.719 79.2676C729.969 78.623 729.02 78.3008 727.871 78.3008C726.688 78.3008 725.762 78.5586 725.094 79.0742C724.426 79.5898 724.092 80.2637 724.092 81.0957C724.092 81.8809 724.402 82.4727 725.023 82.8711C725.645 83.2695 726.764 83.6504 728.381 84.0137C730.01 84.377 731.328 84.8105 732.336 85.3145C733.344 85.8184 734.088 86.4277 734.568 87.1426C735.061 87.8457 735.307 88.707 735.307 89.7266C735.307 91.4258 734.627 92.791 733.268 93.8223C731.908 94.8418 730.145 95.3516 727.977 95.3516C726.453 95.3516 725.105 95.082 723.934 94.543C722.762 94.0039 721.842 93.2539 721.174 92.293C720.518 91.3203 720.189 90.2715 720.189 89.1465H723.441C723.5 90.2363 723.934 91.1035 724.742 91.748C725.562 92.3809 726.641 92.6973 727.977 92.6973C729.207 92.6973 730.191 92.4512 730.93 91.959C731.68 91.4551 732.055 90.7871 732.055 89.9551Z" fill="white"/>
<path d="M813.814 62H810.545V40.3262L803.988 42.7344V39.7813L813.305 36.2832H813.814V62Z" fill="#13EBF9"/>
<path d="M848.672 52.7012C848.672 55.5957 848.01 57.9278 846.686 59.6973C845.361 61.4668 843.568 62.3516 841.307 62.3516C838.998 62.3516 837.182 61.6192 835.857 60.1543V69.3125H832.605V42.9805H835.576L835.734 45.0899C837.059 43.4492 838.898 42.6289 841.254 42.6289C843.539 42.6289 845.344 43.4903 846.668 45.2129C848.004 46.9356 848.672 49.3321 848.672 52.4024V52.7012ZM845.42 52.3321C845.42 50.1875 844.963 48.4942 844.049 47.252C843.135 46.0098 841.881 45.3887 840.287 45.3887C838.318 45.3887 836.842 46.2617 835.857 48.0078V57.0957C836.83 58.8301 838.318 59.6973 840.322 59.6973C841.881 59.6973 843.117 59.0821 844.031 57.8516C844.957 56.6094 845.42 54.7696 845.42 52.3321Z" fill="#13EBF9"/>
<path d="M856.354 62H853.102V42.9805H856.354V62ZM852.838 37.9356C852.838 37.4082 852.996 36.9629 853.312 36.5996C853.641 36.2364 854.121 36.0547 854.754 36.0547C855.387 36.0547 855.867 36.2364 856.195 36.5996C856.523 36.9629 856.688 37.4082 856.688 37.9356C856.688 38.4629 856.523 38.9024 856.195 39.2539C855.867 39.6055 855.387 39.7813 854.754 39.7813C854.121 39.7813 853.641 39.6055 853.312 39.2539C852.996 38.9024 852.838 38.4629 852.838 37.9356Z" fill="#13EBF9"/>
<path d="M872.648 56.9551C872.648 56.0762 872.314 55.3965 871.646 54.916C870.99 54.4239 869.836 54.002 868.184 53.6504C866.543 53.2989 865.236 52.877 864.264 52.3848C863.303 51.8926 862.588 51.3067 862.119 50.627C861.662 49.9473 861.434 49.1387 861.434 48.2012C861.434 46.6426 862.09 45.3242 863.402 44.2461C864.727 43.168 866.414 42.6289 868.465 42.6289C870.621 42.6289 872.367 43.1856 873.703 44.2989C875.051 45.4121 875.725 46.836 875.725 48.5703H872.455C872.455 47.6797 872.074 46.9121 871.312 46.2676C870.562 45.6231 869.613 45.3008 868.465 45.3008C867.281 45.3008 866.355 45.5586 865.688 46.0742C865.02 46.5899 864.686 47.2637 864.686 48.0957C864.686 48.8809 864.996 49.4727 865.617 49.8711C866.238 50.2696 867.357 50.6504 868.975 51.0137C870.604 51.377 871.922 51.8106 872.93 52.3145C873.938 52.8184 874.682 53.4278 875.162 54.1426C875.654 54.8457 875.9 55.7071 875.9 56.7266C875.9 58.4258 875.221 59.791 873.861 60.8223C872.502 61.8418 870.738 62.3516 868.57 62.3516C867.047 62.3516 865.699 62.0821 864.527 61.543C863.355 61.0039 862.436 60.2539 861.768 59.293C861.111 58.3203 860.783 57.2715 860.783 56.1465H864.035C864.094 57.2364 864.527 58.1035 865.336 58.7481C866.156 59.3809 867.234 59.6973 868.57 59.6973C869.801 59.6973 870.785 59.4512 871.523 58.959C872.273 58.4551 872.648 57.7871 872.648 56.9551Z" fill="#13EBF9"/>
<path d="M879.275 52.3145C879.275 50.4512 879.639 48.7754 880.365 47.2871C881.104 45.7989 882.123 44.6504 883.424 43.8418C884.736 43.0332 886.23 42.6289 887.906 42.6289C890.496 42.6289 892.588 43.5254 894.182 45.3184C895.787 47.1114 896.59 49.4961 896.59 52.4727V52.7012C896.59 54.5528 896.232 56.2168 895.518 57.6934C894.814 59.1582 893.801 60.3008 892.477 61.1211C891.164 61.9414 889.652 62.3516 887.941 62.3516C885.363 62.3516 883.271 61.4551 881.666 59.6621C880.072 57.8692 879.275 55.4961 879.275 52.543V52.3145ZM882.545 52.7012C882.545 54.8106 883.031 56.5039 884.004 57.7813C884.988 59.0586 886.301 59.6973 887.941 59.6973C889.594 59.6973 890.906 59.0528 891.879 57.7637C892.852 56.4629 893.338 54.6465 893.338 52.3145C893.338 50.2285 892.84 48.541 891.844 47.252C890.859 45.9512 889.547 45.3008 887.906 45.3008C886.301 45.3008 885.006 45.9395 884.021 47.2168C883.037 48.4942 882.545 50.3223 882.545 52.7012Z" fill="#13EBF9"/>
<path fill-rule="evenodd" clip-rule="evenodd" d="M759.315 94.9045C758.278 94.5264 757.743 93.3786 758.121 92.3407L764.282 75.428C764.66 74.3902 765.808 73.8554 766.846 74.2334C767.884 74.6115 768.419 75.7594 768.041 76.7972L763.805 88.4239C773.775 80.9261 777.746 66.7522 776.941 52.3115C776.485 44.137 774.494 36.0987 771.345 29.5368C769.297 25.2674 766.803 21.7115 763.998 19.1283L768.044 30.2264C768.422 31.2642 767.888 32.4122 766.85 32.7905C765.812 33.1688 764.664 32.6342 764.286 31.5964L758.121 14.685C757.743 13.6472 758.277 12.4993 759.315 12.121L776.226 5.95621C777.264 5.57791 778.412 6.11252 778.791 7.15028C779.169 8.18806 778.634 9.33601 777.596 9.7143L764.613 14.4471C768.838 17.5814 772.317 22.3147 774.952 27.8064C778.35 34.889 780.453 43.4476 780.934 52.0888C781.804 67.6878 777.376 84.3021 764.779 92.6378L777.597 97.3074C778.635 97.6855 779.17 98.8333 778.792 99.8712C778.414 100.909 777.266 101.444 776.228 101.066L759.315 94.9045Z" fill="#13EBF9"/>
<path d="M402.971 198V172.406H410.195C412.422 172.406 414.391 172.898 416.102 173.883C417.812 174.867 419.131 176.268 420.057 178.084C420.994 179.9 421.469 181.986 421.48 184.342V185.977C421.48 188.391 421.012 190.506 420.074 192.322C419.148 194.139 417.818 195.533 416.084 196.506C414.361 197.479 412.352 197.977 410.055 198H402.971ZM406.346 175.184V195.24H409.896C412.498 195.24 414.52 194.432 415.961 192.814C417.414 191.197 418.141 188.895 418.141 185.906V184.412C418.141 181.506 417.455 179.25 416.084 177.645C414.725 176.027 412.791 175.207 410.283 175.184H406.346Z" fill="white"/>
<path d="M437.828 198C437.641 197.625 437.488 196.957 437.371 195.996C435.859 197.566 434.055 198.352 431.957 198.352C430.082 198.352 428.541 197.824 427.334 196.77C426.139 195.703 425.541 194.355 425.541 192.727C425.541 190.746 426.291 189.211 427.791 188.121C429.303 187.02 431.424 186.469 434.154 186.469H437.318V184.975C437.318 183.838 436.979 182.936 436.299 182.268C435.619 181.588 434.617 181.248 433.293 181.248C432.133 181.248 431.16 181.541 430.375 182.127C429.59 182.713 429.197 183.422 429.197 184.254H425.928C425.928 183.305 426.262 182.391 426.93 181.512C427.609 180.621 428.523 179.918 429.672 179.402C430.832 178.887 432.104 178.629 433.486 178.629C435.678 178.629 437.395 179.18 438.637 180.281C439.879 181.371 440.523 182.877 440.57 184.799V193.553C440.57 195.299 440.793 196.688 441.238 197.719V198H437.828ZM432.432 195.521C433.451 195.521 434.418 195.258 435.332 194.73C436.246 194.203 436.908 193.518 437.318 192.674V188.771H434.77C430.785 188.771 428.793 189.938 428.793 192.27C428.793 193.289 429.133 194.086 429.812 194.66C430.492 195.234 431.365 195.521 432.432 195.521Z" fill="white"/>
<path d="M450.08 174.375V178.98H453.631V181.494H450.08V193.289C450.08 194.051 450.238 194.625 450.555 195.012C450.871 195.387 451.41 195.574 452.172 195.574C452.547 195.574 453.062 195.504 453.719 195.363V198C452.863 198.234 452.031 198.352 451.223 198.352C449.77 198.352 448.674 197.912 447.936 197.033C447.197 196.154 446.828 194.906 446.828 193.289V181.494H443.365V178.98H446.828V174.375H450.08Z" fill="white"/>
<path d="M456.232 188.314C456.232 186.451 456.596 184.775 457.322 183.287C458.061 181.799 459.08 180.65 460.381 179.842C461.693 179.033 463.188 178.629 464.863 178.629C467.453 178.629 469.545 179.525 471.139 181.318C472.744 183.111 473.547 185.496 473.547 188.473V188.701C473.547 190.553 473.189 192.217 472.475 193.693C471.771 195.158 470.758 196.301 469.434 197.121C468.121 197.941 466.609 198.352 464.898 198.352C462.32 198.352 460.229 197.455 458.623 195.662C457.029 193.869 456.232 191.496 456.232 188.543V188.314ZM459.502 188.701C459.502 190.811 459.988 192.504 460.961 193.781C461.945 195.059 463.258 195.697 464.898 195.697C466.551 195.697 467.863 195.053 468.836 193.764C469.809 192.463 470.295 190.646 470.295 188.314C470.295 186.229 469.797 184.541 468.801 183.252C467.816 181.951 466.504 181.301 464.863 181.301C463.258 181.301 461.963 181.939 460.979 183.217C459.994 184.494 459.502 186.322 459.502 188.701Z" fill="white"/>
<path d="M502.99 198H486.221V195.662L495.08 185.818C496.393 184.33 497.295 183.123 497.787 182.197C498.291 181.26 498.543 180.293 498.543 179.297C498.543 177.961 498.139 176.865 497.33 176.01C496.521 175.154 495.443 174.727 494.096 174.727C492.479 174.727 491.219 175.189 490.316 176.115C489.426 177.029 488.98 178.307 488.98 179.947H485.729C485.729 177.592 486.484 175.688 487.996 174.234C489.52 172.781 491.553 172.055 494.096 172.055C496.475 172.055 498.355 172.682 499.738 173.936C501.121 175.178 501.812 176.836 501.812 178.91C501.812 181.43 500.207 184.43 496.996 187.91L490.141 195.346H502.99V198Z" fill="white"/>
<path d="M506.664 196.295C506.664 195.732 506.828 195.264 507.156 194.889C507.496 194.514 508 194.326 508.668 194.326C509.336 194.326 509.84 194.514 510.18 194.889C510.531 195.264 510.707 195.732 510.707 196.295C510.707 196.834 510.531 197.285 510.18 197.648C509.84 198.012 509.336 198.193 508.668 198.193C508 198.193 507.496 198.012 507.156 197.648C506.828 197.285 506.664 196.834 506.664 196.295ZM506.682 180.773C506.682 180.211 506.846 179.742 507.174 179.367C507.514 178.992 508.018 178.805 508.686 178.805C509.354 178.805 509.857 178.992 510.197 179.367C510.549 179.742 510.725 180.211 510.725 180.773C510.725 181.312 510.549 181.764 510.197 182.127C509.857 182.49 509.354 182.672 508.686 182.672C508.018 182.672 507.514 182.49 507.174 182.127C506.846 181.764 506.682 181.312 506.682 180.773Z" fill="white"/>
<path d="M605.404 192.592H599.393V202.945H596V177.352H604.473C607.355 177.352 609.57 178.008 611.117 179.32C612.676 180.633 613.455 182.543 613.455 185.051C613.455 186.645 613.021 188.033 612.154 189.217C611.299 190.4 610.104 191.285 608.568 191.871L614.58 202.734V202.945H610.959L605.404 192.592ZM599.393 189.832H604.578C606.254 189.832 607.584 189.398 608.568 188.531C609.564 187.664 610.062 186.504 610.062 185.051C610.062 183.469 609.588 182.256 608.639 181.412C607.701 180.568 606.342 180.141 604.561 180.129H599.393V189.832Z" fill="white"/>
<path d="M616.83 193.26C616.83 191.396 617.193 189.721 617.92 188.232C618.658 186.744 619.678 185.596 620.979 184.787C622.291 183.979 623.785 183.574 625.461 183.574C628.051 183.574 630.143 184.471 631.736 186.264C633.342 188.057 634.145 190.441 634.145 193.418V193.646C634.145 195.498 633.787 197.162 633.072 198.639C632.369 200.104 631.355 201.246 630.031 202.066C628.719 202.887 627.207 203.297 625.496 203.297C622.918 203.297 620.826 202.4 619.221 200.607C617.627 198.814 616.83 196.441 616.83 193.488V193.26ZM620.1 193.646C620.1 195.756 620.586 197.449 621.559 198.727C622.543 200.004 623.855 200.643 625.496 200.643C627.148 200.643 628.461 199.998 629.434 198.709C630.406 197.408 630.893 195.592 630.893 193.26C630.893 191.174 630.395 189.486 629.398 188.197C628.414 186.896 627.102 186.246 625.461 186.246C623.855 186.246 622.561 186.885 621.576 188.162C620.592 189.439 620.1 191.268 620.1 193.646Z" fill="white"/>
<path d="M641.58 183.926V205.143C641.58 208.799 639.922 210.627 636.605 210.627C635.891 210.627 635.229 210.521 634.619 210.311V207.709C634.994 207.803 635.486 207.85 636.096 207.85C636.822 207.85 637.373 207.65 637.748 207.252C638.135 206.865 638.328 206.186 638.328 205.213V183.926H641.58ZM637.994 178.881C637.994 178.365 638.152 177.926 638.469 177.562C638.797 177.188 639.271 177 639.893 177C640.525 177 641.006 177.182 641.334 177.545C641.662 177.908 641.826 178.354 641.826 178.881C641.826 179.408 641.662 179.848 641.334 180.199C641.006 180.551 640.525 180.727 639.893 180.727C639.26 180.727 638.785 180.551 638.469 180.199C638.152 179.848 637.994 179.408 637.994 178.881Z" fill="white"/>
<path d="M658.578 202.945C658.391 202.57 658.238 201.902 658.121 200.941C656.609 202.512 654.805 203.297 652.707 203.297C650.832 203.297 649.291 202.77 648.084 201.715C646.889 200.648 646.291 199.301 646.291 197.672C646.291 195.691 647.041 194.156 648.541 193.066C650.053 191.965 652.174 191.414 654.904 191.414H658.068V189.92C658.068 188.783 657.729 187.881 657.049 187.213C656.369 186.533 655.367 186.193 654.043 186.193C652.883 186.193 651.91 186.486 651.125 187.072C650.34 187.658 649.947 188.367 649.947 189.199H646.678C646.678 188.25 647.012 187.336 647.68 186.457C648.359 185.566 649.273 184.863 650.422 184.348C651.582 183.832 652.854 183.574 654.236 183.574C656.428 183.574 658.145 184.125 659.387 185.227C660.629 186.316 661.273 187.822 661.32 189.744V198.498C661.32 200.244 661.543 201.633 661.988 202.664V202.945H658.578ZM653.182 200.467C654.201 200.467 655.168 200.203 656.082 199.676C656.996 199.148 657.658 198.463 658.068 197.619V193.717H655.52C651.535 193.717 649.543 194.883 649.543 197.215C649.543 198.234 649.883 199.031 650.562 199.605C651.242 200.18 652.115 200.467 653.182 200.467Z" fill="white"/>
<path d="M677.492 197.9C677.492 197.021 677.158 196.342 676.49 195.861C675.834 195.369 674.68 194.947 673.027 194.596C671.387 194.244 670.08 193.822 669.107 193.33C668.146 192.838 667.432 192.252 666.963 191.572C666.506 190.893 666.277 190.084 666.277 189.146C666.277 187.588 666.934 186.27 668.246 185.191C669.57 184.113 671.258 183.574 673.309 183.574C675.465 183.574 677.211 184.131 678.547 185.244C679.895 186.357 680.568 187.781 680.568 189.516H677.299C677.299 188.625 676.918 187.857 676.156 187.213C675.406 186.568 674.457 186.246 673.309 186.246C672.125 186.246 671.199 186.504 670.531 187.02C669.863 187.535 669.529 188.209 669.529 189.041C669.529 189.826 669.84 190.418 670.461 190.816C671.082 191.215 672.201 191.596 673.818 191.959C675.447 192.322 676.766 192.756 677.773 193.26C678.781 193.764 679.525 194.373 680.006 195.088C680.498 195.791 680.744 196.652 680.744 197.672C680.744 199.371 680.064 200.736 678.705 201.768C677.346 202.787 675.582 203.297 673.414 203.297C671.891 203.297 670.543 203.027 669.371 202.488C668.199 201.949 667.279 201.199 666.611 200.238C665.955 199.266 665.627 198.217 665.627 197.092H668.879C668.938 198.182 669.371 199.049 670.18 199.693C671 200.326 672.078 200.643 673.414 200.643C674.645 200.643 675.629 200.396 676.367 199.904C677.117 199.4 677.492 198.732 677.492 197.9Z" fill="white"/>
<path d="M600.33 248.406L608.697 269.289L617.064 248.406H621.441V274H618.066V264.033L618.383 253.275L609.98 274H607.396L599.012 253.328L599.346 264.033V274H595.971V248.406H600.33Z" fill="white"/>
<path d="M626.029 264.314C626.029 262.451 626.393 260.775 627.119 259.287C627.857 257.799 628.877 256.65 630.178 255.842C631.49 255.033 632.984 254.629 634.66 254.629C637.25 254.629 639.342 255.525 640.936 257.318C642.541 259.111 643.344 261.496 643.344 264.473V264.701C643.344 266.553 642.986 268.217 642.271 269.693C641.568 271.158 640.555 272.301 639.23 273.121C637.918 273.941 636.406 274.352 634.695 274.352C632.117 274.352 630.025 273.455 628.42 271.662C626.826 269.869 626.029 267.496 626.029 264.543V264.314ZM629.299 264.701C629.299 266.811 629.785 268.504 630.758 269.781C631.742 271.059 633.055 271.697 634.695 271.697C636.348 271.697 637.66 271.053 638.633 269.764C639.605 268.463 640.092 266.646 640.092 264.314C640.092 262.229 639.594 260.541 638.598 259.252C637.613 257.951 636.301 257.301 634.66 257.301C633.055 257.301 631.76 257.939 630.775 259.217C629.791 260.494 629.299 262.322 629.299 264.701Z" fill="white"/>
<path d="M650.498 254.98L650.604 257.371C652.057 255.543 653.955 254.629 656.299 254.629C660.318 254.629 662.346 256.896 662.381 261.432V274H659.129V261.414C659.117 260.043 658.801 259.029 658.18 258.373C657.57 257.717 656.615 257.389 655.314 257.389C654.26 257.389 653.334 257.67 652.537 258.232C651.74 258.795 651.119 259.533 650.674 260.447V274H647.422V254.98H650.498Z" fill="white"/>
<path d="M666.494 264.332C666.494 261.414 667.186 259.07 668.568 257.301C669.951 255.52 671.762 254.629 674 254.629C676.227 254.629 677.99 255.391 679.291 256.914V247H682.543V274H679.555L679.396 271.961C678.096 273.555 676.285 274.352 673.965 274.352C671.762 274.352 669.963 273.449 668.568 271.645C667.186 269.84 666.494 267.484 666.494 264.578V264.332ZM669.746 264.701C669.746 266.857 670.191 268.545 671.082 269.764C671.973 270.982 673.203 271.592 674.773 271.592C676.836 271.592 678.342 270.666 679.291 268.814V260.078C678.318 258.285 676.824 257.389 674.809 257.389C673.215 257.389 671.973 258.004 671.082 259.234C670.191 260.465 669.746 262.287 669.746 264.701Z" fill="white"/>
<path d="M696.799 257.898C696.307 257.816 695.773 257.775 695.199 257.775C693.066 257.775 691.619 258.684 690.857 260.5V274H687.605V254.98H690.77L690.822 257.178C691.889 255.479 693.4 254.629 695.357 254.629C695.99 254.629 696.471 254.711 696.799 254.875V257.898Z" fill="white"/>
<path d="M710.844 274C710.656 273.625 710.504 272.957 710.387 271.996C708.875 273.566 707.07 274.352 704.973 274.352C703.098 274.352 701.557 273.824 700.35 272.77C699.154 271.703 698.557 270.355 698.557 268.727C698.557 266.746 699.307 265.211 700.807 264.121C702.318 263.02 704.439 262.469 707.17 262.469H710.334V260.975C710.334 259.838 709.994 258.936 709.314 258.268C708.635 257.588 707.633 257.248 706.309 257.248C705.148 257.248 704.176 257.541 703.391 258.127C702.605 258.713 702.213 259.422 702.213 260.254H698.943C698.943 259.305 699.277 258.391 699.945 257.512C700.625 256.621 701.539 255.918 702.688 255.402C703.848 254.887 705.119 254.629 706.502 254.629C708.693 254.629 710.41 255.18 711.652 256.281C712.895 257.371 713.539 258.877 713.586 260.799V269.553C713.586 271.299 713.809 272.688 714.254 273.719V274H710.844ZM705.447 271.521C706.467 271.521 707.434 271.258 708.348 270.73C709.262 270.203 709.924 269.518 710.334 268.674V264.771H707.785C703.801 264.771 701.809 265.938 701.809 268.27C701.809 269.289 702.148 270.086 702.828 270.66C703.508 271.234 704.381 271.521 705.447 271.521Z" fill="white"/>
<path d="M717.91 264.332C717.91 261.367 718.596 259.012 719.967 257.266C721.338 255.508 723.154 254.629 725.416 254.629C727.736 254.629 729.547 255.449 730.848 257.09L731.006 254.98H733.977V273.543C733.977 276.004 733.244 277.943 731.779 279.361C730.326 280.779 728.369 281.488 725.908 281.488C724.537 281.488 723.195 281.195 721.883 280.609C720.57 280.023 719.568 279.221 718.877 278.201L720.564 276.25C721.959 277.973 723.664 278.834 725.68 278.834C727.262 278.834 728.492 278.389 729.371 277.498C730.262 276.607 730.707 275.354 730.707 273.736V272.102C729.406 273.602 727.631 274.352 725.381 274.352C723.154 274.352 721.35 273.455 719.967 271.662C718.596 269.869 717.91 267.426 717.91 264.332ZM721.18 264.701C721.18 266.846 721.619 268.533 722.498 269.764C723.377 270.982 724.607 271.592 726.189 271.592C728.24 271.592 729.746 270.66 730.707 268.797V260.113C729.711 258.297 728.217 257.389 726.225 257.389C724.643 257.389 723.406 258.004 722.516 259.234C721.625 260.465 721.18 262.287 721.18 264.701Z" fill="white"/>
<path d="M738.037 264.314C738.037 262.451 738.4 260.775 739.127 259.287C739.865 257.799 740.885 256.65 742.186 255.842C743.498 255.033 744.992 254.629 746.668 254.629C749.258 254.629 751.35 255.525 752.943 257.318C754.549 259.111 755.352 261.496 755.352 264.473V264.701C755.352 266.553 754.994 268.217 754.279 269.693C753.576 271.158 752.562 272.301 751.238 273.121C749.926 273.941 748.414 274.352 746.703 274.352C744.125 274.352 742.033 273.455 740.428 271.662C738.834 269.869 738.037 267.496 738.037 264.543V264.314ZM741.307 264.701C741.307 266.811 741.793 268.504 742.766 269.781C743.75 271.059 745.062 271.697 746.703 271.697C748.355 271.697 749.668 271.053 750.641 269.764C751.613 268.463 752.1 266.646 752.1 264.314C752.1 262.229 751.602 260.541 750.605 259.252C749.621 257.951 748.309 257.301 746.668 257.301C745.062 257.301 743.768 257.939 742.783 259.217C741.799 260.494 741.307 262.322 741.307 264.701Z" fill="white"/>
<path d="M762.506 254.98L762.611 257.371C764.064 255.543 765.963 254.629 768.307 254.629C772.326 254.629 774.354 256.896 774.389 261.432V274H771.137V261.414C771.125 260.043 770.809 259.029 770.188 258.373C769.578 257.717 768.623 257.389 767.322 257.389C766.268 257.389 765.342 257.67 764.545 258.232C763.748 258.795 763.127 259.533 762.682 260.447V274H759.43V254.98H762.506Z" fill="white"/>
<path d="M595.971 348V322.406H603.195C605.422 322.406 607.391 322.898 609.102 323.883C610.812 324.867 612.131 326.268 613.057 328.084C613.994 329.9 614.469 331.986 614.48 334.342V335.977C614.48 338.391 614.012 340.506 613.074 342.322C612.148 344.139 610.818 345.533 609.084 346.506C607.361 347.479 605.352 347.977 603.055 348H595.971ZM599.346 325.184V345.24H602.896C605.498 345.24 607.52 344.432 608.961 342.814C610.414 341.197 611.141 338.895 611.141 335.906V334.412C611.141 331.506 610.455 329.25 609.084 327.645C607.725 326.027 605.791 325.207 603.283 325.184H599.346Z" fill="white"/>
<path d="M630.828 346.119C629.562 347.607 627.705 348.352 625.256 348.352C623.229 348.352 621.682 347.766 620.615 346.594C619.561 345.41 619.027 343.664 619.016 341.355V328.98H622.268V341.268C622.268 344.15 623.439 345.592 625.783 345.592C628.268 345.592 629.92 344.666 630.74 342.814V328.98H633.992V348H630.898L630.828 346.119Z" fill="white"/>
<path d="M648.143 331.898C647.65 331.816 647.117 331.775 646.543 331.775C644.41 331.775 642.963 332.684 642.201 334.5V348H638.949V328.98H642.113L642.166 331.178C643.232 329.479 644.744 328.629 646.701 328.629C647.334 328.629 647.814 328.711 648.143 328.875V331.898Z" fill="white"/>
<path d="M662.188 348C662 347.625 661.848 346.957 661.73 345.996C660.219 347.566 658.414 348.352 656.316 348.352C654.441 348.352 652.9 347.824 651.693 346.77C650.498 345.703 649.9 344.355 649.9 342.727C649.9 340.746 650.65 339.211 652.15 338.121C653.662 337.02 655.783 336.469 658.514 336.469H661.678V334.975C661.678 333.838 661.338 332.936 660.658 332.268C659.979 331.588 658.977 331.248 657.652 331.248C656.492 331.248 655.52 331.541 654.734 332.127C653.949 332.713 653.557 333.422 653.557 334.254H650.287C650.287 333.305 650.621 332.391 651.289 331.512C651.969 330.621 652.883 329.918 654.031 329.402C655.191 328.887 656.463 328.629 657.846 328.629C660.037 328.629 661.754 329.18 662.996 330.281C664.238 331.371 664.883 332.877 664.93 334.799V343.553C664.93 345.299 665.152 346.688 665.598 347.719V348H662.188ZM656.791 345.521C657.811 345.521 658.777 345.258 659.691 344.73C660.605 344.203 661.268 343.518 661.678 342.674V338.771H659.129C655.145 338.771 653.152 339.938 653.152 342.27C653.152 343.289 653.492 344.086 654.172 344.66C654.852 345.234 655.725 345.521 656.791 345.521Z" fill="white"/>
<path d="M673.104 328.98L673.209 331.371C674.662 329.543 676.561 328.629 678.904 328.629C682.924 328.629 684.951 330.896 684.986 335.432V348H681.734V335.414C681.723 334.043 681.406 333.029 680.785 332.373C680.176 331.717 679.221 331.389 677.92 331.389C676.865 331.389 675.939 331.67 675.143 332.232C674.346 332.795 673.725 333.533 673.279 334.447V348H670.027V328.98H673.104Z" fill="white"/>
<path d="M159.357 96.6465H153.346V107H149.953V81.4062H158.426C161.309 81.4062 163.523 82.0625 165.07 83.375C166.629 84.6875 167.408 86.5977 167.408 89.1055C167.408 90.6992 166.975 92.0879 166.107 93.2715C165.252 94.4551 164.057 95.3398 162.521 95.9258L168.533 106.789V107H164.912L159.357 96.6465ZM153.346 93.8867H158.531C160.207 93.8867 161.537 93.4531 162.521 92.5859C163.518 91.7188 164.016 90.5586 164.016 89.1055C164.016 87.5234 163.541 86.3105 162.592 85.4668C161.654 84.623 160.295 84.1953 158.514 84.1836H153.346V93.8867Z" fill="white"/>
<path d="M170.783 97.3145C170.783 95.4512 171.146 93.7754 171.873 92.2871C172.611 90.7988 173.631 89.6504 174.932 88.8418C176.244 88.0332 177.738 87.6289 179.414 87.6289C182.004 87.6289 184.096 88.5254 185.689 90.3184C187.295 92.1113 188.098 94.4961 188.098 97.4727V97.7012C188.098 99.5527 187.74 101.217 187.025 102.693C186.322 104.158 185.309 105.301 183.984 106.121C182.672 106.941 181.16 107.352 179.449 107.352C176.871 107.352 174.779 106.455 173.174 104.662C171.58 102.869 170.783 100.496 170.783 97.543V97.3145ZM174.053 97.7012C174.053 99.8105 174.539 101.504 175.512 102.781C176.496 104.059 177.809 104.697 179.449 104.697C181.102 104.697 182.414 104.053 183.387 102.764C184.359 101.463 184.846 99.6465 184.846 97.3145C184.846 95.2285 184.348 93.541 183.352 92.252C182.367 90.9512 181.055 90.3008 179.414 90.3008C177.809 90.3008 176.514 90.9395 175.529 92.2168C174.545 93.4941 174.053 95.3223 174.053 97.7012Z" fill="white"/>
<path d="M195.533 87.9805V109.197C195.533 112.854 193.875 114.682 190.559 114.682C189.844 114.682 189.182 114.576 188.572 114.365V111.764C188.947 111.857 189.439 111.904 190.049 111.904C190.775 111.904 191.326 111.705 191.701 111.307C192.088 110.92 192.281 110.24 192.281 109.268V87.9805H195.533ZM191.947 82.9355C191.947 82.4199 192.105 81.9805 192.422 81.6172C192.75 81.2422 193.225 81.0547 193.846 81.0547C194.479 81.0547 194.959 81.2363 195.287 81.5996C195.615 81.9629 195.779 82.4082 195.779 82.9355C195.779 83.4629 195.615 83.9023 195.287 84.2539C194.959 84.6055 194.479 84.7812 193.846 84.7812C193.213 84.7812 192.738 84.6055 192.422 84.2539C192.105 83.9023 191.947 83.4629 191.947 82.9355Z" fill="white"/>
<path d="M212.531 107C212.344 106.625 212.191 105.957 212.074 104.996C210.562 106.566 208.758 107.352 206.66 107.352C204.785 107.352 203.244 106.824 202.037 105.77C200.842 104.703 200.244 103.355 200.244 101.727C200.244 99.7461 200.994 98.2109 202.494 97.1211C204.006 96.0195 206.127 95.4688 208.857 95.4688H212.021V93.9746C212.021 92.8379 211.682 91.9355 211.002 91.2676C210.322 90.5879 209.32 90.248 207.996 90.248C206.836 90.248 205.863 90.541 205.078 91.127C204.293 91.7129 203.9 92.4219 203.9 93.2539H200.631C200.631 92.3047 200.965 91.3906 201.633 90.5117C202.312 89.6211 203.227 88.918 204.375 88.4023C205.535 87.8867 206.807 87.6289 208.189 87.6289C210.381 87.6289 212.098 88.1797 213.34 89.2812C214.582 90.3711 215.227 91.877 215.273 93.7988V102.553C215.273 104.299 215.496 105.688 215.941 106.719V107H212.531ZM207.135 104.521C208.154 104.521 209.121 104.258 210.035 103.73C210.949 103.203 211.611 102.518 212.021 101.674V97.7715H209.473C205.488 97.7715 203.496 98.9375 203.496 101.27C203.496 102.289 203.836 103.086 204.516 103.66C205.195 104.234 206.068 104.521 207.135 104.521Z" fill="white"/>
<path d="M231.445 101.955C231.445 101.076 231.111 100.396 230.443 99.916C229.787 99.4238 228.633 99.002 226.98 98.6504C225.34 98.2988 224.033 97.877 223.061 97.3848C222.1 96.8926 221.385 96.3066 220.916 95.627C220.459 94.9473 220.23 94.1387 220.23 93.2012C220.23 91.6426 220.887 90.3242 222.199 89.2461C223.523 88.168 225.211 87.6289 227.262 87.6289C229.418 87.6289 231.164 88.1855 232.5 89.2988C233.848 90.4121 234.521 91.8359 234.521 93.5703H231.252C231.252 92.6797 230.871 91.9121 230.109 91.2676C229.359 90.623 228.41 90.3008 227.262 90.3008C226.078 90.3008 225.152 90.5586 224.484 91.0742C223.816 91.5898 223.482 92.2637 223.482 93.0957C223.482 93.8809 223.793 94.4727 224.414 94.8711C225.035 95.2695 226.154 95.6504 227.771 96.0137C229.4 96.377 230.719 96.8105 231.727 97.3145C232.734 97.8184 233.479 98.4277 233.959 99.1426C234.451 99.8457 234.697 100.707 234.697 101.727C234.697 103.426 234.018 104.791 232.658 105.822C231.299 106.842 229.535 107.352 227.367 107.352C225.844 107.352 224.496 107.082 223.324 106.543C222.152 106.004 221.232 105.254 220.564 104.293C219.908 103.32 219.58 102.271 219.58 101.146H222.832C222.891 102.236 223.324 103.104 224.133 103.748C224.953 104.381 226.031 104.697 227.367 104.697C228.598 104.697 229.582 104.451 230.32 103.959C231.07 103.455 231.445 102.787 231.445 101.955Z" fill="white"/>
<path d="M155.33 141.406L163.697 162.289L172.064 141.406H176.441V167H173.066V157.033L173.383 146.275L164.98 167H162.396L154.012 146.328L154.346 157.033V167H150.971V141.406H155.33Z" fill="white"/>
<path d="M181.029 157.314C181.029 155.451 181.393 153.775 182.119 152.287C182.857 150.799 183.877 149.65 185.178 148.842C186.49 148.033 187.984 147.629 189.66 147.629C192.25 147.629 194.342 148.525 195.936 150.318C197.541 152.111 198.344 154.496 198.344 157.473V157.701C198.344 159.553 197.986 161.217 197.271 162.693C196.568 164.158 195.555 165.301 194.23 166.121C192.918 166.941 191.406 167.352 189.695 167.352C187.117 167.352 185.025 166.455 183.42 164.662C181.826 162.869 181.029 160.496 181.029 157.543V157.314ZM184.299 157.701C184.299 159.811 184.785 161.504 185.758 162.781C186.742 164.059 188.055 164.697 189.695 164.697C191.348 164.697 192.66 164.053 193.633 162.764C194.605 161.463 195.092 159.646 195.092 157.314C195.092 155.229 194.594 153.541 193.598 152.252C192.613 150.951 191.301 150.301 189.66 150.301C188.055 150.301 186.76 150.939 185.775 152.217C184.791 153.494 184.299 155.322 184.299 157.701Z" fill="white"/>
<path d="M205.498 147.98L205.604 150.371C207.057 148.543 208.955 147.629 211.299 147.629C215.318 147.629 217.346 149.896 217.381 154.432V167H214.129V154.414C214.117 153.043 213.801 152.029 213.18 151.373C212.57 150.717 211.615 150.389 210.314 150.389C209.26 150.389 208.334 150.67 207.537 151.232C206.74 151.795 206.119 152.533 205.674 153.447V167H202.422V147.98H205.498Z" fill="white"/>
<path d="M221.494 157.332C221.494 154.414 222.186 152.07 223.568 150.301C224.951 148.52 226.762 147.629 229 147.629C231.227 147.629 232.99 148.391 234.291 149.914V140H237.543V167H234.555L234.396 164.961C233.096 166.555 231.285 167.352 228.965 167.352C226.762 167.352 224.963 166.449 223.568 164.645C222.186 162.84 221.494 160.484 221.494 157.578V157.332ZM224.746 157.701C224.746 159.857 225.191 161.545 226.082 162.764C226.973 163.982 228.203 164.592 229.773 164.592C231.836 164.592 233.342 163.666 234.291 161.814V153.078C233.318 151.285 231.824 150.389 229.809 150.389C228.215 150.389 226.973 151.004 226.082 152.234C225.191 153.465 224.746 155.287 224.746 157.701Z" fill="white"/>
<path d="M251.799 150.898C251.307 150.816 250.773 150.775 250.199 150.775C248.066 150.775 246.619 151.684 245.857 153.5V167H242.605V147.98H245.77L245.822 150.178C246.889 148.479 248.4 147.629 250.357 147.629C250.99 147.629 251.471 147.711 251.799 147.875V150.898Z" fill="white"/>
<path d="M265.844 167C265.656 166.625 265.504 165.957 265.387 164.996C263.875 166.566 262.07 167.352 259.973 167.352C258.098 167.352 256.557 166.824 255.35 165.77C254.154 164.703 253.557 163.355 253.557 161.727C253.557 159.746 254.307 158.211 255.807 157.121C257.318 156.02 259.439 155.469 262.17 155.469H265.334V153.975C265.334 152.838 264.994 151.936 264.314 151.268C263.635 150.588 262.633 150.248 261.309 150.248C260.148 150.248 259.176 150.541 258.391 151.127C257.605 151.713 257.213 152.422 257.213 153.254H253.943C253.943 152.305 254.277 151.391 254.945 150.512C255.625 149.621 256.539 148.918 257.688 148.402C258.848 147.887 260.119 147.629 261.502 147.629C263.693 147.629 265.41 148.18 266.652 149.281C267.895 150.371 268.539 151.877 268.586 153.799V162.553C268.586 164.299 268.809 165.688 269.254 166.719V167H265.844ZM260.447 164.521C261.467 164.521 262.434 164.258 263.348 163.73C264.262 163.203 264.924 162.518 265.334 161.674V157.771H262.785C258.801 157.771 256.809 158.938 256.809 161.27C256.809 162.289 257.148 163.086 257.828 163.66C258.508 164.234 259.381 164.521 260.447 164.521Z" fill="white"/>
<path d="M272.91 157.332C272.91 154.367 273.596 152.012 274.967 150.266C276.338 148.508 278.154 147.629 280.416 147.629C282.736 147.629 284.547 148.449 285.848 150.09L286.006 147.98H288.977V166.543C288.977 169.004 288.244 170.943 286.779 172.361C285.326 173.779 283.369 174.488 280.908 174.488C279.537 174.488 278.195 174.195 276.883 173.609C275.57 173.023 274.568 172.221 273.877 171.201L275.564 169.25C276.959 170.973 278.664 171.834 280.68 171.834C282.262 171.834 283.492 171.389 284.371 170.498C285.262 169.607 285.707 168.354 285.707 166.736V165.102C284.406 166.602 282.631 167.352 280.381 167.352C278.154 167.352 276.35 166.455 274.967 164.662C273.596 162.869 272.91 160.426 272.91 157.332ZM276.18 157.701C276.18 159.846 276.619 161.533 277.498 162.764C278.377 163.982 279.607 164.592 281.189 164.592C283.24 164.592 284.746 163.66 285.707 161.797V153.113C284.711 151.297 283.217 150.389 281.225 150.389C279.643 150.389 278.406 151.004 277.516 152.234C276.625 153.465 276.18 155.287 276.18 157.701Z" fill="white"/>
<path d="M293.037 157.314C293.037 155.451 293.4 153.775 294.127 152.287C294.865 150.799 295.885 149.65 297.186 148.842C298.498 148.033 299.992 147.629 301.668 147.629C304.258 147.629 306.35 148.525 307.943 150.318C309.549 152.111 310.352 154.496 310.352 157.473V157.701C310.352 159.553 309.994 161.217 309.279 162.693C308.576 164.158 307.562 165.301 306.238 166.121C304.926 166.941 303.414 167.352 301.703 167.352C299.125 167.352 297.033 166.455 295.428 164.662C293.834 162.869 293.037 160.496 293.037 157.543V157.314ZM296.307 157.701C296.307 159.811 296.793 161.504 297.766 162.781C298.75 164.059 300.062 164.697 301.703 164.697C303.355 164.697 304.668 164.053 305.641 162.764C306.613 161.463 307.1 159.646 307.1 157.314C307.1 155.229 306.602 153.541 305.605 152.252C304.621 150.951 303.309 150.301 301.668 150.301C300.062 150.301 298.768 150.939 297.783 152.217C296.799 153.494 296.307 155.322 296.307 157.701Z" fill="white"/>
<path d="M317.506 147.98L317.611 150.371C319.064 148.543 320.963 147.629 323.307 147.629C327.326 147.629 329.354 149.896 329.389 154.432V167H326.137V154.414C326.125 153.043 325.809 152.029 325.188 151.373C324.578 150.717 323.623 150.389 322.322 150.389C321.268 150.389 320.342 150.67 319.545 151.232C318.748 151.795 318.127 152.533 317.682 153.447V167H314.43V147.98H317.506Z" fill="white"/>
<path d="M150.971 234V208.406H158.195C160.422 208.406 162.391 208.898 164.102 209.883C165.812 210.867 167.131 212.268 168.057 214.084C168.994 215.9 169.469 217.986 169.48 220.342V221.977C169.48 224.391 169.012 226.506 168.074 228.322C167.148 230.139 165.818 231.533 164.084 232.506C162.361 233.479 160.352 233.977 158.055 234H150.971ZM154.346 211.184V231.24H157.896C160.498 231.24 162.52 230.432 163.961 228.814C165.414 227.197 166.141 224.895 166.141 221.906V220.412C166.141 217.506 165.455 215.25 164.084 213.645C162.725 212.027 160.791 211.207 158.283 211.184H154.346Z" fill="white"/>
<path d="M185.828 232.119C184.562 233.607 182.705 234.352 180.256 234.352C178.229 234.352 176.682 233.766 175.615 232.594C174.561 231.41 174.027 229.664 174.016 227.355V214.98H177.268V227.268C177.268 230.15 178.439 231.592 180.783 231.592C183.268 231.592 184.92 230.666 185.74 228.814V214.98H188.992V234H185.898L185.828 232.119Z" fill="white"/>
<path d="M203.143 217.898C202.65 217.816 202.117 217.775 201.543 217.775C199.41 217.775 197.963 218.684 197.201 220.5V234H193.949V214.98H197.113L197.166 217.178C198.232 215.479 199.744 214.629 201.701 214.629C202.334 214.629 202.814 214.711 203.143 214.875V217.898Z" fill="white"/>
<path d="M217.188 234C217 233.625 216.848 232.957 216.73 231.996C215.219 233.566 213.414 234.352 211.316 234.352C209.441 234.352 207.9 233.824 206.693 232.77C205.498 231.703 204.9 230.355 204.9 228.727C204.9 226.746 205.65 225.211 207.15 224.121C208.662 223.02 210.783 222.469 213.514 222.469H216.678V220.975C216.678 219.838 216.338 218.936 215.658 218.268C214.979 217.588 213.977 217.248 212.652 217.248C211.492 217.248 210.52 217.541 209.734 218.127C208.949 218.713 208.557 219.422 208.557 220.254H205.287C205.287 219.305 205.621 218.391 206.289 217.512C206.969 216.621 207.883 215.918 209.031 215.402C210.191 214.887 211.463 214.629 212.846 214.629C215.037 214.629 216.754 215.18 217.996 216.281C219.238 217.371 219.883 218.877 219.93 220.799V229.553C219.93 231.299 220.152 232.688 220.598 233.719V234H217.188ZM211.791 231.521C212.811 231.521 213.777 231.258 214.691 230.73C215.605 230.203 216.268 229.518 216.678 228.674V224.771H214.129C210.145 224.771 208.152 225.938 208.152 228.27C208.152 229.289 208.492 230.086 209.172 230.66C209.852 231.234 210.725 231.521 211.791 231.521Z" fill="white"/>
<path d="M228.104 214.98L228.209 217.371C229.662 215.543 231.561 214.629 233.904 214.629C237.924 214.629 239.951 216.896 239.986 221.432V234H236.734V221.414C236.723 220.043 236.406 219.029 235.785 218.373C235.176 217.717 234.221 217.389 232.92 217.389C231.865 217.389 230.939 217.67 230.143 218.232C229.346 218.795 228.725 219.533 228.279 220.447V234H225.027V214.98H228.104Z" fill="white"/>
<path d="M166.086 294.697H155.346V306H151.971V280.406H167.826V283.184H155.346V291.938H166.086V294.697Z" fill="white"/>
<path d="M178.865 306.352C176.287 306.352 174.189 305.508 172.572 303.82C170.955 302.121 170.146 299.854 170.146 297.018V296.42C170.146 294.533 170.504 292.852 171.219 291.375C171.945 289.887 172.953 288.727 174.242 287.895C175.543 287.051 176.949 286.629 178.461 286.629C180.934 286.629 182.855 287.443 184.227 289.072C185.598 290.701 186.283 293.033 186.283 296.068V297.422H173.398C173.445 299.297 173.99 300.814 175.033 301.975C176.088 303.123 177.424 303.697 179.041 303.697C180.189 303.697 181.162 303.463 181.959 302.994C182.756 302.525 183.453 301.904 184.051 301.131L186.037 302.678C184.443 305.127 182.053 306.352 178.865 306.352ZM178.461 289.301C177.148 289.301 176.047 289.781 175.156 290.742C174.266 291.691 173.715 293.027 173.504 294.75H183.031V294.504C182.938 292.852 182.492 291.574 181.695 290.672C180.898 289.758 179.82 289.301 178.461 289.301Z" fill="white"/>
<path d="M199.256 289.898C198.764 289.816 198.23 289.775 197.656 289.775C195.523 289.775 194.076 290.684 193.314 292.5V306H190.062V286.98H193.227L193.279 289.178C194.346 287.479 195.857 286.629 197.814 286.629C198.447 286.629 198.928 286.711 199.256 286.875V289.898Z" fill="white"/>
<path d="M205.338 286.98L205.443 289.371C206.896 287.543 208.795 286.629 211.139 286.629C215.158 286.629 217.186 288.896 217.221 293.432V306H213.969V293.414C213.957 292.043 213.641 291.029 213.02 290.373C212.41 289.717 211.455 289.389 210.154 289.389C209.1 289.389 208.174 289.67 207.377 290.232C206.58 290.795 205.959 291.533 205.514 292.447V306H202.262V286.98H205.338Z" fill="white"/>
<path d="M233.867 306C233.68 305.625 233.527 304.957 233.41 303.996C231.898 305.566 230.094 306.352 227.996 306.352C226.121 306.352 224.58 305.824 223.373 304.77C222.178 303.703 221.58 302.355 221.58 300.727C221.58 298.746 222.33 297.211 223.83 296.121C225.342 295.02 227.463 294.469 230.193 294.469H233.357V292.975C233.357 291.838 233.018 290.936 232.338 290.268C231.658 289.588 230.656 289.248 229.332 289.248C228.172 289.248 227.199 289.541 226.414 290.127C225.629 290.713 225.236 291.422 225.236 292.254H221.967C221.967 291.305 222.301 290.391 222.969 289.512C223.648 288.621 224.562 287.918 225.711 287.402C226.871 286.887 228.143 286.629 229.525 286.629C231.717 286.629 233.434 287.18 234.676 288.281C235.918 289.371 236.562 290.877 236.609 292.799V301.553C236.609 303.299 236.832 304.688 237.277 305.719V306H233.867ZM228.471 303.521C229.49 303.521 230.457 303.258 231.371 302.73C232.285 302.203 232.947 301.518 233.357 300.674V296.771H230.809C226.824 296.771 224.832 297.938 224.832 300.27C224.832 301.289 225.172 302.086 225.852 302.66C226.531 303.234 227.404 303.521 228.471 303.521Z" fill="white"/>
<path d="M244.783 286.98L244.889 289.371C246.342 287.543 248.24 286.629 250.584 286.629C254.604 286.629 256.631 288.896 256.666 293.432V306H253.414V293.414C253.402 292.043 253.086 291.029 252.465 290.373C251.855 289.717 250.9 289.389 249.6 289.389C248.545 289.389 247.619 289.67 246.822 290.232C246.025 290.795 245.404 291.533 244.959 292.447V306H241.707V286.98H244.783Z" fill="white"/>
<path d="M260.779 296.332C260.779 293.414 261.471 291.07 262.854 289.301C264.236 287.52 266.047 286.629 268.285 286.629C270.512 286.629 272.275 287.391 273.576 288.914V279H276.828V306H273.84L273.682 303.961C272.381 305.555 270.57 306.352 268.25 306.352C266.047 306.352 264.248 305.449 262.854 303.645C261.471 301.84 260.779 299.484 260.779 296.578V296.332ZM264.031 296.701C264.031 298.857 264.477 300.545 265.367 301.764C266.258 302.982 267.488 303.592 269.059 303.592C271.121 303.592 272.627 302.666 273.576 300.814V292.078C272.604 290.285 271.109 289.389 269.094 289.389C267.5 289.389 266.258 290.004 265.367 291.234C264.477 292.465 264.031 294.287 264.031 296.701Z" fill="white"/>
<path d="M289.783 306.352C287.205 306.352 285.107 305.508 283.49 303.82C281.873 302.121 281.064 299.854 281.064 297.018V296.42C281.064 294.533 281.422 292.852 282.137 291.375C282.863 289.887 283.871 288.727 285.16 287.895C286.461 287.051 287.867 286.629 289.379 286.629C291.852 286.629 293.773 287.443 295.145 289.072C296.516 290.701 297.201 293.033 297.201 296.068V297.422H284.316C284.363 299.297 284.908 300.814 285.951 301.975C287.006 303.123 288.342 303.697 289.959 303.697C291.107 303.697 292.08 303.463 292.877 302.994C293.674 302.525 294.371 301.904 294.969 301.131L296.955 302.678C295.361 305.127 292.971 306.352 289.783 306.352ZM289.379 289.301C288.066 289.301 286.965 289.781 286.074 290.742C285.184 291.691 284.633 293.027 284.422 294.75H293.949V294.504C293.855 292.852 293.41 291.574 292.613 290.672C291.816 289.758 290.738 289.301 289.379 289.301Z" fill="white"/>
<path d="M312.055 300.955C312.055 300.076 311.721 299.396 311.053 298.916C310.396 298.424 309.242 298.002 307.59 297.65C305.949 297.299 304.643 296.877 303.67 296.385C302.709 295.893 301.994 295.307 301.525 294.627C301.068 293.947 300.84 293.139 300.84 292.201C300.84 290.643 301.496 289.324 302.809 288.246C304.133 287.168 305.82 286.629 307.871 286.629C310.027 286.629 311.773 287.186 313.109 288.299C314.457 289.412 315.131 290.836 315.131 292.57H311.861C311.861 291.68 311.48 290.912 310.719 290.268C309.969 289.623 309.02 289.301 307.871 289.301C306.688 289.301 305.762 289.559 305.094 290.074C304.426 290.59 304.092 291.264 304.092 292.096C304.092 292.881 304.402 293.473 305.023 293.871C305.645 294.27 306.764 294.65 308.381 295.014C310.01 295.377 311.328 295.811 312.336 296.314C313.344 296.818 314.088 297.428 314.568 298.143C315.061 298.846 315.307 299.707 315.307 300.727C315.307 302.426 314.627 303.791 313.268 304.822C311.908 305.842 310.145 306.352 307.977 306.352C306.453 306.352 305.105 306.082 303.934 305.543C302.762 305.004 301.842 304.254 301.174 303.293C300.518 302.32 300.189 301.271 300.189 300.146H303.441C303.5 301.236 303.934 302.104 304.742 302.748C305.562 303.381 306.641 303.697 307.977 303.697C309.207 303.697 310.191 303.451 310.93 302.959C311.68 302.455 312.055 301.787 312.055 300.955Z" fill="white"/>
<path fill-rule="evenodd" clip-rule="evenodd" d="M123.597 247.044C136.391 240.256 143 231.563 143 223C143 214.437 136.391 205.744 123.597 198.956C110.981 192.262 93.2759 188 73.5 188C53.7241 188 36.0188 192.262 23.4025 198.956C10.6094 205.744 4 214.437 4 223C4 231.563 10.6094 240.256 23.4025 247.044C36.0188 253.738 53.7241 258 73.5 258C93.2759 258 110.981 253.738 123.597 247.044ZM73.5 262C114.093 262 147 244.539 147 223C147 201.461 114.093 184 73.5 184C32.9071 184 0 201.461 0 223C0 244.539 32.9071 262 73.5 262Z" fill="#FD0C0C"/>
</svg>
