<svg viewBox="0 0 850 371" fill="none" xmlns="http://www.w3.org/2000/svg">
<g id="0128225">
<g id="Group 239">
<path id="Rectangle 27 (Stroke)" fill-rule="evenodd" clip-rule="evenodd" d="M168 97V5H5V97H168ZM168 102H5V196.5H168V102ZM173 196.5V102H337V196.5H173ZM168 201.5H5V295H168V201.5ZM173 295V201.5H337V295H173ZM0 300V0H850V300H0ZM342 295H507V201.5H342V295ZM342 196.5H507V102H342V196.5ZM342 97H507V5H342V97ZM337 5H173V97H337V5ZM512 5V97H677.25V5H512ZM682.25 5V97H845V5H682.25ZM845 102H682.25V196.5H845V102ZM845 201.5H682.25V295H845V201.5ZM677.25 295V201.5H512V295H677.25ZM512 196.5H677.25V102H512V196.5Z" fill="#E79720"/>
<g id="Espa&#195;&#177;ol">
<path d="M207.438 61.1699H196.346V70.2402H209.23V73H192.971V47.4062H209.055V50.1836H196.346V58.4102H207.438V61.1699Z" fill="#E79720"/>
<path d="M223.996 67.9551C223.996 67.0762 223.662 66.3965 222.994 65.916C222.338 65.4238 221.184 65.002 219.531 64.6504C217.891 64.2988 216.584 63.877 215.611 63.3848C214.65 62.8926 213.936 62.3066 213.467 61.627C213.01 60.9473 212.781 60.1387 212.781 59.2012C212.781 57.6426 213.438 56.3242 214.75 55.2461C216.074 54.168 217.762 53.6289 219.812 53.6289C221.969 53.6289 223.715 54.1855 225.051 55.2988C226.398 56.4121 227.072 57.8359 227.072 59.5703H223.803C223.803 58.6797 223.422 57.9121 222.66 57.2676C221.91 56.623 220.961 56.3008 219.812 56.3008C218.629 56.3008 217.703 56.5586 217.035 57.0742C216.367 57.5898 216.033 58.2637 216.033 59.0957C216.033 59.8809 216.344 60.4727 216.965 60.8711C217.586 61.2695 218.705 61.6504 220.322 62.0137C221.951 62.377 223.27 62.8105 224.277 63.3145C225.285 63.8184 226.029 64.4277 226.51 65.1426C227.002 65.8457 227.248 66.707 227.248 67.7266C227.248 69.4258 226.568 70.791 225.209 71.8223C223.85 72.8418 222.086 73.3516 219.918 73.3516C218.395 73.3516 217.047 73.082 215.875 72.543C214.703 72.0039 213.783 71.2539 213.115 70.293C212.459 69.3203 212.131 68.2715 212.131 67.1465H215.383C215.441 68.2363 215.875 69.1035 216.684 69.748C217.504 70.3809 218.582 70.6973 219.918 70.6973C221.148 70.6973 222.133 70.4512 222.871 69.959C223.621 69.4551 223.996 68.7871 223.996 67.9551Z" fill="#E79720"/>
<path d="M247.551 63.7012C247.551 66.5957 246.889 68.9277 245.564 70.6973C244.24 72.4668 242.447 73.3516 240.186 73.3516C237.877 73.3516 236.061 72.6191 234.736 71.1543V80.3125H231.484V53.9805H234.455L234.613 56.0898C235.938 54.4492 237.777 53.6289 240.133 53.6289C242.418 53.6289 244.223 54.4902 245.547 56.2129C246.883 57.9355 247.551 60.332 247.551 63.4023V63.7012ZM244.299 63.332C244.299 61.1875 243.842 59.4941 242.928 58.252C242.014 57.0098 240.76 56.3887 239.166 56.3887C237.197 56.3887 235.721 57.2617 234.736 59.0078V68.0957C235.709 69.8301 237.197 70.6973 239.201 70.6973C240.76 70.6973 241.996 70.082 242.91 68.8516C243.836 67.6094 244.299 65.7695 244.299 63.332Z" fill="#E79720"/>
<path d="M263.441 73C263.254 72.625 263.102 71.957 262.984 70.9961C261.473 72.5664 259.668 73.3516 257.57 73.3516C255.695 73.3516 254.154 72.8242 252.947 71.7695C251.752 70.7031 251.154 69.3555 251.154 67.7266C251.154 65.7461 251.904 64.2109 253.404 63.1211C254.916 62.0195 257.037 61.4688 259.768 61.4688H262.932V59.9746C262.932 58.8379 262.592 57.9355 261.912 57.2676C261.232 56.5879 260.23 56.248 258.906 56.248C257.746 56.248 256.773 56.541 255.988 57.127C255.203 57.7129 254.811 58.4219 254.811 59.2539H251.541C251.541 58.3047 251.875 57.3906 252.543 56.5117C253.223 55.6211 254.137 54.918 255.285 54.4023C256.445 53.8867 257.717 53.6289 259.1 53.6289C261.291 53.6289 263.008 54.1797 264.25 55.2812C265.492 56.3711 266.137 57.877 266.184 59.7988V68.5527C266.184 70.2988 266.406 71.6875 266.852 72.7188V73H263.441ZM258.045 70.5215C259.064 70.5215 260.031 70.2578 260.945 69.7305C261.859 69.2031 262.521 68.5176 262.932 67.6738V63.7715H260.383C256.398 63.7715 254.406 64.9375 254.406 67.2695C254.406 68.2891 254.746 69.0859 255.426 69.6602C256.105 70.2344 256.979 70.5215 258.045 70.5215Z" fill="#E79720"/>
<path d="M274.357 53.9805L274.463 56.3711C275.916 54.543 277.814 53.6289 280.158 53.6289C284.178 53.6289 286.205 55.8965 286.24 60.4316V73H282.988V60.4141C282.977 59.043 282.66 58.0293 282.039 57.373C281.43 56.7168 280.475 56.3887 279.174 56.3887C278.119 56.3887 277.193 56.6699 276.396 57.2324C275.6 57.7949 274.979 58.5332 274.533 59.4473V73H271.281V53.9805H274.357ZM285.115 46.5625C285.115 47.8281 284.752 48.8535 284.025 49.6387C283.311 50.4238 282.414 50.8164 281.336 50.8164C280.855 50.8164 280.439 50.7578 280.088 50.6406C279.736 50.5234 279.273 50.2832 278.699 49.9199C278.137 49.5566 277.727 49.3398 277.469 49.2695C277.223 49.1875 276.936 49.1465 276.607 49.1465C276.127 49.1465 275.717 49.334 275.377 49.709C275.037 50.0723 274.867 50.541 274.867 51.1152L272.688 50.9922C272.688 49.7383 273.039 48.7012 273.742 47.8809C274.457 47.0605 275.359 46.6504 276.449 46.6504C276.859 46.6504 277.229 46.709 277.557 46.8262C277.885 46.9434 278.33 47.1719 278.893 47.5117C279.455 47.8516 279.883 48.0742 280.176 48.1797C280.48 48.2852 280.814 48.3379 281.178 48.3379C281.682 48.3379 282.098 48.1387 282.426 47.7402C282.766 47.3418 282.936 46.8789 282.936 46.3516L285.115 46.5625Z" fill="#E79720"/>
<path d="M290.283 63.3145C290.283 61.4512 290.646 59.7754 291.373 58.2871C292.111 56.7988 293.131 55.6504 294.432 54.8418C295.744 54.0332 297.238 53.6289 298.914 53.6289C301.504 53.6289 303.596 54.5254 305.189 56.3184C306.795 58.1113 307.598 60.4961 307.598 63.4727V63.7012C307.598 65.5527 307.24 67.2168 306.525 68.6934C305.822 70.1582 304.809 71.3008 303.484 72.1211C302.172 72.9414 300.66 73.3516 298.949 73.3516C296.371 73.3516 294.279 72.4551 292.674 70.6621C291.08 68.8691 290.283 66.4961 290.283 63.543V63.3145ZM293.553 63.7012C293.553 65.8105 294.039 67.5039 295.012 68.7812C295.996 70.0586 297.309 70.6973 298.949 70.6973C300.602 70.6973 301.914 70.0527 302.887 68.7637C303.859 67.4629 304.346 65.6465 304.346 63.3145C304.346 61.2285 303.848 59.541 302.852 58.252C301.867 56.9512 300.555 56.3008 298.914 56.3008C297.309 56.3008 296.014 56.9395 295.029 58.2168C294.045 59.4941 293.553 61.3223 293.553 63.7012Z" fill="#E79720"/>
<path d="M315.209 73H311.957V46H315.209V73Z" fill="#E79720"/>
</g>
<g id="Frances">
<path d="M378.086 61.6973H367.346V73H363.971V47.4062H379.826V50.1836H367.346V58.9375H378.086V61.6973Z" fill="#E79720"/>
<path d="M392.096 56.8984C391.604 56.8164 391.07 56.7754 390.496 56.7754C388.363 56.7754 386.916 57.6836 386.154 59.5V73H382.902V53.9805H386.066L386.119 56.1777C387.186 54.4785 388.697 53.6289 390.654 53.6289C391.287 53.6289 391.768 53.7109 392.096 53.875V56.8984Z" fill="#E79720"/>
<path d="M406.141 73C405.953 72.625 405.801 71.957 405.684 70.9961C404.172 72.5664 402.367 73.3516 400.27 73.3516C398.395 73.3516 396.854 72.8242 395.646 71.7695C394.451 70.7031 393.854 69.3555 393.854 67.7266C393.854 65.7461 394.604 64.2109 396.104 63.1211C397.615 62.0195 399.736 61.4688 402.467 61.4688H405.631V59.9746C405.631 58.8379 405.291 57.9355 404.611 57.2676C403.932 56.5879 402.93 56.248 401.605 56.248C400.445 56.248 399.473 56.541 398.688 57.127C397.902 57.7129 397.51 58.4219 397.51 59.2539H394.24C394.24 58.3047 394.574 57.3906 395.242 56.5117C395.922 55.6211 396.836 54.918 397.984 54.4023C399.145 53.8867 400.416 53.6289 401.799 53.6289C403.99 53.6289 405.707 54.1797 406.949 55.2812C408.191 56.3711 408.836 57.877 408.883 59.7988V68.5527C408.883 70.2988 409.105 71.6875 409.551 72.7188V73H406.141ZM400.744 70.5215C401.764 70.5215 402.73 70.2578 403.645 69.7305C404.559 69.2031 405.221 68.5176 405.631 67.6738V63.7715H403.082C399.098 63.7715 397.105 64.9375 397.105 67.2695C397.105 68.2891 397.445 69.0859 398.125 69.6602C398.805 70.2344 399.678 70.5215 400.744 70.5215Z" fill="#E79720"/>
<path d="M417.057 53.9805L417.162 56.3711C418.615 54.543 420.514 53.6289 422.857 53.6289C426.877 53.6289 428.904 55.8965 428.939 60.4316V73H425.688V60.4141C425.676 59.043 425.359 58.0293 424.738 57.373C424.129 56.7168 423.174 56.3887 421.873 56.3887C420.818 56.3887 419.893 56.6699 419.096 57.2324C418.299 57.7949 417.678 58.5332 417.232 59.4473V73H413.98V53.9805H417.057Z" fill="#E79720"/>
<path d="M441.473 70.6973C442.633 70.6973 443.646 70.3457 444.514 69.6426C445.381 68.9395 445.861 68.0605 445.955 67.0059H449.031C448.973 68.0957 448.598 69.1328 447.906 70.1172C447.215 71.1016 446.289 71.8867 445.129 72.4727C443.98 73.0586 442.762 73.3516 441.473 73.3516C438.883 73.3516 436.82 72.4902 435.285 70.7676C433.762 69.0332 433 66.666 433 63.666V63.1211C433 61.2695 433.34 59.623 434.02 58.1816C434.699 56.7402 435.672 55.6211 436.938 54.8242C438.215 54.0273 439.721 53.6289 441.455 53.6289C443.588 53.6289 445.357 54.2676 446.764 55.5449C448.182 56.8223 448.938 58.4805 449.031 60.5195H445.955C445.861 59.2891 445.393 58.2812 444.549 57.4961C443.717 56.6992 442.686 56.3008 441.455 56.3008C439.803 56.3008 438.52 56.8984 437.605 58.0938C436.703 59.2773 436.252 60.9941 436.252 63.2441V63.8594C436.252 66.0508 436.703 67.7383 437.605 68.9219C438.508 70.1055 439.797 70.6973 441.473 70.6973Z" fill="#E79720"/>
<path d="M460.58 73.3516C458.002 73.3516 455.904 72.5078 454.287 70.8203C452.67 69.1211 451.861 66.8535 451.861 64.0176V63.4199C451.861 61.5332 452.219 59.8516 452.934 58.375C453.66 56.8867 454.668 55.7266 455.957 54.8945C457.258 54.0508 458.664 53.6289 460.176 53.6289C462.648 53.6289 464.57 54.4434 465.941 56.0723C467.312 57.7012 467.998 60.0332 467.998 63.0684V64.4219H455.113C455.16 66.2969 455.705 67.8145 456.748 68.9746C457.803 70.123 459.139 70.6973 460.756 70.6973C461.904 70.6973 462.877 70.4629 463.674 69.9941C464.471 69.5254 465.168 68.9043 465.766 68.1309L467.752 69.6777C466.158 72.127 463.768 73.3516 460.58 73.3516ZM460.176 56.3008C458.863 56.3008 457.762 56.7812 456.871 57.7422C455.98 58.6914 455.43 60.0273 455.219 61.75H464.746V61.5039C464.652 59.8516 464.207 58.5742 463.41 57.6719C462.613 56.7578 461.535 56.3008 460.176 56.3008Z" fill="#E79720"/>
<path d="M482.852 67.9551C482.852 67.0762 482.518 66.3965 481.85 65.916C481.193 65.4238 480.039 65.002 478.387 64.6504C476.746 64.2988 475.439 63.877 474.467 63.3848C473.506 62.8926 472.791 62.3066 472.322 61.627C471.865 60.9473 471.637 60.1387 471.637 59.2012C471.637 57.6426 472.293 56.3242 473.605 55.2461C474.93 54.168 476.617 53.6289 478.668 53.6289C480.824 53.6289 482.57 54.1855 483.906 55.2988C485.254 56.4121 485.928 57.8359 485.928 59.5703H482.658C482.658 58.6797 482.277 57.9121 481.516 57.2676C480.766 56.623 479.816 56.3008 478.668 56.3008C477.484 56.3008 476.559 56.5586 475.891 57.0742C475.223 57.5898 474.889 58.2637 474.889 59.0957C474.889 59.8809 475.199 60.4727 475.82 60.8711C476.441 61.2695 477.561 61.6504 479.178 62.0137C480.807 62.377 482.125 62.8105 483.133 63.3145C484.141 63.8184 484.885 64.4277 485.365 65.1426C485.857 65.8457 486.104 66.707 486.104 67.7266C486.104 69.4258 485.424 70.791 484.064 71.8223C482.705 72.8418 480.941 73.3516 478.773 73.3516C477.25 73.3516 475.902 73.082 474.73 72.543C473.559 72.0039 472.639 71.2539 471.971 70.293C471.314 69.3203 470.986 68.2715 470.986 67.1465H474.238C474.297 68.2363 474.73 69.1035 475.539 69.748C476.359 70.3809 477.438 70.6973 478.773 70.6973C480.004 70.6973 480.988 70.4512 481.727 69.959C482.477 69.4551 482.852 68.7871 482.852 67.9551Z" fill="#E79720"/>
</g>
<g id="Ingles">
<path d="M552.592 73H549.217V47.4062H552.592V73Z" fill="#E79720"/>
<path d="M561.346 53.9805L561.451 56.3711C562.904 54.543 564.803 53.6289 567.146 53.6289C571.166 53.6289 573.193 55.8965 573.229 60.4316V73H569.977V60.4141C569.965 59.043 569.648 58.0293 569.027 57.373C568.418 56.7168 567.463 56.3887 566.162 56.3887C565.107 56.3887 564.182 56.6699 563.385 57.2324C562.588 57.7949 561.967 58.5332 561.521 59.4473V73H558.27V53.9805H561.346Z" fill="#E79720"/>
<path d="M577.359 63.332C577.359 60.3672 578.045 58.0117 579.416 56.2656C580.787 54.5078 582.604 53.6289 584.865 53.6289C587.186 53.6289 588.996 54.4492 590.297 56.0898L590.455 53.9805H593.426V72.543C593.426 75.0039 592.693 76.9434 591.229 78.3613C589.775 79.7793 587.818 80.4883 585.357 80.4883C583.986 80.4883 582.645 80.1953 581.332 79.6094C580.02 79.0234 579.018 78.2207 578.326 77.2012L580.014 75.25C581.408 76.9727 583.113 77.834 585.129 77.834C586.711 77.834 587.941 77.3887 588.82 76.498C589.711 75.6074 590.156 74.3535 590.156 72.7363V71.1016C588.855 72.6016 587.08 73.3516 584.83 73.3516C582.604 73.3516 580.799 72.4551 579.416 70.6621C578.045 68.8691 577.359 66.4258 577.359 63.332ZM580.629 63.7012C580.629 65.8457 581.068 67.5332 581.947 68.7637C582.826 69.9824 584.057 70.5918 585.639 70.5918C587.689 70.5918 589.195 69.6602 590.156 67.7969V59.1133C589.16 57.2969 587.666 56.3887 585.674 56.3887C584.092 56.3887 582.855 57.0039 581.965 58.2344C581.074 59.4648 580.629 61.2871 580.629 63.7012Z" fill="#E79720"/>
<path d="M601.881 73H598.629V46H601.881V73Z" fill="#E79720"/>
<path d="M614.994 73.3516C612.416 73.3516 610.318 72.5078 608.701 70.8203C607.084 69.1211 606.275 66.8535 606.275 64.0176V63.4199C606.275 61.5332 606.633 59.8516 607.348 58.375C608.074 56.8867 609.082 55.7266 610.371 54.8945C611.672 54.0508 613.078 53.6289 614.59 53.6289C617.062 53.6289 618.984 54.4434 620.355 56.0723C621.727 57.7012 622.412 60.0332 622.412 63.0684V64.4219H609.527C609.574 66.2969 610.119 67.8145 611.162 68.9746C612.217 70.123 613.553 70.6973 615.17 70.6973C616.318 70.6973 617.291 70.4629 618.088 69.9941C618.885 69.5254 619.582 68.9043 620.18 68.1309L622.166 69.6777C620.572 72.127 618.182 73.3516 614.994 73.3516ZM614.59 56.3008C613.277 56.3008 612.176 56.7812 611.285 57.7422C610.395 58.6914 609.844 60.0273 609.633 61.75H619.16V61.5039C619.066 59.8516 618.621 58.5742 617.824 57.6719C617.027 56.7578 615.949 56.3008 614.59 56.3008Z" fill="#E79720"/>
<path d="M637.266 67.9551C637.266 67.0762 636.932 66.3965 636.264 65.916C635.607 65.4238 634.453 65.002 632.801 64.6504C631.16 64.2988 629.854 63.877 628.881 63.3848C627.92 62.8926 627.205 62.3066 626.736 61.627C626.279 60.9473 626.051 60.1387 626.051 59.2012C626.051 57.6426 626.707 56.3242 628.02 55.2461C629.344 54.168 631.031 53.6289 633.082 53.6289C635.238 53.6289 636.984 54.1855 638.32 55.2988C639.668 56.4121 640.342 57.8359 640.342 59.5703H637.072C637.072 58.6797 636.691 57.9121 635.93 57.2676C635.18 56.623 634.23 56.3008 633.082 56.3008C631.898 56.3008 630.973 56.5586 630.305 57.0742C629.637 57.5898 629.303 58.2637 629.303 59.0957C629.303 59.8809 629.613 60.4727 630.234 60.8711C630.855 61.2695 631.975 61.6504 633.592 62.0137C635.221 62.377 636.539 62.8105 637.547 63.3145C638.555 63.8184 639.299 64.4277 639.779 65.1426C640.271 65.8457 640.518 66.707 640.518 67.7266C640.518 69.4258 639.838 70.791 638.479 71.8223C637.119 72.8418 635.355 73.3516 633.188 73.3516C631.664 73.3516 630.316 73.082 629.145 72.543C627.973 72.0039 627.053 71.2539 626.385 70.293C625.729 69.3203 625.4 68.2715 625.4 67.1465H628.652C628.711 68.2363 629.145 69.1035 629.953 69.748C630.773 70.3809 631.852 70.6973 633.188 70.6973C634.418 70.6973 635.402 70.4512 636.141 69.959C636.891 69.4551 637.266 68.7871 637.266 67.9551Z" fill="#E79720"/>
</g>
<g id="Italiano">
<path d="M712.592 73H709.217V47.4062H712.592V73Z" fill="#E79720"/>
<path d="M722.682 49.375V53.9805H726.232V56.4941H722.682V68.2891C722.682 69.0508 722.84 69.625 723.156 70.0117C723.473 70.3867 724.012 70.5742 724.773 70.5742C725.148 70.5742 725.664 70.5039 726.32 70.3633V73C725.465 73.2344 724.633 73.3516 723.824 73.3516C722.371 73.3516 721.275 72.9121 720.537 72.0332C719.799 71.1543 719.43 69.9062 719.43 68.2891V56.4941H715.967V53.9805H719.43V49.375H722.682Z" fill="#E79720"/>
<path d="M741.789 73C741.602 72.625 741.449 71.957 741.332 70.9961C739.82 72.5664 738.016 73.3516 735.918 73.3516C734.043 73.3516 732.502 72.8242 731.295 71.7695C730.1 70.7031 729.502 69.3555 729.502 67.7266C729.502 65.7461 730.252 64.2109 731.752 63.1211C733.264 62.0195 735.385 61.4688 738.115 61.4688H741.279V59.9746C741.279 58.8379 740.939 57.9355 740.26 57.2676C739.58 56.5879 738.578 56.248 737.254 56.248C736.094 56.248 735.121 56.541 734.336 57.127C733.551 57.7129 733.158 58.4219 733.158 59.2539H729.889C729.889 58.3047 730.223 57.3906 730.891 56.5117C731.57 55.6211 732.484 54.918 733.633 54.4023C734.793 53.8867 736.064 53.6289 737.447 53.6289C739.639 53.6289 741.355 54.1797 742.598 55.2812C743.84 56.3711 744.484 57.877 744.531 59.7988V68.5527C744.531 70.2988 744.754 71.6875 745.199 72.7188V73H741.789ZM736.393 70.5215C737.412 70.5215 738.379 70.2578 739.293 69.7305C740.207 69.2031 740.869 68.5176 741.279 67.6738V63.7715H738.73C734.746 63.7715 732.754 64.9375 732.754 67.2695C732.754 68.2891 733.094 69.0859 733.773 69.6602C734.453 70.2344 735.326 70.5215 736.393 70.5215Z" fill="#E79720"/>
<path d="M753.162 73H749.91V46H753.162V73Z" fill="#E79720"/>
<path d="M761.916 73H758.664V53.9805H761.916V73ZM758.4 48.9355C758.4 48.4082 758.559 47.9629 758.875 47.5996C759.203 47.2363 759.684 47.0547 760.316 47.0547C760.949 47.0547 761.43 47.2363 761.758 47.5996C762.086 47.9629 762.25 48.4082 762.25 48.9355C762.25 49.4629 762.086 49.9023 761.758 50.2539C761.43 50.6055 760.949 50.7812 760.316 50.7812C759.684 50.7812 759.203 50.6055 758.875 50.2539C758.559 49.9023 758.4 49.4629 758.4 48.9355Z" fill="#E79720"/>
<path d="M778.879 73C778.691 72.625 778.539 71.957 778.422 70.9961C776.91 72.5664 775.105 73.3516 773.008 73.3516C771.133 73.3516 769.592 72.8242 768.385 71.7695C767.189 70.7031 766.592 69.3555 766.592 67.7266C766.592 65.7461 767.342 64.2109 768.842 63.1211C770.354 62.0195 772.475 61.4688 775.205 61.4688H778.369V59.9746C778.369 58.8379 778.029 57.9355 777.35 57.2676C776.67 56.5879 775.668 56.248 774.344 56.248C773.184 56.248 772.211 56.541 771.426 57.127C770.641 57.7129 770.248 58.4219 770.248 59.2539H766.979C766.979 58.3047 767.312 57.3906 767.98 56.5117C768.66 55.6211 769.574 54.918 770.723 54.4023C771.883 53.8867 773.154 53.6289 774.537 53.6289C776.729 53.6289 778.445 54.1797 779.688 55.2812C780.93 56.3711 781.574 57.877 781.621 59.7988V68.5527C781.621 70.2988 781.844 71.6875 782.289 72.7188V73H778.879ZM773.482 70.5215C774.502 70.5215 775.469 70.2578 776.383 69.7305C777.297 69.2031 777.959 68.5176 778.369 67.6738V63.7715H775.82C771.836 63.7715 769.844 64.9375 769.844 67.2695C769.844 68.2891 770.184 69.0859 770.863 69.6602C771.543 70.2344 772.416 70.5215 773.482 70.5215Z" fill="#E79720"/>
<path d="M789.795 53.9805L789.9 56.3711C791.354 54.543 793.252 53.6289 795.596 53.6289C799.615 53.6289 801.643 55.8965 801.678 60.4316V73H798.426V60.4141C798.414 59.043 798.098 58.0293 797.477 57.373C796.867 56.7168 795.912 56.3887 794.611 56.3887C793.557 56.3887 792.631 56.6699 791.834 57.2324C791.037 57.7949 790.416 58.5332 789.971 59.4473V73H786.719V53.9805H789.795Z" fill="#E79720"/>
<path d="M805.721 63.3145C805.721 61.4512 806.084 59.7754 806.811 58.2871C807.549 56.7988 808.568 55.6504 809.869 54.8418C811.182 54.0332 812.676 53.6289 814.352 53.6289C816.941 53.6289 819.033 54.5254 820.627 56.3184C822.232 58.1113 823.035 60.4961 823.035 63.4727V63.7012C823.035 65.5527 822.678 67.2168 821.963 68.6934C821.26 70.1582 820.246 71.3008 818.922 72.1211C817.609 72.9414 816.098 73.3516 814.387 73.3516C811.809 73.3516 809.717 72.4551 808.111 70.6621C806.518 68.8691 805.721 66.4961 805.721 63.543V63.3145ZM808.99 63.7012C808.99 65.8105 809.477 67.5039 810.449 68.7812C811.434 70.0586 812.746 70.6973 814.387 70.6973C816.039 70.6973 817.352 70.0527 818.324 68.7637C819.297 67.4629 819.783 65.6465 819.783 63.3145C819.783 61.2285 819.285 59.541 818.289 58.252C817.305 56.9512 815.992 56.3008 814.352 56.3008C812.746 56.3008 811.451 56.9395 810.467 58.2168C809.482 59.4941 808.99 61.3223 808.99 63.7012Z" fill="#E79720"/>
</g>
<g id="Cigarro">
<path d="M57.7969 165.879C57.4805 168.586 56.4785 170.678 54.791 172.154C53.1152 173.619 50.8828 174.352 48.0938 174.352C45.0703 174.352 42.6445 173.268 40.8164 171.1C39 168.932 38.0918 166.031 38.0918 162.398V159.938C38.0918 157.559 38.5137 155.467 39.3574 153.662C40.2129 151.857 41.4199 150.475 42.9785 149.514C44.5371 148.541 46.3418 148.055 48.3926 148.055C51.1113 148.055 53.291 148.816 54.9316 150.34C56.5723 151.852 57.5273 153.949 57.7969 156.633H54.4043C54.1113 154.594 53.4727 153.117 52.4883 152.203C51.5156 151.289 50.1504 150.832 48.3926 150.832C46.2363 150.832 44.543 151.629 43.3125 153.223C42.0938 154.816 41.4844 157.084 41.4844 160.025V162.504C41.4844 165.281 42.0645 167.49 43.2246 169.131C44.3848 170.771 46.0078 171.592 48.0938 171.592C49.9688 171.592 51.4043 171.17 52.4004 170.326C53.4082 169.471 54.0762 167.988 54.4043 165.879H57.7969Z" fill="#E79720"/>
<path d="M65.4434 174H62.1914V154.98H65.4434V174ZM61.9277 149.936C61.9277 149.408 62.0859 148.963 62.4023 148.6C62.7305 148.236 63.2109 148.055 63.8438 148.055C64.4766 148.055 64.957 148.236 65.2852 148.6C65.6133 148.963 65.7773 149.408 65.7773 149.936C65.7773 150.463 65.6133 150.902 65.2852 151.254C64.957 151.605 64.4766 151.781 63.8438 151.781C63.2109 151.781 62.7305 151.605 62.4023 151.254C62.0859 150.902 61.9277 150.463 61.9277 149.936Z" fill="#E79720"/>
<path d="M69.8906 164.332C69.8906 161.367 70.5762 159.012 71.9473 157.266C73.3184 155.508 75.1348 154.629 77.3965 154.629C79.7168 154.629 81.5273 155.449 82.8281 157.09L82.9863 154.98H85.957V173.543C85.957 176.004 85.2246 177.943 83.7598 179.361C82.3066 180.779 80.3496 181.488 77.8887 181.488C76.5176 181.488 75.1758 181.195 73.8633 180.609C72.5508 180.023 71.5488 179.221 70.8574 178.201L72.5449 176.25C73.9395 177.973 75.6445 178.834 77.6602 178.834C79.2422 178.834 80.4727 178.389 81.3516 177.498C82.2422 176.607 82.6875 175.354 82.6875 173.736V172.102C81.3867 173.602 79.6113 174.352 77.3613 174.352C75.1348 174.352 73.3301 173.455 71.9473 171.662C70.5762 169.869 69.8906 167.426 69.8906 164.332ZM73.1602 164.701C73.1602 166.846 73.5996 168.533 74.4785 169.764C75.3574 170.982 76.5879 171.592 78.1699 171.592C80.2207 171.592 81.7266 170.66 82.6875 168.797V160.113C81.6914 158.297 80.1973 157.389 78.2051 157.389C76.623 157.389 75.3867 158.004 74.4961 159.234C73.6055 160.465 73.1602 162.287 73.1602 164.701Z" fill="#E79720"/>
<path d="M102.621 174C102.434 173.625 102.281 172.957 102.164 171.996C100.652 173.566 98.8477 174.352 96.75 174.352C94.875 174.352 93.334 173.824 92.127 172.77C90.9316 171.703 90.334 170.355 90.334 168.727C90.334 166.746 91.084 165.211 92.584 164.121C94.0957 163.02 96.2168 162.469 98.9473 162.469H102.111V160.975C102.111 159.838 101.771 158.936 101.092 158.268C100.412 157.588 99.4102 157.248 98.0859 157.248C96.9258 157.248 95.9531 157.541 95.168 158.127C94.3828 158.713 93.9902 159.422 93.9902 160.254H90.7207C90.7207 159.305 91.0547 158.391 91.7227 157.512C92.4023 156.621 93.3164 155.918 94.4648 155.402C95.625 154.887 96.8965 154.629 98.2793 154.629C100.471 154.629 102.188 155.18 103.43 156.281C104.672 157.371 105.316 158.877 105.363 160.799V169.553C105.363 171.299 105.586 172.688 106.031 173.719V174H102.621ZM97.2246 171.521C98.2441 171.521 99.2109 171.258 100.125 170.73C101.039 170.203 101.701 169.518 102.111 168.674V164.771H99.5625C95.5781 164.771 93.5859 165.938 93.5859 168.27C93.5859 169.289 93.9258 170.086 94.6055 170.66C95.2852 171.234 96.1582 171.521 97.2246 171.521Z" fill="#E79720"/>
<path d="M119.654 157.898C119.162 157.816 118.629 157.775 118.055 157.775C115.922 157.775 114.475 158.684 113.713 160.5V174H110.461V154.98H113.625L113.678 157.178C114.744 155.479 116.256 154.629 118.213 154.629C118.846 154.629 119.326 154.711 119.654 154.875V157.898Z" fill="#E79720"/>
<path d="M131.854 157.898C131.361 157.816 130.828 157.775 130.254 157.775C128.121 157.775 126.674 158.684 125.912 160.5V174H122.66V154.98H125.824L125.877 157.178C126.943 155.479 128.455 154.629 130.412 154.629C131.045 154.629 131.525 154.711 131.854 154.875V157.898Z" fill="#E79720"/>
<path d="M133.646 164.314C133.646 162.451 134.01 160.775 134.736 159.287C135.475 157.799 136.494 156.65 137.795 155.842C139.107 155.033 140.602 154.629 142.277 154.629C144.867 154.629 146.959 155.525 148.553 157.318C150.158 159.111 150.961 161.496 150.961 164.473V164.701C150.961 166.553 150.604 168.217 149.889 169.693C149.186 171.158 148.172 172.301 146.848 173.121C145.535 173.941 144.023 174.352 142.312 174.352C139.734 174.352 137.643 173.455 136.037 171.662C134.443 169.869 133.646 167.496 133.646 164.543V164.314ZM136.916 164.701C136.916 166.811 137.402 168.504 138.375 169.781C139.359 171.059 140.672 171.697 142.312 171.697C143.965 171.697 145.277 171.053 146.25 169.764C147.223 168.463 147.709 166.646 147.709 164.314C147.709 162.229 147.211 160.541 146.215 159.252C145.23 157.951 143.918 157.301 142.277 157.301C140.672 157.301 139.377 157.939 138.393 159.217C137.408 160.494 136.916 162.322 136.916 164.701Z" fill="#E79720"/>
</g>
<g id="Color">
<path d="M73.7969 256.879C73.4805 259.586 72.4785 261.678 70.791 263.154C69.1152 264.619 66.8828 265.352 64.0938 265.352C61.0703 265.352 58.6445 264.268 56.8164 262.1C55 259.932 54.0918 257.031 54.0918 253.398V250.938C54.0918 248.559 54.5137 246.467 55.3574 244.662C56.2129 242.857 57.4199 241.475 58.9785 240.514C60.5371 239.541 62.3418 239.055 64.3926 239.055C67.1113 239.055 69.291 239.816 70.9316 241.34C72.5723 242.852 73.5273 244.949 73.7969 247.633H70.4043C70.1113 245.594 69.4727 244.117 68.4883 243.203C67.5156 242.289 66.1504 241.832 64.3926 241.832C62.2363 241.832 60.543 242.629 59.3125 244.223C58.0938 245.816 57.4844 248.084 57.4844 251.025V253.504C57.4844 256.281 58.0645 258.49 59.2246 260.131C60.3848 261.771 62.0078 262.592 64.0938 262.592C65.9688 262.592 67.4043 262.17 68.4004 261.326C69.4082 260.471 70.0762 258.988 70.4043 256.879H73.7969Z" fill="#E79720"/>
<path d="M77.0488 255.314C77.0488 253.451 77.4121 251.775 78.1387 250.287C78.877 248.799 79.8965 247.65 81.1973 246.842C82.5098 246.033 84.0039 245.629 85.6797 245.629C88.2695 245.629 90.3613 246.525 91.9551 248.318C93.5605 250.111 94.3633 252.496 94.3633 255.473V255.701C94.3633 257.553 94.0059 259.217 93.291 260.693C92.5879 262.158 91.5742 263.301 90.25 264.121C88.9375 264.941 87.4258 265.352 85.7148 265.352C83.1367 265.352 81.0449 264.455 79.4395 262.662C77.8457 260.869 77.0488 258.496 77.0488 255.543V255.314ZM80.3184 255.701C80.3184 257.811 80.8047 259.504 81.7773 260.781C82.7617 262.059 84.0742 262.697 85.7148 262.697C87.3672 262.697 88.6797 262.053 89.6523 260.764C90.625 259.463 91.1113 257.646 91.1113 255.314C91.1113 253.229 90.6133 251.541 89.6172 250.252C88.6328 248.951 87.3203 248.301 85.6797 248.301C84.0742 248.301 82.7793 248.939 81.7949 250.217C80.8105 251.494 80.3184 253.322 80.3184 255.701Z" fill="#E79720"/>
<path d="M101.975 265H98.7227V238H101.975V265Z" fill="#E79720"/>
<path d="M106.334 255.314C106.334 253.451 106.697 251.775 107.424 250.287C108.162 248.799 109.182 247.65 110.482 246.842C111.795 246.033 113.289 245.629 114.965 245.629C117.555 245.629 119.646 246.525 121.24 248.318C122.846 250.111 123.648 252.496 123.648 255.473V255.701C123.648 257.553 123.291 259.217 122.576 260.693C121.873 262.158 120.859 263.301 119.535 264.121C118.223 264.941 116.711 265.352 115 265.352C112.422 265.352 110.33 264.455 108.725 262.662C107.131 260.869 106.334 258.496 106.334 255.543V255.314ZM109.604 255.701C109.604 257.811 110.09 259.504 111.062 260.781C112.047 262.059 113.359 262.697 115 262.697C116.652 262.697 117.965 262.053 118.938 260.764C119.91 259.463 120.396 257.646 120.396 255.314C120.396 253.229 119.898 251.541 118.902 250.252C117.918 248.951 116.605 248.301 114.965 248.301C113.359 248.301 112.064 248.939 111.08 250.217C110.096 251.494 109.604 253.322 109.604 255.701Z" fill="#E79720"/>
<path d="M136.92 248.898C136.428 248.816 135.895 248.775 135.32 248.775C133.188 248.775 131.74 249.684 130.979 251.5V265H127.727V245.98H130.891L130.943 248.178C132.01 246.479 133.521 245.629 135.479 245.629C136.111 245.629 136.592 245.711 136.92 245.875V248.898Z" fill="#E79720"/>
</g>
</g>
<g id="Winston">
<path d="M198.49 165.932L198.982 169.307L199.703 166.266L204.766 148.406H207.613L212.553 166.266L213.256 169.359L213.801 165.914L217.773 148.406H221.166L214.961 174H211.885L206.611 155.35L206.207 153.398L205.803 155.35L200.336 174H197.26L191.072 148.406H194.447L198.49 165.932Z" fill="white"/>
<path d="M227.951 174H224.699V154.98H227.951V174ZM224.436 149.936C224.436 149.408 224.594 148.963 224.91 148.6C225.238 148.236 225.719 148.055 226.352 148.055C226.984 148.055 227.465 148.236 227.793 148.6C228.121 148.963 228.285 149.408 228.285 149.936C228.285 150.463 228.121 150.902 227.793 151.254C227.465 151.605 226.984 151.781 226.352 151.781C225.719 151.781 225.238 151.605 224.91 151.254C224.594 150.902 224.436 150.463 224.436 149.936Z" fill="white"/>
<path d="M236.248 154.98L236.354 157.371C237.807 155.543 239.705 154.629 242.049 154.629C246.068 154.629 248.096 156.896 248.131 161.432V174H244.879V161.414C244.867 160.043 244.551 159.029 243.93 158.373C243.32 157.717 242.365 157.389 241.064 157.389C240.01 157.389 239.084 157.67 238.287 158.232C237.49 158.795 236.869 159.533 236.424 160.447V174H233.172V154.98H236.248Z" fill="white"/>
<path d="M264.109 168.955C264.109 168.076 263.775 167.396 263.107 166.916C262.451 166.424 261.297 166.002 259.645 165.65C258.004 165.299 256.697 164.877 255.725 164.385C254.764 163.893 254.049 163.307 253.58 162.627C253.123 161.947 252.895 161.139 252.895 160.201C252.895 158.643 253.551 157.324 254.863 156.246C256.188 155.168 257.875 154.629 259.926 154.629C262.082 154.629 263.828 155.186 265.164 156.299C266.512 157.412 267.186 158.836 267.186 160.57H263.916C263.916 159.68 263.535 158.912 262.773 158.268C262.023 157.623 261.074 157.301 259.926 157.301C258.742 157.301 257.816 157.559 257.148 158.074C256.48 158.59 256.146 159.264 256.146 160.096C256.146 160.881 256.457 161.473 257.078 161.871C257.699 162.27 258.818 162.65 260.436 163.014C262.064 163.377 263.383 163.811 264.391 164.314C265.398 164.818 266.143 165.428 266.623 166.143C267.115 166.846 267.361 167.707 267.361 168.727C267.361 170.426 266.682 171.791 265.322 172.822C263.963 173.842 262.199 174.352 260.031 174.352C258.508 174.352 257.16 174.082 255.988 173.543C254.816 173.004 253.896 172.254 253.229 171.293C252.572 170.32 252.244 169.271 252.244 168.146H255.496C255.555 169.236 255.988 170.104 256.797 170.748C257.617 171.381 258.695 171.697 260.031 171.697C261.262 171.697 262.246 171.451 262.984 170.959C263.734 170.455 264.109 169.787 264.109 168.955Z" fill="white"/>
<path d="M276.01 150.375V154.98H279.561V157.494H276.01V169.289C276.01 170.051 276.168 170.625 276.484 171.012C276.801 171.387 277.34 171.574 278.102 171.574C278.477 171.574 278.992 171.504 279.648 171.363V174C278.793 174.234 277.961 174.352 277.152 174.352C275.699 174.352 274.604 173.912 273.865 173.033C273.127 172.154 272.758 170.906 272.758 169.289V157.494H269.295V154.98H272.758V150.375H276.01Z" fill="white"/>
<path d="M282.162 164.314C282.162 162.451 282.525 160.775 283.252 159.287C283.99 157.799 285.01 156.65 286.311 155.842C287.623 155.033 289.117 154.629 290.793 154.629C293.383 154.629 295.475 155.525 297.068 157.318C298.674 159.111 299.477 161.496 299.477 164.473V164.701C299.477 166.553 299.119 168.217 298.404 169.693C297.701 171.158 296.688 172.301 295.363 173.121C294.051 173.941 292.539 174.352 290.828 174.352C288.25 174.352 286.158 173.455 284.553 171.662C282.959 169.869 282.162 167.496 282.162 164.543V164.314ZM285.432 164.701C285.432 166.811 285.918 168.504 286.891 169.781C287.875 171.059 289.188 171.697 290.828 171.697C292.48 171.697 293.793 171.053 294.766 169.764C295.738 168.463 296.225 166.646 296.225 164.314C296.225 162.229 295.727 160.541 294.73 159.252C293.746 157.951 292.434 157.301 290.793 157.301C289.188 157.301 287.893 157.939 286.908 159.217C285.924 160.494 285.432 162.322 285.432 164.701Z" fill="white"/>
<path d="M306.631 154.98L306.736 157.371C308.189 155.543 310.088 154.629 312.432 154.629C316.451 154.629 318.479 156.896 318.514 161.432V174H315.262V161.414C315.25 160.043 314.934 159.029 314.312 158.373C313.703 157.717 312.748 157.389 311.447 157.389C310.393 157.389 309.467 157.67 308.67 158.232C307.873 158.795 307.252 159.533 306.807 160.447V174H303.555V154.98H306.631Z" fill="white"/>
</g>
<g id="Amarilla">
<path d="M545.104 258.32H534.381L531.973 265H528.492L538.266 239.406H541.219L551.01 265H547.547L545.104 258.32ZM535.4 255.543H544.102L539.742 243.572L535.4 255.543Z" fill="white"/>
<path d="M557.004 245.98L557.092 248.09C558.486 246.449 560.367 245.629 562.734 245.629C565.395 245.629 567.205 246.648 568.166 248.688C568.799 247.773 569.619 247.035 570.627 246.473C571.646 245.91 572.848 245.629 574.23 245.629C578.402 245.629 580.523 247.838 580.594 252.256V265H577.342V252.449C577.342 251.09 577.031 250.076 576.41 249.408C575.789 248.729 574.746 248.389 573.281 248.389C572.074 248.389 571.072 248.752 570.275 249.479C569.479 250.193 569.016 251.16 568.887 252.379V265H565.617V252.537C565.617 249.771 564.264 248.389 561.557 248.389C559.424 248.389 557.965 249.297 557.18 251.113V265H553.928V245.98H557.004Z" fill="white"/>
<path d="M597.258 265C597.07 264.625 596.918 263.957 596.801 262.996C595.289 264.566 593.484 265.352 591.387 265.352C589.512 265.352 587.971 264.824 586.764 263.77C585.568 262.703 584.971 261.355 584.971 259.727C584.971 257.746 585.721 256.211 587.221 255.121C588.732 254.02 590.854 253.469 593.584 253.469H596.748V251.975C596.748 250.838 596.408 249.936 595.729 249.268C595.049 248.588 594.047 248.248 592.723 248.248C591.562 248.248 590.59 248.541 589.805 249.127C589.02 249.713 588.627 250.422 588.627 251.254H585.357C585.357 250.305 585.691 249.391 586.359 248.512C587.039 247.621 587.953 246.918 589.102 246.402C590.262 245.887 591.533 245.629 592.916 245.629C595.107 245.629 596.824 246.18 598.066 247.281C599.309 248.371 599.953 249.877 600 251.799V260.553C600 262.299 600.223 263.688 600.668 264.719V265H597.258ZM591.861 262.521C592.881 262.521 593.848 262.258 594.762 261.73C595.676 261.203 596.338 260.518 596.748 259.674V255.771H594.199C590.215 255.771 588.223 256.938 588.223 259.27C588.223 260.289 588.562 261.086 589.242 261.66C589.922 262.234 590.795 262.521 591.861 262.521Z" fill="white"/>
<path d="M614.291 248.898C613.799 248.816 613.266 248.775 612.691 248.775C610.559 248.775 609.111 249.684 608.35 251.5V265H605.098V245.98H608.262L608.314 248.178C609.381 246.479 610.893 245.629 612.85 245.629C613.482 245.629 613.963 245.711 614.291 245.875V248.898Z" fill="white"/>
<path d="M620.83 265H617.578V245.98H620.83V265ZM617.314 240.936C617.314 240.408 617.473 239.963 617.789 239.6C618.117 239.236 618.598 239.055 619.23 239.055C619.863 239.055 620.344 239.236 620.672 239.6C621 239.963 621.164 240.408 621.164 240.936C621.164 241.463 621 241.902 620.672 242.254C620.344 242.605 619.863 242.781 619.23 242.781C618.598 242.781 618.117 242.605 617.789 242.254C617.473 241.902 617.314 241.463 617.314 240.936Z" fill="white"/>
<path d="M629.584 265H626.332V238H629.584V265Z" fill="white"/>
<path d="M638.338 265H635.086V238H638.338V265Z" fill="white"/>
<path d="M655.301 265C655.113 264.625 654.961 263.957 654.844 262.996C653.332 264.566 651.527 265.352 649.43 265.352C647.555 265.352 646.014 264.824 644.807 263.77C643.611 262.703 643.014 261.355 643.014 259.727C643.014 257.746 643.764 256.211 645.264 255.121C646.775 254.02 648.896 253.469 651.627 253.469H654.791V251.975C654.791 250.838 654.451 249.936 653.771 249.268C653.092 248.588 652.09 248.248 650.766 248.248C649.605 248.248 648.633 248.541 647.848 249.127C647.062 249.713 646.67 250.422 646.67 251.254H643.4C643.4 250.305 643.734 249.391 644.402 248.512C645.082 247.621 645.996 246.918 647.145 246.402C648.305 245.887 649.576 245.629 650.959 245.629C653.15 245.629 654.867 246.18 656.109 247.281C657.352 248.371 657.996 249.877 658.043 251.799V260.553C658.043 262.299 658.266 263.688 658.711 264.719V265H655.301ZM649.904 262.521C650.924 262.521 651.891 262.258 652.805 261.73C653.719 261.203 654.381 260.518 654.791 259.674V255.771H652.242C648.258 255.771 646.266 256.938 646.266 259.27C646.266 260.289 646.605 261.086 647.285 261.66C647.965 262.234 648.838 262.521 649.904 262.521Z" fill="white"/>
</g>
<g id="~Roja">
<path d="M399.201 349.342C399.201 351.193 398.65 352.758 397.549 354.035C396.459 355.301 395.111 355.934 393.506 355.934C392.662 355.934 391.865 355.781 391.115 355.477C390.365 355.16 389.492 354.568 388.496 353.701C387.512 352.834 386.803 352.295 386.369 352.084C385.936 351.873 385.473 351.768 384.98 351.768C384.066 351.768 383.363 352.084 382.871 352.717C382.379 353.338 382.133 354.199 382.133 355.301L379.303 355.336C379.303 353.461 379.842 351.92 380.92 350.713C381.998 349.506 383.352 348.902 384.98 348.902C385.871 348.902 386.727 349.09 387.547 349.465C388.367 349.84 389.293 350.502 390.324 351.451C391.355 352.389 392.246 352.916 392.996 353.033L393.506 353.068C394.396 353.068 395.117 352.729 395.668 352.049C396.23 351.369 396.512 350.473 396.512 349.359L399.201 349.342Z" fill="white"/>
<path d="M413.861 352.646H407.85V363H404.457V337.406H412.93C415.812 337.406 418.027 338.062 419.574 339.375C421.133 340.688 421.912 342.598 421.912 345.105C421.912 346.699 421.479 348.088 420.611 349.271C419.756 350.455 418.561 351.34 417.025 351.926L423.037 362.789V363H419.416L413.861 352.646ZM407.85 349.887H413.035C414.711 349.887 416.041 349.453 417.025 348.586C418.021 347.719 418.52 346.559 418.52 345.105C418.52 343.523 418.045 342.311 417.096 341.467C416.158 340.623 414.799 340.195 413.018 340.184H407.85V349.887Z" fill="white"/>
<path d="M425.287 353.314C425.287 351.451 425.65 349.775 426.377 348.287C427.115 346.799 428.135 345.65 429.436 344.842C430.748 344.033 432.242 343.629 433.918 343.629C436.508 343.629 438.6 344.525 440.193 346.318C441.799 348.111 442.602 350.496 442.602 353.473V353.701C442.602 355.553 442.244 357.217 441.529 358.693C440.826 360.158 439.812 361.301 438.488 362.121C437.176 362.941 435.664 363.352 433.953 363.352C431.375 363.352 429.283 362.455 427.678 360.662C426.084 358.869 425.287 356.496 425.287 353.543V353.314ZM428.557 353.701C428.557 355.811 429.043 357.504 430.016 358.781C431 360.059 432.312 360.697 433.953 360.697C435.605 360.697 436.918 360.053 437.891 358.764C438.863 357.463 439.35 355.646 439.35 353.314C439.35 351.229 438.852 349.541 437.855 348.252C436.871 346.951 435.559 346.301 433.918 346.301C432.312 346.301 431.018 346.939 430.033 348.217C429.049 349.494 428.557 351.322 428.557 353.701Z" fill="white"/>
<path d="M450.037 343.98V365.197C450.037 368.854 448.379 370.682 445.062 370.682C444.348 370.682 443.686 370.576 443.076 370.365V367.764C443.451 367.857 443.943 367.904 444.553 367.904C445.279 367.904 445.83 367.705 446.205 367.307C446.592 366.92 446.785 366.24 446.785 365.268V343.98H450.037ZM446.451 338.936C446.451 338.42 446.609 337.98 446.926 337.617C447.254 337.242 447.729 337.055 448.35 337.055C448.982 337.055 449.463 337.236 449.791 337.6C450.119 337.963 450.283 338.408 450.283 338.936C450.283 339.463 450.119 339.902 449.791 340.254C449.463 340.605 448.982 340.781 448.35 340.781C447.717 340.781 447.242 340.605 446.926 340.254C446.609 339.902 446.451 339.463 446.451 338.936Z" fill="white"/>
<path d="M467.035 363C466.848 362.625 466.695 361.957 466.578 360.996C465.066 362.566 463.262 363.352 461.164 363.352C459.289 363.352 457.748 362.824 456.541 361.77C455.346 360.703 454.748 359.355 454.748 357.727C454.748 355.746 455.498 354.211 456.998 353.121C458.51 352.02 460.631 351.469 463.361 351.469H466.525V349.975C466.525 348.838 466.186 347.936 465.506 347.268C464.826 346.588 463.824 346.248 462.5 346.248C461.34 346.248 460.367 346.541 459.582 347.127C458.797 347.713 458.404 348.422 458.404 349.254H455.135C455.135 348.305 455.469 347.391 456.137 346.512C456.816 345.621 457.73 344.918 458.879 344.402C460.039 343.887 461.311 343.629 462.693 343.629C464.885 343.629 466.602 344.18 467.844 345.281C469.086 346.371 469.73 347.877 469.777 349.799V358.553C469.777 360.299 470 361.688 470.445 362.719V363H467.035ZM461.639 360.521C462.658 360.521 463.625 360.258 464.539 359.73C465.453 359.203 466.115 358.518 466.525 357.674V353.771H463.977C459.992 353.771 458 354.938 458 357.27C458 358.289 458.34 359.086 459.02 359.66C459.699 360.234 460.572 360.521 461.639 360.521Z" fill="white"/>
</g>
<g id="Norton">
<path d="M721.641 165H718.248L705.363 145.277V165H701.971V139.406H705.363L718.283 159.217V139.406H721.641V165Z" fill="white"/>
<path d="M726.264 155.314C726.264 153.451 726.627 151.775 727.354 150.287C728.092 148.799 729.111 147.65 730.412 146.842C731.725 146.033 733.219 145.629 734.895 145.629C737.484 145.629 739.576 146.525 741.17 148.318C742.775 150.111 743.578 152.496 743.578 155.473V155.701C743.578 157.553 743.221 159.217 742.506 160.693C741.803 162.158 740.789 163.301 739.465 164.121C738.152 164.941 736.641 165.352 734.93 165.352C732.352 165.352 730.26 164.455 728.654 162.662C727.061 160.869 726.264 158.496 726.264 155.543V155.314ZM729.533 155.701C729.533 157.811 730.02 159.504 730.992 160.781C731.977 162.059 733.289 162.697 734.93 162.697C736.582 162.697 737.895 162.053 738.867 160.764C739.84 159.463 740.326 157.646 740.326 155.314C740.326 153.229 739.828 151.541 738.832 150.252C737.848 148.951 736.535 148.301 734.895 148.301C733.289 148.301 731.994 148.939 731.01 150.217C730.025 151.494 729.533 153.322 729.533 155.701Z" fill="white"/>
<path d="M756.85 148.898C756.357 148.816 755.824 148.775 755.25 148.775C753.117 148.775 751.67 149.684 750.908 151.5V165H747.656V145.98H750.82L750.873 148.178C751.939 146.479 753.451 145.629 755.408 145.629C756.041 145.629 756.521 145.711 756.85 145.875V148.898Z" fill="white"/>
<path d="M765.146 141.375V145.98H768.697V148.494H765.146V160.289C765.146 161.051 765.305 161.625 765.621 162.012C765.938 162.387 766.477 162.574 767.238 162.574C767.613 162.574 768.129 162.504 768.785 162.363V165C767.93 165.234 767.098 165.352 766.289 165.352C764.836 165.352 763.74 164.912 763.002 164.033C762.264 163.154 761.895 161.906 761.895 160.289V148.494H758.432V145.98H761.895V141.375H765.146Z" fill="white"/>
<path d="M771.299 155.314C771.299 153.451 771.662 151.775 772.389 150.287C773.127 148.799 774.146 147.65 775.447 146.842C776.76 146.033 778.254 145.629 779.93 145.629C782.52 145.629 784.611 146.525 786.205 148.318C787.811 150.111 788.613 152.496 788.613 155.473V155.701C788.613 157.553 788.256 159.217 787.541 160.693C786.838 162.158 785.824 163.301 784.5 164.121C783.188 164.941 781.676 165.352 779.965 165.352C777.387 165.352 775.295 164.455 773.689 162.662C772.096 160.869 771.299 158.496 771.299 155.543V155.314ZM774.568 155.701C774.568 157.811 775.055 159.504 776.027 160.781C777.012 162.059 778.324 162.697 779.965 162.697C781.617 162.697 782.93 162.053 783.902 160.764C784.875 159.463 785.361 157.646 785.361 155.314C785.361 153.229 784.863 151.541 783.867 150.252C782.883 148.951 781.57 148.301 779.93 148.301C778.324 148.301 777.029 148.939 776.045 150.217C775.061 151.494 774.568 153.322 774.568 155.701Z" fill="white"/>
<path d="M795.768 145.98L795.873 148.371C797.326 146.543 799.225 145.629 801.568 145.629C805.588 145.629 807.615 147.896 807.65 152.432V165H804.398V152.414C804.387 151.043 804.07 150.029 803.449 149.373C802.84 148.717 801.885 148.389 800.584 148.389C799.529 148.389 798.604 148.67 797.807 149.232C797.01 149.795 796.389 150.533 795.943 151.447V165H792.691V145.98H795.768Z" fill="white"/>
</g>
<g id="~Azul">
<path d="M740.201 337.342C740.201 339.193 739.65 340.758 738.549 342.035C737.459 343.301 736.111 343.934 734.506 343.934C733.662 343.934 732.865 343.781 732.115 343.477C731.365 343.16 730.492 342.568 729.496 341.701C728.512 340.834 727.803 340.295 727.369 340.084C726.936 339.873 726.473 339.768 725.98 339.768C725.066 339.768 724.363 340.084 723.871 340.717C723.379 341.338 723.133 342.199 723.133 343.301L720.303 343.336C720.303 341.461 720.842 339.92 721.92 338.713C722.998 337.506 724.352 336.902 725.98 336.902C726.871 336.902 727.727 337.09 728.547 337.465C729.367 337.84 730.293 338.502 731.324 339.451C732.355 340.389 733.246 340.916 733.996 341.033L734.506 341.068C735.396 341.068 736.117 340.729 736.668 340.049C737.23 339.369 737.512 338.473 737.512 337.359L740.201 337.342Z" fill="white"/>
<path d="M759.607 344.32H748.885L746.477 351H742.996L752.77 325.406H755.723L765.514 351H762.051L759.607 344.32ZM749.904 341.543H758.605L754.246 329.572L749.904 341.543Z" fill="white"/>
<path d="M771.719 348.346H782.846V351H767.746V348.609L778.24 334.67H767.904V331.98H782.318V334.283L771.719 348.346Z" fill="white"/>
<path d="M798.262 349.119C796.996 350.607 795.139 351.352 792.689 351.352C790.662 351.352 789.115 350.766 788.049 349.594C786.994 348.41 786.461 346.664 786.449 344.355V331.98H789.701V344.268C789.701 347.15 790.873 348.592 793.217 348.592C795.701 348.592 797.354 347.666 798.174 345.814V331.98H801.426V351H798.332L798.262 349.119Z" fill="white"/>
<path d="M809.916 351H806.664V324H809.916V351Z" fill="white"/>
</g>
<g id="Azul">
<path d="M235.104 258.32H224.381L221.973 265H218.492L228.266 239.406H231.219L241.01 265H237.547L235.104 258.32ZM225.4 255.543H234.102L229.742 243.572L225.4 255.543Z" fill="white"/>
<path d="M247.215 262.346H258.342V265H243.242V262.609L253.736 248.67H243.4V245.98H257.814V248.283L247.215 262.346Z" fill="white"/>
<path d="M273.758 263.119C272.492 264.607 270.635 265.352 268.186 265.352C266.158 265.352 264.611 264.766 263.545 263.594C262.49 262.41 261.957 260.664 261.945 258.355V245.98H265.197V258.268C265.197 261.15 266.369 262.592 268.713 262.592C271.197 262.592 272.85 261.666 273.67 259.814V245.98H276.922V265H273.828L273.758 263.119Z" fill="white"/>
<path d="M285.412 265H282.16V238H285.412V265Z" fill="white"/>
</g>
<g id="Roja">
<path d="M742.357 254.646H736.346V265H732.953V239.406H741.426C744.309 239.406 746.523 240.062 748.07 241.375C749.629 242.688 750.408 244.598 750.408 247.105C750.408 248.699 749.975 250.088 749.107 251.271C748.252 252.455 747.057 253.34 745.521 253.926L751.533 264.789V265H747.912L742.357 254.646ZM736.346 251.887H741.531C743.207 251.887 744.537 251.453 745.521 250.586C746.518 249.719 747.016 248.559 747.016 247.105C747.016 245.523 746.541 244.311 745.592 243.467C744.654 242.623 743.295 242.195 741.514 242.184H736.346V251.887Z" fill="white"/>
<path d="M753.783 255.314C753.783 253.451 754.146 251.775 754.873 250.287C755.611 248.799 756.631 247.65 757.932 246.842C759.244 246.033 760.738 245.629 762.414 245.629C765.004 245.629 767.096 246.525 768.689 248.318C770.295 250.111 771.098 252.496 771.098 255.473V255.701C771.098 257.553 770.74 259.217 770.025 260.693C769.322 262.158 768.309 263.301 766.984 264.121C765.672 264.941 764.16 265.352 762.449 265.352C759.871 265.352 757.779 264.455 756.174 262.662C754.58 260.869 753.783 258.496 753.783 255.543V255.314ZM757.053 255.701C757.053 257.811 757.539 259.504 758.512 260.781C759.496 262.059 760.809 262.697 762.449 262.697C764.102 262.697 765.414 262.053 766.387 260.764C767.359 259.463 767.846 257.646 767.846 255.314C767.846 253.229 767.348 251.541 766.352 250.252C765.367 248.951 764.055 248.301 762.414 248.301C760.809 248.301 759.514 248.939 758.529 250.217C757.545 251.494 757.053 253.322 757.053 255.701Z" fill="white"/>
<path d="M778.533 245.98V267.197C778.533 270.854 776.875 272.682 773.559 272.682C772.844 272.682 772.182 272.576 771.572 272.365V269.764C771.947 269.857 772.439 269.904 773.049 269.904C773.775 269.904 774.326 269.705 774.701 269.307C775.088 268.92 775.281 268.24 775.281 267.268V245.98H778.533ZM774.947 240.936C774.947 240.42 775.105 239.98 775.422 239.617C775.75 239.242 776.225 239.055 776.846 239.055C777.479 239.055 777.959 239.236 778.287 239.6C778.615 239.963 778.779 240.408 778.779 240.936C778.779 241.463 778.615 241.902 778.287 242.254C777.959 242.605 777.479 242.781 776.846 242.781C776.213 242.781 775.738 242.605 775.422 242.254C775.105 241.902 774.947 241.463 774.947 240.936Z" fill="white"/>
<path d="M795.531 265C795.344 264.625 795.191 263.957 795.074 262.996C793.562 264.566 791.758 265.352 789.66 265.352C787.785 265.352 786.244 264.824 785.037 263.77C783.842 262.703 783.244 261.355 783.244 259.727C783.244 257.746 783.994 256.211 785.494 255.121C787.006 254.02 789.127 253.469 791.857 253.469H795.021V251.975C795.021 250.838 794.682 249.936 794.002 249.268C793.322 248.588 792.32 248.248 790.996 248.248C789.836 248.248 788.863 248.541 788.078 249.127C787.293 249.713 786.9 250.422 786.9 251.254H783.631C783.631 250.305 783.965 249.391 784.633 248.512C785.312 247.621 786.227 246.918 787.375 246.402C788.535 245.887 789.807 245.629 791.189 245.629C793.381 245.629 795.098 246.18 796.34 247.281C797.582 248.371 798.227 249.877 798.273 251.799V260.553C798.273 262.299 798.496 263.688 798.941 264.719V265H795.531ZM790.135 262.521C791.154 262.521 792.121 262.258 793.035 261.73C793.949 261.203 794.611 260.518 795.021 259.674V255.771H792.473C788.488 255.771 786.496 256.938 786.496 259.27C786.496 260.289 786.836 261.086 787.516 261.66C788.195 262.234 789.068 262.521 790.135 262.521Z" fill="white"/>
</g>
<g id="Verde">
<path d="M388.443 260.518L395.756 239.406H399.447L389.955 265H386.967L377.492 239.406H381.166L388.443 260.518Z" fill="white"/>
<path d="M409.502 265.352C406.924 265.352 404.826 264.508 403.209 262.82C401.592 261.121 400.783 258.854 400.783 256.018V255.42C400.783 253.533 401.141 251.852 401.855 250.375C402.582 248.887 403.59 247.727 404.879 246.895C406.18 246.051 407.586 245.629 409.098 245.629C411.57 245.629 413.492 246.443 414.863 248.072C416.234 249.701 416.92 252.033 416.92 255.068V256.422H404.035C404.082 258.297 404.627 259.814 405.67 260.975C406.725 262.123 408.061 262.697 409.678 262.697C410.826 262.697 411.799 262.463 412.596 261.994C413.393 261.525 414.09 260.904 414.688 260.131L416.674 261.678C415.08 264.127 412.689 265.352 409.502 265.352ZM409.098 248.301C407.785 248.301 406.684 248.781 405.793 249.742C404.902 250.691 404.352 252.027 404.141 253.75H413.668V253.504C413.574 251.852 413.129 250.574 412.332 249.672C411.535 248.758 410.457 248.301 409.098 248.301Z" fill="white"/>
<path d="M429.893 248.898C429.4 248.816 428.867 248.775 428.293 248.775C426.16 248.775 424.713 249.684 423.951 251.5V265H420.699V245.98H423.863L423.916 248.178C424.982 246.479 426.494 245.629 428.451 245.629C429.084 245.629 429.564 245.711 429.893 245.875V248.898Z" fill="white"/>
<path d="M431.756 255.332C431.756 252.414 432.447 250.07 433.83 248.301C435.213 246.52 437.023 245.629 439.262 245.629C441.488 245.629 443.252 246.391 444.553 247.914V238H447.805V265H444.816L444.658 262.961C443.357 264.555 441.547 265.352 439.227 265.352C437.023 265.352 435.225 264.449 433.83 262.645C432.447 260.84 431.756 258.484 431.756 255.578V255.332ZM435.008 255.701C435.008 257.857 435.453 259.545 436.344 260.764C437.234 261.982 438.465 262.592 440.035 262.592C442.098 262.592 443.604 261.666 444.553 259.814V251.078C443.58 249.285 442.086 248.389 440.07 248.389C438.477 248.389 437.234 249.004 436.344 250.234C435.453 251.465 435.008 253.287 435.008 255.701Z" fill="white"/>
<path d="M460.76 265.352C458.182 265.352 456.084 264.508 454.467 262.82C452.85 261.121 452.041 258.854 452.041 256.018V255.42C452.041 253.533 452.398 251.852 453.113 250.375C453.84 248.887 454.848 247.727 456.137 246.895C457.438 246.051 458.844 245.629 460.355 245.629C462.828 245.629 464.75 246.443 466.121 248.072C467.492 249.701 468.178 252.033 468.178 255.068V256.422H455.293C455.34 258.297 455.885 259.814 456.928 260.975C457.982 262.123 459.318 262.697 460.936 262.697C462.084 262.697 463.057 262.463 463.854 261.994C464.65 261.525 465.348 260.904 465.945 260.131L467.932 261.678C466.338 264.127 463.947 265.352 460.76 265.352ZM460.355 248.301C459.043 248.301 457.941 248.781 457.051 249.742C456.16 250.691 455.609 252.027 455.398 253.75H464.926V253.504C464.832 251.852 464.387 250.574 463.59 249.672C462.793 248.758 461.715 248.301 460.355 248.301Z" fill="white"/>
</g>
</g>
</svg>
