<svg viewBox="0 0 972 697" fill="none" xmlns="http://www.w3.org/2000/svg">
<g id="0127120">
<g id="enunciado">
<g id="Group 71">
<path id="Rectangle 1" d="M27 54.1722C27 25.7736 49.5821 2.75195 77.4386 2.75195H947V358.58C947 386.979 924.418 410 896.561 410H27V54.1722Z" fill="#02071A"/>
<path id="Rectangle 1 (Stroke)" fill-rule="evenodd" clip-rule="evenodd" d="M941.956 7.85154H77.4386C52.3678 7.85154 32.0439 28.5732 32.0439 54.1346V404.857H896.561C921.632 404.857 941.956 384.135 941.956 358.574V7.85154ZM77.4386 2.70898C49.5821 2.70898 27 25.733 27 54.1346V410H896.561C924.418 410 947 386.976 947 358.574V2.70898H77.4386Z" fill="#CD08D1"/>
<path id="Rectangle 14" d="M81.6251 2.84419C108.602 -3.55524 947 2.84419 947 2.84419V30.5486C947 30.5486 67.351 20.3658 36.0791 30.5486C45.8095 15.8546 54.6481 9.24362 81.6251 2.84419Z" fill="#CD08D1"/>
<path id="Rectangle 15" d="M915.076 8.80518H945.066V359.639C941.385 383.447 933.755 392.198 915.076 403.62C920.574 384.915 915.076 8.80518 915.076 8.80518Z" fill="#CD08D1"/>
</g>
<g id="Determine la alternativa que debe ocupar el casillero UNI">
<path d="M43.9707 75V49.4062H51.1953C53.4219 49.4062 55.3906 49.8984 57.1016 50.8828C58.8125 51.8672 60.1309 53.2676 61.0566 55.084C61.9941 56.9004 62.4688 58.9863 62.4805 61.3418V62.9766C62.4805 65.3906 62.0117 67.5059 61.0742 69.3223C60.1484 71.1387 58.8184 72.5332 57.084 73.5059C55.3613 74.4785 53.3516 74.9766 51.0547 75H43.9707ZM47.3457 52.1836V72.2402H50.8965C53.498 72.2402 55.5195 71.4316 56.9609 69.8145C58.4141 68.1973 59.1406 65.8945 59.1406 62.9062V61.4121C59.1406 58.5059 58.4551 56.25 57.084 54.6445C55.7246 53.0273 53.791 52.207 51.2832 52.1836H47.3457Z" fill="white"/>
<path d="M74.9785 75.3516C72.4004 75.3516 70.3027 74.5078 68.6855 72.8203C67.0684 71.1211 66.2598 68.8535 66.2598 66.0176V65.4199C66.2598 63.5332 66.6172 61.8516 67.332 60.375C68.0586 58.8867 69.0664 57.7266 70.3555 56.8945C71.6562 56.0508 73.0625 55.6289 74.5742 55.6289C77.0469 55.6289 78.9688 56.4434 80.3398 58.0723C81.7109 59.7012 82.3965 62.0332 82.3965 65.0684V66.4219H69.5117C69.5586 68.2969 70.1035 69.8145 71.1465 70.9746C72.2012 72.123 73.5371 72.6973 75.1543 72.6973C76.3027 72.6973 77.2754 72.4629 78.0723 71.9941C78.8691 71.5254 79.5664 70.9043 80.1641 70.1309L82.1504 71.6777C80.5566 74.127 78.166 75.3516 74.9785 75.3516ZM74.5742 58.3008C73.2617 58.3008 72.1602 58.7812 71.2695 59.7422C70.3789 60.6914 69.8281 62.0273 69.6172 63.75H79.1445V63.5039C79.0508 61.8516 78.6055 60.5742 77.8086 59.6719C77.0117 58.7578 75.9336 58.3008 74.5742 58.3008Z" fill="white"/>
<path d="M90.5879 51.375V55.9805H94.1387V58.4941H90.5879V70.2891C90.5879 71.0508 90.7461 71.625 91.0625 72.0117C91.3789 72.3867 91.918 72.5742 92.6797 72.5742C93.0547 72.5742 93.5703 72.5039 94.2266 72.3633V75C93.3711 75.2344 92.5391 75.3516 91.7305 75.3516C90.2773 75.3516 89.1816 74.9121 88.4434 74.0332C87.7051 73.1543 87.3359 71.9062 87.3359 70.2891V58.4941H83.873V55.9805H87.3359V51.375H90.5879Z" fill="white"/>
<path d="M105.846 75.3516C103.268 75.3516 101.17 74.5078 99.5527 72.8203C97.9355 71.1211 97.127 68.8535 97.127 66.0176V65.4199C97.127 63.5332 97.4844 61.8516 98.1992 60.375C98.9258 58.8867 99.9336 57.7266 101.223 56.8945C102.523 56.0508 103.93 55.6289 105.441 55.6289C107.914 55.6289 109.836 56.4434 111.207 58.0723C112.578 59.7012 113.264 62.0332 113.264 65.0684V66.4219H100.379C100.426 68.2969 100.971 69.8145 102.014 70.9746C103.068 72.123 104.404 72.6973 106.021 72.6973C107.17 72.6973 108.143 72.4629 108.939 71.9941C109.736 71.5254 110.434 70.9043 111.031 70.1309L113.018 71.6777C111.424 74.127 109.033 75.3516 105.846 75.3516ZM105.441 58.3008C104.129 58.3008 103.027 58.7812 102.137 59.7422C101.246 60.6914 100.695 62.0273 100.484 63.75H110.012V63.5039C109.918 61.8516 109.473 60.5742 108.676 59.6719C107.879 58.7578 106.801 58.3008 105.441 58.3008Z" fill="white"/>
<path d="M126.236 58.8984C125.744 58.8164 125.211 58.7754 124.637 58.7754C122.504 58.7754 121.057 59.6836 120.295 61.5V75H117.043V55.9805H120.207L120.26 58.1777C121.326 56.4785 122.838 55.6289 124.795 55.6289C125.428 55.6289 125.908 55.7109 126.236 55.875V58.8984Z" fill="white"/>
<path d="M132.301 55.9805L132.389 58.0898C133.783 56.4492 135.664 55.6289 138.031 55.6289C140.691 55.6289 142.502 56.6484 143.463 58.6875C144.096 57.7734 144.916 57.0352 145.924 56.4727C146.943 55.9102 148.145 55.6289 149.527 55.6289C153.699 55.6289 155.82 57.8379 155.891 62.2559V75H152.639V62.4492C152.639 61.0898 152.328 60.0762 151.707 59.4082C151.086 58.7285 150.043 58.3887 148.578 58.3887C147.371 58.3887 146.369 58.752 145.572 59.4785C144.775 60.1934 144.312 61.1602 144.184 62.3789V75H140.914V62.5371C140.914 59.7715 139.561 58.3887 136.854 58.3887C134.721 58.3887 133.262 59.2969 132.477 61.1133V75H129.225V55.9805H132.301Z" fill="white"/>
<path d="M164.346 75H161.094V55.9805H164.346V75ZM160.83 50.9355C160.83 50.4082 160.988 49.9629 161.305 49.5996C161.633 49.2363 162.113 49.0547 162.746 49.0547C163.379 49.0547 163.859 49.2363 164.188 49.5996C164.516 49.9629 164.68 50.4082 164.68 50.9355C164.68 51.4629 164.516 51.9023 164.188 52.2539C163.859 52.6055 163.379 52.7812 162.746 52.7812C162.113 52.7812 161.633 52.6055 161.305 52.2539C160.988 51.9023 160.83 51.4629 160.83 50.9355Z" fill="white"/>
<path d="M172.643 55.9805L172.748 58.3711C174.201 56.543 176.1 55.6289 178.443 55.6289C182.463 55.6289 184.49 57.8965 184.525 62.4316V75H181.273V62.4141C181.262 61.043 180.945 60.0293 180.324 59.373C179.715 58.7168 178.76 58.3887 177.459 58.3887C176.404 58.3887 175.479 58.6699 174.682 59.2324C173.885 59.7949 173.264 60.5332 172.818 61.4473V75H169.566V55.9805H172.643Z" fill="white"/>
<path d="M197.322 75.3516C194.744 75.3516 192.646 74.5078 191.029 72.8203C189.412 71.1211 188.604 68.8535 188.604 66.0176V65.4199C188.604 63.5332 188.961 61.8516 189.676 60.375C190.402 58.8867 191.41 57.7266 192.699 56.8945C194 56.0508 195.406 55.6289 196.918 55.6289C199.391 55.6289 201.312 56.4434 202.684 58.0723C204.055 59.7012 204.74 62.0332 204.74 65.0684V66.4219H191.855C191.902 68.2969 192.447 69.8145 193.49 70.9746C194.545 72.123 195.881 72.6973 197.498 72.6973C198.646 72.6973 199.619 72.4629 200.416 71.9941C201.213 71.5254 201.91 70.9043 202.508 70.1309L204.494 71.6777C202.9 74.127 200.51 75.3516 197.322 75.3516ZM196.918 58.3008C195.605 58.3008 194.504 58.7812 193.613 59.7422C192.723 60.6914 192.172 62.0273 191.961 63.75H201.488V63.5039C201.395 61.8516 200.949 60.5742 200.152 59.6719C199.355 58.7578 198.277 58.3008 196.918 58.3008Z" fill="white"/>
<path d="M220.982 75H217.73V48H220.982V75Z" fill="white"/>
<path d="M237.945 75C237.758 74.625 237.605 73.957 237.488 72.9961C235.977 74.5664 234.172 75.3516 232.074 75.3516C230.199 75.3516 228.658 74.8242 227.451 73.7695C226.256 72.7031 225.658 71.3555 225.658 69.7266C225.658 67.7461 226.408 66.2109 227.908 65.1211C229.42 64.0195 231.541 63.4688 234.271 63.4688H237.436V61.9746C237.436 60.8379 237.096 59.9355 236.416 59.2676C235.736 58.5879 234.734 58.248 233.41 58.248C232.25 58.248 231.277 58.541 230.492 59.127C229.707 59.7129 229.314 60.4219 229.314 61.2539H226.045C226.045 60.3047 226.379 59.3906 227.047 58.5117C227.727 57.6211 228.641 56.918 229.789 56.4023C230.949 55.8867 232.221 55.6289 233.604 55.6289C235.795 55.6289 237.512 56.1797 238.754 57.2812C239.996 58.3711 240.641 59.877 240.688 61.7988V70.5527C240.688 72.2988 240.91 73.6875 241.355 74.7188V75H237.945ZM232.549 72.5215C233.568 72.5215 234.535 72.2578 235.449 71.7305C236.363 71.2031 237.025 70.5176 237.436 69.6738V65.7715H234.887C230.902 65.7715 228.91 66.9375 228.91 69.2695C228.91 70.2891 229.25 71.0859 229.93 71.6602C230.609 72.2344 231.482 72.5215 232.549 72.5215Z" fill="white"/>
<path d="M266.457 75C266.27 74.625 266.117 73.957 266 72.9961C264.488 74.5664 262.684 75.3516 260.586 75.3516C258.711 75.3516 257.17 74.8242 255.963 73.7695C254.768 72.7031 254.17 71.3555 254.17 69.7266C254.17 67.7461 254.92 66.2109 256.42 65.1211C257.932 64.0195 260.053 63.4688 262.783 63.4688H265.947V61.9746C265.947 60.8379 265.607 59.9355 264.928 59.2676C264.248 58.5879 263.246 58.248 261.922 58.248C260.762 58.248 259.789 58.541 259.004 59.127C258.219 59.7129 257.826 60.4219 257.826 61.2539H254.557C254.557 60.3047 254.891 59.3906 255.559 58.5117C256.238 57.6211 257.152 56.918 258.301 56.4023C259.461 55.8867 260.732 55.6289 262.115 55.6289C264.307 55.6289 266.023 56.1797 267.266 57.2812C268.508 58.3711 269.152 59.877 269.199 61.7988V70.5527C269.199 72.2988 269.422 73.6875 269.867 74.7188V75H266.457ZM261.061 72.5215C262.08 72.5215 263.047 72.2578 263.961 71.7305C264.875 71.2031 265.537 70.5176 265.947 69.6738V65.7715H263.398C259.414 65.7715 257.422 66.9375 257.422 69.2695C257.422 70.2891 257.762 71.0859 258.441 71.6602C259.121 72.2344 259.994 72.5215 261.061 72.5215Z" fill="white"/>
<path d="M277.83 75H274.578V48H277.83V75Z" fill="white"/>
<path d="M287.463 51.375V55.9805H291.014V58.4941H287.463V70.2891C287.463 71.0508 287.621 71.625 287.938 72.0117C288.254 72.3867 288.793 72.5742 289.555 72.5742C289.93 72.5742 290.445 72.5039 291.102 72.3633V75C290.246 75.2344 289.414 75.3516 288.605 75.3516C287.152 75.3516 286.057 74.9121 285.318 74.0332C284.58 73.1543 284.211 71.9062 284.211 70.2891V58.4941H280.748V55.9805H284.211V51.375H287.463Z" fill="white"/>
<path d="M302.721 75.3516C300.143 75.3516 298.045 74.5078 296.428 72.8203C294.811 71.1211 294.002 68.8535 294.002 66.0176V65.4199C294.002 63.5332 294.359 61.8516 295.074 60.375C295.801 58.8867 296.809 57.7266 298.098 56.8945C299.398 56.0508 300.805 55.6289 302.316 55.6289C304.789 55.6289 306.711 56.4434 308.082 58.0723C309.453 59.7012 310.139 62.0332 310.139 65.0684V66.4219H297.254C297.301 68.2969 297.846 69.8145 298.889 70.9746C299.943 72.123 301.279 72.6973 302.896 72.6973C304.045 72.6973 305.018 72.4629 305.814 71.9941C306.611 71.5254 307.309 70.9043 307.906 70.1309L309.893 71.6777C308.299 74.127 305.908 75.3516 302.721 75.3516ZM302.316 58.3008C301.004 58.3008 299.902 58.7812 299.012 59.7422C298.121 60.6914 297.57 62.0273 297.359 63.75H306.887V63.5039C306.793 61.8516 306.348 60.5742 305.551 59.6719C304.754 58.7578 303.676 58.3008 302.316 58.3008Z" fill="white"/>
<path d="M323.111 58.8984C322.619 58.8164 322.086 58.7754 321.512 58.7754C319.379 58.7754 317.932 59.6836 317.17 61.5V75H313.918V55.9805H317.082L317.135 58.1777C318.201 56.4785 319.713 55.6289 321.67 55.6289C322.303 55.6289 322.783 55.7109 323.111 55.875V58.8984Z" fill="white"/>
<path d="M329.193 55.9805L329.299 58.3711C330.752 56.543 332.65 55.6289 334.994 55.6289C339.014 55.6289 341.041 57.8965 341.076 62.4316V75H337.824V62.4141C337.812 61.043 337.496 60.0293 336.875 59.373C336.266 58.7168 335.311 58.3887 334.01 58.3887C332.955 58.3887 332.029 58.6699 331.232 59.2324C330.436 59.7949 329.814 60.5332 329.369 61.4473V75H326.117V55.9805H329.193Z" fill="white"/>
<path d="M357.723 75C357.535 74.625 357.383 73.957 357.266 72.9961C355.754 74.5664 353.949 75.3516 351.852 75.3516C349.977 75.3516 348.436 74.8242 347.229 73.7695C346.033 72.7031 345.436 71.3555 345.436 69.7266C345.436 67.7461 346.186 66.2109 347.686 65.1211C349.197 64.0195 351.318 63.4688 354.049 63.4688H357.213V61.9746C357.213 60.8379 356.873 59.9355 356.193 59.2676C355.514 58.5879 354.512 58.248 353.188 58.248C352.027 58.248 351.055 58.541 350.27 59.127C349.484 59.7129 349.092 60.4219 349.092 61.2539H345.822C345.822 60.3047 346.156 59.3906 346.824 58.5117C347.504 57.6211 348.418 56.918 349.566 56.4023C350.727 55.8867 351.998 55.6289 353.381 55.6289C355.572 55.6289 357.289 56.1797 358.531 57.2812C359.773 58.3711 360.418 59.877 360.465 61.7988V70.5527C360.465 72.2988 360.688 73.6875 361.133 74.7188V75H357.723ZM352.326 72.5215C353.346 72.5215 354.312 72.2578 355.227 71.7305C356.141 71.2031 356.803 70.5176 357.213 69.6738V65.7715H354.664C350.68 65.7715 348.688 66.9375 348.688 69.2695C348.688 70.2891 349.027 71.0859 349.707 71.6602C350.387 72.2344 351.26 72.5215 352.326 72.5215Z" fill="white"/>
<path d="M369.975 51.375V55.9805H373.525V58.4941H369.975V70.2891C369.975 71.0508 370.133 71.625 370.449 72.0117C370.766 72.3867 371.305 72.5742 372.066 72.5742C372.441 72.5742 372.957 72.5039 373.613 72.3633V75C372.758 75.2344 371.926 75.3516 371.117 75.3516C369.664 75.3516 368.568 74.9121 367.83 74.0332C367.092 73.1543 366.723 71.9062 366.723 70.2891V58.4941H363.26V55.9805H366.723V51.375H369.975Z" fill="white"/>
<path d="M380.873 75H377.621V55.9805H380.873V75ZM377.357 50.9355C377.357 50.4082 377.516 49.9629 377.832 49.5996C378.16 49.2363 378.641 49.0547 379.273 49.0547C379.906 49.0547 380.387 49.2363 380.715 49.5996C381.043 49.9629 381.207 50.4082 381.207 50.9355C381.207 51.4629 381.043 51.9023 380.715 52.2539C380.387 52.6055 379.906 52.7812 379.273 52.7812C378.641 52.7812 378.16 52.6055 377.832 52.2539C377.516 51.9023 377.357 51.4629 377.357 50.9355Z" fill="white"/>
<path d="M392.369 70.5879L397.08 55.9805H400.402L393.582 75H391.104L384.213 55.9805H387.535L392.369 70.5879Z" fill="white"/>
<path d="M414.992 75C414.805 74.625 414.652 73.957 414.535 72.9961C413.023 74.5664 411.219 75.3516 409.121 75.3516C407.246 75.3516 405.705 74.8242 404.498 73.7695C403.303 72.7031 402.705 71.3555 402.705 69.7266C402.705 67.7461 403.455 66.2109 404.955 65.1211C406.467 64.0195 408.588 63.4688 411.318 63.4688H414.482V61.9746C414.482 60.8379 414.143 59.9355 413.463 59.2676C412.783 58.5879 411.781 58.248 410.457 58.248C409.297 58.248 408.324 58.541 407.539 59.127C406.754 59.7129 406.361 60.4219 406.361 61.2539H403.092C403.092 60.3047 403.426 59.3906 404.094 58.5117C404.773 57.6211 405.688 56.918 406.836 56.4023C407.996 55.8867 409.268 55.6289 410.65 55.6289C412.842 55.6289 414.559 56.1797 415.801 57.2812C417.043 58.3711 417.688 59.877 417.734 61.7988V70.5527C417.734 72.2988 417.957 73.6875 418.402 74.7188V75H414.992ZM409.596 72.5215C410.615 72.5215 411.582 72.2578 412.496 71.7305C413.41 71.2031 414.072 70.5176 414.482 69.6738V65.7715H411.934C407.949 65.7715 405.957 66.9375 405.957 69.2695C405.957 70.2891 406.297 71.0859 406.977 71.6602C407.656 72.2344 408.529 72.5215 409.596 72.5215Z" fill="white"/>
<path d="M430.971 65.332C430.971 62.3438 431.656 59.9824 433.027 58.248C434.398 56.502 436.238 55.6289 438.547 55.6289C440.797 55.6289 442.572 56.3848 443.873 57.8965L444.014 55.9805H447.002V82.3125H443.75V73.2422C442.438 74.6484 440.691 75.3516 438.512 75.3516C436.215 75.3516 434.381 74.4609 433.01 72.6797C431.65 70.8867 430.971 68.5137 430.971 65.5605V65.332ZM434.223 65.7012C434.223 67.8809 434.68 69.5918 435.594 70.834C436.52 72.0762 437.762 72.6973 439.32 72.6973C441.254 72.6973 442.73 71.8418 443.75 70.1309V60.8145C442.719 59.1387 441.254 58.3008 439.355 58.3008C437.785 58.3008 436.537 58.9277 435.611 60.1816C434.686 61.4238 434.223 63.2637 434.223 65.7012Z" fill="white"/>
<path d="M463.965 73.1191C462.699 74.6074 460.842 75.3516 458.393 75.3516C456.365 75.3516 454.818 74.7656 453.752 73.5938C452.697 72.4102 452.164 70.6641 452.152 68.3555V55.9805H455.404V68.2676C455.404 71.1504 456.576 72.5918 458.92 72.5918C461.404 72.5918 463.057 71.666 463.877 69.8145V55.9805H467.129V75H464.035L463.965 73.1191Z" fill="white"/>
<path d="M479.979 75.3516C477.4 75.3516 475.303 74.5078 473.686 72.8203C472.068 71.1211 471.26 68.8535 471.26 66.0176V65.4199C471.26 63.5332 471.617 61.8516 472.332 60.375C473.059 58.8867 474.066 57.7266 475.355 56.8945C476.656 56.0508 478.062 55.6289 479.574 55.6289C482.047 55.6289 483.969 56.4434 485.34 58.0723C486.711 59.7012 487.396 62.0332 487.396 65.0684V66.4219H474.512C474.559 68.2969 475.104 69.8145 476.146 70.9746C477.201 72.123 478.537 72.6973 480.154 72.6973C481.303 72.6973 482.275 72.4629 483.072 71.9941C483.869 71.5254 484.566 70.9043 485.164 70.1309L487.15 71.6777C485.557 74.127 483.166 75.3516 479.979 75.3516ZM479.574 58.3008C478.262 58.3008 477.16 58.7812 476.27 59.7422C475.379 60.6914 474.828 62.0273 474.617 63.75H484.145V63.5039C484.051 61.8516 483.605 60.5742 482.809 59.6719C482.012 58.7578 480.934 58.3008 479.574 58.3008Z" fill="white"/>
<path d="M499.314 65.332C499.314 62.4141 500.006 60.0703 501.389 58.3008C502.771 56.5195 504.582 55.6289 506.82 55.6289C509.047 55.6289 510.811 56.3906 512.111 57.9141V48H515.363V75H512.375L512.217 72.9609C510.916 74.5547 509.105 75.3516 506.785 75.3516C504.582 75.3516 502.783 74.4492 501.389 72.6445C500.006 70.8398 499.314 68.4844 499.314 65.5781V65.332ZM502.566 65.7012C502.566 67.8574 503.012 69.5449 503.902 70.7637C504.793 71.9824 506.023 72.5918 507.594 72.5918C509.656 72.5918 511.162 71.666 512.111 69.8145V61.0781C511.139 59.2852 509.645 58.3887 507.629 58.3887C506.035 58.3887 504.793 59.0039 503.902 60.2344C503.012 61.4648 502.566 63.2871 502.566 65.7012Z" fill="white"/>
<path d="M528.318 75.3516C525.74 75.3516 523.643 74.5078 522.025 72.8203C520.408 71.1211 519.6 68.8535 519.6 66.0176V65.4199C519.6 63.5332 519.957 61.8516 520.672 60.375C521.398 58.8867 522.406 57.7266 523.695 56.8945C524.996 56.0508 526.402 55.6289 527.914 55.6289C530.387 55.6289 532.309 56.4434 533.68 58.0723C535.051 59.7012 535.736 62.0332 535.736 65.0684V66.4219H522.852C522.898 68.2969 523.443 69.8145 524.486 70.9746C525.541 72.123 526.877 72.6973 528.494 72.6973C529.643 72.6973 530.615 72.4629 531.412 71.9941C532.209 71.5254 532.906 70.9043 533.504 70.1309L535.49 71.6777C533.896 74.127 531.506 75.3516 528.318 75.3516ZM527.914 58.3008C526.602 58.3008 525.5 58.7812 524.609 59.7422C523.719 60.6914 523.168 62.0273 522.957 63.75H532.484V63.5039C532.391 61.8516 531.945 60.5742 531.148 59.6719C530.352 58.7578 529.273 58.3008 527.914 58.3008Z" fill="white"/>
<path d="M555.617 65.7012C555.617 68.6074 554.949 70.9453 553.613 72.7148C552.277 74.4727 550.484 75.3516 548.234 75.3516C545.832 75.3516 543.975 74.502 542.662 72.8027L542.504 75H539.516V48H542.768V58.0723C544.08 56.4434 545.891 55.6289 548.199 55.6289C550.508 55.6289 552.318 56.502 553.631 58.248C554.955 59.9941 555.617 62.3848 555.617 65.4199V65.7012ZM552.365 65.332C552.365 63.1172 551.938 61.4062 551.082 60.1992C550.227 58.9922 548.996 58.3887 547.391 58.3887C545.246 58.3887 543.705 59.3848 542.768 61.377V69.6035C543.764 71.5957 545.316 72.5918 547.426 72.5918C548.984 72.5918 550.197 71.9883 551.064 70.7812C551.932 69.5742 552.365 67.7578 552.365 65.332Z" fill="white"/>
<path d="M567.623 75.3516C565.045 75.3516 562.947 74.5078 561.33 72.8203C559.713 71.1211 558.904 68.8535 558.904 66.0176V65.4199C558.904 63.5332 559.262 61.8516 559.977 60.375C560.703 58.8867 561.711 57.7266 563 56.8945C564.301 56.0508 565.707 55.6289 567.219 55.6289C569.691 55.6289 571.613 56.4434 572.984 58.0723C574.355 59.7012 575.041 62.0332 575.041 65.0684V66.4219H562.156C562.203 68.2969 562.748 69.8145 563.791 70.9746C564.846 72.123 566.182 72.6973 567.799 72.6973C568.947 72.6973 569.92 72.4629 570.717 71.9941C571.514 71.5254 572.211 70.9043 572.809 70.1309L574.795 71.6777C573.201 74.127 570.811 75.3516 567.623 75.3516ZM567.219 58.3008C565.906 58.3008 564.805 58.7812 563.914 59.7422C563.023 60.6914 562.473 62.0273 562.262 63.75H571.789V63.5039C571.695 61.8516 571.25 60.5742 570.453 59.6719C569.656 58.7578 568.578 58.3008 567.219 58.3008Z" fill="white"/>
<path d="M586.889 65.3145C586.889 63.4512 587.252 61.7754 587.979 60.2871C588.717 58.7988 589.736 57.6504 591.037 56.8418C592.35 56.0332 593.844 55.6289 595.52 55.6289C598.109 55.6289 600.201 56.5254 601.795 58.3184C603.4 60.1113 604.203 62.4961 604.203 65.4727V65.7012C604.203 67.5527 603.846 69.2168 603.131 70.6934C602.428 72.1582 601.414 73.3008 600.09 74.1211C598.777 74.9414 597.266 75.3516 595.555 75.3516C592.977 75.3516 590.885 74.4551 589.279 72.6621C587.686 70.8691 586.889 68.4961 586.889 65.543V65.3145ZM590.158 65.7012C590.158 67.8105 590.645 69.5039 591.617 70.7812C592.602 72.0586 593.914 72.6973 595.555 72.6973C597.207 72.6973 598.52 72.0527 599.492 70.7637C600.465 69.4629 600.951 67.6465 600.951 65.3145C600.951 63.2285 600.453 61.541 599.457 60.252C598.473 58.9512 597.16 58.3008 595.52 58.3008C593.914 58.3008 592.619 58.9395 591.635 60.2168C590.65 61.4941 590.158 63.3223 590.158 65.7012Z" fill="white"/>
<path d="M615.91 72.6973C617.07 72.6973 618.084 72.3457 618.951 71.6426C619.818 70.9395 620.299 70.0605 620.393 69.0059H623.469C623.41 70.0957 623.035 71.1328 622.344 72.1172C621.652 73.1016 620.727 73.8867 619.566 74.4727C618.418 75.0586 617.199 75.3516 615.91 75.3516C613.32 75.3516 611.258 74.4902 609.723 72.7676C608.199 71.0332 607.438 68.666 607.438 65.666V65.1211C607.438 63.2695 607.777 61.623 608.457 60.1816C609.137 58.7402 610.109 57.6211 611.375 56.8242C612.652 56.0273 614.158 55.6289 615.893 55.6289C618.025 55.6289 619.795 56.2676 621.201 57.5449C622.619 58.8223 623.375 60.4805 623.469 62.5195H620.393C620.299 61.2891 619.83 60.2812 618.986 59.4961C618.154 58.6992 617.123 58.3008 615.893 58.3008C614.24 58.3008 612.957 58.8984 612.043 60.0938C611.141 61.2773 610.689 62.9941 610.689 65.2441V65.8594C610.689 68.0508 611.141 69.7383 612.043 70.9219C612.945 72.1055 614.234 72.6973 615.91 72.6973Z" fill="white"/>
<path d="M638.867 73.1191C637.602 74.6074 635.744 75.3516 633.295 75.3516C631.268 75.3516 629.721 74.7656 628.654 73.5938C627.6 72.4102 627.066 70.6641 627.055 68.3555V55.9805H630.307V68.2676C630.307 71.1504 631.479 72.5918 633.822 72.5918C636.307 72.5918 637.959 71.666 638.779 69.8145V55.9805H642.031V75H638.938L638.867 73.1191Z" fill="white"/>
<path d="M663.055 65.7012C663.055 68.5957 662.393 70.9277 661.068 72.6973C659.744 74.4668 657.951 75.3516 655.689 75.3516C653.381 75.3516 651.564 74.6191 650.24 73.1543V82.3125H646.988V55.9805H649.959L650.117 58.0898C651.441 56.4492 653.281 55.6289 655.637 55.6289C657.922 55.6289 659.727 56.4902 661.051 58.2129C662.387 59.9355 663.055 62.332 663.055 65.4023V65.7012ZM659.803 65.332C659.803 63.1875 659.346 61.4941 658.432 60.252C657.518 59.0098 656.264 58.3887 654.67 58.3887C652.701 58.3887 651.225 59.2617 650.24 61.0078V70.0957C651.213 71.8301 652.701 72.6973 654.705 72.6973C656.264 72.6973 657.5 72.082 658.414 70.8516C659.34 69.6094 659.803 67.7695 659.803 65.332Z" fill="white"/>
<path d="M678.945 75C678.758 74.625 678.605 73.957 678.488 72.9961C676.977 74.5664 675.172 75.3516 673.074 75.3516C671.199 75.3516 669.658 74.8242 668.451 73.7695C667.256 72.7031 666.658 71.3555 666.658 69.7266C666.658 67.7461 667.408 66.2109 668.908 65.1211C670.42 64.0195 672.541 63.4688 675.271 63.4688H678.436V61.9746C678.436 60.8379 678.096 59.9355 677.416 59.2676C676.736 58.5879 675.734 58.248 674.41 58.248C673.25 58.248 672.277 58.541 671.492 59.127C670.707 59.7129 670.314 60.4219 670.314 61.2539H667.045C667.045 60.3047 667.379 59.3906 668.047 58.5117C668.727 57.6211 669.641 56.918 670.789 56.4023C671.949 55.8867 673.221 55.6289 674.604 55.6289C676.795 55.6289 678.512 56.1797 679.754 57.2812C680.996 58.3711 681.641 59.877 681.688 61.7988V70.5527C681.688 72.2988 681.91 73.6875 682.355 74.7188V75H678.945ZM673.549 72.5215C674.568 72.5215 675.535 72.2578 676.449 71.7305C677.363 71.2031 678.025 70.5176 678.436 69.6738V65.7715H675.887C671.902 65.7715 669.91 66.9375 669.91 69.2695C669.91 70.2891 670.25 71.0859 670.93 71.6602C671.609 72.2344 672.482 72.5215 673.549 72.5215Z" fill="white"/>
<path d="M695.979 58.8984C695.486 58.8164 694.953 58.7754 694.379 58.7754C692.246 58.7754 690.799 59.6836 690.037 61.5V75H686.785V55.9805H689.949L690.002 58.1777C691.068 56.4785 692.58 55.6289 694.537 55.6289C695.17 55.6289 695.65 55.7109 695.979 55.875V58.8984Z" fill="white"/>
<path d="M715.807 75.3516C713.229 75.3516 711.131 74.5078 709.514 72.8203C707.896 71.1211 707.088 68.8535 707.088 66.0176V65.4199C707.088 63.5332 707.445 61.8516 708.16 60.375C708.887 58.8867 709.895 57.7266 711.184 56.8945C712.484 56.0508 713.891 55.6289 715.402 55.6289C717.875 55.6289 719.797 56.4434 721.168 58.0723C722.539 59.7012 723.225 62.0332 723.225 65.0684V66.4219H710.34C710.387 68.2969 710.932 69.8145 711.975 70.9746C713.029 72.123 714.365 72.6973 715.982 72.6973C717.131 72.6973 718.104 72.4629 718.9 71.9941C719.697 71.5254 720.395 70.9043 720.992 70.1309L722.979 71.6777C721.385 74.127 718.994 75.3516 715.807 75.3516ZM715.402 58.3008C714.09 58.3008 712.988 58.7812 712.098 59.7422C711.207 60.6914 710.656 62.0273 710.445 63.75H719.973V63.5039C719.879 61.8516 719.434 60.5742 718.637 59.6719C717.84 58.7578 716.762 58.3008 715.402 58.3008Z" fill="white"/>
<path d="M730.537 75H727.285V48H730.537V75Z" fill="white"/>
<path d="M752.316 72.6973C753.477 72.6973 754.49 72.3457 755.357 71.6426C756.225 70.9395 756.705 70.0605 756.799 69.0059H759.875C759.816 70.0957 759.441 71.1328 758.75 72.1172C758.059 73.1016 757.133 73.8867 755.973 74.4727C754.824 75.0586 753.605 75.3516 752.316 75.3516C749.727 75.3516 747.664 74.4902 746.129 72.7676C744.605 71.0332 743.844 68.666 743.844 65.666V65.1211C743.844 63.2695 744.184 61.623 744.863 60.1816C745.543 58.7402 746.516 57.6211 747.781 56.8242C749.059 56.0273 750.564 55.6289 752.299 55.6289C754.432 55.6289 756.201 56.2676 757.607 57.5449C759.025 58.8223 759.781 60.4805 759.875 62.5195H756.799C756.705 61.2891 756.236 60.2812 755.393 59.4961C754.561 58.6992 753.529 58.3008 752.299 58.3008C750.646 58.3008 749.363 58.8984 748.449 60.0938C747.547 61.2773 747.096 62.9941 747.096 65.2441V65.8594C747.096 68.0508 747.547 69.7383 748.449 70.9219C749.352 72.1055 750.641 72.6973 752.316 72.6973Z" fill="white"/>
<path d="M775.273 75C775.086 74.625 774.934 73.957 774.816 72.9961C773.305 74.5664 771.5 75.3516 769.402 75.3516C767.527 75.3516 765.986 74.8242 764.779 73.7695C763.584 72.7031 762.986 71.3555 762.986 69.7266C762.986 67.7461 763.736 66.2109 765.236 65.1211C766.748 64.0195 768.869 63.4688 771.6 63.4688H774.764V61.9746C774.764 60.8379 774.424 59.9355 773.744 59.2676C773.064 58.5879 772.062 58.248 770.738 58.248C769.578 58.248 768.605 58.541 767.82 59.127C767.035 59.7129 766.643 60.4219 766.643 61.2539H763.373C763.373 60.3047 763.707 59.3906 764.375 58.5117C765.055 57.6211 765.969 56.918 767.117 56.4023C768.277 55.8867 769.549 55.6289 770.932 55.6289C773.123 55.6289 774.84 56.1797 776.082 57.2812C777.324 58.3711 777.969 59.877 778.016 61.7988V70.5527C778.016 72.2988 778.238 73.6875 778.684 74.7188V75H775.273ZM769.877 72.5215C770.896 72.5215 771.863 72.2578 772.777 71.7305C773.691 71.2031 774.354 70.5176 774.764 69.6738V65.7715H772.215C768.23 65.7715 766.238 66.9375 766.238 69.2695C766.238 70.2891 766.578 71.0859 767.258 71.6602C767.938 72.2344 768.811 72.5215 769.877 72.5215Z" fill="white"/>
<path d="M794.188 69.9551C794.188 69.0762 793.854 68.3965 793.186 67.916C792.529 67.4238 791.375 67.002 789.723 66.6504C788.082 66.2988 786.775 65.877 785.803 65.3848C784.842 64.8926 784.127 64.3066 783.658 63.627C783.201 62.9473 782.973 62.1387 782.973 61.2012C782.973 59.6426 783.629 58.3242 784.941 57.2461C786.266 56.168 787.953 55.6289 790.004 55.6289C792.16 55.6289 793.906 56.1855 795.242 57.2988C796.59 58.4121 797.264 59.8359 797.264 61.5703H793.994C793.994 60.6797 793.613 59.9121 792.852 59.2676C792.102 58.623 791.152 58.3008 790.004 58.3008C788.82 58.3008 787.895 58.5586 787.227 59.0742C786.559 59.5898 786.225 60.2637 786.225 61.0957C786.225 61.8809 786.535 62.4727 787.156 62.8711C787.777 63.2695 788.896 63.6504 790.514 64.0137C792.143 64.377 793.461 64.8105 794.469 65.3145C795.477 65.8184 796.221 66.4277 796.701 67.1426C797.193 67.8457 797.439 68.707 797.439 69.7266C797.439 71.4258 796.76 72.791 795.4 73.8223C794.041 74.8418 792.277 75.3516 790.109 75.3516C788.586 75.3516 787.238 75.082 786.066 74.543C784.895 74.0039 783.975 73.2539 783.307 72.293C782.65 71.3203 782.322 70.2715 782.322 69.1465H785.574C785.633 70.2363 786.066 71.1035 786.875 71.748C787.695 72.3809 788.773 72.6973 790.109 72.6973C791.34 72.6973 792.324 72.4512 793.062 71.959C793.812 71.4551 794.188 70.7871 794.188 69.9551Z" fill="white"/>
<path d="M805.209 75H801.957V55.9805H805.209V75ZM801.693 50.9355C801.693 50.4082 801.852 49.9629 802.168 49.5996C802.496 49.2363 802.977 49.0547 803.609 49.0547C804.242 49.0547 804.723 49.2363 805.051 49.5996C805.379 49.9629 805.543 50.4082 805.543 50.9355C805.543 51.4629 805.379 51.9023 805.051 52.2539C804.723 52.6055 804.242 52.7812 803.609 52.7812C802.977 52.7812 802.496 52.6055 802.168 52.2539C801.852 51.9023 801.693 51.4629 801.693 50.9355Z" fill="white"/>
<path d="M813.963 75H810.711V48H813.963V75Z" fill="white"/>
<path d="M822.717 75H819.465V48H822.717V75Z" fill="white"/>
<path d="M835.83 75.3516C833.252 75.3516 831.154 74.5078 829.537 72.8203C827.92 71.1211 827.111 68.8535 827.111 66.0176V65.4199C827.111 63.5332 827.469 61.8516 828.184 60.375C828.91 58.8867 829.918 57.7266 831.207 56.8945C832.508 56.0508 833.914 55.6289 835.426 55.6289C837.898 55.6289 839.82 56.4434 841.191 58.0723C842.562 59.7012 843.248 62.0332 843.248 65.0684V66.4219H830.363C830.41 68.2969 830.955 69.8145 831.998 70.9746C833.053 72.123 834.389 72.6973 836.006 72.6973C837.154 72.6973 838.127 72.4629 838.924 71.9941C839.721 71.5254 840.418 70.9043 841.016 70.1309L843.002 71.6777C841.408 74.127 839.018 75.3516 835.83 75.3516ZM835.426 58.3008C834.113 58.3008 833.012 58.7812 832.121 59.7422C831.23 60.6914 830.68 62.0273 830.469 63.75H839.996V63.5039C839.902 61.8516 839.457 60.5742 838.66 59.6719C837.863 58.7578 836.785 58.3008 835.426 58.3008Z" fill="white"/>
<path d="M856.221 58.8984C855.729 58.8164 855.195 58.7754 854.621 58.7754C852.488 58.7754 851.041 59.6836 850.279 61.5V75H847.027V55.9805H850.191L850.244 58.1777C851.311 56.4785 852.822 55.6289 854.779 55.6289C855.412 55.6289 855.893 55.7109 856.221 55.875V58.8984Z" fill="white"/>
<path d="M858.014 65.3145C858.014 63.4512 858.377 61.7754 859.104 60.2871C859.842 58.7988 860.861 57.6504 862.162 56.8418C863.475 56.0332 864.969 55.6289 866.645 55.6289C869.234 55.6289 871.326 56.5254 872.92 58.3184C874.525 60.1113 875.328 62.4961 875.328 65.4727V65.7012C875.328 67.5527 874.971 69.2168 874.256 70.6934C873.553 72.1582 872.539 73.3008 871.215 74.1211C869.902 74.9414 868.391 75.3516 866.68 75.3516C864.102 75.3516 862.01 74.4551 860.404 72.6621C858.811 70.8691 858.014 68.4961 858.014 65.543V65.3145ZM861.283 65.7012C861.283 67.8105 861.77 69.5039 862.742 70.7812C863.727 72.0586 865.039 72.6973 866.68 72.6973C868.332 72.6973 869.645 72.0527 870.617 70.7637C871.59 69.4629 872.076 67.6465 872.076 65.3145C872.076 63.2285 871.578 61.541 870.582 60.252C869.598 58.9512 868.285 58.3008 866.645 58.3008C865.039 58.3008 863.744 58.9395 862.76 60.2168C861.775 61.4941 861.283 63.3223 861.283 65.7012Z" fill="white"/>
<path d="M61.9883 91.4062V108.809C61.9766 111.223 61.2148 113.197 59.7031 114.732C58.2031 116.268 56.1641 117.129 53.5859 117.316L52.6895 117.352C49.8887 117.352 47.6562 116.596 45.9922 115.084C44.3281 113.572 43.4844 111.492 43.4609 108.844V91.4062H46.8008V108.738C46.8008 110.59 47.3105 112.031 48.3301 113.062C49.3496 114.082 50.8027 114.592 52.6895 114.592C54.5996 114.592 56.0586 114.082 57.0664 113.062C58.0859 112.043 58.5957 110.607 58.5957 108.756V91.4062H61.9883Z" fill="white"/>
<path d="M86.9844 117H83.5918L70.707 97.2773V117H67.3145V91.4062H70.707L83.627 111.217V91.4062H86.9844V117Z" fill="white"/>
<path d="M96.5996 117H93.2246V91.4062H96.5996V117Z" fill="white"/>
</g>
<g id="Group 304">
<g id="Group 301">
<path id="Rectangle 119 (Stroke)" fill-rule="evenodd" clip-rule="evenodd" d="M169 217.5V142H94V217.5H169ZM169 220.5H94V297.5H169V220.5ZM172 297.5V220.5H249.25V297.5H172ZM169 300.5H94V376H169V300.5ZM172 376V300.5H249.25V376H172ZM91 379V139H331V379H91ZM252.25 376H328V300.5H252.25V376ZM252.25 297.5H328V220.5H252.25V297.5ZM252.25 217.5H328V142H252.25V217.5ZM249.25 142H172V217.5H249.25V142Z" fill="white"/>
<path id="Line 134 (Stroke)" fill-rule="evenodd" clip-rule="evenodd" d="M171 142L94 218L91.8926 215.865L168.893 139.865L171 142Z" fill="white"/>
<path id="Line 135 (Stroke)" fill-rule="evenodd" clip-rule="evenodd" d="M251 221L171 301L168.879 298.879L248.879 218.879L251 221Z" fill="white"/>
<path id="Line 136 (Stroke)" fill-rule="evenodd" clip-rule="evenodd" d="M173 299L93.0002 379L90.8789 376.879L170.879 296.879L173 299Z" fill="white"/>
<path id="Line 137 (Stroke)" fill-rule="evenodd" clip-rule="evenodd" d="M331 299L251 379L248.879 376.879L328.879 296.879L331 299Z" fill="white"/>
<path id="Line 138 (Stroke)" fill-rule="evenodd" clip-rule="evenodd" d="M328.251 219.751L250.749 142.249L252.871 140.128L330.372 217.63L328.251 219.751Z" fill="white"/>
<path id="Ellipse 30 (Stroke)" fill-rule="evenodd" clip-rule="evenodd" d="M133 266C136.866 266 140 262.866 140 259C140 255.134 136.866 252 133 252C129.134 252 126 255.134 126 259C126 262.866 129.134 266 133 266ZM133 269C138.523 269 143 264.523 143 259C143 253.477 138.523 249 133 249C127.477 249 123 253.477 123 259C123 264.523 127.477 269 133 269Z" fill="white"/>
<path id="Ellipse 31 (Stroke)" fill-rule="evenodd" clip-rule="evenodd" d="M211 346C214.866 346 218 342.866 218 339C218 335.134 214.866 332 211 332C207.134 332 204 335.134 204 339C204 342.866 207.134 346 211 346ZM211 349C216.523 349 221 344.523 221 339C221 333.477 216.523 329 211 329C205.477 329 201 333.477 201 339C201 344.523 205.477 349 211 349Z" fill="white"/>
<path id="Ellipse 32" d="M301 259C301 264.523 296.523 269 291 269C285.477 269 281 264.523 281 259C281 253.477 285.477 249 291 249C296.523 249 301 253.477 301 259Z" fill="white"/>
<path id="Ellipse 32 (Stroke)" fill-rule="evenodd" clip-rule="evenodd" d="M291 266C294.866 266 298 262.866 298 259C298 255.134 294.866 252 291 252C287.134 252 284 255.134 284 259C284 262.866 287.134 266 291 266ZM291 269C296.523 269 301 264.523 301 259C301 253.477 296.523 249 291 249C285.477 249 281 253.477 281 259C281 264.523 285.477 269 291 269Z" fill="white"/>
<path id="Ellipse 34" d="M232 260C232 271.046 223.046 280 212 280C200.954 280 192 271.046 192 260C192 248.954 200.954 240 212 240C223.046 240 232 248.954 232 260Z" fill="white"/>
<path id="Ellipse 34 (Stroke)" fill-rule="evenodd" clip-rule="evenodd" d="M212 277C221.389 277 229 269.389 229 260C229 250.611 221.389 243 212 243C202.611 243 195 250.611 195 260C195 269.389 202.611 277 212 277ZM212 280C223.046 280 232 271.046 232 260C232 248.954 223.046 240 212 240C200.954 240 192 248.954 192 260C192 271.046 200.954 280 212 280Z" fill="white"/>
<path id="Ellipse 33" d="M221 180C221 185.523 216.523 190 211 190C205.477 190 201 185.523 201 180C201 174.477 205.477 170 211 170C216.523 170 221 174.477 221 180Z" fill="white"/>
<path id="Ellipse 33 (Stroke)" fill-rule="evenodd" clip-rule="evenodd" d="M211 187C214.866 187 218 183.866 218 180C218 176.134 214.866 173 211 173C207.134 173 204 176.134 204 180C204 183.866 207.134 187 211 187ZM211 190C216.523 190 221 185.523 221 180C221 174.477 216.523 170 211 170C205.477 170 201 174.477 201 180C201 185.523 205.477 190 211 190Z" fill="white"/>
<path id="Rectangle 120" d="M93 142H118L93 167V142Z" fill="white"/>
<path id="Rectangle 121" d="M328 379H303L328 354V379Z" fill="white"/>
</g>
<g id="Group 303">
<path id="Rectangle 119 (Stroke)_2" fill-rule="evenodd" clip-rule="evenodd" d="M701 217.5V142H626V217.5H701ZM701 220.5H626V297.5H701V220.5ZM704 297.5V220.5H781.25V297.5H704ZM701 300.5H626V376H701V300.5ZM704 376V300.5H781.25V376H704ZM623 379V139H863V379H623ZM784.25 376H860V300.5H784.25V376ZM784.25 297.5H860V220.5H784.25V297.5ZM784.25 217.5H860V142H784.25V217.5ZM781.25 142H704V217.5H781.25V142Z" fill="white"/>
<path id="Line 134 (Stroke)_2" fill-rule="evenodd" clip-rule="evenodd" d="M782 142L705 218L702.893 215.865L779.893 139.865L782 142Z" fill="white"/>
<path id="Line 141 (Stroke)" fill-rule="evenodd" clip-rule="evenodd" d="M783 160L719 221L716.93 218.828L780.93 157.828L783 160Z" fill="white"/>
<path id="Line 148 (Stroke)" fill-rule="evenodd" clip-rule="evenodd" d="M845 221L781 282L778.93 279.828L842.93 218.828L845 221Z" fill="white"/>
<path id="Line 142 (Stroke)" fill-rule="evenodd" clip-rule="evenodd" d="M783 176L736 222L733.901 219.856L780.901 173.856L783 176Z" fill="white"/>
<path id="Line 147 (Stroke)" fill-rule="evenodd" clip-rule="evenodd" d="M829 220L782 266L779.901 263.856L826.901 217.856L829 220Z" fill="white"/>
<path id="Line 143 (Stroke)" fill-rule="evenodd" clip-rule="evenodd" d="M783 193L753 222L750.915 219.843L780.915 190.843L783 193Z" fill="white"/>
<path id="Line 146 (Stroke)" fill-rule="evenodd" clip-rule="evenodd" d="M813 220L783 249L780.915 246.843L810.915 217.843L813 220Z" fill="white"/>
<path id="Line 144 (Stroke)" fill-rule="evenodd" clip-rule="evenodd" d="M783 208L769 222L766.879 219.879L780.879 205.879L783 208Z" fill="white"/>
<path id="Line 145 (Stroke)" fill-rule="evenodd" clip-rule="evenodd" d="M797 220L783 234L780.879 231.879L794.879 217.879L797 220Z" fill="white"/>
<path id="Line 135 (Stroke)_2" fill-rule="evenodd" clip-rule="evenodd" d="M783 221L703 301L700.879 298.879L780.879 218.879L783 221Z" fill="white"/>
<path id="Line 136 (Stroke)_2" fill-rule="evenodd" clip-rule="evenodd" d="M863 220L783 300L780.879 297.879L860.879 217.879L863 220Z" fill="white"/>
<path id="Line 137 (Stroke)_2" fill-rule="evenodd" clip-rule="evenodd" d="M863 141L783 221L780.879 218.879L860.879 138.879L863 141Z" fill="white"/>
<path id="Line 138 (Stroke)_2" fill-rule="evenodd" clip-rule="evenodd" d="M700.501 219.502L623 142L625.121 139.879L702.623 217.38L700.501 219.502Z" fill="white"/>
<path id="Line 139 (Stroke)" fill-rule="evenodd" clip-rule="evenodd" d="M860.501 378.502L783 301L785.121 298.879L862.623 376.38L860.501 378.502Z" fill="white"/>
<path id="Line 140 (Stroke)" fill-rule="evenodd" clip-rule="evenodd" d="M702.501 378.502L625 301L627.121 298.879L704.623 376.38L702.501 378.502Z" fill="white"/>
<path id="Ellipse 30" d="M675 259C675 264.523 670.523 269 665 269C659.477 269 655 264.523 655 259C655 253.477 659.477 249 665 249C670.523 249 675 253.477 675 259Z" fill="white"/>
<path id="Ellipse 30 (Stroke)_2" fill-rule="evenodd" clip-rule="evenodd" d="M665 266C668.866 266 672 262.866 672 259C672 255.134 668.866 252 665 252C661.134 252 658 255.134 658 259C658 262.866 661.134 266 665 266ZM665 269C670.523 269 675 264.523 675 259C675 253.477 670.523 249 665 249C659.477 249 655 253.477 655 259C655 264.523 659.477 269 665 269Z" fill="white"/>
<path id="Ellipse 31" d="M753 339C753 344.523 748.523 349 743 349C737.477 349 733 344.523 733 339C733 333.477 737.477 329 743 329C748.523 329 753 333.477 753 339Z" fill="white"/>
<path id="Ellipse 31 (Stroke)_2" fill-rule="evenodd" clip-rule="evenodd" d="M743 346C746.866 346 750 342.866 750 339C750 335.134 746.866 332 743 332C739.134 332 736 335.134 736 339C736 342.866 739.134 346 743 346ZM743 349C748.523 349 753 344.523 753 339C753 333.477 748.523 329 743 329C737.477 329 733 333.477 733 339C733 344.523 737.477 349 743 349Z" fill="white"/>
<path id="Ellipse 34_2" d="M764 260C764 271.046 755.046 280 744 280C732.954 280 724 271.046 724 260C724 248.954 732.954 240 744 240C755.046 240 764 248.954 764 260Z" fill="white"/>
<path id="Ellipse 34 (Stroke)_2" fill-rule="evenodd" clip-rule="evenodd" d="M744 277C753.389 277 761 269.389 761 260C761 250.611 753.389 243 744 243C734.611 243 727 250.611 727 260C727 269.389 734.611 277 744 277ZM744 280C755.046 280 764 271.046 764 260C764 248.954 755.046 240 744 240C732.954 240 724 248.954 724 260C724 271.046 732.954 280 744 280Z" fill="white"/>
<path id="Rectangle 120_2" d="M783 299H808L783 324V299Z" fill="white"/>
<path id="Rectangle 121_2" d="M703 218H678L703 193V218Z" fill="white"/>
</g>
<g id="Group 302">
<path id="Rectangle 119 (Stroke)_3" fill-rule="evenodd" clip-rule="evenodd" d="M518.25 217.5H594V142H518.25V217.5ZM515.25 217.5V142H438V217.5H515.25ZM438 220.5H515.25V297.5H438V220.5ZM435 217.5V142H360V217.5H435ZM360 220.5H435V297.5H360V220.5ZM357 139H597V379H357V139ZM360 300.5V376H594V300.5H360ZM594 297.5V220.5H518.25V297.5H594Z" fill="white"/>
<path id="Line 134 (Stroke)_3" fill-rule="evenodd" clip-rule="evenodd" d="M517 142L440 218L437.893 215.865L514.893 139.865L517 142Z" fill="white"/>
<path id="Line 135 (Stroke)_3" fill-rule="evenodd" clip-rule="evenodd" d="M517 221L437 301L434.879 298.879L514.879 218.879L517 221Z" fill="white"/>
<path id="Line 137 (Stroke)_3" fill-rule="evenodd" clip-rule="evenodd" d="M597 222L517 302L514.879 299.879L594.879 219.879L597 222Z" fill="white"/>
<path id="Line 138 (Stroke)_3" fill-rule="evenodd" clip-rule="evenodd" d="M594.25 219.751L516.749 142.249L518.87 140.128L596.372 217.63L594.25 219.751Z" fill="white"/>
<path id="Line 139 (Stroke)_2" fill-rule="evenodd" clip-rule="evenodd" d="M514.501 300.502L437 223L439.121 220.879L516.623 298.38L514.501 300.502Z" fill="white"/>
<path id="Rectangle 121_3" d="M435 299H410L435 274V299Z" fill="white"/>
<g id="UNI">
<path d="M466.486 323.141V343.443C466.473 346.26 465.584 348.563 463.82 350.354C462.07 352.146 459.691 353.15 456.684 353.369L455.638 353.41C452.37 353.41 449.766 352.528 447.824 350.765C445.883 349.001 444.898 346.574 444.871 343.484V323.141H448.768V343.361C448.768 345.521 449.362 347.203 450.552 348.406C451.741 349.596 453.437 350.19 455.638 350.19C457.866 350.19 459.568 349.596 460.744 348.406C461.934 347.217 462.528 345.542 462.528 343.382V323.141H466.486Z" fill="white"/>
<path d="M495.648 353H491.69L476.658 329.99V353H472.7V323.141H476.658L491.731 346.253V323.141H495.648V353Z" fill="white"/>
<path d="M506.866 353H502.929V323.141H506.866V353Z" fill="white"/>
</g>
</g>
<g id="Group 303_2">
<path id="Rectangle 122 (Stroke)" fill-rule="evenodd" clip-rule="evenodd" d="M384.309 143.643H358.951V169.001H384.309V143.643ZM357 141.692V170.952H386.259V141.692H357Z" fill="white"/>
<path id="Line 140 (Stroke)_2" fill-rule="evenodd" clip-rule="evenodd" d="M366.801 141.692L359.925 148.519L359.238 147.827L366.114 141L366.801 141.692Z" fill="white"/>
<path id="Line 148 (Stroke)_2" fill-rule="evenodd" clip-rule="evenodd" d="M385.284 166.075L380.407 169.976L379.798 169.214L384.674 165.313L385.284 166.075Z" fill="white"/>
<path id="Line 141 (Stroke)_2" fill-rule="evenodd" clip-rule="evenodd" d="M369.728 143.643L359.926 153.445L359.236 152.755L369.038 142.953L369.728 143.643Z" fill="white"/>
<path id="Line 147 (Stroke)_2" fill-rule="evenodd" clip-rule="evenodd" d="M385.332 161.198L375.53 171L374.841 170.311L384.643 160.509L385.332 161.198Z" fill="white"/>
<path id="Line 142 (Stroke)_2" fill-rule="evenodd" clip-rule="evenodd" d="M375.531 143.643L359.926 158.273L359.259 157.561L374.864 142.931L375.531 143.643Z" fill="white"/>
<path id="Line 146 (Stroke)_2" fill-rule="evenodd" clip-rule="evenodd" d="M385.284 156.322L369.679 170.951L369.012 170.24L384.617 155.61L385.284 156.322Z" fill="white"/>
<path id="Line 143 (Stroke)_2" fill-rule="evenodd" clip-rule="evenodd" d="M381.382 143.643L359.926 163.149L359.27 162.427L380.726 142.921L381.382 143.643Z" fill="white"/>
<path id="Line 145 (Stroke)_2" fill-rule="evenodd" clip-rule="evenodd" d="M385.284 151.445L363.827 170.952L363.171 170.23L384.628 150.724L385.284 151.445Z" fill="white"/>
<path id="Line 144 (Stroke)_2" fill-rule="evenodd" clip-rule="evenodd" d="M386.259 145.594L359.925 169.001L359.277 168.272L385.611 144.865L386.259 145.594Z" fill="white"/>
</g>
</g>
</g>
<g id="claves">
<g id="Group 21">
<g id="Group 237">
<path id="Rectangle 4" d="M40 440H256.745L290 501L256.745 562H40V440Z" fill="#CD08D1" fill-opacity="0.1"/>
<path id="Rectangle 4 (Stroke)" fill-rule="evenodd" clip-rule="evenodd" d="M255.338 444.575H43V557.425H255.338L286.099 501L255.338 444.575ZM256.745 440H40V562H256.745L290 501L256.745 440Z" fill="#CD08D1"/>
</g>
<g id="Group 238">
<path id="Ellipse 1" d="M81 497.026C81 519.683 63.0914 538.051 41 538.051C18.9086 538.051 1 519.683 1 497.026C1 474.368 18.9086 456 41 456C63.0914 456 81 474.368 81 497.026Z" fill="#CD08D1"/>
<path id="A" d="M49.0938 507.699H31.4688L27.7812 518.564H19.5625L36.75 471.897H43.8438L61.0625 518.564H52.8125L49.0938 507.699ZM33.6875 501.16H46.875L40.2812 481.801L33.6875 501.16Z" fill="white"/>
</g>
</g>
<g id="Group 17">
<g id="Group 239">
<path id="Rectangle 5" d="M383 440H599.745L633 501L599.745 562H383V440Z" fill="#CD08D1" fill-opacity="0.1"/>
<path id="Rectangle 5 (Stroke)" fill-rule="evenodd" clip-rule="evenodd" d="M598.338 444.575H386V557.425H598.338L629.099 501L598.338 444.575ZM599.745 440H383V562H599.745L633 501L599.745 440Z" fill="#CD08D1"/>
</g>
<g id="Group 240">
<path id="Ellipse 2" d="M420 501C420 523.091 402.091 541 380 541C357.909 541 340 523.091 340 501C340 478.909 357.909 461 380 461C402.091 461 420 478.909 420 501Z" fill="#CD08D1"/>
<path id="B" d="M363.625 517V471.5H379.219C384.365 471.5 388.281 472.531 390.969 474.594C393.656 476.656 395 479.729 395 483.812C395 485.896 394.438 487.771 393.312 489.438C392.188 491.104 390.542 492.396 388.375 493.312C390.833 493.979 392.729 495.24 394.062 497.094C395.417 498.927 396.094 501.135 396.094 503.719C396.094 507.99 394.719 511.271 391.969 513.562C389.24 515.854 385.323 517 380.219 517H363.625ZM371.531 496.469V510.688H380.312C382.792 510.688 384.729 510.073 386.125 508.844C387.521 507.615 388.219 505.906 388.219 503.719C388.219 498.99 385.802 496.573 380.969 496.469H371.531ZM371.531 490.656H379.281C381.74 490.656 383.656 490.104 385.031 489C386.427 487.875 387.125 486.292 387.125 484.25C387.125 482 386.479 480.375 385.188 479.375C383.917 478.375 381.927 477.875 379.219 477.875H371.531V490.656Z" fill="white"/>
</g>
</g>
<g id="Group 18">
<g id="Group 241">
<path id="Rectangle 6" d="M722 532H938.745L972 593.5L938.745 655H722V532Z" fill="#CD08D1" fill-opacity="0.1"/>
<path id="Rectangle 6 (Stroke)" fill-rule="evenodd" clip-rule="evenodd" d="M937.338 536.613H725V650.388H937.338L968.099 593.5L937.338 536.613ZM938.745 532H722V655H938.745L972 593.5L938.745 532Z" fill="#CD08D1"/>
</g>
<g id="Group 242">
<path id="Ellipse 3" d="M764 593C764 615.091 746.091 633 724 633C701.909 633 684 615.091 684 593C684 570.909 701.909 553 724 553C746.091 553 764 570.909 764 593Z" fill="#CD08D1"/>
<path id="C" d="M741.344 600.188C740.885 605.042 739.094 608.833 735.969 611.562C732.844 614.271 728.688 615.625 723.5 615.625C719.875 615.625 716.677 614.771 713.906 613.062C711.156 611.333 709.031 608.885 707.531 605.719C706.031 602.552 705.25 598.875 705.188 594.688V590.438C705.188 586.146 705.948 582.365 707.469 579.094C708.99 575.823 711.167 573.302 714 571.531C716.854 569.76 720.146 568.875 723.875 568.875C728.896 568.875 732.938 570.24 736 572.969C739.062 575.698 740.844 579.552 741.344 584.531H733.469C733.094 581.26 732.135 578.906 730.594 577.469C729.073 576.01 726.833 575.281 723.875 575.281C720.438 575.281 717.792 576.542 715.938 579.062C714.104 581.562 713.167 585.24 713.125 590.094V594.125C713.125 599.042 714 602.792 715.75 605.375C717.521 607.958 720.104 609.25 723.5 609.25C726.604 609.25 728.938 608.552 730.5 607.156C732.062 605.76 733.052 603.438 733.469 600.188H741.344Z" fill="white"/>
</g>
</g>
<g id="Group 19">
<g id="Group 243">
<path id="Rectangle 7" d="M39 580H255.745L289 638.5L255.745 697H39V580Z" fill="#CD08D1" fill-opacity="0.1"/>
<path id="Rectangle 7 (Stroke)" fill-rule="evenodd" clip-rule="evenodd" d="M254.338 584.387H42V692.612H254.338L285.099 638.5L254.338 584.387ZM255.745 580H39V697H255.745L289 638.5L255.745 580Z" fill="#CD08D1"/>
</g>
<g id="Group 244">
<path id="Ellipse 4" d="M80 636C80 658.091 62.0914 676 40 676C17.9086 676 0 658.091 0 636C0 613.909 17.9086 596 40 596C62.0914 596 80 613.909 80 636Z" fill="#CD08D1"/>
<path id="D" d="M22.625 658V612.5H36.0625C40.0833 612.5 43.6458 613.396 46.75 615.188C49.875 616.979 52.2917 619.521 54 622.812C55.7083 626.104 56.5625 629.875 56.5625 634.125V636.406C56.5625 640.719 55.6979 644.51 53.9688 647.781C52.2604 651.052 49.8125 653.573 46.625 655.344C43.4583 657.115 39.8229 658 35.7188 658H22.625ZM30.5312 618.875V651.688H35.6875C39.8333 651.688 43.0104 650.396 45.2188 647.812C47.4479 645.208 48.5833 641.479 48.625 636.625V634.094C48.625 629.156 47.5521 625.385 45.4062 622.781C43.2604 620.177 40.1458 618.875 36.0625 618.875H30.5312Z" fill="white"/>
</g>
</g>
<g id="Group 20">
<g id="Group 246">
<path id="Rectangle 8" d="M383 574H599.745L633 634.5L599.745 695H383V574Z" fill="#CD08D1" fill-opacity="0.1"/>
<path id="Rectangle 8 (Stroke)" fill-rule="evenodd" clip-rule="evenodd" d="M598.338 578.538H386V690.463H598.338L629.099 634.5L598.338 578.538ZM599.745 574H383V695H599.745L633 634.5L599.745 574Z" fill="#CD08D1"/>
</g>
<g id="Group 245">
<path id="Ellipse 5" d="M424 634C424 656.091 406.091 674 384 674C361.909 674 344 656.091 344 634C344 611.909 361.909 594 384 594C406.091 594 424 611.909 424 634Z" fill="#CD08D1"/>
<path id="E" d="M393.219 635.688H374.531V649.688H396.375V656H366.625V610.5H396.156V616.875H374.531V629.438H393.219V635.688Z" fill="white"/>
</g>
</g>
<g id="Group 310">
<g id="Group 305">
<path id="Rectangle 123 (Stroke)" fill-rule="evenodd" clip-rule="evenodd" d="M143 520V474H96V520H143ZM94 522V472H244V522H94ZM193 520H145V474H193V520ZM195 520H242V474H195V520Z" fill="white"/>
<path id="Ellipse 35 (Stroke)" fill-rule="evenodd" clip-rule="evenodd" d="M169 501C171.209 501 173 499.209 173 497C173 494.791 171.209 493 169 493C166.791 493 165 494.791 165 497C165 499.209 166.791 501 169 501ZM169 503C172.314 503 175 500.314 175 497C175 493.686 172.314 491 169 491C165.686 491 163 493.686 163 497C163 500.314 165.686 503 169 503Z" fill="white"/>
<path id="Rectangle 124" d="M194 473H209L194 488V473Z" fill="white"/>
<path id="Rectangle 125" d="M242 521H227L242 506V521Z" fill="white"/>
<path id="Line 149 (Stroke)" fill-rule="evenodd" clip-rule="evenodd" d="M195 473L243 520L241.601 521.429L193.601 474.429L195 473Z" fill="white"/>
</g>
<g id="Group 306">
<path id="Rectangle 126 (Stroke)" fill-rule="evenodd" clip-rule="evenodd" d="M481 527V481H434V527H481ZM432 529V479H582V529H432ZM531 527H483V481H531V527ZM533 527H580V481H533V527Z" fill="white"/>
<path id="Ellipse 36 (Stroke)" fill-rule="evenodd" clip-rule="evenodd" d="M507 508C509.209 508 511 506.209 511 504C511 501.791 509.209 500 507 500C504.791 500 503 501.791 503 504C503 506.209 504.791 508 507 508ZM507 510C510.314 510 513 507.314 513 504C513 500.686 510.314 498 507 498C503.686 498 501 500.686 501 504C501 507.314 503.686 510 507 510Z" fill="white"/>
<path id="Rectangle 127" d="M532 480H547L532 495V480Z" fill="white"/>
<path id="Line 150 (Stroke)" fill-rule="evenodd" clip-rule="evenodd" d="M581.503 481L534 528.503L532.586 527.088L580.089 479.586L581.503 481Z" fill="white"/>
</g>
<g id="Group 307">
<path id="Rectangle 126 (Stroke)_2" fill-rule="evenodd" clip-rule="evenodd" d="M829 617V571H782V617H829ZM780 619V569H930V619H780ZM879 617H831V571H879V617ZM881 617H928V571H881V617Z" fill="white"/>
<path id="Ellipse 36" d="M861 594C861 597.314 858.314 600 855 600C851.686 600 849 597.314 849 594C849 590.686 851.686 588 855 588C858.314 588 861 590.686 861 594Z" fill="white"/>
<path id="Ellipse 36 (Stroke)_2" fill-rule="evenodd" clip-rule="evenodd" d="M855 598C857.209 598 859 596.209 859 594C859 591.791 857.209 590 855 590C852.791 590 851 591.791 851 594C851 596.209 852.791 598 855 598ZM855 600C858.314 600 861 597.314 861 594C861 590.686 858.314 588 855 588C851.686 588 849 590.686 849 594C849 597.314 851.686 600 855 600Z" fill="white"/>
<path id="Line 150 (Stroke)_2" fill-rule="evenodd" clip-rule="evenodd" d="M929.503 571L882 618.503L880.586 617.088L928.089 569.586L929.503 571Z" fill="white"/>
<path id="Line 153 (Stroke)" fill-rule="evenodd" clip-rule="evenodd" d="M929 585L894 618.503L892.617 617.058L927.617 583.555L929 585Z" fill="white"/>
<path id="Line 154 (Stroke)" fill-rule="evenodd" clip-rule="evenodd" d="M929 595L904 618.503L902.63 617.045L927.63 593.543L929 595Z" fill="white"/>
<path id="Line 155 (Stroke)" fill-rule="evenodd" clip-rule="evenodd" d="M930 603L915 618.503L913.562 617.112L928.562 601.609L930 603Z" fill="white"/>
<path id="Line 151 (Stroke)" fill-rule="evenodd" clip-rule="evenodd" d="M829.503 571L782 618.503L780.586 617.088L828.089 569.586L829.503 571Z" fill="white"/>
<path id="Line 152 (Stroke)" fill-rule="evenodd" clip-rule="evenodd" d="M782 570L829.503 617.503L828.088 618.917L780.586 571.414L782 570Z" fill="white"/>
</g>
<g id="Group 309">
<path id="Rectangle 126 (Stroke)_3" fill-rule="evenodd" clip-rule="evenodd" d="M484 660V614H437V660H484ZM435 662V612H585V662H435ZM534 660H486V614H534V660ZM536 660H583V614H536V660Z" fill="white"/>
<path id="Rectangle 126" d="M484 612H499L484 627V612Z" fill="white"/>
<g id="Group 303_3">
<path id="Rectangle 122 (Stroke)_2" fill-rule="evenodd" clip-rule="evenodd" d="M582.654 648.322H569.975V661.001H582.654V648.322ZM569 647.346V661.976H583.63V647.346H569Z" fill="white"/>
<path id="Line 140 (Stroke)_3" fill-rule="evenodd" clip-rule="evenodd" d="M573.901 647.346L570.463 650.76L570.119 650.414L573.557 647L573.901 647.346Z" fill="white"/>
<path id="Line 148 (Stroke)_3" fill-rule="evenodd" clip-rule="evenodd" d="M583.142 659.537L580.704 661.488L580.399 661.107L582.837 659.157L583.142 659.537Z" fill="white"/>
<path id="Line 141 (Stroke)_3" fill-rule="evenodd" clip-rule="evenodd" d="M575.364 648.321L570.463 653.222L570.118 652.877L575.019 647.977L575.364 648.321Z" fill="white"/>
<path id="Line 147 (Stroke)_3" fill-rule="evenodd" clip-rule="evenodd" d="M583.166 657.099L578.265 662L577.92 661.655L582.821 656.754L583.166 657.099Z" fill="white"/>
<path id="Line 142 (Stroke)_3" fill-rule="evenodd" clip-rule="evenodd" d="M578.265 648.321L570.463 655.636L570.129 655.281L577.932 647.966L578.265 648.321Z" fill="white"/>
<path id="Line 146 (Stroke)_3" fill-rule="evenodd" clip-rule="evenodd" d="M583.142 654.661L575.339 661.976L575.006 661.62L582.808 654.305L583.142 654.661Z" fill="white"/>
<path id="Line 143 (Stroke)_3" fill-rule="evenodd" clip-rule="evenodd" d="M581.191 648.321L570.463 658.074L570.135 657.714L580.863 647.961L581.191 648.321Z" fill="white"/>
<path id="Line 145 (Stroke)_3" fill-rule="evenodd" clip-rule="evenodd" d="M583.142 652.223L572.413 661.976L572.085 661.615L582.814 651.862L583.142 652.223Z" fill="white"/>
<path id="Line 144 (Stroke)_3" fill-rule="evenodd" clip-rule="evenodd" d="M583.629 649.297L570.463 661L570.139 660.636L583.305 648.932L583.629 649.297Z" fill="white"/>
</g>
</g>
<g id="Group 308">
<path id="Rectangle 126 (Stroke)_4" fill-rule="evenodd" clip-rule="evenodd" d="M142 659V613H95V659H142ZM93 661V611H243V661H93ZM192 659H144V613H192V659ZM194 659H241V613H194V659Z" fill="white"/>
<path id="Line 150 (Stroke)_3" fill-rule="evenodd" clip-rule="evenodd" d="M242.503 613L195 660.503L193.586 659.088L241.089 611.586L242.503 613Z" fill="white"/>
<path id="Line 153 (Stroke)_2" fill-rule="evenodd" clip-rule="evenodd" d="M242 627L207 660.503L205.617 659.058L240.617 625.555L242 627Z" fill="white"/>
<path id="Line 154 (Stroke)_2" fill-rule="evenodd" clip-rule="evenodd" d="M242 637L217 660.503L215.63 659.045L240.63 635.543L242 637Z" fill="white"/>
<path id="Line 155 (Stroke)_2" fill-rule="evenodd" clip-rule="evenodd" d="M243 645L228 660.503L226.562 659.112L241.562 643.609L243 645Z" fill="white"/>
<path id="Line 151 (Stroke)_2" fill-rule="evenodd" clip-rule="evenodd" d="M142.503 613L95.0002 660.503L93.5859 659.088L141.089 611.586L142.503 613Z" fill="white"/>
<path id="Line 152 (Stroke)_2" fill-rule="evenodd" clip-rule="evenodd" d="M95 612L142.503 659.503L141.088 660.917L93.5857 613.414L95 612Z" fill="white"/>
<path id="Rectangle 126_2" d="M193 661H178L193 646V661Z" fill="white"/>
</g>
</g>
<g id="flecha">
<path id="Rectangle 2" d="M391.2 591.008L406.482 599.133L364.5 678.089L349.219 669.963L391.2 591.008Z" fill="#1043F5"/>
<path id="Rectangle 1_2" d="M333 603.904L423 554V611.692L378 594.096L333 603.904Z" fill="#1043F5"/>
<path id="Rectangle 3" d="M337.039 673.21L352.666 646.143L369.936 645.565L354.309 672.632L337.039 673.21Z" fill="#1043F5"/>
<path id="Rectangle 4_2" d="M363.089 687.845L378.717 660.778L369.926 645.154L354.299 672.221L363.089 687.845Z" fill="#1043F5"/>
</g>
</g>
</g>
</svg>
