<svg viewBox="0 0 714 300" fill="none" xmlns="http://www.w3.org/2000/svg">
<g id="0127224">
<g id="Group 355">
<g id="Group 353">
<path id="Rectangle 181 (Stroke)" fill-rule="evenodd" clip-rule="evenodd" d="M152.234 159.234V244.194H237.195V159.234H152.234ZM240.195 158.425V241.914L274.275 212.28V129.284L240.195 158.425ZM277.275 213.646L238.695 247.194H149.234V157.734L183.341 124.745H277.275V213.646ZM271.458 127.745H184.555L155.1 156.234H238.141L271.458 127.745Z" fill="white"/>
<path id="Rectangle 182" d="M149.234 156.615H238.695V246.076H149.234V156.615Z" fill="white"/>
<path id="Rectangle 183" d="M277.806 213.138L275.51 168.75L238.695 200.128V245.663L277.806 213.138Z" fill="white"/>
</g>
<path id="Rectangle 184 (Stroke)" fill-rule="evenodd" clip-rule="evenodd" d="M84.2449 128.51H3V209.755H84.2449V128.51ZM0 125.51V212.755H87.2449V125.51H0Z" fill="white"/>
<path id="Rectangle 185" d="M185.204 0H272.449V87.2449H185.204V0Z" fill="white"/>
<path id="Rectangle 185 (Stroke)" fill-rule="evenodd" clip-rule="evenodd" d="M269.449 3H188.204V84.2449H269.449V3ZM185.204 0V87.2449H272.449V0H185.204Z" fill="white"/>
<path id="Rectangle 186 (Stroke)" fill-rule="evenodd" clip-rule="evenodd" d="M404.143 215.755H322.898V297H404.143V215.755ZM319.898 212.755V300H407.143V212.755H319.898Z" fill="white"/>
<path id="Rectangle 187" d="M0 169.133H87.2449V212.755H0V169.133Z" fill="white"/>
<path id="Arrow 27 (Stroke)" fill-rule="evenodd" clip-rule="evenodd" d="M226.404 256.993C226.064 255.655 226.873 254.294 228.212 253.955L250.02 248.42C251.359 248.08 252.719 248.89 253.058 250.228C253.398 251.566 252.589 252.926 251.25 253.266L235.368 257.297C252.013 266.776 264.129 271.41 274.384 271.489C285.43 271.573 294.808 266.35 305.835 254.662L309.472 258.094C297.997 270.255 287.379 276.588 274.346 276.488C262.731 276.4 249.61 271.182 232.716 261.541L236.785 277.571C237.125 278.91 236.315 280.27 234.977 280.61C233.639 280.949 232.278 280.14 231.939 278.801L226.404 256.993Z" fill="#E8A1EE"/>
<path id="Arrow 28 (Stroke)" fill-rule="evenodd" clip-rule="evenodd" d="M139.14 189.245C140.289 190.01 140.601 191.562 139.837 192.711L127.376 211.446C126.611 212.595 125.06 212.907 123.91 212.143C122.76 211.378 122.448 209.826 123.213 208.677L132.445 194.796C123.933 196.033 117.116 195.702 111.579 192.621C104.79 188.843 100.605 181.324 97.0993 169.864L101.881 168.402C105.317 179.637 109.023 185.476 114.01 188.252C118.057 190.504 123.389 190.993 131.14 189.929L117.636 180.948C116.487 180.183 116.175 178.631 116.939 177.481C117.704 176.332 119.256 176.02 120.405 176.784L139.14 189.245Z" fill="#2CF30B"/>
<path id="Arrow 29 (Stroke)" fill-rule="evenodd" clip-rule="evenodd" d="M308.182 149.382C306.833 149.674 305.502 148.816 305.211 147.466L300.463 125.473C300.171 124.123 301.029 122.793 302.379 122.502C303.728 122.21 305.059 123.068 305.35 124.418L308.807 140.432C318.123 125.332 323.338 113.416 323.784 101.691C324.276 88.7743 318.984 75.5863 305.668 58.1499L309.642 55.1152C323.258 72.9452 329.337 87.277 328.781 101.881C328.283 114.964 322.461 127.858 312.952 143.237L329.12 139.747C330.47 139.455 331.8 140.313 332.092 141.663C332.383 143.012 331.525 144.343 330.176 144.634L308.182 149.382Z" fill="#13EBF9"/>
</g>
<g id="Group 356">
<path id="Arrow 30 (Stroke)" fill-rule="evenodd" clip-rule="evenodd" d="M486.456 83.2453C458.345 82.0285 429.364 92.6004 391.107 119.143L388.827 115.857C427.411 89.0869 457.266 77.978 486.629 79.249C514.781 80.4676 542.147 93.0626 575.95 113.304L572.819 100.489C572.557 99.4159 573.214 98.3336 574.287 98.0715C575.36 97.8093 576.443 98.4667 576.705 99.5397L580.976 117.026C581.238 118.099 580.581 119.181 579.508 119.443L562.022 123.715C560.949 123.977 559.867 123.319 559.605 122.246C559.343 121.173 560 120.091 561.073 119.829L573.848 116.708C540.155 96.5374 513.541 84.4177 486.456 83.2453Z" fill="#FD0C0C"/>
<g id="180&#194;&#176;">
<path d="M465.814 69H462.545V47.3262L455.988 49.7344V46.7812L465.305 43.2832H465.814V69Z" fill="#FD0C0C"/>
<path d="M490.863 50.0859C490.863 51.3633 490.523 52.5 489.844 53.4961C489.176 54.4922 488.268 55.2715 487.119 55.834C488.455 56.4082 489.51 57.2461 490.283 58.3477C491.068 59.4492 491.461 60.6973 491.461 62.0918C491.461 64.3066 490.711 66.0703 489.211 67.3828C487.723 68.6953 485.76 69.3516 483.322 69.3516C480.861 69.3516 478.887 68.6953 477.398 67.3828C475.922 66.0586 475.184 64.2949 475.184 62.0918C475.184 60.709 475.559 59.4609 476.309 58.3477C477.07 57.2344 478.119 56.3906 479.455 55.8164C478.318 55.2539 477.422 54.4746 476.766 53.4785C476.109 52.4824 475.781 51.3516 475.781 50.0859C475.781 47.9297 476.473 46.2188 477.855 44.9531C479.238 43.6875 481.061 43.0547 483.322 43.0547C485.572 43.0547 487.389 43.6875 488.771 44.9531C490.166 46.2188 490.863 47.9297 490.863 50.0859ZM488.209 62.0215C488.209 60.5918 487.752 59.4258 486.838 58.5234C485.936 57.6211 484.752 57.1699 483.287 57.1699C481.822 57.1699 480.645 57.6152 479.754 58.5059C478.875 59.3965 478.436 60.5684 478.436 62.0215C478.436 63.4746 478.863 64.6172 479.719 65.4492C480.586 66.2812 481.787 66.6973 483.322 66.6973C484.846 66.6973 486.041 66.2812 486.908 65.4492C487.775 64.6055 488.209 63.4629 488.209 62.0215ZM483.322 45.7266C482.045 45.7266 481.008 46.125 480.211 46.9219C479.426 47.707 479.033 48.7793 479.033 50.1387C479.033 51.4395 479.42 52.4941 480.193 53.3027C480.979 54.0996 482.021 54.498 483.322 54.498C484.623 54.498 485.66 54.0996 486.434 53.3027C487.219 52.4941 487.611 51.4395 487.611 50.1387C487.611 48.8379 487.207 47.7773 486.398 46.957C485.59 46.1367 484.564 45.7266 483.322 45.7266Z" fill="#FD0C0C"/>
<path d="M511.605 58.084C511.605 61.8926 510.955 64.7227 509.654 66.5742C508.354 68.4258 506.32 69.3516 503.555 69.3516C500.824 69.3516 498.803 68.4492 497.49 66.6445C496.178 64.8281 495.498 62.1211 495.451 58.5234V54.1816C495.451 50.4199 496.102 47.625 497.402 45.7969C498.703 43.9688 500.742 43.0547 503.52 43.0547C506.273 43.0547 508.301 43.9395 509.602 45.709C510.902 47.4668 511.57 50.1855 511.605 53.8652V58.084ZM508.354 53.6367C508.354 50.8828 507.967 48.8789 507.193 47.625C506.42 46.3594 505.195 45.7266 503.52 45.7266C501.855 45.7266 500.643 46.3535 499.881 47.6074C499.119 48.8613 498.727 50.7891 498.703 53.3906V58.5938C498.703 61.3594 499.102 63.4043 499.898 64.7285C500.707 66.041 501.926 66.6973 503.555 66.6973C505.16 66.6973 506.35 66.0762 507.123 64.834C507.908 63.5918 508.318 61.6348 508.354 58.9629V53.6367Z" fill="#FD0C0C"/>
<path d="M515.93 47.625C515.93 46.4062 516.363 45.3398 517.23 44.4258C518.109 43.5117 519.17 43.0547 520.412 43.0547C521.631 43.0547 522.668 43.5117 523.523 44.4258C524.391 45.3281 524.824 46.3945 524.824 47.625C524.824 48.8672 524.391 49.9277 523.523 50.8066C522.668 51.6855 521.631 52.125 520.412 52.125C519.182 52.125 518.127 51.6855 517.248 50.8066C516.369 49.9277 515.93 48.8672 515.93 47.625ZM520.412 49.875C521.045 49.875 521.578 49.6699 522.012 49.2598C522.445 48.8379 522.662 48.293 522.662 47.625C522.662 46.9453 522.445 46.3887 522.012 45.9551C521.578 45.5098 521.045 45.2871 520.412 45.2871C519.768 45.2871 519.223 45.5215 518.777 45.9902C518.344 46.4473 518.127 46.9922 518.127 47.625C518.127 48.2578 518.344 48.791 518.777 49.2246C519.223 49.6582 519.768 49.875 520.412 49.875Z" fill="#FD0C0C"/>
</g>
</g>
<g id="Group 353_2">
<path id="Rectangle 181 (Stroke)_2" fill-rule="evenodd" clip-rule="evenodd" d="M601 146.135V222H676.865V146.135H601ZM679.865 145.326V219.72L710.023 193.496V119.539L679.865 145.326ZM713.023 194.863L678.365 225H598V144.635L628.639 115H713.023V194.863ZM707.206 118H629.853L603.866 143.135H677.811L707.206 118Z" fill="white"/>
<path id="Rectangle 182_2" d="M678.365 145.639L712.018 115.502V157.191L678.365 184.817V145.639Z" fill="white"/>
<path id="Rectangle 183_2" d="M598 143.127H678.365V224.497H598V143.127Z" fill="white"/>
</g>
</g>
</svg>
