<svg  viewBox="0 0 789 482" fill="none" xmlns="http://www.w3.org/2000/svg">
<path fill-rule="evenodd" clip-rule="evenodd" d="M43.2051 228.561L0 324.322H90.9242L43.2051 228.561ZM43.3397 235.557L4.64474 321.322H86.0774L43.3397 235.557Z" fill="white"/>
<path fill-rule="evenodd" clip-rule="evenodd" d="M205.257 180.681L140.449 324.322H276.836L205.257 180.681ZM205.392 187.677L145.094 321.322H271.989L205.392 187.677Z" fill="white"/>
<path fill-rule="evenodd" clip-rule="evenodd" d="M239.402 252.501L208.28 324.322L204.609 322.731L235.732 250.911L239.402 252.501Z" fill="white"/>
<path fill-rule="evenodd" clip-rule="evenodd" d="M173.167 252.501H239.401V256.501H173.167V252.501Z" fill="white"/>
<path fill-rule="evenodd" clip-rule="evenodd" d="M400.045 116.84L306.434 324.322H503.436L400.045 116.84ZM400.179 123.837L311.078 321.322H498.589L400.179 123.837Z" fill="white"/>
<path fill-rule="evenodd" clip-rule="evenodd" d="M431.721 178.287L367.083 324.322L363.425 322.703L428.063 176.668L431.721 178.287Z" fill="white"/>
<path fill-rule="evenodd" clip-rule="evenodd" d="M462.044 241.329L426.134 324.322L422.463 322.733L458.373 239.741L462.044 241.329Z" fill="white"/>
<path fill-rule="evenodd" clip-rule="evenodd" d="M345.536 241.329H462.045V245.329L345.536 245.329V241.329Z" fill="white"/>
<path fill-rule="evenodd" clip-rule="evenodd" d="M373.466 178.287H431.721V182.287H373.466V178.287Z" fill="white"/>
<path fill-rule="evenodd" clip-rule="evenodd" d="M653.087 53L530.673 324.322H788.291L653.087 53ZM653.222 59.9964L535.318 321.322H783.445L653.222 59.9964Z" fill="white"/>
<path fill-rule="evenodd" clip-rule="evenodd" d="M687.082 120.032L595.311 323.524L591.665 321.879L683.436 118.388L687.082 120.032Z" fill="white"/>
<path fill-rule="evenodd" clip-rule="evenodd" d="M719.002 183.075L652.768 324.322L649.146 322.624L715.381 181.377L719.002 183.075Z" fill="white"/>
<path fill-rule="evenodd" clip-rule="evenodd" d="M746.135 239.733L707.83 323.524L704.192 321.861L742.497 238.07L746.135 239.733Z" fill="white"/>
<path fill-rule="evenodd" clip-rule="evenodd" d="M568.179 239.733L746.134 239.733V243.733L568.179 243.733V239.733Z" fill="white"/>
<path fill-rule="evenodd" clip-rule="evenodd" d="M592.917 183.075L719.002 183.075V187.075L592.917 187.075V183.075Z" fill="white"/>
<path fill-rule="evenodd" clip-rule="evenodd" d="M624.04 120.032L686.284 120.032V124.032L624.04 124.032V120.032Z" fill="white"/>
<path d="M47.2773 358.949H35.832V371H30.8906V342.562H48.957V346.547H35.832V355.004H47.2773V358.949Z" fill="white"/>
<path d="M58.9805 371H56.1445V357.301L51.9609 358.73V356.328L58.6172 353.879H58.9805V371Z" fill="white"/>
<path d="M215.277 358.949H203.832V371H198.891V342.562H216.957V346.547H203.832V355.004H215.277V358.949Z" fill="white"/>
<path d="M230.742 371H219.27V369.043L224.953 362.844C225.773 361.93 226.355 361.168 226.699 360.559C227.051 359.941 227.227 359.324 227.227 358.707C227.227 357.895 226.996 357.238 226.535 356.738C226.082 356.238 225.469 355.988 224.695 355.988C223.773 355.988 223.059 356.27 222.551 356.832C222.043 357.395 221.789 358.164 221.789 359.141H218.941C218.941 358.102 219.176 357.168 219.645 356.34C220.121 355.504 220.797 354.855 221.672 354.395C222.555 353.934 223.57 353.703 224.719 353.703C226.375 353.703 227.68 354.121 228.633 354.957C229.594 355.785 230.074 356.934 230.074 358.402C230.074 359.254 229.832 360.148 229.348 361.086C228.871 362.016 228.086 363.074 226.992 364.262L222.82 368.727H230.742V371Z" fill="white"/>
<path d="M404.277 358.949H392.832V371H387.891V342.562H405.957V346.547H392.832V355.004H404.277V358.949Z" fill="white"/>
<path d="M411.562 361.168H413.297C414.172 361.16 414.863 360.934 415.371 360.488C415.887 360.043 416.145 359.398 416.145 358.555C416.145 357.742 415.93 357.113 415.5 356.668C415.078 356.215 414.43 355.988 413.555 355.988C412.789 355.988 412.16 356.211 411.668 356.656C411.176 357.094 410.93 357.668 410.93 358.379H408.082C408.082 357.504 408.312 356.707 408.773 355.988C409.242 355.27 409.891 354.711 410.719 354.312C411.555 353.906 412.488 353.703 413.52 353.703C415.223 353.703 416.559 354.133 417.527 354.992C418.504 355.844 418.992 357.031 418.992 358.555C418.992 359.32 418.746 360.043 418.254 360.723C417.77 361.395 417.141 361.902 416.367 362.246C417.305 362.566 418.016 363.07 418.5 363.758C418.992 364.445 419.238 365.266 419.238 366.219C419.238 367.75 418.711 368.969 417.656 369.875C416.609 370.781 415.23 371.234 413.52 371.234C411.879 371.234 410.535 370.797 409.488 369.922C408.441 369.047 407.918 367.883 407.918 366.43H410.766C410.766 367.18 411.016 367.789 411.516 368.258C412.023 368.727 412.703 368.961 413.555 368.961C414.438 368.961 415.133 368.727 415.641 368.258C416.148 367.789 416.402 367.109 416.402 366.219C416.402 365.32 416.137 364.629 415.605 364.145C415.074 363.66 414.285 363.418 413.238 363.418H411.562V361.168Z" fill="white"/>
<path d="M657.277 358.949H645.832V371H640.891V342.562H658.957V346.547H645.832V355.004H657.277V358.949Z" fill="white"/>
<path d="M670.902 364.918H673.023V367.203H670.902V371H668.055V367.203H660.684L660.602 365.469L667.961 353.938H670.902V364.918ZM663.59 364.918H668.055V357.793L667.844 358.168L663.59 364.918Z" fill="white"/>
<path d="M41.7692 157.905L41.1923 158.127C40.7781 158.275 40.1864 158.423 39.4172 158.571C38.6479 158.719 37.7899 158.822 36.8432 158.882H36V156.84H36.8432C38.2337 156.781 39.5207 156.559 40.7041 156.174C41.8876 155.79 42.716 155.435 43.1893 155.109C43.6627 154.784 44.0769 154.459 44.432 154.133C44.4911 154.044 44.6686 154 44.9645 154C45.2308 154 45.4822 154.089 45.7189 154.266V167.535L45.7633 180.849C45.9704 181.056 46.1479 181.189 46.2959 181.248C46.4438 181.308 46.7988 181.367 47.3609 181.426C47.9231 181.485 48.8402 181.515 50.1124 181.515H51.2663V183.556H50.7781C50.1568 183.467 47.8047 183.423 43.7219 183.423C39.6982 183.423 37.3757 183.467 36.7544 183.556H36.2219V181.515H37.3757C38.0266 181.515 38.5888 181.515 39.0621 181.515C39.5355 181.515 39.9053 181.5 40.1716 181.47C40.4379 181.441 40.6746 181.396 40.8817 181.337C41.0888 181.278 41.2071 181.248 41.2367 181.248C41.2663 181.248 41.355 181.174 41.503 181.027C41.6509 180.879 41.7396 180.819 41.7692 180.849V157.905Z" fill="white"/>
<path d="M200.772 132.965C199.973 132.965 199.352 132.713 198.908 132.21C198.464 131.707 198.228 131.056 198.198 130.258C198.198 128.63 198.908 127.181 200.328 125.908C201.749 124.636 203.464 124 205.476 124C206.512 124 207.163 124.015 207.429 124.044C209.618 124.4 211.29 125.184 212.444 126.397C213.598 127.61 214.189 128.926 214.219 130.346C214.219 131.885 213.716 133.379 212.71 134.829C211.704 136.278 210.314 137.329 208.538 137.979L208.405 138.068C208.405 138.098 208.538 138.142 208.805 138.201C209.071 138.26 209.5 138.394 210.092 138.601C210.683 138.808 211.246 139.118 211.778 139.533C214.204 141.101 215.417 143.172 215.417 145.746C215.417 148.083 214.5 150.124 212.666 151.87C210.831 153.616 208.509 154.488 205.698 154.488C203.331 154.488 201.29 153.852 199.574 152.58C197.858 151.308 197 149.695 197 147.743C197 146.914 197.266 146.249 197.799 145.746C198.331 145.243 198.997 144.976 199.796 144.947C200.624 144.947 201.305 145.213 201.837 145.746C202.37 146.278 202.636 146.944 202.636 147.743C202.636 148.068 202.592 148.364 202.503 148.63C202.414 148.897 202.311 149.133 202.192 149.34C202.074 149.547 201.911 149.725 201.704 149.873C201.497 150.021 201.32 150.139 201.172 150.228C201.024 150.317 200.876 150.376 200.728 150.405C200.58 150.435 200.462 150.479 200.373 150.539L200.195 150.583C201.704 151.914 203.538 152.58 205.698 152.58C207.325 152.58 208.553 151.796 209.382 150.228C209.885 149.252 210.136 147.758 210.136 145.746V144.858C210.136 142.047 209.189 140.169 207.296 139.222C206.852 139.044 205.95 138.941 204.589 138.911L202.725 138.867L202.592 138.778C202.533 138.689 202.503 138.453 202.503 138.068C202.503 137.536 202.621 137.269 202.858 137.269C203.686 137.269 204.544 137.195 205.432 137.047C206.438 136.9 207.355 136.278 208.183 135.184C209.012 134.089 209.426 132.432 209.426 130.213V129.858C209.426 128.172 208.908 127.003 207.873 126.352C207.222 125.938 206.527 125.731 205.787 125.731C204.84 125.731 203.967 125.894 203.169 126.219C202.37 126.544 201.808 126.885 201.482 127.24C201.157 127.595 200.994 127.772 200.994 127.772H201.127C201.216 127.802 201.334 127.831 201.482 127.861C201.63 127.891 201.778 127.965 201.926 128.083C202.074 128.201 202.251 128.305 202.459 128.394C202.666 128.482 202.814 128.645 202.902 128.882C202.991 129.118 203.109 129.34 203.257 129.547C203.405 129.755 203.45 130.05 203.391 130.435C203.391 131.086 203.183 131.663 202.769 132.166C202.355 132.669 201.689 132.935 200.772 132.965Z" fill="white"/>
<path d="M386.003 65.6656C386.003 60.8431 387.201 57.0266 389.597 54.2159C391.994 51.4053 394.657 49.9999 397.586 49.9999C399.627 49.9999 401.092 50.5325 401.979 51.5976C402.867 52.6627 403.31 53.8461 403.31 55.1479C403.31 55.8875 403.103 56.4792 402.689 56.923C402.275 57.3668 401.698 57.5887 400.958 57.5887C400.278 57.5887 399.716 57.3816 399.272 56.9674C398.828 56.5532 398.606 55.9763 398.606 55.2366C398.606 53.9348 399.302 53.1508 400.692 52.8845C400.041 52.2337 399.124 51.8638 397.941 51.7751C395.84 51.7751 394.109 52.6627 392.748 54.4378C391.358 56.3905 390.663 59.3786 390.663 63.4023L390.707 63.5798C390.855 63.4023 390.973 63.21 391.062 63.0029C392.275 61.2277 393.858 60.3402 395.81 60.3402H395.988C397.349 60.3402 398.547 60.6212 399.583 61.1834C400.293 61.5976 401.003 62.1893 401.713 62.9585C402.423 63.7277 403 64.5709 403.444 65.4881C404.065 66.9378 404.376 68.5206 404.376 70.2366V71.0354C404.376 71.7159 404.302 72.352 404.154 72.9437C403.828 74.6893 402.881 76.3905 401.313 78.0473C399.745 79.7041 397.763 80.5325 395.367 80.5325C394.538 80.5325 393.739 80.4141 392.97 80.1774C392.201 79.9408 391.373 79.497 390.485 78.8461C389.597 78.1952 388.843 77.3224 388.222 76.2277C387.6 75.1331 387.068 73.6982 386.624 71.923C386.18 70.1479 385.973 68.0621 386.003 65.6656ZM395.544 61.9378C394.657 61.9378 393.887 62.1893 393.237 62.6922C392.586 63.1952 392.083 63.8609 391.728 64.6893C391.373 65.5177 391.121 66.3609 390.973 67.2189C390.825 68.0769 390.737 68.994 390.707 69.9703C390.707 72.426 390.884 74.1863 391.239 75.2514C391.594 76.3165 392.157 77.1745 392.926 77.8254C393.636 78.3579 394.42 78.6242 395.278 78.6242C396.787 78.6242 397.941 78.0621 398.739 76.9378C399.124 76.4053 399.39 75.7396 399.538 74.9408C399.686 74.1419 399.76 72.5887 399.76 70.281C399.76 67.9141 399.686 66.3313 399.538 65.5325C399.39 64.7337 399.124 64.068 398.739 63.5354C397.941 62.4703 396.876 61.9378 395.544 61.9378Z" fill="white"/>
<path d="M631.769 3.90527L631.192 4.12716C630.778 4.27509 630.186 4.42302 629.417 4.57095C628.648 4.71888 627.79 4.82243 626.843 4.8816H626V2.84018H626.843C628.234 2.78101 629.521 2.55911 630.704 2.1745C631.888 1.78988 632.716 1.43485 633.189 1.10941C633.663 0.783966 634.077 0.458521 634.432 0.133078C634.491 0.0443202 634.669 -5.72205e-05 634.964 -5.72205e-05C635.231 -5.72205e-05 635.482 0.0886996 635.719 0.266214V13.5354L635.763 26.8491C635.97 27.0562 636.148 27.1893 636.296 27.2485C636.444 27.3076 636.799 27.3668 637.361 27.426C637.923 27.4851 638.84 27.5147 640.112 27.5147H641.266V29.5562H640.778C640.157 29.4674 637.805 29.423 633.722 29.423C629.698 29.423 627.376 29.4674 626.754 29.5562H626.222V27.5147H627.376C628.027 27.5147 628.589 27.5147 629.062 27.5147C629.536 27.5147 629.905 27.4999 630.172 27.4704C630.438 27.4408 630.675 27.3964 630.882 27.3372C631.089 27.278 631.207 27.2485 631.237 27.2485C631.266 27.2485 631.355 27.1745 631.503 27.0266C631.651 26.8786 631.74 26.8195 631.769 26.8491V3.90527Z" fill="white"/>
<path d="M648.766 3.59485C650.423 1.1984 652.686 0.000173569 655.556 0.000173569C656.976 0.000173569 658.396 0.384788 659.816 1.15402C661.236 1.92325 662.39 3.2842 663.278 5.23686C664.372 7.69248 664.92 11.0653 664.92 15.3552C664.92 19.941 664.284 23.4469 663.011 25.873C662.42 27.1156 661.606 28.1067 660.571 28.8463C659.535 29.586 658.633 30.0445 657.864 30.2221C657.094 30.3996 656.34 30.5031 655.6 30.5327C654.831 30.5327 654.062 30.444 653.293 30.2664C652.523 30.0889 651.621 29.6156 650.585 28.8463C649.55 28.0771 648.736 27.086 648.145 25.873C646.872 23.4469 646.236 19.941 646.236 15.3552C646.236 10.2073 647.08 6.28715 648.766 3.59485ZM658.751 3.0623C657.864 2.11556 656.813 1.64219 655.6 1.64219C654.358 1.64219 653.293 2.11556 652.405 3.0623C651.665 3.83153 651.177 4.89662 650.94 6.25757C650.704 7.61851 650.585 10.4588 650.585 14.7783C650.585 19.4528 650.704 22.5298 650.94 24.009C651.177 25.4883 651.71 26.657 652.538 27.515C653.367 28.4025 654.387 28.8463 655.6 28.8463C656.784 28.8463 657.79 28.4025 658.618 27.515C659.476 26.6274 660.009 25.3848 660.216 23.7872C660.423 22.1895 660.541 19.1866 660.571 14.7783C660.571 10.4883 660.452 7.6629 660.216 6.30195C659.979 4.941 659.491 3.86112 658.751 3.0623Z" fill="white"/>
<path d="M137.05 433.317C137.05 432.547 137.317 431.911 137.849 431.408C138.382 430.905 139.018 430.654 139.757 430.654C140.467 430.654 141.074 430.905 141.577 431.408C142.08 431.911 142.346 432.547 142.376 433.317C142.405 434.086 142.154 434.722 141.621 435.225C141.089 435.728 140.453 435.979 139.713 435.979C138.944 435.979 138.308 435.728 137.805 435.225C137.302 434.722 137.05 434.086 137.05 433.317ZM128.663 449.87C129.432 449.87 130.053 450.121 130.527 450.624C131 451.127 131.251 451.763 131.281 452.533C131.281 453.243 131.044 453.864 130.571 454.396C130.098 454.929 129.447 455.195 128.618 455.195C127.849 455.195 127.228 454.944 126.754 454.441C126.281 453.938 126.03 453.302 126 452.533C126 451.763 126.251 451.127 126.754 450.624C127.257 450.121 127.893 449.87 128.663 449.87ZM148.189 452.533C148.189 451.763 148.441 451.127 148.944 450.624C149.447 450.121 150.083 449.87 150.852 449.87C151.562 449.87 152.169 450.121 152.672 450.624C153.175 451.127 153.441 451.763 153.47 452.533C153.47 453.213 153.234 453.82 152.76 454.352C152.287 454.885 151.636 455.166 150.808 455.195C150.038 455.195 149.417 454.944 148.944 454.441C148.47 453.938 148.219 453.302 148.189 452.533Z" fill="white"/>
<path d="M194.002 436.157C194.002 435.772 194.209 435.476 194.623 435.269H205.407L207.271 428.302C208.425 423.805 209.106 421.408 209.313 421.112C209.461 420.876 209.682 420.757 209.978 420.757C210.511 420.757 210.807 421.024 210.866 421.556C210.866 421.674 210.274 423.953 209.091 428.39C207.878 432.769 207.271 435.032 207.271 435.18L207.227 435.269H215.614L217.478 428.302C218.691 423.716 219.357 421.334 219.475 421.157C219.653 420.89 219.89 420.757 220.185 420.757C220.392 420.757 220.585 420.831 220.762 420.979C220.94 421.127 221.029 421.29 221.029 421.467C221.029 421.763 220.452 424.071 219.298 428.39C218.085 432.769 217.478 435.032 217.478 435.18L217.434 435.269H225.333C225.777 435.506 225.999 435.802 225.999 436.157C225.999 436.541 225.851 436.778 225.555 436.867C225.259 436.955 224.594 437.015 223.558 437.044H221.117H216.901L216.014 440.417L215.082 443.834C215.082 443.864 216.798 443.879 220.23 443.879H223.469C224.534 443.879 225.215 443.923 225.511 444.012C225.807 444.1 225.969 444.352 225.999 444.766C226.029 445.18 225.807 445.476 225.333 445.654H214.549L212.685 452.621C211.472 457.207 210.807 459.589 210.688 459.766C210.511 460.032 210.274 460.166 209.978 460.166C209.771 460.166 209.579 460.092 209.401 459.944C209.224 459.796 209.135 459.618 209.135 459.411C209.135 459.115 209.712 456.808 210.866 452.488C212.079 448.168 212.685 445.92 212.685 445.742L212.73 445.654H204.342L202.478 452.621C201.265 457.207 200.6 459.589 200.481 459.766C200.304 460.032 200.067 460.166 199.771 460.166C199.564 460.166 199.372 460.092 199.194 459.944C199.017 459.796 198.928 459.618 198.928 459.411C198.928 459.115 199.505 456.808 200.659 452.488C201.872 448.168 202.478 445.92 202.478 445.742L202.523 445.654H194.623C194.209 445.447 194.002 445.151 194.002 444.766C194.002 444.322 194.239 444.026 194.712 443.879H203.055L203.943 440.506L204.875 437.089C204.875 437.059 203.174 437.044 199.771 437.044H194.712C194.239 436.896 194.002 436.6 194.002 436.157ZM215.082 437.089C215.082 437.059 213.691 437.044 210.91 437.044H206.694L205.807 440.417L204.875 443.834C204.875 443.864 206.265 443.879 209.046 443.879H213.262L214.15 440.506L215.082 437.089Z" fill="white"/>
<path d="M230.259 432.163C229.697 432.163 229.416 432.044 229.416 431.808C229.416 431.66 229.653 430.831 230.126 429.322C230.599 427.814 231.102 426.319 231.635 424.84L232.389 422.666C232.537 422.133 232.73 421.748 232.966 421.512H253.736H257.73C258.676 421.512 259.239 421.527 259.416 421.556C259.594 421.586 259.697 421.719 259.727 421.956C259.727 422.133 259.475 423.819 258.972 427.015C258.469 430.21 258.188 431.822 258.129 431.852C258.129 432.059 257.848 432.163 257.286 432.163C257.02 432.163 256.842 432.163 256.753 432.163C256.665 432.163 256.576 432.089 256.487 431.941L256.398 431.808C256.398 431.63 256.487 430.964 256.665 429.811C256.842 428.657 256.931 427.754 256.931 427.103C256.931 426.068 256.739 425.284 256.354 424.751C255.969 424.219 255.156 423.849 253.913 423.642C253.765 423.612 252.907 423.583 251.339 423.553C249.978 423.553 249.12 423.568 248.765 423.598C248.41 423.627 248.144 423.746 247.966 423.953C247.937 423.982 246.886 428.109 244.815 436.334C242.744 444.559 241.709 448.746 241.709 448.893C241.709 449.248 243.011 449.456 245.614 449.515C246.561 449.515 247.167 449.53 247.434 449.559C247.7 449.589 247.833 449.722 247.833 449.959C247.833 450.106 247.789 450.314 247.7 450.58C247.582 451.112 247.449 451.423 247.301 451.512L247.212 451.556C247.123 451.556 247.02 451.556 246.901 451.556C246.753 451.556 245.984 451.541 244.594 451.512C243.203 451.482 241.206 451.467 238.602 451.467C234.786 451.467 232.36 451.497 231.324 451.556H230.659C230.481 451.379 230.392 451.246 230.392 451.157C230.392 451.068 230.422 450.802 230.481 450.358C230.599 449.973 230.747 449.692 230.925 449.515H232.167H232.656C235.023 449.515 236.428 449.382 236.872 449.115C236.901 449.086 236.931 449.071 236.96 449.071C237.108 448.982 237.256 448.686 237.404 448.183C237.552 447.68 238.144 445.358 239.179 441.216C239.682 439.204 240.096 437.562 240.422 436.29C242.493 428.154 243.528 423.997 243.528 423.819C243.528 423.672 243.099 423.598 242.241 423.598H240.866C238.883 423.598 237.582 423.686 236.96 423.864C235.629 424.16 234.594 424.766 233.854 425.683C233.114 426.601 232.315 428.317 231.457 430.831C231.25 431.482 231.102 431.867 231.014 431.985C230.925 432.103 230.718 432.163 230.392 432.163H230.259Z" fill="white"/>
<path d="M274.54 436.157C274.54 435.772 274.747 435.476 275.161 435.269H303.431C303.874 435.506 304.096 435.801 304.096 436.157C304.096 436.482 303.889 436.763 303.475 437L289.363 437.044H275.25C274.777 436.896 274.54 436.6 274.54 436.157ZM274.54 444.766C274.54 444.322 274.777 444.026 275.25 443.878H303.475C303.889 444.174 304.096 444.47 304.096 444.766C304.096 445.151 303.874 445.446 303.431 445.654H275.161C274.747 445.446 274.54 445.151 274.54 444.766Z" fill="white"/>
<path d="M333.51 402.518C332.711 402.518 332.075 402.252 331.602 401.719C331.128 401.187 330.892 400.536 330.892 399.766C330.892 397.666 331.676 395.846 333.244 394.308C334.812 392.769 336.764 392 339.102 392C341.794 392 344.042 392.829 345.847 394.485C347.652 396.142 348.569 398.287 348.599 400.92C348.599 402.192 348.303 403.406 347.711 404.559C347.119 405.713 346.409 406.719 345.581 407.577C344.753 408.435 343.569 409.53 342.031 410.861C340.966 411.778 339.486 413.139 337.593 414.944L334.974 417.429L338.347 417.474C342.992 417.474 345.463 417.4 345.758 417.252C345.966 417.192 346.321 415.876 346.824 413.302V413.169H348.599V413.302C348.569 413.391 348.377 414.737 348.022 417.34C347.667 419.944 347.445 421.305 347.356 421.423V421.556H330.892V420.713V420.181C330.892 419.974 330.98 419.752 331.158 419.515C331.335 419.278 331.779 418.761 332.489 417.962C333.347 417.015 334.087 416.187 334.708 415.477C334.974 415.181 335.477 414.633 336.217 413.835C336.957 413.036 337.46 412.488 337.726 412.192C337.992 411.897 338.421 411.408 339.013 410.728C339.605 410.048 340.019 409.545 340.256 409.219C340.492 408.894 340.832 408.45 341.276 407.888C341.72 407.326 342.031 406.852 342.208 406.468C342.386 406.083 342.608 405.654 342.874 405.181C343.14 404.707 343.332 404.234 343.451 403.761C343.569 403.287 343.673 402.843 343.761 402.429C343.85 402.015 343.895 401.527 343.895 400.965C343.895 399.101 343.392 397.488 342.386 396.127C341.38 394.766 339.945 394.086 338.081 394.086C337.105 394.086 336.247 394.337 335.507 394.84C334.767 395.343 334.25 395.832 333.954 396.305C333.658 396.778 333.51 397.059 333.51 397.148C333.51 397.178 333.584 397.192 333.732 397.192C334.264 397.192 334.812 397.4 335.374 397.814C335.936 398.228 336.217 398.908 336.217 399.855C336.217 400.595 335.98 401.216 335.507 401.719C335.034 402.222 334.368 402.488 333.51 402.518Z" fill="white"/>
<path d="M355.122 395.595C356.779 393.199 359.042 392 361.912 392C363.332 392 364.753 392.385 366.173 393.154C367.593 393.923 368.747 395.284 369.634 397.237C370.729 399.693 371.276 403.066 371.276 407.355C371.276 411.941 370.64 415.447 369.368 417.873C368.776 419.116 367.963 420.107 366.927 420.847C365.892 421.586 364.989 422.045 364.22 422.222C363.451 422.4 362.696 422.503 361.957 422.533C361.187 422.533 360.418 422.444 359.649 422.267C358.88 422.089 357.977 421.616 356.942 420.847C355.906 420.077 355.093 419.086 354.501 417.873C353.229 415.447 352.593 411.941 352.593 407.355C352.593 402.208 353.436 398.287 355.122 395.595ZM365.108 395.063C364.22 394.116 363.17 393.642 361.957 393.642C360.714 393.642 359.649 394.116 358.761 395.063C358.022 395.832 357.534 396.897 357.297 398.258C357.06 399.619 356.942 402.459 356.942 406.779C356.942 411.453 357.06 414.53 357.297 416.009C357.534 417.489 358.066 418.657 358.895 419.515C359.723 420.403 360.744 420.847 361.957 420.847C363.14 420.847 364.146 420.403 364.974 419.515C365.832 418.628 366.365 417.385 366.572 415.787C366.779 414.19 366.898 411.187 366.927 406.779C366.927 402.489 366.809 399.663 366.572 398.302C366.335 396.941 365.847 395.861 365.108 395.063Z" fill="white"/>
<path d="M410.869 420.27C410.869 420.862 410.558 421.158 409.937 421.158C409.789 421.158 409.463 420.921 408.96 420.448C408.457 419.974 407.067 418.599 404.789 416.32L400.173 411.705L395.513 416.365C392.377 419.442 390.765 421.01 390.676 421.069C390.558 421.128 390.454 421.158 390.366 421.158C390.129 421.158 389.922 421.069 389.744 420.891C389.567 420.714 389.463 420.507 389.434 420.27C389.434 420.063 389.641 419.738 390.055 419.294C390.469 418.85 391.86 417.445 394.226 415.078L398.842 410.462L394.226 405.847C391.83 403.451 390.44 402.045 390.055 401.631C389.67 401.217 389.463 400.891 389.434 400.655C389.434 400.388 389.522 400.181 389.7 400.033C389.877 399.886 390.099 399.812 390.366 399.812C390.513 399.812 390.617 399.826 390.676 399.856C390.765 399.915 392.377 401.483 395.513 404.56L400.173 409.22L404.789 404.604C407.067 402.326 408.457 400.951 408.96 400.477C409.463 400.004 409.789 399.767 409.937 399.767C410.558 399.767 410.869 400.063 410.869 400.655C410.869 400.862 410.721 401.128 410.425 401.454C410.129 401.779 408.679 403.229 406.076 405.803L401.46 410.462L406.076 415.122C408.561 417.607 409.981 419.042 410.336 419.427C410.691 419.812 410.869 420.093 410.869 420.27Z" fill="white"/>
<path d="M432.139 402.518C431.34 402.518 430.704 402.252 430.231 401.719C429.757 401.187 429.521 400.536 429.521 399.766C429.521 397.666 430.305 395.846 431.873 394.308C433.441 392.769 435.393 392 437.731 392C440.423 392 442.671 392.829 444.476 394.485C446.281 396.142 447.198 398.287 447.228 400.92C447.228 402.192 446.932 403.406 446.34 404.559C445.748 405.713 445.038 406.719 444.21 407.577C443.381 408.435 442.198 409.53 440.66 410.861C439.594 411.778 438.115 413.139 436.222 414.944L433.603 417.429L436.976 417.474C441.621 417.474 444.092 417.4 444.387 417.252C444.594 417.192 444.95 415.876 445.452 413.302V413.169H447.228V413.302C447.198 413.391 447.006 414.737 446.651 417.34C446.296 419.944 446.074 421.305 445.985 421.423V421.556H429.521V420.713V420.181C429.521 419.974 429.609 419.752 429.787 419.515C429.964 419.278 430.408 418.761 431.118 417.962C431.976 417.015 432.716 416.187 433.337 415.477C433.603 415.181 434.106 414.633 434.846 413.835C435.586 413.036 436.089 412.488 436.355 412.192C436.621 411.897 437.05 411.408 437.642 410.728C438.234 410.048 438.648 409.545 438.884 409.219C439.121 408.894 439.461 408.45 439.905 407.888C440.349 407.326 440.66 406.852 440.837 406.468C441.015 406.083 441.236 405.654 441.503 405.181C441.769 404.707 441.961 404.234 442.08 403.761C442.198 403.287 442.302 402.843 442.39 402.429C442.479 402.015 442.523 401.527 442.523 400.965C442.523 399.101 442.021 397.488 441.015 396.127C440.009 394.766 438.574 394.086 436.71 394.086C435.734 394.086 434.876 394.337 434.136 394.84C433.396 395.343 432.878 395.832 432.583 396.305C432.287 396.778 432.139 397.059 432.139 397.148C432.139 397.178 432.213 397.192 432.361 397.192C432.893 397.192 433.441 397.4 434.003 397.814C434.565 398.228 434.846 398.908 434.846 399.855C434.846 400.595 434.609 401.216 434.136 401.719C433.663 402.222 432.997 402.488 432.139 402.518Z" fill="white"/>
<path d="M458.944 395.906L458.367 396.127C457.953 396.275 457.361 396.423 456.592 396.571C455.823 396.719 454.965 396.823 454.018 396.882H453.175V394.84H454.018C455.409 394.781 456.696 394.559 457.879 394.175C459.062 393.79 459.891 393.435 460.364 393.11C460.838 392.784 461.252 392.459 461.607 392.133C461.666 392.045 461.843 392 462.139 392C462.406 392 462.657 392.089 462.894 392.266V405.536L462.938 418.849C463.145 419.056 463.323 419.19 463.471 419.249C463.619 419.308 463.974 419.367 464.536 419.426C465.098 419.485 466.015 419.515 467.287 419.515H468.441V421.556H467.953C467.332 421.468 464.98 421.423 460.897 421.423C456.873 421.423 454.551 421.468 453.929 421.556H453.397V419.515H454.551C455.201 419.515 455.764 419.515 456.237 419.515C456.71 419.515 457.08 419.5 457.346 419.471C457.613 419.441 457.849 419.397 458.056 419.337C458.264 419.278 458.382 419.249 458.411 419.249C458.441 419.249 458.53 419.175 458.678 419.027C458.826 418.879 458.914 418.82 458.944 418.849V395.906Z" fill="white"/>
<path d="M393.919 462.962C393.12 462.962 392.484 462.695 392.011 462.163C391.537 461.63 391.301 460.979 391.301 460.21C391.301 458.109 392.085 456.29 393.653 454.751C395.221 453.213 397.174 452.444 399.511 452.444C402.203 452.444 404.452 453.272 406.256 454.929C408.061 456.586 408.978 458.731 409.008 461.364C409.008 462.636 408.712 463.849 408.12 465.003C407.529 466.157 406.819 467.163 405.99 468.021C405.162 468.879 403.978 469.973 402.44 471.305C401.375 472.222 399.895 473.583 398.002 475.388L395.384 477.873L398.756 477.917C403.401 477.917 405.872 477.843 406.168 477.695C406.375 477.636 406.73 476.32 407.233 473.746V473.612H409.008V473.746C408.978 473.834 408.786 475.18 408.431 477.784C408.076 480.388 407.854 481.749 407.765 481.867V482H391.301V481.157V480.624C391.301 480.417 391.39 480.195 391.567 479.959C391.745 479.722 392.188 479.204 392.898 478.405C393.756 477.459 394.496 476.63 395.117 475.92C395.384 475.624 395.887 475.077 396.626 474.278C397.366 473.479 397.869 472.932 398.135 472.636C398.401 472.34 398.83 471.852 399.422 471.172C400.014 470.491 400.428 469.988 400.665 469.663C400.901 469.337 401.242 468.893 401.685 468.331C402.129 467.769 402.44 467.296 402.617 466.911C402.795 466.527 403.017 466.098 403.283 465.624C403.549 465.151 403.742 464.678 403.86 464.204C403.978 463.731 404.082 463.287 404.171 462.873C404.259 462.459 404.304 461.97 404.304 461.408C404.304 459.544 403.801 457.932 402.795 456.571C401.789 455.21 400.354 454.53 398.49 454.53C397.514 454.53 396.656 454.781 395.916 455.284C395.177 455.787 394.659 456.275 394.363 456.749C394.067 457.222 393.919 457.503 393.919 457.592C393.919 457.621 393.993 457.636 394.141 457.636C394.674 457.636 395.221 457.843 395.783 458.257C396.345 458.672 396.626 459.352 396.626 460.299C396.626 461.038 396.39 461.66 395.916 462.163C395.443 462.666 394.777 462.932 393.919 462.962Z" fill="white"/>
<path d="M476.117 441.793H324.235V439.13H476.117V441.793Z" fill="white"/>
<path d="M496.257 436.157C496.257 435.772 496.464 435.476 496.878 435.269H525.147C525.591 435.506 525.813 435.801 525.813 436.157C525.813 436.482 525.606 436.763 525.192 437L511.079 437.044H496.967C496.494 436.896 496.257 436.6 496.257 436.157ZM496.257 444.766C496.257 444.322 496.494 444.026 496.967 443.878H525.192C525.606 444.174 525.813 444.47 525.813 444.766C525.813 445.151 525.591 445.446 525.147 445.654H496.878C496.464 445.446 496.257 445.151 496.257 444.766Z" fill="white"/>
<path d="M545.464 432.517C544.665 432.517 544.029 432.251 543.556 431.719C543.082 431.186 542.846 430.535 542.846 429.766C542.846 427.665 543.63 425.846 545.198 424.307C546.766 422.769 548.718 422 551.056 422C553.748 422 555.997 422.828 557.801 424.485C559.606 426.142 560.523 428.287 560.553 430.92C560.553 432.192 560.257 433.405 559.665 434.559C559.074 435.713 558.363 436.719 557.535 437.577C556.707 438.435 555.523 439.529 553.985 440.861C552.92 441.778 551.44 443.139 549.547 444.943L546.929 447.429L550.301 447.473C554.946 447.473 557.417 447.399 557.713 447.251C557.92 447.192 558.275 445.875 558.778 443.301V443.168H560.553V443.301C560.523 443.39 560.331 444.736 559.976 447.34C559.621 449.943 559.399 451.304 559.31 451.423V451.556H542.846V450.713V450.18C542.846 449.973 542.934 449.751 543.112 449.514C543.289 449.278 543.733 448.76 544.443 447.961C545.301 447.014 546.041 446.186 546.662 445.476C546.929 445.18 547.432 444.633 548.171 443.834C548.911 443.035 549.414 442.488 549.68 442.192C549.946 441.896 550.375 441.408 550.967 440.728C551.559 440.047 551.973 439.544 552.21 439.219C552.446 438.893 552.787 438.449 553.23 437.887C553.674 437.325 553.985 436.852 554.162 436.467C554.34 436.083 554.562 435.654 554.828 435.18C555.094 434.707 555.287 434.233 555.405 433.76C555.523 433.287 555.627 432.843 555.716 432.429C555.804 432.014 555.849 431.526 555.849 430.964C555.849 429.1 555.346 427.488 554.34 426.127C553.334 424.766 551.899 424.085 550.035 424.085C549.059 424.085 548.201 424.337 547.461 424.84C546.721 425.343 546.204 425.831 545.908 426.304C545.612 426.778 545.464 427.059 545.464 427.148C545.464 427.177 545.538 427.192 545.686 427.192C546.218 427.192 546.766 427.399 547.328 427.813C547.89 428.228 548.171 428.908 548.171 429.855C548.171 430.594 547.934 431.216 547.461 431.719C546.988 432.222 546.322 432.488 545.464 432.517Z" fill="white"/>
<path d="M572.269 425.905L571.692 426.127C571.278 426.275 570.686 426.423 569.917 426.571C569.148 426.719 568.29 426.822 567.343 426.881H566.5V424.84H567.343C568.734 424.781 570.021 424.559 571.204 424.174C572.388 423.79 573.216 423.435 573.689 423.109C574.163 422.784 574.577 422.458 574.932 422.133C574.991 422.044 575.169 422 575.464 422C575.731 422 575.982 422.088 576.219 422.266V435.535L576.263 448.849C576.47 449.056 576.648 449.189 576.796 449.248C576.944 449.307 577.299 449.367 577.861 449.426C578.423 449.485 579.34 449.514 580.612 449.514H581.766V451.556H581.278C580.657 451.467 578.305 451.423 574.222 451.423C570.198 451.423 567.876 451.467 567.254 451.556H566.722V449.514H567.876C568.527 449.514 569.089 449.514 569.562 449.514C570.036 449.514 570.405 449.5 570.672 449.47C570.938 449.441 571.175 449.396 571.382 449.337C571.589 449.278 571.707 449.248 571.737 449.248C571.766 449.248 571.855 449.174 572.003 449.026C572.151 448.878 572.24 448.819 572.269 448.849V425.905Z" fill="white"/>
<path d="M589.266 425.595C590.923 423.198 593.186 422 596.056 422C597.476 422 598.896 422.385 600.316 423.154C601.736 423.923 602.89 425.284 603.778 427.237C604.872 429.692 605.42 433.065 605.42 437.355C605.42 441.941 604.784 445.447 603.511 447.873C602.92 449.115 602.106 450.106 601.071 450.846C600.035 451.586 599.133 452.044 598.364 452.222C597.594 452.399 596.84 452.503 596.1 452.532C595.331 452.532 594.562 452.444 593.793 452.266C593.023 452.089 592.121 451.615 591.085 450.846C590.05 450.077 589.236 449.086 588.645 447.873C587.372 445.447 586.736 441.941 586.736 437.355C586.736 432.207 587.58 428.287 589.266 425.595ZM599.251 425.062C598.364 424.115 597.313 423.642 596.1 423.642C594.858 423.642 593.793 424.115 592.905 425.062C592.165 425.831 591.677 426.896 591.44 428.257C591.204 429.618 591.085 432.459 591.085 436.778C591.085 441.453 591.204 444.53 591.44 446.009C591.677 447.488 592.21 448.657 593.038 449.515C593.867 450.402 594.887 450.846 596.1 450.846C597.284 450.846 598.29 450.402 599.118 449.515C599.976 448.627 600.509 447.385 600.716 445.787C600.923 444.189 601.041 441.186 601.071 436.778C601.071 432.488 600.952 429.663 600.716 428.302C600.479 426.941 599.991 425.861 599.251 425.062Z" fill="white"/>
</svg>
