<svg viewBox="0 0 1000 769" fill="none" xmlns="http://www.w3.org/2000/svg">
<g id="0127108">
<g id="enunciado">
<g id="Group 71">
<path id="Rectangle 1" d="M45 66.8563C45 31.8082 67.5821 3.39618 95.4386 3.39618H965V442.54C965 477.588 942.418 506 914.561 506H45V66.8563Z" fill="#02071A"/>
<path id="Rectangle 1 (Stroke)" fill-rule="evenodd" clip-rule="evenodd" d="M959.956 9.68999H95.4386C70.3678 9.68999 50.0439 35.2635 50.0439 66.81V499.653H914.561C939.632 499.653 959.956 474.079 959.956 442.533V9.68999ZM95.4386 3.34332C67.5821 3.34332 45 31.7583 45 66.81V506H914.561C942.418 506 965 477.585 965 442.533V3.34332H95.4386Z" fill="#CD08D1"/>
<path id="Rectangle 14" d="M99.6251 3.51015C126.602 -4.38768 965 3.51015 965 3.51015V37.7015C965 37.7015 85.351 25.1343 54.0791 37.7015C63.8095 19.5669 72.6481 11.408 99.6251 3.51015Z" fill="#CD08D1"/>
<path id="Rectangle 15" d="M933.076 10.8672H963.065V443.848C959.384 473.231 951.755 484.03 933.076 498.126C938.573 475.042 933.076 10.8672 933.076 10.8672Z" fill="#CD08D1"/>
</g>
<g id="Group 165">
<g id="Group 164">
<g id="F1">
<path d="M184.086 439.697H173.346V451H169.971V425.406H185.826V428.184H173.346V436.938H184.086V439.697Z" fill="white"/>
<path d="M193.306 451H191.671V440.163L188.393 441.367V439.891L193.051 438.142H193.306V451Z" fill="white"/>
</g>
<g id="F2">
<path d="M386.086 439.697H375.346V451H371.971V425.406H387.826V428.184H375.346V436.938H386.086V439.697Z" fill="white"/>
<path d="M398.347 451H389.962V449.831L394.392 444.909C395.048 444.165 395.499 443.562 395.745 443.099C395.997 442.63 396.123 442.146 396.123 441.648C396.123 440.98 395.921 440.433 395.517 440.005C395.112 439.577 394.573 439.363 393.899 439.363C393.091 439.363 392.461 439.595 392.01 440.058C391.564 440.515 391.342 441.153 391.342 441.974H389.716C389.716 440.796 390.094 439.844 390.85 439.117C391.611 438.391 392.628 438.027 393.899 438.027C395.089 438.027 396.029 438.341 396.721 438.968C397.412 439.589 397.758 440.418 397.758 441.455C397.758 442.715 396.955 444.215 395.35 445.955L391.922 449.673H398.347V451Z" fill="white"/>
</g>
<g id="F3">
<path d="M588.086 439.697H577.346V451H573.971V425.406H589.826V428.184H577.346V436.938H588.086V439.697Z" fill="white"/>
<path d="M594.326 443.811H595.548C596.315 443.799 596.919 443.597 597.358 443.204C597.798 442.812 598.018 442.281 598.018 441.613C598.018 440.113 597.271 439.363 595.776 439.363C595.073 439.363 594.511 439.565 594.089 439.97C593.673 440.368 593.465 440.898 593.465 441.561H591.839C591.839 440.547 592.208 439.706 592.946 439.038C593.69 438.364 594.634 438.027 595.776 438.027C596.983 438.027 597.93 438.347 598.615 438.985C599.301 439.624 599.644 440.512 599.644 441.648C599.644 442.205 599.462 442.744 599.099 443.266C598.741 443.787 598.252 444.177 597.631 444.435C598.334 444.657 598.876 445.026 599.257 445.542C599.644 446.058 599.837 446.688 599.837 447.432C599.837 448.58 599.462 449.491 598.712 450.165C597.962 450.839 596.986 451.176 595.785 451.176C594.584 451.176 593.605 450.851 592.85 450.2C592.1 449.55 591.725 448.691 591.725 447.625H593.359C593.359 448.299 593.579 448.838 594.019 449.242C594.458 449.646 595.047 449.849 595.785 449.849C596.57 449.849 597.171 449.644 597.587 449.233C598.003 448.823 598.211 448.234 598.211 447.467C598.211 446.723 597.982 446.151 597.525 445.753C597.068 445.354 596.409 445.149 595.548 445.138H594.326V443.811Z" fill="white"/>
</g>
<g id="F4">
<path d="M800.086 439.697H789.346V451H785.971V425.406H801.826V428.184H789.346V436.938H800.086V439.697Z" fill="white"/>
<path d="M810.826 446.702H812.602V448.029H810.826V451H809.191V448.029H803.364V447.071L809.095 438.203H810.826V446.702ZM805.21 446.702H809.191V440.427L808.998 440.778L805.21 446.702Z" fill="white"/>
</g>
</g>
<g id="Group 163">
<path id="Polygon 15 (Stroke)" fill-rule="evenodd" clip-rule="evenodd" d="M178.59 201.468L81 400H280.583L178.59 201.468ZM178.668 210.375L87.4234 396H274.031L178.668 210.375Z" fill="white"/>
<g id="Group 158">
<path id="Polygon 19 (Stroke)" fill-rule="evenodd" clip-rule="evenodd" d="M330.806 300.551L282.101 399.633H381.708L330.806 300.551ZM330.885 309.457L288.524 395.633H375.156L330.885 309.457Z" fill="white"/>
<path id="Polygon 20 (Stroke)" fill-rule="evenodd" clip-rule="evenodd" d="M430.622 300.551L381.917 399.633H481.525L430.622 300.551ZM430.701 309.457L388.341 395.633H474.973L430.701 309.457Z" fill="white"/>
<path id="Polygon 16 (Stroke)" fill-rule="evenodd" clip-rule="evenodd" d="M379.691 201.468L282.101 400H481.684L379.691 201.468ZM379.77 210.375L288.524 396H475.132L379.77 210.375Z" fill="white"/>
</g>
<g id="Group 161">
<path id="Polygon 27 (Stroke)" fill-rule="evenodd" clip-rule="evenodd" d="M659.481 348.991L635.128 398.532H684.932L659.481 348.991ZM659.56 357.898L641.552 394.532H678.38L659.56 357.898Z" fill="white"/>
<path id="Polygon 26 (Stroke)" fill-rule="evenodd" clip-rule="evenodd" d="M609.572 348.991L585.22 398.532H635.023L609.572 348.991ZM609.651 357.898L591.643 394.532H628.471L609.651 357.898Z" fill="white"/>
<path id="Polygon 25 (Stroke)" fill-rule="evenodd" clip-rule="evenodd" d="M559.664 348.991L535.312 398.532H585.115L559.664 348.991ZM559.743 357.898L541.735 394.532H578.563L559.743 357.898Z" fill="white"/>
<path id="Polygon 24 (Stroke)" fill-rule="evenodd" clip-rule="evenodd" d="M509.756 348.991L485.403 398.532H535.207L509.756 348.991ZM509.834 357.898L491.827 394.532H528.655L509.834 357.898Z" fill="white"/>
<g id="Group 159">
<path id="Polygon 17 (Stroke)" fill-rule="evenodd" clip-rule="evenodd" d="M582.993 200.734L485.403 399.266H684.986L582.993 200.734ZM583.072 209.641L491.827 395.266H678.435L583.072 209.641Z" fill="white"/>
<path id="Polygon 19 (Stroke)_2" fill-rule="evenodd" clip-rule="evenodd" d="M534.108 299.816L485.403 398.899H585.01L534.108 299.816ZM534.187 308.723L491.827 394.899H578.458L534.187 308.723Z" fill="white"/>
<path id="Polygon 20 (Stroke)_2" fill-rule="evenodd" clip-rule="evenodd" d="M633.924 299.816L585.22 398.899H684.827L633.924 299.816ZM634.003 308.723L591.643 394.899H678.275L634.003 308.723Z" fill="white"/>
</g>
</g>
<g id="Group 162">
<path id="Polygon 23 (Stroke)" fill-rule="evenodd" clip-rule="evenodd" d="M870.123 348.991L845.771 398.532H895.574L870.123 348.991ZM870.202 357.898L852.194 394.532H889.022L870.202 357.898Z" fill="white"/>
<path id="Polygon 30 (Stroke)" fill-rule="evenodd" clip-rule="evenodd" d="M820.215 348.257L795.862 397.798H845.666L820.215 348.257ZM820.293 357.164L802.286 393.798H839.114L820.293 357.164Z" fill="white"/>
<path id="Polygon 29 (Stroke)" fill-rule="evenodd" clip-rule="evenodd" d="M770.306 348.991L745.954 398.532H795.758L770.306 348.991ZM770.385 357.898L752.377 394.532H789.206L770.385 357.898Z" fill="white"/>
<path id="Polygon 28 (Stroke)" fill-rule="evenodd" clip-rule="evenodd" d="M720.398 348.257L696.046 397.798H745.849L720.398 348.257ZM720.477 357.164L702.469 393.798H739.298L720.477 357.164Z" fill="white"/>
<path id="Polygon 31 (Stroke)" fill-rule="evenodd" clip-rule="evenodd" d="M881.047 371.009L867.789 397.982H894.904L881.047 371.009ZM881.086 375.463L871 395.982H891.628L881.086 375.463Z" fill="white"/>
<path id="Polygon 38 (Stroke)" fill-rule="evenodd" clip-rule="evenodd" d="M859.763 371.009L846.504 397.982H873.62L859.763 371.009ZM859.802 375.463L849.716 395.982H870.344L859.802 375.463Z" fill="white"/>
<path id="Polygon 37 (Stroke)" fill-rule="evenodd" clip-rule="evenodd" d="M831.873 371.009L818.615 397.982H845.73L831.873 371.009ZM831.913 375.463L821.826 395.982H842.454L831.913 375.463Z" fill="white"/>
<path id="Polygon 36 (Stroke)" fill-rule="evenodd" clip-rule="evenodd" d="M809.855 371.009L796.596 397.982H823.711L809.855 371.009ZM809.894 375.463L799.808 395.982H820.435L809.894 375.463Z" fill="white"/>
<path id="Polygon 35 (Stroke)" fill-rule="evenodd" clip-rule="evenodd" d="M781.231 371.009L767.973 397.982H795.088L781.231 371.009ZM781.271 375.463L771.184 395.982H791.812L781.271 375.463Z" fill="white"/>
<path id="Polygon 34 (Stroke)" fill-rule="evenodd" clip-rule="evenodd" d="M759.947 371.009L746.688 397.982H773.804L759.947 371.009ZM759.986 375.463L749.9 395.982H770.528L759.986 375.463Z" fill="white"/>
<path id="Polygon 33 (Stroke)" fill-rule="evenodd" clip-rule="evenodd" d="M732.056 371.009L718.798 397.982H745.913L732.056 371.009ZM732.096 375.463L722.01 395.982H742.637L732.096 375.463Z" fill="white"/>
<path id="Polygon 32 (Stroke)" fill-rule="evenodd" clip-rule="evenodd" d="M710.038 371.009L696.78 397.982H723.895L710.038 371.009ZM710.078 375.463L699.991 395.982H720.619L710.078 375.463Z" fill="white"/>
<g id="Group 160">
<path id="Polygon 21 (Stroke)" fill-rule="evenodd" clip-rule="evenodd" d="M744.75 299.083L696.046 398.165H795.653L744.75 299.083ZM744.829 307.989L702.469 394.165H789.101L744.829 307.989Z" fill="white"/>
<path id="Polygon 22 (Stroke)" fill-rule="evenodd" clip-rule="evenodd" d="M844.567 299.083L795.862 398.165H895.469L844.567 299.083ZM844.646 307.989L802.286 394.165H888.917L844.646 307.989Z" fill="white"/>
<path id="Polygon 18 (Stroke)" fill-rule="evenodd" clip-rule="evenodd" d="M793.635 200L696.046 398.532H895.629L793.635 200ZM793.714 208.907L702.469 394.532H889.077L793.714 208.907Z" fill="white"/>
</g>
</g>
</g>
</g>
<g id="En la secuencia de figuras mostrada, halle la suma de las cifras del m&#195;&#161;ximo n&#195;&#186;mero de tri&#195;&#161;ngulos que se podr&#195;&#161;n contar en la figura 12.">
<path d="M101.438 74.1699H90.3457V83.2402H103.23V86H86.9707V60.4062H103.055V63.1836H90.3457V71.4102H101.438V74.1699Z" fill="white"/>
<path d="M109.998 66.9805L110.104 69.3711C111.557 67.543 113.455 66.6289 115.799 66.6289C119.818 66.6289 121.846 68.8965 121.881 73.4316V86H118.629V73.4141C118.617 72.043 118.301 71.0293 117.68 70.373C117.07 69.7168 116.115 69.3887 114.814 69.3887C113.76 69.3887 112.834 69.6699 112.037 70.2324C111.24 70.7949 110.619 71.5332 110.174 72.4473V86H106.922V66.9805H109.998Z" fill="white"/>
<path d="M139.248 86H135.996V59H139.248V86Z" fill="white"/>
<path d="M156.211 86C156.023 85.625 155.871 84.957 155.754 83.9961C154.242 85.5664 152.438 86.3516 150.34 86.3516C148.465 86.3516 146.924 85.8242 145.717 84.7695C144.521 83.7031 143.924 82.3555 143.924 80.7266C143.924 78.7461 144.674 77.2109 146.174 76.1211C147.686 75.0195 149.807 74.4688 152.537 74.4688H155.701V72.9746C155.701 71.8379 155.361 70.9355 154.682 70.2676C154.002 69.5879 153 69.248 151.676 69.248C150.516 69.248 149.543 69.541 148.758 70.127C147.973 70.7129 147.58 71.4219 147.58 72.2539H144.311C144.311 71.3047 144.645 70.3906 145.312 69.5117C145.992 68.6211 146.906 67.918 148.055 67.4023C149.215 66.8867 150.486 66.6289 151.869 66.6289C154.061 66.6289 155.777 67.1797 157.02 68.2812C158.262 69.3711 158.906 70.877 158.953 72.7988V81.5527C158.953 83.2988 159.176 84.6875 159.621 85.7188V86H156.211ZM150.814 83.5215C151.834 83.5215 152.801 83.2578 153.715 82.7305C154.629 82.2031 155.291 81.5176 155.701 80.6738V76.7715H153.152C149.168 76.7715 147.176 77.9375 147.176 80.2695C147.176 81.2891 147.516 82.0859 148.195 82.6602C148.875 83.2344 149.748 83.5215 150.814 83.5215Z" fill="white"/>
<path d="M184.055 80.9551C184.055 80.0762 183.721 79.3965 183.053 78.916C182.396 78.4238 181.242 78.002 179.59 77.6504C177.949 77.2988 176.643 76.877 175.67 76.3848C174.709 75.8926 173.994 75.3066 173.525 74.627C173.068 73.9473 172.84 73.1387 172.84 72.2012C172.84 70.6426 173.496 69.3242 174.809 68.2461C176.133 67.168 177.82 66.6289 179.871 66.6289C182.027 66.6289 183.773 67.1855 185.109 68.2988C186.457 69.4121 187.131 70.8359 187.131 72.5703H183.861C183.861 71.6797 183.48 70.9121 182.719 70.2676C181.969 69.623 181.02 69.3008 179.871 69.3008C178.688 69.3008 177.762 69.5586 177.094 70.0742C176.426 70.5898 176.092 71.2637 176.092 72.0957C176.092 72.8809 176.402 73.4727 177.023 73.8711C177.645 74.2695 178.764 74.6504 180.381 75.0137C182.01 75.377 183.328 75.8105 184.336 76.3145C185.344 76.8184 186.088 77.4277 186.568 78.1426C187.061 78.8457 187.307 79.707 187.307 80.7266C187.307 82.4258 186.627 83.791 185.268 84.8223C183.908 85.8418 182.145 86.3516 179.977 86.3516C178.453 86.3516 177.105 86.082 175.934 85.543C174.762 85.0039 173.842 84.2539 173.174 83.293C172.518 82.3203 172.189 81.2715 172.189 80.1465H175.441C175.5 81.2363 175.934 82.1035 176.742 82.748C177.562 83.3809 178.641 83.6973 179.977 83.6973C181.207 83.6973 182.191 83.4512 182.93 82.959C183.68 82.4551 184.055 81.7871 184.055 80.9551Z" fill="white"/>
<path d="M199.436 86.3516C196.857 86.3516 194.76 85.5078 193.143 83.8203C191.525 82.1211 190.717 79.8535 190.717 77.0176V76.4199C190.717 74.5332 191.074 72.8516 191.789 71.375C192.516 69.8867 193.523 68.7266 194.812 67.8945C196.113 67.0508 197.52 66.6289 199.031 66.6289C201.504 66.6289 203.426 67.4434 204.797 69.0723C206.168 70.7012 206.854 73.0332 206.854 76.0684V77.4219H193.969C194.016 79.2969 194.561 80.8145 195.604 81.9746C196.658 83.123 197.994 83.6973 199.611 83.6973C200.76 83.6973 201.732 83.4629 202.529 82.9941C203.326 82.5254 204.023 81.9043 204.621 81.1309L206.607 82.6777C205.014 85.127 202.623 86.3516 199.436 86.3516ZM199.031 69.3008C197.719 69.3008 196.617 69.7812 195.727 70.7422C194.836 71.6914 194.285 73.0273 194.074 74.75H203.602V74.5039C203.508 72.8516 203.062 71.5742 202.266 70.6719C201.469 69.7578 200.391 69.3008 199.031 69.3008Z" fill="white"/>
<path d="M218.262 83.6973C219.422 83.6973 220.436 83.3457 221.303 82.6426C222.17 81.9395 222.65 81.0605 222.744 80.0059H225.82C225.762 81.0957 225.387 82.1328 224.695 83.1172C224.004 84.1016 223.078 84.8867 221.918 85.4727C220.77 86.0586 219.551 86.3516 218.262 86.3516C215.672 86.3516 213.609 85.4902 212.074 83.7676C210.551 82.0332 209.789 79.666 209.789 76.666V76.1211C209.789 74.2695 210.129 72.623 210.809 71.1816C211.488 69.7402 212.461 68.6211 213.727 67.8242C215.004 67.0273 216.51 66.6289 218.244 66.6289C220.377 66.6289 222.146 67.2676 223.553 68.5449C224.971 69.8223 225.727 71.4805 225.82 73.5195H222.744C222.65 72.2891 222.182 71.2812 221.338 70.4961C220.506 69.6992 219.475 69.3008 218.244 69.3008C216.592 69.3008 215.309 69.8984 214.395 71.0938C213.492 72.2773 213.041 73.9941 213.041 76.2441V76.8594C213.041 79.0508 213.492 80.7383 214.395 81.9219C215.297 83.1055 216.586 83.6973 218.262 83.6973Z" fill="white"/>
<path d="M241.219 84.1191C239.953 85.6074 238.096 86.3516 235.646 86.3516C233.619 86.3516 232.072 85.7656 231.006 84.5938C229.951 83.4102 229.418 81.6641 229.406 79.3555V66.9805H232.658V79.2676C232.658 82.1504 233.83 83.5918 236.174 83.5918C238.658 83.5918 240.311 82.666 241.131 80.8145V66.9805H244.383V86H241.289L241.219 84.1191Z" fill="white"/>
<path d="M257.232 86.3516C254.654 86.3516 252.557 85.5078 250.939 83.8203C249.322 82.1211 248.514 79.8535 248.514 77.0176V76.4199C248.514 74.5332 248.871 72.8516 249.586 71.375C250.312 69.8867 251.32 68.7266 252.609 67.8945C253.91 67.0508 255.316 66.6289 256.828 66.6289C259.301 66.6289 261.223 67.4434 262.594 69.0723C263.965 70.7012 264.65 73.0332 264.65 76.0684V77.4219H251.766C251.812 79.2969 252.357 80.8145 253.4 81.9746C254.455 83.123 255.791 83.6973 257.408 83.6973C258.557 83.6973 259.529 83.4629 260.326 82.9941C261.123 82.5254 261.82 81.9043 262.418 81.1309L264.404 82.6777C262.811 85.127 260.42 86.3516 257.232 86.3516ZM256.828 69.3008C255.516 69.3008 254.414 69.7812 253.523 70.7422C252.633 71.6914 252.082 73.0273 251.871 74.75H261.398V74.5039C261.305 72.8516 260.859 71.5742 260.062 70.6719C259.266 69.7578 258.188 69.3008 256.828 69.3008Z" fill="white"/>
<path d="M271.506 66.9805L271.611 69.3711C273.064 67.543 274.963 66.6289 277.307 66.6289C281.326 66.6289 283.354 68.8965 283.389 73.4316V86H280.137V73.4141C280.125 72.043 279.809 71.0293 279.188 70.373C278.578 69.7168 277.623 69.3887 276.322 69.3887C275.268 69.3887 274.342 69.6699 273.545 70.2324C272.748 70.7949 272.127 71.5332 271.682 72.4473V86H268.43V66.9805H271.506Z" fill="white"/>
<path d="M295.922 83.6973C297.082 83.6973 298.096 83.3457 298.963 82.6426C299.83 81.9395 300.311 81.0605 300.404 80.0059H303.48C303.422 81.0957 303.047 82.1328 302.355 83.1172C301.664 84.1016 300.738 84.8867 299.578 85.4727C298.43 86.0586 297.211 86.3516 295.922 86.3516C293.332 86.3516 291.27 85.4902 289.734 83.7676C288.211 82.0332 287.449 79.666 287.449 76.666V76.1211C287.449 74.2695 287.789 72.623 288.469 71.1816C289.148 69.7402 290.121 68.6211 291.387 67.8242C292.664 67.0273 294.17 66.6289 295.904 66.6289C298.037 66.6289 299.807 67.2676 301.213 68.5449C302.631 69.8223 303.387 71.4805 303.48 73.5195H300.404C300.311 72.2891 299.842 71.2812 298.998 70.4961C298.166 69.6992 297.135 69.3008 295.904 69.3008C294.252 69.3008 292.969 69.8984 292.055 71.0938C291.152 72.2773 290.701 73.9941 290.701 76.2441V76.8594C290.701 79.0508 291.152 80.7383 292.055 81.9219C292.957 83.1055 294.246 83.6973 295.922 83.6973Z" fill="white"/>
<path d="M310.67 86H307.418V66.9805H310.67V86ZM307.154 61.9355C307.154 61.4082 307.312 60.9629 307.629 60.5996C307.957 60.2363 308.438 60.0547 309.07 60.0547C309.703 60.0547 310.184 60.2363 310.512 60.5996C310.84 60.9629 311.004 61.4082 311.004 61.9355C311.004 62.4629 310.84 62.9023 310.512 63.2539C310.184 63.6055 309.703 63.7812 309.07 63.7812C308.438 63.7812 307.957 63.6055 307.629 63.2539C307.312 62.9023 307.154 62.4629 307.154 61.9355Z" fill="white"/>
<path d="M327.633 86C327.445 85.625 327.293 84.957 327.176 83.9961C325.664 85.5664 323.859 86.3516 321.762 86.3516C319.887 86.3516 318.346 85.8242 317.139 84.7695C315.943 83.7031 315.346 82.3555 315.346 80.7266C315.346 78.7461 316.096 77.2109 317.596 76.1211C319.107 75.0195 321.229 74.4688 323.959 74.4688H327.123V72.9746C327.123 71.8379 326.783 70.9355 326.104 70.2676C325.424 69.5879 324.422 69.248 323.098 69.248C321.938 69.248 320.965 69.541 320.18 70.127C319.395 70.7129 319.002 71.4219 319.002 72.2539H315.732C315.732 71.3047 316.066 70.3906 316.734 69.5117C317.414 68.6211 318.328 67.918 319.477 67.4023C320.637 66.8867 321.908 66.6289 323.291 66.6289C325.482 66.6289 327.199 67.1797 328.441 68.2812C329.684 69.3711 330.328 70.877 330.375 72.7988V81.5527C330.375 83.2988 330.598 84.6875 331.043 85.7188V86H327.633ZM322.236 83.5215C323.256 83.5215 324.223 83.2578 325.137 82.7305C326.051 82.2031 326.713 81.5176 327.123 80.6738V76.7715H324.574C320.59 76.7715 318.598 77.9375 318.598 80.2695C318.598 81.2891 318.938 82.0859 319.617 82.6602C320.297 83.2344 321.17 83.5215 322.236 83.5215Z" fill="white"/>
<path d="M343.611 76.332C343.611 73.4141 344.303 71.0703 345.686 69.3008C347.068 67.5195 348.879 66.6289 351.117 66.6289C353.344 66.6289 355.107 67.3906 356.408 68.9141V59H359.66V86H356.672L356.514 83.9609C355.213 85.5547 353.402 86.3516 351.082 86.3516C348.879 86.3516 347.08 85.4492 345.686 83.6445C344.303 81.8398 343.611 79.4844 343.611 76.5781V76.332ZM346.863 76.7012C346.863 78.8574 347.309 80.5449 348.199 81.7637C349.09 82.9824 350.32 83.5918 351.891 83.5918C353.953 83.5918 355.459 82.666 356.408 80.8145V72.0781C355.436 70.2852 353.941 69.3887 351.926 69.3887C350.332 69.3887 349.09 70.0039 348.199 71.2344C347.309 72.4648 346.863 74.2871 346.863 76.7012Z" fill="white"/>
<path d="M372.615 86.3516C370.037 86.3516 367.939 85.5078 366.322 83.8203C364.705 82.1211 363.896 79.8535 363.896 77.0176V76.4199C363.896 74.5332 364.254 72.8516 364.969 71.375C365.695 69.8867 366.703 68.7266 367.992 67.8945C369.293 67.0508 370.699 66.6289 372.211 66.6289C374.684 66.6289 376.605 67.4434 377.977 69.0723C379.348 70.7012 380.033 73.0332 380.033 76.0684V77.4219H367.148C367.195 79.2969 367.74 80.8145 368.783 81.9746C369.838 83.123 371.174 83.6973 372.791 83.6973C373.939 83.6973 374.912 83.4629 375.709 82.9941C376.506 82.5254 377.203 81.9043 377.801 81.1309L379.787 82.6777C378.193 85.127 375.803 86.3516 372.615 86.3516ZM372.211 69.3008C370.898 69.3008 369.797 69.7812 368.906 70.7422C368.016 71.6914 367.465 73.0273 367.254 74.75H376.781V74.5039C376.688 72.8516 376.242 71.5742 375.445 70.6719C374.648 69.7578 373.57 69.3008 372.211 69.3008Z" fill="white"/>
<path d="M393.832 86V69.4941H390.826V66.9805H393.832V65.3633C393.832 63.2422 394.436 61.5898 395.643 60.4062C396.861 59.2227 398.578 58.6309 400.793 58.6309C402.105 58.6309 403.764 58.9883 405.768 59.7031L405.223 62.4453C403.758 61.8594 402.363 61.5664 401.039 61.5664C399.645 61.5664 398.637 61.8828 398.016 62.5156C397.406 63.1367 397.102 64.0742 397.102 65.3281V66.9805H400.986V69.4941H397.102V86H393.832ZM407.385 86H404.115V66.9805H407.385V86Z" fill="white"/>
<path d="M411.902 76.332C411.902 73.3672 412.588 71.0117 413.959 69.2656C415.33 67.5078 417.146 66.6289 419.408 66.6289C421.729 66.6289 423.539 67.4492 424.84 69.0898L424.998 66.9805H427.969V85.543C427.969 88.0039 427.236 89.9434 425.771 91.3613C424.318 92.7793 422.361 93.4883 419.9 93.4883C418.529 93.4883 417.188 93.1953 415.875 92.6094C414.562 92.0234 413.561 91.2207 412.869 90.2012L414.557 88.25C415.951 89.9727 417.656 90.834 419.672 90.834C421.254 90.834 422.484 90.3887 423.363 89.498C424.254 88.6074 424.699 87.3535 424.699 85.7363V84.1016C423.398 85.6016 421.623 86.3516 419.373 86.3516C417.146 86.3516 415.342 85.4551 413.959 83.6621C412.588 81.8691 411.902 79.4258 411.902 76.332ZM415.172 76.7012C415.172 78.8457 415.611 80.5332 416.49 81.7637C417.369 82.9824 418.6 83.5918 420.182 83.5918C422.232 83.5918 423.738 82.6602 424.699 80.7969V72.1133C423.703 70.2969 422.209 69.3887 420.217 69.3887C418.635 69.3887 417.398 70.0039 416.508 71.2344C415.617 72.4648 415.172 74.2871 415.172 76.7012Z" fill="white"/>
<path d="M444.633 84.1191C443.367 85.6074 441.51 86.3516 439.061 86.3516C437.033 86.3516 435.486 85.7656 434.42 84.5938C433.365 83.4102 432.832 81.6641 432.82 79.3555V66.9805H436.072V79.2676C436.072 82.1504 437.244 83.5918 439.588 83.5918C442.072 83.5918 443.725 82.666 444.545 80.8145V66.9805H447.797V86H444.703L444.633 84.1191Z" fill="white"/>
<path d="M461.947 69.8984C461.455 69.8164 460.922 69.7754 460.348 69.7754C458.215 69.7754 456.768 70.6836 456.006 72.5V86H452.754V66.9805H455.918L455.971 69.1777C457.037 67.4785 458.549 66.6289 460.506 66.6289C461.139 66.6289 461.619 66.7109 461.947 66.875V69.8984Z" fill="white"/>
<path d="M475.992 86C475.805 85.625 475.652 84.957 475.535 83.9961C474.023 85.5664 472.219 86.3516 470.121 86.3516C468.246 86.3516 466.705 85.8242 465.498 84.7695C464.303 83.7031 463.705 82.3555 463.705 80.7266C463.705 78.7461 464.455 77.2109 465.955 76.1211C467.467 75.0195 469.588 74.4688 472.318 74.4688H475.482V72.9746C475.482 71.8379 475.143 70.9355 474.463 70.2676C473.783 69.5879 472.781 69.248 471.457 69.248C470.297 69.248 469.324 69.541 468.539 70.127C467.754 70.7129 467.361 71.4219 467.361 72.2539H464.092C464.092 71.3047 464.426 70.3906 465.094 69.5117C465.773 68.6211 466.688 67.918 467.836 67.4023C468.996 66.8867 470.268 66.6289 471.65 66.6289C473.842 66.6289 475.559 67.1797 476.801 68.2812C478.043 69.3711 478.688 70.877 478.734 72.7988V81.5527C478.734 83.2988 478.957 84.6875 479.402 85.7188V86H475.992ZM470.596 83.5215C471.615 83.5215 472.582 83.2578 473.496 82.7305C474.41 82.2031 475.072 81.5176 475.482 80.6738V76.7715H472.934C468.949 76.7715 466.957 77.9375 466.957 80.2695C466.957 81.2891 467.297 82.0859 467.977 82.6602C468.656 83.2344 469.529 83.5215 470.596 83.5215Z" fill="white"/>
<path d="M494.906 80.9551C494.906 80.0762 494.572 79.3965 493.904 78.916C493.248 78.4238 492.094 78.002 490.441 77.6504C488.801 77.2988 487.494 76.877 486.521 76.3848C485.561 75.8926 484.846 75.3066 484.377 74.627C483.92 73.9473 483.691 73.1387 483.691 72.2012C483.691 70.6426 484.348 69.3242 485.66 68.2461C486.984 67.168 488.672 66.6289 490.723 66.6289C492.879 66.6289 494.625 67.1855 495.961 68.2988C497.309 69.4121 497.982 70.8359 497.982 72.5703H494.713C494.713 71.6797 494.332 70.9121 493.57 70.2676C492.82 69.623 491.871 69.3008 490.723 69.3008C489.539 69.3008 488.613 69.5586 487.945 70.0742C487.277 70.5898 486.943 71.2637 486.943 72.0957C486.943 72.8809 487.254 73.4727 487.875 73.8711C488.496 74.2695 489.615 74.6504 491.232 75.0137C492.861 75.377 494.18 75.8105 495.188 76.3145C496.195 76.8184 496.939 77.4277 497.42 78.1426C497.912 78.8457 498.158 79.707 498.158 80.7266C498.158 82.4258 497.479 83.791 496.119 84.8223C494.76 85.8418 492.996 86.3516 490.828 86.3516C489.305 86.3516 487.957 86.082 486.785 85.543C485.613 85.0039 484.693 84.2539 484.025 83.293C483.369 82.3203 483.041 81.2715 483.041 80.1465H486.293C486.352 81.2363 486.785 82.1035 487.594 82.748C488.414 83.3809 489.492 83.6973 490.828 83.6973C492.059 83.6973 493.043 83.4512 493.781 82.959C494.531 82.4551 494.906 81.7871 494.906 80.9551Z" fill="white"/>
<path d="M514.383 66.9805L514.471 69.0898C515.865 67.4492 517.746 66.6289 520.113 66.6289C522.773 66.6289 524.584 67.6484 525.545 69.6875C526.178 68.7734 526.998 68.0352 528.006 67.4727C529.025 66.9102 530.227 66.6289 531.609 66.6289C535.781 66.6289 537.902 68.8379 537.973 73.2559V86H534.721V73.4492C534.721 72.0898 534.41 71.0762 533.789 70.4082C533.168 69.7285 532.125 69.3887 530.66 69.3887C529.453 69.3887 528.451 69.752 527.654 70.4785C526.857 71.1934 526.395 72.1602 526.266 73.3789V86H522.996V73.5371C522.996 70.7715 521.643 69.3887 518.936 69.3887C516.803 69.3887 515.344 70.2969 514.559 72.1133V86H511.307V66.9805H514.383Z" fill="white"/>
<path d="M542.033 76.3145C542.033 74.4512 542.396 72.7754 543.123 71.2871C543.861 69.7988 544.881 68.6504 546.182 67.8418C547.494 67.0332 548.988 66.6289 550.664 66.6289C553.254 66.6289 555.346 67.5254 556.939 69.3184C558.545 71.1113 559.348 73.4961 559.348 76.4727V76.7012C559.348 78.5527 558.99 80.2168 558.275 81.6934C557.572 83.1582 556.559 84.3008 555.234 85.1211C553.922 85.9414 552.41 86.3516 550.699 86.3516C548.121 86.3516 546.029 85.4551 544.424 83.6621C542.83 81.8691 542.033 79.4961 542.033 76.543V76.3145ZM545.303 76.7012C545.303 78.8105 545.789 80.5039 546.762 81.7812C547.746 83.0586 549.059 83.6973 550.699 83.6973C552.352 83.6973 553.664 83.0527 554.637 81.7637C555.609 80.4629 556.096 78.6465 556.096 76.3145C556.096 74.2285 555.598 72.541 554.602 71.252C553.617 69.9512 552.305 69.3008 550.664 69.3008C549.059 69.3008 547.764 69.9395 546.779 71.2168C545.795 72.4941 545.303 74.3223 545.303 76.7012Z" fill="white"/>
<path d="M574.5 80.9551C574.5 80.0762 574.166 79.3965 573.498 78.916C572.842 78.4238 571.688 78.002 570.035 77.6504C568.395 77.2988 567.088 76.877 566.115 76.3848C565.154 75.8926 564.439 75.3066 563.971 74.627C563.514 73.9473 563.285 73.1387 563.285 72.2012C563.285 70.6426 563.941 69.3242 565.254 68.2461C566.578 67.168 568.266 66.6289 570.316 66.6289C572.473 66.6289 574.219 67.1855 575.555 68.2988C576.902 69.4121 577.576 70.8359 577.576 72.5703H574.307C574.307 71.6797 573.926 70.9121 573.164 70.2676C572.414 69.623 571.465 69.3008 570.316 69.3008C569.133 69.3008 568.207 69.5586 567.539 70.0742C566.871 70.5898 566.537 71.2637 566.537 72.0957C566.537 72.8809 566.848 73.4727 567.469 73.8711C568.09 74.2695 569.209 74.6504 570.826 75.0137C572.455 75.377 573.773 75.8105 574.781 76.3145C575.789 76.8184 576.533 77.4277 577.014 78.1426C577.506 78.8457 577.752 79.707 577.752 80.7266C577.752 82.4258 577.072 83.791 575.713 84.8223C574.354 85.8418 572.59 86.3516 570.422 86.3516C568.898 86.3516 567.551 86.082 566.379 85.543C565.207 85.0039 564.287 84.2539 563.619 83.293C562.963 82.3203 562.635 81.2715 562.635 80.1465H565.887C565.945 81.2363 566.379 82.1035 567.188 82.748C568.008 83.3809 569.086 83.6973 570.422 83.6973C571.652 83.6973 572.637 83.4512 573.375 82.959C574.125 82.4551 574.5 81.7871 574.5 80.9551Z" fill="white"/>
<path d="M586.4 62.375V66.9805H589.951V69.4941H586.4V81.2891C586.4 82.0508 586.559 82.625 586.875 83.0117C587.191 83.3867 587.73 83.5742 588.492 83.5742C588.867 83.5742 589.383 83.5039 590.039 83.3633V86C589.184 86.2344 588.352 86.3516 587.543 86.3516C586.09 86.3516 584.994 85.9121 584.256 85.0332C583.518 84.1543 583.148 82.9062 583.148 81.2891V69.4941H579.686V66.9805H583.148V62.375H586.4Z" fill="white"/>
<path d="M602.959 69.8984C602.467 69.8164 601.934 69.7754 601.359 69.7754C599.227 69.7754 597.779 70.6836 597.018 72.5V86H593.766V66.9805H596.93L596.982 69.1777C598.049 67.4785 599.561 66.6289 601.518 66.6289C602.15 66.6289 602.631 66.7109 602.959 66.875V69.8984Z" fill="white"/>
<path d="M617.004 86C616.816 85.625 616.664 84.957 616.547 83.9961C615.035 85.5664 613.23 86.3516 611.133 86.3516C609.258 86.3516 607.717 85.8242 606.51 84.7695C605.314 83.7031 604.717 82.3555 604.717 80.7266C604.717 78.7461 605.467 77.2109 606.967 76.1211C608.479 75.0195 610.6 74.4688 613.33 74.4688H616.494V72.9746C616.494 71.8379 616.154 70.9355 615.475 70.2676C614.795 69.5879 613.793 69.248 612.469 69.248C611.309 69.248 610.336 69.541 609.551 70.127C608.766 70.7129 608.373 71.4219 608.373 72.2539H605.104C605.104 71.3047 605.438 70.3906 606.105 69.5117C606.785 68.6211 607.699 67.918 608.848 67.4023C610.008 66.8867 611.279 66.6289 612.662 66.6289C614.854 66.6289 616.57 67.1797 617.812 68.2812C619.055 69.3711 619.699 70.877 619.746 72.7988V81.5527C619.746 83.2988 619.969 84.6875 620.414 85.7188V86H617.004ZM611.607 83.5215C612.627 83.5215 613.594 83.2578 614.508 82.7305C615.422 82.2031 616.084 81.5176 616.494 80.6738V76.7715H613.945C609.961 76.7715 607.969 77.9375 607.969 80.2695C607.969 81.2891 608.309 82.0859 608.988 82.6602C609.668 83.2344 610.541 83.5215 611.607 83.5215Z" fill="white"/>
<path d="M624.053 76.332C624.053 73.4141 624.744 71.0703 626.127 69.3008C627.51 67.5195 629.32 66.6289 631.559 66.6289C633.785 66.6289 635.549 67.3906 636.85 68.9141V59H640.102V86H637.113L636.955 83.9609C635.654 85.5547 633.844 86.3516 631.523 86.3516C629.32 86.3516 627.521 85.4492 626.127 83.6445C624.744 81.8398 624.053 79.4844 624.053 76.5781V76.332ZM627.305 76.7012C627.305 78.8574 627.75 80.5449 628.641 81.7637C629.531 82.9824 630.762 83.5918 632.332 83.5918C634.395 83.5918 635.9 82.666 636.85 80.8145V72.0781C635.877 70.2852 634.383 69.3887 632.367 69.3887C630.773 69.3887 629.531 70.0039 628.641 71.2344C627.75 72.4648 627.305 74.2871 627.305 76.7012Z" fill="white"/>
<path d="M656.906 86C656.719 85.625 656.566 84.957 656.449 83.9961C654.938 85.5664 653.133 86.3516 651.035 86.3516C649.16 86.3516 647.619 85.8242 646.412 84.7695C645.217 83.7031 644.619 82.3555 644.619 80.7266C644.619 78.7461 645.369 77.2109 646.869 76.1211C648.381 75.0195 650.502 74.4688 653.232 74.4688H656.396V72.9746C656.396 71.8379 656.057 70.9355 655.377 70.2676C654.697 69.5879 653.695 69.248 652.371 69.248C651.211 69.248 650.238 69.541 649.453 70.127C648.668 70.7129 648.275 71.4219 648.275 72.2539H645.006C645.006 71.3047 645.34 70.3906 646.008 69.5117C646.688 68.6211 647.602 67.918 648.75 67.4023C649.91 66.8867 651.182 66.6289 652.564 66.6289C654.756 66.6289 656.473 67.1797 657.715 68.2812C658.957 69.3711 659.602 70.877 659.648 72.7988V81.5527C659.648 83.2988 659.871 84.6875 660.316 85.7188V86H656.906ZM651.51 83.5215C652.529 83.5215 653.496 83.2578 654.41 82.7305C655.324 82.2031 655.986 81.5176 656.396 80.6738V76.7715H653.848C649.863 76.7715 647.871 77.9375 647.871 80.2695C647.871 81.2891 648.211 82.0859 648.891 82.6602C649.57 83.2344 650.443 83.5215 651.51 83.5215Z" fill="white"/>
<path d="M664.641 91.0977L662.795 89.832C663.896 88.2969 664.471 86.7148 664.518 85.0859V82.1504H667.699V84.6992C667.699 85.8828 667.406 87.0664 666.82 88.25C666.246 89.4336 665.52 90.3828 664.641 91.0977Z" fill="white"/>
<path d="M683.994 69.2832C685.436 67.5137 687.311 66.6289 689.619 66.6289C693.639 66.6289 695.666 68.8965 695.701 73.4316V86H692.449V73.4141C692.438 72.043 692.121 71.0293 691.5 70.373C690.891 69.7168 689.936 69.3887 688.635 69.3887C687.58 69.3887 686.654 69.6699 685.857 70.2324C685.061 70.7949 684.439 71.5332 683.994 72.4473V86H680.742V59H683.994V69.2832Z" fill="white"/>
<path d="M712.312 86C712.125 85.625 711.973 84.957 711.855 83.9961C710.344 85.5664 708.539 86.3516 706.441 86.3516C704.566 86.3516 703.025 85.8242 701.818 84.7695C700.623 83.7031 700.025 82.3555 700.025 80.7266C700.025 78.7461 700.775 77.2109 702.275 76.1211C703.787 75.0195 705.908 74.4688 708.639 74.4688H711.803V72.9746C711.803 71.8379 711.463 70.9355 710.783 70.2676C710.104 69.5879 709.102 69.248 707.777 69.248C706.617 69.248 705.645 69.541 704.859 70.127C704.074 70.7129 703.682 71.4219 703.682 72.2539H700.412C700.412 71.3047 700.746 70.3906 701.414 69.5117C702.094 68.6211 703.008 67.918 704.156 67.4023C705.316 66.8867 706.588 66.6289 707.971 66.6289C710.162 66.6289 711.879 67.1797 713.121 68.2812C714.363 69.3711 715.008 70.877 715.055 72.7988V81.5527C715.055 83.2988 715.277 84.6875 715.723 85.7188V86H712.312ZM706.916 83.5215C707.936 83.5215 708.902 83.2578 709.816 82.7305C710.73 82.2031 711.393 81.5176 711.803 80.6738V76.7715H709.254C705.27 76.7715 703.277 77.9375 703.277 80.2695C703.277 81.2891 703.617 82.0859 704.297 82.6602C704.977 83.2344 705.85 83.5215 706.916 83.5215Z" fill="white"/>
<path d="M723.686 86H720.434V59H723.686V86Z" fill="white"/>
<path d="M732.439 86H729.188V59H732.439V86Z" fill="white"/>
<path d="M745.553 86.3516C742.975 86.3516 740.877 85.5078 739.26 83.8203C737.643 82.1211 736.834 79.8535 736.834 77.0176V76.4199C736.834 74.5332 737.191 72.8516 737.906 71.375C738.633 69.8867 739.641 68.7266 740.93 67.8945C742.23 67.0508 743.637 66.6289 745.148 66.6289C747.621 66.6289 749.543 67.4434 750.914 69.0723C752.285 70.7012 752.971 73.0332 752.971 76.0684V77.4219H740.086C740.133 79.2969 740.678 80.8145 741.721 81.9746C742.775 83.123 744.111 83.6973 745.729 83.6973C746.877 83.6973 747.85 83.4629 748.646 82.9941C749.443 82.5254 750.141 81.9043 750.738 81.1309L752.725 82.6777C751.131 85.127 748.74 86.3516 745.553 86.3516ZM745.148 69.3008C743.836 69.3008 742.734 69.7812 741.844 70.7422C740.953 71.6914 740.402 73.0273 740.191 74.75H749.719V74.5039C749.625 72.8516 749.18 71.5742 748.383 70.6719C747.586 69.7578 746.508 69.3008 745.148 69.3008Z" fill="white"/>
<path d="M769.213 86H765.961V59H769.213V86Z" fill="white"/>
<path d="M786.176 86C785.988 85.625 785.836 84.957 785.719 83.9961C784.207 85.5664 782.402 86.3516 780.305 86.3516C778.43 86.3516 776.889 85.8242 775.682 84.7695C774.486 83.7031 773.889 82.3555 773.889 80.7266C773.889 78.7461 774.639 77.2109 776.139 76.1211C777.65 75.0195 779.771 74.4688 782.502 74.4688H785.666V72.9746C785.666 71.8379 785.326 70.9355 784.646 70.2676C783.967 69.5879 782.965 69.248 781.641 69.248C780.48 69.248 779.508 69.541 778.723 70.127C777.938 70.7129 777.545 71.4219 777.545 72.2539H774.275C774.275 71.3047 774.609 70.3906 775.277 69.5117C775.957 68.6211 776.871 67.918 778.02 67.4023C779.18 66.8867 780.451 66.6289 781.834 66.6289C784.025 66.6289 785.742 67.1797 786.984 68.2812C788.227 69.3711 788.871 70.877 788.918 72.7988V81.5527C788.918 83.2988 789.141 84.6875 789.586 85.7188V86H786.176ZM780.779 83.5215C781.799 83.5215 782.766 83.2578 783.68 82.7305C784.594 82.2031 785.256 81.5176 785.666 80.6738V76.7715H783.117C779.133 76.7715 777.141 77.9375 777.141 80.2695C777.141 81.2891 777.48 82.0859 778.16 82.6602C778.84 83.2344 779.713 83.5215 780.779 83.5215Z" fill="white"/>
<path d="M814.02 80.9551C814.02 80.0762 813.686 79.3965 813.018 78.916C812.361 78.4238 811.207 78.002 809.555 77.6504C807.914 77.2988 806.607 76.877 805.635 76.3848C804.674 75.8926 803.959 75.3066 803.49 74.627C803.033 73.9473 802.805 73.1387 802.805 72.2012C802.805 70.6426 803.461 69.3242 804.773 68.2461C806.098 67.168 807.785 66.6289 809.836 66.6289C811.992 66.6289 813.738 67.1855 815.074 68.2988C816.422 69.4121 817.096 70.8359 817.096 72.5703H813.826C813.826 71.6797 813.445 70.9121 812.684 70.2676C811.934 69.623 810.984 69.3008 809.836 69.3008C808.652 69.3008 807.727 69.5586 807.059 70.0742C806.391 70.5898 806.057 71.2637 806.057 72.0957C806.057 72.8809 806.367 73.4727 806.988 73.8711C807.609 74.2695 808.729 74.6504 810.346 75.0137C811.975 75.377 813.293 75.8105 814.301 76.3145C815.309 76.8184 816.053 77.4277 816.533 78.1426C817.025 78.8457 817.271 79.707 817.271 80.7266C817.271 82.4258 816.592 83.791 815.232 84.8223C813.873 85.8418 812.109 86.3516 809.941 86.3516C808.418 86.3516 807.07 86.082 805.898 85.543C804.727 85.0039 803.807 84.2539 803.139 83.293C802.482 82.3203 802.154 81.2715 802.154 80.1465H805.406C805.465 81.2363 805.898 82.1035 806.707 82.748C807.527 83.3809 808.605 83.6973 809.941 83.6973C811.172 83.6973 812.156 83.4512 812.895 82.959C813.645 82.4551 814.02 81.7871 814.02 80.9551Z" fill="white"/>
<path d="M833.25 84.1191C831.984 85.6074 830.127 86.3516 827.678 86.3516C825.65 86.3516 824.104 85.7656 823.037 84.5938C821.982 83.4102 821.449 81.6641 821.438 79.3555V66.9805H824.689V79.2676C824.689 82.1504 825.861 83.5918 828.205 83.5918C830.689 83.5918 832.342 82.666 833.162 80.8145V66.9805H836.414V86H833.32L833.25 84.1191Z" fill="white"/>
<path d="M844.43 66.9805L844.518 69.0898C845.912 67.4492 847.793 66.6289 850.16 66.6289C852.82 66.6289 854.631 67.6484 855.592 69.6875C856.225 68.7734 857.045 68.0352 858.053 67.4727C859.072 66.9102 860.273 66.6289 861.656 66.6289C865.828 66.6289 867.949 68.8379 868.02 73.2559V86H864.768V73.4492C864.768 72.0898 864.457 71.0762 863.836 70.4082C863.215 69.7285 862.172 69.3887 860.707 69.3887C859.5 69.3887 858.498 69.752 857.701 70.4785C856.904 71.1934 856.441 72.1602 856.312 73.3789V86H853.043V73.5371C853.043 70.7715 851.689 69.3887 848.982 69.3887C846.85 69.3887 845.391 70.2969 844.605 72.1133V86H841.354V66.9805H844.43Z" fill="white"/>
<path d="M884.684 86C884.496 85.625 884.344 84.957 884.227 83.9961C882.715 85.5664 880.91 86.3516 878.812 86.3516C876.938 86.3516 875.396 85.8242 874.189 84.7695C872.994 83.7031 872.396 82.3555 872.396 80.7266C872.396 78.7461 873.146 77.2109 874.646 76.1211C876.158 75.0195 878.279 74.4688 881.01 74.4688H884.174V72.9746C884.174 71.8379 883.834 70.9355 883.154 70.2676C882.475 69.5879 881.473 69.248 880.148 69.248C878.988 69.248 878.016 69.541 877.23 70.127C876.445 70.7129 876.053 71.4219 876.053 72.2539H872.783C872.783 71.3047 873.117 70.3906 873.785 69.5117C874.465 68.6211 875.379 67.918 876.527 67.4023C877.688 66.8867 878.959 66.6289 880.342 66.6289C882.533 66.6289 884.25 67.1797 885.492 68.2812C886.734 69.3711 887.379 70.877 887.426 72.7988V81.5527C887.426 83.2988 887.648 84.6875 888.094 85.7188V86H884.684ZM879.287 83.5215C880.307 83.5215 881.273 83.2578 882.188 82.7305C883.102 82.2031 883.764 81.5176 884.174 80.6738V76.7715H881.625C877.641 76.7715 875.648 77.9375 875.648 80.2695C875.648 81.2891 875.988 82.0859 876.668 82.6602C877.348 83.2344 878.221 83.5215 879.287 83.5215Z" fill="white"/>
<path d="M85.6699 118.332C85.6699 115.414 86.3613 113.07 87.7441 111.301C89.127 109.52 90.9375 108.629 93.1758 108.629C95.4023 108.629 97.166 109.391 98.4668 110.914V101H101.719V128H98.7305L98.5723 125.961C97.2715 127.555 95.4609 128.352 93.1406 128.352C90.9375 128.352 89.1387 127.449 87.7441 125.645C86.3613 123.84 85.6699 121.484 85.6699 118.578V118.332ZM88.9219 118.701C88.9219 120.857 89.3672 122.545 90.2578 123.764C91.1484 124.982 92.3789 125.592 93.9492 125.592C96.0117 125.592 97.5176 124.666 98.4668 122.814V114.078C97.4941 112.285 96 111.389 93.9844 111.389C92.3906 111.389 91.1484 112.004 90.2578 113.234C89.3672 114.465 88.9219 116.287 88.9219 118.701Z" fill="white"/>
<path d="M114.674 128.352C112.096 128.352 109.998 127.508 108.381 125.82C106.764 124.121 105.955 121.854 105.955 119.018V118.42C105.955 116.533 106.312 114.852 107.027 113.375C107.754 111.887 108.762 110.727 110.051 109.895C111.352 109.051 112.758 108.629 114.27 108.629C116.742 108.629 118.664 109.443 120.035 111.072C121.406 112.701 122.092 115.033 122.092 118.068V119.422H109.207C109.254 121.297 109.799 122.814 110.842 123.975C111.896 125.123 113.232 125.697 114.85 125.697C115.998 125.697 116.971 125.463 117.768 124.994C118.564 124.525 119.262 123.904 119.859 123.131L121.846 124.678C120.252 127.127 117.861 128.352 114.674 128.352ZM114.27 111.301C112.957 111.301 111.855 111.781 110.965 112.742C110.074 113.691 109.523 115.027 109.312 116.75H118.84V116.504C118.746 114.852 118.301 113.574 117.504 112.672C116.707 111.758 115.629 111.301 114.27 111.301Z" fill="white"/>
<path d="M138.334 128H135.082V101H138.334V128Z" fill="white"/>
<path d="M155.297 128C155.109 127.625 154.957 126.957 154.84 125.996C153.328 127.566 151.523 128.352 149.426 128.352C147.551 128.352 146.01 127.824 144.803 126.77C143.607 125.703 143.01 124.355 143.01 122.727C143.01 120.746 143.76 119.211 145.26 118.121C146.771 117.02 148.893 116.469 151.623 116.469H154.787V114.975C154.787 113.838 154.447 112.936 153.768 112.268C153.088 111.588 152.086 111.248 150.762 111.248C149.602 111.248 148.629 111.541 147.844 112.127C147.059 112.713 146.666 113.422 146.666 114.254H143.396C143.396 113.305 143.73 112.391 144.398 111.512C145.078 110.621 145.992 109.918 147.141 109.402C148.301 108.887 149.572 108.629 150.955 108.629C153.146 108.629 154.863 109.18 156.105 110.281C157.348 111.371 157.992 112.877 158.039 114.799V123.553C158.039 125.299 158.262 126.688 158.707 127.719V128H155.297ZM149.9 125.521C150.92 125.521 151.887 125.258 152.801 124.73C153.715 124.203 154.377 123.518 154.787 122.674V118.771H152.238C148.254 118.771 146.262 119.938 146.262 122.27C146.262 123.289 146.602 124.086 147.281 124.66C147.961 125.234 148.834 125.521 149.9 125.521Z" fill="white"/>
<path d="M174.211 122.955C174.211 122.076 173.877 121.396 173.209 120.916C172.553 120.424 171.398 120.002 169.746 119.65C168.105 119.299 166.799 118.877 165.826 118.385C164.865 117.893 164.15 117.307 163.682 116.627C163.225 115.947 162.996 115.139 162.996 114.201C162.996 112.643 163.652 111.324 164.965 110.246C166.289 109.168 167.977 108.629 170.027 108.629C172.184 108.629 173.93 109.186 175.266 110.299C176.613 111.412 177.287 112.836 177.287 114.57H174.018C174.018 113.68 173.637 112.912 172.875 112.268C172.125 111.623 171.176 111.301 170.027 111.301C168.844 111.301 167.918 111.559 167.25 112.074C166.582 112.59 166.248 113.264 166.248 114.096C166.248 114.881 166.559 115.473 167.18 115.871C167.801 116.27 168.92 116.65 170.537 117.014C172.166 117.377 173.484 117.811 174.492 118.314C175.5 118.818 176.244 119.428 176.725 120.143C177.217 120.846 177.463 121.707 177.463 122.727C177.463 124.426 176.783 125.791 175.424 126.822C174.064 127.842 172.301 128.352 170.133 128.352C168.609 128.352 167.262 128.082 166.09 127.543C164.918 127.004 163.998 126.254 163.33 125.293C162.674 124.32 162.346 123.271 162.346 122.146H165.598C165.656 123.236 166.09 124.104 166.898 124.748C167.719 125.381 168.797 125.697 170.133 125.697C171.363 125.697 172.348 125.451 173.086 124.959C173.836 124.455 174.211 123.787 174.211 122.955Z" fill="white"/>
<path d="M198.258 125.697C199.418 125.697 200.432 125.346 201.299 124.643C202.166 123.939 202.646 123.061 202.74 122.006H205.816C205.758 123.096 205.383 124.133 204.691 125.117C204 126.102 203.074 126.887 201.914 127.473C200.766 128.059 199.547 128.352 198.258 128.352C195.668 128.352 193.605 127.49 192.07 125.768C190.547 124.033 189.785 121.666 189.785 118.666V118.121C189.785 116.27 190.125 114.623 190.805 113.182C191.484 111.74 192.457 110.621 193.723 109.824C195 109.027 196.506 108.629 198.24 108.629C200.373 108.629 202.143 109.268 203.549 110.545C204.967 111.822 205.723 113.48 205.816 115.52H202.74C202.646 114.289 202.178 113.281 201.334 112.496C200.502 111.699 199.471 111.301 198.24 111.301C196.588 111.301 195.305 111.898 194.391 113.094C193.488 114.277 193.037 115.994 193.037 118.244V118.859C193.037 121.051 193.488 122.738 194.391 123.922C195.293 125.105 196.582 125.697 198.258 125.697Z" fill="white"/>
<path d="M213.006 128H209.754V108.98H213.006V128ZM209.49 103.936C209.49 103.408 209.648 102.963 209.965 102.6C210.293 102.236 210.773 102.055 211.406 102.055C212.039 102.055 212.52 102.236 212.848 102.6C213.176 102.963 213.34 103.408 213.34 103.936C213.34 104.463 213.176 104.902 212.848 105.254C212.52 105.605 212.039 105.781 211.406 105.781C210.773 105.781 210.293 105.605 209.965 105.254C209.648 104.902 209.49 104.463 209.49 103.936Z" fill="white"/>
<path d="M219.826 128V111.494H216.82V108.98H219.826V107.029C219.826 104.99 220.371 103.414 221.461 102.301C222.551 101.188 224.092 100.631 226.084 100.631C226.834 100.631 227.578 100.73 228.316 100.93L228.141 103.566C227.59 103.461 227.004 103.408 226.383 103.408C225.328 103.408 224.514 103.719 223.939 104.34C223.365 104.949 223.078 105.828 223.078 106.977V108.98H227.139V111.494H223.078V128H219.826Z" fill="white"/>
<path d="M239.936 111.898C239.443 111.816 238.91 111.775 238.336 111.775C236.203 111.775 234.756 112.684 233.994 114.5V128H230.742V108.98H233.906L233.959 111.178C235.025 109.479 236.537 108.629 238.494 108.629C239.127 108.629 239.607 108.711 239.936 108.875V111.898Z" fill="white"/>
<path d="M253.98 128C253.793 127.625 253.641 126.957 253.523 125.996C252.012 127.566 250.207 128.352 248.109 128.352C246.234 128.352 244.693 127.824 243.486 126.77C242.291 125.703 241.693 124.355 241.693 122.727C241.693 120.746 242.443 119.211 243.943 118.121C245.455 117.02 247.576 116.469 250.307 116.469H253.471V114.975C253.471 113.838 253.131 112.936 252.451 112.268C251.771 111.588 250.77 111.248 249.445 111.248C248.285 111.248 247.312 111.541 246.527 112.127C245.742 112.713 245.35 113.422 245.35 114.254H242.08C242.08 113.305 242.414 112.391 243.082 111.512C243.762 110.621 244.676 109.918 245.824 109.402C246.984 108.887 248.256 108.629 249.639 108.629C251.83 108.629 253.547 109.18 254.789 110.281C256.031 111.371 256.676 112.877 256.723 114.799V123.553C256.723 125.299 256.945 126.688 257.391 127.719V128H253.98ZM248.584 125.521C249.604 125.521 250.57 125.258 251.484 124.73C252.398 124.203 253.061 123.518 253.471 122.674V118.771H250.922C246.938 118.771 244.945 119.938 244.945 122.27C244.945 123.289 245.285 124.086 245.965 124.66C246.645 125.234 247.518 125.521 248.584 125.521Z" fill="white"/>
<path d="M272.895 122.955C272.895 122.076 272.561 121.396 271.893 120.916C271.236 120.424 270.082 120.002 268.43 119.65C266.789 119.299 265.482 118.877 264.51 118.385C263.549 117.893 262.834 117.307 262.365 116.627C261.908 115.947 261.68 115.139 261.68 114.201C261.68 112.643 262.336 111.324 263.648 110.246C264.973 109.168 266.66 108.629 268.711 108.629C270.867 108.629 272.613 109.186 273.949 110.299C275.297 111.412 275.971 112.836 275.971 114.57H272.701C272.701 113.68 272.32 112.912 271.559 112.268C270.809 111.623 269.859 111.301 268.711 111.301C267.527 111.301 266.602 111.559 265.934 112.074C265.266 112.59 264.932 113.264 264.932 114.096C264.932 114.881 265.242 115.473 265.863 115.871C266.484 116.27 267.604 116.65 269.221 117.014C270.85 117.377 272.168 117.811 273.176 118.314C274.184 118.818 274.928 119.428 275.408 120.143C275.9 120.846 276.146 121.707 276.146 122.727C276.146 124.426 275.467 125.791 274.107 126.822C272.748 127.842 270.984 128.352 268.816 128.352C267.293 128.352 265.945 128.082 264.773 127.543C263.602 127.004 262.682 126.254 262.014 125.293C261.357 124.32 261.029 123.271 261.029 122.146H264.281C264.34 123.236 264.773 124.104 265.582 124.748C266.402 125.381 267.48 125.697 268.816 125.697C270.047 125.697 271.031 125.451 271.77 124.959C272.52 124.455 272.895 123.787 272.895 122.955Z" fill="white"/>
<path d="M288.521 118.332C288.521 115.414 289.213 113.07 290.596 111.301C291.979 109.52 293.789 108.629 296.027 108.629C298.254 108.629 300.018 109.391 301.318 110.914V101H304.57V128H301.582L301.424 125.961C300.123 127.555 298.312 128.352 295.992 128.352C293.789 128.352 291.99 127.449 290.596 125.645C289.213 123.84 288.521 121.484 288.521 118.578V118.332ZM291.773 118.701C291.773 120.857 292.219 122.545 293.109 123.764C294 124.982 295.23 125.592 296.801 125.592C298.863 125.592 300.369 124.666 301.318 122.814V114.078C300.346 112.285 298.852 111.389 296.836 111.389C295.242 111.389 294 112.004 293.109 113.234C292.219 114.465 291.773 116.287 291.773 118.701Z" fill="white"/>
<path d="M317.525 128.352C314.947 128.352 312.85 127.508 311.232 125.82C309.615 124.121 308.807 121.854 308.807 119.018V118.42C308.807 116.533 309.164 114.852 309.879 113.375C310.605 111.887 311.613 110.727 312.902 109.895C314.203 109.051 315.609 108.629 317.121 108.629C319.594 108.629 321.516 109.443 322.887 111.072C324.258 112.701 324.943 115.033 324.943 118.068V119.422H312.059C312.105 121.297 312.65 122.814 313.693 123.975C314.748 125.123 316.084 125.697 317.701 125.697C318.85 125.697 319.822 125.463 320.619 124.994C321.416 124.525 322.113 123.904 322.711 123.131L324.697 124.678C323.104 127.127 320.713 128.352 317.525 128.352ZM317.121 111.301C315.809 111.301 314.707 111.781 313.816 112.742C312.926 113.691 312.375 115.027 312.164 116.75H321.691V116.504C321.598 114.852 321.152 113.574 320.355 112.672C319.559 111.758 318.48 111.301 317.121 111.301Z" fill="white"/>
<path d="M332.256 128H329.004V101H332.256V128Z" fill="white"/>
<path d="M349.465 108.98L349.553 111.09C350.947 109.449 352.828 108.629 355.195 108.629C357.855 108.629 359.666 109.648 360.627 111.688C361.26 110.773 362.08 110.035 363.088 109.473C364.107 108.91 365.309 108.629 366.691 108.629C370.863 108.629 372.984 110.838 373.055 115.256V128H369.803V115.449C369.803 114.09 369.492 113.076 368.871 112.408C368.25 111.729 367.207 111.389 365.742 111.389C364.535 111.389 363.533 111.752 362.736 112.479C361.939 113.193 361.477 114.16 361.348 115.379V128H358.078V115.537C358.078 112.771 356.725 111.389 354.018 111.389C351.885 111.389 350.426 112.297 349.641 114.113V128H346.389V108.98H349.465Z" fill="white"/>
<path d="M389.719 128C389.531 127.625 389.379 126.957 389.262 125.996C387.75 127.566 385.945 128.352 383.848 128.352C381.973 128.352 380.432 127.824 379.225 126.77C378.029 125.703 377.432 124.355 377.432 122.727C377.432 120.746 378.182 119.211 379.682 118.121C381.193 117.02 383.314 116.469 386.045 116.469H389.209V114.975C389.209 113.838 388.869 112.936 388.189 112.268C387.51 111.588 386.508 111.248 385.184 111.248C384.023 111.248 383.051 111.541 382.266 112.127C381.48 112.713 381.088 113.422 381.088 114.254H377.818C377.818 113.305 378.152 112.391 378.82 111.512C379.5 110.621 380.414 109.918 381.562 109.402C382.723 108.887 383.994 108.629 385.377 108.629C387.568 108.629 389.285 109.18 390.527 110.281C391.77 111.371 392.414 112.877 392.461 114.799V123.553C392.461 125.299 392.684 126.688 393.129 127.719V128H389.719ZM384.322 125.521C385.342 125.521 386.309 125.258 387.223 124.73C388.137 124.203 388.799 123.518 389.209 122.674V118.771H386.66C382.676 118.771 380.684 119.938 380.684 122.27C380.684 123.289 381.023 124.086 381.703 124.66C382.383 125.234 383.256 125.521 384.322 125.521ZM387.328 101H391.266L386.555 106.168H383.936L387.328 101Z" fill="white"/>
<path d="M403.939 115.924L408.158 108.98H411.955L405.732 118.385L412.148 128H408.387L403.992 120.881L399.598 128H395.818L402.234 118.385L396.012 108.98H399.773L403.939 115.924Z" fill="white"/>
<path d="M418.951 128H415.699V108.98H418.951V128ZM415.436 103.936C415.436 103.408 415.594 102.963 415.91 102.6C416.238 102.236 416.719 102.055 417.352 102.055C417.984 102.055 418.465 102.236 418.793 102.6C419.121 102.963 419.285 103.408 419.285 103.936C419.285 104.463 419.121 104.902 418.793 105.254C418.465 105.605 417.984 105.781 417.352 105.781C416.719 105.781 416.238 105.605 415.91 105.254C415.594 104.902 415.436 104.463 415.436 103.936Z" fill="white"/>
<path d="M427.23 108.98L427.318 111.09C428.713 109.449 430.594 108.629 432.961 108.629C435.621 108.629 437.432 109.648 438.393 111.688C439.025 110.773 439.846 110.035 440.854 109.473C441.873 108.91 443.074 108.629 444.457 108.629C448.629 108.629 450.75 110.838 450.82 115.256V128H447.568V115.449C447.568 114.09 447.258 113.076 446.637 112.408C446.016 111.729 444.973 111.389 443.508 111.389C442.301 111.389 441.299 111.752 440.502 112.479C439.705 113.193 439.242 114.16 439.113 115.379V128H435.844V115.537C435.844 112.771 434.49 111.389 431.783 111.389C429.65 111.389 428.191 112.297 427.406 114.113V128H424.154V108.98H427.23Z" fill="white"/>
<path d="M454.881 118.314C454.881 116.451 455.244 114.775 455.971 113.287C456.709 111.799 457.729 110.65 459.029 109.842C460.342 109.033 461.836 108.629 463.512 108.629C466.102 108.629 468.193 109.525 469.787 111.318C471.393 113.111 472.195 115.496 472.195 118.473V118.701C472.195 120.553 471.838 122.217 471.123 123.693C470.42 125.158 469.406 126.301 468.082 127.121C466.77 127.941 465.258 128.352 463.547 128.352C460.969 128.352 458.877 127.455 457.271 125.662C455.678 123.869 454.881 121.496 454.881 118.543V118.314ZM458.15 118.701C458.15 120.811 458.637 122.504 459.609 123.781C460.594 125.059 461.906 125.697 463.547 125.697C465.199 125.697 466.512 125.053 467.484 123.764C468.457 122.463 468.943 120.646 468.943 118.314C468.943 116.229 468.445 114.541 467.449 113.252C466.465 111.951 465.152 111.301 463.512 111.301C461.906 111.301 460.611 111.939 459.627 113.217C458.643 114.494 458.15 116.322 458.15 118.701Z" fill="white"/>
<path d="M488.279 108.98L488.385 111.371C489.838 109.543 491.736 108.629 494.08 108.629C498.1 108.629 500.127 110.896 500.162 115.432V128H496.91V115.414C496.898 114.043 496.582 113.029 495.961 112.373C495.352 111.717 494.396 111.389 493.096 111.389C492.041 111.389 491.115 111.67 490.318 112.232C489.521 112.795 488.9 113.533 488.455 114.447V128H485.203V108.98H488.279Z" fill="white"/>
<path d="M516.809 126.119C515.543 127.607 513.686 128.352 511.236 128.352C509.209 128.352 507.662 127.766 506.596 126.594C505.541 125.41 505.008 123.664 504.996 121.355V108.98H508.248V121.268C508.248 124.15 509.42 125.592 511.764 125.592C514.248 125.592 515.9 124.666 516.721 122.814V108.98H519.973V128H516.879L516.809 126.119ZM514.172 101H518.109L513.398 106.168H510.779L514.172 101Z" fill="white"/>
<path d="M527.988 108.98L528.076 111.09C529.471 109.449 531.352 108.629 533.719 108.629C536.379 108.629 538.189 109.648 539.15 111.688C539.783 110.773 540.604 110.035 541.611 109.473C542.631 108.91 543.832 108.629 545.215 108.629C549.387 108.629 551.508 110.838 551.578 115.256V128H548.326V115.449C548.326 114.09 548.016 113.076 547.395 112.408C546.773 111.729 545.73 111.389 544.266 111.389C543.059 111.389 542.057 111.752 541.26 112.479C540.463 113.193 540 114.16 539.871 115.379V128H536.602V115.537C536.602 112.771 535.248 111.389 532.541 111.389C530.408 111.389 528.949 112.297 528.164 114.113V128H524.912V108.98H527.988Z" fill="white"/>
<path d="M564.393 128.352C561.814 128.352 559.717 127.508 558.1 125.82C556.482 124.121 555.674 121.854 555.674 119.018V118.42C555.674 116.533 556.031 114.852 556.746 113.375C557.473 111.887 558.48 110.727 559.77 109.895C561.07 109.051 562.477 108.629 563.988 108.629C566.461 108.629 568.383 109.443 569.754 111.072C571.125 112.701 571.811 115.033 571.811 118.068V119.422H558.926C558.973 121.297 559.518 122.814 560.561 123.975C561.615 125.123 562.951 125.697 564.568 125.697C565.717 125.697 566.689 125.463 567.486 124.994C568.283 124.525 568.98 123.904 569.578 123.131L571.564 124.678C569.971 127.127 567.58 128.352 564.393 128.352ZM563.988 111.301C562.676 111.301 561.574 111.781 560.684 112.742C559.793 113.691 559.242 115.027 559.031 116.75H568.559V116.504C568.465 114.852 568.02 113.574 567.223 112.672C566.426 111.758 565.348 111.301 563.988 111.301Z" fill="white"/>
<path d="M584.783 111.898C584.291 111.816 583.758 111.775 583.184 111.775C581.051 111.775 579.604 112.684 578.842 114.5V128H575.59V108.98H578.754L578.807 111.178C579.873 109.479 581.385 108.629 583.342 108.629C583.975 108.629 584.455 108.711 584.783 108.875V111.898Z" fill="white"/>
<path d="M586.576 118.314C586.576 116.451 586.939 114.775 587.666 113.287C588.404 111.799 589.424 110.65 590.725 109.842C592.037 109.033 593.531 108.629 595.207 108.629C597.797 108.629 599.889 109.525 601.482 111.318C603.088 113.111 603.891 115.496 603.891 118.473V118.701C603.891 120.553 603.533 122.217 602.818 123.693C602.115 125.158 601.102 126.301 599.777 127.121C598.465 127.941 596.953 128.352 595.242 128.352C592.664 128.352 590.572 127.455 588.967 125.662C587.373 123.869 586.576 121.496 586.576 118.543V118.314ZM589.846 118.701C589.846 120.811 590.332 122.504 591.305 123.781C592.289 125.059 593.602 125.697 595.242 125.697C596.895 125.697 598.207 125.053 599.18 123.764C600.152 122.463 600.639 120.646 600.639 118.314C600.639 116.229 600.141 114.541 599.145 113.252C598.16 111.951 596.848 111.301 595.207 111.301C593.602 111.301 592.307 111.939 591.322 113.217C590.338 114.494 589.846 116.322 589.846 118.701Z" fill="white"/>
<path d="M616.107 118.332C616.107 115.414 616.799 113.07 618.182 111.301C619.564 109.52 621.375 108.629 623.613 108.629C625.84 108.629 627.604 109.391 628.904 110.914V101H632.156V128H629.168L629.01 125.961C627.709 127.555 625.898 128.352 623.578 128.352C621.375 128.352 619.576 127.449 618.182 125.645C616.799 123.84 616.107 121.484 616.107 118.578V118.332ZM619.359 118.701C619.359 120.857 619.805 122.545 620.695 123.764C621.586 124.982 622.816 125.592 624.387 125.592C626.449 125.592 627.955 124.666 628.904 122.814V114.078C627.932 112.285 626.438 111.389 624.422 111.389C622.828 111.389 621.586 112.004 620.695 113.234C619.805 114.465 619.359 116.287 619.359 118.701Z" fill="white"/>
<path d="M645.111 128.352C642.533 128.352 640.436 127.508 638.818 125.82C637.201 124.121 636.393 121.854 636.393 119.018V118.42C636.393 116.533 636.75 114.852 637.465 113.375C638.191 111.887 639.199 110.727 640.488 109.895C641.789 109.051 643.195 108.629 644.707 108.629C647.18 108.629 649.102 109.443 650.473 111.072C651.844 112.701 652.529 115.033 652.529 118.068V119.422H639.645C639.691 121.297 640.236 122.814 641.279 123.975C642.334 125.123 643.67 125.697 645.287 125.697C646.436 125.697 647.408 125.463 648.205 124.994C649.002 124.525 649.699 123.904 650.297 123.131L652.283 124.678C650.689 127.127 648.299 128.352 645.111 128.352ZM644.707 111.301C643.395 111.301 642.293 111.781 641.402 112.742C640.512 113.691 639.961 115.027 639.75 116.75H649.277V116.504C649.184 114.852 648.738 113.574 647.941 112.672C647.145 111.758 646.066 111.301 644.707 111.301Z" fill="white"/>
<path d="M669.65 104.375V108.98H673.201V111.494H669.65V123.289C669.65 124.051 669.809 124.625 670.125 125.012C670.441 125.387 670.98 125.574 671.742 125.574C672.117 125.574 672.633 125.504 673.289 125.363V128C672.434 128.234 671.602 128.352 670.793 128.352C669.34 128.352 668.244 127.912 667.506 127.033C666.768 126.154 666.398 124.906 666.398 123.289V111.494H662.936V108.98H666.398V104.375H669.65Z" fill="white"/>
<path d="M686.209 111.898C685.717 111.816 685.184 111.775 684.609 111.775C682.477 111.775 681.029 112.684 680.268 114.5V128H677.016V108.98H680.18L680.232 111.178C681.299 109.479 682.811 108.629 684.768 108.629C685.4 108.629 685.881 108.711 686.209 108.875V111.898Z" fill="white"/>
<path d="M692.748 128H689.496V108.98H692.748V128ZM689.232 103.936C689.232 103.408 689.391 102.963 689.707 102.6C690.035 102.236 690.516 102.055 691.148 102.055C691.781 102.055 692.262 102.236 692.59 102.6C692.918 102.963 693.082 103.408 693.082 103.936C693.082 104.463 692.918 104.902 692.59 105.254C692.262 105.605 691.781 105.781 691.148 105.781C690.516 105.781 690.035 105.605 689.707 105.254C689.391 104.902 689.232 104.463 689.232 103.936Z" fill="white"/>
<path d="M709.711 128C709.523 127.625 709.371 126.957 709.254 125.996C707.742 127.566 705.938 128.352 703.84 128.352C701.965 128.352 700.424 127.824 699.217 126.77C698.021 125.703 697.424 124.355 697.424 122.727C697.424 120.746 698.174 119.211 699.674 118.121C701.186 117.02 703.307 116.469 706.037 116.469H709.201V114.975C709.201 113.838 708.861 112.936 708.182 112.268C707.502 111.588 706.5 111.248 705.176 111.248C704.016 111.248 703.043 111.541 702.258 112.127C701.473 112.713 701.08 113.422 701.08 114.254H697.811C697.811 113.305 698.145 112.391 698.812 111.512C699.492 110.621 700.406 109.918 701.555 109.402C702.715 108.887 703.986 108.629 705.369 108.629C707.561 108.629 709.277 109.18 710.52 110.281C711.762 111.371 712.406 112.877 712.453 114.799V123.553C712.453 125.299 712.676 126.688 713.121 127.719V128H709.711ZM704.314 125.521C705.334 125.521 706.301 125.258 707.215 124.73C708.129 124.203 708.791 123.518 709.201 122.674V118.771H706.652C702.668 118.771 700.676 119.938 700.676 122.27C700.676 123.289 701.016 124.086 701.695 124.66C702.375 125.234 703.248 125.521 704.314 125.521ZM707.32 101H711.258L706.547 106.168H703.928L707.32 101Z" fill="white"/>
<path d="M720.627 108.98L720.732 111.371C722.186 109.543 724.084 108.629 726.428 108.629C730.447 108.629 732.475 110.896 732.51 115.432V128H729.258V115.414C729.246 114.043 728.93 113.029 728.309 112.373C727.699 111.717 726.744 111.389 725.443 111.389C724.389 111.389 723.463 111.67 722.666 112.232C721.869 112.795 721.248 113.533 720.803 114.447V128H717.551V108.98H720.627Z" fill="white"/>
<path d="M736.641 118.332C736.641 115.367 737.326 113.012 738.697 111.266C740.068 109.508 741.885 108.629 744.146 108.629C746.467 108.629 748.277 109.449 749.578 111.09L749.736 108.98H752.707V127.543C752.707 130.004 751.975 131.943 750.51 133.361C749.057 134.779 747.1 135.488 744.639 135.488C743.268 135.488 741.926 135.195 740.613 134.609C739.301 134.023 738.299 133.221 737.607 132.201L739.295 130.25C740.689 131.973 742.395 132.834 744.41 132.834C745.992 132.834 747.223 132.389 748.102 131.498C748.992 130.607 749.438 129.354 749.438 127.736V126.102C748.137 127.602 746.361 128.352 744.111 128.352C741.885 128.352 740.08 127.455 738.697 125.662C737.326 123.869 736.641 121.426 736.641 118.332ZM739.91 118.701C739.91 120.846 740.35 122.533 741.229 123.764C742.107 124.982 743.338 125.592 744.92 125.592C746.971 125.592 748.477 124.66 749.438 122.797V114.113C748.441 112.297 746.947 111.389 744.955 111.389C743.373 111.389 742.137 112.004 741.246 113.234C740.355 114.465 739.91 116.287 739.91 118.701Z" fill="white"/>
<path d="M769.371 126.119C768.105 127.607 766.248 128.352 763.799 128.352C761.771 128.352 760.225 127.766 759.158 126.594C758.104 125.41 757.57 123.664 757.559 121.355V108.98H760.811V121.268C760.811 124.15 761.982 125.592 764.326 125.592C766.811 125.592 768.463 124.666 769.283 122.814V108.98H772.535V128H769.441L769.371 126.119Z" fill="white"/>
<path d="M781.025 128H777.773V101H781.025V128Z" fill="white"/>
<path d="M785.385 118.314C785.385 116.451 785.748 114.775 786.475 113.287C787.213 111.799 788.232 110.65 789.533 109.842C790.846 109.033 792.34 108.629 794.016 108.629C796.605 108.629 798.697 109.525 800.291 111.318C801.896 113.111 802.699 115.496 802.699 118.473V118.701C802.699 120.553 802.342 122.217 801.627 123.693C800.924 125.158 799.91 126.301 798.586 127.121C797.273 127.941 795.762 128.352 794.051 128.352C791.473 128.352 789.381 127.455 787.775 125.662C786.182 123.869 785.385 121.496 785.385 118.543V118.314ZM788.654 118.701C788.654 120.811 789.141 122.504 790.113 123.781C791.098 125.059 792.41 125.697 794.051 125.697C795.703 125.697 797.016 125.053 797.988 123.764C798.961 122.463 799.447 120.646 799.447 118.314C799.447 116.229 798.949 114.541 797.953 113.252C796.969 111.951 795.656 111.301 794.016 111.301C792.41 111.301 791.115 111.939 790.131 113.217C789.146 114.494 788.654 116.322 788.654 118.701Z" fill="white"/>
<path d="M817.852 122.955C817.852 122.076 817.518 121.396 816.85 120.916C816.193 120.424 815.039 120.002 813.387 119.65C811.746 119.299 810.439 118.877 809.467 118.385C808.506 117.893 807.791 117.307 807.322 116.627C806.865 115.947 806.637 115.139 806.637 114.201C806.637 112.643 807.293 111.324 808.605 110.246C809.93 109.168 811.617 108.629 813.668 108.629C815.824 108.629 817.57 109.186 818.906 110.299C820.254 111.412 820.928 112.836 820.928 114.57H817.658C817.658 113.68 817.277 112.912 816.516 112.268C815.766 111.623 814.816 111.301 813.668 111.301C812.484 111.301 811.559 111.559 810.891 112.074C810.223 112.59 809.889 113.264 809.889 114.096C809.889 114.881 810.199 115.473 810.82 115.871C811.441 116.27 812.561 116.65 814.178 117.014C815.807 117.377 817.125 117.811 818.133 118.314C819.141 118.818 819.885 119.428 820.365 120.143C820.857 120.846 821.104 121.707 821.104 122.727C821.104 124.426 820.424 125.791 819.064 126.822C817.705 127.842 815.941 128.352 813.773 128.352C812.25 128.352 810.902 128.082 809.73 127.543C808.559 127.004 807.639 126.254 806.971 125.293C806.314 124.32 805.986 123.271 805.986 122.146H809.238C809.297 123.236 809.73 124.104 810.539 124.748C811.359 125.381 812.438 125.697 813.773 125.697C815.004 125.697 815.988 125.451 816.727 124.959C817.477 124.455 817.852 123.787 817.852 122.955Z" fill="white"/>
<path d="M833.479 118.332C833.479 115.344 834.164 112.982 835.535 111.248C836.906 109.502 838.746 108.629 841.055 108.629C843.305 108.629 845.08 109.385 846.381 110.896L846.521 108.98H849.51V135.312H846.258V126.242C844.945 127.648 843.199 128.352 841.02 128.352C838.723 128.352 836.889 127.461 835.518 125.68C834.158 123.887 833.479 121.514 833.479 118.561V118.332ZM836.73 118.701C836.73 120.881 837.188 122.592 838.102 123.834C839.027 125.076 840.27 125.697 841.828 125.697C843.762 125.697 845.238 124.842 846.258 123.131V113.814C845.227 112.139 843.762 111.301 841.863 111.301C840.293 111.301 839.045 111.928 838.119 113.182C837.193 114.424 836.73 116.264 836.73 118.701Z" fill="white"/>
<path d="M866.473 126.119C865.207 127.607 863.35 128.352 860.9 128.352C858.873 128.352 857.326 127.766 856.26 126.594C855.205 125.41 854.672 123.664 854.66 121.355V108.98H857.912V121.268C857.912 124.15 859.084 125.592 861.428 125.592C863.912 125.592 865.564 124.666 866.385 122.814V108.98H869.637V128H866.543L866.473 126.119Z" fill="white"/>
<path d="M882.486 128.352C879.908 128.352 877.811 127.508 876.193 125.82C874.576 124.121 873.768 121.854 873.768 119.018V118.42C873.768 116.533 874.125 114.852 874.84 113.375C875.566 111.887 876.574 110.727 877.863 109.895C879.164 109.051 880.57 108.629 882.082 108.629C884.555 108.629 886.477 109.443 887.848 111.072C889.219 112.701 889.904 115.033 889.904 118.068V119.422H877.02C877.066 121.297 877.611 122.814 878.654 123.975C879.709 125.123 881.045 125.697 882.662 125.697C883.811 125.697 884.783 125.463 885.58 124.994C886.377 124.525 887.074 123.904 887.672 123.131L889.658 124.678C888.064 127.127 885.674 128.352 882.486 128.352ZM882.082 111.301C880.77 111.301 879.668 111.781 878.777 112.742C877.887 113.691 877.336 115.027 877.125 116.75H886.652V116.504C886.559 114.852 886.113 113.574 885.316 112.672C884.52 111.758 883.441 111.301 882.082 111.301Z" fill="white"/>
<path d="M97.5352 164.955C97.5352 164.076 97.2012 163.396 96.5332 162.916C95.877 162.424 94.7227 162.002 93.0703 161.65C91.4297 161.299 90.123 160.877 89.1504 160.385C88.1895 159.893 87.4746 159.307 87.0059 158.627C86.5488 157.947 86.3203 157.139 86.3203 156.201C86.3203 154.643 86.9766 153.324 88.2891 152.246C89.6133 151.168 91.3008 150.629 93.3516 150.629C95.5078 150.629 97.2539 151.186 98.5898 152.299C99.9375 153.412 100.611 154.836 100.611 156.57H97.3418C97.3418 155.68 96.9609 154.912 96.1992 154.268C95.4492 153.623 94.5 153.301 93.3516 153.301C92.168 153.301 91.2422 153.559 90.5742 154.074C89.9062 154.59 89.5723 155.264 89.5723 156.096C89.5723 156.881 89.8828 157.473 90.5039 157.871C91.125 158.27 92.2441 158.65 93.8613 159.014C95.4902 159.377 96.8086 159.811 97.8164 160.314C98.8242 160.818 99.5684 161.428 100.049 162.143C100.541 162.846 100.787 163.707 100.787 164.727C100.787 166.426 100.107 167.791 98.748 168.822C97.3887 169.842 95.625 170.352 93.457 170.352C91.9336 170.352 90.5859 170.082 89.4141 169.543C88.2422 169.004 87.3223 168.254 86.6543 167.293C85.998 166.32 85.6699 165.271 85.6699 164.146H88.9219C88.9805 165.236 89.4141 166.104 90.2227 166.748C91.043 167.381 92.1211 167.697 93.457 167.697C94.6875 167.697 95.6719 167.451 96.4102 166.959C97.1602 166.455 97.5352 165.787 97.5352 164.955Z" fill="white"/>
<path d="M112.916 170.352C110.338 170.352 108.24 169.508 106.623 167.82C105.006 166.121 104.197 163.854 104.197 161.018V160.42C104.197 158.533 104.555 156.852 105.27 155.375C105.996 153.887 107.004 152.727 108.293 151.895C109.594 151.051 111 150.629 112.512 150.629C114.984 150.629 116.906 151.443 118.277 153.072C119.648 154.701 120.334 157.033 120.334 160.068V161.422H107.449C107.496 163.297 108.041 164.814 109.084 165.975C110.139 167.123 111.475 167.697 113.092 167.697C114.24 167.697 115.213 167.463 116.01 166.994C116.807 166.525 117.504 165.904 118.102 165.131L120.088 166.678C118.494 169.127 116.104 170.352 112.916 170.352ZM112.512 153.301C111.199 153.301 110.098 153.781 109.207 154.742C108.316 155.691 107.766 157.027 107.555 158.75H117.082V158.504C116.988 156.852 116.543 155.574 115.746 154.672C114.949 153.758 113.871 153.301 112.512 153.301Z" fill="white"/>
<path d="M149.109 160.701C149.109 163.596 148.447 165.928 147.123 167.697C145.799 169.467 144.006 170.352 141.744 170.352C139.436 170.352 137.619 169.619 136.295 168.154V177.312H133.043V150.98H136.014L136.172 153.09C137.496 151.449 139.336 150.629 141.691 150.629C143.977 150.629 145.781 151.49 147.105 153.213C148.441 154.936 149.109 157.332 149.109 160.402V160.701ZM145.857 160.332C145.857 158.188 145.4 156.494 144.486 155.252C143.572 154.01 142.318 153.389 140.725 153.389C138.756 153.389 137.279 154.262 136.295 156.008V165.096C137.268 166.83 138.756 167.697 140.76 167.697C142.318 167.697 143.555 167.082 144.469 165.852C145.395 164.609 145.857 162.77 145.857 160.332Z" fill="white"/>
<path d="M152.396 160.314C152.396 158.451 152.76 156.775 153.486 155.287C154.225 153.799 155.244 152.65 156.545 151.842C157.857 151.033 159.352 150.629 161.027 150.629C163.617 150.629 165.709 151.525 167.303 153.318C168.908 155.111 169.711 157.496 169.711 160.473V160.701C169.711 162.553 169.354 164.217 168.639 165.693C167.936 167.158 166.922 168.301 165.598 169.121C164.285 169.941 162.773 170.352 161.062 170.352C158.484 170.352 156.393 169.455 154.787 167.662C153.193 165.869 152.396 163.496 152.396 160.543V160.314ZM155.666 160.701C155.666 162.811 156.152 164.504 157.125 165.781C158.109 167.059 159.422 167.697 161.062 167.697C162.715 167.697 164.027 167.053 165 165.764C165.973 164.463 166.459 162.646 166.459 160.314C166.459 158.229 165.961 156.541 164.965 155.252C163.98 153.951 162.668 153.301 161.027 153.301C159.422 153.301 158.127 153.939 157.143 155.217C156.158 156.494 155.666 158.322 155.666 160.701Z" fill="white"/>
<path d="M172.998 160.332C172.998 157.414 173.689 155.07 175.072 153.301C176.455 151.52 178.266 150.629 180.504 150.629C182.73 150.629 184.494 151.391 185.795 152.914V143H189.047V170H186.059L185.9 167.961C184.6 169.555 182.789 170.352 180.469 170.352C178.266 170.352 176.467 169.449 175.072 167.645C173.689 165.84 172.998 163.484 172.998 160.578V160.332ZM176.25 160.701C176.25 162.857 176.695 164.545 177.586 165.764C178.477 166.982 179.707 167.592 181.277 167.592C183.34 167.592 184.846 166.666 185.795 164.814V156.078C184.822 154.285 183.328 153.389 181.312 153.389C179.719 153.389 178.477 154.004 177.586 155.234C176.695 156.465 176.25 158.287 176.25 160.701Z" fill="white"/>
<path d="M203.303 153.898C202.811 153.816 202.277 153.775 201.703 153.775C199.57 153.775 198.123 154.684 197.361 156.5V170H194.109V150.98H197.273L197.326 153.178C198.393 151.479 199.904 150.629 201.861 150.629C202.494 150.629 202.975 150.711 203.303 150.875V153.898Z" fill="white"/>
<path d="M217.348 170C217.16 169.625 217.008 168.957 216.891 167.996C215.379 169.566 213.574 170.352 211.477 170.352C209.602 170.352 208.061 169.824 206.854 168.77C205.658 167.703 205.061 166.355 205.061 164.727C205.061 162.746 205.811 161.211 207.311 160.121C208.822 159.02 210.943 158.469 213.674 158.469H216.838V156.975C216.838 155.838 216.498 154.936 215.818 154.268C215.139 153.588 214.137 153.248 212.812 153.248C211.652 153.248 210.68 153.541 209.895 154.127C209.109 154.713 208.717 155.422 208.717 156.254H205.447C205.447 155.305 205.781 154.391 206.449 153.512C207.129 152.621 208.043 151.918 209.191 151.402C210.352 150.887 211.623 150.629 213.006 150.629C215.197 150.629 216.914 151.18 218.156 152.281C219.398 153.371 220.043 154.877 220.09 156.799V165.553C220.09 167.299 220.312 168.688 220.758 169.719V170H217.348ZM211.951 167.521C212.971 167.521 213.938 167.258 214.852 166.73C215.766 166.203 216.428 165.518 216.838 164.674V160.771H214.289C210.305 160.771 208.312 161.938 208.312 164.27C208.312 165.289 208.652 166.086 209.332 166.66C210.012 167.234 210.885 167.521 211.951 167.521ZM214.957 143H218.895L214.184 148.168H211.564L214.957 143Z" fill="white"/>
<path d="M228.264 150.98L228.369 153.371C229.822 151.543 231.721 150.629 234.064 150.629C238.084 150.629 240.111 152.896 240.146 157.432V170H236.895V157.414C236.883 156.043 236.566 155.029 235.945 154.373C235.336 153.717 234.381 153.389 233.08 153.389C232.025 153.389 231.1 153.67 230.303 154.232C229.506 154.795 228.885 155.533 228.439 156.447V170H225.188V150.98H228.264Z" fill="white"/>
<path d="M261.609 167.697C262.77 167.697 263.783 167.346 264.65 166.643C265.518 165.939 265.998 165.061 266.092 164.006H269.168C269.109 165.096 268.734 166.133 268.043 167.117C267.352 168.102 266.426 168.887 265.266 169.473C264.117 170.059 262.898 170.352 261.609 170.352C259.02 170.352 256.957 169.49 255.422 167.768C253.898 166.033 253.137 163.666 253.137 160.666V160.121C253.137 158.27 253.477 156.623 254.156 155.182C254.836 153.74 255.809 152.621 257.074 151.824C258.352 151.027 259.857 150.629 261.592 150.629C263.725 150.629 265.494 151.268 266.9 152.545C268.318 153.822 269.074 155.48 269.168 157.52H266.092C265.998 156.289 265.529 155.281 264.686 154.496C263.854 153.699 262.822 153.301 261.592 153.301C259.939 153.301 258.656 153.898 257.742 155.094C256.84 156.277 256.389 157.994 256.389 160.244V160.859C256.389 163.051 256.84 164.738 257.742 165.922C258.645 167.105 259.934 167.697 261.609 167.697Z" fill="white"/>
<path d="M271.963 160.314C271.963 158.451 272.326 156.775 273.053 155.287C273.791 153.799 274.811 152.65 276.111 151.842C277.424 151.033 278.918 150.629 280.594 150.629C283.184 150.629 285.275 151.525 286.869 153.318C288.475 155.111 289.277 157.496 289.277 160.473V160.701C289.277 162.553 288.92 164.217 288.205 165.693C287.502 167.158 286.488 168.301 285.164 169.121C283.852 169.941 282.34 170.352 280.629 170.352C278.051 170.352 275.959 169.455 274.354 167.662C272.76 165.869 271.963 163.496 271.963 160.543V160.314ZM275.232 160.701C275.232 162.811 275.719 164.504 276.691 165.781C277.676 167.059 278.988 167.697 280.629 167.697C282.281 167.697 283.594 167.053 284.566 165.764C285.539 164.463 286.025 162.646 286.025 160.314C286.025 158.229 285.527 156.541 284.531 155.252C283.547 153.951 282.234 153.301 280.594 153.301C278.988 153.301 277.693 153.939 276.709 155.217C275.725 156.494 275.232 158.322 275.232 160.701Z" fill="white"/>
<path d="M296.432 150.98L296.537 153.371C297.99 151.543 299.889 150.629 302.232 150.629C306.252 150.629 308.279 152.896 308.314 157.432V170H305.062V157.414C305.051 156.043 304.734 155.029 304.113 154.373C303.504 153.717 302.549 153.389 301.248 153.389C300.193 153.389 299.268 153.67 298.471 154.232C297.674 154.795 297.053 155.533 296.607 156.447V170H293.355V150.98H296.432Z" fill="white"/>
<path d="M317.631 146.375V150.98H321.182V153.494H317.631V165.289C317.631 166.051 317.789 166.625 318.105 167.012C318.422 167.387 318.961 167.574 319.723 167.574C320.098 167.574 320.613 167.504 321.27 167.363V170C320.414 170.234 319.582 170.352 318.773 170.352C317.32 170.352 316.225 169.912 315.486 169.033C314.748 168.154 314.379 166.906 314.379 165.289V153.494H310.916V150.98H314.379V146.375H317.631Z" fill="white"/>
<path d="M336.738 170C336.551 169.625 336.398 168.957 336.281 167.996C334.77 169.566 332.965 170.352 330.867 170.352C328.992 170.352 327.451 169.824 326.244 168.77C325.049 167.703 324.451 166.355 324.451 164.727C324.451 162.746 325.201 161.211 326.701 160.121C328.213 159.02 330.334 158.469 333.064 158.469H336.229V156.975C336.229 155.838 335.889 154.936 335.209 154.268C334.529 153.588 333.527 153.248 332.203 153.248C331.043 153.248 330.07 153.541 329.285 154.127C328.5 154.713 328.107 155.422 328.107 156.254H324.838C324.838 155.305 325.172 154.391 325.84 153.512C326.52 152.621 327.434 151.918 328.582 151.402C329.742 150.887 331.014 150.629 332.396 150.629C334.588 150.629 336.305 151.18 337.547 152.281C338.789 153.371 339.434 154.877 339.48 156.799V165.553C339.48 167.299 339.703 168.688 340.148 169.719V170H336.738ZM331.342 167.521C332.361 167.521 333.328 167.258 334.242 166.73C335.156 166.203 335.818 165.518 336.229 164.674V160.771H333.68C329.695 160.771 327.703 161.938 327.703 164.27C327.703 165.289 328.043 166.086 328.723 166.66C329.402 167.234 330.275 167.521 331.342 167.521Z" fill="white"/>
<path d="M353.771 153.898C353.279 153.816 352.746 153.775 352.172 153.775C350.039 153.775 348.592 154.684 347.83 156.5V170H344.578V150.98H347.742L347.795 153.178C348.861 151.479 350.373 150.629 352.33 150.629C352.963 150.629 353.443 150.711 353.771 150.875V153.898Z" fill="white"/>
<path d="M373.6 170.352C371.021 170.352 368.924 169.508 367.307 167.82C365.689 166.121 364.881 163.854 364.881 161.018V160.42C364.881 158.533 365.238 156.852 365.953 155.375C366.68 153.887 367.688 152.727 368.977 151.895C370.277 151.051 371.684 150.629 373.195 150.629C375.668 150.629 377.59 151.443 378.961 153.072C380.332 154.701 381.018 157.033 381.018 160.068V161.422H368.133C368.18 163.297 368.725 164.814 369.768 165.975C370.822 167.123 372.158 167.697 373.775 167.697C374.924 167.697 375.896 167.463 376.693 166.994C377.49 166.525 378.188 165.904 378.785 165.131L380.771 166.678C379.178 169.127 376.787 170.352 373.6 170.352ZM373.195 153.301C371.883 153.301 370.781 153.781 369.891 154.742C369 155.691 368.449 157.027 368.238 158.75H377.766V158.504C377.672 156.852 377.227 155.574 376.43 154.672C375.633 153.758 374.555 153.301 373.195 153.301Z" fill="white"/>
<path d="M387.873 150.98L387.979 153.371C389.432 151.543 391.33 150.629 393.674 150.629C397.693 150.629 399.721 152.896 399.756 157.432V170H396.504V157.414C396.492 156.043 396.176 155.029 395.555 154.373C394.945 153.717 393.99 153.389 392.689 153.389C391.635 153.389 390.709 153.67 389.912 154.232C389.115 154.795 388.494 155.533 388.049 156.447V170H384.797V150.98H387.873Z" fill="white"/>
<path d="M417.123 170H413.871V143H417.123V170Z" fill="white"/>
<path d="M434.086 170C433.898 169.625 433.746 168.957 433.629 167.996C432.117 169.566 430.312 170.352 428.215 170.352C426.34 170.352 424.799 169.824 423.592 168.77C422.396 167.703 421.799 166.355 421.799 164.727C421.799 162.746 422.549 161.211 424.049 160.121C425.561 159.02 427.682 158.469 430.412 158.469H433.576V156.975C433.576 155.838 433.236 154.936 432.557 154.268C431.877 153.588 430.875 153.248 429.551 153.248C428.391 153.248 427.418 153.541 426.633 154.127C425.848 154.713 425.455 155.422 425.455 156.254H422.186C422.186 155.305 422.52 154.391 423.188 153.512C423.867 152.621 424.781 151.918 425.93 151.402C427.09 150.887 428.361 150.629 429.744 150.629C431.936 150.629 433.652 151.18 434.895 152.281C436.137 153.371 436.781 154.877 436.828 156.799V165.553C436.828 167.299 437.051 168.688 437.496 169.719V170H434.086ZM428.689 167.521C429.709 167.521 430.676 167.258 431.59 166.73C432.504 166.203 433.166 165.518 433.576 164.674V160.771H431.027C427.043 160.771 425.051 161.938 425.051 164.27C425.051 165.289 425.391 166.086 426.07 166.66C426.75 167.234 427.623 167.521 428.689 167.521Z" fill="white"/>
<path d="M451.945 170V153.494H448.939V150.98H451.945V149.363C451.945 147.242 452.549 145.59 453.756 144.406C454.975 143.223 456.691 142.631 458.906 142.631C460.219 142.631 461.877 142.988 463.881 143.703L463.336 146.445C461.871 145.859 460.477 145.566 459.152 145.566C457.758 145.566 456.75 145.883 456.129 146.516C455.52 147.137 455.215 148.074 455.215 149.328V150.98H459.1V153.494H455.215V170H451.945ZM465.498 170H462.229V150.98H465.498V170Z" fill="white"/>
<path d="M470.016 160.332C470.016 157.367 470.701 155.012 472.072 153.266C473.443 151.508 475.26 150.629 477.521 150.629C479.842 150.629 481.652 151.449 482.953 153.09L483.111 150.98H486.082V169.543C486.082 172.004 485.35 173.943 483.885 175.361C482.432 176.779 480.475 177.488 478.014 177.488C476.643 177.488 475.301 177.195 473.988 176.609C472.676 176.023 471.674 175.221 470.982 174.201L472.67 172.25C474.064 173.973 475.77 174.834 477.785 174.834C479.367 174.834 480.598 174.389 481.477 173.498C482.367 172.607 482.812 171.354 482.812 169.736V168.102C481.512 169.602 479.736 170.352 477.486 170.352C475.26 170.352 473.455 169.455 472.072 167.662C470.701 165.869 470.016 163.426 470.016 160.332ZM473.285 160.701C473.285 162.846 473.725 164.533 474.604 165.764C475.482 166.982 476.713 167.592 478.295 167.592C480.346 167.592 481.852 166.66 482.812 164.797V156.113C481.816 154.297 480.322 153.389 478.33 153.389C476.748 153.389 475.512 154.004 474.621 155.234C473.73 156.465 473.285 158.287 473.285 160.701Z" fill="white"/>
<path d="M502.746 168.119C501.48 169.607 499.623 170.352 497.174 170.352C495.146 170.352 493.6 169.766 492.533 168.594C491.479 167.41 490.945 165.664 490.934 163.355V150.98H494.186V163.268C494.186 166.15 495.357 167.592 497.701 167.592C500.186 167.592 501.838 166.666 502.658 164.814V150.98H505.91V170H502.816L502.746 168.119Z" fill="white"/>
<path d="M520.061 153.898C519.568 153.816 519.035 153.775 518.461 153.775C516.328 153.775 514.881 154.684 514.119 156.5V170H510.867V150.98H514.031L514.084 153.178C515.15 151.479 516.662 150.629 518.619 150.629C519.252 150.629 519.732 150.711 520.061 150.875V153.898Z" fill="white"/>
<path d="M534.105 170C533.918 169.625 533.766 168.957 533.648 167.996C532.137 169.566 530.332 170.352 528.234 170.352C526.359 170.352 524.818 169.824 523.611 168.77C522.416 167.703 521.818 166.355 521.818 164.727C521.818 162.746 522.568 161.211 524.068 160.121C525.58 159.02 527.701 158.469 530.432 158.469H533.596V156.975C533.596 155.838 533.256 154.936 532.576 154.268C531.896 153.588 530.895 153.248 529.57 153.248C528.41 153.248 527.438 153.541 526.652 154.127C525.867 154.713 525.475 155.422 525.475 156.254H522.205C522.205 155.305 522.539 154.391 523.207 153.512C523.887 152.621 524.801 151.918 525.949 151.402C527.109 150.887 528.381 150.629 529.764 150.629C531.955 150.629 533.672 151.18 534.914 152.281C536.156 153.371 536.801 154.877 536.848 156.799V165.553C536.848 167.299 537.07 168.688 537.516 169.719V170H534.105ZM528.709 167.521C529.729 167.521 530.695 167.258 531.609 166.73C532.523 166.203 533.186 165.518 533.596 164.674V160.771H531.047C527.062 160.771 525.07 161.938 525.07 164.27C525.07 165.289 525.41 166.086 526.09 166.66C526.77 167.234 527.643 167.521 528.709 167.521Z" fill="white"/>
<path d="M561.229 170H557.959V148.326L551.402 150.734V147.781L560.719 144.283H561.229V170Z" fill="white"/>
<path d="M587.525 170H570.756V167.662L579.615 157.818C580.928 156.33 581.83 155.123 582.322 154.197C582.826 153.26 583.078 152.293 583.078 151.297C583.078 149.961 582.674 148.865 581.865 148.01C581.057 147.154 579.979 146.727 578.631 146.727C577.014 146.727 575.754 147.189 574.852 148.115C573.961 149.029 573.516 150.307 573.516 151.947H570.264C570.264 149.592 571.02 147.688 572.531 146.234C574.055 144.781 576.088 144.055 578.631 144.055C581.01 144.055 582.891 144.682 584.273 145.936C585.656 147.178 586.348 148.836 586.348 150.91C586.348 153.43 584.742 156.43 581.531 159.91L574.676 167.346H587.525V170Z" fill="white"/>
<path d="M591.375 168.295C591.375 167.732 591.539 167.264 591.867 166.889C592.207 166.514 592.711 166.326 593.379 166.326C594.047 166.326 594.551 166.514 594.891 166.889C595.242 167.264 595.418 167.732 595.418 168.295C595.418 168.834 595.242 169.285 594.891 169.648C594.551 170.012 594.047 170.193 593.379 170.193C592.711 170.193 592.207 170.012 591.867 169.648C591.539 169.285 591.375 168.834 591.375 168.295Z" fill="white"/>
</g>
</g>
<g id="claves">
<g id="Group 21">
<path id="Rectangle 4" d="M49 566H265.745L299 606L265.745 646H49V566Z" fill="#CD08D1" fill-opacity="0.1"/>
<path id="Rectangle 4 (Stroke)" fill-rule="evenodd" clip-rule="evenodd" d="M264.338 569H52V643H264.338L295.099 606L264.338 569ZM265.745 566H49V646H265.745L299 606L265.745 566Z" fill="#CD08D1"/>
<path id="Ellipse 1" d="M90 606C90 628.091 72.0914 646 50 646C27.9086 646 10 628.091 10 606C10 583.909 27.9086 566 50 566C72.0914 566 90 583.909 90 606Z" fill="#CD08D1"/>
<path id="A" d="M58.0938 616.406H40.4688L36.7812 627H28.5625L45.75 581.5H52.8438L70.0625 627H61.8125L58.0938 616.406ZM42.6875 610.031H55.875L49.2812 591.156L42.6875 610.031Z" fill="white"/>
</g>
<g id="Group 17">
<path id="Rectangle 5" d="M392 566H608.745L642 606L608.745 646H392V566Z" fill="#CD08D1" fill-opacity="0.1"/>
<path id="Rectangle 5 (Stroke)" fill-rule="evenodd" clip-rule="evenodd" d="M607.338 569H395V643H607.338L638.099 606L607.338 569ZM608.745 566H392V646H608.745L642 606L608.745 566Z" fill="#CD08D1"/>
<path id="Ellipse 2" d="M433 606C433 628.091 415.091 646 393 646C370.909 646 353 628.091 353 606C353 583.909 370.909 566 393 566C415.091 566 433 583.909 433 606Z" fill="#CD08D1"/>
<path id="B" d="M376.625 622V576.5H392.219C397.365 576.5 401.281 577.531 403.969 579.594C406.656 581.656 408 584.729 408 588.812C408 590.896 407.438 592.771 406.312 594.438C405.188 596.104 403.542 597.396 401.375 598.312C403.833 598.979 405.729 600.24 407.062 602.094C408.417 603.927 409.094 606.135 409.094 608.719C409.094 612.99 407.719 616.271 404.969 618.562C402.24 620.854 398.323 622 393.219 622H376.625ZM384.531 601.469V615.688H393.312C395.792 615.688 397.729 615.073 399.125 613.844C400.521 612.615 401.219 610.906 401.219 608.719C401.219 603.99 398.802 601.573 393.969 601.469H384.531ZM384.531 595.656H392.281C394.74 595.656 396.656 595.104 398.031 594C399.427 592.875 400.125 591.292 400.125 589.25C400.125 587 399.479 585.375 398.188 584.375C396.917 583.375 394.927 582.875 392.219 582.875H384.531V595.656Z" fill="white"/>
</g>
<g id="Group 18">
<path id="Rectangle 6" d="M750 622H966.745L1000 662L966.745 702H750V622Z" fill="#CD08D1" fill-opacity="0.1"/>
<path id="Rectangle 6 (Stroke)" fill-rule="evenodd" clip-rule="evenodd" d="M965.338 625H753V699H965.338L996.099 662L965.338 625ZM966.745 622H750V702H966.745L1000 662L966.745 622Z" fill="#CD08D1"/>
<path id="Ellipse 3" d="M791 662C791 684.091 773.091 702 751 702C728.909 702 711 684.091 711 662C711 639.909 728.909 622 751 622C773.091 622 791 639.909 791 662Z" fill="#CD08D1"/>
<path id="C" d="M768.344 669.188C767.885 674.042 766.094 677.833 762.969 680.562C759.844 683.271 755.688 684.625 750.5 684.625C746.875 684.625 743.677 683.771 740.906 682.062C738.156 680.333 736.031 677.885 734.531 674.719C733.031 671.552 732.25 667.875 732.188 663.688V659.438C732.188 655.146 732.948 651.365 734.469 648.094C735.99 644.823 738.167 642.302 741 640.531C743.854 638.76 747.146 637.875 750.875 637.875C755.896 637.875 759.938 639.24 763 641.969C766.062 644.698 767.844 648.552 768.344 653.531H760.469C760.094 650.26 759.135 647.906 757.594 646.469C756.073 645.01 753.833 644.281 750.875 644.281C747.438 644.281 744.792 645.542 742.938 648.062C741.104 650.562 740.167 654.24 740.125 659.094V663.125C740.125 668.042 741 671.792 742.75 674.375C744.521 676.958 747.104 678.25 750.5 678.25C753.604 678.25 755.938 677.552 757.5 676.156C759.062 674.76 760.052 672.438 760.469 669.188H768.344Z" fill="white"/>
</g>
<g id="Group 19">
<path id="Rectangle 7" d="M50 671H266.745L300 711L266.745 751H50V671Z" fill="#CD08D1" fill-opacity="0.1"/>
<path id="Rectangle 7 (Stroke)" fill-rule="evenodd" clip-rule="evenodd" d="M265.338 674H53V748H265.338L296.099 711L265.338 674ZM266.745 671H50V751H266.745L300 711L266.745 671Z" fill="#CD08D1"/>
<path id="Ellipse 4" d="M91 711C91 733.091 73.0914 751 51 751C28.9086 751 11 733.091 11 711C11 688.909 28.9086 671 51 671C73.0914 671 91 688.909 91 711Z" fill="#CD08D1"/>
<path id="D" d="M33.625 733V687.5H47.0625C51.0833 687.5 54.6458 688.396 57.75 690.188C60.875 691.979 63.2917 694.521 65 697.812C66.7083 701.104 67.5625 704.875 67.5625 709.125V711.406C67.5625 715.719 66.6979 719.51 64.9688 722.781C63.2604 726.052 60.8125 728.573 57.625 730.344C54.4583 732.115 50.8229 733 46.7188 733H33.625ZM41.5312 693.875V726.688H46.6875C50.8333 726.688 54.0104 725.396 56.2188 722.812C58.4479 720.208 59.5833 716.479 59.625 711.625V709.094C59.625 704.156 58.5521 700.385 56.4062 697.781C54.2604 695.177 51.1458 693.875 47.0625 693.875H41.5312Z" fill="white"/>
</g>
<g id="Group 20">
<path id="Rectangle 8" d="M392 671H608.745L642 711L608.745 751H392V671Z" fill="#CD08D1" fill-opacity="0.1"/>
<path id="Rectangle 8 (Stroke)" fill-rule="evenodd" clip-rule="evenodd" d="M607.338 674H395V748H607.338L638.099 711L607.338 674ZM608.745 671H392V751H608.745L642 711L608.745 671Z" fill="#CD08D1"/>
<path id="Ellipse 5" d="M433 711C433 733.091 415.091 751 393 751C370.909 751 353 733.091 353 711C353 688.909 370.909 671 393 671C415.091 671 433 688.909 433 711Z" fill="#CD08D1"/>
<path id="E" d="M402.219 712.688H383.531V726.688H405.375V733H375.625V687.5H405.156V693.875H383.531V706.438H402.219V712.688Z" fill="white"/>
</g>
<g id="flecha">
<path id="Rectangle 2" d="M58.2002 672.008L73.482 680.133L31.5004 759.089L16.2186 750.963L58.2002 672.008Z" fill="#1043F5"/>
<path id="Rectangle 1_2" d="M0 684.904L90 635V692.692L45 675.096L0 684.904Z" fill="#1043F5"/>
<path id="Rectangle 3" d="M4.03857 754.21L19.6657 727.143L36.9364 726.565L21.3092 753.632L4.03857 754.21Z" fill="#1043F5"/>
<path id="Rectangle 4_2" d="M30.0894 768.845L45.7165 741.778L36.9258 726.154L21.2986 753.221L30.0894 768.845Z" fill="#1043F5"/>
</g>
<g id="12 20 10 18 8">
<path d="M133.604 620H130.334V598.326L123.777 600.734V597.781L133.094 594.283H133.604V620Z" fill="#CD08D1"/>
<path d="M159.9 620H143.131V617.662L151.99 607.818C153.303 606.33 154.205 605.123 154.697 604.197C155.201 603.26 155.453 602.293 155.453 601.297C155.453 599.961 155.049 598.865 154.24 598.01C153.432 597.154 152.354 596.727 151.006 596.727C149.389 596.727 148.129 597.189 147.227 598.115C146.336 599.029 145.891 600.307 145.891 601.947H142.639C142.639 599.592 143.395 597.688 144.906 596.234C146.43 594.781 148.463 594.055 151.006 594.055C153.385 594.055 155.266 594.682 156.648 595.936C158.031 597.178 158.723 598.836 158.723 600.91C158.723 603.43 157.117 606.43 153.906 609.91L147.051 617.346H159.9V620Z" fill="#CD08D1"/>
<path d="M492.654 620H475.885V617.662L484.744 607.818C486.057 606.33 486.959 605.123 487.451 604.197C487.955 603.26 488.207 602.293 488.207 601.297C488.207 599.961 487.803 598.865 486.994 598.01C486.186 597.154 485.107 596.727 483.76 596.727C482.143 596.727 480.883 597.189 479.98 598.115C479.09 599.029 478.645 600.307 478.645 601.947H475.393C475.393 599.592 476.148 597.688 477.66 596.234C479.184 594.781 481.217 594.055 483.76 594.055C486.139 594.055 488.02 594.682 489.402 595.936C490.785 597.178 491.477 598.836 491.477 600.91C491.477 603.43 489.871 606.43 486.66 609.91L479.805 617.346H492.654V620Z" fill="#CD08D1"/>
<path d="M512.148 609.084C512.148 612.893 511.498 615.723 510.197 617.574C508.896 619.426 506.863 620.352 504.098 620.352C501.367 620.352 499.346 619.449 498.033 617.645C496.721 615.828 496.041 613.121 495.994 609.523V605.182C495.994 601.42 496.645 598.625 497.945 596.797C499.246 594.969 501.285 594.055 504.062 594.055C506.816 594.055 508.844 594.939 510.145 596.709C511.445 598.467 512.113 601.186 512.148 604.865V609.084ZM508.896 604.637C508.896 601.883 508.51 599.879 507.736 598.625C506.963 597.359 505.738 596.727 504.062 596.727C502.398 596.727 501.186 597.354 500.424 598.607C499.662 599.861 499.27 601.789 499.246 604.391V609.594C499.246 612.359 499.645 614.404 500.441 615.729C501.25 617.041 502.469 617.697 504.098 617.697C505.703 617.697 506.893 617.076 507.666 615.834C508.451 614.592 508.861 612.635 508.896 609.963V604.637Z" fill="#CD08D1"/>
<path d="M839.049 670H835.779V648.326L829.223 650.734V647.781L838.539 644.283H839.049V670Z" fill="#CD08D1"/>
<path d="M864.625 659.084C864.625 662.893 863.975 665.723 862.674 667.574C861.373 669.426 859.34 670.352 856.574 670.352C853.844 670.352 851.822 669.449 850.51 667.645C849.197 665.828 848.518 663.121 848.471 659.523V655.182C848.471 651.42 849.121 648.625 850.422 646.797C851.723 644.969 853.762 644.055 856.539 644.055C859.293 644.055 861.32 644.939 862.621 646.709C863.922 648.467 864.59 651.186 864.625 654.865V659.084ZM861.373 654.637C861.373 651.883 860.986 649.879 860.213 648.625C859.439 647.359 858.215 646.727 856.539 646.727C854.875 646.727 853.662 647.354 852.9 648.607C852.139 649.861 851.746 651.789 851.723 654.391V659.594C851.723 662.359 852.121 664.404 852.918 665.729C853.727 667.041 854.945 667.697 856.574 667.697C858.18 667.697 859.369 667.076 860.143 665.834C860.928 664.592 861.338 662.635 861.373 659.963V654.637Z" fill="#CD08D1"/>
<path d="M133.604 720H130.334V698.326L123.777 700.734V697.781L133.094 694.283H133.604V720Z" fill="#CD08D1"/>
<path d="M158.652 701.086C158.652 702.363 158.312 703.5 157.633 704.496C156.965 705.492 156.057 706.271 154.908 706.834C156.244 707.408 157.299 708.246 158.072 709.348C158.857 710.449 159.25 711.697 159.25 713.092C159.25 715.307 158.5 717.07 157 718.383C155.512 719.695 153.549 720.352 151.111 720.352C148.65 720.352 146.676 719.695 145.188 718.383C143.711 717.059 142.973 715.295 142.973 713.092C142.973 711.709 143.348 710.461 144.098 709.348C144.859 708.234 145.908 707.391 147.244 706.816C146.107 706.254 145.211 705.475 144.555 704.479C143.898 703.482 143.57 702.352 143.57 701.086C143.57 698.93 144.262 697.219 145.645 695.953C147.027 694.688 148.85 694.055 151.111 694.055C153.361 694.055 155.178 694.688 156.561 695.953C157.955 697.219 158.652 698.93 158.652 701.086ZM155.998 713.021C155.998 711.592 155.541 710.426 154.627 709.523C153.725 708.621 152.541 708.17 151.076 708.17C149.611 708.17 148.434 708.615 147.543 709.506C146.664 710.396 146.225 711.568 146.225 713.021C146.225 714.475 146.652 715.617 147.508 716.449C148.375 717.281 149.576 717.697 151.111 717.697C152.635 717.697 153.83 717.281 154.697 716.449C155.564 715.605 155.998 714.463 155.998 713.021ZM151.111 696.727C149.834 696.727 148.797 697.125 148 697.922C147.215 698.707 146.822 699.779 146.822 701.139C146.822 702.439 147.209 703.494 147.982 704.303C148.768 705.1 149.811 705.498 151.111 705.498C152.412 705.498 153.449 705.1 154.223 704.303C155.008 703.494 155.4 702.439 155.4 701.139C155.4 699.838 154.996 698.777 154.188 697.957C153.379 697.137 152.354 696.727 151.111 696.727Z" fill="#CD08D1"/>
<path d="M509.266 701.086C509.266 702.363 508.926 703.5 508.246 704.496C507.578 705.492 506.67 706.271 505.521 706.834C506.857 707.408 507.912 708.246 508.686 709.348C509.471 710.449 509.863 711.697 509.863 713.092C509.863 715.307 509.113 717.07 507.613 718.383C506.125 719.695 504.162 720.352 501.725 720.352C499.264 720.352 497.289 719.695 495.801 718.383C494.324 717.059 493.586 715.295 493.586 713.092C493.586 711.709 493.961 710.461 494.711 709.348C495.473 708.234 496.521 707.391 497.857 706.816C496.721 706.254 495.824 705.475 495.168 704.479C494.512 703.482 494.184 702.352 494.184 701.086C494.184 698.93 494.875 697.219 496.258 695.953C497.641 694.688 499.463 694.055 501.725 694.055C503.975 694.055 505.791 694.688 507.174 695.953C508.568 697.219 509.266 698.93 509.266 701.086ZM506.611 713.021C506.611 711.592 506.154 710.426 505.24 709.523C504.338 708.621 503.154 708.17 501.689 708.17C500.225 708.17 499.047 708.615 498.156 709.506C497.277 710.396 496.838 711.568 496.838 713.021C496.838 714.475 497.266 715.617 498.121 716.449C498.988 717.281 500.189 717.697 501.725 717.697C503.248 717.697 504.443 717.281 505.311 716.449C506.178 715.605 506.611 714.463 506.611 713.021ZM501.725 696.727C500.447 696.727 499.41 697.125 498.613 697.922C497.828 698.707 497.436 699.779 497.436 701.139C497.436 702.439 497.822 703.494 498.596 704.303C499.381 705.1 500.424 705.498 501.725 705.498C503.025 705.498 504.062 705.1 504.836 704.303C505.621 703.494 506.014 702.439 506.014 701.139C506.014 699.838 505.609 698.777 504.801 697.957C503.992 697.137 502.967 696.727 501.725 696.727Z" fill="#CD08D1"/>
</g>
</g>
</g>
</svg>
