<svg viewBox="0 0 915 566" fill="none" xmlns="http://www.w3.org/2000/svg">
<g id="0127225">
<g id="Group 21">
<g id="Group 238">
<path id="Ellipse 1" d="M81 41.0256C81 63.6835 63.0914 82.0513 41 82.0513C18.9086 82.0513 1 63.6835 1 41.0256C1 18.3678 18.9086 0 41 0C63.0914 0 81 18.3678 81 41.0256Z" fill="#CD08D1"/>
<path id="A" d="M49.0938 51.6987H31.4688L27.7812 62.5641H19.5625L36.75 15.8975H43.8438L61.0625 62.5641H52.8125L49.0938 51.6987ZM33.6875 45.1603H46.875L40.2812 25.8013L33.6875 45.1603Z" fill="white"/>
</g>
</g>
<g id="Group 17">
<g id="Group 240">
<path id="Ellipse 2" d="M420 45C420 67.0914 402.091 85 380 85C357.909 85 340 67.0914 340 45C340 22.9086 357.909 5 380 5C402.091 5 420 22.9086 420 45Z" fill="#CD08D1"/>
<path id="B" d="M363.625 61V15.5H379.219C384.365 15.5 388.281 16.5312 390.969 18.5938C393.656 20.6562 395 23.7292 395 27.8125C395 29.8958 394.438 31.7708 393.312 33.4375C392.188 35.1042 390.542 36.3958 388.375 37.3125C390.833 37.9792 392.729 39.2396 394.062 41.0938C395.417 42.9271 396.094 45.1354 396.094 47.7188C396.094 51.9896 394.719 55.2708 391.969 57.5625C389.24 59.8542 385.323 61 380.219 61H363.625ZM371.531 40.4688V54.6875H380.312C382.792 54.6875 384.729 54.0729 386.125 52.8438C387.521 51.6146 388.219 49.9062 388.219 47.7188C388.219 42.9896 385.802 40.5729 380.969 40.4688H371.531ZM371.531 34.6562H379.281C381.74 34.6562 383.656 34.1042 385.031 33C386.427 31.875 387.125 30.2917 387.125 28.25C387.125 26 386.479 24.375 385.188 23.375C383.917 22.375 381.927 21.875 379.219 21.875H371.531V34.6562Z" fill="white"/>
</g>
</g>
<g id="Group 18">
<g id="Group 242">
<path id="Ellipse 3" d="M728 201C728 223.091 710.091 241 688 241C665.909 241 648 223.091 648 201C648 178.909 665.909 161 688 161C710.091 161 728 178.909 728 201Z" fill="#CD08D1"/>
<path id="C" d="M705.344 208.188C704.885 213.042 703.094 216.833 699.969 219.562C696.844 222.271 692.688 223.625 687.5 223.625C683.875 223.625 680.677 222.771 677.906 221.062C675.156 219.333 673.031 216.885 671.531 213.719C670.031 210.552 669.25 206.875 669.188 202.688V198.438C669.188 194.146 669.948 190.365 671.469 187.094C672.99 183.823 675.167 181.302 678 179.531C680.854 177.76 684.146 176.875 687.875 176.875C692.896 176.875 696.938 178.24 700 180.969C703.062 183.698 704.844 187.552 705.344 192.531H697.469C697.094 189.26 696.135 186.906 694.594 185.469C693.073 184.01 690.833 183.281 687.875 183.281C684.438 183.281 681.792 184.542 679.938 187.062C678.104 189.562 677.167 193.24 677.125 198.094V202.125C677.125 207.042 678 210.792 679.75 213.375C681.521 215.958 684.104 217.25 687.5 217.25C690.604 217.25 692.938 216.552 694.5 215.156C696.062 213.76 697.052 211.438 697.469 208.188H705.344Z" fill="white"/>
</g>
</g>
<g id="Group 19">
<g id="Group 244">
<path id="Ellipse 4" d="M80 358C80 380.091 62.0914 398 40 398C17.9086 398 0 380.091 0 358C0 335.909 17.9086 318 40 318C62.0914 318 80 335.909 80 358Z" fill="#CD08D1"/>
<path id="D" d="M22.625 380V334.5H36.0625C40.0833 334.5 43.6458 335.396 46.75 337.188C49.875 338.979 52.2917 341.521 54 344.812C55.7083 348.104 56.5625 351.875 56.5625 356.125V358.406C56.5625 362.719 55.6979 366.51 53.9688 369.781C52.2604 373.052 49.8125 375.573 46.625 377.344C43.4583 379.115 39.8229 380 35.7188 380H22.625ZM30.5312 340.875V373.688H35.6875C39.8333 373.688 43.0104 372.396 45.2188 369.812C47.4479 367.208 48.5833 363.479 48.625 358.625V356.094C48.625 351.156 47.5521 347.385 45.4062 344.781C43.2604 342.177 40.1458 340.875 36.0625 340.875H30.5312Z" fill="white"/>
</g>
</g>
<g id="Group 20">
<g id="Group 245">
<path id="Ellipse 5" d="M411 357C411 379.091 393.091 397 371 397C348.909 397 331 379.091 331 357C331 334.909 348.909 317 371 317C393.091 317 411 334.909 411 357Z" fill="#CD08D1"/>
<path id="E" d="M380.219 358.688H361.531V372.688H383.375V379H353.625V333.5H383.156V339.875H361.531V352.438H380.219V358.688Z" fill="white"/>
</g>
</g>
<g id="Group 365">
<g id="Group 360">
<g id="Group 359">
<path id="Ellipse 41 (Stroke)" fill-rule="evenodd" clip-rule="evenodd" d="M169.975 89.3611C161.712 97.625 161.712 111.023 169.975 119.287C178.239 127.551 191.638 127.551 199.902 119.287C208.166 111.023 208.166 97.625 199.902 89.3611C191.638 81.0972 178.239 81.0972 169.975 89.3611ZM169.167 88.5523C160.456 97.2629 160.456 111.386 169.167 120.096C177.877 128.807 192 128.807 200.71 120.096C209.421 111.386 209.421 97.2629 200.71 88.5523C192 79.8417 177.877 79.8417 169.167 88.5523Z" fill="white"/>
<path id="Rectangle 189" d="M204.35 93.8096L174.154 124.006L169.65 87.9946L204.35 93.8096Z" fill="white"/>
<path id="Rectangle 190 (Stroke)" fill-rule="evenodd" clip-rule="evenodd" d="M203.271 93.8096L200.512 120.294L174.154 122.927L203.271 93.8096ZM177.228 121.47L199.471 119.248L201.8 96.8991L177.228 121.47Z" fill="white"/>
</g>
<path id="Rectangle 191 (Stroke)" fill-rule="evenodd" clip-rule="evenodd" d="M156 196H96V256H216V77H277V16H156V196ZM158 137.017V195H214V137.483L158 137.017ZM214 135.483V78H160.901L158 77.4198V135.017L214 135.483ZM158 75.3802L161.099 76H214V75H215V18H158V75.3802ZM217 18V75H275V18H217ZM214 197H158V198H157V254H214V197ZM155 254V198H98V254H155Z" fill="white"/>
<path id="Ellipse 45 (Stroke)" fill-rule="evenodd" clip-rule="evenodd" d="M203.5 71C206.538 71 209 68.5376 209 65.5C209 62.4624 206.538 60 203.5 60C200.462 60 198 62.4624 198 65.5C198 68.5376 200.462 71 203.5 71ZM203.5 73C207.642 73 211 69.6421 211 65.5C211 61.3579 207.642 58 203.5 58C199.358 58 196 61.3579 196 65.5C196 69.6421 199.358 73 203.5 73Z" fill="white"/>
<path id="Ellipse 46 (Stroke)" fill-rule="evenodd" clip-rule="evenodd" d="M110.5 215C113.538 215 116 212.538 116 209.5C116 206.462 113.538 204 110.5 204C107.462 204 105 206.462 105 209.5C105 212.538 107.462 215 110.5 215ZM110.5 217C114.642 217 118 213.642 118 209.5C118 205.358 114.642 202 110.5 202C106.358 202 103 205.358 103 209.5C103 213.642 106.358 217 110.5 217Z" fill="white"/>
<path id="Ellipse 47 (Stroke)" fill-rule="evenodd" clip-rule="evenodd" d="M110.5 247C113.538 247 116 244.538 116 241.5C116 238.462 113.538 236 110.5 236C107.462 236 105 238.462 105 241.5C105 244.538 107.462 247 110.5 247ZM110.5 249C114.642 249 118 245.642 118 241.5C118 237.358 114.642 234 110.5 234C106.358 234 103 237.358 103 241.5C103 245.642 106.358 249 110.5 249Z" fill="white"/>
</g>
<g id="Group 361">
<g id="Group 359_2">
<path id="Ellipse 41 (Stroke)_2" fill-rule="evenodd" clip-rule="evenodd" d="M491.331 142.716C483.067 150.98 483.067 164.379 491.331 172.643C499.595 180.906 512.993 180.906 521.257 172.643C529.521 164.379 529.521 150.98 521.257 142.716C512.993 134.452 499.595 134.452 491.331 142.716ZM490.522 141.908C481.811 150.618 481.811 164.741 490.522 173.451C499.233 182.162 513.355 182.162 522.066 173.451C530.777 164.741 530.777 150.618 522.066 141.908C513.355 133.197 499.233 133.197 490.522 141.908Z" fill="white"/>
<path id="Rectangle 189_2" d="M525.705 147.165L495.509 177.361L491.005 141.35L525.705 147.165Z" fill="white"/>
<path id="Rectangle 190 (Stroke)_2" fill-rule="evenodd" clip-rule="evenodd" d="M524.627 147.165L521.868 173.649L495.509 176.282L524.627 147.165ZM498.584 174.826L520.827 172.604L523.155 150.254L498.584 174.826Z" fill="white"/>
</g>
<path id="Rectangle 191 (Stroke)_2" fill-rule="evenodd" clip-rule="evenodd" d="M477 189H417V249H537V70H598V9H477V189ZM479 130.017V188H535V130.483L479 130.017ZM535 128.483V71H481.901L479 70.4198V128.017L535 128.483ZM479 68.3802L482.099 69H535V68H536V11H479V68.3802ZM538 11V68H596V11H538ZM535 190H479V191H478V247H535V190ZM476 247V191H419V247H476Z" fill="white"/>
<path id="Ellipse 45 (Stroke)_2" fill-rule="evenodd" clip-rule="evenodd" d="M523.5 240C526.538 240 529 237.538 529 234.5C529 231.462 526.538 229 523.5 229C520.462 229 518 231.462 518 234.5C518 237.538 520.462 240 523.5 240ZM523.5 242C527.642 242 531 238.642 531 234.5C531 230.358 527.642 227 523.5 227C519.358 227 516 230.358 516 234.5C516 238.642 519.358 242 523.5 242Z" fill="white"/>
<path id="Ellipse 46 (Stroke)_2" fill-rule="evenodd" clip-rule="evenodd" d="M461.5 208C464.538 208 467 205.538 467 202.5C467 199.462 464.538 197 461.5 197C458.462 197 456 199.462 456 202.5C456 205.538 458.462 208 461.5 208ZM461.5 210C465.642 210 469 206.642 469 202.5C469 198.358 465.642 195 461.5 195C457.358 195 454 198.358 454 202.5C454 206.642 457.358 210 461.5 210Z" fill="white"/>
<path id="Ellipse 47 (Stroke)_2" fill-rule="evenodd" clip-rule="evenodd" d="M461.5 240C464.538 240 467 237.538 467 234.5C467 231.462 464.538 229 461.5 229C458.462 229 456 231.462 456 234.5C456 237.538 458.462 240 461.5 240ZM461.5 242C465.642 242 469 238.642 469 234.5C469 230.358 465.642 227 461.5 227C457.358 227 454 230.358 454 234.5C454 238.642 457.358 242 461.5 242Z" fill="white"/>
</g>
<g id="Group 362">
<g id="Group 359_3">
<path id="Ellipse 41 (Stroke)_3" fill-rule="evenodd" clip-rule="evenodd" d="M837.38 317.994C845.644 309.73 845.644 296.332 837.38 288.068C829.116 279.804 815.718 279.804 807.454 288.068C799.19 296.332 799.19 309.73 807.454 317.994C815.718 326.258 829.116 326.258 837.38 317.994ZM838.189 318.803C846.899 310.092 846.899 295.97 838.189 287.259C829.478 278.548 815.356 278.548 806.645 287.259C797.934 295.97 797.934 310.092 806.645 318.803C815.356 327.514 829.478 327.514 838.189 318.803Z" fill="white"/>
<path id="Rectangle 189_3" d="M803.006 313.546L833.202 283.35L837.706 319.361L803.006 313.546Z" fill="white"/>
<path id="Rectangle 190 (Stroke)_3" fill-rule="evenodd" clip-rule="evenodd" d="M804.084 313.546L806.843 287.061L833.201 284.428L804.084 313.546ZM830.127 285.885L807.884 288.107L805.556 310.456L830.127 285.885Z" fill="white"/>
</g>
<path id="Rectangle 191 (Stroke)_3" fill-rule="evenodd" clip-rule="evenodd" d="M794 331H734V391H854V212H915V151H794V331ZM796 272.017V330H852V272.483L796 272.017ZM852 270.483V213H798.901L796 212.42V270.017L852 270.483ZM796 210.38L799.099 211H852V210H853V153H796V210.38ZM855 153V210H913V153H855ZM852 332H796V333H795V389H852V332ZM793 389V333H736V389H793Z" fill="white"/>
<path id="Ellipse 45 (Stroke)_3" fill-rule="evenodd" clip-rule="evenodd" d="M784.5 382C787.538 382 790 379.538 790 376.5C790 373.462 787.538 371 784.5 371C781.462 371 779 373.462 779 376.5C779 379.538 781.462 382 784.5 382ZM784.5 384C788.642 384 792 380.642 792 376.5C792 372.358 788.642 369 784.5 369C780.358 369 777 372.358 777 376.5C777 380.642 780.358 384 784.5 384Z" fill="white"/>
<g id="Group 363">
<path id="Ellipse 46 (Stroke)_3" fill-rule="evenodd" clip-rule="evenodd" d="M841.5 230C844.538 230 847 227.538 847 224.5C847 221.462 844.538 219 841.5 219C838.462 219 836 221.462 836 224.5C836 227.538 838.462 230 841.5 230ZM841.5 232C845.642 232 849 228.642 849 224.5C849 220.358 845.642 217 841.5 217C837.358 217 834 220.358 834 224.5C834 228.642 837.358 232 841.5 232Z" fill="white"/>
<path id="Ellipse 47 (Stroke)_3" fill-rule="evenodd" clip-rule="evenodd" d="M841.5 262C844.538 262 847 259.538 847 256.5C847 253.462 844.538 251 841.5 251C838.462 251 836 253.462 836 256.5C836 259.538 838.462 262 841.5 262ZM841.5 264C845.642 264 849 260.642 849 256.5C849 252.358 845.642 249 841.5 249C837.358 249 834 252.358 834 256.5C834 260.642 837.358 264 841.5 264Z" fill="white"/>
</g>
</g>
<g id="Group 363_2">
<g id="Group 359_4">
<path id="Ellipse 41 (Stroke)_4" fill-rule="evenodd" clip-rule="evenodd" d="M179.994 454.331C171.73 446.067 158.332 446.067 150.068 454.331C141.804 462.595 141.804 475.993 150.068 484.257C158.332 492.521 171.73 492.521 179.994 484.257C188.258 475.993 188.258 462.595 179.994 454.331ZM180.803 453.522C172.093 444.811 157.97 444.811 149.259 453.522C140.549 462.233 140.549 476.355 149.259 485.066C157.97 493.777 172.093 493.777 180.803 485.066C189.514 476.355 189.514 462.233 180.803 453.522Z" fill="white"/>
<path id="Rectangle 189_4" d="M175.546 488.706L145.35 458.51L181.361 454.006L175.546 488.706Z" fill="white"/>
<path id="Rectangle 190 (Stroke)_4" fill-rule="evenodd" clip-rule="evenodd" d="M175.546 487.627L149.061 484.868L146.428 458.509L175.546 487.627ZM147.885 461.584L150.107 483.827L172.456 486.155L147.885 461.584Z" fill="white"/>
</g>
<path id="Rectangle 191 (Stroke)_4" fill-rule="evenodd" clip-rule="evenodd" d="M132 498H72V558H192V379H253V318H132V498ZM134 439.017V497H190V439.483L134 439.017ZM190 437.483V380H136.901L134 379.42V437.017L190 437.483ZM134 377.38L137.099 378H190V377H191V320H134V377.38ZM193 320V377H251V320H193ZM190 499H134V500H133V556H190V499ZM131 556V500H74V556H131Z" fill="white"/>
<path id="Ellipse 45 (Stroke)_4" fill-rule="evenodd" clip-rule="evenodd" d="M179.5 549C182.538 549 185 546.538 185 543.5C185 540.462 182.538 538 179.5 538C176.462 538 174 540.462 174 543.5C174 546.538 176.462 549 179.5 549ZM179.5 551C183.642 551 187 547.642 187 543.5C187 539.358 183.642 536 179.5 536C175.358 536 172 539.358 172 543.5C172 547.642 175.358 551 179.5 551Z" fill="white"/>
<g id="Group 363_3">
<path id="Ellipse 46 (Stroke)_4" fill-rule="evenodd" clip-rule="evenodd" d="M88.5 517C91.5376 517 94 514.538 94 511.5C94 508.462 91.5376 506 88.5 506C85.4624 506 83 508.462 83 511.5C83 514.538 85.4624 517 88.5 517ZM88.5 519C92.6421 519 96 515.642 96 511.5C96 507.358 92.6421 504 88.5 504C84.3579 504 81 507.358 81 511.5C81 515.642 84.3579 519 88.5 519Z" fill="white"/>
<path id="Ellipse 47 (Stroke)_4" fill-rule="evenodd" clip-rule="evenodd" d="M88.5 549C91.5376 549 94 546.538 94 543.5C94 540.462 91.5376 538 88.5 538C85.4624 538 83 540.462 83 543.5C83 546.538 85.4624 549 88.5 549ZM88.5 551C92.6421 551 96 547.642 96 543.5C96 539.358 92.6421 536 88.5 536C84.3579 536 81 539.358 81 543.5C81 547.642 84.3579 551 88.5 551Z" fill="white"/>
</g>
</g>
<g id="Group 364">
<g id="Group 359_5">
<path id="Ellipse 41 (Stroke)_5" fill-rule="evenodd" clip-rule="evenodd" d="M537.273 437.804C548.96 437.804 558.434 428.33 558.434 416.643C558.434 404.956 548.96 395.482 537.273 395.482C525.586 395.482 516.112 404.956 516.112 416.643C516.112 428.33 525.586 437.804 537.273 437.804ZM537.273 438.948C549.591 438.948 559.578 428.961 559.578 416.643C559.578 404.324 549.591 394.338 537.273 394.338C524.954 394.338 514.968 404.324 514.968 416.643C514.968 428.961 524.954 438.948 537.273 438.948Z" fill="white"/>
<path id="Rectangle 189_5" d="M516.112 410.352L558.815 410.352L536.536 439L516.112 410.352Z" fill="white"/>
<path id="Rectangle 190 (Stroke)_5" fill-rule="evenodd" clip-rule="evenodd" d="M516.874 411.114L537.552 394.338L558.052 411.114L516.874 411.114ZM554.849 409.97L537.549 395.813L520.099 409.97L554.849 409.97Z" fill="white"/>
</g>
<path id="Rectangle 191 (Stroke)_5" fill-rule="evenodd" clip-rule="evenodd" d="M567 387H628V326H447V387C447.642 386.988 448.309 386.975 449 386.962C465.532 386.646 495.497 386.098 505 386.012C505.364 386.008 505.698 386.006 506 386.004C506.387 386.001 506.722 386 507 386V566H567V387ZM565 445.483V388H511.901L509 387.42V445.017L565 445.483ZM509 447.017V505H565V447.483L509 447.017ZM565 507H509V564H565V507ZM509 385.38L512.099 386H565V385H566V328H508V384H509V385.38ZM506 384.004V328H449V384.961C466.165 384.633 497.8 384.055 506 384.004ZM568 328V385H626V328H568Z" fill="white"/>
<path id="Ellipse 45 (Stroke)_5" fill-rule="evenodd" clip-rule="evenodd" d="M462.5 347C465.538 347 468 344.538 468 341.5C468 338.462 465.538 336 462.5 336C459.462 336 457 338.462 457 341.5C457 344.538 459.462 347 462.5 347ZM462.5 349C466.642 349 470 345.642 470 341.5C470 337.358 466.642 334 462.5 334C458.358 334 455 337.358 455 341.5C455 345.642 458.358 349 462.5 349Z" fill="white"/>
<g id="Group 363_4">
<path id="Ellipse 46 (Stroke)_5" fill-rule="evenodd" clip-rule="evenodd" d="M552.5 347C555.538 347 558 344.538 558 341.5C558 338.462 555.538 336 552.5 336C549.462 336 547 338.462 547 341.5C547 344.538 549.462 347 552.5 347ZM552.5 349C556.642 349 560 345.642 560 341.5C560 337.358 556.642 334 552.5 334C548.358 334 545 337.358 545 341.5C545 345.642 548.358 349 552.5 349Z" fill="white"/>
<path id="Ellipse 47 (Stroke)_5" fill-rule="evenodd" clip-rule="evenodd" d="M552.5 379C555.538 379 558 376.538 558 373.5C558 370.462 555.538 368 552.5 368C549.462 368 547 370.462 547 373.5C547 376.538 549.462 379 552.5 379ZM552.5 381C556.642 381 560 377.642 560 373.5C560 369.358 556.642 366 552.5 366C548.358 366 545 369.358 545 373.5C545 377.642 548.358 381 552.5 381Z" fill="white"/>
</g>
</g>
</g>
<g id="flecha">
<path id="Rectangle 2" d="M696.2 163.008L711.482 171.133L669.5 250.089L654.219 241.963L696.2 163.008Z" fill="#1043F5"/>
<path id="Rectangle 1" d="M638 175.904L728 126V183.692L683 166.096L638 175.904Z" fill="#1043F5"/>
<path id="Rectangle 3" d="M642.038 245.21L657.665 218.143L674.936 217.565L659.309 244.632L642.038 245.21Z" fill="#1043F5"/>
<path id="Rectangle 4" d="M668.09 259.845L683.717 232.778L674.926 217.154L659.299 244.221L668.09 259.845Z" fill="#1043F5"/>
</g>
</g>
</svg>
