<svg viewBox="0 0 865 320" fill="none" xmlns="http://www.w3.org/2000/svg">
<path fill-rule="evenodd" clip-rule="evenodd" d="M94.9995 136.5V61H19.9995V136.5H94.9995ZM94.9995 139.5H19.9995V216.5H94.9995V139.5ZM97.9995 216.5V139.5H175.25V216.5H97.9995ZM94.9995 219.5H19.9995V295H94.9995V219.5ZM97.9995 295V219.5H175.25V295H97.9995ZM16.9995 298V58H257V298H16.9995ZM178.25 295H254V219.5H178.25V295ZM178.25 216.5H254V139.5H178.25V216.5ZM178.25 136.5H254V61H178.25V136.5ZM175.25 61H97.9995V136.5H175.25V61Z" fill="white"/>
<path fill-rule="evenodd" clip-rule="evenodd" d="M96.9995 60.9999L19.9995 137L17.8921 134.865L94.8921 58.8647L96.9995 60.9999Z" fill="white"/>
<path fill-rule="evenodd" clip-rule="evenodd" d="M177 140L96.9997 220L94.8784 217.879L174.878 137.879L177 140Z" fill="white"/>
<path fill-rule="evenodd" clip-rule="evenodd" d="M98.9997 218L18.9997 298L16.8784 295.879L96.8784 215.879L98.9997 218Z" fill="white"/>
<path fill-rule="evenodd" clip-rule="evenodd" d="M257 218L177 298L174.878 295.879L254.878 215.879L257 218Z" fill="white"/>
<path fill-rule="evenodd" clip-rule="evenodd" d="M254.25 138.751L176.749 61.2492L178.87 59.1279L256.372 136.63L254.25 138.751Z" fill="white"/>
<path fill-rule="evenodd" clip-rule="evenodd" d="M58.9995 185C62.8655 185 65.9995 181.866 65.9995 178C65.9995 174.134 62.8655 171 58.9995 171C55.1335 171 51.9995 174.134 51.9995 178C51.9995 181.866 55.1335 185 58.9995 185ZM58.9995 188C64.5224 188 68.9995 183.523 68.9995 178C68.9995 172.477 64.5224 168 58.9995 168C53.4767 168 48.9995 172.477 48.9995 178C48.9995 183.523 53.4767 188 58.9995 188Z" fill="white"/>
<path fill-rule="evenodd" clip-rule="evenodd" d="M137 265C140.866 265 144 261.866 144 258C144 254.134 140.866 251 137 251C133.134 251 130 254.134 130 258C130 261.866 133.134 265 137 265ZM137 268C142.522 268 147 263.523 147 258C147 252.477 142.522 248 137 248C131.477 248 127 252.477 127 258C127 263.523 131.477 268 137 268Z" fill="white"/>
<path d="M227 178C227 183.523 222.522 188 217 188C211.477 188 207 183.523 207 178C207 172.477 211.477 168 217 168C222.522 168 227 172.477 227 178Z" fill="white"/>
<path fill-rule="evenodd" clip-rule="evenodd" d="M217 185C220.866 185 224 181.866 224 178C224 174.134 220.866 171 217 171C213.134 171 210 174.134 210 178C210 181.866 213.134 185 217 185ZM217 188C222.522 188 227 183.523 227 178C227 172.477 222.522 168 217 168C211.477 168 207 172.477 207 178C207 183.523 211.477 188 217 188Z" fill="white"/>
<path d="M158 179C158 190.046 149.045 199 138 199C126.954 199 118 190.046 118 179C118 167.954 126.954 159 138 159C149.045 159 158 167.954 158 179Z" fill="white"/>
<path fill-rule="evenodd" clip-rule="evenodd" d="M138 196C147.388 196 155 188.389 155 179C155 169.611 147.388 162 138 162C128.611 162 121 169.611 121 179C121 188.389 128.611 196 138 196ZM138 199C149.045 199 158 190.046 158 179C158 167.954 149.045 159 138 159C126.954 159 118 167.954 118 179C118 190.046 126.954 199 138 199Z" fill="white"/>
<path d="M147 99C147 104.523 142.522 109 137 109C131.477 109 127 104.523 127 99C127 93.4772 131.477 89 137 89C142.522 89 147 93.4772 147 99Z" fill="white"/>
<path fill-rule="evenodd" clip-rule="evenodd" d="M137 106C140.866 106 144 102.866 144 99C144 95.134 140.866 92 137 92C133.134 92 130 95.134 130 99C130 102.866 133.134 106 137 106ZM137 109C142.522 109 147 104.523 147 99C147 93.4772 142.522 89 137 89C131.477 89 127 93.4772 127 99C127 104.523 131.477 109 137 109Z" fill="white"/>
<path d="M18.9995 61H43.9995L18.9995 86V61Z" fill="white"/>
<path d="M254 298H229L254 273V298Z" fill="white"/>
<path fill-rule="evenodd" clip-rule="evenodd" d="M627 136.5V61H552V136.5H627ZM627 139.5H552V216.5H627V139.5ZM630 216.5V139.5H707.25V216.5H630ZM627 219.5H552V295H627V219.5ZM630 295V219.5H707.25V295H630ZM549 298V58H789V298H549ZM710.25 295H786V219.5H710.25V295ZM710.25 216.5H786V139.5H710.25V216.5ZM710.25 136.5H786V61H710.25V136.5ZM707.25 61H630V136.5H707.25V61Z" fill="white"/>
<path fill-rule="evenodd" clip-rule="evenodd" d="M708 60.9999L631 137L628.893 134.865L705.893 58.8647L708 60.9999Z" fill="white"/>
<path fill-rule="evenodd" clip-rule="evenodd" d="M709 79L645 140L642.93 137.828L706.93 76.8284L709 79Z" fill="white"/>
<path fill-rule="evenodd" clip-rule="evenodd" d="M771 140L707 201L704.93 198.829L768.93 137.829L771 140Z" fill="white"/>
<path fill-rule="evenodd" clip-rule="evenodd" d="M709 95L662 141L659.901 138.856L706.901 92.856L709 95Z" fill="white"/>
<path fill-rule="evenodd" clip-rule="evenodd" d="M755 139L708 185L705.901 182.856L752.901 136.856L755 139Z" fill="white"/>
<path fill-rule="evenodd" clip-rule="evenodd" d="M709 112L679 141L676.915 138.843L706.915 109.843L709 112Z" fill="white"/>
<path fill-rule="evenodd" clip-rule="evenodd" d="M739 139L709 168L706.915 165.843L736.915 136.843L739 139Z" fill="white"/>
<path fill-rule="evenodd" clip-rule="evenodd" d="M709 127L695 141L692.879 138.879L706.879 124.879L709 127Z" fill="white"/>
<path fill-rule="evenodd" clip-rule="evenodd" d="M723 139L709 153L706.879 150.879L720.879 136.879L723 139Z" fill="white"/>
<path fill-rule="evenodd" clip-rule="evenodd" d="M709 140L629 220L626.879 217.879L706.879 137.879L709 140Z" fill="white"/>
<path fill-rule="evenodd" clip-rule="evenodd" d="M789 139L709 219L706.879 216.879L786.879 136.879L789 139Z" fill="white"/>
<path fill-rule="evenodd" clip-rule="evenodd" d="M789 60L709 140L706.879 137.879L786.879 57.8787L789 60Z" fill="white"/>
<path fill-rule="evenodd" clip-rule="evenodd" d="M626.501 138.502L549 61L551.121 58.8787L628.623 136.38L626.501 138.502Z" fill="white"/>
<path fill-rule="evenodd" clip-rule="evenodd" d="M786.501 297.502L709 220L711.121 217.879L788.623 295.381L786.501 297.502Z" fill="white"/>
<path fill-rule="evenodd" clip-rule="evenodd" d="M628.501 297.502L551 220L553.121 217.879L630.623 295.381L628.501 297.502Z" fill="white"/>
<path d="M601 178C601 183.523 596.523 188 591 188C585.477 188 581 183.523 581 178C581 172.477 585.477 168 591 168C596.523 168 601 172.477 601 178Z" fill="white"/>
<path fill-rule="evenodd" clip-rule="evenodd" d="M591 185C594.866 185 598 181.866 598 178C598 174.134 594.866 171 591 171C587.134 171 584 174.134 584 178C584 181.866 587.134 185 591 185ZM591 188C596.523 188 601 183.523 601 178C601 172.477 596.523 168 591 168C585.477 168 581 172.477 581 178C581 183.523 585.477 188 591 188Z" fill="white"/>
<path d="M679 258C679 263.523 674.523 268 669 268C663.477 268 659 263.523 659 258C659 252.477 663.477 248 669 248C674.523 248 679 252.477 679 258Z" fill="white"/>
<path fill-rule="evenodd" clip-rule="evenodd" d="M669 265C672.866 265 676 261.866 676 258C676 254.134 672.866 251 669 251C665.134 251 662 254.134 662 258C662 261.866 665.134 265 669 265ZM669 268C674.523 268 679 263.523 679 258C679 252.477 674.523 248 669 248C663.477 248 659 252.477 659 258C659 263.523 663.477 268 669 268Z" fill="white"/>
<path d="M690 179C690 190.046 681.046 199 670 199C658.954 199 650 190.046 650 179C650 167.954 658.954 159 670 159C681.046 159 690 167.954 690 179Z" fill="white"/>
<path fill-rule="evenodd" clip-rule="evenodd" d="M670 196C679.389 196 687 188.389 687 179C687 169.611 679.389 162 670 162C660.611 162 653 169.611 653 179C653 188.389 660.611 196 670 196ZM670 199C681.046 199 690 190.046 690 179C690 167.954 681.046 159 670 159C658.954 159 650 167.954 650 179C650 190.046 658.954 199 670 199Z" fill="white"/>
<path d="M709 218H734L709 243V218Z" fill="white"/>
<path d="M629 137H604L629 112V137Z" fill="white"/>
<path fill-rule="evenodd" clip-rule="evenodd" d="M444.25 136.5H520V61H444.25V136.5ZM441.25 136.5V61H364V136.5H441.25ZM364 139.5H441.25V216.5H364V139.5ZM361 136.5V61H286V136.5H361ZM286 139.5H361V216.5H286V139.5ZM283 58H523V298H283V58ZM286 219.5V295H520V219.5H286ZM520 216.5V139.5H444.25V216.5H520Z" fill="white"/>
<path fill-rule="evenodd" clip-rule="evenodd" d="M443 60.9999L366 137L363.892 134.865L440.892 58.8647L443 60.9999Z" fill="white"/>
<path fill-rule="evenodd" clip-rule="evenodd" d="M443 140L363 220L360.878 217.879L440.878 137.879L443 140Z" fill="white"/>
<path fill-rule="evenodd" clip-rule="evenodd" d="M523 141L443 221L440.878 218.879L520.878 138.879L523 141Z" fill="white"/>
<path fill-rule="evenodd" clip-rule="evenodd" d="M520.25 138.751L442.748 61.2492L444.87 59.1279L522.371 136.63L520.25 138.751Z" fill="white"/>
<path fill-rule="evenodd" clip-rule="evenodd" d="M440.501 219.502L362.999 142L365.121 139.879L442.622 217.381L440.501 219.502Z" fill="white"/>
<path d="M361 218H336L361 193V218Z" fill="white"/>
<path d="M392.486 242.141V262.443C392.472 265.26 391.583 267.563 389.82 269.354C388.07 271.146 385.691 272.15 382.683 272.369L381.637 272.41C378.37 272.41 375.765 271.528 373.824 269.765C371.882 268.001 370.898 265.574 370.871 262.484V242.141H374.767V262.361C374.767 264.521 375.362 266.203 376.551 267.406C377.741 268.596 379.436 269.19 381.637 269.19C383.866 269.19 385.568 268.596 386.744 267.406C387.933 266.217 388.528 264.542 388.528 262.382V242.141H392.486Z" fill="white"/>
<path d="M421.648 272H417.69L402.658 248.99V272H398.7V242.141H402.658L417.731 265.253V242.141H421.648V272Z" fill="white"/>
<path d="M432.866 272H428.928V242.141H432.866V272Z" fill="white"/>
<path fill-rule="evenodd" clip-rule="evenodd" d="M310.308 62.643H284.95V88.001H310.308V62.643ZM283 60.6924V89.9517H312.259V60.6924H283Z" fill="white"/>
<path fill-rule="evenodd" clip-rule="evenodd" d="M292.801 60.692L285.925 67.5192L285.238 66.8271L292.114 59.9999L292.801 60.692Z" fill="white"/>
<path fill-rule="evenodd" clip-rule="evenodd" d="M311.283 85.0747L306.407 88.9759L305.797 88.2144L310.674 84.3131L311.283 85.0747Z" fill="white"/>
<path fill-rule="evenodd" clip-rule="evenodd" d="M295.727 62.6428L285.925 72.4445L285.236 71.7549L295.038 61.9531L295.727 62.6428Z" fill="white"/>
<path fill-rule="evenodd" clip-rule="evenodd" d="M311.332 80.1985L301.53 90.0002L300.84 89.3105L310.642 79.5088L311.332 80.1985Z" fill="white"/>
<path fill-rule="evenodd" clip-rule="evenodd" d="M301.53 62.6429L285.925 77.2726L285.258 76.561L300.863 61.9314L301.53 62.6429Z" fill="white"/>
<path fill-rule="evenodd" clip-rule="evenodd" d="M311.283 75.3216L295.678 89.9513L295.011 89.2397L310.616 74.6101L311.283 75.3216Z" fill="white"/>
<path fill-rule="evenodd" clip-rule="evenodd" d="M307.382 62.6427L285.925 82.1489L285.269 81.4272L306.726 61.9211L307.382 62.6427Z" fill="white"/>
<path fill-rule="evenodd" clip-rule="evenodd" d="M311.283 70.4455L289.826 89.9517L289.17 89.23L310.627 69.7238L311.283 70.4455Z" fill="white"/>
<path fill-rule="evenodd" clip-rule="evenodd" d="M312.258 64.5935L285.925 88.0009L285.277 87.272L311.61 63.8646L312.258 64.5935Z" fill="white"/>
<path fill-rule="evenodd" clip-rule="evenodd" d="M249.992 44.0695L267.992 43.9997C269.097 43.9955 269.996 44.8874 270 45.992L270.07 63.9919C270.074 65.0964 269.182 65.9953 268.077 65.9996C266.973 66.0039 266.074 65.1119 266.07 64.0074L266.019 50.8359L12.4196 306.408L9.58023 303.591L263.179 48.0184L250.008 48.0695C248.903 48.0738 248.004 47.1818 248 46.0773C247.996 44.9727 248.888 44.0738 249.992 44.0695Z" fill="#2CF30B"/>
<path fill-rule="evenodd" clip-rule="evenodd" d="M783.992 44.0695L801.992 43.9997C803.097 43.9955 803.996 44.8874 804 45.992L804.07 63.9919C804.074 65.0964 803.182 65.9953 802.077 65.9996C800.973 66.0039 800.074 65.1119 800.07 64.0074L800.019 50.8359L546.42 306.408L543.58 303.591L797.179 48.0184L784.008 48.0695C782.903 48.0738 782.004 47.1818 782 46.0773C781.996 44.9727 782.888 44.0738 783.992 44.0695Z" fill="#2CF30B"/>
<path fill-rule="evenodd" clip-rule="evenodd" d="M511.992 48.0695L529.992 47.9997C531.097 47.9955 531.996 48.8874 532 49.992L532.07 67.9919C532.074 69.0964 531.182 69.9953 530.077 69.9996C528.973 70.0039 528.074 69.1119 528.07 68.0074L528.019 54.8359L274.42 310.408L271.58 307.591L525.179 52.0184L512.008 52.0695C510.903 52.0738 510.004 51.1818 510 50.0773C509.996 48.9727 510.888 48.0738 511.992 48.0695Z" fill="#2CF30B"/>
<path d="M723.264 18.6904C719.887 17.7197 717.426 16.5303 715.881 15.1221C714.35 13.7002 713.584 11.9502 713.584 9.87207C713.584 7.52051 714.521 5.5791 716.394 4.04785C718.28 2.50293 720.728 1.73047 723.735 1.73047C725.786 1.73047 727.611 2.12695 729.211 2.91992C730.824 3.71289 732.068 4.80664 732.943 6.20117C733.832 7.5957 734.276 9.12012 734.276 10.7744H730.318C730.318 8.96973 729.744 7.55469 728.596 6.5293C727.447 5.49023 725.827 4.9707 723.735 4.9707C721.794 4.9707 720.276 5.40137 719.183 6.2627C718.103 7.11035 717.562 8.29297 717.562 9.81055C717.562 11.0273 718.075 12.0596 719.101 12.9072C720.14 13.7412 721.896 14.5068 724.371 15.2041C726.859 15.9014 728.801 16.6738 730.195 17.5215C731.604 18.3555 732.643 19.333 733.312 20.4541C733.996 21.5752 734.338 22.8945 734.338 24.4121C734.338 26.832 733.395 28.7734 731.508 30.2363C729.621 31.6855 727.099 32.4102 723.94 32.4102C721.89 32.4102 719.976 32.0205 718.198 31.2412C716.421 30.4482 715.047 29.3682 714.076 28.001C713.119 26.6338 712.641 25.082 712.641 23.3457H716.599C716.599 25.1504 717.262 26.5791 718.588 27.6318C719.928 28.6709 721.712 29.1904 723.94 29.1904C726.019 29.1904 727.611 28.7666 728.719 27.9189C729.826 27.0713 730.38 25.916 730.38 24.4531C730.38 22.9902 729.867 21.8623 728.842 21.0693C727.816 20.2627 725.957 19.4697 723.264 18.6904Z" fill="#2CF30B"/>
<path d="M742.931 32H739.137V9.81055H742.931V32ZM738.829 3.9248C738.829 3.30957 739.014 2.79004 739.383 2.36621C739.766 1.94238 740.326 1.73047 741.064 1.73047C741.803 1.73047 742.363 1.94238 742.746 2.36621C743.129 2.79004 743.32 3.30957 743.32 3.9248C743.32 4.54004 743.129 5.05273 742.746 5.46289C742.363 5.87305 741.803 6.07812 741.064 6.07812C740.326 6.07812 739.766 5.87305 739.383 5.46289C739.014 5.05273 738.829 4.54004 738.829 3.9248Z" fill="#2CF30B"/>
<path d="M752.59 9.81055L752.692 12.2715C754.319 10.3574 756.514 9.40039 759.275 9.40039C762.379 9.40039 764.491 10.5898 765.612 12.9688C766.351 11.9023 767.308 11.041 768.483 10.3848C769.673 9.72852 771.074 9.40039 772.688 9.40039C777.555 9.40039 780.029 11.9775 780.111 17.1318V32H776.317V17.3574C776.317 15.7715 775.955 14.5889 775.23 13.8096C774.506 13.0166 773.289 12.6201 771.58 12.6201C770.172 12.6201 769.003 13.0439 768.073 13.8916C767.144 14.7256 766.604 15.8535 766.453 17.2754V32H762.639V17.46C762.639 14.2334 761.06 12.6201 757.901 12.6201C755.413 12.6201 753.711 13.6797 752.795 15.7988V32H749.001V9.81055H752.59Z" fill="#2CF30B"/>
<path d="M795.062 32.4102C792.054 32.4102 789.606 31.4258 787.72 29.457C785.833 27.4746 784.89 24.8291 784.89 21.5205V20.8232C784.89 18.6221 785.307 16.6602 786.141 14.9375C786.988 13.2012 788.164 11.8477 789.668 10.877C791.186 9.89258 792.826 9.40039 794.59 9.40039C797.475 9.40039 799.717 10.3506 801.316 12.251C802.916 14.1514 803.716 16.8721 803.716 20.4131V21.9922H788.684C788.738 24.1797 789.374 25.9502 790.591 27.3037C791.821 28.6436 793.38 29.3135 795.267 29.3135C796.606 29.3135 797.741 29.04 798.671 28.4932C799.601 27.9463 800.414 27.2217 801.111 26.3193L803.429 28.124C801.569 30.9814 798.78 32.4102 795.062 32.4102ZM794.59 12.5176C793.059 12.5176 791.773 13.0781 790.734 14.1992C789.695 15.3066 789.053 16.8652 788.807 18.875H799.922V18.5879C799.812 16.6602 799.293 15.1699 798.363 14.1172C797.434 13.0508 796.176 12.5176 794.59 12.5176Z" fill="#2CF30B"/>
<path d="M813.272 4.4375V9.81055H817.415V12.7432H813.272V26.5039C813.272 27.3926 813.457 28.0625 813.826 28.5137C814.195 28.9512 814.824 29.1699 815.713 29.1699C816.15 29.1699 816.752 29.0879 817.518 28.9238V32C816.52 32.2734 815.549 32.4102 814.605 32.4102C812.91 32.4102 811.632 31.8975 810.771 30.8721C809.909 29.8467 809.479 28.3906 809.479 26.5039V12.7432H805.438V9.81055H809.479V4.4375H813.272Z" fill="#2CF30B"/>
<path d="M832.591 13.2148C832.017 13.1191 831.395 13.0713 830.725 13.0713C828.236 13.0713 826.548 14.1309 825.659 16.25V32H821.865V9.81055H825.557L825.618 12.374C826.862 10.3916 828.626 9.40039 830.909 9.40039C831.647 9.40039 832.208 9.49609 832.591 9.6875V13.2148Z" fill="#2CF30B"/>
<path d="M840.22 32H836.405V9.81055H840.22V32ZM840.261 0.520508H844.854L839.358 6.5498H836.303L840.261 0.520508Z" fill="#2CF30B"/>
<path d="M860.174 32C859.955 31.5625 859.777 30.7832 859.641 29.6621C857.877 31.4941 855.771 32.4102 853.324 32.4102C851.137 32.4102 849.339 31.7949 847.931 30.5645C846.536 29.3203 845.839 27.748 845.839 25.8477C845.839 23.5371 846.714 21.7461 848.464 20.4746C850.228 19.1895 852.702 18.5469 855.888 18.5469H859.579V16.8037C859.579 15.4775 859.183 14.4248 858.39 13.6455C857.597 12.8525 856.428 12.4561 854.883 12.4561C853.529 12.4561 852.395 12.7979 851.479 13.4814C850.562 14.165 850.104 14.9922 850.104 15.9629H846.29C846.29 14.8555 846.68 13.7891 847.459 12.7637C848.252 11.7246 849.318 10.9043 850.658 10.3027C852.012 9.70117 853.495 9.40039 855.108 9.40039C857.665 9.40039 859.668 10.043 861.117 11.3281C862.566 12.5996 863.318 14.3564 863.373 16.5986V26.8115C863.373 28.8486 863.633 30.4688 864.152 31.6719V32H860.174ZM853.878 29.1084C855.067 29.1084 856.195 28.8008 857.262 28.1855C858.328 27.5703 859.101 26.7705 859.579 25.7861V21.2334H856.605C851.957 21.2334 849.633 22.5938 849.633 25.3145C849.633 26.5039 850.029 27.4336 850.822 28.1035C851.615 28.7734 852.634 29.1084 853.878 29.1084Z" fill="#2CF30B"/>
</svg>
