<svg viewBox="0 0 972 697" fill="none" xmlns="http://www.w3.org/2000/svg">
<g id="0127121">
<g id="enunciado">
<g id="Group 71">
<path id="Rectangle 1" d="M27 54.1722C27 25.7736 49.5821 2.75195 77.4386 2.75195H947V358.58C947 386.979 924.418 410 896.561 410H27V54.1722Z" fill="#02071A"/>
<path id="Rectangle 1 (Stroke)" fill-rule="evenodd" clip-rule="evenodd" d="M941.956 7.85154H77.4386C52.3678 7.85154 32.0439 28.5732 32.0439 54.1346V404.857H896.561C921.632 404.857 941.956 384.135 941.956 358.574V7.85154ZM77.4386 2.70898C49.5821 2.70898 27 25.733 27 54.1346V410H896.561C924.418 410 947 386.976 947 358.574V2.70898H77.4386Z" fill="#CD08D1"/>
<path id="Rectangle 14" d="M81.6251 2.84419C108.602 -3.55524 947 2.84419 947 2.84419V30.5486C947 30.5486 67.351 20.3658 36.0791 30.5486C45.8095 15.8546 54.6481 9.24361 81.6251 2.84419Z" fill="#CD08D1"/>
<path id="Rectangle 15" d="M915.076 8.80518H945.066V359.639C941.385 383.447 933.755 392.198 915.076 403.62C920.574 384.915 915.076 8.80518 915.076 8.80518Z" fill="#CD08D1"/>
</g>
<g id="Determine la alternativa que debe ocupar el casillero UNI">
<path d="M43.9707 75V49.4062H51.1953C53.4219 49.4062 55.3906 49.8984 57.1016 50.8828C58.8125 51.8672 60.1309 53.2676 61.0566 55.084C61.9941 56.9004 62.4688 58.9863 62.4805 61.3418V62.9766C62.4805 65.3906 62.0117 67.5059 61.0742 69.3223C60.1484 71.1387 58.8184 72.5332 57.084 73.5059C55.3613 74.4785 53.3516 74.9766 51.0547 75H43.9707ZM47.3457 52.1836V72.2402H50.8965C53.498 72.2402 55.5195 71.4316 56.9609 69.8145C58.4141 68.1973 59.1406 65.8945 59.1406 62.9062V61.4121C59.1406 58.5059 58.4551 56.25 57.084 54.6445C55.7246 53.0273 53.791 52.207 51.2832 52.1836H47.3457Z" fill="white"/>
<path d="M74.9785 75.3516C72.4004 75.3516 70.3027 74.5078 68.6855 72.8203C67.0684 71.1211 66.2598 68.8535 66.2598 66.0176V65.4199C66.2598 63.5332 66.6172 61.8516 67.332 60.375C68.0586 58.8867 69.0664 57.7266 70.3555 56.8945C71.6562 56.0508 73.0625 55.6289 74.5742 55.6289C77.0469 55.6289 78.9688 56.4434 80.3398 58.0723C81.7109 59.7012 82.3965 62.0332 82.3965 65.0684V66.4219H69.5117C69.5586 68.2969 70.1035 69.8145 71.1465 70.9746C72.2012 72.123 73.5371 72.6973 75.1543 72.6973C76.3027 72.6973 77.2754 72.4629 78.0723 71.9941C78.8691 71.5254 79.5664 70.9043 80.1641 70.1309L82.1504 71.6777C80.5566 74.127 78.166 75.3516 74.9785 75.3516ZM74.5742 58.3008C73.2617 58.3008 72.1602 58.7812 71.2695 59.7422C70.3789 60.6914 69.8281 62.0273 69.6172 63.75H79.1445V63.5039C79.0508 61.8516 78.6055 60.5742 77.8086 59.6719C77.0117 58.7578 75.9336 58.3008 74.5742 58.3008Z" fill="white"/>
<path d="M90.5879 51.375V55.9805H94.1387V58.4941H90.5879V70.2891C90.5879 71.0508 90.7461 71.625 91.0625 72.0117C91.3789 72.3867 91.918 72.5742 92.6797 72.5742C93.0547 72.5742 93.5703 72.5039 94.2266 72.3633V75C93.3711 75.2344 92.5391 75.3516 91.7305 75.3516C90.2773 75.3516 89.1816 74.9121 88.4434 74.0332C87.7051 73.1543 87.3359 71.9062 87.3359 70.2891V58.4941H83.873V55.9805H87.3359V51.375H90.5879Z" fill="white"/>
<path d="M105.846 75.3516C103.268 75.3516 101.17 74.5078 99.5527 72.8203C97.9355 71.1211 97.127 68.8535 97.127 66.0176V65.4199C97.127 63.5332 97.4844 61.8516 98.1992 60.375C98.9258 58.8867 99.9336 57.7266 101.223 56.8945C102.523 56.0508 103.93 55.6289 105.441 55.6289C107.914 55.6289 109.836 56.4434 111.207 58.0723C112.578 59.7012 113.264 62.0332 113.264 65.0684V66.4219H100.379C100.426 68.2969 100.971 69.8145 102.014 70.9746C103.068 72.123 104.404 72.6973 106.021 72.6973C107.17 72.6973 108.143 72.4629 108.939 71.9941C109.736 71.5254 110.434 70.9043 111.031 70.1309L113.018 71.6777C111.424 74.127 109.033 75.3516 105.846 75.3516ZM105.441 58.3008C104.129 58.3008 103.027 58.7812 102.137 59.7422C101.246 60.6914 100.695 62.0273 100.484 63.75H110.012V63.5039C109.918 61.8516 109.473 60.5742 108.676 59.6719C107.879 58.7578 106.801 58.3008 105.441 58.3008Z" fill="white"/>
<path d="M126.236 58.8984C125.744 58.8164 125.211 58.7754 124.637 58.7754C122.504 58.7754 121.057 59.6836 120.295 61.5V75H117.043V55.9805H120.207L120.26 58.1777C121.326 56.4785 122.838 55.6289 124.795 55.6289C125.428 55.6289 125.908 55.7109 126.236 55.875V58.8984Z" fill="white"/>
<path d="M132.301 55.9805L132.389 58.0898C133.783 56.4492 135.664 55.6289 138.031 55.6289C140.691 55.6289 142.502 56.6484 143.463 58.6875C144.096 57.7734 144.916 57.0352 145.924 56.4727C146.943 55.9102 148.145 55.6289 149.527 55.6289C153.699 55.6289 155.82 57.8379 155.891 62.2559V75H152.639V62.4492C152.639 61.0898 152.328 60.0762 151.707 59.4082C151.086 58.7285 150.043 58.3887 148.578 58.3887C147.371 58.3887 146.369 58.752 145.572 59.4785C144.775 60.1934 144.312 61.1602 144.184 62.3789V75H140.914V62.5371C140.914 59.7715 139.561 58.3887 136.854 58.3887C134.721 58.3887 133.262 59.2969 132.477 61.1133V75H129.225V55.9805H132.301Z" fill="white"/>
<path d="M164.346 75H161.094V55.9805H164.346V75ZM160.83 50.9355C160.83 50.4082 160.988 49.9629 161.305 49.5996C161.633 49.2363 162.113 49.0547 162.746 49.0547C163.379 49.0547 163.859 49.2363 164.188 49.5996C164.516 49.9629 164.68 50.4082 164.68 50.9355C164.68 51.4629 164.516 51.9023 164.188 52.2539C163.859 52.6055 163.379 52.7812 162.746 52.7812C162.113 52.7812 161.633 52.6055 161.305 52.2539C160.988 51.9023 160.83 51.4629 160.83 50.9355Z" fill="white"/>
<path d="M172.643 55.9805L172.748 58.3711C174.201 56.543 176.1 55.6289 178.443 55.6289C182.463 55.6289 184.49 57.8965 184.525 62.4316V75H181.273V62.4141C181.262 61.043 180.945 60.0293 180.324 59.373C179.715 58.7168 178.76 58.3887 177.459 58.3887C176.404 58.3887 175.479 58.6699 174.682 59.2324C173.885 59.7949 173.264 60.5332 172.818 61.4473V75H169.566V55.9805H172.643Z" fill="white"/>
<path d="M197.322 75.3516C194.744 75.3516 192.646 74.5078 191.029 72.8203C189.412 71.1211 188.604 68.8535 188.604 66.0176V65.4199C188.604 63.5332 188.961 61.8516 189.676 60.375C190.402 58.8867 191.41 57.7266 192.699 56.8945C194 56.0508 195.406 55.6289 196.918 55.6289C199.391 55.6289 201.312 56.4434 202.684 58.0723C204.055 59.7012 204.74 62.0332 204.74 65.0684V66.4219H191.855C191.902 68.2969 192.447 69.8145 193.49 70.9746C194.545 72.123 195.881 72.6973 197.498 72.6973C198.646 72.6973 199.619 72.4629 200.416 71.9941C201.213 71.5254 201.91 70.9043 202.508 70.1309L204.494 71.6777C202.9 74.127 200.51 75.3516 197.322 75.3516ZM196.918 58.3008C195.605 58.3008 194.504 58.7812 193.613 59.7422C192.723 60.6914 192.172 62.0273 191.961 63.75H201.488V63.5039C201.395 61.8516 200.949 60.5742 200.152 59.6719C199.355 58.7578 198.277 58.3008 196.918 58.3008Z" fill="white"/>
<path d="M220.982 75H217.73V48H220.982V75Z" fill="white"/>
<path d="M237.945 75C237.758 74.625 237.605 73.957 237.488 72.9961C235.977 74.5664 234.172 75.3516 232.074 75.3516C230.199 75.3516 228.658 74.8242 227.451 73.7695C226.256 72.7031 225.658 71.3555 225.658 69.7266C225.658 67.7461 226.408 66.2109 227.908 65.1211C229.42 64.0195 231.541 63.4688 234.271 63.4688H237.436V61.9746C237.436 60.8379 237.096 59.9355 236.416 59.2676C235.736 58.5879 234.734 58.248 233.41 58.248C232.25 58.248 231.277 58.541 230.492 59.127C229.707 59.7129 229.314 60.4219 229.314 61.2539H226.045C226.045 60.3047 226.379 59.3906 227.047 58.5117C227.727 57.6211 228.641 56.918 229.789 56.4023C230.949 55.8867 232.221 55.6289 233.604 55.6289C235.795 55.6289 237.512 56.1797 238.754 57.2812C239.996 58.3711 240.641 59.877 240.688 61.7988V70.5527C240.688 72.2988 240.91 73.6875 241.355 74.7188V75H237.945ZM232.549 72.5215C233.568 72.5215 234.535 72.2578 235.449 71.7305C236.363 71.2031 237.025 70.5176 237.436 69.6738V65.7715H234.887C230.902 65.7715 228.91 66.9375 228.91 69.2695C228.91 70.2891 229.25 71.0859 229.93 71.6602C230.609 72.2344 231.482 72.5215 232.549 72.5215Z" fill="white"/>
<path d="M266.457 75C266.27 74.625 266.117 73.957 266 72.9961C264.488 74.5664 262.684 75.3516 260.586 75.3516C258.711 75.3516 257.17 74.8242 255.963 73.7695C254.768 72.7031 254.17 71.3555 254.17 69.7266C254.17 67.7461 254.92 66.2109 256.42 65.1211C257.932 64.0195 260.053 63.4688 262.783 63.4688H265.947V61.9746C265.947 60.8379 265.607 59.9355 264.928 59.2676C264.248 58.5879 263.246 58.248 261.922 58.248C260.762 58.248 259.789 58.541 259.004 59.127C258.219 59.7129 257.826 60.4219 257.826 61.2539H254.557C254.557 60.3047 254.891 59.3906 255.559 58.5117C256.238 57.6211 257.152 56.918 258.301 56.4023C259.461 55.8867 260.732 55.6289 262.115 55.6289C264.307 55.6289 266.023 56.1797 267.266 57.2812C268.508 58.3711 269.152 59.877 269.199 61.7988V70.5527C269.199 72.2988 269.422 73.6875 269.867 74.7188V75H266.457ZM261.061 72.5215C262.08 72.5215 263.047 72.2578 263.961 71.7305C264.875 71.2031 265.537 70.5176 265.947 69.6738V65.7715H263.398C259.414 65.7715 257.422 66.9375 257.422 69.2695C257.422 70.2891 257.762 71.0859 258.441 71.6602C259.121 72.2344 259.994 72.5215 261.061 72.5215Z" fill="white"/>
<path d="M277.83 75H274.578V48H277.83V75Z" fill="white"/>
<path d="M287.463 51.375V55.9805H291.014V58.4941H287.463V70.2891C287.463 71.0508 287.621 71.625 287.938 72.0117C288.254 72.3867 288.793 72.5742 289.555 72.5742C289.93 72.5742 290.445 72.5039 291.102 72.3633V75C290.246 75.2344 289.414 75.3516 288.605 75.3516C287.152 75.3516 286.057 74.9121 285.318 74.0332C284.58 73.1543 284.211 71.9062 284.211 70.2891V58.4941H280.748V55.9805H284.211V51.375H287.463Z" fill="white"/>
<path d="M302.721 75.3516C300.143 75.3516 298.045 74.5078 296.428 72.8203C294.811 71.1211 294.002 68.8535 294.002 66.0176V65.4199C294.002 63.5332 294.359 61.8516 295.074 60.375C295.801 58.8867 296.809 57.7266 298.098 56.8945C299.398 56.0508 300.805 55.6289 302.316 55.6289C304.789 55.6289 306.711 56.4434 308.082 58.0723C309.453 59.7012 310.139 62.0332 310.139 65.0684V66.4219H297.254C297.301 68.2969 297.846 69.8145 298.889 70.9746C299.943 72.123 301.279 72.6973 302.896 72.6973C304.045 72.6973 305.018 72.4629 305.814 71.9941C306.611 71.5254 307.309 70.9043 307.906 70.1309L309.893 71.6777C308.299 74.127 305.908 75.3516 302.721 75.3516ZM302.316 58.3008C301.004 58.3008 299.902 58.7812 299.012 59.7422C298.121 60.6914 297.57 62.0273 297.359 63.75H306.887V63.5039C306.793 61.8516 306.348 60.5742 305.551 59.6719C304.754 58.7578 303.676 58.3008 302.316 58.3008Z" fill="white"/>
<path d="M323.111 58.8984C322.619 58.8164 322.086 58.7754 321.512 58.7754C319.379 58.7754 317.932 59.6836 317.17 61.5V75H313.918V55.9805H317.082L317.135 58.1777C318.201 56.4785 319.713 55.6289 321.67 55.6289C322.303 55.6289 322.783 55.7109 323.111 55.875V58.8984Z" fill="white"/>
<path d="M329.193 55.9805L329.299 58.3711C330.752 56.543 332.65 55.6289 334.994 55.6289C339.014 55.6289 341.041 57.8965 341.076 62.4316V75H337.824V62.4141C337.812 61.043 337.496 60.0293 336.875 59.373C336.266 58.7168 335.311 58.3887 334.01 58.3887C332.955 58.3887 332.029 58.6699 331.232 59.2324C330.436 59.7949 329.814 60.5332 329.369 61.4473V75H326.117V55.9805H329.193Z" fill="white"/>
<path d="M357.723 75C357.535 74.625 357.383 73.957 357.266 72.9961C355.754 74.5664 353.949 75.3516 351.852 75.3516C349.977 75.3516 348.436 74.8242 347.229 73.7695C346.033 72.7031 345.436 71.3555 345.436 69.7266C345.436 67.7461 346.186 66.2109 347.686 65.1211C349.197 64.0195 351.318 63.4688 354.049 63.4688H357.213V61.9746C357.213 60.8379 356.873 59.9355 356.193 59.2676C355.514 58.5879 354.512 58.248 353.188 58.248C352.027 58.248 351.055 58.541 350.27 59.127C349.484 59.7129 349.092 60.4219 349.092 61.2539H345.822C345.822 60.3047 346.156 59.3906 346.824 58.5117C347.504 57.6211 348.418 56.918 349.566 56.4023C350.727 55.8867 351.998 55.6289 353.381 55.6289C355.572 55.6289 357.289 56.1797 358.531 57.2812C359.773 58.3711 360.418 59.877 360.465 61.7988V70.5527C360.465 72.2988 360.688 73.6875 361.133 74.7188V75H357.723ZM352.326 72.5215C353.346 72.5215 354.312 72.2578 355.227 71.7305C356.141 71.2031 356.803 70.5176 357.213 69.6738V65.7715H354.664C350.68 65.7715 348.688 66.9375 348.688 69.2695C348.688 70.2891 349.027 71.0859 349.707 71.6602C350.387 72.2344 351.26 72.5215 352.326 72.5215Z" fill="white"/>
<path d="M369.975 51.375V55.9805H373.525V58.4941H369.975V70.2891C369.975 71.0508 370.133 71.625 370.449 72.0117C370.766 72.3867 371.305 72.5742 372.066 72.5742C372.441 72.5742 372.957 72.5039 373.613 72.3633V75C372.758 75.2344 371.926 75.3516 371.117 75.3516C369.664 75.3516 368.568 74.9121 367.83 74.0332C367.092 73.1543 366.723 71.9062 366.723 70.2891V58.4941H363.26V55.9805H366.723V51.375H369.975Z" fill="white"/>
<path d="M380.873 75H377.621V55.9805H380.873V75ZM377.357 50.9355C377.357 50.4082 377.516 49.9629 377.832 49.5996C378.16 49.2363 378.641 49.0547 379.273 49.0547C379.906 49.0547 380.387 49.2363 380.715 49.5996C381.043 49.9629 381.207 50.4082 381.207 50.9355C381.207 51.4629 381.043 51.9023 380.715 52.2539C380.387 52.6055 379.906 52.7812 379.273 52.7812C378.641 52.7812 378.16 52.6055 377.832 52.2539C377.516 51.9023 377.357 51.4629 377.357 50.9355Z" fill="white"/>
<path d="M392.369 70.5879L397.08 55.9805H400.402L393.582 75H391.104L384.213 55.9805H387.535L392.369 70.5879Z" fill="white"/>
<path d="M414.992 75C414.805 74.625 414.652 73.957 414.535 72.9961C413.023 74.5664 411.219 75.3516 409.121 75.3516C407.246 75.3516 405.705 74.8242 404.498 73.7695C403.303 72.7031 402.705 71.3555 402.705 69.7266C402.705 67.7461 403.455 66.2109 404.955 65.1211C406.467 64.0195 408.588 63.4688 411.318 63.4688H414.482V61.9746C414.482 60.8379 414.143 59.9355 413.463 59.2676C412.783 58.5879 411.781 58.248 410.457 58.248C409.297 58.248 408.324 58.541 407.539 59.127C406.754 59.7129 406.361 60.4219 406.361 61.2539H403.092C403.092 60.3047 403.426 59.3906 404.094 58.5117C404.773 57.6211 405.688 56.918 406.836 56.4023C407.996 55.8867 409.268 55.6289 410.65 55.6289C412.842 55.6289 414.559 56.1797 415.801 57.2812C417.043 58.3711 417.688 59.877 417.734 61.7988V70.5527C417.734 72.2988 417.957 73.6875 418.402 74.7188V75H414.992ZM409.596 72.5215C410.615 72.5215 411.582 72.2578 412.496 71.7305C413.41 71.2031 414.072 70.5176 414.482 69.6738V65.7715H411.934C407.949 65.7715 405.957 66.9375 405.957 69.2695C405.957 70.2891 406.297 71.0859 406.977 71.6602C407.656 72.2344 408.529 72.5215 409.596 72.5215Z" fill="white"/>
<path d="M430.971 65.332C430.971 62.3438 431.656 59.9824 433.027 58.248C434.398 56.502 436.238 55.6289 438.547 55.6289C440.797 55.6289 442.572 56.3848 443.873 57.8965L444.014 55.9805H447.002V82.3125H443.75V73.2422C442.438 74.6484 440.691 75.3516 438.512 75.3516C436.215 75.3516 434.381 74.4609 433.01 72.6797C431.65 70.8867 430.971 68.5137 430.971 65.5605V65.332ZM434.223 65.7012C434.223 67.8809 434.68 69.5918 435.594 70.834C436.52 72.0762 437.762 72.6973 439.32 72.6973C441.254 72.6973 442.73 71.8418 443.75 70.1309V60.8145C442.719 59.1387 441.254 58.3008 439.355 58.3008C437.785 58.3008 436.537 58.9277 435.611 60.1816C434.686 61.4238 434.223 63.2637 434.223 65.7012Z" fill="white"/>
<path d="M463.965 73.1191C462.699 74.6074 460.842 75.3516 458.393 75.3516C456.365 75.3516 454.818 74.7656 453.752 73.5938C452.697 72.4102 452.164 70.6641 452.152 68.3555V55.9805H455.404V68.2676C455.404 71.1504 456.576 72.5918 458.92 72.5918C461.404 72.5918 463.057 71.666 463.877 69.8145V55.9805H467.129V75H464.035L463.965 73.1191Z" fill="white"/>
<path d="M479.979 75.3516C477.4 75.3516 475.303 74.5078 473.686 72.8203C472.068 71.1211 471.26 68.8535 471.26 66.0176V65.4199C471.26 63.5332 471.617 61.8516 472.332 60.375C473.059 58.8867 474.066 57.7266 475.355 56.8945C476.656 56.0508 478.062 55.6289 479.574 55.6289C482.047 55.6289 483.969 56.4434 485.34 58.0723C486.711 59.7012 487.396 62.0332 487.396 65.0684V66.4219H474.512C474.559 68.2969 475.104 69.8145 476.146 70.9746C477.201 72.123 478.537 72.6973 480.154 72.6973C481.303 72.6973 482.275 72.4629 483.072 71.9941C483.869 71.5254 484.566 70.9043 485.164 70.1309L487.15 71.6777C485.557 74.127 483.166 75.3516 479.979 75.3516ZM479.574 58.3008C478.262 58.3008 477.16 58.7812 476.27 59.7422C475.379 60.6914 474.828 62.0273 474.617 63.75H484.145V63.5039C484.051 61.8516 483.605 60.5742 482.809 59.6719C482.012 58.7578 480.934 58.3008 479.574 58.3008Z" fill="white"/>
<path d="M499.314 65.332C499.314 62.4141 500.006 60.0703 501.389 58.3008C502.771 56.5195 504.582 55.6289 506.82 55.6289C509.047 55.6289 510.811 56.3906 512.111 57.9141V48H515.363V75H512.375L512.217 72.9609C510.916 74.5547 509.105 75.3516 506.785 75.3516C504.582 75.3516 502.783 74.4492 501.389 72.6445C500.006 70.8398 499.314 68.4844 499.314 65.5781V65.332ZM502.566 65.7012C502.566 67.8574 503.012 69.5449 503.902 70.7637C504.793 71.9824 506.023 72.5918 507.594 72.5918C509.656 72.5918 511.162 71.666 512.111 69.8145V61.0781C511.139 59.2852 509.645 58.3887 507.629 58.3887C506.035 58.3887 504.793 59.0039 503.902 60.2344C503.012 61.4648 502.566 63.2871 502.566 65.7012Z" fill="white"/>
<path d="M528.318 75.3516C525.74 75.3516 523.643 74.5078 522.025 72.8203C520.408 71.1211 519.6 68.8535 519.6 66.0176V65.4199C519.6 63.5332 519.957 61.8516 520.672 60.375C521.398 58.8867 522.406 57.7266 523.695 56.8945C524.996 56.0508 526.402 55.6289 527.914 55.6289C530.387 55.6289 532.309 56.4434 533.68 58.0723C535.051 59.7012 535.736 62.0332 535.736 65.0684V66.4219H522.852C522.898 68.2969 523.443 69.8145 524.486 70.9746C525.541 72.123 526.877 72.6973 528.494 72.6973C529.643 72.6973 530.615 72.4629 531.412 71.9941C532.209 71.5254 532.906 70.9043 533.504 70.1309L535.49 71.6777C533.896 74.127 531.506 75.3516 528.318 75.3516ZM527.914 58.3008C526.602 58.3008 525.5 58.7812 524.609 59.7422C523.719 60.6914 523.168 62.0273 522.957 63.75H532.484V63.5039C532.391 61.8516 531.945 60.5742 531.148 59.6719C530.352 58.7578 529.273 58.3008 527.914 58.3008Z" fill="white"/>
<path d="M555.617 65.7012C555.617 68.6074 554.949 70.9453 553.613 72.7148C552.277 74.4727 550.484 75.3516 548.234 75.3516C545.832 75.3516 543.975 74.502 542.662 72.8027L542.504 75H539.516V48H542.768V58.0723C544.08 56.4434 545.891 55.6289 548.199 55.6289C550.508 55.6289 552.318 56.502 553.631 58.248C554.955 59.9941 555.617 62.3848 555.617 65.4199V65.7012ZM552.365 65.332C552.365 63.1172 551.938 61.4062 551.082 60.1992C550.227 58.9922 548.996 58.3887 547.391 58.3887C545.246 58.3887 543.705 59.3848 542.768 61.377V69.6035C543.764 71.5957 545.316 72.5918 547.426 72.5918C548.984 72.5918 550.197 71.9883 551.064 70.7812C551.932 69.5742 552.365 67.7578 552.365 65.332Z" fill="white"/>
<path d="M567.623 75.3516C565.045 75.3516 562.947 74.5078 561.33 72.8203C559.713 71.1211 558.904 68.8535 558.904 66.0176V65.4199C558.904 63.5332 559.262 61.8516 559.977 60.375C560.703 58.8867 561.711 57.7266 563 56.8945C564.301 56.0508 565.707 55.6289 567.219 55.6289C569.691 55.6289 571.613 56.4434 572.984 58.0723C574.355 59.7012 575.041 62.0332 575.041 65.0684V66.4219H562.156C562.203 68.2969 562.748 69.8145 563.791 70.9746C564.846 72.123 566.182 72.6973 567.799 72.6973C568.947 72.6973 569.92 72.4629 570.717 71.9941C571.514 71.5254 572.211 70.9043 572.809 70.1309L574.795 71.6777C573.201 74.127 570.811 75.3516 567.623 75.3516ZM567.219 58.3008C565.906 58.3008 564.805 58.7812 563.914 59.7422C563.023 60.6914 562.473 62.0273 562.262 63.75H571.789V63.5039C571.695 61.8516 571.25 60.5742 570.453 59.6719C569.656 58.7578 568.578 58.3008 567.219 58.3008Z" fill="white"/>
<path d="M586.889 65.3145C586.889 63.4512 587.252 61.7754 587.979 60.2871C588.717 58.7988 589.736 57.6504 591.037 56.8418C592.35 56.0332 593.844 55.6289 595.52 55.6289C598.109 55.6289 600.201 56.5254 601.795 58.3184C603.4 60.1113 604.203 62.4961 604.203 65.4727V65.7012C604.203 67.5527 603.846 69.2168 603.131 70.6934C602.428 72.1582 601.414 73.3008 600.09 74.1211C598.777 74.9414 597.266 75.3516 595.555 75.3516C592.977 75.3516 590.885 74.4551 589.279 72.6621C587.686 70.8691 586.889 68.4961 586.889 65.543V65.3145ZM590.158 65.7012C590.158 67.8105 590.645 69.5039 591.617 70.7812C592.602 72.0586 593.914 72.6973 595.555 72.6973C597.207 72.6973 598.52 72.0527 599.492 70.7637C600.465 69.4629 600.951 67.6465 600.951 65.3145C600.951 63.2285 600.453 61.541 599.457 60.252C598.473 58.9512 597.16 58.3008 595.52 58.3008C593.914 58.3008 592.619 58.9395 591.635 60.2168C590.65 61.4941 590.158 63.3223 590.158 65.7012Z" fill="white"/>
<path d="M615.91 72.6973C617.07 72.6973 618.084 72.3457 618.951 71.6426C619.818 70.9395 620.299 70.0605 620.393 69.0059H623.469C623.41 70.0957 623.035 71.1328 622.344 72.1172C621.652 73.1016 620.727 73.8867 619.566 74.4727C618.418 75.0586 617.199 75.3516 615.91 75.3516C613.32 75.3516 611.258 74.4902 609.723 72.7676C608.199 71.0332 607.438 68.666 607.438 65.666V65.1211C607.438 63.2695 607.777 61.623 608.457 60.1816C609.137 58.7402 610.109 57.6211 611.375 56.8242C612.652 56.0273 614.158 55.6289 615.893 55.6289C618.025 55.6289 619.795 56.2676 621.201 57.5449C622.619 58.8223 623.375 60.4805 623.469 62.5195H620.393C620.299 61.2891 619.83 60.2812 618.986 59.4961C618.154 58.6992 617.123 58.3008 615.893 58.3008C614.24 58.3008 612.957 58.8984 612.043 60.0938C611.141 61.2773 610.689 62.9941 610.689 65.2441V65.8594C610.689 68.0508 611.141 69.7383 612.043 70.9219C612.945 72.1055 614.234 72.6973 615.91 72.6973Z" fill="white"/>
<path d="M638.867 73.1191C637.602 74.6074 635.744 75.3516 633.295 75.3516C631.268 75.3516 629.721 74.7656 628.654 73.5938C627.6 72.4102 627.066 70.6641 627.055 68.3555V55.9805H630.307V68.2676C630.307 71.1504 631.479 72.5918 633.822 72.5918C636.307 72.5918 637.959 71.666 638.779 69.8145V55.9805H642.031V75H638.938L638.867 73.1191Z" fill="white"/>
<path d="M663.055 65.7012C663.055 68.5957 662.393 70.9277 661.068 72.6973C659.744 74.4668 657.951 75.3516 655.689 75.3516C653.381 75.3516 651.564 74.6191 650.24 73.1543V82.3125H646.988V55.9805H649.959L650.117 58.0898C651.441 56.4492 653.281 55.6289 655.637 55.6289C657.922 55.6289 659.727 56.4902 661.051 58.2129C662.387 59.9355 663.055 62.332 663.055 65.4023V65.7012ZM659.803 65.332C659.803 63.1875 659.346 61.4941 658.432 60.252C657.518 59.0098 656.264 58.3887 654.67 58.3887C652.701 58.3887 651.225 59.2617 650.24 61.0078V70.0957C651.213 71.8301 652.701 72.6973 654.705 72.6973C656.264 72.6973 657.5 72.082 658.414 70.8516C659.34 69.6094 659.803 67.7695 659.803 65.332Z" fill="white"/>
<path d="M678.945 75C678.758 74.625 678.605 73.957 678.488 72.9961C676.977 74.5664 675.172 75.3516 673.074 75.3516C671.199 75.3516 669.658 74.8242 668.451 73.7695C667.256 72.7031 666.658 71.3555 666.658 69.7266C666.658 67.7461 667.408 66.2109 668.908 65.1211C670.42 64.0195 672.541 63.4688 675.271 63.4688H678.436V61.9746C678.436 60.8379 678.096 59.9355 677.416 59.2676C676.736 58.5879 675.734 58.248 674.41 58.248C673.25 58.248 672.277 58.541 671.492 59.127C670.707 59.7129 670.314 60.4219 670.314 61.2539H667.045C667.045 60.3047 667.379 59.3906 668.047 58.5117C668.727 57.6211 669.641 56.918 670.789 56.4023C671.949 55.8867 673.221 55.6289 674.604 55.6289C676.795 55.6289 678.512 56.1797 679.754 57.2812C680.996 58.3711 681.641 59.877 681.688 61.7988V70.5527C681.688 72.2988 681.91 73.6875 682.355 74.7188V75H678.945ZM673.549 72.5215C674.568 72.5215 675.535 72.2578 676.449 71.7305C677.363 71.2031 678.025 70.5176 678.436 69.6738V65.7715H675.887C671.902 65.7715 669.91 66.9375 669.91 69.2695C669.91 70.2891 670.25 71.0859 670.93 71.6602C671.609 72.2344 672.482 72.5215 673.549 72.5215Z" fill="white"/>
<path d="M695.979 58.8984C695.486 58.8164 694.953 58.7754 694.379 58.7754C692.246 58.7754 690.799 59.6836 690.037 61.5V75H686.785V55.9805H689.949L690.002 58.1777C691.068 56.4785 692.58 55.6289 694.537 55.6289C695.17 55.6289 695.65 55.7109 695.979 55.875V58.8984Z" fill="white"/>
<path d="M715.807 75.3516C713.229 75.3516 711.131 74.5078 709.514 72.8203C707.896 71.1211 707.088 68.8535 707.088 66.0176V65.4199C707.088 63.5332 707.445 61.8516 708.16 60.375C708.887 58.8867 709.895 57.7266 711.184 56.8945C712.484 56.0508 713.891 55.6289 715.402 55.6289C717.875 55.6289 719.797 56.4434 721.168 58.0723C722.539 59.7012 723.225 62.0332 723.225 65.0684V66.4219H710.34C710.387 68.2969 710.932 69.8145 711.975 70.9746C713.029 72.123 714.365 72.6973 715.982 72.6973C717.131 72.6973 718.104 72.4629 718.9 71.9941C719.697 71.5254 720.395 70.9043 720.992 70.1309L722.979 71.6777C721.385 74.127 718.994 75.3516 715.807 75.3516ZM715.402 58.3008C714.09 58.3008 712.988 58.7812 712.098 59.7422C711.207 60.6914 710.656 62.0273 710.445 63.75H719.973V63.5039C719.879 61.8516 719.434 60.5742 718.637 59.6719C717.84 58.7578 716.762 58.3008 715.402 58.3008Z" fill="white"/>
<path d="M730.537 75H727.285V48H730.537V75Z" fill="white"/>
<path d="M752.316 72.6973C753.477 72.6973 754.49 72.3457 755.357 71.6426C756.225 70.9395 756.705 70.0605 756.799 69.0059H759.875C759.816 70.0957 759.441 71.1328 758.75 72.1172C758.059 73.1016 757.133 73.8867 755.973 74.4727C754.824 75.0586 753.605 75.3516 752.316 75.3516C749.727 75.3516 747.664 74.4902 746.129 72.7676C744.605 71.0332 743.844 68.666 743.844 65.666V65.1211C743.844 63.2695 744.184 61.623 744.863 60.1816C745.543 58.7402 746.516 57.6211 747.781 56.8242C749.059 56.0273 750.564 55.6289 752.299 55.6289C754.432 55.6289 756.201 56.2676 757.607 57.5449C759.025 58.8223 759.781 60.4805 759.875 62.5195H756.799C756.705 61.2891 756.236 60.2812 755.393 59.4961C754.561 58.6992 753.529 58.3008 752.299 58.3008C750.646 58.3008 749.363 58.8984 748.449 60.0938C747.547 61.2773 747.096 62.9941 747.096 65.2441V65.8594C747.096 68.0508 747.547 69.7383 748.449 70.9219C749.352 72.1055 750.641 72.6973 752.316 72.6973Z" fill="white"/>
<path d="M775.273 75C775.086 74.625 774.934 73.957 774.816 72.9961C773.305 74.5664 771.5 75.3516 769.402 75.3516C767.527 75.3516 765.986 74.8242 764.779 73.7695C763.584 72.7031 762.986 71.3555 762.986 69.7266C762.986 67.7461 763.736 66.2109 765.236 65.1211C766.748 64.0195 768.869 63.4688 771.6 63.4688H774.764V61.9746C774.764 60.8379 774.424 59.9355 773.744 59.2676C773.064 58.5879 772.062 58.248 770.738 58.248C769.578 58.248 768.605 58.541 767.82 59.127C767.035 59.7129 766.643 60.4219 766.643 61.2539H763.373C763.373 60.3047 763.707 59.3906 764.375 58.5117C765.055 57.6211 765.969 56.918 767.117 56.4023C768.277 55.8867 769.549 55.6289 770.932 55.6289C773.123 55.6289 774.84 56.1797 776.082 57.2812C777.324 58.3711 777.969 59.877 778.016 61.7988V70.5527C778.016 72.2988 778.238 73.6875 778.684 74.7188V75H775.273ZM769.877 72.5215C770.896 72.5215 771.863 72.2578 772.777 71.7305C773.691 71.2031 774.354 70.5176 774.764 69.6738V65.7715H772.215C768.23 65.7715 766.238 66.9375 766.238 69.2695C766.238 70.2891 766.578 71.0859 767.258 71.6602C767.938 72.2344 768.811 72.5215 769.877 72.5215Z" fill="white"/>
<path d="M794.188 69.9551C794.188 69.0762 793.854 68.3965 793.186 67.916C792.529 67.4238 791.375 67.002 789.723 66.6504C788.082 66.2988 786.775 65.877 785.803 65.3848C784.842 64.8926 784.127 64.3066 783.658 63.627C783.201 62.9473 782.973 62.1387 782.973 61.2012C782.973 59.6426 783.629 58.3242 784.941 57.2461C786.266 56.168 787.953 55.6289 790.004 55.6289C792.16 55.6289 793.906 56.1855 795.242 57.2988C796.59 58.4121 797.264 59.8359 797.264 61.5703H793.994C793.994 60.6797 793.613 59.9121 792.852 59.2676C792.102 58.623 791.152 58.3008 790.004 58.3008C788.82 58.3008 787.895 58.5586 787.227 59.0742C786.559 59.5898 786.225 60.2637 786.225 61.0957C786.225 61.8809 786.535 62.4727 787.156 62.8711C787.777 63.2695 788.896 63.6504 790.514 64.0137C792.143 64.377 793.461 64.8105 794.469 65.3145C795.477 65.8184 796.221 66.4277 796.701 67.1426C797.193 67.8457 797.439 68.707 797.439 69.7266C797.439 71.4258 796.76 72.791 795.4 73.8223C794.041 74.8418 792.277 75.3516 790.109 75.3516C788.586 75.3516 787.238 75.082 786.066 74.543C784.895 74.0039 783.975 73.2539 783.307 72.293C782.65 71.3203 782.322 70.2715 782.322 69.1465H785.574C785.633 70.2363 786.066 71.1035 786.875 71.748C787.695 72.3809 788.773 72.6973 790.109 72.6973C791.34 72.6973 792.324 72.4512 793.062 71.959C793.812 71.4551 794.188 70.7871 794.188 69.9551Z" fill="white"/>
<path d="M805.209 75H801.957V55.9805H805.209V75ZM801.693 50.9355C801.693 50.4082 801.852 49.9629 802.168 49.5996C802.496 49.2363 802.977 49.0547 803.609 49.0547C804.242 49.0547 804.723 49.2363 805.051 49.5996C805.379 49.9629 805.543 50.4082 805.543 50.9355C805.543 51.4629 805.379 51.9023 805.051 52.2539C804.723 52.6055 804.242 52.7812 803.609 52.7812C802.977 52.7812 802.496 52.6055 802.168 52.2539C801.852 51.9023 801.693 51.4629 801.693 50.9355Z" fill="white"/>
<path d="M813.963 75H810.711V48H813.963V75Z" fill="white"/>
<path d="M822.717 75H819.465V48H822.717V75Z" fill="white"/>
<path d="M835.83 75.3516C833.252 75.3516 831.154 74.5078 829.537 72.8203C827.92 71.1211 827.111 68.8535 827.111 66.0176V65.4199C827.111 63.5332 827.469 61.8516 828.184 60.375C828.91 58.8867 829.918 57.7266 831.207 56.8945C832.508 56.0508 833.914 55.6289 835.426 55.6289C837.898 55.6289 839.82 56.4434 841.191 58.0723C842.562 59.7012 843.248 62.0332 843.248 65.0684V66.4219H830.363C830.41 68.2969 830.955 69.8145 831.998 70.9746C833.053 72.123 834.389 72.6973 836.006 72.6973C837.154 72.6973 838.127 72.4629 838.924 71.9941C839.721 71.5254 840.418 70.9043 841.016 70.1309L843.002 71.6777C841.408 74.127 839.018 75.3516 835.83 75.3516ZM835.426 58.3008C834.113 58.3008 833.012 58.7812 832.121 59.7422C831.23 60.6914 830.68 62.0273 830.469 63.75H839.996V63.5039C839.902 61.8516 839.457 60.5742 838.66 59.6719C837.863 58.7578 836.785 58.3008 835.426 58.3008Z" fill="white"/>
<path d="M856.221 58.8984C855.729 58.8164 855.195 58.7754 854.621 58.7754C852.488 58.7754 851.041 59.6836 850.279 61.5V75H847.027V55.9805H850.191L850.244 58.1777C851.311 56.4785 852.822 55.6289 854.779 55.6289C855.412 55.6289 855.893 55.7109 856.221 55.875V58.8984Z" fill="white"/>
<path d="M858.014 65.3145C858.014 63.4512 858.377 61.7754 859.104 60.2871C859.842 58.7988 860.861 57.6504 862.162 56.8418C863.475 56.0332 864.969 55.6289 866.645 55.6289C869.234 55.6289 871.326 56.5254 872.92 58.3184C874.525 60.1113 875.328 62.4961 875.328 65.4727V65.7012C875.328 67.5527 874.971 69.2168 874.256 70.6934C873.553 72.1582 872.539 73.3008 871.215 74.1211C869.902 74.9414 868.391 75.3516 866.68 75.3516C864.102 75.3516 862.01 74.4551 860.404 72.6621C858.811 70.8691 858.014 68.4961 858.014 65.543V65.3145ZM861.283 65.7012C861.283 67.8105 861.77 69.5039 862.742 70.7812C863.727 72.0586 865.039 72.6973 866.68 72.6973C868.332 72.6973 869.645 72.0527 870.617 70.7637C871.59 69.4629 872.076 67.6465 872.076 65.3145C872.076 63.2285 871.578 61.541 870.582 60.252C869.598 58.9512 868.285 58.3008 866.645 58.3008C865.039 58.3008 863.744 58.9395 862.76 60.2168C861.775 61.4941 861.283 63.3223 861.283 65.7012Z" fill="white"/>
<path d="M61.9883 91.4062V108.809C61.9766 111.223 61.2148 113.197 59.7031 114.732C58.2031 116.268 56.1641 117.129 53.5859 117.316L52.6895 117.352C49.8887 117.352 47.6562 116.596 45.9922 115.084C44.3281 113.572 43.4844 111.492 43.4609 108.844V91.4062H46.8008V108.738C46.8008 110.59 47.3105 112.031 48.3301 113.062C49.3496 114.082 50.8027 114.592 52.6895 114.592C54.5996 114.592 56.0586 114.082 57.0664 113.062C58.0859 112.043 58.5957 110.607 58.5957 108.756V91.4062H61.9883Z" fill="white"/>
<path d="M86.9844 117H83.5918L70.707 97.2773V117H67.3145V91.4062H70.707L83.627 111.217V91.4062H86.9844V117Z" fill="white"/>
<path d="M96.5996 117H93.2246V91.4062H96.5996V117Z" fill="white"/>
</g>
<g id="Group 312">
<g id="Group 303">
<path id="Rectangle 119 (Stroke)" fill-rule="evenodd" clip-rule="evenodd" d="M399.75 189.312V104.375H315.375V189.312H399.75ZM399.75 192.688H315.375V279.312H399.75V192.688ZM403.125 279.312V192.688H490.031V279.312H403.125ZM399.75 282.688H315.375V367.625H399.75V282.688ZM403.125 367.625V282.688H490.031V367.625H403.125ZM312 371V101H582V371H312ZM493.406 367.625H578.625V282.688H493.406V367.625ZM493.406 279.312H578.625V192.688H493.406V279.312ZM493.406 189.312H578.625V104.375H493.406V189.312ZM490.031 104.375H403.125V189.312H490.031V104.375Z" fill="white"/>
</g>
<path id="Rectangle 128 (Stroke)" fill-rule="evenodd" clip-rule="evenodd" d="M373.875 130.25H340.125V164H373.875V130.25ZM337.875 128V166.25H376.125V128H337.875Z" fill="white"/>
<path id="Rectangle 141 (Stroke)" fill-rule="evenodd" clip-rule="evenodd" d="M373.875 223.625H340.125V257.375H373.875V223.625ZM337.875 221.375V259.625H376.125V221.375H337.875Z" fill="white"/>
<path id="Rectangle 154 (Stroke)" fill-rule="evenodd" clip-rule="evenodd" d="M372.75 308H339V341.75H372.75V308ZM336.75 305.75V344H375V305.75H336.75Z" fill="white"/>
<path id="Rectangle 161 (Stroke)" fill-rule="evenodd" clip-rule="evenodd" d="M463.875 310.25H430.125V344H463.875V310.25ZM427.875 308V346.25H466.125V308H427.875Z" fill="white"/>
<path id="Rectangle 147 (Stroke)" fill-rule="evenodd" clip-rule="evenodd" d="M465 219.125H431.25V252.875H465V219.125ZM429 216.875V255.125H467.25V216.875H429Z" fill="white"/>
<path id="Rectangle 152 (Stroke)" fill-rule="evenodd" clip-rule="evenodd" d="M553.875 219.125H520.125V252.875H553.875V219.125ZM517.875 216.875V255.125H556.125V216.875H517.875Z" fill="white"/>
<path id="Rectangle 134 (Stroke)" fill-rule="evenodd" clip-rule="evenodd" d="M463.875 130.25H430.125V164H463.875V130.25ZM427.875 128V166.25H466.125V128H427.875Z" fill="white"/>
<path id="Rectangle 137 (Stroke)" fill-rule="evenodd" clip-rule="evenodd" d="M553.875 130.25H520.125V164H553.875V130.25ZM517.875 128V166.25H556.125V128H517.875Z" fill="white"/>
<path id="Rectangle 129 (Stroke)" fill-rule="evenodd" clip-rule="evenodd" d="M347.725 114.36L338.163 128.423H357.288L347.725 114.36ZM347.725 118.362L342.414 126.173H353.037L347.725 118.362Z" fill="white"/>
<path id="Rectangle 132 (Stroke)" fill-rule="evenodd" clip-rule="evenodd" d="M347.438 180.312L357 166.25H337.875L347.438 180.312ZM347.438 176.311L352.75 168.5H342.126L347.438 176.311Z" fill="white"/>
<path id="Rectangle 133 (Stroke)" fill-rule="evenodd" clip-rule="evenodd" d="M366.562 180.312L376.125 166.25H357L366.562 180.312ZM366.562 176.311L371.874 168.5H361.251L366.562 176.311Z" fill="white"/>
<path id="Rectangle 142 (Stroke)" fill-rule="evenodd" clip-rule="evenodd" d="M357.563 272.562L367.125 258.5H348L357.563 272.562ZM357.563 268.561L362.875 260.75H352.251L357.563 268.561Z" fill="white"/>
<path id="Rectangle 160 (Stroke)" fill-rule="evenodd" clip-rule="evenodd" d="M355.312 356.938L364.875 342.875H345.75L355.312 356.938ZM355.312 352.936L360.624 345.125H350L355.312 352.936Z" fill="white"/>
<path id="Rectangle 162 (Stroke)" fill-rule="evenodd" clip-rule="evenodd" d="M446.437 324.312L456 310.25H436.875L446.437 324.312ZM446.437 320.311L451.749 312.5H441.125L446.437 320.311Z" fill="white"/>
<path id="Rectangle 150 (Stroke)" fill-rule="evenodd" clip-rule="evenodd" d="M448.688 233.188L458.25 219.125H439.125L448.688 233.188ZM448.688 229.186L454 221.375H443.376L448.688 229.186Z" fill="white"/>
<path id="Rectangle 153 (Stroke)" fill-rule="evenodd" clip-rule="evenodd" d="M536.438 233.188L546 219.125H526.875L536.438 233.188ZM536.438 229.186L541.75 221.375H531.126L536.438 229.186Z" fill="white"/>
<path id="Rectangle 140 (Stroke)" fill-rule="evenodd" clip-rule="evenodd" d="M536.438 180.312L546 166.25H526.875L536.438 180.312ZM536.438 176.311L541.75 168.5H531.126L536.438 176.311Z" fill="white"/>
<path id="Rectangle 130 (Stroke)" fill-rule="evenodd" clip-rule="evenodd" d="M366.563 114.5L357 128.563H376.125L366.563 114.5ZM366.563 118.501L361.251 126.313H371.875L366.563 118.501Z" fill="white"/>
<path id="Rectangle 144 (Stroke)" fill-rule="evenodd" clip-rule="evenodd" d="M357.562 206.75L348 220.812H367.125L357.562 206.75ZM357.562 210.751L352.25 218.562H362.874L357.562 210.751Z" fill="white"/>
<path id="Rectangle 159 (Stroke)" fill-rule="evenodd" clip-rule="evenodd" d="M355.312 291.125L345.75 305.188H364.875L355.312 291.125ZM355.312 295.126L350.001 302.938H360.624L355.312 295.126Z" fill="white"/>
<path id="Rectangle 163 (Stroke)" fill-rule="evenodd" clip-rule="evenodd" d="M447.563 329.375L438 343.438H457.125L447.563 329.375ZM447.563 333.376L442.251 341.188H452.875L447.563 333.376Z" fill="white"/>
<path id="Rectangle 151 (Stroke)" fill-rule="evenodd" clip-rule="evenodd" d="M448.687 238.25L439.125 252.313H458.25L448.687 238.25ZM448.687 242.251L443.375 250.063H453.999L448.687 242.251Z" fill="white"/>
<path id="Rectangle 136 (Stroke)" fill-rule="evenodd" clip-rule="evenodd" d="M446.438 114.5L436.875 128.563H456L446.438 114.5ZM446.438 118.501L441.126 126.313H451.749L446.438 118.501Z" fill="white"/>
<path id="Rectangle 138 (Stroke)" fill-rule="evenodd" clip-rule="evenodd" d="M536.437 114.5L526.875 128.563H546L536.437 114.5ZM536.437 118.501L531.125 126.313H541.749L536.437 118.501Z" fill="white"/>
<path id="Rectangle 131 (Stroke)" fill-rule="evenodd" clip-rule="evenodd" d="M351.938 146.563L337.875 137V156.125L351.938 146.563ZM347.937 146.563L340.125 141.251V151.874L347.937 146.563Z" fill="white"/>
<path id="Rectangle 145 (Stroke)" fill-rule="evenodd" clip-rule="evenodd" d="M390.187 239.938L376.125 230.375V249.5L390.187 239.938ZM386.186 239.938L378.375 234.626V245.249L386.186 239.938Z" fill="white"/>
<path id="Rectangle 158 (Stroke)" fill-rule="evenodd" clip-rule="evenodd" d="M389.063 333.312L375 323.75V342.875L389.063 333.312ZM385.062 333.312L377.25 328.001V338.624L385.062 333.312Z" fill="white"/>
<path id="Rectangle 157 (Stroke)" fill-rule="evenodd" clip-rule="evenodd" d="M389.063 315.312L375 305.75V324.875L389.063 315.312ZM385.062 315.312L377.25 310.001V320.624L385.062 315.312Z" fill="white"/>
<path id="Rectangle 149 (Stroke)" fill-rule="evenodd" clip-rule="evenodd" d="M444.187 235.438L430.125 225.875V245L444.187 235.438ZM440.186 235.438L432.375 230.126V240.749L440.186 235.438Z" fill="white"/>
<path id="Rectangle 139 (Stroke)" fill-rule="evenodd" clip-rule="evenodd" d="M570.188 146.563L556.125 137V156.125L570.188 146.563ZM566.186 146.563L558.375 141.251V151.874L566.186 146.563Z" fill="white"/>
<path id="Rectangle 135 (Stroke)" fill-rule="evenodd" clip-rule="evenodd" d="M451.5 146.562L465.563 156.125V137L451.5 146.562ZM455.502 146.562L463.313 151.874V141.251L455.502 146.562Z" fill="white"/>
<path id="Rectangle 143 (Stroke)" fill-rule="evenodd" clip-rule="evenodd" d="M323.25 239.938L337.313 249.5V230.375L323.25 239.938ZM327.252 239.938L335.063 245.249V234.626L327.252 239.938Z" fill="white"/>
<path id="Rectangle 155 (Stroke)" fill-rule="evenodd" clip-rule="evenodd" d="M322.125 315.312L336.188 324.875V305.75L322.125 315.312ZM326.126 315.312L333.938 320.624V310.001L326.126 315.312Z" fill="white"/>
<path id="Rectangle 156 (Stroke)" fill-rule="evenodd" clip-rule="evenodd" d="M322.125 334.438L336.188 344V324.875L322.125 334.438ZM326.126 334.438L333.938 339.749V329.126L326.126 334.438Z" fill="white"/>
<path id="Rectangle 146 (Stroke)" fill-rule="evenodd" clip-rule="evenodd" d="M360.375 239.938L374.438 249.5V230.375L360.375 239.938ZM364.377 239.938L372.188 245.249V234.626L364.377 239.938Z" fill="white"/>
<path id="Rectangle 148 (Stroke)" fill-rule="evenodd" clip-rule="evenodd" d="M451.5 235.438L465.563 245V225.875L451.5 235.438ZM455.502 235.438L463.313 240.749V230.126L455.502 235.438Z" fill="white"/>
</g>
</g>
<g id="claves">
<g id="Group 21">
<g id="Group 237">
<path id="Rectangle 4" d="M40 440H256.745L290 501L256.745 562H40V440Z" fill="#CD08D1" fill-opacity="0.1"/>
<path id="Rectangle 4 (Stroke)" fill-rule="evenodd" clip-rule="evenodd" d="M255.338 444.575H43V557.425H255.338L286.099 501L255.338 444.575ZM256.745 440H40V562H256.745L290 501L256.745 440Z" fill="#CD08D1"/>
</g>
<g id="Group 238">
<path id="Ellipse 1" d="M81 497.026C81 519.683 63.0914 538.051 41 538.051C18.9086 538.051 1 519.683 1 497.026C1 474.368 18.9086 456 41 456C63.0914 456 81 474.368 81 497.026Z" fill="#CD08D1"/>
<path id="A" d="M49.0938 507.699H31.4688L27.7812 518.564H19.5625L36.75 471.897H43.8438L61.0625 518.564H52.8125L49.0938 507.699ZM33.6875 501.16H46.875L40.2812 481.801L33.6875 501.16Z" fill="white"/>
</g>
</g>
<g id="Group 17">
<g id="Group 239">
<path id="Rectangle 5" d="M383 440H599.745L633 501L599.745 562H383V440Z" fill="#CD08D1" fill-opacity="0.1"/>
<path id="Rectangle 5 (Stroke)" fill-rule="evenodd" clip-rule="evenodd" d="M598.338 444.575H386V557.425H598.338L629.099 501L598.338 444.575ZM599.745 440H383V562H599.745L633 501L599.745 440Z" fill="#CD08D1"/>
</g>
<g id="Group 240">
<path id="Ellipse 2" d="M420 501C420 523.091 402.091 541 380 541C357.909 541 340 523.091 340 501C340 478.909 357.909 461 380 461C402.091 461 420 478.909 420 501Z" fill="#CD08D1"/>
<path id="B" d="M363.625 517V471.5H379.219C384.365 471.5 388.281 472.531 390.969 474.594C393.656 476.656 395 479.729 395 483.812C395 485.896 394.438 487.771 393.312 489.438C392.188 491.104 390.542 492.396 388.375 493.312C390.833 493.979 392.729 495.24 394.062 497.094C395.417 498.927 396.094 501.135 396.094 503.719C396.094 507.99 394.719 511.271 391.969 513.562C389.24 515.854 385.323 517 380.219 517H363.625ZM371.531 496.469V510.688H380.312C382.792 510.688 384.729 510.073 386.125 508.844C387.521 507.615 388.219 505.906 388.219 503.719C388.219 498.99 385.802 496.573 380.969 496.469H371.531ZM371.531 490.656H379.281C381.74 490.656 383.656 490.104 385.031 489C386.427 487.875 387.125 486.292 387.125 484.25C387.125 482 386.479 480.375 385.188 479.375C383.917 478.375 381.927 477.875 379.219 477.875H371.531V490.656Z" fill="white"/>
</g>
</g>
<g id="Group 18">
<g id="Group 241">
<path id="Rectangle 6" d="M722 532H938.745L972 593.5L938.745 655H722V532Z" fill="#CD08D1" fill-opacity="0.1"/>
<path id="Rectangle 6 (Stroke)" fill-rule="evenodd" clip-rule="evenodd" d="M937.338 536.613H725V650.388H937.338L968.099 593.5L937.338 536.613ZM938.745 532H722V655H938.745L972 593.5L938.745 532Z" fill="#CD08D1"/>
</g>
<g id="Group 242">
<path id="Ellipse 3" d="M764 593C764 615.091 746.091 633 724 633C701.909 633 684 615.091 684 593C684 570.909 701.909 553 724 553C746.091 553 764 570.909 764 593Z" fill="#CD08D1"/>
<path id="C" d="M741.344 600.188C740.885 605.042 739.094 608.833 735.969 611.562C732.844 614.271 728.688 615.625 723.5 615.625C719.875 615.625 716.677 614.771 713.906 613.062C711.156 611.333 709.031 608.885 707.531 605.719C706.031 602.552 705.25 598.875 705.188 594.688V590.438C705.188 586.146 705.948 582.365 707.469 579.094C708.99 575.823 711.167 573.302 714 571.531C716.854 569.76 720.146 568.875 723.875 568.875C728.896 568.875 732.938 570.24 736 572.969C739.062 575.698 740.844 579.552 741.344 584.531H733.469C733.094 581.26 732.135 578.906 730.594 577.469C729.073 576.01 726.833 575.281 723.875 575.281C720.438 575.281 717.792 576.542 715.938 579.062C714.104 581.562 713.167 585.24 713.125 590.094V594.125C713.125 599.042 714 602.792 715.75 605.375C717.521 607.958 720.104 609.25 723.5 609.25C726.604 609.25 728.938 608.552 730.5 607.156C732.062 605.76 733.052 603.438 733.469 600.188H741.344Z" fill="white"/>
</g>
</g>
<g id="Group 19">
<g id="Group 243">
<path id="Rectangle 7" d="M39 580H255.745L289 638.5L255.745 697H39V580Z" fill="#CD08D1" fill-opacity="0.1"/>
<path id="Rectangle 7 (Stroke)" fill-rule="evenodd" clip-rule="evenodd" d="M254.338 584.387H42V692.612H254.338L285.099 638.5L254.338 584.387ZM255.745 580H39V697H255.745L289 638.5L255.745 580Z" fill="#CD08D1"/>
</g>
<g id="Group 244">
<path id="Ellipse 4" d="M80 636C80 658.091 62.0914 676 40 676C17.9086 676 0 658.091 0 636C0 613.909 17.9086 596 40 596C62.0914 596 80 613.909 80 636Z" fill="#CD08D1"/>
<path id="D" d="M22.625 658V612.5H36.0625C40.0833 612.5 43.6458 613.396 46.75 615.188C49.875 616.979 52.2917 619.521 54 622.812C55.7083 626.104 56.5625 629.875 56.5625 634.125V636.406C56.5625 640.719 55.6979 644.51 53.9688 647.781C52.2604 651.052 49.8125 653.573 46.625 655.344C43.4583 657.115 39.8229 658 35.7188 658H22.625ZM30.5312 618.875V651.688H35.6875C39.8333 651.688 43.0104 650.396 45.2188 647.812C47.4479 645.208 48.5833 641.479 48.625 636.625V634.094C48.625 629.156 47.5521 625.385 45.4062 622.781C43.2604 620.177 40.1458 618.875 36.0625 618.875H30.5312Z" fill="white"/>
</g>
</g>
<g id="Group 20">
<g id="Group 246">
<path id="Rectangle 8" d="M383 574H599.745L633 634.5L599.745 695H383V574Z" fill="#CD08D1" fill-opacity="0.1"/>
<path id="Rectangle 8 (Stroke)" fill-rule="evenodd" clip-rule="evenodd" d="M598.338 578.538H386V690.463H598.338L629.099 634.5L598.338 578.538ZM599.745 574H383V695H599.745L633 634.5L599.745 574Z" fill="#CD08D1"/>
</g>
<g id="Group 245">
<path id="Ellipse 5" d="M424 634C424 656.091 406.091 674 384 674C361.909 674 344 656.091 344 634C344 611.909 361.909 594 384 594C406.091 594 424 611.909 424 634Z" fill="#CD08D1"/>
<path id="E" d="M393.219 635.688H374.531V649.688H396.375V656H366.625V610.5H396.156V616.875H374.531V629.438H393.219V635.688Z" fill="white"/>
</g>
</g>
<g id="Group 320">
<g id="Group 313">
<path id="Rectangle 164 (Stroke)" fill-rule="evenodd" clip-rule="evenodd" d="M186 480H140V526H186V480ZM138 478V528H188V478H138Z" fill="white"/>
<path id="Rectangle 165 (Stroke)" fill-rule="evenodd" clip-rule="evenodd" d="M119 491L139 503V478L119 491ZM122.774 490.932L137 499.468V481.685L122.774 490.932Z" fill="white"/>
<path id="Rectangle 166 (Stroke)" fill-rule="evenodd" clip-rule="evenodd" d="M119 516L139 528V503L119 516ZM122.774 515.932L137 524.468V506.685L122.774 515.932Z" fill="white"/>
<path id="Rectangle 167 (Stroke)" fill-rule="evenodd" clip-rule="evenodd" d="M164 548L176 528H151L164 548ZM163.932 544.226L172.468 530H154.685L163.932 544.226Z" fill="white"/>
<path id="Rectangle 164 (Stroke)_2" fill-rule="evenodd" clip-rule="evenodd" d="M211 456H117V550H211V456ZM114 453V553H214V453H114Z" fill="white"/>
</g>
<g id="Group 314">
<path id="Rectangle 164 (Stroke)_3" fill-rule="evenodd" clip-rule="evenodd" d="M524 475H478V521H524V475ZM476 473V523H526V473H476Z" fill="white"/>
<path id="Rectangle 165 (Stroke)_2" fill-rule="evenodd" clip-rule="evenodd" d="M457 486L477 498V473L457 486ZM460.774 485.932L475 494.468V476.685L460.774 485.932Z" fill="white"/>
<path id="Rectangle 166 (Stroke)_2" fill-rule="evenodd" clip-rule="evenodd" d="M457 511L477 523V498L457 511ZM460.774 510.932L475 519.468V501.685L460.774 510.932Z" fill="white"/>
<path id="Rectangle 167 (Stroke)_2" fill-rule="evenodd" clip-rule="evenodd" d="M546 485L526 473V498L546 485ZM542.226 485.068L528 476.532V494.315L542.226 485.068Z" fill="white"/>
<path id="Rectangle 168 (Stroke)" fill-rule="evenodd" clip-rule="evenodd" d="M546 510L526 498V523L546 510ZM542.226 510.068L528 501.532V519.315L542.226 510.068Z" fill="white"/>
<path id="Rectangle 164 (Stroke)_4" fill-rule="evenodd" clip-rule="evenodd" d="M549 451H455V545H549V451ZM452 448V548H552V448H452Z" fill="white"/>
</g>
<g id="Group 315">
<path id="Rectangle 164 (Stroke)_5" fill-rule="evenodd" clip-rule="evenodd" d="M869 568H823V614H869V568ZM821 566V616H871V566H821Z" fill="white"/>
<path id="Rectangle 165 (Stroke)_3" fill-rule="evenodd" clip-rule="evenodd" d="M843 546L831 566H856L843 546ZM843.068 549.774L834.532 564H852.315L843.068 549.774Z" fill="white"/>
<path id="Rectangle 166 (Stroke)_3" fill-rule="evenodd" clip-rule="evenodd" d="M851 591L871 603V578L851 591ZM854.774 590.932L869 599.468V581.685L854.774 590.932Z" fill="white"/>
<path id="Rectangle 167 (Stroke)_3" fill-rule="evenodd" clip-rule="evenodd" d="M847 636L859 616H834L847 636ZM846.932 632.226L855.468 618H837.685L846.932 632.226Z" fill="white"/>
<path id="Rectangle 168 (Stroke)_2" fill-rule="evenodd" clip-rule="evenodd" d="M841 591L821 579V604L841 591ZM837.226 591.068L823 582.532V600.315L837.226 591.068Z" fill="white"/>
<path id="Rectangle 164 (Stroke)_6" fill-rule="evenodd" clip-rule="evenodd" d="M894 544H800V638H894V544ZM797 541V641H897V541H797Z" fill="white"/>
</g>
<g id="Group 316">
<path id="Rectangle 164 (Stroke)_7" fill-rule="evenodd" clip-rule="evenodd" d="M191 611H145V657H191V611ZM143 609V659H193V609H143Z" fill="white"/>
<path id="Rectangle 165 (Stroke)_4" fill-rule="evenodd" clip-rule="evenodd" d="M167 639L155 659H180L167 639ZM167.068 642.774L158.532 657H176.315L167.068 642.774Z" fill="white"/>
<path id="Rectangle 167 (Stroke)_4" fill-rule="evenodd" clip-rule="evenodd" d="M169 629L181 609H156L169 629ZM168.932 625.226L177.468 611H159.685L168.932 625.226Z" fill="white"/>
<path id="Rectangle 164 (Stroke)_8" fill-rule="evenodd" clip-rule="evenodd" d="M216 587H122V681H216V587ZM119 584V684H219V584H119Z" fill="white"/>
</g>
<g id="Group 317">
<path id="Rectangle 164 (Stroke)_9" fill-rule="evenodd" clip-rule="evenodd" d="M528 611H482V657H528V611ZM480 609V659H530V609H480Z" fill="white"/>
<path id="Rectangle 165 (Stroke)_5" fill-rule="evenodd" clip-rule="evenodd" d="M504 639L492 659H517L504 639ZM504.068 642.774L495.532 657H513.315L504.068 642.774Z" fill="white"/>
<path id="Rectangle 168 (Stroke)_3" fill-rule="evenodd" clip-rule="evenodd" d="M550 633L530 621V646L550 633ZM546.226 633.068L532 624.532V642.315L546.226 633.068Z" fill="white"/>
<path id="Rectangle 167 (Stroke)_5" fill-rule="evenodd" clip-rule="evenodd" d="M506 629L518 609H493L506 629ZM505.932 625.226L514.468 611H496.685L505.932 625.226Z" fill="white"/>
<path id="Rectangle 164 (Stroke)_10" fill-rule="evenodd" clip-rule="evenodd" d="M553 587H459V681H553V587ZM456 584V684H556V584H456Z" fill="white"/>
</g>
</g>
<g id="flecha">
<path id="Rectangle 2" d="M387.2 456.008L402.482 464.133L360.5 543.089L345.219 534.963L387.2 456.008Z" fill="#1043F5"/>
<path id="Rectangle 1_2" d="M329 468.904L419 419V476.692L374 459.096L329 468.904Z" fill="#1043F5"/>
<path id="Rectangle 3" d="M333.039 538.21L348.666 511.143L365.936 510.565L350.309 537.632L333.039 538.21Z" fill="#1043F5"/>
<path id="Rectangle 4_2" d="M359.089 552.845L374.717 525.778L365.926 510.154L350.299 537.221L359.089 552.845Z" fill="#1043F5"/>
</g>
</g>
</g>
</svg>
