<svg viewBox="0 0 985 682" fill="none" xmlns="http://www.w3.org/2000/svg">
<g id="0127118">
<g id="enunciado">
<g id="Group 71">
<path id="Rectangle 1" d="M44 37.2599C44 17.7272 66.5821 1.89282 94.4386 1.89282H964V246.633C964 266.166 941.418 282 913.561 282H44V37.2599Z" fill="#02071A"/>
<path id="Rectangle 1 (Stroke)" fill-rule="evenodd" clip-rule="evenodd" d="M958.956 5.40036H94.4386C69.3678 5.40036 49.0439 19.6528 49.0439 37.234V278.463H913.561C938.632 278.463 958.956 264.21 958.956 246.629V5.40036ZM94.4386 1.86328C66.5821 1.86328 44 17.6993 44 37.234V282H913.561C941.418 282 964 266.164 964 246.629V1.86328H94.4386Z" fill="#CD08D1"/>
<path id="Rectangle 14" d="M98.625 1.95625C125.602 -2.44531 964 1.95625 964 1.95625V21.0115C964 21.0115 84.3509 14.0077 53.079 21.0115C62.8093 10.9049 71.648 6.3578 98.625 1.95625Z" fill="#CD08D1"/>
<path id="Rectangle 15" d="M932.076 6.0564H962.066V247.362C958.385 263.737 950.755 269.756 932.076 277.612C937.574 264.747 932.076 6.0564 932.076 6.0564Z" fill="#CD08D1"/>
</g>
<g id="Indique la figura que sigue en la serie mostrada">
<path d="M66.5918 69H63.2168V43.4062H66.5918V69Z" fill="white"/>
<path d="M75.3457 49.9805L75.4512 52.3711C76.9043 50.543 78.8027 49.6289 81.1465 49.6289C85.166 49.6289 87.1934 51.8965 87.2285 56.4316V69H83.9766V56.4141C83.9648 55.043 83.6484 54.0293 83.0273 53.373C82.418 52.7168 81.4629 52.3887 80.1621 52.3887C79.1074 52.3887 78.1816 52.6699 77.3848 53.2324C76.5879 53.7949 75.9668 54.5332 75.5215 55.4473V69H72.2695V49.9805H75.3457Z" fill="white"/>
<path d="M91.3418 59.332C91.3418 56.4141 92.0332 54.0703 93.416 52.3008C94.7988 50.5195 96.6094 49.6289 98.8477 49.6289C101.074 49.6289 102.838 50.3906 104.139 51.9141V42H107.391V69H104.402L104.244 66.9609C102.943 68.5547 101.133 69.3516 98.8125 69.3516C96.6094 69.3516 94.8105 68.4492 93.416 66.6445C92.0332 64.8398 91.3418 62.4844 91.3418 59.5781V59.332ZM94.5938 59.7012C94.5938 61.8574 95.0391 63.5449 95.9297 64.7637C96.8203 65.9824 98.0508 66.5918 99.6211 66.5918C101.684 66.5918 103.189 65.666 104.139 63.8145V55.0781C103.166 53.2852 101.672 52.3887 99.6562 52.3887C98.0625 52.3887 96.8203 53.0039 95.9297 54.2344C95.0391 55.4648 94.5938 57.2871 94.5938 59.7012Z" fill="white"/>
<path d="M115.986 69H112.734V49.9805H115.986V69ZM112.471 44.9355C112.471 44.4082 112.629 43.9629 112.945 43.5996C113.273 43.2363 113.754 43.0547 114.387 43.0547C115.02 43.0547 115.5 43.2363 115.828 43.5996C116.156 43.9629 116.32 44.4082 116.32 44.9355C116.32 45.4629 116.156 45.9023 115.828 46.2539C115.5 46.6055 115.02 46.7812 114.387 46.7812C113.754 46.7812 113.273 46.6055 112.945 46.2539C112.629 45.9023 112.471 45.4629 112.471 44.9355Z" fill="white"/>
<path d="M120.416 59.332C120.416 56.3438 121.102 53.9824 122.473 52.248C123.844 50.502 125.684 49.6289 127.992 49.6289C130.242 49.6289 132.018 50.3848 133.318 51.8965L133.459 49.9805H136.447V76.3125H133.195V67.2422C131.883 68.6484 130.137 69.3516 127.957 69.3516C125.66 69.3516 123.826 68.4609 122.455 66.6797C121.096 64.8867 120.416 62.5137 120.416 59.5605V59.332ZM123.668 59.7012C123.668 61.8809 124.125 63.5918 125.039 64.834C125.965 66.0762 127.207 66.6973 128.766 66.6973C130.699 66.6973 132.176 65.8418 133.195 64.1309V54.8145C132.164 53.1387 130.699 52.3008 128.801 52.3008C127.23 52.3008 125.982 52.9277 125.057 54.1816C124.131 55.4238 123.668 57.2637 123.668 59.7012Z" fill="white"/>
<path d="M153.41 67.1191C152.145 68.6074 150.287 69.3516 147.838 69.3516C145.811 69.3516 144.264 68.7656 143.197 67.5938C142.143 66.4102 141.609 64.6641 141.598 62.3555V49.9805H144.85V62.2676C144.85 65.1504 146.021 66.5918 148.365 66.5918C150.85 66.5918 152.502 65.666 153.322 63.8145V49.9805H156.574V69H153.48L153.41 67.1191Z" fill="white"/>
<path d="M169.424 69.3516C166.846 69.3516 164.748 68.5078 163.131 66.8203C161.514 65.1211 160.705 62.8535 160.705 60.0176V59.4199C160.705 57.5332 161.062 55.8516 161.777 54.375C162.504 52.8867 163.512 51.7266 164.801 50.8945C166.102 50.0508 167.508 49.6289 169.02 49.6289C171.492 49.6289 173.414 50.4434 174.785 52.0723C176.156 53.7012 176.842 56.0332 176.842 59.0684V60.4219H163.957C164.004 62.2969 164.549 63.8145 165.592 64.9746C166.646 66.123 167.982 66.6973 169.6 66.6973C170.748 66.6973 171.721 66.4629 172.518 65.9941C173.314 65.5254 174.012 64.9043 174.609 64.1309L176.596 65.6777C175.002 68.127 172.611 69.3516 169.424 69.3516ZM169.02 52.3008C167.707 52.3008 166.605 52.7812 165.715 53.7422C164.824 54.6914 164.273 56.0273 164.062 57.75H173.59V57.5039C173.496 55.8516 173.051 54.5742 172.254 53.6719C171.457 52.7578 170.379 52.3008 169.02 52.3008Z" fill="white"/>
<path d="M193.084 69H189.832V42H193.084V69Z" fill="white"/>
<path d="M210.047 69C209.859 68.625 209.707 67.957 209.59 66.9961C208.078 68.5664 206.273 69.3516 204.176 69.3516C202.301 69.3516 200.76 68.8242 199.553 67.7695C198.357 66.7031 197.76 65.3555 197.76 63.7266C197.76 61.7461 198.51 60.2109 200.01 59.1211C201.521 58.0195 203.643 57.4688 206.373 57.4688H209.537V55.9746C209.537 54.8379 209.197 53.9355 208.518 53.2676C207.838 52.5879 206.836 52.248 205.512 52.248C204.352 52.248 203.379 52.541 202.594 53.127C201.809 53.7129 201.416 54.4219 201.416 55.2539H198.146C198.146 54.3047 198.48 53.3906 199.148 52.5117C199.828 51.6211 200.742 50.918 201.891 50.4023C203.051 49.8867 204.322 49.6289 205.705 49.6289C207.896 49.6289 209.613 50.1797 210.855 51.2812C212.098 52.3711 212.742 53.877 212.789 55.7988V64.5527C212.789 66.2988 213.012 67.6875 213.457 68.7188V69H210.047ZM204.65 66.5215C205.67 66.5215 206.637 66.2578 207.551 65.7305C208.465 65.2031 209.127 64.5176 209.537 63.6738V59.7715H206.988C203.004 59.7715 201.012 60.9375 201.012 63.2695C201.012 64.2891 201.352 65.0859 202.031 65.6602C202.711 66.2344 203.584 66.5215 204.65 66.5215Z" fill="white"/>
<path d="M227.906 69V52.4941H224.9V49.9805H227.906V48.3633C227.906 46.2422 228.51 44.5898 229.717 43.4062C230.936 42.2227 232.652 41.6309 234.867 41.6309C236.18 41.6309 237.838 41.9883 239.842 42.7031L239.297 45.4453C237.832 44.8594 236.438 44.5664 235.113 44.5664C233.719 44.5664 232.711 44.8828 232.09 45.5156C231.48 46.1367 231.176 47.0742 231.176 48.3281V49.9805H235.061V52.4941H231.176V69H227.906ZM241.459 69H238.189V49.9805H241.459V69Z" fill="white"/>
<path d="M245.977 59.332C245.977 56.3672 246.662 54.0117 248.033 52.2656C249.404 50.5078 251.221 49.6289 253.482 49.6289C255.803 49.6289 257.613 50.4492 258.914 52.0898L259.072 49.9805H262.043V68.543C262.043 71.0039 261.311 72.9434 259.846 74.3613C258.393 75.7793 256.436 76.4883 253.975 76.4883C252.604 76.4883 251.262 76.1953 249.949 75.6094C248.637 75.0234 247.635 74.2207 246.943 73.2012L248.631 71.25C250.025 72.9727 251.73 73.834 253.746 73.834C255.328 73.834 256.559 73.3887 257.438 72.498C258.328 71.6074 258.773 70.3535 258.773 68.7363V67.1016C257.473 68.6016 255.697 69.3516 253.447 69.3516C251.221 69.3516 249.416 68.4551 248.033 66.6621C246.662 64.8691 245.977 62.4258 245.977 59.332ZM249.246 59.7012C249.246 61.8457 249.686 63.5332 250.564 64.7637C251.443 65.9824 252.674 66.5918 254.256 66.5918C256.307 66.5918 257.812 65.6602 258.773 63.7969V55.1133C257.777 53.2969 256.283 52.3887 254.291 52.3887C252.709 52.3887 251.473 53.0039 250.582 54.2344C249.691 55.4648 249.246 57.2871 249.246 59.7012Z" fill="white"/>
<path d="M278.707 67.1191C277.441 68.6074 275.584 69.3516 273.135 69.3516C271.107 69.3516 269.561 68.7656 268.494 67.5938C267.439 66.4102 266.906 64.6641 266.895 62.3555V49.9805H270.146V62.2676C270.146 65.1504 271.318 66.5918 273.662 66.5918C276.146 66.5918 277.799 65.666 278.619 63.8145V49.9805H281.871V69H278.777L278.707 67.1191Z" fill="white"/>
<path d="M296.021 52.8984C295.529 52.8164 294.996 52.7754 294.422 52.7754C292.289 52.7754 290.842 53.6836 290.08 55.5V69H286.828V49.9805H289.992L290.045 52.1777C291.111 50.4785 292.623 49.6289 294.58 49.6289C295.213 49.6289 295.693 49.7109 296.021 49.875V52.8984Z" fill="white"/>
<path d="M310.066 69C309.879 68.625 309.727 67.957 309.609 66.9961C308.098 68.5664 306.293 69.3516 304.195 69.3516C302.32 69.3516 300.779 68.8242 299.572 67.7695C298.377 66.7031 297.779 65.3555 297.779 63.7266C297.779 61.7461 298.529 60.2109 300.029 59.1211C301.541 58.0195 303.662 57.4688 306.393 57.4688H309.557V55.9746C309.557 54.8379 309.217 53.9355 308.537 53.2676C307.857 52.5879 306.855 52.248 305.531 52.248C304.371 52.248 303.398 52.541 302.613 53.127C301.828 53.7129 301.436 54.4219 301.436 55.2539H298.166C298.166 54.3047 298.5 53.3906 299.168 52.5117C299.848 51.6211 300.762 50.918 301.91 50.4023C303.07 49.8867 304.342 49.6289 305.725 49.6289C307.916 49.6289 309.633 50.1797 310.875 51.2812C312.117 52.3711 312.762 53.877 312.809 55.7988V64.5527C312.809 66.2988 313.031 67.6875 313.477 68.7188V69H310.066ZM304.67 66.5215C305.689 66.5215 306.656 66.2578 307.57 65.7305C308.484 65.2031 309.146 64.5176 309.557 63.6738V59.7715H307.008C303.023 59.7715 301.031 60.9375 301.031 63.2695C301.031 64.2891 301.371 65.0859 302.051 65.6602C302.73 66.2344 303.604 66.5215 304.67 66.5215Z" fill="white"/>
<path d="M326.045 59.332C326.045 56.3438 326.73 53.9824 328.102 52.248C329.473 50.502 331.312 49.6289 333.621 49.6289C335.871 49.6289 337.646 50.3848 338.947 51.8965L339.088 49.9805H342.076V76.3125H338.824V67.2422C337.512 68.6484 335.766 69.3516 333.586 69.3516C331.289 69.3516 329.455 68.4609 328.084 66.6797C326.725 64.8867 326.045 62.5137 326.045 59.5605V59.332ZM329.297 59.7012C329.297 61.8809 329.754 63.5918 330.668 64.834C331.594 66.0762 332.836 66.6973 334.395 66.6973C336.328 66.6973 337.805 65.8418 338.824 64.1309V54.8145C337.793 53.1387 336.328 52.3008 334.43 52.3008C332.859 52.3008 331.611 52.9277 330.686 54.1816C329.76 55.4238 329.297 57.2637 329.297 59.7012Z" fill="white"/>
<path d="M359.039 67.1191C357.773 68.6074 355.916 69.3516 353.467 69.3516C351.439 69.3516 349.893 68.7656 348.826 67.5938C347.771 66.4102 347.238 64.6641 347.227 62.3555V49.9805H350.479V62.2676C350.479 65.1504 351.65 66.5918 353.994 66.5918C356.479 66.5918 358.131 65.666 358.951 63.8145V49.9805H362.203V69H359.109L359.039 67.1191Z" fill="white"/>
<path d="M375.053 69.3516C372.475 69.3516 370.377 68.5078 368.76 66.8203C367.143 65.1211 366.334 62.8535 366.334 60.0176V59.4199C366.334 57.5332 366.691 55.8516 367.406 54.375C368.133 52.8867 369.141 51.7266 370.43 50.8945C371.73 50.0508 373.137 49.6289 374.648 49.6289C377.121 49.6289 379.043 50.4434 380.414 52.0723C381.785 53.7012 382.471 56.0332 382.471 59.0684V60.4219H369.586C369.633 62.2969 370.178 63.8145 371.221 64.9746C372.275 66.123 373.611 66.6973 375.229 66.6973C376.377 66.6973 377.35 66.4629 378.146 65.9941C378.943 65.5254 379.641 64.9043 380.238 64.1309L382.225 65.6777C380.631 68.127 378.24 69.3516 375.053 69.3516ZM374.648 52.3008C373.336 52.3008 372.234 52.7812 371.344 53.7422C370.453 54.6914 369.902 56.0273 369.691 57.75H379.219V57.5039C379.125 55.8516 378.68 54.5742 377.883 53.6719C377.086 52.7578 376.008 52.3008 374.648 52.3008Z" fill="white"/>
<path d="M406.254 63.9551C406.254 63.0762 405.92 62.3965 405.252 61.916C404.596 61.4238 403.441 61.002 401.789 60.6504C400.148 60.2988 398.842 59.877 397.869 59.3848C396.908 58.8926 396.193 58.3066 395.725 57.627C395.268 56.9473 395.039 56.1387 395.039 55.2012C395.039 53.6426 395.695 52.3242 397.008 51.2461C398.332 50.168 400.02 49.6289 402.07 49.6289C404.227 49.6289 405.973 50.1855 407.309 51.2988C408.656 52.4121 409.33 53.8359 409.33 55.5703H406.061C406.061 54.6797 405.68 53.9121 404.918 53.2676C404.168 52.623 403.219 52.3008 402.07 52.3008C400.887 52.3008 399.961 52.5586 399.293 53.0742C398.625 53.5898 398.291 54.2637 398.291 55.0957C398.291 55.8809 398.602 56.4727 399.223 56.8711C399.844 57.2695 400.963 57.6504 402.58 58.0137C404.209 58.377 405.527 58.8105 406.535 59.3145C407.543 59.8184 408.287 60.4277 408.768 61.1426C409.26 61.8457 409.506 62.707 409.506 63.7266C409.506 65.4258 408.826 66.791 407.467 67.8223C406.107 68.8418 404.344 69.3516 402.176 69.3516C400.652 69.3516 399.305 69.082 398.133 68.543C396.961 68.0039 396.041 67.2539 395.373 66.293C394.717 65.3203 394.389 64.2715 394.389 63.1465H397.641C397.699 64.2363 398.133 65.1035 398.941 65.748C399.762 66.3809 400.84 66.6973 402.176 66.6973C403.406 66.6973 404.391 66.4512 405.129 65.959C405.879 65.4551 406.254 64.7871 406.254 63.9551Z" fill="white"/>
<path d="M417.275 69H414.023V49.9805H417.275V69ZM413.76 44.9355C413.76 44.4082 413.918 43.9629 414.234 43.5996C414.562 43.2363 415.043 43.0547 415.676 43.0547C416.309 43.0547 416.789 43.2363 417.117 43.5996C417.445 43.9629 417.609 44.4082 417.609 44.9355C417.609 45.4629 417.445 45.9023 417.117 46.2539C416.789 46.6055 416.309 46.7812 415.676 46.7812C415.043 46.7812 414.562 46.6055 414.234 46.2539C413.918 45.9023 413.76 45.4629 413.76 44.9355Z" fill="white"/>
<path d="M421.723 59.332C421.723 56.3672 422.408 54.0117 423.779 52.2656C425.15 50.5078 426.967 49.6289 429.229 49.6289C431.549 49.6289 433.359 50.4492 434.66 52.0898L434.818 49.9805H437.789V68.543C437.789 71.0039 437.057 72.9434 435.592 74.3613C434.139 75.7793 432.182 76.4883 429.721 76.4883C428.35 76.4883 427.008 76.1953 425.695 75.6094C424.383 75.0234 423.381 74.2207 422.689 73.2012L424.377 71.25C425.771 72.9727 427.477 73.834 429.492 73.834C431.074 73.834 432.305 73.3887 433.184 72.498C434.074 71.6074 434.52 70.3535 434.52 68.7363V67.1016C433.219 68.6016 431.443 69.3516 429.193 69.3516C426.967 69.3516 425.162 68.4551 423.779 66.6621C422.408 64.8691 421.723 62.4258 421.723 59.332ZM424.992 59.7012C424.992 61.8457 425.432 63.5332 426.311 64.7637C427.189 65.9824 428.42 66.5918 430.002 66.5918C432.053 66.5918 433.559 65.6602 434.52 63.7969V55.1133C433.523 53.2969 432.029 52.3887 430.037 52.3887C428.455 52.3887 427.219 53.0039 426.328 54.2344C425.438 55.4648 424.992 57.2871 424.992 59.7012Z" fill="white"/>
<path d="M454.453 67.1191C453.188 68.6074 451.33 69.3516 448.881 69.3516C446.854 69.3516 445.307 68.7656 444.24 67.5938C443.186 66.4102 442.652 64.6641 442.641 62.3555V49.9805H445.893V62.2676C445.893 65.1504 447.064 66.5918 449.408 66.5918C451.893 66.5918 453.545 65.666 454.365 63.8145V49.9805H457.617V69H454.523L454.453 67.1191Z" fill="white"/>
<path d="M470.467 69.3516C467.889 69.3516 465.791 68.5078 464.174 66.8203C462.557 65.1211 461.748 62.8535 461.748 60.0176V59.4199C461.748 57.5332 462.105 55.8516 462.82 54.375C463.547 52.8867 464.555 51.7266 465.844 50.8945C467.145 50.0508 468.551 49.6289 470.062 49.6289C472.535 49.6289 474.457 50.4434 475.828 52.0723C477.199 53.7012 477.885 56.0332 477.885 59.0684V60.4219H465C465.047 62.2969 465.592 63.8145 466.635 64.9746C467.689 66.123 469.025 66.6973 470.643 66.6973C471.791 66.6973 472.764 66.4629 473.561 65.9941C474.357 65.5254 475.055 64.9043 475.652 64.1309L477.639 65.6777C476.045 68.127 473.654 69.3516 470.467 69.3516ZM470.062 52.3008C468.75 52.3008 467.648 52.7812 466.758 53.7422C465.867 54.6914 465.316 56.0273 465.105 57.75H474.633V57.5039C474.539 55.8516 474.094 54.5742 473.297 53.6719C472.5 52.7578 471.422 52.3008 470.062 52.3008Z" fill="white"/>
<path d="M498.486 69.3516C495.908 69.3516 493.811 68.5078 492.193 66.8203C490.576 65.1211 489.768 62.8535 489.768 60.0176V59.4199C489.768 57.5332 490.125 55.8516 490.84 54.375C491.566 52.8867 492.574 51.7266 493.863 50.8945C495.164 50.0508 496.57 49.6289 498.082 49.6289C500.555 49.6289 502.477 50.4434 503.848 52.0723C505.219 53.7012 505.904 56.0332 505.904 59.0684V60.4219H493.02C493.066 62.2969 493.611 63.8145 494.654 64.9746C495.709 66.123 497.045 66.6973 498.662 66.6973C499.811 66.6973 500.783 66.4629 501.58 65.9941C502.377 65.5254 503.074 64.9043 503.672 64.1309L505.658 65.6777C504.064 68.127 501.674 69.3516 498.486 69.3516ZM498.082 52.3008C496.77 52.3008 495.668 52.7812 494.777 53.7422C493.887 54.6914 493.336 56.0273 493.125 57.75H502.652V57.5039C502.559 55.8516 502.113 54.5742 501.316 53.6719C500.52 52.7578 499.441 52.3008 498.082 52.3008Z" fill="white"/>
<path d="M512.76 49.9805L512.865 52.3711C514.318 50.543 516.217 49.6289 518.561 49.6289C522.58 49.6289 524.607 51.8965 524.643 56.4316V69H521.391V56.4141C521.379 55.043 521.062 54.0293 520.441 53.373C519.832 52.7168 518.877 52.3887 517.576 52.3887C516.521 52.3887 515.596 52.6699 514.799 53.2324C514.002 53.7949 513.381 54.5332 512.936 55.4473V69H509.684V49.9805H512.76Z" fill="white"/>
<path d="M542.01 69H538.758V42H542.01V69Z" fill="white"/>
<path d="M558.973 69C558.785 68.625 558.633 67.957 558.516 66.9961C557.004 68.5664 555.199 69.3516 553.102 69.3516C551.227 69.3516 549.686 68.8242 548.479 67.7695C547.283 66.7031 546.686 65.3555 546.686 63.7266C546.686 61.7461 547.436 60.2109 548.936 59.1211C550.447 58.0195 552.568 57.4688 555.299 57.4688H558.463V55.9746C558.463 54.8379 558.123 53.9355 557.443 53.2676C556.764 52.5879 555.762 52.248 554.438 52.248C553.277 52.248 552.305 52.541 551.52 53.127C550.734 53.7129 550.342 54.4219 550.342 55.2539H547.072C547.072 54.3047 547.406 53.3906 548.074 52.5117C548.754 51.6211 549.668 50.918 550.816 50.4023C551.977 49.8867 553.248 49.6289 554.631 49.6289C556.822 49.6289 558.539 50.1797 559.781 51.2812C561.023 52.3711 561.668 53.877 561.715 55.7988V64.5527C561.715 66.2988 561.938 67.6875 562.383 68.7188V69H558.973ZM553.576 66.5215C554.596 66.5215 555.562 66.2578 556.477 65.7305C557.391 65.2031 558.053 64.5176 558.463 63.6738V59.7715H555.914C551.93 59.7715 549.938 60.9375 549.938 63.2695C549.938 64.2891 550.277 65.0859 550.957 65.6602C551.637 66.2344 552.51 66.5215 553.576 66.5215Z" fill="white"/>
<path d="M586.816 63.9551C586.816 63.0762 586.482 62.3965 585.814 61.916C585.158 61.4238 584.004 61.002 582.352 60.6504C580.711 60.2988 579.404 59.877 578.432 59.3848C577.471 58.8926 576.756 58.3066 576.287 57.627C575.83 56.9473 575.602 56.1387 575.602 55.2012C575.602 53.6426 576.258 52.3242 577.57 51.2461C578.895 50.168 580.582 49.6289 582.633 49.6289C584.789 49.6289 586.535 50.1855 587.871 51.2988C589.219 52.4121 589.893 53.8359 589.893 55.5703H586.623C586.623 54.6797 586.242 53.9121 585.48 53.2676C584.73 52.623 583.781 52.3008 582.633 52.3008C581.449 52.3008 580.523 52.5586 579.855 53.0742C579.188 53.5898 578.854 54.2637 578.854 55.0957C578.854 55.8809 579.164 56.4727 579.785 56.8711C580.406 57.2695 581.525 57.6504 583.143 58.0137C584.771 58.377 586.09 58.8105 587.098 59.3145C588.105 59.8184 588.85 60.4277 589.33 61.1426C589.822 61.8457 590.068 62.707 590.068 63.7266C590.068 65.4258 589.389 66.791 588.029 67.8223C586.67 68.8418 584.906 69.3516 582.738 69.3516C581.215 69.3516 579.867 69.082 578.695 68.543C577.523 68.0039 576.604 67.2539 575.936 66.293C575.279 65.3203 574.951 64.2715 574.951 63.1465H578.203C578.262 64.2363 578.695 65.1035 579.504 65.748C580.324 66.3809 581.402 66.6973 582.738 66.6973C583.969 66.6973 584.953 66.4512 585.691 65.959C586.441 65.4551 586.816 64.7871 586.816 63.9551Z" fill="white"/>
<path d="M602.197 69.3516C599.619 69.3516 597.521 68.5078 595.904 66.8203C594.287 65.1211 593.479 62.8535 593.479 60.0176V59.4199C593.479 57.5332 593.836 55.8516 594.551 54.375C595.277 52.8867 596.285 51.7266 597.574 50.8945C598.875 50.0508 600.281 49.6289 601.793 49.6289C604.266 49.6289 606.188 50.4434 607.559 52.0723C608.93 53.7012 609.615 56.0332 609.615 59.0684V60.4219H596.73C596.777 62.2969 597.322 63.8145 598.365 64.9746C599.42 66.123 600.756 66.6973 602.373 66.6973C603.521 66.6973 604.494 66.4629 605.291 65.9941C606.088 65.5254 606.785 64.9043 607.383 64.1309L609.369 65.6777C607.775 68.127 605.385 69.3516 602.197 69.3516ZM601.793 52.3008C600.48 52.3008 599.379 52.7812 598.488 53.7422C597.598 54.6914 597.047 56.0273 596.836 57.75H606.363V57.5039C606.27 55.8516 605.824 54.5742 605.027 53.6719C604.23 52.7578 603.152 52.3008 601.793 52.3008Z" fill="white"/>
<path d="M622.588 52.8984C622.096 52.8164 621.562 52.7754 620.988 52.7754C618.855 52.7754 617.408 53.6836 616.646 55.5V69H613.395V49.9805H616.559L616.611 52.1777C617.678 50.4785 619.189 49.6289 621.146 49.6289C621.779 49.6289 622.26 49.7109 622.588 49.875V52.8984Z" fill="white"/>
<path d="M629.127 69H625.875V49.9805H629.127V69ZM625.611 44.9355C625.611 44.4082 625.77 43.9629 626.086 43.5996C626.414 43.2363 626.895 43.0547 627.527 43.0547C628.16 43.0547 628.641 43.2363 628.969 43.5996C629.297 43.9629 629.461 44.4082 629.461 44.9355C629.461 45.4629 629.297 45.9023 628.969 46.2539C628.641 46.6055 628.16 46.7812 627.527 46.7812C626.895 46.7812 626.414 46.6055 626.086 46.2539C625.77 45.9023 625.611 45.4629 625.611 44.9355Z" fill="white"/>
<path d="M642.24 69.3516C639.662 69.3516 637.564 68.5078 635.947 66.8203C634.33 65.1211 633.521 62.8535 633.521 60.0176V59.4199C633.521 57.5332 633.879 55.8516 634.594 54.375C635.32 52.8867 636.328 51.7266 637.617 50.8945C638.918 50.0508 640.324 49.6289 641.836 49.6289C644.309 49.6289 646.23 50.4434 647.602 52.0723C648.973 53.7012 649.658 56.0332 649.658 59.0684V60.4219H636.773C636.82 62.2969 637.365 63.8145 638.408 64.9746C639.463 66.123 640.799 66.6973 642.416 66.6973C643.564 66.6973 644.537 66.4629 645.334 65.9941C646.131 65.5254 646.828 64.9043 647.426 64.1309L649.412 65.6777C647.818 68.127 645.428 69.3516 642.24 69.3516ZM641.836 52.3008C640.523 52.3008 639.422 52.7812 638.531 53.7422C637.641 54.6914 637.09 56.0273 636.879 57.75H646.406V57.5039C646.312 55.8516 645.867 54.5742 645.07 53.6719C644.273 52.7578 643.195 52.3008 641.836 52.3008Z" fill="white"/>
<path d="M665.426 49.9805L665.514 52.0898C666.908 50.4492 668.789 49.6289 671.156 49.6289C673.816 49.6289 675.627 50.6484 676.588 52.6875C677.221 51.7734 678.041 51.0352 679.049 50.4727C680.068 49.9102 681.27 49.6289 682.652 49.6289C686.824 49.6289 688.945 51.8379 689.016 56.2559V69H685.764V56.4492C685.764 55.0898 685.453 54.0762 684.832 53.4082C684.211 52.7285 683.168 52.3887 681.703 52.3887C680.496 52.3887 679.494 52.752 678.697 53.4785C677.9 54.1934 677.438 55.1602 677.309 56.3789V69H674.039V56.5371C674.039 53.7715 672.686 52.3887 669.979 52.3887C667.846 52.3887 666.387 53.2969 665.602 55.1133V69H662.35V49.9805H665.426Z" fill="white"/>
<path d="M693.076 59.3145C693.076 57.4512 693.439 55.7754 694.166 54.2871C694.904 52.7988 695.924 51.6504 697.225 50.8418C698.537 50.0332 700.031 49.6289 701.707 49.6289C704.297 49.6289 706.389 50.5254 707.982 52.3184C709.588 54.1113 710.391 56.4961 710.391 59.4727V59.7012C710.391 61.5527 710.033 63.2168 709.318 64.6934C708.615 66.1582 707.602 67.3008 706.277 68.1211C704.965 68.9414 703.453 69.3516 701.742 69.3516C699.164 69.3516 697.072 68.4551 695.467 66.6621C693.873 64.8691 693.076 62.4961 693.076 59.543V59.3145ZM696.346 59.7012C696.346 61.8105 696.832 63.5039 697.805 64.7812C698.789 66.0586 700.102 66.6973 701.742 66.6973C703.395 66.6973 704.707 66.0527 705.68 64.7637C706.652 63.4629 707.139 61.6465 707.139 59.3145C707.139 57.2285 706.641 55.541 705.645 54.252C704.66 52.9512 703.348 52.3008 701.707 52.3008C700.102 52.3008 698.807 52.9395 697.822 54.2168C696.838 55.4941 696.346 57.3223 696.346 59.7012Z" fill="white"/>
<path d="M725.543 63.9551C725.543 63.0762 725.209 62.3965 724.541 61.916C723.885 61.4238 722.73 61.002 721.078 60.6504C719.438 60.2988 718.131 59.877 717.158 59.3848C716.197 58.8926 715.482 58.3066 715.014 57.627C714.557 56.9473 714.328 56.1387 714.328 55.2012C714.328 53.6426 714.984 52.3242 716.297 51.2461C717.621 50.168 719.309 49.6289 721.359 49.6289C723.516 49.6289 725.262 50.1855 726.598 51.2988C727.945 52.4121 728.619 53.8359 728.619 55.5703H725.35C725.35 54.6797 724.969 53.9121 724.207 53.2676C723.457 52.623 722.508 52.3008 721.359 52.3008C720.176 52.3008 719.25 52.5586 718.582 53.0742C717.914 53.5898 717.58 54.2637 717.58 55.0957C717.58 55.8809 717.891 56.4727 718.512 56.8711C719.133 57.2695 720.252 57.6504 721.869 58.0137C723.498 58.377 724.816 58.8105 725.824 59.3145C726.832 59.8184 727.576 60.4277 728.057 61.1426C728.549 61.8457 728.795 62.707 728.795 63.7266C728.795 65.4258 728.115 66.791 726.756 67.8223C725.396 68.8418 723.633 69.3516 721.465 69.3516C719.941 69.3516 718.594 69.082 717.422 68.543C716.25 68.0039 715.33 67.2539 714.662 66.293C714.006 65.3203 713.678 64.2715 713.678 63.1465H716.93C716.988 64.2363 717.422 65.1035 718.23 65.748C719.051 66.3809 720.129 66.6973 721.465 66.6973C722.695 66.6973 723.68 66.4512 724.418 65.959C725.168 65.4551 725.543 64.7871 725.543 63.9551Z" fill="white"/>
<path d="M737.443 45.375V49.9805H740.994V52.4941H737.443V64.2891C737.443 65.0508 737.602 65.625 737.918 66.0117C738.234 66.3867 738.773 66.5742 739.535 66.5742C739.91 66.5742 740.426 66.5039 741.082 66.3633V69C740.227 69.2344 739.395 69.3516 738.586 69.3516C737.133 69.3516 736.037 68.9121 735.299 68.0332C734.561 67.1543 734.191 65.9062 734.191 64.2891V52.4941H730.729V49.9805H734.191V45.375H737.443Z" fill="white"/>
<path d="M754.002 52.8984C753.51 52.8164 752.977 52.7754 752.402 52.7754C750.27 52.7754 748.822 53.6836 748.061 55.5V69H744.809V49.9805H747.973L748.025 52.1777C749.092 50.4785 750.604 49.6289 752.561 49.6289C753.193 49.6289 753.674 49.7109 754.002 49.875V52.8984Z" fill="white"/>
<path d="M768.047 69C767.859 68.625 767.707 67.957 767.59 66.9961C766.078 68.5664 764.273 69.3516 762.176 69.3516C760.301 69.3516 758.76 68.8242 757.553 67.7695C756.357 66.7031 755.76 65.3555 755.76 63.7266C755.76 61.7461 756.51 60.2109 758.01 59.1211C759.521 58.0195 761.643 57.4688 764.373 57.4688H767.537V55.9746C767.537 54.8379 767.197 53.9355 766.518 53.2676C765.838 52.5879 764.836 52.248 763.512 52.248C762.352 52.248 761.379 52.541 760.594 53.127C759.809 53.7129 759.416 54.4219 759.416 55.2539H756.146C756.146 54.3047 756.48 53.3906 757.148 52.5117C757.828 51.6211 758.742 50.918 759.891 50.4023C761.051 49.8867 762.322 49.6289 763.705 49.6289C765.896 49.6289 767.613 50.1797 768.855 51.2812C770.098 52.3711 770.742 53.877 770.789 55.7988V64.5527C770.789 66.2988 771.012 67.6875 771.457 68.7188V69H768.047ZM762.65 66.5215C763.67 66.5215 764.637 66.2578 765.551 65.7305C766.465 65.2031 767.127 64.5176 767.537 63.6738V59.7715H764.988C761.004 59.7715 759.012 60.9375 759.012 63.2695C759.012 64.2891 759.352 65.0859 760.031 65.6602C760.711 66.2344 761.584 66.5215 762.65 66.5215Z" fill="white"/>
<path d="M775.096 59.332C775.096 56.4141 775.787 54.0703 777.17 52.3008C778.553 50.5195 780.363 49.6289 782.602 49.6289C784.828 49.6289 786.592 50.3906 787.893 51.9141V42H791.145V69H788.156L787.998 66.9609C786.697 68.5547 784.887 69.3516 782.566 69.3516C780.363 69.3516 778.564 68.4492 777.17 66.6445C775.787 64.8398 775.096 62.4844 775.096 59.5781V59.332ZM778.348 59.7012C778.348 61.8574 778.793 63.5449 779.684 64.7637C780.574 65.9824 781.805 66.5918 783.375 66.5918C785.438 66.5918 786.943 65.666 787.893 63.8145V55.0781C786.92 53.2852 785.426 52.3887 783.41 52.3887C781.816 52.3887 780.574 53.0039 779.684 54.2344C778.793 55.4648 778.348 57.2871 778.348 59.7012Z" fill="white"/>
<path d="M807.949 69C807.762 68.625 807.609 67.957 807.492 66.9961C805.98 68.5664 804.176 69.3516 802.078 69.3516C800.203 69.3516 798.662 68.8242 797.455 67.7695C796.26 66.7031 795.662 65.3555 795.662 63.7266C795.662 61.7461 796.412 60.2109 797.912 59.1211C799.424 58.0195 801.545 57.4688 804.275 57.4688H807.439V55.9746C807.439 54.8379 807.1 53.9355 806.42 53.2676C805.74 52.5879 804.738 52.248 803.414 52.248C802.254 52.248 801.281 52.541 800.496 53.127C799.711 53.7129 799.318 54.4219 799.318 55.2539H796.049C796.049 54.3047 796.383 53.3906 797.051 52.5117C797.73 51.6211 798.645 50.918 799.793 50.4023C800.953 49.8867 802.225 49.6289 803.607 49.6289C805.799 49.6289 807.516 50.1797 808.758 51.2812C810 52.3711 810.645 53.877 810.691 55.7988V64.5527C810.691 66.2988 810.914 67.6875 811.359 68.7188V69H807.949ZM802.553 66.5215C803.572 66.5215 804.539 66.2578 805.453 65.7305C806.367 65.2031 807.029 64.5176 807.439 63.6738V59.7715H804.891C800.906 59.7715 798.914 60.9375 798.914 63.2695C798.914 64.2891 799.254 65.0859 799.934 65.6602C800.613 66.2344 801.486 66.5215 802.553 66.5215Z" fill="white"/>
</g>
<g id="Group 257">
<path id="Union" fill-rule="evenodd" clip-rule="evenodd" d="M278 262V226.5H240.5V262H278ZM317.75 223.5H281V186.312C293.25 186.332 305.782 186.357 317.75 186.385V223.5ZM278 223.5V186.308C272.12 186.3 266.321 186.292 260.699 186.288C253.624 186.281 246.828 186.278 240.5 186.279V223.5H278ZM298.402 183.343C292.598 183.332 286.768 183.322 281 183.312V146.5H317.75V183.385C311.417 183.371 304.926 183.356 298.402 183.343ZM278 183.308V146.5H240.5V183.279C246.83 183.278 253.626 183.281 260.701 183.288C266.323 183.292 272.121 183.3 278 183.308ZM317.75 143.5H281V108H317.75V143.5ZM278 143.5V108H240.5V143.5H278ZM279.5 105H278H240.5H239H237.5H202H199V108V143.5V145V146.5V183.494V185V223.5V225V226.5V262V265H202H237.5H239H240.5H278H279H279.5H281H317.75H319H319.25H320.75H356H359V262V226.5V225V223.5V185V183.5V146.5V145V143.5V108V105H356H320.75H319.25H317.75H281H279.5ZM202 146.5H237.5V183.28C232.931 183.282 228.634 183.286 224.685 183.293C222.34 183.297 220.117 183.302 218.033 183.308C214.554 183.318 211.461 183.331 208.829 183.346C207.267 183.356 205.868 183.367 204.646 183.378C203.642 183.388 202.757 183.399 202 183.41V146.5ZM231.341 186.284C233.331 186.282 235.386 186.281 237.5 186.28V223.5H202V186.41C202.759 186.399 203.653 186.388 204.675 186.378C207.944 186.347 212.499 186.324 218.042 186.308L221.837 186.298L225.761 186.291C227.555 186.288 229.417 186.286 231.341 186.284ZM356 262H320.75V226.5H356V262ZM356 223.5H320.75V186.393C333.601 186.424 345.709 186.458 356 186.49V223.5ZM356 183.49C345.708 183.458 333.601 183.424 320.75 183.393V146.5H356V183.49ZM356 143.5H320.75V108H356V143.5Z" fill="white"/>
<path id="Union_2" fill-rule="evenodd" clip-rule="evenodd" d="M617.5 143.5V108H582V143.5H617.5ZM617.5 146.5H582V183.41C582.757 183.399 583.642 183.388 584.646 183.378C587.925 183.347 592.489 183.324 598.033 183.308C599.901 183.302 601.88 183.298 603.959 183.294C608.105 183.287 612.649 183.282 617.5 183.28V146.5ZM620.5 183.279V146.5H658V183.308C652.121 183.3 646.323 183.292 640.701 183.288C638.31 183.285 635.95 183.284 633.63 183.282L628.697 183.28C625.892 183.279 623.155 183.279 620.5 183.279ZM617.5 186.28C610.219 186.283 603.63 186.292 598.042 186.308C592.499 186.324 587.944 186.347 584.675 186.378C584.104 186.384 583.572 186.389 583.082 186.396C582.695 186.4 582.334 186.405 582 186.41V223.5H617.5V186.28ZM620.5 223.5V186.279C623.127 186.279 625.834 186.279 628.609 186.28C632.518 186.281 636.561 186.284 640.699 186.288C646.321 186.292 652.12 186.3 658 186.308V223.5H620.5ZM617.5 226.5H582V262H617.5V226.5ZM620.5 262V226.5H658V262H620.5ZM620.5 265H619H617.5H582H579V262V226.5V225V223.5V185V183.494V146.5V145V143.5V108V105H582H617.5H619H620.5H658H659H659.5H661H697.75H699H699.25H700.75H736H739V108V143.5V145V146.5V183.5V185V223.5V225V226.5V262V265H736H700.75H699.25H697.75H661H659.5H658H620.5ZM661 262H697.75V226.5H661V262ZM661 223.5H697.75V186.385C685.782 186.357 673.25 186.332 661 186.312V223.5ZM658 108H620.5V143.5H658V108ZM700.75 108V143.5H736V108H700.75ZM736 146.5H700.75V183.393C708.191 183.411 715.383 183.43 722.117 183.449C727.013 183.463 731.667 183.477 736 183.49V146.5ZM736 186.49C725.709 186.458 713.601 186.424 700.75 186.393V223.5H736V186.49ZM736 226.5H700.75V262H736V226.5Z" fill="white"/>
<path id="Union_3" fill-rule="evenodd" clip-rule="evenodd" d="M427.5 108V143.5H392V108H427.5ZM392 146.5H427.5V183.28C420.217 183.283 413.625 183.292 408.033 183.308C405.064 183.316 402.376 183.327 400.017 183.34C397.97 183.351 396.169 183.364 394.646 183.378C393.642 183.388 392.757 183.399 392 183.41V146.5ZM430.5 146.5V183.279C436.83 183.278 443.626 183.281 450.701 183.288C456.323 183.292 462.121 183.3 468 183.308V146.5H430.5ZM408.042 186.308C413.63 186.292 420.219 186.283 427.5 186.28V223.5H392V186.41C392.344 186.405 392.715 186.4 393.114 186.395C393.595 186.389 394.116 186.384 394.675 186.378C397.944 186.347 402.499 186.324 408.042 186.308ZM392 226.5H427.5V262H392V226.5ZM430.5 226.5V262H468V226.5H430.5ZM429 265H430.5H468H469.5H471H507.75H509.25H510.75H546H549V262V226.5V225V223.5V185V183.5V146.5V145V143.5V108V105H546H510.75H509.25H509H507.75H471H469.5H469H468H430.5H429H427.5H392H389V108V143.5V145V146.5V183.494V185V223.5V225V226.5V262V265H392H427.5H429ZM507.75 262H471V226.5H507.75V262ZM507.75 183.385C495.782 183.357 483.25 183.332 471 183.312V146.5H507.75V183.385ZM430.5 108H468V143.5H430.5V108ZM510.75 143.5V108H546V143.5H510.75ZM510.75 146.5H546V183.49C535.708 183.458 523.601 183.424 510.75 183.393V146.5ZM535.3 186.458L546 186.49V223.5H510.75V186.393C519.376 186.414 527.668 186.436 535.3 186.458ZM510.75 226.5H546V262H510.75V226.5Z" fill="white"/>
</g>
</g>
<g id="claves">
<g id="Group 21">
<g id="Group 237">
<path id="Rectangle 4" d="M53 338H269.745L303 418L269.745 498H53V338Z" fill="#CD08D1" fill-opacity="0.1"/>
<path id="Rectangle 4 (Stroke)" fill-rule="evenodd" clip-rule="evenodd" d="M268.338 344H56V492H268.338L299.099 418L268.338 344ZM269.745 338H53V498H269.745L303 418L269.745 338Z" fill="#CD08D1"/>
</g>
<g id="Group 238">
<path id="Ellipse 1" d="M94 418C94 440.658 76.0914 459.026 54 459.026C31.9086 459.026 14 440.658 14 418C14 395.342 31.9086 376.974 54 376.974C76.0914 376.974 94 395.342 94 418Z" fill="#CD08D1"/>
<path id="A" d="M62.0938 428.673H44.4688L40.7812 439.538H32.5625L49.75 392.872H56.8438L74.0625 439.538H65.8125L62.0938 428.673ZM46.6875 422.135H59.875L53.2812 402.776L46.6875 422.135Z" fill="white"/>
</g>
</g>
<g id="Group 17">
<g id="Group 239">
<path id="Rectangle 5" d="M396 338H612.745L646 418L612.745 498H396V338Z" fill="#CD08D1" fill-opacity="0.1"/>
<path id="Rectangle 5 (Stroke)" fill-rule="evenodd" clip-rule="evenodd" d="M611.338 344H399V492H611.338L642.099 418L611.338 344ZM612.745 338H396V498H612.745L646 418L612.745 338Z" fill="#CD08D1"/>
</g>
<g id="Group 240">
<path id="Ellipse 2" d="M432 420C432 442.091 414.091 460 392 460C369.909 460 352 442.091 352 420C352 397.909 369.909 380 392 380C414.091 380 432 397.909 432 420Z" fill="#CD08D1"/>
<path id="B" d="M375.625 436V390.5H391.219C396.365 390.5 400.281 391.531 402.969 393.594C405.656 395.656 407 398.729 407 402.812C407 404.896 406.438 406.771 405.312 408.438C404.188 410.104 402.542 411.396 400.375 412.312C402.833 412.979 404.729 414.24 406.062 416.094C407.417 417.927 408.094 420.135 408.094 422.719C408.094 426.99 406.719 430.271 403.969 432.562C401.24 434.854 397.323 436 392.219 436H375.625ZM383.531 415.469V429.688H392.312C394.792 429.688 396.729 429.073 398.125 427.844C399.521 426.615 400.219 424.906 400.219 422.719C400.219 417.99 397.802 415.573 392.969 415.469H383.531ZM383.531 409.656H391.281C393.74 409.656 395.656 409.104 397.031 408C398.427 406.875 399.125 405.292 399.125 403.25C399.125 401 398.479 399.375 397.188 398.375C395.917 397.375 393.927 396.875 391.219 396.875H383.531V409.656Z" fill="white"/>
</g>
</g>
<g id="Group 18">
<g id="Group 241">
<path id="Rectangle 6" d="M735 430H951.745L985 510L951.745 590H735V430Z" fill="#CD08D1" fill-opacity="0.1"/>
<path id="Rectangle 6 (Stroke)" fill-rule="evenodd" clip-rule="evenodd" d="M950.338 436H738V584H950.338L981.099 510L950.338 436ZM951.745 430H735V590H951.745L985 510L951.745 430Z" fill="#CD08D1"/>
</g>
<g id="Group 242">
<path id="Ellipse 3" d="M775 510C775 532.091 757.091 550 735 550C712.909 550 695 532.091 695 510C695 487.909 712.909 470 735 470C757.091 470 775 487.909 775 510Z" fill="#CD08D1"/>
<path id="C" d="M752.344 517.188C751.885 522.042 750.094 525.833 746.969 528.562C743.844 531.271 739.688 532.625 734.5 532.625C730.875 532.625 727.677 531.771 724.906 530.062C722.156 528.333 720.031 525.885 718.531 522.719C717.031 519.552 716.25 515.875 716.188 511.688V507.438C716.188 503.146 716.948 499.365 718.469 496.094C719.99 492.823 722.167 490.302 725 488.531C727.854 486.76 731.146 485.875 734.875 485.875C739.896 485.875 743.938 487.24 747 489.969C750.062 492.698 751.844 496.552 752.344 501.531H744.469C744.094 498.26 743.135 495.906 741.594 494.469C740.073 493.01 737.833 492.281 734.875 492.281C731.438 492.281 728.792 493.542 726.938 496.062C725.104 498.562 724.167 502.24 724.125 507.094V511.125C724.125 516.042 725 519.792 726.75 522.375C728.521 524.958 731.104 526.25 734.5 526.25C737.604 526.25 739.938 525.552 741.5 524.156C743.062 522.76 744.052 520.438 744.469 517.188H752.344Z" fill="white"/>
</g>
</g>
<g id="Group 19">
<g id="Group 243">
<path id="Rectangle 7" d="M53 522H269.745L303 602L269.745 682H53V522Z" fill="#CD08D1" fill-opacity="0.1"/>
<path id="Rectangle 7 (Stroke)" fill-rule="evenodd" clip-rule="evenodd" d="M268.338 528H56V676H268.338L299.099 602L268.338 528ZM269.745 522H53V682H269.745L303 602L269.745 522Z" fill="#CD08D1"/>
</g>
<g id="Group 244">
<path id="Ellipse 4" d="M94 602C94 624.091 76.0914 642 54 642C31.9086 642 14 624.091 14 602C14 579.909 31.9086 562 54 562C76.0914 562 94 579.909 94 602Z" fill="#CD08D1"/>
<path id="D" d="M36.625 624V578.5H50.0625C54.0833 578.5 57.6458 579.396 60.75 581.188C63.875 582.979 66.2917 585.521 68 588.812C69.7083 592.104 70.5625 595.875 70.5625 600.125V602.406C70.5625 606.719 69.6979 610.51 67.9688 613.781C66.2604 617.052 63.8125 619.573 60.625 621.344C57.4583 623.115 53.8229 624 49.7188 624H36.625ZM44.5312 584.875V617.688H49.6875C53.8333 617.688 57.0104 616.396 59.2188 613.812C61.4479 611.208 62.5833 607.479 62.625 602.625V600.094C62.625 595.156 61.5521 591.385 59.4062 588.781C57.2604 586.177 54.1458 584.875 50.0625 584.875H44.5312Z" fill="white"/>
</g>
</g>
<g id="Group 20">
<g id="Group 246">
<path id="Rectangle 8" d="M396 521H612.745L646 601L612.745 681H396V521Z" fill="#CD08D1" fill-opacity="0.1"/>
<path id="Rectangle 8 (Stroke)" fill-rule="evenodd" clip-rule="evenodd" d="M611.338 527H399V675H611.338L642.099 601L611.338 527ZM612.745 521H396V681H612.745L646 601L612.745 521Z" fill="#CD08D1"/>
</g>
<g id="Group 245">
<path id="Ellipse 5" d="M437 602C437 624.091 419.091 642 397 642C374.909 642 357 624.091 357 602C357 579.909 374.909 562 397 562C419.091 562 437 579.909 437 602Z" fill="#CD08D1"/>
<path id="E" d="M406.219 603.688H387.531V617.688H409.375V624H379.625V578.5H409.156V584.875H387.531V597.438H406.219V603.688Z" fill="white"/>
</g>
</g>
<g id="Group 264">
<g id="Group 258">
<path id="Rectangle 115 (Stroke)" fill-rule="evenodd" clip-rule="evenodd" d="M172.938 452.5V483H204.719V452.5H172.938ZM169.938 452.5V483H137.5V452.5H169.938ZM172.938 449.5H204.719V417.399C194.364 417.375 183.533 417.353 172.938 417.336V449.5ZM169.938 417.332V449.5H137.5V417.307C142.984 417.306 148.866 417.309 154.986 417.314C159.846 417.318 164.857 417.324 169.938 417.332ZM172.938 414.336C183.533 414.353 194.364 414.375 204.719 414.399V382.5H172.938V414.336ZM169.938 382.5V414.332C164.858 414.324 159.848 414.318 154.989 414.314C148.868 414.309 142.985 414.306 137.5 414.307V382.5H169.938ZM172.938 379.5H204.719V349H172.938V379.5ZM169.938 349V379.5H137.5V349H169.938ZM241 346V486H101V346H241ZM134.5 349H104V379.5H134.5V349ZM134.5 382.5H104V414.416C104.574 414.408 105.222 414.401 105.939 414.394C108.808 414.366 112.802 414.346 117.654 414.332C122.498 414.318 128.201 414.31 134.5 414.308V382.5ZM134.5 417.308C128.204 417.31 122.504 417.318 117.662 417.332C112.812 417.346 108.827 417.366 105.968 417.393C105.236 417.401 104.578 417.408 104 417.416V449.5H134.5V417.308ZM134.5 452.5V483H104V452.5H134.5ZM207.719 483H238V452.5H207.719V483ZM207.719 449.5H238V417.491C229.127 417.463 218.738 417.434 207.719 417.407V449.5ZM207.719 414.407C218.738 414.434 229.127 414.463 238 414.491V382.5H207.719V414.407ZM207.719 379.5H238V349H207.719V379.5Z" fill="white"/>
<path id="Rectangle 116" d="M136 346H171V381H136V346Z" fill="white"/>
<path id="Rectangle 117" d="M171 346H206V381H171V346Z" fill="white"/>
<path id="Rectangle 118" d="M204.25 346H239.25V381H204.25V346Z" fill="white"/>
</g>
<g id="Group 260">
<path id="Rectangle 115 (Stroke)_2" fill-rule="evenodd" clip-rule="evenodd" d="M863.938 543.5V574H895.719V543.5H863.938ZM860.938 543.5V574H828.5V543.5H860.938ZM863.938 540.5H895.719V508.399C885.364 508.375 874.533 508.353 863.938 508.336V540.5ZM860.938 508.332V540.5H828.5V508.307C833.984 508.306 839.866 508.309 845.986 508.314C850.846 508.318 855.857 508.324 860.938 508.332ZM863.938 505.336C874.533 505.353 885.364 505.375 895.719 505.399V473.5H863.938V505.336ZM860.938 473.5V505.332C855.858 505.324 850.848 505.318 845.989 505.314C839.868 505.309 833.985 505.306 828.5 505.307V473.5H860.938ZM863.938 470.5H895.719V440H863.938V470.5ZM860.938 440V470.5H828.5V440H860.938ZM932 437V577H792V437H932ZM825.5 440H795V470.5H825.5V440ZM825.5 473.5H795V505.416C795.574 505.408 796.222 505.401 796.939 505.394C799.808 505.366 803.802 505.346 808.654 505.332C813.498 505.318 819.201 505.31 825.5 505.308V473.5ZM825.5 508.308C819.204 508.31 813.504 508.318 808.662 508.332C803.812 508.346 799.827 508.366 796.968 508.393C796.236 508.401 795.578 508.408 795 508.416V540.5H825.5V508.308ZM825.5 543.5V574H795V543.5H825.5ZM898.719 574H929V543.5H898.719V574ZM898.719 540.5H929V508.491C920.127 508.463 909.738 508.434 898.719 508.407V540.5ZM898.719 505.407C909.738 505.434 920.127 505.463 929 505.491V473.5H898.719V505.407ZM898.719 470.5H929V440H898.719V470.5Z" fill="white"/>
<path id="Rectangle 116_2" d="M827 507H862V542H827V507Z" fill="white"/>
<path id="Rectangle 117_2" d="M827 542H862V577H827V542Z" fill="white"/>
<path id="Rectangle 118_2" d="M862 542H897V577H862V542Z" fill="white"/>
</g>
<g id="Group 259">
<path id="Rectangle 115 (Stroke)_3" fill-rule="evenodd" clip-rule="evenodd" d="M522.938 449.5V480H554.719V449.5H522.938ZM519.938 449.5V480H487.5V449.5H519.938ZM522.938 446.5H554.719V414.399C544.364 414.375 533.533 414.353 522.938 414.336V446.5ZM519.938 414.332V446.5H487.5V414.307C492.984 414.306 498.866 414.309 504.986 414.314C509.846 414.318 514.857 414.324 519.938 414.332ZM522.938 411.336C533.533 411.353 544.364 411.375 554.719 411.399V379.5H522.938V411.336ZM519.938 379.5V411.332C514.858 411.324 509.848 411.318 504.989 411.314C498.868 411.309 492.985 411.306 487.5 411.307V379.5H519.938ZM522.938 376.5H554.719V346H522.938V376.5ZM519.938 346V376.5H487.5V346H519.938ZM591 343V483H451V343H591ZM484.5 346H454V376.5H484.5V346ZM484.5 379.5H454V411.416C454.574 411.408 455.222 411.401 455.939 411.394C458.808 411.366 462.802 411.346 467.654 411.332C472.498 411.318 478.201 411.31 484.5 411.308V379.5ZM484.5 414.308C478.204 414.31 472.504 414.318 467.662 414.332C462.812 414.346 458.827 414.366 455.968 414.393C455.236 414.401 454.578 414.408 454 414.416V446.5H484.5V414.308ZM484.5 449.5V480H454V449.5H484.5ZM557.719 480H588V449.5H557.719V480ZM557.719 446.5H588V414.491C579.127 414.463 568.738 414.434 557.719 414.407V446.5ZM557.719 411.407C568.738 411.434 579.127 411.463 588 411.491V379.5H557.719V411.407ZM557.719 376.5H588V346H557.719V376.5Z" fill="white"/>
<path id="Rectangle 116_3" d="M521 378H556V413H521V378Z" fill="white"/>
<path id="Rectangle 117_3" d="M554.25 378H589.25V413H554.25V378Z" fill="white"/>
<path id="Rectangle 118_3" d="M554.25 343H589.25V378H554.25V343Z" fill="white"/>
</g>
<g id="Group 261">
<path id="Rectangle 115 (Stroke)_4" fill-rule="evenodd" clip-rule="evenodd" d="M179.938 631.5V662H211.719V631.5H179.938ZM176.938 631.5V662H144.5V631.5H176.938ZM179.938 628.5H211.719V596.399C201.364 596.375 190.533 596.353 179.938 596.336V628.5ZM176.938 596.332V628.5H144.5V596.307C149.984 596.306 155.866 596.309 161.986 596.314C166.846 596.318 171.857 596.324 176.938 596.332ZM179.938 593.336C190.533 593.353 201.364 593.375 211.719 593.399V561.5H179.938V593.336ZM176.938 561.5V593.332C171.858 593.324 166.848 593.318 161.989 593.314C155.868 593.309 149.985 593.306 144.5 593.307V561.5H176.938ZM179.938 558.5H211.719V528H179.938V558.5ZM176.938 528V558.5H144.5V528H176.938ZM248 525V665H108V525H248ZM141.5 528H111V558.5H141.5V528ZM141.5 561.5H111V593.416C111.574 593.408 112.222 593.401 112.939 593.394C115.808 593.366 119.802 593.346 124.654 593.332C129.498 593.318 135.201 593.31 141.5 593.308V561.5ZM141.5 596.308C135.204 596.31 129.504 596.318 124.662 596.332C119.812 596.346 115.827 596.366 112.968 596.393C112.236 596.401 111.578 596.408 111 596.416V628.5H141.5V596.308ZM141.5 631.5V662H111V631.5H141.5ZM214.719 662H245V631.5H214.719V662ZM214.719 628.5H245V596.491C236.127 596.463 225.738 596.434 214.719 596.407V628.5ZM214.719 593.407C225.738 593.434 236.127 593.463 245 593.491V561.5H214.719V593.407ZM214.719 558.5H245V528H214.719V558.5Z" fill="white"/>
<path id="Rectangle 116_4" d="M109.75 525H144.75V560H109.75V525Z" fill="white"/>
<path id="Rectangle 117_4" d="M178 525H213V560H178V525Z" fill="white"/>
<path id="Rectangle 118_4" d="M213 525H248V560H213V525Z" fill="white"/>
</g>
<g id="Group 263">
<g id="Group 262">
<path id="Rectangle 115 (Stroke)_5" fill-rule="evenodd" clip-rule="evenodd" d="M522.938 637.5V668H554.719V637.5H522.938ZM519.938 637.5V668H487.5V637.5H519.938ZM522.938 634.5H554.719V602.399C544.364 602.375 533.533 602.353 522.938 602.336V634.5ZM519.938 602.332V634.5H487.5V602.307C492.984 602.306 498.866 602.309 504.986 602.314C509.846 602.318 514.857 602.324 519.938 602.332ZM522.938 599.336C533.533 599.353 544.364 599.375 554.719 599.399V567.5H522.938V599.336ZM519.938 567.5V599.332C514.858 599.324 509.848 599.318 504.989 599.314C498.868 599.309 492.985 599.306 487.5 599.307V567.5H519.938ZM522.938 564.5H554.719V534H522.938V564.5ZM519.938 534V564.5H487.5V534H519.938ZM591 531V671H451V531H591ZM484.5 534H454V564.5H484.5V534ZM484.5 567.5H454V599.416C454.574 599.408 455.222 599.401 455.939 599.394C458.808 599.366 462.802 599.346 467.654 599.332C472.498 599.318 478.201 599.31 484.5 599.308V567.5ZM484.5 602.308C478.204 602.31 472.504 602.318 467.662 602.332C462.812 602.346 458.827 602.366 455.968 602.393C455.236 602.401 454.578 602.408 454 602.416V634.5H484.5V602.308ZM484.5 637.5V668H454V637.5H484.5ZM557.719 668H588V637.5H557.719V668ZM557.719 634.5H588V602.491C579.127 602.463 568.738 602.434 557.719 602.407V634.5ZM557.719 599.407C568.738 599.434 579.127 599.463 588 599.491V567.5H557.719V599.407ZM557.719 564.5H588V534H557.719V564.5Z" fill="white"/>
<path id="Rectangle 116_5" d="M452.75 531H487.75V566H452.75V531Z" fill="white"/>
<path id="Rectangle 117_5" d="M521 531H556V566H521V531Z" fill="white"/>
<path id="Rectangle 118_5" d="M487.75 531H522.75V566H487.75V531Z" fill="white"/>
</g>
</g>
</g>
<g id="flecha">
<path id="Rectangle 2" d="M58.2001 568.008L73.4819 576.133L31.5003 655.089L16.2185 646.963L58.2001 568.008Z" fill="#1043F5"/>
<path id="Rectangle 1_2" d="M0 580.904L90 531V588.692L45 571.096L0 580.904Z" fill="#1043F5"/>
<path id="Rectangle 3" d="M4.03845 650.21L19.6656 623.143L36.9362 622.565L21.3091 649.632L4.03845 650.21Z" fill="#1043F5"/>
<path id="Rectangle 4_2" d="M30.0895 664.845L45.7166 637.778L36.9259 622.154L21.2987 649.221L30.0895 664.845Z" fill="#1043F5"/>
</g>
</g>
</g>
</svg>
