<svg viewBox="0 0 990 777" fill="none" xmlns="http://www.w3.org/2000/svg">
<g id="0127102">
<g id="enunciado">
<g id="Group 71">
<path id="Rectangle 1" d="M30 73.727C30 35.0771 52.5821 3.7453 80.4386 3.7453H950V488.018C950 526.668 927.418 558 899.561 558H30V73.727Z" fill="#02071A"/>
<path id="Rectangle 1 (Stroke)" fill-rule="evenodd" clip-rule="evenodd" d="M944.956 10.6858H80.4386C55.3678 10.6858 35.0439 38.8874 35.0439 73.6758V551.001H899.561C924.632 551.001 944.956 522.799 944.956 488.01V10.6858ZM80.4386 3.68689C52.5821 3.68689 30 35.022 30 73.6758V557.999H899.561C927.418 557.999 950 526.664 950 488.01V3.68689H80.4386Z" fill="#CD08D1"/>
<path id="Rectangle 14" d="M84.6249 3.87087C111.602 -4.83859 950 3.87087 950 3.87087V41.576C950 41.576 70.3508 27.7173 39.0789 41.576C48.8093 21.5777 57.6479 12.5803 84.6249 3.87087Z" fill="#CD08D1"/>
<path id="Rectangle 15" d="M918.076 11.9839H948.065V489.46C944.384 521.863 936.755 533.772 918.076 549.317C923.573 523.861 918.076 11.9839 918.076 11.9839Z" fill="#CD08D1"/>
</g>
<g id="&#194;&#191;Cu&#195;&#161;ntos cuadrados hay en total en la figura?">
<path d="M73.3047 104.09C73.2786 105.704 73.0898 106.987 72.7383 107.938C72.3997 108.875 71.7552 109.858 70.8047 110.887L68.793 112.957C67.6211 114.22 67.0352 115.542 67.0352 116.922C67.0352 118.146 67.3542 119.057 67.9922 119.656C68.6302 120.268 69.5286 120.574 70.6875 120.574C71.8333 120.574 72.7513 120.249 73.4414 119.598C74.1315 118.947 74.4766 118.081 74.4766 117H79.2227C79.1966 119.305 78.4023 121.134 76.8398 122.488C75.2904 123.842 73.2526 124.52 70.7266 124.52C68.0443 124.52 65.9674 123.862 64.4961 122.547C63.0247 121.245 62.2891 119.396 62.2891 117C62.2891 114.852 63.2982 112.716 65.3164 110.594L67.1133 108.777C68.1289 107.84 68.7018 106.622 68.832 105.125L68.8711 104.09H73.3047ZM73.6953 98.0156C73.6953 98.7448 73.4609 99.3568 72.9922 99.8516C72.5365 100.333 71.8789 100.574 71.0195 100.574C70.1602 100.574 69.4961 100.333 69.0273 99.8516C68.5586 99.3568 68.3242 98.7448 68.3242 98.0156C68.3242 97.2995 68.5586 96.7005 69.0273 96.2188C69.4961 95.724 70.1602 95.4766 71.0195 95.4766C71.8789 95.4766 72.5365 95.724 72.9922 96.2188C73.4609 96.7005 73.6953 97.2995 73.6953 98.0156Z" fill="white"/>
<path d="M105.043 107.742C104.757 110.776 103.637 113.146 101.684 114.852C99.7305 116.544 97.1328 117.391 93.8906 117.391C91.625 117.391 89.6263 116.857 87.8945 115.789C86.1758 114.708 84.8477 113.178 83.9102 111.199C82.9727 109.22 82.4844 106.922 82.4453 104.305V101.648C82.4453 98.9661 82.9206 96.6029 83.8711 94.5586C84.8216 92.5143 86.1823 90.9388 87.9531 89.832C89.737 88.7253 91.7943 88.1719 94.125 88.1719C97.263 88.1719 99.7891 89.0247 101.703 90.7305C103.617 92.4362 104.73 94.8451 105.043 97.957H100.121C99.8867 95.9128 99.2878 94.4414 98.3242 93.543C97.3737 92.6315 95.974 92.1758 94.125 92.1758C91.9766 92.1758 90.3229 92.9635 89.1641 94.5391C88.0182 96.1016 87.4323 98.3997 87.4062 101.434V103.953C87.4062 107.026 87.9531 109.37 89.0469 110.984C90.1536 112.599 91.7682 113.406 93.8906 113.406C95.8307 113.406 97.2891 112.97 98.2656 112.098C99.2422 111.225 99.8607 109.773 100.121 107.742H105.043Z" fill="white"/>
<path d="M121.82 114.93C120.427 116.57 118.448 117.391 115.883 117.391C113.591 117.391 111.853 116.72 110.668 115.379C109.496 114.038 108.91 112.098 108.91 109.559V95.8672H113.656V109.5C113.656 112.182 114.77 113.523 116.996 113.523C119.301 113.523 120.857 112.697 121.664 111.043V95.8672H126.41V117H121.938L121.82 114.93Z" fill="white"/>
<path d="M143.871 117C143.663 116.596 143.48 115.939 143.324 115.027C141.814 116.603 139.965 117.391 137.777 117.391C135.655 117.391 133.923 116.785 132.582 115.574C131.241 114.363 130.57 112.866 130.57 111.082C130.57 108.829 131.404 107.104 133.07 105.906C134.75 104.695 137.146 104.09 140.258 104.09H143.168V102.703C143.168 101.609 142.862 100.737 142.25 100.086C141.638 99.4219 140.707 99.0898 139.457 99.0898C138.376 99.0898 137.491 99.3633 136.801 99.9102C136.111 100.444 135.766 101.128 135.766 101.961H131.02C131.02 100.802 131.404 99.7214 132.172 98.7188C132.94 97.7031 133.982 96.9089 135.297 96.3359C136.625 95.763 138.103 95.4766 139.73 95.4766C142.204 95.4766 144.177 96.1016 145.648 97.3516C147.12 98.5885 147.875 100.333 147.914 102.586V112.117C147.914 114.018 148.181 115.535 148.715 116.668V117H143.871ZM138.656 113.582C139.594 113.582 140.473 113.354 141.293 112.898C142.126 112.443 142.751 111.831 143.168 111.062V107.078H140.609C138.852 107.078 137.53 107.384 136.645 107.996C135.759 108.608 135.316 109.474 135.316 110.594C135.316 111.505 135.616 112.234 136.215 112.781C136.827 113.315 137.641 113.582 138.656 113.582ZM141.293 87H146.703L141.293 92.918H137.484L141.293 87Z" fill="white"/>
<path d="M157.289 95.8672L157.426 98.3086C158.988 96.4206 161.039 95.4766 163.578 95.4766C167.979 95.4766 170.219 97.9961 170.297 103.035V117H165.551V103.309C165.551 101.967 165.258 100.978 164.672 100.34C164.099 99.6888 163.155 99.3633 161.84 99.3633C159.926 99.3633 158.5 100.229 157.562 101.961V117H152.816V95.8672H157.289Z" fill="white"/>
<path d="M181.098 90.7305V95.8672H184.828V99.3828H181.098V111.18C181.098 111.987 181.254 112.573 181.566 112.938C181.892 113.289 182.465 113.465 183.285 113.465C183.832 113.465 184.385 113.4 184.945 113.27V116.941C183.865 117.241 182.823 117.391 181.82 117.391C178.174 117.391 176.352 115.379 176.352 111.355V99.3828H172.875V95.8672H176.352V90.7305H181.098Z" fill="white"/>
<path d="M186.996 106.238C186.996 104.168 187.406 102.306 188.227 100.652C189.047 98.9857 190.199 97.7096 191.684 96.8242C193.168 95.9258 194.874 95.4766 196.801 95.4766C199.652 95.4766 201.964 96.3945 203.734 98.2305C205.518 100.066 206.482 102.501 206.625 105.535L206.645 106.648C206.645 108.732 206.241 110.594 205.434 112.234C204.639 113.875 203.493 115.145 201.996 116.043C200.512 116.941 198.793 117.391 196.84 117.391C193.858 117.391 191.469 116.401 189.672 114.422C187.888 112.43 186.996 109.78 186.996 106.473V106.238ZM191.742 106.648C191.742 108.823 192.191 110.529 193.09 111.766C193.988 112.99 195.238 113.602 196.84 113.602C198.441 113.602 199.685 112.977 200.57 111.727C201.469 110.477 201.918 108.647 201.918 106.238C201.918 104.103 201.456 102.41 200.531 101.16C199.62 99.9102 198.376 99.2852 196.801 99.2852C195.251 99.2852 194.021 99.9036 193.109 101.141C192.198 102.365 191.742 104.201 191.742 106.648Z" fill="white"/>
<path d="M222.504 111.258C222.504 110.411 222.152 109.767 221.449 109.324C220.759 108.882 219.607 108.491 217.992 108.152C216.378 107.814 215.03 107.384 213.949 106.863C211.579 105.717 210.395 104.057 210.395 101.883C210.395 100.06 211.163 98.5365 212.699 97.3125C214.236 96.0885 216.189 95.4766 218.559 95.4766C221.085 95.4766 223.122 96.1016 224.672 97.3516C226.234 98.6016 227.016 100.223 227.016 102.215H222.27C222.27 101.303 221.931 100.548 221.254 99.9492C220.577 99.3372 219.678 99.0312 218.559 99.0312C217.517 99.0312 216.664 99.2721 216 99.7539C215.349 100.236 215.023 100.88 215.023 101.688C215.023 102.417 215.329 102.983 215.941 103.387C216.553 103.79 217.79 104.201 219.652 104.617C221.514 105.021 222.973 105.509 224.027 106.082C225.095 106.642 225.883 107.319 226.391 108.113C226.911 108.908 227.172 109.871 227.172 111.004C227.172 112.905 226.384 114.448 224.809 115.633C223.233 116.805 221.169 117.391 218.617 117.391C216.885 117.391 215.342 117.078 213.988 116.453C212.634 115.828 211.579 114.969 210.824 113.875C210.069 112.781 209.691 111.603 209.691 110.34H214.301C214.366 111.46 214.789 112.326 215.57 112.938C216.352 113.536 217.387 113.836 218.676 113.836C219.926 113.836 220.876 113.602 221.527 113.133C222.178 112.651 222.504 112.026 222.504 111.258Z" fill="white"/>
<path d="M249.965 113.602C251.15 113.602 252.133 113.257 252.914 112.566C253.695 111.876 254.112 111.023 254.164 110.008H258.637C258.585 111.323 258.174 112.553 257.406 113.699C256.638 114.832 255.596 115.73 254.281 116.395C252.966 117.059 251.547 117.391 250.023 117.391C247.068 117.391 244.724 116.434 242.992 114.52C241.26 112.605 240.395 109.962 240.395 106.59V106.102C240.395 102.885 241.254 100.314 242.973 98.3867C244.691 96.4466 247.035 95.4766 250.004 95.4766C252.517 95.4766 254.561 96.2122 256.137 97.6836C257.725 99.1419 258.559 101.062 258.637 103.445H254.164C254.112 102.234 253.695 101.238 252.914 100.457C252.146 99.6758 251.163 99.2852 249.965 99.2852C248.428 99.2852 247.243 99.8451 246.41 100.965C245.577 102.072 245.154 103.758 245.141 106.023V106.785C245.141 109.077 245.551 110.789 246.371 111.922C247.204 113.042 248.402 113.602 249.965 113.602Z" fill="white"/>
<path d="M275.023 114.93C273.63 116.57 271.651 117.391 269.086 117.391C266.794 117.391 265.056 116.72 263.871 115.379C262.699 114.038 262.113 112.098 262.113 109.559V95.8672H266.859V109.5C266.859 112.182 267.973 113.523 270.199 113.523C272.504 113.523 274.06 112.697 274.867 111.043V95.8672H279.613V117H275.141L275.023 114.93Z" fill="white"/>
<path d="M297.074 117C296.866 116.596 296.684 115.939 296.527 115.027C295.017 116.603 293.168 117.391 290.98 117.391C288.858 117.391 287.126 116.785 285.785 115.574C284.444 114.363 283.773 112.866 283.773 111.082C283.773 108.829 284.607 107.104 286.273 105.906C287.953 104.695 290.349 104.09 293.461 104.09H296.371V102.703C296.371 101.609 296.065 100.737 295.453 100.086C294.841 99.4219 293.91 99.0898 292.66 99.0898C291.579 99.0898 290.694 99.3633 290.004 99.9102C289.314 100.444 288.969 101.128 288.969 101.961H284.223C284.223 100.802 284.607 99.7214 285.375 98.7188C286.143 97.7031 287.185 96.9089 288.5 96.3359C289.828 95.763 291.306 95.4766 292.934 95.4766C295.408 95.4766 297.38 96.1016 298.852 97.3516C300.323 98.5885 301.078 100.333 301.117 102.586V112.117C301.117 114.018 301.384 115.535 301.918 116.668V117H297.074ZM291.859 113.582C292.797 113.582 293.676 113.354 294.496 112.898C295.329 112.443 295.954 111.831 296.371 111.062V107.078H293.812C292.055 107.078 290.733 107.384 289.848 107.996C288.962 108.608 288.52 109.474 288.52 110.594C288.52 111.505 288.819 112.234 289.418 112.781C290.03 113.315 290.844 113.582 291.859 113.582Z" fill="white"/>
<path d="M305.199 106.277C305.199 103.022 305.954 100.411 307.465 98.4453C308.975 96.4661 311 95.4766 313.539 95.4766C315.779 95.4766 317.589 96.2578 318.969 97.8203V87H323.715V117H319.418L319.184 114.812C317.764 116.531 315.87 117.391 313.5 117.391C311.026 117.391 309.021 116.395 307.484 114.402C305.961 112.41 305.199 109.702 305.199 106.277ZM309.945 106.688C309.945 108.836 310.355 110.516 311.176 111.727C312.009 112.924 313.188 113.523 314.711 113.523C316.651 113.523 318.07 112.658 318.969 110.926V101.902C318.096 100.21 316.69 99.3633 314.75 99.3633C313.214 99.3633 312.029 99.9753 311.195 101.199C310.362 102.41 309.945 104.24 309.945 106.688Z" fill="white"/>
<path d="M339.73 100.203C339.105 100.099 338.461 100.047 337.797 100.047C335.622 100.047 334.158 100.88 333.402 102.547V117H328.656V95.8672H333.188L333.305 98.2305C334.451 96.3945 336.039 95.4766 338.07 95.4766C338.747 95.4766 339.307 95.5677 339.75 95.75L339.73 100.203Z" fill="white"/>
<path d="M354.77 117C354.561 116.596 354.379 115.939 354.223 115.027C352.712 116.603 350.863 117.391 348.676 117.391C346.553 117.391 344.822 116.785 343.48 115.574C342.139 114.363 341.469 112.866 341.469 111.082C341.469 108.829 342.302 107.104 343.969 105.906C345.648 104.695 348.044 104.09 351.156 104.09H354.066V102.703C354.066 101.609 353.76 100.737 353.148 100.086C352.536 99.4219 351.605 99.0898 350.355 99.0898C349.275 99.0898 348.389 99.3633 347.699 99.9102C347.009 100.444 346.664 101.128 346.664 101.961H341.918C341.918 100.802 342.302 99.7214 343.07 98.7188C343.839 97.7031 344.88 96.9089 346.195 96.3359C347.523 95.763 349.001 95.4766 350.629 95.4766C353.103 95.4766 355.076 96.1016 356.547 97.3516C358.018 98.5885 358.773 100.333 358.812 102.586V112.117C358.812 114.018 359.079 115.535 359.613 116.668V117H354.77ZM349.555 113.582C350.492 113.582 351.371 113.354 352.191 112.898C353.025 112.443 353.65 111.831 354.066 111.062V107.078H351.508C349.75 107.078 348.428 107.384 347.543 107.996C346.658 108.608 346.215 109.474 346.215 110.594C346.215 111.505 346.514 112.234 347.113 112.781C347.725 113.315 348.539 113.582 349.555 113.582Z" fill="white"/>
<path d="M362.895 106.277C362.895 103.022 363.65 100.411 365.16 98.4453C366.671 96.4661 368.695 95.4766 371.234 95.4766C373.474 95.4766 375.284 96.2578 376.664 97.8203V87H381.41V117H377.113L376.879 114.812C375.46 116.531 373.565 117.391 371.195 117.391C368.721 117.391 366.716 116.395 365.18 114.402C363.656 112.41 362.895 109.702 362.895 106.277ZM367.641 106.688C367.641 108.836 368.051 110.516 368.871 111.727C369.704 112.924 370.883 113.523 372.406 113.523C374.346 113.523 375.766 112.658 376.664 110.926V101.902C375.792 100.21 374.385 99.3633 372.445 99.3633C370.909 99.3633 369.724 99.9753 368.891 101.199C368.057 102.41 367.641 104.24 367.641 106.688Z" fill="white"/>
<path d="M385.473 106.238C385.473 104.168 385.883 102.306 386.703 100.652C387.523 98.9857 388.676 97.7096 390.16 96.8242C391.645 95.9258 393.35 95.4766 395.277 95.4766C398.129 95.4766 400.44 96.3945 402.211 98.2305C403.995 100.066 404.958 102.501 405.102 105.535L405.121 106.648C405.121 108.732 404.717 110.594 403.91 112.234C403.116 113.875 401.97 115.145 400.473 116.043C398.988 116.941 397.27 117.391 395.316 117.391C392.335 117.391 389.945 116.401 388.148 114.422C386.365 112.43 385.473 109.78 385.473 106.473V106.238ZM390.219 106.648C390.219 108.823 390.668 110.529 391.566 111.766C392.465 112.99 393.715 113.602 395.316 113.602C396.918 113.602 398.161 112.977 399.047 111.727C399.945 110.477 400.395 108.647 400.395 106.238C400.395 104.103 399.932 102.41 399.008 101.16C398.096 99.9102 396.853 99.2852 395.277 99.2852C393.728 99.2852 392.497 99.9036 391.586 101.141C390.674 102.365 390.219 104.201 390.219 106.648Z" fill="white"/>
<path d="M420.98 111.258C420.98 110.411 420.629 109.767 419.926 109.324C419.236 108.882 418.083 108.491 416.469 108.152C414.854 107.814 413.507 107.384 412.426 106.863C410.056 105.717 408.871 104.057 408.871 101.883C408.871 100.06 409.639 98.5365 411.176 97.3125C412.712 96.0885 414.665 95.4766 417.035 95.4766C419.561 95.4766 421.599 96.1016 423.148 97.3516C424.711 98.6016 425.492 100.223 425.492 102.215H420.746C420.746 101.303 420.408 100.548 419.73 99.9492C419.053 99.3372 418.155 99.0312 417.035 99.0312C415.993 99.0312 415.141 99.2721 414.477 99.7539C413.826 100.236 413.5 100.88 413.5 101.688C413.5 102.417 413.806 102.983 414.418 103.387C415.03 103.79 416.267 104.201 418.129 104.617C419.991 105.021 421.449 105.509 422.504 106.082C423.572 106.642 424.359 107.319 424.867 108.113C425.388 108.908 425.648 109.871 425.648 111.004C425.648 112.905 424.861 114.448 423.285 115.633C421.71 116.805 419.646 117.391 417.094 117.391C415.362 117.391 413.819 117.078 412.465 116.453C411.111 115.828 410.056 114.969 409.301 113.875C408.546 112.781 408.168 111.603 408.168 110.34H412.777C412.842 111.46 413.266 112.326 414.047 112.938C414.828 113.536 415.863 113.836 417.152 113.836C418.402 113.836 419.353 113.602 420.004 113.133C420.655 112.651 420.98 112.026 420.98 111.258Z" fill="white"/>
<path d="M444.438 98.1719C445.987 96.375 447.947 95.4766 450.316 95.4766C454.822 95.4766 457.107 98.0482 457.172 103.191V117H452.426V103.367C452.426 101.909 452.107 100.88 451.469 100.281C450.844 99.6693 449.919 99.3633 448.695 99.3633C446.794 99.3633 445.375 100.21 444.438 101.902V117H439.691V87H444.438V98.1719Z" fill="white"/>
<path d="M474.613 117C474.405 116.596 474.223 115.939 474.066 115.027C472.556 116.603 470.707 117.391 468.52 117.391C466.397 117.391 464.665 116.785 463.324 115.574C461.983 114.363 461.312 112.866 461.312 111.082C461.312 108.829 462.146 107.104 463.812 105.906C465.492 104.695 467.888 104.09 471 104.09H473.91V102.703C473.91 101.609 473.604 100.737 472.992 100.086C472.38 99.4219 471.449 99.0898 470.199 99.0898C469.118 99.0898 468.233 99.3633 467.543 99.9102C466.853 100.444 466.508 101.128 466.508 101.961H461.762C461.762 100.802 462.146 99.7214 462.914 98.7188C463.682 97.7031 464.724 96.9089 466.039 96.3359C467.367 95.763 468.845 95.4766 470.473 95.4766C472.947 95.4766 474.919 96.1016 476.391 97.3516C477.862 98.5885 478.617 100.333 478.656 102.586V112.117C478.656 114.018 478.923 115.535 479.457 116.668V117H474.613ZM469.398 113.582C470.336 113.582 471.215 113.354 472.035 112.898C472.868 112.443 473.493 111.831 473.91 111.062V107.078H471.352C469.594 107.078 468.272 107.384 467.387 107.996C466.501 108.608 466.059 109.474 466.059 110.594C466.059 111.505 466.358 112.234 466.957 112.781C467.569 113.315 468.383 113.582 469.398 113.582Z" fill="white"/>
<path d="M490.707 110.203L495.004 95.8672H500.062L491.664 120.203C490.375 123.758 488.188 125.535 485.102 125.535C484.411 125.535 483.65 125.418 482.816 125.184V121.512L483.715 121.57C484.913 121.57 485.811 121.349 486.41 120.906C487.022 120.477 487.504 119.747 487.855 118.719L488.539 116.902L481.117 95.8672H486.234L490.707 110.203Z" fill="white"/>
<path d="M522.074 117.391C519.066 117.391 516.625 116.447 514.75 114.559C512.888 112.658 511.957 110.132 511.957 106.98V106.395C511.957 104.285 512.361 102.404 513.168 100.75C513.988 99.0833 515.134 97.7878 516.605 96.8633C518.077 95.9388 519.717 95.4766 521.527 95.4766C524.405 95.4766 526.625 96.3945 528.188 98.2305C529.763 100.066 530.551 102.664 530.551 106.023V107.938H516.742C516.885 109.682 517.465 111.062 518.48 112.078C519.509 113.094 520.798 113.602 522.348 113.602C524.522 113.602 526.293 112.723 527.66 110.965L530.219 113.406C529.372 114.669 528.24 115.652 526.82 116.355C525.414 117.046 523.832 117.391 522.074 117.391ZM521.508 99.2852C520.206 99.2852 519.151 99.7409 518.344 100.652C517.549 101.564 517.042 102.833 516.82 104.461H525.863V104.109C525.759 102.521 525.336 101.323 524.594 100.516C523.852 99.6953 522.823 99.2852 521.508 99.2852Z" fill="white"/>
<path d="M538.656 95.8672L538.793 98.3086C540.355 96.4206 542.406 95.4766 544.945 95.4766C549.346 95.4766 551.586 97.9961 551.664 103.035V117H546.918V103.309C546.918 101.967 546.625 100.978 546.039 100.34C545.466 99.6888 544.522 99.3633 543.207 99.3633C541.293 99.3633 539.867 100.229 538.93 101.961V117H534.184V95.8672H538.656Z" fill="white"/>
<path d="M572.426 90.7305V95.8672H576.156V99.3828H572.426V111.18C572.426 111.987 572.582 112.573 572.895 112.938C573.22 113.289 573.793 113.465 574.613 113.465C575.16 113.465 575.714 113.4 576.273 113.27V116.941C575.193 117.241 574.151 117.391 573.148 117.391C569.503 117.391 567.68 115.379 567.68 111.355V99.3828H564.203V95.8672H567.68V90.7305H572.426Z" fill="white"/>
<path d="M578.324 106.238C578.324 104.168 578.734 102.306 579.555 100.652C580.375 98.9857 581.527 97.7096 583.012 96.8242C584.496 95.9258 586.202 95.4766 588.129 95.4766C590.98 95.4766 593.292 96.3945 595.062 98.2305C596.846 100.066 597.81 102.501 597.953 105.535L597.973 106.648C597.973 108.732 597.569 110.594 596.762 112.234C595.967 113.875 594.822 115.145 593.324 116.043C591.84 116.941 590.121 117.391 588.168 117.391C585.186 117.391 582.797 116.401 581 114.422C579.216 112.43 578.324 109.78 578.324 106.473V106.238ZM583.07 106.648C583.07 108.823 583.52 110.529 584.418 111.766C585.316 112.99 586.566 113.602 588.168 113.602C589.77 113.602 591.013 112.977 591.898 111.727C592.797 110.477 593.246 108.647 593.246 106.238C593.246 104.103 592.784 102.41 591.859 101.16C590.948 99.9102 589.704 99.2852 588.129 99.2852C586.579 99.2852 585.349 99.9036 584.438 101.141C583.526 102.365 583.07 104.201 583.07 106.648Z" fill="white"/>
<path d="M607.934 90.7305V95.8672H611.664V99.3828H607.934V111.18C607.934 111.987 608.09 112.573 608.402 112.938C608.728 113.289 609.301 113.465 610.121 113.465C610.668 113.465 611.221 113.4 611.781 113.27V116.941C610.701 117.241 609.659 117.391 608.656 117.391C605.01 117.391 603.188 115.379 603.188 111.355V99.3828H599.711V95.8672H603.188V90.7305H607.934Z" fill="white"/>
<path d="M627.934 117C627.725 116.596 627.543 115.939 627.387 115.027C625.876 116.603 624.027 117.391 621.84 117.391C619.717 117.391 617.986 116.785 616.645 115.574C615.303 114.363 614.633 112.866 614.633 111.082C614.633 108.829 615.466 107.104 617.133 105.906C618.812 104.695 621.208 104.09 624.32 104.09H627.23V102.703C627.23 101.609 626.924 100.737 626.312 100.086C625.701 99.4219 624.77 99.0898 623.52 99.0898C622.439 99.0898 621.553 99.3633 620.863 99.9102C620.173 100.444 619.828 101.128 619.828 101.961H615.082C615.082 100.802 615.466 99.7214 616.234 98.7188C617.003 97.7031 618.044 96.9089 619.359 96.3359C620.688 95.763 622.165 95.4766 623.793 95.4766C626.267 95.4766 628.24 96.1016 629.711 97.3516C631.182 98.5885 631.938 100.333 631.977 102.586V112.117C631.977 114.018 632.243 115.535 632.777 116.668V117H627.934ZM622.719 113.582C623.656 113.582 624.535 113.354 625.355 112.898C626.189 112.443 626.814 111.831 627.23 111.062V107.078H624.672C622.914 107.078 621.592 107.384 620.707 107.996C619.822 108.608 619.379 109.474 619.379 110.594C619.379 111.505 619.678 112.234 620.277 112.781C620.889 113.315 621.703 113.582 622.719 113.582Z" fill="white"/>
<path d="M641.996 117H637.25V87H641.996V117Z" fill="white"/>
<path d="M666.449 117.391C663.441 117.391 661 116.447 659.125 114.559C657.263 112.658 656.332 110.132 656.332 106.98V106.395C656.332 104.285 656.736 102.404 657.543 100.75C658.363 99.0833 659.509 97.7878 660.98 96.8633C662.452 95.9388 664.092 95.4766 665.902 95.4766C668.78 95.4766 671 96.3945 672.562 98.2305C674.138 100.066 674.926 102.664 674.926 106.023V107.938H661.117C661.26 109.682 661.84 111.062 662.855 112.078C663.884 113.094 665.173 113.602 666.723 113.602C668.897 113.602 670.668 112.723 672.035 110.965L674.594 113.406C673.747 114.669 672.615 115.652 671.195 116.355C669.789 117.046 668.207 117.391 666.449 117.391ZM665.883 99.2852C664.581 99.2852 663.526 99.7409 662.719 100.652C661.924 101.564 661.417 102.833 661.195 104.461H670.238V104.109C670.134 102.521 669.711 101.323 668.969 100.516C668.227 99.6953 667.198 99.2852 665.883 99.2852Z" fill="white"/>
<path d="M683.031 95.8672L683.168 98.3086C684.73 96.4206 686.781 95.4766 689.32 95.4766C693.721 95.4766 695.961 97.9961 696.039 103.035V117H691.293V103.309C691.293 101.967 691 100.978 690.414 100.34C689.841 99.6888 688.897 99.3633 687.582 99.3633C685.668 99.3633 684.242 100.229 683.305 101.961V117H678.559V95.8672H683.031Z" fill="white"/>
<path d="M715.902 117H711.156V87H715.902V117Z" fill="white"/>
<path d="M733.715 117C733.507 116.596 733.324 115.939 733.168 115.027C731.658 116.603 729.809 117.391 727.621 117.391C725.499 117.391 723.767 116.785 722.426 115.574C721.085 114.363 720.414 112.866 720.414 111.082C720.414 108.829 721.247 107.104 722.914 105.906C724.594 104.695 726.99 104.09 730.102 104.09H733.012V102.703C733.012 101.609 732.706 100.737 732.094 100.086C731.482 99.4219 730.551 99.0898 729.301 99.0898C728.22 99.0898 727.335 99.3633 726.645 99.9102C725.954 100.444 725.609 101.128 725.609 101.961H720.863C720.863 100.802 721.247 99.7214 722.016 98.7188C722.784 97.7031 723.826 96.9089 725.141 96.3359C726.469 95.763 727.947 95.4766 729.574 95.4766C732.048 95.4766 734.021 96.1016 735.492 97.3516C736.964 98.5885 737.719 100.333 737.758 102.586V112.117C737.758 114.018 738.025 115.535 738.559 116.668V117H733.715ZM728.5 113.582C729.438 113.582 730.316 113.354 731.137 112.898C731.97 112.443 732.595 111.831 733.012 111.062V107.078H730.453C728.695 107.078 727.374 107.384 726.488 107.996C725.603 108.608 725.16 109.474 725.16 110.594C725.16 111.505 725.46 112.234 726.059 112.781C726.671 113.315 727.484 113.582 728.5 113.582Z" fill="white"/>
<path d="M753.949 117V99.3828H750.727V95.8672H753.949V94.4219C753.962 92.7682 754.314 91.349 755.004 90.1641C755.694 88.9792 756.671 88.0872 757.934 87.4883C759.197 86.8893 760.714 86.5898 762.484 86.5898C763.526 86.5898 764.522 86.7005 765.473 86.9219C766.436 87.1432 767.432 87.4232 768.461 87.7617L767.738 91.6875C765.941 91.0625 764.301 90.75 762.816 90.75C761.371 90.75 760.323 91.069 759.672 91.707C759.021 92.332 758.695 93.276 758.695 94.5391V95.8672H762.855V99.3828H758.695V117H753.949ZM770.707 117H765.961V95.8672H770.707V117Z" fill="white"/>
<path d="M775.141 106.277C775.141 102.996 775.909 100.379 777.445 98.4258C778.995 96.4596 781.046 95.4766 783.598 95.4766C786.007 95.4766 787.901 96.3164 789.281 97.9961L789.496 95.8672H793.773V116.355C793.773 119.129 792.908 121.316 791.176 122.918C789.457 124.52 787.133 125.32 784.203 125.32C782.654 125.32 781.137 124.995 779.652 124.344C778.181 123.706 777.061 122.866 776.293 121.824L778.539 118.973C779.997 120.704 781.794 121.57 783.93 121.57C785.505 121.57 786.749 121.141 787.66 120.281C788.572 119.435 789.027 118.185 789.027 116.531V115.105C787.66 116.629 785.837 117.391 783.559 117.391C781.085 117.391 779.06 116.408 777.484 114.441C775.922 112.475 775.141 109.754 775.141 106.277ZM779.867 106.688C779.867 108.81 780.297 110.483 781.156 111.707C782.029 112.918 783.233 113.523 784.77 113.523C786.684 113.523 788.103 112.703 789.027 111.062V101.766C788.129 100.164 786.723 99.3633 784.809 99.3633C783.246 99.3633 782.029 99.9818 781.156 101.219C780.297 102.456 779.867 104.279 779.867 106.688Z" fill="white"/>
<path d="M811.469 114.93C810.076 116.57 808.096 117.391 805.531 117.391C803.24 117.391 801.501 116.72 800.316 115.379C799.145 114.038 798.559 112.098 798.559 109.559V95.8672H803.305V109.5C803.305 112.182 804.418 113.523 806.645 113.523C808.949 113.523 810.505 112.697 811.312 111.043V95.8672H816.059V117H811.586L811.469 114.93Z" fill="white"/>
<path d="M831.957 100.203C831.332 100.099 830.688 100.047 830.023 100.047C827.849 100.047 826.384 100.88 825.629 102.547V117H820.883V95.8672H825.414L825.531 98.2305C826.677 96.3945 828.266 95.4766 830.297 95.4766C830.974 95.4766 831.534 95.5677 831.977 95.75L831.957 100.203Z" fill="white"/>
<path d="M846.996 117C846.788 116.596 846.605 115.939 846.449 115.027C844.939 116.603 843.09 117.391 840.902 117.391C838.78 117.391 837.048 116.785 835.707 115.574C834.366 114.363 833.695 112.866 833.695 111.082C833.695 108.829 834.529 107.104 836.195 105.906C837.875 104.695 840.271 104.09 843.383 104.09H846.293V102.703C846.293 101.609 845.987 100.737 845.375 100.086C844.763 99.4219 843.832 99.0898 842.582 99.0898C841.501 99.0898 840.616 99.3633 839.926 99.9102C839.236 100.444 838.891 101.128 838.891 101.961H834.145C834.145 100.802 834.529 99.7214 835.297 98.7188C836.065 97.7031 837.107 96.9089 838.422 96.3359C839.75 95.763 841.228 95.4766 842.855 95.4766C845.329 95.4766 847.302 96.1016 848.773 97.3516C850.245 98.5885 851 100.333 851.039 102.586V112.117C851.039 114.018 851.306 115.535 851.84 116.668V117H846.996ZM841.781 113.582C842.719 113.582 843.598 113.354 844.418 112.898C845.251 112.443 845.876 111.831 846.293 111.062V107.078H843.734C841.977 107.078 840.655 107.384 839.77 107.996C838.884 108.608 838.441 109.474 838.441 110.594C838.441 111.505 838.741 112.234 839.34 112.781C839.952 113.315 840.766 113.582 841.781 113.582Z" fill="white"/>
<path d="M860.414 108.641C860.414 106.909 860.629 105.529 861.059 104.5C861.488 103.471 862.335 102.345 863.598 101.121C864.874 99.8841 865.681 99.0052 866.02 98.4844C866.54 97.6901 866.801 96.8307 866.801 95.9062C866.801 94.6823 866.495 93.7513 865.883 93.1133C865.284 92.4622 864.398 92.1367 863.227 92.1367C862.107 92.1367 861.202 92.4557 860.512 93.0938C859.835 93.7188 859.496 94.5716 859.496 95.6523H854.75C854.776 93.3477 855.557 91.5247 857.094 90.1836C858.643 88.8424 860.688 88.1719 863.227 88.1719C865.844 88.1719 867.882 88.8359 869.34 90.1641C870.811 91.4922 871.547 93.3477 871.547 95.7305C871.547 97.8529 870.557 99.9427 868.578 102L866.176 104.363C865.316 105.34 864.874 106.766 864.848 108.641H860.414ZM860.082 114.715C860.082 113.947 860.323 113.328 860.805 112.859C861.286 112.378 861.938 112.137 862.758 112.137C863.591 112.137 864.249 112.384 864.73 112.879C865.212 113.361 865.453 113.973 865.453 114.715C865.453 115.431 865.219 116.03 864.75 116.512C864.281 116.993 863.617 117.234 862.758 117.234C861.898 117.234 861.234 116.993 860.766 116.512C860.31 116.03 860.082 115.431 860.082 114.715Z" fill="white"/>
</g>
<g id="Group 75">
<path id="Rectangle 16 (Stroke)" fill-rule="evenodd" clip-rule="evenodd" d="M361 197H297V261H361V197ZM294 194V264H364V194H294Z" fill="white"/>
<path id="Rectangle 17 (Stroke)" fill-rule="evenodd" clip-rule="evenodd" d="M396 232H332V296H396V232ZM329 229V299H399V229H329Z" fill="white"/>
<path id="Rectangle 18 (Stroke)" fill-rule="evenodd" clip-rule="evenodd" d="M428 264H364V328H428V264ZM361 261V331H431V261H361Z" fill="white"/>
<path id="Rectangle 19 (Stroke)" fill-rule="evenodd" clip-rule="evenodd" d="M463 299H399V363H463V299ZM396 296V366H466V296H396Z" fill="white"/>
<path id="Rectangle 20 (Stroke)" fill-rule="evenodd" clip-rule="evenodd" d="M585 403H521V467H585V403ZM518 400V470H588V400H518Z" fill="white"/>
<path id="Rectangle 21 (Stroke)" fill-rule="evenodd" clip-rule="evenodd" d="M620 438H556V502H620V438ZM553 435V505H623V435H553Z" fill="white"/>
<path id="Line 7 (Stroke)" fill-rule="evenodd" clip-rule="evenodd" d="M466.319 298.615C466.495 298.402 466.81 298.372 467.023 298.549L468.917 300.117C469.13 300.293 469.159 300.608 468.983 300.821C468.807 301.033 468.492 301.063 468.279 300.887L466.385 299.319C466.172 299.143 466.143 298.828 466.319 298.615ZM472.001 303.319C472.178 303.107 472.493 303.077 472.705 303.253L476.494 306.389C476.707 306.565 476.736 306.881 476.56 307.093C476.384 307.306 476.069 307.336 475.856 307.16L472.068 304.023C471.855 303.847 471.825 303.532 472.001 303.319ZM479.578 309.592C479.754 309.379 480.07 309.35 480.282 309.526L484.071 312.662C484.283 312.838 484.313 313.153 484.137 313.366C483.961 313.579 483.646 313.608 483.433 313.432L479.645 310.296C479.432 310.12 479.402 309.805 479.578 309.592ZM487.155 315.865C487.331 315.652 487.646 315.622 487.859 315.798L491.648 318.935C491.86 319.111 491.89 319.426 491.714 319.639C491.538 319.851 491.223 319.881 491.01 319.705L487.221 316.569C487.009 316.393 486.979 316.077 487.155 315.865ZM494.732 322.137C494.908 321.925 495.223 321.895 495.436 322.071L499.224 325.207C499.437 325.383 499.467 325.699 499.291 325.911C499.115 326.124 498.799 326.154 498.587 325.978L494.798 322.841C494.586 322.665 494.556 322.35 494.732 322.137ZM502.309 328.41C502.485 328.197 502.8 328.168 503.013 328.344L506.801 331.48C507.014 331.656 507.044 331.971 506.868 332.184C506.692 332.397 506.376 332.426 506.164 332.25L502.375 329.114C502.163 328.938 502.133 328.623 502.309 328.41ZM509.886 334.683C510.062 334.47 510.377 334.44 510.59 334.616L514.378 337.753C514.591 337.929 514.621 338.244 514.444 338.457C514.268 338.669 513.953 338.699 513.74 338.523L509.952 335.387C509.739 335.21 509.71 334.895 509.886 334.683ZM517.463 340.955C517.639 340.743 517.954 340.713 518.167 340.889L521.955 344.025C522.168 344.201 522.197 344.517 522.021 344.729C521.845 344.942 521.53 344.972 521.317 344.796L517.529 341.659C517.316 341.483 517.287 341.168 517.463 340.955ZM525.039 347.228C525.216 347.015 525.531 346.985 525.743 347.162L529.532 350.298C529.745 350.474 529.774 350.789 529.598 351.002C529.422 351.215 529.107 351.244 528.894 351.068L525.106 347.932C524.893 347.756 524.863 347.441 525.039 347.228ZM532.616 353.501C532.792 353.288 533.108 353.258 533.32 353.434L537.109 356.571C537.321 356.747 537.351 357.062 537.175 357.275C536.999 357.487 536.684 357.517 536.471 357.341L532.683 354.205C532.47 354.028 532.44 353.713 532.616 353.501ZM540.193 359.773C540.369 359.56 540.684 359.531 540.897 359.707L544.686 362.843C544.898 363.019 544.928 363.334 544.752 363.547C544.576 363.76 544.261 363.79 544.048 363.613L540.259 360.477C540.047 360.301 540.017 359.986 540.193 359.773ZM547.77 366.046C547.946 365.833 548.261 365.803 548.474 365.979L552.262 369.116C552.475 369.292 552.505 369.607 552.329 369.82C552.153 370.033 551.837 370.062 551.625 369.886L547.836 366.75C547.624 366.574 547.594 366.258 547.77 366.046ZM555.347 372.318C555.523 372.106 555.838 372.076 556.051 372.252L559.839 375.388C560.052 375.565 560.082 375.88 559.906 376.092C559.73 376.305 559.414 376.335 559.202 376.159L555.413 373.022C555.2 372.846 555.171 372.531 555.347 372.318ZM562.924 378.591C563.1 378.378 563.415 378.349 563.628 378.525L567.416 381.661C567.629 381.837 567.659 382.152 567.482 382.365C567.306 382.578 566.991 382.607 566.778 382.431L562.99 379.295C562.777 379.119 562.748 378.804 562.924 378.591ZM570.501 384.864C570.677 384.651 570.992 384.621 571.205 384.797L574.993 387.934C575.206 388.11 575.235 388.425 575.059 388.638C574.883 388.85 574.568 388.88 574.355 388.704L570.567 385.568C570.354 385.392 570.324 385.076 570.501 384.864ZM578.077 391.136C578.254 390.924 578.569 390.894 578.781 391.07L582.57 394.206C582.783 394.382 582.812 394.698 582.636 394.91C582.46 395.123 582.145 395.153 581.932 394.977L578.144 391.84C577.931 391.664 577.901 391.349 578.077 391.136ZM585.654 397.409C585.83 397.196 586.146 397.167 586.358 397.343L588.253 398.911C588.465 399.087 588.495 399.402 588.319 399.615C588.143 399.828 587.828 399.857 587.615 399.681L585.721 398.113C585.508 397.937 585.478 397.622 585.654 397.409Z" fill="white"/>
<path id="Line 8 (Stroke)" fill-rule="evenodd" clip-rule="evenodd" d="M399.319 365.615C399.495 365.402 399.81 365.372 400.023 365.549L401.917 367.117C402.13 367.293 402.159 367.608 401.983 367.821C401.807 368.033 401.492 368.063 401.279 367.887L399.385 366.319C399.172 366.143 399.143 365.828 399.319 365.615ZM405.001 370.319C405.178 370.107 405.493 370.077 405.705 370.253L409.494 373.389C409.707 373.565 409.736 373.881 409.56 374.093C409.384 374.306 409.069 374.336 408.856 374.16L405.068 371.023C404.855 370.847 404.825 370.532 405.001 370.319ZM412.578 376.592C412.754 376.379 413.07 376.35 413.282 376.526L417.071 379.662C417.283 379.838 417.313 380.153 417.137 380.366C416.961 380.579 416.646 380.608 416.433 380.432L412.645 377.296C412.432 377.12 412.402 376.805 412.578 376.592ZM420.155 382.865C420.331 382.652 420.646 382.622 420.859 382.798L424.648 385.935C424.86 386.111 424.89 386.426 424.714 386.639C424.538 386.851 424.223 386.881 424.01 386.705L420.221 383.569C420.009 383.393 419.979 383.077 420.155 382.865ZM427.732 389.137C427.908 388.925 428.223 388.895 428.436 389.071L432.224 392.207C432.437 392.383 432.467 392.699 432.291 392.911C432.115 393.124 431.799 393.154 431.587 392.978L427.798 389.841C427.586 389.665 427.556 389.35 427.732 389.137ZM435.309 395.41C435.485 395.197 435.8 395.168 436.013 395.344L439.801 398.48C440.014 398.656 440.044 398.971 439.868 399.184C439.692 399.397 439.376 399.426 439.164 399.25L435.375 396.114C435.163 395.938 435.133 395.623 435.309 395.41ZM442.886 401.683C443.062 401.47 443.377 401.44 443.59 401.616L447.378 404.753C447.591 404.929 447.621 405.244 447.444 405.457C447.268 405.669 446.953 405.699 446.74 405.523L442.952 402.387C442.739 402.21 442.71 401.895 442.886 401.683ZM450.463 407.955C450.639 407.743 450.954 407.713 451.167 407.889L454.955 411.025C455.168 411.201 455.197 411.517 455.021 411.729C454.845 411.942 454.53 411.972 454.317 411.796L450.529 408.659C450.316 408.483 450.287 408.168 450.463 407.955ZM458.039 414.228C458.216 414.015 458.531 413.985 458.743 414.162L462.532 417.298C462.745 417.474 462.774 417.789 462.598 418.002C462.422 418.215 462.107 418.244 461.894 418.068L458.106 414.932C457.893 414.756 457.863 414.441 458.039 414.228ZM465.616 420.501C465.792 420.288 466.108 420.258 466.32 420.434L470.109 423.571C470.321 423.747 470.351 424.062 470.175 424.275C469.999 424.487 469.684 424.517 469.471 424.341L465.683 421.205C465.47 421.028 465.44 420.713 465.616 420.501ZM473.193 426.773C473.369 426.56 473.684 426.531 473.897 426.707L477.686 429.843C477.898 430.019 477.928 430.334 477.752 430.547C477.576 430.76 477.261 430.79 477.048 430.613L473.259 427.477C473.047 427.301 473.017 426.986 473.193 426.773ZM480.77 433.046C480.946 432.833 481.261 432.803 481.474 432.979L485.262 436.116C485.475 436.292 485.505 436.607 485.329 436.82C485.153 437.033 484.837 437.062 484.625 436.886L480.836 433.75C480.624 433.574 480.594 433.258 480.77 433.046ZM488.347 439.318C488.523 439.106 488.838 439.076 489.051 439.252L492.839 442.388C493.052 442.565 493.082 442.88 492.906 443.092C492.73 443.305 492.414 443.335 492.202 443.159L488.413 440.022C488.2 439.846 488.171 439.531 488.347 439.318ZM495.924 445.591C496.1 445.378 496.415 445.349 496.628 445.525L500.416 448.661C500.629 448.837 500.659 449.152 500.482 449.365C500.306 449.578 499.991 449.607 499.778 449.431L495.99 446.295C495.777 446.119 495.748 445.804 495.924 445.591ZM503.501 451.864C503.677 451.651 503.992 451.621 504.205 451.797L507.993 454.934C508.206 455.11 508.235 455.425 508.059 455.638C507.883 455.85 507.568 455.88 507.355 455.704L503.567 452.568C503.354 452.392 503.324 452.076 503.501 451.864ZM511.077 458.136C511.254 457.924 511.569 457.894 511.781 458.07L515.57 461.206C515.783 461.382 515.812 461.698 515.636 461.91C515.46 462.123 515.145 462.153 514.932 461.977L511.144 458.84C510.931 458.664 510.901 458.349 511.077 458.136ZM518.654 464.409C518.83 464.196 519.146 464.167 519.358 464.343L521.253 465.911C521.465 466.087 521.495 466.402 521.319 466.615C521.143 466.828 520.828 466.857 520.615 466.681L518.721 465.113C518.508 464.937 518.478 464.622 518.654 464.409Z" fill="white"/>
<path id="Line 9 (Stroke)" fill-rule="evenodd" clip-rule="evenodd" d="M466.306 365.604C466.475 365.386 466.789 365.346 467.007 365.514L469.168 367.184C469.386 367.353 469.426 367.667 469.257 367.885C469.089 368.104 468.775 368.144 468.556 367.975L466.396 366.306C466.177 366.137 466.137 365.823 466.306 365.604ZM472.787 370.613C472.956 370.394 473.27 370.354 473.488 370.523L477.809 373.862C478.028 374.03 478.068 374.344 477.899 374.563C477.73 374.781 477.416 374.822 477.198 374.653L472.877 371.314C472.658 371.145 472.618 370.831 472.787 370.613ZM481.429 377.29C481.598 377.072 481.912 377.032 482.13 377.2L486.451 380.539C486.67 380.708 486.71 381.022 486.541 381.241C486.372 381.459 486.058 381.499 485.84 381.331L481.519 377.992C481.3 377.823 481.26 377.509 481.429 377.29ZM490.071 383.968C490.239 383.75 490.553 383.709 490.772 383.878L495.093 387.217C495.311 387.386 495.352 387.7 495.183 387.918C495.014 388.137 494.7 388.177 494.481 388.008L490.16 384.669C489.942 384.501 489.902 384.187 490.071 383.968ZM498.712 390.646C498.881 390.427 499.195 390.387 499.414 390.556L503.734 393.895C503.953 394.064 503.993 394.378 503.824 394.596C503.656 394.815 503.342 394.855 503.123 394.686L498.802 391.347C498.584 391.178 498.543 390.864 498.712 390.646ZM507.354 397.324C507.523 397.105 507.837 397.065 508.055 397.234L510.216 398.903C510.434 399.072 510.475 399.386 510.306 399.604C510.137 399.823 509.823 399.863 509.604 399.694L507.444 398.025C507.225 397.856 507.185 397.542 507.354 397.324Z" fill="white"/>
<path id="1" d="M365.814 181H362.545V159.326L355.988 161.734V158.781L365.305 155.283H365.814V181Z" fill="white"/>
<path id="2" d="M403.896 219H387.127V216.662L395.986 206.818C397.299 205.33 398.201 204.123 398.693 203.197C399.197 202.26 399.449 201.293 399.449 200.297C399.449 198.961 399.045 197.865 398.236 197.01C397.428 196.154 396.35 195.727 395.002 195.727C393.385 195.727 392.125 196.189 391.223 197.115C390.332 198.029 389.887 199.307 389.887 200.947H386.635C386.635 198.592 387.391 196.688 388.902 195.234C390.426 193.781 392.459 193.055 395.002 193.055C397.381 193.055 399.262 193.682 400.645 194.936C402.027 196.178 402.719 197.836 402.719 199.91C402.719 202.43 401.113 205.43 397.902 208.91L391.047 216.346H403.896V219Z" fill="white"/>
<path id="3" d="M426.855 230.621H429.299C430.834 230.598 432.041 230.193 432.92 229.408C433.799 228.623 434.238 227.562 434.238 226.227C434.238 223.227 432.744 221.727 429.756 221.727C428.35 221.727 427.225 222.131 426.381 222.939C425.549 223.736 425.133 224.797 425.133 226.121H421.881C421.881 224.094 422.619 222.412 424.096 221.076C425.584 219.729 427.471 219.055 429.756 219.055C432.17 219.055 434.062 219.693 435.434 220.971C436.805 222.248 437.49 224.023 437.49 226.297C437.49 227.41 437.127 228.488 436.4 229.531C435.686 230.574 434.707 231.354 433.465 231.869C434.871 232.314 435.955 233.053 436.717 234.084C437.49 235.115 437.877 236.375 437.877 237.863C437.877 240.16 437.127 241.982 435.627 243.33C434.127 244.678 432.176 245.352 429.773 245.352C427.371 245.352 425.414 244.701 423.902 243.4C422.402 242.1 421.652 240.383 421.652 238.25H424.922C424.922 239.598 425.361 240.676 426.24 241.484C427.119 242.293 428.297 242.697 429.773 242.697C431.344 242.697 432.545 242.287 433.377 241.467C434.209 240.646 434.625 239.469 434.625 237.934C434.625 236.445 434.168 235.303 433.254 234.506C432.34 233.709 431.021 233.299 429.299 233.275H426.855V230.621Z" fill="white"/>
<path id="4" d="M464.855 277.404H468.406V280.059H464.855V286H461.586V280.059H449.932V278.143L461.393 260.406H464.855V277.404ZM453.623 277.404H461.586V264.854L461.199 265.557L453.623 277.404Z" fill="white"/>
<g id="n-1">
<path d="M582.537 358.98L582.643 361.371C584.096 359.543 585.994 358.629 588.338 358.629C592.357 358.629 594.385 360.896 594.42 365.432V378H591.168V365.414C591.156 364.043 590.84 363.029 590.219 362.373C589.609 361.717 588.654 361.389 587.354 361.389C586.299 361.389 585.373 361.67 584.576 362.232C583.779 362.795 583.158 363.533 582.713 364.447V378H579.461V358.98H582.537Z" fill="white"/>
<path d="M606.092 368.455H597.514V365.801H606.092V368.455Z" fill="white"/>
<path d="M619.627 378H616.357V356.326L609.801 358.734V355.781L619.117 352.283H619.627V378Z" fill="white"/>
</g>
<path id="n" d="M617.537 402.98L617.643 405.371C619.096 403.543 620.994 402.629 623.338 402.629C627.357 402.629 629.385 404.896 629.42 409.432V422H626.168V409.414C626.156 408.043 625.84 407.029 625.219 406.373C624.609 405.717 623.654 405.389 622.354 405.389C621.299 405.389 620.373 405.67 619.576 406.232C618.779 406.795 618.158 407.533 617.713 408.447V422H614.461V402.98H617.537Z" fill="white"/>
</g>
</g>
<g id="claves">
<g id="Group 21">
<path id="Rectangle 4" d="M39 592H255.745L289 632L255.745 672H39V592Z" fill="#CD08D1" fill-opacity="0.1"/>
<path id="Rectangle 4 (Stroke)" fill-rule="evenodd" clip-rule="evenodd" d="M254.338 595H42V669H254.338L285.099 632L254.338 595ZM255.745 592H39V672H255.745L289 632L255.745 592Z" fill="#CD08D1"/>
<path id="Ellipse 1" d="M80 632C80 654.091 62.0914 672 40 672C17.9086 672 0 654.091 0 632C0 609.909 17.9086 592 40 592C62.0914 592 80 609.909 80 632Z" fill="#CD08D1"/>
<path id="A" d="M48.0938 642.406H30.4688L26.7812 653H18.5625L35.75 607.5H42.8438L60.0625 653H51.8125L48.0938 642.406ZM32.6875 636.031H45.875L39.2812 617.156L32.6875 636.031Z" fill="white"/>
</g>
<g id="Group 17">
<path id="Rectangle 5" d="M382 592H598.745L632 632L598.745 672H382V592Z" fill="#CD08D1" fill-opacity="0.1"/>
<path id="Rectangle 5 (Stroke)" fill-rule="evenodd" clip-rule="evenodd" d="M597.338 595H385V669H597.338L628.099 632L597.338 595ZM598.745 592H382V672H598.745L632 632L598.745 592Z" fill="#CD08D1"/>
<path id="Ellipse 2" d="M423 632C423 654.091 405.091 672 383 672C360.909 672 343 654.091 343 632C343 609.909 360.909 592 383 592C405.091 592 423 609.909 423 632Z" fill="#CD08D1"/>
<path id="B" d="M366.625 648V602.5H382.219C387.365 602.5 391.281 603.531 393.969 605.594C396.656 607.656 398 610.729 398 614.812C398 616.896 397.438 618.771 396.312 620.438C395.188 622.104 393.542 623.396 391.375 624.312C393.833 624.979 395.729 626.24 397.062 628.094C398.417 629.927 399.094 632.135 399.094 634.719C399.094 638.99 397.719 642.271 394.969 644.562C392.24 646.854 388.323 648 383.219 648H366.625ZM374.531 627.469V641.688H383.312C385.792 641.688 387.729 641.073 389.125 639.844C390.521 638.615 391.219 636.906 391.219 634.719C391.219 629.99 388.802 627.573 383.969 627.469H374.531ZM374.531 621.656H382.281C384.74 621.656 386.656 621.104 388.031 620C389.427 618.875 390.125 617.292 390.125 615.25C390.125 613 389.479 611.375 388.188 610.375C386.917 609.375 384.927 608.875 382.219 608.875H374.531V621.656Z" fill="white"/>
</g>
<g id="Group 18">
<path id="Rectangle 6" d="M740 648H956.745L990 688L956.745 728H740V648Z" fill="#CD08D1" fill-opacity="0.1"/>
<path id="Rectangle 6 (Stroke)" fill-rule="evenodd" clip-rule="evenodd" d="M955.338 651H743V725H955.338L986.099 688L955.338 651ZM956.745 648H740V728H956.745L990 688L956.745 648Z" fill="#CD08D1"/>
<path id="Ellipse 3" d="M781 688C781 710.091 763.091 728 741 728C718.909 728 701 710.091 701 688C701 665.909 718.909 648 741 648C763.091 648 781 665.909 781 688Z" fill="#CD08D1"/>
<path id="C" d="M758.344 695.188C757.885 700.042 756.094 703.833 752.969 706.562C749.844 709.271 745.688 710.625 740.5 710.625C736.875 710.625 733.677 709.771 730.906 708.062C728.156 706.333 726.031 703.885 724.531 700.719C723.031 697.552 722.25 693.875 722.188 689.688V685.438C722.188 681.146 722.948 677.365 724.469 674.094C725.99 670.823 728.167 668.302 731 666.531C733.854 664.76 737.146 663.875 740.875 663.875C745.896 663.875 749.938 665.24 753 667.969C756.062 670.698 757.844 674.552 758.344 679.531H750.469C750.094 676.26 749.135 673.906 747.594 672.469C746.073 671.01 743.833 670.281 740.875 670.281C737.438 670.281 734.792 671.542 732.938 674.062C731.104 676.562 730.167 680.24 730.125 685.094V689.125C730.125 694.042 731 697.792 732.75 700.375C734.521 702.958 737.104 704.25 740.5 704.25C743.604 704.25 745.938 703.552 747.5 702.156C749.062 700.76 750.052 698.438 750.469 695.188H758.344Z" fill="white"/>
</g>
<g id="Group 19">
<path id="Rectangle 7" d="M40 697H256.745L290 737L256.745 777H40V697Z" fill="#CD08D1" fill-opacity="0.1"/>
<path id="Rectangle 7 (Stroke)" fill-rule="evenodd" clip-rule="evenodd" d="M255.338 700H43V774H255.338L286.099 737L255.338 700ZM256.745 697H40V777H256.745L290 737L256.745 697Z" fill="#CD08D1"/>
<path id="Ellipse 4" d="M81 737C81 759.091 63.0914 777 41 777C18.9086 777 1 759.091 1 737C1 714.909 18.9086 697 41 697C63.0914 697 81 714.909 81 737Z" fill="#CD08D1"/>
<path id="D" d="M23.625 759V713.5H37.0625C41.0833 713.5 44.6458 714.396 47.75 716.188C50.875 717.979 53.2917 720.521 55 723.812C56.7083 727.104 57.5625 730.875 57.5625 735.125V737.406C57.5625 741.719 56.6979 745.51 54.9688 748.781C53.2604 752.052 50.8125 754.573 47.625 756.344C44.4583 758.115 40.8229 759 36.7188 759H23.625ZM31.5312 719.875V752.688H36.6875C40.8333 752.688 44.0104 751.396 46.2188 748.812C48.4479 746.208 49.5833 742.479 49.625 737.625V735.094C49.625 730.156 48.5521 726.385 46.4062 723.781C44.2604 721.177 41.1458 719.875 37.0625 719.875H31.5312Z" fill="white"/>
</g>
<g id="Group 20">
<path id="Rectangle 8" d="M382 697H598.745L632 737L598.745 777H382V697Z" fill="#CD08D1" fill-opacity="0.1"/>
<path id="Rectangle 8 (Stroke)" fill-rule="evenodd" clip-rule="evenodd" d="M597.338 700H385V774H597.338L628.099 737L597.338 700ZM598.745 697H382V777H598.745L632 737L598.745 697Z" fill="#CD08D1"/>
<path id="Ellipse 5" d="M423 737C423 759.091 405.091 777 383 777C360.909 777 343 759.091 343 737C343 714.909 360.909 697 383 697C405.091 697 423 714.909 423 737Z" fill="#CD08D1"/>
<path id="E" d="M392.219 738.688H373.531V752.688H395.375V759H365.625V713.5H395.156V719.875H373.531V732.438H392.219V738.688Z" fill="white"/>
</g>
<g id="flecha">
<path id="Rectangle 2" d="M744.2 653.008L759.482 661.133L717.5 740.089L702.219 731.963L744.2 653.008Z" fill="#1043F5"/>
<path id="Rectangle 1_2" d="M686 665.904L776 616V673.692L731 656.096L686 665.904Z" fill="#1043F5"/>
<path id="Rectangle 3" d="M690.038 735.21L705.666 708.143L722.936 707.565L707.309 734.632L690.038 735.21Z" fill="#1043F5"/>
<path id="Rectangle 4_2" d="M716.089 749.845L731.717 722.778L722.926 707.154L707.299 734.221L716.089 749.845Z" fill="#1043F5"/>
</g>
<g id="4n + 2 4n &#226;&#128;&#147; 2 4n &#226;&#128;&#147; 5 4(n &#226;&#128;&#147; 1) 4(n &#226;&#128;&#147; 3)">
<path d="M121.184 634.863H124.719V638.672H121.184V645H116.438V638.672H104.152L104.016 635.781L116.281 616.562H121.184V634.863ZM108.996 634.863H116.438V622.988L116.086 623.613L108.996 634.863Z" fill="#CD08D1"/>
<path d="M132.57 623.867L132.707 626.309C134.27 624.421 136.32 623.477 138.859 623.477C143.26 623.477 145.5 625.996 145.578 631.035V645H140.832V631.309C140.832 629.967 140.539 628.978 139.953 628.34C139.38 627.689 138.436 627.363 137.121 627.363C135.207 627.363 133.781 628.229 132.844 629.961V645H128.098V623.867H132.57Z" fill="#CD08D1"/>
<path d="M171.359 629.355H178.781V633.691H171.359V642.148H166.75V633.691H159.289V629.355H166.75V621.445H171.359V629.355Z" fill="#CD08D1"/>
<path d="M211.477 645H192.355V641.738L201.828 631.406C203.195 629.883 204.165 628.613 204.738 627.598C205.324 626.569 205.617 625.54 205.617 624.512C205.617 623.158 205.233 622.064 204.465 621.23C203.71 620.397 202.688 619.98 201.398 619.98C199.862 619.98 198.671 620.449 197.824 621.387C196.978 622.324 196.555 623.607 196.555 625.234H191.809C191.809 623.503 192.199 621.947 192.98 620.566C193.775 619.173 194.901 618.092 196.359 617.324C197.831 616.556 199.523 616.172 201.438 616.172C204.198 616.172 206.372 616.868 207.961 618.262C209.562 619.642 210.363 621.556 210.363 624.004C210.363 625.423 209.96 626.914 209.152 628.477C208.358 630.026 207.049 631.79 205.227 633.77L198.273 641.211H211.477V645Z" fill="#CD08D1"/>
<path d="M460.246 634.863H463.781V638.672H460.246V645H455.5V638.672H443.215L443.078 635.781L455.344 616.562H460.246V634.863ZM448.059 634.863H455.5V622.988L455.148 623.613L448.059 634.863Z" fill="#CD08D1"/>
<path d="M471.633 623.867L471.77 626.309C473.332 624.421 475.383 623.477 477.922 623.477C482.323 623.477 484.562 625.996 484.641 631.035V645H479.895V631.309C479.895 629.967 479.602 628.978 479.016 628.34C478.443 627.689 477.499 627.363 476.184 627.363C474.27 627.363 472.844 628.229 471.906 629.961V645H467.16V623.867H471.633Z" fill="#CD08D1"/>
<path d="M519.973 632.871H500.09V629.043H519.973V632.871Z" fill="#CD08D1"/>
<path d="M554.055 645H534.934V641.738L544.406 631.406C545.773 629.883 546.743 628.613 547.316 627.598C547.902 626.569 548.195 625.54 548.195 624.512C548.195 623.158 547.811 622.064 547.043 621.23C546.288 620.397 545.266 619.98 543.977 619.98C542.44 619.98 541.249 620.449 540.402 621.387C539.556 622.324 539.133 623.607 539.133 625.234H534.387C534.387 623.503 534.777 621.947 535.559 620.566C536.353 619.173 537.479 618.092 538.938 617.324C540.409 616.556 542.102 616.172 544.016 616.172C546.776 616.172 548.951 616.868 550.539 618.262C552.141 619.642 552.941 621.556 552.941 624.004C552.941 625.423 552.538 626.914 551.73 628.477C550.936 630.026 549.628 631.79 547.805 633.77L540.852 641.211H554.055V645Z" fill="#CD08D1"/>
<path d="M818.449 685.863H821.984V689.672H818.449V696H813.703V689.672H801.418L801.281 686.781L813.547 667.562H818.449V685.863ZM806.262 685.863H813.703V673.988L813.352 674.613L806.262 685.863Z" fill="#CD08D1"/>
<path d="M829.836 674.867L829.973 677.309C831.535 675.421 833.586 674.477 836.125 674.477C840.526 674.477 842.766 676.996 842.844 682.035V696H838.098V682.309C838.098 680.967 837.805 679.978 837.219 679.34C836.646 678.689 835.702 678.363 834.387 678.363C832.473 678.363 831.047 679.229 830.109 680.961V696H825.363V674.867H829.836Z" fill="#CD08D1"/>
<path d="M878.176 683.871H858.293V680.043H878.176V683.871Z" fill="#CD08D1"/>
<path d="M894.406 681.898L895.949 667.562H911.223V671.664H899.895L899.113 678.461C900.428 677.706 901.913 677.328 903.566 677.328C906.275 677.328 908.378 678.194 909.875 679.926C911.385 681.658 912.141 683.988 912.141 686.918C912.141 689.809 911.307 692.113 909.641 693.832C907.974 695.538 905.689 696.391 902.785 696.391C900.181 696.391 898.02 695.655 896.301 694.184C894.595 692.699 893.671 690.746 893.527 688.324H898.117C898.299 689.704 898.794 690.766 899.602 691.508C900.409 692.237 901.464 692.602 902.766 692.602C904.224 692.602 905.357 692.081 906.164 691.039C906.984 689.997 907.395 688.578 907.395 686.781C907.395 685.049 906.945 683.682 906.047 682.68C905.148 681.664 903.911 681.156 902.336 681.156C901.477 681.156 900.747 681.273 900.148 681.508C899.549 681.729 898.898 682.172 898.195 682.836L894.406 681.898Z" fill="#CD08D1"/>
<path d="M121.184 736.863H124.719V740.672H121.184V747H116.438V740.672H104.152L104.016 737.781L116.281 718.562H121.184V736.863ZM108.996 736.863H116.438V724.988L116.086 725.613L108.996 736.863Z" fill="#CD08D1"/>
<path d="M128.234 735.438C128.234 732.43 128.638 729.578 129.445 726.883C130.253 724.174 131.438 721.759 133 719.637C134.562 717.501 136.216 716.004 137.961 715.145L138.898 717.918C137.062 719.311 135.572 721.44 134.426 724.305C133.293 727.156 132.674 730.424 132.57 734.109L132.551 735.789C132.551 739.734 133.104 743.257 134.211 746.355C135.331 749.441 136.893 751.792 138.898 753.406L137.961 756.043C136.216 755.184 134.556 753.68 132.98 751.531C131.418 749.396 130.233 746.987 129.426 744.305C128.632 741.609 128.234 738.654 128.234 735.438Z" fill="#CD08D1"/>
<path d="M146.516 725.867L146.652 728.309C148.215 726.421 150.266 725.477 152.805 725.477C157.206 725.477 159.445 727.996 159.523 733.035V747H154.777V733.309C154.777 731.967 154.484 730.978 153.898 730.34C153.326 729.689 152.382 729.363 151.066 729.363C149.152 729.363 147.727 730.229 146.789 731.961V747H142.043V725.867H146.516Z" fill="#CD08D1"/>
<path d="M194.855 734.871H174.973V731.043H194.855V734.871Z" fill="#CD08D1"/>
<path d="M222.668 747H217.941V724.168L210.969 726.551V722.547L222.062 718.465H222.668V747Z" fill="#CD08D1"/>
<path d="M242.004 735.75C242.004 738.641 241.607 741.434 240.812 744.129C240.018 746.811 238.814 749.253 237.199 751.453C235.585 753.667 233.898 755.197 232.141 756.043L231.203 753.406C233.156 751.896 234.699 749.591 235.832 746.492C236.978 743.38 237.551 739.832 237.551 735.848V735.398C237.551 731.779 237.056 728.484 236.066 725.516C235.077 722.534 233.658 720.145 231.809 718.348L231.203 717.801L232.141 715.145C233.807 715.952 235.422 717.384 236.984 719.441C238.547 721.499 239.745 723.803 240.578 726.355C241.411 728.895 241.88 731.518 241.984 734.227L242.004 735.75Z" fill="#CD08D1"/>
<path d="M461.926 736.863H465.461V740.672H461.926V747H457.18V740.672H444.895L444.758 737.781L457.023 718.562H461.926V736.863ZM449.738 736.863H457.18V724.988L456.828 725.613L449.738 736.863Z" fill="#CD08D1"/>
<path d="M468.977 735.438C468.977 732.43 469.38 729.578 470.188 726.883C470.995 724.174 472.18 721.759 473.742 719.637C475.305 717.501 476.958 716.004 478.703 715.145L479.641 717.918C477.805 719.311 476.314 721.44 475.168 724.305C474.035 727.156 473.417 730.424 473.312 734.109L473.293 735.789C473.293 739.734 473.846 743.257 474.953 746.355C476.073 749.441 477.635 751.792 479.641 753.406L478.703 756.043C476.958 755.184 475.298 753.68 473.723 751.531C472.16 749.396 470.975 746.987 470.168 744.305C469.374 741.609 468.977 738.654 468.977 735.438Z" fill="#CD08D1"/>
<path d="M487.258 725.867L487.395 728.309C488.957 726.421 491.008 725.477 493.547 725.477C497.948 725.477 500.188 727.996 500.266 733.035V747H495.52V733.309C495.52 731.967 495.227 730.978 494.641 730.34C494.068 729.689 493.124 729.363 491.809 729.363C489.895 729.363 488.469 730.229 487.531 731.961V747H482.785V725.867H487.258Z" fill="#CD08D1"/>
<path d="M535.598 734.871H515.715V731.043H535.598V734.871Z" fill="#CD08D1"/>
<path d="M556.047 730.613H558.938C560.396 730.6 561.548 730.223 562.395 729.48C563.254 728.738 563.684 727.664 563.684 726.258C563.684 724.904 563.326 723.855 562.609 723.113C561.906 722.358 560.826 721.98 559.367 721.98C558.091 721.98 557.043 722.352 556.223 723.094C555.402 723.823 554.992 724.78 554.992 725.965H550.246C550.246 724.507 550.63 723.178 551.398 721.98C552.18 720.783 553.26 719.852 554.641 719.188C556.034 718.51 557.59 718.172 559.309 718.172C562.147 718.172 564.374 718.888 565.988 720.32C567.616 721.74 568.43 723.719 568.43 726.258C568.43 727.534 568.02 728.738 567.199 729.871C566.392 730.991 565.344 731.837 564.055 732.41C565.617 732.944 566.802 733.784 567.609 734.93C568.43 736.076 568.84 737.443 568.84 739.031C568.84 741.583 567.961 743.615 566.203 745.125C564.458 746.635 562.16 747.391 559.309 747.391C556.574 747.391 554.335 746.661 552.59 745.203C550.845 743.745 549.973 741.805 549.973 739.383H554.719C554.719 740.633 555.135 741.648 555.969 742.43C556.815 743.211 557.948 743.602 559.367 743.602C560.839 743.602 561.997 743.211 562.844 742.43C563.69 741.648 564.113 740.516 564.113 739.031C564.113 737.534 563.671 736.382 562.785 735.574C561.9 734.767 560.585 734.363 558.84 734.363H556.047V730.613Z" fill="#CD08D1"/>
<path d="M582.746 735.75C582.746 738.641 582.349 741.434 581.555 744.129C580.76 746.811 579.556 749.253 577.941 751.453C576.327 753.667 574.641 755.197 572.883 756.043L571.945 753.406C573.898 751.896 575.441 749.591 576.574 746.492C577.72 743.38 578.293 739.832 578.293 735.848V735.398C578.293 731.779 577.798 728.484 576.809 725.516C575.819 722.534 574.4 720.145 572.551 718.348L571.945 717.801L572.883 715.145C574.549 715.952 576.164 717.384 577.727 719.441C579.289 721.499 580.487 723.803 581.32 726.355C582.154 728.895 582.622 731.518 582.727 734.227L582.746 735.75Z" fill="#CD08D1"/>
</g>
</g>
</g>
</svg>
