<svg viewBox="0 0 947 1022" fill="none" xmlns="http://www.w3.org/2000/svg">
<g id="0127125">
<g id="enunciado">
<g id="Group 71">
<path id="Rectangle 1" d="M27 54.1722C27 25.7736 49.5821 2.75195 77.4386 2.75195H947V358.58C947 386.979 924.418 410 896.561 410H27V54.1722Z" fill="#02071A"/>
<path id="Rectangle 1 (Stroke)" fill-rule="evenodd" clip-rule="evenodd" d="M941.956 7.85154H77.4386C52.3678 7.85154 32.0439 28.5732 32.0439 54.1346V404.857H896.561C921.632 404.857 941.956 384.135 941.956 358.574V7.85154ZM77.4386 2.70898C49.5821 2.70898 27 25.733 27 54.1346V410H896.561C924.418 410 947 386.976 947 358.574V2.70898H77.4386Z" fill="#CD08D1"/>
<path id="Rectangle 14" d="M81.6251 2.84419C108.602 -3.55524 947 2.84419 947 2.84419V30.5486C947 30.5486 67.351 20.3658 36.0791 30.5486C45.8095 15.8546 54.6481 9.24361 81.6251 2.84419Z" fill="#CD08D1"/>
<path id="Rectangle 15" d="M915.076 8.80518H945.066V359.639C941.385 383.447 933.755 392.198 915.076 403.62C920.574 384.915 915.076 8.80518 915.076 8.80518Z" fill="#CD08D1"/>
</g>
<g id="&#194;&#191;Qu&#195;&#169; alternativa representa el desarrollo del siguiente cubo?">
<path d="M51.3359 63.0469C51.3242 64.2891 51.1953 65.2852 50.9492 66.0352C50.7148 66.7734 50.3164 67.4883 49.7539 68.1797C49.1914 68.8711 48.3711 69.7852 47.293 70.9219C46.2148 72.0469 45.6113 73.1895 45.4824 74.3496L45.4473 75C45.4473 76.2773 45.7871 77.25 46.4668 77.918C47.1465 78.5977 48.125 78.9375 49.4023 78.9375C50.5742 78.9375 51.5234 78.6035 52.25 77.9355C52.9883 77.2793 53.3574 76.418 53.3574 75.3516H56.6094C56.5859 77.2383 55.9121 78.7793 54.5879 79.9746C53.2754 81.1699 51.5469 81.7676 49.4023 81.7676C47.1055 81.7676 45.3301 81.1758 44.0762 79.9922C42.8223 78.8203 42.1953 77.1855 42.1953 75.0879C42.1953 73.0605 43.1328 71.0215 45.0078 68.9707L46.9238 66.9844C47.6973 66.0703 48.084 64.7578 48.084 63.0469H51.3359ZM51.4766 57.4746C51.4766 58.002 51.3125 58.4473 50.9844 58.8105C50.668 59.1738 50.1934 59.3555 49.5605 59.3555C48.9277 59.3555 48.4473 59.1738 48.1191 58.8105C47.791 58.4473 47.627 58.002 47.627 57.4746C47.627 56.959 47.791 56.5254 48.1191 56.1738C48.4473 55.8223 48.9277 55.6465 49.5605 55.6465C50.1934 55.6465 50.668 55.8223 50.9844 56.1738C51.3125 56.5254 51.4766 56.959 51.4766 57.4746Z" fill="white"/>
<path d="M80.5684 63.0293C80.5684 65.502 80.1758 67.6348 79.3906 69.4277C78.6055 71.209 77.5039 72.6035 76.0859 73.6113L80.6562 77.1973L78.3535 79.3242L72.957 75.0352C72.1133 75.2461 71.2227 75.3516 70.2852 75.3516C68.2695 75.3516 66.4824 74.8594 64.9238 73.875C63.3652 72.8789 62.1523 71.4668 61.2852 69.6387C60.4297 67.7988 59.9902 65.6719 59.9668 63.2578V61.4121C59.9668 58.9512 60.3945 56.7773 61.25 54.8906C62.1055 53.0039 63.3125 51.5625 64.8711 50.5664C66.4414 49.5586 68.2344 49.0547 70.25 49.0547C72.3125 49.0547 74.123 49.5527 75.6816 50.5488C77.252 51.5449 78.459 52.9805 79.3027 54.8555C80.1465 56.7188 80.5684 58.8984 80.5684 61.3945V63.0293ZM77.1934 61.377C77.1934 58.3652 76.5898 56.0449 75.3828 54.416C74.1875 52.7754 72.4766 51.9551 70.25 51.9551C68.1289 51.9551 66.4531 52.7695 65.2227 54.3984C64.0039 56.0156 63.377 58.2656 63.3418 61.1484V63.0293C63.3418 65.959 63.9512 68.2676 65.1699 69.9551C66.4004 71.6426 68.1055 72.4863 70.2852 72.4863C72.4648 72.4863 74.1523 71.6953 75.3477 70.1133C76.543 68.5195 77.1582 66.2402 77.1934 63.2754V61.377Z" fill="white"/>
<path d="M97.0039 73.1191C95.7383 74.6074 93.8809 75.3516 91.4316 75.3516C89.4043 75.3516 87.8574 74.7656 86.791 73.5938C85.7363 72.4102 85.2031 70.6641 85.1914 68.3555V55.9805H88.4434V68.2676C88.4434 71.1504 89.6152 72.5918 91.959 72.5918C94.4434 72.5918 96.0957 71.666 96.916 69.8145V55.9805H100.168V75H97.0742L97.0039 73.1191Z" fill="white"/>
<path d="M113.018 75.3516C110.439 75.3516 108.342 74.5078 106.725 72.8203C105.107 71.1211 104.299 68.8535 104.299 66.0176V65.4199C104.299 63.5332 104.656 61.8516 105.371 60.375C106.098 58.8867 107.105 57.7266 108.395 56.8945C109.695 56.0508 111.102 55.6289 112.613 55.6289C115.086 55.6289 117.008 56.4434 118.379 58.0723C119.75 59.7012 120.436 62.0332 120.436 65.0684V66.4219H107.551C107.598 68.2969 108.143 69.8145 109.186 70.9746C110.24 72.123 111.576 72.6973 113.193 72.6973C114.342 72.6973 115.314 72.4629 116.111 71.9941C116.908 71.5254 117.605 70.9043 118.203 70.1309L120.189 71.6777C118.596 74.127 116.205 75.3516 113.018 75.3516ZM112.613 58.3008C111.301 58.3008 110.199 58.7812 109.309 59.7422C108.418 60.6914 107.867 62.0273 107.656 63.75H117.184V63.5039C117.09 61.8516 116.645 60.5742 115.848 59.6719C115.051 58.7578 113.973 58.3008 112.613 58.3008ZM114.195 48H118.133L113.422 53.168H110.803L114.195 48Z" fill="white"/>
<path d="M144.887 75C144.699 74.625 144.547 73.957 144.43 72.9961C142.918 74.5664 141.113 75.3516 139.016 75.3516C137.141 75.3516 135.6 74.8242 134.393 73.7695C133.197 72.7031 132.6 71.3555 132.6 69.7266C132.6 67.7461 133.35 66.2109 134.85 65.1211C136.361 64.0195 138.482 63.4688 141.213 63.4688H144.377V61.9746C144.377 60.8379 144.037 59.9355 143.357 59.2676C142.678 58.5879 141.676 58.248 140.352 58.248C139.191 58.248 138.219 58.541 137.434 59.127C136.648 59.7129 136.256 60.4219 136.256 61.2539H132.986C132.986 60.3047 133.32 59.3906 133.988 58.5117C134.668 57.6211 135.582 56.918 136.73 56.4023C137.891 55.8867 139.162 55.6289 140.545 55.6289C142.736 55.6289 144.453 56.1797 145.695 57.2812C146.938 58.3711 147.582 59.877 147.629 61.7988V70.5527C147.629 72.2988 147.852 73.6875 148.297 74.7188V75H144.887ZM139.49 72.5215C140.51 72.5215 141.477 72.2578 142.391 71.7305C143.305 71.2031 143.967 70.5176 144.377 69.6738V65.7715H141.828C137.844 65.7715 135.852 66.9375 135.852 69.2695C135.852 70.2891 136.191 71.0859 136.871 71.6602C137.551 72.2344 138.424 72.5215 139.49 72.5215Z" fill="white"/>
<path d="M156.26 75H153.008V48H156.26V75Z" fill="white"/>
<path d="M165.893 51.375V55.9805H169.443V58.4941H165.893V70.2891C165.893 71.0508 166.051 71.625 166.367 72.0117C166.684 72.3867 167.223 72.5742 167.984 72.5742C168.359 72.5742 168.875 72.5039 169.531 72.3633V75C168.676 75.2344 167.844 75.3516 167.035 75.3516C165.582 75.3516 164.486 74.9121 163.748 74.0332C163.01 73.1543 162.641 71.9062 162.641 70.2891V58.4941H159.178V55.9805H162.641V51.375H165.893Z" fill="white"/>
<path d="M181.15 75.3516C178.572 75.3516 176.475 74.5078 174.857 72.8203C173.24 71.1211 172.432 68.8535 172.432 66.0176V65.4199C172.432 63.5332 172.789 61.8516 173.504 60.375C174.23 58.8867 175.238 57.7266 176.527 56.8945C177.828 56.0508 179.234 55.6289 180.746 55.6289C183.219 55.6289 185.141 56.4434 186.512 58.0723C187.883 59.7012 188.568 62.0332 188.568 65.0684V66.4219H175.684C175.73 68.2969 176.275 69.8145 177.318 70.9746C178.373 72.123 179.709 72.6973 181.326 72.6973C182.475 72.6973 183.447 72.4629 184.244 71.9941C185.041 71.5254 185.738 70.9043 186.336 70.1309L188.322 71.6777C186.729 74.127 184.338 75.3516 181.15 75.3516ZM180.746 58.3008C179.434 58.3008 178.332 58.7812 177.441 59.7422C176.551 60.6914 176 62.0273 175.789 63.75H185.316V63.5039C185.223 61.8516 184.777 60.5742 183.98 59.6719C183.184 58.7578 182.105 58.3008 180.746 58.3008Z" fill="white"/>
<path d="M201.541 58.8984C201.049 58.8164 200.516 58.7754 199.941 58.7754C197.809 58.7754 196.361 59.6836 195.6 61.5V75H192.348V55.9805H195.512L195.564 58.1777C196.631 56.4785 198.143 55.6289 200.1 55.6289C200.732 55.6289 201.213 55.7109 201.541 55.875V58.8984Z" fill="white"/>
<path d="M207.623 55.9805L207.729 58.3711C209.182 56.543 211.08 55.6289 213.424 55.6289C217.443 55.6289 219.471 57.8965 219.506 62.4316V75H216.254V62.4141C216.242 61.043 215.926 60.0293 215.305 59.373C214.695 58.7168 213.74 58.3887 212.439 58.3887C211.385 58.3887 210.459 58.6699 209.662 59.2324C208.865 59.7949 208.244 60.5332 207.799 61.4473V75H204.547V55.9805H207.623Z" fill="white"/>
<path d="M236.152 75C235.965 74.625 235.812 73.957 235.695 72.9961C234.184 74.5664 232.379 75.3516 230.281 75.3516C228.406 75.3516 226.865 74.8242 225.658 73.7695C224.463 72.7031 223.865 71.3555 223.865 69.7266C223.865 67.7461 224.615 66.2109 226.115 65.1211C227.627 64.0195 229.748 63.4688 232.479 63.4688H235.643V61.9746C235.643 60.8379 235.303 59.9355 234.623 59.2676C233.943 58.5879 232.941 58.248 231.617 58.248C230.457 58.248 229.484 58.541 228.699 59.127C227.914 59.7129 227.521 60.4219 227.521 61.2539H224.252C224.252 60.3047 224.586 59.3906 225.254 58.5117C225.934 57.6211 226.848 56.918 227.996 56.4023C229.156 55.8867 230.428 55.6289 231.811 55.6289C234.002 55.6289 235.719 56.1797 236.961 57.2812C238.203 58.3711 238.848 59.877 238.895 61.7988V70.5527C238.895 72.2988 239.117 73.6875 239.562 74.7188V75H236.152ZM230.756 72.5215C231.775 72.5215 232.742 72.2578 233.656 71.7305C234.57 71.2031 235.232 70.5176 235.643 69.6738V65.7715H233.094C229.109 65.7715 227.117 66.9375 227.117 69.2695C227.117 70.2891 227.457 71.0859 228.137 71.6602C228.816 72.2344 229.689 72.5215 230.756 72.5215Z" fill="white"/>
<path d="M248.404 51.375V55.9805H251.955V58.4941H248.404V70.2891C248.404 71.0508 248.562 71.625 248.879 72.0117C249.195 72.3867 249.734 72.5742 250.496 72.5742C250.871 72.5742 251.387 72.5039 252.043 72.3633V75C251.188 75.2344 250.355 75.3516 249.547 75.3516C248.094 75.3516 246.998 74.9121 246.26 74.0332C245.521 73.1543 245.152 71.9062 245.152 70.2891V58.4941H241.689V55.9805H245.152V51.375H248.404Z" fill="white"/>
<path d="M259.303 75H256.051V55.9805H259.303V75ZM255.787 50.9355C255.787 50.4082 255.945 49.9629 256.262 49.5996C256.59 49.2363 257.07 49.0547 257.703 49.0547C258.336 49.0547 258.816 49.2363 259.145 49.5996C259.473 49.9629 259.637 50.4082 259.637 50.9355C259.637 51.4629 259.473 51.9023 259.145 52.2539C258.816 52.6055 258.336 52.7812 257.703 52.7812C257.07 52.7812 256.59 52.6055 256.262 52.2539C255.945 51.9023 255.787 51.4629 255.787 50.9355Z" fill="white"/>
<path d="M270.799 70.5879L275.51 55.9805H278.832L272.012 75H269.533L262.643 55.9805H265.965L270.799 70.5879Z" fill="white"/>
<path d="M293.422 75C293.234 74.625 293.082 73.957 292.965 72.9961C291.453 74.5664 289.648 75.3516 287.551 75.3516C285.676 75.3516 284.135 74.8242 282.928 73.7695C281.732 72.7031 281.135 71.3555 281.135 69.7266C281.135 67.7461 281.885 66.2109 283.385 65.1211C284.896 64.0195 287.018 63.4688 289.748 63.4688H292.912V61.9746C292.912 60.8379 292.572 59.9355 291.893 59.2676C291.213 58.5879 290.211 58.248 288.887 58.248C287.727 58.248 286.754 58.541 285.969 59.127C285.184 59.7129 284.791 60.4219 284.791 61.2539H281.521C281.521 60.3047 281.855 59.3906 282.523 58.5117C283.203 57.6211 284.117 56.918 285.266 56.4023C286.426 55.8867 287.697 55.6289 289.08 55.6289C291.271 55.6289 292.988 56.1797 294.23 57.2812C295.473 58.3711 296.117 59.877 296.164 61.7988V70.5527C296.164 72.2988 296.387 73.6875 296.832 74.7188V75H293.422ZM288.025 72.5215C289.045 72.5215 290.012 72.2578 290.926 71.7305C291.84 71.2031 292.502 70.5176 292.912 69.6738V65.7715H290.363C286.379 65.7715 284.387 66.9375 284.387 69.2695C284.387 70.2891 284.727 71.0859 285.406 71.6602C286.086 72.2344 286.959 72.5215 288.025 72.5215Z" fill="white"/>
<path d="M319.385 58.8984C318.893 58.8164 318.359 58.7754 317.785 58.7754C315.652 58.7754 314.205 59.6836 313.443 61.5V75H310.191V55.9805H313.355L313.408 58.1777C314.475 56.4785 315.986 55.6289 317.943 55.6289C318.576 55.6289 319.057 55.7109 319.385 55.875V58.8984Z" fill="white"/>
<path d="M329.932 75.3516C327.354 75.3516 325.256 74.5078 323.639 72.8203C322.021 71.1211 321.213 68.8535 321.213 66.0176V65.4199C321.213 63.5332 321.57 61.8516 322.285 60.375C323.012 58.8867 324.02 57.7266 325.309 56.8945C326.609 56.0508 328.016 55.6289 329.527 55.6289C332 55.6289 333.922 56.4434 335.293 58.0723C336.664 59.7012 337.35 62.0332 337.35 65.0684V66.4219H324.465C324.512 68.2969 325.057 69.8145 326.1 70.9746C327.154 72.123 328.49 72.6973 330.107 72.6973C331.256 72.6973 332.229 72.4629 333.025 71.9941C333.822 71.5254 334.52 70.9043 335.117 70.1309L337.104 71.6777C335.51 74.127 333.119 75.3516 329.932 75.3516ZM329.527 58.3008C328.215 58.3008 327.113 58.7812 326.223 59.7422C325.332 60.6914 324.781 62.0273 324.57 63.75H334.098V63.5039C334.004 61.8516 333.559 60.5742 332.762 59.6719C331.965 58.7578 330.887 58.3008 329.527 58.3008Z" fill="white"/>
<path d="M357.195 65.7012C357.195 68.5957 356.533 70.9277 355.209 72.6973C353.885 74.4668 352.092 75.3516 349.83 75.3516C347.521 75.3516 345.705 74.6191 344.381 73.1543V82.3125H341.129V55.9805H344.1L344.258 58.0898C345.582 56.4492 347.422 55.6289 349.777 55.6289C352.062 55.6289 353.867 56.4902 355.191 58.2129C356.527 59.9355 357.195 62.332 357.195 65.4023V65.7012ZM353.943 65.332C353.943 63.1875 353.486 61.4941 352.572 60.252C351.658 59.0098 350.404 58.3887 348.811 58.3887C346.842 58.3887 345.365 59.2617 344.381 61.0078V70.0957C345.354 71.8301 346.842 72.6973 348.846 72.6973C350.404 72.6973 351.641 72.082 352.555 70.8516C353.48 69.6094 353.943 67.7695 353.943 65.332Z" fill="white"/>
<path d="M370.537 58.8984C370.045 58.8164 369.512 58.7754 368.938 58.7754C366.805 58.7754 365.357 59.6836 364.596 61.5V75H361.344V55.9805H364.508L364.561 58.1777C365.627 56.4785 367.139 55.6289 369.096 55.6289C369.729 55.6289 370.209 55.7109 370.537 55.875V58.8984Z" fill="white"/>
<path d="M381.084 75.3516C378.506 75.3516 376.408 74.5078 374.791 72.8203C373.174 71.1211 372.365 68.8535 372.365 66.0176V65.4199C372.365 63.5332 372.723 61.8516 373.438 60.375C374.164 58.8867 375.172 57.7266 376.461 56.8945C377.762 56.0508 379.168 55.6289 380.68 55.6289C383.152 55.6289 385.074 56.4434 386.445 58.0723C387.816 59.7012 388.502 62.0332 388.502 65.0684V66.4219H375.617C375.664 68.2969 376.209 69.8145 377.252 70.9746C378.307 72.123 379.643 72.6973 381.26 72.6973C382.408 72.6973 383.381 72.4629 384.178 71.9941C384.975 71.5254 385.672 70.9043 386.27 70.1309L388.256 71.6777C386.662 74.127 384.271 75.3516 381.084 75.3516ZM380.68 58.3008C379.367 58.3008 378.266 58.7812 377.375 59.7422C376.484 60.6914 375.934 62.0273 375.723 63.75H385.25V63.5039C385.156 61.8516 384.711 60.5742 383.914 59.6719C383.117 58.7578 382.039 58.3008 380.68 58.3008Z" fill="white"/>
<path d="M403.355 69.9551C403.355 69.0762 403.021 68.3965 402.354 67.916C401.697 67.4238 400.543 67.002 398.891 66.6504C397.25 66.2988 395.943 65.877 394.971 65.3848C394.01 64.8926 393.295 64.3066 392.826 63.627C392.369 62.9473 392.141 62.1387 392.141 61.2012C392.141 59.6426 392.797 58.3242 394.109 57.2461C395.434 56.168 397.121 55.6289 399.172 55.6289C401.328 55.6289 403.074 56.1855 404.41 57.2988C405.758 58.4121 406.432 59.8359 406.432 61.5703H403.162C403.162 60.6797 402.781 59.9121 402.02 59.2676C401.27 58.623 400.32 58.3008 399.172 58.3008C397.988 58.3008 397.062 58.5586 396.395 59.0742C395.727 59.5898 395.393 60.2637 395.393 61.0957C395.393 61.8809 395.703 62.4727 396.324 62.8711C396.945 63.2695 398.064 63.6504 399.682 64.0137C401.311 64.377 402.629 64.8105 403.637 65.3145C404.645 65.8184 405.389 66.4277 405.869 67.1426C406.361 67.8457 406.607 68.707 406.607 69.7266C406.607 71.4258 405.928 72.791 404.568 73.8223C403.209 74.8418 401.445 75.3516 399.277 75.3516C397.754 75.3516 396.406 75.082 395.234 74.543C394.062 74.0039 393.143 73.2539 392.475 72.293C391.818 71.3203 391.49 70.2715 391.49 69.1465H394.742C394.801 70.2363 395.234 71.1035 396.043 71.748C396.863 72.3809 397.941 72.6973 399.277 72.6973C400.508 72.6973 401.492 72.4512 402.23 71.959C402.98 71.4551 403.355 70.7871 403.355 69.9551Z" fill="white"/>
<path d="M418.736 75.3516C416.158 75.3516 414.061 74.5078 412.443 72.8203C410.826 71.1211 410.018 68.8535 410.018 66.0176V65.4199C410.018 63.5332 410.375 61.8516 411.09 60.375C411.816 58.8867 412.824 57.7266 414.113 56.8945C415.414 56.0508 416.82 55.6289 418.332 55.6289C420.805 55.6289 422.727 56.4434 424.098 58.0723C425.469 59.7012 426.154 62.0332 426.154 65.0684V66.4219H413.27C413.316 68.2969 413.861 69.8145 414.904 70.9746C415.959 72.123 417.295 72.6973 418.912 72.6973C420.061 72.6973 421.033 72.4629 421.83 71.9941C422.627 71.5254 423.324 70.9043 423.922 70.1309L425.908 71.6777C424.314 74.127 421.924 75.3516 418.736 75.3516ZM418.332 58.3008C417.02 58.3008 415.918 58.7812 415.027 59.7422C414.137 60.6914 413.586 62.0273 413.375 63.75H422.902V63.5039C422.809 61.8516 422.363 60.5742 421.566 59.6719C420.77 58.7578 419.691 58.3008 418.332 58.3008Z" fill="white"/>
<path d="M433.01 55.9805L433.115 58.3711C434.568 56.543 436.467 55.6289 438.811 55.6289C442.83 55.6289 444.857 57.8965 444.893 62.4316V75H441.641V62.4141C441.629 61.043 441.312 60.0293 440.691 59.373C440.082 58.7168 439.127 58.3887 437.826 58.3887C436.771 58.3887 435.846 58.6699 435.049 59.2324C434.252 59.7949 433.631 60.5332 433.186 61.4473V75H429.934V55.9805H433.01Z" fill="white"/>
<path d="M454.209 51.375V55.9805H457.76V58.4941H454.209V70.2891C454.209 71.0508 454.367 71.625 454.684 72.0117C455 72.3867 455.539 72.5742 456.301 72.5742C456.676 72.5742 457.191 72.5039 457.848 72.3633V75C456.992 75.2344 456.16 75.3516 455.352 75.3516C453.898 75.3516 452.803 74.9121 452.064 74.0332C451.326 73.1543 450.957 71.9062 450.957 70.2891V58.4941H447.494V55.9805H450.957V51.375H454.209Z" fill="white"/>
<path d="M473.316 75C473.129 74.625 472.977 73.957 472.859 72.9961C471.348 74.5664 469.543 75.3516 467.445 75.3516C465.57 75.3516 464.029 74.8242 462.822 73.7695C461.627 72.7031 461.029 71.3555 461.029 69.7266C461.029 67.7461 461.779 66.2109 463.279 65.1211C464.791 64.0195 466.912 63.4688 469.643 63.4688H472.807V61.9746C472.807 60.8379 472.467 59.9355 471.787 59.2676C471.107 58.5879 470.105 58.248 468.781 58.248C467.621 58.248 466.648 58.541 465.863 59.127C465.078 59.7129 464.686 60.4219 464.686 61.2539H461.416C461.416 60.3047 461.75 59.3906 462.418 58.5117C463.098 57.6211 464.012 56.918 465.16 56.4023C466.32 55.8867 467.592 55.6289 468.975 55.6289C471.166 55.6289 472.883 56.1797 474.125 57.2812C475.367 58.3711 476.012 59.877 476.059 61.7988V70.5527C476.059 72.2988 476.281 73.6875 476.727 74.7188V75H473.316ZM467.92 72.5215C468.939 72.5215 469.906 72.2578 470.82 71.7305C471.734 71.2031 472.396 70.5176 472.807 69.6738V65.7715H470.258C466.273 65.7715 464.281 66.9375 464.281 69.2695C464.281 70.2891 464.621 71.0859 465.301 71.6602C465.98 72.2344 466.854 72.5215 467.92 72.5215Z" fill="white"/>
<path d="M497.979 75.3516C495.4 75.3516 493.303 74.5078 491.686 72.8203C490.068 71.1211 489.26 68.8535 489.26 66.0176V65.4199C489.26 63.5332 489.617 61.8516 490.332 60.375C491.059 58.8867 492.066 57.7266 493.355 56.8945C494.656 56.0508 496.062 55.6289 497.574 55.6289C500.047 55.6289 501.969 56.4434 503.34 58.0723C504.711 59.7012 505.396 62.0332 505.396 65.0684V66.4219H492.512C492.559 68.2969 493.104 69.8145 494.146 70.9746C495.201 72.123 496.537 72.6973 498.154 72.6973C499.303 72.6973 500.275 72.4629 501.072 71.9941C501.869 71.5254 502.566 70.9043 503.164 70.1309L505.15 71.6777C503.557 74.127 501.166 75.3516 497.979 75.3516ZM497.574 58.3008C496.262 58.3008 495.16 58.7812 494.27 59.7422C493.379 60.6914 492.828 62.0273 492.617 63.75H502.145V63.5039C502.051 61.8516 501.605 60.5742 500.809 59.6719C500.012 58.7578 498.934 58.3008 497.574 58.3008Z" fill="white"/>
<path d="M512.709 75H509.457V48H512.709V75Z" fill="white"/>
<path d="M526.068 65.332C526.068 62.4141 526.76 60.0703 528.143 58.3008C529.525 56.5195 531.336 55.6289 533.574 55.6289C535.801 55.6289 537.564 56.3906 538.865 57.9141V48H542.117V75H539.129L538.971 72.9609C537.67 74.5547 535.859 75.3516 533.539 75.3516C531.336 75.3516 529.537 74.4492 528.143 72.6445C526.76 70.8398 526.068 68.4844 526.068 65.5781V65.332ZM529.32 65.7012C529.32 67.8574 529.766 69.5449 530.656 70.7637C531.547 71.9824 532.777 72.5918 534.348 72.5918C536.41 72.5918 537.916 71.666 538.865 69.8145V61.0781C537.893 59.2852 536.398 58.3887 534.383 58.3887C532.789 58.3887 531.547 59.0039 530.656 60.2344C529.766 61.4648 529.32 63.2871 529.32 65.7012Z" fill="white"/>
<path d="M555.072 75.3516C552.494 75.3516 550.396 74.5078 548.779 72.8203C547.162 71.1211 546.354 68.8535 546.354 66.0176V65.4199C546.354 63.5332 546.711 61.8516 547.426 60.375C548.152 58.8867 549.16 57.7266 550.449 56.8945C551.75 56.0508 553.156 55.6289 554.668 55.6289C557.141 55.6289 559.062 56.4434 560.434 58.0723C561.805 59.7012 562.49 62.0332 562.49 65.0684V66.4219H549.605C549.652 68.2969 550.197 69.8145 551.24 70.9746C552.295 72.123 553.631 72.6973 555.248 72.6973C556.396 72.6973 557.369 72.4629 558.166 71.9941C558.963 71.5254 559.66 70.9043 560.258 70.1309L562.244 71.6777C560.65 74.127 558.26 75.3516 555.072 75.3516ZM554.668 58.3008C553.355 58.3008 552.254 58.7812 551.363 59.7422C550.473 60.6914 549.922 62.0273 549.711 63.75H559.238V63.5039C559.145 61.8516 558.699 60.5742 557.902 59.6719C557.105 58.7578 556.027 58.3008 554.668 58.3008Z" fill="white"/>
<path d="M577.344 69.9551C577.344 69.0762 577.01 68.3965 576.342 67.916C575.686 67.4238 574.531 67.002 572.879 66.6504C571.238 66.2988 569.932 65.877 568.959 65.3848C567.998 64.8926 567.283 64.3066 566.814 63.627C566.357 62.9473 566.129 62.1387 566.129 61.2012C566.129 59.6426 566.785 58.3242 568.098 57.2461C569.422 56.168 571.109 55.6289 573.16 55.6289C575.316 55.6289 577.062 56.1855 578.398 57.2988C579.746 58.4121 580.42 59.8359 580.42 61.5703H577.15C577.15 60.6797 576.77 59.9121 576.008 59.2676C575.258 58.623 574.309 58.3008 573.16 58.3008C571.977 58.3008 571.051 58.5586 570.383 59.0742C569.715 59.5898 569.381 60.2637 569.381 61.0957C569.381 61.8809 569.691 62.4727 570.312 62.8711C570.934 63.2695 572.053 63.6504 573.67 64.0137C575.299 64.377 576.617 64.8105 577.625 65.3145C578.633 65.8184 579.377 66.4277 579.857 67.1426C580.35 67.8457 580.596 68.707 580.596 69.7266C580.596 71.4258 579.916 72.791 578.557 73.8223C577.197 74.8418 575.434 75.3516 573.266 75.3516C571.742 75.3516 570.395 75.082 569.223 74.543C568.051 74.0039 567.131 73.2539 566.463 72.293C565.807 71.3203 565.479 70.2715 565.479 69.1465H568.73C568.789 70.2363 569.223 71.1035 570.031 71.748C570.852 72.3809 571.93 72.6973 573.266 72.6973C574.496 72.6973 575.48 72.4512 576.219 71.959C576.969 71.4551 577.344 70.7871 577.344 69.9551Z" fill="white"/>
<path d="M596.574 75C596.387 74.625 596.234 73.957 596.117 72.9961C594.605 74.5664 592.801 75.3516 590.703 75.3516C588.828 75.3516 587.287 74.8242 586.08 73.7695C584.885 72.7031 584.287 71.3555 584.287 69.7266C584.287 67.7461 585.037 66.2109 586.537 65.1211C588.049 64.0195 590.17 63.4688 592.9 63.4688H596.064V61.9746C596.064 60.8379 595.725 59.9355 595.045 59.2676C594.365 58.5879 593.363 58.248 592.039 58.248C590.879 58.248 589.906 58.541 589.121 59.127C588.336 59.7129 587.943 60.4219 587.943 61.2539H584.674C584.674 60.3047 585.008 59.3906 585.676 58.5117C586.355 57.6211 587.27 56.918 588.418 56.4023C589.578 55.8867 590.85 55.6289 592.232 55.6289C594.424 55.6289 596.141 56.1797 597.383 57.2812C598.625 58.3711 599.27 59.877 599.316 61.7988V70.5527C599.316 72.2988 599.539 73.6875 599.984 74.7188V75H596.574ZM591.178 72.5215C592.197 72.5215 593.164 72.2578 594.078 71.7305C594.992 71.2031 595.654 70.5176 596.064 69.6738V65.7715H593.516C589.531 65.7715 587.539 66.9375 587.539 69.2695C587.539 70.2891 587.879 71.0859 588.559 71.6602C589.238 72.2344 590.111 72.5215 591.178 72.5215Z" fill="white"/>
<path d="M613.607 58.8984C613.115 58.8164 612.582 58.7754 612.008 58.7754C609.875 58.7754 608.428 59.6836 607.666 61.5V75H604.414V55.9805H607.578L607.631 58.1777C608.697 56.4785 610.209 55.6289 612.166 55.6289C612.799 55.6289 613.279 55.7109 613.607 55.875V58.8984Z" fill="white"/>
<path d="M625.807 58.8984C625.314 58.8164 624.781 58.7754 624.207 58.7754C622.074 58.7754 620.627 59.6836 619.865 61.5V75H616.613V55.9805H619.777L619.83 58.1777C620.896 56.4785 622.408 55.6289 624.365 55.6289C624.998 55.6289 625.479 55.7109 625.807 55.875V58.8984Z" fill="white"/>
<path d="M627.6 65.3145C627.6 63.4512 627.963 61.7754 628.689 60.2871C629.428 58.7988 630.447 57.6504 631.748 56.8418C633.061 56.0332 634.555 55.6289 636.23 55.6289C638.82 55.6289 640.912 56.5254 642.506 58.3184C644.111 60.1113 644.914 62.4961 644.914 65.4727V65.7012C644.914 67.5527 644.557 69.2168 643.842 70.6934C643.139 72.1582 642.125 73.3008 640.801 74.1211C639.488 74.9414 637.977 75.3516 636.266 75.3516C633.688 75.3516 631.596 74.4551 629.99 72.6621C628.396 70.8691 627.6 68.4961 627.6 65.543V65.3145ZM630.869 65.7012C630.869 67.8105 631.355 69.5039 632.328 70.7812C633.312 72.0586 634.625 72.6973 636.266 72.6973C637.918 72.6973 639.23 72.0527 640.203 70.7637C641.176 69.4629 641.662 67.6465 641.662 65.3145C641.662 63.2285 641.164 61.541 640.168 60.252C639.184 58.9512 637.871 58.3008 636.23 58.3008C634.625 58.3008 633.33 58.9395 632.346 60.2168C631.361 61.4941 630.869 63.3223 630.869 65.7012Z" fill="white"/>
<path d="M652.525 75H649.273V48H652.525V75Z" fill="white"/>
<path d="M661.279 75H658.027V48H661.279V75Z" fill="white"/>
<path d="M665.639 65.3145C665.639 63.4512 666.002 61.7754 666.729 60.2871C667.467 58.7988 668.486 57.6504 669.787 56.8418C671.1 56.0332 672.594 55.6289 674.27 55.6289C676.859 55.6289 678.951 56.5254 680.545 58.3184C682.15 60.1113 682.953 62.4961 682.953 65.4727V65.7012C682.953 67.5527 682.596 69.2168 681.881 70.6934C681.178 72.1582 680.164 73.3008 678.84 74.1211C677.527 74.9414 676.016 75.3516 674.305 75.3516C671.727 75.3516 669.635 74.4551 668.029 72.6621C666.436 70.8691 665.639 68.4961 665.639 65.543V65.3145ZM668.908 65.7012C668.908 67.8105 669.395 69.5039 670.367 70.7812C671.352 72.0586 672.664 72.6973 674.305 72.6973C675.957 72.6973 677.27 72.0527 678.242 70.7637C679.215 69.4629 679.701 67.6465 679.701 65.3145C679.701 63.2285 679.203 61.541 678.207 60.252C677.223 58.9512 675.91 58.3008 674.27 58.3008C672.664 58.3008 671.369 58.9395 670.385 60.2168C669.4 61.4941 668.908 63.3223 668.908 65.7012Z" fill="white"/>
<path d="M695.17 65.332C695.17 62.4141 695.861 60.0703 697.244 58.3008C698.627 56.5195 700.438 55.6289 702.676 55.6289C704.902 55.6289 706.666 56.3906 707.967 57.9141V48H711.219V75H708.23L708.072 72.9609C706.771 74.5547 704.961 75.3516 702.641 75.3516C700.438 75.3516 698.639 74.4492 697.244 72.6445C695.861 70.8398 695.17 68.4844 695.17 65.5781V65.332ZM698.422 65.7012C698.422 67.8574 698.867 69.5449 699.758 70.7637C700.648 71.9824 701.879 72.5918 703.449 72.5918C705.512 72.5918 707.018 71.666 707.967 69.8145V61.0781C706.994 59.2852 705.5 58.3887 703.484 58.3887C701.891 58.3887 700.648 59.0039 699.758 60.2344C698.867 61.4648 698.422 63.2871 698.422 65.7012Z" fill="white"/>
<path d="M724.174 75.3516C721.596 75.3516 719.498 74.5078 717.881 72.8203C716.264 71.1211 715.455 68.8535 715.455 66.0176V65.4199C715.455 63.5332 715.812 61.8516 716.527 60.375C717.254 58.8867 718.262 57.7266 719.551 56.8945C720.852 56.0508 722.258 55.6289 723.77 55.6289C726.242 55.6289 728.164 56.4434 729.535 58.0723C730.906 59.7012 731.592 62.0332 731.592 65.0684V66.4219H718.707C718.754 68.2969 719.299 69.8145 720.342 70.9746C721.396 72.123 722.732 72.6973 724.35 72.6973C725.498 72.6973 726.471 72.4629 727.268 71.9941C728.064 71.5254 728.762 70.9043 729.359 70.1309L731.346 71.6777C729.752 74.127 727.361 75.3516 724.174 75.3516ZM723.77 58.3008C722.457 58.3008 721.355 58.7812 720.465 59.7422C719.574 60.6914 719.023 62.0273 718.812 63.75H728.34V63.5039C728.246 61.8516 727.801 60.5742 727.004 59.6719C726.207 58.7578 725.129 58.3008 723.77 58.3008Z" fill="white"/>
<path d="M738.904 75H735.652V48H738.904V75Z" fill="white"/>
<path d="M764.129 69.9551C764.129 69.0762 763.795 68.3965 763.127 67.916C762.471 67.4238 761.316 67.002 759.664 66.6504C758.023 66.2988 756.717 65.877 755.744 65.3848C754.783 64.8926 754.068 64.3066 753.6 63.627C753.143 62.9473 752.914 62.1387 752.914 61.2012C752.914 59.6426 753.57 58.3242 754.883 57.2461C756.207 56.168 757.895 55.6289 759.945 55.6289C762.102 55.6289 763.848 56.1855 765.184 57.2988C766.531 58.4121 767.205 59.8359 767.205 61.5703H763.936C763.936 60.6797 763.555 59.9121 762.793 59.2676C762.043 58.623 761.094 58.3008 759.945 58.3008C758.762 58.3008 757.836 58.5586 757.168 59.0742C756.5 59.5898 756.166 60.2637 756.166 61.0957C756.166 61.8809 756.477 62.4727 757.098 62.8711C757.719 63.2695 758.838 63.6504 760.455 64.0137C762.084 64.377 763.402 64.8105 764.41 65.3145C765.418 65.8184 766.162 66.4277 766.643 67.1426C767.135 67.8457 767.381 68.707 767.381 69.7266C767.381 71.4258 766.701 72.791 765.342 73.8223C763.982 74.8418 762.219 75.3516 760.051 75.3516C758.527 75.3516 757.18 75.082 756.008 74.543C754.836 74.0039 753.916 73.2539 753.248 72.293C752.592 71.3203 752.264 70.2715 752.264 69.1465H755.516C755.574 70.2363 756.008 71.1035 756.816 71.748C757.637 72.3809 758.715 72.6973 760.051 72.6973C761.281 72.6973 762.266 72.4512 763.004 71.959C763.754 71.4551 764.129 70.7871 764.129 69.9551Z" fill="white"/>
<path d="M775.15 75H771.898V55.9805H775.15V75ZM771.635 50.9355C771.635 50.4082 771.793 49.9629 772.109 49.5996C772.438 49.2363 772.918 49.0547 773.551 49.0547C774.184 49.0547 774.664 49.2363 774.992 49.5996C775.32 49.9629 775.484 50.4082 775.484 50.9355C775.484 51.4629 775.32 51.9023 774.992 52.2539C774.664 52.6055 774.184 52.7812 773.551 52.7812C772.918 52.7812 772.438 52.6055 772.109 52.2539C771.793 51.9023 771.635 51.4629 771.635 50.9355Z" fill="white"/>
<path d="M779.598 65.332C779.598 62.3672 780.283 60.0117 781.654 58.2656C783.025 56.5078 784.842 55.6289 787.104 55.6289C789.424 55.6289 791.234 56.4492 792.535 58.0898L792.693 55.9805H795.664V74.543C795.664 77.0039 794.932 78.9434 793.467 80.3613C792.014 81.7793 790.057 82.4883 787.596 82.4883C786.225 82.4883 784.883 82.1953 783.57 81.6094C782.258 81.0234 781.256 80.2207 780.564 79.2012L782.252 77.25C783.646 78.9727 785.352 79.834 787.367 79.834C788.949 79.834 790.18 79.3887 791.059 78.498C791.949 77.6074 792.395 76.3535 792.395 74.7363V73.1016C791.094 74.6016 789.318 75.3516 787.068 75.3516C784.842 75.3516 783.037 74.4551 781.654 72.6621C780.283 70.8691 779.598 68.4258 779.598 65.332ZM782.867 65.7012C782.867 67.8457 783.307 69.5332 784.186 70.7637C785.064 71.9824 786.295 72.5918 787.877 72.5918C789.928 72.5918 791.434 71.6602 792.395 69.7969V61.1133C791.398 59.2969 789.904 58.3887 787.912 58.3887C786.33 58.3887 785.094 59.0039 784.203 60.2344C783.312 61.4648 782.867 63.2871 782.867 65.7012Z" fill="white"/>
<path d="M812.328 73.1191C811.062 74.6074 809.205 75.3516 806.756 75.3516C804.729 75.3516 803.182 74.7656 802.115 73.5938C801.061 72.4102 800.527 70.6641 800.516 68.3555V55.9805H803.768V68.2676C803.768 71.1504 804.939 72.5918 807.283 72.5918C809.768 72.5918 811.42 71.666 812.24 69.8145V55.9805H815.492V75H812.398L812.328 73.1191Z" fill="white"/>
<path d="M823.982 75H820.73V55.9805H823.982V75ZM820.467 50.9355C820.467 50.4082 820.625 49.9629 820.941 49.5996C821.27 49.2363 821.75 49.0547 822.383 49.0547C823.016 49.0547 823.496 49.2363 823.824 49.5996C824.152 49.9629 824.316 50.4082 824.316 50.9355C824.316 51.4629 824.152 51.9023 823.824 52.2539C823.496 52.6055 823.016 52.7812 822.383 52.7812C821.75 52.7812 821.27 52.6055 820.941 52.2539C820.625 51.9023 820.467 51.4629 820.467 50.9355Z" fill="white"/>
<path d="M837.096 75.3516C834.518 75.3516 832.42 74.5078 830.803 72.8203C829.186 71.1211 828.377 68.8535 828.377 66.0176V65.4199C828.377 63.5332 828.734 61.8516 829.449 60.375C830.176 58.8867 831.184 57.7266 832.473 56.8945C833.773 56.0508 835.18 55.6289 836.691 55.6289C839.164 55.6289 841.086 56.4434 842.457 58.0723C843.828 59.7012 844.514 62.0332 844.514 65.0684V66.4219H831.629C831.676 68.2969 832.221 69.8145 833.264 70.9746C834.318 72.123 835.654 72.6973 837.271 72.6973C838.42 72.6973 839.393 72.4629 840.189 71.9941C840.986 71.5254 841.684 70.9043 842.281 70.1309L844.268 71.6777C842.674 74.127 840.283 75.3516 837.096 75.3516ZM836.691 58.3008C835.379 58.3008 834.277 58.7812 833.387 59.7422C832.496 60.6914 831.945 62.0273 831.734 63.75H841.262V63.5039C841.168 61.8516 840.723 60.5742 839.926 59.6719C839.129 58.7578 838.051 58.3008 836.691 58.3008Z" fill="white"/>
<path d="M851.369 55.9805L851.475 58.3711C852.928 56.543 854.826 55.6289 857.17 55.6289C861.189 55.6289 863.217 57.8965 863.252 62.4316V75H860V62.4141C859.988 61.043 859.672 60.0293 859.051 59.373C858.441 58.7168 857.486 58.3887 856.186 58.3887C855.131 58.3887 854.205 58.6699 853.408 59.2324C852.611 59.7949 851.99 60.5332 851.545 61.4473V75H848.293V55.9805H851.369Z" fill="white"/>
<path d="M872.568 51.375V55.9805H876.119V58.4941H872.568V70.2891C872.568 71.0508 872.727 71.625 873.043 72.0117C873.359 72.3867 873.898 72.5742 874.66 72.5742C875.035 72.5742 875.551 72.5039 876.207 72.3633V75C875.352 75.2344 874.52 75.3516 873.711 75.3516C872.258 75.3516 871.162 74.9121 870.424 74.0332C869.686 73.1543 869.316 71.9062 869.316 70.2891V58.4941H865.854V55.9805H869.316V51.375H872.568Z" fill="white"/>
<path d="M887.826 75.3516C885.248 75.3516 883.15 74.5078 881.533 72.8203C879.916 71.1211 879.107 68.8535 879.107 66.0176V65.4199C879.107 63.5332 879.465 61.8516 880.18 60.375C880.906 58.8867 881.914 57.7266 883.203 56.8945C884.504 56.0508 885.91 55.6289 887.422 55.6289C889.895 55.6289 891.816 56.4434 893.188 58.0723C894.559 59.7012 895.244 62.0332 895.244 65.0684V66.4219H882.359C882.406 68.2969 882.951 69.8145 883.994 70.9746C885.049 72.123 886.385 72.6973 888.002 72.6973C889.15 72.6973 890.123 72.4629 890.92 71.9941C891.717 71.5254 892.414 70.9043 893.012 70.1309L894.998 71.6777C893.404 74.127 891.014 75.3516 887.826 75.3516ZM887.422 58.3008C886.109 58.3008 885.008 58.7812 884.117 59.7422C883.227 60.6914 882.676 62.0273 882.465 63.75H891.992V63.5039C891.898 61.8516 891.453 60.5742 890.656 59.6719C889.859 58.7578 888.781 58.3008 887.422 58.3008Z" fill="white"/>
<path d="M51.0898 114.697C52.25 114.697 53.2637 114.346 54.1309 113.643C54.998 112.939 55.4785 112.061 55.5723 111.006H58.6484C58.5898 112.096 58.2148 113.133 57.5234 114.117C56.832 115.102 55.9062 115.887 54.7461 116.473C53.5977 117.059 52.3789 117.352 51.0898 117.352C48.5 117.352 46.4375 116.49 44.9023 114.768C43.3789 113.033 42.6172 110.666 42.6172 107.666V107.121C42.6172 105.27 42.957 103.623 43.6367 102.182C44.3164 100.74 45.2891 99.6211 46.5547 98.8242C47.832 98.0273 49.3379 97.6289 51.0723 97.6289C53.2051 97.6289 54.9746 98.2676 56.3809 99.5449C57.7988 100.822 58.5547 102.48 58.6484 104.52H55.5723C55.4785 103.289 55.0098 102.281 54.166 101.496C53.334 100.699 52.3027 100.301 51.0723 100.301C49.4199 100.301 48.1367 100.898 47.2227 102.094C46.3203 103.277 45.8691 104.994 45.8691 107.244V107.859C45.8691 110.051 46.3203 111.738 47.2227 112.922C48.125 114.105 49.4141 114.697 51.0898 114.697Z" fill="white"/>
<path d="M74.0469 115.119C72.7812 116.607 70.9238 117.352 68.4746 117.352C66.4473 117.352 64.9004 116.766 63.834 115.594C62.7793 114.41 62.2461 112.664 62.2344 110.355V97.9805H65.4863V110.268C65.4863 113.15 66.6582 114.592 69.002 114.592C71.4863 114.592 73.1387 113.666 73.959 111.814V97.9805H77.2109V117H74.1172L74.0469 115.119Z" fill="white"/>
<path d="M98.2695 107.701C98.2695 110.607 97.6016 112.945 96.2656 114.715C94.9297 116.473 93.1367 117.352 90.8867 117.352C88.4844 117.352 86.627 116.502 85.3145 114.803L85.1562 117H82.168V90H85.4199V100.072C86.7324 98.4434 88.543 97.6289 90.8516 97.6289C93.1602 97.6289 94.9707 98.502 96.2832 100.248C97.6074 101.994 98.2695 104.385 98.2695 107.42V107.701ZM95.0176 107.332C95.0176 105.117 94.5898 103.406 93.7344 102.199C92.8789 100.992 91.6484 100.389 90.043 100.389C87.8984 100.389 86.3574 101.385 85.4199 103.377V111.604C86.416 113.596 87.9688 114.592 90.0781 114.592C91.6367 114.592 92.8496 113.988 93.7168 112.781C94.584 111.574 95.0176 109.758 95.0176 107.332Z" fill="white"/>
<path d="M101.521 107.314C101.521 105.451 101.885 103.775 102.611 102.287C103.35 100.799 104.369 99.6504 105.67 98.8418C106.982 98.0332 108.477 97.6289 110.152 97.6289C112.742 97.6289 114.834 98.5254 116.428 100.318C118.033 102.111 118.836 104.496 118.836 107.473V107.701C118.836 109.553 118.479 111.217 117.764 112.693C117.061 114.158 116.047 115.301 114.723 116.121C113.41 116.941 111.898 117.352 110.188 117.352C107.609 117.352 105.518 116.455 103.912 114.662C102.318 112.869 101.521 110.496 101.521 107.543V107.314ZM104.791 107.701C104.791 109.811 105.277 111.504 106.25 112.781C107.234 114.059 108.547 114.697 110.188 114.697C111.84 114.697 113.152 114.053 114.125 112.764C115.098 111.463 115.584 109.646 115.584 107.314C115.584 105.229 115.086 103.541 114.09 102.252C113.105 100.951 111.793 100.301 110.152 100.301C108.547 100.301 107.252 100.939 106.268 102.217C105.283 103.494 104.791 105.322 104.791 107.701Z" fill="white"/>
<path d="M126.729 109.793C126.752 108.398 126.91 107.297 127.203 106.488C127.496 105.68 128.094 104.783 128.996 103.799L131.299 101.426C132.283 100.312 132.775 99.1172 132.775 97.8398C132.775 96.6094 132.453 95.6484 131.809 94.957C131.164 94.2539 130.227 93.9023 128.996 93.9023C127.801 93.9023 126.84 94.2188 126.113 94.8516C125.387 95.4844 125.023 96.334 125.023 97.4004H121.771C121.795 95.502 122.469 93.9727 123.793 92.8125C125.129 91.6406 126.863 91.0547 128.996 91.0547C131.211 91.0547 132.934 91.6523 134.164 92.8477C135.406 94.0312 136.027 95.6602 136.027 97.7344C136.027 99.7852 135.078 101.807 133.18 103.799L131.264 105.697C130.408 106.646 129.98 108.012 129.98 109.793H126.729ZM126.588 115.365C126.588 114.838 126.746 114.398 127.062 114.047C127.391 113.684 127.871 113.502 128.504 113.502C129.137 113.502 129.617 113.684 129.945 114.047C130.273 114.398 130.438 114.838 130.438 115.365C130.438 115.893 130.273 116.332 129.945 116.684C129.617 117.023 129.137 117.193 128.504 117.193C127.871 117.193 127.391 117.023 127.062 116.684C126.746 116.332 126.588 115.893 126.588 115.365Z" fill="white"/>
</g>
<g id="Group 358">
<path id="Rectangle 188 (Stroke)" fill-rule="evenodd" clip-rule="evenodd" d="M367.174 279.586L476.069 388.48L584.963 279.586L476.069 170.691L367.174 279.586ZM478.069 167.035L585.206 274.172V222.618L478.069 111.823L478.069 167.035ZM589.206 221V281L476.069 394.137L362.931 281L362.931 221L476.069 104L589.206 221ZM474.069 111.823L366.931 222.618L366.931 274.172L474.069 167.035L474.069 111.823Z" fill="white"/>
<g id="Group 359">
<path id="Ellipse 41 (Stroke)" fill-rule="evenodd" clip-rule="evenodd" d="M475.568 336C506.22 336 531.068 311.152 531.068 280.5C531.068 249.848 506.22 225 475.568 225C444.917 225 420.068 249.848 420.068 280.5C420.068 311.152 444.917 336 475.568 336ZM475.568 339C507.877 339 534.068 312.809 534.068 280.5C534.068 248.191 507.877 222 475.568 222C443.26 222 417.068 248.191 417.068 280.5C417.068 312.809 443.26 339 475.568 339Z" fill="white"/>
<path id="Rectangle 189" d="M420.068 264L532.068 264L473.637 339.137L420.068 264Z" fill="white"/>
<path id="Rectangle 190 (Stroke)" fill-rule="evenodd" clip-rule="evenodd" d="M422.068 266L476.303 222L530.068 266L422.068 266ZM521.666 263L476.294 225.87L430.528 263L521.666 263Z" fill="white"/>
</g>
<path id="Ellipse 42 (Stroke)" fill-rule="evenodd" clip-rule="evenodd" d="M389.27 222.157C389.819 219.96 389.408 218.49 388.635 217.718C387.863 216.945 386.392 216.533 384.196 217.082C382.044 217.62 379.55 219.025 377.321 221.253C375.093 223.482 373.689 225.976 373.151 228.127C372.602 230.324 373.013 231.794 373.786 232.567C374.558 233.339 376.029 233.751 378.225 233.202C380.377 232.664 382.871 231.26 385.1 229.031C387.328 226.803 388.732 224.309 389.27 222.157ZM386.514 230.446C391.395 225.564 392.978 219.232 390.049 216.303C387.12 213.374 380.789 214.957 375.907 219.839C371.026 224.72 369.443 231.052 372.372 233.981C375.301 236.91 381.632 235.327 386.514 230.446Z" fill="white"/>
<path id="Ellipse 43 (Stroke)" fill-rule="evenodd" clip-rule="evenodd" d="M571.195 226.202C573.392 226.751 574.862 226.339 575.635 225.567C576.408 224.794 576.819 223.324 576.27 221.127C575.732 218.976 574.328 216.482 572.099 214.253C569.871 212.025 567.377 210.62 565.225 210.082C563.029 209.533 561.558 209.945 560.786 210.718C560.013 211.49 559.601 212.96 560.151 215.157C560.689 217.309 562.093 219.803 564.321 222.031C566.55 224.26 569.044 225.664 571.195 226.202ZM562.907 223.445C567.789 228.327 574.12 229.91 577.049 226.981C579.978 224.052 578.395 217.72 573.514 212.839C568.632 207.957 562.3 206.374 559.372 209.303C556.443 212.232 558.025 218.564 562.907 223.445Z" fill="white"/>
<path id="Ellipse 44 (Stroke)" fill-rule="evenodd" clip-rule="evenodd" d="M571.195 253.202C573.392 253.751 574.862 253.339 575.635 252.567C576.408 251.794 576.819 250.324 576.27 248.127C575.732 245.976 574.328 243.482 572.099 241.253C569.871 239.025 567.377 237.62 565.225 237.082C563.029 236.533 561.558 236.945 560.786 237.718C560.013 238.49 559.601 239.96 560.151 242.157C560.689 244.309 562.093 246.803 564.321 249.031C566.55 251.26 569.044 252.664 571.195 253.202ZM562.907 250.445C567.789 255.327 574.12 256.91 577.049 253.981C579.978 251.052 578.395 244.72 573.514 239.839C568.632 234.957 562.3 233.374 559.372 236.303C556.443 239.232 558.025 245.564 562.907 250.445Z" fill="white"/>
</g>
</g>
<g id="claves">
<g id="Group 21">
<g id="Group 238">
<path id="Ellipse 1" d="M81 497.026C81 519.683 63.0914 538.051 41 538.051C18.9086 538.051 1 519.683 1 497.026C1 474.368 18.9086 456 41 456C63.0914 456 81 474.368 81 497.026Z" fill="#CD08D1"/>
<path id="A" d="M49.0938 507.699H31.4688L27.7812 518.564H19.5625L36.75 471.897H43.8438L61.0625 518.564H52.8125L49.0938 507.699ZM33.6875 501.16H46.875L40.2812 481.801L33.6875 501.16Z" fill="white"/>
</g>
</g>
<g id="Group 17">
<g id="Group 240">
<path id="Ellipse 2" d="M420 501C420 523.091 402.091 541 380 541C357.909 541 340 523.091 340 501C340 478.909 357.909 461 380 461C402.091 461 420 478.909 420 501Z" fill="#CD08D1"/>
<path id="B" d="M363.625 517V471.5H379.219C384.365 471.5 388.281 472.531 390.969 474.594C393.656 476.656 395 479.729 395 483.812C395 485.896 394.438 487.771 393.312 489.438C392.188 491.104 390.542 492.396 388.375 493.312C390.833 493.979 392.729 495.24 394.062 497.094C395.417 498.927 396.094 501.135 396.094 503.719C396.094 507.99 394.719 511.271 391.969 513.562C389.24 515.854 385.323 517 380.219 517H363.625ZM371.531 496.469V510.688H380.312C382.792 510.688 384.729 510.073 386.125 508.844C387.521 507.615 388.219 505.906 388.219 503.719C388.219 498.99 385.802 496.573 380.969 496.469H371.531ZM371.531 490.656H379.281C381.74 490.656 383.656 490.104 385.031 489C386.427 487.875 387.125 486.292 387.125 484.25C387.125 482 386.479 480.375 385.188 479.375C383.917 478.375 381.927 477.875 379.219 477.875H371.531V490.656Z" fill="white"/>
</g>
</g>
<g id="Group 18">
<g id="Group 242">
<path id="Ellipse 3" d="M728 657C728 679.091 710.091 697 688 697C665.909 697 648 679.091 648 657C648 634.909 665.909 617 688 617C710.091 617 728 634.909 728 657Z" fill="#CD08D1"/>
<path id="C" d="M705.344 664.188C704.885 669.042 703.094 672.833 699.969 675.562C696.844 678.271 692.688 679.625 687.5 679.625C683.875 679.625 680.677 678.771 677.906 677.062C675.156 675.333 673.031 672.885 671.531 669.719C670.031 666.552 669.25 662.875 669.188 658.688V654.438C669.188 650.146 669.948 646.365 671.469 643.094C672.99 639.823 675.167 637.302 678 635.531C680.854 633.76 684.146 632.875 687.875 632.875C692.896 632.875 696.938 634.24 700 636.969C703.062 639.698 704.844 643.552 705.344 648.531H697.469C697.094 645.26 696.135 642.906 694.594 641.469C693.073 640.01 690.833 639.281 687.875 639.281C684.438 639.281 681.792 640.542 679.938 643.062C678.104 645.562 677.167 649.24 677.125 654.094V658.125C677.125 663.042 678 666.792 679.75 669.375C681.521 671.958 684.104 673.25 687.5 673.25C690.604 673.25 692.938 672.552 694.5 671.156C696.062 669.76 697.052 667.438 697.469 664.188H705.344Z" fill="white"/>
</g>
</g>
<g id="Group 19">
<g id="Group 244">
<path id="Ellipse 4" d="M80 814C80 836.091 62.0914 854 40 854C17.9086 854 0 836.091 0 814C0 791.909 17.9086 774 40 774C62.0914 774 80 791.909 80 814Z" fill="#CD08D1"/>
<path id="D" d="M22.625 836V790.5H36.0625C40.0833 790.5 43.6458 791.396 46.75 793.188C49.875 794.979 52.2917 797.521 54 800.812C55.7083 804.104 56.5625 807.875 56.5625 812.125V814.406C56.5625 818.719 55.6979 822.51 53.9688 825.781C52.2604 829.052 49.8125 831.573 46.625 833.344C43.4583 835.115 39.8229 836 35.7188 836H22.625ZM30.5312 796.875V829.688H35.6875C39.8333 829.688 43.0104 828.396 45.2188 825.812C47.4479 823.208 48.5833 819.479 48.625 814.625V812.094C48.625 807.156 47.5521 803.385 45.4062 800.781C43.2604 798.177 40.1458 796.875 36.0625 796.875H30.5312Z" fill="white"/>
</g>
</g>
<g id="Group 20">
<g id="Group 245">
<path id="Ellipse 5" d="M411 813C411 835.091 393.091 853 371 853C348.909 853 331 835.091 331 813C331 790.909 348.909 773 371 773C393.091 773 411 790.909 411 813Z" fill="#CD08D1"/>
<path id="E" d="M380.219 814.688H361.531V828.688H383.375V835H353.625V789.5H383.156V795.875H361.531V808.438H380.219V814.688Z" fill="white"/>
</g>
</g>
<g id="Group 365">
<g id="Group 360">
<g id="Group 359_2">
<path id="Ellipse 41 (Stroke)_2" fill-rule="evenodd" clip-rule="evenodd" d="M169.975 545.361C161.712 553.625 161.712 567.023 169.975 575.287C178.239 583.551 191.638 583.551 199.902 575.287C208.166 567.023 208.166 553.625 199.902 545.361C191.638 537.097 178.239 537.097 169.975 545.361ZM169.167 544.552C160.456 553.263 160.456 567.386 169.167 576.096C177.877 584.807 192 584.807 200.71 576.096C209.421 567.386 209.421 553.263 200.71 544.552C192 535.842 177.877 535.842 169.167 544.552Z" fill="white"/>
<path id="Rectangle 189_2" d="M204.35 549.81L174.154 580.006L169.65 543.995L204.35 549.81Z" fill="white"/>
<path id="Rectangle 190 (Stroke)_2" fill-rule="evenodd" clip-rule="evenodd" d="M203.271 549.81L200.512 576.294L174.154 578.927L203.271 549.81ZM177.228 577.47L199.471 575.248L201.8 552.899L177.228 577.47Z" fill="white"/>
</g>
<path id="Rectangle 191 (Stroke)" fill-rule="evenodd" clip-rule="evenodd" d="M156 652H96V712H216V533H277V472H156V652ZM158 593.017V651H214V593.483L158 593.017ZM214 591.483V534H160.901L158 533.42V591.017L214 591.483ZM158 531.38L161.099 532H214V531H215V474H158V531.38ZM217 474V531H275V474H217ZM214 653H158V654H157V710H214V653ZM155 710V654H98V710H155Z" fill="white"/>
<path id="Ellipse 45 (Stroke)" fill-rule="evenodd" clip-rule="evenodd" d="M203.5 527C206.538 527 209 524.538 209 521.5C209 518.462 206.538 516 203.5 516C200.462 516 198 518.462 198 521.5C198 524.538 200.462 527 203.5 527ZM203.5 529C207.642 529 211 525.642 211 521.5C211 517.358 207.642 514 203.5 514C199.358 514 196 517.358 196 521.5C196 525.642 199.358 529 203.5 529Z" fill="white"/>
<path id="Ellipse 46 (Stroke)" fill-rule="evenodd" clip-rule="evenodd" d="M110.5 671C113.538 671 116 668.538 116 665.5C116 662.462 113.538 660 110.5 660C107.462 660 105 662.462 105 665.5C105 668.538 107.462 671 110.5 671ZM110.5 673C114.642 673 118 669.642 118 665.5C118 661.358 114.642 658 110.5 658C106.358 658 103 661.358 103 665.5C103 669.642 106.358 673 110.5 673Z" fill="white"/>
<path id="Ellipse 47 (Stroke)" fill-rule="evenodd" clip-rule="evenodd" d="M110.5 703C113.538 703 116 700.538 116 697.5C116 694.462 113.538 692 110.5 692C107.462 692 105 694.462 105 697.5C105 700.538 107.462 703 110.5 703ZM110.5 705C114.642 705 118 701.642 118 697.5C118 693.358 114.642 690 110.5 690C106.358 690 103 693.358 103 697.5C103 701.642 106.358 705 110.5 705Z" fill="white"/>
</g>
<g id="Group 361">
<g id="Group 359_3">
<path id="Ellipse 41 (Stroke)_3" fill-rule="evenodd" clip-rule="evenodd" d="M491.331 598.716C483.067 606.98 483.067 620.379 491.331 628.643C499.595 636.906 512.993 636.906 521.257 628.643C529.521 620.379 529.521 606.98 521.257 598.716C512.993 590.452 499.595 590.452 491.331 598.716ZM490.522 597.908C481.811 606.618 481.811 620.741 490.522 629.451C499.233 638.162 513.355 638.162 522.066 629.451C530.777 620.741 530.777 606.618 522.066 597.908C513.355 589.197 499.233 589.197 490.522 597.908Z" fill="white"/>
<path id="Rectangle 189_3" d="M525.705 603.165L495.509 633.361L491.005 597.35L525.705 603.165Z" fill="white"/>
<path id="Rectangle 190 (Stroke)_3" fill-rule="evenodd" clip-rule="evenodd" d="M524.627 603.165L521.868 629.649L495.509 632.282L524.627 603.165ZM498.584 630.826L520.827 628.604L523.155 606.254L498.584 630.826Z" fill="white"/>
</g>
<path id="Rectangle 191 (Stroke)_2" fill-rule="evenodd" clip-rule="evenodd" d="M477 645H417V705H537V526H598V465H477V645ZM479 586.017V644H535V586.483L479 586.017ZM535 584.483V527H481.901L479 526.42V584.017L535 584.483ZM479 524.38L482.099 525H535V524H536V467H479V524.38ZM538 467V524H596V467H538ZM535 646H479V647H478V703H535V646ZM476 703V647H419V703H476Z" fill="white"/>
<path id="Ellipse 45 (Stroke)_2" fill-rule="evenodd" clip-rule="evenodd" d="M523.5 696C526.538 696 529 693.538 529 690.5C529 687.462 526.538 685 523.5 685C520.462 685 518 687.462 518 690.5C518 693.538 520.462 696 523.5 696ZM523.5 698C527.642 698 531 694.642 531 690.5C531 686.358 527.642 683 523.5 683C519.358 683 516 686.358 516 690.5C516 694.642 519.358 698 523.5 698Z" fill="white"/>
<path id="Ellipse 46 (Stroke)_2" fill-rule="evenodd" clip-rule="evenodd" d="M461.5 664C464.538 664 467 661.538 467 658.5C467 655.462 464.538 653 461.5 653C458.462 653 456 655.462 456 658.5C456 661.538 458.462 664 461.5 664ZM461.5 666C465.642 666 469 662.642 469 658.5C469 654.358 465.642 651 461.5 651C457.358 651 454 654.358 454 658.5C454 662.642 457.358 666 461.5 666Z" fill="white"/>
<path id="Ellipse 47 (Stroke)_2" fill-rule="evenodd" clip-rule="evenodd" d="M461.5 696C464.538 696 467 693.538 467 690.5C467 687.462 464.538 685 461.5 685C458.462 685 456 687.462 456 690.5C456 693.538 458.462 696 461.5 696ZM461.5 698C465.642 698 469 694.642 469 690.5C469 686.358 465.642 683 461.5 683C457.358 683 454 686.358 454 690.5C454 694.642 457.358 698 461.5 698Z" fill="white"/>
</g>
<g id="Group 362">
<g id="Group 359_4">
<path id="Ellipse 41 (Stroke)_4" fill-rule="evenodd" clip-rule="evenodd" d="M837.38 773.994C845.644 765.73 845.644 752.332 837.38 744.068C829.116 735.804 815.718 735.804 807.454 744.068C799.19 752.332 799.19 765.73 807.454 773.994C815.718 782.258 829.116 782.258 837.38 773.994ZM838.189 774.803C846.899 766.092 846.899 751.97 838.189 743.259C829.478 734.548 815.356 734.548 806.645 743.259C797.934 751.97 797.934 766.092 806.645 774.803C815.356 783.514 829.478 783.514 838.189 774.803Z" fill="white"/>
<path id="Rectangle 189_4" d="M803.006 769.546L833.202 739.35L837.706 775.361L803.006 769.546Z" fill="white"/>
<path id="Rectangle 190 (Stroke)_4" fill-rule="evenodd" clip-rule="evenodd" d="M804.084 769.546L806.843 743.061L833.201 740.428L804.084 769.546ZM830.127 741.885L807.884 744.107L805.556 766.456L830.127 741.885Z" fill="white"/>
</g>
<path id="Rectangle 191 (Stroke)_3" fill-rule="evenodd" clip-rule="evenodd" d="M794 787H734V847H854V668H915V607H794V787ZM796 728.017V786H852V728.483L796 728.017ZM852 726.483V669H798.901L796 668.42V726.017L852 726.483ZM796 666.38L799.099 667H852V666H853V609H796V666.38ZM855 609V666H913V609H855ZM852 788H796V789H795V845H852V788ZM793 845V789H736V845H793Z" fill="white"/>
<path id="Ellipse 45 (Stroke)_3" fill-rule="evenodd" clip-rule="evenodd" d="M784.5 838C787.538 838 790 835.538 790 832.5C790 829.462 787.538 827 784.5 827C781.462 827 779 829.462 779 832.5C779 835.538 781.462 838 784.5 838ZM784.5 840C788.642 840 792 836.642 792 832.5C792 828.358 788.642 825 784.5 825C780.358 825 777 828.358 777 832.5C777 836.642 780.358 840 784.5 840Z" fill="white"/>
<g id="Group 363">
<path id="Ellipse 46 (Stroke)_3" fill-rule="evenodd" clip-rule="evenodd" d="M841.5 686C844.538 686 847 683.538 847 680.5C847 677.462 844.538 675 841.5 675C838.462 675 836 677.462 836 680.5C836 683.538 838.462 686 841.5 686ZM841.5 688C845.642 688 849 684.642 849 680.5C849 676.358 845.642 673 841.5 673C837.358 673 834 676.358 834 680.5C834 684.642 837.358 688 841.5 688Z" fill="white"/>
<path id="Ellipse 47 (Stroke)_3" fill-rule="evenodd" clip-rule="evenodd" d="M841.5 718C844.538 718 847 715.538 847 712.5C847 709.462 844.538 707 841.5 707C838.462 707 836 709.462 836 712.5C836 715.538 838.462 718 841.5 718ZM841.5 720C845.642 720 849 716.642 849 712.5C849 708.358 845.642 705 841.5 705C837.358 705 834 708.358 834 712.5C834 716.642 837.358 720 841.5 720Z" fill="white"/>
</g>
</g>
<g id="Group 363_2">
<g id="Group 359_5">
<path id="Ellipse 41 (Stroke)_5" fill-rule="evenodd" clip-rule="evenodd" d="M179.994 910.331C171.73 902.067 158.332 902.067 150.068 910.331C141.804 918.595 141.804 931.993 150.068 940.257C158.332 948.521 171.73 948.521 179.994 940.257C188.258 931.993 188.258 918.595 179.994 910.331ZM180.803 909.522C172.093 900.811 157.97 900.811 149.259 909.522C140.549 918.233 140.549 932.355 149.259 941.066C157.97 949.777 172.093 949.777 180.803 941.066C189.514 932.355 189.514 918.233 180.803 909.522Z" fill="white"/>
<path id="Rectangle 189_5" d="M175.546 944.706L145.35 914.51L181.361 910.006L175.546 944.706Z" fill="white"/>
<path id="Rectangle 190 (Stroke)_5" fill-rule="evenodd" clip-rule="evenodd" d="M175.546 943.627L149.061 940.868L146.428 914.509L175.546 943.627ZM147.885 917.584L150.107 939.827L172.456 942.155L147.885 917.584Z" fill="white"/>
</g>
<path id="Rectangle 191 (Stroke)_4" fill-rule="evenodd" clip-rule="evenodd" d="M132 954H72V1014H192V835H253V774H132V954ZM134 895.017V953H190V895.483L134 895.017ZM190 893.483V836H136.901L134 835.42V893.017L190 893.483ZM134 833.38L137.099 834H190V833H191V776H134V833.38ZM193 776V833H251V776H193ZM190 955H134V956H133V1012H190V955ZM131 1012V956H74V1012H131Z" fill="white"/>
<path id="Ellipse 45 (Stroke)_4" fill-rule="evenodd" clip-rule="evenodd" d="M179.5 1005C182.538 1005 185 1002.54 185 999.5C185 996.462 182.538 994 179.5 994C176.462 994 174 996.462 174 999.5C174 1002.54 176.462 1005 179.5 1005ZM179.5 1007C183.642 1007 187 1003.64 187 999.5C187 995.358 183.642 992 179.5 992C175.358 992 172 995.358 172 999.5C172 1003.64 175.358 1007 179.5 1007Z" fill="white"/>
<g id="Group 363_3">
<path id="Ellipse 46 (Stroke)_4" fill-rule="evenodd" clip-rule="evenodd" d="M88.5 973C91.5376 973 94 970.538 94 967.5C94 964.462 91.5376 962 88.5 962C85.4624 962 83 964.462 83 967.5C83 970.538 85.4624 973 88.5 973ZM88.5 975C92.6421 975 96 971.642 96 967.5C96 963.358 92.6421 960 88.5 960C84.3579 960 81 963.358 81 967.5C81 971.642 84.3579 975 88.5 975Z" fill="white"/>
<path id="Ellipse 47 (Stroke)_4" fill-rule="evenodd" clip-rule="evenodd" d="M88.5 1005C91.5376 1005 94 1002.54 94 999.5C94 996.462 91.5376 994 88.5 994C85.4624 994 83 996.462 83 999.5C83 1002.54 85.4624 1005 88.5 1005ZM88.5 1007C92.6421 1007 96 1003.64 96 999.5C96 995.358 92.6421 992 88.5 992C84.3579 992 81 995.358 81 999.5C81 1003.64 84.3579 1007 88.5 1007Z" fill="white"/>
</g>
</g>
<g id="Group 364">
<g id="Group 359_6">
<path id="Ellipse 41 (Stroke)_6" fill-rule="evenodd" clip-rule="evenodd" d="M537.273 893.804C548.96 893.804 558.434 884.33 558.434 872.643C558.434 860.956 548.96 851.482 537.273 851.482C525.586 851.482 516.112 860.956 516.112 872.643C516.112 884.33 525.586 893.804 537.273 893.804ZM537.273 894.948C549.591 894.948 559.578 884.961 559.578 872.643C559.578 860.324 549.591 850.338 537.273 850.338C524.954 850.338 514.968 860.324 514.968 872.643C514.968 884.961 524.954 894.948 537.273 894.948Z" fill="white"/>
<path id="Rectangle 189_6" d="M516.112 866.352L558.815 866.352L536.536 895L516.112 866.352Z" fill="white"/>
<path id="Rectangle 190 (Stroke)_6" fill-rule="evenodd" clip-rule="evenodd" d="M516.874 867.114L537.552 850.338L558.052 867.114L516.874 867.114ZM554.849 865.97L537.549 851.813L520.099 865.97L554.849 865.97Z" fill="white"/>
</g>
<path id="Rectangle 191 (Stroke)_5" fill-rule="evenodd" clip-rule="evenodd" d="M567 843H628V782H447V843C447.642 842.988 448.309 842.975 449 842.962C465.532 842.646 495.497 842.098 505 842.012C505.364 842.008 505.698 842.006 506 842.004C506.387 842.001 506.722 842 507 842V1022H567V843ZM565 901.483V844H511.901L509 843.42V901.017L565 901.483ZM509 903.017V961H565V903.483L509 903.017ZM565 963H509V1020H565V963ZM509 841.38L512.099 842H565V841H566V784H508V840H509V841.38ZM506 840.004V784H449V840.961C466.165 840.633 497.8 840.055 506 840.004ZM568 784V841H626V784H568Z" fill="white"/>
<path id="Ellipse 45 (Stroke)_5" fill-rule="evenodd" clip-rule="evenodd" d="M462.5 803C465.538 803 468 800.538 468 797.5C468 794.462 465.538 792 462.5 792C459.462 792 457 794.462 457 797.5C457 800.538 459.462 803 462.5 803ZM462.5 805C466.642 805 470 801.642 470 797.5C470 793.358 466.642 790 462.5 790C458.358 790 455 793.358 455 797.5C455 801.642 458.358 805 462.5 805Z" fill="white"/>
<g id="Group 363_4">
<path id="Ellipse 46 (Stroke)_5" fill-rule="evenodd" clip-rule="evenodd" d="M552.5 803C555.538 803 558 800.538 558 797.5C558 794.462 555.538 792 552.5 792C549.462 792 547 794.462 547 797.5C547 800.538 549.462 803 552.5 803ZM552.5 805C556.642 805 560 801.642 560 797.5C560 793.358 556.642 790 552.5 790C548.358 790 545 793.358 545 797.5C545 801.642 548.358 805 552.5 805Z" fill="white"/>
<path id="Ellipse 47 (Stroke)_5" fill-rule="evenodd" clip-rule="evenodd" d="M552.5 835C555.538 835 558 832.538 558 829.5C558 826.462 555.538 824 552.5 824C549.462 824 547 826.462 547 829.5C547 832.538 549.462 835 552.5 835ZM552.5 837C556.642 837 560 833.642 560 829.5C560 825.358 556.642 822 552.5 822C548.358 822 545 825.358 545 829.5C545 833.642 548.358 837 552.5 837Z" fill="white"/>
</g>
</g>
</g>
<g id="flecha">
<path id="Rectangle 2" d="M696.2 619.008L711.482 627.133L669.5 706.089L654.219 697.963L696.2 619.008Z" fill="#1043F5"/>
<path id="Rectangle 1_2" d="M638 631.904L728 582V639.692L683 622.096L638 631.904Z" fill="#1043F5"/>
<path id="Rectangle 3" d="M642.038 701.21L657.665 674.143L674.936 673.565L659.309 700.632L642.038 701.21Z" fill="#1043F5"/>
<path id="Rectangle 4" d="M668.09 715.845L683.717 688.778L674.926 673.154L659.299 700.221L668.09 715.845Z" fill="#1043F5"/>
</g>
</g>
</g>
</svg>
