<svg viewBox="0 0 1000 769" fill="none" xmlns="http://www.w3.org/2000/svg">
<g id="0127107">
<g id="enunciado">
<g id="Group 71">
<path id="Rectangle 1" d="M45 66.8563C45 31.8082 67.5821 3.39621 95.4386 3.39621H965V442.54C965 477.588 942.418 506 914.561 506H45V66.8563Z" fill="#02071A"/>
<path id="Rectangle 1 (Stroke)" fill-rule="evenodd" clip-rule="evenodd" d="M959.956 9.69002H95.4386C70.3678 9.69002 50.0439 35.2635 50.0439 66.81V499.653H914.561C939.632 499.653 959.956 474.079 959.956 442.533V9.69002ZM95.4386 3.34335C67.5821 3.34335 45 31.7584 45 66.81V506H914.561C942.418 506 965 477.585 965 442.533V3.34335H95.4386Z" fill="#CD08D1"/>
<path id="Rectangle 14" d="M99.6251 3.51015C126.602 -4.38768 965 3.51015 965 3.51015V37.7015C965 37.7015 85.351 25.1343 54.0791 37.7015C63.8095 19.5669 72.6481 11.408 99.6251 3.51015Z" fill="#CD08D1"/>
<path id="Rectangle 15" d="M933.076 10.8672H963.065V443.848C959.384 473.231 951.755 484.03 933.076 498.126C938.573 475.042 933.076 10.8672 933.076 10.8672Z" fill="#CD08D1"/>
</g>
<g id="Halle el n&#195;&#186;mero total de cuadril&#195;&#161;teros.">
<path d="M101.469 86H96.5469V73.3633H83.832V86H78.8906V57.5625H83.832V69.3984H96.5469V57.5625H101.469V86Z" fill="white"/>
<path d="M119.496 86C119.288 85.5964 119.105 84.9388 118.949 84.0273C117.439 85.6029 115.59 86.3906 113.402 86.3906C111.28 86.3906 109.548 85.7852 108.207 84.5742C106.866 83.3633 106.195 81.8659 106.195 80.082C106.195 77.8294 107.029 76.1042 108.695 74.9062C110.375 73.6953 112.771 73.0898 115.883 73.0898H118.793V71.7031C118.793 70.6094 118.487 69.737 117.875 69.0859C117.263 68.4219 116.332 68.0898 115.082 68.0898C114.001 68.0898 113.116 68.3633 112.426 68.9102C111.736 69.444 111.391 70.1276 111.391 70.9609H106.645C106.645 69.8021 107.029 68.7214 107.797 67.7188C108.565 66.7031 109.607 65.9089 110.922 65.3359C112.25 64.763 113.728 64.4766 115.355 64.4766C117.829 64.4766 119.802 65.1016 121.273 66.3516C122.745 67.5885 123.5 69.3333 123.539 71.5859V81.1172C123.539 83.0182 123.806 84.5352 124.34 85.668V86H119.496ZM114.281 82.582C115.219 82.582 116.098 82.3542 116.918 81.8984C117.751 81.4427 118.376 80.8307 118.793 80.0625V76.0781H116.234C114.477 76.0781 113.155 76.3841 112.27 76.9961C111.384 77.6081 110.941 78.474 110.941 79.5938C110.941 80.5052 111.241 81.2344 111.84 81.7812C112.452 82.3151 113.266 82.582 114.281 82.582Z" fill="white"/>
<path d="M133.559 86H128.812V56H133.559V86Z" fill="white"/>
<path d="M143.793 86H139.047V56H143.793V86Z" fill="white"/>
<path d="M158.285 86.3906C155.277 86.3906 152.836 85.4466 150.961 83.5586C149.099 81.6576 148.168 79.1315 148.168 75.9805V75.3945C148.168 73.2852 148.572 71.4036 149.379 69.75C150.199 68.0833 151.345 66.7878 152.816 65.8633C154.288 64.9388 155.928 64.4766 157.738 64.4766C160.616 64.4766 162.836 65.3945 164.398 67.2305C165.974 69.0664 166.762 71.6641 166.762 75.0234V76.9375H152.953C153.096 78.6823 153.676 80.0625 154.691 81.0781C155.72 82.0938 157.009 82.6016 158.559 82.6016C160.733 82.6016 162.504 81.7227 163.871 79.9648L166.43 82.4062C165.583 83.6693 164.451 84.6523 163.031 85.3555C161.625 86.0456 160.043 86.3906 158.285 86.3906ZM157.719 68.2852C156.417 68.2852 155.362 68.7409 154.555 69.6523C153.76 70.5638 153.253 71.8333 153.031 73.4609H162.074V73.1094C161.97 71.5208 161.547 70.3229 160.805 69.5156C160.062 68.6953 159.034 68.2852 157.719 68.2852Z" fill="white"/>
<path d="M189.73 86.3906C186.723 86.3906 184.281 85.4466 182.406 83.5586C180.544 81.6576 179.613 79.1315 179.613 75.9805V75.3945C179.613 73.2852 180.017 71.4036 180.824 69.75C181.645 68.0833 182.79 66.7878 184.262 65.8633C185.733 64.9388 187.374 64.4766 189.184 64.4766C192.061 64.4766 194.281 65.3945 195.844 67.2305C197.419 69.0664 198.207 71.6641 198.207 75.0234V76.9375H184.398C184.542 78.6823 185.121 80.0625 186.137 81.0781C187.165 82.0938 188.454 82.6016 190.004 82.6016C192.178 82.6016 193.949 81.7227 195.316 79.9648L197.875 82.4062C197.029 83.6693 195.896 84.6523 194.477 85.3555C193.07 86.0456 191.488 86.3906 189.73 86.3906ZM189.164 68.2852C187.862 68.2852 186.807 68.7409 186 69.6523C185.206 70.5638 184.698 71.8333 184.477 73.4609H193.52V73.1094C193.415 71.5208 192.992 70.3229 192.25 69.5156C191.508 68.6953 190.479 68.2852 189.164 68.2852Z" fill="white"/>
<path d="M206.957 86H202.211V56H206.957V86Z" fill="white"/>
<path d="M226.508 64.8672L226.645 67.3086C228.207 65.4206 230.258 64.4766 232.797 64.4766C237.198 64.4766 239.438 66.9961 239.516 72.0352V86H234.77V72.3086C234.77 70.9674 234.477 69.9779 233.891 69.3398C233.318 68.6888 232.374 68.3633 231.059 68.3633C229.145 68.3633 227.719 69.2292 226.781 70.9609V86H222.035V64.8672H226.508Z" fill="white"/>
<path d="M257.172 83.9297C255.779 85.5703 253.799 86.3906 251.234 86.3906C248.943 86.3906 247.204 85.7201 246.02 84.3789C244.848 83.0378 244.262 81.0977 244.262 78.5586V64.8672H249.008V78.5C249.008 81.1823 250.121 82.5234 252.348 82.5234C254.652 82.5234 256.208 81.6966 257.016 80.043V64.8672H261.762V86H257.289L257.172 83.9297ZM254.457 56H259.867L254.457 61.918H250.648L254.457 56Z" fill="white"/>
<path d="M271.059 64.8672L271.195 67.0742C272.68 65.3424 274.711 64.4766 277.289 64.4766C280.115 64.4766 282.048 65.5573 283.09 67.7188C284.626 65.5573 286.788 64.4766 289.574 64.4766C291.905 64.4766 293.637 65.1211 294.77 66.4102C295.915 67.6992 296.501 69.6003 296.527 72.1133V86H291.781V72.25C291.781 70.9089 291.488 69.9258 290.902 69.3008C290.316 68.6758 289.346 68.3633 287.992 68.3633C286.911 68.3633 286.026 68.6562 285.336 69.2422C284.659 69.8151 284.184 70.5703 283.91 71.5078L283.93 86H279.184V72.0938C279.118 69.6068 277.849 68.3633 275.375 68.3633C273.474 68.3633 272.126 69.138 271.332 70.6875V86H266.586V64.8672H271.059Z" fill="white"/>
<path d="M310.707 86.3906C307.699 86.3906 305.258 85.4466 303.383 83.5586C301.521 81.6576 300.59 79.1315 300.59 75.9805V75.3945C300.59 73.2852 300.993 71.4036 301.801 69.75C302.621 68.0833 303.767 66.7878 305.238 65.8633C306.71 64.9388 308.35 64.4766 310.16 64.4766C313.038 64.4766 315.258 65.3945 316.82 67.2305C318.396 69.0664 319.184 71.6641 319.184 75.0234V76.9375H305.375C305.518 78.6823 306.098 80.0625 307.113 81.0781C308.142 82.0938 309.431 82.6016 310.98 82.6016C313.155 82.6016 314.926 81.7227 316.293 79.9648L318.852 82.4062C318.005 83.6693 316.872 84.6523 315.453 85.3555C314.047 86.0456 312.465 86.3906 310.707 86.3906ZM310.141 68.2852C308.839 68.2852 307.784 68.7409 306.977 69.6523C306.182 70.5638 305.674 71.8333 305.453 73.4609H314.496V73.1094C314.392 71.5208 313.969 70.3229 313.227 69.5156C312.484 68.6953 311.456 68.2852 310.141 68.2852Z" fill="white"/>
<path d="M333.949 69.2031C333.324 69.099 332.68 69.0469 332.016 69.0469C329.841 69.0469 328.376 69.8802 327.621 71.5469V86H322.875V64.8672H327.406L327.523 67.2305C328.669 65.3945 330.258 64.4766 332.289 64.4766C332.966 64.4766 333.526 64.5677 333.969 64.75L333.949 69.2031Z" fill="white"/>
<path d="M335.355 75.2383C335.355 73.168 335.766 71.306 336.586 69.6523C337.406 67.9857 338.559 66.7096 340.043 65.8242C341.527 64.9258 343.233 64.4766 345.16 64.4766C348.012 64.4766 350.323 65.3945 352.094 67.2305C353.878 69.0664 354.841 71.5013 354.984 74.5352L355.004 75.6484C355.004 77.7318 354.6 79.5938 353.793 81.2344C352.999 82.875 351.853 84.1445 350.355 85.043C348.871 85.9414 347.152 86.3906 345.199 86.3906C342.217 86.3906 339.828 85.401 338.031 83.4219C336.247 81.4297 335.355 78.7799 335.355 75.4727V75.2383ZM340.102 75.6484C340.102 77.8229 340.551 79.5286 341.449 80.7656C342.348 81.9896 343.598 82.6016 345.199 82.6016C346.801 82.6016 348.044 81.9766 348.93 80.7266C349.828 79.4766 350.277 77.6471 350.277 75.2383C350.277 73.1029 349.815 71.4102 348.891 70.1602C347.979 68.9102 346.736 68.2852 345.16 68.2852C343.611 68.2852 342.38 68.9036 341.469 70.1406C340.557 71.3646 340.102 73.2005 340.102 75.6484Z" fill="white"/>
<path d="M374.926 59.7305V64.8672H378.656V68.3828H374.926V80.1797C374.926 80.987 375.082 81.5729 375.395 81.9375C375.72 82.2891 376.293 82.4648 377.113 82.4648C377.66 82.4648 378.214 82.3997 378.773 82.2695V85.9414C377.693 86.2409 376.651 86.3906 375.648 86.3906C372.003 86.3906 370.18 84.3789 370.18 80.3555V68.3828H366.703V64.8672H370.18V59.7305H374.926Z" fill="white"/>
<path d="M380.824 75.2383C380.824 73.168 381.234 71.306 382.055 69.6523C382.875 67.9857 384.027 66.7096 385.512 65.8242C386.996 64.9258 388.702 64.4766 390.629 64.4766C393.48 64.4766 395.792 65.3945 397.562 67.2305C399.346 69.0664 400.31 71.5013 400.453 74.5352L400.473 75.6484C400.473 77.7318 400.069 79.5938 399.262 81.2344C398.467 82.875 397.322 84.1445 395.824 85.043C394.34 85.9414 392.621 86.3906 390.668 86.3906C387.686 86.3906 385.297 85.401 383.5 83.4219C381.716 81.4297 380.824 78.7799 380.824 75.4727V75.2383ZM385.57 75.6484C385.57 77.8229 386.02 79.5286 386.918 80.7656C387.816 81.9896 389.066 82.6016 390.668 82.6016C392.27 82.6016 393.513 81.9766 394.398 80.7266C395.297 79.4766 395.746 77.6471 395.746 75.2383C395.746 73.1029 395.284 71.4102 394.359 70.1602C393.448 68.9102 392.204 68.2852 390.629 68.2852C389.079 68.2852 387.849 68.9036 386.938 70.1406C386.026 71.3646 385.57 73.2005 385.57 75.6484Z" fill="white"/>
<path d="M410.434 59.7305V64.8672H414.164V68.3828H410.434V80.1797C410.434 80.987 410.59 81.5729 410.902 81.9375C411.228 82.2891 411.801 82.4648 412.621 82.4648C413.168 82.4648 413.721 82.3997 414.281 82.2695V85.9414C413.201 86.2409 412.159 86.3906 411.156 86.3906C407.51 86.3906 405.688 84.3789 405.688 80.3555V68.3828H402.211V64.8672H405.688V59.7305H410.434Z" fill="white"/>
<path d="M430.434 86C430.225 85.5964 430.043 84.9388 429.887 84.0273C428.376 85.6029 426.527 86.3906 424.34 86.3906C422.217 86.3906 420.486 85.7852 419.145 84.5742C417.803 83.3633 417.133 81.8659 417.133 80.082C417.133 77.8294 417.966 76.1042 419.633 74.9062C421.312 73.6953 423.708 73.0898 426.82 73.0898H429.73V71.7031C429.73 70.6094 429.424 69.737 428.812 69.0859C428.201 68.4219 427.27 68.0898 426.02 68.0898C424.939 68.0898 424.053 68.3633 423.363 68.9102C422.673 69.444 422.328 70.1276 422.328 70.9609H417.582C417.582 69.8021 417.966 68.7214 418.734 67.7188C419.503 66.7031 420.544 65.9089 421.859 65.3359C423.188 64.763 424.665 64.4766 426.293 64.4766C428.767 64.4766 430.74 65.1016 432.211 66.3516C433.682 67.5885 434.438 69.3333 434.477 71.5859V81.1172C434.477 83.0182 434.743 84.5352 435.277 85.668V86H430.434ZM425.219 82.582C426.156 82.582 427.035 82.3542 427.855 81.8984C428.689 81.4427 429.314 80.8307 429.73 80.0625V76.0781H427.172C425.414 76.0781 424.092 76.3841 423.207 76.9961C422.322 77.6081 421.879 78.474 421.879 79.5938C421.879 80.5052 422.178 81.2344 422.777 81.7812C423.389 82.3151 424.203 82.582 425.219 82.582Z" fill="white"/>
<path d="M444.496 86H439.75V56H444.496V86Z" fill="white"/>
<path d="M458.754 75.2773C458.754 72.0221 459.509 69.4115 461.02 67.4453C462.53 65.4661 464.555 64.4766 467.094 64.4766C469.333 64.4766 471.143 65.2578 472.523 66.8203V56H477.27V86H472.973L472.738 83.8125C471.319 85.5312 469.424 86.3906 467.055 86.3906C464.581 86.3906 462.576 85.3945 461.039 83.4023C459.516 81.4102 458.754 78.7018 458.754 75.2773ZM463.5 75.6875C463.5 77.8359 463.91 79.5156 464.73 80.7266C465.564 81.9245 466.742 82.5234 468.266 82.5234C470.206 82.5234 471.625 81.6576 472.523 79.9258V70.9023C471.651 69.2096 470.245 68.3633 468.305 68.3633C466.768 68.3633 465.583 68.9753 464.75 70.1992C463.917 71.4102 463.5 73.2396 463.5 75.6875Z" fill="white"/>
<path d="M491.527 86.3906C488.52 86.3906 486.078 85.4466 484.203 83.5586C482.341 81.6576 481.41 79.1315 481.41 75.9805V75.3945C481.41 73.2852 481.814 71.4036 482.621 69.75C483.441 68.0833 484.587 66.7878 486.059 65.8633C487.53 64.9388 489.171 64.4766 490.98 64.4766C493.858 64.4766 496.078 65.3945 497.641 67.2305C499.216 69.0664 500.004 71.6641 500.004 75.0234V76.9375H486.195C486.339 78.6823 486.918 80.0625 487.934 81.0781C488.962 82.0938 490.251 82.6016 491.801 82.6016C493.975 82.6016 495.746 81.7227 497.113 79.9648L499.672 82.4062C498.826 83.6693 497.693 84.6523 496.273 85.3555C494.867 86.0456 493.285 86.3906 491.527 86.3906ZM490.961 68.2852C489.659 68.2852 488.604 68.7409 487.797 69.6523C487.003 70.5638 486.495 71.8333 486.273 73.4609H495.316V73.1094C495.212 71.5208 494.789 70.3229 494.047 69.5156C493.305 68.6953 492.276 68.2852 490.961 68.2852Z" fill="white"/>
<path d="M522.348 82.6016C523.533 82.6016 524.516 82.2565 525.297 81.5664C526.078 80.8763 526.495 80.0234 526.547 79.0078H531.02C530.967 80.3229 530.557 81.5534 529.789 82.6992C529.021 83.832 527.979 84.7305 526.664 85.3945C525.349 86.0586 523.93 86.3906 522.406 86.3906C519.451 86.3906 517.107 85.4336 515.375 83.5195C513.643 81.6055 512.777 78.9622 512.777 75.5898V75.1016C512.777 71.8854 513.637 69.3138 515.355 67.3867C517.074 65.4466 519.418 64.4766 522.387 64.4766C524.9 64.4766 526.944 65.2122 528.52 66.6836C530.108 68.1419 530.941 70.0625 531.02 72.4453H526.547C526.495 71.2344 526.078 70.2383 525.297 69.457C524.529 68.6758 523.546 68.2852 522.348 68.2852C520.811 68.2852 519.626 68.8451 518.793 69.9648C517.96 71.0716 517.536 72.7578 517.523 75.0234V75.7852C517.523 78.0768 517.934 79.7891 518.754 80.9219C519.587 82.0417 520.785 82.6016 522.348 82.6016Z" fill="white"/>
<path d="M547.406 83.9297C546.013 85.5703 544.034 86.3906 541.469 86.3906C539.177 86.3906 537.439 85.7201 536.254 84.3789C535.082 83.0378 534.496 81.0977 534.496 78.5586V64.8672H539.242V78.5C539.242 81.1823 540.355 82.5234 542.582 82.5234C544.887 82.5234 546.443 81.6966 547.25 80.043V64.8672H551.996V86H547.523L547.406 83.9297Z" fill="white"/>
<path d="M569.457 86C569.249 85.5964 569.066 84.9388 568.91 84.0273C567.4 85.6029 565.551 86.3906 563.363 86.3906C561.241 86.3906 559.509 85.7852 558.168 84.5742C556.827 83.3633 556.156 81.8659 556.156 80.082C556.156 77.8294 556.99 76.1042 558.656 74.9062C560.336 73.6953 562.732 73.0898 565.844 73.0898H568.754V71.7031C568.754 70.6094 568.448 69.737 567.836 69.0859C567.224 68.4219 566.293 68.0898 565.043 68.0898C563.962 68.0898 563.077 68.3633 562.387 68.9102C561.697 69.444 561.352 70.1276 561.352 70.9609H556.605C556.605 69.8021 556.99 68.7214 557.758 67.7188C558.526 66.7031 559.568 65.9089 560.883 65.3359C562.211 64.763 563.689 64.4766 565.316 64.4766C567.79 64.4766 569.763 65.1016 571.234 66.3516C572.706 67.5885 573.461 69.3333 573.5 71.5859V81.1172C573.5 83.0182 573.767 84.5352 574.301 85.668V86H569.457ZM564.242 82.582C565.18 82.582 566.059 82.3542 566.879 81.8984C567.712 81.4427 568.337 80.8307 568.754 80.0625V76.0781H566.195C564.438 76.0781 563.116 76.3841 562.23 76.9961C561.345 77.6081 560.902 78.474 560.902 79.5938C560.902 80.5052 561.202 81.2344 561.801 81.7812C562.413 82.3151 563.227 82.582 564.242 82.582Z" fill="white"/>
<path d="M577.582 75.2773C577.582 72.0221 578.337 69.4115 579.848 67.4453C581.358 65.4661 583.383 64.4766 585.922 64.4766C588.161 64.4766 589.971 65.2578 591.352 66.8203V56H596.098V86H591.801L591.566 83.8125C590.147 85.5312 588.253 86.3906 585.883 86.3906C583.409 86.3906 581.404 85.3945 579.867 83.4023C578.344 81.4102 577.582 78.7018 577.582 75.2773ZM582.328 75.6875C582.328 77.8359 582.738 79.5156 583.559 80.7266C584.392 81.9245 585.57 82.5234 587.094 82.5234C589.034 82.5234 590.453 81.6576 591.352 79.9258V70.9023C590.479 69.2096 589.073 68.3633 587.133 68.3633C585.596 68.3633 584.411 68.9753 583.578 70.1992C582.745 71.4102 582.328 73.2396 582.328 75.6875Z" fill="white"/>
<path d="M612.113 69.2031C611.488 69.099 610.844 69.0469 610.18 69.0469C608.005 69.0469 606.54 69.8802 605.785 71.5469V86H601.039V64.8672H605.57L605.688 67.2305C606.833 65.3945 608.422 64.4766 610.453 64.4766C611.13 64.4766 611.69 64.5677 612.133 64.75L612.113 69.2031Z" fill="white"/>
<path d="M620.16 86H615.414V64.8672H620.16V86ZM615.121 59.3789C615.121 58.6497 615.349 58.0443 615.805 57.5625C616.273 57.0807 616.938 56.8398 617.797 56.8398C618.656 56.8398 619.32 57.0807 619.789 57.5625C620.258 58.0443 620.492 58.6497 620.492 59.3789C620.492 60.0951 620.258 60.694 619.789 61.1758C619.32 61.6445 618.656 61.8789 617.797 61.8789C616.938 61.8789 616.273 61.6445 615.805 61.1758C615.349 60.694 615.121 60.0951 615.121 59.3789Z" fill="white"/>
<path d="M630.395 86H625.648V56H630.395V86Z" fill="white"/>
<path d="M648.207 86C647.999 85.5964 647.816 84.9388 647.66 84.0273C646.15 85.6029 644.301 86.3906 642.113 86.3906C639.991 86.3906 638.259 85.7852 636.918 84.5742C635.577 83.3633 634.906 81.8659 634.906 80.082C634.906 77.8294 635.74 76.1042 637.406 74.9062C639.086 73.6953 641.482 73.0898 644.594 73.0898H647.504V71.7031C647.504 70.6094 647.198 69.737 646.586 69.0859C645.974 68.4219 645.043 68.0898 643.793 68.0898C642.712 68.0898 641.827 68.3633 641.137 68.9102C640.447 69.444 640.102 70.1276 640.102 70.9609H635.355C635.355 69.8021 635.74 68.7214 636.508 67.7188C637.276 66.7031 638.318 65.9089 639.633 65.3359C640.961 64.763 642.439 64.4766 644.066 64.4766C646.54 64.4766 648.513 65.1016 649.984 66.3516C651.456 67.5885 652.211 69.3333 652.25 71.5859V81.1172C652.25 83.0182 652.517 84.5352 653.051 85.668V86H648.207ZM642.992 82.582C643.93 82.582 644.809 82.3542 645.629 81.8984C646.462 81.4427 647.087 80.8307 647.504 80.0625V76.0781H644.945C643.188 76.0781 641.866 76.3841 640.98 76.9961C640.095 77.6081 639.652 78.474 639.652 79.5938C639.652 80.5052 639.952 81.2344 640.551 81.7812C641.163 82.3151 641.977 82.582 642.992 82.582ZM645.629 56H651.039L645.629 61.918H641.82L645.629 56Z" fill="white"/>
<path d="M663.168 59.7305V64.8672H666.898V68.3828H663.168V80.1797C663.168 80.987 663.324 81.5729 663.637 81.9375C663.962 82.2891 664.535 82.4648 665.355 82.4648C665.902 82.4648 666.456 82.3997 667.016 82.2695V85.9414C665.935 86.2409 664.893 86.3906 663.891 86.3906C660.245 86.3906 658.422 84.3789 658.422 80.3555V68.3828H654.945V64.8672H658.422V59.7305H663.168Z" fill="white"/>
<path d="M679.848 86.3906C676.84 86.3906 674.398 85.4466 672.523 83.5586C670.661 81.6576 669.73 79.1315 669.73 75.9805V75.3945C669.73 73.2852 670.134 71.4036 670.941 69.75C671.762 68.0833 672.908 66.7878 674.379 65.8633C675.85 64.9388 677.491 64.4766 679.301 64.4766C682.178 64.4766 684.398 65.3945 685.961 67.2305C687.536 69.0664 688.324 71.6641 688.324 75.0234V76.9375H674.516C674.659 78.6823 675.238 80.0625 676.254 81.0781C677.283 82.0938 678.572 82.6016 680.121 82.6016C682.296 82.6016 684.066 81.7227 685.434 79.9648L687.992 82.4062C687.146 83.6693 686.013 84.6523 684.594 85.3555C683.188 86.0456 681.605 86.3906 679.848 86.3906ZM679.281 68.2852C677.979 68.2852 676.924 68.7409 676.117 69.6523C675.323 70.5638 674.815 71.8333 674.594 73.4609H683.637V73.1094C683.533 71.5208 683.109 70.3229 682.367 69.5156C681.625 68.6953 680.596 68.2852 679.281 68.2852Z" fill="white"/>
<path d="M703.09 69.2031C702.465 69.099 701.82 69.0469 701.156 69.0469C698.982 69.0469 697.517 69.8802 696.762 71.5469V86H692.016V64.8672H696.547L696.664 67.2305C697.81 65.3945 699.398 64.4766 701.43 64.4766C702.107 64.4766 702.667 64.5677 703.109 64.75L703.09 69.2031Z" fill="white"/>
<path d="M704.496 75.2383C704.496 73.168 704.906 71.306 705.727 69.6523C706.547 67.9857 707.699 66.7096 709.184 65.8242C710.668 64.9258 712.374 64.4766 714.301 64.4766C717.152 64.4766 719.464 65.3945 721.234 67.2305C723.018 69.0664 723.982 71.5013 724.125 74.5352L724.145 75.6484C724.145 77.7318 723.741 79.5938 722.934 81.2344C722.139 82.875 720.993 84.1445 719.496 85.043C718.012 85.9414 716.293 86.3906 714.34 86.3906C711.358 86.3906 708.969 85.401 707.172 83.4219C705.388 81.4297 704.496 78.7799 704.496 75.4727V75.2383ZM709.242 75.6484C709.242 77.8229 709.691 79.5286 710.59 80.7656C711.488 81.9896 712.738 82.6016 714.34 82.6016C715.941 82.6016 717.185 81.9766 718.07 80.7266C718.969 79.4766 719.418 77.6471 719.418 75.2383C719.418 73.1029 718.956 71.4102 718.031 70.1602C717.12 68.9102 715.876 68.2852 714.301 68.2852C712.751 68.2852 711.521 68.9036 710.609 70.1406C709.698 71.3646 709.242 73.2005 709.242 75.6484Z" fill="white"/>
<path d="M740.004 80.2578C740.004 79.4115 739.652 78.7669 738.949 78.3242C738.259 77.8815 737.107 77.4909 735.492 77.1523C733.878 76.8138 732.53 76.3841 731.449 75.8633C729.079 74.7174 727.895 73.0573 727.895 70.8828C727.895 69.0599 728.663 67.5365 730.199 66.3125C731.736 65.0885 733.689 64.4766 736.059 64.4766C738.585 64.4766 740.622 65.1016 742.172 66.3516C743.734 67.6016 744.516 69.2227 744.516 71.2148H739.77C739.77 70.3034 739.431 69.5482 738.754 68.9492C738.077 68.3372 737.178 68.0312 736.059 68.0312C735.017 68.0312 734.164 68.2721 733.5 68.7539C732.849 69.2357 732.523 69.8802 732.523 70.6875C732.523 71.4167 732.829 71.9831 733.441 72.3867C734.053 72.7904 735.29 73.2005 737.152 73.6172C739.014 74.0208 740.473 74.5091 741.527 75.082C742.595 75.6419 743.383 76.319 743.891 77.1133C744.411 77.9076 744.672 78.8711 744.672 80.0039C744.672 81.9049 743.884 83.4479 742.309 84.6328C740.733 85.8047 738.669 86.3906 736.117 86.3906C734.385 86.3906 732.842 86.0781 731.488 85.4531C730.134 84.8281 729.079 83.9688 728.324 82.875C727.569 81.7812 727.191 80.6029 727.191 79.3398H731.801C731.866 80.4596 732.289 81.3255 733.07 81.9375C733.852 82.5365 734.887 82.8359 736.176 82.8359C737.426 82.8359 738.376 82.6016 739.027 82.1328C739.678 81.651 740.004 81.026 740.004 80.2578Z" fill="white"/>
<path d="M751.781 81C752.667 81 753.35 81.2539 753.832 81.7617C754.314 82.2565 754.555 82.8815 754.555 83.6367C754.555 84.3789 754.314 84.9974 753.832 85.4922C753.35 85.974 752.667 86.2148 751.781 86.2148C750.935 86.2148 750.264 85.974 749.77 85.4922C749.275 85.0104 749.027 84.3919 749.027 83.6367C749.027 82.8815 749.268 82.2565 749.75 81.7617C750.232 81.2539 750.909 81 751.781 81Z" fill="white"/>
</g>
<g id="Group 131">
<g id="Group 130">
<path id="Polygon 10 (Stroke)" fill-rule="evenodd" clip-rule="evenodd" d="M222.46 121.106L97.3747 391.306H896.868L222.46 121.106ZM220.829 117L92.3594 394.511H913.485L220.829 117Z" fill="white"/>
<path id="Line 58 (Stroke)" fill-rule="evenodd" clip-rule="evenodd" d="M802.241 348.553L782.21 394.222L779.275 392.935L799.306 347.265L802.241 348.553Z" fill="white"/>
<path id="Line 59 (Stroke)" fill-rule="evenodd" clip-rule="evenodd" d="M745.354 322.914L716.51 394.222L713.539 393.021L742.383 321.712L745.354 322.914Z" fill="white"/>
<path id="Line 60 (Stroke)" fill-rule="evenodd" clip-rule="evenodd" d="M689.269 303.684L651.611 394.222L648.652 392.992L686.31 302.454L689.269 303.684Z" fill="white"/>
<path id="Line 61 (Stroke)" fill-rule="evenodd" clip-rule="evenodd" d="M632.382 285.256L585.11 394.222L582.17 392.947L629.442 283.981L632.382 285.256Z" fill="white"/>
<path id="Line 64 (Stroke)" fill-rule="evenodd" clip-rule="evenodd" d="M456.113 213.146L371.184 394.222L368.282 392.861L453.212 211.786L456.113 213.146Z" fill="white"/>
<path id="Line 62 (Stroke)" fill-rule="evenodd" clip-rule="evenodd" d="M300.677 145.043L186.904 394.222L183.988 392.891L297.762 143.712L300.677 145.043Z" fill="white"/>
<path id="Line 63 (Stroke)" fill-rule="evenodd" clip-rule="evenodd" d="M381.6 177.092L279.845 394.222L276.943 392.862L378.698 175.732L381.6 177.092Z" fill="white"/>
<path id="Line 65 (Stroke)" fill-rule="evenodd" clip-rule="evenodd" d="M716.51 381.403L802.241 348.553L803.101 350.797L717.37 383.647L716.51 381.403Z" fill="white"/>
<path id="Line 66 (Stroke)" fill-rule="evenodd" clip-rule="evenodd" d="M735.739 339.739L782.21 394.222L780.381 395.782L733.911 341.299L735.739 339.739Z" fill="white"/>
<path id="Line 67 (Stroke)" fill-rule="evenodd" clip-rule="evenodd" d="M676.449 322.914L716.51 394.222L713.716 395.792L673.655 324.483L676.449 322.914Z" fill="white"/>
<path id="Line 70 (Stroke)" fill-rule="evenodd" clip-rule="evenodd" d="M621.165 303.684L652.413 393.421L649.386 394.475L618.139 304.738L621.165 303.684Z" fill="white"/>
<path id="Line 68 (Stroke)" fill-rule="evenodd" clip-rule="evenodd" d="M658.822 371.788L735.739 322.914L737.458 325.619L660.541 374.493L658.822 371.788Z" fill="white"/>
<path id="Line 69 (Stroke)" fill-rule="evenodd" clip-rule="evenodd" d="M594.724 366.981L679.654 303.684L681.569 306.254L596.639 369.551L594.724 366.981Z" fill="white"/>
<path id="Line 71 (Stroke)" fill-rule="evenodd" clip-rule="evenodd" d="M565.615 336.104C565.469 336.752 564.825 337.158 564.178 337.011L562.26 336.577C561.612 336.431 561.206 335.787 561.353 335.14C561.499 334.492 562.143 334.086 562.79 334.233L564.708 334.667C565.356 334.813 565.762 335.457 565.615 336.104ZM559.861 334.802C559.714 335.449 559.07 335.855 558.423 335.709L554.587 334.841C553.939 334.694 553.533 334.051 553.68 333.403C553.826 332.756 554.47 332.35 555.117 332.496L558.954 333.365C559.601 333.511 560.007 334.155 559.861 334.802ZM552.187 333.066C552.041 333.713 551.397 334.119 550.75 333.973L546.914 333.105C546.266 332.958 545.86 332.315 546.007 331.667C546.153 331.02 546.797 330.614 547.444 330.76L551.281 331.628C551.928 331.775 552.334 332.418 552.187 333.066ZM544.514 331.33C544.368 331.977 543.724 332.383 543.077 332.236L539.24 331.368C538.593 331.222 538.187 330.578 538.333 329.931C538.48 329.284 539.124 328.877 539.771 329.024L543.607 329.892C544.255 330.039 544.661 330.682 544.514 331.33ZM536.841 329.593C536.695 330.241 536.051 330.647 535.404 330.5L531.567 329.632C530.92 329.486 530.514 328.842 530.66 328.195C530.807 327.547 531.45 327.141 532.098 327.288L535.934 328.156C536.582 328.302 536.988 328.946 536.841 329.593ZM529.168 327.857C529.022 328.504 528.378 328.911 527.731 328.764L523.894 327.896C523.247 327.749 522.841 327.106 522.987 326.458C523.134 325.811 523.777 325.405 524.425 325.552L528.261 326.42C528.909 326.566 529.315 327.21 529.168 327.857ZM521.495 326.121C521.349 326.768 520.705 327.174 520.058 327.028L516.221 326.16C515.574 326.013 515.168 325.37 515.314 324.722C515.461 324.075 516.104 323.669 516.752 323.815L520.588 324.683C521.236 324.83 521.642 325.473 521.495 326.121ZM513.822 324.385C513.676 325.032 513.032 325.438 512.385 325.292L508.548 324.423C507.901 324.277 507.495 323.633 507.641 322.986C507.788 322.339 508.431 321.933 509.079 322.079L512.915 322.947C513.563 323.094 513.969 323.737 513.822 324.385ZM506.149 322.648C506.003 323.296 505.359 323.702 504.712 323.555L500.875 322.687C500.228 322.541 499.822 321.897 499.968 321.25C500.115 320.602 500.758 320.196 501.406 320.343L505.242 321.211C505.89 321.357 506.296 322.001 506.149 322.648ZM498.476 320.912C498.33 321.559 497.686 321.966 497.039 321.819L493.202 320.951C492.555 320.804 492.149 320.161 492.295 319.514C492.442 318.866 493.085 318.46 493.733 318.607L497.569 319.475C498.216 319.621 498.623 320.265 498.476 320.912ZM490.803 319.176C490.657 319.823 490.013 320.229 489.366 320.083L485.529 319.215C484.882 319.068 484.476 318.425 484.622 317.777C484.769 317.13 485.412 316.724 486.06 316.87L489.896 317.738C490.543 317.885 490.95 318.528 490.803 319.176ZM483.13 317.44C482.983 318.087 482.34 318.493 481.693 318.347L477.856 317.478C477.209 317.332 476.803 316.688 476.949 316.041C477.096 315.394 477.739 314.988 478.386 315.134L482.223 316.002C482.87 316.149 483.276 316.792 483.13 317.44ZM475.457 315.703C475.31 316.351 474.667 316.757 474.019 316.61L470.183 315.742C469.536 315.596 469.129 314.952 469.276 314.305C469.422 313.657 470.066 313.251 470.713 313.398L474.55 314.266C475.197 314.412 475.603 315.056 475.457 315.703ZM467.784 313.967C467.637 314.615 466.994 315.021 466.346 314.874L462.51 314.006C461.862 313.859 461.456 313.216 461.603 312.569C461.749 311.921 462.393 311.515 463.04 311.662L466.877 312.53C467.524 312.676 467.93 313.32 467.784 313.967ZM460.111 312.231C459.964 312.878 459.321 313.284 458.673 313.138L456.755 312.704C456.108 312.557 455.702 311.914 455.848 311.266C455.995 310.619 456.638 310.213 457.286 310.359L459.204 310.793C459.851 310.94 460.257 311.584 460.111 312.231Z" fill="white"/>
<path id="Line 72 (Stroke)" fill-rule="evenodd" clip-rule="evenodd" d="M341.539 255.611L372.786 393.421L369.661 394.13L338.413 256.32L341.539 255.611Z" fill="white"/>
<path id="Line 75 (Stroke)" fill-rule="evenodd" clip-rule="evenodd" d="M259.814 231.575L279.845 391.017L276.665 391.417L256.635 231.974L259.814 231.575Z" fill="white"/>
<path id="Line 76 (Stroke)" fill-rule="evenodd" clip-rule="evenodd" d="M177.288 213.146L187.704 396.626L184.504 396.808L174.089 213.328L177.288 213.146Z" fill="white"/>
<path id="Line 73 (Stroke)" fill-rule="evenodd" clip-rule="evenodd" d="M313.496 322.112L456.113 213.146L458.059 215.693L315.442 324.659L313.496 322.112Z" fill="white"/>
<path id="Line 74 (Stroke)" fill-rule="evenodd" clip-rule="evenodd" d="M224.56 297.275L372.786 177.092L374.805 179.581L226.579 299.764L224.56 297.275Z" fill="white"/>
<path id="Line 77 (Stroke)" fill-rule="evenodd" clip-rule="evenodd" d="M140.433 285.256L298.273 145.043L300.402 147.439L142.561 287.652L140.433 285.256Z" fill="white"/>
</g>
<g id="Group 132">
<path id="1" d="M793.412 436.687H789.625V418.394L784.038 420.303V417.095L792.927 413.824H793.412V436.687Z" fill="white"/>
<path id="2" d="M723.921 436.687H708.601V434.074L716.191 425.795C717.286 424.575 718.064 423.558 718.523 422.744C718.992 421.92 719.227 421.096 719.227 420.271C719.227 419.186 718.919 418.31 718.304 417.642C717.698 416.975 716.879 416.641 715.847 416.641C714.616 416.641 713.661 417.016 712.983 417.768C712.305 418.519 711.966 419.546 711.966 420.85H708.163C708.163 419.463 708.476 418.216 709.102 417.11C709.738 415.994 710.641 415.128 711.809 414.513C712.988 413.897 714.344 413.589 715.878 413.589C718.09 413.589 719.832 414.147 721.105 415.264C722.388 416.37 723.029 417.903 723.029 419.865C723.029 421.002 722.706 422.196 722.059 423.448C721.423 424.69 720.374 426.103 718.914 427.689L713.343 433.651H723.921V436.687Z" fill="white"/>
<path id="3" d="M646.497 423.558H648.813C649.982 423.547 650.905 423.245 651.583 422.65C652.272 422.055 652.616 421.195 652.616 420.068C652.616 418.983 652.329 418.143 651.755 417.548C651.192 416.943 650.326 416.641 649.157 416.641C648.135 416.641 647.295 416.938 646.638 417.533C645.981 418.117 645.652 418.884 645.652 419.833H641.849C641.849 418.665 642.157 417.601 642.773 416.641C643.399 415.681 644.265 414.935 645.37 414.403C646.487 413.861 647.733 413.589 649.111 413.589C651.385 413.589 653.169 414.163 654.462 415.311C655.766 416.448 656.419 418.034 656.419 420.068C656.419 421.09 656.09 422.055 655.433 422.963C654.786 423.86 653.946 424.538 652.913 424.997C654.165 425.425 655.114 426.098 655.761 427.016C656.419 427.934 656.747 429.03 656.747 430.302C656.747 432.347 656.043 433.975 654.635 435.185C653.237 436.395 651.395 437 649.111 437C646.92 437 645.125 436.416 643.727 435.247C642.329 434.079 641.63 432.524 641.63 430.584H645.433C645.433 431.585 645.767 432.399 646.435 433.025C647.113 433.651 648.02 433.964 649.157 433.964C650.336 433.964 651.265 433.651 651.943 433.025C652.621 432.399 652.96 431.492 652.96 430.302C652.96 429.103 652.605 428.179 651.896 427.532C651.187 426.886 650.133 426.562 648.735 426.562H646.497V423.558Z" fill="white"/>
<path id="4" d="M588.462 428.565H591.295V431.617H588.462V436.687H584.66V431.617H574.817L574.707 429.301L584.535 413.902H588.462V428.565ZM578.697 428.565H584.66V419.051L584.378 419.552L578.697 428.565Z" fill="white"/>
<g id="17">
<path d="M369.566 436.687H365.779V418.394L360.192 420.303V417.095L369.08 413.824H369.566V436.687Z" fill="white"/>
<path d="M392.648 416.015L383.54 436.687H379.55L388.641 416.954H376.858V413.902H392.648V416.015Z" fill="white"/>
</g>
<g id="18">
<path d="M271.817 436.687H268.03V418.394L262.443 420.303V417.095L271.332 413.824H271.817V436.687Z" fill="white"/>
<path d="M294.085 419.911C294.085 421.028 293.798 422.024 293.225 422.9C292.651 423.766 291.868 424.45 290.877 424.95C292.067 425.503 292.979 426.26 293.616 427.219C294.263 428.179 294.586 429.264 294.586 430.474C294.586 432.477 293.908 434.068 292.552 435.247C291.195 436.416 289.391 437 287.137 437C284.873 437 283.058 436.411 281.691 435.232C280.335 434.053 279.657 432.467 279.657 430.474C279.657 429.254 279.98 428.158 280.627 427.188C281.274 426.218 282.182 425.472 283.35 424.95C282.37 424.45 281.592 423.766 281.019 422.9C280.455 422.024 280.173 421.028 280.173 419.911C280.173 417.971 280.799 416.432 282.051 415.295C283.303 414.158 284.993 413.589 287.122 413.589C289.26 413.589 290.956 414.158 292.207 415.295C293.459 416.432 294.085 417.971 294.085 419.911ZM290.783 430.287C290.783 429.16 290.444 428.252 289.766 427.564C289.099 426.865 288.212 426.515 287.106 426.515C286 426.515 285.113 426.86 284.446 427.548C283.788 428.237 283.46 429.149 283.46 430.287C283.46 431.403 283.783 432.295 284.43 432.963C285.087 433.63 285.99 433.964 287.137 433.964C288.285 433.964 289.177 433.641 289.813 432.994C290.46 432.347 290.783 431.445 290.783 430.287ZM290.298 420.052C290.298 419.061 290.011 418.247 289.438 417.611C288.864 416.964 288.092 416.641 287.122 416.641C286.151 416.641 285.385 416.949 284.821 417.564C284.258 418.169 283.976 418.999 283.976 420.052C283.976 421.096 284.258 421.925 284.821 422.54C285.395 423.156 286.167 423.464 287.137 423.464C288.107 423.464 288.874 423.156 289.438 422.54C290.011 421.925 290.298 421.096 290.298 420.052Z" fill="white"/>
</g>
<g id="19">
<path d="M174.068 436.687H170.281V418.394L164.694 420.303V417.095L173.583 413.824H174.068V436.687Z" fill="white"/>
<path d="M192.768 427.157C191.496 428.503 190.009 429.176 188.308 429.176C186.305 429.176 184.709 428.477 183.52 427.079C182.331 425.67 181.736 423.824 181.736 421.539C181.736 420.037 182.038 418.675 182.644 417.455C183.249 416.234 184.109 415.285 185.226 414.607C186.342 413.928 187.636 413.589 189.107 413.589C191.402 413.589 193.222 414.445 194.568 416.156C195.914 417.867 196.587 420.157 196.587 423.026V424.09C196.587 428.2 195.658 431.335 193.801 433.495C191.944 435.654 189.174 436.75 185.492 436.781H185.038V433.635H185.586C187.829 433.604 189.55 433.067 190.75 432.024C191.949 430.97 192.622 429.348 192.768 427.157ZM189.107 426.202C189.868 426.202 190.583 425.983 191.25 425.545C191.918 425.107 192.435 424.502 192.8 423.73V422.243C192.8 420.563 192.455 419.212 191.767 418.19C191.078 417.168 190.186 416.657 189.091 416.657C187.995 416.657 187.119 417.11 186.462 418.018C185.815 418.915 185.492 420.052 185.492 421.429C185.492 422.859 185.82 424.011 186.478 424.888C187.135 425.764 188.011 426.202 189.107 426.202Z" fill="white"/>
</g>
<g id="20">
<path d="M91.7584 436.687H76.4382V434.074L84.0279 425.795C85.1233 424.575 85.9005 423.558 86.3595 422.744C86.829 421.92 87.0637 421.096 87.0637 420.271C87.0637 419.186 86.756 418.31 86.1404 417.642C85.5354 416.975 84.7164 416.641 83.6836 416.641C82.4525 416.641 81.498 417.016 80.8198 417.768C80.1417 418.519 79.8027 419.546 79.8027 420.85H76C76 419.463 76.313 418.216 76.9389 417.11C77.5753 415.994 78.4777 415.128 79.6462 414.513C80.8251 413.897 82.1813 413.589 83.7149 413.589C85.9266 413.589 87.6688 414.147 88.9416 415.264C90.2248 416.37 90.8664 417.903 90.8664 419.865C90.8664 421.002 90.543 422.196 89.8962 423.448C89.2598 424.69 88.2113 426.103 86.7508 427.689L81.1798 433.651H91.7584V436.687Z" fill="white"/>
<path d="M109.504 427.094C109.504 430.37 108.889 432.843 107.658 434.512C106.437 436.171 104.575 437 102.071 437C99.6089 437 97.7519 436.191 96.5 434.574C95.2585 432.947 94.6221 430.542 94.5908 427.36V423.417C94.5908 420.141 95.2011 417.684 96.4217 416.046C97.6528 414.408 99.5254 413.589 102.04 413.589C104.533 413.589 106.39 414.387 107.611 415.984C108.842 417.58 109.473 419.969 109.504 423.151V427.094ZM105.701 422.838C105.701 420.699 105.409 419.134 104.825 418.143C104.241 417.142 103.312 416.641 102.04 416.641C100.798 416.641 99.8853 417.116 99.3011 418.065C98.7169 419.004 98.4091 420.475 98.3778 422.478V427.642C98.3778 429.77 98.6752 431.356 99.2698 432.399C99.8645 433.442 100.798 433.964 102.071 433.964C103.292 433.964 104.194 433.484 104.778 432.524C105.362 431.554 105.67 430.041 105.701 427.986V422.838Z" fill="white"/>
</g>
</g>
</g>
</g>
<g id="claves">
<g id="Group 21">
<path id="Rectangle 4" d="M49 566H265.745L299 606L265.745 646H49V566Z" fill="#CD08D1" fill-opacity="0.1"/>
<path id="Rectangle 4 (Stroke)" fill-rule="evenodd" clip-rule="evenodd" d="M264.338 569H52V643H264.338L295.099 606L264.338 569ZM265.745 566H49V646H265.745L299 606L265.745 566Z" fill="#CD08D1"/>
<path id="Ellipse 1" d="M90 606C90 628.091 72.0914 646 50 646C27.9086 646 10 628.091 10 606C10 583.909 27.9086 566 50 566C72.0914 566 90 583.909 90 606Z" fill="#CD08D1"/>
<path id="A" d="M58.0938 616.406H40.4688L36.7812 627H28.5625L45.75 581.5H52.8438L70.0625 627H61.8125L58.0938 616.406ZM42.6875 610.031H55.875L49.2812 591.156L42.6875 610.031Z" fill="white"/>
</g>
<g id="Group 17">
<path id="Rectangle 5" d="M392 566H608.745L642 606L608.745 646H392V566Z" fill="#CD08D1" fill-opacity="0.1"/>
<path id="Rectangle 5 (Stroke)" fill-rule="evenodd" clip-rule="evenodd" d="M607.338 569H395V643H607.338L638.099 606L607.338 569ZM608.745 566H392V646H608.745L642 606L608.745 566Z" fill="#CD08D1"/>
<path id="Ellipse 2" d="M433 606C433 628.091 415.091 646 393 646C370.909 646 353 628.091 353 606C353 583.909 370.909 566 393 566C415.091 566 433 583.909 433 606Z" fill="#CD08D1"/>
<path id="B" d="M376.625 622V576.5H392.219C397.365 576.5 401.281 577.531 403.969 579.594C406.656 581.656 408 584.729 408 588.812C408 590.896 407.438 592.771 406.312 594.438C405.188 596.104 403.542 597.396 401.375 598.312C403.833 598.979 405.729 600.24 407.062 602.094C408.417 603.927 409.094 606.135 409.094 608.719C409.094 612.99 407.719 616.271 404.969 618.562C402.24 620.854 398.323 622 393.219 622H376.625ZM384.531 601.469V615.688H393.312C395.792 615.688 397.729 615.073 399.125 613.844C400.521 612.615 401.219 610.906 401.219 608.719C401.219 603.99 398.802 601.573 393.969 601.469H384.531ZM384.531 595.656H392.281C394.74 595.656 396.656 595.104 398.031 594C399.427 592.875 400.125 591.292 400.125 589.25C400.125 587 399.479 585.375 398.188 584.375C396.917 583.375 394.927 582.875 392.219 582.875H384.531V595.656Z" fill="white"/>
</g>
<g id="Group 18">
<path id="Rectangle 6" d="M750 622H966.745L1000 662L966.745 702H750V622Z" fill="#CD08D1" fill-opacity="0.1"/>
<path id="Rectangle 6 (Stroke)" fill-rule="evenodd" clip-rule="evenodd" d="M965.338 625H753V699H965.338L996.099 662L965.338 625ZM966.745 622H750V702H966.745L1000 662L966.745 622Z" fill="#CD08D1"/>
<path id="Ellipse 3" d="M791 662C791 684.091 773.091 702 751 702C728.909 702 711 684.091 711 662C711 639.909 728.909 622 751 622C773.091 622 791 639.909 791 662Z" fill="#CD08D1"/>
<path id="C" d="M768.344 669.188C767.885 674.042 766.094 677.833 762.969 680.562C759.844 683.271 755.688 684.625 750.5 684.625C746.875 684.625 743.677 683.771 740.906 682.062C738.156 680.333 736.031 677.885 734.531 674.719C733.031 671.552 732.25 667.875 732.188 663.688V659.438C732.188 655.146 732.948 651.365 734.469 648.094C735.99 644.823 738.167 642.302 741 640.531C743.854 638.76 747.146 637.875 750.875 637.875C755.896 637.875 759.938 639.24 763 641.969C766.062 644.698 767.844 648.552 768.344 653.531H760.469C760.094 650.26 759.135 647.906 757.594 646.469C756.073 645.01 753.833 644.281 750.875 644.281C747.438 644.281 744.792 645.542 742.938 648.062C741.104 650.562 740.167 654.24 740.125 659.094V663.125C740.125 668.042 741 671.792 742.75 674.375C744.521 676.958 747.104 678.25 750.5 678.25C753.604 678.25 755.938 677.552 757.5 676.156C759.062 674.76 760.052 672.438 760.469 669.188H768.344Z" fill="white"/>
</g>
<g id="Group 19">
<path id="Rectangle 7" d="M50 671H266.745L300 711L266.745 751H50V671Z" fill="#CD08D1" fill-opacity="0.1"/>
<path id="Rectangle 7 (Stroke)" fill-rule="evenodd" clip-rule="evenodd" d="M265.338 674H53V748H265.338L296.099 711L265.338 674ZM266.745 671H50V751H266.745L300 711L266.745 671Z" fill="#CD08D1"/>
<path id="Ellipse 4" d="M91 711C91 733.091 73.0914 751 51 751C28.9086 751 11 733.091 11 711C11 688.909 28.9086 671 51 671C73.0914 671 91 688.909 91 711Z" fill="#CD08D1"/>
<path id="D" d="M33.625 733V687.5H47.0625C51.0833 687.5 54.6458 688.396 57.75 690.188C60.875 691.979 63.2917 694.521 65 697.812C66.7083 701.104 67.5625 704.875 67.5625 709.125V711.406C67.5625 715.719 66.6979 719.51 64.9688 722.781C63.2604 726.052 60.8125 728.573 57.625 730.344C54.4583 732.115 50.8229 733 46.7188 733H33.625ZM41.5312 693.875V726.688H46.6875C50.8333 726.688 54.0104 725.396 56.2188 722.812C58.4479 720.208 59.5833 716.479 59.625 711.625V709.094C59.625 704.156 58.5521 700.385 56.4062 697.781C54.2604 695.177 51.1458 693.875 47.0625 693.875H41.5312Z" fill="white"/>
</g>
<g id="Group 20">
<path id="Rectangle 8" d="M392 671H608.745L642 711L608.745 751H392V671Z" fill="#CD08D1" fill-opacity="0.1"/>
<path id="Rectangle 8 (Stroke)" fill-rule="evenodd" clip-rule="evenodd" d="M607.338 674H395V748H607.338L638.099 711L607.338 674ZM608.745 671H392V751H608.745L642 711L608.745 671Z" fill="#CD08D1"/>
<path id="Ellipse 5" d="M433 711C433 733.091 415.091 751 393 751C370.909 751 353 733.091 353 711C353 688.909 370.909 671 393 671C415.091 671 433 688.909 433 711Z" fill="#CD08D1"/>
<path id="E" d="M402.219 712.688H383.531V726.688H405.375V733H375.625V687.5H405.156V693.875H383.531V706.438H402.219V712.688Z" fill="white"/>
</g>
<g id="320 321 322 323 324">
<path d="M120.617 602.613H123.508C124.966 602.6 126.118 602.223 126.965 601.48C127.824 600.738 128.254 599.664 128.254 598.258C128.254 596.904 127.896 595.855 127.18 595.113C126.477 594.358 125.396 593.98 123.938 593.98C122.661 593.98 121.613 594.352 120.793 595.094C119.973 595.823 119.562 596.78 119.562 597.965H114.816C114.816 596.507 115.201 595.178 115.969 593.98C116.75 592.783 117.831 591.852 119.211 591.188C120.604 590.51 122.16 590.172 123.879 590.172C126.717 590.172 128.944 590.888 130.559 592.32C132.186 593.74 133 595.719 133 598.258C133 599.534 132.59 600.738 131.77 601.871C130.962 602.991 129.914 603.837 128.625 604.41C130.188 604.944 131.372 605.784 132.18 606.93C133 608.076 133.41 609.443 133.41 611.031C133.41 613.583 132.531 615.615 130.773 617.125C129.029 618.635 126.73 619.391 123.879 619.391C121.145 619.391 118.905 618.661 117.16 617.203C115.415 615.745 114.543 613.805 114.543 611.383H119.289C119.289 612.633 119.706 613.648 120.539 614.43C121.385 615.211 122.518 615.602 123.938 615.602C125.409 615.602 126.568 615.211 127.414 614.43C128.26 613.648 128.684 612.516 128.684 611.031C128.684 609.534 128.241 608.382 127.355 607.574C126.47 606.767 125.155 606.363 123.41 606.363H120.617V602.613Z" fill="#CD08D1"/>
<path d="M156.984 619H137.863V615.738L147.336 605.406C148.703 603.883 149.673 602.613 150.246 601.598C150.832 600.569 151.125 599.54 151.125 598.512C151.125 597.158 150.741 596.064 149.973 595.23C149.217 594.397 148.195 593.98 146.906 593.98C145.37 593.98 144.178 594.449 143.332 595.387C142.486 596.324 142.062 597.607 142.062 599.234H137.316C137.316 597.503 137.707 595.947 138.488 594.566C139.283 593.173 140.409 592.092 141.867 591.324C143.339 590.556 145.031 590.172 146.945 590.172C149.706 590.172 151.88 590.868 153.469 592.262C155.07 593.642 155.871 595.556 155.871 598.004C155.871 599.423 155.467 600.914 154.66 602.477C153.866 604.026 152.557 605.79 150.734 607.77L143.781 615.211H156.984V619Z" fill="#CD08D1"/>
<path d="M179.133 607.027C179.133 611.116 178.365 614.202 176.828 616.285C175.305 618.355 172.98 619.391 169.855 619.391C166.783 619.391 164.465 618.382 162.902 616.363C161.353 614.332 160.559 611.331 160.52 607.359V602.438C160.52 598.349 161.281 595.283 162.805 593.238C164.341 591.194 166.678 590.172 169.816 590.172C172.928 590.172 175.246 591.168 176.77 593.16C178.306 595.152 179.094 598.134 179.133 602.105V607.027ZM174.387 601.715C174.387 599.046 174.022 597.092 173.293 595.855C172.564 594.605 171.405 593.98 169.816 593.98C168.267 593.98 167.128 594.573 166.398 595.758C165.669 596.93 165.285 598.766 165.246 601.266V607.711C165.246 610.367 165.617 612.346 166.359 613.648C167.102 614.951 168.267 615.602 169.855 615.602C171.379 615.602 172.505 615.003 173.234 613.805C173.964 612.594 174.348 610.706 174.387 608.141V601.715Z" fill="#CD08D1"/>
<path d="M477.688 602.613H480.578C482.036 602.6 483.189 602.223 484.035 601.48C484.895 600.738 485.324 599.664 485.324 598.258C485.324 596.904 484.966 595.855 484.25 595.113C483.547 594.358 482.466 593.98 481.008 593.98C479.732 593.98 478.684 594.352 477.863 595.094C477.043 595.823 476.633 596.78 476.633 597.965H471.887C471.887 596.507 472.271 595.178 473.039 593.98C473.82 592.783 474.901 591.852 476.281 591.188C477.674 590.51 479.23 590.172 480.949 590.172C483.788 590.172 486.014 590.888 487.629 592.32C489.257 593.74 490.07 595.719 490.07 598.258C490.07 599.534 489.66 600.738 488.84 601.871C488.033 602.991 486.984 603.837 485.695 604.41C487.258 604.944 488.443 605.784 489.25 606.93C490.07 608.076 490.48 609.443 490.48 611.031C490.48 613.583 489.602 615.615 487.844 617.125C486.099 618.635 483.801 619.391 480.949 619.391C478.215 619.391 475.975 618.661 474.23 617.203C472.486 615.745 471.613 613.805 471.613 611.383H476.359C476.359 612.633 476.776 613.648 477.609 614.43C478.456 615.211 479.589 615.602 481.008 615.602C482.479 615.602 483.638 615.211 484.484 614.43C485.331 613.648 485.754 612.516 485.754 611.031C485.754 609.534 485.311 608.382 484.426 607.574C483.54 606.767 482.225 606.363 480.48 606.363H477.688V602.613Z" fill="#CD08D1"/>
<path d="M514.055 619H494.934V615.738L504.406 605.406C505.773 603.883 506.743 602.613 507.316 601.598C507.902 600.569 508.195 599.54 508.195 598.512C508.195 597.158 507.811 596.064 507.043 595.23C506.288 594.397 505.266 593.98 503.977 593.98C502.44 593.98 501.249 594.449 500.402 595.387C499.556 596.324 499.133 597.607 499.133 599.234H494.387C494.387 597.503 494.777 595.947 495.559 594.566C496.353 593.173 497.479 592.092 498.938 591.324C500.409 590.556 502.102 590.172 504.016 590.172C506.776 590.172 508.951 590.868 510.539 592.262C512.141 593.642 512.941 595.556 512.941 598.004C512.941 599.423 512.538 600.914 511.73 602.477C510.936 604.026 509.628 605.79 507.805 607.77L500.852 615.211H514.055V619Z" fill="#CD08D1"/>
<path d="M530.52 619H525.793V596.168L518.82 598.551V594.547L529.914 590.465H530.52V619Z" fill="#CD08D1"/>
<path d="M817.883 653.613H820.773C822.232 653.6 823.384 653.223 824.23 652.48C825.09 651.738 825.52 650.664 825.52 649.258C825.52 647.904 825.161 646.855 824.445 646.113C823.742 645.358 822.661 644.98 821.203 644.98C819.927 644.98 818.879 645.352 818.059 646.094C817.238 646.823 816.828 647.78 816.828 648.965H812.082C812.082 647.507 812.466 646.178 813.234 644.98C814.016 643.783 815.096 642.852 816.477 642.188C817.87 641.51 819.426 641.172 821.145 641.172C823.983 641.172 826.21 641.888 827.824 643.32C829.452 644.74 830.266 646.719 830.266 649.258C830.266 650.534 829.855 651.738 829.035 652.871C828.228 653.991 827.18 654.837 825.891 655.41C827.453 655.944 828.638 656.784 829.445 657.93C830.266 659.076 830.676 660.443 830.676 662.031C830.676 664.583 829.797 666.615 828.039 668.125C826.294 669.635 823.996 670.391 821.145 670.391C818.41 670.391 816.171 669.661 814.426 668.203C812.681 666.745 811.809 664.805 811.809 662.383H816.555C816.555 663.633 816.971 664.648 817.805 665.43C818.651 666.211 819.784 666.602 821.203 666.602C822.674 666.602 823.833 666.211 824.68 665.43C825.526 664.648 825.949 663.516 825.949 662.031C825.949 660.534 825.507 659.382 824.621 658.574C823.736 657.767 822.421 657.363 820.676 657.363H817.883V653.613Z" fill="#CD08D1"/>
<path d="M854.25 670H835.129V666.738L844.602 656.406C845.969 654.883 846.939 653.613 847.512 652.598C848.098 651.569 848.391 650.54 848.391 649.512C848.391 648.158 848.007 647.064 847.238 646.23C846.483 645.397 845.461 644.98 844.172 644.98C842.635 644.98 841.444 645.449 840.598 646.387C839.751 647.324 839.328 648.607 839.328 650.234H834.582C834.582 648.503 834.973 646.947 835.754 645.566C836.548 644.173 837.674 643.092 839.133 642.324C840.604 641.556 842.297 641.172 844.211 641.172C846.971 641.172 849.146 641.868 850.734 643.262C852.336 644.642 853.137 646.556 853.137 649.004C853.137 650.423 852.733 651.914 851.926 653.477C851.132 655.026 849.823 656.79 848 658.77L841.047 666.211H854.25V670Z" fill="#CD08D1"/>
<path d="M876.984 670H857.863V666.738L867.336 656.406C868.703 654.883 869.673 653.613 870.246 652.598C870.832 651.569 871.125 650.54 871.125 649.512C871.125 648.158 870.741 647.064 869.973 646.23C869.217 645.397 868.195 644.98 866.906 644.98C865.37 644.98 864.178 645.449 863.332 646.387C862.486 647.324 862.062 648.607 862.062 650.234H857.316C857.316 648.503 857.707 646.947 858.488 645.566C859.283 644.173 860.409 643.092 861.867 642.324C863.339 641.556 865.031 641.172 866.945 641.172C869.706 641.172 871.88 641.868 873.469 643.262C875.07 644.642 875.871 646.556 875.871 649.004C875.871 650.423 875.467 651.914 874.66 653.477C873.866 655.026 872.557 656.79 870.734 658.77L863.781 666.211H876.984V670Z" fill="#CD08D1"/>
<path d="M120.617 704.613H123.508C124.966 704.6 126.118 704.223 126.965 703.48C127.824 702.738 128.254 701.664 128.254 700.258C128.254 698.904 127.896 697.855 127.18 697.113C126.477 696.358 125.396 695.98 123.938 695.98C122.661 695.98 121.613 696.352 120.793 697.094C119.973 697.823 119.562 698.78 119.562 699.965H114.816C114.816 698.507 115.201 697.178 115.969 695.98C116.75 694.783 117.831 693.852 119.211 693.188C120.604 692.51 122.16 692.172 123.879 692.172C126.717 692.172 128.944 692.888 130.559 694.32C132.186 695.74 133 697.719 133 700.258C133 701.534 132.59 702.738 131.77 703.871C130.962 704.991 129.914 705.837 128.625 706.41C130.188 706.944 131.372 707.784 132.18 708.93C133 710.076 133.41 711.443 133.41 713.031C133.41 715.583 132.531 717.615 130.773 719.125C129.029 720.635 126.73 721.391 123.879 721.391C121.145 721.391 118.905 720.661 117.16 719.203C115.415 717.745 114.543 715.805 114.543 713.383H119.289C119.289 714.633 119.706 715.648 120.539 716.43C121.385 717.211 122.518 717.602 123.938 717.602C125.409 717.602 126.568 717.211 127.414 716.43C128.26 715.648 128.684 714.516 128.684 713.031C128.684 711.534 128.241 710.382 127.355 709.574C126.47 708.767 125.155 708.363 123.41 708.363H120.617V704.613Z" fill="#CD08D1"/>
<path d="M156.984 721H137.863V717.738L147.336 707.406C148.703 705.883 149.673 704.613 150.246 703.598C150.832 702.569 151.125 701.54 151.125 700.512C151.125 699.158 150.741 698.064 149.973 697.23C149.217 696.397 148.195 695.98 146.906 695.98C145.37 695.98 144.178 696.449 143.332 697.387C142.486 698.324 142.062 699.607 142.062 701.234H137.316C137.316 699.503 137.707 697.947 138.488 696.566C139.283 695.173 140.409 694.092 141.867 693.324C143.339 692.556 145.031 692.172 146.945 692.172C149.706 692.172 151.88 692.868 153.469 694.262C155.07 695.642 155.871 697.556 155.871 700.004C155.871 701.423 155.467 702.914 154.66 704.477C153.866 706.026 152.557 707.79 150.734 709.77L143.781 717.211H156.984V721Z" fill="#CD08D1"/>
<path d="M166.086 704.613H168.977C170.435 704.6 171.587 704.223 172.434 703.48C173.293 702.738 173.723 701.664 173.723 700.258C173.723 698.904 173.365 697.855 172.648 697.113C171.945 696.358 170.865 695.98 169.406 695.98C168.13 695.98 167.082 696.352 166.262 697.094C165.441 697.823 165.031 698.78 165.031 699.965H160.285C160.285 698.507 160.669 697.178 161.438 695.98C162.219 694.783 163.299 693.852 164.68 693.188C166.073 692.51 167.629 692.172 169.348 692.172C172.186 692.172 174.413 692.888 176.027 694.32C177.655 695.74 178.469 697.719 178.469 700.258C178.469 701.534 178.059 702.738 177.238 703.871C176.431 704.991 175.383 705.837 174.094 706.41C175.656 706.944 176.841 707.784 177.648 708.93C178.469 710.076 178.879 711.443 178.879 713.031C178.879 715.583 178 717.615 176.242 719.125C174.497 720.635 172.199 721.391 169.348 721.391C166.613 721.391 164.374 720.661 162.629 719.203C160.884 717.745 160.012 715.805 160.012 713.383H164.758C164.758 714.633 165.174 715.648 166.008 716.43C166.854 717.211 167.987 717.602 169.406 717.602C170.878 717.602 172.036 717.211 172.883 716.43C173.729 715.648 174.152 714.516 174.152 713.031C174.152 711.534 173.71 710.382 172.824 709.574C171.939 708.767 170.624 708.363 168.879 708.363H166.086V704.613Z" fill="#CD08D1"/>
<path d="M477.688 704.613H480.578C482.036 704.6 483.189 704.223 484.035 703.48C484.895 702.738 485.324 701.664 485.324 700.258C485.324 698.904 484.966 697.855 484.25 697.113C483.547 696.358 482.466 695.98 481.008 695.98C479.732 695.98 478.684 696.352 477.863 697.094C477.043 697.823 476.633 698.78 476.633 699.965H471.887C471.887 698.507 472.271 697.178 473.039 695.98C473.82 694.783 474.901 693.852 476.281 693.188C477.674 692.51 479.23 692.172 480.949 692.172C483.788 692.172 486.014 692.888 487.629 694.32C489.257 695.74 490.07 697.719 490.07 700.258C490.07 701.534 489.66 702.738 488.84 703.871C488.033 704.991 486.984 705.837 485.695 706.41C487.258 706.944 488.443 707.784 489.25 708.93C490.07 710.076 490.48 711.443 490.48 713.031C490.48 715.583 489.602 717.615 487.844 719.125C486.099 720.635 483.801 721.391 480.949 721.391C478.215 721.391 475.975 720.661 474.23 719.203C472.486 717.745 471.613 715.805 471.613 713.383H476.359C476.359 714.633 476.776 715.648 477.609 716.43C478.456 717.211 479.589 717.602 481.008 717.602C482.479 717.602 483.638 717.211 484.484 716.43C485.331 715.648 485.754 714.516 485.754 713.031C485.754 711.534 485.311 710.382 484.426 709.574C483.54 708.767 482.225 708.363 480.48 708.363H477.688V704.613Z" fill="#CD08D1"/>
<path d="M514.055 721H494.934V717.738L504.406 707.406C505.773 705.883 506.743 704.613 507.316 703.598C507.902 702.569 508.195 701.54 508.195 700.512C508.195 699.158 507.811 698.064 507.043 697.23C506.288 696.397 505.266 695.98 503.977 695.98C502.44 695.98 501.249 696.449 500.402 697.387C499.556 698.324 499.133 699.607 499.133 701.234H494.387C494.387 699.503 494.777 697.947 495.559 696.566C496.353 695.173 497.479 694.092 498.938 693.324C500.409 692.556 502.102 692.172 504.016 692.172C506.776 692.172 508.951 692.868 510.539 694.262C512.141 695.642 512.941 697.556 512.941 700.004C512.941 701.423 512.538 702.914 511.73 704.477C510.936 706.026 509.628 707.79 507.805 709.77L500.852 717.211H514.055V721Z" fill="#CD08D1"/>
<path d="M533.723 710.863H537.258V714.672H533.723V721H528.977V714.672H516.691L516.555 711.781L528.82 692.562H533.723V710.863ZM521.535 710.863H528.977V698.988L528.625 699.613L521.535 710.863Z" fill="#CD08D1"/>
</g>
<g id="flecha">
<path id="Rectangle 2" d="M58.2002 672.008L73.482 680.133L31.5004 759.089L16.2186 750.963L58.2002 672.008Z" fill="#1043F5"/>
<path id="Rectangle 1_2" d="M0 684.904L90 635V692.692L45 675.096L0 684.904Z" fill="#1043F5"/>
<path id="Rectangle 3" d="M4.03857 754.21L19.6657 727.143L36.9364 726.565L21.3092 753.632L4.03857 754.21Z" fill="#1043F5"/>
<path id="Rectangle 4_2" d="M30.0894 768.845L45.7165 741.778L36.9258 726.154L21.2986 753.221L30.0894 768.845Z" fill="#1043F5"/>
</g>
</g>
</g>
</svg>
