<svg  viewBox="0 0 769 283" fill="none" xmlns="http://www.w3.org/2000/svg">
<g id="0127208">
<g id="F_1=1\;&#10;F_2=3\;&#10;F_3=7\;&#10;F_4=15\;&#10;">
<g id="Group">
<g id="Group 169">
<g id="Group_2">
<g id="Group_3">
<path id="Vector" d="M3.80421 40.1213C3.26807 40.1213 3 39.9636 3 39.6483C3 39.5852 3.04731 39.3644 3.14192 38.986C3.26807 38.4814 3.39422 38.1975 3.52037 38.1345C3.64652 38.0714 4.0092 38.0241 4.60841 37.9926C5.45993 37.9926 6.40605 37.9452 7.44679 37.8506C7.88831 37.756 8.18792 37.5668 8.34561 37.283C8.40868 37.1253 9.52826 32.6943 11.7044 23.9899C13.8804 15.2855 14.9843 10.8703 15.0158 10.7441C15.0158 10.5234 14.9527 10.413 14.8266 10.413C14.5743 10.3184 13.7385 10.2395 12.3193 10.1765H10.8528C10.6636 9.98724 10.569 9.86109 10.569 9.79802C10.569 9.73494 10.6005 9.46687 10.6636 8.99381C10.7898 8.45767 10.9475 8.12653 11.1367 8.00038H36.6348C36.8555 8.12653 36.9659 8.29998 36.9659 8.52075C36.9659 8.67843 36.7609 10.4445 36.3509 13.819C35.9409 17.1936 35.7202 18.9281 35.6886 19.0227C35.6256 19.2435 35.3102 19.3539 34.7425 19.3539H34.1748C33.9541 19.1962 33.8437 18.9912 33.8437 18.7389C33.8437 18.7074 33.891 18.3289 33.9856 17.6035C34.0802 16.8782 34.1275 16.0424 34.1275 15.0963C34.1275 14.1502 34.0171 13.3775 33.7964 12.7783C33.5756 12.1791 33.276 11.6903 32.8976 11.3118C32.5191 10.9334 31.9357 10.6811 31.1472 10.5549C30.3588 10.4288 29.5546 10.3184 28.7346 10.2238C27.9146 10.1292 26.7793 10.1134 25.3286 10.1765H24.2405C21.6544 10.208 20.2826 10.2553 20.1249 10.3184C19.9672 10.3815 19.8568 10.5076 19.7937 10.6968C19.7622 10.7284 19.226 12.7941 18.1853 16.894L16.6715 22.9965H19.2734C19.368 22.9965 19.7306 22.9965 20.3614 22.9965C20.9921 22.9965 21.4337 22.9807 21.686 22.9492C21.9383 22.9176 22.2852 22.8703 22.7267 22.8072C23.1682 22.7442 23.5467 22.6338 23.8621 22.4761C24.1774 22.3184 24.4455 22.1292 24.6663 21.9084C25.0763 21.53 25.4232 21.0096 25.707 20.3473C25.9908 19.685 26.1958 19.0858 26.322 18.5497C26.4481 18.0135 26.527 17.7297 26.5585 17.6982C26.6531 17.5405 26.9527 17.4616 27.4573 17.4616H28.025C28.2458 17.6193 28.3562 17.777 28.3562 17.9347C28.3562 18.0293 27.8673 20.095 26.8897 24.1318C25.912 28.1686 25.3759 30.2501 25.2812 30.3762C25.2182 30.597 24.9028 30.7074 24.3351 30.7074H23.7674C23.5467 30.5182 23.4363 30.3289 23.4363 30.1397C23.4363 30.0451 23.5151 29.6982 23.6728 29.099C23.8305 28.4998 23.9094 27.869 23.9094 27.2067C23.9094 26.2921 23.594 25.7245 22.9632 25.5037C22.3325 25.2829 20.9291 25.1726 18.753 25.1726H16.1511L14.6373 31.1804C13.6281 35.0911 13.1235 37.141 13.1235 37.3303C13.1235 37.7718 14.527 37.9926 17.3338 37.9926H18.5165C18.7057 38.1818 18.8003 38.2922 18.8003 38.3237C18.8003 38.3552 18.7688 38.6706 18.7057 39.2698C18.5795 39.6798 18.4218 39.9794 18.2326 40.1686H17.4284C16.1354 40.1056 13.7543 40.074 10.2852 40.074C8.23523 40.074 6.67412 40.074 5.60184 40.074C4.52957 40.074 3.93036 40.0898 3.80421 40.1213Z" fill="white"/>
</g>
<g id="Group_4">
<path id="Vector_2" d="M39.075 27.9329L38.6402 28.1001C38.328 28.2116 37.8821 28.3231 37.3024 28.4346C36.7226 28.5461 36.076 28.6241 35.3625 28.6687H34.7271V27.1302H35.3625C36.4105 27.0856 37.3804 26.9184 38.2723 26.6285C39.1642 26.3387 39.7885 26.0711 40.1452 25.8258C40.502 25.5806 40.8141 25.3353 41.0817 25.09C41.1263 25.0231 41.2601 24.9897 41.483 24.9897C41.6837 24.9897 41.8732 25.0566 42.0516 25.1904V35.1906L42.0851 45.2242C42.2411 45.3803 42.3749 45.4806 42.4864 45.5252C42.5979 45.5698 42.8655 45.6144 43.2891 45.659C43.7127 45.7036 44.404 45.7259 45.3627 45.7259H46.2323V47.2644H45.8644C45.3962 47.1975 43.6236 47.1641 40.5466 47.1641C37.5142 47.1641 35.7639 47.1975 35.2956 47.2644H34.8943V45.7259H35.7639C36.2544 45.7259 36.678 45.7259 37.0348 45.7259C37.3915 45.7259 37.6703 45.7148 37.8709 45.6925C38.0716 45.6702 38.25 45.6367 38.4061 45.5921C38.5621 45.5475 38.6513 45.5252 38.6736 45.5252C38.6959 45.5252 38.7628 45.4695 38.8743 45.358C38.9858 45.2465 39.0527 45.2019 39.075 45.2242V27.9329Z" fill="white"/>
</g>
</g>
<g id="Group_5">
<path id="Vector_3" d="M66.8306 23.7532C66.8306 23.3432 67.0513 23.0279 67.4929 22.8071H97.6269C98.1 23.0594 98.3365 23.3748 98.3365 23.7532C98.3365 24.1001 98.1158 24.3997 97.6743 24.652L82.6309 24.6994H67.5875C67.0829 24.5417 66.8306 24.2263 66.8306 23.7532ZM66.8306 32.9306C66.8306 32.4576 67.0829 32.1422 67.5875 31.9845H97.6743C98.1158 32.2999 98.3365 32.6153 98.3365 32.9306C98.3365 33.3406 98.1 33.656 97.6269 33.8768H67.4929C67.0513 33.656 66.8306 33.3406 66.8306 32.9306Z" fill="white"/>
</g>
<g id="Group_6">
<path id="Vector_4" d="M124.204 12.8253L123.589 13.0618C123.147 13.2195 122.516 13.3772 121.696 13.5348C120.876 13.6925 119.962 13.8029 118.953 13.866H118.054V11.6899H118.953C120.435 11.6268 121.807 11.3903 123.068 10.9803C124.33 10.5703 125.213 10.1919 125.717 9.84496C126.222 9.49804 126.663 9.15113 127.042 8.80422C127.105 8.70961 127.294 8.6623 127.61 8.6623C127.893 8.6623 128.161 8.75691 128.414 8.94614V23.0907L128.461 37.2826C128.682 37.5034 128.871 37.6453 129.029 37.7083C129.186 37.7714 129.565 37.8345 130.164 37.8976C130.763 37.9606 131.741 37.9922 133.097 37.9922H134.327V40.1683H133.807C133.144 40.0737 130.637 40.0264 126.285 40.0264C121.996 40.0264 119.52 40.0737 118.858 40.1683H118.29V37.9922H119.52C120.214 37.9922 120.813 37.9922 121.318 37.9922C121.822 37.9922 122.217 37.9764 122.5 37.9449C122.784 37.9133 123.037 37.866 123.257 37.803C123.478 37.7399 123.604 37.7083 123.636 37.7083C123.667 37.7083 123.762 37.6295 123.92 37.4718C124.077 37.3141 124.172 37.2511 124.204 37.2826V12.8253Z" fill="white"/>
</g>
</g>
<g id="Group 168">
<g id="Group_7">
<g id="Group_8">
<path id="Vector_5" d="M3.80421 118.121C3.26807 118.121 3 117.963 3 117.648C3 117.585 3.04731 117.364 3.14192 116.986C3.26807 116.481 3.39422 116.197 3.52037 116.134C3.64652 116.071 4.0092 116.024 4.60841 115.992C5.45993 115.992 6.40605 115.945 7.44679 115.85C7.88831 115.756 8.18792 115.566 8.34561 115.283C8.40868 115.125 9.52826 110.694 11.7044 101.99C13.8804 93.2852 14.9843 88.8699 15.0158 88.7438C15.0158 88.523 14.9527 88.4126 14.8266 88.4126C14.5743 88.318 13.7385 88.2392 12.3193 88.1761H10.8528C10.6636 87.9869 10.569 87.8607 10.569 87.7976C10.569 87.7346 10.6005 87.4665 10.6636 86.9934C10.7898 86.4573 10.9475 86.1262 11.1367 86H36.6348C36.8555 86.1262 36.9659 86.2996 36.9659 86.5204C36.9659 86.6781 36.7609 88.4442 36.3509 91.8187C35.9409 95.1932 35.7202 96.9278 35.6886 97.0224C35.6256 97.2431 35.3102 97.3535 34.7425 97.3535H34.1748C33.9541 97.1958 33.8437 96.9908 33.8437 96.7385C33.8437 96.707 33.891 96.3285 33.9856 95.6032C34.0802 94.8778 34.1275 94.0421 34.1275 93.096C34.1275 92.1498 34.0171 91.3772 33.7964 90.7779C33.5756 90.1787 33.276 89.6899 32.8976 89.3114C32.5191 88.933 31.9357 88.6807 31.1472 88.5546C30.3588 88.4284 29.5546 88.318 28.7346 88.2234C27.9146 88.1288 26.7793 88.113 25.3286 88.1761H24.2405C21.6544 88.2076 20.2826 88.2549 20.1249 88.318C19.9672 88.3811 19.8568 88.5072 19.7937 88.6965C19.7622 88.728 19.226 90.7937 18.1853 94.8936L16.6715 100.996H19.2734C19.368 100.996 19.7306 100.996 20.3614 100.996C20.9921 100.996 21.4337 100.98 21.686 100.949C21.9383 100.917 22.2852 100.87 22.7267 100.807C23.1682 100.744 23.5467 100.633 23.8621 100.476C24.1774 100.318 24.4455 100.129 24.6663 99.9081C25.0763 99.5296 25.4232 99.0092 25.707 98.3469C25.9908 97.6847 26.1958 97.0854 26.322 96.5493C26.4481 96.0132 26.527 95.7293 26.5585 95.6978C26.6531 95.5401 26.9527 95.4613 27.4573 95.4613H28.025C28.2458 95.619 28.3562 95.7766 28.3562 95.9343C28.3562 96.0289 27.8673 98.0946 26.8897 102.131C25.912 106.168 25.3759 108.25 25.2812 108.376C25.2182 108.597 24.9028 108.707 24.3351 108.707H23.7674C23.5467 108.518 23.4363 108.329 23.4363 108.139C23.4363 108.045 23.5151 107.698 23.6728 107.099C23.8305 106.499 23.9094 105.869 23.9094 105.206C23.9094 104.292 23.594 103.724 22.9632 103.503C22.3325 103.283 20.9291 103.172 18.753 103.172H16.1511L14.6373 109.18C13.6281 113.091 13.1235 115.141 13.1235 115.33C13.1235 115.771 14.527 115.992 17.3338 115.992H18.5165C18.7057 116.181 18.8003 116.292 18.8003 116.323C18.8003 116.355 18.7688 116.67 18.7057 117.269C18.5795 117.679 18.4218 117.979 18.2326 118.168H17.4284C16.1354 118.105 13.7543 118.074 10.2852 118.074C8.23523 118.074 6.67412 118.074 5.60184 118.074C4.52957 118.074 3.93036 118.089 3.80421 118.121Z" fill="white"/>
</g>
<g id="Group_9">
<path id="Vector_6" d="M35.5973 110.916C34.9953 110.916 34.5159 110.715 34.1592 110.314C33.8024 109.913 33.624 109.422 33.624 108.842C33.624 107.259 34.2149 105.888 35.3966 104.728C36.5784 103.569 38.05 102.989 39.8114 102.989C41.8405 102.989 43.535 103.614 44.8952 104.862C46.2553 106.111 46.9465 107.727 46.9688 109.712C46.9688 110.671 46.7458 111.585 46.2999 112.454C45.8539 113.324 45.3188 114.082 44.6945 114.729C44.0702 115.375 43.1783 116.2 42.0189 117.204C41.2162 117.895 40.1013 118.921 38.6743 120.281L36.701 122.154L39.2429 122.187C42.7435 122.187 44.6053 122.131 44.8283 122.02C44.9844 121.975 45.2519 120.983 45.631 119.043V118.943H46.9688V119.043C46.9465 119.11 46.8016 120.125 46.534 122.087C46.2664 124.049 46.0992 125.075 46.0323 125.164V125.264H33.624V124.629V124.227C33.624 124.071 33.6909 123.904 33.8247 123.726C33.9585 123.547 34.2929 123.157 34.8281 122.555C35.4747 121.841 36.0321 121.217 36.5003 120.682C36.701 120.459 37.0801 120.047 37.6375 119.445C38.1949 118.842 38.574 118.43 38.7746 118.207C38.9753 117.984 39.2986 117.616 39.7446 117.103C40.1905 116.59 40.5027 116.211 40.681 115.966C40.8594 115.721 41.1158 115.386 41.4503 114.963C41.7847 114.539 42.0189 114.182 42.1526 113.893C42.2864 113.603 42.4536 113.279 42.6543 112.923C42.855 112.566 42.9999 112.209 43.0891 111.852C43.1783 111.496 43.2563 111.161 43.3232 110.849C43.3901 110.537 43.4236 110.169 43.4236 109.745C43.4236 108.341 43.0445 107.125 42.2864 106.1C41.5283 105.074 40.4469 104.561 39.0422 104.561C38.3064 104.561 37.6598 104.751 37.1024 105.13C36.5449 105.509 36.1547 105.877 35.9318 106.234C35.7088 106.59 35.5973 106.802 35.5973 106.869C35.5973 106.891 35.6531 106.902 35.7645 106.902C36.1659 106.902 36.5784 107.059 37.002 107.371C37.4257 107.683 37.6375 108.196 37.6375 108.909C37.6375 109.467 37.4591 109.935 37.1024 110.314C36.7456 110.693 36.2439 110.894 35.5973 110.916Z" fill="white"/>
</g>
</g>
<g id="Group_10">
<path id="Vector_7" d="M66.8301 101.753C66.8301 101.343 67.0508 101.027 67.4924 100.807H97.6265C98.0995 101.059 98.3361 101.374 98.3361 101.753C98.3361 102.1 98.1153 102.399 97.6738 102.652L82.6304 102.699H67.587C67.0824 102.541 66.8301 102.226 66.8301 101.753ZM66.8301 110.93C66.8301 110.457 67.0824 110.142 67.587 109.984H97.6738C98.1153 110.299 98.3361 110.615 98.3361 110.93C98.3361 111.34 98.0995 111.656 97.6265 111.876H67.4924C67.0508 111.656 66.8301 111.34 66.8301 110.93Z" fill="white"/>
</g>
<g id="Group_11">
<path id="Vector_8" d="M120.135 96.2653C119.283 96.2653 118.621 95.9973 118.148 95.4611C117.675 94.925 117.423 94.2312 117.391 93.3796C117.391 91.6451 118.148 90.0997 119.662 88.7436C121.176 87.3875 123.005 86.7095 125.149 86.7095C126.253 86.7095 126.947 86.7252 127.231 86.7568C129.565 87.1352 131.346 87.971 132.576 89.264C133.806 90.557 134.437 91.9605 134.469 93.4743C134.469 95.1142 133.932 96.7068 132.86 98.2522C131.788 99.7975 130.306 100.917 128.413 101.611L128.271 101.706C128.271 101.737 128.413 101.784 128.697 101.847C128.981 101.911 129.438 102.052 130.069 102.273C130.7 102.494 131.299 102.825 131.867 103.267C134.453 104.938 135.746 107.146 135.746 109.89C135.746 112.381 134.768 114.557 132.813 116.418C130.858 118.279 128.382 119.209 125.386 119.209C122.863 119.209 120.687 118.531 118.858 117.175C117.028 115.819 116.114 114.1 116.114 112.018C116.114 111.135 116.398 110.426 116.965 109.89C117.533 109.353 118.243 109.07 119.094 109.038C119.977 109.038 120.702 109.322 121.27 109.89C121.838 110.457 122.122 111.167 122.122 112.018C122.122 112.365 122.074 112.681 121.98 112.964C121.885 113.248 121.775 113.501 121.649 113.721C121.522 113.942 121.349 114.131 121.128 114.289C120.907 114.447 120.718 114.573 120.561 114.667C120.403 114.762 120.245 114.825 120.087 114.857C119.93 114.888 119.804 114.936 119.709 114.999L119.52 115.046C121.128 116.465 123.084 117.175 125.386 117.175C127.12 117.175 128.429 116.339 129.312 114.667C129.848 113.627 130.116 112.034 130.116 109.89V108.943C130.116 105.947 129.107 103.945 127.089 102.936C126.616 102.746 125.654 102.636 124.203 102.604L122.216 102.557L122.074 102.462C122.011 102.368 121.98 102.116 121.98 101.706C121.98 101.138 122.106 100.854 122.358 100.854C123.241 100.854 124.156 100.775 125.102 100.618C126.174 100.46 127.152 99.7975 128.035 98.6306C128.918 97.4638 129.36 95.6976 129.36 93.3323V92.9539C129.36 91.1562 128.808 89.9105 127.704 89.2167C127.01 88.7752 126.269 88.5544 125.48 88.5544C124.471 88.5544 123.541 88.7279 122.689 89.0748C121.838 89.4217 121.239 89.7844 120.892 90.1628C120.545 90.5413 120.371 90.7305 120.371 90.7305H120.513C120.608 90.762 120.734 90.7936 120.892 90.8251C121.049 90.8566 121.207 90.9355 121.365 91.0616C121.522 91.1878 121.712 91.2982 121.932 91.3928C122.153 91.4874 122.311 91.6608 122.406 91.9131C122.5 92.1654 122.626 92.402 122.784 92.6227C122.942 92.8435 122.989 93.1589 122.926 93.5689C122.926 94.2627 122.705 94.8777 122.264 95.4138C121.822 95.95 121.112 96.2338 120.135 96.2653Z" fill="white"/>
</g>
</g>
<g id="Group 167">
<g id="Group_12">
<g id="Group_13">
<path id="Vector_9" d="M0.804206 196.121C0.268069 196.121 0 195.963 0 195.648C0 195.585 0.0473063 195.364 0.141919 194.986C0.268069 194.481 0.394219 194.197 0.520369 194.134C0.646519 194.071 1.0092 194.024 1.60841 193.992C2.45993 193.992 3.40605 193.945 4.44679 193.85C4.88831 193.756 5.18792 193.566 5.34561 193.283C5.40868 193.125 6.52826 188.694 8.70435 179.99C10.8804 171.285 11.9843 166.87 12.0158 166.744C12.0158 166.523 11.9527 166.413 11.8266 166.413C11.5743 166.318 10.7385 166.239 9.31933 166.176H7.85284C7.66361 165.987 7.569 165.861 7.569 165.798C7.569 165.735 7.60054 165.467 7.66361 164.993C7.78976 164.457 7.94745 164.126 8.13668 164H33.6348C33.8555 164.126 33.9659 164.3 33.9659 164.52C33.9659 164.678 33.7609 166.444 33.3509 169.819C32.9409 173.193 32.7202 174.928 32.6886 175.022C32.6256 175.243 32.3102 175.354 31.7425 175.354H31.1748C30.9541 175.196 30.8437 174.991 30.8437 174.739C30.8437 174.707 30.891 174.329 30.9856 173.603C31.0802 172.878 31.1275 172.042 31.1275 171.096C31.1275 170.15 31.0171 169.377 30.7964 168.778C30.5756 168.179 30.276 167.69 29.8976 167.311C29.5191 166.933 28.9357 166.681 28.1472 166.555C27.3588 166.428 26.5546 166.318 25.7346 166.223C24.9146 166.129 23.7793 166.113 22.3286 166.176H21.2405C18.6544 166.208 17.2826 166.255 17.1249 166.318C16.9672 166.381 16.8568 166.507 16.7937 166.696C16.7622 166.728 16.226 168.794 15.1853 172.894L13.6715 178.996H16.2734C16.368 178.996 16.7306 178.996 17.3614 178.996C17.9921 178.996 18.4337 178.98 18.686 178.949C18.9383 178.917 19.2852 178.87 19.7267 178.807C20.1682 178.744 20.5467 178.633 20.8621 178.476C21.1774 178.318 21.4455 178.129 21.6663 177.908C22.0763 177.53 22.4232 177.009 22.707 176.347C22.9908 175.685 23.1958 175.085 23.322 174.549C23.4481 174.013 23.527 173.729 23.5585 173.698C23.6531 173.54 23.9527 173.461 24.4573 173.461H25.025C25.2458 173.619 25.3562 173.777 25.3562 173.934C25.3562 174.029 24.8673 176.095 23.8897 180.131C22.912 184.168 22.3759 186.25 22.2812 186.376C22.2182 186.597 21.9028 186.707 21.3351 186.707H20.7674C20.5467 186.518 20.4363 186.329 20.4363 186.139C20.4363 186.045 20.5151 185.698 20.6728 185.099C20.8305 184.499 20.9094 183.869 20.9094 183.206C20.9094 182.292 20.594 181.724 19.9632 181.503C19.3325 181.283 17.9291 181.172 15.753 181.172H13.1511L11.6373 187.18C10.6281 191.091 10.1235 193.141 10.1235 193.33C10.1235 193.771 11.527 193.992 14.3338 193.992H15.5165C15.7057 194.181 15.8003 194.292 15.8003 194.323C15.8003 194.355 15.7688 194.67 15.7057 195.269C15.5795 195.679 15.4218 195.979 15.2326 196.168H14.4284C13.1354 196.105 10.7543 196.074 7.28516 196.074C5.23523 196.074 3.67412 196.074 2.60184 196.074C1.52957 196.074 0.930356 196.089 0.804206 196.121Z" fill="white"/>
</g>
<g id="Group_14">
<path id="Vector_10" d="M33.1998 187.779C32.5978 187.779 32.1295 187.59 31.7951 187.21C31.4606 186.831 31.2823 186.341 31.26 185.739C31.26 184.513 31.7951 183.42 32.8653 182.461C33.9356 181.502 35.2288 181.023 36.745 181.023C37.5254 181.023 38.016 181.034 38.2166 181.056C39.8666 181.324 41.1264 181.915 41.996 182.829C42.8656 183.743 43.3115 184.735 43.3338 185.806C43.3338 186.965 42.9548 188.091 42.1967 189.184C41.4386 190.276 40.3906 191.068 39.0528 191.558L38.9524 191.625C38.9524 191.648 39.0528 191.681 39.2534 191.726C39.4541 191.77 39.7774 191.871 40.2234 192.027C40.6693 192.183 41.0929 192.417 41.4943 192.729C43.3227 193.911 44.2368 195.472 44.2368 197.411C44.2368 199.173 43.5456 200.711 42.1632 202.027C40.7808 203.342 39.0305 204 36.9123 204C35.1285 204 33.59 203.521 32.2968 202.562C31.0035 201.603 30.3569 200.388 30.3569 198.916C30.3569 198.292 30.5576 197.79 30.959 197.411C31.3603 197.032 31.862 196.832 32.464 196.809C33.0883 196.809 33.6011 197.01 34.0025 197.411C34.4038 197.813 34.6045 198.314 34.6045 198.916C34.6045 199.162 34.5711 199.385 34.5042 199.585C34.4373 199.786 34.3592 199.964 34.2701 200.12C34.1809 200.277 34.0582 200.41 33.9022 200.522C33.7461 200.633 33.6123 200.722 33.5008 200.789C33.3893 200.856 33.2778 200.901 33.1664 200.923C33.0549 200.945 32.9657 200.979 32.8988 201.023L32.765 201.057C33.9022 202.06 35.2846 202.562 36.9123 202.562C38.1386 202.562 39.0639 201.971 39.6882 200.789C40.0673 200.054 40.2568 198.928 40.2568 197.411V196.742C40.2568 194.624 39.5433 193.208 38.1163 192.495C37.7818 192.361 37.1018 192.283 36.0761 192.261L34.6714 192.227L34.5711 192.16C34.5265 192.094 34.5042 191.915 34.5042 191.625C34.5042 191.224 34.5934 191.023 34.7717 191.023C35.3961 191.023 36.0427 190.968 36.7116 190.856C37.4697 190.745 38.1609 190.276 38.7852 189.451C39.4095 188.626 39.7217 187.378 39.7217 185.705V185.438C39.7217 184.167 39.3315 183.286 38.5511 182.796C38.0606 182.483 37.5366 182.327 36.9791 182.327C36.2656 182.327 35.6079 182.45 35.0059 182.695C34.4038 182.941 33.9802 183.197 33.7349 183.465C33.4897 183.732 33.367 183.866 33.367 183.866H33.4674C33.5343 183.888 33.6234 183.911 33.7349 183.933C33.8464 183.955 33.9579 184.011 34.0694 184.1C34.1809 184.189 34.3147 184.267 34.4707 184.334C34.6268 184.401 34.7383 184.524 34.8052 184.702C34.8721 184.88 34.9613 185.048 35.0728 185.204C35.1842 185.36 35.2177 185.583 35.1731 185.873C35.1731 186.363 35.017 186.798 34.7049 187.177C34.3927 187.556 33.891 187.757 33.1998 187.779Z" fill="white"/>
</g>
</g>
<g id="Group_15">
<path id="Vector_11" d="M63.8306 179.753C63.8306 179.343 64.0513 179.028 64.4929 178.807H94.6269C95.1 179.059 95.3365 179.375 95.3365 179.753C95.3365 180.1 95.1158 180.4 94.6743 180.652L79.6309 180.699H64.5875C64.0829 180.542 63.8306 180.226 63.8306 179.753ZM63.8306 188.931C63.8306 188.458 64.0829 188.142 64.5875 187.985H94.6743C95.1158 188.3 95.3365 188.615 95.3365 188.931C95.3365 189.341 95.1 189.656 94.6269 189.877H64.4929C64.0513 189.656 63.8306 189.341 63.8306 188.931Z" fill="white"/>
</g>
<g id="Group_16">
<path id="Vector_12" d="M113.729 174.502C113.761 174.439 114.029 172.72 114.533 169.346L115.29 164.284C115.29 164.221 115.605 164.19 116.236 164.19H117.182V164.379C117.182 164.694 117.419 164.962 117.892 165.183C118.365 165.404 119.185 165.546 120.352 165.609C121.519 165.672 124.184 165.703 128.347 165.703H134.071V167.548L130.854 171.948C130.57 172.326 130.097 172.957 129.435 173.84C128.772 174.723 128.347 175.306 128.157 175.59C127.968 175.874 127.637 176.379 127.164 177.104C126.691 177.829 126.376 178.397 126.218 178.807C126.06 179.217 125.839 179.801 125.556 180.557C125.272 181.314 125.067 182.04 124.941 182.734C124.814 183.427 124.688 184.279 124.562 185.288C124.436 186.297 124.341 187.37 124.278 188.505C124.215 189.64 124.168 190.933 124.136 192.384C124.136 192.826 124.136 193.267 124.136 193.709C124.136 194.15 124.121 194.529 124.089 194.844V195.27C123.963 195.806 123.663 196.263 123.19 196.642C122.717 197.02 122.181 197.209 121.582 197.209C121.235 197.209 120.904 197.162 120.588 197.067C120.273 196.973 119.942 196.673 119.595 196.169C119.248 195.664 119.075 195.033 119.075 194.276C119.075 189.293 120.604 184.121 123.663 178.76C124.294 177.751 125.619 175.843 127.637 173.036L129.813 170.055H125.414C119.926 170.055 117.04 170.15 116.757 170.339C116.567 170.434 116.394 170.812 116.236 171.475C116.079 172.137 115.921 172.815 115.763 173.509L115.621 174.502V174.644H113.729V174.502Z" fill="white"/>
</g>
</g>
<g id="Group 166">
<g id="Group_17">
<g id="Group_18">
<path id="Vector_13" d="M0.804206 275.121C0.268069 275.121 0 274.963 0 274.648C0 274.585 0.0473063 274.364 0.141919 273.986C0.268069 273.481 0.394219 273.197 0.520369 273.134C0.646519 273.071 1.0092 273.024 1.60841 272.992C2.45993 272.992 3.40605 272.945 4.44679 272.85C4.88831 272.756 5.18792 272.566 5.34561 272.283C5.40868 272.125 6.52826 267.694 8.70435 258.989C10.8804 250.285 11.9843 245.87 12.0158 245.744C12.0158 245.523 11.9527 245.413 11.8266 245.413C11.5743 245.318 10.7385 245.239 9.31933 245.176H7.85284C7.66361 244.987 7.569 244.861 7.569 244.798C7.569 244.735 7.60054 244.466 7.66361 243.993C7.78976 243.457 7.94745 243.126 8.13668 243H33.6348C33.8555 243.126 33.9659 243.3 33.9659 243.52C33.9659 243.678 33.7609 245.444 33.3509 248.819C32.9409 252.193 32.7202 253.928 32.6886 254.022C32.6256 254.243 32.3102 254.353 31.7425 254.353H31.1748C30.9541 254.196 30.8437 253.991 30.8437 253.738C30.8437 253.707 30.891 253.328 30.9856 252.603C31.0802 251.878 31.1275 251.042 31.1275 250.096C31.1275 249.15 31.0171 248.377 30.7964 247.778C30.5756 247.179 30.276 246.69 29.8976 246.311C29.5191 245.933 28.9357 245.681 28.1472 245.554C27.3588 245.428 26.5546 245.318 25.7346 245.223C24.9146 245.129 23.7793 245.113 22.3286 245.176H21.2405C18.6544 245.208 17.2826 245.255 17.1249 245.318C16.9672 245.381 16.8568 245.507 16.7937 245.696C16.7622 245.728 16.226 247.794 15.1853 251.894L13.6715 257.996H16.2734C16.368 257.996 16.7306 257.996 17.3614 257.996C17.9921 257.996 18.4337 257.98 18.686 257.949C18.9383 257.917 19.2852 257.87 19.7267 257.807C20.1682 257.744 20.5467 257.633 20.8621 257.476C21.1774 257.318 21.4455 257.129 21.6663 256.908C22.0763 256.53 22.4232 256.009 22.707 255.347C22.9908 254.685 23.1958 254.085 23.322 253.549C23.4481 253.013 23.527 252.729 23.5585 252.698C23.6531 252.54 23.9527 252.461 24.4573 252.461H25.025C25.2458 252.619 25.3562 252.777 25.3562 252.934C25.3562 253.029 24.8673 255.095 23.8897 259.131C22.912 263.168 22.3759 265.25 22.2812 265.376C22.2182 265.597 21.9028 265.707 21.3351 265.707H20.7674C20.5467 265.518 20.4363 265.329 20.4363 265.139C20.4363 265.045 20.5151 264.698 20.6728 264.099C20.8305 263.499 20.9094 262.869 20.9094 262.206C20.9094 261.292 20.594 260.724 19.9632 260.503C19.3325 260.283 17.9291 260.172 15.753 260.172H13.1511L11.6373 266.18C10.6281 270.091 10.1235 272.141 10.1235 272.33C10.1235 272.771 11.527 272.992 14.3338 272.992H15.5165C15.7057 273.181 15.8003 273.292 15.8003 273.323C15.8003 273.355 15.7688 273.67 15.7057 274.269C15.5795 274.679 15.4218 274.979 15.2326 275.168H14.4284C13.1354 275.105 10.7543 275.074 7.28516 275.074C5.23523 275.074 3.67412 275.074 2.60184 275.074C1.52957 275.074 0.930356 275.089 0.804206 275.121Z" fill="white"/>
</g>
<g id="Group_19">
<path id="Vector_14" d="M44.4031 282.264C44.0017 282.197 42.5636 282.164 40.0886 282.164C37.5021 282.164 36.0082 282.197 35.6069 282.264H35.3059V280.726H36.3427C36.7886 280.726 37.0896 280.726 37.2457 280.726C37.4018 280.726 37.5913 280.703 37.8143 280.659C38.0373 280.614 38.1933 280.558 38.2825 280.491C38.3717 280.425 38.4498 280.335 38.5166 280.224C38.5389 280.179 38.5501 279.577 38.5501 278.418V276.746H29.8877V275.207L34.938 267.481C38.3494 262.308 40.0774 259.711 40.122 259.688C40.1666 259.644 40.4007 259.621 40.8244 259.621H41.4264L41.6271 259.822V275.207H44.7041V276.746H41.6271V278.451C41.6271 279.365 41.6271 279.901 41.6271 280.057C41.6271 280.213 41.694 280.346 41.8277 280.458C42.0061 280.614 42.6416 280.703 43.7341 280.726H44.7041V282.264H44.4031ZM38.7508 275.207V264.036L31.4262 275.174L35.0718 275.207H38.7508Z" fill="white"/>
</g>
</g>
<g id="Group_20">
<path id="Vector_15" d="M63.8301 258.753C63.8301 258.343 64.0508 258.027 64.4924 257.807H94.6265C95.0995 258.059 95.3361 258.374 95.3361 258.753C95.3361 259.1 95.1153 259.399 94.6738 259.652L79.6304 259.699H64.587C64.0824 259.541 63.8301 259.226 63.8301 258.753ZM63.8301 267.93C63.8301 267.457 64.0824 267.142 64.587 266.984H94.6738C95.1153 267.299 95.3361 267.615 95.3361 267.93C95.3361 268.34 95.0995 268.656 94.6265 268.876H64.4924C64.0508 268.656 63.8301 268.34 63.8301 267.93Z" fill="white"/>
</g>
<g id="Group_21">
<path id="Vector_16" d="M121.203 247.825L120.588 248.062C120.147 248.219 119.516 248.377 118.696 248.535C117.876 248.692 116.961 248.803 115.952 248.866H115.053V246.69H115.952C117.434 246.627 118.806 246.39 120.068 245.98C121.329 245.57 122.212 245.192 122.717 244.845C123.221 244.498 123.663 244.151 124.041 243.804C124.104 243.709 124.294 243.662 124.609 243.662C124.893 243.662 125.161 243.757 125.413 243.946V258.091L125.461 272.282C125.681 272.503 125.871 272.645 126.028 272.708C126.186 272.771 126.564 272.834 127.164 272.897C127.763 272.96 128.741 272.992 130.097 272.992H131.327V275.168H130.806C130.144 275.073 127.637 275.026 123.285 275.026C118.995 275.026 116.52 275.073 115.857 275.168H115.29V272.992H116.52C117.214 272.992 117.813 272.992 118.317 272.992C118.822 272.992 119.216 272.976 119.5 272.945C119.784 272.913 120.036 272.866 120.257 272.803C120.478 272.74 120.604 272.708 120.635 272.708C120.667 272.708 120.762 272.629 120.919 272.472C121.077 272.314 121.171 272.251 121.203 272.282V247.825Z" fill="white"/>
<path id="Vector_17" d="M142.538 267.741C142.538 268.498 142.286 269.129 141.781 269.633C141.276 270.138 140.661 270.39 139.936 270.39H139.605C141.056 272.882 142.979 274.127 145.376 274.127C147.584 274.127 149.192 273.181 150.202 271.289C150.801 270.248 151.1 268.23 151.1 265.234C151.1 261.985 150.675 259.794 149.823 258.658C149.003 257.617 148.089 257.097 147.079 257.097H146.795C144.336 257.097 142.475 258.169 141.213 260.314C141.087 260.535 140.977 260.661 140.882 260.692C140.788 260.724 140.551 260.755 140.173 260.787C139.636 260.787 139.337 260.692 139.274 260.503C139.211 260.377 139.179 257.618 139.179 252.225V246.122C139.179 244.545 139.258 243.757 139.416 243.757C139.479 243.694 139.542 243.662 139.605 243.662C139.636 243.662 139.968 243.788 140.598 244.041C141.229 244.293 142.096 244.545 143.2 244.798C144.304 245.05 145.487 245.176 146.748 245.176C148.987 245.176 151.132 244.734 153.182 243.851C153.434 243.725 153.639 243.662 153.797 243.662C154.049 243.662 154.175 243.946 154.175 244.514V245.129C151.589 248.188 148.357 249.717 144.477 249.717C143.5 249.717 142.617 249.623 141.828 249.434L141.355 249.339V257.476C141.954 257.034 142.428 256.687 142.774 256.435C143.121 256.183 143.689 255.93 144.477 255.678C145.266 255.426 146.07 255.299 146.89 255.299C149.445 255.299 151.605 256.324 153.371 258.374C155.137 260.424 156.02 262.853 156.02 265.66C156.02 268.561 155.011 271.037 152.993 273.087C150.974 275.137 148.514 276.177 145.613 276.209C143.058 276.209 141.008 275.357 139.463 273.654C137.918 271.951 137.145 270.028 137.145 267.883C137.145 267.126 137.318 266.527 137.665 266.085C138.012 265.644 138.375 265.36 138.753 265.234C139.132 265.108 139.495 265.045 139.841 265.045C140.63 265.045 141.276 265.313 141.781 265.849C142.286 266.385 142.538 267.016 142.538 267.741Z" fill="white"/>
</g>
</g>
</g>
</g>
<g id="=2^1-1&#10;=2^2-1&#10;=2^3-1&#10;=2^4-1">
<g id="Group_22">
<g id="Group 173">
<g id="Group_23">
<path id="Vector_18" d="M147 24.0843C147 23.6955 147.209 23.3964 147.628 23.187H176.205C176.653 23.4263 176.878 23.7254 176.878 24.0843C176.878 24.4133 176.668 24.6974 176.25 24.9366L161.984 24.9815H147.718C147.239 24.832 147 24.5329 147 24.0843ZM147 32.7873C147 32.3387 147.239 32.0397 147.718 31.8901H176.25C176.668 32.1892 176.878 32.4883 176.878 32.7873C176.878 33.1761 176.653 33.4752 176.205 33.6846H147.628C147.209 33.4752 147 33.1761 147 32.7873Z" fill="white"/>
</g>
<g id="Group_24">
<g id="Group_25">
<path id="Vector_19" d="M196.742 20.4057C195.935 20.4057 195.292 20.1365 194.813 19.5982C194.334 19.0598 194.095 18.4019 194.095 17.6243C194.095 15.5008 194.888 13.6615 196.473 12.1063C198.058 10.5512 200.032 9.77356 202.395 9.77356C205.116 9.77356 207.389 10.611 209.213 12.2858C211.038 13.9606 211.965 16.1289 211.995 18.7907C211.995 20.0767 211.696 21.3029 211.098 22.4693C210.499 23.6357 209.782 24.6525 208.944 25.5198C208.107 26.3872 206.911 27.4937 205.355 28.8396C204.279 29.7667 202.783 31.1424 200.869 32.9668L198.222 35.479L201.632 35.5239C206.327 35.5239 208.825 35.4491 209.124 35.2996C209.333 35.2398 209.692 33.9089 210.2 31.3069V31.1724H211.995V31.3069C211.965 31.3967 211.771 32.7575 211.412 35.3893C211.053 38.0212 210.828 39.3969 210.739 39.5165V39.6511H194.095V38.7988V38.2604C194.095 38.0511 194.185 37.8268 194.364 37.5875C194.544 37.3482 194.992 36.8249 195.71 36.0174C196.578 35.0603 197.325 34.2229 197.953 33.5051C198.222 33.2061 198.731 32.6528 199.479 31.8453C200.226 31.0378 200.735 30.4845 201.004 30.1854C201.273 29.8863 201.707 29.3929 202.305 28.705C202.903 28.0171 203.322 27.5087 203.561 27.1797C203.8 26.8507 204.144 26.4021 204.593 25.8339C205.041 25.2656 205.355 24.7871 205.535 24.3983C205.714 24.0095 205.939 23.5759 206.208 23.0973C206.477 22.6188 206.671 22.1403 206.791 21.6618C206.911 21.1833 207.015 20.7346 207.105 20.3159C207.195 19.8972 207.24 19.4038 207.24 18.8355C207.24 16.9514 206.731 15.3214 205.714 13.9457C204.697 12.5699 203.247 11.882 201.363 11.882C200.376 11.882 199.508 12.1363 198.761 12.6447C198.013 13.1531 197.49 13.6466 197.191 14.1251C196.892 14.6036 196.742 14.8877 196.742 14.9775C196.742 15.0074 196.817 15.0223 196.966 15.0223C197.505 15.0223 198.058 15.2317 198.626 15.6504C199.194 16.0691 199.479 16.757 199.479 17.714C199.479 18.4617 199.239 19.0897 198.761 19.5982C198.282 20.1066 197.609 20.3758 196.742 20.4057Z" fill="white"/>
</g>
<g id="Group_26">
<path id="Vector_20" d="M221.038 2.79112L220.626 2.94971C220.33 3.05543 219.907 3.16115 219.357 3.26687C218.807 3.3726 218.194 3.4466 217.518 3.48889H216.915V2.02992H217.518C218.511 1.98763 219.431 1.82904 220.277 1.55416C221.123 1.27929 221.715 1.02555 222.053 0.792959C222.391 0.560369 222.688 0.327779 222.941 0.0951881C222.984 0.0317544 223.11 3.8147e-05 223.322 3.8147e-05C223.512 3.8147e-05 223.692 0.0634706 223.861 0.190338V9.67368L223.893 19.1887C224.041 19.3368 224.168 19.4319 224.273 19.4742C224.379 19.5165 224.633 19.5588 225.035 19.6011C225.436 19.6434 226.092 19.6645 227.001 19.6645H227.826V21.1235H227.477C227.033 21.06 225.352 21.0283 222.434 21.0283C219.558 21.0283 217.898 21.06 217.454 21.1235H217.074V19.6645H217.898C218.363 19.6645 218.765 19.6645 219.104 19.6645C219.442 19.6645 219.706 19.6539 219.896 19.6328C220.087 19.6116 220.256 19.5799 220.404 19.5376C220.552 19.4953 220.636 19.4742 220.658 19.4742C220.679 19.4742 220.742 19.4213 220.848 19.3156C220.954 19.2099 221.017 19.1676 221.038 19.1887V2.79112Z" fill="white"/>
</g>
</g>
<g id="Group_27">
<path id="Vector_21" d="M246.125 29.019C246.125 29.019 246.125 28.8246 246.125 28.4358C246.125 28.047 246.335 27.7479 246.754 27.5386H272.818C273.267 27.7778 273.491 28.0769 273.491 28.4358C273.491 28.7947 273.267 29.0937 272.818 29.333H246.754C246.335 29.1237 246.125 28.8246 246.125 28.4358V29.019Z" fill="white"/>
</g>
<g id="Group_28">
<path id="Vector_22" d="M296.783 13.7213L296.199 13.9457C295.781 14.0952 295.183 14.2447 294.405 14.3943C293.627 14.5438 292.76 14.6485 291.803 14.7083H290.951V12.6447H291.803C293.209 12.5849 294.51 12.3606 295.706 11.9718C296.902 11.583 297.74 11.2241 298.218 10.8951C298.697 10.5661 299.115 10.2371 299.474 9.90815C299.534 9.81842 299.714 9.77356 300.013 9.77356C300.282 9.77356 300.536 9.86329 300.775 10.0427V23.4562L300.82 36.9146C301.029 37.1239 301.209 37.2585 301.358 37.3183C301.508 37.3782 301.867 37.438 302.435 37.4978C303.003 37.5576 303.931 37.5875 305.217 37.5875H306.383V39.6511H305.889C305.261 39.5614 302.884 39.5165 298.757 39.5165C294.689 39.5165 292.341 39.5614 291.713 39.6511H291.175V37.5875H292.341C292.999 37.5875 293.568 37.5875 294.046 37.5875C294.525 37.5875 294.898 37.5726 295.168 37.5426C295.437 37.5127 295.676 37.4679 295.885 37.4081C296.095 37.3482 296.214 37.3183 296.244 37.3183C296.274 37.3183 296.364 37.2436 296.513 37.094C296.663 36.9445 296.753 36.8847 296.783 36.9146V13.7213Z" fill="white"/>
</g>
</g>
<g id="Group 172">
<g id="Group_29">
<path id="Vector_23" d="M148 103.084C148 102.695 148.209 102.396 148.628 102.187H177.205C177.653 102.426 177.878 102.725 177.878 103.084C177.878 103.413 177.668 103.697 177.25 103.937L162.984 103.981H148.718C148.239 103.832 148 103.533 148 103.084ZM148 111.787C148 111.339 148.239 111.04 148.718 110.89H177.25C177.668 111.189 177.878 111.488 177.878 111.787C177.878 112.176 177.653 112.475 177.205 112.685H148.628C148.209 112.475 148 112.176 148 111.787Z" fill="white"/>
</g>
<g id="Group_30">
<g id="Group_31">
<path id="Vector_24" d="M197.737 99.4057C196.929 99.4057 196.286 99.1365 195.808 98.5982C195.329 98.0598 195.09 97.4019 195.09 96.6243C195.09 94.5008 195.882 92.6615 197.467 91.1063C199.053 89.5512 201.026 88.7736 203.389 88.7736C206.111 88.7736 208.384 89.611 210.208 91.2858C212.032 92.9606 212.96 95.1289 212.989 97.7907C212.989 99.0767 212.69 100.303 212.092 101.469C211.494 102.636 210.776 103.653 209.939 104.52C209.101 105.387 207.905 106.494 206.35 107.84C205.273 108.767 203.778 110.142 201.864 111.967L199.217 114.479L202.627 114.524C207.322 114.524 209.819 114.449 210.118 114.3C210.328 114.24 210.687 112.909 211.195 110.307V110.172H212.989V110.307C212.96 110.397 212.765 111.757 212.406 114.389C212.047 117.021 211.823 118.397 211.733 118.517V118.651H195.09V117.799V117.26C195.09 117.051 195.18 116.827 195.359 116.588C195.538 116.348 195.987 115.825 196.705 115.017C197.572 114.06 198.32 113.223 198.948 112.505C199.217 112.206 199.726 111.653 200.473 110.845C201.221 110.038 201.729 109.484 201.998 109.185C202.268 108.886 202.701 108.393 203.299 107.705C203.898 107.017 204.316 106.509 204.556 106.18C204.795 105.851 205.139 105.402 205.587 104.834C206.036 104.266 206.35 103.787 206.529 103.398C206.709 103.01 206.933 102.576 207.202 102.097C207.472 101.619 207.666 101.14 207.786 100.662C207.905 100.183 208.01 99.7346 208.1 99.3159C208.189 98.8972 208.234 98.4038 208.234 97.8355C208.234 95.9514 207.726 94.3214 206.709 92.9457C205.692 91.5699 204.242 90.882 202.357 90.882C201.37 90.882 200.503 91.1363 199.755 91.6447C199.008 92.1531 198.484 92.6466 198.185 93.1251C197.886 93.6036 197.737 93.8877 197.737 93.9775C197.737 94.0074 197.811 94.0223 197.961 94.0223C198.499 94.0223 199.053 94.2317 199.621 94.6504C200.189 95.0691 200.473 95.757 200.473 96.714C200.473 97.4617 200.234 98.0897 199.755 98.5982C199.277 99.1066 198.604 99.3758 197.737 99.4057Z" fill="white"/>
</g>
<g id="Group_32">
<path id="Vector_25" d="M218.735 86.5169C218.164 86.5169 217.71 86.3266 217.371 85.946C217.033 85.5654 216.864 85.1002 216.864 84.5505C216.864 83.0492 217.424 81.7488 218.545 80.6493C219.665 79.5498 221.061 79 222.731 79C224.656 79 226.263 79.5921 227.552 80.7762C228.842 81.9603 229.498 83.4933 229.519 85.3751C229.519 86.2843 229.307 87.1513 228.884 87.9759C228.462 88.8006 227.954 89.5195 227.362 90.1327C226.77 90.7459 225.924 91.5282 224.825 92.4797C224.063 93.1352 223.006 94.1078 221.653 95.3977L219.782 97.1738L222.192 97.2055C225.512 97.2055 227.277 97.1527 227.489 97.0469C227.637 97.0046 227.891 96.0637 228.25 94.2241V94.129H229.519V94.2241C229.498 94.2876 229.36 95.2496 229.106 97.1104C228.853 98.9711 228.694 99.9437 228.631 100.028V100.123H216.864V99.5209V99.1403C216.864 98.9922 216.927 98.8337 217.054 98.6645C217.181 98.4953 217.498 98.1253 218.006 97.5544C218.619 96.8778 219.147 96.2857 219.591 95.7783C219.782 95.5668 220.141 95.1756 220.67 94.6047C221.198 94.0338 221.558 93.6427 221.748 93.4312C221.938 93.2198 222.245 92.8709 222.668 92.3846C223.091 91.8982 223.387 91.5388 223.556 91.3062C223.725 91.0736 223.968 90.7564 224.286 90.3547C224.603 89.9529 224.825 89.6146 224.952 89.3397C225.078 89.0649 225.237 88.7583 225.427 88.4199C225.618 88.0816 225.755 87.7433 225.84 87.405C225.924 87.0667 225.998 86.7495 226.062 86.4535C226.125 86.1575 226.157 85.8086 226.157 85.4068C226.157 84.0747 225.797 82.9224 225.078 81.9497C224.36 80.9771 223.334 80.4907 222.002 80.4907C221.304 80.4907 220.691 80.6705 220.162 81.0299C219.634 81.3894 219.264 81.7383 219.052 82.0766C218.841 82.4149 218.735 82.6158 218.735 82.6792C218.735 82.7003 218.788 82.7109 218.894 82.7109C219.274 82.7109 219.665 82.8589 220.067 83.1549C220.469 83.451 220.67 83.9373 220.67 84.6139C220.67 85.1425 220.501 85.5866 220.162 85.946C219.824 86.3055 219.348 86.4958 218.735 86.5169Z" fill="white"/>
</g>
</g>
<g id="Group_33">
<path id="Vector_26" d="M247.12 108.019C247.12 108.019 247.12 107.825 247.12 107.436C247.12 107.047 247.329 106.748 247.748 106.539H273.813C274.261 106.778 274.485 107.077 274.485 107.436C274.485 107.795 274.261 108.094 273.813 108.333H247.748C247.329 108.124 247.12 107.825 247.12 107.436V108.019Z" fill="white"/>
</g>
<g id="Group_34">
<path id="Vector_27" d="M297.777 92.7213L297.194 92.9457C296.775 93.0952 296.177 93.2447 295.4 93.3943C294.622 93.5438 293.755 93.6485 292.798 93.7083H291.945V91.6447H292.798C294.203 91.5849 295.504 91.3606 296.701 90.9718C297.897 90.583 298.734 90.2241 299.213 89.8951C299.691 89.5661 300.11 89.2371 300.469 88.9081C300.529 88.8184 300.708 88.7736 301.007 88.7736C301.276 88.7736 301.531 88.8633 301.77 89.0427V102.456L301.815 115.915C302.024 116.124 302.204 116.259 302.353 116.318C302.503 116.378 302.862 116.438 303.43 116.498C303.998 116.558 304.925 116.588 306.211 116.588H307.378V118.651H306.884C306.256 118.561 303.878 118.517 299.751 118.517C295.684 118.517 293.336 118.561 292.708 118.651H292.17V116.588H293.336C293.994 116.588 294.562 116.588 295.041 116.588C295.519 116.588 295.893 116.573 296.162 116.543C296.431 116.513 296.671 116.468 296.88 116.408C297.089 116.348 297.209 116.318 297.239 116.318C297.269 116.318 297.359 116.244 297.508 116.094C297.658 115.944 297.747 115.885 297.777 115.915V92.7213Z" fill="white"/>
</g>
</g>
<g id="Group 171">
<g id="Group_35">
<path id="Vector_28" d="M150 177.053C150 176.664 150.209 176.365 150.628 176.155H179.205C179.653 176.395 179.878 176.694 179.878 177.053C179.878 177.382 179.668 177.666 179.25 177.905L164.984 177.95H150.718C150.239 177.8 150 177.501 150 177.053ZM150 185.756C150 185.307 150.239 185.008 150.718 184.858H179.25C179.668 185.157 179.878 185.457 179.878 185.756C179.878 186.144 179.653 186.443 179.205 186.653H150.628C150.209 186.443 150 186.144 150 185.756Z" fill="white"/>
</g>
<g id="Group_36">
<g id="Group_37">
<path id="Vector_29" d="M199.742 173.374C198.934 173.374 198.291 173.105 197.813 172.566C197.334 172.028 197.095 171.37 197.095 170.593C197.095 168.469 197.887 166.63 199.472 165.075C201.057 163.519 203.031 162.742 205.394 162.742C208.116 162.742 210.389 163.579 212.213 165.254C214.037 166.929 214.964 169.097 214.994 171.759C214.994 173.045 214.695 174.271 214.097 175.438C213.499 176.604 212.781 177.621 211.944 178.488C211.106 179.355 209.91 180.462 208.355 181.808C207.278 182.735 205.783 184.111 203.869 185.935L201.222 188.447L204.631 188.492C209.327 188.492 211.824 188.417 212.123 188.268C212.333 188.208 212.691 186.877 213.2 184.275V184.141H214.994V184.275C214.964 184.365 214.77 185.726 214.411 188.358C214.052 190.989 213.828 192.365 213.738 192.485V192.619H197.095V191.767V191.229C197.095 191.019 197.184 190.795 197.364 190.556C197.543 190.317 197.992 189.793 198.71 188.986C199.577 188.029 200.325 187.191 200.953 186.473C201.222 186.174 201.73 185.621 202.478 184.814C203.226 184.006 203.734 183.453 204.003 183.154C204.273 182.855 204.706 182.361 205.304 181.673C205.902 180.985 206.321 180.477 206.56 180.148C206.8 179.819 207.144 179.37 207.592 178.802C208.041 178.234 208.355 177.755 208.534 177.367C208.714 176.978 208.938 176.544 209.207 176.066C209.476 175.587 209.671 175.109 209.79 174.63C209.91 174.152 210.015 173.703 210.104 173.284C210.194 172.866 210.239 172.372 210.239 171.804C210.239 169.92 209.731 168.29 208.714 166.914C207.697 165.538 206.246 164.85 204.362 164.85C203.375 164.85 202.508 165.105 201.76 165.613C201.013 166.121 200.489 166.615 200.19 167.093C199.891 167.572 199.742 167.856 199.742 167.946C199.742 167.976 199.816 167.991 199.966 167.991C200.504 167.991 201.057 168.2 201.626 168.619C202.194 169.037 202.478 169.725 202.478 170.682C202.478 171.43 202.239 172.058 201.76 172.566C201.282 173.075 200.609 173.344 199.742 173.374Z" fill="white"/>
</g>
<g id="Group_38">
<path id="Vector_30" d="M221.311 159.407C220.74 159.407 220.296 159.227 219.979 158.868C219.662 158.508 219.493 158.043 219.472 157.472C219.472 156.309 219.979 155.273 220.994 154.364C222.009 153.455 223.235 153 224.673 153C225.413 153 225.878 153.011 226.069 153.032C227.633 153.285 228.828 153.846 229.653 154.713C230.477 155.58 230.9 156.521 230.921 157.536C230.921 158.635 230.562 159.703 229.843 160.739C229.124 161.775 228.13 162.526 226.862 162.991L226.766 163.054C226.766 163.075 226.862 163.107 227.052 163.149C227.242 163.192 227.549 163.287 227.972 163.435C228.395 163.583 228.796 163.805 229.177 164.101C230.911 165.222 231.778 166.702 231.778 168.541C231.778 170.212 231.122 171.671 229.811 172.918C228.5 174.166 226.84 174.789 224.832 174.789C223.14 174.789 221.681 174.335 220.455 173.426C219.228 172.516 218.615 171.364 218.615 169.969C218.615 169.376 218.806 168.901 219.186 168.541C219.567 168.182 220.042 167.992 220.613 167.97C221.205 167.97 221.692 168.161 222.072 168.541C222.453 168.922 222.643 169.398 222.643 169.969C222.643 170.201 222.612 170.413 222.548 170.603C222.485 170.793 222.411 170.962 222.326 171.11C222.242 171.258 222.125 171.385 221.977 171.491C221.829 171.597 221.702 171.681 221.597 171.745C221.491 171.808 221.385 171.85 221.279 171.872C221.174 171.893 221.089 171.924 221.026 171.967L220.899 171.998C221.977 172.95 223.288 173.426 224.832 173.426C225.995 173.426 226.872 172.865 227.464 171.745C227.824 171.047 228.003 169.979 228.003 168.541V167.907C228.003 165.898 227.327 164.556 225.974 163.879C225.656 163.752 225.011 163.678 224.039 163.657L222.707 163.625L222.612 163.562C222.569 163.498 222.548 163.329 222.548 163.054C222.548 162.674 222.633 162.483 222.802 162.483C223.394 162.483 224.007 162.43 224.641 162.325C225.36 162.219 226.016 161.775 226.608 160.993C227.2 160.21 227.496 159.026 227.496 157.44V157.187C227.496 155.981 227.126 155.146 226.386 154.681C225.921 154.385 225.424 154.237 224.895 154.237C224.219 154.237 223.595 154.353 223.024 154.586C222.453 154.818 222.051 155.062 221.819 155.315C221.586 155.569 221.47 155.696 221.47 155.696H221.565C221.628 155.717 221.713 155.738 221.819 155.759C221.924 155.781 222.03 155.833 222.136 155.918C222.242 156.003 222.368 156.077 222.516 156.14C222.664 156.203 222.77 156.32 222.834 156.489C222.897 156.658 222.982 156.817 223.087 156.965C223.193 157.113 223.225 157.324 223.182 157.599C223.182 158.064 223.034 158.476 222.738 158.836C222.442 159.195 221.967 159.386 221.311 159.407Z" fill="white"/>
</g>
</g>
<g id="Group_39">
<path id="Vector_31" d="M249.125 181.987C249.125 181.987 249.125 181.793 249.125 181.404C249.125 181.015 249.334 180.716 249.753 180.507H275.817C276.266 180.746 276.49 181.045 276.49 181.404C276.49 181.763 276.266 182.062 275.817 182.301H249.753C249.334 182.092 249.125 181.793 249.125 181.404V181.987Z" fill="white"/>
</g>
<g id="Group_40">
<path id="Vector_32" d="M299.782 166.69L299.199 166.914C298.78 167.063 298.182 167.213 297.405 167.363C296.627 167.512 295.76 167.617 294.803 167.677H293.95V165.613H294.803C296.208 165.553 297.509 165.329 298.705 164.94C299.902 164.551 300.739 164.192 301.218 163.863C301.696 163.534 302.115 163.205 302.474 162.876C302.534 162.787 302.713 162.742 303.012 162.742C303.281 162.742 303.536 162.832 303.775 163.011V176.424L303.82 189.883C304.029 190.092 304.208 190.227 304.358 190.287C304.508 190.346 304.866 190.406 305.435 190.466C306.003 190.526 306.93 190.556 308.216 190.556H309.382V192.619H308.889C308.261 192.53 305.883 192.485 301.756 192.485C297.689 192.485 295.341 192.53 294.713 192.619H294.175V190.556H295.341C295.999 190.556 296.567 190.556 297.046 190.556C297.524 190.556 297.898 190.541 298.167 190.511C298.436 190.481 298.676 190.436 298.885 190.376C299.094 190.317 299.214 190.287 299.244 190.287C299.274 190.287 299.363 190.212 299.513 190.062C299.663 189.913 299.752 189.853 299.782 189.883V166.69Z" fill="white"/>
</g>
</g>
<g id="Group 170">
<g id="Group_41">
<path id="Vector_33" d="M180 256.433C180 256.044 180.209 255.745 180.628 255.536H209.205C209.653 255.775 209.878 256.074 209.878 256.433C209.878 256.762 209.668 257.046 209.25 257.286L194.984 257.33H180.718C180.239 257.181 180 256.882 180 256.433ZM180 265.136C180 264.688 180.239 264.389 180.718 264.239H209.25C209.668 264.538 209.878 264.837 209.878 265.136C209.878 265.525 209.653 265.824 209.205 266.033H180.628C180.209 265.824 180 265.525 180 265.136Z" fill="white"/>
</g>
<g id="Group_42">
<g id="Group_43">
<path id="Vector_34" d="M229.737 252.755C228.929 252.755 228.286 252.485 227.808 251.947C227.329 251.409 227.09 250.751 227.09 249.973C227.09 247.85 227.882 246.01 229.467 244.455C231.053 242.9 233.026 242.122 235.389 242.122C238.111 242.122 240.384 242.96 242.208 244.635C244.032 246.309 244.96 248.478 244.989 251.14C244.989 252.426 244.69 253.652 244.092 254.818C243.494 255.985 242.776 257.001 241.939 257.869C241.101 258.736 239.905 259.843 238.35 261.188C237.273 262.116 235.778 263.491 233.864 265.316L231.217 267.828L234.627 267.873C239.322 267.873 241.819 267.798 242.118 267.648C242.328 267.589 242.687 266.258 243.195 263.656V263.521H244.989V263.656C244.96 263.746 244.765 265.106 244.406 267.738C244.047 270.37 243.823 271.746 243.733 271.865V272H227.09V271.148V270.609C227.09 270.4 227.18 270.176 227.359 269.936C227.538 269.697 227.987 269.174 228.705 268.366C229.572 267.409 230.32 266.572 230.948 265.854C231.217 265.555 231.726 265.002 232.473 264.194C233.221 263.387 233.729 262.833 233.998 262.534C234.268 262.235 234.701 261.742 235.299 261.054C235.898 260.366 236.316 259.858 236.556 259.529C236.795 259.2 237.139 258.751 237.587 258.183C238.036 257.615 238.35 257.136 238.529 256.747C238.709 256.358 238.933 255.925 239.202 255.446C239.472 254.968 239.666 254.489 239.786 254.011C239.905 253.532 240.01 253.084 240.1 252.665C240.189 252.246 240.234 251.753 240.234 251.184C240.234 249.3 239.726 247.67 238.709 246.295C237.692 244.919 236.242 244.231 234.357 244.231C233.37 244.231 232.503 244.485 231.755 244.994C231.008 245.502 230.484 245.995 230.185 246.474C229.886 246.952 229.737 247.237 229.737 247.326C229.737 247.356 229.811 247.371 229.961 247.371C230.499 247.371 231.053 247.581 231.621 247.999C232.189 248.418 232.473 249.106 232.473 250.063C232.473 250.811 232.234 251.439 231.755 251.947C231.277 252.455 230.604 252.725 229.737 252.755Z" fill="white"/>
</g>
<g id="Group_44">
<path id="Vector_35" d="M261.931 253.472C261.55 253.409 260.186 253.377 257.839 253.377C255.386 253.377 253.97 253.409 253.589 253.472H253.304V252.013H254.287C254.71 252.013 254.995 252.013 255.143 252.013C255.291 252.013 255.471 251.992 255.682 251.95C255.894 251.908 256.042 251.855 256.126 251.791C256.211 251.728 256.285 251.643 256.348 251.538C256.37 251.495 256.38 250.924 256.38 249.825V248.239H248.166V246.78L252.955 239.453C256.19 234.548 257.829 232.085 257.871 232.063C257.913 232.021 258.135 232 258.537 232H259.108L259.298 232.19V246.78H262.216V248.239H259.298V249.857C259.298 250.723 259.298 251.231 259.298 251.379C259.298 251.527 259.362 251.654 259.488 251.76C259.658 251.908 260.26 251.992 261.296 252.013H262.216V253.472H261.931ZM256.57 246.78V236.187L249.625 246.748L253.082 246.78H256.57Z" fill="white"/>
</g>
</g>
<g id="Group_45">
<path id="Vector_36" d="M279.12 261.368C279.12 261.368 279.12 261.173 279.12 260.785C279.12 260.396 279.329 260.097 279.748 259.887H305.813C306.261 260.127 306.485 260.426 306.485 260.785C306.485 261.144 306.261 261.443 305.813 261.682H279.748C279.329 261.473 279.12 261.173 279.12 260.785V261.368Z" fill="white"/>
</g>
<g id="Group_46">
<path id="Vector_37" d="M329.777 246.07L329.194 246.295C328.775 246.444 328.177 246.594 327.4 246.743C326.622 246.893 325.755 246.997 324.798 247.057H323.945V244.994H324.798C326.203 244.934 327.504 244.709 328.701 244.321C329.897 243.932 330.734 243.573 331.213 243.244C331.691 242.915 332.11 242.586 332.469 242.257C332.529 242.167 332.708 242.122 333.007 242.122C333.276 242.122 333.531 242.212 333.77 242.392V255.805L333.815 269.263C334.024 269.473 334.204 269.607 334.353 269.667C334.503 269.727 334.862 269.787 335.43 269.847C335.998 269.906 336.925 269.936 338.211 269.936H339.378V272H338.884C338.256 271.91 335.878 271.865 331.751 271.865C327.684 271.865 325.336 271.91 324.708 272H324.17V269.936H325.336C325.994 269.936 326.562 269.936 327.041 269.936C327.519 269.936 327.893 269.921 328.162 269.892C328.431 269.862 328.671 269.817 328.88 269.757C329.089 269.697 329.209 269.667 329.239 269.667C329.269 269.667 329.359 269.592 329.508 269.443C329.658 269.293 329.747 269.234 329.777 269.263V246.07Z" fill="white"/>
</g>
</g>
</g>
</g>
<path id="Line 90 (Stroke)" fill-rule="evenodd" clip-rule="evenodd" d="M399 8.98523L399 281.015H394L394 8.98523H399Z" fill="#CD08D1"/>
<g id="2^12-1=4096-1=4095\;\therefore\;\;4+9+5=18">
<g id="Group_47">
<g id="Group 175">
<g id="Group_48">
<g id="Group_49">
<path id="Vector_38" d="M437.443 51.8375C436.698 51.8375 436.104 51.589 435.663 51.092C435.221 50.5951 435 49.9877 435 49.2698C435 47.3096 435.732 45.6116 437.195 44.1759C438.658 42.7403 440.48 42.0224 442.662 42.0224C445.174 42.0224 447.272 42.7955 448.956 44.3416C450.641 45.8877 451.496 47.8894 451.524 50.3466C451.524 51.5338 451.248 52.6658 450.696 53.7425C450.144 54.8193 449.481 55.758 448.708 56.5587C447.935 57.3593 446.831 58.3809 445.395 59.6233C444.401 60.4792 443.02 61.7492 441.253 63.4334L438.81 65.7525L441.958 65.7939C446.292 65.7939 448.598 65.7249 448.874 65.5869C449.067 65.5316 449.398 64.303 449.868 61.901V61.7768H451.524V61.901C451.496 61.9839 451.317 63.2401 450.986 65.6697C450.654 68.0993 450.447 69.3693 450.365 69.4798V69.604H435V68.8171V68.3202C435 68.1269 435.083 67.9198 435.248 67.699C435.414 67.4781 435.828 66.9949 436.491 66.2495C437.292 65.366 437.982 64.5929 438.562 63.9303C438.81 63.6542 439.279 63.1435 439.97 62.398C440.66 61.6526 441.129 61.1418 441.378 60.8657C441.626 60.5896 442.027 60.1341 442.579 59.499C443.131 58.864 443.517 58.3947 443.738 58.091C443.959 57.7873 444.277 57.3731 444.691 56.8486C445.105 56.324 445.395 55.8822 445.561 55.5233C445.726 55.1644 445.933 54.7641 446.182 54.3223C446.43 53.8806 446.61 53.4388 446.72 52.9971C446.831 52.5553 446.927 52.1412 447.01 51.7547C447.093 51.3681 447.134 50.9126 447.134 50.388C447.134 48.6486 446.665 47.1439 445.726 45.8739C444.787 44.6039 443.448 43.9689 441.709 43.9689C440.798 43.9689 439.997 44.2035 439.307 44.6729C438.617 45.1423 438.134 45.5978 437.858 46.0396C437.581 46.4813 437.443 46.7436 437.443 46.8264C437.443 46.854 437.512 46.8678 437.65 46.8678C438.147 46.8678 438.658 47.0611 439.183 47.4476C439.707 47.8342 439.97 48.4692 439.97 49.3527C439.97 50.0429 439.749 50.6227 439.307 51.092C438.865 51.5614 438.244 51.8099 437.443 51.8375Z" fill="white"/>
</g>
<g id="Group_50">
<path id="Vector_39" d="M459.873 35.5767L459.492 35.7231C459.219 35.8207 458.828 35.9183 458.321 36.0159C457.813 36.1135 457.247 36.1818 456.623 36.2208H456.066V34.874H456.623C457.54 34.8349 458.389 34.6885 459.17 34.4348C459.951 34.181 460.497 33.9468 460.81 33.7321C461.122 33.5173 461.395 33.3026 461.63 33.0879C461.669 33.0293 461.786 33.0001 461.981 33.0001C462.157 33.0001 462.322 33.0586 462.479 33.1757V41.9303L462.508 50.7142C462.645 50.8508 462.762 50.9387 462.859 50.9777C462.957 51.0167 463.191 51.0558 463.562 51.0948C463.933 51.1339 464.538 51.1534 465.377 51.1534H466.139V52.5002H465.816C465.407 52.4417 463.855 52.4124 461.161 52.4124C458.506 52.4124 456.974 52.4417 456.564 52.5002H456.213V51.1534H456.974C457.404 51.1534 457.774 51.1534 458.087 51.1534C458.399 51.1534 458.643 51.1436 458.819 51.1241C458.994 51.1046 459.151 51.0753 459.287 51.0363C459.424 50.9972 459.502 50.9777 459.521 50.9777C459.541 50.9777 459.599 50.9289 459.697 50.8313C459.795 50.7337 459.853 50.6947 459.873 50.7142V35.5767Z" fill="white"/>
</g>
</g>
<g id="Group_51">
<path id="Vector_40" d="M472.683 38.7613C472.17 38.7613 471.761 38.5901 471.456 38.2477C471.152 37.9054 471 37.487 471 36.9925C471 35.6421 471.504 34.4725 472.512 33.4835C473.52 32.4945 474.775 32 476.278 32C478.009 32 479.454 32.5325 480.614 33.5976C481.774 34.6627 482.364 36.0415 482.383 37.7342C482.383 38.5521 482.193 39.3318 481.812 40.0736C481.432 40.8153 480.975 41.462 480.443 42.0135C479.91 42.5651 479.15 43.2688 478.161 44.1246C477.476 44.7142 476.525 45.5891 475.308 46.7492L473.625 48.3468L475.793 48.3754C478.779 48.3754 480.367 48.3278 480.557 48.2327C480.69 48.1947 480.918 47.3483 481.242 45.6937V45.6081H482.383V45.6937C482.364 45.7508 482.24 46.6161 482.012 48.2898C481.784 49.9635 481.641 50.8383 481.584 50.9144V51H471V50.458V50.1156C471 49.9825 471.057 49.8398 471.171 49.6877C471.285 49.5355 471.571 49.2027 472.027 48.6892C472.579 48.0806 473.054 47.548 473.453 47.0916C473.625 46.9014 473.948 46.5495 474.423 46.036C474.899 45.5225 475.222 45.1707 475.393 44.9805C475.565 44.7903 475.84 44.4765 476.221 44.039C476.601 43.6016 476.867 43.2783 477.02 43.0691C477.172 42.8599 477.39 42.5746 477.676 42.2132C477.961 41.8519 478.161 41.5475 478.275 41.3003C478.389 41.0531 478.532 40.7773 478.703 40.473C478.874 40.1687 478.997 39.8644 479.074 39.5601C479.15 39.2558 479.216 38.9705 479.273 38.7042C479.33 38.4379 479.359 38.1241 479.359 37.7628C479.359 36.5646 479.036 35.528 478.389 34.6532C477.742 33.7783 476.82 33.3408 475.622 33.3408C474.994 33.3408 474.442 33.5025 473.967 33.8258C473.491 34.1491 473.159 34.463 472.968 34.7673C472.778 35.0716 472.683 35.2523 472.683 35.3093C472.683 35.3283 472.731 35.3378 472.826 35.3378C473.168 35.3378 473.52 35.471 473.881 35.7372C474.243 36.0035 474.423 36.4409 474.423 37.0496C474.423 37.525 474.271 37.9244 473.967 38.2477C473.663 38.5711 473.235 38.7422 472.683 38.7613Z" fill="white"/>
</g>
<g id="Group_52">
<path id="Vector_41" d="M503.739 59.7886C503.739 59.7886 503.739 59.6091 503.739 59.2502C503.739 58.8913 503.932 58.6152 504.319 58.4219H528.38C528.794 58.6428 529.001 58.9189 529.001 59.2502C529.001 59.5815 528.794 59.8576 528.38 60.0785H504.319C503.932 59.8852 503.739 59.6091 503.739 59.2502V59.7886Z" fill="white"/>
</g>
<g id="Group_53">
<path id="Vector_42" d="M550.502 45.6668L549.964 45.8739C549.578 46.012 549.025 46.15 548.308 46.288C547.59 46.4261 546.789 46.5227 545.906 46.5779H545.119V44.6729H545.906C547.203 44.6177 548.404 44.4106 549.509 44.0517C550.613 43.6928 551.386 43.3615 551.828 43.0578C552.269 42.7541 552.656 42.4504 552.987 42.1467C553.042 42.0638 553.208 42.0224 553.484 42.0224C553.733 42.0224 553.967 42.1053 554.188 42.2709V54.6536L554.23 67.0778C554.423 67.271 554.589 67.3953 554.727 67.4505C554.865 67.5057 555.196 67.5609 555.721 67.6161C556.245 67.6714 557.101 67.699 558.288 67.699H559.365V69.604H558.909C558.33 69.5212 556.135 69.4798 552.325 69.4798C548.57 69.4798 546.402 69.5212 545.823 69.604H545.326V67.699H546.402C547.01 67.699 547.534 67.699 547.976 67.699C548.418 67.699 548.763 67.6852 549.012 67.6576C549.26 67.6299 549.481 67.5885 549.674 67.5333C549.867 67.4781 549.978 67.4505 550.005 67.4505C550.033 67.4505 550.116 67.3815 550.254 67.2434C550.392 67.1054 550.475 67.0502 550.502 67.0778V45.6668Z" fill="white"/>
</g>
<g id="Group_54">
<path id="Vector_43" d="M576.213 55.2332C576.213 54.8742 576.406 54.5981 576.793 54.4049H603.173C603.587 54.6258 603.794 54.9018 603.794 55.2332C603.794 55.5369 603.601 55.7991 603.215 56.02L590.045 56.0614H576.876C576.434 55.9234 576.213 55.6473 576.213 55.2332ZM576.213 63.2674C576.213 62.8533 576.434 62.5772 576.876 62.4392H603.215C603.601 62.7152 603.794 62.9913 603.794 63.2674C603.794 63.6263 603.587 63.9024 603.173 64.0957H576.793C576.406 63.9024 576.213 63.6263 576.213 63.2674Z" fill="white"/>
</g>
<g id="Group_55">
<path id="Vector_44" d="M636.75 69.604C636.253 69.5212 634.473 69.4798 631.408 69.4798C628.205 69.4798 626.356 69.5212 625.859 69.604H625.486V67.699H626.77C627.322 67.699 627.695 67.699 627.888 67.699C628.081 67.699 628.316 67.6714 628.592 67.6161C628.868 67.5609 629.061 67.4919 629.172 67.4091C629.282 67.3262 629.379 67.2158 629.462 67.0778C629.489 67.0225 629.503 66.2771 629.503 64.8414V62.7707H618.777V60.8657L625.03 51.2991C629.255 44.8938 631.394 41.6773 631.449 41.6497C631.505 41.5945 631.795 41.5669 632.319 41.5669H633.065L633.313 41.8154V60.8657H637.123V62.7707H633.313V64.8828C633.313 66.0148 633.313 66.6774 633.313 66.8707C633.313 67.064 633.396 67.2296 633.562 67.3677C633.782 67.5609 634.569 67.6714 635.922 67.699H637.123V69.604H636.75ZM629.752 60.8657V47.0335L620.682 60.8243L625.196 60.8657H629.752Z" fill="white"/>
<path id="Vector_45" d="M642.3 45.3767C643.846 43.1404 645.958 42.0222 648.636 42.0222C649.961 42.0222 651.286 42.3811 652.612 43.099C653.937 43.8168 655.014 45.0868 655.842 46.909C656.863 49.2006 657.374 52.348 657.374 56.3514C657.374 60.6308 656.781 63.9025 655.593 66.1664C655.041 67.326 654.282 68.2509 653.316 68.9412C652.349 69.6314 651.507 70.0593 650.789 70.225C650.072 70.3907 649.368 70.4873 648.677 70.5149C647.959 70.5149 647.242 70.4321 646.524 70.2664C645.806 70.1008 644.964 69.659 643.998 68.9412C643.031 68.2233 642.272 67.2984 641.72 66.1664C640.533 63.9025 639.939 60.6308 639.939 56.3514C639.939 51.5474 640.726 47.8892 642.3 45.3767ZM651.618 44.8798C650.789 43.9963 649.809 43.5545 648.677 43.5545C647.518 43.5545 646.524 43.9963 645.695 44.8798C645.005 45.5976 644.55 46.5915 644.329 47.8616C644.108 49.1316 643.998 51.7821 643.998 55.813C643.998 60.1753 644.108 63.0466 644.329 64.4271C644.55 65.8075 645.047 66.8981 645.82 67.6988C646.593 68.527 647.545 68.9412 648.677 68.9412C649.782 68.9412 650.72 68.527 651.493 67.6988C652.294 66.8705 652.791 65.7109 652.984 64.22C653.178 62.7291 653.288 59.9268 653.316 55.813C653.316 51.8097 653.205 49.173 652.984 47.903C652.763 46.6329 652.308 45.6252 651.618 44.8798Z" fill="white"/>
<path id="Vector_46" d="M673.608 57.718C672.283 59.8163 670.626 60.8655 668.639 60.8655C666.485 60.8655 664.718 60.051 663.338 58.4221C661.957 56.7931 661.129 55.0537 660.853 53.2039C660.798 52.7622 660.77 52.21 660.77 51.5474V51.2161C660.77 48.6484 661.723 46.4121 663.628 44.507C665.284 42.8505 667.106 42.0222 669.094 42.0222C669.149 42.0222 669.232 42.0222 669.343 42.0222C669.453 42.0222 669.564 42.036 669.674 42.0636H669.84C670.171 42.0636 670.516 42.0912 670.875 42.1465C671.234 42.2017 671.745 42.3673 672.407 42.6434C673.07 42.9195 673.719 43.3613 674.354 43.9687C674.989 44.5761 675.582 45.3905 676.135 46.4121C677.322 48.8417 677.915 51.9615 677.915 55.7716C677.915 59.6369 677.087 62.9086 675.43 65.5867C674.464 67.1328 673.305 68.3338 671.952 69.1897C670.599 70.0455 669.163 70.4873 667.645 70.5149C665.961 70.5149 664.58 70.1146 663.503 69.3139C662.427 68.5132 661.874 67.326 661.847 65.7523C661.819 64.1786 662.551 63.4055 664.042 63.4331C664.649 63.4331 665.16 63.6264 665.574 64.0129C665.988 64.3995 666.195 64.9378 666.195 65.6281C666.195 66.125 666.071 66.553 665.823 66.9119C665.574 67.2708 665.353 67.4917 665.16 67.5745C664.967 67.6573 664.787 67.7264 664.622 67.7816L664.456 67.823C664.456 67.8782 664.552 67.961 664.746 68.0715C664.939 68.1819 665.298 68.32 665.823 68.4856C666.347 68.6513 666.927 68.7203 667.562 68.6927H667.81C669.467 68.6927 670.861 67.8092 671.993 66.0422C673.07 64.4961 673.608 61.818 673.608 58.0079V57.718ZM669.136 59.3332C670.461 59.3332 671.524 58.6567 672.324 57.3039C673.125 55.951 673.539 54.115 673.567 51.7959C673.567 49.6423 673.456 48.0962 673.236 47.1575C673.18 46.8814 673.098 46.6053 672.987 46.3292C672.877 46.0532 672.683 45.6942 672.407 45.2525C672.131 44.8107 671.717 44.438 671.165 44.1343C670.613 43.8306 669.964 43.6926 669.218 43.7202C668.169 43.7202 667.272 44.0929 666.527 44.8383C665.947 45.4457 665.574 46.1636 665.408 46.9919C665.243 47.8201 665.146 49.2696 665.118 51.3403C665.118 53.6319 665.187 55.178 665.326 55.9787C665.464 56.7793 665.74 57.4281 666.154 57.9251C666.844 58.8638 667.838 59.3332 669.136 59.3332Z" fill="white"/>
<path id="Vector_47" d="M681.477 56.6413C681.477 52.141 682.595 48.5794 684.832 45.9565C687.068 43.3336 689.553 42.0222 692.286 42.0222C694.191 42.0222 695.558 42.5192 696.386 43.5131C697.214 44.507 697.629 45.6114 697.629 46.8262C697.629 47.5164 697.435 48.0686 697.049 48.4828C696.662 48.8969 696.124 49.104 695.434 49.104C694.799 49.104 694.274 48.9107 693.86 48.5242C693.446 48.1376 693.239 47.5993 693.239 46.909C693.239 45.6942 693.888 44.9626 695.185 44.7141C694.578 44.1067 693.722 43.7616 692.618 43.6788C690.657 43.6788 689.042 44.507 687.772 46.1636C686.474 47.9858 685.826 50.7743 685.826 54.5292L685.867 54.6948C686.005 54.5292 686.116 54.3497 686.198 54.1564C687.33 52.4999 688.807 51.6716 690.63 51.6716H690.795C692.065 51.6716 693.183 51.9339 694.15 52.4585C694.812 52.845 695.475 53.3972 696.138 54.115C696.8 54.8329 697.339 55.6197 697.753 56.4756C698.333 57.8285 698.623 59.3056 698.623 60.9069V61.6523C698.623 62.2874 698.553 62.881 698.415 63.4331C698.112 65.0621 697.228 66.6496 695.765 68.1957C694.302 69.7418 692.452 70.5149 690.216 70.5149C689.442 70.5149 688.697 70.4045 687.979 70.1836C687.261 69.9627 686.488 69.5486 685.66 68.9412C684.832 68.3338 684.128 67.5193 683.548 66.4978C682.968 65.4762 682.471 64.1372 682.057 62.4806C681.643 60.8241 681.45 58.8776 681.477 56.6413ZM690.381 53.1625C689.553 53.1625 688.835 53.3972 688.228 53.8666C687.62 54.3359 687.151 54.9571 686.82 55.7302C686.488 56.5032 686.254 57.2901 686.116 58.0908C685.977 58.8914 685.895 59.7473 685.867 60.6584C685.867 62.95 686.033 64.5927 686.364 65.5867C686.695 66.5806 687.22 67.3812 687.938 67.9887C688.6 68.4856 689.332 68.7341 690.133 68.7341C691.541 68.7341 692.618 68.2095 693.363 67.1604C693.722 66.6634 693.97 66.0422 694.108 65.2968C694.246 64.5513 694.315 63.1018 694.315 60.9483C694.315 58.7396 694.246 57.2625 694.108 56.517C693.97 55.7716 693.722 55.1504 693.363 54.6534C692.618 53.6595 691.624 53.1625 690.381 53.1625Z" fill="white"/>
</g>
<g id="Group_56">
<path id="Vector_48" d="M713.127 59.7886C713.127 59.7886 713.127 59.6091 713.127 59.2502C713.127 58.8913 713.32 58.6152 713.707 58.4219H737.768C738.182 58.6428 738.389 58.9189 738.389 59.2502C738.389 59.5815 738.182 59.8576 737.768 60.0785H713.707C713.32 59.8852 713.127 59.6091 713.127 59.2502V59.7886Z" fill="white"/>
</g>
<g id="Group_57">
<path id="Vector_49" d="M759.891 45.6668L759.352 45.8739C758.966 46.012 758.414 46.15 757.696 46.288C756.978 46.4261 756.177 46.5227 755.294 46.5779H754.507V44.6729H755.294C756.591 44.6177 757.792 44.4106 758.897 44.0517C760.001 43.6928 760.774 43.3615 761.216 43.0578C761.658 42.7541 762.044 42.4504 762.375 42.1467C762.431 42.0638 762.596 42.0224 762.872 42.0224C763.121 42.0224 763.356 42.1053 763.576 42.2709V54.6536L763.618 67.0778C763.811 67.271 763.977 67.3953 764.115 67.4505C764.253 67.5057 764.584 67.5609 765.109 67.6161C765.633 67.6714 766.489 67.699 767.676 67.699H768.753V69.604H768.298C767.718 69.5212 765.523 69.4798 761.713 69.4798C757.958 69.4798 755.791 69.5212 755.211 69.604H754.714V67.699H755.791C756.398 67.699 756.923 67.699 757.364 67.699C757.806 67.699 758.151 67.6852 758.4 67.6576C758.648 67.6299 758.869 67.5885 759.062 67.5333C759.256 67.4781 759.366 67.4505 759.394 67.4505C759.421 67.4505 759.504 67.3815 759.642 67.2434C759.78 67.1054 759.863 67.0502 759.891 67.0778V45.6668Z" fill="white"/>
</g>
<g id="Group 176">
<g id="Group_58">
<path id="Vector_50" d="M576 111.666C576 111.307 576.193 111.031 576.58 110.838H602.96C603.375 111.059 603.582 111.335 603.582 111.666C603.582 111.97 603.388 112.232 603.002 112.453L589.832 112.495H576.663C576.221 112.356 576 112.08 576 111.666ZM576 119.701C576 119.286 576.221 119.01 576.663 118.872H603.002C603.388 119.148 603.582 119.424 603.582 119.701C603.582 120.059 603.375 120.336 602.96 120.529H576.58C576.193 120.336 576 120.059 576 119.701Z" fill="white"/>
</g>
<g id="Group_59">
<path id="Vector_51" d="M636.538 126.037C636.041 125.954 634.26 125.913 631.195 125.913C627.993 125.913 626.143 125.954 625.646 126.037H625.273V124.132H626.557C627.109 124.132 627.482 124.132 627.675 124.132C627.868 124.132 628.103 124.104 628.379 124.049C628.655 123.994 628.848 123.925 628.959 123.842C629.069 123.759 629.166 123.649 629.249 123.511C629.276 123.456 629.29 122.71 629.29 121.275V119.204H618.564V117.299L624.817 107.732C629.042 101.327 631.181 98.1104 631.237 98.0828C631.292 98.0276 631.582 98 632.106 98H632.852L633.1 98.2485V117.299H636.91V119.204H633.1V121.316C633.1 122.448 633.1 123.111 633.1 123.304C633.1 123.497 633.183 123.663 633.349 123.801C633.57 123.994 634.356 124.104 635.709 124.132H636.91V126.037H636.538ZM629.539 117.299V103.467L620.469 117.257L624.983 117.299H629.539Z" fill="white"/>
<path id="Vector_52" d="M642.087 101.81C643.633 99.5735 645.745 98.4553 648.423 98.4553C649.748 98.4553 651.073 98.8142 652.399 99.5321C653.724 100.25 654.801 101.52 655.629 103.342C656.651 105.634 657.161 108.781 657.161 112.784C657.161 117.064 656.568 120.336 655.38 122.6C654.828 123.759 654.069 124.684 653.103 125.374C652.136 126.065 651.294 126.492 650.576 126.658C649.859 126.824 649.155 126.92 648.464 126.948C647.747 126.948 647.029 126.865 646.311 126.7C645.593 126.534 644.751 126.092 643.785 125.374C642.818 124.656 642.059 123.732 641.507 122.6C640.32 120.336 639.726 117.064 639.726 112.784C639.726 107.98 640.513 104.322 642.087 101.81ZM651.405 101.313C650.576 100.429 649.596 99.9876 648.464 99.9876C647.305 99.9876 646.311 100.429 645.483 101.313C644.792 102.031 644.337 103.025 644.116 104.295C643.895 105.565 643.785 108.215 643.785 112.246C643.785 116.608 643.895 119.48 644.116 120.86C644.337 122.241 644.834 123.331 645.607 124.132C646.38 124.96 647.332 125.374 648.464 125.374C649.569 125.374 650.507 124.96 651.281 124.132C652.081 123.304 652.578 122.144 652.771 120.653C652.965 119.162 653.075 116.36 653.103 112.246C653.103 108.243 652.992 105.606 652.771 104.336C652.551 103.066 652.095 102.058 651.405 101.313Z" fill="white"/>
<path id="Vector_53" d="M673.395 114.151C672.07 116.249 670.414 117.299 668.426 117.299C666.272 117.299 664.505 116.484 663.125 114.855C661.744 113.226 660.916 111.487 660.64 109.637C660.585 109.195 660.557 108.643 660.557 107.98V107.649C660.557 105.082 661.51 102.845 663.415 100.94C665.071 99.2836 666.893 98.4553 668.881 98.4553C668.937 98.4553 669.019 98.4553 669.13 98.4553C669.24 98.4553 669.351 98.4691 669.461 98.4967H669.627C669.958 98.4967 670.303 98.5243 670.662 98.5796C671.021 98.6348 671.532 98.8004 672.194 99.0765C672.857 99.3526 673.506 99.7944 674.141 100.402C674.776 101.009 675.369 101.824 675.922 102.845C677.109 105.275 677.702 108.395 677.702 112.205C677.702 116.07 676.874 119.342 675.218 122.02C674.251 123.566 673.092 124.767 671.739 125.623C670.386 126.479 668.95 126.92 667.432 126.948C665.748 126.948 664.367 126.548 663.29 125.747C662.214 124.946 661.661 123.759 661.634 122.185C661.606 120.612 662.338 119.839 663.829 119.866C664.436 119.866 664.947 120.06 665.361 120.446C665.775 120.833 665.982 121.371 665.982 122.061C665.982 122.558 665.858 122.986 665.61 123.345C665.361 123.704 665.14 123.925 664.947 124.008C664.754 124.09 664.574 124.159 664.409 124.215L664.243 124.256C664.243 124.311 664.34 124.394 664.533 124.505C664.726 124.615 665.085 124.753 665.61 124.919C666.134 125.084 666.714 125.153 667.349 125.126H667.597C669.254 125.126 670.648 124.242 671.78 122.475C672.857 120.929 673.395 118.251 673.395 114.441V114.151ZM668.923 115.766C670.248 115.766 671.311 115.09 672.112 113.737C672.912 112.384 673.326 110.548 673.354 108.229C673.354 106.075 673.244 104.529 673.023 103.591C672.967 103.315 672.885 103.038 672.774 102.762C672.664 102.486 672.47 102.127 672.194 101.686C671.918 101.244 671.504 100.871 670.952 100.567C670.4 100.264 669.751 100.126 669.006 100.153C667.956 100.153 667.059 100.526 666.314 101.271C665.734 101.879 665.361 102.597 665.195 103.425C665.03 104.253 664.933 105.703 664.906 107.773C664.906 110.065 664.975 111.611 665.113 112.412C665.251 113.212 665.527 113.861 665.941 114.358C666.631 115.297 667.625 115.766 668.923 115.766Z" fill="white"/>
<path id="Vector_54" d="M686.317 119.535C686.317 120.198 686.096 120.75 685.654 121.191C685.213 121.633 684.674 121.854 684.039 121.854H683.749C685.019 124.035 686.703 125.126 688.802 125.126C690.734 125.126 692.142 124.298 693.026 122.641C693.55 121.73 693.813 119.963 693.813 117.34C693.813 114.496 693.44 112.577 692.695 111.583C691.977 110.672 691.176 110.217 690.293 110.217H690.044C687.891 110.217 686.262 111.156 685.157 113.033C685.047 113.226 684.95 113.337 684.867 113.364C684.785 113.392 684.577 113.419 684.246 113.447C683.777 113.447 683.515 113.364 683.459 113.199C683.404 113.088 683.376 110.672 683.376 105.951V100.609C683.376 99.2284 683.446 98.5381 683.584 98.5381C683.639 98.4829 683.694 98.4553 683.749 98.4553C683.777 98.4553 684.067 98.5658 684.619 98.7866C685.171 99.0075 685.93 99.2284 686.897 99.4492C687.863 99.6701 688.898 99.7806 690.003 99.7806C691.963 99.7806 693.84 99.394 695.635 98.621C695.856 98.5105 696.035 98.4553 696.173 98.4553C696.394 98.4553 696.505 98.7038 696.505 99.2008V99.7391C694.241 102.417 691.411 103.756 688.015 103.756C687.159 103.756 686.386 103.673 685.696 103.508L685.282 103.425V110.548C685.806 110.162 686.22 109.858 686.524 109.637C686.828 109.416 687.325 109.195 688.015 108.974C688.705 108.754 689.409 108.643 690.127 108.643C692.363 108.643 694.255 109.54 695.801 111.335C697.347 113.13 698.12 115.256 698.12 117.713C698.12 120.253 697.236 122.42 695.469 124.215C693.702 126.009 691.549 126.92 689.009 126.948C686.772 126.948 684.978 126.203 683.625 124.712C682.272 123.221 681.596 121.537 681.596 119.659C681.596 118.997 681.748 118.472 682.051 118.085C682.355 117.699 682.672 117.45 683.004 117.34C683.335 117.23 683.653 117.174 683.956 117.174C684.647 117.174 685.213 117.409 685.654 117.878C686.096 118.348 686.317 118.9 686.317 119.535Z" fill="white"/>
</g>
</g>
</g>
<g id="Group 174">
<g id="Group_60">
<path id="Vector_55" d="M429.312 173.016C429.312 172.298 429.561 171.705 430.057 171.235C430.554 170.766 431.148 170.531 431.838 170.531C432.501 170.531 433.067 170.766 433.536 171.235C434.006 171.705 434.254 172.298 434.282 173.016C434.309 173.734 434.075 174.327 433.578 174.797C433.081 175.266 432.487 175.501 431.797 175.501C431.079 175.501 430.485 175.266 430.016 174.797C429.547 174.327 429.312 173.734 429.312 173.016ZM421.485 188.463C422.203 188.463 422.782 188.698 423.224 189.167C423.666 189.637 423.901 190.23 423.928 190.948C423.928 191.611 423.707 192.191 423.266 192.688C422.824 193.185 422.216 193.433 421.443 193.433C420.726 193.433 420.146 193.198 419.704 192.729C419.262 192.26 419.028 191.666 419 190.948C419 190.23 419.235 189.637 419.704 189.167C420.173 188.698 420.767 188.463 421.485 188.463ZM439.707 190.948C439.707 190.23 439.942 189.637 440.411 189.167C440.88 188.698 441.474 188.463 442.192 188.463C442.854 188.463 443.42 188.698 443.89 189.167C444.359 189.637 444.608 190.23 444.635 190.948C444.635 191.583 444.414 192.149 443.973 192.646C443.531 193.143 442.923 193.405 442.15 193.433C441.432 193.433 440.853 193.198 440.411 192.729C439.969 192.26 439.734 191.666 439.707 190.948Z" fill="white"/>
</g>
<g id="Group_61">
<path id="Vector_56" d="M499.272 190.037C498.775 189.954 496.995 189.913 493.93 189.913C490.727 189.913 488.878 189.954 488.381 190.037H488.008V188.132H489.292C489.844 188.132 490.217 188.132 490.41 188.132C490.603 188.132 490.838 188.104 491.114 188.049C491.39 187.994 491.583 187.925 491.694 187.842C491.804 187.759 491.901 187.649 491.984 187.511C492.011 187.456 492.025 186.71 492.025 185.275V183.204H481.299V181.299L487.552 171.732C491.777 165.327 493.916 162.11 493.971 162.083C494.027 162.028 494.317 162 494.841 162H495.587L495.835 162.248V181.299H499.645V183.204H495.835V185.316C495.835 186.448 495.835 187.111 495.835 187.304C495.835 187.497 495.918 187.663 496.084 187.801C496.304 187.994 497.091 188.104 498.444 188.132H499.645V190.037H499.272ZM492.273 181.299V167.467L483.204 181.257L487.718 181.299H492.273Z" fill="white"/>
</g>
<g id="Group_62">
<path id="Vector_57" d="M512.371 180.222C512.371 180.222 512.371 180.043 512.371 179.684C512.371 179.325 512.564 179.049 512.951 178.855H525.334V172.643L525.375 166.431C525.651 166.072 525.913 165.893 526.162 165.893C526.521 165.893 526.797 166.1 526.99 166.514V178.855H539.331C539.746 179.076 539.953 179.352 539.953 179.684C539.953 180.015 539.746 180.291 539.331 180.512H526.99V192.853C526.769 193.24 526.521 193.433 526.245 193.433H526.162H526.079C525.748 193.433 525.499 193.24 525.334 192.853V180.512H512.951C512.564 180.319 512.371 180.043 512.371 179.684V180.222Z" fill="white"/>
</g>
<g id="Group_63">
<path id="Vector_58" d="M566.052 178.151C564.726 180.249 563.07 181.299 561.082 181.299C558.928 181.299 557.161 180.484 555.781 178.855C554.401 177.226 553.572 175.487 553.296 173.637C553.241 173.195 553.213 172.643 553.213 171.98V171.649C553.213 169.082 554.166 166.845 556.071 164.94C557.727 163.284 559.55 162.455 561.538 162.455C561.593 162.455 561.676 162.455 561.786 162.455C561.896 162.455 562.007 162.469 562.117 162.497H562.283C562.614 162.497 562.959 162.524 563.318 162.58C563.677 162.635 564.188 162.8 564.851 163.077C565.513 163.353 566.162 163.794 566.797 164.402C567.432 165.009 568.026 165.824 568.578 166.845C569.765 169.275 570.359 172.395 570.359 176.205C570.359 180.07 569.53 183.342 567.874 186.02C566.908 187.566 565.748 188.767 564.395 189.623C563.042 190.479 561.607 190.92 560.088 190.948C558.404 190.948 557.023 190.548 555.947 189.747C554.87 188.946 554.318 187.759 554.29 186.185C554.263 184.612 554.994 183.839 556.485 183.866C557.092 183.866 557.603 184.06 558.017 184.446C558.432 184.833 558.639 185.371 558.639 186.061C558.639 186.558 558.514 186.986 558.266 187.345C558.017 187.704 557.797 187.925 557.603 188.008C557.41 188.09 557.231 188.159 557.065 188.215L556.899 188.256C556.899 188.311 556.996 188.394 557.189 188.505C557.382 188.615 557.741 188.753 558.266 188.919C558.79 189.084 559.37 189.153 560.005 189.126H560.254C561.91 189.126 563.305 188.242 564.437 186.475C565.513 184.929 566.052 182.251 566.052 178.441V178.151ZM561.579 179.766C562.904 179.766 563.967 179.09 564.768 177.737C565.568 176.384 565.983 174.548 566.01 172.229C566.01 170.075 565.9 168.529 565.679 167.591C565.624 167.315 565.541 167.038 565.43 166.762C565.32 166.486 565.127 166.127 564.851 165.686C564.575 165.244 564.16 164.871 563.608 164.567C563.056 164.264 562.407 164.126 561.662 164.153C560.613 164.153 559.715 164.526 558.97 165.271C558.39 165.879 558.017 166.597 557.852 167.425C557.686 168.253 557.589 169.703 557.562 171.773C557.562 174.065 557.631 175.611 557.769 176.412C557.907 177.212 558.183 177.861 558.597 178.358C559.287 179.297 560.281 179.766 561.579 179.766Z" fill="white"/>
</g>
<g id="Group_64">
<path id="Vector_59" d="M583.703 180.222C583.703 180.222 583.703 180.043 583.703 179.684C583.703 179.325 583.896 179.049 584.282 178.855H596.665V172.643L596.707 166.431C596.983 166.072 597.245 165.893 597.493 165.893C597.852 165.893 598.128 166.1 598.322 166.514V178.855H610.663C611.077 179.076 611.284 179.352 611.284 179.684C611.284 180.015 611.077 180.291 610.663 180.512H598.322V192.853C598.101 193.24 597.852 193.433 597.576 193.433H597.493H597.411C597.079 193.433 596.831 193.24 596.665 192.853V180.512H584.282C583.896 180.319 583.703 180.043 583.703 179.684V180.222Z" fill="white"/>
</g>
<g id="Group_65">
<path id="Vector_60" d="M629.598 183.535C629.598 184.198 629.377 184.75 628.935 185.191C628.493 185.633 627.955 185.854 627.32 185.854H627.03C628.3 188.035 629.984 189.126 632.082 189.126C634.015 189.126 635.423 188.298 636.307 186.641C636.831 185.73 637.094 183.963 637.094 181.34C637.094 178.496 636.721 176.577 635.975 175.583C635.258 174.672 634.457 174.217 633.573 174.217H633.325C631.171 174.217 629.542 175.156 628.438 177.033C628.328 177.226 628.231 177.337 628.148 177.364C628.065 177.392 627.858 177.419 627.527 177.447C627.058 177.447 626.795 177.364 626.74 177.199C626.685 177.088 626.657 174.672 626.657 169.951V164.609C626.657 163.228 626.726 162.538 626.864 162.538C626.92 162.483 626.975 162.455 627.03 162.455C627.058 162.455 627.347 162.566 627.9 162.787C628.452 163.007 629.211 163.228 630.177 163.449C631.144 163.67 632.179 163.781 633.283 163.781C635.244 163.781 637.121 163.394 638.916 162.621C639.137 162.511 639.316 162.455 639.454 162.455C639.675 162.455 639.785 162.704 639.785 163.201V163.739C637.521 166.417 634.692 167.756 631.296 167.756C630.44 167.756 629.667 167.673 628.976 167.508L628.562 167.425V174.548C629.087 174.162 629.501 173.858 629.805 173.637C630.108 173.416 630.605 173.195 631.296 172.974C631.986 172.754 632.69 172.643 633.408 172.643C635.644 172.643 637.535 173.54 639.081 175.335C640.628 177.13 641.401 179.256 641.401 181.713C641.401 184.253 640.517 186.42 638.75 188.215C636.983 190.009 634.83 190.92 632.29 190.948C630.053 190.948 628.259 190.203 626.906 188.712C625.553 187.221 624.876 185.537 624.876 183.659C624.876 182.997 625.028 182.472 625.332 182.085C625.636 181.699 625.953 181.45 626.285 181.34C626.616 181.23 626.933 181.174 627.237 181.174C627.927 181.174 628.493 181.409 628.935 181.878C629.377 182.348 629.598 182.9 629.598 183.535Z" fill="white"/>
</g>
<g id="Group_66">
<path id="Vector_61" d="M657.337 175.666C657.337 175.307 657.531 175.031 657.917 174.838H684.298C684.712 175.059 684.919 175.335 684.919 175.666C684.919 175.97 684.726 176.232 684.339 176.453L671.17 176.495H658C657.558 176.356 657.337 176.08 657.337 175.666ZM657.337 183.701C657.337 183.286 657.558 183.01 658 182.872H684.339C684.726 183.148 684.919 183.424 684.919 183.701C684.919 184.059 684.712 184.336 684.298 184.529H657.917C657.531 184.336 657.337 184.059 657.337 183.701Z" fill="white"/>
</g>
<g id="Group_67">
<path id="Vector_62" d="M707.563 166.1L707.024 166.307C706.638 166.445 706.085 166.583 705.368 166.721C704.65 166.859 703.849 166.956 702.966 167.011H702.179V165.106H702.966C704.263 165.051 705.464 164.844 706.569 164.485C707.673 164.126 708.446 163.795 708.888 163.491C709.329 163.187 709.716 162.883 710.047 162.58C710.103 162.497 710.268 162.456 710.544 162.456C710.793 162.456 711.027 162.538 711.248 162.704V175.087L711.29 187.511C711.483 187.704 711.649 187.828 711.787 187.884C711.925 187.939 712.256 187.994 712.781 188.049C713.305 188.104 714.161 188.132 715.348 188.132H716.425V190.037H715.97C715.39 189.954 713.195 189.913 709.385 189.913C705.63 189.913 703.463 189.954 702.883 190.037H702.386V188.132H703.463C704.07 188.132 704.595 188.132 705.036 188.132C705.478 188.132 705.823 188.118 706.072 188.091C706.32 188.063 706.541 188.022 706.734 187.966C706.927 187.911 707.038 187.884 707.066 187.884C707.093 187.884 707.176 187.815 707.314 187.677C707.452 187.538 707.535 187.483 707.563 187.511V166.1Z" fill="white"/>
<path id="Vector_63" d="M722.348 172.767C722.348 172.767 722.348 171.704 722.348 169.578C722.348 167.453 723.093 165.741 724.584 164.443C726.075 163.146 727.787 162.483 729.719 162.455C731.68 162.455 733.419 163.035 734.937 164.195C736.456 165.354 737.215 166.859 737.215 168.709C737.215 169.537 737.063 170.31 736.76 171.028C736.456 171.746 736.097 172.326 735.683 172.767C735.269 173.209 734.841 173.596 734.399 173.927C733.957 174.258 733.598 174.507 733.322 174.672C733.046 174.838 732.894 174.948 732.867 175.004L733.447 175.376C733.833 175.653 734.22 175.929 734.606 176.205C734.993 176.481 735.214 176.633 735.269 176.66C737.339 178.289 738.375 180.346 738.375 182.831C738.375 185.012 737.574 186.903 735.973 188.505C734.371 190.106 732.301 190.92 729.761 190.948C727.276 190.948 725.233 190.244 723.631 188.836C722.03 187.428 721.229 185.688 721.229 183.618C721.229 180.636 723.01 178.151 726.572 176.163L725.826 175.625C725.247 175.266 724.874 174.99 724.708 174.797C723.135 173.444 722.348 171.704 722.348 169.578V172.767ZM731.293 174.051L731.542 173.886C731.707 173.775 731.831 173.692 731.914 173.637C731.997 173.582 732.135 173.485 732.328 173.347C732.522 173.209 732.687 173.071 732.825 172.933C732.963 172.795 733.115 172.629 733.281 172.436C733.447 172.243 733.598 172.063 733.736 171.898C733.874 171.732 734.013 171.511 734.151 171.235C734.289 170.959 734.413 170.724 734.523 170.531C734.634 170.338 734.703 170.062 734.73 169.703C734.758 169.344 734.786 169.04 734.813 168.792C734.813 167.604 734.413 166.597 733.612 165.768C732.812 164.94 731.887 164.416 730.837 164.195C730.644 164.167 730.189 164.153 729.471 164.153C728.339 164.153 727.276 164.512 726.282 165.23C725.288 165.948 724.777 166.845 724.75 167.922C724.75 168.557 724.929 169.137 725.288 169.661C725.647 170.186 726.006 170.586 726.365 170.862C726.724 171.138 727.414 171.58 728.435 172.188C728.629 172.326 728.781 172.422 728.891 172.477L731.293 174.051ZM729.802 189.167C731.403 189.167 732.784 188.698 733.944 187.759C735.103 186.82 735.683 185.688 735.683 184.363C735.683 183.894 735.614 183.452 735.476 183.038C735.338 182.624 735.172 182.279 734.979 182.003C734.786 181.727 734.482 181.423 734.068 181.092C733.654 180.76 733.336 180.512 733.115 180.346C732.894 180.18 732.494 179.918 731.914 179.559C731.334 179.2 730.962 178.966 730.796 178.855C730.41 178.607 729.995 178.344 729.554 178.068C729.112 177.792 728.753 177.558 728.477 177.364L728.146 177.157C727.98 177.157 727.58 177.392 726.945 177.861C726.31 178.331 725.647 179.09 724.957 180.139C724.267 181.188 723.908 182.32 723.88 183.535C723.88 185.164 724.474 186.503 725.661 187.552C726.848 188.601 728.228 189.14 729.802 189.167Z" fill="white"/>
</g>
</g>
</g>
</g>
</g>
</svg>
