<svg viewBox="0 0 982 697" fill="none" xmlns="http://www.w3.org/2000/svg">
<g id="0127124">
<g id="enunciado">
<g id="Group 71">
<path id="Rectangle 1" d="M37 54.1722C37 25.7736 59.5821 2.75195 87.4386 2.75195H957V358.58C957 386.979 934.418 410 906.561 410H37V54.1722Z" fill="#02071A"/>
<path id="Rectangle 1 (Stroke)" fill-rule="evenodd" clip-rule="evenodd" d="M951.956 7.85154H87.4386C62.3678 7.85154 42.0439 28.5732 42.0439 54.1346V404.857H906.561C931.632 404.857 951.956 384.135 951.956 358.574V7.85154ZM87.4386 2.70898C59.5821 2.70898 37 25.733 37 54.1346V410H906.561C934.418 410 957 386.976 957 358.574V2.70898H87.4386Z" fill="#CD08D1"/>
<path id="Rectangle 14" d="M91.6251 2.84419C118.602 -3.55524 957 2.84419 957 2.84419V30.5486C957 30.5486 77.351 20.3658 46.0791 30.5486C55.8095 15.8546 64.6481 9.24361 91.6251 2.84419Z" fill="#CD08D1"/>
<path id="Rectangle 15" d="M925.076 8.80518H955.066V359.639C951.385 383.447 943.755 392.198 925.076 403.62C930.574 384.915 925.076 8.80518 925.076 8.80518Z" fill="#CD08D1"/>
</g>
<g id="Del siguiente desarrollo de un hexaedro regular seleccione la alternativa correspondiente">
<path d="M53.9707 75V49.4062H61.1953C63.4219 49.4062 65.3906 49.8984 67.1016 50.8828C68.8125 51.8672 70.1309 53.2676 71.0566 55.084C71.9941 56.9004 72.4688 58.9863 72.4805 61.3418V62.9766C72.4805 65.3906 72.0117 67.5059 71.0742 69.3223C70.1484 71.1387 68.8184 72.5332 67.084 73.5059C65.3613 74.4785 63.3516 74.9766 61.0547 75H53.9707ZM57.3457 52.1836V72.2402H60.8965C63.498 72.2402 65.5195 71.4316 66.9609 69.8145C68.4141 68.1973 69.1406 65.8945 69.1406 62.9062V61.4121C69.1406 58.5059 68.4551 56.25 67.084 54.6445C65.7246 53.0273 63.791 52.207 61.2832 52.1836H57.3457Z" fill="white"/>
<path d="M84.9785 75.3516C82.4004 75.3516 80.3027 74.5078 78.6855 72.8203C77.0684 71.1211 76.2598 68.8535 76.2598 66.0176V65.4199C76.2598 63.5332 76.6172 61.8516 77.332 60.375C78.0586 58.8867 79.0664 57.7266 80.3555 56.8945C81.6562 56.0508 83.0625 55.6289 84.5742 55.6289C87.0469 55.6289 88.9688 56.4434 90.3398 58.0723C91.7109 59.7012 92.3965 62.0332 92.3965 65.0684V66.4219H79.5117C79.5586 68.2969 80.1035 69.8145 81.1465 70.9746C82.2012 72.123 83.5371 72.6973 85.1543 72.6973C86.3027 72.6973 87.2754 72.4629 88.0723 71.9941C88.8691 71.5254 89.5664 70.9043 90.1641 70.1309L92.1504 71.6777C90.5566 74.127 88.166 75.3516 84.9785 75.3516ZM84.5742 58.3008C83.2617 58.3008 82.1602 58.7812 81.2695 59.7422C80.3789 60.6914 79.8281 62.0273 79.6172 63.75H89.1445V63.5039C89.0508 61.8516 88.6055 60.5742 87.8086 59.6719C87.0117 58.7578 85.9336 58.3008 84.5742 58.3008Z" fill="white"/>
<path d="M99.709 75H96.457V48H99.709V75Z" fill="white"/>
<path d="M124.934 69.9551C124.934 69.0762 124.6 68.3965 123.932 67.916C123.275 67.4238 122.121 67.002 120.469 66.6504C118.828 66.2988 117.521 65.877 116.549 65.3848C115.588 64.8926 114.873 64.3066 114.404 63.627C113.947 62.9473 113.719 62.1387 113.719 61.2012C113.719 59.6426 114.375 58.3242 115.688 57.2461C117.012 56.168 118.699 55.6289 120.75 55.6289C122.906 55.6289 124.652 56.1855 125.988 57.2988C127.336 58.4121 128.01 59.8359 128.01 61.5703H124.74C124.74 60.6797 124.359 59.9121 123.598 59.2676C122.848 58.623 121.898 58.3008 120.75 58.3008C119.566 58.3008 118.641 58.5586 117.973 59.0742C117.305 59.5898 116.971 60.2637 116.971 61.0957C116.971 61.8809 117.281 62.4727 117.902 62.8711C118.523 63.2695 119.643 63.6504 121.26 64.0137C122.889 64.377 124.207 64.8105 125.215 65.3145C126.223 65.8184 126.967 66.4277 127.447 67.1426C127.939 67.8457 128.186 68.707 128.186 69.7266C128.186 71.4258 127.506 72.791 126.146 73.8223C124.787 74.8418 123.023 75.3516 120.855 75.3516C119.332 75.3516 117.984 75.082 116.812 74.543C115.641 74.0039 114.721 73.2539 114.053 72.293C113.396 71.3203 113.068 70.2715 113.068 69.1465H116.32C116.379 70.2363 116.812 71.1035 117.621 71.748C118.441 72.3809 119.52 72.6973 120.855 72.6973C122.086 72.6973 123.07 72.4512 123.809 71.959C124.559 71.4551 124.934 70.7871 124.934 69.9551Z" fill="white"/>
<path d="M135.955 75H132.703V55.9805H135.955V75ZM132.439 50.9355C132.439 50.4082 132.598 49.9629 132.914 49.5996C133.242 49.2363 133.723 49.0547 134.355 49.0547C134.988 49.0547 135.469 49.2363 135.797 49.5996C136.125 49.9629 136.289 50.4082 136.289 50.9355C136.289 51.4629 136.125 51.9023 135.797 52.2539C135.469 52.6055 134.988 52.7812 134.355 52.7812C133.723 52.7812 133.242 52.6055 132.914 52.2539C132.598 51.9023 132.439 51.4629 132.439 50.9355Z" fill="white"/>
<path d="M140.402 65.332C140.402 62.3672 141.088 60.0117 142.459 58.2656C143.83 56.5078 145.646 55.6289 147.908 55.6289C150.229 55.6289 152.039 56.4492 153.34 58.0898L153.498 55.9805H156.469V74.543C156.469 77.0039 155.736 78.9434 154.271 80.3613C152.818 81.7793 150.861 82.4883 148.4 82.4883C147.029 82.4883 145.688 82.1953 144.375 81.6094C143.062 81.0234 142.061 80.2207 141.369 79.2012L143.057 77.25C144.451 78.9727 146.156 79.834 148.172 79.834C149.754 79.834 150.984 79.3887 151.863 78.498C152.754 77.6074 153.199 76.3535 153.199 74.7363V73.1016C151.898 74.6016 150.123 75.3516 147.873 75.3516C145.646 75.3516 143.842 74.4551 142.459 72.6621C141.088 70.8691 140.402 68.4258 140.402 65.332ZM143.672 65.7012C143.672 67.8457 144.111 69.5332 144.99 70.7637C145.869 71.9824 147.1 72.5918 148.682 72.5918C150.732 72.5918 152.238 71.6602 153.199 69.7969V61.1133C152.203 59.2969 150.709 58.3887 148.717 58.3887C147.135 58.3887 145.898 59.0039 145.008 60.2344C144.117 61.4648 143.672 63.2871 143.672 65.7012Z" fill="white"/>
<path d="M173.133 73.1191C171.867 74.6074 170.01 75.3516 167.561 75.3516C165.533 75.3516 163.986 74.7656 162.92 73.5938C161.865 72.4102 161.332 70.6641 161.32 68.3555V55.9805H164.572V68.2676C164.572 71.1504 165.744 72.5918 168.088 72.5918C170.572 72.5918 172.225 71.666 173.045 69.8145V55.9805H176.297V75H173.203L173.133 73.1191Z" fill="white"/>
<path d="M184.787 75H181.535V55.9805H184.787V75ZM181.271 50.9355C181.271 50.4082 181.43 49.9629 181.746 49.5996C182.074 49.2363 182.555 49.0547 183.188 49.0547C183.82 49.0547 184.301 49.2363 184.629 49.5996C184.957 49.9629 185.121 50.4082 185.121 50.9355C185.121 51.4629 184.957 51.9023 184.629 52.2539C184.301 52.6055 183.82 52.7812 183.188 52.7812C182.555 52.7812 182.074 52.6055 181.746 52.2539C181.43 51.9023 181.271 51.4629 181.271 50.9355Z" fill="white"/>
<path d="M197.9 75.3516C195.322 75.3516 193.225 74.5078 191.607 72.8203C189.99 71.1211 189.182 68.8535 189.182 66.0176V65.4199C189.182 63.5332 189.539 61.8516 190.254 60.375C190.98 58.8867 191.988 57.7266 193.277 56.8945C194.578 56.0508 195.984 55.6289 197.496 55.6289C199.969 55.6289 201.891 56.4434 203.262 58.0723C204.633 59.7012 205.318 62.0332 205.318 65.0684V66.4219H192.434C192.48 68.2969 193.025 69.8145 194.068 70.9746C195.123 72.123 196.459 72.6973 198.076 72.6973C199.225 72.6973 200.197 72.4629 200.994 71.9941C201.791 71.5254 202.488 70.9043 203.086 70.1309L205.072 71.6777C203.479 74.127 201.088 75.3516 197.9 75.3516ZM197.496 58.3008C196.184 58.3008 195.082 58.7812 194.191 59.7422C193.301 60.6914 192.75 62.0273 192.539 63.75H202.066V63.5039C201.973 61.8516 201.527 60.5742 200.73 59.6719C199.934 58.7578 198.855 58.3008 197.496 58.3008Z" fill="white"/>
<path d="M212.174 55.9805L212.279 58.3711C213.732 56.543 215.631 55.6289 217.975 55.6289C221.994 55.6289 224.021 57.8965 224.057 62.4316V75H220.805V62.4141C220.793 61.043 220.477 60.0293 219.855 59.373C219.246 58.7168 218.291 58.3887 216.99 58.3887C215.936 58.3887 215.01 58.6699 214.213 59.2324C213.416 59.7949 212.795 60.5332 212.35 61.4473V75H209.098V55.9805H212.174Z" fill="white"/>
<path d="M233.373 51.375V55.9805H236.924V58.4941H233.373V70.2891C233.373 71.0508 233.531 71.625 233.848 72.0117C234.164 72.3867 234.703 72.5742 235.465 72.5742C235.84 72.5742 236.355 72.5039 237.012 72.3633V75C236.156 75.2344 235.324 75.3516 234.516 75.3516C233.062 75.3516 231.967 74.9121 231.229 74.0332C230.49 73.1543 230.121 71.9062 230.121 70.2891V58.4941H226.658V55.9805H230.121V51.375H233.373Z" fill="white"/>
<path d="M248.631 75.3516C246.053 75.3516 243.955 74.5078 242.338 72.8203C240.721 71.1211 239.912 68.8535 239.912 66.0176V65.4199C239.912 63.5332 240.27 61.8516 240.984 60.375C241.711 58.8867 242.719 57.7266 244.008 56.8945C245.309 56.0508 246.715 55.6289 248.227 55.6289C250.699 55.6289 252.621 56.4434 253.992 58.0723C255.363 59.7012 256.049 62.0332 256.049 65.0684V66.4219H243.164C243.211 68.2969 243.756 69.8145 244.799 70.9746C245.854 72.123 247.189 72.6973 248.807 72.6973C249.955 72.6973 250.928 72.4629 251.725 71.9941C252.521 71.5254 253.219 70.9043 253.816 70.1309L255.803 71.6777C254.209 74.127 251.818 75.3516 248.631 75.3516ZM248.227 58.3008C246.914 58.3008 245.812 58.7812 244.922 59.7422C244.031 60.6914 243.48 62.0273 243.27 63.75H252.797V63.5039C252.703 61.8516 252.258 60.5742 251.461 59.6719C250.664 58.7578 249.586 58.3008 248.227 58.3008Z" fill="white"/>
<path d="M267.967 65.332C267.967 62.4141 268.658 60.0703 270.041 58.3008C271.424 56.5195 273.234 55.6289 275.473 55.6289C277.699 55.6289 279.463 56.3906 280.764 57.9141V48H284.016V75H281.027L280.869 72.9609C279.568 74.5547 277.758 75.3516 275.438 75.3516C273.234 75.3516 271.436 74.4492 270.041 72.6445C268.658 70.8398 267.967 68.4844 267.967 65.5781V65.332ZM271.219 65.7012C271.219 67.8574 271.664 69.5449 272.555 70.7637C273.445 71.9824 274.676 72.5918 276.246 72.5918C278.309 72.5918 279.814 71.666 280.764 69.8145V61.0781C279.791 59.2852 278.297 58.3887 276.281 58.3887C274.688 58.3887 273.445 59.0039 272.555 60.2344C271.664 61.4648 271.219 63.2871 271.219 65.7012Z" fill="white"/>
<path d="M296.971 75.3516C294.393 75.3516 292.295 74.5078 290.678 72.8203C289.061 71.1211 288.252 68.8535 288.252 66.0176V65.4199C288.252 63.5332 288.609 61.8516 289.324 60.375C290.051 58.8867 291.059 57.7266 292.348 56.8945C293.648 56.0508 295.055 55.6289 296.566 55.6289C299.039 55.6289 300.961 56.4434 302.332 58.0723C303.703 59.7012 304.389 62.0332 304.389 65.0684V66.4219H291.504C291.551 68.2969 292.096 69.8145 293.139 70.9746C294.193 72.123 295.529 72.6973 297.146 72.6973C298.295 72.6973 299.268 72.4629 300.064 71.9941C300.861 71.5254 301.559 70.9043 302.156 70.1309L304.143 71.6777C302.549 74.127 300.158 75.3516 296.971 75.3516ZM296.566 58.3008C295.254 58.3008 294.152 58.7812 293.262 59.7422C292.371 60.6914 291.82 62.0273 291.609 63.75H301.137V63.5039C301.043 61.8516 300.598 60.5742 299.801 59.6719C299.004 58.7578 297.926 58.3008 296.566 58.3008Z" fill="white"/>
<path d="M319.242 69.9551C319.242 69.0762 318.908 68.3965 318.24 67.916C317.584 67.4238 316.43 67.002 314.777 66.6504C313.137 66.2988 311.83 65.877 310.857 65.3848C309.896 64.8926 309.182 64.3066 308.713 63.627C308.256 62.9473 308.027 62.1387 308.027 61.2012C308.027 59.6426 308.684 58.3242 309.996 57.2461C311.32 56.168 313.008 55.6289 315.059 55.6289C317.215 55.6289 318.961 56.1855 320.297 57.2988C321.645 58.4121 322.318 59.8359 322.318 61.5703H319.049C319.049 60.6797 318.668 59.9121 317.906 59.2676C317.156 58.623 316.207 58.3008 315.059 58.3008C313.875 58.3008 312.949 58.5586 312.281 59.0742C311.613 59.5898 311.279 60.2637 311.279 61.0957C311.279 61.8809 311.59 62.4727 312.211 62.8711C312.832 63.2695 313.951 63.6504 315.568 64.0137C317.197 64.377 318.516 64.8105 319.523 65.3145C320.531 65.8184 321.275 66.4277 321.756 67.1426C322.248 67.8457 322.494 68.707 322.494 69.7266C322.494 71.4258 321.814 72.791 320.455 73.8223C319.096 74.8418 317.332 75.3516 315.164 75.3516C313.641 75.3516 312.293 75.082 311.121 74.543C309.949 74.0039 309.029 73.2539 308.361 72.293C307.705 71.3203 307.377 70.2715 307.377 69.1465H310.629C310.688 70.2363 311.121 71.1035 311.93 71.748C312.75 72.3809 313.828 72.6973 315.164 72.6973C316.395 72.6973 317.379 72.4512 318.117 71.959C318.867 71.4551 319.242 70.7871 319.242 69.9551Z" fill="white"/>
<path d="M338.473 75C338.285 74.625 338.133 73.957 338.016 72.9961C336.504 74.5664 334.699 75.3516 332.602 75.3516C330.727 75.3516 329.186 74.8242 327.979 73.7695C326.783 72.7031 326.186 71.3555 326.186 69.7266C326.186 67.7461 326.936 66.2109 328.436 65.1211C329.947 64.0195 332.068 63.4688 334.799 63.4688H337.963V61.9746C337.963 60.8379 337.623 59.9355 336.943 59.2676C336.264 58.5879 335.262 58.248 333.938 58.248C332.777 58.248 331.805 58.541 331.02 59.127C330.234 59.7129 329.842 60.4219 329.842 61.2539H326.572C326.572 60.3047 326.906 59.3906 327.574 58.5117C328.254 57.6211 329.168 56.918 330.316 56.4023C331.477 55.8867 332.748 55.6289 334.131 55.6289C336.322 55.6289 338.039 56.1797 339.281 57.2812C340.523 58.3711 341.168 59.877 341.215 61.7988V70.5527C341.215 72.2988 341.438 73.6875 341.883 74.7188V75H338.473ZM333.076 72.5215C334.096 72.5215 335.062 72.2578 335.977 71.7305C336.891 71.2031 337.553 70.5176 337.963 69.6738V65.7715H335.414C331.43 65.7715 329.438 66.9375 329.438 69.2695C329.438 70.2891 329.777 71.0859 330.457 71.6602C331.137 72.2344 332.01 72.5215 333.076 72.5215Z" fill="white"/>
<path d="M355.506 58.8984C355.014 58.8164 354.48 58.7754 353.906 58.7754C351.773 58.7754 350.326 59.6836 349.564 61.5V75H346.312V55.9805H349.477L349.529 58.1777C350.596 56.4785 352.107 55.6289 354.064 55.6289C354.697 55.6289 355.178 55.7109 355.506 55.875V58.8984Z" fill="white"/>
<path d="M367.705 58.8984C367.213 58.8164 366.68 58.7754 366.105 58.7754C363.973 58.7754 362.525 59.6836 361.764 61.5V75H358.512V55.9805H361.676L361.729 58.1777C362.795 56.4785 364.307 55.6289 366.264 55.6289C366.896 55.6289 367.377 55.7109 367.705 55.875V58.8984Z" fill="white"/>
<path d="M369.498 65.3145C369.498 63.4512 369.861 61.7754 370.588 60.2871C371.326 58.7988 372.346 57.6504 373.646 56.8418C374.959 56.0332 376.453 55.6289 378.129 55.6289C380.719 55.6289 382.811 56.5254 384.404 58.3184C386.01 60.1113 386.812 62.4961 386.812 65.4727V65.7012C386.812 67.5527 386.455 69.2168 385.74 70.6934C385.037 72.1582 384.023 73.3008 382.699 74.1211C381.387 74.9414 379.875 75.3516 378.164 75.3516C375.586 75.3516 373.494 74.4551 371.889 72.6621C370.295 70.8691 369.498 68.4961 369.498 65.543V65.3145ZM372.768 65.7012C372.768 67.8105 373.254 69.5039 374.227 70.7812C375.211 72.0586 376.523 72.6973 378.164 72.6973C379.816 72.6973 381.129 72.0527 382.102 70.7637C383.074 69.4629 383.561 67.6465 383.561 65.3145C383.561 63.2285 383.062 61.541 382.066 60.252C381.082 58.9512 379.77 58.3008 378.129 58.3008C376.523 58.3008 375.229 58.9395 374.244 60.2168C373.26 61.4941 372.768 63.3223 372.768 65.7012Z" fill="white"/>
<path d="M394.424 75H391.172V48H394.424V75Z" fill="white"/>
<path d="M403.178 75H399.926V48H403.178V75Z" fill="white"/>
<path d="M407.537 65.3145C407.537 63.4512 407.9 61.7754 408.627 60.2871C409.365 58.7988 410.385 57.6504 411.686 56.8418C412.998 56.0332 414.492 55.6289 416.168 55.6289C418.758 55.6289 420.85 56.5254 422.443 58.3184C424.049 60.1113 424.852 62.4961 424.852 65.4727V65.7012C424.852 67.5527 424.494 69.2168 423.779 70.6934C423.076 72.1582 422.062 73.3008 420.738 74.1211C419.426 74.9414 417.914 75.3516 416.203 75.3516C413.625 75.3516 411.533 74.4551 409.928 72.6621C408.334 70.8691 407.537 68.4961 407.537 65.543V65.3145ZM410.807 65.7012C410.807 67.8105 411.293 69.5039 412.266 70.7812C413.25 72.0586 414.562 72.6973 416.203 72.6973C417.855 72.6973 419.168 72.0527 420.141 70.7637C421.113 69.4629 421.6 67.6465 421.6 65.3145C421.6 63.2285 421.102 61.541 420.105 60.252C419.121 58.9512 417.809 58.3008 416.168 58.3008C414.562 58.3008 413.268 58.9395 412.283 60.2168C411.299 61.4941 410.807 63.3223 410.807 65.7012Z" fill="white"/>
<path d="M437.068 65.332C437.068 62.4141 437.76 60.0703 439.143 58.3008C440.525 56.5195 442.336 55.6289 444.574 55.6289C446.801 55.6289 448.564 56.3906 449.865 57.9141V48H453.117V75H450.129L449.971 72.9609C448.67 74.5547 446.859 75.3516 444.539 75.3516C442.336 75.3516 440.537 74.4492 439.143 72.6445C437.76 70.8398 437.068 68.4844 437.068 65.5781V65.332ZM440.32 65.7012C440.32 67.8574 440.766 69.5449 441.656 70.7637C442.547 71.9824 443.777 72.5918 445.348 72.5918C447.41 72.5918 448.916 71.666 449.865 69.8145V61.0781C448.893 59.2852 447.398 58.3887 445.383 58.3887C443.789 58.3887 442.547 59.0039 441.656 60.2344C440.766 61.4648 440.32 63.2871 440.32 65.7012Z" fill="white"/>
<path d="M466.072 75.3516C463.494 75.3516 461.396 74.5078 459.779 72.8203C458.162 71.1211 457.354 68.8535 457.354 66.0176V65.4199C457.354 63.5332 457.711 61.8516 458.426 60.375C459.152 58.8867 460.16 57.7266 461.449 56.8945C462.75 56.0508 464.156 55.6289 465.668 55.6289C468.141 55.6289 470.062 56.4434 471.434 58.0723C472.805 59.7012 473.49 62.0332 473.49 65.0684V66.4219H460.605C460.652 68.2969 461.197 69.8145 462.24 70.9746C463.295 72.123 464.631 72.6973 466.248 72.6973C467.396 72.6973 468.369 72.4629 469.166 71.9941C469.963 71.5254 470.66 70.9043 471.258 70.1309L473.244 71.6777C471.65 74.127 469.26 75.3516 466.072 75.3516ZM465.668 58.3008C464.355 58.3008 463.254 58.7812 462.363 59.7422C461.473 60.6914 460.922 62.0273 460.711 63.75H470.238V63.5039C470.145 61.8516 469.699 60.5742 468.902 59.6719C468.105 58.7578 467.027 58.3008 465.668 58.3008Z" fill="white"/>
<path d="M497.941 73.1191C496.676 74.6074 494.818 75.3516 492.369 75.3516C490.342 75.3516 488.795 74.7656 487.729 73.5938C486.674 72.4102 486.141 70.6641 486.129 68.3555V55.9805H489.381V68.2676C489.381 71.1504 490.553 72.5918 492.896 72.5918C495.381 72.5918 497.033 71.666 497.854 69.8145V55.9805H501.105V75H498.012L497.941 73.1191Z" fill="white"/>
<path d="M509.139 55.9805L509.244 58.3711C510.697 56.543 512.596 55.6289 514.939 55.6289C518.959 55.6289 520.986 57.8965 521.021 62.4316V75H517.77V62.4141C517.758 61.043 517.441 60.0293 516.82 59.373C516.211 58.7168 515.256 58.3887 513.955 58.3887C512.9 58.3887 511.975 58.6699 511.178 59.2324C510.381 59.7949 509.76 60.5332 509.314 61.4473V75H506.062V55.9805H509.139Z" fill="white"/>
<path d="M538.107 58.2832C539.549 56.5137 541.424 55.6289 543.732 55.6289C547.752 55.6289 549.779 57.8965 549.814 62.4316V75H546.562V62.4141C546.551 61.043 546.234 60.0293 545.613 59.373C545.004 58.7168 544.049 58.3887 542.748 58.3887C541.693 58.3887 540.768 58.6699 539.971 59.2324C539.174 59.7949 538.553 60.5332 538.107 61.4473V75H534.855V48H538.107V58.2832Z" fill="white"/>
<path d="M562.576 75.3516C559.998 75.3516 557.9 74.5078 556.283 72.8203C554.666 71.1211 553.857 68.8535 553.857 66.0176V65.4199C553.857 63.5332 554.215 61.8516 554.93 60.375C555.656 58.8867 556.664 57.7266 557.953 56.8945C559.254 56.0508 560.66 55.6289 562.172 55.6289C564.645 55.6289 566.566 56.4434 567.938 58.0723C569.309 59.7012 569.994 62.0332 569.994 65.0684V66.4219H557.109C557.156 68.2969 557.701 69.8145 558.744 70.9746C559.799 72.123 561.135 72.6973 562.752 72.6973C563.9 72.6973 564.873 72.4629 565.67 71.9941C566.467 71.5254 567.164 70.9043 567.762 70.1309L569.748 71.6777C568.154 74.127 565.764 75.3516 562.576 75.3516ZM562.172 58.3008C560.859 58.3008 559.758 58.7812 558.867 59.7422C557.977 60.6914 557.426 62.0273 557.215 63.75H566.742V63.5039C566.648 61.8516 566.203 60.5742 565.406 59.6719C564.609 58.7578 563.531 58.3008 562.172 58.3008Z" fill="white"/>
<path d="M580.154 62.9238L584.373 55.9805H588.17L581.947 65.3848L588.363 75H584.602L580.207 67.8809L575.812 75H572.033L578.449 65.3848L572.227 55.9805H575.988L580.154 62.9238Z" fill="white"/>
<path d="M603.375 75C603.188 74.625 603.035 73.957 602.918 72.9961C601.406 74.5664 599.602 75.3516 597.504 75.3516C595.629 75.3516 594.088 74.8242 592.881 73.7695C591.686 72.7031 591.088 71.3555 591.088 69.7266C591.088 67.7461 591.838 66.2109 593.338 65.1211C594.85 64.0195 596.971 63.4688 599.701 63.4688H602.865V61.9746C602.865 60.8379 602.525 59.9355 601.846 59.2676C601.166 58.5879 600.164 58.248 598.84 58.248C597.68 58.248 596.707 58.541 595.922 59.127C595.137 59.7129 594.744 60.4219 594.744 61.2539H591.475C591.475 60.3047 591.809 59.3906 592.477 58.5117C593.156 57.6211 594.07 56.918 595.219 56.4023C596.379 55.8867 597.65 55.6289 599.033 55.6289C601.225 55.6289 602.941 56.1797 604.184 57.2812C605.426 58.3711 606.07 59.877 606.117 61.7988V70.5527C606.117 72.2988 606.34 73.6875 606.785 74.7188V75H603.375ZM597.979 72.5215C598.998 72.5215 599.965 72.2578 600.879 71.7305C601.793 71.2031 602.455 70.5176 602.865 69.6738V65.7715H600.316C596.332 65.7715 594.34 66.9375 594.34 69.2695C594.34 70.2891 594.68 71.0859 595.359 71.6602C596.039 72.2344 596.912 72.5215 597.979 72.5215Z" fill="white"/>
<path d="M619.107 75.3516C616.529 75.3516 614.432 74.5078 612.814 72.8203C611.197 71.1211 610.389 68.8535 610.389 66.0176V65.4199C610.389 63.5332 610.746 61.8516 611.461 60.375C612.188 58.8867 613.195 57.7266 614.484 56.8945C615.785 56.0508 617.191 55.6289 618.703 55.6289C621.176 55.6289 623.098 56.4434 624.469 58.0723C625.84 59.7012 626.525 62.0332 626.525 65.0684V66.4219H613.641C613.688 68.2969 614.232 69.8145 615.275 70.9746C616.33 72.123 617.666 72.6973 619.283 72.6973C620.432 72.6973 621.404 72.4629 622.201 71.9941C622.998 71.5254 623.695 70.9043 624.293 70.1309L626.279 71.6777C624.686 74.127 622.295 75.3516 619.107 75.3516ZM618.703 58.3008C617.391 58.3008 616.289 58.7812 615.398 59.7422C614.508 60.6914 613.957 62.0273 613.746 63.75H623.273V63.5039C623.18 61.8516 622.734 60.5742 621.938 59.6719C621.141 58.7578 620.062 58.3008 618.703 58.3008Z" fill="white"/>
<path d="M629.514 65.332C629.514 62.4141 630.205 60.0703 631.588 58.3008C632.971 56.5195 634.781 55.6289 637.02 55.6289C639.246 55.6289 641.01 56.3906 642.311 57.9141V48H645.562V75H642.574L642.416 72.9609C641.115 74.5547 639.305 75.3516 636.984 75.3516C634.781 75.3516 632.982 74.4492 631.588 72.6445C630.205 70.8398 629.514 68.4844 629.514 65.5781V65.332ZM632.766 65.7012C632.766 67.8574 633.211 69.5449 634.102 70.7637C634.992 71.9824 636.223 72.5918 637.793 72.5918C639.855 72.5918 641.361 71.666 642.311 69.8145V61.0781C641.338 59.2852 639.844 58.3887 637.828 58.3887C636.234 58.3887 634.992 59.0039 634.102 60.2344C633.211 61.4648 632.766 63.2871 632.766 65.7012Z" fill="white"/>
<path d="M659.818 58.8984C659.326 58.8164 658.793 58.7754 658.219 58.7754C656.086 58.7754 654.639 59.6836 653.877 61.5V75H650.625V55.9805H653.789L653.842 58.1777C654.908 56.4785 656.42 55.6289 658.377 55.6289C659.01 55.6289 659.49 55.7109 659.818 55.875V58.8984Z" fill="white"/>
<path d="M661.611 65.3145C661.611 63.4512 661.975 61.7754 662.701 60.2871C663.439 58.7988 664.459 57.6504 665.76 56.8418C667.072 56.0332 668.566 55.6289 670.242 55.6289C672.832 55.6289 674.924 56.5254 676.518 58.3184C678.123 60.1113 678.926 62.4961 678.926 65.4727V65.7012C678.926 67.5527 678.568 69.2168 677.854 70.6934C677.15 72.1582 676.137 73.3008 674.812 74.1211C673.5 74.9414 671.988 75.3516 670.277 75.3516C667.699 75.3516 665.607 74.4551 664.002 72.6621C662.408 70.8691 661.611 68.4961 661.611 65.543V65.3145ZM664.881 65.7012C664.881 67.8105 665.367 69.5039 666.34 70.7812C667.324 72.0586 668.637 72.6973 670.277 72.6973C671.93 72.6973 673.242 72.0527 674.215 70.7637C675.188 69.4629 675.674 67.6465 675.674 65.3145C675.674 63.2285 675.176 61.541 674.18 60.252C673.195 58.9512 671.883 58.3008 670.242 58.3008C668.637 58.3008 667.342 58.9395 666.357 60.2168C665.373 61.4941 664.881 63.3223 664.881 65.7012Z" fill="white"/>
<path d="M701.127 58.8984C700.635 58.8164 700.102 58.7754 699.527 58.7754C697.395 58.7754 695.947 59.6836 695.186 61.5V75H691.934V55.9805H695.098L695.15 58.1777C696.217 56.4785 697.729 55.6289 699.686 55.6289C700.318 55.6289 700.799 55.7109 701.127 55.875V58.8984Z" fill="white"/>
<path d="M711.674 75.3516C709.096 75.3516 706.998 74.5078 705.381 72.8203C703.764 71.1211 702.955 68.8535 702.955 66.0176V65.4199C702.955 63.5332 703.312 61.8516 704.027 60.375C704.754 58.8867 705.762 57.7266 707.051 56.8945C708.352 56.0508 709.758 55.6289 711.27 55.6289C713.742 55.6289 715.664 56.4434 717.035 58.0723C718.406 59.7012 719.092 62.0332 719.092 65.0684V66.4219H706.207C706.254 68.2969 706.799 69.8145 707.842 70.9746C708.896 72.123 710.232 72.6973 711.85 72.6973C712.998 72.6973 713.971 72.4629 714.768 71.9941C715.564 71.5254 716.262 70.9043 716.859 70.1309L718.846 71.6777C717.252 74.127 714.861 75.3516 711.674 75.3516ZM711.27 58.3008C709.957 58.3008 708.855 58.7812 707.965 59.7422C707.074 60.6914 706.523 62.0273 706.312 63.75H715.84V63.5039C715.746 61.8516 715.301 60.5742 714.504 59.6719C713.707 58.7578 712.629 58.3008 711.27 58.3008Z" fill="white"/>
<path d="M722.098 65.332C722.098 62.3672 722.783 60.0117 724.154 58.2656C725.525 56.5078 727.342 55.6289 729.604 55.6289C731.924 55.6289 733.734 56.4492 735.035 58.0898L735.193 55.9805H738.164V74.543C738.164 77.0039 737.432 78.9434 735.967 80.3613C734.514 81.7793 732.557 82.4883 730.096 82.4883C728.725 82.4883 727.383 82.1953 726.07 81.6094C724.758 81.0234 723.756 80.2207 723.064 79.2012L724.752 77.25C726.146 78.9727 727.852 79.834 729.867 79.834C731.449 79.834 732.68 79.3887 733.559 78.498C734.449 77.6074 734.895 76.3535 734.895 74.7363V73.1016C733.594 74.6016 731.818 75.3516 729.568 75.3516C727.342 75.3516 725.537 74.4551 724.154 72.6621C722.783 70.8691 722.098 68.4258 722.098 65.332ZM725.367 65.7012C725.367 67.8457 725.807 69.5332 726.686 70.7637C727.564 71.9824 728.795 72.5918 730.377 72.5918C732.428 72.5918 733.934 71.6602 734.895 69.7969V61.1133C733.898 59.2969 732.404 58.3887 730.412 58.3887C728.83 58.3887 727.594 59.0039 726.703 60.2344C725.812 61.4648 725.367 63.2871 725.367 65.7012Z" fill="white"/>
<path d="M754.828 73.1191C753.562 74.6074 751.705 75.3516 749.256 75.3516C747.229 75.3516 745.682 74.7656 744.615 73.5938C743.561 72.4102 743.027 70.6641 743.016 68.3555V55.9805H746.268V68.2676C746.268 71.1504 747.439 72.5918 749.783 72.5918C752.268 72.5918 753.92 71.666 754.74 69.8145V55.9805H757.992V75H754.898L754.828 73.1191Z" fill="white"/>
<path d="M766.482 75H763.23V48H766.482V75Z" fill="white"/>
<path d="M783.445 75C783.258 74.625 783.105 73.957 782.988 72.9961C781.477 74.5664 779.672 75.3516 777.574 75.3516C775.699 75.3516 774.158 74.8242 772.951 73.7695C771.756 72.7031 771.158 71.3555 771.158 69.7266C771.158 67.7461 771.908 66.2109 773.408 65.1211C774.92 64.0195 777.041 63.4688 779.771 63.4688H782.936V61.9746C782.936 60.8379 782.596 59.9355 781.916 59.2676C781.236 58.5879 780.234 58.248 778.91 58.248C777.75 58.248 776.777 58.541 775.992 59.127C775.207 59.7129 774.814 60.4219 774.814 61.2539H771.545C771.545 60.3047 771.879 59.3906 772.547 58.5117C773.227 57.6211 774.141 56.918 775.289 56.4023C776.449 55.8867 777.721 55.6289 779.104 55.6289C781.295 55.6289 783.012 56.1797 784.254 57.2812C785.496 58.3711 786.141 59.877 786.188 61.7988V70.5527C786.188 72.2988 786.41 73.6875 786.855 74.7188V75H783.445ZM778.049 72.5215C779.068 72.5215 780.035 72.2578 780.949 71.7305C781.863 71.2031 782.525 70.5176 782.936 69.6738V65.7715H780.387C776.402 65.7715 774.41 66.9375 774.41 69.2695C774.41 70.2891 774.75 71.0859 775.43 71.6602C776.109 72.2344 776.982 72.5215 778.049 72.5215Z" fill="white"/>
<path d="M800.479 58.8984C799.986 58.8164 799.453 58.7754 798.879 58.7754C796.746 58.7754 795.299 59.6836 794.537 61.5V75H791.285V55.9805H794.449L794.502 58.1777C795.568 56.4785 797.08 55.6289 799.037 55.6289C799.67 55.6289 800.15 55.7109 800.479 55.875V58.8984Z" fill="white"/>
<path d="M64.5352 111.955C64.5352 111.076 64.2012 110.396 63.5332 109.916C62.877 109.424 61.7227 109.002 60.0703 108.65C58.4297 108.299 57.123 107.877 56.1504 107.385C55.1895 106.893 54.4746 106.307 54.0059 105.627C53.5488 104.947 53.3203 104.139 53.3203 103.201C53.3203 101.643 53.9766 100.324 55.2891 99.2461C56.6133 98.168 58.3008 97.6289 60.3516 97.6289C62.5078 97.6289 64.2539 98.1855 65.5898 99.2988C66.9375 100.412 67.6113 101.836 67.6113 103.57H64.3418C64.3418 102.68 63.9609 101.912 63.1992 101.268C62.4492 100.623 61.5 100.301 60.3516 100.301C59.168 100.301 58.2422 100.559 57.5742 101.074C56.9062 101.59 56.5723 102.264 56.5723 103.096C56.5723 103.881 56.8828 104.473 57.5039 104.871C58.125 105.27 59.2441 105.65 60.8613 106.014C62.4902 106.377 63.8086 106.811 64.8164 107.314C65.8242 107.818 66.5684 108.428 67.0488 109.143C67.541 109.846 67.7871 110.707 67.7871 111.727C67.7871 113.426 67.1074 114.791 65.748 115.822C64.3887 116.842 62.625 117.352 60.457 117.352C58.9336 117.352 57.5859 117.082 56.4141 116.543C55.2422 116.004 54.3223 115.254 53.6543 114.293C52.998 113.32 52.6699 112.271 52.6699 111.146H55.9219C55.9805 112.236 56.4141 113.104 57.2227 113.748C58.043 114.381 59.1211 114.697 60.457 114.697C61.6875 114.697 62.6719 114.451 63.4102 113.959C64.1602 113.455 64.5352 112.787 64.5352 111.955Z" fill="white"/>
<path d="M79.916 117.352C77.3379 117.352 75.2402 116.508 73.623 114.82C72.0059 113.121 71.1973 110.854 71.1973 108.018V107.42C71.1973 105.533 71.5547 103.852 72.2695 102.375C72.9961 100.887 74.0039 99.7266 75.293 98.8945C76.5938 98.0508 78 97.6289 79.5117 97.6289C81.9844 97.6289 83.9062 98.4434 85.2773 100.072C86.6484 101.701 87.334 104.033 87.334 107.068V108.422H74.4492C74.4961 110.297 75.041 111.814 76.084 112.975C77.1387 114.123 78.4746 114.697 80.0918 114.697C81.2402 114.697 82.2129 114.463 83.0098 113.994C83.8066 113.525 84.5039 112.904 85.1016 112.131L87.0879 113.678C85.4941 116.127 83.1035 117.352 79.916 117.352ZM79.5117 100.301C78.1992 100.301 77.0977 100.781 76.207 101.742C75.3164 102.691 74.7656 104.027 74.5547 105.75H84.082V105.504C83.9883 103.852 83.543 102.574 82.7461 101.672C81.9492 100.758 80.8711 100.301 79.5117 100.301Z" fill="white"/>
<path d="M94.6465 117H91.3945V90H94.6465V117Z" fill="white"/>
<path d="M107.76 117.352C105.182 117.352 103.084 116.508 101.467 114.82C99.8496 113.121 99.041 110.854 99.041 108.018V107.42C99.041 105.533 99.3984 103.852 100.113 102.375C100.84 100.887 101.848 99.7266 103.137 98.8945C104.438 98.0508 105.844 97.6289 107.355 97.6289C109.828 97.6289 111.75 98.4434 113.121 100.072C114.492 101.701 115.178 104.033 115.178 107.068V108.422H102.293C102.34 110.297 102.885 111.814 103.928 112.975C104.982 114.123 106.318 114.697 107.936 114.697C109.084 114.697 110.057 114.463 110.854 113.994C111.65 113.525 112.348 112.904 112.945 112.131L114.932 113.678C113.338 116.127 110.947 117.352 107.76 117.352ZM107.355 100.301C106.043 100.301 104.941 100.781 104.051 101.742C103.16 102.691 102.609 104.027 102.398 105.75H111.926V105.504C111.832 103.852 111.387 102.574 110.59 101.672C109.793 100.758 108.715 100.301 107.355 100.301Z" fill="white"/>
<path d="M126.586 114.697C127.746 114.697 128.76 114.346 129.627 113.643C130.494 112.939 130.975 112.061 131.068 111.006H134.145C134.086 112.096 133.711 113.133 133.02 114.117C132.328 115.102 131.402 115.887 130.242 116.473C129.094 117.059 127.875 117.352 126.586 117.352C123.996 117.352 121.934 116.49 120.398 114.768C118.875 113.033 118.113 110.666 118.113 107.666V107.121C118.113 105.27 118.453 103.623 119.133 102.182C119.812 100.74 120.785 99.6211 122.051 98.8242C123.328 98.0273 124.834 97.6289 126.568 97.6289C128.701 97.6289 130.471 98.2676 131.877 99.5449C133.295 100.822 134.051 102.48 134.145 104.52H131.068C130.975 103.289 130.506 102.281 129.662 101.496C128.83 100.699 127.799 100.301 126.568 100.301C124.916 100.301 123.633 100.898 122.719 102.094C121.816 103.277 121.365 104.994 121.365 107.244V107.859C121.365 110.051 121.816 111.738 122.719 112.922C123.621 114.105 124.91 114.697 126.586 114.697Z" fill="white"/>
<path d="M145.43 114.697C146.59 114.697 147.604 114.346 148.471 113.643C149.338 112.939 149.818 112.061 149.912 111.006H152.988C152.93 112.096 152.555 113.133 151.863 114.117C151.172 115.102 150.246 115.887 149.086 116.473C147.938 117.059 146.719 117.352 145.43 117.352C142.84 117.352 140.777 116.49 139.242 114.768C137.719 113.033 136.957 110.666 136.957 107.666V107.121C136.957 105.27 137.297 103.623 137.977 102.182C138.656 100.74 139.629 99.6211 140.895 98.8242C142.172 98.0273 143.678 97.6289 145.412 97.6289C147.545 97.6289 149.314 98.2676 150.721 99.5449C152.139 100.822 152.895 102.48 152.988 104.52H149.912C149.818 103.289 149.35 102.281 148.506 101.496C147.674 100.699 146.643 100.301 145.412 100.301C143.76 100.301 142.477 100.898 141.562 102.094C140.66 103.277 140.209 104.994 140.209 107.244V107.859C140.209 110.051 140.66 111.738 141.562 112.922C142.465 114.105 143.754 114.697 145.43 114.697Z" fill="white"/>
<path d="M160.178 117H156.926V97.9805H160.178V117ZM156.662 92.9355C156.662 92.4082 156.82 91.9629 157.137 91.5996C157.465 91.2363 157.945 91.0547 158.578 91.0547C159.211 91.0547 159.691 91.2363 160.02 91.5996C160.348 91.9629 160.512 92.4082 160.512 92.9355C160.512 93.4629 160.348 93.9023 160.02 94.2539C159.691 94.6055 159.211 94.7812 158.578 94.7812C157.945 94.7812 157.465 94.6055 157.137 94.2539C156.82 93.9023 156.662 93.4629 156.662 92.9355Z" fill="white"/>
<path d="M164.537 107.314C164.537 105.451 164.9 103.775 165.627 102.287C166.365 100.799 167.385 99.6504 168.686 98.8418C169.998 98.0332 171.492 97.6289 173.168 97.6289C175.758 97.6289 177.85 98.5254 179.443 100.318C181.049 102.111 181.852 104.496 181.852 107.473V107.701C181.852 109.553 181.494 111.217 180.779 112.693C180.076 114.158 179.062 115.301 177.738 116.121C176.426 116.941 174.914 117.352 173.203 117.352C170.625 117.352 168.533 116.455 166.928 114.662C165.334 112.869 164.537 110.496 164.537 107.543V107.314ZM167.807 107.701C167.807 109.811 168.293 111.504 169.266 112.781C170.25 114.059 171.562 114.697 173.203 114.697C174.855 114.697 176.168 114.053 177.141 112.764C178.113 111.463 178.6 109.646 178.6 107.314C178.6 105.229 178.102 103.541 177.105 102.252C176.121 100.951 174.809 100.301 173.168 100.301C171.562 100.301 170.268 100.939 169.283 102.217C168.299 103.494 167.807 105.322 167.807 107.701Z" fill="white"/>
<path d="M189.006 97.9805L189.111 100.371C190.564 98.543 192.463 97.6289 194.807 97.6289C198.826 97.6289 200.854 99.8965 200.889 104.432V117H197.637V104.414C197.625 103.043 197.309 102.029 196.688 101.373C196.078 100.717 195.123 100.389 193.822 100.389C192.768 100.389 191.842 100.67 191.045 101.232C190.248 101.795 189.627 102.533 189.182 103.447V117H185.93V97.9805H189.006Z" fill="white"/>
<path d="M213.686 117.352C211.107 117.352 209.01 116.508 207.393 114.82C205.775 113.121 204.967 110.854 204.967 108.018V107.42C204.967 105.533 205.324 103.852 206.039 102.375C206.766 100.887 207.773 99.7266 209.062 98.8945C210.363 98.0508 211.77 97.6289 213.281 97.6289C215.754 97.6289 217.676 98.4434 219.047 100.072C220.418 101.701 221.104 104.033 221.104 107.068V108.422H208.219C208.266 110.297 208.811 111.814 209.854 112.975C210.908 114.123 212.244 114.697 213.861 114.697C215.01 114.697 215.982 114.463 216.779 113.994C217.576 113.525 218.273 112.904 218.871 112.131L220.857 113.678C219.264 116.127 216.873 117.352 213.686 117.352ZM213.281 100.301C211.969 100.301 210.867 100.781 209.977 101.742C209.086 102.691 208.535 104.027 208.324 105.75H217.852V105.504C217.758 103.852 217.312 102.574 216.516 101.672C215.719 100.758 214.641 100.301 213.281 100.301Z" fill="white"/>
<path d="M237.346 117H234.094V90H237.346V117Z" fill="white"/>
<path d="M254.309 117C254.121 116.625 253.969 115.957 253.852 114.996C252.34 116.566 250.535 117.352 248.438 117.352C246.562 117.352 245.021 116.824 243.814 115.77C242.619 114.703 242.021 113.355 242.021 111.727C242.021 109.746 242.771 108.211 244.271 107.121C245.783 106.02 247.904 105.469 250.635 105.469H253.799V103.975C253.799 102.838 253.459 101.936 252.779 101.268C252.1 100.588 251.098 100.248 249.773 100.248C248.613 100.248 247.641 100.541 246.855 101.127C246.07 101.713 245.678 102.422 245.678 103.254H242.408C242.408 102.305 242.742 101.391 243.41 100.512C244.09 99.6211 245.004 98.918 246.152 98.4023C247.312 97.8867 248.584 97.6289 249.967 97.6289C252.158 97.6289 253.875 98.1797 255.117 99.2812C256.359 100.371 257.004 101.877 257.051 103.799V112.553C257.051 114.299 257.273 115.688 257.719 116.719V117H254.309ZM248.912 114.521C249.932 114.521 250.898 114.258 251.812 113.73C252.727 113.203 253.389 112.518 253.799 111.674V107.771H251.25C247.266 107.771 245.273 108.938 245.273 111.27C245.273 112.289 245.613 113.086 246.293 113.66C246.973 114.234 247.846 114.521 248.912 114.521Z" fill="white"/>
<path d="M282.82 117C282.633 116.625 282.48 115.957 282.363 114.996C280.852 116.566 279.047 117.352 276.949 117.352C275.074 117.352 273.533 116.824 272.326 115.77C271.131 114.703 270.533 113.355 270.533 111.727C270.533 109.746 271.283 108.211 272.783 107.121C274.295 106.02 276.416 105.469 279.146 105.469H282.311V103.975C282.311 102.838 281.971 101.936 281.291 101.268C280.611 100.588 279.609 100.248 278.285 100.248C277.125 100.248 276.152 100.541 275.367 101.127C274.582 101.713 274.189 102.422 274.189 103.254H270.92C270.92 102.305 271.254 101.391 271.922 100.512C272.602 99.6211 273.516 98.918 274.664 98.4023C275.824 97.8867 277.096 97.6289 278.479 97.6289C280.67 97.6289 282.387 98.1797 283.629 99.2812C284.871 100.371 285.516 101.877 285.562 103.799V112.553C285.562 114.299 285.785 115.688 286.23 116.719V117H282.82ZM277.424 114.521C278.443 114.521 279.41 114.258 280.324 113.73C281.238 113.203 281.9 112.518 282.311 111.674V107.771H279.762C275.777 107.771 273.785 108.938 273.785 111.27C273.785 112.289 274.125 113.086 274.805 113.66C275.484 114.234 276.357 114.521 277.424 114.521Z" fill="white"/>
<path d="M294.193 117H290.941V90H294.193V117Z" fill="white"/>
<path d="M303.826 93.375V97.9805H307.377V100.494H303.826V112.289C303.826 113.051 303.984 113.625 304.301 114.012C304.617 114.387 305.156 114.574 305.918 114.574C306.293 114.574 306.809 114.504 307.465 114.363V117C306.609 117.234 305.777 117.352 304.969 117.352C303.516 117.352 302.42 116.912 301.682 116.033C300.943 115.154 300.574 113.906 300.574 112.289V100.494H297.111V97.9805H300.574V93.375H303.826Z" fill="white"/>
<path d="M319.084 117.352C316.506 117.352 314.408 116.508 312.791 114.82C311.174 113.121 310.365 110.854 310.365 108.018V107.42C310.365 105.533 310.723 103.852 311.438 102.375C312.164 100.887 313.172 99.7266 314.461 98.8945C315.762 98.0508 317.168 97.6289 318.68 97.6289C321.152 97.6289 323.074 98.4434 324.445 100.072C325.816 101.701 326.502 104.033 326.502 107.068V108.422H313.617C313.664 110.297 314.209 111.814 315.252 112.975C316.307 114.123 317.643 114.697 319.26 114.697C320.408 114.697 321.381 114.463 322.178 113.994C322.975 113.525 323.672 112.904 324.27 112.131L326.256 113.678C324.662 116.127 322.271 117.352 319.084 117.352ZM318.68 100.301C317.367 100.301 316.266 100.781 315.375 101.742C314.484 102.691 313.934 104.027 313.723 105.75H323.25V105.504C323.156 103.852 322.711 102.574 321.914 101.672C321.117 100.758 320.039 100.301 318.68 100.301Z" fill="white"/>
<path d="M339.475 100.898C338.982 100.816 338.449 100.775 337.875 100.775C335.742 100.775 334.295 101.684 333.533 103.5V117H330.281V97.9805H333.445L333.498 100.178C334.564 98.4785 336.076 97.6289 338.033 97.6289C338.666 97.6289 339.146 97.7109 339.475 97.875V100.898Z" fill="white"/>
<path d="M345.557 97.9805L345.662 100.371C347.115 98.543 349.014 97.6289 351.357 97.6289C355.377 97.6289 357.404 99.8965 357.439 104.432V117H354.188V104.414C354.176 103.043 353.859 102.029 353.238 101.373C352.629 100.717 351.674 100.389 350.373 100.389C349.318 100.389 348.393 100.67 347.596 101.232C346.799 101.795 346.178 102.533 345.732 103.447V117H342.48V97.9805H345.557Z" fill="white"/>
<path d="M374.086 117C373.898 116.625 373.746 115.957 373.629 114.996C372.117 116.566 370.312 117.352 368.215 117.352C366.34 117.352 364.799 116.824 363.592 115.77C362.396 114.703 361.799 113.355 361.799 111.727C361.799 109.746 362.549 108.211 364.049 107.121C365.561 106.02 367.682 105.469 370.412 105.469H373.576V103.975C373.576 102.838 373.236 101.936 372.557 101.268C371.877 100.588 370.875 100.248 369.551 100.248C368.391 100.248 367.418 100.541 366.633 101.127C365.848 101.713 365.455 102.422 365.455 103.254H362.186C362.186 102.305 362.52 101.391 363.188 100.512C363.867 99.6211 364.781 98.918 365.93 98.4023C367.09 97.8867 368.361 97.6289 369.744 97.6289C371.936 97.6289 373.652 98.1797 374.895 99.2812C376.137 100.371 376.781 101.877 376.828 103.799V112.553C376.828 114.299 377.051 115.688 377.496 116.719V117H374.086ZM368.689 114.521C369.709 114.521 370.676 114.258 371.59 113.73C372.504 113.203 373.166 112.518 373.576 111.674V107.771H371.027C367.043 107.771 365.051 108.938 365.051 111.27C365.051 112.289 365.391 113.086 366.07 113.66C366.75 114.234 367.623 114.521 368.689 114.521Z" fill="white"/>
<path d="M386.338 93.375V97.9805H389.889V100.494H386.338V112.289C386.338 113.051 386.496 113.625 386.812 114.012C387.129 114.387 387.668 114.574 388.43 114.574C388.805 114.574 389.32 114.504 389.977 114.363V117C389.121 117.234 388.289 117.352 387.48 117.352C386.027 117.352 384.932 116.912 384.193 116.033C383.455 115.154 383.086 113.906 383.086 112.289V100.494H379.623V97.9805H383.086V93.375H386.338Z" fill="white"/>
<path d="M397.236 117H393.984V97.9805H397.236V117ZM393.721 92.9355C393.721 92.4082 393.879 91.9629 394.195 91.5996C394.523 91.2363 395.004 91.0547 395.637 91.0547C396.27 91.0547 396.75 91.2363 397.078 91.5996C397.406 91.9629 397.57 92.4082 397.57 92.9355C397.57 93.4629 397.406 93.9023 397.078 94.2539C396.75 94.6055 396.27 94.7812 395.637 94.7812C395.004 94.7812 394.523 94.6055 394.195 94.2539C393.879 93.9023 393.721 93.4629 393.721 92.9355Z" fill="white"/>
<path d="M408.732 112.588L413.443 97.9805H416.766L409.945 117H407.467L400.576 97.9805H403.898L408.732 112.588Z" fill="white"/>
<path d="M431.355 117C431.168 116.625 431.016 115.957 430.898 114.996C429.387 116.566 427.582 117.352 425.484 117.352C423.609 117.352 422.068 116.824 420.861 115.77C419.666 114.703 419.068 113.355 419.068 111.727C419.068 109.746 419.818 108.211 421.318 107.121C422.83 106.02 424.951 105.469 427.682 105.469H430.846V103.975C430.846 102.838 430.506 101.936 429.826 101.268C429.146 100.588 428.145 100.248 426.82 100.248C425.66 100.248 424.688 100.541 423.902 101.127C423.117 101.713 422.725 102.422 422.725 103.254H419.455C419.455 102.305 419.789 101.391 420.457 100.512C421.137 99.6211 422.051 98.918 423.199 98.4023C424.359 97.8867 425.631 97.6289 427.014 97.6289C429.205 97.6289 430.922 98.1797 432.164 99.2812C433.406 100.371 434.051 101.877 434.098 103.799V112.553C434.098 114.299 434.32 115.688 434.766 116.719V117H431.355ZM425.959 114.521C426.979 114.521 427.945 114.258 428.859 113.73C429.773 113.203 430.436 112.518 430.846 111.674V107.771H428.297C424.312 107.771 422.32 108.938 422.32 111.27C422.32 112.289 422.66 113.086 423.34 113.66C424.02 114.234 424.893 114.521 425.959 114.521Z" fill="white"/>
<path d="M455.754 114.697C456.914 114.697 457.928 114.346 458.795 113.643C459.662 112.939 460.143 112.061 460.236 111.006H463.312C463.254 112.096 462.879 113.133 462.188 114.117C461.496 115.102 460.57 115.887 459.41 116.473C458.262 117.059 457.043 117.352 455.754 117.352C453.164 117.352 451.102 116.49 449.566 114.768C448.043 113.033 447.281 110.666 447.281 107.666V107.121C447.281 105.27 447.621 103.623 448.301 102.182C448.98 100.74 449.953 99.6211 451.219 98.8242C452.496 98.0273 454.002 97.6289 455.736 97.6289C457.869 97.6289 459.639 98.2676 461.045 99.5449C462.463 100.822 463.219 102.48 463.312 104.52H460.236C460.143 103.289 459.674 102.281 458.83 101.496C457.998 100.699 456.967 100.301 455.736 100.301C454.084 100.301 452.801 100.898 451.887 102.094C450.984 103.277 450.533 104.994 450.533 107.244V107.859C450.533 110.051 450.984 111.738 451.887 112.922C452.789 114.105 454.078 114.697 455.754 114.697Z" fill="white"/>
<path d="M466.107 107.314C466.107 105.451 466.471 103.775 467.197 102.287C467.936 100.799 468.955 99.6504 470.256 98.8418C471.568 98.0332 473.062 97.6289 474.738 97.6289C477.328 97.6289 479.42 98.5254 481.014 100.318C482.619 102.111 483.422 104.496 483.422 107.473V107.701C483.422 109.553 483.064 111.217 482.35 112.693C481.646 114.158 480.633 115.301 479.309 116.121C477.996 116.941 476.484 117.352 474.773 117.352C472.195 117.352 470.104 116.455 468.498 114.662C466.904 112.869 466.107 110.496 466.107 107.543V107.314ZM469.377 107.701C469.377 109.811 469.863 111.504 470.836 112.781C471.82 114.059 473.133 114.697 474.773 114.697C476.426 114.697 477.738 114.053 478.711 112.764C479.684 111.463 480.17 109.646 480.17 107.314C480.17 105.229 479.672 103.541 478.676 102.252C477.691 100.951 476.379 100.301 474.738 100.301C473.133 100.301 471.838 100.939 470.854 102.217C469.869 103.494 469.377 105.322 469.377 107.701Z" fill="white"/>
<path d="M496.693 100.898C496.201 100.816 495.668 100.775 495.094 100.775C492.961 100.775 491.514 101.684 490.752 103.5V117H487.5V97.9805H490.664L490.717 100.178C491.783 98.4785 493.295 97.6289 495.252 97.6289C495.885 97.6289 496.365 97.7109 496.693 97.875V100.898Z" fill="white"/>
<path d="M508.893 100.898C508.4 100.816 507.867 100.775 507.293 100.775C505.16 100.775 503.713 101.684 502.951 103.5V117H499.699V97.9805H502.863L502.916 100.178C503.982 98.4785 505.494 97.6289 507.451 97.6289C508.084 97.6289 508.564 97.7109 508.893 97.875V100.898Z" fill="white"/>
<path d="M519.439 117.352C516.861 117.352 514.764 116.508 513.146 114.82C511.529 113.121 510.721 110.854 510.721 108.018V107.42C510.721 105.533 511.078 103.852 511.793 102.375C512.52 100.887 513.527 99.7266 514.816 98.8945C516.117 98.0508 517.523 97.6289 519.035 97.6289C521.508 97.6289 523.43 98.4434 524.801 100.072C526.172 101.701 526.857 104.033 526.857 107.068V108.422H513.973C514.02 110.297 514.564 111.814 515.607 112.975C516.662 114.123 517.998 114.697 519.615 114.697C520.764 114.697 521.736 114.463 522.533 113.994C523.33 113.525 524.027 112.904 524.625 112.131L526.611 113.678C525.018 116.127 522.627 117.352 519.439 117.352ZM519.035 100.301C517.723 100.301 516.621 100.781 515.73 101.742C514.84 102.691 514.289 104.027 514.078 105.75H523.605V105.504C523.512 103.852 523.066 102.574 522.27 101.672C521.473 100.758 520.395 100.301 519.035 100.301Z" fill="white"/>
<path d="M541.711 111.955C541.711 111.076 541.377 110.396 540.709 109.916C540.053 109.424 538.898 109.002 537.246 108.65C535.605 108.299 534.299 107.877 533.326 107.385C532.365 106.893 531.65 106.307 531.182 105.627C530.725 104.947 530.496 104.139 530.496 103.201C530.496 101.643 531.152 100.324 532.465 99.2461C533.789 98.168 535.477 97.6289 537.527 97.6289C539.684 97.6289 541.43 98.1855 542.766 99.2988C544.113 100.412 544.787 101.836 544.787 103.57H541.518C541.518 102.68 541.137 101.912 540.375 101.268C539.625 100.623 538.676 100.301 537.527 100.301C536.344 100.301 535.418 100.559 534.75 101.074C534.082 101.59 533.748 102.264 533.748 103.096C533.748 103.881 534.059 104.473 534.68 104.871C535.301 105.27 536.42 105.65 538.037 106.014C539.666 106.377 540.984 106.811 541.992 107.314C543 107.818 543.744 108.428 544.225 109.143C544.717 109.846 544.963 110.707 544.963 111.727C544.963 113.426 544.283 114.791 542.924 115.822C541.564 116.842 539.801 117.352 537.633 117.352C536.109 117.352 534.762 117.082 533.59 116.543C532.418 116.004 531.498 115.254 530.83 114.293C530.174 113.32 529.846 112.271 529.846 111.146H533.098C533.156 112.236 533.59 113.104 534.398 113.748C535.219 114.381 536.297 114.697 537.633 114.697C538.863 114.697 539.848 114.451 540.586 113.959C541.336 113.455 541.711 112.787 541.711 111.955Z" fill="white"/>
<path d="M565.266 107.701C565.266 110.596 564.604 112.928 563.279 114.697C561.955 116.467 560.162 117.352 557.9 117.352C555.592 117.352 553.775 116.619 552.451 115.154V124.312H549.199V97.9805H552.17L552.328 100.09C553.652 98.4492 555.492 97.6289 557.848 97.6289C560.133 97.6289 561.938 98.4902 563.262 100.213C564.598 101.936 565.266 104.332 565.266 107.402V107.701ZM562.014 107.332C562.014 105.188 561.557 103.494 560.643 102.252C559.729 101.01 558.475 100.389 556.881 100.389C554.912 100.389 553.436 101.262 552.451 103.008V112.096C553.424 113.83 554.912 114.697 556.916 114.697C558.475 114.697 559.711 114.082 560.625 112.852C561.551 111.609 562.014 109.77 562.014 107.332Z" fill="white"/>
<path d="M568.553 107.314C568.553 105.451 568.916 103.775 569.643 102.287C570.381 100.799 571.4 99.6504 572.701 98.8418C574.014 98.0332 575.508 97.6289 577.184 97.6289C579.773 97.6289 581.865 98.5254 583.459 100.318C585.064 102.111 585.867 104.496 585.867 107.473V107.701C585.867 109.553 585.51 111.217 584.795 112.693C584.092 114.158 583.078 115.301 581.754 116.121C580.441 116.941 578.93 117.352 577.219 117.352C574.641 117.352 572.549 116.455 570.943 114.662C569.35 112.869 568.553 110.496 568.553 107.543V107.314ZM571.822 107.701C571.822 109.811 572.309 111.504 573.281 112.781C574.266 114.059 575.578 114.697 577.219 114.697C578.871 114.697 580.184 114.053 581.156 112.764C582.129 111.463 582.615 109.646 582.615 107.314C582.615 105.229 582.117 103.541 581.121 102.252C580.137 100.951 578.824 100.301 577.184 100.301C575.578 100.301 574.283 100.939 573.299 102.217C572.314 103.494 571.822 105.322 571.822 107.701Z" fill="white"/>
<path d="M593.021 97.9805L593.127 100.371C594.58 98.543 596.479 97.6289 598.822 97.6289C602.842 97.6289 604.869 99.8965 604.904 104.432V117H601.652V104.414C601.641 103.043 601.324 102.029 600.703 101.373C600.094 100.717 599.139 100.389 597.838 100.389C596.783 100.389 595.857 100.67 595.061 101.232C594.264 101.795 593.643 102.533 593.197 103.447V117H589.945V97.9805H593.021Z" fill="white"/>
<path d="M609.018 107.332C609.018 104.414 609.709 102.07 611.092 100.301C612.475 98.5195 614.285 97.6289 616.523 97.6289C618.75 97.6289 620.514 98.3906 621.814 99.9141V90H625.066V117H622.078L621.92 114.961C620.619 116.555 618.809 117.352 616.488 117.352C614.285 117.352 612.486 116.449 611.092 114.645C609.709 112.84 609.018 110.484 609.018 107.578V107.332ZM612.27 107.701C612.27 109.857 612.715 111.545 613.605 112.764C614.496 113.982 615.727 114.592 617.297 114.592C619.359 114.592 620.865 113.666 621.814 111.814V103.078C620.842 101.285 619.348 100.389 617.332 100.389C615.738 100.389 614.496 101.004 613.605 102.234C612.715 103.465 612.27 105.287 612.27 107.701Z" fill="white"/>
<path d="M633.662 117H630.41V97.9805H633.662V117ZM630.146 92.9355C630.146 92.4082 630.305 91.9629 630.621 91.5996C630.949 91.2363 631.43 91.0547 632.062 91.0547C632.695 91.0547 633.176 91.2363 633.504 91.5996C633.832 91.9629 633.996 92.4082 633.996 92.9355C633.996 93.4629 633.832 93.9023 633.504 94.2539C633.176 94.6055 632.695 94.7812 632.062 94.7812C631.43 94.7812 630.949 94.6055 630.621 94.2539C630.305 93.9023 630.146 93.4629 630.146 92.9355Z" fill="white"/>
<path d="M646.775 117.352C644.197 117.352 642.1 116.508 640.482 114.82C638.865 113.121 638.057 110.854 638.057 108.018V107.42C638.057 105.533 638.414 103.852 639.129 102.375C639.855 100.887 640.863 99.7266 642.152 98.8945C643.453 98.0508 644.859 97.6289 646.371 97.6289C648.844 97.6289 650.766 98.4434 652.137 100.072C653.508 101.701 654.193 104.033 654.193 107.068V108.422H641.309C641.355 110.297 641.9 111.814 642.943 112.975C643.998 114.123 645.334 114.697 646.951 114.697C648.1 114.697 649.072 114.463 649.869 113.994C650.666 113.525 651.363 112.904 651.961 112.131L653.947 113.678C652.354 116.127 649.963 117.352 646.775 117.352ZM646.371 100.301C645.059 100.301 643.957 100.781 643.066 101.742C642.176 102.691 641.625 104.027 641.414 105.75H650.941V105.504C650.848 103.852 650.402 102.574 649.605 101.672C648.809 100.758 647.73 100.301 646.371 100.301Z" fill="white"/>
<path d="M661.049 97.9805L661.154 100.371C662.607 98.543 664.506 97.6289 666.85 97.6289C670.869 97.6289 672.896 99.8965 672.932 104.432V117H669.68V104.414C669.668 103.043 669.352 102.029 668.73 101.373C668.121 100.717 667.166 100.389 665.865 100.389C664.811 100.389 663.885 100.67 663.088 101.232C662.291 101.795 661.67 102.533 661.225 103.447V117H657.973V97.9805H661.049Z" fill="white"/>
<path d="M682.248 93.375V97.9805H685.799V100.494H682.248V112.289C682.248 113.051 682.406 113.625 682.723 114.012C683.039 114.387 683.578 114.574 684.34 114.574C684.715 114.574 685.23 114.504 685.887 114.363V117C685.031 117.234 684.199 117.352 683.391 117.352C681.938 117.352 680.842 116.912 680.104 116.033C679.365 115.154 678.996 113.906 678.996 112.289V100.494H675.533V97.9805H678.996V93.375H682.248Z" fill="white"/>
<path d="M697.506 117.352C694.928 117.352 692.83 116.508 691.213 114.82C689.596 113.121 688.787 110.854 688.787 108.018V107.42C688.787 105.533 689.145 103.852 689.859 102.375C690.586 100.887 691.594 99.7266 692.883 98.8945C694.184 98.0508 695.59 97.6289 697.102 97.6289C699.574 97.6289 701.496 98.4434 702.867 100.072C704.238 101.701 704.924 104.033 704.924 107.068V108.422H692.039C692.086 110.297 692.631 111.814 693.674 112.975C694.729 114.123 696.064 114.697 697.682 114.697C698.83 114.697 699.803 114.463 700.6 113.994C701.396 113.525 702.094 112.904 702.691 112.131L704.678 113.678C703.084 116.127 700.693 117.352 697.506 117.352ZM697.102 100.301C695.789 100.301 694.688 100.781 693.797 101.742C692.906 102.691 692.355 104.027 692.145 105.75H701.672V105.504C701.578 103.852 701.133 102.574 700.336 101.672C699.539 100.758 698.461 100.301 697.102 100.301Z" fill="white"/>
</g>
<g id="Group 347">
<path id="Rectangle 176 (Stroke)" fill-rule="evenodd" clip-rule="evenodd" d="M567 217H327V297H567V376.5H647V136H567V217ZM570 139V215.5H644V139H570ZM644 218.5H570V220H568.5V294H570V295.5H644V218.5ZM644 298.5H570V373.5H644V298.5ZM565.5 294V220H488V294H565.5ZM485 294V220H408.25V294H485ZM405.25 294V220H330V294H405.25Z" fill="white"/>
<path id="Rectangle 177" d="M327 217H407V297H327V217Z" fill="white"/>
<path id="Rectangle 178" d="M487 217H567V297H487V217Z" fill="white"/>
<path id="Rectangle 179" d="M567 337H647V377H567V337Z" fill="white"/>
<path id="Rectangle 180" d="M567 136H647V176H567V136Z" fill="white"/>
</g>
</g>
<g id="claves">
<g id="Group 21">
<g id="Group 237">
<path id="Rectangle 4" d="M50 440H266.745L300 501L266.745 562H50V440Z" fill="#CD08D1" fill-opacity="0.1"/>
<path id="Rectangle 4 (Stroke)" fill-rule="evenodd" clip-rule="evenodd" d="M265.338 444.575H53V557.425H265.338L296.099 501L265.338 444.575ZM266.745 440H50V562H266.745L300 501L266.745 440Z" fill="#CD08D1"/>
</g>
<g id="Group 238">
<path id="Ellipse 1" d="M91 497.026C91 519.683 73.0914 538.051 51 538.051C28.9086 538.051 11 519.683 11 497.026C11 474.368 28.9086 456 51 456C73.0914 456 91 474.368 91 497.026Z" fill="#CD08D1"/>
<path id="A" d="M59.0938 507.699H41.4688L37.7812 518.564H29.5625L46.75 471.897H53.8438L71.0625 518.564H62.8125L59.0938 507.699ZM43.6875 501.16H56.875L50.2812 481.801L43.6875 501.16Z" fill="white"/>
</g>
</g>
<g id="Group 17">
<g id="Group 239">
<path id="Rectangle 5" d="M393 440H609.745L643 501L609.745 562H393V440Z" fill="#CD08D1" fill-opacity="0.1"/>
<path id="Rectangle 5 (Stroke)" fill-rule="evenodd" clip-rule="evenodd" d="M608.338 444.575H396V557.425H608.338L639.099 501L608.338 444.575ZM609.745 440H393V562H609.745L643 501L609.745 440Z" fill="#CD08D1"/>
</g>
<g id="Group 240">
<path id="Ellipse 2" d="M430 501C430 523.091 412.091 541 390 541C367.909 541 350 523.091 350 501C350 478.909 367.909 461 390 461C412.091 461 430 478.909 430 501Z" fill="#CD08D1"/>
<path id="B" d="M373.625 517V471.5H389.219C394.365 471.5 398.281 472.531 400.969 474.594C403.656 476.656 405 479.729 405 483.812C405 485.896 404.438 487.771 403.312 489.438C402.188 491.104 400.542 492.396 398.375 493.312C400.833 493.979 402.729 495.24 404.062 497.094C405.417 498.927 406.094 501.135 406.094 503.719C406.094 507.99 404.719 511.271 401.969 513.562C399.24 515.854 395.323 517 390.219 517H373.625ZM381.531 496.469V510.688H390.312C392.792 510.688 394.729 510.073 396.125 508.844C397.521 507.615 398.219 505.906 398.219 503.719C398.219 498.99 395.802 496.573 390.969 496.469H381.531ZM381.531 490.656H389.281C391.74 490.656 393.656 490.104 395.031 489C396.427 487.875 397.125 486.292 397.125 484.25C397.125 482 396.479 480.375 395.188 479.375C393.917 478.375 391.927 477.875 389.219 477.875H381.531V490.656Z" fill="white"/>
</g>
</g>
<g id="Group 18">
<g id="Group 241">
<path id="Rectangle 6" d="M732 532H948.745L982 593.5L948.745 655H732V532Z" fill="#CD08D1" fill-opacity="0.1"/>
<path id="Rectangle 6 (Stroke)" fill-rule="evenodd" clip-rule="evenodd" d="M947.338 536.613H735V650.388H947.338L978.099 593.5L947.338 536.613ZM948.745 532H732V655H948.745L982 593.5L948.745 532Z" fill="#CD08D1"/>
</g>
<g id="Group 242">
<path id="Ellipse 3" d="M774 593C774 615.091 756.091 633 734 633C711.909 633 694 615.091 694 593C694 570.909 711.909 553 734 553C756.091 553 774 570.909 774 593Z" fill="#CD08D1"/>
<path id="C" d="M751.344 600.188C750.885 605.042 749.094 608.833 745.969 611.562C742.844 614.271 738.688 615.625 733.5 615.625C729.875 615.625 726.677 614.771 723.906 613.062C721.156 611.333 719.031 608.885 717.531 605.719C716.031 602.552 715.25 598.875 715.188 594.688V590.438C715.188 586.146 715.948 582.365 717.469 579.094C718.99 575.823 721.167 573.302 724 571.531C726.854 569.76 730.146 568.875 733.875 568.875C738.896 568.875 742.938 570.24 746 572.969C749.062 575.698 750.844 579.552 751.344 584.531H743.469C743.094 581.26 742.135 578.906 740.594 577.469C739.073 576.01 736.833 575.281 733.875 575.281C730.438 575.281 727.792 576.542 725.938 579.062C724.104 581.562 723.167 585.24 723.125 590.094V594.125C723.125 599.042 724 602.792 725.75 605.375C727.521 607.958 730.104 609.25 733.5 609.25C736.604 609.25 738.938 608.552 740.5 607.156C742.062 605.76 743.052 603.438 743.469 600.188H751.344Z" fill="white"/>
</g>
</g>
<g id="Group 19">
<g id="Group 243">
<path id="Rectangle 7" d="M49 580H265.745L299 638.5L265.745 697H49V580Z" fill="#CD08D1" fill-opacity="0.1"/>
<path id="Rectangle 7 (Stroke)" fill-rule="evenodd" clip-rule="evenodd" d="M264.338 584.387H52V692.612H264.338L295.099 638.5L264.338 584.387ZM265.745 580H49V697H265.745L299 638.5L265.745 580Z" fill="#CD08D1"/>
</g>
<g id="Group 244">
<path id="Ellipse 4" d="M90 636C90 658.091 72.0914 676 50 676C27.9086 676 10 658.091 10 636C10 613.909 27.9086 596 50 596C72.0914 596 90 613.909 90 636Z" fill="#CD08D1"/>
<path id="D" d="M32.625 658V612.5H46.0625C50.0833 612.5 53.6458 613.396 56.75 615.188C59.875 616.979 62.2917 619.521 64 622.812C65.7083 626.104 66.5625 629.875 66.5625 634.125V636.406C66.5625 640.719 65.6979 644.51 63.9688 647.781C62.2604 651.052 59.8125 653.573 56.625 655.344C53.4583 657.115 49.8229 658 45.7188 658H32.625ZM40.5312 618.875V651.688H45.6875C49.8333 651.688 53.0104 650.396 55.2188 647.812C57.4479 645.208 58.5833 641.479 58.625 636.625V634.094C58.625 629.156 57.5521 625.385 55.4062 622.781C53.2604 620.177 50.1458 618.875 46.0625 618.875H40.5312Z" fill="white"/>
</g>
</g>
<g id="Group 20">
<g id="Group 246">
<path id="Rectangle 8" d="M393 574H609.745L643 634.5L609.745 695H393V574Z" fill="#CD08D1" fill-opacity="0.1"/>
<path id="Rectangle 8 (Stroke)" fill-rule="evenodd" clip-rule="evenodd" d="M608.338 578.538H396V690.463H608.338L639.099 634.5L608.338 578.538ZM609.745 574H393V695H609.745L643 634.5L609.745 574Z" fill="#CD08D1"/>
</g>
<g id="Group 245">
<path id="Ellipse 5" d="M434 634C434 656.091 416.091 674 394 674C371.909 674 354 656.091 354 634C354 611.909 371.909 594 394 594C416.091 594 434 611.909 434 634Z" fill="#CD08D1"/>
<path id="E" d="M403.219 635.688H384.531V649.688H406.375V656H376.625V610.5H406.156V616.875H384.531V629.438H403.219V635.688Z" fill="white"/>
</g>
</g>
<g id="Group 354">
<g id="Group 348">
<path id="Rectangle 181 (Stroke)" fill-rule="evenodd" clip-rule="evenodd" d="M126 480.957V548.206H193.249V480.957H126ZM196.249 480.148V545.926L222.691 522.934V457.539L196.249 480.148ZM225.691 524.3L194.749 551.206H123V479.457L150.354 453H225.691V524.3ZM219.874 456H151.568L128.866 477.957H194.195L219.874 456Z" fill="white"/>
<path id="Rectangle 182" d="M123 478.56H194.749V550.309H123V478.56Z" fill="white"/>
<path id="Rectangle 183" d="M150.354 453.448H224.794L194.749 478.56H123L150.354 453.448Z" fill="white"/>
</g>
<g id="Group 349">
<path id="Rectangle 181 (Stroke)_2" fill-rule="evenodd" clip-rule="evenodd" d="M465 479.957V547.206H532.249V479.957H465ZM535.249 479.148V544.926L561.691 521.934V456.539L535.249 479.148ZM564.691 523.3L533.749 550.206H462V478.457L489.354 452H564.691V523.3ZM558.874 455H490.568L467.866 476.957H533.195L558.874 455Z" fill="white"/>
<path id="Rectangle 182_2" d="M533.749 513.435L563.794 487.875V522.852L533.749 549.758V513.435Z" fill="white"/>
<path id="Rectangle 183_2" d="M489.354 452.448H563.794L533.749 477.561H462L489.354 452.448Z" fill="white"/>
</g>
<g id="Group 350">
<path id="Rectangle 181 (Stroke)_3" fill-rule="evenodd" clip-rule="evenodd" d="M809 578.957V646.206H876.249V578.957H809ZM879.249 578.148V643.926L905.691 620.934V555.539L879.249 578.148ZM908.691 622.3L877.749 649.206H806V577.457L833.354 551H908.691V622.3ZM902.874 554H834.568L811.866 575.957H877.195L902.874 554Z" fill="white"/>
<path id="Rectangle 182_3" d="M877.749 578.354L907.794 551.448V621.852L877.749 648.758V578.354Z" fill="white"/>
<path id="Rectangle 183_3" d="M841.427 575.664H877.75V648.758H841.427V575.664Z" fill="white"/>
</g>
<g id="Group 351">
<path id="Rectangle 181 (Stroke)_4" fill-rule="evenodd" clip-rule="evenodd" d="M125 619.957V687.206H192.249V619.957H125ZM195.249 619.148V684.926L221.691 661.934V596.539L195.249 619.148ZM224.691 663.3L193.749 690.206H122V618.457L149.354 592H224.691V663.3ZM218.874 595H150.568L127.866 616.957H193.195L218.874 595Z" fill="white"/>
<path id="Rectangle 182_4" d="M193.749 619.354L223.794 592.448V629.668L193.749 654.332V619.354Z" fill="white"/>
<path id="Rectangle 183_4" d="M122 617.112H193.749V689.758H122V617.112Z" fill="white"/>
</g>
<g id="Group 352">
<path id="Rectangle 181 (Stroke)_5" fill-rule="evenodd" clip-rule="evenodd" d="M470 612.957V680.206H537.249V612.957H470ZM540.249 612.148V677.926L566.691 654.934V589.539L540.249 612.148ZM569.691 656.3L538.749 683.206H467V611.457L494.354 585H569.691V656.3ZM563.874 588H495.568L472.866 609.957H538.195L563.874 588Z" fill="white"/>
<path id="Rectangle 182_5" d="M553.099 598.453L568.794 585.448V655.852L553.099 669.753V598.453Z" fill="white"/>
<path id="Rectangle 183_5" d="M501.979 610.112H538.75V682.758H501.979V610.112Z" fill="white"/>
</g>
</g>
<g id="flecha">
<path id="Rectangle 2" d="M58.2002 595.008L73.482 603.133L31.5004 682.089L16.2186 673.963L58.2002 595.008Z" fill="#1043F5"/>
<path id="Rectangle 1_2" d="M0 607.904L90 558V615.692L45 598.096L0 607.904Z" fill="#1043F5"/>
<path id="Rectangle 3" d="M4.03809 677.21L19.6652 650.143L36.9359 649.565L21.3087 676.632L4.03809 677.21Z" fill="#1043F5"/>
<path id="Rectangle 4_2" d="M30.0898 691.845L45.717 664.778L36.9263 649.154L21.2991 676.221L30.0898 691.845Z" fill="#1043F5"/>
</g>
</g>
</g>
</svg>
