<svg viewBox="0 0 814 411" fill="none" xmlns="http://www.w3.org/2000/svg">
<path fill-rule="evenodd" clip-rule="evenodd" d="M278 222.936L774.134 300C774.141 299.959 774.147 299.919 774.153 299.878C774.402 298.271 774.644 296.664 774.877 295.055C789.269 195.901 773.665 94.7041 730.073 4.49112C729.365 3.0262 728.65 1.56418 727.927 0.105105C727.91 0.0700681 727.892 0.0350332 727.875 0L278 222.936ZM725.592 6.71134L637.804 50.2152C652.677 94.3469 661 129.327 664.389 164.288C667.766 199.126 666.233 233.841 661.491 277.443L769.936 294.288C784.17 196.153 768.727 95.9997 725.592 6.71134ZM656.545 276.675C661.25 233.341 662.737 199.067 659.412 164.77C656.088 130.475 647.942 96.0546 633.282 52.4558L535.492 100.916C547.299 128.693 554.795 151.624 557.453 176.066C560.121 200.603 557.895 226.501 550.471 260.199L656.545 276.675ZM545.521 259.43C552.928 225.899 555.08 200.497 552.482 176.606C549.909 152.941 542.661 130.599 531.004 103.14L451.109 142.732C461.709 162.587 467.62 178.747 469.186 195.002C470.733 211.061 468.018 226.994 461.745 246.417L545.521 259.43ZM456.74 245.64C463.078 226.212 465.686 210.81 464.209 195.481C462.728 180.107 457.116 164.58 446.627 144.953L294.347 220.415L456.74 245.64Z" fill="white"/>
<path fill-rule="evenodd" clip-rule="evenodd" d="M756.095 77.8898L284.695 222.936L283.812 220.069L755.213 75.0225L756.095 77.8898Z" fill="white"/>
<path fill-rule="evenodd" clip-rule="evenodd" d="M775.063 157.665L284.694 222.936L284.299 219.962L774.667 154.692L775.063 157.665Z" fill="white"/>
<path fill-rule="evenodd" clip-rule="evenodd" d="M780.084 229.073L284.695 222.936L284.732 219.936L780.121 226.073L780.084 229.073Z" fill="white"/>
<path d="M806.98 288H802.254V265.168L795.281 267.551V263.547L806.375 259.465H806.98V288Z" fill="white"/>
<path d="M813.25 203H794.129V199.738L803.602 189.406C804.969 187.883 805.939 186.613 806.512 185.598C807.098 184.569 807.391 183.54 807.391 182.512C807.391 181.158 807.007 180.064 806.238 179.23C805.483 178.397 804.461 177.98 803.172 177.98C801.635 177.98 800.444 178.449 799.598 179.387C798.751 180.324 798.328 181.607 798.328 183.234H793.582C793.582 181.503 793.973 179.947 794.754 178.566C795.548 177.173 796.674 176.092 798.133 175.324C799.604 174.556 801.297 174.172 803.211 174.172C805.971 174.172 808.146 174.868 809.734 176.262C811.336 177.642 812.137 179.556 812.137 182.004C812.137 183.423 811.733 184.914 810.926 186.477C810.132 188.026 808.823 189.79 807 191.77L800.047 199.211H813.25V203Z" fill="white"/>
<path d="M787.617 101.613H790.508C791.966 101.6 793.118 101.223 793.965 100.48C794.824 99.7383 795.254 98.6641 795.254 97.2578C795.254 95.9036 794.896 94.8555 794.18 94.1133C793.477 93.3581 792.396 92.9805 790.938 92.9805C789.661 92.9805 788.613 93.3516 787.793 94.0938C786.973 94.8229 786.562 95.7799 786.562 96.9648H781.816C781.816 95.5065 782.201 94.1784 782.969 92.9805C783.75 91.7826 784.831 90.8516 786.211 90.1875C787.604 89.5104 789.16 89.1719 790.879 89.1719C793.717 89.1719 795.944 89.888 797.559 91.3203C799.186 92.7396 800 94.7188 800 97.2578C800 98.5339 799.59 99.7383 798.77 100.871C797.962 101.991 796.914 102.837 795.625 103.41C797.188 103.944 798.372 104.784 799.18 105.93C800 107.076 800.41 108.443 800.41 110.031C800.41 112.583 799.531 114.615 797.773 116.125C796.029 117.635 793.73 118.391 790.879 118.391C788.145 118.391 785.905 117.661 784.16 116.203C782.415 114.745 781.543 112.805 781.543 110.383H786.289C786.289 111.633 786.706 112.648 787.539 113.43C788.385 114.211 789.518 114.602 790.938 114.602C792.409 114.602 793.568 114.211 794.414 113.43C795.26 112.648 795.684 111.516 795.684 110.031C795.684 108.534 795.241 107.382 794.355 106.574C793.47 105.767 792.155 105.363 790.41 105.363H787.617V101.613Z" fill="white"/>
<path d="M770.184 28.8633H773.719V32.6719H770.184V39H765.438V32.6719H753.152L753.016 29.7812L765.281 10.5625H770.184V28.8633ZM757.996 28.8633H765.438V16.9883L765.086 17.6133L757.996 28.8633Z" fill="white"/>
<path d="M758.98 350H754.254V327.168L747.281 329.551V325.547L758.375 321.465H758.98V350Z" fill="#2CF30B"/>
<path d="M647.25 327H628.129V323.738L637.602 313.406C638.969 311.883 639.939 310.613 640.512 309.598C641.098 308.569 641.391 307.54 641.391 306.512C641.391 305.158 641.007 304.064 640.238 303.23C639.483 302.397 638.461 301.98 637.172 301.98C635.635 301.98 634.444 302.449 633.598 303.387C632.751 304.324 632.328 305.607 632.328 307.234H627.582C627.582 305.503 627.973 303.947 628.754 302.566C629.548 301.173 630.674 300.092 632.133 299.324C633.604 298.556 635.297 298.172 637.211 298.172C639.971 298.172 642.146 298.868 643.734 300.262C645.336 301.642 646.137 303.556 646.137 306.004C646.137 307.423 645.733 308.914 644.926 310.477C644.132 312.026 642.823 313.79 641 315.77L634.047 323.211H647.25V327Z" fill="#2CF30B"/>
<path d="M530.617 294.613H533.508C534.966 294.6 536.118 294.223 536.965 293.48C537.824 292.738 538.254 291.664 538.254 290.258C538.254 288.904 537.896 287.855 537.18 287.113C536.477 286.358 535.396 285.98 533.938 285.98C532.661 285.98 531.613 286.352 530.793 287.094C529.973 287.823 529.562 288.78 529.562 289.965H524.816C524.816 288.507 525.201 287.178 525.969 285.98C526.75 284.783 527.831 283.852 529.211 283.188C530.604 282.51 532.16 282.172 533.879 282.172C536.717 282.172 538.944 282.888 540.559 284.32C542.186 285.74 543 287.719 543 290.258C543 291.534 542.59 292.738 541.77 293.871C540.962 294.991 539.914 295.837 538.625 296.41C540.188 296.944 541.372 297.784 542.18 298.93C543 300.076 543.41 301.443 543.41 303.031C543.41 305.583 542.531 307.615 540.773 309.125C539.029 310.635 536.73 311.391 533.879 311.391C531.145 311.391 528.905 310.661 527.16 309.203C525.415 307.745 524.543 305.805 524.543 303.383H529.289C529.289 304.633 529.706 305.648 530.539 306.43C531.385 307.211 532.518 307.602 533.938 307.602C535.409 307.602 536.568 307.211 537.414 306.43C538.26 305.648 538.684 304.516 538.684 303.031C538.684 301.534 538.241 300.382 537.355 299.574C536.47 298.767 535.155 298.363 533.41 298.363H530.617V294.613Z" fill="#2CF30B"/>
<path d="M448.184 287.863H451.719V291.672H448.184V298H443.438V291.672H431.152L431.016 288.781L443.281 269.562H448.184V287.863ZM435.996 287.863H443.438V275.988L443.086 276.613L435.996 287.863Z" fill="#2CF30B"/>
<path d="M3 308.937C3 308.576 3.19454 308.298 3.58362 308.104H13.7136L15.4644 301.559C16.5483 297.334 17.1875 295.083 17.382 294.805C17.521 294.583 17.7294 294.472 18.0074 294.472C18.5076 294.472 18.7855 294.722 18.8411 295.222C18.8411 295.334 18.2853 297.473 17.1736 301.642C16.0342 305.755 15.4644 307.881 15.4644 308.02L15.4228 308.104H23.3016L25.0525 301.559C26.1919 297.251 26.8172 295.014 26.9284 294.847C27.0951 294.597 27.3175 294.472 27.5954 294.472C27.7899 294.472 27.9706 294.541 28.1373 294.68C28.3041 294.819 28.3874 294.972 28.3874 295.139C28.3874 295.417 27.8455 297.585 26.7616 301.642C25.6222 305.755 25.0525 307.881 25.0525 308.02L25.0108 308.104H32.4311C32.848 308.326 33.0564 308.604 33.0564 308.937C33.0564 309.299 32.9174 309.521 32.6395 309.604C32.3616 309.688 31.7363 309.743 30.7636 309.771H28.4708H24.5105L23.6768 312.939L22.8014 316.149C22.8014 316.177 24.4133 316.191 27.6371 316.191H30.6802C31.6807 316.191 32.3199 316.233 32.5978 316.316C32.8758 316.399 33.0286 316.636 33.0564 317.025C33.0842 317.414 32.8758 317.692 32.4311 317.858H22.3011L20.5503 324.403C19.4108 328.711 18.7855 330.948 18.6743 331.115C18.5076 331.365 18.2853 331.49 18.0074 331.49C17.8128 331.49 17.6322 331.421 17.4654 331.282C17.2987 331.143 17.2153 330.976 17.2153 330.781C17.2153 330.504 17.7572 328.336 18.8411 324.278C19.9805 320.221 20.5503 318.109 20.5503 317.942L20.592 317.858H12.7131L10.9622 324.403C9.82279 328.711 9.19748 330.948 9.08632 331.115C8.91957 331.365 8.69724 331.49 8.41932 331.49C8.22478 331.49 8.04414 331.421 7.87739 331.282C7.71064 331.143 7.62727 330.976 7.62727 330.781C7.62727 330.504 8.1692 328.336 9.25306 324.278C10.3925 320.221 10.9622 318.109 10.9622 317.942L11.0039 317.858H3.58362C3.19454 317.664 3 317.386 3 317.025C3 316.608 3.22233 316.33 3.66699 316.191H11.5042L12.3379 313.023L13.2133 309.813C13.2133 309.785 11.6153 309.771 8.41932 309.771H3.66699C3.22233 309.632 3 309.354 3 308.937ZM22.8014 309.813C22.8014 309.785 21.4952 309.771 18.8828 309.771H14.9225L14.0888 312.939L13.2133 316.149C13.2133 316.177 14.5195 316.191 17.1319 316.191H21.0922L21.9259 313.023L22.8014 309.813Z" fill="white"/>
<path d="M48.2302 322.402C49.8699 322.402 51.3707 321.679 52.7325 320.234C54.0942 318.789 54.789 317.108 54.8168 315.19C54.8168 313.439 54.0942 312.23 52.6491 311.563C49.7032 310.813 47.8134 310.299 46.9796 310.021C46.1459 309.743 45.5623 309.465 45.2288 309.187C43.5613 308.02 42.7276 306.339 42.7276 304.143C42.7276 302.448 43.1722 300.905 44.0615 299.516C44.9509 298.126 45.8541 297.084 46.7712 296.389C47.5771 295.694 48.5498 295.139 49.6893 294.722C50.8287 294.305 51.7181 294.083 52.3573 294.055H52.8158H53.1076C55.7756 294.055 57.7071 294.944 58.9021 296.723C58.9299 296.723 59.1106 296.542 59.4441 296.181C59.7776 295.819 60.1389 295.417 60.5279 294.972C60.917 294.527 61.1949 294.221 61.3617 294.055C61.3895 294.055 61.4451 294.055 61.5284 294.055C61.6118 294.055 61.6813 294.041 61.7369 294.013C62.0982 294.013 62.2788 294.11 62.2788 294.305C62.2788 294.499 61.8897 296.181 61.1116 299.349C60.3334 302.517 59.8887 304.157 59.7776 304.268C59.6664 304.379 59.4441 304.421 59.1106 304.393C58.5548 304.393 58.2768 304.268 58.2768 304.018C58.2768 303.851 58.2907 303.712 58.3185 303.601C58.3185 303.518 58.3324 303.254 58.3602 302.809C58.388 302.364 58.4158 302.003 58.4436 301.725C58.4436 300.78 58.3185 299.96 58.0684 299.266C57.8183 298.571 57.5682 298.057 57.318 297.723C57.0679 297.39 56.7205 297.042 56.2759 296.681C55.2754 296.097 54.1359 295.806 52.8575 295.806C51.2734 295.806 49.8005 296.445 48.4387 297.723C47.0769 299.002 46.3821 300.475 46.3543 302.142C46.3543 302.976 46.5628 303.698 46.9796 304.31C47.3965 304.921 47.9662 305.352 48.6888 305.602C48.8 305.658 49.7727 305.922 51.6069 306.394C53.4411 306.867 54.3721 307.117 54.3999 307.144C55.3448 307.45 56.262 308.117 57.1513 309.145C58.0406 310.174 58.4853 311.563 58.4853 313.314C58.4853 314.037 58.3741 314.815 58.1518 315.649C58.0128 316.26 57.7627 316.941 57.4014 317.691C57.0401 318.442 56.5399 319.262 55.9007 320.151C55.2615 321.04 54.3444 321.874 53.1493 322.652C51.9543 323.43 50.6481 323.958 49.2307 324.236C48.8972 324.292 48.4248 324.32 47.8134 324.32C45.062 324.32 42.9221 323.555 41.3936 322.027L40.9767 321.568L39.8095 322.861C39.1703 323.611 38.7812 324.042 38.6422 324.153C38.5033 324.264 38.3226 324.32 38.1003 324.32C37.739 324.32 37.5583 324.208 37.5583 323.986C37.5583 323.903 38.3643 320.637 39.9762 314.19C40.0318 314.023 40.3097 313.939 40.8099 313.939H41.3519C41.5186 314.106 41.602 314.259 41.602 314.398C41.602 314.454 41.5881 314.579 41.5603 314.773C41.5325 314.968 41.4769 315.26 41.3936 315.649C41.3102 316.038 41.2824 316.496 41.3102 317.024C41.3658 318.108 41.6159 319.025 42.0606 319.776C42.5052 320.526 43.1027 321.082 43.8531 321.443C44.6035 321.804 45.326 322.055 46.0208 322.194C46.7156 322.332 47.4521 322.402 48.2302 322.402Z" fill="white"/>
<path d="M64.3633 312.897C64.3633 309.701 65.2943 306.63 67.1563 303.684C69.0183 300.739 71.3667 298.404 74.2014 296.681C77.0362 294.958 79.8709 294.083 82.7056 294.055C85.2068 294.055 87.1939 294.763 88.6669 296.181C88.917 296.459 89.1254 296.695 89.2922 296.889C89.4589 297.084 89.5701 297.223 89.6257 297.306L89.6674 297.431C89.7507 297.431 90.1259 297.07 90.7929 296.348C90.9874 296.181 91.1959 295.986 91.4182 295.764C91.6405 295.542 91.8629 295.319 92.0852 295.097C92.3075 294.875 92.4465 294.722 92.5021 294.638L93.1274 294.013H93.3775C93.7666 294.013 93.9611 294.11 93.9611 294.305C93.9611 294.416 93.5165 296.32 92.6271 300.016C91.6266 303.879 91.1264 305.824 91.1264 305.852C91.0708 305.991 91.0013 306.075 90.918 306.102C90.8346 306.13 90.5845 306.158 90.1676 306.186H89.5006C89.3339 306.019 89.2505 305.894 89.2505 305.811C89.2505 305.783 89.2644 305.685 89.2922 305.519C89.32 305.352 89.3477 305.074 89.3755 304.685C89.4033 304.296 89.4172 303.851 89.4172 303.351C89.4172 301.378 88.9726 299.655 88.0832 298.182C87.1939 296.709 85.6793 295.958 83.5393 295.931C82.8168 295.931 82.0386 296.028 81.2049 296.222C80.3711 296.417 79.3706 296.751 78.2034 297.223C77.0362 297.695 75.8828 298.474 74.7434 299.557C73.6039 300.641 72.5895 301.934 71.7002 303.434C70.8109 305.018 70.1022 306.867 69.5742 308.979C69.0461 311.091 68.7821 312.814 68.7821 314.148C68.7821 317.316 69.8382 319.595 71.9503 320.985C73.2843 321.93 74.924 322.402 76.8694 322.402C79.3984 322.402 81.6495 321.457 83.6227 319.567C85.5959 317.677 86.9021 315.621 87.5413 313.398C87.6525 313.036 87.7358 312.828 87.7914 312.772C87.847 312.717 88.0693 312.689 88.4584 312.689C89.0143 312.689 89.2922 312.814 89.2922 313.064C89.2922 313.203 89.2783 313.328 89.2505 313.439C88.4445 316.413 86.7215 318.97 84.0813 321.11C81.4411 323.25 78.6064 324.32 75.5771 324.32C72.4367 324.32 69.7826 323.277 67.6149 321.193C65.4471 319.109 64.3633 316.343 64.3633 312.897Z" fill="white"/>
<path d="M98.363 312.62L97.9798 312.768C97.7047 312.866 97.3118 312.964 96.8009 313.062C96.29 313.161 95.7202 313.229 95.0915 313.269H94.5315V311.913H95.0915C96.015 311.874 96.8697 311.726 97.6556 311.471C98.4415 311.215 98.9917 310.98 99.3061 310.763C99.6205 310.547 99.8955 310.331 100.131 310.115C100.171 310.056 100.289 310.027 100.485 310.027C100.662 310.027 100.829 310.086 100.986 310.203V319.016L101.016 327.858C101.153 327.995 101.271 328.084 101.369 328.123C101.467 328.162 101.703 328.202 102.077 328.241C102.45 328.28 103.059 328.3 103.904 328.3H104.67V329.656H104.346C103.933 329.597 102.371 329.567 99.6598 329.567C96.9876 329.567 95.4452 329.597 95.0325 329.656H94.6789V328.3H95.4452C95.8774 328.3 96.2507 328.3 96.5651 328.3C96.8795 328.3 97.1251 328.29 97.3019 328.27C97.4788 328.251 97.636 328.221 97.7735 328.182C97.911 328.143 97.9896 328.123 98.0093 328.123C98.0289 328.123 98.0879 328.074 98.1861 327.976C98.2844 327.877 98.3433 327.838 98.363 327.858V312.62Z" fill="white"/>
<path d="M122.821 308.937C122.821 308.576 123.016 308.298 123.405 308.103H149.96C150.376 308.326 150.585 308.604 150.585 308.937C150.585 309.243 150.39 309.507 150.001 309.729L136.745 309.771H123.488C123.044 309.632 122.821 309.354 122.821 308.937ZM122.821 317.024C122.821 316.608 123.044 316.33 123.488 316.191H150.001C150.39 316.469 150.585 316.746 150.585 317.024C150.585 317.386 150.376 317.664 149.96 317.858H123.405C123.016 317.664 122.821 317.386 122.821 317.024Z" fill="white"/>
<path d="M192.931 295.222C192.431 295.139 190.638 295.097 187.553 295.097C184.329 295.097 182.467 295.139 181.967 295.222H181.592V293.305H182.884C183.44 293.305 183.815 293.305 184.01 293.305C184.204 293.305 184.441 293.277 184.718 293.221C184.996 293.166 185.191 293.096 185.302 293.013C185.413 292.929 185.511 292.818 185.594 292.679C185.622 292.624 185.636 291.873 185.636 290.428V288.344H174.839V286.426L181.133 276.797C185.385 270.349 187.539 267.111 187.595 267.083C187.65 267.028 187.942 267 188.47 267H189.221L189.471 267.25V286.426H193.306V288.344H189.471V290.47C189.471 291.609 189.471 292.276 189.471 292.471C189.471 292.665 189.554 292.832 189.721 292.971C189.943 293.166 190.735 293.277 192.097 293.305H193.306V295.222H192.931ZM185.886 286.426V272.503L176.756 286.385L181.3 286.426H185.886Z" fill="white"/>
<path d="M230.04 294.013C230.04 294.569 229.749 294.847 229.165 294.847C229.026 294.847 228.72 294.625 228.248 294.18C227.775 293.735 226.469 292.443 224.329 290.303L219.994 285.968L215.617 290.345C212.671 293.235 211.156 294.708 211.073 294.764C210.962 294.819 210.864 294.847 210.781 294.847C210.559 294.847 210.364 294.764 210.197 294.597C210.031 294.43 209.933 294.236 209.906 294.013C209.906 293.819 210.1 293.513 210.489 293.096C210.878 292.679 212.184 291.359 214.408 289.136L218.743 284.8L214.408 280.465C212.157 278.214 210.85 276.894 210.489 276.505C210.128 276.116 209.933 275.81 209.906 275.587C209.906 275.337 209.989 275.143 210.156 275.004C210.322 274.865 210.531 274.795 210.781 274.795C210.92 274.795 211.017 274.809 211.073 274.837C211.156 274.893 212.671 276.366 215.617 279.256L219.994 283.633L224.329 279.298C226.469 277.158 227.775 275.865 228.248 275.421C228.72 274.976 229.026 274.754 229.165 274.754C229.749 274.754 230.04 275.032 230.04 275.587C230.04 275.782 229.901 276.032 229.624 276.338C229.346 276.644 227.984 278.005 225.538 280.423L221.203 284.8L225.538 289.177C227.873 291.512 229.207 292.86 229.54 293.221C229.874 293.582 230.04 293.846 230.04 294.013Z" fill="white"/>
<path d="M252.31 288.677C252.31 289.344 252.088 289.9 251.643 290.345C251.199 290.789 250.657 291.012 250.017 291.012H249.726C251.004 293.207 252.699 294.305 254.811 294.305C256.757 294.305 258.174 293.471 259.064 291.804C259.592 290.887 259.856 289.108 259.856 286.468C259.856 283.605 259.48 281.674 258.73 280.673C258.007 279.756 257.201 279.298 256.312 279.298H256.062C253.894 279.298 252.255 280.243 251.143 282.132C251.032 282.327 250.935 282.438 250.851 282.466C250.768 282.494 250.559 282.521 250.226 282.549C249.753 282.549 249.489 282.466 249.434 282.299C249.378 282.188 249.35 279.756 249.35 275.004V269.626C249.35 268.237 249.42 267.542 249.559 267.542C249.614 267.486 249.67 267.459 249.726 267.459C249.753 267.459 250.045 267.57 250.601 267.792C251.157 268.014 251.921 268.237 252.894 268.459C253.867 268.681 254.909 268.793 256.02 268.793C257.994 268.793 259.883 268.403 261.69 267.625C261.912 267.514 262.093 267.459 262.232 267.459C262.454 267.459 262.565 267.709 262.565 268.209V268.751C260.286 271.447 257.438 272.795 254.019 272.795C253.158 272.795 252.38 272.711 251.685 272.544L251.268 272.461V279.631C251.796 279.242 252.213 278.936 252.519 278.714C252.824 278.492 253.325 278.269 254.019 278.047C254.714 277.825 255.423 277.714 256.145 277.714C258.397 277.714 260.3 278.617 261.857 280.423C263.413 282.23 264.191 284.37 264.191 286.843C264.191 289.4 263.302 291.581 261.523 293.388C259.744 295.194 257.577 296.111 255.02 296.139C252.769 296.139 250.962 295.389 249.601 293.888C248.239 292.387 247.558 290.692 247.558 288.802C247.558 288.135 247.711 287.607 248.016 287.218C248.322 286.829 248.642 286.579 248.975 286.468C249.309 286.357 249.628 286.301 249.934 286.301C250.629 286.301 251.199 286.537 251.643 287.01C252.088 287.482 252.31 288.038 252.31 288.677Z" fill="white"/>
<path d="M214.116 334.116C213.365 334.116 212.768 333.866 212.323 333.366C211.878 332.866 211.656 332.254 211.656 331.532C211.656 329.558 212.392 327.849 213.865 326.404C215.338 324.959 217.173 324.236 219.368 324.236C221.897 324.236 224.009 325.015 225.705 326.571C227.4 328.127 228.261 330.142 228.289 332.615C228.289 333.811 228.011 334.95 227.455 336.034C226.9 337.118 226.233 338.063 225.454 338.869C224.676 339.675 223.565 340.703 222.119 341.953C221.119 342.815 219.729 344.093 217.951 345.789L215.491 348.123L218.659 348.165C223.023 348.165 225.343 348.095 225.621 347.956C225.816 347.901 226.149 346.664 226.622 344.246V344.121H228.289V344.246C228.261 344.33 228.081 345.594 227.747 348.04C227.414 350.485 227.205 351.764 227.122 351.875V352H211.656V351.208V350.708C211.656 350.513 211.739 350.305 211.906 350.082C212.073 349.86 212.49 349.374 213.157 348.623C213.963 347.734 214.657 346.956 215.241 346.289C215.491 346.011 215.964 345.497 216.658 344.746C217.353 343.996 217.826 343.482 218.076 343.204C218.326 342.926 218.729 342.468 219.285 341.828C219.841 341.189 220.23 340.717 220.452 340.411C220.674 340.105 220.994 339.688 221.411 339.16C221.828 338.632 222.119 338.188 222.286 337.826C222.453 337.465 222.661 337.062 222.912 336.617C223.162 336.173 223.342 335.728 223.453 335.283C223.565 334.839 223.662 334.422 223.745 334.033C223.829 333.644 223.87 333.185 223.87 332.657C223.87 330.906 223.398 329.392 222.453 328.113C221.508 326.835 220.16 326.196 218.409 326.196C217.492 326.196 216.686 326.432 215.991 326.904C215.297 327.377 214.81 327.835 214.532 328.28C214.255 328.725 214.116 328.989 214.116 329.072C214.116 329.1 214.185 329.114 214.324 329.114C214.824 329.114 215.338 329.308 215.866 329.697C216.394 330.086 216.658 330.726 216.658 331.615C216.658 332.31 216.436 332.893 215.991 333.366C215.547 333.838 214.921 334.088 214.116 334.116Z" fill="white"/>
<path d="M270.485 314.231H169.502V311.73H270.485V314.231Z" fill="white"/>
<path d="M289.403 308.937C289.403 308.576 289.598 308.298 289.987 308.103H316.541C316.958 308.326 317.167 308.604 317.167 308.937C317.167 309.243 316.972 309.507 316.583 309.729L303.327 309.771H290.07C289.625 309.632 289.403 309.354 289.403 308.937ZM289.403 317.024C289.403 316.608 289.625 316.33 290.07 316.191H316.583C316.972 316.469 317.167 316.746 317.167 317.024C317.167 317.386 316.958 317.664 316.541 317.858H289.987C289.598 317.664 289.403 317.386 289.403 317.024Z" fill="white"/>
<path d="M339.961 299.307L339.419 299.516C339.03 299.655 338.474 299.794 337.752 299.933C337.029 300.072 336.223 300.169 335.334 300.225H334.542V298.307H335.334C336.64 298.251 337.849 298.043 338.961 297.682C340.072 297.32 340.85 296.987 341.295 296.681C341.74 296.375 342.129 296.07 342.462 295.764C342.518 295.681 342.685 295.639 342.963 295.639C343.213 295.639 343.449 295.722 343.671 295.889V308.354L343.713 320.86C343.907 321.054 344.074 321.179 344.213 321.235C344.352 321.29 344.686 321.346 345.214 321.402C345.742 321.457 346.603 321.485 347.798 321.485H348.882V323.403H348.424C347.84 323.319 345.631 323.278 341.795 323.278C338.016 323.278 335.834 323.319 335.25 323.403H334.75V321.485H335.834C336.445 321.485 336.973 321.485 337.418 321.485C337.863 321.485 338.21 321.471 338.46 321.443C338.71 321.416 338.933 321.374 339.127 321.318C339.322 321.263 339.433 321.235 339.461 321.235C339.489 321.235 339.572 321.165 339.711 321.026C339.85 320.887 339.933 320.832 339.961 320.86V299.307Z" fill="white"/>
<path d="M355.927 299.016C357.483 296.764 359.609 295.639 362.305 295.639C363.639 295.639 364.973 296 366.307 296.723C367.641 297.445 368.725 298.724 369.559 300.558C370.587 302.865 371.101 306.033 371.101 310.063C371.101 314.37 370.504 317.664 369.309 319.942C368.753 321.11 367.988 322.041 367.016 322.735C366.043 323.43 365.195 323.861 364.473 324.028C363.75 324.195 363.042 324.292 362.347 324.32C361.624 324.32 360.902 324.236 360.179 324.069C359.456 323.903 358.609 323.458 357.636 322.735C356.663 322.013 355.899 321.082 355.343 319.942C354.148 317.664 353.551 314.37 353.551 310.063C353.551 305.227 354.343 301.545 355.927 299.016ZM365.307 298.515C364.473 297.626 363.486 297.181 362.347 297.181C361.18 297.181 360.179 297.626 359.345 298.515C358.651 299.238 358.192 300.238 357.97 301.517C357.747 302.795 357.636 305.463 357.636 309.521C357.636 313.912 357.747 316.802 357.97 318.192C358.192 319.581 358.692 320.679 359.47 321.485C360.249 322.319 361.207 322.735 362.347 322.735C363.458 322.735 364.403 322.319 365.181 321.485C365.987 320.651 366.488 319.484 366.682 317.983C366.877 316.482 366.988 313.662 367.016 309.521C367.016 305.491 366.905 302.837 366.682 301.558C366.46 300.28 366.001 299.266 365.307 298.515Z" fill="white"/>
<path d="M10.3801 385.256C10.3801 384.534 10.6302 383.936 11.1305 383.464C11.6307 382.991 12.2282 382.755 12.923 382.755C13.59 382.755 14.1597 382.991 14.6322 383.464C15.1046 383.936 15.3547 384.534 15.3825 385.256C15.4103 385.979 15.1741 386.576 14.6739 387.049C14.1736 387.521 13.5761 387.757 12.8813 387.757C12.1587 387.757 11.5612 387.521 11.0888 387.049C10.6163 386.576 10.3801 385.979 10.3801 385.256ZM2.50123 400.806C3.2238 400.806 3.80742 401.042 4.25208 401.514C4.69675 401.987 4.93297 402.584 4.96076 403.307C4.96076 403.974 4.73843 404.557 4.29377 405.058C3.84911 405.558 3.2377 405.808 2.45954 405.808C1.73696 405.808 1.15334 405.572 0.708681 405.099C0.264018 404.627 0.0277914 404.029 0 403.307C0 402.584 0.236227 401.987 0.708681 401.514C1.18113 401.042 1.77865 400.806 2.50123 400.806ZM20.8435 403.307C20.8435 402.584 21.0798 401.987 21.5522 401.514C22.0247 401.042 22.6222 400.806 23.3448 400.806C24.0118 400.806 24.5815 401.042 25.0539 401.514C25.5264 401.987 25.7765 402.584 25.8043 403.307C25.8043 403.946 25.582 404.516 25.1373 405.016C24.6927 405.516 24.0812 405.78 23.3031 405.808C22.5805 405.808 21.9969 405.572 21.5522 405.099C21.1076 404.627 20.8713 404.029 20.8435 403.307Z" fill="white"/>
<path d="M63.8767 387.924C63.8767 387.563 64.0712 387.285 64.4603 387.091H74.5903L76.3412 380.546C77.425 376.321 78.0642 374.07 78.2588 373.792C78.3977 373.57 78.6061 373.459 78.8841 373.459C79.3843 373.459 79.6622 373.709 79.7178 374.209C79.7178 374.32 79.162 376.46 78.0503 380.629C76.9109 384.742 76.3412 386.868 76.3412 387.007L76.2995 387.091H84.1783L85.9292 380.546C87.0686 376.238 87.6939 374.001 87.8051 373.834C87.9719 373.584 88.1942 373.459 88.4721 373.459C88.6666 373.459 88.8473 373.528 89.014 373.667C89.1808 373.806 89.2642 373.959 89.2642 374.126C89.2642 374.404 88.7222 376.572 87.6384 380.629C86.4989 384.742 85.9292 386.868 85.9292 387.007L85.8875 387.091H93.3078C93.7247 387.313 93.9331 387.591 93.9331 387.924C93.9331 388.286 93.7941 388.508 93.5162 388.591C93.2383 388.675 92.613 388.73 91.6403 388.758H89.3475H85.3873L84.5535 391.926L83.6781 395.136C83.6781 395.164 85.29 395.178 88.5138 395.178H91.5569C92.5574 395.178 93.1966 395.22 93.4745 395.303C93.7525 395.386 93.9053 395.623 93.9331 396.012C93.9609 396.401 93.7525 396.679 93.3078 396.845H83.1778L81.427 403.39C80.2875 407.698 79.6622 409.935 79.5511 410.102C79.3843 410.352 79.162 410.477 78.8841 410.477C78.6895 410.477 78.5089 410.408 78.3421 410.269C78.1754 410.13 78.092 409.963 78.092 409.768C78.092 409.49 78.6339 407.323 79.7178 403.265C80.8573 399.208 81.427 397.095 81.427 396.929L81.4687 396.845H73.5898L71.8389 403.39C70.6995 407.698 70.0742 409.935 69.963 410.102C69.7963 410.352 69.5739 410.477 69.296 410.477C69.1015 410.477 68.9208 410.408 68.7541 410.269C68.5874 410.13 68.504 409.963 68.504 409.768C68.504 409.49 69.0459 407.323 70.1298 403.265C71.2692 399.208 71.8389 397.095 71.8389 396.929L71.8806 396.845H64.4603C64.0712 396.651 63.8767 396.373 63.8767 396.012C63.8767 395.595 64.099 395.317 64.5437 395.178H72.3809L73.2146 392.01L74.09 388.8C74.09 388.772 72.492 388.758 69.296 388.758H64.5437C64.099 388.619 63.8767 388.341 63.8767 387.924ZM83.6781 388.8C83.6781 388.772 82.3719 388.758 79.7595 388.758H75.7992L74.9655 391.926L74.09 395.136C74.09 395.164 75.3962 395.178 78.0086 395.178H81.9689L82.8027 392.01L83.6781 388.8Z" fill="white"/>
<path d="M109.107 401.389C110.747 401.389 112.247 400.666 113.609 399.221C114.971 397.776 115.666 396.095 115.694 394.177C115.694 392.426 114.971 391.217 113.526 390.55C110.58 389.8 108.69 389.286 107.856 389.008C107.023 388.73 106.439 388.452 106.105 388.174C104.438 387.007 103.604 385.325 103.604 383.13C103.604 381.435 104.049 379.892 104.938 378.503C105.828 377.113 106.731 376.071 107.648 375.376C108.454 374.681 109.427 374.126 110.566 373.709C111.705 373.292 112.595 373.069 113.234 373.042H113.693H113.984C116.652 373.042 118.584 373.931 119.779 375.71C119.807 375.71 119.987 375.529 120.321 375.168C120.654 374.806 121.016 374.403 121.405 373.959C121.794 373.514 122.072 373.208 122.238 373.042C122.266 373.042 122.322 373.042 122.405 373.042C122.489 373.042 122.558 373.028 122.614 373C122.975 373 123.156 373.097 123.156 373.292C123.156 373.486 122.766 375.168 121.988 378.336C121.21 381.504 120.765 383.144 120.654 383.255C120.543 383.366 120.321 383.408 119.987 383.38C119.431 383.38 119.154 383.255 119.154 383.005C119.154 382.838 119.167 382.699 119.195 382.588C119.195 382.505 119.209 382.241 119.237 381.796C119.265 381.351 119.293 380.99 119.32 380.712C119.32 379.767 119.195 378.947 118.945 378.253C118.695 377.558 118.445 377.044 118.195 376.71C117.945 376.377 117.597 376.029 117.153 375.668C116.152 375.084 115.013 374.793 113.734 374.793C112.15 374.793 110.677 375.432 109.315 376.71C107.954 377.989 107.259 379.461 107.231 381.129C107.231 381.963 107.439 382.685 107.856 383.297C108.273 383.908 108.843 384.339 109.566 384.589C109.677 384.645 110.649 384.909 112.484 385.381C114.318 385.854 115.249 386.104 115.277 386.131C116.222 386.437 117.139 387.104 118.028 388.132C118.917 389.161 119.362 390.55 119.362 392.301C119.362 393.024 119.251 393.802 119.028 394.636C118.89 395.247 118.639 395.928 118.278 396.678C117.917 397.429 117.417 398.248 116.777 399.138C116.138 400.027 115.221 400.861 114.026 401.639C112.831 402.417 111.525 402.945 110.107 403.223C109.774 403.279 109.301 403.307 108.69 403.307C105.939 403.307 103.799 402.542 102.27 401.014L101.853 400.555L100.686 401.847C100.047 402.598 99.6579 403.029 99.5189 403.14C99.38 403.251 99.1993 403.307 98.977 403.307C98.6157 403.307 98.4351 403.195 98.4351 402.973C98.4351 402.89 99.241 399.624 100.853 393.177C100.908 393.01 101.186 392.926 101.687 392.926H102.229C102.395 393.093 102.479 393.246 102.479 393.385C102.479 393.441 102.465 393.566 102.437 393.76C102.409 393.955 102.354 394.247 102.27 394.636C102.187 395.025 102.159 395.483 102.187 396.011C102.242 397.095 102.493 398.012 102.937 398.763C103.382 399.513 103.979 400.069 104.73 400.43C105.48 400.791 106.203 401.042 106.898 401.18C107.592 401.319 108.329 401.389 109.107 401.389Z" fill="white"/>
<path d="M125.24 391.884C125.24 388.688 126.171 385.617 128.033 382.671C129.895 379.726 132.244 377.391 135.078 375.668C137.913 373.945 140.748 373.069 143.583 373.042C146.084 373.042 148.071 373.75 149.544 375.168C149.794 375.446 150.002 375.682 150.169 375.876C150.336 376.071 150.447 376.21 150.503 376.293L150.544 376.418C150.628 376.418 151.003 376.057 151.67 375.334C151.864 375.168 152.073 374.973 152.295 374.751C152.517 374.529 152.74 374.306 152.962 374.084C153.184 373.862 153.323 373.709 153.379 373.625L154.004 373H154.254C154.644 373 154.838 373.097 154.838 373.292C154.838 373.403 154.393 375.307 153.504 379.003C152.504 382.866 152.003 384.811 152.003 384.839C151.948 384.978 151.878 385.061 151.795 385.089C151.712 385.117 151.461 385.145 151.045 385.173H150.378C150.211 385.006 150.127 384.881 150.127 384.797C150.127 384.77 150.141 384.672 150.169 384.506C150.197 384.339 150.225 384.061 150.252 383.672C150.28 383.283 150.294 382.838 150.294 382.338C150.294 380.365 149.85 378.642 148.96 377.169C148.071 375.696 146.556 374.945 144.416 374.918C143.694 374.918 142.916 375.015 142.082 375.209C141.248 375.404 140.248 375.737 139.08 376.21C137.913 376.682 136.76 377.461 135.62 378.544C134.481 379.628 133.466 380.921 132.577 382.421C131.688 384.005 130.979 385.854 130.451 387.966C129.923 390.078 129.659 391.801 129.659 393.135C129.659 396.303 130.715 398.582 132.827 399.972C134.161 400.916 135.801 401.389 137.746 401.389C140.275 401.389 142.526 400.444 144.5 398.554C146.473 396.664 147.779 394.608 148.418 392.384C148.529 392.023 148.613 391.815 148.668 391.759C148.724 391.704 148.946 391.676 149.335 391.676C149.891 391.676 150.169 391.801 150.169 392.051C150.169 392.19 150.155 392.315 150.127 392.426C149.321 395.4 147.598 397.957 144.958 400.097C142.318 402.237 139.483 403.307 136.454 403.307C133.314 403.307 130.66 402.264 128.492 400.18C126.324 398.096 125.24 395.33 125.24 391.884Z" fill="white"/>
<path d="M168.753 387.924C168.753 387.563 168.948 387.285 169.337 387.09H195.892C196.309 387.313 196.517 387.591 196.517 387.924C196.517 388.23 196.322 388.494 195.933 388.716L182.677 388.758H169.42C168.976 388.619 168.753 388.341 168.753 387.924ZM168.753 396.011C168.753 395.594 168.976 395.317 169.42 395.178H195.933C196.322 395.456 196.517 395.733 196.517 396.011C196.517 396.373 196.309 396.651 195.892 396.845H169.337C168.948 396.651 168.753 396.373 168.753 396.011Z" fill="white"/>
<path d="M229.692 402.39C229.191 402.306 227.399 402.264 224.314 402.264C221.09 402.264 219.228 402.306 218.728 402.39H218.353V400.472H219.645C220.201 400.472 220.576 400.472 220.771 400.472C220.965 400.472 221.201 400.444 221.479 400.389C221.757 400.333 221.952 400.263 222.063 400.18C222.174 400.097 222.271 399.986 222.355 399.847C222.382 399.791 222.396 399.041 222.396 397.596V395.511H211.599V393.594L217.894 383.964C222.146 377.516 224.3 374.279 224.356 374.251C224.411 374.195 224.703 374.167 225.231 374.167H225.981L226.232 374.417V393.594H230.067V395.511H226.232V397.637C226.232 398.777 226.232 399.444 226.232 399.638C226.232 399.833 226.315 399.999 226.482 400.138C226.704 400.333 227.496 400.444 228.858 400.472H230.067V402.39H229.692ZM222.646 393.594V379.67L213.517 393.552L218.061 393.594H222.646Z" fill="white"/>
<path d="M266.801 401.18C266.801 401.736 266.509 402.014 265.926 402.014C265.787 402.014 265.481 401.792 265.009 401.347C264.536 400.903 263.23 399.61 261.09 397.47L256.755 393.135L252.377 397.512C249.432 400.402 247.917 401.875 247.833 401.931C247.722 401.986 247.625 402.014 247.542 402.014C247.319 402.014 247.125 401.931 246.958 401.764C246.791 401.597 246.694 401.403 246.666 401.18C246.666 400.986 246.861 400.68 247.25 400.263C247.639 399.846 248.945 398.526 251.168 396.303L255.504 391.968L251.168 387.632C248.917 385.381 247.611 384.061 247.25 383.672C246.889 383.283 246.694 382.977 246.666 382.755C246.666 382.505 246.75 382.31 246.916 382.171C247.083 382.032 247.292 381.963 247.542 381.963C247.681 381.963 247.778 381.977 247.833 382.004C247.917 382.06 249.432 383.533 252.377 386.423L256.755 390.8L261.09 386.465C263.23 384.325 264.536 383.033 265.009 382.588C265.481 382.143 265.787 381.921 265.926 381.921C266.509 381.921 266.801 382.199 266.801 382.755C266.801 382.949 266.662 383.199 266.384 383.505C266.106 383.811 264.745 385.173 262.299 387.59L257.963 391.968L262.299 396.345C264.633 398.679 265.967 400.027 266.301 400.388C266.634 400.75 266.801 401.014 266.801 401.18Z" fill="white"/>
<path d="M291.113 378.294L290.571 378.503C290.182 378.642 289.627 378.781 288.904 378.92C288.181 379.059 287.375 379.156 286.486 379.211H285.694V377.294H286.486C287.792 377.238 289.001 377.03 290.113 376.669C291.225 376.307 292.003 375.974 292.447 375.668C292.892 375.362 293.281 375.057 293.615 374.751C293.67 374.668 293.837 374.626 294.115 374.626C294.365 374.626 294.601 374.709 294.824 374.876V387.34L294.865 399.847C295.06 400.041 295.227 400.166 295.366 400.222C295.504 400.277 295.838 400.333 296.366 400.389C296.894 400.444 297.756 400.472 298.951 400.472H300.034V402.39H299.576C298.992 402.306 296.783 402.264 292.948 402.264C289.168 402.264 286.986 402.306 286.403 402.39H285.903V400.472H286.986C287.598 400.472 288.126 400.472 288.571 400.472C289.015 400.472 289.363 400.458 289.613 400.43C289.863 400.402 290.085 400.361 290.28 400.305C290.474 400.25 290.585 400.222 290.613 400.222C290.641 400.222 290.724 400.152 290.863 400.013C291.002 399.874 291.086 399.819 291.113 399.847V378.294Z" fill="white"/>
<path d="M307.079 378.002C308.636 375.751 310.762 374.626 313.457 374.626C314.791 374.626 316.125 374.987 317.459 375.71C318.793 376.432 319.877 377.711 320.711 379.545C321.739 381.852 322.253 385.02 322.253 389.05C322.253 393.357 321.656 396.65 320.461 398.929C319.905 400.097 319.141 401.028 318.168 401.722C317.195 402.417 316.348 402.848 315.625 403.015C314.903 403.181 314.194 403.279 313.499 403.307C312.777 403.307 312.054 403.223 311.331 403.056C310.609 402.89 309.761 402.445 308.788 401.722C307.816 401 307.051 400.069 306.496 398.929C305.301 396.65 304.703 393.357 304.703 389.05C304.703 384.214 305.495 380.531 307.079 378.002ZM316.459 377.502C315.625 376.613 314.639 376.168 313.499 376.168C312.332 376.168 311.331 376.613 310.498 377.502C309.803 378.225 309.344 379.225 309.122 380.504C308.9 381.782 308.788 384.45 308.788 388.508C308.788 392.899 308.9 395.789 309.122 397.179C309.344 398.568 309.845 399.666 310.623 400.472C311.401 401.306 312.36 401.722 313.499 401.722C314.611 401.722 315.556 401.306 316.334 400.472C317.14 399.638 317.64 398.471 317.835 396.97C318.029 395.469 318.14 392.649 318.168 388.508C318.168 384.478 318.057 381.824 317.835 380.545C317.612 379.267 317.154 378.253 316.459 377.502Z" fill="white"/>
<path d="M337.836 387.924C337.836 387.563 338.031 387.285 338.42 387.09H364.975C365.392 387.313 365.6 387.591 365.6 387.924C365.6 388.23 365.405 388.494 365.016 388.716L351.76 388.758H338.503C338.059 388.619 337.836 388.341 337.836 387.924ZM337.836 396.011C337.836 395.594 338.059 395.317 338.503 395.178H365.016C365.405 395.456 365.6 395.733 365.6 396.011C365.6 396.373 365.392 396.651 364.975 396.845H338.42C338.031 396.651 337.836 396.373 337.836 396.011Z" fill="white"/>
<path d="M398.775 402.39C398.274 402.306 396.482 402.264 393.397 402.264C390.173 402.264 388.311 402.306 387.811 402.39H387.436V400.472H388.728C389.284 400.472 389.659 400.472 389.854 400.472C390.048 400.472 390.284 400.444 390.562 400.389C390.84 400.333 391.035 400.263 391.146 400.18C391.257 400.097 391.354 399.986 391.438 399.847C391.465 399.791 391.479 399.041 391.479 397.596V395.511H380.682V393.594L386.977 383.964C391.229 377.516 393.383 374.279 393.439 374.251C393.494 374.195 393.786 374.167 394.314 374.167H395.064L395.315 374.417V393.594H399.15V395.511H395.315V397.637C395.315 398.777 395.315 399.444 395.315 399.638C395.315 399.833 395.398 399.999 395.565 400.138C395.787 400.333 396.579 400.444 397.941 400.472H399.15V402.39H398.775ZM391.729 393.594V379.67L382.6 393.552L387.144 393.594H391.729Z" fill="white"/>
<path d="M404.361 378.002C405.917 375.751 408.043 374.626 410.739 374.626C412.073 374.626 413.407 374.987 414.741 375.71C416.075 376.432 417.158 377.711 417.992 379.545C419.021 381.852 419.535 385.02 419.535 389.05C419.535 393.357 418.937 396.65 417.742 398.929C417.186 400.097 416.422 401.028 415.449 401.722C414.477 402.417 413.629 402.848 412.906 403.015C412.184 403.181 411.475 403.279 410.78 403.307C410.058 403.307 409.335 403.223 408.613 403.056C407.89 402.89 407.042 402.445 406.07 401.722C405.097 401 404.333 400.069 403.777 398.929C402.582 396.65 401.984 393.357 401.984 389.05C401.984 384.214 402.776 380.531 404.361 378.002ZM413.74 377.502C412.906 376.613 411.92 376.168 410.78 376.168C409.613 376.168 408.613 376.613 407.779 377.502C407.084 378.225 406.626 379.225 406.403 380.504C406.181 381.782 406.07 384.45 406.07 388.508C406.07 392.899 406.181 395.789 406.403 397.179C406.626 398.568 407.126 399.666 407.904 400.472C408.682 401.306 409.641 401.722 410.78 401.722C411.892 401.722 412.837 401.306 413.615 400.472C414.421 399.638 414.921 398.471 415.116 396.97C415.31 395.469 415.422 392.649 415.449 388.508C415.449 384.478 415.338 381.824 415.116 380.545C414.893 379.267 414.435 378.253 413.74 377.502Z" fill="white"/>
</svg>
