<svg viewBox="0 0 990 667" fill="none" xmlns="http://www.w3.org/2000/svg">
<g id="0127111">
<g id="enunciado">
<g id="Group 71">
<path id="Rectangle 1" d="M37 57.8717C37 27.5336 59.5821 2.93982 87.4386 2.93982H957V383.068C957 413.406 934.418 438 906.561 438H37V57.8717Z" fill="#02071A"/>
<path id="Rectangle 1 (Stroke)" fill-rule="evenodd" clip-rule="evenodd" d="M951.956 8.38786H87.4386C62.3678 8.38786 42.0439 30.5246 42.0439 57.8317V432.506H906.561C931.632 432.506 951.956 410.369 951.956 383.062V8.38786ZM87.4386 2.8941C59.5821 2.8941 37 27.4905 37 57.8317V438H906.561C934.418 438 957 413.403 957 383.062V2.8941H87.4386Z" fill="#CD08D1"/>
<path id="Rectangle 14" d="M91.6251 3.03843C118.602 -3.79803 957 3.03843 957 3.03843V32.6349C957 32.6349 77.351 21.7566 46.0791 32.6349C55.8095 16.9373 64.6481 9.87489 91.6251 3.03843Z" fill="#CD08D1"/>
<path id="Rectangle 15" d="M925.076 9.4068H955.065V384.2C951.384 409.634 943.755 418.982 925.076 431.184C930.573 411.203 925.076 9.4068 925.076 9.4068Z" fill="#CD08D1"/>
</g>
<g id="&#194;&#191;Cu&#195;&#161;ntos tri&#195;&#161;ngulos se pueden contar en total en la siguiente figura?">
<path d="M79.2656 63.0469C79.2539 64.2891 79.125 65.2852 78.8789 66.0352C78.6445 66.7734 78.2461 67.4883 77.6836 68.1797C77.1211 68.8711 76.3008 69.7852 75.2227 70.9219C74.1445 72.0469 73.541 73.1895 73.4121 74.3496L73.377 75C73.377 76.2773 73.7168 77.25 74.3965 77.918C75.0762 78.5977 76.0547 78.9375 77.332 78.9375C78.5039 78.9375 79.4531 78.6035 80.1797 77.9355C80.918 77.2793 81.2871 76.418 81.2871 75.3516H84.5391C84.5156 77.2383 83.8418 78.7793 82.5176 79.9746C81.2051 81.1699 79.4766 81.7676 77.332 81.7676C75.0352 81.7676 73.2598 81.1758 72.0059 79.9922C70.752 78.8203 70.125 77.1855 70.125 75.0879C70.125 73.0605 71.0625 71.0215 72.9375 68.9707L74.8535 66.9844C75.627 66.0703 76.0137 64.7578 76.0137 63.0469H79.2656ZM79.4062 57.4746C79.4062 58.002 79.2422 58.4473 78.9141 58.8105C78.5977 59.1738 78.123 59.3555 77.4902 59.3555C76.8574 59.3555 76.377 59.1738 76.0488 58.8105C75.7207 58.4473 75.5566 58.002 75.5566 57.4746C75.5566 56.959 75.7207 56.5254 76.0488 56.1738C76.377 55.8223 76.8574 55.6465 77.4902 55.6465C78.123 55.6465 78.5977 55.8223 78.9141 56.1738C79.2422 56.5254 79.4062 56.959 79.4062 57.4746Z" fill="white"/>
<path d="M107.777 66.8789C107.461 69.5859 106.459 71.6777 104.771 73.1543C103.096 74.6191 100.863 75.3516 98.0742 75.3516C95.0508 75.3516 92.625 74.2676 90.7969 72.0996C88.9805 69.9316 88.0723 67.0312 88.0723 63.3984V60.9375C88.0723 58.5586 88.4941 56.4668 89.3379 54.6621C90.1934 52.8574 91.4004 51.4746 92.959 50.5137C94.5176 49.541 96.3223 49.0547 98.373 49.0547C101.092 49.0547 103.271 49.8164 104.912 51.3398C106.553 52.8516 107.508 54.9492 107.777 57.6328H104.385C104.092 55.5938 103.453 54.1172 102.469 53.2031C101.496 52.2891 100.131 51.832 98.373 51.832C96.2168 51.832 94.5234 52.6289 93.293 54.2227C92.0742 55.8164 91.4648 58.084 91.4648 61.0254V63.5039C91.4648 66.2812 92.0449 68.4902 93.2051 70.1309C94.3652 71.7715 95.9883 72.5918 98.0742 72.5918C99.9492 72.5918 101.385 72.1699 102.381 71.3262C103.389 70.4707 104.057 68.9883 104.385 66.8789H107.777Z" fill="white"/>
<path d="M123.633 73.1191C122.367 74.6074 120.51 75.3516 118.061 75.3516C116.033 75.3516 114.486 74.7656 113.42 73.5938C112.365 72.4102 111.832 70.6641 111.82 68.3555V55.9805H115.072V68.2676C115.072 71.1504 116.244 72.5918 118.588 72.5918C121.072 72.5918 122.725 71.666 123.545 69.8145V55.9805H126.797V75H123.703L123.633 73.1191Z" fill="white"/>
<path d="M143.496 75C143.309 74.625 143.156 73.957 143.039 72.9961C141.527 74.5664 139.723 75.3516 137.625 75.3516C135.75 75.3516 134.209 74.8242 133.002 73.7695C131.807 72.7031 131.209 71.3555 131.209 69.7266C131.209 67.7461 131.959 66.2109 133.459 65.1211C134.971 64.0195 137.092 63.4688 139.822 63.4688H142.986V61.9746C142.986 60.8379 142.646 59.9355 141.967 59.2676C141.287 58.5879 140.285 58.248 138.961 58.248C137.801 58.248 136.828 58.541 136.043 59.127C135.258 59.7129 134.865 60.4219 134.865 61.2539H131.596C131.596 60.3047 131.93 59.3906 132.598 58.5117C133.277 57.6211 134.191 56.918 135.34 56.4023C136.5 55.8867 137.771 55.6289 139.154 55.6289C141.346 55.6289 143.062 56.1797 144.305 57.2812C145.547 58.3711 146.191 59.877 146.238 61.7988V70.5527C146.238 72.2988 146.461 73.6875 146.906 74.7188V75H143.496ZM138.1 72.5215C139.119 72.5215 140.086 72.2578 141 71.7305C141.914 71.2031 142.576 70.5176 142.986 69.6738V65.7715H140.438C136.453 65.7715 134.461 66.9375 134.461 69.2695C134.461 70.2891 134.801 71.0859 135.48 71.6602C136.16 72.2344 137.033 72.5215 138.1 72.5215ZM141.105 48H145.043L140.332 53.168H137.713L141.105 48Z" fill="white"/>
<path d="M154.412 55.9805L154.518 58.3711C155.971 56.543 157.869 55.6289 160.213 55.6289C164.232 55.6289 166.26 57.8965 166.295 62.4316V75H163.043V62.4141C163.031 61.043 162.715 60.0293 162.094 59.373C161.484 58.7168 160.529 58.3887 159.229 58.3887C158.174 58.3887 157.248 58.6699 156.451 59.2324C155.654 59.7949 155.033 60.5332 154.588 61.4473V75H151.336V55.9805H154.412Z" fill="white"/>
<path d="M175.611 51.375V55.9805H179.162V58.4941H175.611V70.2891C175.611 71.0508 175.77 71.625 176.086 72.0117C176.402 72.3867 176.941 72.5742 177.703 72.5742C178.078 72.5742 178.594 72.5039 179.25 72.3633V75C178.395 75.2344 177.562 75.3516 176.754 75.3516C175.301 75.3516 174.205 74.9121 173.467 74.0332C172.729 73.1543 172.359 71.9062 172.359 70.2891V58.4941H168.896V55.9805H172.359V51.375H175.611Z" fill="white"/>
<path d="M181.764 65.3145C181.764 63.4512 182.127 61.7754 182.854 60.2871C183.592 58.7988 184.611 57.6504 185.912 56.8418C187.225 56.0332 188.719 55.6289 190.395 55.6289C192.984 55.6289 195.076 56.5254 196.67 58.3184C198.275 60.1113 199.078 62.4961 199.078 65.4727V65.7012C199.078 67.5527 198.721 69.2168 198.006 70.6934C197.303 72.1582 196.289 73.3008 194.965 74.1211C193.652 74.9414 192.141 75.3516 190.43 75.3516C187.852 75.3516 185.76 74.4551 184.154 72.6621C182.561 70.8691 181.764 68.4961 181.764 65.543V65.3145ZM185.033 65.7012C185.033 67.8105 185.52 69.5039 186.492 70.7812C187.477 72.0586 188.789 72.6973 190.43 72.6973C192.082 72.6973 193.395 72.0527 194.367 70.7637C195.34 69.4629 195.826 67.6465 195.826 65.3145C195.826 63.2285 195.328 61.541 194.332 60.252C193.348 58.9512 192.035 58.3008 190.395 58.3008C188.789 58.3008 187.494 58.9395 186.51 60.2168C185.525 61.4941 185.033 63.3223 185.033 65.7012Z" fill="white"/>
<path d="M214.23 69.9551C214.23 69.0762 213.896 68.3965 213.229 67.916C212.572 67.4238 211.418 67.002 209.766 66.6504C208.125 66.2988 206.818 65.877 205.846 65.3848C204.885 64.8926 204.17 64.3066 203.701 63.627C203.244 62.9473 203.016 62.1387 203.016 61.2012C203.016 59.6426 203.672 58.3242 204.984 57.2461C206.309 56.168 207.996 55.6289 210.047 55.6289C212.203 55.6289 213.949 56.1855 215.285 57.2988C216.633 58.4121 217.307 59.8359 217.307 61.5703H214.037C214.037 60.6797 213.656 59.9121 212.895 59.2676C212.145 58.623 211.195 58.3008 210.047 58.3008C208.863 58.3008 207.938 58.5586 207.27 59.0742C206.602 59.5898 206.268 60.2637 206.268 61.0957C206.268 61.8809 206.578 62.4727 207.199 62.8711C207.82 63.2695 208.939 63.6504 210.557 64.0137C212.186 64.377 213.504 64.8105 214.512 65.3145C215.52 65.8184 216.264 66.4277 216.744 67.1426C217.236 67.8457 217.482 68.707 217.482 69.7266C217.482 71.4258 216.803 72.791 215.443 73.8223C214.084 74.8418 212.32 75.3516 210.152 75.3516C208.629 75.3516 207.281 75.082 206.109 74.543C204.938 74.0039 204.018 73.2539 203.35 72.293C202.693 71.3203 202.365 70.2715 202.365 69.1465H205.617C205.676 70.2363 206.109 71.1035 206.918 71.748C207.738 72.3809 208.816 72.6973 210.152 72.6973C211.383 72.6973 212.367 72.4512 213.105 71.959C213.855 71.4551 214.23 70.7871 214.23 69.9551Z" fill="white"/>
<path d="M235.061 51.375V55.9805H238.611V58.4941H235.061V70.2891C235.061 71.0508 235.219 71.625 235.535 72.0117C235.852 72.3867 236.391 72.5742 237.152 72.5742C237.527 72.5742 238.043 72.5039 238.699 72.3633V75C237.844 75.2344 237.012 75.3516 236.203 75.3516C234.75 75.3516 233.654 74.9121 232.916 74.0332C232.178 73.1543 231.809 71.9062 231.809 70.2891V58.4941H228.346V55.9805H231.809V51.375H235.061Z" fill="white"/>
<path d="M251.619 58.8984C251.127 58.8164 250.594 58.7754 250.02 58.7754C247.887 58.7754 246.439 59.6836 245.678 61.5V75H242.426V55.9805H245.59L245.643 58.1777C246.709 56.4785 248.221 55.6289 250.178 55.6289C250.811 55.6289 251.291 55.7109 251.619 55.875V58.8984Z" fill="white"/>
<path d="M258.158 75H254.906V55.9805H258.158V75ZM254.643 50.9355C254.643 50.4082 254.801 49.9629 255.117 49.5996C255.445 49.2363 255.926 49.0547 256.559 49.0547C257.191 49.0547 257.672 49.2363 258 49.5996C258.328 49.9629 258.492 50.4082 258.492 50.9355C258.492 51.4629 258.328 51.9023 258 52.2539C257.672 52.6055 257.191 52.7812 256.559 52.7812C255.926 52.7812 255.445 52.6055 255.117 52.2539C254.801 51.9023 254.643 51.4629 254.643 50.9355Z" fill="white"/>
<path d="M275.121 75C274.934 74.625 274.781 73.957 274.664 72.9961C273.152 74.5664 271.348 75.3516 269.25 75.3516C267.375 75.3516 265.834 74.8242 264.627 73.7695C263.432 72.7031 262.834 71.3555 262.834 69.7266C262.834 67.7461 263.584 66.2109 265.084 65.1211C266.596 64.0195 268.717 63.4688 271.447 63.4688H274.611V61.9746C274.611 60.8379 274.271 59.9355 273.592 59.2676C272.912 58.5879 271.91 58.248 270.586 58.248C269.426 58.248 268.453 58.541 267.668 59.127C266.883 59.7129 266.49 60.4219 266.49 61.2539H263.221C263.221 60.3047 263.555 59.3906 264.223 58.5117C264.902 57.6211 265.816 56.918 266.965 56.4023C268.125 55.8867 269.396 55.6289 270.779 55.6289C272.971 55.6289 274.688 56.1797 275.93 57.2812C277.172 58.3711 277.816 59.877 277.863 61.7988V70.5527C277.863 72.2988 278.086 73.6875 278.531 74.7188V75H275.121ZM269.725 72.5215C270.744 72.5215 271.711 72.2578 272.625 71.7305C273.539 71.2031 274.201 70.5176 274.611 69.6738V65.7715H272.062C268.078 65.7715 266.086 66.9375 266.086 69.2695C266.086 70.2891 266.426 71.0859 267.105 71.6602C267.785 72.2344 268.658 72.5215 269.725 72.5215ZM272.73 48H276.668L271.957 53.168H269.338L272.73 48Z" fill="white"/>
<path d="M286.037 55.9805L286.143 58.3711C287.596 56.543 289.494 55.6289 291.838 55.6289C295.857 55.6289 297.885 57.8965 297.92 62.4316V75H294.668V62.4141C294.656 61.043 294.34 60.0293 293.719 59.373C293.109 58.7168 292.154 58.3887 290.854 58.3887C289.799 58.3887 288.873 58.6699 288.076 59.2324C287.279 59.7949 286.658 60.5332 286.213 61.4473V75H282.961V55.9805H286.037Z" fill="white"/>
<path d="M302.051 65.332C302.051 62.3672 302.736 60.0117 304.107 58.2656C305.479 56.5078 307.295 55.6289 309.557 55.6289C311.877 55.6289 313.688 56.4492 314.988 58.0898L315.146 55.9805H318.117V74.543C318.117 77.0039 317.385 78.9434 315.92 80.3613C314.467 81.7793 312.51 82.4883 310.049 82.4883C308.678 82.4883 307.336 82.1953 306.023 81.6094C304.711 81.0234 303.709 80.2207 303.018 79.2012L304.705 77.25C306.1 78.9727 307.805 79.834 309.82 79.834C311.402 79.834 312.633 79.3887 313.512 78.498C314.402 77.6074 314.848 76.3535 314.848 74.7363V73.1016C313.547 74.6016 311.771 75.3516 309.521 75.3516C307.295 75.3516 305.49 74.4551 304.107 72.6621C302.736 70.8691 302.051 68.4258 302.051 65.332ZM305.32 65.7012C305.32 67.8457 305.76 69.5332 306.639 70.7637C307.518 71.9824 308.748 72.5918 310.33 72.5918C312.381 72.5918 313.887 71.6602 314.848 69.7969V61.1133C313.852 59.2969 312.357 58.3887 310.365 58.3887C308.783 58.3887 307.547 59.0039 306.656 60.2344C305.766 61.4648 305.32 63.2871 305.32 65.7012Z" fill="white"/>
<path d="M334.781 73.1191C333.516 74.6074 331.658 75.3516 329.209 75.3516C327.182 75.3516 325.635 74.7656 324.568 73.5938C323.514 72.4102 322.98 70.6641 322.969 68.3555V55.9805H326.221V68.2676C326.221 71.1504 327.393 72.5918 329.736 72.5918C332.221 72.5918 333.873 71.666 334.693 69.8145V55.9805H337.945V75H334.852L334.781 73.1191Z" fill="white"/>
<path d="M346.436 75H343.184V48H346.436V75Z" fill="white"/>
<path d="M350.795 65.3145C350.795 63.4512 351.158 61.7754 351.885 60.2871C352.623 58.7988 353.643 57.6504 354.943 56.8418C356.256 56.0332 357.75 55.6289 359.426 55.6289C362.016 55.6289 364.107 56.5254 365.701 58.3184C367.307 60.1113 368.109 62.4961 368.109 65.4727V65.7012C368.109 67.5527 367.752 69.2168 367.037 70.6934C366.334 72.1582 365.32 73.3008 363.996 74.1211C362.684 74.9414 361.172 75.3516 359.461 75.3516C356.883 75.3516 354.791 74.4551 353.186 72.6621C351.592 70.8691 350.795 68.4961 350.795 65.543V65.3145ZM354.064 65.7012C354.064 67.8105 354.551 69.5039 355.523 70.7812C356.508 72.0586 357.82 72.6973 359.461 72.6973C361.113 72.6973 362.426 72.0527 363.398 70.7637C364.371 69.4629 364.857 67.6465 364.857 65.3145C364.857 63.2285 364.359 61.541 363.363 60.252C362.379 58.9512 361.066 58.3008 359.426 58.3008C357.82 58.3008 356.525 58.9395 355.541 60.2168C354.557 61.4941 354.064 63.3223 354.064 65.7012Z" fill="white"/>
<path d="M383.262 69.9551C383.262 69.0762 382.928 68.3965 382.26 67.916C381.604 67.4238 380.449 67.002 378.797 66.6504C377.156 66.2988 375.85 65.877 374.877 65.3848C373.916 64.8926 373.201 64.3066 372.732 63.627C372.275 62.9473 372.047 62.1387 372.047 61.2012C372.047 59.6426 372.703 58.3242 374.016 57.2461C375.34 56.168 377.027 55.6289 379.078 55.6289C381.234 55.6289 382.98 56.1855 384.316 57.2988C385.664 58.4121 386.338 59.8359 386.338 61.5703H383.068C383.068 60.6797 382.688 59.9121 381.926 59.2676C381.176 58.623 380.227 58.3008 379.078 58.3008C377.895 58.3008 376.969 58.5586 376.301 59.0742C375.633 59.5898 375.299 60.2637 375.299 61.0957C375.299 61.8809 375.609 62.4727 376.23 62.8711C376.852 63.2695 377.971 63.6504 379.588 64.0137C381.217 64.377 382.535 64.8105 383.543 65.3145C384.551 65.8184 385.295 66.4277 385.775 67.1426C386.268 67.8457 386.514 68.707 386.514 69.7266C386.514 71.4258 385.834 72.791 384.475 73.8223C383.115 74.8418 381.352 75.3516 379.184 75.3516C377.66 75.3516 376.312 75.082 375.141 74.543C373.969 74.0039 373.049 73.2539 372.381 72.293C371.725 71.3203 371.396 70.2715 371.396 69.1465H374.648C374.707 70.2363 375.141 71.1035 375.949 71.748C376.77 72.3809 377.848 72.6973 379.184 72.6973C380.414 72.6973 381.398 72.4512 382.137 71.959C382.887 71.4551 383.262 70.7871 383.262 69.9551Z" fill="white"/>
<path d="M410.754 69.9551C410.754 69.0762 410.42 68.3965 409.752 67.916C409.096 67.4238 407.941 67.002 406.289 66.6504C404.648 66.2988 403.342 65.877 402.369 65.3848C401.408 64.8926 400.693 64.3066 400.225 63.627C399.768 62.9473 399.539 62.1387 399.539 61.2012C399.539 59.6426 400.195 58.3242 401.508 57.2461C402.832 56.168 404.52 55.6289 406.57 55.6289C408.727 55.6289 410.473 56.1855 411.809 57.2988C413.156 58.4121 413.83 59.8359 413.83 61.5703H410.561C410.561 60.6797 410.18 59.9121 409.418 59.2676C408.668 58.623 407.719 58.3008 406.57 58.3008C405.387 58.3008 404.461 58.5586 403.793 59.0742C403.125 59.5898 402.791 60.2637 402.791 61.0957C402.791 61.8809 403.102 62.4727 403.723 62.8711C404.344 63.2695 405.463 63.6504 407.08 64.0137C408.709 64.377 410.027 64.8105 411.035 65.3145C412.043 65.8184 412.787 66.4277 413.268 67.1426C413.76 67.8457 414.006 68.707 414.006 69.7266C414.006 71.4258 413.326 72.791 411.967 73.8223C410.607 74.8418 408.844 75.3516 406.676 75.3516C405.152 75.3516 403.805 75.082 402.633 74.543C401.461 74.0039 400.541 73.2539 399.873 72.293C399.217 71.3203 398.889 70.2715 398.889 69.1465H402.141C402.199 70.2363 402.633 71.1035 403.441 71.748C404.262 72.3809 405.34 72.6973 406.676 72.6973C407.906 72.6973 408.891 72.4512 409.629 71.959C410.379 71.4551 410.754 70.7871 410.754 69.9551Z" fill="white"/>
<path d="M426.135 75.3516C423.557 75.3516 421.459 74.5078 419.842 72.8203C418.225 71.1211 417.416 68.8535 417.416 66.0176V65.4199C417.416 63.5332 417.773 61.8516 418.488 60.375C419.215 58.8867 420.223 57.7266 421.512 56.8945C422.812 56.0508 424.219 55.6289 425.73 55.6289C428.203 55.6289 430.125 56.4434 431.496 58.0723C432.867 59.7012 433.553 62.0332 433.553 65.0684V66.4219H420.668C420.715 68.2969 421.26 69.8145 422.303 70.9746C423.357 72.123 424.693 72.6973 426.311 72.6973C427.459 72.6973 428.432 72.4629 429.229 71.9941C430.025 71.5254 430.723 70.9043 431.32 70.1309L433.307 71.6777C431.713 74.127 429.322 75.3516 426.135 75.3516ZM425.73 58.3008C424.418 58.3008 423.316 58.7812 422.426 59.7422C421.535 60.6914 420.984 62.0273 420.773 63.75H430.301V63.5039C430.207 61.8516 429.762 60.5742 428.965 59.6719C428.168 58.7578 427.09 58.3008 425.73 58.3008Z" fill="white"/>
<path d="M462.328 65.7012C462.328 68.5957 461.666 70.9277 460.342 72.6973C459.018 74.4668 457.225 75.3516 454.963 75.3516C452.654 75.3516 450.838 74.6191 449.514 73.1543V82.3125H446.262V55.9805H449.232L449.391 58.0898C450.715 56.4492 452.555 55.6289 454.91 55.6289C457.195 55.6289 459 56.4902 460.324 58.2129C461.66 59.9355 462.328 62.332 462.328 65.4023V65.7012ZM459.076 65.332C459.076 63.1875 458.619 61.4941 457.705 60.252C456.791 59.0098 455.537 58.3887 453.943 58.3887C451.975 58.3887 450.498 59.2617 449.514 61.0078V70.0957C450.486 71.8301 451.975 72.6973 453.979 72.6973C455.537 72.6973 456.773 72.082 457.688 70.8516C458.613 69.6094 459.076 67.7695 459.076 65.332Z" fill="white"/>
<path d="M478.219 73.1191C476.953 74.6074 475.096 75.3516 472.646 75.3516C470.619 75.3516 469.072 74.7656 468.006 73.5938C466.951 72.4102 466.418 70.6641 466.406 68.3555V55.9805H469.658V68.2676C469.658 71.1504 470.83 72.5918 473.174 72.5918C475.658 72.5918 477.311 71.666 478.131 69.8145V55.9805H481.383V75H478.289L478.219 73.1191Z" fill="white"/>
<path d="M494.232 75.3516C491.654 75.3516 489.557 74.5078 487.939 72.8203C486.322 71.1211 485.514 68.8535 485.514 66.0176V65.4199C485.514 63.5332 485.871 61.8516 486.586 60.375C487.312 58.8867 488.32 57.7266 489.609 56.8945C490.91 56.0508 492.316 55.6289 493.828 55.6289C496.301 55.6289 498.223 56.4434 499.594 58.0723C500.965 59.7012 501.65 62.0332 501.65 65.0684V66.4219H488.766C488.812 68.2969 489.357 69.8145 490.4 70.9746C491.455 72.123 492.791 72.6973 494.408 72.6973C495.557 72.6973 496.529 72.4629 497.326 71.9941C498.123 71.5254 498.82 70.9043 499.418 70.1309L501.404 71.6777C499.811 74.127 497.42 75.3516 494.232 75.3516ZM493.828 58.3008C492.516 58.3008 491.414 58.7812 490.523 59.7422C489.633 60.6914 489.082 62.0273 488.871 63.75H498.398V63.5039C498.305 61.8516 497.859 60.5742 497.062 59.6719C496.266 58.7578 495.188 58.3008 493.828 58.3008Z" fill="white"/>
<path d="M504.639 65.332C504.639 62.4141 505.33 60.0703 506.713 58.3008C508.096 56.5195 509.906 55.6289 512.145 55.6289C514.371 55.6289 516.135 56.3906 517.436 57.9141V48H520.688V75H517.699L517.541 72.9609C516.24 74.5547 514.43 75.3516 512.109 75.3516C509.906 75.3516 508.107 74.4492 506.713 72.6445C505.33 70.8398 504.639 68.4844 504.639 65.5781V65.332ZM507.891 65.7012C507.891 67.8574 508.336 69.5449 509.227 70.7637C510.117 71.9824 511.348 72.5918 512.918 72.5918C514.98 72.5918 516.486 71.666 517.436 69.8145V61.0781C516.463 59.2852 514.969 58.3887 512.953 58.3887C511.359 58.3887 510.117 59.0039 509.227 60.2344C508.336 61.4648 507.891 63.2871 507.891 65.7012Z" fill="white"/>
<path d="M533.643 75.3516C531.064 75.3516 528.967 74.5078 527.35 72.8203C525.732 71.1211 524.924 68.8535 524.924 66.0176V65.4199C524.924 63.5332 525.281 61.8516 525.996 60.375C526.723 58.8867 527.73 57.7266 529.02 56.8945C530.32 56.0508 531.727 55.6289 533.238 55.6289C535.711 55.6289 537.633 56.4434 539.004 58.0723C540.375 59.7012 541.061 62.0332 541.061 65.0684V66.4219H528.176C528.223 68.2969 528.768 69.8145 529.811 70.9746C530.865 72.123 532.201 72.6973 533.818 72.6973C534.967 72.6973 535.939 72.4629 536.736 71.9941C537.533 71.5254 538.23 70.9043 538.828 70.1309L540.814 71.6777C539.221 74.127 536.83 75.3516 533.643 75.3516ZM533.238 58.3008C531.926 58.3008 530.824 58.7812 529.934 59.7422C529.043 60.6914 528.492 62.0273 528.281 63.75H537.809V63.5039C537.715 61.8516 537.27 60.5742 536.473 59.6719C535.676 58.7578 534.598 58.3008 533.238 58.3008Z" fill="white"/>
<path d="M547.916 55.9805L548.021 58.3711C549.475 56.543 551.373 55.6289 553.717 55.6289C557.736 55.6289 559.764 57.8965 559.799 62.4316V75H556.547V62.4141C556.535 61.043 556.219 60.0293 555.598 59.373C554.988 58.7168 554.033 58.3887 552.732 58.3887C551.678 58.3887 550.752 58.6699 549.955 59.2324C549.158 59.7949 548.537 60.5332 548.092 61.4473V75H544.84V55.9805H547.916Z" fill="white"/>
<path d="M581.262 72.6973C582.422 72.6973 583.436 72.3457 584.303 71.6426C585.17 70.9395 585.65 70.0605 585.744 69.0059H588.82C588.762 70.0957 588.387 71.1328 587.695 72.1172C587.004 73.1016 586.078 73.8867 584.918 74.4727C583.77 75.0586 582.551 75.3516 581.262 75.3516C578.672 75.3516 576.609 74.4902 575.074 72.7676C573.551 71.0332 572.789 68.666 572.789 65.666V65.1211C572.789 63.2695 573.129 61.623 573.809 60.1816C574.488 58.7402 575.461 57.6211 576.727 56.8242C578.004 56.0273 579.51 55.6289 581.244 55.6289C583.377 55.6289 585.146 56.2676 586.553 57.5449C587.971 58.8223 588.727 60.4805 588.82 62.5195H585.744C585.65 61.2891 585.182 60.2812 584.338 59.4961C583.506 58.6992 582.475 58.3008 581.244 58.3008C579.592 58.3008 578.309 58.8984 577.395 60.0938C576.492 61.2773 576.041 62.9941 576.041 65.2441V65.8594C576.041 68.0508 576.492 69.7383 577.395 70.9219C578.297 72.1055 579.586 72.6973 581.262 72.6973Z" fill="white"/>
<path d="M591.615 65.3145C591.615 63.4512 591.979 61.7754 592.705 60.2871C593.443 58.7988 594.463 57.6504 595.764 56.8418C597.076 56.0332 598.57 55.6289 600.246 55.6289C602.836 55.6289 604.928 56.5254 606.521 58.3184C608.127 60.1113 608.93 62.4961 608.93 65.4727V65.7012C608.93 67.5527 608.572 69.2168 607.857 70.6934C607.154 72.1582 606.141 73.3008 604.816 74.1211C603.504 74.9414 601.992 75.3516 600.281 75.3516C597.703 75.3516 595.611 74.4551 594.006 72.6621C592.412 70.8691 591.615 68.4961 591.615 65.543V65.3145ZM594.885 65.7012C594.885 67.8105 595.371 69.5039 596.344 70.7812C597.328 72.0586 598.641 72.6973 600.281 72.6973C601.934 72.6973 603.246 72.0527 604.219 70.7637C605.191 69.4629 605.678 67.6465 605.678 65.3145C605.678 63.2285 605.18 61.541 604.184 60.252C603.199 58.9512 601.887 58.3008 600.246 58.3008C598.641 58.3008 597.346 58.9395 596.361 60.2168C595.377 61.4941 594.885 63.3223 594.885 65.7012Z" fill="white"/>
<path d="M616.084 55.9805L616.189 58.3711C617.643 56.543 619.541 55.6289 621.885 55.6289C625.904 55.6289 627.932 57.8965 627.967 62.4316V75H624.715V62.4141C624.703 61.043 624.387 60.0293 623.766 59.373C623.156 58.7168 622.201 58.3887 620.9 58.3887C619.846 58.3887 618.92 58.6699 618.123 59.2324C617.326 59.7949 616.705 60.5332 616.26 61.4473V75H613.008V55.9805H616.084Z" fill="white"/>
<path d="M637.283 51.375V55.9805H640.834V58.4941H637.283V70.2891C637.283 71.0508 637.441 71.625 637.758 72.0117C638.074 72.3867 638.613 72.5742 639.375 72.5742C639.75 72.5742 640.266 72.5039 640.922 72.3633V75C640.066 75.2344 639.234 75.3516 638.426 75.3516C636.973 75.3516 635.877 74.9121 635.139 74.0332C634.4 73.1543 634.031 71.9062 634.031 70.2891V58.4941H630.568V55.9805H634.031V51.375H637.283Z" fill="white"/>
<path d="M656.391 75C656.203 74.625 656.051 73.957 655.934 72.9961C654.422 74.5664 652.617 75.3516 650.52 75.3516C648.645 75.3516 647.104 74.8242 645.896 73.7695C644.701 72.7031 644.104 71.3555 644.104 69.7266C644.104 67.7461 644.854 66.2109 646.354 65.1211C647.865 64.0195 649.986 63.4688 652.717 63.4688H655.881V61.9746C655.881 60.8379 655.541 59.9355 654.861 59.2676C654.182 58.5879 653.18 58.248 651.855 58.248C650.695 58.248 649.723 58.541 648.938 59.127C648.152 59.7129 647.76 60.4219 647.76 61.2539H644.49C644.49 60.3047 644.824 59.3906 645.492 58.5117C646.172 57.6211 647.086 56.918 648.234 56.4023C649.395 55.8867 650.666 55.6289 652.049 55.6289C654.24 55.6289 655.957 56.1797 657.199 57.2812C658.441 58.3711 659.086 59.877 659.133 61.7988V70.5527C659.133 72.2988 659.355 73.6875 659.801 74.7188V75H656.391ZM650.994 72.5215C652.014 72.5215 652.98 72.2578 653.895 71.7305C654.809 71.2031 655.471 70.5176 655.881 69.6738V65.7715H653.332C649.348 65.7715 647.355 66.9375 647.355 69.2695C647.355 70.2891 647.695 71.0859 648.375 71.6602C649.055 72.2344 649.928 72.5215 650.994 72.5215Z" fill="white"/>
<path d="M673.424 58.8984C672.932 58.8164 672.398 58.7754 671.824 58.7754C669.691 58.7754 668.244 59.6836 667.482 61.5V75H664.23V55.9805H667.395L667.447 58.1777C668.514 56.4785 670.025 55.6289 671.982 55.6289C672.615 55.6289 673.096 55.7109 673.424 55.875V58.8984Z" fill="white"/>
<path d="M693.252 75.3516C690.674 75.3516 688.576 74.5078 686.959 72.8203C685.342 71.1211 684.533 68.8535 684.533 66.0176V65.4199C684.533 63.5332 684.891 61.8516 685.605 60.375C686.332 58.8867 687.34 57.7266 688.629 56.8945C689.93 56.0508 691.336 55.6289 692.848 55.6289C695.32 55.6289 697.242 56.4434 698.613 58.0723C699.984 59.7012 700.67 62.0332 700.67 65.0684V66.4219H687.785C687.832 68.2969 688.377 69.8145 689.42 70.9746C690.475 72.123 691.811 72.6973 693.428 72.6973C694.576 72.6973 695.549 72.4629 696.346 71.9941C697.143 71.5254 697.84 70.9043 698.438 70.1309L700.424 71.6777C698.83 74.127 696.439 75.3516 693.252 75.3516ZM692.848 58.3008C691.535 58.3008 690.434 58.7812 689.543 59.7422C688.652 60.6914 688.102 62.0273 687.891 63.75H697.418V63.5039C697.324 61.8516 696.879 60.5742 696.082 59.6719C695.285 58.7578 694.207 58.3008 692.848 58.3008Z" fill="white"/>
<path d="M707.525 55.9805L707.631 58.3711C709.084 56.543 710.982 55.6289 713.326 55.6289C717.346 55.6289 719.373 57.8965 719.408 62.4316V75H716.156V62.4141C716.145 61.043 715.828 60.0293 715.207 59.373C714.598 58.7168 713.643 58.3887 712.342 58.3887C711.287 58.3887 710.361 58.6699 709.564 59.2324C708.768 59.7949 708.146 60.5332 707.701 61.4473V75H704.449V55.9805H707.525Z" fill="white"/>
<path d="M737.654 51.375V55.9805H741.205V58.4941H737.654V70.2891C737.654 71.0508 737.812 71.625 738.129 72.0117C738.445 72.3867 738.984 72.5742 739.746 72.5742C740.121 72.5742 740.637 72.5039 741.293 72.3633V75C740.438 75.2344 739.605 75.3516 738.797 75.3516C737.344 75.3516 736.248 74.9121 735.51 74.0332C734.771 73.1543 734.402 71.9062 734.402 70.2891V58.4941H730.939V55.9805H734.402V51.375H737.654Z" fill="white"/>
<path d="M743.807 65.3145C743.807 63.4512 744.17 61.7754 744.896 60.2871C745.635 58.7988 746.654 57.6504 747.955 56.8418C749.268 56.0332 750.762 55.6289 752.438 55.6289C755.027 55.6289 757.119 56.5254 758.713 58.3184C760.318 60.1113 761.121 62.4961 761.121 65.4727V65.7012C761.121 67.5527 760.764 69.2168 760.049 70.6934C759.346 72.1582 758.332 73.3008 757.008 74.1211C755.695 74.9414 754.184 75.3516 752.473 75.3516C749.895 75.3516 747.803 74.4551 746.197 72.6621C744.604 70.8691 743.807 68.4961 743.807 65.543V65.3145ZM747.076 65.7012C747.076 67.8105 747.562 69.5039 748.535 70.7812C749.52 72.0586 750.832 72.6973 752.473 72.6973C754.125 72.6973 755.438 72.0527 756.41 70.7637C757.383 69.4629 757.869 67.6465 757.869 65.3145C757.869 63.2285 757.371 61.541 756.375 60.252C755.391 58.9512 754.078 58.3008 752.438 58.3008C750.832 58.3008 749.537 58.9395 748.553 60.2168C747.568 61.4941 747.076 63.3223 747.076 65.7012Z" fill="white"/>
<path d="M769.611 51.375V55.9805H773.162V58.4941H769.611V70.2891C769.611 71.0508 769.77 71.625 770.086 72.0117C770.402 72.3867 770.941 72.5742 771.703 72.5742C772.078 72.5742 772.594 72.5039 773.25 72.3633V75C772.395 75.2344 771.562 75.3516 770.754 75.3516C769.301 75.3516 768.205 74.9121 767.467 74.0332C766.729 73.1543 766.359 71.9062 766.359 70.2891V58.4941H762.896V55.9805H766.359V51.375H769.611Z" fill="white"/>
<path d="M788.719 75C788.531 74.625 788.379 73.957 788.262 72.9961C786.75 74.5664 784.945 75.3516 782.848 75.3516C780.973 75.3516 779.432 74.8242 778.225 73.7695C777.029 72.7031 776.432 71.3555 776.432 69.7266C776.432 67.7461 777.182 66.2109 778.682 65.1211C780.193 64.0195 782.314 63.4688 785.045 63.4688H788.209V61.9746C788.209 60.8379 787.869 59.9355 787.189 59.2676C786.51 58.5879 785.508 58.248 784.184 58.248C783.023 58.248 782.051 58.541 781.266 59.127C780.48 59.7129 780.088 60.4219 780.088 61.2539H776.818C776.818 60.3047 777.152 59.3906 777.82 58.5117C778.5 57.6211 779.414 56.918 780.562 56.4023C781.723 55.8867 782.994 55.6289 784.377 55.6289C786.568 55.6289 788.285 56.1797 789.527 57.2812C790.77 58.3711 791.414 59.877 791.461 61.7988V70.5527C791.461 72.2988 791.684 73.6875 792.129 74.7188V75H788.719ZM783.322 72.5215C784.342 72.5215 785.309 72.2578 786.223 71.7305C787.137 71.2031 787.799 70.5176 788.209 69.6738V65.7715H785.66C781.676 65.7715 779.684 66.9375 779.684 69.2695C779.684 70.2891 780.023 71.0859 780.703 71.6602C781.383 72.2344 782.256 72.5215 783.322 72.5215Z" fill="white"/>
<path d="M800.092 75H796.84V48H800.092V75Z" fill="white"/>
<path d="M822.135 75.3516C819.557 75.3516 817.459 74.5078 815.842 72.8203C814.225 71.1211 813.416 68.8535 813.416 66.0176V65.4199C813.416 63.5332 813.773 61.8516 814.488 60.375C815.215 58.8867 816.223 57.7266 817.512 56.8945C818.812 56.0508 820.219 55.6289 821.73 55.6289C824.203 55.6289 826.125 56.4434 827.496 58.0723C828.867 59.7012 829.553 62.0332 829.553 65.0684V66.4219H816.668C816.715 68.2969 817.26 69.8145 818.303 70.9746C819.357 72.123 820.693 72.6973 822.311 72.6973C823.459 72.6973 824.432 72.4629 825.229 71.9941C826.025 71.5254 826.723 70.9043 827.32 70.1309L829.307 71.6777C827.713 74.127 825.322 75.3516 822.135 75.3516ZM821.73 58.3008C820.418 58.3008 819.316 58.7812 818.426 59.7422C817.535 60.6914 816.984 62.0273 816.773 63.75H826.301V63.5039C826.207 61.8516 825.762 60.5742 824.965 59.6719C824.168 58.7578 823.09 58.3008 821.73 58.3008Z" fill="white"/>
<path d="M836.408 55.9805L836.514 58.3711C837.967 56.543 839.865 55.6289 842.209 55.6289C846.229 55.6289 848.256 57.8965 848.291 62.4316V75H845.039V62.4141C845.027 61.043 844.711 60.0293 844.09 59.373C843.48 58.7168 842.525 58.3887 841.225 58.3887C840.17 58.3887 839.244 58.6699 838.447 59.2324C837.65 59.7949 837.029 60.5332 836.584 61.4473V75H833.332V55.9805H836.408Z" fill="white"/>
<path d="M865.658 75H862.406V48H865.658V75Z" fill="white"/>
<path d="M882.621 75C882.434 74.625 882.281 73.957 882.164 72.9961C880.652 74.5664 878.848 75.3516 876.75 75.3516C874.875 75.3516 873.334 74.8242 872.127 73.7695C870.932 72.7031 870.334 71.3555 870.334 69.7266C870.334 67.7461 871.084 66.2109 872.584 65.1211C874.096 64.0195 876.217 63.4688 878.947 63.4688H882.111V61.9746C882.111 60.8379 881.771 59.9355 881.092 59.2676C880.412 58.5879 879.41 58.248 878.086 58.248C876.926 58.248 875.953 58.541 875.168 59.127C874.383 59.7129 873.99 60.4219 873.99 61.2539H870.721C870.721 60.3047 871.055 59.3906 871.723 58.5117C872.402 57.6211 873.316 56.918 874.465 56.4023C875.625 55.8867 876.896 55.6289 878.279 55.6289C880.471 55.6289 882.188 56.1797 883.43 57.2812C884.672 58.3711 885.316 59.877 885.363 61.7988V70.5527C885.363 72.2988 885.586 73.6875 886.031 74.7188V75H882.621ZM877.225 72.5215C878.244 72.5215 879.211 72.2578 880.125 71.7305C881.039 71.2031 881.701 70.5176 882.111 69.6738V65.7715H879.562C875.578 65.7715 873.586 66.9375 873.586 69.2695C873.586 70.2891 873.926 71.0859 874.605 71.6602C875.285 72.2344 876.158 72.5215 877.225 72.5215Z" fill="white"/>
<path d="M73.5352 111.955C73.5352 111.076 73.2012 110.396 72.5332 109.916C71.877 109.424 70.7227 109.002 69.0703 108.65C67.4297 108.299 66.123 107.877 65.1504 107.385C64.1895 106.893 63.4746 106.307 63.0059 105.627C62.5488 104.947 62.3203 104.139 62.3203 103.201C62.3203 101.643 62.9766 100.324 64.2891 99.2461C65.6133 98.168 67.3008 97.6289 69.3516 97.6289C71.5078 97.6289 73.2539 98.1855 74.5898 99.2988C75.9375 100.412 76.6113 101.836 76.6113 103.57H73.3418C73.3418 102.68 72.9609 101.912 72.1992 101.268C71.4492 100.623 70.5 100.301 69.3516 100.301C68.168 100.301 67.2422 100.559 66.5742 101.074C65.9062 101.59 65.5723 102.264 65.5723 103.096C65.5723 103.881 65.8828 104.473 66.5039 104.871C67.125 105.27 68.2441 105.65 69.8613 106.014C71.4902 106.377 72.8086 106.811 73.8164 107.314C74.8242 107.818 75.5684 108.428 76.0488 109.143C76.541 109.846 76.7871 110.707 76.7871 111.727C76.7871 113.426 76.1074 114.791 74.748 115.822C73.3887 116.842 71.625 117.352 69.457 117.352C67.9336 117.352 66.5859 117.082 65.4141 116.543C64.2422 116.004 63.3223 115.254 62.6543 114.293C61.998 113.32 61.6699 112.271 61.6699 111.146H64.9219C64.9805 112.236 65.4141 113.104 66.2227 113.748C67.043 114.381 68.1211 114.697 69.457 114.697C70.6875 114.697 71.6719 114.451 72.4102 113.959C73.1602 113.455 73.5352 112.787 73.5352 111.955Z" fill="white"/>
<path d="M84.5566 117H81.3047V97.9805H84.5566V117ZM81.041 92.9355C81.041 92.4082 81.1992 91.9629 81.5156 91.5996C81.8438 91.2363 82.3242 91.0547 82.957 91.0547C83.5898 91.0547 84.0703 91.2363 84.3984 91.5996C84.7266 91.9629 84.8906 92.4082 84.8906 92.9355C84.8906 93.4629 84.7266 93.9023 84.3984 94.2539C84.0703 94.6055 83.5898 94.7812 82.957 94.7812C82.3242 94.7812 81.8438 94.6055 81.5156 94.2539C81.1992 93.9023 81.041 93.4629 81.041 92.9355Z" fill="white"/>
<path d="M89.0039 107.332C89.0039 104.367 89.6895 102.012 91.0605 100.266C92.4316 98.5078 94.248 97.6289 96.5098 97.6289C98.8301 97.6289 100.641 98.4492 101.941 100.09L102.1 97.9805H105.07V116.543C105.07 119.004 104.338 120.943 102.873 122.361C101.42 123.779 99.4629 124.488 97.002 124.488C95.6309 124.488 94.2891 124.195 92.9766 123.609C91.6641 123.023 90.6621 122.221 89.9707 121.201L91.6582 119.25C93.0527 120.973 94.7578 121.834 96.7734 121.834C98.3555 121.834 99.5859 121.389 100.465 120.498C101.355 119.607 101.801 118.354 101.801 116.736V115.102C100.5 116.602 98.7246 117.352 96.4746 117.352C94.248 117.352 92.4434 116.455 91.0605 114.662C89.6895 112.869 89.0039 110.426 89.0039 107.332ZM92.2734 107.701C92.2734 109.846 92.7129 111.533 93.5918 112.764C94.4707 113.982 95.7012 114.592 97.2832 114.592C99.334 114.592 100.84 113.66 101.801 111.797V103.113C100.805 101.297 99.3105 100.389 97.3184 100.389C95.7363 100.389 94.5 101.004 93.6094 102.234C92.7188 103.465 92.2734 105.287 92.2734 107.701Z" fill="white"/>
<path d="M121.734 115.119C120.469 116.607 118.611 117.352 116.162 117.352C114.135 117.352 112.588 116.766 111.521 115.594C110.467 114.41 109.934 112.664 109.922 110.355V97.9805H113.174V110.268C113.174 113.15 114.346 114.592 116.689 114.592C119.174 114.592 120.826 113.666 121.646 111.814V97.9805H124.898V117H121.805L121.734 115.119Z" fill="white"/>
<path d="M133.389 117H130.137V97.9805H133.389V117ZM129.873 92.9355C129.873 92.4082 130.031 91.9629 130.348 91.5996C130.676 91.2363 131.156 91.0547 131.789 91.0547C132.422 91.0547 132.902 91.2363 133.23 91.5996C133.559 91.9629 133.723 92.4082 133.723 92.9355C133.723 93.4629 133.559 93.9023 133.23 94.2539C132.902 94.6055 132.422 94.7812 131.789 94.7812C131.156 94.7812 130.676 94.6055 130.348 94.2539C130.031 93.9023 129.873 93.4629 129.873 92.9355Z" fill="white"/>
<path d="M146.502 117.352C143.924 117.352 141.826 116.508 140.209 114.82C138.592 113.121 137.783 110.854 137.783 108.018V107.42C137.783 105.533 138.141 103.852 138.855 102.375C139.582 100.887 140.59 99.7266 141.879 98.8945C143.18 98.0508 144.586 97.6289 146.098 97.6289C148.57 97.6289 150.492 98.4434 151.863 100.072C153.234 101.701 153.92 104.033 153.92 107.068V108.422H141.035C141.082 110.297 141.627 111.814 142.67 112.975C143.725 114.123 145.061 114.697 146.678 114.697C147.826 114.697 148.799 114.463 149.596 113.994C150.393 113.525 151.09 112.904 151.688 112.131L153.674 113.678C152.08 116.127 149.689 117.352 146.502 117.352ZM146.098 100.301C144.785 100.301 143.684 100.781 142.793 101.742C141.902 102.691 141.352 104.027 141.141 105.75H150.668V105.504C150.574 103.852 150.129 102.574 149.332 101.672C148.535 100.758 147.457 100.301 146.098 100.301Z" fill="white"/>
<path d="M160.775 97.9805L160.881 100.371C162.334 98.543 164.232 97.6289 166.576 97.6289C170.596 97.6289 172.623 99.8965 172.658 104.432V117H169.406V104.414C169.395 103.043 169.078 102.029 168.457 101.373C167.848 100.717 166.893 100.389 165.592 100.389C164.537 100.389 163.611 100.67 162.814 101.232C162.018 101.795 161.396 102.533 160.951 103.447V117H157.699V97.9805H160.775Z" fill="white"/>
<path d="M181.975 93.375V97.9805H185.525V100.494H181.975V112.289C181.975 113.051 182.133 113.625 182.449 114.012C182.766 114.387 183.305 114.574 184.066 114.574C184.441 114.574 184.957 114.504 185.613 114.363V117C184.758 117.234 183.926 117.352 183.117 117.352C181.664 117.352 180.568 116.912 179.83 116.033C179.092 115.154 178.723 113.906 178.723 112.289V100.494H175.26V97.9805H178.723V93.375H181.975Z" fill="white"/>
<path d="M197.232 117.352C194.654 117.352 192.557 116.508 190.939 114.82C189.322 113.121 188.514 110.854 188.514 108.018V107.42C188.514 105.533 188.871 103.852 189.586 102.375C190.312 100.887 191.32 99.7266 192.609 98.8945C193.91 98.0508 195.316 97.6289 196.828 97.6289C199.301 97.6289 201.223 98.4434 202.594 100.072C203.965 101.701 204.65 104.033 204.65 107.068V108.422H191.766C191.812 110.297 192.357 111.814 193.4 112.975C194.455 114.123 195.791 114.697 197.408 114.697C198.557 114.697 199.529 114.463 200.326 113.994C201.123 113.525 201.82 112.904 202.418 112.131L204.404 113.678C202.811 116.127 200.42 117.352 197.232 117.352ZM196.828 100.301C195.516 100.301 194.414 100.781 193.523 101.742C192.633 102.691 192.082 104.027 191.871 105.75H201.398V105.504C201.305 103.852 200.859 102.574 200.062 101.672C199.266 100.758 198.188 100.301 196.828 100.301Z" fill="white"/>
<path d="M218.449 117V100.494H215.443V97.9805H218.449V96.3633C218.449 94.2422 219.053 92.5898 220.26 91.4062C221.479 90.2227 223.195 89.6309 225.41 89.6309C226.723 89.6309 228.381 89.9883 230.385 90.7031L229.84 93.4453C228.375 92.8594 226.98 92.5664 225.656 92.5664C224.262 92.5664 223.254 92.8828 222.633 93.5156C222.023 94.1367 221.719 95.0742 221.719 96.3281V97.9805H225.604V100.494H221.719V117H218.449ZM232.002 117H228.732V97.9805H232.002V117Z" fill="white"/>
<path d="M236.52 107.332C236.52 104.367 237.205 102.012 238.576 100.266C239.947 98.5078 241.764 97.6289 244.025 97.6289C246.346 97.6289 248.156 98.4492 249.457 100.09L249.615 97.9805H252.586V116.543C252.586 119.004 251.854 120.943 250.389 122.361C248.936 123.779 246.979 124.488 244.518 124.488C243.146 124.488 241.805 124.195 240.492 123.609C239.18 123.023 238.178 122.221 237.486 121.201L239.174 119.25C240.568 120.973 242.273 121.834 244.289 121.834C245.871 121.834 247.102 121.389 247.98 120.498C248.871 119.607 249.316 118.354 249.316 116.736V115.102C248.016 116.602 246.24 117.352 243.99 117.352C241.764 117.352 239.959 116.455 238.576 114.662C237.205 112.869 236.52 110.426 236.52 107.332ZM239.789 107.701C239.789 109.846 240.229 111.533 241.107 112.764C241.986 113.982 243.217 114.592 244.799 114.592C246.85 114.592 248.355 113.66 249.316 111.797V103.113C248.32 101.297 246.826 100.389 244.834 100.389C243.252 100.389 242.016 101.004 241.125 102.234C240.234 103.465 239.789 105.287 239.789 107.701Z" fill="white"/>
<path d="M269.25 115.119C267.984 116.607 266.127 117.352 263.678 117.352C261.65 117.352 260.104 116.766 259.037 115.594C257.982 114.41 257.449 112.664 257.438 110.355V97.9805H260.689V110.268C260.689 113.15 261.861 114.592 264.205 114.592C266.689 114.592 268.342 113.666 269.162 111.814V97.9805H272.414V117H269.32L269.25 115.119Z" fill="white"/>
<path d="M286.564 100.898C286.072 100.816 285.539 100.775 284.965 100.775C282.832 100.775 281.385 101.684 280.623 103.5V117H277.371V97.9805H280.535L280.588 100.178C281.654 98.4785 283.166 97.6289 285.123 97.6289C285.756 97.6289 286.236 97.7109 286.564 97.875V100.898Z" fill="white"/>
<path d="M300.609 117C300.422 116.625 300.27 115.957 300.152 114.996C298.641 116.566 296.836 117.352 294.738 117.352C292.863 117.352 291.322 116.824 290.115 115.77C288.92 114.703 288.322 113.355 288.322 111.727C288.322 109.746 289.072 108.211 290.572 107.121C292.084 106.02 294.205 105.469 296.936 105.469H300.1V103.975C300.1 102.838 299.76 101.936 299.08 101.268C298.4 100.588 297.398 100.248 296.074 100.248C294.914 100.248 293.941 100.541 293.156 101.127C292.371 101.713 291.979 102.422 291.979 103.254H288.709C288.709 102.305 289.043 101.391 289.711 100.512C290.391 99.6211 291.305 98.918 292.453 98.4023C293.613 97.8867 294.885 97.6289 296.268 97.6289C298.459 97.6289 300.176 98.1797 301.418 99.2812C302.66 100.371 303.305 101.877 303.352 103.799V112.553C303.352 114.299 303.574 115.688 304.02 116.719V117H300.609ZM295.213 114.521C296.232 114.521 297.199 114.258 298.113 113.73C299.027 113.203 299.689 112.518 300.1 111.674V107.771H297.551C293.566 107.771 291.574 108.938 291.574 111.27C291.574 112.289 291.914 113.086 292.594 113.66C293.273 114.234 294.146 114.521 295.213 114.521Z" fill="white"/>
<path d="M312.264 109.793C312.287 108.398 312.445 107.297 312.738 106.488C313.031 105.68 313.629 104.783 314.531 103.799L316.834 101.426C317.818 100.312 318.311 99.1172 318.311 97.8398C318.311 96.6094 317.988 95.6484 317.344 94.957C316.699 94.2539 315.762 93.9023 314.531 93.9023C313.336 93.9023 312.375 94.2188 311.648 94.8516C310.922 95.4844 310.559 96.334 310.559 97.4004H307.307C307.33 95.502 308.004 93.9727 309.328 92.8125C310.664 91.6406 312.398 91.0547 314.531 91.0547C316.746 91.0547 318.469 91.6523 319.699 92.8477C320.941 94.0312 321.562 95.6602 321.562 97.7344C321.562 99.7852 320.613 101.807 318.715 103.799L316.799 105.697C315.943 106.646 315.516 108.012 315.516 109.793H312.264ZM312.123 115.365C312.123 114.838 312.281 114.398 312.598 114.047C312.926 113.684 313.406 113.502 314.039 113.502C314.672 113.502 315.152 113.684 315.48 114.047C315.809 114.398 315.973 114.838 315.973 115.365C315.973 115.893 315.809 116.332 315.48 116.684C315.152 117.023 314.672 117.193 314.039 117.193C313.406 117.193 312.926 117.023 312.598 116.684C312.281 116.332 312.123 115.893 312.123 115.365Z" fill="white"/>
</g>
<path id="Union" fill-rule="evenodd" clip-rule="evenodd" d="M653.016 415.916L476.536 368.757L300.056 415.916L296 417L298.063 413.344L324.724 366.087V363.986H325.909L474.814 100.053L474.893 99.9126L476.093 97H476.536H478.093V99.7608L478.258 100.053L547.273 222.382L549.528 222.354L549.565 225.354L548.954 225.362L627.162 363.986H627.468V364.527L655.009 413.344L657.072 417L653.016 415.916ZM476.093 115.242L459.151 223.463L476.093 223.255V115.242ZM478.093 223.231V118.445L493.614 223.04L478.093 223.231ZM476.093 226.256L458.681 226.469L450.77 277H476.093V226.256ZM478.093 277V226.231L494.058 226.035L501.621 277H478.093ZM476.093 280H450.301L443.943 320.611H476.093V280ZM478.093 320.611V280H502.066L508.092 320.611H478.093ZM476.093 323.611H443.473L437.153 363.986H476.093V323.611ZM478.093 363.986V323.611H508.537L514.529 363.986H478.093ZM465.543 122.59L408.281 224.087L423.776 223.897L465.543 122.59ZM425.95 223.871L473.578 108.347L475.165 105.535L441.147 223.684L425.95 223.871ZM440.28 226.695L424.707 226.886L404.046 277H425.796L440.28 226.695ZM427.877 277L442.369 226.669L456.653 226.494L448.746 277H427.877ZM448.276 280H427.013L402.832 363.986H435.128L448.276 280ZM481.531 366.986H514.974L516.355 376.292L481.531 366.986ZM516.996 366.986L518.46 376.854L557.24 387.218L551.424 366.986H516.996ZM504.088 280L516.55 363.986H550.561L526.415 280H504.088ZM525.553 277H503.643L496.077 226.01L510.841 225.829L525.553 277ZM509.982 222.84L495.632 223.016L480.272 119.501L509.982 222.84ZM434.659 366.986H401.968L396.169 387.127L433.048 377.272L434.659 366.986ZM435.161 376.708L436.683 366.986H471.54L435.161 376.708ZM473.613 118.153L443.236 223.659L457.123 223.488L473.613 118.153ZM527.634 277L512.915 225.804L527.545 225.624L549.453 277H527.634ZM550.732 280H528.496L552.642 363.986H586.546L550.732 280ZM601.495 399.044L559.218 387.746L559.454 387.678L553.505 366.986H587.825L601.495 399.044ZM482.481 119.946L512.055 222.814L526.272 222.64L482.481 119.946ZM424.932 280H402.809L368.183 363.986H400.75L424.932 280ZM399.887 366.986H366.947L353.997 398.397L393.914 387.73L399.887 366.986ZM528.435 222.613L480.378 109.916L543.852 222.424L528.435 222.613ZM545.533 225.404L529.708 225.598L551.627 277H552V277.874L588.72 363.986H623.718L545.533 225.404ZM603.632 398.954L590 366.986H625.41L650.953 412.26L602.68 399.36L603.632 398.954ZM422.533 226.913L406.576 227.109L329.354 363.986H366.02L422.533 226.913ZM364.783 366.986H327.661L302.119 412.26L351.565 399.046L364.783 366.986Z" fill="white"/>
</g>
<g id="claves">
<g id="Group 21">
<path id="Rectangle 4" d="M39 482H255.745L289 522L255.745 562H39V482Z" fill="#CD08D1" fill-opacity="0.1"/>
<path id="Rectangle 4 (Stroke)" fill-rule="evenodd" clip-rule="evenodd" d="M254.338 485H42V559H254.338L285.099 522L254.338 485ZM255.745 482H39V562H255.745L289 522L255.745 482Z" fill="#CD08D1"/>
<path id="Ellipse 1" d="M80 522C80 544.091 62.0914 562 40 562C17.9086 562 0 544.091 0 522C0 499.909 17.9086 482 40 482C62.0914 482 80 499.909 80 522Z" fill="#CD08D1"/>
<path id="A" d="M48.0938 532.406H30.4688L26.7812 543H18.5625L35.75 497.5H42.8438L60.0625 543H51.8125L48.0938 532.406ZM32.6875 526.031H45.875L39.2812 507.156L32.6875 526.031Z" fill="white"/>
</g>
<g id="Group 17">
<path id="Rectangle 5" d="M382 482H598.745L632 522L598.745 562H382V482Z" fill="#CD08D1" fill-opacity="0.1"/>
<path id="Rectangle 5 (Stroke)" fill-rule="evenodd" clip-rule="evenodd" d="M597.338 485H385V559H597.338L628.099 522L597.338 485ZM598.745 482H382V562H598.745L632 522L598.745 482Z" fill="#CD08D1"/>
<path id="Ellipse 2" d="M423 522C423 544.091 405.091 562 383 562C360.909 562 343 544.091 343 522C343 499.909 360.909 482 383 482C405.091 482 423 499.909 423 522Z" fill="#CD08D1"/>
<path id="B" d="M366.625 538V492.5H382.219C387.365 492.5 391.281 493.531 393.969 495.594C396.656 497.656 398 500.729 398 504.812C398 506.896 397.438 508.771 396.312 510.438C395.188 512.104 393.542 513.396 391.375 514.312C393.833 514.979 395.729 516.24 397.062 518.094C398.417 519.927 399.094 522.135 399.094 524.719C399.094 528.99 397.719 532.271 394.969 534.562C392.24 536.854 388.323 538 383.219 538H366.625ZM374.531 517.469V531.688H383.312C385.792 531.688 387.729 531.073 389.125 529.844C390.521 528.615 391.219 526.906 391.219 524.719C391.219 519.99 388.802 517.573 383.969 517.469H374.531ZM374.531 511.656H382.281C384.74 511.656 386.656 511.104 388.031 510C389.427 508.875 390.125 507.292 390.125 505.25C390.125 503 389.479 501.375 388.188 500.375C386.917 499.375 384.927 498.875 382.219 498.875H374.531V511.656Z" fill="white"/>
</g>
<g id="Group 18">
<path id="Rectangle 6" d="M740 538H956.745L990 578L956.745 618H740V538Z" fill="#CD08D1" fill-opacity="0.1"/>
<path id="Rectangle 6 (Stroke)" fill-rule="evenodd" clip-rule="evenodd" d="M955.338 541H743V615H955.338L986.099 578L955.338 541ZM956.745 538H740V618H956.745L990 578L956.745 538Z" fill="#CD08D1"/>
<path id="Ellipse 3" d="M781 578C781 600.091 763.091 618 741 618C718.909 618 701 600.091 701 578C701 555.909 718.909 538 741 538C763.091 538 781 555.909 781 578Z" fill="#CD08D1"/>
<path id="C" d="M758.344 585.188C757.885 590.042 756.094 593.833 752.969 596.562C749.844 599.271 745.688 600.625 740.5 600.625C736.875 600.625 733.677 599.771 730.906 598.062C728.156 596.333 726.031 593.885 724.531 590.719C723.031 587.552 722.25 583.875 722.188 579.688V575.438C722.188 571.146 722.948 567.365 724.469 564.094C725.99 560.823 728.167 558.302 731 556.531C733.854 554.76 737.146 553.875 740.875 553.875C745.896 553.875 749.938 555.24 753 557.969C756.062 560.698 757.844 564.552 758.344 569.531H750.469C750.094 566.26 749.135 563.906 747.594 562.469C746.073 561.01 743.833 560.281 740.875 560.281C737.438 560.281 734.792 561.542 732.938 564.062C731.104 566.562 730.167 570.24 730.125 575.094V579.125C730.125 584.042 731 587.792 732.75 590.375C734.521 592.958 737.104 594.25 740.5 594.25C743.604 594.25 745.938 593.552 747.5 592.156C749.062 590.76 750.052 588.438 750.469 585.188H758.344Z" fill="white"/>
</g>
<g id="Group 19">
<path id="Rectangle 7" d="M40 587H256.745L290 627L256.745 667H40V587Z" fill="#CD08D1" fill-opacity="0.1"/>
<path id="Rectangle 7 (Stroke)" fill-rule="evenodd" clip-rule="evenodd" d="M255.338 590H43V664H255.338L286.099 627L255.338 590ZM256.745 587H40V667H256.745L290 627L256.745 587Z" fill="#CD08D1"/>
<path id="Ellipse 4" d="M81 627C81 649.091 63.0914 667 41 667C18.9086 667 1 649.091 1 627C1 604.909 18.9086 587 41 587C63.0914 587 81 604.909 81 627Z" fill="#CD08D1"/>
<path id="D" d="M23.625 649V603.5H37.0625C41.0833 603.5 44.6458 604.396 47.75 606.188C50.875 607.979 53.2917 610.521 55 613.812C56.7083 617.104 57.5625 620.875 57.5625 625.125V627.406C57.5625 631.719 56.6979 635.51 54.9688 638.781C53.2604 642.052 50.8125 644.573 47.625 646.344C44.4583 648.115 40.8229 649 36.7188 649H23.625ZM31.5312 609.875V642.688H36.6875C40.8333 642.688 44.0104 641.396 46.2188 638.812C48.4479 636.208 49.5833 632.479 49.625 627.625V625.094C49.625 620.156 48.5521 616.385 46.4062 613.781C44.2604 611.177 41.1458 609.875 37.0625 609.875H31.5312Z" fill="white"/>
</g>
<g id="Group 20">
<path id="Rectangle 8" d="M382 587H598.745L632 627L598.745 667H382V587Z" fill="#CD08D1" fill-opacity="0.1"/>
<path id="Rectangle 8 (Stroke)" fill-rule="evenodd" clip-rule="evenodd" d="M597.338 590H385V664H597.338L628.099 627L597.338 590ZM598.745 587H382V667H598.745L632 627L598.745 587Z" fill="#CD08D1"/>
<path id="Ellipse 5" d="M423 627C423 649.091 405.091 667 383 667C360.909 667 343 649.091 343 627C343 604.909 360.909 587 383 587C405.091 587 423 604.909 423 627Z" fill="#CD08D1"/>
<path id="E" d="M392.219 628.688H373.531V642.688H395.375V649H365.625V603.5H395.156V609.875H373.531V622.438H392.219V628.688Z" fill="white"/>
</g>
<g id="flecha">
<path id="Rectangle 2" d="M759.2 532.008L774.482 540.133L732.5 619.089L717.219 610.963L759.2 532.008Z" fill="#1043F5"/>
<path id="Rectangle 1_2" d="M701 544.904L791 495V552.692L746 535.096L701 544.904Z" fill="#1043F5"/>
<path id="Rectangle 3" d="M705.039 614.21L720.666 587.143L737.936 586.565L722.309 613.632L705.039 614.21Z" fill="#1043F5"/>
<path id="Rectangle 4_2" d="M731.089 628.845L746.717 601.778L737.926 586.154L722.299 613.221L731.089 628.845Z" fill="#1043F5"/>
</g>
<g id="122 123 124 125 126">
<path d="M134.814 533H131.545V511.326L124.988 513.734V510.781L134.305 507.283H134.814V533Z" fill="#CD08D1"/>
<path d="M161.111 533H144.342V530.662L153.201 520.818C154.514 519.33 155.416 518.123 155.908 517.197C156.412 516.26 156.664 515.293 156.664 514.297C156.664 512.961 156.26 511.865 155.451 511.01C154.643 510.154 153.564 509.727 152.217 509.727C150.6 509.727 149.34 510.189 148.438 511.115C147.547 512.029 147.102 513.307 147.102 514.947H143.85C143.85 512.592 144.605 510.688 146.117 509.234C147.641 507.781 149.674 507.055 152.217 507.055C154.596 507.055 156.477 507.682 157.859 508.936C159.242 510.178 159.934 511.836 159.934 513.91C159.934 516.43 158.328 519.43 155.117 522.91L148.262 530.346H161.111V533Z" fill="#CD08D1"/>
<path d="M181.326 533H164.557V530.662L173.416 520.818C174.729 519.33 175.631 518.123 176.123 517.197C176.627 516.26 176.879 515.293 176.879 514.297C176.879 512.961 176.475 511.865 175.666 511.01C174.857 510.154 173.779 509.727 172.432 509.727C170.814 509.727 169.555 510.189 168.652 511.115C167.762 512.029 167.316 513.307 167.316 514.947H164.064C164.064 512.592 164.82 510.688 166.332 509.234C167.855 507.781 169.889 507.055 172.432 507.055C174.811 507.055 176.691 507.682 178.074 508.936C179.457 510.178 180.148 511.836 180.148 513.91C180.148 516.43 178.543 519.43 175.332 522.91L168.477 530.346H181.326V533Z" fill="#CD08D1"/>
<path d="M463.35 533H460.08V511.326L453.523 513.734V510.781L462.84 507.283H463.35V533Z" fill="#CD08D1"/>
<path d="M489.646 533H472.877V530.662L481.736 520.818C483.049 519.33 483.951 518.123 484.443 517.197C484.947 516.26 485.199 515.293 485.199 514.297C485.199 512.961 484.795 511.865 483.986 511.01C483.178 510.154 482.1 509.727 480.752 509.727C479.135 509.727 477.875 510.189 476.973 511.115C476.082 512.029 475.637 513.307 475.637 514.947H472.385C472.385 512.592 473.141 510.688 474.652 509.234C476.176 507.781 478.209 507.055 480.752 507.055C483.131 507.055 485.012 507.682 486.395 508.936C487.777 510.178 488.469 511.836 488.469 513.91C488.469 516.43 486.863 519.43 483.652 522.91L476.797 530.346H489.646V533Z" fill="#CD08D1"/>
<path d="M497.82 518.621H500.264C501.799 518.598 503.006 518.193 503.885 517.408C504.764 516.623 505.203 515.562 505.203 514.227C505.203 511.227 503.709 509.727 500.721 509.727C499.314 509.727 498.189 510.131 497.346 510.939C496.514 511.736 496.098 512.797 496.098 514.121H492.846C492.846 512.094 493.584 510.412 495.061 509.076C496.549 507.729 498.436 507.055 500.721 507.055C503.135 507.055 505.027 507.693 506.398 508.971C507.77 510.248 508.455 512.023 508.455 514.297C508.455 515.41 508.092 516.488 507.365 517.531C506.65 518.574 505.672 519.354 504.43 519.869C505.836 520.314 506.92 521.053 507.682 522.084C508.455 523.115 508.842 524.375 508.842 525.863C508.842 528.16 508.092 529.982 506.592 531.33C505.092 532.678 503.141 533.352 500.738 533.352C498.336 533.352 496.379 532.701 494.867 531.4C493.367 530.1 492.617 528.383 492.617 526.25H495.887C495.887 527.598 496.326 528.676 497.205 529.484C498.084 530.293 499.262 530.697 500.738 530.697C502.309 530.697 503.51 530.287 504.342 529.467C505.174 528.646 505.59 527.469 505.59 525.934C505.59 524.445 505.133 523.303 504.219 522.506C503.305 521.709 501.986 521.299 500.264 521.275H497.82V518.621Z" fill="#CD08D1"/>
<path d="M822.4 588H819.131V566.326L812.574 568.734V565.781L821.891 562.283H822.4V588Z" fill="#CD08D1"/>
<path d="M848.697 588H831.928V585.662L840.787 575.818C842.1 574.33 843.002 573.123 843.494 572.197C843.998 571.26 844.25 570.293 844.25 569.297C844.25 567.961 843.846 566.865 843.037 566.01C842.229 565.154 841.15 564.727 839.803 564.727C838.186 564.727 836.926 565.189 836.023 566.115C835.133 567.029 834.688 568.307 834.688 569.947H831.436C831.436 567.592 832.191 565.688 833.703 564.234C835.227 562.781 837.26 562.055 839.803 562.055C842.182 562.055 844.062 562.682 845.445 563.936C846.828 565.178 847.52 566.836 847.52 568.91C847.52 571.43 845.914 574.43 842.703 577.91L835.848 585.346H848.697V588Z" fill="#CD08D1"/>
<path d="M865.871 579.404H869.422V582.059H865.871V588H862.602V582.059H850.947V580.143L862.408 562.406H865.871V579.404ZM854.639 579.404H862.602V566.854L862.215 567.557L854.639 579.404Z" fill="#CD08D1"/>
<path d="M134.814 643H131.545V621.326L124.988 623.734V620.781L134.305 617.283H134.814V643Z" fill="#CD08D1"/>
<path d="M161.111 643H144.342V640.662L153.201 630.818C154.514 629.33 155.416 628.123 155.908 627.197C156.412 626.26 156.664 625.293 156.664 624.297C156.664 622.961 156.26 621.865 155.451 621.01C154.643 620.154 153.564 619.727 152.217 619.727C150.6 619.727 149.34 620.189 148.438 621.115C147.547 622.029 147.102 623.307 147.102 624.947H143.85C143.85 622.592 144.605 620.688 146.117 619.234C147.641 617.781 149.674 617.055 152.217 617.055C154.596 617.055 156.477 617.682 157.859 618.936C159.242 620.178 159.934 621.836 159.934 623.91C159.934 626.43 158.328 629.43 155.117 632.91L148.262 640.346H161.111V643Z" fill="#CD08D1"/>
<path d="M166.051 630.168L167.352 617.406H180.465V620.412H170.111L169.338 627.391C170.592 626.652 172.016 626.283 173.609 626.283C175.941 626.283 177.793 627.057 179.164 628.604C180.535 630.139 181.221 632.219 181.221 634.844C181.221 637.48 180.506 639.561 179.076 641.084C177.658 642.596 175.672 643.352 173.117 643.352C170.855 643.352 169.01 642.725 167.58 641.471C166.15 640.217 165.336 638.482 165.137 636.268H168.213C168.412 637.732 168.934 638.84 169.777 639.59C170.621 640.328 171.734 640.697 173.117 640.697C174.629 640.697 175.812 640.182 176.668 639.15C177.535 638.119 177.969 636.695 177.969 634.879C177.969 633.168 177.5 631.797 176.562 630.766C175.637 629.723 174.4 629.201 172.854 629.201C171.436 629.201 170.322 629.512 169.514 630.133L168.652 630.836L166.051 630.168Z" fill="#CD08D1"/>
<path d="M472.279 643H469.01V621.326L462.453 623.734V620.781L471.77 617.283H472.279V643Z" fill="#CD08D1"/>
<path d="M498.576 643H481.807V640.662L490.666 630.818C491.979 629.33 492.881 628.123 493.373 627.197C493.877 626.26 494.129 625.293 494.129 624.297C494.129 622.961 493.725 621.865 492.916 621.01C492.107 620.154 491.029 619.727 489.682 619.727C488.064 619.727 486.805 620.189 485.902 621.115C485.012 622.029 484.566 623.307 484.566 624.947H481.314C481.314 622.592 482.07 620.688 483.582 619.234C485.105 617.781 487.139 617.055 489.682 617.055C492.061 617.055 493.941 617.682 495.324 618.936C496.707 620.178 497.398 621.836 497.398 623.91C497.398 626.43 495.793 629.43 492.582 632.91L485.727 640.346H498.576V643Z" fill="#CD08D1"/>
<path d="M514.783 617.389V620.148H514.186C511.654 620.195 509.639 620.945 508.139 622.398C506.639 623.852 505.771 625.896 505.537 628.533C506.885 626.986 508.725 626.213 511.057 626.213C513.283 626.213 515.059 626.998 516.383 628.568C517.719 630.139 518.387 632.166 518.387 634.65C518.387 637.287 517.666 639.396 516.225 640.979C514.795 642.561 512.873 643.352 510.459 643.352C508.01 643.352 506.023 642.414 504.5 640.539C502.977 638.652 502.215 636.227 502.215 633.262V632.014C502.215 627.303 503.217 623.705 505.221 621.221C507.236 618.725 510.23 617.447 514.203 617.389H514.783ZM510.512 628.92C509.398 628.92 508.373 629.254 507.436 629.922C506.498 630.59 505.848 631.428 505.484 632.436V633.631C505.484 635.74 505.959 637.439 506.908 638.729C507.857 640.018 509.041 640.662 510.459 640.662C511.924 640.662 513.072 640.123 513.904 639.045C514.748 637.967 515.17 636.555 515.17 634.809C515.17 633.051 514.742 631.633 513.887 630.555C513.043 629.465 511.918 628.92 510.512 628.92Z" fill="#CD08D1"/>
</g>
</g>
</g>
</svg>
