<svg viewBox="0 0 954 258" fill="none" xmlns="http://www.w3.org/2000/svg">
<g id="0127223">
<g id="Group 344">
<g id="Group 334">
<path id="Rectangle 169 (Stroke)" fill-rule="evenodd" clip-rule="evenodd" d="M200.221 78H28.2207V250H200.221V78ZM24.2207 74V254H204.221V74H24.2207Z" fill="white"/>
<path id="Rectangle 170 (Stroke)" fill-rule="evenodd" clip-rule="evenodd" d="M113.5 83.9362L29.6569 167.779L113.5 251.622L197.343 167.779L113.5 83.9362ZM24 167.779L113.5 257.279L203 167.779L113.5 78.2793L24 167.779Z" fill="white"/>
<path id="Line 158 (Stroke)" fill-rule="evenodd" clip-rule="evenodd" d="M203.221 78.0002L31.2207 168L29.3662 164.456L201.366 74.4561L203.221 78.0002Z" fill="white"/>
<path id="Line 159 (Stroke)" fill-rule="evenodd" clip-rule="evenodd" d="M204.221 254L24.2209 168L25.9453 164.391L205.945 250.391L204.221 254Z" fill="white"/>
<path id="Rectangle 171" d="M31.2207 165L111.221 80L143.221 109L31.2207 165Z" fill="white"/>
</g>
<g id="Mask Group">
<mask id="mask0" mask-type="alpha" maskUnits="userSpaceOnUse" x="336" y="60" width="97" height="197">
<path id="Rectangle 172" d="M432.221 257H336.221V60H432.221V257Z" fill="#C4C4C4"/>
</mask>
<g mask="url(#mask0)">
<g id="Group 335">
<path id="Rectangle 169 (Stroke)_2" fill-rule="evenodd" clip-rule="evenodd" d="M255 242L427 242V70L255 70L255 242ZM431 246V66L251 66L251 246L431 246Z" fill="white"/>
<path id="Rectangle 170 (Stroke)_2" fill-rule="evenodd" clip-rule="evenodd" d="M341.721 236.064L425.564 152.221L341.721 68.3776L257.878 152.221L341.721 236.064ZM431.221 152.221L341.721 62.7207L252.221 152.221L341.721 241.721L431.221 152.221Z" fill="white"/>
<path id="Line 158 (Stroke)_2" fill-rule="evenodd" clip-rule="evenodd" d="M252 242L424 152L425.854 155.544L253.854 245.544L252 242Z" fill="white"/>
<path id="Line 159 (Stroke)_2" fill-rule="evenodd" clip-rule="evenodd" d="M251 66.0002L431 152L429.275 155.609L249.275 69.6094L251 66.0002Z" fill="white"/>
<path id="Rectangle 171_2" d="M424 155L344 240L312 211L424 155Z" fill="white"/>
</g>
</g>
</g>
<g id="Group 336">
<path id="Ellipse 37 (Stroke)" fill-rule="evenodd" clip-rule="evenodd" d="M651 227C692.974 227 727 192.974 727 151C727 109.026 692.974 75 651 75C609.026 75 575 109.026 575 151C575 192.974 609.026 227 651 227ZM651 231C695.183 231 731 195.183 731 151C731 106.817 695.183 71 651 71C606.817 71 571 106.817 571 151C571 195.183 606.817 231 651 231Z" fill="white"/>
<path id="Line 160 (Stroke)" fill-rule="evenodd" clip-rule="evenodd" d="M651 231V71H655V231H651Z" fill="white"/>
<path id="Line 161 (Stroke)" fill-rule="evenodd" clip-rule="evenodd" d="M731 151H571V147H731V151Z" fill="white"/>
<path id="Line 162 (Stroke)" fill-rule="evenodd" clip-rule="evenodd" d="M707.137 93.9999L594 207.137L591.172 204.309L704.309 91.1715L707.137 93.9999Z" fill="white"/>
<path id="Ellipse 38" d="M694 179C694 184.523 689.523 189 684 189C678.477 189 674 184.523 674 179C674 173.477 678.477 169 684 169C689.523 169 694 173.477 694 179Z" fill="white"/>
<path id="Rectangle 173 (Stroke)" fill-rule="evenodd" clip-rule="evenodd" d="M626 111H612V125H626V111ZM609 108V128H629V108H609Z" fill="white"/>
</g>
</g>
<g id="Group 345">
<path id="Arrow 26 (Stroke)" fill-rule="evenodd" clip-rule="evenodd" d="M60.4711 26.3962C42.7429 26.0633 24.8988 32.2678 1.77774 46.2827L0.222656 43.7173C23.5697 29.5653 41.9903 23.0486 60.5275 23.3968C78.1875 23.7285 95.7468 30.2898 117.551 41.9673L114.772 32.4636C114.539 31.6685 114.995 30.8354 115.79 30.6029C116.585 30.3704 117.419 30.8265 117.651 31.6216L121.44 44.579C121.672 45.3741 121.216 46.2072 120.421 46.4397L107.464 50.2286C106.669 50.4611 105.836 50.005 105.603 49.2099C105.371 48.4147 105.827 47.5817 106.622 47.3492L116.081 44.5833C94.4364 32.9967 77.4032 26.7143 60.4711 26.3962Z" fill="#E8A1EE"/>
<g id="180&#194;&#176;">
<path d="M137.814 26H134.545V4.32617L127.988 6.73438V3.78125L137.305 0.283203H137.814V26Z" fill="#E8A1EE"/>
<path d="M162.863 7.08594C162.863 8.36328 162.523 9.5 161.844 10.4961C161.176 11.4922 160.268 12.2715 159.119 12.834C160.455 13.4082 161.51 14.2461 162.283 15.3477C163.068 16.4492 163.461 17.6973 163.461 19.0918C163.461 21.3066 162.711 23.0703 161.211 24.3828C159.723 25.6953 157.76 26.3516 155.322 26.3516C152.861 26.3516 150.887 25.6953 149.398 24.3828C147.922 23.0586 147.184 21.2949 147.184 19.0918C147.184 17.709 147.559 16.4609 148.309 15.3477C149.07 14.2344 150.119 13.3906 151.455 12.8164C150.318 12.2539 149.422 11.4746 148.766 10.4785C148.109 9.48242 147.781 8.35156 147.781 7.08594C147.781 4.92969 148.473 3.21875 149.855 1.95312C151.238 0.6875 153.061 0.0546875 155.322 0.0546875C157.572 0.0546875 159.389 0.6875 160.771 1.95312C162.166 3.21875 162.863 4.92969 162.863 7.08594ZM160.209 19.0215C160.209 17.5918 159.752 16.4258 158.838 15.5234C157.936 14.6211 156.752 14.1699 155.287 14.1699C153.822 14.1699 152.645 14.6152 151.754 15.5059C150.875 16.3965 150.436 17.5684 150.436 19.0215C150.436 20.4746 150.863 21.6172 151.719 22.4492C152.586 23.2812 153.787 23.6973 155.322 23.6973C156.846 23.6973 158.041 23.2812 158.908 22.4492C159.775 21.6055 160.209 20.4629 160.209 19.0215ZM155.322 2.72656C154.045 2.72656 153.008 3.125 152.211 3.92188C151.426 4.70703 151.033 5.7793 151.033 7.13867C151.033 8.43945 151.42 9.49414 152.193 10.3027C152.979 11.0996 154.021 11.498 155.322 11.498C156.623 11.498 157.66 11.0996 158.434 10.3027C159.219 9.49414 159.611 8.43945 159.611 7.13867C159.611 5.83789 159.207 4.77734 158.398 3.95703C157.59 3.13672 156.564 2.72656 155.322 2.72656Z" fill="#E8A1EE"/>
<path d="M183.605 15.084C183.605 18.8926 182.955 21.7227 181.654 23.5742C180.354 25.4258 178.32 26.3516 175.555 26.3516C172.824 26.3516 170.803 25.4492 169.49 23.6445C168.178 21.8281 167.498 19.1211 167.451 15.5234V11.1816C167.451 7.41992 168.102 4.625 169.402 2.79688C170.703 0.96875 172.742 0.0546875 175.52 0.0546875C178.273 0.0546875 180.301 0.939453 181.602 2.70898C182.902 4.4668 183.57 7.18555 183.605 10.8652V15.084ZM180.354 10.6367C180.354 7.88281 179.967 5.87891 179.193 4.625C178.42 3.35938 177.195 2.72656 175.52 2.72656C173.855 2.72656 172.643 3.35352 171.881 4.60742C171.119 5.86133 170.727 7.78906 170.703 10.3906V15.5938C170.703 18.3594 171.102 20.4043 171.898 21.7285C172.707 23.041 173.926 23.6973 175.555 23.6973C177.16 23.6973 178.35 23.0762 179.123 21.834C179.908 20.5918 180.318 18.6348 180.354 15.9629V10.6367Z" fill="#E8A1EE"/>
<path d="M187.93 4.625C187.93 3.40625 188.363 2.33984 189.23 1.42578C190.109 0.511719 191.17 0.0546875 192.412 0.0546875C193.631 0.0546875 194.668 0.511719 195.523 1.42578C196.391 2.32812 196.824 3.39453 196.824 4.625C196.824 5.86719 196.391 6.92773 195.523 7.80664C194.668 8.68555 193.631 9.125 192.412 9.125C191.182 9.125 190.127 8.68555 189.248 7.80664C188.369 6.92773 187.93 5.86719 187.93 4.625ZM192.412 6.875C193.045 6.875 193.578 6.66992 194.012 6.25977C194.445 5.83789 194.662 5.29297 194.662 4.625C194.662 3.94531 194.445 3.38867 194.012 2.95508C193.578 2.50977 193.045 2.28711 192.412 2.28711C191.768 2.28711 191.223 2.52148 190.777 2.99023C190.344 3.44727 190.127 3.99219 190.127 4.625C190.127 5.25781 190.344 5.79102 190.777 6.22461C191.223 6.6582 191.768 6.875 192.412 6.875Z" fill="#E8A1EE"/>
</g>
</g>
<g id="Corte">
<path d="M354.797 29.8789C354.48 32.5859 353.479 34.6777 351.791 36.1543C350.115 37.6191 347.883 38.3516 345.094 38.3516C342.07 38.3516 339.645 37.2676 337.816 35.0996C336 32.9316 335.092 30.0312 335.092 26.3984V23.9375C335.092 21.5586 335.514 19.4668 336.357 17.6621C337.213 15.8574 338.42 14.4746 339.979 13.5137C341.537 12.541 343.342 12.0547 345.393 12.0547C348.111 12.0547 350.291 12.8164 351.932 14.3398C353.572 15.8516 354.527 17.9492 354.797 20.6328H351.404C351.111 18.5938 350.473 17.1172 349.488 16.2031C348.516 15.2891 347.15 14.832 345.393 14.832C343.236 14.832 341.543 15.6289 340.312 17.2227C339.094 18.8164 338.484 21.084 338.484 24.0254V26.5039C338.484 29.2812 339.064 31.4902 340.225 33.1309C341.385 34.7715 343.008 35.5918 345.094 35.5918C346.969 35.5918 348.404 35.1699 349.4 34.3262C350.408 33.4707 351.076 31.9883 351.404 29.8789H354.797Z" fill="#E8A1EE"/>
<path d="M358.049 28.3145C358.049 26.4512 358.412 24.7754 359.139 23.2871C359.877 21.7988 360.896 20.6504 362.197 19.8418C363.51 19.0332 365.004 18.6289 366.68 18.6289C369.27 18.6289 371.361 19.5254 372.955 21.3184C374.561 23.1113 375.363 25.4961 375.363 28.4727V28.7012C375.363 30.5527 375.006 32.2168 374.291 33.6934C373.588 35.1582 372.574 36.3008 371.25 37.1211C369.938 37.9414 368.426 38.3516 366.715 38.3516C364.137 38.3516 362.045 37.4551 360.439 35.6621C358.846 33.8691 358.049 31.4961 358.049 28.543V28.3145ZM361.318 28.7012C361.318 30.8105 361.805 32.5039 362.777 33.7812C363.762 35.0586 365.074 35.6973 366.715 35.6973C368.367 35.6973 369.68 35.0527 370.652 33.7637C371.625 32.4629 372.111 30.6465 372.111 28.3145C372.111 26.2285 371.613 24.541 370.617 23.252C369.633 21.9512 368.32 21.3008 366.68 21.3008C365.074 21.3008 363.779 21.9395 362.795 23.2168C361.811 24.4941 361.318 26.3223 361.318 28.7012Z" fill="#E8A1EE"/>
<path d="M388.635 21.8984C388.143 21.8164 387.609 21.7754 387.035 21.7754C384.902 21.7754 383.455 22.6836 382.693 24.5V38H379.441V18.9805H382.605L382.658 21.1777C383.725 19.4785 385.236 18.6289 387.193 18.6289C387.826 18.6289 388.307 18.7109 388.635 18.875V21.8984Z" fill="#E8A1EE"/>
<path d="M396.932 14.375V18.9805H400.482V21.4941H396.932V33.2891C396.932 34.0508 397.09 34.625 397.406 35.0117C397.723 35.3867 398.262 35.5742 399.023 35.5742C399.398 35.5742 399.914 35.5039 400.57 35.3633V38C399.715 38.2344 398.883 38.3516 398.074 38.3516C396.621 38.3516 395.525 37.9121 394.787 37.0332C394.049 36.1543 393.68 34.9062 393.68 33.2891V21.4941H390.217V18.9805H393.68V14.375H396.932Z" fill="#E8A1EE"/>
<path d="M412.189 38.3516C409.611 38.3516 407.514 37.5078 405.896 35.8203C404.279 34.1211 403.471 31.8535 403.471 29.0176V28.4199C403.471 26.5332 403.828 24.8516 404.543 23.375C405.27 21.8867 406.277 20.7266 407.566 19.8945C408.867 19.0508 410.273 18.6289 411.785 18.6289C414.258 18.6289 416.18 19.4434 417.551 21.0723C418.922 22.7012 419.607 25.0332 419.607 28.0684V29.4219H406.723C406.77 31.2969 407.314 32.8145 408.357 33.9746C409.412 35.123 410.748 35.6973 412.365 35.6973C413.514 35.6973 414.486 35.4629 415.283 34.9941C416.08 34.5254 416.777 33.9043 417.375 33.1309L419.361 34.6777C417.768 37.127 415.377 38.3516 412.189 38.3516ZM411.785 21.3008C410.473 21.3008 409.371 21.7812 408.48 22.7422C407.59 23.6914 407.039 25.0273 406.828 26.75H416.355V26.5039C416.262 24.8516 415.816 23.5742 415.02 22.6719C414.223 21.7578 413.145 21.3008 411.785 21.3008Z" fill="#E8A1EE"/>
</g>
<g id="Group 346">
<path id="Arrow 26 (Stroke)_2" fill-rule="evenodd" clip-rule="evenodd" d="M625.471 28.3962C607.743 28.0633 589.899 34.2678 566.778 48.2827L565.223 45.7173C588.57 31.5653 606.99 25.0486 625.527 25.3968C643.187 25.7285 660.747 32.2898 682.551 43.9673L679.772 34.4636C679.539 33.6685 679.995 32.8354 680.79 32.6029C681.585 32.3704 682.419 32.8265 682.651 33.6216L686.44 46.579C686.672 47.3741 686.216 48.2072 685.421 48.4397L672.464 52.2286C671.669 52.4611 670.836 52.005 670.603 51.2099C670.371 50.4147 670.827 49.5817 671.622 49.3492L681.081 46.5833C659.436 34.9967 642.403 28.7143 625.471 28.3962Z" fill="#E8A1EE"/>
<g id="180&#194;&#176;_2">
<path d="M702.814 28H699.545V6.32617L692.988 8.73438V5.78125L702.305 2.2832H702.814V28Z" fill="#E8A1EE"/>
<path d="M727.863 9.08594C727.863 10.3633 727.523 11.5 726.844 12.4961C726.176 13.4922 725.268 14.2715 724.119 14.834C725.455 15.4082 726.51 16.2461 727.283 17.3477C728.068 18.4492 728.461 19.6973 728.461 21.0918C728.461 23.3066 727.711 25.0703 726.211 26.3828C724.723 27.6953 722.76 28.3516 720.322 28.3516C717.861 28.3516 715.887 27.6953 714.398 26.3828C712.922 25.0586 712.184 23.2949 712.184 21.0918C712.184 19.709 712.559 18.4609 713.309 17.3477C714.07 16.2344 715.119 15.3906 716.455 14.8164C715.318 14.2539 714.422 13.4746 713.766 12.4785C713.109 11.4824 712.781 10.3516 712.781 9.08594C712.781 6.92969 713.473 5.21875 714.855 3.95312C716.238 2.6875 718.061 2.05469 720.322 2.05469C722.572 2.05469 724.389 2.6875 725.771 3.95312C727.166 5.21875 727.863 6.92969 727.863 9.08594ZM725.209 21.0215C725.209 19.5918 724.752 18.4258 723.838 17.5234C722.936 16.6211 721.752 16.1699 720.287 16.1699C718.822 16.1699 717.645 16.6152 716.754 17.5059C715.875 18.3965 715.436 19.5684 715.436 21.0215C715.436 22.4746 715.863 23.6172 716.719 24.4492C717.586 25.2812 718.787 25.6973 720.322 25.6973C721.846 25.6973 723.041 25.2812 723.908 24.4492C724.775 23.6055 725.209 22.4629 725.209 21.0215ZM720.322 4.72656C719.045 4.72656 718.008 5.125 717.211 5.92188C716.426 6.70703 716.033 7.7793 716.033 9.13867C716.033 10.4395 716.42 11.4941 717.193 12.3027C717.979 13.0996 719.021 13.498 720.322 13.498C721.623 13.498 722.66 13.0996 723.434 12.3027C724.219 11.4941 724.611 10.4395 724.611 9.13867C724.611 7.83789 724.207 6.77734 723.398 5.95703C722.59 5.13672 721.564 4.72656 720.322 4.72656Z" fill="#E8A1EE"/>
<path d="M748.605 17.084C748.605 20.8926 747.955 23.7227 746.654 25.5742C745.354 27.4258 743.32 28.3516 740.555 28.3516C737.824 28.3516 735.803 27.4492 734.49 25.6445C733.178 23.8281 732.498 21.1211 732.451 17.5234V13.1816C732.451 9.41992 733.102 6.625 734.402 4.79688C735.703 2.96875 737.742 2.05469 740.52 2.05469C743.273 2.05469 745.301 2.93945 746.602 4.70898C747.902 6.4668 748.57 9.18555 748.605 12.8652V17.084ZM745.354 12.6367C745.354 9.88281 744.967 7.87891 744.193 6.625C743.42 5.35938 742.195 4.72656 740.52 4.72656C738.855 4.72656 737.643 5.35352 736.881 6.60742C736.119 7.86133 735.727 9.78906 735.703 12.3906V17.5938C735.703 20.3594 736.102 22.4043 736.898 23.7285C737.707 25.041 738.926 25.6973 740.555 25.6973C742.16 25.6973 743.35 25.0762 744.123 23.834C744.908 22.5918 745.318 20.6348 745.354 17.9629V12.6367Z" fill="#E8A1EE"/>
<path d="M752.93 6.625C752.93 5.40625 753.363 4.33984 754.23 3.42578C755.109 2.51172 756.17 2.05469 757.412 2.05469C758.631 2.05469 759.668 2.51172 760.523 3.42578C761.391 4.32812 761.824 5.39453 761.824 6.625C761.824 7.86719 761.391 8.92773 760.523 9.80664C759.668 10.6855 758.631 11.125 757.412 11.125C756.182 11.125 755.127 10.6855 754.248 9.80664C753.369 8.92773 752.93 7.86719 752.93 6.625ZM757.412 8.875C758.045 8.875 758.578 8.66992 759.012 8.25977C759.445 7.83789 759.662 7.29297 759.662 6.625C759.662 5.94531 759.445 5.38867 759.012 4.95508C758.578 4.50977 758.045 4.28711 757.412 4.28711C756.768 4.28711 756.223 4.52148 755.777 4.99023C755.344 5.44727 755.127 5.99219 755.127 6.625C755.127 7.25781 755.344 7.79102 755.777 8.22461C756.223 8.6582 756.768 8.875 757.412 8.875Z" fill="#E8A1EE"/>
</g>
</g>
<g id="Corte_2">
<path d="M858.797 31.8789C858.48 34.5859 857.479 36.6777 855.791 38.1543C854.115 39.6191 851.883 40.3516 849.094 40.3516C846.07 40.3516 843.645 39.2676 841.816 37.0996C840 34.9316 839.092 32.0312 839.092 28.3984V25.9375C839.092 23.5586 839.514 21.4668 840.357 19.6621C841.213 17.8574 842.42 16.4746 843.979 15.5137C845.537 14.541 847.342 14.0547 849.393 14.0547C852.111 14.0547 854.291 14.8164 855.932 16.3398C857.572 17.8516 858.527 19.9492 858.797 22.6328H855.404C855.111 20.5938 854.473 19.1172 853.488 18.2031C852.516 17.2891 851.15 16.832 849.393 16.832C847.236 16.832 845.543 17.6289 844.312 19.2227C843.094 20.8164 842.484 23.084 842.484 26.0254V28.5039C842.484 31.2812 843.064 33.4902 844.225 35.1309C845.385 36.7715 847.008 37.5918 849.094 37.5918C850.969 37.5918 852.404 37.1699 853.4 36.3262C854.408 35.4707 855.076 33.9883 855.404 31.8789H858.797Z" fill="#E8A1EE"/>
<path d="M862.049 30.3145C862.049 28.4512 862.412 26.7754 863.139 25.2871C863.877 23.7988 864.896 22.6504 866.197 21.8418C867.51 21.0332 869.004 20.6289 870.68 20.6289C873.27 20.6289 875.361 21.5254 876.955 23.3184C878.561 25.1113 879.363 27.4961 879.363 30.4727V30.7012C879.363 32.5527 879.006 34.2168 878.291 35.6934C877.588 37.1582 876.574 38.3008 875.25 39.1211C873.938 39.9414 872.426 40.3516 870.715 40.3516C868.137 40.3516 866.045 39.4551 864.439 37.6621C862.846 35.8691 862.049 33.4961 862.049 30.543V30.3145ZM865.318 30.7012C865.318 32.8105 865.805 34.5039 866.777 35.7812C867.762 37.0586 869.074 37.6973 870.715 37.6973C872.367 37.6973 873.68 37.0527 874.652 35.7637C875.625 34.4629 876.111 32.6465 876.111 30.3145C876.111 28.2285 875.613 26.541 874.617 25.252C873.633 23.9512 872.32 23.3008 870.68 23.3008C869.074 23.3008 867.779 23.9395 866.795 25.2168C865.811 26.4941 865.318 28.3223 865.318 30.7012Z" fill="#E8A1EE"/>
<path d="M892.635 23.8984C892.143 23.8164 891.609 23.7754 891.035 23.7754C888.902 23.7754 887.455 24.6836 886.693 26.5V40H883.441V20.9805H886.605L886.658 23.1777C887.725 21.4785 889.236 20.6289 891.193 20.6289C891.826 20.6289 892.307 20.7109 892.635 20.875V23.8984Z" fill="#E8A1EE"/>
<path d="M900.932 16.375V20.9805H904.482V23.4941H900.932V35.2891C900.932 36.0508 901.09 36.625 901.406 37.0117C901.723 37.3867 902.262 37.5742 903.023 37.5742C903.398 37.5742 903.914 37.5039 904.57 37.3633V40C903.715 40.2344 902.883 40.3516 902.074 40.3516C900.621 40.3516 899.525 39.9121 898.787 39.0332C898.049 38.1543 897.68 36.9062 897.68 35.2891V23.4941H894.217V20.9805H897.68V16.375H900.932Z" fill="#E8A1EE"/>
<path d="M916.189 40.3516C913.611 40.3516 911.514 39.5078 909.896 37.8203C908.279 36.1211 907.471 33.8535 907.471 31.0176V30.4199C907.471 28.5332 907.828 26.8516 908.543 25.375C909.27 23.8867 910.277 22.7266 911.566 21.8945C912.867 21.0508 914.273 20.6289 915.785 20.6289C918.258 20.6289 920.18 21.4434 921.551 23.0723C922.922 24.7012 923.607 27.0332 923.607 30.0684V31.4219H910.723C910.77 33.2969 911.314 34.8145 912.357 35.9746C913.412 37.123 914.748 37.6973 916.365 37.6973C917.514 37.6973 918.486 37.4629 919.283 36.9941C920.08 36.5254 920.777 35.9043 921.375 35.1309L923.361 36.6777C921.768 39.127 919.377 40.3516 916.189 40.3516ZM915.785 23.3008C914.473 23.3008 913.371 23.7812 912.48 24.7422C911.59 25.6914 911.039 27.0273 910.828 28.75H920.355V28.5039C920.262 26.8516 919.816 25.5742 919.02 24.6719C918.223 23.7578 917.145 23.3008 915.785 23.3008Z" fill="#E8A1EE"/>
</g>
<mask id="mask1" mask-type="alpha" maskUnits="userSpaceOnUse" x="846" y="35" width="108" height="212">
<path id="Rectangle 175" d="M846 35H954V247H846V35Z" fill="#C4C4C4"/>
</mask>
<g mask="url(#mask1)">
<g id="Group 337">
<path id="Ellipse 37 (Stroke)_2" fill-rule="evenodd" clip-rule="evenodd" d="M855 68C813.026 68 779 102.026 779 144C779 185.974 813.026 220 855 220C896.974 220 931 185.974 931 144C931 102.026 896.974 68 855 68ZM855 64C810.817 64 775 99.8172 775 144C775 188.183 810.817 224 855 224C899.183 224 935 188.183 935 144C935 99.8172 899.183 64 855 64Z" fill="white"/>
<path id="Line 160 (Stroke)_2" fill-rule="evenodd" clip-rule="evenodd" d="M855 64V224H851V64H855Z" fill="white"/>
<path id="Line 161 (Stroke)_2" fill-rule="evenodd" clip-rule="evenodd" d="M775 144L935 144V148L775 148V144Z" fill="white"/>
<path id="Line 162 (Stroke)_2" fill-rule="evenodd" clip-rule="evenodd" d="M798.863 201L912 87.863L914.828 90.6914L801.691 203.828L798.863 201Z" fill="white"/>
<path id="Rectangle 173 (Stroke)_2" fill-rule="evenodd" clip-rule="evenodd" d="M880 184H894V170H880V184ZM897 187V167H877V187H897Z" fill="white"/>
</g>
</g>
</g>
</svg>
