<svg viewBox="0 0 972 697" fill="none" xmlns="http://www.w3.org/2000/svg">
<g id="0127123">
<g id="enunciado">
<g id="Group 71">
<path id="Rectangle 1" d="M27 54.1722C27 25.7736 49.5821 2.75195 77.4386 2.75195H947V358.58C947 386.979 924.418 410 896.561 410H27V54.1722Z" fill="#02071A"/>
<path id="Rectangle 1 (Stroke)" fill-rule="evenodd" clip-rule="evenodd" d="M941.956 7.85154H77.4386C52.3678 7.85154 32.0439 28.5732 32.0439 54.1346V404.857H896.561C921.632 404.857 941.956 384.135 941.956 358.574V7.85154ZM77.4386 2.70898C49.5821 2.70898 27 25.733 27 54.1346V410H896.561C924.418 410 947 386.976 947 358.574V2.70898H77.4386Z" fill="#CD08D1"/>
<path id="Rectangle 14" d="M81.6251 2.84419C108.602 -3.55524 947 2.84419 947 2.84419V30.5486C947 30.5486 67.351 20.3658 36.0791 30.5486C45.8095 15.8546 54.6481 9.24361 81.6251 2.84419Z" fill="#CD08D1"/>
<path id="Rectangle 15" d="M915.076 8.80518H945.066V359.639C941.385 383.447 933.755 392.198 915.076 403.62C920.574 384.915 915.076 8.80518 915.076 8.80518Z" fill="#CD08D1"/>
</g>
<g id="Identifique la alternativa que completa la siguiente analog&#195;&#173;a">
<path d="M47.5918 75H44.2168V49.4062H47.5918V75Z" fill="white"/>
<path d="M52.4785 65.332C52.4785 62.4141 53.1699 60.0703 54.5527 58.3008C55.9355 56.5195 57.7461 55.6289 59.9844 55.6289C62.2109 55.6289 63.9746 56.3906 65.2754 57.9141V48H68.5273V75H65.5391L65.3809 72.9609C64.0801 74.5547 62.2695 75.3516 59.9492 75.3516C57.7461 75.3516 55.9473 74.4492 54.5527 72.6445C53.1699 70.8398 52.4785 68.4844 52.4785 65.5781V65.332ZM55.7305 65.7012C55.7305 67.8574 56.1758 69.5449 57.0664 70.7637C57.957 71.9824 59.1875 72.5918 60.7578 72.5918C62.8203 72.5918 64.3262 71.666 65.2754 69.8145V61.0781C64.3027 59.2852 62.8086 58.3887 60.793 58.3887C59.1992 58.3887 57.957 59.0039 57.0664 60.2344C56.1758 61.4648 55.7305 63.2871 55.7305 65.7012Z" fill="white"/>
<path d="M81.4824 75.3516C78.9043 75.3516 76.8066 74.5078 75.1895 72.8203C73.5723 71.1211 72.7637 68.8535 72.7637 66.0176V65.4199C72.7637 63.5332 73.1211 61.8516 73.8359 60.375C74.5625 58.8867 75.5703 57.7266 76.8594 56.8945C78.1602 56.0508 79.5664 55.6289 81.0781 55.6289C83.5508 55.6289 85.4727 56.4434 86.8438 58.0723C88.2148 59.7012 88.9004 62.0332 88.9004 65.0684V66.4219H76.0156C76.0625 68.2969 76.6074 69.8145 77.6504 70.9746C78.7051 72.123 80.041 72.6973 81.6582 72.6973C82.8066 72.6973 83.7793 72.4629 84.5762 71.9941C85.373 71.5254 86.0703 70.9043 86.668 70.1309L88.6543 71.6777C87.0605 74.127 84.6699 75.3516 81.4824 75.3516ZM81.0781 58.3008C79.7656 58.3008 78.6641 58.7812 77.7734 59.7422C76.8828 60.6914 76.332 62.0273 76.1211 63.75H85.6484V63.5039C85.5547 61.8516 85.1094 60.5742 84.3125 59.6719C83.5156 58.7578 82.4375 58.3008 81.0781 58.3008Z" fill="white"/>
<path d="M95.7559 55.9805L95.8613 58.3711C97.3145 56.543 99.2129 55.6289 101.557 55.6289C105.576 55.6289 107.604 57.8965 107.639 62.4316V75H104.387V62.4141C104.375 61.043 104.059 60.0293 103.438 59.373C102.828 58.7168 101.873 58.3887 100.572 58.3887C99.5176 58.3887 98.5918 58.6699 97.7949 59.2324C96.998 59.7949 96.377 60.5332 95.9316 61.4473V75H92.6797V55.9805H95.7559Z" fill="white"/>
<path d="M116.955 51.375V55.9805H120.506V58.4941H116.955V70.2891C116.955 71.0508 117.113 71.625 117.43 72.0117C117.746 72.3867 118.285 72.5742 119.047 72.5742C119.422 72.5742 119.938 72.5039 120.594 72.3633V75C119.738 75.2344 118.906 75.3516 118.098 75.3516C116.645 75.3516 115.549 74.9121 114.811 74.0332C114.072 73.1543 113.703 71.9062 113.703 70.2891V58.4941H110.24V55.9805H113.703V51.375H116.955Z" fill="white"/>
<path d="M127.854 75H124.602V55.9805H127.854V75ZM124.338 50.9355C124.338 50.4082 124.496 49.9629 124.812 49.5996C125.141 49.2363 125.621 49.0547 126.254 49.0547C126.887 49.0547 127.367 49.2363 127.695 49.5996C128.023 49.9629 128.188 50.4082 128.188 50.9355C128.188 51.4629 128.023 51.9023 127.695 52.2539C127.367 52.6055 126.887 52.7812 126.254 52.7812C125.621 52.7812 125.141 52.6055 124.812 52.2539C124.496 51.9023 124.338 51.4629 124.338 50.9355Z" fill="white"/>
<path d="M134.164 75V58.4941H131.158V55.9805H134.164V54.3633C134.164 52.2422 134.768 50.5898 135.975 49.4062C137.193 48.2227 138.91 47.6309 141.125 47.6309C142.438 47.6309 144.096 47.9883 146.1 48.7031L145.555 51.4453C144.09 50.8594 142.695 50.5664 141.371 50.5664C139.977 50.5664 138.969 50.8828 138.348 51.5156C137.738 52.1367 137.434 53.0742 137.434 54.3281V55.9805H141.318V58.4941H137.434V75H134.164ZM147.717 75H144.447V55.9805H147.717V75Z" fill="white"/>
<path d="M152.217 65.332C152.217 62.3438 152.902 59.9824 154.273 58.248C155.645 56.502 157.484 55.6289 159.793 55.6289C162.043 55.6289 163.818 56.3848 165.119 57.8965L165.26 55.9805H168.248V82.3125H164.996V73.2422C163.684 74.6484 161.938 75.3516 159.758 75.3516C157.461 75.3516 155.627 74.4609 154.256 72.6797C152.896 70.8867 152.217 68.5137 152.217 65.5605V65.332ZM155.469 65.7012C155.469 67.8809 155.926 69.5918 156.84 70.834C157.766 72.0762 159.008 72.6973 160.566 72.6973C162.5 72.6973 163.977 71.8418 164.996 70.1309V60.8145C163.965 59.1387 162.5 58.3008 160.602 58.3008C159.031 58.3008 157.783 58.9277 156.857 60.1816C155.932 61.4238 155.469 63.2637 155.469 65.7012Z" fill="white"/>
<path d="M185.211 73.1191C183.945 74.6074 182.088 75.3516 179.639 75.3516C177.611 75.3516 176.064 74.7656 174.998 73.5938C173.943 72.4102 173.41 70.6641 173.398 68.3555V55.9805H176.65V68.2676C176.65 71.1504 177.822 72.5918 180.166 72.5918C182.65 72.5918 184.303 71.666 185.123 69.8145V55.9805H188.375V75H185.281L185.211 73.1191Z" fill="white"/>
<path d="M201.225 75.3516C198.646 75.3516 196.549 74.5078 194.932 72.8203C193.314 71.1211 192.506 68.8535 192.506 66.0176V65.4199C192.506 63.5332 192.863 61.8516 193.578 60.375C194.305 58.8867 195.312 57.7266 196.602 56.8945C197.902 56.0508 199.309 55.6289 200.82 55.6289C203.293 55.6289 205.215 56.4434 206.586 58.0723C207.957 59.7012 208.643 62.0332 208.643 65.0684V66.4219H195.758C195.805 68.2969 196.35 69.8145 197.393 70.9746C198.447 72.123 199.783 72.6973 201.4 72.6973C202.549 72.6973 203.521 72.4629 204.318 71.9941C205.115 71.5254 205.812 70.9043 206.41 70.1309L208.396 71.6777C206.803 74.127 204.412 75.3516 201.225 75.3516ZM200.82 58.3008C199.508 58.3008 198.406 58.7812 197.516 59.7422C196.625 60.6914 196.074 62.0273 195.863 63.75H205.391V63.5039C205.297 61.8516 204.852 60.5742 204.055 59.6719C203.258 58.7578 202.18 58.3008 200.82 58.3008Z" fill="white"/>
<path d="M224.885 75H221.633V48H224.885V75Z" fill="white"/>
<path d="M241.848 75C241.66 74.625 241.508 73.957 241.391 72.9961C239.879 74.5664 238.074 75.3516 235.977 75.3516C234.102 75.3516 232.561 74.8242 231.354 73.7695C230.158 72.7031 229.561 71.3555 229.561 69.7266C229.561 67.7461 230.311 66.2109 231.811 65.1211C233.322 64.0195 235.443 63.4688 238.174 63.4688H241.338V61.9746C241.338 60.8379 240.998 59.9355 240.318 59.2676C239.639 58.5879 238.637 58.248 237.312 58.248C236.152 58.248 235.18 58.541 234.395 59.127C233.609 59.7129 233.217 60.4219 233.217 61.2539H229.947C229.947 60.3047 230.281 59.3906 230.949 58.5117C231.629 57.6211 232.543 56.918 233.691 56.4023C234.852 55.8867 236.123 55.6289 237.506 55.6289C239.697 55.6289 241.414 56.1797 242.656 57.2812C243.898 58.3711 244.543 59.877 244.59 61.7988V70.5527C244.59 72.2988 244.812 73.6875 245.258 74.7188V75H241.848ZM236.451 72.5215C237.471 72.5215 238.438 72.2578 239.352 71.7305C240.266 71.2031 240.928 70.5176 241.338 69.6738V65.7715H238.789C234.805 65.7715 232.812 66.9375 232.812 69.2695C232.812 70.2891 233.152 71.0859 233.832 71.6602C234.512 72.2344 235.385 72.5215 236.451 72.5215Z" fill="white"/>
<path d="M270.359 75C270.172 74.625 270.02 73.957 269.902 72.9961C268.391 74.5664 266.586 75.3516 264.488 75.3516C262.613 75.3516 261.072 74.8242 259.865 73.7695C258.67 72.7031 258.072 71.3555 258.072 69.7266C258.072 67.7461 258.822 66.2109 260.322 65.1211C261.834 64.0195 263.955 63.4688 266.686 63.4688H269.85V61.9746C269.85 60.8379 269.51 59.9355 268.83 59.2676C268.15 58.5879 267.148 58.248 265.824 58.248C264.664 58.248 263.691 58.541 262.906 59.127C262.121 59.7129 261.729 60.4219 261.729 61.2539H258.459C258.459 60.3047 258.793 59.3906 259.461 58.5117C260.141 57.6211 261.055 56.918 262.203 56.4023C263.363 55.8867 264.635 55.6289 266.018 55.6289C268.209 55.6289 269.926 56.1797 271.168 57.2812C272.41 58.3711 273.055 59.877 273.102 61.7988V70.5527C273.102 72.2988 273.324 73.6875 273.77 74.7188V75H270.359ZM264.963 72.5215C265.982 72.5215 266.949 72.2578 267.863 71.7305C268.777 71.2031 269.439 70.5176 269.85 69.6738V65.7715H267.301C263.316 65.7715 261.324 66.9375 261.324 69.2695C261.324 70.2891 261.664 71.0859 262.344 71.6602C263.023 72.2344 263.896 72.5215 264.963 72.5215Z" fill="white"/>
<path d="M281.732 75H278.48V48H281.732V75Z" fill="white"/>
<path d="M291.365 51.375V55.9805H294.916V58.4941H291.365V70.2891C291.365 71.0508 291.523 71.625 291.84 72.0117C292.156 72.3867 292.695 72.5742 293.457 72.5742C293.832 72.5742 294.348 72.5039 295.004 72.3633V75C294.148 75.2344 293.316 75.3516 292.508 75.3516C291.055 75.3516 289.959 74.9121 289.221 74.0332C288.482 73.1543 288.113 71.9062 288.113 70.2891V58.4941H284.65V55.9805H288.113V51.375H291.365Z" fill="white"/>
<path d="M306.623 75.3516C304.045 75.3516 301.947 74.5078 300.33 72.8203C298.713 71.1211 297.904 68.8535 297.904 66.0176V65.4199C297.904 63.5332 298.262 61.8516 298.977 60.375C299.703 58.8867 300.711 57.7266 302 56.8945C303.301 56.0508 304.707 55.6289 306.219 55.6289C308.691 55.6289 310.613 56.4434 311.984 58.0723C313.355 59.7012 314.041 62.0332 314.041 65.0684V66.4219H301.156C301.203 68.2969 301.748 69.8145 302.791 70.9746C303.846 72.123 305.182 72.6973 306.799 72.6973C307.947 72.6973 308.92 72.4629 309.717 71.9941C310.514 71.5254 311.211 70.9043 311.809 70.1309L313.795 71.6777C312.201 74.127 309.811 75.3516 306.623 75.3516ZM306.219 58.3008C304.906 58.3008 303.805 58.7812 302.914 59.7422C302.023 60.6914 301.473 62.0273 301.262 63.75H310.789V63.5039C310.695 61.8516 310.25 60.5742 309.453 59.6719C308.656 58.7578 307.578 58.3008 306.219 58.3008Z" fill="white"/>
<path d="M327.014 58.8984C326.521 58.8164 325.988 58.7754 325.414 58.7754C323.281 58.7754 321.834 59.6836 321.072 61.5V75H317.82V55.9805H320.984L321.037 58.1777C322.104 56.4785 323.615 55.6289 325.572 55.6289C326.205 55.6289 326.686 55.7109 327.014 55.875V58.8984Z" fill="white"/>
<path d="M333.096 55.9805L333.201 58.3711C334.654 56.543 336.553 55.6289 338.896 55.6289C342.916 55.6289 344.943 57.8965 344.979 62.4316V75H341.727V62.4141C341.715 61.043 341.398 60.0293 340.777 59.373C340.168 58.7168 339.213 58.3887 337.912 58.3887C336.857 58.3887 335.932 58.6699 335.135 59.2324C334.338 59.7949 333.717 60.5332 333.271 61.4473V75H330.02V55.9805H333.096Z" fill="white"/>
<path d="M361.625 75C361.438 74.625 361.285 73.957 361.168 72.9961C359.656 74.5664 357.852 75.3516 355.754 75.3516C353.879 75.3516 352.338 74.8242 351.131 73.7695C349.936 72.7031 349.338 71.3555 349.338 69.7266C349.338 67.7461 350.088 66.2109 351.588 65.1211C353.1 64.0195 355.221 63.4688 357.951 63.4688H361.115V61.9746C361.115 60.8379 360.775 59.9355 360.096 59.2676C359.416 58.5879 358.414 58.248 357.09 58.248C355.93 58.248 354.957 58.541 354.172 59.127C353.387 59.7129 352.994 60.4219 352.994 61.2539H349.725C349.725 60.3047 350.059 59.3906 350.727 58.5117C351.406 57.6211 352.32 56.918 353.469 56.4023C354.629 55.8867 355.9 55.6289 357.283 55.6289C359.475 55.6289 361.191 56.1797 362.434 57.2812C363.676 58.3711 364.32 59.877 364.367 61.7988V70.5527C364.367 72.2988 364.59 73.6875 365.035 74.7188V75H361.625ZM356.229 72.5215C357.248 72.5215 358.215 72.2578 359.129 71.7305C360.043 71.2031 360.705 70.5176 361.115 69.6738V65.7715H358.566C354.582 65.7715 352.59 66.9375 352.59 69.2695C352.59 70.2891 352.93 71.0859 353.609 71.6602C354.289 72.2344 355.162 72.5215 356.229 72.5215Z" fill="white"/>
<path d="M373.877 51.375V55.9805H377.428V58.4941H373.877V70.2891C373.877 71.0508 374.035 71.625 374.352 72.0117C374.668 72.3867 375.207 72.5742 375.969 72.5742C376.344 72.5742 376.859 72.5039 377.516 72.3633V75C376.66 75.2344 375.828 75.3516 375.02 75.3516C373.566 75.3516 372.471 74.9121 371.732 74.0332C370.994 73.1543 370.625 71.9062 370.625 70.2891V58.4941H367.162V55.9805H370.625V51.375H373.877Z" fill="white"/>
<path d="M384.775 75H381.523V55.9805H384.775V75ZM381.26 50.9355C381.26 50.4082 381.418 49.9629 381.734 49.5996C382.062 49.2363 382.543 49.0547 383.176 49.0547C383.809 49.0547 384.289 49.2363 384.617 49.5996C384.945 49.9629 385.109 50.4082 385.109 50.9355C385.109 51.4629 384.945 51.9023 384.617 52.2539C384.289 52.6055 383.809 52.7812 383.176 52.7812C382.543 52.7812 382.062 52.6055 381.734 52.2539C381.418 51.9023 381.26 51.4629 381.26 50.9355Z" fill="white"/>
<path d="M396.271 70.5879L400.982 55.9805H404.305L397.484 75H395.006L388.115 55.9805H391.438L396.271 70.5879Z" fill="white"/>
<path d="M418.895 75C418.707 74.625 418.555 73.957 418.438 72.9961C416.926 74.5664 415.121 75.3516 413.023 75.3516C411.148 75.3516 409.607 74.8242 408.4 73.7695C407.205 72.7031 406.607 71.3555 406.607 69.7266C406.607 67.7461 407.357 66.2109 408.857 65.1211C410.369 64.0195 412.49 63.4688 415.221 63.4688H418.385V61.9746C418.385 60.8379 418.045 59.9355 417.365 59.2676C416.686 58.5879 415.684 58.248 414.359 58.248C413.199 58.248 412.227 58.541 411.441 59.127C410.656 59.7129 410.264 60.4219 410.264 61.2539H406.994C406.994 60.3047 407.328 59.3906 407.996 58.5117C408.676 57.6211 409.59 56.918 410.738 56.4023C411.898 55.8867 413.17 55.6289 414.553 55.6289C416.744 55.6289 418.461 56.1797 419.703 57.2812C420.945 58.3711 421.59 59.877 421.637 61.7988V70.5527C421.637 72.2988 421.859 73.6875 422.305 74.7188V75H418.895ZM413.498 72.5215C414.518 72.5215 415.484 72.2578 416.398 71.7305C417.312 71.2031 417.975 70.5176 418.385 69.6738V65.7715H415.836C411.852 65.7715 409.859 66.9375 409.859 69.2695C409.859 70.2891 410.199 71.0859 410.879 71.6602C411.559 72.2344 412.432 72.5215 413.498 72.5215Z" fill="white"/>
<path d="M434.873 65.332C434.873 62.3438 435.559 59.9824 436.93 58.248C438.301 56.502 440.141 55.6289 442.449 55.6289C444.699 55.6289 446.475 56.3848 447.775 57.8965L447.916 55.9805H450.904V82.3125H447.652V73.2422C446.34 74.6484 444.594 75.3516 442.414 75.3516C440.117 75.3516 438.283 74.4609 436.912 72.6797C435.553 70.8867 434.873 68.5137 434.873 65.5605V65.332ZM438.125 65.7012C438.125 67.8809 438.582 69.5918 439.496 70.834C440.422 72.0762 441.664 72.6973 443.223 72.6973C445.156 72.6973 446.633 71.8418 447.652 70.1309V60.8145C446.621 59.1387 445.156 58.3008 443.258 58.3008C441.688 58.3008 440.439 58.9277 439.514 60.1816C438.588 61.4238 438.125 63.2637 438.125 65.7012Z" fill="white"/>
<path d="M467.867 73.1191C466.602 74.6074 464.744 75.3516 462.295 75.3516C460.268 75.3516 458.721 74.7656 457.654 73.5938C456.6 72.4102 456.066 70.6641 456.055 68.3555V55.9805H459.307V68.2676C459.307 71.1504 460.479 72.5918 462.822 72.5918C465.307 72.5918 466.959 71.666 467.779 69.8145V55.9805H471.031V75H467.938L467.867 73.1191Z" fill="white"/>
<path d="M483.881 75.3516C481.303 75.3516 479.205 74.5078 477.588 72.8203C475.971 71.1211 475.162 68.8535 475.162 66.0176V65.4199C475.162 63.5332 475.52 61.8516 476.234 60.375C476.961 58.8867 477.969 57.7266 479.258 56.8945C480.559 56.0508 481.965 55.6289 483.477 55.6289C485.949 55.6289 487.871 56.4434 489.242 58.0723C490.613 59.7012 491.299 62.0332 491.299 65.0684V66.4219H478.414C478.461 68.2969 479.006 69.8145 480.049 70.9746C481.104 72.123 482.439 72.6973 484.057 72.6973C485.205 72.6973 486.178 72.4629 486.975 71.9941C487.771 71.5254 488.469 70.9043 489.066 70.1309L491.053 71.6777C489.459 74.127 487.068 75.3516 483.881 75.3516ZM483.477 58.3008C482.164 58.3008 481.062 58.7812 480.172 59.7422C479.281 60.6914 478.73 62.0273 478.52 63.75H488.047V63.5039C487.953 61.8516 487.508 60.5742 486.711 59.6719C485.914 58.7578 484.836 58.3008 483.477 58.3008Z" fill="white"/>
<path d="M511.637 72.6973C512.797 72.6973 513.811 72.3457 514.678 71.6426C515.545 70.9395 516.025 70.0605 516.119 69.0059H519.195C519.137 70.0957 518.762 71.1328 518.07 72.1172C517.379 73.1016 516.453 73.8867 515.293 74.4727C514.145 75.0586 512.926 75.3516 511.637 75.3516C509.047 75.3516 506.984 74.4902 505.449 72.7676C503.926 71.0332 503.164 68.666 503.164 65.666V65.1211C503.164 63.2695 503.504 61.623 504.184 60.1816C504.863 58.7402 505.836 57.6211 507.102 56.8242C508.379 56.0273 509.885 55.6289 511.619 55.6289C513.752 55.6289 515.521 56.2676 516.928 57.5449C518.346 58.8223 519.102 60.4805 519.195 62.5195H516.119C516.025 61.2891 515.557 60.2812 514.713 59.4961C513.881 58.6992 512.85 58.3008 511.619 58.3008C509.967 58.3008 508.684 58.8984 507.77 60.0938C506.867 61.2773 506.416 62.9941 506.416 65.2441V65.8594C506.416 68.0508 506.867 69.7383 507.77 70.9219C508.672 72.1055 509.961 72.6973 511.637 72.6973Z" fill="white"/>
<path d="M521.99 65.3145C521.99 63.4512 522.354 61.7754 523.08 60.2871C523.818 58.7988 524.838 57.6504 526.139 56.8418C527.451 56.0332 528.945 55.6289 530.621 55.6289C533.211 55.6289 535.303 56.5254 536.896 58.3184C538.502 60.1113 539.305 62.4961 539.305 65.4727V65.7012C539.305 67.5527 538.947 69.2168 538.232 70.6934C537.529 72.1582 536.516 73.3008 535.191 74.1211C533.879 74.9414 532.367 75.3516 530.656 75.3516C528.078 75.3516 525.986 74.4551 524.381 72.6621C522.787 70.8691 521.99 68.4961 521.99 65.543V65.3145ZM525.26 65.7012C525.26 67.8105 525.746 69.5039 526.719 70.7812C527.703 72.0586 529.016 72.6973 530.656 72.6973C532.309 72.6973 533.621 72.0527 534.594 70.7637C535.566 69.4629 536.053 67.6465 536.053 65.3145C536.053 63.2285 535.555 61.541 534.559 60.252C533.574 58.9512 532.262 58.3008 530.621 58.3008C529.016 58.3008 527.721 58.9395 526.736 60.2168C525.752 61.4941 525.26 63.3223 525.26 65.7012Z" fill="white"/>
<path d="M546.441 55.9805L546.529 58.0898C547.924 56.4492 549.805 55.6289 552.172 55.6289C554.832 55.6289 556.643 56.6484 557.604 58.6875C558.236 57.7734 559.057 57.0352 560.064 56.4727C561.084 55.9102 562.285 55.6289 563.668 55.6289C567.84 55.6289 569.961 57.8379 570.031 62.2559V75H566.779V62.4492C566.779 61.0898 566.469 60.0762 565.848 59.4082C565.227 58.7285 564.184 58.3887 562.719 58.3887C561.512 58.3887 560.51 58.752 559.713 59.4785C558.916 60.1934 558.453 61.1602 558.324 62.3789V75H555.055V62.5371C555.055 59.7715 553.701 58.3887 550.994 58.3887C548.861 58.3887 547.402 59.2969 546.617 61.1133V75H543.365V55.9805H546.441Z" fill="white"/>
<path d="M591.02 65.7012C591.02 68.5957 590.357 70.9277 589.033 72.6973C587.709 74.4668 585.916 75.3516 583.654 75.3516C581.346 75.3516 579.529 74.6191 578.205 73.1543V82.3125H574.953V55.9805H577.924L578.082 58.0898C579.406 56.4492 581.246 55.6289 583.602 55.6289C585.887 55.6289 587.691 56.4902 589.016 58.2129C590.352 59.9355 591.02 62.332 591.02 65.4023V65.7012ZM587.768 65.332C587.768 63.1875 587.311 61.4941 586.396 60.252C585.482 59.0098 584.229 58.3887 582.635 58.3887C580.666 58.3887 579.189 59.2617 578.205 61.0078V70.0957C579.178 71.8301 580.666 72.6973 582.67 72.6973C584.229 72.6973 585.465 72.082 586.379 70.8516C587.305 69.6094 587.768 67.7695 587.768 65.332Z" fill="white"/>
<path d="M598.701 75H595.449V48H598.701V75Z" fill="white"/>
<path d="M611.814 75.3516C609.236 75.3516 607.139 74.5078 605.521 72.8203C603.904 71.1211 603.096 68.8535 603.096 66.0176V65.4199C603.096 63.5332 603.453 61.8516 604.168 60.375C604.895 58.8867 605.902 57.7266 607.191 56.8945C608.492 56.0508 609.898 55.6289 611.41 55.6289C613.883 55.6289 615.805 56.4434 617.176 58.0723C618.547 59.7012 619.232 62.0332 619.232 65.0684V66.4219H606.348C606.395 68.2969 606.939 69.8145 607.982 70.9746C609.037 72.123 610.373 72.6973 611.99 72.6973C613.139 72.6973 614.111 72.4629 614.908 71.9941C615.705 71.5254 616.402 70.9043 617 70.1309L618.986 71.6777C617.393 74.127 615.002 75.3516 611.814 75.3516ZM611.41 58.3008C610.098 58.3008 608.996 58.7812 608.105 59.7422C607.215 60.6914 606.664 62.0273 606.453 63.75H615.98V63.5039C615.887 61.8516 615.441 60.5742 614.645 59.6719C613.848 58.7578 612.77 58.3008 611.41 58.3008Z" fill="white"/>
<path d="M627.424 51.375V55.9805H630.975V58.4941H627.424V70.2891C627.424 71.0508 627.582 71.625 627.898 72.0117C628.215 72.3867 628.754 72.5742 629.516 72.5742C629.891 72.5742 630.406 72.5039 631.062 72.3633V75C630.207 75.2344 629.375 75.3516 628.566 75.3516C627.113 75.3516 626.018 74.9121 625.279 74.0332C624.541 73.1543 624.172 71.9062 624.172 70.2891V58.4941H620.709V55.9805H624.172V51.375H627.424Z" fill="white"/>
<path d="M646.531 75C646.344 74.625 646.191 73.957 646.074 72.9961C644.562 74.5664 642.758 75.3516 640.66 75.3516C638.785 75.3516 637.244 74.8242 636.037 73.7695C634.842 72.7031 634.244 71.3555 634.244 69.7266C634.244 67.7461 634.994 66.2109 636.494 65.1211C638.006 64.0195 640.127 63.4688 642.857 63.4688H646.021V61.9746C646.021 60.8379 645.682 59.9355 645.002 59.2676C644.322 58.5879 643.32 58.248 641.996 58.248C640.836 58.248 639.863 58.541 639.078 59.127C638.293 59.7129 637.9 60.4219 637.9 61.2539H634.631C634.631 60.3047 634.965 59.3906 635.633 58.5117C636.312 57.6211 637.227 56.918 638.375 56.4023C639.535 55.8867 640.807 55.6289 642.189 55.6289C644.381 55.6289 646.098 56.1797 647.34 57.2812C648.582 58.3711 649.227 59.877 649.273 61.7988V70.5527C649.273 72.2988 649.496 73.6875 649.941 74.7188V75H646.531ZM641.135 72.5215C642.154 72.5215 643.121 72.2578 644.035 71.7305C644.949 71.2031 645.611 70.5176 646.021 69.6738V65.7715H643.473C639.488 65.7715 637.496 66.9375 637.496 69.2695C637.496 70.2891 637.836 71.0859 638.516 71.6602C639.195 72.2344 640.068 72.5215 641.135 72.5215Z" fill="white"/>
<path d="M666.834 75H663.582V48H666.834V75Z" fill="white"/>
<path d="M683.797 75C683.609 74.625 683.457 73.957 683.34 72.9961C681.828 74.5664 680.023 75.3516 677.926 75.3516C676.051 75.3516 674.51 74.8242 673.303 73.7695C672.107 72.7031 671.51 71.3555 671.51 69.7266C671.51 67.7461 672.26 66.2109 673.76 65.1211C675.271 64.0195 677.393 63.4688 680.123 63.4688H683.287V61.9746C683.287 60.8379 682.947 59.9355 682.268 59.2676C681.588 58.5879 680.586 58.248 679.262 58.248C678.102 58.248 677.129 58.541 676.344 59.127C675.559 59.7129 675.166 60.4219 675.166 61.2539H671.896C671.896 60.3047 672.23 59.3906 672.898 58.5117C673.578 57.6211 674.492 56.918 675.641 56.4023C676.801 55.8867 678.072 55.6289 679.455 55.6289C681.646 55.6289 683.363 56.1797 684.605 57.2812C685.848 58.3711 686.492 59.877 686.539 61.7988V70.5527C686.539 72.2988 686.762 73.6875 687.207 74.7188V75H683.797ZM678.4 72.5215C679.42 72.5215 680.387 72.2578 681.301 71.7305C682.215 71.2031 682.877 70.5176 683.287 69.6738V65.7715H680.738C676.754 65.7715 674.762 66.9375 674.762 69.2695C674.762 70.2891 675.102 71.0859 675.781 71.6602C676.461 72.2344 677.334 72.5215 678.4 72.5215Z" fill="white"/>
<path d="M711.641 69.9551C711.641 69.0762 711.307 68.3965 710.639 67.916C709.982 67.4238 708.828 67.002 707.176 66.6504C705.535 66.2988 704.229 65.877 703.256 65.3848C702.295 64.8926 701.58 64.3066 701.111 63.627C700.654 62.9473 700.426 62.1387 700.426 61.2012C700.426 59.6426 701.082 58.3242 702.395 57.2461C703.719 56.168 705.406 55.6289 707.457 55.6289C709.613 55.6289 711.359 56.1855 712.695 57.2988C714.043 58.4121 714.717 59.8359 714.717 61.5703H711.447C711.447 60.6797 711.066 59.9121 710.305 59.2676C709.555 58.623 708.605 58.3008 707.457 58.3008C706.273 58.3008 705.348 58.5586 704.68 59.0742C704.012 59.5898 703.678 60.2637 703.678 61.0957C703.678 61.8809 703.988 62.4727 704.609 62.8711C705.23 63.2695 706.35 63.6504 707.967 64.0137C709.596 64.377 710.914 64.8105 711.922 65.3145C712.93 65.8184 713.674 66.4277 714.154 67.1426C714.646 67.8457 714.893 68.707 714.893 69.7266C714.893 71.4258 714.213 72.791 712.854 73.8223C711.494 74.8418 709.73 75.3516 707.562 75.3516C706.039 75.3516 704.691 75.082 703.52 74.543C702.348 74.0039 701.428 73.2539 700.76 72.293C700.104 71.3203 699.775 70.2715 699.775 69.1465H703.027C703.086 70.2363 703.52 71.1035 704.328 71.748C705.148 72.3809 706.227 72.6973 707.562 72.6973C708.793 72.6973 709.777 72.4512 710.516 71.959C711.266 71.4551 711.641 70.7871 711.641 69.9551Z" fill="white"/>
<path d="M722.662 75H719.41V55.9805H722.662V75ZM719.146 50.9355C719.146 50.4082 719.305 49.9629 719.621 49.5996C719.949 49.2363 720.43 49.0547 721.062 49.0547C721.695 49.0547 722.176 49.2363 722.504 49.5996C722.832 49.9629 722.996 50.4082 722.996 50.9355C722.996 51.4629 722.832 51.9023 722.504 52.2539C722.176 52.6055 721.695 52.7812 721.062 52.7812C720.43 52.7812 719.949 52.6055 719.621 52.2539C719.305 51.9023 719.146 51.4629 719.146 50.9355Z" fill="white"/>
<path d="M727.109 65.332C727.109 62.3672 727.795 60.0117 729.166 58.2656C730.537 56.5078 732.354 55.6289 734.615 55.6289C736.936 55.6289 738.746 56.4492 740.047 58.0898L740.205 55.9805H743.176V74.543C743.176 77.0039 742.443 78.9434 740.979 80.3613C739.525 81.7793 737.568 82.4883 735.107 82.4883C733.736 82.4883 732.395 82.1953 731.082 81.6094C729.77 81.0234 728.768 80.2207 728.076 79.2012L729.764 77.25C731.158 78.9727 732.863 79.834 734.879 79.834C736.461 79.834 737.691 79.3887 738.57 78.498C739.461 77.6074 739.906 76.3535 739.906 74.7363V73.1016C738.605 74.6016 736.83 75.3516 734.58 75.3516C732.354 75.3516 730.549 74.4551 729.166 72.6621C727.795 70.8691 727.109 68.4258 727.109 65.332ZM730.379 65.7012C730.379 67.8457 730.818 69.5332 731.697 70.7637C732.576 71.9824 733.807 72.5918 735.389 72.5918C737.439 72.5918 738.945 71.6602 739.906 69.7969V61.1133C738.91 59.2969 737.416 58.3887 735.424 58.3887C733.842 58.3887 732.605 59.0039 731.715 60.2344C730.824 61.4648 730.379 63.2871 730.379 65.7012Z" fill="white"/>
<path d="M759.84 73.1191C758.574 74.6074 756.717 75.3516 754.268 75.3516C752.24 75.3516 750.693 74.7656 749.627 73.5938C748.572 72.4102 748.039 70.6641 748.027 68.3555V55.9805H751.279V68.2676C751.279 71.1504 752.451 72.5918 754.795 72.5918C757.279 72.5918 758.932 71.666 759.752 69.8145V55.9805H763.004V75H759.91L759.84 73.1191Z" fill="white"/>
<path d="M771.494 75H768.242V55.9805H771.494V75ZM767.979 50.9355C767.979 50.4082 768.137 49.9629 768.453 49.5996C768.781 49.2363 769.262 49.0547 769.895 49.0547C770.527 49.0547 771.008 49.2363 771.336 49.5996C771.664 49.9629 771.828 50.4082 771.828 50.9355C771.828 51.4629 771.664 51.9023 771.336 52.2539C771.008 52.6055 770.527 52.7812 769.895 52.7812C769.262 52.7812 768.781 52.6055 768.453 52.2539C768.137 51.9023 767.979 51.4629 767.979 50.9355Z" fill="white"/>
<path d="M784.607 75.3516C782.029 75.3516 779.932 74.5078 778.314 72.8203C776.697 71.1211 775.889 68.8535 775.889 66.0176V65.4199C775.889 63.5332 776.246 61.8516 776.961 60.375C777.688 58.8867 778.695 57.7266 779.984 56.8945C781.285 56.0508 782.691 55.6289 784.203 55.6289C786.676 55.6289 788.598 56.4434 789.969 58.0723C791.34 59.7012 792.025 62.0332 792.025 65.0684V66.4219H779.141C779.188 68.2969 779.732 69.8145 780.775 70.9746C781.83 72.123 783.166 72.6973 784.783 72.6973C785.932 72.6973 786.904 72.4629 787.701 71.9941C788.498 71.5254 789.195 70.9043 789.793 70.1309L791.779 71.6777C790.186 74.127 787.795 75.3516 784.607 75.3516ZM784.203 58.3008C782.891 58.3008 781.789 58.7812 780.898 59.7422C780.008 60.6914 779.457 62.0273 779.246 63.75H788.773V63.5039C788.68 61.8516 788.234 60.5742 787.438 59.6719C786.641 58.7578 785.562 58.3008 784.203 58.3008Z" fill="white"/>
<path d="M798.881 55.9805L798.986 58.3711C800.439 56.543 802.338 55.6289 804.682 55.6289C808.701 55.6289 810.729 57.8965 810.764 62.4316V75H807.512V62.4141C807.5 61.043 807.184 60.0293 806.562 59.373C805.953 58.7168 804.998 58.3887 803.697 58.3887C802.643 58.3887 801.717 58.6699 800.92 59.2324C800.123 59.7949 799.502 60.5332 799.057 61.4473V75H795.805V55.9805H798.881Z" fill="white"/>
<path d="M820.08 51.375V55.9805H823.631V58.4941H820.08V70.2891C820.08 71.0508 820.238 71.625 820.555 72.0117C820.871 72.3867 821.41 72.5742 822.172 72.5742C822.547 72.5742 823.062 72.5039 823.719 72.3633V75C822.863 75.2344 822.031 75.3516 821.223 75.3516C819.77 75.3516 818.674 74.9121 817.936 74.0332C817.197 73.1543 816.828 71.9062 816.828 70.2891V58.4941H813.365V55.9805H816.828V51.375H820.08Z" fill="white"/>
<path d="M835.338 75.3516C832.76 75.3516 830.662 74.5078 829.045 72.8203C827.428 71.1211 826.619 68.8535 826.619 66.0176V65.4199C826.619 63.5332 826.977 61.8516 827.691 60.375C828.418 58.8867 829.426 57.7266 830.715 56.8945C832.016 56.0508 833.422 55.6289 834.934 55.6289C837.406 55.6289 839.328 56.4434 840.699 58.0723C842.07 59.7012 842.756 62.0332 842.756 65.0684V66.4219H829.871C829.918 68.2969 830.463 69.8145 831.506 70.9746C832.561 72.123 833.896 72.6973 835.514 72.6973C836.662 72.6973 837.635 72.4629 838.432 71.9941C839.229 71.5254 839.926 70.9043 840.523 70.1309L842.51 71.6777C840.916 74.127 838.525 75.3516 835.338 75.3516ZM834.934 58.3008C833.621 58.3008 832.52 58.7812 831.629 59.7422C830.738 60.6914 830.188 62.0273 829.977 63.75H839.504V63.5039C839.41 61.8516 838.965 60.5742 838.168 59.6719C837.371 58.7578 836.293 58.3008 834.934 58.3008Z" fill="white"/>
<path d="M55.2031 117C55.0156 116.625 54.8633 115.957 54.7461 114.996C53.2344 116.566 51.4297 117.352 49.332 117.352C47.457 117.352 45.916 116.824 44.709 115.77C43.5137 114.703 42.916 113.355 42.916 111.727C42.916 109.746 43.666 108.211 45.166 107.121C46.6777 106.02 48.7988 105.469 51.5293 105.469H54.6934V103.975C54.6934 102.838 54.3535 101.936 53.6738 101.268C52.9941 100.588 51.9922 100.248 50.668 100.248C49.5078 100.248 48.5352 100.541 47.75 101.127C46.9648 101.713 46.5723 102.422 46.5723 103.254H43.3027C43.3027 102.305 43.6367 101.391 44.3047 100.512C44.9844 99.6211 45.8984 98.918 47.0469 98.4023C48.207 97.8867 49.4785 97.6289 50.8613 97.6289C53.0527 97.6289 54.7695 98.1797 56.0117 99.2812C57.2539 100.371 57.8984 101.877 57.9453 103.799V112.553C57.9453 114.299 58.168 115.688 58.6133 116.719V117H55.2031ZM49.8066 114.521C50.8262 114.521 51.793 114.258 52.707 113.73C53.6211 113.203 54.2832 112.518 54.6934 111.674V107.771H52.1445C48.1602 107.771 46.168 108.938 46.168 111.27C46.168 112.289 46.5078 113.086 47.1875 113.66C47.8672 114.234 48.7402 114.521 49.8066 114.521Z" fill="white"/>
<path d="M66.1191 97.9805L66.2246 100.371C67.6777 98.543 69.5762 97.6289 71.9199 97.6289C75.9395 97.6289 77.9668 99.8965 78.002 104.432V117H74.75V104.414C74.7383 103.043 74.4219 102.029 73.8008 101.373C73.1914 100.717 72.2363 100.389 70.9355 100.389C69.8809 100.389 68.9551 100.67 68.1582 101.232C67.3613 101.795 66.7402 102.533 66.2949 103.447V117H63.043V97.9805H66.1191Z" fill="white"/>
<path d="M94.6484 117C94.4609 116.625 94.3086 115.957 94.1914 114.996C92.6797 116.566 90.875 117.352 88.7773 117.352C86.9023 117.352 85.3613 116.824 84.1543 115.77C82.959 114.703 82.3613 113.355 82.3613 111.727C82.3613 109.746 83.1113 108.211 84.6113 107.121C86.123 106.02 88.2441 105.469 90.9746 105.469H94.1387V103.975C94.1387 102.838 93.7988 101.936 93.1191 101.268C92.4395 100.588 91.4375 100.248 90.1133 100.248C88.9531 100.248 87.9805 100.541 87.1953 101.127C86.4102 101.713 86.0176 102.422 86.0176 103.254H82.748C82.748 102.305 83.082 101.391 83.75 100.512C84.4297 99.6211 85.3438 98.918 86.4922 98.4023C87.6523 97.8867 88.9238 97.6289 90.3066 97.6289C92.498 97.6289 94.2148 98.1797 95.457 99.2812C96.6992 100.371 97.3438 101.877 97.3906 103.799V112.553C97.3906 114.299 97.6133 115.688 98.0586 116.719V117H94.6484ZM89.252 114.521C90.2715 114.521 91.2383 114.258 92.1523 113.73C93.0664 113.203 93.7285 112.518 94.1387 111.674V107.771H91.5898C87.6055 107.771 85.6133 108.938 85.6133 111.27C85.6133 112.289 85.9531 113.086 86.6328 113.66C87.3125 114.234 88.1855 114.521 89.252 114.521Z" fill="white"/>
<path d="M106.021 117H102.77V90H106.021V117Z" fill="white"/>
<path d="M110.381 107.314C110.381 105.451 110.744 103.775 111.471 102.287C112.209 100.799 113.229 99.6504 114.529 98.8418C115.842 98.0332 117.336 97.6289 119.012 97.6289C121.602 97.6289 123.693 98.5254 125.287 100.318C126.893 102.111 127.695 104.496 127.695 107.473V107.701C127.695 109.553 127.338 111.217 126.623 112.693C125.92 114.158 124.906 115.301 123.582 116.121C122.27 116.941 120.758 117.352 119.047 117.352C116.469 117.352 114.377 116.455 112.771 114.662C111.178 112.869 110.381 110.496 110.381 107.543V107.314ZM113.65 107.701C113.65 109.811 114.137 111.504 115.109 112.781C116.094 114.059 117.406 114.697 119.047 114.697C120.699 114.697 122.012 114.053 122.984 112.764C123.957 111.463 124.443 109.646 124.443 107.314C124.443 105.229 123.945 103.541 122.949 102.252C121.965 100.951 120.652 100.301 119.012 100.301C117.406 100.301 116.111 100.939 115.127 102.217C114.143 103.494 113.65 105.322 113.65 107.701Z" fill="white"/>
<path d="M131 107.332C131 104.367 131.686 102.012 133.057 100.266C134.428 98.5078 136.244 97.6289 138.506 97.6289C140.826 97.6289 142.637 98.4492 143.938 100.09L144.096 97.9805H147.066V116.543C147.066 119.004 146.334 120.943 144.869 122.361C143.416 123.779 141.459 124.488 138.998 124.488C137.627 124.488 136.285 124.195 134.973 123.609C133.66 123.023 132.658 122.221 131.967 121.201L133.654 119.25C135.049 120.973 136.754 121.834 138.77 121.834C140.352 121.834 141.582 121.389 142.461 120.498C143.352 119.607 143.797 118.354 143.797 116.736V115.102C142.496 116.602 140.721 117.352 138.471 117.352C136.244 117.352 134.439 116.455 133.057 114.662C131.686 112.869 131 110.426 131 107.332ZM134.27 107.701C134.27 109.846 134.709 111.533 135.588 112.764C136.467 113.982 137.697 114.592 139.279 114.592C141.33 114.592 142.836 113.66 143.797 111.797V103.113C142.801 101.297 141.307 100.389 139.314 100.389C137.732 100.389 136.496 101.004 135.605 102.234C134.715 103.465 134.27 105.287 134.27 107.701Z" fill="white"/>
<path d="M155.521 117H152.252V97.9805H155.521V117ZM155.557 90.0176H159.494L154.783 95.1855H152.164L155.557 90.0176Z" fill="white"/>
<path d="M172.625 117C172.438 116.625 172.285 115.957 172.168 114.996C170.656 116.566 168.852 117.352 166.754 117.352C164.879 117.352 163.338 116.824 162.131 115.77C160.936 114.703 160.338 113.355 160.338 111.727C160.338 109.746 161.088 108.211 162.588 107.121C164.1 106.02 166.221 105.469 168.951 105.469H172.115V103.975C172.115 102.838 171.775 101.936 171.096 101.268C170.416 100.588 169.414 100.248 168.09 100.248C166.93 100.248 165.957 100.541 165.172 101.127C164.387 101.713 163.994 102.422 163.994 103.254H160.725C160.725 102.305 161.059 101.391 161.727 100.512C162.406 99.6211 163.32 98.918 164.469 98.4023C165.629 97.8867 166.9 97.6289 168.283 97.6289C170.475 97.6289 172.191 98.1797 173.434 99.2812C174.676 100.371 175.32 101.877 175.367 103.799V112.553C175.367 114.299 175.59 115.688 176.035 116.719V117H172.625ZM167.229 114.521C168.248 114.521 169.215 114.258 170.129 113.73C171.043 113.203 171.705 112.518 172.115 111.674V107.771H169.566C165.582 107.771 163.59 108.938 163.59 111.27C163.59 112.289 163.93 113.086 164.609 113.66C165.289 114.234 166.162 114.521 167.229 114.521Z" fill="white"/>
</g>
<g id="Group 326">
<g id="es a">
<path d="M289.354 212.352C286.775 212.352 284.678 211.508 283.061 209.82C281.443 208.121 280.635 205.854 280.635 203.018V202.42C280.635 200.533 280.992 198.852 281.707 197.375C282.434 195.887 283.441 194.727 284.73 193.895C286.031 193.051 287.438 192.629 288.949 192.629C291.422 192.629 293.344 193.443 294.715 195.072C296.086 196.701 296.771 199.033 296.771 202.068V203.422H283.887C283.934 205.297 284.479 206.814 285.521 207.975C286.576 209.123 287.912 209.697 289.529 209.697C290.678 209.697 291.65 209.463 292.447 208.994C293.244 208.525 293.941 207.904 294.539 207.131L296.525 208.678C294.932 211.127 292.541 212.352 289.354 212.352ZM288.949 195.301C287.637 195.301 286.535 195.781 285.645 196.742C284.754 197.691 284.203 199.027 283.992 200.75H293.52V200.504C293.426 198.852 292.98 197.574 292.184 196.672C291.387 195.758 290.309 195.301 288.949 195.301Z" fill="white"/>
<path d="M311.625 206.955C311.625 206.076 311.291 205.396 310.623 204.916C309.967 204.424 308.812 204.002 307.16 203.65C305.52 203.299 304.213 202.877 303.24 202.385C302.279 201.893 301.564 201.307 301.096 200.627C300.639 199.947 300.41 199.139 300.41 198.201C300.41 196.643 301.066 195.324 302.379 194.246C303.703 193.168 305.391 192.629 307.441 192.629C309.598 192.629 311.344 193.186 312.68 194.299C314.027 195.412 314.701 196.836 314.701 198.57H311.432C311.432 197.68 311.051 196.912 310.289 196.268C309.539 195.623 308.59 195.301 307.441 195.301C306.258 195.301 305.332 195.559 304.664 196.074C303.996 196.59 303.662 197.264 303.662 198.096C303.662 198.881 303.973 199.473 304.594 199.871C305.215 200.27 306.334 200.65 307.951 201.014C309.58 201.377 310.898 201.811 311.906 202.314C312.914 202.818 313.658 203.428 314.139 204.143C314.631 204.846 314.877 205.707 314.877 206.727C314.877 208.426 314.197 209.791 312.838 210.822C311.479 211.842 309.715 212.352 307.547 212.352C306.023 212.352 304.676 212.082 303.504 211.543C302.332 211.004 301.412 210.254 300.744 209.293C300.088 208.32 299.76 207.271 299.76 206.146H303.012C303.07 207.236 303.504 208.104 304.312 208.748C305.133 209.381 306.211 209.697 307.547 209.697C308.777 209.697 309.762 209.451 310.5 208.959C311.25 208.455 311.625 207.787 311.625 206.955Z" fill="white"/>
<path d="M339.785 212C339.598 211.625 339.445 210.957 339.328 209.996C337.816 211.566 336.012 212.352 333.914 212.352C332.039 212.352 330.498 211.824 329.291 210.77C328.096 209.703 327.498 208.355 327.498 206.727C327.498 204.746 328.248 203.211 329.748 202.121C331.26 201.02 333.381 200.469 336.111 200.469H339.275V198.975C339.275 197.838 338.936 196.936 338.256 196.268C337.576 195.588 336.574 195.248 335.25 195.248C334.09 195.248 333.117 195.541 332.332 196.127C331.547 196.713 331.154 197.422 331.154 198.254H327.885C327.885 197.305 328.219 196.391 328.887 195.512C329.566 194.621 330.48 193.918 331.629 193.402C332.789 192.887 334.061 192.629 335.443 192.629C337.635 192.629 339.352 193.18 340.594 194.281C341.836 195.371 342.48 196.877 342.527 198.799V207.553C342.527 209.299 342.75 210.688 343.195 211.719V212H339.785ZM334.389 209.521C335.408 209.521 336.375 209.258 337.289 208.73C338.203 208.203 338.865 207.518 339.275 206.674V202.771H336.727C332.742 202.771 330.75 203.938 330.75 206.27C330.75 207.289 331.09 208.086 331.77 208.66C332.449 209.234 333.322 209.521 334.389 209.521Z" fill="white"/>
</g>
<g id="como">
<path d="M518.09 215.697C519.25 215.697 520.264 215.346 521.131 214.643C521.998 213.939 522.479 213.061 522.572 212.006H525.648C525.59 213.096 525.215 214.133 524.523 215.117C523.832 216.102 522.906 216.887 521.746 217.473C520.598 218.059 519.379 218.352 518.09 218.352C515.5 218.352 513.438 217.49 511.902 215.768C510.379 214.033 509.617 211.666 509.617 208.666V208.121C509.617 206.27 509.957 204.623 510.637 203.182C511.316 201.74 512.289 200.621 513.555 199.824C514.832 199.027 516.338 198.629 518.072 198.629C520.205 198.629 521.975 199.268 523.381 200.545C524.799 201.822 525.555 203.48 525.648 205.52H522.572C522.479 204.289 522.01 203.281 521.166 202.496C520.334 201.699 519.303 201.301 518.072 201.301C516.42 201.301 515.137 201.898 514.223 203.094C513.32 204.277 512.869 205.994 512.869 208.244V208.859C512.869 211.051 513.32 212.738 514.223 213.922C515.125 215.105 516.414 215.697 518.09 215.697Z" fill="white"/>
<path d="M528.443 208.314C528.443 206.451 528.807 204.775 529.533 203.287C530.271 201.799 531.291 200.65 532.592 199.842C533.904 199.033 535.398 198.629 537.074 198.629C539.664 198.629 541.756 199.525 543.35 201.318C544.955 203.111 545.758 205.496 545.758 208.473V208.701C545.758 210.553 545.4 212.217 544.686 213.693C543.982 215.158 542.969 216.301 541.645 217.121C540.332 217.941 538.82 218.352 537.109 218.352C534.531 218.352 532.439 217.455 530.834 215.662C529.24 213.869 528.443 211.496 528.443 208.543V208.314ZM531.713 208.701C531.713 210.811 532.199 212.504 533.172 213.781C534.156 215.059 535.469 215.697 537.109 215.697C538.762 215.697 540.074 215.053 541.047 213.764C542.02 212.463 542.506 210.646 542.506 208.314C542.506 206.229 542.008 204.541 541.012 203.252C540.027 201.951 538.715 201.301 537.074 201.301C535.469 201.301 534.174 201.939 533.189 203.217C532.205 204.494 531.713 206.322 531.713 208.701Z" fill="white"/>
<path d="M552.895 198.98L552.982 201.09C554.377 199.449 556.258 198.629 558.625 198.629C561.285 198.629 563.096 199.648 564.057 201.688C564.689 200.773 565.51 200.035 566.518 199.473C567.537 198.91 568.738 198.629 570.121 198.629C574.293 198.629 576.414 200.838 576.484 205.256V218H573.232V205.449C573.232 204.09 572.922 203.076 572.301 202.408C571.68 201.729 570.637 201.389 569.172 201.389C567.965 201.389 566.963 201.752 566.166 202.479C565.369 203.193 564.906 204.16 564.777 205.379V218H561.508V205.537C561.508 202.771 560.154 201.389 557.447 201.389C555.314 201.389 553.855 202.297 553.07 204.113V218H549.818V198.98H552.895Z" fill="white"/>
<path d="M580.545 208.314C580.545 206.451 580.908 204.775 581.635 203.287C582.373 201.799 583.393 200.65 584.693 199.842C586.006 199.033 587.5 198.629 589.176 198.629C591.766 198.629 593.857 199.525 595.451 201.318C597.057 203.111 597.859 205.496 597.859 208.473V208.701C597.859 210.553 597.502 212.217 596.787 213.693C596.084 215.158 595.07 216.301 593.746 217.121C592.434 217.941 590.922 218.352 589.211 218.352C586.633 218.352 584.541 217.455 582.936 215.662C581.342 213.869 580.545 211.496 580.545 208.543V208.314ZM583.814 208.701C583.814 210.811 584.301 212.504 585.273 213.781C586.258 215.059 587.57 215.697 589.211 215.697C590.863 215.697 592.176 215.053 593.148 213.764C594.121 212.463 594.607 210.646 594.607 208.314C594.607 206.229 594.109 204.541 593.113 203.252C592.129 201.951 590.816 201.301 589.176 201.301C587.57 201.301 586.275 201.939 585.291 203.217C584.307 204.494 583.814 206.322 583.814 208.701Z" fill="white"/>
</g>
<g id="es a_2">
<path d="M803.354 221.352C800.775 221.352 798.678 220.508 797.061 218.82C795.443 217.121 794.635 214.854 794.635 212.018V211.42C794.635 209.533 794.992 207.852 795.707 206.375C796.434 204.887 797.441 203.727 798.73 202.895C800.031 202.051 801.438 201.629 802.949 201.629C805.422 201.629 807.344 202.443 808.715 204.072C810.086 205.701 810.771 208.033 810.771 211.068V212.422H797.887C797.934 214.297 798.479 215.814 799.521 216.975C800.576 218.123 801.912 218.697 803.529 218.697C804.678 218.697 805.65 218.463 806.447 217.994C807.244 217.525 807.941 216.904 808.539 216.131L810.525 217.678C808.932 220.127 806.541 221.352 803.354 221.352ZM802.949 204.301C801.637 204.301 800.535 204.781 799.645 205.742C798.754 206.691 798.203 208.027 797.992 209.75H807.52V209.504C807.426 207.852 806.98 206.574 806.184 205.672C805.387 204.758 804.309 204.301 802.949 204.301Z" fill="white"/>
<path d="M825.625 215.955C825.625 215.076 825.291 214.396 824.623 213.916C823.967 213.424 822.812 213.002 821.16 212.65C819.52 212.299 818.213 211.877 817.24 211.385C816.279 210.893 815.564 210.307 815.096 209.627C814.639 208.947 814.41 208.139 814.41 207.201C814.41 205.643 815.066 204.324 816.379 203.246C817.703 202.168 819.391 201.629 821.441 201.629C823.598 201.629 825.344 202.186 826.68 203.299C828.027 204.412 828.701 205.836 828.701 207.57H825.432C825.432 206.68 825.051 205.912 824.289 205.268C823.539 204.623 822.59 204.301 821.441 204.301C820.258 204.301 819.332 204.559 818.664 205.074C817.996 205.59 817.662 206.264 817.662 207.096C817.662 207.881 817.973 208.473 818.594 208.871C819.215 209.27 820.334 209.65 821.951 210.014C823.58 210.377 824.898 210.811 825.906 211.314C826.914 211.818 827.658 212.428 828.139 213.143C828.631 213.846 828.877 214.707 828.877 215.727C828.877 217.426 828.197 218.791 826.838 219.822C825.479 220.842 823.715 221.352 821.547 221.352C820.023 221.352 818.676 221.082 817.504 220.543C816.332 220.004 815.412 219.254 814.744 218.293C814.088 217.32 813.76 216.271 813.76 215.146H817.012C817.07 216.236 817.504 217.104 818.312 217.748C819.133 218.381 820.211 218.697 821.547 218.697C822.777 218.697 823.762 218.451 824.5 217.959C825.25 217.455 825.625 216.787 825.625 215.955Z" fill="white"/>
<path d="M853.785 221C853.598 220.625 853.445 219.957 853.328 218.996C851.816 220.566 850.012 221.352 847.914 221.352C846.039 221.352 844.498 220.824 843.291 219.77C842.096 218.703 841.498 217.355 841.498 215.727C841.498 213.746 842.248 212.211 843.748 211.121C845.26 210.02 847.381 209.469 850.111 209.469H853.275V207.975C853.275 206.838 852.936 205.936 852.256 205.268C851.576 204.588 850.574 204.248 849.25 204.248C848.09 204.248 847.117 204.541 846.332 205.127C845.547 205.713 845.154 206.422 845.154 207.254H841.885C841.885 206.305 842.219 205.391 842.887 204.512C843.566 203.621 844.48 202.918 845.629 202.402C846.789 201.887 848.061 201.629 849.443 201.629C851.635 201.629 853.352 202.18 854.594 203.281C855.836 204.371 856.48 205.877 856.527 207.799V216.553C856.527 218.299 856.75 219.688 857.195 220.719V221H853.785ZM848.389 218.521C849.408 218.521 850.375 218.258 851.289 217.73C852.203 217.203 852.865 216.518 853.275 215.674V211.771H850.727C846.742 211.771 844.75 212.938 844.75 215.27C844.75 216.289 845.09 217.086 845.77 217.66C846.449 218.234 847.322 218.521 848.389 218.521Z" fill="white"/>
</g>
<g id="Group 337">
<g id="Group 334">
<path id="Rectangle 169 (Stroke)" fill-rule="evenodd" clip-rule="evenodd" d="M246.221 197H74.2207V369H246.221V197ZM70.2207 193V373H250.221V193H70.2207Z" fill="white"/>
<path id="Rectangle 170 (Stroke)" fill-rule="evenodd" clip-rule="evenodd" d="M159.5 202.936L75.6569 286.779L159.5 370.622L243.343 286.779L159.5 202.936ZM70 286.779L159.5 376.279L249 286.779L159.5 197.279L70 286.779Z" fill="white"/>
<path id="Line 158 (Stroke)" fill-rule="evenodd" clip-rule="evenodd" d="M249.221 197L77.2207 287L75.3662 283.456L247.366 193.456L249.221 197Z" fill="white"/>
<path id="Line 159 (Stroke)" fill-rule="evenodd" clip-rule="evenodd" d="M250.221 373L70.2209 287L71.9453 283.391L251.945 369.391L250.221 373Z" fill="white"/>
<path id="Rectangle 171" d="M77.2207 284L157.221 199L189.221 228L77.2207 284Z" fill="white"/>
</g>
<g id="Mask Group">
<mask id="mask0" mask-type="alpha" maskUnits="userSpaceOnUse" x="382" y="179" width="97" height="197">
<path id="Rectangle 172" d="M478.221 376H382.221V179H478.221V376Z" fill="#C4C4C4"/>
</mask>
<g mask="url(#mask0)">
<g id="Group 335">
<path id="Rectangle 169 (Stroke)_2" fill-rule="evenodd" clip-rule="evenodd" d="M301 361H473V189L301 189V361ZM477 365V185L297 185V365H477Z" fill="white"/>
<path id="Rectangle 170 (Stroke)_2" fill-rule="evenodd" clip-rule="evenodd" d="M387.721 355.064L471.564 271.221L387.721 187.378L303.878 271.221L387.721 355.064ZM477.221 271.221L387.721 181.721L298.221 271.221L387.721 360.721L477.221 271.221Z" fill="white"/>
<path id="Line 158 (Stroke)_2" fill-rule="evenodd" clip-rule="evenodd" d="M298 361L470 271L471.854 274.544L299.854 364.544L298 361Z" fill="white"/>
<path id="Line 159 (Stroke)_2" fill-rule="evenodd" clip-rule="evenodd" d="M297 185L477 271L475.275 274.609L295.275 188.609L297 185Z" fill="white"/>
<path id="Rectangle 171_2" d="M470 274L390 359L358 330L470 274Z" fill="white"/>
</g>
</g>
</g>
<g id="Group 336">
<path id="Ellipse 37 (Stroke)" fill-rule="evenodd" clip-rule="evenodd" d="M697 346C738.974 346 773 311.974 773 270C773 228.026 738.974 194 697 194C655.026 194 621 228.026 621 270C621 311.974 655.026 346 697 346ZM697 350C741.183 350 777 314.183 777 270C777 225.817 741.183 190 697 190C652.817 190 617 225.817 617 270C617 314.183 652.817 350 697 350Z" fill="white"/>
<path id="Line 160 (Stroke)" fill-rule="evenodd" clip-rule="evenodd" d="M697 350V190H701V350H697Z" fill="white"/>
<path id="Line 161 (Stroke)" fill-rule="evenodd" clip-rule="evenodd" d="M777 270H617V266H777V270Z" fill="white"/>
<path id="Line 162 (Stroke)" fill-rule="evenodd" clip-rule="evenodd" d="M753.137 213L640 326.137L637.172 323.309L750.309 210.172L753.137 213Z" fill="white"/>
<path id="Ellipse 38" d="M740 298C740 303.523 735.523 308 730 308C724.477 308 720 303.523 720 298C720 292.477 724.477 288 730 288C735.523 288 740 292.477 740 298Z" fill="white"/>
<path id="Rectangle 173 (Stroke)" fill-rule="evenodd" clip-rule="evenodd" d="M672 230H658V244H672V230ZM655 227V247H675V227H655Z" fill="white"/>
</g>
</g>
</g>
</g>
<g id="claves">
<g id="Group 21">
<g id="Group 237">
<path id="Rectangle 4" d="M40 440H256.745L290 501L256.745 562H40V440Z" fill="#CD08D1" fill-opacity="0.1"/>
<path id="Rectangle 4 (Stroke)" fill-rule="evenodd" clip-rule="evenodd" d="M255.338 444.575H43V557.425H255.338L286.099 501L255.338 444.575ZM256.745 440H40V562H256.745L290 501L256.745 440Z" fill="#CD08D1"/>
</g>
<g id="Group 238">
<path id="Ellipse 1" d="M81 497.026C81 519.683 63.0914 538.051 41 538.051C18.9086 538.051 1 519.683 1 497.026C1 474.368 18.9086 456 41 456C63.0914 456 81 474.368 81 497.026Z" fill="#CD08D1"/>
<path id="A" d="M49.0938 507.699H31.4688L27.7812 518.564H19.5625L36.75 471.897H43.8438L61.0625 518.564H52.8125L49.0938 507.699ZM33.6875 501.16H46.875L40.2812 481.801L33.6875 501.16Z" fill="white"/>
</g>
</g>
<g id="Group 17">
<g id="Group 239">
<path id="Rectangle 5" d="M383 440H599.745L633 501L599.745 562H383V440Z" fill="#CD08D1" fill-opacity="0.1"/>
<path id="Rectangle 5 (Stroke)" fill-rule="evenodd" clip-rule="evenodd" d="M598.338 444.575H386V557.425H598.338L629.099 501L598.338 444.575ZM599.745 440H383V562H599.745L633 501L599.745 440Z" fill="#CD08D1"/>
</g>
<g id="Group 240">
<path id="Ellipse 2" d="M420 501C420 523.091 402.091 541 380 541C357.909 541 340 523.091 340 501C340 478.909 357.909 461 380 461C402.091 461 420 478.909 420 501Z" fill="#CD08D1"/>
<path id="B" d="M363.625 517V471.5H379.219C384.365 471.5 388.281 472.531 390.969 474.594C393.656 476.656 395 479.729 395 483.812C395 485.896 394.438 487.771 393.312 489.438C392.188 491.104 390.542 492.396 388.375 493.312C390.833 493.979 392.729 495.24 394.062 497.094C395.417 498.927 396.094 501.135 396.094 503.719C396.094 507.99 394.719 511.271 391.969 513.562C389.24 515.854 385.323 517 380.219 517H363.625ZM371.531 496.469V510.688H380.312C382.792 510.688 384.729 510.073 386.125 508.844C387.521 507.615 388.219 505.906 388.219 503.719C388.219 498.99 385.802 496.573 380.969 496.469H371.531ZM371.531 490.656H379.281C381.74 490.656 383.656 490.104 385.031 489C386.427 487.875 387.125 486.292 387.125 484.25C387.125 482 386.479 480.375 385.188 479.375C383.917 478.375 381.927 477.875 379.219 477.875H371.531V490.656Z" fill="white"/>
</g>
</g>
<g id="Group 18">
<g id="Group 241">
<path id="Rectangle 6" d="M722 532H938.745L972 593.5L938.745 655H722V532Z" fill="#CD08D1" fill-opacity="0.1"/>
<path id="Rectangle 6 (Stroke)" fill-rule="evenodd" clip-rule="evenodd" d="M937.338 536.613H725V650.388H937.338L968.099 593.5L937.338 536.613ZM938.745 532H722V655H938.745L972 593.5L938.745 532Z" fill="#CD08D1"/>
</g>
<g id="Group 242">
<path id="Ellipse 3" d="M764 593C764 615.091 746.091 633 724 633C701.909 633 684 615.091 684 593C684 570.909 701.909 553 724 553C746.091 553 764 570.909 764 593Z" fill="#CD08D1"/>
<path id="C" d="M741.344 600.188C740.885 605.042 739.094 608.833 735.969 611.562C732.844 614.271 728.688 615.625 723.5 615.625C719.875 615.625 716.677 614.771 713.906 613.062C711.156 611.333 709.031 608.885 707.531 605.719C706.031 602.552 705.25 598.875 705.188 594.688V590.438C705.188 586.146 705.948 582.365 707.469 579.094C708.99 575.823 711.167 573.302 714 571.531C716.854 569.76 720.146 568.875 723.875 568.875C728.896 568.875 732.938 570.24 736 572.969C739.062 575.698 740.844 579.552 741.344 584.531H733.469C733.094 581.26 732.135 578.906 730.594 577.469C729.073 576.01 726.833 575.281 723.875 575.281C720.438 575.281 717.792 576.542 715.938 579.062C714.104 581.562 713.167 585.24 713.125 590.094V594.125C713.125 599.042 714 602.792 715.75 605.375C717.521 607.958 720.104 609.25 723.5 609.25C726.604 609.25 728.938 608.552 730.5 607.156C732.062 605.76 733.052 603.438 733.469 600.188H741.344Z" fill="white"/>
</g>
</g>
<g id="Group 19">
<g id="Group 243">
<path id="Rectangle 7" d="M39 580H255.745L289 638.5L255.745 697H39V580Z" fill="#CD08D1" fill-opacity="0.1"/>
<path id="Rectangle 7 (Stroke)" fill-rule="evenodd" clip-rule="evenodd" d="M254.338 584.387H42V692.612H254.338L285.099 638.5L254.338 584.387ZM255.745 580H39V697H255.745L289 638.5L255.745 580Z" fill="#CD08D1"/>
</g>
<g id="Group 244">
<path id="Ellipse 4" d="M80 636C80 658.091 62.0914 676 40 676C17.9086 676 0 658.091 0 636C0 613.909 17.9086 596 40 596C62.0914 596 80 613.909 80 636Z" fill="#CD08D1"/>
<path id="D" d="M22.625 658V612.5H36.0625C40.0833 612.5 43.6458 613.396 46.75 615.188C49.875 616.979 52.2917 619.521 54 622.812C55.7083 626.104 56.5625 629.875 56.5625 634.125V636.406C56.5625 640.719 55.6979 644.51 53.9688 647.781C52.2604 651.052 49.8125 653.573 46.625 655.344C43.4583 657.115 39.8229 658 35.7188 658H22.625ZM30.5312 618.875V651.688H35.6875C39.8333 651.688 43.0104 650.396 45.2188 647.812C47.4479 645.208 48.5833 641.479 48.625 636.625V634.094C48.625 629.156 47.5521 625.385 45.4062 622.781C43.2604 620.177 40.1458 618.875 36.0625 618.875H30.5312Z" fill="white"/>
</g>
</g>
<g id="Group 20">
<g id="Group 246">
<path id="Rectangle 8" d="M383 574H599.745L633 634.5L599.745 695H383V574Z" fill="#CD08D1" fill-opacity="0.1"/>
<path id="Rectangle 8 (Stroke)" fill-rule="evenodd" clip-rule="evenodd" d="M598.338 578.538H386V690.463H598.338L629.099 634.5L598.338 578.538ZM599.745 574H383V695H599.745L633 634.5L599.745 574Z" fill="#CD08D1"/>
</g>
<g id="Group 245">
<path id="Ellipse 5" d="M424 634C424 656.091 406.091 674 384 674C361.909 674 344 656.091 344 634C344 611.909 361.909 594 384 594C406.091 594 424 611.909 424 634Z" fill="#CD08D1"/>
<path id="E" d="M393.219 635.688H374.531V649.688H396.375V656H366.625V610.5H396.156V616.875H374.531V629.438H393.219V635.688Z" fill="white"/>
</g>
</g>
<g id="Group 343">
<g id="Group 338">
<path id="Ellipse 39 (Stroke)" fill-rule="evenodd" clip-rule="evenodd" d="M141 546.906C146.277 546.576 151.471 545.375 156.369 543.346C162.192 540.934 167.484 537.398 171.941 532.941C176.398 528.484 179.934 523.192 182.346 517.369C184.758 511.545 186 505.303 186 499C186 492.697 184.758 486.455 182.346 480.631C179.934 474.808 176.398 469.516 171.941 465.059C167.484 460.602 162.192 457.066 156.369 454.654C151.471 452.625 146.277 451.424 141 451.094L141 546.906ZM141 549.912C146.672 549.577 152.255 548.297 157.517 546.118C163.704 543.555 169.327 539.798 174.062 535.062C178.798 530.327 182.555 524.704 185.118 518.517C187.681 512.329 189 505.697 189 499C189 492.303 187.681 485.671 185.118 479.483C182.555 473.296 178.798 467.673 174.062 462.938C169.327 458.202 163.704 454.445 157.517 451.882C152.255 449.703 146.672 448.423 141 448.088C140.002 448.03 139.002 448 138 448L138 550C139.002 550 140.002 549.97 141 549.912Z" fill="white"/>
<path id="Line 163 (Stroke)" fill-rule="evenodd" clip-rule="evenodd" d="M186 499H138V496H186V499Z" fill="white"/>
<path id="Ellipse 40" d="M166 476C166 480.418 162.418 484 158 484C153.582 484 150 480.418 150 476C150 471.582 153.582 468 158 468C162.418 468 166 471.582 166 476Z" fill="white"/>
<path id="Rectangle 174 (Stroke)" fill-rule="evenodd" clip-rule="evenodd" d="M164 516H155V525H164V516ZM153 514V527H166V514H153Z" fill="white"/>
</g>
<g id="Group 339">
<path id="Ellipse 39 (Stroke)_2" fill-rule="evenodd" clip-rule="evenodd" d="M484 546.906C489.277 546.576 494.471 545.375 499.369 543.346C505.192 540.934 510.484 537.398 514.941 532.941C519.398 528.484 522.934 523.192 525.346 517.369C527.758 511.545 529 505.303 529 499C529 492.697 527.758 486.455 525.346 480.631C522.934 474.808 519.398 469.516 514.941 465.059C510.484 460.602 505.192 457.066 499.369 454.654C494.471 452.625 489.277 451.424 484 451.094L484 546.906ZM484 549.912C489.672 549.577 495.255 548.297 500.517 546.118C506.704 543.555 512.327 539.798 517.062 535.062C521.798 530.327 525.555 524.704 528.118 518.517C530.681 512.329 532 505.697 532 499C532 492.303 530.681 485.671 528.118 479.483C525.555 473.296 521.798 467.673 517.062 462.938C512.327 458.202 506.704 454.445 500.517 451.882C495.255 449.703 489.672 448.423 484 448.088C483.002 448.03 482.002 448 481 448L481 550C482.002 550 483.002 549.97 484 549.912Z" fill="white"/>
<path id="Line 163 (Stroke)_2" fill-rule="evenodd" clip-rule="evenodd" d="M529 499H481V496H529V499Z" fill="white"/>
<path id="Rectangle 174 (Stroke)_2" fill-rule="evenodd" clip-rule="evenodd" d="M507 516H498V525H507V516ZM496 514V527H509V514H496Z" fill="white"/>
<path id="Line 164 (Stroke)" fill-rule="evenodd" clip-rule="evenodd" d="M517 465L485 499L482.815 496.944L514.815 462.944L517 465Z" fill="white"/>
</g>
<g id="Group 342">
<path id="Ellipse 39 (Stroke)_3" fill-rule="evenodd" clip-rule="evenodd" d="M138 686.906C143.277 686.576 148.471 685.375 153.369 683.346C159.192 680.934 164.484 677.398 168.941 672.941C173.398 668.484 176.934 663.192 179.346 657.369C181.758 651.545 183 645.303 183 639C183 632.697 181.758 626.455 179.346 620.631C176.934 614.808 173.398 609.516 168.941 605.059C164.484 600.602 159.192 597.066 153.369 594.654C148.471 592.625 143.277 591.424 138 591.094L138 686.906ZM138 689.912C143.672 689.577 149.255 688.297 154.517 686.118C160.704 683.555 166.327 679.798 171.062 675.062C175.798 670.327 179.555 664.704 182.118 658.517C184.681 652.329 186 645.697 186 639C186 632.303 184.681 625.671 182.118 619.483C179.555 613.296 175.798 607.673 171.062 602.938C166.327 598.202 160.704 594.445 154.517 591.882C149.255 589.703 143.672 588.423 138 588.088C137.002 588.03 136.002 588 135 588L135 690C136.002 690 137.002 689.97 138 689.912Z" fill="white"/>
<path id="Line 163 (Stroke)_3" fill-rule="evenodd" clip-rule="evenodd" d="M183 639H135V636H183V639Z" fill="white"/>
<path id="Rectangle 174 (Stroke)_3" fill-rule="evenodd" clip-rule="evenodd" d="M159 611H150V620H159V611ZM148 609V622H161V609H148Z" fill="white"/>
<path id="Line 164 (Stroke)_2" fill-rule="evenodd" clip-rule="evenodd" d="M171 671L139 639L141.121 636.879L173.121 668.879L171 671Z" fill="white"/>
</g>
<g id="Group 340">
<path id="Ellipse 39 (Stroke)_4" fill-rule="evenodd" clip-rule="evenodd" d="M861 545.094C855.723 545.424 850.529 546.625 845.631 548.654C839.808 551.066 834.516 554.602 830.059 559.059C825.602 563.516 822.066 568.808 819.654 574.631C817.242 580.455 816 586.697 816 593C816 599.303 817.242 605.545 819.654 611.369C822.066 617.192 825.602 622.484 830.059 626.941C834.516 631.398 839.808 634.934 845.631 637.346C850.529 639.375 855.723 640.576 861 640.906L861 545.094ZM861 542.088C855.328 542.423 849.745 543.703 844.483 545.882C838.296 548.445 832.673 552.202 827.938 556.938C823.202 561.673 819.445 567.296 816.882 573.483C814.319 579.671 813 586.303 813 593C813 599.697 814.319 606.329 816.882 612.517C819.445 618.704 823.202 624.327 827.938 629.062C832.673 633.798 838.296 637.555 844.483 640.118C849.745 642.297 855.328 643.577 861 643.912C861.998 643.97 862.998 644 864 644L864 542C862.998 542 861.998 542.03 861 542.088Z" fill="white"/>
<path id="Line 163 (Stroke)_4" fill-rule="evenodd" clip-rule="evenodd" d="M816 593H864V596H816V593Z" fill="white"/>
<path id="Rectangle 174 (Stroke)_4" fill-rule="evenodd" clip-rule="evenodd" d="M838 576H847V567H838V576ZM849 578V565H836V578H849Z" fill="white"/>
<path id="Line 164 (Stroke)_3" fill-rule="evenodd" clip-rule="evenodd" d="M828 627L860 593L862.185 595.056L830.185 629.056L828 627Z" fill="white"/>
</g>
<g id="Group 341">
<path id="Ellipse 39 (Stroke)_5" fill-rule="evenodd" clip-rule="evenodd" d="M524 585.094C518.723 585.424 513.529 586.625 508.631 588.654C502.808 591.066 497.516 594.602 493.059 599.059C488.602 603.516 485.066 608.808 482.654 614.631C480.242 620.455 479 626.697 479 633C479 639.303 480.242 645.545 482.654 651.369C485.066 657.192 488.602 662.484 493.059 666.941C497.516 671.398 502.808 674.934 508.631 677.346C513.529 679.375 518.723 680.576 524 680.906L524 585.094ZM524 582.088C518.328 582.423 512.745 583.703 507.483 585.882C501.296 588.445 495.673 592.202 490.938 596.938C486.202 601.673 482.445 607.296 479.882 613.483C477.319 619.671 476 626.303 476 633C476 639.697 477.319 646.329 479.882 652.517C482.445 658.704 486.202 664.327 490.938 669.062C495.673 673.798 501.296 677.555 507.483 680.118C512.745 682.297 518.328 683.577 524 683.912C524.998 683.97 525.998 684 527 684L527 582C525.998 582 524.998 582.03 524 582.088Z" fill="white"/>
<path id="Line 163 (Stroke)_5" fill-rule="evenodd" clip-rule="evenodd" d="M479 633H527V636H479V633Z" fill="white"/>
<path id="Rectangle 174 (Stroke)_5" fill-rule="evenodd" clip-rule="evenodd" d="M501 616H510V607H501V616ZM512 618V605H499V618H512Z" fill="white"/>
</g>
</g>
<g id="flecha">
<path id="Rectangle 2" d="M388.2 464.008L403.482 472.133L361.5 551.089L346.219 542.963L388.2 464.008Z" fill="#1043F5"/>
<path id="Rectangle 1_2" d="M330 476.904L420 427V484.692L375 467.096L330 476.904Z" fill="#1043F5"/>
<path id="Rectangle 3" d="M334.038 546.21L349.665 519.143L366.936 518.565L351.309 545.632L334.038 546.21Z" fill="#1043F5"/>
<path id="Rectangle 4_2" d="M360.09 560.845L375.717 533.778L366.926 518.154L351.299 545.221L360.09 560.845Z" fill="#1043F5"/>
</g>
</g>
</g>
</svg>
