<svg viewBox="0 0 990 767" fill="none" xmlns="http://www.w3.org/2000/svg">
<g id="0127113">
<g id="enunciado">
<g id="Group 71">
<path id="Rectangle 1" d="M30 68.8382C30 32.7511 52.5821 3.49686 80.4386 3.49686H950V455.659C950 491.746 927.418 521 899.561 521H30V68.8382Z" fill="#02071A"/>
<path id="Rectangle 1 (Stroke)" fill-rule="evenodd" clip-rule="evenodd" d="M944.956 9.97723H80.4386C55.3678 9.97723 35.0439 36.3088 35.0439 68.7905V514.465H899.561C924.632 514.465 944.956 488.133 944.956 455.651V9.97723ZM80.4386 3.44241C52.5821 3.44241 30 32.6998 30 68.7905V521H899.561C927.418 521 950 491.742 950 455.651V3.44241H80.4386Z" fill="#CD08D1"/>
<path id="Rectangle 14" d="M84.6251 3.6142C111.602 -4.51775 950 3.6142 950 3.6142V38.8191C950 38.8191 70.351 25.8794 39.0791 38.8191C48.8095 20.1469 57.6481 11.7462 84.6251 3.6142Z" fill="#CD08D1"/>
<path id="Rectangle 15" d="M918.076 11.1892H948.066V457.005C944.385 487.259 936.755 498.378 918.076 512.893C923.574 489.124 918.076 11.1892 918.076 11.1892Z" fill="#CD08D1"/>
</g>
<g id="La siguiente figura est&#195;&#161; formada por cuadrados simples. &#194;&#191;Cu&#195;&#161;ntos cuadril&#195;&#161;teros que no son cuadrados hay?">
<path d="M59.3633 65.3335H71.4922V68.0933H55.9707V42.4995H59.3633V65.3335Z" fill="white"/>
<path d="M86.5742 68.0933C86.3867 67.7183 86.2344 67.0503 86.1172 66.0894C84.6055 67.6597 82.8008 68.4448 80.7031 68.4448C78.8281 68.4448 77.2871 67.9175 76.0801 66.8628C74.8848 65.7964 74.2871 64.4487 74.2871 62.8198C74.2871 60.8394 75.0371 59.3042 76.5371 58.2144C78.0488 57.1128 80.1699 56.562 82.9004 56.562H86.0645V55.0679C86.0645 53.9312 85.7246 53.0288 85.0449 52.3608C84.3652 51.6812 83.3633 51.3413 82.0391 51.3413C80.8789 51.3413 79.9062 51.6343 79.1211 52.2202C78.3359 52.8062 77.9434 53.5151 77.9434 54.3472H74.6738C74.6738 53.3979 75.0078 52.4839 75.6758 51.605C76.3555 50.7144 77.2695 50.0112 78.418 49.4956C79.5781 48.98 80.8496 48.7222 82.2324 48.7222C84.4238 48.7222 86.1406 49.2729 87.3828 50.3745C88.625 51.4644 89.2695 52.9702 89.3164 54.8921V63.646C89.3164 65.3921 89.5391 66.7808 89.9844 67.812V68.0933H86.5742ZM81.1777 65.6147C82.1973 65.6147 83.1641 65.3511 84.0781 64.8237C84.9922 64.2964 85.6543 63.6108 86.0645 62.7671V58.8647H83.5156C79.5312 58.8647 77.5391 60.0308 77.5391 62.3628C77.5391 63.3823 77.8789 64.1792 78.5586 64.7534C79.2383 65.3276 80.1113 65.6147 81.1777 65.6147Z" fill="white"/>
<path d="M114.418 63.0483C114.418 62.1694 114.084 61.4897 113.416 61.0093C112.76 60.5171 111.605 60.0952 109.953 59.7437C108.312 59.3921 107.006 58.9702 106.033 58.478C105.072 57.9858 104.357 57.3999 103.889 56.7202C103.432 56.0405 103.203 55.2319 103.203 54.2944C103.203 52.7358 103.859 51.4175 105.172 50.3394C106.496 49.2612 108.184 48.7222 110.234 48.7222C112.391 48.7222 114.137 49.2788 115.473 50.3921C116.82 51.5054 117.494 52.9292 117.494 54.6636H114.225C114.225 53.7729 113.844 53.0054 113.082 52.3608C112.332 51.7163 111.383 51.394 110.234 51.394C109.051 51.394 108.125 51.6519 107.457 52.1675C106.789 52.6831 106.455 53.3569 106.455 54.189C106.455 54.9741 106.766 55.5659 107.387 55.9644C108.008 56.3628 109.127 56.7437 110.744 57.1069C112.373 57.4702 113.691 57.9038 114.699 58.4077C115.707 58.9116 116.451 59.521 116.932 60.2358C117.424 60.939 117.67 61.8003 117.67 62.8198C117.67 64.519 116.99 65.8843 115.631 66.9155C114.271 67.9351 112.508 68.4448 110.34 68.4448C108.816 68.4448 107.469 68.1753 106.297 67.6362C105.125 67.0972 104.205 66.3472 103.537 65.3862C102.881 64.4136 102.553 63.3647 102.553 62.2397H105.805C105.863 63.3296 106.297 64.1968 107.105 64.8413C107.926 65.4741 109.004 65.7905 110.34 65.7905C111.57 65.7905 112.555 65.5444 113.293 65.0522C114.043 64.5483 114.418 63.8804 114.418 63.0483Z" fill="white"/>
<path d="M125.439 68.0933H122.188V49.0737H125.439V68.0933ZM121.924 44.0288C121.924 43.5015 122.082 43.0562 122.398 42.6929C122.727 42.3296 123.207 42.1479 123.84 42.1479C124.473 42.1479 124.953 42.3296 125.281 42.6929C125.609 43.0562 125.773 43.5015 125.773 44.0288C125.773 44.5562 125.609 44.9956 125.281 45.3472C124.953 45.6987 124.473 45.8745 123.84 45.8745C123.207 45.8745 122.727 45.6987 122.398 45.3472C122.082 44.9956 121.924 44.5562 121.924 44.0288Z" fill="white"/>
<path d="M129.887 58.4253C129.887 55.4604 130.572 53.105 131.943 51.3589C133.314 49.6011 135.131 48.7222 137.393 48.7222C139.713 48.7222 141.523 49.5425 142.824 51.1831L142.982 49.0737H145.953V67.6362C145.953 70.0972 145.221 72.0366 143.756 73.4546C142.303 74.8726 140.346 75.5815 137.885 75.5815C136.514 75.5815 135.172 75.2886 133.859 74.7026C132.547 74.1167 131.545 73.314 130.854 72.2944L132.541 70.3433C133.936 72.0659 135.641 72.9272 137.656 72.9272C139.238 72.9272 140.469 72.4819 141.348 71.5913C142.238 70.7007 142.684 69.4468 142.684 67.8296V66.1948C141.383 67.6948 139.607 68.4448 137.357 68.4448C135.131 68.4448 133.326 67.5483 131.943 65.7554C130.572 63.9624 129.887 61.519 129.887 58.4253ZM133.156 58.7944C133.156 60.939 133.596 62.6265 134.475 63.8569C135.354 65.0757 136.584 65.6851 138.166 65.6851C140.217 65.6851 141.723 64.7534 142.684 62.8901V54.2065C141.688 52.3901 140.193 51.4819 138.201 51.4819C136.619 51.4819 135.383 52.0972 134.492 53.3276C133.602 54.5581 133.156 56.3804 133.156 58.7944Z" fill="white"/>
<path d="M162.617 66.2124C161.352 67.7007 159.494 68.4448 157.045 68.4448C155.018 68.4448 153.471 67.8589 152.404 66.687C151.35 65.5034 150.816 63.7573 150.805 61.4487V49.0737H154.057V61.3608C154.057 64.2437 155.229 65.6851 157.572 65.6851C160.057 65.6851 161.709 64.7593 162.529 62.9077V49.0737H165.781V68.0933H162.688L162.617 66.2124Z" fill="white"/>
<path d="M174.271 68.0933H171.02V49.0737H174.271V68.0933ZM170.756 44.0288C170.756 43.5015 170.914 43.0562 171.23 42.6929C171.559 42.3296 172.039 42.1479 172.672 42.1479C173.305 42.1479 173.785 42.3296 174.113 42.6929C174.441 43.0562 174.605 43.5015 174.605 44.0288C174.605 44.5562 174.441 44.9956 174.113 45.3472C173.785 45.6987 173.305 45.8745 172.672 45.8745C172.039 45.8745 171.559 45.6987 171.23 45.3472C170.914 44.9956 170.756 44.5562 170.756 44.0288Z" fill="white"/>
<path d="M187.385 68.4448C184.807 68.4448 182.709 67.6011 181.092 65.9136C179.475 64.2144 178.666 61.9468 178.666 59.1108V58.5132C178.666 56.6265 179.023 54.9448 179.738 53.4683C180.465 51.98 181.473 50.8198 182.762 49.9878C184.062 49.144 185.469 48.7222 186.98 48.7222C189.453 48.7222 191.375 49.5366 192.746 51.1655C194.117 52.7944 194.803 55.1265 194.803 58.1616V59.5151H181.918C181.965 61.3901 182.51 62.9077 183.553 64.0679C184.607 65.2163 185.943 65.7905 187.561 65.7905C188.709 65.7905 189.682 65.5562 190.479 65.0874C191.275 64.6187 191.973 63.9976 192.57 63.2241L194.557 64.771C192.963 67.2202 190.572 68.4448 187.385 68.4448ZM186.98 51.394C185.668 51.394 184.566 51.8745 183.676 52.8354C182.785 53.7847 182.234 55.1206 182.023 56.8433H191.551V56.5972C191.457 54.9448 191.012 53.6675 190.215 52.7651C189.418 51.8511 188.34 51.394 186.98 51.394Z" fill="white"/>
<path d="M201.658 49.0737L201.764 51.4644C203.217 49.6362 205.115 48.7222 207.459 48.7222C211.479 48.7222 213.506 50.9897 213.541 55.5249V68.0933H210.289V55.5073C210.277 54.1362 209.961 53.1226 209.34 52.4663C208.73 51.8101 207.775 51.4819 206.475 51.4819C205.42 51.4819 204.494 51.7632 203.697 52.3257C202.9 52.8882 202.279 53.6265 201.834 54.5405V68.0933H198.582V49.0737H201.658Z" fill="white"/>
<path d="M222.857 44.4683V49.0737H226.408V51.5874H222.857V63.3823C222.857 64.144 223.016 64.7183 223.332 65.105C223.648 65.48 224.188 65.6675 224.949 65.6675C225.324 65.6675 225.84 65.5972 226.496 65.4565V68.0933C225.641 68.3276 224.809 68.4448 224 68.4448C222.547 68.4448 221.451 68.0054 220.713 67.1265C219.975 66.2476 219.605 64.9995 219.605 63.3823V51.5874H216.143V49.0737H219.605V44.4683H222.857Z" fill="white"/>
<path d="M238.115 68.4448C235.537 68.4448 233.439 67.6011 231.822 65.9136C230.205 64.2144 229.396 61.9468 229.396 59.1108V58.5132C229.396 56.6265 229.754 54.9448 230.469 53.4683C231.195 51.98 232.203 50.8198 233.492 49.9878C234.793 49.144 236.199 48.7222 237.711 48.7222C240.184 48.7222 242.105 49.5366 243.477 51.1655C244.848 52.7944 245.533 55.1265 245.533 58.1616V59.5151H232.648C232.695 61.3901 233.24 62.9077 234.283 64.0679C235.338 65.2163 236.674 65.7905 238.291 65.7905C239.439 65.7905 240.412 65.5562 241.209 65.0874C242.006 64.6187 242.703 63.9976 243.301 63.2241L245.287 64.771C243.693 67.2202 241.303 68.4448 238.115 68.4448ZM237.711 51.394C236.398 51.394 235.297 51.8745 234.406 52.8354C233.516 53.7847 232.965 55.1206 232.754 56.8433H242.281V56.5972C242.188 54.9448 241.742 53.6675 240.945 52.7651C240.148 51.8511 239.07 51.394 237.711 51.394Z" fill="white"/>
<path d="M259.332 68.0933V51.5874H256.326V49.0737H259.332V47.4565C259.332 45.3354 259.936 43.6831 261.143 42.4995C262.361 41.3159 264.078 40.7241 266.293 40.7241C267.605 40.7241 269.264 41.0815 271.268 41.7964L270.723 44.5386C269.258 43.9526 267.863 43.6597 266.539 43.6597C265.145 43.6597 264.137 43.9761 263.516 44.6089C262.906 45.23 262.602 46.1675 262.602 47.4214V49.0737H266.486V51.5874H262.602V68.0933H259.332ZM272.885 68.0933H269.615V49.0737H272.885V68.0933Z" fill="white"/>
<path d="M277.402 58.4253C277.402 55.4604 278.088 53.105 279.459 51.3589C280.83 49.6011 282.646 48.7222 284.908 48.7222C287.229 48.7222 289.039 49.5425 290.34 51.1831L290.498 49.0737H293.469V67.6362C293.469 70.0972 292.736 72.0366 291.271 73.4546C289.818 74.8726 287.861 75.5815 285.4 75.5815C284.029 75.5815 282.688 75.2886 281.375 74.7026C280.062 74.1167 279.061 73.314 278.369 72.2944L280.057 70.3433C281.451 72.0659 283.156 72.9272 285.172 72.9272C286.754 72.9272 287.984 72.4819 288.863 71.5913C289.754 70.7007 290.199 69.4468 290.199 67.8296V66.1948C288.898 67.6948 287.123 68.4448 284.873 68.4448C282.646 68.4448 280.842 67.5483 279.459 65.7554C278.088 63.9624 277.402 61.519 277.402 58.4253ZM280.672 58.7944C280.672 60.939 281.111 62.6265 281.99 63.8569C282.869 65.0757 284.1 65.6851 285.682 65.6851C287.732 65.6851 289.238 64.7534 290.199 62.8901V54.2065C289.203 52.3901 287.709 51.4819 285.717 51.4819C284.135 51.4819 282.898 52.0972 282.008 53.3276C281.117 54.5581 280.672 56.3804 280.672 58.7944Z" fill="white"/>
<path d="M310.133 66.2124C308.867 67.7007 307.01 68.4448 304.561 68.4448C302.533 68.4448 300.986 67.8589 299.92 66.687C298.865 65.5034 298.332 63.7573 298.32 61.4487V49.0737H301.572V61.3608C301.572 64.2437 302.744 65.6851 305.088 65.6851C307.572 65.6851 309.225 64.7593 310.045 62.9077V49.0737H313.297V68.0933H310.203L310.133 66.2124Z" fill="white"/>
<path d="M327.447 51.9917C326.955 51.9097 326.422 51.8687 325.848 51.8687C323.715 51.8687 322.268 52.7769 321.506 54.5933V68.0933H318.254V49.0737H321.418L321.471 51.271C322.537 49.5718 324.049 48.7222 326.006 48.7222C326.639 48.7222 327.119 48.8042 327.447 48.9683V51.9917Z" fill="white"/>
<path d="M341.492 68.0933C341.305 67.7183 341.152 67.0503 341.035 66.0894C339.523 67.6597 337.719 68.4448 335.621 68.4448C333.746 68.4448 332.205 67.9175 330.998 66.8628C329.803 65.7964 329.205 64.4487 329.205 62.8198C329.205 60.8394 329.955 59.3042 331.455 58.2144C332.967 57.1128 335.088 56.562 337.818 56.562H340.982V55.0679C340.982 53.9312 340.643 53.0288 339.963 52.3608C339.283 51.6812 338.281 51.3413 336.957 51.3413C335.797 51.3413 334.824 51.6343 334.039 52.2202C333.254 52.8062 332.861 53.5151 332.861 54.3472H329.592C329.592 53.3979 329.926 52.4839 330.594 51.605C331.273 50.7144 332.188 50.0112 333.336 49.4956C334.496 48.98 335.768 48.7222 337.15 48.7222C339.342 48.7222 341.059 49.2729 342.301 50.3745C343.543 51.4644 344.188 52.9702 344.234 54.8921V63.646C344.234 65.3921 344.457 66.7808 344.902 67.812V68.0933H341.492ZM336.096 65.6147C337.115 65.6147 338.082 65.3511 338.996 64.8237C339.91 64.2964 340.572 63.6108 340.982 62.7671V58.8647H338.434C334.449 58.8647 332.457 60.0308 332.457 62.3628C332.457 63.3823 332.797 64.1792 333.477 64.7534C334.156 65.3276 335.029 65.6147 336.096 65.6147Z" fill="white"/>
<path d="M366.154 68.4448C363.576 68.4448 361.479 67.6011 359.861 65.9136C358.244 64.2144 357.436 61.9468 357.436 59.1108V58.5132C357.436 56.6265 357.793 54.9448 358.508 53.4683C359.234 51.98 360.242 50.8198 361.531 49.9878C362.832 49.144 364.238 48.7222 365.75 48.7222C368.223 48.7222 370.145 49.5366 371.516 51.1655C372.887 52.7944 373.572 55.1265 373.572 58.1616V59.5151H360.688C360.734 61.3901 361.279 62.9077 362.322 64.0679C363.377 65.2163 364.713 65.7905 366.33 65.7905C367.479 65.7905 368.451 65.5562 369.248 65.0874C370.045 64.6187 370.742 63.9976 371.34 63.2241L373.326 64.771C371.732 67.2202 369.342 68.4448 366.154 68.4448ZM365.75 51.394C364.438 51.394 363.336 51.8745 362.445 52.8354C361.555 53.7847 361.004 55.1206 360.793 56.8433H370.32V56.5972C370.227 54.9448 369.781 53.6675 368.984 52.7651C368.188 51.8511 367.109 51.394 365.75 51.394Z" fill="white"/>
<path d="M388.426 63.0483C388.426 62.1694 388.092 61.4897 387.424 61.0093C386.768 60.5171 385.613 60.0952 383.961 59.7437C382.32 59.3921 381.014 58.9702 380.041 58.478C379.08 57.9858 378.365 57.3999 377.896 56.7202C377.439 56.0405 377.211 55.2319 377.211 54.2944C377.211 52.7358 377.867 51.4175 379.18 50.3394C380.504 49.2612 382.191 48.7222 384.242 48.7222C386.398 48.7222 388.145 49.2788 389.48 50.3921C390.828 51.5054 391.502 52.9292 391.502 54.6636H388.232C388.232 53.7729 387.852 53.0054 387.09 52.3608C386.34 51.7163 385.391 51.394 384.242 51.394C383.059 51.394 382.133 51.6519 381.465 52.1675C380.797 52.6831 380.463 53.3569 380.463 54.189C380.463 54.9741 380.773 55.5659 381.395 55.9644C382.016 56.3628 383.135 56.7437 384.752 57.1069C386.381 57.4702 387.699 57.9038 388.707 58.4077C389.715 58.9116 390.459 59.521 390.939 60.2358C391.432 60.939 391.678 61.8003 391.678 62.8198C391.678 64.519 390.998 65.8843 389.639 66.9155C388.279 67.9351 386.516 68.4448 384.348 68.4448C382.824 68.4448 381.477 68.1753 380.305 67.6362C379.133 67.0972 378.213 66.3472 377.545 65.3862C376.889 64.4136 376.561 63.3647 376.561 62.2397H379.812C379.871 63.3296 380.305 64.1968 381.113 64.8413C381.934 65.4741 383.012 65.7905 384.348 65.7905C385.578 65.7905 386.562 65.5444 387.301 65.0522C388.051 64.5483 388.426 63.8804 388.426 63.0483Z" fill="white"/>
<path d="M400.326 44.4683V49.0737H403.877V51.5874H400.326V63.3823C400.326 64.144 400.484 64.7183 400.801 65.105C401.117 65.48 401.656 65.6675 402.418 65.6675C402.793 65.6675 403.309 65.5972 403.965 65.4565V68.0933C403.109 68.3276 402.277 68.4448 401.469 68.4448C400.016 68.4448 398.92 68.0054 398.182 67.1265C397.443 66.2476 397.074 64.9995 397.074 63.3823V51.5874H393.611V49.0737H397.074V44.4683H400.326Z" fill="white"/>
<path d="M419.434 68.0933C419.246 67.7183 419.094 67.0503 418.977 66.0894C417.465 67.6597 415.66 68.4448 413.562 68.4448C411.688 68.4448 410.146 67.9175 408.939 66.8628C407.744 65.7964 407.146 64.4487 407.146 62.8198C407.146 60.8394 407.896 59.3042 409.396 58.2144C410.908 57.1128 413.029 56.562 415.76 56.562H418.924V55.0679C418.924 53.9312 418.584 53.0288 417.904 52.3608C417.225 51.6812 416.223 51.3413 414.898 51.3413C413.738 51.3413 412.766 51.6343 411.98 52.2202C411.195 52.8062 410.803 53.5151 410.803 54.3472H407.533C407.533 53.3979 407.867 52.4839 408.535 51.605C409.215 50.7144 410.129 50.0112 411.277 49.4956C412.438 48.98 413.709 48.7222 415.092 48.7222C417.283 48.7222 419 49.2729 420.242 50.3745C421.484 51.4644 422.129 52.9702 422.176 54.8921V63.646C422.176 65.3921 422.398 66.7808 422.844 67.812V68.0933H419.434ZM414.037 65.6147C415.057 65.6147 416.023 65.3511 416.938 64.8237C417.852 64.2964 418.514 63.6108 418.924 62.7671V58.8647H416.375C412.391 58.8647 410.398 60.0308 410.398 62.3628C410.398 63.3823 410.738 64.1792 411.418 64.7534C412.098 65.3276 412.971 65.6147 414.037 65.6147ZM417.043 41.0933H420.98L416.27 46.2612H413.65L417.043 41.0933Z" fill="white"/>
<path d="M437.803 68.0933V51.5874H434.797V49.0737H437.803V47.1226C437.803 45.0835 438.348 43.5073 439.438 42.394C440.527 41.2808 442.068 40.7241 444.061 40.7241C444.811 40.7241 445.555 40.8237 446.293 41.0229L446.117 43.6597C445.566 43.5542 444.98 43.5015 444.359 43.5015C443.305 43.5015 442.49 43.812 441.916 44.4331C441.342 45.0425 441.055 45.9214 441.055 47.0698V49.0737H445.115V51.5874H441.055V68.0933H437.803Z" fill="white"/>
<path d="M447.857 58.4077C447.857 56.5444 448.221 54.8687 448.947 53.3804C449.686 51.8921 450.705 50.7437 452.006 49.9351C453.318 49.1265 454.812 48.7222 456.488 48.7222C459.078 48.7222 461.17 49.6187 462.764 51.4116C464.369 53.2046 465.172 55.5894 465.172 58.5659V58.7944C465.172 60.646 464.814 62.3101 464.1 63.7866C463.396 65.2515 462.383 66.394 461.059 67.2144C459.746 68.0347 458.234 68.4448 456.523 68.4448C453.945 68.4448 451.854 67.5483 450.248 65.7554C448.654 63.9624 447.857 61.5894 447.857 58.6362V58.4077ZM451.127 58.7944C451.127 60.9038 451.613 62.5972 452.586 63.8745C453.57 65.1519 454.883 65.7905 456.523 65.7905C458.176 65.7905 459.488 65.146 460.461 63.8569C461.434 62.5562 461.92 60.7397 461.92 58.4077C461.92 56.3218 461.422 54.6343 460.426 53.3452C459.441 52.0444 458.129 51.394 456.488 51.394C454.883 51.394 453.588 52.0327 452.604 53.3101C451.619 54.5874 451.127 56.4155 451.127 58.7944Z" fill="white"/>
<path d="M478.443 51.9917C477.951 51.9097 477.418 51.8687 476.844 51.8687C474.711 51.8687 473.264 52.7769 472.502 54.5933V68.0933H469.25V49.0737H472.414L472.467 51.271C473.533 49.5718 475.045 48.7222 477.002 48.7222C477.635 48.7222 478.115 48.8042 478.443 48.9683V51.9917Z" fill="white"/>
<path d="M484.508 49.0737L484.596 51.1831C485.99 49.5425 487.871 48.7222 490.238 48.7222C492.898 48.7222 494.709 49.7417 495.67 51.7808C496.303 50.8667 497.123 50.1284 498.131 49.5659C499.15 49.0034 500.352 48.7222 501.734 48.7222C505.906 48.7222 508.027 50.9312 508.098 55.3491V68.0933H504.846V55.5425C504.846 54.1831 504.535 53.1694 503.914 52.5015C503.293 51.8218 502.25 51.4819 500.785 51.4819C499.578 51.4819 498.576 51.8452 497.779 52.5718C496.982 53.2866 496.52 54.2534 496.391 55.4722V68.0933H493.121V55.6304C493.121 52.8647 491.768 51.4819 489.061 51.4819C486.928 51.4819 485.469 52.3901 484.684 54.2065V68.0933H481.432V49.0737H484.508Z" fill="white"/>
<path d="M524.762 68.0933C524.574 67.7183 524.422 67.0503 524.305 66.0894C522.793 67.6597 520.988 68.4448 518.891 68.4448C517.016 68.4448 515.475 67.9175 514.268 66.8628C513.072 65.7964 512.475 64.4487 512.475 62.8198C512.475 60.8394 513.225 59.3042 514.725 58.2144C516.236 57.1128 518.357 56.562 521.088 56.562H524.252V55.0679C524.252 53.9312 523.912 53.0288 523.232 52.3608C522.553 51.6812 521.551 51.3413 520.227 51.3413C519.066 51.3413 518.094 51.6343 517.309 52.2202C516.523 52.8062 516.131 53.5151 516.131 54.3472H512.861C512.861 53.3979 513.195 52.4839 513.863 51.605C514.543 50.7144 515.457 50.0112 516.605 49.4956C517.766 48.98 519.037 48.7222 520.42 48.7222C522.611 48.7222 524.328 49.2729 525.57 50.3745C526.812 51.4644 527.457 52.9702 527.504 54.8921V63.646C527.504 65.3921 527.727 66.7808 528.172 67.812V68.0933H524.762ZM519.365 65.6147C520.385 65.6147 521.352 65.3511 522.266 64.8237C523.18 64.2964 523.842 63.6108 524.252 62.7671V58.8647H521.703C517.719 58.8647 515.727 60.0308 515.727 62.3628C515.727 63.3823 516.066 64.1792 516.746 64.7534C517.426 65.3276 518.299 65.6147 519.365 65.6147Z" fill="white"/>
<path d="M531.811 58.4253C531.811 55.5073 532.502 53.1636 533.885 51.394C535.268 49.6128 537.078 48.7222 539.316 48.7222C541.543 48.7222 543.307 49.4839 544.607 51.0073V41.0933H547.859V68.0933H544.871L544.713 66.0542C543.412 67.6479 541.602 68.4448 539.281 68.4448C537.078 68.4448 535.279 67.5425 533.885 65.7378C532.502 63.9331 531.811 61.5776 531.811 58.6714V58.4253ZM535.062 58.7944C535.062 60.9507 535.508 62.6382 536.398 63.8569C537.289 65.0757 538.52 65.6851 540.09 65.6851C542.152 65.6851 543.658 64.7593 544.607 62.9077V54.1714C543.635 52.3784 542.141 51.4819 540.125 51.4819C538.531 51.4819 537.289 52.0972 536.398 53.3276C535.508 54.5581 535.062 56.3804 535.062 58.7944Z" fill="white"/>
<path d="M564.664 68.0933C564.477 67.7183 564.324 67.0503 564.207 66.0894C562.695 67.6597 560.891 68.4448 558.793 68.4448C556.918 68.4448 555.377 67.9175 554.17 66.8628C552.975 65.7964 552.377 64.4487 552.377 62.8198C552.377 60.8394 553.127 59.3042 554.627 58.2144C556.139 57.1128 558.26 56.562 560.99 56.562H564.154V55.0679C564.154 53.9312 563.814 53.0288 563.135 52.3608C562.455 51.6812 561.453 51.3413 560.129 51.3413C558.969 51.3413 557.996 51.6343 557.211 52.2202C556.426 52.8062 556.033 53.5151 556.033 54.3472H552.764C552.764 53.3979 553.098 52.4839 553.766 51.605C554.445 50.7144 555.359 50.0112 556.508 49.4956C557.668 48.98 558.939 48.7222 560.322 48.7222C562.514 48.7222 564.23 49.2729 565.473 50.3745C566.715 51.4644 567.359 52.9702 567.406 54.8921V63.646C567.406 65.3921 567.629 66.7808 568.074 67.812V68.0933H564.664ZM559.268 65.6147C560.287 65.6147 561.254 65.3511 562.168 64.8237C563.082 64.2964 563.744 63.6108 564.154 62.7671V58.8647H561.605C557.621 58.8647 555.629 60.0308 555.629 62.3628C555.629 63.3823 555.969 64.1792 556.648 64.7534C557.328 65.3276 558.201 65.6147 559.268 65.6147Z" fill="white"/>
<path d="M597.5 58.7944C597.5 61.689 596.838 64.021 595.514 65.7905C594.189 67.5601 592.396 68.4448 590.135 68.4448C587.826 68.4448 586.01 67.7124 584.686 66.2476V75.4058H581.434V49.0737H584.404L584.562 51.1831C585.887 49.5425 587.727 48.7222 590.082 48.7222C592.367 48.7222 594.172 49.5835 595.496 51.3062C596.832 53.0288 597.5 55.4253 597.5 58.4956V58.7944ZM594.248 58.4253C594.248 56.2808 593.791 54.5874 592.877 53.3452C591.963 52.103 590.709 51.4819 589.115 51.4819C587.146 51.4819 585.67 52.355 584.686 54.1011V63.189C585.658 64.9233 587.146 65.7905 589.15 65.7905C590.709 65.7905 591.945 65.1753 592.859 63.9448C593.785 62.7026 594.248 60.8628 594.248 58.4253Z" fill="white"/>
<path d="M600.787 58.4077C600.787 56.5444 601.15 54.8687 601.877 53.3804C602.615 51.8921 603.635 50.7437 604.936 49.9351C606.248 49.1265 607.742 48.7222 609.418 48.7222C612.008 48.7222 614.1 49.6187 615.693 51.4116C617.299 53.2046 618.102 55.5894 618.102 58.5659V58.7944C618.102 60.646 617.744 62.3101 617.029 63.7866C616.326 65.2515 615.312 66.394 613.988 67.2144C612.676 68.0347 611.164 68.4448 609.453 68.4448C606.875 68.4448 604.783 67.5483 603.178 65.7554C601.584 63.9624 600.787 61.5894 600.787 58.6362V58.4077ZM604.057 58.7944C604.057 60.9038 604.543 62.5972 605.516 63.8745C606.5 65.1519 607.812 65.7905 609.453 65.7905C611.105 65.7905 612.418 65.146 613.391 63.8569C614.363 62.5562 614.85 60.7397 614.85 58.4077C614.85 56.3218 614.352 54.6343 613.355 53.3452C612.371 52.0444 611.059 51.394 609.418 51.394C607.812 51.394 606.518 52.0327 605.533 53.3101C604.549 54.5874 604.057 56.4155 604.057 58.7944Z" fill="white"/>
<path d="M631.373 51.9917C630.881 51.9097 630.348 51.8687 629.773 51.8687C627.641 51.8687 626.193 52.7769 625.432 54.5933V68.0933H622.18V49.0737H625.344L625.396 51.271C626.463 49.5718 627.975 48.7222 629.932 48.7222C630.564 48.7222 631.045 48.8042 631.373 48.9683V51.9917Z" fill="white"/>
<path d="M650.938 65.7905C652.098 65.7905 653.111 65.439 653.979 64.7358C654.846 64.0327 655.326 63.1538 655.42 62.0991H658.496C658.438 63.189 658.062 64.2261 657.371 65.2104C656.68 66.1948 655.754 66.98 654.594 67.5659C653.445 68.1519 652.227 68.4448 650.938 68.4448C648.348 68.4448 646.285 67.5835 644.75 65.8608C643.227 64.1265 642.465 61.7593 642.465 58.7593V58.2144C642.465 56.3628 642.805 54.7163 643.484 53.2749C644.164 51.8335 645.137 50.7144 646.402 49.9175C647.68 49.1206 649.186 48.7222 650.92 48.7222C653.053 48.7222 654.822 49.3608 656.229 50.6382C657.646 51.9155 658.402 53.5737 658.496 55.6128H655.42C655.326 54.3823 654.857 53.3745 654.014 52.5894C653.182 51.7925 652.15 51.394 650.92 51.394C649.268 51.394 647.984 51.9917 647.07 53.187C646.168 54.3706 645.717 56.0874 645.717 58.3374V58.9526C645.717 61.144 646.168 62.8315 647.07 64.0151C647.973 65.1987 649.262 65.7905 650.938 65.7905Z" fill="white"/>
<path d="M673.895 66.2124C672.629 67.7007 670.771 68.4448 668.322 68.4448C666.295 68.4448 664.748 67.8589 663.682 66.687C662.627 65.5034 662.094 63.7573 662.082 61.4487V49.0737H665.334V61.3608C665.334 64.2437 666.506 65.6851 668.85 65.6851C671.334 65.6851 672.986 64.7593 673.807 62.9077V49.0737H677.059V68.0933H673.965L673.895 66.2124Z" fill="white"/>
<path d="M693.758 68.0933C693.57 67.7183 693.418 67.0503 693.301 66.0894C691.789 67.6597 689.984 68.4448 687.887 68.4448C686.012 68.4448 684.471 67.9175 683.264 66.8628C682.068 65.7964 681.471 64.4487 681.471 62.8198C681.471 60.8394 682.221 59.3042 683.721 58.2144C685.232 57.1128 687.354 56.562 690.084 56.562H693.248V55.0679C693.248 53.9312 692.908 53.0288 692.229 52.3608C691.549 51.6812 690.547 51.3413 689.223 51.3413C688.062 51.3413 687.09 51.6343 686.305 52.2202C685.52 52.8062 685.127 53.5151 685.127 54.3472H681.857C681.857 53.3979 682.191 52.4839 682.859 51.605C683.539 50.7144 684.453 50.0112 685.602 49.4956C686.762 48.98 688.033 48.7222 689.416 48.7222C691.607 48.7222 693.324 49.2729 694.566 50.3745C695.809 51.4644 696.453 52.9702 696.5 54.8921V63.646C696.5 65.3921 696.723 66.7808 697.168 67.812V68.0933H693.758ZM688.361 65.6147C689.381 65.6147 690.348 65.3511 691.262 64.8237C692.176 64.2964 692.838 63.6108 693.248 62.7671V58.8647H690.699C686.715 58.8647 684.723 60.0308 684.723 62.3628C684.723 63.3823 685.062 64.1792 685.742 64.7534C686.422 65.3276 687.295 65.6147 688.361 65.6147Z" fill="white"/>
<path d="M700.807 58.4253C700.807 55.5073 701.498 53.1636 702.881 51.394C704.264 49.6128 706.074 48.7222 708.312 48.7222C710.539 48.7222 712.303 49.4839 713.604 51.0073V41.0933H716.855V68.0933H713.867L713.709 66.0542C712.408 67.6479 710.598 68.4448 708.277 68.4448C706.074 68.4448 704.275 67.5425 702.881 65.7378C701.498 63.9331 700.807 61.5776 700.807 58.6714V58.4253ZM704.059 58.7944C704.059 60.9507 704.504 62.6382 705.395 63.8569C706.285 65.0757 707.516 65.6851 709.086 65.6851C711.148 65.6851 712.654 64.7593 713.604 62.9077V54.1714C712.631 52.3784 711.137 51.4819 709.121 51.4819C707.527 51.4819 706.285 52.0972 705.395 53.3276C704.504 54.5581 704.059 56.3804 704.059 58.7944Z" fill="white"/>
<path d="M731.111 51.9917C730.619 51.9097 730.086 51.8687 729.512 51.8687C727.379 51.8687 725.932 52.7769 725.17 54.5933V68.0933H721.918V49.0737H725.082L725.135 51.271C726.201 49.5718 727.713 48.7222 729.67 48.7222C730.303 48.7222 730.783 48.8042 731.111 48.9683V51.9917Z" fill="white"/>
<path d="M745.156 68.0933C744.969 67.7183 744.816 67.0503 744.699 66.0894C743.188 67.6597 741.383 68.4448 739.285 68.4448C737.41 68.4448 735.869 67.9175 734.662 66.8628C733.467 65.7964 732.869 64.4487 732.869 62.8198C732.869 60.8394 733.619 59.3042 735.119 58.2144C736.631 57.1128 738.752 56.562 741.482 56.562H744.646V55.0679C744.646 53.9312 744.307 53.0288 743.627 52.3608C742.947 51.6812 741.945 51.3413 740.621 51.3413C739.461 51.3413 738.488 51.6343 737.703 52.2202C736.918 52.8062 736.525 53.5151 736.525 54.3472H733.256C733.256 53.3979 733.59 52.4839 734.258 51.605C734.938 50.7144 735.852 50.0112 737 49.4956C738.16 48.98 739.432 48.7222 740.814 48.7222C743.006 48.7222 744.723 49.2729 745.965 50.3745C747.207 51.4644 747.852 52.9702 747.898 54.8921V63.646C747.898 65.3921 748.121 66.7808 748.566 67.812V68.0933H745.156ZM739.76 65.6147C740.779 65.6147 741.746 65.3511 742.66 64.8237C743.574 64.2964 744.236 63.6108 744.646 62.7671V58.8647H742.098C738.113 58.8647 736.121 60.0308 736.121 62.3628C736.121 63.3823 736.461 64.1792 737.141 64.7534C737.82 65.3276 738.693 65.6147 739.76 65.6147Z" fill="white"/>
<path d="M752.205 58.4253C752.205 55.5073 752.896 53.1636 754.279 51.394C755.662 49.6128 757.473 48.7222 759.711 48.7222C761.938 48.7222 763.701 49.4839 765.002 51.0073V41.0933H768.254V68.0933H765.266L765.107 66.0542C763.807 67.6479 761.996 68.4448 759.676 68.4448C757.473 68.4448 755.674 67.5425 754.279 65.7378C752.896 63.9331 752.205 61.5776 752.205 58.6714V58.4253ZM755.457 58.7944C755.457 60.9507 755.902 62.6382 756.793 63.8569C757.684 65.0757 758.914 65.6851 760.484 65.6851C762.547 65.6851 764.053 64.7593 765.002 62.9077V54.1714C764.029 52.3784 762.535 51.4819 760.52 51.4819C758.926 51.4819 757.684 52.0972 756.793 53.3276C755.902 54.5581 755.457 56.3804 755.457 58.7944Z" fill="white"/>
<path d="M772.455 58.4077C772.455 56.5444 772.818 54.8687 773.545 53.3804C774.283 51.8921 775.303 50.7437 776.604 49.9351C777.916 49.1265 779.41 48.7222 781.086 48.7222C783.676 48.7222 785.768 49.6187 787.361 51.4116C788.967 53.2046 789.77 55.5894 789.77 58.5659V58.7944C789.77 60.646 789.412 62.3101 788.697 63.7866C787.994 65.2515 786.98 66.394 785.656 67.2144C784.344 68.0347 782.832 68.4448 781.121 68.4448C778.543 68.4448 776.451 67.5483 774.846 65.7554C773.252 63.9624 772.455 61.5894 772.455 58.6362V58.4077ZM775.725 58.7944C775.725 60.9038 776.211 62.5972 777.184 63.8745C778.168 65.1519 779.48 65.7905 781.121 65.7905C782.773 65.7905 784.086 65.146 785.059 63.8569C786.031 62.5562 786.518 60.7397 786.518 58.4077C786.518 56.3218 786.02 54.6343 785.023 53.3452C784.039 52.0444 782.727 51.394 781.086 51.394C779.48 51.394 778.186 52.0327 777.201 53.3101C776.217 54.5874 775.725 56.4155 775.725 58.7944Z" fill="white"/>
<path d="M804.922 63.0483C804.922 62.1694 804.588 61.4897 803.92 61.0093C803.264 60.5171 802.109 60.0952 800.457 59.7437C798.816 59.3921 797.51 58.9702 796.537 58.478C795.576 57.9858 794.861 57.3999 794.393 56.7202C793.936 56.0405 793.707 55.2319 793.707 54.2944C793.707 52.7358 794.363 51.4175 795.676 50.3394C797 49.2612 798.688 48.7222 800.738 48.7222C802.895 48.7222 804.641 49.2788 805.977 50.3921C807.324 51.5054 807.998 52.9292 807.998 54.6636H804.729C804.729 53.7729 804.348 53.0054 803.586 52.3608C802.836 51.7163 801.887 51.394 800.738 51.394C799.555 51.394 798.629 51.6519 797.961 52.1675C797.293 52.6831 796.959 53.3569 796.959 54.189C796.959 54.9741 797.27 55.5659 797.891 55.9644C798.512 56.3628 799.631 56.7437 801.248 57.1069C802.877 57.4702 804.195 57.9038 805.203 58.4077C806.211 58.9116 806.955 59.521 807.436 60.2358C807.928 60.939 808.174 61.8003 808.174 62.8198C808.174 64.519 807.494 65.8843 806.135 66.9155C804.775 67.9351 803.012 68.4448 800.844 68.4448C799.32 68.4448 797.973 68.1753 796.801 67.6362C795.629 67.0972 794.709 66.3472 794.041 65.3862C793.385 64.4136 793.057 63.3647 793.057 62.2397H796.309C796.367 63.3296 796.801 64.1968 797.609 64.8413C798.43 65.4741 799.508 65.7905 800.844 65.7905C802.074 65.7905 803.059 65.5444 803.797 65.0522C804.547 64.5483 804.922 63.8804 804.922 63.0483Z" fill="white"/>
<path d="M66.5352 105.048C66.5352 104.169 66.2012 103.49 65.5332 103.009C64.877 102.517 63.7227 102.095 62.0703 101.744C60.4297 101.392 59.123 100.97 58.1504 100.478C57.1895 99.9858 56.4746 99.3999 56.0059 98.7202C55.5488 98.0405 55.3203 97.2319 55.3203 96.2944C55.3203 94.7358 55.9766 93.4175 57.2891 92.3394C58.6133 91.2612 60.3008 90.7222 62.3516 90.7222C64.5078 90.7222 66.2539 91.2788 67.5898 92.3921C68.9375 93.5054 69.6113 94.9292 69.6113 96.6636H66.3418C66.3418 95.7729 65.9609 95.0054 65.1992 94.3608C64.4492 93.7163 63.5 93.394 62.3516 93.394C61.168 93.394 60.2422 93.6519 59.5742 94.1675C58.9062 94.6831 58.5723 95.3569 58.5723 96.189C58.5723 96.9741 58.8828 97.5659 59.5039 97.9644C60.125 98.3628 61.2441 98.7437 62.8613 99.1069C64.4902 99.4702 65.8086 99.9038 66.8164 100.408C67.8242 100.912 68.5684 101.521 69.0488 102.236C69.541 102.939 69.7871 103.8 69.7871 104.82C69.7871 106.519 69.1074 107.884 67.748 108.916C66.3887 109.935 64.625 110.445 62.457 110.445C60.9336 110.445 59.5859 110.175 58.4141 109.636C57.2422 109.097 56.3223 108.347 55.6543 107.386C54.998 106.414 54.6699 105.365 54.6699 104.24H57.9219C57.9805 105.33 58.4141 106.197 59.2227 106.841C60.043 107.474 61.1211 107.791 62.457 107.791C63.6875 107.791 64.6719 107.544 65.4102 107.052C66.1602 106.548 66.5352 105.88 66.5352 105.048Z" fill="white"/>
<path d="M77.5566 110.093H74.3047V91.0737H77.5566V110.093ZM74.041 86.0288C74.041 85.5015 74.1992 85.0562 74.5156 84.6929C74.8438 84.3296 75.3242 84.1479 75.957 84.1479C76.5898 84.1479 77.0703 84.3296 77.3984 84.6929C77.7266 85.0562 77.8906 85.5015 77.8906 86.0288C77.8906 86.5562 77.7266 86.9956 77.3984 87.3472C77.0703 87.6987 76.5898 87.8745 75.957 87.8745C75.3242 87.8745 74.8438 87.6987 74.5156 87.3472C74.1992 86.9956 74.041 86.5562 74.041 86.0288Z" fill="white"/>
<path d="M85.8359 91.0737L85.9238 93.1831C87.3184 91.5425 89.1992 90.7222 91.5664 90.7222C94.2266 90.7222 96.0371 91.7417 96.998 93.7808C97.6309 92.8667 98.4512 92.1284 99.459 91.5659C100.479 91.0034 101.68 90.7222 103.062 90.7222C107.234 90.7222 109.355 92.9312 109.426 97.3491V110.093H106.174V97.5425C106.174 96.1831 105.863 95.1694 105.242 94.5015C104.621 93.8218 103.578 93.4819 102.113 93.4819C100.906 93.4819 99.9043 93.8452 99.1074 94.5718C98.3105 95.2866 97.8477 96.2534 97.7188 97.4722V110.093H94.4492V97.6304C94.4492 94.8647 93.0957 93.4819 90.3887 93.4819C88.2559 93.4819 86.7969 94.3901 86.0117 96.2065V110.093H82.7598V91.0737H85.8359Z" fill="white"/>
<path d="M130.414 100.794C130.414 103.689 129.752 106.021 128.428 107.791C127.104 109.56 125.311 110.445 123.049 110.445C120.74 110.445 118.924 109.712 117.6 108.248V117.406H114.348V91.0737H117.318L117.477 93.1831C118.801 91.5425 120.641 90.7222 122.996 90.7222C125.281 90.7222 127.086 91.5835 128.41 93.3062C129.746 95.0288 130.414 97.4253 130.414 100.496V100.794ZM127.162 100.425C127.162 98.2808 126.705 96.5874 125.791 95.3452C124.877 94.103 123.623 93.4819 122.029 93.4819C120.061 93.4819 118.584 94.355 117.6 96.1011V105.189C118.572 106.923 120.061 107.791 122.064 107.791C123.623 107.791 124.859 107.175 125.773 105.945C126.699 104.703 127.162 102.863 127.162 100.425Z" fill="white"/>
<path d="M138.096 110.093H134.844V83.0933H138.096V110.093Z" fill="white"/>
<path d="M151.209 110.445C148.631 110.445 146.533 109.601 144.916 107.914C143.299 106.214 142.49 103.947 142.49 101.111V100.513C142.49 98.6265 142.848 96.9448 143.562 95.4683C144.289 93.98 145.297 92.8198 146.586 91.9878C147.887 91.144 149.293 90.7222 150.805 90.7222C153.277 90.7222 155.199 91.5366 156.57 93.1655C157.941 94.7944 158.627 97.1265 158.627 100.162V101.515H145.742C145.789 103.39 146.334 104.908 147.377 106.068C148.432 107.216 149.768 107.791 151.385 107.791C152.533 107.791 153.506 107.556 154.303 107.087C155.1 106.619 155.797 105.998 156.395 105.224L158.381 106.771C156.787 109.22 154.396 110.445 151.209 110.445ZM150.805 93.394C149.492 93.394 148.391 93.8745 147.5 94.8354C146.609 95.7847 146.059 97.1206 145.848 98.8433H155.375V98.5972C155.281 96.9448 154.836 95.6675 154.039 94.7651C153.242 93.8511 152.164 93.394 150.805 93.394Z" fill="white"/>
<path d="M173.48 105.048C173.48 104.169 173.146 103.49 172.479 103.009C171.822 102.517 170.668 102.095 169.016 101.744C167.375 101.392 166.068 100.97 165.096 100.478C164.135 99.9858 163.42 99.3999 162.951 98.7202C162.494 98.0405 162.266 97.2319 162.266 96.2944C162.266 94.7358 162.922 93.4175 164.234 92.3394C165.559 91.2612 167.246 90.7222 169.297 90.7222C171.453 90.7222 173.199 91.2788 174.535 92.3921C175.883 93.5054 176.557 94.9292 176.557 96.6636H173.287C173.287 95.7729 172.906 95.0054 172.145 94.3608C171.395 93.7163 170.445 93.394 169.297 93.394C168.113 93.394 167.188 93.6519 166.52 94.1675C165.852 94.6831 165.518 95.3569 165.518 96.189C165.518 96.9741 165.828 97.5659 166.449 97.9644C167.07 98.3628 168.189 98.7437 169.807 99.1069C171.436 99.4702 172.754 99.9038 173.762 100.408C174.77 100.912 175.514 101.521 175.994 102.236C176.486 102.939 176.732 103.8 176.732 104.82C176.732 106.519 176.053 107.884 174.693 108.916C173.334 109.935 171.57 110.445 169.402 110.445C167.879 110.445 166.531 110.175 165.359 109.636C164.188 109.097 163.268 108.347 162.6 107.386C161.943 106.414 161.615 105.365 161.615 104.24H164.867C164.926 105.33 165.359 106.197 166.168 106.841C166.988 107.474 168.066 107.791 169.402 107.791C170.633 107.791 171.617 107.544 172.355 107.052C173.105 106.548 173.48 105.88 173.48 105.048Z" fill="white"/>
<path d="M181.039 108.388C181.039 107.826 181.203 107.357 181.531 106.982C181.871 106.607 182.375 106.419 183.043 106.419C183.711 106.419 184.215 106.607 184.555 106.982C184.906 107.357 185.082 107.826 185.082 108.388C185.082 108.927 184.906 109.378 184.555 109.742C184.215 110.105 183.711 110.287 183.043 110.287C182.375 110.287 181.871 110.105 181.531 109.742C181.203 109.378 181.039 108.927 181.039 108.388Z" fill="white"/>
<path d="M207.266 98.1401C207.254 99.3823 207.125 100.378 206.879 101.128C206.645 101.867 206.246 102.582 205.684 103.273C205.121 103.964 204.301 104.878 203.223 106.015C202.145 107.14 201.541 108.283 201.412 109.443L201.377 110.093C201.377 111.371 201.717 112.343 202.396 113.011C203.076 113.691 204.055 114.031 205.332 114.031C206.504 114.031 207.453 113.697 208.18 113.029C208.918 112.373 209.287 111.511 209.287 110.445H212.539C212.516 112.332 211.842 113.873 210.518 115.068C209.205 116.263 207.477 116.861 205.332 116.861C203.035 116.861 201.26 116.269 200.006 115.085C198.752 113.914 198.125 112.279 198.125 110.181C198.125 108.154 199.062 106.115 200.938 104.064L202.854 102.078C203.627 101.164 204.014 99.8511 204.014 98.1401H207.266ZM207.406 92.5679C207.406 93.0952 207.242 93.5405 206.914 93.9038C206.598 94.2671 206.123 94.4487 205.49 94.4487C204.857 94.4487 204.377 94.2671 204.049 93.9038C203.721 93.5405 203.557 93.0952 203.557 92.5679C203.557 92.0522 203.721 91.6187 204.049 91.2671C204.377 90.9155 204.857 90.7397 205.49 90.7397C206.123 90.7397 206.598 90.9155 206.914 91.2671C207.242 91.6187 207.406 92.0522 207.406 92.5679Z" fill="white"/>
<path d="M235.777 101.972C235.461 104.679 234.459 106.771 232.771 108.248C231.096 109.712 228.863 110.445 226.074 110.445C223.051 110.445 220.625 109.361 218.797 107.193C216.98 105.025 216.072 102.125 216.072 98.4917V96.0308C216.072 93.6519 216.494 91.5601 217.338 89.7554C218.193 87.9507 219.4 86.5679 220.959 85.6069C222.518 84.6343 224.322 84.1479 226.373 84.1479C229.092 84.1479 231.271 84.9097 232.912 86.4331C234.553 87.9448 235.508 90.0425 235.777 92.7261H232.385C232.092 90.687 231.453 89.2104 230.469 88.2964C229.496 87.3823 228.131 86.9253 226.373 86.9253C224.217 86.9253 222.523 87.7222 221.293 89.3159C220.074 90.9097 219.465 93.1772 219.465 96.1187V98.5972C219.465 101.375 220.045 103.583 221.205 105.224C222.365 106.865 223.988 107.685 226.074 107.685C227.949 107.685 229.385 107.263 230.381 106.419C231.389 105.564 232.057 104.082 232.385 101.972H235.777Z" fill="white"/>
<path d="M251.633 108.212C250.367 109.701 248.51 110.445 246.061 110.445C244.033 110.445 242.486 109.859 241.42 108.687C240.365 107.503 239.832 105.757 239.82 103.449V91.0737H243.072V103.361C243.072 106.244 244.244 107.685 246.588 107.685C249.072 107.685 250.725 106.759 251.545 104.908V91.0737H254.797V110.093H251.703L251.633 108.212Z" fill="white"/>
<path d="M271.496 110.093C271.309 109.718 271.156 109.05 271.039 108.089C269.527 109.66 267.723 110.445 265.625 110.445C263.75 110.445 262.209 109.917 261.002 108.863C259.807 107.796 259.209 106.449 259.209 104.82C259.209 102.839 259.959 101.304 261.459 100.214C262.971 99.1128 265.092 98.562 267.822 98.562H270.986V97.0679C270.986 95.9312 270.646 95.0288 269.967 94.3608C269.287 93.6812 268.285 93.3413 266.961 93.3413C265.801 93.3413 264.828 93.6343 264.043 94.2202C263.258 94.8062 262.865 95.5151 262.865 96.3472H259.596C259.596 95.3979 259.93 94.4839 260.598 93.605C261.277 92.7144 262.191 92.0112 263.34 91.4956C264.5 90.98 265.771 90.7222 267.154 90.7222C269.346 90.7222 271.062 91.2729 272.305 92.3745C273.547 93.4644 274.191 94.9702 274.238 96.8921V105.646C274.238 107.392 274.461 108.781 274.906 109.812V110.093H271.496ZM266.1 107.615C267.119 107.615 268.086 107.351 269 106.824C269.914 106.296 270.576 105.611 270.986 104.767V100.865H268.438C264.453 100.865 262.461 102.031 262.461 104.363C262.461 105.382 262.801 106.179 263.48 106.753C264.16 107.328 265.033 107.615 266.1 107.615ZM269.105 83.0933H273.043L268.332 88.2612H265.713L269.105 83.0933Z" fill="white"/>
<path d="M282.412 91.0737L282.518 93.4644C283.971 91.6362 285.869 90.7222 288.213 90.7222C292.232 90.7222 294.26 92.9897 294.295 97.5249V110.093H291.043V97.5073C291.031 96.1362 290.715 95.1226 290.094 94.4663C289.484 93.8101 288.529 93.4819 287.229 93.4819C286.174 93.4819 285.248 93.7632 284.451 94.3257C283.654 94.8882 283.033 95.6265 282.588 96.5405V110.093H279.336V91.0737H282.412Z" fill="white"/>
<path d="M303.611 86.4683V91.0737H307.162V93.5874H303.611V105.382C303.611 106.144 303.77 106.718 304.086 107.105C304.402 107.48 304.941 107.667 305.703 107.667C306.078 107.667 306.594 107.597 307.25 107.457V110.093C306.395 110.328 305.562 110.445 304.754 110.445C303.301 110.445 302.205 110.005 301.467 109.126C300.729 108.248 300.359 107 300.359 105.382V93.5874H296.896V91.0737H300.359V86.4683H303.611Z" fill="white"/>
<path d="M309.764 100.408C309.764 98.5444 310.127 96.8687 310.854 95.3804C311.592 93.8921 312.611 92.7437 313.912 91.9351C315.225 91.1265 316.719 90.7222 318.395 90.7222C320.984 90.7222 323.076 91.6187 324.67 93.4116C326.275 95.2046 327.078 97.5894 327.078 100.566V100.794C327.078 102.646 326.721 104.31 326.006 105.787C325.303 107.251 324.289 108.394 322.965 109.214C321.652 110.035 320.141 110.445 318.43 110.445C315.852 110.445 313.76 109.548 312.154 107.755C310.561 105.962 309.764 103.589 309.764 100.636V100.408ZM313.033 100.794C313.033 102.904 313.52 104.597 314.492 105.875C315.477 107.152 316.789 107.791 318.43 107.791C320.082 107.791 321.395 107.146 322.367 105.857C323.34 104.556 323.826 102.74 323.826 100.408C323.826 98.3218 323.328 96.6343 322.332 95.3452C321.348 94.0444 320.035 93.394 318.395 93.394C316.789 93.394 315.494 94.0327 314.51 95.3101C313.525 96.5874 313.033 98.4155 313.033 100.794Z" fill="white"/>
<path d="M342.23 105.048C342.23 104.169 341.896 103.49 341.229 103.009C340.572 102.517 339.418 102.095 337.766 101.744C336.125 101.392 334.818 100.97 333.846 100.478C332.885 99.9858 332.17 99.3999 331.701 98.7202C331.244 98.0405 331.016 97.2319 331.016 96.2944C331.016 94.7358 331.672 93.4175 332.984 92.3394C334.309 91.2612 335.996 90.7222 338.047 90.7222C340.203 90.7222 341.949 91.2788 343.285 92.3921C344.633 93.5054 345.307 94.9292 345.307 96.6636H342.037C342.037 95.7729 341.656 95.0054 340.895 94.3608C340.145 93.7163 339.195 93.394 338.047 93.394C336.863 93.394 335.938 93.6519 335.27 94.1675C334.602 94.6831 334.268 95.3569 334.268 96.189C334.268 96.9741 334.578 97.5659 335.199 97.9644C335.82 98.3628 336.939 98.7437 338.557 99.1069C340.186 99.4702 341.504 99.9038 342.512 100.408C343.52 100.912 344.264 101.521 344.744 102.236C345.236 102.939 345.482 103.8 345.482 104.82C345.482 106.519 344.803 107.884 343.443 108.916C342.084 109.935 340.32 110.445 338.152 110.445C336.629 110.445 335.281 110.175 334.109 109.636C332.938 109.097 332.018 108.347 331.35 107.386C330.693 106.414 330.365 105.365 330.365 104.24H333.617C333.676 105.33 334.109 106.197 334.918 106.841C335.738 107.474 336.816 107.791 338.152 107.791C339.383 107.791 340.367 107.544 341.105 107.052C341.855 106.548 342.23 105.88 342.23 105.048Z" fill="white"/>
<path d="M366.277 107.791C367.438 107.791 368.451 107.439 369.318 106.736C370.186 106.033 370.666 105.154 370.76 104.099H373.836C373.777 105.189 373.402 106.226 372.711 107.21C372.02 108.195 371.094 108.98 369.934 109.566C368.785 110.152 367.566 110.445 366.277 110.445C363.688 110.445 361.625 109.583 360.09 107.861C358.566 106.126 357.805 103.759 357.805 100.759V100.214C357.805 98.3628 358.145 96.7163 358.824 95.2749C359.504 93.8335 360.477 92.7144 361.742 91.9175C363.02 91.1206 364.525 90.7222 366.26 90.7222C368.393 90.7222 370.162 91.3608 371.568 92.6382C372.986 93.9155 373.742 95.5737 373.836 97.6128H370.76C370.666 96.3823 370.197 95.3745 369.354 94.5894C368.521 93.7925 367.49 93.394 366.26 93.394C364.607 93.394 363.324 93.9917 362.41 95.187C361.508 96.3706 361.057 98.0874 361.057 100.337V100.953C361.057 103.144 361.508 104.832 362.41 106.015C363.312 107.199 364.602 107.791 366.277 107.791Z" fill="white"/>
<path d="M389.234 108.212C387.969 109.701 386.111 110.445 383.662 110.445C381.635 110.445 380.088 109.859 379.021 108.687C377.967 107.503 377.434 105.757 377.422 103.449V91.0737H380.674V103.361C380.674 106.244 381.846 107.685 384.189 107.685C386.674 107.685 388.326 106.759 389.146 104.908V91.0737H392.398V110.093H389.305L389.234 108.212Z" fill="white"/>
<path d="M409.098 110.093C408.91 109.718 408.758 109.05 408.641 108.089C407.129 109.66 405.324 110.445 403.227 110.445C401.352 110.445 399.811 109.917 398.604 108.863C397.408 107.796 396.811 106.449 396.811 104.82C396.811 102.839 397.561 101.304 399.061 100.214C400.572 99.1128 402.693 98.562 405.424 98.562H408.588V97.0679C408.588 95.9312 408.248 95.0288 407.568 94.3608C406.889 93.6812 405.887 93.3413 404.562 93.3413C403.402 93.3413 402.43 93.6343 401.645 94.2202C400.859 94.8062 400.467 95.5151 400.467 96.3472H397.197C397.197 95.3979 397.531 94.4839 398.199 93.605C398.879 92.7144 399.793 92.0112 400.941 91.4956C402.102 90.98 403.373 90.7222 404.756 90.7222C406.947 90.7222 408.664 91.2729 409.906 92.3745C411.148 93.4644 411.793 94.9702 411.84 96.8921V105.646C411.84 107.392 412.062 108.781 412.508 109.812V110.093H409.098ZM403.701 107.615C404.721 107.615 405.688 107.351 406.602 106.824C407.516 106.296 408.178 105.611 408.588 104.767V100.865H406.039C402.055 100.865 400.062 102.031 400.062 104.363C400.062 105.382 400.402 106.179 401.082 106.753C401.762 107.328 402.635 107.615 403.701 107.615Z" fill="white"/>
<path d="M416.146 100.425C416.146 97.5073 416.838 95.1636 418.221 93.394C419.604 91.6128 421.414 90.7222 423.652 90.7222C425.879 90.7222 427.643 91.4839 428.943 93.0073V83.0933H432.195V110.093H429.207L429.049 108.054C427.748 109.648 425.938 110.445 423.617 110.445C421.414 110.445 419.615 109.542 418.221 107.738C416.838 105.933 416.146 103.578 416.146 100.671V100.425ZM419.398 100.794C419.398 102.951 419.844 104.638 420.734 105.857C421.625 107.076 422.855 107.685 424.426 107.685C426.488 107.685 427.994 106.759 428.943 104.908V96.1714C427.971 94.3784 426.477 93.4819 424.461 93.4819C422.867 93.4819 421.625 94.0972 420.734 95.3276C419.844 96.5581 419.398 98.3804 419.398 100.794Z" fill="white"/>
<path d="M446.451 93.9917C445.959 93.9097 445.426 93.8687 444.852 93.8687C442.719 93.8687 441.271 94.7769 440.51 96.5933V110.093H437.258V91.0737H440.422L440.475 93.271C441.541 91.5718 443.053 90.7222 445.01 90.7222C445.643 90.7222 446.123 90.8042 446.451 90.9683V93.9917Z" fill="white"/>
<path d="M452.99 110.093H449.738V91.0737H452.99V110.093ZM449.475 86.0288C449.475 85.5015 449.633 85.0562 449.949 84.6929C450.277 84.3296 450.758 84.1479 451.391 84.1479C452.023 84.1479 452.504 84.3296 452.832 84.6929C453.16 85.0562 453.324 85.5015 453.324 86.0288C453.324 86.5562 453.16 86.9956 452.832 87.3472C452.504 87.6987 452.023 87.8745 451.391 87.8745C450.758 87.8745 450.277 87.6987 449.949 87.3472C449.633 86.9956 449.475 86.5562 449.475 86.0288Z" fill="white"/>
<path d="M461.744 110.093H458.492V83.0933H461.744V110.093Z" fill="white"/>
<path d="M478.707 110.093C478.52 109.718 478.367 109.05 478.25 108.089C476.738 109.66 474.934 110.445 472.836 110.445C470.961 110.445 469.42 109.917 468.213 108.863C467.018 107.796 466.42 106.449 466.42 104.82C466.42 102.839 467.17 101.304 468.67 100.214C470.182 99.1128 472.303 98.562 475.033 98.562H478.197V97.0679C478.197 95.9312 477.857 95.0288 477.178 94.3608C476.498 93.6812 475.496 93.3413 474.172 93.3413C473.012 93.3413 472.039 93.6343 471.254 94.2202C470.469 94.8062 470.076 95.5151 470.076 96.3472H466.807C466.807 95.3979 467.141 94.4839 467.809 93.605C468.488 92.7144 469.402 92.0112 470.551 91.4956C471.711 90.98 472.982 90.7222 474.365 90.7222C476.557 90.7222 478.273 91.2729 479.516 92.3745C480.758 93.4644 481.402 94.9702 481.449 96.8921V105.646C481.449 107.392 481.672 108.781 482.117 109.812V110.093H478.707ZM473.311 107.615C474.33 107.615 475.297 107.351 476.211 106.824C477.125 106.296 477.787 105.611 478.197 104.767V100.865H475.648C471.664 100.865 469.672 102.031 469.672 104.363C469.672 105.382 470.012 106.179 470.691 106.753C471.371 107.328 472.244 107.615 473.311 107.615ZM476.316 83.0933H480.254L475.543 88.2612H472.924L476.316 83.0933Z" fill="white"/>
<path d="M490.959 86.4683V91.0737H494.51V93.5874H490.959V105.382C490.959 106.144 491.117 106.718 491.434 107.105C491.75 107.48 492.289 107.667 493.051 107.667C493.426 107.667 493.941 107.597 494.598 107.457V110.093C493.742 110.328 492.91 110.445 492.102 110.445C490.648 110.445 489.553 110.005 488.814 109.126C488.076 108.248 487.707 107 487.707 105.382V93.5874H484.244V91.0737H487.707V86.4683H490.959Z" fill="white"/>
<path d="M506.217 110.445C503.639 110.445 501.541 109.601 499.924 107.914C498.307 106.214 497.498 103.947 497.498 101.111V100.513C497.498 98.6265 497.855 96.9448 498.57 95.4683C499.297 93.98 500.305 92.8198 501.594 91.9878C502.895 91.144 504.301 90.7222 505.812 90.7222C508.285 90.7222 510.207 91.5366 511.578 93.1655C512.949 94.7944 513.635 97.1265 513.635 100.162V101.515H500.75C500.797 103.39 501.342 104.908 502.385 106.068C503.439 107.216 504.775 107.791 506.393 107.791C507.541 107.791 508.514 107.556 509.311 107.087C510.107 106.619 510.805 105.998 511.402 105.224L513.389 106.771C511.795 109.22 509.404 110.445 506.217 110.445ZM505.812 93.394C504.5 93.394 503.398 93.8745 502.508 94.8354C501.617 95.7847 501.066 97.1206 500.855 98.8433H510.383V98.5972C510.289 96.9448 509.844 95.6675 509.047 94.7651C508.25 93.8511 507.172 93.394 505.812 93.394Z" fill="white"/>
<path d="M526.607 93.9917C526.115 93.9097 525.582 93.8687 525.008 93.8687C522.875 93.8687 521.428 94.7769 520.666 96.5933V110.093H517.414V91.0737H520.578L520.631 93.271C521.697 91.5718 523.209 90.7222 525.166 90.7222C525.799 90.7222 526.279 90.8042 526.607 90.9683V93.9917Z" fill="white"/>
<path d="M528.4 100.408C528.4 98.5444 528.764 96.8687 529.49 95.3804C530.229 93.8921 531.248 92.7437 532.549 91.9351C533.861 91.1265 535.355 90.7222 537.031 90.7222C539.621 90.7222 541.713 91.6187 543.307 93.4116C544.912 95.2046 545.715 97.5894 545.715 100.566V100.794C545.715 102.646 545.357 104.31 544.643 105.787C543.939 107.251 542.926 108.394 541.602 109.214C540.289 110.035 538.777 110.445 537.066 110.445C534.488 110.445 532.396 109.548 530.791 107.755C529.197 105.962 528.4 103.589 528.4 100.636V100.408ZM531.67 100.794C531.67 102.904 532.156 104.597 533.129 105.875C534.113 107.152 535.426 107.791 537.066 107.791C538.719 107.791 540.031 107.146 541.004 105.857C541.977 104.556 542.463 102.74 542.463 100.408C542.463 98.3218 541.965 96.6343 540.969 95.3452C539.984 94.0444 538.672 93.394 537.031 93.394C535.426 93.394 534.131 94.0327 533.146 95.3101C532.162 96.5874 531.67 98.4155 531.67 100.794Z" fill="white"/>
<path d="M560.867 105.048C560.867 104.169 560.533 103.49 559.865 103.009C559.209 102.517 558.055 102.095 556.402 101.744C554.762 101.392 553.455 100.97 552.482 100.478C551.521 99.9858 550.807 99.3999 550.338 98.7202C549.881 98.0405 549.652 97.2319 549.652 96.2944C549.652 94.7358 550.309 93.4175 551.621 92.3394C552.945 91.2612 554.633 90.7222 556.684 90.7222C558.84 90.7222 560.586 91.2788 561.922 92.3921C563.27 93.5054 563.943 94.9292 563.943 96.6636H560.674C560.674 95.7729 560.293 95.0054 559.531 94.3608C558.781 93.7163 557.832 93.394 556.684 93.394C555.5 93.394 554.574 93.6519 553.906 94.1675C553.238 94.6831 552.904 95.3569 552.904 96.189C552.904 96.9741 553.215 97.5659 553.836 97.9644C554.457 98.3628 555.576 98.7437 557.193 99.1069C558.822 99.4702 560.141 99.9038 561.148 100.408C562.156 100.912 562.9 101.521 563.381 102.236C563.873 102.939 564.119 103.8 564.119 104.82C564.119 106.519 563.439 107.884 562.08 108.916C560.721 109.935 558.957 110.445 556.789 110.445C555.266 110.445 553.918 110.175 552.746 109.636C551.574 109.097 550.654 108.347 549.986 107.386C549.33 106.414 549.002 105.365 549.002 104.24H552.254C552.312 105.33 552.746 106.197 553.555 106.841C554.375 107.474 555.453 107.791 556.789 107.791C558.02 107.791 559.004 107.544 559.742 107.052C560.492 106.548 560.867 105.88 560.867 105.048Z" fill="white"/>
<path d="M576.494 100.425C576.494 97.437 577.18 95.0757 578.551 93.3413C579.922 91.5952 581.762 90.7222 584.07 90.7222C586.32 90.7222 588.096 91.478 589.396 92.9897L589.537 91.0737H592.525V117.406H589.273V108.335C587.961 109.742 586.215 110.445 584.035 110.445C581.738 110.445 579.904 109.554 578.533 107.773C577.174 105.98 576.494 103.607 576.494 100.654V100.425ZM579.746 100.794C579.746 102.974 580.203 104.685 581.117 105.927C582.043 107.169 583.285 107.791 584.844 107.791C586.777 107.791 588.254 106.935 589.273 105.224V95.9077C588.242 94.2319 586.777 93.394 584.879 93.394C583.309 93.394 582.061 94.021 581.135 95.2749C580.209 96.5171 579.746 98.3569 579.746 100.794Z" fill="white"/>
<path d="M609.488 108.212C608.223 109.701 606.365 110.445 603.916 110.445C601.889 110.445 600.342 109.859 599.275 108.687C598.221 107.503 597.688 105.757 597.676 103.449V91.0737H600.928V103.361C600.928 106.244 602.1 107.685 604.443 107.685C606.928 107.685 608.58 106.759 609.4 104.908V91.0737H612.652V110.093H609.559L609.488 108.212Z" fill="white"/>
<path d="M625.502 110.445C622.924 110.445 620.826 109.601 619.209 107.914C617.592 106.214 616.783 103.947 616.783 101.111V100.513C616.783 98.6265 617.141 96.9448 617.855 95.4683C618.582 93.98 619.59 92.8198 620.879 91.9878C622.18 91.144 623.586 90.7222 625.098 90.7222C627.57 90.7222 629.492 91.5366 630.863 93.1655C632.234 94.7944 632.92 97.1265 632.92 100.162V101.515H620.035C620.082 103.39 620.627 104.908 621.67 106.068C622.725 107.216 624.061 107.791 625.678 107.791C626.826 107.791 627.799 107.556 628.596 107.087C629.393 106.619 630.09 105.998 630.688 105.224L632.674 106.771C631.08 109.22 628.689 110.445 625.502 110.445ZM625.098 93.394C623.785 93.394 622.684 93.8745 621.793 94.8354C620.902 95.7847 620.352 97.1206 620.141 98.8433H629.668V98.5972C629.574 96.9448 629.129 95.6675 628.332 94.7651C627.535 93.8511 626.457 93.394 625.098 93.394Z" fill="white"/>
<path d="M648.705 91.0737L648.811 93.4644C650.264 91.6362 652.162 90.7222 654.506 90.7222C658.525 90.7222 660.553 92.9897 660.588 97.5249V110.093H657.336V97.5073C657.324 96.1362 657.008 95.1226 656.387 94.4663C655.777 93.8101 654.822 93.4819 653.521 93.4819C652.467 93.4819 651.541 93.7632 650.744 94.3257C649.947 94.8882 649.326 95.6265 648.881 96.5405V110.093H645.629V91.0737H648.705Z" fill="white"/>
<path d="M664.631 100.408C664.631 98.5444 664.994 96.8687 665.721 95.3804C666.459 93.8921 667.479 92.7437 668.779 91.9351C670.092 91.1265 671.586 90.7222 673.262 90.7222C675.852 90.7222 677.943 91.6187 679.537 93.4116C681.143 95.2046 681.945 97.5894 681.945 100.566V100.794C681.945 102.646 681.588 104.31 680.873 105.787C680.17 107.251 679.156 108.394 677.832 109.214C676.52 110.035 675.008 110.445 673.297 110.445C670.719 110.445 668.627 109.548 667.021 107.755C665.428 105.962 664.631 103.589 664.631 100.636V100.408ZM667.9 100.794C667.9 102.904 668.387 104.597 669.359 105.875C670.344 107.152 671.656 107.791 673.297 107.791C674.949 107.791 676.262 107.146 677.234 105.857C678.207 104.556 678.693 102.74 678.693 100.408C678.693 98.3218 678.195 96.6343 677.199 95.3452C676.215 94.0444 674.902 93.394 673.262 93.394C671.656 93.394 670.361 94.0327 669.377 95.3101C668.393 96.5874 667.9 98.4155 667.9 100.794Z" fill="white"/>
<path d="M706.027 105.048C706.027 104.169 705.693 103.49 705.025 103.009C704.369 102.517 703.215 102.095 701.562 101.744C699.922 101.392 698.615 100.97 697.643 100.478C696.682 99.9858 695.967 99.3999 695.498 98.7202C695.041 98.0405 694.812 97.2319 694.812 96.2944C694.812 94.7358 695.469 93.4175 696.781 92.3394C698.105 91.2612 699.793 90.7222 701.844 90.7222C704 90.7222 705.746 91.2788 707.082 92.3921C708.43 93.5054 709.104 94.9292 709.104 96.6636H705.834C705.834 95.7729 705.453 95.0054 704.691 94.3608C703.941 93.7163 702.992 93.394 701.844 93.394C700.66 93.394 699.734 93.6519 699.066 94.1675C698.398 94.6831 698.064 95.3569 698.064 96.189C698.064 96.9741 698.375 97.5659 698.996 97.9644C699.617 98.3628 700.736 98.7437 702.354 99.1069C703.982 99.4702 705.301 99.9038 706.309 100.408C707.316 100.912 708.061 101.521 708.541 102.236C709.033 102.939 709.279 103.8 709.279 104.82C709.279 106.519 708.6 107.884 707.24 108.916C705.881 109.935 704.117 110.445 701.949 110.445C700.426 110.445 699.078 110.175 697.906 109.636C696.734 109.097 695.814 108.347 695.146 107.386C694.49 106.414 694.162 105.365 694.162 104.24H697.414C697.473 105.33 697.906 106.197 698.715 106.841C699.535 107.474 700.613 107.791 701.949 107.791C703.18 107.791 704.164 107.544 704.902 107.052C705.652 106.548 706.027 105.88 706.027 105.048Z" fill="white"/>
<path d="M712.654 100.408C712.654 98.5444 713.018 96.8687 713.744 95.3804C714.482 93.8921 715.502 92.7437 716.803 91.9351C718.115 91.1265 719.609 90.7222 721.285 90.7222C723.875 90.7222 725.967 91.6187 727.561 93.4116C729.166 95.2046 729.969 97.5894 729.969 100.566V100.794C729.969 102.646 729.611 104.31 728.896 105.787C728.193 107.251 727.18 108.394 725.855 109.214C724.543 110.035 723.031 110.445 721.32 110.445C718.742 110.445 716.65 109.548 715.045 107.755C713.451 105.962 712.654 103.589 712.654 100.636V100.408ZM715.924 100.794C715.924 102.904 716.41 104.597 717.383 105.875C718.367 107.152 719.68 107.791 721.32 107.791C722.973 107.791 724.285 107.146 725.258 105.857C726.23 104.556 726.717 102.74 726.717 100.408C726.717 98.3218 726.219 96.6343 725.223 95.3452C724.238 94.0444 722.926 93.394 721.285 93.394C719.68 93.394 718.385 94.0327 717.4 95.3101C716.416 96.5874 715.924 98.4155 715.924 100.794Z" fill="white"/>
<path d="M737.123 91.0737L737.229 93.4644C738.682 91.6362 740.58 90.7222 742.924 90.7222C746.943 90.7222 748.971 92.9897 749.006 97.5249V110.093H745.754V97.5073C745.742 96.1362 745.426 95.1226 744.805 94.4663C744.195 93.8101 743.24 93.4819 741.939 93.4819C740.885 93.4819 739.959 93.7632 739.162 94.3257C738.365 94.8882 737.744 95.6265 737.299 96.5405V110.093H734.047V91.0737H737.123Z" fill="white"/>
<path d="M63.0898 149.791C64.25 149.791 65.2637 149.439 66.1309 148.736C66.998 148.033 67.4785 147.154 67.5723 146.099H70.6484C70.5898 147.189 70.2148 148.226 69.5234 149.21C68.832 150.195 67.9062 150.98 66.7461 151.566C65.5977 152.152 64.3789 152.445 63.0898 152.445C60.5 152.445 58.4375 151.583 56.9023 149.861C55.3789 148.126 54.6172 145.759 54.6172 142.759V142.214C54.6172 140.363 54.957 138.716 55.6367 137.275C56.3164 135.833 57.2891 134.714 58.5547 133.917C59.832 133.121 61.3379 132.722 63.0723 132.722C65.2051 132.722 66.9746 133.361 68.3809 134.638C69.7988 135.916 70.5547 137.574 70.6484 139.613H67.5723C67.4785 138.382 67.0098 137.375 66.166 136.589C65.334 135.792 64.3027 135.394 63.0723 135.394C61.4199 135.394 60.1367 135.992 59.2227 137.187C58.3203 138.371 57.8691 140.087 57.8691 142.337V142.953C57.8691 145.144 58.3203 146.832 59.2227 148.015C60.125 149.199 61.4141 149.791 63.0898 149.791Z" fill="white"/>
<path d="M86.0469 150.212C84.7812 151.701 82.9238 152.445 80.4746 152.445C78.4473 152.445 76.9004 151.859 75.834 150.687C74.7793 149.503 74.2461 147.757 74.2344 145.449V133.074H77.4863V145.361C77.4863 148.244 78.6582 149.685 81.002 149.685C83.4863 149.685 85.1387 148.759 85.959 146.908V133.074H89.2109V152.093H86.1172L86.0469 150.212Z" fill="white"/>
<path d="M105.91 152.093C105.723 151.718 105.57 151.05 105.453 150.089C103.941 151.66 102.137 152.445 100.039 152.445C98.1641 152.445 96.623 151.917 95.416 150.863C94.2207 149.796 93.623 148.449 93.623 146.82C93.623 144.839 94.373 143.304 95.873 142.214C97.3848 141.113 99.5059 140.562 102.236 140.562H105.4V139.068C105.4 137.931 105.061 137.029 104.381 136.361C103.701 135.681 102.699 135.341 101.375 135.341C100.215 135.341 99.2422 135.634 98.457 136.22C97.6719 136.806 97.2793 137.515 97.2793 138.347H94.0098C94.0098 137.398 94.3438 136.484 95.0117 135.605C95.6914 134.714 96.6055 134.011 97.7539 133.496C98.9141 132.98 100.186 132.722 101.568 132.722C103.76 132.722 105.477 133.273 106.719 134.375C107.961 135.464 108.605 136.97 108.652 138.892V147.646C108.652 149.392 108.875 150.781 109.32 151.812V152.093H105.91ZM100.514 149.615C101.533 149.615 102.5 149.351 103.414 148.824C104.328 148.296 104.99 147.611 105.4 146.767V142.865H102.852C98.8672 142.865 96.875 144.031 96.875 146.363C96.875 147.382 97.2148 148.179 97.8945 148.753C98.5742 149.328 99.4473 149.615 100.514 149.615Z" fill="white"/>
<path d="M112.959 142.425C112.959 139.507 113.65 137.164 115.033 135.394C116.416 133.613 118.227 132.722 120.465 132.722C122.691 132.722 124.455 133.484 125.756 135.007V125.093H129.008V152.093H126.02L125.861 150.054C124.561 151.648 122.75 152.445 120.43 152.445C118.227 152.445 116.428 151.542 115.033 149.738C113.65 147.933 112.959 145.578 112.959 142.671V142.425ZM116.211 142.794C116.211 144.951 116.656 146.638 117.547 147.857C118.438 149.076 119.668 149.685 121.238 149.685C123.301 149.685 124.807 148.759 125.756 146.908V138.171C124.783 136.378 123.289 135.482 121.273 135.482C119.68 135.482 118.438 136.097 117.547 137.328C116.656 138.558 116.211 140.38 116.211 142.794Z" fill="white"/>
<path d="M143.264 135.992C142.771 135.91 142.238 135.869 141.664 135.869C139.531 135.869 138.084 136.777 137.322 138.593V152.093H134.07V133.074H137.234L137.287 135.271C138.354 133.572 139.865 132.722 141.822 132.722C142.455 132.722 142.936 132.804 143.264 132.968V135.992Z" fill="white"/>
<path d="M157.309 152.093C157.121 151.718 156.969 151.05 156.852 150.089C155.34 151.66 153.535 152.445 151.438 152.445C149.562 152.445 148.021 151.917 146.814 150.863C145.619 149.796 145.021 148.449 145.021 146.82C145.021 144.839 145.771 143.304 147.271 142.214C148.783 141.113 150.904 140.562 153.635 140.562H156.799V139.068C156.799 137.931 156.459 137.029 155.779 136.361C155.1 135.681 154.098 135.341 152.773 135.341C151.613 135.341 150.641 135.634 149.855 136.22C149.07 136.806 148.678 137.515 148.678 138.347H145.408C145.408 137.398 145.742 136.484 146.41 135.605C147.09 134.714 148.004 134.011 149.152 133.496C150.312 132.98 151.584 132.722 152.967 132.722C155.158 132.722 156.875 133.273 158.117 134.375C159.359 135.464 160.004 136.97 160.051 138.892V147.646C160.051 149.392 160.273 150.781 160.719 151.812V152.093H157.309ZM151.912 149.615C152.932 149.615 153.898 149.351 154.812 148.824C155.727 148.296 156.389 147.611 156.799 146.767V142.865H154.25C150.266 142.865 148.273 144.031 148.273 146.363C148.273 147.382 148.613 148.179 149.293 148.753C149.973 149.328 150.846 149.615 151.912 149.615Z" fill="white"/>
<path d="M164.357 142.425C164.357 139.507 165.049 137.164 166.432 135.394C167.814 133.613 169.625 132.722 171.863 132.722C174.09 132.722 175.854 133.484 177.154 135.007V125.093H180.406V152.093H177.418L177.26 150.054C175.959 151.648 174.148 152.445 171.828 152.445C169.625 152.445 167.826 151.542 166.432 149.738C165.049 147.933 164.357 145.578 164.357 142.671V142.425ZM167.609 142.794C167.609 144.951 168.055 146.638 168.945 147.857C169.836 149.076 171.066 149.685 172.637 149.685C174.699 149.685 176.205 148.759 177.154 146.908V138.171C176.182 136.378 174.688 135.482 172.672 135.482C171.078 135.482 169.836 136.097 168.945 137.328C168.055 138.558 167.609 140.38 167.609 142.794Z" fill="white"/>
<path d="M184.607 142.408C184.607 140.544 184.971 138.869 185.697 137.38C186.436 135.892 187.455 134.744 188.756 133.935C190.068 133.126 191.562 132.722 193.238 132.722C195.828 132.722 197.92 133.619 199.514 135.412C201.119 137.205 201.922 139.589 201.922 142.566V142.794C201.922 144.646 201.564 146.31 200.85 147.787C200.146 149.251 199.133 150.394 197.809 151.214C196.496 152.035 194.984 152.445 193.273 152.445C190.695 152.445 188.604 151.548 186.998 149.755C185.404 147.962 184.607 145.589 184.607 142.636V142.408ZM187.877 142.794C187.877 144.904 188.363 146.597 189.336 147.875C190.32 149.152 191.633 149.791 193.273 149.791C194.926 149.791 196.238 149.146 197.211 147.857C198.184 146.556 198.67 144.74 198.67 142.408C198.67 140.322 198.172 138.634 197.176 137.345C196.191 136.044 194.879 135.394 193.238 135.394C191.633 135.394 190.338 136.033 189.354 137.31C188.369 138.587 187.877 140.416 187.877 142.794Z" fill="white"/>
<path d="M217.074 147.048C217.074 146.169 216.74 145.49 216.072 145.009C215.416 144.517 214.262 144.095 212.609 143.744C210.969 143.392 209.662 142.97 208.689 142.478C207.729 141.986 207.014 141.4 206.545 140.72C206.088 140.041 205.859 139.232 205.859 138.294C205.859 136.736 206.516 135.417 207.828 134.339C209.152 133.261 210.84 132.722 212.891 132.722C215.047 132.722 216.793 133.279 218.129 134.392C219.477 135.505 220.15 136.929 220.15 138.664H216.881C216.881 137.773 216.5 137.005 215.738 136.361C214.988 135.716 214.039 135.394 212.891 135.394C211.707 135.394 210.781 135.652 210.113 136.167C209.445 136.683 209.111 137.357 209.111 138.189C209.111 138.974 209.422 139.566 210.043 139.964C210.664 140.363 211.783 140.744 213.4 141.107C215.029 141.47 216.348 141.904 217.355 142.408C218.363 142.912 219.107 143.521 219.588 144.236C220.08 144.939 220.326 145.8 220.326 146.82C220.326 148.519 219.646 149.884 218.287 150.916C216.928 151.935 215.164 152.445 212.996 152.445C211.473 152.445 210.125 152.175 208.953 151.636C207.781 151.097 206.861 150.347 206.193 149.386C205.537 148.414 205.209 147.365 205.209 146.24H208.461C208.52 147.33 208.953 148.197 209.762 148.841C210.582 149.474 211.66 149.791 212.996 149.791C214.227 149.791 215.211 149.544 215.949 149.052C216.699 148.548 217.074 147.88 217.074 147.048Z" fill="white"/>
<path d="M236.744 135.376C238.186 133.607 240.061 132.722 242.369 132.722C246.389 132.722 248.416 134.99 248.451 139.525V152.093H245.199V139.507C245.188 138.136 244.871 137.123 244.25 136.466C243.641 135.81 242.686 135.482 241.385 135.482C240.33 135.482 239.404 135.763 238.607 136.326C237.811 136.888 237.189 137.626 236.744 138.541V152.093H233.492V125.093H236.744V135.376Z" fill="white"/>
<path d="M265.062 152.093C264.875 151.718 264.723 151.05 264.605 150.089C263.094 151.66 261.289 152.445 259.191 152.445C257.316 152.445 255.775 151.917 254.568 150.863C253.373 149.796 252.775 148.449 252.775 146.82C252.775 144.839 253.525 143.304 255.025 142.214C256.537 141.113 258.658 140.562 261.389 140.562H264.553V139.068C264.553 137.931 264.213 137.029 263.533 136.361C262.854 135.681 261.852 135.341 260.527 135.341C259.367 135.341 258.395 135.634 257.609 136.22C256.824 136.806 256.432 137.515 256.432 138.347H253.162C253.162 137.398 253.496 136.484 254.164 135.605C254.844 134.714 255.758 134.011 256.906 133.496C258.066 132.98 259.338 132.722 260.721 132.722C262.912 132.722 264.629 133.273 265.871 134.375C267.113 135.464 267.758 136.97 267.805 138.892V147.646C267.805 149.392 268.027 150.781 268.473 151.812V152.093H265.062ZM259.666 149.615C260.686 149.615 261.652 149.351 262.566 148.824C263.48 148.296 264.143 147.611 264.553 146.767V142.865H262.004C258.02 142.865 256.027 144.031 256.027 146.363C256.027 147.382 256.367 148.179 257.047 148.753C257.727 149.328 258.6 149.615 259.666 149.615Z" fill="white"/>
<path d="M278.844 147.33L283.273 133.074H286.754L279.107 155.029C277.924 158.193 276.043 159.775 273.465 159.775L272.85 159.722L271.637 159.494V156.857L272.516 156.927C273.617 156.927 274.473 156.705 275.082 156.259C275.703 155.814 276.213 155 276.611 153.816L277.332 151.882L270.547 133.074H274.098L278.844 147.33Z" fill="white"/>
<path d="M293.486 144.886C293.51 143.492 293.668 142.39 293.961 141.582C294.254 140.773 294.852 139.876 295.754 138.892L298.057 136.519C299.041 135.406 299.533 134.21 299.533 132.933C299.533 131.703 299.211 130.742 298.566 130.05C297.922 129.347 296.984 128.996 295.754 128.996C294.559 128.996 293.598 129.312 292.871 129.945C292.145 130.578 291.781 131.427 291.781 132.494H288.529C288.553 130.595 289.227 129.066 290.551 127.906C291.887 126.734 293.621 126.148 295.754 126.148C297.969 126.148 299.691 126.746 300.922 127.941C302.164 129.125 302.785 130.753 302.785 132.828C302.785 134.878 301.836 136.9 299.938 138.892L298.021 140.791C297.166 141.74 296.738 143.105 296.738 144.886H293.486ZM293.346 150.458C293.346 149.931 293.504 149.492 293.82 149.14C294.148 148.777 294.629 148.595 295.262 148.595C295.895 148.595 296.375 148.777 296.703 149.14C297.031 149.492 297.195 149.931 297.195 150.458C297.195 150.986 297.031 151.425 296.703 151.777C296.375 152.117 295.895 152.287 295.262 152.287C294.629 152.287 294.148 152.117 293.82 151.777C293.504 151.425 293.346 150.986 293.346 150.458Z" fill="white"/>
</g>
</g>
<g id="claves">
<g id="Group 21">
<path id="Rectangle 4" d="M39 582H255.745L289 622L255.745 662H39V582Z" fill="#CD08D1" fill-opacity="0.1"/>
<path id="Rectangle 4 (Stroke)" fill-rule="evenodd" clip-rule="evenodd" d="M254.338 585H42V659H254.338L285.099 622L254.338 585ZM255.745 582H39V662H255.745L289 622L255.745 582Z" fill="#CD08D1"/>
<path id="Ellipse 1" d="M80 622C80 644.091 62.0914 662 40 662C17.9086 662 0 644.091 0 622C0 599.909 17.9086 582 40 582C62.0914 582 80 599.909 80 622Z" fill="#CD08D1"/>
<path id="A" d="M48.0938 632.406H30.4688L26.7812 643H18.5625L35.75 597.5H42.8438L60.0625 643H51.8125L48.0938 632.406ZM32.6875 626.031H45.875L39.2812 607.156L32.6875 626.031Z" fill="white"/>
</g>
<g id="Group 17">
<path id="Rectangle 5" d="M382 582H598.745L632 622L598.745 662H382V582Z" fill="#CD08D1" fill-opacity="0.1"/>
<path id="Rectangle 5 (Stroke)" fill-rule="evenodd" clip-rule="evenodd" d="M597.338 585H385V659H597.338L628.099 622L597.338 585ZM598.745 582H382V662H598.745L632 622L598.745 582Z" fill="#CD08D1"/>
<path id="Ellipse 2" d="M423 622C423 644.091 405.091 662 383 662C360.909 662 343 644.091 343 622C343 599.909 360.909 582 383 582C405.091 582 423 599.909 423 622Z" fill="#CD08D1"/>
<path id="B" d="M366.625 638V592.5H382.219C387.365 592.5 391.281 593.531 393.969 595.594C396.656 597.656 398 600.729 398 604.812C398 606.896 397.438 608.771 396.312 610.438C395.188 612.104 393.542 613.396 391.375 614.312C393.833 614.979 395.729 616.24 397.062 618.094C398.417 619.927 399.094 622.135 399.094 624.719C399.094 628.99 397.719 632.271 394.969 634.562C392.24 636.854 388.323 638 383.219 638H366.625ZM374.531 617.469V631.688H383.312C385.792 631.688 387.729 631.073 389.125 629.844C390.521 628.615 391.219 626.906 391.219 624.719C391.219 619.99 388.802 617.573 383.969 617.469H374.531ZM374.531 611.656H382.281C384.74 611.656 386.656 611.104 388.031 610C389.427 608.875 390.125 607.292 390.125 605.25C390.125 603 389.479 601.375 388.188 600.375C386.917 599.375 384.927 598.875 382.219 598.875H374.531V611.656Z" fill="white"/>
</g>
<g id="Group 18">
<path id="Rectangle 6" d="M740 638H956.745L990 678L956.745 718H740V638Z" fill="#CD08D1" fill-opacity="0.1"/>
<path id="Rectangle 6 (Stroke)" fill-rule="evenodd" clip-rule="evenodd" d="M955.338 641H743V715H955.338L986.099 678L955.338 641ZM956.745 638H740V718H956.745L990 678L956.745 638Z" fill="#CD08D1"/>
<path id="Ellipse 3" d="M781 678C781 700.091 763.091 718 741 718C718.909 718 701 700.091 701 678C701 655.909 718.909 638 741 638C763.091 638 781 655.909 781 678Z" fill="#CD08D1"/>
<path id="C" d="M758.344 685.188C757.885 690.042 756.094 693.833 752.969 696.562C749.844 699.271 745.688 700.625 740.5 700.625C736.875 700.625 733.677 699.771 730.906 698.062C728.156 696.333 726.031 693.885 724.531 690.719C723.031 687.552 722.25 683.875 722.188 679.688V675.438C722.188 671.146 722.948 667.365 724.469 664.094C725.99 660.823 728.167 658.302 731 656.531C733.854 654.76 737.146 653.875 740.875 653.875C745.896 653.875 749.938 655.24 753 657.969C756.062 660.698 757.844 664.552 758.344 669.531H750.469C750.094 666.26 749.135 663.906 747.594 662.469C746.073 661.01 743.833 660.281 740.875 660.281C737.438 660.281 734.792 661.542 732.938 664.062C731.104 666.562 730.167 670.24 730.125 675.094V679.125C730.125 684.042 731 687.792 732.75 690.375C734.521 692.958 737.104 694.25 740.5 694.25C743.604 694.25 745.938 693.552 747.5 692.156C749.062 690.76 750.052 688.438 750.469 685.188H758.344Z" fill="white"/>
</g>
<g id="Group 19">
<path id="Rectangle 7" d="M40 687H256.745L290 727L256.745 767H40V687Z" fill="#CD08D1" fill-opacity="0.1"/>
<path id="Rectangle 7 (Stroke)" fill-rule="evenodd" clip-rule="evenodd" d="M255.338 690H43V764H255.338L286.099 727L255.338 690ZM256.745 687H40V767H256.745L290 727L256.745 687Z" fill="#CD08D1"/>
<path id="Ellipse 4" d="M81 727C81 749.091 63.0914 767 41 767C18.9086 767 1 749.091 1 727C1 704.909 18.9086 687 41 687C63.0914 687 81 704.909 81 727Z" fill="#CD08D1"/>
<path id="D" d="M23.625 749V703.5H37.0625C41.0833 703.5 44.6458 704.396 47.75 706.188C50.875 707.979 53.2917 710.521 55 713.812C56.7083 717.104 57.5625 720.875 57.5625 725.125V727.406C57.5625 731.719 56.6979 735.51 54.9688 738.781C53.2604 742.052 50.8125 744.573 47.625 746.344C44.4583 748.115 40.8229 749 36.7188 749H23.625ZM31.5312 709.875V742.688H36.6875C40.8333 742.688 44.0104 741.396 46.2188 738.812C48.4479 736.208 49.5833 732.479 49.625 727.625V725.094C49.625 720.156 48.5521 716.385 46.4062 713.781C44.2604 711.177 41.1458 709.875 37.0625 709.875H31.5312Z" fill="white"/>
</g>
<g id="Group 20">
<path id="Rectangle 8" d="M382 687H598.745L632 727L598.745 767H382V687Z" fill="#CD08D1" fill-opacity="0.1"/>
<path id="Rectangle 8 (Stroke)" fill-rule="evenodd" clip-rule="evenodd" d="M597.338 690H385V764H597.338L628.099 727L597.338 690ZM598.745 687H382V767H598.745L632 727L598.745 687Z" fill="#CD08D1"/>
<path id="Ellipse 5" d="M423 727C423 749.091 405.091 767 383 767C360.909 767 343 749.091 343 727C343 704.909 360.909 687 383 687C405.091 687 423 704.909 423 727Z" fill="#CD08D1"/>
<path id="E" d="M392.219 728.688H373.531V742.688H395.375V749H365.625V703.5H395.156V709.875H373.531V722.438H392.219V728.688Z" fill="white"/>
</g>
<g id="flecha">
<path id="Rectangle 2" d="M391.2 579.008L406.482 587.133L364.5 666.089L349.219 657.963L391.2 579.008Z" fill="#1043F5"/>
<path id="Rectangle 1_2" d="M333 591.904L423 542V599.692L378 582.096L333 591.904Z" fill="#1043F5"/>
<path id="Rectangle 3" d="M337.038 661.21L352.665 634.143L369.936 633.565L354.309 660.632L337.038 661.21Z" fill="#1043F5"/>
<path id="Rectangle 4_2" d="M363.09 675.845L378.717 648.778L369.926 633.154L354.299 660.221L363.09 675.845Z" fill="#1043F5"/>
</g>
<g id="330 335 340 345 350">
<path d="M137.785 618.621H140.229C141.764 618.598 142.971 618.193 143.85 617.408C144.729 616.623 145.168 615.562 145.168 614.227C145.168 611.227 143.674 609.727 140.686 609.727C139.279 609.727 138.154 610.131 137.311 610.939C136.479 611.736 136.062 612.797 136.062 614.121H132.811C132.811 612.094 133.549 610.412 135.025 609.076C136.514 607.729 138.4 607.055 140.686 607.055C143.1 607.055 144.992 607.693 146.363 608.971C147.734 610.248 148.42 612.023 148.42 614.297C148.42 615.41 148.057 616.488 147.33 617.531C146.615 618.574 145.637 619.354 144.395 619.869C145.801 620.314 146.885 621.053 147.646 622.084C148.42 623.115 148.807 624.375 148.807 625.863C148.807 628.16 148.057 629.982 146.557 631.33C145.057 632.678 143.105 633.352 140.703 633.352C138.301 633.352 136.344 632.701 134.832 631.4C133.332 630.1 132.582 628.383 132.582 626.25H135.852C135.852 627.598 136.291 628.676 137.17 629.484C138.049 630.293 139.227 630.697 140.703 630.697C142.273 630.697 143.475 630.287 144.307 629.467C145.139 628.646 145.555 627.469 145.555 625.934C145.555 624.445 145.098 623.303 144.184 622.506C143.27 621.709 141.951 621.299 140.229 621.275H137.785V618.621Z" fill="#CD08D1"/>
<path d="M158 618.621H160.443C161.979 618.598 163.186 618.193 164.064 617.408C164.943 616.623 165.383 615.562 165.383 614.227C165.383 611.227 163.889 609.727 160.9 609.727C159.494 609.727 158.369 610.131 157.525 610.939C156.693 611.736 156.277 612.797 156.277 614.121H153.025C153.025 612.094 153.764 610.412 155.24 609.076C156.729 607.729 158.615 607.055 160.9 607.055C163.314 607.055 165.207 607.693 166.578 608.971C167.949 610.248 168.635 612.023 168.635 614.297C168.635 615.41 168.271 616.488 167.545 617.531C166.83 618.574 165.852 619.354 164.609 619.869C166.016 620.314 167.1 621.053 167.861 622.084C168.635 623.115 169.021 624.375 169.021 625.863C169.021 628.16 168.271 629.982 166.771 631.33C165.271 632.678 163.32 633.352 160.918 633.352C158.516 633.352 156.559 632.701 155.047 631.4C153.547 630.1 152.797 628.383 152.797 626.25H156.066C156.066 627.598 156.506 628.676 157.385 629.484C158.264 630.293 159.441 630.697 160.918 630.697C162.488 630.697 163.689 630.287 164.521 629.467C165.354 628.646 165.77 627.469 165.77 625.934C165.77 624.445 165.312 623.303 164.398 622.506C163.484 621.709 162.166 621.299 160.443 621.275H158V618.621Z" fill="#CD08D1"/>
<path d="M189.535 622.084C189.535 625.893 188.885 628.723 187.584 630.574C186.283 632.426 184.25 633.352 181.484 633.352C178.754 633.352 176.732 632.449 175.42 630.645C174.107 628.828 173.428 626.121 173.381 622.523V618.182C173.381 614.42 174.031 611.625 175.332 609.797C176.633 607.969 178.672 607.055 181.449 607.055C184.203 607.055 186.23 607.939 187.531 609.709C188.832 611.467 189.5 614.186 189.535 617.865V622.084ZM186.283 617.637C186.283 614.883 185.896 612.879 185.123 611.625C184.35 610.359 183.125 609.727 181.449 609.727C179.785 609.727 178.572 610.354 177.811 611.607C177.049 612.861 176.656 614.789 176.633 617.391V622.594C176.633 625.359 177.031 627.404 177.828 628.729C178.637 630.041 179.855 630.697 181.484 630.697C183.09 630.697 184.279 630.076 185.053 628.834C185.838 627.592 186.248 625.635 186.283 622.963V617.637Z" fill="#CD08D1"/>
<path d="M466.32 618.621H468.764C470.299 618.598 471.506 618.193 472.385 617.408C473.264 616.623 473.703 615.562 473.703 614.227C473.703 611.227 472.209 609.727 469.221 609.727C467.814 609.727 466.689 610.131 465.846 610.939C465.014 611.736 464.598 612.797 464.598 614.121H461.346C461.346 612.094 462.084 610.412 463.561 609.076C465.049 607.729 466.936 607.055 469.221 607.055C471.635 607.055 473.527 607.693 474.898 608.971C476.27 610.248 476.955 612.023 476.955 614.297C476.955 615.41 476.592 616.488 475.865 617.531C475.15 618.574 474.172 619.354 472.93 619.869C474.336 620.314 475.42 621.053 476.182 622.084C476.955 623.115 477.342 624.375 477.342 625.863C477.342 628.16 476.592 629.982 475.092 631.33C473.592 632.678 471.641 633.352 469.238 633.352C466.836 633.352 464.879 632.701 463.367 631.4C461.867 630.1 461.117 628.383 461.117 626.25H464.387C464.387 627.598 464.826 628.676 465.705 629.484C466.584 630.293 467.762 630.697 469.238 630.697C470.809 630.697 472.01 630.287 472.842 629.467C473.674 628.646 474.09 627.469 474.09 625.934C474.09 624.445 473.633 623.303 472.719 622.506C471.805 621.709 470.486 621.299 468.764 621.275H466.32V618.621Z" fill="#CD08D1"/>
<path d="M486.535 618.621H488.979C490.514 618.598 491.721 618.193 492.6 617.408C493.479 616.623 493.918 615.562 493.918 614.227C493.918 611.227 492.424 609.727 489.436 609.727C488.029 609.727 486.904 610.131 486.061 610.939C485.229 611.736 484.812 612.797 484.812 614.121H481.561C481.561 612.094 482.299 610.412 483.775 609.076C485.264 607.729 487.15 607.055 489.436 607.055C491.85 607.055 493.742 607.693 495.113 608.971C496.484 610.248 497.17 612.023 497.17 614.297C497.17 615.41 496.807 616.488 496.08 617.531C495.365 618.574 494.387 619.354 493.145 619.869C494.551 620.314 495.635 621.053 496.396 622.084C497.17 623.115 497.557 624.375 497.557 625.863C497.557 628.16 496.807 629.982 495.307 631.33C493.807 632.678 491.855 633.352 489.453 633.352C487.051 633.352 485.094 632.701 483.582 631.4C482.082 630.1 481.332 628.383 481.332 626.25H484.602C484.602 627.598 485.041 628.676 485.92 629.484C486.799 630.293 487.977 630.697 489.453 630.697C491.023 630.697 492.225 630.287 493.057 629.467C493.889 628.646 494.305 627.469 494.305 625.934C494.305 624.445 493.848 623.303 492.934 622.506C492.02 621.709 490.701 621.299 488.979 621.275H486.535V618.621Z" fill="#CD08D1"/>
<path d="M503.516 620.168L504.816 607.406H517.93V610.412H507.576L506.803 617.391C508.057 616.652 509.48 616.283 511.074 616.283C513.406 616.283 515.258 617.057 516.629 618.604C518 620.139 518.686 622.219 518.686 624.844C518.686 627.48 517.971 629.561 516.541 631.084C515.123 632.596 513.137 633.352 510.582 633.352C508.32 633.352 506.475 632.725 505.045 631.471C503.615 630.217 502.801 628.482 502.602 626.268H505.678C505.877 627.732 506.398 628.84 507.242 629.59C508.086 630.328 509.199 630.697 510.582 630.697C512.094 630.697 513.277 630.182 514.133 629.15C515 628.119 515.434 626.695 515.434 624.879C515.434 623.168 514.965 621.797 514.027 620.766C513.102 619.723 511.865 619.201 510.318 619.201C508.9 619.201 507.787 619.512 506.979 620.133L506.117 620.836L503.516 620.168Z" fill="#CD08D1"/>
<path d="M807.512 673.621H809.955C811.49 673.598 812.697 673.193 813.576 672.408C814.455 671.623 814.895 670.562 814.895 669.227C814.895 666.227 813.4 664.727 810.412 664.727C809.006 664.727 807.881 665.131 807.037 665.939C806.205 666.736 805.789 667.797 805.789 669.121H802.537C802.537 667.094 803.275 665.412 804.752 664.076C806.24 662.729 808.127 662.055 810.412 662.055C812.826 662.055 814.719 662.693 816.09 663.971C817.461 665.248 818.146 667.023 818.146 669.297C818.146 670.41 817.783 671.488 817.057 672.531C816.342 673.574 815.363 674.354 814.121 674.869C815.527 675.314 816.611 676.053 817.373 677.084C818.146 678.115 818.533 679.375 818.533 680.863C818.533 683.16 817.783 684.982 816.283 686.33C814.783 687.678 812.832 688.352 810.43 688.352C808.027 688.352 806.07 687.701 804.559 686.4C803.059 685.1 802.309 683.383 802.309 681.25H805.578C805.578 682.598 806.018 683.676 806.896 684.484C807.775 685.293 808.953 685.697 810.43 685.697C812 685.697 813.201 685.287 814.033 684.467C814.865 683.646 815.281 682.469 815.281 680.934C815.281 679.445 814.824 678.303 813.91 677.506C812.996 676.709 811.678 676.299 809.955 676.275H807.512V673.621Z" fill="#CD08D1"/>
<path d="M836.727 679.404H840.277V682.059H836.727V688H833.457V682.059H821.803V680.143L833.264 662.406H836.727V679.404ZM825.494 679.404H833.457V666.854L833.07 667.557L825.494 679.404Z" fill="#CD08D1"/>
<path d="M859.262 677.084C859.262 680.893 858.611 683.723 857.311 685.574C856.01 687.426 853.977 688.352 851.211 688.352C848.48 688.352 846.459 687.449 845.146 685.645C843.834 683.828 843.154 681.121 843.107 677.523V673.182C843.107 669.42 843.758 666.625 845.059 664.797C846.359 662.969 848.398 662.055 851.176 662.055C853.93 662.055 855.957 662.939 857.258 664.709C858.559 666.467 859.227 669.186 859.262 672.865V677.084ZM856.01 672.637C856.01 669.883 855.623 667.879 854.85 666.625C854.076 665.359 852.852 664.727 851.176 664.727C849.512 664.727 848.299 665.354 847.537 666.607C846.775 667.861 846.383 669.789 846.359 672.391V677.594C846.359 680.359 846.758 682.404 847.555 683.729C848.363 685.041 849.582 685.697 851.211 685.697C852.816 685.697 854.006 685.076 854.779 683.834C855.564 682.592 855.975 680.635 856.01 677.963V672.637Z" fill="#CD08D1"/>
<path d="M137.785 728.621H140.229C141.764 728.598 142.971 728.193 143.85 727.408C144.729 726.623 145.168 725.562 145.168 724.227C145.168 721.227 143.674 719.727 140.686 719.727C139.279 719.727 138.154 720.131 137.311 720.939C136.479 721.736 136.062 722.797 136.062 724.121H132.811C132.811 722.094 133.549 720.412 135.025 719.076C136.514 717.729 138.4 717.055 140.686 717.055C143.1 717.055 144.992 717.693 146.363 718.971C147.734 720.248 148.42 722.023 148.42 724.297C148.42 725.41 148.057 726.488 147.33 727.531C146.615 728.574 145.637 729.354 144.395 729.869C145.801 730.314 146.885 731.053 147.646 732.084C148.42 733.115 148.807 734.375 148.807 735.863C148.807 738.16 148.057 739.982 146.557 741.33C145.057 742.678 143.105 743.352 140.703 743.352C138.301 743.352 136.344 742.701 134.832 741.4C133.332 740.1 132.582 738.383 132.582 736.25H135.852C135.852 737.598 136.291 738.676 137.17 739.484C138.049 740.293 139.227 740.697 140.703 740.697C142.273 740.697 143.475 740.287 144.307 739.467C145.139 738.646 145.555 737.469 145.555 735.934C145.555 734.445 145.098 733.303 144.184 732.506C143.27 731.709 141.951 731.299 140.229 731.275H137.785V728.621Z" fill="#CD08D1"/>
<path d="M167 734.404H170.551V737.059H167V743H163.73V737.059H152.076V735.143L163.537 717.406H167V734.404ZM155.768 734.404H163.73V721.854L163.344 722.557L155.768 734.404Z" fill="#CD08D1"/>
<path d="M174.98 730.168L176.281 717.406H189.395V720.412H179.041L178.268 727.391C179.521 726.652 180.945 726.283 182.539 726.283C184.871 726.283 186.723 727.057 188.094 728.604C189.465 730.139 190.15 732.219 190.15 734.844C190.15 737.48 189.436 739.561 188.006 741.084C186.588 742.596 184.602 743.352 182.047 743.352C179.785 743.352 177.939 742.725 176.51 741.471C175.08 740.217 174.266 738.482 174.066 736.268H177.143C177.342 737.732 177.863 738.84 178.707 739.59C179.551 740.328 180.664 740.697 182.047 740.697C183.559 740.697 184.742 740.182 185.598 739.15C186.465 738.119 186.898 736.695 186.898 734.879C186.898 733.168 186.43 731.797 185.492 730.766C184.566 729.723 183.33 729.201 181.783 729.201C180.365 729.201 179.252 729.512 178.443 730.133L177.582 730.836L174.98 730.168Z" fill="#CD08D1"/>
<path d="M466.32 728.621H468.764C470.299 728.598 471.506 728.193 472.385 727.408C473.264 726.623 473.703 725.562 473.703 724.227C473.703 721.227 472.209 719.727 469.221 719.727C467.814 719.727 466.689 720.131 465.846 720.939C465.014 721.736 464.598 722.797 464.598 724.121H461.346C461.346 722.094 462.084 720.412 463.561 719.076C465.049 717.729 466.936 717.055 469.221 717.055C471.635 717.055 473.527 717.693 474.898 718.971C476.27 720.248 476.955 722.023 476.955 724.297C476.955 725.41 476.592 726.488 475.865 727.531C475.15 728.574 474.172 729.354 472.93 729.869C474.336 730.314 475.42 731.053 476.182 732.084C476.955 733.115 477.342 734.375 477.342 735.863C477.342 738.16 476.592 739.982 475.092 741.33C473.592 742.678 471.641 743.352 469.238 743.352C466.836 743.352 464.879 742.701 463.367 741.4C461.867 740.1 461.117 738.383 461.117 736.25H464.387C464.387 737.598 464.826 738.676 465.705 739.484C466.584 740.293 467.762 740.697 469.238 740.697C470.809 740.697 472.01 740.287 472.842 739.467C473.674 738.646 474.09 737.469 474.09 735.934C474.09 734.445 473.633 733.303 472.719 732.506C471.805 731.709 470.486 731.299 468.764 731.275H466.32V728.621Z" fill="#CD08D1"/>
<path d="M483.301 730.168L484.602 717.406H497.715V720.412H487.361L486.588 727.391C487.842 726.652 489.266 726.283 490.859 726.283C493.191 726.283 495.043 727.057 496.414 728.604C497.785 730.139 498.471 732.219 498.471 734.844C498.471 737.48 497.756 739.561 496.326 741.084C494.908 742.596 492.922 743.352 490.367 743.352C488.105 743.352 486.26 742.725 484.83 741.471C483.4 740.217 482.586 738.482 482.387 736.268H485.463C485.662 737.732 486.184 738.84 487.027 739.59C487.871 740.328 488.984 740.697 490.367 740.697C491.879 740.697 493.062 740.182 493.918 739.15C494.785 738.119 495.219 736.695 495.219 734.879C495.219 733.168 494.75 731.797 493.812 730.766C492.887 729.723 491.65 729.201 490.104 729.201C488.686 729.201 487.572 729.512 486.764 730.133L485.902 730.836L483.301 730.168Z" fill="#CD08D1"/>
<path d="M518.07 732.084C518.07 735.893 517.42 738.723 516.119 740.574C514.818 742.426 512.785 743.352 510.02 743.352C507.289 743.352 505.268 742.449 503.955 740.645C502.643 738.828 501.963 736.121 501.916 732.523V728.182C501.916 724.42 502.566 721.625 503.867 719.797C505.168 717.969 507.207 717.055 509.984 717.055C512.738 717.055 514.766 717.939 516.066 719.709C517.367 721.467 518.035 724.186 518.07 727.865V732.084ZM514.818 727.637C514.818 724.883 514.432 722.879 513.658 721.625C512.885 720.359 511.66 719.727 509.984 719.727C508.32 719.727 507.107 720.354 506.346 721.607C505.584 722.861 505.191 724.789 505.168 727.391V732.594C505.168 735.359 505.566 737.404 506.363 738.729C507.172 740.041 508.391 740.697 510.02 740.697C511.625 740.697 512.814 740.076 513.588 738.834C514.373 737.592 514.783 735.635 514.818 732.963V727.637Z" fill="#CD08D1"/>
</g>
</g>
<g id="Group 208">
<path id="Rectangle 98 (Stroke)" fill-rule="evenodd" clip-rule="evenodd" d="M656.005 222H314.005V464H656.005V222ZM310.005 218V468H660.005V218H310.005Z" fill="white"/>
<path id="Line 115 (Stroke)" fill-rule="evenodd" clip-rule="evenodd" d="M660.005 268H310.005V265H660.005V268Z" fill="white"/>
<path id="Line 117 (Stroke)" fill-rule="evenodd" clip-rule="evenodd" d="M660.005 315.5H310.004V312.5H660.005V315.5Z" fill="white"/>
<path id="Line 118 (Stroke)" fill-rule="evenodd" clip-rule="evenodd" d="M655.005 368H310.005V365H655.005V368Z" fill="white"/>
<path id="Line 120 (Stroke)" fill-rule="evenodd" clip-rule="evenodd" d="M660.006 416.599H310V413.599H660.006V416.599Z" fill="white"/>
<path id="Line 121 (Stroke)" fill-rule="evenodd" clip-rule="evenodd" d="M363.902 468L365.005 222L368.005 222.013L366.902 468.013L363.902 468Z" fill="white"/>
<path id="Line 122 (Stroke)" fill-rule="evenodd" clip-rule="evenodd" d="M414.005 468L415.108 222L418.108 222.013L417.005 468.013L414.005 468Z" fill="white"/>
<path id="Line 123 (Stroke)" fill-rule="evenodd" clip-rule="evenodd" d="M464.005 468L465.108 222L468.108 222.013L467.005 468.013L464.005 468Z" fill="white"/>
<path id="Line 124 (Stroke)" fill-rule="evenodd" clip-rule="evenodd" d="M514.005 466L515.108 220L518.108 220.013L517.005 466.013L514.005 466Z" fill="white"/>
<path id="Line 125 (Stroke)" fill-rule="evenodd" clip-rule="evenodd" d="M564.005 464L565.108 218L568.108 218.013L567.005 464.013L564.005 464Z" fill="white"/>
<path id="Line 126 (Stroke)" fill-rule="evenodd" clip-rule="evenodd" d="M614.005 464L615.108 218L618.108 218.013L617.005 464.013L614.005 464Z" fill="white"/>
</g>
</g>
</svg>
