<svg viewBox="0 0 905 367" fill="none" xmlns="http://www.w3.org/2000/svg">
<g id="0127219">
<g id="Group 289">
<g id="Group 278">
<path id="Ellipse 25 (Stroke)" fill-rule="evenodd" clip-rule="evenodd" d="M70 180C105.899 180 135 150.899 135 115C135 79.1015 105.899 50 70 50C34.1015 50 5 79.1015 5 115C5 150.899 34.1015 180 70 180ZM70 185C108.66 185 140 153.66 140 115C140 76.3401 108.66 45 70 45C31.3401 45 0 76.3401 0 115C0 153.66 31.3401 185 70 185Z" fill="white"/>
<path id="Ellipse 26 (Stroke)" fill-rule="evenodd" clip-rule="evenodd" d="M70 165C97.6142 165 120 142.614 120 115C120 87.3858 97.6142 65 70 65C42.3858 65 20 87.3858 20 115C20 142.614 42.3858 165 70 165ZM70 170C100.376 170 125 145.376 125 115C125 84.6243 100.376 60 70 60C39.6243 60 15 84.6243 15 115C15 145.376 39.6243 170 70 170Z" fill="white"/>
<path id="Line 132 (Stroke)" fill-rule="evenodd" clip-rule="evenodd" d="M70 185L70 45H73L73 185H70Z" fill="white"/>
<path id="Line 133 (Stroke)" fill-rule="evenodd" clip-rule="evenodd" d="M140 115H0L0 112H140V115Z" fill="white"/>
<path id="Ellipse 27" d="M59 93C59 98.5228 54.5228 103 49 103C43.4772 103 39 98.5228 39 93C39 87.4772 43.4772 83 49 83C54.5228 83 59 87.4772 59 93Z" fill="white"/>
<path id="Ellipse 28 (Stroke)" fill-rule="evenodd" clip-rule="evenodd" d="M49 145C53.4183 145 57 141.418 57 137C57 132.582 53.4183 129 49 129C44.5817 129 41 132.582 41 137C41 141.418 44.5817 145 49 145ZM49 147C54.5228 147 59 142.523 59 137C59 131.477 54.5228 127 49 127C43.4772 127 39 131.477 39 137C39 142.523 43.4772 147 49 147Z" fill="white"/>
<path id="Ellipse 29" d="M140 115C140 105.807 138.189 96.705 134.672 88.2122C131.154 79.7194 125.998 72.0026 119.497 65.5025C112.997 59.0024 105.281 53.8463 96.7878 50.3284C88.295 46.8106 79.1925 45 70 45V62.5953C76.8819 62.5953 83.6964 63.9508 90.0544 66.5844C96.4124 69.218 102.189 73.0781 107.056 77.9443C111.922 82.8105 115.782 88.5876 118.416 94.9456C121.049 101.304 122.405 108.118 122.405 115H140Z" fill="white"/>
</g>
<g id="Group 279">
<path id="Ellipse 25 (Stroke)_2" fill-rule="evenodd" clip-rule="evenodd" d="M285 180C320.899 180 350 150.899 350 115C350 79.1015 320.899 50 285 50C249.101 50 220 79.1015 220 115C220 150.899 249.101 180 285 180ZM285 185C323.66 185 355 153.66 355 115C355 76.3401 323.66 45 285 45C246.34 45 215 76.3401 215 115C215 153.66 246.34 185 285 185Z" fill="white"/>
<path id="Ellipse 26 (Stroke)_2" fill-rule="evenodd" clip-rule="evenodd" d="M285 165C312.614 165 335 142.614 335 115C335 87.3858 312.614 65 285 65C257.386 65 235 87.3858 235 115C235 142.614 257.386 165 285 165ZM285 170C315.376 170 340 145.376 340 115C340 84.6243 315.376 60 285 60C254.624 60 230 84.6243 230 115C230 145.376 254.624 170 285 170Z" fill="white"/>
<path id="Line 132 (Stroke)_2" fill-rule="evenodd" clip-rule="evenodd" d="M285 185V45H288V185H285Z" fill="white"/>
<path id="Line 133 (Stroke)_2" fill-rule="evenodd" clip-rule="evenodd" d="M355 115H215V112H355V115Z" fill="white"/>
<path id="Ellipse 27_2" d="M319 137C319 142.523 314.523 147 309 147C303.477 147 299 142.523 299 137C299 131.477 303.477 127 309 127C314.523 127 319 131.477 319 137Z" fill="white"/>
<path id="Ellipse 28 (Stroke)_2" fill-rule="evenodd" clip-rule="evenodd" d="M309 145C313.418 145 317 141.418 317 137C317 132.582 313.418 129 309 129C304.582 129 301 132.582 301 137C301 141.418 304.582 145 309 145ZM309 147C314.523 147 319 142.523 319 137C319 131.477 314.523 127 309 127C303.477 127 299 131.477 299 137C299 142.523 303.477 147 309 147Z" fill="white"/>
<path id="Ellipse 29_2" d="M285 185C294.193 185 303.295 183.189 311.788 179.672C320.281 176.154 327.997 170.998 334.497 164.497C340.998 157.997 346.154 150.281 349.672 141.788C353.189 133.295 355 124.193 355 115H337.405C337.405 121.882 336.049 128.696 333.416 135.054C330.782 141.412 326.922 147.189 322.056 152.056C317.189 156.922 311.412 160.782 305.054 163.416C298.696 166.049 291.882 167.405 285 167.405V185Z" fill="white"/>
</g>
<g id="Group 280">
<path id="Ellipse 25 (Stroke)_3" fill-rule="evenodd" clip-rule="evenodd" d="M500 180C535.899 180 565 150.899 565 115C565 79.1015 535.899 50 500 50C464.101 50 435 79.1015 435 115C435 150.899 464.101 180 500 180ZM500 185C538.66 185 570 153.66 570 115C570 76.3401 538.66 45 500 45C461.34 45 430 76.3401 430 115C430 153.66 461.34 185 500 185Z" fill="white"/>
<path id="Ellipse 26 (Stroke)_3" fill-rule="evenodd" clip-rule="evenodd" d="M500 165C527.614 165 550 142.614 550 115C550 87.3858 527.614 65 500 65C472.386 65 450 87.3858 450 115C450 142.614 472.386 165 500 165ZM500 170C530.376 170 555 145.376 555 115C555 84.6243 530.376 60 500 60C469.624 60 445 84.6243 445 115C445 145.376 469.624 170 500 170Z" fill="white"/>
<path id="Line 132 (Stroke)_3" fill-rule="evenodd" clip-rule="evenodd" d="M500 185V45H503V185H500Z" fill="white"/>
<path id="Line 133 (Stroke)_3" fill-rule="evenodd" clip-rule="evenodd" d="M570 115H430V112H570V115Z" fill="white"/>
<path id="Ellipse 27_3" d="M492 93C492 98.5228 487.523 103 482 103C476.477 103 472 98.5228 472 93C472 87.4772 476.477 83 482 83C487.523 83 492 87.4772 492 93Z" fill="white"/>
<path id="Ellipse 28 (Stroke)_3" fill-rule="evenodd" clip-rule="evenodd" d="M523 101C527.418 101 531 97.4183 531 93C531 88.5817 527.418 85 523 85C518.582 85 515 88.5817 515 93C515 97.4183 518.582 101 523 101ZM523 103C528.523 103 533 98.5228 533 93C533 87.4772 528.523 83 523 83C517.477 83 513 87.4772 513 93C513 98.5228 517.477 103 523 103Z" fill="white"/>
<path id="Ellipse 29_3" d="M500 45C490.807 45 481.705 46.8106 473.212 50.3284C464.719 53.8463 457.003 59.0024 450.503 65.5025C444.002 72.0026 438.846 79.7194 435.328 88.2122C431.811 96.705 430 105.807 430 115H447.595C447.595 108.118 448.951 101.304 451.584 94.9456C454.218 88.5876 458.078 82.8105 462.944 77.9443C467.811 73.0781 473.588 69.218 479.946 66.5844C486.304 63.9508 493.118 62.5953 500 62.5953V45Z" fill="white"/>
</g>
<g id="Group 281">
<path id="Ellipse 25 (Stroke)_4" fill-rule="evenodd" clip-rule="evenodd" d="M728 180C763.899 180 793 150.899 793 115C793 79.1015 763.899 50 728 50C692.101 50 663 79.1015 663 115C663 150.899 692.101 180 728 180ZM728 185C766.66 185 798 153.66 798 115C798 76.3401 766.66 45 728 45C689.34 45 658 76.3401 658 115C658 153.66 689.34 185 728 185Z" fill="white"/>
<path id="Ellipse 26 (Stroke)_4" fill-rule="evenodd" clip-rule="evenodd" d="M728 165C755.614 165 778 142.614 778 115C778 87.3858 755.614 65 728 65C700.386 65 678 87.3858 678 115C678 142.614 700.386 165 728 165ZM728 170C758.376 170 783 145.376 783 115C783 84.6243 758.376 60 728 60C697.624 60 673 84.6243 673 115C673 145.376 697.624 170 728 170Z" fill="white"/>
<path id="Line 132 (Stroke)_4" fill-rule="evenodd" clip-rule="evenodd" d="M728 185V45H731V185H728Z" fill="white"/>
<path id="Line 133 (Stroke)_4" fill-rule="evenodd" clip-rule="evenodd" d="M798 115H658V112H798V115Z" fill="white"/>
<path id="Ellipse 27_4" d="M761 137C761 142.523 756.523 147 751 147C745.477 147 741 142.523 741 137C741 131.477 745.477 127 751 127C756.523 127 761 131.477 761 137Z" fill="white"/>
<path id="Ellipse 28 (Stroke)_4" fill-rule="evenodd" clip-rule="evenodd" d="M708 101C712.418 101 716 97.4183 716 93C716 88.5817 712.418 85 708 85C703.582 85 700 88.5817 700 93C700 97.4183 703.582 101 708 101ZM708 103C713.523 103 718 98.5228 718 93C718 87.4772 713.523 83 708 83C702.477 83 698 87.4772 698 93C698 98.5228 702.477 103 708 103Z" fill="white"/>
<path id="Ellipse 29_4" d="M658 115C658 124.193 659.811 133.295 663.328 141.788C666.846 150.281 672.002 157.997 678.503 164.497C685.003 170.998 692.719 176.154 701.212 179.672C709.705 183.189 718.807 185 728 185V167.405C721.118 167.405 714.304 166.049 707.946 163.416C701.588 160.782 695.811 156.922 690.944 152.056C686.078 147.189 682.218 141.412 679.584 135.054C676.951 128.696 675.595 121.882 675.595 115L658 115Z" fill="white"/>
</g>
</g>
<g id="Group 291">
<path id="1" d="M72.8145 26H69.5449V4.32617L62.9883 6.73438V3.78125L72.3047 0.283203H72.8145V26Z" fill="white"/>
<path id="2" d="M292.896 26H276.127V23.6621L284.986 13.8184C286.299 12.3301 287.201 11.123 287.693 10.1973C288.197 9.25977 288.449 8.29297 288.449 7.29688C288.449 5.96094 288.045 4.86523 287.236 4.00977C286.428 3.1543 285.35 2.72656 284.002 2.72656C282.385 2.72656 281.125 3.18945 280.223 4.11523C279.332 5.0293 278.887 6.30664 278.887 7.94727H275.635C275.635 5.5918 276.391 3.6875 277.902 2.23438C279.426 0.78125 281.459 0.0546875 284.002 0.0546875C286.381 0.0546875 288.262 0.681641 289.645 1.93555C291.027 3.17773 291.719 4.83594 291.719 6.91016C291.719 9.42969 290.113 12.4297 286.902 15.9102L280.047 23.3457H292.896V26Z" fill="white"/>
<path id="3" d="M495.855 11.6211H498.299C499.834 11.5977 501.041 11.1934 501.92 10.4082C502.799 9.62305 503.238 8.5625 503.238 7.22656C503.238 4.22656 501.744 2.72656 498.756 2.72656C497.35 2.72656 496.225 3.13086 495.381 3.93945C494.549 4.73633 494.133 5.79688 494.133 7.12109H490.881C490.881 5.09375 491.619 3.41211 493.096 2.07617C494.584 0.728516 496.471 0.0546875 498.756 0.0546875C501.17 0.0546875 503.062 0.693359 504.434 1.9707C505.805 3.24805 506.49 5.02344 506.49 7.29688C506.49 8.41016 506.127 9.48828 505.4 10.5312C504.686 11.5742 503.707 12.3535 502.465 12.8691C503.871 13.3145 504.955 14.0527 505.717 15.084C506.49 16.1152 506.877 17.375 506.877 18.8633C506.877 21.1602 506.127 22.9824 504.627 24.3301C503.127 25.6777 501.176 26.3516 498.773 26.3516C496.371 26.3516 494.414 25.7012 492.902 24.4004C491.402 23.0996 490.652 21.3828 490.652 19.25H493.922C493.922 20.5977 494.361 21.6758 495.24 22.4844C496.119 23.293 497.297 23.6973 498.773 23.6973C500.344 23.6973 501.545 23.2871 502.377 22.4668C503.209 21.6465 503.625 20.4688 503.625 18.9336C503.625 17.4453 503.168 16.3027 502.254 15.5059C501.34 14.709 500.021 14.2988 498.299 14.2754H495.855V11.6211Z" fill="white"/>
<path id="4" d="M733.855 22.4043H737.406V25.0586H733.855V31H730.586V25.0586H718.932V23.1426L730.393 5.40625H733.855V22.4043ZM722.623 22.4043H730.586V9.85352L730.199 10.5566L722.623 22.4043Z" fill="white"/>
</g>
<g id="Group 290">
<path id="Arrow 12 (Stroke)" fill-rule="evenodd" clip-rule="evenodd" d="M86.6375 116.637L86.6375 130.137C86.6375 130.966 85.9659 131.637 85.1375 131.637L71.6375 131.637C70.8091 131.637 70.1375 130.966 70.1375 130.137C70.1375 129.309 70.8091 128.637 71.6375 128.637L81.5162 128.637L54.8023 101.924L56.9236 99.8022L83.6375 126.516L83.6375 116.637C83.6375 115.809 84.3091 115.137 85.1375 115.137C85.9659 115.137 86.6375 115.809 86.6375 116.637Z" fill="#E79720"/>
<path id="Arrow 13 (Stroke)" fill-rule="evenodd" clip-rule="evenodd" d="M269.363 108.362L269.363 94.8623C269.363 94.0339 270.035 93.3623 270.863 93.3623L284.363 93.3623C285.191 93.3623 285.863 94.0339 285.863 94.8623C285.863 95.6907 285.191 96.3623 284.363 96.3623L274.484 96.3623L301.198 123.076L299.077 125.198L272.363 98.4836L272.363 108.362C272.363 109.191 271.691 109.862 270.863 109.862C270.035 109.862 269.363 109.191 269.363 108.362Z" fill="#E79720"/>
<path id="Arrow 14 (Stroke)" fill-rule="evenodd" clip-rule="evenodd" d="M522.775 118.775L522.775 132.275C522.775 133.103 522.103 133.775 521.275 133.775L507.775 133.775C506.946 133.775 506.275 133.103 506.275 132.275C506.275 131.446 506.946 130.775 507.775 130.775L517.653 130.775L490.939 104.061L493.061 101.939L519.775 128.653L519.775 118.775C519.775 117.946 520.446 117.275 521.275 117.275C522.103 117.275 522.775 117.946 522.775 118.775Z" fill="#E79720"/>
<path id="Arrow 15 (Stroke)" fill-rule="evenodd" clip-rule="evenodd" d="M720.5 116.5L720.5 103C720.5 102.172 721.172 101.5 722 101.5L735.5 101.5C736.329 101.5 737 102.172 737 103C737 103.828 736.329 104.5 735.5 104.5L725.622 104.5L752.335 131.214L750.214 133.335L723.5 106.621L723.5 116.5C723.5 117.328 722.829 118 722 118C721.172 118 720.5 117.328 720.5 116.5Z" fill="#E79720"/>
</g>
<g id="Group 295">
<path id="Arrow 16 (Stroke)" fill-rule="evenodd" clip-rule="evenodd" d="M86.3505 130.429L92.7145 136.793C93.105 137.183 93.105 137.817 92.7145 138.207L86.3505 144.571C85.96 144.962 85.3268 144.962 84.9363 144.571C84.5458 144.18 84.5458 143.547 84.9363 143.157L89.5932 138.5H57.9927V136.5H89.5932L84.9363 131.843C84.5458 131.453 84.5458 130.819 84.9363 130.429C85.3268 130.038 85.96 130.038 86.3505 130.429Z" fill="#13EBF9"/>
<path id="Arrow 17 (Stroke)" fill-rule="evenodd" clip-rule="evenodd" d="M301.929 97.6568L308.293 91.2928C308.683 90.9023 309.317 90.9023 309.707 91.2928L316.071 97.6568C316.462 98.0473 316.462 98.6805 316.071 99.071C315.68 99.4615 315.047 99.4615 314.657 99.071L310 94.4142V126.015H308V94.4142L303.343 99.071C302.953 99.4615 302.319 99.4615 301.929 99.071C301.538 98.6805 301.538 98.0473 301.929 97.6568Z" fill="#13EBF9"/>
<path id="Arrow 18 (Stroke)" fill-rule="evenodd" clip-rule="evenodd" d="M481.657 99.0711L475.293 92.7072C474.902 92.3166 474.902 91.6835 475.293 91.2929L481.657 84.929C482.047 84.5385 482.68 84.5385 483.071 84.929C483.462 85.3195 483.462 85.9527 483.071 86.3432L478.414 91.0001H510.015V93.0001H478.414L483.071 97.6569C483.462 98.0474 483.462 98.6806 483.071 99.0711C482.68 99.4616 482.047 99.4616 481.657 99.0711Z" fill="#13EBF9"/>
<path id="Arrow 19 (Stroke)" fill-rule="evenodd" clip-rule="evenodd" d="M715.571 132.843L709.207 139.207C708.817 139.598 708.183 139.598 707.793 139.207L701.429 132.843C701.038 132.453 701.038 131.82 701.429 131.429C701.82 131.038 702.453 131.038 702.843 131.429L707.5 136.086V104.485H709.5V136.086L714.157 131.429C714.547 131.038 715.181 131.038 715.571 131.429C715.962 131.82 715.962 132.453 715.571 132.843Z" fill="#13EBF9"/>
</g>
<g id="Group 296">
<g id="Group 292">
<path id="Arrow 20 (Stroke)" fill-rule="evenodd" clip-rule="evenodd" d="M129.316 168.99C128.77 168.91 128.391 168.403 128.471 167.856L129.768 158.95C129.847 158.404 130.355 158.025 130.901 158.105C131.448 158.184 131.826 158.692 131.747 159.238L130.802 165.725C144.327 155.25 152.853 144.341 156.18 131.499C159.665 118.046 157.495 102.286 149.04 82.3911L150.881 81.6088C159.425 101.714 161.755 117.954 158.116 132.001C154.633 145.445 145.727 156.71 131.964 167.354L138.51 168.308C139.057 168.387 139.435 168.895 139.356 169.441C139.276 169.988 138.769 170.366 138.222 170.287L129.316 168.99Z" fill="#2CF30B"/>
<g id="+1">
<path d="M163.777 145.271H170.914V148.347H163.777V156.433H160.508V148.347H153.371V145.271H160.508V137.801H163.777V145.271Z" fill="#2CF30B"/>
<path d="M185.24 159H181.971V137.326L175.414 139.734V136.781L184.73 133.283H185.24V159Z" fill="#2CF30B"/>
</g>
</g>
<g id="Group 293">
<path id="Arrow 20 (Stroke)_2" fill-rule="evenodd" clip-rule="evenodd" d="M237.079 184.826C258.516 198.872 287.892 200.236 321.031 182.618L321.969 184.384C288.339 202.264 258.163 201.031 235.983 186.499C214.352 172.326 200.546 145.646 198.495 112.319L194.029 117.199C193.656 117.606 193.023 117.634 192.616 117.261C192.208 116.889 192.18 116.256 192.553 115.849L198.63 109.209C199.002 108.802 199.635 108.774 200.042 109.147L206.682 115.223C207.089 115.596 207.117 116.229 206.744 116.636C206.371 117.043 205.739 117.071 205.331 116.698L200.496 112.273C202.534 145.106 216.123 171.096 237.079 184.826Z" fill="#2CF30B"/>
<g id="+2">
<path d="M204.777 204.271H211.914V207.348H204.777V215.434H201.508V207.348H194.371V204.271H201.508V196.801H204.777V204.271Z" fill="#2CF30B"/>
<path d="M232.322 218H215.553V215.662L224.412 205.818C225.725 204.33 226.627 203.123 227.119 202.197C227.623 201.26 227.875 200.293 227.875 199.297C227.875 197.961 227.471 196.865 226.662 196.01C225.854 195.154 224.775 194.727 223.428 194.727C221.811 194.727 220.551 195.189 219.648 196.115C218.758 197.029 218.312 198.307 218.312 199.947H215.061C215.061 197.592 215.816 195.688 217.328 194.234C218.852 192.781 220.885 192.055 223.428 192.055C225.807 192.055 227.688 192.682 229.07 193.936C230.453 195.178 231.145 196.836 231.145 198.91C231.145 201.43 229.539 204.43 226.328 207.91L219.473 215.346H232.322V218Z" fill="#2CF30B"/>
</g>
</g>
<g id="Group 294">
<path id="Arrow 20 (Stroke)_3" fill-rule="evenodd" clip-rule="evenodd" d="M578.605 91.4144C567.157 53.5437 528.411 25.7074 488.365 41.4308L487.634 39.5691C529.089 23.2927 568.842 52.2064 580.52 90.8357C586.372 110.198 585.22 132.08 573.734 152.092C562.498 171.668 541.43 189.356 507.589 201.171L513.503 204.112C513.998 204.358 514.199 204.959 513.954 205.453C513.708 205.948 513.107 206.149 512.613 205.903L504.554 201.896C504.06 201.65 503.858 201.049 504.104 200.555L508.112 192.496C508.358 192.002 508.958 191.8 509.453 192.046C509.947 192.292 510.149 192.892 509.903 193.387L506.979 199.265C540.449 187.571 561.061 170.153 572 151.096C583.185 131.608 584.315 110.302 578.605 91.4144Z" fill="#2CF30B"/>
<g id="+3">
<path d="M591.777 72.2715H598.914V75.3477H591.777V83.4336H588.508V75.3477H581.371V72.2715H588.508V64.8008H591.777V72.2715Z" fill="#2CF30B"/>
<path d="M607.281 71.6211H609.725C611.26 71.5977 612.467 71.1934 613.346 70.4082C614.225 69.623 614.664 68.5625 614.664 67.2266C614.664 64.2266 613.17 62.7266 610.182 62.7266C608.775 62.7266 607.65 63.1309 606.807 63.9395C605.975 64.7363 605.559 65.7969 605.559 67.1211H602.307C602.307 65.0938 603.045 63.4121 604.521 62.0762C606.01 60.7285 607.896 60.0547 610.182 60.0547C612.596 60.0547 614.488 60.6934 615.859 61.9707C617.23 63.248 617.916 65.0234 617.916 67.2969C617.916 68.4102 617.553 69.4883 616.826 70.5312C616.111 71.5742 615.133 72.3535 613.891 72.8691C615.297 73.3145 616.381 74.0527 617.143 75.084C617.916 76.1152 618.303 77.375 618.303 78.8633C618.303 81.1602 617.553 82.9824 616.053 84.3301C614.553 85.6777 612.602 86.3516 610.199 86.3516C607.797 86.3516 605.84 85.7012 604.328 84.4004C602.828 83.0996 602.078 81.3828 602.078 79.25H605.348C605.348 80.5977 605.787 81.6758 606.666 82.4844C607.545 83.293 608.723 83.6973 610.199 83.6973C611.77 83.6973 612.971 83.2871 613.803 82.4668C614.635 81.6465 615.051 80.4688 615.051 78.9336C615.051 77.4453 614.594 76.3027 613.68 75.5059C612.766 74.709 611.447 74.2988 609.725 74.2754H607.281V71.6211Z" fill="#2CF30B"/>
</g>
</g>
<g id="+4">
<path d="M813.777 51.2715H820.914V54.3477H813.777V62.4336H810.508V54.3477H803.371V51.2715H810.508V43.8008H813.777V51.2715Z" fill="#2CF30B"/>
<path d="M838.281 56.4043H841.832V59.0586H838.281V65H835.012V59.0586H823.357V57.1426L834.818 39.4062H838.281V56.4043ZM827.049 56.4043H835.012V43.8535L834.625 44.5566L827.049 56.4043Z" fill="#2CF30B"/>
</g>
</g>
<g id="Group 282">
<path id="Ellipse 25 (Stroke)_5" fill-rule="evenodd" clip-rule="evenodd" d="M374 362C409.899 362 439 332.899 439 297C439 261.101 409.899 232 374 232C338.101 232 309 261.101 309 297C309 332.899 338.101 362 374 362ZM374 367C412.66 367 444 335.66 444 297C444 258.34 412.66 227 374 227C335.34 227 304 258.34 304 297C304 335.66 335.34 367 374 367Z" fill="white"/>
<path id="Ellipse 26 (Stroke)_5" fill-rule="evenodd" clip-rule="evenodd" d="M374 347C401.614 347 424 324.614 424 297C424 269.386 401.614 247 374 247C346.386 247 324 269.386 324 297C324 324.614 346.386 347 374 347ZM374 352C404.376 352 429 327.376 429 297C429 266.624 404.376 242 374 242C343.624 242 319 266.624 319 297C319 327.376 343.624 352 374 352Z" fill="white"/>
<path id="Line 132 (Stroke)_5" fill-rule="evenodd" clip-rule="evenodd" d="M374 367V227H377V367H374Z" fill="white"/>
<path id="Line 133 (Stroke)_5" fill-rule="evenodd" clip-rule="evenodd" d="M444 297H304V294H444V297Z" fill="white"/>
<g id="30 es par">
<path d="M36.8555 262.621H39.2988C40.834 262.598 42.041 262.193 42.9199 261.408C43.7988 260.623 44.2383 259.562 44.2383 258.227C44.2383 255.227 42.7441 253.727 39.7559 253.727C38.3496 253.727 37.2246 254.131 36.3809 254.939C35.5488 255.736 35.1328 256.797 35.1328 258.121H31.8809C31.8809 256.094 32.6191 254.412 34.0957 253.076C35.584 251.729 37.4707 251.055 39.7559 251.055C42.1699 251.055 44.0625 251.693 45.4336 252.971C46.8047 254.248 47.4902 256.023 47.4902 258.297C47.4902 259.41 47.127 260.488 46.4004 261.531C45.6855 262.574 44.707 263.354 43.4648 263.869C44.8711 264.314 45.9551 265.053 46.7168 266.084C47.4902 267.115 47.877 268.375 47.877 269.863C47.877 272.16 47.127 273.982 45.627 275.33C44.127 276.678 42.1758 277.352 39.7734 277.352C37.3711 277.352 35.4141 276.701 33.9023 275.4C32.4023 274.1 31.6523 272.383 31.6523 270.25H34.9219C34.9219 271.598 35.3613 272.676 36.2402 273.484C37.1191 274.293 38.2969 274.697 39.7734 274.697C41.3438 274.697 42.5449 274.287 43.377 273.467C44.209 272.646 44.625 271.469 44.625 269.934C44.625 268.445 44.168 267.303 43.2539 266.506C42.3398 265.709 41.0215 265.299 39.2988 265.275H36.8555V262.621Z" fill="white"/>
<path d="M68.3906 266.084C68.3906 269.893 67.7402 272.723 66.4395 274.574C65.1387 276.426 63.1055 277.352 60.3398 277.352C57.6094 277.352 55.5879 276.449 54.2754 274.645C52.9629 272.828 52.2832 270.121 52.2363 266.523V262.182C52.2363 258.42 52.8867 255.625 54.1875 253.797C55.4883 251.969 57.5273 251.055 60.3047 251.055C63.0586 251.055 65.0859 251.939 66.3867 253.709C67.6875 255.467 68.3555 258.186 68.3906 261.865V266.084ZM65.1387 261.637C65.1387 258.883 64.752 256.879 63.9785 255.625C63.2051 254.359 61.9805 253.727 60.3047 253.727C58.6406 253.727 57.4277 254.354 56.666 255.607C55.9043 256.861 55.5117 258.789 55.4883 261.391V266.594C55.4883 269.359 55.8867 271.404 56.6836 272.729C57.4922 274.041 58.7109 274.697 60.3398 274.697C61.9453 274.697 63.1348 274.076 63.9082 272.834C64.6934 271.592 65.1035 269.635 65.1387 266.963V261.637Z" fill="white"/>
<path d="M89.7129 277.352C87.1348 277.352 85.0371 276.508 83.4199 274.82C81.8027 273.121 80.9941 270.854 80.9941 268.018V267.42C80.9941 265.533 81.3516 263.852 82.0664 262.375C82.793 260.887 83.8008 259.727 85.0898 258.895C86.3906 258.051 87.7969 257.629 89.3086 257.629C91.7812 257.629 93.7031 258.443 95.0742 260.072C96.4453 261.701 97.1309 264.033 97.1309 267.068V268.422H84.2461C84.293 270.297 84.8379 271.814 85.8809 272.975C86.9355 274.123 88.2715 274.697 89.8887 274.697C91.0371 274.697 92.0098 274.463 92.8066 273.994C93.6035 273.525 94.3008 272.904 94.8984 272.131L96.8848 273.678C95.291 276.127 92.9004 277.352 89.7129 277.352ZM89.3086 260.301C87.9961 260.301 86.8945 260.781 86.0039 261.742C85.1133 262.691 84.5625 264.027 84.3516 265.75H93.8789V265.504C93.7852 263.852 93.3398 262.574 92.543 261.672C91.7461 260.758 90.668 260.301 89.3086 260.301Z" fill="white"/>
<path d="M111.984 271.955C111.984 271.076 111.65 270.396 110.982 269.916C110.326 269.424 109.172 269.002 107.52 268.65C105.879 268.299 104.572 267.877 103.6 267.385C102.639 266.893 101.924 266.307 101.455 265.627C100.998 264.947 100.77 264.139 100.77 263.201C100.77 261.643 101.426 260.324 102.738 259.246C104.062 258.168 105.75 257.629 107.801 257.629C109.957 257.629 111.703 258.186 113.039 259.299C114.387 260.412 115.061 261.836 115.061 263.57H111.791C111.791 262.68 111.41 261.912 110.648 261.268C109.898 260.623 108.949 260.301 107.801 260.301C106.617 260.301 105.691 260.559 105.023 261.074C104.355 261.59 104.021 262.264 104.021 263.096C104.021 263.881 104.332 264.473 104.953 264.871C105.574 265.27 106.693 265.65 108.311 266.014C109.939 266.377 111.258 266.811 112.266 267.314C113.273 267.818 114.018 268.428 114.498 269.143C114.99 269.846 115.236 270.707 115.236 271.727C115.236 273.426 114.557 274.791 113.197 275.822C111.838 276.842 110.074 277.352 107.906 277.352C106.383 277.352 105.035 277.082 103.863 276.543C102.691 276.004 101.771 275.254 101.104 274.293C100.447 273.32 100.119 272.271 100.119 271.146H103.371C103.43 272.236 103.863 273.104 104.672 273.748C105.492 274.381 106.57 274.697 107.906 274.697C109.137 274.697 110.121 274.451 110.859 273.959C111.609 273.455 111.984 272.787 111.984 271.955Z" fill="white"/>
<path d="M144.469 267.701C144.469 270.596 143.807 272.928 142.482 274.697C141.158 276.467 139.365 277.352 137.104 277.352C134.795 277.352 132.979 276.619 131.654 275.154V284.312H128.402V257.98H131.373L131.531 260.09C132.855 258.449 134.695 257.629 137.051 257.629C139.336 257.629 141.141 258.49 142.465 260.213C143.801 261.936 144.469 264.332 144.469 267.402V267.701ZM141.217 267.332C141.217 265.188 140.76 263.494 139.846 262.252C138.932 261.01 137.678 260.389 136.084 260.389C134.115 260.389 132.639 261.262 131.654 263.008V272.096C132.627 273.83 134.115 274.697 136.119 274.697C137.678 274.697 138.914 274.082 139.828 272.852C140.754 271.609 141.217 269.77 141.217 267.332Z" fill="white"/>
<path d="M160.359 277C160.172 276.625 160.02 275.957 159.902 274.996C158.391 276.566 156.586 277.352 154.488 277.352C152.613 277.352 151.072 276.824 149.865 275.77C148.67 274.703 148.072 273.355 148.072 271.727C148.072 269.746 148.822 268.211 150.322 267.121C151.834 266.02 153.955 265.469 156.686 265.469H159.85V263.975C159.85 262.838 159.51 261.936 158.83 261.268C158.15 260.588 157.148 260.248 155.824 260.248C154.664 260.248 153.691 260.541 152.906 261.127C152.121 261.713 151.729 262.422 151.729 263.254H148.459C148.459 262.305 148.793 261.391 149.461 260.512C150.141 259.621 151.055 258.918 152.203 258.402C153.363 257.887 154.635 257.629 156.018 257.629C158.209 257.629 159.926 258.18 161.168 259.281C162.41 260.371 163.055 261.877 163.102 263.799V272.553C163.102 274.299 163.324 275.688 163.77 276.719V277H160.359ZM154.963 274.521C155.982 274.521 156.949 274.258 157.863 273.73C158.777 273.203 159.439 272.518 159.85 271.674V267.771H157.301C153.316 267.771 151.324 268.938 151.324 271.27C151.324 272.289 151.664 273.086 152.344 273.66C153.023 274.234 153.896 274.521 154.963 274.521Z" fill="white"/>
<path d="M177.393 260.898C176.9 260.816 176.367 260.775 175.793 260.775C173.66 260.775 172.213 261.684 171.451 263.5V277H168.199V257.98H171.363L171.416 260.178C172.482 258.479 173.994 257.629 175.951 257.629C176.584 257.629 177.064 257.711 177.393 257.875V260.898Z" fill="white"/>
</g>
<path id="Ellipse 27_5" d="M407 319C407 324.523 402.523 329 397 329C391.477 329 387 324.523 387 319C387 313.477 391.477 309 397 309C402.523 309 407 313.477 407 319Z" fill="white"/>
<g id="30=4(7)+2">
<path d="M12.8555 314.621H15.2988C16.834 314.598 18.041 314.193 18.9199 313.408C19.7988 312.623 20.2383 311.562 20.2383 310.227C20.2383 307.227 18.7441 305.727 15.7559 305.727C14.3496 305.727 13.2246 306.131 12.3809 306.939C11.5488 307.736 11.1328 308.797 11.1328 310.121H7.88086C7.88086 308.094 8.61914 306.412 10.0957 305.076C11.584 303.729 13.4707 303.055 15.7559 303.055C18.1699 303.055 20.0625 303.693 21.4336 304.971C22.8047 306.248 23.4902 308.023 23.4902 310.297C23.4902 311.41 23.127 312.488 22.4004 313.531C21.6855 314.574 20.707 315.354 19.4648 315.869C20.8711 316.314 21.9551 317.053 22.7168 318.084C23.4902 319.115 23.877 320.375 23.877 321.863C23.877 324.16 23.127 325.982 21.627 327.33C20.127 328.678 18.1758 329.352 15.7734 329.352C13.3711 329.352 11.4141 328.701 9.90234 327.4C8.40234 326.1 7.65234 324.383 7.65234 322.25H10.9219C10.9219 323.598 11.3613 324.676 12.2402 325.484C13.1191 326.293 14.2969 326.697 15.7734 326.697C17.3438 326.697 18.5449 326.287 19.377 325.467C20.209 324.646 20.625 323.469 20.625 321.934C20.625 320.445 20.168 319.303 19.2539 318.506C18.3398 317.709 17.0215 317.299 15.2988 317.275H12.8555V314.621Z" fill="white"/>
<path d="M44.3906 318.084C44.3906 321.893 43.7402 324.723 42.4395 326.574C41.1387 328.426 39.1055 329.352 36.3398 329.352C33.6094 329.352 31.5879 328.449 30.2754 326.645C28.9629 324.828 28.2832 322.121 28.2363 318.523V314.182C28.2363 310.42 28.8867 307.625 30.1875 305.797C31.4883 303.969 33.5273 303.055 36.3047 303.055C39.0586 303.055 41.0859 303.939 42.3867 305.709C43.6875 307.467 44.3555 310.186 44.3906 313.865V318.084ZM41.1387 313.637C41.1387 310.883 40.752 308.879 39.9785 307.625C39.2051 306.359 37.9805 305.727 36.3047 305.727C34.6406 305.727 33.4277 306.354 32.666 307.607C31.9043 308.861 31.5117 310.789 31.4883 313.391V318.594C31.4883 321.359 31.8867 323.404 32.6836 324.729C33.4922 326.041 34.7109 326.697 36.3398 326.697C37.9453 326.697 39.1348 326.076 39.9082 324.834C40.6934 323.592 41.1035 321.635 41.1387 318.963V313.637Z" fill="white"/>
<path d="M63.7617 314.691H49.1016V311.861H63.7617V314.691ZM63.7617 321.986H49.1016V319.174H63.7617V321.986Z" fill="white"/>
<path d="M82.043 320.404H85.5938V323.059H82.043V329H78.7734V323.059H67.1191V321.143L78.5801 303.406H82.043V320.404ZM70.8105 320.404H78.7734V307.854L78.3867 308.557L70.8105 320.404Z" fill="white"/>
<path d="M88.7402 318.611C88.7402 315.963 89.0918 313.42 89.7949 310.982C90.5098 308.545 91.5703 306.33 92.9766 304.338C94.3828 302.346 95.8418 300.939 97.3535 300.119L98.0215 302.264C96.3105 303.576 94.9043 305.58 93.8027 308.275C92.7129 310.971 92.1152 313.988 92.0098 317.328L91.9922 318.822C91.9922 323.346 92.8184 327.271 94.4707 330.6C95.4668 332.592 96.6504 334.15 98.0215 335.275L97.3535 337.262C95.7949 336.395 94.3066 334.941 92.8887 332.902C90.123 328.918 88.7402 324.154 88.7402 318.611Z" fill="white"/>
<path d="M117.357 305.234L106.758 329H103.348L113.912 306.078H100.061V303.406H117.357V305.234Z" fill="white"/>
<path d="M128.889 318.787C128.889 321.4 128.543 323.908 127.852 326.311C127.172 328.701 126.123 330.91 124.705 332.938C123.299 334.965 121.822 336.406 120.275 337.262L119.59 335.275C121.395 333.893 122.842 331.748 123.932 328.842C125.033 325.924 125.596 322.689 125.619 319.139V318.576C125.619 316.115 125.361 313.83 124.846 311.721C124.33 309.6 123.609 307.701 122.684 306.025C121.77 304.35 120.738 303.043 119.59 302.105L120.275 300.119C121.822 300.975 123.293 302.404 124.688 304.408C126.094 306.412 127.143 308.621 127.834 311.035C128.537 313.449 128.889 316.033 128.889 318.787Z" fill="white"/>
<path d="M143.215 315.271H150.352V318.348H143.215V326.434H139.945V318.348H132.809V315.271H139.945V307.801H143.215V315.271Z" fill="white"/>
<path d="M170.76 329H153.99V326.662L162.85 316.818C164.162 315.33 165.064 314.123 165.557 313.197C166.061 312.26 166.312 311.293 166.312 310.297C166.312 308.961 165.908 307.865 165.1 307.01C164.291 306.154 163.213 305.727 161.865 305.727C160.248 305.727 158.988 306.189 158.086 307.115C157.195 308.029 156.75 309.307 156.75 310.947H153.498C153.498 308.592 154.254 306.688 155.766 305.234C157.289 303.781 159.322 303.055 161.865 303.055C164.244 303.055 166.125 303.682 167.508 304.936C168.891 306.178 169.582 307.836 169.582 309.91C169.582 312.43 167.977 315.43 164.766 318.91L157.91 326.346H170.76V329Z" fill="white"/>
</g>
<path id="Ellipse 28 (Stroke)_5" fill-rule="evenodd" clip-rule="evenodd" d="M397 325C401.418 325 405 321.418 405 317C405 312.582 401.418 309 397 309C392.582 309 389 312.582 389 317C389 321.418 392.582 325 397 325ZM397 327C402.523 327 407 322.523 407 317C407 311.477 402.523 307 397 307C391.477 307 387 311.477 387 317C387 322.523 391.477 327 397 327Z" fill="white"/>
<g id="Group 299">
<g id="1+\frac{29 \times 30}{2}=1+435=436">
<g id="Group">
<g id="Group_2">
<path id="Vector" d="M525.128 236.138L524.615 236.335C524.247 236.466 523.721 236.598 523.037 236.729C522.354 236.861 521.591 236.953 520.75 237.006H520V235.191H520.75C521.986 235.138 523.13 234.941 524.181 234.599C525.233 234.257 525.97 233.942 526.391 233.652C526.811 233.363 527.179 233.074 527.495 232.785C527.548 232.706 527.705 232.666 527.968 232.666C528.205 232.666 528.429 232.745 528.639 232.903V244.698L528.679 256.532C528.863 256.716 529.02 256.835 529.152 256.887C529.283 256.94 529.599 256.992 530.099 257.045C530.598 257.098 531.414 257.124 532.544 257.124H533.57V258.938H533.136C532.584 258.86 530.493 258.82 526.864 258.82C523.287 258.82 521.223 258.86 520.671 258.938H520.197V257.124H521.223C521.801 257.124 522.301 257.124 522.722 257.124C523.143 257.124 523.471 257.111 523.708 257.084C523.945 257.058 524.155 257.019 524.339 256.966C524.523 256.913 524.629 256.887 524.655 256.887C524.681 256.887 524.76 256.821 524.892 256.69C525.023 256.558 525.102 256.506 525.128 256.532V236.138Z" fill="white"/>
</g>
<g id="Group_3">
<path id="Vector_2" d="M547.424 249.59C547.424 249.59 547.424 249.419 547.424 249.077C547.424 248.735 547.608 248.472 547.977 248.288H559.771V242.371L559.811 236.454C560.074 236.112 560.324 235.941 560.56 235.941C560.902 235.941 561.165 236.138 561.349 236.533V248.288H573.105C573.499 248.499 573.697 248.762 573.697 249.077C573.697 249.393 573.499 249.656 573.105 249.866H561.349V261.622C561.139 261.99 560.902 262.174 560.639 262.174H560.56H560.482C560.166 262.174 559.929 261.99 559.771 261.622V249.866H547.977C547.608 249.682 547.424 249.419 547.424 249.077V249.59Z" fill="white"/>
</g>
<g id="Group_4">
<g id="Group_5">
<g id="Group_6">
<path id="Vector_3" d="M597.649 215.35C596.939 215.35 596.373 215.113 595.952 214.64C595.532 214.166 595.321 213.588 595.321 212.904C595.321 211.037 596.018 209.42 597.412 208.052C598.806 206.685 600.542 206.001 602.619 206.001C605.012 206.001 607.011 206.737 608.615 208.21C610.219 209.683 611.035 211.589 611.061 213.93C611.061 215.061 610.798 216.139 610.272 217.164C609.746 218.19 609.115 219.084 608.378 219.847C607.642 220.61 606.59 221.583 605.223 222.766C604.276 223.581 602.961 224.791 601.278 226.395L598.95 228.604L601.949 228.644C606.077 228.644 608.273 228.578 608.536 228.447C608.72 228.394 609.036 227.224 609.483 224.936V224.817H611.061V224.936C611.035 225.015 610.864 226.211 610.548 228.525C610.233 230.84 610.035 232.049 609.956 232.155V232.273H595.321V231.523V231.05C595.321 230.866 595.4 230.669 595.558 230.458C595.716 230.248 596.11 229.788 596.741 229.078C597.504 228.236 598.162 227.5 598.714 226.869C598.95 226.606 599.398 226.119 600.055 225.409C600.712 224.699 601.16 224.212 601.396 223.949C601.633 223.686 602.014 223.253 602.54 222.648C603.066 222.043 603.434 221.596 603.645 221.306C603.855 221.017 604.158 220.623 604.552 220.123C604.947 219.623 605.223 219.203 605.38 218.861C605.538 218.519 605.735 218.138 605.972 217.717C606.209 217.296 606.38 216.875 606.485 216.454C606.59 216.034 606.682 215.639 606.761 215.271C606.84 214.903 606.879 214.469 606.879 213.969C606.879 212.312 606.432 210.879 605.538 209.669C604.644 208.46 603.369 207.855 601.712 207.855C600.844 207.855 600.081 208.078 599.424 208.525C598.766 208.972 598.306 209.406 598.043 209.827C597.78 210.248 597.649 210.498 597.649 210.577C597.649 210.603 597.714 210.616 597.846 210.616C598.319 210.616 598.806 210.8 599.306 211.168C599.805 211.537 600.055 212.141 600.055 212.983C600.055 213.64 599.845 214.193 599.424 214.64C599.003 215.087 598.411 215.324 597.649 215.35Z" fill="white"/>
<path id="Vector_4" d="M626.959 220.951C625.696 222.949 624.118 223.949 622.225 223.949C620.174 223.949 618.49 223.173 617.175 221.621C615.861 220.07 615.072 218.413 614.809 216.651C614.756 216.23 614.73 215.704 614.73 215.073V214.757C614.73 212.312 615.637 210.182 617.452 208.367C619.03 206.789 620.765 206 622.659 206C622.711 206 622.79 206 622.895 206C623.001 206 623.106 206.013 623.211 206.04H623.369C623.684 206.04 624.013 206.066 624.355 206.118C624.697 206.171 625.183 206.329 625.815 206.592C626.446 206.855 627.064 207.276 627.669 207.854C628.273 208.433 628.839 209.209 629.365 210.182C630.496 212.496 631.061 215.468 631.061 219.097C631.061 222.779 630.272 225.895 628.694 228.446C627.774 229.919 626.669 231.063 625.381 231.878C624.092 232.693 622.724 233.114 621.278 233.14C619.674 233.14 618.359 232.759 617.333 231.996C616.308 231.233 615.782 230.103 615.755 228.604C615.729 227.105 616.426 226.368 617.846 226.395C618.425 226.395 618.911 226.579 619.306 226.947C619.7 227.315 619.897 227.828 619.897 228.485C619.897 228.959 619.779 229.366 619.542 229.708C619.306 230.05 619.095 230.26 618.911 230.339C618.727 230.418 618.556 230.484 618.398 230.537L618.241 230.576C618.241 230.629 618.333 230.708 618.517 230.813C618.701 230.918 619.043 231.049 619.542 231.207C620.042 231.365 620.594 231.431 621.199 231.404H621.436C623.014 231.404 624.342 230.563 625.42 228.88C626.446 227.407 626.959 224.856 626.959 221.227V220.951ZM622.698 222.489C623.961 222.489 624.973 221.845 625.736 220.556C626.498 219.268 626.893 217.519 626.919 215.31C626.919 213.258 626.814 211.786 626.604 210.892C626.551 210.629 626.472 210.366 626.367 210.103C626.262 209.84 626.078 209.498 625.815 209.077C625.552 208.656 625.157 208.301 624.631 208.012C624.105 207.723 623.487 207.591 622.777 207.617C621.778 207.617 620.923 207.972 620.213 208.683C619.661 209.261 619.306 209.945 619.148 210.734C618.99 211.523 618.898 212.903 618.872 214.876C618.872 217.059 618.937 218.531 619.069 219.294C619.2 220.057 619.463 220.675 619.858 221.148C620.515 222.042 621.462 222.489 622.698 222.489Z" fill="white"/>
</g>
<g id="Group_7">
<path id="Vector_5" d="M666.414 231.128C666.414 231.654 666.138 231.917 665.586 231.917C665.454 231.917 665.165 231.707 664.718 231.286C664.271 230.865 663.035 229.642 661.01 227.617L656.907 223.515L652.765 227.657C649.978 230.392 648.545 231.785 648.466 231.838C648.36 231.891 648.268 231.917 648.189 231.917C647.979 231.917 647.795 231.838 647.637 231.68C647.479 231.523 647.387 231.338 647.361 231.128C647.361 230.944 647.545 230.655 647.913 230.26C648.282 229.866 649.518 228.617 651.621 226.513L655.724 222.41L651.621 218.308C649.491 216.177 648.255 214.928 647.913 214.56C647.571 214.192 647.387 213.903 647.361 213.692C647.361 213.455 647.44 213.271 647.598 213.14C647.756 213.008 647.953 212.943 648.189 212.943C648.321 212.943 648.413 212.956 648.466 212.982C648.545 213.035 649.978 214.428 652.765 217.164L656.907 221.306L661.01 217.203C663.035 215.178 664.271 213.955 664.718 213.534C665.165 213.114 665.454 212.903 665.586 212.903C666.138 212.903 666.414 213.166 666.414 213.692C666.414 213.876 666.283 214.113 666.02 214.402C665.757 214.691 664.468 215.98 662.154 218.268L658.051 222.41L662.154 226.552C664.363 228.761 665.625 230.037 665.941 230.379C666.257 230.72 666.414 230.97 666.414 231.128Z" fill="white"/>
</g>
<g id="Group_8">
<path id="Vector_6" d="M686.028 214.008C685.318 214.008 684.765 213.784 684.371 213.337C683.976 212.89 683.766 212.312 683.74 211.602C683.74 210.155 684.371 208.867 685.633 207.736C686.895 206.605 688.421 206.04 690.209 206.04C691.13 206.04 691.708 206.053 691.945 206.079C693.891 206.395 695.377 207.091 696.402 208.17C697.428 209.248 697.954 210.418 697.98 211.681C697.98 213.048 697.533 214.376 696.639 215.665C695.745 216.953 694.509 217.887 692.931 218.466L692.813 218.544C692.813 218.571 692.931 218.61 693.168 218.663C693.404 218.715 693.786 218.834 694.312 219.018C694.838 219.202 695.337 219.478 695.811 219.846C697.967 221.24 699.045 223.081 699.045 225.369C699.045 227.447 698.23 229.261 696.6 230.813C694.969 232.364 692.905 233.14 690.406 233.14C688.302 233.14 686.488 232.575 684.963 231.444C683.437 230.313 682.675 228.88 682.675 227.144C682.675 226.408 682.911 225.816 683.385 225.369C683.858 224.922 684.45 224.685 685.16 224.659C685.896 224.659 686.501 224.896 686.974 225.369C687.448 225.842 687.684 226.434 687.684 227.144C687.684 227.433 687.645 227.696 687.566 227.933C687.487 228.17 687.395 228.38 687.29 228.564C687.185 228.748 687.04 228.906 686.856 229.038C686.672 229.169 686.514 229.274 686.383 229.353C686.251 229.432 686.12 229.485 685.988 229.511C685.857 229.537 685.751 229.577 685.673 229.629L685.515 229.669C686.856 230.852 688.487 231.444 690.406 231.444C691.853 231.444 692.944 230.747 693.68 229.353C694.128 228.485 694.351 227.157 694.351 225.369V224.58C694.351 222.082 693.51 220.412 691.826 219.57C691.432 219.412 690.63 219.32 689.42 219.294L687.763 219.255L687.645 219.176C687.592 219.097 687.566 218.886 687.566 218.544C687.566 218.071 687.671 217.834 687.882 217.834C688.618 217.834 689.381 217.769 690.17 217.637C691.064 217.506 691.879 216.953 692.615 215.98C693.352 215.007 693.72 213.535 693.72 211.562V211.247C693.72 209.748 693.26 208.709 692.339 208.13C691.761 207.762 691.143 207.578 690.485 207.578C689.644 207.578 688.868 207.723 688.158 208.012C687.448 208.301 686.948 208.604 686.659 208.919C686.369 209.235 686.225 209.393 686.225 209.393H686.343C686.422 209.419 686.527 209.445 686.659 209.471C686.79 209.498 686.922 209.564 687.053 209.669C687.185 209.774 687.343 209.866 687.527 209.945C687.711 210.024 687.842 210.168 687.921 210.379C688 210.589 688.105 210.786 688.237 210.971C688.368 211.155 688.408 211.418 688.355 211.759C688.355 212.338 688.171 212.851 687.803 213.298C687.435 213.745 686.843 213.982 686.028 214.008Z" fill="white"/>
<path id="Vector_7" d="M704.529 209.195C706.002 207.065 708.013 206 710.564 206C711.827 206 713.089 206.342 714.351 207.026C715.614 207.709 716.639 208.919 717.428 210.655C718.401 212.838 718.888 215.836 718.888 219.649C718.888 223.725 718.322 226.842 717.192 228.998C716.666 230.103 715.942 230.984 715.022 231.641C714.101 232.299 713.299 232.706 712.616 232.864C711.932 233.022 711.261 233.114 710.604 233.14C709.92 233.14 709.236 233.061 708.552 232.903C707.869 232.746 707.067 232.325 706.146 231.641C705.226 230.957 704.502 230.076 703.977 228.998C702.846 226.842 702.28 223.725 702.28 219.649C702.28 215.073 703.03 211.589 704.529 209.195ZM713.405 208.722C712.616 207.88 711.682 207.46 710.604 207.46C709.499 207.46 708.552 207.88 707.764 208.722C707.106 209.406 706.672 210.352 706.462 211.562C706.251 212.772 706.146 215.297 706.146 219.136C706.146 223.291 706.251 226.026 706.462 227.341C706.672 228.656 707.145 229.695 707.882 230.458C708.618 231.247 709.526 231.641 710.604 231.641C711.656 231.641 712.55 231.247 713.286 230.458C714.049 229.669 714.522 228.564 714.706 227.144C714.89 225.724 714.996 223.055 715.022 219.136C715.022 215.323 714.917 212.811 714.706 211.602C714.496 210.392 714.062 209.432 713.405 208.722Z" fill="white"/>
</g>
</g>
<g id="Group_9">
<path id="Vector_8" d="M651.345 269.077C650.635 269.077 650.07 268.84 649.649 268.367C649.228 267.893 649.018 267.315 649.018 266.631C649.018 264.764 649.715 263.147 651.109 261.779C652.502 260.412 654.238 259.728 656.316 259.728C658.709 259.728 660.708 260.464 662.312 261.937C663.916 263.41 664.731 265.316 664.757 267.657C664.757 268.788 664.494 269.866 663.969 270.892C663.443 271.917 662.811 272.811 662.075 273.574C661.339 274.337 660.287 275.31 658.919 276.493C657.972 277.308 656.658 278.518 654.974 280.122L652.647 282.331L655.645 282.371C659.774 282.371 661.97 282.305 662.233 282.174C662.417 282.121 662.732 280.951 663.18 278.663V278.544H664.757V278.663C664.731 278.742 664.56 279.938 664.245 282.252C663.929 284.567 663.732 285.776 663.653 285.882V286H649.018V285.25V284.777C649.018 284.593 649.097 284.396 649.255 284.185C649.412 283.975 649.807 283.515 650.438 282.805C651.201 281.963 651.858 281.227 652.41 280.596C652.647 280.333 653.094 279.846 653.752 279.136C654.409 278.426 654.856 277.94 655.093 277.677C655.329 277.414 655.711 276.98 656.237 276.375C656.763 275.77 657.131 275.323 657.341 275.034C657.552 274.744 657.854 274.35 658.249 273.85C658.643 273.35 658.919 272.93 659.077 272.588C659.235 272.246 659.432 271.865 659.669 271.444C659.905 271.023 660.076 270.602 660.182 270.181C660.287 269.761 660.379 269.366 660.458 268.998C660.537 268.63 660.576 268.196 660.576 267.696C660.576 266.039 660.129 264.606 659.235 263.396C658.341 262.187 657.065 261.582 655.408 261.582C654.541 261.582 653.778 261.805 653.12 262.252C652.463 262.7 652.003 263.133 651.74 263.554C651.477 263.975 651.345 264.225 651.345 264.304C651.345 264.33 651.411 264.343 651.542 264.343C652.016 264.343 652.502 264.527 653.002 264.895C653.502 265.264 653.752 265.869 653.752 266.71C653.752 267.368 653.541 267.92 653.12 268.367C652.7 268.814 652.108 269.051 651.345 269.077Z" fill="white"/>
</g>
<path id="Vector_9" d="M724.41 250.26H589.404V247.893H724.41V250.26Z" fill="white"/>
</g>
<g id="Group_10">
<path id="Vector_10" d="M740 243.017C740 242.675 740.184 242.412 740.552 242.228H765.68C766.075 242.438 766.272 242.701 766.272 243.017C766.272 243.306 766.088 243.556 765.72 243.766L753.176 243.806H740.631C740.21 243.674 740 243.411 740 243.017ZM740 250.67C740 250.275 740.21 250.012 740.631 249.881H765.72C766.088 250.144 766.272 250.407 766.272 250.67C766.272 251.011 766.075 251.274 765.68 251.458H740.552C740.184 251.274 740 251.011 740 250.67Z" fill="white"/>
</g>
<g id="Group 297">
<g id="Group_11">
<path id="Vector_11" d="M787.838 233.904L787.326 234.101C786.957 234.233 786.431 234.364 785.748 234.496C785.064 234.627 784.301 234.719 783.46 234.772H782.71V232.957H783.46C784.696 232.904 785.84 232.707 786.892 232.365C787.944 232.023 788.68 231.708 789.101 231.419C789.522 231.129 789.89 230.84 790.205 230.551C790.258 230.472 790.416 230.432 790.679 230.432C790.915 230.432 791.139 230.511 791.349 230.669V242.464L791.389 254.298C791.573 254.482 791.731 254.601 791.862 254.653C791.994 254.706 792.309 254.759 792.809 254.811C793.308 254.864 794.124 254.89 795.255 254.89H796.28V256.705H795.846C795.294 256.626 793.203 256.586 789.574 256.586C785.998 256.586 783.933 256.626 783.381 256.705H782.907V254.89H783.933C784.512 254.89 785.011 254.89 785.432 254.89C785.853 254.89 786.182 254.877 786.418 254.851C786.655 254.824 786.865 254.785 787.049 254.732C787.234 254.68 787.339 254.653 787.365 254.653C787.391 254.653 787.47 254.588 787.602 254.456C787.733 254.325 787.812 254.272 787.838 254.298V233.904Z" fill="white"/>
</g>
<g id="Group_12">
<path id="Vector_12" d="M810.138 247.356C810.138 247.356 810.138 247.185 810.138 246.843C810.138 246.501 810.322 246.238 810.69 246.054H822.485V240.137L822.525 234.22C822.788 233.878 823.038 233.707 823.274 233.707C823.616 233.707 823.879 233.904 824.063 234.299V246.054H835.819C836.213 246.265 836.41 246.528 836.41 246.843C836.41 247.159 836.213 247.422 835.819 247.632H824.063V259.388C823.853 259.756 823.616 259.94 823.353 259.94H823.274H823.195C822.88 259.94 822.643 259.756 822.485 259.388V247.632H810.69C810.322 247.448 810.138 247.185 810.138 246.843V247.356Z" fill="white"/>
</g>
<g id="Group_13">
<path id="Vector_13" d="M865.61 256.706C865.136 256.627 863.44 256.588 860.521 256.588C857.47 256.588 855.708 256.627 855.235 256.706H854.88V254.891H856.103C856.629 254.891 856.984 254.891 857.168 254.891C857.352 254.891 857.575 254.865 857.838 254.813C858.101 254.76 858.285 254.694 858.391 254.615C858.496 254.536 858.588 254.431 858.667 254.3C858.693 254.247 858.706 253.537 858.706 252.17V250.197H848.489V248.383L854.446 239.27C858.47 233.169 860.508 230.105 860.56 230.079C860.613 230.026 860.889 230 861.389 230H862.099L862.335 230.237V248.383H865.965V250.197H862.335V252.209C862.335 253.287 862.335 253.918 862.335 254.103C862.335 254.287 862.414 254.444 862.572 254.576C862.782 254.76 863.532 254.865 864.821 254.891H865.965V256.706H865.61ZM858.943 248.383V235.207L850.304 248.343L854.604 248.383H858.943Z" fill="white"/>
<path id="Vector_14" d="M872.118 238.441C871.408 238.441 870.856 238.218 870.461 237.77C870.067 237.323 869.857 236.745 869.83 236.035C869.83 234.588 870.461 233.3 871.724 232.169C872.986 231.038 874.511 230.473 876.3 230.473C877.22 230.473 877.799 230.486 878.035 230.512C879.981 230.828 881.467 231.525 882.493 232.603C883.519 233.681 884.045 234.851 884.071 236.114C884.071 237.481 883.624 238.809 882.73 240.098C881.835 241.387 880.599 242.32 879.022 242.899L878.903 242.978C878.903 243.004 879.022 243.043 879.258 243.096C879.495 243.149 879.876 243.267 880.402 243.451C880.928 243.635 881.428 243.911 881.901 244.279C884.058 245.673 885.136 247.514 885.136 249.802C885.136 251.88 884.321 253.694 882.69 255.246C881.06 256.797 878.995 257.573 876.497 257.573C874.393 257.573 872.578 257.008 871.053 255.877C869.528 254.746 868.765 253.313 868.765 251.577C868.765 250.841 869.002 250.249 869.475 249.802C869.949 249.355 870.54 249.118 871.25 249.092C871.987 249.092 872.592 249.329 873.065 249.802C873.538 250.275 873.775 250.867 873.775 251.577C873.775 251.866 873.736 252.129 873.657 252.366C873.578 252.603 873.486 252.813 873.381 252.997C873.275 253.181 873.131 253.339 872.947 253.471C872.763 253.602 872.605 253.707 872.473 253.786C872.342 253.865 872.21 253.918 872.079 253.944C871.947 253.97 871.842 254.01 871.763 254.062L871.605 254.102C872.947 255.285 874.577 255.877 876.497 255.877C877.943 255.877 879.035 255.18 879.771 253.786C880.218 252.918 880.442 251.59 880.442 249.802V249.013C880.442 246.515 879.6 244.845 877.917 244.003C877.523 243.845 876.72 243.753 875.511 243.727L873.854 243.688L873.736 243.609C873.683 243.53 873.657 243.319 873.657 242.978C873.657 242.504 873.762 242.268 873.972 242.268C874.709 242.268 875.471 242.202 876.26 242.07C877.154 241.939 877.97 241.387 878.706 240.413C879.442 239.44 879.811 237.968 879.811 235.995V235.68C879.811 234.181 879.35 233.142 878.43 232.563C877.851 232.195 877.233 232.011 876.576 232.011C875.734 232.011 874.958 232.156 874.248 232.445C873.538 232.734 873.039 233.037 872.749 233.352C872.46 233.668 872.315 233.826 872.315 233.826H872.434C872.513 233.852 872.618 233.878 872.749 233.905C872.881 233.931 873.012 233.997 873.144 234.102C873.275 234.207 873.433 234.299 873.617 234.378C873.801 234.457 873.933 234.602 874.012 234.812C874.091 235.022 874.196 235.22 874.327 235.404C874.459 235.588 874.498 235.851 874.446 236.193C874.446 236.771 874.262 237.284 873.893 237.731C873.525 238.178 872.933 238.415 872.118 238.441Z" fill="white"/>
<path id="Vector_15" d="M893.302 250.512C893.302 251.143 893.091 251.669 892.671 252.09C892.25 252.511 891.737 252.721 891.132 252.721H890.856C892.066 254.799 893.67 255.838 895.669 255.838C897.509 255.838 898.851 255.049 899.692 253.471C900.192 252.603 900.442 250.92 900.442 248.421C900.442 245.713 900.087 243.885 899.377 242.938C898.693 242.07 897.93 241.636 897.089 241.636H896.852C894.801 241.636 893.249 242.531 892.197 244.319C892.092 244.503 892 244.608 891.921 244.634C891.842 244.661 891.645 244.687 891.329 244.713C890.882 244.713 890.632 244.634 890.58 244.477C890.527 244.371 890.501 242.07 890.501 237.573V232.484C890.501 231.17 890.567 230.512 890.698 230.512C890.751 230.46 890.803 230.433 890.856 230.433C890.882 230.433 891.158 230.538 891.684 230.749C892.21 230.959 892.934 231.17 893.854 231.38C894.774 231.59 895.761 231.696 896.813 231.696C898.68 231.696 900.468 231.327 902.177 230.591C902.388 230.486 902.559 230.433 902.69 230.433C902.901 230.433 903.006 230.67 903.006 231.143V231.656C900.849 234.207 898.154 235.483 894.919 235.483C894.104 235.483 893.367 235.404 892.71 235.246L892.316 235.167V241.952C892.815 241.584 893.21 241.294 893.499 241.084C893.788 240.874 894.262 240.663 894.919 240.453C895.577 240.243 896.247 240.137 896.931 240.137C899.061 240.137 900.863 240.992 902.335 242.701C903.808 244.411 904.544 246.436 904.544 248.776C904.544 251.196 903.703 253.26 902.02 254.97C900.337 256.679 898.285 257.547 895.866 257.573C893.736 257.573 892.026 256.863 890.738 255.443C889.449 254.023 888.805 252.419 888.805 250.63C888.805 249.999 888.949 249.5 889.239 249.131C889.528 248.763 889.83 248.527 890.146 248.421C890.461 248.316 890.764 248.264 891.053 248.264C891.711 248.264 892.25 248.487 892.671 248.934C893.091 249.381 893.302 249.907 893.302 250.512Z" fill="white"/>
</g>
<g id="Group 298">
<g id="Group_14">
<path id="Vector_16" d="M739 299.017C739 298.675 739.184 298.412 739.552 298.228H764.68C765.075 298.438 765.272 298.701 765.272 299.017C765.272 299.306 765.088 299.556 764.72 299.766L752.176 299.806H739.631C739.21 299.674 739 299.411 739 299.017ZM739 306.67C739 306.275 739.21 306.012 739.631 305.881H764.72C765.088 306.144 765.272 306.407 765.272 306.67C765.272 307.011 765.075 307.274 764.68 307.458H739.552C739.184 307.274 739 307.011 739 306.67Z" fill="white"/>
</g>
<g id="Group_15">
<path id="Vector_17" d="M796.661 312.706C796.188 312.627 794.492 312.588 791.573 312.588C788.522 312.588 786.76 312.627 786.287 312.706H785.932V310.891H787.154C787.68 310.891 788.035 310.891 788.22 310.891C788.404 310.891 788.627 310.865 788.89 310.813C789.153 310.76 789.337 310.694 789.442 310.615C789.548 310.536 789.64 310.431 789.719 310.3C789.745 310.247 789.758 309.537 789.758 308.17V306.197H779.541V304.383L785.498 295.27C789.521 289.169 791.559 286.105 791.612 286.079C791.665 286.026 791.941 286 792.44 286H793.15L793.387 286.237V304.383H797.016V306.197H793.387V308.209C793.387 309.287 793.387 309.918 793.387 310.103C793.387 310.287 793.466 310.444 793.624 310.576C793.834 310.76 794.584 310.865 795.872 310.891H797.016V312.706H796.661ZM789.995 304.383V291.207L781.356 304.343L785.655 304.383H789.995Z" fill="white"/>
<path id="Vector_18" d="M803.17 294.441C802.46 294.441 801.908 294.218 801.513 293.77C801.119 293.323 800.909 292.745 800.882 292.035C800.882 290.588 801.513 289.3 802.776 288.169C804.038 287.038 805.563 286.473 807.352 286.473C808.272 286.473 808.851 286.486 809.087 286.512C811.033 286.828 812.519 287.525 813.545 288.603C814.571 289.681 815.097 290.851 815.123 292.114C815.123 293.481 814.676 294.809 813.782 296.098C812.887 297.387 811.651 298.32 810.074 298.899L809.955 298.978C809.955 299.004 810.074 299.043 810.31 299.096C810.547 299.149 810.928 299.267 811.454 299.451C811.98 299.635 812.48 299.911 812.953 300.279C815.11 301.673 816.188 303.514 816.188 305.802C816.188 307.88 815.373 309.694 813.742 311.246C812.112 312.797 810.047 313.573 807.549 313.573C805.445 313.573 803.63 313.008 802.105 311.877C800.58 310.746 799.817 309.313 799.817 307.577C799.817 306.841 800.054 306.249 800.527 305.802C801.001 305.355 801.592 305.118 802.302 305.092C803.039 305.092 803.644 305.329 804.117 305.802C804.59 306.275 804.827 306.867 804.827 307.577C804.827 307.866 804.788 308.129 804.709 308.366C804.63 308.603 804.538 308.813 804.433 308.997C804.327 309.181 804.183 309.339 803.999 309.471C803.815 309.602 803.657 309.707 803.525 309.786C803.394 309.865 803.262 309.918 803.131 309.944C802.999 309.97 802.894 310.01 802.815 310.062L802.657 310.102C803.999 311.285 805.629 311.877 807.549 311.877C808.995 311.877 810.087 311.18 810.823 309.786C811.27 308.918 811.494 307.59 811.494 305.802V305.013C811.494 302.515 810.652 300.845 808.969 300.003C808.575 299.845 807.772 299.753 806.563 299.727L804.906 299.688L804.788 299.609C804.735 299.53 804.709 299.319 804.709 298.978C804.709 298.504 804.814 298.268 805.024 298.268C805.761 298.268 806.523 298.202 807.312 298.07C808.206 297.939 809.022 297.387 809.758 296.413C810.494 295.44 810.863 293.968 810.863 291.995V291.68C810.863 290.181 810.402 289.142 809.482 288.563C808.903 288.195 808.285 288.011 807.628 288.011C806.786 288.011 806.01 288.156 805.3 288.445C804.59 288.734 804.091 289.037 803.801 289.352C803.512 289.668 803.367 289.826 803.367 289.826H803.486C803.565 289.852 803.67 289.878 803.801 289.905C803.933 289.931 804.064 289.997 804.196 290.102C804.327 290.207 804.485 290.299 804.669 290.378C804.853 290.457 804.985 290.602 805.064 290.812C805.143 291.022 805.248 291.22 805.379 291.404C805.511 291.588 805.55 291.851 805.498 292.193C805.498 292.771 805.314 293.284 804.945 293.731C804.577 294.178 803.985 294.415 803.17 294.441Z" fill="white"/>
<path id="Vector_19" d="M819.541 300.358C819.541 296.072 820.606 292.679 822.736 290.181C824.866 287.682 827.233 286.433 829.837 286.433C831.651 286.433 832.953 286.907 833.742 287.853C834.531 288.8 834.926 289.852 834.926 291.009C834.926 291.667 834.742 292.193 834.373 292.587C834.005 292.982 833.492 293.179 832.835 293.179C832.23 293.179 831.73 292.995 831.336 292.626C830.941 292.258 830.744 291.745 830.744 291.088C830.744 289.931 831.362 289.234 832.598 288.997C832.02 288.419 831.204 288.09 830.152 288.011C828.285 288.011 826.747 288.8 825.537 290.378C824.301 292.114 823.683 294.77 823.683 298.346L823.722 298.504C823.854 298.346 823.959 298.175 824.038 297.991C825.116 296.413 826.523 295.625 828.259 295.625H828.417C829.627 295.625 830.692 295.874 831.612 296.374C832.243 296.742 832.874 297.268 833.506 297.952C834.137 298.636 834.65 299.385 835.044 300.2C835.596 301.489 835.872 302.896 835.872 304.421V305.131C835.872 305.736 835.807 306.302 835.675 306.828C835.386 308.379 834.544 309.891 833.151 311.364C831.757 312.837 829.995 313.573 827.865 313.573C827.128 313.573 826.418 313.468 825.734 313.258C825.051 313.047 824.314 312.653 823.525 312.074C822.736 311.496 822.066 310.72 821.513 309.747C820.961 308.774 820.488 307.498 820.093 305.92C819.699 304.342 819.515 302.488 819.541 300.358ZM828.022 297.045C827.233 297.045 826.55 297.268 825.971 297.715C825.392 298.162 824.945 298.754 824.63 299.49C824.314 300.227 824.091 300.976 823.959 301.739C823.828 302.502 823.749 303.317 823.722 304.185C823.722 306.367 823.88 307.932 824.196 308.879C824.511 309.826 825.011 310.588 825.695 311.167C826.326 311.64 827.023 311.877 827.786 311.877C829.127 311.877 830.152 311.377 830.863 310.378C831.204 309.905 831.441 309.313 831.573 308.603C831.704 307.893 831.77 306.512 831.77 304.461C831.77 302.357 831.704 300.95 831.573 300.24C831.441 299.53 831.204 298.938 830.863 298.465C830.152 297.518 829.206 297.045 828.022 297.045Z" fill="white"/>
</g>
</g>
</g>
</g>
</g>
<g id="436=4(109)">
<g id="Group_16">
<g id="Group_17">
<path id="Vector_20" d="M555.815 355.329C555.377 355.256 553.81 355.22 551.114 355.22C548.296 355.22 546.668 355.256 546.231 355.329H545.903V353.653H547.033C547.519 353.653 547.847 353.653 548.017 353.653C548.187 353.653 548.393 353.629 548.636 353.58C548.879 353.531 549.049 353.471 549.146 353.398C549.243 353.325 549.328 353.228 549.401 353.106C549.426 353.058 549.438 352.402 549.438 351.139V349.317H540V347.64L545.502 339.223C549.219 333.587 551.102 330.757 551.15 330.733C551.199 330.684 551.454 330.66 551.916 330.66H552.572L552.79 330.878V347.64H556.143V349.317H552.79V351.175C552.79 352.171 552.79 352.754 552.79 352.924C552.79 353.094 552.863 353.24 553.009 353.361C553.203 353.531 553.895 353.629 555.086 353.653H556.143V355.329H555.815ZM549.656 347.64V335.47L541.676 347.604L545.648 347.64H549.656Z" fill="white"/>
<path id="Vector_21" d="M561.827 338.458C561.171 338.458 560.661 338.251 560.297 337.838C559.932 337.425 559.738 336.891 559.714 336.235C559.714 334.899 560.297 333.709 561.463 332.664C562.629 331.619 564.038 331.097 565.69 331.097C566.54 331.097 567.074 331.109 567.293 331.134C569.091 331.425 570.463 332.069 571.411 333.065C572.358 334.061 572.844 335.142 572.868 336.308C572.868 337.571 572.455 338.798 571.629 339.988C570.803 341.179 569.661 342.041 568.204 342.575L568.095 342.648C568.095 342.673 568.204 342.709 568.423 342.758C568.641 342.806 568.993 342.916 569.479 343.086C569.965 343.256 570.427 343.511 570.864 343.851C572.856 345.138 573.852 346.839 573.852 348.952C573.852 350.871 573.099 352.548 571.593 353.981C570.087 355.414 568.18 356.131 565.872 356.131C563.928 356.131 562.252 355.609 560.843 354.564C559.434 353.519 558.73 352.195 558.73 350.592C558.73 349.912 558.948 349.365 559.386 348.952C559.823 348.539 560.369 348.321 561.025 348.296C561.706 348.296 562.264 348.515 562.702 348.952C563.139 349.39 563.358 349.936 563.358 350.592C563.358 350.859 563.321 351.102 563.248 351.321C563.175 351.54 563.09 351.734 562.993 351.904C562.896 352.074 562.762 352.22 562.592 352.341C562.422 352.463 562.276 352.56 562.155 352.633C562.034 352.706 561.912 352.754 561.791 352.778C561.669 352.803 561.572 352.839 561.499 352.888L561.353 352.924C562.592 354.017 564.098 354.564 565.872 354.564C567.208 354.564 568.216 353.92 568.896 352.633C569.309 351.831 569.516 350.604 569.516 348.952V348.224C569.516 345.916 568.738 344.373 567.184 343.596C566.819 343.45 566.078 343.365 564.961 343.341L563.43 343.304L563.321 343.231C563.272 343.159 563.248 342.964 563.248 342.648C563.248 342.211 563.345 341.992 563.54 341.992C564.22 341.992 564.924 341.932 565.653 341.81C566.479 341.689 567.232 341.179 567.912 340.28C568.593 339.381 568.933 338.021 568.933 336.199V335.907C568.933 334.522 568.508 333.563 567.657 333.028C567.123 332.688 566.552 332.518 565.945 332.518C565.167 332.518 564.451 332.652 563.795 332.919C563.139 333.186 562.677 333.466 562.41 333.757C562.143 334.049 562.009 334.194 562.009 334.194H562.119C562.191 334.219 562.289 334.243 562.41 334.267C562.532 334.292 562.653 334.352 562.774 334.45C562.896 334.547 563.042 334.632 563.212 334.705C563.382 334.778 563.503 334.911 563.576 335.105C563.649 335.3 563.746 335.482 563.868 335.652C563.989 335.822 564.026 336.065 563.977 336.381C563.977 336.915 563.807 337.389 563.467 337.802C563.127 338.215 562.58 338.434 561.827 338.458Z" fill="white"/>
<path id="Vector_22" d="M576.949 343.924C576.949 339.964 577.933 336.83 579.901 334.522C581.869 332.215 584.055 331.061 586.46 331.061C588.136 331.061 589.339 331.498 590.067 332.373C590.796 333.247 591.161 334.219 591.161 335.288C591.161 335.895 590.991 336.381 590.65 336.745C590.31 337.11 589.837 337.292 589.229 337.292C588.671 337.292 588.209 337.122 587.845 336.782C587.48 336.442 587.298 335.968 587.298 335.361C587.298 334.292 587.869 333.648 589.011 333.429C588.476 332.895 587.723 332.591 586.751 332.518C585.027 332.518 583.606 333.247 582.488 334.705C581.346 336.308 580.775 338.762 580.775 342.065L580.812 342.211C580.933 342.065 581.03 341.907 581.103 341.737C582.099 340.28 583.399 339.551 585.002 339.551H585.148C586.266 339.551 587.249 339.782 588.1 340.243C588.683 340.583 589.266 341.069 589.849 341.701C590.432 342.333 590.906 343.025 591.27 343.778C591.78 344.968 592.035 346.268 592.035 347.677V348.333C592.035 348.892 591.974 349.414 591.853 349.9C591.586 351.333 590.808 352.73 589.521 354.09C588.233 355.451 586.606 356.131 584.638 356.131C583.958 356.131 583.302 356.034 582.67 355.839C582.039 355.645 581.358 355.281 580.63 354.746C579.901 354.212 579.281 353.495 578.771 352.596C578.261 351.697 577.824 350.519 577.459 349.062C577.095 347.604 576.925 345.891 576.949 343.924ZM584.784 340.863C584.055 340.863 583.423 341.069 582.889 341.482C582.354 341.895 581.941 342.442 581.65 343.122C581.358 343.802 581.152 344.495 581.03 345.199C580.909 345.904 580.836 346.657 580.812 347.458C580.812 349.475 580.958 350.92 581.249 351.795C581.541 352.669 582.002 353.374 582.634 353.908C583.217 354.345 583.861 354.564 584.565 354.564C585.804 354.564 586.751 354.102 587.407 353.179C587.723 352.742 587.942 352.195 588.063 351.54C588.185 350.884 588.245 349.608 588.245 347.713C588.245 345.77 588.185 344.47 588.063 343.814C587.942 343.159 587.723 342.612 587.407 342.175C586.751 341.3 585.877 340.863 584.784 340.863Z" fill="white"/>
</g>
<g id="Group_18">
<path id="Vector_23" d="M605.802 342.685C605.802 342.369 605.972 342.126 606.312 341.956H629.524C629.888 342.15 630.07 342.393 630.07 342.685C630.07 342.952 629.9 343.183 629.56 343.377L617.972 343.414H606.385C605.996 343.292 605.802 343.049 605.802 342.685ZM605.802 349.754C605.802 349.39 605.996 349.147 606.385 349.025H629.56C629.9 349.268 630.07 349.511 630.07 349.754C630.07 350.07 629.888 350.313 629.524 350.483H606.312C605.972 350.313 605.802 350.07 605.802 349.754Z" fill="white"/>
</g>
<g id="Group_19">
<path id="Vector_24" d="M659.069 355.329C658.631 355.256 657.064 355.22 654.368 355.22C651.55 355.22 649.922 355.256 649.485 355.329H649.157V353.653H650.287C650.773 353.653 651.1 353.653 651.271 353.653C651.441 353.653 651.647 353.629 651.89 353.58C652.133 353.531 652.303 353.471 652.4 353.398C652.497 353.325 652.582 353.228 652.655 353.106C652.68 353.058 652.692 352.402 652.692 351.139V349.317H643.254V347.64L648.756 339.223C652.473 333.587 654.356 330.757 654.404 330.733C654.453 330.684 654.708 330.66 655.17 330.66H655.825L656.044 330.878V347.64H659.396V349.317H656.044V351.175C656.044 352.171 656.044 352.754 656.044 352.924C656.044 353.094 656.117 353.24 656.263 353.361C656.457 353.531 657.149 353.629 658.34 353.653H659.396V355.329H659.069ZM652.91 347.64V335.47L644.93 347.604L648.902 347.64H652.91Z" fill="white"/>
</g>
<g id="Group_20">
<path id="Vector_25" d="M663.879 346.219C663.879 344.543 664 342.952 664.243 341.446C664.486 339.94 664.765 338.64 665.081 337.547C665.397 336.454 665.846 335.385 666.429 334.34C667.012 333.296 667.474 332.482 667.814 331.899C668.154 331.316 668.664 330.684 669.345 330.004C670.025 329.324 670.426 328.911 670.547 328.765C670.668 328.619 670.972 328.364 671.458 328H671.932H672.077C672.418 328 672.588 328.109 672.588 328.328C672.588 328.401 672.381 328.656 671.968 329.093C671.555 329.53 671.057 330.174 670.474 331.024C669.891 331.874 669.296 332.919 668.689 334.158C668.081 335.397 667.571 337.073 667.158 339.187C666.745 341.3 666.539 343.644 666.539 346.219C666.539 348.794 666.745 351.127 667.158 353.216C667.571 355.305 668.069 356.993 668.652 358.281C669.235 359.568 669.83 360.613 670.438 361.415C671.045 362.216 671.555 362.86 671.968 363.346C672.381 363.832 672.588 364.087 672.588 364.111C672.588 364.33 672.405 364.439 672.041 364.439H671.932H671.458L670.438 363.564C668.154 361.5 666.49 358.925 665.446 355.839C664.401 352.754 663.879 349.547 663.879 346.219Z" fill="white"/>
</g>
<g id="Group_21">
<path id="Vector_26" d="M682.39 334.267L681.916 334.449C681.576 334.571 681.09 334.692 680.458 334.814C679.827 334.935 679.122 335.02 678.345 335.069H677.653V333.393H678.345C679.487 333.344 680.543 333.162 681.515 332.846C682.487 332.53 683.167 332.239 683.556 331.972C683.944 331.704 684.285 331.437 684.576 331.17C684.625 331.097 684.77 331.061 685.013 331.061C685.232 331.061 685.438 331.133 685.633 331.279V342.175L685.669 353.106C685.839 353.276 685.985 353.386 686.106 353.434C686.228 353.483 686.519 353.531 686.981 353.58C687.443 353.629 688.196 353.653 689.24 353.653H690.188V355.329H689.787C689.277 355.256 687.345 355.22 683.993 355.22C680.689 355.22 678.782 355.256 678.272 355.329H677.835V353.653H678.782C679.317 353.653 679.778 353.653 680.167 353.653C680.556 353.653 680.859 353.641 681.078 353.616C681.297 353.592 681.491 353.556 681.661 353.507C681.831 353.459 681.928 353.434 681.952 353.434C681.977 353.434 682.05 353.374 682.171 353.252C682.293 353.131 682.365 353.082 682.39 353.106V334.267Z" fill="white"/>
<path id="Vector_27" d="M696.346 334.012C697.706 332.045 699.565 331.061 701.921 331.061C703.087 331.061 704.253 331.377 705.419 332.008C706.585 332.64 707.533 333.757 708.261 335.361C709.16 337.377 709.61 340.146 709.61 343.669C709.61 347.434 709.087 350.313 708.043 352.305C707.557 353.325 706.889 354.139 706.039 354.746C705.188 355.353 704.447 355.73 703.816 355.876C703.184 356.022 702.565 356.107 701.957 356.131C701.326 356.131 700.694 356.058 700.063 355.912C699.431 355.766 698.69 355.378 697.84 354.746C696.99 354.115 696.322 353.301 695.836 352.305C694.791 350.313 694.269 347.434 694.269 343.669C694.269 339.442 694.961 336.223 696.346 334.012ZM704.545 333.575C703.816 332.798 702.953 332.409 701.957 332.409C700.937 332.409 700.063 332.798 699.334 333.575C698.727 334.207 698.326 335.081 698.131 336.199C697.937 337.316 697.84 339.648 697.84 343.195C697.84 347.033 697.937 349.56 698.131 350.774C698.326 351.989 698.763 352.949 699.443 353.653C700.123 354.382 700.961 354.746 701.957 354.746C702.929 354.746 703.755 354.382 704.435 353.653C705.14 352.924 705.577 351.904 705.747 350.592C705.917 349.28 706.014 346.815 706.039 343.195C706.039 339.673 705.941 337.353 705.747 336.235C705.553 335.118 705.152 334.231 704.545 333.575Z" fill="white"/>
<path id="Vector_28" d="M723.894 344.871C722.728 346.717 721.27 347.641 719.521 347.641C717.626 347.641 716.072 346.924 714.857 345.491C713.642 344.057 712.913 342.527 712.671 340.899C712.622 340.511 712.598 340.025 712.598 339.442V339.15C712.598 336.891 713.436 334.923 715.112 333.247C716.57 331.789 718.173 331.061 719.922 331.061C719.971 331.061 720.043 331.061 720.141 331.061C720.238 331.061 720.335 331.073 720.432 331.097H720.578C720.869 331.097 721.173 331.121 721.489 331.17C721.805 331.219 722.254 331.364 722.837 331.607C723.42 331.85 723.991 332.239 724.55 332.773C725.108 333.308 725.631 334.024 726.117 334.923C727.161 337.061 727.683 339.806 727.683 343.159C727.683 346.56 726.955 349.438 725.497 351.795C724.647 353.155 723.627 354.212 722.436 354.965C721.246 355.718 719.983 356.107 718.647 356.131C717.165 356.131 715.95 355.779 715.003 355.074C714.055 354.37 713.569 353.325 713.545 351.94C713.521 350.556 714.165 349.875 715.476 349.9C716.011 349.9 716.46 350.07 716.825 350.41C717.189 350.75 717.371 351.224 717.371 351.831C717.371 352.268 717.262 352.645 717.043 352.961C716.825 353.276 716.63 353.471 716.46 353.544C716.29 353.617 716.132 353.677 715.986 353.726L715.841 353.762C715.841 353.811 715.926 353.884 716.096 353.981C716.266 354.078 716.582 354.2 717.043 354.345C717.505 354.491 718.015 354.552 718.574 354.528H718.792C720.25 354.528 721.477 353.75 722.473 352.195C723.42 350.835 723.894 348.479 723.894 345.126V344.871ZM719.958 346.292C721.124 346.292 722.06 345.697 722.764 344.507C723.469 343.316 723.833 341.701 723.857 339.66C723.857 337.766 723.76 336.405 723.566 335.579C723.517 335.336 723.444 335.093 723.347 334.85C723.25 334.607 723.08 334.292 722.837 333.903C722.594 333.514 722.23 333.186 721.744 332.919C721.258 332.652 720.687 332.53 720.031 332.555C719.108 332.555 718.319 332.883 717.663 333.539C717.153 334.073 716.825 334.705 716.679 335.433C716.533 336.162 716.448 337.438 716.424 339.26C716.424 341.276 716.485 342.636 716.606 343.341C716.727 344.045 716.97 344.616 717.335 345.053C717.942 345.879 718.817 346.292 719.958 346.292Z" fill="white"/>
</g>
<g id="Group_22">
<path id="Vector_29" d="M731.473 328.036L731.619 328C731.74 328 731.862 328 731.983 328H732.421L733.441 328.874C735.724 330.939 737.389 333.514 738.433 336.599C739.478 339.685 740 342.891 740 346.219C740 347.871 739.879 349.462 739.636 350.993C739.393 352.523 739.113 353.823 738.797 354.892C738.482 355.961 738.032 357.03 737.449 358.099C736.866 359.167 736.405 359.981 736.065 360.54C735.724 361.099 735.226 361.718 734.571 362.398C733.915 363.079 733.526 363.479 733.404 363.601C733.283 363.722 733.004 363.953 732.566 364.293C732.494 364.366 732.445 364.415 732.421 364.439H731.983C731.789 364.439 731.655 364.439 731.583 364.439C731.51 364.439 731.449 364.403 731.4 364.33C731.352 364.257 731.315 364.147 731.291 364.002C731.315 363.977 731.449 363.819 731.692 363.528C735.457 359.617 737.34 353.847 737.34 346.219C737.34 338.591 735.457 332.822 731.692 328.911C731.449 328.619 731.315 328.461 731.291 328.437C731.291 328.243 731.352 328.109 731.473 328.036Z" fill="white"/>
</g>
</g>
</g>
</g>
<path id="Ellipse 29_5" d="M374 227C364.807 227 355.705 228.811 347.212 232.328C338.719 235.846 331.003 241.002 324.503 247.503C318.002 254.003 312.846 261.719 309.328 270.212C305.811 278.705 304 287.807 304 297H321.595C321.595 290.118 322.951 283.304 325.584 276.946C328.218 270.588 332.078 264.811 336.944 259.944C341.811 255.078 347.588 251.218 353.946 248.584C360.304 245.951 367.118 244.595 374 244.595V227Z" fill="white"/>
</g>
</g>
</svg>
