<svg viewBox="0 0 994 688" fill="none" xmlns="http://www.w3.org/2000/svg">
<g id="0127110">
<g id="enunciado">
<g id="Group 71">
<path id="Rectangle 1" d="M41 57.8717C41 27.5336 63.5821 2.93982 91.4386 2.93982H961V383.068C961 413.406 938.418 438 910.561 438H41V57.8717Z" fill="#02071A"/>
<path id="Rectangle 1 (Stroke)" fill-rule="evenodd" clip-rule="evenodd" d="M955.956 8.38783H91.4386C66.3678 8.38783 46.0439 30.5246 46.0439 57.8316V432.506H910.561C935.632 432.506 955.956 410.369 955.956 383.062V8.38783ZM91.4386 2.89407C63.5821 2.89407 41 27.4905 41 57.8316V438H910.561C938.418 438 961 413.403 961 383.062V2.89407H91.4386Z" fill="#CD08D1"/>
<path id="Rectangle 14" d="M95.6251 3.03843C122.602 -3.79803 961 3.03843 961 3.03843V32.6349C961 32.6349 81.351 21.7566 50.0791 32.6349C59.8095 16.9373 68.6481 9.87489 95.6251 3.03843Z" fill="#CD08D1"/>
<path id="Rectangle 15" d="M929.076 9.40677H959.065V384.2C955.384 409.634 947.755 418.982 929.076 431.184C934.573 411.203 929.076 9.40677 929.076 9.40677Z" fill="#CD08D1"/>
</g>
<g id="Indique el n&#195;&#186;mero total de sectores circulares en la siguiente figura:">
<path d="M72.5918 86H69.2168V60.4062H72.5918V86Z" fill="white"/>
<path d="M81.3457 66.9805L81.4512 69.3711C82.9043 67.543 84.8027 66.6289 87.1465 66.6289C91.166 66.6289 93.1934 68.8965 93.2285 73.4316V86H89.9766V73.4141C89.9648 72.043 89.6484 71.0293 89.0273 70.373C88.418 69.7168 87.4629 69.3887 86.1621 69.3887C85.1074 69.3887 84.1816 69.6699 83.3848 70.2324C82.5879 70.7949 81.9668 71.5332 81.5215 72.4473V86H78.2695V66.9805H81.3457Z" fill="white"/>
<path d="M97.3418 76.332C97.3418 73.4141 98.0332 71.0703 99.416 69.3008C100.799 67.5195 102.609 66.6289 104.848 66.6289C107.074 66.6289 108.838 67.3906 110.139 68.9141V59H113.391V86H110.402L110.244 83.9609C108.943 85.5547 107.133 86.3516 104.812 86.3516C102.609 86.3516 100.811 85.4492 99.416 83.6445C98.0332 81.8398 97.3418 79.4844 97.3418 76.5781V76.332ZM100.594 76.7012C100.594 78.8574 101.039 80.5449 101.93 81.7637C102.82 82.9824 104.051 83.5918 105.621 83.5918C107.684 83.5918 109.189 82.666 110.139 80.8145V72.0781C109.166 70.2852 107.672 69.3887 105.656 69.3887C104.062 69.3887 102.82 70.0039 101.93 71.2344C101.039 72.4648 100.594 74.2871 100.594 76.7012Z" fill="white"/>
<path d="M121.986 86H118.734V66.9805H121.986V86ZM118.471 61.9355C118.471 61.4082 118.629 60.9629 118.945 60.5996C119.273 60.2363 119.754 60.0547 120.387 60.0547C121.02 60.0547 121.5 60.2363 121.828 60.5996C122.156 60.9629 122.32 61.4082 122.32 61.9355C122.32 62.4629 122.156 62.9023 121.828 63.2539C121.5 63.6055 121.02 63.7812 120.387 63.7812C119.754 63.7812 119.273 63.6055 118.945 63.2539C118.629 62.9023 118.471 62.4629 118.471 61.9355Z" fill="white"/>
<path d="M126.416 76.332C126.416 73.3438 127.102 70.9824 128.473 69.248C129.844 67.502 131.684 66.6289 133.992 66.6289C136.242 66.6289 138.018 67.3848 139.318 68.8965L139.459 66.9805H142.447V93.3125H139.195V84.2422C137.883 85.6484 136.137 86.3516 133.957 86.3516C131.66 86.3516 129.826 85.4609 128.455 83.6797C127.096 81.8867 126.416 79.5137 126.416 76.5605V76.332ZM129.668 76.7012C129.668 78.8809 130.125 80.5918 131.039 81.834C131.965 83.0762 133.207 83.6973 134.766 83.6973C136.699 83.6973 138.176 82.8418 139.195 81.1309V71.8145C138.164 70.1387 136.699 69.3008 134.801 69.3008C133.23 69.3008 131.982 69.9277 131.057 71.1816C130.131 72.4238 129.668 74.2637 129.668 76.7012Z" fill="white"/>
<path d="M159.41 84.1191C158.145 85.6074 156.287 86.3516 153.838 86.3516C151.811 86.3516 150.264 85.7656 149.197 84.5938C148.143 83.4102 147.609 81.6641 147.598 79.3555V66.9805H150.85V79.2676C150.85 82.1504 152.021 83.5918 154.365 83.5918C156.85 83.5918 158.502 82.666 159.322 80.8145V66.9805H162.574V86H159.48L159.41 84.1191Z" fill="white"/>
<path d="M175.424 86.3516C172.846 86.3516 170.748 85.5078 169.131 83.8203C167.514 82.1211 166.705 79.8535 166.705 77.0176V76.4199C166.705 74.5332 167.062 72.8516 167.777 71.375C168.504 69.8867 169.512 68.7266 170.801 67.8945C172.102 67.0508 173.508 66.6289 175.02 66.6289C177.492 66.6289 179.414 67.4434 180.785 69.0723C182.156 70.7012 182.842 73.0332 182.842 76.0684V77.4219H169.957C170.004 79.2969 170.549 80.8145 171.592 81.9746C172.646 83.123 173.982 83.6973 175.6 83.6973C176.748 83.6973 177.721 83.4629 178.518 82.9941C179.314 82.5254 180.012 81.9043 180.609 81.1309L182.596 82.6777C181.002 85.127 178.611 86.3516 175.424 86.3516ZM175.02 69.3008C173.707 69.3008 172.605 69.7812 171.715 70.7422C170.824 71.6914 170.273 73.0273 170.062 74.75H179.59V74.5039C179.496 72.8516 179.051 71.5742 178.254 70.6719C177.457 69.7578 176.379 69.3008 175.02 69.3008Z" fill="white"/>
<path d="M203.443 86.3516C200.865 86.3516 198.768 85.5078 197.15 83.8203C195.533 82.1211 194.725 79.8535 194.725 77.0176V76.4199C194.725 74.5332 195.082 72.8516 195.797 71.375C196.523 69.8867 197.531 68.7266 198.82 67.8945C200.121 67.0508 201.527 66.6289 203.039 66.6289C205.512 66.6289 207.434 67.4434 208.805 69.0723C210.176 70.7012 210.861 73.0332 210.861 76.0684V77.4219H197.977C198.023 79.2969 198.568 80.8145 199.611 81.9746C200.666 83.123 202.002 83.6973 203.619 83.6973C204.768 83.6973 205.74 83.4629 206.537 82.9941C207.334 82.5254 208.031 81.9043 208.629 81.1309L210.615 82.6777C209.021 85.127 206.631 86.3516 203.443 86.3516ZM203.039 69.3008C201.727 69.3008 200.625 69.7812 199.734 70.7422C198.844 71.6914 198.293 73.0273 198.082 74.75H207.609V74.5039C207.516 72.8516 207.07 71.5742 206.273 70.6719C205.477 69.7578 204.398 69.3008 203.039 69.3008Z" fill="white"/>
<path d="M218.174 86H214.922V59H218.174V86Z" fill="white"/>
<path d="M235.4 66.9805L235.506 69.3711C236.959 67.543 238.857 66.6289 241.201 66.6289C245.221 66.6289 247.248 68.8965 247.283 73.4316V86H244.031V73.4141C244.02 72.043 243.703 71.0293 243.082 70.373C242.473 69.7168 241.518 69.3887 240.217 69.3887C239.162 69.3887 238.236 69.6699 237.439 70.2324C236.643 70.7949 236.021 71.5332 235.576 72.4473V86H232.324V66.9805H235.4Z" fill="white"/>
<path d="M263.93 84.1191C262.664 85.6074 260.807 86.3516 258.357 86.3516C256.33 86.3516 254.783 85.7656 253.717 84.5938C252.662 83.4102 252.129 81.6641 252.117 79.3555V66.9805H255.369V79.2676C255.369 82.1504 256.541 83.5918 258.885 83.5918C261.369 83.5918 263.021 82.666 263.842 80.8145V66.9805H267.094V86H264L263.93 84.1191ZM261.293 59H265.23L260.52 64.168H257.9L261.293 59Z" fill="white"/>
<path d="M275.109 66.9805L275.197 69.0898C276.592 67.4492 278.473 66.6289 280.84 66.6289C283.5 66.6289 285.311 67.6484 286.271 69.6875C286.904 68.7734 287.725 68.0352 288.732 67.4727C289.752 66.9102 290.953 66.6289 292.336 66.6289C296.508 66.6289 298.629 68.8379 298.699 73.2559V86H295.447V73.4492C295.447 72.0898 295.137 71.0762 294.516 70.4082C293.895 69.7285 292.852 69.3887 291.387 69.3887C290.18 69.3887 289.178 69.752 288.381 70.4785C287.584 71.1934 287.121 72.1602 286.992 73.3789V86H283.723V73.5371C283.723 70.7715 282.369 69.3887 279.662 69.3887C277.529 69.3887 276.07 70.2969 275.285 72.1133V86H272.033V66.9805H275.109Z" fill="white"/>
<path d="M311.514 86.3516C308.936 86.3516 306.838 85.5078 305.221 83.8203C303.604 82.1211 302.795 79.8535 302.795 77.0176V76.4199C302.795 74.5332 303.152 72.8516 303.867 71.375C304.594 69.8867 305.602 68.7266 306.891 67.8945C308.191 67.0508 309.598 66.6289 311.109 66.6289C313.582 66.6289 315.504 67.4434 316.875 69.0723C318.246 70.7012 318.932 73.0332 318.932 76.0684V77.4219H306.047C306.094 79.2969 306.639 80.8145 307.682 81.9746C308.736 83.123 310.072 83.6973 311.689 83.6973C312.838 83.6973 313.811 83.4629 314.607 82.9941C315.404 82.5254 316.102 81.9043 316.699 81.1309L318.686 82.6777C317.092 85.127 314.701 86.3516 311.514 86.3516ZM311.109 69.3008C309.797 69.3008 308.695 69.7812 307.805 70.7422C306.914 71.6914 306.363 73.0273 306.152 74.75H315.68V74.5039C315.586 72.8516 315.141 71.5742 314.344 70.6719C313.547 69.7578 312.469 69.3008 311.109 69.3008Z" fill="white"/>
<path d="M331.904 69.8984C331.412 69.8164 330.879 69.7754 330.305 69.7754C328.172 69.7754 326.725 70.6836 325.963 72.5V86H322.711V66.9805H325.875L325.928 69.1777C326.994 67.4785 328.506 66.6289 330.463 66.6289C331.096 66.6289 331.576 66.7109 331.904 66.875V69.8984Z" fill="white"/>
<path d="M333.697 76.3145C333.697 74.4512 334.061 72.7754 334.787 71.2871C335.525 69.7988 336.545 68.6504 337.846 67.8418C339.158 67.0332 340.652 66.6289 342.328 66.6289C344.918 66.6289 347.01 67.5254 348.604 69.3184C350.209 71.1113 351.012 73.4961 351.012 76.4727V76.7012C351.012 78.5527 350.654 80.2168 349.939 81.6934C349.236 83.1582 348.223 84.3008 346.898 85.1211C345.586 85.9414 344.074 86.3516 342.363 86.3516C339.785 86.3516 337.693 85.4551 336.088 83.6621C334.494 81.8691 333.697 79.4961 333.697 76.543V76.3145ZM336.967 76.7012C336.967 78.8105 337.453 80.5039 338.426 81.7812C339.41 83.0586 340.723 83.6973 342.363 83.6973C344.016 83.6973 345.328 83.0527 346.301 81.7637C347.273 80.4629 347.76 78.6465 347.76 76.3145C347.76 74.2285 347.262 72.541 346.266 71.252C345.281 69.9512 343.969 69.3008 342.328 69.3008C340.723 69.3008 339.428 69.9395 338.443 71.2168C337.459 72.4941 336.967 74.3223 336.967 76.7012Z" fill="white"/>
<path d="M368.432 62.375V66.9805H371.982V69.4941H368.432V81.2891C368.432 82.0508 368.59 82.625 368.906 83.0117C369.223 83.3867 369.762 83.5742 370.523 83.5742C370.898 83.5742 371.414 83.5039 372.07 83.3633V86C371.215 86.2344 370.383 86.3516 369.574 86.3516C368.121 86.3516 367.025 85.9121 366.287 85.0332C365.549 84.1543 365.18 82.9062 365.18 81.2891V69.4941H361.717V66.9805H365.18V62.375H368.432Z" fill="white"/>
<path d="M374.584 76.3145C374.584 74.4512 374.947 72.7754 375.674 71.2871C376.412 69.7988 377.432 68.6504 378.732 67.8418C380.045 67.0332 381.539 66.6289 383.215 66.6289C385.805 66.6289 387.896 67.5254 389.49 69.3184C391.096 71.1113 391.898 73.4961 391.898 76.4727V76.7012C391.898 78.5527 391.541 80.2168 390.826 81.6934C390.123 83.1582 389.109 84.3008 387.785 85.1211C386.473 85.9414 384.961 86.3516 383.25 86.3516C380.672 86.3516 378.58 85.4551 376.975 83.6621C375.381 81.8691 374.584 79.4961 374.584 76.543V76.3145ZM377.854 76.7012C377.854 78.8105 378.34 80.5039 379.312 81.7812C380.297 83.0586 381.609 83.6973 383.25 83.6973C384.902 83.6973 386.215 83.0527 387.188 81.7637C388.16 80.4629 388.646 78.6465 388.646 76.3145C388.646 74.2285 388.148 72.541 387.152 71.252C386.168 69.9512 384.855 69.3008 383.215 69.3008C381.609 69.3008 380.314 69.9395 379.33 71.2168C378.346 72.4941 377.854 74.3223 377.854 76.7012Z" fill="white"/>
<path d="M400.389 62.375V66.9805H403.939V69.4941H400.389V81.2891C400.389 82.0508 400.547 82.625 400.863 83.0117C401.18 83.3867 401.719 83.5742 402.48 83.5742C402.855 83.5742 403.371 83.5039 404.027 83.3633V86C403.172 86.2344 402.34 86.3516 401.531 86.3516C400.078 86.3516 398.982 85.9121 398.244 85.0332C397.506 84.1543 397.137 82.9062 397.137 81.2891V69.4941H393.674V66.9805H397.137V62.375H400.389Z" fill="white"/>
<path d="M419.496 86C419.309 85.625 419.156 84.957 419.039 83.9961C417.527 85.5664 415.723 86.3516 413.625 86.3516C411.75 86.3516 410.209 85.8242 409.002 84.7695C407.807 83.7031 407.209 82.3555 407.209 80.7266C407.209 78.7461 407.959 77.2109 409.459 76.1211C410.971 75.0195 413.092 74.4688 415.822 74.4688H418.986V72.9746C418.986 71.8379 418.646 70.9355 417.967 70.2676C417.287 69.5879 416.285 69.248 414.961 69.248C413.801 69.248 412.828 69.541 412.043 70.127C411.258 70.7129 410.865 71.4219 410.865 72.2539H407.596C407.596 71.3047 407.93 70.3906 408.598 69.5117C409.277 68.6211 410.191 67.918 411.34 67.4023C412.5 66.8867 413.771 66.6289 415.154 66.6289C417.346 66.6289 419.062 67.1797 420.305 68.2812C421.547 69.3711 422.191 70.877 422.238 72.7988V81.5527C422.238 83.2988 422.461 84.6875 422.906 85.7188V86H419.496ZM414.1 83.5215C415.119 83.5215 416.086 83.2578 417 82.7305C417.914 82.2031 418.576 81.5176 418.986 80.6738V76.7715H416.438C412.453 76.7715 410.461 77.9375 410.461 80.2695C410.461 81.2891 410.801 82.0859 411.48 82.6602C412.16 83.2344 413.033 83.5215 414.1 83.5215Z" fill="white"/>
<path d="M430.869 86H427.617V59H430.869V86Z" fill="white"/>
<path d="M444.229 76.332C444.229 73.4141 444.92 71.0703 446.303 69.3008C447.686 67.5195 449.496 66.6289 451.734 66.6289C453.961 66.6289 455.725 67.3906 457.025 68.9141V59H460.277V86H457.289L457.131 83.9609C455.83 85.5547 454.02 86.3516 451.699 86.3516C449.496 86.3516 447.697 85.4492 446.303 83.6445C444.92 81.8398 444.229 79.4844 444.229 76.5781V76.332ZM447.48 76.7012C447.48 78.8574 447.926 80.5449 448.816 81.7637C449.707 82.9824 450.938 83.5918 452.508 83.5918C454.57 83.5918 456.076 82.666 457.025 80.8145V72.0781C456.053 70.2852 454.559 69.3887 452.543 69.3887C450.949 69.3887 449.707 70.0039 448.816 71.2344C447.926 72.4648 447.48 74.2871 447.48 76.7012Z" fill="white"/>
<path d="M473.232 86.3516C470.654 86.3516 468.557 85.5078 466.939 83.8203C465.322 82.1211 464.514 79.8535 464.514 77.0176V76.4199C464.514 74.5332 464.871 72.8516 465.586 71.375C466.312 69.8867 467.32 68.7266 468.609 67.8945C469.91 67.0508 471.316 66.6289 472.828 66.6289C475.301 66.6289 477.223 67.4434 478.594 69.0723C479.965 70.7012 480.65 73.0332 480.65 76.0684V77.4219H467.766C467.812 79.2969 468.357 80.8145 469.4 81.9746C470.455 83.123 471.791 83.6973 473.408 83.6973C474.557 83.6973 475.529 83.4629 476.326 82.9941C477.123 82.5254 477.82 81.9043 478.418 81.1309L480.404 82.6777C478.811 85.127 476.42 86.3516 473.232 86.3516ZM472.828 69.3008C471.516 69.3008 470.414 69.7812 469.523 70.7422C468.633 71.6914 468.082 73.0273 467.871 74.75H477.398V74.5039C477.305 72.8516 476.859 71.5742 476.062 70.6719C475.266 69.7578 474.188 69.3008 472.828 69.3008Z" fill="white"/>
<path d="M504.434 80.9551C504.434 80.0762 504.1 79.3965 503.432 78.916C502.775 78.4238 501.621 78.002 499.969 77.6504C498.328 77.2988 497.021 76.877 496.049 76.3848C495.088 75.8926 494.373 75.3066 493.904 74.627C493.447 73.9473 493.219 73.1387 493.219 72.2012C493.219 70.6426 493.875 69.3242 495.188 68.2461C496.512 67.168 498.199 66.6289 500.25 66.6289C502.406 66.6289 504.152 67.1855 505.488 68.2988C506.836 69.4121 507.51 70.8359 507.51 72.5703H504.24C504.24 71.6797 503.859 70.9121 503.098 70.2676C502.348 69.623 501.398 69.3008 500.25 69.3008C499.066 69.3008 498.141 69.5586 497.473 70.0742C496.805 70.5898 496.471 71.2637 496.471 72.0957C496.471 72.8809 496.781 73.4727 497.402 73.8711C498.023 74.2695 499.143 74.6504 500.76 75.0137C502.389 75.377 503.707 75.8105 504.715 76.3145C505.723 76.8184 506.467 77.4277 506.947 78.1426C507.439 78.8457 507.686 79.707 507.686 80.7266C507.686 82.4258 507.006 83.791 505.646 84.8223C504.287 85.8418 502.523 86.3516 500.355 86.3516C498.832 86.3516 497.484 86.082 496.312 85.543C495.141 85.0039 494.221 84.2539 493.553 83.293C492.896 82.3203 492.568 81.2715 492.568 80.1465H495.82C495.879 81.2363 496.312 82.1035 497.121 82.748C497.941 83.3809 499.02 83.6973 500.355 83.6973C501.586 83.6973 502.57 83.4512 503.309 82.959C504.059 82.4551 504.434 81.7871 504.434 80.9551Z" fill="white"/>
<path d="M519.814 86.3516C517.236 86.3516 515.139 85.5078 513.521 83.8203C511.904 82.1211 511.096 79.8535 511.096 77.0176V76.4199C511.096 74.5332 511.453 72.8516 512.168 71.375C512.895 69.8867 513.902 68.7266 515.191 67.8945C516.492 67.0508 517.898 66.6289 519.41 66.6289C521.883 66.6289 523.805 67.4434 525.176 69.0723C526.547 70.7012 527.232 73.0332 527.232 76.0684V77.4219H514.348C514.395 79.2969 514.939 80.8145 515.982 81.9746C517.037 83.123 518.373 83.6973 519.99 83.6973C521.139 83.6973 522.111 83.4629 522.908 82.9941C523.705 82.5254 524.402 81.9043 525 81.1309L526.986 82.6777C525.393 85.127 523.002 86.3516 519.814 86.3516ZM519.41 69.3008C518.098 69.3008 516.996 69.7812 516.105 70.7422C515.215 71.6914 514.664 73.0273 514.453 74.75H523.98V74.5039C523.887 72.8516 523.441 71.5742 522.645 70.6719C521.848 69.7578 520.77 69.3008 519.41 69.3008Z" fill="white"/>
<path d="M538.641 83.6973C539.801 83.6973 540.814 83.3457 541.682 82.6426C542.549 81.9395 543.029 81.0605 543.123 80.0059H546.199C546.141 81.0957 545.766 82.1328 545.074 83.1172C544.383 84.1016 543.457 84.8867 542.297 85.4727C541.148 86.0586 539.93 86.3516 538.641 86.3516C536.051 86.3516 533.988 85.4902 532.453 83.7676C530.93 82.0332 530.168 79.666 530.168 76.666V76.1211C530.168 74.2695 530.508 72.623 531.188 71.1816C531.867 69.7402 532.84 68.6211 534.105 67.8242C535.383 67.0273 536.889 66.6289 538.623 66.6289C540.756 66.6289 542.525 67.2676 543.932 68.5449C545.35 69.8223 546.105 71.4805 546.199 73.5195H543.123C543.029 72.2891 542.561 71.2812 541.717 70.4961C540.885 69.6992 539.854 69.3008 538.623 69.3008C536.971 69.3008 535.688 69.8984 534.773 71.0938C533.871 72.2773 533.42 73.9941 533.42 76.2441V76.8594C533.42 79.0508 533.871 80.7383 534.773 81.9219C535.676 83.1055 536.965 83.6973 538.641 83.6973Z" fill="white"/>
<path d="M554.268 62.375V66.9805H557.818V69.4941H554.268V81.2891C554.268 82.0508 554.426 82.625 554.742 83.0117C555.059 83.3867 555.598 83.5742 556.359 83.5742C556.734 83.5742 557.25 83.5039 557.906 83.3633V86C557.051 86.2344 556.219 86.3516 555.41 86.3516C553.957 86.3516 552.861 85.9121 552.123 85.0332C551.385 84.1543 551.016 82.9062 551.016 81.2891V69.4941H547.553V66.9805H551.016V62.375H554.268Z" fill="white"/>
<path d="M560.42 76.3145C560.42 74.4512 560.783 72.7754 561.51 71.2871C562.248 69.7988 563.268 68.6504 564.568 67.8418C565.881 67.0332 567.375 66.6289 569.051 66.6289C571.641 66.6289 573.732 67.5254 575.326 69.3184C576.932 71.1113 577.734 73.4961 577.734 76.4727V76.7012C577.734 78.5527 577.377 80.2168 576.662 81.6934C575.959 83.1582 574.945 84.3008 573.621 85.1211C572.309 85.9414 570.797 86.3516 569.086 86.3516C566.508 86.3516 564.416 85.4551 562.811 83.6621C561.217 81.8691 560.42 79.4961 560.42 76.543V76.3145ZM563.689 76.7012C563.689 78.8105 564.176 80.5039 565.148 81.7812C566.133 83.0586 567.445 83.6973 569.086 83.6973C570.738 83.6973 572.051 83.0527 573.023 81.7637C573.996 80.4629 574.482 78.6465 574.482 76.3145C574.482 74.2285 573.984 72.541 572.988 71.252C572.004 69.9512 570.691 69.3008 569.051 69.3008C567.445 69.3008 566.15 69.9395 565.166 71.2168C564.182 72.4941 563.689 74.3223 563.689 76.7012Z" fill="white"/>
<path d="M591.006 69.8984C590.514 69.8164 589.98 69.7754 589.406 69.7754C587.273 69.7754 585.826 70.6836 585.064 72.5V86H581.812V66.9805H584.977L585.029 69.1777C586.096 67.4785 587.607 66.6289 589.564 66.6289C590.197 66.6289 590.678 66.7109 591.006 66.875V69.8984Z" fill="white"/>
<path d="M601.553 86.3516C598.975 86.3516 596.877 85.5078 595.26 83.8203C593.643 82.1211 592.834 79.8535 592.834 77.0176V76.4199C592.834 74.5332 593.191 72.8516 593.906 71.375C594.633 69.8867 595.641 68.7266 596.93 67.8945C598.23 67.0508 599.637 66.6289 601.148 66.6289C603.621 66.6289 605.543 67.4434 606.914 69.0723C608.285 70.7012 608.971 73.0332 608.971 76.0684V77.4219H596.086C596.133 79.2969 596.678 80.8145 597.721 81.9746C598.775 83.123 600.111 83.6973 601.729 83.6973C602.877 83.6973 603.85 83.4629 604.646 82.9941C605.443 82.5254 606.141 81.9043 606.738 81.1309L608.725 82.6777C607.131 85.127 604.74 86.3516 601.553 86.3516ZM601.148 69.3008C599.836 69.3008 598.734 69.7812 597.844 70.7422C596.953 71.6914 596.402 73.0273 596.191 74.75H605.719V74.5039C605.625 72.8516 605.18 71.5742 604.383 70.6719C603.586 69.7578 602.508 69.3008 601.148 69.3008Z" fill="white"/>
<path d="M623.824 80.9551C623.824 80.0762 623.49 79.3965 622.822 78.916C622.166 78.4238 621.012 78.002 619.359 77.6504C617.719 77.2988 616.412 76.877 615.439 76.3848C614.479 75.8926 613.764 75.3066 613.295 74.627C612.838 73.9473 612.609 73.1387 612.609 72.2012C612.609 70.6426 613.266 69.3242 614.578 68.2461C615.902 67.168 617.59 66.6289 619.641 66.6289C621.797 66.6289 623.543 67.1855 624.879 68.2988C626.227 69.4121 626.9 70.8359 626.9 72.5703H623.631C623.631 71.6797 623.25 70.9121 622.488 70.2676C621.738 69.623 620.789 69.3008 619.641 69.3008C618.457 69.3008 617.531 69.5586 616.863 70.0742C616.195 70.5898 615.861 71.2637 615.861 72.0957C615.861 72.8809 616.172 73.4727 616.793 73.8711C617.414 74.2695 618.533 74.6504 620.15 75.0137C621.779 75.377 623.098 75.8105 624.105 76.3145C625.113 76.8184 625.857 77.4277 626.338 78.1426C626.83 78.8457 627.076 79.707 627.076 80.7266C627.076 82.4258 626.396 83.791 625.037 84.8223C623.678 85.8418 621.914 86.3516 619.746 86.3516C618.223 86.3516 616.875 86.082 615.703 85.543C614.531 85.0039 613.611 84.2539 612.943 83.293C612.287 82.3203 611.959 81.2715 611.959 80.1465H615.211C615.27 81.2363 615.703 82.1035 616.512 82.748C617.332 83.3809 618.41 83.6973 619.746 83.6973C620.977 83.6973 621.961 83.4512 622.699 82.959C623.449 82.4551 623.824 81.7871 623.824 80.9551Z" fill="white"/>
<path d="M647.871 83.6973C649.031 83.6973 650.045 83.3457 650.912 82.6426C651.779 81.9395 652.26 81.0605 652.354 80.0059H655.43C655.371 81.0957 654.996 82.1328 654.305 83.1172C653.613 84.1016 652.688 84.8867 651.527 85.4727C650.379 86.0586 649.16 86.3516 647.871 86.3516C645.281 86.3516 643.219 85.4902 641.684 83.7676C640.16 82.0332 639.398 79.666 639.398 76.666V76.1211C639.398 74.2695 639.738 72.623 640.418 71.1816C641.098 69.7402 642.07 68.6211 643.336 67.8242C644.613 67.0273 646.119 66.6289 647.854 66.6289C649.986 66.6289 651.756 67.2676 653.162 68.5449C654.58 69.8223 655.336 71.4805 655.43 73.5195H652.354C652.26 72.2891 651.791 71.2812 650.947 70.4961C650.115 69.6992 649.084 69.3008 647.854 69.3008C646.201 69.3008 644.918 69.8984 644.004 71.0938C643.102 72.2773 642.65 73.9941 642.65 76.2441V76.8594C642.65 79.0508 643.102 80.7383 644.004 81.9219C644.906 83.1055 646.195 83.6973 647.871 83.6973Z" fill="white"/>
<path d="M662.619 86H659.367V66.9805H662.619V86ZM659.104 61.9355C659.104 61.4082 659.262 60.9629 659.578 60.5996C659.906 60.2363 660.387 60.0547 661.02 60.0547C661.652 60.0547 662.133 60.2363 662.461 60.5996C662.789 60.9629 662.953 61.4082 662.953 61.9355C662.953 62.4629 662.789 62.9023 662.461 63.2539C662.133 63.6055 661.652 63.7812 661.02 63.7812C660.387 63.7812 659.906 63.6055 659.578 63.2539C659.262 62.9023 659.104 62.4629 659.104 61.9355Z" fill="white"/>
<path d="M677.033 69.8984C676.541 69.8164 676.008 69.7754 675.434 69.7754C673.301 69.7754 671.854 70.6836 671.092 72.5V86H667.84V66.9805H671.004L671.057 69.1777C672.123 67.4785 673.635 66.6289 675.592 66.6289C676.225 66.6289 676.705 66.7109 677.033 66.875V69.8984Z" fill="white"/>
<path d="M687.316 83.6973C688.477 83.6973 689.49 83.3457 690.357 82.6426C691.225 81.9395 691.705 81.0605 691.799 80.0059H694.875C694.816 81.0957 694.441 82.1328 693.75 83.1172C693.059 84.1016 692.133 84.8867 690.973 85.4727C689.824 86.0586 688.605 86.3516 687.316 86.3516C684.727 86.3516 682.664 85.4902 681.129 83.7676C679.605 82.0332 678.844 79.666 678.844 76.666V76.1211C678.844 74.2695 679.184 72.623 679.863 71.1816C680.543 69.7402 681.516 68.6211 682.781 67.8242C684.059 67.0273 685.564 66.6289 687.299 66.6289C689.432 66.6289 691.201 67.2676 692.607 68.5449C694.025 69.8223 694.781 71.4805 694.875 73.5195H691.799C691.705 72.2891 691.236 71.2812 690.393 70.4961C689.561 69.6992 688.529 69.3008 687.299 69.3008C685.646 69.3008 684.363 69.8984 683.449 71.0938C682.547 72.2773 682.096 73.9941 682.096 76.2441V76.8594C682.096 79.0508 682.547 80.7383 683.449 81.9219C684.352 83.1055 685.641 83.6973 687.316 83.6973Z" fill="white"/>
<path d="M710.273 84.1191C709.008 85.6074 707.15 86.3516 704.701 86.3516C702.674 86.3516 701.127 85.7656 700.061 84.5938C699.006 83.4102 698.473 81.6641 698.461 79.3555V66.9805H701.713V79.2676C701.713 82.1504 702.885 83.5918 705.229 83.5918C707.713 83.5918 709.365 82.666 710.186 80.8145V66.9805H713.438V86H710.344L710.273 84.1191Z" fill="white"/>
<path d="M721.928 86H718.676V59H721.928V86Z" fill="white"/>
<path d="M738.891 86C738.703 85.625 738.551 84.957 738.434 83.9961C736.922 85.5664 735.117 86.3516 733.02 86.3516C731.145 86.3516 729.604 85.8242 728.396 84.7695C727.201 83.7031 726.604 82.3555 726.604 80.7266C726.604 78.7461 727.354 77.2109 728.854 76.1211C730.365 75.0195 732.486 74.4688 735.217 74.4688H738.381V72.9746C738.381 71.8379 738.041 70.9355 737.361 70.2676C736.682 69.5879 735.68 69.248 734.355 69.248C733.195 69.248 732.223 69.541 731.438 70.127C730.652 70.7129 730.26 71.4219 730.26 72.2539H726.99C726.99 71.3047 727.324 70.3906 727.992 69.5117C728.672 68.6211 729.586 67.918 730.734 67.4023C731.895 66.8867 733.166 66.6289 734.549 66.6289C736.74 66.6289 738.457 67.1797 739.699 68.2812C740.941 69.3711 741.586 70.877 741.633 72.7988V81.5527C741.633 83.2988 741.855 84.6875 742.301 85.7188V86H738.891ZM733.494 83.5215C734.514 83.5215 735.48 83.2578 736.395 82.7305C737.309 82.2031 737.971 81.5176 738.381 80.6738V76.7715H735.832C731.848 76.7715 729.855 77.9375 729.855 80.2695C729.855 81.2891 730.195 82.0859 730.875 82.6602C731.555 83.2344 732.428 83.5215 733.494 83.5215Z" fill="white"/>
<path d="M755.924 69.8984C755.432 69.8164 754.898 69.7754 754.324 69.7754C752.191 69.7754 750.744 70.6836 749.982 72.5V86H746.73V66.9805H749.895L749.947 69.1777C751.014 67.4785 752.525 66.6289 754.482 66.6289C755.115 66.6289 755.596 66.7109 755.924 66.875V69.8984Z" fill="white"/>
<path d="M766.471 86.3516C763.893 86.3516 761.795 85.5078 760.178 83.8203C758.561 82.1211 757.752 79.8535 757.752 77.0176V76.4199C757.752 74.5332 758.109 72.8516 758.824 71.375C759.551 69.8867 760.559 68.7266 761.848 67.8945C763.148 67.0508 764.555 66.6289 766.066 66.6289C768.539 66.6289 770.461 67.4434 771.832 69.0723C773.203 70.7012 773.889 73.0332 773.889 76.0684V77.4219H761.004C761.051 79.2969 761.596 80.8145 762.639 81.9746C763.693 83.123 765.029 83.6973 766.646 83.6973C767.795 83.6973 768.768 83.4629 769.564 82.9941C770.361 82.5254 771.059 81.9043 771.656 81.1309L773.643 82.6777C772.049 85.127 769.658 86.3516 766.471 86.3516ZM766.066 69.3008C764.754 69.3008 763.652 69.7812 762.762 70.7422C761.871 71.6914 761.32 73.0273 761.109 74.75H770.637V74.5039C770.543 72.8516 770.098 71.5742 769.301 70.6719C768.504 69.7578 767.426 69.3008 766.066 69.3008Z" fill="white"/>
<path d="M788.742 80.9551C788.742 80.0762 788.408 79.3965 787.74 78.916C787.084 78.4238 785.93 78.002 784.277 77.6504C782.637 77.2988 781.33 76.877 780.357 76.3848C779.396 75.8926 778.682 75.3066 778.213 74.627C777.756 73.9473 777.527 73.1387 777.527 72.2012C777.527 70.6426 778.184 69.3242 779.496 68.2461C780.82 67.168 782.508 66.6289 784.559 66.6289C786.715 66.6289 788.461 67.1855 789.797 68.2988C791.145 69.4121 791.818 70.8359 791.818 72.5703H788.549C788.549 71.6797 788.168 70.9121 787.406 70.2676C786.656 69.623 785.707 69.3008 784.559 69.3008C783.375 69.3008 782.449 69.5586 781.781 70.0742C781.113 70.5898 780.779 71.2637 780.779 72.0957C780.779 72.8809 781.09 73.4727 781.711 73.8711C782.332 74.2695 783.451 74.6504 785.068 75.0137C786.697 75.377 788.016 75.8105 789.023 76.3145C790.031 76.8184 790.775 77.4277 791.256 78.1426C791.748 78.8457 791.994 79.707 791.994 80.7266C791.994 82.4258 791.314 83.791 789.955 84.8223C788.596 85.8418 786.832 86.3516 784.664 86.3516C783.141 86.3516 781.793 86.082 780.621 85.543C779.449 85.0039 778.529 84.2539 777.861 83.293C777.205 82.3203 776.877 81.2715 776.877 80.1465H780.129C780.188 81.2363 780.621 82.1035 781.43 82.748C782.25 83.3809 783.328 83.6973 784.664 83.6973C785.895 83.6973 786.879 83.4512 787.617 82.959C788.367 82.4551 788.742 81.7871 788.742 80.9551Z" fill="white"/>
<path d="M813.053 86.3516C810.475 86.3516 808.377 85.5078 806.76 83.8203C805.143 82.1211 804.334 79.8535 804.334 77.0176V76.4199C804.334 74.5332 804.691 72.8516 805.406 71.375C806.133 69.8867 807.141 68.7266 808.43 67.8945C809.73 67.0508 811.137 66.6289 812.648 66.6289C815.121 66.6289 817.043 67.4434 818.414 69.0723C819.785 70.7012 820.471 73.0332 820.471 76.0684V77.4219H807.586C807.633 79.2969 808.178 80.8145 809.221 81.9746C810.275 83.123 811.611 83.6973 813.229 83.6973C814.377 83.6973 815.35 83.4629 816.146 82.9941C816.943 82.5254 817.641 81.9043 818.238 81.1309L820.225 82.6777C818.631 85.127 816.24 86.3516 813.053 86.3516ZM812.648 69.3008C811.336 69.3008 810.234 69.7812 809.344 70.7422C808.453 71.6914 807.902 73.0273 807.691 74.75H817.219V74.5039C817.125 72.8516 816.68 71.5742 815.883 70.6719C815.086 69.7578 814.008 69.3008 812.648 69.3008Z" fill="white"/>
<path d="M827.326 66.9805L827.432 69.3711C828.885 67.543 830.783 66.6289 833.127 66.6289C837.146 66.6289 839.174 68.8965 839.209 73.4316V86H835.957V73.4141C835.945 72.043 835.629 71.0293 835.008 70.373C834.398 69.7168 833.443 69.3887 832.143 69.3887C831.088 69.3887 830.162 69.6699 829.365 70.2324C828.568 70.7949 827.947 71.5332 827.502 72.4473V86H824.25V66.9805H827.326Z" fill="white"/>
<path d="M856.576 86H853.324V59H856.576V86Z" fill="white"/>
<path d="M873.539 86C873.352 85.625 873.199 84.957 873.082 83.9961C871.57 85.5664 869.766 86.3516 867.668 86.3516C865.793 86.3516 864.252 85.8242 863.045 84.7695C861.85 83.7031 861.252 82.3555 861.252 80.7266C861.252 78.7461 862.002 77.2109 863.502 76.1211C865.014 75.0195 867.135 74.4688 869.865 74.4688H873.029V72.9746C873.029 71.8379 872.689 70.9355 872.01 70.2676C871.33 69.5879 870.328 69.248 869.004 69.248C867.844 69.248 866.871 69.541 866.086 70.127C865.301 70.7129 864.908 71.4219 864.908 72.2539H861.639C861.639 71.3047 861.973 70.3906 862.641 69.5117C863.32 68.6211 864.234 67.918 865.383 67.4023C866.543 66.8867 867.814 66.6289 869.197 66.6289C871.389 66.6289 873.105 67.1797 874.348 68.2812C875.59 69.3711 876.234 70.877 876.281 72.7988V81.5527C876.281 83.2988 876.504 84.6875 876.949 85.7188V86H873.539ZM868.143 83.5215C869.162 83.5215 870.129 83.2578 871.043 82.7305C871.957 82.2031 872.619 81.5176 873.029 80.6738V76.7715H870.48C866.496 76.7715 864.504 77.9375 864.504 80.2695C864.504 81.2891 864.844 82.0859 865.523 82.6602C866.203 83.2344 867.076 83.5215 868.143 83.5215Z" fill="white"/>
<path d="M79.5352 122.955C79.5352 122.076 79.2012 121.396 78.5332 120.916C77.877 120.424 76.7227 120.002 75.0703 119.65C73.4297 119.299 72.123 118.877 71.1504 118.385C70.1895 117.893 69.4746 117.307 69.0059 116.627C68.5488 115.947 68.3203 115.139 68.3203 114.201C68.3203 112.643 68.9766 111.324 70.2891 110.246C71.6133 109.168 73.3008 108.629 75.3516 108.629C77.5078 108.629 79.2539 109.186 80.5898 110.299C81.9375 111.412 82.6113 112.836 82.6113 114.57H79.3418C79.3418 113.68 78.9609 112.912 78.1992 112.268C77.4492 111.623 76.5 111.301 75.3516 111.301C74.168 111.301 73.2422 111.559 72.5742 112.074C71.9062 112.59 71.5723 113.264 71.5723 114.096C71.5723 114.881 71.8828 115.473 72.5039 115.871C73.125 116.27 74.2441 116.65 75.8613 117.014C77.4902 117.377 78.8086 117.811 79.8164 118.314C80.8242 118.818 81.5684 119.428 82.0488 120.143C82.541 120.846 82.7871 121.707 82.7871 122.727C82.7871 124.426 82.1074 125.791 80.748 126.822C79.3887 127.842 77.625 128.352 75.457 128.352C73.9336 128.352 72.5859 128.082 71.4141 127.543C70.2422 127.004 69.3223 126.254 68.6543 125.293C67.998 124.32 67.6699 123.271 67.6699 122.146H70.9219C70.9805 123.236 71.4141 124.104 72.2227 124.748C73.043 125.381 74.1211 125.697 75.457 125.697C76.6875 125.697 77.6719 125.451 78.4102 124.959C79.1602 124.455 79.5352 123.787 79.5352 122.955Z" fill="white"/>
<path d="M90.5566 128H87.3047V108.98H90.5566V128ZM87.041 103.936C87.041 103.408 87.1992 102.963 87.5156 102.6C87.8438 102.236 88.3242 102.055 88.957 102.055C89.5898 102.055 90.0703 102.236 90.3984 102.6C90.7266 102.963 90.8906 103.408 90.8906 103.936C90.8906 104.463 90.7266 104.902 90.3984 105.254C90.0703 105.605 89.5898 105.781 88.957 105.781C88.3242 105.781 87.8438 105.605 87.5156 105.254C87.1992 104.902 87.041 104.463 87.041 103.936Z" fill="white"/>
<path d="M95.0039 118.332C95.0039 115.367 95.6895 113.012 97.0605 111.266C98.4316 109.508 100.248 108.629 102.51 108.629C104.83 108.629 106.641 109.449 107.941 111.09L108.1 108.98H111.07V127.543C111.07 130.004 110.338 131.943 108.873 133.361C107.42 134.779 105.463 135.488 103.002 135.488C101.631 135.488 100.289 135.195 98.9766 134.609C97.6641 134.023 96.6621 133.221 95.9707 132.201L97.6582 130.25C99.0527 131.973 100.758 132.834 102.773 132.834C104.355 132.834 105.586 132.389 106.465 131.498C107.355 130.607 107.801 129.354 107.801 127.736V126.102C106.5 127.602 104.725 128.352 102.475 128.352C100.248 128.352 98.4434 127.455 97.0605 125.662C95.6895 123.869 95.0039 121.426 95.0039 118.332ZM98.2734 118.701C98.2734 120.846 98.7129 122.533 99.5918 123.764C100.471 124.982 101.701 125.592 103.283 125.592C105.334 125.592 106.84 124.66 107.801 122.797V114.113C106.805 112.297 105.311 111.389 103.318 111.389C101.736 111.389 100.5 112.004 99.6094 113.234C98.7188 114.465 98.2734 116.287 98.2734 118.701Z" fill="white"/>
<path d="M127.734 126.119C126.469 127.607 124.611 128.352 122.162 128.352C120.135 128.352 118.588 127.766 117.521 126.594C116.467 125.41 115.934 123.664 115.922 121.355V108.98H119.174V121.268C119.174 124.15 120.346 125.592 122.689 125.592C125.174 125.592 126.826 124.666 127.646 122.814V108.98H130.898V128H127.805L127.734 126.119Z" fill="white"/>
<path d="M139.389 128H136.137V108.98H139.389V128ZM135.873 103.936C135.873 103.408 136.031 102.963 136.348 102.6C136.676 102.236 137.156 102.055 137.789 102.055C138.422 102.055 138.902 102.236 139.23 102.6C139.559 102.963 139.723 103.408 139.723 103.936C139.723 104.463 139.559 104.902 139.23 105.254C138.902 105.605 138.422 105.781 137.789 105.781C137.156 105.781 136.676 105.605 136.348 105.254C136.031 104.902 135.873 104.463 135.873 103.936Z" fill="white"/>
<path d="M152.502 128.352C149.924 128.352 147.826 127.508 146.209 125.82C144.592 124.121 143.783 121.854 143.783 119.018V118.42C143.783 116.533 144.141 114.852 144.855 113.375C145.582 111.887 146.59 110.727 147.879 109.895C149.18 109.051 150.586 108.629 152.098 108.629C154.57 108.629 156.492 109.443 157.863 111.072C159.234 112.701 159.92 115.033 159.92 118.068V119.422H147.035C147.082 121.297 147.627 122.814 148.67 123.975C149.725 125.123 151.061 125.697 152.678 125.697C153.826 125.697 154.799 125.463 155.596 124.994C156.393 124.525 157.09 123.904 157.688 123.131L159.674 124.678C158.08 127.127 155.689 128.352 152.502 128.352ZM152.098 111.301C150.785 111.301 149.684 111.781 148.793 112.742C147.902 113.691 147.352 115.027 147.141 116.75H156.668V116.504C156.574 114.852 156.129 113.574 155.332 112.672C154.535 111.758 153.457 111.301 152.098 111.301Z" fill="white"/>
<path d="M166.775 108.98L166.881 111.371C168.334 109.543 170.232 108.629 172.576 108.629C176.596 108.629 178.623 110.896 178.658 115.432V128H175.406V115.414C175.395 114.043 175.078 113.029 174.457 112.373C173.848 111.717 172.893 111.389 171.592 111.389C170.537 111.389 169.611 111.67 168.814 112.232C168.018 112.795 167.396 113.533 166.951 114.447V128H163.699V108.98H166.775Z" fill="white"/>
<path d="M187.975 104.375V108.98H191.525V111.494H187.975V123.289C187.975 124.051 188.133 124.625 188.449 125.012C188.766 125.387 189.305 125.574 190.066 125.574C190.441 125.574 190.957 125.504 191.613 125.363V128C190.758 128.234 189.926 128.352 189.117 128.352C187.664 128.352 186.568 127.912 185.83 127.033C185.092 126.154 184.723 124.906 184.723 123.289V111.494H181.26V108.98H184.723V104.375H187.975Z" fill="white"/>
<path d="M203.232 128.352C200.654 128.352 198.557 127.508 196.939 125.82C195.322 124.121 194.514 121.854 194.514 119.018V118.42C194.514 116.533 194.871 114.852 195.586 113.375C196.312 111.887 197.32 110.727 198.609 109.895C199.91 109.051 201.316 108.629 202.828 108.629C205.301 108.629 207.223 109.443 208.594 111.072C209.965 112.701 210.65 115.033 210.65 118.068V119.422H197.766C197.812 121.297 198.357 122.814 199.4 123.975C200.455 125.123 201.791 125.697 203.408 125.697C204.557 125.697 205.529 125.463 206.326 124.994C207.123 124.525 207.82 123.904 208.418 123.131L210.404 124.678C208.811 127.127 206.42 128.352 203.232 128.352ZM202.828 111.301C201.516 111.301 200.414 111.781 199.523 112.742C198.633 113.691 198.082 115.027 197.871 116.75H207.398V116.504C207.305 114.852 206.859 113.574 206.062 112.672C205.266 111.758 204.188 111.301 202.828 111.301Z" fill="white"/>
<path d="M224.449 128V111.494H221.443V108.98H224.449V107.363C224.449 105.242 225.053 103.59 226.26 102.406C227.479 101.223 229.195 100.631 231.41 100.631C232.723 100.631 234.381 100.988 236.385 101.703L235.84 104.445C234.375 103.859 232.98 103.566 231.656 103.566C230.262 103.566 229.254 103.883 228.633 104.516C228.023 105.137 227.719 106.074 227.719 107.328V108.98H231.604V111.494H227.719V128H224.449ZM238.002 128H234.732V108.98H238.002V128Z" fill="white"/>
<path d="M242.52 118.332C242.52 115.367 243.205 113.012 244.576 111.266C245.947 109.508 247.764 108.629 250.025 108.629C252.346 108.629 254.156 109.449 255.457 111.09L255.615 108.98H258.586V127.543C258.586 130.004 257.854 131.943 256.389 133.361C254.936 134.779 252.979 135.488 250.518 135.488C249.146 135.488 247.805 135.195 246.492 134.609C245.18 134.023 244.178 133.221 243.486 132.201L245.174 130.25C246.568 131.973 248.273 132.834 250.289 132.834C251.871 132.834 253.102 132.389 253.98 131.498C254.871 130.607 255.316 129.354 255.316 127.736V126.102C254.016 127.602 252.24 128.352 249.99 128.352C247.764 128.352 245.959 127.455 244.576 125.662C243.205 123.869 242.52 121.426 242.52 118.332ZM245.789 118.701C245.789 120.846 246.229 122.533 247.107 123.764C247.986 124.982 249.217 125.592 250.799 125.592C252.85 125.592 254.355 124.66 255.316 122.797V114.113C254.32 112.297 252.826 111.389 250.834 111.389C249.252 111.389 248.016 112.004 247.125 113.234C246.234 114.465 245.789 116.287 245.789 118.701Z" fill="white"/>
<path d="M275.25 126.119C273.984 127.607 272.127 128.352 269.678 128.352C267.65 128.352 266.104 127.766 265.037 126.594C263.982 125.41 263.449 123.664 263.438 121.355V108.98H266.689V121.268C266.689 124.15 267.861 125.592 270.205 125.592C272.689 125.592 274.342 124.666 275.162 122.814V108.98H278.414V128H275.32L275.25 126.119Z" fill="white"/>
<path d="M292.564 111.898C292.072 111.816 291.539 111.775 290.965 111.775C288.832 111.775 287.385 112.684 286.623 114.5V128H283.371V108.98H286.535L286.588 111.178C287.654 109.479 289.166 108.629 291.123 108.629C291.756 108.629 292.236 108.711 292.564 108.875V111.898Z" fill="white"/>
<path d="M306.609 128C306.422 127.625 306.27 126.957 306.152 125.996C304.641 127.566 302.836 128.352 300.738 128.352C298.863 128.352 297.322 127.824 296.115 126.77C294.92 125.703 294.322 124.355 294.322 122.727C294.322 120.746 295.072 119.211 296.572 118.121C298.084 117.02 300.205 116.469 302.936 116.469H306.1V114.975C306.1 113.838 305.76 112.936 305.08 112.268C304.4 111.588 303.398 111.248 302.074 111.248C300.914 111.248 299.941 111.541 299.156 112.127C298.371 112.713 297.979 113.422 297.979 114.254H294.709C294.709 113.305 295.043 112.391 295.711 111.512C296.391 110.621 297.305 109.918 298.453 109.402C299.613 108.887 300.885 108.629 302.268 108.629C304.459 108.629 306.176 109.18 307.418 110.281C308.66 111.371 309.305 112.877 309.352 114.799V123.553C309.352 125.299 309.574 126.688 310.02 127.719V128H306.609ZM301.213 125.521C302.232 125.521 303.199 125.258 304.113 124.73C305.027 124.203 305.689 123.518 306.1 122.674V118.771H303.551C299.566 118.771 297.574 119.938 297.574 122.27C297.574 123.289 297.914 124.086 298.594 124.66C299.273 125.234 300.146 125.521 301.213 125.521Z" fill="white"/>
<path d="M314.344 126.295C314.344 125.732 314.508 125.264 314.836 124.889C315.176 124.514 315.68 124.326 316.348 124.326C317.016 124.326 317.52 124.514 317.859 124.889C318.211 125.264 318.387 125.732 318.387 126.295C318.387 126.834 318.211 127.285 317.859 127.648C317.52 128.012 317.016 128.193 316.348 128.193C315.68 128.193 315.176 128.012 314.836 127.648C314.508 127.285 314.344 126.834 314.344 126.295ZM314.361 110.773C314.361 110.211 314.525 109.742 314.854 109.367C315.193 108.992 315.697 108.805 316.365 108.805C317.033 108.805 317.537 108.992 317.877 109.367C318.229 109.742 318.404 110.211 318.404 110.773C318.404 111.312 318.229 111.764 317.877 112.127C317.537 112.49 317.033 112.672 316.365 112.672C315.697 112.672 315.193 112.49 314.854 112.127C314.525 111.764 314.361 111.312 314.361 110.773Z" fill="white"/>
</g>
<path id="Union" fill-rule="evenodd" clip-rule="evenodd" d="M276 201.868L277.414 203.282L354.326 280.194C336.754 297.765 322.815 318.626 313.306 341.584C304.16 363.665 299.282 387.27 298.923 411.15L297.487 412.586L298.901 414H300.901H486.132H488.132L675.363 414H677.363L678.777 412.586L677.341 411.15C676.982 387.27 672.105 363.665 662.958 341.585C653.449 318.626 639.51 297.765 621.938 280.194L698.85 203.282L700.264 201.868L700.208 201.812C699.755 201.359 699.301 200.908 698.845 200.458C642.724 145.079 567.03 114 488.132 114H486.132V114.007C407.956 114.527 333.066 145.548 277.419 200.458C276.945 200.927 276.472 201.396 276 201.868ZM675.299 409.108C674.7 386.188 669.895 363.558 661.111 342.35C651.701 319.634 637.91 298.994 620.524 281.608L584.162 317.97L675.299 409.108ZM582.747 316.556L619.102 280.201C607.14 268.491 593.682 258.459 579.101 250.354L556.751 290.56L582.747 316.556ZM555.74 292.378L581.333 317.97L491.672 407.631L555.74 292.378ZM555.28 289.089L577.348 249.391C571.652 246.305 565.79 243.51 559.782 241.021C538.574 232.237 515.944 227.432 493.024 226.833L555.28 289.089ZM490.143 226.78L554.27 290.907L488.132 409.884L488.132 226.769C488.803 226.769 489.473 226.773 490.143 226.78ZM490.982 224.791L489.546 223.355L488.132 224.769L488.132 185.231C526.344 185.231 563.957 194.803 597.531 213.084L578.319 247.643C572.557 244.519 566.626 241.691 560.548 239.174C538.467 230.028 514.862 225.15 490.982 224.791ZM582.747 319.385L675.352 411.989C675.352 411.993 675.352 411.996 675.352 412L490.132 412L582.747 319.385ZM300.912 412L300.912 411.989L393.517 319.385L486.132 412H300.912ZM300.965 409.108L392.102 317.97L355.74 281.608C338.354 298.994 324.563 319.634 315.153 342.35C306.369 363.558 301.564 386.188 300.965 409.108ZM483.967 407.006L394.931 317.97L417.498 295.404L483.967 407.006ZM393.517 316.556L416.442 293.631L392.325 253.139C379.598 260.719 367.79 269.798 357.162 280.201L393.517 316.556ZM486.132 406.733L418.956 293.945L486.121 226.78L486.132 226.78V406.733ZM417.901 292.172L483.24 226.833C460.32 227.432 437.69 232.237 416.482 241.021C408.748 244.225 401.255 247.936 394.049 252.124L417.901 292.172ZM485.282 224.791L486.132 223.941V185.24C485.662 185.244 485.192 185.249 484.722 185.256C445.339 185.843 406.787 196.588 372.792 216.435L393.025 250.406C400.314 246.169 407.894 242.414 415.717 239.174C437.797 230.027 461.402 225.15 485.282 224.791ZM486.132 116.007C408.486 116.527 334.105 147.337 278.833 201.873L355.747 278.787C366.493 268.266 378.432 259.085 391.302 251.42L371.07 217.45L370.046 215.732C370.619 215.391 371.193 215.052 371.769 214.716C406.065 194.691 444.959 183.849 484.692 183.256C485.172 183.249 485.652 183.244 486.132 183.239V116.007ZM488.132 183.231L488.132 116C566.5 116 641.685 146.869 697.431 201.873L620.517 278.787C608.422 266.945 594.815 256.801 580.073 248.606L599.283 214.048L600.255 212.3L600.237 212.29C599.66 211.969 599.082 211.651 598.502 211.336C564.632 192.89 526.684 183.231 488.132 183.231Z" fill="white"/>
</g>
<g id="claves">
<g id="Group 21">
<path id="Rectangle 4" d="M43 482H259.745L293 522L259.745 562H43V482Z" fill="#CD08D1" fill-opacity="0.1"/>
<path id="Rectangle 4 (Stroke)" fill-rule="evenodd" clip-rule="evenodd" d="M258.338 485H46V559H258.338L289.099 522L258.338 485ZM259.745 482H43V562H259.745L293 522L259.745 482Z" fill="#CD08D1"/>
<path id="Ellipse 1" d="M84 522C84 544.091 66.0914 562 44 562C21.9086 562 4 544.091 4 522C4 499.909 21.9086 482 44 482C66.0914 482 84 499.909 84 522Z" fill="#CD08D1"/>
<path id="A" d="M52.0938 532.406H34.4688L30.7812 543H22.5625L39.75 497.5H46.8438L64.0625 543H55.8125L52.0938 532.406ZM36.6875 526.031H49.875L43.2812 507.156L36.6875 526.031Z" fill="white"/>
</g>
<g id="Group 17">
<path id="Rectangle 5" d="M386 482H602.745L636 522L602.745 562H386V482Z" fill="#CD08D1" fill-opacity="0.1"/>
<path id="Rectangle 5 (Stroke)" fill-rule="evenodd" clip-rule="evenodd" d="M601.338 485H389V559H601.338L632.099 522L601.338 485ZM602.745 482H386V562H602.745L636 522L602.745 482Z" fill="#CD08D1"/>
<path id="Ellipse 2" d="M427 522C427 544.091 409.091 562 387 562C364.909 562 347 544.091 347 522C347 499.909 364.909 482 387 482C409.091 482 427 499.909 427 522Z" fill="#CD08D1"/>
<path id="B" d="M370.625 538V492.5H386.219C391.365 492.5 395.281 493.531 397.969 495.594C400.656 497.656 402 500.729 402 504.812C402 506.896 401.438 508.771 400.312 510.438C399.188 512.104 397.542 513.396 395.375 514.312C397.833 514.979 399.729 516.24 401.062 518.094C402.417 519.927 403.094 522.135 403.094 524.719C403.094 528.99 401.719 532.271 398.969 534.562C396.24 536.854 392.323 538 387.219 538H370.625ZM378.531 517.469V531.688H387.312C389.792 531.688 391.729 531.073 393.125 529.844C394.521 528.615 395.219 526.906 395.219 524.719C395.219 519.99 392.802 517.573 387.969 517.469H378.531ZM378.531 511.656H386.281C388.74 511.656 390.656 511.104 392.031 510C393.427 508.875 394.125 507.292 394.125 505.25C394.125 503 393.479 501.375 392.188 500.375C390.917 499.375 388.927 498.875 386.219 498.875H378.531V511.656Z" fill="white"/>
</g>
<g id="Group 18">
<path id="Rectangle 6" d="M744 538H960.745L994 578L960.745 618H744V538Z" fill="#CD08D1" fill-opacity="0.1"/>
<path id="Rectangle 6 (Stroke)" fill-rule="evenodd" clip-rule="evenodd" d="M959.338 541H747V615H959.338L990.099 578L959.338 541ZM960.745 538H744V618H960.745L994 578L960.745 538Z" fill="#CD08D1"/>
<path id="Ellipse 3" d="M785 578C785 600.091 767.091 618 745 618C722.909 618 705 600.091 705 578C705 555.909 722.909 538 745 538C767.091 538 785 555.909 785 578Z" fill="#CD08D1"/>
<path id="C" d="M762.344 585.188C761.885 590.042 760.094 593.833 756.969 596.562C753.844 599.271 749.688 600.625 744.5 600.625C740.875 600.625 737.677 599.771 734.906 598.062C732.156 596.333 730.031 593.885 728.531 590.719C727.031 587.552 726.25 583.875 726.188 579.688V575.438C726.188 571.146 726.948 567.365 728.469 564.094C729.99 560.823 732.167 558.302 735 556.531C737.854 554.76 741.146 553.875 744.875 553.875C749.896 553.875 753.938 555.24 757 557.969C760.062 560.698 761.844 564.552 762.344 569.531H754.469C754.094 566.26 753.135 563.906 751.594 562.469C750.073 561.01 747.833 560.281 744.875 560.281C741.438 560.281 738.792 561.542 736.938 564.062C735.104 566.562 734.167 570.24 734.125 575.094V579.125C734.125 584.042 735 587.792 736.75 590.375C738.521 592.958 741.104 594.25 744.5 594.25C747.604 594.25 749.938 593.552 751.5 592.156C753.062 590.76 754.052 588.438 754.469 585.188H762.344Z" fill="white"/>
</g>
<g id="Group 19">
<path id="Rectangle 7" d="M44 587H260.745L294 627L260.745 667H44V587Z" fill="#CD08D1" fill-opacity="0.1"/>
<path id="Rectangle 7 (Stroke)" fill-rule="evenodd" clip-rule="evenodd" d="M259.338 590H47V664H259.338L290.099 627L259.338 590ZM260.745 587H44V667H260.745L294 627L260.745 587Z" fill="#CD08D1"/>
<path id="Ellipse 4" d="M85 627C85 649.091 67.0914 667 45 667C22.9086 667 5 649.091 5 627C5 604.909 22.9086 587 45 587C67.0914 587 85 604.909 85 627Z" fill="#CD08D1"/>
<path id="D" d="M27.625 649V603.5H41.0625C45.0833 603.5 48.6458 604.396 51.75 606.188C54.875 607.979 57.2917 610.521 59 613.812C60.7083 617.104 61.5625 620.875 61.5625 625.125V627.406C61.5625 631.719 60.6979 635.51 58.9688 638.781C57.2604 642.052 54.8125 644.573 51.625 646.344C48.4583 648.115 44.8229 649 40.7188 649H27.625ZM35.5312 609.875V642.688H40.6875C44.8333 642.688 48.0104 641.396 50.2188 638.812C52.4479 636.208 53.5833 632.479 53.625 627.625V625.094C53.625 620.156 52.5521 616.385 50.4062 613.781C48.2604 611.177 45.1458 609.875 41.0625 609.875H35.5312Z" fill="white"/>
</g>
<g id="Group 20">
<path id="Rectangle 8" d="M386 587H602.745L636 627L602.745 667H386V587Z" fill="#CD08D1" fill-opacity="0.1"/>
<path id="Rectangle 8 (Stroke)" fill-rule="evenodd" clip-rule="evenodd" d="M601.338 590H389V664H601.338L632.099 627L601.338 590ZM602.745 587H386V667H602.745L636 627L602.745 587Z" fill="#CD08D1"/>
<path id="Ellipse 5" d="M427 627C427 649.091 409.091 667 387 667C364.909 667 347 649.091 347 627C347 604.909 364.909 587 387 587C409.091 587 427 604.909 427 627Z" fill="#CD08D1"/>
<path id="E" d="M396.219 628.688H377.531V642.688H399.375V649H369.625V603.5H399.156V609.875H377.531V622.438H396.219V628.688Z" fill="white"/>
</g>
<g id="24 25 26 27 28">
<path d="M144.896 533H128.127V530.662L136.986 520.818C138.299 519.33 139.201 518.123 139.693 517.197C140.197 516.26 140.449 515.293 140.449 514.297C140.449 512.961 140.045 511.865 139.236 511.01C138.428 510.154 137.35 509.727 136.002 509.727C134.385 509.727 133.125 510.189 132.223 511.115C131.332 512.029 130.887 513.307 130.887 514.947H127.635C127.635 512.592 128.391 510.688 129.902 509.234C131.426 507.781 133.459 507.055 136.002 507.055C138.381 507.055 140.262 507.682 141.645 508.936C143.027 510.178 143.719 511.836 143.719 513.91C143.719 516.43 142.113 519.43 138.902 522.91L132.047 530.346H144.896V533Z" fill="#CD08D1"/>
<path d="M162.07 524.404H165.621V527.059H162.07V533H158.801V527.059H147.146V525.143L158.607 507.406H162.07V524.404ZM150.838 524.404H158.801V511.854L158.414 512.557L150.838 524.404Z" fill="#CD08D1"/>
<path d="M497.865 533H481.096V530.662L489.955 520.818C491.268 519.33 492.17 518.123 492.662 517.197C493.166 516.26 493.418 515.293 493.418 514.297C493.418 512.961 493.014 511.865 492.205 511.01C491.396 510.154 490.318 509.727 488.971 509.727C487.354 509.727 486.094 510.189 485.191 511.115C484.301 512.029 483.855 513.307 483.855 514.947H480.604C480.604 512.592 481.359 510.688 482.871 509.234C484.395 507.781 486.428 507.055 488.971 507.055C491.35 507.055 493.23 507.682 494.613 508.936C495.996 510.178 496.688 511.836 496.688 513.91C496.688 516.43 495.082 519.43 491.871 522.91L485.016 530.346H497.865V533Z" fill="#CD08D1"/>
<path d="M502.805 520.168L504.105 507.406H517.219V510.412H506.865L506.092 517.391C507.346 516.652 508.77 516.283 510.363 516.283C512.695 516.283 514.547 517.057 515.918 518.604C517.289 520.139 517.975 522.219 517.975 524.844C517.975 527.48 517.26 529.561 515.83 531.084C514.412 532.596 512.426 533.352 509.871 533.352C507.609 533.352 505.764 532.725 504.334 531.471C502.904 530.217 502.09 528.482 501.891 526.268H504.967C505.166 527.732 505.688 528.84 506.531 529.59C507.375 530.328 508.488 530.697 509.871 530.697C511.383 530.697 512.566 530.182 513.422 529.15C514.289 528.119 514.723 526.695 514.723 524.879C514.723 523.168 514.254 521.797 513.316 520.766C512.391 519.723 511.154 519.201 509.607 519.201C508.189 519.201 507.076 519.512 506.268 520.133L505.406 520.836L502.805 520.168Z" fill="#CD08D1"/>
<path d="M850.342 588H833.572V585.662L842.432 575.818C843.744 574.33 844.646 573.123 845.139 572.197C845.643 571.26 845.895 570.293 845.895 569.297C845.895 567.961 845.49 566.865 844.682 566.01C843.873 565.154 842.795 564.727 841.447 564.727C839.83 564.727 838.57 565.189 837.668 566.115C836.777 567.029 836.332 568.307 836.332 569.947H833.08C833.08 567.592 833.836 565.688 835.348 564.234C836.871 562.781 838.904 562.055 841.447 562.055C843.826 562.055 845.707 562.682 847.09 563.936C848.473 565.178 849.164 566.836 849.164 568.91C849.164 571.43 847.559 574.43 844.348 577.91L837.492 585.346H850.342V588Z" fill="#CD08D1"/>
<path d="M866.549 562.389V565.148H865.951C863.42 565.195 861.404 565.945 859.904 567.398C858.404 568.852 857.537 570.896 857.303 573.533C858.65 571.986 860.49 571.213 862.822 571.213C865.049 571.213 866.824 571.998 868.148 573.568C869.484 575.139 870.152 577.166 870.152 579.65C870.152 582.287 869.432 584.396 867.99 585.979C866.561 587.561 864.639 588.352 862.225 588.352C859.775 588.352 857.789 587.414 856.266 585.539C854.742 583.652 853.98 581.227 853.98 578.262V577.014C853.98 572.303 854.982 568.705 856.986 566.221C859.002 563.725 861.996 562.447 865.969 562.389H866.549ZM862.277 573.92C861.164 573.92 860.139 574.254 859.201 574.922C858.264 575.59 857.613 576.428 857.25 577.436V578.631C857.25 580.74 857.725 582.439 858.674 583.729C859.623 585.018 860.807 585.662 862.225 585.662C863.689 585.662 864.838 585.123 865.67 584.045C866.514 582.967 866.936 581.555 866.936 579.809C866.936 578.051 866.508 576.633 865.652 575.555C864.809 574.465 863.684 573.92 862.277 573.92Z" fill="#CD08D1"/>
<path d="M144.896 643H128.127V640.662L136.986 630.818C138.299 629.33 139.201 628.123 139.693 627.197C140.197 626.26 140.449 625.293 140.449 624.297C140.449 622.961 140.045 621.865 139.236 621.01C138.428 620.154 137.35 619.727 136.002 619.727C134.385 619.727 133.125 620.189 132.223 621.115C131.332 622.029 130.887 623.307 130.887 624.947H127.635C127.635 622.592 128.391 620.688 129.902 619.234C131.426 617.781 133.459 617.055 136.002 617.055C138.381 617.055 140.262 617.682 141.645 618.936C143.027 620.178 143.719 621.836 143.719 623.91C143.719 626.43 142.113 629.43 138.902 632.91L132.047 640.346H144.896V643Z" fill="#CD08D1"/>
<path d="M164.865 619.234L154.266 643H150.855L161.42 620.078H147.568V617.406H164.865V619.234Z" fill="#CD08D1"/>
<path d="M497.865 643H481.096V640.662L489.955 630.818C491.268 629.33 492.17 628.123 492.662 627.197C493.166 626.26 493.418 625.293 493.418 624.297C493.418 622.961 493.014 621.865 492.205 621.01C491.396 620.154 490.318 619.727 488.971 619.727C487.354 619.727 486.094 620.189 485.191 621.115C484.301 622.029 483.855 623.307 483.855 624.947H480.604C480.604 622.592 481.359 620.688 482.871 619.234C484.395 617.781 486.428 617.055 488.971 617.055C491.35 617.055 493.23 617.682 494.613 618.936C495.996 620.178 496.688 621.836 496.688 623.91C496.688 626.43 495.082 629.43 491.871 632.91L485.016 640.346H497.865V643Z" fill="#CD08D1"/>
<path d="M516.832 624.086C516.832 625.363 516.492 626.5 515.812 627.496C515.145 628.492 514.236 629.271 513.088 629.834C514.424 630.408 515.479 631.246 516.252 632.348C517.037 633.449 517.43 634.697 517.43 636.092C517.43 638.307 516.68 640.07 515.18 641.383C513.691 642.695 511.729 643.352 509.291 643.352C506.83 643.352 504.855 642.695 503.367 641.383C501.891 640.059 501.152 638.295 501.152 636.092C501.152 634.709 501.527 633.461 502.277 632.348C503.039 631.234 504.088 630.391 505.424 629.816C504.287 629.254 503.391 628.475 502.734 627.479C502.078 626.482 501.75 625.352 501.75 624.086C501.75 621.93 502.441 620.219 503.824 618.953C505.207 617.688 507.029 617.055 509.291 617.055C511.541 617.055 513.357 617.688 514.74 618.953C516.135 620.219 516.832 621.93 516.832 624.086ZM514.178 636.021C514.178 634.592 513.721 633.426 512.807 632.523C511.904 631.621 510.721 631.17 509.256 631.17C507.791 631.17 506.613 631.615 505.723 632.506C504.844 633.396 504.404 634.568 504.404 636.021C504.404 637.475 504.832 638.617 505.688 639.449C506.555 640.281 507.756 640.697 509.291 640.697C510.814 640.697 512.01 640.281 512.877 639.449C513.744 638.605 514.178 637.463 514.178 636.021ZM509.291 619.727C508.014 619.727 506.977 620.125 506.18 620.922C505.395 621.707 505.002 622.779 505.002 624.139C505.002 625.439 505.389 626.494 506.162 627.303C506.947 628.1 507.99 628.498 509.291 628.498C510.592 628.498 511.629 628.1 512.402 627.303C513.188 626.494 513.58 625.439 513.58 624.139C513.58 622.838 513.176 621.777 512.367 620.957C511.559 620.137 510.533 619.727 509.291 619.727Z" fill="#CD08D1"/>
</g>
<g id="flecha">
<path id="Rectangle 2" d="M58.2002 591.008L73.482 599.133L31.5004 678.089L16.2186 669.963L58.2002 591.008Z" fill="#1043F5"/>
<path id="Rectangle 1_2" d="M0 603.904L90 554V611.692L45 594.096L0 603.904Z" fill="#1043F5"/>
<path id="Rectangle 3" d="M4.03857 673.21L19.6657 646.143L36.9364 645.565L21.3092 672.632L4.03857 673.21Z" fill="#1043F5"/>
<path id="Rectangle 4_2" d="M30.0894 687.845L45.7165 660.778L36.9258 645.154L21.2986 672.221L30.0894 687.845Z" fill="#1043F5"/>
</g>
</g>
</g>
</svg>
