<svg viewBox="0 0 853 595" fill="none" xmlns="http://www.w3.org/2000/svg">
<g id="0127226">
<g id="Group 366">
<path id="Line 165 (Stroke)" fill-rule="evenodd" clip-rule="evenodd" d="M441.354 500.491V545H436.354V500.491H441.354Z" fill="white"/>
<path id="Line 176 (Stroke)" fill-rule="evenodd" clip-rule="evenodd" d="M357.677 275.266V333.128H352.677V275.266H357.677Z" fill="white"/>
<path id="Line 169 (Stroke)" fill-rule="evenodd" clip-rule="evenodd" d="M608.708 305.978V484.014H603.708V305.978H608.708Z" fill="white"/>
<path id="Line 172 (Stroke)" fill-rule="evenodd" clip-rule="evenodd" d="M525.031 335.354V468.881H520.031V335.354H525.031Z" fill="white"/>
<path id="Line 168 (Stroke)" fill-rule="evenodd" clip-rule="evenodd" d="M274 363.839V484.014H269V363.839H274Z" fill="white"/>
<path id="Line 166 (Stroke)" fill-rule="evenodd" clip-rule="evenodd" d="M608.653 484.014L441.354 544.906L439.644 540.208L606.943 479.316L608.653 484.014Z" fill="white"/>
<path id="Line 170 (Stroke)" fill-rule="evenodd" clip-rule="evenodd" d="M525.003 468.881L441.354 499.327L439.644 494.628L523.293 464.182L525.003 468.881Z" fill="white"/>
<path id="Line 179 (Stroke)" fill-rule="evenodd" clip-rule="evenodd" d="M357.65 335.354L274 365.8L272.29 361.101L355.94 330.655L357.65 335.354Z" fill="white"/>
<path id="Line 180 (Stroke)" fill-rule="evenodd" clip-rule="evenodd" d="M441.326 365.62L357.677 396.066L355.967 391.367L439.616 360.921L441.326 365.62Z" fill="white"/>
<path id="Line 171 (Stroke)" fill-rule="evenodd" clip-rule="evenodd" d="M608.68 305.978L525.031 336.424L523.321 331.725L606.97 301.279L608.68 305.978Z" fill="white"/>
<path id="Line 177 (Stroke)" fill-rule="evenodd" clip-rule="evenodd" d="M441.326 245.001L357.677 275.447L355.967 270.748L439.616 240.302L441.326 245.001Z" fill="white"/>
<path id="Line 167 (Stroke)" fill-rule="evenodd" clip-rule="evenodd" d="M441.299 544.906L274 484.014L275.71 479.315L443.009 540.207L441.299 544.906Z" fill="white"/>
<path id="Line 175 (Stroke)" fill-rule="evenodd" clip-rule="evenodd" d="M524.976 336.604L357.677 275.712L359.387 271.013L526.686 331.905L524.976 336.604Z" fill="white"/>
<path id="Line 174 (Stroke)" fill-rule="evenodd" clip-rule="evenodd" d="M608.653 305.892L441.354 245L443.064 240.302L610.363 301.194L608.653 305.892Z" fill="white"/>
<path id="Line 173 (Stroke)" fill-rule="evenodd" clip-rule="evenodd" d="M357.65 397.401L274 366.955L275.71 362.257L359.36 392.703L357.65 397.401Z" fill="white"/>
<path id="Line 178 (Stroke)" fill-rule="evenodd" clip-rule="evenodd" d="M441.327 363.574L357.677 333.128L359.387 328.43L443.037 358.876L441.327 363.574Z" fill="white"/>
<path id="Line 181 (Stroke)" fill-rule="evenodd" clip-rule="evenodd" d="M441.354 499.147L357.677 394.996L360.795 392.49L444.472 496.641L441.354 499.147Z" fill="white"/>
<path id="Line 182 (Stroke)" fill-rule="evenodd" clip-rule="evenodd" d="M525.031 468.88L441.354 364.729L444.472 362.224L528.149 466.375L525.031 468.88Z" fill="white"/>
</g>
<g id="Group 375">
<path id="Rectangle 193 (Stroke)" fill-rule="evenodd" clip-rule="evenodd" d="M521 6H329V198H521V6ZM325 2V202H525V2H325Z" fill="white"/>
<path id="Line 187 (Stroke)" fill-rule="evenodd" clip-rule="evenodd" d="M425 -4.57764e-05L425 202.04H422L422 -4.57764e-05H425Z" fill="white"/>
<path id="Line 188 (Stroke)" fill-rule="evenodd" clip-rule="evenodd" d="M425 102H325V99H425V102Z" fill="white"/>
</g>
<g id="Horizontal">
<path d="M592.641 152H589.248V140.17H576.346V152H572.971V126.406H576.346V137.41H589.248V126.406H592.641V152Z" fill="white"/>
<path d="M597.264 142.314C597.264 140.451 597.627 138.775 598.354 137.287C599.092 135.799 600.111 134.65 601.412 133.842C602.725 133.033 604.219 132.629 605.895 132.629C608.484 132.629 610.576 133.525 612.17 135.318C613.775 137.111 614.578 139.496 614.578 142.473V142.701C614.578 144.553 614.221 146.217 613.506 147.693C612.803 149.158 611.789 150.301 610.465 151.121C609.152 151.941 607.641 152.352 605.93 152.352C603.352 152.352 601.26 151.455 599.654 149.662C598.061 147.869 597.264 145.496 597.264 142.543V142.314ZM600.533 142.701C600.533 144.811 601.02 146.504 601.992 147.781C602.977 149.059 604.289 149.697 605.93 149.697C607.582 149.697 608.895 149.053 609.867 147.764C610.84 146.463 611.326 144.646 611.326 142.314C611.326 140.229 610.828 138.541 609.832 137.252C608.848 135.951 607.535 135.301 605.895 135.301C604.289 135.301 602.994 135.939 602.01 137.217C601.025 138.494 600.533 140.322 600.533 142.701Z" fill="white"/>
<path d="M627.85 135.898C627.357 135.816 626.824 135.775 626.25 135.775C624.117 135.775 622.67 136.684 621.908 138.5V152H618.656V132.98H621.82L621.873 135.178C622.939 133.479 624.451 132.629 626.408 132.629C627.041 132.629 627.521 132.711 627.85 132.875V135.898Z" fill="white"/>
<path d="M634.389 152H631.137V132.98H634.389V152ZM630.873 127.936C630.873 127.408 631.031 126.963 631.348 126.6C631.676 126.236 632.156 126.055 632.789 126.055C633.422 126.055 633.902 126.236 634.23 126.6C634.559 126.963 634.723 127.408 634.723 127.936C634.723 128.463 634.559 128.902 634.23 129.254C633.902 129.605 633.422 129.781 632.789 129.781C632.156 129.781 631.676 129.605 631.348 129.254C631.031 128.902 630.873 128.463 630.873 127.936Z" fill="white"/>
<path d="M642.668 149.346H653.795V152H638.695V149.609L649.189 135.67H638.854V132.98H653.268V135.283L642.668 149.346Z" fill="white"/>
<path d="M656.326 142.314C656.326 140.451 656.689 138.775 657.416 137.287C658.154 135.799 659.174 134.65 660.475 133.842C661.787 133.033 663.281 132.629 664.957 132.629C667.547 132.629 669.639 133.525 671.232 135.318C672.838 137.111 673.641 139.496 673.641 142.473V142.701C673.641 144.553 673.283 146.217 672.568 147.693C671.865 149.158 670.852 150.301 669.527 151.121C668.215 151.941 666.703 152.352 664.992 152.352C662.414 152.352 660.322 151.455 658.717 149.662C657.123 147.869 656.326 145.496 656.326 142.543V142.314ZM659.596 142.701C659.596 144.811 660.082 146.504 661.055 147.781C662.039 149.059 663.352 149.697 664.992 149.697C666.645 149.697 667.957 149.053 668.93 147.764C669.902 146.463 670.389 144.646 670.389 142.314C670.389 140.229 669.891 138.541 668.895 137.252C667.91 135.951 666.598 135.301 664.957 135.301C663.352 135.301 662.057 135.939 661.072 137.217C660.088 138.494 659.596 140.322 659.596 142.701Z" fill="white"/>
<path d="M680.795 132.98L680.9 135.371C682.354 133.543 684.252 132.629 686.596 132.629C690.615 132.629 692.643 134.896 692.678 139.432V152H689.426V139.414C689.414 138.043 689.098 137.029 688.477 136.373C687.867 135.717 686.912 135.389 685.611 135.389C684.557 135.389 683.631 135.67 682.834 136.232C682.037 136.795 681.416 137.533 680.971 138.447V152H677.719V132.98H680.795Z" fill="white"/>
<path d="M701.994 128.375V132.98H705.545V135.494H701.994V147.289C701.994 148.051 702.152 148.625 702.469 149.012C702.785 149.387 703.324 149.574 704.086 149.574C704.461 149.574 704.977 149.504 705.633 149.363V152C704.777 152.234 703.945 152.352 703.137 152.352C701.684 152.352 700.588 151.912 699.85 151.033C699.111 150.154 698.742 148.906 698.742 147.289V135.494H695.279V132.98H698.742V128.375H701.994Z" fill="white"/>
<path d="M721.102 152C720.914 151.625 720.762 150.957 720.645 149.996C719.133 151.566 717.328 152.352 715.23 152.352C713.355 152.352 711.814 151.824 710.607 150.77C709.412 149.703 708.814 148.355 708.814 146.727C708.814 144.746 709.564 143.211 711.064 142.121C712.576 141.02 714.697 140.469 717.428 140.469H720.592V138.975C720.592 137.838 720.252 136.936 719.572 136.268C718.893 135.588 717.891 135.248 716.566 135.248C715.406 135.248 714.434 135.541 713.648 136.127C712.863 136.713 712.471 137.422 712.471 138.254H709.201C709.201 137.305 709.535 136.391 710.203 135.512C710.883 134.621 711.797 133.918 712.945 133.402C714.105 132.887 715.377 132.629 716.76 132.629C718.951 132.629 720.668 133.18 721.91 134.281C723.152 135.371 723.797 136.877 723.844 138.799V147.553C723.844 149.299 724.066 150.688 724.512 151.719V152H721.102ZM715.705 149.521C716.725 149.521 717.691 149.258 718.605 148.73C719.52 148.203 720.182 147.518 720.592 146.674V142.771H718.043C714.059 142.771 712.066 143.938 712.066 146.27C712.066 147.289 712.406 148.086 713.086 148.66C713.766 149.234 714.639 149.521 715.705 149.521Z" fill="white"/>
<path d="M732.475 152H729.223V125H732.475V152Z" fill="white"/>
</g>
<g id="Group 376">
<path id="Rectangle 193 (Stroke)_2" fill-rule="evenodd" clip-rule="evenodd" d="M196 337H4V529H196V337ZM0 333V533H200V333H0Z" fill="white"/>
<path id="Line 187 (Stroke)_2" fill-rule="evenodd" clip-rule="evenodd" d="M98 400L198 477L196.17 479.377L96.1697 402.377L98 400Z" fill="white"/>
<path id="Line 188 (Stroke)_2" fill-rule="evenodd" clip-rule="evenodd" d="M100 403H0V400H100V403Z" fill="white"/>
</g>
<g id="Frontal">
<path d="M53.0859 277.697H42.3457V289H38.9707V263.406H54.8262V266.184H42.3457V274.938H53.0859V277.697Z" fill="white"/>
<path d="M67.0957 272.898C66.6035 272.816 66.0703 272.775 65.4961 272.775C63.3633 272.775 61.916 273.684 61.1543 275.5V289H57.9023V269.98H61.0664L61.1191 272.178C62.1855 270.479 63.6973 269.629 65.6543 269.629C66.2871 269.629 66.7676 269.711 67.0957 269.875V272.898Z" fill="white"/>
<path d="M68.8887 279.314C68.8887 277.451 69.252 275.775 69.9785 274.287C70.7168 272.799 71.7363 271.65 73.0371 270.842C74.3496 270.033 75.8438 269.629 77.5195 269.629C80.1094 269.629 82.2012 270.525 83.7949 272.318C85.4004 274.111 86.2031 276.496 86.2031 279.473V279.701C86.2031 281.553 85.8457 283.217 85.1309 284.693C84.4277 286.158 83.4141 287.301 82.0898 288.121C80.7773 288.941 79.2656 289.352 77.5547 289.352C74.9766 289.352 72.8848 288.455 71.2793 286.662C69.6855 284.869 68.8887 282.496 68.8887 279.543V279.314ZM72.1582 279.701C72.1582 281.811 72.6445 283.504 73.6172 284.781C74.6016 286.059 75.9141 286.697 77.5547 286.697C79.207 286.697 80.5195 286.053 81.4922 284.764C82.4648 283.463 82.9512 281.646 82.9512 279.314C82.9512 277.229 82.4531 275.541 81.457 274.252C80.4727 272.951 79.1602 272.301 77.5195 272.301C75.9141 272.301 74.6191 272.939 73.6348 274.217C72.6504 275.494 72.1582 277.322 72.1582 279.701Z" fill="white"/>
<path d="M93.3574 269.98L93.4629 272.371C94.916 270.543 96.8145 269.629 99.1582 269.629C103.178 269.629 105.205 271.896 105.24 276.432V289H101.988V276.414C101.977 275.043 101.66 274.029 101.039 273.373C100.43 272.717 99.4746 272.389 98.1738 272.389C97.1191 272.389 96.1934 272.67 95.3965 273.232C94.5996 273.795 93.9785 274.533 93.5332 275.447V289H90.2812V269.98H93.3574Z" fill="white"/>
<path d="M114.557 265.375V269.98H118.107V272.494H114.557V284.289C114.557 285.051 114.715 285.625 115.031 286.012C115.348 286.387 115.887 286.574 116.648 286.574C117.023 286.574 117.539 286.504 118.195 286.363V289C117.34 289.234 116.508 289.352 115.699 289.352C114.246 289.352 113.15 288.912 112.412 288.033C111.674 287.154 111.305 285.906 111.305 284.289V272.494H107.842V269.98H111.305V265.375H114.557Z" fill="white"/>
<path d="M133.664 289C133.477 288.625 133.324 287.957 133.207 286.996C131.695 288.566 129.891 289.352 127.793 289.352C125.918 289.352 124.377 288.824 123.17 287.77C121.975 286.703 121.377 285.355 121.377 283.727C121.377 281.746 122.127 280.211 123.627 279.121C125.139 278.02 127.26 277.469 129.99 277.469H133.154V275.975C133.154 274.838 132.814 273.936 132.135 273.268C131.455 272.588 130.453 272.248 129.129 272.248C127.969 272.248 126.996 272.541 126.211 273.127C125.426 273.713 125.033 274.422 125.033 275.254H121.764C121.764 274.305 122.098 273.391 122.766 272.512C123.445 271.621 124.359 270.918 125.508 270.402C126.668 269.887 127.939 269.629 129.322 269.629C131.514 269.629 133.23 270.18 134.473 271.281C135.715 272.371 136.359 273.877 136.406 275.799V284.553C136.406 286.299 136.629 287.688 137.074 288.719V289H133.664ZM128.268 286.521C129.287 286.521 130.254 286.258 131.168 285.73C132.082 285.203 132.744 284.518 133.154 283.674V279.771H130.605C126.621 279.771 124.629 280.938 124.629 283.27C124.629 284.289 124.969 285.086 125.648 285.66C126.328 286.234 127.201 286.521 128.268 286.521Z" fill="white"/>
<path d="M145.037 289H141.785V262H145.037V289Z" fill="white"/>
</g>
<g id="Group 377">
<path id="Rectangle 193 (Stroke)_3" fill-rule="evenodd" clip-rule="evenodd" d="M751 463H653V595H853V395H753L751 463ZM756.884 399L754.884 467H657V591H849V399H756.884Z" fill="white"/>
<path id="Line 187 (Stroke)_3" fill-rule="evenodd" clip-rule="evenodd" d="M754.914 456L754.914 545.812L751.914 545.812L751.914 456L754.914 456Z" fill="white"/>
<path id="Line 188 (Stroke)_3" fill-rule="evenodd" clip-rule="evenodd" d="M753 546H653V543H753V546Z" fill="white"/>
</g>
<g id="Perfil">
<path d="M739.346 341.98V352H735.971V326.406H745.41C748.211 326.406 750.402 327.121 751.984 328.551C753.578 329.98 754.375 331.873 754.375 334.229C754.375 336.713 753.596 338.629 752.037 339.977C750.49 341.312 748.27 341.98 745.375 341.98H739.346ZM739.346 339.221H745.41C747.215 339.221 748.598 338.799 749.559 337.955C750.52 337.1 751 335.869 751 334.264C751 332.74 750.52 331.521 749.559 330.607C748.598 329.693 747.279 329.219 745.604 329.184H739.346V339.221Z" fill="white"/>
<path d="M765.818 352.352C763.24 352.352 761.143 351.508 759.525 349.82C757.908 348.121 757.1 345.854 757.1 343.018V342.42C757.1 340.533 757.457 338.852 758.172 337.375C758.898 335.887 759.906 334.727 761.195 333.895C762.496 333.051 763.902 332.629 765.414 332.629C767.887 332.629 769.809 333.443 771.18 335.072C772.551 336.701 773.236 339.033 773.236 342.068V343.422H760.352C760.398 345.297 760.943 346.814 761.986 347.975C763.041 349.123 764.377 349.697 765.994 349.697C767.143 349.697 768.115 349.463 768.912 348.994C769.709 348.525 770.406 347.904 771.004 347.131L772.99 348.678C771.396 351.127 769.006 352.352 765.818 352.352ZM765.414 335.301C764.102 335.301 763 335.781 762.109 336.742C761.219 337.691 760.668 339.027 760.457 340.75H769.984V340.504C769.891 338.852 769.445 337.574 768.648 336.672C767.852 335.758 766.773 335.301 765.414 335.301Z" fill="white"/>
<path d="M786.209 335.898C785.717 335.816 785.184 335.775 784.609 335.775C782.477 335.775 781.029 336.684 780.268 338.5V352H777.016V332.98H780.18L780.232 335.178C781.299 333.479 782.811 332.629 784.768 332.629C785.4 332.629 785.881 332.711 786.209 332.875V335.898Z" fill="white"/>
<path d="M790.305 352V335.494H787.299V332.98H790.305V331.363C790.305 329.242 790.908 327.59 792.115 326.406C793.334 325.223 795.051 324.631 797.266 324.631C798.578 324.631 800.236 324.988 802.24 325.703L801.695 328.445C800.23 327.859 798.836 327.566 797.512 327.566C796.117 327.566 795.109 327.883 794.488 328.516C793.879 329.137 793.574 330.074 793.574 331.328V332.98H797.459V335.494H793.574V352H790.305ZM803.857 352H800.588V332.98H803.857V352Z" fill="white"/>
<path d="M812.682 352H809.43V325H812.682V352Z" fill="white"/>
</g>
</g>
</svg>
