<svg viewBox="0 0 971 642" fill="none" xmlns="http://www.w3.org/2000/svg">
<g id="0127119">
<g id="enunciado">
<g id="Group 71">
<path id="Rectangle 1" d="M34 37.2599C34 17.7272 56.5821 1.89282 84.4386 1.89282H954V246.633C954 266.166 931.418 282 903.561 282H34V37.2599Z" fill="#02071A"/>
<path id="Rectangle 1 (Stroke)" fill-rule="evenodd" clip-rule="evenodd" d="M948.956 5.40036H84.4386C59.3678 5.40036 39.0439 19.6528 39.0439 37.234V278.463H903.561C928.632 278.463 948.956 264.21 948.956 246.629V5.40036ZM84.4386 1.86328C56.5821 1.86328 34 17.6993 34 37.234V282H903.561C931.418 282 954 266.164 954 246.629V1.86328H84.4386Z" fill="#CD08D1"/>
<path id="Rectangle 14" d="M88.6249 1.95625C115.602 -2.44531 954 1.95625 954 1.95625V21.0115C954 21.0115 74.3508 14.0077 43.0789 21.0115C52.8092 10.9049 61.6479 6.3578 88.6249 1.95625Z" fill="#CD08D1"/>
<path id="Rectangle 15" d="M922.076 6.0564H952.066V247.362C948.385 263.737 940.755 269.756 922.076 277.612C927.574 264.747 922.076 6.0564 922.076 6.0564Z" fill="#CD08D1"/>
</g>
<g id="Determine la figura de posici&#195;&#179;n 30 en la siguiente secuencia">
<path d="M52.9707 69V43.4062H60.1953C62.4219 43.4062 64.3906 43.8984 66.1016 44.8828C67.8125 45.8672 69.1309 47.2676 70.0566 49.084C70.9941 50.9004 71.4688 52.9863 71.4805 55.3418V56.9766C71.4805 59.3906 71.0117 61.5059 70.0742 63.3223C69.1484 65.1387 67.8184 66.5332 66.084 67.5059C64.3613 68.4785 62.3516 68.9766 60.0547 69H52.9707ZM56.3457 46.1836V66.2402H59.8965C62.498 66.2402 64.5195 65.4316 65.9609 63.8145C67.4141 62.1973 68.1406 59.8945 68.1406 56.9062V55.4121C68.1406 52.5059 67.4551 50.25 66.084 48.6445C64.7246 47.0273 62.791 46.207 60.2832 46.1836H56.3457Z" fill="white"/>
<path d="M83.9785 69.3516C81.4004 69.3516 79.3027 68.5078 77.6855 66.8203C76.0684 65.1211 75.2598 62.8535 75.2598 60.0176V59.4199C75.2598 57.5332 75.6172 55.8516 76.332 54.375C77.0586 52.8867 78.0664 51.7266 79.3555 50.8945C80.6562 50.0508 82.0625 49.6289 83.5742 49.6289C86.0469 49.6289 87.9688 50.4434 89.3398 52.0723C90.7109 53.7012 91.3965 56.0332 91.3965 59.0684V60.4219H78.5117C78.5586 62.2969 79.1035 63.8145 80.1465 64.9746C81.2012 66.123 82.5371 66.6973 84.1543 66.6973C85.3027 66.6973 86.2754 66.4629 87.0723 65.9941C87.8691 65.5254 88.5664 64.9043 89.1641 64.1309L91.1504 65.6777C89.5566 68.127 87.166 69.3516 83.9785 69.3516ZM83.5742 52.3008C82.2617 52.3008 81.1602 52.7812 80.2695 53.7422C79.3789 54.6914 78.8281 56.0273 78.6172 57.75H88.1445V57.5039C88.0508 55.8516 87.6055 54.5742 86.8086 53.6719C86.0117 52.7578 84.9336 52.3008 83.5742 52.3008Z" fill="white"/>
<path d="M99.5879 45.375V49.9805H103.139V52.4941H99.5879V64.2891C99.5879 65.0508 99.7461 65.625 100.062 66.0117C100.379 66.3867 100.918 66.5742 101.68 66.5742C102.055 66.5742 102.57 66.5039 103.227 66.3633V69C102.371 69.2344 101.539 69.3516 100.73 69.3516C99.2773 69.3516 98.1816 68.9121 97.4434 68.0332C96.7051 67.1543 96.3359 65.9062 96.3359 64.2891V52.4941H92.873V49.9805H96.3359V45.375H99.5879Z" fill="white"/>
<path d="M114.846 69.3516C112.268 69.3516 110.17 68.5078 108.553 66.8203C106.936 65.1211 106.127 62.8535 106.127 60.0176V59.4199C106.127 57.5332 106.484 55.8516 107.199 54.375C107.926 52.8867 108.934 51.7266 110.223 50.8945C111.523 50.0508 112.93 49.6289 114.441 49.6289C116.914 49.6289 118.836 50.4434 120.207 52.0723C121.578 53.7012 122.264 56.0332 122.264 59.0684V60.4219H109.379C109.426 62.2969 109.971 63.8145 111.014 64.9746C112.068 66.123 113.404 66.6973 115.021 66.6973C116.17 66.6973 117.143 66.4629 117.939 65.9941C118.736 65.5254 119.434 64.9043 120.031 64.1309L122.018 65.6777C120.424 68.127 118.033 69.3516 114.846 69.3516ZM114.441 52.3008C113.129 52.3008 112.027 52.7812 111.137 53.7422C110.246 54.6914 109.695 56.0273 109.484 57.75H119.012V57.5039C118.918 55.8516 118.473 54.5742 117.676 53.6719C116.879 52.7578 115.801 52.3008 114.441 52.3008Z" fill="white"/>
<path d="M135.236 52.8984C134.744 52.8164 134.211 52.7754 133.637 52.7754C131.504 52.7754 130.057 53.6836 129.295 55.5V69H126.043V49.9805H129.207L129.26 52.1777C130.326 50.4785 131.838 49.6289 133.795 49.6289C134.428 49.6289 134.908 49.7109 135.236 49.875V52.8984Z" fill="white"/>
<path d="M141.301 49.9805L141.389 52.0898C142.783 50.4492 144.664 49.6289 147.031 49.6289C149.691 49.6289 151.502 50.6484 152.463 52.6875C153.096 51.7734 153.916 51.0352 154.924 50.4727C155.943 49.9102 157.145 49.6289 158.527 49.6289C162.699 49.6289 164.82 51.8379 164.891 56.2559V69H161.639V56.4492C161.639 55.0898 161.328 54.0762 160.707 53.4082C160.086 52.7285 159.043 52.3887 157.578 52.3887C156.371 52.3887 155.369 52.752 154.572 53.4785C153.775 54.1934 153.312 55.1602 153.184 56.3789V69H149.914V56.5371C149.914 53.7715 148.561 52.3887 145.854 52.3887C143.721 52.3887 142.262 53.2969 141.477 55.1133V69H138.225V49.9805H141.301Z" fill="white"/>
<path d="M173.346 69H170.094V49.9805H173.346V69ZM169.83 44.9355C169.83 44.4082 169.988 43.9629 170.305 43.5996C170.633 43.2363 171.113 43.0547 171.746 43.0547C172.379 43.0547 172.859 43.2363 173.188 43.5996C173.516 43.9629 173.68 44.4082 173.68 44.9355C173.68 45.4629 173.516 45.9023 173.188 46.2539C172.859 46.6055 172.379 46.7812 171.746 46.7812C171.113 46.7812 170.633 46.6055 170.305 46.2539C169.988 45.9023 169.83 45.4629 169.83 44.9355Z" fill="white"/>
<path d="M181.643 49.9805L181.748 52.3711C183.201 50.543 185.1 49.6289 187.443 49.6289C191.463 49.6289 193.49 51.8965 193.525 56.4316V69H190.273V56.4141C190.262 55.043 189.945 54.0293 189.324 53.373C188.715 52.7168 187.76 52.3887 186.459 52.3887C185.404 52.3887 184.479 52.6699 183.682 53.2324C182.885 53.7949 182.264 54.5332 181.818 55.4473V69H178.566V49.9805H181.643Z" fill="white"/>
<path d="M206.322 69.3516C203.744 69.3516 201.646 68.5078 200.029 66.8203C198.412 65.1211 197.604 62.8535 197.604 60.0176V59.4199C197.604 57.5332 197.961 55.8516 198.676 54.375C199.402 52.8867 200.41 51.7266 201.699 50.8945C203 50.0508 204.406 49.6289 205.918 49.6289C208.391 49.6289 210.312 50.4434 211.684 52.0723C213.055 53.7012 213.74 56.0332 213.74 59.0684V60.4219H200.855C200.902 62.2969 201.447 63.8145 202.49 64.9746C203.545 66.123 204.881 66.6973 206.498 66.6973C207.646 66.6973 208.619 66.4629 209.416 65.9941C210.213 65.5254 210.91 64.9043 211.508 64.1309L213.494 65.6777C211.9 68.127 209.51 69.3516 206.322 69.3516ZM205.918 52.3008C204.605 52.3008 203.504 52.7812 202.613 53.7422C201.723 54.6914 201.172 56.0273 200.961 57.75H210.488V57.5039C210.395 55.8516 209.949 54.5742 209.152 53.6719C208.355 52.7578 207.277 52.3008 205.918 52.3008Z" fill="white"/>
<path d="M229.982 69H226.73V42H229.982V69Z" fill="white"/>
<path d="M246.945 69C246.758 68.625 246.605 67.957 246.488 66.9961C244.977 68.5664 243.172 69.3516 241.074 69.3516C239.199 69.3516 237.658 68.8242 236.451 67.7695C235.256 66.7031 234.658 65.3555 234.658 63.7266C234.658 61.7461 235.408 60.2109 236.908 59.1211C238.42 58.0195 240.541 57.4688 243.271 57.4688H246.436V55.9746C246.436 54.8379 246.096 53.9355 245.416 53.2676C244.736 52.5879 243.734 52.248 242.41 52.248C241.25 52.248 240.277 52.541 239.492 53.127C238.707 53.7129 238.314 54.4219 238.314 55.2539H235.045C235.045 54.3047 235.379 53.3906 236.047 52.5117C236.727 51.6211 237.641 50.918 238.789 50.4023C239.949 49.8867 241.221 49.6289 242.604 49.6289C244.795 49.6289 246.512 50.1797 247.754 51.2812C248.996 52.3711 249.641 53.877 249.688 55.7988V64.5527C249.688 66.2988 249.91 67.6875 250.355 68.7188V69H246.945ZM241.549 66.5215C242.568 66.5215 243.535 66.2578 244.449 65.7305C245.363 65.2031 246.025 64.5176 246.436 63.6738V59.7715H243.887C239.902 59.7715 237.91 60.9375 237.91 63.2695C237.91 64.2891 238.25 65.0859 238.93 65.6602C239.609 66.2344 240.482 66.5215 241.549 66.5215Z" fill="white"/>
<path d="M264.805 69V52.4941H261.799V49.9805H264.805V48.3633C264.805 46.2422 265.408 44.5898 266.615 43.4062C267.834 42.2227 269.551 41.6309 271.766 41.6309C273.078 41.6309 274.736 41.9883 276.74 42.7031L276.195 45.4453C274.73 44.8594 273.336 44.5664 272.012 44.5664C270.617 44.5664 269.609 44.8828 268.988 45.5156C268.379 46.1367 268.074 47.0742 268.074 48.3281V49.9805H271.959V52.4941H268.074V69H264.805ZM278.357 69H275.088V49.9805H278.357V69Z" fill="white"/>
<path d="M282.875 59.332C282.875 56.3672 283.561 54.0117 284.932 52.2656C286.303 50.5078 288.119 49.6289 290.381 49.6289C292.701 49.6289 294.512 50.4492 295.812 52.0898L295.971 49.9805H298.941V68.543C298.941 71.0039 298.209 72.9434 296.744 74.3613C295.291 75.7793 293.334 76.4883 290.873 76.4883C289.502 76.4883 288.16 76.1953 286.848 75.6094C285.535 75.0234 284.533 74.2207 283.842 73.2012L285.529 71.25C286.924 72.9727 288.629 73.834 290.645 73.834C292.227 73.834 293.457 73.3887 294.336 72.498C295.227 71.6074 295.672 70.3535 295.672 68.7363V67.1016C294.371 68.6016 292.596 69.3516 290.346 69.3516C288.119 69.3516 286.314 68.4551 284.932 66.6621C283.561 64.8691 282.875 62.4258 282.875 59.332ZM286.145 59.7012C286.145 61.8457 286.584 63.5332 287.463 64.7637C288.342 65.9824 289.572 66.5918 291.154 66.5918C293.205 66.5918 294.711 65.6602 295.672 63.7969V55.1133C294.676 53.2969 293.182 52.3887 291.189 52.3887C289.607 52.3887 288.371 53.0039 287.48 54.2344C286.59 55.4648 286.145 57.2871 286.145 59.7012Z" fill="white"/>
<path d="M315.605 67.1191C314.34 68.6074 312.482 69.3516 310.033 69.3516C308.006 69.3516 306.459 68.7656 305.393 67.5938C304.338 66.4102 303.805 64.6641 303.793 62.3555V49.9805H307.045V62.2676C307.045 65.1504 308.217 66.5918 310.561 66.5918C313.045 66.5918 314.697 65.666 315.518 63.8145V49.9805H318.77V69H315.676L315.605 67.1191Z" fill="white"/>
<path d="M332.92 52.8984C332.428 52.8164 331.895 52.7754 331.32 52.7754C329.188 52.7754 327.74 53.6836 326.979 55.5V69H323.727V49.9805H326.891L326.943 52.1777C328.01 50.4785 329.521 49.6289 331.479 49.6289C332.111 49.6289 332.592 49.7109 332.92 49.875V52.8984Z" fill="white"/>
<path d="M346.965 69C346.777 68.625 346.625 67.957 346.508 66.9961C344.996 68.5664 343.191 69.3516 341.094 69.3516C339.219 69.3516 337.678 68.8242 336.471 67.7695C335.275 66.7031 334.678 65.3555 334.678 63.7266C334.678 61.7461 335.428 60.2109 336.928 59.1211C338.439 58.0195 340.561 57.4688 343.291 57.4688H346.455V55.9746C346.455 54.8379 346.115 53.9355 345.436 53.2676C344.756 52.5879 343.754 52.248 342.43 52.248C341.27 52.248 340.297 52.541 339.512 53.127C338.727 53.7129 338.334 54.4219 338.334 55.2539H335.064C335.064 54.3047 335.398 53.3906 336.066 52.5117C336.746 51.6211 337.66 50.918 338.809 50.4023C339.969 49.8867 341.24 49.6289 342.623 49.6289C344.814 49.6289 346.531 50.1797 347.773 51.2812C349.016 52.3711 349.66 53.877 349.707 55.7988V64.5527C349.707 66.2988 349.93 67.6875 350.375 68.7188V69H346.965ZM341.568 66.5215C342.588 66.5215 343.555 66.2578 344.469 65.7305C345.383 65.2031 346.045 64.5176 346.455 63.6738V59.7715H343.906C339.922 59.7715 337.93 60.9375 337.93 63.2695C337.93 64.2891 338.27 65.0859 338.949 65.6602C339.629 66.2344 340.502 66.5215 341.568 66.5215Z" fill="white"/>
<path d="M362.943 59.332C362.943 56.4141 363.635 54.0703 365.018 52.3008C366.4 50.5195 368.211 49.6289 370.449 49.6289C372.676 49.6289 374.439 50.3906 375.74 51.9141V42H378.992V69H376.004L375.846 66.9609C374.545 68.5547 372.734 69.3516 370.414 69.3516C368.211 69.3516 366.412 68.4492 365.018 66.6445C363.635 64.8398 362.943 62.4844 362.943 59.5781V59.332ZM366.195 59.7012C366.195 61.8574 366.641 63.5449 367.531 64.7637C368.422 65.9824 369.652 66.5918 371.223 66.5918C373.285 66.5918 374.791 65.666 375.74 63.8145V55.0781C374.768 53.2852 373.273 52.3887 371.258 52.3887C369.664 52.3887 368.422 53.0039 367.531 54.2344C366.641 55.4648 366.195 57.2871 366.195 59.7012Z" fill="white"/>
<path d="M391.947 69.3516C389.369 69.3516 387.271 68.5078 385.654 66.8203C384.037 65.1211 383.229 62.8535 383.229 60.0176V59.4199C383.229 57.5332 383.586 55.8516 384.301 54.375C385.027 52.8867 386.035 51.7266 387.324 50.8945C388.625 50.0508 390.031 49.6289 391.543 49.6289C394.016 49.6289 395.938 50.4434 397.309 52.0723C398.68 53.7012 399.365 56.0332 399.365 59.0684V60.4219H386.48C386.527 62.2969 387.072 63.8145 388.115 64.9746C389.17 66.123 390.506 66.6973 392.123 66.6973C393.271 66.6973 394.244 66.4629 395.041 65.9941C395.838 65.5254 396.535 64.9043 397.133 64.1309L399.119 65.6777C397.525 68.127 395.135 69.3516 391.947 69.3516ZM391.543 52.3008C390.23 52.3008 389.129 52.7812 388.238 53.7422C387.348 54.6914 386.797 56.0273 386.586 57.75H396.113V57.5039C396.02 55.8516 395.574 54.5742 394.777 53.6719C393.98 52.7578 392.902 52.3008 391.543 52.3008Z" fill="white"/>
<path d="M428.141 59.7012C428.141 62.5957 427.479 64.9277 426.154 66.6973C424.83 68.4668 423.037 69.3516 420.775 69.3516C418.467 69.3516 416.65 68.6191 415.326 67.1543V76.3125H412.074V49.9805H415.045L415.203 52.0898C416.527 50.4492 418.367 49.6289 420.723 49.6289C423.008 49.6289 424.812 50.4902 426.137 52.2129C427.473 53.9355 428.141 56.332 428.141 59.4023V59.7012ZM424.889 59.332C424.889 57.1875 424.432 55.4941 423.518 54.252C422.604 53.0098 421.35 52.3887 419.756 52.3887C417.787 52.3887 416.311 53.2617 415.326 55.0078V64.0957C416.299 65.8301 417.787 66.6973 419.791 66.6973C421.35 66.6973 422.586 66.082 423.5 64.8516C424.426 63.6094 424.889 61.7695 424.889 59.332Z" fill="white"/>
<path d="M431.428 59.3145C431.428 57.4512 431.791 55.7754 432.518 54.2871C433.256 52.7988 434.275 51.6504 435.576 50.8418C436.889 50.0332 438.383 49.6289 440.059 49.6289C442.648 49.6289 444.74 50.5254 446.334 52.3184C447.939 54.1113 448.742 56.4961 448.742 59.4727V59.7012C448.742 61.5527 448.385 63.2168 447.67 64.6934C446.967 66.1582 445.953 67.3008 444.629 68.1211C443.316 68.9414 441.805 69.3516 440.094 69.3516C437.516 69.3516 435.424 68.4551 433.818 66.6621C432.225 64.8691 431.428 62.4961 431.428 59.543V59.3145ZM434.697 59.7012C434.697 61.8105 435.184 63.5039 436.156 64.7812C437.141 66.0586 438.453 66.6973 440.094 66.6973C441.746 66.6973 443.059 66.0527 444.031 64.7637C445.004 63.4629 445.49 61.6465 445.49 59.3145C445.49 57.2285 444.992 55.541 443.996 54.252C443.012 52.9512 441.699 52.3008 440.059 52.3008C438.453 52.3008 437.158 52.9395 436.174 54.2168C435.189 55.4941 434.697 57.3223 434.697 59.7012Z" fill="white"/>
<path d="M463.895 63.9551C463.895 63.0762 463.561 62.3965 462.893 61.916C462.236 61.4238 461.082 61.002 459.43 60.6504C457.789 60.2988 456.482 59.877 455.51 59.3848C454.549 58.8926 453.834 58.3066 453.365 57.627C452.908 56.9473 452.68 56.1387 452.68 55.2012C452.68 53.6426 453.336 52.3242 454.648 51.2461C455.973 50.168 457.66 49.6289 459.711 49.6289C461.867 49.6289 463.613 50.1855 464.949 51.2988C466.297 52.4121 466.971 53.8359 466.971 55.5703H463.701C463.701 54.6797 463.32 53.9121 462.559 53.2676C461.809 52.623 460.859 52.3008 459.711 52.3008C458.527 52.3008 457.602 52.5586 456.934 53.0742C456.266 53.5898 455.932 54.2637 455.932 55.0957C455.932 55.8809 456.242 56.4727 456.863 56.8711C457.484 57.2695 458.604 57.6504 460.221 58.0137C461.85 58.377 463.168 58.8105 464.176 59.3145C465.184 59.8184 465.928 60.4277 466.408 61.1426C466.9 61.8457 467.146 62.707 467.146 63.7266C467.146 65.4258 466.467 66.791 465.107 67.8223C463.748 68.8418 461.984 69.3516 459.816 69.3516C458.293 69.3516 456.945 69.082 455.773 68.543C454.602 68.0039 453.682 67.2539 453.014 66.293C452.357 65.3203 452.029 64.2715 452.029 63.1465H455.281C455.34 64.2363 455.773 65.1035 456.582 65.748C457.402 66.3809 458.48 66.6973 459.816 66.6973C461.047 66.6973 462.031 66.4512 462.77 65.959C463.52 65.4551 463.895 64.7871 463.895 63.9551Z" fill="white"/>
<path d="M474.916 69H471.664V49.9805H474.916V69ZM471.4 44.9355C471.4 44.4082 471.559 43.9629 471.875 43.5996C472.203 43.2363 472.684 43.0547 473.316 43.0547C473.949 43.0547 474.43 43.2363 474.758 43.5996C475.086 43.9629 475.25 44.4082 475.25 44.9355C475.25 45.4629 475.086 45.9023 474.758 46.2539C474.43 46.6055 473.949 46.7812 473.316 46.7812C472.684 46.7812 472.203 46.6055 471.875 46.2539C471.559 45.9023 471.4 45.4629 471.4 44.9355Z" fill="white"/>
<path d="M487.766 66.6973C488.926 66.6973 489.939 66.3457 490.807 65.6426C491.674 64.9395 492.154 64.0605 492.248 63.0059H495.324C495.266 64.0957 494.891 65.1328 494.199 66.1172C493.508 67.1016 492.582 67.8867 491.422 68.4727C490.273 69.0586 489.055 69.3516 487.766 69.3516C485.176 69.3516 483.113 68.4902 481.578 66.7676C480.055 65.0332 479.293 62.666 479.293 59.666V59.1211C479.293 57.2695 479.633 55.623 480.312 54.1816C480.992 52.7402 481.965 51.6211 483.23 50.8242C484.508 50.0273 486.014 49.6289 487.748 49.6289C489.881 49.6289 491.65 50.2676 493.057 51.5449C494.475 52.8223 495.23 54.4805 495.324 56.5195H492.248C492.154 55.2891 491.686 54.2812 490.842 53.4961C490.01 52.6992 488.979 52.3008 487.748 52.3008C486.096 52.3008 484.812 52.8984 483.898 54.0938C482.996 55.2773 482.545 56.9941 482.545 59.2441V59.8594C482.545 62.0508 482.996 63.7383 483.898 64.9219C484.801 66.1055 486.09 66.6973 487.766 66.6973Z" fill="white"/>
<path d="M502.514 69H499.262V49.9805H502.514V69ZM498.998 44.9355C498.998 44.4082 499.156 43.9629 499.473 43.5996C499.801 43.2363 500.281 43.0547 500.914 43.0547C501.547 43.0547 502.027 43.2363 502.355 43.5996C502.684 43.9629 502.848 44.4082 502.848 44.9355C502.848 45.4629 502.684 45.9023 502.355 46.2539C502.027 46.6055 501.547 46.7812 500.914 46.7812C500.281 46.7812 499.801 46.6055 499.473 46.2539C499.156 45.9023 498.998 45.4629 498.998 44.9355Z" fill="white"/>
<path d="M506.873 59.3145C506.873 57.4512 507.236 55.7754 507.963 54.2871C508.701 52.7988 509.721 51.6504 511.021 50.8418C512.334 50.0332 513.828 49.6289 515.504 49.6289C518.094 49.6289 520.186 50.5254 521.779 52.3184C523.385 54.1113 524.188 56.4961 524.188 59.4727V59.7012C524.188 61.5527 523.83 63.2168 523.115 64.6934C522.412 66.1582 521.398 67.3008 520.074 68.1211C518.762 68.9414 517.25 69.3516 515.539 69.3516C512.961 69.3516 510.869 68.4551 509.264 66.6621C507.67 64.8691 506.873 62.4961 506.873 59.543V59.3145ZM510.143 59.7012C510.143 61.8105 510.629 63.5039 511.602 64.7812C512.586 66.0586 513.898 66.6973 515.539 66.6973C517.191 66.6973 518.504 66.0527 519.477 64.7637C520.449 63.4629 520.936 61.6465 520.936 59.3145C520.936 57.2285 520.438 55.541 519.441 54.252C518.457 52.9512 517.145 52.3008 515.504 52.3008C513.898 52.3008 512.604 52.9395 511.619 54.2168C510.635 55.4941 510.143 57.3223 510.143 59.7012ZM516.98 42H520.918L516.207 47.168H513.588L516.98 42Z" fill="white"/>
<path d="M531.342 49.9805L531.447 52.3711C532.9 50.543 534.799 49.6289 537.143 49.6289C541.162 49.6289 543.189 51.8965 543.225 56.4316V69H539.973V56.4141C539.961 55.043 539.645 54.0293 539.023 53.373C538.414 52.7168 537.459 52.3887 536.158 52.3887C535.104 52.3887 534.178 52.6699 533.381 53.2324C532.584 53.7949 531.963 54.5332 531.518 55.4473V69H528.266V49.9805H531.342Z" fill="white"/>
<path d="M561.453 54.6211H563.896C565.432 54.5977 566.639 54.1934 567.518 53.4082C568.396 52.623 568.836 51.5625 568.836 50.2266C568.836 47.2266 567.342 45.7266 564.354 45.7266C562.947 45.7266 561.822 46.1309 560.979 46.9395C560.146 47.7363 559.73 48.7969 559.73 50.1211H556.479C556.479 48.0938 557.217 46.4121 558.693 45.0762C560.182 43.7285 562.068 43.0547 564.354 43.0547C566.768 43.0547 568.66 43.6934 570.031 44.9707C571.402 46.248 572.088 48.0234 572.088 50.2969C572.088 51.4102 571.725 52.4883 570.998 53.5312C570.283 54.5742 569.305 55.3535 568.062 55.8691C569.469 56.3145 570.553 57.0527 571.314 58.084C572.088 59.1152 572.475 60.375 572.475 61.8633C572.475 64.1602 571.725 65.9824 570.225 67.3301C568.725 68.6777 566.773 69.3516 564.371 69.3516C561.969 69.3516 560.012 68.7012 558.5 67.4004C557 66.0996 556.25 64.3828 556.25 62.25H559.52C559.52 63.5977 559.959 64.6758 560.838 65.4844C561.717 66.293 562.895 66.6973 564.371 66.6973C565.941 66.6973 567.143 66.2871 567.975 65.4668C568.807 64.6465 569.223 63.4688 569.223 61.9336C569.223 60.4453 568.766 59.3027 567.852 58.5059C566.938 57.709 565.619 57.2988 563.896 57.2754H561.453V54.6211Z" fill="white"/>
<path d="M592.988 58.084C592.988 61.8926 592.338 64.7227 591.037 66.5742C589.736 68.4258 587.703 69.3516 584.938 69.3516C582.207 69.3516 580.186 68.4492 578.873 66.6445C577.561 64.8281 576.881 62.1211 576.834 58.5234V54.1816C576.834 50.4199 577.484 47.625 578.785 45.7969C580.086 43.9688 582.125 43.0547 584.902 43.0547C587.656 43.0547 589.684 43.9395 590.984 45.709C592.285 47.4668 592.953 50.1855 592.988 53.8652V58.084ZM589.736 53.6367C589.736 50.8828 589.35 48.8789 588.576 47.625C587.803 46.3594 586.578 45.7266 584.902 45.7266C583.238 45.7266 582.025 46.3535 581.264 47.6074C580.502 48.8613 580.109 50.7891 580.086 53.3906V58.5938C580.086 61.3594 580.484 63.4043 581.281 64.7285C582.09 66.041 583.309 66.6973 584.938 66.6973C586.543 66.6973 587.732 66.0762 588.506 64.834C589.291 63.5918 589.701 61.6348 589.736 58.9629V53.6367Z" fill="white"/>
<path d="M614.311 69.3516C611.732 69.3516 609.635 68.5078 608.018 66.8203C606.4 65.1211 605.592 62.8535 605.592 60.0176V59.4199C605.592 57.5332 605.949 55.8516 606.664 54.375C607.391 52.8867 608.398 51.7266 609.688 50.8945C610.988 50.0508 612.395 49.6289 613.906 49.6289C616.379 49.6289 618.301 50.4434 619.672 52.0723C621.043 53.7012 621.729 56.0332 621.729 59.0684V60.4219H608.844C608.891 62.2969 609.436 63.8145 610.479 64.9746C611.533 66.123 612.869 66.6973 614.486 66.6973C615.635 66.6973 616.607 66.4629 617.404 65.9941C618.201 65.5254 618.898 64.9043 619.496 64.1309L621.482 65.6777C619.889 68.127 617.498 69.3516 614.311 69.3516ZM613.906 52.3008C612.594 52.3008 611.492 52.7812 610.602 53.7422C609.711 54.6914 609.16 56.0273 608.949 57.75H618.477V57.5039C618.383 55.8516 617.938 54.5742 617.141 53.6719C616.344 52.7578 615.266 52.3008 613.906 52.3008Z" fill="white"/>
<path d="M628.584 49.9805L628.689 52.3711C630.143 50.543 632.041 49.6289 634.385 49.6289C638.404 49.6289 640.432 51.8965 640.467 56.4316V69H637.215V56.4141C637.203 55.043 636.887 54.0293 636.266 53.373C635.656 52.7168 634.701 52.3887 633.4 52.3887C632.346 52.3887 631.42 52.6699 630.623 53.2324C629.826 53.7949 629.205 54.5332 628.76 55.4473V69H625.508V49.9805H628.584Z" fill="white"/>
<path d="M657.834 69H654.582V42H657.834V69Z" fill="white"/>
<path d="M674.797 69C674.609 68.625 674.457 67.957 674.34 66.9961C672.828 68.5664 671.023 69.3516 668.926 69.3516C667.051 69.3516 665.51 68.8242 664.303 67.7695C663.107 66.7031 662.51 65.3555 662.51 63.7266C662.51 61.7461 663.26 60.2109 664.76 59.1211C666.271 58.0195 668.393 57.4688 671.123 57.4688H674.287V55.9746C674.287 54.8379 673.947 53.9355 673.268 53.2676C672.588 52.5879 671.586 52.248 670.262 52.248C669.102 52.248 668.129 52.541 667.344 53.127C666.559 53.7129 666.166 54.4219 666.166 55.2539H662.896C662.896 54.3047 663.23 53.3906 663.898 52.5117C664.578 51.6211 665.492 50.918 666.641 50.4023C667.801 49.8867 669.072 49.6289 670.455 49.6289C672.646 49.6289 674.363 50.1797 675.605 51.2812C676.848 52.3711 677.492 53.877 677.539 55.7988V64.5527C677.539 66.2988 677.762 67.6875 678.207 68.7188V69H674.797ZM669.4 66.5215C670.42 66.5215 671.387 66.2578 672.301 65.7305C673.215 65.2031 673.877 64.5176 674.287 63.6738V59.7715H671.738C667.754 59.7715 665.762 60.9375 665.762 63.2695C665.762 64.2891 666.102 65.0859 666.781 65.6602C667.461 66.2344 668.334 66.5215 669.4 66.5215Z" fill="white"/>
<path d="M702.641 63.9551C702.641 63.0762 702.307 62.3965 701.639 61.916C700.982 61.4238 699.828 61.002 698.176 60.6504C696.535 60.2988 695.229 59.877 694.256 59.3848C693.295 58.8926 692.58 58.3066 692.111 57.627C691.654 56.9473 691.426 56.1387 691.426 55.2012C691.426 53.6426 692.082 52.3242 693.395 51.2461C694.719 50.168 696.406 49.6289 698.457 49.6289C700.613 49.6289 702.359 50.1855 703.695 51.2988C705.043 52.4121 705.717 53.8359 705.717 55.5703H702.447C702.447 54.6797 702.066 53.9121 701.305 53.2676C700.555 52.623 699.605 52.3008 698.457 52.3008C697.273 52.3008 696.348 52.5586 695.68 53.0742C695.012 53.5898 694.678 54.2637 694.678 55.0957C694.678 55.8809 694.988 56.4727 695.609 56.8711C696.23 57.2695 697.35 57.6504 698.967 58.0137C700.596 58.377 701.914 58.8105 702.922 59.3145C703.93 59.8184 704.674 60.4277 705.154 61.1426C705.646 61.8457 705.893 62.707 705.893 63.7266C705.893 65.4258 705.213 66.791 703.854 67.8223C702.494 68.8418 700.73 69.3516 698.562 69.3516C697.039 69.3516 695.691 69.082 694.52 68.543C693.348 68.0039 692.428 67.2539 691.76 66.293C691.104 65.3203 690.775 64.2715 690.775 63.1465H694.027C694.086 64.2363 694.52 65.1035 695.328 65.748C696.148 66.3809 697.227 66.6973 698.562 66.6973C699.793 66.6973 700.777 66.4512 701.516 65.959C702.266 65.4551 702.641 64.7871 702.641 63.9551Z" fill="white"/>
<path d="M713.662 69H710.41V49.9805H713.662V69ZM710.146 44.9355C710.146 44.4082 710.305 43.9629 710.621 43.5996C710.949 43.2363 711.43 43.0547 712.062 43.0547C712.695 43.0547 713.176 43.2363 713.504 43.5996C713.832 43.9629 713.996 44.4082 713.996 44.9355C713.996 45.4629 713.832 45.9023 713.504 46.2539C713.176 46.6055 712.695 46.7812 712.062 46.7812C711.43 46.7812 710.949 46.6055 710.621 46.2539C710.305 45.9023 710.146 45.4629 710.146 44.9355Z" fill="white"/>
<path d="M718.109 59.332C718.109 56.3672 718.795 54.0117 720.166 52.2656C721.537 50.5078 723.354 49.6289 725.615 49.6289C727.936 49.6289 729.746 50.4492 731.047 52.0898L731.205 49.9805H734.176V68.543C734.176 71.0039 733.443 72.9434 731.979 74.3613C730.525 75.7793 728.568 76.4883 726.107 76.4883C724.736 76.4883 723.395 76.1953 722.082 75.6094C720.77 75.0234 719.768 74.2207 719.076 73.2012L720.764 71.25C722.158 72.9727 723.863 73.834 725.879 73.834C727.461 73.834 728.691 73.3887 729.57 72.498C730.461 71.6074 730.906 70.3535 730.906 68.7363V67.1016C729.605 68.6016 727.83 69.3516 725.58 69.3516C723.354 69.3516 721.549 68.4551 720.166 66.6621C718.795 64.8691 718.109 62.4258 718.109 59.332ZM721.379 59.7012C721.379 61.8457 721.818 63.5332 722.697 64.7637C723.576 65.9824 724.807 66.5918 726.389 66.5918C728.439 66.5918 729.945 65.6602 730.906 63.7969V55.1133C729.91 53.2969 728.416 52.3887 726.424 52.3887C724.842 52.3887 723.605 53.0039 722.715 54.2344C721.824 55.4648 721.379 57.2871 721.379 59.7012Z" fill="white"/>
<path d="M750.84 67.1191C749.574 68.6074 747.717 69.3516 745.268 69.3516C743.24 69.3516 741.693 68.7656 740.627 67.5938C739.572 66.4102 739.039 64.6641 739.027 62.3555V49.9805H742.279V62.2676C742.279 65.1504 743.451 66.5918 745.795 66.5918C748.279 66.5918 749.932 65.666 750.752 63.8145V49.9805H754.004V69H750.91L750.84 67.1191Z" fill="white"/>
<path d="M762.494 69H759.242V49.9805H762.494V69ZM758.979 44.9355C758.979 44.4082 759.137 43.9629 759.453 43.5996C759.781 43.2363 760.262 43.0547 760.895 43.0547C761.527 43.0547 762.008 43.2363 762.336 43.5996C762.664 43.9629 762.828 44.4082 762.828 44.9355C762.828 45.4629 762.664 45.9023 762.336 46.2539C762.008 46.6055 761.527 46.7812 760.895 46.7812C760.262 46.7812 759.781 46.6055 759.453 46.2539C759.137 45.9023 758.979 45.4629 758.979 44.9355Z" fill="white"/>
<path d="M775.607 69.3516C773.029 69.3516 770.932 68.5078 769.314 66.8203C767.697 65.1211 766.889 62.8535 766.889 60.0176V59.4199C766.889 57.5332 767.246 55.8516 767.961 54.375C768.688 52.8867 769.695 51.7266 770.984 50.8945C772.285 50.0508 773.691 49.6289 775.203 49.6289C777.676 49.6289 779.598 50.4434 780.969 52.0723C782.34 53.7012 783.025 56.0332 783.025 59.0684V60.4219H770.141C770.188 62.2969 770.732 63.8145 771.775 64.9746C772.83 66.123 774.166 66.6973 775.783 66.6973C776.932 66.6973 777.904 66.4629 778.701 65.9941C779.498 65.5254 780.195 64.9043 780.793 64.1309L782.779 65.6777C781.186 68.127 778.795 69.3516 775.607 69.3516ZM775.203 52.3008C773.891 52.3008 772.789 52.7812 771.898 53.7422C771.008 54.6914 770.457 56.0273 770.246 57.75H779.773V57.5039C779.68 55.8516 779.234 54.5742 778.438 53.6719C777.641 52.7578 776.562 52.3008 775.203 52.3008Z" fill="white"/>
<path d="M789.881 49.9805L789.986 52.3711C791.439 50.543 793.338 49.6289 795.682 49.6289C799.701 49.6289 801.729 51.8965 801.764 56.4316V69H798.512V56.4141C798.5 55.043 798.184 54.0293 797.562 53.373C796.953 52.7168 795.998 52.3887 794.697 52.3887C793.643 52.3887 792.717 52.6699 791.92 53.2324C791.123 53.7949 790.502 54.5332 790.057 55.4473V69H786.805V49.9805H789.881Z" fill="white"/>
<path d="M811.08 45.375V49.9805H814.631V52.4941H811.08V64.2891C811.08 65.0508 811.238 65.625 811.555 66.0117C811.871 66.3867 812.41 66.5742 813.172 66.5742C813.547 66.5742 814.062 66.5039 814.719 66.3633V69C813.863 69.2344 813.031 69.3516 812.223 69.3516C810.77 69.3516 809.674 68.9121 808.936 68.0332C808.197 67.1543 807.828 65.9062 807.828 64.2891V52.4941H804.365V49.9805H807.828V45.375H811.08Z" fill="white"/>
<path d="M826.338 69.3516C823.76 69.3516 821.662 68.5078 820.045 66.8203C818.428 65.1211 817.619 62.8535 817.619 60.0176V59.4199C817.619 57.5332 817.977 55.8516 818.691 54.375C819.418 52.8867 820.426 51.7266 821.715 50.8945C823.016 50.0508 824.422 49.6289 825.934 49.6289C828.406 49.6289 830.328 50.4434 831.699 52.0723C833.07 53.7012 833.756 56.0332 833.756 59.0684V60.4219H820.871C820.918 62.2969 821.463 63.8145 822.506 64.9746C823.561 66.123 824.896 66.6973 826.514 66.6973C827.662 66.6973 828.635 66.4629 829.432 65.9941C830.229 65.5254 830.926 64.9043 831.523 64.1309L833.51 65.6777C831.916 68.127 829.525 69.3516 826.338 69.3516ZM825.934 52.3008C824.621 52.3008 823.52 52.7812 822.629 53.7422C821.738 54.6914 821.188 56.0273 820.977 57.75H830.504V57.5039C830.41 55.8516 829.965 54.5742 829.168 53.6719C828.371 52.7578 827.293 52.3008 825.934 52.3008Z" fill="white"/>
<path d="M63.5352 105.955C63.5352 105.076 63.2012 104.396 62.5332 103.916C61.877 103.424 60.7227 103.002 59.0703 102.65C57.4297 102.299 56.123 101.877 55.1504 101.385C54.1895 100.893 53.4746 100.307 53.0059 99.627C52.5488 98.9473 52.3203 98.1387 52.3203 97.2012C52.3203 95.6426 52.9766 94.3242 54.2891 93.2461C55.6133 92.168 57.3008 91.6289 59.3516 91.6289C61.5078 91.6289 63.2539 92.1855 64.5898 93.2988C65.9375 94.4121 66.6113 95.8359 66.6113 97.5703H63.3418C63.3418 96.6797 62.9609 95.9121 62.1992 95.2676C61.4492 94.623 60.5 94.3008 59.3516 94.3008C58.168 94.3008 57.2422 94.5586 56.5742 95.0742C55.9062 95.5898 55.5723 96.2637 55.5723 97.0957C55.5723 97.8809 55.8828 98.4727 56.5039 98.8711C57.125 99.2695 58.2441 99.6504 59.8613 100.014C61.4902 100.377 62.8086 100.811 63.8164 101.314C64.8242 101.818 65.5684 102.428 66.0488 103.143C66.541 103.846 66.7871 104.707 66.7871 105.727C66.7871 107.426 66.1074 108.791 64.748 109.822C63.3887 110.842 61.625 111.352 59.457 111.352C57.9336 111.352 56.5859 111.082 55.4141 110.543C54.2422 110.004 53.3223 109.254 52.6543 108.293C51.998 107.32 51.6699 106.271 51.6699 105.146H54.9219C54.9805 106.236 55.4141 107.104 56.2227 107.748C57.043 108.381 58.1211 108.697 59.457 108.697C60.6875 108.697 61.6719 108.451 62.4102 107.959C63.1602 107.455 63.5352 106.787 63.5352 105.955Z" fill="white"/>
<path d="M78.916 111.352C76.3379 111.352 74.2402 110.508 72.623 108.82C71.0059 107.121 70.1973 104.854 70.1973 102.018V101.42C70.1973 99.5332 70.5547 97.8516 71.2695 96.375C71.9961 94.8867 73.0039 93.7266 74.293 92.8945C75.5938 92.0508 77 91.6289 78.5117 91.6289C80.9844 91.6289 82.9062 92.4434 84.2773 94.0723C85.6484 95.7012 86.334 98.0332 86.334 101.068V102.422H73.4492C73.4961 104.297 74.041 105.814 75.084 106.975C76.1387 108.123 77.4746 108.697 79.0918 108.697C80.2402 108.697 81.2129 108.463 82.0098 107.994C82.8066 107.525 83.5039 106.904 84.1016 106.131L86.0879 107.678C84.4941 110.127 82.1035 111.352 78.916 111.352ZM78.5117 94.3008C77.1992 94.3008 76.0977 94.7812 75.207 95.7422C74.3164 96.6914 73.7656 98.0273 73.5547 99.75H83.082V99.5039C82.9883 97.8516 82.543 96.5742 81.7461 95.6719C80.9492 94.7578 79.8711 94.3008 78.5117 94.3008Z" fill="white"/>
<path d="M97.7422 108.697C98.9023 108.697 99.916 108.346 100.783 107.643C101.65 106.939 102.131 106.061 102.225 105.006H105.301C105.242 106.096 104.867 107.133 104.176 108.117C103.484 109.102 102.559 109.887 101.398 110.473C100.25 111.059 99.0312 111.352 97.7422 111.352C95.1523 111.352 93.0898 110.49 91.5547 108.768C90.0312 107.033 89.2695 104.666 89.2695 101.666V101.121C89.2695 99.2695 89.6094 97.623 90.2891 96.1816C90.9688 94.7402 91.9414 93.6211 93.207 92.8242C94.4844 92.0273 95.9902 91.6289 97.7246 91.6289C99.8574 91.6289 101.627 92.2676 103.033 93.5449C104.451 94.8223 105.207 96.4805 105.301 98.5195H102.225C102.131 97.2891 101.662 96.2812 100.818 95.4961C99.9863 94.6992 98.9551 94.3008 97.7246 94.3008C96.0723 94.3008 94.7891 94.8984 93.875 96.0938C92.9727 97.2773 92.5215 98.9941 92.5215 101.244V101.859C92.5215 104.051 92.9727 105.738 93.875 106.922C94.7773 108.105 96.0664 108.697 97.7422 108.697Z" fill="white"/>
<path d="M120.699 109.119C119.434 110.607 117.576 111.352 115.127 111.352C113.1 111.352 111.553 110.766 110.486 109.594C109.432 108.41 108.898 106.664 108.887 104.355V91.9805H112.139V104.268C112.139 107.15 113.311 108.592 115.654 108.592C118.139 108.592 119.791 107.666 120.611 105.814V91.9805H123.863V111H120.77L120.699 109.119Z" fill="white"/>
<path d="M136.713 111.352C134.135 111.352 132.037 110.508 130.42 108.82C128.803 107.121 127.994 104.854 127.994 102.018V101.42C127.994 99.5332 128.352 97.8516 129.066 96.375C129.793 94.8867 130.801 93.7266 132.09 92.8945C133.391 92.0508 134.797 91.6289 136.309 91.6289C138.781 91.6289 140.703 92.4434 142.074 94.0723C143.445 95.7012 144.131 98.0332 144.131 101.068V102.422H131.246C131.293 104.297 131.838 105.814 132.881 106.975C133.936 108.123 135.271 108.697 136.889 108.697C138.037 108.697 139.01 108.463 139.807 107.994C140.604 107.525 141.301 106.904 141.898 106.131L143.885 107.678C142.291 110.127 139.9 111.352 136.713 111.352ZM136.309 94.3008C134.996 94.3008 133.895 94.7812 133.004 95.7422C132.113 96.6914 131.562 98.0273 131.352 99.75H140.879V99.5039C140.785 97.8516 140.34 96.5742 139.543 95.6719C138.746 94.7578 137.668 94.3008 136.309 94.3008Z" fill="white"/>
<path d="M150.986 91.9805L151.092 94.3711C152.545 92.543 154.443 91.6289 156.787 91.6289C160.807 91.6289 162.834 93.8965 162.869 98.4316V111H159.617V98.4141C159.605 97.043 159.289 96.0293 158.668 95.373C158.059 94.7168 157.104 94.3887 155.803 94.3887C154.748 94.3887 153.822 94.6699 153.025 95.2324C152.229 95.7949 151.607 96.5332 151.162 97.4473V111H147.91V91.9805H150.986Z" fill="white"/>
<path d="M175.402 108.697C176.562 108.697 177.576 108.346 178.443 107.643C179.311 106.939 179.791 106.061 179.885 105.006H182.961C182.902 106.096 182.527 107.133 181.836 108.117C181.145 109.102 180.219 109.887 179.059 110.473C177.91 111.059 176.691 111.352 175.402 111.352C172.812 111.352 170.75 110.49 169.215 108.768C167.691 107.033 166.93 104.666 166.93 101.666V101.121C166.93 99.2695 167.27 97.623 167.949 96.1816C168.629 94.7402 169.602 93.6211 170.867 92.8242C172.145 92.0273 173.65 91.6289 175.385 91.6289C177.518 91.6289 179.287 92.2676 180.693 93.5449C182.111 94.8223 182.867 96.4805 182.961 98.5195H179.885C179.791 97.2891 179.322 96.2812 178.479 95.4961C177.646 94.6992 176.615 94.3008 175.385 94.3008C173.732 94.3008 172.449 94.8984 171.535 96.0938C170.633 97.2773 170.182 98.9941 170.182 101.244V101.859C170.182 104.051 170.633 105.738 171.535 106.922C172.438 108.105 173.727 108.697 175.402 108.697Z" fill="white"/>
<path d="M190.15 111H186.898V91.9805H190.15V111ZM186.635 86.9355C186.635 86.4082 186.793 85.9629 187.109 85.5996C187.438 85.2363 187.918 85.0547 188.551 85.0547C189.184 85.0547 189.664 85.2363 189.992 85.5996C190.32 85.9629 190.484 86.4082 190.484 86.9355C190.484 87.4629 190.32 87.9023 189.992 88.2539C189.664 88.6055 189.184 88.7812 188.551 88.7812C187.918 88.7812 187.438 88.6055 187.109 88.2539C186.793 87.9023 186.635 87.4629 186.635 86.9355Z" fill="white"/>
<path d="M207.113 111C206.926 110.625 206.773 109.957 206.656 108.996C205.145 110.566 203.34 111.352 201.242 111.352C199.367 111.352 197.826 110.824 196.619 109.77C195.424 108.703 194.826 107.355 194.826 105.727C194.826 103.746 195.576 102.211 197.076 101.121C198.588 100.02 200.709 99.4688 203.439 99.4688H206.604V97.9746C206.604 96.8379 206.264 95.9355 205.584 95.2676C204.904 94.5879 203.902 94.248 202.578 94.248C201.418 94.248 200.445 94.541 199.66 95.127C198.875 95.7129 198.482 96.4219 198.482 97.2539H195.213C195.213 96.3047 195.547 95.3906 196.215 94.5117C196.895 93.6211 197.809 92.918 198.957 92.4023C200.117 91.8867 201.389 91.6289 202.771 91.6289C204.963 91.6289 206.68 92.1797 207.922 93.2812C209.164 94.3711 209.809 95.877 209.855 97.7988V106.553C209.855 108.299 210.078 109.688 210.523 110.719V111H207.113ZM201.717 108.521C202.736 108.521 203.703 108.258 204.617 107.73C205.531 107.203 206.193 106.518 206.604 105.674V101.771H204.055C200.07 101.771 198.078 102.938 198.078 105.27C198.078 106.289 198.418 107.086 199.098 107.66C199.777 108.234 200.65 108.521 201.717 108.521Z" fill="white"/>
</g>
<g id="Group 283">
<g id="Group 278">
<path id="Ellipse 25 (Stroke)" fill-rule="evenodd" clip-rule="evenodd" d="M256 255C291.899 255 321 225.899 321 190C321 154.101 291.899 125 256 125C220.101 125 191 154.101 191 190C191 225.899 220.101 255 256 255ZM256 260C294.66 260 326 228.66 326 190C326 151.34 294.66 120 256 120C217.34 120 186 151.34 186 190C186 228.66 217.34 260 256 260Z" fill="white"/>
<path id="Ellipse 26 (Stroke)" fill-rule="evenodd" clip-rule="evenodd" d="M256 240C283.614 240 306 217.614 306 190C306 162.386 283.614 140 256 140C228.386 140 206 162.386 206 190C206 217.614 228.386 240 256 240ZM256 245C286.376 245 311 220.376 311 190C311 159.624 286.376 135 256 135C225.624 135 201 159.624 201 190C201 220.376 225.624 245 256 245Z" fill="white"/>
<path id="Line 132 (Stroke)" fill-rule="evenodd" clip-rule="evenodd" d="M256 260V120H259V260H256Z" fill="white"/>
<path id="Line 133 (Stroke)" fill-rule="evenodd" clip-rule="evenodd" d="M326 190H186V187H326V190Z" fill="white"/>
<path id="Ellipse 27" d="M245 168C245 173.523 240.523 178 235 178C229.477 178 225 173.523 225 168C225 162.477 229.477 158 235 158C240.523 158 245 162.477 245 168Z" fill="white"/>
<path id="Ellipse 28 (Stroke)" fill-rule="evenodd" clip-rule="evenodd" d="M235 220C239.418 220 243 216.418 243 212C243 207.582 239.418 204 235 204C230.582 204 227 207.582 227 212C227 216.418 230.582 220 235 220ZM235 222C240.523 222 245 217.523 245 212C245 206.477 240.523 202 235 202C229.477 202 225 206.477 225 212C225 217.523 229.477 222 235 222Z" fill="white"/>
<path id="Ellipse 29" d="M326 190C326 180.807 324.189 171.705 320.672 163.212C317.154 154.719 311.998 147.003 305.497 140.503C298.997 134.002 291.281 128.846 282.788 125.328C274.295 121.811 265.193 120 256 120V137.595C262.882 137.595 269.696 138.951 276.054 141.584C282.412 144.218 288.189 148.078 293.056 152.944C297.922 157.811 301.782 163.588 304.416 169.946C307.049 176.304 308.405 183.118 308.405 190H326Z" fill="white"/>
</g>
<g id="Group 279">
<path id="Ellipse 25 (Stroke)_2" fill-rule="evenodd" clip-rule="evenodd" d="M409 255C444.899 255 474 225.899 474 190C474 154.101 444.899 125 409 125C373.101 125 344 154.101 344 190C344 225.899 373.101 255 409 255ZM409 260C447.66 260 479 228.66 479 190C479 151.34 447.66 120 409 120C370.34 120 339 151.34 339 190C339 228.66 370.34 260 409 260Z" fill="white"/>
<path id="Ellipse 26 (Stroke)_2" fill-rule="evenodd" clip-rule="evenodd" d="M409 240C436.614 240 459 217.614 459 190C459 162.386 436.614 140 409 140C381.386 140 359 162.386 359 190C359 217.614 381.386 240 409 240ZM409 245C439.376 245 464 220.376 464 190C464 159.624 439.376 135 409 135C378.624 135 354 159.624 354 190C354 220.376 378.624 245 409 245Z" fill="white"/>
<path id="Line 132 (Stroke)_2" fill-rule="evenodd" clip-rule="evenodd" d="M409 260V120H412V260H409Z" fill="white"/>
<path id="Line 133 (Stroke)_2" fill-rule="evenodd" clip-rule="evenodd" d="M479 190H339V187H479V190Z" fill="white"/>
<path id="Ellipse 27_2" d="M443 212C443 217.523 438.523 222 433 222C427.477 222 423 217.523 423 212C423 206.477 427.477 202 433 202C438.523 202 443 206.477 443 212Z" fill="white"/>
<path id="Ellipse 28 (Stroke)_2" fill-rule="evenodd" clip-rule="evenodd" d="M433 220C437.418 220 441 216.418 441 212C441 207.582 437.418 204 433 204C428.582 204 425 207.582 425 212C425 216.418 428.582 220 433 220ZM433 222C438.523 222 443 217.523 443 212C443 206.477 438.523 202 433 202C427.477 202 423 206.477 423 212C423 217.523 427.477 222 433 222Z" fill="white"/>
<path id="Ellipse 29_2" d="M409 260C418.193 260 427.295 258.189 435.788 254.672C444.281 251.154 451.997 245.998 458.497 239.497C464.998 232.997 470.154 225.281 473.672 216.788C477.189 208.295 479 199.193 479 190H461.405C461.405 196.882 460.049 203.696 457.416 210.054C454.782 216.412 450.922 222.189 446.056 227.056C441.189 231.922 435.412 235.782 429.054 238.416C422.696 241.049 415.882 242.405 409 242.405V260Z" fill="white"/>
</g>
<g id="Group 280">
<path id="Ellipse 25 (Stroke)_3" fill-rule="evenodd" clip-rule="evenodd" d="M562 255C597.899 255 627 225.899 627 190C627 154.101 597.899 125 562 125C526.101 125 497 154.101 497 190C497 225.899 526.101 255 562 255ZM562 260C600.66 260 632 228.66 632 190C632 151.34 600.66 120 562 120C523.34 120 492 151.34 492 190C492 228.66 523.34 260 562 260Z" fill="white"/>
<path id="Ellipse 26 (Stroke)_3" fill-rule="evenodd" clip-rule="evenodd" d="M562 240C589.614 240 612 217.614 612 190C612 162.386 589.614 140 562 140C534.386 140 512 162.386 512 190C512 217.614 534.386 240 562 240ZM562 245C592.376 245 617 220.376 617 190C617 159.624 592.376 135 562 135C531.624 135 507 159.624 507 190C507 220.376 531.624 245 562 245Z" fill="white"/>
<path id="Line 132 (Stroke)_3" fill-rule="evenodd" clip-rule="evenodd" d="M562 260V120H565V260H562Z" fill="white"/>
<path id="Line 133 (Stroke)_3" fill-rule="evenodd" clip-rule="evenodd" d="M632 190H492V187H632V190Z" fill="white"/>
<path id="Ellipse 27_3" d="M554 168C554 173.523 549.523 178 544 178C538.477 178 534 173.523 534 168C534 162.477 538.477 158 544 158C549.523 158 554 162.477 554 168Z" fill="white"/>
<path id="Ellipse 28 (Stroke)_3" fill-rule="evenodd" clip-rule="evenodd" d="M585 176C589.418 176 593 172.418 593 168C593 163.582 589.418 160 585 160C580.582 160 577 163.582 577 168C577 172.418 580.582 176 585 176ZM585 178C590.523 178 595 173.523 595 168C595 162.477 590.523 158 585 158C579.477 158 575 162.477 575 168C575 173.523 579.477 178 585 178Z" fill="white"/>
<path id="Ellipse 29_3" d="M562 120C552.807 120 543.705 121.811 535.212 125.328C526.719 128.846 519.003 134.002 512.503 140.503C506.002 147.003 500.846 154.719 497.328 163.212C493.811 171.705 492 180.807 492 190H509.595C509.595 183.118 510.951 176.304 513.584 169.946C516.218 163.588 520.078 157.811 524.944 152.944C529.811 148.078 535.588 144.218 541.946 141.584C548.304 138.951 555.118 137.595 562 137.595V120Z" fill="white"/>
</g>
<g id="Group 281">
<path id="Ellipse 25 (Stroke)_4" fill-rule="evenodd" clip-rule="evenodd" d="M715 255C750.899 255 780 225.899 780 190C780 154.101 750.899 125 715 125C679.101 125 650 154.101 650 190C650 225.899 679.101 255 715 255ZM715 260C753.66 260 785 228.66 785 190C785 151.34 753.66 120 715 120C676.34 120 645 151.34 645 190C645 228.66 676.34 260 715 260Z" fill="white"/>
<path id="Ellipse 26 (Stroke)_4" fill-rule="evenodd" clip-rule="evenodd" d="M715 240C742.614 240 765 217.614 765 190C765 162.386 742.614 140 715 140C687.386 140 665 162.386 665 190C665 217.614 687.386 240 715 240ZM715 245C745.376 245 770 220.376 770 190C770 159.624 745.376 135 715 135C684.624 135 660 159.624 660 190C660 220.376 684.624 245 715 245Z" fill="white"/>
<path id="Line 132 (Stroke)_4" fill-rule="evenodd" clip-rule="evenodd" d="M715 260V120H718V260H715Z" fill="white"/>
<path id="Line 133 (Stroke)_4" fill-rule="evenodd" clip-rule="evenodd" d="M785 190H645V187H785V190Z" fill="white"/>
<path id="Ellipse 27_4" d="M748 212C748 217.523 743.523 222 738 222C732.477 222 728 217.523 728 212C728 206.477 732.477 202 738 202C743.523 202 748 206.477 748 212Z" fill="white"/>
<path id="Ellipse 28 (Stroke)_4" fill-rule="evenodd" clip-rule="evenodd" d="M695 176C699.418 176 703 172.418 703 168C703 163.582 699.418 160 695 160C690.582 160 687 163.582 687 168C687 172.418 690.582 176 695 176ZM695 178C700.523 178 705 173.523 705 168C705 162.477 700.523 158 695 158C689.477 158 685 162.477 685 168C685 173.523 689.477 178 695 178Z" fill="white"/>
<path id="Ellipse 29_4" d="M645 190C645 199.193 646.811 208.295 650.328 216.788C653.846 225.281 659.002 232.997 665.503 239.497C672.003 245.998 679.719 251.154 688.212 254.672C696.705 258.189 705.807 260 715 260V242.405C708.118 242.405 701.304 241.049 694.946 238.416C688.588 235.782 682.811 231.922 677.944 227.056C673.078 222.189 669.218 216.412 666.584 210.054C663.951 203.696 662.595 196.882 662.595 190H645Z" fill="white"/>
</g>
</g>
</g>
<g id="claves">
<g id="Group 21">
<g id="Group 237">
<path id="Rectangle 4" d="M39 298H255.745L289 378L255.745 458H39V298Z" fill="#CD08D1" fill-opacity="0.1"/>
<path id="Rectangle 4 (Stroke)" fill-rule="evenodd" clip-rule="evenodd" d="M254.338 304H42V452H254.338L285.099 378L254.338 304ZM255.745 298H39V458H255.745L289 378L255.745 298Z" fill="#CD08D1"/>
</g>
<g id="Group 238">
<path id="Ellipse 1" d="M80 378C80 400.658 62.0914 419.026 40 419.026C17.9086 419.026 0 400.658 0 378C0 355.342 17.9086 336.974 40 336.974C62.0914 336.974 80 355.342 80 378Z" fill="#CD08D1"/>
<path id="A" d="M48.0938 388.673H30.4688L26.7812 399.538H18.5625L35.75 352.872H42.8438L60.0625 399.538H51.8125L48.0938 388.673ZM32.6875 382.135H45.875L39.2812 362.776L32.6875 382.135Z" fill="white"/>
</g>
</g>
<g id="Group 17">
<g id="Group 239">
<path id="Rectangle 5" d="M382 298H598.745L632 378L598.745 458H382V298Z" fill="#CD08D1" fill-opacity="0.1"/>
<path id="Rectangle 5 (Stroke)" fill-rule="evenodd" clip-rule="evenodd" d="M597.338 304H385V452H597.338L628.099 378L597.338 304ZM598.745 298H382V458H598.745L632 378L598.745 298Z" fill="#CD08D1"/>
</g>
<g id="Group 240">
<path id="Ellipse 2" d="M418 380C418 402.091 400.091 420 378 420C355.909 420 338 402.091 338 380C338 357.909 355.909 340 378 340C400.091 340 418 357.909 418 380Z" fill="#CD08D1"/>
<path id="B" d="M361.625 396V350.5H377.219C382.365 350.5 386.281 351.531 388.969 353.594C391.656 355.656 393 358.729 393 362.812C393 364.896 392.438 366.771 391.312 368.438C390.188 370.104 388.542 371.396 386.375 372.312C388.833 372.979 390.729 374.24 392.062 376.094C393.417 377.927 394.094 380.135 394.094 382.719C394.094 386.99 392.719 390.271 389.969 392.562C387.24 394.854 383.323 396 378.219 396H361.625ZM369.531 375.469V389.688H378.312C380.792 389.688 382.729 389.073 384.125 387.844C385.521 386.615 386.219 384.906 386.219 382.719C386.219 377.99 383.802 375.573 378.969 375.469H369.531ZM369.531 369.656H377.281C379.74 369.656 381.656 369.104 383.031 368C384.427 366.875 385.125 365.292 385.125 363.25C385.125 361 384.479 359.375 383.188 358.375C381.917 357.375 379.927 356.875 377.219 356.875H369.531V369.656Z" fill="white"/>
</g>
</g>
<g id="Group 18">
<g id="Group 241">
<path id="Rectangle 6" d="M721 390H937.745L971 470L937.745 550H721V390Z" fill="#CD08D1" fill-opacity="0.1"/>
<path id="Rectangle 6 (Stroke)" fill-rule="evenodd" clip-rule="evenodd" d="M936.338 396H724V544H936.338L967.099 470L936.338 396ZM937.745 390H721V550H937.745L971 470L937.745 390Z" fill="#CD08D1"/>
</g>
<g id="Group 242">
<path id="Ellipse 3" d="M761 470C761 492.091 743.091 510 721 510C698.909 510 681 492.091 681 470C681 447.909 698.909 430 721 430C743.091 430 761 447.909 761 470Z" fill="#CD08D1"/>
<path id="C" d="M738.344 477.188C737.885 482.042 736.094 485.833 732.969 488.562C729.844 491.271 725.688 492.625 720.5 492.625C716.875 492.625 713.677 491.771 710.906 490.062C708.156 488.333 706.031 485.885 704.531 482.719C703.031 479.552 702.25 475.875 702.188 471.688V467.438C702.188 463.146 702.948 459.365 704.469 456.094C705.99 452.823 708.167 450.302 711 448.531C713.854 446.76 717.146 445.875 720.875 445.875C725.896 445.875 729.938 447.24 733 449.969C736.062 452.698 737.844 456.552 738.344 461.531H730.469C730.094 458.26 729.135 455.906 727.594 454.469C726.073 453.01 723.833 452.281 720.875 452.281C717.438 452.281 714.792 453.542 712.938 456.062C711.104 458.562 710.167 462.24 710.125 467.094V471.125C710.125 476.042 711 479.792 712.75 482.375C714.521 484.958 717.104 486.25 720.5 486.25C723.604 486.25 725.938 485.552 727.5 484.156C729.062 482.76 730.052 480.438 730.469 477.188H738.344Z" fill="white"/>
</g>
</g>
<g id="Group 19">
<g id="Group 243">
<path id="Rectangle 7" d="M39 482H255.745L289 562L255.745 642H39V482Z" fill="#CD08D1" fill-opacity="0.1"/>
<path id="Rectangle 7 (Stroke)" fill-rule="evenodd" clip-rule="evenodd" d="M254.338 488H42V636H254.338L285.099 562L254.338 488ZM255.745 482H39V642H255.745L289 562L255.745 482Z" fill="#CD08D1"/>
</g>
<g id="Group 244">
<path id="Ellipse 4" d="M80 562C80 584.091 62.0914 602 40 602C17.9086 602 0 584.091 0 562C0 539.909 17.9086 522 40 522C62.0914 522 80 539.909 80 562Z" fill="#CD08D1"/>
<path id="D" d="M22.625 584V538.5H36.0625C40.0833 538.5 43.6458 539.396 46.75 541.188C49.875 542.979 52.2917 545.521 54 548.812C55.7083 552.104 56.5625 555.875 56.5625 560.125V562.406C56.5625 566.719 55.6979 570.51 53.9688 573.781C52.2604 577.052 49.8125 579.573 46.625 581.344C43.4583 583.115 39.8229 584 35.7188 584H22.625ZM30.5312 544.875V577.688H35.6875C39.8333 577.688 43.0104 576.396 45.2188 573.812C47.4479 571.208 48.5833 567.479 48.625 562.625V560.094C48.625 555.156 47.5521 551.385 45.4062 548.781C43.2604 546.177 40.1458 544.875 36.0625 544.875H30.5312Z" fill="white"/>
</g>
</g>
<g id="Group 20">
<g id="Group 246">
<path id="Rectangle 8" d="M382 481H598.745L632 561L598.745 641H382V481Z" fill="#CD08D1" fill-opacity="0.1"/>
<path id="Rectangle 8 (Stroke)" fill-rule="evenodd" clip-rule="evenodd" d="M597.338 487H385V635H597.338L628.099 561L597.338 487ZM598.745 481H382V641H598.745L632 561L598.745 481Z" fill="#CD08D1"/>
</g>
<g id="Group 245">
<path id="Ellipse 5" d="M423 562C423 584.091 405.091 602 383 602C360.909 602 343 584.091 343 562C343 539.909 360.909 522 383 522C405.091 522 423 539.909 423 562Z" fill="#CD08D1"/>
<path id="E" d="M392.219 563.688H373.531V577.688H395.375V584H365.625V538.5H395.156V544.875H373.531V557.438H392.219V563.688Z" fill="white"/>
</g>
</g>
<g id="Group 288">
<g id="Group 282">
<path id="Ellipse 25 (Stroke)_5" fill-rule="evenodd" clip-rule="evenodd" d="M161 438C196.899 438 226 408.899 226 373C226 337.101 196.899 308 161 308C125.101 308 96 337.101 96 373C96 408.899 125.101 438 161 438ZM161 443C199.66 443 231 411.66 231 373C231 334.34 199.66 303 161 303C122.34 303 91 334.34 91 373C91 411.66 122.34 443 161 443Z" fill="white"/>
<path id="Ellipse 26 (Stroke)_5" fill-rule="evenodd" clip-rule="evenodd" d="M161 423C188.614 423 211 400.614 211 373C211 345.386 188.614 323 161 323C133.386 323 111 345.386 111 373C111 400.614 133.386 423 161 423ZM161 428C191.376 428 216 403.376 216 373C216 342.624 191.376 318 161 318C130.624 318 106 342.624 106 373C106 403.376 130.624 428 161 428Z" fill="white"/>
<path id="Line 132 (Stroke)_5" fill-rule="evenodd" clip-rule="evenodd" d="M161 443V303H164V443H161Z" fill="white"/>
<path id="Line 133 (Stroke)_5" fill-rule="evenodd" clip-rule="evenodd" d="M231 373H91V370H231V373Z" fill="white"/>
<path id="Ellipse 27_5" d="M192 393C192 398.523 187.523 403 182 403C176.477 403 172 398.523 172 393C172 387.477 176.477 383 182 383C187.523 383 192 387.477 192 393Z" fill="white"/>
<path id="Ellipse 28 (Stroke)_5" fill-rule="evenodd" clip-rule="evenodd" d="M182 359C186.418 359 190 355.418 190 351C190 346.582 186.418 343 182 343C177.582 343 174 346.582 174 351C174 355.418 177.582 359 182 359ZM182 361C187.523 361 192 356.523 192 351C192 345.477 187.523 341 182 341C176.477 341 172 345.477 172 351C172 356.523 176.477 361 182 361Z" fill="white"/>
<path id="Ellipse 29_5" d="M231 373C231 363.807 229.189 354.705 225.672 346.212C222.154 337.719 216.998 330.003 210.497 323.503C203.997 317.002 196.281 311.846 187.788 308.328C179.295 304.811 170.193 303 161 303V320.595C167.882 320.595 174.696 321.951 181.054 324.584C187.412 327.218 193.189 331.078 198.056 335.944C202.922 340.811 206.782 346.588 209.416 352.946C212.049 359.304 213.405 366.118 213.405 373H231Z" fill="white"/>
</g>
<g id="Group 284">
<path id="Ellipse 25 (Stroke)_6" fill-rule="evenodd" clip-rule="evenodd" d="M509 443C544.899 443 574 413.899 574 378C574 342.101 544.899 313 509 313C473.101 313 444 342.101 444 378C444 413.899 473.101 443 509 443ZM509 448C547.66 448 579 416.66 579 378C579 339.34 547.66 308 509 308C470.34 308 439 339.34 439 378C439 416.66 470.34 448 509 448Z" fill="white"/>
<path id="Ellipse 26 (Stroke)_6" fill-rule="evenodd" clip-rule="evenodd" d="M509 428C536.614 428 559 405.614 559 378C559 350.386 536.614 328 509 328C481.386 328 459 350.386 459 378C459 405.614 481.386 428 509 428ZM509 433C539.376 433 564 408.376 564 378C564 347.624 539.376 323 509 323C478.624 323 454 347.624 454 378C454 408.376 478.624 433 509 433Z" fill="white"/>
<path id="Line 132 (Stroke)_6" fill-rule="evenodd" clip-rule="evenodd" d="M509 448V308H512V448H509Z" fill="white"/>
<path id="Line 133 (Stroke)_6" fill-rule="evenodd" clip-rule="evenodd" d="M579 378H439V375H579V378Z" fill="white"/>
<path id="Ellipse 27_6" d="M540 398C540 403.523 535.523 408 530 408C524.477 408 520 403.523 520 398C520 392.477 524.477 388 530 388C535.523 388 540 392.477 540 398Z" fill="white"/>
<path id="Ellipse 28 (Stroke)_6" fill-rule="evenodd" clip-rule="evenodd" d="M530 364C534.418 364 538 360.418 538 356C538 351.582 534.418 348 530 348C525.582 348 522 351.582 522 356C522 360.418 525.582 364 530 364ZM530 366C535.523 366 540 361.523 540 356C540 350.477 535.523 346 530 346C524.477 346 520 350.477 520 356C520 361.523 524.477 366 530 366Z" fill="white"/>
<path id="Ellipse 29_6" d="M509 308C499.807 308 490.705 309.811 482.212 313.328C473.719 316.846 466.003 322.002 459.503 328.503C453.002 335.003 447.846 342.719 444.328 351.212C440.811 359.705 439 368.807 439 378H456.595C456.595 371.118 457.951 364.304 460.584 357.946C463.218 351.588 467.078 345.811 471.944 340.944C476.811 336.078 482.588 332.218 488.946 329.584C495.304 326.951 502.118 325.595 509 325.595V308Z" fill="white"/>
</g>
<g id="Group 285">
<path id="Ellipse 25 (Stroke)_7" fill-rule="evenodd" clip-rule="evenodd" d="M851 533C886.899 533 916 503.899 916 468C916 432.101 886.899 403 851 403C815.101 403 786 432.101 786 468C786 503.899 815.101 533 851 533ZM851 538C889.66 538 921 506.66 921 468C921 429.34 889.66 398 851 398C812.34 398 781 429.34 781 468C781 506.66 812.34 538 851 538Z" fill="white"/>
<path id="Ellipse 26 (Stroke)_7" fill-rule="evenodd" clip-rule="evenodd" d="M851 518C878.614 518 901 495.614 901 468C901 440.386 878.614 418 851 418C823.386 418 801 440.386 801 468C801 495.614 823.386 518 851 518ZM851 523C881.376 523 906 498.376 906 468C906 437.624 881.376 413 851 413C820.624 413 796 437.624 796 468C796 498.376 820.624 523 851 523Z" fill="white"/>
<path id="Line 132 (Stroke)_7" fill-rule="evenodd" clip-rule="evenodd" d="M851 538V398H854V538H851Z" fill="white"/>
<path id="Line 133 (Stroke)_7" fill-rule="evenodd" clip-rule="evenodd" d="M921 468H781V465H921V468Z" fill="white"/>
<path id="Ellipse 27_7" d="M882 488C882 493.523 877.523 498 872 498C866.477 498 862 493.523 862 488C862 482.477 866.477 478 872 478C877.523 478 882 482.477 882 488Z" fill="white"/>
<path id="Ellipse 28 (Stroke)_7" fill-rule="evenodd" clip-rule="evenodd" d="M872 496C876.418 496 880 492.418 880 488C880 483.582 876.418 480 872 480C867.582 480 864 483.582 864 488C864 492.418 867.582 496 872 496ZM872 498C877.523 498 882 493.523 882 488C882 482.477 877.523 478 872 478C866.477 478 862 482.477 862 488C862 493.523 866.477 498 872 498Z" fill="white"/>
<path id="Ellipse 29_7" d="M851 398C841.807 398 832.705 399.811 824.212 403.328C815.719 406.846 808.003 412.002 801.503 418.503C795.002 425.003 789.846 432.719 786.328 441.212C782.811 449.705 781 458.807 781 468H798.595C798.595 461.118 799.951 454.304 802.584 447.946C805.218 441.588 809.078 435.811 813.944 430.944C818.811 426.078 824.588 422.218 830.946 419.584C837.304 416.951 844.118 415.595 851 415.595V398Z" fill="white"/>
</g>
<g id="Group 286">
<path id="Ellipse 25 (Stroke)_8" fill-rule="evenodd" clip-rule="evenodd" d="M161 627C196.899 627 226 597.899 226 562C226 526.101 196.899 497 161 497C125.101 497 96 526.101 96 562C96 597.899 125.101 627 161 627ZM161 632C199.66 632 231 600.66 231 562C231 523.34 199.66 492 161 492C122.34 492 91 523.34 91 562C91 600.66 122.34 632 161 632Z" fill="white"/>
<path id="Ellipse 26 (Stroke)_8" fill-rule="evenodd" clip-rule="evenodd" d="M161 612C188.614 612 211 589.614 211 562C211 534.386 188.614 512 161 512C133.386 512 111 534.386 111 562C111 589.614 133.386 612 161 612ZM161 617C191.376 617 216 592.376 216 562C216 531.624 191.376 507 161 507C130.624 507 106 531.624 106 562C106 592.376 130.624 617 161 617Z" fill="white"/>
<path id="Line 132 (Stroke)_8" fill-rule="evenodd" clip-rule="evenodd" d="M161 632V492H164V632H161Z" fill="white"/>
<path id="Line 133 (Stroke)_8" fill-rule="evenodd" clip-rule="evenodd" d="M231 562H91V559H231V562Z" fill="white"/>
<path id="Ellipse 27_8" d="M154 540C154 545.523 149.523 550 144 550C138.477 550 134 545.523 134 540C134 534.477 138.477 530 144 530C149.523 530 154 534.477 154 540Z" fill="white"/>
<path id="Ellipse 28 (Stroke)_8" fill-rule="evenodd" clip-rule="evenodd" d="M182 590C186.418 590 190 586.418 190 582C190 577.582 186.418 574 182 574C177.582 574 174 577.582 174 582C174 586.418 177.582 590 182 590ZM182 592C187.523 592 192 587.523 192 582C192 576.477 187.523 572 182 572C176.477 572 172 576.477 172 582C172 587.523 176.477 592 182 592Z" fill="white"/>
<path id="Ellipse 29_8" d="M161 492C151.807 492 142.705 493.811 134.212 497.328C125.719 500.846 118.003 506.002 111.503 512.503C105.002 519.003 99.8463 526.719 96.3284 535.212C92.8106 543.705 91 552.807 91 562H108.595C108.595 555.118 109.951 548.304 112.584 541.946C115.218 535.588 119.078 529.811 123.944 524.944C128.811 520.078 134.588 516.218 140.946 513.584C147.304 510.951 154.118 509.595 161 509.595V492Z" fill="white"/>
</g>
<g id="Group 287">
<path id="Ellipse 25 (Stroke)_9" fill-rule="evenodd" clip-rule="evenodd" d="M507 627C542.899 627 572 597.899 572 562C572 526.101 542.899 497 507 497C471.101 497 442 526.101 442 562C442 597.899 471.101 627 507 627ZM507 632C545.66 632 577 600.66 577 562C577 523.34 545.66 492 507 492C468.34 492 437 523.34 437 562C437 600.66 468.34 632 507 632Z" fill="white"/>
<path id="Ellipse 26 (Stroke)_9" fill-rule="evenodd" clip-rule="evenodd" d="M507 612C534.614 612 557 589.614 557 562C557 534.386 534.614 512 507 512C479.386 512 457 534.386 457 562C457 589.614 479.386 612 507 612ZM507 617C537.376 617 562 592.376 562 562C562 531.624 537.376 507 507 507C476.624 507 452 531.624 452 562C452 592.376 476.624 617 507 617Z" fill="white"/>
<path id="Line 132 (Stroke)_9" fill-rule="evenodd" clip-rule="evenodd" d="M507 632V492H510V632H507Z" fill="white"/>
<path id="Line 133 (Stroke)_9" fill-rule="evenodd" clip-rule="evenodd" d="M577 562H437V559H577V562Z" fill="white"/>
<path id="Ellipse 27_9" d="M538 582C538 587.523 533.523 592 528 592C522.477 592 518 587.523 518 582C518 576.477 522.477 572 528 572C533.523 572 538 576.477 538 582Z" fill="white"/>
<path id="Ellipse 28 (Stroke)_9" fill-rule="evenodd" clip-rule="evenodd" d="M528 590C532.418 590 536 586.418 536 582C536 577.582 532.418 574 528 574C523.582 574 520 577.582 520 582C520 586.418 523.582 590 528 590ZM528 592C533.523 592 538 587.523 538 582C538 576.477 533.523 572 528 572C522.477 572 518 576.477 518 582C518 587.523 522.477 592 528 592Z" fill="white"/>
<path id="Ellipse 29_9" d="M507 632C516.193 632 525.295 630.189 533.788 626.672C542.281 623.154 549.997 617.998 556.497 611.497C562.998 604.997 568.154 597.281 571.672 588.788C575.189 580.295 577 571.193 577 562H559.405C559.405 568.882 558.049 575.696 555.416 582.054C552.782 588.412 548.922 594.189 544.056 599.056C539.189 603.922 533.412 607.782 527.054 610.416C520.696 613.049 513.882 614.405 507 614.405V632Z" fill="white"/>
</g>
</g>
<g id="flecha">
<path id="Rectangle 2" d="M726.2 437.008L741.482 445.133L699.5 524.089L684.219 515.963L726.2 437.008Z" fill="#1043F5"/>
<path id="Rectangle 1_2" d="M668 449.904L758 400V457.692L713 440.096L668 449.904Z" fill="#1043F5"/>
<path id="Rectangle 3" d="M672.039 519.21L687.666 492.143L704.936 491.565L689.309 518.632L672.039 519.21Z" fill="#1043F5"/>
<path id="Rectangle 4_2" d="M698.089 533.845L713.717 506.778L704.926 491.154L689.299 518.221L698.089 533.845Z" fill="#1043F5"/>
</g>
</g>
</g>
</svg>
