<svg viewBox="0 0 990 767" fill="none" xmlns="http://www.w3.org/2000/svg">
<g id="0127114">
<g id="enunciado">
<g id="Group 71">
<path id="Rectangle 1" d="M30 68.8381C30 32.7511 52.5821 3.49683 80.4386 3.49683H950V455.659C950 491.746 927.418 521 899.561 521H30V68.8381Z" fill="#02071A"/>
<path id="Rectangle 1 (Stroke)" fill-rule="evenodd" clip-rule="evenodd" d="M944.956 9.97719H80.4386C55.3678 9.97719 35.0439 36.3088 35.0439 68.7905V514.465H899.561C924.632 514.465 944.956 488.133 944.956 455.651V9.97719ZM80.4386 3.44238C52.5821 3.44238 30 32.6997 30 68.7905V521H899.561C927.418 521 950 491.742 950 455.651V3.44238H80.4386Z" fill="#CD08D1"/>
<path id="Rectangle 14" d="M84.6251 3.6142C111.602 -4.51775 950 3.6142 950 3.6142V38.8191C950 38.8191 70.351 25.8794 39.0791 38.8191C48.8095 20.1469 57.6481 11.7462 84.6251 3.6142Z" fill="#CD08D1"/>
<path id="Rectangle 15" d="M918.076 11.1892H948.066V457.005C944.385 487.259 936.755 498.378 918.076 512.893C923.574 489.124 918.076 11.1892 918.076 11.1892Z" fill="#CD08D1"/>
</g>
<g id="&#194;&#191;Cu&#195;&#161;ntos rombos se cuentan en total en la siguiente figura?">
<path d="M63.3359 56.1401C63.3242 57.3823 63.1953 58.3784 62.9492 59.1284C62.7148 59.8667 62.3164 60.5815 61.7539 61.2729C61.1914 61.9644 60.3711 62.8784 59.293 64.0151C58.2148 65.1401 57.6113 66.2827 57.4824 67.4429L57.4473 68.0933C57.4473 69.3706 57.7871 70.3433 58.4668 71.0112C59.1465 71.6909 60.125 72.0308 61.4023 72.0308C62.5742 72.0308 63.5234 71.6968 64.25 71.0288C64.9883 70.3726 65.3574 69.5112 65.3574 68.4448H68.6094C68.5859 70.3315 67.9121 71.8726 66.5879 73.0679C65.2754 74.2632 63.5469 74.8608 61.4023 74.8608C59.1055 74.8608 57.3301 74.269 56.0762 73.0854C54.8223 71.9136 54.1953 70.2788 54.1953 68.1812C54.1953 66.1538 55.1328 64.1147 57.0078 62.064L58.9238 60.0776C59.6973 59.1636 60.084 57.8511 60.084 56.1401H63.3359ZM63.4766 50.5679C63.4766 51.0952 63.3125 51.5405 62.9844 51.9038C62.668 52.2671 62.1934 52.4487 61.5605 52.4487C60.9277 52.4487 60.4473 52.2671 60.1191 51.9038C59.791 51.5405 59.627 51.0952 59.627 50.5679C59.627 50.0522 59.791 49.6187 60.1191 49.2671C60.4473 48.9155 60.9277 48.7397 61.5605 48.7397C62.1934 48.7397 62.668 48.9155 62.9844 49.2671C63.3125 49.6187 63.4766 50.0522 63.4766 50.5679Z" fill="white"/>
<path d="M91.8477 59.9722C91.5312 62.6792 90.5293 64.771 88.8418 66.2476C87.166 67.7124 84.9336 68.4448 82.1445 68.4448C79.1211 68.4448 76.6953 67.3608 74.8672 65.1929C73.0508 63.0249 72.1426 60.1245 72.1426 56.4917V54.0308C72.1426 51.6519 72.5645 49.5601 73.4082 47.7554C74.2637 45.9507 75.4707 44.5679 77.0293 43.6069C78.5879 42.6343 80.3926 42.1479 82.4434 42.1479C85.1621 42.1479 87.3418 42.9097 88.9824 44.4331C90.623 45.9448 91.5781 48.0425 91.8477 50.7261H88.4551C88.1621 48.687 87.5234 47.2104 86.5391 46.2964C85.5664 45.3823 84.2012 44.9253 82.4434 44.9253C80.2871 44.9253 78.5938 45.7222 77.3633 47.3159C76.1445 48.9097 75.5352 51.1772 75.5352 54.1187V56.5972C75.5352 59.3745 76.1152 61.5835 77.2754 63.2241C78.4355 64.8647 80.0586 65.6851 82.1445 65.6851C84.0195 65.6851 85.4551 65.2632 86.4512 64.4194C87.459 63.564 88.127 62.0815 88.4551 59.9722H91.8477Z" fill="white"/>
<path d="M107.703 66.2124C106.438 67.7007 104.58 68.4448 102.131 68.4448C100.104 68.4448 98.5566 67.8589 97.4902 66.687C96.4355 65.5034 95.9023 63.7573 95.8906 61.4487V49.0737H99.1426V61.3608C99.1426 64.2437 100.314 65.6851 102.658 65.6851C105.143 65.6851 106.795 64.7593 107.615 62.9077V49.0737H110.867V68.0933H107.773L107.703 66.2124Z" fill="white"/>
<path d="M127.566 68.0933C127.379 67.7183 127.227 67.0503 127.109 66.0894C125.598 67.6597 123.793 68.4448 121.695 68.4448C119.82 68.4448 118.279 67.9175 117.072 66.8628C115.877 65.7964 115.279 64.4487 115.279 62.8198C115.279 60.8394 116.029 59.3042 117.529 58.2144C119.041 57.1128 121.162 56.562 123.893 56.562H127.057V55.0679C127.057 53.9312 126.717 53.0288 126.037 52.3608C125.357 51.6812 124.355 51.3413 123.031 51.3413C121.871 51.3413 120.898 51.6343 120.113 52.2202C119.328 52.8062 118.936 53.5151 118.936 54.3472H115.666C115.666 53.3979 116 52.4839 116.668 51.605C117.348 50.7144 118.262 50.0112 119.41 49.4956C120.57 48.98 121.842 48.7222 123.225 48.7222C125.416 48.7222 127.133 49.2729 128.375 50.3745C129.617 51.4644 130.262 52.9702 130.309 54.8921V63.646C130.309 65.3921 130.531 66.7808 130.977 67.812V68.0933H127.566ZM122.17 65.6147C123.189 65.6147 124.156 65.3511 125.07 64.8237C125.984 64.2964 126.646 63.6108 127.057 62.7671V58.8647H124.508C120.523 58.8647 118.531 60.0308 118.531 62.3628C118.531 63.3823 118.871 64.1792 119.551 64.7534C120.23 65.3276 121.104 65.6147 122.17 65.6147ZM125.176 41.0933H129.113L124.402 46.2612H121.783L125.176 41.0933Z" fill="white"/>
<path d="M138.482 49.0737L138.588 51.4644C140.041 49.6362 141.939 48.7222 144.283 48.7222C148.303 48.7222 150.33 50.9897 150.365 55.5249V68.0933H147.113V55.5073C147.102 54.1362 146.785 53.1226 146.164 52.4663C145.555 51.8101 144.6 51.4819 143.299 51.4819C142.244 51.4819 141.318 51.7632 140.521 52.3257C139.725 52.8882 139.104 53.6265 138.658 54.5405V68.0933H135.406V49.0737H138.482Z" fill="white"/>
<path d="M159.682 44.4683V49.0737H163.232V51.5874H159.682V63.3823C159.682 64.144 159.84 64.7183 160.156 65.105C160.473 65.48 161.012 65.6675 161.773 65.6675C162.148 65.6675 162.664 65.5972 163.32 65.4565V68.0933C162.465 68.3276 161.633 68.4448 160.824 68.4448C159.371 68.4448 158.275 68.0054 157.537 67.1265C156.799 66.2476 156.43 64.9995 156.43 63.3823V51.5874H152.967V49.0737H156.43V44.4683H159.682Z" fill="white"/>
<path d="M165.834 58.4077C165.834 56.5444 166.197 54.8687 166.924 53.3804C167.662 51.8921 168.682 50.7437 169.982 49.9351C171.295 49.1265 172.789 48.7222 174.465 48.7222C177.055 48.7222 179.146 49.6187 180.74 51.4116C182.346 53.2046 183.148 55.5894 183.148 58.5659V58.7944C183.148 60.646 182.791 62.3101 182.076 63.7866C181.373 65.2515 180.359 66.394 179.035 67.2144C177.723 68.0347 176.211 68.4448 174.5 68.4448C171.922 68.4448 169.83 67.5483 168.225 65.7554C166.631 63.9624 165.834 61.5894 165.834 58.6362V58.4077ZM169.104 58.7944C169.104 60.9038 169.59 62.5972 170.562 63.8745C171.547 65.1519 172.859 65.7905 174.5 65.7905C176.152 65.7905 177.465 65.146 178.438 63.8569C179.41 62.5562 179.896 60.7397 179.896 58.4077C179.896 56.3218 179.398 54.6343 178.402 53.3452C177.418 52.0444 176.105 51.394 174.465 51.394C172.859 51.394 171.564 52.0327 170.58 53.3101C169.596 54.5874 169.104 56.4155 169.104 58.7944Z" fill="white"/>
<path d="M198.301 63.0483C198.301 62.1694 197.967 61.4897 197.299 61.0093C196.643 60.5171 195.488 60.0952 193.836 59.7437C192.195 59.3921 190.889 58.9702 189.916 58.478C188.955 57.9858 188.24 57.3999 187.771 56.7202C187.314 56.0405 187.086 55.2319 187.086 54.2944C187.086 52.7358 187.742 51.4175 189.055 50.3394C190.379 49.2612 192.066 48.7222 194.117 48.7222C196.273 48.7222 198.02 49.2788 199.355 50.3921C200.703 51.5054 201.377 52.9292 201.377 54.6636H198.107C198.107 53.7729 197.727 53.0054 196.965 52.3608C196.215 51.7163 195.266 51.394 194.117 51.394C192.934 51.394 192.008 51.6519 191.34 52.1675C190.672 52.6831 190.338 53.3569 190.338 54.189C190.338 54.9741 190.648 55.5659 191.27 55.9644C191.891 56.3628 193.01 56.7437 194.627 57.1069C196.256 57.4702 197.574 57.9038 198.582 58.4077C199.59 58.9116 200.334 59.521 200.814 60.2358C201.307 60.939 201.553 61.8003 201.553 62.8198C201.553 64.519 200.873 65.8843 199.514 66.9155C198.154 67.9351 196.391 68.4448 194.223 68.4448C192.699 68.4448 191.352 68.1753 190.18 67.6362C189.008 67.0972 188.088 66.3472 187.42 65.3862C186.764 64.4136 186.436 63.3647 186.436 62.2397H189.688C189.746 63.3296 190.18 64.1968 190.988 64.8413C191.809 65.4741 192.887 65.7905 194.223 65.7905C195.453 65.7905 196.438 65.5444 197.176 65.0522C197.926 64.5483 198.301 63.8804 198.301 63.0483Z" fill="white"/>
<path d="M223.912 51.9917C223.42 51.9097 222.887 51.8687 222.312 51.8687C220.18 51.8687 218.732 52.7769 217.971 54.5933V68.0933H214.719V49.0737H217.883L217.936 51.271C219.002 49.5718 220.514 48.7222 222.471 48.7222C223.104 48.7222 223.584 48.8042 223.912 48.9683V51.9917Z" fill="white"/>
<path d="M225.705 58.4077C225.705 56.5444 226.068 54.8687 226.795 53.3804C227.533 51.8921 228.553 50.7437 229.854 49.9351C231.166 49.1265 232.66 48.7222 234.336 48.7222C236.926 48.7222 239.018 49.6187 240.611 51.4116C242.217 53.2046 243.02 55.5894 243.02 58.5659V58.7944C243.02 60.646 242.662 62.3101 241.947 63.7866C241.244 65.2515 240.23 66.394 238.906 67.2144C237.594 68.0347 236.082 68.4448 234.371 68.4448C231.793 68.4448 229.701 67.5483 228.096 65.7554C226.502 63.9624 225.705 61.5894 225.705 58.6362V58.4077ZM228.975 58.7944C228.975 60.9038 229.461 62.5972 230.434 63.8745C231.418 65.1519 232.73 65.7905 234.371 65.7905C236.023 65.7905 237.336 65.146 238.309 63.8569C239.281 62.5562 239.768 60.7397 239.768 58.4077C239.768 56.3218 239.27 54.6343 238.273 53.3452C237.289 52.0444 235.977 51.394 234.336 51.394C232.73 51.394 231.436 52.0327 230.451 53.3101C229.467 54.5874 228.975 56.4155 228.975 58.7944Z" fill="white"/>
<path d="M250.156 49.0737L250.244 51.1831C251.639 49.5425 253.52 48.7222 255.887 48.7222C258.547 48.7222 260.357 49.7417 261.318 51.7808C261.951 50.8667 262.771 50.1284 263.779 49.5659C264.799 49.0034 266 48.7222 267.383 48.7222C271.555 48.7222 273.676 50.9312 273.746 55.3491V68.0933H270.494V55.5425C270.494 54.1831 270.184 53.1694 269.562 52.5015C268.941 51.8218 267.898 51.4819 266.434 51.4819C265.227 51.4819 264.225 51.8452 263.428 52.5718C262.631 53.2866 262.168 54.2534 262.039 55.4722V68.0933H258.77V55.6304C258.77 52.8647 257.416 51.4819 254.709 51.4819C252.576 51.4819 251.117 52.3901 250.332 54.2065V68.0933H247.08V49.0737H250.156Z" fill="white"/>
<path d="M294.77 58.7944C294.77 61.7007 294.102 64.0386 292.766 65.8081C291.43 67.5659 289.637 68.4448 287.387 68.4448C284.984 68.4448 283.127 67.5952 281.814 65.896L281.656 68.0933H278.668V41.0933H281.92V51.1655C283.232 49.5366 285.043 48.7222 287.352 48.7222C289.66 48.7222 291.471 49.5952 292.783 51.3413C294.107 53.0874 294.77 55.478 294.77 58.5132V58.7944ZM291.518 58.4253C291.518 56.2104 291.09 54.4995 290.234 53.2925C289.379 52.0854 288.148 51.4819 286.543 51.4819C284.398 51.4819 282.857 52.478 281.92 54.4702V62.6968C282.916 64.689 284.469 65.6851 286.578 65.6851C288.137 65.6851 289.35 65.0815 290.217 63.8745C291.084 62.6675 291.518 60.8511 291.518 58.4253Z" fill="white"/>
<path d="M298.021 58.4077C298.021 56.5444 298.385 54.8687 299.111 53.3804C299.85 51.8921 300.869 50.7437 302.17 49.9351C303.482 49.1265 304.977 48.7222 306.652 48.7222C309.242 48.7222 311.334 49.6187 312.928 51.4116C314.533 53.2046 315.336 55.5894 315.336 58.5659V58.7944C315.336 60.646 314.979 62.3101 314.264 63.7866C313.561 65.2515 312.547 66.394 311.223 67.2144C309.91 68.0347 308.398 68.4448 306.688 68.4448C304.109 68.4448 302.018 67.5483 300.412 65.7554C298.818 63.9624 298.021 61.5894 298.021 58.6362V58.4077ZM301.291 58.7944C301.291 60.9038 301.777 62.5972 302.75 63.8745C303.734 65.1519 305.047 65.7905 306.688 65.7905C308.34 65.7905 309.652 65.146 310.625 63.8569C311.598 62.5562 312.084 60.7397 312.084 58.4077C312.084 56.3218 311.586 54.6343 310.59 53.3452C309.605 52.0444 308.293 51.394 306.652 51.394C305.047 51.394 303.752 52.0327 302.768 53.3101C301.783 54.5874 301.291 56.4155 301.291 58.7944Z" fill="white"/>
<path d="M330.488 63.0483C330.488 62.1694 330.154 61.4897 329.486 61.0093C328.83 60.5171 327.676 60.0952 326.023 59.7437C324.383 59.3921 323.076 58.9702 322.104 58.478C321.143 57.9858 320.428 57.3999 319.959 56.7202C319.502 56.0405 319.273 55.2319 319.273 54.2944C319.273 52.7358 319.93 51.4175 321.242 50.3394C322.566 49.2612 324.254 48.7222 326.305 48.7222C328.461 48.7222 330.207 49.2788 331.543 50.3921C332.891 51.5054 333.564 52.9292 333.564 54.6636H330.295C330.295 53.7729 329.914 53.0054 329.152 52.3608C328.402 51.7163 327.453 51.394 326.305 51.394C325.121 51.394 324.195 51.6519 323.527 52.1675C322.859 52.6831 322.525 53.3569 322.525 54.189C322.525 54.9741 322.836 55.5659 323.457 55.9644C324.078 56.3628 325.197 56.7437 326.814 57.1069C328.443 57.4702 329.762 57.9038 330.77 58.4077C331.777 58.9116 332.521 59.521 333.002 60.2358C333.494 60.939 333.74 61.8003 333.74 62.8198C333.74 64.519 333.061 65.8843 331.701 66.9155C330.342 67.9351 328.578 68.4448 326.41 68.4448C324.887 68.4448 323.539 68.1753 322.367 67.6362C321.195 67.0972 320.275 66.3472 319.607 65.3862C318.951 64.4136 318.623 63.3647 318.623 62.2397H321.875C321.934 63.3296 322.367 64.1968 323.176 64.8413C323.996 65.4741 325.074 65.7905 326.41 65.7905C327.641 65.7905 328.625 65.5444 329.363 65.0522C330.113 64.5483 330.488 63.8804 330.488 63.0483Z" fill="white"/>
<path d="M357.98 63.0483C357.98 62.1694 357.646 61.4897 356.979 61.0093C356.322 60.5171 355.168 60.0952 353.516 59.7437C351.875 59.3921 350.568 58.9702 349.596 58.478C348.635 57.9858 347.92 57.3999 347.451 56.7202C346.994 56.0405 346.766 55.2319 346.766 54.2944C346.766 52.7358 347.422 51.4175 348.734 50.3394C350.059 49.2612 351.746 48.7222 353.797 48.7222C355.953 48.7222 357.699 49.2788 359.035 50.3921C360.383 51.5054 361.057 52.9292 361.057 54.6636H357.787C357.787 53.7729 357.406 53.0054 356.645 52.3608C355.895 51.7163 354.945 51.394 353.797 51.394C352.613 51.394 351.688 51.6519 351.02 52.1675C350.352 52.6831 350.018 53.3569 350.018 54.189C350.018 54.9741 350.328 55.5659 350.949 55.9644C351.57 56.3628 352.689 56.7437 354.307 57.1069C355.936 57.4702 357.254 57.9038 358.262 58.4077C359.27 58.9116 360.014 59.521 360.494 60.2358C360.986 60.939 361.232 61.8003 361.232 62.8198C361.232 64.519 360.553 65.8843 359.193 66.9155C357.834 67.9351 356.07 68.4448 353.902 68.4448C352.379 68.4448 351.031 68.1753 349.859 67.6362C348.688 67.0972 347.768 66.3472 347.1 65.3862C346.443 64.4136 346.115 63.3647 346.115 62.2397H349.367C349.426 63.3296 349.859 64.1968 350.668 64.8413C351.488 65.4741 352.566 65.7905 353.902 65.7905C355.133 65.7905 356.117 65.5444 356.855 65.0522C357.605 64.5483 357.98 63.8804 357.98 63.0483Z" fill="white"/>
<path d="M373.361 68.4448C370.783 68.4448 368.686 67.6011 367.068 65.9136C365.451 64.2144 364.643 61.9468 364.643 59.1108V58.5132C364.643 56.6265 365 54.9448 365.715 53.4683C366.441 51.98 367.449 50.8198 368.738 49.9878C370.039 49.144 371.445 48.7222 372.957 48.7222C375.43 48.7222 377.352 49.5366 378.723 51.1655C380.094 52.7944 380.779 55.1265 380.779 58.1616V59.5151H367.895C367.941 61.3901 368.486 62.9077 369.529 64.0679C370.584 65.2163 371.92 65.7905 373.537 65.7905C374.686 65.7905 375.658 65.5562 376.455 65.0874C377.252 64.6187 377.949 63.9976 378.547 63.2241L380.533 64.771C378.939 67.2202 376.549 68.4448 373.361 68.4448ZM372.957 51.394C371.645 51.394 370.543 51.8745 369.652 52.8354C368.762 53.7847 368.211 55.1206 368 56.8433H377.527V56.5972C377.434 54.9448 376.988 53.6675 376.191 52.7651C375.395 51.8511 374.316 51.394 372.957 51.394Z" fill="white"/>
<path d="M401.117 65.7905C402.277 65.7905 403.291 65.439 404.158 64.7358C405.025 64.0327 405.506 63.1538 405.6 62.0991H408.676C408.617 63.189 408.242 64.2261 407.551 65.2104C406.859 66.1948 405.934 66.98 404.773 67.5659C403.625 68.1519 402.406 68.4448 401.117 68.4448C398.527 68.4448 396.465 67.5835 394.93 65.8608C393.406 64.1265 392.645 61.7593 392.645 58.7593V58.2144C392.645 56.3628 392.984 54.7163 393.664 53.2749C394.344 51.8335 395.316 50.7144 396.582 49.9175C397.859 49.1206 399.365 48.7222 401.1 48.7222C403.232 48.7222 405.002 49.3608 406.408 50.6382C407.826 51.9155 408.582 53.5737 408.676 55.6128H405.6C405.506 54.3823 405.037 53.3745 404.193 52.5894C403.361 51.7925 402.33 51.394 401.1 51.394C399.447 51.394 398.164 51.9917 397.25 53.187C396.348 54.3706 395.896 56.0874 395.896 58.3374V58.9526C395.896 61.144 396.348 62.8315 397.25 64.0151C398.152 65.1987 399.441 65.7905 401.117 65.7905Z" fill="white"/>
<path d="M424.074 66.2124C422.809 67.7007 420.951 68.4448 418.502 68.4448C416.475 68.4448 414.928 67.8589 413.861 66.687C412.807 65.5034 412.273 63.7573 412.262 61.4487V49.0737H415.514V61.3608C415.514 64.2437 416.686 65.6851 419.029 65.6851C421.514 65.6851 423.166 64.7593 423.986 62.9077V49.0737H427.238V68.0933H424.145L424.074 66.2124Z" fill="white"/>
<path d="M440.088 68.4448C437.51 68.4448 435.412 67.6011 433.795 65.9136C432.178 64.2144 431.369 61.9468 431.369 59.1108V58.5132C431.369 56.6265 431.727 54.9448 432.441 53.4683C433.168 51.98 434.176 50.8198 435.465 49.9878C436.766 49.144 438.172 48.7222 439.684 48.7222C442.156 48.7222 444.078 49.5366 445.449 51.1655C446.82 52.7944 447.506 55.1265 447.506 58.1616V59.5151H434.621C434.668 61.3901 435.213 62.9077 436.256 64.0679C437.311 65.2163 438.646 65.7905 440.264 65.7905C441.412 65.7905 442.385 65.5562 443.182 65.0874C443.979 64.6187 444.676 63.9976 445.273 63.2241L447.26 64.771C445.666 67.2202 443.275 68.4448 440.088 68.4448ZM439.684 51.394C438.371 51.394 437.27 51.8745 436.379 52.8354C435.488 53.7847 434.938 55.1206 434.727 56.8433H444.254V56.5972C444.16 54.9448 443.715 53.6675 442.918 52.7651C442.121 51.8511 441.043 51.394 439.684 51.394Z" fill="white"/>
<path d="M454.361 49.0737L454.467 51.4644C455.92 49.6362 457.818 48.7222 460.162 48.7222C464.182 48.7222 466.209 50.9897 466.244 55.5249V68.0933H462.992V55.5073C462.98 54.1362 462.664 53.1226 462.043 52.4663C461.434 51.8101 460.479 51.4819 459.178 51.4819C458.123 51.4819 457.197 51.7632 456.4 52.3257C455.604 52.8882 454.982 53.6265 454.537 54.5405V68.0933H451.285V49.0737H454.361Z" fill="white"/>
<path d="M475.561 44.4683V49.0737H479.111V51.5874H475.561V63.3823C475.561 64.144 475.719 64.7183 476.035 65.105C476.352 65.48 476.891 65.6675 477.652 65.6675C478.027 65.6675 478.543 65.5972 479.199 65.4565V68.0933C478.344 68.3276 477.512 68.4448 476.703 68.4448C475.25 68.4448 474.154 68.0054 473.416 67.1265C472.678 66.2476 472.309 64.9995 472.309 63.3823V51.5874H468.846V49.0737H472.309V44.4683H475.561Z" fill="white"/>
<path d="M494.668 68.0933C494.48 67.7183 494.328 67.0503 494.211 66.0894C492.699 67.6597 490.895 68.4448 488.797 68.4448C486.922 68.4448 485.381 67.9175 484.174 66.8628C482.979 65.7964 482.381 64.4487 482.381 62.8198C482.381 60.8394 483.131 59.3042 484.631 58.2144C486.143 57.1128 488.264 56.562 490.994 56.562H494.158V55.0679C494.158 53.9312 493.818 53.0288 493.139 52.3608C492.459 51.6812 491.457 51.3413 490.133 51.3413C488.973 51.3413 488 51.6343 487.215 52.2202C486.43 52.8062 486.037 53.5151 486.037 54.3472H482.768C482.768 53.3979 483.102 52.4839 483.77 51.605C484.449 50.7144 485.363 50.0112 486.512 49.4956C487.672 48.98 488.943 48.7222 490.326 48.7222C492.518 48.7222 494.234 49.2729 495.477 50.3745C496.719 51.4644 497.363 52.9702 497.41 54.8921V63.646C497.41 65.3921 497.633 66.7808 498.078 67.812V68.0933H494.668ZM489.271 65.6147C490.291 65.6147 491.258 65.3511 492.172 64.8237C493.086 64.2964 493.748 63.6108 494.158 62.7671V58.8647H491.609C487.625 58.8647 485.633 60.0308 485.633 62.3628C485.633 63.3823 485.973 64.1792 486.652 64.7534C487.332 65.3276 488.205 65.6147 489.271 65.6147Z" fill="white"/>
<path d="M505.584 49.0737L505.689 51.4644C507.143 49.6362 509.041 48.7222 511.385 48.7222C515.404 48.7222 517.432 50.9897 517.467 55.5249V68.0933H514.215V55.5073C514.203 54.1362 513.887 53.1226 513.266 52.4663C512.656 51.8101 511.701 51.4819 510.4 51.4819C509.346 51.4819 508.42 51.7632 507.623 52.3257C506.826 52.8882 506.205 53.6265 505.76 54.5405V68.0933H502.508V49.0737H505.584Z" fill="white"/>
<path d="M539.193 68.4448C536.615 68.4448 534.518 67.6011 532.9 65.9136C531.283 64.2144 530.475 61.9468 530.475 59.1108V58.5132C530.475 56.6265 530.832 54.9448 531.547 53.4683C532.273 51.98 533.281 50.8198 534.57 49.9878C535.871 49.144 537.277 48.7222 538.789 48.7222C541.262 48.7222 543.184 49.5366 544.555 51.1655C545.926 52.7944 546.611 55.1265 546.611 58.1616V59.5151H533.727C533.773 61.3901 534.318 62.9077 535.361 64.0679C536.416 65.2163 537.752 65.7905 539.369 65.7905C540.518 65.7905 541.49 65.5562 542.287 65.0874C543.084 64.6187 543.781 63.9976 544.379 63.2241L546.365 64.771C544.771 67.2202 542.381 68.4448 539.193 68.4448ZM538.789 51.394C537.477 51.394 536.375 51.8745 535.484 52.8354C534.594 53.7847 534.043 55.1206 533.832 56.8433H543.359V56.5972C543.266 54.9448 542.82 53.6675 542.023 52.7651C541.227 51.8511 540.148 51.394 538.789 51.394Z" fill="white"/>
<path d="M553.467 49.0737L553.572 51.4644C555.025 49.6362 556.924 48.7222 559.268 48.7222C563.287 48.7222 565.314 50.9897 565.35 55.5249V68.0933H562.098V55.5073C562.086 54.1362 561.77 53.1226 561.148 52.4663C560.539 51.8101 559.584 51.4819 558.283 51.4819C557.229 51.4819 556.303 51.7632 555.506 52.3257C554.709 52.8882 554.088 53.6265 553.643 54.5405V68.0933H550.391V49.0737H553.467Z" fill="white"/>
<path d="M583.596 44.4683V49.0737H587.146V51.5874H583.596V63.3823C583.596 64.144 583.754 64.7183 584.07 65.105C584.387 65.48 584.926 65.6675 585.688 65.6675C586.062 65.6675 586.578 65.5972 587.234 65.4565V68.0933C586.379 68.3276 585.547 68.4448 584.738 68.4448C583.285 68.4448 582.189 68.0054 581.451 67.1265C580.713 66.2476 580.344 64.9995 580.344 63.3823V51.5874H576.881V49.0737H580.344V44.4683H583.596Z" fill="white"/>
<path d="M589.748 58.4077C589.748 56.5444 590.111 54.8687 590.838 53.3804C591.576 51.8921 592.596 50.7437 593.896 49.9351C595.209 49.1265 596.703 48.7222 598.379 48.7222C600.969 48.7222 603.061 49.6187 604.654 51.4116C606.26 53.2046 607.062 55.5894 607.062 58.5659V58.7944C607.062 60.646 606.705 62.3101 605.99 63.7866C605.287 65.2515 604.273 66.394 602.949 67.2144C601.637 68.0347 600.125 68.4448 598.414 68.4448C595.836 68.4448 593.744 67.5483 592.139 65.7554C590.545 63.9624 589.748 61.5894 589.748 58.6362V58.4077ZM593.018 58.7944C593.018 60.9038 593.504 62.5972 594.477 63.8745C595.461 65.1519 596.773 65.7905 598.414 65.7905C600.066 65.7905 601.379 65.146 602.352 63.8569C603.324 62.5562 603.811 60.7397 603.811 58.4077C603.811 56.3218 603.312 54.6343 602.316 53.3452C601.332 52.0444 600.02 51.394 598.379 51.394C596.773 51.394 595.479 52.0327 594.494 53.3101C593.51 54.5874 593.018 56.4155 593.018 58.7944Z" fill="white"/>
<path d="M615.553 44.4683V49.0737H619.104V51.5874H615.553V63.3823C615.553 64.144 615.711 64.7183 616.027 65.105C616.344 65.48 616.883 65.6675 617.645 65.6675C618.02 65.6675 618.535 65.5972 619.191 65.4565V68.0933C618.336 68.3276 617.504 68.4448 616.695 68.4448C615.242 68.4448 614.146 68.0054 613.408 67.1265C612.67 66.2476 612.301 64.9995 612.301 63.3823V51.5874H608.838V49.0737H612.301V44.4683H615.553Z" fill="white"/>
<path d="M634.66 68.0933C634.473 67.7183 634.32 67.0503 634.203 66.0894C632.691 67.6597 630.887 68.4448 628.789 68.4448C626.914 68.4448 625.373 67.9175 624.166 66.8628C622.971 65.7964 622.373 64.4487 622.373 62.8198C622.373 60.8394 623.123 59.3042 624.623 58.2144C626.135 57.1128 628.256 56.562 630.986 56.562H634.15V55.0679C634.15 53.9312 633.811 53.0288 633.131 52.3608C632.451 51.6812 631.449 51.3413 630.125 51.3413C628.965 51.3413 627.992 51.6343 627.207 52.2202C626.422 52.8062 626.029 53.5151 626.029 54.3472H622.76C622.76 53.3979 623.094 52.4839 623.762 51.605C624.441 50.7144 625.355 50.0112 626.504 49.4956C627.664 48.98 628.936 48.7222 630.318 48.7222C632.51 48.7222 634.227 49.2729 635.469 50.3745C636.711 51.4644 637.355 52.9702 637.402 54.8921V63.646C637.402 65.3921 637.625 66.7808 638.07 67.812V68.0933H634.66ZM629.264 65.6147C630.283 65.6147 631.25 65.3511 632.164 64.8237C633.078 64.2964 633.74 63.6108 634.15 62.7671V58.8647H631.602C627.617 58.8647 625.625 60.0308 625.625 62.3628C625.625 63.3823 625.965 64.1792 626.645 64.7534C627.324 65.3276 628.197 65.6147 629.264 65.6147Z" fill="white"/>
<path d="M646.033 68.0933H642.781V41.0933H646.033V68.0933Z" fill="white"/>
<path d="M668.076 68.4448C665.498 68.4448 663.4 67.6011 661.783 65.9136C660.166 64.2144 659.357 61.9468 659.357 59.1108V58.5132C659.357 56.6265 659.715 54.9448 660.43 53.4683C661.156 51.98 662.164 50.8198 663.453 49.9878C664.754 49.144 666.16 48.7222 667.672 48.7222C670.145 48.7222 672.066 49.5366 673.438 51.1655C674.809 52.7944 675.494 55.1265 675.494 58.1616V59.5151H662.609C662.656 61.3901 663.201 62.9077 664.244 64.0679C665.299 65.2163 666.635 65.7905 668.252 65.7905C669.4 65.7905 670.373 65.5562 671.17 65.0874C671.967 64.6187 672.664 63.9976 673.262 63.2241L675.248 64.771C673.654 67.2202 671.264 68.4448 668.076 68.4448ZM667.672 51.394C666.359 51.394 665.258 51.8745 664.367 52.8354C663.477 53.7847 662.926 55.1206 662.715 56.8433H672.242V56.5972C672.148 54.9448 671.703 53.6675 670.906 52.7651C670.109 51.8511 669.031 51.394 667.672 51.394Z" fill="white"/>
<path d="M682.35 49.0737L682.455 51.4644C683.908 49.6362 685.807 48.7222 688.15 48.7222C692.17 48.7222 694.197 50.9897 694.232 55.5249V68.0933H690.98V55.5073C690.969 54.1362 690.652 53.1226 690.031 52.4663C689.422 51.8101 688.467 51.4819 687.166 51.4819C686.111 51.4819 685.186 51.7632 684.389 52.3257C683.592 52.8882 682.971 53.6265 682.525 54.5405V68.0933H679.273V49.0737H682.35Z" fill="white"/>
<path d="M711.6 68.0933H708.348V41.0933H711.6V68.0933Z" fill="white"/>
<path d="M728.562 68.0933C728.375 67.7183 728.223 67.0503 728.105 66.0894C726.594 67.6597 724.789 68.4448 722.691 68.4448C720.816 68.4448 719.275 67.9175 718.068 66.8628C716.873 65.7964 716.275 64.4487 716.275 62.8198C716.275 60.8394 717.025 59.3042 718.525 58.2144C720.037 57.1128 722.158 56.562 724.889 56.562H728.053V55.0679C728.053 53.9312 727.713 53.0288 727.033 52.3608C726.354 51.6812 725.352 51.3413 724.027 51.3413C722.867 51.3413 721.895 51.6343 721.109 52.2202C720.324 52.8062 719.932 53.5151 719.932 54.3472H716.662C716.662 53.3979 716.996 52.4839 717.664 51.605C718.344 50.7144 719.258 50.0112 720.406 49.4956C721.566 48.98 722.838 48.7222 724.221 48.7222C726.412 48.7222 728.129 49.2729 729.371 50.3745C730.613 51.4644 731.258 52.9702 731.305 54.8921V63.646C731.305 65.3921 731.527 66.7808 731.973 67.812V68.0933H728.562ZM723.166 65.6147C724.186 65.6147 725.152 65.3511 726.066 64.8237C726.98 64.2964 727.643 63.6108 728.053 62.7671V58.8647H725.504C721.52 58.8647 719.527 60.0308 719.527 62.3628C719.527 63.3823 719.867 64.1792 720.547 64.7534C721.227 65.3276 722.1 65.6147 723.166 65.6147Z" fill="white"/>
<path d="M756.406 63.0483C756.406 62.1694 756.072 61.4897 755.404 61.0093C754.748 60.5171 753.594 60.0952 751.941 59.7437C750.301 59.3921 748.994 58.9702 748.021 58.478C747.061 57.9858 746.346 57.3999 745.877 56.7202C745.42 56.0405 745.191 55.2319 745.191 54.2944C745.191 52.7358 745.848 51.4175 747.16 50.3394C748.484 49.2612 750.172 48.7222 752.223 48.7222C754.379 48.7222 756.125 49.2788 757.461 50.3921C758.809 51.5054 759.482 52.9292 759.482 54.6636H756.213C756.213 53.7729 755.832 53.0054 755.07 52.3608C754.32 51.7163 753.371 51.394 752.223 51.394C751.039 51.394 750.113 51.6519 749.445 52.1675C748.777 52.6831 748.443 53.3569 748.443 54.189C748.443 54.9741 748.754 55.5659 749.375 55.9644C749.996 56.3628 751.115 56.7437 752.732 57.1069C754.361 57.4702 755.68 57.9038 756.688 58.4077C757.695 58.9116 758.439 59.521 758.92 60.2358C759.412 60.939 759.658 61.8003 759.658 62.8198C759.658 64.519 758.979 65.8843 757.619 66.9155C756.26 67.9351 754.496 68.4448 752.328 68.4448C750.805 68.4448 749.457 68.1753 748.285 67.6362C747.113 67.0972 746.193 66.3472 745.525 65.3862C744.869 64.4136 744.541 63.3647 744.541 62.2397H747.793C747.852 63.3296 748.285 64.1968 749.094 64.8413C749.914 65.4741 750.992 65.7905 752.328 65.7905C753.559 65.7905 754.543 65.5444 755.281 65.0522C756.031 64.5483 756.406 63.8804 756.406 63.0483Z" fill="white"/>
<path d="M767.428 68.0933H764.176V49.0737H767.428V68.0933ZM763.912 44.0288C763.912 43.5015 764.07 43.0562 764.387 42.6929C764.715 42.3296 765.195 42.1479 765.828 42.1479C766.461 42.1479 766.941 42.3296 767.27 42.6929C767.598 43.0562 767.762 43.5015 767.762 44.0288C767.762 44.5562 767.598 44.9956 767.27 45.3472C766.941 45.6987 766.461 45.8745 765.828 45.8745C765.195 45.8745 764.715 45.6987 764.387 45.3472C764.07 44.9956 763.912 44.5562 763.912 44.0288Z" fill="white"/>
<path d="M771.875 58.4253C771.875 55.4604 772.561 53.105 773.932 51.3589C775.303 49.6011 777.119 48.7222 779.381 48.7222C781.701 48.7222 783.512 49.5425 784.812 51.1831L784.971 49.0737H787.941V67.6362C787.941 70.0972 787.209 72.0366 785.744 73.4546C784.291 74.8726 782.334 75.5815 779.873 75.5815C778.502 75.5815 777.16 75.2886 775.848 74.7026C774.535 74.1167 773.533 73.314 772.842 72.2944L774.529 70.3433C775.924 72.0659 777.629 72.9272 779.645 72.9272C781.227 72.9272 782.457 72.4819 783.336 71.5913C784.227 70.7007 784.672 69.4468 784.672 67.8296V66.1948C783.371 67.6948 781.596 68.4448 779.346 68.4448C777.119 68.4448 775.314 67.5483 773.932 65.7554C772.561 63.9624 771.875 61.519 771.875 58.4253ZM775.145 58.7944C775.145 60.939 775.584 62.6265 776.463 63.8569C777.342 65.0757 778.572 65.6851 780.154 65.6851C782.205 65.6851 783.711 64.7534 784.672 62.8901V54.2065C783.676 52.3901 782.182 51.4819 780.189 51.4819C778.607 51.4819 777.371 52.0972 776.48 53.3276C775.59 54.5581 775.145 56.3804 775.145 58.7944Z" fill="white"/>
<path d="M804.605 66.2124C803.34 67.7007 801.482 68.4448 799.033 68.4448C797.006 68.4448 795.459 67.8589 794.393 66.687C793.338 65.5034 792.805 63.7573 792.793 61.4487V49.0737H796.045V61.3608C796.045 64.2437 797.217 65.6851 799.561 65.6851C802.045 65.6851 803.697 64.7593 804.518 62.9077V49.0737H807.77V68.0933H804.676L804.605 66.2124Z" fill="white"/>
<path d="M816.26 68.0933H813.008V49.0737H816.26V68.0933ZM812.744 44.0288C812.744 43.5015 812.902 43.0562 813.219 42.6929C813.547 42.3296 814.027 42.1479 814.66 42.1479C815.293 42.1479 815.773 42.3296 816.102 42.6929C816.43 43.0562 816.594 43.5015 816.594 44.0288C816.594 44.5562 816.43 44.9956 816.102 45.3472C815.773 45.6987 815.293 45.8745 814.66 45.8745C814.027 45.8745 813.547 45.6987 813.219 45.3472C812.902 44.9956 812.744 44.5562 812.744 44.0288Z" fill="white"/>
<path d="M829.373 68.4448C826.795 68.4448 824.697 67.6011 823.08 65.9136C821.463 64.2144 820.654 61.9468 820.654 59.1108V58.5132C820.654 56.6265 821.012 54.9448 821.727 53.4683C822.453 51.98 823.461 50.8198 824.75 49.9878C826.051 49.144 827.457 48.7222 828.969 48.7222C831.441 48.7222 833.363 49.5366 834.734 51.1655C836.105 52.7944 836.791 55.1265 836.791 58.1616V59.5151H823.906C823.953 61.3901 824.498 62.9077 825.541 64.0679C826.596 65.2163 827.932 65.7905 829.549 65.7905C830.697 65.7905 831.67 65.5562 832.467 65.0874C833.264 64.6187 833.961 63.9976 834.559 63.2241L836.545 64.771C834.951 67.2202 832.561 68.4448 829.373 68.4448ZM828.969 51.394C827.656 51.394 826.555 51.8745 825.664 52.8354C824.773 53.7847 824.223 55.1206 824.012 56.8433H833.539V56.5972C833.445 54.9448 833 53.6675 832.203 52.7651C831.406 51.8511 830.328 51.394 828.969 51.394Z" fill="white"/>
<path d="M843.646 49.0737L843.752 51.4644C845.205 49.6362 847.104 48.7222 849.447 48.7222C853.467 48.7222 855.494 50.9897 855.529 55.5249V68.0933H852.277V55.5073C852.266 54.1362 851.949 53.1226 851.328 52.4663C850.719 51.8101 849.764 51.4819 848.463 51.4819C847.408 51.4819 846.482 51.7632 845.686 52.3257C844.889 52.8882 844.268 53.6265 843.822 54.5405V68.0933H840.57V49.0737H843.646Z" fill="white"/>
<path d="M864.846 44.4683V49.0737H868.396V51.5874H864.846V63.3823C864.846 64.144 865.004 64.7183 865.32 65.105C865.637 65.48 866.176 65.6675 866.938 65.6675C867.312 65.6675 867.828 65.5972 868.484 65.4565V68.0933C867.629 68.3276 866.797 68.4448 865.988 68.4448C864.535 68.4448 863.439 68.0054 862.701 67.1265C861.963 66.2476 861.594 64.9995 861.594 63.3823V51.5874H858.131V49.0737H861.594V44.4683H864.846Z" fill="white"/>
<path d="M880.104 68.4448C877.525 68.4448 875.428 67.6011 873.811 65.9136C872.193 64.2144 871.385 61.9468 871.385 59.1108V58.5132C871.385 56.6265 871.742 54.9448 872.457 53.4683C873.184 51.98 874.191 50.8198 875.48 49.9878C876.781 49.144 878.188 48.7222 879.699 48.7222C882.172 48.7222 884.094 49.5366 885.465 51.1655C886.836 52.7944 887.521 55.1265 887.521 58.1616V59.5151H874.637C874.684 61.3901 875.229 62.9077 876.271 64.0679C877.326 65.2163 878.662 65.7905 880.279 65.7905C881.428 65.7905 882.4 65.5562 883.197 65.0874C883.994 64.6187 884.691 63.9976 885.289 63.2241L887.275 64.771C885.682 67.2202 883.291 68.4448 880.104 68.4448ZM879.699 51.394C878.387 51.394 877.285 51.8745 876.395 52.8354C875.504 53.7847 874.953 55.1206 874.742 56.8433H884.27V56.5972C884.176 54.9448 883.73 53.6675 882.934 52.7651C882.137 51.8511 881.059 51.394 879.699 51.394Z" fill="white"/>
<path d="M56.5508 110.093V93.5874H53.5449V91.0737H56.5508V89.4565C56.5508 87.3354 57.1543 85.6831 58.3613 84.4995C59.5801 83.3159 61.2969 82.7241 63.5117 82.7241C64.8242 82.7241 66.4824 83.0815 68.4863 83.7964L67.9414 86.5386C66.4766 85.9526 65.082 85.6597 63.7578 85.6597C62.3633 85.6597 61.3555 85.9761 60.7344 86.6089C60.125 87.23 59.8203 88.1675 59.8203 89.4214V91.0737H63.7051V93.5874H59.8203V110.093H56.5508ZM70.1035 110.093H66.834V91.0737H70.1035V110.093Z" fill="white"/>
<path d="M74.6211 100.425C74.6211 97.4604 75.3066 95.105 76.6777 93.3589C78.0488 91.6011 79.8652 90.7222 82.127 90.7222C84.4473 90.7222 86.2578 91.5425 87.5586 93.1831L87.7168 91.0737H90.6875V109.636C90.6875 112.097 89.9551 114.037 88.4902 115.455C87.0371 116.873 85.0801 117.582 82.6191 117.582C81.248 117.582 79.9062 117.289 78.5938 116.703C77.2812 116.117 76.2793 115.314 75.5879 114.294L77.2754 112.343C78.6699 114.066 80.375 114.927 82.3906 114.927C83.9727 114.927 85.2031 114.482 86.082 113.591C86.9727 112.701 87.418 111.447 87.418 109.83V108.195C86.1172 109.695 84.3418 110.445 82.0918 110.445C79.8652 110.445 78.0605 109.548 76.6777 107.755C75.3066 105.962 74.6211 103.519 74.6211 100.425ZM77.8906 100.794C77.8906 102.939 78.3301 104.626 79.209 105.857C80.0879 107.076 81.3184 107.685 82.9004 107.685C84.9512 107.685 86.457 106.753 87.418 104.89V96.2065C86.4219 94.3901 84.9277 93.4819 82.9355 93.4819C81.3535 93.4819 80.1172 94.0972 79.2266 95.3276C78.3359 96.5581 77.8906 98.3804 77.8906 100.794Z" fill="white"/>
<path d="M107.352 108.212C106.086 109.701 104.229 110.445 101.779 110.445C99.752 110.445 98.2051 109.859 97.1387 108.687C96.084 107.503 95.5508 105.757 95.5391 103.449V91.0737H98.791V103.361C98.791 106.244 99.9629 107.685 102.307 107.685C104.791 107.685 106.443 106.759 107.264 104.908V91.0737H110.516V110.093H107.422L107.352 108.212Z" fill="white"/>
<path d="M124.666 93.9917C124.174 93.9097 123.641 93.8687 123.066 93.8687C120.934 93.8687 119.486 94.7769 118.725 96.5933V110.093H115.473V91.0737H118.637L118.689 93.271C119.756 91.5718 121.268 90.7222 123.225 90.7222C123.857 90.7222 124.338 90.8042 124.666 90.9683V93.9917Z" fill="white"/>
<path d="M138.711 110.093C138.523 109.718 138.371 109.05 138.254 108.089C136.742 109.66 134.938 110.445 132.84 110.445C130.965 110.445 129.424 109.917 128.217 108.863C127.021 107.796 126.424 106.449 126.424 104.82C126.424 102.839 127.174 101.304 128.674 100.214C130.186 99.1128 132.307 98.562 135.037 98.562H138.201V97.0679C138.201 95.9312 137.861 95.0288 137.182 94.3608C136.502 93.6812 135.5 93.3413 134.176 93.3413C133.016 93.3413 132.043 93.6343 131.258 94.2202C130.473 94.8062 130.08 95.5151 130.08 96.3472H126.811C126.811 95.3979 127.145 94.4839 127.812 93.605C128.492 92.7144 129.406 92.0112 130.555 91.4956C131.715 90.98 132.986 90.7222 134.369 90.7222C136.561 90.7222 138.277 91.2729 139.52 92.3745C140.762 93.4644 141.406 94.9702 141.453 96.8921V105.646C141.453 107.392 141.676 108.781 142.121 109.812V110.093H138.711ZM133.314 107.615C134.334 107.615 135.301 107.351 136.215 106.824C137.129 106.296 137.791 105.611 138.201 104.767V100.865H135.652C131.668 100.865 129.676 102.031 129.676 104.363C129.676 105.382 130.016 106.179 130.695 106.753C131.375 107.328 132.248 107.615 133.314 107.615Z" fill="white"/>
<path d="M150.365 102.886C150.389 101.492 150.547 100.39 150.84 99.5815C151.133 98.7729 151.73 97.8765 152.633 96.8921L154.936 94.519C155.92 93.4058 156.412 92.2104 156.412 90.9331C156.412 89.7026 156.09 88.7417 155.445 88.0503C154.801 87.3472 153.863 86.9956 152.633 86.9956C151.438 86.9956 150.477 87.312 149.75 87.9448C149.023 88.5776 148.66 89.4272 148.66 90.4937H145.408C145.432 88.5952 146.105 87.0659 147.43 85.9058C148.766 84.7339 150.5 84.1479 152.633 84.1479C154.848 84.1479 156.57 84.7456 157.801 85.9409C159.043 87.1245 159.664 88.7534 159.664 90.8276C159.664 92.8784 158.715 94.8999 156.816 96.8921L154.9 98.7905C154.045 99.7397 153.617 101.105 153.617 102.886H150.365ZM150.225 108.458C150.225 107.931 150.383 107.492 150.699 107.14C151.027 106.777 151.508 106.595 152.141 106.595C152.773 106.595 153.254 106.777 153.582 107.14C153.91 107.492 154.074 107.931 154.074 108.458C154.074 108.986 153.91 109.425 153.582 109.777C153.254 110.117 152.773 110.287 152.141 110.287C151.508 110.287 151.027 110.117 150.699 109.777C150.383 109.425 150.225 108.986 150.225 108.458Z" fill="white"/>
</g>
<path id="Union" fill-rule="evenodd" clip-rule="evenodd" d="M387.42 306.787L341.702 352.506L295.149 305.953L340.868 260.235L387.42 306.787ZM390.945 401.749L344.143 354.947L389.861 309.229L436.664 356.031L390.945 401.749ZM440.36 353.317L392.747 305.703L440.61 257.84L488.223 305.453L440.36 353.317ZM440.36 357.559L393.558 404.362L440.86 451.664L487.662 404.861L440.36 357.559ZM490.774 401.749L537.577 354.947L491.858 309.229L445.056 356.031L490.774 401.749ZM489.784 406.983L490.774 405.992L490.798 406.016L491.858 407.076L538.661 453.879L540.782 456L542.904 453.879L589.706 407.076L590.767 406.016L591.827 404.955L689.675 307.107L690.735 306.047L691.796 304.986L738.599 258.184L740.72 256.062L739.659 255.002L738.599 253.941L691.796 207.139L690.735 206.078L689.675 205.017L642.872 158.215L640.751 156.093L638.63 158.215L591.827 205.017L590.767 206.078L589.706 207.139L541.843 255.002L540.852 255.992L540.329 255.469L539.268 254.408L491.655 206.795L490.594 205.734L489.534 204.674L442.981 158.121L440.86 156L438.739 158.121L391.936 204.924L390.876 205.984L389.815 207.045L341.952 254.908L340.891 255.969L340.868 255.992L339.877 255.001L292.014 207.138L290.953 206.078L289.893 205.017L243.09 158.215L240.969 156.093L238.848 158.215L192.045 205.017L190.984 206.078L189.924 207.138L143.121 253.941L141 256.062L143.121 258.183L189.924 304.986L190.984 306.047L192.045 307.107L289.893 404.955L290.953 406.015L292.014 407.076L338.816 453.879L340.938 456L341.998 454.939L343.059 453.879L389.861 407.076L390.922 406.015L390.945 405.992L391.436 406.483L438.739 453.785L440.86 455.907L442.981 453.785L489.784 406.983ZM539.768 352.756L586.571 305.953L540.852 260.235L494.05 307.037L539.768 352.756ZM490.345 303.332L537.147 256.53L489.534 208.916L442.731 255.719L490.345 303.332ZM440.61 253.598L487.412 206.795L440.86 160.243L394.057 207.045L440.61 253.598ZM391.936 209.166L344.073 257.03L390.626 303.582L438.489 255.719L391.936 209.166ZM589.706 402.834L637.569 354.97L590.767 308.168L542.904 356.031L589.706 402.834ZM493.98 404.955L540.782 358.152L587.585 404.955L540.782 451.757L493.98 404.955ZM543.964 257.123L590.767 303.925L638.63 256.062L591.827 209.26L543.964 257.123ZM593.949 207.139L640.751 253.941L687.554 207.139L640.751 160.336L593.949 207.139ZM689.675 209.26L642.872 256.062L689.675 302.865L736.477 256.062L689.675 209.26ZM687.554 304.986L640.751 258.184L592.888 306.047L639.69 352.849L687.554 304.986ZM242.03 352.849L194.166 304.986L240.969 258.183L288.832 306.047L242.03 352.849ZM290.953 303.925L243.09 256.062L289.893 209.26L337.756 257.123L290.953 303.925ZM240.969 253.941L287.771 207.138L240.969 160.336L194.166 207.138L240.969 253.941ZM238.848 256.062L192.045 209.26L145.243 256.062L192.045 302.865L238.848 256.062ZM340.938 358.152L387.74 404.955L340.938 451.757L294.135 404.955L340.938 358.152ZM338.816 356.031L292.014 402.833L244.151 354.97L290.953 308.168L338.816 356.031Z" fill="white"/>
</g>
<g id="claves">
<g id="Group 21">
<path id="Rectangle 4" d="M39 582H255.745L289 622L255.745 662H39V582Z" fill="#CD08D1" fill-opacity="0.1"/>
<path id="Rectangle 4 (Stroke)" fill-rule="evenodd" clip-rule="evenodd" d="M254.338 585H42V659H254.338L285.099 622L254.338 585ZM255.745 582H39V662H255.745L289 622L255.745 582Z" fill="#CD08D1"/>
<path id="Ellipse 1" d="M80 622C80 644.091 62.0914 662 40 662C17.9086 662 0 644.091 0 622C0 599.909 17.9086 582 40 582C62.0914 582 80 599.909 80 622Z" fill="#CD08D1"/>
<path id="A" d="M48.0938 632.406H30.4688L26.7812 643H18.5625L35.75 597.5H42.8438L60.0625 643H51.8125L48.0938 632.406ZM32.6875 626.031H45.875L39.2812 607.156L32.6875 626.031Z" fill="white"/>
</g>
<g id="Group 17">
<path id="Rectangle 5" d="M382 582H598.745L632 622L598.745 662H382V582Z" fill="#CD08D1" fill-opacity="0.1"/>
<path id="Rectangle 5 (Stroke)" fill-rule="evenodd" clip-rule="evenodd" d="M597.338 585H385V659H597.338L628.099 622L597.338 585ZM598.745 582H382V662H598.745L632 622L598.745 582Z" fill="#CD08D1"/>
<path id="Ellipse 2" d="M423 622C423 644.091 405.091 662 383 662C360.909 662 343 644.091 343 622C343 599.909 360.909 582 383 582C405.091 582 423 599.909 423 622Z" fill="#CD08D1"/>
<path id="B" d="M366.625 638V592.5H382.219C387.365 592.5 391.281 593.531 393.969 595.594C396.656 597.656 398 600.729 398 604.812C398 606.896 397.438 608.771 396.312 610.438C395.188 612.104 393.542 613.396 391.375 614.312C393.833 614.979 395.729 616.24 397.062 618.094C398.417 619.927 399.094 622.135 399.094 624.719C399.094 628.99 397.719 632.271 394.969 634.562C392.24 636.854 388.323 638 383.219 638H366.625ZM374.531 617.469V631.688H383.312C385.792 631.688 387.729 631.073 389.125 629.844C390.521 628.615 391.219 626.906 391.219 624.719C391.219 619.99 388.802 617.573 383.969 617.469H374.531ZM374.531 611.656H382.281C384.74 611.656 386.656 611.104 388.031 610C389.427 608.875 390.125 607.292 390.125 605.25C390.125 603 389.479 601.375 388.188 600.375C386.917 599.375 384.927 598.875 382.219 598.875H374.531V611.656Z" fill="white"/>
</g>
<g id="Group 18">
<path id="Rectangle 6" d="M740 638H956.745L990 678L956.745 718H740V638Z" fill="#CD08D1" fill-opacity="0.1"/>
<path id="Rectangle 6 (Stroke)" fill-rule="evenodd" clip-rule="evenodd" d="M955.338 641H743V715H955.338L986.099 678L955.338 641ZM956.745 638H740V718H956.745L990 678L956.745 638Z" fill="#CD08D1"/>
<path id="Ellipse 3" d="M781 678C781 700.091 763.091 718 741 718C718.909 718 701 700.091 701 678C701 655.909 718.909 638 741 638C763.091 638 781 655.909 781 678Z" fill="#CD08D1"/>
<path id="C" d="M758.344 685.188C757.885 690.042 756.094 693.833 752.969 696.562C749.844 699.271 745.688 700.625 740.5 700.625C736.875 700.625 733.677 699.771 730.906 698.062C728.156 696.333 726.031 693.885 724.531 690.719C723.031 687.552 722.25 683.875 722.188 679.688V675.438C722.188 671.146 722.948 667.365 724.469 664.094C725.99 660.823 728.167 658.302 731 656.531C733.854 654.76 737.146 653.875 740.875 653.875C745.896 653.875 749.938 655.24 753 657.969C756.062 660.698 757.844 664.552 758.344 669.531H750.469C750.094 666.26 749.135 663.906 747.594 662.469C746.073 661.01 743.833 660.281 740.875 660.281C737.438 660.281 734.792 661.542 732.938 664.062C731.104 666.562 730.167 670.24 730.125 675.094V679.125C730.125 684.042 731 687.792 732.75 690.375C734.521 692.958 737.104 694.25 740.5 694.25C743.604 694.25 745.938 693.552 747.5 692.156C749.062 690.76 750.052 688.438 750.469 685.188H758.344Z" fill="white"/>
</g>
<g id="Group 19">
<path id="Rectangle 7" d="M40 687H256.745L290 727L256.745 767H40V687Z" fill="#CD08D1" fill-opacity="0.1"/>
<path id="Rectangle 7 (Stroke)" fill-rule="evenodd" clip-rule="evenodd" d="M255.338 690H43V764H255.338L286.099 727L255.338 690ZM256.745 687H40V767H256.745L290 727L256.745 687Z" fill="#CD08D1"/>
<path id="Ellipse 4" d="M81 727C81 749.091 63.0914 767 41 767C18.9086 767 1 749.091 1 727C1 704.909 18.9086 687 41 687C63.0914 687 81 704.909 81 727Z" fill="#CD08D1"/>
<path id="D" d="M23.625 749V703.5H37.0625C41.0833 703.5 44.6458 704.396 47.75 706.188C50.875 707.979 53.2917 710.521 55 713.812C56.7083 717.104 57.5625 720.875 57.5625 725.125V727.406C57.5625 731.719 56.6979 735.51 54.9688 738.781C53.2604 742.052 50.8125 744.573 47.625 746.344C44.4583 748.115 40.8229 749 36.7188 749H23.625ZM31.5312 709.875V742.688H36.6875C40.8333 742.688 44.0104 741.396 46.2188 738.812C48.4479 736.208 49.5833 732.479 49.625 727.625V725.094C49.625 720.156 48.5521 716.385 46.4062 713.781C44.2604 711.177 41.1458 709.875 37.0625 709.875H31.5312Z" fill="white"/>
</g>
<g id="Group 20">
<path id="Rectangle 8" d="M382 687H598.745L632 727L598.745 767H382V687Z" fill="#CD08D1" fill-opacity="0.1"/>
<path id="Rectangle 8 (Stroke)" fill-rule="evenodd" clip-rule="evenodd" d="M597.338 690H385V764H597.338L628.099 727L597.338 690ZM598.745 687H382V767H598.745L632 727L598.745 687Z" fill="#CD08D1"/>
<path id="Ellipse 5" d="M423 727C423 749.091 405.091 767 383 767C360.909 767 343 749.091 343 727C343 704.909 360.909 687 383 687C405.091 687 423 704.909 423 727Z" fill="#CD08D1"/>
<path id="E" d="M392.219 728.688H373.531V742.688H395.375V749H365.625V703.5H395.156V709.875H373.531V722.438H392.219V728.688Z" fill="white"/>
</g>
<g id="30 31 32 33 34">
<path d="M128.855 618.621H131.299C132.834 618.598 134.041 618.193 134.92 617.408C135.799 616.623 136.238 615.562 136.238 614.227C136.238 611.227 134.744 609.727 131.756 609.727C130.35 609.727 129.225 610.131 128.381 610.939C127.549 611.736 127.133 612.797 127.133 614.121H123.881C123.881 612.094 124.619 610.412 126.096 609.076C127.584 607.729 129.471 607.055 131.756 607.055C134.17 607.055 136.062 607.693 137.434 608.971C138.805 610.248 139.49 612.023 139.49 614.297C139.49 615.41 139.127 616.488 138.4 617.531C137.686 618.574 136.707 619.354 135.465 619.869C136.871 620.314 137.955 621.053 138.717 622.084C139.49 623.115 139.877 624.375 139.877 625.863C139.877 628.16 139.127 629.982 137.627 631.33C136.127 632.678 134.176 633.352 131.773 633.352C129.371 633.352 127.414 632.701 125.902 631.4C124.402 630.1 123.652 628.383 123.652 626.25H126.922C126.922 627.598 127.361 628.676 128.24 629.484C129.119 630.293 130.297 630.697 131.773 630.697C133.344 630.697 134.545 630.287 135.377 629.467C136.209 628.646 136.625 627.469 136.625 625.934C136.625 624.445 136.168 623.303 135.254 622.506C134.34 621.709 133.021 621.299 131.299 621.275H128.855V618.621Z" fill="#CD08D1"/>
<path d="M160.391 622.084C160.391 625.893 159.74 628.723 158.439 630.574C157.139 632.426 155.105 633.352 152.34 633.352C149.609 633.352 147.588 632.449 146.275 630.645C144.963 628.828 144.283 626.121 144.236 622.523V618.182C144.236 614.42 144.887 611.625 146.188 609.797C147.488 607.969 149.527 607.055 152.305 607.055C155.059 607.055 157.086 607.939 158.387 609.709C159.688 611.467 160.355 614.186 160.391 617.865V622.084ZM157.139 617.637C157.139 614.883 156.752 612.879 155.979 611.625C155.205 610.359 153.98 609.727 152.305 609.727C150.641 609.727 149.428 610.354 148.666 611.607C147.904 612.861 147.512 614.789 147.488 617.391V622.594C147.488 625.359 147.887 627.404 148.684 628.729C149.492 630.041 150.711 630.697 152.34 630.697C153.945 630.697 155.135 630.076 155.908 628.834C156.693 627.592 157.104 625.635 157.139 622.963V617.637Z" fill="#CD08D1"/>
<path d="M472.895 618.621H475.338C476.873 618.598 478.08 618.193 478.959 617.408C479.838 616.623 480.277 615.562 480.277 614.227C480.277 611.227 478.783 609.727 475.795 609.727C474.389 609.727 473.264 610.131 472.42 610.939C471.588 611.736 471.172 612.797 471.172 614.121H467.92C467.92 612.094 468.658 610.412 470.135 609.076C471.623 607.729 473.51 607.055 475.795 607.055C478.209 607.055 480.102 607.693 481.473 608.971C482.844 610.248 483.529 612.023 483.529 614.297C483.529 615.41 483.166 616.488 482.439 617.531C481.725 618.574 480.746 619.354 479.504 619.869C480.91 620.314 481.994 621.053 482.756 622.084C483.529 623.115 483.916 624.375 483.916 625.863C483.916 628.16 483.166 629.982 481.666 631.33C480.166 632.678 478.215 633.352 475.812 633.352C473.41 633.352 471.453 632.701 469.941 631.4C468.441 630.1 467.691 628.383 467.691 626.25H470.961C470.961 627.598 471.4 628.676 472.279 629.484C473.158 630.293 474.336 630.697 475.812 630.697C477.383 630.697 478.584 630.287 479.416 629.467C480.248 628.646 480.664 627.469 480.664 625.934C480.664 624.445 480.207 623.303 479.293 622.506C478.379 621.709 477.061 621.299 475.338 621.275H472.895V618.621Z" fill="#CD08D1"/>
<path d="M499.068 633H495.799V611.326L489.242 613.734V610.781L498.559 607.283H499.068V633Z" fill="#CD08D1"/>
<path d="M825.371 673.621H827.814C829.35 673.598 830.557 673.193 831.436 672.408C832.314 671.623 832.754 670.562 832.754 669.227C832.754 666.227 831.26 664.727 828.271 664.727C826.865 664.727 825.74 665.131 824.896 665.939C824.064 666.736 823.648 667.797 823.648 669.121H820.396C820.396 667.094 821.135 665.412 822.611 664.076C824.1 662.729 825.986 662.055 828.271 662.055C830.686 662.055 832.578 662.693 833.949 663.971C835.32 665.248 836.006 667.023 836.006 669.297C836.006 670.41 835.643 671.488 834.916 672.531C834.201 673.574 833.223 674.354 831.98 674.869C833.387 675.314 834.471 676.053 835.232 677.084C836.006 678.115 836.393 679.375 836.393 680.863C836.393 683.16 835.643 684.982 834.143 686.33C832.643 687.678 830.691 688.352 828.289 688.352C825.887 688.352 823.93 687.701 822.418 686.4C820.918 685.1 820.168 683.383 820.168 681.25H823.438C823.438 682.598 823.877 683.676 824.756 684.484C825.635 685.293 826.812 685.697 828.289 685.697C829.859 685.697 831.061 685.287 831.893 684.467C832.725 683.646 833.141 682.469 833.141 680.934C833.141 679.445 832.684 678.303 831.77 677.506C830.855 676.709 829.537 676.299 827.814 676.275H825.371V673.621Z" fill="#CD08D1"/>
<path d="M857.627 688H840.857V685.662L849.717 675.818C851.029 674.33 851.932 673.123 852.424 672.197C852.928 671.26 853.18 670.293 853.18 669.297C853.18 667.961 852.775 666.865 851.967 666.01C851.158 665.154 850.08 664.727 848.732 664.727C847.115 664.727 845.855 665.189 844.953 666.115C844.062 667.029 843.617 668.307 843.617 669.947H840.365C840.365 667.592 841.121 665.688 842.633 664.234C844.156 662.781 846.189 662.055 848.732 662.055C851.111 662.055 852.992 662.682 854.375 663.936C855.758 665.178 856.449 666.836 856.449 668.91C856.449 671.43 854.844 674.43 851.633 677.91L844.777 685.346H857.627V688Z" fill="#CD08D1"/>
<path d="M128.855 728.621H131.299C132.834 728.598 134.041 728.193 134.92 727.408C135.799 726.623 136.238 725.562 136.238 724.227C136.238 721.227 134.744 719.727 131.756 719.727C130.35 719.727 129.225 720.131 128.381 720.939C127.549 721.736 127.133 722.797 127.133 724.121H123.881C123.881 722.094 124.619 720.412 126.096 719.076C127.584 717.729 129.471 717.055 131.756 717.055C134.17 717.055 136.062 717.693 137.434 718.971C138.805 720.248 139.49 722.023 139.49 724.297C139.49 725.41 139.127 726.488 138.4 727.531C137.686 728.574 136.707 729.354 135.465 729.869C136.871 730.314 137.955 731.053 138.717 732.084C139.49 733.115 139.877 734.375 139.877 735.863C139.877 738.16 139.127 739.982 137.627 741.33C136.127 742.678 134.176 743.352 131.773 743.352C129.371 743.352 127.414 742.701 125.902 741.4C124.402 740.1 123.652 738.383 123.652 736.25H126.922C126.922 737.598 127.361 738.676 128.24 739.484C129.119 740.293 130.297 740.697 131.773 740.697C133.344 740.697 134.545 740.287 135.377 739.467C136.209 738.646 136.625 737.469 136.625 735.934C136.625 734.445 136.168 733.303 135.254 732.506C134.34 731.709 133.021 731.299 131.299 731.275H128.855V728.621Z" fill="#CD08D1"/>
<path d="M149.07 728.621H151.514C153.049 728.598 154.256 728.193 155.135 727.408C156.014 726.623 156.453 725.562 156.453 724.227C156.453 721.227 154.959 719.727 151.971 719.727C150.564 719.727 149.439 720.131 148.596 720.939C147.764 721.736 147.348 722.797 147.348 724.121H144.096C144.096 722.094 144.834 720.412 146.311 719.076C147.799 717.729 149.686 717.055 151.971 717.055C154.385 717.055 156.277 717.693 157.648 718.971C159.02 720.248 159.705 722.023 159.705 724.297C159.705 725.41 159.342 726.488 158.615 727.531C157.9 728.574 156.922 729.354 155.68 729.869C157.086 730.314 158.17 731.053 158.932 732.084C159.705 733.115 160.092 734.375 160.092 735.863C160.092 738.16 159.342 739.982 157.842 741.33C156.342 742.678 154.391 743.352 151.988 743.352C149.586 743.352 147.629 742.701 146.117 741.4C144.617 740.1 143.867 738.383 143.867 736.25H147.137C147.137 737.598 147.576 738.676 148.455 739.484C149.334 740.293 150.512 740.697 151.988 740.697C153.559 740.697 154.76 740.287 155.592 739.467C156.424 738.646 156.84 737.469 156.84 735.934C156.84 734.445 156.383 733.303 155.469 732.506C154.555 731.709 153.236 731.299 151.514 731.275H149.07V728.621Z" fill="#CD08D1"/>
<path d="M481.824 728.621H484.268C485.803 728.598 487.01 728.193 487.889 727.408C488.768 726.623 489.207 725.562 489.207 724.227C489.207 721.227 487.713 719.727 484.725 719.727C483.318 719.727 482.193 720.131 481.35 720.939C480.518 721.736 480.102 722.797 480.102 724.121H476.85C476.85 722.094 477.588 720.412 479.064 719.076C480.553 717.729 482.439 717.055 484.725 717.055C487.139 717.055 489.031 717.693 490.402 718.971C491.773 720.248 492.459 722.023 492.459 724.297C492.459 725.41 492.096 726.488 491.369 727.531C490.654 728.574 489.676 729.354 488.434 729.869C489.84 730.314 490.924 731.053 491.686 732.084C492.459 733.115 492.846 734.375 492.846 735.863C492.846 738.16 492.096 739.982 490.596 741.33C489.096 742.678 487.145 743.352 484.742 743.352C482.34 743.352 480.383 742.701 478.871 741.4C477.371 740.1 476.621 738.383 476.621 736.25H479.891C479.891 737.598 480.33 738.676 481.209 739.484C482.088 740.293 483.266 740.697 484.742 740.697C486.312 740.697 487.514 740.287 488.346 739.467C489.178 738.646 489.594 737.469 489.594 735.934C489.594 734.445 489.137 733.303 488.223 732.506C487.309 731.709 485.99 731.299 484.268 731.275H481.824V728.621Z" fill="#CD08D1"/>
<path d="M511.039 734.404H514.59V737.059H511.039V743H507.77V737.059H496.115V735.143L507.576 717.406H511.039V734.404ZM499.807 734.404H507.77V721.854L507.383 722.557L499.807 734.404Z" fill="#CD08D1"/>
</g>
<g id="flecha">
<path id="Rectangle 2" d="M754.2 635.008L769.482 643.133L727.5 722.089L712.219 713.963L754.2 635.008Z" fill="#1043F5"/>
<path id="Rectangle 1_2" d="M696 647.904L786 598V655.692L741 638.096L696 647.904Z" fill="#1043F5"/>
<path id="Rectangle 3" d="M700.038 717.21L715.665 690.143L732.936 689.565L717.309 716.632L700.038 717.21Z" fill="#1043F5"/>
<path id="Rectangle 4_2" d="M726.09 731.845L741.717 704.778L732.926 689.154L717.299 716.221L726.09 731.845Z" fill="#1043F5"/>
</g>
</g>
</g>
</svg>
