<svg viewBox="0 0 874 565" fill="none" xmlns="http://www.w3.org/2000/svg">
<g id="0127202">
<g id="Group 82">
<g id="Group 77">
<path id="Rectangle 23 (Stroke)" fill-rule="evenodd" clip-rule="evenodd" d="M71 3H7V67H71V3ZM4 0V70H74V0H4Z" fill="white"/>
<path id="Rectangle 24 (Stroke)" fill-rule="evenodd" clip-rule="evenodd" d="M106 35H42V99H106V35ZM39 32V102H109V32H39Z" fill="white"/>
<g id="=3">
<g id="Group">
<g id="Group_2">
<path id="Vector" d="M133 45.5152C133 45.0106 133.272 44.6225 133.815 44.3508H170.904C171.486 44.6613 171.777 45.0495 171.777 45.5152C171.777 45.9422 171.506 46.311 170.962 46.6215L152.447 46.6797H133.932C133.311 46.4857 133 46.0975 133 45.5152ZM133 56.8107C133 56.2285 133.311 55.8403 133.932 55.6463H170.962C171.506 56.0344 171.777 56.4226 171.777 56.8107C171.777 57.3153 171.486 57.7035 170.904 57.9752H133.815C133.272 57.7035 133 57.3153 133 56.8107Z" fill="white"/>
</g>
<g id="Group_3">
<path id="Vector_2" d="M198.607 38.7613C197.559 38.7613 196.744 38.4313 196.162 37.7715C195.579 37.1116 195.269 36.2576 195.23 35.2096C195.23 33.0747 196.162 31.1727 198.025 29.5036C199.888 27.8345 202.139 27 204.779 27C206.137 27 206.991 27.0194 207.341 27.0582C210.213 27.524 212.406 28.5526 213.92 30.1441C215.434 31.7356 216.21 33.4629 216.249 35.3261C216.249 37.3445 215.589 39.3047 214.269 41.2067C212.95 43.1087 211.125 44.4867 208.796 45.3406L208.622 45.4571C208.622 45.4959 208.796 45.5541 209.146 45.6317C209.495 45.7094 210.058 45.884 210.834 46.1557C211.61 46.4275 212.348 46.835 213.047 47.3785C216.229 49.4357 217.821 52.1528 217.821 55.5298C217.821 58.5963 216.618 61.2746 214.211 63.5648C211.804 65.8549 208.757 67 205.07 67C201.965 67 199.286 66.1655 197.035 64.4964C194.784 62.8273 193.658 60.7118 193.658 58.1499C193.658 57.0631 194.007 56.1897 194.706 55.5298C195.405 54.87 196.278 54.5206 197.326 54.4818C198.413 54.4818 199.306 54.8312 200.004 55.5298C200.703 56.2285 201.052 57.1019 201.052 58.1499C201.052 58.5769 200.994 58.9651 200.878 59.3144C200.761 59.6638 200.625 59.9743 200.47 60.246C200.315 60.5177 200.101 60.7506 199.83 60.9447C199.558 61.1388 199.325 61.294 199.131 61.4105C198.937 61.5269 198.743 61.6046 198.549 61.6434C198.355 61.6822 198.199 61.7404 198.083 61.818L197.85 61.8763C199.83 63.623 202.236 64.4964 205.07 64.4964C207.205 64.4964 208.816 63.4677 209.902 61.4105C210.562 60.1295 210.892 58.1693 210.892 55.5298V54.3654C210.892 50.6778 209.65 48.213 207.166 46.9709C206.584 46.738 205.4 46.6021 203.614 46.5633L201.169 46.5051L200.994 46.3886C200.917 46.2722 200.878 45.9617 200.878 45.4571C200.878 44.7584 201.033 44.409 201.343 44.409C202.43 44.409 203.556 44.312 204.72 44.1179C206.04 43.9238 207.244 43.1087 208.33 41.6725C209.417 40.2363 209.961 38.0626 209.961 35.1514V34.6856C209.961 32.4731 209.281 30.9398 207.923 30.0859C207.069 29.5425 206.157 29.2707 205.186 29.2707C203.944 29.2707 202.799 29.4842 201.751 29.9112C200.703 30.3382 199.966 30.7846 199.539 31.2504C199.112 31.7162 198.898 31.9491 198.898 31.9491H199.073C199.189 31.9879 199.344 32.0267 199.539 32.0655C199.733 32.1043 199.927 32.2014 200.121 32.3566C200.315 32.5119 200.548 32.6477 200.819 32.7642C201.091 32.8806 201.285 33.0941 201.402 33.4047C201.518 33.7152 201.673 34.0063 201.868 34.278C202.062 34.5497 202.12 34.9379 202.042 35.4425C202.042 36.2965 201.77 37.0534 201.227 37.7132C200.684 38.3731 199.81 38.7225 198.607 38.7613Z" fill="white"/>
</g>
</g>
</g>
</g>
<g id="Group 78">
<path id="Rectangle 25 (Stroke)" fill-rule="evenodd" clip-rule="evenodd" d="M67 188H3V252H67V188ZM0 185V255H70V185H0Z" fill="white"/>
<path id="Rectangle 26 (Stroke)" fill-rule="evenodd" clip-rule="evenodd" d="M102 223H38V287H102V223ZM35 220V290H105V220H35Z" fill="white"/>
<path id="Rectangle 27 (Stroke)" fill-rule="evenodd" clip-rule="evenodd" d="M137 258H73V322H137V258ZM70 255V325H140V255H70Z" fill="white"/>
<g id="=7">
<g id="Group_4">
<g id="Group_5">
<path id="Vector_3" d="M171 238.854C171 238.357 171.267 237.975 171.802 237.708H208.307C208.88 238.013 209.166 238.395 209.166 238.854C209.166 239.274 208.899 239.637 208.364 239.943L190.14 240H171.917C171.306 239.809 171 239.427 171 238.854ZM171 249.971C171 249.398 171.306 249.016 171.917 248.825H208.364C208.899 249.207 209.166 249.589 209.166 249.971C209.166 250.468 208.88 250.85 208.307 251.118H171.802C171.267 250.85 171 250.468 171 249.971Z" fill="white"/>
</g>
<g id="Group_6">
<path id="Vector_4" d="M231.447 232.493C231.485 232.416 231.81 230.334 232.421 226.246L233.338 220.115C233.338 220.038 233.72 220 234.484 220H235.63V220.229C235.63 220.611 235.917 220.936 236.49 221.203C237.063 221.471 238.056 221.643 239.47 221.719C240.883 221.796 244.112 221.834 249.155 221.834H256.089V224.069L252.192 229.398C251.848 229.857 251.275 230.621 250.473 231.691C249.67 232.76 249.155 233.467 248.925 233.811C248.696 234.155 248.295 234.766 247.722 235.645C247.149 236.523 246.767 237.211 246.576 237.708C246.385 238.204 246.117 238.911 245.774 239.828C245.43 240.745 245.181 241.624 245.029 242.464C244.876 243.305 244.723 244.336 244.57 245.559C244.417 246.781 244.303 248.08 244.226 249.456C244.15 250.831 244.093 252.397 244.054 254.155C244.054 254.69 244.054 255.224 244.054 255.759C244.054 256.294 244.035 256.753 243.997 257.135V257.65C243.844 258.3 243.481 258.854 242.908 259.312C242.335 259.771 241.686 260 240.96 260C240.54 260 240.138 259.943 239.756 259.828C239.374 259.713 238.973 259.351 238.553 258.739C238.133 258.128 237.923 257.364 237.923 256.447C237.923 250.411 239.776 244.145 243.481 237.65C244.245 236.428 245.85 234.117 248.295 230.716L250.931 227.106H245.602C238.954 227.106 235.458 227.221 235.115 227.45C234.885 227.564 234.675 228.023 234.484 228.825C234.293 229.628 234.102 230.449 233.911 231.289L233.739 232.493V232.665H231.447V232.493Z" fill="white"/>
</g>
</g>
</g>
</g>
<g id="Group 76">
<path id="Rectangle 22 (Stroke)" fill-rule="evenodd" clip-rule="evenodd" d="M67 395H3V459H67V395ZM0 392V462H70V392H0Z" fill="white"/>
<path id="Rectangle 23 (Stroke)_2" fill-rule="evenodd" clip-rule="evenodd" d="M102 428H38V492H102V428ZM35 425V495H105V425H35Z" fill="white"/>
<path id="Rectangle 24 (Stroke)_2" fill-rule="evenodd" clip-rule="evenodd" d="M137 463H73V527H137V463ZM70 460V530H140V460H70Z" fill="white"/>
<path id="Rectangle 25 (Stroke)_2" fill-rule="evenodd" clip-rule="evenodd" d="M168 498H104V562H168V498ZM101 495V565H171V495H101Z" fill="white"/>
<g id="=11">
<g id="Group_7">
<g id="Group_8">
<path id="Vector_5" d="M194 458.159C194 457.639 194.28 457.238 194.841 456.958H233.099C233.7 457.278 234 457.679 234 458.159C234 458.6 233.72 458.98 233.159 459.3L214.06 459.36H194.961C194.32 459.16 194 458.76 194 458.159ZM194 469.811C194 469.21 194.32 468.81 194.961 468.61H233.159C233.72 469.01 234 469.41 234 469.811C234 470.331 233.7 470.732 233.099 471.012H194.841C194.28 470.732 194 470.331 194 469.811Z" fill="white"/>
</g>
<g id="Group_9">
<path id="Vector_6" d="M266.841 444.285L266.06 444.586C265.499 444.786 264.699 444.986 263.658 445.186C262.617 445.386 261.455 445.527 260.174 445.607H259.033V442.844H260.174C262.056 442.764 263.798 442.463 265.399 441.943C267.001 441.422 268.122 440.942 268.763 440.501C269.403 440.061 269.964 439.621 270.444 439.18C270.525 439.06 270.765 439 271.165 439C271.526 439 271.866 439.12 272.186 439.36V457.318L272.246 475.336C272.527 475.617 272.767 475.797 272.967 475.877C273.167 475.957 273.648 476.037 274.408 476.117C275.169 476.197 276.41 476.237 278.132 476.237H279.694V479H279.033C278.192 478.88 275.009 478.82 269.483 478.82C264.038 478.82 260.895 478.88 260.054 479H259.333V476.237H260.895C261.776 476.237 262.537 476.237 263.177 476.237C263.818 476.237 264.318 476.217 264.679 476.177C265.039 476.137 265.359 476.077 265.64 475.997C265.92 475.917 266.08 475.877 266.12 475.877C266.16 475.877 266.28 475.777 266.48 475.577C266.681 475.376 266.801 475.296 266.841 475.336V444.285Z" fill="white"/>
<path id="Vector_7" d="M296.871 444.285L296.09 444.586C295.53 444.786 294.729 444.986 293.688 445.186C292.647 445.386 291.486 445.527 290.204 445.607H289.063V442.844H290.204C292.086 442.764 293.828 442.463 295.429 441.943C297.031 441.422 298.152 440.942 298.793 440.501C299.433 440.061 299.994 439.621 300.475 439.18C300.555 439.06 300.795 439 301.195 439C301.556 439 301.896 439.12 302.216 439.36V457.318L302.276 475.336C302.557 475.617 302.797 475.797 302.997 475.877C303.197 475.957 303.678 476.037 304.438 476.117C305.199 476.197 306.44 476.237 308.162 476.237H309.724V479H309.063C308.222 478.88 305.039 478.82 299.514 478.82C294.068 478.82 290.925 478.88 290.084 479H289.363V476.237H290.925C291.806 476.237 292.567 476.237 293.207 476.237C293.848 476.237 294.348 476.217 294.709 476.177C295.069 476.137 295.389 476.077 295.67 475.997C295.95 475.917 296.11 475.877 296.15 475.877C296.19 475.877 296.31 475.777 296.511 475.577C296.711 475.376 296.831 475.296 296.871 475.336V444.285Z" fill="white"/>
</g>
</g>
</g>
</g>
<g id="=4(2)-5\;&#10;=4(3)-5\;&#10;=4(4)-5">
<g id="Group_10">
<g id="Group 81">
<g id="Group_11">
<path id="Vector_8" d="M246 47.3289C246 46.9562 246.201 46.6695 246.602 46.4689H273.993C274.423 46.6982 274.638 46.9849 274.638 47.3289C274.638 47.6442 274.437 47.9165 274.036 48.1459L260.362 48.1889H246.688C246.229 48.0456 246 47.7589 246 47.3289ZM246 55.6709C246 55.2409 246.229 54.9542 246.688 54.8109H274.036C274.437 55.0976 274.638 55.3842 274.638 55.6709C274.638 56.0436 274.423 56.3302 273.993 56.5309H246.602C246.201 56.3302 246 56.0436 246 55.6709Z" fill="white"/>
</g>
<g id="Group_12">
<path id="Vector_9" d="M308.858 62.2499C308.342 62.1639 306.493 62.1209 303.311 62.1209C299.985 62.1209 298.065 62.1639 297.549 62.2499H297.162V60.2719H298.495C299.068 60.2719 299.455 60.2719 299.656 60.2719C299.856 60.2719 300.1 60.2432 300.387 60.1859C300.673 60.1285 300.874 60.0569 300.989 59.9709C301.103 59.8849 301.204 59.7702 301.29 59.6269C301.318 59.5695 301.333 58.7955 301.333 57.3049V55.1549H290.196V53.1769L296.689 43.2439C301.075 36.5932 303.296 33.2535 303.354 33.2249C303.411 33.1675 303.712 33.1389 304.257 33.1389H305.031L305.289 33.3969V53.1769H309.245V55.1549H305.289V57.3479C305.289 58.5232 305.289 59.2112 305.289 59.4119C305.289 59.6125 305.375 59.7845 305.547 59.9279C305.776 60.1285 306.593 60.2432 307.998 60.2719H309.245V62.2499H308.858ZM301.591 53.1769V38.8149L292.174 53.1339L296.861 53.1769H301.591Z" fill="white"/>
</g>
<g id="Group_13">
<path id="Vector_10" d="M314.534 51.5C314.534 49.522 314.677 47.6443 314.964 45.867C315.25 44.0897 315.58 42.556 315.953 41.266C316.325 39.976 316.856 38.7147 317.544 37.482C318.232 36.2493 318.776 35.289 319.178 34.601C319.579 33.913 320.181 33.1677 320.984 32.365C321.786 31.5623 322.259 31.075 322.403 30.903C322.546 30.731 322.904 30.43 323.478 30H324.037H324.209C324.61 30 324.811 30.129 324.811 30.387C324.811 30.473 324.567 30.774 324.08 31.29C323.592 31.806 323.005 32.5657 322.317 33.569C321.629 34.5723 320.926 35.805 320.21 37.267C319.493 38.729 318.891 40.707 318.404 43.201C317.916 45.695 317.673 48.4613 317.673 51.5C317.673 54.5387 317.916 57.2907 318.404 59.756C318.891 62.2213 319.479 64.2137 320.167 65.733C320.855 67.2523 321.557 68.485 322.274 69.431C322.99 70.377 323.592 71.1367 324.08 71.71C324.567 72.2833 324.811 72.5843 324.811 72.613C324.811 72.871 324.596 73 324.166 73H324.037H323.478L322.274 71.968C319.579 69.5313 317.615 66.4927 316.383 62.852C315.15 59.2113 314.534 55.4273 314.534 51.5Z" fill="white"/>
</g>
<g id="Group_14">
<path id="Vector_11" d="M331.905 43.8029C331.131 43.8029 330.515 43.5449 330.056 43.0289C329.598 42.5129 329.368 41.8822 329.368 41.1369C329.368 39.1015 330.128 37.3385 331.647 35.8479C333.167 34.3572 335.059 33.6119 337.323 33.6119C339.932 33.6119 342.111 34.4145 343.859 36.0199C345.608 37.6252 346.497 39.7035 346.525 42.2549C346.525 43.4875 346.239 44.6629 345.665 45.7809C345.092 46.8989 344.404 47.8735 343.601 48.7049C342.799 49.5362 341.652 50.5969 340.161 51.8869C339.129 52.7755 337.696 54.0942 335.861 55.8429L333.324 58.2509L336.592 58.2939C341.093 58.2939 343.487 58.2222 343.773 58.0789C343.974 58.0215 344.318 56.7459 344.805 54.2519V54.1229H346.525V54.2519C346.497 54.3379 346.31 55.6422 345.966 58.1649C345.622 60.6875 345.407 62.0062 345.321 62.1209V62.2499H329.368V61.4329V60.9169C329.368 60.7162 329.454 60.5012 329.626 60.2719C329.798 60.0425 330.228 59.5409 330.916 58.7669C331.748 57.8495 332.464 57.0469 333.066 56.3589C333.324 56.0722 333.812 55.5419 334.528 54.7679C335.245 53.9939 335.732 53.4635 335.99 53.1769C336.248 52.8902 336.664 52.4172 337.237 51.7579C337.811 51.0985 338.212 50.6112 338.441 50.2959C338.671 49.9805 339 49.5505 339.43 49.0059C339.86 48.4612 340.161 48.0025 340.333 47.6299C340.505 47.2572 340.72 46.8415 340.978 46.3829C341.236 45.9242 341.423 45.4655 341.537 45.0069C341.652 44.5482 341.752 44.1182 341.838 43.7169C341.924 43.3155 341.967 42.8425 341.967 42.2979C341.967 40.4919 341.48 38.9295 340.505 37.6109C339.531 36.2922 338.14 35.6329 336.334 35.6329C335.388 35.6329 334.557 35.8765 333.84 36.3639C333.124 36.8512 332.622 37.3242 332.335 37.7829C332.049 38.2415 331.905 38.5139 331.905 38.5999C331.905 38.6285 331.977 38.6429 332.12 38.6429C332.636 38.6429 333.167 38.8435 333.711 39.2449C334.256 39.6462 334.528 40.3055 334.528 41.2229C334.528 41.9395 334.299 42.5415 333.84 43.0289C333.382 43.5162 332.737 43.7742 331.905 43.8029Z" fill="white"/>
</g>
<g id="Group_15">
<path id="Vector_12" d="M351.299 30.043L351.471 30C351.614 30 351.757 30 351.901 30H352.417L353.621 31.032C356.315 33.4687 358.279 36.5073 359.512 40.148C360.744 43.7887 361.361 47.5727 361.361 51.5C361.361 53.4493 361.217 55.327 360.931 57.133C360.644 58.939 360.314 60.4727 359.942 61.734C359.569 62.9953 359.039 64.2567 358.351 65.518C357.663 66.7793 357.118 67.7397 356.717 68.399C356.315 69.0583 355.728 69.7893 354.954 70.592C354.18 71.3947 353.721 71.8677 353.578 72.011C353.434 72.1543 353.105 72.4267 352.589 72.828C352.503 72.914 352.445 72.9713 352.417 73H351.901C351.671 73 351.514 73 351.428 73C351.342 73 351.27 72.957 351.213 72.871C351.155 72.785 351.112 72.656 351.084 72.484C351.112 72.4553 351.27 72.269 351.557 71.925C356 67.3097 358.222 60.5013 358.222 51.5C358.222 42.4987 356 35.6903 351.557 31.075C351.27 30.731 351.112 30.5447 351.084 30.516C351.084 30.2867 351.155 30.129 351.299 30.043Z" fill="white"/>
</g>
<g id="Group_16">
<path id="Vector_13" d="M378.612 52.059C378.612 52.059 378.612 51.8727 378.612 51.5C378.612 51.1273 378.813 50.8407 379.214 50.64H404.197C404.627 50.8693 404.842 51.156 404.842 51.5C404.842 51.844 404.627 52.1307 404.197 52.36H379.214C378.813 52.1593 378.612 51.8727 378.612 51.5V52.059Z" fill="white"/>
</g>
<g id="Group_17">
<path id="Vector_14" d="M425.061 55.499C425.061 56.187 424.831 56.7604 424.373 57.219C423.914 57.6777 423.355 57.907 422.696 57.907H422.395C423.713 60.1717 425.462 61.304 427.641 61.304C429.647 61.304 431.109 60.444 432.027 58.724C432.571 57.778 432.844 55.9434 432.844 53.22C432.844 50.2674 432.457 48.275 431.683 47.243C430.937 46.297 430.106 45.824 429.189 45.824H428.931C426.695 45.824 425.003 46.7987 423.857 48.748C423.742 48.9487 423.642 49.0634 423.556 49.092C423.47 49.1207 423.255 49.1494 422.911 49.178C422.423 49.178 422.151 49.092 422.094 48.92C422.036 48.8054 422.008 46.297 422.008 41.395V35.848C422.008 34.4147 422.079 33.698 422.223 33.698C422.28 33.6407 422.337 33.612 422.395 33.612C422.423 33.612 422.724 33.7267 423.298 33.956C423.871 34.1854 424.659 34.4147 425.663 34.644C426.666 34.8734 427.741 34.988 428.888 34.988C430.923 34.988 432.872 34.5867 434.736 33.784C434.965 33.6694 435.151 33.612 435.295 33.612C435.524 33.612 435.639 33.87 435.639 34.386V34.945C433.288 37.7257 430.35 39.116 426.824 39.116C425.935 39.116 425.132 39.03 424.416 38.858L423.986 38.772V46.168C424.53 45.7667 424.96 45.4514 425.276 45.222C425.591 44.9927 426.107 44.7634 426.824 44.534C427.54 44.3047 428.271 44.19 429.017 44.19C431.339 44.19 433.302 45.1217 434.908 46.985C436.513 48.8484 437.316 51.0557 437.316 53.607C437.316 56.2444 436.398 58.4947 434.564 60.358C432.729 62.2214 430.493 63.1674 427.856 63.196C425.534 63.196 423.67 62.422 422.266 60.874C420.861 59.326 420.159 57.5774 420.159 55.628C420.159 54.94 420.316 54.3954 420.632 53.994C420.947 53.5927 421.277 53.3347 421.621 53.22C421.965 53.1054 422.294 53.048 422.61 53.048C423.326 53.048 423.914 53.2917 424.373 53.779C424.831 54.2664 425.061 54.8397 425.061 55.499Z" fill="white"/>
</g>
</g>
<g id="Group 80">
<g id="Group_18">
<path id="Vector_15" d="M275 243.329C275 242.956 275.201 242.67 275.602 242.469H302.993C303.423 242.698 303.638 242.985 303.638 243.329C303.638 243.644 303.437 243.917 303.036 244.146L289.362 244.189H275.688C275.229 244.046 275 243.759 275 243.329ZM275 251.671C275 251.241 275.229 250.954 275.688 250.811H303.036C303.437 251.098 303.638 251.384 303.638 251.671C303.638 252.044 303.423 252.33 302.993 252.531H275.602C275.201 252.33 275 252.044 275 251.671Z" fill="white"/>
</g>
<g id="Group_19">
<path id="Vector_16" d="M337.857 258.25C337.341 258.164 335.492 258.121 332.31 258.121C328.985 258.121 327.064 258.164 326.548 258.25H326.161V256.272H327.494C328.068 256.272 328.455 256.272 328.655 256.272C328.856 256.272 329.1 256.243 329.386 256.186C329.673 256.129 329.874 256.057 329.988 255.971C330.103 255.885 330.203 255.77 330.289 255.627C330.318 255.57 330.332 254.796 330.332 253.305V251.155H319.195V249.177L325.688 239.244C330.074 232.593 332.296 229.254 332.353 229.225C332.411 229.168 332.712 229.139 333.256 229.139H334.03L334.288 229.397V249.177H338.244V251.155H334.288V253.348C334.288 254.523 334.288 255.211 334.288 255.412C334.288 255.613 334.374 255.785 334.546 255.928C334.776 256.129 335.593 256.243 336.997 256.272H338.244V258.25H337.857ZM330.59 249.177V234.815L321.173 249.134L325.86 249.177H330.59Z" fill="white"/>
</g>
<g id="Group_20">
<path id="Vector_17" d="M343.533 247.5C343.533 245.522 343.677 243.644 343.963 241.867C344.25 240.09 344.58 238.556 344.952 237.266C345.325 235.976 345.855 234.715 346.543 233.482C347.231 232.249 347.776 231.289 348.177 230.601C348.579 229.913 349.181 229.168 349.983 228.365C350.786 227.562 351.259 227.075 351.402 226.903C351.546 226.731 351.904 226.43 352.477 226H353.036H353.208C353.61 226 353.81 226.129 353.81 226.387C353.81 226.473 353.567 226.774 353.079 227.29C352.592 227.806 352.004 228.566 351.316 229.569C350.628 230.572 349.926 231.805 349.209 233.267C348.493 234.729 347.891 236.707 347.403 239.201C346.916 241.695 346.672 244.461 346.672 247.5C346.672 250.539 346.916 253.291 347.403 255.756C347.891 258.221 348.478 260.214 349.166 261.733C349.854 263.252 350.557 264.485 351.273 265.431C351.99 266.377 352.592 267.137 353.079 267.71C353.567 268.283 353.81 268.584 353.81 268.613C353.81 268.871 353.595 269 353.165 269H353.036H352.477L351.273 267.968C348.579 265.531 346.615 262.493 345.382 258.852C344.15 255.211 343.533 251.427 343.533 247.5Z" fill="white"/>
</g>
<g id="Group_21">
<path id="Vector_18" d="M361.679 238.341C360.905 238.341 360.303 238.097 359.873 237.61C359.443 237.123 359.214 236.492 359.185 235.718C359.185 234.141 359.873 232.737 361.249 231.504C362.625 230.271 364.288 229.655 366.237 229.655C367.241 229.655 367.871 229.669 368.129 229.698C370.251 230.042 371.87 230.802 372.988 231.977C374.106 233.152 374.68 234.428 374.708 235.804C374.708 237.295 374.221 238.742 373.246 240.147C372.272 241.552 370.924 242.569 369.204 243.2L369.075 243.286C369.075 243.315 369.204 243.358 369.462 243.415C369.72 243.472 370.136 243.601 370.709 243.802C371.283 244.003 371.827 244.304 372.343 244.705C374.694 246.224 375.869 248.231 375.869 250.725C375.869 252.99 374.981 254.968 373.203 256.659C371.426 258.35 369.176 259.196 366.452 259.196C364.159 259.196 362.181 258.58 360.518 257.347C358.856 256.114 358.024 254.552 358.024 252.66C358.024 251.857 358.282 251.212 358.798 250.725C359.314 250.238 359.959 249.98 360.733 249.951C361.536 249.951 362.195 250.209 362.711 250.725C363.227 251.241 363.485 251.886 363.485 252.66C363.485 252.975 363.442 253.262 363.356 253.52C363.27 253.778 363.17 254.007 363.055 254.208C362.941 254.409 362.783 254.581 362.582 254.724C362.382 254.867 362.21 254.982 362.066 255.068C361.923 255.154 361.78 255.211 361.636 255.24C361.493 255.269 361.378 255.312 361.292 255.369L361.12 255.412C362.582 256.702 364.36 257.347 366.452 257.347C368.029 257.347 369.219 256.587 370.021 255.068C370.509 254.122 370.752 252.674 370.752 250.725V249.865C370.752 247.142 369.835 245.321 368 244.404C367.57 244.232 366.696 244.132 365.377 244.103L363.571 244.06L363.442 243.974C363.385 243.888 363.356 243.659 363.356 243.286C363.356 242.77 363.471 242.512 363.7 242.512C364.503 242.512 365.334 242.44 366.194 242.297C367.169 242.154 368.058 241.552 368.86 240.491C369.663 239.43 370.064 237.825 370.064 235.675V235.331C370.064 233.697 369.563 232.565 368.559 231.934C367.929 231.533 367.255 231.332 366.538 231.332C365.621 231.332 364.775 231.49 364.001 231.805C363.227 232.12 362.683 232.45 362.367 232.794C362.052 233.138 361.894 233.31 361.894 233.31H362.023C362.109 233.339 362.224 233.367 362.367 233.396C362.511 233.425 362.654 233.496 362.797 233.611C362.941 233.726 363.113 233.826 363.313 233.912C363.514 233.998 363.657 234.156 363.743 234.385C363.829 234.614 363.944 234.829 364.087 235.03C364.231 235.231 364.274 235.517 364.216 235.89C364.216 236.521 364.016 237.08 363.614 237.567C363.213 238.054 362.568 238.312 361.679 238.341Z" fill="white"/>
</g>
<g id="Group_22">
<path id="Vector_19" d="M380.298 226.043L380.47 226C380.613 226 380.757 226 380.9 226H381.416L382.62 227.032C385.315 229.469 387.278 232.507 388.511 236.148C389.744 239.789 390.36 243.573 390.36 247.5C390.36 249.449 390.217 251.327 389.93 253.133C389.643 254.939 389.314 256.473 388.941 257.734C388.568 258.995 388.038 260.257 387.35 261.518C386.662 262.779 386.117 263.74 385.716 264.399C385.315 265.058 384.727 265.789 383.953 266.592C383.179 267.395 382.72 267.868 382.577 268.011C382.434 268.154 382.104 268.427 381.588 268.828C381.502 268.914 381.445 268.971 381.416 269H380.9C380.671 269 380.513 269 380.427 269C380.341 269 380.269 268.957 380.212 268.871C380.155 268.785 380.112 268.656 380.083 268.484C380.112 268.455 380.269 268.269 380.556 267.925C384.999 263.31 387.221 256.501 387.221 247.5C387.221 238.499 384.999 231.69 380.556 227.075C380.269 226.731 380.112 226.545 380.083 226.516C380.083 226.287 380.155 226.129 380.298 226.043Z" fill="white"/>
</g>
<g id="Group_23">
<path id="Vector_20" d="M407.612 248.059C407.612 248.059 407.612 247.873 407.612 247.5C407.612 247.127 407.813 246.841 408.214 246.64H433.197C433.627 246.869 433.842 247.156 433.842 247.5C433.842 247.844 433.627 248.131 433.197 248.36H408.214C407.813 248.159 407.612 247.873 407.612 247.5V248.059Z" fill="white"/>
</g>
<g id="Group_24">
<path id="Vector_21" d="M454.06 251.499C454.06 252.187 453.831 252.76 453.372 253.219C452.914 253.678 452.355 253.907 451.695 253.907H451.394C452.713 256.172 454.462 257.304 456.64 257.304C458.647 257.304 460.109 256.444 461.026 254.724C461.571 253.778 461.843 251.943 461.843 249.22C461.843 246.267 461.456 244.275 460.682 243.243C459.937 242.297 459.106 241.824 458.188 241.824H457.93C455.694 241.824 454.003 242.799 452.856 244.748C452.742 244.949 452.641 245.063 452.555 245.092C452.469 245.121 452.254 245.149 451.91 245.178C451.423 245.178 451.151 245.092 451.093 244.92C451.036 244.805 451.007 242.297 451.007 237.395V231.848C451.007 230.415 451.079 229.698 451.222 229.698C451.28 229.641 451.337 229.612 451.394 229.612C451.423 229.612 451.724 229.727 452.297 229.956C452.871 230.185 453.659 230.415 454.662 230.644C455.666 230.873 456.741 230.988 457.887 230.988C459.923 230.988 461.872 230.587 463.735 229.784C463.965 229.669 464.151 229.612 464.294 229.612C464.524 229.612 464.638 229.87 464.638 230.386V230.945C462.288 233.726 459.349 235.116 455.823 235.116C454.935 235.116 454.132 235.03 453.415 234.858L452.985 234.772V242.168C453.53 241.767 453.96 241.451 454.275 241.222C454.591 240.993 455.107 240.763 455.823 240.534C456.54 240.305 457.271 240.19 458.016 240.19C460.338 240.19 462.302 241.122 463.907 242.985C465.513 244.848 466.315 247.056 466.315 249.607C466.315 252.244 465.398 254.495 463.563 256.358C461.729 258.221 459.493 259.167 456.855 259.196C454.533 259.196 452.67 258.422 451.265 256.874C449.861 255.326 449.158 253.577 449.158 251.628C449.158 250.94 449.316 250.395 449.631 249.994C449.947 249.593 450.276 249.335 450.62 249.22C450.964 249.105 451.294 249.048 451.609 249.048C452.326 249.048 452.914 249.292 453.372 249.779C453.831 250.266 454.06 250.84 454.06 251.499Z" fill="white"/>
</g>
</g>
<g id="Group 79">
<g id="Group_25">
<path id="Vector_22" d="M338 461.329C338 460.956 338.201 460.67 338.602 460.469H365.993C366.423 460.698 366.638 460.985 366.638 461.329C366.638 461.644 366.437 461.917 366.036 462.146L352.362 462.189H338.688C338.229 462.046 338 461.759 338 461.329ZM338 469.671C338 469.241 338.229 468.954 338.688 468.811H366.036C366.437 469.098 366.638 469.384 366.638 469.671C366.638 470.044 366.423 470.33 365.993 470.531H338.602C338.201 470.33 338 470.044 338 469.671Z" fill="white"/>
</g>
<g id="Group_26">
<path id="Vector_23" d="M400.853 476.25C400.337 476.164 398.488 476.121 395.306 476.121C391.981 476.121 390.06 476.164 389.544 476.25H389.157V474.272H390.49C391.063 474.272 391.45 474.272 391.651 474.272C391.852 474.272 392.095 474.243 392.382 474.186C392.669 474.129 392.869 474.057 392.984 473.971C393.099 473.885 393.199 473.77 393.285 473.627C393.314 473.57 393.328 472.796 393.328 471.305V469.155H382.191V467.177L388.684 457.244C393.07 450.593 395.292 447.254 395.349 447.225C395.406 447.168 395.707 447.139 396.252 447.139H397.026L397.284 447.397V467.177H401.24V469.155H397.284V471.348C397.284 472.523 397.284 473.211 397.284 473.412C397.284 473.613 397.37 473.785 397.542 473.928C397.771 474.129 398.588 474.243 399.993 474.272H401.24V476.25H400.853ZM393.586 467.177V452.815L384.169 467.134L388.856 467.177H393.586Z" fill="white"/>
</g>
<g id="Group_27">
<path id="Vector_24" d="M406.529 465.5C406.529 463.522 406.672 461.644 406.959 459.867C407.246 458.09 407.575 456.556 407.948 455.266C408.321 453.976 408.851 452.715 409.539 451.482C410.227 450.249 410.772 449.289 411.173 448.601C411.574 447.913 412.176 447.168 412.979 446.365C413.782 445.562 414.255 445.075 414.398 444.903C414.541 444.731 414.9 444.43 415.473 444H416.032H416.204C416.605 444 416.806 444.129 416.806 444.387C416.806 444.473 416.562 444.774 416.075 445.29C415.588 445.806 415 446.566 414.312 447.569C413.624 448.572 412.922 449.805 412.205 451.267C411.488 452.729 410.886 454.707 410.399 457.201C409.912 459.695 409.668 462.461 409.668 465.5C409.668 468.539 409.912 471.291 410.399 473.756C410.886 476.221 411.474 478.214 412.162 479.733C412.85 481.252 413.552 482.485 414.269 483.431C414.986 484.377 415.588 485.137 416.075 485.71C416.562 486.283 416.806 486.584 416.806 486.613C416.806 486.871 416.591 487 416.161 487H416.032H415.473L414.269 485.968C411.574 483.531 409.611 480.493 408.378 476.852C407.145 473.211 406.529 469.427 406.529 465.5Z" fill="white"/>
</g>
<g id="Group_28">
<path id="Vector_25" d="M439.08 476.25C438.564 476.164 436.715 476.121 433.533 476.121C430.208 476.121 428.287 476.164 427.771 476.25H427.384V474.272H428.717C429.29 474.272 429.677 474.272 429.878 474.272C430.079 474.272 430.322 474.243 430.609 474.186C430.896 474.129 431.096 474.057 431.211 473.971C431.326 473.885 431.426 473.77 431.512 473.627C431.541 473.57 431.555 472.796 431.555 471.305V469.155H420.418V467.177L426.911 457.244C431.297 450.593 433.519 447.254 433.576 447.225C433.633 447.168 433.934 447.139 434.479 447.139H435.253L435.511 447.397V467.177H439.467V469.155H435.511V471.348C435.511 472.523 435.511 473.211 435.511 473.412C435.511 473.613 435.597 473.785 435.769 473.928C435.998 474.129 436.815 474.243 438.22 474.272H439.467V476.25H439.08ZM431.813 467.177V452.815L422.396 467.134L427.083 467.177H431.813Z" fill="white"/>
</g>
<g id="Group_29">
<path id="Vector_26" d="M443.294 444.043L443.466 444C443.609 444 443.753 444 443.896 444H444.412L445.616 445.032C448.311 447.469 450.274 450.507 451.507 454.148C452.74 457.789 453.356 461.573 453.356 465.5C453.356 467.449 453.213 469.327 452.926 471.133C452.639 472.939 452.31 474.473 451.937 475.734C451.564 476.995 451.034 478.257 450.346 479.518C449.658 480.779 449.113 481.74 448.712 482.399C448.311 483.058 447.723 483.789 446.949 484.592C446.175 485.395 445.716 485.868 445.573 486.011C445.43 486.154 445.1 486.427 444.584 486.828C444.498 486.914 444.441 486.971 444.412 487H443.896C443.667 487 443.509 487 443.423 487C443.337 487 443.265 486.957 443.208 486.871C443.151 486.785 443.108 486.656 443.079 486.484C443.108 486.455 443.265 486.269 443.552 485.925C447.995 481.31 450.217 474.501 450.217 465.5C450.217 456.499 447.995 449.69 443.552 445.075C443.265 444.731 443.108 444.545 443.079 444.516C443.079 444.287 443.151 444.129 443.294 444.043Z" fill="white"/>
</g>
<g id="Group_30">
<path id="Vector_27" d="M470.612 466.059C470.612 466.059 470.612 465.873 470.612 465.5C470.612 465.127 470.812 464.841 471.214 464.64H496.197C496.627 464.869 496.842 465.156 496.842 465.5C496.842 465.844 496.627 466.131 496.197 466.36H471.214C470.812 466.159 470.612 465.873 470.612 465.5V466.059Z" fill="white"/>
</g>
<g id="Group_31">
<path id="Vector_28" d="M517.061 469.499C517.061 470.187 516.831 470.76 516.373 471.219C515.914 471.678 515.355 471.907 514.696 471.907H514.395C515.713 474.172 517.462 475.304 519.641 475.304C521.647 475.304 523.109 474.444 524.027 472.724C524.571 471.778 524.844 469.943 524.844 467.22C524.844 464.267 524.457 462.275 523.683 461.243C522.937 460.297 522.106 459.824 521.189 459.824H520.931C518.695 459.824 517.003 460.799 515.857 462.748C515.742 462.949 515.642 463.063 515.556 463.092C515.47 463.121 515.255 463.149 514.911 463.178C514.423 463.178 514.151 463.092 514.094 462.92C514.036 462.805 514.008 460.297 514.008 455.395V449.848C514.008 448.415 514.079 447.698 514.223 447.698C514.28 447.641 514.337 447.612 514.395 447.612C514.423 447.612 514.724 447.727 515.298 447.956C515.871 448.185 516.659 448.415 517.663 448.644C518.666 448.873 519.741 448.988 520.888 448.988C522.923 448.988 524.872 448.587 526.736 447.784C526.965 447.669 527.151 447.612 527.295 447.612C527.524 447.612 527.639 447.87 527.639 448.386V448.945C525.288 451.726 522.35 453.116 518.824 453.116C517.935 453.116 517.132 453.03 516.416 452.858L515.986 452.772V460.168C516.53 459.767 516.96 459.451 517.276 459.222C517.591 458.993 518.107 458.763 518.824 458.534C519.54 458.305 520.271 458.19 521.017 458.19C523.339 458.19 525.302 459.122 526.908 460.985C528.513 462.848 529.316 465.056 529.316 467.607C529.316 470.244 528.398 472.495 526.564 474.358C524.729 476.221 522.493 477.167 519.856 477.196C517.534 477.196 515.67 476.422 514.266 474.874C512.861 473.326 512.159 471.577 512.159 469.628C512.159 468.94 512.316 468.395 512.632 467.994C512.947 467.593 513.277 467.335 513.621 467.22C513.965 467.105 514.294 467.048 514.61 467.048C515.326 467.048 515.914 467.292 516.373 467.779C516.831 468.266 517.061 468.84 517.061 469.499Z" fill="white"/>
</g>
</g>
</g>
</g>
</g>
<path id="Line 10 (Stroke)" fill-rule="evenodd" clip-rule="evenodd" d="M576 9L576 509.016H571L571 9H576Z" fill="#CD08D1"/>
<g id="\therefore\;T_n=4n-5">
<g id="Group_32">
<g id="Group_33">
<path id="Vector_29" d="M617.44 239.153C617.44 238.426 617.691 237.825 618.195 237.35C618.698 236.875 619.299 236.637 619.997 236.637C620.668 236.637 621.241 236.875 621.717 237.35C622.192 237.825 622.443 238.426 622.471 239.153C622.499 239.879 622.262 240.48 621.758 240.956C621.255 241.431 620.654 241.668 619.956 241.668C619.229 241.668 618.628 241.431 618.153 240.956C617.678 240.48 617.44 239.879 617.44 239.153ZM609.516 254.792C610.242 254.792 610.829 255.029 611.277 255.504C611.724 255.98 611.961 256.58 611.989 257.307C611.989 257.978 611.766 258.565 611.319 259.068C610.871 259.571 610.256 259.823 609.474 259.823C608.747 259.823 608.16 259.585 607.713 259.11C607.266 258.635 607.028 258.034 607 257.307C607 256.58 607.238 255.98 607.713 255.504C608.188 255.029 608.789 254.792 609.516 254.792ZM627.964 257.307C627.964 256.58 628.201 255.98 628.676 255.504C629.152 255.029 629.753 254.792 630.479 254.792C631.15 254.792 631.723 255.029 632.198 255.504C632.674 255.98 632.925 256.58 632.953 257.307C632.953 257.95 632.729 258.523 632.282 259.026C631.835 259.529 631.22 259.795 630.437 259.823C629.711 259.823 629.124 259.585 628.676 259.11C628.229 258.635 627.992 258.034 627.964 257.307Z" fill="white"/>
</g>
<g id="Group_34">
<g id="Group_35">
<path id="Vector_30" d="M658.931 238.063C658.4 238.063 658.135 237.951 658.135 237.727C658.135 237.587 658.358 236.805 658.805 235.379C659.253 233.954 659.728 232.542 660.231 231.145L660.944 229.09C661.083 228.587 661.265 228.224 661.489 228H681.111H684.884C685.779 228 686.31 228.014 686.477 228.042C686.645 228.07 686.743 228.196 686.771 228.419C686.771 228.587 686.533 230.18 686.058 233.199C685.583 236.218 685.317 237.741 685.262 237.769C685.262 237.965 684.996 238.063 684.465 238.063C684.213 238.063 684.046 238.063 683.962 238.063C683.878 238.063 683.794 237.993 683.71 237.853L683.626 237.727C683.626 237.56 683.71 236.931 683.878 235.84C684.046 234.75 684.129 233.898 684.129 233.283C684.129 232.305 683.948 231.564 683.584 231.061C683.221 230.558 682.452 230.208 681.278 230.013C681.139 229.985 680.328 229.957 678.847 229.929C677.561 229.929 676.75 229.943 676.415 229.971C676.079 229.999 675.828 230.11 675.66 230.306C675.632 230.334 674.64 234.233 672.683 242.004C670.727 249.774 669.748 253.729 669.748 253.869C669.748 254.205 670.978 254.4 673.438 254.456C674.332 254.456 674.905 254.47 675.157 254.498C675.409 254.526 675.534 254.652 675.534 254.876C675.534 255.015 675.492 255.211 675.409 255.462C675.297 255.966 675.171 256.259 675.031 256.343L674.947 256.385C674.864 256.385 674.766 256.385 674.654 256.385C674.514 256.385 673.787 256.371 672.474 256.343C671.16 256.315 669.273 256.301 666.813 256.301C663.208 256.301 660.916 256.329 659.937 256.385H659.308C659.141 256.217 659.057 256.091 659.057 256.008C659.057 255.924 659.085 255.672 659.141 255.253C659.253 254.889 659.392 254.624 659.56 254.456H660.734H661.195C663.431 254.456 664.759 254.33 665.178 254.079C665.206 254.051 665.234 254.037 665.262 254.037C665.402 253.953 665.542 253.674 665.681 253.198C665.821 252.723 666.38 250.529 667.359 246.616C667.834 244.715 668.225 243.164 668.533 241.962C670.489 234.275 671.467 230.348 671.467 230.18C671.467 230.041 671.062 229.971 670.252 229.971H668.952C667.079 229.971 665.849 230.055 665.262 230.222C664.004 230.502 663.026 231.075 662.327 231.941C661.628 232.808 660.874 234.429 660.063 236.805C659.868 237.42 659.728 237.783 659.644 237.895C659.56 238.007 659.364 238.063 659.057 238.063H658.931Z" fill="white"/>
</g>
<g id="Group_36">
<path id="Vector_31" d="M682.362 254.166C682.382 254.048 682.412 253.89 682.451 253.692C682.491 253.495 682.609 253.119 682.807 252.566C683.004 252.012 683.202 251.548 683.4 251.173C683.597 250.797 683.923 250.432 684.378 250.076C684.832 249.72 685.287 249.552 685.741 249.572C686.453 249.572 687.046 249.75 687.52 250.105C687.994 250.461 688.291 250.797 688.409 251.113C688.528 251.429 688.587 251.637 688.587 251.736C688.587 251.775 688.597 251.795 688.617 251.795L688.943 251.469C690.148 250.204 691.522 249.572 693.063 249.572C694.13 249.572 694.99 249.839 695.642 250.372C696.294 250.906 696.63 251.686 696.65 252.714C696.67 253.742 696.294 255.293 695.524 257.368C694.753 259.443 694.377 260.698 694.397 261.133C694.397 261.646 694.565 261.903 694.901 261.903C695.02 261.903 695.109 261.893 695.168 261.874C695.741 261.775 696.255 261.399 696.709 260.747C697.164 260.095 697.51 259.305 697.747 258.376C697.786 258.218 697.984 258.139 698.34 258.139C698.735 258.139 698.932 258.218 698.932 258.376C698.932 258.396 698.893 258.544 698.814 258.82C698.656 259.393 698.438 259.957 698.162 260.51C697.885 261.063 697.431 261.617 696.798 262.17C696.166 262.723 695.484 262.99 694.753 262.97C693.824 262.97 693.152 262.704 692.737 262.17C692.322 261.636 692.115 261.083 692.115 260.51C692.115 260.135 692.47 258.949 693.182 256.953C693.893 254.957 694.259 253.455 694.279 252.447C694.279 251.281 693.844 250.698 692.974 250.698H692.826C691.127 250.698 689.694 251.696 688.528 253.692L688.32 254.048L687.342 258.02C686.69 260.609 686.315 262.002 686.216 262.2C685.959 262.733 685.534 263 684.941 263C684.684 263 684.477 262.941 684.319 262.822C684.161 262.704 684.052 262.585 683.993 262.466C683.933 262.348 683.913 262.249 683.933 262.17C683.933 261.913 684.309 260.303 685.06 257.338C685.811 254.374 686.206 252.763 686.245 252.507C686.265 252.408 686.275 252.18 686.275 251.825C686.275 251.054 686.038 250.669 685.564 250.669C684.813 250.669 684.19 251.657 683.696 253.633C683.578 254.028 683.518 254.236 683.518 254.255C683.479 254.374 683.291 254.433 682.955 254.433H682.54C682.421 254.315 682.362 254.226 682.362 254.166Z" fill="white"/>
</g>
</g>
<g id="Group_37">
<path id="Vector_32" d="M715.617 241.836C715.617 241.473 715.813 241.193 716.204 240.997H742.912C743.331 241.221 743.541 241.501 743.541 241.836C743.541 242.143 743.345 242.409 742.954 242.633L729.621 242.675H716.288C715.841 242.535 715.617 242.255 715.617 241.836ZM715.617 249.97C715.617 249.551 715.841 249.271 716.288 249.131H742.954C743.345 249.411 743.541 249.69 743.541 249.97C743.541 250.333 743.331 250.613 742.912 250.808H716.204C715.813 250.613 715.617 250.333 715.617 249.97Z" fill="white"/>
</g>
<g id="Group_38">
<path id="Vector_33" d="M776.907 256.385C776.403 256.301 774.601 256.259 771.498 256.259C768.256 256.259 766.383 256.301 765.88 256.385H765.502V254.456H766.802C767.361 254.456 767.738 254.456 767.934 254.456C768.13 254.456 768.367 254.428 768.647 254.372C768.926 254.316 769.122 254.247 769.234 254.163C769.346 254.079 769.443 253.967 769.527 253.827C769.555 253.771 769.569 253.017 769.569 251.563V249.467H758.71V247.538L765.041 237.853C769.318 231.368 771.484 228.112 771.54 228.084C771.596 228.028 771.889 228 772.42 228H773.175L773.427 228.252V247.538H777.284V249.467H773.427V251.605C773.427 252.751 773.427 253.422 773.427 253.618C773.427 253.813 773.51 253.981 773.678 254.121C773.902 254.316 774.698 254.428 776.068 254.456H777.284V256.385H776.907ZM769.821 247.538V233.534L760.639 247.496L765.209 247.538H769.821Z" fill="white"/>
</g>
<g id="Group_39">
<path id="Vector_34" d="M779.38 244.352C779.408 244.184 779.45 243.96 779.506 243.681C779.562 243.401 779.73 242.87 780.009 242.088C780.289 241.305 780.568 240.648 780.848 240.117C781.127 239.586 781.588 239.069 782.231 238.566C782.874 238.062 783.517 237.825 784.16 237.853C785.166 237.853 786.005 238.104 786.675 238.608C787.346 239.111 787.766 239.586 787.933 240.033C788.101 240.48 788.185 240.774 788.185 240.914C788.185 240.969 788.199 240.997 788.227 240.997L788.688 240.536C790.393 238.747 792.336 237.853 794.516 237.853C796.025 237.853 797.241 238.23 798.164 238.985C799.086 239.74 799.561 240.844 799.589 242.297C799.617 243.751 799.086 245.945 797.996 248.88C796.906 251.815 796.375 253.59 796.403 254.205C796.403 254.931 796.64 255.295 797.115 255.295C797.283 255.295 797.409 255.281 797.493 255.253C798.303 255.113 799.03 254.582 799.673 253.659C800.316 252.737 800.805 251.619 801.14 250.305C801.196 250.082 801.476 249.97 801.979 249.97C802.538 249.97 802.818 250.082 802.818 250.305C802.818 250.333 802.762 250.543 802.65 250.934C802.426 251.745 802.119 252.541 801.727 253.324C801.336 254.107 800.693 254.889 799.799 255.672C798.904 256.455 797.94 256.832 796.906 256.804C795.592 256.804 794.642 256.427 794.055 255.672C793.468 254.917 793.174 254.135 793.174 253.324C793.174 252.793 793.677 251.116 794.684 248.293C795.69 245.47 796.207 243.345 796.235 241.92C796.235 240.271 795.62 239.446 794.39 239.446H794.18C791.777 239.446 789.75 240.858 788.101 243.681L787.808 244.184L786.424 249.802C785.502 253.464 784.97 255.434 784.831 255.714C784.467 256.469 783.866 256.846 783.028 256.846C782.664 256.846 782.371 256.762 782.147 256.594C781.924 256.427 781.77 256.259 781.686 256.091C781.602 255.924 781.574 255.784 781.602 255.672C781.602 255.309 782.133 253.031 783.196 248.838C784.258 244.645 784.817 242.367 784.873 242.004C784.901 241.864 784.915 241.542 784.915 241.039C784.915 239.949 784.579 239.404 783.908 239.404C782.846 239.404 781.966 240.802 781.267 243.597C781.099 244.156 781.015 244.449 781.015 244.477C780.959 244.645 780.694 244.729 780.219 244.729H779.632C779.464 244.561 779.38 244.435 779.38 244.352Z" fill="white"/>
</g>
<g id="Group_40">
<path id="Vector_35" d="M816.494 246.448C816.494 246.448 816.494 246.266 816.494 245.903C816.494 245.54 816.69 245.26 817.081 245.064H841.441C841.86 245.288 842.07 245.568 842.07 245.903C842.07 246.238 841.86 246.518 841.441 246.742H817.081C816.69 246.546 816.494 246.266 816.494 245.903V246.448Z" fill="white"/>
</g>
<g id="Group_41">
<path id="Vector_36" d="M861.784 249.802C861.784 250.473 861.561 251.032 861.113 251.479C860.666 251.926 860.121 252.15 859.478 252.15H859.185C860.471 254.358 862.176 255.462 864.3 255.462C866.256 255.462 867.682 254.624 868.576 252.947C869.108 252.024 869.373 250.235 869.373 247.58C869.373 244.701 868.996 242.758 868.241 241.752C867.514 240.83 866.704 240.368 865.809 240.368H865.558C863.377 240.368 861.728 241.319 860.61 243.22C860.498 243.415 860.401 243.527 860.317 243.555C860.233 243.583 860.023 243.611 859.688 243.639C859.213 243.639 858.947 243.555 858.891 243.387C858.835 243.275 858.807 240.83 858.807 236.05V230.641C858.807 229.244 858.877 228.545 859.017 228.545C859.073 228.489 859.129 228.461 859.185 228.461C859.213 228.461 859.506 228.573 860.065 228.797C860.624 229.02 861.393 229.244 862.371 229.467C863.35 229.691 864.398 229.803 865.516 229.803C867.5 229.803 869.401 229.411 871.218 228.629C871.442 228.517 871.623 228.461 871.763 228.461C871.987 228.461 872.098 228.713 872.098 229.216V229.761C869.806 232.472 866.941 233.828 863.503 233.828C862.637 233.828 861.854 233.744 861.155 233.576L860.736 233.492V240.704C861.267 240.313 861.686 240.005 861.994 239.781C862.301 239.558 862.804 239.334 863.503 239.111C864.202 238.887 864.915 238.775 865.642 238.775C867.906 238.775 869.82 239.684 871.386 241.501C872.951 243.317 873.734 245.47 873.734 247.957C873.734 250.529 872.839 252.723 871.05 254.54C869.261 256.357 867.081 257.279 864.51 257.307C862.245 257.307 860.429 256.552 859.059 255.043C857.689 253.534 857.005 251.829 857.005 249.928C857.005 249.257 857.158 248.726 857.466 248.335C857.773 247.943 858.095 247.692 858.43 247.58C858.765 247.468 859.087 247.412 859.394 247.412C860.093 247.412 860.666 247.65 861.113 248.125C861.561 248.6 861.784 249.159 861.784 249.802Z" fill="white"/>
</g>
</g>
</g>
</g>
</svg>
