<svg viewBox="0 0 990 914" fill="none" xmlns="http://www.w3.org/2000/svg">
<g id="0127126">
<g id="enunciado">
<g id="Group 71">
<path id="Rectangle 1" d="M1 91.1673C1 43.3745 25.0058 4.63086 54.6184 4.63086H979V603.463C979 651.256 954.994 690 925.382 690H1V91.1673Z" fill="#02071A"/>
<path id="Rectangle 1 (Stroke)" fill-rule="evenodd" clip-rule="evenodd" d="M973.638 13.2136H54.6184C27.9671 13.2136 6.36184 48.0866 6.36184 91.1046V681.345H925.382C952.033 681.345 973.638 646.472 973.638 603.454V13.2136ZM54.6184 4.55908C25.0058 4.55908 1 43.3068 1 91.1046V689.999H925.382C954.994 689.999 979 651.252 979 603.454V4.55908H54.6184Z" fill="#CD08D1"/>
<path id="Rectangle 14" d="M59.0687 4.78656C87.7464 -5.9832 979 4.78656 979 4.78656V51.4111C979 51.4111 43.8947 34.2741 10.6513 51.4111C20.9951 26.6821 30.3909 15.5563 59.0687 4.78656Z" fill="#CD08D1"/>
<path id="Rectangle 15" d="M945.064 14.8184H976.944V605.246C973.031 645.314 964.92 660.04 945.064 679.262C950.908 647.784 945.064 14.8184 945.064 14.8184Z" fill="#CD08D1"/>
</g>
<g id="Indique cu&#195;&#161;les son las vistas ortogonales (horizontal, frontal y perfil) del s&#195;&#179;lido mostrado">
<path d="M22.5918 104H19.2168V78.4062H22.5918V104Z" fill="white"/>
<path d="M31.3457 84.9805L31.4512 87.3711C32.9043 85.543 34.8027 84.6289 37.1465 84.6289C41.166 84.6289 43.1934 86.8965 43.2285 91.4316V104H39.9766V91.4141C39.9648 90.043 39.6484 89.0293 39.0273 88.373C38.418 87.7168 37.4629 87.3887 36.1621 87.3887C35.1074 87.3887 34.1816 87.6699 33.3848 88.2324C32.5879 88.7949 31.9668 89.5332 31.5215 90.4473V104H28.2695V84.9805H31.3457Z" fill="white"/>
<path d="M47.3418 94.332C47.3418 91.4141 48.0332 89.0703 49.416 87.3008C50.7988 85.5195 52.6094 84.6289 54.8477 84.6289C57.0742 84.6289 58.8379 85.3906 60.1387 86.9141V77H63.3906V104H60.4023L60.2441 101.961C58.9434 103.555 57.1328 104.352 54.8125 104.352C52.6094 104.352 50.8105 103.449 49.416 101.645C48.0332 99.8398 47.3418 97.4844 47.3418 94.5781V94.332ZM50.5938 94.7012C50.5938 96.8574 51.0391 98.5449 51.9297 99.7637C52.8203 100.982 54.0508 101.592 55.6211 101.592C57.6836 101.592 59.1895 100.666 60.1387 98.8145V90.0781C59.166 88.2852 57.6719 87.3887 55.6562 87.3887C54.0625 87.3887 52.8203 88.0039 51.9297 89.2344C51.0391 90.4648 50.5938 92.2871 50.5938 94.7012Z" fill="white"/>
<path d="M71.9863 104H68.7344V84.9805H71.9863V104ZM68.4707 79.9355C68.4707 79.4082 68.6289 78.9629 68.9453 78.5996C69.2734 78.2363 69.7539 78.0547 70.3867 78.0547C71.0195 78.0547 71.5 78.2363 71.8281 78.5996C72.1562 78.9629 72.3203 79.4082 72.3203 79.9355C72.3203 80.4629 72.1562 80.9023 71.8281 81.2539C71.5 81.6055 71.0195 81.7812 70.3867 81.7812C69.7539 81.7812 69.2734 81.6055 68.9453 81.2539C68.6289 80.9023 68.4707 80.4629 68.4707 79.9355Z" fill="white"/>
<path d="M76.416 94.332C76.416 91.3438 77.1016 88.9824 78.4727 87.248C79.8438 85.502 81.6836 84.6289 83.9922 84.6289C86.2422 84.6289 88.0176 85.3848 89.3184 86.8965L89.459 84.9805H92.4473V111.312H89.1953V102.242C87.8828 103.648 86.1367 104.352 83.957 104.352C81.6602 104.352 79.8262 103.461 78.4551 101.68C77.0957 99.8867 76.416 97.5137 76.416 94.5605V94.332ZM79.668 94.7012C79.668 96.8809 80.125 98.5918 81.0391 99.834C81.9648 101.076 83.207 101.697 84.7656 101.697C86.6992 101.697 88.1758 100.842 89.1953 99.1309V89.8145C88.1641 88.1387 86.6992 87.3008 84.8008 87.3008C83.2305 87.3008 81.9824 87.9277 81.0566 89.1816C80.1309 90.4238 79.668 92.2637 79.668 94.7012Z" fill="white"/>
<path d="M109.41 102.119C108.145 103.607 106.287 104.352 103.838 104.352C101.811 104.352 100.264 103.766 99.1973 102.594C98.1426 101.41 97.6094 99.6641 97.5977 97.3555V84.9805H100.85V97.2676C100.85 100.15 102.021 101.592 104.365 101.592C106.85 101.592 108.502 100.666 109.322 98.8145V84.9805H112.574V104H109.48L109.41 102.119Z" fill="white"/>
<path d="M125.424 104.352C122.846 104.352 120.748 103.508 119.131 101.82C117.514 100.121 116.705 97.8535 116.705 95.0176V94.4199C116.705 92.5332 117.062 90.8516 117.777 89.375C118.504 87.8867 119.512 86.7266 120.801 85.8945C122.102 85.0508 123.508 84.6289 125.02 84.6289C127.492 84.6289 129.414 85.4434 130.785 87.0723C132.156 88.7012 132.842 91.0332 132.842 94.0684V95.4219H119.957C120.004 97.2969 120.549 98.8145 121.592 99.9746C122.646 101.123 123.982 101.697 125.6 101.697C126.748 101.697 127.721 101.463 128.518 100.994C129.314 100.525 130.012 99.9043 130.609 99.1309L132.596 100.678C131.002 103.127 128.611 104.352 125.424 104.352ZM125.02 87.3008C123.707 87.3008 122.605 87.7812 121.715 88.7422C120.824 89.6914 120.273 91.0273 120.062 92.75H129.59V92.5039C129.496 90.8516 129.051 89.5742 128.254 88.6719C127.457 87.7578 126.379 87.3008 125.02 87.3008Z" fill="white"/>
<path d="M153.18 101.697C154.34 101.697 155.354 101.346 156.221 100.643C157.088 99.9395 157.568 99.0605 157.662 98.0059H160.738C160.68 99.0957 160.305 100.133 159.613 101.117C158.922 102.102 157.996 102.887 156.836 103.473C155.688 104.059 154.469 104.352 153.18 104.352C150.59 104.352 148.527 103.49 146.992 101.768C145.469 100.033 144.707 97.666 144.707 94.666V94.1211C144.707 92.2695 145.047 90.623 145.727 89.1816C146.406 87.7402 147.379 86.6211 148.645 85.8242C149.922 85.0273 151.428 84.6289 153.162 84.6289C155.295 84.6289 157.064 85.2676 158.471 86.5449C159.889 87.8223 160.645 89.4805 160.738 91.5195H157.662C157.568 90.2891 157.1 89.2812 156.256 88.4961C155.424 87.6992 154.393 87.3008 153.162 87.3008C151.51 87.3008 150.227 87.8984 149.312 89.0938C148.41 90.2773 147.959 91.9941 147.959 94.2441V94.8594C147.959 97.0508 148.41 98.7383 149.312 99.9219C150.215 101.105 151.504 101.697 153.18 101.697Z" fill="white"/>
<path d="M176.137 102.119C174.871 103.607 173.014 104.352 170.564 104.352C168.537 104.352 166.99 103.766 165.924 102.594C164.869 101.41 164.336 99.6641 164.324 97.3555V84.9805H167.576V97.2676C167.576 100.15 168.748 101.592 171.092 101.592C173.576 101.592 175.229 100.666 176.049 98.8145V84.9805H179.301V104H176.207L176.137 102.119Z" fill="white"/>
<path d="M196 104C195.812 103.625 195.66 102.957 195.543 101.996C194.031 103.566 192.227 104.352 190.129 104.352C188.254 104.352 186.713 103.824 185.506 102.77C184.311 101.703 183.713 100.355 183.713 98.7266C183.713 96.7461 184.463 95.2109 185.963 94.1211C187.475 93.0195 189.596 92.4688 192.326 92.4688H195.49V90.9746C195.49 89.8379 195.15 88.9355 194.471 88.2676C193.791 87.5879 192.789 87.248 191.465 87.248C190.305 87.248 189.332 87.541 188.547 88.127C187.762 88.7129 187.369 89.4219 187.369 90.2539H184.1C184.1 89.3047 184.434 88.3906 185.102 87.5117C185.781 86.6211 186.695 85.918 187.844 85.4023C189.004 84.8867 190.275 84.6289 191.658 84.6289C193.85 84.6289 195.566 85.1797 196.809 86.2812C198.051 87.3711 198.695 88.877 198.742 90.7988V99.5527C198.742 101.299 198.965 102.688 199.41 103.719V104H196ZM190.604 101.521C191.623 101.521 192.59 101.258 193.504 100.73C194.418 100.203 195.08 99.5176 195.49 98.6738V94.7715H192.941C188.957 94.7715 186.965 95.9375 186.965 98.2695C186.965 99.2891 187.305 100.086 187.984 100.66C188.664 101.234 189.537 101.521 190.604 101.521ZM193.609 77H197.547L192.836 82.168H190.217L193.609 77Z" fill="white"/>
<path d="M207.373 104H204.121V77H207.373V104Z" fill="white"/>
<path d="M220.486 104.352C217.908 104.352 215.811 103.508 214.193 101.82C212.576 100.121 211.768 97.8535 211.768 95.0176V94.4199C211.768 92.5332 212.125 90.8516 212.84 89.375C213.566 87.8867 214.574 86.7266 215.863 85.8945C217.164 85.0508 218.57 84.6289 220.082 84.6289C222.555 84.6289 224.477 85.4434 225.848 87.0723C227.219 88.7012 227.904 91.0332 227.904 94.0684V95.4219H215.02C215.066 97.2969 215.611 98.8145 216.654 99.9746C217.709 101.123 219.045 101.697 220.662 101.697C221.811 101.697 222.783 101.463 223.58 100.994C224.377 100.525 225.074 99.9043 225.672 99.1309L227.658 100.678C226.064 103.127 223.674 104.352 220.486 104.352ZM220.082 87.3008C218.77 87.3008 217.668 87.7812 216.777 88.7422C215.887 89.6914 215.336 91.0273 215.125 92.75H224.652V92.5039C224.559 90.8516 224.113 89.5742 223.316 88.6719C222.52 87.7578 221.441 87.3008 220.082 87.3008Z" fill="white"/>
<path d="M242.758 98.9551C242.758 98.0762 242.424 97.3965 241.756 96.916C241.1 96.4238 239.945 96.002 238.293 95.6504C236.652 95.2988 235.346 94.877 234.373 94.3848C233.412 93.8926 232.697 93.3066 232.229 92.627C231.771 91.9473 231.543 91.1387 231.543 90.2012C231.543 88.6426 232.199 87.3242 233.512 86.2461C234.836 85.168 236.523 84.6289 238.574 84.6289C240.73 84.6289 242.477 85.1855 243.812 86.2988C245.16 87.4121 245.834 88.8359 245.834 90.5703H242.564C242.564 89.6797 242.184 88.9121 241.422 88.2676C240.672 87.623 239.723 87.3008 238.574 87.3008C237.391 87.3008 236.465 87.5586 235.797 88.0742C235.129 88.5898 234.795 89.2637 234.795 90.0957C234.795 90.8809 235.105 91.4727 235.727 91.8711C236.348 92.2695 237.467 92.6504 239.084 93.0137C240.713 93.377 242.031 93.8105 243.039 94.3145C244.047 94.8184 244.791 95.4277 245.271 96.1426C245.764 96.8457 246.01 97.707 246.01 98.7266C246.01 100.426 245.33 101.791 243.971 102.822C242.611 103.842 240.848 104.352 238.68 104.352C237.156 104.352 235.809 104.082 234.637 103.543C233.465 103.004 232.545 102.254 231.877 101.293C231.221 100.32 230.893 99.2715 230.893 98.1465H234.145C234.203 99.2363 234.637 100.104 235.445 100.748C236.266 101.381 237.344 101.697 238.68 101.697C239.91 101.697 240.895 101.451 241.633 100.959C242.383 100.455 242.758 99.7871 242.758 98.9551Z" fill="white"/>
<path d="M270.25 98.9551C270.25 98.0762 269.916 97.3965 269.248 96.916C268.592 96.4238 267.438 96.002 265.785 95.6504C264.145 95.2988 262.838 94.877 261.865 94.3848C260.904 93.8926 260.189 93.3066 259.721 92.627C259.264 91.9473 259.035 91.1387 259.035 90.2012C259.035 88.6426 259.691 87.3242 261.004 86.2461C262.328 85.168 264.016 84.6289 266.066 84.6289C268.223 84.6289 269.969 85.1855 271.305 86.2988C272.652 87.4121 273.326 88.8359 273.326 90.5703H270.057C270.057 89.6797 269.676 88.9121 268.914 88.2676C268.164 87.623 267.215 87.3008 266.066 87.3008C264.883 87.3008 263.957 87.5586 263.289 88.0742C262.621 88.5898 262.287 89.2637 262.287 90.0957C262.287 90.8809 262.598 91.4727 263.219 91.8711C263.84 92.2695 264.959 92.6504 266.576 93.0137C268.205 93.377 269.523 93.8105 270.531 94.3145C271.539 94.8184 272.283 95.4277 272.764 96.1426C273.256 96.8457 273.502 97.707 273.502 98.7266C273.502 100.426 272.822 101.791 271.463 102.822C270.104 103.842 268.34 104.352 266.172 104.352C264.648 104.352 263.301 104.082 262.129 103.543C260.957 103.004 260.037 102.254 259.369 101.293C258.713 100.32 258.385 99.2715 258.385 98.1465H261.637C261.695 99.2363 262.129 100.104 262.938 100.748C263.758 101.381 264.836 101.697 266.172 101.697C267.402 101.697 268.387 101.451 269.125 100.959C269.875 100.455 270.25 99.7871 270.25 98.9551Z" fill="white"/>
<path d="M276.877 94.3145C276.877 92.4512 277.24 90.7754 277.967 89.2871C278.705 87.7988 279.725 86.6504 281.025 85.8418C282.338 85.0332 283.832 84.6289 285.508 84.6289C288.098 84.6289 290.189 85.5254 291.783 87.3184C293.389 89.1113 294.191 91.4961 294.191 94.4727V94.7012C294.191 96.5527 293.834 98.2168 293.119 99.6934C292.416 101.158 291.402 102.301 290.078 103.121C288.766 103.941 287.254 104.352 285.543 104.352C282.965 104.352 280.873 103.455 279.268 101.662C277.674 99.8691 276.877 97.4961 276.877 94.543V94.3145ZM280.146 94.7012C280.146 96.8105 280.633 98.5039 281.605 99.7812C282.59 101.059 283.902 101.697 285.543 101.697C287.195 101.697 288.508 101.053 289.48 99.7637C290.453 98.4629 290.939 96.6465 290.939 94.3145C290.939 92.2285 290.441 90.541 289.445 89.252C288.461 87.9512 287.148 87.3008 285.508 87.3008C283.902 87.3008 282.607 87.9395 281.623 89.2168C280.639 90.4941 280.146 92.3223 280.146 94.7012Z" fill="white"/>
<path d="M301.346 84.9805L301.451 87.3711C302.904 85.543 304.803 84.6289 307.146 84.6289C311.166 84.6289 313.193 86.8965 313.229 91.4316V104H309.977V91.4141C309.965 90.043 309.648 89.0293 309.027 88.373C308.418 87.7168 307.463 87.3887 306.162 87.3887C305.107 87.3887 304.182 87.6699 303.385 88.2324C302.588 88.7949 301.967 89.5332 301.521 90.4473V104H298.27V84.9805H301.346Z" fill="white"/>
<path d="M330.596 104H327.344V77H330.596V104Z" fill="white"/>
<path d="M347.559 104C347.371 103.625 347.219 102.957 347.102 101.996C345.59 103.566 343.785 104.352 341.688 104.352C339.812 104.352 338.271 103.824 337.064 102.77C335.869 101.703 335.271 100.355 335.271 98.7266C335.271 96.7461 336.021 95.2109 337.521 94.1211C339.033 93.0195 341.154 92.4688 343.885 92.4688H347.049V90.9746C347.049 89.8379 346.709 88.9355 346.029 88.2676C345.35 87.5879 344.348 87.248 343.023 87.248C341.863 87.248 340.891 87.541 340.105 88.127C339.32 88.7129 338.928 89.4219 338.928 90.2539H335.658C335.658 89.3047 335.992 88.3906 336.66 87.5117C337.34 86.6211 338.254 85.918 339.402 85.4023C340.562 84.8867 341.834 84.6289 343.217 84.6289C345.408 84.6289 347.125 85.1797 348.367 86.2812C349.609 87.3711 350.254 88.877 350.301 90.7988V99.5527C350.301 101.299 350.523 102.688 350.969 103.719V104H347.559ZM342.162 101.521C343.182 101.521 344.148 101.258 345.062 100.73C345.977 100.203 346.639 99.5176 347.049 98.6738V94.7715H344.5C340.516 94.7715 338.523 95.9375 338.523 98.2695C338.523 99.2891 338.863 100.086 339.543 100.66C340.223 101.234 341.096 101.521 342.162 101.521Z" fill="white"/>
<path d="M366.473 98.9551C366.473 98.0762 366.139 97.3965 365.471 96.916C364.814 96.4238 363.66 96.002 362.008 95.6504C360.367 95.2988 359.061 94.877 358.088 94.3848C357.127 93.8926 356.412 93.3066 355.943 92.627C355.486 91.9473 355.258 91.1387 355.258 90.2012C355.258 88.6426 355.914 87.3242 357.227 86.2461C358.551 85.168 360.238 84.6289 362.289 84.6289C364.445 84.6289 366.191 85.1855 367.527 86.2988C368.875 87.4121 369.549 88.8359 369.549 90.5703H366.279C366.279 89.6797 365.898 88.9121 365.137 88.2676C364.387 87.623 363.438 87.3008 362.289 87.3008C361.105 87.3008 360.18 87.5586 359.512 88.0742C358.844 88.5898 358.51 89.2637 358.51 90.0957C358.51 90.8809 358.82 91.4727 359.441 91.8711C360.062 92.2695 361.182 92.6504 362.799 93.0137C364.428 93.377 365.746 93.8105 366.754 94.3145C367.762 94.8184 368.506 95.4277 368.986 96.1426C369.479 96.8457 369.725 97.707 369.725 98.7266C369.725 100.426 369.045 101.791 367.686 102.822C366.326 103.842 364.562 104.352 362.395 104.352C360.871 104.352 359.523 104.082 358.352 103.543C357.18 103.004 356.26 102.254 355.592 101.293C354.936 100.32 354.607 99.2715 354.607 98.1465H357.859C357.918 99.2363 358.352 100.104 359.16 100.748C359.98 101.381 361.059 101.697 362.395 101.697C363.625 101.697 364.609 101.451 365.348 100.959C366.098 100.455 366.473 99.7871 366.473 98.9551Z" fill="white"/>
<path d="M389.166 99.5879L393.877 84.9805H397.199L390.379 104H387.9L381.01 84.9805H384.332L389.166 99.5879Z" fill="white"/>
<path d="M403.861 104H400.609V84.9805H403.861V104ZM400.346 79.9355C400.346 79.4082 400.504 78.9629 400.82 78.5996C401.148 78.2363 401.629 78.0547 402.262 78.0547C402.895 78.0547 403.375 78.2363 403.703 78.5996C404.031 78.9629 404.195 79.4082 404.195 79.9355C404.195 80.4629 404.031 80.9023 403.703 81.2539C403.375 81.6055 402.895 81.7812 402.262 81.7812C401.629 81.7812 401.148 81.6055 400.82 81.2539C400.504 80.9023 400.346 80.4629 400.346 79.9355Z" fill="white"/>
<path d="M420.156 98.9551C420.156 98.0762 419.822 97.3965 419.154 96.916C418.498 96.4238 417.344 96.002 415.691 95.6504C414.051 95.2988 412.744 94.877 411.771 94.3848C410.811 93.8926 410.096 93.3066 409.627 92.627C409.17 91.9473 408.941 91.1387 408.941 90.2012C408.941 88.6426 409.598 87.3242 410.91 86.2461C412.234 85.168 413.922 84.6289 415.973 84.6289C418.129 84.6289 419.875 85.1855 421.211 86.2988C422.559 87.4121 423.232 88.8359 423.232 90.5703H419.963C419.963 89.6797 419.582 88.9121 418.82 88.2676C418.07 87.623 417.121 87.3008 415.973 87.3008C414.789 87.3008 413.863 87.5586 413.195 88.0742C412.527 88.5898 412.193 89.2637 412.193 90.0957C412.193 90.8809 412.504 91.4727 413.125 91.8711C413.746 92.2695 414.865 92.6504 416.482 93.0137C418.111 93.377 419.43 93.8105 420.438 94.3145C421.445 94.8184 422.189 95.4277 422.67 96.1426C423.162 96.8457 423.408 97.707 423.408 98.7266C423.408 100.426 422.729 101.791 421.369 102.822C420.01 103.842 418.246 104.352 416.078 104.352C414.555 104.352 413.207 104.082 412.035 103.543C410.863 103.004 409.943 102.254 409.275 101.293C408.619 100.32 408.291 99.2715 408.291 98.1465H411.543C411.602 99.2363 412.035 100.104 412.844 100.748C413.664 101.381 414.742 101.697 416.078 101.697C417.309 101.697 418.293 101.451 419.031 100.959C419.781 100.455 420.156 99.7871 420.156 98.9551Z" fill="white"/>
<path d="M432.057 80.375V84.9805H435.607V87.4941H432.057V99.2891C432.057 100.051 432.215 100.625 432.531 101.012C432.848 101.387 433.387 101.574 434.148 101.574C434.523 101.574 435.039 101.504 435.695 101.363V104C434.84 104.234 434.008 104.352 433.199 104.352C431.746 104.352 430.65 103.912 429.912 103.033C429.174 102.154 428.805 100.906 428.805 99.2891V87.4941H425.342V84.9805H428.805V80.375H432.057Z" fill="white"/>
<path d="M451.164 104C450.977 103.625 450.824 102.957 450.707 101.996C449.195 103.566 447.391 104.352 445.293 104.352C443.418 104.352 441.877 103.824 440.67 102.77C439.475 101.703 438.877 100.355 438.877 98.7266C438.877 96.7461 439.627 95.2109 441.127 94.1211C442.639 93.0195 444.76 92.4688 447.49 92.4688H450.654V90.9746C450.654 89.8379 450.314 88.9355 449.635 88.2676C448.955 87.5879 447.953 87.248 446.629 87.248C445.469 87.248 444.496 87.541 443.711 88.127C442.926 88.7129 442.533 89.4219 442.533 90.2539H439.264C439.264 89.3047 439.598 88.3906 440.266 87.5117C440.945 86.6211 441.859 85.918 443.008 85.4023C444.168 84.8867 445.439 84.6289 446.822 84.6289C449.014 84.6289 450.73 85.1797 451.973 86.2812C453.215 87.3711 453.859 88.877 453.906 90.7988V99.5527C453.906 101.299 454.129 102.688 454.574 103.719V104H451.164ZM445.768 101.521C446.787 101.521 447.754 101.258 448.668 100.73C449.582 100.203 450.244 99.5176 450.654 98.6738V94.7715H448.105C444.121 94.7715 442.129 95.9375 442.129 98.2695C442.129 99.2891 442.469 100.086 443.148 100.66C443.828 101.234 444.701 101.521 445.768 101.521Z" fill="white"/>
<path d="M470.078 98.9551C470.078 98.0762 469.744 97.3965 469.076 96.916C468.42 96.4238 467.266 96.002 465.613 95.6504C463.973 95.2988 462.666 94.877 461.693 94.3848C460.732 93.8926 460.018 93.3066 459.549 92.627C459.092 91.9473 458.863 91.1387 458.863 90.2012C458.863 88.6426 459.52 87.3242 460.832 86.2461C462.156 85.168 463.844 84.6289 465.895 84.6289C468.051 84.6289 469.797 85.1855 471.133 86.2988C472.48 87.4121 473.154 88.8359 473.154 90.5703H469.885C469.885 89.6797 469.504 88.9121 468.742 88.2676C467.992 87.623 467.043 87.3008 465.895 87.3008C464.711 87.3008 463.785 87.5586 463.117 88.0742C462.449 88.5898 462.115 89.2637 462.115 90.0957C462.115 90.8809 462.426 91.4727 463.047 91.8711C463.668 92.2695 464.787 92.6504 466.404 93.0137C468.033 93.377 469.352 93.8105 470.359 94.3145C471.367 94.8184 472.111 95.4277 472.592 96.1426C473.084 96.8457 473.33 97.707 473.33 98.7266C473.33 100.426 472.65 101.791 471.291 102.822C469.932 103.842 468.168 104.352 466 104.352C464.477 104.352 463.129 104.082 461.957 103.543C460.785 103.004 459.865 102.254 459.197 101.293C458.541 100.32 458.213 99.2715 458.213 98.1465H461.465C461.523 99.2363 461.957 100.104 462.766 100.748C463.586 101.381 464.664 101.697 466 101.697C467.23 101.697 468.215 101.451 468.953 100.959C469.703 100.455 470.078 99.7871 470.078 98.9551Z" fill="white"/>
<path d="M485.635 94.3145C485.635 92.4512 485.998 90.7754 486.725 89.2871C487.463 87.7988 488.482 86.6504 489.783 85.8418C491.096 85.0332 492.59 84.6289 494.266 84.6289C496.855 84.6289 498.947 85.5254 500.541 87.3184C502.146 89.1113 502.949 91.4961 502.949 94.4727V94.7012C502.949 96.5527 502.592 98.2168 501.877 99.6934C501.174 101.158 500.16 102.301 498.836 103.121C497.523 103.941 496.012 104.352 494.301 104.352C491.723 104.352 489.631 103.455 488.025 101.662C486.432 99.8691 485.635 97.4961 485.635 94.543V94.3145ZM488.904 94.7012C488.904 96.8105 489.391 98.5039 490.363 99.7812C491.348 101.059 492.66 101.697 494.301 101.697C495.953 101.697 497.266 101.053 498.238 99.7637C499.211 98.4629 499.697 96.6465 499.697 94.3145C499.697 92.2285 499.199 90.541 498.203 89.252C497.219 87.9512 495.906 87.3008 494.266 87.3008C492.66 87.3008 491.365 87.9395 490.381 89.2168C489.396 90.4941 488.904 92.3223 488.904 94.7012Z" fill="white"/>
<path d="M516.221 87.8984C515.729 87.8164 515.195 87.7754 514.621 87.7754C512.488 87.7754 511.041 88.6836 510.279 90.5V104H507.027V84.9805H510.191L510.244 87.1777C511.311 85.4785 512.822 84.6289 514.779 84.6289C515.412 84.6289 515.893 84.7109 516.221 84.875V87.8984Z" fill="white"/>
<path d="M524.518 80.375V84.9805H528.068V87.4941H524.518V99.2891C524.518 100.051 524.676 100.625 524.992 101.012C525.309 101.387 525.848 101.574 526.609 101.574C526.984 101.574 527.5 101.504 528.156 101.363V104C527.301 104.234 526.469 104.352 525.66 104.352C524.207 104.352 523.111 103.912 522.373 103.033C521.635 102.154 521.266 100.906 521.266 99.2891V87.4941H517.803V84.9805H521.266V80.375H524.518Z" fill="white"/>
<path d="M530.67 94.3145C530.67 92.4512 531.033 90.7754 531.76 89.2871C532.498 87.7988 533.518 86.6504 534.818 85.8418C536.131 85.0332 537.625 84.6289 539.301 84.6289C541.891 84.6289 543.982 85.5254 545.576 87.3184C547.182 89.1113 547.984 91.4961 547.984 94.4727V94.7012C547.984 96.5527 547.627 98.2168 546.912 99.6934C546.209 101.158 545.195 102.301 543.871 103.121C542.559 103.941 541.047 104.352 539.336 104.352C536.758 104.352 534.666 103.455 533.061 101.662C531.467 99.8691 530.67 97.4961 530.67 94.543V94.3145ZM533.939 94.7012C533.939 96.8105 534.426 98.5039 535.398 99.7812C536.383 101.059 537.695 101.697 539.336 101.697C540.988 101.697 542.301 101.053 543.273 99.7637C544.246 98.4629 544.732 96.6465 544.732 94.3145C544.732 92.2285 544.234 90.541 543.238 89.252C542.254 87.9512 540.941 87.3008 539.301 87.3008C537.695 87.3008 536.4 87.9395 535.416 89.2168C534.432 90.4941 533.939 92.3223 533.939 94.7012Z" fill="white"/>
<path d="M551.289 94.332C551.289 91.3672 551.975 89.0117 553.346 87.2656C554.717 85.5078 556.533 84.6289 558.795 84.6289C561.115 84.6289 562.926 85.4492 564.227 87.0898L564.385 84.9805H567.355V103.543C567.355 106.004 566.623 107.943 565.158 109.361C563.705 110.779 561.748 111.488 559.287 111.488C557.916 111.488 556.574 111.195 555.262 110.609C553.949 110.023 552.947 109.221 552.256 108.201L553.943 106.25C555.338 107.973 557.043 108.834 559.059 108.834C560.641 108.834 561.871 108.389 562.75 107.498C563.641 106.607 564.086 105.354 564.086 103.736V102.102C562.785 103.602 561.01 104.352 558.76 104.352C556.533 104.352 554.729 103.455 553.346 101.662C551.975 99.8691 551.289 97.4258 551.289 94.332ZM554.559 94.7012C554.559 96.8457 554.998 98.5332 555.877 99.7637C556.756 100.982 557.986 101.592 559.568 101.592C561.619 101.592 563.125 100.66 564.086 98.7969V90.1133C563.09 88.2969 561.596 87.3887 559.604 87.3887C558.021 87.3887 556.785 88.0039 555.895 89.2344C555.004 90.4648 554.559 92.2871 554.559 94.7012Z" fill="white"/>
<path d="M571.416 94.3145C571.416 92.4512 571.779 90.7754 572.506 89.2871C573.244 87.7988 574.264 86.6504 575.564 85.8418C576.877 85.0332 578.371 84.6289 580.047 84.6289C582.637 84.6289 584.729 85.5254 586.322 87.3184C587.928 89.1113 588.73 91.4961 588.73 94.4727V94.7012C588.73 96.5527 588.373 98.2168 587.658 99.6934C586.955 101.158 585.941 102.301 584.617 103.121C583.305 103.941 581.793 104.352 580.082 104.352C577.504 104.352 575.412 103.455 573.807 101.662C572.213 99.8691 571.416 97.4961 571.416 94.543V94.3145ZM574.686 94.7012C574.686 96.8105 575.172 98.5039 576.145 99.7812C577.129 101.059 578.441 101.697 580.082 101.697C581.734 101.697 583.047 101.053 584.02 99.7637C584.992 98.4629 585.479 96.6465 585.479 94.3145C585.479 92.2285 584.98 90.541 583.984 89.252C583 87.9512 581.688 87.3008 580.047 87.3008C578.441 87.3008 577.146 87.9395 576.162 89.2168C575.178 90.4941 574.686 92.3223 574.686 94.7012Z" fill="white"/>
<path d="M595.885 84.9805L595.99 87.3711C597.443 85.543 599.342 84.6289 601.686 84.6289C605.705 84.6289 607.732 86.8965 607.768 91.4316V104H604.516V91.4141C604.504 90.043 604.188 89.0293 603.566 88.373C602.957 87.7168 602.002 87.3887 600.701 87.3887C599.646 87.3887 598.721 87.6699 597.924 88.2324C597.127 88.7949 596.506 89.5332 596.061 90.4473V104H592.809V84.9805H595.885Z" fill="white"/>
<path d="M624.414 104C624.227 103.625 624.074 102.957 623.957 101.996C622.445 103.566 620.641 104.352 618.543 104.352C616.668 104.352 615.127 103.824 613.92 102.77C612.725 101.703 612.127 100.355 612.127 98.7266C612.127 96.7461 612.877 95.2109 614.377 94.1211C615.889 93.0195 618.01 92.4688 620.74 92.4688H623.904V90.9746C623.904 89.8379 623.564 88.9355 622.885 88.2676C622.205 87.5879 621.203 87.248 619.879 87.248C618.719 87.248 617.746 87.541 616.961 88.127C616.176 88.7129 615.783 89.4219 615.783 90.2539H612.514C612.514 89.3047 612.848 88.3906 613.516 87.5117C614.195 86.6211 615.109 85.918 616.258 85.4023C617.418 84.8867 618.689 84.6289 620.072 84.6289C622.264 84.6289 623.98 85.1797 625.223 86.2812C626.465 87.3711 627.109 88.877 627.156 90.7988V99.5527C627.156 101.299 627.379 102.688 627.824 103.719V104H624.414ZM619.018 101.521C620.037 101.521 621.004 101.258 621.918 100.73C622.832 100.203 623.494 99.5176 623.904 98.6738V94.7715H621.355C617.371 94.7715 615.379 95.9375 615.379 98.2695C615.379 99.2891 615.719 100.086 616.398 100.66C617.078 101.234 617.951 101.521 619.018 101.521Z" fill="white"/>
<path d="M635.787 104H632.535V77H635.787V104Z" fill="white"/>
<path d="M648.9 104.352C646.322 104.352 644.225 103.508 642.607 101.82C640.99 100.121 640.182 97.8535 640.182 95.0176V94.4199C640.182 92.5332 640.539 90.8516 641.254 89.375C641.98 87.8867 642.988 86.7266 644.277 85.8945C645.578 85.0508 646.984 84.6289 648.496 84.6289C650.969 84.6289 652.891 85.4434 654.262 87.0723C655.633 88.7012 656.318 91.0332 656.318 94.0684V95.4219H643.434C643.48 97.2969 644.025 98.8145 645.068 99.9746C646.123 101.123 647.459 101.697 649.076 101.697C650.225 101.697 651.197 101.463 651.994 100.994C652.791 100.525 653.488 99.9043 654.086 99.1309L656.072 100.678C654.479 103.127 652.088 104.352 648.9 104.352ZM648.496 87.3008C647.184 87.3008 646.082 87.7812 645.191 88.7422C644.301 89.6914 643.75 91.0273 643.539 92.75H653.066V92.5039C652.973 90.8516 652.527 89.5742 651.73 88.6719C650.934 87.7578 649.855 87.3008 648.496 87.3008Z" fill="white"/>
<path d="M671.172 98.9551C671.172 98.0762 670.838 97.3965 670.17 96.916C669.514 96.4238 668.359 96.002 666.707 95.6504C665.066 95.2988 663.76 94.877 662.787 94.3848C661.826 93.8926 661.111 93.3066 660.643 92.627C660.186 91.9473 659.957 91.1387 659.957 90.2012C659.957 88.6426 660.613 87.3242 661.926 86.2461C663.25 85.168 664.938 84.6289 666.988 84.6289C669.145 84.6289 670.891 85.1855 672.227 86.2988C673.574 87.4121 674.248 88.8359 674.248 90.5703H670.979C670.979 89.6797 670.598 88.9121 669.836 88.2676C669.086 87.623 668.137 87.3008 666.988 87.3008C665.805 87.3008 664.879 87.5586 664.211 88.0742C663.543 88.5898 663.209 89.2637 663.209 90.0957C663.209 90.8809 663.52 91.4727 664.141 91.8711C664.762 92.2695 665.881 92.6504 667.498 93.0137C669.127 93.377 670.445 93.8105 671.453 94.3145C672.461 94.8184 673.205 95.4277 673.686 96.1426C674.178 96.8457 674.424 97.707 674.424 98.7266C674.424 100.426 673.744 101.791 672.385 102.822C671.025 103.842 669.262 104.352 667.094 104.352C665.57 104.352 664.223 104.082 663.051 103.543C661.879 103.004 660.959 102.254 660.291 101.293C659.635 100.32 659.307 99.2715 659.307 98.1465H662.559C662.617 99.2363 663.051 100.104 663.859 100.748C664.68 101.381 665.758 101.697 667.094 101.697C668.324 101.697 669.309 101.451 670.047 100.959C670.797 100.455 671.172 99.7871 671.172 98.9551Z" fill="white"/>
<path d="M687.467 93.6113C687.467 90.9629 687.818 88.4199 688.521 85.9824C689.236 83.5449 690.297 81.3301 691.703 79.3379C693.109 77.3457 694.568 75.9395 696.08 75.1191L696.748 77.2637C695.037 78.5762 693.631 80.5801 692.529 83.2754C691.439 85.9707 690.842 88.9883 690.736 92.3281L690.719 93.8223C690.719 98.3457 691.545 102.271 693.197 105.6C694.193 107.592 695.377 109.15 696.748 110.275L696.08 112.262C694.521 111.395 693.033 109.941 691.615 107.902C688.85 103.918 687.467 99.1543 687.467 93.6113Z" fill="white"/>
<path d="M703.146 87.2832C704.588 85.5137 706.463 84.6289 708.771 84.6289C712.791 84.6289 714.818 86.8965 714.854 91.4316V104H711.602V91.4141C711.59 90.043 711.273 89.0293 710.652 88.373C710.043 87.7168 709.088 87.3887 707.787 87.3887C706.732 87.3887 705.807 87.6699 705.01 88.2324C704.213 88.7949 703.592 89.5332 703.146 90.4473V104H699.895V77H703.146V87.2832Z" fill="white"/>
<path d="M718.861 94.3145C718.861 92.4512 719.225 90.7754 719.951 89.2871C720.689 87.7988 721.709 86.6504 723.01 85.8418C724.322 85.0332 725.816 84.6289 727.492 84.6289C730.082 84.6289 732.174 85.5254 733.768 87.3184C735.373 89.1113 736.176 91.4961 736.176 94.4727V94.7012C736.176 96.5527 735.818 98.2168 735.104 99.6934C734.4 101.158 733.387 102.301 732.062 103.121C730.75 103.941 729.238 104.352 727.527 104.352C724.949 104.352 722.857 103.455 721.252 101.662C719.658 99.8691 718.861 97.4961 718.861 94.543V94.3145ZM722.131 94.7012C722.131 96.8105 722.617 98.5039 723.59 99.7812C724.574 101.059 725.887 101.697 727.527 101.697C729.18 101.697 730.492 101.053 731.465 99.7637C732.438 98.4629 732.924 96.6465 732.924 94.3145C732.924 92.2285 732.426 90.541 731.43 89.252C730.445 87.9512 729.133 87.3008 727.492 87.3008C725.887 87.3008 724.592 87.9395 723.607 89.2168C722.623 90.4941 722.131 92.3223 722.131 94.7012Z" fill="white"/>
<path d="M749.447 87.8984C748.955 87.8164 748.422 87.7754 747.848 87.7754C745.715 87.7754 744.268 88.6836 743.506 90.5V104H740.254V84.9805H743.418L743.471 87.1777C744.537 85.4785 746.049 84.6289 748.006 84.6289C748.639 84.6289 749.119 84.7109 749.447 84.875V87.8984Z" fill="white"/>
<path d="M755.986 104H752.734V84.9805H755.986V104ZM752.471 79.9355C752.471 79.4082 752.629 78.9629 752.945 78.5996C753.273 78.2363 753.754 78.0547 754.387 78.0547C755.02 78.0547 755.5 78.2363 755.828 78.5996C756.156 78.9629 756.32 79.4082 756.32 79.9355C756.32 80.4629 756.156 80.9023 755.828 81.2539C755.5 81.6055 755.02 81.7812 754.387 81.7812C753.754 81.7812 753.273 81.6055 752.945 81.2539C752.629 80.9023 752.471 80.4629 752.471 79.9355Z" fill="white"/>
<path d="M764.266 101.346H775.393V104H760.293V101.609L770.787 87.6699H760.451V84.9805H774.865V87.2832L764.266 101.346Z" fill="white"/>
<path d="M777.924 94.3145C777.924 92.4512 778.287 90.7754 779.014 89.2871C779.752 87.7988 780.771 86.6504 782.072 85.8418C783.385 85.0332 784.879 84.6289 786.555 84.6289C789.145 84.6289 791.236 85.5254 792.83 87.3184C794.436 89.1113 795.238 91.4961 795.238 94.4727V94.7012C795.238 96.5527 794.881 98.2168 794.166 99.6934C793.463 101.158 792.449 102.301 791.125 103.121C789.812 103.941 788.301 104.352 786.59 104.352C784.012 104.352 781.92 103.455 780.314 101.662C778.721 99.8691 777.924 97.4961 777.924 94.543V94.3145ZM781.193 94.7012C781.193 96.8105 781.68 98.5039 782.652 99.7812C783.637 101.059 784.949 101.697 786.59 101.697C788.242 101.697 789.555 101.053 790.527 99.7637C791.5 98.4629 791.986 96.6465 791.986 94.3145C791.986 92.2285 791.488 90.541 790.492 89.252C789.508 87.9512 788.195 87.3008 786.555 87.3008C784.949 87.3008 783.654 87.9395 782.67 89.2168C781.686 90.4941 781.193 92.3223 781.193 94.7012Z" fill="white"/>
<path d="M802.393 84.9805L802.498 87.3711C803.951 85.543 805.85 84.6289 808.193 84.6289C812.213 84.6289 814.24 86.8965 814.275 91.4316V104H811.023V91.4141C811.012 90.043 810.695 89.0293 810.074 88.373C809.465 87.7168 808.51 87.3887 807.209 87.3887C806.154 87.3887 805.229 87.6699 804.432 88.2324C803.635 88.7949 803.014 89.5332 802.568 90.4473V104H799.316V84.9805H802.393Z" fill="white"/>
<path d="M823.592 80.375V84.9805H827.143V87.4941H823.592V99.2891C823.592 100.051 823.75 100.625 824.066 101.012C824.383 101.387 824.922 101.574 825.684 101.574C826.059 101.574 826.574 101.504 827.23 101.363V104C826.375 104.234 825.543 104.352 824.734 104.352C823.281 104.352 822.186 103.912 821.447 103.033C820.709 102.154 820.34 100.906 820.34 99.2891V87.4941H816.877V84.9805H820.34V80.375H823.592Z" fill="white"/>
<path d="M842.699 104C842.512 103.625 842.359 102.957 842.242 101.996C840.73 103.566 838.926 104.352 836.828 104.352C834.953 104.352 833.412 103.824 832.205 102.77C831.01 101.703 830.412 100.355 830.412 98.7266C830.412 96.7461 831.162 95.2109 832.662 94.1211C834.174 93.0195 836.295 92.4688 839.025 92.4688H842.189V90.9746C842.189 89.8379 841.85 88.9355 841.17 88.2676C840.49 87.5879 839.488 87.248 838.164 87.248C837.004 87.248 836.031 87.541 835.246 88.127C834.461 88.7129 834.068 89.4219 834.068 90.2539H830.799C830.799 89.3047 831.133 88.3906 831.801 87.5117C832.48 86.6211 833.395 85.918 834.543 85.4023C835.703 84.8867 836.975 84.6289 838.357 84.6289C840.549 84.6289 842.266 85.1797 843.508 86.2812C844.75 87.3711 845.395 88.877 845.441 90.7988V99.5527C845.441 101.299 845.664 102.688 846.109 103.719V104H842.699ZM837.303 101.521C838.322 101.521 839.289 101.258 840.203 100.73C841.117 100.203 841.779 99.5176 842.189 98.6738V94.7715H839.641C835.656 94.7715 833.664 95.9375 833.664 98.2695C833.664 99.2891 834.004 100.086 834.684 100.66C835.363 101.234 836.236 101.521 837.303 101.521Z" fill="white"/>
<path d="M854.072 104H850.82V77H854.072V104Z" fill="white"/>
<path d="M859.188 109.098L857.342 107.832C858.443 106.297 859.018 104.715 859.064 103.086V100.15H862.246V102.699C862.246 103.883 861.953 105.066 861.367 106.25C860.793 107.434 860.066 108.383 859.188 109.098Z" fill="white"/>
<path d="M20.0605 146V129.494H17.0547V126.98H20.0605V125.029C20.0605 122.99 20.6055 121.414 21.6953 120.301C22.7852 119.188 24.3262 118.631 26.3184 118.631C27.0684 118.631 27.8125 118.73 28.5508 118.93L28.375 121.566C27.8242 121.461 27.2383 121.408 26.6172 121.408C25.5625 121.408 24.748 121.719 24.1738 122.34C23.5996 122.949 23.3125 123.828 23.3125 124.977V126.98H27.373V129.494H23.3125V146H20.0605Z" fill="white"/>
<path d="M40.1699 129.898C39.6777 129.816 39.1445 129.775 38.5703 129.775C36.4375 129.775 34.9902 130.684 34.2285 132.5V146H30.9766V126.98H34.1406L34.1934 129.178C35.2598 127.479 36.7715 126.629 38.7285 126.629C39.3613 126.629 39.8418 126.711 40.1699 126.875V129.898Z" fill="white"/>
<path d="M41.9629 136.314C41.9629 134.451 42.3262 132.775 43.0527 131.287C43.791 129.799 44.8105 128.65 46.1113 127.842C47.4238 127.033 48.918 126.629 50.5938 126.629C53.1836 126.629 55.2754 127.525 56.8691 129.318C58.4746 131.111 59.2773 133.496 59.2773 136.473V136.701C59.2773 138.553 58.9199 140.217 58.2051 141.693C57.502 143.158 56.4883 144.301 55.1641 145.121C53.8516 145.941 52.3398 146.352 50.6289 146.352C48.0508 146.352 45.959 145.455 44.3535 143.662C42.7598 141.869 41.9629 139.496 41.9629 136.543V136.314ZM45.2324 136.701C45.2324 138.811 45.7188 140.504 46.6914 141.781C47.6758 143.059 48.9883 143.697 50.6289 143.697C52.2812 143.697 53.5938 143.053 54.5664 141.764C55.5391 140.463 56.0254 138.646 56.0254 136.314C56.0254 134.229 55.5273 132.541 54.5312 131.252C53.5469 129.951 52.2344 129.301 50.5938 129.301C48.9883 129.301 47.6934 129.939 46.709 131.217C45.7246 132.494 45.2324 134.322 45.2324 136.701Z" fill="white"/>
<path d="M66.4316 126.98L66.5371 129.371C67.9902 127.543 69.8887 126.629 72.2324 126.629C76.252 126.629 78.2793 128.896 78.3145 133.432V146H75.0625V133.414C75.0508 132.043 74.7344 131.029 74.1133 130.373C73.5039 129.717 72.5488 129.389 71.248 129.389C70.1934 129.389 69.2676 129.67 68.4707 130.232C67.6738 130.795 67.0527 131.533 66.6074 132.447V146H63.3555V126.98H66.4316Z" fill="white"/>
<path d="M87.6309 122.375V126.98H91.1816V129.494H87.6309V141.289C87.6309 142.051 87.7891 142.625 88.1055 143.012C88.4219 143.387 88.9609 143.574 89.7227 143.574C90.0977 143.574 90.6133 143.504 91.2695 143.363V146C90.4141 146.234 89.582 146.352 88.7734 146.352C87.3203 146.352 86.2246 145.912 85.4863 145.033C84.748 144.154 84.3789 142.906 84.3789 141.289V129.494H80.916V126.98H84.3789V122.375H87.6309Z" fill="white"/>
<path d="M106.738 146C106.551 145.625 106.398 144.957 106.281 143.996C104.77 145.566 102.965 146.352 100.867 146.352C98.9922 146.352 97.4512 145.824 96.2441 144.77C95.0488 143.703 94.4512 142.355 94.4512 140.727C94.4512 138.746 95.2012 137.211 96.7012 136.121C98.2129 135.02 100.334 134.469 103.064 134.469H106.229V132.975C106.229 131.838 105.889 130.936 105.209 130.268C104.529 129.588 103.527 129.248 102.203 129.248C101.043 129.248 100.07 129.541 99.2852 130.127C98.5 130.713 98.1074 131.422 98.1074 132.254H94.8379C94.8379 131.305 95.1719 130.391 95.8398 129.512C96.5195 128.621 97.4336 127.918 98.582 127.402C99.7422 126.887 101.014 126.629 102.396 126.629C104.588 126.629 106.305 127.18 107.547 128.281C108.789 129.371 109.434 130.877 109.48 132.799V141.553C109.48 143.299 109.703 144.688 110.148 145.719V146H106.738ZM101.342 143.521C102.361 143.521 103.328 143.258 104.242 142.73C105.156 142.203 105.818 141.518 106.229 140.674V136.771H103.68C99.6953 136.771 97.7031 137.938 97.7031 140.27C97.7031 141.289 98.043 142.086 98.7227 142.66C99.4023 143.234 100.275 143.521 101.342 143.521Z" fill="white"/>
<path d="M118.111 146H114.859V119H118.111V146Z" fill="white"/>
<path d="M138.484 141.236L142.914 126.98H146.395L138.748 148.936C137.564 152.1 135.684 153.682 133.105 153.682L132.49 153.629L131.277 153.4V150.764L132.156 150.834C133.258 150.834 134.113 150.611 134.723 150.166C135.344 149.721 135.854 148.906 136.252 147.723L136.973 145.789L130.188 126.98H133.738L138.484 141.236Z" fill="white"/>
<path d="M174.309 136.701C174.309 139.596 173.646 141.928 172.322 143.697C170.998 145.467 169.205 146.352 166.943 146.352C164.635 146.352 162.818 145.619 161.494 144.154V153.312H158.242V126.98H161.213L161.371 129.09C162.695 127.449 164.535 126.629 166.891 126.629C169.176 126.629 170.98 127.49 172.305 129.213C173.641 130.936 174.309 133.332 174.309 136.402V136.701ZM171.057 136.332C171.057 134.188 170.6 132.494 169.686 131.252C168.771 130.01 167.518 129.389 165.924 129.389C163.955 129.389 162.479 130.262 161.494 132.008V141.096C162.467 142.83 163.955 143.697 165.959 143.697C167.518 143.697 168.754 143.082 169.668 141.852C170.594 140.609 171.057 138.77 171.057 136.332Z" fill="white"/>
<path d="M186.35 146.352C183.771 146.352 181.674 145.508 180.057 143.82C178.439 142.121 177.631 139.854 177.631 137.018V136.42C177.631 134.533 177.988 132.852 178.703 131.375C179.43 129.887 180.438 128.727 181.727 127.895C183.027 127.051 184.434 126.629 185.945 126.629C188.418 126.629 190.34 127.443 191.711 129.072C193.082 130.701 193.768 133.033 193.768 136.068V137.422H180.883C180.93 139.297 181.475 140.814 182.518 141.975C183.572 143.123 184.908 143.697 186.525 143.697C187.674 143.697 188.646 143.463 189.443 142.994C190.24 142.525 190.938 141.904 191.535 141.131L193.521 142.678C191.928 145.127 189.537 146.352 186.35 146.352ZM185.945 129.301C184.633 129.301 183.531 129.781 182.641 130.742C181.75 131.691 181.199 133.027 180.988 134.75H190.516V134.504C190.422 132.852 189.977 131.574 189.18 130.672C188.383 129.758 187.305 129.301 185.945 129.301Z" fill="white"/>
<path d="M206.74 129.898C206.248 129.816 205.715 129.775 205.141 129.775C203.008 129.775 201.561 130.684 200.799 132.5V146H197.547V126.98H200.711L200.764 129.178C201.83 127.479 203.342 126.629 205.299 126.629C205.932 126.629 206.412 126.711 206.74 126.875V129.898Z" fill="white"/>
<path d="M210.836 146V129.494H207.83V126.98H210.836V125.363C210.836 123.242 211.439 121.59 212.646 120.406C213.865 119.223 215.582 118.631 217.797 118.631C219.109 118.631 220.768 118.988 222.771 119.703L222.227 122.445C220.762 121.859 219.367 121.566 218.043 121.566C216.648 121.566 215.641 121.883 215.02 122.516C214.41 123.137 214.105 124.074 214.105 125.328V126.98H217.99V129.494H214.105V146H210.836ZM224.389 146H221.119V126.98H224.389V146Z" fill="white"/>
<path d="M233.213 146H229.961V119H233.213V146Z" fill="white"/>
<path d="M245.939 135.787C245.939 138.4 245.594 140.908 244.902 143.311C244.223 145.701 243.174 147.91 241.756 149.938C240.35 151.965 238.873 153.406 237.326 154.262L236.641 152.275C238.445 150.893 239.893 148.748 240.982 145.842C242.084 142.924 242.646 139.689 242.67 136.139V135.576C242.67 133.115 242.412 130.83 241.896 128.721C241.381 126.6 240.66 124.701 239.734 123.025C238.82 121.35 237.789 120.043 236.641 119.105L237.326 117.119C238.873 117.975 240.344 119.404 241.738 121.408C243.145 123.412 244.193 125.621 244.885 128.035C245.588 130.449 245.939 133.033 245.939 135.787Z" fill="white"/>
<path d="M259.088 136.332C259.088 133.414 259.779 131.07 261.162 129.301C262.545 127.52 264.355 126.629 266.594 126.629C268.82 126.629 270.584 127.391 271.885 128.914V119H275.137V146H272.148L271.99 143.961C270.689 145.555 268.879 146.352 266.559 146.352C264.355 146.352 262.557 145.449 261.162 143.645C259.779 141.84 259.088 139.484 259.088 136.578V136.332ZM262.34 136.701C262.34 138.857 262.785 140.545 263.676 141.764C264.566 142.982 265.797 143.592 267.367 143.592C269.43 143.592 270.936 142.666 271.885 140.814V132.078C270.912 130.285 269.418 129.389 267.402 129.389C265.809 129.389 264.566 130.004 263.676 131.234C262.785 132.465 262.34 134.287 262.34 136.701Z" fill="white"/>
<path d="M288.092 146.352C285.514 146.352 283.416 145.508 281.799 143.82C280.182 142.121 279.373 139.854 279.373 137.018V136.42C279.373 134.533 279.73 132.852 280.445 131.375C281.172 129.887 282.18 128.727 283.469 127.895C284.77 127.051 286.176 126.629 287.688 126.629C290.16 126.629 292.082 127.443 293.453 129.072C294.824 130.701 295.51 133.033 295.51 136.068V137.422H282.625C282.672 139.297 283.217 140.814 284.26 141.975C285.314 143.123 286.65 143.697 288.268 143.697C289.416 143.697 290.389 143.463 291.186 142.994C291.982 142.525 292.68 141.904 293.277 141.131L295.264 142.678C293.67 145.127 291.279 146.352 288.092 146.352ZM287.688 129.301C286.375 129.301 285.273 129.781 284.383 130.742C283.492 131.691 282.941 133.027 282.73 134.75H292.258V134.504C292.164 132.852 291.719 131.574 290.922 130.672C290.125 129.758 289.047 129.301 287.688 129.301Z" fill="white"/>
<path d="M302.822 146H299.57V119H302.822V146Z" fill="white"/>
<path d="M328.047 140.955C328.047 140.076 327.713 139.396 327.045 138.916C326.389 138.424 325.234 138.002 323.582 137.65C321.941 137.299 320.635 136.877 319.662 136.385C318.701 135.893 317.986 135.307 317.518 134.627C317.061 133.947 316.832 133.139 316.832 132.201C316.832 130.643 317.488 129.324 318.801 128.246C320.125 127.168 321.812 126.629 323.863 126.629C326.02 126.629 327.766 127.186 329.102 128.299C330.449 129.412 331.123 130.836 331.123 132.57H327.854C327.854 131.68 327.473 130.912 326.711 130.268C325.961 129.623 325.012 129.301 323.863 129.301C322.68 129.301 321.754 129.559 321.086 130.074C320.418 130.59 320.084 131.264 320.084 132.096C320.084 132.881 320.395 133.473 321.016 133.871C321.637 134.27 322.756 134.65 324.373 135.014C326.002 135.377 327.32 135.811 328.328 136.314C329.336 136.818 330.08 137.428 330.561 138.143C331.053 138.846 331.299 139.707 331.299 140.727C331.299 142.426 330.619 143.791 329.26 144.822C327.9 145.842 326.137 146.352 323.969 146.352C322.445 146.352 321.098 146.082 319.926 145.543C318.754 145.004 317.834 144.254 317.166 143.293C316.51 142.32 316.182 141.271 316.182 140.146H319.434C319.492 141.236 319.926 142.104 320.734 142.748C321.555 143.381 322.633 143.697 323.969 143.697C325.199 143.697 326.184 143.451 326.922 142.959C327.672 142.455 328.047 141.787 328.047 140.955Z" fill="white"/>
<path d="M334.674 136.314C334.674 134.451 335.037 132.775 335.764 131.287C336.502 129.799 337.521 128.65 338.822 127.842C340.135 127.033 341.629 126.629 343.305 126.629C345.895 126.629 347.986 127.525 349.58 129.318C351.186 131.111 351.988 133.496 351.988 136.473V136.701C351.988 138.553 351.631 140.217 350.916 141.693C350.213 143.158 349.199 144.301 347.875 145.121C346.562 145.941 345.051 146.352 343.34 146.352C340.762 146.352 338.67 145.455 337.064 143.662C335.471 141.869 334.674 139.496 334.674 136.543V136.314ZM337.943 136.701C337.943 138.811 338.43 140.504 339.402 141.781C340.387 143.059 341.699 143.697 343.34 143.697C344.992 143.697 346.305 143.053 347.277 141.764C348.25 140.463 348.736 138.646 348.736 136.314C348.736 134.229 348.238 132.541 347.242 131.252C346.258 129.951 344.945 129.301 343.305 129.301C341.699 129.301 340.404 129.939 339.42 131.217C338.436 132.494 337.943 134.322 337.943 136.701ZM344.781 119H348.719L344.008 124.168H341.389L344.781 119Z" fill="white"/>
<path d="M359.6 146H356.348V119H359.6V146Z" fill="white"/>
<path d="M368.354 146H365.102V126.98H368.354V146ZM364.838 121.936C364.838 121.408 364.996 120.963 365.312 120.6C365.641 120.236 366.121 120.055 366.754 120.055C367.387 120.055 367.867 120.236 368.195 120.6C368.523 120.963 368.688 121.408 368.688 121.936C368.688 122.463 368.523 122.902 368.195 123.254C367.867 123.605 367.387 123.781 366.754 123.781C366.121 123.781 365.641 123.605 365.312 123.254C364.996 122.902 364.838 122.463 364.838 121.936Z" fill="white"/>
<path d="M372.783 136.332C372.783 133.414 373.475 131.07 374.857 129.301C376.24 127.52 378.051 126.629 380.289 126.629C382.516 126.629 384.279 127.391 385.58 128.914V119H388.832V146H385.844L385.686 143.961C384.385 145.555 382.574 146.352 380.254 146.352C378.051 146.352 376.252 145.449 374.857 143.645C373.475 141.84 372.783 139.484 372.783 136.578V136.332ZM376.035 136.701C376.035 138.857 376.48 140.545 377.371 141.764C378.262 142.982 379.492 143.592 381.062 143.592C383.125 143.592 384.631 142.666 385.58 140.814V132.078C384.607 130.285 383.113 129.389 381.098 129.389C379.504 129.389 378.262 130.004 377.371 131.234C376.48 132.465 376.035 134.287 376.035 136.701Z" fill="white"/>
<path d="M393.033 136.314C393.033 134.451 393.396 132.775 394.123 131.287C394.861 129.799 395.881 128.65 397.182 127.842C398.494 127.033 399.988 126.629 401.664 126.629C404.254 126.629 406.346 127.525 407.939 129.318C409.545 131.111 410.348 133.496 410.348 136.473V136.701C410.348 138.553 409.99 140.217 409.275 141.693C408.572 143.158 407.559 144.301 406.234 145.121C404.922 145.941 403.41 146.352 401.699 146.352C399.121 146.352 397.029 145.455 395.424 143.662C393.83 141.869 393.033 139.496 393.033 136.543V136.314ZM396.303 136.701C396.303 138.811 396.789 140.504 397.762 141.781C398.746 143.059 400.059 143.697 401.699 143.697C403.352 143.697 404.664 143.053 405.637 141.764C406.609 140.463 407.096 138.646 407.096 136.314C407.096 134.229 406.598 132.541 405.602 131.252C404.617 129.951 403.305 129.301 401.664 129.301C400.059 129.301 398.764 129.939 397.779 131.217C396.795 132.494 396.303 134.322 396.303 136.701Z" fill="white"/>
<path d="M426.414 126.98L426.502 129.09C427.896 127.449 429.777 126.629 432.145 126.629C434.805 126.629 436.615 127.648 437.576 129.688C438.209 128.773 439.029 128.035 440.037 127.473C441.057 126.91 442.258 126.629 443.641 126.629C447.812 126.629 449.934 128.838 450.004 133.256V146H446.752V133.449C446.752 132.09 446.441 131.076 445.82 130.408C445.199 129.729 444.156 129.389 442.691 129.389C441.484 129.389 440.482 129.752 439.686 130.479C438.889 131.193 438.426 132.16 438.297 133.379V146H435.027V133.537C435.027 130.771 433.674 129.389 430.967 129.389C428.834 129.389 427.375 130.297 426.59 132.113V146H423.338V126.98H426.414Z" fill="white"/>
<path d="M454.064 136.314C454.064 134.451 454.428 132.775 455.154 131.287C455.893 129.799 456.912 128.65 458.213 127.842C459.525 127.033 461.02 126.629 462.695 126.629C465.285 126.629 467.377 127.525 468.971 129.318C470.576 131.111 471.379 133.496 471.379 136.473V136.701C471.379 138.553 471.021 140.217 470.307 141.693C469.604 143.158 468.59 144.301 467.266 145.121C465.953 145.941 464.441 146.352 462.73 146.352C460.152 146.352 458.061 145.455 456.455 143.662C454.861 141.869 454.064 139.496 454.064 136.543V136.314ZM457.334 136.701C457.334 138.811 457.82 140.504 458.793 141.781C459.777 143.059 461.09 143.697 462.73 143.697C464.383 143.697 465.695 143.053 466.668 141.764C467.641 140.463 468.127 138.646 468.127 136.314C468.127 134.229 467.629 132.541 466.633 131.252C465.648 129.951 464.336 129.301 462.695 129.301C461.09 129.301 459.795 129.939 458.811 131.217C457.826 132.494 457.334 134.322 457.334 136.701Z" fill="white"/>
<path d="M486.531 140.955C486.531 140.076 486.197 139.396 485.529 138.916C484.873 138.424 483.719 138.002 482.066 137.65C480.426 137.299 479.119 136.877 478.146 136.385C477.186 135.893 476.471 135.307 476.002 134.627C475.545 133.947 475.316 133.139 475.316 132.201C475.316 130.643 475.973 129.324 477.285 128.246C478.609 127.168 480.297 126.629 482.348 126.629C484.504 126.629 486.25 127.186 487.586 128.299C488.934 129.412 489.607 130.836 489.607 132.57H486.338C486.338 131.68 485.957 130.912 485.195 130.268C484.445 129.623 483.496 129.301 482.348 129.301C481.164 129.301 480.238 129.559 479.57 130.074C478.902 130.59 478.568 131.264 478.568 132.096C478.568 132.881 478.879 133.473 479.5 133.871C480.121 134.27 481.24 134.65 482.857 135.014C484.486 135.377 485.805 135.811 486.812 136.314C487.82 136.818 488.564 137.428 489.045 138.143C489.537 138.846 489.783 139.707 489.783 140.727C489.783 142.426 489.104 143.791 487.744 144.822C486.385 145.842 484.621 146.352 482.453 146.352C480.93 146.352 479.582 146.082 478.41 145.543C477.238 145.004 476.318 144.254 475.65 143.293C474.994 142.32 474.666 141.271 474.666 140.146H477.918C477.977 141.236 478.41 142.104 479.219 142.748C480.039 143.381 481.117 143.697 482.453 143.697C483.684 143.697 484.668 143.451 485.406 142.959C486.156 142.455 486.531 141.787 486.531 140.955Z" fill="white"/>
<path d="M498.432 122.375V126.98H501.982V129.494H498.432V141.289C498.432 142.051 498.59 142.625 498.906 143.012C499.223 143.387 499.762 143.574 500.523 143.574C500.898 143.574 501.414 143.504 502.07 143.363V146C501.215 146.234 500.383 146.352 499.574 146.352C498.121 146.352 497.025 145.912 496.287 145.033C495.549 144.154 495.18 142.906 495.18 141.289V129.494H491.717V126.98H495.18V122.375H498.432Z" fill="white"/>
<path d="M514.99 129.898C514.498 129.816 513.965 129.775 513.391 129.775C511.258 129.775 509.811 130.684 509.049 132.5V146H505.797V126.98H508.961L509.014 129.178C510.08 127.479 511.592 126.629 513.549 126.629C514.182 126.629 514.662 126.711 514.99 126.875V129.898Z" fill="white"/>
<path d="M529.035 146C528.848 145.625 528.695 144.957 528.578 143.996C527.066 145.566 525.262 146.352 523.164 146.352C521.289 146.352 519.748 145.824 518.541 144.77C517.346 143.703 516.748 142.355 516.748 140.727C516.748 138.746 517.498 137.211 518.998 136.121C520.51 135.02 522.631 134.469 525.361 134.469H528.525V132.975C528.525 131.838 528.186 130.936 527.506 130.268C526.826 129.588 525.824 129.248 524.5 129.248C523.34 129.248 522.367 129.541 521.582 130.127C520.797 130.713 520.404 131.422 520.404 132.254H517.135C517.135 131.305 517.469 130.391 518.137 129.512C518.816 128.621 519.73 127.918 520.879 127.402C522.039 126.887 523.311 126.629 524.693 126.629C526.885 126.629 528.602 127.18 529.844 128.281C531.086 129.371 531.73 130.877 531.777 132.799V141.553C531.777 143.299 532 144.688 532.445 145.719V146H529.035ZM523.639 143.521C524.658 143.521 525.625 143.258 526.539 142.73C527.453 142.203 528.115 141.518 528.525 140.674V136.771H525.977C521.992 136.771 520 137.938 520 140.27C520 141.289 520.34 142.086 521.02 142.66C521.699 143.234 522.572 143.521 523.639 143.521Z" fill="white"/>
<path d="M536.084 136.332C536.084 133.414 536.775 131.07 538.158 129.301C539.541 127.52 541.352 126.629 543.59 126.629C545.816 126.629 547.58 127.391 548.881 128.914V119H552.133V146H549.145L548.986 143.961C547.686 145.555 545.875 146.352 543.555 146.352C541.352 146.352 539.553 145.449 538.158 143.645C536.775 141.84 536.084 139.484 536.084 136.578V136.332ZM539.336 136.701C539.336 138.857 539.781 140.545 540.672 141.764C541.562 142.982 542.793 143.592 544.363 143.592C546.426 143.592 547.932 142.666 548.881 140.814V132.078C547.908 130.285 546.414 129.389 544.398 129.389C542.805 129.389 541.562 130.004 540.672 131.234C539.781 132.465 539.336 134.287 539.336 136.701Z" fill="white"/>
<path d="M556.334 136.314C556.334 134.451 556.697 132.775 557.424 131.287C558.162 129.799 559.182 128.65 560.482 127.842C561.795 127.033 563.289 126.629 564.965 126.629C567.555 126.629 569.646 127.525 571.24 129.318C572.846 131.111 573.648 133.496 573.648 136.473V136.701C573.648 138.553 573.291 140.217 572.576 141.693C571.873 143.158 570.859 144.301 569.535 145.121C568.223 145.941 566.711 146.352 565 146.352C562.422 146.352 560.33 145.455 558.725 143.662C557.131 141.869 556.334 139.496 556.334 136.543V136.314ZM559.604 136.701C559.604 138.811 560.09 140.504 561.062 141.781C562.047 143.059 563.359 143.697 565 143.697C566.652 143.697 567.965 143.053 568.938 141.764C569.91 140.463 570.396 138.646 570.396 136.314C570.396 134.229 569.898 132.541 568.902 131.252C567.918 129.951 566.605 129.301 564.965 129.301C563.359 129.301 562.064 129.939 561.08 131.217C560.096 132.494 559.604 134.322 559.604 136.701Z" fill="white"/>
</g>
<g id="Group 366">
<path id="Line 165 (Stroke)" fill-rule="evenodd" clip-rule="evenodd" d="M456.354 412.491V457H451.354V412.491H456.354Z" fill="white"/>
<path id="Line 176 (Stroke)" fill-rule="evenodd" clip-rule="evenodd" d="M372.677 187.266V245.128H367.677V187.266H372.677Z" fill="white"/>
<path id="Line 169 (Stroke)" fill-rule="evenodd" clip-rule="evenodd" d="M623.708 217.978V396.014H618.708V217.978H623.708Z" fill="white"/>
<path id="Line 172 (Stroke)" fill-rule="evenodd" clip-rule="evenodd" d="M540.031 247.354V380.881H535.031V247.354H540.031Z" fill="white"/>
<path id="Line 168 (Stroke)" fill-rule="evenodd" clip-rule="evenodd" d="M289 275.839V396.014H284V275.839H289Z" fill="white"/>
<path id="Line 166 (Stroke)" fill-rule="evenodd" clip-rule="evenodd" d="M623.653 396.014L456.354 456.906L454.644 452.208L621.943 391.316L623.653 396.014Z" fill="white"/>
<path id="Line 170 (Stroke)" fill-rule="evenodd" clip-rule="evenodd" d="M540.003 380.881L456.354 411.327L454.644 406.628L538.293 376.182L540.003 380.881Z" fill="white"/>
<path id="Line 179 (Stroke)" fill-rule="evenodd" clip-rule="evenodd" d="M372.65 247.354L289 277.8L287.29 273.101L370.939 242.655L372.65 247.354Z" fill="white"/>
<path id="Line 180 (Stroke)" fill-rule="evenodd" clip-rule="evenodd" d="M456.327 277.62L372.677 308.066L370.967 303.367L454.616 272.921L456.327 277.62Z" fill="white"/>
<path id="Line 171 (Stroke)" fill-rule="evenodd" clip-rule="evenodd" d="M623.68 217.978L540.031 248.424L538.321 243.725L621.97 213.279L623.68 217.978Z" fill="white"/>
<path id="Line 177 (Stroke)" fill-rule="evenodd" clip-rule="evenodd" d="M456.327 157.001L372.677 187.447L370.967 182.748L454.616 152.302L456.327 157.001Z" fill="white"/>
<path id="Line 167 (Stroke)" fill-rule="evenodd" clip-rule="evenodd" d="M456.299 456.906L289 396.014L290.71 391.315L458.009 452.207L456.299 456.906Z" fill="white"/>
<path id="Line 175 (Stroke)" fill-rule="evenodd" clip-rule="evenodd" d="M539.976 248.604L372.677 187.712L374.387 183.013L541.686 243.905L539.976 248.604Z" fill="white"/>
<path id="Line 174 (Stroke)" fill-rule="evenodd" clip-rule="evenodd" d="M623.653 217.892L456.354 157L458.064 152.302L625.363 213.194L623.653 217.892Z" fill="white"/>
<path id="Line 173 (Stroke)" fill-rule="evenodd" clip-rule="evenodd" d="M372.65 309.401L289 278.955L290.71 274.257L374.36 304.703L372.65 309.401Z" fill="white"/>
<path id="Line 178 (Stroke)" fill-rule="evenodd" clip-rule="evenodd" d="M456.327 275.574L372.677 245.128L374.387 240.43L458.037 270.876L456.327 275.574Z" fill="white"/>
<path id="Line 181 (Stroke)" fill-rule="evenodd" clip-rule="evenodd" d="M456.354 411.147L372.677 306.996L375.795 304.49L459.472 408.641L456.354 411.147Z" fill="white"/>
<path id="Line 182 (Stroke)" fill-rule="evenodd" clip-rule="evenodd" d="M540.031 380.88L456.354 276.729L459.472 274.224L543.149 378.375L540.031 380.88Z" fill="white"/>
</g>
<g id="Group 373">
<g id="Group 367">
<path id="Rectangle 192 (Stroke)" fill-rule="evenodd" clip-rule="evenodd" d="M184.2 475.8H67.8V592.2H184.2V475.8ZM66 474V594H186V474H66Z" fill="white"/>
<path id="Line 183 (Stroke)" fill-rule="evenodd" clip-rule="evenodd" d="M127.8 521.4H66V519.6H127.8V521.4Z" fill="white"/>
<path id="Line 184 (Stroke)" fill-rule="evenodd" clip-rule="evenodd" d="M126 592.2V521.4H127.8V592.2H126Z" fill="white"/>
<path id="Line 185 (Stroke)" fill-rule="evenodd" clip-rule="evenodd" d="M184.2 592.2L126 521.4L127.391 520.257L185.591 591.057L184.2 592.2Z" fill="white"/>
</g>
<g id="Group 369">
<path id="Rectangle 192 (Stroke)_2" fill-rule="evenodd" clip-rule="evenodd" d="M469.2 477.8H352.8V594.2H469.2V477.8ZM351 476V596H471V476H351Z" fill="white"/>
<path id="Line 183 (Stroke)_2" fill-rule="evenodd" clip-rule="evenodd" d="M412.8 523.4H351V521.6H412.8V523.4Z" fill="white"/>
<path id="Line 185 (Stroke)_2" fill-rule="evenodd" clip-rule="evenodd" d="M469.2 594.2L411 523.4L412.391 522.257L470.591 593.057L469.2 594.2Z" fill="white"/>
</g>
<g id="Group 370">
<path id="Rectangle 192 (Stroke)_3" fill-rule="evenodd" clip-rule="evenodd" d="M609.2 477.8H492.8V594.2H609.2V477.8ZM491 476V596H611V476H491Z" fill="white"/>
<path id="Line 183 (Stroke)_3" fill-rule="evenodd" clip-rule="evenodd" d="M552.8 523.4H491V521.6H552.8V523.4Z" fill="white"/>
<path id="Line 185 (Stroke)_3" fill-rule="evenodd" clip-rule="evenodd" d="M611.012 562.982L551 523.4L551.991 521.897L612.003 561.48L611.012 562.982Z" fill="white"/>
</g>
<g id="Group 371">
<path id="Rectangle 192 (Stroke)_4" fill-rule="evenodd" clip-rule="evenodd" d="M694.1 476.8H750.2V593.2H633.8V562.899H694.1V476.8ZM632 561.099H692.3V475H752V595H632V561.099Z" fill="white"/>
<path id="Line 186 (Stroke)" fill-rule="evenodd" clip-rule="evenodd" d="M693.8 522.399H632V520.599H693.8V522.399Z" fill="white"/>
<path id="Line 185 (Stroke)_4" fill-rule="evenodd" clip-rule="evenodd" d="M634.1 520.598V562.002H632.3V520.598H634.1Z" fill="white"/>
</g>
<g id="Group 372">
<path id="Rectangle 192 (Stroke)_5" fill-rule="evenodd" clip-rule="evenodd" d="M835.082 476.8H891.182V593.2H774.782V562.899H835.082V476.8ZM772.982 561.099H833.282V475H892.982V595H772.982V561.099Z" fill="white"/>
<path id="Line 186 (Stroke)_2" fill-rule="evenodd" clip-rule="evenodd" d="M834.782 522.4L772.982 562.6L772 561.091L833.8 520.891L834.782 522.4Z" fill="white"/>
</g>
<g id="Group 368">
<path id="Rectangle 192 (Stroke)_6" fill-rule="evenodd" clip-rule="evenodd" d="M324.2 477.8H207.8V594.2H324.2V477.8ZM206 476V596H326V476H206Z" fill="white"/>
<path id="Line 183 (Stroke)_4" fill-rule="evenodd" clip-rule="evenodd" d="M326 536H206V534.2H326V536Z" fill="white"/>
<path id="Line 184 (Stroke)_2" fill-rule="evenodd" clip-rule="evenodd" d="M266 594.2V536H267.8V594.2H266Z" fill="white"/>
</g>
</g>
<g id="Group 374">
<path id="1" d="M128.814 634H125.545V612.326L118.988 614.734V611.781L128.305 608.283H128.814V634Z" fill="white"/>
<path id="2" d="M274.896 636H258.127V633.662L266.986 623.818C268.299 622.33 269.201 621.123 269.693 620.197C270.197 619.26 270.449 618.293 270.449 617.297C270.449 615.961 270.045 614.865 269.236 614.01C268.428 613.154 267.35 612.727 266.002 612.727C264.385 612.727 263.125 613.189 262.223 614.115C261.332 615.029 260.887 616.307 260.887 617.947H257.635C257.635 615.592 258.391 613.688 259.902 612.234C261.426 610.781 263.459 610.055 266.002 610.055C268.381 610.055 270.262 610.682 271.645 611.936C273.027 613.178 273.719 614.836 273.719 616.91C273.719 619.43 272.113 622.43 268.902 625.91L262.047 633.346H274.896V636Z" fill="white"/>
<path id="3" d="M406.855 621.621H409.299C410.834 621.598 412.041 621.193 412.92 620.408C413.799 619.623 414.238 618.562 414.238 617.227C414.238 614.227 412.744 612.727 409.756 612.727C408.35 612.727 407.225 613.131 406.381 613.939C405.549 614.736 405.133 615.797 405.133 617.121H401.881C401.881 615.094 402.619 613.412 404.096 612.076C405.584 610.729 407.471 610.055 409.756 610.055C412.17 610.055 414.062 610.693 415.434 611.971C416.805 613.248 417.49 615.023 417.49 617.297C417.49 618.41 417.127 619.488 416.4 620.531C415.686 621.574 414.707 622.354 413.465 622.869C414.871 623.314 415.955 624.053 416.717 625.084C417.49 626.115 417.877 627.375 417.877 628.863C417.877 631.16 417.127 632.982 415.627 634.33C414.127 635.678 412.176 636.352 409.773 636.352C407.371 636.352 405.414 635.701 403.902 634.4C402.402 633.1 401.652 631.383 401.652 629.25H404.922C404.922 630.598 405.361 631.676 406.24 632.484C407.119 633.293 408.297 633.697 409.773 633.697C411.344 633.697 412.545 633.287 413.377 632.467C414.209 631.646 414.625 630.469 414.625 628.934C414.625 627.445 414.168 626.303 413.254 625.506C412.34 624.709 411.021 624.299 409.299 624.275H406.855V621.621Z" fill="white"/>
<path id="4" d="M549.855 627.404H553.406V630.059H549.855V636H546.586V630.059H534.932V628.143L546.393 610.406H549.855V627.404ZM538.623 627.404H546.586V614.854L546.199 615.557L538.623 627.404Z" fill="white"/>
<path id="5" d="M686.621 623.168L687.922 610.406H701.035V613.412H690.682L689.908 620.391C691.162 619.652 692.586 619.283 694.18 619.283C696.512 619.283 698.363 620.057 699.734 621.604C701.105 623.139 701.791 625.219 701.791 627.844C701.791 630.48 701.076 632.561 699.646 634.084C698.229 635.596 696.242 636.352 693.688 636.352C691.426 636.352 689.58 635.725 688.15 634.471C686.721 633.217 685.906 631.482 685.707 629.268H688.783C688.982 630.732 689.504 631.84 690.348 632.59C691.191 633.328 692.305 633.697 693.688 633.697C695.199 633.697 696.383 633.182 697.238 632.15C698.105 631.119 698.539 629.695 698.539 627.879C698.539 626.168 698.07 624.797 697.133 623.766C696.207 622.723 694.971 622.201 693.424 622.201C692.006 622.201 690.893 622.512 690.084 623.133L689.223 623.836L686.621 623.168Z" fill="white"/>
<path id="6" d="M846.889 610.389V613.148H846.291C843.76 613.195 841.744 613.945 840.244 615.398C838.744 616.852 837.877 618.896 837.643 621.533C838.99 619.986 840.83 619.213 843.162 619.213C845.389 619.213 847.164 619.998 848.488 621.568C849.824 623.139 850.492 625.166 850.492 627.65C850.492 630.287 849.771 632.396 848.33 633.979C846.9 635.561 844.979 636.352 842.564 636.352C840.115 636.352 838.129 635.414 836.605 633.539C835.082 631.652 834.32 629.227 834.32 626.262V625.014C834.32 620.303 835.322 616.705 837.326 614.221C839.342 611.725 842.336 610.447 846.309 610.389H846.889ZM842.617 621.92C841.504 621.92 840.479 622.254 839.541 622.922C838.604 623.59 837.953 624.428 837.59 625.436V626.631C837.59 628.74 838.064 630.439 839.014 631.729C839.963 633.018 841.146 633.662 842.564 633.662C844.029 633.662 845.178 633.123 846.01 632.045C846.854 630.967 847.275 629.555 847.275 627.809C847.275 626.051 846.848 624.633 845.992 623.555C845.148 622.465 844.023 621.92 842.617 621.92Z" fill="white"/>
</g>
</g>
<g id="claves">
<g id="Group 21">
<path id="Rectangle 4" d="M39 729H255.745L289 769L255.745 809H39V729Z" fill="#CD08D1" fill-opacity="0.1"/>
<path id="Rectangle 4 (Stroke)" fill-rule="evenodd" clip-rule="evenodd" d="M254.338 732H42V806H254.338L285.099 769L254.338 732ZM255.745 729H39V809H255.745L289 769L255.745 729Z" fill="#CD08D1"/>
<path id="Ellipse 1" d="M80 769C80 791.091 62.0914 809 40 809C17.9086 809 0 791.091 0 769C0 746.909 17.9086 729 40 729C62.0914 729 80 746.909 80 769Z" fill="#CD08D1"/>
<path id="A" d="M48.0938 779.406H30.4688L26.7812 790H18.5625L35.75 744.5H42.8438L60.0625 790H51.8125L48.0938 779.406ZM32.6875 773.031H45.875L39.2812 754.156L32.6875 773.031Z" fill="white"/>
</g>
<g id="Group 17">
<path id="Rectangle 5" d="M382 729H598.745L632 769L598.745 809H382V729Z" fill="#CD08D1" fill-opacity="0.1"/>
<path id="Rectangle 5 (Stroke)" fill-rule="evenodd" clip-rule="evenodd" d="M597.338 732H385V806H597.338L628.099 769L597.338 732ZM598.745 729H382V809H598.745L632 769L598.745 729Z" fill="#CD08D1"/>
<path id="Ellipse 2" d="M423 769C423 791.091 405.091 809 383 809C360.909 809 343 791.091 343 769C343 746.909 360.909 729 383 729C405.091 729 423 746.909 423 769Z" fill="#CD08D1"/>
<path id="B" d="M366.625 785V739.5H382.219C387.365 739.5 391.281 740.531 393.969 742.594C396.656 744.656 398 747.729 398 751.812C398 753.896 397.438 755.771 396.312 757.438C395.188 759.104 393.542 760.396 391.375 761.312C393.833 761.979 395.729 763.24 397.062 765.094C398.417 766.927 399.094 769.135 399.094 771.719C399.094 775.99 397.719 779.271 394.969 781.562C392.24 783.854 388.323 785 383.219 785H366.625ZM374.531 764.469V778.688H383.312C385.792 778.688 387.729 778.073 389.125 776.844C390.521 775.615 391.219 773.906 391.219 771.719C391.219 766.99 388.802 764.573 383.969 764.469H374.531ZM374.531 758.656H382.281C384.74 758.656 386.656 758.104 388.031 757C389.427 755.875 390.125 754.292 390.125 752.25C390.125 750 389.479 748.375 388.188 747.375C386.917 746.375 384.927 745.875 382.219 745.875H374.531V758.656Z" fill="white"/>
</g>
<g id="Group 18">
<path id="Rectangle 6" d="M740 785H956.745L990 825L956.745 865H740V785Z" fill="#CD08D1" fill-opacity="0.1"/>
<path id="Rectangle 6 (Stroke)" fill-rule="evenodd" clip-rule="evenodd" d="M955.338 788H743V862H955.338L986.099 825L955.338 788ZM956.745 785H740V865H956.745L990 825L956.745 785Z" fill="#CD08D1"/>
<path id="Ellipse 3" d="M781 825C781 847.091 763.091 865 741 865C718.909 865 701 847.091 701 825C701 802.909 718.909 785 741 785C763.091 785 781 802.909 781 825Z" fill="#CD08D1"/>
<path id="C" d="M758.344 832.188C757.885 837.042 756.094 840.833 752.969 843.562C749.844 846.271 745.688 847.625 740.5 847.625C736.875 847.625 733.677 846.771 730.906 845.062C728.156 843.333 726.031 840.885 724.531 837.719C723.031 834.552 722.25 830.875 722.188 826.688V822.438C722.188 818.146 722.948 814.365 724.469 811.094C725.99 807.823 728.167 805.302 731 803.531C733.854 801.76 737.146 800.875 740.875 800.875C745.896 800.875 749.938 802.24 753 804.969C756.062 807.698 757.844 811.552 758.344 816.531H750.469C750.094 813.26 749.135 810.906 747.594 809.469C746.073 808.01 743.833 807.281 740.875 807.281C737.438 807.281 734.792 808.542 732.938 811.062C731.104 813.562 730.167 817.24 730.125 822.094V826.125C730.125 831.042 731 834.792 732.75 837.375C734.521 839.958 737.104 841.25 740.5 841.25C743.604 841.25 745.938 840.552 747.5 839.156C749.062 837.76 750.052 835.438 750.469 832.188H758.344Z" fill="white"/>
</g>
<g id="Group 19">
<path id="Rectangle 7" d="M40 834H256.745L290 874L256.745 914H40V834Z" fill="#CD08D1" fill-opacity="0.1"/>
<path id="Rectangle 7 (Stroke)" fill-rule="evenodd" clip-rule="evenodd" d="M255.338 837H43V911H255.338L286.099 874L255.338 837ZM256.745 834H40V914H256.745L290 874L256.745 834Z" fill="#CD08D1"/>
<path id="Ellipse 4" d="M81 874C81 896.091 63.0914 914 41 914C18.9086 914 1 896.091 1 874C1 851.909 18.9086 834 41 834C63.0914 834 81 851.909 81 874Z" fill="#CD08D1"/>
<path id="D" d="M23.625 896V850.5H37.0625C41.0833 850.5 44.6458 851.396 47.75 853.188C50.875 854.979 53.2917 857.521 55 860.812C56.7083 864.104 57.5625 867.875 57.5625 872.125V874.406C57.5625 878.719 56.6979 882.51 54.9688 885.781C53.2604 889.052 50.8125 891.573 47.625 893.344C44.4583 895.115 40.8229 896 36.7188 896H23.625ZM31.5312 856.875V889.688H36.6875C40.8333 889.688 44.0104 888.396 46.2188 885.812C48.4479 883.208 49.5833 879.479 49.625 874.625V872.094C49.625 867.156 48.5521 863.385 46.4062 860.781C44.2604 858.177 41.1458 856.875 37.0625 856.875H31.5312Z" fill="white"/>
</g>
<g id="Group 20">
<path id="Rectangle 8" d="M382 834H598.745L632 874L598.745 914H382V834Z" fill="#CD08D1" fill-opacity="0.1"/>
<path id="Rectangle 8 (Stroke)" fill-rule="evenodd" clip-rule="evenodd" d="M597.338 837H385V911H597.338L628.099 874L597.338 837ZM598.745 834H382V914H598.745L632 874L598.745 834Z" fill="#CD08D1"/>
<path id="Ellipse 5" d="M423 874C423 896.091 405.091 914 383 914C360.909 914 343 896.091 343 874C343 851.909 360.909 834 383 834C405.091 834 423 851.909 423 874Z" fill="#CD08D1"/>
<path id="E" d="M392.219 875.688H373.531V889.688H395.375V896H365.625V850.5H395.156V856.875H373.531V869.438H392.219V875.688Z" fill="white"/>
</g>
<g id="1, 2 y 3 2, 4 y 5 2, 3 y 5 1, 3 y 5 2, 4 y 6">
<path d="M104.814 782H101.545V760.326L94.9883 762.734V759.781L104.305 756.283H104.814V782Z" fill="#CD08D1"/>
<path d="M114.57 787.098L112.725 785.832C113.826 784.297 114.4 782.715 114.447 781.086V778.15H117.629V780.699C117.629 781.883 117.336 783.066 116.75 784.25C116.176 785.434 115.449 786.383 114.57 787.098Z" fill="#CD08D1"/>
<path d="M147.107 782H130.338V779.662L139.197 769.818C140.51 768.33 141.412 767.123 141.904 766.197C142.408 765.26 142.66 764.293 142.66 763.297C142.66 761.961 142.256 760.865 141.447 760.01C140.639 759.154 139.561 758.727 138.213 758.727C136.596 758.727 135.336 759.189 134.434 760.115C133.543 761.029 133.098 762.307 133.098 763.947H129.846C129.846 761.592 130.602 759.688 132.113 758.234C133.637 756.781 135.67 756.055 138.213 756.055C140.592 756.055 142.473 756.682 143.855 757.936C145.238 759.178 145.93 760.836 145.93 762.91C145.93 765.43 144.324 768.43 141.113 771.91L134.258 779.346H147.107V782Z" fill="#CD08D1"/>
<path d="M166.039 777.236L170.469 762.98H173.949L166.303 784.936C165.119 788.1 163.238 789.682 160.66 789.682L160.045 789.629L158.832 789.4V786.764L159.711 786.834C160.812 786.834 161.668 786.611 162.277 786.166C162.898 785.721 163.408 784.906 163.807 783.723L164.527 781.789L157.742 762.98H161.293L166.039 777.236Z" fill="#CD08D1"/>
<path d="M190.191 767.621H192.635C194.17 767.598 195.377 767.193 196.256 766.408C197.135 765.623 197.574 764.562 197.574 763.227C197.574 760.227 196.08 758.727 193.092 758.727C191.686 758.727 190.561 759.131 189.717 759.939C188.885 760.736 188.469 761.797 188.469 763.121H185.217C185.217 761.094 185.955 759.412 187.432 758.076C188.92 756.729 190.807 756.055 193.092 756.055C195.506 756.055 197.398 756.693 198.77 757.971C200.141 759.248 200.826 761.023 200.826 763.297C200.826 764.41 200.463 765.488 199.736 766.531C199.021 767.574 198.043 768.354 196.801 768.869C198.207 769.314 199.291 770.053 200.053 771.084C200.826 772.115 201.213 773.375 201.213 774.863C201.213 777.16 200.463 778.982 198.963 780.33C197.463 781.678 195.512 782.352 193.109 782.352C190.707 782.352 188.75 781.701 187.238 780.4C185.738 779.1 184.988 777.383 184.988 775.25H188.258C188.258 776.598 188.697 777.676 189.576 778.484C190.455 779.293 191.633 779.697 193.109 779.697C194.68 779.697 195.881 779.287 196.713 778.467C197.545 777.646 197.961 776.469 197.961 774.934C197.961 773.445 197.504 772.303 196.59 771.506C195.676 770.709 194.357 770.299 192.635 770.275H190.191V767.621Z" fill="#CD08D1"/>
<path d="M463.549 782H446.779V779.662L455.639 769.818C456.951 768.33 457.854 767.123 458.346 766.197C458.85 765.26 459.102 764.293 459.102 763.297C459.102 761.961 458.697 760.865 457.889 760.01C457.08 759.154 456.002 758.727 454.654 758.727C453.037 758.727 451.777 759.189 450.875 760.115C449.984 761.029 449.539 762.307 449.539 763.947H446.287C446.287 761.592 447.043 759.688 448.555 758.234C450.078 756.781 452.111 756.055 454.654 756.055C457.033 756.055 458.914 756.682 460.297 757.936C461.68 759.178 462.371 760.836 462.371 762.91C462.371 765.43 460.766 768.43 457.555 771.91L450.699 779.346H463.549V782Z" fill="#CD08D1"/>
<path d="M467.223 787.098L465.377 785.832C466.479 784.297 467.053 782.715 467.1 781.086V778.15H470.281V780.699C470.281 781.883 469.988 783.066 469.402 784.25C468.828 785.434 468.102 786.383 467.223 787.098Z" fill="#CD08D1"/>
<path d="M496.719 773.404H500.27V776.059H496.719V782H493.449V776.059H481.795V774.143L493.256 756.406H496.719V773.404ZM485.486 773.404H493.449V760.854L493.062 761.557L485.486 773.404Z" fill="#CD08D1"/>
<path d="M518.691 777.236L523.121 762.98H526.602L518.955 784.936C517.771 788.1 515.891 789.682 513.312 789.682L512.697 789.629L511.484 789.4V786.764L512.363 786.834C513.465 786.834 514.32 786.611 514.93 786.166C515.551 785.721 516.061 784.906 516.459 783.723L517.18 781.789L510.395 762.98H513.945L518.691 777.236Z" fill="#CD08D1"/>
<path d="M539.609 769.168L540.91 756.406H554.023V759.412H543.67L542.896 766.391C544.15 765.652 545.574 765.283 547.168 765.283C549.5 765.283 551.352 766.057 552.723 767.604C554.094 769.139 554.779 771.219 554.779 773.844C554.779 776.48 554.064 778.561 552.635 780.084C551.217 781.596 549.23 782.352 546.676 782.352C544.414 782.352 542.568 781.725 541.139 780.471C539.709 779.217 538.895 777.482 538.695 775.268H541.771C541.971 776.732 542.492 777.84 543.336 778.59C544.18 779.328 545.293 779.697 546.676 779.697C548.188 779.697 549.371 779.182 550.227 778.15C551.094 777.119 551.527 775.695 551.527 773.879C551.527 772.168 551.059 770.797 550.121 769.766C549.195 768.723 547.959 768.201 546.412 768.201C544.994 768.201 543.881 768.512 543.072 769.133L542.211 769.836L539.609 769.168Z" fill="#CD08D1"/>
<path d="M816.342 837H799.572V834.662L808.432 824.818C809.744 823.33 810.646 822.123 811.139 821.197C811.643 820.26 811.895 819.293 811.895 818.297C811.895 816.961 811.49 815.865 810.682 815.01C809.873 814.154 808.795 813.727 807.447 813.727C805.83 813.727 804.57 814.189 803.668 815.115C802.777 816.029 802.332 817.307 802.332 818.947H799.08C799.08 816.592 799.836 814.688 801.348 813.234C802.871 811.781 804.904 811.055 807.447 811.055C809.826 811.055 811.707 811.682 813.09 812.936C814.473 814.178 815.164 815.836 815.164 817.91C815.164 820.43 813.559 823.43 810.348 826.91L803.492 834.346H816.342V837Z" fill="#CD08D1"/>
<path d="M820.016 842.098L818.17 840.832C819.271 839.297 819.846 837.715 819.893 836.086V833.15H823.074V835.699C823.074 836.883 822.781 838.066 822.195 839.25C821.621 840.434 820.895 841.383 820.016 842.098Z" fill="#CD08D1"/>
<path d="M840.512 822.621H842.955C844.49 822.598 845.697 822.193 846.576 821.408C847.455 820.623 847.895 819.562 847.895 818.227C847.895 815.227 846.4 813.727 843.412 813.727C842.006 813.727 840.881 814.131 840.037 814.939C839.205 815.736 838.789 816.797 838.789 818.121H835.537C835.537 816.094 836.275 814.412 837.752 813.076C839.24 811.729 841.127 811.055 843.412 811.055C845.826 811.055 847.719 811.693 849.09 812.971C850.461 814.248 851.146 816.023 851.146 818.297C851.146 819.41 850.783 820.488 850.057 821.531C849.342 822.574 848.363 823.354 847.121 823.869C848.527 824.314 849.611 825.053 850.373 826.084C851.146 827.115 851.533 828.375 851.533 829.863C851.533 832.16 850.783 833.982 849.283 835.33C847.783 836.678 845.832 837.352 843.43 837.352C841.027 837.352 839.07 836.701 837.559 835.4C836.059 834.1 835.309 832.383 835.309 830.25H838.578C838.578 831.598 839.018 832.676 839.896 833.484C840.775 834.293 841.953 834.697 843.43 834.697C845 834.697 846.201 834.287 847.033 833.467C847.865 832.646 848.281 831.469 848.281 829.934C848.281 828.445 847.824 827.303 846.91 826.506C845.996 825.709 844.678 825.299 842.955 825.275H840.512V822.621Z" fill="#CD08D1"/>
<path d="M871.484 832.236L875.914 817.98H879.395L871.748 839.936C870.564 843.1 868.684 844.682 866.105 844.682L865.49 844.629L864.277 844.4V841.764L865.156 841.834C866.258 841.834 867.113 841.611 867.723 841.166C868.344 840.721 868.854 839.906 869.252 838.723L869.973 836.789L863.188 817.98H866.738L871.484 832.236Z" fill="#CD08D1"/>
<path d="M892.402 824.168L893.703 811.406H906.816V814.412H896.463L895.689 821.391C896.943 820.652 898.367 820.283 899.961 820.283C902.293 820.283 904.145 821.057 905.516 822.604C906.887 824.139 907.572 826.219 907.572 828.844C907.572 831.48 906.857 833.561 905.428 835.084C904.01 836.596 902.023 837.352 899.469 837.352C897.207 837.352 895.361 836.725 893.932 835.471C892.502 834.217 891.688 832.482 891.488 830.268H894.564C894.764 831.732 895.285 832.84 896.129 833.59C896.973 834.328 898.086 834.697 899.469 834.697C900.98 834.697 902.164 834.182 903.02 833.15C903.887 832.119 904.32 830.695 904.32 828.879C904.32 827.168 903.852 825.797 902.914 824.766C901.988 823.723 900.752 823.201 899.205 823.201C897.787 823.201 896.674 823.512 895.865 824.133L895.004 824.836L892.402 824.168Z" fill="#CD08D1"/>
<path d="M104.814 892H101.545V870.326L94.9883 872.734V869.781L104.305 866.283H104.814V892Z" fill="#CD08D1"/>
<path d="M114.57 897.098L112.725 895.832C113.826 894.297 114.4 892.715 114.447 891.086V888.15H117.629V890.699C117.629 891.883 117.336 893.066 116.75 894.25C116.176 895.434 115.449 896.383 114.57 897.098Z" fill="#CD08D1"/>
<path d="M135.066 877.621H137.51C139.045 877.598 140.252 877.193 141.131 876.408C142.01 875.623 142.449 874.562 142.449 873.227C142.449 870.227 140.955 868.727 137.967 868.727C136.561 868.727 135.436 869.131 134.592 869.939C133.76 870.736 133.344 871.797 133.344 873.121H130.092C130.092 871.094 130.83 869.412 132.307 868.076C133.795 866.729 135.682 866.055 137.967 866.055C140.381 866.055 142.273 866.693 143.645 867.971C145.016 869.248 145.701 871.023 145.701 873.297C145.701 874.41 145.338 875.488 144.611 876.531C143.896 877.574 142.918 878.354 141.676 878.869C143.082 879.314 144.166 880.053 144.928 881.084C145.701 882.115 146.088 883.375 146.088 884.863C146.088 887.16 145.338 888.982 143.838 890.33C142.338 891.678 140.387 892.352 137.984 892.352C135.582 892.352 133.625 891.701 132.113 890.4C130.613 889.1 129.863 887.383 129.863 885.25H133.133C133.133 886.598 133.572 887.676 134.451 888.484C135.33 889.293 136.508 889.697 137.984 889.697C139.555 889.697 140.756 889.287 141.588 888.467C142.42 887.646 142.836 886.469 142.836 884.934C142.836 883.445 142.379 882.303 141.465 881.506C140.551 880.709 139.232 880.299 137.51 880.275H135.066V877.621Z" fill="#CD08D1"/>
<path d="M166.039 887.236L170.469 872.98H173.949L166.303 894.936C165.119 898.1 163.238 899.682 160.66 899.682L160.045 899.629L158.832 899.4V896.764L159.711 896.834C160.812 896.834 161.668 896.611 162.277 896.166C162.898 895.721 163.408 894.906 163.807 893.723L164.527 891.789L157.742 872.98H161.293L166.039 887.236Z" fill="#CD08D1"/>
<path d="M186.957 879.168L188.258 866.406H201.371V869.412H191.018L190.244 876.391C191.498 875.652 192.922 875.283 194.516 875.283C196.848 875.283 198.699 876.057 200.07 877.604C201.441 879.139 202.127 881.219 202.127 883.844C202.127 886.48 201.412 888.561 199.982 890.084C198.564 891.596 196.578 892.352 194.023 892.352C191.762 892.352 189.916 891.725 188.486 890.471C187.057 889.217 186.242 887.482 186.043 885.268H189.119C189.318 886.732 189.84 887.84 190.684 888.59C191.527 889.328 192.641 889.697 194.023 889.697C195.535 889.697 196.719 889.182 197.574 888.15C198.441 887.119 198.875 885.695 198.875 883.879C198.875 882.168 198.406 880.797 197.469 879.766C196.543 878.723 195.307 878.201 193.76 878.201C192.342 878.201 191.229 878.512 190.42 879.133L189.559 879.836L186.957 879.168Z" fill="#CD08D1"/>
<path d="M463.549 892H446.779V889.662L455.639 879.818C456.951 878.33 457.854 877.123 458.346 876.197C458.85 875.26 459.102 874.293 459.102 873.297C459.102 871.961 458.697 870.865 457.889 870.01C457.08 869.154 456.002 868.727 454.654 868.727C453.037 868.727 451.777 869.189 450.875 870.115C449.984 871.029 449.539 872.307 449.539 873.947H446.287C446.287 871.592 447.043 869.688 448.555 868.234C450.078 866.781 452.111 866.055 454.654 866.055C457.033 866.055 458.914 866.682 460.297 867.936C461.68 869.178 462.371 870.836 462.371 872.91C462.371 875.43 460.766 878.43 457.555 881.91L450.699 889.346H463.549V892Z" fill="#CD08D1"/>
<path d="M467.223 897.098L465.377 895.832C466.479 894.297 467.053 892.715 467.1 891.086V888.15H470.281V890.699C470.281 891.883 469.988 893.066 469.402 894.25C468.828 895.434 468.102 896.383 467.223 897.098Z" fill="#CD08D1"/>
<path d="M496.719 883.404H500.27V886.059H496.719V892H493.449V886.059H481.795V884.143L493.256 866.406H496.719V883.404ZM485.486 883.404H493.449V870.854L493.062 871.557L485.486 883.404Z" fill="#CD08D1"/>
<path d="M518.691 887.236L523.121 872.98H526.602L518.955 894.936C517.771 898.1 515.891 899.682 513.312 899.682L512.697 899.629L511.484 899.4V896.764L512.363 896.834C513.465 896.834 514.32 896.611 514.93 896.166C515.551 895.721 516.061 894.906 516.459 893.723L517.18 891.789L510.395 872.98H513.945L518.691 887.236Z" fill="#CD08D1"/>
<path d="M550.877 866.389V869.148H550.279C547.748 869.195 545.732 869.945 544.232 871.398C542.732 872.852 541.865 874.896 541.631 877.533C542.979 875.986 544.818 875.213 547.15 875.213C549.377 875.213 551.152 875.998 552.477 877.568C553.812 879.139 554.48 881.166 554.48 883.65C554.48 886.287 553.76 888.396 552.318 889.979C550.889 891.561 548.967 892.352 546.553 892.352C544.104 892.352 542.117 891.414 540.594 889.539C539.07 887.652 538.309 885.227 538.309 882.262V881.014C538.309 876.303 539.311 872.705 541.314 870.221C543.33 867.725 546.324 866.447 550.297 866.389H550.877ZM546.605 877.92C545.492 877.92 544.467 878.254 543.529 878.922C542.592 879.59 541.941 880.428 541.578 881.436V882.631C541.578 884.74 542.053 886.439 543.002 887.729C543.951 889.018 545.135 889.662 546.553 889.662C548.018 889.662 549.166 889.123 549.998 888.045C550.842 886.967 551.264 885.555 551.264 883.809C551.264 882.051 550.836 880.633 549.98 879.555C549.137 878.465 548.012 877.92 546.605 877.92Z" fill="#CD08D1"/>
</g>
<g id="flecha">
<path id="Rectangle 2" d="M391.2 727.008L406.482 735.133L364.5 814.089L349.219 805.964L391.2 727.008Z" fill="#1043F5"/>
<path id="Rectangle 1_2" d="M333 739.904L423 690V747.692L378 730.096L333 739.904Z" fill="#1043F5"/>
<path id="Rectangle 3" d="M337.038 809.209L352.666 782.142L369.936 781.564L354.309 808.631L337.038 809.209Z" fill="#1043F5"/>
<path id="Rectangle 4_2" d="M363.089 823.845L378.717 796.778L369.926 781.154L354.299 808.221L363.089 823.845Z" fill="#1043F5"/>
</g>
</g>
</g>
</svg>
