<svg viewBox="0 0 785 378" fill="none" xmlns="http://www.w3.org/2000/svg">
<g id="0127210">
<g id="Group 190">
<path id="Union" fill-rule="evenodd" clip-rule="evenodd" d="M0 129.223L1.41422 130.638L65.2717 194.495C50.6286 209.138 39.0131 226.522 31.0883 245.654C23.4187 264.17 19.3514 283.972 19.0973 304C19.0889 304.666 19.0847 305.333 19.0847 306H21.0847H174.777H176.777L332.469 306H334.469C334.469 305.333 334.465 304.666 334.457 304C334.203 283.972 330.135 264.17 322.466 245.654C314.541 226.522 302.925 209.138 288.282 194.495L352.139 130.637L353.553 129.223L353.527 129.197C353.064 128.734 352.6 128.273 352.133 127.815C305.39 81.812 242.414 56 176.777 56H174.777V56.008C109.861 56.5266 47.6887 82.2794 1.41986 127.815C0.953697 128.274 0.489151 128.734 0.0262299 129.197L0 129.223ZM174.777 58.0081C110.392 58.5266 48.7278 84.0687 2.83412 129.229L66.6947 193.09C75.5874 184.42 85.4556 176.848 96.0848 170.517L79.3953 142.495L78.3719 140.777L78.3998 140.76C78.9636 140.425 79.5288 140.092 80.0956 139.762C108.605 123.182 140.911 114.206 173.91 113.714C174.199 113.709 174.488 113.706 174.777 113.703V58.0081ZM174.777 115.703C174.498 115.706 174.219 115.709 173.94 115.713C141.291 116.2 109.328 125.079 81.119 141.481L97.8096 169.504C103.795 166.042 110.015 162.969 116.431 160.311C134.947 152.642 154.749 148.574 174.777 148.32V115.703ZM176.777 148.308V115.692C208.453 115.692 239.634 123.599 267.487 138.702L251.64 167.211C246.93 164.67 242.085 162.367 237.123 160.311C217.991 152.387 197.485 148.308 176.777 148.308C176.777 148.308 176.777 148.308 176.777 148.308ZM174.777 150.321C155.012 150.574 135.469 154.59 117.196 162.159C110.869 164.78 104.736 167.809 98.8331 171.223L174.777 298.733V150.321ZM176.777 301.884V150.308C176.777 150.308 176.777 150.308 176.777 150.308C197.223 150.308 217.468 154.335 236.358 162.159C241.249 164.185 246.025 166.456 250.668 168.959L176.777 301.884ZM176.777 113.692L176.777 58C241.883 58 304.351 83.6013 350.719 129.229L286.859 193.089C276.84 183.321 265.583 174.947 253.394 168.171L269.241 139.665L270.212 137.917L270.212 137.916C269.629 137.592 269.045 137.271 268.459 136.954C240.308 121.686 208.793 113.692 176.777 113.692ZM285.445 194.504L180.317 299.631L252.422 169.92C264.449 176.605 275.557 184.867 285.445 194.504ZM172.612 299.006L97.1082 172.235C86.6211 178.481 76.8842 185.951 68.109 194.504L172.612 299.006ZM66.6859 195.909C52.2285 210.366 40.7603 227.53 32.936 246.419C25.367 264.692 21.3514 284.235 21.0975 304H174.777L66.6859 195.909ZM178.777 304L286.868 195.909C301.325 210.366 312.794 227.53 320.618 246.419C328.187 264.692 332.202 284.235 332.456 304L178.777 304Z" fill="white"/>
<g id="Group 187">
<path id="1" d="M79.8145 56H76.5449V34.3262L69.9883 36.7344V33.7812L79.3047 30.2832H79.8145V56Z" fill="#2CF30B"/>
<path id="2" d="M283.896 56H267.127V53.6621L275.986 43.8184C277.299 42.3301 278.201 41.123 278.693 40.1973C279.197 39.2598 279.449 38.293 279.449 37.2969C279.449 35.9609 279.045 34.8652 278.236 34.0098C277.428 33.1543 276.35 32.7266 275.002 32.7266C273.385 32.7266 272.125 33.1895 271.223 34.1152C270.332 35.0293 269.887 36.3066 269.887 37.9473H266.635C266.635 35.5918 267.391 33.6875 268.902 32.2344C270.426 30.7812 272.459 30.0547 275.002 30.0547C277.381 30.0547 279.262 30.6816 280.645 31.9355C282.027 33.1777 282.719 34.8359 282.719 36.9102C282.719 39.4297 281.113 42.4297 277.902 45.9102L271.047 53.3457H283.896V56Z" fill="#2CF30B"/>
</g>
<g id="Group 188">
<path id="1_2" d="M121.814 110H118.545V88.3262L111.988 90.7344V87.7812L121.305 84.2832H121.814V110Z" fill="#13EBF9"/>
<path id="2_2" d="M239.896 110H223.127V107.662L231.986 97.8184C233.299 96.3301 234.201 95.123 234.693 94.1973C235.197 93.2598 235.449 92.293 235.449 91.2969C235.449 89.9609 235.045 88.8652 234.236 88.0098C233.428 87.1543 232.35 86.7266 231.002 86.7266C229.385 86.7266 228.125 87.1895 227.223 88.1152C226.332 89.0293 225.887 90.3066 225.887 91.9473H222.635C222.635 89.5918 223.391 87.6875 224.902 86.2344C226.426 84.7812 228.459 84.0547 231.002 84.0547C233.381 84.0547 235.262 84.6816 236.645 85.9355C238.027 87.1777 238.719 88.8359 238.719 90.9102C238.719 93.4297 237.113 96.4297 233.902 99.9102L227.047 107.346H239.896V110Z" fill="#13EBF9"/>
</g>
<g id="Group 189">
<path id="1_3" d="M58.8145 265H55.5449V243.326L48.9883 245.734V242.781L58.3047 239.283H58.8145V265Z" fill="#E79720"/>
<path id="2_3" d="M103.896 205H87.127V202.662L95.9863 192.818C97.2988 191.33 98.2012 190.123 98.6934 189.197C99.1973 188.26 99.4492 187.293 99.4492 186.297C99.4492 184.961 99.0449 183.865 98.2363 183.01C97.4277 182.154 96.3496 181.727 95.002 181.727C93.3848 181.727 92.125 182.189 91.2227 183.115C90.332 184.029 89.8867 185.307 89.8867 186.947H86.6348C86.6348 184.592 87.3906 182.688 88.9023 181.234C90.4258 179.781 92.459 179.055 95.002 179.055C97.3809 179.055 99.2617 179.682 100.645 180.936C102.027 182.178 102.719 183.836 102.719 185.91C102.719 188.43 101.113 191.43 97.9023 194.91L91.0469 202.346H103.896V205Z" fill="#E79720"/>
<path id="3" d="M136.855 178.621H139.299C140.834 178.598 142.041 178.193 142.92 177.408C143.799 176.623 144.238 175.562 144.238 174.227C144.238 171.227 142.744 169.727 139.756 169.727C138.35 169.727 137.225 170.131 136.381 170.939C135.549 171.736 135.133 172.797 135.133 174.121H131.881C131.881 172.094 132.619 170.412 134.096 169.076C135.584 167.729 137.471 167.055 139.756 167.055C142.17 167.055 144.062 167.693 145.434 168.971C146.805 170.248 147.49 172.023 147.49 174.297C147.49 175.41 147.127 176.488 146.4 177.531C145.686 178.574 144.707 179.354 143.465 179.869C144.871 180.314 145.955 181.053 146.717 182.084C147.49 183.115 147.877 184.375 147.877 185.863C147.877 188.16 147.127 189.982 145.627 191.33C144.127 192.678 142.176 193.352 139.773 193.352C137.371 193.352 135.414 192.701 133.902 191.4C132.402 190.1 131.652 188.383 131.652 186.25H134.922C134.922 187.598 135.361 188.676 136.24 189.484C137.119 190.293 138.297 190.697 139.773 190.697C141.344 190.697 142.545 190.287 143.377 189.467C144.209 188.646 144.625 187.469 144.625 185.934C144.625 184.445 144.168 183.303 143.254 182.506C142.34 181.709 141.021 181.299 139.299 181.275H136.855V178.621Z" fill="#E79720"/>
<path id="4" d="M215.855 184.404H219.406V187.059H215.855V193H212.586V187.059H200.932V185.143L212.393 167.406H215.855V184.404ZM204.623 184.404H212.586V171.854L212.199 172.557L204.623 184.404Z" fill="#E79720"/>
<path id="5" d="M248.621 201.168L249.922 188.406H263.035V191.412H252.682L251.908 198.391C253.162 197.652 254.586 197.283 256.18 197.283C258.512 197.283 260.363 198.057 261.734 199.604C263.105 201.139 263.791 203.219 263.791 205.844C263.791 208.48 263.076 210.561 261.646 212.084C260.229 213.596 258.242 214.352 255.688 214.352C253.426 214.352 251.58 213.725 250.15 212.471C248.721 211.217 247.906 209.482 247.707 207.268H250.783C250.982 208.732 251.504 209.84 252.348 210.59C253.191 211.328 254.305 211.697 255.688 211.697C257.199 211.697 258.383 211.182 259.238 210.15C260.105 209.119 260.539 207.695 260.539 205.879C260.539 204.168 260.07 202.797 259.133 201.766C258.207 200.723 256.971 200.201 255.424 200.201C254.006 200.201 252.893 200.512 252.084 201.133L251.223 201.836L248.621 201.168Z" fill="#E79720"/>
<path id="6" d="M300.889 239.389V242.148H300.291C297.76 242.195 295.744 242.945 294.244 244.398C292.744 245.852 291.877 247.896 291.643 250.533C292.99 248.986 294.83 248.213 297.162 248.213C299.389 248.213 301.164 248.998 302.488 250.568C303.824 252.139 304.492 254.166 304.492 256.65C304.492 259.287 303.771 261.396 302.33 262.979C300.9 264.561 298.979 265.352 296.564 265.352C294.115 265.352 292.129 264.414 290.605 262.539C289.082 260.652 288.32 258.227 288.32 255.262V254.014C288.32 249.303 289.322 245.705 291.326 243.221C293.342 240.725 296.336 239.447 300.309 239.389H300.889ZM296.617 250.92C295.504 250.92 294.479 251.254 293.541 251.922C292.604 252.59 291.953 253.428 291.59 254.436V255.631C291.59 257.74 292.064 259.439 293.014 260.729C293.963 262.018 295.146 262.662 296.564 262.662C298.029 262.662 299.178 262.123 300.01 261.045C300.854 259.967 301.275 258.555 301.275 256.809C301.275 255.051 300.848 253.633 299.992 252.555C299.148 251.465 298.023 250.92 296.617 250.92Z" fill="#E79720"/>
</g>
</g>
<g id="\#SC_1=\frac{2 \times3}{2}=3\;&#10;\#SC_2=\frac{2 \times3}{2}=3\;&#10;\#SC_3=\frac{6 \times7}{2}=21\;&#10;">
<g id="Group">
<g id="Group 193">
<g id="Group_2">
<path id="Vector" d="M434 39.0578C434 38.7176 434.183 38.4559 434.55 38.2727H444.088L445.737 32.1098C446.758 28.1321 447.36 26.0123 447.543 25.7506C447.674 25.5413 447.87 25.4366 448.132 25.4366C448.603 25.4366 448.864 25.6721 448.917 26.1432C448.917 26.2479 448.393 28.2629 447.346 32.1883C446.273 36.0614 445.737 38.0634 445.737 38.1942L445.698 38.2727H453.117L454.765 32.1098C455.838 28.0536 456.427 25.9469 456.532 25.7899C456.689 25.5544 456.898 25.4366 457.16 25.4366C457.343 25.4366 457.513 25.502 457.67 25.6329C457.827 25.7637 457.906 25.9077 457.906 26.0647C457.906 26.3264 457.395 28.3676 456.375 32.1883C455.302 36.0614 454.765 38.0634 454.765 38.1942L454.726 38.2727H461.713C462.106 38.4821 462.302 38.7438 462.302 39.0578C462.302 39.398 462.171 39.6074 461.91 39.6859C461.648 39.7644 461.059 39.8167 460.143 39.8429H457.984H454.255L453.47 42.8262L452.646 45.8488C452.646 45.8749 454.164 45.888 457.199 45.888H460.065C461.007 45.888 461.609 45.9273 461.87 46.0058C462.132 46.0843 462.276 46.3067 462.302 46.6731C462.328 47.0395 462.132 47.3012 461.713 47.4582H452.175L450.526 53.6211C449.453 57.6774 448.864 59.784 448.76 59.941C448.603 60.1765 448.393 60.2943 448.132 60.2943C447.948 60.2943 447.778 60.2289 447.621 60.098C447.464 59.9672 447.386 59.8102 447.386 59.627C447.386 59.3653 447.896 57.3241 448.917 53.5033C449.99 49.6826 450.526 47.6937 450.526 47.5367L450.565 47.4582H443.146L441.498 53.6211C440.425 57.6774 439.836 59.784 439.731 59.941C439.574 60.1765 439.365 60.2943 439.103 60.2943C438.92 60.2943 438.75 60.2289 438.593 60.098C438.436 59.9672 438.357 59.8102 438.357 59.627C438.357 59.3653 438.868 57.3241 439.888 53.5033C440.961 49.6826 441.498 47.6937 441.498 47.5367L441.537 47.4582H434.55C434.183 47.275 434 47.0133 434 46.6731C434 46.2806 434.209 46.0189 434.628 45.888H442.008L442.793 42.9047L443.617 39.8821C443.617 39.856 442.113 39.8429 439.103 39.8429H434.628C434.209 39.712 434 39.4503 434 39.0578ZM452.646 39.8821C452.646 39.856 451.416 39.8429 448.956 39.8429H445.227L444.442 42.8262L443.617 45.8488C443.617 45.8749 444.847 45.888 447.307 45.888H451.036L451.821 42.9047L452.646 39.8821Z" fill="white"/>
</g>
<g id="Group_3">
<path id="Vector_2" d="M476.592 51.7371C478.136 51.7371 479.549 51.0567 480.831 49.6958C482.114 48.335 482.768 46.7518 482.794 44.9461C482.794 43.2974 482.114 42.159 480.753 41.531C477.979 40.8244 476.199 40.3403 475.414 40.0786C474.629 39.8169 474.08 39.5552 473.766 39.2935C472.196 38.1944 471.41 36.6111 471.41 34.5437C471.41 32.9474 471.829 31.495 472.667 30.1865C473.504 28.8781 474.355 27.8967 475.218 27.2425C475.977 26.5882 476.893 26.0648 477.966 25.6723C479.039 25.2798 479.876 25.0704 480.478 25.0442H480.91H481.185C483.697 25.0442 485.516 25.8816 486.641 27.5565C486.667 27.5565 486.837 27.3864 487.151 27.0462C487.465 26.706 487.806 26.3265 488.172 25.9078C488.538 25.4891 488.8 25.2012 488.957 25.0442C488.983 25.0442 489.036 25.0442 489.114 25.0442C489.193 25.0442 489.258 25.0311 489.31 25.005C489.651 25.005 489.821 25.0966 489.821 25.2798C489.821 25.4629 489.454 27.0462 488.722 30.0295C487.989 33.0128 487.57 34.5568 487.465 34.6615C487.361 34.7662 487.151 34.8054 486.837 34.7793C486.314 34.7793 486.052 34.6615 486.052 34.426C486.052 34.269 486.065 34.1381 486.092 34.0334C486.092 33.9549 486.105 33.7063 486.131 33.2876C486.157 32.8689 486.183 32.5287 486.209 32.267C486.209 31.3772 486.092 30.6052 485.856 29.951C485.62 29.2968 485.385 28.8126 485.149 28.4986C484.914 28.1846 484.587 27.8574 484.168 27.5172C483.226 26.9677 482.153 26.6929 480.949 26.6929C479.458 26.6929 478.071 27.2948 476.788 28.4986C475.506 29.7024 474.852 31.0894 474.826 32.6595C474.826 33.4446 475.022 34.125 475.414 34.7008C475.807 35.2765 476.343 35.6821 477.024 35.9176C477.129 35.97 478.044 36.2186 479.772 36.6635C481.499 37.1083 482.375 37.3439 482.402 37.37C483.291 37.6579 484.155 38.286 484.992 39.2542C485.83 40.2225 486.249 41.531 486.249 43.1797C486.249 43.8601 486.144 44.5928 485.935 45.3779C485.804 45.9536 485.568 46.5948 485.228 47.3013C484.888 48.0079 484.417 48.7799 483.815 49.6173C483.213 50.4548 482.349 51.2398 481.224 51.9726C480.099 52.7053 478.869 53.2026 477.534 53.4642C477.22 53.5166 476.775 53.5428 476.199 53.5428C473.609 53.5428 471.594 52.8231 470.154 51.3838L469.762 50.952L468.663 52.1689C468.061 52.8754 467.694 53.2811 467.564 53.3857C467.433 53.4904 467.263 53.5428 467.053 53.5428C466.713 53.5428 466.543 53.4381 466.543 53.2287C466.543 53.1502 467.302 50.0753 468.82 44.004C468.872 43.847 469.134 43.7685 469.605 43.7685H470.115C470.272 43.9255 470.351 44.0694 470.351 44.2003C470.351 44.2526 470.338 44.3704 470.311 44.5535C470.285 44.7367 470.233 45.0115 470.154 45.3779C470.076 45.7443 470.05 46.1761 470.076 46.6733C470.128 47.6939 470.364 48.5575 470.782 49.2641C471.201 49.9706 471.764 50.494 472.47 50.8342C473.177 51.1744 473.857 51.4099 474.512 51.5408C475.166 51.6716 475.859 51.7371 476.592 51.7371Z" fill="white"/>
</g>
<g id="Group_4">
<g id="Group_5">
<path id="Vector_3" d="M491.782 42.7869C491.782 39.7774 492.659 36.8857 494.412 34.1117C496.166 31.3378 498.377 29.1395 501.046 27.517C503.715 25.8945 506.385 25.0702 509.054 25.044C511.409 25.044 513.28 25.7113 514.667 27.046C514.903 27.3077 515.099 27.5301 515.256 27.7133C515.413 27.8965 515.518 28.0273 515.57 28.1058L515.61 28.2236C515.688 28.2236 516.041 27.8834 516.669 27.203C516.853 27.046 517.049 26.8628 517.258 26.6534C517.468 26.4441 517.677 26.2347 517.886 26.0254C518.096 25.816 518.226 25.6721 518.279 25.5936L518.868 25.0048H519.103C519.469 25.0048 519.653 25.0964 519.653 25.2795C519.653 25.3842 519.234 27.1768 518.397 30.6574C517.454 34.2949 516.983 36.1268 516.983 36.1529C516.931 36.2838 516.866 36.3623 516.787 36.3885C516.709 36.4146 516.473 36.4408 516.081 36.467H515.452C515.295 36.31 515.217 36.1922 515.217 36.1137C515.217 36.0875 515.23 35.9959 515.256 35.8389C515.282 35.6819 515.309 35.4202 515.335 35.0538C515.361 34.6875 515.374 34.2687 515.374 33.7977C515.374 31.9397 514.955 30.3172 514.118 28.9302C513.28 27.5432 511.854 26.8366 509.839 26.8105C509.159 26.8105 508.426 26.902 507.641 27.0852C506.856 27.2684 505.914 27.5824 504.815 28.0273C503.715 28.4722 502.629 29.205 501.557 30.2256C500.484 31.2462 499.528 32.4631 498.691 33.8762C497.854 35.3679 497.186 37.1081 496.689 39.097C496.192 41.0859 495.943 42.7084 495.943 43.9645C495.943 46.9478 496.938 49.0937 498.926 50.4022C500.183 51.292 501.727 51.7368 503.558 51.7368C505.94 51.7368 508.06 50.8471 509.918 49.0676C511.776 47.288 513.006 45.3515 513.608 43.2579C513.712 42.9177 513.791 42.7215 513.843 42.6691C513.895 42.6168 514.105 42.5906 514.471 42.5906C514.995 42.5906 515.256 42.7084 515.256 42.9439C515.256 43.0748 515.243 43.1925 515.217 43.2972C514.458 46.0973 512.836 48.5049 510.349 50.52C507.863 52.535 505.194 53.5425 502.342 53.5425C499.384 53.5425 496.885 52.5612 494.844 50.5985C492.803 48.6358 491.782 46.0319 491.782 42.7869Z" fill="white"/>
</g>
<g id="Group_6">
<path id="Vector_4" d="M523.799 42.5261L523.438 42.6648C523.179 42.7574 522.809 42.8499 522.328 42.9424C521.847 43.0349 521.311 43.0996 520.719 43.1366H520.191V41.86H520.719C521.588 41.823 522.393 41.6842 523.133 41.4437C523.873 41.2032 524.391 40.9812 524.687 40.7777C524.983 40.5741 525.242 40.3706 525.464 40.1671C525.501 40.1116 525.612 40.0838 525.797 40.0838C525.964 40.0838 526.121 40.1393 526.269 40.2504V48.5484L526.297 56.8742C526.427 57.0037 526.538 57.087 526.63 57.124C526.723 57.161 526.945 57.198 527.296 57.235C527.648 57.272 528.221 57.2905 529.017 57.2905H529.738V58.5671H529.433C529.045 58.5116 527.574 58.4839 525.02 58.4839C522.504 58.4839 521.052 58.5116 520.663 58.5671H520.33V57.2905H521.052C521.459 57.2905 521.81 57.2905 522.106 57.2905C522.402 57.2905 522.634 57.2813 522.8 57.2628C522.967 57.2443 523.115 57.2165 523.244 57.1795C523.374 57.1425 523.448 57.124 523.466 57.124C523.485 57.124 523.54 57.0777 523.633 56.9852C523.725 56.8927 523.781 56.8557 523.799 56.8742V42.5261Z" fill="white"/>
</g>
</g>
<g id="Group_7">
<path id="Vector_5" d="M546.831 39.0579C546.831 38.7177 547.014 38.456 547.381 38.2728H572.386C572.778 38.4822 572.974 38.7439 572.974 39.0579C572.974 39.3458 572.791 39.5944 572.425 39.8038L559.942 39.843H547.459C547.04 39.7122 546.831 39.4505 546.831 39.0579ZM546.831 46.6732C546.831 46.2807 547.04 46.019 547.459 45.8881H572.425C572.791 46.1498 572.974 46.4115 572.974 46.6732C572.974 47.0134 572.778 47.2751 572.386 47.4583H547.381C547.014 47.2751 546.831 47.0134 546.831 46.6732Z" fill="white"/>
</g>
<g id="Group_8">
<g id="Group_9">
<g id="Group_10">
<path id="Vector_6" d="M598.985 9.3033C598.278 9.3033 597.716 9.06778 597.297 8.59673C596.878 8.12568 596.669 7.54995 596.669 6.86954C596.669 5.01151 597.362 3.40209 598.749 2.04128C600.136 0.68047 601.864 6.48499e-05 603.931 6.48499e-05C606.312 6.48499e-05 608.301 0.732809 609.898 2.1983C611.494 3.66379 612.305 5.56107 612.331 7.89015C612.331 9.01544 612.07 10.0884 611.546 11.109C611.023 12.1296 610.395 13.0194 609.662 13.7783C608.929 14.5372 607.883 15.5055 606.522 16.6831C605.58 17.4943 604.271 18.6981 602.596 20.2945L600.28 22.4927L603.264 22.532C607.372 22.532 609.557 22.4665 609.819 22.3357C610.002 22.2833 610.316 21.1188 610.761 18.8421V18.7243H612.331V18.8421C612.305 18.9206 612.135 20.1113 611.821 22.4142C611.507 24.7171 611.311 25.9209 611.232 26.0256V26.1433H596.669V25.3975V24.9265C596.669 24.7433 596.747 24.547 596.904 24.3376C597.061 24.1283 597.454 23.6703 598.082 22.9638C598.841 22.1263 599.495 21.3936 600.045 20.7655C600.28 20.5038 600.725 20.0197 601.379 19.3131C602.034 18.6065 602.479 18.1224 602.714 17.8607C602.95 17.599 603.329 17.1672 603.852 16.5653C604.376 15.9634 604.742 15.5185 604.952 15.2307C605.161 14.9428 605.462 14.5503 605.854 14.0531C606.247 13.5558 606.522 13.1371 606.679 12.7969C606.836 12.4567 607.032 12.0773 607.268 11.6586C607.503 11.2398 607.673 10.8211 607.778 10.4024C607.883 9.98371 607.974 9.59117 608.053 9.22479C608.131 8.85842 608.17 8.42663 608.17 7.92941C608.17 6.28073 607.726 4.8545 606.836 3.6507C605.946 2.44691 604.677 1.84501 603.028 1.84501C602.165 1.84501 601.406 2.06745 600.751 2.51233C600.097 2.95721 599.639 3.38901 599.377 3.80772C599.116 4.22643 598.985 4.47504 598.985 4.55355C598.985 4.57972 599.05 4.5928 599.181 4.5928C599.652 4.5928 600.136 4.77599 600.634 5.14236C601.131 5.50873 601.379 6.11063 601.379 6.94805C601.379 7.60229 601.17 8.15185 600.751 8.59673C600.333 9.04161 599.744 9.27713 598.985 9.3033Z" fill="white"/>
</g>
<g id="Group_11">
<path id="Vector_7" d="M647.783 25.005C647.783 25.5283 647.508 25.79 646.959 25.79C646.828 25.79 646.54 25.5807 646.095 25.162C645.65 24.7433 644.42 23.5264 642.405 21.5113L638.323 17.4289L634.201 21.5506C631.427 24.2722 630.001 25.6592 629.922 25.7115C629.818 25.7639 629.726 25.79 629.648 25.79C629.438 25.79 629.255 25.7115 629.098 25.5545C628.941 25.3975 628.849 25.2143 628.823 25.005C628.823 24.8218 629.006 24.5339 629.373 24.1414C629.739 23.7488 630.969 22.5058 633.063 20.4122L637.145 16.3298L633.063 12.2474C630.943 10.1276 629.713 8.88458 629.373 8.5182C629.033 8.15183 628.849 7.86397 628.823 7.65461C628.823 7.41909 628.902 7.2359 629.059 7.10505C629.216 6.97421 629.412 6.90878 629.648 6.90878C629.778 6.90878 629.87 6.92187 629.922 6.94804C630.001 7.00038 631.427 8.38736 634.201 11.109L638.323 15.2307L642.405 11.1482C644.42 9.13319 645.65 7.91631 646.095 7.4976C646.54 7.07889 646.828 6.86953 646.959 6.86953C647.508 6.86953 647.783 7.13122 647.783 7.65461C647.783 7.8378 647.652 8.07332 647.39 8.36119C647.129 8.64905 645.846 9.93135 643.544 12.2081L639.461 16.3298L643.544 20.4515C645.742 22.6497 646.998 23.9189 647.312 24.2591C647.626 24.5993 647.783 24.8479 647.783 25.005Z" fill="white"/>
</g>
<g id="Group_12">
<path id="Vector_8" d="M667.304 7.96862C666.598 7.96862 666.048 7.74618 665.656 7.3013C665.263 6.85642 665.054 6.28069 665.028 5.57412C665.028 4.1348 665.656 2.8525 666.912 1.72721C668.168 0.601925 669.686 0.0392818 671.465 0.0392818C672.381 0.0392818 672.957 0.0523675 673.193 0.078537C675.129 0.39257 676.608 1.08606 677.628 2.15901C678.649 3.23196 679.172 4.39649 679.198 5.65263C679.198 7.01344 678.754 8.335 677.864 9.6173C676.974 10.8996 675.744 11.8286 674.174 12.4043L674.056 12.4829C674.056 12.509 674.174 12.5483 674.409 12.6006C674.645 12.653 675.024 12.7707 675.548 12.9539C676.071 13.1371 676.568 13.4119 677.039 13.7782C679.185 15.1652 680.258 16.9971 680.258 19.2738C680.258 21.3412 679.447 23.1469 677.824 24.6909C676.202 26.2349 674.148 27.0069 671.662 27.0069C669.568 27.0069 667.762 26.4443 666.245 25.319C664.727 24.1937 663.968 22.7674 663.968 21.0403C663.968 20.3075 664.203 19.7187 664.674 19.2738C665.145 18.8289 665.734 18.5934 666.441 18.5673C667.174 18.5673 667.775 18.8028 668.246 19.2738C668.718 19.7449 668.953 20.3337 668.953 21.0403C668.953 21.3281 668.914 21.5898 668.835 21.8253C668.757 22.0609 668.665 22.2702 668.561 22.4534C668.456 22.6366 668.312 22.7936 668.129 22.9245C667.946 23.0553 667.789 23.16 667.658 23.2385C667.527 23.317 667.396 23.3693 667.265 23.3955C667.134 23.4217 667.03 23.4609 666.951 23.5133L666.794 23.5525C668.129 24.7302 669.751 25.319 671.662 25.319C673.101 25.319 674.187 24.6255 674.92 23.2385C675.365 22.3749 675.587 21.0533 675.587 19.2738V18.4887C675.587 16.0026 674.75 14.3409 673.075 13.5035C672.682 13.3464 671.884 13.2549 670.68 13.2287L669.032 13.1894L668.914 13.1109C668.861 13.0324 668.835 12.8231 668.835 12.4829C668.835 12.0118 668.94 11.7763 669.149 11.7763C669.882 11.7763 670.641 11.7109 671.426 11.58C672.316 11.4492 673.127 10.8996 673.86 9.93133C674.593 8.96306 674.959 7.49757 674.959 5.53487V5.22083C674.959 3.72917 674.501 2.69548 673.585 2.11975C673.009 1.75338 672.394 1.57019 671.74 1.57019C670.903 1.57019 670.131 1.71413 669.424 2.00199C668.718 2.28986 668.22 2.5908 667.932 2.90484C667.645 3.21887 667.501 3.37589 667.501 3.37589H667.618C667.697 3.40206 667.802 3.42823 667.932 3.4544C668.063 3.48056 668.194 3.54599 668.325 3.65067C668.456 3.75534 668.613 3.84694 668.796 3.92545C668.979 4.00395 669.11 4.14789 669.189 4.35724C669.267 4.5666 669.372 4.76287 669.503 4.94605C669.633 5.12924 669.673 5.39093 669.62 5.73114C669.62 6.30686 669.437 6.81717 669.071 7.26205C668.704 7.70693 668.116 7.94245 667.304 7.96862Z" fill="white"/>
</g>
</g>
<g id="Group_13">
<path id="Vector_9" d="M632.793 62.7674C632.086 62.7674 631.523 62.5319 631.105 62.0608C630.686 61.5898 630.477 61.0141 630.477 60.3337C630.477 58.4756 631.17 56.8662 632.557 55.5054C633.944 54.1446 635.671 53.4642 637.739 53.4642C640.12 53.4642 642.109 54.1969 643.705 55.6624C645.302 57.1279 646.113 59.0252 646.139 61.3543C646.139 62.4795 645.877 63.5525 645.354 64.5731C644.831 65.5937 644.202 66.4835 643.47 67.2424C642.737 68.0013 641.69 68.9696 640.329 70.1472C639.387 70.9585 638.079 72.1622 636.404 73.7586L634.088 75.9568L637.071 75.9961C641.18 75.9961 643.365 75.9306 643.627 75.7998C643.81 75.7475 644.124 74.5829 644.569 72.3062V72.1884H646.139V72.3062C646.113 72.3847 645.943 73.5754 645.629 75.8783C645.315 78.1812 645.118 79.385 645.04 79.4897V79.6075H630.477V78.8616V78.3906C630.477 78.2074 630.555 78.0111 630.712 77.8018C630.869 77.5924 631.262 77.1344 631.89 76.4279C632.649 75.5904 633.303 74.8577 633.852 74.2296C634.088 73.9679 634.533 73.4838 635.187 72.7772C635.841 72.0707 636.286 71.5865 636.522 71.3248C636.757 71.0631 637.137 70.6313 637.66 70.0294C638.183 69.4275 638.55 68.9827 638.759 68.6948C638.969 68.4069 639.269 68.0144 639.662 67.5172C640.055 67.0199 640.329 66.6012 640.486 66.261C640.643 65.9208 640.84 65.5414 641.075 65.1227C641.311 64.704 641.481 64.2852 641.585 63.8665C641.69 63.4478 641.782 63.0553 641.86 62.6889C641.939 62.3225 641.978 61.8907 641.978 61.3935C641.978 59.7448 641.533 58.3186 640.643 57.1148C639.754 55.911 638.484 55.3091 636.836 55.3091C635.972 55.3091 635.213 55.5316 634.559 55.9764C633.905 56.4213 633.447 56.8531 633.185 57.2718C632.923 57.6905 632.793 57.9391 632.793 58.0177C632.793 58.0438 632.858 58.0569 632.989 58.0569C633.46 58.0569 633.944 58.2401 634.441 58.6065C634.938 58.9728 635.187 59.5747 635.187 60.4122C635.187 61.0664 634.978 61.616 634.559 62.0608C634.14 62.5057 633.551 62.7412 632.793 62.7674Z" fill="white"/>
</g>
<path id="Vector_10" d="M685.872 44.0432H590.783V41.6879H685.872V44.0432Z" fill="white"/>
</g>
<g id="Group_14">
<path id="Vector_11" d="M703.689 39.0579C703.689 38.7177 703.873 38.456 704.239 38.2728H729.244C729.636 38.4822 729.833 38.7439 729.833 39.0579C729.833 39.3458 729.65 39.5944 729.283 39.8038L716.8 39.843H704.318C703.899 39.7122 703.689 39.4505 703.689 39.0579ZM703.689 46.6732C703.689 46.2807 703.899 46.019 704.318 45.8881H729.283C729.65 46.1498 729.833 46.4115 729.833 46.6732C729.833 47.0134 729.636 47.2751 729.244 47.4583H704.239C703.873 47.2751 703.689 47.0134 703.689 46.6732Z" fill="white"/>
</g>
<g id="Group_15">
<path id="Vector_12" d="M747.921 34.5045C747.214 34.5045 746.664 34.282 746.272 33.8372C745.879 33.3923 745.67 32.8166 745.644 32.11C745.644 30.6707 746.272 29.3884 747.528 28.2631C748.784 27.1378 750.302 26.5751 752.082 26.5751C752.997 26.5751 753.573 26.5882 753.809 26.6144C755.745 26.9284 757.224 27.6219 758.244 28.6949C759.265 29.7678 759.788 30.9324 759.815 32.1885C759.815 33.5493 759.37 34.8709 758.48 36.1532C757.59 37.4355 756.36 38.3645 754.79 38.9402L754.672 39.0187C754.672 39.0449 754.79 39.0841 755.026 39.1365C755.261 39.1888 755.641 39.3066 756.164 39.4898C756.687 39.6729 757.185 39.9477 757.656 40.3141C759.802 41.7011 760.874 43.5329 760.874 45.8097C760.874 47.8771 760.063 49.6828 758.441 51.2268C756.818 52.7708 754.764 53.5428 752.278 53.5428C750.184 53.5428 748.379 52.9801 746.861 51.8548C745.343 50.7295 744.584 49.3033 744.584 47.5761C744.584 46.8434 744.82 46.2546 745.291 45.8097C745.762 45.3648 746.35 45.1293 747.057 45.1031C747.79 45.1031 748.392 45.3386 748.863 45.8097C749.334 46.2807 749.569 46.8695 749.569 47.5761C749.569 47.864 749.53 48.1257 749.452 48.3612C749.373 48.5967 749.281 48.8061 749.177 48.9893C749.072 49.1725 748.928 49.3295 748.745 49.4603C748.562 49.5912 748.405 49.6958 748.274 49.7744C748.143 49.8529 748.012 49.9052 747.881 49.9314C747.75 49.9575 747.646 49.9968 747.567 50.0491L747.41 50.0884C748.745 51.266 750.367 51.8548 752.278 51.8548C753.717 51.8548 754.803 51.1613 755.536 49.7744C755.981 48.9108 756.203 47.5892 756.203 45.8097V45.0246C756.203 42.5385 755.366 40.8767 753.691 40.0393C753.298 39.8823 752.5 39.7907 751.296 39.7645L749.648 39.7253L749.53 39.6468C749.478 39.5683 749.452 39.3589 749.452 39.0187C749.452 38.5477 749.556 38.3121 749.766 38.3121C750.498 38.3121 751.257 38.2467 752.042 38.1159C752.932 37.985 753.743 37.4355 754.476 36.4672C755.209 35.4989 755.575 34.0334 755.575 32.0707V31.7567C755.575 30.265 755.117 29.2313 754.201 28.6556C753.626 28.2892 753.011 28.1061 752.356 28.1061C751.519 28.1061 750.747 28.25 750.04 28.5378C749.334 28.8257 748.837 29.1267 748.549 29.4407C748.261 29.7547 748.117 29.9117 748.117 29.9117H748.235C748.313 29.9379 748.418 29.9641 748.549 29.9903C748.68 30.0164 748.81 30.0818 748.941 30.1865C749.072 30.2912 749.229 30.3828 749.412 30.4613C749.595 30.5398 749.726 30.6837 749.805 30.8931C749.883 31.1025 749.988 31.2987 750.119 31.4819C750.25 31.6651 750.289 31.9268 750.237 32.267C750.237 32.8427 750.053 33.353 749.687 33.7979C749.321 34.2428 748.732 34.4783 747.921 34.5045Z" fill="white"/>
</g>
</g>
<g id="Group 192">
<g id="Group_16">
<path id="Vector_13" d="M434 149.058C434 148.718 434.183 148.456 434.55 148.273H444.088L445.737 142.11C446.758 138.132 447.36 136.012 447.543 135.751C447.674 135.541 447.87 135.437 448.132 135.437C448.603 135.437 448.864 135.672 448.917 136.143C448.917 136.248 448.393 138.263 447.346 142.188C446.273 146.061 445.737 148.063 445.737 148.194L445.698 148.273H453.117L454.765 142.11C455.838 138.054 456.427 135.947 456.532 135.79C456.689 135.554 456.898 135.437 457.16 135.437C457.343 135.437 457.513 135.502 457.67 135.633C457.827 135.764 457.906 135.908 457.906 136.065C457.906 136.326 457.395 138.368 456.375 142.188C455.302 146.061 454.765 148.063 454.765 148.194L454.726 148.273H461.713C462.106 148.482 462.302 148.744 462.302 149.058C462.302 149.398 462.171 149.607 461.91 149.686C461.648 149.764 461.059 149.817 460.143 149.843H457.984H454.255L453.47 152.826L452.646 155.849C452.646 155.875 454.164 155.888 457.199 155.888H460.065C461.007 155.888 461.609 155.927 461.87 156.006C462.132 156.084 462.276 156.307 462.302 156.673C462.328 157.04 462.132 157.301 461.713 157.458H452.175L450.526 163.621C449.453 167.677 448.864 169.784 448.76 169.941C448.603 170.177 448.393 170.294 448.132 170.294C447.948 170.294 447.778 170.229 447.621 170.098C447.464 169.967 447.386 169.81 447.386 169.627C447.386 169.365 447.896 167.324 448.917 163.503C449.99 159.683 450.526 157.694 450.526 157.537L450.565 157.458H443.146L441.498 163.621C440.425 167.677 439.836 169.784 439.731 169.941C439.574 170.177 439.365 170.294 439.103 170.294C438.92 170.294 438.75 170.229 438.593 170.098C438.436 169.967 438.357 169.81 438.357 169.627C438.357 169.365 438.868 167.324 439.888 163.503C440.961 159.683 441.498 157.694 441.498 157.537L441.537 157.458H434.55C434.183 157.275 434 157.013 434 156.673C434 156.281 434.209 156.019 434.628 155.888H442.008L442.793 152.905L443.617 149.882C443.617 149.856 442.113 149.843 439.103 149.843H434.628C434.209 149.712 434 149.45 434 149.058ZM452.646 149.882C452.646 149.856 451.416 149.843 448.956 149.843H445.227L444.442 152.826L443.617 155.849C443.617 155.875 444.847 155.888 447.307 155.888H451.036L451.821 152.905L452.646 149.882Z" fill="white"/>
</g>
<g id="Group_17">
<path id="Vector_14" d="M476.59 161.737C478.134 161.737 479.547 161.057 480.83 159.696C482.112 158.335 482.766 156.752 482.792 154.946C482.792 153.297 482.112 152.159 480.751 151.531C477.977 150.824 476.198 150.34 475.412 150.079C474.627 149.817 474.078 149.555 473.764 149.293C472.194 148.194 471.409 146.611 471.409 144.544C471.409 142.947 471.827 141.495 472.665 140.187C473.502 138.878 474.353 137.897 475.216 137.242C475.975 136.588 476.891 136.065 477.964 135.672C479.037 135.28 479.874 135.07 480.476 135.044H480.908H481.183C483.695 135.044 485.514 135.882 486.639 137.556C486.665 137.556 486.835 137.386 487.149 137.046C487.463 136.706 487.804 136.327 488.17 135.908C488.536 135.489 488.798 135.201 488.955 135.044C488.981 135.044 489.034 135.044 489.112 135.044C489.191 135.044 489.256 135.031 489.308 135.005C489.649 135.005 489.819 135.097 489.819 135.28C489.819 135.463 489.452 137.046 488.72 140.03C487.987 143.013 487.568 144.557 487.463 144.661C487.359 144.766 487.149 144.805 486.835 144.779C486.312 144.779 486.05 144.661 486.05 144.426C486.05 144.269 486.063 144.138 486.09 144.033C486.09 143.955 486.103 143.706 486.129 143.288C486.155 142.869 486.181 142.529 486.207 142.267C486.207 141.377 486.09 140.605 485.854 139.951C485.619 139.297 485.383 138.813 485.147 138.499C484.912 138.185 484.585 137.857 484.166 137.517C483.224 136.968 482.151 136.693 480.947 136.693C479.456 136.693 478.069 137.295 476.786 138.499C475.504 139.702 474.85 141.089 474.824 142.66C474.824 143.445 475.02 144.125 475.412 144.701C475.805 145.276 476.341 145.682 477.022 145.918C477.127 145.97 478.042 146.219 479.77 146.663C481.497 147.108 482.374 147.344 482.4 147.37C483.289 147.658 484.153 148.286 484.99 149.254C485.828 150.223 486.247 151.531 486.247 153.18C486.247 153.86 486.142 154.593 485.933 155.378C485.802 155.954 485.566 156.595 485.226 157.301C484.886 158.008 484.415 158.78 483.813 159.617C483.211 160.455 482.347 161.24 481.222 161.973C480.097 162.705 478.867 163.203 477.532 163.464C477.218 163.517 476.773 163.543 476.198 163.543C473.607 163.543 471.592 162.823 470.152 161.384L469.76 160.952L468.661 162.169C468.059 162.875 467.692 163.281 467.562 163.386C467.431 163.49 467.261 163.543 467.051 163.543C466.711 163.543 466.541 163.438 466.541 163.229C466.541 163.15 467.3 160.075 468.818 154.004C468.87 153.847 469.132 153.768 469.603 153.768H470.113C470.27 153.925 470.349 154.069 470.349 154.2C470.349 154.253 470.336 154.37 470.309 154.554C470.283 154.737 470.231 155.012 470.152 155.378C470.074 155.744 470.048 156.176 470.074 156.673C470.126 157.694 470.362 158.557 470.78 159.264C471.199 159.971 471.762 160.494 472.468 160.834C473.175 161.174 473.855 161.41 474.51 161.541C475.164 161.672 475.857 161.737 476.59 161.737Z" fill="white"/>
</g>
<g id="Group_18">
<g id="Group_19">
<path id="Vector_15" d="M491.779 152.787C491.779 149.777 492.656 146.886 494.409 144.112C496.163 141.338 498.374 139.14 501.043 137.517C503.713 135.895 506.382 135.07 509.051 135.044C511.406 135.044 513.277 135.711 514.664 137.046C514.9 137.308 515.096 137.53 515.253 137.713C515.41 137.896 515.515 138.027 515.567 138.106L515.607 138.224C515.685 138.224 516.038 137.883 516.666 137.203C516.85 137.046 517.046 136.863 517.255 136.653C517.465 136.444 517.674 136.235 517.883 136.025C518.093 135.816 518.224 135.672 518.276 135.594L518.865 135.005H519.1C519.467 135.005 519.65 135.096 519.65 135.28C519.65 135.384 519.231 137.177 518.394 140.657C517.452 144.295 516.98 146.127 516.98 146.153C516.928 146.284 516.863 146.362 516.784 146.388C516.706 146.415 516.47 146.441 516.078 146.467H515.45C515.293 146.31 515.214 146.192 515.214 146.114C515.214 146.088 515.227 145.996 515.253 145.839C515.279 145.682 515.306 145.42 515.332 145.054C515.358 144.687 515.371 144.269 515.371 143.798C515.371 141.94 514.952 140.317 514.115 138.93C513.277 137.543 511.851 136.837 509.836 136.81C509.156 136.81 508.423 136.902 507.638 137.085C506.853 137.268 505.911 137.582 504.812 138.027C503.713 138.472 502.627 139.205 501.554 140.226C500.481 141.246 499.525 142.463 498.688 143.876C497.851 145.368 497.183 147.108 496.686 149.097C496.189 151.086 495.94 152.708 495.94 153.965C495.94 156.948 496.935 159.094 498.924 160.402C500.18 161.292 501.724 161.737 503.556 161.737C505.937 161.737 508.057 160.847 509.915 159.068C511.773 157.288 513.003 155.352 513.605 153.258C513.709 152.918 513.788 152.721 513.84 152.669C513.892 152.617 514.102 152.591 514.468 152.591C514.992 152.591 515.253 152.708 515.253 152.944C515.253 153.075 515.24 153.193 515.214 153.297C514.455 156.097 512.833 158.505 510.347 160.52C507.86 162.535 505.191 163.543 502.339 163.543C499.382 163.543 496.882 162.561 494.841 160.598C492.8 158.636 491.779 156.032 491.779 152.787Z" fill="white"/>
</g>
<g id="Group_20">
<path id="Vector_16" d="M520.906 156.661C520.406 156.661 520.009 156.495 519.713 156.162C519.417 155.829 519.269 155.422 519.269 154.941C519.269 153.627 519.759 152.489 520.739 151.527C521.72 150.565 522.941 150.084 524.403 150.084C526.086 150.084 527.493 150.602 528.621 151.638C529.75 152.674 530.323 154.015 530.342 155.662C530.342 156.458 530.157 157.216 529.787 157.938C529.417 158.659 528.973 159.288 528.455 159.825C527.937 160.362 527.197 161.046 526.234 161.879C525.568 162.452 524.643 163.303 523.459 164.432L521.822 165.986L523.931 166.014C526.836 166.014 528.381 165.968 528.566 165.875C528.695 165.838 528.917 165.015 529.232 163.405V163.322H530.342V163.405C530.323 163.461 530.203 164.302 529.981 165.931C529.759 167.559 529.62 168.41 529.565 168.484V168.567H519.269V168.04V167.707C519.269 167.577 519.324 167.439 519.435 167.291C519.546 167.143 519.824 166.819 520.268 166.319C520.804 165.727 521.267 165.209 521.655 164.765C521.822 164.58 522.136 164.238 522.599 163.738C523.061 163.239 523.376 162.896 523.542 162.711C523.709 162.526 523.977 162.221 524.347 161.795C524.717 161.37 524.976 161.055 525.124 160.852C525.272 160.648 525.485 160.371 525.763 160.019C526.04 159.668 526.234 159.372 526.345 159.131C526.457 158.891 526.595 158.622 526.762 158.326C526.928 158.03 527.049 157.734 527.123 157.438C527.197 157.142 527.261 156.865 527.317 156.606C527.372 156.347 527.4 156.041 527.4 155.69C527.4 154.524 527.086 153.516 526.457 152.665C525.827 151.814 524.93 151.388 523.764 151.388C523.154 151.388 522.617 151.545 522.155 151.86C521.692 152.175 521.369 152.48 521.183 152.776C520.998 153.072 520.906 153.248 520.906 153.303C520.906 153.322 520.952 153.331 521.045 153.331C521.378 153.331 521.72 153.46 522.072 153.719C522.423 153.978 522.599 154.404 522.599 154.996C522.599 155.459 522.451 155.847 522.155 156.162C521.859 156.476 521.443 156.643 520.906 156.661Z" fill="white"/>
</g>
</g>
<g id="Group_21">
<path id="Vector_17" d="M546.825 149.058C546.825 148.718 547.008 148.456 547.375 148.273H572.38C572.772 148.482 572.968 148.744 572.968 149.058C572.968 149.346 572.785 149.594 572.419 149.804L559.936 149.843H547.453C547.035 149.712 546.825 149.45 546.825 149.058ZM546.825 156.673C546.825 156.281 547.035 156.019 547.453 155.888H572.419C572.785 156.15 572.968 156.412 572.968 156.673C572.968 157.013 572.772 157.275 572.38 157.458H547.375C547.008 157.275 546.825 157.013 546.825 156.673Z" fill="white"/>
</g>
<g id="Group_22">
<g id="Group_23">
<g id="Group_24">
<path id="Vector_18" d="M598.984 119.303C598.277 119.303 597.715 119.068 597.296 118.597C596.877 118.126 596.668 117.55 596.668 116.87C596.668 115.012 597.361 113.402 598.748 112.041C600.135 110.681 601.863 110 603.93 110C606.311 110 608.3 110.733 609.897 112.198C611.493 113.664 612.304 115.561 612.33 117.89C612.33 119.015 612.069 120.088 611.545 121.109C611.022 122.13 610.394 123.019 609.661 123.778C608.928 124.537 607.882 125.505 606.521 126.683C605.579 127.494 604.27 128.698 602.595 130.295L600.279 132.493L603.263 132.532C607.371 132.532 609.556 132.467 609.818 132.336C610.001 132.283 610.315 131.119 610.76 128.842V128.724H612.33V128.842C612.304 128.921 612.134 130.111 611.82 132.414C611.506 134.717 611.31 135.921 611.231 136.026V136.143H596.668V135.398V134.926C596.668 134.743 596.746 134.547 596.903 134.338C597.061 134.128 597.453 133.67 598.081 132.964C598.84 132.126 599.494 131.394 600.044 130.766C600.279 130.504 600.724 130.02 601.378 129.313C602.033 128.607 602.478 128.122 602.713 127.861C602.949 127.599 603.328 127.167 603.851 126.565C604.375 125.963 604.741 125.519 604.951 125.231C605.16 124.943 605.461 124.55 605.853 124.053C606.246 123.556 606.521 123.137 606.678 122.797C606.835 122.457 607.031 122.077 607.267 121.659C607.502 121.24 607.672 120.821 607.777 120.402C607.882 119.984 607.973 119.591 608.052 119.225C608.13 118.858 608.169 118.427 608.169 117.929C608.169 116.281 607.725 114.855 606.835 113.651C605.945 112.447 604.676 111.845 603.027 111.845C602.164 111.845 601.405 112.067 600.75 112.512C600.096 112.957 599.638 113.389 599.377 113.808C599.115 114.226 598.984 114.475 598.984 114.554C598.984 114.58 599.049 114.593 599.18 114.593C599.651 114.593 600.135 114.776 600.633 115.142C601.13 115.509 601.378 116.111 601.378 116.948C601.378 117.602 601.169 118.152 600.75 118.597C600.332 119.042 599.743 119.277 598.984 119.303Z" fill="white"/>
</g>
<g id="Group_25">
<path id="Vector_19" d="M647.782 135.005C647.782 135.528 647.507 135.79 646.958 135.79C646.827 135.79 646.539 135.581 646.094 135.162C645.649 134.743 644.419 133.526 642.404 131.511L638.322 127.429L634.2 131.551C631.426 134.272 630 135.659 629.921 135.712C629.817 135.764 629.725 135.79 629.647 135.79C629.437 135.79 629.254 135.712 629.097 135.555C628.94 135.398 628.848 135.214 628.822 135.005C628.822 134.822 629.005 134.534 629.372 134.141C629.738 133.749 630.968 132.506 633.062 130.412L637.144 126.33L633.062 122.247C630.942 120.128 629.712 118.885 629.372 118.518C629.032 118.152 628.848 117.864 628.822 117.655C628.822 117.419 628.901 117.236 629.058 117.105C629.215 116.974 629.411 116.909 629.647 116.909C629.777 116.909 629.869 116.922 629.921 116.948C630 117 631.426 118.387 634.2 121.109L638.322 125.231L642.404 121.148C644.419 119.133 645.649 117.916 646.094 117.498C646.539 117.079 646.827 116.87 646.958 116.87C647.507 116.87 647.782 117.131 647.782 117.655C647.782 117.838 647.651 118.073 647.389 118.361C647.128 118.649 645.845 119.931 643.543 122.208L639.46 126.33L643.543 130.452C645.741 132.65 646.997 133.919 647.311 134.259C647.625 134.599 647.782 134.848 647.782 135.005Z" fill="white"/>
</g>
<g id="Group_26">
<path id="Vector_20" d="M667.303 117.969C666.597 117.969 666.047 117.746 665.655 117.301C665.262 116.857 665.053 116.281 665.027 115.574C665.027 114.135 665.655 112.853 666.911 111.727C668.167 110.602 669.685 110.039 671.464 110.039C672.38 110.039 672.956 110.052 673.192 110.079C675.128 110.393 676.607 111.086 677.627 112.159C678.648 113.232 679.171 114.397 679.197 115.653C679.197 117.014 678.753 118.335 677.863 119.617C676.973 120.9 675.743 121.829 674.173 122.404L674.055 122.483C674.055 122.509 674.173 122.548 674.408 122.601C674.644 122.653 675.023 122.771 675.547 122.954C676.07 123.137 676.567 123.412 677.038 123.778C679.184 125.165 680.257 126.997 680.257 129.274C680.257 131.341 679.446 133.147 677.824 134.691C676.201 136.235 674.147 137.007 671.661 137.007C669.567 137.007 667.761 136.444 666.244 135.319C664.726 134.194 663.967 132.768 663.967 131.04C663.967 130.308 664.202 129.719 664.673 129.274C665.144 128.829 665.733 128.594 666.44 128.567C667.173 128.567 667.774 128.803 668.246 129.274C668.717 129.745 668.952 130.334 668.952 131.04C668.952 131.328 668.913 131.59 668.834 131.825C668.756 132.061 668.664 132.27 668.56 132.454C668.455 132.637 668.311 132.794 668.128 132.925C667.945 133.055 667.788 133.16 667.657 133.239C667.526 133.317 667.395 133.369 667.264 133.396C667.133 133.422 667.029 133.461 666.95 133.513L666.793 133.553C668.128 134.73 669.75 135.319 671.661 135.319C673.1 135.319 674.186 134.626 674.919 133.239C675.364 132.375 675.586 131.053 675.586 129.274V128.489C675.586 126.003 674.749 124.341 673.074 123.504C672.681 123.347 671.883 123.255 670.679 123.229L669.031 123.19L668.913 123.111C668.86 123.033 668.834 122.823 668.834 122.483C668.834 122.012 668.939 121.776 669.148 121.776C669.881 121.776 670.64 121.711 671.425 121.58C672.315 121.449 673.126 120.9 673.859 119.931C674.592 118.963 674.958 117.498 674.958 115.535V115.221C674.958 113.729 674.5 112.696 673.584 112.12C673.008 111.753 672.393 111.57 671.739 111.57C670.902 111.57 670.13 111.714 669.423 112.002C668.717 112.29 668.219 112.591 667.931 112.905C667.644 113.219 667.5 113.376 667.5 113.376H667.617C667.696 113.402 667.801 113.428 667.931 113.454C668.062 113.481 668.193 113.546 668.324 113.651C668.455 113.755 668.612 113.847 668.795 113.926C668.978 114.004 669.109 114.148 669.188 114.357C669.266 114.567 669.371 114.763 669.502 114.946C669.632 115.129 669.672 115.391 669.619 115.731C669.619 116.307 669.436 116.817 669.07 117.262C668.703 117.707 668.115 117.943 667.303 117.969Z" fill="white"/>
</g>
</g>
<g id="Group_27">
<path id="Vector_21" d="M632.792 172.767C632.085 172.767 631.522 172.532 631.104 172.061C630.685 171.59 630.476 171.014 630.476 170.334C630.476 168.476 631.169 166.866 632.556 165.505C633.943 164.145 635.67 163.464 637.738 163.464C640.119 163.464 642.108 164.197 643.704 165.662C645.301 167.128 646.112 169.025 646.138 171.354C646.138 172.48 645.876 173.552 645.353 174.573C644.83 175.594 644.201 176.483 643.469 177.242C642.736 178.001 641.689 178.97 640.328 180.147C639.386 180.958 638.078 182.162 636.403 183.759L634.087 185.957L637.07 185.996C641.179 185.996 643.364 185.931 643.626 185.8C643.809 185.747 644.123 184.583 644.568 182.306V182.188H646.138V182.306C646.112 182.385 645.942 183.575 645.628 185.878C645.314 188.181 645.117 189.385 645.039 189.49V189.607H630.476V188.862V188.391C630.476 188.207 630.554 188.011 630.711 187.802C630.868 187.592 631.261 187.134 631.889 186.428C632.648 185.59 633.302 184.858 633.851 184.23C634.087 183.968 634.532 183.484 635.186 182.777C635.84 182.071 636.285 181.587 636.521 181.325C636.756 181.063 637.136 180.631 637.659 180.029C638.182 179.428 638.549 178.983 638.758 178.695C638.968 178.407 639.269 178.014 639.661 177.517C640.054 177.02 640.328 176.601 640.485 176.261C640.642 175.921 640.839 175.541 641.074 175.123C641.31 174.704 641.48 174.285 641.585 173.867C641.689 173.448 641.781 173.055 641.859 172.689C641.938 172.323 641.977 171.891 641.977 171.394C641.977 169.745 641.532 168.319 640.642 167.115C639.753 165.911 638.483 165.309 636.835 165.309C635.971 165.309 635.212 165.532 634.558 165.976C633.904 166.421 633.446 166.853 633.184 167.272C632.922 167.691 632.792 167.939 632.792 168.018C632.792 168.044 632.857 168.057 632.988 168.057C633.459 168.057 633.943 168.24 634.44 168.606C634.937 168.973 635.186 169.575 635.186 170.412C635.186 171.066 634.977 171.616 634.558 172.061C634.139 172.506 633.55 172.741 632.792 172.767Z" fill="white"/>
</g>
<path id="Vector_22" d="M685.872 154.043H590.782V151.688H685.872V154.043Z" fill="white"/>
</g>
<g id="Group_28">
<path id="Vector_23" d="M703.689 149.058C703.689 148.718 703.873 148.456 704.239 148.273H729.244C729.636 148.482 729.833 148.744 729.833 149.058C729.833 149.346 729.65 149.594 729.283 149.804L716.8 149.843H704.318C703.899 149.712 703.689 149.45 703.689 149.058ZM703.689 156.673C703.689 156.281 703.899 156.019 704.318 155.888H729.283C729.65 156.15 729.833 156.412 729.833 156.673C729.833 157.013 729.636 157.275 729.244 157.458H704.239C703.873 157.275 703.689 157.013 703.689 156.673Z" fill="white"/>
</g>
<g id="Group_29">
<path id="Vector_24" d="M747.921 144.504C747.214 144.504 746.664 144.282 746.272 143.837C745.879 143.392 745.67 142.817 745.644 142.11C745.644 140.671 746.272 139.388 747.528 138.263C748.784 137.138 750.302 136.575 752.082 136.575C752.997 136.575 753.573 136.588 753.809 136.614C755.745 136.928 757.224 137.622 758.244 138.695C759.265 139.768 759.788 140.932 759.815 142.188C759.815 143.549 759.37 144.871 758.48 146.153C757.59 147.435 756.36 148.364 754.79 148.94L754.672 149.019C754.672 149.045 754.79 149.084 755.026 149.136C755.261 149.189 755.641 149.307 756.164 149.49C756.687 149.673 757.185 149.948 757.656 150.314C759.802 151.701 760.874 153.533 760.874 155.81C760.874 157.877 760.063 159.683 758.441 161.227C756.818 162.771 754.764 163.543 752.278 163.543C750.184 163.543 748.379 162.98 746.861 161.855C745.343 160.73 744.584 159.303 744.584 157.576C744.584 156.843 744.82 156.255 745.291 155.81C745.762 155.365 746.35 155.129 747.057 155.103C747.79 155.103 748.392 155.339 748.863 155.81C749.334 156.281 749.569 156.87 749.569 157.576C749.569 157.864 749.53 158.126 749.452 158.361C749.373 158.597 749.281 158.806 749.177 158.989C749.072 159.172 748.928 159.329 748.745 159.46C748.562 159.591 748.405 159.696 748.274 159.774C748.143 159.853 748.012 159.905 747.881 159.931C747.75 159.958 747.646 159.997 747.567 160.049L747.41 160.088C748.745 161.266 750.367 161.855 752.278 161.855C753.717 161.855 754.803 161.161 755.536 159.774C755.981 158.911 756.203 157.589 756.203 155.81V155.025C756.203 152.539 755.366 150.877 753.691 150.039C753.298 149.882 752.5 149.791 751.296 149.765L749.648 149.725L749.53 149.647C749.478 149.568 749.452 149.359 749.452 149.019C749.452 148.548 749.556 148.312 749.766 148.312C750.498 148.312 751.257 148.247 752.042 148.116C752.932 147.985 753.743 147.435 754.476 146.467C755.209 145.499 755.575 144.033 755.575 142.071V141.757C755.575 140.265 755.117 139.231 754.201 138.656C753.626 138.289 753.011 138.106 752.356 138.106C751.519 138.106 750.747 138.25 750.04 138.538C749.334 138.826 748.837 139.127 748.549 139.441C748.261 139.755 748.117 139.912 748.117 139.912H748.235C748.313 139.938 748.418 139.964 748.549 139.99C748.68 140.016 748.81 140.082 748.941 140.187C749.072 140.291 749.229 140.383 749.412 140.461C749.595 140.54 749.726 140.684 749.805 140.893C749.883 141.102 749.988 141.299 750.119 141.482C750.25 141.665 750.289 141.927 750.237 142.267C750.237 142.843 750.053 143.353 749.687 143.798C749.321 144.243 748.732 144.478 747.921 144.504Z" fill="white"/>
</g>
</g>
<g id="Group 191">
<g id="Group_30">
<path id="Vector_25" d="M439 259.45C439 259.11 439.183 258.848 439.55 258.665H449.088L450.737 252.502C451.758 248.525 452.36 246.405 452.543 246.143C452.674 245.934 452.87 245.829 453.132 245.829C453.603 245.829 453.864 246.065 453.917 246.536C453.917 246.64 453.393 248.655 452.346 252.581C451.273 256.454 450.737 258.456 450.737 258.587L450.698 258.665H458.117L459.765 252.502C460.838 248.446 461.427 246.339 461.532 246.182C461.689 245.947 461.898 245.829 462.16 245.829C462.343 245.829 462.513 245.895 462.67 246.025C462.827 246.156 462.906 246.3 462.906 246.457C462.906 246.719 462.395 248.76 461.375 252.581C460.302 256.454 459.765 258.456 459.765 258.587L459.726 258.665H466.713C467.106 258.875 467.302 259.136 467.302 259.45C467.302 259.791 467.171 260 466.91 260.078C466.648 260.157 466.059 260.209 465.143 260.235H462.984H459.255L458.47 263.219L457.646 266.241C457.646 266.268 459.164 266.281 462.199 266.281H465.065C466.007 266.281 466.609 266.32 466.87 266.398C467.132 266.477 467.276 266.699 467.302 267.066C467.328 267.432 467.132 267.694 466.713 267.851H457.175L455.526 274.014C454.453 278.07 453.864 280.177 453.76 280.334C453.603 280.569 453.393 280.687 453.132 280.687C452.948 280.687 452.778 280.621 452.621 280.491C452.464 280.36 452.386 280.203 452.386 280.02C452.386 279.758 452.896 277.717 453.917 273.896C454.99 270.075 455.526 268.086 455.526 267.929L455.565 267.851H448.146L446.498 274.014C445.425 278.07 444.836 280.177 444.731 280.334C444.574 280.569 444.365 280.687 444.103 280.687C443.92 280.687 443.75 280.621 443.593 280.491C443.436 280.36 443.357 280.203 443.357 280.02C443.357 279.758 443.868 277.717 444.888 273.896C445.961 270.075 446.498 268.086 446.498 267.929L446.537 267.851H439.55C439.183 267.668 439 267.406 439 267.066C439 266.673 439.209 266.411 439.628 266.281H447.008L447.793 263.297L448.617 260.275C448.617 260.249 447.113 260.235 444.103 260.235H439.628C439.209 260.105 439 259.843 439 259.45ZM457.646 260.275C457.646 260.249 456.416 260.235 453.956 260.235H450.227L449.442 263.219L448.617 266.241C448.617 266.268 449.847 266.281 452.307 266.281H456.036L456.821 263.297L457.646 260.275Z" fill="white"/>
</g>
<g id="Group_31">
<path id="Vector_26" d="M481.591 272.13C483.135 272.13 484.548 271.449 485.831 270.088C487.113 268.728 487.767 267.144 487.793 265.339C487.793 263.69 487.113 262.552 485.752 261.924C482.978 261.217 481.199 260.733 480.413 260.471C479.628 260.209 479.079 259.948 478.765 259.686C477.195 258.587 476.41 257.004 476.41 254.936C476.41 253.34 476.828 251.888 477.666 250.579C478.503 249.271 479.354 248.289 480.217 247.635C480.976 246.981 481.892 246.457 482.965 246.065C484.038 245.672 484.875 245.463 485.477 245.437H485.909H486.184C488.696 245.437 490.515 246.274 491.64 247.949C491.666 247.949 491.836 247.779 492.15 247.439C492.464 247.099 492.805 246.719 493.171 246.3C493.537 245.882 493.799 245.594 493.956 245.437C493.982 245.437 494.035 245.437 494.113 245.437C494.192 245.437 494.257 245.424 494.309 245.398C494.65 245.398 494.82 245.489 494.82 245.672C494.82 245.855 494.453 247.439 493.721 250.422C492.988 253.405 492.569 254.949 492.464 255.054C492.36 255.159 492.15 255.198 491.836 255.172C491.313 255.172 491.051 255.054 491.051 254.819C491.051 254.661 491.064 254.531 491.091 254.426C491.091 254.347 491.104 254.099 491.13 253.68C491.156 253.261 491.182 252.921 491.208 252.66C491.208 251.77 491.091 250.998 490.855 250.344C490.62 249.689 490.384 249.205 490.148 248.891C489.913 248.577 489.586 248.25 489.167 247.91C488.225 247.36 487.152 247.085 485.948 247.085C484.457 247.085 483.07 247.687 481.787 248.891C480.505 250.095 479.851 251.482 479.825 253.052C479.825 253.837 480.021 254.518 480.413 255.093C480.806 255.669 481.342 256.075 482.023 256.31C482.128 256.363 483.043 256.611 484.771 257.056C486.498 257.501 487.375 257.736 487.401 257.763C488.29 258.05 489.154 258.678 489.991 259.647C490.829 260.615 491.248 261.924 491.248 263.572C491.248 264.253 491.143 264.985 490.934 265.77C490.803 266.346 490.567 266.987 490.227 267.694C489.887 268.4 489.416 269.172 488.814 270.01C488.212 270.847 487.348 271.632 486.223 272.365C485.098 273.098 483.868 273.595 482.533 273.857C482.219 273.909 481.774 273.935 481.199 273.935C478.608 273.935 476.593 273.216 475.153 271.776L474.761 271.345L473.662 272.561C473.06 273.268 472.693 273.674 472.563 273.778C472.432 273.883 472.262 273.935 472.052 273.935C471.712 273.935 471.542 273.831 471.542 273.621C471.542 273.543 472.301 270.468 473.819 264.397C473.871 264.24 474.133 264.161 474.604 264.161H475.114C475.271 264.318 475.35 264.462 475.35 264.593C475.35 264.645 475.337 264.763 475.31 264.946C475.284 265.129 475.232 265.404 475.153 265.77C475.075 266.137 475.049 266.569 475.075 267.066C475.127 268.086 475.363 268.95 475.781 269.657C476.2 270.363 476.763 270.887 477.469 271.227C478.176 271.567 478.856 271.802 479.511 271.933C480.165 272.064 480.858 272.13 481.591 272.13Z" fill="white"/>
</g>
<g id="Group_32">
<g id="Group_33">
<path id="Vector_27" d="M496.78 263.18C496.78 260.17 497.657 257.278 499.41 254.504C501.164 251.73 503.375 249.532 506.044 247.91C508.714 246.287 511.383 245.463 514.052 245.437C516.407 245.437 518.278 246.104 519.665 247.439C519.901 247.7 520.097 247.923 520.254 248.106C520.411 248.289 520.516 248.42 520.568 248.498L520.608 248.616C520.686 248.616 521.039 248.276 521.667 247.596C521.851 247.439 522.047 247.255 522.256 247.046C522.466 246.837 522.675 246.627 522.884 246.418C523.094 246.209 523.224 246.065 523.277 245.986L523.866 245.397H524.101C524.468 245.397 524.651 245.489 524.651 245.672C524.651 245.777 524.232 247.569 523.395 251.05C522.452 254.688 521.981 256.519 521.981 256.546C521.929 256.676 521.864 256.755 521.785 256.781C521.707 256.807 521.471 256.833 521.079 256.86H520.451C520.294 256.703 520.215 256.585 520.215 256.506C520.215 256.48 520.228 256.389 520.254 256.232C520.28 256.075 520.307 255.813 520.333 255.446C520.359 255.08 520.372 254.661 520.372 254.19C520.372 252.332 519.953 250.71 519.116 249.323C518.278 247.936 516.852 247.229 514.837 247.203C514.157 247.203 513.424 247.295 512.639 247.478C511.854 247.661 510.912 247.975 509.813 248.42C508.714 248.865 507.628 249.598 506.555 250.618C505.482 251.639 504.526 252.856 503.689 254.269C502.852 255.76 502.184 257.501 501.687 259.49C501.19 261.479 500.941 263.101 500.941 264.357C500.941 267.34 501.936 269.486 503.925 270.795C505.181 271.685 506.725 272.129 508.557 272.129C510.938 272.129 513.058 271.24 514.916 269.46C516.774 267.681 518.004 265.744 518.606 263.651C518.71 263.31 518.789 263.114 518.841 263.062C518.893 263.009 519.103 262.983 519.469 262.983C519.993 262.983 520.254 263.101 520.254 263.337C520.254 263.467 520.241 263.585 520.215 263.69C519.456 266.49 517.834 268.898 515.347 270.913C512.861 272.928 510.192 273.935 507.34 273.935C504.382 273.935 501.883 272.954 499.842 270.991C497.801 269.028 496.78 266.425 496.78 263.18Z" fill="white"/>
</g>
<g id="Group_34">
<path id="Vector_28" d="M526.407 266.11C525.907 266.11 525.519 265.953 525.241 265.638C524.964 265.324 524.816 264.917 524.797 264.417C524.797 263.4 525.241 262.493 526.129 261.698C527.017 260.902 528.09 260.504 529.349 260.504C529.996 260.504 530.403 260.513 530.57 260.532C531.939 260.754 532.984 261.244 533.706 262.003C534.427 262.761 534.797 263.585 534.816 264.473C534.816 265.435 534.501 266.369 533.872 267.276C533.243 268.182 532.374 268.839 531.264 269.246L531.18 269.302C531.18 269.32 531.264 269.348 531.43 269.385C531.597 269.422 531.865 269.505 532.235 269.635C532.605 269.764 532.956 269.959 533.29 270.218C534.807 271.198 535.565 272.493 535.565 274.103C535.565 275.565 534.992 276.841 533.845 277.933C532.697 279.025 531.245 279.57 529.487 279.57C528.007 279.57 526.731 279.173 525.658 278.377C524.584 277.581 524.048 276.573 524.048 275.352C524.048 274.834 524.214 274.418 524.547 274.103C524.88 273.789 525.297 273.622 525.796 273.603C526.314 273.603 526.74 273.77 527.073 274.103C527.406 274.436 527.572 274.852 527.572 275.352C527.572 275.555 527.545 275.74 527.489 275.907C527.434 276.073 527.369 276.221 527.295 276.351C527.221 276.481 527.119 276.592 526.99 276.684C526.86 276.777 526.749 276.851 526.657 276.906C526.564 276.962 526.472 276.999 526.379 277.017C526.287 277.036 526.213 277.063 526.157 277.1L526.046 277.128C526.99 277.961 528.137 278.377 529.487 278.377C530.505 278.377 531.273 277.887 531.791 276.906C532.105 276.295 532.263 275.361 532.263 274.103V273.548C532.263 271.79 531.671 270.615 530.486 270.023C530.209 269.912 529.645 269.848 528.794 269.829L527.628 269.801L527.545 269.746C527.508 269.69 527.489 269.542 527.489 269.302C527.489 268.969 527.563 268.802 527.711 268.802C528.229 268.802 528.766 268.756 529.321 268.664C529.95 268.571 530.523 268.182 531.042 267.498C531.56 266.813 531.819 265.777 531.819 264.39V264.168C531.819 263.113 531.495 262.382 530.847 261.975C530.44 261.716 530.005 261.587 529.543 261.587C528.951 261.587 528.405 261.688 527.905 261.892C527.406 262.095 527.054 262.308 526.851 262.53C526.647 262.752 526.546 262.863 526.546 262.863H526.629C526.684 262.882 526.758 262.9 526.851 262.919C526.943 262.937 527.036 262.983 527.128 263.057C527.221 263.131 527.332 263.196 527.461 263.252C527.591 263.307 527.683 263.409 527.739 263.557C527.794 263.705 527.868 263.844 527.961 263.973C528.053 264.103 528.081 264.288 528.044 264.528C528.044 264.935 527.915 265.296 527.656 265.611C527.397 265.925 526.98 266.092 526.407 266.11Z" fill="white"/>
</g>
</g>
<g id="Group_35">
<path id="Vector_29" d="M551.825 259.45C551.825 259.11 552.008 258.849 552.375 258.665H577.38C577.772 258.875 577.968 259.136 577.968 259.45C577.968 259.738 577.785 259.987 577.419 260.196L564.936 260.236H552.453C552.035 260.105 551.825 259.843 551.825 259.45ZM551.825 267.066C551.825 266.673 552.035 266.412 552.453 266.281H577.419C577.785 266.542 577.968 266.804 577.968 267.066C577.968 267.406 577.772 267.668 577.38 267.851H552.375C552.008 267.668 551.825 267.406 551.825 267.066Z" fill="white"/>
</g>
<g id="Group_36">
<g id="Group_37">
<g id="Group_38">
<path id="Vector_30" d="M601.357 234.249C601.357 229.984 602.417 226.608 604.537 224.122C606.656 221.636 609.012 220.393 611.602 220.393C613.408 220.393 614.703 220.864 615.488 221.806C616.274 222.748 616.666 223.795 616.666 224.946C616.666 225.6 616.483 226.124 616.117 226.516C615.75 226.909 615.24 227.105 614.586 227.105C613.984 227.105 613.486 226.922 613.094 226.555C612.701 226.189 612.505 225.679 612.505 225.025C612.505 223.873 613.12 223.18 614.35 222.944C613.774 222.368 612.963 222.041 611.916 221.963C610.058 221.963 608.527 222.748 607.324 224.318C606.094 226.045 605.479 228.688 605.479 232.247L605.518 232.404C605.649 232.247 605.753 232.077 605.832 231.894C606.905 230.324 608.305 229.539 610.032 229.539H610.189C611.393 229.539 612.453 229.787 613.369 230.285C613.997 230.651 614.625 231.174 615.253 231.855C615.881 232.535 616.391 233.281 616.784 234.092C617.333 235.375 617.608 236.775 617.608 238.292V238.999C617.608 239.601 617.543 240.164 617.412 240.687C617.124 242.231 616.287 243.736 614.9 245.201C613.513 246.667 611.759 247.399 609.64 247.399C608.907 247.399 608.2 247.295 607.52 247.085C606.839 246.876 606.107 246.484 605.322 245.908C604.537 245.332 603.869 244.56 603.32 243.592C602.77 242.624 602.299 241.354 601.907 239.784C601.514 238.214 601.331 236.369 601.357 234.249ZM609.797 230.952C609.012 230.952 608.331 231.174 607.755 231.619C607.18 232.064 606.735 232.653 606.421 233.386C606.107 234.118 605.884 234.864 605.753 235.623C605.623 236.382 605.544 237.193 605.518 238.057C605.518 240.229 605.675 241.786 605.989 242.728C606.303 243.67 606.8 244.429 607.481 245.005C608.109 245.476 608.802 245.712 609.561 245.712C610.896 245.712 611.916 245.214 612.623 244.22C612.963 243.749 613.199 243.16 613.329 242.453C613.46 241.747 613.526 240.373 613.526 238.332C613.526 236.238 613.46 234.838 613.329 234.132C613.199 233.425 612.963 232.836 612.623 232.365C611.916 231.423 610.974 230.952 609.797 230.952Z" fill="white"/>
</g>
<g id="Group_39">
<path id="Vector_31" d="M652.786 245.398C652.786 245.921 652.511 246.183 651.962 246.183C651.831 246.183 651.543 245.973 651.098 245.555C650.653 245.136 649.423 243.919 647.408 241.904L643.326 237.821L639.204 241.943C636.43 244.665 635.004 246.052 634.925 246.104C634.821 246.156 634.729 246.183 634.651 246.183C634.441 246.183 634.258 246.104 634.101 245.947C633.944 245.79 633.852 245.607 633.826 245.398C633.826 245.214 634.009 244.926 634.376 244.534C634.742 244.141 635.972 242.898 638.066 240.805L642.148 236.722L638.066 232.64C635.946 230.52 634.716 229.277 634.376 228.911C634.036 228.544 633.852 228.257 633.826 228.047C633.826 227.812 633.905 227.628 634.062 227.498C634.219 227.367 634.415 227.301 634.651 227.301C634.781 227.301 634.873 227.314 634.925 227.341C635.004 227.393 636.43 228.78 639.204 231.502L643.326 235.623L647.408 231.541C649.423 229.526 650.653 228.309 651.098 227.89C651.543 227.471 651.831 227.262 651.962 227.262C652.511 227.262 652.786 227.524 652.786 228.047C652.786 228.23 652.655 228.466 652.393 228.754C652.132 229.042 650.849 230.324 648.546 232.601L644.464 236.722L648.546 240.844C650.745 243.042 652.001 244.311 652.315 244.652C652.629 244.992 652.786 245.241 652.786 245.398Z" fill="white"/>
</g>
<g id="Group_40">
<path id="Vector_32" d="M669.478 228.557C669.504 228.505 669.726 227.079 670.145 224.279L670.773 220.079C670.773 220.026 671.035 220 671.558 220H672.343V220.157C672.343 220.419 672.539 220.641 672.932 220.824C673.324 221.008 674.005 221.125 674.973 221.178C675.941 221.23 678.153 221.256 681.607 221.256H686.357V222.787L683.688 226.438C683.452 226.752 683.059 227.275 682.51 228.008C681.96 228.741 681.607 229.225 681.45 229.46C681.293 229.696 681.018 230.115 680.626 230.716C680.233 231.318 679.971 231.789 679.841 232.13C679.71 232.47 679.527 232.954 679.291 233.582C679.056 234.21 678.885 234.812 678.781 235.388C678.676 235.963 678.571 236.67 678.467 237.507C678.362 238.345 678.284 239.235 678.231 240.177C678.179 241.119 678.14 242.192 678.113 243.396C678.113 243.762 678.113 244.128 678.113 244.495C678.113 244.861 678.1 245.175 678.074 245.437V245.79C677.97 246.235 677.721 246.614 677.328 246.928C676.936 247.242 676.491 247.399 675.994 247.399C675.706 247.399 675.431 247.36 675.169 247.282C674.908 247.203 674.633 246.955 674.345 246.536C674.057 246.117 673.913 245.594 673.913 244.966C673.913 240.831 675.182 236.539 677.721 232.09C678.244 231.253 679.343 229.67 681.018 227.341L682.824 224.868H679.173C674.62 224.868 672.225 224.946 671.99 225.103C671.833 225.182 671.689 225.496 671.558 226.045C671.427 226.595 671.296 227.157 671.165 227.733L671.048 228.557V228.675H669.478V228.557Z" fill="white"/>
</g>
</g>
<g id="Group_41">
<path id="Vector_33" d="M637.795 283.16C637.088 283.16 636.525 282.924 636.107 282.453C635.688 281.982 635.479 281.407 635.479 280.726C635.479 278.868 636.172 277.259 637.559 275.898C638.946 274.537 640.673 273.857 642.741 273.857C645.122 273.857 647.111 274.589 648.707 276.055C650.304 277.52 651.115 279.418 651.141 281.747C651.141 282.872 650.879 283.945 650.356 284.966C649.832 285.986 649.204 286.876 648.472 287.635C647.739 288.394 646.692 289.362 645.331 290.54C644.389 291.351 643.081 292.555 641.406 294.151L639.09 296.349L642.073 296.389C646.182 296.389 648.367 296.323 648.629 296.192C648.812 296.14 649.126 294.975 649.571 292.699V292.581H651.141V292.699C651.115 292.777 650.945 293.968 650.631 296.271C650.317 298.574 650.12 299.778 650.042 299.882V300H635.479V299.254V298.783C635.479 298.6 635.557 298.404 635.714 298.194C635.871 297.985 636.264 297.527 636.892 296.82C637.651 295.983 638.305 295.25 638.854 294.622C639.09 294.36 639.535 293.876 640.189 293.17C640.843 292.463 641.288 291.979 641.524 291.717C641.759 291.456 642.139 291.024 642.662 290.422C643.185 289.82 643.552 289.375 643.761 289.087C643.971 288.799 644.271 288.407 644.664 287.91C645.057 287.412 645.331 286.994 645.488 286.654C645.645 286.313 645.842 285.934 646.077 285.515C646.313 285.096 646.483 284.678 646.587 284.259C646.692 283.84 646.784 283.448 646.862 283.081C646.941 282.715 646.98 282.283 646.98 281.786C646.98 280.137 646.535 278.711 645.645 277.507C644.756 276.304 643.486 275.702 641.838 275.702C640.974 275.702 640.215 275.924 639.561 276.369C638.907 276.814 638.449 277.246 638.187 277.664C637.925 278.083 637.795 278.332 637.795 278.41C637.795 278.436 637.86 278.449 637.991 278.449C638.462 278.449 638.946 278.633 639.443 278.999C639.94 279.365 640.189 279.967 640.189 280.805C640.189 281.459 639.98 282.009 639.561 282.453C639.142 282.898 638.553 283.134 637.795 283.16Z" fill="white"/>
</g>
<path id="Vector_34" d="M690.874 264.436H595.785V262.08H690.874V264.436Z" fill="white"/>
</g>
<g id="Group_42">
<path id="Vector_35" d="M708.684 259.45C708.684 259.11 708.867 258.849 709.233 258.665H734.238C734.631 258.875 734.827 259.136 734.827 259.45C734.827 259.738 734.644 259.987 734.277 260.196L721.794 260.236H709.312C708.893 260.105 708.684 259.843 708.684 259.45ZM708.684 267.066C708.684 266.673 708.893 266.412 709.312 266.281H734.277C734.644 266.542 734.827 266.804 734.827 267.066C734.827 267.406 734.631 267.668 734.238 267.851H709.233C708.867 267.668 708.684 267.406 708.684 267.066Z" fill="white"/>
</g>
<g id="Group_43">
<path id="Vector_36" d="M752.212 256.232C751.506 256.232 750.943 255.996 750.525 255.525C750.106 255.054 749.896 254.478 749.896 253.798C749.896 251.94 750.59 250.33 751.977 248.97C753.364 247.609 755.091 246.928 757.159 246.928C759.54 246.928 761.529 247.661 763.125 249.127C764.721 250.592 765.533 252.489 765.559 254.818C765.559 255.944 765.297 257.017 764.774 258.037C764.25 259.058 763.622 259.948 762.89 260.707C762.157 261.466 761.11 262.434 759.749 263.611C758.807 264.423 757.499 265.626 755.824 267.223L753.508 269.421L756.491 269.46C760.6 269.46 762.785 269.395 763.047 269.264C763.23 269.212 763.544 268.047 763.989 265.77V265.653H765.559V265.77C765.533 265.849 765.363 267.04 765.049 269.343C764.735 271.645 764.538 272.849 764.46 272.954V273.072H749.896V272.326V271.855C749.896 271.672 749.975 271.475 750.132 271.266C750.289 271.057 750.682 270.599 751.31 269.892C752.069 269.055 752.723 268.322 753.272 267.694C753.508 267.432 753.953 266.948 754.607 266.241C755.261 265.535 755.706 265.051 755.942 264.789C756.177 264.527 756.557 264.096 757.08 263.494C757.603 262.892 757.97 262.447 758.179 262.159C758.388 261.871 758.689 261.479 759.082 260.981C759.475 260.484 759.749 260.065 759.906 259.725C760.063 259.385 760.26 259.006 760.495 258.587C760.731 258.168 760.901 257.749 761.005 257.331C761.11 256.912 761.202 256.519 761.28 256.153C761.359 255.787 761.398 255.355 761.398 254.858C761.398 253.209 760.953 251.783 760.063 250.579C759.174 249.375 757.904 248.773 756.256 248.773C755.392 248.773 754.633 248.996 753.979 249.441C753.325 249.886 752.867 250.317 752.605 250.736C752.343 251.155 752.212 251.403 752.212 251.482C752.212 251.508 752.278 251.521 752.409 251.521C752.88 251.521 753.364 251.704 753.861 252.071C754.358 252.437 754.607 253.039 754.607 253.876C754.607 254.531 754.398 255.08 753.979 255.525C753.56 255.97 752.971 256.205 752.212 256.232Z" fill="white"/>
<path id="Vector_37" d="M775.923 250.383L775.413 250.579C775.047 250.71 774.523 250.841 773.843 250.972C773.162 251.102 772.404 251.194 771.566 251.246H770.82V249.441H771.566C772.796 249.388 773.934 249.192 774.981 248.852C776.028 248.512 776.761 248.198 777.179 247.91C777.598 247.622 777.965 247.334 778.279 247.046C778.331 246.968 778.488 246.928 778.75 246.928C778.985 246.928 779.208 247.007 779.417 247.164V258.901L779.456 270.677C779.639 270.86 779.796 270.978 779.927 271.03C780.058 271.083 780.372 271.135 780.869 271.187C781.367 271.24 782.178 271.266 783.303 271.266H784.324V273.072H783.892C783.342 272.993 781.262 272.954 777.651 272.954C774.091 272.954 772.037 272.993 771.488 273.072H771.017V271.266H772.037C772.613 271.266 773.11 271.266 773.529 271.266C773.948 271.266 774.275 271.253 774.51 271.227C774.746 271.201 774.955 271.161 775.138 271.109C775.321 271.057 775.426 271.03 775.452 271.03C775.478 271.03 775.557 270.965 775.688 270.834C775.819 270.703 775.897 270.651 775.923 270.677V250.383Z" fill="white"/>
</g>
</g>
</g>
</g>
<g id="\#SC=21+3+3=27">
<g id="Group_44">
<g id="Group_45">
<path id="Vector_38" d="M144 355.132C144 354.766 144.197 354.484 144.592 354.287H154.863L156.638 347.651C157.737 343.367 158.386 341.085 158.583 340.803C158.724 340.578 158.935 340.465 159.217 340.465C159.724 340.465 160.006 340.719 160.062 341.226C160.062 341.339 159.499 343.508 158.372 347.735C157.216 351.906 156.638 354.062 156.638 354.202L156.596 354.287H164.585L166.36 347.651C167.516 343.283 168.15 341.014 168.263 340.845C168.432 340.592 168.657 340.465 168.939 340.465C169.136 340.465 169.319 340.535 169.488 340.676C169.657 340.817 169.742 340.972 169.742 341.141C169.742 341.423 169.192 343.621 168.093 347.735C166.938 351.906 166.36 354.062 166.36 354.202L166.318 354.287H173.842C174.265 354.512 174.476 354.794 174.476 355.132C174.476 355.499 174.335 355.724 174.053 355.809C173.772 355.893 173.138 355.95 172.151 355.978H169.826H165.811L164.966 359.19L164.078 362.445C164.078 362.473 165.712 362.487 168.981 362.487H172.067C173.081 362.487 173.729 362.529 174.011 362.614C174.293 362.699 174.448 362.938 174.476 363.333C174.504 363.727 174.293 364.009 173.842 364.178H163.571L161.795 370.814C160.64 375.182 160.006 377.451 159.893 377.62C159.724 377.873 159.499 378 159.217 378C159.02 378 158.836 377.93 158.667 377.789C158.498 377.648 158.414 377.479 158.414 377.281C158.414 377 158.963 374.802 160.062 370.687C161.218 366.573 161.795 364.432 161.795 364.263L161.838 364.178H153.849L152.073 370.814C150.918 375.182 150.284 377.451 150.171 377.62C150.002 377.873 149.777 378 149.495 378C149.298 378 149.115 377.93 148.945 377.789C148.776 377.648 148.692 377.479 148.692 377.281C148.692 377 149.241 374.802 150.34 370.687C151.496 366.573 152.073 364.432 152.073 364.263L152.116 364.178H144.592C144.197 363.981 144 363.699 144 363.333C144 362.91 144.225 362.628 144.676 362.487H152.623L153.468 359.275L154.356 356.02C154.356 355.992 152.736 355.978 149.495 355.978H144.676C144.225 355.837 144 355.555 144 355.132ZM164.078 356.02C164.078 355.992 162.753 355.978 160.105 355.978H156.089L155.244 359.19L154.356 362.445C154.356 362.473 155.68 362.487 158.329 362.487H162.345L163.19 359.275L164.078 356.02Z" fill="white"/>
</g>
<g id="Group_46">
<path id="Vector_39" d="M189.862 368.785C191.525 368.785 193.046 368.053 194.427 366.587C195.808 365.122 196.512 363.417 196.54 361.473C196.54 359.697 195.808 358.472 194.342 357.795C191.355 357.034 189.439 356.513 188.594 356.231C187.748 355.95 187.157 355.668 186.819 355.386C185.128 354.202 184.282 352.498 184.282 350.271C184.282 348.552 184.733 346.989 185.635 345.58C186.537 344.171 187.453 343.114 188.383 342.409C189.2 341.705 190.186 341.141 191.341 340.719C192.497 340.296 193.398 340.07 194.047 340.042H194.512H194.807C197.513 340.042 199.471 340.944 200.683 342.747C200.711 342.747 200.894 342.564 201.232 342.198C201.571 341.832 201.937 341.423 202.331 340.972C202.726 340.521 203.008 340.211 203.177 340.042C203.205 340.042 203.261 340.042 203.346 340.042C203.43 340.042 203.501 340.028 203.557 340C203.923 340 204.107 340.099 204.107 340.296C204.107 340.493 203.712 342.198 202.923 345.41C202.134 348.623 201.683 350.286 201.571 350.398C201.458 350.511 201.232 350.553 200.894 350.525C200.331 350.525 200.049 350.398 200.049 350.145C200.049 349.976 200.063 349.835 200.091 349.722C200.091 349.637 200.105 349.37 200.133 348.919C200.162 348.468 200.19 348.102 200.218 347.82C200.218 346.862 200.091 346.03 199.837 345.326C199.584 344.621 199.33 344.1 199.077 343.762C198.823 343.424 198.471 343.072 198.02 342.705C197.005 342.113 195.85 341.818 194.554 341.818C192.948 341.818 191.454 342.466 190.073 343.762C188.692 345.058 187.988 346.552 187.96 348.242C187.96 349.088 188.171 349.821 188.594 350.44C189.017 351.06 189.594 351.497 190.327 351.751C190.44 351.807 191.426 352.075 193.286 352.554C195.146 353.033 196.09 353.287 196.118 353.315C197.076 353.625 198.006 354.301 198.908 355.344C199.809 356.386 200.26 357.795 200.26 359.571C200.26 360.303 200.147 361.092 199.922 361.938C199.781 362.558 199.527 363.248 199.161 364.009C198.795 364.77 198.288 365.601 197.639 366.503C196.991 367.405 196.061 368.25 194.85 369.039C193.638 369.828 192.314 370.363 190.876 370.645C190.538 370.702 190.059 370.73 189.439 370.73C186.649 370.73 184.48 369.955 182.93 368.405L182.507 367.94L181.324 369.25C180.675 370.011 180.281 370.448 180.14 370.561C179.999 370.673 179.816 370.73 179.591 370.73C179.224 370.73 179.041 370.617 179.041 370.392C179.041 370.307 179.858 366.996 181.493 360.458C181.549 360.289 181.831 360.205 182.338 360.205H182.888C183.057 360.374 183.141 360.529 183.141 360.67C183.141 360.726 183.127 360.853 183.099 361.05C183.071 361.247 183.014 361.543 182.93 361.938C182.845 362.332 182.817 362.797 182.845 363.333C182.902 364.432 183.155 365.362 183.606 366.122C184.057 366.883 184.663 367.447 185.424 367.813C186.185 368.179 186.917 368.433 187.622 368.574C188.326 368.715 189.073 368.785 189.862 368.785Z" fill="white"/>
</g>
<g id="Group_47">
<path id="Vector_40" d="M206.22 359.148C206.22 355.907 207.164 352.793 209.052 349.806C210.94 346.819 213.321 344.452 216.195 342.705C219.07 340.958 221.944 340.07 224.818 340.042C227.354 340.042 229.369 340.761 230.863 342.198C231.116 342.48 231.328 342.719 231.497 342.917C231.666 343.114 231.779 343.255 231.835 343.339L231.877 343.466C231.962 343.466 232.342 343.1 233.018 342.367C233.216 342.198 233.427 342.001 233.652 341.775C233.878 341.55 234.103 341.324 234.329 341.099C234.554 340.874 234.695 340.719 234.751 340.634L235.385 340H235.639C236.034 340 236.231 340.099 236.231 340.296C236.231 340.409 235.78 342.339 234.878 346.087C233.864 350.004 233.357 351.976 233.357 352.004C233.3 352.145 233.23 352.23 233.145 352.258C233.061 352.286 232.807 352.314 232.384 352.343H231.708C231.539 352.174 231.454 352.047 231.454 351.962C231.454 351.934 231.469 351.835 231.497 351.666C231.525 351.497 231.553 351.215 231.581 350.821C231.609 350.426 231.624 349.976 231.624 349.468C231.624 347.468 231.173 345.72 230.271 344.227C229.369 342.733 227.833 341.973 225.664 341.944C224.931 341.944 224.142 342.043 223.296 342.24C222.451 342.438 221.437 342.776 220.253 343.255C219.07 343.734 217.9 344.523 216.745 345.622C215.589 346.721 214.561 348.031 213.659 349.553C212.757 351.159 212.039 353.033 211.503 355.175C210.968 357.316 210.7 359.063 210.7 360.416C210.7 363.628 211.771 365.939 213.913 367.348C215.265 368.306 216.928 368.785 218.9 368.785C221.465 368.785 223.747 367.827 225.748 365.911C227.749 363.995 229.073 361.91 229.721 359.655C229.834 359.289 229.919 359.078 229.975 359.021C230.031 358.965 230.257 358.937 230.651 358.937C231.215 358.937 231.497 359.063 231.497 359.317C231.497 359.458 231.483 359.585 231.454 359.697C230.637 362.713 228.89 365.305 226.213 367.475C223.536 369.645 220.662 370.73 217.59 370.73C214.406 370.73 211.715 369.673 209.517 367.56C207.319 365.446 206.22 362.642 206.22 359.148Z" fill="white"/>
</g>
<g id="Group_48">
<path id="Vector_41" d="M250.341 355.132C250.341 354.766 250.538 354.484 250.933 354.287H277.858C278.281 354.512 278.492 354.794 278.492 355.132C278.492 355.442 278.295 355.71 277.9 355.935L264.459 355.978H251.017C250.566 355.837 250.341 355.555 250.341 355.132ZM250.341 363.333C250.341 362.91 250.566 362.628 251.017 362.487H277.9C278.295 362.769 278.492 363.051 278.492 363.333C278.492 363.699 278.281 363.981 277.858 364.178H250.933C250.538 363.981 250.341 363.699 250.341 363.333Z" fill="white"/>
</g>
<g id="Group_49">
<path id="Vector_42" d="M297.208 351.666C296.447 351.666 295.841 351.413 295.39 350.905C294.939 350.398 294.714 349.778 294.714 349.046C294.714 347.045 295.461 345.312 296.954 343.846C298.448 342.381 300.307 341.648 302.534 341.648C305.098 341.648 307.24 342.438 308.959 344.016C310.678 345.594 311.551 347.637 311.579 350.145C311.579 351.356 311.297 352.512 310.734 353.611C310.17 354.71 309.494 355.668 308.705 356.485C307.916 357.302 306.789 358.345 305.323 359.613C304.309 360.486 302.9 361.783 301.097 363.502L298.603 365.869L301.815 365.911C306.239 365.911 308.592 365.841 308.874 365.7C309.071 365.643 309.409 364.389 309.889 361.938V361.811H311.579V361.938C311.551 362.022 311.368 363.304 311.03 365.784C310.692 368.264 310.48 369.56 310.396 369.673V369.8H294.714V368.997V368.489C294.714 368.292 294.798 368.081 294.967 367.855C295.137 367.63 295.559 367.137 296.236 366.376C297.053 365.474 297.757 364.685 298.349 364.009C298.603 363.727 299.082 363.206 299.786 362.445C300.491 361.684 300.97 361.163 301.223 360.881C301.477 360.599 301.886 360.134 302.449 359.486C303.013 358.838 303.407 358.359 303.633 358.049C303.858 357.739 304.182 357.316 304.605 356.781C305.028 356.245 305.323 355.795 305.493 355.428C305.662 355.062 305.873 354.653 306.127 354.202C306.38 353.752 306.563 353.301 306.676 352.85C306.789 352.399 306.887 351.976 306.972 351.582C307.056 351.187 307.099 350.722 307.099 350.187C307.099 348.412 306.62 346.876 305.662 345.58C304.703 344.283 303.337 343.635 301.561 343.635C300.632 343.635 299.814 343.875 299.11 344.354C298.405 344.833 297.912 345.298 297.63 345.749C297.349 346.199 297.208 346.467 297.208 346.552C297.208 346.58 297.278 346.594 297.419 346.594C297.926 346.594 298.448 346.791 298.983 347.186C299.518 347.58 299.786 348.228 299.786 349.13C299.786 349.835 299.561 350.426 299.11 350.905C298.659 351.384 298.025 351.638 297.208 351.666Z" fill="white"/>
<path id="Vector_43" d="M322.739 345.368L322.19 345.579C321.795 345.72 321.232 345.861 320.499 346.002C319.766 346.143 318.949 346.242 318.047 346.298H317.244V344.354H318.047C319.372 344.297 320.597 344.086 321.725 343.72C322.852 343.353 323.641 343.015 324.092 342.705C324.543 342.395 324.937 342.085 325.275 341.775C325.332 341.691 325.501 341.648 325.783 341.648C326.036 341.648 326.276 341.733 326.501 341.902V354.541L326.543 367.221C326.741 367.419 326.91 367.545 327.051 367.602C327.191 367.658 327.53 367.714 328.065 367.771C328.6 367.827 329.474 367.855 330.686 367.855H331.785V369.8H331.32C330.728 369.715 328.488 369.673 324.599 369.673C320.767 369.673 318.554 369.715 317.963 369.8H317.455V367.855H318.554C319.174 367.855 319.71 367.855 320.161 367.855C320.612 367.855 320.964 367.841 321.217 367.813C321.471 367.785 321.696 367.743 321.894 367.686C322.091 367.63 322.204 367.602 322.232 367.602C322.26 367.602 322.345 367.531 322.486 367.39C322.626 367.25 322.711 367.193 322.739 367.221V345.368Z" fill="white"/>
</g>
<g id="Group_50">
<path id="Vector_44" d="M346.629 359.782C346.629 359.782 346.629 359.599 346.629 359.232C346.629 358.866 346.826 358.584 347.221 358.387H359.859V352.047L359.901 345.706C360.183 345.34 360.451 345.157 360.705 345.157C361.071 345.157 361.353 345.368 361.55 345.791V358.387H374.146C374.569 358.613 374.78 358.894 374.78 359.232C374.78 359.571 374.569 359.852 374.146 360.078H361.55V372.674C361.325 373.069 361.071 373.266 360.789 373.266H360.705H360.62C360.282 373.266 360.028 373.069 359.859 372.674V360.078H347.221C346.826 359.881 346.629 359.599 346.629 359.232V359.782Z" fill="white"/>
</g>
<g id="Group_51">
<path id="Vector_45" d="M391.908 350.229C391.147 350.229 390.556 349.99 390.133 349.511C389.71 349.032 389.485 348.412 389.457 347.651C389.457 346.101 390.133 344.72 391.486 343.508C392.838 342.297 394.473 341.691 396.389 341.691C397.375 341.691 397.995 341.705 398.249 341.733C400.334 342.071 401.926 342.818 403.025 343.973C404.124 345.129 404.688 346.383 404.716 347.735C404.716 349.201 404.237 350.624 403.279 352.004C402.321 353.385 400.996 354.386 399.305 355.006L399.179 355.09C399.179 355.118 399.305 355.161 399.559 355.217C399.813 355.273 400.221 355.4 400.785 355.597C401.348 355.795 401.884 356.09 402.391 356.485C404.702 357.979 405.857 359.951 405.857 362.403C405.857 364.629 404.984 366.573 403.236 368.236C401.489 369.898 399.277 370.73 396.6 370.73C394.346 370.73 392.401 370.124 390.767 368.912C389.133 367.7 388.315 366.165 388.315 364.305C388.315 363.516 388.569 362.882 389.076 362.403C389.584 361.924 390.218 361.67 390.978 361.642C391.767 361.642 392.416 361.895 392.923 362.403C393.43 362.91 393.684 363.544 393.684 364.305C393.684 364.615 393.641 364.897 393.557 365.15C393.472 365.404 393.374 365.629 393.261 365.826C393.148 366.024 392.993 366.193 392.796 366.334C392.599 366.475 392.43 366.587 392.289 366.672C392.148 366.756 392.007 366.813 391.866 366.841C391.725 366.869 391.612 366.911 391.528 366.968L391.359 367.01C392.796 368.278 394.543 368.912 396.6 368.912C398.15 368.912 399.32 368.165 400.109 366.672C400.588 365.742 400.827 364.319 400.827 362.403V361.557C400.827 358.88 399.925 357.091 398.122 356.189C397.699 356.02 396.84 355.921 395.543 355.893L393.768 355.851L393.641 355.766C393.585 355.682 393.557 355.456 393.557 355.09C393.557 354.583 393.67 354.329 393.895 354.329C394.684 354.329 395.501 354.259 396.347 354.118C397.305 353.977 398.178 353.385 398.967 352.343C399.756 351.3 400.151 349.722 400.151 347.608V347.27C400.151 345.664 399.658 344.551 398.671 343.931C398.051 343.537 397.389 343.339 396.685 343.339C395.783 343.339 394.952 343.494 394.191 343.804C393.43 344.114 392.895 344.438 392.585 344.776C392.275 345.115 392.12 345.284 392.12 345.284H392.246C392.331 345.312 392.444 345.34 392.585 345.368C392.726 345.396 392.866 345.467 393.007 345.58C393.148 345.692 393.317 345.791 393.515 345.875C393.712 345.96 393.853 346.115 393.937 346.34C394.022 346.566 394.134 346.777 394.275 346.974C394.416 347.172 394.459 347.453 394.402 347.82C394.402 348.44 394.205 348.989 393.81 349.468C393.416 349.947 392.782 350.201 391.908 350.229Z" fill="white"/>
</g>
<g id="Group_52">
<path id="Vector_46" d="M419.436 359.782C419.436 359.782 419.436 359.599 419.436 359.232C419.436 358.866 419.633 358.584 420.027 358.387H432.666V352.047L432.708 345.706C432.99 345.34 433.258 345.157 433.511 345.157C433.878 345.157 434.159 345.368 434.357 345.791V358.387H446.953C447.375 358.613 447.587 358.894 447.587 359.232C447.587 359.571 447.375 359.852 446.953 360.078H434.357V372.674C434.131 373.069 433.878 373.266 433.596 373.266H433.511H433.427C433.089 373.266 432.835 373.069 432.666 372.674V360.078H420.027C419.633 359.881 419.436 359.599 419.436 359.232V359.782Z" fill="white"/>
</g>
<g id="Group_53">
<path id="Vector_47" d="M464.714 350.229C463.953 350.229 463.361 349.99 462.939 349.511C462.516 349.032 462.291 348.412 462.262 347.651C462.262 346.101 462.939 344.72 464.291 343.508C465.644 342.297 467.278 341.691 469.195 341.691C470.181 341.691 470.801 341.705 471.054 341.733C473.14 342.071 474.732 342.818 475.831 343.973C476.93 345.129 477.493 346.383 477.522 347.735C477.522 349.201 477.042 350.624 476.084 352.004C475.126 353.385 473.802 354.386 472.111 355.006L471.984 355.09C471.984 355.118 472.111 355.161 472.365 355.217C472.618 355.273 473.027 355.4 473.591 355.597C474.154 355.795 474.69 356.09 475.197 356.485C477.507 357.979 478.663 359.951 478.663 362.403C478.663 364.629 477.789 366.573 476.042 368.236C474.295 369.898 472.083 370.73 469.406 370.73C467.152 370.73 465.207 370.124 463.573 368.912C461.938 367.7 461.121 366.165 461.121 364.305C461.121 363.516 461.375 362.882 461.882 362.403C462.389 361.924 463.023 361.67 463.784 361.642C464.573 361.642 465.221 361.895 465.728 362.403C466.236 362.91 466.489 363.544 466.489 364.305C466.489 364.615 466.447 364.897 466.362 365.15C466.278 365.404 466.179 365.629 466.067 365.826C465.954 366.024 465.799 366.193 465.602 366.334C465.404 366.475 465.235 366.587 465.094 366.672C464.954 366.756 464.813 366.813 464.672 366.841C464.531 366.869 464.418 366.911 464.334 366.968L464.164 367.01C465.602 368.278 467.349 368.912 469.406 368.912C470.956 368.912 472.125 368.165 472.914 366.672C473.393 365.742 473.633 364.319 473.633 362.403V361.557C473.633 358.88 472.731 357.091 470.928 356.189C470.505 356.02 469.645 355.921 468.349 355.893L466.574 355.851L466.447 355.766C466.391 355.682 466.362 355.456 466.362 355.09C466.362 354.583 466.475 354.329 466.701 354.329C467.49 354.329 468.307 354.259 469.152 354.118C470.11 353.977 470.984 353.385 471.773 352.343C472.562 351.3 472.956 349.722 472.956 347.608V347.27C472.956 345.664 472.463 344.551 471.477 343.931C470.857 343.537 470.195 343.339 469.49 343.339C468.589 343.339 467.757 343.494 466.997 343.804C466.236 344.114 465.7 344.438 465.39 344.776C465.08 345.115 464.925 345.284 464.925 345.284H465.052C465.137 345.312 465.249 345.34 465.39 345.368C465.531 345.396 465.672 345.467 465.813 345.58C465.954 345.692 466.123 345.791 466.32 345.875C466.517 345.96 466.658 346.115 466.743 346.34C466.827 346.566 466.94 346.777 467.081 346.974C467.222 347.172 467.264 347.453 467.208 347.82C467.208 348.44 467.011 348.989 466.616 349.468C466.222 349.947 465.588 350.201 464.714 350.229Z" fill="white"/>
</g>
<g id="Group_54">
<path id="Vector_48" d="M494.59 355.132C494.59 354.766 494.787 354.484 495.182 354.287H522.107C522.53 354.512 522.741 354.794 522.741 355.132C522.741 355.442 522.544 355.71 522.149 355.935L508.708 355.978H495.266C494.815 355.837 494.59 355.555 494.59 355.132ZM494.59 363.333C494.59 362.91 494.815 362.628 495.266 362.487H522.149C522.544 362.769 522.741 363.051 522.741 363.333C522.741 363.699 522.53 363.981 522.107 364.178H495.182C494.787 363.981 494.59 363.699 494.59 363.333Z" fill="white"/>
</g>
<g id="Group_55">
<path id="Vector_49" d="M541.458 351.666C540.697 351.666 540.091 351.413 539.64 350.905C539.189 350.398 538.964 349.778 538.964 349.046C538.964 347.045 539.711 345.312 541.204 343.846C542.698 342.381 544.557 341.648 546.784 341.648C549.348 341.648 551.49 342.438 553.209 344.016C554.928 345.594 555.801 347.637 555.829 350.145C555.829 351.356 555.547 352.512 554.984 353.611C554.42 354.71 553.744 355.668 552.955 356.485C552.166 357.302 551.039 358.345 549.573 359.613C548.559 360.486 547.15 361.783 545.347 363.502L542.853 365.869L546.065 365.911C550.489 365.911 552.842 365.841 553.124 365.7C553.321 365.643 553.659 364.389 554.139 361.938V361.811H555.829V361.938C555.801 362.022 555.618 363.304 555.28 365.784C554.942 368.264 554.73 369.56 554.646 369.673V369.8H538.964V368.997V368.489C538.964 368.292 539.048 368.081 539.217 367.855C539.387 367.63 539.809 367.137 540.486 366.376C541.303 365.474 542.007 364.685 542.599 364.009C542.853 363.727 543.332 363.206 544.036 362.445C544.741 361.684 545.22 361.163 545.473 360.881C545.727 360.599 546.136 360.134 546.699 359.486C547.263 358.838 547.657 358.359 547.883 358.049C548.108 357.739 548.432 357.316 548.855 356.781C549.278 356.245 549.573 355.795 549.743 355.428C549.912 355.062 550.123 354.653 550.377 354.202C550.63 353.752 550.813 353.301 550.926 352.85C551.039 352.399 551.137 351.976 551.222 351.582C551.306 351.187 551.349 350.722 551.349 350.187C551.349 348.412 550.87 346.876 549.912 345.58C548.953 344.283 547.587 343.635 545.811 343.635C544.882 343.635 544.064 343.875 543.36 344.354C542.655 344.833 542.162 345.298 541.88 345.749C541.599 346.199 541.458 346.467 541.458 346.552C541.458 346.58 541.528 346.594 541.669 346.594C542.176 346.594 542.698 346.791 543.233 347.186C543.768 347.58 544.036 348.228 544.036 349.13C544.036 349.835 543.811 350.426 543.36 350.905C542.909 351.384 542.275 351.638 541.458 351.666Z" fill="white"/>
<path id="Vector_50" d="M560.311 350.441C560.339 350.384 560.578 348.848 561.029 345.833L561.705 341.31C561.705 341.254 561.987 341.226 562.551 341.226H563.396V341.395C563.396 341.677 563.608 341.916 564.03 342.113C564.453 342.311 565.186 342.438 566.228 342.494C567.271 342.55 569.652 342.578 573.372 342.578H578.486V344.227L575.612 348.158C575.358 348.496 574.936 349.06 574.344 349.849C573.752 350.638 573.372 351.159 573.203 351.413C573.034 351.666 572.738 352.117 572.315 352.765C571.892 353.413 571.611 353.921 571.47 354.287C571.329 354.653 571.131 355.175 570.878 355.851C570.624 356.527 570.441 357.175 570.328 357.795C570.216 358.415 570.103 359.176 569.99 360.078C569.877 360.98 569.793 361.938 569.737 362.952C569.68 363.967 569.638 365.122 569.61 366.418C569.61 366.813 569.61 367.207 569.61 367.602C569.61 367.996 569.596 368.334 569.568 368.616V368.997C569.455 369.476 569.187 369.884 568.764 370.222C568.342 370.561 567.863 370.73 567.327 370.73C567.017 370.73 566.721 370.687 566.44 370.603C566.158 370.518 565.862 370.251 565.552 369.8C565.242 369.349 565.087 368.785 565.087 368.109C565.087 363.657 566.454 359.035 569.187 354.245C569.751 353.343 570.934 351.638 572.738 349.13L574.682 346.467H570.751C565.848 346.467 563.269 346.552 563.016 346.721C562.847 346.805 562.692 347.144 562.551 347.735C562.41 348.327 562.269 348.933 562.128 349.553L562.001 350.441V350.567H560.311V350.441Z" fill="white"/>
</g>
</g>
</g>
</g>
</svg>
