<svg viewBox="0 0 972 697" fill="none" xmlns="http://www.w3.org/2000/svg">
<g id="0127122">
<g id="enunciado">
<g id="Group 71">
<path id="Rectangle 1" d="M27 54.1722C27 25.7736 49.5821 2.75195 77.4386 2.75195H947V358.58C947 386.979 924.418 410 896.561 410H27V54.1722Z" fill="#02071A"/>
<path id="Rectangle 1 (Stroke)" fill-rule="evenodd" clip-rule="evenodd" d="M941.956 7.85154H77.4386C52.3678 7.85154 32.0439 28.5732 32.0439 54.1346V404.857H896.561C921.632 404.857 941.956 384.135 941.956 358.574V7.85154ZM77.4386 2.70898C49.5821 2.70898 27 25.733 27 54.1346V410H896.561C924.418 410 947 386.976 947 358.574V2.70898H77.4386Z" fill="#CD08D1"/>
<path id="Rectangle 14" d="M81.6251 2.84419C108.602 -3.55524 947 2.84419 947 2.84419V30.5486C947 30.5486 67.351 20.3658 36.0791 30.5486C45.8095 15.8546 54.6481 9.24361 81.6251 2.84419Z" fill="#CD08D1"/>
<path id="Rectangle 15" d="M915.076 8.80518H945.066V359.639C941.385 383.447 933.755 392.198 915.076 403.62C920.574 384.915 915.076 8.80518 915.076 8.80518Z" fill="#CD08D1"/>
</g>
<g id="Indique la figura que completa esta analog&#195;&#173;a">
<path d="M47.5918 75H44.2168V49.4062H47.5918V75Z" fill="white"/>
<path d="M56.3457 55.9805L56.4512 58.3711C57.9043 56.543 59.8027 55.6289 62.1465 55.6289C66.166 55.6289 68.1934 57.8965 68.2285 62.4316V75H64.9766V62.4141C64.9648 61.043 64.6484 60.0293 64.0273 59.373C63.418 58.7168 62.4629 58.3887 61.1621 58.3887C60.1074 58.3887 59.1816 58.6699 58.3848 59.2324C57.5879 59.7949 56.9668 60.5332 56.5215 61.4473V75H53.2695V55.9805H56.3457Z" fill="white"/>
<path d="M72.3418 65.332C72.3418 62.4141 73.0332 60.0703 74.416 58.3008C75.7988 56.5195 77.6094 55.6289 79.8477 55.6289C82.0742 55.6289 83.8379 56.3906 85.1387 57.9141V48H88.3906V75H85.4023L85.2441 72.9609C83.9434 74.5547 82.1328 75.3516 79.8125 75.3516C77.6094 75.3516 75.8105 74.4492 74.416 72.6445C73.0332 70.8398 72.3418 68.4844 72.3418 65.5781V65.332ZM75.5938 65.7012C75.5938 67.8574 76.0391 69.5449 76.9297 70.7637C77.8203 71.9824 79.0508 72.5918 80.6211 72.5918C82.6836 72.5918 84.1895 71.666 85.1387 69.8145V61.0781C84.166 59.2852 82.6719 58.3887 80.6562 58.3887C79.0625 58.3887 77.8203 59.0039 76.9297 60.2344C76.0391 61.4648 75.5938 63.2871 75.5938 65.7012Z" fill="white"/>
<path d="M96.9863 75H93.7344V55.9805H96.9863V75ZM93.4707 50.9355C93.4707 50.4082 93.6289 49.9629 93.9453 49.5996C94.2734 49.2363 94.7539 49.0547 95.3867 49.0547C96.0195 49.0547 96.5 49.2363 96.8281 49.5996C97.1562 49.9629 97.3203 50.4082 97.3203 50.9355C97.3203 51.4629 97.1562 51.9023 96.8281 52.2539C96.5 52.6055 96.0195 52.7812 95.3867 52.7812C94.7539 52.7812 94.2734 52.6055 93.9453 52.2539C93.6289 51.9023 93.4707 51.4629 93.4707 50.9355Z" fill="white"/>
<path d="M101.416 65.332C101.416 62.3438 102.102 59.9824 103.473 58.248C104.844 56.502 106.684 55.6289 108.992 55.6289C111.242 55.6289 113.018 56.3848 114.318 57.8965L114.459 55.9805H117.447V82.3125H114.195V73.2422C112.883 74.6484 111.137 75.3516 108.957 75.3516C106.66 75.3516 104.826 74.4609 103.455 72.6797C102.096 70.8867 101.416 68.5137 101.416 65.5605V65.332ZM104.668 65.7012C104.668 67.8809 105.125 69.5918 106.039 70.834C106.965 72.0762 108.207 72.6973 109.766 72.6973C111.699 72.6973 113.176 71.8418 114.195 70.1309V60.8145C113.164 59.1387 111.699 58.3008 109.801 58.3008C108.23 58.3008 106.982 58.9277 106.057 60.1816C105.131 61.4238 104.668 63.2637 104.668 65.7012Z" fill="white"/>
<path d="M134.41 73.1191C133.145 74.6074 131.287 75.3516 128.838 75.3516C126.811 75.3516 125.264 74.7656 124.197 73.5938C123.143 72.4102 122.609 70.6641 122.598 68.3555V55.9805H125.85V68.2676C125.85 71.1504 127.021 72.5918 129.365 72.5918C131.85 72.5918 133.502 71.666 134.322 69.8145V55.9805H137.574V75H134.48L134.41 73.1191Z" fill="white"/>
<path d="M150.424 75.3516C147.846 75.3516 145.748 74.5078 144.131 72.8203C142.514 71.1211 141.705 68.8535 141.705 66.0176V65.4199C141.705 63.5332 142.062 61.8516 142.777 60.375C143.504 58.8867 144.512 57.7266 145.801 56.8945C147.102 56.0508 148.508 55.6289 150.02 55.6289C152.492 55.6289 154.414 56.4434 155.785 58.0723C157.156 59.7012 157.842 62.0332 157.842 65.0684V66.4219H144.957C145.004 68.2969 145.549 69.8145 146.592 70.9746C147.646 72.123 148.982 72.6973 150.6 72.6973C151.748 72.6973 152.721 72.4629 153.518 71.9941C154.314 71.5254 155.012 70.9043 155.609 70.1309L157.596 71.6777C156.002 74.127 153.611 75.3516 150.424 75.3516ZM150.02 58.3008C148.707 58.3008 147.605 58.7812 146.715 59.7422C145.824 60.6914 145.273 62.0273 145.062 63.75H154.59V63.5039C154.496 61.8516 154.051 60.5742 153.254 59.6719C152.457 58.7578 151.379 58.3008 150.02 58.3008Z" fill="white"/>
<path d="M174.084 75H170.832V48H174.084V75Z" fill="white"/>
<path d="M191.047 75C190.859 74.625 190.707 73.957 190.59 72.9961C189.078 74.5664 187.273 75.3516 185.176 75.3516C183.301 75.3516 181.76 74.8242 180.553 73.7695C179.357 72.7031 178.76 71.3555 178.76 69.7266C178.76 67.7461 179.51 66.2109 181.01 65.1211C182.521 64.0195 184.643 63.4688 187.373 63.4688H190.537V61.9746C190.537 60.8379 190.197 59.9355 189.518 59.2676C188.838 58.5879 187.836 58.248 186.512 58.248C185.352 58.248 184.379 58.541 183.594 59.127C182.809 59.7129 182.416 60.4219 182.416 61.2539H179.146C179.146 60.3047 179.48 59.3906 180.148 58.5117C180.828 57.6211 181.742 56.918 182.891 56.4023C184.051 55.8867 185.322 55.6289 186.705 55.6289C188.896 55.6289 190.613 56.1797 191.855 57.2812C193.098 58.3711 193.742 59.877 193.789 61.7988V70.5527C193.789 72.2988 194.012 73.6875 194.457 74.7188V75H191.047ZM185.65 72.5215C186.67 72.5215 187.637 72.2578 188.551 71.7305C189.465 71.2031 190.127 70.5176 190.537 69.6738V65.7715H187.988C184.004 65.7715 182.012 66.9375 182.012 69.2695C182.012 70.2891 182.352 71.0859 183.031 71.6602C183.711 72.2344 184.584 72.5215 185.65 72.5215Z" fill="white"/>
<path d="M208.906 75V58.4941H205.9V55.9805H208.906V54.3633C208.906 52.2422 209.51 50.5898 210.717 49.4062C211.936 48.2227 213.652 47.6309 215.867 47.6309C217.18 47.6309 218.838 47.9883 220.842 48.7031L220.297 51.4453C218.832 50.8594 217.438 50.5664 216.113 50.5664C214.719 50.5664 213.711 50.8828 213.09 51.5156C212.48 52.1367 212.176 53.0742 212.176 54.3281V55.9805H216.061V58.4941H212.176V75H208.906ZM222.459 75H219.189V55.9805H222.459V75Z" fill="white"/>
<path d="M226.977 65.332C226.977 62.3672 227.662 60.0117 229.033 58.2656C230.404 56.5078 232.221 55.6289 234.482 55.6289C236.803 55.6289 238.613 56.4492 239.914 58.0898L240.072 55.9805H243.043V74.543C243.043 77.0039 242.311 78.9434 240.846 80.3613C239.393 81.7793 237.436 82.4883 234.975 82.4883C233.604 82.4883 232.262 82.1953 230.949 81.6094C229.637 81.0234 228.635 80.2207 227.943 79.2012L229.631 77.25C231.025 78.9727 232.73 79.834 234.746 79.834C236.328 79.834 237.559 79.3887 238.438 78.498C239.328 77.6074 239.773 76.3535 239.773 74.7363V73.1016C238.473 74.6016 236.697 75.3516 234.447 75.3516C232.221 75.3516 230.416 74.4551 229.033 72.6621C227.662 70.8691 226.977 68.4258 226.977 65.332ZM230.246 65.7012C230.246 67.8457 230.686 69.5332 231.564 70.7637C232.443 71.9824 233.674 72.5918 235.256 72.5918C237.307 72.5918 238.812 71.6602 239.773 69.7969V61.1133C238.777 59.2969 237.283 58.3887 235.291 58.3887C233.709 58.3887 232.473 59.0039 231.582 60.2344C230.691 61.4648 230.246 63.2871 230.246 65.7012Z" fill="white"/>
<path d="M259.707 73.1191C258.441 74.6074 256.584 75.3516 254.135 75.3516C252.107 75.3516 250.561 74.7656 249.494 73.5938C248.439 72.4102 247.906 70.6641 247.895 68.3555V55.9805H251.146V68.2676C251.146 71.1504 252.318 72.5918 254.662 72.5918C257.146 72.5918 258.799 71.666 259.619 69.8145V55.9805H262.871V75H259.777L259.707 73.1191Z" fill="white"/>
<path d="M277.021 58.8984C276.529 58.8164 275.996 58.7754 275.422 58.7754C273.289 58.7754 271.842 59.6836 271.08 61.5V75H267.828V55.9805H270.992L271.045 58.1777C272.111 56.4785 273.623 55.6289 275.58 55.6289C276.213 55.6289 276.693 55.7109 277.021 55.875V58.8984Z" fill="white"/>
<path d="M291.066 75C290.879 74.625 290.727 73.957 290.609 72.9961C289.098 74.5664 287.293 75.3516 285.195 75.3516C283.32 75.3516 281.779 74.8242 280.572 73.7695C279.377 72.7031 278.779 71.3555 278.779 69.7266C278.779 67.7461 279.529 66.2109 281.029 65.1211C282.541 64.0195 284.662 63.4688 287.393 63.4688H290.557V61.9746C290.557 60.8379 290.217 59.9355 289.537 59.2676C288.857 58.5879 287.855 58.248 286.531 58.248C285.371 58.248 284.398 58.541 283.613 59.127C282.828 59.7129 282.436 60.4219 282.436 61.2539H279.166C279.166 60.3047 279.5 59.3906 280.168 58.5117C280.848 57.6211 281.762 56.918 282.91 56.4023C284.07 55.8867 285.342 55.6289 286.725 55.6289C288.916 55.6289 290.633 56.1797 291.875 57.2812C293.117 58.3711 293.762 59.877 293.809 61.7988V70.5527C293.809 72.2988 294.031 73.6875 294.477 74.7188V75H291.066ZM285.67 72.5215C286.689 72.5215 287.656 72.2578 288.57 71.7305C289.484 71.2031 290.146 70.5176 290.557 69.6738V65.7715H288.008C284.023 65.7715 282.031 66.9375 282.031 69.2695C282.031 70.2891 282.371 71.0859 283.051 71.6602C283.73 72.2344 284.604 72.5215 285.67 72.5215Z" fill="white"/>
<path d="M307.045 65.332C307.045 62.3438 307.73 59.9824 309.102 58.248C310.473 56.502 312.312 55.6289 314.621 55.6289C316.871 55.6289 318.646 56.3848 319.947 57.8965L320.088 55.9805H323.076V82.3125H319.824V73.2422C318.512 74.6484 316.766 75.3516 314.586 75.3516C312.289 75.3516 310.455 74.4609 309.084 72.6797C307.725 70.8867 307.045 68.5137 307.045 65.5605V65.332ZM310.297 65.7012C310.297 67.8809 310.754 69.5918 311.668 70.834C312.594 72.0762 313.836 72.6973 315.395 72.6973C317.328 72.6973 318.805 71.8418 319.824 70.1309V60.8145C318.793 59.1387 317.328 58.3008 315.43 58.3008C313.859 58.3008 312.611 58.9277 311.686 60.1816C310.76 61.4238 310.297 63.2637 310.297 65.7012Z" fill="white"/>
<path d="M340.039 73.1191C338.773 74.6074 336.916 75.3516 334.467 75.3516C332.439 75.3516 330.893 74.7656 329.826 73.5938C328.771 72.4102 328.238 70.6641 328.227 68.3555V55.9805H331.479V68.2676C331.479 71.1504 332.65 72.5918 334.994 72.5918C337.479 72.5918 339.131 71.666 339.951 69.8145V55.9805H343.203V75H340.109L340.039 73.1191Z" fill="white"/>
<path d="M356.053 75.3516C353.475 75.3516 351.377 74.5078 349.76 72.8203C348.143 71.1211 347.334 68.8535 347.334 66.0176V65.4199C347.334 63.5332 347.691 61.8516 348.406 60.375C349.133 58.8867 350.141 57.7266 351.43 56.8945C352.73 56.0508 354.137 55.6289 355.648 55.6289C358.121 55.6289 360.043 56.4434 361.414 58.0723C362.785 59.7012 363.471 62.0332 363.471 65.0684V66.4219H350.586C350.633 68.2969 351.178 69.8145 352.221 70.9746C353.275 72.123 354.611 72.6973 356.229 72.6973C357.377 72.6973 358.35 72.4629 359.146 71.9941C359.943 71.5254 360.641 70.9043 361.238 70.1309L363.225 71.6777C361.631 74.127 359.24 75.3516 356.053 75.3516ZM355.648 58.3008C354.336 58.3008 353.234 58.7812 352.344 59.7422C351.453 60.6914 350.902 62.0273 350.691 63.75H360.219V63.5039C360.125 61.8516 359.68 60.5742 358.883 59.6719C358.086 58.7578 357.008 58.3008 355.648 58.3008Z" fill="white"/>
<path d="M383.809 72.6973C384.969 72.6973 385.982 72.3457 386.85 71.6426C387.717 70.9395 388.197 70.0605 388.291 69.0059H391.367C391.309 70.0957 390.934 71.1328 390.242 72.1172C389.551 73.1016 388.625 73.8867 387.465 74.4727C386.316 75.0586 385.098 75.3516 383.809 75.3516C381.219 75.3516 379.156 74.4902 377.621 72.7676C376.098 71.0332 375.336 68.666 375.336 65.666V65.1211C375.336 63.2695 375.676 61.623 376.355 60.1816C377.035 58.7402 378.008 57.6211 379.273 56.8242C380.551 56.0273 382.057 55.6289 383.791 55.6289C385.924 55.6289 387.693 56.2676 389.1 57.5449C390.518 58.8223 391.273 60.4805 391.367 62.5195H388.291C388.197 61.2891 387.729 60.2812 386.885 59.4961C386.053 58.6992 385.021 58.3008 383.791 58.3008C382.139 58.3008 380.855 58.8984 379.941 60.0938C379.039 61.2773 378.588 62.9941 378.588 65.2441V65.8594C378.588 68.0508 379.039 69.7383 379.941 70.9219C380.844 72.1055 382.133 72.6973 383.809 72.6973Z" fill="white"/>
<path d="M394.162 65.3145C394.162 63.4512 394.525 61.7754 395.252 60.2871C395.99 58.7988 397.01 57.6504 398.311 56.8418C399.623 56.0332 401.117 55.6289 402.793 55.6289C405.383 55.6289 407.475 56.5254 409.068 58.3184C410.674 60.1113 411.477 62.4961 411.477 65.4727V65.7012C411.477 67.5527 411.119 69.2168 410.404 70.6934C409.701 72.1582 408.688 73.3008 407.363 74.1211C406.051 74.9414 404.539 75.3516 402.828 75.3516C400.25 75.3516 398.158 74.4551 396.553 72.6621C394.959 70.8691 394.162 68.4961 394.162 65.543V65.3145ZM397.432 65.7012C397.432 67.8105 397.918 69.5039 398.891 70.7812C399.875 72.0586 401.188 72.6973 402.828 72.6973C404.48 72.6973 405.793 72.0527 406.766 70.7637C407.738 69.4629 408.225 67.6465 408.225 65.3145C408.225 63.2285 407.727 61.541 406.73 60.252C405.746 58.9512 404.434 58.3008 402.793 58.3008C401.188 58.3008 399.893 58.9395 398.908 60.2168C397.924 61.4941 397.432 63.3223 397.432 65.7012Z" fill="white"/>
<path d="M418.613 55.9805L418.701 58.0898C420.096 56.4492 421.977 55.6289 424.344 55.6289C427.004 55.6289 428.814 56.6484 429.775 58.6875C430.408 57.7734 431.229 57.0352 432.236 56.4727C433.256 55.9102 434.457 55.6289 435.84 55.6289C440.012 55.6289 442.133 57.8379 442.203 62.2559V75H438.951V62.4492C438.951 61.0898 438.641 60.0762 438.02 59.4082C437.398 58.7285 436.355 58.3887 434.891 58.3887C433.684 58.3887 432.682 58.752 431.885 59.4785C431.088 60.1934 430.625 61.1602 430.496 62.3789V75H427.227V62.5371C427.227 59.7715 425.873 58.3887 423.166 58.3887C421.033 58.3887 419.574 59.2969 418.789 61.1133V75H415.537V55.9805H418.613Z" fill="white"/>
<path d="M463.191 65.7012C463.191 68.5957 462.529 70.9277 461.205 72.6973C459.881 74.4668 458.088 75.3516 455.826 75.3516C453.518 75.3516 451.701 74.6191 450.377 73.1543V82.3125H447.125V55.9805H450.096L450.254 58.0898C451.578 56.4492 453.418 55.6289 455.773 55.6289C458.059 55.6289 459.863 56.4902 461.188 58.2129C462.523 59.9355 463.191 62.332 463.191 65.4023V65.7012ZM459.939 65.332C459.939 63.1875 459.482 61.4941 458.568 60.252C457.654 59.0098 456.4 58.3887 454.807 58.3887C452.838 58.3887 451.361 59.2617 450.377 61.0078V70.0957C451.35 71.8301 452.838 72.6973 454.842 72.6973C456.4 72.6973 457.637 72.082 458.551 70.8516C459.477 69.6094 459.939 67.7695 459.939 65.332Z" fill="white"/>
<path d="M470.873 75H467.621V48H470.873V75Z" fill="white"/>
<path d="M483.986 75.3516C481.408 75.3516 479.311 74.5078 477.693 72.8203C476.076 71.1211 475.268 68.8535 475.268 66.0176V65.4199C475.268 63.5332 475.625 61.8516 476.34 60.375C477.066 58.8867 478.074 57.7266 479.363 56.8945C480.664 56.0508 482.07 55.6289 483.582 55.6289C486.055 55.6289 487.977 56.4434 489.348 58.0723C490.719 59.7012 491.404 62.0332 491.404 65.0684V66.4219H478.52C478.566 68.2969 479.111 69.8145 480.154 70.9746C481.209 72.123 482.545 72.6973 484.162 72.6973C485.311 72.6973 486.283 72.4629 487.08 71.9941C487.877 71.5254 488.574 70.9043 489.172 70.1309L491.158 71.6777C489.564 74.127 487.174 75.3516 483.986 75.3516ZM483.582 58.3008C482.27 58.3008 481.168 58.7812 480.277 59.7422C479.387 60.6914 478.836 62.0273 478.625 63.75H488.152V63.5039C488.059 61.8516 487.613 60.5742 486.816 59.6719C486.02 58.7578 484.941 58.3008 483.582 58.3008Z" fill="white"/>
<path d="M499.596 51.375V55.9805H503.146V58.4941H499.596V70.2891C499.596 71.0508 499.754 71.625 500.07 72.0117C500.387 72.3867 500.926 72.5742 501.688 72.5742C502.062 72.5742 502.578 72.5039 503.234 72.3633V75C502.379 75.2344 501.547 75.3516 500.738 75.3516C499.285 75.3516 498.189 74.9121 497.451 74.0332C496.713 73.1543 496.344 71.9062 496.344 70.2891V58.4941H492.881V55.9805H496.344V51.375H499.596Z" fill="white"/>
<path d="M518.703 75C518.516 74.625 518.363 73.957 518.246 72.9961C516.734 74.5664 514.93 75.3516 512.832 75.3516C510.957 75.3516 509.416 74.8242 508.209 73.7695C507.014 72.7031 506.416 71.3555 506.416 69.7266C506.416 67.7461 507.166 66.2109 508.666 65.1211C510.178 64.0195 512.299 63.4688 515.029 63.4688H518.193V61.9746C518.193 60.8379 517.854 59.9355 517.174 59.2676C516.494 58.5879 515.492 58.248 514.168 58.248C513.008 58.248 512.035 58.541 511.25 59.127C510.465 59.7129 510.072 60.4219 510.072 61.2539H506.803C506.803 60.3047 507.137 59.3906 507.805 58.5117C508.484 57.6211 509.398 56.918 510.547 56.4023C511.707 55.8867 512.979 55.6289 514.361 55.6289C516.553 55.6289 518.27 56.1797 519.512 57.2812C520.754 58.3711 521.398 59.877 521.445 61.7988V70.5527C521.445 72.2988 521.668 73.6875 522.113 74.7188V75H518.703ZM513.307 72.5215C514.326 72.5215 515.293 72.2578 516.207 71.7305C517.121 71.2031 517.783 70.5176 518.193 69.6738V65.7715H515.645C511.66 65.7715 509.668 66.9375 509.668 69.2695C509.668 70.2891 510.008 71.0859 510.688 71.6602C511.367 72.2344 512.24 72.5215 513.307 72.5215Z" fill="white"/>
<path d="M543.365 75.3516C540.787 75.3516 538.689 74.5078 537.072 72.8203C535.455 71.1211 534.646 68.8535 534.646 66.0176V65.4199C534.646 63.5332 535.004 61.8516 535.719 60.375C536.445 58.8867 537.453 57.7266 538.742 56.8945C540.043 56.0508 541.449 55.6289 542.961 55.6289C545.434 55.6289 547.355 56.4434 548.727 58.0723C550.098 59.7012 550.783 62.0332 550.783 65.0684V66.4219H537.898C537.945 68.2969 538.49 69.8145 539.533 70.9746C540.588 72.123 541.924 72.6973 543.541 72.6973C544.689 72.6973 545.662 72.4629 546.459 71.9941C547.256 71.5254 547.953 70.9043 548.551 70.1309L550.537 71.6777C548.943 74.127 546.553 75.3516 543.365 75.3516ZM542.961 58.3008C541.648 58.3008 540.547 58.7812 539.656 59.7422C538.766 60.6914 538.215 62.0273 538.004 63.75H547.531V63.5039C547.438 61.8516 546.992 60.5742 546.195 59.6719C545.398 58.7578 544.32 58.3008 542.961 58.3008Z" fill="white"/>
<path d="M565.637 69.9551C565.637 69.0762 565.303 68.3965 564.635 67.916C563.979 67.4238 562.824 67.002 561.172 66.6504C559.531 66.2988 558.225 65.877 557.252 65.3848C556.291 64.8926 555.576 64.3066 555.107 63.627C554.65 62.9473 554.422 62.1387 554.422 61.2012C554.422 59.6426 555.078 58.3242 556.391 57.2461C557.715 56.168 559.402 55.6289 561.453 55.6289C563.609 55.6289 565.355 56.1855 566.691 57.2988C568.039 58.4121 568.713 59.8359 568.713 61.5703H565.443C565.443 60.6797 565.062 59.9121 564.301 59.2676C563.551 58.623 562.602 58.3008 561.453 58.3008C560.27 58.3008 559.344 58.5586 558.676 59.0742C558.008 59.5898 557.674 60.2637 557.674 61.0957C557.674 61.8809 557.984 62.4727 558.605 62.8711C559.227 63.2695 560.346 63.6504 561.963 64.0137C563.592 64.377 564.91 64.8105 565.918 65.3145C566.926 65.8184 567.67 66.4277 568.15 67.1426C568.643 67.8457 568.889 68.707 568.889 69.7266C568.889 71.4258 568.209 72.791 566.85 73.8223C565.49 74.8418 563.727 75.3516 561.559 75.3516C560.035 75.3516 558.688 75.082 557.516 74.543C556.344 74.0039 555.424 73.2539 554.756 72.293C554.1 71.3203 553.771 70.2715 553.771 69.1465H557.023C557.082 70.2363 557.516 71.1035 558.324 71.748C559.145 72.3809 560.223 72.6973 561.559 72.6973C562.789 72.6973 563.773 72.4512 564.512 71.959C565.262 71.4551 565.637 70.7871 565.637 69.9551Z" fill="white"/>
<path d="M577.537 51.375V55.9805H581.088V58.4941H577.537V70.2891C577.537 71.0508 577.695 71.625 578.012 72.0117C578.328 72.3867 578.867 72.5742 579.629 72.5742C580.004 72.5742 580.52 72.5039 581.176 72.3633V75C580.32 75.2344 579.488 75.3516 578.68 75.3516C577.227 75.3516 576.131 74.9121 575.393 74.0332C574.654 73.1543 574.285 71.9062 574.285 70.2891V58.4941H570.822V55.9805H574.285V51.375H577.537Z" fill="white"/>
<path d="M596.645 75C596.457 74.625 596.305 73.957 596.188 72.9961C594.676 74.5664 592.871 75.3516 590.773 75.3516C588.898 75.3516 587.357 74.8242 586.15 73.7695C584.955 72.7031 584.357 71.3555 584.357 69.7266C584.357 67.7461 585.107 66.2109 586.607 65.1211C588.119 64.0195 590.24 63.4688 592.971 63.4688H596.135V61.9746C596.135 60.8379 595.795 59.9355 595.115 59.2676C594.436 58.5879 593.434 58.248 592.109 58.248C590.949 58.248 589.977 58.541 589.191 59.127C588.406 59.7129 588.014 60.4219 588.014 61.2539H584.744C584.744 60.3047 585.078 59.3906 585.746 58.5117C586.426 57.6211 587.34 56.918 588.488 56.4023C589.648 55.8867 590.92 55.6289 592.303 55.6289C594.494 55.6289 596.211 56.1797 597.453 57.2812C598.695 58.3711 599.34 59.877 599.387 61.7988V70.5527C599.387 72.2988 599.609 73.6875 600.055 74.7188V75H596.645ZM591.248 72.5215C592.268 72.5215 593.234 72.2578 594.148 71.7305C595.062 71.2031 595.725 70.5176 596.135 69.6738V65.7715H593.586C589.602 65.7715 587.609 66.9375 587.609 69.2695C587.609 70.2891 587.949 71.0859 588.629 71.6602C589.309 72.2344 590.182 72.5215 591.248 72.5215Z" fill="white"/>
<path d="M625.156 75C624.969 74.625 624.816 73.957 624.699 72.9961C623.188 74.5664 621.383 75.3516 619.285 75.3516C617.41 75.3516 615.869 74.8242 614.662 73.7695C613.467 72.7031 612.869 71.3555 612.869 69.7266C612.869 67.7461 613.619 66.2109 615.119 65.1211C616.631 64.0195 618.752 63.4688 621.482 63.4688H624.646V61.9746C624.646 60.8379 624.307 59.9355 623.627 59.2676C622.947 58.5879 621.945 58.248 620.621 58.248C619.461 58.248 618.488 58.541 617.703 59.127C616.918 59.7129 616.525 60.4219 616.525 61.2539H613.256C613.256 60.3047 613.59 59.3906 614.258 58.5117C614.938 57.6211 615.852 56.918 617 56.4023C618.16 55.8867 619.432 55.6289 620.814 55.6289C623.006 55.6289 624.723 56.1797 625.965 57.2812C627.207 58.3711 627.852 59.877 627.898 61.7988V70.5527C627.898 72.2988 628.121 73.6875 628.566 74.7188V75H625.156ZM619.76 72.5215C620.779 72.5215 621.746 72.2578 622.66 71.7305C623.574 71.2031 624.236 70.5176 624.646 69.6738V65.7715H622.098C618.113 65.7715 616.121 66.9375 616.121 69.2695C616.121 70.2891 616.461 71.0859 617.141 71.6602C617.82 72.2344 618.693 72.5215 619.76 72.5215Z" fill="white"/>
<path d="M636.072 55.9805L636.178 58.3711C637.631 56.543 639.529 55.6289 641.873 55.6289C645.893 55.6289 647.92 57.8965 647.955 62.4316V75H644.703V62.4141C644.691 61.043 644.375 60.0293 643.754 59.373C643.145 58.7168 642.189 58.3887 640.889 58.3887C639.834 58.3887 638.908 58.6699 638.111 59.2324C637.314 59.7949 636.693 60.5332 636.248 61.4473V75H632.996V55.9805H636.072Z" fill="white"/>
<path d="M664.602 75C664.414 74.625 664.262 73.957 664.145 72.9961C662.633 74.5664 660.828 75.3516 658.73 75.3516C656.855 75.3516 655.314 74.8242 654.107 73.7695C652.912 72.7031 652.314 71.3555 652.314 69.7266C652.314 67.7461 653.064 66.2109 654.564 65.1211C656.076 64.0195 658.197 63.4688 660.928 63.4688H664.092V61.9746C664.092 60.8379 663.752 59.9355 663.072 59.2676C662.393 58.5879 661.391 58.248 660.066 58.248C658.906 58.248 657.934 58.541 657.148 59.127C656.363 59.7129 655.971 60.4219 655.971 61.2539H652.701C652.701 60.3047 653.035 59.3906 653.703 58.5117C654.383 57.6211 655.297 56.918 656.445 56.4023C657.605 55.8867 658.877 55.6289 660.26 55.6289C662.451 55.6289 664.168 56.1797 665.41 57.2812C666.652 58.3711 667.297 59.877 667.344 61.7988V70.5527C667.344 72.2988 667.566 73.6875 668.012 74.7188V75H664.602ZM659.205 72.5215C660.225 72.5215 661.191 72.2578 662.105 71.7305C663.02 71.2031 663.682 70.5176 664.092 69.6738V65.7715H661.543C657.559 65.7715 655.566 66.9375 655.566 69.2695C655.566 70.2891 655.906 71.0859 656.586 71.6602C657.266 72.2344 658.139 72.5215 659.205 72.5215Z" fill="white"/>
<path d="M675.975 75H672.723V48H675.975V75Z" fill="white"/>
<path d="M680.334 65.3145C680.334 63.4512 680.697 61.7754 681.424 60.2871C682.162 58.7988 683.182 57.6504 684.482 56.8418C685.795 56.0332 687.289 55.6289 688.965 55.6289C691.555 55.6289 693.646 56.5254 695.24 58.3184C696.846 60.1113 697.648 62.4961 697.648 65.4727V65.7012C697.648 67.5527 697.291 69.2168 696.576 70.6934C695.873 72.1582 694.859 73.3008 693.535 74.1211C692.223 74.9414 690.711 75.3516 689 75.3516C686.422 75.3516 684.33 74.4551 682.725 72.6621C681.131 70.8691 680.334 68.4961 680.334 65.543V65.3145ZM683.604 65.7012C683.604 67.8105 684.09 69.5039 685.062 70.7812C686.047 72.0586 687.359 72.6973 689 72.6973C690.652 72.6973 691.965 72.0527 692.938 70.7637C693.91 69.4629 694.396 67.6465 694.396 65.3145C694.396 63.2285 693.898 61.541 692.902 60.252C691.918 58.9512 690.605 58.3008 688.965 58.3008C687.359 58.3008 686.064 58.9395 685.08 60.2168C684.096 61.4941 683.604 63.3223 683.604 65.7012Z" fill="white"/>
<path d="M700.953 65.332C700.953 62.3672 701.639 60.0117 703.01 58.2656C704.381 56.5078 706.197 55.6289 708.459 55.6289C710.779 55.6289 712.59 56.4492 713.891 58.0898L714.049 55.9805H717.02V74.543C717.02 77.0039 716.287 78.9434 714.822 80.3613C713.369 81.7793 711.412 82.4883 708.951 82.4883C707.58 82.4883 706.238 82.1953 704.926 81.6094C703.613 81.0234 702.611 80.2207 701.92 79.2012L703.607 77.25C705.002 78.9727 706.707 79.834 708.723 79.834C710.305 79.834 711.535 79.3887 712.414 78.498C713.305 77.6074 713.75 76.3535 713.75 74.7363V73.1016C712.449 74.6016 710.674 75.3516 708.424 75.3516C706.197 75.3516 704.393 74.4551 703.01 72.6621C701.639 70.8691 700.953 68.4258 700.953 65.332ZM704.223 65.7012C704.223 67.8457 704.662 69.5332 705.541 70.7637C706.42 71.9824 707.65 72.5918 709.232 72.5918C711.283 72.5918 712.789 71.6602 713.75 69.7969V61.1133C712.754 59.2969 711.26 58.3887 709.268 58.3887C707.686 58.3887 706.449 59.0039 705.559 60.2344C704.668 61.4648 704.223 63.2871 704.223 65.7012Z" fill="white"/>
<path d="M725.475 75H722.205V55.9805H725.475V75ZM725.51 48.0176H729.447L724.736 53.1855H722.117L725.51 48.0176Z" fill="white"/>
<path d="M742.578 75C742.391 74.625 742.238 73.957 742.121 72.9961C740.609 74.5664 738.805 75.3516 736.707 75.3516C734.832 75.3516 733.291 74.8242 732.084 73.7695C730.889 72.7031 730.291 71.3555 730.291 69.7266C730.291 67.7461 731.041 66.2109 732.541 65.1211C734.053 64.0195 736.174 63.4688 738.904 63.4688H742.068V61.9746C742.068 60.8379 741.729 59.9355 741.049 59.2676C740.369 58.5879 739.367 58.248 738.043 58.248C736.883 58.248 735.91 58.541 735.125 59.127C734.34 59.7129 733.947 60.4219 733.947 61.2539H730.678C730.678 60.3047 731.012 59.3906 731.68 58.5117C732.359 57.6211 733.273 56.918 734.422 56.4023C735.582 55.8867 736.854 55.6289 738.236 55.6289C740.428 55.6289 742.145 56.1797 743.387 57.2812C744.629 58.3711 745.273 59.877 745.32 61.7988V70.5527C745.32 72.2988 745.543 73.6875 745.988 74.7188V75H742.578ZM737.182 72.5215C738.201 72.5215 739.168 72.2578 740.082 71.7305C740.996 71.2031 741.658 70.5176 742.068 69.6738V65.7715H739.52C735.535 65.7715 733.543 66.9375 733.543 69.2695C733.543 70.2891 733.883 71.0859 734.562 71.6602C735.242 72.2344 736.115 72.5215 737.182 72.5215Z" fill="white"/>
</g>
<g id="Group 326">
<g id="Group 324">
<g id="Group 321">
<path id="Union" fill-rule="evenodd" clip-rule="evenodd" d="M154.694 145.536L263.306 254.147L266.841 250.612L158.23 142L154.694 145.536ZM154 362.953L262.612 254.342L259.076 250.806L150.464 359.418L154 362.953Z" fill="white"/>
<path id="Union_2" fill-rule="evenodd" clip-rule="evenodd" d="M143.036 175.877L221.401 254.241L224.936 250.706L146.572 172.342L143.036 175.877ZM142.536 332.746L220.9 254.381L217.364 250.846L139 329.21L142.536 332.746Z" fill="white"/>
<path id="Union_3" fill-rule="evenodd" clip-rule="evenodd" d="M134.931 319.256L66.5355 250.86L63 254.395L131.396 322.791L134.931 319.256ZM135.368 182.342L66.9723 250.738L70.5078 254.273L138.904 185.877L135.368 182.342Z" fill="white"/>
</g>
<g id="Group 322">
<path id="Union_4" fill-rule="evenodd" clip-rule="evenodd" d="M337.536 266.147L446.147 157.536L442.612 154L334 262.612L337.536 266.147ZM554.953 266.842L446.342 158.23L442.806 161.765L551.418 270.377L554.953 266.842Z" fill="white"/>
<path id="Union_5" fill-rule="evenodd" clip-rule="evenodd" d="M448.036 193.876L526.401 272.24L529.936 268.705L451.572 190.34L448.036 193.876ZM447.536 350.744L525.9 272.38L522.364 268.845L444 347.209L447.536 350.744Z" fill="white"/>
<path id="Union_6" fill-rule="evenodd" clip-rule="evenodd" d="M365.536 271.931L433.931 203.535L430.396 200L362 268.396L365.536 271.931ZM502.45 272.368L434.054 203.972L430.518 207.508L498.914 275.904L502.45 272.368Z" fill="white"/>
</g>
<g id="Group 323">
<path id="Union_7" fill-rule="evenodd" clip-rule="evenodd" d="M757.147 360.418L648.535 251.806L645 255.342L753.612 363.953L757.147 360.418ZM757.841 143L649.23 251.612L652.765 255.147L761.377 146.536L757.841 143Z" fill="white"/>
<path id="Union_8" fill-rule="evenodd" clip-rule="evenodd" d="M684.536 254.9L762.9 176.535L759.364 173L681 251.364L684.536 254.9ZM841.404 255.401L763.04 177.036L759.504 180.572L837.869 258.936L841.404 255.401Z" fill="white"/>
<path id="Union_9" fill-rule="evenodd" clip-rule="evenodd" d="M837.914 260.972L769.518 329.368L773.053 332.904L841.449 264.508L837.914 260.972ZM701 260.536L769.396 328.931L772.931 325.396L704.535 257L701 260.536Z" fill="white"/>
</g>
</g>
<g id="es a">
<path d="M272.354 212.352C269.775 212.352 267.678 211.508 266.061 209.82C264.443 208.121 263.635 205.854 263.635 203.018V202.42C263.635 200.533 263.992 198.852 264.707 197.375C265.434 195.887 266.441 194.727 267.73 193.895C269.031 193.051 270.438 192.629 271.949 192.629C274.422 192.629 276.344 193.443 277.715 195.072C279.086 196.701 279.771 199.033 279.771 202.068V203.422H266.887C266.934 205.297 267.479 206.814 268.521 207.975C269.576 209.123 270.912 209.697 272.529 209.697C273.678 209.697 274.65 209.463 275.447 208.994C276.244 208.525 276.941 207.904 277.539 207.131L279.525 208.678C277.932 211.127 275.541 212.352 272.354 212.352ZM271.949 195.301C270.637 195.301 269.535 195.781 268.645 196.742C267.754 197.691 267.203 199.027 266.992 200.75H276.52V200.504C276.426 198.852 275.98 197.574 275.184 196.672C274.387 195.758 273.309 195.301 271.949 195.301Z" fill="white"/>
<path d="M294.625 206.955C294.625 206.076 294.291 205.396 293.623 204.916C292.967 204.424 291.812 204.002 290.16 203.65C288.52 203.299 287.213 202.877 286.24 202.385C285.279 201.893 284.564 201.307 284.096 200.627C283.639 199.947 283.41 199.139 283.41 198.201C283.41 196.643 284.066 195.324 285.379 194.246C286.703 193.168 288.391 192.629 290.441 192.629C292.598 192.629 294.344 193.186 295.68 194.299C297.027 195.412 297.701 196.836 297.701 198.57H294.432C294.432 197.68 294.051 196.912 293.289 196.268C292.539 195.623 291.59 195.301 290.441 195.301C289.258 195.301 288.332 195.559 287.664 196.074C286.996 196.59 286.662 197.264 286.662 198.096C286.662 198.881 286.973 199.473 287.594 199.871C288.215 200.27 289.334 200.65 290.951 201.014C292.58 201.377 293.898 201.811 294.906 202.314C295.914 202.818 296.658 203.428 297.139 204.143C297.631 204.846 297.877 205.707 297.877 206.727C297.877 208.426 297.197 209.791 295.838 210.822C294.479 211.842 292.715 212.352 290.547 212.352C289.023 212.352 287.676 212.082 286.504 211.543C285.332 211.004 284.412 210.254 283.744 209.293C283.088 208.32 282.76 207.271 282.76 206.146H286.012C286.07 207.236 286.504 208.104 287.312 208.748C288.133 209.381 289.211 209.697 290.547 209.697C291.777 209.697 292.762 209.451 293.5 208.959C294.25 208.455 294.625 207.787 294.625 206.955Z" fill="white"/>
<path d="M322.785 212C322.598 211.625 322.445 210.957 322.328 209.996C320.816 211.566 319.012 212.352 316.914 212.352C315.039 212.352 313.498 211.824 312.291 210.77C311.096 209.703 310.498 208.355 310.498 206.727C310.498 204.746 311.248 203.211 312.748 202.121C314.26 201.02 316.381 200.469 319.111 200.469H322.275V198.975C322.275 197.838 321.936 196.936 321.256 196.268C320.576 195.588 319.574 195.248 318.25 195.248C317.09 195.248 316.117 195.541 315.332 196.127C314.547 196.713 314.154 197.422 314.154 198.254H310.885C310.885 197.305 311.219 196.391 311.887 195.512C312.566 194.621 313.48 193.918 314.629 193.402C315.789 192.887 317.061 192.629 318.443 192.629C320.635 192.629 322.352 193.18 323.594 194.281C324.836 195.371 325.48 196.877 325.527 198.799V207.553C325.527 209.299 325.75 210.688 326.195 211.719V212H322.785ZM317.389 209.521C318.408 209.521 319.375 209.258 320.289 208.73C321.203 208.203 321.865 207.518 322.275 206.674V202.771H319.727C315.742 202.771 313.75 203.938 313.75 206.27C313.75 207.289 314.09 208.086 314.77 208.66C315.449 209.234 316.322 209.521 317.389 209.521Z" fill="white"/>
</g>
<g id="como">
<path d="M556.09 215.697C557.25 215.697 558.264 215.346 559.131 214.643C559.998 213.939 560.479 213.061 560.572 212.006H563.648C563.59 213.096 563.215 214.133 562.523 215.117C561.832 216.102 560.906 216.887 559.746 217.473C558.598 218.059 557.379 218.352 556.09 218.352C553.5 218.352 551.438 217.49 549.902 215.768C548.379 214.033 547.617 211.666 547.617 208.666V208.121C547.617 206.27 547.957 204.623 548.637 203.182C549.316 201.74 550.289 200.621 551.555 199.824C552.832 199.027 554.338 198.629 556.072 198.629C558.205 198.629 559.975 199.268 561.381 200.545C562.799 201.822 563.555 203.48 563.648 205.52H560.572C560.479 204.289 560.01 203.281 559.166 202.496C558.334 201.699 557.303 201.301 556.072 201.301C554.42 201.301 553.137 201.898 552.223 203.094C551.32 204.277 550.869 205.994 550.869 208.244V208.859C550.869 211.051 551.32 212.738 552.223 213.922C553.125 215.105 554.414 215.697 556.09 215.697Z" fill="white"/>
<path d="M566.443 208.314C566.443 206.451 566.807 204.775 567.533 203.287C568.271 201.799 569.291 200.65 570.592 199.842C571.904 199.033 573.398 198.629 575.074 198.629C577.664 198.629 579.756 199.525 581.35 201.318C582.955 203.111 583.758 205.496 583.758 208.473V208.701C583.758 210.553 583.4 212.217 582.686 213.693C581.982 215.158 580.969 216.301 579.645 217.121C578.332 217.941 576.82 218.352 575.109 218.352C572.531 218.352 570.439 217.455 568.834 215.662C567.24 213.869 566.443 211.496 566.443 208.543V208.314ZM569.713 208.701C569.713 210.811 570.199 212.504 571.172 213.781C572.156 215.059 573.469 215.697 575.109 215.697C576.762 215.697 578.074 215.053 579.047 213.764C580.02 212.463 580.506 210.646 580.506 208.314C580.506 206.229 580.008 204.541 579.012 203.252C578.027 201.951 576.715 201.301 575.074 201.301C573.469 201.301 572.174 201.939 571.189 203.217C570.205 204.494 569.713 206.322 569.713 208.701Z" fill="white"/>
<path d="M590.895 198.98L590.982 201.09C592.377 199.449 594.258 198.629 596.625 198.629C599.285 198.629 601.096 199.648 602.057 201.688C602.689 200.773 603.51 200.035 604.518 199.473C605.537 198.91 606.738 198.629 608.121 198.629C612.293 198.629 614.414 200.838 614.484 205.256V218H611.232V205.449C611.232 204.09 610.922 203.076 610.301 202.408C609.68 201.729 608.637 201.389 607.172 201.389C605.965 201.389 604.963 201.752 604.166 202.479C603.369 203.193 602.906 204.16 602.777 205.379V218H599.508V205.537C599.508 202.771 598.154 201.389 595.447 201.389C593.314 201.389 591.855 202.297 591.07 204.113V218H587.818V198.98H590.895Z" fill="white"/>
<path d="M618.545 208.314C618.545 206.451 618.908 204.775 619.635 203.287C620.373 201.799 621.393 200.65 622.693 199.842C624.006 199.033 625.5 198.629 627.176 198.629C629.766 198.629 631.857 199.525 633.451 201.318C635.057 203.111 635.859 205.496 635.859 208.473V208.701C635.859 210.553 635.502 212.217 634.787 213.693C634.084 215.158 633.07 216.301 631.746 217.121C630.434 217.941 628.922 218.352 627.211 218.352C624.633 218.352 622.541 217.455 620.936 215.662C619.342 213.869 618.545 211.496 618.545 208.543V208.314ZM621.814 208.701C621.814 210.811 622.301 212.504 623.273 213.781C624.258 215.059 625.57 215.697 627.211 215.697C628.863 215.697 630.176 215.053 631.148 213.764C632.121 212.463 632.607 210.646 632.607 208.314C632.607 206.229 632.109 204.541 631.113 203.252C630.129 201.951 628.816 201.301 627.176 201.301C625.57 201.301 624.275 201.939 623.291 203.217C622.307 204.494 621.814 206.322 621.814 208.701Z" fill="white"/>
</g>
<g id="es a_2">
<path d="M840.354 223.352C837.775 223.352 835.678 222.508 834.061 220.82C832.443 219.121 831.635 216.854 831.635 214.018V213.42C831.635 211.533 831.992 209.852 832.707 208.375C833.434 206.887 834.441 205.727 835.73 204.895C837.031 204.051 838.438 203.629 839.949 203.629C842.422 203.629 844.344 204.443 845.715 206.072C847.086 207.701 847.771 210.033 847.771 213.068V214.422H834.887C834.934 216.297 835.479 217.814 836.521 218.975C837.576 220.123 838.912 220.697 840.529 220.697C841.678 220.697 842.65 220.463 843.447 219.994C844.244 219.525 844.941 218.904 845.539 218.131L847.525 219.678C845.932 222.127 843.541 223.352 840.354 223.352ZM839.949 206.301C838.637 206.301 837.535 206.781 836.645 207.742C835.754 208.691 835.203 210.027 834.992 211.75H844.52V211.504C844.426 209.852 843.98 208.574 843.184 207.672C842.387 206.758 841.309 206.301 839.949 206.301Z" fill="white"/>
<path d="M862.625 217.955C862.625 217.076 862.291 216.396 861.623 215.916C860.967 215.424 859.812 215.002 858.16 214.65C856.52 214.299 855.213 213.877 854.24 213.385C853.279 212.893 852.564 212.307 852.096 211.627C851.639 210.947 851.41 210.139 851.41 209.201C851.41 207.643 852.066 206.324 853.379 205.246C854.703 204.168 856.391 203.629 858.441 203.629C860.598 203.629 862.344 204.186 863.68 205.299C865.027 206.412 865.701 207.836 865.701 209.57H862.432C862.432 208.68 862.051 207.912 861.289 207.268C860.539 206.623 859.59 206.301 858.441 206.301C857.258 206.301 856.332 206.559 855.664 207.074C854.996 207.59 854.662 208.264 854.662 209.096C854.662 209.881 854.973 210.473 855.594 210.871C856.215 211.27 857.334 211.65 858.951 212.014C860.58 212.377 861.898 212.811 862.906 213.314C863.914 213.818 864.658 214.428 865.139 215.143C865.631 215.846 865.877 216.707 865.877 217.727C865.877 219.426 865.197 220.791 863.838 221.822C862.479 222.842 860.715 223.352 858.547 223.352C857.023 223.352 855.676 223.082 854.504 222.543C853.332 222.004 852.412 221.254 851.744 220.293C851.088 219.32 850.76 218.271 850.76 217.146H854.012C854.07 218.236 854.504 219.104 855.312 219.748C856.133 220.381 857.211 220.697 858.547 220.697C859.777 220.697 860.762 220.451 861.5 219.959C862.25 219.455 862.625 218.787 862.625 217.955Z" fill="white"/>
<path d="M890.785 223C890.598 222.625 890.445 221.957 890.328 220.996C888.816 222.566 887.012 223.352 884.914 223.352C883.039 223.352 881.498 222.824 880.291 221.77C879.096 220.703 878.498 219.355 878.498 217.727C878.498 215.746 879.248 214.211 880.748 213.121C882.26 212.02 884.381 211.469 887.111 211.469H890.275V209.975C890.275 208.838 889.936 207.936 889.256 207.268C888.576 206.588 887.574 206.248 886.25 206.248C885.09 206.248 884.117 206.541 883.332 207.127C882.547 207.713 882.154 208.422 882.154 209.254H878.885C878.885 208.305 879.219 207.391 879.887 206.512C880.566 205.621 881.48 204.918 882.629 204.402C883.789 203.887 885.061 203.629 886.443 203.629C888.635 203.629 890.352 204.18 891.594 205.281C892.836 206.371 893.48 207.877 893.527 209.799V218.553C893.527 220.299 893.75 221.688 894.195 222.719V223H890.785ZM885.389 220.521C886.408 220.521 887.375 220.258 888.289 219.73C889.203 219.203 889.865 218.518 890.275 217.674V213.771H887.727C883.742 213.771 881.75 214.938 881.75 217.27C881.75 218.289 882.09 219.086 882.77 219.66C883.449 220.234 884.322 220.521 885.389 220.521Z" fill="white"/>
</g>
</g>
</g>
<g id="claves">
<g id="Group 21">
<g id="Group 237">
<path id="Rectangle 4" d="M40 440H256.745L290 501L256.745 562H40V440Z" fill="#CD08D1" fill-opacity="0.1"/>
<path id="Rectangle 4 (Stroke)" fill-rule="evenodd" clip-rule="evenodd" d="M255.338 444.575H43V557.425H255.338L286.099 501L255.338 444.575ZM256.745 440H40V562H256.745L290 501L256.745 440Z" fill="#CD08D1"/>
</g>
<g id="Group 238">
<path id="Ellipse 1" d="M81 497.026C81 519.683 63.0914 538.051 41 538.051C18.9086 538.051 1 519.683 1 497.026C1 474.368 18.9086 456 41 456C63.0914 456 81 474.368 81 497.026Z" fill="#CD08D1"/>
<path id="A" d="M49.0938 507.699H31.4688L27.7812 518.564H19.5625L36.75 471.897H43.8438L61.0625 518.564H52.8125L49.0938 507.699ZM33.6875 501.16H46.875L40.2812 481.801L33.6875 501.16Z" fill="white"/>
</g>
</g>
<g id="Group 17">
<g id="Group 239">
<path id="Rectangle 5" d="M383 440H599.745L633 501L599.745 562H383V440Z" fill="#CD08D1" fill-opacity="0.1"/>
<path id="Rectangle 5 (Stroke)" fill-rule="evenodd" clip-rule="evenodd" d="M598.338 444.575H386V557.425H598.338L629.099 501L598.338 444.575ZM599.745 440H383V562H599.745L633 501L599.745 440Z" fill="#CD08D1"/>
</g>
<g id="Group 240">
<path id="Ellipse 2" d="M420 501C420 523.091 402.091 541 380 541C357.909 541 340 523.091 340 501C340 478.909 357.909 461 380 461C402.091 461 420 478.909 420 501Z" fill="#CD08D1"/>
<path id="B" d="M363.625 517V471.5H379.219C384.365 471.5 388.281 472.531 390.969 474.594C393.656 476.656 395 479.729 395 483.812C395 485.896 394.438 487.771 393.312 489.438C392.188 491.104 390.542 492.396 388.375 493.312C390.833 493.979 392.729 495.24 394.062 497.094C395.417 498.927 396.094 501.135 396.094 503.719C396.094 507.99 394.719 511.271 391.969 513.562C389.24 515.854 385.323 517 380.219 517H363.625ZM371.531 496.469V510.688H380.312C382.792 510.688 384.729 510.073 386.125 508.844C387.521 507.615 388.219 505.906 388.219 503.719C388.219 498.99 385.802 496.573 380.969 496.469H371.531ZM371.531 490.656H379.281C381.74 490.656 383.656 490.104 385.031 489C386.427 487.875 387.125 486.292 387.125 484.25C387.125 482 386.479 480.375 385.188 479.375C383.917 478.375 381.927 477.875 379.219 477.875H371.531V490.656Z" fill="white"/>
</g>
</g>
<g id="Group 18">
<g id="Group 241">
<path id="Rectangle 6" d="M722 532H938.745L972 593.5L938.745 655H722V532Z" fill="#CD08D1" fill-opacity="0.1"/>
<path id="Rectangle 6 (Stroke)" fill-rule="evenodd" clip-rule="evenodd" d="M937.338 536.613H725V650.388H937.338L968.099 593.5L937.338 536.613ZM938.745 532H722V655H938.745L972 593.5L938.745 532Z" fill="#CD08D1"/>
</g>
<g id="Group 242">
<path id="Ellipse 3" d="M764 593C764 615.091 746.091 633 724 633C701.909 633 684 615.091 684 593C684 570.909 701.909 553 724 553C746.091 553 764 570.909 764 593Z" fill="#CD08D1"/>
<path id="C" d="M741.344 600.188C740.885 605.042 739.094 608.833 735.969 611.562C732.844 614.271 728.688 615.625 723.5 615.625C719.875 615.625 716.677 614.771 713.906 613.062C711.156 611.333 709.031 608.885 707.531 605.719C706.031 602.552 705.25 598.875 705.188 594.688V590.438C705.188 586.146 705.948 582.365 707.469 579.094C708.99 575.823 711.167 573.302 714 571.531C716.854 569.76 720.146 568.875 723.875 568.875C728.896 568.875 732.938 570.24 736 572.969C739.062 575.698 740.844 579.552 741.344 584.531H733.469C733.094 581.26 732.135 578.906 730.594 577.469C729.073 576.01 726.833 575.281 723.875 575.281C720.438 575.281 717.792 576.542 715.938 579.062C714.104 581.562 713.167 585.24 713.125 590.094V594.125C713.125 599.042 714 602.792 715.75 605.375C717.521 607.958 720.104 609.25 723.5 609.25C726.604 609.25 728.938 608.552 730.5 607.156C732.062 605.76 733.052 603.438 733.469 600.188H741.344Z" fill="white"/>
</g>
</g>
<g id="Group 19">
<g id="Group 243">
<path id="Rectangle 7" d="M39 580H255.745L289 638.5L255.745 697H39V580Z" fill="#CD08D1" fill-opacity="0.1"/>
<path id="Rectangle 7 (Stroke)" fill-rule="evenodd" clip-rule="evenodd" d="M254.338 584.387H42V692.612H254.338L285.099 638.5L254.338 584.387ZM255.745 580H39V697H255.745L289 638.5L255.745 580Z" fill="#CD08D1"/>
</g>
<g id="Group 244">
<path id="Ellipse 4" d="M80 636C80 658.091 62.0914 676 40 676C17.9086 676 0 658.091 0 636C0 613.909 17.9086 596 40 596C62.0914 596 80 613.909 80 636Z" fill="#CD08D1"/>
<path id="D" d="M22.625 658V612.5H36.0625C40.0833 612.5 43.6458 613.396 46.75 615.188C49.875 616.979 52.2917 619.521 54 622.812C55.7083 626.104 56.5625 629.875 56.5625 634.125V636.406C56.5625 640.719 55.6979 644.51 53.9688 647.781C52.2604 651.052 49.8125 653.573 46.625 655.344C43.4583 657.115 39.8229 658 35.7188 658H22.625ZM30.5312 618.875V651.688H35.6875C39.8333 651.688 43.0104 650.396 45.2188 647.812C47.4479 645.208 48.5833 641.479 48.625 636.625V634.094C48.625 629.156 47.5521 625.385 45.4062 622.781C43.2604 620.177 40.1458 618.875 36.0625 618.875H30.5312Z" fill="white"/>
</g>
</g>
<g id="Group 20">
<g id="Group 246">
<path id="Rectangle 8" d="M383 574H599.745L633 634.5L599.745 695H383V574Z" fill="#CD08D1" fill-opacity="0.1"/>
<path id="Rectangle 8 (Stroke)" fill-rule="evenodd" clip-rule="evenodd" d="M598.338 578.538H386V690.463H598.338L629.099 634.5L598.338 578.538ZM599.745 574H383V695H599.745L633 634.5L599.745 574Z" fill="#CD08D1"/>
</g>
<g id="Group 245">
<path id="Ellipse 5" d="M424 634C424 656.091 406.091 674 384 674C361.909 674 344 656.091 344 634C344 611.909 361.909 594 384 594C406.091 594 424 611.909 424 634Z" fill="#CD08D1"/>
<path id="E" d="M393.219 635.688H374.531V649.688H396.375V656H366.625V610.5H396.156V616.875H374.531V629.438H393.219V635.688Z" fill="white"/>
</g>
</g>
<g id="Group 329">
<g id="Group 323_2">
<path id="Union_10" fill-rule="evenodd" clip-rule="evenodd" d="M211.714 490.892L156.407 546.199L159.942 549.735L215.25 494.427L211.714 490.892ZM101 490.538L156.308 545.846L159.843 542.31L104.536 487.003L101 490.538Z" fill="white"/>
<path id="Union_11" fill-rule="evenodd" clip-rule="evenodd" d="M154.927 527.881L115.022 487.976L111.486 491.512L151.391 531.417L154.927 527.881ZM155.182 448L115.277 487.905L118.812 491.441L158.717 451.536L155.182 448Z" fill="white"/>
<path id="Union_12" fill-rule="evenodd" clip-rule="evenodd" d="M163.09 523.831L128.261 489.002L124.726 492.537L159.555 527.366L163.09 523.831ZM163.313 454.111L128.484 488.94L132.019 492.475L166.848 457.646L163.313 454.111Z" fill="white"/>
</g>
<g id="Group 324_2">
<path id="Union_13" fill-rule="evenodd" clip-rule="evenodd" d="M496.057 454.536L545.213 503.691L548.748 500.156L499.592 451L496.057 454.536ZM495.743 552.935L544.899 503.779L541.363 500.244L492.207 549.4L495.743 552.935Z" fill="white"/>
<path id="Union_14" fill-rule="evenodd" clip-rule="evenodd" d="M459.536 503.127L495.002 467.66L491.466 464.125L456 499.591L459.536 503.127ZM530.532 503.353L495.065 467.887L491.53 471.422L526.996 506.889L530.532 503.353Z" fill="white"/>
<path id="Union_15" fill-rule="evenodd" clip-rule="evenodd" d="M464.061 511.74L495.016 480.785L491.481 477.25L460.526 508.205L464.061 511.74ZM526.027 511.938L495.072 480.983L491.536 484.518L522.491 515.473L526.027 511.938Z" fill="white"/>
</g>
<g id="Group 325">
<path id="Union_16" fill-rule="evenodd" clip-rule="evenodd" d="M894.4 592.772L845.244 641.928L848.78 645.464L897.936 596.308L894.4 592.772ZM796 592.458L845.156 641.614L848.692 638.078L799.536 588.922L796 592.458Z" fill="white"/>
<path id="Union_17" fill-rule="evenodd" clip-rule="evenodd" d="M813.893 589.002L849.36 553.535L845.824 550L810.358 585.466L813.893 589.002ZM884.89 589.228L849.423 553.762L845.888 557.297L881.354 592.764L884.89 589.228Z" fill="white"/>
<path id="Union_18" fill-rule="evenodd" clip-rule="evenodd" d="M847.564 625.668L816.609 594.713L813.073 598.248L844.028 629.203L847.564 625.668ZM847.761 563.703L816.806 594.658L820.342 598.193L851.297 567.238L847.761 563.703Z" fill="white"/>
</g>
<g id="Group 326_2">
<path id="Union_19" fill-rule="evenodd" clip-rule="evenodd" d="M153.02 588.536L205.142 640.658L208.678 637.123L156.555 585L153.02 588.536ZM152.686 692.874L204.809 640.751L201.274 637.216L149.151 689.339L152.686 692.874Z" fill="white"/>
<path id="Union_20" fill-rule="evenodd" clip-rule="evenodd" d="M108.536 632.861L146.142 595.254L142.607 591.719L105 629.326L108.536 632.861ZM183.817 633.102L146.21 595.495L142.674 599.03L180.281 636.637L183.817 633.102Z" fill="white"/>
<path id="Union_21" fill-rule="evenodd" clip-rule="evenodd" d="M144.258 610.131L177.081 642.954L180.616 639.419L147.793 606.595L144.258 610.131ZM144.048 675.836L176.871 643.013L173.335 639.477L140.512 672.3L144.048 675.836Z" fill="white"/>
</g>
<g id="Group 328">
<g id="Group 327">
<path id="Union_22" fill-rule="evenodd" clip-rule="evenodd" d="M542.4 630.035L493.244 679.191L496.78 682.727L545.936 633.571L542.4 630.035ZM444 629.721L493.156 678.877L496.692 675.341L447.536 626.185L444 629.721Z" fill="white"/>
<path id="Union_23" fill-rule="evenodd" clip-rule="evenodd" d="M461.893 624.002L497.359 588.535L493.824 585L458.357 620.466L461.893 624.002ZM532.889 624.228L497.423 588.762L493.888 592.297L529.354 627.764L532.889 624.228Z" fill="white"/>
<path id="Union_24" fill-rule="evenodd" clip-rule="evenodd" d="M495.582 602.565L526.537 633.52L530.073 629.985L499.118 599.03L495.582 602.565ZM495.384 664.53L526.339 633.576L522.804 630.04L491.849 660.995L495.384 664.53Z" fill="white"/>
</g>
</g>
</g>
<g id="flecha">
<path id="Rectangle 2" d="M735.2 558.008L750.482 566.133L708.5 645.089L693.219 636.963L735.2 558.008Z" fill="#1043F5"/>
<path id="Rectangle 1_2" d="M677 570.904L767 521V578.692L722 561.096L677 570.904Z" fill="#1043F5"/>
<path id="Rectangle 3" d="M681.039 640.21L696.666 613.143L713.936 612.565L698.309 639.632L681.039 640.21Z" fill="#1043F5"/>
<path id="Rectangle 4_2" d="M707.089 654.845L722.717 627.778L713.926 612.154L698.299 639.221L707.089 654.845Z" fill="#1043F5"/>
</g>
</g>
</g>
</svg>
