<svg viewBox="0 0 706 368" fill="none" xmlns="http://www.w3.org/2000/svg">
<g id="0127204">
<g id="Group 102">
<g id="F_1=1&#10;F_2=3&#10;F_3=6&#10;F_4=10">
<g id="Group">
<g id="Group 97">
<g id="Group_2">
<g id="Group_3">
<path id="Vector" d="M6.80421 43.1211C6.26807 43.1211 6 42.9634 6 42.648C6 42.5849 6.04731 42.3642 6.14192 41.9857C6.26807 41.4811 6.39422 41.1973 6.52037 41.1342C6.64652 41.0711 7.0092 41.0238 7.60841 40.9923C8.45993 40.9923 9.40605 40.945 10.4468 40.8504C10.8883 40.7557 11.1879 40.5665 11.3456 40.2827C11.4087 40.125 12.5283 35.694 14.7044 26.9896C16.8804 18.2853 17.9843 13.87 18.0158 13.7439C18.0158 13.5231 17.9527 13.4127 17.8266 13.4127C17.5743 13.3181 16.7385 13.2393 15.3193 13.1762H13.8528C13.6636 12.987 13.569 12.8608 13.569 12.7977C13.569 12.7347 13.6005 12.4666 13.6636 11.9935C13.7898 11.4574 13.9475 11.1263 14.1367 11.0001H39.6348C39.8555 11.1263 39.9659 11.2997 39.9659 11.5205C39.9659 11.6782 39.7609 13.4443 39.3509 16.8188C38.9409 20.1933 38.7202 21.9279 38.6886 22.0225C38.6256 22.2432 38.3102 22.3536 37.7425 22.3536H37.1748C36.9541 22.1959 36.8437 21.9909 36.8437 21.7386C36.8437 21.7071 36.891 21.3286 36.9856 20.6033C37.0802 19.8779 37.1275 19.0422 37.1275 18.096C37.1275 17.1499 37.0171 16.3773 36.7964 15.778C36.5756 15.1788 36.276 14.69 35.8976 14.3115C35.5191 13.9331 34.9357 13.6808 34.1472 13.5546C33.3588 13.4285 32.5546 13.3181 31.7346 13.2235C30.9146 13.1289 29.7793 13.1131 28.3286 13.1762H27.2405C24.6544 13.2077 23.2826 13.255 23.1249 13.3181C22.9672 13.3812 22.8568 13.5073 22.7937 13.6966C22.7622 13.7281 22.226 15.7938 21.1853 19.8937L19.6715 25.9962H22.2734C22.368 25.9962 22.7306 25.9962 23.3614 25.9962C23.9921 25.9962 24.4337 25.9804 24.686 25.9489C24.9383 25.9173 25.2852 25.87 25.7267 25.807C26.1682 25.7439 26.5467 25.6335 26.8621 25.4758C27.1774 25.3181 27.4455 25.1289 27.6663 24.9081C28.0763 24.5297 28.4232 24.0093 28.707 23.347C28.9908 22.6848 29.1958 22.0855 29.322 21.5494C29.4481 21.0133 29.527 20.7294 29.5585 20.6979C29.6531 20.5402 29.9527 20.4614 30.4573 20.4614H31.025C31.2458 20.619 31.3562 20.7767 31.3562 20.9344C31.3562 21.029 30.8673 23.0947 29.8897 27.1315C28.912 31.1683 28.3759 33.2498 28.2812 33.376C28.2182 33.5967 27.9028 33.7071 27.3351 33.7071H26.7674C26.5467 33.5179 26.4363 33.3287 26.4363 33.1394C26.4363 33.0448 26.5151 32.6979 26.6728 32.0987C26.8305 31.4995 26.9094 30.8687 26.9094 30.2064C26.9094 29.2919 26.594 28.7242 25.9632 28.5034C25.3325 28.2827 23.9291 28.1723 21.753 28.1723H19.1511L17.6373 34.1802C16.6281 38.0908 16.1235 40.1408 16.1235 40.33C16.1235 40.7715 17.527 40.9923 20.3338 40.9923H21.5165C21.7057 41.1815 21.8003 41.2919 21.8003 41.3234C21.8003 41.355 21.7688 41.6703 21.7057 42.2695C21.5795 42.6795 21.4218 42.9791 21.2326 43.1684H20.4284C19.1354 43.1053 16.7543 43.0738 13.2852 43.0738C11.2352 43.0738 9.67412 43.0738 8.60184 43.0738C7.52957 43.0738 6.93036 43.0895 6.80421 43.1211Z" fill="white"/>
</g>
<g id="Group_4">
<path id="Vector_2" d="M42.0752 30.9327L41.6404 31.0999C41.3283 31.2114 40.8823 31.3229 40.3026 31.4344C39.7229 31.5459 39.0763 31.6239 38.3628 31.6685H37.7273V30.13H38.3628C39.4107 30.0854 40.3806 29.9182 41.2725 29.6283C42.1644 29.3385 42.7887 29.0709 43.1455 28.8256C43.5022 28.5804 43.8144 28.3351 44.0819 28.0898C44.1265 28.0229 44.2603 27.9895 44.4833 27.9895C44.684 27.9895 44.8735 28.0564 45.0519 28.1902V38.1904L45.0853 48.224C45.2414 48.3801 45.3752 48.4805 45.4867 48.5251C45.5981 48.5696 45.8657 48.6142 46.2893 48.6588C46.713 48.7034 47.4042 48.7257 48.363 48.7257H49.2326V50.2642H48.8647C48.3964 50.1973 46.6238 50.1639 43.5468 50.1639C40.5144 50.1639 38.7641 50.1973 38.2959 50.2642H37.8945V48.7257H38.7641C39.2546 48.7257 39.6783 48.7257 40.035 48.7257C40.3918 48.7257 40.6705 48.7146 40.8712 48.6923C41.0718 48.67 41.2502 48.6365 41.4063 48.5919C41.5624 48.5474 41.6516 48.5251 41.6739 48.5251C41.6962 48.5251 41.7631 48.4693 41.8745 48.3578C41.986 48.2463 42.0529 48.2017 42.0752 48.224V30.9327Z" fill="white"/>
</g>
</g>
<g id="Group_5">
<path id="Vector_3" d="M69.8301 26.753C69.8301 26.343 70.0508 26.0276 70.4924 25.8069H100.626C101.1 26.0592 101.336 26.3745 101.336 26.753C101.336 27.0999 101.115 27.3995 100.674 27.6518L85.6304 27.6991H70.587C70.0824 27.5414 69.8301 27.226 69.8301 26.753ZM69.8301 35.9304C69.8301 35.4573 70.0824 35.142 70.587 34.9843H100.674C101.115 35.2997 101.336 35.615 101.336 35.9304C101.336 36.3404 101.1 36.6558 100.626 36.8765H70.4924C70.0508 36.6558 69.8301 36.3404 69.8301 35.9304Z" fill="white"/>
</g>
<g id="Group_6">
<path id="Vector_4" d="M127.203 15.8251L126.588 16.0617C126.147 16.2193 125.516 16.377 124.696 16.5347C123.876 16.6924 122.961 16.8028 121.952 16.8659H121.053V14.6898H121.952C123.434 14.6267 124.806 14.3902 126.068 13.9802C127.329 13.5702 128.212 13.1917 128.717 12.8448C129.221 12.4979 129.663 12.151 130.041 11.8041C130.104 11.7095 130.294 11.6622 130.609 11.6622C130.893 11.6622 131.161 11.7568 131.413 11.946V26.0906L131.461 40.2825C131.681 40.5032 131.871 40.6452 132.028 40.7082C132.186 40.7713 132.564 40.8344 133.164 40.8975C133.763 40.9605 134.741 40.9921 136.097 40.9921H137.327V43.1682H136.806C136.144 43.0735 133.637 43.0262 129.285 43.0262C124.995 43.0262 122.52 43.0735 121.857 43.1682H121.29V40.9921H122.52C123.214 40.9921 123.813 40.9921 124.317 40.9921C124.822 40.9921 125.216 40.9763 125.5 40.9448C125.784 40.9132 126.036 40.8659 126.257 40.8028C126.478 40.7398 126.604 40.7082 126.635 40.7082C126.667 40.7082 126.762 40.6294 126.919 40.4717C127.077 40.314 127.171 40.2509 127.203 40.2825V15.8251Z" fill="white"/>
</g>
</g>
<g id="Group 96">
<g id="Group_7">
<g id="Group_8">
<path id="Vector_5" d="M0.804206 129.121C0.268069 129.121 0 128.963 0 128.648C0 128.585 0.0473063 128.364 0.141919 127.986C0.268069 127.481 0.394219 127.197 0.520369 127.134C0.646519 127.071 1.0092 127.024 1.60841 126.992C2.45993 126.992 3.40605 126.945 4.44679 126.85C4.88831 126.756 5.18792 126.566 5.34561 126.283C5.40868 126.125 6.52826 121.694 8.70435 112.99C10.8804 104.285 11.9843 99.8699 12.0158 99.7437C12.0158 99.523 11.9527 99.4126 11.8266 99.4126C11.5743 99.318 10.7385 99.2391 9.31933 99.1761H7.85284C7.66361 98.9868 7.569 98.8607 7.569 98.7976C7.569 98.7345 7.60054 98.4665 7.66361 97.9934C7.78976 97.4573 7.94745 97.1261 8.13668 97H33.6348C33.8555 97.1261 33.9659 97.2996 33.9659 97.5204C33.9659 97.678 33.7609 99.4441 33.3509 102.819C32.9409 106.193 32.7202 107.928 32.6886 108.022C32.6256 108.243 32.3102 108.353 31.7425 108.353H31.1748C30.9541 108.196 30.8437 107.991 30.8437 107.739C30.8437 107.707 30.891 107.329 30.9856 106.603C31.0802 105.878 31.1275 105.042 31.1275 104.096C31.1275 103.15 31.0171 102.377 30.7964 101.778C30.5756 101.179 30.276 100.69 29.8976 100.311C29.5191 99.933 28.9357 99.6807 28.1472 99.5545C27.3588 99.4284 26.5546 99.318 25.7346 99.2234C24.9146 99.1288 23.7793 99.113 22.3286 99.1761H21.2405C18.6544 99.2076 17.2826 99.2549 17.1249 99.318C16.9672 99.3811 16.8568 99.5072 16.7937 99.6964C16.7622 99.728 16.226 101.794 15.1853 105.894L13.6715 111.996H16.2734C16.368 111.996 16.7306 111.996 17.3614 111.996C17.9921 111.996 18.4337 111.98 18.686 111.949C18.9383 111.917 19.2852 111.87 19.7267 111.807C20.1682 111.744 20.5467 111.633 20.8621 111.476C21.1774 111.318 21.4455 111.129 21.6663 110.908C22.0763 110.53 22.4232 110.009 22.707 109.347C22.9908 108.685 23.1958 108.085 23.322 107.549C23.4481 107.013 23.527 106.729 23.5585 106.698C23.6531 106.54 23.9527 106.461 24.4573 106.461H25.025C25.2458 106.619 25.3562 106.777 25.3562 106.934C25.3562 107.029 24.8673 109.095 23.8897 113.131C22.912 117.168 22.3759 119.25 22.2812 119.376C22.2182 119.597 21.9028 119.707 21.3351 119.707H20.7674C20.5467 119.518 20.4363 119.329 20.4363 119.139C20.4363 119.045 20.5151 118.698 20.6728 118.099C20.8305 117.499 20.9094 116.869 20.9094 116.206C20.9094 115.292 20.594 114.724 19.9632 114.503C19.3325 114.283 17.9291 114.172 15.753 114.172H13.1511L11.6373 120.18C10.6281 124.091 10.1235 126.141 10.1235 126.33C10.1235 126.771 11.527 126.992 14.3338 126.992H15.5165C15.7057 127.181 15.8003 127.292 15.8003 127.323C15.8003 127.355 15.7688 127.67 15.7057 128.269C15.5795 128.679 15.4218 128.979 15.2326 129.168H14.4284C13.1354 129.105 10.7543 129.074 7.28516 129.074C5.23523 129.074 3.67412 129.074 2.60184 129.074C1.52957 129.074 0.930357 129.089 0.804206 129.121Z" fill="white"/>
</g>
<g id="Group_9">
<path id="Vector_6" d="M32.5973 121.916C31.9953 121.916 31.5159 121.715 31.1592 121.314C30.8024 120.913 30.624 120.422 30.624 119.842C30.624 118.259 31.2149 116.888 32.3966 115.729C33.5784 114.569 35.05 113.989 36.8114 113.989C38.8405 113.989 40.535 114.614 41.8952 115.862C43.2553 117.111 43.9465 118.727 43.9688 120.712C43.9688 121.671 43.7458 122.585 43.2999 123.454C42.8539 124.324 42.3188 125.082 41.6945 125.729C41.0702 126.375 40.1783 127.2 39.0189 128.204C38.2162 128.895 37.1013 129.921 35.6743 131.281L33.701 133.154L36.2429 133.187C39.7435 133.187 41.6053 133.131 41.8283 133.02C41.9844 132.975 42.2519 131.983 42.631 130.043V129.943H43.9688V130.043C43.9465 130.11 43.8016 131.125 43.534 133.087C43.2664 135.049 43.0992 136.075 43.0323 136.164V136.264H30.624V135.629V135.227C30.624 135.071 30.6909 134.904 30.8247 134.726C30.9585 134.547 31.2929 134.157 31.8281 133.555C32.4747 132.842 33.0321 132.217 33.5003 131.682C33.701 131.459 34.0801 131.047 34.6375 130.445C35.1949 129.843 35.574 129.43 35.7746 129.207C35.9753 128.984 36.2986 128.616 36.7446 128.103C37.1905 127.591 37.5027 127.212 37.681 126.966C37.8594 126.721 38.1158 126.387 38.4503 125.963C38.7847 125.539 39.0189 125.182 39.1526 124.893C39.2864 124.603 39.4536 124.279 39.6543 123.923C39.855 123.566 39.9999 123.209 40.0891 122.852C40.1783 122.496 40.2563 122.161 40.3232 121.849C40.3901 121.537 40.4236 121.169 40.4236 120.745C40.4236 119.341 40.0445 118.125 39.2864 117.1C38.5283 116.074 37.4469 115.561 36.0422 115.561C35.3064 115.561 34.6598 115.751 34.1024 116.13C33.5449 116.509 33.1547 116.877 32.9318 117.234C32.7088 117.59 32.5973 117.802 32.5973 117.869C32.5973 117.891 32.6531 117.903 32.7645 117.903C33.1659 117.903 33.5784 118.059 34.002 118.371C34.4257 118.683 34.6375 119.196 34.6375 119.909C34.6375 120.467 34.4591 120.935 34.1024 121.314C33.7456 121.693 33.2439 121.894 32.5973 121.916Z" fill="white"/>
</g>
</g>
<g id="Group_10">
<path id="Vector_7" d="M63.8308 112.753C63.8308 112.343 64.0516 112.028 64.4931 111.807H94.6272C95.1003 112.059 95.3368 112.374 95.3368 112.753C95.3368 113.1 95.116 113.399 94.6745 113.652L79.6311 113.699H64.5877C64.0831 113.541 63.8308 113.226 63.8308 112.753ZM63.8308 121.93C63.8308 121.457 64.0831 121.142 64.5877 120.984H94.6745C95.116 121.3 95.3368 121.615 95.3368 121.93C95.3368 122.34 95.1003 122.656 94.6272 122.876H64.4931C64.0516 122.656 63.8308 122.34 63.8308 121.93Z" fill="white"/>
</g>
<g id="Group_11">
<path id="Vector_8" d="M117.135 107.265C116.284 107.265 115.621 106.997 115.148 106.461C114.675 105.925 114.423 105.231 114.392 104.38C114.392 102.645 115.148 101.1 116.662 99.7435C118.176 98.3874 120.005 97.7094 122.15 97.7094C123.254 97.7094 123.947 97.7251 124.231 97.7567C126.565 98.1351 128.347 98.9709 129.577 100.264C130.807 101.557 131.438 102.96 131.469 104.474C131.469 106.114 130.933 107.707 129.861 109.252C128.788 110.797 127.306 111.917 125.414 112.611L125.272 112.705C125.272 112.737 125.414 112.784 125.698 112.847C125.982 112.91 126.439 113.052 127.07 113.273C127.7 113.494 128.3 113.825 128.867 114.267C131.453 115.938 132.746 118.146 132.746 120.889C132.746 123.381 131.769 125.557 129.813 127.418C127.858 129.278 125.382 130.209 122.386 130.209C119.863 130.209 117.687 129.531 115.858 128.175C114.029 126.818 113.114 125.1 113.114 123.018C113.114 122.135 113.398 121.426 113.966 120.889C114.533 120.353 115.243 120.069 116.095 120.038C116.978 120.038 117.703 120.322 118.271 120.889C118.838 121.457 119.122 122.167 119.122 123.018C119.122 123.365 119.075 123.681 118.98 123.964C118.886 124.248 118.775 124.5 118.649 124.721C118.523 124.942 118.349 125.131 118.129 125.289C117.908 125.447 117.719 125.573 117.561 125.667C117.403 125.762 117.246 125.825 117.088 125.857C116.93 125.888 116.804 125.935 116.71 125.999L116.52 126.046C118.129 127.465 120.084 128.175 122.386 128.175C124.121 128.175 125.43 127.339 126.313 125.667C126.849 124.627 127.117 123.034 127.117 120.889V119.943C127.117 116.947 126.108 114.945 124.089 113.935C123.616 113.746 122.654 113.636 121.204 113.604L119.217 113.557L119.075 113.462C119.012 113.368 118.98 113.115 118.98 112.705C118.98 112.138 119.106 111.854 119.359 111.854C120.242 111.854 121.156 111.775 122.102 111.617C123.175 111.46 124.152 110.797 125.035 109.631C125.918 108.464 126.36 106.698 126.36 104.332V103.954C126.36 102.156 125.808 100.91 124.704 100.217C124.01 99.7751 123.269 99.5543 122.481 99.5543C121.472 99.5543 120.541 99.7278 119.69 100.075C118.838 100.422 118.239 100.784 117.892 101.163C117.545 101.541 117.372 101.73 117.372 101.73H117.514C117.608 101.762 117.735 101.793 117.892 101.825C118.05 101.857 118.208 101.935 118.365 102.062C118.523 102.188 118.712 102.298 118.933 102.393C119.154 102.487 119.311 102.661 119.406 102.913C119.501 103.165 119.627 103.402 119.784 103.623C119.942 103.843 119.989 104.159 119.926 104.569C119.926 105.263 119.706 105.878 119.264 106.414C118.823 106.95 118.113 107.234 117.135 107.265Z" fill="white"/>
</g>
</g>
<g id="Group 95">
<g id="Group_12">
<g id="Group_13">
<path id="Vector_9" d="M4.80421 231.121C4.26807 231.121 4 230.963 4 230.648C4 230.585 4.04731 230.364 4.14192 229.986C4.26807 229.481 4.39422 229.197 4.52037 229.134C4.64652 229.071 5.0092 229.024 5.60841 228.992C6.45993 228.992 7.40605 228.945 8.44679 228.85C8.88831 228.756 9.18792 228.566 9.34561 228.283C9.40868 228.125 10.5283 223.694 12.7044 214.99C14.8804 206.285 15.9843 201.87 16.0158 201.744C16.0158 201.523 15.9527 201.413 15.8266 201.413C15.5743 201.318 14.7385 201.239 13.3193 201.176H11.8528C11.6636 200.987 11.569 200.861 11.569 200.798C11.569 200.735 11.6005 200.467 11.6636 199.993C11.7898 199.457 11.9475 199.126 12.1367 199H37.6348C37.8555 199.126 37.9659 199.3 37.9659 199.52C37.9659 199.678 37.7609 201.444 37.3509 204.819C36.9409 208.193 36.7202 209.928 36.6886 210.022C36.6256 210.243 36.3102 210.354 35.7425 210.354H35.1748C34.9541 210.196 34.8437 209.991 34.8437 209.739C34.8437 209.707 34.891 209.329 34.9856 208.603C35.0802 207.878 35.1275 207.042 35.1275 206.096C35.1275 205.15 35.0171 204.377 34.7964 203.778C34.5756 203.179 34.276 202.69 33.8976 202.311C33.5191 201.933 32.9357 201.681 32.1472 201.555C31.3588 201.428 30.5546 201.318 29.7346 201.223C28.9146 201.129 27.7793 201.113 26.3286 201.176H25.2405C22.6544 201.208 21.2826 201.255 21.1249 201.318C20.9672 201.381 20.8568 201.507 20.7937 201.696C20.7622 201.728 20.226 203.794 19.1853 207.894L17.6715 213.996H20.2734C20.368 213.996 20.7306 213.996 21.3614 213.996C21.9921 213.996 22.4337 213.98 22.686 213.949C22.9383 213.917 23.2852 213.87 23.7267 213.807C24.1682 213.744 24.5467 213.633 24.8621 213.476C25.1774 213.318 25.4455 213.129 25.6663 212.908C26.0763 212.53 26.4232 212.009 26.707 211.347C26.9908 210.685 27.1958 210.085 27.322 209.549C27.4481 209.013 27.527 208.729 27.5585 208.698C27.6531 208.54 27.9527 208.461 28.4573 208.461H29.025C29.2458 208.619 29.3562 208.777 29.3562 208.934C29.3562 209.029 28.8673 211.095 27.8897 215.131C26.912 219.168 26.3759 221.25 26.2812 221.376C26.2182 221.597 25.9028 221.707 25.3351 221.707H24.7674C24.5467 221.518 24.4363 221.329 24.4363 221.139C24.4363 221.045 24.5151 220.698 24.6728 220.099C24.8305 219.499 24.9094 218.869 24.9094 218.206C24.9094 217.292 24.594 216.724 23.9632 216.503C23.3325 216.283 21.9291 216.172 19.753 216.172H17.1511L15.6373 222.18C14.6281 226.091 14.1235 228.141 14.1235 228.33C14.1235 228.771 15.527 228.992 18.3338 228.992H19.5165C19.7057 229.181 19.8003 229.292 19.8003 229.323C19.8003 229.355 19.7688 229.67 19.7057 230.269C19.5795 230.679 19.4218 230.979 19.2326 231.168H18.4284C17.1354 231.105 14.7543 231.074 11.2852 231.074C9.23523 231.074 7.67412 231.074 6.60184 231.074C5.52957 231.074 4.93036 231.089 4.80421 231.121Z" fill="white"/>
</g>
<g id="Group_14">
<path id="Vector_10" d="M37.1991 222.779C36.5971 222.779 36.1288 222.589 35.7944 222.21C35.4599 221.831 35.2815 221.341 35.2592 220.739C35.2592 219.512 35.7944 218.42 36.8646 217.461C37.9349 216.502 39.2281 216.023 40.7443 216.023C41.5247 216.023 42.0152 216.034 42.2159 216.056C43.8659 216.324 45.1257 216.915 45.9952 217.829C46.8648 218.743 47.3108 219.735 47.3331 220.806C47.3331 221.965 46.954 223.091 46.1959 224.184C45.4378 225.276 44.3899 226.068 43.052 226.558L42.9517 226.625C42.9517 226.648 43.052 226.681 43.2527 226.726C43.4534 226.77 43.7767 226.87 44.2226 227.027C44.6686 227.183 45.0922 227.417 45.4936 227.729C47.3219 228.911 48.2361 230.471 48.2361 232.411C48.2361 234.173 47.5449 235.711 46.1625 237.027C44.7801 238.342 43.0297 239 40.9115 239C39.1278 239 37.5893 238.521 36.296 237.562C35.0028 236.603 34.3562 235.388 34.3562 233.916C34.3562 233.292 34.5569 232.79 34.9582 232.411C35.3596 232.032 35.8613 231.832 36.4633 231.809C37.0876 231.809 37.6004 232.01 38.0018 232.411C38.4031 232.813 38.6038 233.314 38.6038 233.916C38.6038 234.162 38.5703 234.385 38.5034 234.585C38.4366 234.786 38.3585 234.964 38.2693 235.12C38.1801 235.276 38.0575 235.41 37.9014 235.522C37.7453 235.633 37.6116 235.722 37.5001 235.789C37.3886 235.856 37.2771 235.901 37.1656 235.923C37.0541 235.945 36.965 235.979 36.8981 236.023L36.7643 236.057C37.9014 237.06 39.2838 237.562 40.9115 237.562C42.1379 237.562 43.0632 236.971 43.6875 235.789C44.0666 235.053 44.2561 233.927 44.2561 232.411V231.742C44.2561 229.624 43.5426 228.208 42.1156 227.495C41.7811 227.361 41.101 227.283 40.0754 227.261L38.6707 227.227L38.5703 227.16C38.5257 227.093 38.5034 226.915 38.5034 226.625C38.5034 226.224 38.5926 226.023 38.771 226.023C39.3953 226.023 40.0419 225.967 40.7109 225.856C41.469 225.744 42.1602 225.276 42.7845 224.451C43.4088 223.626 43.7209 222.378 43.7209 220.705V220.438C43.7209 219.167 43.3308 218.286 42.5504 217.796C42.0598 217.483 41.5358 217.327 40.9784 217.327C40.2649 217.327 39.6071 217.45 39.0051 217.695C38.4031 217.941 37.9795 218.197 37.7342 218.465C37.4889 218.732 37.3663 218.866 37.3663 218.866H37.4666C37.5335 218.888 37.6227 218.91 37.7342 218.933C37.8457 218.955 37.9572 219.011 38.0687 219.1C38.1801 219.189 38.3139 219.267 38.47 219.334C38.6261 219.401 38.7376 219.524 38.8045 219.702C38.8713 219.88 38.9605 220.048 39.072 220.204C39.1835 220.36 39.217 220.583 39.1724 220.873C39.1724 221.363 39.0163 221.798 38.7041 222.177C38.392 222.556 37.8903 222.757 37.1991 222.779Z" fill="white"/>
</g>
</g>
<g id="Group_15">
<path id="Vector_11" d="M67.8301 214.753C67.8301 214.343 68.0508 214.028 68.4924 213.807H98.6265C99.0995 214.059 99.3361 214.375 99.3361 214.753C99.3361 215.1 99.1153 215.4 98.6738 215.652L83.6304 215.699H68.587C68.0824 215.542 67.8301 215.226 67.8301 214.753ZM67.8301 223.931C67.8301 223.457 68.0824 223.142 68.587 222.984H98.6738C99.1153 223.3 99.3361 223.615 99.3361 223.931C99.3361 224.341 99.0995 224.656 98.6265 224.877H68.4924C68.0508 224.656 67.8301 224.341 67.8301 223.931Z" fill="white"/>
</g>
<g id="Group_16">
<path id="Vector_12" d="M117.114 216.361C117.114 211.221 118.391 207.152 120.946 204.156C123.5 201.16 126.339 199.662 129.461 199.662C131.637 199.662 133.198 200.23 134.144 201.365C135.09 202.501 135.563 203.762 135.563 205.15C135.563 205.938 135.342 206.569 134.901 207.042C134.459 207.515 133.844 207.752 133.056 207.752C132.331 207.752 131.731 207.531 131.258 207.089C130.785 206.648 130.549 206.033 130.549 205.244C130.549 203.857 131.29 203.021 132.772 202.737C132.078 202.043 131.101 201.649 129.839 201.555C127.6 201.555 125.755 202.501 124.304 204.393C122.822 206.474 122.081 209.66 122.081 213.949L122.128 214.138C122.286 213.949 122.412 213.744 122.507 213.523C123.8 211.631 125.487 210.685 127.568 210.685H127.758C129.208 210.685 130.486 210.984 131.59 211.583C132.346 212.025 133.103 212.656 133.86 213.476C134.617 214.296 135.232 215.195 135.705 216.172C136.367 217.718 136.699 219.405 136.699 221.234V222.085C136.699 222.811 136.62 223.489 136.462 224.12C136.115 225.98 135.106 227.794 133.434 229.56C131.763 231.326 129.65 232.209 127.095 232.209C126.212 232.209 125.361 232.083 124.541 231.831C123.721 231.578 122.838 231.105 121.892 230.411C120.946 229.718 120.141 228.787 119.479 227.62C118.817 226.453 118.249 224.924 117.776 223.032C117.303 221.139 117.082 218.916 117.114 216.361ZM127.285 212.388C126.339 212.388 125.519 212.656 124.825 213.192C124.131 213.728 123.595 214.438 123.216 215.321C122.838 216.204 122.57 217.103 122.412 218.017C122.254 218.932 122.16 219.909 122.128 220.95C122.128 223.568 122.317 225.444 122.696 226.58C123.074 227.715 123.674 228.63 124.494 229.323C125.25 229.891 126.086 230.175 127.001 230.175C128.609 230.175 129.839 229.576 130.691 228.377C131.101 227.81 131.385 227.1 131.542 226.248C131.7 225.397 131.779 223.741 131.779 221.281C131.779 218.758 131.7 217.071 131.542 216.219C131.385 215.368 131.101 214.658 130.691 214.091C129.839 212.955 128.704 212.388 127.285 212.388Z" fill="white"/>
</g>
</g>
<g id="Group 94">
<g id="Group_17">
<g id="Group_18">
<path id="Vector_13" d="M0.804206 334.121C0.268069 334.121 0 333.963 0 333.648C0 333.585 0.0473063 333.364 0.141919 332.986C0.268069 332.481 0.394219 332.197 0.520369 332.134C0.646519 332.071 1.0092 332.024 1.60841 331.992C2.45993 331.992 3.40605 331.945 4.44679 331.85C4.88831 331.756 5.18792 331.566 5.34561 331.283C5.40868 331.125 6.52826 326.694 8.70435 317.99C10.8804 309.285 11.9843 304.87 12.0158 304.744C12.0158 304.523 11.9527 304.413 11.8266 304.413C11.5743 304.318 10.7385 304.239 9.31933 304.176H7.85284C7.66361 303.987 7.569 303.861 7.569 303.798C7.569 303.735 7.60054 303.467 7.66361 302.993C7.78976 302.457 7.94745 302.126 8.13668 302H33.6348C33.8555 302.126 33.9659 302.3 33.9659 302.52C33.9659 302.678 33.7609 304.444 33.3509 307.819C32.9409 311.193 32.7202 312.928 32.6886 313.022C32.6256 313.243 32.3102 313.354 31.7425 313.354H31.1748C30.9541 313.196 30.8437 312.991 30.8437 312.739C30.8437 312.707 30.891 312.329 30.9856 311.603C31.0802 310.878 31.1275 310.042 31.1275 309.096C31.1275 308.15 31.0171 307.377 30.7964 306.778C30.5756 306.179 30.276 305.69 29.8976 305.311C29.5191 304.933 28.9357 304.681 28.1472 304.555C27.3588 304.428 26.5546 304.318 25.7346 304.223C24.9146 304.129 23.7793 304.113 22.3286 304.176H21.2405C18.6544 304.208 17.2826 304.255 17.1249 304.318C16.9672 304.381 16.8568 304.507 16.7937 304.696C16.7622 304.728 16.226 306.794 15.1853 310.894L13.6715 316.996H16.2734C16.368 316.996 16.7306 316.996 17.3614 316.996C17.9921 316.996 18.4337 316.98 18.686 316.949C18.9383 316.917 19.2852 316.87 19.7267 316.807C20.1682 316.744 20.5467 316.633 20.8621 316.476C21.1774 316.318 21.4455 316.129 21.6663 315.908C22.0763 315.53 22.4232 315.009 22.707 314.347C22.9908 313.685 23.1958 313.085 23.322 312.549C23.4481 312.013 23.527 311.729 23.5585 311.698C23.6531 311.54 23.9527 311.461 24.4573 311.461H25.025C25.2458 311.619 25.3562 311.777 25.3562 311.934C25.3562 312.029 24.8673 314.095 23.8897 318.131C22.912 322.168 22.3759 324.25 22.2812 324.376C22.2182 324.597 21.9028 324.707 21.3351 324.707H20.7674C20.5467 324.518 20.4363 324.329 20.4363 324.139C20.4363 324.045 20.5151 323.698 20.6728 323.099C20.8305 322.499 20.9094 321.869 20.9094 321.206C20.9094 320.292 20.594 319.724 19.9632 319.503C19.3325 319.283 17.9291 319.172 15.753 319.172H13.1511L11.6373 325.18C10.6281 329.091 10.1235 331.141 10.1235 331.33C10.1235 331.771 11.527 331.992 14.3338 331.992H15.5165C15.7057 332.181 15.8003 332.292 15.8003 332.323C15.8003 332.355 15.7688 332.67 15.7057 333.269C15.5795 333.679 15.4218 333.979 15.2326 334.168H14.4284C13.1354 334.105 10.7543 334.074 7.28516 334.074C5.23523 334.074 3.67412 334.074 2.60184 334.074C1.52957 334.074 0.930357 334.089 0.804206 334.121Z" fill="white"/>
</g>
<g id="Group_19">
<path id="Vector_14" d="M44.4031 341.264C44.0017 341.197 42.5636 341.164 40.0886 341.164C37.5021 341.164 36.0082 341.197 35.6069 341.264H35.3059V339.726H36.3427C36.7886 339.726 37.0896 339.726 37.2457 339.726C37.4018 339.726 37.5913 339.703 37.8143 339.659C38.0373 339.614 38.1933 339.558 38.2825 339.492C38.3717 339.425 38.4498 339.335 38.5166 339.224C38.5389 339.179 38.5501 338.577 38.5501 337.418V335.746H29.8877V334.207L34.938 326.481C38.3494 321.308 40.0774 318.711 40.122 318.688C40.1666 318.644 40.4007 318.622 40.8244 318.622H41.4264L41.6271 318.822V334.207H44.7041V335.746H41.6271V337.451C41.6271 338.366 41.6271 338.901 41.6271 339.057C41.6271 339.213 41.694 339.347 41.8277 339.458C42.0061 339.614 42.6416 339.703 43.7341 339.726H44.7041V341.264H44.4031ZM38.7508 334.207V323.036L31.4262 334.174L35.0718 334.207H38.7508Z" fill="white"/>
</g>
</g>
<g id="Group_20">
<path id="Vector_15" d="M63.835 317.753C63.835 317.343 64.0557 317.028 64.4972 316.807H94.6313C95.1044 317.059 95.3409 317.374 95.3409 317.753C95.3409 318.1 95.1202 318.399 94.6786 318.652L79.6353 318.699H64.5919C64.0873 318.541 63.835 318.226 63.835 317.753ZM63.835 326.93C63.835 326.457 64.0873 326.142 64.5919 325.984H94.6786C95.1202 326.3 95.3409 326.615 95.3409 326.93C95.3409 327.34 95.1044 327.656 94.6313 327.876H64.4972C64.0557 327.656 63.835 327.34 63.835 326.93Z" fill="white"/>
</g>
<g id="Group_21">
<path id="Vector_16" d="M121.204 306.825L120.589 307.062C120.147 307.219 119.517 307.377 118.697 307.535C117.877 307.692 116.962 307.803 115.953 307.866H115.054V305.69H115.953C117.435 305.627 118.807 305.39 120.068 304.98C121.33 304.57 122.213 304.192 122.718 303.845C123.222 303.498 123.664 303.151 124.042 302.804C124.105 302.709 124.294 302.662 124.61 302.662C124.894 302.662 125.162 302.757 125.414 302.946V317.09L125.461 331.282C125.682 331.503 125.871 331.645 126.029 331.708C126.187 331.771 126.565 331.834 127.164 331.897C127.764 331.96 128.741 331.992 130.097 331.992H131.327V334.168H130.807C130.145 334.073 127.637 334.026 123.285 334.026C118.996 334.026 116.52 334.073 115.858 334.168H115.29V331.992H116.52C117.214 331.992 117.813 331.992 118.318 331.992C118.823 331.992 119.217 331.976 119.501 331.945C119.785 331.913 120.037 331.866 120.258 331.803C120.478 331.74 120.605 331.708 120.636 331.708C120.668 331.708 120.762 331.629 120.92 331.472C121.078 331.314 121.172 331.251 121.204 331.282V306.825Z" fill="white"/>
<path id="Vector_17" d="M139.322 306.494C141.088 303.939 143.5 302.662 146.56 302.662C148.073 302.662 149.587 303.072 151.101 303.892C152.615 304.712 153.845 306.163 154.791 308.244C155.958 310.862 156.541 314.457 156.541 319.03C156.541 323.918 155.863 327.656 154.507 330.242C153.876 331.566 153.009 332.623 151.905 333.411C150.801 334.2 149.839 334.688 149.019 334.878C148.2 335.067 147.395 335.177 146.607 335.209C145.787 335.209 144.967 335.114 144.147 334.925C143.327 334.736 142.365 334.231 141.261 333.411C140.157 332.591 139.29 331.535 138.659 330.242C137.303 327.656 136.625 323.918 136.625 319.03C136.625 313.543 137.524 309.364 139.322 306.494ZM149.966 305.926C149.019 304.917 147.9 304.412 146.607 304.412C145.282 304.412 144.147 304.917 143.201 305.926C142.412 306.746 141.892 307.882 141.64 309.332C141.387 310.783 141.261 313.811 141.261 318.415C141.261 323.398 141.387 326.678 141.64 328.255C141.892 329.832 142.46 331.077 143.343 331.992C144.226 332.938 145.314 333.411 146.607 333.411C147.868 333.411 148.941 332.938 149.824 331.992C150.738 331.046 151.306 329.721 151.527 328.018C151.747 326.315 151.874 323.114 151.905 318.415C151.905 313.842 151.779 310.83 151.527 309.38C151.274 307.929 150.754 306.778 149.966 305.926Z" fill="white"/>
</g>
</g>
</g>
</g>
<g id="=\frac{1 \times 2}{2}&#10;=\frac{2 \times 3}{2}&#10;=\frac{3 \times 4}{2}&#10;=\frac{4 \times 5}{2}">
<g id="Group_22">
<g id="Group 101">
<g id="Group_23">
<path id="Vector_18" d="M154 31.719C154 31.4427 154.149 31.2302 154.446 31.0814H174.753C175.072 31.2515 175.231 31.464 175.231 31.719C175.231 31.9528 175.082 32.1547 174.785 32.3247L164.647 32.3566H154.51C154.17 32.2503 154 32.0378 154 31.719ZM154 37.9034C154 37.5846 154.17 37.3721 154.51 37.2659H174.785C175.082 37.4784 175.231 37.6909 175.231 37.9034C175.231 38.1797 175.072 38.3922 174.753 38.541H154.446C154.149 38.3922 154 38.1797 154 37.9034Z" fill="white"/>
</g>
<g id="Group_24">
<g id="Group_25">
<g id="Group_26">
<path id="Vector_19" d="M199.675 2.80535L199.261 2.96474C198.963 3.071 198.538 3.17727 197.986 3.28353C197.433 3.38979 196.817 3.46417 196.137 3.50667H195.531V2.04027H196.137C197.136 1.99776 198.06 1.83837 198.91 1.56209C199.76 1.28581 200.355 1.03079 200.695 0.797012C201.035 0.563238 201.333 0.329464 201.588 0.0956879C201.63 0.0319328 201.758 5.34058e-05 201.97 5.34058e-05C202.162 5.34058e-05 202.342 0.0638103 202.512 0.191324V9.72296L202.544 19.2865C202.693 19.4352 202.821 19.5309 202.927 19.5734C203.033 19.6159 203.288 19.6584 203.692 19.7009C204.096 19.7434 204.754 19.7646 205.668 19.7646H206.497V21.231H206.147C205.7 21.1673 204.011 21.1354 201.078 21.1354C198.188 21.1354 196.519 21.1673 196.073 21.231H195.69V19.7646H196.519C196.987 19.7646 197.391 19.7646 197.731 19.7646C198.071 19.7646 198.336 19.754 198.528 19.7328C198.719 19.7115 198.889 19.6796 199.038 19.6371C199.186 19.5946 199.271 19.5734 199.293 19.5734C199.314 19.5734 199.378 19.5202 199.484 19.414C199.59 19.3077 199.654 19.2652 199.675 19.2865V2.80535Z" fill="white"/>
</g>
<g id="Group_27">
<path id="Vector_20" d="M235.991 20.3066C235.991 20.7316 235.768 20.9441 235.322 20.9441C235.215 20.9441 234.982 20.7741 234.62 20.4341C234.259 20.094 233.26 19.1058 231.624 17.4694L228.308 14.154L224.961 17.5013C222.708 19.7115 221.55 20.8379 221.486 20.8804C221.401 20.9229 221.327 20.9441 221.263 20.9441C221.093 20.9441 220.944 20.8804 220.817 20.7529C220.689 20.6253 220.615 20.4766 220.594 20.3066C220.594 20.1578 220.743 19.924 221.04 19.6052C221.338 19.2864 222.336 18.277 224.037 16.5768L227.352 13.2614L224.037 9.94608C222.315 8.22465 221.316 7.21517 221.04 6.91764C220.764 6.62011 220.615 6.38633 220.594 6.21631C220.594 6.02504 220.658 5.87628 220.785 5.77002C220.913 5.66375 221.072 5.61062 221.263 5.61062C221.369 5.61062 221.444 5.62125 221.486 5.6425C221.55 5.68501 222.708 6.81138 224.961 9.02161L228.308 12.3688L231.624 9.05349C233.26 7.41707 234.259 6.42884 234.62 6.0888C234.982 5.74876 235.215 5.57875 235.322 5.57875C235.768 5.57875 235.991 5.79127 235.991 6.21631C235.991 6.36508 235.885 6.55635 235.672 6.79012C235.46 7.0239 234.418 8.06526 232.548 9.9142L229.233 13.2614L232.548 16.6087C234.333 18.3939 235.353 19.4246 235.608 19.7009C235.863 19.9771 235.991 20.179 235.991 20.3066Z" fill="white"/>
</g>
<g id="Group_28">
<path id="Vector_21" d="M251.267 7.55523C250.693 7.55523 250.237 7.36396 249.897 6.98142C249.556 6.59888 249.386 6.13133 249.386 5.57877C249.386 4.06986 249.95 2.76285 251.076 1.65773C252.202 0.552612 253.605 5.34058e-05 255.284 5.34058e-05C257.218 5.34058e-05 258.833 0.595116 260.129 1.78524C261.426 2.97537 262.085 4.51616 262.106 6.40761C262.106 7.32145 261.893 8.19279 261.468 9.02163C261.043 9.85047 260.533 10.573 259.938 11.1894C259.343 11.8057 258.493 12.592 257.388 13.5484C256.623 14.2072 255.56 15.1848 254.2 16.4812L252.319 18.2664L254.742 18.2982C258.079 18.2982 259.853 18.2451 260.066 18.1388C260.214 18.0963 260.47 17.1506 260.831 15.3017V15.206H262.106V15.3017C262.085 15.3654 261.947 16.3324 261.692 18.2026C261.436 20.0728 261.277 21.0504 261.213 21.1354V21.231H249.386V20.6254V20.2428C249.386 20.0941 249.45 19.9347 249.578 19.7646C249.705 19.5946 250.024 19.2227 250.534 18.6489C251.15 17.9688 251.682 17.3738 252.128 16.8637C252.319 16.6512 252.681 16.258 253.212 15.6842C253.743 15.1104 254.104 14.7172 254.296 14.5047C254.487 14.2922 254.795 13.9415 255.22 13.4527C255.645 12.9639 255.943 12.6026 256.113 12.3689C256.283 12.1351 256.527 11.8163 256.846 11.4125C257.165 11.0087 257.388 10.6687 257.515 10.3924C257.643 10.1161 257.802 9.80797 257.994 9.46793C258.185 9.12789 258.323 8.78786 258.408 8.44782C258.493 8.10779 258.567 7.789 258.631 7.49147C258.695 7.19394 258.727 6.84328 258.727 6.43948C258.727 5.10059 258.366 3.94234 257.643 2.96474C256.92 1.98714 255.89 1.49834 254.551 1.49834C253.849 1.49834 253.233 1.67898 252.702 2.04027C252.171 2.40156 251.799 2.75222 251.586 3.09226C251.374 3.43229 251.267 3.63419 251.267 3.69794C251.267 3.7192 251.32 3.72982 251.427 3.72982C251.809 3.72982 252.202 3.87859 252.606 4.17612C253.01 4.47365 253.212 4.96245 253.212 5.64253C253.212 6.17383 253.042 6.62013 252.702 6.98142C252.362 7.3427 251.884 7.53398 251.267 7.55523Z" fill="white"/>
</g>
</g>
<g id="Group_29">
<path id="Vector_22" d="M223.814 50.9735C223.24 50.9735 222.783 50.7823 222.443 50.3997C222.103 50.0172 221.933 49.5496 221.933 48.9971C221.933 47.4882 222.496 46.1812 223.623 45.076C224.749 43.9709 226.152 43.4184 227.831 43.4184C229.765 43.4184 231.38 44.0134 232.676 45.2035C233.973 46.3937 234.631 47.9345 234.653 49.8259C234.653 50.7398 234.44 51.6111 234.015 52.4399C233.59 53.2688 233.08 53.9914 232.485 54.6077C231.89 55.224 231.04 56.0103 229.935 56.9667C229.169 57.6255 228.107 58.6031 226.747 59.8995L224.866 61.6847L227.289 61.7165C230.625 61.7165 232.4 61.6634 232.612 61.5572C232.761 61.5146 233.016 60.5689 233.377 58.72V58.6243H234.653V58.72C234.631 58.7837 234.493 59.7507 234.238 61.6209C233.983 63.4911 233.824 64.4687 233.76 64.5537V64.6494H221.933V64.0437V63.6611C221.933 63.5124 221.997 63.353 222.124 63.1829C222.252 63.0129 222.571 62.641 223.081 62.0672C223.697 61.3871 224.228 60.7921 224.675 60.282C224.866 60.0695 225.227 59.6763 225.759 59.1025C226.29 58.5287 226.651 58.1355 226.842 57.923C227.034 57.7105 227.342 57.3598 227.767 56.871C228.192 56.3822 228.489 56.0209 228.659 55.7872C228.829 55.5534 229.074 55.2346 229.393 54.8308C229.711 54.427 229.935 54.087 230.062 53.8107C230.19 53.5344 230.349 53.2263 230.54 52.8862C230.732 52.5462 230.87 52.2062 230.955 51.8661C231.04 51.5261 231.114 51.2073 231.178 50.9098C231.242 50.6122 231.273 50.2616 231.273 49.8578C231.273 48.5189 230.912 47.3606 230.19 46.383C229.467 45.4054 228.436 44.9166 227.097 44.9166C226.396 44.9166 225.78 45.0973 225.248 45.4586C224.717 45.8199 224.345 46.1705 224.133 46.5106C223.92 46.8506 223.814 47.0525 223.814 47.1162C223.814 47.1375 223.867 47.1481 223.973 47.1481C224.356 47.1481 224.749 47.2969 225.153 47.5944C225.557 47.892 225.759 48.3808 225.759 49.0608C225.759 49.5921 225.588 50.0384 225.248 50.3997C224.908 50.761 224.43 50.9523 223.814 50.9735Z" fill="white"/>
</g>
<path id="Vector_23" d="M266.919 35.7675H189.697V33.8548H266.919V35.7675Z" fill="white"/>
</g>
</g>
<g id="Group 100">
<g id="Group_30">
<path id="Vector_24" d="M154 117.719C154 117.443 154.149 117.23 154.446 117.081H174.753C175.072 117.251 175.231 117.464 175.231 117.719C175.231 117.953 175.082 118.155 174.785 118.325L164.647 118.357H154.51C154.17 118.25 154 118.038 154 117.719ZM154 123.903C154 123.585 154.17 123.372 154.51 123.266H174.785C175.082 123.478 175.231 123.691 175.231 123.903C175.231 124.18 175.072 124.392 174.753 124.541H154.446C154.149 124.392 154 124.18 154 123.903Z" fill="white"/>
</g>
<g id="Group_31">
<g id="Group_32">
<g id="Group_33">
<path id="Vector_25" d="M196.36 93.5551C195.786 93.5551 195.329 93.3639 194.989 92.9813C194.649 92.5988 194.479 92.1312 194.479 91.5787C194.479 90.0698 195.042 88.7628 196.168 87.6576C197.295 86.5525 198.697 86 200.376 86C202.31 86 203.925 86.595 205.222 87.7852C206.518 88.9753 207.177 90.5161 207.198 92.4075C207.198 93.3214 206.986 94.1927 206.561 95.0215C206.136 95.8504 205.626 96.573 205.031 97.1893C204.435 97.8056 203.585 98.5919 202.48 99.5483C201.715 100.207 200.653 101.185 199.292 102.481L197.412 104.266L199.834 104.298C203.171 104.298 204.945 104.245 205.158 104.139C205.307 104.096 205.562 103.151 205.923 101.302V101.206H207.198V101.302C207.177 101.365 207.039 102.332 206.784 104.203C206.529 106.073 206.369 107.05 206.306 107.135V107.231H194.479V106.625V106.243C194.479 106.094 194.543 105.935 194.67 105.765C194.798 105.595 195.116 105.223 195.626 104.649C196.243 103.969 196.774 103.374 197.22 102.864C197.412 102.651 197.773 102.258 198.304 101.684C198.835 101.11 199.197 100.717 199.388 100.505C199.579 100.292 199.887 99.9414 200.313 99.4526C200.738 98.9638 201.035 98.6025 201.205 98.3688C201.375 98.135 201.62 97.8162 201.938 97.4124C202.257 97.0086 202.48 96.6686 202.608 96.3923C202.735 96.116 202.895 95.8079 203.086 95.4678C203.277 95.1278 203.415 94.7878 203.5 94.4477C203.585 94.1077 203.66 93.7889 203.723 93.4914C203.787 93.1938 203.819 92.8432 203.819 92.4394C203.819 91.1005 203.458 89.9423 202.735 88.9647C202.013 87.987 200.982 87.4982 199.643 87.4982C198.942 87.4982 198.325 87.6789 197.794 88.0402C197.263 88.4015 196.891 88.7521 196.678 89.0922C196.466 89.4322 196.36 89.6341 196.36 89.6979C196.36 89.7191 196.413 89.7297 196.519 89.7297C196.902 89.7297 197.295 89.8785 197.698 90.176C198.102 90.4736 198.304 90.9624 198.304 91.6424C198.304 92.1737 198.134 92.62 197.794 92.9813C197.454 93.3426 196.976 93.5339 196.36 93.5551Z" fill="white"/>
</g>
<g id="Group_34">
<path id="Vector_26" d="M235.991 106.306C235.991 106.732 235.768 106.944 235.322 106.944C235.215 106.944 234.982 106.774 234.62 106.434C234.259 106.094 233.26 105.106 231.624 103.469L228.308 100.154L224.961 103.501C222.708 105.711 221.55 106.838 221.486 106.88C221.401 106.923 221.327 106.944 221.263 106.944C221.093 106.944 220.944 106.88 220.817 106.753C220.689 106.625 220.615 106.476 220.594 106.306C220.594 106.158 220.743 105.924 221.04 105.605C221.338 105.286 222.336 104.277 224.037 102.577L227.352 99.2613L224.037 95.946C222.315 94.2246 221.316 93.2151 221.04 92.9175C220.764 92.62 220.615 92.3862 220.594 92.2162C220.594 92.025 220.658 91.8762 220.785 91.7699C220.913 91.6637 221.072 91.6105 221.263 91.6105C221.369 91.6105 221.444 91.6212 221.486 91.6424C221.55 91.6849 222.708 92.8113 224.961 95.0215L228.308 98.3687L231.624 95.0534C233.26 93.417 234.259 92.4287 234.62 92.0887C234.982 91.7487 235.215 91.5787 235.322 91.5787C235.768 91.5787 235.991 91.7912 235.991 92.2162C235.991 92.365 235.885 92.5563 235.672 92.79C235.46 93.0238 234.418 94.0652 232.548 95.9141L229.233 99.2613L232.548 102.609C234.333 104.394 235.353 105.424 235.608 105.701C235.863 105.977 235.991 106.179 235.991 106.306Z" fill="white"/>
</g>
<g id="Group_35">
<path id="Vector_27" d="M251.841 92.4713C251.267 92.4713 250.821 92.2906 250.502 91.9293C250.183 91.5681 250.013 91.1005 249.992 90.5267C249.992 89.3578 250.502 88.3165 251.522 87.4026C252.542 86.4888 253.775 86.0318 255.22 86.0318C255.964 86.0318 256.431 86.0425 256.623 86.0637C258.195 86.3187 259.396 86.8819 260.225 87.7533C261.054 88.6246 261.479 89.5703 261.5 90.5904C261.5 91.6956 261.139 92.7688 260.416 93.8102C259.694 94.8515 258.695 95.606 257.42 96.0735L257.324 96.1373C257.324 96.1585 257.42 96.1904 257.611 96.2329C257.802 96.2754 258.11 96.3711 258.535 96.5198C258.961 96.6686 259.364 96.8917 259.747 97.1893C261.49 98.3156 262.361 99.8033 262.361 101.652C262.361 103.331 261.702 104.798 260.384 106.051C259.067 107.305 257.398 107.932 255.38 107.932C253.679 107.932 252.213 107.475 250.98 106.562C249.748 105.648 249.131 104.489 249.131 103.087C249.131 102.492 249.323 102.014 249.705 101.652C250.088 101.291 250.566 101.1 251.14 101.078C251.735 101.078 252.224 101.27 252.606 101.652C252.989 102.035 253.18 102.513 253.18 103.087C253.18 103.321 253.148 103.533 253.084 103.724C253.021 103.916 252.946 104.086 252.861 104.234C252.776 104.383 252.659 104.511 252.51 104.617C252.362 104.723 252.234 104.808 252.128 104.872C252.022 104.936 251.915 104.978 251.809 104.999C251.703 105.021 251.618 105.053 251.554 105.095L251.427 105.127C252.51 106.083 253.828 106.562 255.38 106.562C256.548 106.562 257.43 105.998 258.025 104.872C258.387 104.171 258.567 103.097 258.567 101.652V101.015C258.567 98.9957 257.887 97.6462 256.527 96.9661C256.208 96.8386 255.56 96.7642 254.583 96.743L253.244 96.7111L253.148 96.6473C253.106 96.5836 253.084 96.4136 253.084 96.1373C253.084 95.7547 253.169 95.5635 253.339 95.5635C253.934 95.5635 254.551 95.5103 255.188 95.4041C255.911 95.2978 256.57 94.8515 257.165 94.0652C257.76 93.2789 258.057 92.0887 258.057 90.4948V90.2398C258.057 89.0284 257.685 88.1889 256.942 87.7214C256.474 87.4239 255.975 87.2751 255.443 87.2751C254.763 87.2751 254.136 87.392 253.562 87.6258C252.989 87.8595 252.585 88.1039 252.351 88.359C252.117 88.614 252 88.7415 252 88.7415H252.096C252.16 88.7628 252.245 88.784 252.351 88.8053C252.457 88.8265 252.564 88.8796 252.67 88.9647C252.776 89.0497 252.904 89.124 253.052 89.1878C253.201 89.2516 253.307 89.3684 253.371 89.5385C253.435 89.7085 253.52 89.8679 253.626 90.0166C253.732 90.1654 253.764 90.3779 253.722 90.6542C253.722 91.1218 253.573 91.5362 253.276 91.8975C252.978 92.2587 252.5 92.45 251.841 92.4713Z" fill="white"/>
</g>
</g>
<g id="Group_36">
<path id="Vector_28" d="M223.814 136.974C223.24 136.974 222.783 136.782 222.443 136.4C222.103 136.017 221.933 135.55 221.933 134.997C221.933 133.488 222.496 132.181 223.622 131.076C224.749 129.971 226.151 129.418 227.83 129.418C229.764 129.418 231.379 130.013 232.676 131.204C233.972 132.394 234.631 133.934 234.652 135.826C234.652 136.74 234.44 137.611 234.015 138.44C233.59 139.269 233.08 139.991 232.485 140.608C231.89 141.224 231.039 142.01 229.934 142.967C229.169 143.625 228.107 144.603 226.746 145.899L224.866 147.685L227.288 147.717C230.625 147.717 232.4 147.663 232.612 147.557C232.761 147.515 233.016 146.569 233.377 144.72V144.624H234.652V144.72C234.631 144.784 234.493 145.751 234.238 147.621C233.983 149.491 233.823 150.469 233.76 150.554V150.649H221.933V150.044V149.661C221.933 149.512 221.997 149.353 222.124 149.183C222.252 149.013 222.57 148.641 223.08 148.067C223.697 147.387 224.228 146.792 224.674 146.282C224.866 146.069 225.227 145.676 225.758 145.103C226.29 144.529 226.651 144.136 226.842 143.923C227.033 143.71 227.342 143.36 227.767 142.871C228.192 142.382 228.489 142.021 228.659 141.787C228.829 141.553 229.074 141.235 229.392 140.831C229.711 140.427 229.934 140.087 230.062 139.811C230.189 139.534 230.349 139.226 230.54 138.886C230.731 138.546 230.869 138.206 230.954 137.866C231.039 137.526 231.114 137.207 231.178 136.91C231.241 136.612 231.273 136.262 231.273 135.858C231.273 134.519 230.912 133.361 230.189 132.383C229.467 131.405 228.436 130.917 227.097 130.917C226.396 130.917 225.78 131.097 225.248 131.459C224.717 131.82 224.345 132.171 224.132 132.511C223.92 132.851 223.814 133.052 223.814 133.116C223.814 133.138 223.867 133.148 223.973 133.148C224.356 133.148 224.749 133.297 225.153 133.594C225.556 133.892 225.758 134.381 225.758 135.061C225.758 135.592 225.588 136.038 225.248 136.4C224.908 136.761 224.43 136.952 223.814 136.974Z" fill="white"/>
</g>
<path id="Vector_29" d="M266.919 121.768H189.697V119.855H266.919V121.768Z" fill="white"/>
</g>
</g>
<g id="Group 99">
<g id="Group_37">
<path id="Vector_30" d="M154 219.07C154 218.793 154.149 218.581 154.446 218.432H174.753C175.072 218.602 175.231 218.815 175.231 219.07C175.231 219.303 175.082 219.505 174.785 219.675L164.647 219.707H154.51C154.17 219.601 154 219.388 154 219.07ZM154 225.254C154 224.935 154.17 224.723 154.51 224.616H174.785C175.082 224.829 175.231 225.042 175.231 225.254C175.231 225.53 175.072 225.743 174.753 225.892H154.446C154.149 225.743 154 225.53 154 225.254Z" fill="white"/>
</g>
<g id="Group_38">
<g id="Group_39">
<g id="Group_40">
<path id="Vector_31" d="M196.934 193.822C196.36 193.822 195.913 193.641 195.595 193.28C195.276 192.919 195.106 192.451 195.085 191.877C195.085 190.708 195.595 189.667 196.615 188.753C197.635 187.839 198.867 187.383 200.313 187.383C201.056 187.383 201.524 187.393 201.715 187.414C203.288 187.669 204.489 188.233 205.318 189.104C206.146 189.975 206.571 190.921 206.593 191.941C206.593 193.046 206.231 194.119 205.509 195.161C204.786 196.202 203.787 196.957 202.512 197.424L202.417 197.488C202.417 197.509 202.512 197.541 202.704 197.584C202.895 197.626 203.203 197.722 203.628 197.87C204.053 198.019 204.457 198.242 204.839 198.54C206.582 199.666 207.453 201.154 207.453 203.003C207.453 204.682 206.795 206.148 205.477 207.402C204.159 208.656 202.491 209.283 200.472 209.283C198.772 209.283 197.305 208.826 196.073 207.912C194.84 206.998 194.224 205.84 194.224 204.437C194.224 203.842 194.415 203.364 194.798 203.003C195.18 202.642 195.658 202.45 196.232 202.429C196.827 202.429 197.316 202.62 197.699 203.003C198.081 203.385 198.272 203.864 198.272 204.437C198.272 204.671 198.241 204.884 198.177 205.075C198.113 205.266 198.039 205.436 197.954 205.585C197.869 205.734 197.752 205.861 197.603 205.968C197.454 206.074 197.327 206.159 197.22 206.223C197.114 206.286 197.008 206.329 196.902 206.35C196.795 206.371 196.71 206.403 196.647 206.446L196.519 206.478C197.603 207.434 198.921 207.912 200.472 207.912C201.641 207.912 202.523 207.349 203.118 206.223C203.479 205.521 203.66 204.448 203.66 203.003V202.365C203.66 200.346 202.98 198.997 201.62 198.317C201.301 198.189 200.653 198.115 199.675 198.094L198.336 198.062L198.241 197.998C198.198 197.934 198.177 197.764 198.177 197.488C198.177 197.105 198.262 196.914 198.432 196.914C199.027 196.914 199.643 196.861 200.281 196.755C201.003 196.648 201.662 196.202 202.257 195.416C202.852 194.63 203.15 193.439 203.15 191.845V191.59C203.15 190.379 202.778 189.54 202.034 189.072C201.567 188.775 201.067 188.626 200.536 188.626C199.856 188.626 199.229 188.743 198.655 188.976C198.081 189.21 197.677 189.455 197.444 189.71C197.21 189.965 197.093 190.092 197.093 190.092H197.189C197.252 190.113 197.337 190.135 197.444 190.156C197.55 190.177 197.656 190.23 197.762 190.315C197.869 190.4 197.996 190.475 198.145 190.538C198.294 190.602 198.4 190.719 198.464 190.889C198.527 191.059 198.612 191.219 198.719 191.367C198.825 191.516 198.857 191.729 198.814 192.005C198.814 192.472 198.666 192.887 198.368 193.248C198.071 193.609 197.592 193.801 196.934 193.822Z" fill="white"/>
</g>
<g id="Group_41">
<path id="Vector_32" d="M235.991 207.657C235.991 208.082 235.768 208.295 235.322 208.295C235.215 208.295 234.982 208.125 234.62 207.785C234.259 207.445 233.26 206.456 231.624 204.82L228.308 201.505L224.961 204.852C222.708 207.062 221.55 208.188 221.486 208.231C221.401 208.273 221.327 208.295 221.263 208.295C221.093 208.295 220.944 208.231 220.817 208.103C220.689 207.976 220.615 207.827 220.594 207.657C220.594 207.508 220.743 207.275 221.04 206.956C221.338 206.637 222.336 205.628 224.037 203.927L227.352 200.612L224.037 197.297C222.315 195.575 221.316 194.566 221.04 194.268C220.764 193.971 220.615 193.737 220.594 193.567C220.594 193.376 220.658 193.227 220.785 193.121C220.913 193.014 221.072 192.961 221.263 192.961C221.369 192.961 221.444 192.972 221.486 192.993C221.55 193.036 222.708 194.162 224.961 196.372L228.308 199.719L231.624 196.404C233.26 194.768 234.259 193.779 234.62 193.439C234.982 193.099 235.215 192.929 235.322 192.929C235.768 192.929 235.991 193.142 235.991 193.567C235.991 193.716 235.885 193.907 235.672 194.141C235.46 194.374 234.418 195.416 232.548 197.265L229.233 200.612L232.548 203.959C234.333 205.744 235.353 206.775 235.608 207.051C235.863 207.328 235.991 207.53 235.991 207.657Z" fill="white"/>
</g>
<g id="Group_42">
<path id="Vector_33" d="M262.52 208.582C262.137 208.518 260.767 208.486 258.408 208.486C255.942 208.486 254.519 208.518 254.136 208.582H253.849V207.115H254.837C255.262 207.115 255.549 207.115 255.698 207.115C255.847 207.115 256.027 207.094 256.24 207.051C256.453 207.009 256.601 206.956 256.686 206.892C256.771 206.828 256.846 206.743 256.909 206.637C256.931 206.595 256.941 206.021 256.941 204.916V203.322H248.685V201.855L253.498 194.491C256.75 189.561 258.397 187.085 258.44 187.064C258.482 187.021 258.705 187 259.109 187H259.683L259.874 187.191V201.855H262.807V203.322H259.874V204.947C259.874 205.819 259.874 206.329 259.874 206.478C259.874 206.626 259.938 206.754 260.065 206.86C260.235 207.009 260.841 207.094 261.882 207.115H262.807V208.582H262.52ZM257.133 201.855V191.208L250.151 201.823L253.626 201.855H257.133Z" fill="white"/>
</g>
</g>
<g id="Group_43">
<path id="Vector_34" d="M223.814 238.324C223.24 238.324 222.783 238.133 222.443 237.75C222.103 237.368 221.933 236.9 221.933 236.348C221.933 234.839 222.496 233.532 223.623 232.427C224.749 231.322 226.152 230.769 227.831 230.769C229.765 230.769 231.38 231.364 232.676 232.554C233.973 233.744 234.631 235.285 234.653 237.177C234.653 238.09 234.44 238.962 234.015 239.791C233.59 240.619 233.08 241.342 232.485 241.958C231.89 242.575 231.04 243.361 229.935 244.317C229.169 244.976 228.107 245.954 226.747 247.25L224.866 249.035L227.289 249.067C230.625 249.067 232.4 249.014 232.612 248.908C232.761 248.865 233.016 247.92 233.377 246.071V245.975H234.653V246.071C234.631 246.134 234.493 247.101 234.238 248.972C233.983 250.842 233.824 251.819 233.76 251.904V252H221.933V251.394V251.012C221.933 250.863 221.997 250.704 222.124 250.534C222.252 250.364 222.571 249.992 223.081 249.418C223.697 248.738 224.228 248.143 224.675 247.633C224.866 247.42 225.227 247.027 225.759 246.453C226.29 245.879 226.651 245.486 226.842 245.274C227.034 245.061 227.342 244.71 227.767 244.222C228.192 243.733 228.489 243.372 228.659 243.138C228.829 242.904 229.074 242.585 229.393 242.181C229.711 241.778 229.935 241.438 230.062 241.161C230.19 240.885 230.349 240.577 230.54 240.237C230.732 239.897 230.87 239.557 230.955 239.217C231.04 238.877 231.114 238.558 231.178 238.26C231.242 237.963 231.273 237.612 231.273 237.208C231.273 235.87 230.912 234.711 230.19 233.734C229.467 232.756 228.436 232.267 227.097 232.267C226.396 232.267 225.78 232.448 225.248 232.809C224.717 233.171 224.345 233.521 224.133 233.861C223.92 234.201 223.814 234.403 223.814 234.467C223.814 234.488 223.867 234.499 223.973 234.499C224.356 234.499 224.749 234.648 225.153 234.945C225.557 235.243 225.759 235.731 225.759 236.411C225.759 236.943 225.588 237.389 225.248 237.75C224.908 238.112 224.43 238.303 223.814 238.324Z" fill="white"/>
</g>
<path id="Vector_35" d="M266.92 223.118H189.698V221.205H266.92V223.118Z" fill="white"/>
</g>
</g>
<g id="Group 98">
<g id="Group_44">
<path id="Vector_36" d="M175 320.07C175 319.793 175.149 319.581 175.446 319.432H195.753C196.072 319.602 196.231 319.815 196.231 320.07C196.231 320.303 196.082 320.505 195.785 320.675L185.647 320.707H175.51C175.17 320.601 175 320.388 175 320.07ZM175 326.254C175 325.935 175.17 325.723 175.51 325.616H195.785C196.082 325.829 196.231 326.042 196.231 326.254C196.231 326.53 196.072 326.743 195.753 326.892H175.446C175.149 326.743 175 326.53 175 326.254Z" fill="white"/>
</g>
<g id="Group_45">
<g id="Group_46">
<g id="Group_47">
<path id="Vector_37" d="M228.613 309.582C228.231 309.518 226.86 309.486 224.501 309.486C222.035 309.486 220.612 309.518 220.229 309.582H219.942V308.115H220.93C221.355 308.115 221.642 308.115 221.791 308.115C221.94 308.115 222.12 308.094 222.333 308.051C222.546 308.009 222.694 307.956 222.779 307.892C222.864 307.828 222.939 307.743 223.002 307.637C223.024 307.595 223.034 307.021 223.034 305.916V304.322H214.778V302.855L219.591 295.491C222.843 290.561 224.49 288.085 224.533 288.064C224.575 288.021 224.798 288 225.202 288H225.776L225.967 288.191V302.855H228.9V304.322H225.967V305.947C225.967 306.819 225.967 307.329 225.967 307.478C225.967 307.626 226.031 307.754 226.158 307.86C226.328 308.009 226.934 308.094 227.975 308.115H228.9V309.582H228.613ZM223.226 302.855V292.208L216.244 302.823L219.719 302.855H223.226Z" fill="white"/>
</g>
<g id="Group_48">
<path id="Vector_38" d="M256.991 308.657C256.991 309.082 256.768 309.295 256.321 309.295C256.215 309.295 255.981 309.125 255.62 308.785C255.259 308.445 254.26 307.456 252.623 305.82L249.308 302.505L245.961 305.852C243.708 308.062 242.55 309.188 242.486 309.231C242.401 309.273 242.327 309.295 242.263 309.295C242.093 309.295 241.944 309.231 241.817 309.103C241.689 308.976 241.615 308.827 241.594 308.657C241.594 308.508 241.742 308.275 242.04 307.956C242.337 307.637 243.336 306.628 245.036 304.927L248.352 301.612L245.036 298.297C243.315 296.575 242.316 295.566 242.04 295.268C241.764 294.971 241.615 294.737 241.594 294.567C241.594 294.376 241.657 294.227 241.785 294.121C241.912 294.014 242.072 293.961 242.263 293.961C242.369 293.961 242.444 293.972 242.486 293.993C242.55 294.036 243.708 295.162 245.961 297.372L249.308 300.719L252.623 297.404C254.26 295.768 255.259 294.779 255.62 294.439C255.981 294.099 256.215 293.929 256.321 293.929C256.768 293.929 256.991 294.142 256.991 294.567C256.991 294.716 256.884 294.907 256.672 295.141C256.459 295.374 255.418 296.416 253.548 298.265L250.233 301.612L253.548 304.959C255.333 306.744 256.353 307.775 256.608 308.051C256.863 308.328 256.991 308.53 256.991 308.657Z" fill="white"/>
</g>
<g id="Group_49">
<path id="Vector_39" d="M274.021 304.577C274.021 305.087 273.851 305.512 273.511 305.852C273.171 306.192 272.756 306.362 272.267 306.362H272.044C273.022 308.041 274.318 308.88 275.933 308.88C277.421 308.88 278.505 308.243 279.185 306.968C279.589 306.266 279.791 304.906 279.791 302.887C279.791 300.698 279.504 299.221 278.93 298.456C278.377 297.755 277.761 297.404 277.081 297.404H276.89C275.232 297.404 273.978 298.127 273.128 299.572C273.043 299.721 272.969 299.806 272.905 299.827C272.841 299.848 272.682 299.869 272.427 299.891C272.065 299.891 271.864 299.827 271.821 299.699C271.778 299.614 271.757 297.755 271.757 294.121V290.008C271.757 288.946 271.81 288.414 271.917 288.414C271.959 288.372 272.002 288.351 272.044 288.351C272.065 288.351 272.289 288.436 272.714 288.606C273.139 288.776 273.723 288.946 274.467 289.116C275.211 289.286 276.008 289.371 276.858 289.371C278.367 289.371 279.812 289.073 281.193 288.478C281.363 288.393 281.501 288.351 281.608 288.351C281.778 288.351 281.863 288.542 281.863 288.924V289.339C280.12 291.4 277.942 292.431 275.328 292.431C274.669 292.431 274.074 292.367 273.542 292.24L273.224 292.176V297.659C273.627 297.362 273.946 297.128 274.18 296.958C274.414 296.788 274.796 296.618 275.328 296.448C275.859 296.278 276.401 296.193 276.953 296.193C278.675 296.193 280.131 296.883 281.321 298.265C282.511 299.646 283.106 301.283 283.106 303.174C283.106 305.129 282.426 306.798 281.066 308.179C279.706 309.56 278.048 310.262 276.093 310.283C274.371 310.283 272.99 309.709 271.949 308.561C270.907 307.414 270.386 306.117 270.386 304.672C270.386 304.162 270.503 303.758 270.737 303.461C270.971 303.163 271.215 302.972 271.47 302.887C271.725 302.802 271.97 302.76 272.204 302.76C272.735 302.76 273.171 302.94 273.511 303.302C273.851 303.663 274.021 304.088 274.021 304.577Z" fill="white"/>
</g>
</g>
<g id="Group_50">
<path id="Vector_40" d="M244.814 339.324C244.24 339.324 243.783 339.133 243.443 338.75C243.103 338.368 242.933 337.9 242.933 337.348C242.933 335.839 243.496 334.532 244.622 333.427C245.749 332.322 247.151 331.769 248.83 331.769C250.764 331.769 252.379 332.364 253.676 333.554C254.972 334.744 255.631 336.285 255.652 338.177C255.652 339.09 255.44 339.962 255.015 340.791C254.59 341.619 254.08 342.342 253.485 342.958C252.89 343.575 252.039 344.361 250.934 345.317C250.169 345.976 249.107 346.954 247.746 348.25L245.866 350.035L248.288 350.067C251.625 350.067 253.4 350.014 253.612 349.908C253.761 349.865 254.016 348.92 254.377 347.071V346.975H255.652V347.071C255.631 347.134 255.493 348.101 255.238 349.972C254.983 351.842 254.823 352.819 254.76 352.904V353H242.933V352.394V352.012C242.933 351.863 242.997 351.704 243.124 351.534C243.252 351.364 243.57 350.992 244.08 350.418C244.697 349.738 245.228 349.143 245.674 348.633C245.866 348.42 246.227 348.027 246.758 347.453C247.29 346.879 247.651 346.486 247.842 346.274C248.033 346.061 248.342 345.71 248.767 345.222C249.192 344.733 249.489 344.372 249.659 344.138C249.829 343.904 250.074 343.585 250.392 343.181C250.711 342.778 250.934 342.438 251.062 342.161C251.189 341.885 251.349 341.577 251.54 341.237C251.731 340.897 251.869 340.557 251.954 340.217C252.039 339.877 252.114 339.558 252.178 339.26C252.241 338.963 252.273 338.612 252.273 338.208C252.273 336.87 251.912 335.711 251.189 334.734C250.467 333.756 249.436 333.267 248.097 333.267C247.396 333.267 246.78 333.448 246.248 333.809C245.717 334.171 245.345 334.521 245.132 334.861C244.92 335.201 244.814 335.403 244.814 335.467C244.814 335.488 244.867 335.499 244.973 335.499C245.356 335.499 245.749 335.648 246.153 335.945C246.556 336.243 246.758 336.731 246.758 337.411C246.758 337.943 246.588 338.389 246.248 338.75C245.908 339.112 245.43 339.303 244.814 339.324Z" fill="white"/>
</g>
<path id="Vector_41" d="M287.919 324.118H210.697V322.205H287.919V324.118Z" fill="white"/>
</g>
</g>
</g>
</g>
</g>
<path id="Line 47 (Stroke)" fill-rule="evenodd" clip-rule="evenodd" d="M349.989 5.98904L349.989 367.011H344.989L344.989 5.98904H349.989Z" fill="#CD08D1"/>
<g id="\therefore\;\;F_{40}=\frac{40 \times 41}{2}=820">
<g id="Group_51">
<g id="Group 104">
<g id="Group_52">
<path id="Vector_42" d="M392.38 114.269C392.38 113.547 392.63 112.949 393.13 112.477C393.631 112.004 394.228 111.768 394.923 111.768C395.59 111.768 396.16 112.004 396.632 112.477C397.105 112.949 397.355 113.547 397.383 114.269C397.41 114.992 397.174 115.589 396.674 116.062C396.174 116.534 395.576 116.77 394.881 116.77C394.159 116.77 393.561 116.534 393.089 116.062C392.616 115.589 392.38 114.992 392.38 114.269ZM384.501 129.819C385.224 129.819 385.807 130.055 386.252 130.527C386.697 131 386.933 131.597 386.961 132.32C386.961 132.987 386.738 133.57 386.294 134.071C385.849 134.571 385.238 134.821 384.46 134.821C383.737 134.821 383.153 134.585 382.709 134.112C382.264 133.64 382.028 133.042 382 132.32C382 131.597 382.236 131 382.709 130.527C383.181 130.055 383.779 129.819 384.501 129.819ZM402.844 132.32C402.844 131.597 403.08 131 403.552 130.527C404.025 130.055 404.622 129.819 405.345 129.819C406.012 129.819 406.581 130.055 407.054 130.527C407.526 131 407.777 131.597 407.804 132.32C407.804 132.959 407.582 133.529 407.137 134.029C406.693 134.529 406.081 134.793 405.303 134.821C404.581 134.821 403.997 134.585 403.552 134.112C403.108 133.64 402.871 133.042 402.844 132.32Z" fill="white"/>
</g>
<g id="Group_53">
<g id="Group_54">
<path id="Vector_43" d="M445.544 131.361C445.071 131.361 444.835 131.222 444.835 130.944C444.835 130.889 444.877 130.694 444.96 130.36C445.071 129.916 445.182 129.666 445.294 129.61C445.405 129.555 445.724 129.513 446.252 129.485C447.003 129.485 447.836 129.443 448.754 129.36C449.143 129.277 449.407 129.11 449.546 128.86C449.601 128.721 450.588 124.816 452.505 117.146C454.423 109.475 455.396 105.584 455.423 105.473C455.423 105.279 455.368 105.181 455.257 105.181C455.034 105.098 454.298 105.029 453.047 104.973H451.755C451.588 104.806 451.505 104.695 451.505 104.64C451.505 104.584 451.533 104.348 451.588 103.931C451.699 103.458 451.838 103.167 452.005 103.055H474.474C474.669 103.167 474.766 103.319 474.766 103.514C474.766 103.653 474.586 105.209 474.224 108.183C473.863 111.157 473.669 112.685 473.641 112.769C473.585 112.963 473.307 113.06 472.807 113.06H472.307C472.112 112.921 472.015 112.741 472.015 112.518C472.015 112.491 472.057 112.157 472.14 111.518C472.223 110.879 472.265 110.142 472.265 109.308C472.265 108.475 472.168 107.794 471.973 107.266C471.779 106.738 471.515 106.307 471.181 105.974C470.848 105.64 470.334 105.418 469.639 105.307C468.944 105.195 468.235 105.098 467.513 105.015C466.79 104.931 465.79 104.917 464.511 104.973H463.552C461.274 105.001 460.065 105.043 459.926 105.098C459.787 105.154 459.689 105.265 459.634 105.432C459.606 105.459 459.134 107.28 458.217 110.893L456.883 116.27H459.175C459.259 116.27 459.578 116.27 460.134 116.27C460.69 116.27 461.079 116.256 461.301 116.229C461.524 116.201 461.829 116.159 462.218 116.103C462.608 116.048 462.941 115.951 463.219 115.812C463.497 115.673 463.733 115.506 463.928 115.311C464.289 114.978 464.595 114.519 464.845 113.936C465.095 113.352 465.276 112.824 465.387 112.352C465.498 111.879 465.567 111.629 465.595 111.601C465.679 111.462 465.943 111.393 466.387 111.393H466.887C467.082 111.532 467.179 111.671 467.179 111.81C467.179 111.893 466.748 113.713 465.887 117.271C465.025 120.828 464.553 122.662 464.47 122.773C464.414 122.968 464.136 123.065 463.636 123.065H463.136C462.941 122.898 462.844 122.732 462.844 122.565C462.844 122.482 462.913 122.176 463.052 121.648C463.191 121.12 463.261 120.564 463.261 119.98C463.261 119.174 462.983 118.674 462.427 118.48C461.871 118.285 460.634 118.188 458.717 118.188H456.424L455.09 123.482C454.201 126.928 453.756 128.735 453.756 128.901C453.756 129.291 454.993 129.485 457.466 129.485H458.508C458.675 129.652 458.758 129.749 458.758 129.777C458.758 129.805 458.731 130.083 458.675 130.611C458.564 130.972 458.425 131.236 458.258 131.403H457.55C456.41 131.347 454.312 131.319 451.255 131.319C449.448 131.319 448.073 131.319 447.128 131.319C446.183 131.319 445.655 131.333 445.544 131.361Z" fill="white"/>
</g>
<g id="Group_55">
<g id="Group_56">
<path id="Vector_44" d="M483.964 137.656C483.61 137.597 482.343 137.567 480.162 137.567C477.883 137.567 476.566 137.597 476.213 137.656H475.947V136.3H476.861C477.254 136.3 477.519 136.3 477.657 136.3C477.794 136.3 477.961 136.28 478.158 136.241C478.354 136.202 478.492 136.153 478.571 136.094C478.649 136.035 478.718 135.956 478.777 135.858C478.796 135.819 478.806 135.288 478.806 134.266V132.793H471.173V131.437L475.623 124.629C478.629 120.07 480.152 117.781 480.192 117.762C480.231 117.722 480.437 117.703 480.81 117.703H481.341L481.518 117.879V131.437H484.229V132.793H481.518V134.296C481.518 135.101 481.518 135.573 481.518 135.71C481.518 135.848 481.577 135.966 481.695 136.064C481.852 136.202 482.412 136.28 483.375 136.3H484.229V137.656H483.964ZM478.983 131.437V121.593L472.529 131.407L475.741 131.437H478.983Z" fill="white"/>
<path id="Vector_45" d="M487.913 120.414C489.014 118.823 490.517 118.027 492.423 118.027C493.366 118.027 494.309 118.282 495.252 118.793C496.195 119.304 496.961 120.208 497.551 121.505C498.278 123.135 498.641 125.375 498.641 128.224C498.641 131.27 498.219 133.598 497.374 135.209C496.981 136.035 496.441 136.693 495.753 137.184C495.065 137.675 494.466 137.98 493.955 138.098C493.444 138.216 492.943 138.284 492.452 138.304C491.941 138.304 491.43 138.245 490.92 138.127C490.409 138.009 489.809 137.695 489.122 137.184C488.434 136.673 487.894 136.015 487.501 135.209C486.656 133.598 486.233 131.27 486.233 128.224C486.233 124.806 486.793 122.202 487.913 120.414ZM494.545 120.06C493.955 119.432 493.258 119.117 492.452 119.117C491.627 119.117 490.92 119.432 490.33 120.06C489.839 120.571 489.515 121.279 489.358 122.182C489.2 123.086 489.122 124.973 489.122 127.841C489.122 130.946 489.2 132.989 489.358 133.972C489.515 134.954 489.868 135.73 490.419 136.3C490.969 136.889 491.647 137.184 492.452 137.184C493.238 137.184 493.906 136.889 494.456 136.3C495.026 135.711 495.38 134.885 495.517 133.824C495.655 132.763 495.733 130.769 495.753 127.841C495.753 124.992 495.675 123.116 495.517 122.212C495.36 121.308 495.036 120.591 494.545 120.06Z" fill="white"/>
</g>
</g>
</g>
<g id="Group_57">
<path id="Vector_46" d="M515.824 116.937C515.824 116.576 516.019 116.298 516.408 116.103H542.962C543.379 116.326 543.588 116.604 543.588 116.937C543.588 117.243 543.393 117.507 543.004 117.729L529.747 117.771H516.491C516.046 117.632 515.824 117.354 515.824 116.937ZM515.824 125.025C515.824 124.608 516.046 124.33 516.491 124.191H543.004C543.393 124.469 543.588 124.747 543.588 125.025C543.588 125.386 543.379 125.664 542.962 125.858H516.408C516.019 125.664 515.824 125.386 515.824 125.025Z" fill="white"/>
</g>
<g id="Group_58">
<g id="Group_59">
<g id="Group_60">
<path id="Vector_47" d="M585.933 103.222C585.433 103.139 583.64 103.097 580.556 103.097C577.332 103.097 575.47 103.139 574.97 103.222H574.594V101.305H575.887C576.443 101.305 576.818 101.305 577.012 101.305C577.207 101.305 577.443 101.277 577.721 101.221C577.999 101.166 578.193 101.096 578.305 101.013C578.416 100.929 578.513 100.818 578.596 100.679C578.624 100.624 578.638 99.8733 578.638 98.4282V96.3438H567.841V94.4262L574.136 84.7965C578.388 78.3489 580.542 75.1112 580.597 75.0834C580.653 75.0278 580.945 75 581.473 75H582.223L582.473 75.2501V94.4262H586.308V96.3438H582.473V98.4698C582.473 99.6093 582.473 100.276 582.473 100.471C582.473 100.665 582.557 100.832 582.723 100.971C582.946 101.166 583.738 101.277 585.1 101.305H586.308V103.222H585.933ZM578.888 94.4262V80.5027L569.759 94.3845L574.303 94.4262H578.888Z" fill="white"/>
<path id="Vector_48" d="M591.519 78.8352C593.075 76.5841 595.201 75.4586 597.897 75.4586C599.231 75.4586 600.565 75.8198 601.899 76.5424C603.233 77.265 604.317 78.5434 605.151 80.3776C606.179 82.6843 606.693 85.8525 606.693 89.8823C606.693 94.19 606.096 97.4832 604.901 99.7621C604.345 100.929 603.58 101.86 602.608 102.555C601.635 103.25 600.787 103.681 600.065 103.847C599.342 104.014 598.634 104.111 597.939 104.139C597.216 104.139 596.494 104.056 595.771 103.889C595.048 103.722 594.201 103.278 593.228 102.555C592.255 101.833 591.491 100.902 590.935 99.7621C589.74 97.4832 589.143 94.19 589.143 89.8823C589.143 85.0466 589.935 81.3642 591.519 78.8352ZM600.899 78.335C600.065 77.4456 599.078 77.001 597.939 77.001C596.772 77.001 595.771 77.4456 594.937 78.335C594.243 79.0575 593.784 80.058 593.562 81.3364C593.339 82.6148 593.228 85.2828 593.228 89.3404C593.228 93.7314 593.339 96.6217 593.562 98.0113C593.784 99.4008 594.284 100.499 595.062 101.305C595.841 102.138 596.799 102.555 597.939 102.555C599.05 102.555 599.995 102.138 600.774 101.305C601.579 100.471 602.08 99.3036 602.274 97.8028C602.469 96.3021 602.58 93.4813 602.608 89.3404C602.608 85.3106 602.497 82.6565 602.274 81.3781C602.052 80.0997 601.593 79.0853 600.899 78.335Z" fill="white"/>
</g>
<g id="Group_61">
<path id="Vector_49" d="M643.887 102.013C643.887 102.569 643.595 102.847 643.011 102.847C642.872 102.847 642.567 102.625 642.094 102.18C641.622 101.735 640.316 100.443 638.176 98.3031L633.84 93.9676L629.463 98.3448C626.517 101.235 625.003 102.708 624.919 102.764C624.808 102.819 624.711 102.847 624.627 102.847C624.405 102.847 624.211 102.764 624.044 102.597C623.877 102.43 623.78 102.236 623.752 102.013C623.752 101.819 623.946 101.513 624.336 101.096C624.725 100.679 626.031 99.3592 628.254 97.1359L632.59 92.8004L628.254 88.4649C626.003 86.2138 624.697 84.8937 624.336 84.5047C623.974 84.1156 623.78 83.8099 623.752 83.5875C623.752 83.3374 623.835 83.1429 624.002 83.0039C624.169 82.865 624.377 82.7955 624.627 82.7955C624.766 82.7955 624.864 82.8094 624.919 82.8372C625.003 82.8928 626.517 84.3657 629.463 87.256L633.84 91.6332L638.176 87.2977C640.316 85.1578 641.622 83.8655 642.094 83.4208C642.567 82.9761 642.872 82.7538 643.011 82.7538C643.595 82.7538 643.887 83.0317 643.887 83.5875C643.887 83.7821 643.748 84.0322 643.47 84.3379C643.192 84.6436 641.83 86.0054 639.385 88.4232L635.049 92.8004L639.385 97.1775C641.719 99.512 643.053 100.86 643.387 101.221C643.72 101.582 643.887 101.846 643.887 102.013Z" fill="white"/>
</g>
<g id="Group_62">
<path id="Vector_50" d="M678.579 103.222C678.078 103.139 676.286 103.097 673.201 103.097C669.977 103.097 668.115 103.139 667.615 103.222H667.24V101.305H668.532C669.088 101.305 669.463 101.305 669.657 101.305C669.852 101.305 670.088 101.277 670.366 101.221C670.644 101.166 670.839 101.096 670.95 101.013C671.061 100.929 671.158 100.818 671.242 100.679C671.269 100.624 671.283 99.8733 671.283 98.4282V96.3438H660.486V94.4262L666.781 84.7965C671.033 78.3489 673.187 75.1112 673.243 75.0834C673.298 75.0278 673.59 75 674.118 75H674.868L675.119 75.2501V94.4262H678.954V96.3438H675.119V98.4698C675.119 99.6093 675.119 100.276 675.119 100.471C675.119 100.665 675.202 100.832 675.369 100.971C675.591 101.166 676.383 101.277 677.745 101.305H678.954V103.222H678.579ZM671.533 94.4262V80.5027L662.404 94.3845L666.948 94.4262H671.533Z" fill="white"/>
<path id="Vector_51" d="M689.042 79.127L688.5 79.3355C688.111 79.4744 687.555 79.6134 686.833 79.7523C686.11 79.8913 685.304 79.9886 684.415 80.0441H683.623V78.1265H684.415C685.721 78.0709 686.93 77.8625 688.042 77.5012C689.153 77.1399 689.931 76.8064 690.376 76.5007C690.821 76.195 691.21 75.8893 691.543 75.5836C691.599 75.5002 691.766 75.4586 692.044 75.4586C692.294 75.4586 692.53 75.5419 692.752 75.7087V88.1731L692.794 100.679C692.989 100.874 693.155 100.999 693.294 101.054C693.433 101.11 693.767 101.166 694.295 101.221C694.823 101.277 695.684 101.305 696.879 101.305H697.963V103.222H697.505C696.921 103.139 694.712 103.097 690.876 103.097C687.097 103.097 684.915 103.139 684.331 103.222H683.831V101.305H684.915C685.527 101.305 686.055 101.305 686.499 101.305C686.944 101.305 687.291 101.291 687.541 101.263C687.792 101.235 688.014 101.193 688.208 101.138C688.403 101.082 688.514 101.054 688.542 101.054C688.57 101.054 688.653 100.985 688.792 100.846C688.931 100.707 689.014 100.651 689.042 100.679V79.127Z" fill="white"/>
</g>
</g>
<g id="Group_63">
<path id="Vector_52" d="M627.962 142.116C627.212 142.116 626.614 141.866 626.169 141.366C625.725 140.866 625.502 140.254 625.502 139.532C625.502 137.558 626.239 135.849 627.712 134.404C629.185 132.959 631.019 132.236 633.215 132.236C635.744 132.236 637.856 133.015 639.551 134.571C641.246 136.127 642.108 138.142 642.136 140.615C642.136 141.811 641.858 142.95 641.302 144.034C640.746 145.118 640.079 146.063 639.301 146.869C638.523 147.675 637.411 148.703 635.966 149.953C634.965 150.815 633.576 152.093 631.797 153.789L629.338 156.123L632.506 156.165C636.869 156.165 639.19 156.095 639.468 155.956C639.662 155.901 639.996 154.664 640.468 152.246V152.121H642.136V152.246C642.108 152.33 641.927 153.594 641.594 156.04C641.26 158.485 641.052 159.764 640.968 159.875V160H625.502V159.208V158.708C625.502 158.513 625.586 158.305 625.753 158.082C625.919 157.86 626.336 157.374 627.003 156.623C627.809 155.734 628.504 154.956 629.088 154.289C629.338 154.011 629.81 153.497 630.505 152.746C631.2 151.996 631.672 151.482 631.922 151.204C632.172 150.926 632.575 150.468 633.131 149.828C633.687 149.189 634.076 148.717 634.298 148.411C634.521 148.105 634.84 147.688 635.257 147.16C635.674 146.632 635.966 146.188 636.133 145.826C636.299 145.465 636.508 145.062 636.758 144.617C637.008 144.173 637.189 143.728 637.3 143.283C637.411 142.839 637.508 142.422 637.592 142.033C637.675 141.644 637.717 141.185 637.717 140.657C637.717 138.906 637.244 137.392 636.299 136.113C635.354 134.835 634.007 134.196 632.256 134.196C631.339 134.196 630.533 134.432 629.838 134.904C629.143 135.377 628.657 135.835 628.379 136.28C628.101 136.725 627.962 136.989 627.962 137.072C627.962 137.1 628.031 137.114 628.17 137.114C628.671 137.114 629.185 137.308 629.713 137.697C630.241 138.086 630.505 138.726 630.505 139.615C630.505 140.31 630.283 140.893 629.838 141.366C629.393 141.838 628.768 142.088 627.962 142.116Z" fill="white"/>
</g>
<path id="Vector_53" d="M705.175 122.232H562.505V119.73H705.175V122.232Z" fill="white"/>
</g>
</g>
<g id="Group 103">
<g id="Group_64">
<path id="Vector_54" d="M523 218.298C523 217.937 523.195 217.659 523.584 217.464H550.138C550.555 217.687 550.764 217.965 550.764 218.298C550.764 218.604 550.569 218.868 550.18 219.09L536.923 219.132H523.667C523.222 218.993 523 218.715 523 218.298ZM523 226.385C523 225.969 523.222 225.691 523.667 225.552H550.18C550.569 225.83 550.764 226.108 550.764 226.385C550.764 226.747 550.555 227.025 550.138 227.219H523.584C523.195 227.025 523 226.747 523 226.385Z" fill="white"/>
</g>
<g id="Group_65">
<path id="Vector_55" d="M567.597 215.38C567.597 215.38 567.597 214.31 567.597 212.17C567.597 210.03 568.347 208.307 569.848 207.001C571.349 205.695 573.072 205.028 575.017 205C576.99 205 578.741 205.584 580.27 206.751C581.798 207.918 582.562 209.433 582.562 211.295C582.562 212.128 582.41 212.907 582.104 213.629C581.798 214.352 581.437 214.935 581.02 215.38C580.603 215.825 580.172 216.214 579.728 216.547C579.283 216.881 578.922 217.131 578.644 217.298C578.366 217.464 578.213 217.576 578.185 217.631L578.769 218.006C579.158 218.284 579.547 218.562 579.936 218.84C580.325 219.118 580.548 219.271 580.603 219.299C582.687 220.938 583.73 223.009 583.73 225.51C583.73 227.706 582.924 229.609 581.312 231.221C579.7 232.833 577.616 233.653 575.059 233.681C572.558 233.681 570.501 232.972 568.889 231.555C567.277 230.137 566.471 228.386 566.471 226.302C566.471 223.301 568.264 220.799 571.849 218.798L571.098 218.256C570.515 217.895 570.14 217.617 569.973 217.423C568.389 216.061 567.597 214.31 567.597 212.17V215.38ZM576.601 216.672L576.851 216.506C577.018 216.394 577.143 216.311 577.226 216.256C577.31 216.2 577.449 216.103 577.643 215.964C577.838 215.825 578.005 215.686 578.144 215.547C578.283 215.408 578.435 215.241 578.602 215.047C578.769 214.852 578.922 214.671 579.061 214.505C579.2 214.338 579.339 214.116 579.478 213.838C579.617 213.56 579.742 213.324 579.853 213.129C579.964 212.934 580.033 212.657 580.061 212.295C580.089 211.934 580.117 211.628 580.145 211.378C580.145 210.183 579.742 209.169 578.936 208.335C578.13 207.501 577.199 206.973 576.143 206.751C575.948 206.723 575.49 206.709 574.767 206.709C573.627 206.709 572.558 207.07 571.557 207.793C570.557 208.516 570.042 209.419 570.015 210.503C570.015 211.142 570.195 211.726 570.557 212.254C570.918 212.782 571.279 213.185 571.64 213.462C572.002 213.74 572.696 214.185 573.725 214.796C573.919 214.935 574.072 215.033 574.183 215.088L576.601 216.672ZM575.1 231.888C576.712 231.888 578.102 231.416 579.269 230.471C580.436 229.526 581.02 228.386 581.02 227.052C581.02 226.58 580.951 226.135 580.812 225.718C580.673 225.302 580.506 224.954 580.311 224.676C580.117 224.398 579.811 224.093 579.394 223.759C578.977 223.426 578.658 223.176 578.435 223.009C578.213 222.842 577.81 222.578 577.226 222.217C576.643 221.855 576.268 221.619 576.101 221.508C575.712 221.258 575.295 220.994 574.85 220.716C574.406 220.438 574.044 220.202 573.766 220.007L573.433 219.799C573.266 219.799 572.863 220.035 572.224 220.508C571.585 220.98 570.918 221.744 570.223 222.8C569.528 223.856 569.167 224.996 569.139 226.219C569.139 227.858 569.737 229.206 570.932 230.262C572.127 231.318 573.516 231.86 575.1 231.888Z" fill="white"/>
<path id="Vector_56" d="M590.066 214.88C589.316 214.88 588.718 214.63 588.273 214.129C587.829 213.629 587.606 213.018 587.606 212.295C587.606 210.322 588.343 208.613 589.816 207.168C591.289 205.723 593.123 205 595.319 205C597.848 205 599.96 205.778 601.655 207.334C603.35 208.891 604.212 210.906 604.24 213.379C604.24 214.574 603.962 215.714 603.406 216.797C602.85 217.881 602.183 218.826 601.405 219.632C600.627 220.438 599.515 221.466 598.07 222.717C597.069 223.579 595.68 224.857 593.901 226.552L591.442 228.887L594.61 228.928C598.973 228.928 601.294 228.859 601.572 228.72C601.766 228.664 602.1 227.428 602.572 225.01V224.885H604.24V225.01C604.212 225.093 604.031 226.358 603.698 228.803C603.364 231.249 603.156 232.527 603.072 232.639V232.764H587.606V231.972V231.471C587.606 231.277 587.69 231.068 587.857 230.846C588.023 230.624 588.44 230.137 589.107 229.387C589.913 228.498 590.608 227.719 591.192 227.052C591.442 226.775 591.914 226.26 592.609 225.51C593.304 224.76 593.776 224.246 594.026 223.968C594.276 223.69 594.679 223.231 595.235 222.592C595.791 221.953 596.18 221.48 596.402 221.175C596.625 220.869 596.944 220.452 597.361 219.924C597.778 219.396 598.07 218.951 598.237 218.59C598.403 218.229 598.612 217.826 598.862 217.381C599.112 216.936 599.293 216.492 599.404 216.047C599.515 215.602 599.612 215.186 599.696 214.796C599.779 214.407 599.821 213.949 599.821 213.421C599.821 211.67 599.348 210.155 598.403 208.877C597.458 207.598 596.111 206.959 594.36 206.959C593.443 206.959 592.637 207.196 591.942 207.668C591.247 208.14 590.761 208.599 590.483 209.044C590.205 209.488 590.066 209.752 590.066 209.836C590.066 209.863 590.135 209.877 590.274 209.877C590.775 209.877 591.289 210.072 591.817 210.461C592.345 210.85 592.609 211.489 592.609 212.379C592.609 213.073 592.387 213.657 591.942 214.129C591.497 214.602 590.872 214.852 590.066 214.88Z" fill="white"/>
<path id="Vector_57" d="M610.368 208.377C611.924 206.126 614.05 205 616.746 205C618.08 205 619.414 205.361 620.748 206.084C622.082 206.806 623.166 208.085 624 209.919C625.028 212.226 625.542 215.394 625.542 219.424C625.542 223.731 624.944 227.025 623.749 229.304C623.194 230.471 622.429 231.402 621.457 232.097C620.484 232.791 619.636 233.222 618.914 233.389C618.191 233.556 617.482 233.653 616.788 233.681C616.065 233.681 615.343 233.597 614.62 233.431C613.897 233.264 613.05 232.819 612.077 232.097C611.104 231.374 610.34 230.443 609.784 229.304C608.589 227.025 607.992 223.731 607.992 219.424C607.992 214.588 608.784 210.906 610.368 208.377ZM619.747 207.876C618.914 206.987 617.927 206.542 616.788 206.542C615.62 206.542 614.62 206.987 613.786 207.876C613.091 208.599 612.633 209.599 612.411 210.878C612.188 212.156 612.077 214.824 612.077 218.882C612.077 223.273 612.188 226.163 612.411 227.553C612.633 228.942 613.133 230.04 613.911 230.846C614.689 231.68 615.648 232.097 616.788 232.097C617.899 232.097 618.844 231.68 619.622 230.846C620.428 230.012 620.929 228.845 621.123 227.344C621.318 225.844 621.429 223.023 621.457 218.882C621.457 214.852 621.345 212.198 621.123 210.92C620.901 209.641 620.442 208.627 619.747 207.876Z" fill="white"/>
</g>
</g>
</g>
</g>
</g>
</svg>
