<svg viewBox="0 0 777 638" fill="none" xmlns="http://www.w3.org/2000/svg">
<g id="0127201">
<g id="Group 73">
<g id="Group 72">
<path id="Polygon 1 (Stroke)" fill-rule="evenodd" clip-rule="evenodd" d="M231.212 0L54 340H777L231.212 0ZM233.15 7.09847L62.2444 335H759.517L233.15 7.09847Z" fill="white"/>
<path id="Line 1 (Stroke)" fill-rule="evenodd" clip-rule="evenodd" d="M362.212 340L232.322 4.34259L237.073 2.7851L366.963 338.443L362.212 340Z" fill="white"/>
<path id="Line 2 (Stroke)" fill-rule="evenodd" clip-rule="evenodd" d="M197.907 70.7588L767.979 334.891L766.06 338.4L195.987 74.2682L197.907 70.7588Z" fill="white"/>
<path id="Line 3 (Stroke)" fill-rule="evenodd" clip-rule="evenodd" d="M160.161 131.555L767.979 334.891L766.51 338.611L158.691 135.276L160.161 131.555Z" fill="white"/>
<path id="Line 4 (Stroke)" fill-rule="evenodd" clip-rule="evenodd" d="M122.32 209.624L767.979 334.891L767.086 338.79L121.427 213.523L122.32 209.624Z" fill="white"/>
<path id="Line 5 (Stroke)" fill-rule="evenodd" clip-rule="evenodd" d="M91.3299 272.051L767.979 334.891L767.543 338.867L90.894 276.027L91.3299 272.051Z" fill="white"/>
</g>
<path id="1" d="M45.9805 311H41.2539V288.168L34.2812 290.551V286.547L45.375 282.465H45.9805V311Z" fill="white"/>
<path id="2" d="M75.25 242H56.1289V238.738L65.6016 228.406C66.9688 226.883 67.9388 225.613 68.5117 224.598C69.0977 223.569 69.3906 222.54 69.3906 221.512C69.3906 220.158 69.0065 219.064 68.2383 218.23C67.4831 217.397 66.4609 216.98 65.1719 216.98C63.6354 216.98 62.444 217.449 61.5977 218.387C60.7513 219.324 60.3281 220.607 60.3281 222.234H55.582C55.582 220.503 55.9727 218.947 56.7539 217.566C57.5482 216.173 58.6745 215.092 60.1328 214.324C61.6042 213.556 63.2969 213.172 65.2109 213.172C67.9714 213.172 70.1458 213.868 71.7344 215.262C73.3359 216.642 74.1367 218.556 74.1367 221.004C74.1367 222.423 73.7331 223.914 72.9258 225.477C72.1315 227.026 70.8229 228.79 69 230.77L62.0469 238.211H75.25V242Z" fill="white"/>
<path id="3" d="M98.6172 155.613H101.508C102.966 155.6 104.118 155.223 104.965 154.48C105.824 153.738 106.254 152.664 106.254 151.258C106.254 149.904 105.896 148.855 105.18 148.113C104.477 147.358 103.396 146.98 101.938 146.98C100.661 146.98 99.6133 147.352 98.793 148.094C97.9727 148.823 97.5625 149.78 97.5625 150.965H92.8164C92.8164 149.507 93.2005 148.178 93.9688 146.98C94.75 145.783 95.8307 144.852 97.2109 144.188C98.6042 143.51 100.16 143.172 101.879 143.172C104.717 143.172 106.944 143.888 108.559 145.32C110.186 146.74 111 148.719 111 151.258C111 152.534 110.59 153.738 109.77 154.871C108.962 155.991 107.914 156.837 106.625 157.41C108.188 157.944 109.372 158.784 110.18 159.93C111 161.076 111.41 162.443 111.41 164.031C111.41 166.583 110.531 168.615 108.773 170.125C107.029 171.635 104.73 172.391 101.879 172.391C99.1445 172.391 96.9049 171.661 95.1602 170.203C93.4154 168.745 92.543 166.805 92.543 164.383H97.2891C97.2891 165.633 97.7057 166.648 98.5391 167.43C99.3854 168.211 100.518 168.602 101.938 168.602C103.409 168.602 104.568 168.211 105.414 167.43C106.26 166.648 106.684 165.516 106.684 164.031C106.684 162.534 106.241 161.382 105.355 160.574C104.47 159.767 103.155 159.363 101.41 159.363H98.6172V155.613Z" fill="white"/>
<path id="4" d="M140.184 89.8633H143.719V93.6719H140.184V100H135.438V93.6719H123.152L123.016 90.7812L135.281 71.5625H140.184V89.8633ZM127.996 89.8633H135.438V77.9883L135.086 78.6133L127.996 89.8633Z" fill="white"/>
<path id="5" d="M171.398 16.8984L172.941 2.5625H188.215V6.66406H176.887L176.105 13.4609C177.421 12.7057 178.905 12.3281 180.559 12.3281C183.267 12.3281 185.37 13.194 186.867 14.9258C188.378 16.6576 189.133 18.9883 189.133 21.918C189.133 24.8086 188.299 27.1133 186.633 28.832C184.966 30.5378 182.681 31.3906 179.777 31.3906C177.173 31.3906 175.012 30.6549 173.293 29.1836C171.587 27.6992 170.663 25.7461 170.52 23.3242H175.109C175.292 24.7044 175.786 25.7656 176.594 26.5078C177.401 27.237 178.456 27.6016 179.758 27.6016C181.216 27.6016 182.349 27.0807 183.156 26.0391C183.977 24.9974 184.387 23.5781 184.387 21.7812C184.387 20.0495 183.938 18.6823 183.039 17.6797C182.141 16.6641 180.904 16.1562 179.328 16.1562C178.469 16.1562 177.74 16.2734 177.141 16.5078C176.542 16.7292 175.891 17.1719 175.188 17.8359L171.398 16.8984Z" fill="white"/>
<path id="1_2" d="M79.9805 397H75.2539V374.168L68.2812 376.551V372.547L79.375 368.465H79.9805V397Z" fill="#13EBF9"/>
<path id="2_2" d="M371.25 397H352.129V393.738L361.602 383.406C362.969 381.883 363.939 380.613 364.512 379.598C365.098 378.569 365.391 377.54 365.391 376.512C365.391 375.158 365.007 374.064 364.238 373.23C363.483 372.397 362.461 371.98 361.172 371.98C359.635 371.98 358.444 372.449 357.598 373.387C356.751 374.324 356.328 375.607 356.328 377.234H351.582C351.582 375.503 351.973 373.947 352.754 372.566C353.548 371.173 354.674 370.092 356.133 369.324C357.604 368.556 359.297 368.172 361.211 368.172C363.971 368.172 366.146 368.868 367.734 370.262C369.336 371.642 370.137 373.556 370.137 376.004C370.137 377.423 369.733 378.914 368.926 380.477C368.132 382.026 366.823 383.79 365 385.77L358.047 393.211H371.25V397Z" fill="#13EBF9"/>
</g>
<g id="\#T_1=\frac{5 \times 6}{2}=15">
<g id="Group">
<g id="Group_2">
<path id="Vector" d="M0 491.157C0 490.772 0.207101 490.476 0.621302 490.269H11.4053L13.2692 483.302C14.4231 478.805 15.1035 476.408 15.3107 476.112C15.4586 475.876 15.6805 475.757 15.9763 475.757C16.5089 475.757 16.8047 476.024 16.8639 476.556C16.8639 476.675 16.2722 478.953 15.0888 483.391C13.8757 487.769 13.2692 490.033 13.2692 490.18L13.2249 490.269H21.6124L23.4763 483.302C24.6893 478.716 25.355 476.334 25.4734 476.157C25.6509 475.891 25.8876 475.757 26.1834 475.757C26.3905 475.757 26.5828 475.831 26.7604 475.979C26.9379 476.127 27.0266 476.29 27.0266 476.467C27.0266 476.763 26.4497 479.071 25.2959 483.391C24.0828 487.769 23.4763 490.033 23.4763 490.18L23.432 490.269H31.3314C31.7751 490.506 31.997 490.802 31.997 491.157C31.997 491.541 31.8491 491.778 31.5533 491.867C31.2574 491.956 30.5917 492.015 29.5562 492.044H27.1154H22.8994L22.0118 495.417L21.0799 498.834C21.0799 498.864 22.7959 498.879 26.2278 498.879H29.4675C30.5325 498.879 31.213 498.923 31.5089 499.012C31.8047 499.101 31.9675 499.352 31.997 499.766C32.0266 500.18 31.8047 500.476 31.3314 500.654H20.5473L18.6834 507.621C17.4704 512.207 16.8047 514.589 16.6864 514.766C16.5089 515.033 16.2722 515.166 15.9763 515.166C15.7692 515.166 15.5769 515.092 15.3994 514.944C15.2219 514.796 15.1331 514.618 15.1331 514.411C15.1331 514.115 15.7101 511.808 16.8639 507.488C18.0769 503.169 18.6834 500.92 18.6834 500.743L18.7278 500.654H10.3402L8.47633 507.621C7.26331 512.207 6.59763 514.589 6.47929 514.766C6.30177 515.033 6.06509 515.166 5.76923 515.166C5.56213 515.166 5.36982 515.092 5.19231 514.944C5.01479 514.796 4.92604 514.618 4.92604 514.411C4.92604 514.115 5.50296 511.808 6.6568 507.488C7.86982 503.169 8.47633 500.92 8.47633 500.743L8.52071 500.654H0.621302C0.207101 500.447 0 500.151 0 499.766C0 499.322 0.236686 499.027 0.710059 498.879H9.05325L9.94083 495.506L10.8728 492.089C10.8728 492.059 9.1716 492.044 5.76923 492.044H0.710059C0.236686 491.896 0 491.601 0 491.157ZM21.0799 492.089C21.0799 492.059 19.6893 492.044 16.9083 492.044H12.6923L11.8047 495.417L10.8728 498.834C10.8728 498.864 12.2633 498.879 15.0444 498.879H19.2604L20.1479 495.506L21.0799 492.089Z" fill="white"/>
</g>
<g id="Group_3">
<g id="Group_4">
<path id="Vector_2" d="M36.2574 487.163C35.6952 487.163 35.4142 487.044 35.4142 486.808C35.4142 486.66 35.6509 485.831 36.1242 484.322C36.5976 482.814 37.1006 481.32 37.6331 479.84L38.3876 477.666C38.5355 477.133 38.7278 476.749 38.9645 476.512H59.7337H63.7278C64.6745 476.512 65.2367 476.527 65.4142 476.556C65.5917 476.586 65.6952 476.719 65.7248 476.956C65.7248 477.133 65.4734 478.82 64.9704 482.015C64.4674 485.21 64.1864 486.822 64.1272 486.852C64.1272 487.059 63.8461 487.163 63.284 487.163C63.0177 487.163 62.8402 487.163 62.7515 487.163C62.6627 487.163 62.5739 487.089 62.4852 486.941L62.3964 486.808C62.3964 486.63 62.4852 485.964 62.6627 484.811C62.8402 483.657 62.929 482.754 62.929 482.104C62.929 481.068 62.7367 480.284 62.3521 479.751C61.9674 479.219 61.1538 478.849 59.9112 478.642C59.7633 478.612 58.9053 478.583 57.3373 478.553C55.9763 478.553 55.1183 478.568 54.7633 478.598C54.4083 478.627 54.142 478.746 53.9645 478.953C53.9349 478.982 52.8846 483.109 50.8136 491.334C48.7426 499.559 47.7071 503.746 47.7071 503.893C47.7071 504.249 49.0089 504.456 51.6124 504.515C52.5592 504.515 53.1657 504.53 53.4319 504.559C53.6982 504.589 53.8313 504.722 53.8313 504.959C53.8313 505.107 53.787 505.314 53.6982 505.58C53.5799 506.112 53.4467 506.423 53.2988 506.512L53.21 506.556C53.1213 506.556 53.0177 506.556 52.8994 506.556C52.7515 506.556 51.9822 506.541 50.5917 506.512C49.2012 506.482 47.2041 506.467 44.6006 506.467C40.784 506.467 38.358 506.497 37.3225 506.556H36.6568C36.4793 506.379 36.3905 506.246 36.3905 506.157C36.3905 506.068 36.4201 505.802 36.4793 505.358C36.5976 504.973 36.7455 504.692 36.9231 504.515H38.1657H38.6538C41.0207 504.515 42.426 504.382 42.8698 504.115C42.8994 504.086 42.929 504.071 42.9586 504.071C43.1065 503.982 43.2544 503.686 43.4024 503.183C43.5503 502.68 44.142 500.358 45.1775 496.216C45.6805 494.204 46.0947 492.562 46.4201 491.29C48.4911 483.154 49.5266 478.997 49.5266 478.82C49.5266 478.672 49.0976 478.598 48.2396 478.598H46.8639C44.8816 478.598 43.5799 478.686 42.9586 478.864C41.6272 479.16 40.5917 479.766 39.8521 480.683C39.1124 481.601 38.3136 483.317 37.4556 485.831C37.2485 486.482 37.1006 486.867 37.0118 486.985C36.9231 487.104 36.716 487.163 36.3905 487.163H36.2574Z" fill="white"/>
</g>
<g id="Group_5">
<path id="Vector_3" d="M67.0824 495.078L66.6745 495.235C66.3817 495.339 65.9633 495.444 65.4195 495.548C64.8756 495.653 64.269 495.726 63.5997 495.768H63.0035V494.325H63.5997C64.5828 494.283 65.4927 494.126 66.3294 493.854C67.1661 493.582 67.7517 493.331 68.0864 493.101C68.4211 492.871 68.7139 492.641 68.9649 492.411C69.0068 492.348 69.1323 492.317 69.3414 492.317C69.5297 492.317 69.7075 492.38 69.8748 492.505V501.886L69.9062 511.299C70.0526 511.446 70.1781 511.54 70.2827 511.581C70.3873 511.623 70.6383 511.665 71.0357 511.707C71.4332 511.749 72.0816 511.77 72.981 511.77H73.7968V513.213H73.4517C73.0124 513.15 71.3495 513.119 68.4629 513.119C65.6182 513.119 63.9762 513.15 63.5369 513.213H63.1604V511.77H63.9762C64.4364 511.77 64.8338 511.77 65.1685 511.77C65.5031 511.77 65.7646 511.759 65.9529 511.738C66.1411 511.717 66.3085 511.686 66.4549 511.644C66.6013 511.602 66.685 511.581 66.7059 511.581C66.7268 511.581 66.7895 511.529 66.8941 511.425C66.9987 511.32 67.0615 511.278 67.0824 511.299V495.078Z" fill="white"/>
</g>
</g>
<g id="Group_6">
<path id="Vector_4" d="M93.1198 491.157C93.1198 490.772 93.3269 490.476 93.7411 490.269H122.01C122.454 490.506 122.676 490.802 122.676 491.157C122.676 491.482 122.469 491.763 122.055 492L107.942 492.044H93.8299C93.3565 491.896 93.1198 491.601 93.1198 491.157ZM93.1198 499.766C93.1198 499.322 93.3565 499.027 93.8299 498.879H122.055C122.469 499.175 122.676 499.47 122.676 499.766C122.676 500.151 122.454 500.447 122.01 500.654H93.7411C93.3269 500.447 93.1198 500.151 93.1198 499.766Z" fill="white"/>
</g>
<g id="Group_7">
<g id="Group_8">
<g id="Group_9">
<path id="Vector_5" d="M154.531 469.589C154.531 470.299 154.294 470.891 153.821 471.364C153.348 471.837 152.771 472.074 152.09 472.074H151.78C153.141 474.411 154.945 475.58 157.194 475.58C159.265 475.58 160.774 474.692 161.72 472.917C162.283 471.941 162.564 470.047 162.564 467.237C162.564 464.189 162.164 462.133 161.365 461.068C160.596 460.092 159.738 459.604 158.791 459.604H158.525C156.217 459.604 154.472 460.609 153.288 462.621C153.17 462.828 153.067 462.947 152.978 462.976C152.889 463.006 152.667 463.036 152.312 463.065C151.809 463.065 151.528 462.976 151.469 462.799C151.41 462.68 151.38 460.092 151.38 455.033V449.308C151.38 447.828 151.454 447.089 151.602 447.089C151.661 447.03 151.72 447 151.78 447C151.809 447 152.12 447.118 152.712 447.355C153.303 447.592 154.117 447.828 155.152 448.065C156.188 448.302 157.297 448.42 158.481 448.42C160.581 448.42 162.593 448.006 164.516 447.178C164.753 447.059 164.945 447 165.093 447C165.33 447 165.448 447.266 165.448 447.799V448.376C163.022 451.246 159.99 452.68 156.351 452.68C155.433 452.68 154.605 452.592 153.865 452.414L153.422 452.325V459.959C153.984 459.544 154.427 459.219 154.753 458.982C155.078 458.746 155.611 458.509 156.351 458.272C157.09 458.036 157.845 457.917 158.614 457.917C161.01 457.917 163.037 458.879 164.694 460.802C166.351 462.725 167.179 465.003 167.179 467.636C167.179 470.358 166.232 472.68 164.339 474.604C162.445 476.527 160.138 477.503 157.416 477.533C155.019 477.533 153.096 476.734 151.646 475.136C150.197 473.538 149.472 471.734 149.472 469.722C149.472 469.012 149.635 468.45 149.96 468.036C150.285 467.621 150.626 467.355 150.981 467.237C151.336 467.118 151.676 467.059 152.001 467.059C152.741 467.059 153.348 467.311 153.821 467.814C154.294 468.317 154.531 468.908 154.531 469.589Z" fill="white"/>
</g>
<g id="Group_10">
<path id="Vector_6" d="M207.262 475.269C207.262 475.861 206.951 476.157 206.33 476.157C206.182 476.157 205.856 475.92 205.354 475.447C204.851 474.973 203.46 473.598 201.182 471.32L196.567 466.704L191.907 471.364C188.771 474.441 187.158 476.009 187.07 476.068C186.951 476.127 186.848 476.157 186.759 476.157C186.522 476.157 186.315 476.068 186.138 475.891C185.96 475.713 185.856 475.506 185.827 475.269C185.827 475.062 186.034 474.737 186.448 474.293C186.862 473.849 188.253 472.444 190.62 470.077L195.235 465.462L190.62 460.846C188.223 458.45 186.833 457.044 186.448 456.63C186.064 456.216 185.856 455.891 185.827 455.654C185.827 455.388 185.916 455.18 186.093 455.033C186.271 454.885 186.493 454.811 186.759 454.811C186.907 454.811 187.01 454.825 187.07 454.855C187.158 454.914 188.771 456.482 191.907 459.559L196.567 464.219L201.182 459.604C203.46 457.325 204.851 455.95 205.354 455.476C205.856 455.003 206.182 454.766 206.33 454.766C206.951 454.766 207.262 455.062 207.262 455.654C207.262 455.861 207.114 456.127 206.818 456.453C206.522 456.778 205.072 458.228 202.469 460.802L197.854 465.462L202.469 470.121C204.954 472.607 206.374 474.041 206.729 474.426C207.084 474.811 207.262 475.092 207.262 475.269Z" fill="white"/>
</g>
<g id="Group_11">
<path id="Vector_7" d="M225.555 462.666C225.555 457.843 226.753 454.027 229.149 451.216C231.546 448.405 234.209 447 237.138 447C239.179 447 240.643 447.533 241.531 448.598C242.419 449.663 242.862 450.846 242.862 452.148C242.862 452.888 242.655 453.479 242.241 453.923C241.827 454.367 241.25 454.589 240.51 454.589C239.83 454.589 239.268 454.382 238.824 453.967C238.38 453.553 238.158 452.976 238.158 452.237C238.158 450.935 238.854 450.151 240.244 449.885C239.593 449.234 238.676 448.864 237.493 448.775C235.392 448.775 233.661 449.663 232.3 451.438C230.91 453.391 230.214 456.379 230.214 460.402L230.259 460.58C230.407 460.402 230.525 460.21 230.614 460.003C231.827 458.228 233.41 457.34 235.362 457.34H235.54C236.901 457.34 238.099 457.621 239.135 458.183C239.845 458.598 240.555 459.189 241.265 459.959C241.975 460.728 242.552 461.571 242.996 462.488C243.617 463.938 243.927 465.521 243.927 467.237V468.035C243.927 468.716 243.854 469.352 243.706 469.944C243.38 471.689 242.433 473.391 240.865 475.047C239.297 476.704 237.315 477.533 234.919 477.533C234.09 477.533 233.291 477.414 232.522 477.178C231.753 476.941 230.925 476.497 230.037 475.846C229.149 475.195 228.395 474.322 227.774 473.228C227.152 472.133 226.62 470.698 226.176 468.923C225.732 467.148 225.525 465.062 225.555 462.666ZM235.096 458.938C234.209 458.938 233.439 459.189 232.788 459.692C232.138 460.195 231.635 460.861 231.28 461.689C230.925 462.518 230.673 463.361 230.525 464.219C230.377 465.077 230.288 465.994 230.259 466.97C230.259 469.426 230.436 471.186 230.791 472.251C231.146 473.317 231.709 474.175 232.478 474.825C233.188 475.358 233.972 475.624 234.83 475.624C236.339 475.624 237.493 475.062 238.291 473.938C238.676 473.405 238.942 472.74 239.09 471.941C239.238 471.142 239.312 469.589 239.312 467.281C239.312 464.914 239.238 463.331 239.09 462.533C238.942 461.734 238.676 461.068 238.291 460.535C237.493 459.47 236.427 458.938 235.096 458.938Z" fill="white"/>
</g>
</g>
<g id="Group_12">
<path id="Vector_8" d="M190.309 517.962C189.51 517.962 188.874 517.695 188.401 517.163C187.927 516.63 187.691 515.979 187.691 515.21C187.691 513.109 188.475 511.29 190.043 509.751C191.611 508.213 193.564 507.444 195.901 507.444C198.593 507.444 200.842 508.272 202.646 509.929C204.451 511.586 205.368 513.731 205.398 516.364C205.398 517.636 205.102 518.849 204.51 520.003C203.919 521.157 203.209 522.163 202.38 523.021C201.552 523.879 200.368 524.973 198.83 526.305C197.765 527.222 196.285 528.583 194.392 530.388L191.774 532.873L195.146 532.917C199.791 532.917 202.262 532.843 202.558 532.695C202.765 532.636 203.12 531.32 203.623 528.746V528.612H205.398V528.746C205.368 528.834 205.176 530.18 204.821 532.784C204.466 535.388 204.244 536.749 204.155 536.867V537H187.691V536.157V535.624C187.691 535.417 187.78 535.195 187.957 534.959C188.135 534.722 188.578 534.204 189.288 533.405C190.146 532.459 190.886 531.63 191.507 530.92C191.774 530.624 192.277 530.077 193.016 529.278C193.756 528.479 194.259 527.932 194.525 527.636C194.791 527.34 195.22 526.852 195.812 526.172C196.404 525.491 196.818 524.988 197.055 524.663C197.291 524.337 197.632 523.893 198.075 523.331C198.519 522.769 198.83 522.296 199.007 521.911C199.185 521.527 199.407 521.098 199.673 520.624C199.939 520.151 200.132 519.678 200.25 519.204C200.368 518.731 200.472 518.287 200.561 517.873C200.649 517.459 200.694 516.97 200.694 516.408C200.694 514.544 200.191 512.932 199.185 511.571C198.179 510.21 196.744 509.53 194.88 509.53C193.904 509.53 193.046 509.781 192.306 510.284C191.567 510.787 191.049 511.275 190.753 511.749C190.457 512.222 190.309 512.503 190.309 512.592C190.309 512.621 190.383 512.636 190.531 512.636C191.064 512.636 191.611 512.843 192.173 513.257C192.735 513.672 193.016 514.352 193.016 515.299C193.016 516.038 192.78 516.66 192.306 517.163C191.833 517.666 191.167 517.932 190.309 517.962Z" fill="white"/>
</g>
<path id="Vector_9" d="M250.318 496.793H142.815V494.13H250.318V496.793Z" fill="white"/>
</g>
<g id="Group_13">
<path id="Vector_10" d="M270.457 491.157C270.457 490.772 270.664 490.476 271.078 490.269H299.348C299.791 490.506 300.013 490.802 300.013 491.157C300.013 491.482 299.806 491.763 299.392 492L285.28 492.044H271.167C270.694 491.896 270.457 491.601 270.457 491.157ZM270.457 499.766C270.457 499.322 270.694 499.027 271.167 498.879H299.392C299.806 499.175 300.013 499.47 300.013 499.766C300.013 500.151 299.791 500.447 299.348 500.654H271.078C270.664 500.447 270.457 500.151 270.457 499.766Z" fill="white"/>
</g>
<g id="Group_14">
<path id="Vector_11" d="M324.28 480.905L323.703 481.127C323.288 481.275 322.697 481.423 321.927 481.571C321.158 481.719 320.3 481.822 319.354 481.882H318.51V479.84H319.354C320.744 479.781 322.031 479.559 323.214 479.175C324.398 478.79 325.226 478.435 325.7 478.109C326.173 477.784 326.587 477.459 326.942 477.133C327.001 477.044 327.179 477 327.475 477C327.741 477 327.993 477.089 328.229 477.266V490.535L328.274 503.849C328.481 504.056 328.658 504.189 328.806 504.249C328.954 504.308 329.309 504.367 329.871 504.426C330.433 504.485 331.351 504.515 332.623 504.515H333.777V506.556H333.288C332.667 506.467 330.315 506.423 326.232 506.423C322.209 506.423 319.886 506.467 319.265 506.556H318.732V504.515H319.886C320.537 504.515 321.099 504.515 321.572 504.515C322.046 504.515 322.416 504.5 322.682 504.47C322.948 504.441 323.185 504.396 323.392 504.337C323.599 504.278 323.717 504.249 323.747 504.249C323.777 504.249 323.865 504.175 324.013 504.027C324.161 503.879 324.25 503.82 324.28 503.849V480.905Z" fill="white"/>
<path id="Vector_12" d="M344.294 499.589C344.294 500.299 344.058 500.891 343.584 501.364C343.111 501.837 342.534 502.074 341.853 502.074H341.543C342.904 504.411 344.708 505.58 346.957 505.58C349.028 505.58 350.537 504.692 351.484 502.917C352.046 501.941 352.327 500.047 352.327 497.237C352.327 494.189 351.927 492.133 351.129 491.068C350.359 490.092 349.501 489.604 348.555 489.604H348.288C345.981 489.604 344.235 490.609 343.052 492.621C342.933 492.828 342.83 492.947 342.741 492.976C342.652 493.006 342.43 493.036 342.075 493.065C341.572 493.065 341.291 492.976 341.232 492.799C341.173 492.68 341.143 490.092 341.143 485.033V479.308C341.143 477.828 341.217 477.089 341.365 477.089C341.424 477.03 341.484 477 341.543 477C341.572 477 341.883 477.118 342.475 477.355C343.066 477.592 343.88 477.828 344.916 478.065C345.951 478.302 347.061 478.42 348.244 478.42C350.345 478.42 352.356 478.006 354.279 477.178C354.516 477.059 354.708 477 354.856 477C355.093 477 355.211 477.266 355.211 477.799V478.376C352.785 481.246 349.753 482.68 346.114 482.68C345.197 482.68 344.368 482.592 343.629 482.414L343.185 482.325V489.959C343.747 489.544 344.191 489.219 344.516 488.982C344.842 488.746 345.374 488.509 346.114 488.272C346.853 488.036 347.608 487.917 348.377 487.917C350.774 487.917 352.8 488.879 354.457 490.802C356.114 492.725 356.942 495.003 356.942 497.636C356.942 500.358 355.995 502.68 354.102 504.604C352.208 506.527 349.901 507.503 347.179 507.533C344.782 507.533 342.859 506.734 341.41 505.136C339.96 503.538 339.235 501.734 339.235 499.722C339.235 499.012 339.398 498.45 339.723 498.036C340.049 497.621 340.389 497.355 340.744 497.237C341.099 497.118 341.439 497.059 341.765 497.059C342.504 497.059 343.111 497.311 343.584 497.814C344.058 498.317 344.294 498.908 344.294 499.589Z" fill="white"/>
</g>
</g>
</g>
<g id="\#T_2=2 \times 15=30">
<g id="Group_15">
<g id="Group_16">
<path id="Vector_13" d="M8 591.24C8 590.859 8.20495 590.566 8.61486 590.361H19.2872L21.1318 583.466C22.2736 579.016 22.9471 576.644 23.152 576.351C23.2984 576.117 23.518 576 23.8108 576C24.3378 576 24.6306 576.264 24.6892 576.791C24.6892 576.908 24.1036 579.162 22.9324 583.554C21.732 587.887 21.1318 590.127 21.1318 590.274L21.0878 590.361H29.3885L31.2331 583.466C32.4336 578.928 33.0923 576.571 33.2095 576.395C33.3851 576.132 33.6194 576 33.9122 576C34.1171 576 34.3074 576.073 34.4831 576.22C34.6588 576.366 34.7466 576.527 34.7466 576.703C34.7466 576.995 34.1757 579.279 33.0338 583.554C31.8333 587.887 31.2331 590.127 31.2331 590.274L31.1892 590.361H39.0068C39.4459 590.596 39.6655 590.889 39.6655 591.24C39.6655 591.62 39.5191 591.855 39.2263 591.943C38.9336 592.03 38.2748 592.089 37.25 592.118H34.8345H30.6622L29.7838 595.456L28.8615 598.838C28.8615 598.867 30.5597 598.882 33.9561 598.882H37.1622C38.2162 598.882 38.8896 598.926 39.1824 599.014C39.4752 599.101 39.6363 599.35 39.6655 599.76C39.6948 600.17 39.4752 600.463 39.0068 600.639H28.3345L26.4899 607.534C25.2894 612.072 24.6306 614.429 24.5135 614.605C24.3378 614.868 24.1036 615 23.8108 615C23.6059 615 23.4155 614.927 23.2399 614.78C23.0642 614.634 22.9763 614.458 22.9763 614.253C22.9763 613.961 23.5473 611.677 24.6892 607.402C25.8896 603.127 26.4899 600.902 26.4899 600.726L26.5338 600.639H18.2331L16.3885 607.534C15.1881 612.072 14.5293 614.429 14.4122 614.605C14.2365 614.868 14.0023 615 13.7095 615C13.5045 615 13.3142 614.927 13.1385 614.78C12.9628 614.634 12.875 614.458 12.875 614.253C12.875 613.961 13.4459 611.677 14.5878 607.402C15.7883 603.127 16.3885 600.902 16.3885 600.726L16.4324 600.639H8.61486C8.20495 600.434 8 600.141 8 599.76C8 599.321 8.23423 599.028 8.7027 598.882H16.9595L17.8378 595.544L18.7601 592.162C18.7601 592.133 17.0766 592.118 13.7095 592.118H8.7027C8.23423 591.972 8 591.679 8 591.24ZM28.8615 592.162C28.8615 592.133 27.4854 592.118 24.7331 592.118H20.5608L19.6824 595.456L18.7601 598.838C18.7601 598.867 20.1363 598.882 22.8885 598.882H27.0608L27.9392 595.544L28.8615 592.162Z" fill="white"/>
</g>
<g id="Group_17">
<g id="Group_18">
<path id="Vector_14" d="M43.8817 587.287C43.3254 587.287 43.0472 587.17 43.0472 586.936C43.0472 586.789 43.2815 585.97 43.7499 584.476C44.2184 582.983 44.7162 581.505 45.2432 580.041L45.9898 577.889C46.1362 577.361 46.3265 576.981 46.5608 576.747H67.1148H71.0675C72.0044 576.747 72.5608 576.761 72.7364 576.791C72.9121 576.82 73.0146 576.952 73.0439 577.186C73.0439 577.361 72.795 579.03 72.2972 582.193C71.7995 585.355 71.5213 586.95 71.4628 586.98C71.4628 587.185 71.1846 587.287 70.6283 587.287C70.3648 587.287 70.1891 587.287 70.1013 587.287C70.0135 587.287 69.9256 587.214 69.8378 587.068L69.7499 586.936C69.7499 586.76 69.8378 586.101 70.0135 584.959C70.1891 583.818 70.277 582.925 70.277 582.28C70.277 581.256 70.0867 580.48 69.706 579.953C69.3254 579.426 68.5202 579.06 67.2905 578.855C67.1441 578.825 66.295 578.796 64.7432 578.767C63.3963 578.767 62.5472 578.782 62.1959 578.811C61.8445 578.84 61.581 578.957 61.4053 579.162C61.3761 579.191 60.3367 583.276 58.2871 591.416C56.2376 599.555 55.2128 603.698 55.2128 603.845C55.2128 604.196 56.5011 604.401 59.0776 604.459C60.0146 604.459 60.6148 604.474 60.8783 604.503C61.1418 604.533 61.2736 604.664 61.2736 604.899C61.2736 605.045 61.2297 605.25 61.1418 605.514C61.0247 606.041 60.893 606.348 60.7466 606.436L60.6587 606.48C60.5709 606.48 60.4684 606.48 60.3513 606.48C60.2049 606.48 59.4436 606.465 58.0675 606.436C56.6914 606.407 54.715 606.392 52.1385 606.392C48.3614 606.392 45.9605 606.421 44.9358 606.48H44.277C44.1013 606.304 44.0135 606.172 44.0135 606.084C44.0135 605.997 44.0427 605.733 44.1013 605.294C44.2184 604.913 44.3648 604.635 44.5405 604.459H45.7702H46.2533C48.5957 604.459 49.9864 604.328 50.4256 604.064C50.4549 604.035 50.4842 604.02 50.5135 604.02C50.6599 603.932 50.8062 603.64 50.9526 603.142C51.099 602.644 51.6846 600.346 52.7094 596.247C53.2072 594.256 53.6171 592.631 53.9391 591.372C55.9887 583.32 57.0135 579.206 57.0135 579.03C57.0135 578.884 56.5889 578.811 55.7398 578.811H54.3783C52.4166 578.811 51.1283 578.899 50.5135 579.074C49.1959 579.367 48.1711 579.967 47.4391 580.875C46.7072 581.783 45.9166 583.481 45.0675 585.97C44.8626 586.614 44.7162 586.994 44.6283 587.111C44.5405 587.229 44.3355 587.287 44.0135 587.287H43.8817Z" fill="white"/>
</g>
<g id="Group_19">
<path id="Vector_15" d="M71.1582 599.747C70.5992 599.747 70.1542 599.561 69.823 599.188C69.4918 598.815 69.3262 598.36 69.3262 597.822C69.3262 596.352 69.8747 595.079 70.9719 594.002C72.069 592.926 73.4352 592.388 75.0705 592.388C76.9543 592.388 78.5275 592.967 79.7902 594.127C81.053 595.286 81.6947 596.787 81.7154 598.629C81.7154 599.519 81.5084 600.368 81.0944 601.175C80.6804 601.982 80.1836 602.686 79.6039 603.287C79.0243 603.887 78.1963 604.653 77.1199 605.584C76.3747 606.226 75.3397 607.178 74.0148 608.441L72.1828 610.18L74.5427 610.211C77.7927 610.211 79.5211 610.159 79.7281 610.056C79.8731 610.014 80.1215 609.093 80.4734 607.292V607.199H81.7154V607.292C81.6947 607.354 81.5601 608.296 81.3117 610.118C81.0633 611.939 80.9081 612.892 80.846 612.974V613.068H69.3262V612.478V612.105C69.3262 611.96 69.3883 611.805 69.5125 611.639C69.6367 611.474 69.9472 611.111 70.444 610.552C71.0443 609.89 71.5618 609.31 71.9965 608.814C72.1828 608.607 72.5347 608.224 73.0523 607.665C73.5698 607.106 73.9217 606.723 74.108 606.516C74.2943 606.309 74.5944 605.967 75.0084 605.491C75.4225 605.015 75.7123 604.663 75.8779 604.435C76.0435 604.208 76.2815 603.897 76.592 603.504C76.9025 603.111 77.1199 602.779 77.2441 602.51C77.3683 602.241 77.5236 601.941 77.7099 601.61C77.8962 601.279 78.0307 600.947 78.1135 600.616C78.1963 600.285 78.2688 599.975 78.3309 599.685C78.393 599.395 78.424 599.053 78.424 598.66C78.424 597.356 78.0721 596.228 77.3683 595.276C76.6645 594.323 75.6605 593.847 74.3564 593.847C73.6733 593.847 73.073 594.023 72.5554 594.375C72.0379 594.727 71.6757 595.069 71.4687 595.4C71.2617 595.731 71.1582 595.928 71.1582 595.99C71.1582 596.01 71.2099 596.021 71.3134 596.021C71.686 596.021 72.069 596.166 72.4623 596.455C72.8556 596.745 73.0523 597.221 73.0523 597.884C73.0523 598.401 72.8866 598.836 72.5554 599.188C72.2242 599.54 71.7585 599.726 71.1582 599.747Z" fill="white"/>
</g>
</g>
<g id="Group_20">
<path id="Vector_16" d="M100.155 591.24C100.155 590.859 100.36 590.566 100.77 590.361H128.746C129.185 590.596 129.405 590.889 129.405 591.24C129.405 591.562 129.2 591.84 128.79 592.074L114.824 592.118H100.858C100.389 591.972 100.155 591.679 100.155 591.24ZM100.155 599.76C100.155 599.321 100.389 599.028 100.858 598.882H128.79C129.2 599.175 129.405 599.467 129.405 599.76C129.405 600.141 129.185 600.434 128.746 600.639H100.77C100.36 600.434 100.155 600.141 100.155 599.76Z" fill="white"/>
</g>
<g id="Group_21">
<path id="Vector_17" d="M148.852 587.639C148.062 587.639 147.432 587.375 146.964 586.848C146.495 586.321 146.261 585.677 146.261 584.916C146.261 582.837 147.037 581.036 148.589 579.514C150.141 577.991 152.073 577.23 154.386 577.23C157.051 577.23 159.276 578.05 161.062 579.689C162.848 581.329 163.756 583.452 163.785 586.057C163.785 587.316 163.492 588.517 162.906 589.659C162.321 590.801 161.618 591.796 160.798 592.645C159.979 593.494 158.807 594.578 157.285 595.895C156.231 596.803 154.767 598.15 152.893 599.936L150.302 602.395L153.64 602.439C158.236 602.439 160.681 602.366 160.974 602.22C161.179 602.161 161.53 600.858 162.028 598.311V598.179H163.785V598.311C163.756 598.399 163.565 599.731 163.214 602.307C162.863 604.884 162.643 606.231 162.555 606.348V606.48H146.261V605.645V605.118C146.261 604.913 146.349 604.694 146.525 604.459C146.7 604.225 147.14 603.713 147.842 602.922C148.691 601.985 149.423 601.166 150.038 600.463C150.302 600.17 150.8 599.628 151.532 598.838C152.263 598.047 152.761 597.506 153.025 597.213C153.288 596.92 153.713 596.437 154.298 595.764C154.884 595.09 155.294 594.592 155.528 594.27C155.762 593.948 156.099 593.509 156.538 592.953C156.977 592.396 157.285 591.928 157.461 591.547C157.636 591.167 157.856 590.742 158.119 590.274C158.383 589.805 158.573 589.337 158.69 588.868C158.807 588.4 158.91 587.961 158.998 587.551C159.086 587.141 159.129 586.658 159.129 586.101C159.129 584.257 158.632 582.661 157.636 581.314C156.641 579.967 155.221 579.294 153.376 579.294C152.41 579.294 151.561 579.543 150.829 580.041C150.097 580.538 149.584 581.021 149.292 581.49C148.999 581.958 148.852 582.236 148.852 582.324C148.852 582.354 148.926 582.368 149.072 582.368C149.599 582.368 150.141 582.573 150.697 582.983C151.253 583.393 151.532 584.066 151.532 585.003C151.532 585.735 151.297 586.35 150.829 586.848C150.36 587.346 149.702 587.609 148.852 587.639Z" fill="white"/>
</g>
<g id="Group_22">
<path id="Vector_18" d="M203.452 605.206C203.452 605.792 203.145 606.084 202.53 606.084C202.384 606.084 202.062 605.85 201.564 605.382C201.066 604.913 199.69 603.552 197.436 601.297L192.868 596.73L188.256 601.341C185.153 604.386 183.557 605.938 183.469 605.997C183.352 606.055 183.25 606.084 183.162 606.084C182.928 606.084 182.723 605.997 182.547 605.821C182.371 605.645 182.269 605.44 182.24 605.206C182.24 605.001 182.445 604.679 182.854 604.24C183.264 603.801 184.64 602.41 186.983 600.068L191.55 595.5L186.983 590.932C184.611 588.561 183.235 587.17 182.854 586.76C182.474 586.35 182.269 586.028 182.24 585.794C182.24 585.53 182.327 585.325 182.503 585.179C182.679 585.033 182.898 584.959 183.162 584.959C183.308 584.959 183.411 584.974 183.469 585.003C183.557 585.062 185.153 586.614 188.256 589.659L192.868 594.27L197.436 589.703C199.69 587.448 201.066 586.087 201.564 585.618C202.062 585.15 202.384 584.916 202.53 584.916C203.145 584.916 203.452 585.208 203.452 585.794C203.452 585.999 203.306 586.262 203.013 586.584C202.72 586.907 201.286 588.341 198.709 590.889L194.142 595.5L198.709 600.111C201.169 602.571 202.574 603.991 202.925 604.372C203.277 604.752 203.452 605.03 203.452 605.206Z" fill="white"/>
</g>
<g id="Group_23">
<path id="Vector_19" d="M229.07 581.095L228.499 581.314C228.089 581.461 227.504 581.607 226.742 581.753C225.981 581.9 225.132 582.002 224.195 582.061H223.361V580.041H224.195C225.571 579.982 226.845 579.762 228.016 579.382C229.187 579.001 230.007 578.65 230.476 578.328C230.944 578.006 231.354 577.684 231.705 577.361C231.764 577.274 231.94 577.23 232.232 577.23C232.496 577.23 232.745 577.318 232.979 577.493V590.625L233.023 603.801C233.228 604.006 233.404 604.137 233.55 604.196C233.696 604.254 234.048 604.313 234.604 604.372C235.16 604.43 236.068 604.459 237.327 604.459H238.469V606.48H237.986C237.371 606.392 235.043 606.348 231.003 606.348C227.021 606.348 224.722 606.392 224.107 606.48H223.58V604.459H224.722C225.366 604.459 225.923 604.459 226.391 604.459C226.86 604.459 227.226 604.445 227.489 604.416C227.753 604.386 227.987 604.342 228.192 604.284C228.397 604.225 228.514 604.196 228.543 604.196C228.572 604.196 228.66 604.123 228.807 603.976C228.953 603.83 229.041 603.771 229.07 603.801V581.095Z" fill="white"/>
<path id="Vector_20" d="M248.878 599.584C248.878 600.287 248.643 600.873 248.175 601.341C247.706 601.81 247.136 602.044 246.462 602.044H246.155C247.502 604.357 249.288 605.514 251.513 605.514C253.562 605.514 255.056 604.635 255.993 602.878C256.549 601.912 256.827 600.038 256.827 597.257C256.827 594.241 256.432 592.206 255.641 591.152C254.88 590.186 254.031 589.703 253.094 589.703H252.83C250.547 589.703 248.819 590.698 247.648 592.689C247.531 592.894 247.428 593.011 247.341 593.041C247.253 593.07 247.033 593.099 246.682 593.128C246.184 593.128 245.906 593.041 245.847 592.865C245.789 592.748 245.759 590.186 245.759 585.179V579.514C245.759 578.05 245.833 577.318 245.979 577.318C246.038 577.259 246.096 577.23 246.155 577.23C246.184 577.23 246.491 577.347 247.077 577.581C247.663 577.815 248.468 578.05 249.493 578.284C250.517 578.518 251.615 578.635 252.786 578.635C254.865 578.635 256.856 578.225 258.759 577.405C258.994 577.288 259.184 577.23 259.33 577.23C259.565 577.23 259.682 577.493 259.682 578.02V578.591C257.281 581.431 254.28 582.851 250.678 582.851C249.771 582.851 248.951 582.764 248.219 582.588L247.78 582.5V590.054C248.336 589.644 248.775 589.322 249.097 589.088C249.419 588.854 249.946 588.619 250.678 588.385C251.41 588.151 252.157 588.034 252.918 588.034C255.29 588.034 257.295 588.985 258.935 590.889C260.575 592.792 261.395 595.046 261.395 597.652C261.395 600.346 260.458 602.644 258.584 604.547C256.71 606.45 254.426 607.417 251.732 607.446C249.361 607.446 247.458 606.655 246.023 605.074C244.588 603.493 243.871 601.707 243.871 599.716C243.871 599.014 244.032 598.457 244.354 598.047C244.676 597.637 245.013 597.374 245.364 597.257C245.716 597.14 246.052 597.081 246.374 597.081C247.106 597.081 247.706 597.33 248.175 597.828C248.643 598.325 248.878 598.911 248.878 599.584Z" fill="white"/>
</g>
<g id="Group_24">
<path id="Vector_21" d="M278.29 591.24C278.29 590.859 278.495 590.566 278.905 590.361H306.881C307.321 590.596 307.54 590.889 307.54 591.24C307.54 591.562 307.335 591.84 306.925 592.074L292.959 592.118H278.993C278.524 591.972 278.29 591.679 278.29 591.24ZM278.29 599.76C278.29 599.321 278.524 599.028 278.993 598.882H306.925C307.335 599.175 307.54 599.467 307.54 599.76C307.54 600.141 307.321 600.434 306.881 600.639H278.905C278.495 600.434 278.29 600.141 278.29 599.76Z" fill="white"/>
</g>
<g id="Group_25">
<path id="Vector_22" d="M327.778 586.145C326.987 586.145 326.373 585.896 325.933 585.399C325.494 584.901 325.26 584.257 325.231 583.466C325.231 581.856 325.933 580.421 327.339 579.162C328.744 577.903 330.442 577.274 332.433 577.274C333.458 577.274 334.102 577.288 334.366 577.318C336.532 577.669 338.187 578.445 339.329 579.645C340.47 580.846 341.056 582.149 341.085 583.554C341.085 585.077 340.588 586.555 339.592 587.99C338.597 589.425 337.22 590.464 335.464 591.108L335.332 591.196C335.332 591.225 335.464 591.269 335.727 591.328C335.991 591.386 336.415 591.518 337.001 591.723C337.586 591.928 338.143 592.235 338.67 592.645C341.071 594.197 342.271 596.247 342.271 598.794C342.271 601.107 341.363 603.127 339.548 604.855C337.733 606.582 335.434 607.446 332.653 607.446C330.311 607.446 328.29 606.816 326.592 605.557C324.894 604.298 324.045 602.703 324.045 600.77C324.045 599.95 324.308 599.292 324.835 598.794C325.362 598.296 326.021 598.033 326.812 598.003C327.632 598.003 328.305 598.267 328.832 598.794C329.359 599.321 329.623 599.98 329.623 600.77C329.623 601.092 329.579 601.385 329.491 601.649C329.403 601.912 329.3 602.146 329.183 602.351C329.066 602.556 328.905 602.732 328.7 602.878C328.495 603.025 328.32 603.142 328.173 603.23C328.027 603.318 327.88 603.376 327.734 603.405C327.588 603.435 327.47 603.479 327.383 603.537L327.207 603.581C328.7 604.899 330.516 605.557 332.653 605.557C334.263 605.557 335.478 604.782 336.298 603.23C336.796 602.264 337.045 600.785 337.045 598.794V597.916C337.045 595.134 336.108 593.275 334.234 592.338C333.795 592.162 332.902 592.06 331.555 592.03L329.71 591.986L329.579 591.899C329.52 591.811 329.491 591.577 329.491 591.196C329.491 590.669 329.608 590.405 329.842 590.405C330.662 590.405 331.511 590.332 332.389 590.186C333.385 590.039 334.293 589.425 335.112 588.341C335.932 587.258 336.342 585.618 336.342 583.422V583.071C336.342 581.402 335.83 580.245 334.805 579.601C334.161 579.191 333.473 578.986 332.741 578.986C331.804 578.986 330.94 579.148 330.15 579.47C329.359 579.792 328.803 580.128 328.481 580.48C328.159 580.831 327.998 581.007 327.998 581.007H328.129C328.217 581.036 328.334 581.065 328.481 581.095C328.627 581.124 328.773 581.197 328.92 581.314C329.066 581.431 329.242 581.534 329.447 581.622C329.652 581.709 329.798 581.87 329.886 582.105C329.974 582.339 330.091 582.559 330.237 582.764C330.384 582.968 330.428 583.261 330.369 583.642C330.369 584.286 330.164 584.857 329.754 585.355C329.344 585.852 328.686 586.116 327.778 586.145Z" fill="white"/>
<path id="Vector_23" d="M348.376 580.787C350.015 578.416 352.255 577.23 355.095 577.23C356.501 577.23 357.906 577.61 359.312 578.372C360.717 579.133 361.859 580.48 362.737 582.412C363.821 584.842 364.362 588.18 364.362 592.426C364.362 596.964 363.733 600.434 362.474 602.834C361.888 604.064 361.083 605.045 360.058 605.777C359.033 606.509 358.14 606.963 357.379 607.139C356.618 607.314 355.871 607.417 355.139 607.446C354.378 607.446 353.617 607.358 352.856 607.182C352.094 607.007 351.201 606.538 350.176 605.777C349.152 605.016 348.347 604.035 347.761 602.834C346.502 600.434 345.872 596.964 345.872 592.426C345.872 587.331 346.707 583.452 348.376 580.787ZM358.258 580.26C357.379 579.323 356.34 578.855 355.139 578.855C353.91 578.855 352.856 579.323 351.977 580.26C351.245 581.021 350.762 582.075 350.528 583.422C350.294 584.769 350.176 587.58 350.176 591.855C350.176 596.481 350.294 599.526 350.528 600.99C350.762 602.454 351.289 603.61 352.109 604.459C352.929 605.338 353.939 605.777 355.139 605.777C356.31 605.777 357.306 605.338 358.126 604.459C358.975 603.581 359.502 602.351 359.707 600.77C359.912 599.189 360.029 596.217 360.058 591.855C360.058 587.609 359.941 584.813 359.707 583.466C359.473 582.119 358.99 581.051 358.258 580.26Z" fill="white"/>
</g>
</g>
</g>
<path id="Line 6 (Stroke)" fill-rule="evenodd" clip-rule="evenodd" d="M416 638V439H421V638H416Z" fill="#CD08D1"/>
<g id="Group 74">
<path id="Polygon 2" d="M231.5 0L278 108L196 70L231.5 0Z" fill="#E47209"/>
<g id="Polygon 3">
<path d="M233 0L307.5 183.5L166 135L233 0Z" fill="#19D5AD"/>
<path d="M233 0L307.5 183.5L166 135L233 0Z" fill="#19D5AD"/>
</g>
<g id="Polygon 4">
<path d="M234.5 1L332 252L124.5 212L234.5 1Z" fill="#CD08D1" fill-opacity="0.8"/>
<path d="M234.5 1L332 252L124.5 212L234.5 1Z" fill="#CD08D1" fill-opacity="0.8"/>
</g>
<g id="Polygon 5">
<path d="M234 1L352 300L90 274L234 1Z" fill="#2CF30B"/>
<path d="M234 1L352 300L90 274L234 1Z" fill="#2CF30B"/>
</g>
<g id="Polygon 6">
<path d="M232 1L366 340H58L232 1Z" fill="#0E0EC3"/>
<path d="M232 1L366 340H58L232 1Z" fill="#0E0EC3"/>
</g>
</g>
<g id="\#T=30+5=35">
<g id="Group_26">
<g id="Group_27">
<path id="Vector_24" d="M452 535.677C452 535.335 452.184 535.072 452.552 534.889H462.13L463.785 528.7C464.81 524.706 465.414 522.578 465.598 522.315C465.729 522.105 465.926 522 466.189 522C466.662 522 466.925 522.236 466.977 522.709C466.977 522.815 466.452 524.838 465.401 528.779C464.324 532.668 463.785 534.678 463.785 534.81L463.745 534.889H471.195L472.85 528.7C473.928 524.628 474.519 522.512 474.624 522.355C474.782 522.118 474.992 522 475.255 522C475.438 522 475.609 522.066 475.767 522.197C475.925 522.328 476.003 522.473 476.003 522.631C476.003 522.893 475.491 524.943 474.466 528.779C473.389 532.668 472.85 534.678 472.85 534.81L472.811 534.889H479.827C480.221 535.099 480.418 535.361 480.418 535.677C480.418 536.018 480.286 536.229 480.024 536.307C479.761 536.386 479.17 536.439 478.25 536.465H476.082H472.338L471.55 539.461L470.722 542.495C470.722 542.522 472.246 542.535 475.294 542.535H478.171C479.117 542.535 479.721 542.574 479.984 542.653C480.247 542.732 480.392 542.955 480.418 543.323C480.444 543.691 480.247 543.954 479.827 544.111H470.249L468.593 550.3C467.516 554.372 466.925 556.488 466.82 556.645C466.662 556.882 466.452 557 466.189 557C466.005 557 465.834 556.934 465.677 556.803C465.519 556.672 465.44 556.514 465.44 556.33C465.44 556.067 465.953 554.018 466.977 550.181C468.055 546.345 468.593 544.348 468.593 544.19L468.633 544.111H461.184L459.528 550.3C458.451 554.372 457.86 556.488 457.755 556.645C457.597 556.882 457.387 557 457.124 557C456.94 557 456.769 556.934 456.611 556.803C456.454 556.672 456.375 556.514 456.375 556.33C456.375 556.067 456.887 554.018 457.912 550.181C458.989 546.345 459.528 544.348 459.528 544.19L459.568 544.111H452.552C452.184 543.928 452 543.665 452 543.323C452 542.929 452.21 542.666 452.631 542.535H460.041L460.829 539.539L461.657 536.505C461.657 536.478 460.146 536.465 457.124 536.465H452.631C452.21 536.334 452 536.071 452 535.677ZM470.722 536.505C470.722 536.478 469.487 536.465 467.017 536.465H463.273L462.484 539.461L461.657 542.495C461.657 542.522 462.892 542.535 465.361 542.535H469.106L469.894 539.539L470.722 536.505Z" fill="white"/>
</g>
<g id="Group_28">
<path id="Vector_25" d="M484.202 532.13C483.702 532.13 483.453 532.024 483.453 531.814C483.453 531.683 483.663 530.947 484.083 529.607C484.504 528.267 484.951 526.94 485.423 525.626L486.094 523.695C486.225 523.222 486.396 522.88 486.606 522.67H505.052H508.599C509.44 522.67 509.939 522.683 510.097 522.709C510.255 522.736 510.347 522.854 510.373 523.064C510.373 523.222 510.149 524.72 509.703 527.557C509.256 530.395 509.006 531.827 508.954 531.854C508.954 532.038 508.704 532.13 508.205 532.13C507.969 532.13 507.811 532.13 507.732 532.13C507.653 532.13 507.574 532.064 507.496 531.932L507.417 531.814C507.417 531.657 507.496 531.065 507.653 530.041C507.811 529.016 507.89 528.214 507.89 527.636C507.89 526.717 507.719 526.02 507.377 525.547C507.036 525.074 506.313 524.746 505.21 524.562C505.078 524.536 504.316 524.509 502.923 524.483C501.715 524.483 500.953 524.496 500.637 524.523C500.322 524.549 500.086 524.654 499.928 524.838C499.902 524.864 498.969 528.53 497.13 535.834C495.29 543.139 494.371 546.857 494.371 546.989C494.371 547.304 495.527 547.488 497.839 547.541C498.68 547.541 499.219 547.554 499.455 547.58C499.691 547.606 499.81 547.724 499.81 547.935C499.81 548.066 499.77 548.25 499.691 548.486C499.586 548.959 499.468 549.235 499.337 549.314L499.258 549.354C499.179 549.354 499.087 549.354 498.982 549.354C498.851 549.354 498.167 549.34 496.932 549.314C495.698 549.288 493.924 549.275 491.612 549.275C488.222 549.275 486.067 549.301 485.148 549.354H484.556C484.399 549.196 484.32 549.078 484.32 548.999C484.32 548.92 484.346 548.684 484.399 548.289C484.504 547.948 484.635 547.698 484.793 547.541H485.896H486.33C488.432 547.541 489.68 547.422 490.074 547.186C490.101 547.16 490.127 547.146 490.153 547.146C490.285 547.068 490.416 546.805 490.547 546.358C490.679 545.911 491.204 543.849 492.124 540.17C492.571 538.383 492.938 536.925 493.228 535.795C495.067 528.569 495.987 524.877 495.987 524.72C495.987 524.588 495.606 524.523 494.844 524.523H493.622C491.861 524.523 490.705 524.601 490.153 524.759C488.971 525.022 488.051 525.56 487.394 526.375C486.737 527.19 486.028 528.714 485.266 530.947C485.082 531.525 484.951 531.867 484.872 531.972C484.793 532.077 484.609 532.13 484.32 532.13H484.202Z" fill="white"/>
</g>
<g id="Group_29">
<path id="Vector_26" d="M523.529 535.677C523.529 535.335 523.713 535.072 524.081 534.889H549.188C549.582 535.099 549.779 535.362 549.779 535.677C549.779 535.966 549.595 536.215 549.227 536.426L536.694 536.465H524.16C523.74 536.334 523.529 536.071 523.529 535.677ZM523.529 543.323C523.529 542.929 523.74 542.666 524.16 542.535H549.227C549.595 542.798 549.779 543.06 549.779 543.323C549.779 543.665 549.582 543.928 549.188 544.112H524.081C523.713 543.928 523.529 543.665 523.529 543.323Z" fill="white"/>
</g>
<g id="Group_30">
<path id="Vector_27" d="M567.941 531.105C567.232 531.105 566.68 530.881 566.286 530.435C565.892 529.988 565.682 529.41 565.655 528.7C565.655 527.255 566.286 525.968 567.547 524.838C568.809 523.708 570.333 523.143 572.119 523.143C573.039 523.143 573.617 523.156 573.854 523.182C575.798 523.498 577.283 524.194 578.307 525.271C579.332 526.349 579.858 527.518 579.884 528.779C579.884 530.146 579.437 531.473 578.544 532.76C577.65 534.048 576.416 534.98 574.839 535.559L574.721 535.637C574.721 535.664 574.839 535.703 575.075 535.756C575.312 535.808 575.693 535.926 576.218 536.11C576.744 536.294 577.243 536.57 577.716 536.938C579.871 538.331 580.948 540.17 580.948 542.456C580.948 544.532 580.134 546.345 578.504 547.895C576.875 549.446 574.813 550.221 572.316 550.221C570.214 550.221 568.401 549.656 566.877 548.526C565.353 547.396 564.591 545.964 564.591 544.23C564.591 543.494 564.828 542.903 565.301 542.456C565.774 542.009 566.365 541.773 567.074 541.747C567.81 541.747 568.414 541.983 568.887 542.456C569.36 542.929 569.597 543.52 569.597 544.23C569.597 544.519 569.557 544.782 569.479 545.018C569.4 545.255 569.308 545.465 569.203 545.649C569.098 545.833 568.953 545.99 568.769 546.122C568.585 546.253 568.428 546.358 568.296 546.437C568.165 546.516 568.033 546.568 567.902 546.595C567.771 546.621 567.666 546.66 567.587 546.713L567.429 546.752C568.769 547.935 570.398 548.526 572.316 548.526C573.762 548.526 574.852 547.83 575.588 546.437C576.035 545.57 576.258 544.243 576.258 542.456V541.668C576.258 539.172 575.417 537.503 573.735 536.662C573.341 536.505 572.54 536.413 571.331 536.386L569.676 536.347L569.557 536.268C569.505 536.189 569.479 535.979 569.479 535.637C569.479 535.164 569.584 534.928 569.794 534.928C570.53 534.928 571.292 534.862 572.08 534.731C572.973 534.599 573.788 534.048 574.524 533.075C575.259 532.103 575.627 530.632 575.627 528.661V528.346C575.627 526.848 575.167 525.81 574.248 525.232C573.67 524.864 573.052 524.68 572.395 524.68C571.554 524.68 570.779 524.825 570.07 525.114C569.36 525.403 568.861 525.705 568.572 526.02C568.283 526.336 568.138 526.493 568.138 526.493H568.257C568.336 526.52 568.441 526.546 568.572 526.572C568.703 526.598 568.835 526.664 568.966 526.769C569.098 526.874 569.255 526.966 569.439 527.045C569.623 527.124 569.754 527.268 569.833 527.479C569.912 527.689 570.017 527.886 570.149 528.07C570.28 528.254 570.319 528.517 570.267 528.858C570.267 529.436 570.083 529.949 569.715 530.395C569.347 530.842 568.756 531.078 567.941 531.105Z" fill="white"/>
<path id="Vector_28" d="M586.427 526.296C587.898 524.168 589.908 523.104 592.457 523.104C593.718 523.104 594.98 523.445 596.241 524.128C597.502 524.812 598.527 526.02 599.315 527.755C600.288 529.935 600.774 532.931 600.774 536.741C600.774 540.814 600.209 543.928 599.079 546.082C598.553 547.186 597.831 548.066 596.911 548.723C595.991 549.38 595.19 549.787 594.507 549.945C593.824 550.102 593.154 550.194 592.497 550.221C591.813 550.221 591.13 550.142 590.447 549.984C589.764 549.827 588.962 549.406 588.043 548.723C587.123 548.04 586.401 547.16 585.875 546.082C584.745 543.928 584.18 540.814 584.18 536.741C584.18 532.169 584.929 528.687 586.427 526.296ZM595.295 525.823C594.507 524.982 593.574 524.562 592.497 524.562C591.393 524.562 590.447 524.982 589.659 525.823C589.002 526.506 588.568 527.452 588.358 528.661C588.148 529.87 588.043 532.392 588.043 536.229C588.043 540.38 588.148 543.113 588.358 544.427C588.568 545.741 589.041 546.779 589.777 547.541C590.513 548.329 591.419 548.723 592.497 548.723C593.548 548.723 594.441 548.329 595.177 547.541C595.939 546.752 596.412 545.649 596.596 544.23C596.78 542.811 596.885 540.144 596.911 536.229C596.911 532.419 596.806 529.909 596.596 528.7C596.386 527.492 595.952 526.533 595.295 525.823Z" fill="white"/>
</g>
<g id="Group_31">
<path id="Vector_29" d="M613.315 540.012C613.315 540.012 613.315 539.842 613.315 539.5C613.315 539.158 613.499 538.896 613.867 538.712H625.652V532.8L625.691 526.887C625.954 526.546 626.204 526.375 626.44 526.375C626.782 526.375 627.045 526.572 627.229 526.966V538.712H638.974C639.368 538.922 639.565 539.185 639.565 539.5C639.565 539.815 639.368 540.078 638.974 540.288H627.229V552.034C627.018 552.402 626.782 552.586 626.519 552.586H626.44H626.361C626.046 552.586 625.81 552.402 625.652 552.034V540.288H613.867C613.499 540.104 613.315 539.842 613.315 539.5V540.012Z" fill="white"/>
</g>
<g id="Group_32">
<path id="Vector_30" d="M656.994 543.166C656.994 543.796 656.784 544.322 656.364 544.742C655.943 545.163 655.431 545.373 654.826 545.373H654.551C655.759 547.449 657.362 548.486 659.359 548.486C661.198 548.486 662.539 547.698 663.379 546.122C663.879 545.255 664.128 543.573 664.128 541.077C664.128 538.37 663.773 536.544 663.064 535.598C662.381 534.731 661.619 534.297 660.778 534.297H660.542C658.492 534.297 656.942 535.191 655.891 536.977C655.786 537.161 655.694 537.267 655.615 537.293C655.536 537.319 655.339 537.345 655.023 537.372C654.577 537.372 654.327 537.293 654.275 537.135C654.222 537.03 654.196 534.731 654.196 530.238V525.153C654.196 523.839 654.261 523.182 654.393 523.182C654.445 523.13 654.498 523.104 654.551 523.104C654.577 523.104 654.853 523.209 655.378 523.419C655.904 523.629 656.626 523.839 657.546 524.05C658.466 524.26 659.451 524.365 660.502 524.365C662.368 524.365 664.155 523.997 665.862 523.261C666.073 523.156 666.243 523.104 666.375 523.104C666.585 523.104 666.69 523.34 666.69 523.813V524.325C664.536 526.874 661.842 528.149 658.61 528.149C657.796 528.149 657.06 528.07 656.403 527.912L656.009 527.833V534.613C656.508 534.245 656.902 533.956 657.191 533.746C657.48 533.535 657.953 533.325 658.61 533.115C659.267 532.905 659.937 532.8 660.62 532.8C662.749 532.8 664.549 533.654 666.02 535.361C667.492 537.069 668.227 539.093 668.227 541.431C668.227 543.849 667.386 545.911 665.705 547.619C664.023 549.327 661.974 550.194 659.556 550.221C657.428 550.221 655.72 549.511 654.432 548.092C653.145 546.673 652.501 545.071 652.501 543.284C652.501 542.653 652.645 542.154 652.935 541.786C653.224 541.418 653.526 541.182 653.841 541.077C654.156 540.971 654.459 540.919 654.748 540.919C655.405 540.919 655.943 541.142 656.364 541.589C656.784 542.036 656.994 542.561 656.994 543.166Z" fill="white"/>
</g>
<g id="Group_33">
<path id="Vector_31" d="M683.394 535.677C683.394 535.335 683.578 535.072 683.946 534.889H709.053C709.447 535.099 709.644 535.362 709.644 535.677C709.644 535.966 709.46 536.215 709.092 536.426L696.559 536.465H684.025C683.604 536.334 683.394 536.071 683.394 535.677ZM683.394 543.323C683.394 542.929 683.604 542.666 684.025 542.535H709.092C709.46 542.798 709.644 543.06 709.644 543.323C709.644 543.665 709.447 543.928 709.053 544.112H683.946C683.578 543.928 683.394 543.665 683.394 543.323Z" fill="white"/>
</g>
<g id="Group_34">
<path id="Vector_32" d="M727.806 531.105C727.097 531.105 726.545 530.881 726.151 530.435C725.757 529.988 725.547 529.41 725.52 528.7C725.52 527.255 726.151 525.968 727.412 524.838C728.673 523.708 730.197 523.143 731.984 523.143C732.904 523.143 733.482 523.156 733.718 523.182C735.663 523.498 737.147 524.194 738.172 525.271C739.197 526.349 739.723 527.518 739.749 528.779C739.749 530.146 739.302 531.473 738.409 532.76C737.515 534.048 736.28 534.98 734.704 535.559L734.586 535.637C734.586 535.664 734.704 535.703 734.94 535.756C735.177 535.808 735.558 535.926 736.083 536.11C736.609 536.294 737.108 536.57 737.581 536.938C739.736 538.331 740.813 540.17 740.813 542.456C740.813 544.532 739.998 546.345 738.369 547.895C736.74 549.446 734.678 550.221 732.181 550.221C730.079 550.221 728.266 549.656 726.742 548.526C725.218 547.396 724.456 545.964 724.456 544.23C724.456 543.494 724.693 542.903 725.166 542.456C725.638 542.009 726.23 541.773 726.939 541.747C727.675 541.747 728.279 541.983 728.752 542.456C729.225 542.929 729.462 543.52 729.462 544.23C729.462 544.519 729.422 544.782 729.343 545.018C729.265 545.255 729.173 545.465 729.068 545.649C728.962 545.833 728.818 545.99 728.634 546.122C728.45 546.253 728.292 546.358 728.161 546.437C728.03 546.516 727.898 546.568 727.767 546.595C727.635 546.621 727.53 546.66 727.452 546.713L727.294 546.752C728.634 547.935 730.263 548.526 732.181 548.526C733.626 548.526 734.717 547.83 735.453 546.437C735.899 545.57 736.123 544.243 736.123 542.456V541.668C736.123 539.172 735.282 537.503 733.6 536.662C733.206 536.505 732.405 536.413 731.196 536.386L729.541 536.347L729.422 536.268C729.37 536.189 729.343 535.979 729.343 535.637C729.343 535.164 729.449 534.928 729.659 534.928C730.394 534.928 731.157 534.862 731.945 534.731C732.838 534.599 733.653 534.048 734.388 533.075C735.124 532.103 735.492 530.632 735.492 528.661V528.346C735.492 526.848 735.032 525.81 734.113 525.232C733.535 524.864 732.917 524.68 732.26 524.68C731.419 524.68 730.644 524.825 729.935 525.114C729.225 525.403 728.726 525.705 728.437 526.02C728.148 526.336 728.003 526.493 728.003 526.493H728.122C728.2 526.52 728.306 526.546 728.437 526.572C728.568 526.598 728.7 526.664 728.831 526.769C728.962 526.874 729.12 526.966 729.304 527.045C729.488 527.124 729.619 527.268 729.698 527.479C729.777 527.689 729.882 527.886 730.013 528.07C730.145 528.254 730.184 528.517 730.132 528.858C730.132 529.436 729.948 529.949 729.58 530.395C729.212 530.842 728.621 531.078 727.806 531.105Z" fill="white"/>
<path id="Vector_33" d="M748.972 543.166C748.972 543.796 748.762 544.322 748.341 544.742C747.921 545.163 747.409 545.373 746.804 545.373H746.528C747.737 547.449 749.34 548.487 751.337 548.487C753.176 548.487 754.516 547.698 755.357 546.122C755.856 545.255 756.106 543.573 756.106 541.077C756.106 538.37 755.751 536.544 755.042 535.598C754.359 534.731 753.597 534.297 752.756 534.297H752.519C750.47 534.297 748.919 535.191 747.868 536.977C747.763 537.161 747.671 537.267 747.592 537.293C747.514 537.319 747.317 537.345 747.001 537.372C746.555 537.372 746.305 537.293 746.252 537.135C746.2 537.03 746.174 534.731 746.174 530.238V525.153C746.174 523.839 746.239 523.182 746.371 523.182C746.423 523.13 746.476 523.104 746.528 523.104C746.555 523.104 746.83 523.209 747.356 523.419C747.882 523.629 748.604 523.839 749.524 524.05C750.443 524.26 751.429 524.365 752.48 524.365C754.346 524.365 756.132 523.997 757.84 523.261C758.05 523.156 758.221 523.104 758.353 523.104C758.563 523.104 758.668 523.34 758.668 523.813V524.325C756.513 526.874 753.82 528.149 750.588 528.149C749.773 528.149 749.038 528.07 748.381 527.912L747.987 527.833V534.613C748.486 534.245 748.88 533.956 749.169 533.746C749.458 533.535 749.931 533.325 750.588 533.115C751.245 532.905 751.915 532.8 752.598 532.8C754.727 532.8 756.526 533.654 757.998 535.362C759.469 537.069 760.205 539.093 760.205 541.431C760.205 543.849 759.364 545.911 757.683 547.619C756.001 549.327 753.951 550.194 751.534 550.221C749.406 550.221 747.698 549.511 746.41 548.092C745.123 546.673 744.479 545.071 744.479 543.284C744.479 542.653 744.623 542.154 744.912 541.786C745.201 541.418 745.504 541.182 745.819 541.077C746.134 540.971 746.436 540.919 746.725 540.919C747.382 540.919 747.921 541.142 748.341 541.589C748.762 542.036 748.972 542.561 748.972 543.166Z" fill="white"/>
</g>
</g>
</g>
</g>
</svg>
