<svg viewBox="0 0 1043 316" fill="none" xmlns="http://www.w3.org/2000/svg">
<g id="0127222">
<g id="Group 325">
<g id="Group 321">
<path id="Union" fill-rule="evenodd" clip-rule="evenodd" d="M134.992 31.539L243.604 140.151L247.139 136.615L138.528 28.0034L134.992 31.539ZM134.298 248.957L242.909 140.345L239.374 136.809L130.762 245.421L134.298 248.957Z" fill="#2CF30B"/>
<path id="Union_2" fill-rule="evenodd" clip-rule="evenodd" d="M123.334 61.8805L201.698 140.245L205.234 136.709L126.87 58.345L123.334 61.8805ZM122.833 218.749L201.198 140.385L197.662 136.849L119.298 215.214L122.833 218.749Z" fill="#E79720"/>
<path id="Union_3" fill-rule="evenodd" clip-rule="evenodd" d="M115.229 205.259L46.8333 136.863L43.2978 140.398L111.694 208.794L115.229 205.259ZM115.666 68.3448L47.2702 136.741L50.8057 140.276L119.202 71.8804L115.666 68.3448Z" fill="#F2C94C"/>
</g>
<g id="Group 322">
<path id="Union_4" fill-rule="evenodd" clip-rule="evenodd" d="M285.833 152.151L394.445 43.5388L390.91 40.0033L282.298 148.615L285.833 152.151ZM503.251 152.845L394.639 44.2331L391.104 47.7687L499.716 156.38L503.251 152.845Z" fill="#2CF30B"/>
<path id="Union_5" fill-rule="evenodd" clip-rule="evenodd" d="M396.334 79.8793L474.698 158.244L478.234 154.708L399.87 76.3438L396.334 79.8793ZM395.833 236.748L474.198 158.384L470.662 154.848L392.298 233.212L395.833 236.748Z" fill="#E79720"/>
<path id="Union_6" fill-rule="evenodd" clip-rule="evenodd" d="M313.833 157.935L382.229 89.5389L378.694 86.0034L310.298 154.399L313.833 157.935ZM450.747 158.372L382.351 89.9757L378.816 93.5113L447.212 161.907L450.747 158.372Z" fill="#F2C94C"/>
</g>
<g id="Group 323">
<path id="Union_7" fill-rule="evenodd" clip-rule="evenodd" d="M689.445 246.421L580.833 137.809L577.298 141.345L685.909 249.957L689.445 246.421ZM690.139 29.0033L581.528 137.615L585.063 141.151L693.675 32.5388L690.139 29.0033Z" fill="#2CF30B"/>
<path id="Union_8" fill-rule="evenodd" clip-rule="evenodd" d="M616.833 140.903L695.198 62.5389L691.662 59.0034L613.298 137.368L616.833 140.903ZM773.702 141.404L695.338 63.0397L691.802 66.5752L770.166 144.939L773.702 141.404Z" fill="#E79720"/>
<path id="Union_9" fill-rule="evenodd" clip-rule="evenodd" d="M770.212 146.976L701.816 215.372L705.351 218.907L773.747 150.511L770.212 146.976ZM633.297 146.539L701.693 214.935L705.229 211.399L636.833 143.003L633.297 146.539Z" fill="#F3C72C"/>
</g>
</g>
<g id="Group 331">
<path id="Arrow 24 (Stroke)" fill-rule="evenodd" clip-rule="evenodd" d="M83.9117 27.9724C82.8242 27.7793 82.0991 26.7411 82.2922 25.6535L85.4396 7.9308C85.6327 6.84325 86.6709 6.11818 87.7584 6.31131C88.846 6.50445 89.5711 7.54265 89.3779 8.63021L87.066 21.6489C108.296 7.30261 125.248 -0.0385132 141.799 2.86102e-05C159.4 0.0410156 176.098 8.42323 196.565 24.4277L194.101 27.5787C173.842 11.7366 158.03 4.03784 141.789 4.00002C126.475 3.96435 110.382 10.737 89.4176 24.8876L102.334 27.1814C103.421 27.3745 104.146 28.4127 103.953 29.5002C103.76 30.5878 102.722 31.3129 101.634 31.1197L83.9117 27.9724Z" fill="#2CF30B"/>
<g id="90&#194;&#176;">
<path d="M223.887 23.7534C223.208 24.562 222.393 25.2124 221.444 25.7046C220.506 26.1968 219.475 26.4429 218.35 26.4429C216.874 26.4429 215.584 26.0796 214.483 25.353C213.393 24.6265 212.549 23.6069 211.952 22.2944C211.354 20.9702 211.055 19.5112 211.055 17.9175C211.055 16.2065 211.377 14.6655 212.022 13.2944C212.678 11.9233 213.604 10.8745 214.799 10.1479C215.995 9.42139 217.389 9.05811 218.983 9.05811C221.514 9.05811 223.506 10.0073 224.959 11.9058C226.424 13.7925 227.157 16.3706 227.157 19.6401V20.5894C227.157 25.5698 226.172 29.2085 224.204 31.5054C222.235 33.7905 219.264 34.9624 215.292 35.021H214.659V32.2788H215.344C218.028 32.2319 220.09 31.5347 221.532 30.187C222.973 28.8276 223.758 26.6831 223.887 23.7534ZM218.877 23.7534C219.967 23.7534 220.969 23.4194 221.883 22.7515C222.809 22.0835 223.483 21.2573 223.905 20.2729V18.9722C223.905 16.8394 223.442 15.105 222.516 13.769C221.59 12.4331 220.418 11.7651 219 11.7651C217.571 11.7651 216.422 12.3159 215.555 13.4175C214.688 14.5073 214.254 15.9487 214.254 17.7417C214.254 19.4878 214.67 20.9292 215.502 22.0659C216.346 23.1909 217.471 23.7534 218.877 23.7534Z" fill="#2CF30B"/>
<path d="M247.688 24.0874C247.688 27.896 247.038 30.7261 245.737 32.5776C244.436 34.4292 242.403 35.355 239.637 35.355C236.907 35.355 234.885 34.4526 233.573 32.6479C232.26 30.8315 231.581 28.1245 231.534 24.5269V20.1851C231.534 16.4233 232.184 13.6284 233.485 11.8003C234.786 9.97217 236.825 9.05811 239.602 9.05811C242.356 9.05811 244.383 9.94287 245.684 11.7124C246.985 13.4702 247.653 16.189 247.688 19.8687V24.0874ZM244.436 19.6401C244.436 16.8862 244.049 14.8823 243.276 13.6284C242.502 12.3628 241.278 11.73 239.602 11.73C237.938 11.73 236.725 12.3569 235.963 13.6108C235.202 14.8647 234.809 16.7925 234.786 19.394V24.5972C234.786 27.3628 235.184 29.4077 235.981 30.7319C236.79 32.0444 238.008 32.7007 239.637 32.7007C241.243 32.7007 242.432 32.0796 243.206 30.8374C243.991 29.5952 244.401 27.6382 244.436 24.9663V19.6401Z" fill="#2CF30B"/>
<path d="M252.012 13.6284C252.012 12.4097 252.446 11.3433 253.313 10.4292C254.192 9.51514 255.252 9.05811 256.495 9.05811C257.713 9.05811 258.75 9.51514 259.606 10.4292C260.473 11.3315 260.907 12.3979 260.907 13.6284C260.907 14.8706 260.473 15.9312 259.606 16.8101C258.75 17.689 257.713 18.1284 256.495 18.1284C255.264 18.1284 254.209 17.689 253.331 16.8101C252.452 15.9312 252.012 14.8706 252.012 13.6284ZM256.495 15.8784C257.127 15.8784 257.661 15.6733 258.094 15.2632C258.528 14.8413 258.745 14.2964 258.745 13.6284C258.745 12.9487 258.528 12.3921 258.094 11.9585C257.661 11.5132 257.127 11.2905 256.495 11.2905C255.85 11.2905 255.305 11.5249 254.86 11.9937C254.426 12.4507 254.209 12.9956 254.209 13.6284C254.209 14.2612 254.426 14.7944 254.86 15.228C255.305 15.6616 255.85 15.8784 256.495 15.8784Z" fill="#2CF30B"/>
</g>
</g>
<g id="Group 332">
<path id="Arrow 24 (Stroke)_2" fill-rule="evenodd" clip-rule="evenodd" d="M612.948 30.9758C611.86 30.7827 611.135 29.7445 611.328 28.6569L614.476 10.9342C614.669 9.84666 615.707 9.1216 616.795 9.31473C617.882 9.50787 618.607 10.5461 618.414 11.6336L616.102 24.6523C637.332 10.306 654.284 2.9649 670.835 3.00345C688.436 3.04443 705.134 11.4266 725.602 27.4311L723.138 30.5821C702.878 14.74 687.066 7.04126 670.826 7.00344C655.511 6.96777 639.418 13.7404 618.454 27.891L631.37 30.1848C632.458 30.3779 633.183 31.4161 632.989 32.5037C632.796 33.5912 631.758 34.3163 630.671 34.1231L612.948 30.9758Z" fill="#2CF30B"/>
<g id="90&#194;&#176;_2">
<path d="M752.923 26.7568C752.244 27.5654 751.429 28.2158 750.48 28.708C749.542 29.2002 748.511 29.4463 747.386 29.4463C745.91 29.4463 744.621 29.083 743.519 28.3564C742.429 27.6299 741.585 26.6104 740.988 25.2979C740.39 23.9736 740.091 22.5146 740.091 20.9209C740.091 19.21 740.414 17.6689 741.058 16.2979C741.714 14.9268 742.64 13.8779 743.835 13.1514C745.031 12.4248 746.425 12.0615 748.019 12.0615C750.55 12.0615 752.542 13.0107 753.996 14.9092C755.46 16.7959 756.193 19.374 756.193 22.6436V23.5928C756.193 28.5732 755.208 32.2119 753.24 34.5088C751.271 36.7939 748.3 37.9658 744.328 38.0244H743.695V35.2822H744.38C747.064 35.2354 749.126 34.5381 750.568 33.1904C752.009 31.8311 752.794 29.6865 752.923 26.7568ZM747.914 26.7568C749.003 26.7568 750.005 26.4229 750.919 25.7549C751.845 25.0869 752.519 24.2607 752.941 23.2764V21.9756C752.941 19.8428 752.478 18.1084 751.552 16.7725C750.626 15.4365 749.455 14.7686 748.037 14.7686C746.607 14.7686 745.458 15.3193 744.591 16.4209C743.724 17.5107 743.291 18.9521 743.291 20.7451C743.291 22.4912 743.707 23.9326 744.539 25.0693C745.382 26.1943 746.507 26.7568 747.914 26.7568Z" fill="#2CF30B"/>
<path d="M776.724 27.0908C776.724 30.8994 776.074 33.7295 774.773 35.5811C773.472 37.4326 771.439 38.3584 768.673 38.3584C765.943 38.3584 763.921 37.4561 762.609 35.6514C761.296 33.835 760.617 31.1279 760.57 27.5303V23.1885C760.57 19.4268 761.22 16.6318 762.521 14.8037C763.822 12.9756 765.861 12.0615 768.638 12.0615C771.392 12.0615 773.419 12.9463 774.72 14.7158C776.021 16.4736 776.689 19.1924 776.724 22.8721V27.0908ZM773.472 22.6436C773.472 19.8896 773.085 17.8857 772.312 16.6318C771.539 15.3662 770.314 14.7334 768.638 14.7334C766.974 14.7334 765.761 15.3604 765 16.6143C764.238 17.8682 763.845 19.7959 763.822 22.3975V27.6006C763.822 30.3662 764.22 32.4111 765.017 33.7354C765.826 35.0479 767.044 35.7041 768.673 35.7041C770.279 35.7041 771.468 35.083 772.242 33.8408C773.027 32.5986 773.437 30.6416 773.472 27.9697V22.6436Z" fill="#2CF30B"/>
<path d="M781.048 16.6318C781.048 15.4131 781.482 14.3467 782.349 13.4326C783.228 12.5186 784.289 12.0615 785.531 12.0615C786.75 12.0615 787.787 12.5186 788.642 13.4326C789.509 14.335 789.943 15.4014 789.943 16.6318C789.943 17.874 789.509 18.9346 788.642 19.8135C787.787 20.6924 786.75 21.1318 785.531 21.1318C784.3 21.1318 783.246 20.6924 782.367 19.8135C781.488 18.9346 781.048 17.874 781.048 16.6318ZM785.531 18.8818C786.164 18.8818 786.697 18.6768 787.13 18.2666C787.564 17.8447 787.781 17.2998 787.781 16.6318C787.781 15.9521 787.564 15.3955 787.13 14.9619C786.697 14.5166 786.164 14.2939 785.531 14.2939C784.886 14.2939 784.341 14.5283 783.896 14.9971C783.462 15.4541 783.246 15.999 783.246 16.6318C783.246 17.2646 783.462 17.7979 783.896 18.2314C784.341 18.665 784.886 18.8818 785.531 18.8818Z" fill="#2CF30B"/>
</g>
</g>
<g id="Group 330">
<path id="Arrow 25 (Stroke)" fill-rule="evenodd" clip-rule="evenodd" d="M52.0344 221.664C65.7157 232.486 85.0258 235.894 114.237 235.004L114.359 239.002C84.9721 239.897 64.4089 236.552 49.5529 224.801C35.4717 213.663 26.9027 195.277 20.3869 167.103L13.2175 178.212C12.6186 179.14 11.3807 179.407 10.4526 178.808C9.52453 178.209 9.25773 176.971 9.85669 176.043L19.6173 160.919C20.2163 159.991 21.4542 159.724 22.3823 160.323L37.5061 170.084C38.4342 170.683 38.701 171.92 38.102 172.849C37.503 173.777 36.2651 174.043 35.3371 173.444L24.3139 166.33C30.7696 194.181 39.0649 211.405 52.0344 221.664Z" fill="#F2C94C"/>
<g id="90&#194;&#176;_3">
<path d="M71.8877 270.753C71.208 271.562 70.3936 272.212 69.4443 272.705C68.5068 273.197 67.4756 273.443 66.3506 273.443C64.874 273.443 63.585 273.08 62.4834 272.353C61.3936 271.626 60.5498 270.607 59.9521 269.294C59.3545 267.97 59.0557 266.511 59.0557 264.917C59.0557 263.207 59.3779 261.666 60.0225 260.294C60.6787 258.923 61.6045 257.875 62.7998 257.148C63.9951 256.421 65.3896 256.058 66.9834 256.058C69.5146 256.058 71.5068 257.007 72.96 258.906C74.4248 260.792 75.1572 263.371 75.1572 266.64V267.589C75.1572 272.57 74.1729 276.208 72.2041 278.505C70.2354 280.791 67.2646 281.962 63.292 282.021H62.6592V279.279H63.3447C66.0283 279.232 68.0908 278.535 69.5322 277.187C70.9736 275.828 71.7588 273.683 71.8877 270.753ZM66.8779 270.753C67.9678 270.753 68.9697 270.419 69.8838 269.751C70.8096 269.083 71.4834 268.257 71.9053 267.273V265.972C71.9053 263.839 71.4424 262.105 70.5166 260.769C69.5908 259.433 68.4189 258.765 67.001 258.765C65.5713 258.765 64.4229 259.316 63.5557 260.417C62.6885 261.507 62.2549 262.949 62.2549 264.742C62.2549 266.488 62.6709 267.929 63.5029 269.066C64.3467 270.191 65.4717 270.753 66.8779 270.753Z" fill="#F2C94C"/>
<path d="M95.6885 271.087C95.6885 274.896 95.0381 277.726 93.7373 279.578C92.4365 281.429 90.4033 282.355 87.6377 282.355C84.9072 282.355 82.8857 281.453 81.5732 279.648C80.2607 277.832 79.5811 275.125 79.5342 271.527V267.185C79.5342 263.423 80.1846 260.628 81.4854 258.8C82.7861 256.972 84.8252 256.058 87.6025 256.058C90.3564 256.058 92.3838 256.943 93.6846 258.712C94.9854 260.47 95.6533 263.189 95.6885 266.869V271.087ZM92.4365 266.64C92.4365 263.886 92.0498 261.882 91.2764 260.628C90.5029 259.363 89.2783 258.73 87.6025 258.73C85.9385 258.73 84.7256 259.357 83.9639 260.611C83.2021 261.865 82.8096 263.792 82.7861 266.394V271.597C82.7861 274.363 83.1846 276.408 83.9814 277.732C84.79 279.044 86.0088 279.701 87.6377 279.701C89.2432 279.701 90.4326 279.08 91.2061 277.837C91.9912 276.595 92.4014 274.638 92.4365 271.966V266.64Z" fill="#F2C94C"/>
<path d="M100.013 260.628C100.013 259.41 100.446 258.343 101.313 257.429C102.192 256.515 103.253 256.058 104.495 256.058C105.714 256.058 106.751 256.515 107.606 257.429C108.474 258.332 108.907 259.398 108.907 260.628C108.907 261.871 108.474 262.931 107.606 263.81C106.751 264.689 105.714 265.128 104.495 265.128C103.265 265.128 102.21 264.689 101.331 263.81C100.452 262.931 100.013 261.871 100.013 260.628ZM104.495 262.878C105.128 262.878 105.661 262.673 106.095 262.263C106.528 261.841 106.745 261.296 106.745 260.628C106.745 259.949 106.528 259.392 106.095 258.958C105.661 258.513 105.128 258.291 104.495 258.291C103.851 258.291 103.306 258.525 102.86 258.994C102.427 259.451 102.21 259.996 102.21 260.628C102.21 261.261 102.427 261.794 102.86 262.228C103.306 262.662 103.851 262.878 104.495 262.878Z" fill="#F2C94C"/>
</g>
</g>
<g id="Group 333">
<path id="Arrow 25 (Stroke)_2" fill-rule="evenodd" clip-rule="evenodd" d="M617.332 254.664C631.014 265.486 650.324 268.894 679.535 268.004L679.657 272.002C650.27 272.897 629.707 269.552 614.851 257.801C600.77 246.663 592.201 228.277 585.685 200.103L578.515 211.212C577.916 212.14 576.679 212.407 575.75 211.808C574.822 211.209 574.556 209.971 575.155 209.043L584.915 193.919C585.514 192.991 586.752 192.724 587.68 193.323L602.804 203.084C603.732 203.683 603.999 204.92 603.4 205.849C602.801 206.777 601.563 207.043 600.635 206.444L589.612 199.33C596.067 227.181 604.363 244.405 617.332 254.664Z" fill="#F2C94C"/>
<g id="90&#194;&#176;_4">
<path d="M637.186 303.753C636.506 304.562 635.691 305.212 634.742 305.705C633.805 306.197 632.773 306.443 631.648 306.443C630.172 306.443 628.883 306.08 627.781 305.353C626.691 304.626 625.848 303.607 625.25 302.294C624.652 300.97 624.354 299.511 624.354 297.917C624.354 296.207 624.676 294.666 625.32 293.294C625.977 291.923 626.902 290.875 628.098 290.148C629.293 289.421 630.688 289.058 632.281 289.058C634.812 289.058 636.805 290.007 638.258 291.906C639.723 293.792 640.455 296.371 640.455 299.64V300.589C640.455 305.57 639.471 309.208 637.502 311.505C635.533 313.791 632.562 314.962 628.59 315.021H627.957V312.279H628.643C631.326 312.232 633.389 311.535 634.83 310.187C636.271 308.828 637.057 306.683 637.186 303.753ZM632.176 303.753C633.266 303.753 634.268 303.419 635.182 302.751C636.107 302.083 636.781 301.257 637.203 300.273V298.972C637.203 296.839 636.74 295.105 635.814 293.769C634.889 292.433 633.717 291.765 632.299 291.765C630.869 291.765 629.721 292.316 628.854 293.417C627.986 294.507 627.553 295.949 627.553 297.742C627.553 299.488 627.969 300.929 628.801 302.066C629.645 303.191 630.77 303.753 632.176 303.753Z" fill="#F2C94C"/>
<path d="M660.986 304.087C660.986 307.896 660.336 310.726 659.035 312.578C657.734 314.429 655.701 315.355 652.936 315.355C650.205 315.355 648.184 314.453 646.871 312.648C645.559 310.832 644.879 308.125 644.832 304.527V300.185C644.832 296.423 645.482 293.628 646.783 291.8C648.084 289.972 650.123 289.058 652.9 289.058C655.654 289.058 657.682 289.943 658.982 291.712C660.283 293.47 660.951 296.189 660.986 299.869V304.087ZM657.734 299.64C657.734 296.886 657.348 294.882 656.574 293.628C655.801 292.363 654.576 291.73 652.9 291.73C651.236 291.73 650.023 292.357 649.262 293.611C648.5 294.865 648.107 296.792 648.084 299.394V304.597C648.084 307.363 648.482 309.408 649.279 310.732C650.088 312.044 651.307 312.701 652.936 312.701C654.541 312.701 655.73 312.08 656.504 310.837C657.289 309.595 657.699 307.638 657.734 304.966V299.64Z" fill="#F2C94C"/>
<path d="M665.311 293.628C665.311 292.41 665.744 291.343 666.611 290.429C667.49 289.515 668.551 289.058 669.793 289.058C671.012 289.058 672.049 289.515 672.904 290.429C673.771 291.332 674.205 292.398 674.205 293.628C674.205 294.871 673.771 295.931 672.904 296.81C672.049 297.689 671.012 298.128 669.793 298.128C668.562 298.128 667.508 297.689 666.629 296.81C665.75 295.931 665.311 294.871 665.311 293.628ZM669.793 295.878C670.426 295.878 670.959 295.673 671.393 295.263C671.826 294.841 672.043 294.296 672.043 293.628C672.043 292.949 671.826 292.392 671.393 291.958C670.959 291.513 670.426 291.291 669.793 291.291C669.148 291.291 668.604 291.525 668.158 291.994C667.725 292.451 667.508 292.996 667.508 293.628C667.508 294.261 667.725 294.794 668.158 295.228C668.604 295.662 669.148 295.878 669.793 295.878Z" fill="#F2C94C"/>
</g>
</g>
<g id="Group 324">
<path id="Union_10" fill-rule="evenodd" clip-rule="evenodd" d="M1038.72 128.233L930.104 236.845L933.639 240.381L1042.25 131.769L1038.72 128.233ZM821.298 127.539L929.909 236.151L933.445 232.615L824.833 124.003L821.298 127.539Z" fill="#2CF30B"/>
<path id="Union_11" fill-rule="evenodd" clip-rule="evenodd" d="M848.834 125.903L927.198 47.5389L923.663 44.0034L845.298 122.368L848.834 125.903ZM1005.7 126.404L927.338 48.0397L923.803 51.5752L1002.17 129.939L1005.7 126.404Z" fill="#E79720"/>
<path id="Union_12" fill-rule="evenodd" clip-rule="evenodd" d="M931.229 202.918L862.833 134.522L859.298 138.057L927.694 206.453L931.229 202.918ZM931.666 66.0035L863.27 134.399L866.806 137.935L935.202 69.5391L931.666 66.0035Z" fill="#F3C72C"/>
</g>
</g>
</svg>
