<svg viewBox="0 0 864 278" fill="none" xmlns="http://www.w3.org/2000/svg">
<g id="0127218">
<g id="Group 265">
<g id="Group 266">
<path id="Rectangle 104 (Stroke)" fill-rule="evenodd" clip-rule="evenodd" d="M136 186.5V222H172.75V186.5H136ZM133 186.5V222H95.5V186.5H133ZM136 183.5H172.75V146.386C160.782 146.357 148.25 146.332 136 146.313V183.5ZM133 146.308V183.5H95.5V146.279C101.828 146.278 108.624 146.281 115.699 146.287C121.321 146.292 127.12 146.299 133 146.308ZM136 143.313C148.25 143.332 160.782 143.357 172.75 143.386V106.5H136V143.313ZM133 106.5V143.308C127.121 143.299 121.323 143.292 115.701 143.287C108.626 143.281 101.83 143.278 95.5 143.279V106.5H133ZM136 103.5H172.75V68H136V103.5ZM133 68V103.5H95.5V68H133ZM214 65V225H54V65H214ZM92.5 68H57V103.5H92.5V68ZM92.5 106.5H57V143.41C57.757 143.399 58.6422 143.388 59.6465 143.378C62.9251 143.347 67.4885 143.324 73.0332 143.308C78.6246 143.292 85.2166 143.283 92.5 143.28V106.5ZM92.5 146.28C85.219 146.283 78.63 146.292 73.0418 146.308C67.499 146.324 62.9437 146.347 59.6754 146.378C58.6532 146.388 57.7586 146.399 57 146.41V183.5H92.5V146.28ZM92.5 186.5V222H57V186.5H92.5ZM175.75 222H211V186.5H175.75V222ZM175.75 183.5H211V146.491C200.709 146.458 188.601 146.424 175.75 146.393V183.5ZM175.75 143.393C188.601 143.424 200.708 143.458 211 143.49V106.5H175.75V143.393ZM175.75 103.5H211V68H175.75V103.5Z" fill="white"/>
<path id="Rectangle 107" d="M54 65H94V105H54V65Z" fill="#2CF30B"/>
<path id="Rectangle 108" d="M54 185H94V225H54V185Z" fill="#13EBF9"/>
<path id="Rectangle 109" d="M134 185H174V225H134V185Z" fill="#E8A1EE"/>
</g>
<g id="Group 267">
<path id="Rectangle 105 (Stroke)" fill-rule="evenodd" clip-rule="evenodd" d="M282.5 103.5V68H247V103.5H282.5ZM282.5 106.5H247V143.41C247.757 143.399 248.642 143.388 249.646 143.378C252.925 143.347 257.488 143.324 263.033 143.308C268.625 143.292 275.217 143.283 282.5 143.28V106.5ZM285.5 143.279V106.5H323V143.308C317.121 143.299 311.323 143.292 305.701 143.287C298.626 143.281 291.83 143.278 285.5 143.279ZM282.5 146.28C275.219 146.283 268.63 146.292 263.042 146.308C257.499 146.324 252.944 146.347 249.675 146.378C248.653 146.388 247.759 146.399 247 146.41V183.5H282.5V146.28ZM285.5 183.5V146.279C291.828 146.278 298.624 146.281 305.699 146.287C311.321 146.292 317.12 146.299 323 146.308V183.5H285.5ZM282.5 186.5H247V222H282.5V186.5ZM285.5 222V186.5H323V222H285.5ZM244 225V65H404V225H244ZM326 222H362.75V186.5H326V222ZM326 183.5H362.75V146.386C350.782 146.357 338.25 146.332 326 146.313V183.5ZM326 143.313C338.25 143.332 350.782 143.357 362.75 143.386V106.5H326V143.313ZM326 103.5H362.75V68H326V103.5ZM323 68H285.5V103.5H323V68ZM365.75 68V103.5H401V68H365.75ZM401 106.5H365.75V143.393C378.601 143.424 390.708 143.458 401 143.49V106.5ZM401 146.491C390.709 146.458 378.601 146.424 365.75 146.393V183.5H401V146.491ZM401 186.5H365.75V222H401V186.5Z" fill="white"/>
<path id="Rectangle 110" d="M324 65H364V105H324V65Z" fill="#2CF30B"/>
<path id="Rectangle 111" d="M284 145H324V185H284V145Z" fill="#13EBF9"/>
<path id="Rectangle 112" d="M324 145H364V185H324V145Z" fill="#E8A1EE"/>
</g>
<g id="Group 268">
<path id="Rectangle 106 (Stroke)" fill-rule="evenodd" clip-rule="evenodd" d="M472.5 103.5V68H437V103.5H472.5ZM472.5 106.5H437V143.41C437.757 143.399 438.642 143.388 439.646 143.378C442.925 143.347 447.488 143.324 453.033 143.308C458.625 143.292 465.217 143.283 472.5 143.28V106.5ZM475.5 143.279V106.5H513V143.308C507.121 143.299 501.323 143.292 495.701 143.287C488.626 143.281 481.83 143.278 475.5 143.279ZM472.5 146.28C465.219 146.283 458.63 146.292 453.042 146.308C447.499 146.324 442.944 146.347 439.675 146.378C438.653 146.388 437.759 146.399 437 146.41V183.5H472.5V146.28ZM475.5 183.5V146.279C481.828 146.278 488.624 146.281 495.699 146.287C501.321 146.292 507.12 146.299 513 146.308V183.5H475.5ZM472.5 186.5H437V222H472.5V186.5ZM475.5 222V186.5H513V222H475.5ZM434 225V65H594V225H434ZM516 222H552.75V186.5H516V222ZM516 183.5H552.75V146.386C540.782 146.357 528.25 146.332 516 146.313V183.5ZM516 143.313C528.25 143.332 540.782 143.357 552.75 143.386V106.5H516V143.313ZM516 103.5H552.75V68H516V103.5ZM513 68H475.5V103.5H513V68ZM555.75 68V103.5H591V68H555.75ZM591 106.5H555.75V143.393C568.601 143.424 580.708 143.458 591 143.49V106.5ZM591 146.491C580.709 146.458 568.601 146.424 555.75 146.393V183.5H591V146.491ZM591 186.5H555.75V222H591V186.5Z" fill="white"/>
<path id="Rectangle 113" d="M514 65H554V105H514V65Z" fill="#2CF30B"/>
<path id="Rectangle 114" d="M514 105H554V145H514V105Z" fill="#E8A1EE"/>
<path id="Rectangle 115" d="M514 105H554V145H514V105Z" fill="#13EBF9"/>
</g>
</g>
<g id="Group 379">
<g id="Group 269">
<path id="Arrow 8 (Stroke)" fill-rule="evenodd" clip-rule="evenodd" d="M119.343 40.9289L125.707 47.2928C126.098 47.6834 126.098 48.3165 125.707 48.7071L119.343 55.071C118.953 55.4615 118.319 55.4615 117.929 55.071C117.538 54.6805 117.538 54.0473 117.929 53.6568L122.586 48.9999H54V46.9999H122.586L117.929 42.3431C117.538 41.9526 117.538 41.3194 117.929 40.9289C118.319 40.5384 118.953 40.5384 119.343 40.9289Z" fill="#2CF30B"/>
<path id="2" d="M94.8965 39H78.127V36.6621L86.9863 26.8184C88.2988 25.3301 89.2012 24.123 89.6934 23.1973C90.1973 22.2598 90.4492 21.293 90.4492 20.2969C90.4492 18.9609 90.0449 17.8652 89.2363 17.0098C88.4277 16.1543 87.3496 15.7266 86.002 15.7266C84.3848 15.7266 83.125 16.1895 82.2227 17.1152C81.332 18.0293 80.8867 19.3066 80.8867 20.9473H77.6348C77.6348 18.5918 78.3906 16.6875 79.9023 15.2344C81.4258 13.7812 83.459 13.0547 86.002 13.0547C88.3809 13.0547 90.2617 13.6816 91.6445 14.9355C93.0273 16.1777 93.7188 17.8359 93.7188 19.9102C93.7188 22.4297 92.1133 25.4297 88.9023 28.9102L82.0469 36.3457H94.8965V39Z" fill="#2CF30B"/>
</g>
<g id="Group 270">
<path id="Arrow 8 (Stroke)_2" fill-rule="evenodd" clip-rule="evenodd" d="M382.377 37.0149C378.931 36.0123 373.423 35.6259 365.61 36.4939L365.39 34.5062C373.327 33.6242 379.132 33.9878 382.936 35.0946C384.835 35.6471 386.31 36.4063 387.29 37.3576C388.295 38.3327 388.791 39.5301 388.616 40.822C388.447 42.0666 387.679 43.217 386.553 44.2131C385.419 45.2165 383.848 46.1312 381.901 46.9059C378.457 48.2763 373.732 49.2505 367.873 49.4586L372.571 54.1571C372.962 54.5476 372.962 55.1808 372.571 55.5713C372.18 55.9618 371.547 55.9618 371.157 55.5713L364.793 49.2073C364.402 48.8167 364.402 48.1836 364.793 47.793L371.157 41.4291C371.547 41.0386 372.181 41.0386 372.571 41.4291C372.962 41.8197 372.962 42.4528 372.571 42.8434L367.96 47.4541C373.57 47.2404 378.007 46.303 381.162 45.0476C382.965 44.3302 384.316 43.5222 385.228 42.715C386.149 41.9006 386.553 41.1525 386.634 40.5533C386.709 40.0014 386.533 39.4098 385.897 38.793C385.237 38.1525 384.103 37.5171 382.377 37.0149Z" fill="#2CF30B"/>
<path id="2_2" d="M382.896 26H366.127V23.6621L374.986 13.8184C376.299 12.3301 377.201 11.123 377.693 10.1973C378.197 9.25977 378.449 8.29297 378.449 7.29688C378.449 5.96094 378.045 4.86523 377.236 4.00977C376.428 3.1543 375.35 2.72656 374.002 2.72656C372.385 2.72656 371.125 3.18945 370.223 4.11523C369.332 5.0293 368.887 6.30664 368.887 7.94727H365.635C365.635 5.5918 366.391 3.6875 367.902 2.23438C369.426 0.78125 371.459 0.0546875 374.002 0.0546875C376.381 0.0546875 378.262 0.681641 379.645 1.93555C381.027 3.17773 381.719 4.83594 381.719 6.91016C381.719 9.42969 380.113 12.4297 376.902 15.9102L370.047 23.3457H382.896V26Z" fill="#2CF30B"/>
</g>
<g id="Group 271">
<path id="Arrow 8 (Stroke)_3" fill-rule="evenodd" clip-rule="evenodd" d="M460.657 63.0711L454.293 56.7072C453.902 56.3166 453.902 55.6835 454.293 55.2929L460.657 48.929C461.047 48.5385 461.681 48.5385 462.071 48.929C462.462 49.3195 462.462 49.9527 462.071 50.3432L457.414 55.0001L526 55.0001V57.0001L457.414 57.0001L462.071 61.6569C462.462 62.0474 462.462 62.6806 462.071 63.0711C461.681 63.4616 461.047 63.4616 460.657 63.0711Z" fill="#2CF30B"/>
<path id="2_3" d="M495.896 47H479.127V44.6621L487.986 34.8184C489.299 33.3301 490.201 32.123 490.693 31.1973C491.197 30.2598 491.449 29.293 491.449 28.2969C491.449 26.9609 491.045 25.8652 490.236 25.0098C489.428 24.1543 488.35 23.7266 487.002 23.7266C485.385 23.7266 484.125 24.1895 483.223 25.1152C482.332 26.0293 481.887 27.3066 481.887 28.9473H478.635C478.635 26.5918 479.391 24.6875 480.902 23.2344C482.426 21.7812 484.459 21.0547 487.002 21.0547C489.381 21.0547 491.262 21.6816 492.645 22.9355C494.027 24.1777 494.719 25.8359 494.719 27.9102C494.719 30.4297 493.113 33.4297 489.902 36.9102L483.047 44.3457H495.896V47Z" fill="#2CF30B"/>
</g>
<g id="Group 272">
<path id="Arrow 9 (Stroke)" fill-rule="evenodd" clip-rule="evenodd" d="M99.3431 237.929L105.707 244.293C106.098 244.684 106.098 245.317 105.707 245.707L99.3431 252.071C98.9526 252.462 98.3195 252.462 97.9289 252.071C97.5384 251.681 97.5384 251.048 97.9289 250.657L102.586 246H49V244H102.586L97.9289 239.343C97.5384 238.953 97.5384 238.32 97.9289 237.929C98.3195 237.539 98.9526 237.539 99.3431 237.929Z" fill="#13EBF9"/>
<path id="1" d="M73.8145 278H70.5449V256.326L63.9883 258.734V255.781L73.3047 252.283H73.8145V278Z" fill="#13EBF9"/>
<path id="Arrow 10 (Stroke)" fill-rule="evenodd" clip-rule="evenodd" d="M20.9289 174.657L27.2928 168.293C27.6834 167.902 28.3165 167.902 28.7071 168.293L35.071 174.657C35.4615 175.047 35.4615 175.681 35.071 176.071C34.6805 176.462 34.0473 176.462 33.6568 176.071L28.9999 171.414L28.9999 225H26.9999L26.9999 171.414L22.3431 176.071C21.9526 176.462 21.3194 176.462 20.9289 176.071C20.5384 175.681 20.5384 175.047 20.9289 174.657Z" fill="#13EBF9"/>
<path id="1_2" d="M10.8145 209H7.54492V187.326L0.988281 189.734V186.781L10.3047 183.283H10.8145V209Z" fill="#13EBF9"/>
</g>
<g id="Group 273">
<path id="Arrow 9 (Stroke)_2" fill-rule="evenodd" clip-rule="evenodd" d="M339.343 193.929L345.707 200.293C346.098 200.684 346.098 201.317 345.707 201.707L339.343 208.071C338.953 208.462 338.319 208.462 337.929 208.071C337.538 207.681 337.538 207.048 337.929 206.657L342.586 202H289V200H342.586L337.929 195.343C337.538 194.953 337.538 194.32 337.929 193.929C338.319 193.539 338.953 193.539 339.343 193.929Z" fill="#13EBF9"/>
<path id="1_3" d="M313.814 234H310.545V212.326L303.988 214.734V211.781L313.305 208.283H313.814V234Z" fill="#13EBF9"/>
<path id="Arrow 10 (Stroke)_2" fill-rule="evenodd" clip-rule="evenodd" d="M260.929 130.657L267.293 124.293C267.683 123.902 268.317 123.902 268.707 124.293L275.071 130.657C275.462 131.047 275.462 131.681 275.071 132.071C274.68 132.462 274.047 132.462 273.657 132.071L269 127.414V181H267V127.414L262.343 132.071C261.953 132.462 261.319 132.462 260.929 132.071C260.538 131.681 260.538 131.047 260.929 130.657Z" fill="#13EBF9"/>
<path id="1_4" d="M250.814 165H247.545V143.326L240.988 145.734V142.781L250.305 139.283H250.814V165Z" fill="#13EBF9"/>
</g>
<g id="Group 274">
<path id="Arrow 9 (Stroke)_3" fill-rule="evenodd" clip-rule="evenodd" d="M572.343 155.929L578.707 162.293C579.098 162.684 579.098 163.317 578.707 163.707L572.343 170.071C571.953 170.462 571.319 170.462 570.929 170.071C570.538 169.681 570.538 169.048 570.929 168.657L575.586 164H522V162H575.586L570.929 157.343C570.538 156.953 570.538 156.32 570.929 155.929C571.319 155.539 571.953 155.539 572.343 155.929Z" fill="#13EBF9"/>
<path id="1_5" d="M546.814 196H543.545V174.326L536.988 176.734V173.781L546.305 170.283H546.814V196Z" fill="#13EBF9"/>
<path id="Arrow 10 (Stroke)_3" fill-rule="evenodd" clip-rule="evenodd" d="M493.929 92.6569L500.293 86.2929C500.683 85.9024 501.317 85.9024 501.707 86.2929L508.071 92.6569C508.462 93.0474 508.462 93.6805 508.071 94.0711C507.68 94.4616 507.047 94.4616 506.657 94.0711L502 89.4142V143H500V89.4142L495.343 94.0711C494.953 94.4616 494.319 94.4616 493.929 94.0711C493.538 93.6805 493.538 93.0474 493.929 92.6569Z" fill="#13EBF9"/>
<path id="1_6" d="M483.814 127H480.545V105.326L473.988 107.734V104.781L483.305 101.283H483.814V127Z" fill="#13EBF9"/>
</g>
<g id="Group 275">
<path id="Arrow 11 (Stroke)" fill-rule="evenodd" clip-rule="evenodd" d="M181.429 168.532L187.793 162.168C188.183 161.778 188.817 161.778 189.207 162.168L195.571 168.532C195.962 168.923 195.962 169.556 195.571 169.946C195.18 170.337 194.547 170.337 194.157 169.946L189.5 165.289V213.125H187.5V165.289L182.843 169.946C182.453 170.337 181.819 170.337 181.429 169.946C181.038 169.556 181.038 168.923 181.429 168.532Z" fill="#E8A1EE"/>
<path id="1_7" d="M214.814 204H211.545V182.326L204.988 184.734V181.781L214.305 178.283H214.814V204Z" fill="#E8A1EE"/>
</g>
<g id="Group 276">
<path id="Arrow 11 (Stroke)_2" fill-rule="evenodd" clip-rule="evenodd" d="M377.929 120.657L384.293 114.293C384.683 113.903 385.317 113.903 385.707 114.293L392.071 120.657C392.462 121.048 392.462 121.681 392.071 122.071C391.68 122.462 391.047 122.462 390.657 122.071L386 117.414V165.25H384V117.414L379.343 122.071C378.953 122.462 378.319 122.462 377.929 122.071C377.538 121.681 377.538 121.048 377.929 120.657Z" fill="#E8A1EE"/>
<path id="1_8" d="M411.314 156.125H408.045V134.451L401.488 136.859V133.906L410.805 130.408H411.314V156.125Z" fill="#E8A1EE"/>
</g>
<g id="Group 277">
<path id="Arrow 11 (Stroke)_3" fill-rule="evenodd" clip-rule="evenodd" d="M569.929 78.657L576.293 72.293C576.683 71.9025 577.317 71.9025 577.707 72.293L584.071 78.657C584.462 79.0475 584.462 79.6807 584.071 80.0712C583.68 80.4617 583.047 80.4617 582.657 80.0712L578 75.4143V123.25H576V75.4143L571.343 80.0712C570.953 80.4617 570.319 80.4617 569.929 80.0712C569.538 79.6807 569.538 79.0475 569.929 78.657Z" fill="#E8A1EE"/>
<path id="1_9" d="M603.314 114.125H600.045V92.4509L593.488 94.8591V91.906L602.805 88.408H603.314V114.125Z" fill="#E8A1EE"/>
</g>
</g>
<g id="Group 269_2">
<path id="Rectangle 106 (Stroke)_2" fill-rule="evenodd" clip-rule="evenodd" d="M742.5 103.5V68H707V103.5H742.5ZM742.5 106.5H707V143.41C707.757 143.399 708.642 143.388 709.646 143.378C712.925 143.347 717.488 143.324 723.033 143.308C728.625 143.292 735.217 143.283 742.5 143.28V106.5ZM745.5 143.279V106.5H783V143.308C777.121 143.299 771.323 143.292 765.701 143.287C758.626 143.281 751.83 143.278 745.5 143.279ZM742.5 146.28C735.219 146.283 728.63 146.292 723.042 146.308C717.499 146.324 712.944 146.347 709.675 146.378C708.653 146.388 707.759 146.399 707 146.41V183.5H742.5V146.28ZM745.5 183.5V146.279C751.828 146.278 758.624 146.281 765.699 146.287C771.321 146.292 777.12 146.299 783 146.308V183.5H745.5ZM742.5 186.5H707V222H742.5V186.5ZM745.5 222V186.5H783V222H745.5ZM704 225V65H864V225H704ZM786 222H822.75V186.5H786V222ZM786 183.5H822.75V146.386C810.782 146.357 798.25 146.332 786 146.313V183.5ZM786 143.313C798.25 143.332 810.782 143.357 822.75 143.386V106.5H786V143.313ZM786 103.5H822.75V68H786V103.5ZM783 68H745.5V103.5H783V68ZM825.75 68V103.5H861V68H825.75ZM861 106.5H825.75V143.393C838.601 143.424 850.708 143.458 861 143.49V106.5ZM861 146.491C850.709 146.458 838.601 146.424 825.75 146.393V183.5H861V146.491ZM861 186.5H825.75V222H861V186.5Z" fill="white"/>
<path id="Rectangle 113_2" d="M704 65H744V105H704V65Z" fill="#2CF30B"/>
<path id="Rectangle 115_2" d="M824 65H864V105H824V65Z" fill="#13EBF9"/>
<path id="Rectangle 114_2" d="M784 67H824V107H784V67Z" fill="#E8A1EE"/>
</g>
</g>
</svg>
