<svg viewBox="0 0 971 682" fill="none" xmlns="http://www.w3.org/2000/svg">
<g id="0127116">
<g id="enunciado">
<g id="Group 71">
<path id="Rectangle 1" d="M30 37.2599C30 17.7272 52.5821 1.89282 80.4386 1.89282H950V246.633C950 266.166 927.418 282 899.561 282H30V37.2599Z" fill="#02071A"/>
<path id="Rectangle 1 (Stroke)" fill-rule="evenodd" clip-rule="evenodd" d="M944.956 5.40036H80.4386C55.3678 5.40036 35.0439 19.6528 35.0439 37.234V278.463H899.561C924.632 278.463 944.956 264.21 944.956 246.629V5.40036ZM80.4386 1.86328C52.5821 1.86328 30 17.6993 30 37.234V282H899.561C927.418 282 950 266.164 950 246.629V1.86328H80.4386Z" fill="#CD08D1"/>
<path id="Rectangle 14" d="M84.6249 1.95625C111.602 -2.44531 950 1.95625 950 1.95625V21.0115C950 21.0115 70.3508 14.0077 39.0789 21.0115C48.8093 10.9049 57.6479 6.3578 84.6249 1.95625Z" fill="#CD08D1"/>
<path id="Rectangle 15" d="M918.076 6.0564H948.066V247.362C944.385 263.737 936.755 269.756 918.076 277.612C923.574 264.747 918.076 6.0564 918.076 6.0564Z" fill="#CD08D1"/>
<g id="Group 236">
<path id="Union" fill-rule="evenodd" clip-rule="evenodd" d="M229.593 132.37H189.247V170.593H229.593V132.37ZM229.593 128.124H233.84H276.309H277.382H280.556V132.37V170.593V181.21V219.432V223.679H276.309H233.84H229.593H189.247H185V219.432V181.21V170.593V132.37V128.124H189.247H229.593ZM273.135 132.37H233.84V170.593H234.913L273.135 132.37ZM240.919 170.593L276.309 135.203V170.593H240.919ZM229.593 181.21V217.361L192.526 181.21H229.593ZM189.247 219.432H225.634L189.247 183.944V219.432ZM233.84 219.432H276.309V181.21H233.84V219.432ZM227.469 191.827C227.469 196.518 223.666 200.321 218.975 200.321C214.284 200.321 210.481 196.518 210.481 191.827C210.481 187.136 214.284 183.333 218.975 183.333C223.666 183.333 227.469 187.136 227.469 191.827ZM251.889 145.111C251.889 148.043 249.512 150.42 246.58 150.42C243.648 150.42 241.272 148.043 241.272 145.111C241.272 142.179 243.648 139.803 246.58 139.803C249.512 139.803 251.889 142.179 251.889 145.111ZM255.074 145.111C255.074 149.802 251.271 153.605 246.58 153.605C241.889 153.605 238.086 149.802 238.086 145.111C238.086 140.42 241.889 136.617 246.58 136.617C251.271 136.617 255.074 140.42 255.074 145.111Z" fill="white"/>
<path id="Union_2" fill-rule="evenodd" clip-rule="evenodd" d="M299.667 179.087V219.432H337.889V179.087H299.667ZM295.42 179.087V174.84V132.371V131.297V128.124H299.667H337.889H348.506H386.728H390.975V132.371V174.84V179.087V219.432V223.679H386.728H348.506H337.889H299.667H295.42V219.432V179.087ZM299.667 135.544V174.84H337.889V173.766L299.667 135.544ZM337.889 167.76L302.499 132.371H337.889V167.76ZM348.506 179.087H384.657L348.506 216.153V179.087ZM386.728 219.432V183.046L351.24 219.432H386.728ZM386.728 174.84V132.371H348.506V174.84H386.728ZM359.123 181.21C363.814 181.21 367.617 185.013 367.617 189.704C367.617 194.395 363.814 198.198 359.123 198.198C354.432 198.198 350.63 194.395 350.63 189.704C350.63 185.013 354.432 181.21 359.123 181.21ZM312.407 156.79C315.339 156.79 317.716 159.167 317.716 162.099C317.716 165.031 315.339 167.408 312.407 167.408C309.476 167.408 307.099 165.031 307.099 162.099C307.099 159.167 309.476 156.79 312.407 156.79ZM312.407 153.605C317.098 153.605 320.901 157.408 320.901 162.099C320.901 166.79 317.098 170.593 312.407 170.593C307.716 170.593 303.914 166.79 303.914 162.099C303.914 157.408 307.716 153.605 312.407 153.605Z" fill="white"/>
<path id="Union_3" fill-rule="evenodd" clip-rule="evenodd" d="M456.802 219.432H497.148V181.21H456.802V219.432ZM456.802 223.679H452.556H410.086H409.013H405.84V219.432V181.21V170.593V132.371V128.124H410.086H452.556H456.802H497.148H501.395V132.371V170.593V181.21V219.432V223.679H497.148H456.802ZM413.26 219.432H452.556V181.21H451.482L413.26 219.432ZM445.476 181.21L410.086 216.6V181.21H445.476ZM456.802 170.593V134.442L493.869 170.593H456.802ZM497.148 132.371H460.762L497.148 167.859V132.371ZM452.556 132.371H410.086V170.593H452.556V132.371ZM458.926 159.975C458.926 155.284 462.729 151.482 467.42 151.482C472.111 151.482 475.914 155.284 475.914 159.975C475.914 164.667 472.111 168.469 467.42 168.469C462.729 168.469 458.926 164.667 458.926 159.975ZM434.506 206.692C434.506 203.76 436.883 201.383 439.815 201.383C442.747 201.383 445.123 203.76 445.123 206.692C445.123 209.623 442.747 212 439.815 212C436.883 212 434.506 209.623 434.506 206.692ZM431.321 206.692C431.321 202.001 435.124 198.198 439.815 198.198C444.506 198.198 448.309 202.001 448.309 206.692C448.309 211.383 444.506 215.185 439.815 215.185C435.124 215.185 431.321 211.383 431.321 206.692Z" fill="white"/>
<path id="Union_4" fill-rule="evenodd" clip-rule="evenodd" d="M607.568 172.716V132.37H569.346V172.716H607.568ZM611.815 172.716V176.963V219.432V220.506V223.679H607.568H569.346H558.728H520.506H516.259V219.432V176.963V172.716V132.37V128.124H520.506H558.728H569.346H607.568H611.815V132.37V172.716ZM607.568 216.259V176.963H569.346V178.037L607.568 216.259ZM569.346 184.043L604.735 219.432H569.346V184.043ZM558.728 172.716H522.577L558.728 135.65V172.716ZM520.506 132.37V168.757L555.994 132.37H520.506ZM520.506 176.963V219.432H558.728V176.963H520.506ZM548.111 170.593C543.42 170.593 539.617 166.79 539.617 162.099C539.617 157.408 543.42 153.605 548.111 153.605C552.802 153.605 556.605 157.408 556.605 162.099C556.605 166.79 552.802 170.593 548.111 170.593ZM594.827 195.012C591.895 195.012 589.519 192.636 589.519 189.704C589.519 186.772 591.895 184.395 594.827 184.395C597.759 184.395 600.136 186.772 600.136 189.704C600.136 192.636 597.759 195.012 594.827 195.012ZM594.827 198.198C590.136 198.198 586.333 194.395 586.333 189.704C586.333 185.013 590.136 181.21 594.827 181.21C599.518 181.21 603.321 185.013 603.321 189.704C603.321 194.395 599.518 198.198 594.827 198.198Z" fill="white"/>
<path id="Union_5" fill-rule="evenodd" clip-rule="evenodd" d="M630.926 130.247H717.988V221.753H630.926V130.247ZM626.679 126H630.926H717.988H722.235V130.247V221.753V226H717.988H630.926H626.679V221.753V130.247V126ZM665.951 181.007V162.53H662.349V180.951C662.349 182.917 661.807 184.441 660.725 185.523C659.655 186.606 658.106 187.147 656.078 187.147C654.075 187.147 652.532 186.606 651.449 185.523C650.367 184.428 649.826 182.898 649.826 180.932V162.53H646.28V181.044C646.304 183.856 647.2 186.064 648.967 187.669C650.734 189.274 653.104 190.077 656.078 190.077L657.03 190.04C659.767 189.841 661.932 188.926 663.524 187.296C665.129 185.666 665.938 183.57 665.951 181.007ZM688.888 189.704H692.49V162.53H688.925V183.564L675.208 162.53H671.606V189.704H675.208V168.764L688.888 189.704ZM699.115 189.704H702.698V162.53H699.115V189.704Z" fill="white"/>
</g>
</g>
<g id="Indique la alternativa que debe ocupar el casillero UNI">
<path d="M50.5918 83H47.2168V57.4062H50.5918V83Z" fill="white"/>
<path d="M59.3457 63.9805L59.4512 66.3711C60.9043 64.543 62.8027 63.6289 65.1465 63.6289C69.166 63.6289 71.1934 65.8965 71.2285 70.4316V83H67.9766V70.4141C67.9648 69.043 67.6484 68.0293 67.0273 67.373C66.418 66.7168 65.4629 66.3887 64.1621 66.3887C63.1074 66.3887 62.1816 66.6699 61.3848 67.2324C60.5879 67.7949 59.9668 68.5332 59.5215 69.4473V83H56.2695V63.9805H59.3457Z" fill="white"/>
<path d="M75.3418 73.332C75.3418 70.4141 76.0332 68.0703 77.416 66.3008C78.7988 64.5195 80.6094 63.6289 82.8477 63.6289C85.0742 63.6289 86.8379 64.3906 88.1387 65.9141V56H91.3906V83H88.4023L88.2441 80.9609C86.9434 82.5547 85.1328 83.3516 82.8125 83.3516C80.6094 83.3516 78.8105 82.4492 77.416 80.6445C76.0332 78.8398 75.3418 76.4844 75.3418 73.5781V73.332ZM78.5938 73.7012C78.5938 75.8574 79.0391 77.5449 79.9297 78.7637C80.8203 79.9824 82.0508 80.5918 83.6211 80.5918C85.6836 80.5918 87.1895 79.666 88.1387 77.8145V69.0781C87.166 67.2852 85.6719 66.3887 83.6562 66.3887C82.0625 66.3887 80.8203 67.0039 79.9297 68.2344C79.0391 69.4648 78.5938 71.2871 78.5938 73.7012Z" fill="white"/>
<path d="M99.9863 83H96.7344V63.9805H99.9863V83ZM96.4707 58.9355C96.4707 58.4082 96.6289 57.9629 96.9453 57.5996C97.2734 57.2363 97.7539 57.0547 98.3867 57.0547C99.0195 57.0547 99.5 57.2363 99.8281 57.5996C100.156 57.9629 100.32 58.4082 100.32 58.9355C100.32 59.4629 100.156 59.9023 99.8281 60.2539C99.5 60.6055 99.0195 60.7812 98.3867 60.7812C97.7539 60.7812 97.2734 60.6055 96.9453 60.2539C96.6289 59.9023 96.4707 59.4629 96.4707 58.9355Z" fill="white"/>
<path d="M104.416 73.332C104.416 70.3438 105.102 67.9824 106.473 66.248C107.844 64.502 109.684 63.6289 111.992 63.6289C114.242 63.6289 116.018 64.3848 117.318 65.8965L117.459 63.9805H120.447V90.3125H117.195V81.2422C115.883 82.6484 114.137 83.3516 111.957 83.3516C109.66 83.3516 107.826 82.4609 106.455 80.6797C105.096 78.8867 104.416 76.5137 104.416 73.5605V73.332ZM107.668 73.7012C107.668 75.8809 108.125 77.5918 109.039 78.834C109.965 80.0762 111.207 80.6973 112.766 80.6973C114.699 80.6973 116.176 79.8418 117.195 78.1309V68.8145C116.164 67.1387 114.699 66.3008 112.801 66.3008C111.23 66.3008 109.982 66.9277 109.057 68.1816C108.131 69.4238 107.668 71.2637 107.668 73.7012Z" fill="white"/>
<path d="M137.41 81.1191C136.145 82.6074 134.287 83.3516 131.838 83.3516C129.811 83.3516 128.264 82.7656 127.197 81.5938C126.143 80.4102 125.609 78.6641 125.598 76.3555V63.9805H128.85V76.2676C128.85 79.1504 130.021 80.5918 132.365 80.5918C134.85 80.5918 136.502 79.666 137.322 77.8145V63.9805H140.574V83H137.48L137.41 81.1191Z" fill="white"/>
<path d="M153.424 83.3516C150.846 83.3516 148.748 82.5078 147.131 80.8203C145.514 79.1211 144.705 76.8535 144.705 74.0176V73.4199C144.705 71.5332 145.062 69.8516 145.777 68.375C146.504 66.8867 147.512 65.7266 148.801 64.8945C150.102 64.0508 151.508 63.6289 153.02 63.6289C155.492 63.6289 157.414 64.4434 158.785 66.0723C160.156 67.7012 160.842 70.0332 160.842 73.0684V74.4219H147.957C148.004 76.2969 148.549 77.8145 149.592 78.9746C150.646 80.123 151.982 80.6973 153.6 80.6973C154.748 80.6973 155.721 80.4629 156.518 79.9941C157.314 79.5254 158.012 78.9043 158.609 78.1309L160.596 79.6777C159.002 82.127 156.611 83.3516 153.424 83.3516ZM153.02 66.3008C151.707 66.3008 150.605 66.7812 149.715 67.7422C148.824 68.6914 148.273 70.0273 148.062 71.75H157.59V71.5039C157.496 69.8516 157.051 68.5742 156.254 67.6719C155.457 66.7578 154.379 66.3008 153.02 66.3008Z" fill="white"/>
<path d="M177.084 83H173.832V56H177.084V83Z" fill="white"/>
<path d="M194.047 83C193.859 82.625 193.707 81.957 193.59 80.9961C192.078 82.5664 190.273 83.3516 188.176 83.3516C186.301 83.3516 184.76 82.8242 183.553 81.7695C182.357 80.7031 181.76 79.3555 181.76 77.7266C181.76 75.7461 182.51 74.2109 184.01 73.1211C185.521 72.0195 187.643 71.4688 190.373 71.4688H193.537V69.9746C193.537 68.8379 193.197 67.9355 192.518 67.2676C191.838 66.5879 190.836 66.248 189.512 66.248C188.352 66.248 187.379 66.541 186.594 67.127C185.809 67.7129 185.416 68.4219 185.416 69.2539H182.146C182.146 68.3047 182.48 67.3906 183.148 66.5117C183.828 65.6211 184.742 64.918 185.891 64.4023C187.051 63.8867 188.322 63.6289 189.705 63.6289C191.896 63.6289 193.613 64.1797 194.855 65.2812C196.098 66.3711 196.742 67.877 196.789 69.7988V78.5527C196.789 80.2988 197.012 81.6875 197.457 82.7188V83H194.047ZM188.65 80.5215C189.67 80.5215 190.637 80.2578 191.551 79.7305C192.465 79.2031 193.127 78.5176 193.537 77.6738V73.7715H190.988C187.004 73.7715 185.012 74.9375 185.012 77.2695C185.012 78.2891 185.352 79.0859 186.031 79.6602C186.711 80.2344 187.584 80.5215 188.65 80.5215Z" fill="white"/>
<path d="M222.559 83C222.371 82.625 222.219 81.957 222.102 80.9961C220.59 82.5664 218.785 83.3516 216.688 83.3516C214.812 83.3516 213.271 82.8242 212.064 81.7695C210.869 80.7031 210.271 79.3555 210.271 77.7266C210.271 75.7461 211.021 74.2109 212.521 73.1211C214.033 72.0195 216.154 71.4688 218.885 71.4688H222.049V69.9746C222.049 68.8379 221.709 67.9355 221.029 67.2676C220.35 66.5879 219.348 66.248 218.023 66.248C216.863 66.248 215.891 66.541 215.105 67.127C214.32 67.7129 213.928 68.4219 213.928 69.2539H210.658C210.658 68.3047 210.992 67.3906 211.66 66.5117C212.34 65.6211 213.254 64.918 214.402 64.4023C215.562 63.8867 216.834 63.6289 218.217 63.6289C220.408 63.6289 222.125 64.1797 223.367 65.2812C224.609 66.3711 225.254 67.877 225.301 69.7988V78.5527C225.301 80.2988 225.523 81.6875 225.969 82.7188V83H222.559ZM217.162 80.5215C218.182 80.5215 219.148 80.2578 220.062 79.7305C220.977 79.2031 221.639 78.5176 222.049 77.6738V73.7715H219.5C215.516 73.7715 213.523 74.9375 213.523 77.2695C213.523 78.2891 213.863 79.0859 214.543 79.6602C215.223 80.2344 216.096 80.5215 217.162 80.5215Z" fill="white"/>
<path d="M233.932 83H230.68V56H233.932V83Z" fill="white"/>
<path d="M243.564 59.375V63.9805H247.115V66.4941H243.564V78.2891C243.564 79.0508 243.723 79.625 244.039 80.0117C244.355 80.3867 244.895 80.5742 245.656 80.5742C246.031 80.5742 246.547 80.5039 247.203 80.3633V83C246.348 83.2344 245.516 83.3516 244.707 83.3516C243.254 83.3516 242.158 82.9121 241.42 82.0332C240.682 81.1543 240.312 79.9062 240.312 78.2891V66.4941H236.85V63.9805H240.312V59.375H243.564Z" fill="white"/>
<path d="M258.822 83.3516C256.244 83.3516 254.146 82.5078 252.529 80.8203C250.912 79.1211 250.104 76.8535 250.104 74.0176V73.4199C250.104 71.5332 250.461 69.8516 251.176 68.375C251.902 66.8867 252.91 65.7266 254.199 64.8945C255.5 64.0508 256.906 63.6289 258.418 63.6289C260.891 63.6289 262.812 64.4434 264.184 66.0723C265.555 67.7012 266.24 70.0332 266.24 73.0684V74.4219H253.355C253.402 76.2969 253.947 77.8145 254.99 78.9746C256.045 80.123 257.381 80.6973 258.998 80.6973C260.146 80.6973 261.119 80.4629 261.916 79.9941C262.713 79.5254 263.41 78.9043 264.008 78.1309L265.994 79.6777C264.4 82.127 262.01 83.3516 258.822 83.3516ZM258.418 66.3008C257.105 66.3008 256.004 66.7812 255.113 67.7422C254.223 68.6914 253.672 70.0273 253.461 71.75H262.988V71.5039C262.895 69.8516 262.449 68.5742 261.652 67.6719C260.855 66.7578 259.777 66.3008 258.418 66.3008Z" fill="white"/>
<path d="M279.213 66.8984C278.721 66.8164 278.188 66.7754 277.613 66.7754C275.48 66.7754 274.033 67.6836 273.271 69.5V83H270.02V63.9805H273.184L273.236 66.1777C274.303 64.4785 275.814 63.6289 277.771 63.6289C278.404 63.6289 278.885 63.7109 279.213 63.875V66.8984Z" fill="white"/>
<path d="M285.295 63.9805L285.4 66.3711C286.854 64.543 288.752 63.6289 291.096 63.6289C295.115 63.6289 297.143 65.8965 297.178 70.4316V83H293.926V70.4141C293.914 69.043 293.598 68.0293 292.977 67.373C292.367 66.7168 291.412 66.3887 290.111 66.3887C289.057 66.3887 288.131 66.6699 287.334 67.2324C286.537 67.7949 285.916 68.5332 285.471 69.4473V83H282.219V63.9805H285.295Z" fill="white"/>
<path d="M313.824 83C313.637 82.625 313.484 81.957 313.367 80.9961C311.855 82.5664 310.051 83.3516 307.953 83.3516C306.078 83.3516 304.537 82.8242 303.33 81.7695C302.135 80.7031 301.537 79.3555 301.537 77.7266C301.537 75.7461 302.287 74.2109 303.787 73.1211C305.299 72.0195 307.42 71.4688 310.15 71.4688H313.314V69.9746C313.314 68.8379 312.975 67.9355 312.295 67.2676C311.615 66.5879 310.613 66.248 309.289 66.248C308.129 66.248 307.156 66.541 306.371 67.127C305.586 67.7129 305.193 68.4219 305.193 69.2539H301.924C301.924 68.3047 302.258 67.3906 302.926 66.5117C303.605 65.6211 304.52 64.918 305.668 64.4023C306.828 63.8867 308.1 63.6289 309.482 63.6289C311.674 63.6289 313.391 64.1797 314.633 65.2812C315.875 66.3711 316.52 67.877 316.566 69.7988V78.5527C316.566 80.2988 316.789 81.6875 317.234 82.7188V83H313.824ZM308.428 80.5215C309.447 80.5215 310.414 80.2578 311.328 79.7305C312.242 79.2031 312.904 78.5176 313.314 77.6738V73.7715H310.766C306.781 73.7715 304.789 74.9375 304.789 77.2695C304.789 78.2891 305.129 79.0859 305.809 79.6602C306.488 80.2344 307.361 80.5215 308.428 80.5215Z" fill="white"/>
<path d="M326.076 59.375V63.9805H329.627V66.4941H326.076V78.2891C326.076 79.0508 326.234 79.625 326.551 80.0117C326.867 80.3867 327.406 80.5742 328.168 80.5742C328.543 80.5742 329.059 80.5039 329.715 80.3633V83C328.859 83.2344 328.027 83.3516 327.219 83.3516C325.766 83.3516 324.67 82.9121 323.932 82.0332C323.193 81.1543 322.824 79.9062 322.824 78.2891V66.4941H319.361V63.9805H322.824V59.375H326.076Z" fill="white"/>
<path d="M336.975 83H333.723V63.9805H336.975V83ZM333.459 58.9355C333.459 58.4082 333.617 57.9629 333.934 57.5996C334.262 57.2363 334.742 57.0547 335.375 57.0547C336.008 57.0547 336.488 57.2363 336.816 57.5996C337.145 57.9629 337.309 58.4082 337.309 58.9355C337.309 59.4629 337.145 59.9023 336.816 60.2539C336.488 60.6055 336.008 60.7812 335.375 60.7812C334.742 60.7812 334.262 60.6055 333.934 60.2539C333.617 59.9023 333.459 59.4629 333.459 58.9355Z" fill="white"/>
<path d="M348.471 78.5879L353.182 63.9805H356.504L349.684 83H347.205L340.314 63.9805H343.637L348.471 78.5879Z" fill="white"/>
<path d="M371.094 83C370.906 82.625 370.754 81.957 370.637 80.9961C369.125 82.5664 367.32 83.3516 365.223 83.3516C363.348 83.3516 361.807 82.8242 360.6 81.7695C359.404 80.7031 358.807 79.3555 358.807 77.7266C358.807 75.7461 359.557 74.2109 361.057 73.1211C362.568 72.0195 364.689 71.4688 367.42 71.4688H370.584V69.9746C370.584 68.8379 370.244 67.9355 369.564 67.2676C368.885 66.5879 367.883 66.248 366.559 66.248C365.398 66.248 364.426 66.541 363.641 67.127C362.855 67.7129 362.463 68.4219 362.463 69.2539H359.193C359.193 68.3047 359.527 67.3906 360.195 66.5117C360.875 65.6211 361.789 64.918 362.938 64.4023C364.098 63.8867 365.369 63.6289 366.752 63.6289C368.943 63.6289 370.66 64.1797 371.902 65.2812C373.145 66.3711 373.789 67.877 373.836 69.7988V78.5527C373.836 80.2988 374.059 81.6875 374.504 82.7188V83H371.094ZM365.697 80.5215C366.717 80.5215 367.684 80.2578 368.598 79.7305C369.512 79.2031 370.174 78.5176 370.584 77.6738V73.7715H368.035C364.051 73.7715 362.059 74.9375 362.059 77.2695C362.059 78.2891 362.398 79.0859 363.078 79.6602C363.758 80.2344 364.631 80.5215 365.697 80.5215Z" fill="white"/>
<path d="M387.072 73.332C387.072 70.3438 387.758 67.9824 389.129 66.248C390.5 64.502 392.34 63.6289 394.648 63.6289C396.898 63.6289 398.674 64.3848 399.975 65.8965L400.115 63.9805H403.104V90.3125H399.852V81.2422C398.539 82.6484 396.793 83.3516 394.613 83.3516C392.316 83.3516 390.482 82.4609 389.111 80.6797C387.752 78.8867 387.072 76.5137 387.072 73.5605V73.332ZM390.324 73.7012C390.324 75.8809 390.781 77.5918 391.695 78.834C392.621 80.0762 393.863 80.6973 395.422 80.6973C397.355 80.6973 398.832 79.8418 399.852 78.1309V68.8145C398.82 67.1387 397.355 66.3008 395.457 66.3008C393.887 66.3008 392.639 66.9277 391.713 68.1816C390.787 69.4238 390.324 71.2637 390.324 73.7012Z" fill="white"/>
<path d="M420.066 81.1191C418.801 82.6074 416.943 83.3516 414.494 83.3516C412.467 83.3516 410.92 82.7656 409.854 81.5938C408.799 80.4102 408.266 78.6641 408.254 76.3555V63.9805H411.506V76.2676C411.506 79.1504 412.678 80.5918 415.021 80.5918C417.506 80.5918 419.158 79.666 419.979 77.8145V63.9805H423.23V83H420.137L420.066 81.1191Z" fill="white"/>
<path d="M436.08 83.3516C433.502 83.3516 431.404 82.5078 429.787 80.8203C428.17 79.1211 427.361 76.8535 427.361 74.0176V73.4199C427.361 71.5332 427.719 69.8516 428.434 68.375C429.16 66.8867 430.168 65.7266 431.457 64.8945C432.758 64.0508 434.164 63.6289 435.676 63.6289C438.148 63.6289 440.07 64.4434 441.441 66.0723C442.812 67.7012 443.498 70.0332 443.498 73.0684V74.4219H430.613C430.66 76.2969 431.205 77.8145 432.248 78.9746C433.303 80.123 434.639 80.6973 436.256 80.6973C437.404 80.6973 438.377 80.4629 439.174 79.9941C439.971 79.5254 440.668 78.9043 441.266 78.1309L443.252 79.6777C441.658 82.127 439.268 83.3516 436.08 83.3516ZM435.676 66.3008C434.363 66.3008 433.262 66.7812 432.371 67.7422C431.48 68.6914 430.93 70.0273 430.719 71.75H440.246V71.5039C440.152 69.8516 439.707 68.5742 438.91 67.6719C438.113 66.7578 437.035 66.3008 435.676 66.3008Z" fill="white"/>
<path d="M455.416 73.332C455.416 70.4141 456.107 68.0703 457.49 66.3008C458.873 64.5195 460.684 63.6289 462.922 63.6289C465.148 63.6289 466.912 64.3906 468.213 65.9141V56H471.465V83H468.477L468.318 80.9609C467.018 82.5547 465.207 83.3516 462.887 83.3516C460.684 83.3516 458.885 82.4492 457.49 80.6445C456.107 78.8398 455.416 76.4844 455.416 73.5781V73.332ZM458.668 73.7012C458.668 75.8574 459.113 77.5449 460.004 78.7637C460.895 79.9824 462.125 80.5918 463.695 80.5918C465.758 80.5918 467.264 79.666 468.213 77.8145V69.0781C467.24 67.2852 465.746 66.3887 463.73 66.3887C462.137 66.3887 460.895 67.0039 460.004 68.2344C459.113 69.4648 458.668 71.2871 458.668 73.7012Z" fill="white"/>
<path d="M484.42 83.3516C481.842 83.3516 479.744 82.5078 478.127 80.8203C476.51 79.1211 475.701 76.8535 475.701 74.0176V73.4199C475.701 71.5332 476.059 69.8516 476.773 68.375C477.5 66.8867 478.508 65.7266 479.797 64.8945C481.098 64.0508 482.504 63.6289 484.016 63.6289C486.488 63.6289 488.41 64.4434 489.781 66.0723C491.152 67.7012 491.838 70.0332 491.838 73.0684V74.4219H478.953C479 76.2969 479.545 77.8145 480.588 78.9746C481.643 80.123 482.979 80.6973 484.596 80.6973C485.744 80.6973 486.717 80.4629 487.514 79.9941C488.311 79.5254 489.008 78.9043 489.605 78.1309L491.592 79.6777C489.998 82.127 487.607 83.3516 484.42 83.3516ZM484.016 66.3008C482.703 66.3008 481.602 66.7812 480.711 67.7422C479.82 68.6914 479.27 70.0273 479.059 71.75H488.586V71.5039C488.492 69.8516 488.047 68.5742 487.25 67.6719C486.453 66.7578 485.375 66.3008 484.016 66.3008Z" fill="white"/>
<path d="M511.719 73.7012C511.719 76.6074 511.051 78.9453 509.715 80.7148C508.379 82.4727 506.586 83.3516 504.336 83.3516C501.934 83.3516 500.076 82.502 498.764 80.8027L498.605 83H495.617V56H498.869V66.0723C500.182 64.4434 501.992 63.6289 504.301 63.6289C506.609 63.6289 508.42 64.502 509.732 66.248C511.057 67.9941 511.719 70.3848 511.719 73.4199V73.7012ZM508.467 73.332C508.467 71.1172 508.039 69.4062 507.184 68.1992C506.328 66.9922 505.098 66.3887 503.492 66.3887C501.348 66.3887 499.807 67.3848 498.869 69.377V77.6035C499.865 79.5957 501.418 80.5918 503.527 80.5918C505.086 80.5918 506.299 79.9883 507.166 78.7812C508.033 77.5742 508.467 75.7578 508.467 73.332Z" fill="white"/>
<path d="M523.725 83.3516C521.146 83.3516 519.049 82.5078 517.432 80.8203C515.814 79.1211 515.006 76.8535 515.006 74.0176V73.4199C515.006 71.5332 515.363 69.8516 516.078 68.375C516.805 66.8867 517.812 65.7266 519.102 64.8945C520.402 64.0508 521.809 63.6289 523.32 63.6289C525.793 63.6289 527.715 64.4434 529.086 66.0723C530.457 67.7012 531.143 70.0332 531.143 73.0684V74.4219H518.258C518.305 76.2969 518.85 77.8145 519.893 78.9746C520.947 80.123 522.283 80.6973 523.9 80.6973C525.049 80.6973 526.021 80.4629 526.818 79.9941C527.615 79.5254 528.312 78.9043 528.91 78.1309L530.896 79.6777C529.303 82.127 526.912 83.3516 523.725 83.3516ZM523.32 66.3008C522.008 66.3008 520.906 66.7812 520.016 67.7422C519.125 68.6914 518.574 70.0273 518.363 71.75H527.891V71.5039C527.797 69.8516 527.352 68.5742 526.555 67.6719C525.758 66.7578 524.68 66.3008 523.32 66.3008Z" fill="white"/>
<path d="M542.99 73.3145C542.99 71.4512 543.354 69.7754 544.08 68.2871C544.818 66.7988 545.838 65.6504 547.139 64.8418C548.451 64.0332 549.945 63.6289 551.621 63.6289C554.211 63.6289 556.303 64.5254 557.896 66.3184C559.502 68.1113 560.305 70.4961 560.305 73.4727V73.7012C560.305 75.5527 559.947 77.2168 559.232 78.6934C558.529 80.1582 557.516 81.3008 556.191 82.1211C554.879 82.9414 553.367 83.3516 551.656 83.3516C549.078 83.3516 546.986 82.4551 545.381 80.6621C543.787 78.8691 542.99 76.4961 542.99 73.543V73.3145ZM546.26 73.7012C546.26 75.8105 546.746 77.5039 547.719 78.7812C548.703 80.0586 550.016 80.6973 551.656 80.6973C553.309 80.6973 554.621 80.0527 555.594 78.7637C556.566 77.4629 557.053 75.6465 557.053 73.3145C557.053 71.2285 556.555 69.541 555.559 68.252C554.574 66.9512 553.262 66.3008 551.621 66.3008C550.016 66.3008 548.721 66.9395 547.736 68.2168C546.752 69.4941 546.26 71.3223 546.26 73.7012Z" fill="white"/>
<path d="M572.012 80.6973C573.172 80.6973 574.186 80.3457 575.053 79.6426C575.92 78.9395 576.4 78.0605 576.494 77.0059H579.57C579.512 78.0957 579.137 79.1328 578.445 80.1172C577.754 81.1016 576.828 81.8867 575.668 82.4727C574.52 83.0586 573.301 83.3516 572.012 83.3516C569.422 83.3516 567.359 82.4902 565.824 80.7676C564.301 79.0332 563.539 76.666 563.539 73.666V73.1211C563.539 71.2695 563.879 69.623 564.559 68.1816C565.238 66.7402 566.211 65.6211 567.477 64.8242C568.754 64.0273 570.26 63.6289 571.994 63.6289C574.127 63.6289 575.896 64.2676 577.303 65.5449C578.721 66.8223 579.477 68.4805 579.57 70.5195H576.494C576.4 69.2891 575.932 68.2812 575.088 67.4961C574.256 66.6992 573.225 66.3008 571.994 66.3008C570.342 66.3008 569.059 66.8984 568.145 68.0938C567.242 69.2773 566.791 70.9941 566.791 73.2441V73.8594C566.791 76.0508 567.242 77.7383 568.145 78.9219C569.047 80.1055 570.336 80.6973 572.012 80.6973Z" fill="white"/>
<path d="M594.969 81.1191C593.703 82.6074 591.846 83.3516 589.396 83.3516C587.369 83.3516 585.822 82.7656 584.756 81.5938C583.701 80.4102 583.168 78.6641 583.156 76.3555V63.9805H586.408V76.2676C586.408 79.1504 587.58 80.5918 589.924 80.5918C592.408 80.5918 594.061 79.666 594.881 77.8145V63.9805H598.133V83H595.039L594.969 81.1191Z" fill="white"/>
<path d="M619.156 73.7012C619.156 76.5957 618.494 78.9277 617.17 80.6973C615.846 82.4668 614.053 83.3516 611.791 83.3516C609.482 83.3516 607.666 82.6191 606.342 81.1543V90.3125H603.09V63.9805H606.061L606.219 66.0898C607.543 64.4492 609.383 63.6289 611.738 63.6289C614.023 63.6289 615.828 64.4902 617.152 66.2129C618.488 67.9355 619.156 70.332 619.156 73.4023V73.7012ZM615.904 73.332C615.904 71.1875 615.447 69.4941 614.533 68.252C613.619 67.0098 612.365 66.3887 610.771 66.3887C608.803 66.3887 607.326 67.2617 606.342 69.0078V78.0957C607.314 79.8301 608.803 80.6973 610.807 80.6973C612.365 80.6973 613.602 80.082 614.516 78.8516C615.441 77.6094 615.904 75.7695 615.904 73.332Z" fill="white"/>
<path d="M635.047 83C634.859 82.625 634.707 81.957 634.59 80.9961C633.078 82.5664 631.273 83.3516 629.176 83.3516C627.301 83.3516 625.76 82.8242 624.553 81.7695C623.357 80.7031 622.76 79.3555 622.76 77.7266C622.76 75.7461 623.51 74.2109 625.01 73.1211C626.521 72.0195 628.643 71.4688 631.373 71.4688H634.537V69.9746C634.537 68.8379 634.197 67.9355 633.518 67.2676C632.838 66.5879 631.836 66.248 630.512 66.248C629.352 66.248 628.379 66.541 627.594 67.127C626.809 67.7129 626.416 68.4219 626.416 69.2539H623.146C623.146 68.3047 623.48 67.3906 624.148 66.5117C624.828 65.6211 625.742 64.918 626.891 64.4023C628.051 63.8867 629.322 63.6289 630.705 63.6289C632.896 63.6289 634.613 64.1797 635.855 65.2812C637.098 66.3711 637.742 67.877 637.789 69.7988V78.5527C637.789 80.2988 638.012 81.6875 638.457 82.7188V83H635.047ZM629.65 80.5215C630.67 80.5215 631.637 80.2578 632.551 79.7305C633.465 79.2031 634.127 78.5176 634.537 77.6738V73.7715H631.988C628.004 73.7715 626.012 74.9375 626.012 77.2695C626.012 78.2891 626.352 79.0859 627.031 79.6602C627.711 80.2344 628.584 80.5215 629.65 80.5215Z" fill="white"/>
<path d="M652.08 66.8984C651.588 66.8164 651.055 66.7754 650.48 66.7754C648.348 66.7754 646.9 67.6836 646.139 69.5V83H642.887V63.9805H646.051L646.104 66.1777C647.17 64.4785 648.682 63.6289 650.639 63.6289C651.271 63.6289 651.752 63.7109 652.08 63.875V66.8984Z" fill="white"/>
<path d="M671.908 83.3516C669.33 83.3516 667.232 82.5078 665.615 80.8203C663.998 79.1211 663.189 76.8535 663.189 74.0176V73.4199C663.189 71.5332 663.547 69.8516 664.262 68.375C664.988 66.8867 665.996 65.7266 667.285 64.8945C668.586 64.0508 669.992 63.6289 671.504 63.6289C673.977 63.6289 675.898 64.4434 677.27 66.0723C678.641 67.7012 679.326 70.0332 679.326 73.0684V74.4219H666.441C666.488 76.2969 667.033 77.8145 668.076 78.9746C669.131 80.123 670.467 80.6973 672.084 80.6973C673.232 80.6973 674.205 80.4629 675.002 79.9941C675.799 79.5254 676.496 78.9043 677.094 78.1309L679.08 79.6777C677.486 82.127 675.096 83.3516 671.908 83.3516ZM671.504 66.3008C670.191 66.3008 669.09 66.7812 668.199 67.7422C667.309 68.6914 666.758 70.0273 666.547 71.75H676.074V71.5039C675.98 69.8516 675.535 68.5742 674.738 67.6719C673.941 66.7578 672.863 66.3008 671.504 66.3008Z" fill="white"/>
<path d="M686.639 83H683.387V56H686.639V83Z" fill="white"/>
<path d="M708.418 80.6973C709.578 80.6973 710.592 80.3457 711.459 79.6426C712.326 78.9395 712.807 78.0605 712.9 77.0059H715.977C715.918 78.0957 715.543 79.1328 714.852 80.1172C714.16 81.1016 713.234 81.8867 712.074 82.4727C710.926 83.0586 709.707 83.3516 708.418 83.3516C705.828 83.3516 703.766 82.4902 702.23 80.7676C700.707 79.0332 699.945 76.666 699.945 73.666V73.1211C699.945 71.2695 700.285 69.623 700.965 68.1816C701.645 66.7402 702.617 65.6211 703.883 64.8242C705.16 64.0273 706.666 63.6289 708.4 63.6289C710.533 63.6289 712.303 64.2676 713.709 65.5449C715.127 66.8223 715.883 68.4805 715.977 70.5195H712.9C712.807 69.2891 712.338 68.2812 711.494 67.4961C710.662 66.6992 709.631 66.3008 708.4 66.3008C706.748 66.3008 705.465 66.8984 704.551 68.0938C703.648 69.2773 703.197 70.9941 703.197 73.2441V73.8594C703.197 76.0508 703.648 77.7383 704.551 78.9219C705.453 80.1055 706.742 80.6973 708.418 80.6973Z" fill="white"/>
<path d="M731.375 83C731.188 82.625 731.035 81.957 730.918 80.9961C729.406 82.5664 727.602 83.3516 725.504 83.3516C723.629 83.3516 722.088 82.8242 720.881 81.7695C719.686 80.7031 719.088 79.3555 719.088 77.7266C719.088 75.7461 719.838 74.2109 721.338 73.1211C722.85 72.0195 724.971 71.4688 727.701 71.4688H730.865V69.9746C730.865 68.8379 730.525 67.9355 729.846 67.2676C729.166 66.5879 728.164 66.248 726.84 66.248C725.68 66.248 724.707 66.541 723.922 67.127C723.137 67.7129 722.744 68.4219 722.744 69.2539H719.475C719.475 68.3047 719.809 67.3906 720.477 66.5117C721.156 65.6211 722.07 64.918 723.219 64.4023C724.379 63.8867 725.65 63.6289 727.033 63.6289C729.225 63.6289 730.941 64.1797 732.184 65.2812C733.426 66.3711 734.07 67.877 734.117 69.7988V78.5527C734.117 80.2988 734.34 81.6875 734.785 82.7188V83H731.375ZM725.979 80.5215C726.998 80.5215 727.965 80.2578 728.879 79.7305C729.793 79.2031 730.455 78.5176 730.865 77.6738V73.7715H728.316C724.332 73.7715 722.34 74.9375 722.34 77.2695C722.34 78.2891 722.68 79.0859 723.359 79.6602C724.039 80.2344 724.912 80.5215 725.979 80.5215Z" fill="white"/>
<path d="M750.289 77.9551C750.289 77.0762 749.955 76.3965 749.287 75.916C748.631 75.4238 747.477 75.002 745.824 74.6504C744.184 74.2988 742.877 73.877 741.904 73.3848C740.943 72.8926 740.229 72.3066 739.76 71.627C739.303 70.9473 739.074 70.1387 739.074 69.2012C739.074 67.6426 739.73 66.3242 741.043 65.2461C742.367 64.168 744.055 63.6289 746.105 63.6289C748.262 63.6289 750.008 64.1855 751.344 65.2988C752.691 66.4121 753.365 67.8359 753.365 69.5703H750.096C750.096 68.6797 749.715 67.9121 748.953 67.2676C748.203 66.623 747.254 66.3008 746.105 66.3008C744.922 66.3008 743.996 66.5586 743.328 67.0742C742.66 67.5898 742.326 68.2637 742.326 69.0957C742.326 69.8809 742.637 70.4727 743.258 70.8711C743.879 71.2695 744.998 71.6504 746.615 72.0137C748.244 72.377 749.562 72.8105 750.57 73.3145C751.578 73.8184 752.322 74.4277 752.803 75.1426C753.295 75.8457 753.541 76.707 753.541 77.7266C753.541 79.4258 752.861 80.791 751.502 81.8223C750.143 82.8418 748.379 83.3516 746.211 83.3516C744.688 83.3516 743.34 83.082 742.168 82.543C740.996 82.0039 740.076 81.2539 739.408 80.293C738.752 79.3203 738.424 78.2715 738.424 77.1465H741.676C741.734 78.2363 742.168 79.1035 742.977 79.748C743.797 80.3809 744.875 80.6973 746.211 80.6973C747.441 80.6973 748.426 80.4512 749.164 79.959C749.914 79.4551 750.289 78.7871 750.289 77.9551Z" fill="white"/>
<path d="M761.311 83H758.059V63.9805H761.311V83ZM757.795 58.9355C757.795 58.4082 757.953 57.9629 758.27 57.5996C758.598 57.2363 759.078 57.0547 759.711 57.0547C760.344 57.0547 760.824 57.2363 761.152 57.5996C761.48 57.9629 761.645 58.4082 761.645 58.9355C761.645 59.4629 761.48 59.9023 761.152 60.2539C760.824 60.6055 760.344 60.7812 759.711 60.7812C759.078 60.7812 758.598 60.6055 758.27 60.2539C757.953 59.9023 757.795 59.4629 757.795 58.9355Z" fill="white"/>
<path d="M770.064 83H766.812V56H770.064V83Z" fill="white"/>
<path d="M778.818 83H775.566V56H778.818V83Z" fill="white"/>
<path d="M791.932 83.3516C789.354 83.3516 787.256 82.5078 785.639 80.8203C784.021 79.1211 783.213 76.8535 783.213 74.0176V73.4199C783.213 71.5332 783.57 69.8516 784.285 68.375C785.012 66.8867 786.02 65.7266 787.309 64.8945C788.609 64.0508 790.016 63.6289 791.527 63.6289C794 63.6289 795.922 64.4434 797.293 66.0723C798.664 67.7012 799.35 70.0332 799.35 73.0684V74.4219H786.465C786.512 76.2969 787.057 77.8145 788.1 78.9746C789.154 80.123 790.49 80.6973 792.107 80.6973C793.256 80.6973 794.229 80.4629 795.025 79.9941C795.822 79.5254 796.52 78.9043 797.117 78.1309L799.104 79.6777C797.51 82.127 795.119 83.3516 791.932 83.3516ZM791.527 66.3008C790.215 66.3008 789.113 66.7812 788.223 67.7422C787.332 68.6914 786.781 70.0273 786.57 71.75H796.098V71.5039C796.004 69.8516 795.559 68.5742 794.762 67.6719C793.965 66.7578 792.887 66.3008 791.527 66.3008Z" fill="white"/>
<path d="M812.322 66.8984C811.83 66.8164 811.297 66.7754 810.723 66.7754C808.59 66.7754 807.143 67.6836 806.381 69.5V83H803.129V63.9805H806.293L806.346 66.1777C807.412 64.4785 808.924 63.6289 810.881 63.6289C811.514 63.6289 811.994 63.7109 812.322 63.875V66.8984Z" fill="white"/>
<path d="M814.115 73.3145C814.115 71.4512 814.479 69.7754 815.205 68.2871C815.943 66.7988 816.963 65.6504 818.264 64.8418C819.576 64.0332 821.07 63.6289 822.746 63.6289C825.336 63.6289 827.428 64.5254 829.021 66.3184C830.627 68.1113 831.43 70.4961 831.43 73.4727V73.7012C831.43 75.5527 831.072 77.2168 830.357 78.6934C829.654 80.1582 828.641 81.3008 827.316 82.1211C826.004 82.9414 824.492 83.3516 822.781 83.3516C820.203 83.3516 818.111 82.4551 816.506 80.6621C814.912 78.8691 814.115 76.4961 814.115 73.543V73.3145ZM817.385 73.7012C817.385 75.8105 817.871 77.5039 818.844 78.7812C819.828 80.0586 821.141 80.6973 822.781 80.6973C824.434 80.6973 825.746 80.0527 826.719 78.7637C827.691 77.4629 828.178 75.6465 828.178 73.3145C828.178 71.2285 827.68 69.541 826.684 68.252C825.699 66.9512 824.387 66.3008 822.746 66.3008C821.141 66.3008 819.846 66.9395 818.861 68.2168C817.877 69.4941 817.385 71.3223 817.385 73.7012Z" fill="white"/>
<path d="M862.965 57.4062V74.8086C862.953 77.2227 862.191 79.1973 860.68 80.7324C859.18 82.2676 857.141 83.1289 854.562 83.3164L853.666 83.3516C850.865 83.3516 848.633 82.5957 846.969 81.084C845.305 79.5723 844.461 77.4922 844.438 74.8438V57.4062H847.777V74.7383C847.777 76.5898 848.287 78.0312 849.307 79.0625C850.326 80.082 851.779 80.5918 853.666 80.5918C855.576 80.5918 857.035 80.082 858.043 79.0625C859.062 78.043 859.572 76.6074 859.572 74.7559V57.4062H862.965Z" fill="white"/>
<path d="M887.961 83H884.568L871.684 63.2773V83H868.291V57.4062H871.684L884.604 77.2168V57.4062H887.961V83Z" fill="white"/>
<path d="M897.576 83H894.201V57.4062H897.576V83Z" fill="white"/>
</g>
</g>
<g id="claves">
<g id="Group 21">
<g id="Group 237">
<path id="Rectangle 4" d="M39 338H255.745L289 418L255.745 498H39V338Z" fill="#CD08D1" fill-opacity="0.1"/>
<path id="Rectangle 4 (Stroke)" fill-rule="evenodd" clip-rule="evenodd" d="M254.338 344H42V492H254.338L285.099 418L254.338 344ZM255.745 338H39V498H255.745L289 418L255.745 338Z" fill="#CD08D1"/>
</g>
<g id="Group 238">
<path id="Ellipse 1" d="M80 418C80 440.658 62.0914 459.026 40 459.026C17.9086 459.026 0 440.658 0 418C0 395.342 17.9086 376.974 40 376.974C62.0914 376.974 80 395.342 80 418Z" fill="#CD08D1"/>
<path id="A" d="M48.0938 428.673H30.4688L26.7812 439.538H18.5625L35.75 392.872H42.8438L60.0625 439.538H51.8125L48.0938 428.673ZM32.6875 422.135H45.875L39.2812 402.776L32.6875 422.135Z" fill="white"/>
</g>
</g>
<g id="Group 17">
<g id="Group 239">
<path id="Rectangle 5" d="M382 338H598.745L632 418L598.745 498H382V338Z" fill="#CD08D1" fill-opacity="0.1"/>
<path id="Rectangle 5 (Stroke)" fill-rule="evenodd" clip-rule="evenodd" d="M597.338 344H385V492H597.338L628.099 418L597.338 344ZM598.745 338H382V498H598.745L632 418L598.745 338Z" fill="#CD08D1"/>
</g>
<g id="Group 240">
<path id="Ellipse 2" d="M418 420C418 442.091 400.091 460 378 460C355.909 460 338 442.091 338 420C338 397.909 355.909 380 378 380C400.091 380 418 397.909 418 420Z" fill="#CD08D1"/>
<path id="B" d="M361.625 436V390.5H377.219C382.365 390.5 386.281 391.531 388.969 393.594C391.656 395.656 393 398.729 393 402.812C393 404.896 392.438 406.771 391.312 408.438C390.188 410.104 388.542 411.396 386.375 412.312C388.833 412.979 390.729 414.24 392.062 416.094C393.417 417.927 394.094 420.135 394.094 422.719C394.094 426.99 392.719 430.271 389.969 432.562C387.24 434.854 383.323 436 378.219 436H361.625ZM369.531 415.469V429.688H378.312C380.792 429.688 382.729 429.073 384.125 427.844C385.521 426.615 386.219 424.906 386.219 422.719C386.219 417.99 383.802 415.573 378.969 415.469H369.531ZM369.531 409.656H377.281C379.74 409.656 381.656 409.104 383.031 408C384.427 406.875 385.125 405.292 385.125 403.25C385.125 401 384.479 399.375 383.188 398.375C381.917 397.375 379.927 396.875 377.219 396.875H369.531V409.656Z" fill="white"/>
</g>
</g>
<g id="Group 18">
<g id="Group 241">
<path id="Rectangle 6" d="M721 430H937.745L971 510L937.745 590H721V430Z" fill="#CD08D1" fill-opacity="0.1"/>
<path id="Rectangle 6 (Stroke)" fill-rule="evenodd" clip-rule="evenodd" d="M936.338 436H724V584H936.338L967.099 510L936.338 436ZM937.745 430H721V590H937.745L971 510L937.745 430Z" fill="#CD08D1"/>
</g>
<g id="Group 242">
<path id="Ellipse 3" d="M761 510C761 532.091 743.091 550 721 550C698.909 550 681 532.091 681 510C681 487.909 698.909 470 721 470C743.091 470 761 487.909 761 510Z" fill="#CD08D1"/>
<path id="C" d="M738.344 517.188C737.885 522.042 736.094 525.833 732.969 528.562C729.844 531.271 725.688 532.625 720.5 532.625C716.875 532.625 713.677 531.771 710.906 530.062C708.156 528.333 706.031 525.885 704.531 522.719C703.031 519.552 702.25 515.875 702.188 511.688V507.438C702.188 503.146 702.948 499.365 704.469 496.094C705.99 492.823 708.167 490.302 711 488.531C713.854 486.76 717.146 485.875 720.875 485.875C725.896 485.875 729.938 487.24 733 489.969C736.062 492.698 737.844 496.552 738.344 501.531H730.469C730.094 498.26 729.135 495.906 727.594 494.469C726.073 493.01 723.833 492.281 720.875 492.281C717.438 492.281 714.792 493.542 712.938 496.062C711.104 498.562 710.167 502.24 710.125 507.094V511.125C710.125 516.042 711 519.792 712.75 522.375C714.521 524.958 717.104 526.25 720.5 526.25C723.604 526.25 725.938 525.552 727.5 524.156C729.062 522.76 730.052 520.438 730.469 517.188H738.344Z" fill="white"/>
</g>
</g>
<g id="Group 19">
<g id="Group 243">
<path id="Rectangle 7" d="M39 522H255.745L289 602L255.745 682H39V522Z" fill="#CD08D1" fill-opacity="0.1"/>
<path id="Rectangle 7 (Stroke)" fill-rule="evenodd" clip-rule="evenodd" d="M254.338 528H42V676H254.338L285.099 602L254.338 528ZM255.745 522H39V682H255.745L289 602L255.745 522Z" fill="#CD08D1"/>
</g>
<g id="Group 244">
<path id="Ellipse 4" d="M80 602C80 624.091 62.0914 642 40 642C17.9086 642 0 624.091 0 602C0 579.909 17.9086 562 40 562C62.0914 562 80 579.909 80 602Z" fill="#CD08D1"/>
<path id="D" d="M22.625 624V578.5H36.0625C40.0833 578.5 43.6458 579.396 46.75 581.188C49.875 582.979 52.2917 585.521 54 588.812C55.7083 592.104 56.5625 595.875 56.5625 600.125V602.406C56.5625 606.719 55.6979 610.51 53.9688 613.781C52.2604 617.052 49.8125 619.573 46.625 621.344C43.4583 623.115 39.8229 624 35.7188 624H22.625ZM30.5312 584.875V617.688H35.6875C39.8333 617.688 43.0104 616.396 45.2188 613.812C47.4479 611.208 48.5833 607.479 48.625 602.625V600.094C48.625 595.156 47.5521 591.385 45.4062 588.781C43.2604 586.177 40.1458 584.875 36.0625 584.875H30.5312Z" fill="white"/>
</g>
</g>
<g id="Group 20">
<g id="Group 246">
<path id="Rectangle 8" d="M382 521H598.745L632 601L598.745 681H382V521Z" fill="#CD08D1" fill-opacity="0.1"/>
<path id="Rectangle 8 (Stroke)" fill-rule="evenodd" clip-rule="evenodd" d="M597.338 527H385V675H597.338L628.099 601L597.338 527ZM598.745 521H382V681H598.745L632 601L598.745 521Z" fill="#CD08D1"/>
</g>
<g id="Group 245">
<path id="Ellipse 5" d="M423 602C423 624.091 405.091 642 383 642C360.909 642 343 624.091 343 602C343 579.909 360.909 562 383 562C405.091 562 423 579.909 423 602Z" fill="#CD08D1"/>
<path id="E" d="M392.219 603.688H373.531V617.688H395.375V624H365.625V578.5H395.156V584.875H373.531V597.438H392.219V603.688Z" fill="white"/>
</g>
</g>
<g id="Group 251">
<path id="Union_6" fill-rule="evenodd" clip-rule="evenodd" d="M163 374H118V414H163V374ZM163 370H166H210H214V374V466V470H210H118H114V466V374V370H118H163ZM166 414V375.243L204.757 414H166ZM210 414H209L169 374H210V414ZM159.503 422H118V463.503L159.503 422ZM163 422.745L119.745 466H163V422.745ZM166 466V422H210V466H166ZM130.5 440.5C133.814 440.5 136.5 437.814 136.5 434.5C136.5 431.186 133.814 428.5 130.5 428.5C127.186 428.5 124.5 431.186 124.5 434.5C124.5 437.814 127.186 440.5 130.5 440.5ZM130.5 442C134.642 442 138 438.642 138 434.5C138 430.358 134.642 427 130.5 427C126.358 427 123 430.358 123 434.5C123 438.642 126.358 442 130.5 442ZM198.5 394C202.642 394 206 390.642 206 386.5C206 382.358 202.642 379 198.5 379C194.358 379 191 382.358 191 386.5C191 390.642 194.358 394 198.5 394Z" fill="white"/>
<path id="Union (Stroke)" fill-rule="evenodd" clip-rule="evenodd" d="M116.5 372.5H164.5V371.621L165.379 372.5H211.5V415.5H116.5V372.5ZM116.5 420.5H163.124L164.5 419.124V420.5H211.5V467.5H116.124L116.5 467.124V420.5ZM115.5 371.5V468.5H212.5V371.5H115.5ZM114 370V470H214V370H114ZM166 414V375.243L204.757 414H166ZM210 414H209L169 374H210V414ZM118 422H159.503L118 463.503V422ZM119.745 466H163V422.745L119.745 466ZM166 466V422H210V466H166ZM138 434.5C138 438.642 134.642 442 130.5 442C126.358 442 123 438.642 123 434.5C123 430.358 126.358 427 130.5 427C134.642 427 138 430.358 138 434.5ZM130.5 440.5C133.814 440.5 136.5 437.814 136.5 434.5C136.5 431.186 133.814 428.5 130.5 428.5C127.186 428.5 124.5 431.186 124.5 434.5C124.5 437.814 127.186 440.5 130.5 440.5ZM198.5 392.5C201.814 392.5 204.5 389.814 204.5 386.5C204.5 383.186 201.814 380.5 198.5 380.5C195.186 380.5 192.5 383.186 192.5 386.5C192.5 389.814 195.186 392.5 198.5 392.5ZM163 374V414H118V374H163ZM206 386.5C206 390.642 202.642 394 198.5 394C194.358 394 191 390.642 191 386.5C191 382.358 194.358 379 198.5 379C202.642 379 206 382.358 206 386.5Z" fill="white"/>
<path id="Union_7" fill-rule="evenodd" clip-rule="evenodd" d="M515 370H470V410H515V370ZM515 366H518H562H566V370V462V466H562H470H466V462V370V366H470H515ZM518 370V410H519.503L559.503 370H518ZM562 371.745L523.745 410H562V371.745ZM515 418H473L515 460V418ZM470 462V419.243L512.757 462H470ZM518 462V418H562V462H518ZM531.5 387.5C534.814 387.5 537.5 384.814 537.5 381.5C537.5 378.186 534.814 375.5 531.5 375.5C528.186 375.5 525.5 378.186 525.5 381.5C525.5 384.814 528.186 387.5 531.5 387.5ZM531.5 389C535.642 389 539 385.642 539 381.5C539 377.358 535.642 374 531.5 374C527.358 374 524 377.358 524 381.5C524 385.642 527.358 389 531.5 389ZM501.5 439C505.642 439 509 435.642 509 431.5C509 427.358 505.642 424 501.5 424C497.358 424 494 427.358 494 431.5C494 435.642 497.358 439 501.5 439Z" fill="white"/>
<path id="Union (Stroke)_2" fill-rule="evenodd" clip-rule="evenodd" d="M468.5 368.5H563.124L563.5 368.124V411.5H468.5V368.5ZM469.379 416.5H563.5V463.5H516.5V463.621L516.379 463.5H468.5V415.621L469.379 416.5ZM467.5 367.5V464.5H564.5V367.5H467.5ZM466 366V466H566V366H466ZM519.503 410H518V370H559.503L519.503 410ZM523.745 410H562V371.745L523.745 410ZM473 418L515 460V418H473ZM470 462V419.243L512.757 462H470ZM518 462V418H562V462H518ZM539 381.5C539 385.642 535.642 389 531.5 389C527.358 389 524 385.642 524 381.5C524 377.358 527.358 374 531.5 374C535.642 374 539 377.358 539 381.5ZM531.5 387.5C534.814 387.5 537.5 384.814 537.5 381.5C537.5 378.186 534.814 375.5 531.5 375.5C528.186 375.5 525.5 378.186 525.5 381.5C525.5 384.814 528.186 387.5 531.5 387.5ZM501.5 437.5C504.814 437.5 507.5 434.814 507.5 431.5C507.5 428.186 504.814 425.5 501.5 425.5C498.186 425.5 495.5 428.186 495.5 431.5C495.5 434.814 498.186 437.5 501.5 437.5ZM515 370V410H470V370H515ZM509 431.5C509 435.642 505.642 439 501.5 439C497.358 439 494 435.642 494 431.5C494 427.358 497.358 424 501.5 424C505.642 424 509 427.358 509 431.5Z" fill="white"/>
<path id="Union_8" fill-rule="evenodd" clip-rule="evenodd" d="M841.503 466H800V506H801.503L841.503 466ZM845.503 462H845H800H796V466V558V562H800H892H896V558V466V462H892H848H845.503ZM845 466.745L805.745 506H845V466.745ZM848 466V506H892V466H848ZM845 514H800V558H845V514ZM848 558V515.243L890.757 558H848ZM892 555L851 514H892V555ZM833.5 501.5C836.814 501.5 839.5 498.814 839.5 495.5C839.5 492.186 836.814 489.5 833.5 489.5C830.186 489.5 827.5 492.186 827.5 495.5C827.5 498.814 830.186 501.5 833.5 501.5ZM833.5 503C837.642 503 841 499.642 841 495.5C841 491.358 837.642 488 833.5 488C829.358 488 826 491.358 826 495.5C826 499.642 829.358 503 833.5 503ZM859.5 553C863.642 553 867 549.642 867 545.5C867 541.358 863.642 538 859.5 538C855.358 538 852 541.358 852 545.5C852 549.642 855.358 553 859.5 553Z" fill="white"/>
<path id="Union (Stroke)_3" fill-rule="evenodd" clip-rule="evenodd" d="M798.5 464.5H845.124L846.124 463.5H797.5V560.5H894.5V463.5H846.5V464.5H893.5V507.5H798.5V464.5ZM798.5 512.5H846.5V511.621L847.379 512.5H893.5V558.621L894.379 559.5H798.5V512.5ZM801.503 506H800V466H841.503L801.503 506ZM805.745 506H845V466.745L805.745 506ZM848 558V515.243L890.757 558H848ZM892 555V514H851L892 555ZM841 495.5C841 499.642 837.642 503 833.5 503C829.358 503 826 499.642 826 495.5C826 491.358 829.358 488 833.5 488C837.642 488 841 491.358 841 495.5ZM833.5 501.5C836.814 501.5 839.5 498.814 839.5 495.5C839.5 492.186 836.814 489.5 833.5 489.5C830.186 489.5 827.5 492.186 827.5 495.5C827.5 498.814 830.186 501.5 833.5 501.5ZM859.5 551.5C862.814 551.5 865.5 548.814 865.5 545.5C865.5 542.186 862.814 539.5 859.5 539.5C856.186 539.5 853.5 542.186 853.5 545.5C853.5 548.814 856.186 551.5 859.5 551.5ZM896 462V562H796V462H896ZM848 466H892V506H848V466ZM845 514V558H800V514H845ZM867 545.5C867 549.642 863.642 553 859.5 553C855.358 553 852 549.642 852 545.5C852 541.358 855.358 538 859.5 538C863.642 538 867 541.358 867 545.5Z" fill="white"/>
<path id="Union_9" fill-rule="evenodd" clip-rule="evenodd" d="M161 556H118V600H161V556ZM169 556V556L210 597V556H169ZM169 600V560.243L208.757 600H169ZM160.503 603H118V645.503L160.503 603ZM161 606.745L119.745 648H161V606.745ZM169 648V603H210V648H169ZM118 552H114V556V648V652H118H210H214V648V556V552H210H118ZM130.5 622.5C133.814 622.5 136.5 619.814 136.5 616.5C136.5 613.187 133.814 610.5 130.5 610.5C127.186 610.5 124.5 613.187 124.5 616.5C124.5 619.814 127.186 622.5 130.5 622.5ZM130.5 624C134.642 624 138 620.642 138 616.5C138 612.358 134.642 609 130.5 609C126.358 609 123 612.358 123 616.5C123 620.642 126.358 624 130.5 624ZM198.5 575C202.642 575 206 571.642 206 567.5C206 563.358 202.642 560 198.5 560C194.358 560 191 563.358 191 567.5C191 571.642 194.358 575 198.5 575Z" fill="white"/>
<path id="Union (Stroke)_4" fill-rule="evenodd" clip-rule="evenodd" d="M116.5 554.5H162.5V601.5H164.124L162.5 603.124V649.5H116.124L116.5 649.124V554.5ZM167.5 554.5H211.5V600.622L212.378 601.5H211.5V649.5H167.5V554.5ZM210 556V597L169 556H210ZM169 600V560.243L208.757 600H169ZM118 603H160.503L118 645.503V603ZM119.745 648H161V606.745L119.745 648ZM169 648V603H210V648H169ZM115.5 553.5V650.5H212.5V553.5H115.5ZM138 616.5C138 620.642 134.642 624 130.5 624C126.358 624 123 620.642 123 616.5C123 612.358 126.358 609 130.5 609C134.642 609 138 612.358 138 616.5ZM130.5 622.5C133.814 622.5 136.5 619.814 136.5 616.5C136.5 613.187 133.814 610.5 130.5 610.5C127.186 610.5 124.5 613.187 124.5 616.5C124.5 619.814 127.186 622.5 130.5 622.5ZM198.5 573.5C201.814 573.5 204.5 570.814 204.5 567.5C204.5 564.187 201.814 561.5 198.5 561.5C195.186 561.5 192.5 564.187 192.5 567.5C192.5 570.814 195.186 573.5 198.5 573.5ZM161 556V600H118V556H161ZM214 552V652H114V552H214ZM206 567.5C206 571.642 202.642 575 198.5 575C194.358 575 191 571.642 191 567.5C191 563.358 194.358 560 198.5 560C202.642 560 206 563.358 206 567.5Z" fill="white"/>
<path id="Union_10" fill-rule="evenodd" clip-rule="evenodd" d="M457.121 555.243V556V602L457 602.121L457.121 602.243V648V652H461.121H553.121H557.121V648V556V552H553.121H461.121H457.121V555L457 555.121L457.121 555.243ZM461.121 648V606.243L502.879 648H461.121ZM462.121 603L504.121 645V603H462.121ZM461.121 559.243L501.879 600H461.121V559.243ZM504.121 598V556H462.121L504.121 598ZM512.121 556V556L553.121 597V556H512.121ZM512.121 600V560.243L551.878 600H512.121ZM512.121 648V603H553.121V648H512.121ZM497.621 567.5C497.621 570.814 494.935 573.5 491.621 573.5C488.308 573.5 485.621 570.814 485.621 567.5C485.621 564.186 488.308 561.5 491.621 561.5C494.935 561.5 497.621 564.186 497.621 567.5ZM499.121 567.5C499.121 571.642 495.764 575 491.621 575C487.479 575 484.121 571.642 484.121 567.5C484.121 563.358 487.479 560 491.621 560C495.764 560 499.121 563.358 499.121 567.5ZM549.121 567.5C549.121 571.642 545.764 575 541.621 575C537.479 575 534.121 571.642 534.121 567.5C534.121 563.358 537.479 560 541.621 560C545.764 560 549.121 563.358 549.121 567.5ZM472.621 644C476.764 644 480.121 640.642 480.121 636.5C480.121 632.358 476.764 629 472.621 629C468.479 629 465.121 632.358 465.121 636.5C465.121 640.642 468.479 644 472.621 644Z" fill="white"/>
<path id="Union (Stroke)_5" fill-rule="evenodd" clip-rule="evenodd" d="M458.621 554.621V601.5H459.621V555.621L458.621 554.621ZM458.621 601.621V650.5H555.621V553.5H458.621V554.5H505.621V648.621L506.5 649.5H459.621V602.621L458.621 601.621ZM457.121 602.243L457 602.121L457.121 602V555.243L457 555.121L457.121 555V552H557.121V652H457.121V602.243ZM510.621 554.5H554.621V600.622L555.5 601.5H554.621V649.5H510.621V554.5ZM461.121 648V606.243L502.879 648H461.121ZM504.121 645V603H462.121L504.121 645ZM461.121 559.243V600H501.879L461.121 559.243ZM504.121 556V598L462.121 556H504.121ZM553.121 556V597L512.122 556H553.121ZM512.121 600V560.243L551.878 600H512.121ZM512.121 648V603H553.121V648H512.121ZM499.121 567.5C499.121 571.642 495.764 575 491.621 575C487.479 575 484.121 571.642 484.121 567.5C484.121 563.358 487.479 560 491.621 560C495.764 560 499.121 563.358 499.121 567.5ZM491.621 573.5C494.935 573.5 497.621 570.814 497.621 567.5C497.621 564.186 494.935 561.5 491.621 561.5C488.308 561.5 485.621 564.186 485.621 567.5C485.621 570.814 488.308 573.5 491.621 573.5ZM541.621 573.5C544.935 573.5 547.621 570.814 547.621 567.5C547.621 564.187 544.935 561.5 541.621 561.5C538.308 561.5 535.621 564.187 535.621 567.5C535.621 570.814 538.308 573.5 541.621 573.5ZM472.621 642.5C475.935 642.5 478.621 639.814 478.621 636.5C478.621 633.186 475.935 630.5 472.621 630.5C469.308 630.5 466.621 633.186 466.621 636.5C466.621 639.814 469.308 642.5 472.621 642.5ZM541.621 575C545.764 575 549.121 571.642 549.121 567.5C549.121 563.358 545.764 560 541.621 560C537.479 560 534.121 563.358 534.121 567.5C534.121 571.642 537.479 575 541.621 575ZM480.121 636.5C480.121 640.642 476.764 644 472.621 644C468.479 644 465.121 640.642 465.121 636.5C465.121 632.358 468.479 629 472.621 629C476.764 629 480.121 632.358 480.121 636.5Z" fill="white"/>
</g>
<g id="flecha">
<path id="Rectangle 2" d="M391.2 383.008L406.482 391.133L364.5 470.089L349.219 461.963L391.2 383.008Z" fill="#1043F5"/>
<path id="Rectangle 1_2" d="M333 395.904L423 346V403.692L378 386.096L333 395.904Z" fill="#1043F5"/>
<path id="Rectangle 3" d="M337.038 465.21L352.666 438.143L369.936 437.565L354.309 464.632L337.038 465.21Z" fill="#1043F5"/>
<path id="Rectangle 4_2" d="M363.089 479.845L378.717 452.778L369.926 437.154L354.299 464.221L363.089 479.845Z" fill="#1043F5"/>
</g>
</g>
</g>
</svg>
