<svg viewBox="0 0 900 476" fill="none" xmlns="http://www.w3.org/2000/svg">
    <g id="0131202">
        <g id="primero">
            <path id="Rectangle 17 (Stroke)" fill-rule="evenodd" clip-rule="evenodd"
                d="M0 400H900V0H0V400ZM5 5V98.1305C6.176 98.2171 7.56856 98.3018 9.17506 98.384C14.2746 98.6451 21.4299 98.8774 30.4395 99.0825C48.4532 99.4925 73.8071 99.792 104.796 99.9985C166.771 100.411 251.241 100.452 344.507 100.263C443.721 100.061 552.884 99.5987 655.5 99.0471V5H5ZM660.5 5V99.0202C700.898 98.8015 740.236 98.5693 777.5 98.3341V5H660.5ZM782.5 5V98.3025C822.962 98.0456 860.901 97.7858 895 97.5366V5H782.5ZM895 102.537C860.9 102.786 822.961 103.046 782.5 103.303V196.5H895V102.537ZM895 201.5H782.5V297H895V201.5ZM895 302H782.5V395H895V302ZM777.5 395V302H660.5V395H777.5ZM655.5 395V302H5V395H655.5ZM5 297H655.5V201.5H5V297ZM5 196.5H655.5V104.047C552.887 104.599 443.729 105.061 344.518 105.262C251.247 105.452 166.76 105.411 104.763 104.998C73.7664 104.792 48.3804 104.492 30.3257 104.081C21.3011 103.876 14.0901 103.642 8.91942 103.377C7.45468 103.302 6.14558 103.225 5 103.143V196.5ZM660.5 104.02V196.5H777.5V103.334C740.235 103.569 700.898 103.802 660.5 104.02ZM777.5 201.5H660.5V297H777.5V201.5Z"
                fill="#E79720" />
            <g id="Beatriz: Carmen no tiene 16 a&#195;&#177;os">
                <path
                    d="M44.9707 67V41.4062H53.3379C56.1152 41.4062 58.2012 41.9805 59.5957 43.1289C61.002 44.2773 61.7051 45.9766 61.7051 48.2266C61.7051 49.4219 61.3652 50.4824 60.6855 51.4082C60.0059 52.3223 59.0801 53.0312 57.9082 53.5352C59.291 53.9219 60.3809 54.6602 61.1777 55.75C61.9863 56.8281 62.3906 58.1172 62.3906 59.6172C62.3906 61.9141 61.6465 63.7188 60.1582 65.0312C58.6699 66.3438 56.5664 67 53.8477 67H44.9707ZM48.3457 55.0293V64.2402H53.918C55.4883 64.2402 56.7246 63.8359 57.627 63.0273C58.541 62.207 58.998 61.082 58.998 59.6523C58.998 56.5703 57.3223 55.0293 53.9707 55.0293H48.3457ZM48.3457 52.3223H53.4434C54.9199 52.3223 56.0977 51.9531 56.9766 51.2148C57.8672 50.4766 58.3125 49.4746 58.3125 48.209C58.3125 46.8027 57.9023 45.7832 57.082 45.1504C56.2617 44.5059 55.0137 44.1836 53.3379 44.1836H48.3457V52.3223Z"
                    fill="white" />
                <path
                    d="M74.7832 67.3516C72.2051 67.3516 70.1074 66.5078 68.4902 64.8203C66.873 63.1211 66.0645 60.8535 66.0645 58.0176V57.4199C66.0645 55.5332 66.4219 53.8516 67.1367 52.375C67.8633 50.8867 68.8711 49.7266 70.1602 48.8945C71.4609 48.0508 72.8672 47.6289 74.3789 47.6289C76.8516 47.6289 78.7734 48.4434 80.1445 50.0723C81.5156 51.7012 82.2012 54.0332 82.2012 57.0684V58.4219H69.3164C69.3633 60.2969 69.9082 61.8145 70.9512 62.9746C72.0059 64.123 73.3418 64.6973 74.959 64.6973C76.1074 64.6973 77.0801 64.4629 77.877 63.9941C78.6738 63.5254 79.3711 62.9043 79.9688 62.1309L81.9551 63.6777C80.3613 66.127 77.9707 67.3516 74.7832 67.3516ZM74.3789 50.3008C73.0664 50.3008 71.9648 50.7812 71.0742 51.7422C70.1836 52.6914 69.6328 54.0273 69.4219 55.75H78.9492V55.5039C78.8555 53.8516 78.4102 52.5742 77.6133 51.6719C76.8164 50.7578 75.7383 50.3008 74.3789 50.3008Z"
                    fill="white" />
                <path
                    d="M97.7227 67C97.5352 66.625 97.3828 65.957 97.2656 64.9961C95.7539 66.5664 93.9492 67.3516 91.8516 67.3516C89.9766 67.3516 88.4355 66.8242 87.2285 65.7695C86.0332 64.7031 85.4355 63.3555 85.4355 61.7266C85.4355 59.7461 86.1855 58.2109 87.6855 57.1211C89.1973 56.0195 91.3184 55.4688 94.0488 55.4688H97.2129V53.9746C97.2129 52.8379 96.873 51.9355 96.1934 51.2676C95.5137 50.5879 94.5117 50.248 93.1875 50.248C92.0273 50.248 91.0547 50.541 90.2695 51.127C89.4844 51.7129 89.0918 52.4219 89.0918 53.2539H85.8223C85.8223 52.3047 86.1562 51.3906 86.8242 50.5117C87.5039 49.6211 88.418 48.918 89.5664 48.4023C90.7266 47.8867 91.998 47.6289 93.3809 47.6289C95.5723 47.6289 97.2891 48.1797 98.5312 49.2812C99.7734 50.3711 100.418 51.877 100.465 53.7988V62.5527C100.465 64.2988 100.688 65.6875 101.133 66.7188V67H97.7227ZM92.3262 64.5215C93.3457 64.5215 94.3125 64.2578 95.2266 63.7305C96.1406 63.2031 96.8027 62.5176 97.2129 61.6738V57.7715H94.6641C90.6797 57.7715 88.6875 58.9375 88.6875 61.2695C88.6875 62.2891 89.0273 63.0859 89.707 63.6602C90.3867 64.2344 91.2598 64.5215 92.3262 64.5215Z"
                    fill="white" />
                <path
                    d="M109.975 43.375V47.9805H113.525V50.4941H109.975V62.2891C109.975 63.0508 110.133 63.625 110.449 64.0117C110.766 64.3867 111.305 64.5742 112.066 64.5742C112.441 64.5742 112.957 64.5039 113.613 64.3633V67C112.758 67.2344 111.926 67.3516 111.117 67.3516C109.664 67.3516 108.568 66.9121 107.83 66.0332C107.092 65.1543 106.723 63.9062 106.723 62.2891V50.4941H103.26V47.9805H106.723V43.375H109.975Z"
                    fill="white" />
                <path
                    d="M126.533 50.8984C126.041 50.8164 125.508 50.7754 124.934 50.7754C122.801 50.7754 121.354 51.6836 120.592 53.5V67H117.34V47.9805H120.504L120.557 50.1777C121.623 48.4785 123.135 47.6289 125.092 47.6289C125.725 47.6289 126.205 47.7109 126.533 47.875V50.8984Z"
                    fill="white" />
                <path
                    d="M133.072 67H129.82V47.9805H133.072V67ZM129.557 42.9355C129.557 42.4082 129.715 41.9629 130.031 41.5996C130.359 41.2363 130.84 41.0547 131.473 41.0547C132.105 41.0547 132.586 41.2363 132.914 41.5996C133.242 41.9629 133.406 42.4082 133.406 42.9355C133.406 43.4629 133.242 43.9023 132.914 44.2539C132.586 44.6055 132.105 44.7812 131.473 44.7812C130.84 44.7812 130.359 44.6055 130.031 44.2539C129.715 43.9023 129.557 43.4629 129.557 42.9355Z"
                    fill="white" />
                <path
                    d="M141.352 64.3457H152.479V67H137.379V64.6094L147.873 50.6699H137.537V47.9805H151.951V50.2832L141.352 64.3457Z"
                    fill="white" />
                <path
                    d="M156.047 65.2949C156.047 64.7324 156.211 64.2637 156.539 63.8887C156.879 63.5137 157.383 63.3262 158.051 63.3262C158.719 63.3262 159.223 63.5137 159.562 63.8887C159.914 64.2637 160.09 64.7324 160.09 65.2949C160.09 65.834 159.914 66.2852 159.562 66.6484C159.223 67.0117 158.719 67.1934 158.051 67.1934C157.383 67.1934 156.879 67.0117 156.539 66.6484C156.211 66.2852 156.047 65.834 156.047 65.2949ZM156.064 49.7734C156.064 49.2109 156.229 48.7422 156.557 48.3672C156.896 47.9922 157.4 47.8047 158.068 47.8047C158.736 47.8047 159.24 47.9922 159.58 48.3672C159.932 48.7422 160.107 49.2109 160.107 49.7734C160.107 50.3125 159.932 50.7637 159.58 51.127C159.24 51.4902 158.736 51.6719 158.068 51.6719C157.4 51.6719 156.896 51.4902 156.557 51.127C156.229 50.7637 156.064 50.3125 156.064 49.7734Z"
                    fill="white" />
                <path
                    d="M193.137 58.8789C192.82 61.5859 191.818 63.6777 190.131 65.1543C188.455 66.6191 186.223 67.3516 183.434 67.3516C180.41 67.3516 177.984 66.2676 176.156 64.0996C174.34 61.9316 173.432 59.0312 173.432 55.3984V52.9375C173.432 50.5586 173.854 48.4668 174.697 46.6621C175.553 44.8574 176.76 43.4746 178.318 42.5137C179.877 41.541 181.682 41.0547 183.732 41.0547C186.451 41.0547 188.631 41.8164 190.271 43.3398C191.912 44.8516 192.867 46.9492 193.137 49.6328H189.744C189.451 47.5938 188.812 46.1172 187.828 45.2031C186.855 44.2891 185.49 43.832 183.732 43.832C181.576 43.832 179.883 44.6289 178.652 46.2227C177.434 47.8164 176.824 50.084 176.824 53.0254V55.5039C176.824 58.2812 177.404 60.4902 178.564 62.1309C179.725 63.7715 181.348 64.5918 183.434 64.5918C185.309 64.5918 186.744 64.1699 187.74 63.3262C188.748 62.4707 189.416 60.9883 189.744 58.8789H193.137Z"
                    fill="white" />
                <path
                    d="M208.992 67C208.805 66.625 208.652 65.957 208.535 64.9961C207.023 66.5664 205.219 67.3516 203.121 67.3516C201.246 67.3516 199.705 66.8242 198.498 65.7695C197.303 64.7031 196.705 63.3555 196.705 61.7266C196.705 59.7461 197.455 58.2109 198.955 57.1211C200.467 56.0195 202.588 55.4688 205.318 55.4688H208.482V53.9746C208.482 52.8379 208.143 51.9355 207.463 51.2676C206.783 50.5879 205.781 50.248 204.457 50.248C203.297 50.248 202.324 50.541 201.539 51.127C200.754 51.7129 200.361 52.4219 200.361 53.2539H197.092C197.092 52.3047 197.426 51.3906 198.094 50.5117C198.773 49.6211 199.688 48.918 200.836 48.4023C201.996 47.8867 203.268 47.6289 204.65 47.6289C206.842 47.6289 208.559 48.1797 209.801 49.2812C211.043 50.3711 211.688 51.877 211.734 53.7988V62.5527C211.734 64.2988 211.957 65.6875 212.402 66.7188V67H208.992ZM203.596 64.5215C204.615 64.5215 205.582 64.2578 206.496 63.7305C207.41 63.2031 208.072 62.5176 208.482 61.6738V57.7715H205.934C201.949 57.7715 199.957 58.9375 199.957 61.2695C199.957 62.2891 200.297 63.0859 200.977 63.6602C201.656 64.2344 202.529 64.5215 203.596 64.5215Z"
                    fill="white" />
                <path
                    d="M226.025 50.8984C225.533 50.8164 225 50.7754 224.426 50.7754C222.293 50.7754 220.846 51.6836 220.084 53.5V67H216.832V47.9805H219.996L220.049 50.1777C221.115 48.4785 222.627 47.6289 224.584 47.6289C225.217 47.6289 225.697 47.7109 226.025 47.875V50.8984Z"
                    fill="white" />
                <path
                    d="M232.09 47.9805L232.178 50.0898C233.572 48.4492 235.453 47.6289 237.82 47.6289C240.48 47.6289 242.291 48.6484 243.252 50.6875C243.885 49.7734 244.705 49.0352 245.713 48.4727C246.732 47.9102 247.934 47.6289 249.316 47.6289C253.488 47.6289 255.609 49.8379 255.68 54.2559V67H252.428V54.4492C252.428 53.0898 252.117 52.0762 251.496 51.4082C250.875 50.7285 249.832 50.3887 248.367 50.3887C247.16 50.3887 246.158 50.752 245.361 51.4785C244.564 52.1934 244.102 53.1602 243.973 54.3789V67H240.703V54.5371C240.703 51.7715 239.35 50.3887 236.643 50.3887C234.51 50.3887 233.051 51.2969 232.266 53.1133V67H229.014V47.9805H232.09Z"
                    fill="white" />
                <path
                    d="M268.494 67.3516C265.916 67.3516 263.818 66.5078 262.201 64.8203C260.584 63.1211 259.775 60.8535 259.775 58.0176V57.4199C259.775 55.5332 260.133 53.8516 260.848 52.375C261.574 50.8867 262.582 49.7266 263.871 48.8945C265.172 48.0508 266.578 47.6289 268.09 47.6289C270.562 47.6289 272.484 48.4434 273.855 50.0723C275.227 51.7012 275.912 54.0332 275.912 57.0684V58.4219H263.027C263.074 60.2969 263.619 61.8145 264.662 62.9746C265.717 64.123 267.053 64.6973 268.67 64.6973C269.818 64.6973 270.791 64.4629 271.588 63.9941C272.385 63.5254 273.082 62.9043 273.68 62.1309L275.666 63.6777C274.072 66.127 271.682 67.3516 268.494 67.3516ZM268.09 50.3008C266.777 50.3008 265.676 50.7812 264.785 51.7422C263.895 52.6914 263.344 54.0273 263.133 55.75H272.66V55.5039C272.566 53.8516 272.121 52.5742 271.324 51.6719C270.527 50.7578 269.449 50.3008 268.09 50.3008Z"
                    fill="white" />
                <path
                    d="M282.768 47.9805L282.873 50.3711C284.326 48.543 286.225 47.6289 288.568 47.6289C292.588 47.6289 294.615 49.8965 294.65 54.4316V67H291.398V54.4141C291.387 53.043 291.07 52.0293 290.449 51.373C289.84 50.7168 288.885 50.3887 287.584 50.3887C286.529 50.3887 285.604 50.6699 284.807 51.2324C284.01 51.7949 283.389 52.5332 282.943 53.4473V67H279.691V47.9805H282.768Z"
                    fill="white" />
                <path
                    d="M311.561 47.9805L311.666 50.3711C313.119 48.543 315.018 47.6289 317.361 47.6289C321.381 47.6289 323.408 49.8965 323.443 54.4316V67H320.191V54.4141C320.18 53.043 319.863 52.0293 319.242 51.373C318.633 50.7168 317.678 50.3887 316.377 50.3887C315.322 50.3887 314.396 50.6699 313.6 51.2324C312.803 51.7949 312.182 52.5332 311.736 53.4473V67H308.484V47.9805H311.561Z"
                    fill="white" />
                <path
                    d="M327.486 57.3145C327.486 55.4512 327.85 53.7754 328.576 52.2871C329.314 50.7988 330.334 49.6504 331.635 48.8418C332.947 48.0332 334.441 47.6289 336.117 47.6289C338.707 47.6289 340.799 48.5254 342.393 50.3184C343.998 52.1113 344.801 54.4961 344.801 57.4727V57.7012C344.801 59.5527 344.443 61.2168 343.729 62.6934C343.025 64.1582 342.012 65.3008 340.688 66.1211C339.375 66.9414 337.863 67.3516 336.152 67.3516C333.574 67.3516 331.482 66.4551 329.877 64.6621C328.283 62.8691 327.486 60.4961 327.486 57.543V57.3145ZM330.756 57.7012C330.756 59.8105 331.242 61.5039 332.215 62.7812C333.199 64.0586 334.512 64.6973 336.152 64.6973C337.805 64.6973 339.117 64.0527 340.09 62.7637C341.062 61.4629 341.549 59.6465 341.549 57.3145C341.549 55.2285 341.051 53.541 340.055 52.252C339.07 50.9512 337.758 50.3008 336.117 50.3008C334.512 50.3008 333.217 50.9395 332.232 52.2168C331.248 53.4941 330.756 55.3223 330.756 57.7012Z"
                    fill="white" />
                <path
                    d="M362.221 43.375V47.9805H365.771V50.4941H362.221V62.2891C362.221 63.0508 362.379 63.625 362.695 64.0117C363.012 64.3867 363.551 64.5742 364.312 64.5742C364.688 64.5742 365.203 64.5039 365.859 64.3633V67C365.004 67.2344 364.172 67.3516 363.363 67.3516C361.91 67.3516 360.814 66.9121 360.076 66.0332C359.338 65.1543 358.969 63.9062 358.969 62.2891V50.4941H355.506V47.9805H358.969V43.375H362.221Z"
                    fill="white" />
                <path
                    d="M373.119 67H369.867V47.9805H373.119V67ZM369.604 42.9355C369.604 42.4082 369.762 41.9629 370.078 41.5996C370.406 41.2363 370.887 41.0547 371.52 41.0547C372.152 41.0547 372.633 41.2363 372.961 41.5996C373.289 41.9629 373.453 42.4082 373.453 42.9355C373.453 43.4629 373.289 43.9023 372.961 44.2539C372.633 44.6055 372.152 44.7812 371.52 44.7812C370.887 44.7812 370.406 44.6055 370.078 44.2539C369.762 43.9023 369.604 43.4629 369.604 42.9355Z"
                    fill="white" />
                <path
                    d="M386.232 67.3516C383.654 67.3516 381.557 66.5078 379.939 64.8203C378.322 63.1211 377.514 60.8535 377.514 58.0176V57.4199C377.514 55.5332 377.871 53.8516 378.586 52.375C379.312 50.8867 380.32 49.7266 381.609 48.8945C382.91 48.0508 384.316 47.6289 385.828 47.6289C388.301 47.6289 390.223 48.4434 391.594 50.0723C392.965 51.7012 393.65 54.0332 393.65 57.0684V58.4219H380.766C380.812 60.2969 381.357 61.8145 382.4 62.9746C383.455 64.123 384.791 64.6973 386.408 64.6973C387.557 64.6973 388.529 64.4629 389.326 63.9941C390.123 63.5254 390.82 62.9043 391.418 62.1309L393.404 63.6777C391.811 66.127 389.42 67.3516 386.232 67.3516ZM385.828 50.3008C384.516 50.3008 383.414 50.7812 382.523 51.7422C381.633 52.6914 381.082 54.0273 380.871 55.75H390.398V55.5039C390.305 53.8516 389.859 52.5742 389.062 51.6719C388.266 50.7578 387.188 50.3008 385.828 50.3008Z"
                    fill="white" />
                <path
                    d="M400.506 47.9805L400.611 50.3711C402.064 48.543 403.963 47.6289 406.307 47.6289C410.326 47.6289 412.354 49.8965 412.389 54.4316V67H409.137V54.4141C409.125 53.043 408.809 52.0293 408.188 51.373C407.578 50.7168 406.623 50.3887 405.322 50.3887C404.268 50.3887 403.342 50.6699 402.545 51.2324C401.748 51.7949 401.127 52.5332 400.682 53.4473V67H397.43V47.9805H400.506Z"
                    fill="white" />
                <path
                    d="M425.186 67.3516C422.607 67.3516 420.51 66.5078 418.893 64.8203C417.275 63.1211 416.467 60.8535 416.467 58.0176V57.4199C416.467 55.5332 416.824 53.8516 417.539 52.375C418.266 50.8867 419.273 49.7266 420.562 48.8945C421.863 48.0508 423.27 47.6289 424.781 47.6289C427.254 47.6289 429.176 48.4434 430.547 50.0723C431.918 51.7012 432.604 54.0332 432.604 57.0684V58.4219H419.719C419.766 60.2969 420.311 61.8145 421.354 62.9746C422.408 64.123 423.744 64.6973 425.361 64.6973C426.51 64.6973 427.482 64.4629 428.279 63.9941C429.076 63.5254 429.773 62.9043 430.371 62.1309L432.357 63.6777C430.764 66.127 428.373 67.3516 425.186 67.3516ZM424.781 50.3008C423.469 50.3008 422.367 50.7812 421.477 51.7422C420.586 52.6914 420.035 54.0273 419.824 55.75H429.352V55.5039C429.258 53.8516 428.812 52.5742 428.016 51.6719C427.219 50.7578 426.141 50.3008 424.781 50.3008Z"
                    fill="white" />
                <path d="M455.666 67H452.396V45.3262L445.84 47.7344V44.7812L455.156 41.2832H455.666V67Z" fill="white" />
                <path
                    d="M477.955 41.3887V44.1484H477.357C474.826 44.1953 472.811 44.9453 471.311 46.3984C469.811 47.8516 468.943 49.8965 468.709 52.5332C470.057 50.9863 471.896 50.2129 474.229 50.2129C476.455 50.2129 478.23 50.998 479.555 52.5684C480.891 54.1387 481.559 56.166 481.559 58.6504C481.559 61.2871 480.838 63.3965 479.396 64.9785C477.967 66.5605 476.045 67.3516 473.631 67.3516C471.182 67.3516 469.195 66.4141 467.672 64.5391C466.148 62.6523 465.387 60.2266 465.387 57.2617V56.0137C465.387 51.3027 466.389 47.7051 468.393 45.2207C470.408 42.7246 473.402 41.4473 477.375 41.3887H477.955ZM473.684 52.9199C472.57 52.9199 471.545 53.2539 470.607 53.9219C469.67 54.5898 469.02 55.4277 468.656 56.4355V57.6309C468.656 59.7402 469.131 61.4395 470.08 62.7285C471.029 64.0176 472.213 64.6621 473.631 64.6621C475.096 64.6621 476.244 64.123 477.076 63.0449C477.92 61.9668 478.342 60.5547 478.342 58.8086C478.342 57.0508 477.914 55.6328 477.059 54.5547C476.215 53.4648 475.09 52.9199 473.684 52.9199Z"
                    fill="white" />
                <path
                    d="M506.414 67C506.227 66.625 506.074 65.957 505.957 64.9961C504.445 66.5664 502.641 67.3516 500.543 67.3516C498.668 67.3516 497.127 66.8242 495.92 65.7695C494.725 64.7031 494.127 63.3555 494.127 61.7266C494.127 59.7461 494.877 58.2109 496.377 57.1211C497.889 56.0195 500.01 55.4688 502.74 55.4688H505.904V53.9746C505.904 52.8379 505.564 51.9355 504.885 51.2676C504.205 50.5879 503.203 50.248 501.879 50.248C500.719 50.248 499.746 50.541 498.961 51.127C498.176 51.7129 497.783 52.4219 497.783 53.2539H494.514C494.514 52.3047 494.848 51.3906 495.516 50.5117C496.195 49.6211 497.109 48.918 498.258 48.4023C499.418 47.8867 500.689 47.6289 502.072 47.6289C504.264 47.6289 505.98 48.1797 507.223 49.2812C508.465 50.3711 509.109 51.877 509.156 53.7988V62.5527C509.156 64.2988 509.379 65.6875 509.824 66.7188V67H506.414ZM501.018 64.5215C502.037 64.5215 503.004 64.2578 503.918 63.7305C504.832 63.2031 505.494 62.5176 505.904 61.6738V57.7715H503.355C499.371 57.7715 497.379 58.9375 497.379 61.2695C497.379 62.2891 497.719 63.0859 498.398 63.6602C499.078 64.2344 499.951 64.5215 501.018 64.5215Z"
                    fill="white" />
                <path
                    d="M517.33 47.9805L517.436 50.3711C518.889 48.543 520.787 47.6289 523.131 47.6289C527.15 47.6289 529.178 49.8965 529.213 54.4316V67H525.961V54.4141C525.949 53.043 525.633 52.0293 525.012 51.373C524.402 50.7168 523.447 50.3887 522.146 50.3887C521.092 50.3887 520.166 50.6699 519.369 51.2324C518.572 51.7949 517.951 52.5332 517.506 53.4473V67H514.254V47.9805H517.33ZM528.088 40.5625C528.088 41.8281 527.725 42.8535 526.998 43.6387C526.283 44.4238 525.387 44.8164 524.309 44.8164C523.828 44.8164 523.412 44.7578 523.061 44.6406C522.709 44.5234 522.246 44.2832 521.672 43.9199C521.109 43.5566 520.699 43.3398 520.441 43.2695C520.195 43.1875 519.908 43.1465 519.58 43.1465C519.1 43.1465 518.689 43.334 518.35 43.709C518.01 44.0723 517.84 44.541 517.84 45.1152L515.66 44.9922C515.66 43.7383 516.012 42.7012 516.715 41.8809C517.43 41.0605 518.332 40.6504 519.422 40.6504C519.832 40.6504 520.201 40.709 520.529 40.8262C520.857 40.9434 521.303 41.1719 521.865 41.5117C522.428 41.8516 522.855 42.0742 523.148 42.1797C523.453 42.2852 523.787 42.3379 524.15 42.3379C524.654 42.3379 525.07 42.1387 525.398 41.7402C525.738 41.3418 525.908 40.8789 525.908 40.3516L528.088 40.5625Z"
                    fill="white" />
                <path
                    d="M533.256 57.3145C533.256 55.4512 533.619 53.7754 534.346 52.2871C535.084 50.7988 536.104 49.6504 537.404 48.8418C538.717 48.0332 540.211 47.6289 541.887 47.6289C544.477 47.6289 546.568 48.5254 548.162 50.3184C549.768 52.1113 550.57 54.4961 550.57 57.4727V57.7012C550.57 59.5527 550.213 61.2168 549.498 62.6934C548.795 64.1582 547.781 65.3008 546.457 66.1211C545.145 66.9414 543.633 67.3516 541.922 67.3516C539.344 67.3516 537.252 66.4551 535.646 64.6621C534.053 62.8691 533.256 60.4961 533.256 57.543V57.3145ZM536.525 57.7012C536.525 59.8105 537.012 61.5039 537.984 62.7812C538.969 64.0586 540.281 64.6973 541.922 64.6973C543.574 64.6973 544.887 64.0527 545.859 62.7637C546.832 61.4629 547.318 59.6465 547.318 57.3145C547.318 55.2285 546.82 53.541 545.824 52.252C544.84 50.9512 543.527 50.3008 541.887 50.3008C540.281 50.3008 538.986 50.9395 538.002 52.2168C537.018 53.4941 536.525 55.3223 536.525 57.7012Z"
                    fill="white" />
                <path
                    d="M565.723 61.9551C565.723 61.0762 565.389 60.3965 564.721 59.916C564.064 59.4238 562.91 59.002 561.258 58.6504C559.617 58.2988 558.311 57.877 557.338 57.3848C556.377 56.8926 555.662 56.3066 555.193 55.627C554.736 54.9473 554.508 54.1387 554.508 53.2012C554.508 51.6426 555.164 50.3242 556.477 49.2461C557.801 48.168 559.488 47.6289 561.539 47.6289C563.695 47.6289 565.441 48.1855 566.777 49.2988C568.125 50.4121 568.799 51.8359 568.799 53.5703H565.529C565.529 52.6797 565.148 51.9121 564.387 51.2676C563.637 50.623 562.688 50.3008 561.539 50.3008C560.355 50.3008 559.43 50.5586 558.762 51.0742C558.094 51.5898 557.76 52.2637 557.76 53.0957C557.76 53.8809 558.07 54.4727 558.691 54.8711C559.312 55.2695 560.432 55.6504 562.049 56.0137C563.678 56.377 564.996 56.8105 566.004 57.3145C567.012 57.8184 567.756 58.4277 568.236 59.1426C568.729 59.8457 568.975 60.707 568.975 61.7266C568.975 63.4258 568.295 64.791 566.936 65.8223C565.576 66.8418 563.812 67.3516 561.645 67.3516C560.121 67.3516 558.773 67.082 557.602 66.543C556.43 66.0039 555.51 65.2539 554.842 64.293C554.186 63.3203 553.857 62.2715 553.857 61.1465H557.109C557.168 62.2363 557.602 63.1035 558.41 63.748C559.23 64.3809 560.309 64.6973 561.645 64.6973C562.875 64.6973 563.859 64.4512 564.598 63.959C565.348 63.4551 565.723 62.7871 565.723 61.9551Z"
                    fill="white" />
            </g>
            <g id="Group 108">
                <g id="Alicia">
                    <path
                        d="M268.104 156.32H257.381L254.973 163H251.492L261.266 137.406H264.219L274.01 163H270.547L268.104 156.32ZM258.4 153.543H267.102L262.742 141.572L258.4 153.543Z"
                        fill="white" />
                    <path d="M280.479 163H277.227V136H280.479V163Z" fill="white" />
                    <path
                        d="M289.232 163H285.98V143.98H289.232V163ZM285.717 138.936C285.717 138.408 285.875 137.963 286.191 137.6C286.52 137.236 287 137.055 287.633 137.055C288.266 137.055 288.746 137.236 289.074 137.6C289.402 137.963 289.566 138.408 289.566 138.936C289.566 139.463 289.402 139.902 289.074 140.254C288.746 140.605 288.266 140.781 287.633 140.781C287 140.781 286.52 140.605 286.191 140.254C285.875 139.902 285.717 139.463 285.717 138.936Z"
                        fill="white" />
                    <path
                        d="M302.082 160.697C303.242 160.697 304.256 160.346 305.123 159.643C305.99 158.939 306.471 158.061 306.564 157.006H309.641C309.582 158.096 309.207 159.133 308.516 160.117C307.824 161.102 306.898 161.887 305.738 162.473C304.59 163.059 303.371 163.352 302.082 163.352C299.492 163.352 297.43 162.49 295.895 160.768C294.371 159.033 293.609 156.666 293.609 153.666V153.121C293.609 151.27 293.949 149.623 294.629 148.182C295.309 146.74 296.281 145.621 297.547 144.824C298.824 144.027 300.33 143.629 302.064 143.629C304.197 143.629 305.967 144.268 307.373 145.545C308.791 146.822 309.547 148.48 309.641 150.52H306.564C306.471 149.289 306.002 148.281 305.158 147.496C304.326 146.699 303.295 146.301 302.064 146.301C300.412 146.301 299.129 146.898 298.215 148.094C297.312 149.277 296.861 150.994 296.861 153.244V153.859C296.861 156.051 297.312 157.738 298.215 158.922C299.117 160.105 300.406 160.697 302.082 160.697Z"
                        fill="white" />
                    <path
                        d="M316.83 163H313.578V143.98H316.83V163ZM313.314 138.936C313.314 138.408 313.473 137.963 313.789 137.6C314.117 137.236 314.598 137.055 315.23 137.055C315.863 137.055 316.344 137.236 316.672 137.6C317 137.963 317.164 138.408 317.164 138.936C317.164 139.463 317 139.902 316.672 140.254C316.344 140.605 315.863 140.781 315.23 140.781C314.598 140.781 314.117 140.605 313.789 140.254C313.473 139.902 313.314 139.463 313.314 138.936Z"
                        fill="white" />
                    <path
                        d="M333.793 163C333.605 162.625 333.453 161.957 333.336 160.996C331.824 162.566 330.02 163.352 327.922 163.352C326.047 163.352 324.506 162.824 323.299 161.77C322.104 160.703 321.506 159.355 321.506 157.727C321.506 155.746 322.256 154.211 323.756 153.121C325.268 152.02 327.389 151.469 330.119 151.469H333.283V149.975C333.283 148.838 332.943 147.936 332.264 147.268C331.584 146.588 330.582 146.248 329.258 146.248C328.098 146.248 327.125 146.541 326.34 147.127C325.555 147.713 325.162 148.422 325.162 149.254H321.893C321.893 148.305 322.227 147.391 322.895 146.512C323.574 145.621 324.488 144.918 325.637 144.402C326.797 143.887 328.068 143.629 329.451 143.629C331.643 143.629 333.359 144.18 334.602 145.281C335.844 146.371 336.488 147.877 336.535 149.799V158.553C336.535 160.299 336.758 161.688 337.203 162.719V163H333.793ZM328.396 160.521C329.416 160.521 330.383 160.258 331.297 159.73C332.211 159.203 332.873 158.518 333.283 157.674V153.771H330.734C326.75 153.771 324.758 154.938 324.758 157.27C324.758 158.289 325.098 159.086 325.777 159.66C326.457 160.234 327.33 160.521 328.396 160.521Z"
                        fill="white" />
                </g>
                <g id="Beatriz">
                    <path
                        d="M253.971 259V233.406H262.338C265.115 233.406 267.201 233.98 268.596 235.129C270.002 236.277 270.705 237.977 270.705 240.227C270.705 241.422 270.365 242.482 269.686 243.408C269.006 244.322 268.08 245.031 266.908 245.535C268.291 245.922 269.381 246.66 270.178 247.75C270.986 248.828 271.391 250.117 271.391 251.617C271.391 253.914 270.646 255.719 269.158 257.031C267.67 258.344 265.566 259 262.848 259H253.971ZM257.346 247.029V256.24H262.918C264.488 256.24 265.725 255.836 266.627 255.027C267.541 254.207 267.998 253.082 267.998 251.652C267.998 248.57 266.322 247.029 262.971 247.029H257.346ZM257.346 244.322H262.443C263.92 244.322 265.098 243.953 265.977 243.215C266.867 242.477 267.312 241.475 267.312 240.209C267.312 238.803 266.902 237.783 266.082 237.15C265.262 236.506 264.014 236.184 262.338 236.184H257.346V244.322Z"
                        fill="white" />
                    <path
                        d="M283.783 259.352C281.205 259.352 279.107 258.508 277.49 256.82C275.873 255.121 275.064 252.854 275.064 250.018V249.42C275.064 247.533 275.422 245.852 276.137 244.375C276.863 242.887 277.871 241.727 279.16 240.895C280.461 240.051 281.867 239.629 283.379 239.629C285.852 239.629 287.773 240.443 289.145 242.072C290.516 243.701 291.201 246.033 291.201 249.068V250.422H278.316C278.363 252.297 278.908 253.814 279.951 254.975C281.006 256.123 282.342 256.697 283.959 256.697C285.107 256.697 286.08 256.463 286.877 255.994C287.674 255.525 288.371 254.904 288.969 254.131L290.955 255.678C289.361 258.127 286.971 259.352 283.783 259.352ZM283.379 242.301C282.066 242.301 280.965 242.781 280.074 243.742C279.184 244.691 278.633 246.027 278.422 247.75H287.949V247.504C287.855 245.852 287.41 244.574 286.613 243.672C285.816 242.758 284.738 242.301 283.379 242.301Z"
                        fill="white" />
                    <path
                        d="M306.723 259C306.535 258.625 306.383 257.957 306.266 256.996C304.754 258.566 302.949 259.352 300.852 259.352C298.977 259.352 297.436 258.824 296.229 257.77C295.033 256.703 294.436 255.355 294.436 253.727C294.436 251.746 295.186 250.211 296.686 249.121C298.197 248.02 300.318 247.469 303.049 247.469H306.213V245.975C306.213 244.838 305.873 243.936 305.193 243.268C304.514 242.588 303.512 242.248 302.188 242.248C301.027 242.248 300.055 242.541 299.27 243.127C298.484 243.713 298.092 244.422 298.092 245.254H294.822C294.822 244.305 295.156 243.391 295.824 242.512C296.504 241.621 297.418 240.918 298.566 240.402C299.727 239.887 300.998 239.629 302.381 239.629C304.572 239.629 306.289 240.18 307.531 241.281C308.773 242.371 309.418 243.877 309.465 245.799V254.553C309.465 256.299 309.688 257.688 310.133 258.719V259H306.723ZM301.326 256.521C302.346 256.521 303.312 256.258 304.227 255.73C305.141 255.203 305.803 254.518 306.213 253.674V249.771H303.664C299.68 249.771 297.688 250.938 297.688 253.27C297.688 254.289 298.027 255.086 298.707 255.66C299.387 256.234 300.26 256.521 301.326 256.521Z"
                        fill="white" />
                    <path
                        d="M318.975 235.375V239.98H322.525V242.494H318.975V254.289C318.975 255.051 319.133 255.625 319.449 256.012C319.766 256.387 320.305 256.574 321.066 256.574C321.441 256.574 321.957 256.504 322.613 256.363V259C321.758 259.234 320.926 259.352 320.117 259.352C318.664 259.352 317.568 258.912 316.83 258.033C316.092 257.154 315.723 255.906 315.723 254.289V242.494H312.26V239.98H315.723V235.375H318.975Z"
                        fill="white" />
                    <path
                        d="M335.533 242.898C335.041 242.816 334.508 242.775 333.934 242.775C331.801 242.775 330.354 243.684 329.592 245.5V259H326.34V239.98H329.504L329.557 242.178C330.623 240.479 332.135 239.629 334.092 239.629C334.725 239.629 335.205 239.711 335.533 239.875V242.898Z"
                        fill="white" />
                    <path
                        d="M342.072 259H338.82V239.98H342.072V259ZM338.557 234.936C338.557 234.408 338.715 233.963 339.031 233.6C339.359 233.236 339.84 233.055 340.473 233.055C341.105 233.055 341.586 233.236 341.914 233.6C342.242 233.963 342.406 234.408 342.406 234.936C342.406 235.463 342.242 235.902 341.914 236.254C341.586 236.605 341.105 236.781 340.473 236.781C339.84 236.781 339.359 236.605 339.031 236.254C338.715 235.902 338.557 235.463 338.557 234.936Z"
                        fill="white" />
                    <path
                        d="M350.352 256.346H361.479V259H346.379V256.609L356.873 242.67H346.537V239.98H360.951V242.283L350.352 256.346Z"
                        fill="white" />
                </g>
                <g id="Carmen">
                    <path
                        d="M272.797 359.879C272.48 362.586 271.479 364.678 269.791 366.154C268.115 367.619 265.883 368.352 263.094 368.352C260.07 368.352 257.645 367.268 255.816 365.1C254 362.932 253.092 360.031 253.092 356.398V353.938C253.092 351.559 253.514 349.467 254.357 347.662C255.213 345.857 256.42 344.475 257.979 343.514C259.537 342.541 261.342 342.055 263.393 342.055C266.111 342.055 268.291 342.816 269.932 344.34C271.572 345.852 272.527 347.949 272.797 350.633H269.404C269.111 348.594 268.473 347.117 267.488 346.203C266.516 345.289 265.15 344.832 263.393 344.832C261.236 344.832 259.543 345.629 258.312 347.223C257.094 348.816 256.484 351.084 256.484 354.025V356.504C256.484 359.281 257.064 361.49 258.225 363.131C259.385 364.771 261.008 365.592 263.094 365.592C264.969 365.592 266.404 365.17 267.4 364.326C268.408 363.471 269.076 361.988 269.404 359.879H272.797Z"
                        fill="white" />
                    <path
                        d="M288.652 368C288.465 367.625 288.312 366.957 288.195 365.996C286.684 367.566 284.879 368.352 282.781 368.352C280.906 368.352 279.365 367.824 278.158 366.77C276.963 365.703 276.365 364.355 276.365 362.727C276.365 360.746 277.115 359.211 278.615 358.121C280.127 357.02 282.248 356.469 284.979 356.469H288.143V354.975C288.143 353.838 287.803 352.936 287.123 352.268C286.443 351.588 285.441 351.248 284.117 351.248C282.957 351.248 281.984 351.541 281.199 352.127C280.414 352.713 280.021 353.422 280.021 354.254H276.752C276.752 353.305 277.086 352.391 277.754 351.512C278.434 350.621 279.348 349.918 280.496 349.402C281.656 348.887 282.928 348.629 284.311 348.629C286.502 348.629 288.219 349.18 289.461 350.281C290.703 351.371 291.348 352.877 291.395 354.799V363.553C291.395 365.299 291.617 366.688 292.062 367.719V368H288.652ZM283.256 365.521C284.275 365.521 285.242 365.258 286.156 364.73C287.07 364.203 287.732 363.518 288.143 362.674V358.771H285.594C281.609 358.771 279.617 359.938 279.617 362.27C279.617 363.289 279.957 364.086 280.637 364.66C281.316 365.234 282.189 365.521 283.256 365.521Z"
                        fill="white" />
                    <path
                        d="M305.686 351.898C305.193 351.816 304.66 351.775 304.086 351.775C301.953 351.775 300.506 352.684 299.744 354.5V368H296.492V348.98H299.656L299.709 351.178C300.775 349.479 302.287 348.629 304.244 348.629C304.877 348.629 305.357 348.711 305.686 348.875V351.898Z"
                        fill="white" />
                    <path
                        d="M311.75 348.98L311.838 351.09C313.232 349.449 315.113 348.629 317.48 348.629C320.141 348.629 321.951 349.648 322.912 351.688C323.545 350.773 324.365 350.035 325.373 349.473C326.393 348.91 327.594 348.629 328.977 348.629C333.148 348.629 335.27 350.838 335.34 355.256V368H332.088V355.449C332.088 354.09 331.777 353.076 331.156 352.408C330.535 351.729 329.492 351.389 328.027 351.389C326.82 351.389 325.818 351.752 325.021 352.479C324.225 353.193 323.762 354.16 323.633 355.379V368H320.363V355.537C320.363 352.771 319.01 351.389 316.303 351.389C314.17 351.389 312.711 352.297 311.926 354.113V368H308.674V348.98H311.75Z"
                        fill="white" />
                    <path
                        d="M348.154 368.352C345.576 368.352 343.479 367.508 341.861 365.82C340.244 364.121 339.436 361.854 339.436 359.018V358.42C339.436 356.533 339.793 354.852 340.508 353.375C341.234 351.887 342.242 350.727 343.531 349.895C344.832 349.051 346.238 348.629 347.75 348.629C350.223 348.629 352.145 349.443 353.516 351.072C354.887 352.701 355.572 355.033 355.572 358.068V359.422H342.688C342.734 361.297 343.279 362.814 344.322 363.975C345.377 365.123 346.713 365.697 348.33 365.697C349.479 365.697 350.451 365.463 351.248 364.994C352.045 364.525 352.742 363.904 353.34 363.131L355.326 364.678C353.732 367.127 351.342 368.352 348.154 368.352ZM347.75 351.301C346.438 351.301 345.336 351.781 344.445 352.742C343.555 353.691 343.004 355.027 342.793 356.75H352.32V356.504C352.227 354.852 351.781 353.574 350.984 352.672C350.188 351.758 349.109 351.301 347.75 351.301Z"
                        fill="white" />
                    <path
                        d="M362.428 348.98L362.533 351.371C363.986 349.543 365.885 348.629 368.229 348.629C372.248 348.629 374.275 350.896 374.311 355.432V368H371.059V355.414C371.047 354.043 370.73 353.029 370.109 352.373C369.5 351.717 368.545 351.389 367.244 351.389C366.189 351.389 365.264 351.67 364.467 352.232C363.67 352.795 363.049 353.533 362.604 354.447V368H359.352V348.98H362.428Z"
                        fill="white" />
                </g>
            </g>
        </g>
        <g id="segundo">
            <g id="Group 107">
                <path id="M"
                    d="M707.33 41.4062L715.697 62.2891L724.064 41.4062H728.441V67H725.066V57.0332L725.383 46.2754L716.98 67H714.396L706.012 46.3281L706.346 57.0332V67H702.971V41.4062H707.33Z"
                    fill="white" />
                <path id="V"
                    d="M840.443 62.5176L847.756 41.4062H851.447L841.955 67H838.967L829.492 41.4062H833.166L840.443 62.5176Z"
                    fill="white" />
            </g>
            <g id="Group 109">
                <g id="16">
                    <path d="M712.814 368H709.545V346.326L702.988 348.734V345.781L712.305 342.283H712.814V368Z"
                        fill="white" />
                    <path
                        d="M735.104 342.389V345.148H734.506C731.975 345.195 729.959 345.945 728.459 347.398C726.959 348.852 726.092 350.896 725.857 353.533C727.205 351.986 729.045 351.213 731.377 351.213C733.604 351.213 735.379 351.998 736.703 353.568C738.039 355.139 738.707 357.166 738.707 359.65C738.707 362.287 737.986 364.396 736.545 365.979C735.115 367.561 733.193 368.352 730.779 368.352C728.33 368.352 726.344 367.414 724.82 365.539C723.297 363.652 722.535 361.227 722.535 358.262V357.014C722.535 352.303 723.537 348.705 725.541 346.221C727.557 343.725 730.551 342.447 734.523 342.389H735.104ZM730.832 353.92C729.719 353.92 728.693 354.254 727.756 354.922C726.818 355.59 726.168 356.428 725.805 357.436V358.631C725.805 360.74 726.279 362.439 727.229 363.729C728.178 365.018 729.361 365.662 730.779 365.662C732.244 365.662 733.393 365.123 734.225 364.045C735.068 362.967 735.49 361.555 735.49 359.809C735.49 358.051 735.062 356.633 734.207 355.555C733.363 354.465 732.238 353.92 730.832 353.92Z"
                        fill="white" />
                </g>
                <g id="16_2">
                    <path d="M712.814 268H709.545V246.326L702.988 248.734V245.781L712.305 242.283H712.814V268Z"
                        fill="white" />
                    <path
                        d="M735.104 242.389V245.148H734.506C731.975 245.195 729.959 245.945 728.459 247.398C726.959 248.852 726.092 250.896 725.857 253.533C727.205 251.986 729.045 251.213 731.377 251.213C733.604 251.213 735.379 251.998 736.703 253.568C738.039 255.139 738.707 257.166 738.707 259.65C738.707 262.287 737.986 264.396 736.545 265.979C735.115 267.561 733.193 268.352 730.779 268.352C728.33 268.352 726.344 267.414 724.82 265.539C723.297 263.652 722.535 261.227 722.535 258.262V257.014C722.535 252.303 723.537 248.705 725.541 246.221C727.557 243.725 730.551 242.447 734.523 242.389H735.104ZM730.832 253.92C729.719 253.92 728.693 254.254 727.756 254.922C726.818 255.59 726.168 256.428 725.805 257.436V258.631C725.805 260.74 726.279 262.439 727.229 263.729C728.178 265.018 729.361 265.662 730.779 265.662C732.244 265.662 733.393 265.123 734.225 264.045C735.068 262.967 735.49 261.555 735.49 259.809C735.49 258.051 735.062 256.633 734.207 255.555C733.363 254.465 732.238 253.92 730.832 253.92Z"
                        fill="white" />
                </g>
                <g id="18">
                    <path d="M707.814 163H704.545V141.326L697.988 143.734V140.781L707.305 137.283H707.814V163Z"
                        fill="white" />
                    <path
                        d="M732.863 144.086C732.863 145.363 732.523 146.5 731.844 147.496C731.176 148.492 730.268 149.271 729.119 149.834C730.455 150.408 731.51 151.246 732.283 152.348C733.068 153.449 733.461 154.697 733.461 156.092C733.461 158.307 732.711 160.07 731.211 161.383C729.723 162.695 727.76 163.352 725.322 163.352C722.861 163.352 720.887 162.695 719.398 161.383C717.922 160.059 717.184 158.295 717.184 156.092C717.184 154.709 717.559 153.461 718.309 152.348C719.07 151.234 720.119 150.391 721.455 149.816C720.318 149.254 719.422 148.475 718.766 147.479C718.109 146.482 717.781 145.352 717.781 144.086C717.781 141.93 718.473 140.219 719.855 138.953C721.238 137.688 723.061 137.055 725.322 137.055C727.572 137.055 729.389 137.688 730.771 138.953C732.166 140.219 732.863 141.93 732.863 144.086ZM730.209 156.021C730.209 154.592 729.752 153.426 728.838 152.523C727.936 151.621 726.752 151.17 725.287 151.17C723.822 151.17 722.645 151.615 721.754 152.506C720.875 153.396 720.436 154.568 720.436 156.021C720.436 157.475 720.863 158.617 721.719 159.449C722.586 160.281 723.787 160.697 725.322 160.697C726.846 160.697 728.041 160.281 728.908 159.449C729.775 158.605 730.209 157.463 730.209 156.021ZM725.322 139.727C724.045 139.727 723.008 140.125 722.211 140.922C721.426 141.707 721.033 142.779 721.033 144.139C721.033 145.439 721.42 146.494 722.193 147.303C722.979 148.1 724.021 148.498 725.322 148.498C726.623 148.498 727.66 148.1 728.434 147.303C729.219 146.494 729.611 145.439 729.611 144.139C729.611 142.838 729.207 141.777 728.398 140.957C727.59 140.137 726.564 139.727 725.322 139.727Z"
                        fill="white" />
                </g>
            </g>
            <path id="buena" fill-rule="evenodd" clip-rule="evenodd"
                d="M705.244 474.856C704.966 474.99 704.658 475.074 704.331 475.096C702.953 475.19 701.76 474.149 701.667 472.771L700.006 448.333C699.912 446.956 700.953 445.763 702.331 445.67C703.708 445.576 704.901 446.617 704.994 447.994L706.311 467.369L741.948 431.732C742.924 430.756 744.507 430.756 745.483 431.732C746.46 432.709 746.46 434.291 745.483 435.268L706.593 474.159C706.211 474.54 705.738 474.772 705.244 474.856Z"
                fill="#2CF30B" />
            <g id="Group 110">
                <g id="18_2">
                    <path d="M832.814 271H829.545V249.326L822.988 251.734V248.781L832.305 245.283H832.814V271Z"
                        fill="white" />
                    <path
                        d="M857.863 252.086C857.863 253.363 857.523 254.5 856.844 255.496C856.176 256.492 855.268 257.271 854.119 257.834C855.455 258.408 856.51 259.246 857.283 260.348C858.068 261.449 858.461 262.697 858.461 264.092C858.461 266.307 857.711 268.07 856.211 269.383C854.723 270.695 852.76 271.352 850.322 271.352C847.861 271.352 845.887 270.695 844.398 269.383C842.922 268.059 842.184 266.295 842.184 264.092C842.184 262.709 842.559 261.461 843.309 260.348C844.07 259.234 845.119 258.391 846.455 257.816C845.318 257.254 844.422 256.475 843.766 255.479C843.109 254.482 842.781 253.352 842.781 252.086C842.781 249.93 843.473 248.219 844.855 246.953C846.238 245.688 848.061 245.055 850.322 245.055C852.572 245.055 854.389 245.688 855.771 246.953C857.166 248.219 857.863 249.93 857.863 252.086ZM855.209 264.021C855.209 262.592 854.752 261.426 853.838 260.523C852.936 259.621 851.752 259.17 850.287 259.17C848.822 259.17 847.645 259.615 846.754 260.506C845.875 261.396 845.436 262.568 845.436 264.021C845.436 265.475 845.863 266.617 846.719 267.449C847.586 268.281 848.787 268.697 850.322 268.697C851.846 268.697 853.041 268.281 853.908 267.449C854.775 266.605 855.209 265.463 855.209 264.021ZM850.322 247.727C849.045 247.727 848.008 248.125 847.211 248.922C846.426 249.707 846.033 250.779 846.033 252.139C846.033 253.439 846.42 254.494 847.193 255.303C847.979 256.1 849.021 256.498 850.322 256.498C851.623 256.498 852.66 256.1 853.434 255.303C854.219 254.494 854.611 253.439 854.611 252.139C854.611 250.838 854.207 249.777 853.398 248.957C852.59 248.137 851.564 247.727 850.322 247.727Z"
                        fill="white" />
                </g>
                <g id="18_3">
                    <path d="M833.814 368H830.545V346.326L823.988 348.734V345.781L833.305 342.283H833.814V368Z"
                        fill="white" />
                    <path
                        d="M858.863 349.086C858.863 350.363 858.523 351.5 857.844 352.496C857.176 353.492 856.268 354.271 855.119 354.834C856.455 355.408 857.51 356.246 858.283 357.348C859.068 358.449 859.461 359.697 859.461 361.092C859.461 363.307 858.711 365.07 857.211 366.383C855.723 367.695 853.76 368.352 851.322 368.352C848.861 368.352 846.887 367.695 845.398 366.383C843.922 365.059 843.184 363.295 843.184 361.092C843.184 359.709 843.559 358.461 844.309 357.348C845.07 356.234 846.119 355.391 847.455 354.816C846.318 354.254 845.422 353.475 844.766 352.479C844.109 351.482 843.781 350.352 843.781 349.086C843.781 346.93 844.473 345.219 845.855 343.953C847.238 342.688 849.061 342.055 851.322 342.055C853.572 342.055 855.389 342.688 856.771 343.953C858.166 345.219 858.863 346.93 858.863 349.086ZM856.209 361.021C856.209 359.592 855.752 358.426 854.838 357.523C853.936 356.621 852.752 356.17 851.287 356.17C849.822 356.17 848.645 356.615 847.754 357.506C846.875 358.396 846.436 359.568 846.436 361.021C846.436 362.475 846.863 363.617 847.719 364.449C848.586 365.281 849.787 365.697 851.322 365.697C852.846 365.697 854.041 365.281 854.908 364.449C855.775 363.605 856.209 362.463 856.209 361.021ZM851.322 344.727C850.045 344.727 849.008 345.125 848.211 345.922C847.426 346.707 847.033 347.779 847.033 349.139C847.033 350.439 847.42 351.494 848.193 352.303C848.979 353.1 850.021 353.498 851.322 353.498C852.623 353.498 853.66 353.1 854.434 352.303C855.219 351.494 855.611 350.439 855.611 349.139C855.611 347.838 855.207 346.777 854.398 345.957C853.59 345.137 852.564 344.727 851.322 344.727Z"
                        fill="white" />
                </g>
            </g>
            <path id="mala" fill-rule="evenodd" clip-rule="evenodd"
                d="M818.021 471.123C817.045 472.099 817.045 473.682 818.021 474.659C818.998 475.635 820.581 475.635 821.557 474.659L838.002 458.213L854.448 474.659C855.424 475.635 857.007 475.635 857.983 474.659C858.96 473.682 858.96 472.099 857.983 471.123L841.538 454.678L860.448 435.768C861.424 434.791 861.424 433.209 860.448 432.232C859.472 431.256 857.889 431.256 856.912 432.232L838.002 451.142L819.092 432.232C818.116 431.256 816.533 431.256 815.557 432.232C814.581 433.209 814.581 434.791 815.557 435.768L834.467 454.678L818.021 471.123Z"
                fill="#FD0C0C" />

        </g>
        <g id="respuesta">
            <path
                d="M85.1035 457.32H74.3809L71.9727 464H68.4922L78.2656 438.406H81.2188L91.0098 464H87.5469L85.1035 457.32ZM75.4004 454.543H84.1016L79.7422 442.572L75.4004 454.543Z"
                fill="white" />
            <path d="M97.4785 464H94.2266V437H97.4785V464Z" fill="white" />
            <path
                d="M106.232 464H102.98V444.98H106.232V464ZM102.717 439.936C102.717 439.408 102.875 438.963 103.191 438.6C103.52 438.236 104 438.055 104.633 438.055C105.266 438.055 105.746 438.236 106.074 438.6C106.402 438.963 106.566 439.408 106.566 439.936C106.566 440.463 106.402 440.902 106.074 441.254C105.746 441.605 105.266 441.781 104.633 441.781C104 441.781 103.52 441.605 103.191 441.254C102.875 440.902 102.717 440.463 102.717 439.936Z"
                fill="white" />
            <path
                d="M119.082 461.697C120.242 461.697 121.256 461.346 122.123 460.643C122.99 459.939 123.471 459.061 123.564 458.006H126.641C126.582 459.096 126.207 460.133 125.516 461.117C124.824 462.102 123.898 462.887 122.738 463.473C121.59 464.059 120.371 464.352 119.082 464.352C116.492 464.352 114.43 463.49 112.895 461.768C111.371 460.033 110.609 457.666 110.609 454.666V454.121C110.609 452.27 110.949 450.623 111.629 449.182C112.309 447.74 113.281 446.621 114.547 445.824C115.824 445.027 117.33 444.629 119.064 444.629C121.197 444.629 122.967 445.268 124.373 446.545C125.791 447.822 126.547 449.48 126.641 451.52H123.564C123.471 450.289 123.002 449.281 122.158 448.496C121.326 447.699 120.295 447.301 119.064 447.301C117.412 447.301 116.129 447.898 115.215 449.094C114.312 450.277 113.861 451.994 113.861 454.244V454.859C113.861 457.051 114.312 458.738 115.215 459.922C116.117 461.105 117.406 461.697 119.082 461.697Z"
                fill="white" />
            <path
                d="M133.83 464H130.578V444.98H133.83V464ZM130.314 439.936C130.314 439.408 130.473 438.963 130.789 438.6C131.117 438.236 131.598 438.055 132.23 438.055C132.863 438.055 133.344 438.236 133.672 438.6C134 438.963 134.164 439.408 134.164 439.936C134.164 440.463 134 440.902 133.672 441.254C133.344 441.605 132.863 441.781 132.23 441.781C131.598 441.781 131.117 441.605 130.789 441.254C130.473 440.902 130.314 440.463 130.314 439.936Z"
                fill="white" />
            <path
                d="M150.793 464C150.605 463.625 150.453 462.957 150.336 461.996C148.824 463.566 147.02 464.352 144.922 464.352C143.047 464.352 141.506 463.824 140.299 462.77C139.104 461.703 138.506 460.355 138.506 458.727C138.506 456.746 139.256 455.211 140.756 454.121C142.268 453.02 144.389 452.469 147.119 452.469H150.283V450.975C150.283 449.838 149.943 448.936 149.264 448.268C148.584 447.588 147.582 447.248 146.258 447.248C145.098 447.248 144.125 447.541 143.34 448.127C142.555 448.713 142.162 449.422 142.162 450.254H138.893C138.893 449.305 139.227 448.391 139.895 447.512C140.574 446.621 141.488 445.918 142.637 445.402C143.797 444.887 145.068 444.629 146.451 444.629C148.643 444.629 150.359 445.18 151.602 446.281C152.844 447.371 153.488 448.877 153.535 450.799V459.553C153.535 461.299 153.758 462.688 154.203 463.719V464H150.793ZM145.396 461.521C146.416 461.521 147.383 461.258 148.297 460.73C149.211 460.203 149.873 459.518 150.283 458.674V454.771H147.734C143.75 454.771 141.758 455.938 141.758 458.27C141.758 459.289 142.098 460.086 142.777 460.66C143.457 461.234 144.33 461.521 145.396 461.521Z"
                fill="white" />
            <path
                d="M175.455 464.352C172.877 464.352 170.779 463.508 169.162 461.82C167.545 460.121 166.736 457.854 166.736 455.018V454.42C166.736 452.533 167.094 450.852 167.809 449.375C168.535 447.887 169.543 446.727 170.832 445.895C172.133 445.051 173.539 444.629 175.051 444.629C177.523 444.629 179.445 445.443 180.816 447.072C182.188 448.701 182.873 451.033 182.873 454.068V455.422H169.988C170.035 457.297 170.58 458.814 171.623 459.975C172.678 461.123 174.014 461.697 175.631 461.697C176.779 461.697 177.752 461.463 178.549 460.994C179.346 460.525 180.043 459.904 180.641 459.131L182.627 460.678C181.033 463.127 178.643 464.352 175.455 464.352ZM175.051 447.301C173.738 447.301 172.637 447.781 171.746 448.742C170.855 449.691 170.305 451.027 170.094 452.75H179.621V452.504C179.527 450.852 179.082 449.574 178.285 448.672C177.488 447.758 176.41 447.301 175.051 447.301Z"
                fill="white" />
            <path
                d="M197.727 458.955C197.727 458.076 197.393 457.396 196.725 456.916C196.068 456.424 194.914 456.002 193.262 455.65C191.621 455.299 190.314 454.877 189.342 454.385C188.381 453.893 187.666 453.307 187.197 452.627C186.74 451.947 186.512 451.139 186.512 450.201C186.512 448.643 187.168 447.324 188.48 446.246C189.805 445.168 191.492 444.629 193.543 444.629C195.699 444.629 197.445 445.186 198.781 446.299C200.129 447.412 200.803 448.836 200.803 450.57H197.533C197.533 449.68 197.152 448.912 196.391 448.268C195.641 447.623 194.691 447.301 193.543 447.301C192.359 447.301 191.434 447.559 190.766 448.074C190.098 448.59 189.764 449.264 189.764 450.096C189.764 450.881 190.074 451.473 190.695 451.871C191.316 452.27 192.436 452.65 194.053 453.014C195.682 453.377 197 453.811 198.008 454.314C199.016 454.818 199.76 455.428 200.24 456.143C200.732 456.846 200.979 457.707 200.979 458.727C200.979 460.426 200.299 461.791 198.939 462.822C197.58 463.842 195.816 464.352 193.648 464.352C192.125 464.352 190.777 464.082 189.605 463.543C188.434 463.004 187.514 462.254 186.846 461.293C186.189 460.32 185.861 459.271 185.861 458.146H189.113C189.172 459.236 189.605 460.104 190.414 460.748C191.234 461.381 192.312 461.697 193.648 461.697C194.879 461.697 195.863 461.451 196.602 460.959C197.352 460.455 197.727 459.787 197.727 458.955Z"
                fill="white" />
            <path
                d="M217.203 444.98L217.291 447.09C218.686 445.449 220.566 444.629 222.934 444.629C225.594 444.629 227.404 445.648 228.365 447.688C228.998 446.773 229.818 446.035 230.826 445.473C231.846 444.91 233.047 444.629 234.43 444.629C238.602 444.629 240.723 446.838 240.793 451.256V464H237.541V451.449C237.541 450.09 237.23 449.076 236.609 448.408C235.988 447.729 234.945 447.389 233.48 447.389C232.273 447.389 231.271 447.752 230.475 448.479C229.678 449.193 229.215 450.16 229.086 451.379V464H225.816V451.537C225.816 448.771 224.463 447.389 221.756 447.389C219.623 447.389 218.164 448.297 217.379 450.113V464H214.127V444.98H217.203Z"
                fill="white" />
            <path
                d="M257.457 464C257.27 463.625 257.117 462.957 257 461.996C255.488 463.566 253.684 464.352 251.586 464.352C249.711 464.352 248.17 463.824 246.963 462.77C245.768 461.703 245.17 460.355 245.17 458.727C245.17 456.746 245.92 455.211 247.42 454.121C248.932 453.02 251.053 452.469 253.783 452.469H256.947V450.975C256.947 449.838 256.607 448.936 255.928 448.268C255.248 447.588 254.246 447.248 252.922 447.248C251.762 447.248 250.789 447.541 250.004 448.127C249.219 448.713 248.826 449.422 248.826 450.254H245.557C245.557 449.305 245.891 448.391 246.559 447.512C247.238 446.621 248.152 445.918 249.301 445.402C250.461 444.887 251.732 444.629 253.115 444.629C255.307 444.629 257.023 445.18 258.266 446.281C259.508 447.371 260.152 448.877 260.199 450.799V459.553C260.199 461.299 260.422 462.688 260.867 463.719V464H257.457ZM252.061 461.521C253.08 461.521 254.047 461.258 254.961 460.73C255.875 460.203 256.537 459.518 256.947 458.674V454.771H254.398C250.414 454.771 248.422 455.938 248.422 458.27C248.422 459.289 248.762 460.086 249.441 460.66C250.121 461.234 250.994 461.521 252.061 461.521Z"
                fill="white" />
            <path
                d="M271.238 459.236L275.668 444.98H279.148L271.502 466.936C270.318 470.1 268.438 471.682 265.859 471.682L265.244 471.629L264.031 471.4V468.764L264.91 468.834C266.012 468.834 266.867 468.611 267.477 468.166C268.098 467.721 268.607 466.906 269.006 465.723L269.727 463.789L262.941 444.98H266.492L271.238 459.236Z"
                fill="white" />
            <path
                d="M280.924 454.314C280.924 452.451 281.287 450.775 282.014 449.287C282.752 447.799 283.771 446.65 285.072 445.842C286.385 445.033 287.879 444.629 289.555 444.629C292.145 444.629 294.236 445.525 295.83 447.318C297.436 449.111 298.238 451.496 298.238 454.473V454.701C298.238 456.553 297.881 458.217 297.166 459.693C296.463 461.158 295.449 462.301 294.125 463.121C292.812 463.941 291.301 464.352 289.59 464.352C287.012 464.352 284.92 463.455 283.314 461.662C281.721 459.869 280.924 457.496 280.924 454.543V454.314ZM284.193 454.701C284.193 456.811 284.68 458.504 285.652 459.781C286.637 461.059 287.949 461.697 289.59 461.697C291.242 461.697 292.555 461.053 293.527 459.764C294.5 458.463 294.986 456.646 294.986 454.314C294.986 452.229 294.488 450.541 293.492 449.252C292.508 447.951 291.195 447.301 289.555 447.301C287.949 447.301 286.654 447.939 285.67 449.217C284.686 450.494 284.193 452.322 284.193 454.701Z"
                fill="white" />
            <path
                d="M311.51 447.898C311.018 447.816 310.484 447.775 309.91 447.775C307.777 447.775 306.33 448.684 305.568 450.5V464H302.316V444.98H305.48L305.533 447.178C306.6 445.479 308.111 444.629 310.068 444.629C310.701 444.629 311.182 444.711 311.51 444.875V447.898Z"
                fill="white" />
            <path
                d="M322.654 454.332C322.654 451.414 323.346 449.07 324.729 447.301C326.111 445.52 327.922 444.629 330.16 444.629C332.387 444.629 334.15 445.391 335.451 446.914V437H338.703V464H335.715L335.557 461.961C334.256 463.555 332.445 464.352 330.125 464.352C327.922 464.352 326.123 463.449 324.729 461.645C323.346 459.84 322.654 457.484 322.654 454.578V454.332ZM325.906 454.701C325.906 456.857 326.352 458.545 327.242 459.764C328.133 460.982 329.363 461.592 330.934 461.592C332.996 461.592 334.502 460.666 335.451 458.814V450.078C334.479 448.285 332.984 447.389 330.969 447.389C329.375 447.389 328.133 448.004 327.242 449.234C326.352 450.465 325.906 452.287 325.906 454.701Z"
                fill="white" />
            <path
                d="M351.658 464.352C349.08 464.352 346.982 463.508 345.365 461.82C343.748 460.121 342.939 457.854 342.939 455.018V454.42C342.939 452.533 343.297 450.852 344.012 449.375C344.738 447.887 345.746 446.727 347.035 445.895C348.336 445.051 349.742 444.629 351.254 444.629C353.727 444.629 355.648 445.443 357.02 447.072C358.391 448.701 359.076 451.033 359.076 454.068V455.422H346.191C346.238 457.297 346.783 458.814 347.826 459.975C348.881 461.123 350.217 461.697 351.834 461.697C352.982 461.697 353.955 461.463 354.752 460.994C355.549 460.525 356.246 459.904 356.844 459.131L358.83 460.678C357.236 463.127 354.846 464.352 351.658 464.352ZM351.254 447.301C349.941 447.301 348.84 447.781 347.949 448.742C347.059 449.691 346.508 451.027 346.297 452.75H355.824V452.504C355.73 450.852 355.285 449.574 354.488 448.672C353.691 447.758 352.613 447.301 351.254 447.301Z"
                fill="white" />
            <path
                d="M379.678 464.352C377.1 464.352 375.002 463.508 373.385 461.82C371.768 460.121 370.959 457.854 370.959 455.018V454.42C370.959 452.533 371.316 450.852 372.031 449.375C372.758 447.887 373.766 446.727 375.055 445.895C376.355 445.051 377.762 444.629 379.273 444.629C381.746 444.629 383.668 445.443 385.039 447.072C386.41 448.701 387.096 451.033 387.096 454.068V455.422H374.211C374.258 457.297 374.803 458.814 375.846 459.975C376.9 461.123 378.236 461.697 379.854 461.697C381.002 461.697 381.975 461.463 382.771 460.994C383.568 460.525 384.266 459.904 384.863 459.131L386.85 460.678C385.256 463.127 382.865 464.352 379.678 464.352ZM379.273 447.301C377.961 447.301 376.859 447.781 375.969 448.742C375.078 449.691 374.527 451.027 374.316 452.75H383.844V452.504C383.75 450.852 383.305 449.574 382.508 448.672C381.711 447.758 380.633 447.301 379.273 447.301Z"
                fill="white" />
            <path
                d="M390.084 454.332C390.084 451.414 390.775 449.07 392.158 447.301C393.541 445.52 395.352 444.629 397.59 444.629C399.816 444.629 401.58 445.391 402.881 446.914V437H406.133V464H403.145L402.986 461.961C401.686 463.555 399.875 464.352 397.555 464.352C395.352 464.352 393.553 463.449 392.158 461.645C390.775 459.84 390.084 457.484 390.084 454.578V454.332ZM393.336 454.701C393.336 456.857 393.781 458.545 394.672 459.764C395.562 460.982 396.793 461.592 398.363 461.592C400.426 461.592 401.932 460.666 402.881 458.814V450.078C401.908 448.285 400.414 447.389 398.398 447.389C396.805 447.389 395.562 448.004 394.672 449.234C393.781 450.465 393.336 452.287 393.336 454.701Z"
                fill="white" />
            <path
                d="M422.938 464C422.75 463.625 422.598 462.957 422.48 461.996C420.969 463.566 419.164 464.352 417.066 464.352C415.191 464.352 413.65 463.824 412.443 462.77C411.248 461.703 410.65 460.355 410.65 458.727C410.65 456.746 411.4 455.211 412.9 454.121C414.412 453.02 416.533 452.469 419.264 452.469H422.428V450.975C422.428 449.838 422.088 448.936 421.408 448.268C420.729 447.588 419.727 447.248 418.402 447.248C417.242 447.248 416.27 447.541 415.484 448.127C414.699 448.713 414.307 449.422 414.307 450.254H411.037C411.037 449.305 411.371 448.391 412.039 447.512C412.719 446.621 413.633 445.918 414.781 445.402C415.941 444.887 417.213 444.629 418.596 444.629C420.787 444.629 422.504 445.18 423.746 446.281C424.988 447.371 425.633 448.877 425.68 450.799V459.553C425.68 461.299 425.902 462.688 426.348 463.719V464H422.938ZM417.541 461.521C418.561 461.521 419.527 461.258 420.441 460.73C421.355 460.203 422.018 459.518 422.428 458.674V454.771H419.879C415.895 454.771 413.902 455.938 413.902 458.27C413.902 459.289 414.242 460.086 414.922 460.66C415.602 461.234 416.475 461.521 417.541 461.521Z"
                fill="white" />
            <path
                d="M429.986 454.332C429.986 451.414 430.678 449.07 432.061 447.301C433.443 445.52 435.254 444.629 437.492 444.629C439.719 444.629 441.482 445.391 442.783 446.914V437H446.035V464H443.047L442.889 461.961C441.588 463.555 439.777 464.352 437.457 464.352C435.254 464.352 433.455 463.449 432.061 461.645C430.678 459.84 429.986 457.484 429.986 454.578V454.332ZM433.238 454.701C433.238 456.857 433.684 458.545 434.574 459.764C435.465 460.982 436.695 461.592 438.266 461.592C440.328 461.592 441.834 460.666 442.783 458.814V450.078C441.811 448.285 440.316 447.389 438.301 447.389C436.707 447.389 435.465 448.004 434.574 449.234C433.684 450.465 433.238 452.287 433.238 454.701Z"
                fill="white" />
        </g>
    </g>
</svg>