<svg width="1080" height="150" viewBox="0 0 1080 150" fill="none" xmlns="http://www.w3.org/2000/svg">
<g id="01310021">
<g id="Frame 1">
<g id="Verdades y Mentiras">
<path d="M233.488 48.384L245.152 88.56L256.816 48.384H264.304L248.824 96.48H241.48L226 48.384H233.488Z" fill="#ECF024"/>
<path d="M281.56 97.416C276.184 97.416 272.176 95.592 269.536 91.944C266.944 88.248 265.648 83.64 265.648 78.12C265.648 72.552 267.04 68.04 269.824 64.584C272.608 61.08 276.424 59.328 281.272 59.328C285.352 59.328 288.448 60.48 290.56 62.784C292.72 65.04 293.8 68.04 293.8 71.784C293.8 73.464 293.44 75.624 292.72 78.264H271.552C271.648 82.344 272.536 85.656 274.216 88.2C275.896 90.744 278.392 92.016 281.704 92.016C285.064 92.016 288.232 91.344 291.208 90L292.864 94.464C289.408 96.432 285.64 97.416 281.56 97.416ZM287.896 73.008C287.896 70.416 287.368 68.376 286.312 66.888C285.256 65.4 283.792 64.656 281.92 64.656C280.048 64.656 278.488 64.992 277.24 65.664C276.04 66.288 275.104 67.104 274.432 68.112C273.28 70.032 272.56 71.808 272.272 73.44L287.896 73.584V73.008Z" fill="#ECF024"/>
<path d="M308.099 96.48H301.619V60.048H307.019L307.739 65.448C308.603 64.008 310.019 62.64 311.987 61.344C314.003 60 316.283 59.328 318.827 59.328C320.219 59.328 321.275 59.448 321.995 59.688L320.699 64.872C320.267 64.824 319.643 64.8 318.827 64.8C313.595 64.8 310.019 66.696 308.099 70.488V96.48Z" fill="#ECF024"/>
<path d="M324.503 78.984C324.503 65.88 329.759 59.328 340.271 59.328C342.911 59.328 345.215 59.88 347.183 60.984V46.08H353.735V97.056H348.623L347.687 93.528C344.663 95.928 341.135 97.128 337.103 97.128C333.119 97.128 330.023 95.496 327.815 92.232C325.607 88.968 324.503 84.552 324.503 78.984ZM340.199 64.728C334.199 64.728 331.199 69.456 331.199 78.912C331.199 87.6 333.647 91.944 338.543 91.944C342.047 91.944 344.927 90.888 347.183 88.776V66.024C345.167 65.16 342.839 64.728 340.199 64.728Z" fill="#ECF024"/>
<path d="M371.199 97.416C368.079 97.416 365.583 96.504 363.711 94.68C361.887 92.856 360.975 90.408 360.975 87.336C360.975 85.32 361.407 83.616 362.271 82.224C363.135 80.832 364.263 79.8 365.655 79.128C368.151 77.928 370.767 77.328 373.503 77.328C376.239 77.328 378.783 77.448 381.135 77.688V72.072C381.135 69.288 380.655 67.392 379.695 66.384C378.783 65.328 377.007 64.8 374.367 64.8C371.727 64.8 368.583 65.448 364.935 66.744L363.423 62.208C364.815 61.344 366.639 60.648 368.895 60.12C371.199 59.592 373.191 59.328 374.871 59.328C379.527 59.328 382.815 60.336 384.735 62.352C386.655 64.368 387.615 67.752 387.615 72.504V90C387.615 91.68 388.191 92.52 389.343 92.52C390.111 92.52 391.167 92.304 392.511 91.872L393.591 95.904C391.959 96.96 389.847 97.488 387.255 97.488C384.663 97.488 382.791 96.264 381.639 93.816C380.583 94.824 379.095 95.688 377.175 96.408C375.303 97.08 373.311 97.416 371.199 97.416ZM372.567 92.304C375.591 92.304 378.447 91.44 381.135 89.712V81.36C379.983 81.168 378.111 81.072 375.519 81.072C369.903 81.072 367.071 82.944 367.023 86.688C367.023 90.432 368.871 92.304 372.567 92.304Z" fill="#ECF024"/>
<path d="M396.925 78.984C396.925 65.88 402.181 59.328 412.693 59.328C415.333 59.328 417.637 59.88 419.605 60.984V46.08H426.157V97.056H421.045L420.109 93.528C417.085 95.928 413.557 97.128 409.525 97.128C405.541 97.128 402.445 95.496 400.237 92.232C398.029 88.968 396.925 84.552 396.925 78.984ZM412.621 64.728C406.621 64.728 403.621 69.456 403.621 78.912C403.621 87.6 406.069 91.944 410.965 91.944C414.469 91.944 417.349 90.888 419.605 88.776V66.024C417.589 65.16 415.261 64.728 412.621 64.728Z" fill="#ECF024"/>
<path d="M450.029 97.416C444.653 97.416 440.645 95.592 438.005 91.944C435.413 88.248 434.117 83.64 434.117 78.12C434.117 72.552 435.509 68.04 438.293 64.584C441.077 61.08 444.893 59.328 449.741 59.328C453.821 59.328 456.917 60.48 459.029 62.784C461.189 65.04 462.269 68.04 462.269 71.784C462.269 73.464 461.909 75.624 461.189 78.264H440.021C440.117 82.344 441.005 85.656 442.685 88.2C444.365 90.744 446.861 92.016 450.173 92.016C453.533 92.016 456.701 91.344 459.677 90L461.333 94.464C457.877 96.432 454.109 97.416 450.029 97.416ZM456.365 73.008C456.365 70.416 455.837 68.376 454.781 66.888C453.725 65.4 452.261 64.656 450.389 64.656C448.517 64.656 446.957 64.992 445.709 65.664C444.509 66.288 443.573 67.104 442.901 68.112C441.749 70.032 441.029 71.808 440.741 73.44L456.365 73.584V73.008Z" fill="#ECF024"/>
<path d="M469.511 89.856C472.679 91.248 475.583 91.944 478.223 91.944C480.863 91.944 482.783 91.464 483.983 90.504C485.231 89.496 485.855 88.272 485.855 86.832C485.855 85.344 485.255 84.096 484.055 83.088C482.903 82.08 481.487 81.288 479.807 80.712C478.127 80.088 476.423 79.44 474.695 78.768C473.015 78.096 471.575 77.04 470.375 75.6C469.223 74.112 468.647 72.264 468.647 70.056C468.647 66.792 469.799 64.2 472.103 62.28C474.407 60.312 477.527 59.328 481.463 59.328C485.399 59.328 488.567 60.024 490.967 61.416L489.455 66.24C486.671 65.28 484.103 64.8 481.751 64.8C479.399 64.8 477.647 65.232 476.495 66.096C475.343 66.96 474.767 68.136 474.767 69.624C474.767 71.064 475.367 72.264 476.567 73.224C477.767 74.184 479.207 74.952 480.887 75.528C482.615 76.104 484.319 76.752 485.999 77.472C487.679 78.144 489.119 79.2 490.319 80.64C491.519 82.08 492.119 83.88 492.119 86.04C492.119 89.208 490.943 91.896 488.591 94.104C486.239 96.312 482.879 97.416 478.511 97.416C476.495 97.416 474.455 97.152 472.391 96.624C470.375 96.096 468.863 95.472 467.855 94.752L469.511 89.856Z" fill="#ECF024"/>
<path d="M512.102 106.776C514.742 106.776 516.878 106.032 518.51 104.544C520.19 103.056 521.654 100.416 522.902 96.624L509.582 60.48L516.422 60.048L525.854 89.64L534.35 60.048H541.118L529.166 95.76C527.294 101.424 525.11 105.48 522.614 107.928C520.166 110.424 516.974 111.672 513.038 111.672C511.454 111.672 509.822 111.504 508.142 111.168L508.934 106.56C509.702 106.704 510.758 106.776 512.102 106.776Z" fill="#ECF024"/>
<path d="M600.235 62.352C600.187 61.344 600.163 60.336 600.163 59.328C600.163 58.32 600.187 57.312 600.235 56.304L587.131 91.224H581.659L568.555 56.304C568.603 57.312 568.627 58.32 568.627 59.328C568.627 60.336 568.603 61.344 568.555 62.352L567.403 96.48H561.067L563.299 48.384H571.291L584.395 84.024L597.499 48.384H605.491L607.723 96.48H601.387L600.235 62.352Z" fill="#ECF024"/>
<path d="M631.154 97.416C625.778 97.416 621.77 95.592 619.13 91.944C616.538 88.248 615.242 83.64 615.242 78.12C615.242 72.552 616.634 68.04 619.418 64.584C622.202 61.08 626.018 59.328 630.866 59.328C634.946 59.328 638.042 60.48 640.154 62.784C642.314 65.04 643.394 68.04 643.394 71.784C643.394 73.464 643.034 75.624 642.314 78.264H621.146C621.242 82.344 622.13 85.656 623.81 88.2C625.49 90.744 627.986 92.016 631.298 92.016C634.658 92.016 637.826 91.344 640.802 90L642.458 94.464C639.002 96.432 635.234 97.416 631.154 97.416ZM637.49 73.008C637.49 70.416 636.962 68.376 635.906 66.888C634.85 65.4 633.386 64.656 631.514 64.656C629.642 64.656 628.082 64.992 626.834 65.664C625.634 66.288 624.698 67.104 624.026 68.112C622.874 70.032 622.154 71.808 621.866 73.44L637.49 73.584V73.008Z" fill="#ECF024"/>
<path d="M679.004 71.496V96.48H672.524V71.856C672.524 69.648 672.236 67.92 671.66 66.672C671.084 65.424 669.908 64.8 668.132 64.8C666.404 64.8 664.508 65.28 662.444 66.24C660.428 67.152 658.844 68.28 657.692 69.624V96.48H651.212V60.048H656.612L657.332 64.44C658.676 63.144 660.476 61.968 662.732 60.912C665.036 59.856 667.244 59.328 669.356 59.328C672.956 59.328 675.452 60.408 676.844 62.568C678.284 64.68 679.004 67.656 679.004 71.496Z" fill="#ECF024"/>
<path d="M701.22 97.416C697.476 97.416 695.004 96.648 693.804 95.112C692.604 93.528 692.004 90.84 692.004 87.048V65.16L684.876 64.8L685.524 60.552L692.148 60.048L692.796 51.408L698.628 50.328V60.048H709.284L708.636 65.16H698.556V87.696C698.556 88.704 698.58 89.472 698.628 90C698.724 90.48 698.988 90.936 699.42 91.368C699.9 91.752 700.908 91.944 702.444 91.944C703.98 91.944 705.516 91.68 707.052 91.152L708.276 95.976C706.02 96.936 703.668 97.416 701.22 97.416Z" fill="#ECF024"/>
<path d="M721.677 96.48H715.125V60.336L721.677 59.688V96.48ZM713.829 49.32C713.829 48.12 714.261 47.112 715.125 46.296C715.989 45.432 717.021 45 718.221 45C719.421 45 720.429 45.432 721.245 46.296C722.109 47.112 722.541 48.12 722.541 49.32C722.541 50.52 722.109 51.576 721.245 52.488C720.429 53.352 719.421 53.784 718.221 53.784C717.021 53.784 715.989 53.352 715.125 52.488C714.261 51.576 713.829 50.52 713.829 49.32Z" fill="#ECF024"/>
<path d="M737.849 96.48H731.369V60.048H736.769L737.489 65.448C738.353 64.008 739.769 62.64 741.737 61.344C743.753 60 746.033 59.328 748.577 59.328C749.969 59.328 751.025 59.448 751.745 59.688L750.449 64.872C750.017 64.824 749.393 64.8 748.577 64.8C743.345 64.8 739.769 66.696 737.849 70.488V96.48Z" fill="#ECF024"/>
<path d="M764.738 97.416C761.618 97.416 759.122 96.504 757.25 94.68C755.426 92.856 754.514 90.408 754.514 87.336C754.514 85.32 754.946 83.616 755.81 82.224C756.674 80.832 757.802 79.8 759.194 79.128C761.69 77.928 764.306 77.328 767.042 77.328C769.778 77.328 772.322 77.448 774.674 77.688V72.072C774.674 69.288 774.194 67.392 773.234 66.384C772.322 65.328 770.546 64.8 767.906 64.8C765.266 64.8 762.122 65.448 758.474 66.744L756.962 62.208C758.354 61.344 760.178 60.648 762.434 60.12C764.738 59.592 766.73 59.328 768.41 59.328C773.066 59.328 776.354 60.336 778.274 62.352C780.194 64.368 781.154 67.752 781.154 72.504V90C781.154 91.68 781.73 92.52 782.882 92.52C783.65 92.52 784.706 92.304 786.05 91.872L787.13 95.904C785.498 96.96 783.386 97.488 780.794 97.488C778.202 97.488 776.33 96.264 775.178 93.816C774.122 94.824 772.634 95.688 770.714 96.408C768.842 97.08 766.85 97.416 764.738 97.416ZM766.106 92.304C769.13 92.304 771.986 91.44 774.674 89.712V81.36C773.522 81.168 771.65 81.072 769.058 81.072C763.442 81.072 760.61 82.944 760.562 86.688C760.562 90.432 762.41 92.304 766.106 92.304Z" fill="#ECF024"/>
<path d="M791.472 89.856C794.64 91.248 797.544 91.944 800.184 91.944C802.824 91.944 804.744 91.464 805.944 90.504C807.192 89.496 807.816 88.272 807.816 86.832C807.816 85.344 807.216 84.096 806.016 83.088C804.864 82.08 803.448 81.288 801.768 80.712C800.088 80.088 798.384 79.44 796.656 78.768C794.976 78.096 793.536 77.04 792.336 75.6C791.184 74.112 790.608 72.264 790.608 70.056C790.608 66.792 791.76 64.2 794.064 62.28C796.368 60.312 799.488 59.328 803.424 59.328C807.36 59.328 810.528 60.024 812.928 61.416L811.416 66.24C808.632 65.28 806.064 64.8 803.712 64.8C801.36 64.8 799.608 65.232 798.456 66.096C797.304 66.96 796.728 68.136 796.728 69.624C796.728 71.064 797.328 72.264 798.528 73.224C799.728 74.184 801.168 74.952 802.848 75.528C804.576 76.104 806.28 76.752 807.96 77.472C809.64 78.144 811.08 79.2 812.28 80.64C813.48 82.08 814.08 83.88 814.08 86.04C814.08 89.208 812.904 91.896 810.552 94.104C808.2 96.312 804.84 97.416 800.472 97.416C798.456 97.416 796.416 97.152 794.352 96.624C792.336 96.096 790.824 95.472 789.816 94.752L791.472 89.856Z" fill="#ECF024"/>
</g>
<rect x="208" y="27" width="624.08" height="102.672" stroke="url(#paint0_linear)" stroke-width="4"/>
</g>
</g>
<defs>
<linearGradient id="paint0_linear" x1="520.04" y1="25" x2="520.04" y2="131.672" gradientUnits="userSpaceOnUse">
<stop stop-color="#FAA252"/>
<stop offset="1" stop-color="#41D519"/>
</linearGradient>
</defs>
</svg>
