<svg viewBox="0 0 900 476" fill="none" xmlns="http://www.w3.org/2000/svg">
    <g id="0131207">
        <g id="primero">
            <g id="Group 122">
                <path id="Rectangle 17 (Stroke)" fill-rule="evenodd" clip-rule="evenodd"
                    d="M0 400H900V0H0V400ZM5 5V98.1305C6.176 98.2171 7.56856 98.3018 9.17506 98.384C14.2746 98.6451 21.4299 98.8774 30.4395 99.0825C48.4532 99.4925 73.8071 99.792 104.796 99.9985C166.771 100.411 251.241 100.452 344.507 100.263C443.721 100.061 552.884 99.5987 655.5 99.0471V5H5ZM660.5 5V99.0202C700.898 98.8015 740.236 98.5693 777.5 98.3341V5H660.5ZM782.5 5V98.3025C822.962 98.0456 860.901 97.7858 895 97.5366V5H782.5ZM895 102.537C860.9 102.786 822.961 103.046 782.5 103.303V196.5H895V102.537ZM895 201.5H782.5V297H895V201.5ZM895 302H782.5V395H895V302ZM777.5 395V302H660.5V395H777.5ZM655.5 395V302H5V395H655.5ZM5 297H655.5V201.5H5V297ZM5 196.5H655.5V104.047C552.887 104.599 443.729 105.061 344.518 105.262C251.247 105.452 166.76 105.411 104.763 104.998C73.7664 104.792 48.3804 104.492 30.3257 104.081C21.3011 103.876 14.0901 103.642 8.91942 103.377C7.45468 103.302 6.14558 103.225 5 103.143V196.5ZM660.5 104.02V196.5H777.5V103.334C740.235 103.569 700.898 103.802 660.5 104.02ZM777.5 201.5H660.5V297H777.5V201.5Z"
                    fill="#091FE3" />
                <g id="Enunciado">
                    <path
                        d="M239.438 55.1699H228.346V64.2402H241.23V67H224.971V41.4062H241.055V44.1836H228.346V52.4102H239.438V55.1699Z"
                        fill="#091FE3" />
                    <path
                        d="M247.998 47.9805L248.104 50.3711C249.557 48.543 251.455 47.6289 253.799 47.6289C257.818 47.6289 259.846 49.8965 259.881 54.4316V67H256.629V54.4141C256.617 53.043 256.301 52.0293 255.68 51.373C255.07 50.7168 254.115 50.3887 252.814 50.3887C251.76 50.3887 250.834 50.6699 250.037 51.2324C249.24 51.7949 248.619 52.5332 248.174 53.4473V67H244.922V47.9805H247.998Z"
                        fill="#091FE3" />
                    <path
                        d="M276.527 65.1191C275.262 66.6074 273.404 67.3516 270.955 67.3516C268.928 67.3516 267.381 66.7656 266.314 65.5938C265.26 64.4102 264.727 62.6641 264.715 60.3555V47.9805H267.967V60.2676C267.967 63.1504 269.139 64.5918 271.482 64.5918C273.967 64.5918 275.619 63.666 276.439 61.8145V47.9805H279.691V67H276.598L276.527 65.1191Z"
                        fill="#091FE3" />
                    <path
                        d="M287.725 47.9805L287.83 50.3711C289.283 48.543 291.182 47.6289 293.525 47.6289C297.545 47.6289 299.572 49.8965 299.607 54.4316V67H296.355V54.4141C296.344 53.043 296.027 52.0293 295.406 51.373C294.797 50.7168 293.842 50.3887 292.541 50.3887C291.486 50.3887 290.561 50.6699 289.764 51.2324C288.967 51.7949 288.346 52.5332 287.9 53.4473V67H284.648V47.9805H287.725Z"
                        fill="#091FE3" />
                    <path
                        d="M312.141 64.6973C313.301 64.6973 314.314 64.3457 315.182 63.6426C316.049 62.9395 316.529 62.0605 316.623 61.0059H319.699C319.641 62.0957 319.266 63.1328 318.574 64.1172C317.883 65.1016 316.957 65.8867 315.797 66.4727C314.648 67.0586 313.43 67.3516 312.141 67.3516C309.551 67.3516 307.488 66.4902 305.953 64.7676C304.43 63.0332 303.668 60.666 303.668 57.666V57.1211C303.668 55.2695 304.008 53.623 304.688 52.1816C305.367 50.7402 306.34 49.6211 307.605 48.8242C308.883 48.0273 310.389 47.6289 312.123 47.6289C314.256 47.6289 316.025 48.2676 317.432 49.5449C318.85 50.8223 319.605 52.4805 319.699 54.5195H316.623C316.529 53.2891 316.061 52.2812 315.217 51.4961C314.385 50.6992 313.354 50.3008 312.123 50.3008C310.471 50.3008 309.188 50.8984 308.273 52.0938C307.371 53.2773 306.92 54.9941 306.92 57.2441V57.8594C306.92 60.0508 307.371 61.7383 308.273 62.9219C309.176 64.1055 310.465 64.6973 312.141 64.6973Z"
                        fill="#091FE3" />
                    <path
                        d="M326.889 67H323.637V47.9805H326.889V67ZM323.373 42.9355C323.373 42.4082 323.531 41.9629 323.848 41.5996C324.176 41.2363 324.656 41.0547 325.289 41.0547C325.922 41.0547 326.402 41.2363 326.73 41.5996C327.059 41.9629 327.223 42.4082 327.223 42.9355C327.223 43.4629 327.059 43.9023 326.73 44.2539C326.402 44.6055 325.922 44.7812 325.289 44.7812C324.656 44.7812 324.176 44.6055 323.848 44.2539C323.531 43.9023 323.373 43.4629 323.373 42.9355Z"
                        fill="#091FE3" />
                    <path
                        d="M343.852 67C343.664 66.625 343.512 65.957 343.395 64.9961C341.883 66.5664 340.078 67.3516 337.98 67.3516C336.105 67.3516 334.564 66.8242 333.357 65.7695C332.162 64.7031 331.564 63.3555 331.564 61.7266C331.564 59.7461 332.314 58.2109 333.814 57.1211C335.326 56.0195 337.447 55.4688 340.178 55.4688H343.342V53.9746C343.342 52.8379 343.002 51.9355 342.322 51.2676C341.643 50.5879 340.641 50.248 339.316 50.248C338.156 50.248 337.184 50.541 336.398 51.127C335.613 51.7129 335.221 52.4219 335.221 53.2539H331.951C331.951 52.3047 332.285 51.3906 332.953 50.5117C333.633 49.6211 334.547 48.918 335.695 48.4023C336.855 47.8867 338.127 47.6289 339.51 47.6289C341.701 47.6289 343.418 48.1797 344.66 49.2812C345.902 50.3711 346.547 51.877 346.594 53.7988V62.5527C346.594 64.2988 346.816 65.6875 347.262 66.7188V67H343.852ZM338.455 64.5215C339.475 64.5215 340.441 64.2578 341.355 63.7305C342.27 63.2031 342.932 62.5176 343.342 61.6738V57.7715H340.793C336.809 57.7715 334.816 58.9375 334.816 61.2695C334.816 62.2891 335.156 63.0859 335.836 63.6602C336.516 64.2344 337.389 64.5215 338.455 64.5215Z"
                        fill="#091FE3" />
                    <path
                        d="M350.9 57.332C350.9 54.4141 351.592 52.0703 352.975 50.3008C354.357 48.5195 356.168 47.6289 358.406 47.6289C360.633 47.6289 362.396 48.3906 363.697 49.9141V40H366.949V67H363.961L363.803 64.9609C362.502 66.5547 360.691 67.3516 358.371 67.3516C356.168 67.3516 354.369 66.4492 352.975 64.6445C351.592 62.8398 350.9 60.4844 350.9 57.5781V57.332ZM354.152 57.7012C354.152 59.8574 354.598 61.5449 355.488 62.7637C356.379 63.9824 357.609 64.5918 359.18 64.5918C361.242 64.5918 362.748 63.666 363.697 61.8145V53.0781C362.725 51.2852 361.23 50.3887 359.215 50.3887C357.621 50.3887 356.379 51.0039 355.488 52.2344C354.598 53.4648 354.152 55.2871 354.152 57.7012Z"
                        fill="#091FE3" />
                    <path
                        d="M371.15 57.3145C371.15 55.4512 371.514 53.7754 372.24 52.2871C372.979 50.7988 373.998 49.6504 375.299 48.8418C376.611 48.0332 378.105 47.6289 379.781 47.6289C382.371 47.6289 384.463 48.5254 386.057 50.3184C387.662 52.1113 388.465 54.4961 388.465 57.4727V57.7012C388.465 59.5527 388.107 61.2168 387.393 62.6934C386.689 64.1582 385.676 65.3008 384.352 66.1211C383.039 66.9414 381.527 67.3516 379.816 67.3516C377.238 67.3516 375.146 66.4551 373.541 64.6621C371.947 62.8691 371.15 60.4961 371.15 57.543V57.3145ZM374.42 57.7012C374.42 59.8105 374.906 61.5039 375.879 62.7812C376.863 64.0586 378.176 64.6973 379.816 64.6973C381.469 64.6973 382.781 64.0527 383.754 62.7637C384.727 61.4629 385.213 59.6465 385.213 57.3145C385.213 55.2285 384.715 53.541 383.719 52.252C382.734 50.9512 381.422 50.3008 379.781 50.3008C378.176 50.3008 376.881 50.9395 375.896 52.2168C374.912 53.4941 374.42 55.3223 374.42 57.7012Z"
                        fill="#091FE3" />
                </g>
                <g id="1&#194;&#176;">
                    <path d="M714.814 64H711.545V42.3262L704.988 44.7344V41.7812L714.305 38.2832H714.814V64Z"
                        fill="#091FE3" />
                    <path
                        d="M724.5 42.625C724.5 41.4062 724.934 40.3398 725.801 39.4258C726.68 38.5117 727.74 38.0547 728.982 38.0547C730.201 38.0547 731.238 38.5117 732.094 39.4258C732.961 40.3281 733.395 41.3945 733.395 42.625C733.395 43.8672 732.961 44.9277 732.094 45.8066C731.238 46.6855 730.201 47.125 728.982 47.125C727.752 47.125 726.697 46.6855 725.818 45.8066C724.939 44.9277 724.5 43.8672 724.5 42.625ZM728.982 44.875C729.615 44.875 730.148 44.6699 730.582 44.2598C731.016 43.8379 731.232 43.293 731.232 42.625C731.232 41.9453 731.016 41.3887 730.582 40.9551C730.148 40.5098 729.615 40.2871 728.982 40.2871C728.338 40.2871 727.793 40.5215 727.348 40.9902C726.914 41.4473 726.697 41.9922 726.697 42.625C726.697 43.2578 726.914 43.791 727.348 44.2246C727.793 44.6582 728.338 44.875 728.982 44.875Z"
                        fill="#091FE3" />
                </g>
                <g id="2&#194;&#176;">
                    <path
                        d="M854.896 64H838.127V61.6621L846.986 51.8184C848.299 50.3301 849.201 49.123 849.693 48.1973C850.197 47.2598 850.449 46.293 850.449 45.2969C850.449 43.9609 850.045 42.8652 849.236 42.0098C848.428 41.1543 847.35 40.7266 846.002 40.7266C844.385 40.7266 843.125 41.1895 842.223 42.1152C841.332 43.0293 840.887 44.3066 840.887 45.9473H837.635C837.635 43.5918 838.391 41.6875 839.902 40.2344C841.426 38.7812 843.459 38.0547 846.002 38.0547C848.381 38.0547 850.262 38.6816 851.645 39.9355C853.027 41.1777 853.719 42.8359 853.719 44.9102C853.719 47.4297 852.113 50.4297 848.902 53.9102L842.047 61.3457H854.896V64Z"
                        fill="#091FE3" />
                    <path
                        d="M858.5 42.625C858.5 41.4062 858.934 40.3398 859.801 39.4258C860.68 38.5117 861.74 38.0547 862.982 38.0547C864.201 38.0547 865.238 38.5117 866.094 39.4258C866.961 40.3281 867.395 41.3945 867.395 42.625C867.395 43.8672 866.961 44.9277 866.094 45.8066C865.238 46.6855 864.201 47.125 862.982 47.125C861.752 47.125 860.697 46.6855 859.818 45.8066C858.939 44.9277 858.5 43.8672 858.5 42.625ZM862.982 44.875C863.615 44.875 864.148 44.6699 864.582 44.2598C865.016 43.8379 865.232 43.293 865.232 42.625C865.232 41.9453 865.016 41.3887 864.582 40.9551C864.148 40.5098 863.615 40.2871 862.982 40.2871C862.338 40.2871 861.793 40.5215 861.348 40.9902C860.914 41.4473 860.697 41.9922 860.697 42.625C860.697 43.2578 860.914 43.791 861.348 44.2246C861.793 44.6582 862.338 44.875 862.982 44.875Z"
                        fill="#091FE3" />
                </g>
            </g>
            <g id="Group 121">
                <g id="K dijo que fue el sospechoso A">
                    <path
                        d="M43.4746 151.1L40.3457 154.352V163H36.9707V137.406H40.3457V150.062L51.7188 137.406H55.7969L45.7246 148.709L56.5879 163H52.5449L43.4746 151.1Z"
                        fill="white" />
                    <path
                        d="M70.7699 153.332C70.7699 150.414 71.4613 148.07 72.8441 146.301C74.227 144.52 76.0375 143.629 78.2758 143.629C80.5023 143.629 82.266 144.391 83.5668 145.914V136H86.8187V163H83.8305L83.6723 160.961C82.3715 162.555 80.5609 163.352 78.2406 163.352C76.0375 163.352 74.2387 162.449 72.8441 160.645C71.4613 158.84 70.7699 156.484 70.7699 153.578V153.332ZM74.0219 153.701C74.0219 155.857 74.4672 157.545 75.3578 158.764C76.2484 159.982 77.4789 160.592 79.0492 160.592C81.1117 160.592 82.6176 159.666 83.5668 157.814V149.078C82.5941 147.285 81.1 146.389 79.0844 146.389C77.4906 146.389 76.2484 147.004 75.3578 148.234C74.4672 149.465 74.0219 151.287 74.0219 153.701Z"
                        fill="white" />
                    <path
                        d="M97.2145 163H93.9625V143.98H97.2145V163ZM93.6988 138.936C93.6988 138.408 93.857 137.963 94.1734 137.6C94.5016 137.236 94.982 137.055 95.6148 137.055C96.2477 137.055 96.7281 137.236 97.0563 137.6C97.3844 137.963 97.5484 138.408 97.5484 138.936C97.5484 139.463 97.3844 139.902 97.0563 140.254C96.7281 140.605 96.2477 140.781 95.6148 140.781C94.982 140.781 94.5016 140.605 94.1734 140.254C93.857 139.902 93.6988 139.463 93.6988 138.936Z"
                        fill="white" />
                    <path
                        d="M107.593 143.98V165.197C107.593 168.854 105.934 170.682 102.618 170.682C101.903 170.682 101.241 170.576 100.632 170.365V167.764C101.007 167.857 101.499 167.904 102.108 167.904C102.835 167.904 103.386 167.705 103.761 167.307C104.147 166.92 104.341 166.24 104.341 165.268V143.98H107.593ZM104.007 138.936C104.007 138.42 104.165 137.98 104.481 137.617C104.809 137.242 105.284 137.055 105.905 137.055C106.538 137.055 107.018 137.236 107.346 137.6C107.675 137.963 107.839 138.408 107.839 138.936C107.839 139.463 107.675 139.902 107.346 140.254C107.018 140.605 106.538 140.781 105.905 140.781C105.272 140.781 104.798 140.605 104.481 140.254C104.165 139.902 104.007 139.463 104.007 138.936Z"
                        fill="white" />
                    <path
                        d="M113.787 153.314C113.787 151.451 114.15 149.775 114.877 148.287C115.615 146.799 116.635 145.65 117.936 144.842C119.248 144.033 120.742 143.629 122.418 143.629C125.008 143.629 127.1 144.525 128.693 146.318C130.299 148.111 131.102 150.496 131.102 153.473V153.701C131.102 155.553 130.744 157.217 130.029 158.693C129.326 160.158 128.312 161.301 126.988 162.121C125.676 162.941 124.164 163.352 122.453 163.352C119.875 163.352 117.783 162.455 116.178 160.662C114.584 158.869 113.787 156.496 113.787 153.543V153.314ZM117.057 153.701C117.057 155.811 117.543 157.504 118.516 158.781C119.5 160.059 120.812 160.697 122.453 160.697C124.105 160.697 125.418 160.053 126.391 158.764C127.363 157.463 127.85 155.646 127.85 153.314C127.85 151.229 127.352 149.541 126.355 148.252C125.371 146.951 124.059 146.301 122.418 146.301C120.812 146.301 119.518 146.939 118.533 148.217C117.549 149.494 117.057 151.322 117.057 153.701Z"
                        fill="white" />
                    <path
                        d="M146.918 153.332C146.918 150.344 147.604 147.982 148.975 146.248C150.346 144.502 152.186 143.629 154.495 143.629C156.745 143.629 158.52 144.385 159.821 145.896L159.961 143.98H162.95V170.312H159.698V161.242C158.385 162.648 156.639 163.352 154.459 163.352C152.162 163.352 150.329 162.461 148.957 160.68C147.598 158.887 146.918 156.514 146.918 153.561V153.332ZM150.17 153.701C150.17 155.881 150.627 157.592 151.541 158.834C152.467 160.076 153.709 160.697 155.268 160.697C157.202 160.697 158.678 159.842 159.698 158.131V148.814C158.666 147.139 157.202 146.301 155.303 146.301C153.733 146.301 152.485 146.928 151.559 148.182C150.633 149.424 150.17 151.264 150.17 153.701Z"
                        fill="white" />
                    <path
                        d="M181.712 161.119C180.447 162.607 178.589 163.352 176.14 163.352C174.113 163.352 172.566 162.766 171.5 161.594C170.445 160.41 169.912 158.664 169.9 156.355V143.98H173.152V156.268C173.152 159.15 174.324 160.592 176.668 160.592C179.152 160.592 180.804 159.666 181.625 157.814V143.98H184.877V163H181.783L181.712 161.119Z"
                        fill="white" />
                    <path
                        d="M199.526 163.352C196.948 163.352 194.85 162.508 193.233 160.82C191.616 159.121 190.807 156.854 190.807 154.018V153.42C190.807 151.533 191.165 149.852 191.88 148.375C192.606 146.887 193.614 145.727 194.903 144.895C196.204 144.051 197.61 143.629 199.122 143.629C201.595 143.629 203.516 144.443 204.887 146.072C206.259 147.701 206.944 150.033 206.944 153.068V154.422H194.059C194.106 156.297 194.651 157.814 195.694 158.975C196.749 160.123 198.085 160.697 199.702 160.697C200.85 160.697 201.823 160.463 202.62 159.994C203.417 159.525 204.114 158.904 204.712 158.131L206.698 159.678C205.104 162.127 202.714 163.352 199.526 163.352ZM199.122 146.301C197.809 146.301 196.708 146.781 195.817 147.742C194.927 148.691 194.376 150.027 194.165 151.75H203.692V151.504C203.598 149.852 203.153 148.574 202.356 147.672C201.559 146.758 200.481 146.301 199.122 146.301Z"
                        fill="white" />
                    <path
                        d="M224.853 163V146.494H221.847V143.98H224.853V142.029C224.853 139.99 225.398 138.414 226.488 137.301C227.577 136.188 229.118 135.631 231.111 135.631C231.861 135.631 232.605 135.73 233.343 135.93L233.167 138.566C232.616 138.461 232.03 138.408 231.409 138.408C230.355 138.408 229.54 138.719 228.966 139.34C228.392 139.949 228.105 140.828 228.105 141.977V143.98H232.165V146.494H228.105V163H224.853Z"
                        fill="white" />
                    <path
                        d="M249.311 161.119C248.045 162.607 246.188 163.352 243.739 163.352C241.711 163.352 240.164 162.766 239.098 161.594C238.043 160.41 237.51 158.664 237.498 156.355V143.98H240.75V156.268C240.75 159.15 241.922 160.592 244.266 160.592C246.75 160.592 248.403 159.666 249.223 157.814V143.98H252.475V163H249.381L249.311 161.119Z"
                        fill="white" />
                    <path
                        d="M267.125 163.352C264.546 163.352 262.449 162.508 260.832 160.82C259.214 159.121 258.406 156.854 258.406 154.018V153.42C258.406 151.533 258.763 149.852 259.478 148.375C260.205 146.887 261.212 145.727 262.502 144.895C263.802 144.051 265.209 143.629 266.72 143.629C269.193 143.629 271.115 144.443 272.486 146.072C273.857 147.701 274.543 150.033 274.543 153.068V154.422H261.658C261.705 156.297 262.25 157.814 263.293 158.975C264.347 160.123 265.683 160.697 267.3 160.697C268.449 160.697 269.421 160.463 270.218 159.994C271.015 159.525 271.712 158.904 272.31 158.131L274.296 159.678C272.703 162.127 270.312 163.352 267.125 163.352ZM266.72 146.301C265.408 146.301 264.306 146.781 263.416 147.742C262.525 148.691 261.974 150.027 261.763 151.75H271.291V151.504C271.197 149.852 270.752 148.574 269.955 147.672C269.158 146.758 268.08 146.301 266.72 146.301Z"
                        fill="white" />
                    <path
                        d="M298.744 163.352C296.166 163.352 294.068 162.508 292.451 160.82C290.834 159.121 290.025 156.854 290.025 154.018V153.42C290.025 151.533 290.383 149.852 291.098 148.375C291.824 146.887 292.832 145.727 294.121 144.895C295.422 144.051 296.828 143.629 298.34 143.629C300.812 143.629 302.734 144.443 304.105 146.072C305.477 147.701 306.162 150.033 306.162 153.068V154.422H293.277C293.324 156.297 293.869 157.814 294.912 158.975C295.967 160.123 297.303 160.697 298.92 160.697C300.068 160.697 301.041 160.463 301.838 159.994C302.635 159.525 303.332 158.904 303.93 158.131L305.916 159.678C304.322 162.127 301.932 163.352 298.744 163.352ZM298.34 146.301C297.027 146.301 295.926 146.781 295.035 147.742C294.145 148.691 293.594 150.027 293.383 151.75H302.91V151.504C302.816 149.852 302.371 148.574 301.574 147.672C300.777 146.758 299.699 146.301 298.34 146.301Z"
                        fill="white" />
                    <path d="M315.275 163H312.023V136H315.275V163Z" fill="white" />
                    <path
                        d="M344.099 157.955C344.099 157.076 343.765 156.396 343.097 155.916C342.441 155.424 341.287 155.002 339.634 154.65C337.994 154.299 336.687 153.877 335.714 153.385C334.754 152.893 334.039 152.307 333.57 151.627C333.113 150.947 332.884 150.139 332.884 149.201C332.884 147.643 333.541 146.324 334.853 145.246C336.177 144.168 337.865 143.629 339.916 143.629C342.072 143.629 343.818 144.186 345.154 145.299C346.502 146.412 347.175 147.836 347.175 149.57H343.906C343.906 148.68 343.525 147.912 342.763 147.268C342.013 146.623 341.064 146.301 339.916 146.301C338.732 146.301 337.806 146.559 337.138 147.074C336.47 147.59 336.136 148.264 336.136 149.096C336.136 149.881 336.447 150.473 337.068 150.871C337.689 151.27 338.808 151.65 340.425 152.014C342.054 152.377 343.373 152.811 344.38 153.314C345.388 153.818 346.132 154.428 346.613 155.143C347.105 155.846 347.351 156.707 347.351 157.727C347.351 159.426 346.671 160.791 345.312 161.822C343.953 162.842 342.189 163.352 340.021 163.352C338.498 163.352 337.15 163.082 335.978 162.543C334.806 162.004 333.886 161.254 333.218 160.293C332.562 159.32 332.234 158.271 332.234 157.146H335.486C335.545 158.236 335.978 159.104 336.787 159.748C337.607 160.381 338.685 160.697 340.021 160.697C341.252 160.697 342.236 160.451 342.974 159.959C343.724 159.455 344.099 158.787 344.099 157.955Z"
                        fill="white" />
                    <path
                        d="M352.526 153.314C352.526 151.451 352.889 149.775 353.616 148.287C354.354 146.799 355.374 145.65 356.675 144.842C357.987 144.033 359.481 143.629 361.157 143.629C363.747 143.629 365.839 144.525 367.432 146.318C369.038 148.111 369.841 150.496 369.841 153.473V153.701C369.841 155.553 369.483 157.217 368.768 158.693C368.065 160.158 367.052 161.301 365.727 162.121C364.415 162.941 362.903 163.352 361.192 163.352C358.614 163.352 356.522 162.455 354.917 160.662C353.323 158.869 352.526 156.496 352.526 153.543V153.314ZM355.796 153.701C355.796 155.811 356.282 157.504 357.255 158.781C358.239 160.059 359.552 160.697 361.192 160.697C362.845 160.697 364.157 160.053 365.13 158.764C366.102 157.463 366.589 155.646 366.589 153.314C366.589 151.229 366.091 149.541 365.095 148.252C364.11 146.951 362.798 146.301 361.157 146.301C359.552 146.301 358.257 146.939 357.272 148.217C356.288 149.494 355.796 151.322 355.796 153.701Z"
                        fill="white" />
                    <path
                        d="M386.793 157.955C386.793 157.076 386.459 156.396 385.791 155.916C385.135 155.424 383.98 155.002 382.328 154.65C380.688 154.299 379.381 153.877 378.408 153.385C377.447 152.893 376.732 152.307 376.264 151.627C375.807 150.947 375.578 150.139 375.578 149.201C375.578 147.643 376.234 146.324 377.547 145.246C378.871 144.168 380.559 143.629 382.609 143.629C384.766 143.629 386.512 144.186 387.848 145.299C389.195 146.412 389.869 147.836 389.869 149.57H386.6C386.6 148.68 386.219 147.912 385.457 147.268C384.707 146.623 383.758 146.301 382.609 146.301C381.426 146.301 380.5 146.559 379.832 147.074C379.164 147.59 378.83 148.264 378.83 149.096C378.83 149.881 379.141 150.473 379.762 150.871C380.383 151.27 381.502 151.65 383.119 152.014C384.748 152.377 386.066 152.811 387.074 153.314C388.082 153.818 388.826 154.428 389.307 155.143C389.799 155.846 390.045 156.707 390.045 157.727C390.045 159.426 389.365 160.791 388.006 161.822C386.646 162.842 384.883 163.352 382.715 163.352C381.191 163.352 379.844 163.082 378.672 162.543C377.5 162.004 376.58 161.254 375.912 160.293C375.256 159.32 374.928 158.271 374.928 157.146H378.18C378.238 158.236 378.672 159.104 379.48 159.748C380.301 160.381 381.379 160.697 382.715 160.697C383.945 160.697 384.93 160.451 385.668 159.959C386.418 159.455 386.793 158.787 386.793 157.955Z"
                        fill="white" />
                    <path
                        d="M412.148 153.701C412.148 156.596 411.486 158.928 410.161 160.697C408.837 162.467 407.044 163.352 404.782 163.352C402.474 163.352 400.657 162.619 399.333 161.154V170.312H396.081V143.98H399.052L399.21 146.09C400.534 144.449 402.374 143.629 404.73 143.629C407.015 143.629 408.82 144.49 410.144 146.213C411.48 147.936 412.148 150.332 412.148 153.402V153.701ZM408.896 153.332C408.896 151.188 408.439 149.494 407.525 148.252C406.611 147.01 405.357 146.389 403.763 146.389C401.794 146.389 400.318 147.262 399.333 149.008V158.096C400.306 159.83 401.794 160.697 403.798 160.697C405.357 160.697 406.593 160.082 407.507 158.852C408.433 157.609 408.896 155.77 408.896 153.332Z"
                        fill="white" />
                    <path
                        d="M425.989 163.352C423.411 163.352 421.313 162.508 419.696 160.82C418.079 159.121 417.27 156.854 417.27 154.018V153.42C417.27 151.533 417.627 149.852 418.342 148.375C419.069 146.887 420.077 145.727 421.366 144.895C422.666 144.051 424.073 143.629 425.584 143.629C428.057 143.629 429.979 144.443 431.35 146.072C432.721 147.701 433.407 150.033 433.407 153.068V154.422H420.522C420.569 156.297 421.114 157.814 422.157 158.975C423.211 160.123 424.547 160.697 426.164 160.697C427.313 160.697 428.286 160.463 429.082 159.994C429.879 159.525 430.577 158.904 431.174 158.131L433.161 159.678C431.567 162.127 429.176 163.352 425.989 163.352ZM425.584 146.301C424.272 146.301 423.17 146.781 422.28 147.742C421.389 148.691 420.838 150.027 420.627 151.75H430.155V151.504C430.061 149.852 429.616 148.574 428.819 147.672C428.022 146.758 426.944 146.301 425.584 146.301Z"
                        fill="white" />
                    <path
                        d="M446.615 160.697C447.775 160.697 448.789 160.346 449.656 159.643C450.523 158.939 451.004 158.061 451.097 157.006H454.173C454.115 158.096 453.74 159.133 453.048 160.117C452.357 161.102 451.431 161.887 450.271 162.473C449.123 163.059 447.904 163.352 446.615 163.352C444.025 163.352 441.962 162.49 440.427 160.768C438.904 159.033 438.142 156.666 438.142 153.666V153.121C438.142 151.27 438.482 149.623 439.162 148.182C439.841 146.74 440.814 145.621 442.08 144.824C443.357 144.027 444.863 143.629 446.597 143.629C448.73 143.629 450.5 144.268 451.906 145.545C453.324 146.822 454.08 148.48 454.173 150.52H451.097C451.004 149.289 450.535 148.281 449.691 147.496C448.859 146.699 447.828 146.301 446.597 146.301C444.945 146.301 443.662 146.898 442.748 148.094C441.845 149.277 441.394 150.994 441.394 153.244V153.859C441.394 156.051 441.845 157.738 442.748 158.922C443.65 160.105 444.939 160.697 446.615 160.697Z"
                        fill="white" />
                    <path
                        d="M462.882 146.283C464.323 144.514 466.198 143.629 468.507 143.629C472.526 143.629 474.554 145.896 474.589 150.432V163H471.337V150.414C471.325 149.043 471.009 148.029 470.388 147.373C469.778 146.717 468.823 146.389 467.522 146.389C466.468 146.389 465.542 146.67 464.745 147.232C463.948 147.795 463.327 148.533 462.882 149.447V163H459.63V136H462.882V146.283Z"
                        fill="white" />
                    <path
                        d="M480.396 153.314C480.396 151.451 480.76 149.775 481.486 148.287C482.225 146.799 483.244 145.65 484.545 144.842C485.857 144.033 487.352 143.629 489.027 143.629C491.617 143.629 493.709 144.525 495.303 146.318C496.908 148.111 497.711 150.496 497.711 153.473V153.701C497.711 155.553 497.354 157.217 496.639 158.693C495.936 160.158 494.922 161.301 493.598 162.121C492.285 162.941 490.773 163.352 489.062 163.352C486.484 163.352 484.393 162.455 482.787 160.662C481.193 158.869 480.396 156.496 480.396 153.543V153.314ZM483.666 153.701C483.666 155.811 484.152 157.504 485.125 158.781C486.109 160.059 487.422 160.697 489.062 160.697C490.715 160.697 492.027 160.053 493 158.764C493.973 157.463 494.459 155.646 494.459 153.314C494.459 151.229 493.961 149.541 492.965 148.252C491.98 146.951 490.668 146.301 489.027 146.301C487.422 146.301 486.127 146.939 485.143 148.217C484.158 149.494 483.666 151.322 483.666 153.701Z"
                        fill="white" />
                    <path
                        d="M514.663 157.955C514.663 157.076 514.329 156.396 513.661 155.916C513.005 155.424 511.851 155.002 510.198 154.65C508.558 154.299 507.251 153.877 506.279 153.385C505.318 152.893 504.603 152.307 504.134 151.627C503.677 150.947 503.448 150.139 503.448 149.201C503.448 147.643 504.105 146.324 505.417 145.246C506.741 144.168 508.429 143.629 510.48 143.629C512.636 143.629 514.382 144.186 515.718 145.299C517.066 146.412 517.739 147.836 517.739 149.57H514.47C514.47 148.68 514.089 147.912 513.327 147.268C512.577 146.623 511.628 146.301 510.48 146.301C509.296 146.301 508.37 146.559 507.702 147.074C507.034 147.59 506.7 148.264 506.7 149.096C506.7 149.881 507.011 150.473 507.632 150.871C508.253 151.27 509.372 151.65 510.989 152.014C512.618 152.377 513.937 152.811 514.945 153.314C515.952 153.818 516.696 154.428 517.177 155.143C517.669 155.846 517.915 156.707 517.915 157.727C517.915 159.426 517.236 160.791 515.876 161.822C514.517 162.842 512.753 163.352 510.585 163.352C509.062 163.352 507.714 163.082 506.542 162.543C505.37 162.004 504.45 161.254 503.782 160.293C503.126 159.32 502.798 158.271 502.798 157.146H506.05C506.109 158.236 506.542 159.104 507.351 159.748C508.171 160.381 509.249 160.697 510.585 160.697C511.816 160.697 512.8 160.451 513.538 159.959C514.288 159.455 514.663 158.787 514.663 157.955Z"
                        fill="white" />
                    <path
                        d="M523.09 153.314C523.09 151.451 523.454 149.775 524.18 148.287C524.918 146.799 525.938 145.65 527.239 144.842C528.551 144.033 530.045 143.629 531.721 143.629C534.311 143.629 536.403 144.525 537.996 146.318C539.602 148.111 540.405 150.496 540.405 153.473V153.701C540.405 155.553 540.047 157.217 539.332 158.693C538.629 160.158 537.616 161.301 536.291 162.121C534.979 162.941 533.467 163.352 531.756 163.352C529.178 163.352 527.086 162.455 525.481 160.662C523.887 158.869 523.09 156.496 523.09 153.543V153.314ZM526.36 153.701C526.36 155.811 526.846 157.504 527.819 158.781C528.803 160.059 530.116 160.697 531.756 160.697C533.409 160.697 534.721 160.053 535.694 158.764C536.666 157.463 537.153 155.646 537.153 153.314C537.153 151.229 536.655 149.541 535.659 148.252C534.674 146.951 533.362 146.301 531.721 146.301C530.116 146.301 528.821 146.939 527.836 148.217C526.852 149.494 526.36 151.322 526.36 153.701Z"
                        fill="white" />
                    <path
                        d="M571.655 156.32H560.932L558.524 163H555.044L564.817 137.406H567.77L577.561 163H574.098L571.655 156.32ZM561.952 153.543H570.653L566.294 141.572L561.952 153.543Z"
                        fill="white" />
                </g>
                <g id="T afirm&#195;&#179; que &#195;&#169;l no fue">
                    <path d="M54.6543 236.184H46.4277V259H43.0703V236.184H34.8613V233.406H54.6543V236.184Z"
                        fill="white" />
                    <path
                        d="M81.5102 259C81.3227 258.625 81.1703 257.957 81.0531 256.996C79.5414 258.566 77.7367 259.352 75.6391 259.352C73.7641 259.352 72.223 258.824 71.016 257.77C69.8207 256.703 69.223 255.355 69.223 253.727C69.223 251.746 69.973 250.211 71.473 249.121C72.9848 248.02 75.1059 247.469 77.8363 247.469H81.0004V245.975C81.0004 244.838 80.6605 243.936 79.9809 243.268C79.3012 242.588 78.2992 242.248 76.975 242.248C75.8148 242.248 74.8422 242.541 74.057 243.127C73.2719 243.713 72.8793 244.422 72.8793 245.254H69.6098C69.6098 244.305 69.9437 243.391 70.6117 242.512C71.2914 241.621 72.2055 240.918 73.3539 240.402C74.5141 239.887 75.7855 239.629 77.1684 239.629C79.3598 239.629 81.0766 240.18 82.3187 241.281C83.5609 242.371 84.2055 243.877 84.2523 245.799V254.553C84.2523 256.299 84.475 257.688 84.9203 258.719V259H81.5102ZM76.1137 256.521C77.1332 256.521 78.1 256.258 79.0141 255.73C79.9281 255.203 80.5902 254.518 81.0004 253.674V249.771H78.4516C74.4672 249.771 72.475 250.938 72.475 253.27C72.475 254.289 72.8148 255.086 73.4945 255.66C74.1742 256.234 75.0473 256.521 76.1137 256.521Z"
                        fill="white" />
                    <path
                        d="M92.2398 259V242.494H89.234V239.98H92.2398V238.363C92.2398 236.242 92.8434 234.59 94.0504 233.406C95.2691 232.223 96.9859 231.631 99.2008 231.631C100.513 231.631 102.171 231.988 104.175 232.703L103.63 235.445C102.166 234.859 100.771 234.566 99.4469 234.566C98.0523 234.566 97.0445 234.883 96.4234 235.516C95.8141 236.137 95.5094 237.074 95.5094 238.328V239.98H99.3941V242.494H95.5094V259H92.2398ZM105.793 259H102.523V239.98H105.793V259Z"
                        fill="white" />
                    <path
                        d="M122.077 242.898C121.585 242.816 121.052 242.775 120.477 242.775C118.345 242.775 116.897 243.684 116.136 245.5V259H112.884V239.98H116.048L116.1 242.178C117.167 240.479 118.679 239.629 120.636 239.629C121.268 239.629 121.749 239.711 122.077 239.875V242.898Z"
                        fill="white" />
                    <path
                        d="M129.941 239.98L130.029 242.09C131.424 240.449 133.305 239.629 135.672 239.629C138.332 239.629 140.143 240.648 141.104 242.688C141.736 241.773 142.557 241.035 143.564 240.473C144.584 239.91 145.785 239.629 147.168 239.629C151.34 239.629 153.461 241.838 153.531 246.256V259H150.279V246.449C150.279 245.09 149.969 244.076 149.348 243.408C148.727 242.729 147.684 242.389 146.219 242.389C145.012 242.389 144.01 242.752 143.213 243.479C142.416 244.193 141.953 245.16 141.824 246.379V259H138.555V246.537C138.555 243.771 137.201 242.389 134.494 242.389C132.361 242.389 130.902 243.297 130.117 245.113V259H126.865V239.98H129.941Z"
                        fill="white" />
                    <path
                        d="M159.392 249.314C159.392 247.451 159.755 245.775 160.482 244.287C161.22 242.799 162.239 241.65 163.54 240.842C164.853 240.033 166.347 239.629 168.023 239.629C170.613 239.629 172.704 240.525 174.298 242.318C175.904 244.111 176.706 246.496 176.706 249.473V249.701C176.706 251.553 176.349 253.217 175.634 254.693C174.931 256.158 173.917 257.301 172.593 258.121C171.28 258.941 169.769 259.352 168.058 259.352C165.48 259.352 163.388 258.455 161.782 256.662C160.189 254.869 159.392 252.496 159.392 249.543V249.314ZM162.661 249.701C162.661 251.811 163.148 253.504 164.12 254.781C165.105 256.059 166.417 256.697 168.058 256.697C169.71 256.697 171.023 256.053 171.995 254.764C172.968 253.463 173.454 251.646 173.454 249.314C173.454 247.229 172.956 245.541 171.96 244.252C170.976 242.951 169.663 242.301 168.023 242.301C166.417 242.301 165.122 242.939 164.138 244.217C163.154 245.494 162.661 247.322 162.661 249.701ZM169.499 232H173.437L168.726 237.168H166.107L169.499 232Z"
                        fill="white" />
                    <path
                        d="M192.523 249.332C192.523 246.344 193.209 243.982 194.58 242.248C195.951 240.502 197.791 239.629 200.099 239.629C202.349 239.629 204.125 240.385 205.425 241.896L205.566 239.98H208.554V266.312H205.302V257.242C203.99 258.648 202.244 259.352 200.064 259.352C197.767 259.352 195.933 258.461 194.562 256.68C193.203 254.887 192.523 252.514 192.523 249.561V249.332ZM195.775 249.701C195.775 251.881 196.232 253.592 197.146 254.834C198.072 256.076 199.314 256.697 200.873 256.697C202.806 256.697 204.283 255.842 205.302 254.131V244.814C204.271 243.139 202.806 242.301 200.908 242.301C199.337 242.301 198.089 242.928 197.164 244.182C196.238 245.424 195.775 247.264 195.775 249.701Z"
                        fill="white" />
                    <path
                        d="M227.317 257.119C226.052 258.607 224.194 259.352 221.745 259.352C219.718 259.352 218.171 258.766 217.104 257.594C216.05 256.41 215.516 254.664 215.505 252.355V239.98H218.757V252.268C218.757 255.15 219.929 256.592 222.272 256.592C224.757 256.592 226.409 255.666 227.229 253.814V239.98H230.481V259H227.387L227.317 257.119Z"
                        fill="white" />
                    <path
                        d="M245.131 259.352C242.553 259.352 240.455 258.508 238.838 256.82C237.221 255.121 236.412 252.854 236.412 250.018V249.42C236.412 247.533 236.77 245.852 237.484 244.375C238.211 242.887 239.219 241.727 240.508 240.895C241.809 240.051 243.215 239.629 244.727 239.629C247.199 239.629 249.121 240.443 250.492 242.072C251.863 243.701 252.549 246.033 252.549 249.068V250.422H239.664C239.711 252.297 240.256 253.814 241.299 254.975C242.354 256.123 243.689 256.697 245.307 256.697C246.455 256.697 247.428 256.463 248.225 255.994C249.021 255.525 249.719 254.904 250.316 254.131L252.303 255.678C250.709 258.127 248.318 259.352 245.131 259.352ZM244.727 242.301C243.414 242.301 242.312 242.781 241.422 243.742C240.531 244.691 239.98 246.027 239.77 247.75H249.297V247.504C249.203 245.852 248.758 244.574 247.961 243.672C247.164 242.758 246.086 242.301 244.727 242.301Z"
                        fill="white" />
                    <path
                        d="M276.75 259.352C274.172 259.352 272.075 258.508 270.457 256.82C268.84 255.121 268.032 252.854 268.032 250.018V249.42C268.032 247.533 268.389 245.852 269.104 244.375C269.83 242.887 270.838 241.727 272.127 240.895C273.428 240.051 274.834 239.629 276.346 239.629C278.819 239.629 280.741 240.443 282.112 242.072C283.483 243.701 284.168 246.033 284.168 249.068V250.422H271.284C271.33 252.297 271.875 253.814 272.918 254.975C273.973 256.123 275.309 256.697 276.926 256.697C278.075 256.697 279.047 256.463 279.844 255.994C280.641 255.525 281.338 254.904 281.936 254.131L283.922 255.678C282.329 258.127 279.938 259.352 276.75 259.352ZM276.346 242.301C275.034 242.301 273.932 242.781 273.041 243.742C272.151 244.691 271.6 246.027 271.389 247.75H280.916V247.504C280.823 245.852 280.377 244.574 279.58 243.672C278.784 242.758 277.705 242.301 276.346 242.301ZM277.928 232H281.866L277.155 237.168H274.536L277.928 232Z"
                        fill="white" />
                    <path d="M293.281 259H290.029V232H293.281V259Z" fill="white" />
                    <path
                        d="M314.107 239.98L314.213 242.371C315.666 240.543 317.564 239.629 319.908 239.629C323.928 239.629 325.955 241.896 325.99 246.432V259H322.738V246.414C322.727 245.043 322.41 244.029 321.789 243.373C321.18 242.717 320.225 242.389 318.924 242.389C317.869 242.389 316.943 242.67 316.146 243.232C315.35 243.795 314.729 244.533 314.283 245.447V259H311.031V239.98H314.107Z"
                        fill="white" />
                    <path
                        d="M331.833 249.314C331.833 247.451 332.196 245.775 332.923 244.287C333.661 242.799 334.681 241.65 335.982 240.842C337.294 240.033 338.788 239.629 340.464 239.629C343.054 239.629 345.146 240.525 346.739 242.318C348.345 244.111 349.148 246.496 349.148 249.473V249.701C349.148 251.553 348.79 253.217 348.075 254.693C347.372 256.158 346.359 257.301 345.034 258.121C343.722 258.941 342.21 259.352 340.499 259.352C337.921 259.352 335.829 258.455 334.224 256.662C332.63 254.869 331.833 252.496 331.833 249.543V249.314ZM335.103 249.701C335.103 251.811 335.589 253.504 336.562 254.781C337.546 256.059 338.859 256.697 340.499 256.697C342.152 256.697 343.464 256.053 344.437 254.764C345.409 253.463 345.896 251.646 345.896 249.314C345.896 247.229 345.398 245.541 344.402 244.252C343.417 242.951 342.105 242.301 340.464 242.301C338.859 242.301 337.564 242.939 336.579 244.217C335.595 245.494 335.103 247.322 335.103 249.701Z"
                        fill="white" />
                    <path
                        d="M367.355 259V242.494H364.349V239.98H367.355V238.029C367.355 235.99 367.9 234.414 368.99 233.301C370.08 232.188 371.621 231.631 373.613 231.631C374.363 231.631 375.107 231.73 375.845 231.93L375.67 234.566C375.119 234.461 374.533 234.408 373.912 234.408C372.857 234.408 372.043 234.719 371.468 235.34C370.894 235.949 370.607 236.828 370.607 237.977V239.98H374.668V242.494H370.607V259H367.355Z"
                        fill="white" />
                    <path
                        d="M391.813 257.119C390.548 258.607 388.69 259.352 386.241 259.352C384.214 259.352 382.667 258.766 381.6 257.594C380.546 256.41 380.013 254.664 380.001 252.355V239.98H383.253V252.268C383.253 255.15 384.425 256.592 386.768 256.592C389.253 256.592 390.905 255.666 391.725 253.814V239.98H394.977V259H391.884L391.813 257.119Z"
                        fill="white" />
                    <path
                        d="M409.627 259.352C407.049 259.352 404.951 258.508 403.334 256.82C401.717 255.121 400.908 252.854 400.908 250.018V249.42C400.908 247.533 401.266 245.852 401.98 244.375C402.707 242.887 403.715 241.727 405.004 240.895C406.305 240.051 407.711 239.629 409.223 239.629C411.695 239.629 413.617 240.443 414.988 242.072C416.359 243.701 417.045 246.033 417.045 249.068V250.422H404.16C404.207 252.297 404.752 253.814 405.795 254.975C406.85 256.123 408.186 256.697 409.803 256.697C410.951 256.697 411.924 256.463 412.721 255.994C413.518 255.525 414.215 254.904 414.812 254.131L416.799 255.678C415.205 258.127 412.814 259.352 409.627 259.352ZM409.223 242.301C407.91 242.301 406.809 242.781 405.918 243.742C405.027 244.691 404.477 246.027 404.266 247.75H413.793V247.504C413.699 245.852 413.254 244.574 412.457 243.672C411.66 242.758 410.582 242.301 409.223 242.301Z"
                        fill="white" />
                </g>
                <g id="H se&#195;&#177;al&#195;&#179; que es el sospechoso A">
                    <path
                        d="M56.6406 359H53.248V347.17H40.3457V359H36.9707V333.406H40.3457V344.41H53.248V333.406H56.6406V359Z"
                        fill="white" />
                    <path
                        d="M85.7289 353.955C85.7289 353.076 85.3949 352.396 84.727 351.916C84.0707 351.424 82.9164 351.002 81.2641 350.65C79.6234 350.299 78.3168 349.877 77.3441 349.385C76.3832 348.893 75.6684 348.307 75.1996 347.627C74.7426 346.947 74.5141 346.139 74.5141 345.201C74.5141 343.643 75.1703 342.324 76.4828 341.246C77.807 340.168 79.4945 339.629 81.5453 339.629C83.7016 339.629 85.4477 340.186 86.7836 341.299C88.1312 342.412 88.8051 343.836 88.8051 345.57H85.5355C85.5355 344.68 85.1547 343.912 84.393 343.268C83.643 342.623 82.6937 342.301 81.5453 342.301C80.3617 342.301 79.4359 342.559 78.768 343.074C78.1 343.59 77.766 344.264 77.766 345.096C77.766 345.881 78.0766 346.473 78.6977 346.871C79.3187 347.27 80.4379 347.65 82.0551 348.014C83.684 348.377 85.0023 348.811 86.0102 349.314C87.018 349.818 87.7621 350.428 88.2426 351.143C88.7348 351.846 88.9809 352.707 88.9809 353.727C88.9809 355.426 88.3012 356.791 86.9418 357.822C85.5824 358.842 83.8187 359.352 81.6508 359.352C80.1273 359.352 78.7797 359.082 77.6078 358.543C76.4359 358.004 75.516 357.254 74.848 356.293C74.1918 355.32 73.8637 354.271 73.8637 353.146H77.1156C77.1742 354.236 77.6078 355.104 78.4164 355.748C79.2367 356.381 80.3148 356.697 81.6508 356.697C82.8812 356.697 83.8656 356.451 84.6039 355.959C85.3539 355.455 85.7289 354.787 85.7289 353.955Z"
                        fill="white" />
                    <path
                        d="M102.91 359.352C100.332 359.352 98.234 358.508 96.6168 356.82C94.9996 355.121 94.191 352.854 94.191 350.018V349.42C94.191 347.533 94.5484 345.852 95.2633 344.375C95.9898 342.887 96.9977 341.727 98.2867 340.895C99.5875 340.051 100.994 339.629 102.505 339.629C104.978 339.629 106.9 340.443 108.271 342.072C109.642 343.701 110.328 346.033 110.328 349.068V350.422H97.443C97.4898 352.297 98.0348 353.814 99.0777 354.975C100.132 356.123 101.468 356.697 103.086 356.697C104.234 356.697 105.207 356.463 106.004 355.994C106.8 355.525 107.498 354.904 108.095 354.131L110.082 355.678C108.488 358.127 106.097 359.352 102.91 359.352ZM102.505 342.301C101.193 342.301 100.091 342.781 99.2008 343.742C98.3102 344.691 97.7594 346.027 97.5484 347.75H107.076V347.504C106.982 345.852 106.537 344.574 105.74 343.672C104.943 342.758 103.865 342.301 102.505 342.301Z"
                        fill="white" />
                    <path
                        d="M118.983 339.98L119.089 342.371C120.542 340.543 122.44 339.629 124.784 339.629C128.804 339.629 130.831 341.896 130.866 346.432V359H127.614V346.414C127.602 345.043 127.286 344.029 126.665 343.373C126.055 342.717 125.1 342.389 123.8 342.389C122.745 342.389 121.819 342.67 121.022 343.232C120.225 343.795 119.604 344.533 119.159 345.447V359H115.907V339.98H118.983ZM129.741 332.562C129.741 333.828 129.378 334.854 128.651 335.639C127.936 336.424 127.04 336.816 125.962 336.816C125.481 336.816 125.065 336.758 124.714 336.641C124.362 336.523 123.899 336.283 123.325 335.92C122.762 335.557 122.352 335.34 122.095 335.27C121.848 335.188 121.561 335.146 121.233 335.146C120.753 335.146 120.343 335.334 120.003 335.709C119.663 336.072 119.493 336.541 119.493 337.115L117.313 336.992C117.313 335.738 117.665 334.701 118.368 333.881C119.083 333.061 119.985 332.65 121.075 332.65C121.485 332.65 121.854 332.709 122.182 332.826C122.511 332.943 122.956 333.172 123.518 333.512C124.081 333.852 124.509 334.074 124.802 334.18C125.106 334.285 125.44 334.338 125.804 334.338C126.307 334.338 126.723 334.139 127.052 333.74C127.391 333.342 127.561 332.879 127.561 332.352L129.741 332.562Z"
                        fill="white" />
                    <path
                        d="M149.312 359C149.125 358.625 148.973 357.957 148.855 356.996C147.344 358.566 145.539 359.352 143.441 359.352C141.566 359.352 140.025 358.824 138.818 357.77C137.623 356.703 137.025 355.355 137.025 353.727C137.025 351.746 137.775 350.211 139.275 349.121C140.787 348.02 142.908 347.469 145.639 347.469H148.803V345.975C148.803 344.838 148.463 343.936 147.783 343.268C147.104 342.588 146.102 342.248 144.777 342.248C143.617 342.248 142.645 342.541 141.859 343.127C141.074 343.713 140.682 344.422 140.682 345.254H137.412C137.412 344.305 137.746 343.391 138.414 342.512C139.094 341.621 140.008 340.918 141.156 340.402C142.316 339.887 143.588 339.629 144.971 339.629C147.162 339.629 148.879 340.18 150.121 341.281C151.363 342.371 152.008 343.877 152.055 345.799V354.553C152.055 356.299 152.277 357.688 152.723 358.719V359H149.312ZM143.916 356.521C144.936 356.521 145.902 356.258 146.816 355.73C147.73 355.203 148.393 354.518 148.803 353.674V349.771H146.254C142.27 349.771 140.277 350.938 140.277 353.27C140.277 354.289 140.617 355.086 141.297 355.66C141.977 356.234 142.85 356.521 143.916 356.521Z"
                        fill="white" />
                    <path d="M162.486 359H159.234V332H162.486V359Z" fill="white" />
                    <path
                        d="M168.645 349.314C168.645 347.451 169.008 345.775 169.735 344.287C170.473 342.799 171.493 341.65 172.793 340.842C174.106 340.033 175.6 339.629 177.276 339.629C179.866 339.629 181.957 340.525 183.551 342.318C185.157 344.111 185.959 346.496 185.959 349.473V349.701C185.959 351.553 185.602 353.217 184.887 354.693C184.184 356.158 183.17 357.301 181.846 358.121C180.534 358.941 179.022 359.352 177.311 359.352C174.733 359.352 172.641 358.455 171.036 356.662C169.442 354.869 168.645 352.496 168.645 349.543V349.314ZM171.914 349.701C171.914 351.811 172.401 353.504 173.373 354.781C174.358 356.059 175.67 356.697 177.311 356.697C178.963 356.697 180.276 356.053 181.248 354.764C182.221 353.463 182.707 351.646 182.707 349.314C182.707 347.229 182.209 345.541 181.213 344.252C180.229 342.951 178.916 342.301 177.276 342.301C175.67 342.301 174.375 342.939 173.391 344.217C172.407 345.494 171.914 347.322 171.914 349.701ZM178.752 332H182.69L177.979 337.168H175.36L178.752 332Z"
                        fill="white" />
                    <path
                        d="M201.776 349.332C201.776 346.344 202.462 343.982 203.833 342.248C205.204 340.502 207.044 339.629 209.352 339.629C211.602 339.629 213.378 340.385 214.679 341.896L214.819 339.98H217.807V366.312H214.555V357.242C213.243 358.648 211.497 359.352 209.317 359.352C207.02 359.352 205.186 358.461 203.815 356.68C202.456 354.887 201.776 352.514 201.776 349.561V349.332ZM205.028 349.701C205.028 351.881 205.485 353.592 206.399 354.834C207.325 356.076 208.567 356.697 210.126 356.697C212.059 356.697 213.536 355.842 214.555 354.131V344.814C213.524 343.139 212.059 342.301 210.161 342.301C208.591 342.301 207.343 342.928 206.417 344.182C205.491 345.424 205.028 347.264 205.028 349.701Z"
                        fill="white" />
                    <path
                        d="M236.57 357.119C235.305 358.607 233.447 359.352 230.998 359.352C228.971 359.352 227.424 358.766 226.357 357.594C225.303 356.41 224.77 354.664 224.758 352.355V339.98H228.01V352.268C228.01 355.15 229.182 356.592 231.525 356.592C234.01 356.592 235.662 355.666 236.482 353.814V339.98H239.734V359H236.641L236.57 357.119Z"
                        fill="white" />
                    <path
                        d="M254.384 359.352C251.806 359.352 249.708 358.508 248.091 356.82C246.474 355.121 245.665 352.854 245.665 350.018V349.42C245.665 347.533 246.023 345.852 246.738 344.375C247.464 342.887 248.472 341.727 249.761 340.895C251.062 340.051 252.468 339.629 253.98 339.629C256.452 339.629 258.374 340.443 259.745 342.072C261.116 343.701 261.802 346.033 261.802 349.068V350.422H248.917C248.964 352.297 249.509 353.814 250.552 354.975C251.607 356.123 252.943 356.697 254.56 356.697C255.708 356.697 256.681 356.463 257.478 355.994C258.275 355.525 258.972 354.904 259.57 354.131L261.556 355.678C259.962 358.127 257.571 359.352 254.384 359.352ZM253.98 342.301C252.667 342.301 251.566 342.781 250.675 343.742C249.784 344.691 249.234 346.027 249.023 347.75H258.55V347.504C258.456 345.852 258.011 344.574 257.214 343.672C256.417 342.758 255.339 342.301 253.98 342.301Z"
                        fill="white" />
                    <path
                        d="M286.004 359.352C283.425 359.352 281.328 358.508 279.711 356.82C278.093 355.121 277.285 352.854 277.285 350.018V349.42C277.285 347.533 277.642 345.852 278.357 344.375C279.084 342.887 280.091 341.727 281.38 340.895C282.681 340.051 284.087 339.629 285.599 339.629C288.072 339.629 289.994 340.443 291.365 342.072C292.736 343.701 293.421 346.033 293.421 349.068V350.422H280.537C280.584 352.297 281.129 353.814 282.171 354.975C283.226 356.123 284.562 356.697 286.179 356.697C287.328 356.697 288.3 356.463 289.097 355.994C289.894 355.525 290.591 354.904 291.189 354.131L293.175 355.678C291.582 358.127 289.191 359.352 286.004 359.352ZM285.599 342.301C284.287 342.301 283.185 342.781 282.295 343.742C281.404 344.691 280.853 346.027 280.642 347.75H290.17V347.504C290.076 345.852 289.63 344.574 288.834 343.672C288.037 342.758 286.959 342.301 285.599 342.301Z"
                        fill="white" />
                    <path
                        d="M310.075 353.955C310.075 353.076 309.741 352.396 309.073 351.916C308.417 351.424 307.263 351.002 305.61 350.65C303.97 350.299 302.663 349.877 301.69 349.385C300.729 348.893 300.014 348.307 299.546 347.627C299.089 346.947 298.86 346.139 298.86 345.201C298.86 343.643 299.516 342.324 300.829 341.246C302.153 340.168 303.841 339.629 305.891 339.629C308.048 339.629 309.794 340.186 311.13 341.299C312.477 342.412 313.151 343.836 313.151 345.57H309.882C309.882 344.68 309.501 343.912 308.739 343.268C307.989 342.623 307.04 342.301 305.891 342.301C304.708 342.301 303.782 342.559 303.114 343.074C302.446 343.59 302.112 344.264 302.112 345.096C302.112 345.881 302.423 346.473 303.044 346.871C303.665 347.27 304.784 347.65 306.401 348.014C308.03 348.377 309.348 348.811 310.356 349.314C311.364 349.818 312.108 350.428 312.589 351.143C313.081 351.846 313.327 352.707 313.327 353.727C313.327 355.426 312.647 356.791 311.288 357.822C309.929 358.842 308.165 359.352 305.997 359.352C304.473 359.352 303.126 359.082 301.954 358.543C300.782 358.004 299.862 357.254 299.194 356.293C298.538 355.32 298.21 354.271 298.21 353.146H301.462C301.52 354.236 301.954 355.104 302.763 355.748C303.583 356.381 304.661 356.697 305.997 356.697C307.227 356.697 308.212 356.451 308.95 355.959C309.7 355.455 310.075 354.787 310.075 353.955Z"
                        fill="white" />
                    <path
                        d="M337.986 359.352C335.407 359.352 333.31 358.508 331.693 356.82C330.075 355.121 329.267 352.854 329.267 350.018V349.42C329.267 347.533 329.624 345.852 330.339 344.375C331.066 342.887 332.073 341.727 333.362 340.895C334.663 340.051 336.07 339.629 337.581 339.629C340.054 339.629 341.976 340.443 343.347 342.072C344.718 343.701 345.404 346.033 345.404 349.068V350.422H332.519C332.566 352.297 333.111 353.814 334.154 354.975C335.208 356.123 336.544 356.697 338.161 356.697C339.31 356.697 340.282 356.463 341.079 355.994C341.876 355.525 342.573 354.904 343.171 354.131L345.157 355.678C343.564 358.127 341.173 359.352 337.986 359.352ZM337.581 342.301C336.269 342.301 335.167 342.781 334.277 343.742C333.386 344.691 332.835 346.027 332.624 347.75H342.152V347.504C342.058 345.852 341.612 344.574 340.816 343.672C340.019 342.758 338.941 342.301 337.581 342.301Z"
                        fill="white" />
                    <path d="M354.516 359H351.264V332H354.516V359Z" fill="white" />
                    <path
                        d="M383.341 353.955C383.341 353.076 383.007 352.396 382.339 351.916C381.682 351.424 380.528 351.002 378.876 350.65C377.235 350.299 375.929 349.877 374.956 349.385C373.995 348.893 373.28 348.307 372.811 347.627C372.354 346.947 372.126 346.139 372.126 345.201C372.126 343.643 372.782 342.324 374.095 341.246C375.419 340.168 377.106 339.629 379.157 339.629C381.313 339.629 383.059 340.186 384.395 341.299C385.743 342.412 386.417 343.836 386.417 345.57H383.147C383.147 344.68 382.766 343.912 382.005 343.268C381.255 342.623 380.305 342.301 379.157 342.301C377.973 342.301 377.048 342.559 376.38 343.074C375.712 343.59 375.378 344.264 375.378 345.096C375.378 345.881 375.688 346.473 376.309 346.871C376.93 347.27 378.05 347.65 379.667 348.014C381.296 348.377 382.614 348.811 383.622 349.314C384.63 349.818 385.374 350.428 385.854 351.143C386.346 351.846 386.593 352.707 386.593 353.727C386.593 355.426 385.913 356.791 384.554 357.822C383.194 358.842 381.43 359.352 379.263 359.352C377.739 359.352 376.391 359.082 375.22 358.543C374.048 358.004 373.128 357.254 372.46 356.293C371.804 355.32 371.475 354.271 371.475 353.146H374.727C374.786 354.236 375.22 355.104 376.028 355.748C376.848 356.381 377.927 356.697 379.263 356.697C380.493 356.697 381.477 356.451 382.216 355.959C382.966 355.455 383.341 354.787 383.341 353.955Z"
                        fill="white" />
                    <path
                        d="M391.768 349.314C391.768 347.451 392.131 345.775 392.857 344.287C393.596 342.799 394.615 341.65 395.916 340.842C397.229 340.033 398.723 339.629 400.398 339.629C402.988 339.629 405.08 340.525 406.674 342.318C408.279 344.111 409.082 346.496 409.082 349.473V349.701C409.082 351.553 408.725 353.217 408.01 354.693C407.307 356.158 406.293 357.301 404.969 358.121C403.656 358.941 402.145 359.352 400.434 359.352C397.855 359.352 395.764 358.455 394.158 356.662C392.564 354.869 391.768 352.496 391.768 349.543V349.314ZM395.037 349.701C395.037 351.811 395.523 353.504 396.496 354.781C397.48 356.059 398.793 356.697 400.434 356.697C402.086 356.697 403.398 356.053 404.371 354.764C405.344 353.463 405.83 351.646 405.83 349.314C405.83 347.229 405.332 345.541 404.336 344.252C403.352 342.951 402.039 342.301 400.398 342.301C398.793 342.301 397.498 342.939 396.514 344.217C395.529 345.494 395.037 347.322 395.037 349.701Z"
                        fill="white" />
                    <path
                        d="M426.034 353.955C426.034 353.076 425.7 352.396 425.032 351.916C424.376 351.424 423.222 351.002 421.57 350.65C419.929 350.299 418.622 349.877 417.65 349.385C416.689 348.893 415.974 348.307 415.505 347.627C415.048 346.947 414.82 346.139 414.82 345.201C414.82 343.643 415.476 342.324 416.788 341.246C418.112 340.168 419.8 339.629 421.851 339.629C424.007 339.629 425.753 340.186 427.089 341.299C428.437 342.412 429.111 343.836 429.111 345.57H425.841C425.841 344.68 425.46 343.912 424.698 343.268C423.948 342.623 422.999 342.301 421.851 342.301C420.667 342.301 419.741 342.559 419.073 343.074C418.405 343.59 418.071 344.264 418.071 345.096C418.071 345.881 418.382 346.473 419.003 346.871C419.624 347.27 420.743 347.65 422.361 348.014C423.989 348.377 425.308 348.811 426.316 349.314C427.323 349.818 428.068 350.428 428.548 351.143C429.04 351.846 429.286 352.707 429.286 353.727C429.286 355.426 428.607 356.791 427.247 357.822C425.888 358.842 424.124 359.352 421.956 359.352C420.433 359.352 419.085 359.082 417.913 358.543C416.741 358.004 415.821 357.254 415.154 356.293C414.497 355.32 414.169 354.271 414.169 353.146H417.421C417.48 354.236 417.913 355.104 418.722 355.748C419.542 356.381 420.62 356.697 421.956 356.697C423.187 356.697 424.171 356.451 424.909 355.959C425.659 355.455 426.034 354.787 426.034 353.955Z"
                        fill="white" />
                    <path
                        d="M451.389 349.701C451.389 352.596 450.727 354.928 449.403 356.697C448.079 358.467 446.286 359.352 444.024 359.352C441.715 359.352 439.899 358.619 438.575 357.154V366.312H435.323V339.98H438.293L438.452 342.09C439.776 340.449 441.616 339.629 443.971 339.629C446.256 339.629 448.061 340.49 449.385 342.213C450.721 343.936 451.389 346.332 451.389 349.402V349.701ZM448.137 349.332C448.137 347.188 447.68 345.494 446.766 344.252C445.852 343.01 444.598 342.389 443.004 342.389C441.036 342.389 439.559 343.262 438.575 345.008V354.096C439.547 355.83 441.036 356.697 443.039 356.697C444.598 356.697 445.834 356.082 446.748 354.852C447.674 353.609 448.137 351.77 448.137 349.332Z"
                        fill="white" />
                    <path
                        d="M465.23 359.352C462.652 359.352 460.554 358.508 458.937 356.82C457.32 355.121 456.511 352.854 456.511 350.018V349.42C456.511 347.533 456.869 345.852 457.584 344.375C458.31 342.887 459.318 341.727 460.607 340.895C461.908 340.051 463.314 339.629 464.826 339.629C467.298 339.629 469.22 340.443 470.591 342.072C471.962 343.701 472.648 346.033 472.648 349.068V350.422H459.763C459.81 352.297 460.355 353.814 461.398 354.975C462.453 356.123 463.789 356.697 465.406 356.697C466.554 356.697 467.527 356.463 468.324 355.994C469.121 355.525 469.818 354.904 470.416 354.131L472.402 355.678C470.808 358.127 468.418 359.352 465.23 359.352ZM464.826 342.301C463.513 342.301 462.412 342.781 461.521 343.742C460.63 344.691 460.08 346.027 459.869 347.75H469.396V347.504C469.302 345.852 468.857 344.574 468.06 343.672C467.263 342.758 466.185 342.301 464.826 342.301Z"
                        fill="white" />
                    <path
                        d="M485.856 356.697C487.016 356.697 488.03 356.346 488.897 355.643C489.764 354.939 490.245 354.061 490.339 353.006H493.415C493.356 354.096 492.981 355.133 492.29 356.117C491.598 357.102 490.673 357.887 489.513 358.473C488.364 359.059 487.145 359.352 485.856 359.352C483.266 359.352 481.204 358.49 479.669 356.768C478.145 355.033 477.384 352.666 477.384 349.666V349.121C477.384 347.27 477.723 345.623 478.403 344.182C479.083 342.74 480.055 341.621 481.321 340.824C482.598 340.027 484.104 339.629 485.839 339.629C487.971 339.629 489.741 340.268 491.147 341.545C492.565 342.822 493.321 344.48 493.415 346.52H490.339C490.245 345.289 489.776 344.281 488.932 343.496C488.1 342.699 487.069 342.301 485.839 342.301C484.186 342.301 482.903 342.898 481.989 344.094C481.087 345.277 480.636 346.994 480.636 349.244V349.859C480.636 352.051 481.087 353.738 481.989 354.922C482.891 356.105 484.18 356.697 485.856 356.697Z"
                        fill="white" />
                    <path
                        d="M502.123 342.283C503.564 340.514 505.439 339.629 507.748 339.629C511.768 339.629 513.795 341.896 513.83 346.432V359H510.578V346.414C510.566 345.043 510.25 344.029 509.629 343.373C509.02 342.717 508.064 342.389 506.764 342.389C505.709 342.389 504.783 342.67 503.986 343.232C503.189 343.795 502.568 344.533 502.123 345.447V359H498.871V332H502.123V342.283Z"
                        fill="white" />
                    <path
                        d="M519.638 349.314C519.638 347.451 520.001 345.775 520.728 344.287C521.466 342.799 522.486 341.65 523.786 340.842C525.099 340.033 526.593 339.629 528.269 339.629C530.859 339.629 532.95 340.525 534.544 342.318C536.15 344.111 536.952 346.496 536.952 349.473V349.701C536.952 351.553 536.595 353.217 535.88 354.693C535.177 356.158 534.163 357.301 532.839 358.121C531.527 358.941 530.015 359.352 528.304 359.352C525.726 359.352 523.634 358.455 522.029 356.662C520.435 354.869 519.638 352.496 519.638 349.543V349.314ZM522.907 349.701C522.907 351.811 523.394 353.504 524.366 354.781C525.351 356.059 526.663 356.697 528.304 356.697C529.956 356.697 531.269 356.053 532.241 354.764C533.214 353.463 533.7 351.646 533.7 349.314C533.7 347.229 533.202 345.541 532.206 344.252C531.222 342.951 529.909 342.301 528.269 342.301C526.663 342.301 525.368 342.939 524.384 344.217C523.4 345.494 522.907 347.322 522.907 349.701Z"
                        fill="white" />
                    <path
                        d="M553.905 353.955C553.905 353.076 553.571 352.396 552.903 351.916C552.246 351.424 551.092 351.002 549.44 350.65C547.799 350.299 546.493 349.877 545.52 349.385C544.559 348.893 543.844 348.307 543.375 347.627C542.918 346.947 542.69 346.139 542.69 345.201C542.69 343.643 543.346 342.324 544.659 341.246C545.983 340.168 547.67 339.629 549.721 339.629C551.877 339.629 553.623 340.186 554.959 341.299C556.307 342.412 556.981 343.836 556.981 345.57H553.711C553.711 344.68 553.33 343.912 552.569 343.268C551.819 342.623 550.87 342.301 549.721 342.301C548.537 342.301 547.612 342.559 546.944 343.074C546.276 343.59 545.942 344.264 545.942 345.096C545.942 345.881 546.252 346.473 546.873 346.871C547.495 347.27 548.614 347.65 550.231 348.014C551.86 348.377 553.178 348.811 554.186 349.314C555.194 349.818 555.938 350.428 556.418 351.143C556.911 351.846 557.157 352.707 557.157 353.727C557.157 355.426 556.477 356.791 555.118 357.822C553.758 358.842 551.995 359.352 549.827 359.352C548.303 359.352 546.955 359.082 545.784 358.543C544.612 358.004 543.692 357.254 543.024 356.293C542.368 355.32 542.039 354.271 542.039 353.146H545.291C545.35 354.236 545.784 355.104 546.592 355.748C547.412 356.381 548.491 356.697 549.827 356.697C551.057 356.697 552.041 356.451 552.78 355.959C553.53 355.455 553.905 354.787 553.905 353.955Z"
                        fill="white" />
                    <path
                        d="M562.332 349.314C562.332 347.451 562.695 345.775 563.422 344.287C564.16 342.799 565.179 341.65 566.48 340.842C567.793 340.033 569.287 339.629 570.963 339.629C573.552 339.629 575.644 340.525 577.238 342.318C578.843 344.111 579.646 346.496 579.646 349.473V349.701C579.646 351.553 579.289 353.217 578.574 354.693C577.871 356.158 576.857 357.301 575.533 358.121C574.22 358.941 572.709 359.352 570.998 359.352C568.42 359.352 566.328 358.455 564.722 356.662C563.129 354.869 562.332 352.496 562.332 349.543V349.314ZM565.601 349.701C565.601 351.811 566.088 353.504 567.06 354.781C568.045 356.059 569.357 356.697 570.998 356.697C572.65 356.697 573.963 356.053 574.935 354.764C575.908 353.463 576.394 351.646 576.394 349.314C576.394 347.229 575.896 345.541 574.9 344.252C573.916 342.951 572.603 342.301 570.963 342.301C569.357 342.301 568.062 342.939 567.078 344.217C566.093 345.494 565.601 347.322 565.601 349.701Z"
                        fill="white" />
                    <path
                        d="M610.896 352.32H600.174L597.766 359H594.285L604.059 333.406H607.012L616.803 359H613.34L610.896 352.32ZM601.193 349.543H609.895L605.535 337.572L601.193 349.543Z"
                        fill="white" />
                </g>
            </g>
        </g>
        <g id="segundo">
            <g id="Group 109">
                <path id="V"
                    d="M706.443 158.518L713.756 137.406H717.447L707.955 163H704.967L695.492 137.406H699.166L706.443 158.518Z"
                    fill="white" />
                <path id="V_2"
                    d="M711.443 363.518L718.756 342.406H722.447L712.955 368H709.967L700.492 342.406H704.166L711.443 363.518Z"
                    fill="white" />
                <path id="M"
                    d="M707.33 242.406L715.697 263.289L724.064 242.406H728.441V268H725.066V258.033L725.383 247.275L716.98 268H714.396L706.012 247.328L706.346 258.033V268H702.971V242.406H707.33Z"
                    fill="white" />
            </g>
            <path id="buena" fill-rule="evenodd" clip-rule="evenodd"
                d="M705.244 474.856C704.966 474.99 704.658 475.074 704.331 475.096C702.953 475.19 701.76 474.149 701.667 472.771L700.006 448.333C699.912 446.956 700.953 445.763 702.331 445.67C703.708 445.576 704.901 446.617 704.994 447.994L706.311 467.369L741.948 431.732C742.924 430.756 744.507 430.756 745.483 431.732C746.46 432.709 746.46 434.291 745.483 435.268L706.593 474.159C706.211 474.54 705.738 474.772 705.244 474.856Z"
                fill="#2CF30B" />
            <g id="Group 110">
                <path id="M_2"
                    d="M827.33 137.406L835.697 158.289L844.064 137.406H848.441V163H845.066V153.033L845.383 142.275L836.98 163H834.396L826.012 142.328L826.346 153.033V163H822.971V137.406H827.33Z"
                    fill="white" />
                <path id="M_3"
                    d="M828.33 342.406L836.697 363.289L845.064 342.406H849.441V368H846.066V358.033L846.383 347.275L837.98 368H835.396L827.012 347.328L827.346 358.033V368H823.971V342.406H828.33Z"
                    fill="white" />
            </g>
            <path id="mala" fill-rule="evenodd" clip-rule="evenodd"
                d="M818.021 471.123C817.045 472.099 817.045 473.682 818.021 474.659C818.998 475.635 820.581 475.635 821.557 474.659L838.002 458.213L854.448 474.659C855.424 475.635 857.007 475.635 857.983 474.659C858.96 473.682 858.96 472.099 857.983 471.123L841.538 454.678L860.448 435.768C861.424 434.791 861.424 433.209 860.448 432.232C859.472 431.256 857.889 431.256 856.912 432.232L838.002 451.142L819.092 432.232C818.116 431.256 816.533 431.256 815.557 432.232C814.581 433.209 814.581 434.791 815.557 435.768L834.467 454.678L818.021 471.123Z"
                fill="#FD0C0C" />

        </g>
        <g id="respuesta">
            <path d="M226.654 443.184H218.428V466H215.07V443.184H206.861V440.406H226.654V443.184Z" fill="white" />
            <path
                d="M247.361 449.898C246.869 449.816 246.336 449.775 245.762 449.775C243.629 449.775 242.182 450.684 241.42 452.5V466H238.168V446.98H241.332L241.385 449.178C242.451 447.479 243.963 446.629 245.92 446.629C246.553 446.629 247.033 446.711 247.361 446.875V449.898Z"
                fill="white" />
            <path
                d="M257.908 466.352C255.33 466.352 253.232 465.508 251.615 463.82C249.998 462.121 249.189 459.854 249.189 457.018V456.42C249.189 454.533 249.547 452.852 250.262 451.375C250.988 449.887 251.996 448.727 253.285 447.895C254.586 447.051 255.992 446.629 257.504 446.629C259.977 446.629 261.898 447.443 263.27 449.072C264.641 450.701 265.326 453.033 265.326 456.068V457.422H252.441C252.488 459.297 253.033 460.814 254.076 461.975C255.131 463.123 256.467 463.697 258.084 463.697C259.232 463.697 260.205 463.463 261.002 462.994C261.799 462.525 262.496 461.904 263.094 461.131L265.08 462.678C263.486 465.127 261.096 466.352 257.908 466.352ZM257.504 449.301C256.191 449.301 255.09 449.781 254.199 450.742C253.309 451.691 252.758 453.027 252.547 454.75H262.074V454.504C261.98 452.852 261.535 451.574 260.738 450.672C259.941 449.758 258.863 449.301 257.504 449.301Z"
                fill="white" />
            <path
                d="M276.734 463.697C277.895 463.697 278.908 463.346 279.775 462.643C280.643 461.939 281.123 461.061 281.217 460.006H284.293C284.234 461.096 283.859 462.133 283.168 463.117C282.477 464.102 281.551 464.887 280.391 465.473C279.242 466.059 278.023 466.352 276.734 466.352C274.145 466.352 272.082 465.49 270.547 463.768C269.023 462.033 268.262 459.666 268.262 456.666V456.121C268.262 454.27 268.602 452.623 269.281 451.182C269.961 449.74 270.934 448.621 272.199 447.824C273.477 447.027 274.982 446.629 276.717 446.629C278.85 446.629 280.619 447.268 282.025 448.545C283.443 449.822 284.199 451.48 284.293 453.52H281.217C281.123 452.289 280.654 451.281 279.811 450.496C278.979 449.699 277.947 449.301 276.717 449.301C275.064 449.301 273.781 449.898 272.867 451.094C271.965 452.277 271.514 453.994 271.514 456.244V456.859C271.514 459.051 271.965 460.738 272.867 461.922C273.77 463.105 275.059 463.697 276.734 463.697Z"
                fill="white" />
            <path
                d="M291.482 466H288.23V446.98H291.482V466ZM287.967 441.936C287.967 441.408 288.125 440.963 288.441 440.6C288.77 440.236 289.25 440.055 289.883 440.055C290.516 440.055 290.996 440.236 291.324 440.6C291.652 440.963 291.816 441.408 291.816 441.936C291.816 442.463 291.652 442.902 291.324 443.254C290.996 443.605 290.516 443.781 289.883 443.781C289.25 443.781 288.77 443.605 288.441 443.254C288.125 442.902 287.967 442.463 287.967 441.936Z"
                fill="white" />
            <path
                d="M312.805 456.701C312.805 459.607 312.137 461.945 310.801 463.715C309.465 465.473 307.672 466.352 305.422 466.352C303.02 466.352 301.162 465.502 299.85 463.803L299.691 466H296.703V439H299.955V449.072C301.268 447.443 303.078 446.629 305.387 446.629C307.695 446.629 309.506 447.502 310.818 449.248C312.143 450.994 312.805 453.385 312.805 456.42V456.701ZM309.553 456.332C309.553 454.117 309.125 452.406 308.27 451.199C307.414 449.992 306.184 449.389 304.578 449.389C302.434 449.389 300.893 450.385 299.955 452.377V460.604C300.951 462.596 302.504 463.592 304.613 463.592C306.172 463.592 307.385 462.988 308.252 461.781C309.119 460.574 309.553 458.758 309.553 456.332Z"
                fill="white" />
            <path
                d="M320.451 466H317.199V446.98H320.451V466ZM316.936 441.936C316.936 441.408 317.094 440.963 317.41 440.6C317.738 440.236 318.219 440.055 318.852 440.055C319.484 440.055 319.965 440.236 320.293 440.6C320.621 440.963 320.785 441.408 320.785 441.936C320.785 442.463 320.621 442.902 320.293 443.254C319.965 443.605 319.484 443.781 318.852 443.781C318.219 443.781 317.738 443.605 317.41 443.254C317.094 442.902 316.936 442.463 316.936 441.936Z"
                fill="white" />
            <path
                d="M324.811 456.314C324.811 454.451 325.174 452.775 325.9 451.287C326.639 449.799 327.658 448.65 328.959 447.842C330.271 447.033 331.766 446.629 333.441 446.629C336.031 446.629 338.123 447.525 339.717 449.318C341.322 451.111 342.125 453.496 342.125 456.473V456.701C342.125 458.553 341.768 460.217 341.053 461.693C340.35 463.158 339.336 464.301 338.012 465.121C336.699 465.941 335.188 466.352 333.477 466.352C330.898 466.352 328.807 465.455 327.201 463.662C325.607 461.869 324.811 459.496 324.811 456.543V456.314ZM328.08 456.701C328.08 458.811 328.566 460.504 329.539 461.781C330.523 463.059 331.836 463.697 333.477 463.697C335.129 463.697 336.441 463.053 337.414 461.764C338.387 460.463 338.873 458.646 338.873 456.314C338.873 454.229 338.375 452.541 337.379 451.252C336.395 449.951 335.082 449.301 333.441 449.301C331.836 449.301 330.541 449.939 329.557 451.217C328.572 452.494 328.08 454.322 328.08 456.701Z"
                fill="white" />
            <path d="M358.666 466H355.414V439H358.666V466Z" fill="white" />
            <path
                d="M375.629 466C375.441 465.625 375.289 464.957 375.172 463.996C373.66 465.566 371.855 466.352 369.758 466.352C367.883 466.352 366.342 465.824 365.135 464.77C363.939 463.703 363.342 462.355 363.342 460.727C363.342 458.746 364.092 457.211 365.592 456.121C367.104 455.02 369.225 454.469 371.955 454.469H375.119V452.975C375.119 451.838 374.779 450.936 374.1 450.268C373.42 449.588 372.418 449.248 371.094 449.248C369.934 449.248 368.961 449.541 368.176 450.127C367.391 450.713 366.998 451.422 366.998 452.254H363.729C363.729 451.305 364.062 450.391 364.73 449.512C365.41 448.621 366.324 447.918 367.473 447.402C368.633 446.887 369.904 446.629 371.287 446.629C373.479 446.629 375.195 447.18 376.438 448.281C377.68 449.371 378.324 450.877 378.371 452.799V461.553C378.371 463.299 378.594 464.688 379.039 465.719V466H375.629ZM370.232 463.521C371.252 463.521 372.219 463.258 373.133 462.73C374.047 462.203 374.709 461.518 375.119 460.674V456.771H372.57C368.586 456.771 366.594 457.938 366.594 460.27C366.594 461.289 366.934 462.086 367.613 462.66C368.293 463.234 369.166 463.521 370.232 463.521Z"
                fill="white" />
            <path
                d="M400.027 463.697C401.188 463.697 402.201 463.346 403.068 462.643C403.936 461.939 404.416 461.061 404.51 460.006H407.586C407.527 461.096 407.152 462.133 406.461 463.117C405.77 464.102 404.844 464.887 403.684 465.473C402.535 466.059 401.316 466.352 400.027 466.352C397.438 466.352 395.375 465.49 393.84 463.768C392.316 462.033 391.555 459.666 391.555 456.666V456.121C391.555 454.27 391.895 452.623 392.574 451.182C393.254 449.74 394.227 448.621 395.492 447.824C396.77 447.027 398.275 446.629 400.01 446.629C402.143 446.629 403.912 447.268 405.318 448.545C406.736 449.822 407.492 451.48 407.586 453.52H404.51C404.416 452.289 403.947 451.281 403.104 450.496C402.271 449.699 401.24 449.301 400.01 449.301C398.357 449.301 397.074 449.898 396.16 451.094C395.258 452.277 394.807 453.994 394.807 456.244V456.859C394.807 459.051 395.258 460.738 396.16 461.922C397.062 463.105 398.352 463.697 400.027 463.697Z"
                fill="white" />
            <path
                d="M410.381 456.314C410.381 454.451 410.744 452.775 411.471 451.287C412.209 449.799 413.229 448.65 414.529 447.842C415.842 447.033 417.336 446.629 419.012 446.629C421.602 446.629 423.693 447.525 425.287 449.318C426.893 451.111 427.695 453.496 427.695 456.473V456.701C427.695 458.553 427.338 460.217 426.623 461.693C425.92 463.158 424.906 464.301 423.582 465.121C422.27 465.941 420.758 466.352 419.047 466.352C416.469 466.352 414.377 465.455 412.771 463.662C411.178 461.869 410.381 459.496 410.381 456.543V456.314ZM413.65 456.701C413.65 458.811 414.137 460.504 415.109 461.781C416.094 463.059 417.406 463.697 419.047 463.697C420.699 463.697 422.012 463.053 422.984 461.764C423.957 460.463 424.443 458.646 424.443 456.314C424.443 454.229 423.945 452.541 422.949 451.252C421.965 449.951 420.652 449.301 419.012 449.301C417.406 449.301 416.111 449.939 415.127 451.217C414.143 452.494 413.65 454.322 413.65 456.701Z"
                fill="white" />
            <path
                d="M435.307 466H432.055V446.98H435.307V466ZM431.791 441.936C431.791 441.408 431.949 440.963 432.266 440.6C432.594 440.236 433.074 440.055 433.707 440.055C434.34 440.055 434.82 440.236 435.148 440.6C435.477 440.963 435.641 441.408 435.641 441.936C435.641 442.463 435.477 442.902 435.148 443.254C434.82 443.605 434.34 443.781 433.707 443.781C433.074 443.781 432.594 443.605 432.266 443.254C431.949 442.902 431.791 442.463 431.791 441.936Z"
                fill="white" />
            <path
                d="M443.586 446.98L443.674 449.09C445.068 447.449 446.949 446.629 449.316 446.629C451.977 446.629 453.787 447.648 454.748 449.688C455.381 448.773 456.201 448.035 457.209 447.473C458.229 446.91 459.43 446.629 460.812 446.629C464.984 446.629 467.105 448.838 467.176 453.256V466H463.924V453.449C463.924 452.09 463.613 451.076 462.992 450.408C462.371 449.729 461.328 449.389 459.863 449.389C458.656 449.389 457.654 449.752 456.857 450.479C456.061 451.193 455.598 452.16 455.469 453.379V466H452.199V453.537C452.199 450.771 450.846 449.389 448.139 449.389C446.006 449.389 444.547 450.297 443.762 452.113V466H440.51V446.98H443.586Z"
                fill="white" />
            <path
                d="M483.84 466C483.652 465.625 483.5 464.957 483.383 463.996C481.871 465.566 480.066 466.352 477.969 466.352C476.094 466.352 474.553 465.824 473.346 464.77C472.15 463.703 471.553 462.355 471.553 460.727C471.553 458.746 472.303 457.211 473.803 456.121C475.314 455.02 477.436 454.469 480.166 454.469H483.33V452.975C483.33 451.838 482.99 450.936 482.311 450.268C481.631 449.588 480.629 449.248 479.305 449.248C478.145 449.248 477.172 449.541 476.387 450.127C475.602 450.713 475.209 451.422 475.209 452.254H471.939C471.939 451.305 472.273 450.391 472.941 449.512C473.621 448.621 474.535 447.918 475.684 447.402C476.844 446.887 478.115 446.629 479.498 446.629C481.689 446.629 483.406 447.18 484.648 448.281C485.891 449.371 486.535 450.877 486.582 452.799V461.553C486.582 463.299 486.805 464.688 487.25 465.719V466H483.84ZM478.443 463.521C479.463 463.521 480.43 463.258 481.344 462.73C482.258 462.203 482.92 461.518 483.33 460.674V456.771H480.781C476.797 456.771 474.805 457.938 474.805 460.27C474.805 461.289 475.145 462.086 475.824 462.66C476.504 463.234 477.377 463.521 478.443 463.521Z"
                fill="white" />
        </g>
    </g>
</svg>