<svg  viewBox="0 0 900 464" fill="none" xmlns="http://www.w3.org/2000/svg">
<g id="0131201">
<g id="primero">
<g id="Group 105">
<path id="Rectangle 16 (Stroke)" fill-rule="evenodd" clip-rule="evenodd" d="M656 100H7V197.5H656V100ZM656 93H7V7H656V93ZM663 100V197.5H776V100H663ZM776 93H663V7H776V93ZM783 100V197.5H893V100H783ZM893 93H783V7H893V93ZM900 400H0V0H900V400ZM7 204.5V297H656V204.5H7ZM663 204.5V297H776V204.5H663ZM783 204.5V297H893V204.5H783ZM893 304H783V393H893V304ZM776 393V304H663V393H776ZM656 393V304H7V393H656Z" fill="#2CF30B"/>
<g id="Enunciado 1&#194;&#176; 2&#194;&#176;">
<path d="M197.167 48.1699H186.075V57.2402H198.96V60H182.7V34.4062H198.784V37.1836H186.075V45.4102H197.167V48.1699Z" fill="#2CF30B"/>
<path d="M207.528 40.9805L207.633 43.3711C209.086 41.543 210.985 40.6289 213.329 40.6289C217.348 40.6289 219.375 42.8965 219.411 47.4316V60H216.159V47.4141C216.147 46.043 215.83 45.0293 215.209 44.373C214.6 43.7168 213.645 43.3887 212.344 43.3887C211.289 43.3887 210.364 43.6699 209.567 44.2324C208.77 44.7949 208.149 45.5332 207.704 46.4473V60H204.452V40.9805H207.528Z" fill="#2CF30B"/>
<path d="M237.857 58.1191C236.591 59.6074 234.734 60.3516 232.285 60.3516C230.257 60.3516 228.711 59.7656 227.644 58.5938C226.589 57.4102 226.056 55.6641 226.045 53.3555V40.9805H229.296V53.2676C229.296 56.1504 230.468 57.5918 232.812 57.5918C235.296 57.5918 236.949 56.666 237.769 54.8145V40.9805H241.021V60H237.927L237.857 58.1191Z" fill="#2CF30B"/>
<path d="M250.854 40.9805L250.96 43.3711C252.413 41.543 254.311 40.6289 256.655 40.6289C260.675 40.6289 262.702 42.8965 262.737 47.4316V60H259.485V47.4141C259.473 46.043 259.157 45.0293 258.536 44.373C257.927 43.7168 256.971 43.3887 255.671 43.3887C254.616 43.3887 253.69 43.6699 252.893 44.2324C252.096 44.7949 251.475 45.5332 251.03 46.4473V60H247.778V40.9805H250.854Z" fill="#2CF30B"/>
<path d="M277.07 57.6973C278.23 57.6973 279.244 57.3457 280.111 56.6426C280.979 55.9395 281.459 55.0605 281.553 54.0059H284.629C284.57 55.0957 284.195 56.1328 283.504 57.1172C282.812 58.1016 281.887 58.8867 280.727 59.4727C279.578 60.0586 278.359 60.3516 277.07 60.3516C274.48 60.3516 272.418 59.4902 270.883 57.7676C269.359 56.0332 268.598 53.666 268.598 50.666V50.1211C268.598 48.2695 268.937 46.623 269.617 45.1816C270.297 43.7402 271.27 42.6211 272.535 41.8242C273.812 41.0273 275.318 40.6289 277.053 40.6289C279.186 40.6289 280.955 41.2676 282.361 42.5449C283.779 43.8223 284.535 45.4805 284.629 47.5195H281.553C281.459 46.2891 280.99 45.2812 280.146 44.4961C279.314 43.6992 278.283 43.3008 277.053 43.3008C275.4 43.3008 274.117 43.8984 273.203 45.0938C272.301 46.2773 271.85 47.9941 271.85 50.2441V50.8594C271.85 53.0508 272.301 54.7383 273.203 55.9219C274.105 57.1055 275.395 57.6973 277.07 57.6973Z" fill="#2CF30B"/>
<path d="M293.618 60H290.366V40.9805H293.618V60ZM290.103 35.9355C290.103 35.4082 290.261 34.9629 290.577 34.5996C290.905 34.2363 291.386 34.0547 292.019 34.0547C292.652 34.0547 293.132 34.2363 293.46 34.5996C293.788 34.9629 293.952 35.4082 293.952 35.9355C293.952 36.4629 293.788 36.9023 293.46 37.2539C293.132 37.6055 292.652 37.7812 292.019 37.7812C291.386 37.7812 290.905 37.6055 290.577 37.2539C290.261 36.9023 290.103 36.4629 290.103 35.9355Z" fill="#2CF30B"/>
<path d="M312.381 60C312.194 59.625 312.041 58.957 311.924 57.9961C310.412 59.5664 308.608 60.3516 306.51 60.3516C304.635 60.3516 303.094 59.8242 301.887 58.7695C300.692 57.7031 300.094 56.3555 300.094 54.7266C300.094 52.7461 300.844 51.2109 302.344 50.1211C303.856 49.0195 305.977 48.4688 308.707 48.4688H311.871V46.9746C311.871 45.8379 311.532 44.9355 310.852 44.2676C310.172 43.5879 309.17 43.248 307.846 43.248C306.686 43.248 305.713 43.541 304.928 44.127C304.143 44.7129 303.75 45.4219 303.75 46.2539H300.481C300.481 45.3047 300.815 44.3906 301.483 43.5117C302.162 42.6211 303.077 41.918 304.225 41.4023C305.385 40.8867 306.657 40.6289 308.039 40.6289C310.231 40.6289 311.948 41.1797 313.19 42.2812C314.432 43.3711 315.077 44.877 315.123 46.7988V55.5527C315.123 57.2988 315.346 58.6875 315.791 59.7188V60H312.381ZM306.985 57.5215C308.004 57.5215 308.971 57.2578 309.885 56.7305C310.799 56.2031 311.461 55.5176 311.871 54.6738V50.7715H309.323C305.338 50.7715 303.346 51.9375 303.346 54.2695C303.346 55.2891 303.686 56.0859 304.366 56.6602C305.045 57.2344 305.918 57.5215 306.985 57.5215Z" fill="#2CF30B"/>
<path d="M321.23 50.332C321.23 47.4141 321.921 45.0703 323.304 43.3008C324.687 41.5195 326.498 40.6289 328.736 40.6289C330.962 40.6289 332.726 41.3906 334.027 42.9141V33H337.279V60H334.291L334.132 57.9609C332.832 59.5547 331.021 60.3516 328.701 60.3516C326.498 60.3516 324.699 59.4492 323.304 57.6445C321.921 55.8398 321.23 53.4844 321.23 50.5781V50.332ZM324.482 50.7012C324.482 52.8574 324.927 54.5449 325.818 55.7637C326.709 56.9824 327.939 57.5918 329.509 57.5918C331.572 57.5918 333.078 56.666 334.027 54.8145V46.0781C333.054 44.2852 331.56 43.3887 329.545 43.3887C327.951 43.3887 326.709 44.0039 325.818 45.2344C324.927 46.4648 324.482 48.2871 324.482 50.7012Z" fill="#2CF30B"/>
<path d="M343.28 50.3145C343.28 48.4512 343.643 46.7754 344.37 45.2871C345.108 43.7988 346.128 42.6504 347.428 41.8418C348.741 41.0332 350.235 40.6289 351.911 40.6289C354.501 40.6289 356.593 41.5254 358.186 43.3184C359.792 45.1113 360.595 47.4961 360.595 50.4727V50.7012C360.595 52.5527 360.237 54.2168 359.522 55.6934C358.819 57.1582 357.805 58.3008 356.481 59.1211C355.169 59.9414 353.657 60.3516 351.946 60.3516C349.368 60.3516 347.276 59.4551 345.671 57.6621C344.077 55.8691 343.28 53.4961 343.28 50.543V50.3145ZM346.55 50.7012C346.55 52.8105 347.036 54.5039 348.009 55.7812C348.993 57.0586 350.305 57.6973 351.946 57.6973C353.598 57.6973 354.911 57.0527 355.884 55.7637C356.856 54.4629 357.343 52.6465 357.343 50.3145C357.343 48.2285 356.845 46.541 355.848 45.252C354.864 43.9512 353.552 43.3008 351.911 43.3008C350.305 43.3008 349.011 43.9395 348.026 45.2168C347.042 46.4941 346.55 48.3223 346.55 50.7012Z" fill="#2CF30B"/>
<path d="M720.176 60H716.907V38.3262L710.35 40.7344V37.7812L719.666 34.2832H720.176V60Z" fill="#2CF30B"/>
<path d="M731.662 38.625C731.662 37.4062 732.095 36.3398 732.963 35.4258C733.841 34.5117 734.902 34.0547 736.144 34.0547C737.363 34.0547 738.4 34.5117 739.255 35.4258C740.123 36.3281 740.556 37.3945 740.556 38.625C740.556 39.8672 740.123 40.9277 739.255 41.8066C738.4 42.6855 737.363 43.125 736.144 43.125C734.914 43.125 733.859 42.6855 732.98 41.8066C732.101 40.9277 731.662 39.8672 731.662 38.625ZM736.144 40.875C736.777 40.875 737.31 40.6699 737.744 40.2598C738.177 39.8379 738.394 39.293 738.394 38.625C738.394 37.9453 738.177 37.3887 737.744 36.9551C737.31 36.5098 736.777 36.2871 736.144 36.2871C735.5 36.2871 734.955 36.5215 734.509 36.9902C734.076 37.4473 733.859 37.9922 733.859 38.625C733.859 39.2578 734.076 39.791 734.509 40.2246C734.955 40.6582 735.5 40.875 736.144 40.875Z" fill="#2CF30B"/>
<path d="M849.375 60H832.606V57.6621L841.465 47.8184C842.778 46.3301 843.68 45.123 844.172 44.1973C844.676 43.2598 844.928 42.293 844.928 41.2969C844.928 39.9609 844.524 38.8652 843.715 38.0098C842.907 37.1543 841.828 36.7266 840.481 36.7266C838.864 36.7266 837.604 37.1895 836.702 38.1152C835.811 39.0293 835.366 40.3066 835.366 41.9473H832.114C832.114 39.5918 832.87 37.6875 834.381 36.2344C835.905 34.7812 837.938 34.0547 840.481 34.0547C842.86 34.0547 844.741 34.6816 846.123 35.9355C847.506 37.1777 848.198 38.8359 848.198 40.9102C848.198 43.4297 846.592 46.4297 843.381 49.9102L836.526 57.3457H849.375V60Z" fill="#2CF30B"/>
<path d="M854.779 38.625C854.779 37.4062 855.213 36.3398 856.08 35.4258C856.959 34.5117 858.019 34.0547 859.261 34.0547C860.48 34.0547 861.517 34.5117 862.373 35.4258C863.24 36.3281 863.673 37.3945 863.673 38.625C863.673 39.8672 863.24 40.9277 862.373 41.8066C861.517 42.6855 860.48 43.125 859.261 43.125C858.031 43.125 856.976 42.6855 856.097 41.8066C855.218 40.9277 854.779 39.8672 854.779 38.625ZM859.261 40.875C859.894 40.875 860.427 40.6699 860.861 40.2598C861.295 39.8379 861.511 39.293 861.511 38.625C861.511 37.9453 861.295 37.3887 860.861 36.9551C860.427 36.5098 859.894 36.2871 859.261 36.2871C858.617 36.2871 858.072 36.5215 857.627 36.9902C857.193 37.4473 856.976 37.9922 856.976 38.625C856.976 39.2578 857.193 39.791 857.627 40.2246C858.072 40.6582 858.617 40.875 859.261 40.875Z" fill="#2CF30B"/>
</g>
</g>
<g id="Group 104">
<g id="A. El anillo no est&#195;&#161; aqu&#195;&#173;">
<path d="M47.1035 150.32H36.3809L33.9727 157H30.4922L40.2656 131.406H43.2188L53.0098 157H49.5469L47.1035 150.32ZM37.4004 147.543H46.1016L41.7422 135.572L37.4004 147.543Z" fill="white"/>
<path d="M57.8156 155.295C57.8156 154.732 57.9797 154.264 58.3078 153.889C58.6477 153.514 59.1516 153.326 59.8195 153.326C60.4875 153.326 60.9914 153.514 61.3312 153.889C61.6828 154.264 61.8586 154.732 61.8586 155.295C61.8586 155.834 61.6828 156.285 61.3312 156.648C60.9914 157.012 60.4875 157.193 59.8195 157.193C59.1516 157.193 58.6477 157.012 58.3078 156.648C57.9797 156.285 57.8156 155.834 57.8156 155.295Z" fill="white"/>
<path d="M94.7438 145.17H83.652V154.24H96.5367V157H80.277V131.406H96.3609V134.184H83.652V142.41H94.7438V145.17Z" fill="white"/>
<path d="M105.561 157H102.309V130H105.561V157Z" fill="white"/>
<path d="M135.054 157C134.866 156.625 134.714 155.957 134.597 154.996C133.085 156.566 131.28 157.352 129.183 157.352C127.308 157.352 125.767 156.824 124.56 155.77C123.364 154.703 122.767 153.355 122.767 151.727C122.767 149.746 123.517 148.211 125.017 147.121C126.529 146.02 128.65 145.469 131.38 145.469H134.544V143.975C134.544 142.838 134.204 141.936 133.525 141.268C132.845 140.588 131.843 140.248 130.519 140.248C129.359 140.248 128.386 140.541 127.601 141.127C126.816 141.713 126.423 142.422 126.423 143.254H123.154C123.154 142.305 123.488 141.391 124.155 140.512C124.835 139.621 125.749 138.918 126.898 138.402C128.058 137.887 129.329 137.629 130.712 137.629C132.904 137.629 134.62 138.18 135.863 139.281C137.105 140.371 137.749 141.877 137.796 143.799V152.553C137.796 154.299 138.019 155.688 138.464 156.719V157H135.054ZM129.657 154.521C130.677 154.521 131.644 154.258 132.558 153.73C133.472 153.203 134.134 152.518 134.544 151.674V147.771H131.995C128.011 147.771 126.019 148.938 126.019 151.27C126.019 152.289 126.359 153.086 127.038 153.66C127.718 154.234 128.591 154.521 129.657 154.521Z" fill="white"/>
<path d="M147.77 137.98L147.875 140.371C149.329 138.543 151.227 137.629 153.571 137.629C157.59 137.629 159.618 139.896 159.653 144.432V157H156.401V144.414C156.389 143.043 156.073 142.029 155.452 141.373C154.842 140.717 153.887 140.389 152.586 140.389C151.532 140.389 150.606 140.67 149.809 141.232C149.012 141.795 148.391 142.533 147.946 143.447V157H144.694V137.98H147.77Z" fill="white"/>
<path d="M169.89 157H166.638V137.98H169.89V157ZM166.375 132.936C166.375 132.408 166.533 131.963 166.849 131.6C167.177 131.236 167.658 131.055 168.291 131.055C168.923 131.055 169.404 131.236 169.732 131.6C170.06 131.963 170.224 132.408 170.224 132.936C170.224 133.463 170.06 133.902 169.732 134.254C169.404 134.605 168.923 134.781 168.291 134.781C167.658 134.781 167.177 134.605 166.849 134.254C166.533 133.902 166.375 133.463 166.375 132.936Z" fill="white"/>
<path d="M180.444 157H177.192V130H180.444V157Z" fill="white"/>
<path d="M190.998 157H187.746V130H190.998V157Z" fill="white"/>
<path d="M197.157 147.314C197.157 145.451 197.521 143.775 198.247 142.287C198.986 140.799 200.005 139.65 201.306 138.842C202.618 138.033 204.113 137.629 205.788 137.629C208.378 137.629 210.47 138.525 212.064 140.318C213.669 142.111 214.472 144.496 214.472 147.473V147.701C214.472 149.553 214.114 151.217 213.4 152.693C212.696 154.158 211.683 155.301 210.359 156.121C209.046 156.941 207.534 157.352 205.823 157.352C203.245 157.352 201.154 156.455 199.548 154.662C197.954 152.869 197.157 150.496 197.157 147.543V147.314ZM200.427 147.701C200.427 149.811 200.913 151.504 201.886 152.781C202.87 154.059 204.183 154.697 205.823 154.697C207.476 154.697 208.788 154.053 209.761 152.764C210.734 151.463 211.22 149.646 211.22 147.314C211.22 145.229 210.722 143.541 209.726 142.252C208.741 140.951 207.429 140.301 205.788 140.301C204.183 140.301 202.888 140.939 201.904 142.217C200.919 143.494 200.427 145.322 200.427 147.701Z" fill="white"/>
<path d="M234.156 137.98L234.261 140.371C235.714 138.543 237.613 137.629 239.957 137.629C243.976 137.629 246.004 139.896 246.039 144.432V157H242.787V144.414C242.775 143.043 242.459 142.029 241.837 141.373C241.228 140.717 240.273 140.389 238.972 140.389C237.918 140.389 236.992 140.67 236.195 141.232C235.398 141.795 234.777 142.533 234.332 143.447V157H231.08V137.98H234.156Z" fill="white"/>
<path d="M251.882 147.314C251.882 145.451 252.245 143.775 252.971 142.287C253.71 140.799 254.729 139.65 256.03 138.842C257.343 138.033 258.837 137.629 260.512 137.629C263.102 137.629 265.194 138.525 266.788 140.318C268.393 142.111 269.196 144.496 269.196 147.473V147.701C269.196 149.553 268.839 151.217 268.124 152.693C267.421 154.158 266.407 155.301 265.083 156.121C263.77 156.941 262.259 157.352 260.548 157.352C257.97 157.352 255.878 156.455 254.272 154.662C252.679 152.869 251.882 150.496 251.882 147.543V147.314ZM255.151 147.701C255.151 149.811 255.637 151.504 256.61 152.781C257.595 154.059 258.907 154.697 260.548 154.697C262.2 154.697 263.512 154.053 264.485 152.764C265.458 151.463 265.944 149.646 265.944 147.314C265.944 145.229 265.446 143.541 264.45 142.252C263.466 140.951 262.153 140.301 260.512 140.301C258.907 140.301 257.612 140.939 256.628 142.217C255.643 143.494 255.151 145.322 255.151 147.701Z" fill="white"/>
<path d="M293.696 157.352C291.118 157.352 289.021 156.508 287.404 154.82C285.786 153.121 284.978 150.854 284.978 148.018V147.42C284.978 145.533 285.335 143.852 286.05 142.375C286.777 140.887 287.784 139.727 289.073 138.895C290.374 138.051 291.78 137.629 293.292 137.629C295.765 137.629 297.687 138.443 299.058 140.072C300.429 141.701 301.114 144.033 301.114 147.068V148.422H288.23C288.277 150.297 288.821 151.814 289.864 152.975C290.919 154.123 292.255 154.697 293.872 154.697C295.021 154.697 295.993 154.463 296.79 153.994C297.587 153.525 298.284 152.904 298.882 152.131L300.868 153.678C299.275 156.127 296.884 157.352 293.696 157.352ZM293.292 140.301C291.98 140.301 290.878 140.781 289.987 141.742C289.097 142.691 288.546 144.027 288.335 145.75H297.862V145.504C297.769 143.852 297.323 142.574 296.527 141.672C295.73 140.758 294.652 140.301 293.292 140.301Z" fill="white"/>
<path d="M317.768 151.955C317.768 151.076 317.434 150.396 316.766 149.916C316.11 149.424 314.955 149.002 313.303 148.65C311.663 148.299 310.356 147.877 309.383 147.385C308.422 146.893 307.707 146.307 307.239 145.627C306.782 144.947 306.553 144.139 306.553 143.201C306.553 141.643 307.209 140.324 308.522 139.246C309.846 138.168 311.534 137.629 313.584 137.629C315.741 137.629 317.487 138.186 318.823 139.299C320.17 140.412 320.844 141.836 320.844 143.57H317.575C317.575 142.68 317.194 141.912 316.432 141.268C315.682 140.623 314.733 140.301 313.584 140.301C312.401 140.301 311.475 140.559 310.807 141.074C310.139 141.59 309.805 142.264 309.805 143.096C309.805 143.881 310.116 144.473 310.737 144.871C311.358 145.27 312.477 145.65 314.094 146.014C315.723 146.377 317.041 146.811 318.049 147.314C319.057 147.818 319.801 148.428 320.282 149.143C320.774 149.846 321.02 150.707 321.02 151.727C321.02 153.426 320.34 154.791 318.981 155.822C317.621 156.842 315.858 157.352 313.69 157.352C312.166 157.352 310.819 157.082 309.647 156.543C308.475 156.004 307.555 155.254 306.887 154.293C306.231 153.32 305.903 152.271 305.903 151.146H309.155C309.213 152.236 309.647 153.104 310.455 153.748C311.276 154.381 312.354 154.697 313.69 154.697C314.92 154.697 315.905 154.451 316.643 153.959C317.393 153.455 317.768 152.787 317.768 151.955Z" fill="white"/>
<path d="M331.468 133.375V137.98H335.019V140.494H331.468V152.289C331.468 153.051 331.627 153.625 331.943 154.012C332.259 154.387 332.798 154.574 333.56 154.574C333.935 154.574 334.451 154.504 335.107 154.363V157C334.252 157.234 333.42 157.352 332.611 157.352C331.158 157.352 330.062 156.912 329.324 156.033C328.586 155.154 328.216 153.906 328.216 152.289V140.494H324.754V137.98H328.216V133.375H331.468Z" fill="white"/>
<path d="M352.376 157C352.188 156.625 352.036 155.957 351.919 154.996C350.407 156.566 348.602 157.352 346.505 157.352C344.63 157.352 343.089 156.824 341.882 155.77C340.686 154.703 340.089 153.355 340.089 151.727C340.089 149.746 340.839 148.211 342.339 147.121C343.85 146.02 345.971 145.469 348.702 145.469H351.866V143.975C351.866 142.838 351.526 141.936 350.846 141.268C350.167 140.588 349.165 140.248 347.841 140.248C346.68 140.248 345.708 140.541 344.923 141.127C344.138 141.713 343.745 142.422 343.745 143.254H340.475C340.475 142.305 340.809 141.391 341.477 140.512C342.157 139.621 343.071 138.918 344.22 138.402C345.38 137.887 346.651 137.629 348.034 137.629C350.225 137.629 351.942 138.18 353.184 139.281C354.427 140.371 355.071 141.877 355.118 143.799V152.553C355.118 154.299 355.341 155.688 355.786 156.719V157H352.376ZM346.979 154.521C347.999 154.521 348.966 154.258 349.88 153.73C350.794 153.203 351.456 152.518 351.866 151.674V147.771H349.317C345.333 147.771 343.341 148.938 343.341 151.27C343.341 152.289 343.68 153.086 344.36 153.66C345.04 154.234 345.913 154.521 346.979 154.521ZM349.985 130H353.923L349.212 135.168H346.593L349.985 130Z" fill="white"/>
<path d="M384.487 157C384.3 156.625 384.148 155.957 384.03 154.996C382.519 156.566 380.714 157.352 378.616 157.352C376.741 157.352 375.2 156.824 373.993 155.77C372.798 154.703 372.2 153.355 372.2 151.727C372.2 149.746 372.95 148.211 374.45 147.121C375.962 146.02 378.083 145.469 380.814 145.469H383.978V143.975C383.978 142.838 383.638 141.936 382.958 141.268C382.279 140.588 381.277 140.248 379.952 140.248C378.792 140.248 377.82 140.541 377.034 141.127C376.249 141.713 375.857 142.422 375.857 143.254H372.587C372.587 142.305 372.921 141.391 373.589 140.512C374.269 139.621 375.183 138.918 376.331 138.402C377.491 137.887 378.763 137.629 380.146 137.629C382.337 137.629 384.054 138.18 385.296 139.281C386.538 140.371 387.183 141.877 387.23 143.799V152.553C387.23 154.299 387.452 155.688 387.898 156.719V157H384.487ZM379.091 154.521C380.111 154.521 381.077 154.258 381.991 153.73C382.905 153.203 383.568 152.518 383.978 151.674V147.771H381.429C377.445 147.771 375.452 148.938 375.452 151.27C375.452 152.289 375.792 153.086 376.472 153.66C377.152 154.234 378.025 154.521 379.091 154.521Z" fill="white"/>
<path d="M393.336 147.332C393.336 144.344 394.022 141.982 395.393 140.248C396.764 138.502 398.604 137.629 400.913 137.629C403.163 137.629 404.938 138.385 406.239 139.896L406.379 137.98H409.368V164.312H406.116V155.242C404.803 156.648 403.057 157.352 400.877 157.352C398.58 157.352 396.746 156.461 395.375 154.68C394.016 152.887 393.336 150.514 393.336 147.561V147.332ZM396.588 147.701C396.588 149.881 397.045 151.592 397.959 152.834C398.885 154.076 400.127 154.697 401.686 154.697C403.62 154.697 405.096 153.842 406.116 152.131V142.814C405.084 141.139 403.62 140.301 401.721 140.301C400.151 140.301 398.903 140.928 397.977 142.182C397.051 143.424 396.588 145.264 396.588 147.701Z" fill="white"/>
<path d="M428.13 155.119C426.865 156.607 425.007 157.352 422.558 157.352C420.531 157.352 418.984 156.766 417.918 155.594C416.863 154.41 416.33 152.664 416.318 150.355V137.98H419.57V150.268C419.57 153.15 420.742 154.592 423.086 154.592C425.57 154.592 427.222 153.666 428.043 151.814V137.98H431.295V157H428.201L428.13 155.119Z" fill="white"/>
<path d="M441.585 157H438.315V137.98H441.585V157ZM441.62 130.018H445.557L440.846 135.186H438.227L441.62 130.018Z" fill="white"/>
</g>
<g id="B. El anillo no est&#195;&#161; en el cofre C">
<path d="M32.9707 267V241.406H41.3379C44.1152 241.406 46.2012 241.98 47.5957 243.129C49.002 244.277 49.7051 245.977 49.7051 248.227C49.7051 249.422 49.3652 250.482 48.6855 251.408C48.0059 252.322 47.0801 253.031 45.9082 253.535C47.291 253.922 48.3809 254.66 49.1777 255.75C49.9863 256.828 50.3906 258.117 50.3906 259.617C50.3906 261.914 49.6465 263.719 48.1582 265.031C46.6699 266.344 44.5664 267 41.8477 267H32.9707ZM36.3457 255.029V264.24H41.918C43.4883 264.24 44.7246 263.836 45.627 263.027C46.541 262.207 46.998 261.082 46.998 259.652C46.998 256.57 45.3223 255.029 41.9707 255.029H36.3457ZM36.3457 252.322H41.4434C42.9199 252.322 44.0977 251.953 44.9766 251.215C45.8672 250.477 46.3125 249.475 46.3125 248.209C46.3125 246.803 45.9023 245.783 45.082 245.15C44.2617 244.506 43.0137 244.184 41.3379 244.184H36.3457V252.322Z" fill="white"/>
<path d="M56.7609 265.295C56.7609 264.732 56.925 264.264 57.2531 263.889C57.593 263.514 58.0969 263.326 58.7648 263.326C59.4328 263.326 59.9367 263.514 60.2766 263.889C60.6281 264.264 60.8039 264.732 60.8039 265.295C60.8039 265.834 60.6281 266.285 60.2766 266.648C59.9367 267.012 59.4328 267.193 58.7648 267.193C58.0969 267.193 57.593 267.012 57.2531 266.648C56.925 266.285 56.7609 265.834 56.7609 265.295Z" fill="white"/>
<path d="M93.6891 255.17H82.5973V264.24H95.482V267H79.2223V241.406H95.3063V244.184H82.5973V252.41H93.6891V255.17Z" fill="white"/>
<path d="M104.507 267H101.255V240H104.507V267Z" fill="white"/>
<path d="M133.999 267C133.812 266.625 133.659 265.957 133.542 264.996C132.03 266.566 130.226 267.352 128.128 267.352C126.253 267.352 124.712 266.824 123.505 265.77C122.31 264.703 121.712 263.355 121.712 261.727C121.712 259.746 122.462 258.211 123.962 257.121C125.474 256.02 127.595 255.469 130.325 255.469H133.489V253.975C133.489 252.838 133.15 251.936 132.47 251.268C131.79 250.588 130.788 250.248 129.464 250.248C128.304 250.248 127.331 250.541 126.546 251.127C125.761 251.713 125.368 252.422 125.368 253.254H122.099C122.099 252.305 122.433 251.391 123.101 250.512C123.78 249.621 124.695 248.918 125.843 248.402C127.003 247.887 128.275 247.629 129.657 247.629C131.849 247.629 133.566 248.18 134.808 249.281C136.05 250.371 136.695 251.877 136.741 253.799V262.553C136.741 264.299 136.964 265.688 137.409 266.719V267H133.999ZM128.603 264.521C129.622 264.521 130.589 264.258 131.503 263.73C132.417 263.203 133.079 262.518 133.489 261.674V257.771H130.941C126.956 257.771 124.964 258.938 124.964 261.27C124.964 262.289 125.304 263.086 125.984 263.66C126.663 264.234 127.536 264.521 128.603 264.521Z" fill="white"/>
<path d="M146.715 247.98L146.821 250.371C148.274 248.543 150.172 247.629 152.516 247.629C156.536 247.629 158.563 249.896 158.598 254.432V267H155.346V254.414C155.334 253.043 155.018 252.029 154.397 251.373C153.787 250.717 152.832 250.389 151.532 250.389C150.477 250.389 149.551 250.67 148.754 251.232C147.957 251.795 147.336 252.533 146.891 253.447V267H143.639V247.98H146.715Z" fill="white"/>
<path d="M168.836 267H165.584V247.98H168.836V267ZM165.32 242.936C165.32 242.408 165.478 241.963 165.795 241.6C166.123 241.236 166.603 241.055 167.236 241.055C167.869 241.055 168.349 241.236 168.677 241.6C169.005 241.963 169.17 242.408 169.17 242.936C169.17 243.463 169.005 243.902 168.677 244.254C168.349 244.605 167.869 244.781 167.236 244.781C166.603 244.781 166.123 244.605 165.795 244.254C165.478 243.902 165.32 243.463 165.32 242.936Z" fill="white"/>
<path d="M179.389 267H176.137V240H179.389V267Z" fill="white"/>
<path d="M189.943 267H186.691V240H189.943V267Z" fill="white"/>
<path d="M196.103 257.314C196.103 255.451 196.466 253.775 197.193 252.287C197.931 250.799 198.95 249.65 200.251 248.842C201.564 248.033 203.058 247.629 204.734 247.629C207.323 247.629 209.415 248.525 211.009 250.318C212.614 252.111 213.417 254.496 213.417 257.473V257.701C213.417 259.553 213.06 261.217 212.345 262.693C211.642 264.158 210.628 265.301 209.304 266.121C207.991 266.941 206.48 267.352 204.769 267.352C202.191 267.352 200.099 266.455 198.493 264.662C196.9 262.869 196.103 260.496 196.103 257.543V257.314ZM199.372 257.701C199.372 259.811 199.859 261.504 200.831 262.781C201.816 264.059 203.128 264.697 204.769 264.697C206.421 264.697 207.734 264.053 208.706 262.764C209.679 261.463 210.165 259.646 210.165 257.314C210.165 255.229 209.667 253.541 208.671 252.252C207.687 250.951 206.374 250.301 204.734 250.301C203.128 250.301 201.833 250.939 200.849 252.217C199.864 253.494 199.372 255.322 199.372 257.701Z" fill="white"/>
<path d="M233.101 247.98L233.207 250.371C234.66 248.543 236.558 247.629 238.902 247.629C242.921 247.629 244.949 249.896 244.984 254.432V267H241.732V254.414C241.72 253.043 241.404 252.029 240.783 251.373C240.173 250.717 239.218 250.389 237.918 250.389C236.863 250.389 235.937 250.67 235.14 251.232C234.343 251.795 233.722 252.533 233.277 253.447V267H230.025V247.98H233.101Z" fill="white"/>
<path d="M250.827 257.314C250.827 255.451 251.19 253.775 251.917 252.287C252.655 250.799 253.675 249.65 254.975 248.842C256.288 248.033 257.782 247.629 259.458 247.629C262.048 247.629 264.139 248.525 265.733 250.318C267.339 252.111 268.141 254.496 268.141 257.473V257.701C268.141 259.553 267.784 261.217 267.069 262.693C266.366 264.158 265.352 265.301 264.028 266.121C262.716 266.941 261.204 267.352 259.493 267.352C256.915 267.352 254.823 266.455 253.218 264.662C251.624 262.869 250.827 260.496 250.827 257.543V257.314ZM254.096 257.701C254.096 259.811 254.583 261.504 255.555 262.781C256.54 264.059 257.852 264.697 259.493 264.697C261.145 264.697 262.458 264.053 263.43 262.764C264.403 261.463 264.889 259.646 264.889 257.314C264.889 255.229 264.391 253.541 263.395 252.252C262.411 250.951 261.098 250.301 259.458 250.301C257.852 250.301 256.557 250.939 255.573 252.217C254.589 253.494 254.096 255.322 254.096 257.701Z" fill="white"/>
<path d="M292.642 267.352C290.064 267.352 287.966 266.508 286.349 264.82C284.732 263.121 283.923 260.854 283.923 258.018V257.42C283.923 255.533 284.28 253.852 284.995 252.375C285.722 250.887 286.73 249.727 288.019 248.895C289.32 248.051 290.726 247.629 292.237 247.629C294.71 247.629 296.632 248.443 298.003 250.072C299.374 251.701 300.06 254.033 300.06 257.068V258.422H287.175C287.222 260.297 287.767 261.814 288.81 262.975C289.864 264.123 291.2 264.697 292.818 264.697C293.966 264.697 294.939 264.463 295.736 263.994C296.532 263.525 297.23 262.904 297.827 262.131L299.814 263.678C298.22 266.127 295.829 267.352 292.642 267.352ZM292.237 250.301C290.925 250.301 289.823 250.781 288.933 251.742C288.042 252.691 287.491 254.027 287.28 255.75H296.808V255.504C296.714 253.852 296.269 252.574 295.472 251.672C294.675 250.758 293.597 250.301 292.237 250.301Z" fill="white"/>
<path d="M316.713 261.955C316.713 261.076 316.379 260.396 315.711 259.916C315.055 259.424 313.901 259.002 312.248 258.65C310.608 258.299 309.301 257.877 308.329 257.385C307.368 256.893 306.653 256.307 306.184 255.627C305.727 254.947 305.498 254.139 305.498 253.201C305.498 251.643 306.155 250.324 307.467 249.246C308.791 248.168 310.479 247.629 312.53 247.629C314.686 247.629 316.432 248.186 317.768 249.299C319.116 250.412 319.789 251.836 319.789 253.57H316.52C316.52 252.68 316.139 251.912 315.377 251.268C314.627 250.623 313.678 250.301 312.53 250.301C311.346 250.301 310.42 250.559 309.752 251.074C309.084 251.59 308.75 252.264 308.75 253.096C308.75 253.881 309.061 254.473 309.682 254.871C310.303 255.27 311.422 255.65 313.039 256.014C314.668 256.377 315.987 256.811 316.995 257.314C318.002 257.818 318.746 258.428 319.227 259.143C319.719 259.846 319.965 260.707 319.965 261.727C319.965 263.426 319.286 264.791 317.926 265.822C316.567 266.842 314.803 267.352 312.635 267.352C311.112 267.352 309.764 267.082 308.592 266.543C307.42 266.004 306.5 265.254 305.832 264.293C305.176 263.32 304.848 262.271 304.848 261.146H308.1C308.159 262.236 308.592 263.104 309.401 263.748C310.221 264.381 311.299 264.697 312.635 264.697C313.866 264.697 314.85 264.451 315.588 263.959C316.338 263.455 316.713 262.787 316.713 261.955Z" fill="white"/>
<path d="M330.414 243.375V247.98H333.964V250.494H330.414V262.289C330.414 263.051 330.572 263.625 330.888 264.012C331.205 264.387 331.744 264.574 332.505 264.574C332.88 264.574 333.396 264.504 334.052 264.363V267C333.197 267.234 332.365 267.352 331.556 267.352C330.103 267.352 329.007 266.912 328.269 266.033C327.531 265.154 327.162 263.906 327.162 262.289V250.494H323.699V247.98H327.162V243.375H330.414Z" fill="white"/>
<path d="M351.321 267C351.134 266.625 350.981 265.957 350.864 264.996C349.352 266.566 347.548 267.352 345.45 267.352C343.575 267.352 342.034 266.824 340.827 265.77C339.632 264.703 339.034 263.355 339.034 261.727C339.034 259.746 339.784 258.211 341.284 257.121C342.796 256.02 344.917 255.469 347.647 255.469H350.811V253.975C350.811 252.838 350.471 251.936 349.792 251.268C349.112 250.588 348.11 250.248 346.786 250.248C345.626 250.248 344.653 250.541 343.868 251.127C343.083 251.713 342.69 252.422 342.69 253.254H339.421C339.421 252.305 339.755 251.391 340.423 250.512C341.102 249.621 342.016 248.918 343.165 248.402C344.325 247.887 345.596 247.629 346.979 247.629C349.171 247.629 350.888 248.18 352.13 249.281C353.372 250.371 354.016 251.877 354.063 253.799V262.553C354.063 264.299 354.286 265.688 354.731 266.719V267H351.321ZM345.925 264.521C346.944 264.521 347.911 264.258 348.825 263.73C349.739 263.203 350.401 262.518 350.811 261.674V257.771H348.263C344.278 257.771 342.286 258.938 342.286 261.27C342.286 262.289 342.626 263.086 343.305 263.66C343.985 264.234 344.858 264.521 345.925 264.521ZM348.93 240H352.868L348.157 245.168H345.538L348.93 240Z" fill="white"/>
<path d="M379.583 267.352C377.005 267.352 374.907 266.508 373.29 264.82C371.673 263.121 370.864 260.854 370.864 258.018V257.42C370.864 255.533 371.222 253.852 371.937 252.375C372.663 250.887 373.671 249.727 374.96 248.895C376.261 248.051 377.667 247.629 379.179 247.629C381.652 247.629 383.573 248.443 384.945 250.072C386.316 251.701 387.001 254.033 387.001 257.068V258.422H374.116C374.163 260.297 374.708 261.814 375.751 262.975C376.806 264.123 378.142 264.697 379.759 264.697C380.907 264.697 381.88 264.463 382.677 263.994C383.474 263.525 384.171 262.904 384.769 262.131L386.755 263.678C385.161 266.127 382.771 267.352 379.583 267.352ZM379.179 250.301C377.866 250.301 376.765 250.781 375.874 251.742C374.984 252.691 374.433 254.027 374.222 255.75H383.749V255.504C383.655 253.852 383.21 252.574 382.413 251.672C381.616 250.758 380.538 250.301 379.179 250.301Z" fill="white"/>
<path d="M395.657 247.98L395.762 250.371C397.215 248.543 399.114 247.629 401.457 247.629C405.477 247.629 407.504 249.896 407.539 254.432V267H404.288V254.414C404.276 253.043 403.959 252.029 403.338 251.373C402.729 250.717 401.774 250.389 400.473 250.389C399.418 250.389 398.493 250.67 397.696 251.232C396.899 251.795 396.278 252.533 395.832 253.447V267H392.58V247.98H395.657Z" fill="white"/>
<path d="M432.866 267.352C430.288 267.352 428.19 266.508 426.573 264.82C424.956 263.121 424.147 260.854 424.147 258.018V257.42C424.147 255.533 424.505 253.852 425.22 252.375C425.946 250.887 426.954 249.727 428.243 248.895C429.544 248.051 430.95 247.629 432.462 247.629C434.934 247.629 436.856 248.443 438.227 250.072C439.598 251.701 440.284 254.033 440.284 257.068V258.422H427.399C427.446 260.297 427.991 261.814 429.034 262.975C430.089 264.123 431.425 264.697 433.042 264.697C434.19 264.697 435.163 264.463 435.96 263.994C436.757 263.525 437.454 262.904 438.052 262.131L440.038 263.678C438.444 266.127 436.054 267.352 432.866 267.352ZM432.462 250.301C431.149 250.301 430.048 250.781 429.157 251.742C428.266 252.691 427.716 254.027 427.505 255.75H437.032V255.504C436.938 253.852 436.493 252.574 435.696 251.672C434.899 250.758 433.821 250.301 432.462 250.301Z" fill="white"/>
<path d="M449.396 267H446.145V240H449.396V267Z" fill="white"/>
<path d="M474.776 264.697C475.936 264.697 476.95 264.346 477.817 263.643C478.684 262.939 479.164 262.061 479.258 261.006H482.334C482.276 262.096 481.901 263.133 481.209 264.117C480.518 265.102 479.592 265.887 478.432 266.473C477.284 267.059 476.065 267.352 474.776 267.352C472.186 267.352 470.123 266.49 468.588 264.768C467.065 263.033 466.303 260.666 466.303 257.666V257.121C466.303 255.27 466.643 253.623 467.323 252.182C468.002 250.74 468.975 249.621 470.241 248.824C471.518 248.027 473.024 247.629 474.758 247.629C476.891 247.629 478.661 248.268 480.067 249.545C481.485 250.822 482.241 252.48 482.334 254.52H479.258C479.164 253.289 478.696 252.281 477.852 251.496C477.02 250.699 475.989 250.301 474.758 250.301C473.106 250.301 471.823 250.898 470.909 252.094C470.006 253.277 469.555 254.994 469.555 257.244V257.859C469.555 260.051 470.006 261.738 470.909 262.922C471.811 264.105 473.1 264.697 474.776 264.697Z" fill="white"/>
<path d="M486.929 257.314C486.929 255.451 487.293 253.775 488.019 252.287C488.757 250.799 489.777 249.65 491.078 248.842C492.39 248.033 493.884 247.629 495.56 247.629C498.15 247.629 500.242 248.525 501.836 250.318C503.441 252.111 504.244 254.496 504.244 257.473V257.701C504.244 259.553 503.886 261.217 503.171 262.693C502.468 264.158 501.455 265.301 500.13 266.121C498.818 266.941 497.306 267.352 495.595 267.352C493.017 267.352 490.925 266.455 489.32 264.662C487.726 262.869 486.929 260.496 486.929 257.543V257.314ZM490.199 257.701C490.199 259.811 490.685 261.504 491.658 262.781C492.642 264.059 493.955 264.697 495.595 264.697C497.248 264.697 498.56 264.053 499.533 262.764C500.505 261.463 500.992 259.646 500.992 257.314C500.992 255.229 500.494 253.541 499.498 252.252C498.513 250.951 497.201 250.301 495.56 250.301C493.955 250.301 492.66 250.939 491.675 252.217C490.691 253.494 490.199 255.322 490.199 257.701Z" fill="white"/>
<path d="M511.721 267V250.494H508.716V247.98H511.721V246.029C511.721 243.99 512.266 242.414 513.356 241.301C514.446 240.188 515.987 239.631 517.979 239.631C518.729 239.631 519.473 239.73 520.212 239.93L520.036 242.566C519.485 242.461 518.899 242.408 518.278 242.408C517.223 242.408 516.409 242.719 515.835 243.34C515.261 243.949 514.973 244.828 514.973 245.977V247.98H519.034V250.494H514.973V267H511.721Z" fill="white"/>
<path d="M533.631 250.898C533.139 250.816 532.605 250.775 532.031 250.775C529.898 250.775 528.451 251.684 527.689 253.5V267H524.438V247.98H527.602L527.654 250.178C528.721 248.479 530.232 247.629 532.189 247.629C532.822 247.629 533.303 247.711 533.631 247.875V250.898Z" fill="white"/>
<path d="M545.978 267.352C543.4 267.352 541.302 266.508 539.685 264.82C538.068 263.121 537.259 260.854 537.259 258.018V257.42C537.259 255.533 537.616 253.852 538.331 252.375C539.058 250.887 540.066 249.727 541.355 248.895C542.655 248.051 544.062 247.629 545.573 247.629C548.046 247.629 549.968 248.443 551.339 250.072C552.71 251.701 553.396 254.033 553.396 257.068V258.422H540.511C540.558 260.297 541.103 261.814 542.146 262.975C543.2 264.123 544.536 264.697 546.154 264.697C547.302 264.697 548.275 264.463 549.071 263.994C549.868 263.525 550.566 262.904 551.163 262.131L553.15 263.678C551.556 266.127 549.165 267.352 545.978 267.352ZM545.573 250.301C544.261 250.301 543.159 250.781 542.269 251.742C541.378 252.691 540.827 254.027 540.616 255.75H550.144V255.504C550.05 253.852 549.605 252.574 548.808 251.672C548.011 250.758 546.933 250.301 545.573 250.301Z" fill="white"/>
<path d="M589.041 258.879C588.724 261.586 587.722 263.678 586.035 265.154C584.359 266.619 582.127 267.352 579.338 267.352C576.314 267.352 573.888 266.268 572.06 264.1C570.244 261.932 569.336 259.031 569.336 255.398V252.938C569.336 250.559 569.757 248.467 570.601 246.662C571.457 244.857 572.664 243.475 574.222 242.514C575.781 241.541 577.586 241.055 579.636 241.055C582.355 241.055 584.535 241.816 586.175 243.34C587.816 244.852 588.771 246.949 589.041 249.633H585.648C585.355 247.594 584.716 246.117 583.732 245.203C582.759 244.289 581.394 243.832 579.636 243.832C577.48 243.832 575.787 244.629 574.556 246.223C573.338 247.816 572.728 250.084 572.728 253.025V255.504C572.728 258.281 573.308 260.49 574.468 262.131C575.629 263.771 577.252 264.592 579.338 264.592C581.213 264.592 582.648 264.17 583.644 263.326C584.652 262.471 585.32 260.988 585.648 258.879H589.041Z" fill="white"/>
</g>
<g id="C. El anillo est&#195;&#161; aqu&#195;&#173;">
<path d="M51.7969 355.879C51.4805 358.586 50.4785 360.678 48.791 362.154C47.1152 363.619 44.8828 364.352 42.0938 364.352C39.0703 364.352 36.6445 363.268 34.8164 361.1C33 358.932 32.0918 356.031 32.0918 352.398V349.938C32.0918 347.559 32.5137 345.467 33.3574 343.662C34.2129 341.857 35.4199 340.475 36.9785 339.514C38.5371 338.541 40.3418 338.055 42.3926 338.055C45.1113 338.055 47.291 338.816 48.9316 340.34C50.5723 341.852 51.5273 343.949 51.7969 346.633H48.4043C48.1113 344.594 47.4727 343.117 46.4883 342.203C45.5156 341.289 44.1504 340.832 42.3926 340.832C40.2363 340.832 38.543 341.629 37.3125 343.223C36.0938 344.816 35.4844 347.084 35.4844 350.025V352.504C35.4844 355.281 36.0645 357.49 37.2246 359.131C38.3848 360.771 40.0078 361.592 42.0938 361.592C43.9688 361.592 45.4043 361.17 46.4004 360.326C47.4082 359.471 48.0762 357.988 48.4043 355.879H51.7969Z" fill="white"/>
<path d="M57.7805 362.295C57.7805 361.732 57.9445 361.264 58.2727 360.889C58.6125 360.514 59.1164 360.326 59.7844 360.326C60.4523 360.326 60.9562 360.514 61.2961 360.889C61.6477 361.264 61.8234 361.732 61.8234 362.295C61.8234 362.834 61.6477 363.285 61.2961 363.648C60.9562 364.012 60.4523 364.193 59.7844 364.193C59.1164 364.193 58.6125 364.012 58.2727 363.648C57.9445 363.285 57.7805 362.834 57.7805 362.295Z" fill="white"/>
<path d="M94.7086 352.17H83.6168V361.24H96.5016V364H80.2418V338.406H96.3258V341.184H83.6168V349.41H94.7086V352.17Z" fill="white"/>
<path d="M105.526 364H102.274V337H105.526V364Z" fill="white"/>
<path d="M135.019 364C134.831 363.625 134.679 362.957 134.562 361.996C133.05 363.566 131.245 364.352 129.148 364.352C127.273 364.352 125.732 363.824 124.525 362.77C123.329 361.703 122.732 360.355 122.732 358.727C122.732 356.746 123.482 355.211 124.982 354.121C126.493 353.02 128.614 352.469 131.345 352.469H134.509V350.975C134.509 349.838 134.169 348.936 133.489 348.268C132.81 347.588 131.808 347.248 130.484 347.248C129.323 347.248 128.351 347.541 127.566 348.127C126.78 348.713 126.388 349.422 126.388 350.254H123.118C123.118 349.305 123.452 348.391 124.12 347.512C124.8 346.621 125.714 345.918 126.863 345.402C128.023 344.887 129.294 344.629 130.677 344.629C132.868 344.629 134.585 345.18 135.827 346.281C137.07 347.371 137.714 348.877 137.761 350.799V359.553C137.761 361.299 137.984 362.688 138.429 363.719V364H135.019ZM129.622 361.521C130.642 361.521 131.609 361.258 132.523 360.73C133.437 360.203 134.099 359.518 134.509 358.674V354.771H131.96C127.976 354.771 125.984 355.938 125.984 358.27C125.984 359.289 126.323 360.086 127.003 360.66C127.683 361.234 128.556 361.521 129.622 361.521Z" fill="white"/>
<path d="M147.735 344.98L147.84 347.371C149.293 345.543 151.192 344.629 153.536 344.629C157.555 344.629 159.582 346.896 159.618 351.432V364H156.366V351.414C156.354 350.043 156.037 349.029 155.416 348.373C154.807 347.717 153.852 347.389 152.551 347.389C151.496 347.389 150.571 347.67 149.774 348.232C148.977 348.795 148.356 349.533 147.911 350.447V364H144.659V344.98H147.735Z" fill="white"/>
<path d="M169.855 364H166.603V344.98H169.855V364ZM166.339 339.936C166.339 339.408 166.498 338.963 166.814 338.6C167.142 338.236 167.623 338.055 168.255 338.055C168.888 338.055 169.369 338.236 169.697 338.6C170.025 338.963 170.189 339.408 170.189 339.936C170.189 340.463 170.025 340.902 169.697 341.254C169.369 341.605 168.888 341.781 168.255 341.781C167.623 341.781 167.142 341.605 166.814 341.254C166.498 340.902 166.339 340.463 166.339 339.936Z" fill="white"/>
<path d="M180.409 364H177.157V337H180.409V364Z" fill="white"/>
<path d="M190.963 364H187.711V337H190.963V364Z" fill="white"/>
<path d="M197.122 354.314C197.122 352.451 197.486 350.775 198.212 349.287C198.95 347.799 199.97 346.65 201.271 345.842C202.583 345.033 204.077 344.629 205.753 344.629C208.343 344.629 210.435 345.525 212.029 347.318C213.634 349.111 214.437 351.496 214.437 354.473V354.701C214.437 356.553 214.079 358.217 213.364 359.693C212.661 361.158 211.648 362.301 210.323 363.121C209.011 363.941 207.499 364.352 205.788 364.352C203.21 364.352 201.118 363.455 199.513 361.662C197.919 359.869 197.122 357.496 197.122 354.543V354.314ZM200.392 354.701C200.392 356.811 200.878 358.504 201.851 359.781C202.835 361.059 204.148 361.697 205.788 361.697C207.441 361.697 208.753 361.053 209.726 359.764C210.698 358.463 211.185 356.646 211.185 354.314C211.185 352.229 210.687 350.541 209.691 349.252C208.706 347.951 207.394 347.301 205.753 347.301C204.148 347.301 202.853 347.939 201.868 349.217C200.884 350.494 200.392 352.322 200.392 354.701Z" fill="white"/>
<path d="M238.937 364.352C236.359 364.352 234.261 363.508 232.644 361.82C231.027 360.121 230.218 357.854 230.218 355.018V354.42C230.218 352.533 230.576 350.852 231.291 349.375C232.017 347.887 233.025 346.727 234.314 345.895C235.615 345.051 237.021 344.629 238.533 344.629C241.005 344.629 242.927 345.443 244.298 347.072C245.67 348.701 246.355 351.033 246.355 354.068V355.422H233.47C233.517 357.297 234.062 358.814 235.105 359.975C236.16 361.123 237.496 361.697 239.113 361.697C240.261 361.697 241.234 361.463 242.031 360.994C242.828 360.525 243.525 359.904 244.123 359.131L246.109 360.678C244.515 363.127 242.125 364.352 238.937 364.352ZM238.533 347.301C237.22 347.301 236.119 347.781 235.228 348.742C234.337 349.691 233.787 351.027 233.576 352.75H243.103V352.504C243.009 350.852 242.564 349.574 241.767 348.672C240.97 347.758 239.892 347.301 238.533 347.301Z" fill="white"/>
<path d="M263.009 358.955C263.009 358.076 262.675 357.396 262.007 356.916C261.35 356.424 260.196 356.002 258.544 355.65C256.903 355.299 255.596 354.877 254.624 354.385C253.663 353.893 252.948 353.307 252.479 352.627C252.022 351.947 251.794 351.139 251.794 350.201C251.794 348.643 252.45 347.324 253.762 346.246C255.087 345.168 256.774 344.629 258.825 344.629C260.981 344.629 262.727 345.186 264.063 346.299C265.411 347.412 266.085 348.836 266.085 350.57H262.815C262.815 349.68 262.434 348.912 261.673 348.268C260.923 347.623 259.973 347.301 258.825 347.301C257.641 347.301 256.716 347.559 256.048 348.074C255.38 348.59 255.046 349.264 255.046 350.096C255.046 350.881 255.356 351.473 255.977 351.871C256.598 352.27 257.718 352.65 259.335 353.014C260.964 353.377 262.282 353.811 263.29 354.314C264.298 354.818 265.042 355.428 265.522 356.143C266.014 356.846 266.261 357.707 266.261 358.727C266.261 360.426 265.581 361.791 264.221 362.822C262.862 363.842 261.098 364.352 258.93 364.352C257.407 364.352 256.059 364.082 254.887 363.543C253.716 363.004 252.796 362.254 252.128 361.293C251.471 360.32 251.143 359.271 251.143 358.146H254.395C254.454 359.236 254.887 360.104 255.696 360.748C256.516 361.381 257.595 361.697 258.93 361.697C260.161 361.697 261.145 361.451 261.884 360.959C262.634 360.455 263.009 359.787 263.009 358.955Z" fill="white"/>
<path d="M276.709 340.375V344.98H280.26V347.494H276.709V359.289C276.709 360.051 276.867 360.625 277.184 361.012C277.5 361.387 278.039 361.574 278.801 361.574C279.176 361.574 279.691 361.504 280.348 361.363V364C279.492 364.234 278.66 364.352 277.852 364.352C276.398 364.352 275.303 363.912 274.564 363.033C273.826 362.154 273.457 360.906 273.457 359.289V347.494H269.994V344.98H273.457V340.375H276.709Z" fill="white"/>
<path d="M297.616 364C297.429 363.625 297.277 362.957 297.159 361.996C295.648 363.566 293.843 364.352 291.745 364.352C289.87 364.352 288.329 363.824 287.122 362.77C285.927 361.703 285.329 360.355 285.329 358.727C285.329 356.746 286.079 355.211 287.579 354.121C289.091 353.02 291.212 352.469 293.943 352.469H297.107V350.975C297.107 349.838 296.767 348.936 296.087 348.268C295.407 347.588 294.405 347.248 293.081 347.248C291.921 347.248 290.948 347.541 290.163 348.127C289.378 348.713 288.986 349.422 288.986 350.254H285.716C285.716 349.305 286.05 348.391 286.718 347.512C287.398 346.621 288.312 345.918 289.46 345.402C290.62 344.887 291.892 344.629 293.275 344.629C295.466 344.629 297.183 345.18 298.425 346.281C299.667 347.371 300.312 348.877 300.359 350.799V359.553C300.359 361.299 300.581 362.688 301.027 363.719V364H297.616ZM292.22 361.521C293.239 361.521 294.206 361.258 295.12 360.73C296.034 360.203 296.696 359.518 297.107 358.674V354.771H294.558C290.573 354.771 288.581 355.938 288.581 358.27C288.581 359.289 288.921 360.086 289.601 360.66C290.28 361.234 291.154 361.521 292.22 361.521ZM295.226 337H299.163L294.452 342.168H291.833L295.226 337Z" fill="white"/>
<path d="M329.728 364C329.541 363.625 329.388 362.957 329.271 361.996C327.759 363.566 325.955 364.352 323.857 364.352C321.982 364.352 320.441 363.824 319.234 362.77C318.039 361.703 317.441 360.355 317.441 358.727C317.441 356.746 318.191 355.211 319.691 354.121C321.203 353.02 323.324 352.469 326.054 352.469H329.218V350.975C329.218 349.838 328.879 348.936 328.199 348.268C327.519 347.588 326.517 347.248 325.193 347.248C324.033 347.248 323.06 347.541 322.275 348.127C321.49 348.713 321.097 349.422 321.097 350.254H317.828C317.828 349.305 318.162 348.391 318.83 347.512C319.509 346.621 320.423 345.918 321.572 345.402C322.732 344.887 324.004 344.629 325.386 344.629C327.578 344.629 329.295 345.18 330.537 346.281C331.779 347.371 332.423 348.877 332.47 350.799V359.553C332.47 361.299 332.693 362.688 333.138 363.719V364H329.728ZM324.332 361.521C325.351 361.521 326.318 361.258 327.232 360.73C328.146 360.203 328.808 359.518 329.218 358.674V354.771H326.67C322.685 354.771 320.693 355.938 320.693 358.27C320.693 359.289 321.033 360.086 321.712 360.66C322.392 361.234 323.265 361.521 324.332 361.521Z" fill="white"/>
<path d="M338.577 354.332C338.577 351.344 339.263 348.982 340.634 347.248C342.005 345.502 343.845 344.629 346.153 344.629C348.403 344.629 350.179 345.385 351.479 346.896L351.62 344.98H354.608V371.312H351.356V362.242C350.044 363.648 348.298 364.352 346.118 364.352C343.821 364.352 341.987 363.461 340.616 361.68C339.257 359.887 338.577 357.514 338.577 354.561V354.332ZM341.829 354.701C341.829 356.881 342.286 358.592 343.2 359.834C344.126 361.076 345.368 361.697 346.927 361.697C348.86 361.697 350.337 360.842 351.356 359.131V349.814C350.325 348.139 348.86 347.301 346.962 347.301C345.391 347.301 344.143 347.928 343.218 349.182C342.292 350.424 341.829 352.264 341.829 354.701Z" fill="white"/>
<path d="M373.371 362.119C372.105 363.607 370.248 364.352 367.799 364.352C365.771 364.352 364.225 363.766 363.158 362.594C362.104 361.41 361.57 359.664 361.559 357.355V344.98H364.811V357.268C364.811 360.15 365.982 361.592 368.326 361.592C370.811 361.592 372.463 360.666 373.283 358.814V344.98H376.535V364H373.441L373.371 362.119Z" fill="white"/>
<path d="M386.825 364H383.556V344.98H386.825V364ZM386.861 337.018H390.798L386.087 342.186H383.468L386.861 337.018Z" fill="white"/>
</g>
</g>
</g>
<g id="segundo">
<g id="Group 102">
<path id="V" d="M723.351 264.771L731.882 240.141H736.188L725.114 270H721.628L710.574 240.141H714.86L723.351 264.771Z" fill="white"/>
<path id="F" d="M729.934 353.813H717.403V367H713.466V337.141H731.964V340.381H717.403V350.594H729.934V353.813Z" fill="white"/>
</g>
<g id="Group 103">
<path id="F_2" d="M844.934 256.813H832.403V270H828.466V240.141H846.964V243.381H832.403V253.594H844.934V256.813Z" fill="white"/>
<path id="V_2" d="M838.351 361.771L846.882 337.141H851.188L840.114 367H836.628L825.574 337.141H829.86L838.351 361.771Z" fill="white"/>
</g>
<g id="Group 106">
<path id="V_3" d="M840.351 160.771L848.882 136.141H853.188L842.114 166H838.628L827.574 136.141H831.86L840.351 160.771Z" fill="white"/>
<path id="mala" fill-rule="evenodd" clip-rule="evenodd" d="M823.197 459.623C822.22 460.599 822.22 462.182 823.197 463.159C824.173 464.135 825.756 464.135 826.732 463.159L843.178 446.713L859.623 463.159C860.599 464.135 862.182 464.135 863.159 463.159C864.135 462.182 864.135 460.599 863.159 459.623L846.713 443.178L865.623 424.268C866.599 423.291 866.599 421.709 865.623 420.732C864.647 419.756 863.064 419.756 862.088 420.732L843.178 439.642L824.268 420.732C823.291 419.756 821.709 419.756 820.732 420.732C819.756 421.709 819.756 423.291 820.732 424.268L839.642 443.178L823.197 459.623Z" fill="#FD0C0C"/>
<path id="buena" fill-rule="evenodd" clip-rule="evenodd" d="M710.419 463.356C710.141 463.49 709.833 463.574 709.506 463.596C708.128 463.69 706.936 462.649 706.842 461.271L705.181 436.833C705.087 435.456 706.128 434.263 707.506 434.17C708.883 434.076 710.076 435.117 710.17 436.494L711.486 455.869L747.123 420.232C748.099 419.256 749.682 419.256 750.659 420.232C751.635 421.209 751.635 422.791 750.659 423.768L711.768 462.659C711.387 463.04 710.913 463.272 710.419 463.356Z" fill="#2CF30B"/>
<path id="F_3" d="M731.934 152.813H719.403V166H715.466V136.141H733.964V139.381H719.403V149.594H731.934V152.813Z" fill="white"/>
</g>
</g>
<g id="respuesta">
<path d="M186.878 449.698H173.938V460.28H188.97V463.5H170V433.641H188.765V436.881H173.938V446.479H186.878V449.698Z" fill="white"/>
<path d="M197.398 463.5H193.604V432H197.398V463.5Z" fill="white"/>
<path d="M227.606 463.5C227.388 463.062 227.21 462.283 227.073 461.162C225.31 462.994 223.204 463.91 220.757 463.91C218.569 463.91 216.771 463.295 215.363 462.064C213.969 460.82 213.271 459.248 213.271 457.348C213.271 455.037 214.146 453.246 215.896 451.975C217.66 450.689 220.135 450.047 223.32 450.047H227.012V448.304C227.012 446.978 226.615 445.925 225.822 445.146C225.029 444.353 223.86 443.956 222.315 443.956C220.962 443.956 219.827 444.298 218.911 444.981C217.995 445.665 217.537 446.492 217.537 447.463H213.723C213.723 446.355 214.112 445.289 214.892 444.264C215.685 443.225 216.751 442.404 218.091 441.803C219.444 441.201 220.928 440.9 222.541 440.9C225.098 440.9 227.101 441.543 228.55 442.828C229.999 444.1 230.751 445.856 230.806 448.099V458.312C230.806 460.349 231.065 461.969 231.585 463.172V463.5H227.606ZM221.311 460.608C222.5 460.608 223.628 460.301 224.694 459.686C225.761 459.07 226.533 458.271 227.012 457.286V452.733H224.038C219.39 452.733 217.065 454.094 217.065 456.814C217.065 458.004 217.462 458.934 218.255 459.604C219.048 460.273 220.066 460.608 221.311 460.608Z" fill="white"/>
<path d="M240.342 441.311L240.465 444.1C242.16 441.967 244.375 440.9 247.109 440.9C251.799 440.9 254.164 443.546 254.205 448.837V463.5H250.411V448.816C250.397 447.217 250.028 446.034 249.304 445.269C248.593 444.503 247.479 444.12 245.961 444.12C244.73 444.12 243.65 444.448 242.721 445.104C241.791 445.761 241.066 446.622 240.547 447.688V463.5H236.753V441.311H240.342Z" fill="white"/>
<path d="M264.049 463.5H260.255V441.311H264.049V463.5ZM259.947 435.425C259.947 434.81 260.132 434.29 260.501 433.866C260.884 433.442 261.444 433.23 262.183 433.23C262.921 433.23 263.481 433.442 263.864 433.866C264.247 434.29 264.438 434.81 264.438 435.425C264.438 436.04 264.247 436.553 263.864 436.963C263.481 437.373 262.921 437.578 262.183 437.578C261.444 437.578 260.884 437.373 260.501 436.963C260.132 436.553 259.947 436.04 259.947 435.425Z" fill="white"/>
<path d="M274.262 463.5H270.468V432H274.262V463.5Z" fill="white"/>
<path d="M284.475 463.5H280.681V432H284.475V463.5Z" fill="white"/>
<path d="M289.561 452.2C289.561 450.026 289.984 448.071 290.832 446.335C291.693 444.599 292.883 443.259 294.4 442.315C295.932 441.372 297.675 440.9 299.63 440.9C302.651 440.9 305.092 441.946 306.951 444.038C308.824 446.13 309.761 448.912 309.761 452.385V452.651C309.761 454.812 309.344 456.753 308.51 458.476C307.689 460.185 306.507 461.518 304.962 462.475C303.431 463.432 301.667 463.91 299.671 463.91C296.663 463.91 294.223 462.864 292.35 460.772C290.49 458.681 289.561 455.912 289.561 452.467V452.2ZM293.375 452.651C293.375 455.112 293.942 457.088 295.077 458.578C296.226 460.068 297.757 460.813 299.671 460.813C301.599 460.813 303.13 460.062 304.265 458.558C305.399 457.04 305.967 454.921 305.967 452.2C305.967 449.767 305.386 447.798 304.224 446.294C303.075 444.776 301.544 444.018 299.63 444.018C297.757 444.018 296.246 444.763 295.098 446.253C293.949 447.743 293.375 449.876 293.375 452.651Z" fill="white"/>
<path d="M334.145 463.91C331.137 463.91 328.689 462.926 326.803 460.957C324.916 458.975 323.973 456.329 323.973 453.021V452.323C323.973 450.122 324.39 448.16 325.224 446.438C326.071 444.701 327.247 443.348 328.751 442.377C330.269 441.393 331.909 440.9 333.673 440.9C336.558 440.9 338.8 441.851 340.399 443.751C341.999 445.651 342.799 448.372 342.799 451.913V453.492H327.767C327.821 455.68 328.457 457.45 329.674 458.804C330.904 460.144 332.463 460.813 334.35 460.813C335.689 460.813 336.824 460.54 337.754 459.993C338.684 459.446 339.497 458.722 340.194 457.819L342.512 459.624C340.652 462.481 337.863 463.91 334.145 463.91ZM333.673 444.018C332.142 444.018 330.856 444.578 329.817 445.699C328.778 446.807 328.136 448.365 327.89 450.375H339.005V450.088C338.896 448.16 338.376 446.67 337.446 445.617C336.517 444.551 335.259 444.018 333.673 444.018Z" fill="white"/>
<path d="M360.128 457.614C360.128 456.589 359.738 455.796 358.959 455.235C358.193 454.661 356.847 454.169 354.919 453.759C353.005 453.349 351.48 452.856 350.346 452.282C349.225 451.708 348.391 451.024 347.844 450.231C347.311 449.438 347.044 448.495 347.044 447.401C347.044 445.583 347.81 444.045 349.341 442.787C350.886 441.529 352.854 440.9 355.247 440.9C357.763 440.9 359.8 441.55 361.358 442.849C362.931 444.147 363.717 445.809 363.717 447.832H359.902C359.902 446.793 359.458 445.897 358.569 445.146C357.694 444.394 356.587 444.018 355.247 444.018C353.866 444.018 352.786 444.318 352.007 444.92C351.228 445.521 350.838 446.308 350.838 447.278C350.838 448.194 351.2 448.885 351.925 449.35C352.649 449.814 353.955 450.259 355.842 450.683C357.742 451.106 359.28 451.612 360.456 452.2C361.632 452.788 362.5 453.499 363.061 454.333C363.635 455.153 363.922 456.158 363.922 457.348C363.922 459.33 363.129 460.923 361.543 462.126C359.957 463.315 357.899 463.91 355.37 463.91C353.593 463.91 352.021 463.596 350.653 462.967C349.286 462.338 348.213 461.463 347.434 460.342C346.668 459.207 346.285 457.983 346.285 456.671H350.079C350.147 457.942 350.653 458.954 351.597 459.706C352.554 460.444 353.812 460.813 355.37 460.813C356.806 460.813 357.954 460.526 358.815 459.952C359.69 459.364 360.128 458.585 360.128 457.614Z" fill="white"/>
<path d="M374.012 435.938V441.311H378.154V444.243H374.012V458.004C374.012 458.893 374.196 459.562 374.565 460.014C374.935 460.451 375.563 460.67 376.452 460.67C376.89 460.67 377.491 460.588 378.257 460.424V463.5C377.259 463.773 376.288 463.91 375.345 463.91C373.649 463.91 372.371 463.397 371.51 462.372C370.648 461.347 370.218 459.891 370.218 458.004V444.243H366.178V441.311H370.218V435.938H374.012Z" fill="white"/>
<path d="M396.304 463.5C396.085 463.062 395.907 462.283 395.771 461.162C394.007 462.994 391.901 463.91 389.454 463.91C387.267 463.91 385.469 463.295 384.061 462.064C382.666 460.82 381.969 459.248 381.969 457.348C381.969 455.037 382.844 453.246 384.594 451.975C386.357 450.689 388.832 450.047 392.018 450.047H395.709V448.304C395.709 446.978 395.312 445.925 394.52 445.146C393.727 444.353 392.558 443.956 391.013 443.956C389.659 443.956 388.524 444.298 387.608 444.981C386.692 445.665 386.234 446.492 386.234 447.463H382.42C382.42 446.355 382.81 445.289 383.589 444.264C384.382 443.225 385.448 442.404 386.788 441.803C388.142 441.201 389.625 440.9 391.238 440.9C393.795 440.9 395.798 441.543 397.247 442.828C398.696 444.1 399.448 445.856 399.503 448.099V458.312C399.503 460.349 399.763 461.969 400.282 463.172V463.5H396.304ZM390.008 460.608C391.197 460.608 392.325 460.301 393.392 459.686C394.458 459.07 395.23 458.271 395.709 457.286V452.733H392.735C388.087 452.733 385.763 454.094 385.763 456.814C385.763 458.004 386.159 458.934 386.952 459.604C387.745 460.273 388.764 460.608 390.008 460.608Z" fill="white"/>
<path d="M425.076 463.91C422.068 463.91 419.621 462.926 417.734 460.957C415.848 458.975 414.904 456.329 414.904 453.021V452.323C414.904 450.122 415.321 448.16 416.155 446.438C417.003 444.701 418.179 443.348 419.683 442.377C421.2 441.393 422.841 440.9 424.604 440.9C427.489 440.9 429.731 441.851 431.331 443.751C432.931 445.651 433.73 448.372 433.73 451.913V453.492H418.698C418.753 455.68 419.389 457.45 420.605 458.804C421.836 460.144 423.395 460.813 425.281 460.813C426.621 460.813 427.756 460.54 428.686 459.993C429.615 459.446 430.429 458.722 431.126 457.819L433.443 459.624C431.584 462.481 428.795 463.91 425.076 463.91ZM424.604 444.018C423.073 444.018 421.788 444.578 420.749 445.699C419.71 446.807 419.067 448.365 418.821 450.375H429.937V450.088C429.827 448.16 429.308 446.67 428.378 445.617C427.448 444.551 426.19 444.018 424.604 444.018Z" fill="white"/>
<path d="M441.729 441.311L441.852 444.1C443.547 441.967 445.762 440.9 448.496 440.9C453.186 440.9 455.551 443.546 455.592 448.837V463.5H451.798V448.816C451.784 447.217 451.415 446.034 450.69 445.269C449.979 444.503 448.865 444.12 447.348 444.12C446.117 444.12 445.037 444.448 444.107 445.104C443.178 445.761 442.453 446.622 441.934 447.688V463.5H438.14V441.311H441.729Z" fill="white"/>
<path d="M488.814 455.707H476.305L473.495 463.5H469.435L480.837 433.641H484.282L495.705 463.5H491.665L488.814 455.707ZM477.494 452.467H487.646L482.56 438.501L477.494 452.467Z" fill="white"/>
</g>
</g>
</svg>
