<svg viewBox="0 0 952 555" fill="none" xmlns="http://www.w3.org/2000/svg">
    <g id="0131203">
        <g id="primero">
            <g id="Group 115">
                <path id="Rectangle 18 (Stroke)" fill-rule="evenodd" clip-rule="evenodd"
                    d="M710 92H4V177.5H710V92ZM710 88H4V4H710V88ZM714 92V177.5H828V92H714ZM828 88H714V4H828V88ZM832 92V177.5H948V92H832ZM948 88H832V4H948V88ZM952 450H0V0H952V450ZM4 181.5V269.103C5.35786 269.029 7.01812 268.959 8.96529 268.891C14.2568 268.709 21.7287 268.547 31.1458 268.405C49.9832 268.121 76.6453 267.913 109.305 267.77C174.627 267.484 263.966 267.456 362.74 267.587C473.479 267.735 596.08 268.082 710 268.491V181.5H4ZM714 181.5V268.506C753.352 268.648 791.636 268.797 828 268.948V181.5H714ZM832 181.5V268.964C873.684 269.138 912.783 269.313 948 269.481V181.5H832ZM948 273.481C912.783 273.313 873.684 273.138 832 272.964V358.75H948V273.481ZM948 362.75H832V446H948V362.75ZM828 446V362.75H714V446H828ZM710 446V362.75H4V446H710ZM4 358.75H710V272.491C596.079 272.082 473.474 271.735 362.735 271.587C263.963 271.456 174.633 271.484 109.323 271.77C76.6666 271.913 50.0217 272.121 31.2062 272.405C21.7968 272.547 14.3556 272.708 9.10331 272.889C7.05824 272.96 5.35427 273.033 4 273.109V358.75ZM714 272.506V358.75H828V272.948C791.636 272.797 753.353 272.648 714 272.506Z"
                    fill="#13EBF9" />
                <g id="Enunciado">
                    <path
                        d="M252.344 47.1982H239.403V57.7803H254.436V61H235.466V31.1406H254.23V34.3809H239.403V43.9785H252.344V47.1982Z"
                        fill="#13EBF9" />
                    <path
                        d="M262.331 38.8105L262.454 41.5996C264.149 39.4668 266.364 38.4004 269.099 38.4004C273.788 38.4004 276.153 41.0459 276.194 46.3369V61H272.4V46.3164C272.387 44.7168 272.018 43.5342 271.293 42.7686C270.582 42.0029 269.468 41.6201 267.95 41.6201C266.72 41.6201 265.64 41.9482 264.71 42.6045C263.78 43.2607 263.056 44.1221 262.536 45.1885V61H258.742V38.8105H262.331Z"
                        fill="#13EBF9" />
                    <path
                        d="M295.615 58.8057C294.139 60.542 291.972 61.4102 289.114 61.4102C286.749 61.4102 284.944 60.7266 283.7 59.3594C282.47 57.9785 281.848 55.9414 281.834 53.248V38.8105H285.628V53.1455C285.628 56.5088 286.995 58.1904 289.729 58.1904C292.628 58.1904 294.556 57.1104 295.513 54.9502V38.8105H299.307V61H295.697L295.615 58.8057Z"
                        fill="#13EBF9" />
                    <path
                        d="M308.679 38.8105L308.802 41.5996C310.497 39.4668 312.712 38.4004 315.446 38.4004C320.136 38.4004 322.501 41.0459 322.542 46.3369V61H318.748V46.3164C318.734 44.7168 318.365 43.5342 317.641 42.7686C316.93 42.0029 315.815 41.6201 314.298 41.6201C313.067 41.6201 311.987 41.9482 311.058 42.6045C310.128 43.2607 309.403 44.1221 308.884 45.1885V61H305.09V38.8105H308.679Z"
                        fill="#13EBF9" />
                    <path
                        d="M337.164 58.3135C338.518 58.3135 339.7 57.9033 340.712 57.083C341.724 56.2627 342.284 55.2373 342.394 54.0068H345.982C345.914 55.2783 345.477 56.4883 344.67 57.6367C343.863 58.7852 342.783 59.7012 341.43 60.3848C340.09 61.0684 338.668 61.4102 337.164 61.4102C334.143 61.4102 331.736 60.4053 329.945 58.3955C328.168 56.3721 327.279 53.6104 327.279 50.1104V49.4746C327.279 47.3145 327.676 45.3936 328.469 43.7119C329.262 42.0303 330.396 40.7246 331.873 39.7949C333.363 38.8652 335.12 38.4004 337.144 38.4004C339.632 38.4004 341.696 39.1455 343.337 40.6357C344.991 42.126 345.873 44.0605 345.982 46.4395H342.394C342.284 45.0039 341.737 43.8281 340.753 42.9121C339.782 41.9824 338.579 41.5176 337.144 41.5176C335.216 41.5176 333.719 42.2148 332.652 43.6094C331.6 44.9902 331.073 46.9932 331.073 49.6182V50.3359C331.073 52.8926 331.6 54.8613 332.652 56.2422C333.705 57.623 335.209 58.3135 337.164 58.3135Z"
                        fill="#13EBF9" />
                    <path
                        d="M354.37 61H350.576V38.8105H354.37V61ZM350.269 32.9248C350.269 32.3096 350.453 31.79 350.822 31.3662C351.205 30.9424 351.766 30.7305 352.504 30.7305C353.242 30.7305 353.803 30.9424 354.186 31.3662C354.568 31.79 354.76 32.3096 354.76 32.9248C354.76 33.54 354.568 34.0527 354.186 34.4629C353.803 34.873 353.242 35.0781 352.504 35.0781C351.766 35.0781 351.205 34.873 350.822 34.4629C350.453 34.0527 350.269 33.54 350.269 32.9248Z"
                        fill="#13EBF9" />
                    <path
                        d="M374.16 61C373.941 60.5625 373.764 59.7832 373.627 58.6621C371.863 60.4941 369.758 61.4102 367.311 61.4102C365.123 61.4102 363.325 60.7949 361.917 59.5645C360.522 58.3203 359.825 56.748 359.825 54.8477C359.825 52.5371 360.7 50.7461 362.45 49.4746C364.214 48.1895 366.688 47.5469 369.874 47.5469H373.565V45.8037C373.565 44.4775 373.169 43.4248 372.376 42.6455C371.583 41.8525 370.414 41.4561 368.869 41.4561C367.516 41.4561 366.381 41.7979 365.465 42.4814C364.549 43.165 364.091 43.9922 364.091 44.9629H360.276C360.276 43.8555 360.666 42.7891 361.445 41.7637C362.238 40.7246 363.305 39.9043 364.645 39.3027C365.998 38.7012 367.481 38.4004 369.095 38.4004C371.651 38.4004 373.654 39.043 375.104 40.3281C376.553 41.5996 377.305 43.3564 377.359 45.5986V55.8115C377.359 57.8486 377.619 59.4688 378.139 60.6719V61H374.16ZM367.864 58.1084C369.054 58.1084 370.182 57.8008 371.248 57.1855C372.314 56.5703 373.087 55.7705 373.565 54.7861V50.2334H370.592C365.943 50.2334 363.619 51.5938 363.619 54.3145C363.619 55.5039 364.016 56.4336 364.809 57.1035C365.602 57.7734 366.62 58.1084 367.864 58.1084Z"
                        fill="#13EBF9" />
                    <path
                        d="M382.384 49.7207C382.384 46.3164 383.19 43.582 384.804 41.5176C386.417 39.4395 388.529 38.4004 391.141 38.4004C393.738 38.4004 395.796 39.2891 397.313 41.0664V29.5H401.107V61H397.621L397.437 58.6211C395.919 60.4805 393.807 61.4102 391.1 61.4102C388.529 61.4102 386.431 60.3574 384.804 58.252C383.19 56.1465 382.384 53.3984 382.384 50.0078V49.7207ZM386.178 50.1514C386.178 52.667 386.697 54.6357 387.736 56.0576C388.775 57.4795 390.211 58.1904 392.043 58.1904C394.449 58.1904 396.206 57.1104 397.313 54.9502V44.7578C396.179 42.666 394.436 41.6201 392.084 41.6201C390.225 41.6201 388.775 42.3379 387.736 43.7734C386.697 45.209 386.178 47.335 386.178 50.1514Z"
                        fill="#13EBF9" />
                    <path
                        d="M406.009 49.7002C406.009 47.5264 406.433 45.5713 407.28 43.835C408.142 42.0986 409.331 40.7588 410.849 39.8154C412.38 38.8721 414.123 38.4004 416.078 38.4004C419.1 38.4004 421.54 39.4463 423.399 41.5381C425.272 43.6299 426.209 46.4121 426.209 49.8848V50.1514C426.209 52.3115 425.792 54.2529 424.958 55.9756C424.138 57.6846 422.955 59.0176 421.41 59.9746C419.879 60.9316 418.115 61.4102 416.119 61.4102C413.111 61.4102 410.671 60.3643 408.798 58.2725C406.938 56.1807 406.009 53.4121 406.009 49.9668V49.7002ZM409.823 50.1514C409.823 52.6123 410.391 54.5879 411.525 56.0781C412.674 57.5684 414.205 58.3135 416.119 58.3135C418.047 58.3135 419.578 57.5615 420.713 56.0576C421.848 54.54 422.415 52.4209 422.415 49.7002C422.415 47.2666 421.834 45.2979 420.672 43.7939C419.523 42.2764 417.992 41.5176 416.078 41.5176C414.205 41.5176 412.694 42.2627 411.546 43.7529C410.397 45.2432 409.823 47.376 409.823 50.1514Z"
                        fill="#13EBF9" />
                </g>
                <g id="1&#194;&#176;">
                    <path d="M774.95 61H771.136V35.7139L763.486 38.5234V35.0781L774.355 30.9971H774.95V61Z"
                        fill="#13EBF9" />
                    <path
                        d="M786.25 36.0625C786.25 34.6406 786.756 33.3965 787.768 32.3301C788.793 31.2637 790.03 30.7305 791.479 30.7305C792.901 30.7305 794.111 31.2637 795.109 32.3301C796.121 33.3828 796.627 34.627 796.627 36.0625C796.627 37.5117 796.121 38.749 795.109 39.7744C794.111 40.7998 792.901 41.3125 791.479 41.3125C790.044 41.3125 788.813 40.7998 787.788 39.7744C786.763 38.749 786.25 37.5117 786.25 36.0625ZM791.479 38.6875C792.218 38.6875 792.84 38.4482 793.346 37.9697C793.852 37.4775 794.104 36.8418 794.104 36.0625C794.104 35.2695 793.852 34.6201 793.346 34.1143C792.84 33.5947 792.218 33.335 791.479 33.335C790.728 33.335 790.092 33.6084 789.572 34.1553C789.066 34.6885 788.813 35.3242 788.813 36.0625C788.813 36.8008 789.066 37.4229 789.572 37.9287C790.092 38.4346 790.728 38.6875 791.479 38.6875Z"
                        fill="#13EBF9" />
                </g>
                <g id="2&#194;&#176;">
                    <path
                        d="M902.046 61H882.481V58.2725L892.817 46.7881C894.349 45.0518 895.401 43.6436 895.976 42.5635C896.563 41.4697 896.857 40.3418 896.857 39.1797C896.857 37.6211 896.386 36.3428 895.442 35.3447C894.499 34.3467 893.241 33.8477 891.669 33.8477C889.782 33.8477 888.312 34.3877 887.26 35.4678C886.221 36.5342 885.701 38.0244 885.701 39.9385H881.907C881.907 37.1904 882.789 34.9688 884.553 33.2734C886.33 31.5781 888.702 30.7305 891.669 30.7305C894.444 30.7305 896.639 31.4619 898.252 32.9248C899.865 34.374 900.672 36.3086 900.672 38.7285C900.672 41.668 898.799 45.168 895.053 49.2285L887.055 57.9033H902.046V61Z"
                        fill="#13EBF9" />
                    <path
                        d="M906.25 36.0625C906.25 34.6406 906.756 33.3965 907.768 32.3301C908.793 31.2637 910.03 30.7305 911.479 30.7305C912.901 30.7305 914.111 31.2637 915.109 32.3301C916.121 33.3828 916.627 34.627 916.627 36.0625C916.627 37.5117 916.121 38.749 915.109 39.7744C914.111 40.7998 912.901 41.3125 911.479 41.3125C910.044 41.3125 908.813 40.7998 907.788 39.7744C906.763 38.749 906.25 37.5117 906.25 36.0625ZM911.479 38.6875C912.218 38.6875 912.84 38.4482 913.346 37.9697C913.852 37.4775 914.104 36.8418 914.104 36.0625C914.104 35.2695 913.852 34.6201 913.346 34.1143C912.84 33.5947 912.218 33.335 911.479 33.335C910.728 33.335 910.092 33.6084 909.572 34.1553C909.066 34.6885 908.813 35.3242 908.813 36.0625C908.813 36.8008 909.066 37.4229 909.572 37.9287C910.092 38.4346 910.728 38.6875 911.479 38.6875Z"
                        fill="#13EBF9" />
                </g>
            </g>
            <g id="Group 123">
                <g id="Marco: Yo tengo 15 a&#195;&#177;os.">
                    <path
                        d="M39.1758 118.406L45.75 136.969L52.2891 118.406H59.2148V144H53.9238V137.004L54.4512 124.928L47.543 144H43.9219L37.0312 124.945L37.5586 137.004V144H32.2852V118.406H39.1758Z"
                        fill="white" />
                    <path
                        d="M76.3078 144C76.0734 143.543 75.9035 142.975 75.798 142.295C74.5676 143.666 72.968 144.352 70.9992 144.352C69.1359 144.352 67.5891 143.812 66.3586 142.734C65.1398 141.656 64.5305 140.297 64.5305 138.656C64.5305 136.641 65.2746 135.094 66.7629 134.016C68.2629 132.938 70.425 132.393 73.2492 132.381H75.5871V131.291C75.5871 130.412 75.3586 129.709 74.9016 129.182C74.4562 128.654 73.7473 128.391 72.7746 128.391C71.9191 128.391 71.2453 128.596 70.7531 129.006C70.2727 129.416 70.0324 129.979 70.0324 130.693H64.9523C64.9523 129.592 65.2922 128.572 65.9719 127.635C66.6516 126.697 67.6125 125.965 68.8547 125.438C70.0969 124.898 71.4914 124.629 73.0383 124.629C75.382 124.629 77.2395 125.221 78.6105 126.404C79.9934 127.576 80.6848 129.229 80.6848 131.361V139.605C80.6965 141.41 80.9484 142.775 81.4406 143.701V144H76.3078ZM72.1066 140.467C72.8566 140.467 73.548 140.303 74.1809 139.975C74.8137 139.635 75.2824 139.184 75.5871 138.621V135.352H73.6887C71.1457 135.352 69.7922 136.23 69.6281 137.988L69.6105 138.287C69.6105 138.92 69.8332 139.441 70.2785 139.852C70.7238 140.262 71.3332 140.467 72.1066 140.467Z"
                        fill="white" />
                    <path
                        d="M97.0746 129.744C96.3832 129.65 95.7738 129.604 95.2465 129.604C93.3246 129.604 92.0648 130.254 91.4672 131.555V144H86.3871V124.98H91.1859L91.3266 127.248C92.3461 125.502 93.7582 124.629 95.5629 124.629C96.1254 124.629 96.6527 124.705 97.1449 124.857L97.0746 129.744Z"
                        fill="white" />
                    <path
                        d="M108.894 140.256C109.832 140.256 110.593 139.998 111.179 139.482C111.765 138.967 112.07 138.281 112.093 137.426H116.857C116.845 138.715 116.494 139.898 115.802 140.977C115.111 142.043 114.162 142.875 112.955 143.473C111.759 144.059 110.435 144.352 108.982 144.352C106.263 144.352 104.119 143.49 102.548 141.768C100.978 140.033 100.193 137.643 100.193 134.596V134.262C100.193 131.332 100.972 128.994 102.531 127.248C104.089 125.502 106.228 124.629 108.947 124.629C111.326 124.629 113.23 125.309 114.66 126.668C116.101 128.016 116.834 129.814 116.857 132.064H112.093C112.07 131.08 111.765 130.283 111.179 129.674C110.593 129.053 109.82 128.742 108.859 128.742C107.675 128.742 106.779 129.176 106.17 130.043C105.572 130.898 105.273 132.293 105.273 134.227V134.754C105.273 136.711 105.572 138.117 106.17 138.973C106.767 139.828 107.675 140.256 108.894 140.256Z"
                        fill="white" />
                    <path
                        d="M120.766 134.314C120.766 132.428 121.13 130.746 121.856 129.27C122.583 127.793 123.626 126.65 124.985 125.842C126.356 125.033 127.944 124.629 129.749 124.629C132.315 124.629 134.407 125.414 136.024 126.984C137.653 128.555 138.561 130.688 138.749 133.383L138.784 134.684C138.784 137.602 137.97 139.945 136.341 141.715C134.712 143.473 132.526 144.352 129.784 144.352C127.042 144.352 124.85 143.473 123.21 141.715C121.581 139.957 120.766 137.566 120.766 134.543V134.314ZM125.846 134.684C125.846 136.488 126.186 137.871 126.866 138.832C127.546 139.781 128.518 140.256 129.784 140.256C131.014 140.256 131.975 139.787 132.667 138.85C133.358 137.9 133.704 136.389 133.704 134.314C133.704 132.545 133.358 131.174 132.667 130.201C131.975 129.229 131.003 128.742 129.749 128.742C128.507 128.742 127.546 129.229 126.866 130.201C126.186 131.162 125.846 132.656 125.846 134.684Z"
                        fill="white" />
                    <path
                        d="M143.959 141.504C143.959 140.695 144.229 140.039 144.768 139.535C145.318 139.031 146.004 138.779 146.824 138.779C147.656 138.779 148.342 139.031 148.881 139.535C149.432 140.039 149.707 140.695 149.707 141.504C149.707 142.301 149.438 142.951 148.898 143.455C148.359 143.947 147.668 144.193 146.824 144.193C145.992 144.193 145.307 143.947 144.768 143.455C144.229 142.951 143.959 142.301 143.959 141.504ZM143.959 127.107C143.959 126.299 144.229 125.643 144.768 125.139C145.318 124.635 146.004 124.383 146.824 124.383C147.656 124.383 148.342 124.635 148.881 125.139C149.432 125.643 149.707 126.299 149.707 127.107C149.707 127.904 149.438 128.555 148.898 129.059C148.359 129.551 147.668 129.797 146.824 129.797C145.992 129.797 145.307 129.551 144.768 129.059C144.229 128.555 143.959 127.904 143.959 127.107Z"
                        fill="white" />
                    <path
                        d="M175.227 131.256L181.907 118.406H185.739L176.914 134.455V144H173.539V134.455L164.715 118.406H168.582L175.227 131.256Z"
                        fill="white" />
                    <path
                        d="M188.312 134.314C188.312 132.451 188.675 130.775 189.402 129.287C190.14 127.799 191.16 126.65 192.461 125.842C193.773 125.033 195.267 124.629 196.943 124.629C199.533 124.629 201.625 125.525 203.218 127.318C204.824 129.111 205.627 131.496 205.627 134.473V134.701C205.627 136.553 205.269 138.217 204.554 139.693C203.851 141.158 202.837 142.301 201.513 143.121C200.201 143.941 198.689 144.352 196.978 144.352C194.4 144.352 192.308 143.455 190.703 141.662C189.109 139.869 188.312 137.496 188.312 134.543V134.314ZM191.582 134.701C191.582 136.811 192.068 138.504 193.041 139.781C194.025 141.059 195.337 141.697 196.978 141.697C198.63 141.697 199.943 141.053 200.916 139.764C201.888 138.463 202.375 136.646 202.375 134.314C202.375 132.229 201.877 130.541 200.88 129.252C199.896 127.951 198.584 127.301 196.943 127.301C195.337 127.301 194.043 127.939 193.058 129.217C192.074 130.494 191.582 132.322 191.582 134.701Z"
                        fill="white" />
                    <path
                        d="M226.646 120.375V124.98H230.197V127.494H226.646V139.289C226.646 140.051 226.805 140.625 227.121 141.012C227.438 141.387 227.977 141.574 228.738 141.574C229.113 141.574 229.629 141.504 230.285 141.363V144C229.43 144.234 228.598 144.352 227.789 144.352C226.336 144.352 225.24 143.912 224.502 143.033C223.764 142.154 223.395 140.906 223.395 139.289V127.494H219.932V124.98H223.395V120.375H226.646Z"
                        fill="white" />
                    <path
                        d="M243.704 144.352C241.126 144.352 239.029 143.508 237.411 141.82C235.794 140.121 234.986 137.854 234.986 135.018V134.42C234.986 132.533 235.343 130.852 236.058 129.375C236.784 127.887 237.792 126.727 239.081 125.895C240.382 125.051 241.788 124.629 243.3 124.629C245.773 124.629 247.695 125.443 249.066 127.072C250.437 128.701 251.122 131.033 251.122 134.068V135.422H238.238C238.284 137.297 238.829 138.814 239.872 139.975C240.927 141.123 242.263 141.697 243.88 141.697C245.029 141.697 246.001 141.463 246.798 140.994C247.595 140.525 248.292 139.904 248.89 139.131L250.876 140.678C249.282 143.127 246.892 144.352 243.704 144.352ZM243.3 127.301C241.988 127.301 240.886 127.781 239.995 128.742C239.105 129.691 238.554 131.027 238.343 132.75H247.87V132.504C247.777 130.852 247.331 129.574 246.534 128.672C245.738 127.758 244.659 127.301 243.3 127.301Z"
                        fill="white" />
                    <path
                        d="M259.778 124.98L259.883 127.371C261.336 125.543 263.235 124.629 265.579 124.629C269.598 124.629 271.625 126.896 271.661 131.432V144H268.409V131.414C268.397 130.043 268.08 129.029 267.459 128.373C266.85 127.717 265.895 127.389 264.594 127.389C263.539 127.389 262.614 127.67 261.817 128.232C261.02 128.795 260.399 129.533 259.954 130.447V144H256.702V124.98H259.778Z"
                        fill="white" />
                    <path
                        d="M277.591 134.332C277.591 131.367 278.277 129.012 279.648 127.266C281.019 125.508 282.836 124.629 285.097 124.629C287.418 124.629 289.228 125.449 290.529 127.09L290.687 124.98H293.658V143.543C293.658 146.004 292.925 147.943 291.461 149.361C290.007 150.779 288.05 151.488 285.589 151.488C284.218 151.488 282.877 151.195 281.564 150.609C280.252 150.023 279.25 149.221 278.558 148.201L280.246 146.25C281.64 147.973 283.345 148.834 285.361 148.834C286.943 148.834 288.173 148.389 289.052 147.498C289.943 146.607 290.388 145.354 290.388 143.736V142.102C289.087 143.602 287.312 144.352 285.062 144.352C282.836 144.352 281.031 143.455 279.648 141.662C278.277 139.869 277.591 137.426 277.591 134.332ZM280.861 134.701C280.861 136.846 281.3 138.533 282.179 139.764C283.058 140.982 284.289 141.592 285.871 141.592C287.921 141.592 289.427 140.66 290.388 138.797V130.113C289.392 128.297 287.898 127.389 285.906 127.389C284.324 127.389 283.087 128.004 282.197 129.234C281.306 130.465 280.861 132.287 280.861 134.701Z"
                        fill="white" />
                    <path
                        d="M299.518 134.314C299.518 132.451 299.882 130.775 300.608 129.287C301.346 127.799 302.366 126.65 303.667 125.842C304.979 125.033 306.473 124.629 308.149 124.629C310.739 124.629 312.831 125.525 314.425 127.318C316.03 129.111 316.833 131.496 316.833 134.473V134.701C316.833 136.553 316.475 138.217 315.761 139.693C315.057 141.158 314.044 142.301 312.72 143.121C311.407 143.941 309.895 144.352 308.184 144.352C305.606 144.352 303.514 143.455 301.909 141.662C300.315 139.869 299.518 137.496 299.518 134.543V134.314ZM302.788 134.701C302.788 136.811 303.274 138.504 304.247 139.781C305.231 141.059 306.544 141.697 308.184 141.697C309.837 141.697 311.149 141.053 312.122 139.764C313.095 138.463 313.581 136.646 313.581 134.314C313.581 132.229 313.083 130.541 312.087 129.252C311.102 127.951 309.79 127.301 308.149 127.301C306.544 127.301 305.249 127.939 304.264 129.217C303.28 130.494 302.788 132.322 302.788 134.701Z"
                        fill="white" />
                    <path d="M343.794 144H340.525V122.326L333.968 124.734V121.781L343.284 118.283H343.794V144Z"
                        fill="white" />
                    <path
                        d="M356.616 131.168L357.916 118.406H371.03V121.412H360.676L359.903 128.391C361.157 127.652 362.58 127.283 364.174 127.283C366.506 127.283 368.358 128.057 369.729 129.604C371.1 131.139 371.786 133.219 371.786 135.844C371.786 138.48 371.071 140.561 369.641 142.084C368.223 143.596 366.237 144.352 363.682 144.352C361.42 144.352 359.575 143.725 358.145 142.471C356.715 141.217 355.901 139.482 355.702 137.268H358.778C358.977 138.732 359.498 139.84 360.342 140.59C361.186 141.328 362.299 141.697 363.682 141.697C365.194 141.697 366.377 141.182 367.233 140.15C368.1 139.119 368.534 137.695 368.534 135.879C368.534 134.168 368.065 132.797 367.127 131.766C366.202 130.723 364.965 130.201 363.418 130.201C362 130.201 360.887 130.512 360.079 131.133L359.217 131.836L356.616 131.168Z"
                        fill="white" />
                    <path
                        d="M399.942 144C399.755 143.625 399.602 142.957 399.485 141.996C397.973 143.566 396.169 144.352 394.071 144.352C392.196 144.352 390.655 143.824 389.448 142.77C388.253 141.703 387.655 140.355 387.655 138.727C387.655 136.746 388.405 135.211 389.905 134.121C391.417 133.02 393.538 132.469 396.268 132.469H399.432V130.975C399.432 129.838 399.093 128.936 398.413 128.268C397.733 127.588 396.731 127.248 395.407 127.248C394.247 127.248 393.274 127.541 392.489 128.127C391.704 128.713 391.311 129.422 391.311 130.254H388.042C388.042 129.305 388.376 128.391 389.044 127.512C389.723 126.621 390.638 125.918 391.786 125.402C392.946 124.887 394.218 124.629 395.6 124.629C397.792 124.629 399.509 125.18 400.751 126.281C401.993 127.371 402.638 128.877 402.684 130.799V139.553C402.684 141.299 402.907 142.688 403.352 143.719V144H399.942ZM394.546 141.521C395.565 141.521 396.532 141.258 397.446 140.73C398.36 140.203 399.022 139.518 399.432 138.674V134.771H396.884C392.899 134.771 390.907 135.938 390.907 138.27C390.907 139.289 391.247 140.086 391.927 140.66C392.606 141.234 393.479 141.521 394.546 141.521Z"
                        fill="white" />
                    <path
                        d="M412.658 124.98L412.764 127.371C414.217 125.543 416.115 124.629 418.459 124.629C422.479 124.629 424.506 126.896 424.541 131.432V144H421.289V131.414C421.277 130.043 420.961 129.029 420.34 128.373C419.73 127.717 418.775 127.389 417.475 127.389C416.42 127.389 415.494 127.67 414.697 128.232C413.9 128.795 413.279 129.533 412.834 130.447V144H409.582V124.98H412.658ZM423.416 117.562C423.416 118.828 423.053 119.854 422.326 120.639C421.611 121.424 420.715 121.816 419.637 121.816C419.156 121.816 418.74 121.758 418.389 121.641C418.037 121.523 417.574 121.283 417 120.92C416.438 120.557 416.027 120.34 415.77 120.27C415.523 120.188 415.236 120.146 414.908 120.146C414.428 120.146 414.018 120.334 413.678 120.709C413.338 121.072 413.168 121.541 413.168 122.115L410.988 121.992C410.988 120.738 411.34 119.701 412.043 118.881C412.758 118.061 413.66 117.65 414.75 117.65C415.16 117.65 415.529 117.709 415.857 117.826C416.186 117.943 416.631 118.172 417.193 118.512C417.756 118.852 418.184 119.074 418.477 119.18C418.781 119.285 419.115 119.338 419.479 119.338C419.982 119.338 420.398 119.139 420.727 118.74C421.066 118.342 421.236 117.879 421.236 117.352L423.416 117.562Z"
                        fill="white" />
                    <path
                        d="M430.384 134.314C430.384 132.451 430.747 130.775 431.474 129.287C432.212 127.799 433.232 126.65 434.532 125.842C435.845 125.033 437.339 124.629 439.015 124.629C441.605 124.629 443.696 125.525 445.29 127.318C446.896 129.111 447.698 131.496 447.698 134.473V134.701C447.698 136.553 447.341 138.217 446.626 139.693C445.923 141.158 444.909 142.301 443.585 143.121C442.273 143.941 440.761 144.352 439.05 144.352C436.472 144.352 434.38 143.455 432.775 141.662C431.181 139.869 430.384 137.496 430.384 134.543V134.314ZM433.654 134.701C433.654 136.811 434.14 138.504 435.112 139.781C436.097 141.059 437.409 141.697 439.05 141.697C440.702 141.697 442.015 141.053 442.987 139.764C443.96 138.463 444.446 136.646 444.446 134.314C444.446 132.229 443.948 130.541 442.952 129.252C441.968 127.951 440.655 127.301 439.015 127.301C437.409 127.301 436.114 127.939 435.13 129.217C434.146 130.494 433.654 132.322 433.654 134.701Z"
                        fill="white" />
                    <path
                        d="M464.651 138.955C464.651 138.076 464.317 137.396 463.649 136.916C462.993 136.424 461.838 136.002 460.186 135.65C458.545 135.299 457.239 134.877 456.266 134.385C455.305 133.893 454.59 133.307 454.121 132.627C453.664 131.947 453.436 131.139 453.436 130.201C453.436 128.643 454.092 127.324 455.405 126.246C456.729 125.168 458.416 124.629 460.467 124.629C462.623 124.629 464.37 125.186 465.705 126.299C467.053 127.412 467.727 128.836 467.727 130.57H464.457C464.457 129.68 464.077 128.912 463.315 128.268C462.565 127.623 461.616 127.301 460.467 127.301C459.284 127.301 458.358 127.559 457.69 128.074C457.022 128.59 456.688 129.264 456.688 130.096C456.688 130.881 456.998 131.473 457.62 131.871C458.241 132.27 459.36 132.65 460.977 133.014C462.606 133.377 463.924 133.811 464.932 134.314C465.94 134.818 466.684 135.428 467.164 136.143C467.657 136.846 467.903 137.707 467.903 138.727C467.903 140.426 467.223 141.791 465.864 142.822C464.504 143.842 462.741 144.352 460.573 144.352C459.049 144.352 457.702 144.082 456.53 143.543C455.358 143.004 454.438 142.254 453.77 141.293C453.114 140.32 452.786 139.271 452.786 138.146H456.038C456.096 139.236 456.53 140.104 457.338 140.748C458.159 141.381 459.237 141.697 460.573 141.697C461.803 141.697 462.788 141.451 463.526 140.959C464.276 140.455 464.651 139.787 464.651 138.955Z"
                        fill="white" />
                    <path
                        d="M474.009 142.295C474.009 141.732 474.173 141.264 474.502 140.889C474.841 140.514 475.345 140.326 476.013 140.326C476.681 140.326 477.185 140.514 477.525 140.889C477.877 141.264 478.052 141.732 478.052 142.295C478.052 142.834 477.877 143.285 477.525 143.648C477.185 144.012 476.681 144.193 476.013 144.193C475.345 144.193 474.841 144.012 474.502 143.648C474.173 143.285 474.009 142.834 474.009 142.295Z"
                        fill="white" />
                </g>
                <g id="Lucio: Yo tengo 18 a&#195;&#177;os.">
                    <path d="M37.5586 232.764H48.7559V237H32.2852V211.406H37.5586V232.764Z" fill="white" />
                    <path
                        d="M64.4074 235.066C63.1535 236.59 61.4191 237.352 59.2043 237.352C57.1652 237.352 55.6066 236.766 54.5285 235.594C53.4621 234.422 52.9172 232.705 52.8937 230.443V217.98H57.9738V230.268C57.9738 232.248 58.8762 233.238 60.6809 233.238C62.4035 233.238 63.5871 232.641 64.2316 231.445V217.98H69.3293V237H64.548L64.4074 235.066Z"
                        fill="white" />
                    <path
                        d="M82.8715 233.256C83.809 233.256 84.5707 232.998 85.1566 232.482C85.7426 231.967 86.0473 231.281 86.0707 230.426H90.8344C90.8227 231.715 90.4711 232.898 89.7797 233.977C89.0883 235.043 88.1391 235.875 86.932 236.473C85.7367 237.059 84.4125 237.352 82.9594 237.352C80.2406 237.352 78.0961 236.49 76.5258 234.768C74.9555 233.033 74.1703 230.643 74.1703 227.596V227.262C74.1703 224.332 74.9496 221.994 76.5082 220.248C78.0668 218.502 80.2055 217.629 82.9242 217.629C85.3031 217.629 87.2074 218.309 88.6371 219.668C90.0785 221.016 90.8109 222.814 90.8344 225.064H86.0707C86.0473 224.08 85.7426 223.283 85.1566 222.674C84.5707 222.053 83.7973 221.742 82.8363 221.742C81.6527 221.742 80.7562 222.176 80.1469 223.043C79.5492 223.898 79.2504 225.293 79.2504 227.227V227.754C79.2504 229.711 79.5492 231.117 80.1469 231.973C80.7445 232.828 81.6527 233.256 82.8715 233.256Z"
                        fill="white" />
                    <path
                        d="M100.896 237H95.7984V217.98H100.896V237ZM95.4996 213.059C95.4996 212.297 95.7516 211.67 96.2555 211.178C96.7711 210.686 97.4684 210.439 98.3473 210.439C99.2145 210.439 99.9059 210.686 100.421 211.178C100.937 211.67 101.195 212.297 101.195 213.059C101.195 213.832 100.931 214.465 100.404 214.957C99.8883 215.449 99.2027 215.695 98.3473 215.695C97.4918 215.695 96.8004 215.449 96.273 214.957C95.7574 214.465 95.4996 213.832 95.4996 213.059Z"
                        fill="white" />
                    <path
                        d="M106.106 227.314C106.106 225.428 106.47 223.746 107.196 222.27C107.923 220.793 108.966 219.65 110.325 218.842C111.696 218.033 113.284 217.629 115.089 217.629C117.655 217.629 119.747 218.414 121.364 219.984C122.993 221.555 123.901 223.688 124.089 226.383L124.124 227.684C124.124 230.602 123.309 232.945 121.68 234.715C120.052 236.473 117.866 237.352 115.124 237.352C112.382 237.352 110.19 236.473 108.55 234.715C106.921 232.957 106.106 230.566 106.106 227.543V227.314ZM111.186 227.684C111.186 229.488 111.526 230.871 112.206 231.832C112.886 232.781 113.858 233.256 115.124 233.256C116.354 233.256 117.315 232.787 118.007 231.85C118.698 230.9 119.044 229.389 119.044 227.314C119.044 225.545 118.698 224.174 118.007 223.201C117.315 222.229 116.343 221.742 115.089 221.742C113.846 221.742 112.886 222.229 112.206 223.201C111.526 224.162 111.186 225.656 111.186 227.684Z"
                        fill="white" />
                    <path
                        d="M129.299 234.504C129.299 233.695 129.568 233.039 130.107 232.535C130.658 232.031 131.344 231.779 132.164 231.779C132.996 231.779 133.682 232.031 134.221 232.535C134.771 233.039 135.047 233.695 135.047 234.504C135.047 235.301 134.777 235.951 134.238 236.455C133.699 236.947 133.008 237.193 132.164 237.193C131.332 237.193 130.646 236.947 130.107 236.455C129.568 235.951 129.299 235.301 129.299 234.504ZM129.299 220.107C129.299 219.299 129.568 218.643 130.107 218.139C130.658 217.635 131.344 217.383 132.164 217.383C132.996 217.383 133.682 217.635 134.221 218.139C134.771 218.643 135.047 219.299 135.047 220.107C135.047 220.904 134.777 221.555 134.238 222.059C133.699 222.551 133.008 222.797 132.164 222.797C131.332 222.797 130.646 222.551 130.107 222.059C129.568 221.555 129.299 220.904 129.299 220.107Z"
                        fill="white" />
                    <path
                        d="M160.567 224.256L167.246 211.406H171.079L162.254 227.455V237H158.879V227.455L150.055 211.406H153.922L160.567 224.256Z"
                        fill="white" />
                    <path
                        d="M173.652 227.314C173.652 225.451 174.015 223.775 174.742 222.287C175.48 220.799 176.5 219.65 177.8 218.842C179.113 218.033 180.607 217.629 182.283 217.629C184.873 217.629 186.964 218.525 188.558 220.318C190.164 222.111 190.966 224.496 190.966 227.473V227.701C190.966 229.553 190.609 231.217 189.894 232.693C189.191 234.158 188.177 235.301 186.853 236.121C185.541 236.941 184.029 237.352 182.318 237.352C179.74 237.352 177.648 236.455 176.043 234.662C174.449 232.869 173.652 230.496 173.652 227.543V227.314ZM176.921 227.701C176.921 229.811 177.408 231.504 178.38 232.781C179.365 234.059 180.677 234.697 182.318 234.697C183.97 234.697 185.283 234.053 186.255 232.764C187.228 231.463 187.714 229.646 187.714 227.314C187.714 225.229 187.216 223.541 186.22 222.252C185.236 220.951 183.923 220.301 182.283 220.301C180.677 220.301 179.382 220.939 178.398 222.217C177.414 223.494 176.921 225.322 176.921 227.701Z"
                        fill="white" />
                    <path
                        d="M211.986 213.375V217.98H215.537V220.494H211.986V232.289C211.986 233.051 212.145 233.625 212.461 234.012C212.777 234.387 213.316 234.574 214.078 234.574C214.453 234.574 214.969 234.504 215.625 234.363V237C214.77 237.234 213.938 237.352 213.129 237.352C211.676 237.352 210.58 236.912 209.842 236.033C209.104 235.154 208.734 233.906 208.734 232.289V220.494H205.271V217.98H208.734V213.375H211.986Z"
                        fill="white" />
                    <path
                        d="M229.044 237.352C226.466 237.352 224.368 236.508 222.751 234.82C221.134 233.121 220.325 230.854 220.325 228.018V227.42C220.325 225.533 220.683 223.852 221.398 222.375C222.124 220.887 223.132 219.727 224.421 218.895C225.722 218.051 227.128 217.629 228.64 217.629C231.113 217.629 233.034 218.443 234.405 220.072C235.777 221.701 236.462 224.033 236.462 227.068V228.422H223.577C223.624 230.297 224.169 231.814 225.212 232.975C226.267 234.123 227.603 234.697 229.22 234.697C230.368 234.697 231.341 234.463 232.138 233.994C232.935 233.525 233.632 232.904 234.23 232.131L236.216 233.678C234.622 236.127 232.232 237.352 229.044 237.352ZM228.64 220.301C227.327 220.301 226.226 220.781 225.335 221.742C224.445 222.691 223.894 224.027 223.683 225.75H233.21V225.504C233.116 223.852 232.671 222.574 231.874 221.672C231.077 220.758 229.999 220.301 228.64 220.301Z"
                        fill="white" />
                    <path
                        d="M245.118 217.98L245.223 220.371C246.676 218.543 248.575 217.629 250.918 217.629C254.938 217.629 256.965 219.896 257 224.432V237H253.748V224.414C253.737 223.043 253.42 222.029 252.799 221.373C252.19 220.717 251.235 220.389 249.934 220.389C248.879 220.389 247.954 220.67 247.157 221.232C246.36 221.795 245.739 222.533 245.293 223.447V237H242.041V217.98H245.118Z"
                        fill="white" />
                    <path
                        d="M262.931 227.332C262.931 224.367 263.617 222.012 264.988 220.266C266.359 218.508 268.175 217.629 270.437 217.629C272.757 217.629 274.568 218.449 275.869 220.09L276.027 217.98H278.998V236.543C278.998 239.004 278.265 240.943 276.8 242.361C275.347 243.779 273.39 244.488 270.929 244.488C269.558 244.488 268.216 244.195 266.904 243.609C265.591 243.023 264.589 242.221 263.898 241.201L265.586 239.25C266.98 240.973 268.685 241.834 270.701 241.834C272.283 241.834 273.513 241.389 274.392 240.498C275.283 239.607 275.728 238.354 275.728 236.736V235.102C274.427 236.602 272.652 237.352 270.402 237.352C268.175 237.352 266.371 236.455 264.988 234.662C263.617 232.869 262.931 230.426 262.931 227.332ZM266.201 227.701C266.201 229.846 266.64 231.533 267.519 232.764C268.398 233.982 269.629 234.592 271.211 234.592C273.261 234.592 274.767 233.66 275.728 231.797V223.113C274.732 221.297 273.238 220.389 271.246 220.389C269.664 220.389 268.427 221.004 267.537 222.234C266.646 223.465 266.201 225.287 266.201 227.701Z"
                        fill="white" />
                    <path
                        d="M284.858 227.314C284.858 225.451 285.221 223.775 285.948 222.287C286.686 220.799 287.706 219.65 289.007 218.842C290.319 218.033 291.813 217.629 293.489 217.629C296.079 217.629 298.171 218.525 299.764 220.318C301.37 222.111 302.173 224.496 302.173 227.473V227.701C302.173 229.553 301.815 231.217 301.1 232.693C300.397 234.158 299.384 235.301 298.059 236.121C296.747 236.941 295.235 237.352 293.524 237.352C290.946 237.352 288.854 236.455 287.249 234.662C285.655 232.869 284.858 230.496 284.858 227.543V227.314ZM288.128 227.701C288.128 229.811 288.614 231.504 289.587 232.781C290.571 234.059 291.884 234.697 293.524 234.697C295.177 234.697 296.489 234.053 297.462 232.764C298.434 231.463 298.921 229.646 298.921 227.314C298.921 225.229 298.423 223.541 297.427 222.252C296.442 220.951 295.13 220.301 293.489 220.301C291.884 220.301 290.589 220.939 289.604 222.217C288.62 223.494 288.128 225.322 288.128 227.701Z"
                        fill="white" />
                    <path d="M329.134 237H325.864V215.326L319.308 217.734V214.781L328.624 211.283H329.134V237Z"
                        fill="white" />
                    <path
                        d="M355.983 218.086C355.983 219.363 355.643 220.5 354.963 221.496C354.295 222.492 353.387 223.271 352.239 223.834C353.575 224.408 354.629 225.246 355.403 226.348C356.188 227.449 356.58 228.697 356.58 230.092C356.58 232.307 355.83 234.07 354.33 235.383C352.842 236.695 350.879 237.352 348.442 237.352C345.981 237.352 344.006 236.695 342.518 235.383C341.041 234.059 340.303 232.295 340.303 230.092C340.303 228.709 340.678 227.461 341.428 226.348C342.19 225.234 343.239 224.391 344.575 223.816C343.438 223.254 342.541 222.475 341.885 221.479C341.229 220.482 340.901 219.352 340.901 218.086C340.901 215.93 341.592 214.219 342.975 212.953C344.358 211.688 346.18 211.055 348.442 211.055C350.692 211.055 352.508 211.688 353.891 212.953C355.286 214.219 355.983 215.93 355.983 218.086ZM353.329 230.021C353.329 228.592 352.871 227.426 351.957 226.523C351.055 225.621 349.871 225.17 348.407 225.17C346.942 225.17 345.764 225.615 344.873 226.506C343.995 227.396 343.555 228.568 343.555 230.021C343.555 231.475 343.983 232.617 344.838 233.449C345.705 234.281 346.907 234.697 348.442 234.697C349.965 234.697 351.161 234.281 352.028 233.449C352.895 232.605 353.329 231.463 353.329 230.021ZM348.442 213.727C347.164 213.727 346.127 214.125 345.33 214.922C344.545 215.707 344.153 216.779 344.153 218.139C344.153 219.439 344.539 220.494 345.313 221.303C346.098 222.1 347.141 222.498 348.442 222.498C349.743 222.498 350.78 222.1 351.553 221.303C352.338 220.494 352.731 219.439 352.731 218.139C352.731 216.838 352.327 215.777 351.518 214.957C350.709 214.137 349.684 213.727 348.442 213.727Z"
                        fill="white" />
                    <path
                        d="M385.282 237C385.095 236.625 384.942 235.957 384.825 234.996C383.313 236.566 381.509 237.352 379.411 237.352C377.536 237.352 375.995 236.824 374.788 235.77C373.593 234.703 372.995 233.355 372.995 231.727C372.995 229.746 373.745 228.211 375.245 227.121C376.757 226.02 378.878 225.469 381.608 225.469H384.772V223.975C384.772 222.838 384.432 221.936 383.753 221.268C383.073 220.588 382.071 220.248 380.747 220.248C379.587 220.248 378.614 220.541 377.829 221.127C377.044 221.713 376.651 222.422 376.651 223.254H373.382C373.382 222.305 373.716 221.391 374.384 220.512C375.063 219.621 375.977 218.918 377.126 218.402C378.286 217.887 379.557 217.629 380.94 217.629C383.132 217.629 384.848 218.18 386.091 219.281C387.333 220.371 387.977 221.877 388.024 223.799V232.553C388.024 234.299 388.247 235.688 388.692 236.719V237H385.282ZM379.886 234.521C380.905 234.521 381.872 234.258 382.786 233.73C383.7 233.203 384.362 232.518 384.772 231.674V227.771H382.223C378.239 227.771 376.247 228.938 376.247 231.27C376.247 232.289 376.587 233.086 377.266 233.66C377.946 234.234 378.819 234.521 379.886 234.521Z"
                        fill="white" />
                    <path
                        d="M397.998 217.98L398.104 220.371C399.557 218.543 401.455 217.629 403.799 217.629C407.818 217.629 409.846 219.896 409.881 224.432V237H406.629V224.414C406.617 223.043 406.301 222.029 405.68 221.373C405.07 220.717 404.115 220.389 402.814 220.389C401.76 220.389 400.834 220.67 400.037 221.232C399.24 221.795 398.619 222.533 398.174 223.447V237H394.922V217.98H397.998ZM408.756 210.562C408.756 211.828 408.393 212.854 407.666 213.639C406.951 214.424 406.055 214.816 404.977 214.816C404.496 214.816 404.08 214.758 403.729 214.641C403.377 214.523 402.914 214.283 402.34 213.92C401.777 213.557 401.367 213.34 401.109 213.27C400.863 213.188 400.576 213.146 400.248 213.146C399.768 213.146 399.357 213.334 399.018 213.709C398.678 214.072 398.508 214.541 398.508 215.115L396.328 214.992C396.328 213.738 396.68 212.701 397.383 211.881C398.098 211.061 399 210.65 400.09 210.65C400.5 210.65 400.869 210.709 401.197 210.826C401.525 210.943 401.971 211.172 402.533 211.512C403.096 211.852 403.523 212.074 403.816 212.18C404.121 212.285 404.455 212.338 404.818 212.338C405.322 212.338 405.738 212.139 406.066 211.74C406.406 211.342 406.576 210.879 406.576 210.352L408.756 210.562Z"
                        fill="white" />
                    <path
                        d="M415.724 227.314C415.724 225.451 416.087 223.775 416.814 222.287C417.552 220.799 418.571 219.65 419.872 218.842C421.185 218.033 422.679 217.629 424.355 217.629C426.945 217.629 429.036 218.525 430.63 220.318C432.236 222.111 433.038 224.496 433.038 227.473V227.701C433.038 229.553 432.681 231.217 431.966 232.693C431.263 234.158 430.249 235.301 428.925 236.121C427.612 236.941 426.101 237.352 424.39 237.352C421.812 237.352 419.72 236.455 418.114 234.662C416.521 232.869 415.724 230.496 415.724 227.543V227.314ZM418.993 227.701C418.993 229.811 419.48 231.504 420.452 232.781C421.437 234.059 422.749 234.697 424.39 234.697C426.042 234.697 427.355 234.053 428.327 232.764C429.3 231.463 429.786 229.646 429.786 227.314C429.786 225.229 429.288 223.541 428.292 222.252C427.308 220.951 425.995 220.301 424.355 220.301C422.749 220.301 421.454 220.939 420.47 222.217C419.486 223.494 418.993 225.322 418.993 227.701Z"
                        fill="white" />
                    <path
                        d="M449.991 231.955C449.991 231.076 449.657 230.396 448.989 229.916C448.332 229.424 447.178 229.002 445.526 228.65C443.885 228.299 442.579 227.877 441.606 227.385C440.645 226.893 439.93 226.307 439.461 225.627C439.004 224.947 438.776 224.139 438.776 223.201C438.776 221.643 439.432 220.324 440.745 219.246C442.069 218.168 443.756 217.629 445.807 217.629C447.963 217.629 449.709 218.186 451.045 219.299C452.393 220.412 453.067 221.836 453.067 223.57H449.797C449.797 222.68 449.416 221.912 448.655 221.268C447.905 220.623 446.955 220.301 445.807 220.301C444.623 220.301 443.698 220.559 443.03 221.074C442.362 221.59 442.028 222.264 442.028 223.096C442.028 223.881 442.338 224.473 442.959 224.871C443.58 225.27 444.7 225.65 446.317 226.014C447.946 226.377 449.264 226.811 450.272 227.314C451.28 227.818 452.024 228.428 452.504 229.143C452.996 229.846 453.243 230.707 453.243 231.727C453.243 233.426 452.563 234.791 451.204 235.822C449.844 236.842 448.08 237.352 445.913 237.352C444.389 237.352 443.041 237.082 441.87 236.543C440.698 236.004 439.778 235.254 439.11 234.293C438.454 233.32 438.125 232.271 438.125 231.146H441.377C441.436 232.236 441.87 233.104 442.678 233.748C443.498 234.381 444.577 234.697 445.913 234.697C447.143 234.697 448.127 234.451 448.866 233.959C449.616 233.455 449.991 232.787 449.991 231.955Z"
                        fill="white" />
                    <path
                        d="M459.349 235.295C459.349 234.732 459.513 234.264 459.841 233.889C460.181 233.514 460.685 233.326 461.353 233.326C462.021 233.326 462.525 233.514 462.865 233.889C463.216 234.264 463.392 234.732 463.392 235.295C463.392 235.834 463.216 236.285 462.865 236.648C462.525 237.012 462.021 237.193 461.353 237.193C460.685 237.193 460.181 237.012 459.841 236.648C459.513 236.285 459.349 235.834 459.349 235.295Z"
                        fill="white" />
                </g>
                <g id="Carlos: Marco tiene 17 a&#195;&#177;os.">
                    <path
                        d="M51.377 310.475C51.1777 313.229 50.1582 315.396 48.3184 316.979C46.4902 318.561 44.0762 319.352 41.0762 319.352C37.7949 319.352 35.2109 318.25 33.3242 316.047C31.4492 313.832 30.5117 310.797 30.5117 306.941V305.377C30.5117 302.916 30.9453 300.748 31.8125 298.873C32.6797 296.998 33.916 295.562 35.5215 294.566C37.1387 293.559 39.0137 293.055 41.1465 293.055C44.0996 293.055 46.4785 293.846 48.2832 295.428C50.0879 297.01 51.1309 299.23 51.4121 302.09H46.1387C46.0098 300.438 45.5469 299.242 44.75 298.504C43.9648 297.754 42.7637 297.379 41.1465 297.379C39.3887 297.379 38.0703 298.012 37.1914 299.277C36.3242 300.531 35.8789 302.482 35.8555 305.131V307.064C35.8555 309.83 36.2715 311.852 37.1035 313.129C37.9473 314.406 39.2715 315.045 41.0762 315.045C42.7051 315.045 43.918 314.676 44.7148 313.938C45.5234 313.188 45.9863 312.033 46.1035 310.475H51.377Z"
                        fill="white" />
                    <path
                        d="M67.3273 319C67.093 318.543 66.923 317.975 66.8176 317.295C65.5871 318.666 63.9875 319.352 62.0187 319.352C60.1555 319.352 58.6086 318.812 57.3781 317.734C56.1594 316.656 55.55 315.297 55.55 313.656C55.55 311.641 56.2941 310.094 57.7824 309.016C59.2824 307.938 61.4445 307.393 64.2687 307.381H66.6066V306.291C66.6066 305.412 66.3781 304.709 65.9211 304.182C65.4758 303.654 64.7668 303.391 63.7941 303.391C62.9387 303.391 62.2648 303.596 61.7727 304.006C61.2922 304.416 61.052 304.979 61.052 305.693H55.9719C55.9719 304.592 56.3117 303.572 56.9914 302.635C57.6711 301.697 58.632 300.965 59.8742 300.438C61.1164 299.898 62.5109 299.629 64.0578 299.629C66.4016 299.629 68.259 300.221 69.6301 301.404C71.0129 302.576 71.7043 304.229 71.7043 306.361V314.605C71.716 316.41 71.968 317.775 72.4602 318.701V319H67.3273ZM63.1262 315.467C63.8762 315.467 64.5676 315.303 65.2004 314.975C65.8332 314.635 66.302 314.184 66.6066 313.621V310.352H64.7082C62.1652 310.352 60.8117 311.23 60.6477 312.988L60.6301 313.287C60.6301 313.92 60.8527 314.441 61.298 314.852C61.7434 315.262 62.3527 315.467 63.1262 315.467Z"
                        fill="white" />
                    <path
                        d="M88.0941 304.744C87.4027 304.65 86.7934 304.604 86.266 304.604C84.3441 304.604 83.0844 305.254 82.4867 306.555V319H77.4066V299.98H82.2055L82.3461 302.248C83.3656 300.502 84.7777 299.629 86.5824 299.629C87.1449 299.629 87.6723 299.705 88.1645 299.857L88.0941 304.744Z"
                        fill="white" />
                    <path d="M97.7164 319H92.6188V292H97.7164V319Z" fill="white" />
                    <path
                        d="M102.927 309.314C102.927 307.428 103.29 305.746 104.016 304.27C104.743 302.793 105.786 301.65 107.145 300.842C108.516 300.033 110.104 299.629 111.909 299.629C114.475 299.629 116.567 300.414 118.184 301.984C119.813 303.555 120.721 305.688 120.909 308.383L120.944 309.684C120.944 312.602 120.13 314.945 118.501 316.715C116.872 318.473 114.686 319.352 111.944 319.352C109.202 319.352 107.011 318.473 105.37 316.715C103.741 314.957 102.927 312.566 102.927 309.543V309.314ZM108.007 309.684C108.007 311.488 108.346 312.871 109.026 313.832C109.706 314.781 110.679 315.256 111.944 315.256C113.175 315.256 114.136 314.787 114.827 313.85C115.518 312.9 115.864 311.389 115.864 309.314C115.864 307.545 115.518 306.174 114.827 305.201C114.136 304.229 113.163 303.742 111.909 303.742C110.667 303.742 109.706 304.229 109.026 305.201C108.346 306.162 108.007 307.656 108.007 309.684Z"
                        fill="white" />
                    <path
                        d="M136.174 313.744C136.174 313.123 135.863 312.637 135.242 312.285C134.633 311.922 133.648 311.6 132.289 311.318C127.766 310.369 125.504 308.447 125.504 305.553C125.504 303.865 126.201 302.459 127.596 301.334C129.002 300.197 130.836 299.629 133.098 299.629C135.512 299.629 137.439 300.197 138.881 301.334C140.334 302.471 141.061 303.947 141.061 305.764H135.98C135.98 305.037 135.746 304.439 135.277 303.971C134.809 303.49 134.076 303.25 133.08 303.25C132.225 303.25 131.562 303.443 131.094 303.83C130.625 304.217 130.391 304.709 130.391 305.307C130.391 305.869 130.654 306.326 131.182 306.678C131.721 307.018 132.623 307.316 133.889 307.574C135.154 307.82 136.221 308.102 137.088 308.418C139.771 309.402 141.113 311.107 141.113 313.533C141.113 315.268 140.369 316.674 138.881 317.752C137.393 318.818 135.471 319.352 133.115 319.352C131.521 319.352 130.104 319.07 128.861 318.508C127.631 317.934 126.664 317.154 125.961 316.17C125.258 315.174 124.906 314.102 124.906 312.953H129.723C129.77 313.855 130.104 314.547 130.725 315.027C131.346 315.508 132.178 315.748 133.221 315.748C134.193 315.748 134.926 315.566 135.418 315.203C135.922 314.828 136.174 314.342 136.174 313.744Z"
                        fill="white" />
                    <path
                        d="M146.446 316.504C146.446 315.695 146.716 315.039 147.255 314.535C147.806 314.031 148.491 313.779 149.312 313.779C150.144 313.779 150.829 314.031 151.368 314.535C151.919 315.039 152.195 315.695 152.195 316.504C152.195 317.301 151.925 317.951 151.386 318.455C150.847 318.947 150.155 319.193 149.312 319.193C148.48 319.193 147.794 318.947 147.255 318.455C146.716 317.951 146.446 317.301 146.446 316.504ZM146.446 302.107C146.446 301.299 146.716 300.643 147.255 300.139C147.806 299.635 148.491 299.383 149.312 299.383C150.144 299.383 150.829 299.635 151.368 300.139C151.919 300.643 152.195 301.299 152.195 302.107C152.195 302.904 151.925 303.555 151.386 304.059C150.847 304.551 150.155 304.797 149.312 304.797C148.48 304.797 147.794 304.551 147.255 304.059C146.716 303.555 146.446 302.904 146.446 302.107Z"
                        fill="white" />
                    <path
                        d="M185.034 293.406L193.401 314.289L201.768 293.406H206.145V319H202.77V309.033L203.087 298.275L194.684 319H192.1L183.716 298.328L184.05 309.033V319H180.675V293.406H185.034Z"
                        fill="white" />
                    <path
                        d="M225.137 319C224.949 318.625 224.797 317.957 224.68 316.996C223.168 318.566 221.363 319.352 219.266 319.352C217.391 319.352 215.85 318.824 214.643 317.77C213.447 316.703 212.85 315.355 212.85 313.727C212.85 311.746 213.6 310.211 215.1 309.121C216.611 308.02 218.732 307.469 221.463 307.469H224.627V305.975C224.627 304.838 224.287 303.936 223.607 303.268C222.928 302.588 221.926 302.248 220.602 302.248C219.441 302.248 218.469 302.541 217.684 303.127C216.898 303.713 216.506 304.422 216.506 305.254H213.236C213.236 304.305 213.57 303.391 214.238 302.512C214.918 301.621 215.832 300.918 216.98 300.402C218.141 299.887 219.412 299.629 220.795 299.629C222.986 299.629 224.703 300.18 225.945 301.281C227.188 302.371 227.832 303.877 227.879 305.799V314.553C227.879 316.299 228.102 317.688 228.547 318.719V319H225.137ZM219.74 316.521C220.76 316.521 221.727 316.258 222.641 315.73C223.555 315.203 224.217 314.518 224.627 313.674V309.771H222.078C218.094 309.771 216.102 310.938 216.102 313.27C216.102 314.289 216.441 315.086 217.121 315.66C217.801 316.234 218.674 316.521 219.74 316.521Z"
                        fill="white" />
                    <path
                        d="M243.97 302.898C243.478 302.816 242.945 302.775 242.37 302.775C240.238 302.775 238.79 303.684 238.029 305.5V319H234.777V299.98H237.941L237.993 302.178C239.06 300.479 240.571 299.629 242.529 299.629C243.161 299.629 243.642 299.711 243.97 299.875V302.898Z"
                        fill="white" />
                    <path
                        d="M256.053 316.697C257.213 316.697 258.227 316.346 259.094 315.643C259.961 314.939 260.442 314.061 260.536 313.006H263.612C263.553 314.096 263.178 315.133 262.487 316.117C261.795 317.102 260.87 317.887 259.709 318.473C258.561 319.059 257.342 319.352 256.053 319.352C253.463 319.352 251.401 318.49 249.866 316.768C248.342 315.033 247.58 312.666 247.58 309.666V309.121C247.58 307.27 247.92 305.623 248.6 304.182C249.28 302.74 250.252 301.621 251.518 300.824C252.795 300.027 254.301 299.629 256.036 299.629C258.168 299.629 259.938 300.268 261.344 301.545C262.762 302.822 263.518 304.48 263.612 306.52H260.536C260.442 305.289 259.973 304.281 259.129 303.496C258.297 302.699 257.266 302.301 256.036 302.301C254.383 302.301 253.1 302.898 252.186 304.094C251.284 305.277 250.832 306.994 250.832 309.244V309.859C250.832 312.051 251.284 313.738 252.186 314.922C253.088 316.105 254.377 316.697 256.053 316.697Z"
                        fill="white" />
                    <path
                        d="M268.207 309.314C268.207 307.451 268.57 305.775 269.296 304.287C270.035 302.799 271.054 301.65 272.355 300.842C273.668 300.033 275.162 299.629 276.837 299.629C279.427 299.629 281.519 300.525 283.113 302.318C284.718 304.111 285.521 306.496 285.521 309.473V309.701C285.521 311.553 285.164 313.217 284.449 314.693C283.746 316.158 282.732 317.301 281.408 318.121C280.095 318.941 278.584 319.352 276.873 319.352C274.295 319.352 272.203 318.455 270.597 316.662C269.004 314.869 268.207 312.496 268.207 309.543V309.314ZM271.476 309.701C271.476 311.811 271.962 313.504 272.935 314.781C273.92 316.059 275.232 316.697 276.873 316.697C278.525 316.697 279.837 316.053 280.81 314.764C281.783 313.463 282.269 311.646 282.269 309.314C282.269 307.229 281.771 305.541 280.775 304.252C279.791 302.951 278.478 302.301 276.837 302.301C275.232 302.301 273.937 302.939 272.953 304.217C271.968 305.494 271.476 307.322 271.476 309.701Z"
                        fill="white" />
                    <path
                        d="M306.541 295.375V299.98H310.092V302.494H306.541V314.289C306.541 315.051 306.699 315.625 307.016 316.012C307.332 316.387 307.871 316.574 308.633 316.574C309.008 316.574 309.523 316.504 310.18 316.363V319C309.324 319.234 308.492 319.352 307.684 319.352C306.23 319.352 305.135 318.912 304.396 318.033C303.658 317.154 303.289 315.906 303.289 314.289V302.494H299.826V299.98H303.289V295.375H306.541Z"
                        fill="white" />
                    <path
                        d="M319.239 319H315.987V299.98H319.239V319ZM315.724 294.936C315.724 294.408 315.882 293.963 316.198 293.6C316.527 293.236 317.007 293.055 317.64 293.055C318.273 293.055 318.753 293.236 319.081 293.6C319.409 293.963 319.573 294.408 319.573 294.936C319.573 295.463 319.409 295.902 319.081 296.254C318.753 296.605 318.273 296.781 317.64 296.781C317.007 296.781 316.527 296.605 316.198 296.254C315.882 295.902 315.724 295.463 315.724 294.936Z"
                        fill="white" />
                    <path
                        d="M334.153 319.352C331.575 319.352 329.477 318.508 327.86 316.82C326.243 315.121 325.434 312.854 325.434 310.018V309.42C325.434 307.533 325.791 305.852 326.506 304.375C327.233 302.887 328.241 301.727 329.53 300.895C330.83 300.051 332.237 299.629 333.748 299.629C336.221 299.629 338.143 300.443 339.514 302.072C340.885 303.701 341.571 306.033 341.571 309.068V310.422H328.686C328.733 312.297 329.278 313.814 330.321 314.975C331.375 316.123 332.711 316.697 334.329 316.697C335.477 316.697 336.45 316.463 337.246 315.994C338.043 315.525 338.741 314.904 339.338 314.131L341.325 315.678C339.731 318.127 337.34 319.352 334.153 319.352ZM333.748 302.301C332.436 302.301 331.334 302.781 330.444 303.742C329.553 304.691 329.002 306.027 328.791 307.75H338.319V307.504C338.225 305.852 337.78 304.574 336.983 303.672C336.186 302.758 335.108 302.301 333.748 302.301Z"
                        fill="white" />
                    <path
                        d="M350.226 299.98L350.332 302.371C351.785 300.543 353.683 299.629 356.027 299.629C360.046 299.629 362.074 301.896 362.109 306.432V319H358.857V306.414C358.845 305.043 358.529 304.029 357.908 303.373C357.298 302.717 356.343 302.389 355.043 302.389C353.988 302.389 353.062 302.67 352.265 303.232C351.468 303.795 350.847 304.533 350.402 305.447V319H347.15V299.98H350.226Z"
                        fill="white" />
                    <path
                        d="M376.706 319.352C374.128 319.352 372.03 318.508 370.413 316.82C368.796 315.121 367.987 312.854 367.987 310.018V309.42C367.987 307.533 368.345 305.852 369.059 304.375C369.786 302.887 370.794 301.727 372.083 300.895C373.384 300.051 374.79 299.629 376.302 299.629C378.774 299.629 380.696 300.443 382.067 302.072C383.438 303.701 384.124 306.033 384.124 309.068V310.422H371.239C371.286 312.297 371.831 313.814 372.874 314.975C373.929 316.123 375.264 316.697 376.882 316.697C378.03 316.697 379.003 316.463 379.8 315.994C380.596 315.525 381.294 314.904 381.891 314.131L383.878 315.678C382.284 318.127 379.893 319.352 376.706 319.352ZM376.302 302.301C374.989 302.301 373.888 302.781 372.997 303.742C372.106 304.691 371.555 306.027 371.345 307.75H380.872V307.504C380.778 305.852 380.333 304.574 379.536 303.672C378.739 302.758 377.661 302.301 376.302 302.301Z"
                        fill="white" />
                    <path d="M410.786 319H407.517V297.326L400.96 299.734V296.781L410.277 293.283H410.786V319Z"
                        fill="white" />
                    <path d="M438.637 295.234L428.038 319H424.627L435.192 296.078H421.34V293.406H438.637V295.234Z"
                        fill="white" />
                    <path
                        d="M466.934 319C466.747 318.625 466.595 317.957 466.477 316.996C464.966 318.566 463.161 319.352 461.063 319.352C459.188 319.352 457.647 318.824 456.44 317.77C455.245 316.703 454.647 315.355 454.647 313.727C454.647 311.746 455.397 310.211 456.897 309.121C458.409 308.02 460.53 307.469 463.261 307.469H466.425V305.975C466.425 304.838 466.085 303.936 465.405 303.268C464.725 302.588 463.723 302.248 462.399 302.248C461.239 302.248 460.266 302.541 459.481 303.127C458.696 303.713 458.304 304.422 458.304 305.254H455.034C455.034 304.305 455.368 303.391 456.036 302.512C456.716 301.621 457.63 300.918 458.778 300.402C459.938 299.887 461.21 299.629 462.593 299.629C464.784 299.629 466.501 300.18 467.743 301.281C468.985 302.371 469.63 303.877 469.677 305.799V314.553C469.677 316.299 469.899 317.688 470.345 318.719V319H466.934ZM461.538 316.521C462.557 316.521 463.524 316.258 464.438 315.73C465.352 315.203 466.014 314.518 466.425 313.674V309.771H463.876C459.891 309.771 457.899 310.938 457.899 313.27C457.899 314.289 458.239 315.086 458.919 315.66C459.598 316.234 460.471 316.521 461.538 316.521Z"
                        fill="white" />
                    <path
                        d="M479.65 299.98L479.756 302.371C481.209 300.543 483.107 299.629 485.451 299.629C489.471 299.629 491.498 301.896 491.533 306.432V319H488.281V306.414C488.27 305.043 487.953 304.029 487.332 303.373C486.723 302.717 485.768 302.389 484.467 302.389C483.412 302.389 482.486 302.67 481.689 303.232C480.893 303.795 480.271 304.533 479.826 305.447V319H476.574V299.98H479.65ZM490.408 292.562C490.408 293.828 490.045 294.854 489.318 295.639C488.604 296.424 487.707 296.816 486.629 296.816C486.148 296.816 485.732 296.758 485.381 296.641C485.029 296.523 484.566 296.283 483.992 295.92C483.43 295.557 483.02 295.34 482.762 295.27C482.516 295.188 482.229 295.146 481.9 295.146C481.42 295.146 481.01 295.334 480.67 295.709C480.33 296.072 480.16 296.541 480.16 297.115L477.98 296.992C477.98 295.738 478.332 294.701 479.035 293.881C479.75 293.061 480.652 292.65 481.742 292.65C482.152 292.65 482.521 292.709 482.85 292.826C483.178 292.943 483.623 293.172 484.186 293.512C484.748 293.852 485.176 294.074 485.469 294.18C485.773 294.285 486.107 294.338 486.471 294.338C486.975 294.338 487.391 294.139 487.719 293.74C488.059 293.342 488.229 292.879 488.229 292.352L490.408 292.562Z"
                        fill="white" />
                    <path
                        d="M497.376 309.314C497.376 307.451 497.739 305.775 498.466 304.287C499.204 302.799 500.224 301.65 501.525 300.842C502.837 300.033 504.331 299.629 506.007 299.629C508.597 299.629 510.689 300.525 512.282 302.318C513.888 304.111 514.691 306.496 514.691 309.473V309.701C514.691 311.553 514.333 313.217 513.618 314.693C512.915 316.158 511.902 317.301 510.577 318.121C509.265 318.941 507.753 319.352 506.042 319.352C503.464 319.352 501.372 318.455 499.767 316.662C498.173 314.869 497.376 312.496 497.376 309.543V309.314ZM500.646 309.701C500.646 311.811 501.132 313.504 502.105 314.781C503.089 316.059 504.402 316.697 506.042 316.697C507.695 316.697 509.007 316.053 509.98 314.764C510.952 313.463 511.439 311.646 511.439 309.314C511.439 307.229 510.941 305.541 509.945 304.252C508.96 302.951 507.648 302.301 506.007 302.301C504.402 302.301 503.107 302.939 502.122 304.217C501.138 305.494 500.646 307.322 500.646 309.701Z"
                        fill="white" />
                    <path
                        d="M531.643 313.955C531.643 313.076 531.309 312.396 530.641 311.916C529.985 311.424 528.83 311.002 527.178 310.65C525.538 310.299 524.231 309.877 523.258 309.385C522.297 308.893 521.582 308.307 521.114 307.627C520.657 306.947 520.428 306.139 520.428 305.201C520.428 303.643 521.084 302.324 522.397 301.246C523.721 300.168 525.409 299.629 527.459 299.629C529.616 299.629 531.362 300.186 532.698 301.299C534.045 302.412 534.719 303.836 534.719 305.57H531.45C531.45 304.68 531.069 303.912 530.307 303.268C529.557 302.623 528.608 302.301 527.459 302.301C526.276 302.301 525.35 302.559 524.682 303.074C524.014 303.59 523.68 304.264 523.68 305.096C523.68 305.881 523.991 306.473 524.612 306.871C525.233 307.27 526.352 307.65 527.969 308.014C529.598 308.377 530.916 308.811 531.924 309.314C532.932 309.818 533.676 310.428 534.157 311.143C534.649 311.846 534.895 312.707 534.895 313.727C534.895 315.426 534.215 316.791 532.856 317.822C531.496 318.842 529.733 319.352 527.565 319.352C526.041 319.352 524.694 319.082 523.522 318.543C522.35 318.004 521.43 317.254 520.762 316.293C520.106 315.32 519.778 314.271 519.778 313.146H523.03C523.088 314.236 523.522 315.104 524.33 315.748C525.151 316.381 526.229 316.697 527.565 316.697C528.795 316.697 529.78 316.451 530.518 315.959C531.268 315.455 531.643 314.787 531.643 313.955Z"
                        fill="white" />
                    <path
                        d="M541.002 317.295C541.002 316.732 541.166 316.264 541.494 315.889C541.834 315.514 542.338 315.326 543.005 315.326C543.673 315.326 544.177 315.514 544.517 315.889C544.869 316.264 545.045 316.732 545.045 317.295C545.045 317.834 544.869 318.285 544.517 318.648C544.177 319.012 543.673 319.193 543.005 319.193C542.338 319.193 541.834 319.012 541.494 318.648C541.166 318.285 541.002 317.834 541.002 317.295Z"
                        fill="white" />
                </g>
                <g id="V&#195;&#173;ctor: Yo tengo 17 a&#195;&#177;os.">
                    <path
                        d="M29.7422 405.654L35.543 386.406H41.4141L32.502 412H27L18.123 386.406H23.9766L29.7422 405.654Z"
                        fill="white" />
                    <path
                        d="M50.7902 412H45.7102V392.98H50.7902V412ZM49.2961 385.264H54.8332L49.9641 390.713H45.8332L49.2961 385.264Z"
                        fill="white" />
                    <path
                        d="M64.8949 408.256C65.8324 408.256 66.5941 407.998 67.1801 407.482C67.766 406.967 68.0707 406.281 68.0941 405.426H72.8578C72.8461 406.715 72.4945 407.898 71.8031 408.977C71.1117 410.043 70.1625 410.875 68.9555 411.473C67.7602 412.059 66.4359 412.352 64.9828 412.352C62.2641 412.352 60.1195 411.49 58.5492 409.768C56.9789 408.033 56.1937 405.643 56.1937 402.596V402.262C56.1937 399.332 56.973 396.994 58.5316 395.248C60.0902 393.502 62.2289 392.629 64.9477 392.629C67.3266 392.629 69.2309 393.309 70.6605 394.668C72.102 396.016 72.8344 397.814 72.8578 400.064H68.0941C68.0707 399.08 67.766 398.283 67.1801 397.674C66.5941 397.053 65.8207 396.742 64.8598 396.742C63.6762 396.742 62.7797 397.176 62.1703 398.043C61.5727 398.898 61.2738 400.293 61.2738 402.227V402.754C61.2738 404.711 61.5727 406.117 62.1703 406.973C62.768 407.828 63.6762 408.256 64.8949 408.256Z"
                        fill="white" />
                    <path
                        d="M83.6402 388.305V392.98H86.8922V396.707H83.6402V406.199C83.6402 406.902 83.775 407.406 84.0445 407.711C84.3141 408.016 84.8297 408.168 85.5914 408.168C86.1539 408.168 86.652 408.127 87.0855 408.045V411.895C86.0895 412.199 85.0641 412.352 84.0094 412.352C80.4469 412.352 78.6305 410.553 78.5602 406.955V396.707H75.7828V392.98H78.5602V388.305H83.6402Z"
                        fill="white" />
                    <path
                        d="M90.2039 402.314C90.2039 400.428 90.5672 398.746 91.2937 397.27C92.0203 395.793 93.0633 394.65 94.4227 393.842C95.7937 393.033 97.3816 392.629 99.1863 392.629C101.753 392.629 103.845 393.414 105.462 394.984C107.091 396.555 107.999 398.688 108.186 401.383L108.221 402.684C108.221 405.602 107.407 407.945 105.778 409.715C104.149 411.473 101.964 412.352 99.2215 412.352C96.4793 412.352 94.2879 411.473 92.6473 409.715C91.0184 407.957 90.2039 405.566 90.2039 402.543V402.314ZM95.284 402.684C95.284 404.488 95.6238 405.871 96.3035 406.832C96.9832 407.781 97.9559 408.256 99.2215 408.256C100.452 408.256 101.413 407.787 102.104 406.85C102.796 405.9 103.141 404.389 103.141 402.314C103.141 400.545 102.796 399.174 102.104 398.201C101.413 397.229 100.44 396.742 99.1863 396.742C97.9441 396.742 96.9832 397.229 96.3035 398.201C95.6238 399.162 95.284 400.656 95.284 402.684Z"
                        fill="white" />
                    <path
                        d="M123.838 397.744C123.146 397.65 122.537 397.604 122.01 397.604C120.088 397.604 118.828 398.254 118.23 399.555V412H113.15V392.98H117.949L118.09 395.248C119.109 393.502 120.521 392.629 122.326 392.629C122.889 392.629 123.416 392.705 123.908 392.857L123.838 397.744Z"
                        fill="white" />
                    <path
                        d="M128.345 409.504C128.345 408.695 128.614 408.039 129.154 407.535C129.704 407.031 130.39 406.779 131.21 406.779C132.042 406.779 132.728 407.031 133.267 407.535C133.818 408.039 134.093 408.695 134.093 409.504C134.093 410.301 133.823 410.951 133.284 411.455C132.745 411.947 132.054 412.193 131.21 412.193C130.378 412.193 129.693 411.947 129.154 411.455C128.614 410.951 128.345 410.301 128.345 409.504ZM128.345 395.107C128.345 394.299 128.614 393.643 129.154 393.139C129.704 392.635 130.39 392.383 131.21 392.383C132.042 392.383 132.728 392.635 133.267 393.139C133.818 393.643 134.093 394.299 134.093 395.107C134.093 395.904 133.823 396.555 133.284 397.059C132.745 397.551 132.054 397.797 131.21 397.797C130.378 397.797 129.693 397.551 129.154 397.059C128.614 396.555 128.345 395.904 128.345 395.107Z"
                        fill="white" />
                    <path
                        d="M159.613 399.256L166.293 386.406H170.125L161.3 402.455V412H157.925V402.455L149.101 386.406H152.968L159.613 399.256Z"
                        fill="white" />
                    <path
                        d="M172.698 402.314C172.698 400.451 173.061 398.775 173.788 397.287C174.526 395.799 175.546 394.65 176.846 393.842C178.159 393.033 179.653 392.629 181.329 392.629C183.919 392.629 186.011 393.525 187.604 395.318C189.21 397.111 190.012 399.496 190.012 402.473V402.701C190.012 404.553 189.655 406.217 188.94 407.693C188.237 409.158 187.223 410.301 185.899 411.121C184.587 411.941 183.075 412.352 181.364 412.352C178.786 412.352 176.694 411.455 175.089 409.662C173.495 407.869 172.698 405.496 172.698 402.543V402.314ZM175.968 402.701C175.968 404.811 176.454 406.504 177.427 407.781C178.411 409.059 179.723 409.697 181.364 409.697C183.016 409.697 184.329 409.053 185.302 407.764C186.274 406.463 186.761 404.646 186.761 402.314C186.761 400.229 186.262 398.541 185.266 397.252C184.282 395.951 182.97 395.301 181.329 395.301C179.723 395.301 178.429 395.939 177.444 397.217C176.46 398.494 175.968 400.322 175.968 402.701Z"
                        fill="white" />
                    <path
                        d="M211.032 388.375V392.98H214.583V395.494H211.032V407.289C211.032 408.051 211.191 408.625 211.507 409.012C211.823 409.387 212.363 409.574 213.124 409.574C213.499 409.574 214.015 409.504 214.671 409.363V412C213.816 412.234 212.984 412.352 212.175 412.352C210.722 412.352 209.626 411.912 208.888 411.033C208.15 410.154 207.78 408.906 207.78 407.289V395.494H204.318V392.98H207.78V388.375H211.032Z"
                        fill="white" />
                    <path
                        d="M228.09 412.352C225.512 412.352 223.414 411.508 221.797 409.82C220.18 408.121 219.371 405.854 219.371 403.018V402.42C219.371 400.533 219.729 398.852 220.444 397.375C221.17 395.887 222.178 394.727 223.467 393.895C224.768 393.051 226.174 392.629 227.686 392.629C230.159 392.629 232.08 393.443 233.452 395.072C234.823 396.701 235.508 399.033 235.508 402.068V403.422H222.623C222.67 405.297 223.215 406.814 224.258 407.975C225.313 409.123 226.649 409.697 228.266 409.697C229.414 409.697 230.387 409.463 231.184 408.994C231.981 408.525 232.678 407.904 233.276 407.131L235.262 408.678C233.668 411.127 231.278 412.352 228.09 412.352ZM227.686 395.301C226.373 395.301 225.272 395.781 224.381 396.742C223.491 397.691 222.94 399.027 222.729 400.75H232.256V400.504C232.163 398.852 231.717 397.574 230.92 396.672C230.123 395.758 229.045 395.301 227.686 395.301Z"
                        fill="white" />
                    <path
                        d="M244.164 392.98L244.269 395.371C245.722 393.543 247.621 392.629 249.964 392.629C253.984 392.629 256.011 394.896 256.046 399.432V412H252.795V399.414C252.783 398.043 252.466 397.029 251.845 396.373C251.236 395.717 250.281 395.389 248.98 395.389C247.925 395.389 247 395.67 246.203 396.232C245.406 396.795 244.785 397.533 244.339 398.447V412H241.087V392.98H244.164Z"
                        fill="white" />
                    <path
                        d="M261.977 402.332C261.977 399.367 262.663 397.012 264.034 395.266C265.405 393.508 267.221 392.629 269.483 392.629C271.804 392.629 273.614 393.449 274.915 395.09L275.073 392.98H278.044V411.543C278.044 414.004 277.311 415.943 275.846 417.361C274.393 418.779 272.436 419.488 269.975 419.488C268.604 419.488 267.262 419.195 265.95 418.609C264.637 418.023 263.636 417.221 262.944 416.201L264.632 414.25C266.026 415.973 267.731 416.834 269.747 416.834C271.329 416.834 272.559 416.389 273.438 415.498C274.329 414.607 274.774 413.354 274.774 411.736V410.102C273.473 411.602 271.698 412.352 269.448 412.352C267.221 412.352 265.417 411.455 264.034 409.662C262.663 407.869 261.977 405.426 261.977 402.332ZM265.247 402.701C265.247 404.846 265.686 406.533 266.565 407.764C267.444 408.982 268.675 409.592 270.257 409.592C272.307 409.592 273.813 408.66 274.774 406.797V398.113C273.778 396.297 272.284 395.389 270.292 395.389C268.71 395.389 267.473 396.004 266.583 397.234C265.692 398.465 265.247 400.287 265.247 402.701Z"
                        fill="white" />
                    <path
                        d="M283.904 402.314C283.904 400.451 284.268 398.775 284.994 397.287C285.732 395.799 286.752 394.65 288.053 393.842C289.365 393.033 290.859 392.629 292.535 392.629C295.125 392.629 297.217 393.525 298.811 395.318C300.416 397.111 301.219 399.496 301.219 402.473V402.701C301.219 404.553 300.861 406.217 300.146 407.693C299.443 409.158 298.43 410.301 297.105 411.121C295.793 411.941 294.281 412.352 292.57 412.352C289.992 412.352 287.9 411.455 286.295 409.662C284.701 407.869 283.904 405.496 283.904 402.543V402.314ZM287.174 402.701C287.174 404.811 287.66 406.504 288.633 407.781C289.617 409.059 290.93 409.697 292.57 409.697C294.223 409.697 295.535 409.053 296.508 407.764C297.48 406.463 297.967 404.646 297.967 402.314C297.967 400.229 297.469 398.541 296.473 397.252C295.488 395.951 294.176 395.301 292.535 395.301C290.93 395.301 289.635 395.939 288.65 397.217C287.666 398.494 287.174 400.322 287.174 402.701Z"
                        fill="white" />
                    <path d="M328.18 412H324.911V390.326L318.354 392.734V389.781L327.67 386.283H328.18V412Z"
                        fill="white" />
                    <path d="M356.031 388.234L345.431 412H342.021L352.586 389.078H338.734V386.406H356.031V388.234Z"
                        fill="white" />
                    <path
                        d="M384.328 412C384.141 411.625 383.988 410.957 383.871 409.996C382.359 411.566 380.555 412.352 378.457 412.352C376.582 412.352 375.041 411.824 373.834 410.77C372.639 409.703 372.041 408.355 372.041 406.727C372.041 404.746 372.791 403.211 374.291 402.121C375.803 401.02 377.924 400.469 380.654 400.469H383.818V398.975C383.818 397.838 383.479 396.936 382.799 396.268C382.119 395.588 381.117 395.248 379.793 395.248C378.633 395.248 377.66 395.541 376.875 396.127C376.09 396.713 375.697 397.422 375.697 398.254H372.428C372.428 397.305 372.762 396.391 373.43 395.512C374.109 394.621 375.023 393.918 376.172 393.402C377.332 392.887 378.604 392.629 379.986 392.629C382.178 392.629 383.895 393.18 385.137 394.281C386.379 395.371 387.023 396.877 387.07 398.799V407.553C387.07 409.299 387.293 410.688 387.738 411.719V412H384.328ZM378.932 409.521C379.951 409.521 380.918 409.258 381.832 408.73C382.746 408.203 383.408 407.518 383.818 406.674V402.771H381.27C377.285 402.771 375.293 403.938 375.293 406.27C375.293 407.289 375.633 408.086 376.312 408.66C376.992 409.234 377.865 409.521 378.932 409.521Z"
                        fill="white" />
                    <path
                        d="M397.044 392.98L397.15 395.371C398.603 393.543 400.501 392.629 402.845 392.629C406.864 392.629 408.892 394.896 408.927 399.432V412H405.675V399.414C405.663 398.043 405.347 397.029 404.726 396.373C404.116 395.717 403.161 395.389 401.861 395.389C400.806 395.389 399.88 395.67 399.083 396.232C398.286 396.795 397.665 397.533 397.22 398.447V412H393.968V392.98H397.044ZM407.802 385.562C407.802 386.828 407.439 387.854 406.712 388.639C405.997 389.424 405.101 389.816 404.023 389.816C403.542 389.816 403.126 389.758 402.775 389.641C402.423 389.523 401.96 389.283 401.386 388.92C400.823 388.557 400.413 388.34 400.155 388.27C399.909 388.188 399.622 388.146 399.294 388.146C398.814 388.146 398.404 388.334 398.064 388.709C397.724 389.072 397.554 389.541 397.554 390.115L395.374 389.992C395.374 388.738 395.726 387.701 396.429 386.881C397.144 386.061 398.046 385.65 399.136 385.65C399.546 385.65 399.915 385.709 400.243 385.826C400.571 385.943 401.017 386.172 401.579 386.512C402.142 386.852 402.57 387.074 402.862 387.18C403.167 387.285 403.501 387.338 403.864 387.338C404.368 387.338 404.784 387.139 405.112 386.74C405.452 386.342 405.622 385.879 405.622 385.352L407.802 385.562Z"
                        fill="white" />
                    <path
                        d="M414.77 402.314C414.77 400.451 415.133 398.775 415.86 397.287C416.598 395.799 417.618 394.65 418.918 393.842C420.231 393.033 421.725 392.629 423.401 392.629C425.991 392.629 428.082 393.525 429.676 395.318C431.282 397.111 432.084 399.496 432.084 402.473V402.701C432.084 404.553 431.727 406.217 431.012 407.693C430.309 409.158 429.295 410.301 427.971 411.121C426.659 411.941 425.147 412.352 423.436 412.352C420.858 412.352 418.766 411.455 417.161 409.662C415.567 407.869 414.77 405.496 414.77 402.543V402.314ZM418.039 402.701C418.039 404.811 418.526 406.504 419.498 407.781C420.483 409.059 421.795 409.697 423.436 409.697C425.088 409.697 426.401 409.053 427.373 407.764C428.346 406.463 428.832 404.646 428.832 402.314C428.832 400.229 428.334 398.541 427.338 397.252C426.354 395.951 425.041 395.301 423.401 395.301C421.795 395.301 420.5 395.939 419.516 397.217C418.532 398.494 418.039 400.322 418.039 402.701Z"
                        fill="white" />
                    <path
                        d="M449.037 406.955C449.037 406.076 448.703 405.396 448.035 404.916C447.379 404.424 446.224 404.002 444.572 403.65C442.931 403.299 441.625 402.877 440.652 402.385C439.691 401.893 438.976 401.307 438.507 400.627C438.05 399.947 437.822 399.139 437.822 398.201C437.822 396.643 438.478 395.324 439.791 394.246C441.115 393.168 442.802 392.629 444.853 392.629C447.009 392.629 448.755 393.186 450.091 394.299C451.439 395.412 452.113 396.836 452.113 398.57H448.843C448.843 397.68 448.462 396.912 447.701 396.268C446.951 395.623 446.002 395.301 444.853 395.301C443.67 395.301 442.744 395.559 442.076 396.074C441.408 396.59 441.074 397.264 441.074 398.096C441.074 398.881 441.384 399.473 442.005 399.871C442.627 400.27 443.746 400.65 445.363 401.014C446.992 401.377 448.31 401.811 449.318 402.314C450.326 402.818 451.07 403.428 451.55 404.143C452.043 404.846 452.289 405.707 452.289 406.727C452.289 408.426 451.609 409.791 450.25 410.822C448.89 411.842 447.127 412.352 444.959 412.352C443.435 412.352 442.087 412.082 440.916 411.543C439.744 411.004 438.824 410.254 438.156 409.293C437.5 408.32 437.171 407.271 437.171 406.146H440.423C440.482 407.236 440.916 408.104 441.724 408.748C442.545 409.381 443.623 409.697 444.959 409.697C446.189 409.697 447.173 409.451 447.912 408.959C448.662 408.455 449.037 407.787 449.037 406.955Z"
                        fill="white" />
                    <path
                        d="M458.395 410.295C458.395 409.732 458.559 409.264 458.888 408.889C459.227 408.514 459.731 408.326 460.399 408.326C461.067 408.326 461.571 408.514 461.911 408.889C462.263 409.264 462.438 409.732 462.438 410.295C462.438 410.834 462.263 411.285 461.911 411.648C461.571 412.012 461.067 412.193 460.399 412.193C459.731 412.193 459.227 412.012 458.888 411.648C458.559 411.285 458.395 410.834 458.395 410.295Z"
                        fill="white" />
                </g>
            </g>
        </g>
        <g id="segundo">
            <g id="Group 111">
                <path id="V"
                    d="M768.443 139.518L775.756 118.406H779.447L769.955 144H766.967L757.492 118.406H761.166L768.443 139.518Z"
                    fill="white" />
                <path id="M"
                    d="M767.33 305.406L775.697 326.289L784.064 305.406H788.441V331H785.066V321.033L785.383 310.275L776.98 331H774.396L766.012 310.328L766.346 321.033V331H762.971V305.406H767.33Z"
                    fill="white" />
            </g>
            <g id="Group 112">
                <path id="M_2"
                    d="M876.33 118.406L884.697 139.289L893.064 118.406H897.441V144H894.066V134.033L894.383 123.275L885.98 144H883.396L875.012 123.328L875.346 134.033V144H871.971V118.406H876.33Z"
                    fill="white" />
                <path id="V_2"
                    d="M884.443 326.518L891.756 305.406H895.447L885.955 331H882.967L873.492 305.406H877.166L884.443 326.518Z"
                    fill="white" />
            </g>
            <g id="Group 113">
                <path id="V_3"
                    d="M768.443 232.518L775.756 211.406H779.447L769.955 237H766.967L757.492 211.406H761.166L768.443 232.518Z"
                    fill="white" />
                <path id="V_4"
                    d="M771.443 407.518L778.756 386.406H782.447L772.955 412H769.967L760.492 386.406H764.166L771.443 407.518Z"
                    fill="white" />
            </g>
            <path id="buena" fill-rule="evenodd" clip-rule="evenodd"
                d="M751.244 513.856C750.966 513.99 750.658 514.074 750.331 514.096C748.953 514.19 747.76 513.149 747.667 511.771L746.006 487.333C745.912 485.956 746.953 484.763 748.331 484.67C749.708 484.576 750.901 485.617 750.994 486.994L752.311 506.369L787.948 470.732C788.924 469.756 790.507 469.756 791.483 470.732C792.46 471.709 792.46 473.291 791.483 474.268L752.593 513.159C752.211 513.54 751.738 513.772 751.244 513.856Z"
                fill="#2CF30B" />
            <path id="M_3"
                d="M884.33 386.406L892.697 407.289L901.064 386.406H905.441V412H902.066V402.033L902.383 391.275L893.98 412H891.396L883.012 391.328L883.346 402.033V412H879.971V386.406H884.33Z"
                fill="white" />
            <path id="mala" fill-rule="evenodd" clip-rule="evenodd"
                d="M872.197 509.623C871.22 510.599 871.22 512.182 872.197 513.159C873.173 514.135 874.756 514.135 875.732 513.159L892.178 496.713L908.623 513.159C909.599 514.135 911.182 514.135 912.159 513.159C913.135 512.182 913.135 510.599 912.159 509.623L895.713 493.178L914.623 474.268C915.599 473.291 915.599 471.709 914.623 470.732C913.647 469.756 912.064 469.756 911.088 470.732L892.178 489.642L873.268 470.732C872.291 469.756 870.709 469.756 869.732 470.732C868.756 471.709 868.756 473.291 869.732 474.268L888.642 493.178L872.197 509.623Z"
                fill="#FD0C0C" />

        </g>
        <g id="respuesta">
            <path
                d="M126.33 521.406L134.697 542.289L143.064 521.406H147.441V547H144.066V537.033L144.383 526.275L135.98 547H133.396L125.012 526.328L125.346 537.033V547H121.971V521.406H126.33Z"
                fill="white" />
            <path
                d="M164.633 547C164.445 546.625 164.293 545.957 164.176 544.996C162.664 546.566 160.859 547.352 158.762 547.352C156.887 547.352 155.346 546.824 154.139 545.77C152.943 544.703 152.346 543.355 152.346 541.727C152.346 539.746 153.096 538.211 154.596 537.121C156.107 536.02 158.229 535.469 160.959 535.469H164.123V533.975C164.123 532.838 163.783 531.936 163.104 531.268C162.424 530.588 161.422 530.248 160.098 530.248C158.938 530.248 157.965 530.541 157.18 531.127C156.395 531.713 156.002 532.422 156.002 533.254H152.732C152.732 532.305 153.066 531.391 153.734 530.512C154.414 529.621 155.328 528.918 156.477 528.402C157.637 527.887 158.908 527.629 160.291 527.629C162.482 527.629 164.199 528.18 165.441 529.281C166.684 530.371 167.328 531.877 167.375 533.799V542.553C167.375 544.299 167.598 545.688 168.043 546.719V547H164.633ZM159.236 544.521C160.256 544.521 161.223 544.258 162.137 543.73C163.051 543.203 163.713 542.518 164.123 541.674V537.771H161.574C157.59 537.771 155.598 538.938 155.598 541.27C155.598 542.289 155.938 543.086 156.617 543.66C157.297 544.234 158.17 544.521 159.236 544.521Z"
                fill="white" />
            <path
                d="M181.666 530.898C181.174 530.816 180.641 530.775 180.066 530.775C177.934 530.775 176.486 531.684 175.725 533.5V547H172.473V527.98H175.637L175.689 530.178C176.756 528.479 178.268 527.629 180.225 527.629C180.857 527.629 181.338 527.711 181.666 527.875V530.898Z"
                fill="white" />
            <path
                d="M191.949 544.697C193.109 544.697 194.123 544.346 194.99 543.643C195.857 542.939 196.338 542.061 196.432 541.006H199.508C199.449 542.096 199.074 543.133 198.383 544.117C197.691 545.102 196.766 545.887 195.605 546.473C194.457 547.059 193.238 547.352 191.949 547.352C189.359 547.352 187.297 546.49 185.762 544.768C184.238 543.033 183.477 540.666 183.477 537.666V537.121C183.477 535.27 183.816 533.623 184.496 532.182C185.176 530.74 186.148 529.621 187.414 528.824C188.691 528.027 190.197 527.629 191.932 527.629C194.064 527.629 195.834 528.268 197.24 529.545C198.658 530.822 199.414 532.48 199.508 534.52H196.432C196.338 533.289 195.869 532.281 195.025 531.496C194.193 530.699 193.162 530.301 191.932 530.301C190.279 530.301 188.996 530.898 188.082 532.094C187.18 533.277 186.729 534.994 186.729 537.244V537.859C186.729 540.051 187.18 541.738 188.082 542.922C188.984 544.105 190.273 544.697 191.949 544.697Z"
                fill="white" />
            <path
                d="M202.303 537.314C202.303 535.451 202.666 533.775 203.393 532.287C204.131 530.799 205.15 529.65 206.451 528.842C207.764 528.033 209.258 527.629 210.934 527.629C213.523 527.629 215.615 528.525 217.209 530.318C218.814 532.111 219.617 534.496 219.617 537.473V537.701C219.617 539.553 219.26 541.217 218.545 542.693C217.842 544.158 216.828 545.301 215.504 546.121C214.191 546.941 212.68 547.352 210.969 547.352C208.391 547.352 206.299 546.455 204.693 544.662C203.1 542.869 202.303 540.496 202.303 537.543V537.314ZM205.572 537.701C205.572 539.811 206.059 541.504 207.031 542.781C208.016 544.059 209.328 544.697 210.969 544.697C212.621 544.697 213.934 544.053 214.906 542.764C215.879 541.463 216.365 539.646 216.365 537.314C216.365 535.229 215.867 533.541 214.871 532.252C213.887 530.951 212.574 530.301 210.934 530.301C209.328 530.301 208.033 530.939 207.049 532.217C206.064 533.494 205.572 535.322 205.572 537.701Z"
                fill="white" />
            <path
                d="M234.77 541.955C234.77 541.076 234.436 540.396 233.768 539.916C233.111 539.424 231.957 539.002 230.305 538.65C228.664 538.299 227.357 537.877 226.385 537.385C225.424 536.893 224.709 536.307 224.24 535.627C223.783 534.947 223.555 534.139 223.555 533.201C223.555 531.643 224.211 530.324 225.523 529.246C226.848 528.168 228.535 527.629 230.586 527.629C232.742 527.629 234.488 528.186 235.824 529.299C237.172 530.412 237.846 531.836 237.846 533.57H234.576C234.576 532.68 234.195 531.912 233.434 531.268C232.684 530.623 231.734 530.301 230.586 530.301C229.402 530.301 228.477 530.559 227.809 531.074C227.141 531.59 226.807 532.264 226.807 533.096C226.807 533.881 227.117 534.473 227.738 534.871C228.359 535.27 229.479 535.65 231.096 536.014C232.725 536.377 234.043 536.811 235.051 537.314C236.059 537.818 236.803 538.428 237.283 539.143C237.775 539.846 238.021 540.707 238.021 541.727C238.021 543.426 237.342 544.791 235.982 545.822C234.623 546.842 232.859 547.352 230.691 547.352C229.168 547.352 227.82 547.082 226.648 546.543C225.477 546.004 224.557 545.254 223.889 544.293C223.232 543.32 222.904 542.271 222.904 541.146H226.156C226.215 542.236 226.648 543.104 227.457 543.748C228.277 544.381 229.355 544.697 230.691 544.697C231.922 544.697 232.906 544.451 233.645 543.959C234.395 543.455 234.77 542.787 234.77 541.955Z"
                fill="white" />
            <path
                d="M257.41 542.236L261.84 527.98H265.32L257.674 549.936C256.49 553.1 254.609 554.682 252.031 554.682L251.416 554.629L250.203 554.4V551.764L251.082 551.834C252.184 551.834 253.039 551.611 253.648 551.166C254.27 550.721 254.779 549.906 255.178 548.723L255.898 546.789L249.113 527.98H252.664L257.41 542.236Z"
                fill="white" />
            <path
                d="M286.15 542.518L293.463 521.406H297.154L287.662 547H284.674L275.199 521.406H278.873L286.15 542.518Z"
                fill="white" />
            <path
                d="M303.623 547H300.354V527.98H303.623V547ZM303.658 520.018H307.596L302.885 525.186H300.266L303.658 520.018Z"
                fill="white" />
            <path
                d="M316.613 544.697C317.773 544.697 318.787 544.346 319.654 543.643C320.521 542.939 321.002 542.061 321.096 541.006H324.172C324.113 542.096 323.738 543.133 323.047 544.117C322.355 545.102 321.43 545.887 320.27 546.473C319.121 547.059 317.902 547.352 316.613 547.352C314.023 547.352 311.961 546.49 310.426 544.768C308.902 543.033 308.141 540.666 308.141 537.666V537.121C308.141 535.27 308.48 533.623 309.16 532.182C309.84 530.74 310.812 529.621 312.078 528.824C313.355 528.027 314.861 527.629 316.596 527.629C318.729 527.629 320.498 528.268 321.904 529.545C323.322 530.822 324.078 532.48 324.172 534.52H321.096C321.002 533.289 320.533 532.281 319.689 531.496C318.857 530.699 317.826 530.301 316.596 530.301C314.943 530.301 313.66 530.898 312.746 532.094C311.844 533.277 311.393 534.994 311.393 537.244V537.859C311.393 540.051 311.844 541.738 312.746 542.922C313.648 544.105 314.938 544.697 316.613 544.697Z"
                fill="white" />
            <path
                d="M332.24 523.375V527.98H335.791V530.494H332.24V542.289C332.24 543.051 332.398 543.625 332.715 544.012C333.031 544.387 333.57 544.574 334.332 544.574C334.707 544.574 335.223 544.504 335.879 544.363V547C335.023 547.234 334.191 547.352 333.383 547.352C331.93 547.352 330.834 546.912 330.096 546.033C329.357 545.154 328.988 543.906 328.988 542.289V530.494H325.525V527.98H328.988V523.375H332.24Z"
                fill="white" />
            <path
                d="M338.393 537.314C338.393 535.451 338.756 533.775 339.482 532.287C340.221 530.799 341.24 529.65 342.541 528.842C343.854 528.033 345.348 527.629 347.023 527.629C349.613 527.629 351.705 528.525 353.299 530.318C354.904 532.111 355.707 534.496 355.707 537.473V537.701C355.707 539.553 355.35 541.217 354.635 542.693C353.932 544.158 352.918 545.301 351.594 546.121C350.281 546.941 348.77 547.352 347.059 547.352C344.48 547.352 342.389 546.455 340.783 544.662C339.189 542.869 338.393 540.496 338.393 537.543V537.314ZM341.662 537.701C341.662 539.811 342.148 541.504 343.121 542.781C344.105 544.059 345.418 544.697 347.059 544.697C348.711 544.697 350.023 544.053 350.996 542.764C351.969 541.463 352.455 539.646 352.455 537.314C352.455 535.229 351.957 533.541 350.961 532.252C349.977 530.951 348.664 530.301 347.023 530.301C345.418 530.301 344.123 530.939 343.139 532.217C342.154 533.494 341.662 535.322 341.662 537.701Z"
                fill="white" />
            <path
                d="M368.979 530.898C368.486 530.816 367.953 530.775 367.379 530.775C365.246 530.775 363.799 531.684 363.037 533.5V547H359.785V527.98H362.949L363.002 530.178C364.068 528.479 365.58 527.629 367.537 527.629C368.17 527.629 368.65 527.711 368.979 527.875V530.898Z"
                fill="white" />
            <path d="M395.785 532.691H381.125V529.861H395.785V532.691ZM395.785 539.986H381.125V537.174H395.785V539.986Z"
                fill="white" />
            <path d="M411.025 547H407.756V525.326L401.199 527.734V524.781L410.516 521.283H411.025V547Z" fill="white" />
            <path d="M437.076 523.234L426.477 547H423.066L433.631 524.078H419.779V521.406H437.076V523.234Z"
                fill="white" />
            <path
                d="M459.348 533.271H466.484V536.348H459.348V544.434H456.078V536.348H448.941V533.271H456.078V525.801H459.348V533.271Z"
                fill="white" />
            <path d="M489.74 547H486.471V525.326L479.914 527.734V524.781L489.23 521.283H489.74V547Z" fill="white" />
            <path
                d="M500.762 534.168L502.062 521.406H515.176V524.412H504.822L504.049 531.391C505.303 530.652 506.727 530.283 508.32 530.283C510.652 530.283 512.504 531.057 513.875 532.604C515.246 534.139 515.932 536.219 515.932 538.844C515.932 541.48 515.217 543.561 513.787 545.084C512.369 546.596 510.383 547.352 507.828 547.352C505.566 547.352 503.721 546.725 502.291 545.471C500.861 544.217 500.047 542.482 499.848 540.268H502.924C503.123 541.732 503.645 542.84 504.488 543.59C505.332 544.328 506.445 544.697 507.828 544.697C509.34 544.697 510.523 544.182 511.379 543.15C512.246 542.119 512.68 540.695 512.68 538.879C512.68 537.168 512.211 535.797 511.273 534.766C510.348 533.723 509.111 533.201 507.564 533.201C506.146 533.201 505.033 533.512 504.225 534.133L503.363 534.836L500.762 534.168Z"
                fill="white" />
            <path d="M543.617 532.691H528.957V529.861H543.617V532.691ZM543.617 539.986H528.957V537.174H543.617V539.986Z"
                fill="white" />
            <path
                d="M561.828 532.621H564.271C565.807 532.598 567.014 532.193 567.893 531.408C568.771 530.623 569.211 529.562 569.211 528.227C569.211 525.227 567.717 523.727 564.729 523.727C563.322 523.727 562.197 524.131 561.354 524.939C560.521 525.736 560.105 526.797 560.105 528.121H556.854C556.854 526.094 557.592 524.412 559.068 523.076C560.557 521.729 562.443 521.055 564.729 521.055C567.143 521.055 569.035 521.693 570.406 522.971C571.777 524.248 572.463 526.023 572.463 528.297C572.463 529.41 572.1 530.488 571.373 531.531C570.658 532.574 569.68 533.354 568.438 533.869C569.844 534.314 570.928 535.053 571.689 536.084C572.463 537.115 572.85 538.375 572.85 539.863C572.85 542.16 572.1 543.982 570.6 545.33C569.1 546.678 567.148 547.352 564.746 547.352C562.344 547.352 560.387 546.701 558.875 545.4C557.375 544.1 556.625 542.383 556.625 540.25H559.895C559.895 541.598 560.334 542.676 561.213 543.484C562.092 544.293 563.27 544.697 564.746 544.697C566.316 544.697 567.518 544.287 568.35 543.467C569.182 542.646 569.598 541.469 569.598 539.934C569.598 538.445 569.141 537.303 568.227 536.506C567.312 535.709 565.994 535.299 564.271 535.275H561.828V532.621Z"
                fill="white" />
            <path
                d="M594.084 547H577.314V544.662L586.174 534.818C587.486 533.33 588.389 532.123 588.881 531.197C589.385 530.26 589.637 529.293 589.637 528.297C589.637 526.961 589.232 525.865 588.424 525.01C587.615 524.154 586.537 523.727 585.189 523.727C583.572 523.727 582.312 524.189 581.41 525.115C580.52 526.029 580.074 527.307 580.074 528.947H576.822C576.822 526.592 577.578 524.688 579.09 523.234C580.613 521.781 582.646 521.055 585.189 521.055C587.568 521.055 589.449 521.682 590.832 522.936C592.215 524.178 592.906 525.836 592.906 527.91C592.906 530.43 591.301 533.43 588.09 536.91L581.234 544.346H594.084V547Z"
                fill="white" />
            <path
                d="M609.605 547C609.418 546.625 609.266 545.957 609.148 544.996C607.637 546.566 605.832 547.352 603.734 547.352C601.859 547.352 600.318 546.824 599.111 545.77C597.916 544.703 597.318 543.355 597.318 541.727C597.318 539.746 598.068 538.211 599.568 537.121C601.08 536.02 603.201 535.469 605.932 535.469H609.096V533.975C609.096 532.838 608.756 531.936 608.076 531.268C607.396 530.588 606.395 530.248 605.07 530.248C603.91 530.248 602.938 530.541 602.152 531.127C601.367 531.713 600.975 532.422 600.975 533.254H597.705C597.705 532.305 598.039 531.391 598.707 530.512C599.387 529.621 600.301 528.918 601.449 528.402C602.609 527.887 603.881 527.629 605.264 527.629C607.455 527.629 609.172 528.18 610.414 529.281C611.656 530.371 612.301 531.877 612.348 533.799V542.553C612.348 544.299 612.57 545.688 613.016 546.719V547H609.605ZM604.209 544.521C605.229 544.521 606.195 544.258 607.109 543.73C608.023 543.203 608.686 542.518 609.096 541.674V537.771H606.547C602.562 537.771 600.57 538.938 600.57 541.27C600.57 542.289 600.91 543.086 601.59 543.66C602.27 544.234 603.143 544.521 604.209 544.521Z"
                fill="white" />
            <path
                d="M620.521 527.98L620.627 530.371C622.08 528.543 623.979 527.629 626.322 527.629C630.342 527.629 632.369 529.896 632.404 534.432V547H629.152V534.414C629.141 533.043 628.824 532.029 628.203 531.373C627.594 530.717 626.639 530.389 625.338 530.389C624.283 530.389 623.357 530.67 622.561 531.232C621.764 531.795 621.143 532.533 620.697 533.447V547H617.445V527.98H620.521ZM631.279 520.562C631.279 521.828 630.916 522.854 630.189 523.639C629.475 524.424 628.578 524.816 627.5 524.816C627.02 524.816 626.604 524.758 626.252 524.641C625.9 524.523 625.438 524.283 624.863 523.92C624.301 523.557 623.891 523.34 623.633 523.27C623.387 523.188 623.1 523.146 622.771 523.146C622.291 523.146 621.881 523.334 621.541 523.709C621.201 524.072 621.031 524.541 621.031 525.115L618.852 524.992C618.852 523.738 619.203 522.701 619.906 521.881C620.621 521.061 621.523 520.65 622.613 520.65C623.023 520.65 623.393 520.709 623.721 520.826C624.049 520.943 624.494 521.172 625.057 521.512C625.619 521.852 626.047 522.074 626.34 522.18C626.645 522.285 626.979 522.338 627.342 522.338C627.846 522.338 628.262 522.139 628.59 521.74C628.93 521.342 629.1 520.879 629.1 520.352L631.279 520.562Z"
                fill="white" />
            <path
                d="M636.447 537.314C636.447 535.451 636.811 533.775 637.537 532.287C638.275 530.799 639.295 529.65 640.596 528.842C641.908 528.033 643.402 527.629 645.078 527.629C647.668 527.629 649.76 528.525 651.354 530.318C652.959 532.111 653.762 534.496 653.762 537.473V537.701C653.762 539.553 653.404 541.217 652.689 542.693C651.986 544.158 650.973 545.301 649.648 546.121C648.336 546.941 646.824 547.352 645.113 547.352C642.535 547.352 640.443 546.455 638.838 544.662C637.244 542.869 636.447 540.496 636.447 537.543V537.314ZM639.717 537.701C639.717 539.811 640.203 541.504 641.176 542.781C642.16 544.059 643.473 544.697 645.113 544.697C646.766 544.697 648.078 544.053 649.051 542.764C650.023 541.463 650.51 539.646 650.51 537.314C650.51 535.229 650.012 533.541 649.016 532.252C648.031 530.951 646.719 530.301 645.078 530.301C643.473 530.301 642.178 530.939 641.193 532.217C640.209 533.494 639.717 535.322 639.717 537.701Z"
                fill="white" />
            <path
                d="M668.914 541.955C668.914 541.076 668.58 540.396 667.912 539.916C667.256 539.424 666.102 539.002 664.449 538.65C662.809 538.299 661.502 537.877 660.529 537.385C659.568 536.893 658.854 536.307 658.385 535.627C657.928 534.947 657.699 534.139 657.699 533.201C657.699 531.643 658.355 530.324 659.668 529.246C660.992 528.168 662.68 527.629 664.73 527.629C666.887 527.629 668.633 528.186 669.969 529.299C671.316 530.412 671.99 531.836 671.99 533.57H668.721C668.721 532.68 668.34 531.912 667.578 531.268C666.828 530.623 665.879 530.301 664.73 530.301C663.547 530.301 662.621 530.559 661.953 531.074C661.285 531.59 660.951 532.264 660.951 533.096C660.951 533.881 661.262 534.473 661.883 534.871C662.504 535.27 663.623 535.65 665.24 536.014C666.869 536.377 668.188 536.811 669.195 537.314C670.203 537.818 670.947 538.428 671.428 539.143C671.92 539.846 672.166 540.707 672.166 541.727C672.166 543.426 671.486 544.791 670.127 545.822C668.768 546.842 667.004 547.352 664.836 547.352C663.312 547.352 661.965 547.082 660.793 546.543C659.621 546.004 658.701 545.254 658.033 544.293C657.377 543.32 657.049 542.271 657.049 541.146H660.301C660.359 542.236 660.793 543.104 661.602 543.748C662.422 544.381 663.5 544.697 664.836 544.697C666.066 544.697 667.051 544.451 667.789 543.959C668.539 543.455 668.914 542.787 668.914 541.955Z"
                fill="white" />
        </g>
    </g>
</svg>