<svg  viewBox="0 0 566 532" fill="none" xmlns="http://www.w3.org/2000/svg">
<g id="0126202">
<g id="Elena Gemelas (Ana y Rosa)">
<path d="M166.438 15.1699H155.346V24.2402H168.23V27H151.971V1.40625H168.055V4.18359H155.346V12.4102H166.438V15.1699Z" fill="white"/>
<path d="M175.455 27H172.203V0H175.455V27Z" fill="white"/>
<path d="M188.568 27.3516C185.99 27.3516 183.893 26.5078 182.275 24.8203C180.658 23.1211 179.85 20.8535 179.85 18.0176V17.4199C179.85 15.5332 180.207 13.8516 180.922 12.375C181.648 10.8867 182.656 9.72656 183.945 8.89453C185.246 8.05078 186.652 7.62891 188.164 7.62891C190.637 7.62891 192.559 8.44336 193.93 10.0723C195.301 11.7012 195.986 14.0332 195.986 17.0684V18.4219H183.102C183.148 20.2969 183.693 21.8145 184.736 22.9746C185.791 24.123 187.127 24.6973 188.744 24.6973C189.893 24.6973 190.865 24.4629 191.662 23.9941C192.459 23.5254 193.156 22.9043 193.754 22.1309L195.74 23.6777C194.146 26.127 191.756 27.3516 188.568 27.3516ZM188.164 10.3008C186.852 10.3008 185.75 10.7812 184.859 11.7422C183.969 12.6914 183.418 14.0273 183.207 15.75H192.734V15.5039C192.641 13.8516 192.195 12.5742 191.398 11.6719C190.602 10.7578 189.523 10.3008 188.164 10.3008Z" fill="white"/>
<path d="M202.842 7.98047L202.947 10.3711C204.4 8.54297 206.299 7.62891 208.643 7.62891C212.662 7.62891 214.689 9.89648 214.725 14.4316V27H211.473V14.4141C211.461 13.043 211.145 12.0293 210.523 11.373C209.914 10.7168 208.959 10.3887 207.658 10.3887C206.604 10.3887 205.678 10.6699 204.881 11.2324C204.084 11.7949 203.463 12.5332 203.018 13.4473V27H199.766V7.98047H202.842Z" fill="white"/>
<path d="M231.371 27C231.184 26.625 231.031 25.957 230.914 24.9961C229.402 26.5664 227.598 27.3516 225.5 27.3516C223.625 27.3516 222.084 26.8242 220.877 25.7695C219.682 24.7031 219.084 23.3555 219.084 21.7266C219.084 19.7461 219.834 18.2109 221.334 17.1211C222.846 16.0195 224.967 15.4688 227.697 15.4688H230.861V13.9746C230.861 12.8379 230.521 11.9355 229.842 11.2676C229.162 10.5879 228.16 10.248 226.836 10.248C225.676 10.248 224.703 10.541 223.918 11.127C223.133 11.7129 222.74 12.4219 222.74 13.2539H219.471C219.471 12.3047 219.805 11.3906 220.473 10.5117C221.152 9.62109 222.066 8.91797 223.215 8.40234C224.375 7.88672 225.646 7.62891 227.029 7.62891C229.221 7.62891 230.938 8.17969 232.18 9.28125C233.422 10.3711 234.066 11.877 234.113 13.7988V22.5527C234.113 24.2988 234.336 25.6875 234.781 26.7188V27H231.371ZM225.975 24.5215C226.994 24.5215 227.961 24.2578 228.875 23.7305C229.789 23.2031 230.451 22.5176 230.861 21.6738V17.7715H228.312C224.328 17.7715 222.336 18.9375 222.336 21.2695C222.336 22.2891 222.676 23.0859 223.355 23.6602C224.035 24.2344 224.908 24.5215 225.975 24.5215Z" fill="white"/>
<path d="M170.867 68.6426C170 69.8848 168.787 70.8164 167.229 71.4375C165.682 72.0469 163.877 72.3516 161.814 72.3516C159.729 72.3516 157.877 71.8652 156.26 70.8926C154.643 69.9082 153.389 68.5137 152.498 66.709C151.619 64.9043 151.168 62.8125 151.145 60.4336V58.2012C151.145 54.3457 152.041 51.3574 153.834 49.2363C155.639 47.1152 158.17 46.0547 161.428 46.0547C164.1 46.0547 166.25 46.7402 167.879 48.1113C169.508 49.4707 170.504 51.4043 170.867 53.9121H167.492C166.859 50.5254 164.844 48.832 161.445 48.832C159.184 48.832 157.467 49.6289 156.295 51.2227C155.135 52.8047 154.549 55.1016 154.537 58.1133V60.2051C154.537 63.0762 155.193 65.3613 156.506 67.0605C157.818 68.748 159.594 69.5918 161.832 69.5918C163.098 69.5918 164.205 69.4512 165.154 69.1699C166.104 68.8887 166.889 68.4141 167.51 67.7461V61.998H161.586V59.2559H170.867V68.6426Z" fill="white"/>
<path d="M183.893 72.3516C181.314 72.3516 179.217 71.5078 177.6 69.8203C175.982 68.1211 175.174 65.8535 175.174 63.0176V62.4199C175.174 60.5332 175.531 58.8516 176.246 57.375C176.973 55.8867 177.98 54.7266 179.27 53.8945C180.57 53.0508 181.977 52.6289 183.488 52.6289C185.961 52.6289 187.883 53.4434 189.254 55.0723C190.625 56.7012 191.311 59.0332 191.311 62.0684V63.4219H178.426C178.473 65.2969 179.018 66.8145 180.061 67.9746C181.115 69.123 182.451 69.6973 184.068 69.6973C185.217 69.6973 186.189 69.4629 186.986 68.9941C187.783 68.5254 188.48 67.9043 189.078 67.1309L191.064 68.6777C189.471 71.127 187.08 72.3516 183.893 72.3516ZM183.488 55.3008C182.176 55.3008 181.074 55.7812 180.184 56.7422C179.293 57.6914 178.742 59.0273 178.531 60.75H188.059V60.5039C187.965 58.8516 187.52 57.5742 186.723 56.6719C185.926 55.7578 184.848 55.3008 183.488 55.3008Z" fill="white"/>
<path d="M198.148 52.9805L198.236 55.0898C199.631 53.4492 201.512 52.6289 203.879 52.6289C206.539 52.6289 208.35 53.6484 209.311 55.6875C209.943 54.7734 210.764 54.0352 211.771 53.4727C212.791 52.9102 213.992 52.6289 215.375 52.6289C219.547 52.6289 221.668 54.8379 221.738 59.2559V72H218.486V59.4492C218.486 58.0898 218.176 57.0762 217.555 56.4082C216.934 55.7285 215.891 55.3887 214.426 55.3887C213.219 55.3887 212.217 55.752 211.42 56.4785C210.623 57.1934 210.16 58.1602 210.031 59.3789V72H206.762V59.5371C206.762 56.7715 205.408 55.3887 202.701 55.3887C200.568 55.3887 199.109 56.2969 198.324 58.1133V72H195.072V52.9805H198.148Z" fill="white"/>
<path d="M234.553 72.3516C231.975 72.3516 229.877 71.5078 228.26 69.8203C226.643 68.1211 225.834 65.8535 225.834 63.0176V62.4199C225.834 60.5332 226.191 58.8516 226.906 57.375C227.633 55.8867 228.641 54.7266 229.93 53.8945C231.23 53.0508 232.637 52.6289 234.148 52.6289C236.621 52.6289 238.543 53.4434 239.914 55.0723C241.285 56.7012 241.971 59.0332 241.971 62.0684V63.4219H229.086C229.133 65.2969 229.678 66.8145 230.721 67.9746C231.775 69.123 233.111 69.6973 234.729 69.6973C235.877 69.6973 236.85 69.4629 237.646 68.9941C238.443 68.5254 239.141 67.9043 239.738 67.1309L241.725 68.6777C240.131 71.127 237.74 72.3516 234.553 72.3516ZM234.148 55.3008C232.836 55.3008 231.734 55.7812 230.844 56.7422C229.953 57.6914 229.402 59.0273 229.191 60.75H238.719V60.5039C238.625 58.8516 238.18 57.5742 237.383 56.6719C236.586 55.7578 235.508 55.3008 234.148 55.3008Z" fill="white"/>
<path d="M249.283 72H246.031V45H249.283V72Z" fill="white"/>
<path d="M266.246 72C266.059 71.625 265.906 70.957 265.789 69.9961C264.277 71.5664 262.473 72.3516 260.375 72.3516C258.5 72.3516 256.959 71.8242 255.752 70.7695C254.557 69.7031 253.959 68.3555 253.959 66.7266C253.959 64.7461 254.709 63.2109 256.209 62.1211C257.721 61.0195 259.842 60.4688 262.572 60.4688H265.736V58.9746C265.736 57.8379 265.396 56.9355 264.717 56.2676C264.037 55.5879 263.035 55.248 261.711 55.248C260.551 55.248 259.578 55.541 258.793 56.127C258.008 56.7129 257.615 57.4219 257.615 58.2539H254.346C254.346 57.3047 254.68 56.3906 255.348 55.5117C256.027 54.6211 256.941 53.918 258.09 53.4023C259.25 52.8867 260.521 52.6289 261.904 52.6289C264.096 52.6289 265.812 53.1797 267.055 54.2812C268.297 55.3711 268.941 56.877 268.988 58.7988V67.5527C268.988 69.2988 269.211 70.6875 269.656 71.7188V72H266.246ZM260.85 69.5215C261.869 69.5215 262.836 69.2578 263.75 68.7305C264.664 68.2031 265.326 67.5176 265.736 66.6738V62.7715H263.188C259.203 62.7715 257.211 63.9375 257.211 66.2695C257.211 67.2891 257.551 68.0859 258.23 68.6602C258.91 69.2344 259.783 69.5215 260.85 69.5215Z" fill="white"/>
<path d="M285.16 66.9551C285.16 66.0762 284.826 65.3965 284.158 64.916C283.502 64.4238 282.348 64.002 280.695 63.6504C279.055 63.2988 277.748 62.877 276.775 62.3848C275.814 61.8926 275.1 61.3066 274.631 60.627C274.174 59.9473 273.945 59.1387 273.945 58.2012C273.945 56.6426 274.602 55.3242 275.914 54.2461C277.238 53.168 278.926 52.6289 280.977 52.6289C283.133 52.6289 284.879 53.1855 286.215 54.2988C287.562 55.4121 288.236 56.8359 288.236 58.5703H284.967C284.967 57.6797 284.586 56.9121 283.824 56.2676C283.074 55.623 282.125 55.3008 280.977 55.3008C279.793 55.3008 278.867 55.5586 278.199 56.0742C277.531 56.5898 277.197 57.2637 277.197 58.0957C277.197 58.8809 277.508 59.4727 278.129 59.8711C278.75 60.2695 279.869 60.6504 281.486 61.0137C283.115 61.377 284.434 61.8105 285.441 62.3145C286.449 62.8184 287.193 63.4277 287.674 64.1426C288.166 64.8457 288.412 65.707 288.412 66.7266C288.412 68.4258 287.732 69.791 286.373 70.8223C285.014 71.8418 283.25 72.3516 281.082 72.3516C279.559 72.3516 278.211 72.082 277.039 71.543C275.867 71.0039 274.947 70.2539 274.279 69.293C273.623 68.3203 273.295 67.2715 273.295 66.1465H276.547C276.605 67.2363 277.039 68.1035 277.848 68.748C278.668 69.3809 279.746 69.6973 281.082 69.6973C282.312 69.6973 283.297 69.4512 284.035 68.959C284.785 68.4551 285.16 67.7871 285.16 66.9551Z" fill="white"/>
<path d="M301.455 61.6113C301.455 58.9629 301.807 56.4199 302.51 53.9824C303.225 51.5449 304.285 49.3301 305.691 47.3379C307.098 45.3457 308.557 43.9395 310.068 43.1191L310.736 45.2637C309.025 46.5762 307.619 48.5801 306.518 51.2754C305.428 53.9707 304.83 56.9883 304.725 60.3281L304.707 61.8223C304.707 66.3457 305.533 70.2715 307.186 73.5996C308.182 75.5918 309.365 77.1504 310.736 78.2754L310.068 80.2617C308.51 79.3945 307.021 77.9414 305.604 75.9023C302.838 71.918 301.455 67.1543 301.455 61.6113Z" fill="white"/>
<path d="M328.525 65.3203H317.803L315.395 72H311.914L321.688 46.4062H324.641L334.432 72H330.969L328.525 65.3203ZM318.822 62.543H327.523L323.164 50.5723L318.822 62.543Z" fill="white"/>
<path d="M340.443 52.9805L340.549 55.3711C342.002 53.543 343.9 52.6289 346.244 52.6289C350.264 52.6289 352.291 54.8965 352.326 59.4316V72H349.074V59.4141C349.062 58.043 348.746 57.0293 348.125 56.373C347.516 55.7168 346.561 55.3887 345.26 55.3887C344.205 55.3887 343.279 55.6699 342.482 56.2324C341.686 56.7949 341.064 57.5332 340.619 58.4473V72H337.367V52.9805H340.443Z" fill="white"/>
<path d="M368.973 72C368.785 71.625 368.633 70.957 368.516 69.9961C367.004 71.5664 365.199 72.3516 363.102 72.3516C361.227 72.3516 359.686 71.8242 358.479 70.7695C357.283 69.7031 356.686 68.3555 356.686 66.7266C356.686 64.7461 357.436 63.2109 358.936 62.1211C360.447 61.0195 362.568 60.4688 365.299 60.4688H368.463V58.9746C368.463 57.8379 368.123 56.9355 367.443 56.2676C366.764 55.5879 365.762 55.248 364.438 55.248C363.277 55.248 362.305 55.541 361.52 56.127C360.734 56.7129 360.342 57.4219 360.342 58.2539H357.072C357.072 57.3047 357.406 56.3906 358.074 55.5117C358.754 54.6211 359.668 53.918 360.816 53.4023C361.977 52.8867 363.248 52.6289 364.631 52.6289C366.822 52.6289 368.539 53.1797 369.781 54.2812C371.023 55.3711 371.668 56.877 371.715 58.7988V67.5527C371.715 69.2988 371.938 70.6875 372.383 71.7188V72H368.973ZM363.576 69.5215C364.596 69.5215 365.562 69.2578 366.477 68.7305C367.391 68.2031 368.053 67.5176 368.463 66.6738V62.7715H365.914C361.93 62.7715 359.938 63.9375 359.938 66.2695C359.938 67.2891 360.277 68.0859 360.957 68.6602C361.637 69.2344 362.51 69.5215 363.576 69.5215Z" fill="white"/>
<path d="M391.965 67.2363L396.395 52.9805H399.875L392.229 74.9355C391.045 78.0996 389.164 79.6816 386.586 79.6816L385.971 79.6289L384.758 79.4004V76.7637L385.637 76.834C386.738 76.834 387.594 76.6113 388.203 76.166C388.824 75.7207 389.334 74.9062 389.732 73.7227L390.453 71.7891L383.668 52.9805H387.219L391.965 67.2363Z" fill="white"/>
<path d="M421.619 61.6465H415.607V72H412.215V46.4062H420.688C423.57 46.4062 425.785 47.0625 427.332 48.375C428.891 49.6875 429.67 51.5977 429.67 54.1055C429.67 55.6992 429.236 57.0879 428.369 58.2715C427.514 59.4551 426.318 60.3398 424.783 60.9258L430.795 71.7891V72H427.174L421.619 61.6465ZM415.607 58.8867H420.793C422.469 58.8867 423.799 58.4531 424.783 57.5859C425.779 56.7188 426.277 55.5586 426.277 54.1055C426.277 52.5234 425.803 51.3105 424.854 50.4668C423.916 49.623 422.557 49.1953 420.775 49.1836H415.607V58.8867Z" fill="white"/>
<path d="M433.045 62.3145C433.045 60.4512 433.408 58.7754 434.135 57.2871C434.873 55.7988 435.893 54.6504 437.193 53.8418C438.506 53.0332 440 52.6289 441.676 52.6289C444.266 52.6289 446.357 53.5254 447.951 55.3184C449.557 57.1113 450.359 59.4961 450.359 62.4727V62.7012C450.359 64.5527 450.002 66.2168 449.287 67.6934C448.584 69.1582 447.57 70.3008 446.246 71.1211C444.934 71.9414 443.422 72.3516 441.711 72.3516C439.133 72.3516 437.041 71.4551 435.436 69.6621C433.842 67.8691 433.045 65.4961 433.045 62.543V62.3145ZM436.314 62.7012C436.314 64.8105 436.801 66.5039 437.773 67.7812C438.758 69.0586 440.07 69.6973 441.711 69.6973C443.363 69.6973 444.676 69.0527 445.648 67.7637C446.621 66.4629 447.107 64.6465 447.107 62.3145C447.107 60.2285 446.609 58.541 445.613 57.252C444.629 55.9512 443.316 55.3008 441.676 55.3008C440.07 55.3008 438.775 55.9395 437.791 57.2168C436.807 58.4941 436.314 60.3223 436.314 62.7012Z" fill="white"/>
<path d="M465.512 66.9551C465.512 66.0762 465.178 65.3965 464.51 64.916C463.854 64.4238 462.699 64.002 461.047 63.6504C459.406 63.2988 458.1 62.877 457.127 62.3848C456.166 61.8926 455.451 61.3066 454.982 60.627C454.525 59.9473 454.297 59.1387 454.297 58.2012C454.297 56.6426 454.953 55.3242 456.266 54.2461C457.59 53.168 459.277 52.6289 461.328 52.6289C463.484 52.6289 465.23 53.1855 466.566 54.2988C467.914 55.4121 468.588 56.8359 468.588 58.5703H465.318C465.318 57.6797 464.938 56.9121 464.176 56.2676C463.426 55.623 462.477 55.3008 461.328 55.3008C460.145 55.3008 459.219 55.5586 458.551 56.0742C457.883 56.5898 457.549 57.2637 457.549 58.0957C457.549 58.8809 457.859 59.4727 458.48 59.8711C459.102 60.2695 460.221 60.6504 461.838 61.0137C463.467 61.377 464.785 61.8105 465.793 62.3145C466.801 62.8184 467.545 63.4277 468.025 64.1426C468.518 64.8457 468.764 65.707 468.764 66.7266C468.764 68.4258 468.084 69.791 466.725 70.8223C465.365 71.8418 463.602 72.3516 461.434 72.3516C459.91 72.3516 458.562 72.082 457.391 71.543C456.219 71.0039 455.299 70.2539 454.631 69.293C453.975 68.3203 453.646 67.2715 453.646 66.1465H456.898C456.957 67.2363 457.391 68.1035 458.199 68.748C459.02 69.3809 460.098 69.6973 461.434 69.6973C462.664 69.6973 463.648 69.4512 464.387 68.959C465.137 68.4551 465.512 67.7871 465.512 66.9551Z" fill="white"/>
<path d="M484.742 72C484.555 71.625 484.402 70.957 484.285 69.9961C482.773 71.5664 480.969 72.3516 478.871 72.3516C476.996 72.3516 475.455 71.8242 474.248 70.7695C473.053 69.7031 472.455 68.3555 472.455 66.7266C472.455 64.7461 473.205 63.2109 474.705 62.1211C476.217 61.0195 478.338 60.4688 481.068 60.4688H484.232V58.9746C484.232 57.8379 483.893 56.9355 483.213 56.2676C482.533 55.5879 481.531 55.248 480.207 55.248C479.047 55.248 478.074 55.541 477.289 56.127C476.504 56.7129 476.111 57.4219 476.111 58.2539H472.842C472.842 57.3047 473.176 56.3906 473.844 55.5117C474.523 54.6211 475.438 53.918 476.586 53.4023C477.746 52.8867 479.018 52.6289 480.4 52.6289C482.592 52.6289 484.309 53.1797 485.551 54.2812C486.793 55.3711 487.438 56.877 487.484 58.7988V67.5527C487.484 69.2988 487.707 70.6875 488.152 71.7188V72H484.742ZM479.346 69.5215C480.365 69.5215 481.332 69.2578 482.246 68.7305C483.16 68.2031 483.822 67.5176 484.232 66.6738V62.7715H481.684C477.699 62.7715 475.707 63.9375 475.707 66.2695C475.707 67.2891 476.047 68.0859 476.727 68.6602C477.406 69.2344 478.279 69.5215 479.346 69.5215Z" fill="white"/>
<path d="M500.088 61.7871C500.088 64.4004 499.742 66.9082 499.051 69.3105C498.371 71.7012 497.322 73.9102 495.904 75.9375C494.498 77.9648 493.021 79.4062 491.475 80.2617L490.789 78.2754C492.594 76.8926 494.041 74.748 495.131 71.8418C496.232 68.9238 496.795 65.6895 496.818 62.1387V61.5762C496.818 59.1152 496.561 56.8301 496.045 54.7207C495.529 52.5996 494.809 50.7012 493.883 49.0254C492.969 47.3496 491.938 46.043 490.789 45.1055L491.475 43.1191C493.021 43.9746 494.492 45.4043 495.887 47.4082C497.293 49.4121 498.342 51.6211 499.033 54.0352C499.736 56.4492 500.088 59.0332 500.088 61.7871Z" fill="white"/>
</g>
<g id="Dato I. Carmen es la mayor de las mujeres.">
<path d="M0.970703 153V127.406H8.19531C10.4219 127.406 12.3906 127.898 14.1016 128.883C15.8125 129.867 17.1309 131.268 18.0566 133.084C18.9941 134.9 19.4688 136.986 19.4805 139.342V140.977C19.4805 143.391 19.0117 145.506 18.0742 147.322C17.1484 149.139 15.8184 150.533 14.084 151.506C12.3613 152.479 10.3516 152.977 8.05469 153H0.970703ZM4.3457 130.184V150.24H7.89648C10.498 150.24 12.5195 149.432 13.9609 147.814C15.4141 146.197 16.1406 143.895 16.1406 140.906V139.412C16.1406 136.506 15.4551 134.25 14.084 132.645C12.7246 131.027 10.791 130.207 8.2832 130.184H4.3457Z" fill="white"/>
<path d="M35.8281 153C35.6406 152.625 35.4883 151.957 35.3711 150.996C33.8594 152.566 32.0547 153.352 29.957 153.352C28.082 153.352 26.541 152.824 25.334 151.77C24.1387 150.703 23.541 149.355 23.541 147.727C23.541 145.746 24.291 144.211 25.791 143.121C27.3027 142.02 29.4238 141.469 32.1543 141.469H35.3184V139.975C35.3184 138.838 34.9785 137.936 34.2988 137.268C33.6191 136.588 32.6172 136.248 31.293 136.248C30.1328 136.248 29.1602 136.541 28.375 137.127C27.5898 137.713 27.1973 138.422 27.1973 139.254H23.9277C23.9277 138.305 24.2617 137.391 24.9297 136.512C25.6094 135.621 26.5234 134.918 27.6719 134.402C28.832 133.887 30.1035 133.629 31.4863 133.629C33.6777 133.629 35.3945 134.18 36.6367 135.281C37.8789 136.371 38.5234 137.877 38.5703 139.799V148.553C38.5703 150.299 38.793 151.688 39.2383 152.719V153H35.8281ZM30.4316 150.521C31.4512 150.521 32.418 150.258 33.332 149.73C34.2461 149.203 34.9082 148.518 35.3184 147.674V143.771H32.7695C28.7852 143.771 26.793 144.938 26.793 147.27C26.793 148.289 27.1328 149.086 27.8125 149.66C28.4922 150.234 29.3652 150.521 30.4316 150.521Z" fill="white"/>
<path d="M48.0801 129.375V133.98H51.6309V136.494H48.0801V148.289C48.0801 149.051 48.2383 149.625 48.5547 150.012C48.8711 150.387 49.4102 150.574 50.1719 150.574C50.5469 150.574 51.0625 150.504 51.7188 150.363V153C50.8633 153.234 50.0312 153.352 49.2227 153.352C47.7695 153.352 46.6738 152.912 45.9355 152.033C45.1973 151.154 44.8281 149.906 44.8281 148.289V136.494H41.3652V133.98H44.8281V129.375H48.0801Z" fill="white"/>
<path d="M54.2324 143.314C54.2324 141.451 54.5957 139.775 55.3223 138.287C56.0605 136.799 57.0801 135.65 58.3809 134.842C59.6934 134.033 61.1875 133.629 62.8633 133.629C65.4531 133.629 67.5449 134.525 69.1387 136.318C70.7441 138.111 71.5469 140.496 71.5469 143.473V143.701C71.5469 145.553 71.1895 147.217 70.4746 148.693C69.7715 150.158 68.7578 151.301 67.4336 152.121C66.1211 152.941 64.6094 153.352 62.8984 153.352C60.3203 153.352 58.2285 152.455 56.623 150.662C55.0293 148.869 54.2324 146.496 54.2324 143.543V143.314ZM57.502 143.701C57.502 145.811 57.9883 147.504 58.9609 148.781C59.9453 150.059 61.2578 150.697 62.8984 150.697C64.5508 150.697 65.8633 150.053 66.8359 148.764C67.8086 147.463 68.2949 145.646 68.2949 143.314C68.2949 141.229 67.7969 139.541 66.8008 138.252C65.8164 136.951 64.5039 136.301 62.8633 136.301C61.2578 136.301 59.9629 136.939 58.9785 138.217C57.9941 139.494 57.502 141.322 57.502 143.701Z" fill="white"/>
<path d="M88.6855 153H85.3105V127.406H88.6855V153Z" fill="white"/>
<path d="M94.4336 151.295C94.4336 150.732 94.5977 150.264 94.9258 149.889C95.2656 149.514 95.7695 149.326 96.4375 149.326C97.1055 149.326 97.6094 149.514 97.9492 149.889C98.3008 150.264 98.4766 150.732 98.4766 151.295C98.4766 151.834 98.3008 152.285 97.9492 152.648C97.6094 153.012 97.1055 153.193 96.4375 153.193C95.7695 153.193 95.2656 153.012 94.9258 152.648C94.5977 152.285 94.4336 151.834 94.4336 151.295Z" fill="white"/>
<path d="M19.7969 186.879C19.4805 189.586 18.4785 191.678 16.791 193.154C15.1152 194.619 12.8828 195.352 10.0938 195.352C7.07031 195.352 4.64453 194.268 2.81641 192.1C1 189.932 0.0917969 187.031 0.0917969 183.398V180.938C0.0917969 178.559 0.513672 176.467 1.35742 174.662C2.21289 172.857 3.41992 171.475 4.97852 170.514C6.53711 169.541 8.3418 169.055 10.3926 169.055C13.1113 169.055 15.291 169.816 16.9316 171.34C18.5723 172.852 19.5273 174.949 19.7969 177.633H16.4043C16.1113 175.594 15.4727 174.117 14.4883 173.203C13.5156 172.289 12.1504 171.832 10.3926 171.832C8.23633 171.832 6.54297 172.629 5.3125 174.223C4.09375 175.816 3.48438 178.084 3.48438 181.025V183.504C3.48438 186.281 4.06445 188.49 5.22461 190.131C6.38477 191.771 8.00781 192.592 10.0938 192.592C11.9688 192.592 13.4043 192.17 14.4004 191.326C15.4082 190.471 16.0762 188.988 16.4043 186.879H19.7969Z" fill="white"/>
<path d="M35.6523 195C35.4648 194.625 35.3125 193.957 35.1953 192.996C33.6836 194.566 31.8789 195.352 29.7812 195.352C27.9062 195.352 26.3652 194.824 25.1582 193.77C23.9629 192.703 23.3652 191.355 23.3652 189.727C23.3652 187.746 24.1152 186.211 25.6152 185.121C27.127 184.02 29.248 183.469 31.9785 183.469H35.1426V181.975C35.1426 180.838 34.8027 179.936 34.123 179.268C33.4434 178.588 32.4414 178.248 31.1172 178.248C29.957 178.248 28.9844 178.541 28.1992 179.127C27.4141 179.713 27.0215 180.422 27.0215 181.254H23.752C23.752 180.305 24.0859 179.391 24.7539 178.512C25.4336 177.621 26.3477 176.918 27.4961 176.402C28.6562 175.887 29.9277 175.629 31.3105 175.629C33.502 175.629 35.2188 176.18 36.4609 177.281C37.7031 178.371 38.3477 179.877 38.3945 181.799V190.553C38.3945 192.299 38.6172 193.688 39.0625 194.719V195H35.6523ZM30.2559 192.521C31.2754 192.521 32.2422 192.258 33.1562 191.73C34.0703 191.203 34.7324 190.518 35.1426 189.674V185.771H32.5938C28.6094 185.771 26.6172 186.938 26.6172 189.27C26.6172 190.289 26.957 191.086 27.6367 191.66C28.3164 192.234 29.1895 192.521 30.2559 192.521Z" fill="white"/>
<path d="M52.6855 178.898C52.1934 178.816 51.6602 178.775 51.0859 178.775C48.9531 178.775 47.5059 179.684 46.7441 181.5V195H43.4922V175.98H46.6562L46.709 178.178C47.7754 176.479 49.2871 175.629 51.2441 175.629C51.877 175.629 52.3574 175.711 52.6855 175.875V178.898Z" fill="white"/>
<path d="M58.75 175.98L58.8379 178.09C60.2324 176.449 62.1133 175.629 64.4805 175.629C67.1406 175.629 68.9512 176.648 69.9121 178.688C70.5449 177.773 71.3652 177.035 72.373 176.473C73.3926 175.91 74.5938 175.629 75.9766 175.629C80.1484 175.629 82.2695 177.838 82.3398 182.256V195H79.0879V182.449C79.0879 181.09 78.7773 180.076 78.1562 179.408C77.5352 178.729 76.4922 178.389 75.0273 178.389C73.8203 178.389 72.8184 178.752 72.0215 179.479C71.2246 180.193 70.7617 181.16 70.6328 182.379V195H67.3633V182.537C67.3633 179.771 66.0098 178.389 63.3027 178.389C61.1699 178.389 59.7109 179.297 58.9258 181.113V195H55.6738V175.98H58.75Z" fill="white"/>
<path d="M95.1543 195.352C92.5762 195.352 90.4785 194.508 88.8613 192.82C87.2441 191.121 86.4355 188.854 86.4355 186.018V185.42C86.4355 183.533 86.793 181.852 87.5078 180.375C88.2344 178.887 89.2422 177.727 90.5312 176.895C91.832 176.051 93.2383 175.629 94.75 175.629C97.2227 175.629 99.1445 176.443 100.516 178.072C101.887 179.701 102.572 182.033 102.572 185.068V186.422H89.6875C89.7344 188.297 90.2793 189.814 91.3223 190.975C92.377 192.123 93.7129 192.697 95.3301 192.697C96.4785 192.697 97.4512 192.463 98.248 191.994C99.0449 191.525 99.7422 190.904 100.34 190.131L102.326 191.678C100.732 194.127 98.3418 195.352 95.1543 195.352ZM94.75 178.301C93.4375 178.301 92.3359 178.781 91.4453 179.742C90.5547 180.691 90.0039 182.027 89.793 183.75H99.3203V183.504C99.2266 181.852 98.7812 180.574 97.9844 179.672C97.1875 178.758 96.1094 178.301 94.75 178.301Z" fill="white"/>
<path d="M109.428 175.98L109.533 178.371C110.986 176.543 112.885 175.629 115.229 175.629C119.248 175.629 121.275 177.896 121.311 182.432V195H118.059V182.414C118.047 181.043 117.73 180.029 117.109 179.373C116.5 178.717 115.545 178.389 114.244 178.389C113.189 178.389 112.264 178.67 111.467 179.232C110.67 179.795 110.049 180.533 109.604 181.447V195H106.352V175.98H109.428Z" fill="white"/>
<path d="M143.037 195.352C140.459 195.352 138.361 194.508 136.744 192.82C135.127 191.121 134.318 188.854 134.318 186.018V185.42C134.318 183.533 134.676 181.852 135.391 180.375C136.117 178.887 137.125 177.727 138.414 176.895C139.715 176.051 141.121 175.629 142.633 175.629C145.105 175.629 147.027 176.443 148.398 178.072C149.77 179.701 150.455 182.033 150.455 185.068V186.422H137.57C137.617 188.297 138.162 189.814 139.205 190.975C140.26 192.123 141.596 192.697 143.213 192.697C144.361 192.697 145.334 192.463 146.131 191.994C146.928 191.525 147.625 190.904 148.223 190.131L150.209 191.678C148.615 194.127 146.225 195.352 143.037 195.352ZM142.633 178.301C141.32 178.301 140.219 178.781 139.328 179.742C138.438 180.691 137.887 182.027 137.676 183.75H147.203V183.504C147.109 181.852 146.664 180.574 145.867 179.672C145.07 178.758 143.992 178.301 142.633 178.301Z" fill="white"/>
<path d="M165.309 189.955C165.309 189.076 164.975 188.396 164.307 187.916C163.65 187.424 162.496 187.002 160.844 186.65C159.203 186.299 157.896 185.877 156.924 185.385C155.963 184.893 155.248 184.307 154.779 183.627C154.322 182.947 154.094 182.139 154.094 181.201C154.094 179.643 154.75 178.324 156.062 177.246C157.387 176.168 159.074 175.629 161.125 175.629C163.281 175.629 165.027 176.186 166.363 177.299C167.711 178.412 168.385 179.836 168.385 181.57H165.115C165.115 180.68 164.734 179.912 163.973 179.268C163.223 178.623 162.273 178.301 161.125 178.301C159.941 178.301 159.016 178.559 158.348 179.074C157.68 179.59 157.346 180.264 157.346 181.096C157.346 181.881 157.656 182.473 158.277 182.871C158.898 183.27 160.018 183.65 161.635 184.014C163.264 184.377 164.582 184.811 165.59 185.314C166.598 185.818 167.342 186.428 167.822 187.143C168.314 187.846 168.561 188.707 168.561 189.727C168.561 191.426 167.881 192.791 166.521 193.822C165.162 194.842 163.398 195.352 161.23 195.352C159.707 195.352 158.359 195.082 157.188 194.543C156.016 194.004 155.096 193.254 154.428 192.293C153.771 191.32 153.443 190.271 153.443 189.146H156.695C156.754 190.236 157.188 191.104 157.996 191.748C158.816 192.381 159.895 192.697 161.23 192.697C162.461 192.697 163.445 192.451 164.184 191.959C164.934 191.455 165.309 190.787 165.309 189.955Z" fill="white"/>
<path d="M185.26 195H182.008V168H185.26V195Z" fill="white"/>
<path d="M202.223 195C202.035 194.625 201.883 193.957 201.766 192.996C200.254 194.566 198.449 195.352 196.352 195.352C194.477 195.352 192.936 194.824 191.729 193.77C190.533 192.703 189.936 191.355 189.936 189.727C189.936 187.746 190.686 186.211 192.186 185.121C193.697 184.02 195.818 183.469 198.549 183.469H201.713V181.975C201.713 180.838 201.373 179.936 200.693 179.268C200.014 178.588 199.012 178.248 197.688 178.248C196.527 178.248 195.555 178.541 194.77 179.127C193.984 179.713 193.592 180.422 193.592 181.254H190.322C190.322 180.305 190.656 179.391 191.324 178.512C192.004 177.621 192.918 176.918 194.066 176.402C195.227 175.887 196.498 175.629 197.881 175.629C200.072 175.629 201.789 176.18 203.031 177.281C204.273 178.371 204.918 179.877 204.965 181.799V190.553C204.965 192.299 205.188 193.688 205.633 194.719V195H202.223ZM196.826 192.521C197.846 192.521 198.812 192.258 199.727 191.73C200.641 191.203 201.303 190.518 201.713 189.674V185.771H199.164C195.18 185.771 193.188 186.938 193.188 189.27C193.188 190.289 193.527 191.086 194.207 191.66C194.887 192.234 195.76 192.521 196.826 192.521Z" fill="white"/>
<path d="M222.051 175.98L222.139 178.09C223.533 176.449 225.414 175.629 227.781 175.629C230.441 175.629 232.252 176.648 233.213 178.688C233.846 177.773 234.666 177.035 235.674 176.473C236.693 175.91 237.895 175.629 239.277 175.629C243.449 175.629 245.57 177.838 245.641 182.256V195H242.389V182.449C242.389 181.09 242.078 180.076 241.457 179.408C240.836 178.729 239.793 178.389 238.328 178.389C237.121 178.389 236.119 178.752 235.322 179.479C234.525 180.193 234.062 181.16 233.934 182.379V195H230.664V182.537C230.664 179.771 229.311 178.389 226.604 178.389C224.471 178.389 223.012 179.297 222.227 181.113V195H218.975V175.98H222.051Z" fill="white"/>
<path d="M262.305 195C262.117 194.625 261.965 193.957 261.848 192.996C260.336 194.566 258.531 195.352 256.434 195.352C254.559 195.352 253.018 194.824 251.811 193.77C250.615 192.703 250.018 191.355 250.018 189.727C250.018 187.746 250.768 186.211 252.268 185.121C253.779 184.02 255.9 183.469 258.631 183.469H261.795V181.975C261.795 180.838 261.455 179.936 260.775 179.268C260.096 178.588 259.094 178.248 257.77 178.248C256.609 178.248 255.637 178.541 254.852 179.127C254.066 179.713 253.674 180.422 253.674 181.254H250.404C250.404 180.305 250.738 179.391 251.406 178.512C252.086 177.621 253 176.918 254.148 176.402C255.309 175.887 256.58 175.629 257.963 175.629C260.154 175.629 261.871 176.18 263.113 177.281C264.355 178.371 265 179.877 265.047 181.799V190.553C265.047 192.299 265.27 193.688 265.715 194.719V195H262.305ZM256.908 192.521C257.928 192.521 258.895 192.258 259.809 191.73C260.723 191.203 261.385 190.518 261.795 189.674V185.771H259.246C255.262 185.771 253.27 186.938 253.27 189.27C253.27 190.289 253.609 191.086 254.289 191.66C254.969 192.234 255.842 192.521 256.908 192.521Z" fill="white"/>
<path d="M276.086 190.236L280.516 175.98H283.996L276.35 197.936C275.166 201.1 273.285 202.682 270.707 202.682L270.092 202.629L268.879 202.4V199.764L269.758 199.834C270.859 199.834 271.715 199.611 272.324 199.166C272.945 198.721 273.455 197.906 273.854 196.723L274.574 194.789L267.789 175.98H271.34L276.086 190.236Z" fill="white"/>
<path d="M285.771 185.314C285.771 183.451 286.135 181.775 286.861 180.287C287.6 178.799 288.619 177.65 289.92 176.842C291.232 176.033 292.727 175.629 294.402 175.629C296.992 175.629 299.084 176.525 300.678 178.318C302.283 180.111 303.086 182.496 303.086 185.473V185.701C303.086 187.553 302.729 189.217 302.014 190.693C301.311 192.158 300.297 193.301 298.973 194.121C297.66 194.941 296.148 195.352 294.438 195.352C291.859 195.352 289.768 194.455 288.162 192.662C286.568 190.869 285.771 188.496 285.771 185.543V185.314ZM289.041 185.701C289.041 187.811 289.527 189.504 290.5 190.781C291.484 192.059 292.797 192.697 294.438 192.697C296.09 192.697 297.402 192.053 298.375 190.764C299.348 189.463 299.834 187.646 299.834 185.314C299.834 183.229 299.336 181.541 298.34 180.252C297.355 178.951 296.043 178.301 294.402 178.301C292.797 178.301 291.502 178.939 290.518 180.217C289.533 181.494 289.041 183.322 289.041 185.701Z" fill="white"/>
<path d="M316.357 178.898C315.865 178.816 315.332 178.775 314.758 178.775C312.625 178.775 311.178 179.684 310.416 181.5V195H307.164V175.98H310.328L310.381 178.178C311.447 176.479 312.959 175.629 314.916 175.629C315.549 175.629 316.029 175.711 316.357 175.875V178.898Z" fill="white"/>
<path d="M327.502 185.332C327.502 182.414 328.193 180.07 329.576 178.301C330.959 176.52 332.77 175.629 335.008 175.629C337.234 175.629 338.998 176.391 340.299 177.914V168H343.551V195H340.562L340.404 192.961C339.104 194.555 337.293 195.352 334.973 195.352C332.77 195.352 330.971 194.449 329.576 192.645C328.193 190.84 327.502 188.484 327.502 185.578V185.332ZM330.754 185.701C330.754 187.857 331.199 189.545 332.09 190.764C332.98 191.982 334.211 192.592 335.781 192.592C337.844 192.592 339.35 191.666 340.299 189.814V181.078C339.326 179.285 337.832 178.389 335.816 178.389C334.223 178.389 332.98 179.004 332.09 180.234C331.199 181.465 330.754 183.287 330.754 185.701Z" fill="white"/>
<path d="M356.506 195.352C353.928 195.352 351.83 194.508 350.213 192.82C348.596 191.121 347.787 188.854 347.787 186.018V185.42C347.787 183.533 348.145 181.852 348.859 180.375C349.586 178.887 350.594 177.727 351.883 176.895C353.184 176.051 354.59 175.629 356.102 175.629C358.574 175.629 360.496 176.443 361.867 178.072C363.238 179.701 363.924 182.033 363.924 185.068V186.422H351.039C351.086 188.297 351.631 189.814 352.674 190.975C353.729 192.123 355.064 192.697 356.682 192.697C357.83 192.697 358.803 192.463 359.6 191.994C360.396 191.525 361.094 190.904 361.691 190.131L363.678 191.678C362.084 194.127 359.693 195.352 356.506 195.352ZM356.102 178.301C354.789 178.301 353.688 178.781 352.797 179.742C351.906 180.691 351.355 182.027 351.145 183.75H360.672V183.504C360.578 181.852 360.133 180.574 359.336 179.672C358.539 178.758 357.461 178.301 356.102 178.301Z" fill="white"/>
<path d="M380.166 195H376.914V168H380.166V195Z" fill="white"/>
<path d="M397.129 195C396.941 194.625 396.789 193.957 396.672 192.996C395.16 194.566 393.355 195.352 391.258 195.352C389.383 195.352 387.842 194.824 386.635 193.77C385.439 192.703 384.842 191.355 384.842 189.727C384.842 187.746 385.592 186.211 387.092 185.121C388.604 184.02 390.725 183.469 393.455 183.469H396.619V181.975C396.619 180.838 396.279 179.936 395.6 179.268C394.92 178.588 393.918 178.248 392.594 178.248C391.434 178.248 390.461 178.541 389.676 179.127C388.891 179.713 388.498 180.422 388.498 181.254H385.229C385.229 180.305 385.562 179.391 386.23 178.512C386.91 177.621 387.824 176.918 388.973 176.402C390.133 175.887 391.404 175.629 392.787 175.629C394.979 175.629 396.695 176.18 397.938 177.281C399.18 178.371 399.824 179.877 399.871 181.799V190.553C399.871 192.299 400.094 193.688 400.539 194.719V195H397.129ZM391.732 192.521C392.752 192.521 393.719 192.258 394.633 191.73C395.547 191.203 396.209 190.518 396.619 189.674V185.771H394.07C390.086 185.771 388.094 186.938 388.094 189.27C388.094 190.289 388.434 191.086 389.113 191.66C389.793 192.234 390.666 192.521 391.732 192.521Z" fill="white"/>
<path d="M416.043 189.955C416.043 189.076 415.709 188.396 415.041 187.916C414.385 187.424 413.23 187.002 411.578 186.65C409.938 186.299 408.631 185.877 407.658 185.385C406.697 184.893 405.982 184.307 405.514 183.627C405.057 182.947 404.828 182.139 404.828 181.201C404.828 179.643 405.484 178.324 406.797 177.246C408.121 176.168 409.809 175.629 411.859 175.629C414.016 175.629 415.762 176.186 417.098 177.299C418.445 178.412 419.119 179.836 419.119 181.57H415.85C415.85 180.68 415.469 179.912 414.707 179.268C413.957 178.623 413.008 178.301 411.859 178.301C410.676 178.301 409.75 178.559 409.082 179.074C408.414 179.59 408.08 180.264 408.08 181.096C408.08 181.881 408.391 182.473 409.012 182.871C409.633 183.27 410.752 183.65 412.369 184.014C413.998 184.377 415.316 184.811 416.324 185.314C417.332 185.818 418.076 186.428 418.557 187.143C419.049 187.846 419.295 188.707 419.295 189.727C419.295 191.426 418.615 192.791 417.256 193.822C415.896 194.842 414.133 195.352 411.965 195.352C410.441 195.352 409.094 195.082 407.922 194.543C406.75 194.004 405.83 193.254 405.162 192.293C404.506 191.32 404.178 190.271 404.178 189.146H407.43C407.488 190.236 407.922 191.104 408.73 191.748C409.551 192.381 410.629 192.697 411.965 192.697C413.195 192.697 414.18 192.451 414.918 191.959C415.668 191.455 416.043 190.787 416.043 189.955Z" fill="white"/>
<path d="M435.52 175.98L435.607 178.09C437.002 176.449 438.883 175.629 441.25 175.629C443.91 175.629 445.721 176.648 446.682 178.688C447.314 177.773 448.135 177.035 449.143 176.473C450.162 175.91 451.363 175.629 452.746 175.629C456.918 175.629 459.039 177.838 459.109 182.256V195H455.857V182.449C455.857 181.09 455.547 180.076 454.926 179.408C454.305 178.729 453.262 178.389 451.797 178.389C450.59 178.389 449.588 178.752 448.791 179.479C447.994 180.193 447.531 181.16 447.402 182.379V195H444.133V182.537C444.133 179.771 442.779 178.389 440.072 178.389C437.939 178.389 436.48 179.297 435.695 181.113V195H432.443V175.98H435.52Z" fill="white"/>
<path d="M475.773 193.119C474.508 194.607 472.65 195.352 470.201 195.352C468.174 195.352 466.627 194.766 465.561 193.594C464.506 192.41 463.973 190.664 463.961 188.355V175.98H467.213V188.268C467.213 191.15 468.385 192.592 470.729 192.592C473.213 192.592 474.865 191.666 475.686 189.814V175.98H478.938V195H475.844L475.773 193.119Z" fill="white"/>
<path d="M487.252 175.98V197.197C487.252 200.854 485.594 202.682 482.277 202.682C481.562 202.682 480.9 202.576 480.291 202.365V199.764C480.666 199.857 481.158 199.904 481.768 199.904C482.494 199.904 483.045 199.705 483.42 199.307C483.807 198.92 484 198.24 484 197.268V175.98H487.252ZM483.666 170.936C483.666 170.42 483.824 169.98 484.141 169.617C484.469 169.242 484.943 169.055 485.564 169.055C486.197 169.055 486.678 169.236 487.006 169.6C487.334 169.963 487.498 170.408 487.498 170.936C487.498 171.463 487.334 171.902 487.006 172.254C486.678 172.605 486.197 172.781 485.564 172.781C484.932 172.781 484.457 172.605 484.141 172.254C483.824 171.902 483.666 171.463 483.666 170.936Z" fill="white"/>
<path d="M500.4 195.352C497.822 195.352 495.725 194.508 494.107 192.82C492.49 191.121 491.682 188.854 491.682 186.018V185.42C491.682 183.533 492.039 181.852 492.754 180.375C493.48 178.887 494.488 177.727 495.777 176.895C497.078 176.051 498.484 175.629 499.996 175.629C502.469 175.629 504.391 176.443 505.762 178.072C507.133 179.701 507.818 182.033 507.818 185.068V186.422H494.934C494.98 188.297 495.525 189.814 496.568 190.975C497.623 192.123 498.959 192.697 500.576 192.697C501.725 192.697 502.697 192.463 503.494 191.994C504.291 191.525 504.988 190.904 505.586 190.131L507.572 191.678C505.979 194.127 503.588 195.352 500.4 195.352ZM499.996 178.301C498.684 178.301 497.582 178.781 496.691 179.742C495.801 180.691 495.25 182.027 495.039 183.75H504.566V183.504C504.473 181.852 504.027 180.574 503.23 179.672C502.434 178.758 501.355 178.301 499.996 178.301Z" fill="white"/>
<path d="M520.791 178.898C520.299 178.816 519.766 178.775 519.191 178.775C517.059 178.775 515.611 179.684 514.85 181.5V195H511.598V175.98H514.762L514.814 178.178C515.881 176.479 517.393 175.629 519.35 175.629C519.982 175.629 520.463 175.711 520.791 175.875V178.898Z" fill="white"/>
<path d="M531.338 195.352C528.76 195.352 526.662 194.508 525.045 192.82C523.428 191.121 522.619 188.854 522.619 186.018V185.42C522.619 183.533 522.977 181.852 523.691 180.375C524.418 178.887 525.426 177.727 526.715 176.895C528.016 176.051 529.422 175.629 530.934 175.629C533.406 175.629 535.328 176.443 536.699 178.072C538.07 179.701 538.756 182.033 538.756 185.068V186.422H525.871C525.918 188.297 526.463 189.814 527.506 190.975C528.561 192.123 529.896 192.697 531.514 192.697C532.662 192.697 533.635 192.463 534.432 191.994C535.229 191.525 535.926 190.904 536.523 190.131L538.51 191.678C536.916 194.127 534.525 195.352 531.338 195.352ZM530.934 178.301C529.621 178.301 528.52 178.781 527.629 179.742C526.738 180.691 526.188 182.027 525.977 183.75H535.504V183.504C535.41 181.852 534.965 180.574 534.168 179.672C533.371 178.758 532.293 178.301 530.934 178.301Z" fill="white"/>
<path d="M553.609 189.955C553.609 189.076 553.275 188.396 552.607 187.916C551.951 187.424 550.797 187.002 549.145 186.65C547.504 186.299 546.197 185.877 545.225 185.385C544.264 184.893 543.549 184.307 543.08 183.627C542.623 182.947 542.395 182.139 542.395 181.201C542.395 179.643 543.051 178.324 544.363 177.246C545.688 176.168 547.375 175.629 549.426 175.629C551.582 175.629 553.328 176.186 554.664 177.299C556.012 178.412 556.686 179.836 556.686 181.57H553.416C553.416 180.68 553.035 179.912 552.273 179.268C551.523 178.623 550.574 178.301 549.426 178.301C548.242 178.301 547.316 178.559 546.648 179.074C545.98 179.59 545.646 180.264 545.646 181.096C545.646 181.881 545.957 182.473 546.578 182.871C547.199 183.27 548.318 183.65 549.936 184.014C551.564 184.377 552.883 184.811 553.891 185.314C554.898 185.818 555.643 186.428 556.123 187.143C556.615 187.846 556.861 188.707 556.861 189.727C556.861 191.426 556.182 192.791 554.822 193.822C553.463 194.842 551.699 195.352 549.531 195.352C548.008 195.352 546.66 195.082 545.488 194.543C544.316 194.004 543.396 193.254 542.729 192.293C542.072 191.32 541.744 190.271 541.744 189.146H544.996C545.055 190.236 545.488 191.104 546.297 191.748C547.117 192.381 548.195 192.697 549.531 192.697C550.762 192.697 551.746 192.451 552.484 191.959C553.234 191.455 553.609 190.787 553.609 189.955Z" fill="white"/>
<path d="M561.168 193.295C561.168 192.732 561.332 192.264 561.66 191.889C562 191.514 562.504 191.326 563.172 191.326C563.84 191.326 564.344 191.514 564.684 191.889C565.035 192.264 565.211 192.732 565.211 193.295C565.211 193.834 565.035 194.285 564.684 194.648C564.344 195.012 563.84 195.193 563.172 195.193C562.504 195.193 562 195.012 561.66 194.648C561.332 194.285 561.168 193.834 561.168 193.295Z" fill="white"/>
</g>
<g id="Dato II. Daniel es el hermano mayor.">
<path d="M0.970703 289V263.406H8.19531C10.4219 263.406 12.3906 263.898 14.1016 264.883C15.8125 265.867 17.1309 267.268 18.0566 269.084C18.9941 270.9 19.4688 272.986 19.4805 275.342V276.977C19.4805 279.391 19.0117 281.506 18.0742 283.322C17.1484 285.139 15.8184 286.533 14.084 287.506C12.3613 288.479 10.3516 288.977 8.05469 289H0.970703ZM4.3457 266.184V286.24H7.89648C10.498 286.24 12.5195 285.432 13.9609 283.814C15.4141 282.197 16.1406 279.895 16.1406 276.906V275.412C16.1406 272.506 15.4551 270.25 14.084 268.645C12.7246 267.027 10.791 266.207 8.2832 266.184H4.3457Z" fill="white"/>
<path d="M35.8281 289C35.6406 288.625 35.4883 287.957 35.3711 286.996C33.8594 288.566 32.0547 289.352 29.957 289.352C28.082 289.352 26.541 288.824 25.334 287.77C24.1387 286.703 23.541 285.355 23.541 283.727C23.541 281.746 24.291 280.211 25.791 279.121C27.3027 278.02 29.4238 277.469 32.1543 277.469H35.3184V275.975C35.3184 274.838 34.9785 273.936 34.2988 273.268C33.6191 272.588 32.6172 272.248 31.293 272.248C30.1328 272.248 29.1602 272.541 28.375 273.127C27.5898 273.713 27.1973 274.422 27.1973 275.254H23.9277C23.9277 274.305 24.2617 273.391 24.9297 272.512C25.6094 271.621 26.5234 270.918 27.6719 270.402C28.832 269.887 30.1035 269.629 31.4863 269.629C33.6777 269.629 35.3945 270.18 36.6367 271.281C37.8789 272.371 38.5234 273.877 38.5703 275.799V284.553C38.5703 286.299 38.793 287.688 39.2383 288.719V289H35.8281ZM30.4316 286.521C31.4512 286.521 32.418 286.258 33.332 285.73C34.2461 285.203 34.9082 284.518 35.3184 283.674V279.771H32.7695C28.7852 279.771 26.793 280.938 26.793 283.27C26.793 284.289 27.1328 285.086 27.8125 285.66C28.4922 286.234 29.3652 286.521 30.4316 286.521Z" fill="white"/>
<path d="M48.0801 265.375V269.98H51.6309V272.494H48.0801V284.289C48.0801 285.051 48.2383 285.625 48.5547 286.012C48.8711 286.387 49.4102 286.574 50.1719 286.574C50.5469 286.574 51.0625 286.504 51.7188 286.363V289C50.8633 289.234 50.0312 289.352 49.2227 289.352C47.7695 289.352 46.6738 288.912 45.9355 288.033C45.1973 287.154 44.8281 285.906 44.8281 284.289V272.494H41.3652V269.98H44.8281V265.375H48.0801Z" fill="white"/>
<path d="M54.2324 279.314C54.2324 277.451 54.5957 275.775 55.3223 274.287C56.0605 272.799 57.0801 271.65 58.3809 270.842C59.6934 270.033 61.1875 269.629 62.8633 269.629C65.4531 269.629 67.5449 270.525 69.1387 272.318C70.7441 274.111 71.5469 276.496 71.5469 279.473V279.701C71.5469 281.553 71.1895 283.217 70.4746 284.693C69.7715 286.158 68.7578 287.301 67.4336 288.121C66.1211 288.941 64.6094 289.352 62.8984 289.352C60.3203 289.352 58.2285 288.455 56.623 286.662C55.0293 284.869 54.2324 282.496 54.2324 279.543V279.314ZM57.502 279.701C57.502 281.811 57.9883 283.504 58.9609 284.781C59.9453 286.059 61.2578 286.697 62.8984 286.697C64.5508 286.697 65.8633 286.053 66.8359 284.764C67.8086 283.463 68.2949 281.646 68.2949 279.314C68.2949 277.229 67.7969 275.541 66.8008 274.252C65.8164 272.951 64.5039 272.301 62.8633 272.301C61.2578 272.301 59.9629 272.939 58.9785 274.217C57.9941 275.494 57.502 277.322 57.502 279.701Z" fill="white"/>
<path d="M88.6855 289H85.3105V263.406H88.6855V289Z" fill="white"/>
<path d="M98.4941 289H95.1191V263.406H98.4941V289Z" fill="white"/>
<path d="M104.242 287.295C104.242 286.732 104.406 286.264 104.734 285.889C105.074 285.514 105.578 285.326 106.246 285.326C106.914 285.326 107.418 285.514 107.758 285.889C108.109 286.264 108.285 286.732 108.285 287.295C108.285 287.834 108.109 288.285 107.758 288.648C107.418 289.012 106.914 289.193 106.246 289.193C105.578 289.193 105.074 289.012 104.734 288.648C104.406 288.285 104.242 287.834 104.242 287.295Z" fill="white"/>
<path d="M0.970703 331V305.406H8.19531C10.4219 305.406 12.3906 305.898 14.1016 306.883C15.8125 307.867 17.1309 309.268 18.0566 311.084C18.9941 312.9 19.4688 314.986 19.4805 317.342V318.977C19.4805 321.391 19.0117 323.506 18.0742 325.322C17.1484 327.139 15.8184 328.533 14.084 329.506C12.3613 330.479 10.3516 330.977 8.05469 331H0.970703ZM4.3457 308.184V328.24H7.89648C10.498 328.24 12.5195 327.432 13.9609 325.814C15.4141 324.197 16.1406 321.895 16.1406 318.906V317.412C16.1406 314.506 15.4551 312.25 14.084 310.645C12.7246 309.027 10.791 308.207 8.2832 308.184H4.3457Z" fill="white"/>
<path d="M35.8281 331C35.6406 330.625 35.4883 329.957 35.3711 328.996C33.8594 330.566 32.0547 331.352 29.957 331.352C28.082 331.352 26.541 330.824 25.334 329.77C24.1387 328.703 23.541 327.355 23.541 325.727C23.541 323.746 24.291 322.211 25.791 321.121C27.3027 320.02 29.4238 319.469 32.1543 319.469H35.3184V317.975C35.3184 316.838 34.9785 315.936 34.2988 315.268C33.6191 314.588 32.6172 314.248 31.293 314.248C30.1328 314.248 29.1602 314.541 28.375 315.127C27.5898 315.713 27.1973 316.422 27.1973 317.254H23.9277C23.9277 316.305 24.2617 315.391 24.9297 314.512C25.6094 313.621 26.5234 312.918 27.6719 312.402C28.832 311.887 30.1035 311.629 31.4863 311.629C33.6777 311.629 35.3945 312.18 36.6367 313.281C37.8789 314.371 38.5234 315.877 38.5703 317.799V326.553C38.5703 328.299 38.793 329.688 39.2383 330.719V331H35.8281ZM30.4316 328.521C31.4512 328.521 32.418 328.258 33.332 327.73C34.2461 327.203 34.9082 326.518 35.3184 325.674V321.771H32.7695C28.7852 321.771 26.793 322.938 26.793 325.27C26.793 326.289 27.1328 327.086 27.8125 327.66C28.4922 328.234 29.3652 328.521 30.4316 328.521Z" fill="white"/>
<path d="M46.7441 311.98L46.8496 314.371C48.3027 312.543 50.2012 311.629 52.5449 311.629C56.5645 311.629 58.5918 313.896 58.627 318.432V331H55.375V318.414C55.3633 317.043 55.0469 316.029 54.4258 315.373C53.8164 314.717 52.8613 314.389 51.5605 314.389C50.5059 314.389 49.5801 314.67 48.7832 315.232C47.9863 315.795 47.3652 316.533 46.9199 317.447V331H43.668V311.98H46.7441Z" fill="white"/>
<path d="M67.0645 331H63.8125V311.98H67.0645V331ZM63.5488 306.936C63.5488 306.408 63.707 305.963 64.0234 305.6C64.3516 305.236 64.832 305.055 65.4648 305.055C66.0977 305.055 66.5781 305.236 66.9062 305.6C67.2344 305.963 67.3984 306.408 67.3984 306.936C67.3984 307.463 67.2344 307.902 66.9062 308.254C66.5781 308.605 66.0977 308.781 65.4648 308.781C64.832 308.781 64.3516 308.605 64.0234 308.254C63.707 307.902 63.5488 307.463 63.5488 306.936Z" fill="white"/>
<path d="M80.1777 331.352C77.5996 331.352 75.502 330.508 73.8848 328.82C72.2676 327.121 71.459 324.854 71.459 322.018V321.42C71.459 319.533 71.8164 317.852 72.5312 316.375C73.2578 314.887 74.2656 313.727 75.5547 312.895C76.8555 312.051 78.2617 311.629 79.7734 311.629C82.2461 311.629 84.168 312.443 85.5391 314.072C86.9102 315.701 87.5957 318.033 87.5957 321.068V322.422H74.7109C74.7578 324.297 75.3027 325.814 76.3457 326.975C77.4004 328.123 78.7363 328.697 80.3535 328.697C81.502 328.697 82.4746 328.463 83.2715 327.994C84.0684 327.525 84.7656 326.904 85.3633 326.131L87.3496 327.678C85.7559 330.127 83.3652 331.352 80.1777 331.352ZM79.7734 314.301C78.4609 314.301 77.3594 314.781 76.4688 315.742C75.5781 316.691 75.0273 318.027 74.8164 319.75H84.3438V319.504C84.25 317.852 83.8047 316.574 83.0078 315.672C82.2109 314.758 81.1328 314.301 79.7734 314.301Z" fill="white"/>
<path d="M94.9082 331H91.6562V304H94.9082V331Z" fill="white"/>
<path d="M116.951 331.352C114.373 331.352 112.275 330.508 110.658 328.82C109.041 327.121 108.232 324.854 108.232 322.018V321.42C108.232 319.533 108.59 317.852 109.305 316.375C110.031 314.887 111.039 313.727 112.328 312.895C113.629 312.051 115.035 311.629 116.547 311.629C119.02 311.629 120.941 312.443 122.312 314.072C123.684 315.701 124.369 318.033 124.369 321.068V322.422H111.484C111.531 324.297 112.076 325.814 113.119 326.975C114.174 328.123 115.51 328.697 117.127 328.697C118.275 328.697 119.248 328.463 120.045 327.994C120.842 327.525 121.539 326.904 122.137 326.131L124.123 327.678C122.529 330.127 120.139 331.352 116.951 331.352ZM116.547 314.301C115.234 314.301 114.133 314.781 113.242 315.742C112.352 316.691 111.801 318.027 111.59 319.75H121.117V319.504C121.023 317.852 120.578 316.574 119.781 315.672C118.984 314.758 117.906 314.301 116.547 314.301Z" fill="white"/>
<path d="M139.223 325.955C139.223 325.076 138.889 324.396 138.221 323.916C137.564 323.424 136.41 323.002 134.758 322.65C133.117 322.299 131.811 321.877 130.838 321.385C129.877 320.893 129.162 320.307 128.693 319.627C128.236 318.947 128.008 318.139 128.008 317.201C128.008 315.643 128.664 314.324 129.977 313.246C131.301 312.168 132.988 311.629 135.039 311.629C137.195 311.629 138.941 312.186 140.277 313.299C141.625 314.412 142.299 315.836 142.299 317.57H139.029C139.029 316.68 138.648 315.912 137.887 315.268C137.137 314.623 136.188 314.301 135.039 314.301C133.855 314.301 132.93 314.559 132.262 315.074C131.594 315.59 131.26 316.264 131.26 317.096C131.26 317.881 131.57 318.473 132.191 318.871C132.812 319.27 133.932 319.65 135.549 320.014C137.178 320.377 138.496 320.811 139.504 321.314C140.512 321.818 141.256 322.428 141.736 323.143C142.229 323.846 142.475 324.707 142.475 325.727C142.475 327.426 141.795 328.791 140.436 329.822C139.076 330.842 137.312 331.352 135.145 331.352C133.621 331.352 132.273 331.082 131.102 330.543C129.93 330.004 129.01 329.254 128.342 328.293C127.686 327.32 127.357 326.271 127.357 325.146H130.609C130.668 326.236 131.102 327.104 131.91 327.748C132.73 328.381 133.809 328.697 135.145 328.697C136.375 328.697 137.359 328.451 138.098 327.959C138.848 327.455 139.223 326.787 139.223 325.955Z" fill="white"/>
<path d="M163.533 331.352C160.955 331.352 158.857 330.508 157.24 328.82C155.623 327.121 154.814 324.854 154.814 322.018V321.42C154.814 319.533 155.172 317.852 155.887 316.375C156.613 314.887 157.621 313.727 158.91 312.895C160.211 312.051 161.617 311.629 163.129 311.629C165.602 311.629 167.523 312.443 168.895 314.072C170.266 315.701 170.951 318.033 170.951 321.068V322.422H158.066C158.113 324.297 158.658 325.814 159.701 326.975C160.756 328.123 162.092 328.697 163.709 328.697C164.857 328.697 165.83 328.463 166.627 327.994C167.424 327.525 168.121 326.904 168.719 326.131L170.705 327.678C169.111 330.127 166.721 331.352 163.533 331.352ZM163.129 314.301C161.816 314.301 160.715 314.781 159.824 315.742C158.934 316.691 158.383 318.027 158.172 319.75H167.699V319.504C167.605 317.852 167.16 316.574 166.363 315.672C165.566 314.758 164.488 314.301 163.129 314.301Z" fill="white"/>
<path d="M178.264 331H175.012V304H178.264V331Z" fill="white"/>
<path d="M195.666 314.283C197.107 312.514 198.982 311.629 201.291 311.629C205.311 311.629 207.338 313.896 207.373 318.432V331H204.121V318.414C204.109 317.043 203.793 316.029 203.172 315.373C202.562 314.717 201.607 314.389 200.307 314.389C199.252 314.389 198.326 314.67 197.529 315.232C196.732 315.795 196.111 316.533 195.666 317.447V331H192.414V304H195.666V314.283Z" fill="white"/>
<path d="M220.135 331.352C217.557 331.352 215.459 330.508 213.842 328.82C212.225 327.121 211.416 324.854 211.416 322.018V321.42C211.416 319.533 211.773 317.852 212.488 316.375C213.215 314.887 214.223 313.727 215.512 312.895C216.812 312.051 218.219 311.629 219.73 311.629C222.203 311.629 224.125 312.443 225.496 314.072C226.867 315.701 227.553 318.033 227.553 321.068V322.422H214.668C214.715 324.297 215.26 325.814 216.303 326.975C217.357 328.123 218.693 328.697 220.311 328.697C221.459 328.697 222.432 328.463 223.229 327.994C224.025 327.525 224.723 326.904 225.32 326.131L227.307 327.678C225.713 330.127 223.322 331.352 220.135 331.352ZM219.73 314.301C218.418 314.301 217.316 314.781 216.426 315.742C215.535 316.691 214.984 318.027 214.773 319.75H224.301V319.504C224.207 317.852 223.762 316.574 222.965 315.672C222.168 314.758 221.09 314.301 219.73 314.301Z" fill="white"/>
<path d="M240.525 314.898C240.033 314.816 239.5 314.775 238.926 314.775C236.793 314.775 235.346 315.684 234.584 317.5V331H231.332V311.98H234.496L234.549 314.178C235.615 312.479 237.127 311.629 239.084 311.629C239.717 311.629 240.197 311.711 240.525 311.875V314.898Z" fill="white"/>
<path d="M246.59 311.98L246.678 314.09C248.072 312.449 249.953 311.629 252.32 311.629C254.98 311.629 256.791 312.648 257.752 314.688C258.385 313.773 259.205 313.035 260.213 312.473C261.232 311.91 262.434 311.629 263.816 311.629C267.988 311.629 270.109 313.838 270.18 318.256V331H266.928V318.449C266.928 317.09 266.617 316.076 265.996 315.408C265.375 314.729 264.332 314.389 262.867 314.389C261.66 314.389 260.658 314.752 259.861 315.479C259.064 316.193 258.602 317.16 258.473 318.379V331H255.203V318.537C255.203 315.771 253.85 314.389 251.143 314.389C249.01 314.389 247.551 315.297 246.766 317.113V331H243.514V311.98H246.59Z" fill="white"/>
<path d="M286.844 331C286.656 330.625 286.504 329.957 286.387 328.996C284.875 330.566 283.07 331.352 280.973 331.352C279.098 331.352 277.557 330.824 276.35 329.77C275.154 328.703 274.557 327.355 274.557 325.727C274.557 323.746 275.307 322.211 276.807 321.121C278.318 320.02 280.439 319.469 283.17 319.469H286.334V317.975C286.334 316.838 285.994 315.936 285.314 315.268C284.635 314.588 283.633 314.248 282.309 314.248C281.148 314.248 280.176 314.541 279.391 315.127C278.605 315.713 278.213 316.422 278.213 317.254H274.943C274.943 316.305 275.277 315.391 275.945 314.512C276.625 313.621 277.539 312.918 278.688 312.402C279.848 311.887 281.119 311.629 282.502 311.629C284.693 311.629 286.41 312.18 287.652 313.281C288.895 314.371 289.539 315.877 289.586 317.799V326.553C289.586 328.299 289.809 329.688 290.254 330.719V331H286.844ZM281.447 328.521C282.467 328.521 283.434 328.258 284.348 327.73C285.262 327.203 285.924 326.518 286.334 325.674V321.771H283.785C279.801 321.771 277.809 322.938 277.809 325.27C277.809 326.289 278.148 327.086 278.828 327.66C279.508 328.234 280.381 328.521 281.447 328.521Z" fill="white"/>
<path d="M297.76 311.98L297.865 314.371C299.318 312.543 301.217 311.629 303.561 311.629C307.58 311.629 309.607 313.896 309.643 318.432V331H306.391V318.414C306.379 317.043 306.062 316.029 305.441 315.373C304.832 314.717 303.877 314.389 302.576 314.389C301.521 314.389 300.596 314.67 299.799 315.232C299.002 315.795 298.381 316.533 297.936 317.447V331H294.684V311.98H297.76Z" fill="white"/>
<path d="M313.686 321.314C313.686 319.451 314.049 317.775 314.775 316.287C315.514 314.799 316.533 313.65 317.834 312.842C319.146 312.033 320.641 311.629 322.316 311.629C324.906 311.629 326.998 312.525 328.592 314.318C330.197 316.111 331 318.496 331 321.473V321.701C331 323.553 330.643 325.217 329.928 326.693C329.225 328.158 328.211 329.301 326.887 330.121C325.574 330.941 324.062 331.352 322.352 331.352C319.773 331.352 317.682 330.455 316.076 328.662C314.482 326.869 313.686 324.496 313.686 321.543V321.314ZM316.955 321.701C316.955 323.811 317.441 325.504 318.414 326.781C319.398 328.059 320.711 328.697 322.352 328.697C324.004 328.697 325.316 328.053 326.289 326.764C327.262 325.463 327.748 323.646 327.748 321.314C327.748 319.229 327.25 317.541 326.254 316.252C325.27 314.951 323.957 314.301 322.316 314.301C320.711 314.301 319.416 314.939 318.432 316.217C317.447 317.494 316.955 319.322 316.955 321.701Z" fill="white"/>
<path d="M347.066 311.98L347.154 314.09C348.549 312.449 350.43 311.629 352.797 311.629C355.457 311.629 357.268 312.648 358.229 314.688C358.861 313.773 359.682 313.035 360.689 312.473C361.709 311.91 362.91 311.629 364.293 311.629C368.465 311.629 370.586 313.838 370.656 318.256V331H367.404V318.449C367.404 317.09 367.094 316.076 366.473 315.408C365.852 314.729 364.809 314.389 363.344 314.389C362.137 314.389 361.135 314.752 360.338 315.479C359.541 316.193 359.078 317.16 358.949 318.379V331H355.68V318.537C355.68 315.771 354.326 314.389 351.619 314.389C349.486 314.389 348.027 315.297 347.242 317.113V331H343.99V311.98H347.066Z" fill="white"/>
<path d="M387.32 331C387.133 330.625 386.98 329.957 386.863 328.996C385.352 330.566 383.547 331.352 381.449 331.352C379.574 331.352 378.033 330.824 376.826 329.77C375.631 328.703 375.033 327.355 375.033 325.727C375.033 323.746 375.783 322.211 377.283 321.121C378.795 320.02 380.916 319.469 383.646 319.469H386.811V317.975C386.811 316.838 386.471 315.936 385.791 315.268C385.111 314.588 384.109 314.248 382.785 314.248C381.625 314.248 380.652 314.541 379.867 315.127C379.082 315.713 378.689 316.422 378.689 317.254H375.42C375.42 316.305 375.754 315.391 376.422 314.512C377.102 313.621 378.016 312.918 379.164 312.402C380.324 311.887 381.596 311.629 382.979 311.629C385.17 311.629 386.887 312.18 388.129 313.281C389.371 314.371 390.016 315.877 390.062 317.799V326.553C390.062 328.299 390.285 329.688 390.73 330.719V331H387.32ZM381.924 328.521C382.943 328.521 383.91 328.258 384.824 327.73C385.738 327.203 386.4 326.518 386.811 325.674V321.771H384.262C380.277 321.771 378.285 322.938 378.285 325.27C378.285 326.289 378.625 327.086 379.305 327.66C379.984 328.234 380.857 328.521 381.924 328.521Z" fill="white"/>
<path d="M401.102 326.236L405.531 311.98H409.012L401.365 333.936C400.182 337.1 398.301 338.682 395.723 338.682L395.107 338.629L393.895 338.4V335.764L394.773 335.834C395.875 335.834 396.73 335.611 397.34 335.166C397.961 334.721 398.471 333.906 398.869 332.723L399.59 330.789L392.805 311.98H396.355L401.102 326.236Z" fill="white"/>
<path d="M410.787 321.314C410.787 319.451 411.15 317.775 411.877 316.287C412.615 314.799 413.635 313.65 414.936 312.842C416.248 312.033 417.742 311.629 419.418 311.629C422.008 311.629 424.1 312.525 425.693 314.318C427.299 316.111 428.102 318.496 428.102 321.473V321.701C428.102 323.553 427.744 325.217 427.029 326.693C426.326 328.158 425.312 329.301 423.988 330.121C422.676 330.941 421.164 331.352 419.453 331.352C416.875 331.352 414.783 330.455 413.178 328.662C411.584 326.869 410.787 324.496 410.787 321.543V321.314ZM414.057 321.701C414.057 323.811 414.543 325.504 415.516 326.781C416.5 328.059 417.812 328.697 419.453 328.697C421.105 328.697 422.418 328.053 423.391 326.764C424.363 325.463 424.85 323.646 424.85 321.314C424.85 319.229 424.352 317.541 423.355 316.252C422.371 314.951 421.059 314.301 419.418 314.301C417.812 314.301 416.518 314.939 415.533 316.217C414.549 317.494 414.057 319.322 414.057 321.701Z" fill="white"/>
<path d="M441.373 314.898C440.881 314.816 440.348 314.775 439.773 314.775C437.641 314.775 436.193 315.684 435.432 317.5V331H432.18V311.98H435.344L435.396 314.178C436.463 312.479 437.975 311.629 439.932 311.629C440.564 311.629 441.045 311.711 441.373 311.875V314.898Z" fill="white"/>
<path d="M442.27 329.295C442.27 328.732 442.434 328.264 442.762 327.889C443.102 327.514 443.605 327.326 444.273 327.326C444.941 327.326 445.445 327.514 445.785 327.889C446.137 328.264 446.312 328.732 446.312 329.295C446.312 329.834 446.137 330.285 445.785 330.648C445.445 331.012 444.941 331.193 444.273 331.193C443.605 331.193 443.102 331.012 442.762 330.648C442.434 330.285 442.27 329.834 442.27 329.295Z" fill="white"/>
</g>
<g id="Daniel Carmen Elena Gemelas (Ana y Rosa)">
<path d="M138.971 388V362.406H146.195C148.422 362.406 150.391 362.898 152.102 363.883C153.812 364.867 155.131 366.268 156.057 368.084C156.994 369.9 157.469 371.986 157.48 374.342V375.977C157.48 378.391 157.012 380.506 156.074 382.322C155.148 384.139 153.818 385.533 152.084 386.506C150.361 387.479 148.352 387.977 146.055 388H138.971ZM142.346 365.184V385.24H145.896C148.498 385.24 150.52 384.432 151.961 382.814C153.414 381.197 154.141 378.895 154.141 375.906V374.412C154.141 371.506 153.455 369.25 152.084 367.645C150.725 366.027 148.791 365.207 146.283 365.184H142.346Z" fill="white"/>
<path d="M173.828 388C173.641 387.625 173.488 386.957 173.371 385.996C171.859 387.566 170.055 388.352 167.957 388.352C166.082 388.352 164.541 387.824 163.334 386.77C162.139 385.703 161.541 384.355 161.541 382.727C161.541 380.746 162.291 379.211 163.791 378.121C165.303 377.02 167.424 376.469 170.154 376.469H173.318V374.975C173.318 373.838 172.979 372.936 172.299 372.268C171.619 371.588 170.617 371.248 169.293 371.248C168.133 371.248 167.16 371.541 166.375 372.127C165.59 372.713 165.197 373.422 165.197 374.254H161.928C161.928 373.305 162.262 372.391 162.93 371.512C163.609 370.621 164.523 369.918 165.672 369.402C166.832 368.887 168.104 368.629 169.486 368.629C171.678 368.629 173.395 369.18 174.637 370.281C175.879 371.371 176.523 372.877 176.57 374.799V383.553C176.57 385.299 176.793 386.688 177.238 387.719V388H173.828ZM168.432 385.521C169.451 385.521 170.418 385.258 171.332 384.73C172.246 384.203 172.908 383.518 173.318 382.674V378.771H170.77C166.785 378.771 164.793 379.938 164.793 382.27C164.793 383.289 165.133 384.086 165.812 384.66C166.492 385.234 167.365 385.521 168.432 385.521Z" fill="white"/>
<path d="M184.744 368.98L184.85 371.371C186.303 369.543 188.201 368.629 190.545 368.629C194.564 368.629 196.592 370.896 196.627 375.432V388H193.375V375.414C193.363 374.043 193.047 373.029 192.426 372.373C191.816 371.717 190.861 371.389 189.561 371.389C188.506 371.389 187.58 371.67 186.783 372.232C185.986 372.795 185.365 373.533 184.92 374.447V388H181.668V368.98H184.744Z" fill="white"/>
<path d="M205.064 388H201.812V368.98H205.064V388ZM201.549 363.936C201.549 363.408 201.707 362.963 202.023 362.6C202.352 362.236 202.832 362.055 203.465 362.055C204.098 362.055 204.578 362.236 204.906 362.6C205.234 362.963 205.398 363.408 205.398 363.936C205.398 364.463 205.234 364.902 204.906 365.254C204.578 365.605 204.098 365.781 203.465 365.781C202.832 365.781 202.352 365.605 202.023 365.254C201.707 364.902 201.549 364.463 201.549 363.936Z" fill="white"/>
<path d="M218.178 388.352C215.6 388.352 213.502 387.508 211.885 385.82C210.268 384.121 209.459 381.854 209.459 379.018V378.42C209.459 376.533 209.816 374.852 210.531 373.375C211.258 371.887 212.266 370.727 213.555 369.895C214.855 369.051 216.262 368.629 217.773 368.629C220.246 368.629 222.168 369.443 223.539 371.072C224.91 372.701 225.596 375.033 225.596 378.068V379.422H212.711C212.758 381.297 213.303 382.814 214.346 383.975C215.4 385.123 216.736 385.697 218.354 385.697C219.502 385.697 220.475 385.463 221.271 384.994C222.068 384.525 222.766 383.904 223.363 383.131L225.35 384.678C223.756 387.127 221.365 388.352 218.178 388.352ZM217.773 371.301C216.461 371.301 215.359 371.781 214.469 372.742C213.578 373.691 213.027 375.027 212.816 376.75H222.344V376.504C222.25 374.852 221.805 373.574 221.008 372.672C220.211 371.758 219.133 371.301 217.773 371.301Z" fill="white"/>
<path d="M232.908 388H229.656V361H232.908V388Z" fill="white"/>
<path d="M157.797 424.879C157.48 427.586 156.479 429.678 154.791 431.154C153.115 432.619 150.883 433.352 148.094 433.352C145.07 433.352 142.645 432.268 140.816 430.1C139 427.932 138.092 425.031 138.092 421.398V418.938C138.092 416.559 138.514 414.467 139.357 412.662C140.213 410.857 141.42 409.475 142.979 408.514C144.537 407.541 146.342 407.055 148.393 407.055C151.111 407.055 153.291 407.816 154.932 409.34C156.572 410.852 157.527 412.949 157.797 415.633H154.404C154.111 413.594 153.473 412.117 152.488 411.203C151.516 410.289 150.15 409.832 148.393 409.832C146.236 409.832 144.543 410.629 143.312 412.223C142.094 413.816 141.484 416.084 141.484 419.025V421.504C141.484 424.281 142.064 426.49 143.225 428.131C144.385 429.771 146.008 430.592 148.094 430.592C149.969 430.592 151.404 430.17 152.4 429.326C153.408 428.471 154.076 426.988 154.404 424.879H157.797Z" fill="white"/>
<path d="M173.652 433C173.465 432.625 173.312 431.957 173.195 430.996C171.684 432.566 169.879 433.352 167.781 433.352C165.906 433.352 164.365 432.824 163.158 431.77C161.963 430.703 161.365 429.355 161.365 427.727C161.365 425.746 162.115 424.211 163.615 423.121C165.127 422.02 167.248 421.469 169.979 421.469H173.143V419.975C173.143 418.838 172.803 417.936 172.123 417.268C171.443 416.588 170.441 416.248 169.117 416.248C167.957 416.248 166.984 416.541 166.199 417.127C165.414 417.713 165.021 418.422 165.021 419.254H161.752C161.752 418.305 162.086 417.391 162.754 416.512C163.434 415.621 164.348 414.918 165.496 414.402C166.656 413.887 167.928 413.629 169.311 413.629C171.502 413.629 173.219 414.18 174.461 415.281C175.703 416.371 176.348 417.877 176.395 419.799V428.553C176.395 430.299 176.617 431.688 177.062 432.719V433H173.652ZM168.256 430.521C169.275 430.521 170.242 430.258 171.156 429.73C172.07 429.203 172.732 428.518 173.143 427.674V423.771H170.594C166.609 423.771 164.617 424.938 164.617 427.27C164.617 428.289 164.957 429.086 165.637 429.66C166.316 430.234 167.189 430.521 168.256 430.521Z" fill="white"/>
<path d="M190.686 416.898C190.193 416.816 189.66 416.775 189.086 416.775C186.953 416.775 185.506 417.684 184.744 419.5V433H181.492V413.98H184.656L184.709 416.178C185.775 414.479 187.287 413.629 189.244 413.629C189.877 413.629 190.357 413.711 190.686 413.875V416.898Z" fill="white"/>
<path d="M196.75 413.98L196.838 416.09C198.232 414.449 200.113 413.629 202.48 413.629C205.141 413.629 206.951 414.648 207.912 416.688C208.545 415.773 209.365 415.035 210.373 414.473C211.393 413.91 212.594 413.629 213.977 413.629C218.148 413.629 220.27 415.838 220.34 420.256V433H217.088V420.449C217.088 419.09 216.777 418.076 216.156 417.408C215.535 416.729 214.492 416.389 213.027 416.389C211.82 416.389 210.818 416.752 210.021 417.479C209.225 418.193 208.762 419.16 208.633 420.379V433H205.363V420.537C205.363 417.771 204.01 416.389 201.303 416.389C199.17 416.389 197.711 417.297 196.926 419.113V433H193.674V413.98H196.75Z" fill="white"/>
<path d="M233.154 433.352C230.576 433.352 228.479 432.508 226.861 430.82C225.244 429.121 224.436 426.854 224.436 424.018V423.42C224.436 421.533 224.793 419.852 225.508 418.375C226.234 416.887 227.242 415.727 228.531 414.895C229.832 414.051 231.238 413.629 232.75 413.629C235.223 413.629 237.145 414.443 238.516 416.072C239.887 417.701 240.572 420.033 240.572 423.068V424.422H227.688C227.734 426.297 228.279 427.814 229.322 428.975C230.377 430.123 231.713 430.697 233.33 430.697C234.479 430.697 235.451 430.463 236.248 429.994C237.045 429.525 237.742 428.904 238.34 428.131L240.326 429.678C238.732 432.127 236.342 433.352 233.154 433.352ZM232.75 416.301C231.438 416.301 230.336 416.781 229.445 417.742C228.555 418.691 228.004 420.027 227.793 421.75H237.32V421.504C237.227 419.852 236.781 418.574 235.984 417.672C235.188 416.758 234.109 416.301 232.75 416.301Z" fill="white"/>
<path d="M247.428 413.98L247.533 416.371C248.986 414.543 250.885 413.629 253.229 413.629C257.248 413.629 259.275 415.896 259.311 420.432V433H256.059V420.414C256.047 419.043 255.73 418.029 255.109 417.373C254.5 416.717 253.545 416.389 252.244 416.389C251.189 416.389 250.264 416.67 249.467 417.232C248.67 417.795 248.049 418.533 247.604 419.447V433H244.352V413.98H247.428Z" fill="white"/>
<path d="M153.438 466.17H142.346V475.24H155.23V478H138.971V452.406H155.055V455.184H142.346V463.41H153.438V466.17Z" fill="white"/>
<path d="M162.455 478H159.203V451H162.455V478Z" fill="white"/>
<path d="M175.568 478.352C172.99 478.352 170.893 477.508 169.275 475.82C167.658 474.121 166.85 471.854 166.85 469.018V468.42C166.85 466.533 167.207 464.852 167.922 463.375C168.648 461.887 169.656 460.727 170.945 459.895C172.246 459.051 173.652 458.629 175.164 458.629C177.637 458.629 179.559 459.443 180.93 461.072C182.301 462.701 182.986 465.033 182.986 468.068V469.422H170.102C170.148 471.297 170.693 472.814 171.736 473.975C172.791 475.123 174.127 475.697 175.744 475.697C176.893 475.697 177.865 475.463 178.662 474.994C179.459 474.525 180.156 473.904 180.754 473.131L182.74 474.678C181.146 477.127 178.756 478.352 175.568 478.352ZM175.164 461.301C173.852 461.301 172.75 461.781 171.859 462.742C170.969 463.691 170.418 465.027 170.207 466.75H179.734V466.504C179.641 464.852 179.195 463.574 178.398 462.672C177.602 461.758 176.523 461.301 175.164 461.301Z" fill="white"/>
<path d="M189.842 458.98L189.947 461.371C191.4 459.543 193.299 458.629 195.643 458.629C199.662 458.629 201.689 460.896 201.725 465.432V478H198.473V465.414C198.461 464.043 198.145 463.029 197.523 462.373C196.914 461.717 195.959 461.389 194.658 461.389C193.604 461.389 192.678 461.67 191.881 462.232C191.084 462.795 190.463 463.533 190.018 464.447V478H186.766V458.98H189.842Z" fill="white"/>
<path d="M218.371 478C218.184 477.625 218.031 476.957 217.914 475.996C216.402 477.566 214.598 478.352 212.5 478.352C210.625 478.352 209.084 477.824 207.877 476.77C206.682 475.703 206.084 474.355 206.084 472.727C206.084 470.746 206.834 469.211 208.334 468.121C209.846 467.02 211.967 466.469 214.697 466.469H217.861V464.975C217.861 463.838 217.521 462.936 216.842 462.268C216.162 461.588 215.16 461.248 213.836 461.248C212.676 461.248 211.703 461.541 210.918 462.127C210.133 462.713 209.74 463.422 209.74 464.254H206.471C206.471 463.305 206.805 462.391 207.473 461.512C208.152 460.621 209.066 459.918 210.215 459.402C211.375 458.887 212.646 458.629 214.029 458.629C216.221 458.629 217.938 459.18 219.18 460.281C220.422 461.371 221.066 462.877 221.113 464.799V473.553C221.113 475.299 221.336 476.688 221.781 477.719V478H218.371ZM212.975 475.521C213.994 475.521 214.961 475.258 215.875 474.73C216.789 474.203 217.451 473.518 217.861 472.674V468.771H215.312C211.328 468.771 209.336 469.938 209.336 472.27C209.336 473.289 209.676 474.086 210.355 474.66C211.035 475.234 211.908 475.521 212.975 475.521Z" fill="white"/>
<path d="M157.867 519.643C157 520.885 155.787 521.816 154.229 522.438C152.682 523.047 150.877 523.352 148.814 523.352C146.729 523.352 144.877 522.865 143.26 521.893C141.643 520.908 140.389 519.514 139.498 517.709C138.619 515.904 138.168 513.812 138.145 511.434V509.201C138.145 505.346 139.041 502.357 140.834 500.236C142.639 498.115 145.17 497.055 148.428 497.055C151.1 497.055 153.25 497.74 154.879 499.111C156.508 500.471 157.504 502.404 157.867 504.912H154.492C153.859 501.525 151.844 499.832 148.445 499.832C146.184 499.832 144.467 500.629 143.295 502.223C142.135 503.805 141.549 506.102 141.537 509.113V511.205C141.537 514.076 142.193 516.361 143.506 518.061C144.818 519.748 146.594 520.592 148.832 520.592C150.098 520.592 151.205 520.451 152.154 520.17C153.104 519.889 153.889 519.414 154.51 518.746V512.998H148.586V510.256H157.867V519.643Z" fill="white"/>
<path d="M170.893 523.352C168.314 523.352 166.217 522.508 164.6 520.82C162.982 519.121 162.174 516.854 162.174 514.018V513.42C162.174 511.533 162.531 509.852 163.246 508.375C163.973 506.887 164.98 505.727 166.27 504.895C167.57 504.051 168.977 503.629 170.488 503.629C172.961 503.629 174.883 504.443 176.254 506.072C177.625 507.701 178.311 510.033 178.311 513.068V514.422H165.426C165.473 516.297 166.018 517.814 167.061 518.975C168.115 520.123 169.451 520.697 171.068 520.697C172.217 520.697 173.189 520.463 173.986 519.994C174.783 519.525 175.48 518.904 176.078 518.131L178.064 519.678C176.471 522.127 174.08 523.352 170.893 523.352ZM170.488 506.301C169.176 506.301 168.074 506.781 167.184 507.742C166.293 508.691 165.742 510.027 165.531 511.75H175.059V511.504C174.965 509.852 174.52 508.574 173.723 507.672C172.926 506.758 171.848 506.301 170.488 506.301Z" fill="white"/>
<path d="M185.148 503.98L185.236 506.09C186.631 504.449 188.512 503.629 190.879 503.629C193.539 503.629 195.35 504.648 196.311 506.688C196.943 505.773 197.764 505.035 198.771 504.473C199.791 503.91 200.992 503.629 202.375 503.629C206.547 503.629 208.668 505.838 208.738 510.256V523H205.486V510.449C205.486 509.09 205.176 508.076 204.555 507.408C203.934 506.729 202.891 506.389 201.426 506.389C200.219 506.389 199.217 506.752 198.42 507.479C197.623 508.193 197.16 509.16 197.031 510.379V523H193.762V510.537C193.762 507.771 192.408 506.389 189.701 506.389C187.568 506.389 186.109 507.297 185.324 509.113V523H182.072V503.98H185.148Z" fill="white"/>
<path d="M221.553 523.352C218.975 523.352 216.877 522.508 215.26 520.82C213.643 519.121 212.834 516.854 212.834 514.018V513.42C212.834 511.533 213.191 509.852 213.906 508.375C214.633 506.887 215.641 505.727 216.93 504.895C218.23 504.051 219.637 503.629 221.148 503.629C223.621 503.629 225.543 504.443 226.914 506.072C228.285 507.701 228.971 510.033 228.971 513.068V514.422H216.086C216.133 516.297 216.678 517.814 217.721 518.975C218.775 520.123 220.111 520.697 221.729 520.697C222.877 520.697 223.85 520.463 224.646 519.994C225.443 519.525 226.141 518.904 226.738 518.131L228.725 519.678C227.131 522.127 224.74 523.352 221.553 523.352ZM221.148 506.301C219.836 506.301 218.734 506.781 217.844 507.742C216.953 508.691 216.402 510.027 216.191 511.75H225.719V511.504C225.625 509.852 225.18 508.574 224.383 507.672C223.586 506.758 222.508 506.301 221.148 506.301Z" fill="white"/>
<path d="M236.283 523H233.031V496H236.283V523Z" fill="white"/>
<path d="M253.246 523C253.059 522.625 252.906 521.957 252.789 520.996C251.277 522.566 249.473 523.352 247.375 523.352C245.5 523.352 243.959 522.824 242.752 521.77C241.557 520.703 240.959 519.355 240.959 517.727C240.959 515.746 241.709 514.211 243.209 513.121C244.721 512.02 246.842 511.469 249.572 511.469H252.736V509.975C252.736 508.838 252.396 507.936 251.717 507.268C251.037 506.588 250.035 506.248 248.711 506.248C247.551 506.248 246.578 506.541 245.793 507.127C245.008 507.713 244.615 508.422 244.615 509.254H241.346C241.346 508.305 241.68 507.391 242.348 506.512C243.027 505.621 243.941 504.918 245.09 504.402C246.25 503.887 247.521 503.629 248.904 503.629C251.096 503.629 252.812 504.18 254.055 505.281C255.297 506.371 255.941 507.877 255.988 509.799V518.553C255.988 520.299 256.211 521.688 256.656 522.719V523H253.246ZM247.85 520.521C248.869 520.521 249.836 520.258 250.75 519.73C251.664 519.203 252.326 518.518 252.736 517.674V513.771H250.188C246.203 513.771 244.211 514.938 244.211 517.27C244.211 518.289 244.551 519.086 245.23 519.66C245.91 520.234 246.783 520.521 247.85 520.521Z" fill="white"/>
<path d="M272.16 517.955C272.16 517.076 271.826 516.396 271.158 515.916C270.502 515.424 269.348 515.002 267.695 514.65C266.055 514.299 264.748 513.877 263.775 513.385C262.814 512.893 262.1 512.307 261.631 511.627C261.174 510.947 260.945 510.139 260.945 509.201C260.945 507.643 261.602 506.324 262.914 505.246C264.238 504.168 265.926 503.629 267.977 503.629C270.133 503.629 271.879 504.186 273.215 505.299C274.562 506.412 275.236 507.836 275.236 509.57H271.967C271.967 508.68 271.586 507.912 270.824 507.268C270.074 506.623 269.125 506.301 267.977 506.301C266.793 506.301 265.867 506.559 265.199 507.074C264.531 507.59 264.197 508.264 264.197 509.096C264.197 509.881 264.508 510.473 265.129 510.871C265.75 511.27 266.869 511.65 268.486 512.014C270.115 512.377 271.434 512.811 272.441 513.314C273.449 513.818 274.193 514.428 274.674 515.143C275.166 515.846 275.412 516.707 275.412 517.727C275.412 519.426 274.732 520.791 273.373 521.822C272.014 522.842 270.25 523.352 268.082 523.352C266.559 523.352 265.211 523.082 264.039 522.543C262.867 522.004 261.947 521.254 261.279 520.293C260.623 519.32 260.295 518.271 260.295 517.146H263.547C263.605 518.236 264.039 519.104 264.848 519.748C265.668 520.381 266.746 520.697 268.082 520.697C269.312 520.697 270.297 520.451 271.035 519.959C271.785 519.455 272.16 518.787 272.16 517.955Z" fill="white"/>
<path d="M288.455 512.611C288.455 509.963 288.807 507.42 289.51 504.982C290.225 502.545 291.285 500.33 292.691 498.338C294.098 496.346 295.557 494.939 297.068 494.119L297.736 496.264C296.025 497.576 294.619 499.58 293.518 502.275C292.428 504.971 291.83 507.988 291.725 511.328L291.707 512.822C291.707 517.346 292.533 521.271 294.186 524.6C295.182 526.592 296.365 528.15 297.736 529.275L297.068 531.262C295.51 530.395 294.021 528.941 292.604 526.902C289.838 522.918 288.455 518.154 288.455 512.611Z" fill="white"/>
<path d="M315.525 516.32H304.803L302.395 523H298.914L308.688 497.406H311.641L321.432 523H317.969L315.525 516.32ZM305.822 513.543H314.523L310.164 501.572L305.822 513.543Z" fill="white"/>
<path d="M327.443 503.98L327.549 506.371C329.002 504.543 330.9 503.629 333.244 503.629C337.264 503.629 339.291 505.896 339.326 510.432V523H336.074V510.414C336.062 509.043 335.746 508.029 335.125 507.373C334.516 506.717 333.561 506.389 332.26 506.389C331.205 506.389 330.279 506.67 329.482 507.232C328.686 507.795 328.064 508.533 327.619 509.447V523H324.367V503.98H327.443Z" fill="white"/>
<path d="M355.973 523C355.785 522.625 355.633 521.957 355.516 520.996C354.004 522.566 352.199 523.352 350.102 523.352C348.227 523.352 346.686 522.824 345.479 521.77C344.283 520.703 343.686 519.355 343.686 517.727C343.686 515.746 344.436 514.211 345.936 513.121C347.447 512.02 349.568 511.469 352.299 511.469H355.463V509.975C355.463 508.838 355.123 507.936 354.443 507.268C353.764 506.588 352.762 506.248 351.438 506.248C350.277 506.248 349.305 506.541 348.52 507.127C347.734 507.713 347.342 508.422 347.342 509.254H344.072C344.072 508.305 344.406 507.391 345.074 506.512C345.754 505.621 346.668 504.918 347.816 504.402C348.977 503.887 350.248 503.629 351.631 503.629C353.822 503.629 355.539 504.18 356.781 505.281C358.023 506.371 358.668 507.877 358.715 509.799V518.553C358.715 520.299 358.938 521.688 359.383 522.719V523H355.973ZM350.576 520.521C351.596 520.521 352.562 520.258 353.477 519.73C354.391 519.203 355.053 518.518 355.463 517.674V513.771H352.914C348.93 513.771 346.938 514.938 346.938 517.27C346.938 518.289 347.277 519.086 347.957 519.66C348.637 520.234 349.51 520.521 350.576 520.521Z" fill="white"/>
<path d="M378.965 518.236L383.395 503.98H386.875L379.229 525.936C378.045 529.1 376.164 530.682 373.586 530.682L372.971 530.629L371.758 530.4V527.764L372.637 527.834C373.738 527.834 374.594 527.611 375.203 527.166C375.824 526.721 376.334 525.906 376.732 524.723L377.453 522.789L370.668 503.98H374.219L378.965 518.236Z" fill="white"/>
<path d="M408.619 512.646H402.607V523H399.215V497.406H407.688C410.57 497.406 412.785 498.062 414.332 499.375C415.891 500.688 416.67 502.598 416.67 505.105C416.67 506.699 416.236 508.088 415.369 509.271C414.514 510.455 413.318 511.34 411.783 511.926L417.795 522.789V523H414.174L408.619 512.646ZM402.607 509.887H407.793C409.469 509.887 410.799 509.453 411.783 508.586C412.779 507.719 413.277 506.559 413.277 505.105C413.277 503.523 412.803 502.311 411.854 501.467C410.916 500.623 409.557 500.195 407.775 500.184H402.607V509.887Z" fill="white"/>
<path d="M420.045 513.314C420.045 511.451 420.408 509.775 421.135 508.287C421.873 506.799 422.893 505.65 424.193 504.842C425.506 504.033 427 503.629 428.676 503.629C431.266 503.629 433.357 504.525 434.951 506.318C436.557 508.111 437.359 510.496 437.359 513.473V513.701C437.359 515.553 437.002 517.217 436.287 518.693C435.584 520.158 434.57 521.301 433.246 522.121C431.934 522.941 430.422 523.352 428.711 523.352C426.133 523.352 424.041 522.455 422.436 520.662C420.842 518.869 420.045 516.496 420.045 513.543V513.314ZM423.314 513.701C423.314 515.811 423.801 517.504 424.773 518.781C425.758 520.059 427.07 520.697 428.711 520.697C430.363 520.697 431.676 520.053 432.648 518.764C433.621 517.463 434.107 515.646 434.107 513.314C434.107 511.229 433.609 509.541 432.613 508.252C431.629 506.951 430.316 506.301 428.676 506.301C427.07 506.301 425.775 506.939 424.791 508.217C423.807 509.494 423.314 511.322 423.314 513.701Z" fill="white"/>
<path d="M452.512 517.955C452.512 517.076 452.178 516.396 451.51 515.916C450.854 515.424 449.699 515.002 448.047 514.65C446.406 514.299 445.1 513.877 444.127 513.385C443.166 512.893 442.451 512.307 441.982 511.627C441.525 510.947 441.297 510.139 441.297 509.201C441.297 507.643 441.953 506.324 443.266 505.246C444.59 504.168 446.277 503.629 448.328 503.629C450.484 503.629 452.23 504.186 453.566 505.299C454.914 506.412 455.588 507.836 455.588 509.57H452.318C452.318 508.68 451.938 507.912 451.176 507.268C450.426 506.623 449.477 506.301 448.328 506.301C447.145 506.301 446.219 506.559 445.551 507.074C444.883 507.59 444.549 508.264 444.549 509.096C444.549 509.881 444.859 510.473 445.48 510.871C446.102 511.27 447.221 511.65 448.838 512.014C450.467 512.377 451.785 512.811 452.793 513.314C453.801 513.818 454.545 514.428 455.025 515.143C455.518 515.846 455.764 516.707 455.764 517.727C455.764 519.426 455.084 520.791 453.725 521.822C452.365 522.842 450.602 523.352 448.434 523.352C446.91 523.352 445.562 523.082 444.391 522.543C443.219 522.004 442.299 521.254 441.631 520.293C440.975 519.32 440.646 518.271 440.646 517.146H443.898C443.957 518.236 444.391 519.104 445.199 519.748C446.02 520.381 447.098 520.697 448.434 520.697C449.664 520.697 450.648 520.451 451.387 519.959C452.137 519.455 452.512 518.787 452.512 517.955Z" fill="white"/>
<path d="M471.742 523C471.555 522.625 471.402 521.957 471.285 520.996C469.773 522.566 467.969 523.352 465.871 523.352C463.996 523.352 462.455 522.824 461.248 521.77C460.053 520.703 459.455 519.355 459.455 517.727C459.455 515.746 460.205 514.211 461.705 513.121C463.217 512.02 465.338 511.469 468.068 511.469H471.232V509.975C471.232 508.838 470.893 507.936 470.213 507.268C469.533 506.588 468.531 506.248 467.207 506.248C466.047 506.248 465.074 506.541 464.289 507.127C463.504 507.713 463.111 508.422 463.111 509.254H459.842C459.842 508.305 460.176 507.391 460.844 506.512C461.523 505.621 462.438 504.918 463.586 504.402C464.746 503.887 466.018 503.629 467.4 503.629C469.592 503.629 471.309 504.18 472.551 505.281C473.793 506.371 474.438 507.877 474.484 509.799V518.553C474.484 520.299 474.707 521.688 475.152 522.719V523H471.742ZM466.346 520.521C467.365 520.521 468.332 520.258 469.246 519.73C470.16 519.203 470.822 518.518 471.232 517.674V513.771H468.684C464.699 513.771 462.707 514.938 462.707 517.27C462.707 518.289 463.047 519.086 463.727 519.66C464.406 520.234 465.279 520.521 466.346 520.521Z" fill="white"/>
<path d="M487.088 512.787C487.088 515.4 486.742 517.908 486.051 520.311C485.371 522.701 484.322 524.91 482.904 526.938C481.498 528.965 480.021 530.406 478.475 531.262L477.789 529.275C479.594 527.893 481.041 525.748 482.131 522.842C483.232 519.924 483.795 516.689 483.818 513.139V512.576C483.818 510.115 483.561 507.83 483.045 505.721C482.529 503.6 481.809 501.701 480.883 500.025C479.969 498.35 478.938 497.043 477.789 496.105L478.475 494.119C480.021 494.975 481.492 496.404 482.887 498.408C484.293 500.412 485.342 502.621 486.033 505.035C486.736 507.449 487.088 510.033 487.088 512.787Z" fill="white"/>
</g>
</g>
</svg>
