<svg viewBox="0 0 764 409" fill="none" xmlns="http://www.w3.org/2000/svg">
<g id="01252043">
<g id="III.">
<path d="M32.2949 26H27.8652V0.40625H32.2949V26Z" fill="white"/>
<path d="M42.4551 26H38.0254V0.40625H42.4551V26Z" fill="white"/>
<path d="M52.6152 26H48.1855V0.40625H52.6152V26Z" fill="white"/>
<path d="M60.332 21.5C61.1289 21.5 61.7441 21.7285 62.1777 22.1855C62.6113 22.6309 62.8281 23.1934 62.8281 23.873C62.8281 24.541 62.6113 25.0977 62.1777 25.543C61.7441 25.9766 61.1289 26.1934 60.332 26.1934C59.5703 26.1934 58.9668 25.9766 58.5215 25.543C58.0762 25.1094 57.8535 24.5527 57.8535 23.873C57.8535 23.1934 58.0703 22.6309 58.5039 22.1855C58.9375 21.7285 59.5469 21.5 60.332 21.5Z" fill="white"/>
</g>
<g id="Group 104">
<g id="Group 100">
<path id="Arrow 1 (Stroke)" fill-rule="evenodd" clip-rule="evenodd" d="M39.9963 130.434L14.9963 116L39.9963 101.566V113.5H267.004V101.566L292.004 116L267.004 130.434V118.5H39.9963V130.434Z" fill="#2CF30B"/>
<g id="36">
<path d="M142.332 92.5293H144.355C145.376 92.5202 146.183 92.2559 146.775 91.7363C147.377 91.2168 147.678 90.4648 147.678 89.4805C147.678 88.5326 147.427 87.7988 146.926 87.2793C146.434 86.7507 145.677 86.4863 144.656 86.4863C143.763 86.4863 143.029 86.7461 142.455 87.2656C141.881 87.776 141.594 88.446 141.594 89.2754H138.271C138.271 88.2546 138.54 87.3249 139.078 86.4863C139.625 85.6478 140.382 84.9961 141.348 84.5312C142.323 84.0573 143.412 83.8203 144.615 83.8203C146.602 83.8203 148.161 84.3216 149.291 85.3242C150.43 86.3177 151 87.7031 151 89.4805C151 90.3737 150.713 91.2168 150.139 92.0098C149.574 92.7936 148.84 93.3861 147.938 93.7871C149.031 94.1608 149.861 94.7487 150.426 95.5508C151 96.3529 151.287 97.3099 151.287 98.4219C151.287 100.208 150.672 101.63 149.441 102.688C148.22 103.745 146.611 104.273 144.615 104.273C142.701 104.273 141.133 103.763 139.912 102.742C138.691 101.721 138.08 100.363 138.08 98.668H141.402C141.402 99.543 141.694 100.254 142.277 100.801C142.87 101.348 143.663 101.621 144.656 101.621C145.686 101.621 146.497 101.348 147.09 100.801C147.682 100.254 147.979 99.4609 147.979 98.4219C147.979 97.3737 147.669 96.5671 147.049 96.002C146.429 95.4368 145.508 95.1543 144.287 95.1543H142.332V92.5293Z" fill="#2CF30B"/>
<path d="M164.74 83.998V86.7461H164.33C162.471 86.7734 160.985 87.2839 159.873 88.2773C158.761 89.2708 158.1 90.679 157.891 92.502C158.957 91.3809 160.32 90.8203 161.979 90.8203C163.738 90.8203 165.123 91.4401 166.135 92.6797C167.156 93.9193 167.666 95.5189 167.666 97.4785C167.666 99.502 167.069 101.143 165.875 102.4C164.69 103.649 163.132 104.273 161.199 104.273C159.212 104.273 157.599 103.54 156.359 102.072C155.129 100.605 154.514 98.6816 154.514 96.3027V95.168C154.514 91.6771 155.361 88.9427 157.057 86.9648C158.761 84.987 161.208 83.998 164.398 83.998H164.74ZM161.172 93.5C160.443 93.5 159.773 93.7051 159.162 94.1152C158.561 94.5254 158.118 95.0723 157.836 95.7559V96.7676C157.836 98.2441 158.146 99.4199 158.766 100.295C159.385 101.161 160.188 101.594 161.172 101.594C162.156 101.594 162.936 101.225 163.51 100.486C164.084 99.748 164.371 98.7773 164.371 97.5742C164.371 96.3711 164.079 95.3913 163.496 94.6348C162.913 93.8783 162.138 93.5 161.172 93.5Z" fill="#2CF30B"/>
</g>
<g id="90">
<path d="M9.91016 156.674C8.79818 157.85 7.49935 158.438 6.01367 158.438C4.26367 158.438 2.86914 157.827 1.83008 156.605C0.791016 155.375 0.271484 153.762 0.271484 151.766C0.271484 150.453 0.535807 149.264 1.06445 148.197C1.5931 147.131 2.34505 146.301 3.32031 145.709C4.29557 145.117 5.42578 144.82 6.71094 144.82C8.71615 144.82 10.3066 145.568 11.4824 147.062C12.6582 148.557 13.2461 150.558 13.2461 153.064V153.994C13.2461 157.585 12.4349 160.324 10.8125 162.211C9.1901 164.098 6.77018 165.055 3.55273 165.082H3.15625V162.334H3.63477C5.5944 162.307 7.09831 161.837 8.14648 160.926C9.19466 160.005 9.78255 158.588 9.91016 156.674ZM6.71094 155.84C7.3763 155.84 8.00065 155.648 8.58398 155.266C9.16732 154.883 9.61849 154.354 9.9375 153.68V152.381C9.9375 150.913 9.63672 149.733 9.03516 148.84C8.43359 147.947 7.6543 147.5 6.69727 147.5C5.74023 147.5 4.97461 147.896 4.40039 148.689C3.83529 149.473 3.55273 150.467 3.55273 151.67C3.55273 152.919 3.83984 153.926 4.41406 154.691C4.98828 155.457 5.75391 155.84 6.71094 155.84Z" fill="white"/>
<path d="M29.3789 156.619C29.3789 159.481 28.8411 161.641 27.7656 163.1C26.6992 164.549 25.0723 165.273 22.8848 165.273C20.7337 165.273 19.1113 164.567 18.0176 163.154C16.9329 161.732 16.377 159.632 16.3496 156.852V153.406C16.3496 150.544 16.8828 148.398 17.9492 146.967C19.0247 145.536 20.6608 144.82 22.8574 144.82C25.0358 144.82 26.6582 145.518 27.7246 146.912C28.8001 148.307 29.3516 150.394 29.3789 153.174V156.619ZM26.0566 152.9C26.0566 151.032 25.8014 149.665 25.291 148.799C24.7806 147.924 23.9694 147.486 22.8574 147.486C21.7728 147.486 20.9753 147.901 20.4648 148.73C19.9544 149.551 19.6855 150.836 19.6582 152.586V157.098C19.6582 158.957 19.918 160.342 20.4375 161.254C20.957 162.165 21.7728 162.621 22.8848 162.621C23.9512 162.621 24.7396 162.202 25.25 161.363C25.7604 160.516 26.0293 159.194 26.0566 157.398V152.9Z" fill="white"/>
</g>
<g id="135">
<path d="M292.486 165H289.178V149.018L284.297 150.686V147.883L292.062 145.025H292.486V165Z" fill="white"/>
<path d="M303.246 153.529H305.27C306.29 153.52 307.097 153.256 307.689 152.736C308.291 152.217 308.592 151.465 308.592 150.48C308.592 149.533 308.341 148.799 307.84 148.279C307.348 147.751 306.591 147.486 305.57 147.486C304.677 147.486 303.943 147.746 303.369 148.266C302.795 148.776 302.508 149.446 302.508 150.275H299.186C299.186 149.255 299.454 148.325 299.992 147.486C300.539 146.648 301.296 145.996 302.262 145.531C303.237 145.057 304.326 144.82 305.529 144.82C307.516 144.82 309.075 145.322 310.205 146.324C311.344 147.318 311.914 148.703 311.914 150.48C311.914 151.374 311.627 152.217 311.053 153.01C310.488 153.794 309.754 154.386 308.852 154.787C309.945 155.161 310.775 155.749 311.34 156.551C311.914 157.353 312.201 158.31 312.201 159.422C312.201 161.208 311.586 162.63 310.355 163.688C309.134 164.745 307.525 165.273 305.529 165.273C303.615 165.273 302.048 164.763 300.826 163.742C299.605 162.721 298.994 161.363 298.994 159.668H302.316C302.316 160.543 302.608 161.254 303.191 161.801C303.784 162.348 304.577 162.621 305.57 162.621C306.6 162.621 307.411 162.348 308.004 161.801C308.596 161.254 308.893 160.461 308.893 159.422C308.893 158.374 308.583 157.567 307.963 157.002C307.343 156.437 306.423 156.154 305.201 156.154H303.246V153.529Z" fill="white"/>
<path d="M316.207 155.129L317.287 145.094H327.979V147.965H320.049L319.502 152.723C320.423 152.194 321.462 151.93 322.619 151.93C324.515 151.93 325.987 152.536 327.035 153.748C328.092 154.96 328.621 156.592 328.621 158.643C328.621 160.666 328.038 162.279 326.871 163.482C325.704 164.676 324.105 165.273 322.072 165.273C320.249 165.273 318.736 164.758 317.533 163.729C316.339 162.689 315.692 161.322 315.592 159.627H318.805C318.932 160.593 319.279 161.336 319.844 161.855C320.409 162.366 321.147 162.621 322.059 162.621C323.079 162.621 323.872 162.257 324.438 161.527C325.012 160.798 325.299 159.805 325.299 158.547C325.299 157.335 324.984 156.378 324.355 155.676C323.727 154.965 322.861 154.609 321.758 154.609C321.156 154.609 320.646 154.691 320.227 154.855C319.807 155.01 319.352 155.32 318.859 155.785L316.207 155.129Z" fill="white"/>
</g>
<path id="Line 37 (Stroke)" fill-rule="evenodd" clip-rule="evenodd" d="M153 66.9999L153 164.252H148L148 66.9999H153Z" fill="#13EBF9"/>
<g id="112.5">
<path d="M129.486 197H126.178V181.018L121.297 182.686V179.883L129.062 177.025H129.486V197Z" fill="#13EBF9"/>
<path d="M145.4 197H142.092V181.018L137.211 182.686V179.883L144.977 177.025H145.4V197Z" fill="#13EBF9"/>
<path d="M165.703 197H152.318V194.717L158.949 187.484C159.906 186.418 160.585 185.529 160.986 184.818C161.396 184.098 161.602 183.378 161.602 182.658C161.602 181.71 161.333 180.945 160.795 180.361C160.266 179.778 159.551 179.486 158.648 179.486C157.573 179.486 156.739 179.814 156.146 180.471C155.554 181.127 155.258 182.025 155.258 183.164H151.936C151.936 181.952 152.209 180.863 152.756 179.896C153.312 178.921 154.1 178.165 155.121 177.627C156.151 177.089 157.336 176.82 158.676 176.82C160.608 176.82 162.13 177.308 163.242 178.283C164.363 179.249 164.924 180.589 164.924 182.303C164.924 183.296 164.641 184.34 164.076 185.434C163.52 186.518 162.604 187.753 161.328 189.139L156.461 194.348H165.703V197Z" fill="#13EBF9"/>
<path d="M170.516 193.5C171.135 193.5 171.614 193.678 171.951 194.033C172.288 194.38 172.457 194.817 172.457 195.346C172.457 195.865 172.288 196.298 171.951 196.645C171.614 196.982 171.135 197.15 170.516 197.15C169.923 197.15 169.454 196.982 169.107 196.645C168.761 196.307 168.588 195.874 168.588 195.346C168.588 194.817 168.757 194.38 169.094 194.033C169.431 193.678 169.905 193.5 170.516 193.5Z" fill="#13EBF9"/>
<path d="M176.941 187.129L178.021 177.094H188.713V179.965H180.783L180.236 184.723C181.157 184.194 182.196 183.93 183.354 183.93C185.249 183.93 186.721 184.536 187.77 185.748C188.827 186.96 189.355 188.592 189.355 190.643C189.355 192.666 188.772 194.279 187.605 195.482C186.439 196.676 184.839 197.273 182.807 197.273C180.984 197.273 179.471 196.758 178.268 195.729C177.074 194.689 176.426 193.322 176.326 191.627H179.539C179.667 192.593 180.013 193.336 180.578 193.855C181.143 194.366 181.882 194.621 182.793 194.621C183.814 194.621 184.607 194.257 185.172 193.527C185.746 192.798 186.033 191.805 186.033 190.547C186.033 189.335 185.719 188.378 185.09 187.676C184.461 186.965 183.595 186.609 182.492 186.609C181.891 186.609 181.38 186.691 180.961 186.855C180.542 187.01 180.086 187.32 179.594 187.785L176.941 187.129Z" fill="#13EBF9"/>
</g>
<path id="Arrow 2 (Stroke)" fill-rule="evenodd" clip-rule="evenodd" d="M170.992 81.6604L155.992 73.0001L170.992 64.3398V71.5001H272.008V64.3398L287.008 73.0001L272.008 81.6604V74.5001H170.992V81.6604Z" fill="#E8A1EE"/>
<g id="18">
<path d="M210.486 61H207.178V45.0176L202.297 46.6855V43.8828L210.062 41.0254H210.486V61Z" fill="#E8A1EE"/>
<path d="M229.941 46.3438C229.941 47.319 229.691 48.1895 229.189 48.9551C228.688 49.7116 228.005 50.3086 227.139 50.7461C228.178 51.2292 228.975 51.89 229.531 52.7285C230.096 53.5671 230.379 54.515 230.379 55.5723C230.379 57.3223 229.786 58.7122 228.602 59.7422C227.417 60.763 225.84 61.2734 223.871 61.2734C221.893 61.2734 220.307 60.7585 219.113 59.7285C217.928 58.6986 217.336 57.3132 217.336 55.5723C217.336 54.5059 217.618 53.5488 218.184 52.7012C218.749 51.8535 219.542 51.2018 220.562 50.7461C219.706 50.3086 219.027 49.7116 218.525 48.9551C218.033 48.1895 217.787 47.319 217.787 46.3438C217.787 44.6484 218.334 43.304 219.428 42.3105C220.521 41.3171 221.998 40.8203 223.857 40.8203C225.726 40.8203 227.207 41.3171 228.301 42.3105C229.395 43.304 229.941 44.6484 229.941 46.3438ZM227.057 55.4082C227.057 54.4238 226.76 53.6309 226.168 53.0293C225.585 52.4186 224.81 52.1133 223.844 52.1133C222.878 52.1133 222.103 52.4141 221.52 53.0156C220.945 53.6172 220.658 54.4147 220.658 55.4082C220.658 56.3835 220.941 57.1628 221.506 57.7461C222.08 58.3294 222.868 58.6211 223.871 58.6211C224.874 58.6211 225.653 58.3385 226.209 57.7734C226.774 57.2083 227.057 56.4199 227.057 55.4082ZM226.633 46.4668C226.633 45.6009 226.382 44.89 225.881 44.334C225.38 43.7689 224.705 43.4863 223.857 43.4863C223.01 43.4863 222.34 43.7552 221.848 44.293C221.355 44.8216 221.109 45.5462 221.109 46.4668C221.109 47.3783 221.355 48.1029 221.848 48.6406C222.349 49.1784 223.023 49.4473 223.871 49.4473C224.719 49.4473 225.389 49.1784 225.881 48.6406C226.382 48.1029 226.633 47.3783 226.633 46.4668Z" fill="#E8A1EE"/>
</g>
</g>
<g id="Group 101">
<path id="Arrow 1 (Stroke)_2" fill-rule="evenodd" clip-rule="evenodd" d="M474.996 130.434L449.996 116L474.996 101.566V113.5H702.004V101.566L727.004 116L702.004 130.434V118.5H474.996V130.434Z" fill="#2CF30B"/>
<g id="82">
<path d="M586.027 89.3438C586.027 90.319 585.777 91.1895 585.275 91.9551C584.774 92.7116 584.09 93.3086 583.225 93.7461C584.264 94.2292 585.061 94.89 585.617 95.7285C586.182 96.5671 586.465 97.515 586.465 98.5723C586.465 100.322 585.872 101.712 584.688 102.742C583.503 103.763 581.926 104.273 579.957 104.273C577.979 104.273 576.393 103.758 575.199 102.729C574.014 101.699 573.422 100.313 573.422 98.5723C573.422 97.5059 573.704 96.5488 574.27 95.7012C574.835 94.8535 575.628 94.2018 576.648 93.7461C575.792 93.3086 575.113 92.7116 574.611 91.9551C574.119 91.1895 573.873 90.319 573.873 89.3438C573.873 87.6484 574.42 86.304 575.514 85.3105C576.607 84.3171 578.084 83.8203 579.943 83.8203C581.812 83.8203 583.293 84.3171 584.387 85.3105C585.48 86.304 586.027 87.6484 586.027 89.3438ZM583.143 98.4082C583.143 97.4238 582.846 96.6309 582.254 96.0293C581.671 95.4186 580.896 95.1133 579.93 95.1133C578.964 95.1133 578.189 95.4141 577.605 96.0156C577.031 96.6172 576.744 97.4147 576.744 98.4082C576.744 99.3835 577.027 100.163 577.592 100.746C578.166 101.329 578.954 101.621 579.957 101.621C580.96 101.621 581.739 101.339 582.295 100.773C582.86 100.208 583.143 99.4199 583.143 98.4082ZM582.719 89.4668C582.719 88.6009 582.468 87.89 581.967 87.334C581.465 86.7689 580.791 86.4863 579.943 86.4863C579.096 86.4863 578.426 86.7552 577.934 87.293C577.441 87.8216 577.195 88.5462 577.195 89.4668C577.195 90.3783 577.441 91.1029 577.934 91.6406C578.435 92.1784 579.109 92.4473 579.957 92.4473C580.805 92.4473 581.475 92.1784 581.967 91.6406C582.468 91.1029 582.719 90.3783 582.719 89.4668Z" fill="#2CF30B"/>
<path d="M602.789 104H589.404V101.717L596.035 94.4844C596.992 93.418 597.671 92.5293 598.072 91.8184C598.482 91.0983 598.688 90.3783 598.688 89.6582C598.688 88.7103 598.419 87.9447 597.881 87.3613C597.352 86.778 596.637 86.4863 595.734 86.4863C594.659 86.4863 593.825 86.8145 593.232 87.4707C592.64 88.127 592.344 89.0247 592.344 90.1641H589.021C589.021 88.9518 589.295 87.8626 589.842 86.8965C590.398 85.9212 591.186 85.1647 592.207 84.627C593.237 84.0892 594.422 83.8203 595.762 83.8203C597.694 83.8203 599.216 84.3079 600.328 85.2832C601.449 86.2493 602.01 87.5892 602.01 89.3027C602.01 90.2962 601.727 91.3398 601.162 92.4336C600.606 93.5182 599.69 94.7533 598.414 96.1387L593.547 101.348H602.789V104Z" fill="#2CF30B"/>
</g>
<g id="200">
<path d="M448.875 165H435.49V162.717L442.121 155.484C443.078 154.418 443.757 153.529 444.158 152.818C444.568 152.098 444.773 151.378 444.773 150.658C444.773 149.71 444.505 148.945 443.967 148.361C443.438 147.778 442.723 147.486 441.82 147.486C440.745 147.486 439.911 147.814 439.318 148.471C438.726 149.127 438.43 150.025 438.43 151.164H435.107C435.107 149.952 435.381 148.863 435.928 147.896C436.484 146.921 437.272 146.165 438.293 145.627C439.323 145.089 440.508 144.82 441.848 144.82C443.78 144.82 445.302 145.308 446.414 146.283C447.535 147.249 448.096 148.589 448.096 150.303C448.096 151.296 447.813 152.34 447.248 153.434C446.692 154.518 445.776 155.753 444.5 157.139L439.633 162.348H448.875V165Z" fill="white"/>
<path d="M464.379 156.619C464.379 159.481 463.841 161.641 462.766 163.1C461.699 164.549 460.072 165.273 457.885 165.273C455.734 165.273 454.111 164.567 453.018 163.154C451.933 161.732 451.377 159.632 451.35 156.852V153.406C451.35 150.544 451.883 148.398 452.949 146.967C454.025 145.536 455.661 144.82 457.857 144.82C460.036 144.82 461.658 145.518 462.725 146.912C463.8 148.307 464.352 150.394 464.379 153.174V156.619ZM461.057 152.9C461.057 151.032 460.801 149.665 460.291 148.799C459.781 147.924 458.969 147.486 457.857 147.486C456.773 147.486 455.975 147.901 455.465 148.73C454.954 149.551 454.686 150.836 454.658 152.586V157.098C454.658 158.957 454.918 160.342 455.438 161.254C455.957 162.165 456.773 162.621 457.885 162.621C458.951 162.621 459.74 162.202 460.25 161.363C460.76 160.516 461.029 159.194 461.057 157.398V152.9Z" fill="white"/>
<path d="M480.293 156.619C480.293 159.481 479.755 161.641 478.68 163.1C477.613 164.549 475.986 165.273 473.799 165.273C471.648 165.273 470.025 164.567 468.932 163.154C467.847 161.732 467.291 159.632 467.264 156.852V153.406C467.264 150.544 467.797 148.398 468.863 146.967C469.939 145.536 471.575 144.82 473.771 144.82C475.95 144.82 477.572 145.518 478.639 146.912C479.714 148.307 480.266 150.394 480.293 153.174V156.619ZM476.971 152.9C476.971 151.032 476.715 149.665 476.205 148.799C475.695 147.924 474.883 147.486 473.771 147.486C472.687 147.486 471.889 147.901 471.379 148.73C470.868 149.551 470.6 150.836 470.572 152.586V157.098C470.572 158.957 470.832 160.342 471.352 161.254C471.871 162.165 472.687 162.621 473.799 162.621C474.865 162.621 475.654 162.202 476.164 161.363C476.674 160.516 476.943 159.194 476.971 157.398V152.9Z" fill="white"/>
</g>
<g id="300">
<path d="M722.332 153.529H724.355C725.376 153.52 726.183 153.256 726.775 152.736C727.377 152.217 727.678 151.465 727.678 150.48C727.678 149.533 727.427 148.799 726.926 148.279C726.434 147.751 725.677 147.486 724.656 147.486C723.763 147.486 723.029 147.746 722.455 148.266C721.881 148.776 721.594 149.446 721.594 150.275H718.271C718.271 149.255 718.54 148.325 719.078 147.486C719.625 146.648 720.382 145.996 721.348 145.531C722.323 145.057 723.412 144.82 724.615 144.82C726.602 144.82 728.161 145.322 729.291 146.324C730.43 147.318 731 148.703 731 150.48C731 151.374 730.713 152.217 730.139 153.01C729.574 153.794 728.84 154.386 727.938 154.787C729.031 155.161 729.861 155.749 730.426 156.551C731 157.353 731.287 158.31 731.287 159.422C731.287 161.208 730.672 162.63 729.441 163.688C728.22 164.745 726.611 165.273 724.615 165.273C722.701 165.273 721.133 164.763 719.912 163.742C718.691 162.721 718.08 161.363 718.08 159.668H721.402C721.402 160.543 721.694 161.254 722.277 161.801C722.87 162.348 723.663 162.621 724.656 162.621C725.686 162.621 726.497 162.348 727.09 161.801C727.682 161.254 727.979 160.461 727.979 159.422C727.979 158.374 727.669 157.567 727.049 157.002C726.429 156.437 725.508 156.154 724.287 156.154H722.332V153.529Z" fill="white"/>
<path d="M747.379 156.619C747.379 159.481 746.841 161.641 745.766 163.1C744.699 164.549 743.072 165.273 740.885 165.273C738.734 165.273 737.111 164.567 736.018 163.154C734.933 161.732 734.377 159.632 734.35 156.852V153.406C734.35 150.544 734.883 148.398 735.949 146.967C737.025 145.536 738.661 144.82 740.857 144.82C743.036 144.82 744.658 145.518 745.725 146.912C746.8 148.307 747.352 150.394 747.379 153.174V156.619ZM744.057 152.9C744.057 151.032 743.801 149.665 743.291 148.799C742.781 147.924 741.969 147.486 740.857 147.486C739.773 147.486 738.975 147.901 738.465 148.73C737.954 149.551 737.686 150.836 737.658 152.586V157.098C737.658 158.957 737.918 160.342 738.438 161.254C738.957 162.165 739.773 162.621 740.885 162.621C741.951 162.621 742.74 162.202 743.25 161.363C743.76 160.516 744.029 159.194 744.057 157.398V152.9Z" fill="white"/>
<path d="M763.293 156.619C763.293 159.481 762.755 161.641 761.68 163.1C760.613 164.549 758.986 165.273 756.799 165.273C754.648 165.273 753.025 164.567 751.932 163.154C750.847 161.732 750.291 159.632 750.264 156.852V153.406C750.264 150.544 750.797 148.398 751.863 146.967C752.939 145.536 754.575 144.82 756.771 144.82C758.95 144.82 760.572 145.518 761.639 146.912C762.714 148.307 763.266 150.394 763.293 153.174V156.619ZM759.971 152.9C759.971 151.032 759.715 149.665 759.205 148.799C758.695 147.924 757.883 147.486 756.771 147.486C755.687 147.486 754.889 147.901 754.379 148.73C753.868 149.551 753.6 150.836 753.572 152.586V157.098C753.572 158.957 753.832 160.342 754.352 161.254C754.871 162.165 755.687 162.621 756.799 162.621C757.865 162.621 758.654 162.202 759.164 161.363C759.674 160.516 759.943 159.194 759.971 157.398V152.9Z" fill="white"/>
</g>
<path id="Line 37 (Stroke)_2" fill-rule="evenodd" clip-rule="evenodd" d="M588 66.9999V164.252H583V66.9999H588Z" fill="#13EBF9"/>
<g id="250">
<path d="M568.875 197H555.49V194.717L562.121 187.484C563.078 186.418 563.757 185.529 564.158 184.818C564.568 184.098 564.773 183.378 564.773 182.658C564.773 181.71 564.505 180.945 563.967 180.361C563.438 179.778 562.723 179.486 561.82 179.486C560.745 179.486 559.911 179.814 559.318 180.471C558.726 181.127 558.43 182.025 558.43 183.164H555.107C555.107 181.952 555.381 180.863 555.928 179.896C556.484 178.921 557.272 178.165 558.293 177.627C559.323 177.089 560.508 176.82 561.848 176.82C563.78 176.82 565.302 177.308 566.414 178.283C567.535 179.249 568.096 180.589 568.096 182.303C568.096 183.296 567.813 184.34 567.248 185.434C566.692 186.518 565.776 187.753 564.5 189.139L559.633 194.348H568.875V197Z" fill="#13EBF9"/>
<path d="M572.293 187.129L573.373 177.094H584.064V179.965H576.135L575.588 184.723C576.508 184.194 577.548 183.93 578.705 183.93C580.601 183.93 582.073 184.536 583.121 185.748C584.178 186.96 584.707 188.592 584.707 190.643C584.707 192.666 584.124 194.279 582.957 195.482C581.79 196.676 580.191 197.273 578.158 197.273C576.335 197.273 574.822 196.758 573.619 195.729C572.425 194.689 571.778 193.322 571.678 191.627H574.891C575.018 192.593 575.365 193.336 575.93 193.855C576.495 194.366 577.233 194.621 578.145 194.621C579.165 194.621 579.958 194.257 580.523 193.527C581.098 192.798 581.385 191.805 581.385 190.547C581.385 189.335 581.07 188.378 580.441 187.676C579.812 186.965 578.947 186.609 577.844 186.609C577.242 186.609 576.732 186.691 576.312 186.855C575.893 187.01 575.438 187.32 574.945 187.785L572.293 187.129Z" fill="#13EBF9"/>
<path d="M600.293 188.619C600.293 191.481 599.755 193.641 598.68 195.1C597.613 196.549 595.986 197.273 593.799 197.273C591.648 197.273 590.025 196.567 588.932 195.154C587.847 193.732 587.291 191.632 587.264 188.852V185.406C587.264 182.544 587.797 180.398 588.863 178.967C589.939 177.536 591.575 176.82 593.771 176.82C595.95 176.82 597.572 177.518 598.639 178.912C599.714 180.307 600.266 182.394 600.293 185.174V188.619ZM596.971 184.9C596.971 183.032 596.715 181.665 596.205 180.799C595.695 179.924 594.883 179.486 593.771 179.486C592.687 179.486 591.889 179.901 591.379 180.73C590.868 181.551 590.6 182.836 590.572 184.586V189.098C590.572 190.957 590.832 192.342 591.352 193.254C591.871 194.165 592.687 194.621 593.799 194.621C594.865 194.621 595.654 194.202 596.164 193.363C596.674 192.516 596.943 191.194 596.971 189.398V184.9Z" fill="#13EBF9"/>
</g>
<path id="Arrow 2 (Stroke)_2" fill-rule="evenodd" clip-rule="evenodd" d="M459 80.6604L444 72.0001L459 63.3398V70.5001H560.015V63.3398L575.015 72.0001L560.015 80.6604V73.5001H459V80.6604Z" fill="#E8A1EE"/>
<g id="41">
<path d="M507.729 43.9043H510.203V46.5703H507.729V51H504.406V46.5703H495.807L495.711 44.5469L504.297 31.0938H507.729V43.9043ZM499.197 43.9043H504.406V35.5918L504.16 36.0293L499.197 43.9043Z" fill="#E8A1EE"/>
<path d="M521.4 51H518.092V35.0176L513.211 36.6855V33.8828L520.977 31.0254H521.4V51Z" fill="#E8A1EE"/>
</g>
</g>
<g id="\therefore\;\;18+58+41&#60;\frac{215}{2}&#10;             \;\,  117&#60;107.5">
<g id="Group">
<g id="Group 103">
<g id="Group_2">
<path id="Vector" d="M114.436 291.021C114.436 290.295 114.688 289.694 115.191 289.219C115.694 288.744 116.295 288.507 116.993 288.507C117.664 288.507 118.237 288.744 118.712 289.219C119.187 289.694 119.438 290.295 119.466 291.021C119.494 291.748 119.256 292.349 118.753 292.824C118.25 293.299 117.65 293.536 116.951 293.536C116.225 293.536 115.624 293.299 115.149 292.824C114.674 292.349 114.436 291.748 114.436 291.021ZM106.515 306.655C107.241 306.655 107.828 306.892 108.275 307.368C108.722 307.843 108.96 308.443 108.988 309.17C108.988 309.84 108.764 310.427 108.317 310.93C107.87 311.433 107.255 311.685 106.473 311.685C105.746 311.685 105.16 311.447 104.713 310.972C104.265 310.497 104.028 309.896 104 309.17C104 308.443 104.238 307.843 104.713 307.368C105.188 306.892 105.788 306.655 106.515 306.655ZM124.957 309.17C124.957 308.443 125.194 307.843 125.669 307.368C126.144 306.892 126.745 306.655 127.471 306.655C128.142 306.655 128.715 306.892 129.19 307.368C129.665 307.843 129.916 308.443 129.944 309.17C129.944 309.812 129.721 310.385 129.274 310.888C128.827 311.391 128.212 311.657 127.429 311.685C126.703 311.685 126.116 311.447 125.669 310.972C125.222 310.497 124.985 309.896 124.957 309.17Z" fill="white"/>
</g>
<g id="Group_3">
<path id="Vector_2" d="M174.804 284.021L174.259 284.231C173.868 284.371 173.309 284.51 172.583 284.65C171.856 284.79 171.046 284.888 170.152 284.944H169.355V283.016H170.152C171.465 282.96 172.681 282.75 173.798 282.387C174.916 282.024 175.698 281.688 176.145 281.381C176.592 281.074 176.984 280.766 177.319 280.459C177.375 280.375 177.543 280.333 177.822 280.333C178.073 280.333 178.311 280.417 178.534 280.585V293.117L178.576 305.691C178.772 305.886 178.94 306.012 179.079 306.068C179.219 306.124 179.554 306.18 180.085 306.235C180.616 306.291 181.482 306.319 182.684 306.319H183.774V308.247H183.313C182.726 308.163 180.504 308.122 176.648 308.122C172.848 308.122 170.655 308.163 170.068 308.247H169.565V306.319H170.655C171.27 306.319 171.8 306.319 172.247 306.319C172.695 306.319 173.044 306.305 173.295 306.277C173.547 306.249 173.77 306.208 173.966 306.152C174.162 306.096 174.273 306.068 174.301 306.068C174.329 306.068 174.413 305.998 174.553 305.858C174.692 305.719 174.776 305.663 174.804 305.691V284.021Z" fill="white"/>
<path id="Vector_3" d="M189.767 290.77C189.767 290.77 189.767 289.694 189.767 287.542C189.767 285.391 190.521 283.658 192.03 282.345C193.539 281.032 195.272 280.361 197.227 280.333C199.211 280.333 200.972 280.92 202.509 282.093C204.045 283.267 204.814 284.79 204.814 286.662C204.814 287.5 204.66 288.283 204.353 289.009C204.045 289.736 203.682 290.322 203.263 290.77C202.844 291.217 202.411 291.608 201.964 291.943C201.517 292.278 201.153 292.53 200.874 292.698C200.594 292.865 200.441 292.977 200.413 293.033L201 293.41C201.391 293.689 201.782 293.969 202.173 294.248C202.564 294.528 202.788 294.681 202.844 294.709C204.939 296.358 205.987 298.44 205.987 300.954C205.987 303.162 205.177 305.076 203.556 306.697C201.936 308.317 199.84 309.141 197.269 309.169C194.755 309.169 192.687 308.457 191.066 307.032C189.446 305.607 188.635 303.846 188.635 301.751C188.635 298.733 190.438 296.218 194.042 294.206L193.288 293.662C192.701 293.298 192.324 293.019 192.156 292.823C190.563 291.454 189.767 289.694 189.767 287.542V290.77ZM198.82 292.069L199.072 291.901C199.239 291.789 199.365 291.706 199.449 291.65C199.533 291.594 199.672 291.496 199.868 291.356C200.064 291.217 200.231 291.077 200.371 290.937C200.511 290.797 200.664 290.63 200.832 290.434C201 290.239 201.153 290.057 201.293 289.889C201.433 289.722 201.572 289.498 201.712 289.219C201.852 288.939 201.978 288.702 202.089 288.506C202.201 288.311 202.271 288.031 202.299 287.668C202.327 287.305 202.355 286.997 202.383 286.746C202.383 285.544 201.978 284.524 201.167 283.686C200.357 282.848 199.421 282.317 198.359 282.093C198.164 282.066 197.702 282.052 196.976 282.052C195.83 282.052 194.755 282.415 193.749 283.141C192.743 283.868 192.226 284.776 192.198 285.866C192.198 286.508 192.38 287.095 192.743 287.626C193.106 288.157 193.469 288.562 193.832 288.842C194.196 289.121 194.894 289.568 195.928 290.183C196.124 290.322 196.277 290.42 196.389 290.476L198.82 292.069ZM197.311 307.367C198.932 307.367 200.329 306.892 201.503 305.942C202.676 304.992 203.263 303.846 203.263 302.505C203.263 302.03 203.193 301.583 203.053 301.164C202.914 300.745 202.746 300.396 202.55 300.116C202.355 299.837 202.047 299.529 201.628 299.194C201.209 298.859 200.888 298.607 200.664 298.44C200.441 298.272 200.036 298.007 199.449 297.643C198.862 297.28 198.485 297.043 198.317 296.931C197.926 296.679 197.507 296.414 197.06 296.134C196.613 295.855 196.249 295.617 195.97 295.422L195.635 295.212C195.467 295.212 195.062 295.45 194.419 295.925C193.777 296.4 193.106 297.168 192.407 298.23C191.709 299.292 191.346 300.438 191.318 301.667C191.318 303.316 191.918 304.671 193.12 305.733C194.321 306.794 195.719 307.339 197.311 307.367Z" fill="white"/>
</g>
<g id="Group_4">
<path id="Vector_4" d="M219.454 298.314C219.454 298.314 219.454 298.133 219.454 297.769C219.454 297.406 219.649 297.127 220.041 296.931H232.573V290.644L232.615 284.357C232.894 283.994 233.159 283.812 233.411 283.812C233.774 283.812 234.054 284.022 234.249 284.441V296.931H246.739C247.158 297.155 247.368 297.434 247.368 297.769C247.368 298.105 247.158 298.384 246.739 298.608H234.249V311.098C234.026 311.489 233.774 311.685 233.495 311.685H233.411H233.327C232.992 311.685 232.74 311.489 232.573 311.098V298.608H220.041C219.649 298.412 219.454 298.133 219.454 297.769V298.314Z" fill="white"/>
</g>
<g id="Group_5">
<path id="Vector_5" d="M265.903 301.667C265.903 302.338 265.679 302.896 265.232 303.343C264.785 303.791 264.24 304.014 263.597 304.014H263.304C264.589 306.222 266.294 307.325 268.417 307.325C270.373 307.325 271.798 306.487 272.693 304.81C273.223 303.888 273.489 302.1 273.489 299.446C273.489 296.568 273.112 294.626 272.357 293.62C271.631 292.698 270.82 292.236 269.926 292.236H269.675C267.495 292.236 265.847 293.187 264.729 295.087C264.617 295.282 264.519 295.394 264.436 295.422C264.352 295.45 264.142 295.478 263.807 295.506C263.332 295.506 263.066 295.422 263.011 295.254C262.955 295.142 262.927 292.698 262.927 287.919V282.513C262.927 281.116 262.997 280.417 263.136 280.417C263.192 280.361 263.248 280.333 263.304 280.333C263.332 280.333 263.625 280.445 264.184 280.668C264.743 280.892 265.511 281.116 266.489 281.339C267.467 281.563 268.515 281.674 269.633 281.674C271.617 281.674 273.517 281.283 275.333 280.501C275.557 280.389 275.738 280.333 275.878 280.333C276.101 280.333 276.213 280.585 276.213 281.088V281.632C273.922 284.343 271.058 285.698 267.621 285.698C266.755 285.698 265.972 285.614 265.274 285.447L264.855 285.363V292.572C265.386 292.181 265.805 291.873 266.112 291.65C266.42 291.426 266.923 291.203 267.621 290.979C268.32 290.756 269.032 290.644 269.759 290.644C272.022 290.644 273.936 291.552 275.501 293.368C277.066 295.184 277.848 297.336 277.848 299.823C277.848 302.393 276.954 304.587 275.165 306.403C273.377 308.219 271.198 309.141 268.627 309.169C266.364 309.169 264.547 308.415 263.178 306.906C261.809 305.397 261.125 303.693 261.125 301.793C261.125 301.122 261.278 300.591 261.586 300.2C261.893 299.809 262.214 299.557 262.55 299.446C262.885 299.334 263.206 299.278 263.514 299.278C264.212 299.278 264.785 299.515 265.232 299.99C265.679 300.465 265.903 301.024 265.903 301.667Z" fill="white"/>
<path id="Vector_6" d="M282.919 290.77C282.919 290.77 282.919 289.694 282.919 287.542C282.919 285.391 283.674 283.658 285.183 282.345C286.691 281.032 288.424 280.361 290.38 280.333C292.364 280.333 294.124 280.92 295.661 282.093C297.198 283.267 297.966 284.79 297.966 286.662C297.966 287.5 297.812 288.283 297.505 289.009C297.198 289.736 296.834 290.322 296.415 290.77C295.996 291.217 295.563 291.608 295.116 291.943C294.669 292.278 294.306 292.53 294.026 292.698C293.747 292.865 293.593 292.977 293.565 293.033L294.152 293.41C294.543 293.689 294.934 293.969 295.326 294.248C295.717 294.528 295.94 294.681 295.996 294.709C298.092 296.358 299.14 298.44 299.14 300.954C299.14 303.162 298.329 305.076 296.709 306.697C295.088 308.317 292.992 309.141 290.422 309.169C287.907 309.169 285.839 308.457 284.219 307.032C282.598 305.607 281.788 303.846 281.788 301.751C281.788 298.733 283.59 296.218 287.194 294.206L286.44 293.662C285.853 293.298 285.476 293.019 285.308 292.823C283.716 291.454 282.919 289.694 282.919 287.542V290.77ZM291.973 292.069L292.224 291.901C292.392 291.789 292.517 291.706 292.601 291.65C292.685 291.594 292.825 291.496 293.02 291.356C293.216 291.217 293.384 291.077 293.523 290.937C293.663 290.797 293.817 290.63 293.984 290.434C294.152 290.239 294.306 290.057 294.445 289.889C294.585 289.722 294.725 289.498 294.865 289.219C295.004 288.939 295.13 288.702 295.242 288.506C295.354 288.311 295.423 288.031 295.451 287.668C295.479 287.305 295.507 286.997 295.535 286.746C295.535 285.544 295.13 284.524 294.32 283.686C293.509 282.848 292.573 282.317 291.511 282.093C291.316 282.066 290.855 282.052 290.128 282.052C288.983 282.052 287.907 282.415 286.901 283.141C285.895 283.868 285.378 284.776 285.35 285.866C285.35 286.508 285.532 287.095 285.895 287.626C286.258 288.157 286.622 288.562 286.985 288.842C287.348 289.121 288.047 289.568 289.08 290.183C289.276 290.322 289.43 290.42 289.542 290.476L291.973 292.069ZM290.464 307.367C292.084 307.367 293.481 306.892 294.655 305.942C295.829 304.992 296.415 303.846 296.415 302.505C296.415 302.03 296.345 301.583 296.206 301.164C296.066 300.745 295.898 300.396 295.703 300.116C295.507 299.837 295.2 299.529 294.781 299.194C294.362 298.859 294.04 298.607 293.817 298.44C293.593 298.272 293.188 298.007 292.601 297.643C292.014 297.28 291.637 297.043 291.47 296.931C291.078 296.679 290.659 296.414 290.212 296.134C289.765 295.855 289.402 295.617 289.122 295.422L288.787 295.212C288.619 295.212 288.214 295.45 287.572 295.925C286.929 296.4 286.258 297.168 285.56 298.23C284.861 299.292 284.498 300.438 284.47 301.667C284.47 303.316 285.071 304.671 286.272 305.733C287.474 306.794 288.871 307.339 290.464 307.367Z" fill="white"/>
</g>
<g id="Group_6">
<path id="Vector_7" d="M312.602 298.314C312.602 298.314 312.602 298.133 312.602 297.769C312.602 297.406 312.798 297.127 313.189 296.931H325.721V290.644L325.763 284.357C326.042 283.994 326.308 283.812 326.559 283.812C326.922 283.812 327.202 284.022 327.397 284.441V296.931H339.888C340.307 297.155 340.516 297.434 340.516 297.769C340.516 298.105 340.307 298.384 339.888 298.608H327.397V311.098C327.174 311.489 326.922 311.685 326.643 311.685H326.559H326.475C326.14 311.685 325.889 311.489 325.721 311.098V298.608H313.189C312.798 298.412 312.602 298.133 312.602 297.769V298.314Z" fill="white"/>
</g>
<g id="Group_7">
<path id="Vector_8" d="M371.54 308.247C371.037 308.163 369.235 308.122 366.133 308.122C362.892 308.122 361.02 308.163 360.517 308.247H360.14V306.319H361.439C361.998 306.319 362.375 306.319 362.571 306.319C362.766 306.319 363.004 306.291 363.283 306.235C363.563 306.18 363.758 306.11 363.87 306.026C363.982 305.942 364.08 305.83 364.163 305.691C364.191 305.635 364.205 304.88 364.205 303.427V301.332H353.35V299.404L359.679 289.722C363.954 283.239 366.119 279.984 366.175 279.956C366.231 279.9 366.525 279.872 367.055 279.872H367.81L368.061 280.124V299.404H371.917V301.332H368.061V303.469C368.061 304.615 368.061 305.285 368.061 305.481C368.061 305.677 368.145 305.844 368.313 305.984C368.536 306.18 369.333 306.291 370.702 306.319H371.917V308.247H371.54ZM364.457 299.404V285.405L355.278 299.362L359.846 299.404H364.457Z" fill="white"/>
<path id="Vector_9" d="M382.06 284.021L381.515 284.231C381.124 284.371 380.565 284.51 379.839 284.65C379.112 284.79 378.302 284.888 377.408 284.944H376.611V283.016H377.408C378.721 282.96 379.936 282.75 381.054 282.387C382.172 282.024 382.954 281.688 383.401 281.381C383.848 281.074 384.24 280.766 384.575 280.459C384.631 280.375 384.798 280.333 385.078 280.333C385.329 280.333 385.567 280.417 385.79 280.585V293.117L385.832 305.691C386.028 305.886 386.195 306.012 386.335 306.068C386.475 306.124 386.81 306.18 387.341 306.235C387.872 306.291 388.738 306.319 389.94 306.319H391.029V308.247H390.568C389.982 308.163 387.76 308.122 383.904 308.122C380.104 308.122 377.911 308.163 377.324 308.247H376.821V306.319H377.911C378.525 306.319 379.056 306.319 379.503 306.319C379.95 306.319 380.3 306.305 380.551 306.277C380.803 306.249 381.026 306.208 381.222 306.152C381.417 306.096 381.529 306.068 381.557 306.068C381.585 306.068 381.669 305.998 381.809 305.858C381.948 305.719 382.032 305.663 382.06 305.691V284.021Z" fill="white"/>
</g>
<g id="Group_8">
<path id="Vector_10" d="M434.821 308.708C434.821 308.708 434.821 308.82 434.821 309.044C434.821 309.267 434.738 309.463 434.57 309.63C434.402 309.798 434.263 309.896 434.151 309.924C433.955 309.924 431.804 308.96 427.696 307.032C423.589 305.104 419.537 303.19 415.541 301.29L409.506 298.398C409.31 298.258 409.212 298.048 409.212 297.769C409.212 297.462 409.324 297.238 409.548 297.098C425.559 289.442 433.76 285.614 434.151 285.614C434.235 285.614 434.36 285.698 434.528 285.866C434.696 286.033 434.793 286.243 434.821 286.494C434.849 286.746 434.752 286.941 434.528 287.081C434.5 287.109 430.728 288.911 423.211 292.488L412.063 297.769L423.211 303.05C430.728 306.627 434.5 308.429 434.528 308.457C434.724 308.625 434.821 308.82 434.821 309.044V308.708Z" fill="white"/>
</g>
<g id="Group_9">
<g id="Group_10">
<path id="Vector_11" d="M463.775 261.933C463.02 261.933 462.42 261.682 461.973 261.179C461.526 260.676 461.302 260.061 461.302 259.335C461.302 257.351 462.042 255.632 463.523 254.179C465.004 252.726 466.849 252 469.056 252C471.599 252 473.722 252.782 475.427 254.347C477.131 255.912 477.997 257.938 478.025 260.424C478.025 261.626 477.746 262.772 477.187 263.861C476.628 264.951 475.958 265.901 475.175 266.711C474.393 267.522 473.275 268.556 471.822 269.813C470.816 270.679 469.419 271.965 467.631 273.669L465.158 276.016L468.343 276.058C472.73 276.058 475.064 275.988 475.343 275.848C475.539 275.793 475.874 274.549 476.349 272.118V271.992H478.025V272.118C477.997 272.202 477.816 273.473 477.481 275.932C477.145 278.391 476.936 279.677 476.852 279.788V279.914H461.302V279.118V278.615C461.302 278.419 461.386 278.21 461.553 277.986C461.721 277.763 462.14 277.274 462.811 276.519C463.621 275.625 464.32 274.843 464.907 274.172C465.158 273.893 465.633 273.376 466.332 272.621C467.03 271.867 467.505 271.35 467.757 271.07C468.008 270.791 468.413 270.33 468.972 269.687C469.531 269.045 469.922 268.57 470.146 268.262C470.369 267.955 470.691 267.536 471.11 267.005C471.529 266.474 471.822 266.027 471.99 265.664C472.158 265.3 472.367 264.895 472.619 264.448C472.87 264.001 473.052 263.554 473.163 263.107C473.275 262.66 473.373 262.241 473.457 261.849C473.541 261.458 473.583 260.997 473.583 260.466C473.583 258.706 473.108 257.183 472.158 255.898C471.207 254.612 469.852 253.97 468.092 253.97C467.17 253.97 466.36 254.207 465.661 254.682C464.962 255.157 464.473 255.618 464.194 256.065C463.915 256.513 463.775 256.778 463.775 256.862C463.775 256.89 463.845 256.904 463.984 256.904C464.487 256.904 465.004 257.099 465.535 257.49C466.066 257.882 466.332 258.524 466.332 259.419C466.332 260.117 466.108 260.704 465.661 261.179C465.214 261.654 464.585 261.905 463.775 261.933Z" fill="white"/>
<path id="Vector_12" d="M489.09 255.688L488.545 255.898C488.154 256.038 487.595 256.177 486.869 256.317C486.142 256.457 485.332 256.554 484.438 256.61H483.641V254.682H484.438C485.751 254.626 486.966 254.417 488.084 254.054C489.202 253.69 489.984 253.355 490.431 253.048C490.878 252.74 491.27 252.433 491.605 252.126C491.661 252.042 491.828 252 492.108 252C492.359 252 492.597 252.084 492.82 252.251V264.783L492.862 277.357C493.058 277.553 493.226 277.679 493.365 277.735C493.505 277.79 493.84 277.846 494.371 277.902C494.902 277.958 495.768 277.986 496.97 277.986H498.06V279.914H497.598C497.012 279.83 494.79 279.788 490.934 279.788C487.134 279.788 484.941 279.83 484.354 279.914H483.851V277.986H484.941C485.555 277.986 486.086 277.986 486.533 277.986C486.98 277.986 487.33 277.972 487.581 277.944C487.833 277.916 488.056 277.874 488.252 277.818C488.447 277.763 488.559 277.735 488.587 277.735C488.615 277.735 488.699 277.665 488.839 277.525C488.978 277.385 489.062 277.329 489.09 277.357V255.688Z" fill="white"/>
<path id="Vector_13" d="M507.993 273.334C507.993 274.004 507.77 274.563 507.323 275.01C506.876 275.457 506.331 275.681 505.688 275.681H505.395C506.68 277.888 508.385 278.992 510.508 278.992C512.464 278.992 513.889 278.154 514.783 276.477C515.314 275.555 515.58 273.767 515.58 271.112C515.58 268.234 515.203 266.292 514.448 265.286C513.722 264.364 512.911 263.903 512.017 263.903H511.766C509.586 263.903 507.938 264.853 506.82 266.753C506.708 266.949 506.61 267.061 506.526 267.089C506.443 267.117 506.233 267.145 505.898 267.172C505.423 267.172 505.157 267.089 505.101 266.921C505.046 266.809 505.018 264.364 505.018 259.586V254.179C505.018 252.782 505.087 252.084 505.227 252.084C505.283 252.028 505.339 252 505.395 252C505.423 252 505.716 252.112 506.275 252.335C506.834 252.559 507.602 252.782 508.58 253.006C509.558 253.229 510.606 253.341 511.724 253.341C513.708 253.341 515.608 252.95 517.424 252.168C517.647 252.056 517.829 252 517.969 252C518.192 252 518.304 252.251 518.304 252.754V253.299C516.013 256.01 513.149 257.365 509.712 257.365C508.846 257.365 508.063 257.281 507.365 257.113L506.946 257.029V264.239C507.477 263.847 507.896 263.54 508.203 263.316C508.51 263.093 509.013 262.869 509.712 262.646C510.41 262.422 511.123 262.311 511.849 262.311C514.113 262.311 516.027 263.219 517.592 265.035C519.156 266.851 519.939 269.003 519.939 271.49C519.939 274.06 519.045 276.254 517.256 278.07C515.468 279.886 513.288 280.808 510.718 280.836C508.454 280.836 506.638 280.082 505.269 278.573C503.9 277.064 503.215 275.36 503.215 273.459C503.215 272.789 503.369 272.258 503.676 271.867C503.984 271.476 504.305 271.224 504.64 271.112C504.976 271.001 505.297 270.945 505.604 270.945C506.303 270.945 506.876 271.182 507.323 271.657C507.77 272.132 507.993 272.691 507.993 273.334Z" fill="white"/>
</g>
<g id="Group_11">
<path id="Vector_14" d="M484.731 319.019C483.977 319.019 483.376 318.768 482.929 318.265C482.482 317.762 482.258 317.147 482.258 316.421C482.258 314.437 482.999 312.718 484.48 311.265C485.961 309.812 487.805 309.086 490.012 309.086C492.555 309.086 494.679 309.868 496.383 311.433C498.088 312.998 498.954 315.024 498.982 317.51C498.982 318.712 498.702 319.857 498.143 320.947C497.585 322.037 496.914 322.987 496.132 323.797C495.349 324.608 494.232 325.642 492.779 326.899C491.773 327.765 490.375 329.05 488.587 330.755L486.114 333.102L489.3 333.144C493.687 333.144 496.02 333.074 496.299 332.934C496.495 332.879 496.83 331.635 497.305 329.204V329.078H498.982V329.204C498.954 329.288 498.772 330.559 498.437 333.018C498.101 335.477 497.892 336.762 497.808 336.874V337H482.258V336.204V335.701C482.258 335.505 482.342 335.296 482.51 335.072C482.677 334.848 483.097 334.359 483.767 333.605C484.577 332.711 485.276 331.929 485.863 331.258C486.114 330.978 486.589 330.462 487.288 329.707C487.986 328.953 488.461 328.436 488.713 328.156C488.964 327.877 489.37 327.416 489.928 326.773C490.487 326.131 490.878 325.655 491.102 325.348C491.326 325.041 491.647 324.622 492.066 324.091C492.485 323.56 492.779 323.113 492.946 322.75C493.114 322.386 493.323 321.981 493.575 321.534C493.826 321.087 494.008 320.64 494.12 320.193C494.232 319.746 494.329 319.327 494.413 318.935C494.497 318.544 494.539 318.083 494.539 317.552C494.539 315.792 494.064 314.269 493.114 312.984C492.164 311.698 490.809 311.056 489.048 311.056C488.126 311.056 487.316 311.293 486.617 311.768C485.919 312.243 485.43 312.704 485.15 313.151C484.871 313.598 484.731 313.864 484.731 313.948C484.731 313.976 484.801 313.99 484.941 313.99C485.444 313.99 485.961 314.185 486.492 314.576C487.022 314.968 487.288 315.61 487.288 316.504C487.288 317.203 487.064 317.79 486.617 318.265C486.17 318.74 485.542 318.991 484.731 319.019Z" fill="white"/>
</g>
<path id="Vector_15" d="M526.267 299.027H455.015V296.512H526.267V299.027Z" fill="white"/>
</g>
</g>
<g id="Group 102">
<g id="Group_12">
<path id="Vector_16" d="M339.449 356.108L338.904 356.317C338.513 356.457 337.954 356.597 337.227 356.736C336.501 356.876 335.69 356.974 334.796 357.03H334V355.102H334.796C336.11 355.046 337.325 354.836 338.443 354.473C339.56 354.11 340.343 353.774 340.79 353.467C341.237 353.16 341.628 352.852 341.964 352.545C342.019 352.461 342.187 352.419 342.466 352.419C342.718 352.419 342.955 352.503 343.179 352.671V365.203L343.221 377.777C343.417 377.972 343.584 378.098 343.724 378.154C343.864 378.21 344.199 378.266 344.73 378.322C345.261 378.378 346.127 378.405 347.328 378.405H348.418V380.333H347.957C347.37 380.25 345.149 380.208 341.293 380.208C337.493 380.208 335.299 380.25 334.713 380.333H334.21V378.405H335.299C335.914 378.405 336.445 378.405 336.892 378.405C337.339 378.405 337.688 378.392 337.94 378.364C338.191 378.336 338.415 378.294 338.61 378.238C338.806 378.182 338.918 378.154 338.946 378.154C338.974 378.154 339.058 378.084 339.197 377.944C339.337 377.805 339.421 377.749 339.449 377.777V356.108Z" fill="white"/>
<path id="Vector_17" d="M360.406 356.108L359.861 356.317C359.47 356.457 358.911 356.597 358.184 356.736C357.458 356.876 356.648 356.974 355.753 357.03H354.957V355.102H355.753C357.067 355.046 358.282 354.836 359.4 354.473C360.518 354.11 361.3 353.774 361.747 353.467C362.194 353.16 362.585 352.852 362.921 352.545C362.976 352.461 363.144 352.419 363.424 352.419C363.675 352.419 363.912 352.503 364.136 352.671V365.203L364.178 377.777C364.374 377.972 364.541 378.098 364.681 378.154C364.821 378.21 365.156 378.266 365.687 378.322C366.218 378.378 367.084 378.405 368.285 378.405H369.375V380.333H368.914C368.327 380.25 366.106 380.208 362.25 380.208C358.45 380.208 356.256 380.25 355.67 380.333H355.167V378.405H356.256C356.871 378.405 357.402 378.405 357.849 378.405C358.296 378.405 358.645 378.392 358.897 378.364C359.148 378.336 359.372 378.294 359.567 378.238C359.763 378.182 359.875 378.154 359.903 378.154C359.931 378.154 360.015 378.084 360.154 377.944C360.294 377.805 360.378 377.749 360.406 377.777V356.108Z" fill="white"/>
<path id="Vector_18" d="M374.74 361.137C374.768 361.081 375.005 359.559 375.452 356.569L376.123 352.084C376.123 352.028 376.402 352 376.961 352H377.799V352.168C377.799 352.447 378.009 352.685 378.428 352.88C378.847 353.076 379.574 353.202 380.608 353.258C381.641 353.313 384.003 353.341 387.691 353.341H392.762V354.976L389.912 358.874C389.661 359.209 389.242 359.768 388.655 360.55C388.068 361.333 387.691 361.85 387.523 362.101C387.356 362.353 387.062 362.8 386.643 363.443C386.224 364.085 385.945 364.588 385.805 364.951C385.665 365.315 385.47 365.832 385.218 366.502C384.967 367.173 384.785 367.815 384.673 368.43C384.561 369.045 384.45 369.799 384.338 370.693C384.226 371.588 384.142 372.538 384.086 373.544C384.031 374.55 383.989 375.695 383.961 376.98C383.961 377.372 383.961 377.763 383.961 378.154C383.961 378.545 383.947 378.881 383.919 379.16V379.537C383.807 380.012 383.542 380.417 383.122 380.753C382.703 381.088 382.228 381.256 381.697 381.256C381.39 381.256 381.097 381.214 380.817 381.13C380.538 381.046 380.244 380.781 379.937 380.334C379.63 379.886 379.476 379.328 379.476 378.657C379.476 374.242 380.831 369.66 383.542 364.909C384.1 364.015 385.274 362.325 387.062 359.838L388.99 357.197H385.092C380.23 357.197 377.674 357.281 377.422 357.449C377.255 357.533 377.101 357.868 376.961 358.455C376.821 359.042 376.682 359.642 376.542 360.257L376.416 361.137V361.263H374.74V361.137Z" fill="white"/>
</g>
<g id="Group_13">
<path id="Vector_19" d="M434.122 380.794C434.122 380.794 434.122 380.906 434.122 381.13C434.122 381.353 434.039 381.549 433.871 381.716C433.703 381.884 433.564 381.982 433.452 382.01C433.256 382.01 431.105 381.046 426.997 379.118C422.89 377.19 418.838 375.276 414.842 373.376L408.807 370.484C408.611 370.344 408.513 370.134 408.513 369.855C408.513 369.548 408.625 369.324 408.849 369.184C424.86 361.528 433.061 357.7 433.452 357.7C433.536 357.7 433.661 357.784 433.829 357.952C433.997 358.119 434.094 358.329 434.122 358.58C434.15 358.832 434.053 359.027 433.829 359.167C433.801 359.195 430.029 360.997 422.512 364.574L411.364 369.855L422.512 375.136C430.029 378.713 433.801 380.515 433.829 380.543C434.025 380.71 434.122 380.906 434.122 381.13V380.794Z" fill="white"/>
</g>
<g id="Group_14">
<path id="Vector_20" d="M458.214 356.107L457.669 356.317C457.278 356.457 456.719 356.596 455.992 356.736C455.266 356.876 454.455 356.974 453.561 357.03H452.765V355.101H453.561C454.875 355.046 456.09 354.836 457.208 354.473C458.325 354.11 459.108 353.774 459.555 353.467C460.002 353.16 460.393 352.852 460.728 352.545C460.784 352.461 460.952 352.419 461.231 352.419C461.483 352.419 461.72 352.503 461.944 352.671V365.203L461.986 377.777C462.181 377.972 462.349 378.098 462.489 378.154C462.628 378.21 462.964 378.266 463.495 378.321C464.026 378.377 464.892 378.405 466.093 378.405H467.183V380.333H466.722C466.135 380.249 463.914 380.208 460.058 380.208C456.258 380.208 454.064 380.249 453.477 380.333H452.974V378.405H454.064C454.679 378.405 455.21 378.405 455.657 378.405C456.104 378.405 456.453 378.391 456.705 378.363C456.956 378.335 457.18 378.293 457.375 378.238C457.571 378.182 457.683 378.154 457.711 378.154C457.739 378.154 457.822 378.084 457.962 377.944C458.102 377.804 458.186 377.749 458.214 377.777V356.107Z" fill="white"/>
<path id="Vector_21" d="M474.266 355.814C475.831 353.551 477.969 352.419 480.679 352.419C482.02 352.419 483.362 352.782 484.703 353.509C486.044 354.235 487.134 355.521 487.972 357.365C489.006 359.684 489.523 362.869 489.523 366.921C489.523 371.252 488.922 374.563 487.721 376.854C487.162 378.028 486.393 378.964 485.415 379.663C484.437 380.361 483.585 380.794 482.859 380.962C482.132 381.13 481.42 381.227 480.721 381.255C479.995 381.255 479.268 381.172 478.542 381.004C477.815 380.836 476.963 380.389 475.985 379.663C475.007 378.936 474.239 378 473.68 376.854C472.478 374.563 471.877 371.252 471.877 366.921C471.877 362.059 472.674 358.357 474.266 355.814ZM483.697 355.311C482.859 354.417 481.867 353.97 480.721 353.97C479.548 353.97 478.542 354.417 477.703 355.311C477.005 356.038 476.544 357.044 476.32 358.329C476.097 359.614 475.985 362.297 475.985 366.376C475.985 370.791 476.097 373.697 476.32 375.094C476.544 376.491 477.047 377.595 477.829 378.405C478.611 379.244 479.576 379.663 480.721 379.663C481.839 379.663 482.789 379.244 483.571 378.405C484.382 377.567 484.885 376.393 485.08 374.885C485.276 373.376 485.387 370.54 485.415 366.376C485.415 362.325 485.304 359.656 485.08 358.371C484.857 357.085 484.396 356.066 483.697 355.311Z" fill="white"/>
<path id="Vector_22" d="M493.504 361.137C493.532 361.081 493.77 359.558 494.217 356.568L494.888 352.084C494.888 352.028 495.167 352 495.726 352H496.564V352.168C496.564 352.447 496.774 352.685 497.193 352.88C497.612 353.076 498.338 353.201 499.372 353.257C500.406 353.313 502.767 353.341 506.456 353.341H511.527V354.976L508.677 358.874C508.425 359.209 508.006 359.768 507.42 360.55C506.833 361.333 506.456 361.85 506.288 362.101C506.12 362.353 505.827 362.8 505.408 363.442C504.989 364.085 504.709 364.588 504.569 364.951C504.43 365.314 504.234 365.831 503.983 366.502C503.731 367.173 503.55 367.815 503.438 368.43C503.326 369.045 503.214 369.799 503.103 370.693C502.991 371.587 502.907 372.537 502.851 373.543C502.795 374.549 502.753 375.695 502.725 376.98C502.725 377.371 502.725 377.763 502.725 378.154C502.725 378.545 502.711 378.88 502.683 379.16V379.537C502.572 380.012 502.306 380.417 501.887 380.752C501.468 381.088 500.993 381.255 500.462 381.255C500.155 381.255 499.861 381.213 499.582 381.13C499.302 381.046 499.009 380.78 498.702 380.333C498.394 379.886 498.241 379.327 498.241 378.657C498.241 374.242 499.596 369.659 502.306 364.909C502.865 364.015 504.039 362.325 505.827 359.838L507.755 357.197H503.857C498.995 357.197 496.438 357.281 496.187 357.449C496.019 357.532 495.866 357.868 495.726 358.455C495.586 359.041 495.446 359.642 495.307 360.257L495.181 361.137V361.263H493.504V361.137Z" fill="white"/>
<path id="Vector_23" d="M515.425 377.818C515.425 377.148 515.663 376.561 516.138 376.058C516.613 375.555 517.214 375.304 517.94 375.304C518.611 375.304 519.197 375.527 519.7 375.974C520.203 376.421 520.469 377.022 520.497 377.777C520.497 378.475 520.259 379.076 519.784 379.579C519.309 380.082 518.708 380.333 517.982 380.333C517.256 380.333 516.655 380.096 516.18 379.621C515.705 379.146 515.453 378.545 515.425 377.818Z" fill="white"/>
<path id="Vector_24" d="M530.681 373.753C530.681 374.424 530.458 374.982 530.011 375.429C529.563 375.877 529.019 376.1 528.376 376.1H528.083C529.368 378.307 531.072 379.411 533.196 379.411C535.152 379.411 536.577 378.573 537.471 376.896C538.002 375.974 538.267 374.186 538.267 371.532C538.267 368.653 537.89 366.711 537.136 365.706C536.409 364.783 535.599 364.322 534.705 364.322H534.453C532.274 364.322 530.625 365.272 529.508 367.173C529.396 367.368 529.298 367.48 529.214 367.508C529.13 367.536 528.921 367.564 528.586 367.592C528.111 367.592 527.845 367.508 527.789 367.34C527.733 367.228 527.705 364.783 527.705 360.005V354.599C527.705 353.201 527.775 352.503 527.915 352.503C527.971 352.447 528.027 352.419 528.083 352.419C528.111 352.419 528.404 352.531 528.963 352.754C529.522 352.978 530.29 353.201 531.268 353.425C532.246 353.649 533.294 353.76 534.411 353.76C536.395 353.76 538.295 353.369 540.112 352.587C540.335 352.475 540.517 352.419 540.657 352.419C540.88 352.419 540.992 352.671 540.992 353.174V353.718C538.701 356.429 535.837 357.784 532.4 357.784C531.533 357.784 530.751 357.7 530.052 357.532L529.633 357.449V364.658C530.164 364.267 530.583 363.959 530.891 363.736C531.198 363.512 531.701 363.289 532.4 363.065C533.098 362.841 533.811 362.73 534.537 362.73C536.801 362.73 538.715 363.638 540.279 365.454C541.844 367.27 542.626 369.422 542.626 371.909C542.626 374.479 541.732 376.673 539.944 378.489C538.156 380.305 535.976 381.227 533.406 381.255C531.142 381.255 529.326 380.501 527.957 378.992C526.588 377.483 525.903 375.779 525.903 373.879C525.903 373.208 526.057 372.677 526.364 372.286C526.671 371.895 526.993 371.643 527.328 371.532C527.663 371.42 527.985 371.364 528.292 371.364C528.991 371.364 529.563 371.601 530.011 372.076C530.458 372.551 530.681 373.11 530.681 373.753Z" fill="white"/>
</g>
</g>
</g>
</g>
</g>
<g id="( F )">
<path d="M605 384.125C605 380.516 605.484 377.094 606.453 373.859C607.422 370.609 608.844 367.711 610.719 365.164C612.594 362.602 614.578 360.805 616.672 359.773L617.797 363.102C615.594 364.773 613.805 367.328 612.43 370.766C611.07 374.188 610.328 378.109 610.203 382.531L610.18 384.547C610.18 389.281 610.844 393.508 612.172 397.227C613.516 400.93 615.391 403.75 617.797 405.688L616.672 408.852C614.578 407.82 612.586 406.016 610.695 403.438C608.82 400.875 607.398 397.984 606.43 394.766C605.477 391.531 605 387.984 605 384.125Z" fill="white"/>
<path d="M653.82 383.539H640.086V398H634.156V363.875H655.836V368.656H640.086V378.805H653.82V383.539Z" fill="white"/>
<path d="M682.93 384.5C682.93 387.969 682.453 391.32 681.5 394.555C680.547 397.773 679.102 400.703 677.164 403.344C675.227 406 673.203 407.836 671.094 408.852L669.969 405.688C672.312 403.875 674.164 401.109 675.523 397.391C676.898 393.656 677.586 389.398 677.586 384.617V384.078C677.586 379.734 676.992 375.781 675.805 372.219C674.617 368.641 672.914 365.773 670.695 363.617L669.969 362.961L671.094 359.773C673.094 360.742 675.031 362.461 676.906 364.93C678.781 367.398 680.219 370.164 681.219 373.227C682.219 376.273 682.781 379.422 682.906 382.672L682.93 384.5Z" fill="white"/>
</g>
</g>
</svg>
