<svg viewBox="0 0 739 300" fill="none" xmlns="http://www.w3.org/2000/svg">
<g id="0125212">
<g id="Group">
<g id="Group 175">
<g id="Group_2">
<path id="Vector" d="M24.3275 12.3738C23.4295 12.3738 22.7143 12.0744 22.1821 11.4757C21.6499 10.8769 21.3838 10.1452 21.3838 9.28033C21.3838 6.91867 22.2653 4.87301 24.0282 3.14334C25.7911 1.41368 27.9865 0.548847 30.6142 0.548847C33.6411 0.548847 36.1691 1.48021 38.1981 3.34292C40.2272 5.20564 41.2583 7.61719 41.2916 10.5776C41.2916 12.0079 40.9589 13.3717 40.2937 14.6689C39.6284 15.9662 38.8301 17.0971 37.8988 18.0617C36.9674 19.0263 35.6369 20.2571 33.9072 21.7539C32.7098 22.785 31.0466 24.3151 28.9178 26.3441L25.9741 29.1382L29.766 29.1881C34.9883 29.1881 37.7657 29.105 38.0983 28.9386C38.3312 28.8721 38.7303 27.3919 39.2958 24.4981V24.3484H41.2916V24.4981C41.2583 24.5978 41.0421 26.1113 40.6429 29.0384C40.2438 31.9656 39.9943 33.4956 39.8945 33.6287V33.7784H21.3838V32.8304V32.2317C21.3838 31.9988 21.4836 31.7494 21.6832 31.4832C21.8827 31.2171 22.3817 30.635 23.18 29.737C24.1446 28.6725 24.9762 27.7412 25.6747 26.9429C25.9741 26.6102 26.5395 25.9949 27.3711 25.0968C28.2027 24.1987 28.7681 23.5833 29.0675 23.2507C29.3669 22.9181 29.8492 22.3692 30.5144 21.6042C31.1797 20.8392 31.6454 20.2737 31.9115 19.9078C32.1776 19.5419 32.5601 19.043 33.059 18.411C33.558 17.779 33.9072 17.2468 34.1068 16.8144C34.3064 16.3819 34.5559 15.8996 34.8552 15.3674C35.1546 14.8352 35.3708 14.303 35.5038 13.7708C35.6369 13.2386 35.7533 12.7397 35.8531 12.274C35.9529 11.8083 36.0028 11.2595 36.0028 10.6275C36.0028 8.53192 35.4373 6.7191 34.3064 5.18901C33.1755 3.65892 31.5622 2.89388 29.4666 2.89388C28.369 2.89388 27.4044 3.17661 26.5728 3.74208C25.7412 4.30754 25.1591 4.85638 24.8265 5.38858C24.4939 5.92079 24.3275 6.23679 24.3275 6.33657C24.3275 6.36984 24.4107 6.38647 24.577 6.38647C25.1757 6.38647 25.7911 6.61931 26.4231 7.08499C27.0551 7.55067 27.3711 8.31571 27.3711 9.38012C27.3711 10.2117 27.105 10.9102 26.5728 11.4757C26.0406 12.0411 25.2922 12.3405 24.3275 12.3738Z" fill="white"/>
</g>
<g id="Group_3">
<path id="Vector_2" d="M45.4873 25.9456C45.4873 22.5861 46.7513 19.3929 49.2793 16.3659C51.8072 13.339 54.6512 11.8089 57.8112 11.7757C59.5076 11.7757 61.0044 12.5906 62.3016 14.2205C62.8339 13.2226 63.5989 12.7237 64.5968 12.7237C65.0292 12.7237 65.4117 12.8567 65.7443 13.1228C66.077 13.3889 66.2433 13.7215 66.2433 14.1207C66.2433 14.5531 65.6279 17.2141 64.3972 22.1038C63.1665 26.9934 62.5345 29.7542 62.5012 30.3862C62.5012 31.2178 62.6176 31.7666 62.8505 32.0327C63.0833 32.2988 63.4326 32.4485 63.8983 32.4818C64.1976 32.4485 64.5303 32.2988 64.8961 32.0327C65.5947 31.3675 66.2766 29.7708 66.9418 27.2429C67.1414 26.5776 67.3077 26.2284 67.4408 26.1951C67.5073 26.1618 67.6736 26.1452 67.9397 26.1452H68.1393C68.7713 26.1452 69.0873 26.2949 69.0873 26.5942C69.0873 26.7938 69.0041 27.2429 68.8378 27.9414C68.6715 28.6399 68.3388 29.538 67.8399 30.6357C67.341 31.7334 66.8088 32.5649 66.2433 33.1304C65.8109 33.5628 65.2787 33.9121 64.6467 34.1782C64.3806 34.2447 63.9814 34.278 63.4492 34.278C62.3183 34.278 61.3703 34.0285 60.6052 33.5295C59.8402 33.0306 59.3413 32.515 59.1084 31.9828L58.8091 31.2344C58.7758 31.2011 58.7093 31.2178 58.6095 31.2843C58.543 31.3508 58.4764 31.4174 58.4099 31.4839C56.4474 33.3466 54.4516 34.278 52.4226 34.278C50.5931 34.278 48.9799 33.6127 47.5829 32.2822C46.1858 30.9517 45.4873 28.8395 45.4873 25.9456ZM61.3537 17.4137C61.3537 17.2141 61.2705 16.8482 61.1042 16.316C60.9379 15.7838 60.5554 15.2017 59.9566 14.5697C59.3579 13.9378 58.5928 13.6051 57.6615 13.5719C56.4973 13.5719 55.383 14.0874 54.3186 15.1186C53.2542 16.1497 52.4226 17.4969 51.8239 19.16C50.8592 21.7878 50.1774 24.5153 49.7782 27.3427C49.7782 27.4424 49.7782 27.6254 49.7782 27.8915C49.7782 28.1576 49.7616 28.3572 49.7283 28.4902C49.7283 29.9871 50.0277 31.0182 50.6264 31.5837C51.2251 32.1491 51.9403 32.4485 52.7719 32.4818C54.0358 32.4818 55.2832 31.9329 56.5139 30.8353C57.7446 29.7376 58.4764 28.8894 58.7093 28.2907C58.7758 28.1576 59.2248 26.378 60.0564 22.952C60.888 19.5259 61.3204 17.6798 61.3537 17.4137Z" fill="white"/>
</g>
<g id="Group_4">
<path id="Vector_3" d="M84.1133 21.9537C84.1133 21.9537 84.1133 21.7375 84.1133 21.3051C84.1133 20.8726 84.3461 20.54 84.8118 20.3072H99.7302V12.823L99.7801 5.33892C100.113 4.9065 100.429 4.69029 100.728 4.69029C101.16 4.69029 101.493 4.93976 101.726 5.43871V20.3072H116.594C117.093 20.5733 117.343 20.9059 117.343 21.3051C117.343 21.7042 117.093 22.0368 116.594 22.3029H101.726V37.1714C101.46 37.6371 101.16 37.8699 100.828 37.8699H100.728H100.628C100.229 37.8699 99.9297 37.6371 99.7302 37.1714V22.3029H84.8118C84.3461 22.0701 84.1133 21.7375 84.1133 21.3051V21.9537Z" fill="white"/>
</g>
<g id="Group_5">
<path id="Vector_4" d="M136.655 12.3738C135.757 12.3738 135.041 12.0744 134.509 11.4757C133.977 10.8769 133.711 10.1452 133.711 9.28033C133.711 6.91867 134.592 4.87301 136.355 3.14334C138.118 1.41368 140.314 0.548847 142.941 0.548847C145.968 0.548847 148.496 1.48021 150.525 3.34292C152.554 5.20564 153.585 7.61719 153.619 10.5776C153.619 12.0079 153.286 13.3717 152.621 14.6689C151.956 15.9662 151.157 17.0971 150.226 18.0617C149.295 19.0263 147.964 20.2571 146.234 21.7539C145.037 22.785 143.374 24.3151 141.245 26.3441L138.301 29.1382L142.093 29.1881C147.315 29.1881 150.093 29.105 150.425 28.9386C150.658 28.8721 151.057 27.3919 151.623 24.4981V24.3484H153.619V24.4981C153.585 24.5978 153.369 26.1113 152.97 29.0384C152.571 31.9656 152.321 33.4956 152.222 33.6287V33.7784H133.711V32.8304V32.2317C133.711 31.9988 133.811 31.7494 134.01 31.4832C134.21 31.2171 134.709 30.635 135.507 29.737C136.472 28.6725 137.303 27.7412 138.002 26.9429C138.301 26.6102 138.867 25.9949 139.698 25.0968C140.53 24.1987 141.095 23.5833 141.395 23.2507C141.694 22.9181 142.176 22.3692 142.842 21.6042C143.507 20.8392 143.973 20.2737 144.239 19.9078C144.505 19.5419 144.887 19.043 145.386 18.411C145.885 17.779 146.234 17.2468 146.434 16.8144C146.634 16.3819 146.883 15.8996 147.182 15.3674C147.482 14.8352 147.698 14.303 147.831 13.7708C147.964 13.2386 148.08 12.7397 148.18 12.274C148.28 11.8083 148.33 11.2595 148.33 10.6275C148.33 8.53192 147.764 6.7191 146.634 5.18901C145.503 3.65892 143.889 2.89388 141.794 2.89388C140.696 2.89388 139.732 3.17661 138.9 3.74208C138.068 4.30754 137.486 4.85638 137.154 5.38858C136.821 5.92079 136.655 6.23679 136.655 6.33657C136.655 6.36984 136.738 6.38647 136.904 6.38647C137.503 6.38647 138.118 6.61931 138.75 7.08499C139.382 7.55067 139.698 8.31571 139.698 9.38012C139.698 10.2117 139.432 10.9102 138.9 11.4757C138.368 12.0411 137.619 12.3405 136.655 12.3738Z" fill="white"/>
</g>
<g id="Group_6">
<path id="Vector_5" d="M157.814 25.9456C157.814 22.5861 159.078 19.3929 161.606 16.3659C164.134 13.339 166.978 11.8089 170.138 11.7757C171.835 11.7757 173.332 12.5906 174.629 14.2205C175.161 13.2226 175.926 12.7237 176.924 12.7237C177.356 12.7237 177.739 12.8567 178.071 13.1228C178.404 13.3889 178.57 13.7215 178.57 14.1207C178.57 14.5531 177.955 17.2141 176.724 22.1038C175.494 26.9934 174.862 29.7542 174.828 30.3862C174.828 31.2178 174.945 31.7666 175.178 32.0327C175.41 32.2988 175.76 32.4485 176.225 32.4818C176.525 32.4485 176.857 32.2988 177.223 32.0327C177.922 31.3675 178.604 29.7708 179.269 27.2429C179.469 26.5776 179.635 26.2284 179.768 26.1951C179.834 26.1618 180.001 26.1452 180.267 26.1452H180.466C181.098 26.1452 181.414 26.2949 181.414 26.5942C181.414 26.7938 181.331 27.2429 181.165 27.9414C180.999 28.6399 180.666 29.538 180.167 30.6357C179.668 31.7334 179.136 32.5649 178.57 33.1304C178.138 33.5628 177.606 33.9121 176.974 34.1782C176.708 34.2447 176.309 34.278 175.776 34.278C174.645 34.278 173.697 34.0285 172.932 33.5295C172.167 33.0306 171.668 32.515 171.436 31.9828L171.136 31.2344C171.103 31.2011 171.036 31.2178 170.937 31.2843C170.87 31.3508 170.804 31.4174 170.737 31.4839C168.775 33.3466 166.779 34.278 164.75 34.278C162.92 34.278 161.307 33.6127 159.91 32.2822C158.513 30.9517 157.814 28.8395 157.814 25.9456ZM173.681 17.4137C173.681 17.2141 173.598 16.8482 173.431 16.316C173.265 15.7838 172.883 15.2017 172.284 14.5697C171.685 13.9378 170.92 13.6051 169.989 13.5719C168.824 13.5719 167.71 14.0874 166.646 15.1186C165.581 16.1497 164.75 17.4969 164.151 19.16C163.186 21.7878 162.505 24.5153 162.105 27.3427C162.105 27.4424 162.105 27.6254 162.105 27.8915C162.105 28.1576 162.089 28.3572 162.055 28.4902C162.055 29.9871 162.355 31.0182 162.954 31.5837C163.552 32.1491 164.267 32.4485 165.099 32.4818C166.363 32.4818 167.61 31.9329 168.841 30.8353C170.072 29.7376 170.804 28.8894 171.036 28.2907C171.103 28.1576 171.552 26.378 172.384 22.952C173.215 19.5259 173.648 17.6798 173.681 17.4137Z" fill="white"/>
</g>
<g id="Group_7">
<path id="Vector_6" d="M196.452 21.9537C196.452 21.9537 196.452 21.7375 196.452 21.3051C196.452 20.8726 196.685 20.54 197.151 20.3072H212.069V12.823L212.119 5.33892C212.452 4.9065 212.768 4.69029 213.067 4.69029C213.499 4.69029 213.832 4.93976 214.065 5.43871V20.3072H228.933C229.432 20.5733 229.682 20.9059 229.682 21.3051C229.682 21.7042 229.432 22.0368 228.933 22.3029H214.065V37.1714C213.799 37.6371 213.499 37.8699 213.167 37.8699H213.067H212.967C212.568 37.8699 212.269 37.6371 212.069 37.1714V22.3029H197.151C196.685 22.0701 196.452 21.7375 196.452 21.3051V21.9537Z" fill="white"/>
</g>
<g id="Group_8">
<path id="Vector_7" d="M245.202 25.9456C245.202 22.5861 246.466 19.3929 248.994 16.3659C251.522 13.339 254.366 11.8089 257.526 11.7757C259.222 11.7757 260.719 12.5906 262.016 14.2205C262.549 13.2226 263.314 12.7237 264.312 12.7237C264.744 12.7237 265.127 12.8567 265.459 13.1228C265.792 13.3889 265.958 13.7215 265.958 14.1207C265.958 14.5531 265.343 17.2141 264.112 22.1038C262.881 26.9934 262.249 29.7542 262.216 30.3862C262.216 31.2178 262.332 31.7666 262.565 32.0327C262.798 32.2988 263.147 32.4485 263.613 32.4818C263.912 32.4485 264.245 32.2988 264.611 32.0327C265.31 31.3675 265.991 29.7708 266.657 27.2429C266.856 26.5776 267.023 26.2284 267.156 26.1951C267.222 26.1618 267.388 26.1452 267.655 26.1452H267.854C268.486 26.1452 268.802 26.2949 268.802 26.5942C268.802 26.7938 268.719 27.2429 268.553 27.9414C268.386 28.6399 268.054 29.538 267.555 30.6357C267.056 31.7334 266.524 32.5649 265.958 33.1304C265.526 33.5628 264.994 33.9121 264.362 34.1782C264.095 34.2447 263.696 34.278 263.164 34.278C262.033 34.278 261.085 34.0285 260.32 33.5295C259.555 33.0306 259.056 32.515 258.823 31.9828L258.524 31.2344C258.491 31.2011 258.424 31.2178 258.324 31.2843C258.258 31.3508 258.191 31.4174 258.125 31.4839C256.162 33.3466 254.166 34.278 252.137 34.278C250.308 34.278 248.695 33.6127 247.298 32.2822C245.901 30.9517 245.202 28.8395 245.202 25.9456ZM261.069 17.4137C261.069 17.2141 260.985 16.8482 260.819 16.316C260.653 15.7838 260.27 15.2017 259.671 14.5697C259.073 13.9378 258.308 13.6051 257.376 13.5719C256.212 13.5719 255.098 14.0874 254.033 15.1186C252.969 16.1497 252.137 17.4969 251.539 19.16C250.574 21.7878 249.892 24.5153 249.493 27.3427C249.493 27.4424 249.493 27.6254 249.493 27.8915C249.493 28.1576 249.476 28.3572 249.443 28.4902C249.443 29.9871 249.743 31.0182 250.341 31.5837C250.94 32.1491 251.655 32.4485 252.487 32.4818C253.751 32.4818 254.998 31.9329 256.229 30.8353C257.459 29.7376 258.191 28.8894 258.424 28.2907C258.491 28.1576 258.94 26.378 259.771 22.952C260.603 19.5259 261.035 17.6798 261.069 17.4137Z" fill="white"/>
</g>
<g id="Group_9">
<path id="Vector_8" d="M283.828 21.9537C283.828 21.9537 283.828 21.7375 283.828 21.3051C283.828 20.8726 284.061 20.54 284.527 20.3072H299.445V12.823L299.495 5.33892C299.828 4.9065 300.144 4.69029 300.443 4.69029C300.875 4.69029 301.208 4.93976 301.441 5.43871V20.3072H316.309C316.808 20.5733 317.058 20.9059 317.058 21.3051C317.058 21.7042 316.808 22.0368 316.309 22.3029H301.441V37.1714C301.175 37.6371 300.875 37.8699 300.543 37.8699H300.443H300.343C299.944 37.8699 299.645 37.6371 299.445 37.1714V22.3029H284.527C284.061 22.0701 283.828 21.7375 283.828 21.3051V21.9537Z" fill="white"/>
</g>
<g id="Group_10">
<path id="Vector_9" d="M353.991 33.7784C353.392 33.6786 351.247 33.6287 347.555 33.6287C343.696 33.6287 341.468 33.6786 340.869 33.7784H340.42V31.4832H341.966C342.632 31.4832 343.081 31.4832 343.314 31.4832C343.546 31.4832 343.829 31.45 344.162 31.3835C344.494 31.3169 344.727 31.2338 344.86 31.134C344.993 31.0342 345.11 30.9011 345.21 30.7348C345.243 30.6683 345.26 29.7702 345.26 28.0405V25.5458H332.337V23.2507L339.871 11.7251C344.96 4.00818 347.538 0.133064 347.605 0.0998001C347.671 0.0332756 348.02 1.14441e-05 348.652 1.14441e-05H349.55L349.85 0.299377V23.2507H354.44V25.5458H349.85V28.0904C349.85 29.4542 349.85 30.2525 349.85 30.4854C349.85 30.7182 349.95 30.9178 350.149 31.0841C350.415 31.3169 351.363 31.45 352.993 31.4832H354.44V33.7784H353.991ZM345.559 23.2507V6.58604L334.632 23.2008L340.071 23.2507H345.559Z" fill="white"/>
</g>
<g id="Group_11">
<path id="Vector_10" d="M357.539 25.9456C357.539 22.5861 358.803 19.3929 361.331 16.3659C363.859 13.339 366.703 11.8089 369.863 11.7757C371.559 11.7757 373.056 12.5906 374.353 14.2205C374.886 13.2226 375.651 12.7237 376.649 12.7237C377.081 12.7237 377.463 12.8567 377.796 13.1228C378.129 13.3889 378.295 13.7215 378.295 14.1207C378.295 14.5531 377.68 17.2141 376.449 22.1038C375.218 26.9934 374.586 29.7542 374.553 30.3862C374.553 31.2178 374.669 31.7666 374.902 32.0327C375.135 32.2988 375.484 32.4485 375.95 32.4818C376.249 32.4485 376.582 32.2988 376.948 32.0327C377.646 31.3675 378.328 29.7708 378.994 27.2429C379.193 26.5776 379.359 26.2284 379.493 26.1951C379.559 26.1618 379.725 26.1452 379.991 26.1452H380.191C380.823 26.1452 381.139 26.2949 381.139 26.5942C381.139 26.7938 381.056 27.2429 380.89 27.9414C380.723 28.6399 380.391 29.538 379.892 30.6357C379.393 31.7334 378.861 32.5649 378.295 33.1304C377.863 33.5628 377.33 33.9121 376.698 34.1782C376.432 34.2447 376.033 34.278 375.501 34.278C374.37 34.278 373.422 34.0285 372.657 33.5295C371.892 33.0306 371.393 32.515 371.16 31.9828L370.861 31.2344C370.828 31.2011 370.761 31.2178 370.661 31.2843C370.595 31.3508 370.528 31.4174 370.462 31.4839C368.499 33.3466 366.503 34.278 364.474 34.278C362.645 34.278 361.032 33.6127 359.635 32.2822C358.238 30.9517 357.539 28.8395 357.539 25.9456ZM373.405 17.4137C373.405 17.2141 373.322 16.8482 373.156 16.316C372.99 15.7838 372.607 15.2017 372.008 14.5697C371.41 13.9378 370.645 13.6051 369.713 13.5719C368.549 13.5719 367.435 14.0874 366.37 15.1186C365.306 16.1497 364.474 17.4969 363.876 19.16C362.911 21.7878 362.229 24.5153 361.83 27.3427C361.83 27.4424 361.83 27.6254 361.83 27.8915C361.83 28.1576 361.813 28.3572 361.78 28.4902C361.78 29.9871 362.079 31.0182 362.678 31.5837C363.277 32.1491 363.992 32.4485 364.824 32.4818C366.088 32.4818 367.335 31.9329 368.566 30.8353C369.796 29.7376 370.528 28.8894 370.761 28.2907C370.828 28.1576 371.277 26.378 372.108 22.952C372.94 19.5259 373.372 17.6798 373.405 17.4137Z" fill="white"/>
</g>
<g id="Group_12">
<path id="Vector_11" d="M396.167 21.9537C396.167 21.9537 396.167 21.7375 396.167 21.3051C396.167 20.8726 396.4 20.54 396.866 20.3072H411.784V12.823L411.834 5.33892C412.166 4.9065 412.482 4.69029 412.782 4.69029C413.214 4.69029 413.547 4.93976 413.78 5.43871V20.3072H428.648C429.147 20.5733 429.397 20.9059 429.397 21.3051C429.397 21.7042 429.147 22.0368 428.648 22.3029H413.78V37.1714C413.514 37.6371 413.214 37.8699 412.882 37.8699H412.782H412.682C412.283 37.8699 411.983 37.6371 411.784 37.1714V22.3029H396.866C396.4 22.0701 396.167 21.7375 396.167 21.3051V21.9537Z" fill="white"/>
</g>
<g id="Group_13">
<path id="Vector_12" d="M448.719 12.3738C447.821 12.3738 447.106 12.0744 446.574 11.4757C446.041 10.8769 445.775 10.1452 445.775 9.28033C445.775 6.91867 446.657 4.87301 448.42 3.14334C450.183 1.41368 452.378 0.548847 455.006 0.548847C458.033 0.548847 460.561 1.48021 462.59 3.34292C464.619 5.20564 465.65 7.61719 465.683 10.5776C465.683 12.0079 465.351 13.3717 464.685 14.6689C464.02 15.9662 463.222 17.0971 462.29 18.0617C461.359 19.0263 460.028 20.2571 458.299 21.7539C457.101 22.785 455.438 24.3151 453.309 26.3441L450.366 29.1382L454.158 29.1881C459.38 29.1881 462.157 29.105 462.49 28.9386C462.723 28.8721 463.122 27.3919 463.687 24.4981V24.3484H465.683V24.4981C465.65 24.5978 465.434 26.1113 465.035 29.0384C464.635 31.9656 464.386 33.4956 464.286 33.6287V33.7784H445.775V32.8304V32.2317C445.775 31.9988 445.875 31.7494 446.075 31.4832C446.274 31.2171 446.773 30.635 447.572 29.737C448.536 28.6725 449.368 27.7412 450.066 26.9429C450.366 26.6102 450.931 25.9949 451.763 25.0968C452.594 24.1987 453.16 23.5833 453.459 23.2507C453.758 22.9181 454.241 22.3692 454.906 21.6042C455.571 20.8392 456.037 20.2737 456.303 19.9078C456.569 19.5419 456.952 19.043 457.451 18.411C457.95 17.779 458.299 17.2468 458.498 16.8144C458.698 16.3819 458.947 15.8996 459.247 15.3674C459.546 14.8352 459.762 14.303 459.895 13.7708C460.028 13.2386 460.145 12.7397 460.245 12.274C460.344 11.8083 460.394 11.2595 460.394 10.6275C460.394 8.53192 459.829 6.7191 458.698 5.18901C457.567 3.65892 455.954 2.89388 453.858 2.89388C452.761 2.89388 451.796 3.17661 450.964 3.74208C450.133 4.30754 449.551 4.85638 449.218 5.38858C448.885 5.92079 448.719 6.23679 448.719 6.33657C448.719 6.36984 448.802 6.38647 448.969 6.38647C449.567 6.38647 450.183 6.61931 450.815 7.08499C451.447 7.55067 451.763 8.31571 451.763 9.38012C451.763 10.2117 451.497 10.9102 450.964 11.4757C450.432 12.0411 449.684 12.3405 448.719 12.3738Z" fill="white"/>
</g>
<g id="Group_14">
<path id="Vector_13" d="M484.876 16.466C484.876 16.0336 485.109 15.701 485.574 15.4681H517.357C517.856 15.7342 518.106 16.0669 518.106 16.466C518.106 16.8319 517.873 17.1479 517.407 17.414L501.541 17.4639H485.674C485.142 17.2976 484.876 16.965 484.876 16.466ZM484.876 26.1455C484.876 25.6465 485.142 25.3139 485.674 25.1476H517.407C517.873 25.4802 518.106 25.8129 518.106 26.1455C518.106 26.5779 517.856 26.9105 517.357 27.1434H485.574C485.109 26.9105 484.876 26.5779 484.876 26.1455Z" fill="white"/>
</g>
<g id="Group_15">
<path id="Vector_14" d="M545.392 4.93941L544.743 5.18888C544.277 5.3552 543.612 5.52151 542.747 5.68783C541.882 5.85414 540.918 5.97056 539.853 6.03709H538.905V3.74195H539.853C541.417 3.67543 542.864 3.42596 544.194 2.99354C545.525 2.56112 546.456 2.16197 546.988 1.79608C547.52 1.43019 547.986 1.0643 548.385 0.698406C548.452 0.598621 548.651 0.548725 548.984 0.548725C549.283 0.548725 549.566 0.648514 549.832 0.848091V15.7665L549.882 30.7347C550.115 30.9676 550.314 31.1172 550.481 31.1838C550.647 31.2503 551.046 31.3168 551.678 31.3833C552.31 31.4499 553.341 31.4831 554.772 31.4831H556.069V33.7783H555.52C554.822 33.6785 552.177 33.6286 547.587 33.6286C543.063 33.6286 540.452 33.6785 539.753 33.7783H539.155V31.4831H540.452C541.184 31.4831 541.816 31.4831 542.348 31.4831C542.88 31.4831 543.296 31.4665 543.595 31.4332C543.895 31.4 544.161 31.3501 544.394 31.2835C544.626 31.217 544.76 31.1838 544.793 31.1838C544.826 31.1838 544.926 31.1006 545.092 30.9343C545.258 30.768 545.358 30.7015 545.392 30.7347V4.93941Z" fill="white"/>
<path id="Vector_15" d="M564.499 4.5902C566.362 1.89591 568.907 0.548767 572.133 0.548767C573.73 0.548767 575.326 0.981186 576.923 1.84602C578.52 2.71085 579.817 4.24094 580.815 6.43628C582.045 9.1971 582.661 12.9891 582.661 17.8122C582.661 22.9679 581.946 26.9095 580.515 29.6371C579.85 31.0341 578.935 32.1484 577.771 32.98C576.607 33.8116 575.592 34.3271 574.728 34.5267C573.863 34.7263 573.015 34.8427 572.183 34.876C571.318 34.876 570.453 34.7762 569.588 34.5766C568.724 34.377 567.709 33.8448 566.545 32.98C565.381 32.1152 564.466 31.0009 563.801 29.6371C562.37 26.9095 561.655 22.9679 561.655 17.8122C561.655 12.0244 562.603 7.61711 564.499 4.5902ZM575.725 3.99147C574.728 2.92706 573.547 2.39485 572.183 2.39485C570.786 2.39485 569.588 2.92706 568.591 3.99147C567.759 4.8563 567.21 6.05376 566.944 7.58385C566.678 9.11394 566.545 12.3072 566.545 17.1635C566.545 22.4191 566.678 25.8784 566.944 27.5415C567.21 29.2047 567.809 30.5185 568.74 31.4832C569.672 32.4811 570.819 32.98 572.183 32.98C573.513 32.98 574.644 32.4811 575.576 31.4832C576.54 30.4853 577.139 29.0882 577.372 27.2921C577.605 25.4959 577.738 22.1197 577.771 17.1635C577.771 12.3404 577.638 9.16383 577.372 7.63374C577.106 6.10365 576.557 4.88956 575.725 3.99147Z" fill="white"/>
<path id="Vector_16" d="M589.449 4.5902C591.312 1.89591 593.857 0.548767 597.083 0.548767C598.68 0.548767 600.276 0.981186 601.873 1.84602C603.47 2.71085 604.767 4.24094 605.765 6.43628C606.996 9.1971 607.611 12.9891 607.611 17.8122C607.611 22.9679 606.896 26.9095 605.465 29.6371C604.8 31.0341 603.885 32.1484 602.721 32.98C601.557 33.8116 600.543 34.3271 599.678 34.5267C598.813 34.7263 597.965 34.8427 597.133 34.876C596.268 34.876 595.403 34.7762 594.539 34.5766C593.674 34.377 592.659 33.8448 591.495 32.98C590.331 32.1152 589.416 31.0009 588.751 29.6371C587.321 26.9095 586.605 22.9679 586.605 17.8122C586.605 12.0244 587.553 7.61711 589.449 4.5902ZM600.676 3.99147C599.678 2.92706 598.497 2.39485 597.133 2.39485C595.736 2.39485 594.539 2.92706 593.541 3.99147C592.709 4.8563 592.16 6.05376 591.894 7.58385C591.628 9.11394 591.495 12.3072 591.495 17.1635C591.495 22.4191 591.628 25.8784 591.894 27.5415C592.16 29.2047 592.759 30.5185 593.69 31.4832C594.622 32.4811 595.769 32.98 597.133 32.98C598.464 32.98 599.595 32.4811 600.526 31.4832C601.491 30.4853 602.089 29.0882 602.322 27.2921C602.555 25.4959 602.688 22.1197 602.721 17.1635C602.721 12.3404 602.588 9.16383 602.322 7.63374C602.056 6.10365 601.507 4.88956 600.676 3.99147Z" fill="white"/>
</g>
<g id="Group_16">
<path id="Vector_17" d="M624.88 21.9543C624.88 21.9543 624.88 21.7381 624.88 21.3057C624.88 20.8733 625.113 20.5407 625.578 20.3078H654.567C655.066 20.5739 655.315 20.9066 655.315 21.3057C655.315 21.7049 655.066 22.0375 654.567 22.3036H625.578C625.113 22.0707 624.88 21.7381 624.88 21.3057V21.9543Z" fill="white"/>
</g>
<g id="Group_17">
<path id="Vector_18" d="M672.695 18.1614C672.695 12.7396 674.042 8.44868 676.736 5.28872C679.43 2.12875 682.424 0.548767 685.717 0.548767C688.012 0.548767 689.659 1.1475 690.656 2.34496C691.654 3.54242 692.153 4.87293 692.153 6.33649C692.153 7.16806 691.92 7.83332 691.455 8.33226C690.989 8.83121 690.34 9.08068 689.509 9.08068C688.744 9.08068 688.112 8.84784 687.613 8.38216C687.114 7.91648 686.864 7.26785 686.864 6.43628C686.864 4.97272 687.646 4.09126 689.21 3.79189C688.478 3.06011 687.447 2.64433 686.116 2.54454C683.754 2.54454 681.809 3.54242 680.278 5.53819C678.715 7.73353 677.933 11.0931 677.933 15.6168L677.983 15.8164C678.15 15.6168 678.283 15.4006 678.382 15.1678C679.746 13.172 681.526 12.1741 683.721 12.1741H683.921C685.451 12.1741 686.798 12.4901 687.962 13.1221C688.76 13.5878 689.559 14.253 690.357 15.1179C691.155 15.9827 691.804 16.9307 692.303 17.9618C693.001 19.5917 693.351 21.3713 693.351 23.3005V24.1986C693.351 24.9637 693.268 25.6788 693.101 26.3441C692.735 28.3066 691.671 30.2192 689.908 32.0819C688.145 33.9446 685.916 34.876 683.222 34.876C682.291 34.876 681.393 34.7429 680.528 34.4768C679.663 34.2107 678.732 33.7118 677.734 32.98C676.736 32.2482 675.888 31.267 675.189 30.0362C674.491 28.8055 673.892 27.1923 673.393 25.1965C672.894 23.2007 672.661 20.8557 672.695 18.1614ZM683.422 13.9703C682.424 13.9703 681.559 14.253 680.827 14.8185C680.095 15.384 679.53 16.1324 679.131 17.0637C678.732 17.9951 678.449 18.9431 678.283 19.9077C678.116 20.8723 678.017 21.9035 677.983 23.0012C677.983 25.762 678.183 27.7411 678.582 28.9386C678.981 30.136 679.613 31.1006 680.478 31.8324C681.276 32.4312 682.158 32.7305 683.122 32.7305C684.819 32.7305 686.116 32.0985 687.014 30.8345C687.447 30.2358 687.746 29.4874 687.912 28.5893C688.079 27.6912 688.162 25.9449 688.162 23.3504C688.162 20.6894 688.079 18.9098 687.912 18.0117C687.746 17.1136 687.447 16.3652 687.014 15.7665C686.116 14.569 684.919 13.9703 683.422 13.9703Z" fill="white"/>
<path id="Vector_19" d="M700.989 12.3737C700.091 12.3737 699.375 12.0743 698.843 11.4756C698.311 10.8769 698.045 10.1451 698.045 9.28027C698.045 6.91861 698.926 4.87295 700.689 3.14328C702.452 1.41362 704.648 0.548786 707.275 0.548786C710.302 0.548786 712.83 1.48014 714.859 3.34286C716.888 5.20558 717.919 7.61713 717.953 10.5775C717.953 12.0078 717.62 13.3716 716.955 14.6688C716.29 15.9661 715.491 17.097 714.56 18.0616C713.629 19.0263 712.298 20.257 710.568 21.7538C709.371 22.785 707.708 24.3151 705.579 26.3441L702.635 29.1382L706.427 29.1881C711.649 29.1881 714.427 29.1049 714.759 28.9386C714.992 28.8721 715.391 27.3919 715.957 24.498V24.3483H717.953V24.498C717.919 24.5978 717.703 26.1112 717.304 29.0384C716.905 31.9655 716.655 33.4956 716.556 33.6286V33.7783H698.045V32.8303V32.2316C698.045 31.9988 698.145 31.7493 698.344 31.4832C698.544 31.2171 699.043 30.635 699.841 29.7369C700.806 28.6725 701.637 27.7411 702.336 26.9428C702.635 26.6102 703.201 25.9948 704.032 25.0967C704.864 24.1986 705.429 23.5833 705.729 23.2506C706.028 22.918 706.51 22.3692 707.176 21.6041C707.841 20.8391 708.306 20.2736 708.573 19.9077C708.839 19.5418 709.221 19.0429 709.72 18.4109C710.219 17.7789 710.568 17.2467 710.768 16.8143C710.968 16.3819 711.217 15.8996 711.516 15.3674C711.816 14.8352 712.032 14.303 712.165 13.7707C712.298 13.2385 712.414 12.7396 712.514 12.2739C712.614 11.8082 712.664 11.2594 712.664 10.6274C712.664 8.53186 712.098 6.71904 710.968 5.18895C709.837 3.65886 708.223 2.89381 706.128 2.89381C705.03 2.89381 704.065 3.17655 703.234 3.74202C702.402 4.30748 701.82 4.85632 701.488 5.38852C701.155 5.92073 700.989 6.23672 700.989 6.33651C700.989 6.36978 701.072 6.38641 701.238 6.38641C701.837 6.38641 702.452 6.61925 703.084 7.08493C703.716 7.55061 704.032 8.31565 704.032 9.38006C704.032 10.2116 703.766 10.9101 703.234 11.4756C702.702 12.0411 701.953 12.3404 700.989 12.3737Z" fill="white"/>
</g>
</g>
<g id="Group 174">
<g id="Group 177">
<g id="Group_18">
<path id="Vector_20" d="M36.851 123.524C35.2544 126.052 33.2586 127.316 30.8637 127.316C28.2692 127.316 26.1404 126.334 24.4772 124.372C22.8141 122.409 21.8162 120.314 21.4836 118.085C21.4171 117.553 21.3838 116.888 21.3838 116.089V115.69C21.3838 112.597 22.5314 109.903 24.8265 107.607C26.8223 105.612 29.0176 104.614 31.4125 104.614C31.479 104.614 31.5788 104.614 31.7119 104.614C31.8449 104.614 31.978 104.63 32.111 104.664H32.3106C32.7098 104.664 33.1256 104.697 33.558 104.764C33.9904 104.83 34.6058 105.03 35.4041 105.362C36.2024 105.695 36.984 106.227 37.7491 106.959C38.5141 107.691 39.2293 108.672 39.8945 109.903C41.3248 112.83 42.04 116.588 42.04 121.179C42.04 125.835 41.0421 129.777 39.0463 133.004C37.8821 134.866 36.4851 136.313 34.8552 137.344C33.2253 138.376 31.4957 138.908 29.6662 138.941C27.6372 138.941 25.9741 138.459 24.6768 137.494C23.3796 136.529 22.7143 135.099 22.681 133.203C22.6478 131.307 23.5292 130.376 25.3254 130.409C26.0572 130.409 26.6726 130.642 27.1715 131.108C27.6705 131.573 27.9199 132.222 27.9199 133.054C27.9199 133.652 27.7702 134.168 27.4709 134.6C27.1715 135.033 26.9054 135.299 26.6726 135.399C26.4397 135.498 26.2235 135.581 26.0239 135.648L25.8244 135.698C25.8244 135.764 25.9408 135.864 26.1736 135.997C26.4065 136.13 26.8389 136.297 27.4709 136.496C28.1029 136.696 28.8014 136.779 29.5664 136.746H29.8658C31.8616 136.746 33.5413 135.681 34.9051 133.552C36.2024 131.69 36.851 128.463 36.851 123.873V123.524ZM31.4624 125.47C33.059 125.47 34.3396 124.655 35.3043 123.025C36.2689 121.395 36.7678 119.183 36.8011 116.389C36.8011 113.794 36.668 111.932 36.4019 110.801C36.3354 110.468 36.2356 110.135 36.1026 109.803C35.9695 109.47 35.7367 109.038 35.4041 108.506C35.0714 107.973 34.5725 107.524 33.9072 107.158C33.242 106.793 32.4603 106.626 31.5622 106.659C30.2982 106.659 29.2172 107.109 28.3191 108.007C27.6206 108.738 27.1715 109.603 26.9719 110.601C26.7724 111.599 26.6559 113.345 26.6227 115.84C26.6227 118.601 26.7058 120.464 26.8722 121.428C27.0385 122.393 27.3711 123.174 27.87 123.773C28.7016 124.904 29.8991 125.47 31.4624 125.47Z" fill="white"/>
</g>
<g id="Group_19">
<path id="Vector_21" d="M45.8896 130.011C45.8896 126.651 47.1536 123.458 49.6816 120.431C52.2096 117.404 55.0535 115.874 58.2135 115.841C59.9099 115.841 61.4067 116.656 62.704 118.286C63.2362 117.288 64.0012 116.789 64.9991 116.789C65.4315 116.789 65.8141 116.922 66.1467 117.188C66.4793 117.454 66.6456 117.787 66.6456 118.186C66.6456 118.618 66.0303 121.279 64.7995 126.169C63.5688 131.059 62.9368 133.819 62.9036 134.451C62.9036 135.283 63.02 135.832 63.2528 136.098C63.4857 136.364 63.8349 136.514 64.3006 136.547C64.6 136.514 64.9326 136.364 65.2985 136.098C65.997 135.433 66.6789 133.836 67.3442 131.308C67.5437 130.643 67.71 130.293 67.8431 130.26C67.9096 130.227 68.0759 130.21 68.342 130.21H68.5416C69.1736 130.21 69.4896 130.36 69.4896 130.659C69.4896 130.859 69.4064 131.308 69.2401 132.007C69.0738 132.705 68.7412 133.603 68.2422 134.701C67.7433 135.798 67.2111 136.63 66.6456 137.196C66.2132 137.628 65.681 137.977 65.049 138.243C64.7829 138.31 64.3838 138.343 63.8516 138.343C62.7206 138.343 61.7726 138.094 61.0076 137.595C60.2425 137.096 59.7436 136.58 59.5108 136.048L59.2114 135.3C59.1781 135.266 59.1116 135.283 59.0118 135.349C58.9453 135.416 58.8788 135.482 58.8122 135.549C56.8497 137.412 54.854 138.343 52.8249 138.343C50.9955 138.343 49.3822 137.678 47.9852 136.347C46.5882 135.017 45.8896 132.905 45.8896 130.011ZM61.756 121.479C61.756 121.279 61.6728 120.913 61.5065 120.381C61.3402 119.849 60.9577 119.267 60.359 118.635C59.7602 118.003 58.9952 117.67 58.0638 117.637C56.8996 117.637 55.7853 118.153 54.7209 119.184C53.6565 120.215 52.8249 121.562 52.2262 123.225C51.2616 125.853 50.5797 128.58 50.1805 131.408C50.1805 131.508 50.1805 131.691 50.1805 131.957C50.1805 132.223 50.1639 132.422 50.1307 132.555C50.1307 134.052 50.43 135.083 51.0288 135.649C51.6275 136.214 52.3426 136.514 53.1742 136.547C54.4382 136.547 55.6855 135.998 56.9163 134.9C58.147 133.803 58.8788 132.955 59.1116 132.356C59.1781 132.223 59.6272 130.443 60.4588 127.017C61.2903 123.591 61.7227 121.745 61.756 121.479Z" fill="white"/>
</g>
<g id="Group_20">
<path id="Vector_22" d="M84.5156 126.019C84.5156 126.019 84.5156 125.802 84.5156 125.37C84.5156 124.938 84.7485 124.605 85.2141 124.372H100.133V116.888L100.182 109.404C100.515 108.972 100.831 108.755 101.13 108.755C101.563 108.755 101.895 109.005 102.128 109.504V124.372H116.997C117.496 124.638 117.745 124.971 117.745 125.37C117.745 125.769 117.496 126.102 116.997 126.368H102.128V141.236C101.862 141.702 101.563 141.935 101.23 141.935H101.13H101.031C100.631 141.935 100.332 141.702 100.133 141.236V126.368H85.2141C84.7485 126.135 84.5156 125.802 84.5156 125.37V126.019Z" fill="white"/>
</g>
<g id="Group_21">
<path id="Vector_23" d="M137.059 116.439C136.161 116.439 135.446 116.139 134.914 115.541C134.381 114.942 134.115 114.21 134.115 113.345C134.115 110.984 134.997 108.938 136.76 107.208C138.523 105.479 140.718 104.614 143.346 104.614C146.373 104.614 148.901 105.545 150.93 107.408C152.959 109.271 153.99 111.682 154.023 114.643C154.023 116.073 153.69 117.437 153.025 118.734C152.36 120.031 151.562 121.162 150.63 122.127C149.699 123.091 148.368 124.322 146.639 125.819C145.441 126.85 143.778 128.38 141.649 130.409L138.706 133.203L142.497 133.253C147.72 133.253 150.497 133.17 150.83 133.004C151.063 132.937 151.462 131.457 152.027 128.563V128.413H154.023V128.563C153.99 128.663 153.774 130.176 153.374 133.103C152.975 136.031 152.726 137.561 152.626 137.694V137.843H134.115V136.895V136.297C134.115 136.064 134.215 135.814 134.415 135.548C134.614 135.282 135.113 134.7 135.911 133.802C136.876 132.738 137.708 131.806 138.406 131.008C138.706 130.675 139.271 130.06 140.103 129.162C140.934 128.264 141.5 127.648 141.799 127.316C142.098 126.983 142.581 126.434 143.246 125.669C143.911 124.904 144.377 124.339 144.643 123.973C144.909 123.607 145.292 123.108 145.79 122.476C146.289 121.844 146.639 121.312 146.838 120.879C147.038 120.447 147.287 119.965 147.587 119.432C147.886 118.9 148.102 118.368 148.235 117.836C148.368 117.304 148.485 116.805 148.585 116.339C148.684 115.873 148.734 115.325 148.734 114.693C148.734 112.597 148.169 110.784 147.038 109.254C145.907 107.724 144.294 106.959 142.198 106.959C141.1 106.959 140.136 107.242 139.304 107.807C138.473 108.373 137.891 108.921 137.558 109.454C137.225 109.986 137.059 110.302 137.059 110.402C137.059 110.435 137.142 110.452 137.308 110.452C137.907 110.452 138.523 110.684 139.155 111.15C139.787 111.616 140.103 112.381 140.103 113.445C140.103 114.277 139.836 114.975 139.304 115.541C138.772 116.106 138.024 116.406 137.059 116.439Z" fill="white"/>
</g>
<g id="Group_22">
<path id="Vector_24" d="M173.226 120.531C173.226 120.099 173.458 119.766 173.924 119.533H205.707C206.206 119.799 206.455 120.132 206.455 120.531C206.455 120.897 206.222 121.213 205.757 121.479L189.89 121.529H174.024C173.492 121.363 173.226 121.03 173.226 120.531ZM173.226 130.211C173.226 129.712 173.492 129.379 174.024 129.213H205.757C206.222 129.545 206.455 129.878 206.455 130.211C206.455 130.643 206.206 130.976 205.707 131.208H173.924C173.458 130.976 173.226 130.643 173.226 130.211Z" fill="white"/>
</g>
<g id="Group_23">
<path id="Vector_25" d="M229.448 114.742C228.55 114.742 227.851 114.46 227.352 113.894C226.854 113.329 226.587 112.597 226.554 111.699C226.554 109.869 227.352 108.239 228.949 106.809C230.546 105.379 232.475 104.664 234.737 104.664C235.901 104.664 236.633 104.68 236.932 104.714C239.394 105.113 241.273 105.994 242.57 107.358C243.867 108.722 244.533 110.202 244.566 111.799C244.566 113.528 244.001 115.208 242.87 116.838C241.739 118.468 240.175 119.649 238.18 120.38L238.03 120.48C238.03 120.513 238.18 120.563 238.479 120.63C238.778 120.696 239.261 120.846 239.926 121.079C240.591 121.312 241.223 121.661 241.822 122.127C244.549 123.89 245.913 126.218 245.913 129.112C245.913 131.74 244.882 134.035 242.82 135.997C240.757 137.96 238.146 138.941 234.986 138.941C232.325 138.941 230.03 138.226 228.101 136.796C226.172 135.365 225.207 133.552 225.207 131.357C225.207 130.426 225.506 129.677 226.105 129.112C226.704 128.546 227.452 128.247 228.35 128.214C229.282 128.214 230.047 128.513 230.645 129.112C231.244 129.711 231.544 130.459 231.544 131.357C231.544 131.723 231.494 132.056 231.394 132.355C231.294 132.654 231.178 132.92 231.045 133.153C230.912 133.386 230.729 133.586 230.496 133.752C230.263 133.918 230.063 134.051 229.897 134.151C229.731 134.251 229.564 134.318 229.398 134.351C229.232 134.384 229.099 134.434 228.999 134.5L228.799 134.55C230.496 136.047 232.558 136.796 234.986 136.796C236.816 136.796 238.196 135.914 239.128 134.151C239.693 133.054 239.976 131.374 239.976 129.112V128.114C239.976 124.954 238.911 122.842 236.782 121.777C236.284 121.578 235.269 121.461 233.739 121.428L231.643 121.378L231.494 121.278C231.427 121.179 231.394 120.913 231.394 120.48C231.394 119.881 231.527 119.582 231.793 119.582C232.724 119.582 233.689 119.499 234.687 119.333C235.818 119.166 236.849 118.468 237.78 117.237C238.712 116.006 239.177 114.144 239.177 111.649V111.25C239.177 109.354 238.595 108.04 237.431 107.308C236.699 106.842 235.918 106.61 235.086 106.61C234.022 106.61 233.04 106.793 232.142 107.158C231.244 107.524 230.612 107.907 230.246 108.306C229.88 108.705 229.698 108.905 229.698 108.905H229.847C229.947 108.938 230.08 108.971 230.246 109.005C230.413 109.038 230.579 109.121 230.745 109.254C230.912 109.387 231.111 109.503 231.344 109.603C231.577 109.703 231.743 109.886 231.843 110.152C231.943 110.418 232.076 110.668 232.242 110.901C232.408 111.133 232.458 111.466 232.392 111.898C232.392 112.63 232.159 113.279 231.693 113.844C231.228 114.41 230.479 114.709 229.448 114.742Z" fill="white"/>
<path id="Vector_26" d="M251.555 117.037C251.555 117.037 251.555 115.757 251.555 113.196C251.555 110.634 252.453 108.572 254.249 107.009C256.046 105.445 258.108 104.647 260.436 104.614C262.798 104.614 264.894 105.312 266.723 106.709C268.552 108.106 269.467 109.919 269.467 112.148C269.467 113.146 269.284 114.077 268.918 114.942C268.552 115.807 268.12 116.505 267.621 117.037C267.122 117.57 266.607 118.035 266.074 118.435C265.542 118.834 265.11 119.133 264.777 119.333C264.444 119.532 264.262 119.665 264.228 119.732L264.927 120.181C265.392 120.513 265.858 120.846 266.324 121.179C266.79 121.511 267.056 121.694 267.122 121.728C269.617 123.69 270.864 126.168 270.864 129.162C270.864 131.79 269.9 134.068 267.97 135.997C266.041 137.927 263.546 138.908 260.486 138.941C257.493 138.941 255.031 138.093 253.102 136.396C251.173 134.7 250.208 132.604 250.208 130.11C250.208 126.517 252.353 123.524 256.644 121.129L255.746 120.48C255.048 120.048 254.599 119.715 254.399 119.482C252.503 117.852 251.555 115.757 251.555 113.196V117.037ZM262.332 118.584L262.632 118.385C262.831 118.252 262.981 118.152 263.081 118.085C263.18 118.019 263.347 117.902 263.58 117.736C263.812 117.57 264.012 117.403 264.178 117.237C264.345 117.071 264.528 116.871 264.727 116.638C264.927 116.405 265.11 116.189 265.276 115.99C265.442 115.79 265.609 115.524 265.775 115.191C265.941 114.859 266.091 114.576 266.224 114.343C266.357 114.11 266.44 113.778 266.474 113.345C266.507 112.913 266.54 112.547 266.573 112.248C266.573 110.817 266.091 109.603 265.126 108.605C264.162 107.607 263.047 106.975 261.783 106.709C261.551 106.676 261.002 106.659 260.137 106.659C258.773 106.659 257.493 107.092 256.295 107.957C255.098 108.822 254.482 109.903 254.449 111.2C254.449 111.965 254.665 112.663 255.098 113.295C255.53 113.927 255.962 114.41 256.395 114.742C256.827 115.075 257.659 115.607 258.89 116.339C259.122 116.505 259.305 116.622 259.438 116.688L262.332 118.584ZM260.536 136.796C262.465 136.796 264.128 136.23 265.526 135.099C266.923 133.968 267.621 132.604 267.621 131.008C267.621 130.442 267.538 129.91 267.372 129.411C267.205 128.912 267.006 128.497 266.773 128.164C266.54 127.831 266.174 127.465 265.675 127.066C265.176 126.667 264.794 126.368 264.528 126.168C264.262 125.969 263.779 125.653 263.081 125.22C262.382 124.788 261.933 124.505 261.734 124.372C261.268 124.073 260.769 123.757 260.237 123.424C259.705 123.091 259.272 122.809 258.939 122.576L258.54 122.326C258.341 122.326 257.858 122.609 257.093 123.174C256.328 123.74 255.53 124.655 254.698 125.919C253.867 127.183 253.434 128.546 253.401 130.01C253.401 131.972 254.116 133.586 255.547 134.85C256.977 136.114 258.64 136.762 260.536 136.796Z" fill="white"/>
</g>
</g>
<g id="Group 176">
<g id="Group 180">
<g id="Group_24">
<path id="Vector_27" d="M36.85 193.376C35.2534 195.904 33.2576 197.168 30.8627 197.168C28.2682 197.168 26.1394 196.186 24.4763 194.224C22.8131 192.261 21.8152 190.166 21.4826 187.937C21.4161 187.405 21.3828 186.74 21.3828 185.941V185.542C21.3828 182.449 22.5304 179.754 24.8255 177.459C26.8213 175.464 29.0166 174.466 31.4115 174.466C31.4781 174.466 31.5779 174.466 31.7109 174.466C31.844 174.466 31.977 174.482 32.1101 174.516H32.3096C32.7088 174.516 33.1246 174.549 33.557 174.615C33.9894 174.682 34.6048 174.881 35.4031 175.214C36.2014 175.547 36.9831 176.079 37.7481 176.811C38.5132 177.543 39.2283 178.524 39.8936 179.754C41.3239 182.682 42.039 186.44 42.039 191.031C42.039 195.687 41.0411 199.629 39.0454 202.855C37.8812 204.718 36.4841 206.165 34.8542 207.196C33.2244 208.227 31.4947 208.76 29.6652 208.793C27.6362 208.793 25.9731 208.311 24.6758 207.346C23.3786 206.381 22.7133 204.951 22.6801 203.055C22.6468 201.159 23.5283 200.228 25.3245 200.261C26.0562 200.261 26.6716 200.494 27.1705 200.96C27.6695 201.425 27.919 202.074 27.919 202.905C27.919 203.504 27.7693 204.02 27.4699 204.452C27.1705 204.885 26.9044 205.151 26.6716 205.25C26.4388 205.35 26.2225 205.433 26.023 205.5L25.8234 205.55C25.8234 205.616 25.9398 205.716 26.1727 205.849C26.4055 205.982 26.8379 206.149 27.4699 206.348C28.1019 206.548 28.8004 206.631 29.5655 206.598H29.8648C31.8606 206.598 33.5404 205.533 34.9041 203.404C36.2014 201.542 36.85 198.315 36.85 193.725V193.376ZM31.4614 195.321C33.0581 195.321 34.3387 194.507 35.3033 192.877C36.2679 191.247 36.7669 189.035 36.8001 186.241C36.8001 183.646 36.6671 181.784 36.401 180.653C36.3344 180.32 36.2347 179.987 36.1016 179.655C35.9685 179.322 35.7357 178.89 35.4031 178.357C35.0705 177.825 34.5715 177.376 33.9063 177.01C33.241 176.644 32.4593 176.478 31.5612 176.511C30.2972 176.511 29.2162 176.96 28.3181 177.859C27.6196 178.59 27.1705 179.455 26.971 180.453C26.7714 181.451 26.655 183.197 26.6217 185.692C26.6217 188.453 26.7049 190.315 26.8712 191.28C27.0375 192.245 27.3701 193.026 27.8691 193.625C28.7006 194.756 29.8981 195.321 31.4614 195.321Z" fill="white"/>
</g>
<g id="Group_25">
<path id="Vector_28" d="M45.8789 199.863C45.8789 196.503 47.1429 193.31 49.6709 190.283C52.1988 187.256 55.0428 185.726 58.2028 185.693C59.8992 185.693 61.396 186.508 62.6933 188.137C63.2255 187.14 63.9905 186.641 64.9884 186.641C65.4208 186.641 65.8033 186.774 66.136 187.04C66.4686 187.306 66.6349 187.638 66.6349 188.038C66.6349 188.47 66.0195 191.131 64.7888 196.021C63.5581 200.91 62.9261 203.671 62.8928 204.303C62.8928 205.135 63.0092 205.684 63.2421 205.95C63.4749 206.216 63.8242 206.365 64.2899 206.399C64.5892 206.365 64.9219 206.216 65.2878 205.95C65.9863 205.284 66.6682 203.688 67.3334 201.16C67.533 200.495 67.6993 200.145 67.8324 200.112C67.8989 200.079 68.0652 200.062 68.3313 200.062H68.5309C69.1629 200.062 69.4789 200.212 69.4789 200.511C69.4789 200.711 69.3957 201.16 69.2294 201.858C69.0631 202.557 68.7304 203.455 68.2315 204.553C67.7326 205.65 67.2004 206.482 66.6349 207.047C66.2025 207.48 65.6703 207.829 65.0383 208.095C64.7722 208.162 64.373 208.195 63.8408 208.195C62.7099 208.195 61.7619 207.945 60.9968 207.446C60.2318 206.948 59.7329 206.432 59.5 205.9L59.2007 205.151C59.1674 205.118 59.1009 205.135 59.0011 205.201C58.9346 205.268 58.868 205.334 58.8015 205.401C56.839 207.264 54.8432 208.195 52.8142 208.195C50.9847 208.195 49.3715 207.53 47.9745 206.199C46.5774 204.869 45.8789 202.756 45.8789 199.863ZM61.7453 191.331C61.7453 191.131 61.6621 190.765 61.4958 190.233C61.3295 189.701 60.947 189.119 60.3482 188.487C59.7495 187.855 58.9844 187.522 58.0531 187.489C56.8889 187.489 55.7746 188.004 54.7102 189.036C53.6458 190.067 52.8142 191.414 52.2155 193.077C51.2508 195.705 50.569 198.432 50.1698 201.26C50.1698 201.359 50.1698 201.542 50.1698 201.808C50.1698 202.075 50.1532 202.274 50.1199 202.407C50.1199 203.904 50.4193 204.935 51.018 205.501C51.6167 206.066 52.3319 206.365 53.1635 206.399C54.4274 206.399 55.6748 205.85 56.9055 204.752C58.1362 203.655 58.868 202.806 59.1009 202.208C59.1674 202.075 59.6164 200.295 60.448 196.869C61.2796 193.443 61.712 191.597 61.7453 191.331Z" fill="white"/>
</g>
<g id="Group_26">
<path id="Vector_29" d="M87.2812 190.383C87.2812 189.951 87.5141 189.618 87.9798 189.385H119.762C120.261 189.651 120.511 189.984 120.511 190.383C120.511 190.749 120.278 191.065 119.812 191.331L103.946 191.381H88.0796C87.5474 191.215 87.2812 190.882 87.2812 190.383ZM87.2812 200.062C87.2812 199.563 87.5474 199.231 88.0796 199.065H119.812C120.278 199.397 120.511 199.73 120.511 200.062C120.511 200.495 120.261 200.827 119.762 201.06H87.9798C87.5141 200.827 87.2812 200.495 87.2812 200.062Z" fill="white"/>
</g>
<g id="Group_27">
<path id="Vector_30" d="M143.504 184.594C142.606 184.594 141.907 184.311 141.408 183.746C140.909 183.181 140.643 182.449 140.61 181.551C140.61 179.721 141.408 178.091 143.005 176.661C144.601 175.231 146.531 174.516 148.792 174.516C149.957 174.516 150.688 174.532 150.988 174.565C153.449 174.965 155.329 175.846 156.626 177.21C157.923 178.574 158.588 180.054 158.622 181.65C158.622 183.38 158.056 185.06 156.925 186.69C155.794 188.32 154.231 189.5 152.235 190.232L152.086 190.332C152.086 190.365 152.235 190.415 152.535 190.482C152.834 190.548 153.316 190.698 153.981 190.931C154.647 191.164 155.279 191.513 155.877 191.979C158.605 193.741 159.969 196.07 159.969 198.964C159.969 201.592 158.938 203.887 156.875 205.849C154.813 207.812 152.202 208.793 149.042 208.793C146.381 208.793 144.086 208.078 142.157 206.647C140.227 205.217 139.263 203.404 139.263 201.209C139.263 200.278 139.562 199.529 140.161 198.964C140.76 198.398 141.508 198.099 142.406 198.066C143.337 198.066 144.102 198.365 144.701 198.964C145.3 199.562 145.599 200.311 145.599 201.209C145.599 201.575 145.549 201.908 145.45 202.207C145.35 202.506 145.233 202.772 145.1 203.005C144.967 203.238 144.784 203.438 144.551 203.604C144.319 203.77 144.119 203.903 143.953 204.003C143.786 204.103 143.62 204.169 143.454 204.203C143.287 204.236 143.154 204.286 143.055 204.352L142.855 204.402C144.551 205.899 146.614 206.647 149.042 206.647C150.871 206.647 152.252 205.766 153.183 204.003C153.749 202.905 154.031 201.226 154.031 198.964V197.966C154.031 194.806 152.967 192.694 150.838 191.629C150.339 191.43 149.325 191.313 147.795 191.28L145.699 191.23L145.549 191.13C145.483 191.031 145.45 190.764 145.45 190.332C145.45 189.733 145.583 189.434 145.849 189.434C146.78 189.434 147.745 189.351 148.743 189.184C149.874 189.018 150.905 188.32 151.836 187.089C152.767 185.858 153.233 183.995 153.233 181.501V181.102C153.233 179.206 152.651 177.892 151.487 177.16C150.755 176.694 149.973 176.461 149.142 176.461C148.077 176.461 147.096 176.644 146.198 177.01C145.3 177.376 144.668 177.759 144.302 178.158C143.936 178.557 143.753 178.757 143.753 178.757H143.903C144.003 178.79 144.136 178.823 144.302 178.856C144.468 178.89 144.635 178.973 144.801 179.106C144.967 179.239 145.167 179.355 145.4 179.455C145.633 179.555 145.799 179.738 145.899 180.004C145.998 180.27 146.131 180.52 146.298 180.752C146.464 180.985 146.514 181.318 146.447 181.75C146.447 182.482 146.215 183.131 145.749 183.696C145.283 184.262 144.535 184.561 143.504 184.594Z" fill="white"/>
<path id="Vector_31" d="M164.205 192.078C164.205 186.657 165.552 182.366 168.247 179.206C170.941 176.046 173.935 174.466 177.228 174.466C179.523 174.466 181.169 175.064 182.167 176.262C183.165 177.459 183.664 178.79 183.664 180.253C183.664 181.085 183.431 181.75 182.965 182.249C182.5 182.748 181.851 182.998 181.02 182.998C180.255 182.998 179.623 182.765 179.124 182.299C178.625 181.833 178.375 181.185 178.375 180.353C178.375 178.89 179.157 178.008 180.72 177.709C179.988 176.977 178.957 176.561 177.627 176.461C175.265 176.461 173.319 177.459 171.789 179.455C170.226 181.65 169.444 185.01 169.444 189.534L169.494 189.733C169.66 189.534 169.793 189.318 169.893 189.085C171.257 187.089 173.037 186.091 175.232 186.091H175.431C176.962 186.091 178.309 186.407 179.473 187.039C180.271 187.505 181.07 188.17 181.868 189.035C182.666 189.9 183.315 190.848 183.814 191.879C184.512 193.509 184.861 195.288 184.861 197.217V198.116C184.861 198.881 184.778 199.596 184.612 200.261C184.246 202.224 183.182 204.136 181.419 205.999C179.656 207.862 177.427 208.793 174.733 208.793C173.802 208.793 172.903 208.66 172.039 208.394C171.174 208.128 170.242 207.629 169.245 206.897C168.247 206.165 167.398 205.184 166.7 203.953C166.001 202.722 165.403 201.109 164.904 199.113C164.405 197.118 164.172 194.773 164.205 192.078ZM174.933 187.887C173.935 187.887 173.07 188.17 172.338 188.735C171.606 189.301 171.041 190.049 170.642 190.981C170.242 191.912 169.96 192.86 169.793 193.825C169.627 194.789 169.527 195.82 169.494 196.918C169.494 199.679 169.694 201.658 170.093 202.855C170.492 204.053 171.124 205.018 171.989 205.749C172.787 206.348 173.669 206.647 174.633 206.647C176.33 206.647 177.627 206.015 178.525 204.751C178.957 204.153 179.257 203.404 179.423 202.506C179.589 201.608 179.672 199.862 179.672 197.267C179.672 194.606 179.589 192.827 179.423 191.929C179.257 191.031 178.957 190.282 178.525 189.683C177.627 188.486 176.429 187.887 174.933 187.887Z" fill="white"/>
</g>
</g>
<g id="Group 179">
<g id="Group_28">
<path id="Vector_32" d="M303.235 187.824C303.235 186.959 303.535 186.244 304.133 185.678C304.732 185.113 305.447 184.83 306.279 184.83C307.077 184.83 307.759 185.113 308.324 185.678C308.89 186.244 309.189 186.959 309.222 187.824C309.256 188.689 308.973 189.404 308.374 189.969C307.776 190.535 307.06 190.817 306.229 190.817C305.364 190.817 304.649 190.535 304.083 189.969C303.518 189.404 303.235 188.689 303.235 187.824ZM293.805 206.434C294.67 206.434 295.369 206.717 295.901 207.283C296.433 207.848 296.716 208.563 296.749 209.428C296.749 210.226 296.483 210.925 295.951 211.524C295.418 212.122 294.687 212.422 293.755 212.422C292.89 212.422 292.192 212.139 291.66 211.573C291.128 211.008 290.845 210.293 290.812 209.428C290.812 208.563 291.094 207.848 291.66 207.283C292.225 206.717 292.94 206.434 293.805 206.434ZM315.759 209.428C315.759 208.563 316.041 207.848 316.607 207.283C317.172 206.717 317.887 206.434 318.752 206.434C319.551 206.434 320.232 206.717 320.798 207.283C321.363 207.848 321.663 208.563 321.696 209.428C321.696 210.193 321.43 210.875 320.898 211.474C320.366 212.072 319.634 212.388 318.702 212.422C317.838 212.422 317.139 212.139 316.607 211.573C316.075 211.008 315.792 210.293 315.759 209.428Z" fill="white"/>
</g>
<g id="Group_29">
<path id="Vector_33" d="M366.117 200.497C366.117 197.138 367.381 193.945 369.909 190.918C372.437 187.891 375.281 186.361 378.441 186.327C380.137 186.327 381.634 187.142 382.932 188.772C383.464 187.774 384.229 187.275 385.227 187.275C385.659 187.275 386.042 187.408 386.374 187.675C386.707 187.941 386.873 188.273 386.873 188.672C386.873 189.105 386.258 191.766 385.027 196.656C383.796 201.545 383.164 204.306 383.131 204.938C383.131 205.77 383.248 206.318 383.48 206.584C383.713 206.851 384.062 207 384.528 207.034C384.828 207 385.16 206.851 385.526 206.584C386.225 205.919 386.906 204.323 387.572 201.795C387.771 201.129 387.938 200.78 388.071 200.747C388.137 200.714 388.303 200.697 388.57 200.697H388.769C389.401 200.697 389.717 200.847 389.717 201.146C389.717 201.346 389.634 201.795 389.468 202.493C389.301 203.192 388.969 204.09 388.47 205.187C387.971 206.285 387.439 207.117 386.873 207.682C386.441 208.115 385.909 208.464 385.277 208.73C385.01 208.796 384.611 208.83 384.079 208.83C382.948 208.83 382 208.58 381.235 208.081C380.47 207.582 379.971 207.067 379.738 206.535L379.439 205.786C379.406 205.753 379.339 205.77 379.239 205.836C379.173 205.903 379.106 205.969 379.04 206.036C377.077 207.898 375.082 208.83 373.052 208.83C371.223 208.83 369.61 208.164 368.213 206.834C366.816 205.503 366.117 203.391 366.117 200.497ZM381.984 191.965C381.984 191.766 381.9 191.4 381.734 190.868C381.568 190.336 381.185 189.753 380.587 189.122C379.988 188.49 379.223 188.157 378.291 188.124C377.127 188.124 376.013 188.639 374.948 189.67C373.884 190.701 373.052 192.049 372.454 193.712C371.489 196.34 370.807 199.067 370.408 201.894C370.408 201.994 370.408 202.177 370.408 202.443C370.408 202.709 370.391 202.909 370.358 203.042C370.358 204.539 370.658 205.57 371.256 206.135C371.855 206.701 372.57 207 373.402 207.034C374.666 207.034 375.913 206.485 377.144 205.387C378.375 204.289 379.106 203.441 379.339 202.842C379.406 202.709 379.855 200.93 380.686 197.504C381.518 194.078 381.95 192.232 381.984 191.965Z" fill="white"/>
</g>
<g id="Group_30">
<path id="Vector_34" d="M407.519 191.018C407.519 190.585 407.751 190.253 408.217 190.02H440C440.499 190.286 440.748 190.619 440.748 191.018C440.748 191.384 440.515 191.7 440.05 191.966L424.183 192.016H408.317C407.785 191.849 407.519 191.517 407.519 191.018ZM407.519 200.697C407.519 200.198 407.785 199.866 408.317 199.699H440.05C440.515 200.032 440.748 200.365 440.748 200.697C440.748 201.13 440.499 201.462 440 201.695H408.217C407.751 201.462 407.519 201.13 407.519 200.697Z" fill="white"/>
</g>
<g id="Group_31">
<path id="Vector_35" d="M480.458 208.33C479.859 208.23 477.714 208.18 474.021 208.18C470.163 208.18 467.934 208.23 467.336 208.33H466.887V206.035H468.433C469.099 206.035 469.548 206.035 469.78 206.035C470.013 206.035 470.296 206.002 470.629 205.935C470.961 205.869 471.194 205.786 471.327 205.686C471.46 205.586 471.577 205.453 471.676 205.287C471.71 205.22 471.726 204.322 471.726 202.592V200.098H458.804V197.802L466.338 186.277C471.427 178.56 474.005 174.685 474.071 174.652C474.138 174.585 474.487 174.552 475.119 174.552H476.017L476.317 174.851V197.802H480.907V200.098H476.317V202.642C476.317 204.006 476.317 204.804 476.317 205.037C476.317 205.27 476.416 205.47 476.616 205.636C476.882 205.869 477.83 206.002 479.46 206.035H480.907V208.33H480.458ZM472.026 197.802V181.138L461.099 197.753L466.537 197.802H472.026Z" fill="white"/>
</g>
</g>
<g id="Group 178">
<g id="Group_32">
<path id="Vector_36" d="M0.848201 287.476C0.282734 287.476 0 287.326 0 287.027C0 286.961 0.0498942 286.728 0.149683 286.329C0.315997 285.697 0.482311 285.347 0.648625 285.281C0.748413 285.247 0.997884 285.231 1.39704 285.231H1.6964C3.69217 285.231 4.95616 285.114 5.48836 284.882C5.52162 284.882 5.55489 284.865 5.58815 284.832C5.75446 284.765 5.93741 284.383 6.13699 283.684C6.33656 282.986 7.1515 279.726 8.5818 273.905C8.98096 272.408 9.28032 271.227 9.4799 270.362C11.8083 261.049 12.9725 256.359 12.9725 256.292C12.906 256.159 12.8727 256.076 12.8727 256.043C12.5401 255.843 11.3592 255.743 9.33022 255.743H8.33233C8.03297 255.544 7.96644 255.128 8.13275 254.496C8.26581 253.997 8.36559 253.698 8.43212 253.598C8.49864 253.498 8.73148 253.448 9.13064 253.448H9.33022C11.7251 253.515 14.1533 253.548 16.6148 253.548C20.6728 253.548 22.8016 253.515 23.0012 253.448H23.5002C23.733 253.681 23.8494 253.864 23.8494 253.997C23.8494 254.13 23.7995 254.413 23.6997 254.845C23.6 255.278 23.4835 255.544 23.3505 255.644C23.2507 255.71 22.8682 255.743 22.2029 255.743C21.1718 255.743 20.1074 255.793 19.0097 255.893C18.544 255.993 18.228 256.176 18.0617 256.442C17.8289 256.908 16.9807 260.084 15.5171 265.972C15.1512 267.535 14.7853 269.049 14.4194 270.512C12.091 279.693 10.9268 284.383 10.9268 284.582C10.9268 284.815 11.0931 284.965 11.4258 285.031C11.7584 285.098 12.6232 285.164 14.0203 285.231H15.6169C15.8165 285.497 15.9162 285.647 15.9162 285.68C15.9162 285.713 15.8664 286.013 15.7666 286.578C15.6335 287.01 15.4672 287.326 15.2676 287.526H14.4693C13.2386 287.459 10.9601 287.426 7.63381 287.426C6.43635 287.426 5.33868 287.426 4.3408 287.426C3.34291 287.426 2.5446 287.426 1.94587 287.426C1.34714 287.426 0.981253 287.443 0.848201 287.476Z" fill="white"/>
</g>
<g id="Group_33">
<path id="Vector_37" d="M24.8994 273.206C24.9327 273.007 24.9826 272.741 25.0491 272.408C25.1156 272.075 25.3152 271.443 25.6478 270.512C25.9805 269.581 26.3131 268.799 26.6457 268.167C26.9783 267.535 27.5272 266.92 28.2922 266.321C29.0573 265.722 29.8223 265.439 30.5874 265.473C31.7848 265.473 32.7827 265.772 33.581 266.371C34.3793 266.97 34.8783 267.535 35.0778 268.067C35.2774 268.599 35.3772 268.949 35.3772 269.115C35.3772 269.182 35.3938 269.215 35.4271 269.215L35.9759 268.666C38.005 266.537 40.3167 265.473 42.9112 265.473C44.7074 265.473 46.1543 265.922 47.252 266.82C48.3497 267.718 48.9152 269.032 48.9484 270.762C48.9817 272.491 48.3497 275.102 47.0524 278.595C45.7552 282.088 45.1232 284.2 45.1565 284.931C45.1565 285.796 45.4392 286.229 46.0047 286.229C46.2042 286.229 46.3539 286.212 46.4537 286.179C47.4183 286.013 48.2832 285.381 49.0482 284.283C49.8132 283.185 50.3953 281.855 50.7945 280.291C50.861 280.025 51.1937 279.892 51.7924 279.892C52.4576 279.892 52.7903 280.025 52.7903 280.291C52.7903 280.325 52.7237 280.574 52.5907 281.04C52.3246 282.004 51.9587 282.952 51.493 283.884C51.0273 284.815 50.2623 285.746 49.1979 286.678C48.1335 287.609 46.9859 288.058 45.7552 288.025C44.1918 288.025 43.0609 287.576 42.3624 286.678C41.6639 285.78 41.3146 284.848 41.3146 283.884C41.3146 283.252 41.9133 281.256 43.1108 277.896C44.3083 274.537 44.9236 272.009 44.9569 270.312C44.9569 268.35 44.2251 267.369 42.7615 267.369H42.5121C39.6515 267.369 37.2399 269.049 35.2774 272.408L34.9281 273.007L33.2816 279.693C32.184 284.05 31.552 286.395 31.3857 286.728C30.9532 287.626 30.2381 288.075 29.2402 288.075C28.8078 288.075 28.4585 287.975 28.1924 287.775C27.9263 287.576 27.7434 287.376 27.6436 287.177C27.5438 286.977 27.5105 286.811 27.5438 286.678C27.5438 286.245 28.1758 283.534 29.4398 278.545C30.7038 273.556 31.369 270.845 31.4356 270.412C31.4688 270.246 31.4854 269.863 31.4854 269.265C31.4854 267.967 31.0863 267.319 30.288 267.319C29.024 267.319 27.9762 268.982 27.1447 272.308C26.9451 272.974 26.8453 273.323 26.8453 273.356C26.7788 273.556 26.4628 273.655 25.8973 273.655H25.1988C24.9992 273.456 24.8994 273.306 24.8994 273.206Z" fill="white"/>
</g>
<g id="Group_34">
<path id="Vector_38" d="M72.0454 253.449C72.0787 253.449 73.2762 253.366 75.6378 253.199C77.9995 253.033 79.2136 252.933 79.2801 252.9C79.6792 252.9 79.8788 253.033 79.8788 253.299C79.8788 253.532 78.6647 258.555 76.2365 268.367C73.8084 278.18 72.561 283.186 72.4945 283.385C72.428 283.585 72.4113 283.835 72.4446 284.134C72.4446 285.531 72.9103 286.229 73.8416 286.229C74.141 286.196 74.4736 286.046 74.8395 285.78C75.538 285.115 76.2199 283.519 76.8852 280.991C77.0847 280.325 77.2511 279.976 77.3841 279.943C77.4506 279.91 77.6169 279.893 77.8831 279.893H78.0826H78.2822C78.7811 279.893 79.0306 280.026 79.0306 280.292C79.0306 280.458 78.9807 280.724 78.8809 281.09C78.4485 282.753 77.9496 284.101 77.3841 285.132C76.8186 286.163 76.353 286.828 75.9871 287.128C75.6212 287.427 75.1555 287.693 74.59 287.926C74.3239 287.992 73.9248 288.026 73.3926 288.026C72.2616 288.026 71.3136 287.776 70.5486 287.277C69.7836 286.778 69.2846 286.263 69.0518 285.731L68.7524 284.982C68.7192 284.949 68.6526 284.965 68.5528 285.032C68.4863 285.099 68.4198 285.165 68.3533 285.232C66.3908 287.094 64.395 288.026 62.366 288.026C60.5365 288.026 58.9233 287.36 57.5262 286.03C56.1292 284.699 55.4307 282.587 55.4307 279.693C55.4307 278.097 55.7633 276.467 56.4285 274.804C57.0938 273.141 57.8921 271.71 58.8235 270.513C60.3868 268.617 61.9502 267.303 63.5135 266.571C65.0769 265.839 66.4905 265.473 67.7545 265.473C69.6172 265.473 71.0143 266.172 71.9456 267.569C72.112 267.769 72.1951 267.835 72.1951 267.769C72.2284 267.636 72.6774 265.823 73.5423 262.33C74.4071 258.838 74.8728 256.991 74.9393 256.792C74.9393 256.359 74.8229 256.093 74.59 255.994C74.3572 255.894 73.7086 255.811 72.6442 255.744H71.5964C71.3968 255.545 71.297 255.411 71.297 255.345C71.297 255.278 71.3303 254.962 71.3968 254.397C71.5631 253.765 71.7793 253.449 72.0454 253.449ZM71.3469 271.261C70.5819 268.633 69.3345 267.32 67.6048 267.32C66.4406 267.32 65.3263 267.835 64.2619 268.866C63.1975 269.897 62.366 271.245 61.7672 272.908C60.8026 275.535 60.1207 278.263 59.7216 281.09C59.7216 281.19 59.7216 281.373 59.7216 281.639C59.7216 281.905 59.7049 282.105 59.6717 282.238C59.6717 283.735 59.971 284.766 60.5698 285.331C61.1685 285.897 61.8836 286.196 62.7152 286.229C64.5114 286.229 66.3575 285.032 68.2535 282.637L68.6526 282.088L71.3469 271.261Z" fill="white"/>
</g>
<g id="Group_35">
<path id="Vector_39" d="M81.6738 279.144C81.6738 277.248 81.9898 275.518 82.6218 273.955C83.2538 272.391 84.0687 271.094 85.0666 270.063C86.0645 269.032 87.1788 268.167 88.4095 267.469C89.6403 266.77 90.8045 266.254 91.9021 265.922C92.9998 265.589 94.0476 265.439 95.0455 265.473H95.1952C96.692 265.473 97.9892 265.839 99.0869 266.57C100.185 267.302 100.733 268.383 100.733 269.814C100.733 272.807 98.8873 274.77 95.1952 275.701C93.5653 276.133 91.3367 276.366 88.5093 276.4C87.2786 276.4 86.6466 276.433 86.6134 276.499C86.6134 276.566 86.5136 277.148 86.314 278.246C86.1144 279.343 85.998 280.308 85.9647 281.14C85.9647 282.703 86.314 283.934 87.0125 284.832C87.711 285.73 88.7588 286.195 90.1558 286.229C91.5529 286.262 93.0996 285.946 94.796 285.281C96.4924 284.615 98.0225 283.518 99.3863 281.988C99.6856 281.655 99.8852 281.489 99.985 281.489C100.118 281.489 100.334 281.638 100.634 281.938C100.933 282.237 101.099 282.47 101.133 282.636C101.166 282.803 101.016 283.069 100.684 283.435C100.351 283.801 99.8519 284.25 99.1867 284.782C98.5214 285.314 97.7564 285.83 96.8916 286.329C96.0267 286.827 94.9789 287.243 93.7482 287.576C92.5175 287.909 91.2535 288.075 89.9563 288.075C87.3285 288.075 85.2995 287.193 83.8692 285.43C82.4389 283.668 81.7071 281.572 81.6738 279.144ZM98.3385 269.913C98.1389 268.184 97.008 267.319 94.9457 267.319C93.848 267.319 92.8335 267.552 91.9021 268.017C90.9708 268.483 90.2224 269.049 89.6569 269.714C89.0914 270.379 88.6091 271.061 88.21 271.759C87.8108 272.458 87.5447 273.057 87.4117 273.556C87.2786 274.055 87.1955 274.371 87.1622 274.504C87.1622 274.537 87.4948 274.554 88.1601 274.554C91.9188 274.554 94.5465 274.154 96.0434 273.356C97.5402 272.558 98.3052 271.41 98.3385 269.913Z" fill="white"/>
</g>
<g id="Group_36">
<path id="Vector_40" d="M104.127 273.206C104.16 273.107 104.193 272.973 104.226 272.807C104.26 272.641 104.343 272.275 104.476 271.71C104.609 271.144 104.775 270.628 104.975 270.163C105.174 269.697 105.424 269.148 105.723 268.516C106.023 267.884 106.355 267.385 106.721 267.019C107.087 266.654 107.519 266.288 108.018 265.922C108.517 265.556 109.066 265.406 109.665 265.473C112.16 265.473 113.756 266.537 114.455 268.666L114.954 268.217C117.016 266.387 118.978 265.473 120.841 265.473C123.003 265.473 124.7 266.254 125.93 267.818C127.161 269.381 127.776 271.277 127.776 273.506C127.776 277.098 126.513 280.408 123.985 283.435C121.457 286.462 118.596 287.992 115.403 288.025C114.671 288.025 114.022 287.925 113.457 287.726C113.091 287.559 112.708 287.31 112.309 286.977C111.91 286.645 111.594 286.362 111.361 286.129L111.012 285.73C110.979 285.763 110.613 287.21 109.914 290.071C109.216 292.931 108.867 294.378 108.867 294.411C108.867 294.611 109 294.727 109.266 294.761C109.532 294.794 110.147 294.844 111.112 294.91H112.359C112.559 295.143 112.659 295.293 112.659 295.359C112.659 295.426 112.609 295.725 112.509 296.257C112.409 296.657 112.309 296.906 112.21 297.006C112.11 297.106 111.894 297.172 111.561 297.205C111.494 297.205 111.311 297.205 111.012 297.205C110.713 297.205 110.147 297.189 109.316 297.156C108.484 297.122 107.453 297.106 106.222 297.106C103.894 297.106 102.414 297.139 101.782 297.205H101.382C101.15 296.973 101.033 296.79 101.033 296.657C101.1 295.759 101.316 295.176 101.682 294.91H102.68C103.811 294.877 104.459 294.677 104.626 294.312C104.725 294.112 105.74 290.137 107.669 282.387C109.598 274.637 110.613 270.529 110.713 270.063C110.746 269.897 110.763 269.664 110.763 269.364C110.763 268.001 110.347 267.319 109.515 267.319C108.783 267.319 108.168 267.784 107.669 268.716C107.17 269.647 106.788 270.662 106.522 271.759C106.255 272.857 106.056 273.456 105.923 273.556C105.856 273.622 105.59 273.655 105.125 273.655H104.426C104.226 273.456 104.127 273.306 104.127 273.206ZM111.86 282.437C112.592 284.965 113.823 286.229 115.552 286.229C116.55 286.229 117.515 285.846 118.446 285.081C119.378 284.316 120.143 283.351 120.741 282.187C121.34 281.056 121.939 279.26 122.538 276.799C123.136 274.337 123.452 272.508 123.486 271.31V271.011C123.486 268.55 122.471 267.319 120.442 267.319C120.076 267.319 119.71 267.369 119.344 267.469C118.978 267.568 118.613 267.718 118.247 267.918C117.881 268.117 117.548 268.333 117.249 268.566C116.949 268.799 116.667 269.048 116.401 269.315C116.135 269.581 115.885 269.83 115.652 270.063C115.419 270.296 115.236 270.529 115.103 270.762C114.97 270.994 114.837 271.161 114.704 271.26L114.555 271.46C114.555 271.493 114.505 271.726 114.405 272.159C114.305 272.591 114.122 273.323 113.856 274.354C113.59 275.385 113.357 276.25 113.157 276.948C112.293 280.474 111.86 282.304 111.86 282.437Z" fill="white"/>
</g>
<g id="Group_37">
<path id="Vector_41" d="M130.021 279.144C130.021 277.248 130.337 275.518 130.968 273.955C131.6 272.391 132.415 271.094 133.413 270.063C134.411 269.032 135.526 268.167 136.756 267.469C137.987 266.77 139.151 266.254 140.249 265.922C141.346 265.589 142.394 265.439 143.392 265.473H143.542C145.039 265.473 146.336 265.839 147.434 266.57C148.531 267.302 149.08 268.383 149.08 269.814C149.08 272.807 147.234 274.77 143.542 275.701C141.912 276.133 139.683 276.366 136.856 276.4C135.625 276.4 134.993 276.433 134.96 276.499C134.96 276.566 134.86 277.148 134.661 278.246C134.461 279.343 134.345 280.308 134.311 281.14C134.311 282.703 134.661 283.934 135.359 284.832C136.058 285.73 137.105 286.195 138.503 286.229C139.9 286.262 141.446 285.946 143.143 285.281C144.839 284.615 146.369 283.518 147.733 281.988C148.032 281.655 148.232 281.489 148.332 281.489C148.465 281.489 148.681 281.638 148.98 281.938C149.28 282.237 149.446 282.47 149.479 282.636C149.513 282.803 149.363 283.069 149.03 283.435C148.698 283.801 148.199 284.25 147.533 284.782C146.868 285.314 146.103 285.83 145.238 286.329C144.373 286.827 143.326 287.243 142.095 287.576C140.864 287.909 139.6 288.075 138.303 288.075C135.675 288.075 133.646 287.193 132.216 285.43C130.786 283.668 130.054 281.572 130.021 279.144ZM146.685 269.913C146.486 268.184 145.355 267.319 143.292 267.319C142.195 267.319 141.18 267.552 140.249 268.017C139.317 268.483 138.569 269.049 138.004 269.714C137.438 270.379 136.956 271.061 136.557 271.759C136.157 272.458 135.891 273.057 135.758 273.556C135.625 274.055 135.542 274.371 135.509 274.504C135.509 274.537 135.841 274.554 136.507 274.554C140.265 274.554 142.893 274.154 144.39 273.356C145.887 272.558 146.652 271.41 146.685 269.913Z" fill="white"/>
</g>
<g id="Group_38">
<path id="Vector_42" d="M152.376 273.206C152.409 273.007 152.459 272.741 152.526 272.408C152.592 272.075 152.792 271.443 153.124 270.512C153.457 269.581 153.79 268.799 154.122 268.167C154.455 267.535 155.004 266.92 155.769 266.321C156.534 265.722 157.299 265.439 158.064 265.473C159.261 265.473 160.259 265.772 161.058 266.371C161.856 266.97 162.355 267.535 162.554 268.067C162.754 268.599 162.854 268.949 162.854 269.115C162.854 269.182 162.87 269.215 162.904 269.215L163.452 268.666C165.482 266.537 167.793 265.473 170.388 265.473C172.184 265.473 173.631 265.922 174.729 266.82C175.826 267.718 176.392 269.032 176.425 270.762C176.458 272.491 175.826 275.102 174.529 278.595C173.232 282.088 172.6 284.2 172.633 284.931C172.633 285.796 172.916 286.229 173.481 286.229C173.681 286.229 173.83 286.212 173.93 286.179C174.895 286.013 175.76 285.381 176.525 284.283C177.29 283.185 177.872 281.855 178.271 280.291C178.338 280.025 178.67 279.892 179.269 279.892C179.934 279.892 180.267 280.025 180.267 280.291C180.267 280.325 180.2 280.574 180.067 281.04C179.801 282.004 179.435 282.952 178.97 283.884C178.504 284.815 177.739 285.746 176.674 286.678C175.61 287.609 174.462 288.058 173.232 288.025C171.668 288.025 170.537 287.576 169.839 286.678C169.14 285.78 168.791 284.848 168.791 283.884C168.791 283.252 169.39 281.256 170.587 277.896C171.785 274.537 172.4 272.009 172.433 270.312C172.433 268.35 171.702 267.369 170.238 267.369H169.989C167.128 267.369 164.716 269.049 162.754 272.408L162.405 273.007L160.758 279.693C159.661 284.05 159.029 286.395 158.862 286.728C158.43 287.626 157.715 288.075 156.717 288.075C156.284 288.075 155.935 287.975 155.669 287.775C155.403 287.576 155.22 287.376 155.12 287.177C155.02 286.977 154.987 286.811 155.02 286.678C155.02 286.245 155.652 283.534 156.916 278.545C158.18 273.556 158.846 270.845 158.912 270.412C158.945 270.246 158.962 269.863 158.962 269.265C158.962 267.967 158.563 267.319 157.765 267.319C156.501 267.319 155.453 268.982 154.621 272.308C154.422 272.974 154.322 273.323 154.322 273.356C154.255 273.556 153.939 273.655 153.374 273.655H152.675C152.476 273.456 152.376 273.306 152.376 273.206Z" fill="white"/>
</g>
<g id="Group_39">
<path id="Vector_43" d="M199.524 253.449C199.557 253.449 200.755 253.366 203.116 253.199C205.478 253.033 206.692 252.933 206.759 252.9C207.158 252.9 207.357 253.033 207.357 253.299C207.357 253.532 206.143 258.555 203.715 268.367C201.287 278.18 200.04 283.186 199.973 283.385C199.906 283.585 199.89 283.835 199.923 284.134C199.923 285.531 200.389 286.229 201.32 286.229C201.62 286.196 201.952 286.046 202.318 285.78C203.017 285.115 203.698 283.519 204.364 280.991C204.563 280.325 204.73 279.976 204.863 279.943C204.929 279.91 205.095 279.893 205.362 279.893H205.561H205.761C206.26 279.893 206.509 280.026 206.509 280.292C206.509 280.458 206.459 280.724 206.359 281.09C205.927 282.753 205.428 284.101 204.863 285.132C204.297 286.163 203.831 286.828 203.466 287.128C203.1 287.427 202.634 287.693 202.069 287.926C201.802 287.992 201.403 288.026 200.871 288.026C199.74 288.026 198.792 287.776 198.027 287.277C197.262 286.778 196.763 286.263 196.53 285.731L196.231 284.982C196.198 284.949 196.131 284.965 196.031 285.032C195.965 285.099 195.898 285.165 195.832 285.232C193.869 287.094 191.874 288.026 189.844 288.026C188.015 288.026 186.402 287.36 185.005 286.03C183.608 284.699 182.909 282.587 182.909 279.693C182.909 278.097 183.242 276.467 183.907 274.804C184.572 273.141 185.371 271.71 186.302 270.513C187.865 268.617 189.429 267.303 190.992 266.571C192.555 265.839 193.969 265.473 195.233 265.473C197.096 265.473 198.493 266.172 199.424 267.569C199.59 267.769 199.674 267.835 199.674 267.769C199.707 267.636 200.156 265.823 201.021 262.33C201.886 258.838 202.351 256.991 202.418 256.792C202.418 256.359 202.301 256.093 202.069 255.994C201.836 255.894 201.187 255.811 200.123 255.744H199.075C198.875 255.545 198.776 255.411 198.776 255.345C198.776 255.278 198.809 254.962 198.875 254.397C199.042 253.765 199.258 253.449 199.524 253.449ZM198.825 271.261C198.06 268.633 196.813 267.32 195.083 267.32C193.919 267.32 192.805 267.835 191.74 268.866C190.676 269.897 189.844 271.245 189.246 272.908C188.281 275.535 187.599 278.263 187.2 281.09C187.2 281.19 187.2 281.373 187.2 281.639C187.2 281.905 187.183 282.105 187.15 282.238C187.15 283.735 187.45 284.766 188.048 285.331C188.647 285.897 189.362 286.196 190.194 286.229C191.99 286.229 193.836 285.032 195.732 282.637L196.131 282.088L198.825 271.261Z" fill="white"/>
</g>
<g id="Group_40">
<path id="Vector_44" d="M216.386 257.589C216.386 256.791 216.702 256.093 217.334 255.494C217.966 254.895 218.697 254.579 219.529 254.546C220.128 254.546 220.627 254.746 221.026 255.145C221.425 255.544 221.641 256.043 221.674 256.641C221.674 257.407 221.342 258.105 220.677 258.737C220.011 259.369 219.28 259.702 218.481 259.735C217.982 259.735 217.517 259.569 217.084 259.236C216.652 258.903 216.419 258.355 216.386 257.589ZM208.253 273.206C208.253 272.94 208.403 272.425 208.702 271.66C209.001 270.895 209.4 270.046 209.899 269.115C210.398 268.184 211.13 267.335 212.095 266.57C213.059 265.805 214.057 265.439 215.088 265.473C216.386 265.473 217.467 265.855 218.332 266.62C219.196 267.385 219.645 268.417 219.679 269.714C219.679 270.279 219.446 271.211 218.98 272.508C218.515 273.805 217.849 275.551 216.984 277.747C216.12 279.942 215.421 281.821 214.889 283.385C214.723 284.117 214.639 284.649 214.639 284.981C214.639 285.813 214.922 286.229 215.488 286.229C215.787 286.229 216.103 286.179 216.436 286.079C216.768 285.979 217.151 285.746 217.583 285.381C218.016 285.015 218.465 284.433 218.93 283.634C219.396 282.836 219.812 281.855 220.178 280.69C220.277 280.291 220.361 280.058 220.427 279.992C220.494 279.925 220.776 279.892 221.275 279.892C221.941 279.892 222.273 280.058 222.273 280.391C222.273 280.657 222.124 281.173 221.824 281.938C221.525 282.703 221.109 283.551 220.577 284.482C220.045 285.414 219.296 286.245 218.332 286.977C217.367 287.709 216.336 288.075 215.238 288.075C214.174 288.075 213.192 287.726 212.294 287.027C211.396 286.329 210.931 285.264 210.897 283.834C210.897 283.268 210.98 282.736 211.147 282.237C211.313 281.738 212.028 279.842 213.292 276.549C214.556 273.19 215.288 271.177 215.488 270.512C215.687 269.847 215.804 269.198 215.837 268.566C215.837 267.768 215.554 267.369 214.989 267.369H214.889C213.891 267.369 212.976 267.918 212.145 269.015C211.313 270.113 210.681 271.51 210.249 273.206C210.215 273.24 210.182 273.29 210.149 273.356C210.116 273.423 210.099 273.472 210.099 273.506C210.099 273.539 210.066 273.572 209.999 273.606C209.933 273.639 209.883 273.655 209.85 273.655C209.816 273.655 209.75 273.655 209.65 273.655C209.55 273.655 209.417 273.655 209.251 273.655H208.552C208.353 273.456 208.253 273.306 208.253 273.206Z" fill="white"/>
</g>
<g id="Group_41">
<path id="Vector_45" d="M226.371 279.144C226.371 277.248 226.687 275.518 227.319 273.955C227.951 272.391 228.766 271.094 229.764 270.063C230.762 269.032 231.876 268.167 233.107 267.469C234.338 266.77 235.502 266.254 236.599 265.922C237.697 265.589 238.745 265.439 239.743 265.473H239.892C241.389 265.473 242.686 265.839 243.784 266.57C244.882 267.302 245.431 268.383 245.431 269.814C245.431 272.807 243.585 274.77 239.892 275.701C238.263 276.133 236.034 276.366 233.207 276.4C231.976 276.4 231.344 276.433 231.311 276.499C231.311 276.566 231.211 277.148 231.011 278.246C230.812 279.343 230.695 280.308 230.662 281.14C230.662 282.703 231.011 283.934 231.71 284.832C232.408 285.73 233.456 286.195 234.853 286.229C236.25 286.262 237.797 285.946 239.493 285.281C241.19 284.615 242.72 283.518 244.084 281.988C244.383 281.655 244.582 281.489 244.682 281.489C244.815 281.489 245.032 281.638 245.331 281.938C245.63 282.237 245.797 282.47 245.83 282.636C245.863 282.803 245.713 283.069 245.381 283.435C245.048 283.801 244.549 284.25 243.884 284.782C243.219 285.314 242.454 285.83 241.589 286.329C240.724 286.827 239.676 287.243 238.445 287.576C237.215 287.909 235.951 288.075 234.654 288.075C232.026 288.075 229.997 287.193 228.566 285.43C227.136 283.668 226.404 281.572 226.371 279.144ZM243.036 269.913C242.836 268.184 241.705 267.319 239.643 267.319C238.545 267.319 237.531 267.552 236.599 268.017C235.668 268.483 234.92 269.049 234.354 269.714C233.789 270.379 233.306 271.061 232.907 271.759C232.508 272.458 232.242 273.057 232.109 273.556C231.976 274.055 231.893 274.371 231.859 274.504C231.859 274.537 232.192 274.554 232.857 274.554C236.616 274.554 239.244 274.154 240.741 273.356C242.237 272.558 243.002 271.41 243.036 269.913Z" fill="white"/>
</g>
<g id="Group_42">
<path id="Vector_46" d="M248.718 273.206C248.751 273.007 248.801 272.741 248.867 272.408C248.934 272.075 249.134 271.443 249.466 270.512C249.799 269.581 250.131 268.799 250.464 268.167C250.797 267.535 251.346 266.92 252.111 266.321C252.876 265.722 253.641 265.439 254.406 265.473C255.603 265.473 256.601 265.772 257.399 266.371C258.198 266.97 258.697 267.535 258.896 268.067C259.096 268.599 259.196 268.949 259.196 269.115C259.196 269.182 259.212 269.215 259.245 269.215L259.794 268.666C261.823 266.537 264.135 265.473 266.73 265.473C268.526 265.473 269.973 265.922 271.07 266.82C272.168 267.718 272.734 269.032 272.767 270.762C272.8 272.491 272.168 275.102 270.871 278.595C269.574 282.088 268.942 284.2 268.975 284.931C268.975 285.796 269.258 286.229 269.823 286.229C270.023 286.229 270.172 286.212 270.272 286.179C271.237 286.013 272.102 285.381 272.867 284.283C273.632 283.185 274.214 281.855 274.613 280.291C274.679 280.025 275.012 279.892 275.611 279.892C276.276 279.892 276.609 280.025 276.609 280.291C276.609 280.325 276.542 280.574 276.409 281.04C276.143 282.004 275.777 282.952 275.311 283.884C274.846 284.815 274.081 285.746 273.016 286.678C271.952 287.609 270.804 288.058 269.574 288.025C268.01 288.025 266.879 287.576 266.181 286.678C265.482 285.78 265.133 284.848 265.133 283.884C265.133 283.252 265.732 281.256 266.929 277.896C268.127 274.537 268.742 272.009 268.775 270.312C268.775 268.35 268.043 267.369 266.58 267.369H266.33C263.47 267.369 261.058 269.049 259.096 272.408L258.747 273.007L257.1 279.693C256.002 284.05 255.37 286.395 255.204 286.728C254.772 287.626 254.056 288.075 253.059 288.075C252.626 288.075 252.277 287.975 252.011 287.775C251.745 287.576 251.562 287.376 251.462 287.177C251.362 286.977 251.329 286.811 251.362 286.678C251.362 286.245 251.994 283.534 253.258 278.545C254.522 273.556 255.187 270.845 255.254 270.412C255.287 270.246 255.304 269.863 255.304 269.265C255.304 267.967 254.905 267.319 254.106 267.319C252.842 267.319 251.795 268.982 250.963 272.308C250.763 272.974 250.664 273.323 250.664 273.356C250.597 273.556 250.281 273.655 249.716 273.655H249.017C248.818 273.456 248.718 273.306 248.718 273.206Z" fill="white"/>
</g>
<g id="Group_43">
<path id="Vector_47" d="M278.912 268.317C278.679 268.084 278.562 267.918 278.562 267.818C278.562 267.685 278.612 267.419 278.712 267.019C278.812 266.62 278.895 266.387 278.962 266.321C279.028 266.155 279.178 266.071 279.411 266.071C279.644 266.071 280.492 266.055 281.955 266.022H284.6L285.548 262.03C285.647 261.664 285.764 261.182 285.897 260.583C286.03 259.984 286.146 259.552 286.246 259.286C286.346 259.02 286.446 258.687 286.546 258.288C286.645 257.889 286.778 257.606 286.945 257.44C287.111 257.273 287.277 257.074 287.444 256.841C287.61 256.608 287.843 256.459 288.142 256.392C288.442 256.325 288.741 256.292 289.04 256.292C289.639 256.325 290.055 256.508 290.288 256.841C290.52 257.174 290.637 257.49 290.637 257.789C290.637 258.022 290.487 258.804 290.188 260.134C289.888 261.465 289.556 262.778 289.19 264.076L288.691 265.922C288.691 265.988 289.523 266.022 291.186 266.022H293.73C293.963 266.254 294.08 266.437 294.08 266.57C294.08 267.302 293.863 267.884 293.431 268.317H288.092L286.296 275.551C284.999 280.873 284.35 283.734 284.35 284.133C284.35 285.53 284.799 286.229 285.697 286.229C286.862 286.229 287.993 285.663 289.09 284.532C290.188 283.401 291.069 282.004 291.735 280.341C291.801 280.142 291.884 280.025 291.984 279.992C292.084 279.959 292.333 279.925 292.732 279.892H292.932C293.431 279.892 293.68 280.025 293.68 280.291C293.68 280.391 293.631 280.591 293.531 280.89C293.364 281.422 293.065 282.054 292.633 282.786C292.2 283.518 291.635 284.3 290.936 285.131C290.238 285.963 289.39 286.661 288.392 287.227C287.394 287.792 286.379 288.075 285.348 288.075C284.35 288.075 283.402 287.825 282.504 287.326C281.606 286.827 280.957 285.963 280.558 284.732C280.492 284.466 280.458 284.017 280.458 283.385V282.487L282.205 275.501C283.369 270.811 283.968 268.45 284.001 268.417C284.001 268.35 283.153 268.317 281.456 268.317H278.912Z" fill="white"/>
</g>
<g id="Group_44">
<path id="Vector_48" d="M297.569 279.144C297.569 277.248 297.885 275.518 298.517 273.955C299.149 272.391 299.964 271.094 300.962 270.063C301.96 269.032 303.074 268.167 304.305 267.469C305.536 266.77 306.7 266.254 307.798 265.922C308.895 265.589 309.943 265.439 310.941 265.473H311.091C312.587 265.473 313.885 265.839 314.982 266.57C316.08 267.302 316.629 268.383 316.629 269.814C316.629 272.807 314.783 274.77 311.091 275.701C309.461 276.133 307.232 276.366 304.405 276.4C303.174 276.4 302.542 276.433 302.509 276.499C302.509 276.566 302.409 277.148 302.209 278.246C302.01 279.343 301.893 280.308 301.86 281.14C301.86 282.703 302.209 283.934 302.908 284.832C303.607 285.73 304.654 286.195 306.051 286.229C307.448 286.262 308.995 285.946 310.692 285.281C312.388 284.615 313.918 283.518 315.282 281.988C315.581 281.655 315.781 281.489 315.881 281.489C316.014 281.489 316.23 281.638 316.529 281.938C316.828 282.237 316.995 282.47 317.028 282.636C317.061 282.803 316.912 283.069 316.579 283.435C316.246 283.801 315.747 284.25 315.082 284.782C314.417 285.314 313.652 285.83 312.787 286.329C311.922 286.827 310.874 287.243 309.644 287.576C308.413 287.909 307.149 288.075 305.852 288.075C303.224 288.075 301.195 287.193 299.765 285.43C298.334 283.668 297.603 281.572 297.569 279.144ZM314.234 269.913C314.034 268.184 312.903 267.319 310.841 267.319C309.744 267.319 308.729 267.552 307.798 268.017C306.866 268.483 306.118 269.049 305.552 269.714C304.987 270.379 304.505 271.061 304.105 271.759C303.706 272.458 303.44 273.057 303.307 273.556C303.174 274.055 303.091 274.371 303.058 274.504C303.058 274.537 303.39 274.554 304.056 274.554C307.814 274.554 310.442 274.154 311.939 273.356C313.436 272.558 314.201 271.41 314.234 269.913Z" fill="white"/>
</g>
<g id="Group_45">
<path id="Vector_49" d="M325.411 273.107C325.411 272.043 325.677 270.962 326.21 269.864C326.742 268.766 327.673 267.752 329.004 266.821C330.334 265.889 331.947 265.44 333.843 265.473C335.906 265.473 337.403 265.923 338.334 266.821C339.265 267.719 339.748 268.717 339.781 269.814C339.781 270.879 339.498 271.66 338.933 272.159C338.367 272.658 337.735 272.924 337.037 272.958C336.604 272.958 336.205 272.825 335.839 272.558C335.473 272.292 335.274 271.86 335.24 271.261C335.24 270.729 335.39 270.263 335.689 269.864C335.989 269.465 336.272 269.166 336.538 268.966C336.804 268.766 337.02 268.667 337.186 268.667C337.22 268.667 337.236 268.65 337.236 268.617C337.236 268.517 337.12 268.367 336.887 268.168C336.654 267.968 336.238 267.785 335.64 267.619C335.041 267.453 334.392 267.353 333.694 267.32C332.097 267.32 330.933 267.752 330.201 268.617C329.469 269.482 329.087 270.363 329.054 271.261C329.054 272.093 329.37 272.675 330.002 273.007C330.634 273.34 331.548 273.623 332.746 273.856C333.943 274.089 334.808 274.338 335.34 274.604C337.536 275.569 338.633 277.165 338.633 279.394C338.633 280.325 338.45 281.257 338.084 282.188C337.719 283.119 337.17 284.051 336.438 284.982C335.706 285.913 334.658 286.645 333.295 287.177C331.931 287.71 330.367 287.992 328.605 288.026C326.043 288.026 324.23 287.543 323.166 286.579C322.102 285.614 321.553 284.483 321.52 283.186C321.52 281.889 321.869 280.957 322.567 280.392C323.266 279.826 323.998 279.544 324.763 279.544C325.262 279.544 325.727 279.693 326.16 279.993C326.592 280.292 326.825 280.808 326.858 281.539C326.858 282.404 326.559 283.136 325.96 283.735C325.361 284.333 324.846 284.633 324.413 284.633C324.347 284.666 324.297 284.683 324.264 284.683C324.23 284.683 324.214 284.716 324.214 284.783C324.247 284.882 324.38 285.015 324.613 285.182C324.846 285.348 325.361 285.564 326.16 285.83C326.958 286.096 327.873 286.213 328.904 286.18C330.101 286.18 331.132 285.997 331.997 285.631C332.862 285.265 333.494 284.799 333.893 284.234C334.292 283.668 334.575 283.153 334.741 282.687C334.908 282.221 334.991 281.805 334.991 281.44C334.991 280.508 334.642 279.81 333.943 279.344C333.245 278.878 332.446 278.596 331.548 278.496C330.65 278.396 329.669 278.147 328.605 277.747C327.54 277.348 326.758 276.766 326.259 276.001C325.694 275.17 325.411 274.205 325.411 273.107Z" fill="white"/>
</g>
<g id="Group_46">
<path id="Vector_50" d="M358.925 270.214C358.925 269.781 359.158 269.449 359.623 269.216H391.406C391.905 269.482 392.154 269.814 392.154 270.214C392.154 270.58 391.921 270.896 391.456 271.162L375.589 271.212H359.723C359.191 271.045 358.925 270.713 358.925 270.214ZM358.925 279.893C358.925 279.394 359.191 279.062 359.723 278.895H391.456C391.921 279.228 392.154 279.56 392.154 279.893C392.154 280.326 391.905 280.658 391.406 280.891H359.623C359.158 280.658 358.925 280.326 358.925 279.893Z" fill="white"/>
</g>
<g id="Group_47">
<path id="Vector_51" d="M431.863 287.526C431.264 287.426 429.119 287.376 425.427 287.376C421.568 287.376 419.34 287.426 418.741 287.526H418.292V285.231H419.839C420.504 285.231 420.953 285.231 421.186 285.231C421.419 285.231 421.701 285.198 422.034 285.131C422.367 285.065 422.599 284.981 422.732 284.882C422.865 284.782 422.982 284.649 423.082 284.482C423.115 284.416 423.132 283.518 423.132 281.788V279.293H410.209V276.998L417.743 265.473C422.832 257.756 425.41 253.881 425.477 253.847C425.543 253.781 425.892 253.748 426.524 253.748H427.422L427.722 254.047V276.998H432.312V279.293H427.722V281.838C427.722 283.202 427.722 284 427.722 284.233C427.722 284.466 427.822 284.665 428.021 284.832C428.287 285.065 429.235 285.198 430.865 285.231H432.312V287.526H431.863ZM423.431 276.998V260.334L412.504 276.948L417.943 276.998H423.431Z" fill="white"/>
</g>
<g id="Group_48">
<path id="Vector_52" d="M438.449 275.053C438.449 272.758 438.616 270.579 438.948 268.517C439.281 266.454 439.663 264.675 440.096 263.178C440.528 261.681 441.144 260.218 441.942 258.787C442.74 257.357 443.372 256.243 443.838 255.444C444.303 254.646 445.002 253.781 445.933 252.85C446.865 251.919 447.414 251.353 447.58 251.154C447.746 250.954 448.162 250.605 448.827 250.106H449.476H449.675C450.141 250.106 450.374 250.255 450.374 250.555C450.374 250.655 450.091 251.004 449.526 251.603C448.96 252.201 448.278 253.083 447.48 254.247C446.682 255.411 445.867 256.842 445.035 258.538C444.204 260.234 443.505 262.529 442.94 265.423C442.374 268.317 442.091 271.527 442.091 275.053C442.091 278.579 442.374 281.772 442.94 284.633C443.505 287.493 444.187 289.805 444.985 291.568C445.784 293.331 446.599 294.761 447.43 295.859C448.262 296.956 448.96 297.838 449.526 298.503C450.091 299.168 450.374 299.518 450.374 299.551C450.374 299.85 450.124 300 449.626 300H449.476H448.827L447.43 298.803C444.303 295.975 442.025 292.449 440.595 288.225C439.164 284.001 438.449 279.61 438.449 275.053Z" fill="white"/>
</g>
<g id="Group_49">
<path id="Vector_53" d="M476.223 287.526C475.625 287.426 473.479 287.376 469.787 287.376C465.929 287.376 463.7 287.426 463.101 287.526H462.652V285.231H464.199C464.864 285.231 465.313 285.231 465.546 285.231C465.779 285.231 466.062 285.198 466.394 285.131C466.727 285.065 466.96 284.981 467.093 284.882C467.226 284.782 467.342 284.649 467.442 284.482C467.475 284.416 467.492 283.518 467.492 281.788V279.293H454.569V276.998L462.103 265.473C467.193 257.756 469.77 253.881 469.837 253.847C469.903 253.781 470.253 253.748 470.885 253.748H471.783L472.082 254.047V276.998H476.672V279.293H472.082V281.838C472.082 283.202 472.082 284 472.082 284.233C472.082 284.466 472.182 284.665 472.382 284.832C472.648 285.065 473.596 285.198 475.226 285.231H476.672V287.526H476.223ZM467.791 276.998V260.334L456.864 276.948L462.303 276.998H467.791Z" fill="white"/>
</g>
<g id="Group_50">
<path id="Vector_54" d="M481.112 250.156L481.311 250.106C481.478 250.106 481.644 250.106 481.81 250.106H482.409L483.806 251.303C486.933 254.131 489.211 257.656 490.642 261.881C492.072 266.105 492.787 270.496 492.787 275.053C492.787 277.315 492.621 279.493 492.288 281.589C491.955 283.685 491.573 285.464 491.141 286.928C490.708 288.391 490.093 289.855 489.294 291.318C488.496 292.782 487.864 293.896 487.398 294.661C486.933 295.426 486.251 296.275 485.353 297.206C484.455 298.137 483.922 298.686 483.756 298.852C483.59 299.019 483.207 299.335 482.609 299.8C482.509 299.9 482.442 299.967 482.409 300H481.81C481.544 300 481.361 300 481.261 300C481.162 300 481.079 299.95 481.012 299.85C480.945 299.751 480.896 299.601 480.862 299.401C480.896 299.368 481.079 299.152 481.411 298.753C486.567 293.397 489.145 285.497 489.145 275.053C489.145 264.608 486.567 256.708 481.411 251.353C481.079 250.954 480.896 250.738 480.862 250.705C480.862 250.438 480.945 250.255 481.112 250.156Z" fill="white"/>
</g>
<g id="Group_51">
<path id="Vector_55" d="M511.404 275.701C511.404 275.701 511.404 275.485 511.404 275.053C511.404 274.62 511.637 274.288 512.103 274.055H527.021V266.571L527.071 259.087C527.404 258.654 527.72 258.438 528.019 258.438C528.451 258.438 528.784 258.687 529.017 259.186V274.055H543.885C544.384 274.321 544.634 274.654 544.634 275.053C544.634 275.452 544.384 275.784 543.885 276.051H529.017V290.919C528.751 291.385 528.451 291.618 528.119 291.618H528.019H527.919C527.52 291.618 527.221 291.385 527.021 290.919V276.051H512.103C511.637 275.818 511.404 275.485 511.404 275.053V275.701Z" fill="white"/>
</g>
<g id="Group_52">
<path id="Vector_56" d="M563.955 266.121C563.057 266.121 562.342 265.822 561.81 265.223C561.278 264.625 561.012 263.893 561.012 263.028C561.012 260.666 561.893 258.621 563.656 256.891C565.419 255.161 567.614 254.296 570.242 254.296C573.269 254.296 575.797 255.228 577.826 257.091C579.855 258.953 580.886 261.365 580.92 264.325C580.92 265.756 580.587 267.119 579.922 268.417C579.256 269.714 578.458 270.845 577.527 271.809C576.595 272.774 575.265 274.005 573.535 275.502C572.338 276.533 570.675 278.063 568.546 280.092L565.602 282.886L569.394 282.936C574.616 282.936 577.394 282.853 577.726 282.686C577.959 282.62 578.358 281.14 578.924 278.246V278.096H580.92V278.246C580.886 278.345 580.67 279.859 580.271 282.786C579.872 285.713 579.622 287.243 579.522 287.376V287.526H561.012V286.578V285.979C561.012 285.746 561.112 285.497 561.311 285.231C561.511 284.965 562.01 284.383 562.808 283.485C563.773 282.42 564.604 281.489 565.303 280.69C565.602 280.358 566.167 279.743 566.999 278.844C567.831 277.946 568.396 277.331 568.695 276.998C568.995 276.666 569.477 276.117 570.142 275.352C570.808 274.587 571.273 274.021 571.539 273.655C571.805 273.29 572.188 272.791 572.687 272.159C573.186 271.527 573.535 270.994 573.735 270.562C573.934 270.13 574.184 269.647 574.483 269.115C574.783 268.583 574.999 268.051 575.132 267.518C575.265 266.986 575.381 266.487 575.481 266.022C575.581 265.556 575.631 265.007 575.631 264.375C575.631 262.28 575.065 260.467 573.934 258.937C572.803 257.407 571.19 256.641 569.095 256.641C567.997 256.641 567.032 256.924 566.201 257.49C565.369 258.055 564.787 258.604 564.454 259.136C564.122 259.668 563.955 259.984 563.955 260.084C563.955 260.117 564.039 260.134 564.205 260.134C564.804 260.134 565.419 260.367 566.051 260.833C566.683 261.298 566.999 262.063 566.999 263.128C566.999 263.959 566.733 264.658 566.201 265.223C565.669 265.789 564.92 266.088 563.955 266.121Z" fill="white"/>
</g>
<g id="Group_53">
<path id="Vector_57" d="M600.114 270.214C600.114 269.781 600.347 269.449 600.813 269.216H632.595C633.094 269.482 633.344 269.814 633.344 270.214C633.344 270.58 633.111 270.896 632.645 271.162L616.779 271.212H600.913C600.38 271.045 600.114 270.713 600.114 270.214ZM600.114 279.893C600.114 279.394 600.38 279.062 600.913 278.895H632.645C633.111 279.228 633.344 279.56 633.344 279.893C633.344 280.326 633.094 280.658 632.595 280.891H600.813C600.347 280.658 600.114 280.326 600.114 279.893Z" fill="white"/>
</g>
<g id="Group_54">
<path id="Vector_58" d="M660.63 258.687L659.981 258.937C659.515 259.103 658.85 259.269 657.985 259.436C657.121 259.602 656.156 259.718 655.092 259.785H654.144V257.49H655.092C656.655 257.423 658.102 257.174 659.432 256.741C660.763 256.309 661.694 255.91 662.226 255.544C662.759 255.178 663.224 254.812 663.623 254.446C663.69 254.346 663.89 254.296 664.222 254.296C664.522 254.296 664.804 254.396 665.07 254.596V269.514L665.12 284.482C665.353 284.715 665.553 284.865 665.719 284.932C665.885 284.998 666.284 285.065 666.916 285.131C667.548 285.198 668.58 285.231 670.01 285.231H671.307V287.526H670.758C670.06 287.426 667.415 287.376 662.825 287.376C658.301 287.376 655.69 287.426 654.992 287.526H654.393V285.231H655.69C656.422 285.231 657.054 285.231 657.586 285.231C658.118 285.231 658.534 285.214 658.834 285.181C659.133 285.148 659.399 285.098 659.632 285.031C659.865 284.965 659.998 284.932 660.031 284.932C660.064 284.932 660.164 284.848 660.33 284.682C660.497 284.516 660.597 284.449 660.63 284.482V258.687Z" fill="white"/>
<path id="Vector_59" d="M678.443 266.72C678.443 266.72 678.443 265.439 678.443 262.878C678.443 260.317 679.341 258.255 681.137 256.691C682.933 255.128 684.996 254.33 687.324 254.296C689.686 254.296 691.781 254.995 693.611 256.392C695.44 257.789 696.355 259.602 696.355 261.83C696.355 262.828 696.172 263.76 695.806 264.625C695.44 265.489 695.008 266.188 694.509 266.72C694.01 267.252 693.494 267.718 692.962 268.117C692.43 268.516 691.997 268.816 691.665 269.015C691.332 269.215 691.149 269.348 691.116 269.414L691.814 269.863C692.28 270.196 692.746 270.529 693.212 270.861C693.677 271.194 693.943 271.377 694.01 271.41C696.505 273.373 697.752 275.851 697.752 278.844C697.752 281.472 696.787 283.751 694.858 285.68C692.929 287.609 690.434 288.59 687.374 288.624C684.38 288.624 681.919 287.775 679.99 286.079C678.06 284.383 677.096 282.287 677.096 279.792C677.096 276.2 679.241 273.206 683.532 270.811L682.634 270.163C681.935 269.73 681.486 269.398 681.287 269.165C679.391 267.535 678.443 265.439 678.443 262.878V266.72ZM689.22 268.267L689.519 268.067C689.719 267.934 689.869 267.834 689.968 267.768C690.068 267.701 690.235 267.585 690.467 267.419C690.7 267.252 690.9 267.086 691.066 266.92C691.232 266.753 691.415 266.554 691.615 266.321C691.814 266.088 691.997 265.872 692.164 265.672C692.33 265.473 692.496 265.207 692.663 264.874C692.829 264.541 692.979 264.259 693.112 264.026C693.245 263.793 693.328 263.46 693.361 263.028C693.394 262.596 693.428 262.23 693.461 261.93C693.461 260.5 692.979 259.286 692.014 258.288C691.049 257.29 689.935 256.658 688.671 256.392C688.438 256.359 687.889 256.342 687.025 256.342C685.661 256.342 684.38 256.775 683.183 257.639C681.985 258.504 681.37 259.585 681.337 260.882C681.337 261.648 681.553 262.346 681.985 262.978C682.418 263.61 682.85 264.092 683.283 264.425C683.715 264.758 684.547 265.29 685.777 266.022C686.01 266.188 686.193 266.304 686.326 266.371L689.22 268.267ZM687.424 286.478C689.353 286.478 691.016 285.913 692.413 284.782C693.81 283.651 694.509 282.287 694.509 280.69C694.509 280.125 694.426 279.593 694.259 279.094C694.093 278.595 693.893 278.179 693.661 277.847C693.428 277.514 693.062 277.148 692.563 276.749C692.064 276.35 691.681 276.05 691.415 275.851C691.149 275.651 690.667 275.335 689.968 274.903C689.27 274.47 688.821 274.188 688.621 274.055C688.156 273.755 687.657 273.439 687.124 273.107C686.592 272.774 686.16 272.491 685.827 272.258L685.428 272.009C685.228 272.009 684.746 272.292 683.981 272.857C683.216 273.423 682.418 274.337 681.586 275.601C680.755 276.865 680.322 278.229 680.289 279.693C680.289 281.655 681.004 283.268 682.434 284.532C683.865 285.796 685.528 286.445 687.424 286.478Z" fill="white"/>
</g>
<g id="Group_55">
<path id="Vector_60" d="M723.098 257.34C721.867 257.34 720.687 257.191 719.556 256.891C718.425 256.592 717.527 256.293 716.861 255.993C716.196 255.694 715.847 255.544 715.814 255.544C716.246 256.642 716.462 258.189 716.462 260.184C716.462 263.178 715.814 265.59 714.516 267.419C713.219 269.249 711.706 270.18 709.976 270.213C708.08 270.213 706.4 269.298 704.937 267.469C703.473 265.64 702.725 263.211 702.691 260.184C702.691 257.224 703.44 254.813 704.937 252.95C706.433 251.087 708.113 250.139 709.976 250.106C711.273 250.106 712.437 250.621 713.469 251.653C716.362 254.214 719.556 255.494 723.048 255.494C726.907 255.494 730 253.998 732.329 251.004C732.728 250.472 733.027 250.189 733.227 250.156C733.293 250.122 733.376 250.106 733.476 250.106C733.775 250.106 734.025 250.222 734.225 250.455C734.424 250.688 734.507 250.971 734.474 251.303C717.344 277.015 708.645 289.955 708.379 290.121C708.246 290.254 708.08 290.321 707.88 290.321C707.448 290.321 707.149 290.138 706.982 289.772C706.816 289.472 706.816 289.173 706.982 288.874C707.016 288.774 710.691 283.269 718.009 272.359C721.535 267.103 724.229 263.078 726.092 260.284C727.955 257.49 728.886 256.093 728.886 256.093C727.123 256.925 725.194 257.34 723.098 257.34ZM710.225 268.317C711.157 268.317 712.088 267.619 713.02 266.222C713.951 264.825 714.433 262.812 714.466 260.184C714.466 257.889 714.051 255.96 713.219 254.397C712.388 252.833 711.273 252.035 709.876 252.002C709.643 252.002 709.41 252.052 709.178 252.151C708.945 252.251 708.629 252.434 708.23 252.7C707.831 252.966 707.498 253.465 707.232 254.197C706.966 254.929 706.749 255.81 706.583 256.842C706.517 257.507 706.483 258.621 706.483 260.184V261.232C706.483 264.259 707.032 266.321 708.13 267.419C708.729 268.018 709.361 268.317 710.026 268.317H710.225ZM724.844 280.242C724.844 277.315 725.576 274.92 727.04 273.057C728.503 271.194 730.216 270.246 732.179 270.213C733.909 270.213 735.405 271.128 736.669 272.957C737.933 274.787 738.582 277.215 738.615 280.242C738.648 283.269 738 285.697 736.669 287.526C735.339 289.356 733.825 290.287 732.129 290.321C730.266 290.321 728.586 289.389 727.09 287.526C725.593 285.664 724.844 283.236 724.844 280.242ZM732.378 288.425C733.31 288.425 734.241 287.726 735.173 286.329C736.104 284.932 736.586 282.903 736.619 280.242C736.619 277.947 736.204 276.018 735.372 274.454C734.541 272.891 733.426 272.109 732.029 272.109C731.796 272.109 731.564 272.159 731.331 272.259C731.098 272.359 730.782 272.542 730.383 272.808C729.984 273.074 729.651 273.573 729.385 274.305C729.119 275.036 728.902 275.918 728.736 276.949C728.703 277.348 728.686 278.446 728.686 280.242V281.34C728.686 286.063 729.85 288.425 732.179 288.425H732.378Z" fill="white"/>
</g>
</g>
</g>
</g>
</g>
</g>
</svg>
