<svg viewBox="0 0 725 530" fill="none" xmlns="http://www.w3.org/2000/svg">
<g id="1252012">
<rect width="725" height="530" fill="#02071A"/>
<g id="01252012">
<path id="Union" fill-rule="evenodd" clip-rule="evenodd" d="M184.489 403.9V55H182.804V405.436H184.489V405.424H571.234V403.9H184.489Z" fill="white"/>
<path id="0" d="M162.684 399.892C162.684 401.827 162.319 403.264 161.589 404.204C160.858 405.145 159.716 405.615 158.163 405.615C156.629 405.615 155.494 405.157 154.757 404.24C154.02 403.318 153.638 401.943 153.612 400.116V397.91C153.612 396 153.977 394.58 154.708 393.652C155.438 392.724 156.583 392.259 158.143 392.259C159.69 392.259 160.828 392.709 161.559 393.607C162.289 394.5 162.665 395.881 162.684 397.75V399.892ZM160.858 397.634C160.858 396.235 160.641 395.217 160.206 394.58C159.772 393.938 159.084 393.616 158.143 393.616C157.209 393.616 156.527 393.935 156.1 394.572C155.672 395.208 155.451 396.187 155.438 397.509V400.151C155.438 401.556 155.662 402.594 156.11 403.267C156.564 403.934 157.248 404.267 158.163 404.267C159.065 404.267 159.733 403.951 160.167 403.321C160.608 402.69 160.838 401.696 160.858 400.339V397.634Z" fill="white"/>
<path id="2" d="M163.089 359.727H153.671V358.54L158.647 353.54C159.384 352.785 159.891 352.172 160.167 351.701C160.45 351.225 160.592 350.734 160.592 350.228C160.592 349.55 160.364 348.993 159.91 348.559C159.456 348.124 158.851 347.907 158.094 347.907C157.186 347.907 156.478 348.142 155.971 348.612C155.471 349.077 155.221 349.725 155.221 350.559H153.395C153.395 349.362 153.819 348.395 154.668 347.657C155.524 346.919 156.666 346.55 158.094 346.55C159.43 346.55 160.486 346.869 161.263 347.505C162.039 348.136 162.428 348.978 162.428 350.032C162.428 351.312 161.526 352.835 159.723 354.603L155.873 358.379H163.089V359.727Z" fill="white"/>
<g id="Jun&#195;&#173;n">
<path d="M232.615 413.769H234.52V422.973C234.52 424.217 234.106 425.19 233.276 425.892C232.454 426.595 231.355 426.946 229.979 426.946C228.551 426.946 227.439 426.615 226.642 425.955C225.846 425.294 225.448 424.369 225.448 423.178H227.343C227.343 423.922 227.567 424.503 228.015 424.919C228.469 425.336 229.124 425.544 229.979 425.544C230.762 425.544 231.394 425.321 231.875 424.875C232.362 424.428 232.608 423.803 232.615 423V413.769Z" fill="white"/>
<path d="M244.057 425.812C243.346 426.568 242.303 426.946 240.927 426.946C239.789 426.946 238.92 426.648 238.321 426.053C237.729 425.452 237.429 424.565 237.423 423.393V417.108H239.249V423.348C239.249 424.812 239.907 425.544 241.223 425.544C242.619 425.544 243.547 425.074 244.007 424.134V417.108H245.834V426.767H244.096L244.057 425.812Z" fill="white"/>
<path d="M250.345 417.108L250.404 418.322C251.221 417.393 252.287 416.929 253.603 416.929C255.86 416.929 256.999 418.081 257.019 420.384V426.767H255.192V420.375C255.186 419.679 255.008 419.164 254.659 418.831C254.317 418.497 253.781 418.331 253.05 418.331C252.458 418.331 251.938 418.474 251.49 418.759C251.043 419.045 250.694 419.42 250.444 419.884V426.767H248.618V417.108H250.345Z" fill="white"/>
<path d="M261.757 426.767H259.921V417.108H261.757V426.767ZM261.777 413.063H263.988L261.343 415.688H259.872L261.777 413.063Z" fill="white"/>
<path d="M266.496 417.108L266.555 418.322C267.371 417.393 268.437 416.929 269.754 416.929C272.011 416.929 273.15 418.081 273.169 420.384V426.767H271.343V420.375C271.337 419.679 271.159 419.164 270.81 418.831C270.468 418.497 269.931 418.331 269.201 418.331C268.609 418.331 268.089 418.474 267.641 418.759C267.194 419.045 266.845 419.42 266.595 419.884V426.767H264.768V417.108H266.496Z" fill="white"/>
</g>
<g id="Ma&#195;&#173;z">
<path d="M237.465 451.86L242.164 462.466L246.864 451.86H249.322V464.858H247.426V459.796L247.604 454.333L242.885 464.858H241.434L236.725 454.359L236.913 459.796V464.858H235.017V451.86H237.465Z" fill="white"/>
<path d="M258.977 464.858C258.871 464.668 258.786 464.329 258.72 463.84C257.871 464.638 256.857 465.037 255.679 465.037C254.626 465.037 253.761 464.769 253.083 464.233C252.412 463.692 252.076 463.007 252.076 462.18C252.076 461.174 252.497 460.394 253.34 459.841C254.189 459.281 255.38 459.002 256.913 459.002H258.69V458.243C258.69 457.666 258.499 457.207 258.118 456.868C257.736 456.523 257.173 456.35 256.43 456.35C255.778 456.35 255.232 456.499 254.791 456.797C254.35 457.094 254.129 457.454 254.129 457.877H252.293C252.293 457.395 252.481 456.931 252.856 456.484C253.238 456.032 253.751 455.675 254.396 455.413C255.048 455.151 255.762 455.02 256.538 455.02C257.769 455.02 258.733 455.3 259.431 455.859C260.128 456.413 260.49 457.178 260.517 458.154V462.6C260.517 463.486 260.642 464.192 260.892 464.715V464.858H258.977ZM255.946 463.599C256.518 463.599 257.061 463.466 257.575 463.198C258.088 462.93 258.46 462.582 258.69 462.153V460.171H257.259C255.021 460.171 253.902 460.763 253.902 461.948C253.902 462.466 254.093 462.87 254.475 463.162C254.857 463.454 255.347 463.599 255.946 463.599Z" fill="white"/>
<path d="M265.364 464.858H263.528V455.199H265.364V464.858ZM265.384 451.154H267.595L264.949 453.779H263.478L265.384 451.154Z" fill="white"/>
<path d="M270.093 463.51H276.342V464.858H267.861V463.644L273.755 456.565H267.95V455.199H276.045V456.368L270.093 463.51Z" fill="white"/>
</g>
<g id="Arroz">
<path d="M374.371 461.466H368.349L366.997 464.858H365.042L370.531 451.86H372.189L377.688 464.858H375.743L374.371 461.466ZM368.922 460.055H373.808L371.36 453.975L368.922 460.055Z" fill="white"/>
<path d="M384.5 456.681C384.223 456.639 383.924 456.618 383.601 456.618C382.404 456.618 381.591 457.079 381.163 458.002V464.858H379.337V455.199H381.114L381.143 456.315C381.742 455.452 382.591 455.02 383.69 455.02C384.046 455.02 384.316 455.062 384.5 455.145V456.681Z" fill="white"/>
<path d="M391.351 456.681C391.075 456.639 390.775 456.618 390.453 456.618C389.255 456.618 388.442 457.079 388.014 458.002V464.858H386.188V455.199H387.965L387.995 456.315C388.593 455.452 389.442 455.02 390.542 455.02C390.897 455.02 391.167 455.062 391.351 455.145V456.681Z" fill="white"/>
<path d="M392.358 459.939C392.358 458.993 392.562 458.142 392.97 457.386C393.385 456.63 393.957 456.047 394.688 455.636C395.425 455.225 396.264 455.02 397.205 455.02C398.66 455.02 399.834 455.475 400.73 456.386C401.631 457.297 402.082 458.508 402.082 460.019V460.135C402.082 461.076 401.881 461.921 401.48 462.671C401.085 463.415 400.516 463.995 399.772 464.412C399.035 464.828 398.186 465.037 397.225 465.037C395.777 465.037 394.602 464.581 393.701 463.671C392.806 462.76 392.358 461.555 392.358 460.055V459.939ZM394.194 460.135C394.194 461.207 394.467 462.067 395.014 462.716C395.566 463.364 396.304 463.689 397.225 463.689C398.153 463.689 398.89 463.361 399.436 462.707C399.983 462.046 400.256 461.123 400.256 459.939C400.256 458.88 399.976 458.023 399.417 457.368C398.864 456.707 398.127 456.377 397.205 456.377C396.304 456.377 395.576 456.701 395.023 457.35C394.471 457.999 394.194 458.927 394.194 460.135Z" fill="white"/>
<path d="M405.932 463.51H412.181V464.858H403.701V463.644L409.595 456.564H403.79V455.199H411.885V456.368L405.932 463.51Z" fill="white"/>
</g>
<g id="Trigo">
<path d="M507.782 453.27H503.162V464.858H501.277V453.27H496.666V451.86H507.782V453.27Z" fill="white"/>
<path d="M514.041 456.681C513.765 456.639 513.465 456.618 513.143 456.618C511.945 456.618 511.132 457.079 510.704 458.002V464.858H508.878V455.199H510.655L510.685 456.314C511.284 455.451 512.133 455.02 513.232 455.02C513.587 455.02 513.857 455.062 514.041 455.145V456.681Z" fill="white"/>
<path d="M517.714 464.858H515.887V455.199H517.714V464.858ZM515.739 452.636C515.739 452.369 515.828 452.142 516.006 451.958C516.19 451.773 516.46 451.681 516.815 451.681C517.171 451.681 517.44 451.773 517.625 451.958C517.809 452.142 517.901 452.369 517.901 452.636C517.901 452.904 517.809 453.127 517.625 453.306C517.44 453.484 517.171 453.574 516.815 453.574C516.46 453.574 516.19 453.484 516.006 453.306C515.828 453.127 515.739 452.904 515.739 452.636Z" fill="white"/>
<path d="M520.211 459.948C520.211 458.442 520.596 457.246 521.366 456.359C522.136 455.466 523.156 455.02 524.427 455.02C525.73 455.02 526.747 455.437 527.477 456.27L527.566 455.199H529.234V464.626C529.234 465.876 528.823 466.861 528 467.581C527.184 468.301 526.085 468.661 524.703 468.661C523.933 468.661 523.179 468.513 522.442 468.215C521.705 467.917 521.142 467.51 520.754 466.992L521.702 466.001C522.485 466.876 523.443 467.313 524.575 467.313C525.463 467.313 526.154 467.087 526.648 466.635C527.148 466.182 527.398 465.546 527.398 464.724V463.894C526.668 464.656 525.67 465.037 524.407 465.037C523.156 465.037 522.143 464.581 521.366 463.671C520.596 462.76 520.211 461.519 520.211 459.948ZM522.047 460.135C522.047 461.225 522.294 462.082 522.788 462.707C523.281 463.326 523.972 463.635 524.861 463.635C526.013 463.635 526.858 463.162 527.398 462.216V457.805C526.839 456.883 526 456.422 524.881 456.422C523.992 456.422 523.298 456.734 522.798 457.359C522.297 457.984 522.047 458.909 522.047 460.135Z" fill="white"/>
<path d="M531.515 459.939C531.515 458.993 531.719 458.142 532.127 457.386C532.541 456.63 533.114 456.047 533.845 455.636C534.582 455.225 535.421 455.02 536.362 455.02C537.816 455.02 538.991 455.475 539.886 456.386C540.788 457.297 541.239 458.508 541.239 460.019V460.135C541.239 461.076 541.038 461.921 540.636 462.671C540.242 463.415 539.672 463.995 538.929 464.412C538.192 464.828 537.343 465.037 536.382 465.037C534.934 465.037 533.759 464.581 532.857 463.671C531.962 462.76 531.515 461.555 531.515 460.055V459.939ZM533.351 460.135C533.351 461.207 533.624 462.067 534.17 462.716C534.723 463.364 535.46 463.689 536.382 463.689C537.31 463.689 538.047 463.361 538.593 462.707C539.139 462.046 539.412 461.123 539.412 459.939C539.412 458.88 539.133 458.023 538.573 457.368C538.02 456.707 537.283 456.377 536.362 456.377C535.46 456.377 534.733 456.701 534.18 457.35C533.627 457.999 533.351 458.927 533.351 460.135Z" fill="white"/>
</g>
<g id="Pasco">
<path d="M361.59 421.679V426.767H359.695V413.769H364.996C366.569 413.769 367.8 414.132 368.688 414.858C369.583 415.584 370.031 416.545 370.031 417.742C370.031 419.003 369.593 419.976 368.718 420.661C367.849 421.339 366.602 421.679 364.976 421.679H361.59ZM361.59 420.277H364.996C366.009 420.277 366.786 420.063 367.326 419.634C367.865 419.2 368.135 418.575 368.135 417.759C368.135 416.986 367.865 416.367 367.326 415.902C366.786 415.438 366.046 415.197 365.104 415.179H361.59V420.277Z" fill="white"/>
<path d="M378.639 426.767C378.534 426.577 378.448 426.238 378.382 425.75C377.533 426.547 376.52 426.946 375.342 426.946C374.289 426.946 373.423 426.678 372.745 426.142C372.074 425.601 371.739 424.916 371.739 424.089C371.739 423.083 372.16 422.303 373.002 421.75C373.851 421.191 375.042 420.911 376.576 420.911H378.353V420.152C378.353 419.575 378.162 419.116 377.78 418.777C377.398 418.432 376.836 418.259 376.092 418.259C375.441 418.259 374.894 418.408 374.453 418.706C374.012 419.003 373.792 419.363 373.792 419.786H371.956C371.956 419.304 372.143 418.84 372.518 418.393C372.9 417.941 373.413 417.584 374.058 417.322C374.71 417.06 375.424 416.929 376.201 416.929C377.431 416.929 378.396 417.209 379.093 417.768C379.791 418.322 380.153 419.087 380.179 420.063V424.509C380.179 425.395 380.304 426.101 380.554 426.624V426.767H378.639ZM375.608 425.508C376.181 425.508 376.724 425.375 377.237 425.107C377.751 424.839 378.122 424.491 378.353 424.062V422.08H376.921C374.684 422.08 373.565 422.672 373.565 423.857C373.565 424.375 373.756 424.779 374.137 425.071C374.519 425.363 375.009 425.508 375.608 425.508Z" fill="white"/>
<path d="M389.261 424.205C389.261 423.759 389.074 423.413 388.699 423.169C388.33 422.919 387.682 422.705 386.754 422.527C385.833 422.348 385.099 422.134 384.552 421.884C384.013 421.634 383.611 421.336 383.348 420.991C383.091 420.646 382.963 420.235 382.963 419.759C382.963 418.968 383.332 418.298 384.069 417.75C384.812 417.203 385.76 416.929 386.912 416.929C388.123 416.929 389.103 417.212 389.854 417.777C390.611 418.343 390.989 419.066 390.989 419.947H389.153C389.153 419.494 388.939 419.104 388.511 418.777C388.09 418.45 387.557 418.286 386.912 418.286C386.247 418.286 385.727 418.417 385.352 418.679C384.977 418.941 384.789 419.283 384.789 419.706C384.789 420.104 384.964 420.405 385.313 420.607C385.661 420.81 386.29 421.003 387.198 421.188C388.113 421.372 388.853 421.592 389.419 421.848C389.985 422.104 390.403 422.414 390.673 422.777C390.95 423.134 391.088 423.571 391.088 424.089C391.088 424.952 390.706 425.645 389.943 426.169C389.179 426.687 388.189 426.946 386.971 426.946C386.116 426.946 385.359 426.809 384.701 426.535C384.042 426.261 383.526 425.88 383.151 425.392C382.782 424.898 382.598 424.366 382.598 423.794H384.424C384.457 424.348 384.701 424.788 385.155 425.116C385.615 425.437 386.221 425.598 386.971 425.598C387.662 425.598 388.215 425.473 388.63 425.223C389.051 424.967 389.261 424.628 389.261 424.205Z" fill="white"/>
<path d="M397.751 425.598C398.403 425.598 398.972 425.419 399.459 425.062C399.946 424.705 400.216 424.259 400.269 423.723H401.996C401.963 424.276 401.753 424.803 401.365 425.303C400.976 425.803 400.456 426.202 399.805 426.499C399.16 426.797 398.475 426.946 397.751 426.946C396.297 426.946 395.139 426.508 394.276 425.633C393.421 424.753 392.993 423.55 392.993 422.027V421.75C392.993 420.81 393.184 419.973 393.566 419.241C393.947 418.509 394.494 417.941 395.204 417.536C395.922 417.131 396.767 416.929 397.742 416.929C398.939 416.929 399.933 417.253 400.723 417.902C401.519 418.551 401.944 419.393 401.996 420.429H400.269C400.216 419.804 399.953 419.292 399.479 418.893C399.012 418.488 398.433 418.286 397.742 418.286C396.814 418.286 396.093 418.59 395.58 419.197C395.073 419.798 394.819 420.67 394.819 421.812V422.125C394.819 423.238 395.073 424.095 395.58 424.696C396.086 425.297 396.81 425.598 397.751 425.598Z" fill="white"/>
<path d="M403.566 421.848C403.566 420.902 403.77 420.051 404.178 419.295C404.593 418.539 405.165 417.956 405.896 417.545C406.633 417.134 407.472 416.929 408.413 416.929C409.868 416.929 411.042 417.384 411.938 418.295C412.839 419.206 413.29 420.417 413.29 421.929V422.045C413.29 422.985 413.089 423.83 412.688 424.58C412.293 425.324 411.724 425.904 410.98 426.321C410.243 426.738 409.394 426.946 408.433 426.946C406.985 426.946 405.81 426.491 404.909 425.58C404.014 424.669 403.566 423.464 403.566 421.964V421.848ZM405.402 422.045C405.402 423.116 405.675 423.976 406.222 424.625C406.774 425.273 407.512 425.598 408.433 425.598C409.361 425.598 410.098 425.27 410.644 424.616C411.191 423.955 411.464 423.033 411.464 421.848C411.464 420.789 411.184 419.932 410.625 419.277C410.072 418.616 409.335 418.286 408.413 418.286C407.512 418.286 406.784 418.61 406.231 419.259C405.679 419.908 405.402 420.836 405.402 422.045Z" fill="white"/>
</g>
<g id="Piura">
<path d="M496.377 421.679V426.767H494.481V413.769H499.783C501.356 413.769 502.586 414.132 503.475 414.858C504.37 415.584 504.817 416.545 504.817 417.742C504.817 419.003 504.38 419.976 503.504 420.661C502.636 421.339 501.388 421.679 499.763 421.679H496.377ZM496.377 420.277H499.783C500.796 420.277 501.573 420.063 502.112 419.634C502.652 419.2 502.922 418.575 502.922 417.759C502.922 416.986 502.652 416.367 502.112 415.902C501.573 415.438 500.832 415.197 499.891 415.179H496.377V420.277Z" fill="white"/>
<path d="M508.934 426.767H507.108V417.108H508.934V426.767ZM506.96 414.545C506.96 414.278 507.048 414.051 507.226 413.867C507.41 413.682 507.68 413.59 508.036 413.59C508.391 413.59 508.661 413.682 508.845 413.867C509.029 414.051 509.122 414.278 509.122 414.545C509.122 414.813 509.029 415.036 508.845 415.215C508.661 415.394 508.391 415.483 508.036 415.483C507.68 415.483 507.41 415.394 507.226 415.215C507.048 415.036 506.96 414.813 506.96 414.545Z" fill="white"/>
<path d="M518.461 425.812C517.75 426.568 516.707 426.946 515.331 426.946C514.193 426.946 513.324 426.648 512.725 426.053C512.133 425.452 511.833 424.565 511.827 423.393V417.108H513.653V423.348C513.653 424.812 514.311 425.544 515.627 425.544C517.023 425.544 517.951 425.074 518.411 424.134V417.108H520.238V426.767H518.5L518.461 425.812Z" fill="white"/>
<path d="M528.185 418.59C527.908 418.548 527.609 418.527 527.286 418.527C526.088 418.527 525.276 418.988 524.848 419.911V426.767H523.021V417.108H524.798L524.828 418.224C525.427 417.361 526.276 416.929 527.375 416.929C527.73 416.929 528 416.971 528.185 417.054V418.59Z" fill="white"/>
<path d="M536.072 426.767C535.967 426.577 535.881 426.238 535.816 425.75C534.967 426.547 533.953 426.946 532.775 426.946C531.722 426.946 530.857 426.678 530.179 426.142C529.507 425.601 529.172 424.916 529.172 424.089C529.172 423.083 529.593 422.304 530.435 421.75C531.284 421.191 532.476 420.911 534.009 420.911H535.786V420.152C535.786 419.575 535.595 419.116 535.213 418.777C534.832 418.432 534.269 418.259 533.525 418.259C532.874 418.259 532.328 418.408 531.887 418.706C531.446 419.003 531.225 419.363 531.225 419.786H529.389C529.389 419.304 529.577 418.84 529.952 418.393C530.333 417.941 530.847 417.584 531.492 417.322C532.143 417.06 532.857 416.929 533.634 416.929C534.865 416.929 535.829 417.209 536.526 417.768C537.224 418.322 537.586 419.087 537.612 420.063V424.509C537.612 425.395 537.737 426.101 537.988 426.624V426.767H536.072ZM533.042 425.508C533.614 425.508 534.157 425.375 534.67 425.107C535.184 424.839 535.556 424.491 535.786 424.062V422.08H534.355C532.117 422.08 530.998 422.673 530.998 423.857C530.998 424.375 531.189 424.779 531.571 425.071C531.952 425.363 532.443 425.508 533.042 425.508Z" fill="white"/>
</g>
<path id="4" d="M161.381 309.653H163.376V311.001H161.381V314.018H159.545V311.001H153V310.028L159.437 301.02H161.381V309.653ZM155.073 309.653H159.545V303.278L159.328 303.635L155.073 309.653Z" fill="white"/>
<path id="5" d="M154.51 277.028L155.241 270.547H162.605V272.074H156.791L156.356 275.618C157.061 275.243 157.86 275.055 158.755 275.055C160.065 275.055 161.105 275.448 161.875 276.234C162.645 277.013 163.03 278.07 163.03 279.403C163.03 280.742 162.628 281.799 161.825 282.572C161.029 283.34 159.914 283.724 158.479 283.724C157.209 283.724 156.172 283.406 155.369 282.769C154.566 282.132 154.109 281.251 153.997 280.126H155.725C155.836 280.87 156.129 281.433 156.603 281.814C157.077 282.188 157.702 282.376 158.479 282.376C159.328 282.376 159.993 282.114 160.473 281.59C160.96 281.067 161.204 280.343 161.204 279.421C161.204 278.552 160.94 277.856 160.414 277.332C159.894 276.802 159.2 276.537 158.331 276.537C157.534 276.537 156.909 276.695 156.455 277.01L155.971 277.368L154.51 277.028Z" fill="white"/>
<path id="6" d="M160.838 240.065V241.467H160.503C159.081 241.491 157.949 241.872 157.107 242.61C156.264 243.348 155.777 244.386 155.646 245.725C156.402 244.94 157.436 244.547 158.745 244.547C159.996 244.547 160.993 244.946 161.737 245.743C162.487 246.541 162.862 247.57 162.862 248.832C162.862 250.171 162.457 251.243 161.648 252.046C160.845 252.85 159.766 253.251 158.41 253.251C157.034 253.251 155.919 252.775 155.063 251.823C154.208 250.865 153.78 249.633 153.78 248.127V247.493C153.78 245.1 154.342 243.273 155.468 242.011C156.6 240.744 158.281 240.095 160.513 240.065H160.838ZM158.439 245.922C157.814 245.922 157.238 246.091 156.712 246.431C156.185 246.77 155.82 247.195 155.616 247.707V248.314C155.616 249.386 155.883 250.249 156.416 250.903C156.949 251.558 157.613 251.885 158.41 251.885C159.232 251.885 159.877 251.612 160.345 251.064C160.819 250.516 161.055 249.799 161.055 248.913C161.055 248.02 160.815 247.3 160.335 246.752C159.861 246.199 159.229 245.922 158.439 245.922Z" fill="white"/>
<path id="8" d="M162.388 197.758C162.388 198.406 162.198 198.984 161.816 199.49C161.441 199.995 160.931 200.391 160.286 200.677C161.036 200.969 161.628 201.394 162.063 201.954C162.504 202.513 162.724 203.147 162.724 203.855C162.724 204.98 162.303 205.876 161.46 206.542C160.625 207.209 159.522 207.542 158.153 207.542C156.771 207.542 155.662 207.209 154.826 206.542C153.997 205.87 153.583 204.974 153.583 203.855C153.583 203.153 153.793 202.519 154.214 201.954C154.642 201.388 155.231 200.96 155.981 200.668C155.343 200.382 154.84 199.987 154.471 199.481C154.102 198.975 153.918 198.4 153.918 197.758C153.918 196.662 154.306 195.794 155.083 195.151C155.86 194.508 156.883 194.187 158.153 194.187C159.417 194.187 160.437 194.508 161.214 195.151C161.997 195.794 162.388 196.662 162.388 197.758ZM160.898 203.819C160.898 203.093 160.641 202.501 160.128 202.043C159.621 201.585 158.956 201.355 158.134 201.355C157.311 201.355 156.649 201.582 156.149 202.034C155.656 202.486 155.409 203.081 155.409 203.819C155.409 204.557 155.649 205.138 156.13 205.56C156.617 205.983 157.291 206.194 158.153 206.194C159.009 206.194 159.68 205.983 160.167 205.56C160.654 205.132 160.898 204.551 160.898 203.819ZM158.153 195.544C157.436 195.544 156.853 195.746 156.406 196.151C155.965 196.549 155.745 197.094 155.745 197.784C155.745 198.445 155.962 198.981 156.396 199.391C156.837 199.796 157.423 199.998 158.153 199.998C158.884 199.998 159.466 199.796 159.901 199.391C160.342 198.981 160.562 198.445 160.562 197.784C160.562 197.124 160.335 196.585 159.881 196.168C159.427 195.752 158.851 195.544 158.153 195.544Z" fill="white"/>
<g id="10">
<path d="M159.673 161.655H157.837V150.647L154.155 151.87V150.37L159.387 148.594H159.673V161.655Z" fill="white"/>
<path d="M174.037 156.111C174.037 158.045 173.672 159.482 172.941 160.423C172.211 161.363 171.069 161.833 169.516 161.833C167.982 161.833 166.847 161.375 166.11 160.458C165.373 159.536 164.991 158.161 164.965 156.334V154.129C164.965 152.218 165.33 150.799 166.061 149.87C166.791 148.942 167.936 148.477 169.496 148.477C171.043 148.477 172.181 148.927 172.912 149.826C173.642 150.718 174.017 152.099 174.037 153.968V156.111ZM172.211 153.852C172.211 152.453 171.994 151.435 171.559 150.799C171.125 150.156 170.437 149.834 169.496 149.834C168.562 149.834 167.88 150.153 167.453 150.79C167.025 151.427 166.804 152.406 166.791 153.727V156.369C166.791 157.774 167.015 158.813 167.462 159.485C167.917 160.152 168.601 160.485 169.516 160.485C170.417 160.485 171.085 160.17 171.52 159.539C171.961 158.908 172.191 157.914 172.211 156.557V153.852Z" fill="white"/>
</g>
<g id="11">
<path d="M159.673 131.182H157.837V120.174L154.155 121.397V119.897L159.387 118.121H159.673V131.182Z" fill="white"/>
<path d="M171.026 131.182H169.19V120.174L165.508 121.397V119.897L170.74 118.121H171.026V131.182Z" fill="white"/>
</g>
<g id="12">
<path d="M159.673 100.709H157.837V89.7014L154.155 90.9245V89.4247L159.387 87.6481H159.673V100.709Z" fill="white"/>
<path d="M174.442 100.709H165.024V99.5217L170 94.5223C170.737 93.7664 171.243 93.1534 171.52 92.6832C171.803 92.2071 171.944 91.7161 171.944 91.2102C171.944 90.5317 171.717 89.9752 171.263 89.5407C170.809 89.1062 170.204 88.889 169.447 88.889C168.539 88.889 167.831 89.1241 167.324 89.5943C166.824 90.0585 166.574 90.7072 166.574 91.5405H164.748C164.748 90.3442 165.172 89.377 166.021 88.639C166.877 87.901 168.019 87.532 169.447 87.532C170.783 87.532 171.839 87.8504 172.616 88.4873C173.392 89.1181 173.781 89.9603 173.781 91.0138C173.781 92.2934 172.879 93.817 171.076 95.5847L167.226 99.361H174.442V100.709Z" fill="white"/>
</g>
<path id="Line 14 (Stroke)" fill-rule="evenodd" clip-rule="evenodd" d="M182.804 360.489C182.804 360.068 183.181 359.727 183.646 359.727H187.84C188.305 359.727 188.682 360.068 188.682 360.489C188.682 360.91 188.305 361.251 187.84 361.251H183.646C183.181 361.251 182.804 360.91 182.804 360.489ZM195.385 360.489C195.385 360.068 195.762 359.727 196.227 359.727H204.615C205.08 359.727 205.457 360.068 205.457 360.489C205.457 360.91 205.08 361.251 204.615 361.251H196.227C195.762 361.251 195.385 360.91 195.385 360.489ZM212.16 360.489C212.16 360.068 212.537 359.727 213.002 359.727H221.39C221.855 359.727 222.232 360.068 222.232 360.489C222.232 360.91 221.855 361.251 221.39 361.251H213.002C212.537 361.251 212.16 360.91 212.16 360.489ZM228.935 360.489C228.935 360.068 229.312 359.727 229.778 359.727H238.165C238.63 359.727 239.008 360.068 239.008 360.489C239.008 360.91 238.63 361.251 238.165 361.251H229.778C229.312 361.251 228.935 360.91 228.935 360.489ZM245.71 360.489C245.71 360.068 246.087 359.727 246.553 359.727H254.94C255.405 359.727 255.783 360.068 255.783 360.489C255.783 360.91 255.405 361.251 254.94 361.251H246.553C246.087 361.251 245.71 360.91 245.71 360.489ZM262.485 360.489C262.485 360.068 262.862 359.727 263.328 359.727H271.715C272.18 359.727 272.558 360.068 272.558 360.489C272.558 360.91 272.18 361.251 271.715 361.251H263.328C262.862 361.251 262.485 360.91 262.485 360.489ZM279.26 360.489C279.26 360.068 279.638 359.727 280.103 359.727H288.49C288.956 359.727 289.333 360.068 289.333 360.489C289.333 360.91 288.956 361.251 288.49 361.251H280.103C279.638 361.251 279.26 360.91 279.26 360.489ZM296.035 360.489C296.035 360.068 296.413 359.727 296.878 359.727H305.265C305.731 359.727 306.108 360.068 306.108 360.489C306.108 360.91 305.731 361.251 305.265 361.251H296.878C296.413 361.251 296.035 360.91 296.035 360.489ZM312.811 360.489C312.811 360.068 313.188 359.727 313.653 359.727H322.04C322.506 359.727 322.883 360.068 322.883 360.489C322.883 360.91 322.506 361.251 322.04 361.251H313.653C313.188 361.251 312.811 360.91 312.811 360.489ZM329.586 360.489C329.586 360.068 329.963 359.727 330.428 359.727H338.816C339.281 359.727 339.658 360.068 339.658 360.489C339.658 360.91 339.281 361.251 338.816 361.251H330.428C329.963 361.251 329.586 360.91 329.586 360.489ZM346.361 360.489C346.361 360.068 346.738 359.727 347.203 359.727H355.591C356.056 359.727 356.433 360.068 356.433 360.489C356.433 360.91 356.056 361.251 355.591 361.251H347.203C346.738 361.251 346.361 360.91 346.361 360.489ZM363.136 360.489C363.136 360.068 363.513 359.727 363.978 359.727H372.366C372.831 359.727 373.208 360.068 373.208 360.489C373.208 360.91 372.831 361.251 372.366 361.251H363.978C363.513 361.251 363.136 360.91 363.136 360.489ZM379.911 360.489C379.911 360.068 380.288 359.727 380.753 359.727H389.141C389.606 359.727 389.983 360.068 389.983 360.489C389.983 360.91 389.606 361.251 389.141 361.251H380.753C380.288 361.251 379.911 360.91 379.911 360.489ZM396.686 360.489C396.686 360.068 397.063 359.727 397.528 359.727H405.916C406.381 359.727 406.758 360.068 406.758 360.489C406.758 360.91 406.381 361.251 405.916 361.251H397.528C397.063 361.251 396.686 360.91 396.686 360.489ZM413.461 360.489C413.461 360.068 413.838 359.727 414.303 359.727H422.691C423.156 359.727 423.533 360.068 423.533 360.489C423.533 360.91 423.156 361.251 422.691 361.251H414.303C413.838 361.251 413.461 360.91 413.461 360.489ZM430.236 360.489C430.236 360.068 430.613 359.727 431.078 359.727H439.466C439.931 359.727 440.308 360.068 440.308 360.489C440.308 360.91 439.931 361.251 439.466 361.251H431.078C430.613 361.251 430.236 360.91 430.236 360.489ZM447.011 360.489C447.011 360.068 447.388 359.727 447.853 359.727H456.241C456.706 359.727 457.083 360.068 457.083 360.489C457.083 360.91 456.706 361.251 456.241 361.251H447.853C447.388 361.251 447.011 360.91 447.011 360.489ZM463.786 360.489C463.786 360.068 464.163 359.727 464.629 359.727H473.016C473.481 359.727 473.858 360.068 473.858 360.489C473.858 360.91 473.481 361.251 473.016 361.251H464.629C464.163 361.251 463.786 360.91 463.786 360.489ZM480.561 360.489C480.561 360.068 480.938 359.727 481.404 359.727H489.791C490.256 359.727 490.634 360.068 490.634 360.489C490.634 360.91 490.256 361.251 489.791 361.251H481.404C480.938 361.251 480.561 360.91 480.561 360.489ZM497.336 360.489C497.336 360.068 497.713 359.727 498.179 359.727H506.566C507.031 359.727 507.409 360.068 507.409 360.489C507.409 360.91 507.031 361.251 506.566 361.251H498.179C497.713 361.251 497.336 360.91 497.336 360.489ZM514.111 360.489C514.111 360.068 514.488 359.727 514.954 359.727H523.341C523.806 359.727 524.184 360.068 524.184 360.489C524.184 360.91 523.806 361.251 523.341 361.251H514.954C514.488 361.251 514.111 360.91 514.111 360.489ZM530.886 360.489C530.886 360.068 531.264 359.727 531.729 359.727H540.116C540.582 359.727 540.959 360.068 540.959 360.489C540.959 360.91 540.582 361.251 540.116 361.251H531.729C531.264 361.251 530.886 360.91 530.886 360.489ZM547.661 360.489C547.661 360.068 548.039 359.727 548.504 359.727H556.891C557.357 359.727 557.734 360.068 557.734 360.489C557.734 360.91 557.357 361.251 556.891 361.251H548.504C548.039 361.251 547.661 360.91 547.661 360.489ZM564.436 360.489C564.436 360.068 564.814 359.727 565.279 359.727H569.473C569.938 359.727 570.315 360.068 570.315 360.489C570.315 360.91 569.938 361.251 569.473 361.251H565.279C564.814 361.251 564.436 360.91 564.436 360.489Z" fill="white"/>
<path id="Line 15 (Stroke)" fill-rule="evenodd" clip-rule="evenodd" d="M184.489 313.256C184.489 312.836 184.866 312.495 185.331 312.495H189.525C189.99 312.495 190.367 312.836 190.367 313.256C190.367 313.677 189.99 314.018 189.525 314.018H185.331C184.866 314.018 184.489 313.677 184.489 313.256ZM197.07 313.256C197.07 312.836 197.447 312.495 197.912 312.495H206.3C206.765 312.495 207.142 312.836 207.142 313.256C207.142 313.677 206.765 314.018 206.3 314.018H197.912C197.447 314.018 197.07 313.677 197.07 313.256ZM213.845 313.256C213.845 312.836 214.222 312.495 214.687 312.495H223.075C223.54 312.495 223.917 312.836 223.917 313.256C223.917 313.677 223.54 314.018 223.075 314.018H214.687C214.222 314.018 213.845 313.677 213.845 313.256ZM230.62 313.256C230.62 312.836 230.997 312.495 231.462 312.495H239.85C240.315 312.495 240.692 312.836 240.692 313.256C240.692 313.677 240.315 314.018 239.85 314.018H231.462C230.997 314.018 230.62 313.677 230.62 313.256ZM247.395 313.256C247.395 312.836 247.772 312.495 248.237 312.495H256.625C257.09 312.495 257.467 312.836 257.467 313.256C257.467 313.677 257.09 314.018 256.625 314.018H248.237C247.772 314.018 247.395 313.677 247.395 313.256ZM264.17 313.256C264.17 312.836 264.547 312.495 265.013 312.495H273.4C273.865 312.495 274.242 312.836 274.242 313.256C274.242 313.677 273.865 314.018 273.4 314.018H265.013C264.547 314.018 264.17 313.677 264.17 313.256ZM280.945 313.256C280.945 312.836 281.322 312.495 281.788 312.495H290.175C290.64 312.495 291.018 312.836 291.018 313.256C291.018 313.677 290.64 314.018 290.175 314.018H281.788C281.322 314.018 280.945 313.677 280.945 313.256ZM297.72 313.256C297.72 312.836 298.097 312.495 298.563 312.495H306.95C307.415 312.495 307.793 312.836 307.793 313.256C307.793 313.677 307.415 314.018 306.95 314.018H298.563C298.097 314.018 297.72 313.677 297.72 313.256ZM314.495 313.256C314.495 312.836 314.872 312.495 315.338 312.495H323.725C324.191 312.495 324.568 312.836 324.568 313.256C324.568 313.677 324.191 314.018 323.725 314.018H315.338C314.872 314.018 314.495 313.677 314.495 313.256ZM331.27 313.256C331.27 312.836 331.648 312.495 332.113 312.495H340.5C340.966 312.495 341.343 312.836 341.343 313.256C341.343 313.677 340.966 314.018 340.5 314.018H332.113C331.648 314.018 331.27 313.677 331.27 313.256ZM348.045 313.256C348.045 312.836 348.423 312.495 348.888 312.495H357.275C357.741 312.495 358.118 312.836 358.118 313.256C358.118 313.677 357.741 314.018 357.275 314.018H348.888C348.423 314.018 348.045 313.677 348.045 313.256ZM364.821 313.256C364.821 312.836 365.198 312.495 365.663 312.495H374.051C374.516 312.495 374.893 312.836 374.893 313.256C374.893 313.677 374.516 314.018 374.051 314.018H365.663C365.198 314.018 364.821 313.677 364.821 313.256ZM381.596 313.256C381.596 312.836 381.973 312.495 382.438 312.495H390.826C391.291 312.495 391.668 312.836 391.668 313.256C391.668 313.677 391.291 314.018 390.826 314.018H382.438C381.973 314.018 381.596 313.677 381.596 313.256ZM398.371 313.256C398.371 312.836 398.748 312.495 399.213 312.495H407.601C408.066 312.495 408.443 312.836 408.443 313.256C408.443 313.677 408.066 314.018 407.601 314.018H399.213C398.748 314.018 398.371 313.677 398.371 313.256ZM415.146 313.256C415.146 312.836 415.523 312.495 415.988 312.495H424.376C424.841 312.495 425.218 312.836 425.218 313.256C425.218 313.677 424.841 314.018 424.376 314.018H415.988C415.523 314.018 415.146 313.677 415.146 313.256ZM431.921 313.256C431.921 312.836 432.298 312.495 432.763 312.495H441.151C441.616 312.495 441.993 312.836 441.993 313.256C441.993 313.677 441.616 314.018 441.151 314.018H432.763C432.298 314.018 431.921 313.677 431.921 313.256ZM448.696 313.256C448.696 312.836 449.073 312.495 449.538 312.495H457.926C458.391 312.495 458.768 312.836 458.768 313.256C458.768 313.677 458.391 314.018 457.926 314.018H449.538C449.073 314.018 448.696 313.677 448.696 313.256ZM465.471 313.256C465.471 312.836 465.848 312.495 466.313 312.495H474.701C475.166 312.495 475.543 312.836 475.543 313.256C475.543 313.677 475.166 314.018 474.701 314.018H466.313C465.848 314.018 465.471 313.677 465.471 313.256ZM482.246 313.256C482.246 312.836 482.623 312.495 483.088 312.495H491.476C491.941 312.495 492.318 312.836 492.318 313.256C492.318 313.677 491.941 314.018 491.476 314.018H483.088C482.623 314.018 482.246 313.677 482.246 313.256ZM499.021 313.256C499.021 312.836 499.398 312.495 499.863 312.495H508.251C508.716 312.495 509.093 312.836 509.093 313.256C509.093 313.677 508.716 314.018 508.251 314.018H499.863C499.398 314.018 499.021 313.677 499.021 313.256ZM515.796 313.256C515.796 312.836 516.173 312.495 516.639 312.495H525.026C525.491 312.495 525.868 312.836 525.868 313.256C525.868 313.677 525.491 314.018 525.026 314.018H516.639C516.173 314.018 515.796 313.677 515.796 313.256ZM532.571 313.256C532.571 312.836 532.948 312.495 533.414 312.495H541.801C542.266 312.495 542.644 312.836 542.644 313.256C542.644 313.677 542.266 314.018 541.801 314.018H533.414C532.948 314.018 532.571 313.677 532.571 313.256ZM549.346 313.256C549.346 312.836 549.723 312.495 550.189 312.495H558.576C559.041 312.495 559.419 312.836 559.419 313.256C559.419 313.677 559.041 314.018 558.576 314.018H550.189C549.723 314.018 549.346 313.677 549.346 313.256ZM566.121 313.256C566.121 312.836 566.498 312.495 566.964 312.495H571.158C571.623 312.495 572 312.836 572 313.256C572 313.677 571.623 314.018 571.158 314.018H566.964C566.498 314.018 566.121 313.677 566.121 313.256Z" fill="white"/>
<path id="Line 16 (Stroke)" fill-rule="evenodd" clip-rule="evenodd" d="M184.489 287.355C184.489 286.934 184.866 286.593 185.331 286.593H189.525C189.99 286.593 190.367 286.934 190.367 287.355C190.367 287.775 189.99 288.116 189.525 288.116H185.331C184.866 288.116 184.489 287.775 184.489 287.355ZM197.07 287.355C197.07 286.934 197.447 286.593 197.912 286.593H206.3C206.765 286.593 207.142 286.934 207.142 287.355C207.142 287.775 206.765 288.116 206.3 288.116H197.912C197.447 288.116 197.07 287.775 197.07 287.355ZM213.845 287.355C213.845 286.934 214.222 286.593 214.687 286.593H223.075C223.54 286.593 223.917 286.934 223.917 287.355C223.917 287.775 223.54 288.116 223.075 288.116H214.687C214.222 288.116 213.845 287.775 213.845 287.355ZM230.62 287.355C230.62 286.934 230.997 286.593 231.462 286.593H239.85C240.315 286.593 240.692 286.934 240.692 287.355C240.692 287.775 240.315 288.116 239.85 288.116H231.462C230.997 288.116 230.62 287.775 230.62 287.355ZM247.395 287.355C247.395 286.934 247.772 286.593 248.237 286.593H256.625C257.09 286.593 257.467 286.934 257.467 287.355C257.467 287.775 257.09 288.116 256.625 288.116H248.237C247.772 288.116 247.395 287.775 247.395 287.355ZM264.17 287.355C264.17 286.934 264.547 286.593 265.013 286.593H273.4C273.865 286.593 274.242 286.934 274.242 287.355C274.242 287.775 273.865 288.116 273.4 288.116H265.013C264.547 288.116 264.17 287.775 264.17 287.355ZM280.945 287.355C280.945 286.934 281.322 286.593 281.788 286.593H290.175C290.64 286.593 291.018 286.934 291.018 287.355C291.018 287.775 290.64 288.116 290.175 288.116H281.788C281.322 288.116 280.945 287.775 280.945 287.355ZM297.72 287.355C297.72 286.934 298.097 286.593 298.563 286.593H306.95C307.415 286.593 307.793 286.934 307.793 287.355C307.793 287.775 307.415 288.116 306.95 288.116H298.563C298.097 288.116 297.72 287.775 297.72 287.355ZM314.495 287.355C314.495 286.934 314.872 286.593 315.338 286.593H323.725C324.191 286.593 324.568 286.934 324.568 287.355C324.568 287.775 324.191 288.116 323.725 288.116H315.338C314.872 288.116 314.495 287.775 314.495 287.355ZM331.27 287.355C331.27 286.934 331.648 286.593 332.113 286.593H340.5C340.966 286.593 341.343 286.934 341.343 287.355C341.343 287.775 340.966 288.116 340.5 288.116H332.113C331.648 288.116 331.27 287.775 331.27 287.355ZM348.045 287.355C348.045 286.934 348.423 286.593 348.888 286.593H357.275C357.741 286.593 358.118 286.934 358.118 287.355C358.118 287.775 357.741 288.116 357.275 288.116H348.888C348.423 288.116 348.045 287.775 348.045 287.355ZM364.821 287.355C364.821 286.934 365.198 286.593 365.663 286.593H374.051C374.516 286.593 374.893 286.934 374.893 287.355C374.893 287.775 374.516 288.116 374.051 288.116H365.663C365.198 288.116 364.821 287.775 364.821 287.355ZM381.596 287.355C381.596 286.934 381.973 286.593 382.438 286.593H390.826C391.291 286.593 391.668 286.934 391.668 287.355C391.668 287.775 391.291 288.116 390.826 288.116H382.438C381.973 288.116 381.596 287.775 381.596 287.355ZM398.371 287.355C398.371 286.934 398.748 286.593 399.213 286.593H407.601C408.066 286.593 408.443 286.934 408.443 287.355C408.443 287.775 408.066 288.116 407.601 288.116H399.213C398.748 288.116 398.371 287.775 398.371 287.355ZM415.146 287.355C415.146 286.934 415.523 286.593 415.988 286.593H424.376C424.841 286.593 425.218 286.934 425.218 287.355C425.218 287.775 424.841 288.116 424.376 288.116H415.988C415.523 288.116 415.146 287.775 415.146 287.355ZM431.921 287.355C431.921 286.934 432.298 286.593 432.763 286.593H441.151C441.616 286.593 441.993 286.934 441.993 287.355C441.993 287.775 441.616 288.116 441.151 288.116H432.763C432.298 288.116 431.921 287.775 431.921 287.355ZM448.696 287.355C448.696 286.934 449.073 286.593 449.538 286.593H457.926C458.391 286.593 458.768 286.934 458.768 287.355C458.768 287.775 458.391 288.116 457.926 288.116H449.538C449.073 288.116 448.696 287.775 448.696 287.355ZM465.471 287.355C465.471 286.934 465.848 286.593 466.313 286.593H474.701C475.166 286.593 475.543 286.934 475.543 287.355C475.543 287.775 475.166 288.116 474.701 288.116H466.313C465.848 288.116 465.471 287.775 465.471 287.355ZM482.246 287.355C482.246 286.934 482.623 286.593 483.088 286.593H491.476C491.941 286.593 492.318 286.934 492.318 287.355C492.318 287.775 491.941 288.116 491.476 288.116H483.088C482.623 288.116 482.246 287.775 482.246 287.355ZM499.021 287.355C499.021 286.934 499.398 286.593 499.863 286.593H508.251C508.716 286.593 509.093 286.934 509.093 287.355C509.093 287.775 508.716 288.116 508.251 288.116H499.863C499.398 288.116 499.021 287.775 499.021 287.355ZM515.796 287.355C515.796 286.934 516.173 286.593 516.639 286.593H525.026C525.491 286.593 525.868 286.934 525.868 287.355C525.868 287.775 525.491 288.116 525.026 288.116H516.639C516.173 288.116 515.796 287.775 515.796 287.355ZM532.571 287.355C532.571 286.934 532.948 286.593 533.414 286.593H541.801C542.266 286.593 542.644 286.934 542.644 287.355C542.644 287.775 542.266 288.116 541.801 288.116H533.414C532.948 288.116 532.571 287.775 532.571 287.355ZM549.346 287.355C549.346 286.934 549.723 286.593 550.189 286.593H558.576C559.041 286.593 559.419 286.934 559.419 287.355C559.419 287.775 559.041 288.116 558.576 288.116H550.189C549.723 288.116 549.346 287.775 549.346 287.355ZM566.121 287.355C566.121 286.934 566.498 286.593 566.964 286.593H571.158C571.623 286.593 572 286.934 572 287.355C572 287.775 571.623 288.116 571.158 288.116H566.964C566.498 288.116 566.121 287.775 566.121 287.355Z" fill="white"/>
<path id="Line 17 (Stroke)" fill-rule="evenodd" clip-rule="evenodd" d="M184.489 253.835C184.489 253.414 184.866 253.073 185.331 253.073H189.525C189.99 253.073 190.367 253.414 190.367 253.835C190.367 254.255 189.99 254.596 189.525 254.596H185.331C184.866 254.596 184.489 254.255 184.489 253.835ZM197.07 253.835C197.07 253.414 197.447 253.073 197.912 253.073H206.3C206.765 253.073 207.142 253.414 207.142 253.835C207.142 254.255 206.765 254.596 206.3 254.596H197.912C197.447 254.596 197.07 254.255 197.07 253.835ZM213.845 253.835C213.845 253.414 214.222 253.073 214.687 253.073H223.075C223.54 253.073 223.917 253.414 223.917 253.835C223.917 254.255 223.54 254.596 223.075 254.596H214.687C214.222 254.596 213.845 254.255 213.845 253.835ZM230.62 253.835C230.62 253.414 230.997 253.073 231.462 253.073H239.85C240.315 253.073 240.692 253.414 240.692 253.835C240.692 254.255 240.315 254.596 239.85 254.596H231.462C230.997 254.596 230.62 254.255 230.62 253.835ZM247.395 253.835C247.395 253.414 247.772 253.073 248.237 253.073H256.625C257.09 253.073 257.467 253.414 257.467 253.835C257.467 254.255 257.09 254.596 256.625 254.596H248.237C247.772 254.596 247.395 254.255 247.395 253.835ZM264.17 253.835C264.17 253.414 264.547 253.073 265.013 253.073H273.4C273.865 253.073 274.242 253.414 274.242 253.835C274.242 254.255 273.865 254.596 273.4 254.596H265.013C264.547 254.596 264.17 254.255 264.17 253.835ZM280.945 253.835C280.945 253.414 281.322 253.073 281.788 253.073H290.175C290.64 253.073 291.018 253.414 291.018 253.835C291.018 254.255 290.64 254.596 290.175 254.596H281.788C281.322 254.596 280.945 254.255 280.945 253.835ZM297.72 253.835C297.72 253.414 298.097 253.073 298.563 253.073H306.95C307.415 253.073 307.793 253.414 307.793 253.835C307.793 254.255 307.415 254.596 306.95 254.596H298.563C298.097 254.596 297.72 254.255 297.72 253.835ZM314.495 253.835C314.495 253.414 314.872 253.073 315.338 253.073H323.725C324.191 253.073 324.568 253.414 324.568 253.835C324.568 254.255 324.191 254.596 323.725 254.596H315.338C314.872 254.596 314.495 254.255 314.495 253.835ZM331.27 253.835C331.27 253.414 331.648 253.073 332.113 253.073H340.5C340.966 253.073 341.343 253.414 341.343 253.835C341.343 254.255 340.966 254.596 340.5 254.596H332.113C331.648 254.596 331.27 254.255 331.27 253.835ZM348.045 253.835C348.045 253.414 348.423 253.073 348.888 253.073H357.275C357.741 253.073 358.118 253.414 358.118 253.835C358.118 254.255 357.741 254.596 357.275 254.596H348.888C348.423 254.596 348.045 254.255 348.045 253.835ZM364.821 253.835C364.821 253.414 365.198 253.073 365.663 253.073H374.051C374.516 253.073 374.893 253.414 374.893 253.835C374.893 254.255 374.516 254.596 374.051 254.596H365.663C365.198 254.596 364.821 254.255 364.821 253.835ZM381.596 253.835C381.596 253.414 381.973 253.073 382.438 253.073H390.826C391.291 253.073 391.668 253.414 391.668 253.835C391.668 254.255 391.291 254.596 390.826 254.596H382.438C381.973 254.596 381.596 254.255 381.596 253.835ZM398.371 253.835C398.371 253.414 398.748 253.073 399.213 253.073H407.601C408.066 253.073 408.443 253.414 408.443 253.835C408.443 254.255 408.066 254.596 407.601 254.596H399.213C398.748 254.596 398.371 254.255 398.371 253.835ZM415.146 253.835C415.146 253.414 415.523 253.073 415.988 253.073H424.376C424.841 253.073 425.218 253.414 425.218 253.835C425.218 254.255 424.841 254.596 424.376 254.596H415.988C415.523 254.596 415.146 254.255 415.146 253.835ZM431.921 253.835C431.921 253.414 432.298 253.073 432.763 253.073H441.151C441.616 253.073 441.993 253.414 441.993 253.835C441.993 254.255 441.616 254.596 441.151 254.596H432.763C432.298 254.596 431.921 254.255 431.921 253.835ZM448.696 253.835C448.696 253.414 449.073 253.073 449.538 253.073H457.926C458.391 253.073 458.768 253.414 458.768 253.835C458.768 254.255 458.391 254.596 457.926 254.596H449.538C449.073 254.596 448.696 254.255 448.696 253.835ZM465.471 253.835C465.471 253.414 465.848 253.073 466.313 253.073H474.701C475.166 253.073 475.543 253.414 475.543 253.835C475.543 254.255 475.166 254.596 474.701 254.596H466.313C465.848 254.596 465.471 254.255 465.471 253.835ZM482.246 253.835C482.246 253.414 482.623 253.073 483.088 253.073H491.476C491.941 253.073 492.318 253.414 492.318 253.835C492.318 254.255 491.941 254.596 491.476 254.596H483.088C482.623 254.596 482.246 254.255 482.246 253.835ZM499.021 253.835C499.021 253.414 499.398 253.073 499.863 253.073H508.251C508.716 253.073 509.093 253.414 509.093 253.835C509.093 254.255 508.716 254.596 508.251 254.596H499.863C499.398 254.596 499.021 254.255 499.021 253.835ZM515.796 253.835C515.796 253.414 516.173 253.073 516.639 253.073H525.026C525.491 253.073 525.868 253.414 525.868 253.835C525.868 254.255 525.491 254.596 525.026 254.596H516.639C516.173 254.596 515.796 254.255 515.796 253.835ZM532.571 253.835C532.571 253.414 532.948 253.073 533.414 253.073H541.801C542.266 253.073 542.644 253.414 542.644 253.835C542.644 254.255 542.266 254.596 541.801 254.596H533.414C532.948 254.596 532.571 254.255 532.571 253.835ZM549.346 253.835C549.346 253.414 549.723 253.073 550.189 253.073H558.576C559.041 253.073 559.419 253.414 559.419 253.835C559.419 254.255 559.041 254.596 558.576 254.596H550.189C549.723 254.596 549.346 254.255 549.346 253.835ZM566.121 253.835C566.121 253.414 566.498 253.073 566.964 253.073H571.158C571.623 253.073 572 253.414 572 253.835C572 254.255 571.623 254.596 571.158 254.596H566.964C566.498 254.596 566.121 254.255 566.121 253.835Z" fill="white"/>
<path id="Line 18 (Stroke)" fill-rule="evenodd" clip-rule="evenodd" d="M184.489 206.602C184.489 206.181 184.866 205.84 185.331 205.84H189.525C189.99 205.84 190.367 206.181 190.367 206.602C190.367 207.023 189.99 207.364 189.525 207.364H185.331C184.866 207.364 184.489 207.023 184.489 206.602ZM197.07 206.602C197.07 206.181 197.447 205.84 197.912 205.84H206.3C206.765 205.84 207.142 206.181 207.142 206.602C207.142 207.023 206.765 207.364 206.3 207.364H197.912C197.447 207.364 197.07 207.023 197.07 206.602ZM213.845 206.602C213.845 206.181 214.222 205.84 214.687 205.84H223.075C223.54 205.84 223.917 206.181 223.917 206.602C223.917 207.023 223.54 207.364 223.075 207.364H214.687C214.222 207.364 213.845 207.023 213.845 206.602ZM230.62 206.602C230.62 206.181 230.997 205.84 231.462 205.84H239.85C240.315 205.84 240.692 206.181 240.692 206.602C240.692 207.023 240.315 207.364 239.85 207.364H231.462C230.997 207.364 230.62 207.023 230.62 206.602ZM247.395 206.602C247.395 206.181 247.772 205.84 248.237 205.84H256.625C257.09 205.84 257.467 206.181 257.467 206.602C257.467 207.023 257.09 207.364 256.625 207.364H248.237C247.772 207.364 247.395 207.023 247.395 206.602ZM264.17 206.602C264.17 206.181 264.547 205.84 265.013 205.84H273.4C273.865 205.84 274.242 206.181 274.242 206.602C274.242 207.023 273.865 207.364 273.4 207.364H265.013C264.547 207.364 264.17 207.023 264.17 206.602ZM280.945 206.602C280.945 206.181 281.322 205.84 281.788 205.84H290.175C290.64 205.84 291.018 206.181 291.018 206.602C291.018 207.023 290.64 207.364 290.175 207.364H281.788C281.322 207.364 280.945 207.023 280.945 206.602ZM297.72 206.602C297.72 206.181 298.097 205.84 298.563 205.84H306.95C307.415 205.84 307.793 206.181 307.793 206.602C307.793 207.023 307.415 207.364 306.95 207.364H298.563C298.097 207.364 297.72 207.023 297.72 206.602ZM314.495 206.602C314.495 206.181 314.872 205.84 315.338 205.84H323.725C324.191 205.84 324.568 206.181 324.568 206.602C324.568 207.023 324.191 207.364 323.725 207.364H315.338C314.872 207.364 314.495 207.023 314.495 206.602ZM331.27 206.602C331.27 206.181 331.648 205.84 332.113 205.84H340.5C340.966 205.84 341.343 206.181 341.343 206.602C341.343 207.023 340.966 207.364 340.5 207.364H332.113C331.648 207.364 331.27 207.023 331.27 206.602ZM348.045 206.602C348.045 206.181 348.423 205.84 348.888 205.84H357.275C357.741 205.84 358.118 206.181 358.118 206.602C358.118 207.023 357.741 207.364 357.275 207.364H348.888C348.423 207.364 348.045 207.023 348.045 206.602ZM364.821 206.602C364.821 206.181 365.198 205.84 365.663 205.84H374.051C374.516 205.84 374.893 206.181 374.893 206.602C374.893 207.023 374.516 207.364 374.051 207.364H365.663C365.198 207.364 364.821 207.023 364.821 206.602ZM381.596 206.602C381.596 206.181 381.973 205.84 382.438 205.84H390.826C391.291 205.84 391.668 206.181 391.668 206.602C391.668 207.023 391.291 207.364 390.826 207.364H382.438C381.973 207.364 381.596 207.023 381.596 206.602ZM398.371 206.602C398.371 206.181 398.748 205.84 399.213 205.84H407.601C408.066 205.84 408.443 206.181 408.443 206.602C408.443 207.023 408.066 207.364 407.601 207.364H399.213C398.748 207.364 398.371 207.023 398.371 206.602ZM415.146 206.602C415.146 206.181 415.523 205.84 415.988 205.84H424.376C424.841 205.84 425.218 206.181 425.218 206.602C425.218 207.023 424.841 207.364 424.376 207.364H415.988C415.523 207.364 415.146 207.023 415.146 206.602ZM431.921 206.602C431.921 206.181 432.298 205.84 432.763 205.84H441.151C441.616 205.84 441.993 206.181 441.993 206.602C441.993 207.023 441.616 207.364 441.151 207.364H432.763C432.298 207.364 431.921 207.023 431.921 206.602ZM448.696 206.602C448.696 206.181 449.073 205.84 449.538 205.84H457.926C458.391 205.84 458.768 206.181 458.768 206.602C458.768 207.023 458.391 207.364 457.926 207.364H449.538C449.073 207.364 448.696 207.023 448.696 206.602ZM465.471 206.602C465.471 206.181 465.848 205.84 466.313 205.84H474.701C475.166 205.84 475.543 206.181 475.543 206.602C475.543 207.023 475.166 207.364 474.701 207.364H466.313C465.848 207.364 465.471 207.023 465.471 206.602ZM482.246 206.602C482.246 206.181 482.623 205.84 483.088 205.84H491.476C491.941 205.84 492.318 206.181 492.318 206.602C492.318 207.023 491.941 207.364 491.476 207.364H483.088C482.623 207.364 482.246 207.023 482.246 206.602ZM499.021 206.602C499.021 206.181 499.398 205.84 499.863 205.84H508.251C508.716 205.84 509.093 206.181 509.093 206.602C509.093 207.023 508.716 207.364 508.251 207.364H499.863C499.398 207.364 499.021 207.023 499.021 206.602ZM515.796 206.602C515.796 206.181 516.173 205.84 516.639 205.84H525.026C525.491 205.84 525.868 206.181 525.868 206.602C525.868 207.023 525.491 207.364 525.026 207.364H516.639C516.173 207.364 515.796 207.023 515.796 206.602ZM532.571 206.602C532.571 206.181 532.948 205.84 533.414 205.84H541.801C542.266 205.84 542.644 206.181 542.644 206.602C542.644 207.023 542.266 207.364 541.801 207.364H533.414C532.948 207.364 532.571 207.023 532.571 206.602ZM549.346 206.602C549.346 206.181 549.723 205.84 550.189 205.84H558.576C559.041 205.84 559.419 206.181 559.419 206.602C559.419 207.023 559.041 207.364 558.576 207.364H550.189C549.723 207.364 549.346 207.023 549.346 206.602ZM566.121 206.602C566.121 206.181 566.498 205.84 566.964 205.84H571.158C571.623 205.84 572 206.181 572 206.602C572 207.023 571.623 207.364 571.158 207.364H566.964C566.498 207.364 566.121 207.023 566.121 206.602Z" fill="white"/>
<path id="Line 19 (Stroke)" fill-rule="evenodd" clip-rule="evenodd" d="M184.489 162.416C184.489 161.996 184.866 161.655 185.331 161.655H189.525C189.99 161.655 190.367 161.996 190.367 162.416C190.367 162.837 189.99 163.178 189.525 163.178H185.331C184.866 163.178 184.489 162.837 184.489 162.416ZM197.07 162.416C197.07 161.996 197.447 161.655 197.912 161.655H206.3C206.765 161.655 207.142 161.996 207.142 162.416C207.142 162.837 206.765 163.178 206.3 163.178H197.912C197.447 163.178 197.07 162.837 197.07 162.416ZM213.845 162.416C213.845 161.996 214.222 161.655 214.687 161.655H223.075C223.54 161.655 223.917 161.996 223.917 162.416C223.917 162.837 223.54 163.178 223.075 163.178H214.687C214.222 163.178 213.845 162.837 213.845 162.416ZM230.62 162.416C230.62 161.996 230.997 161.655 231.462 161.655H239.85C240.315 161.655 240.692 161.996 240.692 162.416C240.692 162.837 240.315 163.178 239.85 163.178H231.462C230.997 163.178 230.62 162.837 230.62 162.416ZM247.395 162.416C247.395 161.996 247.772 161.655 248.237 161.655H256.625C257.09 161.655 257.467 161.996 257.467 162.416C257.467 162.837 257.09 163.178 256.625 163.178H248.237C247.772 163.178 247.395 162.837 247.395 162.416ZM264.17 162.416C264.17 161.996 264.547 161.655 265.013 161.655H273.4C273.865 161.655 274.242 161.996 274.242 162.416C274.242 162.837 273.865 163.178 273.4 163.178H265.013C264.547 163.178 264.17 162.837 264.17 162.416ZM280.945 162.416C280.945 161.996 281.322 161.655 281.788 161.655H290.175C290.64 161.655 291.018 161.996 291.018 162.416C291.018 162.837 290.64 163.178 290.175 163.178H281.788C281.322 163.178 280.945 162.837 280.945 162.416ZM297.72 162.416C297.72 161.996 298.097 161.655 298.563 161.655H306.95C307.415 161.655 307.793 161.996 307.793 162.416C307.793 162.837 307.415 163.178 306.95 163.178H298.563C298.097 163.178 297.72 162.837 297.72 162.416ZM314.495 162.416C314.495 161.996 314.872 161.655 315.338 161.655H323.725C324.191 161.655 324.568 161.996 324.568 162.416C324.568 162.837 324.191 163.178 323.725 163.178H315.338C314.872 163.178 314.495 162.837 314.495 162.416ZM331.27 162.416C331.27 161.996 331.648 161.655 332.113 161.655H340.5C340.966 161.655 341.343 161.996 341.343 162.416C341.343 162.837 340.966 163.178 340.5 163.178H332.113C331.648 163.178 331.27 162.837 331.27 162.416ZM348.045 162.416C348.045 161.996 348.423 161.655 348.888 161.655H357.275C357.741 161.655 358.118 161.996 358.118 162.416C358.118 162.837 357.741 163.178 357.275 163.178H348.888C348.423 163.178 348.045 162.837 348.045 162.416ZM364.821 162.416C364.821 161.996 365.198 161.655 365.663 161.655H374.051C374.516 161.655 374.893 161.996 374.893 162.416C374.893 162.837 374.516 163.178 374.051 163.178H365.663C365.198 163.178 364.821 162.837 364.821 162.416ZM381.596 162.416C381.596 161.996 381.973 161.655 382.438 161.655H390.826C391.291 161.655 391.668 161.996 391.668 162.416C391.668 162.837 391.291 163.178 390.826 163.178H382.438C381.973 163.178 381.596 162.837 381.596 162.416ZM398.371 162.416C398.371 161.996 398.748 161.655 399.213 161.655H407.601C408.066 161.655 408.443 161.996 408.443 162.416C408.443 162.837 408.066 163.178 407.601 163.178H399.213C398.748 163.178 398.371 162.837 398.371 162.416ZM415.146 162.416C415.146 161.996 415.523 161.655 415.988 161.655H424.376C424.841 161.655 425.218 161.996 425.218 162.416C425.218 162.837 424.841 163.178 424.376 163.178H415.988C415.523 163.178 415.146 162.837 415.146 162.416ZM431.921 162.416C431.921 161.996 432.298 161.655 432.763 161.655H441.151C441.616 161.655 441.993 161.996 441.993 162.416C441.993 162.837 441.616 163.178 441.151 163.178H432.763C432.298 163.178 431.921 162.837 431.921 162.416ZM448.696 162.416C448.696 161.996 449.073 161.655 449.538 161.655H457.926C458.391 161.655 458.768 161.996 458.768 162.416C458.768 162.837 458.391 163.178 457.926 163.178H449.538C449.073 163.178 448.696 162.837 448.696 162.416ZM465.471 162.416C465.471 161.996 465.848 161.655 466.313 161.655H474.701C475.166 161.655 475.543 161.996 475.543 162.416C475.543 162.837 475.166 163.178 474.701 163.178H466.313C465.848 163.178 465.471 162.837 465.471 162.416ZM482.246 162.416C482.246 161.996 482.623 161.655 483.088 161.655H491.476C491.941 161.655 492.318 161.996 492.318 162.416C492.318 162.837 491.941 163.178 491.476 163.178H483.088C482.623 163.178 482.246 162.837 482.246 162.416ZM499.021 162.416C499.021 161.996 499.398 161.655 499.863 161.655H508.251C508.716 161.655 509.093 161.996 509.093 162.416C509.093 162.837 508.716 163.178 508.251 163.178H499.863C499.398 163.178 499.021 162.837 499.021 162.416ZM515.796 162.416C515.796 161.996 516.173 161.655 516.639 161.655H525.026C525.491 161.655 525.868 161.996 525.868 162.416C525.868 162.837 525.491 163.178 525.026 163.178H516.639C516.173 163.178 515.796 162.837 515.796 162.416ZM532.571 162.416C532.571 161.996 532.948 161.655 533.414 161.655H541.801C542.266 161.655 542.644 161.996 542.644 162.416C542.644 162.837 542.266 163.178 541.801 163.178H533.414C532.948 163.178 532.571 162.837 532.571 162.416ZM549.346 162.416C549.346 161.996 549.723 161.655 550.189 161.655H558.576C559.041 161.655 559.419 161.996 559.419 162.416C559.419 162.837 559.041 163.178 558.576 163.178H550.189C549.723 163.178 549.346 162.837 549.346 162.416ZM566.121 162.416C566.121 161.996 566.498 161.655 566.964 161.655H571.158C571.623 161.655 572 161.996 572 162.416C572 162.837 571.623 163.178 571.158 163.178H566.964C566.498 163.178 566.121 162.837 566.121 162.416Z" fill="white"/>
<path id="Line 20 (Stroke)" fill-rule="evenodd" clip-rule="evenodd" d="M182.804 131.944C182.804 131.523 183.181 131.182 183.646 131.182H187.84C188.305 131.182 188.682 131.523 188.682 131.944C188.682 132.364 188.305 132.705 187.84 132.705H183.646C183.181 132.705 182.804 132.364 182.804 131.944ZM195.385 131.944C195.385 131.523 195.762 131.182 196.227 131.182H204.615C205.08 131.182 205.457 131.523 205.457 131.944C205.457 132.364 205.08 132.705 204.615 132.705H196.227C195.762 132.705 195.385 132.364 195.385 131.944ZM212.16 131.944C212.16 131.523 212.537 131.182 213.002 131.182H221.39C221.855 131.182 222.232 131.523 222.232 131.944C222.232 132.364 221.855 132.705 221.39 132.705H213.002C212.537 132.705 212.16 132.364 212.16 131.944ZM228.935 131.944C228.935 131.523 229.312 131.182 229.778 131.182H238.165C238.63 131.182 239.008 131.523 239.008 131.944C239.008 132.364 238.63 132.705 238.165 132.705H229.778C229.312 132.705 228.935 132.364 228.935 131.944ZM245.71 131.944C245.71 131.523 246.087 131.182 246.553 131.182H254.94C255.405 131.182 255.783 131.523 255.783 131.944C255.783 132.364 255.405 132.705 254.94 132.705H246.553C246.087 132.705 245.71 132.364 245.71 131.944ZM262.485 131.944C262.485 131.523 262.862 131.182 263.328 131.182H271.715C272.18 131.182 272.558 131.523 272.558 131.944C272.558 132.364 272.18 132.705 271.715 132.705H263.328C262.862 132.705 262.485 132.364 262.485 131.944ZM279.26 131.944C279.26 131.523 279.638 131.182 280.103 131.182H288.49C288.956 131.182 289.333 131.523 289.333 131.944C289.333 132.364 288.956 132.705 288.49 132.705H280.103C279.638 132.705 279.26 132.364 279.26 131.944ZM296.035 131.944C296.035 131.523 296.413 131.182 296.878 131.182H305.265C305.731 131.182 306.108 131.523 306.108 131.944C306.108 132.364 305.731 132.705 305.265 132.705H296.878C296.413 132.705 296.035 132.364 296.035 131.944ZM312.811 131.944C312.811 131.523 313.188 131.182 313.653 131.182H322.04C322.506 131.182 322.883 131.523 322.883 131.944C322.883 132.364 322.506 132.705 322.04 132.705H313.653C313.188 132.705 312.811 132.364 312.811 131.944ZM329.586 131.944C329.586 131.523 329.963 131.182 330.428 131.182H338.816C339.281 131.182 339.658 131.523 339.658 131.944C339.658 132.364 339.281 132.705 338.816 132.705H330.428C329.963 132.705 329.586 132.364 329.586 131.944ZM346.361 131.944C346.361 131.523 346.738 131.182 347.203 131.182H355.591C356.056 131.182 356.433 131.523 356.433 131.944C356.433 132.364 356.056 132.705 355.591 132.705H347.203C346.738 132.705 346.361 132.364 346.361 131.944ZM363.136 131.944C363.136 131.523 363.513 131.182 363.978 131.182H372.366C372.831 131.182 373.208 131.523 373.208 131.944C373.208 132.364 372.831 132.705 372.366 132.705H363.978C363.513 132.705 363.136 132.364 363.136 131.944ZM379.911 131.944C379.911 131.523 380.288 131.182 380.753 131.182H389.141C389.606 131.182 389.983 131.523 389.983 131.944C389.983 132.364 389.606 132.705 389.141 132.705H380.753C380.288 132.705 379.911 132.364 379.911 131.944ZM396.686 131.944C396.686 131.523 397.063 131.182 397.528 131.182H405.916C406.381 131.182 406.758 131.523 406.758 131.944C406.758 132.364 406.381 132.705 405.916 132.705H397.528C397.063 132.705 396.686 132.364 396.686 131.944ZM413.461 131.944C413.461 131.523 413.838 131.182 414.303 131.182H422.691C423.156 131.182 423.533 131.523 423.533 131.944C423.533 132.364 423.156 132.705 422.691 132.705H414.303C413.838 132.705 413.461 132.364 413.461 131.944ZM430.236 131.944C430.236 131.523 430.613 131.182 431.078 131.182H439.466C439.931 131.182 440.308 131.523 440.308 131.944C440.308 132.364 439.931 132.705 439.466 132.705H431.078C430.613 132.705 430.236 132.364 430.236 131.944ZM447.011 131.944C447.011 131.523 447.388 131.182 447.853 131.182H456.241C456.706 131.182 457.083 131.523 457.083 131.944C457.083 132.364 456.706 132.705 456.241 132.705H447.853C447.388 132.705 447.011 132.364 447.011 131.944ZM463.786 131.944C463.786 131.523 464.163 131.182 464.629 131.182H473.016C473.481 131.182 473.858 131.523 473.858 131.944C473.858 132.364 473.481 132.705 473.016 132.705H464.629C464.163 132.705 463.786 132.364 463.786 131.944ZM480.561 131.944C480.561 131.523 480.938 131.182 481.404 131.182H489.791C490.256 131.182 490.634 131.523 490.634 131.944C490.634 132.364 490.256 132.705 489.791 132.705H481.404C480.938 132.705 480.561 132.364 480.561 131.944ZM497.336 131.944C497.336 131.523 497.713 131.182 498.179 131.182H506.566C507.031 131.182 507.409 131.523 507.409 131.944C507.409 132.364 507.031 132.705 506.566 132.705H498.179C497.713 132.705 497.336 132.364 497.336 131.944ZM514.111 131.944C514.111 131.523 514.488 131.182 514.954 131.182H523.341C523.806 131.182 524.184 131.523 524.184 131.944C524.184 132.364 523.806 132.705 523.341 132.705H514.954C514.488 132.705 514.111 132.364 514.111 131.944ZM530.886 131.944C530.886 131.523 531.264 131.182 531.729 131.182H540.116C540.582 131.182 540.959 131.523 540.959 131.944C540.959 132.364 540.582 132.705 540.116 132.705H531.729C531.264 132.705 530.886 132.364 530.886 131.944ZM547.661 131.944C547.661 131.523 548.039 131.182 548.504 131.182H556.891C557.357 131.182 557.734 131.523 557.734 131.944C557.734 132.364 557.357 132.705 556.891 132.705H548.504C548.039 132.705 547.661 132.364 547.661 131.944ZM564.436 131.944C564.436 131.523 564.814 131.182 565.279 131.182H569.473C569.938 131.182 570.315 131.523 570.315 131.944C570.315 132.364 569.938 132.705 569.473 132.705H565.279C564.814 132.705 564.436 132.364 564.436 131.944Z" fill="white"/>
<path id="Line 21 (Stroke)" fill-rule="evenodd" clip-rule="evenodd" d="M184.489 101.471C184.489 101.05 184.866 100.709 185.331 100.709H189.525C189.99 100.709 190.367 101.05 190.367 101.471C190.367 101.892 189.99 102.233 189.525 102.233H185.331C184.866 102.233 184.489 101.892 184.489 101.471ZM197.07 101.471C197.07 101.05 197.447 100.709 197.912 100.709H206.3C206.765 100.709 207.142 101.05 207.142 101.471C207.142 101.892 206.765 102.233 206.3 102.233H197.912C197.447 102.233 197.07 101.892 197.07 101.471ZM213.845 101.471C213.845 101.05 214.222 100.709 214.687 100.709H223.075C223.54 100.709 223.917 101.05 223.917 101.471C223.917 101.892 223.54 102.233 223.075 102.233H214.687C214.222 102.233 213.845 101.892 213.845 101.471ZM230.62 101.471C230.62 101.05 230.997 100.709 231.462 100.709H239.85C240.315 100.709 240.692 101.05 240.692 101.471C240.692 101.892 240.315 102.233 239.85 102.233H231.462C230.997 102.233 230.62 101.892 230.62 101.471ZM247.395 101.471C247.395 101.05 247.772 100.709 248.237 100.709H256.625C257.09 100.709 257.467 101.05 257.467 101.471C257.467 101.892 257.09 102.233 256.625 102.233H248.237C247.772 102.233 247.395 101.892 247.395 101.471ZM264.17 101.471C264.17 101.05 264.547 100.709 265.013 100.709H273.4C273.865 100.709 274.242 101.05 274.242 101.471C274.242 101.892 273.865 102.233 273.4 102.233H265.013C264.547 102.233 264.17 101.892 264.17 101.471ZM280.945 101.471C280.945 101.05 281.322 100.709 281.788 100.709H290.175C290.64 100.709 291.018 101.05 291.018 101.471C291.018 101.892 290.64 102.233 290.175 102.233H281.788C281.322 102.233 280.945 101.892 280.945 101.471ZM297.72 101.471C297.72 101.05 298.097 100.709 298.563 100.709H306.95C307.415 100.709 307.793 101.05 307.793 101.471C307.793 101.892 307.415 102.233 306.95 102.233H298.563C298.097 102.233 297.72 101.892 297.72 101.471ZM314.495 101.471C314.495 101.05 314.872 100.709 315.338 100.709H323.725C324.191 100.709 324.568 101.05 324.568 101.471C324.568 101.892 324.191 102.233 323.725 102.233H315.338C314.872 102.233 314.495 101.892 314.495 101.471ZM331.27 101.471C331.27 101.05 331.648 100.709 332.113 100.709H340.5C340.966 100.709 341.343 101.05 341.343 101.471C341.343 101.892 340.966 102.233 340.5 102.233H332.113C331.648 102.233 331.27 101.892 331.27 101.471ZM348.045 101.471C348.045 101.05 348.423 100.709 348.888 100.709H357.275C357.741 100.709 358.118 101.05 358.118 101.471C358.118 101.892 357.741 102.233 357.275 102.233H348.888C348.423 102.233 348.045 101.892 348.045 101.471ZM364.821 101.471C364.821 101.05 365.198 100.709 365.663 100.709H374.051C374.516 100.709 374.893 101.05 374.893 101.471C374.893 101.892 374.516 102.233 374.051 102.233H365.663C365.198 102.233 364.821 101.892 364.821 101.471ZM381.596 101.471C381.596 101.05 381.973 100.709 382.438 100.709H390.826C391.291 100.709 391.668 101.05 391.668 101.471C391.668 101.892 391.291 102.233 390.826 102.233H382.438C381.973 102.233 381.596 101.892 381.596 101.471ZM398.371 101.471C398.371 101.05 398.748 100.709 399.213 100.709H407.601C408.066 100.709 408.443 101.05 408.443 101.471C408.443 101.892 408.066 102.233 407.601 102.233H399.213C398.748 102.233 398.371 101.892 398.371 101.471ZM415.146 101.471C415.146 101.05 415.523 100.709 415.988 100.709H424.376C424.841 100.709 425.218 101.05 425.218 101.471C425.218 101.892 424.841 102.233 424.376 102.233H415.988C415.523 102.233 415.146 101.892 415.146 101.471ZM431.921 101.471C431.921 101.05 432.298 100.709 432.763 100.709H441.151C441.616 100.709 441.993 101.05 441.993 101.471C441.993 101.892 441.616 102.233 441.151 102.233H432.763C432.298 102.233 431.921 101.892 431.921 101.471ZM448.696 101.471C448.696 101.05 449.073 100.709 449.538 100.709H457.926C458.391 100.709 458.768 101.05 458.768 101.471C458.768 101.892 458.391 102.233 457.926 102.233H449.538C449.073 102.233 448.696 101.892 448.696 101.471ZM465.471 101.471C465.471 101.05 465.848 100.709 466.313 100.709H474.701C475.166 100.709 475.543 101.05 475.543 101.471C475.543 101.892 475.166 102.233 474.701 102.233H466.313C465.848 102.233 465.471 101.892 465.471 101.471ZM482.246 101.471C482.246 101.05 482.623 100.709 483.088 100.709H491.476C491.941 100.709 492.318 101.05 492.318 101.471C492.318 101.892 491.941 102.233 491.476 102.233H483.088C482.623 102.233 482.246 101.892 482.246 101.471ZM499.021 101.471C499.021 101.05 499.398 100.709 499.863 100.709H508.251C508.716 100.709 509.093 101.05 509.093 101.471C509.093 101.892 508.716 102.233 508.251 102.233H499.863C499.398 102.233 499.021 101.892 499.021 101.471ZM515.796 101.471C515.796 101.05 516.173 100.709 516.639 100.709H525.026C525.491 100.709 525.868 101.05 525.868 101.471C525.868 101.892 525.491 102.233 525.026 102.233H516.639C516.173 102.233 515.796 101.892 515.796 101.471ZM532.571 101.471C532.571 101.05 532.948 100.709 533.414 100.709H541.801C542.266 100.709 542.644 101.05 542.644 101.471C542.644 101.892 542.266 102.233 541.801 102.233H533.414C532.948 102.233 532.571 101.892 532.571 101.471ZM549.346 101.471C549.346 101.05 549.723 100.709 550.189 100.709H558.576C559.041 100.709 559.419 101.05 559.419 101.471C559.419 101.892 559.041 102.233 558.576 102.233H550.189C549.723 102.233 549.346 101.892 549.346 101.471ZM566.121 101.471C566.121 101.05 566.498 100.709 566.964 100.709H571.158C571.623 100.709 572 101.05 572 101.471C572 101.892 571.623 102.233 571.158 102.233H566.964C566.498 102.233 566.121 101.892 566.121 101.471Z" fill="white"/>
<path id="Rectangle 17" d="M199.652 161.655H233.349V405.436H199.652V161.655Z" fill="#FDEC55"/>
<path id="Rectangle 19" d="M267.045 207.364H300.742V405.436H267.045V207.364Z" fill="#32CAD3"/>
<path id="Rectangle 20" d="M334.439 288.116H368.135V405.436H334.439V288.116Z" fill="#FDEC55"/>
<path id="Rectangle 21" d="M368.135 288.116H401.832V405.436H368.135V288.116Z" fill="#E47373"/>
<path id="Rectangle 22" d="M401.832 161.655H435.529V405.436H401.832V161.655Z" fill="#32CAD3"/>
<path id="Rectangle 23" d="M470.91 288.116H504.607V405.436H470.91V288.116Z" fill="#FDEC55"/>
<path id="Rectangle 25" d="M536.619 314.018H570.315V405.436H536.619V314.018Z" fill="#32CAD3"/>
<path id="Rectangle 24" d="M504.607 132.705H538.303V405.436H504.607V132.705Z" fill="#E47373"/>
<path id="Rectangle 18" d="M233.349 359.727H267.045V405.436H233.349V359.727Z" fill="#E47373"/>
<path id="Rectangle 26" d="M192.913 443.527H226.609V474H192.913V443.527Z" fill="#FDEC55"/>
<path id="Rectangle 27" d="M322.645 443.527H356.342V474H322.645V443.527Z" fill="#E47373"/>
<path id="Rectangle 28" d="M454.062 443.527H487.758V474H454.062V443.527Z" fill="#32CAD3"/>
</g>
</g>
</svg>
