<svg viewBox="0 0 675 300" fill="none" xmlns="http://www.w3.org/2000/svg">
<g id="01252032">
<path id="Rectangle 34 (Stroke)" fill-rule="evenodd" clip-rule="evenodd" d="M672.401 5.17222H2.58616V297.408H672.401V5.17222ZM0 2.58606V299.994H674.987V2.58606H0Z" fill="#1425C4"/>
<path id="Rectangle 35" d="M0 2.58606H674.987V49.1369H0V2.58606Z" fill="#1425C4"/>
<path id="Line 31 (Stroke)" fill-rule="evenodd" clip-rule="evenodd" d="M187.497 2.58047V300H184.91V2.58047H187.497Z" fill="#1425C4"/>
<path id="Line 32 (Stroke)" fill-rule="evenodd" clip-rule="evenodd" d="M274.133 3.05176e-05V297.42H271.547V3.05176e-05H274.133Z" fill="#1425C4"/>
<path id="Line 33 (Stroke)" fill-rule="evenodd" clip-rule="evenodd" d="M431.888 3.05176e-05V297.42H429.302V3.05176e-05H431.888Z" fill="#1425C4"/>
<path id="Line 34 (Stroke)" fill-rule="evenodd" clip-rule="evenodd" d="M563.783 3.05176e-05V297.42H561.197V3.05176e-05H563.783Z" fill="#1425C4"/>
<g id="Dep/Univ UNI UNMSM SMP URP B&#195;&#161;squet 150 200 250 200 F&#195;&#186;tbol 400 350 250 300 Tenis 80 100 120 200 Badmington 50 50 150 250 Nataci&#195;&#179;n 100 150 200 250">
<path d="M10.2588 36.2061V14.1429H16.4868C18.4062 14.1429 20.1034 14.5672 21.5783 15.4158C23.0532 16.2644 24.1897 17.4716 24.9878 19.0374C25.7959 20.6033 26.2051 22.4014 26.2152 24.432V25.8412C26.2152 27.9223 25.8111 29.7457 25.0029 31.3116C24.2049 32.8774 23.0583 34.0796 21.5631 34.918C20.0781 35.7565 18.3456 36.1859 16.3656 36.2061H10.2588ZM13.1682 16.5371V33.827H16.2292C18.4719 33.827 20.2145 33.13 21.4571 31.7359C22.7097 30.3418 23.3361 28.3567 23.3361 25.7806V24.4926C23.3361 21.9873 22.7451 20.0426 21.5631 18.6586C20.3913 17.2645 18.7244 16.5573 16.5626 16.5371H13.1682Z" fill="white"/>
<path d="M36.9892 36.5091C34.7667 36.5091 32.9584 35.7818 31.5643 34.3271C30.1702 32.8623 29.4731 30.9075 29.4731 28.4628V27.9475C29.4731 26.3211 29.7813 24.8714 30.3975 23.5986C31.0238 22.3156 31.8926 21.3155 33.0039 20.5982C34.1252 19.8708 35.3375 19.5072 36.6406 19.5072C38.7722 19.5072 40.429 20.2093 41.6109 21.6135C42.7929 23.0177 43.3839 25.028 43.3839 27.6445V28.8113H32.2765C32.3169 30.4276 32.7867 31.7359 33.6858 32.736C34.5949 33.726 35.7466 34.221 37.1407 34.221C38.1307 34.221 38.9692 34.019 39.6561 33.6149C40.3431 33.2108 40.9442 32.6754 41.4594 32.0086L43.1717 33.3421C41.7978 35.4535 39.737 36.5091 36.9892 36.5091ZM36.6406 21.8105C35.5092 21.8105 34.5596 22.2247 33.7918 23.053C33.0241 23.8713 32.5493 25.023 32.3674 26.508H40.5805V26.2958C40.4997 24.8714 40.1158 23.7703 39.4288 22.9924C38.7419 22.2045 37.8125 21.8105 36.6406 21.8105Z" fill="white"/>
<path d="M60.4919 28.19C60.4919 30.6852 59.9211 32.6956 58.7796 34.221C57.638 35.7464 56.0924 36.5091 54.1427 36.5091C52.1525 36.5091 50.5867 35.8778 49.4452 34.615V42.5098H46.6418V19.8102H49.2027L49.3391 21.6286C50.4806 20.2143 52.0667 19.5072 54.0972 19.5072C56.0671 19.5072 57.6229 20.2497 58.7644 21.7347C59.9161 23.2197 60.4919 25.2856 60.4919 27.9324V28.19ZM57.6885 27.8718C57.6885 26.0231 57.2946 24.5633 56.5066 23.4925C55.7186 22.4216 54.6377 21.8862 53.2638 21.8862C51.5666 21.8862 50.2937 22.6388 49.4452 24.1441V31.9783C50.2836 33.4734 51.5666 34.221 53.2941 34.221C54.6377 34.221 55.7035 33.6906 56.4914 32.6299C57.2895 31.5591 57.6885 29.973 57.6885 27.8718Z" fill="white"/>
<path d="M64.6287 38.1002H62.2194L71.4326 14.1429H73.8268L64.6287 38.1002Z" fill="white"/>
<path d="M92.829 14.1429V29.1447C92.8189 31.2257 92.1622 32.9279 90.8591 34.2513C89.566 35.5747 87.8082 36.3172 85.5857 36.4788L84.8129 36.5091C82.3985 36.5091 80.474 35.8576 79.0395 34.5544C77.605 33.2512 76.8776 31.4581 76.8574 29.175V14.1429H79.7366V29.084C79.7366 30.6802 80.176 31.9228 81.0549 32.8117C81.9338 33.6906 83.1865 34.1301 84.8129 34.1301C86.4596 34.1301 87.7173 33.6906 88.5861 32.8117C89.465 31.9329 89.9044 30.6953 89.9044 29.0992V14.1429H92.829Z" fill="white"/>
<path d="M99.6328 19.8102L99.7237 21.8711C100.976 20.2951 102.613 19.5072 104.633 19.5072C108.098 19.5072 109.846 21.4619 109.876 25.3715V36.2061H107.073V25.3563C107.063 24.1744 106.79 23.3005 106.255 22.7348C105.729 22.1691 104.906 21.8862 103.785 21.8862C102.876 21.8862 102.078 22.1287 101.391 22.6136C100.704 23.0985 100.168 23.7349 99.7843 24.5229V36.2061H96.981V19.8102H99.6328Z" fill="white"/>
<path d="M117.15 36.2061H114.347V19.8102H117.15V36.2061ZM114.119 15.4612C114.119 15.0066 114.256 14.6228 114.528 14.3096C114.811 13.9964 115.226 13.8398 115.771 13.8398C116.317 13.8398 116.731 13.9964 117.014 14.3096C117.296 14.6228 117.438 15.0066 117.438 15.4612C117.438 15.9158 117.296 16.2947 117.014 16.5977C116.731 16.9008 116.317 17.0523 115.771 17.0523C115.226 17.0523 114.811 16.9008 114.528 16.5977C114.256 16.2947 114.119 15.9158 114.119 15.4612Z" fill="white"/>
<path d="M127.06 32.4026L131.121 19.8102H133.985L128.106 36.2061H125.969L120.029 19.8102H122.893L127.06 32.4026Z" fill="white"/>
<path d="M214.237 14.1429V29.1447C214.227 31.2257 213.57 32.9279 212.267 34.2513C210.974 35.5747 209.216 36.3172 206.994 36.4788L206.221 36.5091C203.807 36.5091 201.882 35.8576 200.448 34.5544C199.013 33.2512 198.286 31.4581 198.265 29.175V14.1429H201.145V29.084C201.145 30.6802 201.584 31.9228 202.463 32.8117C203.342 33.6906 204.594 34.1301 206.221 34.1301C207.868 34.1301 209.125 33.6906 209.994 32.8117C210.873 31.9329 211.312 30.6953 211.312 29.0992V14.1429H214.237Z" fill="white"/>
<path d="M235.785 36.2061H232.86L221.753 19.2041V36.2061H218.828V14.1429H221.753L232.891 31.2206V14.1429H235.785V36.2061Z" fill="white"/>
<path d="M244.074 36.2061H241.164V14.1429H244.074V36.2061Z" fill="white"/>
<path d="M303.429 14.1429V29.1447C303.419 31.2257 302.762 32.9279 301.459 34.2513C300.166 35.5747 298.408 36.3172 296.186 36.4788L295.413 36.5091C292.999 36.5091 291.074 35.8576 289.64 34.5544C288.205 33.2512 287.478 31.4581 287.458 29.175V14.1429H290.337V29.084C290.337 30.6802 290.776 31.9228 291.655 32.8117C292.534 33.6906 293.787 34.1301 295.413 34.1301C297.06 34.1301 298.317 33.6906 299.186 32.8117C300.065 31.9329 300.505 30.6953 300.505 29.0992V14.1429H303.429Z" fill="white"/>
<path d="M324.977 36.2061H322.053L310.945 19.2041V36.2061H308.021V14.1429H310.945L322.083 31.2206V14.1429H324.977V36.2061Z" fill="white"/>
<path d="M333.902 14.1429L341.115 32.145L348.328 14.1429H352.102V36.2061H349.192V27.6142L349.465 18.3404L342.222 36.2061H339.994L332.766 18.3858L333.054 27.6142V36.2061H330.144V14.1429H333.902Z" fill="white"/>
<path d="M363.739 26.3716C361.244 25.6543 359.426 24.7755 358.284 23.7349C357.153 22.6843 356.587 21.3912 356.587 19.8557C356.587 18.1181 357.279 16.6836 358.663 15.5522C360.057 14.4106 361.865 13.8398 364.088 13.8398C365.603 13.8398 366.952 14.1328 368.134 14.7187C369.326 15.3047 370.245 16.1128 370.892 17.1433C371.548 18.1737 371.877 19.3001 371.877 20.5224H368.952C368.952 19.1889 368.528 18.1434 367.679 17.3857C366.831 16.6179 365.633 16.2341 364.088 16.2341C362.653 16.2341 361.532 16.5523 360.724 17.1887C359.926 17.8151 359.527 18.6889 359.527 19.8102C359.527 20.7093 359.905 21.472 360.663 22.0984C361.431 22.7146 362.729 23.2803 364.558 23.7955C366.396 24.3108 367.831 24.8815 368.861 25.5079C369.902 26.1241 370.669 26.8464 371.164 27.6748C371.669 28.5032 371.922 29.478 371.922 30.5994C371.922 32.3875 371.225 33.822 369.831 34.9029C368.437 35.9737 366.573 36.5091 364.239 36.5091C362.724 36.5091 361.31 36.2212 359.996 35.6454C358.683 35.0595 357.668 34.2614 356.951 33.2512C356.243 32.241 355.89 31.0944 355.89 29.8114H358.814C358.814 31.1449 359.304 32.2006 360.284 32.9784C361.274 33.7462 362.593 34.1301 364.239 34.1301C365.775 34.1301 366.952 33.8169 367.77 33.1906C368.588 32.5642 368.997 31.7106 368.997 30.6297C368.997 29.5487 368.619 28.7153 367.861 28.1294C367.103 27.5334 365.729 26.9474 363.739 26.3716Z" fill="white"/>
<path d="M379.423 14.1429L386.636 32.145L393.849 14.1429H397.622V36.2061H394.713V27.6142L394.985 18.3404L387.742 36.2061H385.514L378.286 18.3858L378.574 27.6142V36.2061H375.665V14.1429H379.423Z" fill="white"/>
<path d="M470.843 26.3716C468.347 25.6543 466.529 24.7755 465.387 23.7349C464.256 22.6843 463.69 21.3912 463.69 19.8557C463.69 18.1181 464.382 16.6836 465.766 15.5522C467.16 14.4106 468.969 13.8398 471.191 13.8398C472.706 13.8398 474.055 14.1328 475.237 14.7187C476.429 15.3047 477.348 16.1128 477.995 17.1433C478.652 18.1737 478.98 19.3001 478.98 20.5224H476.055C476.055 19.1889 475.631 18.1434 474.782 17.3857C473.934 16.6179 472.737 16.2341 471.191 16.2341C469.757 16.2341 468.635 16.5523 467.827 17.1887C467.029 17.8151 466.63 18.6889 466.63 19.8102C466.63 20.7093 467.009 21.472 467.766 22.0984C468.534 22.7146 469.832 23.2803 471.661 23.7955C473.499 24.3108 474.934 24.8815 475.964 25.5079C477.005 26.1241 477.773 26.8464 478.268 27.6748C478.773 28.5032 479.025 29.478 479.025 30.5994C479.025 32.3875 478.328 33.822 476.934 34.9029C475.54 35.9737 473.676 36.5091 471.343 36.5091C469.827 36.5091 468.413 36.2212 467.1 35.6454C465.786 35.0595 464.771 34.2614 464.054 33.2512C463.347 32.241 462.993 31.0944 462.993 29.8114H465.918C465.918 31.1449 466.408 32.2006 467.388 32.9784C468.378 33.7462 469.696 34.1301 471.343 34.1301C472.878 34.1301 474.055 33.8169 474.873 33.1906C475.692 32.5642 476.101 31.7106 476.101 30.6297C476.101 29.5487 475.722 28.7153 474.964 28.1294C474.207 27.5334 472.833 26.9474 470.843 26.3716Z" fill="white"/>
<path d="M486.526 14.1429L493.739 32.145L500.952 14.1429H504.725V36.2061H501.816V27.6142L502.089 18.3404L494.845 36.2061H492.618L485.39 18.3858L485.678 27.6142V36.2061H482.768V14.1429H486.526Z" fill="white"/>
<path d="M512.772 27.5687V36.2061H509.862V14.1429H518C520.414 14.1429 522.303 14.7591 523.667 15.9916C525.041 17.2241 525.728 18.8556 525.728 20.8861C525.728 23.0278 525.056 24.6795 523.712 25.8412C522.379 26.9929 520.465 27.5687 517.969 27.5687H512.772ZM512.772 25.1896H518C519.555 25.1896 520.747 24.826 521.576 24.0986C522.404 23.3612 522.818 22.3004 522.818 20.9164C522.818 19.6031 522.404 18.5525 521.576 17.7645C520.747 16.9766 519.611 16.5674 518.166 16.5371H512.772V25.1896Z" fill="white"/>
<path d="M606.555 14.1429V29.1447C606.545 31.2257 605.889 32.9279 604.585 34.2513C603.292 35.5747 601.535 36.3172 599.312 36.4788L598.539 36.5091C596.125 36.5091 594.2 35.8576 592.766 34.5544C591.331 33.2512 590.604 31.4581 590.584 29.175V14.1429H593.463V29.084C593.463 30.6802 593.902 31.9228 594.781 32.8117C595.66 33.6906 596.913 34.1301 598.539 34.1301C600.186 34.1301 601.444 33.6906 602.312 32.8117C603.191 31.9329 603.631 30.6953 603.631 29.0992V14.1429H606.555Z" fill="white"/>
<path d="M619.239 27.2808H614.056V36.2061H611.132V14.1429H618.435C620.921 14.1429 622.83 14.7086 624.163 15.8401C625.507 16.9715 626.179 18.6182 626.179 20.78C626.179 22.1539 625.805 23.351 625.057 24.3714C624.32 25.3917 623.29 26.1544 621.966 26.6595L627.149 36.0242V36.2061H624.027L619.239 27.2808ZM614.056 24.9017H618.526C619.971 24.9017 621.118 24.528 621.966 23.7804C622.825 23.0328 623.254 22.0327 623.254 20.78C623.254 19.4162 622.845 18.3707 622.027 17.6433C621.219 16.916 620.047 16.5472 618.511 16.5371H614.056V24.9017Z" fill="white"/>
<path d="M633.18 27.5687V36.2061H630.27V14.1429H638.408C640.822 14.1429 642.711 14.7591 644.075 15.9916C645.449 17.2241 646.136 18.8556 646.136 20.8861C646.136 23.0278 645.464 24.6795 644.12 25.8412C642.787 26.9929 640.872 27.5687 638.377 27.5687H633.18ZM633.18 25.1896H638.408C639.963 25.1896 641.155 24.826 641.984 24.0986C642.812 23.3612 643.226 22.3004 643.226 20.9164C643.226 19.6031 642.812 18.5525 641.984 17.7645C641.155 16.9766 640.019 16.5674 638.574 16.5371H633.18V25.1896Z" fill="white"/>
<path d="M17.9567 82.7569V60.6938H25.1696C27.5638 60.6938 29.362 61.1888 30.5642 62.1788C31.7764 63.1688 32.3826 64.6336 32.3826 66.5732C32.3826 67.6037 32.0896 68.5179 31.5037 69.316C30.9178 70.104 30.1197 70.7151 29.1095 71.1495C30.3015 71.4829 31.241 72.1193 31.928 73.0588C32.625 73.9882 32.9735 75.0995 32.9735 76.3926C32.9735 78.3726 32.3321 79.9283 31.0491 81.0598C29.7661 82.1912 27.9528 82.7569 25.6091 82.7569H17.9567ZM20.8661 72.4376V80.3779H25.6697C27.0234 80.3779 28.0891 80.0293 28.867 79.3323C29.655 78.6251 30.049 77.6553 30.049 76.4229C30.049 73.766 28.6044 72.4376 25.7151 72.4376H20.8661ZM20.8661 70.104H25.2605C26.5334 70.104 27.5487 69.7857 28.3063 69.1493C29.0741 68.5129 29.458 67.6491 29.458 66.5581C29.458 65.3458 29.1044 64.4669 28.3973 63.9214C27.6901 63.3658 26.6142 63.088 25.1696 63.088H20.8661V70.104Z" fill="white"/>
<path d="M46.9752 82.7569C46.8135 82.4337 46.6822 81.8578 46.5812 81.0295C45.278 82.3832 43.7223 83.06 41.914 83.06C40.2976 83.06 38.9692 82.6054 37.9287 81.6962C36.8982 80.7769 36.383 79.6152 36.383 78.211C36.383 76.5037 37.0296 75.1803 38.3227 74.2408C39.6258 73.2912 41.4543 72.8164 43.8081 72.8164H46.5357V71.5284C46.5357 70.5485 46.2428 69.7706 45.6568 69.1948C45.0709 68.6088 44.2072 68.3159 43.0656 68.3159C42.0655 68.3159 41.227 68.5684 40.5502 69.0735C39.8733 69.5786 39.5349 70.1898 39.5349 70.9071H36.7164C36.7164 70.0888 37.0043 69.3008 37.5801 68.5432C38.1661 67.7754 38.954 67.1693 39.9441 66.7248C40.9442 66.2803 42.0403 66.058 43.2323 66.058C45.1214 66.058 46.6014 66.5328 47.6722 67.4824C48.7431 68.4219 49.2987 69.7201 49.3391 71.3768V78.9232C49.3391 80.4284 49.531 81.6255 49.9149 82.5145V82.7569H46.9752ZM42.3231 80.6203C43.202 80.6203 44.0354 80.393 44.8234 79.9384C45.6114 79.4838 46.1822 78.8929 46.5357 78.1655V74.8015H44.3385C40.9038 74.8015 39.1864 75.8066 39.1864 77.817C39.1864 78.6959 39.4794 79.3828 40.0653 79.8778C40.6512 80.3728 41.4038 80.6203 42.3231 80.6203ZM44.9143 59.4815H48.3087L44.2476 63.9366H41.9897L44.9143 59.4815Z" fill="white"/>
<path d="M63.2801 78.408C63.2801 77.6503 62.9922 77.0644 62.4164 76.6502C61.8506 76.2259 60.8556 75.8622 59.4312 75.5591C58.0169 75.2561 56.8905 74.8924 56.052 74.4681C55.2236 74.0438 54.6074 73.5387 54.2033 72.9528C53.8093 72.3668 53.6123 71.6698 53.6123 70.8616C53.6123 69.518 54.178 68.3815 55.3095 67.4521C56.451 66.5227 57.9057 66.058 59.6736 66.058C61.5324 66.058 63.0376 66.5379 64.1893 67.4976C65.351 68.4573 65.9319 69.6847 65.9319 71.1798H63.1134C63.1134 70.4121 62.7851 69.7504 62.1285 69.1948C61.4819 68.6391 60.6636 68.3613 59.6736 68.3613C58.6533 68.3613 57.8552 68.5836 57.2794 69.0281C56.7036 69.4726 56.4157 70.0534 56.4157 70.7707C56.4157 71.4475 56.6834 71.9577 57.2188 72.3012C57.7542 72.6447 58.719 72.973 60.1131 73.2861C61.5173 73.5993 62.6538 73.9731 63.5226 74.4075C64.3913 74.8419 65.0328 75.3672 65.447 75.9834C65.8713 76.5896 66.0835 77.3321 66.0835 78.211C66.0835 79.6758 65.4975 80.8527 64.3257 81.7417C63.1538 82.6206 61.6334 83.06 59.7645 83.06C58.4513 83.06 57.2895 82.8277 56.2793 82.363C55.2691 81.8983 54.476 81.2517 53.9002 80.4233C53.3345 79.5849 53.0516 78.6807 53.0516 77.7109H55.855C55.9055 78.6504 56.2793 79.398 56.9763 79.9536C57.6835 80.4991 58.6129 80.7719 59.7645 80.7719C60.8253 80.7719 61.6739 80.5597 62.3103 80.1354C62.9568 79.701 63.2801 79.1252 63.2801 78.408Z" fill="white"/>
<path d="M69.0535 74.4226C69.0535 71.8466 69.6445 69.811 70.8264 68.3159C72.0084 66.8106 73.5944 66.058 75.5846 66.058C77.5242 66.058 79.0547 66.7096 80.176 68.0128L80.2972 66.3611H82.8733V89.0607H80.0699V81.2416C78.9385 82.4539 77.4333 83.06 75.5543 83.06C73.5742 83.06 71.9932 82.2922 70.8113 80.7567C69.6394 79.2111 69.0535 77.1654 69.0535 74.6196V74.4226ZM71.8569 74.7409C71.8569 76.6199 72.2508 78.0948 73.0388 79.1656C73.8369 80.2364 74.9077 80.7719 76.2513 80.7719C77.9182 80.7719 79.191 80.0344 80.0699 78.5595V70.5282C79.1809 69.0836 77.9182 68.3613 76.2816 68.3613C74.9279 68.3613 73.852 68.9018 73.054 69.9827C72.2559 71.0536 71.8569 72.6396 71.8569 74.7409Z" fill="white"/>
<path d="M97.4962 81.1355C96.4052 82.4185 94.804 83.06 92.6926 83.06C90.9449 83.06 89.6114 82.5549 88.6921 81.5447C87.7829 80.5244 87.3233 79.0191 87.3132 77.029V66.3611H90.1165V76.9532C90.1165 79.4384 91.1268 80.6809 93.1472 80.6809C95.2889 80.6809 96.7133 79.8829 97.4204 78.2867V66.3611H100.224V82.7569H97.5568L97.4962 81.1355Z" fill="white"/>
<path d="M111.301 83.06C109.078 83.06 107.27 82.3327 105.876 80.8779C104.482 79.4131 103.785 77.4583 103.785 75.0136V74.4984C103.785 72.872 104.093 71.4223 104.709 70.1494C105.335 68.8664 106.204 67.8663 107.316 67.1491C108.437 66.4217 109.649 66.058 110.952 66.058C113.084 66.058 114.741 66.7601 115.923 68.1643C117.105 69.5685 117.696 71.5789 117.696 74.1953V75.3621H106.588C106.629 76.9785 107.098 78.2867 107.997 79.2868C108.907 80.2769 110.058 80.7719 111.452 80.7719C112.442 80.7719 113.281 80.5698 113.968 80.1657C114.655 79.7616 115.256 79.2262 115.771 78.5595L117.483 79.893C116.109 82.0043 114.049 83.06 111.301 83.06ZM110.952 68.3613C109.821 68.3613 108.871 68.7755 108.103 69.6039C107.336 70.4222 106.861 71.5738 106.679 73.0588H114.892V72.8467C114.811 71.4223 114.427 70.3212 113.741 69.5433C113.054 68.7553 112.124 68.3613 110.952 68.3613Z" fill="white"/>
<path d="M124.757 62.3909V66.3611H127.818V68.528H124.757V78.6959C124.757 79.3525 124.893 79.8475 125.166 80.1809C125.439 80.5042 125.904 80.6658 126.56 80.6658C126.883 80.6658 127.328 80.6052 127.894 80.4839V82.7569C127.156 82.959 126.439 83.06 125.742 83.06C124.489 83.06 123.545 82.6812 122.908 81.9235C122.272 81.1658 121.954 80.09 121.954 78.6959V68.528H118.968V66.3611H121.954V62.3909H124.757Z" fill="white"/>
<path d="M209.312 82.7569H206.494V64.073L200.842 66.1489V63.6032L208.873 60.5877H209.312V82.7569Z" fill="white"/>
<path d="M218.813 71.695L219.935 60.6938H231.239V63.285H222.314L221.647 69.3008C222.728 68.6644 223.955 68.3462 225.329 68.3462C227.34 68.3462 228.936 69.0129 230.118 70.3464C231.3 71.6698 231.891 73.4629 231.891 75.7258C231.891 77.9988 231.274 79.7919 230.042 81.1052C228.82 82.4084 227.107 83.06 224.905 83.06C222.955 83.06 221.364 82.5195 220.132 81.4386C218.899 80.3577 218.197 78.8625 218.025 76.9532H220.677C220.849 78.216 221.298 79.1707 222.026 79.8172C222.753 80.4536 223.713 80.7719 224.905 80.7719C226.208 80.7719 227.228 80.3274 227.966 79.4384C228.713 78.5494 229.087 77.322 229.087 75.7561C229.087 74.2812 228.683 73.0993 227.875 72.2103C227.077 71.3112 226.011 70.8616 224.678 70.8616C223.455 70.8616 222.496 71.1293 221.799 71.6647L221.056 72.2709L218.813 71.695Z" fill="white"/>
<path d="M248.786 73.3468C248.786 76.63 248.226 79.0696 247.104 80.6658C245.983 82.2619 244.23 83.06 241.846 83.06C239.492 83.06 237.75 82.2821 236.618 80.7264C235.487 79.1606 234.901 76.827 234.861 73.7256V69.9827C234.861 66.7399 235.421 64.3306 236.543 62.7546C237.664 61.1787 239.422 60.3907 241.816 60.3907C244.19 60.3907 245.938 61.1534 247.059 62.6788C248.18 64.1942 248.756 66.5379 248.786 69.71V73.3468ZM245.983 69.513C245.983 67.139 245.65 65.4115 244.983 64.3306C244.316 63.2395 243.261 62.694 241.816 62.694C240.381 62.694 239.336 63.2345 238.679 64.3154C238.023 65.3963 237.684 67.0581 237.664 69.3008V73.7862C237.664 76.1703 238.007 77.9331 238.694 79.0747C239.391 80.2061 240.442 80.7719 241.846 80.7719C243.23 80.7719 244.256 80.2364 244.922 79.1656C245.599 78.0948 245.953 76.4077 245.983 74.1044V69.513Z" fill="white"/>
<path d="M328.417 82.7569H313.961V80.7416L321.598 72.2557C322.729 70.9727 323.507 69.9322 323.932 69.1341C324.366 68.326 324.583 67.4925 324.583 66.6339C324.583 65.4822 324.235 64.5377 323.538 63.8002C322.841 63.0627 321.911 62.694 320.749 62.694C319.355 62.694 318.269 63.093 317.491 63.8911C316.724 64.6791 316.34 65.7802 316.34 67.1945H313.536C313.536 65.164 314.188 63.5224 315.491 62.2697C316.804 61.017 318.557 60.3907 320.749 60.3907C322.8 60.3907 324.422 60.9312 325.614 62.0121C326.806 63.0829 327.402 64.5124 327.402 66.3005C327.402 68.4725 326.018 71.0586 323.25 74.059L317.34 80.4688H328.417V82.7569Z" fill="white"/>
<path d="M345.222 73.3468C345.222 76.63 344.661 79.0696 343.54 80.6658C342.419 82.2619 340.666 83.06 338.282 83.06C335.928 83.06 334.185 82.2821 333.054 80.7264C331.922 79.1606 331.336 76.827 331.296 73.7256V69.9827C331.296 66.7399 331.857 64.3306 332.978 62.7546C334.099 61.1787 335.857 60.3907 338.251 60.3907C340.625 60.3907 342.373 61.1534 343.494 62.6788C344.616 64.1942 345.192 66.5379 345.222 69.71V73.3468ZM342.419 69.513C342.419 67.139 342.085 65.4115 341.418 64.3306C340.752 63.2395 339.696 62.694 338.251 62.694C336.817 62.694 335.771 63.2345 335.115 64.3154C334.458 65.3963 334.12 67.0581 334.099 69.3008V73.7862C334.099 76.1703 334.443 77.9331 335.13 79.0747C335.827 80.2061 336.878 80.7719 338.282 80.7719C339.666 80.7719 340.691 80.2364 341.358 79.1656C342.035 78.0948 342.388 76.4077 342.419 74.1044V69.513Z" fill="white"/>
<path d="M362.648 73.3468C362.648 76.63 362.088 79.0696 360.966 80.6658C359.845 82.2619 358.092 83.06 355.708 83.06C353.354 83.06 351.612 82.2821 350.48 80.7264C349.349 79.1606 348.763 76.827 348.722 73.7256V69.9827C348.722 66.7399 349.283 64.3306 350.404 62.7546C351.526 61.1787 353.283 60.3907 355.678 60.3907C358.052 60.3907 359.799 61.1534 360.921 62.6788C362.042 64.1942 362.618 66.5379 362.648 69.71V73.3468ZM359.845 69.513C359.845 67.139 359.511 65.4115 358.845 64.3306C358.178 63.2395 357.122 62.694 355.678 62.694C354.243 62.694 353.198 63.2345 352.541 64.3154C351.884 65.3963 351.546 67.0581 351.526 69.3008V73.7862C351.526 76.1703 351.869 77.9331 352.556 79.0747C353.253 80.2061 354.304 80.7719 355.708 80.7719C357.092 80.7719 358.117 80.2364 358.784 79.1656C359.461 78.0948 359.815 76.4077 359.845 74.1044V69.513Z" fill="white"/>
<path d="M488.466 82.7569H474.01V80.7416L481.647 72.2557C482.778 70.9727 483.556 69.9322 483.98 69.1341C484.415 68.326 484.632 67.4925 484.632 66.6339C484.632 65.4822 484.284 64.5377 483.586 63.8002C482.889 63.0627 481.96 62.694 480.798 62.694C479.404 62.694 478.318 63.093 477.54 63.8911C476.773 64.6791 476.389 65.7802 476.389 67.1945H473.585C473.585 65.164 474.237 63.5224 475.54 62.2697C476.853 61.017 478.606 60.3907 480.798 60.3907C482.849 60.3907 484.47 60.9312 485.663 62.0121C486.855 63.0829 487.451 64.5124 487.451 66.3005C487.451 68.4725 486.067 71.0586 483.299 74.059L477.389 80.4688H488.466V82.7569Z" fill="white"/>
<path d="M492.724 71.695L493.845 60.6938H505.15V63.285H496.224L495.558 69.3008C496.639 68.6644 497.866 68.3462 499.24 68.3462C501.25 68.3462 502.846 69.0129 504.028 70.3464C505.21 71.6698 505.801 73.4629 505.801 75.7258C505.801 77.9988 505.185 79.7919 503.953 81.1052C502.73 82.4084 501.018 83.06 498.816 83.06C496.866 83.06 495.275 82.5195 494.042 81.4386C492.81 80.3577 492.108 78.8625 491.936 76.9532H494.588C494.76 78.216 495.209 79.1707 495.936 79.8172C496.664 80.4536 497.623 80.7719 498.816 80.7719C500.119 80.7719 501.139 80.3274 501.876 79.4384C502.624 78.5494 502.998 77.322 502.998 75.7561C502.998 74.2812 502.594 73.0993 501.786 72.2103C500.988 71.3112 499.922 70.8616 498.588 70.8616C497.366 70.8616 496.406 71.1293 495.709 71.6647L494.967 72.2709L492.724 71.695Z" fill="white"/>
<path d="M522.697 73.3468C522.697 76.63 522.136 79.0696 521.015 80.6658C519.894 82.2619 518.141 83.06 515.757 83.06C513.403 83.06 511.66 82.2821 510.529 80.7264C509.398 79.1606 508.812 76.827 508.771 73.7256V69.9827C508.771 66.7399 509.332 64.3306 510.453 62.7546C511.575 61.1787 513.332 60.3907 515.727 60.3907C518.101 60.3907 519.848 61.1534 520.97 62.6788C522.091 64.1942 522.667 66.5379 522.697 69.71V73.3468ZM519.894 69.513C519.894 67.139 519.56 65.4115 518.894 64.3306C518.227 63.2395 517.171 62.694 515.727 62.694C514.292 62.694 513.247 63.2345 512.59 64.3154C511.933 65.3963 511.595 67.0581 511.575 69.3008V73.7862C511.575 76.1703 511.918 77.9331 512.605 79.0747C513.302 80.2061 514.353 80.7719 515.757 80.7719C517.141 80.7719 518.166 80.2364 518.833 79.1656C519.51 78.0948 519.863 76.4077 519.894 74.1044V69.513Z" fill="white"/>
<path d="M610.025 82.7569H595.569V80.7416L603.206 72.2557C604.338 70.9727 605.116 69.9322 605.54 69.1341C605.974 68.326 606.192 67.4925 606.192 66.6339C606.192 65.4822 605.843 64.5377 605.146 63.8002C604.449 63.0627 603.52 62.694 602.358 62.694C600.964 62.694 599.878 63.093 599.1 63.8911C598.332 64.6791 597.948 65.7802 597.948 67.1945H595.145C595.145 65.164 595.796 63.5224 597.1 62.2697C598.413 61.017 600.166 60.3907 602.358 60.3907C604.409 60.3907 606.03 60.9312 607.222 62.0121C608.414 63.0829 609.01 64.5124 609.01 66.3005C609.01 68.4725 607.626 71.0586 604.858 74.059L598.948 80.4688H610.025V82.7569Z" fill="white"/>
<path d="M626.83 73.3468C626.83 76.63 626.27 79.0696 625.148 80.6658C624.027 82.2619 622.274 83.06 619.89 83.06C617.536 83.06 615.794 82.2821 614.662 80.7264C613.531 79.1606 612.945 76.827 612.905 73.7256V69.9827C612.905 66.7399 613.465 64.3306 614.587 62.7546C615.708 61.1787 617.466 60.3907 619.86 60.3907C622.234 60.3907 623.982 61.1534 625.103 62.6788C626.224 64.1942 626.8 66.5379 626.83 69.71V73.3468ZM624.027 69.513C624.027 67.139 623.694 65.4115 623.027 64.3306C622.36 63.2395 621.305 62.694 619.86 62.694C618.425 62.694 617.38 63.2345 616.723 64.3154C616.067 65.3963 615.728 67.0581 615.708 69.3008V73.7862C615.708 76.1703 616.051 77.9331 616.738 79.0747C617.435 80.2061 618.486 80.7719 619.89 80.7719C621.274 80.7719 622.3 80.2364 622.966 79.1656C623.643 78.0948 623.997 76.4077 624.027 74.1044V69.513Z" fill="white"/>
<path d="M644.257 73.3468C644.257 76.63 643.696 79.0696 642.575 80.6658C641.453 82.2619 639.701 83.06 637.316 83.06C634.963 83.06 633.22 82.2821 632.089 80.7264C630.957 79.1606 630.371 76.827 630.331 73.7256V69.9827C630.331 66.7399 630.891 64.3306 632.013 62.7546C633.134 61.1787 634.892 60.3907 637.286 60.3907C639.66 60.3907 641.408 61.1534 642.529 62.6788C643.651 64.1942 644.226 66.5379 644.257 69.71V73.3468ZM641.453 69.513C641.453 67.139 641.12 65.4115 640.453 64.3306C639.786 63.2395 638.731 62.694 637.286 62.694C635.852 62.694 634.806 63.2345 634.149 64.3154C633.493 65.3963 633.154 67.0581 633.134 69.3008V73.7862C633.134 76.1703 633.478 77.9331 634.165 79.0747C634.862 80.2061 635.912 80.7719 637.316 80.7719C638.7 80.7719 639.726 80.2364 640.393 79.1656C641.069 78.0948 641.423 76.4077 641.453 74.1044V69.513Z" fill="white"/>
<path d="M30.1247 119.564H20.8661V129.308H17.9567V107.245H31.6249V109.639H20.8661V117.185H30.1247V119.564Z" fill="white"/>
<path d="M44.4597 127.686C43.3687 128.969 41.7675 129.611 39.6561 129.611C37.9085 129.611 36.575 129.106 35.6557 128.096C34.7465 127.075 34.2868 125.57 34.2767 123.58V112.912H37.0801V123.504C37.0801 125.989 38.0903 127.232 40.1107 127.232C42.2524 127.232 43.6768 126.434 44.384 124.838V112.912H47.1873V129.308H44.5203L44.4597 127.686ZM42.1867 106.032H45.5811L41.52 110.487H39.2622L42.1867 106.032Z" fill="white"/>
<path d="M55.264 108.942V112.912H58.325V115.079H55.264V125.247C55.264 125.903 55.4004 126.398 55.6732 126.732C55.9459 127.055 56.4106 127.217 57.0673 127.217C57.3905 127.217 57.835 127.156 58.4007 127.035V129.308C57.6633 129.51 56.946 129.611 56.249 129.611C54.9963 129.611 54.0518 129.232 53.4153 128.474C52.7789 127.717 52.4607 126.641 52.4607 125.247V115.079H49.4755V112.912H52.4607V108.942H55.264Z" fill="white"/>
<path d="M75.4936 121.292C75.4936 123.797 74.9178 125.812 73.7662 127.338C72.6145 128.853 71.0689 129.611 69.1293 129.611C67.0583 129.611 65.4571 128.878 64.3257 127.414L64.1893 129.308H61.6132V106.032H64.4166V114.715C65.548 113.311 67.1088 112.609 69.099 112.609C71.0891 112.609 72.6499 113.362 73.7813 114.867C74.9229 116.372 75.4936 118.433 75.4936 121.049V121.292ZM72.6903 120.974C72.6903 119.064 72.3216 117.589 71.5841 116.549C70.8466 115.508 69.7859 114.988 68.4019 114.988C66.5532 114.988 65.2248 115.847 64.4166 117.564V124.656C65.2753 126.373 66.6138 127.232 68.4322 127.232C69.7758 127.232 70.8214 126.712 71.5689 125.671C72.3165 124.63 72.6903 123.065 72.6903 120.974Z" fill="white"/>
<path d="M78.297 120.958C78.297 119.352 78.6102 117.907 79.2365 116.625C79.8729 115.342 80.7518 114.352 81.8732 113.654C83.0046 112.957 84.2926 112.609 85.7373 112.609C87.9698 112.609 89.7731 113.382 91.147 114.927C92.531 116.473 93.223 118.529 93.223 121.095V121.292C93.223 122.888 92.9149 124.322 92.2986 125.595C91.6925 126.858 90.8187 127.843 89.6771 128.55C88.5457 129.257 87.2425 129.611 85.7676 129.611C83.5451 129.611 81.7418 128.838 80.3578 127.292C78.9839 125.747 78.297 123.701 78.297 121.155V120.958ZM81.1155 121.292C81.1155 123.11 81.5347 124.57 82.3732 125.671C83.2218 126.772 84.3533 127.323 85.7676 127.323C87.192 127.323 88.3234 126.767 89.1619 125.656C90.0004 124.535 90.4196 122.969 90.4196 120.958C90.4196 119.16 89.9903 117.705 89.1316 116.594C88.283 115.473 87.1516 114.912 85.7373 114.912C84.3533 114.912 83.237 115.463 82.3884 116.564C81.5398 117.665 81.1155 119.241 81.1155 121.292Z" fill="white"/>
<path d="M99.7843 129.308H96.981V106.032H99.7843V129.308Z" fill="white"/>
<path d="M215.904 121.898H218.965V124.186H215.904V129.308H213.085V124.186H203.039V122.534L212.919 107.245H215.904V121.898ZM206.221 121.898H213.085V111.078L212.752 111.685L206.221 121.898Z" fill="white"/>
<path d="M235.33 119.898C235.33 123.181 234.77 125.621 233.648 127.217C232.527 128.813 230.774 129.611 228.39 129.611C226.036 129.611 224.294 128.833 223.162 127.277C222.031 125.711 221.445 123.378 221.405 120.276V116.534C221.405 113.291 221.965 110.881 223.087 109.305C224.208 107.73 225.966 106.942 228.36 106.942C230.734 106.942 232.482 107.704 233.603 109.23C234.724 110.745 235.3 113.089 235.33 116.261V119.898ZM232.527 116.064C232.527 113.69 232.194 111.962 231.527 110.881C230.86 109.79 229.804 109.245 228.36 109.245C226.925 109.245 225.88 109.785 225.223 110.866C224.567 111.947 224.228 113.609 224.208 115.852V120.337C224.208 122.721 224.551 124.484 225.238 125.626C225.935 126.757 226.986 127.323 228.39 127.323C229.774 127.323 230.8 126.787 231.466 125.716C232.143 124.646 232.497 122.959 232.527 120.655V116.064Z" fill="white"/>
<path d="M252.757 119.898C252.757 123.181 252.196 125.621 251.075 127.217C249.953 128.813 248.201 129.611 245.816 129.611C243.463 129.611 241.72 128.833 240.589 127.277C239.457 125.711 238.871 123.378 238.831 120.276V116.534C238.831 113.291 239.391 110.881 240.513 109.305C241.634 107.73 243.392 106.942 245.786 106.942C248.16 106.942 249.908 107.704 251.029 109.23C252.151 110.745 252.726 113.089 252.757 116.261V119.898ZM249.953 116.064C249.953 113.69 249.62 111.962 248.953 110.881C248.286 109.79 247.231 109.245 245.786 109.245C244.352 109.245 243.306 109.785 242.649 110.866C241.993 111.947 241.654 113.609 241.634 115.852V120.337C241.634 122.721 241.978 124.484 242.665 125.626C243.362 126.757 244.412 127.323 245.816 127.323C247.2 127.323 248.226 126.787 248.893 125.716C249.569 124.646 249.923 122.959 249.953 120.655V116.064Z" fill="white"/>
<path d="M322.007 116.912H324.113C325.437 116.892 326.477 116.544 327.235 115.867C327.993 115.19 328.371 114.276 328.371 113.124C328.371 110.538 327.083 109.245 324.507 109.245C323.295 109.245 322.325 109.593 321.598 110.29C320.881 110.977 320.522 111.892 320.522 113.033H317.719C317.719 111.286 318.355 109.836 319.628 108.684C320.911 107.522 322.537 106.942 324.507 106.942C326.588 106.942 328.22 107.492 329.402 108.593C330.584 109.694 331.175 111.225 331.175 113.185C331.175 114.144 330.862 115.074 330.235 115.973C329.619 116.872 328.776 117.544 327.705 117.988C328.917 118.372 329.851 119.009 330.508 119.898C331.175 120.787 331.508 121.873 331.508 123.156C331.508 125.136 330.862 126.706 329.569 127.868C328.276 129.03 326.594 129.611 324.523 129.611C322.452 129.611 320.765 129.05 319.461 127.929C318.168 126.808 317.522 125.328 317.522 123.489H320.34C320.34 124.651 320.719 125.58 321.477 126.277C322.234 126.974 323.25 127.323 324.523 127.323C325.876 127.323 326.912 126.969 327.629 126.262C328.346 125.555 328.705 124.54 328.705 123.216C328.705 121.933 328.311 120.948 327.523 120.261C326.735 119.574 325.598 119.221 324.113 119.201H322.007V116.912Z" fill="white"/>
<path d="M336.645 118.246L337.767 107.245H349.071V109.836H340.146L339.479 115.852C340.56 115.215 341.787 114.897 343.161 114.897C345.171 114.897 346.768 115.564 347.95 116.897C349.131 118.221 349.722 120.014 349.722 122.277C349.722 124.55 349.106 126.343 347.874 127.656C346.651 128.959 344.939 129.611 342.737 129.611C340.787 129.611 339.196 129.07 337.964 127.989C336.731 126.909 336.029 125.413 335.857 123.504H338.509C338.681 124.767 339.13 125.722 339.858 126.368C340.585 127.005 341.545 127.323 342.737 127.323C344.04 127.323 345.06 126.878 345.798 125.989C346.545 125.1 346.919 123.873 346.919 122.307C346.919 120.832 346.515 119.65 345.707 118.761C344.909 117.862 343.843 117.412 342.509 117.412C341.287 117.412 340.327 117.68 339.63 118.216L338.888 118.822L336.645 118.246Z" fill="white"/>
<path d="M366.618 119.898C366.618 123.181 366.058 125.621 364.936 127.217C363.815 128.813 362.062 129.611 359.678 129.611C357.324 129.611 355.582 128.833 354.45 127.277C353.319 125.711 352.733 123.378 352.693 120.276V116.534C352.693 113.291 353.253 110.881 354.375 109.305C355.496 107.73 357.254 106.942 359.648 106.942C362.022 106.942 363.77 107.704 364.891 109.23C366.012 110.745 366.588 113.089 366.618 116.261V119.898ZM363.815 116.064C363.815 113.69 363.482 111.962 362.815 110.881C362.148 109.79 361.092 109.245 359.648 109.245C358.213 109.245 357.168 109.785 356.511 110.866C355.854 111.947 355.516 113.609 355.496 115.852V120.337C355.496 122.721 355.839 124.484 356.526 125.626C357.223 126.757 358.274 127.323 359.678 127.323C361.062 127.323 362.088 126.787 362.754 125.716C363.431 124.646 363.785 122.959 363.815 120.655V116.064Z" fill="white"/>
<path d="M492.436 129.308H477.98V127.292L485.617 118.807C486.748 117.524 487.526 116.483 487.951 115.685C488.385 114.877 488.602 114.043 488.602 113.185C488.602 112.033 488.254 111.089 487.557 110.351C486.86 109.614 485.93 109.245 484.768 109.245C483.374 109.245 482.288 109.644 481.51 110.442C480.743 111.23 480.359 112.331 480.359 113.745H477.555C477.555 111.715 478.207 110.073 479.51 108.821C480.824 107.568 482.576 106.942 484.768 106.942C486.819 106.942 488.441 107.482 489.633 108.563C490.825 109.634 491.421 111.063 491.421 112.851C491.421 115.023 490.037 117.609 487.269 120.61L481.359 127.02H492.436V129.308Z" fill="white"/>
<path d="M496.694 118.246L497.815 107.245H509.12V109.836H500.194L499.528 115.852C500.609 115.215 501.836 114.897 503.21 114.897C505.22 114.897 506.816 115.564 507.998 116.897C509.18 118.221 509.771 120.014 509.771 122.277C509.771 124.55 509.155 126.343 507.923 127.656C506.7 128.959 504.988 129.611 502.786 129.611C500.836 129.611 499.245 129.07 498.012 127.989C496.78 126.909 496.078 125.413 495.906 123.504H498.558C498.73 124.767 499.179 125.722 499.907 126.368C500.634 127.005 501.594 127.323 502.786 127.323C504.089 127.323 505.109 126.878 505.847 125.989C506.594 125.1 506.968 123.873 506.968 122.307C506.968 120.832 506.564 119.65 505.756 118.761C504.958 117.862 503.892 117.412 502.558 117.412C501.336 117.412 500.376 117.68 499.679 118.216L498.937 118.822L496.694 118.246Z" fill="white"/>
<path d="M526.667 119.898C526.667 123.181 526.107 125.621 524.985 127.217C523.864 128.813 522.111 129.611 519.727 129.611C517.373 129.611 515.631 128.833 514.499 127.277C513.368 125.711 512.782 123.378 512.741 120.276V116.534C512.741 113.291 513.302 110.881 514.423 109.305C515.545 107.73 517.303 106.942 519.697 106.942C522.071 106.942 523.818 107.704 524.94 109.23C526.061 110.745 526.637 113.089 526.667 116.261V119.898ZM523.864 116.064C523.864 113.69 523.531 111.962 522.864 110.881C522.197 109.79 521.141 109.245 519.697 109.245C518.262 109.245 517.217 109.785 516.56 110.866C515.903 111.947 515.565 113.609 515.545 115.852V120.337C515.545 122.721 515.888 124.484 516.575 125.626C517.272 126.757 518.323 127.323 519.727 127.323C521.111 127.323 522.136 126.787 522.803 125.716C523.48 124.646 523.834 122.959 523.864 120.655V116.064Z" fill="white"/>
<path d="M603.616 116.912H605.722C607.045 116.892 608.086 116.544 608.843 115.867C609.601 115.19 609.98 114.276 609.98 113.124C609.98 110.538 608.692 109.245 606.116 109.245C604.904 109.245 603.934 109.593 603.206 110.29C602.489 110.977 602.131 111.892 602.131 113.033H599.327C599.327 111.286 599.964 109.836 601.237 108.684C602.519 107.522 604.146 106.942 606.116 106.942C608.197 106.942 609.828 107.492 611.01 108.593C612.192 109.694 612.783 111.225 612.783 113.185C612.783 114.144 612.47 115.074 611.844 115.973C611.228 116.872 610.384 117.544 609.313 117.988C610.525 118.372 611.46 119.009 612.117 119.898C612.783 120.787 613.117 121.873 613.117 123.156C613.117 125.136 612.47 126.706 611.177 127.868C609.884 129.03 608.202 129.611 606.131 129.611C604.06 129.611 602.373 129.05 601.07 127.929C599.777 126.808 599.13 125.328 599.13 123.489H601.949C601.949 124.651 602.328 125.58 603.085 126.277C603.843 126.974 604.858 127.323 606.131 127.323C607.485 127.323 608.52 126.969 609.237 126.262C609.955 125.555 610.313 124.54 610.313 123.216C610.313 121.933 609.919 120.948 609.131 120.261C608.343 119.574 607.207 119.221 605.722 119.201H603.616V116.912Z" fill="white"/>
<path d="M630.801 119.898C630.801 123.181 630.24 125.621 629.119 127.217C627.997 128.813 626.244 129.611 623.86 129.611C621.507 129.611 619.764 128.833 618.633 127.277C617.501 125.711 616.915 123.378 616.875 120.276V116.534C616.875 113.291 617.435 110.881 618.557 109.305C619.678 107.73 621.436 106.942 623.83 106.942C626.204 106.942 627.952 107.704 629.073 109.23C630.194 110.745 630.77 113.089 630.801 116.261V119.898ZM627.997 116.064C627.997 113.69 627.664 111.962 626.997 110.881C626.33 109.79 625.275 109.245 623.83 109.245C622.396 109.245 621.35 109.785 620.693 110.866C620.037 111.947 619.698 113.609 619.678 115.852V120.337C619.678 122.721 620.022 124.484 620.708 125.626C621.406 126.757 622.456 127.323 623.86 127.323C625.244 127.323 626.27 126.787 626.936 125.716C627.613 124.646 627.967 122.959 627.997 120.655V116.064Z" fill="white"/>
<path d="M648.227 119.898C648.227 123.181 647.666 125.621 646.545 127.217C645.423 128.813 643.671 129.611 641.287 129.611C638.933 129.611 637.19 128.833 636.059 127.277C634.927 125.711 634.341 123.378 634.301 120.276V116.534C634.301 113.291 634.862 110.881 635.983 109.305C637.104 107.73 638.862 106.942 641.256 106.942C643.63 106.942 645.378 107.704 646.499 109.23C647.621 110.745 648.197 113.089 648.227 116.261V119.898ZM645.423 116.064C645.423 113.69 645.09 111.962 644.423 110.881C643.757 109.79 642.701 109.245 641.256 109.245C639.822 109.245 638.776 109.785 638.12 110.866C637.463 111.947 637.125 113.609 637.104 115.852V120.337C637.104 122.721 637.448 124.484 638.135 125.626C638.832 126.757 639.882 127.323 641.287 127.323C642.671 127.323 643.696 126.787 644.363 125.716C645.04 124.646 645.393 122.959 645.423 120.655V116.064Z" fill="white"/>
<path d="M32.5947 156.19H25.503V175.859H22.6087V156.19H15.5321V153.796H32.5947V156.19Z" fill="white"/>
<path d="M40.7169 176.162C38.4944 176.162 36.6861 175.434 35.292 173.98C33.8979 172.515 33.2008 170.56 33.2008 168.115V167.6C33.2008 165.974 33.509 164.524 34.1252 163.251C34.7515 161.968 35.6203 160.968 36.7316 160.251C37.8529 159.523 39.0652 159.16 40.3683 159.16C42.4999 159.16 44.1567 159.862 45.3386 161.266C46.5206 162.67 47.1116 164.681 47.1116 167.297V168.464H36.0042C36.0446 170.08 36.5144 171.388 37.4135 172.389C38.3227 173.379 39.4743 173.874 40.8684 173.874C41.8584 173.874 42.6969 173.672 43.3839 173.267C44.0708 172.863 44.6719 172.328 45.1871 171.661L46.8994 172.995C45.5255 175.106 43.4647 176.162 40.7169 176.162ZM40.3683 161.463C39.2369 161.463 38.2873 161.877 37.5195 162.706C36.7518 163.524 36.277 164.676 36.0951 166.161H44.3082V165.948C44.2274 164.524 43.8435 163.423 43.1566 162.645C42.4696 161.857 41.5402 161.463 40.3683 161.463Z" fill="white"/>
<path d="M53.0213 159.463L53.1123 161.524C54.3649 159.948 56.0015 159.16 58.0219 159.16C61.487 159.16 63.2346 161.115 63.2649 165.024V175.859H60.4616V165.009C60.4515 163.827 60.1787 162.953 59.6433 162.387C59.118 161.822 58.2947 161.539 57.1733 161.539C56.2641 161.539 55.4661 161.781 54.7791 162.266C54.0922 162.751 53.5567 163.388 53.1729 164.175V175.859H50.3695V159.463H53.0213Z" fill="white"/>
<path d="M70.5385 175.859H67.7352V159.463H70.5385V175.859ZM67.5079 155.114C67.5079 154.659 67.6442 154.275 67.917 153.962C68.1999 153.649 68.6141 153.492 69.1596 153.492C69.7051 153.492 70.1193 153.649 70.4021 153.962C70.685 154.275 70.8264 154.659 70.8264 155.114C70.8264 155.568 70.685 155.947 70.4021 156.25C70.1193 156.553 69.7051 156.705 69.1596 156.705C68.6141 156.705 68.1999 156.553 67.917 156.25C67.6442 155.947 67.5079 155.568 67.5079 155.114Z" fill="white"/>
<path d="M84.5856 171.51C84.5856 170.752 84.2977 170.166 83.7219 169.752C83.1561 169.328 82.1611 168.964 80.7367 168.661C79.3224 168.358 78.196 167.994 77.3575 167.57C76.5291 167.146 75.9129 166.64 75.5088 166.054C75.1148 165.469 74.9178 164.772 74.9178 163.963C74.9178 162.62 75.4835 161.483 76.615 160.554C77.7565 159.624 79.2112 159.16 80.9791 159.16C82.8379 159.16 84.3432 159.64 85.4948 160.599C86.6566 161.559 87.2374 162.786 87.2374 164.282H84.4189C84.4189 163.514 84.0906 162.852 83.434 162.296C82.7874 161.741 81.9691 161.463 80.9791 161.463C79.9588 161.463 79.1607 161.685 78.5849 162.13C78.0091 162.574 77.7212 163.155 77.7212 163.872C77.7212 164.549 77.9889 165.059 78.5243 165.403C79.0597 165.746 80.0245 166.075 81.4186 166.388C82.8228 166.701 83.9593 167.075 84.8281 167.509C85.6968 167.944 86.3383 168.469 86.7525 169.085C87.1768 169.691 87.389 170.434 87.389 171.313C87.389 172.777 86.803 173.954 85.6312 174.843C84.4593 175.722 82.9389 176.162 81.07 176.162C79.7568 176.162 78.595 175.929 77.5848 175.465C76.5746 175 75.7816 174.353 75.2057 173.525C74.64 172.687 74.3571 171.782 74.3571 170.813H77.1605C77.211 171.752 77.5848 172.5 78.2818 173.055C78.989 173.601 79.9184 173.874 81.07 173.874C82.1308 173.874 82.9794 173.661 83.6158 173.237C84.2623 172.803 84.5856 172.227 84.5856 171.51Z" fill="white"/>
<path d="M227.299 159.554C227.299 160.655 227.006 161.635 226.42 162.493C225.844 163.352 225.062 164.024 224.072 164.509C225.223 165.004 226.132 165.726 226.799 166.676C227.476 167.625 227.814 168.701 227.814 169.903C227.814 171.813 227.168 173.333 225.875 174.465C224.592 175.596 222.9 176.162 220.798 176.162C218.677 176.162 216.975 175.596 215.692 174.465C214.419 173.323 213.782 171.803 213.782 169.903C213.782 168.711 214.106 167.635 214.752 166.676C215.409 165.716 216.313 164.989 217.465 164.494C216.485 164.009 215.712 163.337 215.146 162.478C214.581 161.62 214.298 160.645 214.298 159.554C214.298 157.695 214.894 156.22 216.086 155.129C217.278 154.038 218.849 153.492 220.798 153.492C222.738 153.492 224.304 154.038 225.496 155.129C226.698 156.22 227.299 157.695 227.299 159.554ZM225.011 169.843C225.011 168.61 224.617 167.605 223.829 166.827C223.051 166.049 222.031 165.661 220.768 165.661C219.505 165.661 218.49 166.044 217.722 166.812C216.965 167.58 216.586 168.59 216.586 169.843C216.586 171.095 216.955 172.08 217.692 172.798C218.44 173.515 219.475 173.874 220.798 173.874C222.112 173.874 223.142 173.515 223.89 172.798C224.637 172.07 225.011 171.085 225.011 169.843ZM220.798 155.796C219.697 155.796 218.803 156.139 218.116 156.826C217.439 157.503 217.101 158.427 217.101 159.599C217.101 160.721 217.434 161.63 218.101 162.327C218.778 163.014 219.677 163.357 220.798 163.357C221.92 163.357 222.814 163.014 223.481 162.327C224.157 161.63 224.496 160.721 224.496 159.599C224.496 158.478 224.147 157.564 223.45 156.856C222.753 156.149 221.869 155.796 220.798 155.796Z" fill="white"/>
<path d="M245.18 166.448C245.18 169.732 244.619 172.171 243.498 173.768C242.377 175.364 240.624 176.162 238.24 176.162C235.886 176.162 234.143 175.384 233.012 173.828C231.88 172.262 231.295 169.929 231.254 166.827V163.084C231.254 159.842 231.815 157.432 232.936 155.856C234.058 154.28 235.815 153.492 238.21 153.492C240.584 153.492 242.331 154.255 243.453 155.781C244.574 157.296 245.15 159.64 245.18 162.812V166.448ZM242.377 162.615C242.377 160.241 242.043 158.513 241.377 157.432C240.71 156.341 239.654 155.796 238.21 155.796C236.775 155.796 235.729 156.336 235.073 157.417C234.416 158.498 234.078 160.16 234.058 162.403V166.888C234.058 169.272 234.401 171.035 235.088 172.176C235.785 173.308 236.836 173.874 238.24 173.874C239.624 173.874 240.649 173.338 241.316 172.267C241.993 171.197 242.346 169.509 242.377 167.206V162.615Z" fill="white"/>
<path d="M327.265 175.859H324.447V157.175L318.795 159.251V156.705L326.826 153.689H327.265V175.859Z" fill="white"/>
<path d="M349.313 166.448C349.313 169.732 348.753 172.171 347.631 173.768C346.51 175.364 344.757 176.162 342.373 176.162C340.019 176.162 338.277 175.384 337.145 173.828C336.014 172.262 335.428 169.929 335.387 166.827V163.084C335.387 159.842 335.948 157.432 337.069 155.856C338.191 154.28 339.949 153.492 342.343 153.492C344.717 153.492 346.465 154.255 347.586 155.781C348.707 157.296 349.283 159.64 349.313 162.812V166.448ZM346.51 162.615C346.51 160.241 346.177 158.513 345.51 157.432C344.843 156.341 343.787 155.796 342.343 155.796C340.908 155.796 339.863 156.336 339.206 157.417C338.549 158.498 338.211 160.16 338.191 162.403V166.888C338.191 169.272 338.534 171.035 339.221 172.176C339.918 173.308 340.969 173.874 342.373 173.874C343.757 173.874 344.783 173.338 345.449 172.267C346.126 171.197 346.48 169.509 346.51 167.206V162.615Z" fill="white"/>
<path d="M366.74 166.448C366.74 169.732 366.179 172.171 365.058 173.768C363.936 175.364 362.183 176.162 359.799 176.162C357.446 176.162 355.703 175.384 354.572 173.828C353.44 172.262 352.854 169.929 352.814 166.827V163.084C352.814 159.842 353.374 157.432 354.496 155.856C355.617 154.28 357.375 153.492 359.769 153.492C362.143 153.492 363.891 154.255 365.012 155.781C366.133 157.296 366.709 159.64 366.74 162.812V166.448ZM363.936 162.615C363.936 160.241 363.603 158.513 362.936 157.432C362.269 156.341 361.214 155.796 359.769 155.796C358.335 155.796 357.289 156.336 356.632 157.417C355.976 158.498 355.637 160.16 355.617 162.403V166.888C355.617 169.272 355.961 171.035 356.648 172.176C357.345 173.308 358.395 173.874 359.799 173.874C361.183 173.874 362.209 173.338 362.876 172.267C363.552 171.197 363.906 169.509 363.936 167.206V162.615Z" fill="white"/>
<path d="M487.314 175.859H484.496V157.175L478.844 159.251V156.705L486.875 153.689H487.314V175.859Z" fill="white"/>
<path d="M509.983 175.859H495.527V173.843L503.165 165.357C504.296 164.074 505.074 163.034 505.498 162.236C505.933 161.428 506.15 160.594 506.15 159.736C506.15 158.584 505.801 157.639 505.104 156.902C504.407 156.164 503.478 155.796 502.316 155.796C500.922 155.796 499.836 156.195 499.058 156.993C498.29 157.781 497.906 158.882 497.906 160.296H495.103C495.103 158.266 495.755 156.624 497.058 155.371C498.371 154.119 500.124 153.492 502.316 153.492C504.367 153.492 505.988 154.033 507.18 155.114C508.372 156.185 508.968 157.614 508.968 159.402C508.968 161.574 507.584 164.16 504.816 167.161L498.906 173.571H509.983V175.859Z" fill="white"/>
<path d="M526.789 166.448C526.789 169.732 526.228 172.171 525.106 173.768C523.985 175.364 522.232 176.162 519.848 176.162C517.494 176.162 515.752 175.384 514.62 173.828C513.489 172.262 512.903 169.929 512.863 166.827V163.084C512.863 159.842 513.423 157.432 514.545 155.856C515.666 154.28 517.424 153.492 519.818 153.492C522.192 153.492 523.94 154.255 525.061 155.781C526.182 157.296 526.758 159.64 526.789 162.812V166.448ZM523.985 162.615C523.985 160.241 523.652 158.513 522.985 157.432C522.318 156.341 521.263 155.796 519.818 155.796C518.383 155.796 517.338 156.336 516.681 157.417C516.025 158.498 515.686 160.16 515.666 162.403V166.888C515.666 169.272 516.009 171.035 516.696 172.176C517.393 173.308 518.444 173.874 519.848 173.874C521.232 173.874 522.258 173.338 522.924 172.267C523.601 171.197 523.955 169.509 523.985 167.206V162.615Z" fill="white"/>
<path d="M614.117 175.859H599.661V173.843L607.298 165.357C608.429 164.074 609.207 163.034 609.631 162.236C610.066 161.428 610.283 160.594 610.283 159.736C610.283 158.584 609.934 157.639 609.237 156.902C608.54 156.164 607.611 155.796 606.449 155.796C605.055 155.796 603.969 156.195 603.191 156.993C602.424 157.781 602.04 158.882 602.04 160.296H599.236C599.236 158.266 599.888 156.624 601.191 155.371C602.504 154.119 604.257 153.492 606.449 153.492C608.5 153.492 610.121 154.033 611.313 155.114C612.506 156.185 613.102 157.614 613.102 159.402C613.102 161.574 611.718 164.16 608.95 167.161L603.04 173.571H614.117V175.859Z" fill="white"/>
<path d="M630.922 166.448C630.922 169.732 630.361 172.171 629.24 173.768C628.118 175.364 626.366 176.162 623.982 176.162C621.628 176.162 619.885 175.384 618.754 173.828C617.622 172.262 617.036 169.929 616.996 166.827V163.084C616.996 159.842 617.557 157.432 618.678 155.856C619.799 154.28 621.557 153.492 623.951 153.492C626.325 153.492 628.073 154.255 629.194 155.781C630.316 157.296 630.892 159.64 630.922 162.812V166.448ZM628.118 162.615C628.118 160.241 627.785 158.513 627.118 157.432C626.452 156.341 625.396 155.796 623.951 155.796C622.517 155.796 621.471 156.336 620.815 157.417C620.158 158.498 619.82 160.16 619.799 162.403V166.888C619.799 169.272 620.143 171.035 620.83 172.176C621.527 173.308 622.577 173.874 623.982 173.874C625.366 173.874 626.391 173.338 627.058 172.267C627.735 171.197 628.088 169.509 628.118 167.206V162.615Z" fill="white"/>
<path d="M648.348 166.448C648.348 169.732 647.787 172.171 646.666 173.768C645.545 175.364 643.792 176.162 641.408 176.162C639.054 176.162 637.311 175.384 636.18 173.828C635.049 172.262 634.463 169.929 634.422 166.827V163.084C634.422 159.842 634.983 157.432 636.104 155.856C637.226 154.28 638.983 153.492 641.378 153.492C643.752 153.492 645.499 154.255 646.621 155.781C647.742 157.296 648.318 159.64 648.348 162.812V166.448ZM645.545 162.615C645.545 160.241 645.211 158.513 644.545 157.432C643.878 156.341 642.822 155.796 641.378 155.796C639.943 155.796 638.897 156.336 638.241 157.417C637.584 158.498 637.246 160.16 637.226 162.403V166.888C637.226 169.272 637.569 171.035 638.256 172.176C638.953 173.308 640.004 173.874 641.408 173.874C642.792 173.874 643.817 173.338 644.484 172.267C645.161 171.197 645.514 169.509 645.545 167.206V162.615Z" fill="white"/>
<path d="M17.9567 222.41V200.346H25.1696C27.5638 200.346 29.362 200.841 30.5642 201.831C31.7764 202.821 32.3826 204.286 32.3826 206.226C32.3826 207.256 32.0896 208.17 31.5037 208.969C30.9178 209.757 30.1197 210.368 29.1095 210.802C30.3015 211.135 31.241 211.772 31.928 212.711C32.625 213.641 32.9735 214.752 32.9735 216.045C32.9735 218.025 32.3321 219.581 31.0491 220.712C29.7661 221.844 27.9528 222.41 25.6091 222.41H17.9567ZM20.8661 212.09V220.03H25.6697C27.0234 220.03 28.0891 219.682 28.867 218.985C29.655 218.278 30.049 217.308 30.049 216.075C30.049 213.419 28.6044 212.09 25.7151 212.09H20.8661ZM20.8661 209.757H25.2605C26.5334 209.757 27.5487 209.438 28.3063 208.802C29.0741 208.165 29.458 207.302 29.458 206.211C29.458 204.998 29.1044 204.12 28.3973 203.574C27.6901 203.018 26.6142 202.741 25.1696 202.741H20.8661V209.757Z" fill="white"/>
<path d="M46.9752 222.41C46.8135 222.086 46.6822 221.51 46.5812 220.682C45.278 222.036 43.7223 222.713 41.914 222.713C40.2976 222.713 38.9692 222.258 37.9287 221.349C36.8982 220.43 36.383 219.268 36.383 217.864C36.383 216.156 37.0296 214.833 38.3227 213.893C39.6258 212.944 41.4543 212.469 43.8081 212.469H46.5357V211.181C46.5357 210.201 46.2428 209.423 45.6568 208.847C45.0709 208.261 44.2072 207.968 43.0656 207.968C42.0655 207.968 41.227 208.221 40.5502 208.726C39.8733 209.231 39.5349 209.842 39.5349 210.56H36.7164C36.7164 209.741 37.0043 208.953 37.5801 208.196C38.1661 207.428 38.954 206.822 39.9441 206.377C40.9442 205.933 42.0403 205.711 43.2323 205.711C45.1214 205.711 46.6014 206.185 47.6722 207.135C48.7431 208.075 49.2987 209.373 49.3391 211.029V218.576C49.3391 220.081 49.531 221.278 49.9149 222.167V222.41H46.9752ZM42.3231 220.273C43.202 220.273 44.0354 220.046 44.8234 219.591C45.6114 219.136 46.1822 218.545 46.5357 217.818V214.454H44.3385C40.9038 214.454 39.1864 215.459 39.1864 217.47C39.1864 218.348 39.4794 219.035 40.0653 219.53C40.6512 220.025 41.4038 220.273 42.3231 220.273Z" fill="white"/>
<path d="M53.0516 214.075C53.0516 211.56 53.6477 209.539 54.8397 208.014C56.0318 206.478 57.5926 205.711 59.5221 205.711C61.4415 205.711 62.9619 206.367 64.0832 207.681V199.134H66.8866V222.41H64.3105L64.1741 220.652C63.0528 222.026 61.492 222.713 59.4918 222.713C57.5926 222.713 56.0419 221.935 54.8397 220.379C53.6477 218.823 53.0516 216.793 53.0516 214.287V214.075ZM55.855 214.393C55.855 216.252 56.2389 217.707 57.0066 218.758C57.7744 219.808 58.8351 220.334 60.1888 220.334C61.9668 220.334 63.2649 219.535 64.0832 217.939V210.408C63.2447 208.862 61.9567 208.09 60.2191 208.09C58.8452 208.09 57.7744 208.62 57.0066 209.681C56.2389 210.742 55.855 212.312 55.855 214.393Z" fill="white"/>
<path d="M73.8874 206.014L73.9632 207.832C75.1653 206.418 76.7867 205.711 78.8274 205.711C81.1206 205.711 82.6813 206.59 83.5097 208.347C84.0552 207.559 84.7624 206.923 85.6312 206.438C86.5101 205.953 87.5455 205.711 88.7376 205.711C92.334 205.711 94.1625 207.615 94.2231 211.423V222.41H91.4197V211.59C91.4197 210.418 91.152 209.544 90.6166 208.969C90.0812 208.383 89.1821 208.09 87.9193 208.09C86.8788 208.09 86.0151 208.403 85.3281 209.029C84.6412 209.645 84.2421 210.479 84.131 211.529V222.41H81.3125V211.666C81.3125 209.282 80.1457 208.09 77.8121 208.09C75.9735 208.09 74.7158 208.873 74.0389 210.438V222.41H71.2356V206.014H73.8874Z" fill="white"/>
<path d="M101.512 222.41H98.7085V206.014H101.512V222.41ZM98.4812 201.665C98.4812 201.21 98.6175 200.826 98.8903 200.513C99.1732 200.2 99.5873 200.043 100.133 200.043C100.678 200.043 101.093 200.2 101.375 200.513C101.658 200.826 101.8 201.21 101.8 201.665C101.8 202.119 101.658 202.498 101.375 202.801C101.093 203.104 100.678 203.256 100.133 203.256C99.5873 203.256 99.1732 203.104 98.8903 202.801C98.6175 202.498 98.4812 202.119 98.4812 201.665Z" fill="white"/>
<path d="M108.664 206.014L108.755 208.075C110.008 206.499 111.644 205.711 113.665 205.711C117.13 205.711 118.877 207.665 118.908 211.575V222.41H116.104V211.56C116.094 210.378 115.822 209.504 115.286 208.938C114.761 208.373 113.937 208.09 112.816 208.09C111.907 208.09 111.109 208.332 110.422 208.817C109.735 209.302 109.2 209.938 108.816 210.726V222.41H106.012V206.014H108.664Z" fill="white"/>
<path d="M122.469 214.075C122.469 211.519 123.06 209.489 124.242 207.984C125.424 206.468 126.99 205.711 128.939 205.711C130.939 205.711 132.5 206.418 133.622 207.832L133.758 206.014H136.319V222.016C136.319 224.137 135.688 225.809 134.425 227.031C133.172 228.254 131.485 228.865 129.364 228.865C128.182 228.865 127.025 228.612 125.893 228.107C124.762 227.602 123.898 226.91 123.302 226.031L124.757 224.349C125.959 225.834 127.429 226.577 129.167 226.577C130.53 226.577 131.591 226.193 132.349 225.425C133.116 224.657 133.5 223.576 133.5 222.182V220.773C132.379 222.066 130.849 222.713 128.909 222.713C126.99 222.713 125.434 221.94 124.242 220.394C123.06 218.849 122.469 216.742 122.469 214.075ZM125.287 214.393C125.287 216.242 125.666 217.697 126.424 218.758C127.181 219.808 128.242 220.334 129.606 220.334C131.374 220.334 132.672 219.53 133.5 217.924V210.438C132.642 208.873 131.354 208.09 129.636 208.09C128.272 208.09 127.207 208.62 126.439 209.681C125.671 210.742 125.287 212.312 125.287 214.393Z" fill="white"/>
<path d="M144.365 202.044V206.014H147.426V208.181H144.365V218.348C144.365 219.005 144.502 219.5 144.774 219.833C145.047 220.157 145.512 220.318 146.169 220.318C146.492 220.318 146.936 220.258 147.502 220.137V222.41C146.765 222.612 146.047 222.713 145.35 222.713C144.098 222.713 143.153 222.334 142.517 221.576C141.88 220.818 141.562 219.743 141.562 218.348V208.181H138.577V206.014H141.562V202.044H144.365Z" fill="white"/>
<path d="M149.669 214.06C149.669 212.454 149.982 211.009 150.608 209.726C151.245 208.443 152.124 207.453 153.245 206.756C154.377 206.059 155.665 205.711 157.109 205.711C159.342 205.711 161.145 206.483 162.519 208.029C163.903 209.575 164.595 211.631 164.595 214.196V214.393C164.595 215.99 164.287 217.424 163.671 218.697C163.064 219.96 162.191 220.945 161.049 221.652C159.918 222.359 158.614 222.713 157.139 222.713C154.917 222.713 153.114 221.94 151.73 220.394C150.356 218.849 149.669 216.803 149.669 214.257V214.06ZM152.487 214.393C152.487 216.212 152.907 217.672 153.745 218.773C154.594 219.874 155.725 220.424 157.139 220.424C158.564 220.424 159.695 219.869 160.534 218.758C161.372 217.636 161.792 216.07 161.792 214.06C161.792 212.262 161.362 210.807 160.504 209.696C159.655 208.575 158.523 208.014 157.109 208.014C155.725 208.014 154.609 208.564 153.76 209.666C152.912 210.767 152.487 212.343 152.487 214.393Z" fill="white"/>
<path d="M170.762 206.014L170.853 208.075C172.106 206.499 173.742 205.711 175.763 205.711C179.228 205.711 180.976 207.665 181.006 211.575V222.41H178.203V211.56C178.192 210.378 177.92 209.504 177.384 208.938C176.859 208.373 176.036 208.09 174.914 208.09C174.005 208.09 173.207 208.332 172.52 208.817C171.833 209.302 171.298 209.938 170.914 210.726V222.41H168.11V206.014H170.762Z" fill="white"/>
<path d="M217.025 211.348L218.147 200.346H229.451V202.938H220.526L219.859 208.953C220.94 208.317 222.167 207.999 223.541 207.999C225.551 207.999 227.148 208.666 228.33 209.999C229.512 211.322 230.103 213.116 230.103 215.378C230.103 217.651 229.486 219.445 228.254 220.758C227.031 222.061 225.319 222.713 223.117 222.713C221.167 222.713 219.576 222.172 218.344 221.091C217.111 220.01 216.409 218.515 216.237 216.606H218.889C219.061 217.869 219.51 218.823 220.238 219.47C220.965 220.106 221.925 220.424 223.117 220.424C224.42 220.424 225.44 219.98 226.178 219.091C226.925 218.202 227.299 216.975 227.299 215.409C227.299 213.934 226.895 212.752 226.087 211.863C225.289 210.964 224.223 210.514 222.89 210.514C221.667 210.514 220.707 210.782 220.01 211.317L219.268 211.923L217.025 211.348Z" fill="white"/>
<path d="M246.998 212.999C246.998 216.283 246.438 218.722 245.316 220.318C244.195 221.915 242.442 222.713 240.058 222.713C237.704 222.713 235.962 221.935 234.83 220.379C233.699 218.813 233.113 216.48 233.073 213.378V209.635C233.073 206.393 233.633 203.983 234.755 202.407C235.876 200.831 237.634 200.043 240.028 200.043C242.402 200.043 244.15 200.806 245.271 202.331C246.392 203.847 246.968 206.19 246.998 209.363V212.999ZM244.195 209.166C244.195 206.792 243.862 205.064 243.195 203.983C242.528 202.892 241.473 202.347 240.028 202.347C238.593 202.347 237.548 202.887 236.891 203.968C236.235 205.049 235.896 206.711 235.876 208.953V213.439C235.876 215.823 236.219 217.586 236.906 218.727C237.603 219.859 238.654 220.424 240.058 220.424C241.442 220.424 242.468 219.889 243.134 218.818C243.811 217.747 244.165 216.06 244.195 213.757V209.166Z" fill="white"/>
<path d="M336.554 211.348L337.676 200.346H348.98V202.938H340.055L339.388 208.953C340.469 208.317 341.696 207.999 343.07 207.999C345.081 207.999 346.677 208.666 347.859 209.999C349.041 211.322 349.632 213.116 349.632 215.378C349.632 217.651 349.015 219.445 347.783 220.758C346.56 222.061 344.848 222.713 342.646 222.713C340.696 222.713 339.105 222.172 337.873 221.091C336.64 220.01 335.938 218.515 335.766 216.606H338.418C338.59 217.869 339.039 218.823 339.767 219.47C340.494 220.106 341.454 220.424 342.646 220.424C343.949 220.424 344.969 219.98 345.707 219.091C346.454 218.202 346.828 216.975 346.828 215.409C346.828 213.934 346.424 212.752 345.616 211.863C344.818 210.964 343.752 210.514 342.419 210.514C341.196 210.514 340.237 210.782 339.539 211.317L338.797 211.923L336.554 211.348Z" fill="white"/>
<path d="M366.527 212.999C366.527 216.283 365.967 218.722 364.845 220.318C363.724 221.915 361.971 222.713 359.587 222.713C357.233 222.713 355.491 221.935 354.359 220.379C353.228 218.813 352.642 216.48 352.602 213.378V209.635C352.602 206.393 353.162 203.983 354.284 202.407C355.405 200.831 357.163 200.043 359.557 200.043C361.931 200.043 363.679 200.806 364.8 202.331C365.921 203.847 366.497 206.19 366.527 209.363V212.999ZM363.724 209.166C363.724 206.792 363.391 205.064 362.724 203.983C362.057 202.892 361.002 202.347 359.557 202.347C358.122 202.347 357.077 202.887 356.42 203.968C355.764 205.049 355.425 206.711 355.405 208.953V213.439C355.405 215.823 355.748 217.586 356.435 218.727C357.132 219.859 358.183 220.424 359.587 220.424C360.971 220.424 361.997 219.889 362.663 218.818C363.34 217.747 363.694 216.06 363.724 213.757V209.166Z" fill="white"/>
<path d="M487.102 222.41H484.284V203.726L478.631 205.802V203.256L486.663 200.24H487.102V222.41Z" fill="white"/>
<path d="M496.603 211.348L497.725 200.346H509.029V202.938H500.104L499.437 208.953C500.518 208.317 501.745 207.999 503.119 207.999C505.129 207.999 506.726 208.666 507.908 209.999C509.089 211.322 509.68 213.116 509.68 215.378C509.68 217.651 509.064 219.445 507.832 220.758C506.609 222.061 504.897 222.713 502.695 222.713C500.745 222.713 499.154 222.172 497.922 221.091C496.689 220.01 495.987 218.515 495.815 216.606H498.467C498.639 217.869 499.088 218.823 499.816 219.47C500.543 220.106 501.503 220.424 502.695 220.424C503.998 220.424 505.018 219.98 505.756 219.091C506.503 218.202 506.877 216.975 506.877 215.409C506.877 213.934 506.473 212.752 505.665 211.863C504.867 210.964 503.801 210.514 502.467 210.514C501.245 210.514 500.285 210.782 499.588 211.317L498.846 211.923L496.603 211.348Z" fill="white"/>
<path d="M526.576 212.999C526.576 216.283 526.016 218.722 524.894 220.318C523.773 221.915 522.02 222.713 519.636 222.713C517.282 222.713 515.54 221.935 514.408 220.379C513.277 218.813 512.691 216.48 512.65 213.378V209.635C512.65 206.393 513.211 203.983 514.332 202.407C515.454 200.831 517.212 200.043 519.606 200.043C521.98 200.043 523.728 200.806 524.849 202.331C525.97 203.847 526.546 206.19 526.576 209.363V212.999ZM523.773 209.166C523.773 206.792 523.44 205.064 522.773 203.983C522.106 202.892 521.05 202.347 519.606 202.347C518.171 202.347 517.126 202.887 516.469 203.968C515.812 205.049 515.474 206.711 515.454 208.953V213.439C515.454 215.823 515.797 217.586 516.484 218.727C517.181 219.859 518.232 220.424 519.636 220.424C521.02 220.424 522.046 219.889 522.712 218.818C523.389 217.747 523.743 216.06 523.773 213.757V209.166Z" fill="white"/>
<path d="M613.905 222.41H599.448V220.394L607.086 211.908C608.217 210.625 608.995 209.585 609.419 208.787C609.854 207.979 610.071 207.145 610.071 206.286C610.071 205.135 609.722 204.19 609.025 203.453C608.328 202.715 607.399 202.347 606.237 202.347C604.843 202.347 603.757 202.746 602.979 203.544C602.211 204.332 601.828 205.433 601.828 206.847H599.024C599.024 204.817 599.676 203.175 600.979 201.922C602.292 200.67 604.045 200.043 606.237 200.043C608.288 200.043 609.909 200.584 611.101 201.665C612.293 202.736 612.889 204.165 612.889 205.953C612.889 208.125 611.505 210.711 608.737 213.712L602.828 220.121H613.905V222.41Z" fill="white"/>
<path d="M618.163 211.348L619.284 200.346H630.588V202.938H621.663L620.996 208.953C622.077 208.317 623.305 207.999 624.679 207.999C626.689 207.999 628.285 208.666 629.467 209.999C630.649 211.322 631.24 213.116 631.24 215.378C631.24 217.651 630.624 219.445 629.391 220.758C628.169 222.061 626.457 222.713 624.254 222.713C622.305 222.713 620.714 222.172 619.481 221.091C618.249 220.01 617.546 218.515 617.375 216.606H620.027C620.198 217.869 620.648 218.823 621.375 219.47C622.103 220.106 623.062 220.424 624.254 220.424C625.558 220.424 626.578 219.98 627.315 219.091C628.063 218.202 628.437 216.975 628.437 215.409C628.437 213.934 628.033 212.752 627.224 211.863C626.426 210.964 625.361 210.514 624.027 210.514C622.805 210.514 621.845 210.782 621.148 211.317L620.405 211.923L618.163 211.348Z" fill="white"/>
<path d="M648.136 212.999C648.136 216.283 647.575 218.722 646.454 220.318C645.333 221.915 643.58 222.713 641.196 222.713C638.842 222.713 637.099 221.935 635.968 220.379C634.836 218.813 634.25 216.48 634.21 213.378V209.635C634.21 206.393 634.771 203.983 635.892 202.407C637.013 200.831 638.771 200.043 641.165 200.043C643.539 200.043 645.287 200.806 646.408 202.331C647.53 203.847 648.106 206.19 648.136 209.363V212.999ZM645.333 209.166C645.333 206.792 644.999 205.064 644.332 203.983C643.666 202.892 642.61 202.347 641.165 202.347C639.731 202.347 638.685 202.887 638.029 203.968C637.372 205.049 637.034 206.711 637.013 208.953V213.439C637.013 215.823 637.357 217.586 638.044 218.727C638.741 219.859 639.792 220.424 641.196 220.424C642.58 220.424 643.605 219.889 644.272 218.818C644.949 217.747 645.302 216.06 645.333 213.757V209.166Z" fill="white"/>
<path d="M34.9132 268.96H31.9886L20.8812 251.958V268.96H17.9567V246.897H20.8812L32.0189 263.975V246.897H34.9132V268.96Z" fill="white"/>
<path d="M49.7634 268.96C49.6017 268.637 49.4704 268.061 49.3694 267.233C48.0662 268.587 46.5105 269.263 44.7022 269.263C43.0858 269.263 41.7574 268.809 40.7169 267.9C39.6865 266.98 39.1712 265.819 39.1712 264.414C39.1712 262.707 39.8178 261.384 41.1109 260.444C42.414 259.495 44.2425 259.02 46.5963 259.02H49.3239V257.732C49.3239 256.752 49.031 255.974 48.445 255.398C47.8591 254.812 46.9954 254.519 45.8538 254.519C44.8537 254.519 44.0152 254.772 43.3384 255.277C42.6615 255.782 42.3231 256.393 42.3231 257.111H39.5046C39.5046 256.292 39.7925 255.504 40.3683 254.747C40.9543 253.979 41.7422 253.373 42.7323 252.928C43.7324 252.484 44.8285 252.261 46.0205 252.261C47.9096 252.261 49.3896 252.736 50.4604 253.686C51.5313 254.625 52.0869 255.924 52.1273 257.58V265.127C52.1273 266.632 52.3192 267.829 52.7031 268.718V268.96H49.7634ZM45.1113 266.824C45.9902 266.824 46.8236 266.596 47.6116 266.142C48.3996 265.687 48.9704 265.096 49.3239 264.369V261.005H47.1267C43.692 261.005 41.9746 262.01 41.9746 264.02C41.9746 264.899 42.2676 265.586 42.8535 266.081C43.4394 266.576 44.192 266.824 45.1113 266.824Z" fill="white"/>
<path d="M60.3252 248.594V252.565H63.3862V254.731H60.3252V264.899C60.3252 265.556 60.4616 266.051 60.7343 266.384C61.0071 266.708 61.4718 266.869 62.1285 266.869C62.4517 266.869 62.8962 266.809 63.4619 266.687V268.96C62.7245 269.162 62.0072 269.263 61.3102 269.263C60.0575 269.263 59.113 268.885 58.4765 268.127C57.8401 267.369 57.5219 266.293 57.5219 264.899V254.731H54.5367V252.565H57.5219V248.594H60.3252Z" fill="white"/>
<path d="M76.7968 268.96C76.6352 268.637 76.5039 268.061 76.4028 267.233C75.0997 268.587 73.5439 269.263 71.7356 269.263C70.1193 269.263 68.7908 268.809 67.7503 267.9C66.7199 266.98 66.2047 265.819 66.2047 264.414C66.2047 262.707 66.8512 261.384 68.1443 260.444C69.4475 259.495 71.276 259.02 73.6298 259.02H76.3574V257.732C76.3574 256.752 76.0644 255.974 75.4785 255.398C74.8926 254.812 74.0288 254.519 72.8873 254.519C71.8872 254.519 71.0487 254.772 70.3718 255.277C69.695 255.782 69.3566 256.393 69.3566 257.111H66.5381C66.5381 256.292 66.826 255.504 67.4018 254.747C67.9877 253.979 68.7757 253.373 69.7657 252.928C70.7658 252.484 71.8619 252.261 73.054 252.261C74.9431 252.261 76.423 252.736 77.4939 253.686C78.5647 254.625 79.1203 255.924 79.1607 257.58V265.127C79.1607 266.632 79.3527 267.829 79.7366 268.718V268.96H76.7968ZM72.1448 266.824C73.0237 266.824 73.8571 266.596 74.6451 266.142C75.433 265.687 76.0038 265.096 76.3574 264.369V261.005H74.1602C70.7254 261.005 69.008 262.01 69.008 264.02C69.008 264.899 69.301 265.586 69.8869 266.081C70.4729 266.576 71.2255 266.824 72.1448 266.824Z" fill="white"/>
<path d="M90.1317 266.975C91.1318 266.975 92.0057 266.672 92.7532 266.066C93.5008 265.46 93.915 264.702 93.9958 263.793H96.6476C96.5971 264.733 96.2738 265.627 95.6778 266.475C95.0818 267.324 94.2837 268.001 93.2836 268.506C92.2936 269.011 91.2429 269.263 90.1317 269.263C87.8991 269.263 86.1211 268.521 84.7978 267.036C83.4845 265.541 82.8278 263.5 82.8278 260.914V260.444C82.8278 258.848 83.1208 257.429 83.7067 256.186C84.2926 254.944 85.1311 253.979 86.2222 253.292C87.3233 252.605 88.6214 252.261 90.1165 252.261C91.9551 252.261 93.4806 252.812 94.6928 253.913C95.9152 255.014 96.5668 256.444 96.6476 258.202H93.9958C93.915 257.141 93.5109 256.272 92.7835 255.595C92.0663 254.908 91.1773 254.565 90.1165 254.565C88.6921 254.565 87.586 255.08 86.798 256.11C86.0201 257.131 85.6312 258.611 85.6312 260.55V261.081C85.6312 262.97 86.0201 264.425 86.798 265.445C87.5758 266.465 88.6871 266.975 90.1317 266.975Z" fill="white"/>
<path d="M102.845 268.96H100.042V252.565H102.845V268.96ZM99.8146 248.216C99.8146 247.761 99.951 247.377 100.224 247.064C100.507 246.751 100.921 246.594 101.466 246.594C102.012 246.594 102.426 246.751 102.709 247.064C102.992 247.377 103.133 247.761 103.133 248.216C103.133 248.67 102.992 249.049 102.709 249.352C102.426 249.655 102.012 249.807 101.466 249.807C100.921 249.807 100.507 249.655 100.224 249.352C99.951 249.049 99.8146 248.67 99.8146 248.216Z" fill="white"/>
<path d="M106.603 260.611C106.603 259.005 106.916 257.56 107.543 256.277C108.179 254.994 109.058 254.004 110.179 253.307C111.311 252.61 112.599 252.261 114.044 252.261C116.276 252.261 118.079 253.034 119.453 254.58C120.837 256.126 121.529 258.181 121.529 260.747V260.944C121.529 262.54 121.221 263.975 120.605 265.248C119.999 266.511 119.125 267.496 117.983 268.203C116.852 268.91 115.549 269.263 114.074 269.263C111.851 269.263 110.048 268.491 108.664 266.945C107.29 265.399 106.603 263.354 106.603 260.808V260.611ZM109.422 260.944C109.422 262.763 109.841 264.222 110.68 265.324C111.528 266.425 112.66 266.975 114.074 266.975C115.498 266.975 116.63 266.42 117.468 265.308C118.307 264.187 118.726 262.621 118.726 260.611C118.726 258.813 118.297 257.358 117.438 256.247C116.589 255.125 115.458 254.565 114.044 254.565C112.66 254.565 111.543 255.115 110.695 256.216C109.846 257.318 109.422 258.894 109.422 260.944ZM115.316 245.685H118.711L114.65 250.14H112.392L115.316 245.685Z" fill="white"/>
<path d="M127.697 252.565L127.788 254.625C129.04 253.049 130.677 252.261 132.697 252.261C136.162 252.261 137.91 254.216 137.94 258.126V268.96H135.137V258.111C135.127 256.929 134.854 256.055 134.319 255.489C133.793 254.923 132.97 254.641 131.849 254.641C130.939 254.641 130.141 254.883 129.454 255.368C128.768 255.853 128.232 256.489 127.848 257.277V268.96H125.045V252.565H127.697Z" fill="white"/>
<path d="M212.676 268.96H209.858V250.276L204.206 252.352V249.807L212.237 246.791H212.676V268.96Z" fill="white"/>
<path d="M234.724 259.55C234.724 262.833 234.164 265.273 233.042 266.869C231.921 268.465 230.168 269.263 227.784 269.263C225.43 269.263 223.688 268.486 222.556 266.93C221.425 265.364 220.839 263.03 220.798 259.929V256.186C220.798 252.943 221.359 250.534 222.48 248.958C223.602 247.382 225.36 246.594 227.754 246.594C230.128 246.594 231.875 247.357 232.997 248.882C234.118 250.398 234.694 252.741 234.724 255.913V259.55ZM231.921 255.716C231.921 253.342 231.588 251.615 230.921 250.534C230.254 249.443 229.198 248.897 227.754 248.897C226.319 248.897 225.274 249.438 224.617 250.519C223.96 251.6 223.622 253.262 223.602 255.504V259.99C223.602 262.374 223.945 264.137 224.632 265.278C225.329 266.41 226.38 266.975 227.784 266.975C229.168 266.975 230.193 266.44 230.86 265.369C231.537 264.298 231.891 262.611 231.921 260.308V255.716Z" fill="white"/>
<path d="M252.151 259.55C252.151 262.833 251.59 265.273 250.469 266.869C249.347 268.465 247.594 269.263 245.21 269.263C242.857 269.263 241.114 268.486 239.982 266.93C238.851 265.364 238.265 263.03 238.225 259.929V256.186C238.225 252.943 238.785 250.534 239.907 248.958C241.028 247.382 242.786 246.594 245.18 246.594C247.554 246.594 249.302 247.357 250.423 248.882C251.544 250.398 252.12 252.741 252.151 255.913V259.55ZM249.347 255.716C249.347 253.342 249.014 251.615 248.347 250.534C247.68 249.443 246.625 248.897 245.18 248.897C243.746 248.897 242.7 249.438 242.043 250.519C241.387 251.6 241.048 253.262 241.028 255.504V259.99C241.028 262.374 241.371 264.137 242.058 265.278C242.755 266.41 243.806 266.975 245.21 266.975C246.594 266.975 247.62 266.44 248.286 265.369C248.963 264.298 249.317 262.611 249.347 260.308V255.716Z" fill="white"/>
<path d="M334.236 268.96H331.417V250.276L325.765 252.352V249.807L333.796 246.791H334.236V268.96Z" fill="white"/>
<path d="M343.737 257.898L344.858 246.897H356.163V249.488H347.237L346.571 255.504C347.652 254.868 348.879 254.55 350.253 254.55C352.263 254.55 353.859 255.216 355.041 256.55C356.223 257.873 356.814 259.666 356.814 261.929C356.814 264.202 356.198 265.995 354.965 267.309C353.743 268.612 352.031 269.263 349.829 269.263C347.879 269.263 346.288 268.723 345.055 267.642C343.823 266.561 343.121 265.066 342.949 263.157H345.601C345.773 264.419 346.222 265.374 346.949 266.021C347.677 266.657 348.636 266.975 349.829 266.975C351.132 266.975 352.152 266.531 352.889 265.642C353.637 264.753 354.011 263.525 354.011 261.96C354.011 260.485 353.607 259.303 352.799 258.414C352.001 257.515 350.935 257.065 349.601 257.065C348.379 257.065 347.419 257.333 346.722 257.868L345.98 258.474L343.737 257.898Z" fill="white"/>
<path d="M373.71 259.55C373.71 262.833 373.149 265.273 372.028 266.869C370.907 268.465 369.154 269.263 366.77 269.263C364.416 269.263 362.673 268.486 361.542 266.93C360.411 265.364 359.825 263.03 359.784 259.929V256.186C359.784 252.943 360.345 250.534 361.466 248.958C362.588 247.382 364.345 246.594 366.74 246.594C369.114 246.594 370.861 247.357 371.983 248.882C373.104 250.398 373.68 252.741 373.71 255.913V259.55ZM370.907 255.716C370.907 253.342 370.573 251.615 369.907 250.534C369.24 249.443 368.184 248.897 366.74 248.897C365.305 248.897 364.26 249.438 363.603 250.519C362.946 251.6 362.608 253.262 362.588 255.504V259.99C362.588 262.374 362.931 264.137 363.618 265.278C364.315 266.41 365.366 266.975 366.77 266.975C368.154 266.975 369.179 266.44 369.846 265.369C370.523 264.298 370.876 262.611 370.907 260.308V255.716Z" fill="white"/>
<path d="M499.528 268.96H485.072V266.945L492.709 258.459C493.84 257.176 494.618 256.136 495.042 255.338C495.477 254.529 495.694 253.696 495.694 252.837C495.694 251.686 495.345 250.741 494.648 250.004C493.951 249.266 493.022 248.897 491.86 248.897C490.466 248.897 489.38 249.296 488.602 250.095C487.834 250.883 487.451 251.984 487.451 253.398H484.647C484.647 251.367 485.299 249.726 486.602 248.473C487.915 247.22 489.668 246.594 491.86 246.594C493.911 246.594 495.532 247.135 496.724 248.216C497.916 249.286 498.512 250.716 498.512 252.504C498.512 254.676 497.128 257.262 494.36 260.262L488.451 266.672H499.528V268.96Z" fill="white"/>
<path d="M516.333 259.55C516.333 262.833 515.772 265.273 514.651 266.869C513.529 268.465 511.777 269.263 509.393 269.263C507.039 269.263 505.296 268.486 504.165 266.93C503.033 265.364 502.447 263.03 502.407 259.929V256.186C502.407 252.943 502.968 250.534 504.089 248.958C505.21 247.382 506.968 246.594 509.362 246.594C511.736 246.594 513.484 247.357 514.605 248.882C515.727 250.398 516.302 252.741 516.333 255.913V259.55ZM513.529 255.716C513.529 253.342 513.196 251.615 512.529 250.534C511.863 249.443 510.807 248.897 509.362 248.897C507.928 248.897 506.882 249.438 506.225 250.519C505.569 251.6 505.23 253.262 505.21 255.504V259.99C505.21 262.374 505.554 264.137 506.241 265.278C506.938 266.41 507.988 266.975 509.393 266.975C510.777 266.975 511.802 266.44 512.469 265.369C513.145 264.298 513.499 262.611 513.529 260.308V255.716Z" fill="white"/>
<path d="M533.759 259.55C533.759 262.833 533.198 265.273 532.077 266.869C530.956 268.465 529.203 269.263 526.819 269.263C524.465 269.263 522.722 268.486 521.591 266.93C520.459 265.364 519.874 263.03 519.833 259.929V256.186C519.833 252.943 520.394 250.534 521.515 248.958C522.636 247.382 524.394 246.594 526.789 246.594C529.163 246.594 530.91 247.357 532.031 248.882C533.153 250.398 533.729 252.741 533.759 255.913V259.55ZM530.956 255.716C530.956 253.342 530.622 251.615 529.956 250.534C529.289 249.443 528.233 248.897 526.789 248.897C525.354 248.897 524.308 249.438 523.652 250.519C522.995 251.6 522.657 253.262 522.636 255.504V259.99C522.636 262.374 522.98 264.137 523.667 265.278C524.364 266.41 525.415 266.975 526.819 266.975C528.203 266.975 529.228 266.44 529.895 265.369C530.572 264.298 530.925 262.611 530.956 260.308V255.716Z" fill="white"/>
<path d="M621.087 268.96H606.631V266.945L614.268 258.459C615.4 257.176 616.178 256.136 616.602 255.338C617.036 254.529 617.254 253.696 617.254 252.837C617.254 251.686 616.905 250.741 616.208 250.004C615.511 249.266 614.581 248.897 613.42 248.897C612.026 248.897 610.94 249.296 610.162 250.095C609.394 250.883 609.01 251.984 609.01 253.398H606.207C606.207 251.367 606.858 249.726 608.162 248.473C609.475 247.22 611.228 246.594 613.42 246.594C615.47 246.594 617.092 247.135 618.284 248.216C619.476 249.286 620.072 250.716 620.072 252.504C620.072 254.676 618.688 257.262 615.92 260.262L610.01 266.672H621.087V268.96Z" fill="white"/>
<path d="M625.345 257.898L626.467 246.897H637.771V249.488H628.846L628.179 255.504C629.26 254.868 630.487 254.55 631.861 254.55C633.872 254.55 635.468 255.216 636.65 256.55C637.832 257.873 638.423 259.666 638.423 261.929C638.423 264.202 637.806 265.995 636.574 267.309C635.352 268.612 633.639 269.263 631.437 269.263C629.487 269.263 627.896 268.723 626.664 267.642C625.431 266.561 624.729 265.066 624.557 263.157H627.209C627.381 264.419 627.831 265.374 628.558 266.021C629.285 266.657 630.245 266.975 631.437 266.975C632.74 266.975 633.761 266.531 634.498 265.642C635.246 264.753 635.619 263.525 635.619 261.96C635.619 260.485 635.215 259.303 634.407 258.414C633.609 257.515 632.543 257.065 631.21 257.065C629.987 257.065 629.028 257.333 628.331 257.868L627.588 258.474L625.345 257.898Z" fill="white"/>
<path d="M655.319 259.55C655.319 262.833 654.758 265.273 653.637 266.869C652.515 268.465 650.762 269.263 648.378 269.263C646.025 269.263 644.282 268.486 643.151 266.93C642.019 265.364 641.433 263.03 641.393 259.929V256.186C641.393 252.943 641.953 250.534 643.075 248.958C644.196 247.382 645.954 246.594 648.348 246.594C650.722 246.594 652.47 247.357 653.591 248.882C654.712 250.398 655.288 252.741 655.319 255.913V259.55ZM652.515 255.716C652.515 253.342 652.182 251.615 651.515 250.534C650.848 249.443 649.793 248.897 648.348 248.897C646.914 248.897 645.868 249.438 645.211 250.519C644.555 251.6 644.216 253.262 644.196 255.504V259.99C644.196 262.374 644.54 264.137 645.227 265.278C645.924 266.41 646.974 266.975 648.378 266.975C649.762 266.975 650.788 266.44 651.454 265.369C652.131 264.298 652.485 262.611 652.515 260.308V255.716Z" fill="white"/>
</g>
</g>
</svg>
