<svg viewBox="0 0 891 228" fill="none" xmlns="http://www.w3.org/2000/svg">
<g id="0125215">
<g id="Group">
<g id="Group 238">
<g id="Group_2">
<path id="Vector" d="M0 43.8578C0 42.2033 0.275762 40.6938 0.827286 39.3295C1.37881 37.9652 2.08999 36.8332 2.96081 35.9333C3.83164 35.0334 4.80406 34.2787 5.87808 33.6692C6.9521 33.0596 7.96807 32.6096 8.92598 32.3194C9.88389 32.0291 10.7983 31.8985 11.6691 31.9275H11.7997C13.106 31.9275 14.238 32.2468 15.1959 32.8854C16.1538 33.524 16.6328 34.4674 16.6328 35.7156C16.6328 38.3281 15.0218 40.0407 11.7997 40.8535C10.3774 41.2308 8.43251 41.434 5.96517 41.4631C4.89115 41.4631 4.33962 41.4921 4.3106 41.5501C4.3106 41.6082 4.22351 42.1162 4.04935 43.0741C3.87518 44.032 3.77358 44.8738 3.74456 45.5995C3.74456 46.9638 4.04935 48.0378 4.65893 48.8215C5.26851 49.6053 6.18287 50.0117 7.40203 50.0407C8.62119 50.0697 9.97097 49.794 11.4514 49.2134C12.9318 48.6329 14.2671 47.675 15.4572 46.3397C15.7184 46.0494 15.8926 45.9043 15.9797 45.9043C16.0958 45.9043 16.2845 46.0349 16.5457 46.2961C16.807 46.5574 16.9521 46.7606 16.9811 46.9057C17.0102 47.0509 16.8795 47.2831 16.5893 47.6024C16.299 47.9217 15.8636 48.3136 15.283 48.778C14.7025 49.2424 14.0348 49.6924 13.2801 50.1278C12.5254 50.5632 11.611 50.926 10.537 51.2163C9.46299 51.5066 8.35994 51.6517 7.22787 51.6517C4.93469 51.6517 3.16401 50.8825 1.91582 49.344C0.667634 47.8056 0.0290276 45.9768 0 43.8578ZM14.5428 35.8027C14.3687 34.2932 13.3817 33.5385 11.582 33.5385C10.6241 33.5385 9.73875 33.7417 8.92598 34.1481C8.11321 34.5545 7.46009 35.048 6.96662 35.6285C6.47315 36.2091 6.05225 36.8041 5.70392 37.4137C5.35559 38.0233 5.12337 38.5458 5.00726 38.9812C4.89115 39.4166 4.81858 39.6924 4.78955 39.8085C4.78955 39.8375 5.07983 39.852 5.66038 39.852C8.94049 39.852 11.2337 39.5037 12.5399 38.807C13.8462 38.1104 14.5138 37.1089 14.5428 35.8027Z" fill="white"/>
</g>
<g id="Group_3">
<path id="Vector_2" d="M33.1309 36.0639C33.1309 35.6865 33.3341 35.3962 33.7404 35.193H61.4763C61.9117 35.4253 62.1294 35.7155 62.1294 36.0639C62.1294 36.3832 61.9262 36.6589 61.5198 36.8911L47.6737 36.9347H33.8275C33.3631 36.7896 33.1309 36.4993 33.1309 36.0639ZM33.1309 44.5109C33.1309 44.0755 33.3631 43.7852 33.8275 43.6401H61.5198C61.9262 43.9303 62.1294 44.2206 62.1294 44.5109C62.1294 44.8882 61.9117 45.1785 61.4763 45.3817H33.7404C33.3341 45.1785 33.1309 44.8882 33.1309 44.5109Z" fill="white"/>
</g>
<g id="Group_4">
<path id="Vector_3" d="M83.7977 44.3366C83.7977 45.0333 83.5655 45.6138 83.101 46.0782C82.6366 46.5427 82.0706 46.7749 81.4029 46.7749H81.0981C82.4334 49.0681 84.2041 50.2147 86.4102 50.2147C88.4421 50.2147 89.9225 49.3438 90.8514 47.6022C91.4029 46.6443 91.6787 44.7865 91.6787 42.0289C91.6787 39.0391 91.2868 37.0216 90.5031 35.9766C89.7484 35.0187 88.9066 34.5398 87.9777 34.5398H87.7164C85.4523 34.5398 83.7396 35.5267 82.5785 37.5006C82.4624 37.7038 82.3608 37.8199 82.2738 37.8489C82.1867 37.878 81.969 37.907 81.6206 37.936C81.1272 37.936 80.8514 37.8489 80.7933 37.6748C80.7353 37.5587 80.7063 35.0187 80.7063 30.055V24.4382C80.7063 22.9868 80.7788 22.2611 80.924 22.2611C80.982 22.2031 81.0401 22.174 81.0981 22.174C81.1272 22.174 81.432 22.2901 82.0125 22.5224C82.5931 22.7546 83.3913 22.9868 84.4073 23.219C85.4232 23.4513 86.5118 23.5674 87.6729 23.5674C89.7338 23.5674 91.7077 23.161 93.5945 22.3482C93.8267 22.2321 94.0154 22.174 94.1605 22.174C94.3928 22.174 94.5089 22.4353 94.5089 22.9578V23.5238C92.1286 26.3395 89.1533 27.7473 85.5829 27.7473C84.683 27.7473 83.8703 27.6602 83.1446 27.4861L82.7092 27.399V34.8881C83.2607 34.4817 83.6961 34.1624 84.0154 33.9302C84.3347 33.698 84.8572 33.4658 85.5829 33.2335C86.3086 33.0013 87.0488 32.8852 87.8035 32.8852C90.1547 32.8852 92.1431 33.8286 93.7687 35.7154C95.3942 37.6022 96.207 39.8373 96.207 42.4208C96.207 45.0913 95.2781 47.37 93.4203 49.2568C91.5626 51.1436 89.2984 52.1015 86.6279 52.1305C84.2767 52.1305 82.3899 51.3467 80.9675 49.7793C79.5452 48.2118 78.834 46.4411 78.834 44.4672C78.834 43.7706 78.9936 43.219 79.3129 42.8126C79.6322 42.4063 79.9661 42.145 80.3144 42.0289C80.6627 41.9128 80.9965 41.8547 81.3158 41.8547C82.0415 41.8547 82.6366 42.1015 83.101 42.5949C83.5655 43.0884 83.7977 43.669 83.7977 44.3366Z" fill="white"/>
<path id="Vector_4" d="M105.569 44.3366C105.569 45.0333 105.337 45.6138 104.873 46.0782C104.408 46.5427 103.842 46.7749 103.174 46.7749H102.87C104.205 49.0681 105.976 50.2147 108.182 50.2147C110.214 50.2147 111.694 49.3438 112.623 47.6022C113.174 46.6443 113.45 44.7865 113.45 42.0289C113.45 39.0391 113.058 37.0216 112.275 35.9766C111.52 35.0187 110.678 34.5398 109.749 34.5398H109.488C107.224 34.5398 105.511 35.5267 104.35 37.5006C104.234 37.7038 104.132 37.8199 104.045 37.8489C103.958 37.878 103.74 37.907 103.392 37.936C102.899 37.936 102.623 37.8489 102.565 37.6748C102.507 37.5587 102.478 35.0187 102.478 30.055V24.4382C102.478 22.9868 102.55 22.2611 102.695 22.2611C102.754 22.2031 102.812 22.174 102.87 22.174C102.899 22.174 103.203 22.2901 103.784 22.5224C104.365 22.7546 105.163 22.9868 106.179 23.219C107.195 23.4513 108.283 23.5674 109.444 23.5674C111.505 23.5674 113.479 23.161 115.366 22.3482C115.598 22.2321 115.787 22.174 115.932 22.174C116.164 22.174 116.28 22.4353 116.28 22.9578V23.5238C113.9 26.3395 110.925 27.7473 107.354 27.7473C106.455 27.7473 105.642 27.6602 104.916 27.4861L104.481 27.399V34.8881C105.032 34.4817 105.468 34.1624 105.787 33.9302C106.106 33.698 106.629 33.4658 107.354 33.2335C108.08 33.0013 108.82 32.8852 109.575 32.8852C111.926 32.8852 113.915 33.8286 115.54 35.7154C117.166 37.6022 117.978 39.8373 117.978 42.4208C117.978 45.0913 117.05 47.37 115.192 49.2568C113.334 51.1436 111.07 52.1015 108.399 52.1305C106.048 52.1305 104.161 51.3467 102.739 49.7793C101.317 48.2118 100.605 46.4411 100.605 44.4672C100.605 43.7706 100.765 43.219 101.084 42.8126C101.404 42.4063 101.738 42.145 102.086 42.0289C102.434 41.9128 102.768 41.8547 103.087 41.8547C103.813 41.8547 104.408 42.1015 104.873 42.5949C105.337 43.0884 105.569 43.669 105.569 44.3366Z" fill="white"/>
</g>
<g id="Group_5">
<path id="Vector_5" d="M157.304 49.9101C157.304 50.4906 156.999 50.7809 156.39 50.7809C156.244 50.7809 155.925 50.5487 155.432 50.0842C154.938 49.6198 153.574 48.27 151.339 46.0349L146.81 41.5066L142.239 46.0784C139.162 49.0973 137.58 50.6357 137.493 50.6938C137.376 50.7519 137.275 50.7809 137.188 50.7809C136.956 50.7809 136.752 50.6938 136.578 50.5196C136.404 50.3455 136.302 50.1423 136.273 49.9101C136.273 49.7069 136.477 49.3876 136.883 48.9521C137.289 48.5167 138.654 47.1379 140.976 44.8157L145.504 40.2874L140.976 35.7591C138.625 33.4079 137.26 32.0291 136.883 31.6227C136.506 31.2163 136.302 30.897 136.273 30.6648C136.273 30.4035 136.361 30.2003 136.535 30.0552C136.709 29.9101 136.927 29.8375 137.188 29.8375C137.333 29.8375 137.435 29.852 137.493 29.881C137.58 29.9391 139.162 31.4775 142.239 34.4964L146.81 39.0683L151.339 34.54C153.574 32.3048 154.938 30.9551 155.432 30.4906C155.925 30.0262 156.244 29.7939 156.39 29.7939C156.999 29.7939 157.304 30.0842 157.304 30.6648C157.304 30.868 157.159 31.1292 156.868 31.4485C156.578 31.7678 155.156 33.1902 152.601 35.7156L148.073 40.2874L152.601 44.8593C155.04 47.2976 156.433 48.7054 156.781 49.0828C157.13 49.4601 157.304 49.7359 157.304 49.9101Z" fill="white"/>
</g>
<g id="Group_6">
<path id="Vector_6" d="M193.54 51.1726C193.017 51.0855 191.145 51.042 187.923 51.042C184.555 51.042 182.611 51.0855 182.088 51.1726H181.696V49.1697H183.046C183.627 49.1697 184.018 49.1697 184.222 49.1697C184.425 49.1697 184.672 49.1407 184.962 49.0826C185.252 49.0246 185.455 48.952 185.571 48.8649C185.688 48.7778 185.789 48.6617 185.876 48.5166C185.905 48.4585 185.92 47.6748 185.92 46.1654V43.9883H174.643V41.9854L181.217 31.9273C185.659 25.1929 187.908 21.8112 187.966 21.7822C188.024 21.7241 188.329 21.6951 188.881 21.6951H189.664L189.926 21.9564V41.9854H193.931V43.9883H189.926V46.2089C189.926 47.399 189.926 48.0957 189.926 48.2989C189.926 48.5021 190.013 48.6762 190.187 48.8214C190.419 49.0246 191.246 49.1407 192.669 49.1697H193.931V51.1726H193.54ZM186.181 41.9854V27.4426L176.645 41.9418L181.391 41.9854H186.181Z" fill="white"/>
</g>
<g id="Group_7">
<path id="Vector_7" d="M209.729 36.0639C209.729 35.6865 209.932 35.3962 210.338 35.193H238.074C238.509 35.4253 238.727 35.7155 238.727 36.0639C238.727 36.3832 238.524 36.6589 238.117 36.8911L224.271 36.9347H210.425C209.961 36.7896 209.729 36.4993 209.729 36.0639ZM209.729 44.5109C209.729 44.0755 209.961 43.7852 210.425 43.6401H238.117C238.524 43.9303 238.727 44.2206 238.727 44.5109C238.727 44.8882 238.509 45.1785 238.074 45.3817H210.338C209.932 45.1785 209.729 44.8882 209.729 44.5109Z" fill="white"/>
</g>
<g id="Group_8">
<path id="Vector_8" d="M258.006 32.4934C257.223 32.4934 256.599 32.2321 256.134 31.7096C255.67 31.1871 255.438 30.5485 255.438 29.7938C255.438 27.7328 256.207 25.9476 257.745 24.4382C259.284 22.9288 261.199 22.1741 263.493 22.1741C266.134 22.1741 268.34 22.9868 270.111 24.6124C271.882 26.2379 272.781 28.3424 272.811 30.9259C272.811 32.1741 272.52 33.3642 271.94 34.4963C271.359 35.6283 270.662 36.6153 269.85 37.4571C269.037 38.2989 267.876 39.3729 266.366 40.6791C265.321 41.579 263.87 42.9143 262.012 44.6849L259.443 47.1233L262.752 47.1668C267.31 47.1668 269.734 47.0942 270.024 46.9491C270.227 46.891 270.575 45.5993 271.069 43.0739V42.9433H272.811V43.0739C272.781 43.161 272.593 44.4818 272.244 47.0362C271.896 49.5906 271.678 50.9259 271.591 51.042V51.1726H255.438V50.3453V49.8228C255.438 49.6196 255.525 49.4019 255.699 49.1697C255.873 48.9375 256.308 48.4295 257.005 47.6458C257.847 46.7169 258.572 45.9041 259.182 45.2074C259.443 44.9172 259.937 44.3802 260.662 43.5964C261.388 42.8127 261.882 42.2757 262.143 41.9854C262.404 41.6951 262.825 41.2161 263.406 40.5485C263.986 39.8809 264.393 39.3874 264.625 39.0681C264.857 38.7488 265.191 38.3134 265.626 37.7619C266.062 37.2103 266.366 36.7459 266.541 36.3685C266.715 35.9912 266.932 35.5703 267.194 35.1058C267.455 34.6414 267.644 34.177 267.76 33.7125C267.876 33.2481 267.977 32.8127 268.064 32.4063C268.152 31.9999 268.195 31.5209 268.195 30.9694C268.195 29.1407 267.702 27.5587 266.715 26.2234C265.728 24.8881 264.32 24.2205 262.491 24.2205C261.533 24.2205 260.691 24.4672 259.966 24.9607C259.24 25.4542 258.732 25.9331 258.442 26.3976C258.152 26.862 258.006 27.1378 258.006 27.2249C258.006 27.2539 258.079 27.2684 258.224 27.2684C258.747 27.2684 259.284 27.4716 259.835 27.878C260.387 28.2844 260.662 28.952 260.662 29.8809C260.662 30.6066 260.43 31.2162 259.966 31.7096C259.501 32.2031 258.848 32.4643 258.006 32.4934Z" fill="white"/>
<path id="Vector_9" d="M279.782 32.4934C278.998 32.4934 278.374 32.2321 277.91 31.7096C277.445 31.1871 277.213 30.5485 277.213 29.7938C277.213 27.7328 277.982 25.9476 279.521 24.4382C281.059 22.9288 282.975 22.1741 285.268 22.1741C287.91 22.1741 290.116 22.9868 291.886 24.6124C293.657 26.2379 294.557 28.3424 294.586 30.9259C294.586 32.1741 294.296 33.3642 293.715 34.4963C293.135 35.6283 292.438 36.6153 291.625 37.4571C290.812 38.2989 289.651 39.3729 288.142 40.6791C287.097 41.579 285.645 42.9143 283.788 44.6849L281.219 47.1233L284.528 47.1668C289.085 47.1668 291.509 47.0942 291.799 46.9491C292.002 46.891 292.351 45.5993 292.844 43.0739V42.9433H294.586V43.0739C294.557 43.161 294.368 44.4818 294.02 47.0362C293.672 49.5906 293.454 50.9259 293.367 51.042V51.1726H277.213V50.3453V49.8228C277.213 49.6196 277.3 49.4019 277.474 49.1697C277.648 48.9375 278.084 48.4295 278.78 47.6458C279.622 46.7169 280.348 45.9041 280.957 45.2074C281.219 44.9172 281.712 44.3802 282.438 43.5964C283.164 42.8127 283.657 42.2757 283.918 41.9854C284.18 41.6951 284.6 41.2161 285.181 40.5485C285.762 39.8809 286.168 39.3874 286.4 39.0681C286.632 38.7488 286.966 38.3134 287.402 37.7619C287.837 37.2103 288.142 36.7459 288.316 36.3685C288.49 35.9912 288.708 35.5703 288.969 35.1058C289.23 34.6414 289.419 34.177 289.535 33.7125C289.651 33.2481 289.753 32.8127 289.84 32.4063C289.927 31.9999 289.971 31.5209 289.971 30.9694C289.971 29.1407 289.477 27.5587 288.49 26.2234C287.503 24.8881 286.095 24.2205 284.267 24.2205C283.309 24.2205 282.467 24.4672 281.741 24.9607C281.016 25.4542 280.508 25.9331 280.217 26.3976C279.927 26.862 279.782 27.1378 279.782 27.2249C279.782 27.2539 279.854 27.2684 280 27.2684C280.522 27.2684 281.059 27.4716 281.611 27.878C282.162 28.2844 282.438 28.952 282.438 29.8809C282.438 30.6066 282.206 31.2162 281.741 31.7096C281.277 32.2031 280.624 32.4643 279.782 32.4934Z" fill="white"/>
<path id="Vector_10" d="M300.982 25.7009C302.607 23.3497 304.828 22.174 307.644 22.174C309.037 22.174 310.43 22.5514 311.824 23.3061C313.217 24.0608 314.349 25.3961 315.22 27.3119C316.294 29.7212 316.831 33.0303 316.831 37.2393C316.831 41.7386 316.207 45.1784 314.959 47.5587C314.378 48.7778 313.58 49.7502 312.564 50.4759C311.548 51.2016 310.663 51.6515 309.908 51.8257C309.153 51.9999 308.413 52.1015 307.687 52.1305C306.933 52.1305 306.178 52.0434 305.423 51.8692C304.668 51.6951 303.783 51.2306 302.767 50.4759C301.751 49.7212 300.953 48.7488 300.372 47.5587C299.124 45.1784 298.5 41.7386 298.5 37.2393C298.5 32.1885 299.327 28.3424 300.982 25.7009ZM310.779 25.1784C309.908 24.2495 308.877 23.7851 307.687 23.7851C306.468 23.7851 305.423 24.2495 304.552 25.1784C303.827 25.9331 303.348 26.9781 303.115 28.3134C302.883 29.6486 302.767 32.4353 302.767 36.6733C302.767 41.2597 302.883 44.2785 303.115 45.7299C303.348 47.1813 303.87 48.3279 304.683 49.1697C305.496 50.0405 306.497 50.4759 307.687 50.4759C308.848 50.4759 309.835 50.0405 310.648 49.1697C311.49 48.2989 312.012 47.0797 312.216 45.5122C312.419 43.9447 312.535 40.9984 312.564 36.6733C312.564 32.4643 312.448 29.6922 312.216 28.3569C311.983 27.0216 311.504 25.9621 310.779 25.1784Z" fill="white"/>
</g>
<g id="Group_9">
<path id="Vector_11" d="M319.488 38.6764C319.517 38.5022 319.561 38.27 319.619 37.9797C319.677 37.6895 319.851 37.1379 320.141 36.3252C320.432 35.5124 320.722 34.8303 321.012 34.2787C321.303 33.7272 321.767 33.1902 322.406 32.6677C323.044 32.1452 323.683 31.8985 324.321 31.9275C324.96 31.9565 325.584 32.0581 326.194 32.2323C326.803 32.4065 327.239 32.6677 327.5 33.016C327.761 33.3644 327.993 33.6837 328.197 33.9739C328.4 34.2642 328.516 34.54 328.545 34.8012L328.632 35.106C328.632 35.1641 328.646 35.1931 328.676 35.1931L329.154 34.7141C330.896 32.8564 332.943 31.9275 335.294 31.9275C335.787 31.9275 336.237 31.9565 336.644 32.0146C337.05 32.0726 337.427 32.1742 337.776 32.3194C338.124 32.4645 338.4 32.6096 338.603 32.7548C338.806 32.8999 339.024 33.0741 339.256 33.2773C339.488 33.4805 339.633 33.6692 339.691 33.8433C339.75 34.0175 339.866 34.2062 340.04 34.4094C340.214 34.6125 340.272 34.7867 340.214 34.9319C340.156 35.077 340.199 35.2076 340.345 35.3237C340.49 35.4398 340.519 35.5414 340.432 35.6285L340.78 35.1931C342.609 33.016 344.771 31.9275 347.268 31.9275C348.835 31.9275 350.098 32.3194 351.056 33.1031C352.014 33.8869 352.507 35.0334 352.536 36.5429C352.536 38.0233 351.985 40.3165 350.882 43.4224C349.779 46.5284 349.227 48.3861 349.227 48.9957C349.256 49.4021 349.329 49.6779 349.445 49.823C349.561 49.9681 349.779 50.0407 350.098 50.0407C350.911 50.0407 351.665 49.6053 352.362 48.7345C353.059 47.8636 353.625 46.6735 354.06 45.1641C354.147 44.8448 354.234 44.6561 354.321 44.598C354.408 44.54 354.641 44.511 355.018 44.511C355.599 44.511 355.889 44.6271 355.889 44.8593C355.889 44.8883 355.831 45.106 355.715 45.5124C355.482 46.3542 355.163 47.1815 354.757 47.9943C354.35 48.807 353.683 49.6198 352.754 50.4326C351.825 51.2453 350.824 51.6372 349.75 51.6082C348.385 51.6082 347.398 51.2163 346.789 50.4326C346.179 49.6488 345.874 48.8361 345.874 47.9943C345.874 47.4427 346.397 45.7011 347.442 42.7693C348.487 39.8375 349.024 37.6314 349.053 36.151C349.053 34.4384 348.414 33.5821 347.137 33.5821H346.919C344.423 33.5821 342.318 35.048 340.606 37.9797L340.301 38.5022L338.864 44.3368C337.906 48.1394 337.355 50.1858 337.21 50.4761C336.832 51.2599 336.208 51.6517 335.337 51.6517C334.96 51.6517 334.655 51.5501 334.423 51.3469C334.191 51.1438 334.031 50.9696 333.944 50.8244C333.857 50.6793 333.813 50.5342 333.813 50.389C333.813 50.0697 334.307 47.9943 335.294 44.1626L336.861 37.8056C336.948 37.3702 336.992 36.8186 336.992 36.151C336.992 34.4384 336.353 33.5821 335.076 33.5821H334.858C332.362 33.5821 330.258 35.048 328.545 37.9797L328.24 38.5022L326.803 44.3368C325.845 48.1394 325.294 50.1858 325.149 50.4761C324.771 51.2599 324.147 51.6517 323.276 51.6517C322.899 51.6517 322.594 51.5647 322.362 51.3905C322.13 51.2163 321.97 51.0422 321.883 50.868C321.796 50.6938 321.767 50.5487 321.796 50.4326C321.796 50.0552 322.347 47.675 323.451 43.2918C324.583 38.8215 325.149 36.4848 325.149 36.2816C325.236 35.8462 325.279 35.4543 325.279 35.106C325.279 34.061 324.916 33.5385 324.191 33.5385C323.552 33.5385 323.015 33.9449 322.58 34.7577C322.144 35.5705 321.81 36.4558 321.578 37.4137C321.346 38.3716 321.172 38.8941 321.056 38.9812C320.998 39.0393 320.765 39.0683 320.359 39.0683H319.75C319.575 38.8941 319.488 38.7635 319.488 38.6764Z" fill="white"/>
</g>
</g>
<g id="Group 237">
<g id="Group 240">
<g id="Group_10">
<g id="Group_11">
<g id="Group_12">
<path id="Vector_12" d="M23.6152 109.524C23.6152 108.885 23.8039 108.377 24.1813 108H24.6602C25.8794 108.087 27.4033 108.131 29.2321 108.131C32.6573 108.131 34.6747 108.087 35.2843 108H35.7197C35.8939 108.174 35.981 108.305 35.981 108.392C35.981 108.479 35.952 108.74 35.8939 109.176C35.7488 109.611 35.6181 109.887 35.502 110.003H34.5877C33.9491 110.061 33.5136 110.09 33.2814 110.09C32.4396 110.235 31.9752 110.453 31.8881 110.743C31.8881 110.801 32.309 114.444 33.1508 121.672C33.9926 128.9 34.428 132.543 34.457 132.601L37.6356 127.507C39.7546 124.11 41.8736 120.685 43.9926 117.231C46.1116 113.776 47.2001 111.991 47.2582 111.875C47.3743 111.672 47.4324 111.454 47.4324 111.222C47.4324 110.525 46.7938 110.119 45.5165 110.003C44.994 110.003 44.7328 109.843 44.7328 109.524C44.7328 109.495 44.7618 109.306 44.8199 108.958C44.907 108.552 44.994 108.29 45.0811 108.174C45.1682 108.058 45.3569 108 45.6472 108C45.7052 108 45.8794 108 46.1697 108C46.4599 108 46.9534 108.015 47.6501 108.044C48.3467 108.073 49.2756 108.087 50.4367 108.087C52.4396 108.087 53.7023 108.058 54.2248 108H54.5296C54.7328 108.203 54.8344 108.363 54.8344 108.479C54.8344 108.972 54.7038 109.437 54.4425 109.872C54.3554 109.959 54.1087 110.003 53.7023 110.003C53.325 110.032 52.9766 110.061 52.6573 110.09C52.338 110.119 52.0332 110.192 51.743 110.308C51.4527 110.424 51.2205 110.525 51.0463 110.612C50.8721 110.7 50.698 110.816 50.5238 110.961C50.3496 111.106 50.2045 111.208 50.0884 111.266C49.9723 111.324 49.8562 111.454 49.7401 111.657C49.6239 111.861 49.5223 111.962 49.4353 111.962L41.0318 125.46C35.8068 133.907 33.1073 138.232 32.9331 138.435C32.846 138.493 32.7444 138.566 32.6283 138.653L31.8446 138.697H31.5398C31.0173 138.697 30.756 138.595 30.756 138.392C30.6689 138.218 30.1029 133.573 29.0579 124.459C27.9549 115.228 27.3888 110.569 27.3598 110.482C27.2147 110.163 26.3148 110.003 24.6602 110.003H23.92C23.7168 109.858 23.6152 109.698 23.6152 109.524Z" fill="white"/>
</g>
<g id="Group_13">
<path id="Vector_13" d="M68.1699 127.42C68.1699 127.42 68.1699 127.231 68.1699 126.854C68.1699 126.476 68.3731 126.186 68.7795 125.983H94.077C94.5124 126.215 94.7302 126.505 94.7302 126.854C94.7302 127.202 94.5124 127.492 94.077 127.724H68.7795C68.3731 127.521 68.1699 127.231 68.1699 126.854V127.42Z" fill="white"/>
</g>
<g id="Group_14">
<path id="Vector_14" d="M115.204 130.903C115.204 131.599 114.972 132.18 114.507 132.644C114.043 133.109 113.477 133.341 112.809 133.341H112.504C113.84 135.634 115.61 136.781 117.816 136.781C119.848 136.781 121.329 135.91 122.258 134.168C122.809 133.21 123.085 131.353 123.085 128.595C123.085 125.605 122.693 123.588 121.909 122.543C121.155 121.585 120.313 121.106 119.384 121.106H119.123C116.859 121.106 115.146 122.093 113.985 124.067C113.869 124.27 113.767 124.386 113.68 124.415C113.593 124.444 113.375 124.473 113.027 124.502C112.533 124.502 112.258 124.415 112.2 124.241C112.142 124.125 112.113 121.585 112.113 116.621V111.004C112.113 109.553 112.185 108.827 112.33 108.827C112.388 108.769 112.446 108.74 112.504 108.74C112.533 108.74 112.838 108.856 113.419 109.089C113.999 109.321 114.798 109.553 115.814 109.785C116.829 110.017 117.918 110.134 119.079 110.134C121.14 110.134 123.114 109.727 125.001 108.914C125.233 108.798 125.422 108.74 125.567 108.74C125.799 108.74 125.915 109.001 125.915 109.524V110.09C123.535 112.906 120.56 114.313 116.989 114.313C116.089 114.313 115.277 114.226 114.551 114.052L114.115 113.965V121.454C114.667 121.048 115.102 120.729 115.422 120.496C115.741 120.264 116.263 120.032 116.989 119.8C117.715 119.567 118.455 119.451 119.21 119.451C121.561 119.451 123.549 120.395 125.175 122.282C126.8 124.168 127.613 126.403 127.613 128.987C127.613 131.657 126.684 133.936 124.827 135.823C122.969 137.71 120.705 138.668 118.034 138.697C115.683 138.697 113.796 137.913 112.374 136.345C110.951 134.778 110.24 133.007 110.24 131.033C110.24 130.337 110.4 129.785 110.719 129.379C111.038 128.972 111.372 128.711 111.721 128.595C112.069 128.479 112.403 128.421 112.722 128.421C113.448 128.421 114.043 128.668 114.507 129.161C114.972 129.655 115.204 130.235 115.204 130.903Z" fill="white"/>
<path id="Vector_15" d="M136.979 130.903C136.979 131.599 136.747 132.18 136.283 132.644C135.818 133.109 135.252 133.341 134.585 133.341H134.28C135.615 135.634 137.386 136.781 139.592 136.781C141.624 136.781 143.104 135.91 144.033 134.168C144.585 133.21 144.86 131.353 144.86 128.595C144.86 125.605 144.468 123.588 143.685 122.543C142.93 121.585 142.088 121.106 141.159 121.106H140.898C138.634 121.106 136.921 122.093 135.76 124.067C135.644 124.27 135.542 124.386 135.455 124.415C135.368 124.444 135.151 124.473 134.802 124.502C134.309 124.502 134.033 124.415 133.975 124.241C133.917 124.125 133.888 121.585 133.888 116.621V111.004C133.888 109.553 133.96 108.827 134.106 108.827C134.164 108.769 134.222 108.74 134.28 108.74C134.309 108.74 134.614 108.856 135.194 109.089C135.775 109.321 136.573 109.553 137.589 109.785C138.605 110.017 139.693 110.134 140.855 110.134C142.915 110.134 144.889 109.727 146.776 108.914C147.008 108.798 147.197 108.74 147.342 108.74C147.574 108.74 147.691 109.001 147.691 109.524V110.09C145.31 112.906 142.335 114.313 138.765 114.313C137.865 114.313 137.052 114.226 136.326 114.052L135.891 113.965V121.454C136.442 121.048 136.878 120.729 137.197 120.496C137.516 120.264 138.039 120.032 138.765 119.8C139.49 119.567 140.23 119.451 140.985 119.451C143.336 119.451 145.325 120.395 146.95 122.282C148.576 124.168 149.389 126.403 149.389 128.987C149.389 131.657 148.46 133.936 146.602 135.823C144.744 137.71 142.48 138.668 139.81 138.697C137.458 138.697 135.572 137.913 134.149 136.345C132.727 134.778 132.016 133.007 132.016 131.033C132.016 130.337 132.175 129.785 132.495 129.379C132.814 128.972 133.148 128.711 133.496 128.595C133.844 128.479 134.178 128.421 134.497 128.421C135.223 128.421 135.818 128.668 136.283 129.161C136.747 129.655 136.979 130.235 136.979 130.903Z" fill="white"/>
</g>
</g>
<g id="Group_15">
<g id="Group_16">
<path id="Vector_16" d="M36.4865 171.875L35.9205 172.093C35.5141 172.238 34.9336 172.383 34.1789 172.528C33.4241 172.673 32.5823 172.775 31.6535 172.833H30.8262V170.83H31.6535C33.0178 170.772 34.2805 170.554 35.4416 170.177C36.6027 169.8 37.4154 169.451 37.8799 169.132C38.3443 168.813 38.7507 168.493 39.099 168.174C39.1571 168.087 39.3313 168.044 39.6215 168.044C39.8828 168.044 40.1295 168.131 40.3617 168.305V181.324L40.4053 194.386C40.6085 194.589 40.7826 194.72 40.9278 194.778C41.0729 194.836 41.4212 194.894 41.9728 194.952C42.5243 195.01 43.4241 195.039 44.6723 195.039H45.8044V197.042H45.3254C44.7159 196.955 42.4082 196.911 38.4024 196.911C34.4546 196.911 32.176 196.955 31.5664 197.042H31.0439V195.039H32.176C32.8146 195.039 33.3661 195.039 33.8305 195.039C34.295 195.039 34.6578 195.025 34.9191 194.996C35.1803 194.967 35.4125 194.923 35.6157 194.865C35.8189 194.807 35.935 194.778 35.9641 194.778C35.9931 194.778 36.0802 194.705 36.2253 194.56C36.3704 194.415 36.4575 194.357 36.4865 194.386V171.875Z" fill="white"/>
<path id="Vector_17" d="M53.1596 171.57C54.7851 169.219 57.0057 168.044 59.8214 168.044C61.2147 168.044 62.6081 168.421 64.0014 169.176C65.3947 169.93 66.5268 171.266 67.3976 173.181C68.4716 175.591 69.0086 178.9 69.0086 183.109C69.0086 187.608 68.3846 191.048 67.1364 193.428C66.5558 194.647 65.7576 195.62 64.7416 196.345C63.7256 197.071 62.8403 197.521 62.0856 197.695C61.3309 197.869 60.5907 197.971 59.865 198C59.1102 198 58.3555 197.913 57.6008 197.739C56.8461 197.565 55.9608 197.1 54.9448 196.345C53.9288 195.591 53.1306 194.618 52.55 193.428C51.3018 191.048 50.6777 187.608 50.6777 183.109C50.6777 178.058 51.505 174.212 53.1596 171.57ZM62.9564 171.048C62.0856 170.119 61.0551 169.655 59.865 169.655C58.6458 169.655 57.6008 170.119 56.73 171.048C56.0043 171.803 55.5253 172.848 55.2931 174.183C55.0609 175.518 54.9448 178.305 54.9448 182.543C54.9448 187.129 55.0609 190.148 55.2931 191.599C55.5253 193.051 56.0478 194.197 56.8606 195.039C57.6734 195.91 58.6748 196.345 59.865 196.345C61.0261 196.345 62.013 195.91 62.8258 195.039C63.6676 194.168 64.1901 192.949 64.3933 191.382C64.5965 189.814 64.7126 186.868 64.7416 182.543C64.7416 178.334 64.6255 175.562 64.3933 174.226C64.161 172.891 63.6821 171.832 62.9564 171.048Z" fill="white"/>
</g>
<g id="Group_17">
<path id="Vector_18" d="M84.0879 186.723C84.0879 186.723 84.0879 186.534 84.0879 186.157C84.0879 185.78 84.2911 185.489 84.6975 185.286H109.995C110.43 185.518 110.648 185.809 110.648 186.157C110.648 186.505 110.43 186.795 109.995 187.028H84.6975C84.2911 186.825 84.0879 186.534 84.0879 186.157V186.723Z" fill="white"/>
</g>
<g id="Group_18">
<path id="Vector_19" d="M139.308 184.546C137.915 186.752 136.173 187.855 134.083 187.855C131.819 187.855 129.961 186.999 128.51 185.286C127.059 183.573 126.188 181.745 125.898 179.8C125.84 179.335 125.811 178.755 125.811 178.058V177.71C125.811 175.01 126.812 172.659 128.815 170.656C130.557 168.914 132.472 168.044 134.562 168.044C134.62 168.044 134.707 168.044 134.824 168.044C134.94 168.044 135.056 168.058 135.172 168.087H135.346C135.694 168.087 136.057 168.116 136.435 168.174C136.812 168.232 137.349 168.406 138.046 168.697C138.742 168.987 139.424 169.451 140.092 170.09C140.76 170.729 141.384 171.585 141.964 172.659C143.213 175.213 143.837 178.493 143.837 182.499C143.837 186.563 142.966 190.003 141.224 192.819C140.208 194.444 138.989 195.707 137.567 196.607C136.144 197.507 134.635 197.971 133.038 198C131.268 198 129.816 197.579 128.684 196.737C127.552 195.896 126.972 194.647 126.943 192.993C126.914 191.338 127.683 190.525 129.25 190.554C129.889 190.554 130.426 190.758 130.861 191.164C131.297 191.57 131.514 192.136 131.514 192.862C131.514 193.385 131.384 193.835 131.123 194.212C130.861 194.589 130.629 194.821 130.426 194.909C130.223 194.996 130.034 195.068 129.86 195.126L129.686 195.17C129.686 195.228 129.787 195.315 129.991 195.431C130.194 195.547 130.571 195.692 131.123 195.866C131.674 196.041 132.284 196.113 132.951 196.084H133.213C134.954 196.084 136.42 195.155 137.61 193.298C138.742 191.672 139.308 188.856 139.308 184.851V184.546ZM134.606 186.244C135.999 186.244 137.117 185.533 137.959 184.11C138.8 182.688 139.236 180.758 139.265 178.319C139.265 176.055 139.149 174.43 138.916 173.443C138.858 173.152 138.771 172.862 138.655 172.572C138.539 172.282 138.336 171.904 138.046 171.44C137.755 170.975 137.32 170.583 136.739 170.264C136.159 169.945 135.477 169.8 134.693 169.829C133.59 169.829 132.647 170.221 131.863 171.004C131.253 171.643 130.861 172.398 130.687 173.269C130.513 174.139 130.411 175.663 130.382 177.84C130.382 180.25 130.455 181.875 130.6 182.717C130.745 183.559 131.036 184.241 131.471 184.763C132.197 185.75 133.242 186.244 134.606 186.244Z" fill="white"/>
</g>
</g>
<path id="Vector_20" d="M155.958 157.594H17V154.981H155.958V157.594Z" fill="white"/>
</g>
<g id="Group_19">
<path id="Vector_21" d="M175.711 152.064C175.711 151.687 175.914 151.396 176.321 151.193H204.056C204.492 151.425 204.709 151.716 204.709 152.064C204.709 152.383 204.506 152.659 204.1 152.891L190.254 152.935H176.408C175.943 152.79 175.711 152.499 175.711 152.064ZM175.711 160.511C175.711 160.075 175.943 159.785 176.408 159.64H204.1C204.506 159.93 204.709 160.221 204.709 160.511C204.709 160.888 204.492 161.179 204.056 161.382H176.321C175.914 161.179 175.711 160.888 175.711 160.511Z" fill="white"/>
</g>
<g id="Group_20">
<g id="Group_21">
<g id="Group_22">
<path id="Vector_22" d="M230.652 124.11C230.652 119.379 231.828 115.634 234.179 112.877C236.53 110.119 239.143 108.74 242.016 108.74C244.019 108.74 245.456 109.263 246.327 110.308C247.198 111.353 247.633 112.514 247.633 113.791C247.633 114.517 247.43 115.097 247.024 115.533C246.617 115.968 246.051 116.186 245.326 116.186C244.658 116.186 244.106 115.983 243.671 115.576C243.236 115.17 243.018 114.604 243.018 113.878C243.018 112.601 243.7 111.832 245.064 111.57C244.426 110.932 243.526 110.569 242.365 110.482C240.304 110.482 238.606 111.353 237.27 113.094C235.906 115.01 235.224 117.942 235.224 121.89L235.268 122.064C235.413 121.89 235.529 121.701 235.616 121.498C236.806 119.756 238.359 118.885 240.275 118.885H240.449C241.784 118.885 242.96 119.161 243.976 119.713C244.672 120.119 245.369 120.7 246.066 121.454C246.762 122.209 247.328 123.036 247.764 123.936C248.373 125.358 248.678 126.911 248.678 128.595V129.379C248.678 130.046 248.606 130.671 248.461 131.251C248.141 132.964 247.212 134.633 245.674 136.258C244.135 137.884 242.191 138.697 239.839 138.697C239.027 138.697 238.243 138.581 237.488 138.348C236.733 138.116 235.921 137.681 235.05 137.042C234.179 136.403 233.439 135.547 232.829 134.473C232.22 133.399 231.697 131.991 231.262 130.25C230.826 128.508 230.623 126.462 230.652 124.11ZM240.014 120.453C239.143 120.453 238.388 120.7 237.749 121.193C237.111 121.686 236.617 122.34 236.269 123.152C235.921 123.965 235.674 124.792 235.529 125.634C235.384 126.476 235.297 127.376 235.268 128.334C235.268 130.743 235.442 132.47 235.79 133.515C236.138 134.56 236.69 135.402 237.445 136.041C238.141 136.563 238.91 136.824 239.752 136.824C241.233 136.824 242.365 136.273 243.149 135.17C243.526 134.647 243.787 133.994 243.932 133.21C244.077 132.427 244.15 130.903 244.15 128.639C244.15 126.316 244.077 124.763 243.932 123.98C243.787 123.196 243.526 122.543 243.149 122.02C242.365 120.975 241.32 120.453 240.014 120.453Z" fill="white"/>
<path id="Vector_23" d="M257.736 130.903C257.736 131.599 257.504 132.18 257.04 132.644C256.575 133.109 256.009 133.341 255.341 133.341H255.037C256.372 135.634 258.143 136.781 260.349 136.781C262.381 136.781 263.861 135.91 264.79 134.168C265.341 133.21 265.617 131.353 265.617 128.595C265.617 125.605 265.225 123.588 264.442 122.543C263.687 121.585 262.845 121.106 261.916 121.106H261.655C259.391 121.106 257.678 122.093 256.517 124.067C256.401 124.27 256.299 124.386 256.212 124.415C256.125 124.444 255.907 124.473 255.559 124.502C255.066 124.502 254.79 124.415 254.732 124.241C254.674 124.125 254.645 121.585 254.645 116.621V111.004C254.645 109.553 254.717 108.827 254.862 108.827C254.921 108.769 254.979 108.74 255.037 108.74C255.066 108.74 255.37 108.856 255.951 109.089C256.532 109.321 257.33 109.553 258.346 109.785C259.362 110.017 260.45 110.134 261.611 110.134C263.672 110.134 265.646 109.727 267.533 108.914C267.765 108.798 267.954 108.74 268.099 108.74C268.331 108.74 268.447 109.001 268.447 109.524V110.09C266.067 112.906 263.092 114.313 259.521 114.313C258.622 114.313 257.809 114.226 257.083 114.052L256.648 113.965V121.454C257.199 121.048 257.635 120.729 257.954 120.496C258.273 120.264 258.796 120.032 259.521 119.8C260.247 119.567 260.987 119.451 261.742 119.451C264.093 119.451 266.082 120.395 267.707 122.282C269.333 124.168 270.145 126.403 270.145 128.987C270.145 131.657 269.217 133.936 267.359 135.823C265.501 137.71 263.237 138.668 260.566 138.697C258.215 138.697 256.328 137.913 254.906 136.345C253.484 134.778 252.772 133.007 252.772 131.033C252.772 130.337 252.932 129.785 253.251 129.379C253.571 128.972 253.905 128.711 254.253 128.595C254.601 128.479 254.935 128.421 255.254 128.421C255.98 128.421 256.575 128.668 257.04 129.161C257.504 129.655 257.736 130.235 257.736 130.903Z" fill="white"/>
</g>
<g id="Group_23">
<path id="Vector_24" d="M285.698 127.42C285.698 127.42 285.698 127.231 285.698 126.854C285.698 126.476 285.901 126.186 286.308 125.983H311.605C312.041 126.215 312.258 126.505 312.258 126.854C312.258 127.202 312.041 127.492 311.605 127.724H286.308C285.901 127.521 285.698 127.231 285.698 126.854V127.42Z" fill="white"/>
</g>
<g id="Group_24">
<path id="Vector_25" d="M332.732 130.903C332.732 131.599 332.5 132.18 332.036 132.644C331.571 133.109 331.005 133.341 330.337 133.341H330.033C331.368 135.634 333.139 136.781 335.345 136.781C337.377 136.781 338.857 135.91 339.786 134.168C340.337 133.21 340.613 131.353 340.613 128.595C340.613 125.605 340.221 123.588 339.438 122.543C338.683 121.585 337.841 121.106 336.912 121.106H336.651C334.387 121.106 332.674 122.093 331.513 124.067C331.397 124.27 331.295 124.386 331.208 124.415C331.121 124.444 330.904 124.473 330.555 124.502C330.062 124.502 329.786 124.415 329.728 124.241C329.67 124.125 329.641 121.585 329.641 116.621V111.004C329.641 109.553 329.713 108.827 329.859 108.827C329.917 108.769 329.975 108.74 330.033 108.74C330.062 108.74 330.367 108.856 330.947 109.089C331.528 109.321 332.326 109.553 333.342 109.785C334.358 110.017 335.446 110.134 336.607 110.134C338.668 110.134 340.642 109.727 342.529 108.914C342.761 108.798 342.95 108.74 343.095 108.74C343.327 108.74 343.443 109.001 343.443 109.524V110.09C341.063 112.906 338.088 114.313 334.517 114.313C333.618 114.313 332.805 114.226 332.079 114.052L331.644 113.965V121.454C332.195 121.048 332.631 120.729 332.95 120.496C333.269 120.264 333.792 120.032 334.517 119.8C335.243 119.567 335.983 119.451 336.738 119.451C339.089 119.451 341.078 120.395 342.703 122.282C344.329 124.168 345.142 126.403 345.142 128.987C345.142 131.657 344.213 133.936 342.355 135.823C340.497 137.71 338.233 138.668 335.562 138.697C333.211 138.697 331.324 137.913 329.902 136.345C328.48 134.778 327.769 133.007 327.769 131.033C327.769 130.337 327.928 129.785 328.248 129.379C328.567 128.972 328.901 128.711 329.249 128.595C329.597 128.479 329.931 128.421 330.25 128.421C330.976 128.421 331.571 128.668 332.036 129.161C332.5 129.655 332.732 130.235 332.732 130.903Z" fill="white"/>
<path id="Vector_26" d="M354.506 130.903C354.506 131.599 354.273 132.18 353.809 132.644C353.345 133.109 352.779 133.341 352.111 133.341H351.806C353.141 135.634 354.912 136.781 357.118 136.781C359.15 136.781 360.631 135.91 361.559 134.168C362.111 133.21 362.387 131.353 362.387 128.595C362.387 125.605 361.995 123.588 361.211 122.543C360.456 121.585 359.615 121.106 358.686 121.106H358.424C356.16 121.106 354.448 122.093 353.287 124.067C353.17 124.27 353.069 124.386 352.982 124.415C352.895 124.444 352.677 124.473 352.329 124.502C351.835 124.502 351.559 124.415 351.501 124.241C351.443 124.125 351.414 121.585 351.414 116.621V111.004C351.414 109.553 351.487 108.827 351.632 108.827C351.69 108.769 351.748 108.74 351.806 108.74C351.835 108.74 352.14 108.856 352.721 109.089C353.301 109.321 354.099 109.553 355.115 109.785C356.131 110.017 357.22 110.134 358.381 110.134C360.442 110.134 362.416 109.727 364.303 108.914C364.535 108.798 364.723 108.74 364.869 108.74C365.101 108.74 365.217 109.001 365.217 109.524V110.09C362.837 112.906 359.861 114.313 356.291 114.313C355.391 114.313 354.578 114.226 353.853 114.052L353.417 113.965V121.454C353.969 121.048 354.404 120.729 354.723 120.496C355.043 120.264 355.565 120.032 356.291 119.8C357.017 119.567 357.757 119.451 358.512 119.451C360.863 119.451 362.851 120.395 364.477 122.282C366.102 124.168 366.915 126.403 366.915 128.987C366.915 131.657 365.986 133.936 364.128 135.823C362.271 137.71 360.006 138.668 357.336 138.697C354.985 138.697 353.098 137.913 351.676 136.345C350.253 134.778 349.542 133.007 349.542 131.033C349.542 130.337 349.702 129.785 350.021 129.379C350.34 128.972 350.674 128.711 351.022 128.595C351.371 128.479 351.705 128.421 352.024 128.421C352.75 128.421 353.345 128.668 353.809 129.161C354.273 129.655 354.506 130.235 354.506 130.903Z" fill="white"/>
</g>
</g>
<g id="Group_25">
<g id="Group_26">
<path id="Vector_27" d="M248.988 171.875L248.421 172.093C248.015 172.238 247.435 172.383 246.68 172.528C245.925 172.673 245.083 172.775 244.154 172.833H243.327V170.83H244.154C245.519 170.772 246.781 170.554 247.943 170.177C249.104 169.8 249.916 169.451 250.381 169.132C250.845 168.813 251.252 168.493 251.6 168.174C251.658 168.087 251.832 168.044 252.123 168.044C252.384 168.044 252.63 168.131 252.863 168.305V181.324L252.906 194.386C253.109 194.589 253.284 194.72 253.429 194.778C253.574 194.836 253.922 194.894 254.474 194.952C255.025 195.01 255.925 195.039 257.173 195.039H258.305V197.042H257.826C257.217 196.955 254.909 196.911 250.903 196.911C246.956 196.911 244.677 196.955 244.067 197.042H243.545V195.039H244.677C245.316 195.039 245.867 195.039 246.332 195.039C246.796 195.039 247.159 195.025 247.42 194.996C247.681 194.967 247.914 194.923 248.117 194.865C248.32 194.807 248.436 194.778 248.465 194.778C248.494 194.778 248.581 194.705 248.726 194.56C248.871 194.415 248.958 194.357 248.988 194.386V171.875Z" fill="white"/>
<path id="Vector_28" d="M270.763 171.875L270.197 172.093C269.79 172.238 269.21 172.383 268.455 172.528C267.701 172.673 266.859 172.775 265.93 172.833H265.103V170.83H265.93C267.294 170.772 268.557 170.554 269.718 170.177C270.879 169.8 271.692 169.451 272.156 169.132C272.621 168.813 273.027 168.493 273.375 168.174C273.433 168.087 273.608 168.044 273.898 168.044C274.159 168.044 274.406 168.131 274.638 168.305V181.324L274.682 194.386C274.885 194.589 275.059 194.72 275.204 194.778C275.349 194.836 275.698 194.894 276.249 194.952C276.801 195.01 277.701 195.039 278.949 195.039H280.081V197.042H279.602C278.992 196.955 276.685 196.911 272.679 196.911C268.731 196.911 266.452 196.955 265.843 197.042H265.32V195.039H266.452C267.091 195.039 267.642 195.039 268.107 195.039C268.571 195.039 268.934 195.025 269.195 194.996C269.457 194.967 269.689 194.923 269.892 194.865C270.095 194.807 270.211 194.778 270.24 194.778C270.269 194.778 270.357 194.705 270.502 194.56C270.647 194.415 270.734 194.357 270.763 194.386V171.875Z" fill="white"/>
</g>
<g id="Group_27">
<path id="Vector_29" d="M296.589 186.723C296.589 186.723 296.589 186.534 296.589 186.157C296.589 185.78 296.792 185.489 297.198 185.286H322.496C322.931 185.518 323.149 185.809 323.149 186.157C323.149 186.505 322.931 186.795 322.496 187.028H297.198C296.792 186.825 296.589 186.534 296.589 186.157V186.723Z" fill="white"/>
</g>
<g id="Group_28">
<path id="Vector_30" d="M351.809 184.546C350.416 186.752 348.674 187.855 346.584 187.855C344.32 187.855 342.462 186.999 341.011 185.286C339.56 183.573 338.689 181.745 338.399 179.8C338.341 179.335 338.312 178.755 338.312 178.058V177.71C338.312 175.01 339.313 172.659 341.316 170.656C343.058 168.914 344.973 168.044 347.063 168.044C347.121 168.044 347.208 168.044 347.325 168.044C347.441 168.044 347.557 168.058 347.673 168.087H347.847C348.195 168.087 348.558 168.116 348.936 168.174C349.313 168.232 349.85 168.406 350.547 168.697C351.243 168.987 351.925 169.451 352.593 170.09C353.261 170.729 353.885 171.585 354.465 172.659C355.714 175.213 356.338 178.493 356.338 182.499C356.338 186.563 355.467 190.003 353.725 192.819C352.709 194.444 351.49 195.707 350.068 196.607C348.645 197.507 347.136 197.971 345.539 198C343.769 198 342.317 197.579 341.185 196.737C340.053 195.896 339.473 194.647 339.444 192.993C339.415 191.338 340.184 190.525 341.751 190.554C342.39 190.554 342.927 190.758 343.362 191.164C343.798 191.57 344.015 192.136 344.015 192.862C344.015 193.385 343.885 193.835 343.624 194.212C343.362 194.589 343.13 194.821 342.927 194.909C342.724 194.996 342.535 195.068 342.361 195.126L342.187 195.17C342.187 195.228 342.288 195.315 342.491 195.431C342.695 195.547 343.072 195.692 343.624 195.866C344.175 196.041 344.785 196.113 345.452 196.084H345.714C347.455 196.084 348.921 195.155 350.111 193.298C351.243 191.672 351.809 188.856 351.809 184.851V184.546ZM347.107 186.244C348.5 186.244 349.618 185.533 350.46 184.11C351.301 182.688 351.737 180.758 351.766 178.319C351.766 176.055 351.65 174.43 351.417 173.443C351.359 173.152 351.272 172.862 351.156 172.572C351.04 172.282 350.837 171.904 350.547 171.44C350.256 170.975 349.821 170.583 349.24 170.264C348.66 169.945 347.978 169.8 347.194 169.829C346.091 169.829 345.148 170.221 344.364 171.004C343.754 171.643 343.362 172.398 343.188 173.269C343.014 174.139 342.912 175.663 342.883 177.84C342.883 180.25 342.956 181.875 343.101 182.717C343.246 183.559 343.536 184.241 343.972 184.763C344.698 185.75 345.743 186.244 347.107 186.244Z" fill="white"/>
</g>
</g>
<path id="Vector_31" d="M373.49 157.594H224.474V154.981H373.49V157.594Z" fill="white"/>
</g>
</g>
<path id="Line 97 (Stroke)" fill-rule="evenodd" clip-rule="evenodd" d="M440 228V0L445 0V228H440Z" fill="#CD08D1"/>
<g id="Group 239">
<g id="Group 242">
<g id="Group_29">
<path id="Vector_32" d="M540 38.2177C540 37.5791 540.189 37.0711 540.566 36.6937H541.045C542.264 36.7808 543.788 36.8243 545.617 36.8243C549.042 36.8243 551.06 36.7808 551.669 36.6937H552.104C552.279 36.8679 552.366 36.9985 552.366 37.0856C552.366 37.1727 552.337 37.4339 552.279 37.8693C552.134 38.3048 552.003 38.5805 551.887 38.6966H550.972C550.334 38.7547 549.898 38.7837 549.666 38.7837C548.824 38.9288 548.36 39.1466 548.273 39.4368C548.273 39.4949 548.694 43.1378 549.536 50.3657C550.377 57.5936 550.813 61.2365 550.842 61.2946L554.02 56.2003C556.139 52.804 558.258 49.3788 560.377 45.9245C562.496 42.4702 563.585 40.685 563.643 40.5689C563.759 40.3657 563.817 40.148 563.817 39.9158C563.817 39.2191 563.179 38.8127 561.901 38.6966C561.379 38.6966 561.118 38.537 561.118 38.2177C561.118 38.1886 561.147 38 561.205 37.6516C561.292 37.2452 561.379 36.984 561.466 36.8679C561.553 36.7518 561.742 36.6937 562.032 36.6937C562.09 36.6937 562.264 36.6937 562.554 36.6937C562.845 36.6937 563.338 36.7082 564.035 36.7373C564.731 36.7663 565.66 36.7808 566.821 36.7808C568.824 36.7808 570.087 36.7518 570.61 36.6937H570.914C571.118 36.8969 571.219 37.0566 571.219 37.1727C571.219 37.6661 571.089 38.1306 570.827 38.566C570.74 38.6531 570.493 38.6966 570.087 38.6966C569.71 38.7257 569.361 38.7547 569.042 38.7837C568.723 38.8127 568.418 38.8853 568.128 39.0014C567.837 39.1175 567.605 39.2191 567.431 39.3062C567.257 39.3933 567.083 39.5094 566.909 39.6545C566.734 39.7997 566.589 39.9013 566.473 39.9593C566.357 40.0174 566.241 40.148 566.125 40.3512C566.009 40.5544 565.907 40.656 565.82 40.656L557.417 54.1538C552.192 62.6008 549.492 66.9259 549.318 67.1291C549.231 67.1872 549.129 67.2598 549.013 67.3468L548.229 67.3904H547.925C547.402 67.3904 547.141 67.2888 547.141 67.0856C547.054 66.9114 546.488 62.267 545.443 53.1524C544.34 43.9216 543.774 39.2627 543.745 39.1756C543.599 38.8563 542.7 38.6966 541.045 38.6966H540.305C540.102 38.5515 540 38.3918 540 38.2177Z" fill="white"/>
</g>
<g id="Group_30">
<path id="Vector_33" d="M584.553 56.1133C584.553 56.1133 584.553 55.9246 584.553 55.5473C584.553 55.1699 584.756 54.8796 585.162 54.6764H610.46C610.895 54.9087 611.113 55.1989 611.113 55.5473C611.113 55.8956 610.895 56.1859 610.46 56.4181H585.162C584.756 56.2149 584.553 55.9246 584.553 55.5473V56.1133Z" fill="white"/>
</g>
<g id="Group_31">
<path id="Vector_34" d="M631.589 59.5965C631.589 60.2931 631.356 60.8737 630.892 61.3381C630.428 61.8026 629.862 62.0348 629.194 62.0348H628.889C630.224 64.328 631.995 65.4746 634.201 65.4746C636.233 65.4746 637.714 64.6037 638.642 62.8621C639.194 61.9042 639.47 60.0464 639.47 57.2888C639.47 54.2989 639.078 52.2815 638.294 51.2365C637.539 50.2786 636.698 49.7997 635.769 49.7997H635.507C633.243 49.7997 631.531 50.7866 630.37 52.7605C630.253 52.9637 630.152 53.0798 630.065 53.1088C629.978 53.1378 629.76 53.1669 629.412 53.1959C628.918 53.1959 628.642 53.1088 628.584 52.9346C628.526 52.8185 628.497 50.2786 628.497 45.3149V39.6981C628.497 38.2467 628.57 37.521 628.715 37.521C628.773 37.463 628.831 37.4339 628.889 37.4339C628.918 37.4339 629.223 37.55 629.804 37.7823C630.384 38.0145 631.182 38.2467 632.198 38.4789C633.214 38.7111 634.303 38.8272 635.464 38.8272C637.525 38.8272 639.499 38.4209 641.386 37.6081C641.618 37.492 641.806 37.4339 641.952 37.4339C642.184 37.4339 642.3 37.6952 642.3 38.2177V38.7837C639.92 41.5994 636.944 43.0072 633.374 43.0072C632.474 43.0072 631.661 42.9201 630.936 42.746L630.5 42.6589V50.148C631.052 49.7416 631.487 49.4223 631.806 49.1901C632.126 48.9579 632.648 48.7257 633.374 48.4934C634.1 48.2612 634.84 48.1451 635.595 48.1451C637.946 48.1451 639.934 49.0885 641.56 50.9753C643.185 52.8621 643.998 55.0972 643.998 57.6807C643.998 60.3512 643.069 62.6299 641.211 64.5167C639.354 66.4034 637.089 67.3614 634.419 67.3904C632.068 67.3904 630.181 66.6066 628.759 65.0391C627.336 63.4717 626.625 61.701 626.625 59.7271C626.625 59.0304 626.785 58.4789 627.104 58.0725C627.423 57.6661 627.757 57.4049 628.105 57.2888C628.454 57.1727 628.788 57.1146 629.107 57.1146C629.833 57.1146 630.428 57.3614 630.892 57.8548C631.356 58.3483 631.589 58.9288 631.589 59.5965Z" fill="white"/>
<path id="Vector_35" d="M653.36 59.5965C653.36 60.2931 653.128 60.8737 652.664 61.3381C652.199 61.8026 651.633 62.0348 650.965 62.0348H650.661C651.996 64.328 653.767 65.4746 655.973 65.4746C658.005 65.4746 659.485 64.6037 660.414 62.8621C660.965 61.9042 661.241 60.0464 661.241 57.2888C661.241 54.2989 660.849 52.2815 660.066 51.2365C659.311 50.2786 658.469 49.7997 657.54 49.7997H657.279C655.015 49.7997 653.302 50.7866 652.141 52.7605C652.025 52.9637 651.923 53.0798 651.836 53.1088C651.749 53.1378 651.531 53.1669 651.183 53.1959C650.69 53.1959 650.414 53.1088 650.356 52.9346C650.298 52.8185 650.269 50.2786 650.269 45.3149V39.6981C650.269 38.2467 650.341 37.521 650.486 37.521C650.545 37.463 650.603 37.4339 650.661 37.4339C650.69 37.4339 650.994 37.55 651.575 37.7823C652.156 38.0145 652.954 38.2467 653.97 38.4789C654.986 38.7111 656.074 38.8272 657.235 38.8272C659.296 38.8272 661.27 38.4209 663.157 37.6081C663.389 37.492 663.578 37.4339 663.723 37.4339C663.955 37.4339 664.071 37.6952 664.071 38.2177V38.7837C661.691 41.5994 658.716 43.0072 655.145 43.0072C654.246 43.0072 653.433 42.9201 652.707 42.746L652.272 42.6589V50.148C652.823 49.7416 653.259 49.4223 653.578 49.1901C653.897 48.9579 654.42 48.7257 655.145 48.4934C655.871 48.2612 656.611 48.1451 657.366 48.1451C659.717 48.1451 661.706 49.0885 663.331 50.9753C664.957 52.8621 665.769 55.0972 665.769 57.6807C665.769 60.3512 664.841 62.6299 662.983 64.5167C661.125 66.4034 658.861 67.3614 656.19 67.3904C653.839 67.3904 651.952 66.6066 650.53 65.0391C649.108 63.4717 648.396 61.701 648.396 59.7271C648.396 59.0304 648.556 58.4789 648.875 58.0725C649.195 57.6661 649.529 57.4049 649.877 57.2888C650.225 57.1727 650.559 57.1146 650.878 57.1146C651.604 57.1146 652.199 57.3614 652.664 57.8548C653.128 58.3483 653.36 58.9288 653.36 59.5965Z" fill="white"/>
</g>
<g id="Group_32">
<path id="Vector_36" d="M682.52 51.3238C682.52 50.9464 682.723 50.6561 683.129 50.4529H710.865C711.3 50.6851 711.518 50.9754 711.518 51.3238C711.518 51.6431 711.315 51.9188 710.908 52.151L697.062 52.1946H683.216C682.752 52.0494 682.52 51.7592 682.52 51.3238ZM682.52 59.7708C682.52 59.3354 682.752 59.0451 683.216 58.8999H710.908C711.315 59.1902 711.518 59.4805 711.518 59.7708C711.518 60.1481 711.3 60.4384 710.865 60.6416H683.129C682.723 60.4384 682.52 60.1481 682.52 59.7708Z" fill="white"/>
</g>
<g id="Group_33">
<g id="Group_34">
<path id="Vector_37" d="M744.912 11.8316L744.346 12.0493C743.94 12.1945 743.359 12.3396 742.605 12.4847C741.85 12.6299 741.008 12.7315 740.079 12.7895H739.252V10.7866H740.079C741.444 10.7286 742.706 10.5109 743.867 10.1335C745.028 9.75616 745.841 9.40783 746.306 9.08852C746.77 8.76922 747.176 8.44992 747.525 8.13061C747.583 8.04353 747.757 7.99999 748.047 7.99999C748.309 7.99999 748.555 8.08707 748.788 8.26124V21.2801L748.831 34.3425C749.034 34.5457 749.208 34.6763 749.354 34.7344C749.499 34.7924 749.847 34.8505 750.399 34.9085C750.95 34.9666 751.85 34.9956 753.098 34.9956H754.23V36.9985H753.751C753.142 36.9115 750.834 36.8679 746.828 36.8679C742.88 36.8679 740.602 36.9115 739.992 36.9985H739.47V34.9956H740.602C741.24 34.9956 741.792 34.9956 742.256 34.9956C742.721 34.9956 743.084 34.9811 743.345 34.9521C743.606 34.9231 743.838 34.8795 744.042 34.8215C744.245 34.7634 744.361 34.7344 744.39 34.7344C744.419 34.7344 744.506 34.6618 744.651 34.5167C744.796 34.3715 744.883 34.3135 744.912 34.3425V11.8316Z" fill="white"/>
<path id="Vector_38" d="M761.587 11.5268C763.213 9.17558 765.433 7.99997 768.249 7.99997C769.642 7.99997 771.036 8.37732 772.429 9.13204C773.822 9.88676 774.955 11.222 775.825 13.1378C776.899 15.5471 777.436 18.8563 777.436 23.0653C777.436 27.5645 776.812 31.0043 775.564 33.3846C774.984 34.6037 774.185 35.5762 773.169 36.3018C772.153 37.0275 771.268 37.4775 770.513 37.6516C769.759 37.8258 769.018 37.9274 768.293 37.9564C767.538 37.9564 766.783 37.8693 766.029 37.6952C765.274 37.521 764.388 37.0566 763.373 36.3018C762.357 35.5471 761.558 34.5747 760.978 33.3846C759.73 31.0043 759.105 27.5645 759.105 23.0653C759.105 18.0145 759.933 14.1683 761.587 11.5268ZM771.384 11.0043C770.513 10.0754 769.483 9.61099 768.293 9.61099C767.074 9.61099 766.029 10.0754 765.158 11.0043C764.432 11.759 763.953 12.804 763.721 14.1393C763.489 15.4746 763.373 18.2612 763.373 22.4992C763.373 27.0856 763.489 30.1045 763.721 31.5558C763.953 33.0072 764.476 34.1538 765.288 34.9956C766.101 35.8664 767.103 36.3018 768.293 36.3018C769.454 36.3018 770.441 35.8664 771.254 34.9956C772.095 34.1248 772.618 32.9056 772.821 31.3381C773.024 29.7706 773.14 26.8243 773.169 22.4992C773.169 18.2902 773.053 15.5181 772.821 14.1828C772.589 12.8476 772.11 11.7881 771.384 11.0043Z" fill="white"/>
</g>
<g id="Group_35">
<path id="Vector_39" d="M751.265 77.6228C750.481 77.6228 749.857 77.3615 749.393 76.839C748.929 76.3165 748.696 75.6779 748.696 74.9232C748.696 72.8622 749.466 71.077 751.004 69.5676C752.542 68.0582 754.458 67.3035 756.751 67.3035C759.393 67.3035 761.599 68.1162 763.37 69.7418C765.14 71.3673 766.04 73.4718 766.069 76.0553C766.069 77.3035 765.779 78.4936 765.198 79.6257C764.618 80.7577 763.921 81.7447 763.108 82.5865C762.296 83.4283 761.135 84.5023 759.625 85.8085C758.58 86.7084 757.129 88.0437 755.271 89.8143L752.702 92.2527L756.011 92.2962C760.569 92.2962 762.992 92.2236 763.283 92.0785C763.486 92.0204 763.834 90.7287 764.328 88.2033V88.0727H766.069V88.2033C766.04 88.2904 765.852 89.6111 765.503 92.1656C765.155 94.72 764.937 96.0553 764.85 96.1714V96.302H748.696V95.4747V94.9522C748.696 94.749 748.783 94.5313 748.958 94.2991C749.132 94.0669 749.567 93.5589 750.264 92.7752C751.106 91.8463 751.831 91.0335 752.441 90.3368C752.702 90.0466 753.196 89.5095 753.921 88.7258C754.647 87.9421 755.14 87.4051 755.402 87.1148C755.663 86.8245 756.084 86.3455 756.664 85.6779C757.245 85.0103 757.651 84.5168 757.884 84.1975C758.116 83.8782 758.45 83.4428 758.885 82.8913C759.32 82.3397 759.625 81.8753 759.799 81.4979C759.974 81.1206 760.191 80.6997 760.452 80.2352C760.714 79.7708 760.902 79.3064 761.018 78.8419C761.135 78.3775 761.236 77.9421 761.323 77.5357C761.41 77.1293 761.454 76.6503 761.454 76.0988C761.454 74.2701 760.96 72.6881 759.974 71.3528C758.987 70.0175 757.579 69.3499 755.75 69.3499C754.792 69.3499 753.95 69.5966 753.225 70.0901C752.499 70.5836 751.991 71.0625 751.701 71.527C751.41 71.9914 751.265 72.2672 751.265 72.3543C751.265 72.3833 751.338 72.3978 751.483 72.3978C752.005 72.3978 752.542 72.601 753.094 73.0074C753.645 73.4138 753.921 74.0814 753.921 75.0103C753.921 75.736 753.689 76.3455 753.225 76.839C752.76 77.3325 752.107 77.5937 751.265 77.6228Z" fill="white"/>
</g>
<path id="Vector_40" d="M783.531 56.8536H731.281V54.2412H783.531V56.8536Z" fill="white"/>
</g>
</g>
<g id="Group 241">
<g id="Group_36">
<path id="Vector_41" d="M503 160.441C503 159.803 503.189 159.295 503.566 158.917H504.045C505.264 159.004 506.788 159.048 508.617 159.048C512.042 159.048 514.06 159.004 514.669 158.917H515.104C515.279 159.091 515.366 159.222 515.366 159.309C515.366 159.396 515.337 159.657 515.279 160.093C515.134 160.528 515.003 160.804 514.887 160.92H513.972C513.334 160.978 512.898 161.007 512.666 161.007C511.824 161.152 511.36 161.37 511.273 161.66C511.273 161.718 511.694 165.361 512.536 172.589C513.377 179.817 513.813 183.46 513.842 183.518L517.02 178.424C519.139 175.028 521.258 171.602 523.377 168.148C525.496 164.694 526.585 162.909 526.643 162.792C526.759 162.589 526.817 162.372 526.817 162.139C526.817 161.443 526.179 161.036 524.901 160.92C524.379 160.92 524.118 160.76 524.118 160.441C524.118 160.412 524.147 160.223 524.205 159.875C524.292 159.469 524.379 159.208 524.466 159.091C524.553 158.975 524.742 158.917 525.032 158.917C525.09 158.917 525.264 158.917 525.554 158.917C525.845 158.917 526.338 158.932 527.035 158.961C527.731 158.99 528.66 159.004 529.821 159.004C531.824 159.004 533.087 158.975 533.61 158.917H533.914C534.118 159.12 534.219 159.28 534.219 159.396C534.219 159.89 534.089 160.354 533.827 160.79C533.74 160.877 533.493 160.92 533.087 160.92C532.71 160.949 532.361 160.978 532.042 161.007C531.723 161.036 531.418 161.109 531.128 161.225C530.837 161.341 530.605 161.443 530.431 161.53C530.257 161.617 530.083 161.733 529.909 161.878C529.734 162.023 529.589 162.125 529.473 162.183C529.357 162.241 529.241 162.372 529.125 162.575C529.009 162.778 528.907 162.879 528.82 162.879L520.417 176.377C515.192 184.824 512.492 189.149 512.318 189.353C512.231 189.411 512.129 189.483 512.013 189.57L511.229 189.614H510.925C510.402 189.614 510.141 189.512 510.141 189.309C510.054 189.135 509.488 184.491 508.443 175.376C507.34 166.145 506.774 161.486 506.745 161.399C506.599 161.08 505.7 160.92 504.045 160.92H503.305C503.102 160.775 503 160.615 503 160.441Z" fill="white"/>
</g>
<g id="Group_37">
<path id="Vector_42" d="M548.756 173.547C548.756 173.17 548.959 172.88 549.365 172.676H577.101C577.537 172.909 577.754 173.199 577.754 173.547C577.754 173.867 577.551 174.142 577.145 174.375L563.299 174.418H549.453C548.988 174.273 548.756 173.983 548.756 173.547ZM548.756 181.994C548.756 181.559 548.988 181.269 549.453 181.123H577.145C577.551 181.414 577.754 181.704 577.754 181.994C577.754 182.372 577.537 182.662 577.101 182.865H549.365C548.959 182.662 548.756 182.372 548.756 181.994Z" fill="white"/>
</g>
<g id="Group_38">
<path id="Vector_43" d="M599.432 181.82C599.432 182.517 599.2 183.097 598.736 183.562C598.271 184.026 597.705 184.258 597.038 184.258H596.733C598.068 186.551 599.839 187.698 602.045 187.698C604.077 187.698 605.557 186.827 606.486 185.086C607.038 184.128 607.313 182.27 607.313 179.512C607.313 176.522 606.922 174.505 606.138 173.46C605.383 172.502 604.541 172.023 603.612 172.023H603.351C601.087 172.023 599.374 173.01 598.213 174.984C598.097 175.187 597.996 175.303 597.909 175.332C597.821 175.361 597.604 175.39 597.255 175.419C596.762 175.419 596.486 175.332 596.428 175.158C596.37 175.042 596.341 172.502 596.341 167.538V161.922C596.341 160.47 596.414 159.745 596.559 159.745C596.617 159.686 596.675 159.657 596.733 159.657C596.762 159.657 597.067 159.774 597.647 160.006C598.228 160.238 599.026 160.47 600.042 160.702C601.058 160.935 602.147 161.051 603.308 161.051C605.369 161.051 607.342 160.644 609.229 159.832C609.461 159.715 609.65 159.657 609.795 159.657C610.028 159.657 610.144 159.919 610.144 160.441V161.007C607.763 163.823 604.788 165.231 601.218 165.231C600.318 165.231 599.505 165.144 598.779 164.969L598.344 164.882V172.372C598.895 171.965 599.331 171.646 599.65 171.414C599.969 171.181 600.492 170.949 601.218 170.717C601.943 170.485 602.684 170.369 603.438 170.369C605.79 170.369 607.778 171.312 609.403 173.199C611.029 175.086 611.842 177.321 611.842 179.904C611.842 182.575 610.913 184.853 609.055 186.74C607.197 188.627 604.933 189.585 602.263 189.614C599.911 189.614 598.025 188.83 596.602 187.263C595.18 185.695 594.469 183.924 594.469 181.951C594.469 181.254 594.628 180.702 594.948 180.296C595.267 179.89 595.601 179.628 595.949 179.512C596.297 179.396 596.631 179.338 596.951 179.338C597.676 179.338 598.271 179.585 598.736 180.078C599.2 180.572 599.432 181.152 599.432 181.82Z" fill="white"/>
</g>
<g id="Group_39">
<path id="Vector_44" d="M626.172 178.337C626.172 178.337 626.172 178.148 626.172 177.771C626.172 177.393 626.375 177.103 626.781 176.9H639.8V170.369L639.844 163.837C640.134 163.46 640.41 163.271 640.671 163.271C641.049 163.271 641.339 163.489 641.542 163.925V176.9H654.517C654.953 177.132 655.17 177.422 655.17 177.771C655.17 178.119 654.953 178.409 654.517 178.642H641.542V191.617C641.31 192.023 641.049 192.226 640.758 192.226H640.671H640.584C640.236 192.226 639.974 192.023 639.8 191.617V178.642H626.781C626.375 178.438 626.172 178.148 626.172 177.771V178.337Z" fill="white"/>
</g>
<g id="Group_40">
<path id="Vector_45" d="M674.427 181.82C674.427 182.517 674.194 183.097 673.73 183.562C673.266 184.026 672.699 184.258 672.032 184.258H671.727C673.062 186.551 674.833 187.698 677.039 187.698C679.071 187.698 680.551 186.827 681.48 185.086C682.032 184.128 682.308 182.27 682.308 179.512C682.308 176.522 681.916 174.505 681.132 173.46C680.377 172.502 679.535 172.023 678.607 172.023H678.345C676.081 172.023 674.369 173.01 673.207 174.984C673.091 175.187 672.99 175.303 672.903 175.332C672.816 175.361 672.598 175.39 672.25 175.419C671.756 175.419 671.48 175.332 671.422 175.158C671.364 175.042 671.335 172.502 671.335 167.538V161.922C671.335 160.47 671.408 159.745 671.553 159.745C671.611 159.686 671.669 159.657 671.727 159.657C671.756 159.657 672.061 159.774 672.641 160.006C673.222 160.238 674.02 160.47 675.036 160.702C676.052 160.935 677.141 161.051 678.302 161.051C680.363 161.051 682.337 160.644 684.223 159.832C684.456 159.715 684.644 159.657 684.789 159.657C685.022 159.657 685.138 159.919 685.138 160.441V161.007C682.758 163.823 679.782 165.231 676.212 165.231C675.312 165.231 674.499 165.144 673.773 164.969L673.338 164.882V172.372C673.89 171.965 674.325 171.646 674.644 171.414C674.964 171.181 675.486 170.949 676.212 170.717C676.937 170.485 677.678 170.369 678.432 170.369C680.784 170.369 682.772 171.312 684.398 173.199C686.023 175.086 686.836 177.321 686.836 179.904C686.836 182.575 685.907 184.853 684.049 186.74C682.191 188.627 679.927 189.585 677.257 189.614C674.906 189.614 673.019 188.83 671.596 187.263C670.174 185.695 669.463 183.924 669.463 181.951C669.463 181.254 669.623 180.702 669.942 180.296C670.261 179.89 670.595 179.628 670.943 179.512C671.292 179.396 671.625 179.338 671.945 179.338C672.67 179.338 673.266 179.585 673.73 180.078C674.194 180.572 674.427 181.152 674.427 181.82Z" fill="white"/>
<path id="Vector_46" d="M696.2 181.82C696.2 182.517 695.968 183.097 695.503 183.562C695.039 184.026 694.473 184.258 693.805 184.258H693.5C694.836 186.551 696.606 187.698 698.813 187.698C700.844 187.698 702.325 186.827 703.254 185.086C703.805 184.128 704.081 182.27 704.081 179.512C704.081 176.522 703.689 174.505 702.905 173.46C702.151 172.502 701.309 172.023 700.38 172.023H700.119C697.855 172.023 696.142 173.01 694.981 174.984C694.865 175.187 694.763 175.303 694.676 175.332C694.589 175.361 694.371 175.39 694.023 175.419C693.53 175.419 693.254 175.332 693.196 175.158C693.138 175.042 693.109 172.502 693.109 167.538V161.922C693.109 160.47 693.181 159.745 693.326 159.745C693.384 159.686 693.442 159.657 693.5 159.657C693.53 159.657 693.834 159.774 694.415 160.006C694.995 160.238 695.794 160.47 696.81 160.702C697.826 160.935 698.914 161.051 700.075 161.051C702.136 161.051 704.11 160.644 705.997 159.832C706.229 159.715 706.418 159.657 706.563 159.657C706.795 159.657 706.911 159.919 706.911 160.441V161.007C704.531 163.823 701.556 165.231 697.985 165.231C697.085 165.231 696.273 165.144 695.547 164.969L695.112 164.882V172.372C695.663 171.965 696.098 171.646 696.418 171.414C696.737 171.181 697.26 170.949 697.985 170.717C698.711 170.485 699.451 170.369 700.206 170.369C702.557 170.369 704.545 171.312 706.171 173.199C707.797 175.086 708.609 177.321 708.609 179.904C708.609 182.575 707.68 184.853 705.823 186.74C703.965 188.627 701.701 189.585 699.03 189.614C696.679 189.614 694.792 188.83 693.37 187.263C691.948 185.695 691.236 183.924 691.236 181.951C691.236 181.254 691.396 180.702 691.715 180.296C692.035 179.89 692.368 179.628 692.717 179.512C693.065 179.396 693.399 179.338 693.718 179.338C694.444 179.338 695.039 179.585 695.503 180.078C695.968 180.572 696.2 181.152 696.2 181.82Z" fill="white"/>
</g>
<g id="Group_41">
<path id="Vector_47" d="M725.359 173.547C725.359 173.17 725.563 172.88 725.969 172.676H753.705C754.14 172.909 754.358 173.199 754.358 173.547C754.358 173.867 754.155 174.142 753.748 174.375L739.902 174.418H726.056C725.592 174.273 725.359 173.983 725.359 173.547ZM725.359 181.994C725.359 181.559 725.592 181.269 726.056 181.123H753.748C754.155 181.414 754.358 181.704 754.358 181.994C754.358 182.372 754.14 182.662 753.705 182.865H725.969C725.563 182.662 725.359 182.372 725.359 181.994Z" fill="white"/>
</g>
<g id="Group_42">
<path id="Vector_48" d="M770.721 175.028C770.721 170.296 771.897 166.551 774.248 163.794C776.6 161.036 779.212 159.657 782.086 159.657C784.089 159.657 785.526 160.18 786.396 161.225C787.267 162.27 787.703 163.431 787.703 164.708C787.703 165.434 787.499 166.014 787.093 166.45C786.687 166.885 786.121 167.103 785.395 167.103C784.727 167.103 784.176 166.9 783.74 166.493C783.305 166.087 783.087 165.521 783.087 164.795C783.087 163.518 783.769 162.749 785.134 162.488C784.495 161.849 783.595 161.486 782.434 161.399C780.373 161.399 778.675 162.27 777.34 164.012C775.975 165.927 775.293 168.859 775.293 172.807L775.337 172.981C775.482 172.807 775.598 172.618 775.685 172.415C776.875 170.673 778.428 169.803 780.344 169.803H780.518C781.854 169.803 783.029 170.078 784.045 170.63C784.742 171.036 785.438 171.617 786.135 172.372C786.832 173.126 787.398 173.954 787.833 174.853C788.443 176.276 788.748 177.829 788.748 179.512V180.296C788.748 180.964 788.675 181.588 788.53 182.168C788.211 183.881 787.282 185.55 785.743 187.176C784.205 188.801 782.26 189.614 779.909 189.614C779.096 189.614 778.312 189.498 777.557 189.266C776.803 189.033 775.99 188.598 775.119 187.959C774.248 187.321 773.508 186.464 772.899 185.39C772.289 184.316 771.766 182.909 771.331 181.167C770.896 179.425 770.692 177.379 770.721 175.028ZM780.083 171.37C779.212 171.37 778.457 171.617 777.819 172.11C777.18 172.604 776.687 173.257 776.338 174.07C775.99 174.882 775.743 175.71 775.598 176.551C775.453 177.393 775.366 178.293 775.337 179.251C775.337 181.66 775.511 183.387 775.859 184.432C776.208 185.477 776.759 186.319 777.514 186.958C778.211 187.48 778.98 187.742 779.822 187.742C781.302 187.742 782.434 187.19 783.218 186.087C783.595 185.565 783.856 184.911 784.002 184.128C784.147 183.344 784.219 181.82 784.219 179.556C784.219 177.234 784.147 175.681 784.002 174.897C783.856 174.113 783.595 173.46 783.218 172.938C782.434 171.893 781.389 171.37 780.083 171.37Z" fill="white"/>
<path id="Vector_49" d="M794.845 163.184C796.471 160.833 798.691 159.657 801.507 159.657C802.9 159.657 804.294 160.035 805.687 160.79C807.08 161.544 808.212 162.879 809.083 164.795C810.157 167.205 810.694 170.514 810.694 174.723C810.694 179.222 810.07 182.662 808.822 185.042C808.241 186.261 807.443 187.234 806.427 187.959C805.411 188.685 804.526 189.135 803.771 189.309C803.016 189.483 802.276 189.585 801.551 189.614C800.796 189.614 800.041 189.527 799.286 189.353C798.532 189.178 797.646 188.714 796.63 187.959C795.614 187.205 794.816 186.232 794.236 185.042C792.987 182.662 792.363 179.222 792.363 174.723C792.363 169.672 793.191 165.826 794.845 163.184ZM804.642 162.662C803.771 161.733 802.741 161.268 801.551 161.268C800.331 161.268 799.286 161.733 798.416 162.662C797.69 163.417 797.211 164.461 796.979 165.797C796.746 167.132 796.63 169.919 796.63 174.157C796.63 178.743 796.746 181.762 796.979 183.213C797.211 184.665 797.733 185.811 798.546 186.653C799.359 187.524 800.36 187.959 801.551 187.959C802.712 187.959 803.699 187.524 804.511 186.653C805.353 185.782 805.876 184.563 806.079 182.996C806.282 181.428 806.398 178.482 806.427 174.157C806.427 169.948 806.311 167.176 806.079 165.84C805.847 164.505 805.368 163.446 804.642 162.662Z" fill="white"/>
</g>
<g id="Group_43">
<path id="Vector_50" d="M813.352 176.16C813.381 175.986 813.424 175.753 813.482 175.463C813.54 175.173 813.714 174.621 814.005 173.809C814.295 172.996 814.585 172.314 814.876 171.762C815.166 171.211 815.63 170.674 816.269 170.151C816.907 169.629 817.546 169.382 818.185 169.411C818.823 169.44 819.447 169.542 820.057 169.716C820.667 169.89 821.102 170.151 821.363 170.499C821.624 170.848 821.857 171.167 822.06 171.457C822.263 171.748 822.379 172.023 822.408 172.285L822.495 172.589C822.495 172.647 822.51 172.676 822.539 172.676L823.018 172.198C824.759 170.34 826.806 169.411 829.157 169.411C829.651 169.411 830.1 169.44 830.507 169.498C830.913 169.556 831.291 169.658 831.639 169.803C831.987 169.948 832.263 170.093 832.466 170.238C832.669 170.383 832.887 170.557 833.119 170.761C833.352 170.964 833.497 171.153 833.555 171.327C833.613 171.501 833.729 171.69 833.903 171.893C834.077 172.096 834.135 172.27 834.077 172.415C834.019 172.56 834.063 172.691 834.208 172.807C834.353 172.923 834.382 173.025 834.295 173.112L834.643 172.676C836.472 170.499 838.635 169.411 841.131 169.411C842.698 169.411 843.961 169.803 844.919 170.587C845.877 171.37 846.37 172.517 846.399 174.026C846.399 175.507 845.848 177.8 844.745 180.906C843.642 184.012 843.09 185.87 843.09 186.479C843.119 186.885 843.192 187.161 843.308 187.306C843.424 187.452 843.642 187.524 843.961 187.524C844.774 187.524 845.529 187.089 846.225 186.218C846.922 185.347 847.488 184.157 847.923 182.647C848.01 182.328 848.098 182.139 848.185 182.081C848.272 182.023 848.504 181.994 848.881 181.994C849.462 181.994 849.752 182.11 849.752 182.343C849.752 182.372 849.694 182.589 849.578 182.996C849.346 183.838 849.026 184.665 848.62 185.478C848.214 186.29 847.546 187.103 846.617 187.916C845.688 188.729 844.687 189.121 843.613 189.092C842.249 189.092 841.262 188.7 840.652 187.916C840.042 187.132 839.738 186.319 839.738 185.478C839.738 184.926 840.26 183.184 841.305 180.253C842.35 177.321 842.887 175.115 842.916 173.634C842.916 171.922 842.278 171.065 841 171.065H840.783C838.286 171.065 836.182 172.531 834.469 175.463L834.164 175.986L832.727 181.82C831.77 185.623 831.218 187.669 831.073 187.96C830.696 188.743 830.071 189.135 829.201 189.135C828.823 189.135 828.518 189.034 828.286 188.83C828.054 188.627 827.894 188.453 827.807 188.308C827.72 188.163 827.677 188.018 827.677 187.872C827.677 187.553 828.17 185.478 829.157 181.646L830.725 175.289C830.812 174.854 830.855 174.302 830.855 173.634C830.855 171.922 830.217 171.065 828.939 171.065H828.722C826.225 171.065 824.121 172.531 822.408 175.463L822.103 175.986L820.667 181.82C819.709 185.623 819.157 187.669 819.012 187.96C818.635 188.743 818.01 189.135 817.14 189.135C816.762 189.135 816.458 189.048 816.225 188.874C815.993 188.7 815.833 188.526 815.746 188.351C815.659 188.177 815.63 188.032 815.659 187.916C815.659 187.539 816.211 185.158 817.314 180.775C818.446 176.305 819.012 173.968 819.012 173.765C819.099 173.33 819.143 172.938 819.143 172.589C819.143 171.544 818.78 171.022 818.054 171.022C817.415 171.022 816.878 171.428 816.443 172.241C816.008 173.054 815.674 173.939 815.442 174.897C815.209 175.855 815.035 176.378 814.919 176.465C814.861 176.523 814.629 176.552 814.222 176.552H813.613C813.439 176.378 813.352 176.247 813.352 176.16Z" fill="white"/>
</g>
<g id="Group_44">
<g id="Group_45">
<path id="Vector_51" d="M869.079 156C869.341 156 869.558 156.087 869.732 156.261C869.907 156.435 869.994 156.639 869.994 156.871C869.994 157.016 867.483 164.012 862.461 177.858C857.439 191.704 854.841 198.787 854.667 199.106C854.464 199.396 854.217 199.541 853.927 199.541C853.724 199.541 853.535 199.469 853.361 199.324C853.187 199.179 853.1 198.975 853.1 198.714C853.1 198.424 855.625 191.341 860.676 177.466C865.727 163.591 868.296 156.581 868.383 156.435C868.499 156.145 868.731 156 869.079 156Z" fill="white"/>
</g>
</g>
<g id="Group_46">
<path id="Vector_52" d="M878.136 176.073C878.136 175.144 878.369 174.2 878.833 173.242C879.298 172.285 880.11 171.399 881.271 170.586C882.433 169.774 883.84 169.382 885.495 169.411C887.295 169.411 888.601 169.803 889.414 170.586C890.226 171.37 890.647 172.241 890.676 173.199C890.676 174.128 890.43 174.81 889.936 175.245C889.443 175.681 888.891 175.913 888.282 175.942C887.904 175.942 887.556 175.826 887.237 175.594C886.917 175.362 886.743 174.984 886.714 174.462C886.714 173.997 886.845 173.591 887.106 173.242C887.367 172.894 887.614 172.633 887.846 172.459C888.078 172.285 888.267 172.198 888.412 172.198C888.441 172.198 888.456 172.183 888.456 172.154C888.456 172.067 888.354 171.936 888.151 171.762C887.948 171.588 887.585 171.428 887.062 171.283C886.54 171.138 885.974 171.051 885.364 171.022C883.971 171.022 882.955 171.399 882.316 172.154C881.678 172.909 881.344 173.678 881.315 174.462C881.315 175.187 881.591 175.695 882.142 175.986C882.694 176.276 883.492 176.523 884.537 176.726C885.582 176.929 886.337 177.147 886.801 177.379C888.717 178.221 889.675 179.614 889.675 181.559C889.675 182.372 889.515 183.184 889.196 183.997C888.877 184.81 888.398 185.623 887.759 186.436C887.12 187.248 886.206 187.887 885.016 188.351C883.826 188.816 882.462 189.063 880.923 189.092C878.688 189.092 877.106 188.671 876.177 187.829C875.248 186.987 874.769 186 874.74 184.868C874.74 183.736 875.045 182.923 875.655 182.43C876.264 181.936 876.903 181.69 877.57 181.69C878.006 181.69 878.412 181.82 878.79 182.081C879.167 182.343 879.37 182.793 879.399 183.431C879.399 184.186 879.138 184.824 878.615 185.347C878.093 185.869 877.643 186.131 877.266 186.131C877.208 186.16 877.164 186.174 877.135 186.174C877.106 186.174 877.091 186.203 877.091 186.261C877.12 186.348 877.237 186.465 877.44 186.61C877.643 186.755 878.093 186.944 878.79 187.176C879.486 187.408 880.285 187.51 881.184 187.481C882.229 187.481 883.129 187.321 883.884 187.002C884.639 186.682 885.19 186.276 885.538 185.782C885.887 185.289 886.134 184.839 886.279 184.433C886.424 184.026 886.496 183.663 886.496 183.344C886.496 182.531 886.192 181.922 885.582 181.515C884.972 181.109 884.276 180.862 883.492 180.775C882.708 180.688 881.852 180.47 880.923 180.122C879.994 179.774 879.312 179.266 878.877 178.598C878.383 177.872 878.136 177.031 878.136 176.073Z" fill="white"/>
</g>
</g>
</g>
</g>
</g>
</g>
</svg>
