<svg viewBox="0 0 819 332" fill="none" xmlns="http://www.w3.org/2000/svg">
<g id="0125206">
<g id="4+6+x+y+12+8+6=60\;&#10;x+y=60-36=24">
<g id="Group">
<g id="Group_2">
<path id="Vector" d="M14.7619 89.0272C14.3537 88.9592 12.8912 88.9252 10.3742 88.9252C7.74376 88.9252 6.22449 88.9592 5.81633 89.0272H5.5102V87.4626H6.56463C7.01814 87.4626 7.32426 87.4626 7.48299 87.4626C7.64172 87.4626 7.83447 87.4399 8.06122 87.3946C8.28798 87.3492 8.44671 87.2925 8.53742 87.2245C8.62812 87.1565 8.70748 87.0658 8.77551 86.9524C8.79819 86.907 8.80952 86.2948 8.80952 85.1157V83.415H0V81.8504L5.13605 73.9932C8.60544 68.7324 10.3628 66.0907 10.4082 66.068C10.4535 66.0227 10.6916 66 11.1224 66H11.7347L11.9388 66.2041V81.8504H15.068V83.415H11.9388V85.1497C11.9388 86.0794 11.9388 86.6236 11.9388 86.7823C11.9388 86.9411 12.0068 87.0771 12.1429 87.1905C12.3243 87.3492 12.9705 87.4399 14.0816 87.4626H15.068V89.0272H14.7619ZM9.01361 81.8504V70.4898L1.56463 81.8163L5.27211 81.8504H9.01361Z" fill="white"/>
</g>
<g id="Group_3">
<path id="Vector_2" d="M25.5171 80.9661C25.5171 80.9661 25.5171 80.8187 25.5171 80.5239C25.5171 80.2291 25.6758 80.0023 25.9933 79.8436H36.1633V74.7416L36.1974 69.6395C36.4241 69.3447 36.6395 69.1974 36.8436 69.1974C37.1384 69.1974 37.3652 69.3674 37.5239 69.7076V79.8436H47.6599C48.0001 80.025 48.1702 80.2518 48.1702 80.5239C48.1702 80.796 48.0001 81.0228 47.6599 81.2042H37.5239V91.3402C37.3425 91.6577 37.1384 91.8164 36.9116 91.8164H36.8436H36.7756C36.5035 91.8164 36.2994 91.6577 36.1633 91.3402V81.2042H25.9933C25.6758 81.0454 25.5171 80.8187 25.5171 80.5239V80.9661Z" fill="white"/>
</g>
<g id="Group_4">
<path id="Vector_3" d="M59.0617 78.381C59.0617 74.6849 59.9801 71.7597 61.8168 69.6055C63.6535 67.4513 65.6943 66.3742 67.9392 66.3742C69.5039 66.3742 70.6263 66.7824 71.3066 67.5987C71.9869 68.415 72.327 69.3221 72.327 70.3198C72.327 70.8867 72.1683 71.3402 71.8508 71.6803C71.5334 72.0205 71.0912 72.1905 70.5243 72.1905C70.0027 72.1905 69.5719 72.0318 69.2318 71.7143C68.8916 71.3969 68.7216 70.9547 68.7216 70.3878C68.7216 69.3901 69.2544 68.7892 70.3202 68.5851C69.8213 68.0862 69.1184 67.8028 68.2114 67.7348C66.6014 67.7348 65.2748 68.415 64.2318 69.7756C63.166 71.2722 62.6331 73.5624 62.6331 76.6463L62.6671 76.7824C62.7805 76.6463 62.8712 76.4989 62.9392 76.3402C63.869 74.9797 65.0821 74.2994 66.5787 74.2994H66.7148C67.7578 74.2994 68.6762 74.5148 69.4699 74.9456C70.0141 75.2631 70.5583 75.7166 71.1025 76.3062C71.6467 76.8958 72.0889 77.542 72.429 78.245C72.9052 79.3561 73.1433 80.5692 73.1433 81.8844V82.4967C73.1433 83.0182 73.0866 83.5057 72.9733 83.9592C72.7238 85.2971 71.9982 86.601 70.7964 87.8708C69.5946 89.1407 68.0753 89.7756 66.2386 89.7756C65.6036 89.7756 64.9914 89.6849 64.4018 89.5035C63.8123 89.3221 63.1773 88.9819 62.4971 88.4831C61.8168 87.9842 61.2386 87.3153 60.7624 86.4763C60.2862 85.6373 59.878 84.5375 59.5379 83.1769C59.1978 81.8164 59.039 80.2178 59.0617 78.381ZM66.3746 75.5239C65.6943 75.5239 65.1048 75.7166 64.6059 76.1021C64.107 76.4876 63.7216 76.9978 63.4495 77.6327C63.1773 78.2676 62.9846 78.9139 62.8712 79.5715C62.7578 80.2291 62.6898 80.932 62.6671 81.6803C62.6671 83.5624 62.8032 84.9116 63.0753 85.728C63.3474 86.5443 63.7782 87.2019 64.3678 87.7007C64.912 88.1089 65.5129 88.313 66.1705 88.313C67.327 88.313 68.2114 87.8821 68.8236 87.0205C69.1184 86.6123 69.3225 86.1021 69.4358 85.4899C69.5492 84.8776 69.6059 83.6871 69.6059 81.9184C69.6059 80.1044 69.5492 78.8912 69.4358 78.279C69.3225 77.6667 69.1184 77.1565 68.8236 76.7484C68.2114 75.932 67.395 75.5239 66.3746 75.5239Z" fill="white"/>
</g>
<g id="Group_5">
<path id="Vector_4" d="M84.1064 80.9661C84.1064 80.9661 84.1064 80.8187 84.1064 80.5239C84.1064 80.2291 84.2652 80.0023 84.5826 79.8436H94.7527V74.7416L94.7867 69.6395C95.0135 69.3447 95.2289 69.1974 95.433 69.1974C95.7278 69.1974 95.9545 69.3674 96.1132 69.7076V79.8436H106.249C106.589 80.025 106.76 80.2518 106.76 80.5239C106.76 80.796 106.589 81.0228 106.249 81.2042H96.1132V91.3402C95.9318 91.6577 95.7278 91.8164 95.501 91.8164H95.433H95.3649C95.0928 91.8164 94.8888 91.6577 94.7527 91.3402V81.2042H84.5826C84.2652 81.0454 84.1064 80.8187 84.1064 80.5239V80.9661Z" fill="white"/>
</g>
<g id="Group_6">
<path id="Vector_5" d="M117.991 79.1973C118.15 78.245 118.762 77.1452 119.828 75.898C120.893 74.6509 122.209 74.0159 123.773 73.9933C124.567 73.9933 125.292 74.1973 125.95 74.6055C126.608 75.0137 127.095 75.5239 127.413 76.1361C128.365 74.7076 129.51 73.9933 130.848 73.9933C131.687 73.9933 132.413 74.2427 133.025 74.7416C133.637 75.2404 133.955 75.9094 133.977 76.7484C133.977 77.406 133.818 77.9388 133.501 78.347C133.184 78.7552 132.877 79.0046 132.583 79.0953C132.288 79.186 132.027 79.2314 131.8 79.2314C131.37 79.2314 131.018 79.1066 130.746 78.8572C130.474 78.6078 130.338 78.279 130.338 77.8708C130.338 76.8277 130.905 76.1134 132.038 75.728C131.789 75.4332 131.336 75.2858 130.678 75.2858C130.383 75.2858 130.168 75.3085 130.032 75.3538C129.17 75.7166 128.535 76.4649 128.127 77.5987C126.766 82.61 126.086 85.5352 126.086 86.3742C126.086 87.0091 126.267 87.4627 126.63 87.7348C126.993 88.0069 127.39 88.1429 127.821 88.1429C128.66 88.1429 129.487 87.7688 130.304 87.0205C131.12 86.2722 131.676 85.3538 131.97 84.2654C132.038 84.0386 132.106 83.9139 132.175 83.8912C132.243 83.8685 132.424 83.8459 132.719 83.8232H132.855C133.195 83.8232 133.365 83.9139 133.365 84.0953C133.365 84.118 133.342 84.2427 133.297 84.4695C132.934 85.762 132.231 86.9071 131.188 87.9048C130.145 88.9026 128.932 89.4014 127.549 89.4014C125.961 89.4014 124.76 88.6871 123.943 87.2586C123.014 88.6645 121.948 89.3674 120.746 89.3674H120.542C119.431 89.3674 118.637 89.0726 118.161 88.4831C117.685 87.8935 117.435 87.2699 117.413 86.6123C117.413 85.8867 117.628 85.2971 118.059 84.8436C118.49 84.3901 119 84.1633 119.589 84.1633C120.565 84.1633 121.052 84.6395 121.052 85.5919C121.052 86.0454 120.916 86.4422 120.644 86.7824C120.372 87.1225 120.111 87.3493 119.862 87.4627C119.612 87.576 119.465 87.6327 119.419 87.6327L119.317 87.6667C119.317 87.6894 119.385 87.7348 119.521 87.8028C119.657 87.8708 119.839 87.9502 120.066 88.0409C120.292 88.1316 120.508 88.1656 120.712 88.1429C121.528 88.1429 122.231 87.6327 122.821 86.6123C123.025 86.2495 123.286 85.4785 123.603 84.2994C123.921 83.1202 124.238 81.8958 124.555 80.6259C124.873 79.3561 125.054 78.6078 125.1 78.381C125.213 77.7688 125.27 77.3266 125.27 77.0545C125.27 76.4196 125.1 75.9661 124.76 75.6939C124.419 75.4218 124.034 75.2858 123.603 75.2858C122.696 75.2858 121.846 75.6486 121.052 76.3742C120.258 77.0998 119.703 78.0295 119.385 79.1633C119.34 79.3674 119.283 79.4808 119.215 79.5035C119.147 79.5261 118.966 79.5488 118.671 79.5715H118.195C118.059 79.4354 117.991 79.3107 117.991 79.1973Z" fill="white"/>
</g>
<g id="Group_7">
<path id="Vector_6" d="M145.14 80.9661C145.14 80.9661 145.14 80.8187 145.14 80.5239C145.14 80.2291 145.299 80.0023 145.616 79.8436H155.786V74.7416L155.82 69.6395C156.047 69.3447 156.263 69.1974 156.467 69.1974C156.761 69.1974 156.988 69.3674 157.147 69.7076V79.8436H167.283C167.623 80.025 167.793 80.2518 167.793 80.5239C167.793 80.796 167.623 81.0228 167.283 81.2042H157.147V91.3402C156.966 91.6577 156.761 91.8164 156.535 91.8164H156.467H156.399C156.127 91.8164 155.922 91.6577 155.786 91.3402V81.2042H145.616C145.299 81.0454 145.14 80.8187 145.14 80.5239V80.9661Z" fill="white"/>
</g>
<g id="Group_8">
<path id="Vector_7" d="M177.97 79.2654C177.97 78.9479 178.14 78.4037 178.48 77.6327C178.82 76.8617 179.364 76.0567 180.113 75.2177C180.861 74.3787 181.7 73.9706 182.63 73.9933C183.559 73.9933 184.308 74.254 184.874 74.7756C185.441 75.2971 185.736 76.0227 185.759 76.9524C185.713 77.3833 185.679 77.6214 185.657 77.6667C185.657 77.7348 185.475 78.2563 185.113 79.2314C184.75 80.2064 184.376 81.3062 183.99 82.5307C183.605 83.7552 183.423 84.7302 183.446 85.4558C183.446 86.4309 183.605 87.1112 183.922 87.4967C184.24 87.8821 184.716 88.0862 185.351 88.1089C185.872 88.1089 186.36 87.9842 186.813 87.7348C187.267 87.4853 187.618 87.2245 187.868 86.9524C188.117 86.6803 188.423 86.3062 188.786 85.83C188.786 85.8073 188.843 85.5806 188.956 85.1497C189.07 84.7189 189.228 84.0499 189.432 83.1429C189.636 82.2359 189.852 81.3969 190.079 80.6259C190.94 77.2245 191.416 75.4445 191.507 75.2858C191.802 74.6735 192.289 74.3674 192.97 74.3674C193.265 74.3674 193.503 74.4468 193.684 74.6055C193.865 74.7642 193.99 74.9003 194.058 75.0137C194.126 75.127 194.149 75.2291 194.126 75.3198C194.126 75.6146 193.571 77.9955 192.46 82.4626C191.348 86.9298 190.713 89.3787 190.555 89.8096C189.92 91.6917 188.82 93.1883 187.255 94.2994C185.691 95.4105 184.126 95.9774 182.562 96.0001C181.541 96.0001 180.645 95.7506 179.874 95.2518C179.104 94.7529 178.718 94.0046 178.718 93.0069C178.718 92.508 178.797 92.0885 178.956 91.7484C179.115 91.4082 179.33 91.1588 179.602 91.0001C179.874 90.8413 180.101 90.728 180.283 90.6599C180.464 90.5919 180.657 90.5579 180.861 90.5579C181.859 90.5579 182.357 91.0341 182.357 91.9865C182.357 92.44 182.221 92.8368 181.949 93.1769C181.677 93.5171 181.416 93.7438 181.167 93.8572C180.918 93.9706 180.77 94.0273 180.725 94.0273L180.623 94.0613C180.668 94.1747 180.884 94.3107 181.269 94.4694C181.655 94.6282 182.04 94.7075 182.426 94.7075H182.698C183.083 94.7075 183.378 94.6849 183.582 94.6395C184.33 94.4354 185.022 94.0046 185.657 93.347C186.292 92.6894 186.779 91.9865 187.119 91.2382C187.46 90.4899 187.72 89.8549 187.902 89.3334C188.083 88.8119 188.174 88.4717 188.174 88.313L187.97 88.449C187.834 88.5397 187.618 88.6645 187.323 88.8232C187.029 88.9819 186.734 89.118 186.439 89.2314C185.986 89.3447 185.543 89.4014 185.113 89.4014C184.07 89.4014 183.151 89.152 182.357 88.6531C181.564 88.1543 181.042 87.3493 180.793 86.2382C180.77 86.0794 180.759 85.728 180.759 85.1837C180.759 83.8912 181.156 82.2019 181.949 80.1157C182.743 78.0295 183.14 76.703 183.14 76.1361C183.14 76.1134 183.14 76.0908 183.14 76.0681C183.14 75.864 183.14 75.7279 183.14 75.6599C183.14 75.5919 183.094 75.5125 183.004 75.4218C182.913 75.3311 182.788 75.2858 182.63 75.2858H182.494C181.972 75.2858 181.496 75.5012 181.065 75.932C180.634 76.3629 180.294 76.8277 180.045 77.3266C179.795 77.8255 179.602 78.3016 179.466 78.7552C179.33 79.2087 179.24 79.4581 179.194 79.5035C179.149 79.5488 178.967 79.5715 178.65 79.5715H178.174C178.038 79.4354 177.97 79.3334 177.97 79.2654Z" fill="white"/>
</g>
<g id="Group_9">
<path id="Vector_8" d="M203.387 80.9661C203.387 80.9661 203.387 80.8187 203.387 80.5239C203.387 80.2291 203.546 80.0023 203.863 79.8436H214.033V74.7416L214.067 69.6395C214.294 69.3447 214.51 69.1974 214.714 69.1974C215.009 69.1974 215.235 69.3674 215.394 69.7076V79.8436H225.53C225.87 80.025 226.04 80.2518 226.04 80.5239C226.04 80.796 225.87 81.0228 225.53 81.2042H215.394V91.3402C215.213 91.6577 215.009 91.8164 214.782 91.8164H214.714H214.646C214.374 91.8164 214.17 91.6577 214.033 91.3402V81.2042H203.863C203.546 81.0454 203.387 80.8187 203.387 80.5239V80.9661Z" fill="white"/>
</g>
<g id="Group_10">
<path id="Vector_9" d="M242.747 69.3674L242.305 69.5374C241.988 69.6508 241.534 69.7642 240.945 69.8776C240.355 69.9909 239.698 70.0703 238.972 70.1157H238.326V68.551H238.972C240.038 68.5057 241.024 68.3356 241.931 68.0408C242.838 67.746 243.473 67.4739 243.836 67.2245C244.199 66.9751 244.516 66.7256 244.788 66.4762C244.834 66.4082 244.97 66.3742 245.196 66.3742C245.401 66.3742 245.593 66.4422 245.775 66.5782V76.7483L245.809 86.9524C245.967 87.1111 246.103 87.2132 246.217 87.2585C246.33 87.3039 246.602 87.3492 247.033 87.3946C247.464 87.4399 248.167 87.4626 249.142 87.4626H250.026V89.0272H249.652C249.176 88.9592 247.373 88.9252 244.244 88.9252C241.16 88.9252 239.38 88.9592 238.904 89.0272H238.496V87.4626H239.38C239.879 87.4626 240.31 87.4626 240.673 87.4626C241.035 87.4626 241.319 87.4513 241.523 87.4286C241.727 87.4059 241.908 87.3719 242.067 87.3265C242.226 87.2812 242.317 87.2585 242.339 87.2585C242.362 87.2585 242.43 87.2018 242.543 87.0884C242.657 86.9751 242.725 86.9297 242.747 86.9524V69.3674Z" fill="white"/>
<path id="Vector_10" d="M256.217 74.4354C255.605 74.4354 255.117 74.2313 254.755 73.8231C254.392 73.415 254.21 72.9161 254.21 72.3265C254.21 70.7166 254.811 69.322 256.013 68.1429C257.215 66.9637 258.712 66.3742 260.503 66.3742C262.566 66.3742 264.29 67.0091 265.673 68.2789C267.056 69.5488 267.759 71.1928 267.782 73.2109C267.782 74.186 267.555 75.1157 267.102 76C266.648 76.8844 266.104 77.6553 265.469 78.3129C264.834 78.9705 263.927 79.8095 262.748 80.8299C261.932 81.5329 260.798 82.576 259.347 83.9592L257.34 85.864L259.925 85.898C263.485 85.898 265.378 85.8413 265.605 85.7279C265.764 85.6826 266.036 84.6735 266.421 82.7007V82.5986H267.782V82.7007C267.759 82.7687 267.612 83.8005 267.34 85.7959C267.068 87.7914 266.898 88.8345 266.829 88.9252V89.0272H254.21V88.381V87.9728C254.21 87.8141 254.278 87.644 254.415 87.4626C254.551 87.2812 254.891 86.8844 255.435 86.2721C256.093 85.5465 256.659 84.9116 257.136 84.3674C257.34 84.1406 257.725 83.7211 258.292 83.1089C258.859 82.4966 259.244 82.0771 259.449 81.8504C259.653 81.6236 259.981 81.2494 260.435 80.7279C260.888 80.2064 261.206 79.8209 261.387 79.5714C261.569 79.322 261.829 78.9819 262.17 78.551C262.51 78.1202 262.748 77.7574 262.884 77.4626C263.02 77.1678 263.19 76.839 263.394 76.4762C263.598 76.1134 263.746 75.7506 263.836 75.3878C263.927 75.025 264.006 74.6848 264.074 74.3674C264.142 74.0499 264.176 73.6757 264.176 73.2449C264.176 71.8163 263.791 70.5805 263.02 69.5374C262.249 68.4943 261.149 67.9728 259.721 67.9728C258.972 67.9728 258.315 68.1655 257.748 68.551C257.181 68.9365 256.784 69.3107 256.557 69.6735C256.331 70.0363 256.217 70.2517 256.217 70.3197C256.217 70.3424 256.274 70.3538 256.387 70.3538C256.795 70.3538 257.215 70.5125 257.646 70.8299C258.077 71.1474 258.292 71.6689 258.292 72.3946C258.292 72.9615 258.111 73.4377 257.748 73.8231C257.385 74.2086 256.875 74.4127 256.217 74.4354Z" fill="white"/>
</g>
<g id="Group_11">
<path id="Vector_11" d="M278.979 80.9661C278.979 80.9661 278.979 80.8187 278.979 80.5239C278.979 80.2291 279.138 80.0023 279.455 79.8436H289.625V74.7416L289.659 69.6395C289.886 69.3447 290.101 69.1974 290.306 69.1974C290.6 69.1974 290.827 69.3674 290.986 69.7076V79.8436H301.122C301.462 80.025 301.632 80.2518 301.632 80.5239C301.632 80.796 301.462 81.0228 301.122 81.2042H290.986V91.3402C290.804 91.6577 290.6 91.8164 290.374 91.8164H290.306H290.238C289.965 91.8164 289.761 91.6577 289.625 91.3402V81.2042H279.455C279.138 81.0454 278.979 80.8187 278.979 80.5239V80.9661Z" fill="white"/>
</g>
<g id="Group_12">
<path id="Vector_12" d="M313.476 74.8436C313.476 74.8436 313.476 73.9706 313.476 72.2246C313.476 70.4785 314.088 69.0726 315.313 68.0069C316.537 66.9411 317.943 66.3969 319.53 66.3742C321.14 66.3742 322.569 66.8504 323.816 67.8028C325.063 68.7552 325.687 69.991 325.687 71.5103C325.687 72.1905 325.562 72.8255 325.313 73.415C325.063 74.0046 324.769 74.4808 324.428 74.8436C324.088 75.2064 323.737 75.5239 323.374 75.796C323.011 76.0681 322.716 76.2722 322.49 76.4082C322.263 76.5443 322.138 76.635 322.115 76.6803L322.592 76.9865C322.909 77.2132 323.227 77.44 323.544 77.6667C323.861 77.8935 324.043 78.0182 324.088 78.0409C325.789 79.3787 326.639 81.0681 326.639 83.1089C326.639 84.9003 325.982 86.4536 324.666 87.7688C323.351 89.084 321.651 89.7529 319.564 89.7756C317.524 89.7756 315.846 89.1973 314.53 88.0409C313.215 86.8844 312.558 85.4558 312.558 83.7552C312.558 81.3062 314.02 79.2654 316.945 77.6327L316.333 77.1905C315.857 76.8958 315.551 76.669 315.415 76.5103C314.122 75.3992 313.476 73.9706 313.476 72.2246V74.8436ZM320.823 75.898L321.027 75.762C321.163 75.6713 321.265 75.6032 321.333 75.5579C321.401 75.5125 321.515 75.4332 321.673 75.3198C321.832 75.2064 321.968 75.093 322.081 74.9797C322.195 74.8663 322.32 74.7302 322.456 74.5715C322.592 74.4128 322.716 74.2654 322.83 74.1293C322.943 73.9933 323.056 73.8119 323.17 73.5851C323.283 73.3583 323.385 73.1656 323.476 73.0069C323.567 72.8481 323.623 72.6214 323.646 72.3266C323.669 72.0318 323.691 71.7824 323.714 71.5783C323.714 70.6032 323.385 69.7756 322.728 69.0953C322.07 68.415 321.31 67.9842 320.449 67.8028C320.29 67.7801 319.916 67.7688 319.326 67.7688C318.397 67.7688 317.524 68.0636 316.707 68.6531C315.891 69.2427 315.471 69.9797 315.449 70.864C315.449 71.3855 315.596 71.8617 315.891 72.2926C316.186 72.7234 316.481 73.0522 316.775 73.279C317.07 73.5057 317.637 73.8685 318.476 74.3674C318.635 74.4808 318.759 74.5602 318.85 74.6055L320.823 75.898ZM319.598 88.313C320.914 88.313 322.047 87.9275 323 87.1565C323.952 86.3856 324.428 85.4558 324.428 84.3674C324.428 83.9819 324.372 83.6191 324.258 83.279C324.145 82.9388 324.009 82.6554 323.85 82.4286C323.691 82.2019 323.442 81.9524 323.102 81.6803C322.762 81.4082 322.501 81.2041 322.32 81.0681C322.138 80.932 321.809 80.7166 321.333 80.4218C320.857 80.127 320.551 79.9343 320.415 79.8436C320.097 79.6395 319.757 79.4241 319.394 79.1973C319.032 78.9706 318.737 78.7778 318.51 78.6191L318.238 78.449C318.102 78.449 317.773 78.6418 317.251 79.0273C316.73 79.4128 316.186 80.0363 315.619 80.898C315.052 81.7597 314.757 82.6894 314.734 83.6871C314.734 85.025 315.222 86.1248 316.197 86.9865C317.172 87.8481 318.306 88.2903 319.598 88.313Z" fill="white"/>
</g>
<g id="Group_13">
<path id="Vector_13" d="M337.564 80.9661C337.564 80.9661 337.564 80.8187 337.564 80.5239C337.564 80.2291 337.723 80.0023 338.04 79.8436H348.21V74.7416L348.244 69.6395C348.471 69.3447 348.686 69.1974 348.89 69.1974C349.185 69.1974 349.412 69.3674 349.571 69.7076V79.8436H359.707C360.047 80.025 360.217 80.2518 360.217 80.5239C360.217 80.796 360.047 81.0228 359.707 81.2042H349.571V91.3402C349.389 91.6577 349.185 91.8164 348.959 91.8164H348.89H348.822C348.55 91.8164 348.346 91.6577 348.21 91.3402V81.2042H338.04C337.723 81.0454 337.564 80.8187 337.564 80.5239V80.9661Z" fill="white"/>
</g>
<g id="Group_14">
<path id="Vector_14" d="M371.112 78.381C371.112 74.6849 372.031 71.7597 373.868 69.6055C375.704 67.4513 377.745 66.3742 379.99 66.3742C381.555 66.3742 382.677 66.7824 383.357 67.5987C384.038 68.415 384.378 69.3221 384.378 70.3198C384.378 70.8867 384.219 71.3402 383.902 71.6803C383.584 72.0205 383.142 72.1905 382.575 72.1905C382.054 72.1905 381.623 72.0318 381.283 71.7143C380.942 71.3969 380.772 70.9547 380.772 70.3878C380.772 69.3901 381.305 68.7892 382.371 68.5851C381.872 68.0862 381.169 67.8028 380.262 67.7348C378.652 67.7348 377.326 68.415 376.283 69.7756C375.217 71.2722 374.684 73.5624 374.684 76.6463L374.718 76.7824C374.831 76.6463 374.922 76.4989 374.99 76.3402C375.92 74.9797 377.133 74.2994 378.629 74.2994H378.766C379.809 74.2994 380.727 74.5148 381.521 74.9456C382.065 75.2631 382.609 75.7166 383.153 76.3062C383.698 76.8958 384.14 77.542 384.48 78.245C384.956 79.3561 385.194 80.5692 385.194 81.8844V82.4967C385.194 83.0182 385.137 83.5057 385.024 83.9592C384.775 85.2971 384.049 86.601 382.847 87.8708C381.645 89.1407 380.126 89.7756 378.289 89.7756C377.654 89.7756 377.042 89.6849 376.453 89.5035C375.863 89.3221 375.228 88.9819 374.548 88.4831C373.868 87.9842 373.289 87.3153 372.813 86.4763C372.337 85.6373 371.929 84.5375 371.589 83.1769C371.249 81.8164 371.09 80.2178 371.112 78.381ZM378.425 75.5239C377.745 75.5239 377.156 75.7166 376.657 76.1021C376.158 76.4876 375.772 76.9978 375.5 77.6327C375.228 78.2676 375.035 78.9139 374.922 79.5715C374.809 80.2291 374.741 80.932 374.718 81.6803C374.718 83.5624 374.854 84.9116 375.126 85.728C375.398 86.5443 375.829 87.2019 376.419 87.7007C376.963 88.1089 377.564 88.313 378.221 88.313C379.378 88.313 380.262 87.8821 380.874 87.0205C381.169 86.6123 381.373 86.1021 381.487 85.4899C381.6 84.8776 381.657 83.6871 381.657 81.9184C381.657 80.1044 381.6 78.8912 381.487 78.279C381.373 77.6667 381.169 77.1565 380.874 76.7484C380.262 75.932 379.446 75.5239 378.425 75.5239Z" fill="white"/>
</g>
<g id="Group_15">
<path id="Vector_15" d="M398.041 77.2245C398.041 76.9297 398.2 76.703 398.517 76.5442H420.184C420.524 76.7256 420.694 76.9524 420.694 77.2245C420.694 77.4739 420.535 77.6894 420.218 77.8708L409.402 77.9048H398.585C398.222 77.7914 398.041 77.5646 398.041 77.2245ZM398.041 83.8231C398.041 83.483 398.222 83.2563 398.585 83.1429H420.218C420.535 83.3696 420.694 83.5964 420.694 83.8231C420.694 84.1179 420.524 84.3447 420.184 84.5034H398.517C398.2 84.3447 398.041 84.1179 398.041 83.8231Z" fill="white"/>
</g>
<g id="Group_16">
<path id="Vector_16" d="M433.477 78.381C433.477 74.6849 434.395 71.7597 436.232 69.6055C438.069 67.4513 440.109 66.3742 442.354 66.3742C443.919 66.3742 445.041 66.7824 445.722 67.5987C446.402 68.415 446.742 69.3221 446.742 70.3198C446.742 70.8867 446.583 71.3402 446.266 71.6803C445.948 72.0205 445.506 72.1905 444.939 72.1905C444.418 72.1905 443.987 72.0318 443.647 71.7143C443.307 71.3969 443.137 70.9547 443.137 70.3878C443.137 69.3901 443.669 68.7892 444.735 68.5851C444.236 68.0862 443.533 67.8028 442.626 67.7348C441.016 67.7348 439.69 68.415 438.647 69.7756C437.581 71.2722 437.048 73.5624 437.048 76.6463L437.082 76.7824C437.196 76.6463 437.286 76.4989 437.354 76.3402C438.284 74.9797 439.497 74.2994 440.994 74.2994H441.13C442.173 74.2994 443.091 74.5148 443.885 74.9456C444.429 75.2631 444.973 75.7166 445.518 76.3062C446.062 76.8958 446.504 77.542 446.844 78.245C447.32 79.3561 447.558 80.5692 447.558 81.8844V82.4967C447.558 83.0182 447.502 83.5057 447.388 83.9592C447.139 85.2971 446.413 86.601 445.211 87.8708C444.01 89.1407 442.49 89.7756 440.654 89.7756C440.019 89.7756 439.406 89.6849 438.817 89.5035C438.227 89.3221 437.592 88.9819 436.912 88.4831C436.232 87.9842 435.654 87.3153 435.177 86.4763C434.701 85.6373 434.293 84.5375 433.953 83.1769C433.613 81.8164 433.454 80.2178 433.477 78.381ZM440.79 75.5239C440.109 75.5239 439.52 75.7166 439.021 76.1021C438.522 76.4876 438.137 76.9978 437.864 77.6327C437.592 78.2676 437.4 78.9139 437.286 79.5715C437.173 80.2291 437.105 80.932 437.082 81.6803C437.082 83.5624 437.218 84.9116 437.49 85.728C437.762 86.5443 438.193 87.2019 438.783 87.7007C439.327 88.1089 439.928 88.313 440.586 88.313C441.742 88.313 442.626 87.8821 443.239 87.0205C443.533 86.6123 443.738 86.1021 443.851 85.4899C443.964 84.8776 444.021 83.6871 444.021 81.9184C444.021 80.1044 443.964 78.8912 443.851 78.279C443.738 77.6667 443.533 77.1565 443.239 76.7484C442.626 75.932 441.81 75.5239 440.79 75.5239Z" fill="white"/>
<path id="Vector_17" d="M452.32 69.1293C453.59 67.2926 455.325 66.3742 457.524 66.3742C458.613 66.3742 459.701 66.669 460.79 67.2586C461.878 67.8481 462.762 68.8912 463.443 70.3878C464.282 72.2699 464.701 74.8549 464.701 78.1429C464.701 81.6577 464.214 84.3447 463.238 86.2041C462.785 87.1565 462.161 87.9162 461.368 88.4831C460.574 89.05 459.882 89.4014 459.293 89.5375C458.703 89.6735 458.125 89.7529 457.558 89.7756C456.969 89.7756 456.379 89.7075 455.79 89.5715C455.2 89.4354 454.508 89.0726 453.715 88.4831C452.921 87.8935 452.297 87.1339 451.844 86.2041C450.869 84.3447 450.381 81.6577 450.381 78.1429C450.381 74.1973 451.028 71.1928 452.32 69.1293ZM459.973 68.7212C459.293 67.9955 458.488 67.6327 457.558 67.6327C456.606 67.6327 455.79 67.9955 455.109 68.7212C454.542 69.3107 454.168 70.127 453.987 71.1701C453.805 72.2132 453.715 74.3901 453.715 77.7007C453.715 81.2835 453.805 83.6418 453.987 84.7756C454.168 85.9094 454.576 86.8051 455.211 87.4626C455.846 88.1429 456.629 88.4831 457.558 88.4831C458.465 88.4831 459.236 88.1429 459.871 87.4626C460.529 86.7824 460.937 85.83 461.096 84.6055C461.254 83.381 461.345 81.0794 461.368 77.7007C461.368 74.4128 461.277 72.2472 461.096 71.2041C460.914 70.1611 460.54 69.3334 459.973 68.7212Z" fill="white"/>
</g>
<g id="Group 146">
<g id="Group_17">
<path id="Vector_18" d="M83.5782 137.197C83.737 136.245 84.3492 135.145 85.415 133.898C86.4807 132.651 87.7959 132.016 89.3605 131.993C90.1542 131.993 90.8798 132.197 91.5374 132.606C92.195 133.014 92.6825 133.524 93 134.136C93.9524 132.708 95.0975 131.993 96.4354 131.993C97.2744 131.993 98 132.243 98.6122 132.742C99.2245 133.24 99.542 133.909 99.5646 134.748C99.5646 135.406 99.4059 135.939 99.0884 136.347C98.771 136.755 98.4649 137.005 98.1701 137.095C97.8753 137.186 97.6145 137.231 97.3878 137.231C96.9569 137.231 96.6054 137.107 96.3333 136.857C96.0612 136.608 95.9252 136.279 95.9252 135.871C95.9252 134.828 96.4921 134.114 97.6259 133.728C97.3764 133.433 96.9229 133.286 96.2653 133.286C95.9705 133.286 95.7551 133.309 95.619 133.354C94.7574 133.717 94.1224 134.465 93.7143 135.599C92.3537 140.61 91.6735 143.535 91.6735 144.374C91.6735 145.009 91.8549 145.463 92.2177 145.735C92.5805 146.007 92.9773 146.143 93.4082 146.143C94.2472 146.143 95.0748 145.769 95.8912 145.021C96.7075 144.272 97.263 143.354 97.5578 142.265C97.6259 142.039 97.6939 141.914 97.7619 141.891C97.8299 141.869 98.0113 141.846 98.3061 141.823H98.4422C98.7823 141.823 98.9524 141.914 98.9524 142.095C98.9524 142.118 98.9297 142.243 98.8844 142.47C98.5215 143.762 97.8186 144.907 96.7755 145.905C95.7324 146.903 94.5193 147.401 93.1361 147.401C91.5488 147.401 90.3469 146.687 89.5306 145.259C88.6009 146.665 87.5351 147.367 86.3333 147.367H86.1293C85.0181 147.367 84.2245 147.073 83.7483 146.483C83.2721 145.894 83.0227 145.27 83 144.612C83 143.887 83.2154 143.297 83.6463 142.844C84.0771 142.39 84.5873 142.163 85.1769 142.163C86.1519 142.163 86.6395 142.64 86.6395 143.592C86.6395 144.045 86.5034 144.442 86.2313 144.782C85.9592 145.123 85.6984 145.349 85.449 145.463C85.1995 145.576 85.0522 145.633 85.0068 145.633L84.9048 145.667C84.9048 145.689 84.9728 145.735 85.1088 145.803C85.2449 145.871 85.4263 145.95 85.6531 146.041C85.8798 146.132 86.0952 146.166 86.2993 146.143C87.1156 146.143 87.8186 145.633 88.4082 144.612C88.6122 144.25 88.873 143.479 89.1905 142.299C89.5079 141.12 89.8254 139.896 90.1429 138.626C90.4603 137.356 90.6417 136.608 90.6871 136.381C90.8005 135.769 90.8571 135.327 90.8571 135.055C90.8571 134.42 90.6871 133.966 90.3469 133.694C90.0068 133.422 89.6213 133.286 89.1905 133.286C88.2834 133.286 87.4331 133.649 86.6395 134.374C85.8458 135.1 85.2902 136.03 84.9728 137.163C84.9274 137.367 84.8707 137.481 84.8027 137.504C84.7347 137.526 84.5533 137.549 84.2585 137.572H83.7823C83.6463 137.436 83.5782 137.311 83.5782 137.197Z" fill="white"/>
</g>
<g id="Group_18">
<path id="Vector_19" d="M110.728 138.966C110.728 138.966 110.728 138.819 110.728 138.524C110.728 138.229 110.886 138.002 111.204 137.844H121.374V132.742L121.408 127.64C121.635 127.345 121.85 127.197 122.054 127.197C122.349 127.197 122.576 127.367 122.734 127.708V137.844H132.87C133.211 138.025 133.381 138.252 133.381 138.524C133.381 138.796 133.211 139.023 132.87 139.204H122.734V149.34C122.553 149.658 122.349 149.816 122.122 149.816H122.054H121.986C121.714 149.816 121.51 149.658 121.374 149.34V139.204H111.204C110.886 139.045 110.728 138.819 110.728 138.524V138.966Z" fill="white"/>
</g>
<g id="Group_19">
<path id="Vector_20" d="M143.558 137.265C143.558 136.948 143.728 136.404 144.068 135.633C144.408 134.862 144.952 134.057 145.7 133.218C146.449 132.379 147.288 131.971 148.217 131.993C149.147 131.993 149.895 132.254 150.462 132.776C151.029 133.297 151.324 134.023 151.347 134.952C151.301 135.383 151.267 135.621 151.245 135.667C151.245 135.735 151.063 136.256 150.7 137.231C150.338 138.206 149.964 139.306 149.578 140.531C149.193 141.755 149.011 142.73 149.034 143.456C149.034 144.431 149.193 145.111 149.51 145.497C149.827 145.882 150.304 146.086 150.939 146.109C151.46 146.109 151.948 145.984 152.401 145.735C152.855 145.485 153.206 145.225 153.456 144.953C153.705 144.68 154.011 144.306 154.374 143.83C154.374 143.807 154.431 143.581 154.544 143.15C154.657 142.719 154.816 142.05 155.02 141.143C155.224 140.236 155.44 139.397 155.666 138.626C156.528 135.225 157.004 133.445 157.095 133.286C157.39 132.674 157.877 132.367 158.558 132.367C158.852 132.367 159.09 132.447 159.272 132.606C159.453 132.764 159.578 132.9 159.646 133.014C159.714 133.127 159.737 133.229 159.714 133.32C159.714 133.615 159.159 135.996 158.047 140.463C156.936 144.93 156.301 147.379 156.143 147.81C155.508 149.692 154.408 151.188 152.843 152.299C151.279 153.411 149.714 153.977 148.149 154C147.129 154 146.233 153.751 145.462 153.252C144.691 152.753 144.306 152.005 144.306 151.007C144.306 150.508 144.385 150.089 144.544 149.748C144.703 149.408 144.918 149.159 145.19 149C145.462 148.841 145.689 148.728 145.871 148.66C146.052 148.592 146.245 148.558 146.449 148.558C147.447 148.558 147.945 149.034 147.945 149.987C147.945 150.44 147.809 150.837 147.537 151.177C147.265 151.517 147.004 151.744 146.755 151.857C146.505 151.971 146.358 152.027 146.313 152.027L146.211 152.061C146.256 152.175 146.471 152.311 146.857 152.47C147.242 152.628 147.628 152.708 148.013 152.708H148.286C148.671 152.708 148.966 152.685 149.17 152.64C149.918 152.435 150.61 152.005 151.245 151.347C151.88 150.689 152.367 149.987 152.707 149.238C153.047 148.49 153.308 147.855 153.49 147.333C153.671 146.812 153.762 146.472 153.762 146.313L153.558 146.449C153.422 146.54 153.206 146.665 152.911 146.823C152.617 146.982 152.322 147.118 152.027 147.231C151.573 147.345 151.131 147.401 150.7 147.401C149.657 147.401 148.739 147.152 147.945 146.653C147.152 146.154 146.63 145.349 146.381 144.238C146.358 144.079 146.347 143.728 146.347 143.184C146.347 141.891 146.744 140.202 147.537 138.116C148.331 136.03 148.728 134.703 148.728 134.136C148.728 134.113 148.728 134.091 148.728 134.068C148.728 133.864 148.728 133.728 148.728 133.66C148.728 133.592 148.682 133.513 148.592 133.422C148.501 133.331 148.376 133.286 148.217 133.286H148.081C147.56 133.286 147.084 133.501 146.653 133.932C146.222 134.363 145.882 134.828 145.632 135.327C145.383 135.826 145.19 136.302 145.054 136.755C144.918 137.209 144.827 137.458 144.782 137.504C144.737 137.549 144.555 137.572 144.238 137.572H143.762C143.626 137.435 143.558 137.333 143.558 137.265Z" fill="white"/>
</g>
<g id="Group_20">
<path id="Vector_21" d="M170.864 135.225C170.864 134.93 171.023 134.703 171.34 134.544H193.007C193.347 134.726 193.517 134.952 193.517 135.225C193.517 135.474 193.359 135.689 193.041 135.871L182.225 135.905H171.408C171.046 135.791 170.864 135.565 170.864 135.225ZM170.864 141.823C170.864 141.483 171.046 141.256 171.408 141.143H193.041C193.359 141.37 193.517 141.596 193.517 141.823C193.517 142.118 193.347 142.345 193.007 142.503H171.34C171.023 142.345 170.864 142.118 170.864 141.823Z" fill="white"/>
</g>
<g id="Group_21">
<path id="Vector_22" d="M206.299 136.381C206.299 132.685 207.217 129.76 209.054 127.606C210.89 125.451 212.931 124.374 215.176 124.374C216.741 124.374 217.863 124.782 218.543 125.599C219.224 126.415 219.564 127.322 219.564 128.32C219.564 128.887 219.405 129.34 219.088 129.68C218.77 130.021 218.328 130.191 217.761 130.191C217.24 130.191 216.809 130.032 216.469 129.714C216.128 129.397 215.958 128.955 215.958 128.388C215.958 127.39 216.491 126.789 217.557 126.585C217.058 126.086 216.355 125.803 215.448 125.735C213.838 125.735 212.512 126.415 211.469 127.776C210.403 129.272 209.87 131.562 209.87 134.646L209.904 134.782C210.017 134.646 210.108 134.499 210.176 134.34C211.106 132.98 212.319 132.299 213.816 132.299H213.952C214.995 132.299 215.913 132.515 216.707 132.946C217.251 133.263 217.795 133.717 218.339 134.306C218.884 134.896 219.326 135.542 219.666 136.245C220.142 137.356 220.38 138.569 220.38 139.884V140.497C220.38 141.018 220.323 141.506 220.21 141.959C219.961 143.297 219.235 144.601 218.033 145.871C216.831 147.141 215.312 147.776 213.475 147.776C212.84 147.776 212.228 147.685 211.639 147.504C211.049 147.322 210.414 146.982 209.734 146.483C209.054 145.984 208.475 145.315 207.999 144.476C207.523 143.637 207.115 142.538 206.775 141.177C206.435 139.816 206.276 138.218 206.299 136.381ZM213.611 133.524C212.931 133.524 212.342 133.717 211.843 134.102C211.344 134.488 210.958 134.998 210.686 135.633C210.414 136.268 210.221 136.914 210.108 137.572C209.995 138.229 209.927 138.932 209.904 139.68C209.904 141.562 210.04 142.912 210.312 143.728C210.584 144.544 211.015 145.202 211.605 145.701C212.149 146.109 212.75 146.313 213.407 146.313C214.564 146.313 215.448 145.882 216.06 145.021C216.355 144.612 216.559 144.102 216.673 143.49C216.786 142.878 216.843 141.687 216.843 139.918C216.843 138.104 216.786 136.891 216.673 136.279C216.559 135.667 216.355 135.157 216.06 134.748C215.448 133.932 214.632 133.524 213.611 133.524Z" fill="white"/>
<path id="Vector_23" d="M225.141 127.129C226.411 125.293 228.146 124.374 230.345 124.374C231.434 124.374 232.522 124.669 233.611 125.259C234.699 125.848 235.584 126.891 236.264 128.388C237.103 130.27 237.522 132.855 237.522 136.143C237.522 139.658 237.035 142.345 236.06 144.204C235.606 145.157 234.983 145.916 234.189 146.483C233.395 147.05 232.704 147.401 232.114 147.538C231.525 147.674 230.946 147.753 230.38 147.776C229.79 147.776 229.2 147.708 228.611 147.572C228.021 147.435 227.33 147.073 226.536 146.483C225.742 145.894 225.119 145.134 224.665 144.204C223.69 142.345 223.203 139.658 223.203 136.143C223.203 132.197 223.849 129.193 225.141 127.129ZM232.794 126.721C232.114 125.996 231.309 125.633 230.38 125.633C229.427 125.633 228.611 125.996 227.931 126.721C227.364 127.311 226.989 128.127 226.808 129.17C226.627 130.213 226.536 132.39 226.536 135.701C226.536 139.284 226.627 141.642 226.808 142.776C226.989 143.909 227.398 144.805 228.033 145.463C228.667 146.143 229.45 146.483 230.38 146.483C231.287 146.483 232.058 146.143 232.692 145.463C233.35 144.782 233.758 143.83 233.917 142.606C234.076 141.381 234.166 139.079 234.189 135.701C234.189 132.413 234.098 130.247 233.917 129.204C233.736 128.161 233.361 127.333 232.794 126.721Z" fill="white"/>
</g>
<g id="Group_22">
<path id="Vector_24" d="M249.298 138.966C249.298 138.966 249.298 138.819 249.298 138.524C249.298 138.229 249.457 138.002 249.774 137.844H269.536C269.876 138.025 270.046 138.252 270.046 138.524C270.046 138.796 269.876 139.023 269.536 139.204H249.774C249.457 139.045 249.298 138.819 249.298 138.524V138.966Z" fill="white"/>
</g>
<g id="Group_23">
<path id="Vector_25" d="M284.781 131.279C284.169 131.279 283.692 131.086 283.352 130.701C283.012 130.315 282.831 129.816 282.808 129.204C282.808 127.957 283.352 126.846 284.441 125.871C285.529 124.896 286.844 124.408 288.386 124.408C289.18 124.408 289.679 124.42 289.883 124.442C291.561 124.714 292.842 125.315 293.726 126.245C294.611 127.175 295.064 128.184 295.087 129.272C295.087 130.451 294.701 131.596 293.93 132.708C293.159 133.819 292.094 134.624 290.733 135.123L290.631 135.191C290.631 135.213 290.733 135.247 290.937 135.293C291.141 135.338 291.47 135.44 291.924 135.599C292.377 135.757 292.808 135.996 293.216 136.313C295.076 137.515 296.005 139.102 296.005 141.075C296.005 142.866 295.302 144.431 293.896 145.769C292.491 147.107 290.711 147.776 288.556 147.776C286.742 147.776 285.178 147.288 283.862 146.313C282.547 145.338 281.89 144.102 281.89 142.606C281.89 141.971 282.094 141.46 282.502 141.075C282.91 140.689 283.42 140.485 284.033 140.463C284.667 140.463 285.189 140.667 285.597 141.075C286.005 141.483 286.209 141.993 286.209 142.606C286.209 142.855 286.175 143.082 286.107 143.286C286.039 143.49 285.96 143.671 285.869 143.83C285.779 143.989 285.654 144.125 285.495 144.238C285.336 144.352 285.2 144.442 285.087 144.51C284.974 144.578 284.86 144.624 284.747 144.646C284.633 144.669 284.543 144.703 284.475 144.748L284.339 144.782C285.495 145.803 286.901 146.313 288.556 146.313C289.803 146.313 290.745 145.712 291.379 144.51C291.765 143.762 291.958 142.617 291.958 141.075V140.395C291.958 138.24 291.232 136.801 289.781 136.075C289.441 135.939 288.749 135.86 287.706 135.837L286.277 135.803L286.175 135.735C286.13 135.667 286.107 135.485 286.107 135.191C286.107 134.782 286.198 134.578 286.379 134.578C287.014 134.578 287.672 134.522 288.352 134.408C289.123 134.295 289.826 133.819 290.461 132.98C291.096 132.141 291.413 130.871 291.413 129.17V128.898C291.413 127.606 291.017 126.71 290.223 126.211C289.724 125.894 289.191 125.735 288.624 125.735C287.899 125.735 287.23 125.86 286.618 126.109C286.005 126.358 285.574 126.619 285.325 126.891C285.076 127.163 284.951 127.299 284.951 127.299H285.053C285.121 127.322 285.212 127.345 285.325 127.367C285.438 127.39 285.552 127.447 285.665 127.538C285.779 127.628 285.915 127.708 286.073 127.776C286.232 127.844 286.345 127.968 286.413 128.15C286.481 128.331 286.572 128.501 286.686 128.66C286.799 128.819 286.833 129.045 286.788 129.34C286.788 129.839 286.629 130.281 286.311 130.667C285.994 131.052 285.484 131.256 284.781 131.279Z" fill="white"/>
<path id="Vector_26" d="M298.897 136.381C298.897 132.685 299.815 129.76 301.652 127.606C303.488 125.451 305.529 124.374 307.774 124.374C309.339 124.374 310.461 124.782 311.142 125.599C311.822 126.415 312.162 127.322 312.162 128.32C312.162 128.887 312.003 129.34 311.686 129.68C311.368 130.021 310.926 130.191 310.359 130.191C309.838 130.191 309.407 130.032 309.067 129.714C308.727 129.397 308.557 128.955 308.557 128.388C308.557 127.39 309.089 126.789 310.155 126.585C309.656 126.086 308.953 125.803 308.046 125.735C306.436 125.735 305.11 126.415 304.067 127.776C303.001 129.272 302.468 131.562 302.468 134.646L302.502 134.782C302.615 134.646 302.706 134.499 302.774 134.34C303.704 132.98 304.917 132.299 306.414 132.299H306.55C307.593 132.299 308.511 132.515 309.305 132.946C309.849 133.263 310.393 133.717 310.937 134.306C311.482 134.896 311.924 135.542 312.264 136.245C312.74 137.356 312.978 138.569 312.978 139.884V140.497C312.978 141.018 312.922 141.506 312.808 141.959C312.559 143.297 311.833 144.601 310.631 145.871C309.43 147.141 307.91 147.776 306.074 147.776C305.439 147.776 304.826 147.685 304.237 147.504C303.647 147.322 303.012 146.982 302.332 146.483C301.652 145.984 301.074 145.315 300.597 144.476C300.121 143.637 299.713 142.538 299.373 141.177C299.033 139.816 298.874 138.218 298.897 136.381ZM306.21 133.524C305.529 133.524 304.94 133.717 304.441 134.102C303.942 134.488 303.557 134.998 303.284 135.633C303.012 136.268 302.82 136.914 302.706 137.572C302.593 138.229 302.525 138.932 302.502 139.68C302.502 141.562 302.638 142.912 302.91 143.728C303.182 144.544 303.613 145.202 304.203 145.701C304.747 146.109 305.348 146.313 306.006 146.313C307.162 146.313 308.046 145.882 308.659 145.021C308.953 144.612 309.157 144.102 309.271 143.49C309.384 142.878 309.441 141.687 309.441 139.918C309.441 138.104 309.384 136.891 309.271 136.279C309.157 135.667 308.953 135.157 308.659 134.748C308.046 133.932 307.23 133.524 306.21 133.524Z" fill="white"/>
</g>
<g id="Group_24">
<path id="Vector_27" d="M325.829 135.225C325.829 134.93 325.987 134.703 326.305 134.544H347.971C348.312 134.726 348.482 134.952 348.482 135.225C348.482 135.474 348.323 135.689 348.005 135.871L337.189 135.905H326.373C326.01 135.791 325.829 135.565 325.829 135.225ZM325.829 141.823C325.829 141.483 326.01 141.256 326.373 141.143H348.005C348.323 141.37 348.482 141.596 348.482 141.823C348.482 142.118 348.312 142.345 347.971 142.503H326.305C325.987 142.345 325.829 142.118 325.829 141.823Z" fill="white"/>
</g>
<g id="Group_25">
<path id="Vector_28" d="M363.544 132.435C362.932 132.435 362.444 132.231 362.081 131.823C361.719 131.415 361.537 130.916 361.537 130.327C361.537 128.717 362.138 127.322 363.34 126.143C364.542 124.964 366.038 124.374 367.83 124.374C369.893 124.374 371.616 125.009 373 126.279C374.383 127.549 375.086 129.193 375.109 131.211C375.109 132.186 374.882 133.116 374.428 134C373.975 134.884 373.431 135.655 372.796 136.313C372.161 136.971 371.254 137.81 370.075 138.83C369.258 139.533 368.124 140.576 366.673 141.959L364.666 143.864L367.251 143.898C370.811 143.898 372.705 143.841 372.932 143.728C373.09 143.683 373.363 142.674 373.748 140.701V140.599H375.109V140.701C375.086 140.769 374.938 141.801 374.666 143.796C374.394 145.791 374.224 146.835 374.156 146.925V147.027H361.537V146.381V145.973C361.537 145.814 361.605 145.644 361.741 145.463C361.877 145.281 362.217 144.884 362.762 144.272C363.419 143.547 363.986 142.912 364.462 142.367C364.666 142.141 365.052 141.721 365.619 141.109C366.186 140.497 366.571 140.077 366.775 139.85C366.979 139.624 367.308 139.25 367.762 138.728C368.215 138.206 368.533 137.821 368.714 137.571C368.895 137.322 369.156 136.982 369.496 136.551C369.836 136.12 370.075 135.757 370.211 135.463C370.347 135.168 370.517 134.839 370.721 134.476C370.925 134.113 371.072 133.751 371.163 133.388C371.254 133.025 371.333 132.685 371.401 132.367C371.469 132.05 371.503 131.676 371.503 131.245C371.503 129.816 371.118 128.581 370.347 127.537C369.576 126.494 368.476 125.973 367.047 125.973C366.299 125.973 365.641 126.166 365.075 126.551C364.508 126.937 364.111 127.311 363.884 127.674C363.657 128.036 363.544 128.252 363.544 128.32C363.544 128.342 363.601 128.354 363.714 128.354C364.122 128.354 364.542 128.513 364.972 128.83C365.403 129.147 365.619 129.669 365.619 130.395C365.619 130.962 365.437 131.438 365.075 131.823C364.712 132.209 364.202 132.413 363.544 132.435Z" fill="white"/>
<path id="Vector_29" d="M392.558 147.027C392.15 146.959 390.688 146.925 388.171 146.925C385.54 146.925 384.021 146.959 383.613 147.027H383.307V145.463H384.361C384.815 145.463 385.121 145.463 385.279 145.463C385.438 145.463 385.631 145.44 385.858 145.395C386.084 145.349 386.243 145.293 386.334 145.225C386.425 145.157 386.504 145.066 386.572 144.952C386.595 144.907 386.606 144.295 386.606 143.116V141.415H377.796V139.85L382.932 131.993C386.402 126.732 388.159 124.091 388.205 124.068C388.25 124.023 388.488 124 388.919 124H389.531L389.735 124.204V139.85H392.864V141.415H389.735V143.15C389.735 144.079 389.735 144.624 389.735 144.782C389.735 144.941 389.803 145.077 389.939 145.191C390.121 145.349 390.767 145.44 391.878 145.463H392.864V147.027H392.558ZM386.81 139.85V128.49L379.361 139.816L383.068 139.85H386.81Z" fill="white"/>
</g>
</g>
</g>
</g>
<path id="Line 57 (Stroke)" fill-rule="evenodd" clip-rule="evenodd" d="M500.972 209L499 1.00003L504 0.952637L505.972 208.953L500.972 209Z" fill="#CD08D1"/>
<g id="Group 173">
<path id="Arrow 19 (Stroke)" fill-rule="evenodd" clip-rule="evenodd" d="M599.869 108.658L575 94L600.129 79.792L600.021 91.7253L776.023 93.3109L776.131 81.3777L801 96.036L775.871 110.244L775.978 98.3107L599.976 96.7251L599.869 108.658Z" fill="#E79720"/>
<g id="12">
<path d="M689.814 83H686.545V61.3262L679.988 63.7344V60.7812L689.305 57.2832H689.814V83Z" fill="#E79720"/>
<path d="M716.111 83H699.342V80.6621L708.201 70.8184C709.514 69.3301 710.416 68.123 710.908 67.1973C711.412 66.2598 711.664 65.293 711.664 64.2969C711.664 62.9609 711.26 61.8652 710.451 61.0098C709.643 60.1543 708.564 59.7266 707.217 59.7266C705.6 59.7266 704.34 60.1895 703.438 61.1152C702.547 62.0293 702.102 63.3066 702.102 64.9473H698.85C698.85 62.5918 699.605 60.6875 701.117 59.2344C702.641 57.7812 704.674 57.0547 707.217 57.0547C709.596 57.0547 711.477 57.6816 712.859 58.9355C714.242 60.1777 714.934 61.8359 714.934 63.9102C714.934 66.4297 713.328 69.4297 710.117 72.9102L703.262 80.3457H716.111V83Z" fill="#E79720"/>
</g>
<g id="14">
<path d="M566.814 140H563.545V118.326L556.988 120.734V117.781L566.305 114.283H566.814V140Z" fill="white"/>
<path d="M590.07 131.404H593.621V134.059H590.07V140H586.801V134.059H575.146V132.143L586.607 114.406H590.07V131.404ZM578.838 131.404H586.801V118.854L586.414 119.557L578.838 131.404Z" fill="white"/>
</g>
<g id="16">
<path d="M792.814 145H789.545V123.326L782.988 125.734V122.781L792.305 119.283H792.814V145Z" fill="white"/>
<path d="M815.104 119.389V122.148H814.506C811.975 122.195 809.959 122.945 808.459 124.398C806.959 125.852 806.092 127.896 805.857 130.533C807.205 128.986 809.045 128.213 811.377 128.213C813.604 128.213 815.379 128.998 816.703 130.568C818.039 132.139 818.707 134.166 818.707 136.65C818.707 139.287 817.986 141.396 816.545 142.979C815.115 144.561 813.193 145.352 810.779 145.352C808.33 145.352 806.344 144.414 804.82 142.539C803.297 140.652 802.535 138.227 802.535 135.262V134.014C802.535 129.303 803.537 125.705 805.541 123.221C807.557 120.725 810.551 119.447 814.523 119.389H815.104ZM810.832 130.92C809.719 130.92 808.693 131.254 807.756 131.922C806.818 132.59 806.168 133.428 805.805 134.436V135.631C805.805 137.74 806.279 139.439 807.229 140.729C808.178 142.018 809.361 142.662 810.779 142.662C812.244 142.662 813.393 142.123 814.225 141.045C815.068 139.967 815.49 138.555 815.49 136.809C815.49 135.051 815.062 133.633 814.207 132.555C813.363 131.465 812.238 130.92 810.832 130.92Z" fill="white"/>
</g>
<path id="Line 56 (Stroke)" fill-rule="evenodd" clip-rule="evenodd" d="M696.001 124.07L693.001 38.0697L696.999 37.9303L699.999 123.93L696.001 124.07Z" fill="#13EBF9"/>
<g id="15">
<path d="M690.814 166H687.545V144.326L680.988 146.734V143.781L690.305 140.283H690.814V166Z" fill="#13EBF9"/>
<path d="M701.836 153.168L703.137 140.406H716.25V143.412H705.896L705.123 150.391C706.377 149.652 707.801 149.283 709.395 149.283C711.727 149.283 713.578 150.057 714.949 151.604C716.32 153.139 717.006 155.219 717.006 157.844C717.006 160.48 716.291 162.561 714.861 164.084C713.443 165.596 711.457 166.352 708.902 166.352C706.641 166.352 704.795 165.725 703.365 164.471C701.936 163.217 701.121 161.482 700.922 159.268H703.998C704.197 160.732 704.719 161.84 705.562 162.59C706.406 163.328 707.52 163.697 708.902 163.697C710.414 163.697 711.598 163.182 712.453 162.15C713.32 161.119 713.754 159.695 713.754 157.879C713.754 156.168 713.285 154.797 712.348 153.766C711.422 152.723 710.186 152.201 708.639 152.201C707.221 152.201 706.107 152.512 705.299 153.133L704.438 153.836L701.836 153.168Z" fill="#13EBF9"/>
</g>
<path id="Arrow 20 (Stroke)" fill-rule="evenodd" clip-rule="evenodd" d="M597.934 49.1602L582.934 40.5L597.934 31.8397V39H662.066V31.8397L677.066 40.5L662.066 49.1602V42H597.934V49.1602Z" fill="#E8A1EE"/>
<path id="6" d="M633.889 3.38867V6.14844H633.291C630.76 6.19531 628.744 6.94531 627.244 8.39844C625.744 9.85156 624.877 11.8965 624.643 14.5332C625.99 12.9863 627.83 12.2129 630.162 12.2129C632.389 12.2129 634.164 12.998 635.488 14.5684C636.824 16.1387 637.492 18.166 637.492 20.6504C637.492 23.2871 636.771 25.3965 635.33 26.9785C633.9 28.5605 631.979 29.3516 629.564 29.3516C627.115 29.3516 625.129 28.4141 623.605 26.5391C622.082 24.6523 621.32 22.2266 621.32 19.2617V18.0137C621.32 13.3027 622.322 9.70508 624.326 7.2207C626.342 4.72461 629.336 3.44727 633.309 3.38867H633.889ZM629.617 14.9199C628.504 14.9199 627.479 15.2539 626.541 15.9219C625.604 16.5898 624.953 17.4277 624.59 18.4355V19.6309C624.59 21.7402 625.064 23.4395 626.014 24.7285C626.963 26.0176 628.146 26.6621 629.564 26.6621C631.029 26.6621 632.178 26.123 633.01 25.0449C633.854 23.9668 634.275 22.5547 634.275 20.8086C634.275 19.0508 633.848 17.6328 632.992 16.5547C632.148 15.4648 631.023 14.9199 629.617 14.9199Z" fill="#E8A1EE"/>
</g>
<g id="\begin{matrix}60 &#38;\rightarrow  &#38; 100\%\\  30&#38; \rightarrow &#38; x\end{matrix}x=\frac{30\times 100}{60}=50\%">
<g id="Group_26">
<g id="Group_27">
<g id="Group_28">
<g id="Group_29">
<g id="Group_30">
<path id="Vector_30" d="M70.0026 260.108C70.0026 255.605 71.1214 252.042 73.3589 249.417C75.5965 246.793 78.0827 245.481 80.8175 245.481C82.7236 245.481 84.091 245.978 84.9197 246.973C85.7484 247.967 86.1628 249.072 86.1628 250.287C86.1628 250.978 85.9694 251.531 85.5827 251.945C85.196 252.359 84.6573 252.566 83.9667 252.566C83.3313 252.566 82.8065 252.373 82.3921 251.986C81.9777 251.6 81.7705 251.061 81.7705 250.37C81.7705 249.155 82.4197 248.423 83.7181 248.174C83.1103 247.566 82.254 247.221 81.149 247.138C79.1877 247.138 77.5717 247.967 76.3009 249.624C75.0026 251.448 74.3534 254.238 74.3534 257.995L74.3949 258.16C74.533 257.995 74.6435 257.815 74.7263 257.622C75.8589 255.964 77.3368 255.136 79.16 255.136H79.3258C80.5965 255.136 81.7153 255.398 82.6821 255.923C83.3451 256.31 84.0081 256.862 84.6711 257.58C85.3341 258.299 85.8728 259.086 86.2871 259.942C86.8672 261.296 87.1573 262.774 87.1573 264.376V265.122C87.1573 265.757 87.0882 266.351 86.9501 266.904C86.6462 268.533 85.7623 270.122 84.2982 271.669C82.8341 273.216 80.9833 273.989 78.7457 273.989C77.9722 273.989 77.2263 273.879 76.5081 273.658C75.7899 273.437 75.0164 273.022 74.1877 272.415C73.3589 271.807 72.6545 270.992 72.0744 269.97C71.4943 268.948 70.9971 267.608 70.5827 265.95C70.1683 264.293 69.975 262.345 70.0026 260.108ZM78.9114 256.627C78.0827 256.627 77.3645 256.862 76.7567 257.332C76.149 257.801 75.6794 258.423 75.3479 259.196C75.0164 259.97 74.7816 260.757 74.6435 261.558C74.5054 262.359 74.4225 263.216 74.3949 264.127C74.3949 266.42 74.5606 268.064 74.8921 269.058C75.2236 270.053 75.7484 270.854 76.4667 271.462C77.1297 271.959 77.8617 272.207 78.6628 272.207C80.0717 272.207 81.149 271.683 81.8949 270.633C82.254 270.136 82.5026 269.514 82.6407 268.768C82.7788 268.022 82.8479 266.572 82.8479 264.417C82.8479 262.207 82.7788 260.729 82.6407 259.984C82.5026 259.238 82.254 258.616 81.8949 258.119C81.149 257.124 80.1545 256.627 78.9114 256.627Z" fill="white"/>
<path id="Vector_31" d="M92.9586 248.837C94.5055 246.6 96.6188 245.481 99.2983 245.481C100.624 245.481 101.95 245.84 103.276 246.558C104.602 247.276 105.68 248.547 106.508 250.37C107.53 252.663 108.041 255.812 108.041 259.818C108.041 264.1 107.448 267.373 106.26 269.638C105.707 270.799 104.948 271.724 103.981 272.415C103.014 273.105 102.171 273.533 101.453 273.699C100.735 273.865 100.03 273.962 99.3398 273.989C98.6215 273.989 97.9033 273.906 97.1851 273.741C96.4668 273.575 95.6243 273.133 94.6575 272.415C93.6906 271.696 92.9309 270.771 92.3784 269.638C91.1906 267.373 90.5967 264.1 90.5967 259.818C90.5967 255.011 91.384 251.351 92.9586 248.837ZM102.282 248.34C101.453 247.456 100.472 247.014 99.3398 247.014C98.1796 247.014 97.1851 247.456 96.3563 248.34C95.6657 249.058 95.2099 250.053 94.9889 251.323C94.768 252.594 94.6575 255.246 94.6575 259.279C94.6575 263.644 94.768 266.517 94.9889 267.898C95.2099 269.279 95.7072 270.37 96.4807 271.171C97.2541 272 98.2072 272.415 99.3398 272.415C100.445 272.415 101.384 272 102.157 271.171C102.959 270.343 103.456 269.183 103.649 267.691C103.843 266.199 103.953 263.395 103.981 259.279C103.981 255.274 103.87 252.636 103.649 251.365C103.428 250.094 102.972 249.086 102.282 248.34Z" fill="white"/>
</g>
</g>
<g id="Group_31">
<g id="Group_32">
<path id="Vector_32" d="M153.456 263.257C153.456 263.257 153.456 263.077 153.456 262.718C153.456 262.359 153.649 262.083 154.036 261.889H185.735C182.53 259.486 180.555 256.406 179.809 252.649C179.809 252.622 179.809 252.58 179.809 252.525C179.809 252.47 179.795 252.428 179.768 252.401C179.768 252.069 180.003 251.903 180.472 251.903H180.596C180.845 251.903 181.011 251.917 181.094 251.945C181.177 251.972 181.259 252.028 181.342 252.11C181.425 252.193 181.467 252.318 181.467 252.483C181.467 252.649 181.508 252.87 181.591 253.146C181.674 253.423 181.784 253.768 181.922 254.182C182.53 256.033 183.538 257.691 184.947 259.155C186.356 260.619 188 261.655 189.878 262.262C190.127 262.345 190.251 262.497 190.251 262.718C190.251 262.884 190.182 263.008 190.044 263.091C189.906 263.174 189.574 263.312 189.049 263.506C188.525 263.699 188 263.961 187.475 264.293C186.342 265.011 185.362 265.84 184.533 266.779C183.704 267.718 183.083 268.644 182.668 269.555C182.254 270.467 181.964 271.157 181.798 271.627C181.632 272.097 181.522 272.525 181.467 272.912C181.411 273.188 181.342 273.354 181.259 273.409C181.177 273.464 180.956 273.506 180.596 273.533C180.044 273.533 179.768 273.381 179.768 273.077C179.768 272.884 179.837 272.539 179.975 272.041C180.859 268.561 182.779 265.729 185.735 263.547H154.036C153.649 263.354 153.456 263.077 153.456 262.718V263.257Z" fill="white"/>
</g>
</g>
<g id="Group_33">
<g id="Group_34">
<path id="Vector_33" d="M242.834 249.127L242.296 249.334C241.909 249.473 241.357 249.611 240.638 249.749C239.92 249.887 239.119 249.984 238.235 250.039H237.448V248.133H238.235C239.533 248.078 240.735 247.87 241.84 247.511C242.945 247.152 243.718 246.821 244.16 246.517C244.602 246.213 244.989 245.909 245.321 245.605C245.376 245.522 245.542 245.481 245.818 245.481C246.067 245.481 246.301 245.564 246.522 245.729V258.119L246.564 270.55C246.757 270.743 246.923 270.868 247.061 270.923C247.199 270.978 247.531 271.033 248.055 271.089C248.58 271.144 249.437 271.171 250.625 271.171H251.702V273.078H251.246C250.666 272.995 248.47 272.953 244.658 272.953C240.901 272.953 238.732 272.995 238.152 273.078H237.655V271.171H238.732C239.34 271.171 239.865 271.171 240.307 271.171C240.749 271.171 241.094 271.158 241.343 271.13C241.591 271.102 241.812 271.061 242.006 271.006C242.199 270.95 242.31 270.923 242.337 270.923C242.365 270.923 242.448 270.854 242.586 270.716C242.724 270.578 242.807 270.522 242.834 270.55V249.127Z" fill="white"/>
<path id="Vector_34" d="M258.705 248.837C260.252 246.6 262.365 245.481 265.045 245.481C266.371 245.481 267.697 245.84 269.023 246.558C270.349 247.276 271.426 248.547 272.255 250.37C273.277 252.663 273.788 255.812 273.788 259.818C273.788 264.1 273.194 267.373 272.006 269.638C271.454 270.798 270.694 271.724 269.727 272.414C268.76 273.105 267.918 273.533 267.2 273.699C266.481 273.865 265.777 273.961 265.086 273.989C264.368 273.989 263.65 273.906 262.932 273.74C262.213 273.575 261.371 273.133 260.404 272.414C259.437 271.696 258.678 270.771 258.125 269.638C256.937 267.373 256.343 264.1 256.343 259.818C256.343 255.011 257.131 251.351 258.705 248.837ZM268.028 248.34C267.2 247.456 266.219 247.014 265.086 247.014C263.926 247.014 262.932 247.456 262.103 248.34C261.412 249.058 260.957 250.053 260.736 251.323C260.515 252.594 260.404 255.246 260.404 259.279C260.404 263.644 260.515 266.517 260.736 267.898C260.957 269.279 261.454 270.37 262.227 271.171C263.001 272 263.954 272.414 265.086 272.414C266.191 272.414 267.131 272 267.904 271.171C268.705 270.343 269.202 269.182 269.396 267.691C269.589 266.199 269.7 263.395 269.727 259.279C269.727 255.274 269.617 252.635 269.396 251.365C269.175 250.094 268.719 249.086 268.028 248.34Z" fill="white"/>
<path id="Vector_35" d="M279.422 248.837C280.969 246.6 283.083 245.481 285.762 245.481C287.088 245.481 288.414 245.84 289.74 246.558C291.066 247.276 292.143 248.547 292.972 250.37C293.994 252.663 294.505 255.812 294.505 259.818C294.505 264.1 293.911 267.373 292.724 269.638C292.171 270.798 291.411 271.724 290.445 272.414C289.478 273.105 288.635 273.533 287.917 273.699C287.199 273.865 286.494 273.961 285.804 273.989C285.085 273.989 284.367 273.906 283.649 273.74C282.931 273.575 282.088 273.133 281.121 272.414C280.154 271.696 279.395 270.771 278.842 269.638C277.654 267.373 277.061 264.1 277.061 259.818C277.061 255.011 277.848 251.351 279.422 248.837ZM288.746 248.34C287.917 247.456 286.936 247.014 285.804 247.014C284.643 247.014 283.649 247.456 282.82 248.34C282.13 249.058 281.674 250.053 281.453 251.323C281.232 252.594 281.121 255.246 281.121 259.279C281.121 263.644 281.232 266.517 281.453 267.898C281.674 269.279 282.171 270.37 282.945 271.171C283.718 272 284.671 272.414 285.804 272.414C286.909 272.414 287.848 272 288.621 271.171C289.422 270.343 289.92 269.182 290.113 267.691C290.306 266.199 290.417 263.395 290.445 259.279C290.445 255.274 290.334 252.635 290.113 251.365C289.892 250.094 289.436 249.086 288.746 248.34Z" fill="white"/>
</g>
<g id="Group_35">
<path id="Vector_36" d="M315.431 248.008C314.409 248.008 313.429 247.884 312.489 247.635C311.55 247.387 310.804 247.138 310.252 246.89C309.699 246.641 309.409 246.517 309.382 246.517C309.741 247.428 309.92 248.713 309.92 250.37C309.92 252.856 309.382 254.859 308.304 256.379C307.227 257.898 305.97 258.671 304.534 258.699C302.959 258.699 301.564 257.939 300.349 256.42C299.133 254.901 298.512 252.884 298.484 250.37C298.484 247.912 299.105 245.909 300.349 244.362C301.592 242.815 302.987 242.028 304.534 242C305.611 242 306.578 242.428 307.434 243.285C309.837 245.412 312.489 246.475 315.39 246.475C318.594 246.475 321.163 245.232 323.097 242.746C323.429 242.304 323.677 242.069 323.843 242.042C323.898 242.014 323.967 242 324.05 242C324.299 242 324.506 242.097 324.672 242.29C324.837 242.484 324.907 242.718 324.879 242.995C310.652 264.348 303.429 275.094 303.208 275.232C303.097 275.343 302.959 275.398 302.793 275.398C302.434 275.398 302.186 275.246 302.047 274.942C301.909 274.693 301.909 274.445 302.047 274.196C302.075 274.113 305.128 269.542 311.205 260.481C314.133 256.116 316.371 252.774 317.918 250.453C319.465 248.133 320.238 246.972 320.238 246.972C318.774 247.663 317.172 248.008 315.431 248.008ZM304.741 257.124C305.514 257.124 306.288 256.544 307.061 255.384C307.835 254.224 308.235 252.553 308.263 250.37C308.263 248.464 307.918 246.862 307.227 245.564C306.536 244.265 305.611 243.602 304.451 243.575C304.257 243.575 304.064 243.616 303.871 243.699C303.677 243.782 303.415 243.934 303.083 244.155C302.752 244.376 302.476 244.79 302.255 245.398C302.034 246.006 301.854 246.738 301.716 247.594C301.661 248.147 301.633 249.072 301.633 250.37V251.24C301.633 253.754 302.089 255.467 303 256.379C303.498 256.876 304.023 257.124 304.575 257.124H304.741ZM316.882 267.028C316.882 264.597 317.489 262.608 318.705 261.061C319.92 259.514 321.343 258.727 322.973 258.699C324.409 258.699 325.652 259.459 326.702 260.978C327.752 262.497 328.291 264.514 328.318 267.028C328.346 269.542 327.807 271.558 326.702 273.077C325.597 274.597 324.34 275.37 322.931 275.398C321.384 275.398 319.989 274.624 318.746 273.077C317.503 271.53 316.882 269.514 316.882 267.028ZM323.139 273.823C323.912 273.823 324.686 273.243 325.459 272.083C326.233 270.923 326.633 269.238 326.661 267.028C326.661 265.122 326.315 263.519 325.625 262.221C324.934 260.923 324.009 260.274 322.849 260.274C322.655 260.274 322.462 260.315 322.268 260.398C322.075 260.481 321.813 260.633 321.481 260.854C321.15 261.075 320.873 261.489 320.652 262.097C320.431 262.705 320.252 263.437 320.114 264.293C320.086 264.624 320.072 265.536 320.072 267.028V267.939C320.072 271.862 321.039 273.823 322.973 273.823H323.139Z" fill="white"/>
</g>
</g>
</g>
<g id="Group_36">
<g id="Group_37">
<g id="Group_38">
<path id="Vector_37" d="M73.5221 311.903C72.7762 311.903 72.1961 311.669 71.7818 311.199C71.3674 310.729 71.1464 310.122 71.1188 309.376C71.1188 307.856 71.7818 306.503 73.1077 305.315C74.4337 304.127 76.0359 303.533 77.9144 303.533C78.8812 303.533 79.489 303.547 79.7376 303.575C81.7818 303.906 83.3425 304.638 84.4199 305.771C85.4972 306.903 86.0497 308.133 86.0773 309.459C86.0773 310.895 85.6077 312.29 84.6685 313.644C83.7293 314.997 82.4309 315.978 80.7735 316.586L80.6492 316.669C80.6492 316.696 80.7735 316.738 81.0221 316.793C81.2707 316.848 81.6713 316.972 82.2238 317.166C82.7762 317.359 83.3011 317.649 83.7983 318.036C86.0635 319.5 87.1961 321.434 87.1961 323.837C87.1961 326.019 86.3398 327.926 84.6271 329.555C82.9144 331.185 80.7459 332 78.1215 332C75.9116 332 74.0055 331.406 72.4033 330.218C70.8011 329.031 70 327.525 70 325.702C70 324.928 70.2486 324.307 70.7459 323.837C71.2431 323.368 71.8646 323.119 72.6105 323.091C73.384 323.091 74.0193 323.34 74.5166 323.837C75.0138 324.334 75.2624 324.956 75.2624 325.702C75.2624 326.006 75.221 326.282 75.1381 326.531C75.0552 326.779 74.9586 327 74.8481 327.193C74.7376 327.387 74.5856 327.553 74.3923 327.691C74.1989 327.829 74.0331 327.939 73.895 328.022C73.7569 328.105 73.6188 328.16 73.4807 328.188C73.3425 328.216 73.232 328.257 73.1492 328.312L72.9834 328.354C74.3923 329.597 76.105 330.218 78.1215 330.218C79.6409 330.218 80.7873 329.486 81.5608 328.022C82.0304 327.111 82.2652 325.716 82.2652 323.837V323.008C82.2652 320.384 81.3812 318.63 79.6133 317.746C79.1989 317.58 78.3564 317.484 77.0856 317.456L75.3453 317.414L75.221 317.332C75.1657 317.249 75.1381 317.028 75.1381 316.669C75.1381 316.171 75.2486 315.923 75.4696 315.923C76.2431 315.923 77.0442 315.854 77.8729 315.716C78.8122 315.577 79.6685 314.997 80.442 313.975C81.2155 312.953 81.6022 311.406 81.6022 309.334V309.003C81.6022 307.428 81.1188 306.337 80.1519 305.729C79.5442 305.343 78.895 305.149 78.2044 305.149C77.3204 305.149 76.5055 305.301 75.7597 305.605C75.0138 305.909 74.489 306.227 74.1851 306.558C73.8812 306.89 73.7293 307.055 73.7293 307.055H73.8536C73.9365 307.083 74.047 307.111 74.1851 307.138C74.3232 307.166 74.4613 307.235 74.5994 307.345C74.7376 307.456 74.9033 307.553 75.0967 307.635C75.2901 307.718 75.4282 307.87 75.511 308.091C75.5939 308.312 75.7044 308.519 75.8425 308.713C75.9807 308.906 76.0221 309.182 75.9669 309.542C75.9669 310.149 75.7735 310.688 75.3867 311.158C75 311.627 74.3785 311.876 73.5221 311.903Z" fill="white"/>
<path id="Vector_38" d="M92.9586 306.848C94.5055 304.611 96.6188 303.492 99.2983 303.492C100.624 303.492 101.95 303.851 103.276 304.569C104.602 305.287 105.68 306.558 106.508 308.381C107.53 310.674 108.041 313.823 108.041 317.829C108.041 322.111 107.448 325.384 106.26 327.649C105.707 328.81 104.948 329.735 103.981 330.426C103.014 331.116 102.171 331.544 101.453 331.71C100.735 331.876 100.03 331.972 99.3398 332C98.6215 332 97.9033 331.917 97.1851 331.752C96.4668 331.586 95.6243 331.144 94.6575 330.426C93.6906 329.707 92.9309 328.782 92.3784 327.649C91.1906 325.384 90.5967 322.111 90.5967 317.829C90.5967 313.022 91.384 309.362 92.9586 306.848ZM102.282 306.351C101.453 305.467 100.472 305.025 99.3398 305.025C98.1796 305.025 97.1851 305.467 96.3563 306.351C95.6657 307.069 95.2099 308.064 94.9889 309.334C94.768 310.605 94.6575 313.257 94.6575 317.29C94.6575 321.655 94.768 324.528 94.9889 325.909C95.2099 327.29 95.7072 328.381 96.4807 329.182C97.2541 330.011 98.2072 330.426 99.3398 330.426C100.445 330.426 101.384 330.011 102.157 329.182C102.959 328.354 103.456 327.193 103.649 325.702C103.843 324.21 103.953 321.406 103.981 317.29C103.981 313.285 103.87 310.647 103.649 309.376C103.428 308.105 102.972 307.097 102.282 306.351Z" fill="white"/>
</g>
</g>
<g id="Group_39">
<g id="Group_40">
<path id="Vector_39" d="M153.456 321.268C153.456 321.268 153.456 321.089 153.456 320.729C153.456 320.37 153.649 320.094 154.036 319.901H185.735C182.53 317.497 180.555 314.417 179.809 310.66C179.809 310.633 179.809 310.591 179.809 310.536C179.809 310.481 179.795 310.439 179.768 310.412C179.768 310.08 180.003 309.915 180.472 309.915H180.596C180.845 309.915 181.011 309.928 181.094 309.956C181.177 309.984 181.259 310.039 181.342 310.122C181.425 310.205 181.467 310.329 181.467 310.495C181.467 310.66 181.508 310.881 181.591 311.158C181.674 311.434 181.784 311.779 181.922 312.194C182.53 314.044 183.538 315.702 184.947 317.166C186.356 318.63 188 319.666 189.878 320.274C190.127 320.357 190.251 320.508 190.251 320.729C190.251 320.895 190.182 321.02 190.044 321.102C189.906 321.185 189.574 321.323 189.049 321.517C188.525 321.71 188 321.973 187.475 322.304C186.342 323.022 185.362 323.851 184.533 324.79C183.704 325.729 183.083 326.655 182.668 327.566C182.254 328.478 181.964 329.169 181.798 329.638C181.632 330.108 181.522 330.536 181.467 330.923C181.411 331.199 181.342 331.365 181.259 331.42C181.177 331.475 180.956 331.517 180.596 331.544C180.044 331.544 179.768 331.392 179.768 331.089C179.768 330.895 179.837 330.55 179.975 330.053C180.859 326.572 182.779 323.741 185.735 321.558H154.036C153.649 321.365 153.456 321.089 153.456 320.729V321.268Z" fill="white"/>
</g>
</g>
<g id="Group_41">
<g id="Group_42">
<path id="Vector_40" d="M272.647 319.113C272.84 317.953 273.586 316.613 274.884 315.094C276.183 313.575 277.785 312.801 279.691 312.774C280.658 312.774 281.542 313.022 282.343 313.52C283.144 314.017 283.738 314.638 284.125 315.384C285.285 313.644 286.68 312.774 288.31 312.774C289.332 312.774 290.216 313.078 290.962 313.685C291.708 314.293 292.094 315.108 292.122 316.13C292.122 316.931 291.929 317.58 291.542 318.078C291.155 318.575 290.782 318.879 290.423 318.989C290.064 319.1 289.746 319.155 289.47 319.155C288.945 319.155 288.517 319.003 288.185 318.699C287.854 318.395 287.688 317.995 287.688 317.497C287.688 316.227 288.379 315.357 289.76 314.887C289.456 314.528 288.904 314.348 288.103 314.348C287.743 314.348 287.481 314.376 287.315 314.431C286.266 314.873 285.492 315.785 284.995 317.166C283.337 323.271 282.509 326.834 282.509 327.857C282.509 328.63 282.73 329.182 283.172 329.514C283.614 329.845 284.097 330.011 284.622 330.011C285.644 330.011 286.652 329.555 287.647 328.644C288.641 327.732 289.318 326.613 289.677 325.287C289.76 325.011 289.843 324.859 289.926 324.832C290.009 324.804 290.23 324.776 290.589 324.749H290.755C291.169 324.749 291.376 324.859 291.376 325.08C291.376 325.108 291.348 325.26 291.293 325.536C290.851 327.111 289.995 328.506 288.724 329.721C287.453 330.937 285.976 331.544 284.29 331.544C282.357 331.544 280.893 330.674 279.898 328.934C278.766 330.647 277.467 331.503 276.003 331.503H275.755C274.401 331.503 273.434 331.144 272.854 330.426C272.274 329.707 271.97 328.948 271.942 328.147C271.942 327.263 272.205 326.544 272.73 325.992C273.255 325.439 273.876 325.163 274.594 325.163C275.782 325.163 276.376 325.743 276.376 326.903C276.376 327.456 276.21 327.939 275.879 328.354C275.547 328.768 275.23 329.044 274.926 329.182C274.622 329.321 274.442 329.39 274.387 329.39L274.263 329.431C274.263 329.459 274.346 329.514 274.511 329.597C274.677 329.68 274.898 329.776 275.174 329.887C275.451 329.997 275.713 330.039 275.962 330.011C276.956 330.011 277.813 329.39 278.531 328.147C278.779 327.705 279.097 326.765 279.484 325.329C279.871 323.892 280.257 322.401 280.644 320.854C281.031 319.307 281.252 318.395 281.307 318.119C281.445 317.373 281.514 316.834 281.514 316.503C281.514 315.729 281.307 315.177 280.893 314.845C280.478 314.514 280.009 314.348 279.484 314.348C278.379 314.348 277.343 314.79 276.376 315.674C275.409 316.558 274.732 317.691 274.346 319.072C274.29 319.321 274.221 319.459 274.139 319.486C274.056 319.514 273.835 319.542 273.476 319.569H272.895C272.73 319.403 272.647 319.252 272.647 319.113Z" fill="white"/>
</g>
</g>
</g>
</g>
<g id="Group 147">
<g id="Group_43">
<path id="Vector_41" d="M422.704 288.633C422.898 287.472 423.644 286.133 424.942 284.613C426.24 283.094 427.843 282.321 429.749 282.293C430.715 282.293 431.599 282.542 432.401 283.039C433.202 283.536 433.796 284.158 434.182 284.903C435.343 283.163 436.738 282.293 438.367 282.293C439.39 282.293 440.273 282.597 441.019 283.205C441.765 283.812 442.152 284.627 442.18 285.649C442.18 286.45 441.986 287.1 441.599 287.597C441.213 288.094 440.84 288.398 440.481 288.508C440.122 288.619 439.804 288.674 439.528 288.674C439.003 288.674 438.575 288.522 438.243 288.218C437.912 287.914 437.746 287.514 437.746 287.017C437.746 285.746 438.436 284.876 439.818 284.406C439.514 284.047 438.961 283.868 438.16 283.868C437.801 283.868 437.539 283.895 437.373 283.95C436.323 284.392 435.55 285.304 435.052 286.685C433.395 292.79 432.566 296.354 432.566 297.376C432.566 298.149 432.787 298.702 433.229 299.033C433.671 299.365 434.155 299.531 434.68 299.531C435.702 299.531 436.71 299.075 437.704 298.163C438.699 297.252 439.376 296.133 439.735 294.807C439.818 294.531 439.901 294.379 439.983 294.351C440.066 294.323 440.287 294.296 440.646 294.268H440.812C441.227 294.268 441.434 294.379 441.434 294.6C441.434 294.627 441.406 294.779 441.351 295.055C440.909 296.63 440.052 298.025 438.782 299.24C437.511 300.456 436.033 301.064 434.348 301.064C432.414 301.064 430.95 300.193 429.956 298.453C428.823 300.166 427.525 301.022 426.061 301.022H425.812C424.459 301.022 423.492 300.663 422.912 299.945C422.331 299.227 422.028 298.467 422 297.666C422 296.782 422.262 296.064 422.787 295.511C423.312 294.959 423.934 294.682 424.652 294.682C425.84 294.682 426.434 295.263 426.434 296.423C426.434 296.975 426.268 297.459 425.936 297.873C425.605 298.287 425.287 298.564 424.983 298.702C424.68 298.84 424.5 298.909 424.445 298.909L424.32 298.95C424.32 298.978 424.403 299.033 424.569 299.116C424.735 299.199 424.956 299.296 425.232 299.406C425.508 299.517 425.771 299.558 426.019 299.531C427.014 299.531 427.87 298.909 428.588 297.666C428.837 297.224 429.155 296.285 429.541 294.848C429.928 293.412 430.315 291.92 430.702 290.373C431.088 288.826 431.309 287.914 431.365 287.638C431.503 286.892 431.572 286.354 431.572 286.022C431.572 285.249 431.365 284.696 430.95 284.365C430.536 284.033 430.066 283.868 429.541 283.868C428.436 283.868 427.401 284.31 426.434 285.193C425.467 286.077 424.79 287.21 424.403 288.591C424.348 288.84 424.279 288.978 424.196 289.006C424.113 289.033 423.892 289.061 423.533 289.089H422.953C422.787 288.923 422.704 288.771 422.704 288.633Z" fill="white"/>
</g>
<g id="Group_44">
<path id="Vector_42" d="M458.083 286.229C458.083 285.87 458.276 285.594 458.663 285.401H485.058C485.473 285.622 485.68 285.898 485.68 286.229C485.68 286.533 485.486 286.796 485.1 287.017L471.923 287.058H458.746C458.304 286.92 458.083 286.644 458.083 286.229ZM458.083 294.268C458.083 293.854 458.304 293.577 458.746 293.439H485.1C485.486 293.716 485.68 293.992 485.68 294.268C485.68 294.627 485.473 294.903 485.058 295.097H458.663C458.276 294.903 458.083 294.627 458.083 294.268Z" fill="white"/>
</g>
<g id="Group_45">
<g id="Group_46">
<g id="Group_47">
<path id="Vector_43" d="M513.888 253.412C513.142 253.412 512.562 253.177 512.148 252.707C511.734 252.238 511.513 251.63 511.485 250.884C511.485 249.365 512.148 248.011 513.474 246.823C514.8 245.635 516.402 245.042 518.281 245.042C519.247 245.042 519.855 245.055 520.104 245.083C522.148 245.414 523.709 246.147 524.786 247.279C525.863 248.412 526.416 249.641 526.444 250.967C526.444 252.403 525.974 253.798 525.035 255.152C524.095 256.506 522.797 257.486 521.14 258.094L521.015 258.177C521.015 258.205 521.14 258.246 521.388 258.301C521.637 258.356 522.037 258.481 522.59 258.674C523.142 258.868 523.667 259.158 524.165 259.544C526.43 261.008 527.562 262.942 527.562 265.345C527.562 267.528 526.706 269.434 524.993 271.064C523.281 272.694 521.112 273.508 518.488 273.508C516.278 273.508 514.372 272.915 512.77 271.727C511.167 270.539 510.366 269.033 510.366 267.21C510.366 266.437 510.615 265.815 511.112 265.345C511.609 264.876 512.231 264.627 512.977 264.6C513.75 264.6 514.386 264.848 514.883 265.345C515.38 265.843 515.629 266.464 515.629 267.21C515.629 267.514 515.587 267.79 515.504 268.039C515.421 268.287 515.325 268.508 515.214 268.702C515.104 268.895 514.952 269.061 514.758 269.199C514.565 269.337 514.399 269.448 514.261 269.531C514.123 269.613 513.985 269.669 513.847 269.696C513.709 269.724 513.598 269.765 513.515 269.821L513.35 269.862C514.758 271.105 516.471 271.727 518.488 271.727C520.007 271.727 521.154 270.995 521.927 269.531C522.397 268.619 522.631 267.224 522.631 265.345V264.517C522.631 261.892 521.747 260.138 519.979 259.254C519.565 259.089 518.723 258.992 517.452 258.964L515.712 258.923L515.587 258.84C515.532 258.757 515.504 258.536 515.504 258.177C515.504 257.68 515.615 257.431 515.836 257.431C516.609 257.431 517.41 257.362 518.239 257.224C519.178 257.086 520.035 256.506 520.808 255.484C521.582 254.461 521.968 252.914 521.968 250.843V250.511C521.968 248.937 521.485 247.845 520.518 247.238C519.91 246.851 519.261 246.658 518.571 246.658C517.687 246.658 516.872 246.81 516.126 247.113C515.38 247.417 514.855 247.735 514.551 248.066C514.247 248.398 514.095 248.564 514.095 248.564H514.22C514.303 248.591 514.413 248.619 514.551 248.647C514.689 248.674 514.828 248.743 514.966 248.854C515.104 248.964 515.27 249.061 515.463 249.144C515.656 249.227 515.794 249.379 515.877 249.6C515.96 249.821 516.071 250.028 516.209 250.221C516.347 250.414 516.388 250.691 516.333 251.05C516.333 251.658 516.14 252.196 515.753 252.666C515.366 253.135 514.745 253.384 513.888 253.412Z" fill="white"/>
<path id="Vector_44" d="M533.322 248.356C534.869 246.119 536.982 245 539.662 245C540.988 245 542.314 245.359 543.64 246.077C544.965 246.796 546.043 248.066 546.872 249.89C547.894 252.182 548.405 255.332 548.405 259.337C548.405 263.619 547.811 266.892 546.623 269.158C546.07 270.318 545.311 271.243 544.344 271.934C543.377 272.624 542.535 273.053 541.816 273.218C541.098 273.384 540.394 273.481 539.703 273.508C538.985 273.508 538.267 273.426 537.548 273.26C536.83 273.094 535.988 272.652 535.021 271.934C534.054 271.216 533.294 270.29 532.742 269.158C531.554 266.892 530.96 263.619 530.96 259.337C530.96 254.531 531.747 250.87 533.322 248.356ZM542.645 247.859C541.816 246.975 540.836 246.533 539.703 246.533C538.543 246.533 537.548 246.975 536.72 247.859C536.029 248.577 535.573 249.572 535.352 250.843C535.131 252.113 535.021 254.765 535.021 258.798C535.021 263.163 535.131 266.036 535.352 267.417C535.573 268.798 536.07 269.89 536.844 270.691C537.617 271.519 538.57 271.934 539.703 271.934C540.808 271.934 541.747 271.519 542.521 270.691C543.322 269.862 543.819 268.702 544.012 267.21C544.206 265.718 544.316 262.915 544.344 258.798C544.344 254.793 544.233 252.155 544.012 250.884C543.791 249.613 543.336 248.605 542.645 247.859Z" fill="white"/>
</g>
<g id="Group_48">
<path id="Vector_45" d="M585.374 271.395C585.374 271.948 585.084 272.224 584.504 272.224C584.366 272.224 584.062 272.003 583.592 271.561C583.123 271.119 581.824 269.834 579.697 267.707L575.388 263.398L571.037 267.749C568.109 270.622 566.603 272.086 566.521 272.141C566.41 272.196 566.313 272.224 566.231 272.224C566.01 272.224 565.816 272.141 565.65 271.975C565.485 271.81 565.388 271.616 565.36 271.395C565.36 271.202 565.554 270.898 565.94 270.484C566.327 270.069 567.626 268.757 569.835 266.547L574.145 262.238L569.835 257.928C567.598 255.691 566.3 254.379 565.94 253.992C565.581 253.605 565.388 253.301 565.36 253.08C565.36 252.832 565.443 252.638 565.609 252.5C565.775 252.362 565.982 252.293 566.231 252.293C566.369 252.293 566.465 252.307 566.521 252.334C566.603 252.39 568.109 253.854 571.037 256.727L575.388 261.077L579.697 256.768C581.824 254.641 583.123 253.356 583.592 252.914C584.062 252.472 584.366 252.252 584.504 252.252C585.084 252.252 585.374 252.528 585.374 253.08C585.374 253.274 585.236 253.522 584.96 253.826C584.684 254.13 583.33 255.484 580.899 257.887L576.59 262.238L580.899 266.589C583.219 268.909 584.545 270.249 584.877 270.608C585.208 270.967 585.374 271.229 585.374 271.395Z" fill="white"/>
</g>
<g id="Group_49">
<path id="Vector_46" d="M609.54 248.647L609.001 248.854C608.615 248.992 608.062 249.13 607.344 249.268C606.626 249.406 605.825 249.503 604.941 249.558H604.153V247.652H604.941C606.239 247.597 607.441 247.39 608.546 247.031C609.651 246.671 610.424 246.34 610.866 246.036C611.308 245.732 611.695 245.428 612.026 245.124C612.081 245.042 612.247 245 612.523 245C612.772 245 613.007 245.083 613.228 245.249V257.638L613.269 270.069C613.463 270.263 613.628 270.387 613.767 270.442C613.905 270.497 614.236 270.553 614.761 270.608C615.286 270.663 616.142 270.691 617.33 270.691H618.407V272.597H617.952C617.372 272.514 615.175 272.473 611.363 272.473C607.606 272.473 605.438 272.514 604.858 272.597H604.361V270.691H605.438C606.046 270.691 606.57 270.691 607.012 270.691C607.454 270.691 607.8 270.677 608.048 270.649C608.297 270.622 608.518 270.58 608.711 270.525C608.905 270.47 609.015 270.442 609.043 270.442C609.07 270.442 609.153 270.373 609.291 270.235C609.43 270.097 609.512 270.042 609.54 270.069V248.647Z" fill="white"/>
<path id="Vector_47" d="M625.411 248.356C626.958 246.119 629.071 245 631.75 245C633.076 245 634.402 245.359 635.728 246.077C637.054 246.796 638.132 248.066 638.96 249.89C639.983 252.182 640.494 255.332 640.494 259.337C640.494 263.619 639.9 266.892 638.712 269.158C638.159 270.318 637.4 271.243 636.433 271.934C635.466 272.624 634.623 273.053 633.905 273.218C633.187 273.384 632.483 273.481 631.792 273.508C631.074 273.508 630.355 273.426 629.637 273.26C628.919 273.094 628.076 272.652 627.11 271.934C626.143 271.216 625.383 270.29 624.831 269.158C623.643 266.892 623.049 263.619 623.049 259.337C623.049 254.531 623.836 250.87 625.411 248.356ZM634.734 247.859C633.905 246.975 632.925 246.533 631.792 246.533C630.632 246.533 629.637 246.975 628.808 247.859C628.118 248.577 627.662 249.572 627.441 250.843C627.22 252.113 627.11 254.765 627.11 258.798C627.11 263.163 627.22 266.036 627.441 267.417C627.662 268.798 628.159 269.89 628.933 270.691C629.706 271.519 630.659 271.934 631.792 271.934C632.897 271.934 633.836 271.519 634.61 270.691C635.411 269.862 635.908 268.702 636.101 267.21C636.295 265.718 636.405 262.915 636.433 258.798C636.433 254.793 636.322 252.155 636.101 250.884C635.88 249.613 635.425 248.605 634.734 247.859Z" fill="white"/>
<path id="Vector_48" d="M646.128 248.356C647.675 246.119 649.788 245 652.468 245C653.794 245 655.12 245.359 656.446 246.077C657.772 246.796 658.849 248.066 659.678 249.89C660.7 252.182 661.211 255.332 661.211 259.337C661.211 263.619 660.617 266.892 659.429 269.158C658.877 270.318 658.117 271.243 657.15 271.934C656.183 272.624 655.341 273.053 654.622 273.218C653.904 273.384 653.2 273.481 652.509 273.508C651.791 273.508 651.073 273.426 650.355 273.26C649.636 273.094 648.794 272.652 647.827 271.934C646.86 271.216 646.1 270.29 645.548 269.158C644.36 266.892 643.766 263.619 643.766 259.337C643.766 254.531 644.553 250.87 646.128 248.356ZM655.451 247.859C654.622 246.975 653.642 246.533 652.509 246.533C651.349 246.533 650.355 246.975 649.526 247.859C648.835 248.577 648.379 249.572 648.158 250.843C647.937 252.113 647.827 254.765 647.827 258.798C647.827 263.163 647.937 266.036 648.158 267.417C648.379 268.798 648.877 269.89 649.65 270.691C650.424 271.519 651.377 271.934 652.509 271.934C653.614 271.934 654.553 271.519 655.327 270.691C656.128 269.862 656.625 268.702 656.819 267.21C657.012 265.718 657.122 262.915 657.15 258.798C657.15 254.793 657.04 252.155 656.819 250.884C656.598 249.613 656.142 248.605 655.451 247.859Z" fill="white"/>
</g>
</g>
<g id="Group_50">
<path id="Vector_49" d="M566.77 316.064C566.77 311.561 567.888 307.997 570.126 305.373C572.364 302.749 574.85 301.436 577.585 301.436C579.491 301.436 580.858 301.934 581.687 302.928C582.516 303.923 582.93 305.028 582.93 306.243C582.93 306.934 582.737 307.486 582.35 307.901C581.963 308.315 581.424 308.522 580.734 308.522C580.098 308.522 579.574 308.329 579.159 307.942C578.745 307.555 578.538 307.017 578.538 306.326C578.538 305.111 579.187 304.378 580.485 304.13C579.877 303.522 579.021 303.177 577.916 303.094C575.955 303.094 574.339 303.923 573.068 305.58C571.77 307.403 571.121 310.193 571.121 313.95L571.162 314.116C571.3 313.95 571.411 313.771 571.493 313.577C572.626 311.92 574.104 311.091 575.927 311.091H576.093C577.364 311.091 578.482 311.354 579.449 311.878C580.112 312.265 580.775 312.818 581.438 313.536C582.101 314.254 582.64 315.041 583.054 315.898C583.634 317.251 583.924 318.729 583.924 320.332V321.077C583.924 321.713 583.855 322.307 583.717 322.859C583.413 324.489 582.529 326.077 581.065 327.624C579.601 329.171 577.75 329.945 575.513 329.945C574.739 329.945 573.993 329.834 573.275 329.613C572.557 329.392 571.783 328.978 570.955 328.37C570.126 327.762 569.422 326.948 568.842 325.925C568.261 324.903 567.764 323.564 567.35 321.906C566.935 320.249 566.742 318.301 566.77 316.064ZM575.679 312.583C574.85 312.583 574.132 312.818 573.524 313.287C572.916 313.757 572.446 314.378 572.115 315.152C571.783 315.925 571.549 316.713 571.411 317.514C571.272 318.315 571.19 319.171 571.162 320.083C571.162 322.376 571.328 324.019 571.659 325.014C571.991 326.008 572.516 326.809 573.234 327.417C573.897 327.914 574.629 328.163 575.43 328.163C576.839 328.163 577.916 327.638 578.662 326.588C579.021 326.091 579.27 325.47 579.408 324.724C579.546 323.978 579.615 322.528 579.615 320.373C579.615 318.163 579.546 316.685 579.408 315.939C579.27 315.193 579.021 314.572 578.662 314.075C577.916 313.08 576.922 312.583 575.679 312.583Z" fill="white"/>
<path id="Vector_50" d="M589.726 304.793C591.273 302.555 593.386 301.436 596.065 301.436C597.391 301.436 598.717 301.796 600.043 302.514C601.369 303.232 602.447 304.503 603.275 306.326C604.297 308.619 604.809 311.768 604.809 315.773C604.809 320.055 604.215 323.329 603.027 325.594C602.474 326.754 601.715 327.68 600.748 328.37C599.781 329.061 598.938 329.489 598.22 329.655C597.502 329.82 596.797 329.917 596.107 329.945C595.389 329.945 594.67 329.862 593.952 329.696C593.234 329.53 592.391 329.088 591.425 328.37C590.458 327.652 589.698 326.727 589.146 325.594C587.958 323.329 587.364 320.055 587.364 315.773C587.364 310.967 588.151 307.307 589.726 304.793ZM599.049 304.296C598.22 303.412 597.239 302.97 596.107 302.97C594.947 302.97 593.952 303.412 593.123 304.296C592.433 305.014 591.977 306.008 591.756 307.279C591.535 308.55 591.425 311.202 591.425 315.235C591.425 319.599 591.535 322.472 591.756 323.854C591.977 325.235 592.474 326.326 593.248 327.127C594.021 327.956 594.974 328.37 596.107 328.37C597.212 328.37 598.151 327.956 598.925 327.127C599.726 326.298 600.223 325.138 600.416 323.646C600.61 322.155 600.72 319.351 600.748 315.235C600.748 311.229 600.637 308.591 600.416 307.32C600.195 306.05 599.739 305.041 599.049 304.296Z" fill="white"/>
</g>
<path id="Vector_51" d="M667.013 291.492H504.482V289.006H667.013V291.492Z" fill="white"/>
</g>
<g id="Group_51">
<path id="Vector_52" d="M685.817 286.229C685.817 285.87 686.011 285.594 686.397 285.401H712.793C713.207 285.622 713.414 285.898 713.414 286.229C713.414 286.533 713.221 286.796 712.834 287.017L699.657 287.058H686.48C686.038 286.92 685.817 286.644 685.817 286.229ZM685.817 294.268C685.817 293.854 686.038 293.577 686.48 293.439H712.834C713.221 293.716 713.414 293.992 713.414 294.268C713.414 294.627 713.207 294.903 712.793 295.097H686.397C686.011 294.903 685.817 294.627 685.817 294.268Z" fill="white"/>
</g>
<g id="Group_52">
<path id="Vector_53" d="M734.041 294.102C734.041 294.765 733.82 295.318 733.378 295.76C732.936 296.202 732.397 296.423 731.762 296.423H731.472C732.743 298.605 734.428 299.696 736.527 299.696C738.461 299.696 739.87 298.867 740.754 297.21C741.279 296.298 741.541 294.53 741.541 291.906C741.541 289.061 741.168 287.141 740.422 286.146C739.704 285.235 738.903 284.779 738.019 284.779H737.77C735.616 284.779 733.986 285.718 732.881 287.597C732.77 287.79 732.674 287.901 732.591 287.928C732.508 287.956 732.301 287.983 731.969 288.011C731.5 288.011 731.237 287.928 731.182 287.763C731.127 287.652 731.099 285.235 731.099 280.511V275.166C731.099 273.785 731.168 273.094 731.306 273.094C731.362 273.039 731.417 273.011 731.472 273.011C731.5 273.011 731.79 273.122 732.342 273.343C732.895 273.564 733.654 273.785 734.621 274.006C735.588 274.227 736.624 274.337 737.729 274.337C739.69 274.337 741.569 273.95 743.364 273.177C743.585 273.066 743.765 273.011 743.903 273.011C744.124 273.011 744.235 273.26 744.235 273.757V274.296C741.969 276.975 739.138 278.315 735.74 278.315C734.884 278.315 734.11 278.232 733.42 278.066L733.005 277.983V285.111C733.53 284.724 733.944 284.42 734.248 284.199C734.552 283.978 735.049 283.757 735.74 283.536C736.431 283.315 737.135 283.204 737.853 283.204C740.091 283.204 741.983 284.102 743.53 285.898C745.077 287.693 745.851 289.821 745.851 292.279C745.851 294.821 744.967 296.989 743.199 298.785C741.431 300.58 739.276 301.492 736.735 301.519C734.497 301.519 732.701 300.774 731.348 299.282C729.994 297.79 729.317 296.105 729.317 294.227C729.317 293.564 729.469 293.039 729.773 292.652C730.077 292.265 730.395 292.017 730.726 291.906C731.058 291.796 731.375 291.74 731.679 291.74C732.37 291.74 732.936 291.975 733.378 292.445C733.82 292.914 734.041 293.467 734.041 294.102Z" fill="white"/>
<path id="Vector_54" d="M751.941 276.367C753.488 274.13 755.601 273.011 758.281 273.011C759.607 273.011 760.933 273.37 762.259 274.088C763.585 274.807 764.662 276.077 765.491 277.901C766.513 280.193 767.024 283.343 767.024 287.348C767.024 291.63 766.43 294.903 765.242 297.169C764.69 298.329 763.93 299.254 762.963 299.945C761.996 300.635 761.154 301.064 760.435 301.229C759.717 301.395 759.013 301.492 758.322 301.519C757.604 301.519 756.886 301.437 756.167 301.271C755.449 301.105 754.607 300.663 753.64 299.945C752.673 299.227 751.913 298.301 751.361 297.169C750.173 294.903 749.579 291.63 749.579 287.348C749.579 282.542 750.366 278.881 751.941 276.367ZM761.264 275.87C760.435 274.986 759.455 274.544 758.322 274.544C757.162 274.544 756.167 274.986 755.339 275.87C754.648 276.588 754.192 277.583 753.971 278.854C753.75 280.124 753.64 282.776 753.64 286.809C753.64 291.174 753.75 294.047 753.971 295.428C754.192 296.809 754.69 297.901 755.463 298.702C756.237 299.53 757.19 299.945 758.322 299.945C759.427 299.945 760.366 299.53 761.14 298.702C761.941 297.873 762.438 296.713 762.632 295.221C762.825 293.729 762.935 290.925 762.963 286.809C762.963 282.804 762.853 280.166 762.632 278.895C762.411 277.624 761.955 276.616 761.264 275.87Z" fill="white"/>
</g>
<g id="Group_53">
<path id="Vector_55" d="M787.949 275.539C786.927 275.539 785.947 275.414 785.007 275.166C784.068 274.917 783.322 274.668 782.77 274.42C782.217 274.171 781.927 274.047 781.9 274.047C782.259 274.959 782.438 276.243 782.438 277.901C782.438 280.387 781.9 282.389 780.822 283.909C779.745 285.428 778.488 286.202 777.052 286.229C775.477 286.229 774.082 285.47 772.867 283.95C771.651 282.431 771.03 280.414 771.002 277.901C771.002 275.442 771.623 273.439 772.867 271.892C774.11 270.345 775.505 269.558 777.052 269.53C778.129 269.53 779.096 269.959 779.952 270.815C782.356 272.942 785.007 274.006 787.908 274.006C791.112 274.006 793.682 272.762 795.615 270.276C795.947 269.834 796.195 269.599 796.361 269.572C796.416 269.544 796.485 269.53 796.568 269.53C796.817 269.53 797.024 269.627 797.19 269.82C797.356 270.014 797.425 270.249 797.397 270.525C783.17 291.878 775.947 302.624 775.726 302.762C775.615 302.873 775.477 302.928 775.311 302.928C774.952 302.928 774.704 302.776 774.565 302.472C774.427 302.224 774.427 301.975 774.565 301.727C774.593 301.644 777.646 297.072 783.723 288.011C786.651 283.646 788.889 280.304 790.436 277.983C791.983 275.663 792.756 274.503 792.756 274.503C791.292 275.193 789.69 275.539 787.949 275.539ZM777.259 284.655C778.032 284.655 778.806 284.075 779.579 282.914C780.353 281.754 780.753 280.083 780.781 277.901C780.781 275.994 780.436 274.392 779.745 273.094C779.054 271.796 778.129 271.133 776.969 271.105C776.775 271.105 776.582 271.146 776.389 271.229C776.195 271.312 775.933 271.464 775.601 271.685C775.27 271.906 774.994 272.32 774.773 272.928C774.552 273.536 774.372 274.268 774.234 275.124C774.179 275.677 774.151 276.602 774.151 277.901V278.771C774.151 281.285 774.607 282.997 775.519 283.909C776.016 284.406 776.541 284.655 777.093 284.655H777.259ZM789.4 294.558C789.4 292.127 790.007 290.138 791.223 288.591C792.438 287.044 793.861 286.257 795.491 286.229C796.927 286.229 798.17 286.989 799.22 288.508C800.27 290.028 800.809 292.044 800.836 294.558C800.864 297.072 800.325 299.088 799.22 300.608C798.115 302.127 796.858 302.901 795.449 302.928C793.903 302.928 792.507 302.155 791.264 300.608C790.021 299.061 789.4 297.044 789.4 294.558ZM795.657 301.354C796.43 301.354 797.204 300.773 797.977 299.613C798.751 298.453 799.151 296.768 799.179 294.558C799.179 292.652 798.833 291.05 798.143 289.751C797.452 288.453 796.527 287.804 795.367 287.804C795.173 287.804 794.98 287.845 794.786 287.928C794.593 288.011 794.331 288.163 793.999 288.384C793.668 288.605 793.391 289.019 793.17 289.627C792.949 290.235 792.77 290.967 792.632 291.823C792.604 292.155 792.59 293.066 792.59 294.558V295.47C792.59 299.392 793.557 301.354 795.491 301.354H795.657Z" fill="white"/>
</g>
</g>
</g>
</g>
</g>
</svg>
