<svg viewBox="0 0 446 224" fill="none" xmlns="http://www.w3.org/2000/svg">
<path d="M90.2881 7.01737L89.7577 7.22136C89.3769 7.35735 88.833 7.49334 88.1258 7.62934C87.4186 7.76533 86.6299 7.86053 85.7595 7.91492H84.9844V6.03822H85.7595C87.0379 5.98382 88.221 5.77983 89.3089 5.42625C90.3969 5.07267 91.1584 4.74629 91.5936 4.44711C92.0288 4.14792 92.4096 3.84874 92.736 3.54955C92.7904 3.46796 92.9536 3.42716 93.2255 3.42716C93.4703 3.42716 93.7015 3.50876 93.9191 3.67195V15.8705L93.9599 28.1098C94.1503 28.3002 94.3135 28.4226 94.4495 28.477C94.5855 28.5314 94.9118 28.5858 95.4286 28.6402C95.9454 28.6946 96.7885 28.7218 97.9581 28.7218H99.0188V30.5985H98.5701C97.9989 30.5169 95.8366 30.4761 92.0832 30.4761C88.3842 30.4761 86.2491 30.5169 85.6779 30.5985H85.1884V28.7218H86.2491C86.8475 28.7218 87.3642 28.7218 87.7994 28.7218C88.2346 28.7218 88.5746 28.7082 88.8194 28.681C89.0642 28.6538 89.2817 28.613 89.4721 28.5586C89.6625 28.5042 89.7713 28.477 89.7985 28.477C89.8257 28.477 89.9073 28.409 90.0433 28.273C90.1793 28.137 90.2609 28.0826 90.2881 28.1098V7.01737Z" fill="white"/>
<path d="M105.911 6.73181C107.435 4.52873 109.515 3.42719 112.153 3.42719C113.459 3.42719 114.765 3.78077 116.07 4.48793C117.376 5.1951 118.436 6.44623 119.252 8.24133C120.259 10.4988 120.762 13.5994 120.762 17.5432C120.762 21.759 120.177 24.982 119.008 27.2123C118.464 28.3547 117.716 29.2658 116.764 29.9458C115.812 30.6257 114.982 31.0473 114.275 31.2105C113.568 31.3737 112.874 31.4689 112.194 31.4961C111.487 31.4961 110.78 31.4145 110.073 31.2513C109.366 31.0881 108.536 30.6529 107.584 29.9458C106.632 29.2386 105.884 28.3275 105.34 27.2123C104.171 24.982 103.586 21.759 103.586 17.5432C103.586 12.8107 104.361 9.20688 105.911 6.73181ZM115.091 6.24224C114.275 5.37189 113.309 4.93671 112.194 4.93671C111.052 4.93671 110.073 5.37189 109.257 6.24224C108.577 6.9494 108.128 7.92855 107.911 9.17968C107.693 10.4308 107.584 13.0419 107.584 17.0129C107.584 21.3102 107.693 24.1389 107.911 25.4988C108.128 26.8587 108.618 27.9331 109.379 28.7218C110.141 29.5378 111.079 29.9458 112.194 29.9458C113.282 29.9458 114.207 29.5378 114.969 28.7218C115.757 27.9059 116.247 26.7635 116.437 25.2948C116.628 23.8261 116.736 21.0654 116.764 17.0129C116.764 13.0691 116.655 10.4716 116.437 9.22048C116.22 7.96935 115.771 6.9766 115.091 6.24224Z" fill="white"/>
<path d="M126.314 6.73181C127.837 4.52873 129.918 3.42719 132.556 3.42719C133.861 3.42719 135.167 3.78077 136.472 4.48793C137.778 5.1951 138.839 6.44623 139.655 8.24133C140.661 10.4988 141.164 13.5994 141.164 17.5432C141.164 21.759 140.579 24.982 139.41 27.2123C138.866 28.3547 138.118 29.2658 137.166 29.9458C136.214 30.6257 135.384 31.0473 134.677 31.2105C133.97 31.3737 133.277 31.4689 132.597 31.4961C131.889 31.4961 131.182 31.4145 130.475 31.2513C129.768 31.0881 128.938 30.6529 127.986 29.9458C127.035 29.2386 126.287 28.3275 125.743 27.2123C124.573 24.982 123.988 21.759 123.988 17.5432C123.988 12.8107 124.763 9.20688 126.314 6.73181ZM135.493 6.24224C134.677 5.37189 133.712 4.93671 132.597 4.93671C131.454 4.93671 130.475 5.37189 129.659 6.24224C128.979 6.9494 128.53 7.92855 128.313 9.17968C128.095 10.4308 127.986 13.0419 127.986 17.0129C127.986 21.3102 128.095 24.1389 128.313 25.4988C128.53 26.8587 129.02 27.9331 129.782 28.7218C130.543 29.5378 131.481 29.9458 132.597 29.9458C133.685 29.9458 134.609 29.5378 135.371 28.7218C136.16 27.9059 136.649 26.7635 136.84 25.2948C137.03 23.8261 137.139 21.0654 137.166 17.0129C137.166 13.0691 137.057 10.4716 136.84 9.22048C136.622 7.96935 136.173 6.9766 135.493 6.24224Z" fill="white"/>
<path d="M161.761 5.9157C160.754 5.9157 159.789 5.7933 158.864 5.54852C157.939 5.30373 157.205 5.05894 156.661 4.81416C156.117 4.56937 155.831 4.44697 155.804 4.44697C156.158 5.34453 156.334 6.60926 156.334 8.24117C156.334 10.689 155.804 12.6609 154.743 14.1569C153.683 15.6528 152.445 16.4143 151.031 16.4415C149.48 16.4415 148.107 15.6936 146.91 14.1977C145.713 12.7017 145.101 10.7162 145.074 8.24117C145.074 5.8205 145.686 3.84861 146.91 2.32549C148.134 0.802368 149.508 0.0272102 151.031 1.14441e-05C152.091 1.14441e-05 153.043 0.421589 153.887 1.26474C156.253 3.35903 158.864 4.40618 161.72 4.40618C164.875 4.40618 167.404 3.18224 169.308 0.734371C169.635 0.299194 169.879 0.0680084 170.042 0.0408096C170.097 0.0136108 170.165 1.14441e-05 170.246 1.14441e-05C170.491 1.14441e-05 170.695 0.0952072 170.858 0.285595C171.022 0.475986 171.09 0.707172 171.062 0.97916C157.055 22.0036 149.943 32.5839 149.725 32.7199C149.616 32.8287 149.48 32.8831 149.317 32.8831C148.964 32.8831 148.719 32.7335 148.583 32.4343C148.447 32.1895 148.447 31.9447 148.583 31.6999C148.61 31.6183 151.615 27.117 157.599 18.1958C160.482 13.8985 162.685 10.6074 164.208 8.32277C165.732 6.03809 166.493 4.89575 166.493 4.89575C165.052 5.57571 163.474 5.9157 161.761 5.9157ZM151.235 14.8912C151.996 14.8912 152.758 14.32 153.519 13.1777C154.281 12.0354 154.675 10.3899 154.703 8.24117C154.703 6.36447 154.363 4.78696 153.683 3.50863C153.003 2.23029 152.091 1.57753 150.949 1.55033C150.759 1.55033 150.568 1.59113 150.378 1.67272C150.188 1.75432 149.929 1.90391 149.603 2.1215C149.276 2.33909 149.004 2.74706 148.787 3.34543C148.569 3.9438 148.392 4.66456 148.256 5.50772C148.202 6.05169 148.175 6.96284 148.175 8.24117V9.09793C148.175 11.573 148.624 13.2593 149.521 14.1569C150.011 14.6464 150.528 14.8912 151.071 14.8912H151.235ZM163.188 24.6419C163.188 22.2484 163.787 20.2901 164.984 18.767C166.18 17.2439 167.581 16.4687 169.186 16.4415C170.6 16.4415 171.824 17.1895 172.858 18.6854C173.891 20.1813 174.421 22.1668 174.449 24.6419C174.476 27.117 173.945 29.1025 172.858 30.5984C171.77 32.0943 170.532 32.8559 169.145 32.8831C167.622 32.8831 166.248 32.1215 165.024 30.5984C163.8 29.0753 163.188 27.0898 163.188 24.6419ZM169.349 31.3327C170.11 31.3327 170.872 30.7616 171.634 29.6192C172.395 28.4769 172.79 26.8178 172.817 24.6419C172.817 22.7652 172.477 21.1877 171.797 19.9093C171.117 18.631 170.206 17.9919 169.063 17.9919C168.873 17.9919 168.683 18.0326 168.492 18.1142C168.302 18.1958 168.043 18.3454 167.717 18.563C167.391 18.7806 167.119 19.1886 166.901 19.787C166.683 20.3853 166.507 21.1061 166.371 21.9492C166.343 22.2756 166.33 23.1732 166.33 24.6419V25.5394C166.33 29.4016 167.282 31.3327 169.186 31.3327H169.349Z" fill="white"/>
<path d="M302.6 20.9294C302.6 20.9294 302.6 20.7526 302.6 20.399C302.6 20.0454 302.79 19.7734 303.171 19.5831H334.381C331.226 17.2168 329.281 14.1841 328.547 10.4851C328.547 10.4579 328.547 10.4171 328.547 10.3627C328.547 10.3083 328.533 10.2675 328.506 10.2404C328.506 9.91397 328.737 9.75078 329.2 9.75078H329.322C329.567 9.75078 329.73 9.76438 329.812 9.79157C329.893 9.81877 329.975 9.87317 330.057 9.95477C330.138 10.0364 330.179 10.1588 330.179 10.3219C330.179 10.4851 330.22 10.7027 330.301 10.9747C330.383 11.2467 330.492 11.5867 330.628 11.9947C331.226 13.817 332.219 15.4489 333.606 16.8904C334.993 18.3319 336.611 19.3519 338.461 19.9502C338.706 20.0318 338.828 20.1814 338.828 20.399C338.828 20.5622 338.76 20.6846 338.624 20.7662C338.488 20.8478 338.162 20.9838 337.645 21.1742C337.128 21.3646 336.611 21.6229 336.095 21.9493C334.979 22.6565 334.014 23.4724 333.198 24.3972C332.382 25.3219 331.77 26.2331 331.362 27.1307C330.954 28.0282 330.669 28.7082 330.505 29.1705C330.342 29.6329 330.233 30.0545 330.179 30.4353C330.125 30.7073 330.057 30.8705 329.975 30.9248C329.893 30.9792 329.676 31.02 329.322 31.0472C328.778 31.0472 328.506 30.8976 328.506 30.5985C328.506 30.4081 328.574 30.0681 328.71 29.5785C329.581 26.1515 331.471 23.3637 334.381 21.215H303.171C302.79 21.0246 302.6 20.7526 302.6 20.399V20.9294Z" fill="white"/>
<path d="M386.36 13.0962C385.626 13.0962 385.041 12.8514 384.606 12.3618C384.171 11.8722 383.953 11.2739 383.953 10.5667C383.953 8.63562 384.674 6.96291 386.115 5.54859C387.557 4.13426 389.352 3.4271 391.501 3.4271C393.976 3.4271 396.043 4.18866 397.702 5.71178C399.361 7.2349 400.204 9.20679 400.231 11.6275C400.231 12.797 399.959 13.9121 399.415 14.9729C398.872 16.0336 398.219 16.9584 397.457 17.7471C396.696 18.5359 395.608 19.5422 394.193 20.7662C393.214 21.6093 391.854 22.8605 390.114 24.5196L387.707 26.8043L390.807 26.8451C395.077 26.8451 397.348 26.7771 397.62 26.6411C397.811 26.5867 398.137 25.3763 398.6 23.0101V22.8877H400.231V23.0101C400.204 23.0917 400.027 24.3292 399.701 26.7227C399.375 29.1161 399.171 30.3673 399.089 30.4761V30.5984H383.953V29.8233V29.3337C383.953 29.1433 384.035 28.9393 384.198 28.7217C384.361 28.5042 384.769 28.0282 385.422 27.2938C386.211 26.4235 386.891 25.6619 387.462 25.0091C387.707 24.7372 388.169 24.234 388.849 23.4996C389.529 22.7653 389.991 22.2621 390.236 21.9901C390.481 21.7181 390.875 21.2693 391.419 20.6438C391.963 20.0182 392.344 19.5558 392.561 19.2567C392.779 18.9575 393.092 18.5495 393.5 18.0327C393.908 17.5159 394.193 17.0808 394.357 16.7272C394.52 16.3736 394.724 15.9792 394.969 15.5441C395.213 15.1089 395.39 14.6737 395.499 14.2385C395.608 13.8033 395.703 13.3954 395.784 13.0146C395.866 12.6338 395.907 12.185 395.907 11.6683C395.907 9.95475 395.445 8.47243 394.52 7.2213C393.595 5.97017 392.276 5.3446 390.562 5.3446C389.665 5.3446 388.876 5.57578 388.196 6.03816C387.516 6.50054 387.04 6.94931 386.768 7.38449C386.496 7.81967 386.36 8.07805 386.36 8.15965C386.36 8.18685 386.428 8.20045 386.564 8.20045C387.054 8.20045 387.557 8.39083 388.074 8.77161C388.59 9.1524 388.849 9.77796 388.849 10.6483C388.849 11.3283 388.631 11.8994 388.196 12.3618C387.761 12.8242 387.149 13.069 386.36 13.0962Z" fill="white"/>
<path d="M421.159 30.5984C420.67 30.5169 418.916 30.4761 415.896 30.4761C412.741 30.4761 410.919 30.5169 410.43 30.5984H410.062V28.7217H411.327C411.871 28.7217 412.238 28.7217 412.429 28.7217C412.619 28.7217 412.85 28.6946 413.122 28.6402C413.394 28.5858 413.585 28.5178 413.693 28.4362C413.802 28.3546 413.897 28.2458 413.979 28.1098C414.006 28.0554 414.02 27.321 414.02 25.9067V23.8668H403.453V21.9901L409.614 12.5658C413.775 6.25575 415.883 3.08712 415.937 3.05992C415.992 3.00552 416.277 2.97832 416.794 2.97832H417.528L417.773 3.22311V21.9901H421.527V23.8668H417.773V25.9475C417.773 27.0626 417.773 27.7154 417.773 27.9058C417.773 28.0962 417.855 28.2594 418.018 28.3954C418.236 28.5858 419.011 28.6946 420.343 28.7217H421.527V30.5984H421.159ZM414.265 21.9901V8.36364L405.33 21.9493L409.777 21.9901H414.265Z" fill="white"/>
<path d="M428.299 2.73355C428.326 2.73355 429.305 2.66556 431.236 2.52956C433.168 2.39357 434.16 2.31198 434.215 2.28478C434.541 2.28478 434.704 2.40717 434.704 2.65196C434.704 2.95114 434.215 5.00463 433.236 8.81243C432.202 12.8378 431.685 14.8913 431.685 14.9729C431.685 15.0273 431.78 14.9593 431.971 14.7689C433.63 13.3002 435.398 12.5658 437.274 12.5658C438.743 12.5658 439.926 12.933 440.824 13.6674C441.721 14.4017 442.184 15.4761 442.211 16.8904C442.211 18.2775 441.694 20.4262 440.661 23.3365C439.627 26.2467 439.11 27.9874 439.11 28.5586C439.138 28.9394 439.206 29.1977 439.314 29.3337C439.423 29.4697 439.627 29.5377 439.926 29.5377C440.688 29.5377 441.395 29.1297 442.048 28.3138C442.701 27.4978 443.231 26.3827 443.639 24.9684C443.721 24.6692 443.802 24.4924 443.884 24.438C443.965 24.3836 444.183 24.3564 444.537 24.3564C445.08 24.3564 445.352 24.4652 445.352 24.6828C445.352 24.71 445.298 24.914 445.189 25.2947C444.754 26.8995 444.061 28.2186 443.109 29.2521C442.184 30.4217 441.082 31.0064 439.804 31.0064H439.6C438.322 31.0064 437.397 30.6393 436.826 29.9049C436.255 29.1705 435.969 28.3954 435.969 27.5794C435.969 27.1442 436.459 25.5395 437.438 22.7653C438.417 19.991 438.92 17.9103 438.947 16.5232C438.947 14.9185 438.349 14.1161 437.152 14.1161H436.948C434.691 14.1161 432.732 15.4489 431.073 18.1143L430.788 18.6447L429.401 24.1524C428.53 27.6882 428.027 29.6193 427.891 29.9457C427.537 30.6801 426.939 31.0472 426.096 31.0472C425.715 31.0472 425.389 30.9248 425.117 30.6801C424.845 30.4353 424.695 30.1905 424.668 29.9457C424.668 29.5649 425.661 25.4307 427.646 17.5432L430.665 5.46701C430.665 5.11343 430.57 4.89584 430.38 4.81424C430.189 4.73265 429.659 4.66465 428.789 4.61025H427.932C427.769 4.44706 427.687 4.33827 427.687 4.28387C427.687 4.22947 427.714 3.97109 427.769 3.50871C427.905 2.99194 428.081 2.73355 428.299 2.73355Z" fill="white"/>
<path d="M17.7063 87.7153C17.2167 87.6337 15.4624 87.5929 12.4433 87.5929C9.28831 87.5929 7.466 87.6337 6.97643 87.7153H6.60925V85.8386H7.87398C8.41795 85.8386 8.78513 85.8386 8.97552 85.8386C9.16591 85.8386 9.3971 85.8114 9.66908 85.757C9.94107 85.7026 10.1315 85.6346 10.2403 85.553C10.349 85.4715 10.4442 85.3627 10.5258 85.2267C10.553 85.1723 10.5666 84.4379 10.5666 83.0236V80.9837H0V79.107L6.16047 69.6827C10.3218 63.3726 12.4297 60.204 12.4841 60.1768C12.5385 60.1224 12.8241 60.0952 13.3409 60.0952H14.0752L14.32 60.34V79.107H18.0734V80.9837H14.32V83.0644C14.32 84.1795 14.32 84.8323 14.32 85.0227C14.32 85.2131 14.4016 85.3763 14.5648 85.5122C14.7824 85.7026 15.5576 85.8114 16.8903 85.8386H18.0734V87.7153H17.7063ZM10.8114 79.107V65.4805L1.8767 79.0662L6.32366 79.107H10.8114Z" fill="white"/>
<path d="M23.177 63.8486C24.7002 61.6456 26.7808 60.544 29.4191 60.544C30.7246 60.544 32.0302 60.8976 33.3357 61.6048C34.6412 62.3119 35.702 63.563 36.5179 65.3582C37.5243 67.6156 38.0274 70.7163 38.0274 74.6601C38.0274 78.8758 37.4427 82.0989 36.2731 84.3291C35.7292 85.4715 34.9812 86.3826 34.0293 87.0626C33.0773 87.7426 32.2478 88.1641 31.5406 88.3273C30.8334 88.4905 30.1399 88.5857 29.4599 88.6129C28.7527 88.6129 28.0456 88.5313 27.3384 88.3681C26.6313 88.2049 25.8017 87.7698 24.8497 87.0626C23.8978 86.3554 23.1498 85.4443 22.6059 84.3291C21.4363 82.0989 20.8516 78.8758 20.8516 74.6601C20.8516 69.9275 21.6267 66.3237 23.177 63.8486ZM32.3565 63.3591C31.5406 62.4887 30.575 62.0535 29.4599 62.0535C28.3176 62.0535 27.3384 62.4887 26.5225 63.3591C25.8425 64.0662 25.3937 65.0454 25.1761 66.2965C24.9585 67.5476 24.8497 70.1587 24.8497 74.1297C24.8497 78.4271 24.9585 81.2557 25.1761 82.6156C25.3937 83.9756 25.8833 85.0499 26.6449 85.8387C27.4064 86.6546 28.3448 87.0626 29.4599 87.0626C30.5478 87.0626 31.4726 86.6546 32.2342 85.8387C33.0229 85.0227 33.5125 83.8804 33.7029 82.4116C33.8933 80.9429 34.0021 78.1823 34.0293 74.1297C34.0293 70.1859 33.9205 67.5884 33.7029 66.3373C33.4853 65.0862 33.0365 64.0934 32.3565 63.3591Z" fill="white"/>
<path d="M52.1504 78.0461C52.1504 78.0461 52.1504 77.8693 52.1504 77.5157C52.1504 77.1621 52.3408 76.8901 52.7216 76.6998H76.4251C76.8331 76.9173 77.0371 77.1893 77.0371 77.5157C77.0371 77.8421 76.8331 78.1141 76.4251 78.3317H52.7216C52.3408 78.1413 52.1504 77.8693 52.1504 77.5157V78.0461Z" fill="white"/>
<path d="M93.9735 70.2131C93.2391 70.2131 92.6543 69.9683 92.2192 69.4787C91.784 68.9891 91.5664 68.3908 91.5664 67.6836C91.5664 65.7525 92.2872 64.0798 93.7287 62.6655C95.1702 61.2511 96.9653 60.544 99.114 60.544C101.589 60.544 103.656 61.3055 105.315 62.8287C106.974 64.3518 107.818 66.3237 107.845 68.7443C107.845 69.9139 107.573 71.029 107.029 72.0898C106.485 73.1505 105.832 74.0753 105.07 74.864C104.309 75.6528 103.221 76.6591 101.807 77.8831C100.828 78.7262 99.4676 79.9773 97.7269 81.6365L95.3198 83.9211L98.4204 83.9619C102.691 83.9619 104.962 83.8939 105.234 83.7579C105.424 83.7035 105.75 82.4932 106.213 80.1269V80.0045H107.845V80.1269C107.818 80.2085 107.641 81.4461 107.314 83.8395C106.988 86.233 106.784 87.4841 106.702 87.5929V87.7153H91.5664V86.9402V86.4506C91.5664 86.2602 91.648 86.0562 91.8112 85.8386C91.9744 85.621 92.3824 85.1451 93.0351 84.4107C93.8239 83.5404 94.5038 82.7788 95.075 82.126C95.3198 81.854 95.7822 81.3509 96.4621 80.6165C97.1421 79.8822 97.6045 79.379 97.8493 79.107C98.0941 78.835 98.4884 78.3862 99.0324 77.7607C99.5764 77.1351 99.9572 76.6727 100.175 76.3735C100.392 76.0744 100.705 75.6664 101.113 75.1496C101.521 74.6328 101.807 74.1977 101.97 73.8441C102.133 73.4905 102.337 73.0961 102.582 72.6609C102.827 72.2258 103.003 71.7906 103.112 71.3554C103.221 70.9202 103.316 70.5123 103.398 70.1315C103.479 69.7507 103.52 69.3019 103.52 68.7851C103.52 67.0716 103.058 65.5893 102.133 64.3382C101.208 63.087 99.8892 62.4615 98.1757 62.4615C97.2781 62.4615 96.4893 62.6927 95.8094 63.155C95.1294 63.6174 94.6534 64.0662 94.3815 64.5014C94.1095 64.9365 93.9735 65.1949 93.9735 65.2765C93.9735 65.3037 94.0415 65.3173 94.1775 65.3173C94.667 65.3173 95.1702 65.5077 95.687 65.8885C96.2038 66.2693 96.4621 66.8948 96.4621 67.7652C96.4621 68.4452 96.2446 69.0163 95.8094 69.4787C95.3742 69.9411 94.7622 70.1859 93.9735 70.2131Z" fill="white"/>
<path d="M116.612 81.3101C116.612 81.9629 116.394 82.5068 115.959 82.942C115.524 83.3772 114.994 83.5948 114.368 83.5948H114.082C115.334 85.7435 116.993 86.8178 119.06 86.8178C120.964 86.8178 122.351 86.0019 123.221 84.3699C123.738 83.4724 123.996 81.7317 123.996 79.1478C123.996 76.3464 123.629 74.4561 122.895 73.4769C122.188 72.5794 121.399 72.1306 120.528 72.1306H120.284C118.162 72.1306 116.557 73.0553 115.47 74.9048C115.361 75.0952 115.266 75.204 115.184 75.2312C115.102 75.2584 114.898 75.2856 114.572 75.3128C114.11 75.3128 113.851 75.2312 113.797 75.068C113.742 74.9592 113.715 72.5794 113.715 67.9284V62.6655C113.715 61.3056 113.783 60.6256 113.919 60.6256C113.974 60.5712 114.028 60.544 114.082 60.544C114.11 60.544 114.395 60.6528 114.939 60.8704C115.483 61.088 116.231 61.3056 117.183 61.5232C118.135 61.7407 119.155 61.8495 120.243 61.8495C122.174 61.8495 124.023 61.4688 125.791 60.7072C126.009 60.5984 126.186 60.544 126.322 60.544C126.539 60.544 126.648 60.7888 126.648 61.2784V61.8087C124.418 64.447 121.63 65.7661 118.285 65.7661C117.441 65.7661 116.68 65.6845 116 65.5213L115.592 65.4398V72.457C116.109 72.0762 116.517 71.777 116.816 71.5594C117.115 71.3418 117.605 71.1242 118.285 70.9067C118.965 70.6891 119.658 70.5803 120.365 70.5803C122.568 70.5803 124.431 71.4642 125.955 73.2321C127.478 75 128.239 77.0943 128.239 79.515C128.239 82.0173 127.369 84.1524 125.628 85.9203C123.888 87.6882 121.766 88.5857 119.264 88.6129C117.061 88.6129 115.293 87.8786 113.96 86.4098C112.627 84.9411 111.961 83.282 111.961 81.4325C111.961 80.7797 112.111 80.263 112.41 79.8822C112.709 79.5014 113.022 79.2566 113.348 79.1478C113.674 79.039 113.987 78.9846 114.286 78.9846C114.966 78.9846 115.524 79.2158 115.959 79.6782C116.394 80.1406 116.612 80.6845 116.612 81.3101Z" fill="white"/>
<path d="M143.945 73.5585C143.945 73.2049 144.136 72.9329 144.516 72.7426H170.505C170.913 72.9601 171.117 73.2321 171.117 73.5585C171.117 73.8577 170.926 74.1161 170.545 74.3337L157.572 74.3745H144.598C144.163 74.2385 143.945 73.9665 143.945 73.5585ZM143.945 81.4733C143.945 81.0653 144.163 80.7933 144.598 80.6573H170.545C170.926 80.9293 171.117 81.2013 171.117 81.4733C171.117 81.8269 170.913 82.0989 170.505 82.2892H144.516C144.136 82.0989 143.945 81.8269 143.945 81.4733Z" fill="white"/>
<path d="M193.421 64.1342L192.891 64.3382C192.51 64.4742 191.966 64.6102 191.259 64.7462C190.551 64.8822 189.763 64.9773 188.892 65.0317H188.117V63.155H188.892C190.171 63.1006 191.354 62.8967 192.442 62.5431C193.53 62.1895 194.291 61.8631 194.726 61.5639C195.162 61.2647 195.542 60.9656 195.869 60.6664C195.923 60.5848 196.086 60.544 196.358 60.544C196.603 60.544 196.834 60.6256 197.052 60.7888V72.9873L197.093 85.2267C197.283 85.4171 197.446 85.5394 197.582 85.5938C197.718 85.6482 198.045 85.7026 198.561 85.757C199.078 85.8114 199.921 85.8386 201.091 85.8386H202.152V87.7153H201.703C201.132 87.6337 198.969 87.5929 195.216 87.5929C191.517 87.5929 189.382 87.6337 188.811 87.7153H188.321V85.8386H189.382C189.98 85.8386 190.497 85.8386 190.932 85.8386C191.367 85.8386 191.707 85.825 191.952 85.7978C192.197 85.7706 192.415 85.7298 192.605 85.6754C192.795 85.621 192.904 85.5938 192.931 85.5938C192.959 85.5938 193.04 85.5258 193.176 85.3899C193.312 85.2539 193.394 85.1995 193.421 85.2267V64.1342Z" fill="white"/>
<path d="M211.819 81.3101C211.819 81.9629 211.601 82.5068 211.166 82.942C210.731 83.3772 210.201 83.5948 209.575 83.5948H209.289C210.541 85.7435 212.2 86.8178 214.267 86.8178C216.171 86.8178 217.558 86.0019 218.428 84.3699C218.945 83.4724 219.203 81.7317 219.203 79.1478C219.203 76.3464 218.836 74.4561 218.102 73.4769C217.395 72.5794 216.606 72.1306 215.736 72.1306H215.491C213.369 72.1306 211.765 73.0553 210.677 74.9048C210.568 75.0952 210.473 75.204 210.391 75.2312C210.309 75.2584 210.105 75.2856 209.779 75.3128C209.317 75.3128 209.058 75.2312 209.004 75.068C208.949 74.9592 208.922 72.5794 208.922 67.9284V62.6655C208.922 61.3056 208.99 60.6256 209.126 60.6256C209.181 60.5712 209.235 60.544 209.289 60.544C209.317 60.544 209.602 60.6528 210.146 60.8704C210.69 61.088 211.438 61.3056 212.39 61.5232C213.342 61.7407 214.362 61.8495 215.45 61.8495C217.381 61.8495 219.231 61.4688 220.998 60.7072C221.216 60.5984 221.393 60.544 221.529 60.544C221.746 60.544 221.855 60.7888 221.855 61.2784V61.8087C219.625 64.447 216.837 65.7661 213.492 65.7661C212.648 65.7661 211.887 65.6845 211.207 65.5213L210.799 65.4398V72.457C211.316 72.0762 211.724 71.777 212.023 71.5594C212.322 71.3418 212.812 71.1242 213.492 70.9067C214.172 70.6891 214.865 70.5803 215.572 70.5803C217.775 70.5803 219.639 71.4642 221.162 73.2321C222.685 75 223.446 77.0943 223.446 79.515C223.446 82.0173 222.576 84.1524 220.835 85.9203C219.095 87.6882 216.973 88.5857 214.471 88.6129C212.268 88.6129 210.5 87.8786 209.167 86.4098C207.834 84.9411 207.168 83.282 207.168 81.4325C207.168 80.7797 207.318 80.263 207.617 79.8822C207.916 79.5014 208.229 79.2566 208.555 79.1478C208.881 79.039 209.194 78.9846 209.493 78.9846C210.173 78.9846 210.731 79.2158 211.166 79.6782C211.601 80.1406 211.819 80.6845 211.819 81.3101Z" fill="white"/>
<path d="M244.499 63.0326C243.492 63.0326 242.527 62.9102 241.602 62.6654C240.677 62.4206 239.943 62.1758 239.399 61.931C238.855 61.6863 238.57 61.5639 238.542 61.5639C238.896 62.4614 239.073 63.7261 239.073 65.3581C239.073 67.8059 238.542 69.7778 237.482 71.2737C236.421 72.7697 235.183 73.5312 233.769 73.5584C232.219 73.5584 230.845 72.8105 229.648 71.3145C228.452 69.8186 227.84 67.8331 227.812 65.3581C227.812 62.9374 228.424 60.9655 229.648 59.4424C230.872 57.9193 232.246 57.1441 233.769 57.1169C234.83 57.1169 235.782 57.5385 236.625 58.3816C238.991 60.4759 241.602 61.5231 244.458 61.5231C247.613 61.5231 250.143 60.2991 252.046 57.8513C252.373 57.4161 252.618 57.1849 252.781 57.1577C252.835 57.1305 252.903 57.1169 252.985 57.1169C253.23 57.1169 253.434 57.2121 253.597 57.4025C253.76 57.5929 253.828 57.8241 253.801 58.096C239.793 79.1205 232.681 89.7008 232.463 89.8367C232.355 89.9455 232.219 89.9999 232.055 89.9999C231.702 89.9999 231.457 89.8503 231.321 89.5512C231.185 89.3064 231.185 89.0616 231.321 88.8168C231.348 88.7352 234.354 84.2338 240.337 75.3127C243.22 71.0154 245.424 67.7243 246.947 65.4396C248.47 63.155 249.231 62.0126 249.231 62.0126C247.79 62.6926 246.212 63.0326 244.499 63.0326ZM233.973 72.0081C234.735 72.0081 235.496 71.4369 236.258 70.2946C237.019 69.1523 237.414 67.5067 237.441 65.3581C237.441 63.4814 237.101 61.9038 236.421 60.6255C235.741 59.3472 234.83 58.6944 233.687 58.6672C233.497 58.6672 233.307 58.708 233.116 58.7896C232.926 58.8712 232.667 59.0208 232.341 59.2384C232.015 59.456 231.743 59.8639 231.525 60.4623C231.308 61.0607 231.131 61.7814 230.995 62.6246C230.94 63.1686 230.913 64.0797 230.913 65.3581V66.2148C230.913 68.6899 231.362 70.3762 232.259 71.2737C232.749 71.7633 233.266 72.0081 233.81 72.0081H233.973ZM245.927 81.7588C245.927 79.3653 246.525 77.407 247.722 75.8839C248.919 74.3608 250.319 73.5856 251.924 73.5584C253.338 73.5584 254.562 74.3064 255.596 75.8023C256.629 77.2982 257.16 79.2837 257.187 81.7588C257.214 84.2338 256.684 86.2193 255.596 87.7153C254.508 89.2112 253.27 89.9727 251.883 89.9999C250.36 89.9999 248.987 89.2384 247.763 87.7153C246.539 86.1921 245.927 84.2066 245.927 81.7588ZM252.087 88.4496C252.849 88.4496 253.61 87.8785 254.372 86.7361C255.133 85.5938 255.528 83.9347 255.555 81.7588C255.555 79.8821 255.215 78.3046 254.535 77.0262C253.855 75.7479 252.944 75.1087 251.802 75.1087C251.611 75.1087 251.421 75.1495 251.23 75.2311C251.04 75.3127 250.782 75.4623 250.455 75.6799C250.129 75.8975 249.857 76.3055 249.639 76.9038C249.422 77.5022 249.245 78.223 249.109 79.0661C249.082 79.3925 249.068 80.2901 249.068 81.7588V82.6563C249.068 86.5185 250.02 88.4496 251.924 88.4496H252.087Z" fill="white"/>
<path d="M302.602 78.0463C302.602 78.0463 302.602 77.8695 302.602 77.5159C302.602 77.1623 302.792 76.8903 303.173 76.6999H334.383C331.228 74.3337 329.283 71.301 328.549 67.602C328.549 67.5748 328.549 67.534 328.549 67.4796C328.549 67.4252 328.535 67.3844 328.508 67.3572C328.508 67.0308 328.739 66.8677 329.202 66.8677H329.324C329.569 66.8677 329.732 66.8813 329.814 66.9085C329.895 66.9357 329.977 66.9901 330.058 67.0716C330.14 67.1532 330.181 67.2756 330.181 67.4388C330.181 67.602 330.222 67.8196 330.303 68.0916C330.385 68.3636 330.494 68.7036 330.63 69.1115C331.228 70.9338 332.221 72.5658 333.608 74.0073C334.995 75.4488 336.613 76.4687 338.463 77.0671C338.708 77.1487 338.83 77.2983 338.83 77.5159C338.83 77.6791 338.762 77.8015 338.626 77.8831C338.49 77.9647 338.164 78.1007 337.647 78.291C337.13 78.4814 336.613 78.7398 336.097 79.0662C334.981 79.7734 334.016 80.5893 333.2 81.5141C332.384 82.4388 331.772 83.35 331.364 84.2475C330.956 85.1451 330.67 85.825 330.507 86.2874C330.344 86.7498 330.235 87.1714 330.181 87.5522C330.126 87.8241 330.058 87.9873 329.977 88.0417C329.895 88.0961 329.678 88.1369 329.324 88.1641C328.78 88.1641 328.508 88.0145 328.508 87.7153C328.508 87.525 328.576 87.185 328.712 86.6954C329.583 83.2684 331.473 80.4805 334.383 78.3318H303.173C302.792 78.1415 302.602 77.8695 302.602 77.5159V78.0463Z" fill="white"/>
<path d="M404.51 75.9248C404.7 74.7824 405.435 73.4633 406.713 71.9674C407.991 70.4715 409.569 69.7099 411.446 69.6827C412.398 69.6827 413.268 69.9275 414.057 70.4171C414.845 70.9066 415.43 71.5186 415.811 72.253C416.953 70.5395 418.327 69.6827 419.932 69.6827C420.938 69.6827 421.808 69.9819 422.543 70.5803C423.277 71.1786 423.658 71.981 423.685 72.9873C423.685 73.7761 423.495 74.4153 423.114 74.9048C422.733 75.3944 422.366 75.6936 422.012 75.8024C421.659 75.9112 421.346 75.9656 421.074 75.9656C420.557 75.9656 420.136 75.816 419.809 75.5168C419.483 75.2176 419.32 74.8232 419.32 74.3337C419.32 73.0825 420 72.2258 421.359 71.7634C421.06 71.4098 420.516 71.233 419.728 71.233C419.374 71.233 419.116 71.2602 418.952 71.3146C417.919 71.7498 417.157 72.6474 416.668 74.0073C415.036 80.0182 414.22 83.5268 414.22 84.5331C414.22 85.2947 414.437 85.8386 414.873 86.165C415.308 86.4914 415.784 86.6546 416.301 86.6546C417.307 86.6546 418.3 86.2058 419.279 85.3083C420.258 84.4107 420.924 83.3092 421.278 82.0037C421.359 81.7317 421.441 81.5821 421.523 81.5549C421.604 81.5277 421.822 81.5005 422.175 81.4733H422.339C422.747 81.4733 422.951 81.5821 422.951 81.7997C422.951 81.8269 422.923 81.9765 422.869 82.2484C422.434 83.7988 421.591 85.1723 420.34 86.369C419.088 87.5658 417.633 88.1641 415.974 88.1641C414.07 88.1641 412.629 87.3074 411.65 85.5939C410.534 87.2802 409.256 88.1233 407.815 88.1233H407.57C406.237 88.1233 405.285 87.7697 404.714 87.0626C404.143 86.3554 403.844 85.6075 403.816 84.8187C403.816 83.9483 404.075 83.2412 404.592 82.6972C405.108 82.1532 405.72 81.8813 406.427 81.8813C407.597 81.8813 408.182 82.4524 408.182 83.5948C408.182 84.1387 408.019 84.6147 407.692 85.0227C407.366 85.4307 407.053 85.7027 406.754 85.8386C406.455 85.9746 406.278 86.0426 406.223 86.0426L406.101 86.0834C406.101 86.1106 406.183 86.165 406.346 86.2466C406.509 86.3282 406.727 86.4234 406.999 86.5322C407.271 86.641 407.529 86.6818 407.774 86.6546C408.753 86.6546 409.596 86.0426 410.303 84.8187C410.548 84.3835 410.861 83.4588 411.242 82.0445C411.622 80.6301 412.003 79.1614 412.384 77.6383C412.765 76.1152 412.982 75.2176 413.037 74.9456C413.173 74.2113 413.241 73.6809 413.241 73.3545C413.241 72.593 413.037 72.049 412.629 71.7226C412.221 71.3962 411.758 71.233 411.242 71.233C410.154 71.233 409.134 71.6682 408.182 72.5386C407.23 73.4089 406.563 74.5241 406.183 75.884C406.128 76.1288 406.06 76.2648 405.979 76.292C405.897 76.3192 405.68 76.3464 405.326 76.3736H404.755C404.592 76.2104 404.51 76.0608 404.51 75.9248Z" fill="white"/>
<path d="M77.6936 182.409C77.884 181.267 78.6183 179.948 79.8966 178.452C81.175 176.956 82.7525 176.194 84.6292 176.167C85.5811 176.167 86.4515 176.412 87.2403 176.901C88.029 177.391 88.6138 178.003 88.9946 178.737C90.1369 177.024 91.5104 176.167 93.1151 176.167C94.1215 176.167 94.9918 176.466 95.7262 177.065C96.4606 177.663 96.8413 178.465 96.8685 179.472C96.8685 180.26 96.6782 180.9 96.2974 181.389C95.9166 181.879 95.5494 182.178 95.1958 182.287C94.8422 182.395 94.5295 182.45 94.2575 182.45C93.7407 182.45 93.3191 182.3 92.9927 182.001C92.6664 181.702 92.5032 181.307 92.5032 180.818C92.5032 179.567 93.1831 178.71 94.5431 178.248C94.2439 177.894 93.6999 177.717 92.9112 177.717C92.5576 177.717 92.2992 177.744 92.136 177.799C91.1024 178.234 90.3409 179.132 89.8513 180.492C88.2194 186.502 87.4034 190.011 87.4034 191.017C87.4034 191.779 87.621 192.323 88.0562 192.649C88.4914 192.976 88.9674 193.139 89.4841 193.139C90.4905 193.139 91.4832 192.69 92.4624 191.793C93.4415 190.895 94.1079 189.793 94.4615 188.488C94.5431 188.216 94.6247 188.066 94.7063 188.039C94.7879 188.012 95.0054 187.985 95.359 187.958H95.5222C95.9302 187.958 96.1342 188.066 96.1342 188.284C96.1342 188.311 96.107 188.461 96.0526 188.733C95.6174 190.283 94.7743 191.657 93.5231 192.853C92.272 194.05 90.8169 194.648 89.1578 194.648C87.2539 194.648 85.8123 193.792 84.8332 192.078C83.718 193.764 82.4397 194.608 80.9982 194.608H80.7534C79.4207 194.608 78.4687 194.254 77.8976 193.547C77.3264 192.84 77.0272 192.092 77 191.303C77 190.433 77.2584 189.725 77.7752 189.181C78.2919 188.637 78.9039 188.366 79.6111 188.366C80.7806 188.366 81.3654 188.937 81.3654 190.079C81.3654 190.623 81.2022 191.099 80.8758 191.507C80.5494 191.915 80.2366 192.187 79.9374 192.323C79.6383 192.459 79.4615 192.527 79.4071 192.527L79.2847 192.568C79.2847 192.595 79.3663 192.649 79.5295 192.731C79.6927 192.812 79.9102 192.908 80.1822 193.016C80.4542 193.125 80.7126 193.166 80.9574 193.139C81.9365 193.139 82.7797 192.527 83.4869 191.303C83.7316 190.868 84.0444 189.943 84.4252 188.529C84.806 187.114 85.1868 185.646 85.5675 184.123C85.9483 182.599 86.1659 181.702 86.2203 181.43C86.3563 180.696 86.4243 180.165 86.4243 179.839C86.4243 179.077 86.2203 178.533 85.8123 178.207C85.4044 177.88 84.942 177.717 84.4252 177.717C83.3373 177.717 82.3173 178.152 81.3654 179.023C80.4134 179.893 79.7471 181.008 79.3663 182.368C79.3119 182.613 79.2439 182.749 79.1623 182.776C79.0807 182.803 78.8631 182.831 78.5095 182.858H77.9383C77.7752 182.695 77.6936 182.545 77.6936 182.409Z" fill="white"/>
<path d="M112.531 180.043C112.531 179.689 112.722 179.417 113.102 179.227H139.091C139.499 179.444 139.703 179.716 139.703 180.043C139.703 180.342 139.512 180.6 139.131 180.818L126.158 180.859H113.184C112.749 180.723 112.531 180.451 112.531 180.043ZM112.531 187.958C112.531 187.55 112.749 187.278 113.184 187.142H139.131C139.512 187.414 139.703 187.686 139.703 187.958C139.703 188.311 139.499 188.583 139.091 188.774H113.102C112.722 188.583 112.531 188.311 112.531 187.958Z" fill="white"/>
<path d="M170.989 143.039L170.459 143.243C170.078 143.379 169.534 143.515 168.827 143.651C168.12 143.787 167.331 143.882 166.461 143.937H165.686V142.06H166.461C167.739 142.005 168.922 141.802 170.01 141.448C171.098 141.094 171.86 140.768 172.295 140.469C172.73 140.17 173.111 139.87 173.437 139.571C173.492 139.49 173.655 139.449 173.927 139.449C174.171 139.449 174.403 139.53 174.62 139.694V151.892L174.661 164.132C174.851 164.322 175.015 164.444 175.151 164.499C175.287 164.553 175.613 164.607 176.13 164.662C176.647 164.716 177.49 164.743 178.659 164.743H179.72V166.62H179.271C178.7 166.539 176.538 166.498 172.784 166.498C169.085 166.498 166.95 166.539 166.379 166.62H165.89V164.743H166.95C167.549 164.743 168.065 164.743 168.501 164.743C168.936 164.743 169.276 164.73 169.521 164.703C169.765 164.675 169.983 164.635 170.173 164.58C170.364 164.526 170.472 164.499 170.5 164.499C170.527 164.499 170.608 164.431 170.744 164.295C170.88 164.159 170.962 164.104 170.989 164.132V143.039Z" fill="white"/>
<path d="M189.387 160.215C189.387 160.868 189.17 161.412 188.735 161.847C188.299 162.282 187.769 162.5 187.143 162.5H186.858C188.109 164.648 189.768 165.723 191.835 165.723C193.739 165.723 195.126 164.907 195.997 163.275C196.513 162.377 196.772 160.637 196.772 158.053C196.772 155.251 196.405 153.361 195.67 152.382C194.963 151.484 194.174 151.035 193.304 151.035H193.059C190.938 151.035 189.333 151.96 188.245 153.81C188.136 154 188.041 154.109 187.959 154.136C187.878 154.163 187.674 154.19 187.347 154.218C186.885 154.218 186.627 154.136 186.572 153.973C186.518 153.864 186.491 151.484 186.491 146.833V141.57C186.491 140.21 186.559 139.53 186.695 139.53C186.749 139.476 186.803 139.449 186.858 139.449C186.885 139.449 187.171 139.558 187.715 139.775C188.259 139.993 189.007 140.21 189.958 140.428C190.91 140.646 191.93 140.754 193.018 140.754C194.949 140.754 196.799 140.374 198.567 139.612C198.784 139.503 198.961 139.449 199.097 139.449C199.315 139.449 199.424 139.694 199.424 140.183V140.714C197.193 143.352 194.405 144.671 191.06 144.671C190.217 144.671 189.455 144.589 188.775 144.426L188.367 144.345V151.362C188.884 150.981 189.292 150.682 189.591 150.464C189.89 150.247 190.38 150.029 191.06 149.812C191.74 149.594 192.434 149.485 193.141 149.485C195.344 149.485 197.207 150.369 198.73 152.137C200.253 153.905 201.015 155.999 201.015 158.42C201.015 160.922 200.144 163.057 198.404 164.825C196.663 166.593 194.541 167.491 192.039 167.518C189.836 167.518 188.068 166.783 186.735 165.315C185.403 163.846 184.736 162.187 184.736 160.337C184.736 159.685 184.886 159.168 185.185 158.787C185.484 158.406 185.797 158.161 186.123 158.053C186.45 157.944 186.763 157.889 187.062 157.889C187.742 157.889 188.299 158.121 188.735 158.583C189.17 159.045 189.387 159.589 189.387 160.215Z" fill="white"/>
<path d="M237.869 165.437C237.869 165.981 237.584 166.253 237.013 166.253C236.877 166.253 236.577 166.035 236.115 165.6C235.653 165.165 234.374 163.9 232.28 161.806L228.037 157.563L223.753 161.847C220.87 164.676 219.388 166.117 219.306 166.171C219.198 166.226 219.102 166.253 219.021 166.253C218.803 166.253 218.613 166.171 218.45 166.008C218.286 165.845 218.191 165.655 218.164 165.437C218.164 165.247 218.354 164.948 218.735 164.54C219.116 164.132 220.394 162.84 222.57 160.664L226.813 156.421L222.57 152.178C220.367 149.975 219.089 148.683 218.735 148.302C218.382 147.921 218.191 147.622 218.164 147.404C218.164 147.16 218.246 146.969 218.409 146.833C218.572 146.697 218.776 146.629 219.021 146.629C219.157 146.629 219.252 146.643 219.306 146.67C219.388 146.724 220.87 148.166 223.753 150.995L228.037 155.278L232.28 151.035C234.374 148.941 235.653 147.676 236.115 147.241C236.577 146.806 236.877 146.589 237.013 146.589C237.584 146.589 237.869 146.86 237.869 147.404C237.869 147.595 237.733 147.84 237.461 148.139C237.189 148.438 235.857 149.771 233.463 152.137L229.22 156.421L233.463 160.705C235.748 162.989 237.053 164.308 237.38 164.662C237.706 165.016 237.869 165.274 237.869 165.437Z" fill="white"/>
<path d="M257.417 149.118C256.682 149.118 256.098 148.873 255.663 148.384C255.227 147.894 255.01 147.296 255.01 146.588C255.01 144.657 255.731 142.985 257.172 141.57C258.614 140.156 260.409 139.449 262.557 139.449C265.032 139.449 267.1 140.21 268.759 141.734C270.418 143.257 271.261 145.229 271.288 147.649C271.288 148.819 271.016 149.934 270.472 150.995C269.928 152.055 269.275 152.98 268.514 153.769C267.752 154.558 266.664 155.564 265.25 156.788C264.271 157.631 262.911 158.882 261.17 160.541L258.763 162.826L261.864 162.867C266.134 162.867 268.405 162.799 268.677 162.663C268.867 162.608 269.194 161.398 269.656 159.032V158.909H271.288V159.032C271.261 159.113 271.084 160.351 270.758 162.744C270.431 165.138 270.227 166.389 270.146 166.498V166.62H255.01V165.845V165.355C255.01 165.165 255.091 164.961 255.255 164.743C255.418 164.526 255.826 164.05 256.478 163.316C257.267 162.445 257.947 161.684 258.518 161.031C258.763 160.759 259.226 160.256 259.906 159.521C260.585 158.787 261.048 158.284 261.293 158.012C261.537 157.74 261.932 157.291 262.476 156.666C263.02 156.04 263.401 155.578 263.618 155.278C263.836 154.979 264.148 154.571 264.556 154.054C264.964 153.538 265.25 153.102 265.413 152.749C265.576 152.395 265.78 152.001 266.025 151.566C266.27 151.131 266.447 150.695 266.556 150.26C266.664 149.825 266.76 149.417 266.841 149.036C266.923 148.656 266.964 148.207 266.964 147.69C266.964 145.976 266.501 144.494 265.576 143.243C264.652 141.992 263.333 141.366 261.619 141.366C260.721 141.366 259.933 141.598 259.253 142.06C258.573 142.522 258.097 142.971 257.825 143.406C257.553 143.841 257.417 144.1 257.417 144.181C257.417 144.209 257.485 144.222 257.621 144.222C258.11 144.222 258.614 144.413 259.13 144.793C259.647 145.174 259.906 145.8 259.906 146.67C259.906 147.35 259.688 147.921 259.253 148.384C258.818 148.846 258.206 149.091 257.417 149.118Z" fill="white"/>
<path d="M292.214 166.62C291.724 166.539 289.97 166.498 286.951 166.498C283.796 166.498 281.974 166.539 281.484 166.62H281.117V164.743H282.382C282.926 164.743 283.293 164.743 283.483 164.743C283.674 164.743 283.905 164.716 284.177 164.662C284.449 164.607 284.639 164.539 284.748 164.458C284.857 164.376 284.952 164.268 285.034 164.132C285.061 164.077 285.074 163.343 285.074 161.928V159.889H274.508V158.012L280.668 148.588C284.83 142.277 286.938 139.109 286.992 139.082C287.046 139.027 287.332 139 287.849 139H288.583L288.828 139.245V158.012H292.581V159.889H288.828V161.969C288.828 163.084 288.828 163.737 288.828 163.928C288.828 164.118 288.909 164.281 289.073 164.417C289.29 164.607 290.065 164.716 291.398 164.743H292.581V166.62H292.214ZM285.319 158.012V144.385L276.385 157.971L280.831 158.012H285.319Z" fill="white"/>
<path d="M206.12 198.606L205.59 198.81C205.209 198.946 204.665 199.082 203.958 199.218C203.251 199.354 202.462 199.449 201.592 199.503H200.816V197.627H201.592C202.87 197.572 204.053 197.368 205.141 197.015C206.229 196.661 206.99 196.335 207.426 196.035C207.861 195.736 208.242 195.437 208.568 195.138C208.622 195.056 208.786 195.016 209.058 195.016C209.302 195.016 209.534 195.097 209.751 195.26V207.459L209.792 219.698C209.982 219.889 210.146 220.011 210.282 220.065C210.417 220.12 210.744 220.174 211.261 220.229C211.777 220.283 212.621 220.31 213.79 220.31H214.851V222.187H214.402C213.831 222.105 211.669 222.064 207.915 222.064C204.216 222.064 202.081 222.105 201.51 222.187H201.02V220.31H202.081C202.68 220.31 203.196 220.31 203.631 220.31C204.067 220.31 204.407 220.297 204.651 220.269C204.896 220.242 205.114 220.201 205.304 220.147C205.495 220.093 205.603 220.065 205.631 220.065C205.658 220.065 205.739 219.997 205.875 219.861C206.011 219.725 206.093 219.671 206.12 219.698V198.606Z" fill="white"/>
<path d="M221.743 198.32C223.267 196.117 225.347 195.016 227.986 195.016C229.291 195.016 230.597 195.369 231.902 196.076C233.208 196.783 234.268 198.035 235.084 199.83C236.091 202.087 236.594 205.188 236.594 209.132C236.594 213.347 236.009 216.57 234.84 218.801C234.296 219.943 233.548 220.854 232.596 221.534C231.644 222.214 230.814 222.636 230.107 222.799C229.4 222.962 228.706 223.057 228.026 223.084C227.319 223.084 226.612 223.003 225.905 222.84C225.198 222.676 224.368 222.241 223.416 221.534C222.464 220.827 221.716 219.916 221.172 218.801C220.003 216.57 219.418 213.347 219.418 209.132C219.418 204.399 220.193 200.795 221.743 198.32ZM230.923 197.831C230.107 196.96 229.141 196.525 228.026 196.525C226.884 196.525 225.905 196.96 225.089 197.831C224.409 198.538 223.96 199.517 223.743 200.768C223.525 202.019 223.416 204.63 223.416 208.601C223.416 212.899 223.525 215.727 223.743 217.087C223.96 218.447 224.45 219.521 225.211 220.31C225.973 221.126 226.911 221.534 228.026 221.534C229.114 221.534 230.039 221.126 230.801 220.31C231.589 219.494 232.079 218.352 232.269 216.883C232.46 215.414 232.568 212.654 232.596 208.601C232.596 204.657 232.487 202.06 232.269 200.809C232.052 199.558 231.603 198.565 230.923 197.831Z" fill="white"/>
<path d="M242.146 198.32C243.669 196.117 245.75 195.016 248.388 195.016C249.693 195.016 250.999 195.369 252.304 196.076C253.61 196.783 254.671 198.035 255.487 199.83C256.493 202.087 256.996 205.188 256.996 209.132C256.996 213.347 256.411 216.57 255.242 218.801C254.698 219.943 253.95 220.854 252.998 221.534C252.046 222.214 251.217 222.636 250.509 222.799C249.802 222.962 249.109 223.057 248.429 223.084C247.721 223.084 247.014 223.003 246.307 222.84C245.6 222.676 244.77 222.241 243.818 221.534C242.867 220.827 242.119 219.916 241.575 218.801C240.405 216.57 239.82 213.347 239.82 209.132C239.82 204.399 240.595 200.795 242.146 198.32ZM251.325 197.831C250.509 196.96 249.544 196.525 248.429 196.525C247.286 196.525 246.307 196.96 245.491 197.831C244.811 198.538 244.362 199.517 244.145 200.768C243.927 202.019 243.818 204.63 243.818 208.601C243.818 212.899 243.927 215.727 244.145 217.087C244.362 218.447 244.852 219.521 245.614 220.31C246.375 221.126 247.314 221.534 248.429 221.534C249.517 221.534 250.441 221.126 251.203 220.31C251.992 219.494 252.481 218.352 252.672 216.883C252.862 215.414 252.971 212.654 252.998 208.601C252.998 204.657 252.889 202.06 252.672 200.809C252.454 199.558 252.005 198.565 251.325 197.831Z" fill="white"/>
<path d="M297.843 185.224H158.217V182.776H297.843V185.224Z" fill="white"/>
<path d="M316.355 180.043C316.355 179.689 316.546 179.417 316.927 179.227H342.915C343.323 179.444 343.527 179.716 343.527 180.043C343.527 180.342 343.336 180.6 342.956 180.818L329.982 180.859H317.008C316.573 180.723 316.355 180.451 316.355 180.043ZM316.355 187.958C316.355 187.55 316.573 187.278 317.008 187.142H342.956C343.336 187.414 343.527 187.686 343.527 187.958C343.527 188.311 343.323 188.583 342.915 188.774H316.927C316.546 188.583 316.355 188.311 316.355 187.958Z" fill="white"/>
<path d="M362.323 175.31C361.589 175.31 361.018 175.079 360.61 174.617C360.202 174.154 359.984 173.556 359.957 172.822C359.957 171.326 360.61 169.993 361.915 168.823C363.221 167.654 364.798 167.069 366.648 167.069C367.6 167.069 368.198 167.083 368.443 167.11C370.456 167.436 371.992 168.157 373.053 169.272C374.114 170.387 374.658 171.598 374.685 172.903C374.685 174.318 374.223 175.691 373.298 177.024C372.373 178.357 371.095 179.322 369.463 179.92L369.341 180.002C369.341 180.029 369.463 180.07 369.708 180.124C369.952 180.179 370.347 180.301 370.891 180.492C371.435 180.682 371.952 180.968 372.441 181.348C374.671 182.79 375.787 184.694 375.787 187.06C375.787 189.209 374.943 191.085 373.257 192.69C371.571 194.295 369.436 195.097 366.852 195.097C364.676 195.097 362.799 194.512 361.222 193.343C359.644 192.173 358.855 190.691 358.855 188.896C358.855 188.134 359.1 187.522 359.59 187.06C360.079 186.598 360.691 186.353 361.426 186.326C362.187 186.326 362.813 186.57 363.302 187.06C363.792 187.55 364.037 188.162 364.037 188.896C364.037 189.195 363.996 189.467 363.914 189.712C363.833 189.957 363.738 190.174 363.629 190.365C363.52 190.555 363.37 190.718 363.18 190.854C362.99 190.99 362.826 191.099 362.69 191.181C362.554 191.262 362.418 191.317 362.282 191.344C362.146 191.371 362.038 191.412 361.956 191.466L361.793 191.507C363.18 192.731 364.866 193.343 366.852 193.343C368.348 193.343 369.477 192.622 370.238 191.181C370.7 190.283 370.932 188.91 370.932 187.06V186.244C370.932 183.66 370.061 181.933 368.321 181.063C367.913 180.9 367.083 180.804 365.832 180.777L364.118 180.736L363.996 180.655C363.942 180.573 363.914 180.356 363.914 180.002C363.914 179.512 364.023 179.268 364.241 179.268C365.002 179.268 365.791 179.2 366.607 179.064C367.532 178.928 368.375 178.357 369.137 177.35C369.898 176.344 370.279 174.821 370.279 172.781V172.454C370.279 170.904 369.803 169.83 368.851 169.231C368.253 168.851 367.613 168.66 366.933 168.66C366.063 168.66 365.261 168.81 364.526 169.109C363.792 169.408 363.275 169.721 362.976 170.047C362.677 170.374 362.527 170.537 362.527 170.537H362.65C362.731 170.564 362.84 170.591 362.976 170.619C363.112 170.646 363.248 170.714 363.384 170.823C363.52 170.931 363.683 171.027 363.874 171.108C364.064 171.19 364.2 171.339 364.282 171.557C364.363 171.774 364.472 171.978 364.608 172.169C364.744 172.359 364.785 172.631 364.73 172.985C364.73 173.583 364.54 174.114 364.159 174.576C363.778 175.038 363.166 175.283 362.323 175.31Z" fill="white"/>
<path d="M380.725 191.752C380.725 191.099 380.956 190.528 381.418 190.038C381.881 189.549 382.465 189.304 383.172 189.304C383.825 189.304 384.396 189.521 384.886 189.957C385.376 190.392 385.634 190.977 385.661 191.711C385.661 192.391 385.43 192.976 384.968 193.465C384.505 193.955 383.92 194.2 383.213 194.2C382.506 194.2 381.921 193.968 381.459 193.506C380.997 193.044 380.752 192.459 380.725 191.752Z" fill="white"/>
<path d="M390.598 181.43C390.598 176.997 391.7 173.488 393.903 170.904C396.106 168.32 398.554 167.028 401.246 167.028C403.123 167.028 404.47 167.518 405.285 168.497C406.101 169.476 406.509 170.564 406.509 171.761C406.509 172.441 406.319 172.985 405.938 173.393C405.557 173.801 405.027 174.005 404.347 174.005C403.722 174.005 403.205 173.814 402.797 173.434C402.389 173.053 402.185 172.522 402.185 171.842C402.185 170.646 402.824 169.925 404.102 169.68C403.504 169.082 402.661 168.742 401.573 168.66C399.642 168.66 398.051 169.476 396.8 171.108C395.521 172.903 394.882 175.65 394.882 179.349L394.923 179.512C395.059 179.349 395.168 179.172 395.249 178.982C396.364 177.35 397.819 176.534 399.615 176.534H399.778C401.029 176.534 402.13 176.793 403.082 177.309C403.735 177.69 404.388 178.234 405.041 178.941C405.693 179.648 406.224 180.424 406.632 181.267C407.203 182.599 407.489 184.055 407.489 185.632V186.366C407.489 186.992 407.421 187.577 407.285 188.121C406.985 189.726 406.115 191.289 404.674 192.813C403.232 194.336 401.41 195.097 399.207 195.097C398.445 195.097 397.711 194.988 397.004 194.771C396.296 194.553 395.535 194.145 394.719 193.547C393.903 192.949 393.209 192.146 392.638 191.14C392.067 190.133 391.577 188.814 391.169 187.182C390.761 185.551 390.571 183.633 390.598 181.43ZM399.37 178.003C398.554 178.003 397.847 178.234 397.248 178.697C396.65 179.159 396.188 179.771 395.861 180.532C395.535 181.294 395.304 182.069 395.168 182.858C395.032 183.647 394.95 184.49 394.923 185.387C394.923 187.645 395.086 189.263 395.412 190.242C395.739 191.221 396.256 192.01 396.963 192.609C397.615 193.098 398.336 193.343 399.125 193.343C400.512 193.343 401.573 192.826 402.307 191.793C402.661 191.303 402.906 190.691 403.042 189.957C403.178 189.222 403.246 187.794 403.246 185.673C403.246 183.497 403.178 182.042 403.042 181.308C402.906 180.573 402.661 179.961 402.307 179.472C401.573 178.493 400.594 178.003 399.37 178.003Z" fill="white"/>
</svg>
