<svg viewBox="0 0 738 184" fill="none" xmlns="http://www.w3.org/2000/svg">
<g id="0125210">
<g id="Group">
<g id="Group 172">
<g id="Group_2">
<path id="Vector" d="M34.6769 7.51093L34.1092 7.72927C33.7016 7.87483 33.1194 8.02039 32.3624 8.16595C31.6055 8.31151 30.7613 8.4134 29.8297 8.47162H29V6.46289H29.8297C31.198 6.40467 32.4643 6.18632 33.6288 5.80787C34.7933 5.42941 35.6084 5.08007 36.0742 4.75983C36.54 4.4396 36.9476 4.11937 37.2969 3.79914C37.3552 3.7118 37.5298 3.66813 37.821 3.66813C38.083 3.66813 38.3304 3.75547 38.5633 3.93014V16.9869L38.607 30.0873C38.8108 30.2911 38.9854 30.4221 39.131 30.4804C39.2766 30.5386 39.6259 30.5968 40.179 30.655C40.7322 30.7133 41.6346 30.7424 42.8865 30.7424H44.0218V32.7511H43.5415C42.9301 32.6638 40.6157 32.6201 36.5983 32.6201C32.639 32.6201 30.3537 32.6638 29.7424 32.7511H29.2183V30.7424H30.3537C30.9942 30.7424 31.5473 30.7424 32.0131 30.7424C32.4789 30.7424 32.8428 30.7278 33.1048 30.6987C33.3668 30.6696 33.5997 30.6259 33.8035 30.5677C34.0073 30.5095 34.1237 30.4804 34.1528 30.4804C34.182 30.4804 34.2693 30.4076 34.4148 30.262C34.5604 30.1165 34.6477 30.0582 34.6769 30.0873V7.51093Z" fill="white"/>
<path id="Vector_2" d="M49.6094 12.7511C49.6385 12.6929 49.8859 11.1063 50.3517 7.99127L51.0504 3.31878C51.0504 3.26055 51.3415 3.23144 51.9238 3.23144H52.7971V3.40612C52.7971 3.69724 53.0155 3.94469 53.4522 4.14847C53.8889 4.35226 54.6458 4.48326 55.7229 4.54149C56.8001 4.59971 59.26 4.62882 63.1028 4.62882H68.3867V6.33188L65.4172 10.393C65.1552 10.7424 64.7185 11.3246 64.1072 12.1397C63.4958 12.9549 63.1028 13.4935 62.9282 13.7555C62.7535 14.0175 62.4478 14.4833 62.0111 15.1528C61.5744 15.8224 61.2833 16.3464 61.1378 16.7249C60.9922 17.1034 60.7884 17.6419 60.5264 18.3406C60.2644 19.0393 60.0752 19.7089 59.9587 20.3493C59.8423 20.9898 59.7258 21.7758 59.6094 22.7074C59.4929 23.639 59.4056 24.6288 59.3474 25.6769C59.2891 26.7249 59.2455 27.9185 59.2164 29.2576C59.2164 29.6652 59.2164 30.0728 59.2164 30.4804C59.2164 30.8879 59.2018 31.2373 59.1727 31.5284V31.9214C59.0562 32.4163 58.7797 32.8384 58.343 33.1878C57.9063 33.5371 57.4114 33.7118 56.8583 33.7118C56.5381 33.7118 56.2324 33.6681 55.9413 33.5808C55.6501 33.4935 55.3445 33.2169 55.0242 32.7511C54.704 32.2853 54.5439 31.7031 54.5439 31.0044C54.5439 26.4047 55.9558 21.6303 58.7797 16.6812C59.3619 15.7496 60.5846 13.9884 62.4478 11.3974L64.4565 8.64629H60.3954C55.3299 8.64629 52.6661 8.73363 52.4041 8.9083C52.2295 8.99563 52.0693 9.34498 51.9238 9.95633C51.7782 10.5677 51.6327 11.1936 51.4871 11.8341L51.3561 12.7511V12.8821H49.6094V12.7511Z" fill="white"/>
<path id="Vector_3" d="M72.097 14.5415C72.097 14.5415 72.097 13.4207 72.097 11.179C72.097 8.93741 72.883 7.13246 74.4551 5.76419C76.0271 4.39592 77.8321 3.69723 79.8699 3.66812C81.9369 3.66812 83.771 4.27948 85.3721 5.50218C86.9733 6.72489 87.7739 8.3115 87.7739 10.262C87.7739 11.1354 87.6137 11.9505 87.2935 12.7074C86.9733 13.4643 86.5948 14.0757 86.1581 14.5415C85.7215 15.0073 85.2702 15.4148 84.8044 15.7642C84.3386 16.1135 83.9602 16.3755 83.6691 16.5502C83.3779 16.7249 83.2178 16.8413 83.1887 16.8996L83.8001 17.2926C84.2076 17.5837 84.6152 17.8748 85.0228 18.1659C85.4303 18.4571 85.6632 18.6172 85.7215 18.6463C87.9049 20.3639 88.9966 22.5328 88.9966 25.1528C88.9966 27.4527 88.1523 29.4469 86.4638 31.1354C84.7753 32.8239 82.5919 33.6827 79.9136 33.7118C77.2935 33.7118 75.1392 32.9694 73.4507 31.4847C71.7622 30 70.918 28.1659 70.918 25.9825C70.918 22.8384 72.7957 20.2183 76.5512 18.1223L75.7651 17.5546C75.1538 17.1761 74.7608 16.885 74.5861 16.6812C72.9267 15.2547 72.097 13.4207 72.097 11.179V14.5415ZM81.5293 15.8952L81.7913 15.7205C81.966 15.6041 82.097 15.5167 82.1843 15.4585C82.2717 15.4003 82.4172 15.2984 82.621 15.1528C82.8248 15.0073 82.9995 14.8617 83.145 14.7162C83.2906 14.5706 83.4507 14.3959 83.6254 14.1921C83.8001 13.9884 83.9602 13.7991 84.1057 13.6245C84.2513 13.4498 84.3969 13.2169 84.5424 12.9258C84.688 12.6346 84.819 12.3872 84.9354 12.1834C85.0519 11.9796 85.1247 11.6885 85.1538 11.31C85.1829 10.9316 85.212 10.6114 85.2411 10.3493C85.2411 9.09753 84.819 8.03493 83.9747 7.16157C83.1305 6.28821 82.1552 5.73508 81.049 5.50218C80.8452 5.47307 80.3648 5.45852 79.6079 5.45852C78.4143 5.45852 77.2935 5.83697 76.2455 6.59389C75.1974 7.3508 74.6589 8.29694 74.6298 9.43231C74.6298 10.1019 74.819 10.7132 75.1974 11.2664C75.5759 11.8195 75.9544 12.2416 76.3328 12.5328C76.7113 12.8239 77.4391 13.2897 78.5162 13.9301C78.72 14.0757 78.8801 14.1776 78.9966 14.2358L81.5293 15.8952ZM79.9573 31.8341C81.6458 31.8341 83.1014 31.3392 84.3241 30.3493C85.5468 29.3595 86.1581 28.1659 86.1581 26.7686C86.1581 26.2737 86.0854 25.8079 85.9398 25.3712C85.7942 24.9345 85.6196 24.5706 85.4158 24.2795C85.212 23.9884 84.8918 23.6681 84.4551 23.3188C84.0184 22.9694 83.6836 22.7074 83.4507 22.5328C83.2178 22.3581 82.7957 22.0815 82.1843 21.7031C81.573 21.3246 81.18 21.0771 81.0053 20.9607C80.5977 20.6987 80.1611 20.4221 79.6953 20.131C79.2295 19.8399 78.851 19.5924 78.5599 19.3886L78.2105 19.1703C78.0359 19.1703 77.6137 19.4178 76.9442 19.9127C76.2746 20.4076 75.5759 21.2082 74.8481 22.3144C74.1203 23.4207 73.7418 24.6143 73.7127 25.8952C73.7127 27.6128 74.3386 29.0247 75.5905 30.131C76.8423 31.2373 78.2979 31.805 79.9573 31.8341Z" fill="white"/>
</g>
<g id="Group_3">
<path id="Vector_4" d="M111.186 6.33191C110.109 6.33191 109.076 6.2009 108.086 5.93889C107.096 5.67688 106.31 5.41488 105.728 5.15287C105.146 4.89086 104.84 4.75985 104.811 4.75985C105.189 5.72055 105.379 7.07426 105.379 8.82099C105.379 11.4411 104.811 13.5517 103.676 15.1529C102.54 16.754 101.216 17.5692 99.7017 17.5983C98.0423 17.5983 96.5722 16.7977 95.2912 15.1965C94.0103 13.5954 93.3553 11.4702 93.3262 8.82099C93.3262 6.23001 93.9812 4.11939 95.2912 2.48911C96.6013 0.858833 98.0714 0.0291388 99.7017 2.67029e-05C100.837 2.67029e-05 101.856 0.451266 102.758 1.35374C105.291 3.59537 108.086 4.71618 111.143 4.71618C114.52 4.71618 117.227 3.40614 119.265 0.786053C119.614 0.320259 119.876 0.0728094 120.051 0.0436974C120.109 0.0145853 120.182 2.67029e-05 120.269 2.67029e-05C120.531 2.67029e-05 120.75 0.101921 120.924 0.305706C121.099 0.509491 121.172 0.756941 121.143 1.04806C106.15 23.5517 98.5372 34.8763 98.3043 35.0219C98.1879 35.1383 98.0423 35.1965 97.8677 35.1965C97.4892 35.1965 97.2272 35.0364 97.0816 34.7162C96.9361 34.4542 96.9361 34.1922 97.0816 33.9302C97.1107 33.8428 100.328 29.0248 106.732 19.476C109.818 14.8763 112.176 11.3537 113.807 8.90833C115.437 6.46291 116.252 5.2402 116.252 5.2402C114.709 5.968 113.02 6.33191 111.186 6.33191ZM99.9201 15.9389C100.735 15.9389 101.55 15.3275 102.365 14.1048C103.181 12.8821 103.603 11.1208 103.632 8.82099C103.632 6.81225 103.268 5.12375 102.54 3.75549C101.812 2.38722 100.837 1.68853 99.6144 1.65942C99.4106 1.65942 99.2068 1.70308 99.003 1.79042C98.7992 1.87776 98.5227 2.03787 98.1733 2.27077C97.824 2.50367 97.5329 2.94035 97.3 3.58081C97.0671 4.22128 96.8778 4.99275 96.7323 5.89522C96.6741 6.47747 96.6449 7.45272 96.6449 8.82099V9.73802C96.6449 12.3872 97.1253 14.1922 98.086 15.1529C98.61 15.6769 99.1631 15.9389 99.7454 15.9389H99.9201ZM112.715 26.3756C112.715 23.8137 113.355 21.7176 114.636 20.0874C115.917 18.4571 117.416 17.6274 119.134 17.5983C120.648 17.5983 121.958 18.3989 123.064 20C124.17 21.6012 124.738 23.7264 124.767 26.3756C124.796 29.0248 124.229 31.15 123.064 32.7511C121.9 34.3523 120.575 35.1674 119.09 35.1965C117.46 35.1965 115.99 34.3814 114.68 32.7511C113.37 31.1208 112.715 28.9957 112.715 26.3756ZM119.309 33.5371C120.124 33.5371 120.939 32.9258 121.754 31.7031C122.569 30.4804 122.991 28.7045 123.02 26.3756C123.02 24.3668 122.657 22.6783 121.929 21.3101C121.201 19.9418 120.226 19.2577 119.003 19.2577C118.799 19.2577 118.595 19.3013 118.392 19.3887C118.188 19.476 117.911 19.6361 117.562 19.869C117.213 20.1019 116.922 20.5386 116.689 21.1791C116.456 21.8195 116.266 22.591 116.121 23.4935C116.092 23.8428 116.077 24.8035 116.077 26.3756V27.3363C116.077 31.4702 117.096 33.5371 119.134 33.5371H119.309Z" fill="white"/>
</g>
<g id="Group_4">
<path id="Vector_5" d="M164.465 31.4847C164.465 32.067 164.159 32.3581 163.548 32.3581C163.402 32.3581 163.082 32.1252 162.587 31.6594C162.092 31.1936 160.724 29.8399 158.482 27.5983L153.941 23.0568L149.356 27.6419C146.27 30.6696 144.683 32.2125 144.596 32.2708C144.479 32.329 144.377 32.3581 144.29 32.3581C144.057 32.3581 143.853 32.2708 143.679 32.0961C143.504 31.9214 143.402 31.7176 143.373 31.4847C143.373 31.2809 143.577 30.9607 143.984 30.524C144.392 30.0874 145.76 28.7045 148.089 26.3756L152.631 21.8341L148.089 17.2926C145.731 14.9345 144.363 13.5517 143.984 13.1441C143.606 12.7366 143.402 12.4163 143.373 12.1834C143.373 11.9214 143.46 11.7176 143.635 11.5721C143.81 11.4265 144.028 11.3537 144.29 11.3537C144.436 11.3537 144.538 11.3683 144.596 11.3974C144.683 11.4556 146.27 12.9986 149.356 16.0262L153.941 20.6114L158.482 16.0699C160.724 13.8283 162.092 12.4745 162.587 12.0087C163.082 11.543 163.402 11.3101 163.548 11.3101C164.159 11.3101 164.465 11.6012 164.465 12.1834C164.465 12.3872 164.319 12.6492 164.028 12.9694C163.737 13.2897 162.31 14.7162 159.749 17.2489L155.207 21.8341L159.749 26.4192C162.194 28.8646 163.591 30.2766 163.941 30.655C164.29 31.0335 164.465 31.3101 164.465 31.4847Z" fill="white"/>
</g>
<g id="Group_5">
<path id="Vector_6" d="M189.932 7.51093L189.364 7.72927C188.956 7.87483 188.374 8.02039 187.617 8.16595C186.86 8.31151 186.016 8.4134 185.085 8.47162H184.255V6.46289H185.085C186.453 6.40467 187.719 6.18632 188.884 5.80787C190.048 5.42941 190.863 5.08007 191.329 4.75983C191.795 4.4396 192.202 4.11937 192.552 3.79914C192.61 3.7118 192.785 3.66813 193.076 3.66813C193.338 3.66813 193.585 3.75547 193.818 3.93014V16.9869L193.862 30.0873C194.066 30.2911 194.24 30.4221 194.386 30.4804C194.531 30.5386 194.881 30.5968 195.434 30.655C195.987 30.7133 196.89 30.7424 198.141 30.7424H199.277V32.7511H198.796C198.185 32.6638 195.871 32.6201 191.853 32.6201C187.894 32.6201 185.609 32.6638 184.997 32.7511H184.473V30.7424H185.609C186.249 30.7424 186.802 30.7424 187.268 30.7424C187.734 30.7424 188.098 30.7278 188.36 30.6987C188.622 30.6696 188.855 30.6259 189.058 30.5677C189.262 30.5095 189.379 30.4804 189.408 30.4804C189.437 30.4804 189.524 30.4076 189.67 30.262C189.815 30.1165 189.903 30.0582 189.932 30.0873V7.51093Z" fill="white"/>
<path id="Vector_7" d="M211.768 7.51093L211.2 7.72927C210.792 7.87483 210.21 8.02039 209.453 8.16595C208.696 8.31151 207.852 8.4134 206.921 8.47162H206.091V6.46289H206.921C208.289 6.40467 209.555 6.18632 210.72 5.80787C211.884 5.42941 212.699 5.08007 213.165 4.75983C213.631 4.4396 214.038 4.11937 214.388 3.79914C214.446 3.7118 214.621 3.66813 214.912 3.66813C215.174 3.66813 215.421 3.75547 215.654 3.93014V16.9869L215.698 30.0873C215.902 30.2911 216.076 30.4221 216.222 30.4804C216.367 30.5386 216.717 30.5968 217.27 30.655C217.823 30.7133 218.725 30.7424 219.977 30.7424H221.113V32.7511H220.632C220.021 32.6638 217.707 32.6201 213.689 32.6201C209.73 32.6201 207.445 32.6638 206.833 32.7511H206.309V30.7424H207.445C208.085 30.7424 208.638 30.7424 209.104 30.7424C209.57 30.7424 209.934 30.7278 210.196 30.6987C210.458 30.6696 210.691 30.6259 210.894 30.5677C211.098 30.5095 211.215 30.4804 211.244 30.4804C211.273 30.4804 211.36 30.4076 211.506 30.262C211.651 30.1165 211.739 30.0582 211.768 30.0873V7.51093Z" fill="white"/>
<path id="Vector_8" d="M226.7 12.7511C226.729 12.6929 226.977 11.1063 227.443 7.99127L228.141 3.31878C228.141 3.26055 228.432 3.23144 229.015 3.23144H229.888V3.40612C229.888 3.69724 230.106 3.94469 230.543 4.14847C230.98 4.35226 231.737 4.48326 232.814 4.54149C233.891 4.59971 236.351 4.62882 240.194 4.62882H245.477V6.33188L242.508 10.393C242.246 10.7424 241.809 11.3246 241.198 12.1397C240.587 12.9549 240.194 13.4935 240.019 13.7555C239.844 14.0175 239.539 14.4833 239.102 15.1528C238.665 15.8224 238.374 16.3464 238.229 16.7249C238.083 17.1034 237.879 17.6419 237.617 18.3406C237.355 19.0393 237.166 19.7089 237.05 20.3493C236.933 20.9898 236.817 21.7758 236.7 22.7074C236.584 23.639 236.496 24.6288 236.438 25.6769C236.38 26.7249 236.336 27.9185 236.307 29.2576C236.307 29.6652 236.307 30.0728 236.307 30.4804C236.307 30.8879 236.293 31.2373 236.264 31.5284V31.9214C236.147 32.4163 235.871 32.8384 235.434 33.1878C234.997 33.5371 234.502 33.7118 233.949 33.7118C233.629 33.7118 233.323 33.6681 233.032 33.5808C232.741 33.4935 232.435 33.2169 232.115 32.7511C231.795 32.2853 231.635 31.7031 231.635 31.0044C231.635 26.4047 233.047 21.6303 235.871 16.6812C236.453 15.7496 237.675 13.9884 239.539 11.3974L241.547 8.64629H237.486C232.421 8.64629 229.757 8.73363 229.495 8.9083C229.32 8.99563 229.16 9.34498 229.015 9.95633C228.869 10.5677 228.723 11.1936 228.578 11.8341L228.447 12.7511V12.8821H226.7V12.7511Z" fill="white"/>
</g>
<g id="Group_6">
<path id="Vector_9" d="M266.441 6.33191C265.364 6.33191 264.331 6.2009 263.341 5.93889C262.351 5.67688 261.565 5.41488 260.983 5.15287C260.401 4.89086 260.095 4.75985 260.066 4.75985C260.444 5.72055 260.633 7.07426 260.633 8.82099C260.633 11.4411 260.066 13.5517 258.93 15.1529C257.795 16.754 256.47 17.5692 254.957 17.5983C253.297 17.5983 251.827 16.7977 250.546 15.1965C249.265 13.5954 248.61 11.4702 248.581 8.82099C248.581 6.23001 249.236 4.11939 250.546 2.48911C251.856 0.858833 253.326 0.0291388 254.957 2.67029e-05C256.092 2.67029e-05 257.111 0.451266 258.013 1.35374C260.546 3.59537 263.341 4.71618 266.398 4.71618C269.775 4.71618 272.482 3.40614 274.52 0.786053C274.869 0.320259 275.131 0.0728094 275.306 0.0436974C275.364 0.0145853 275.437 2.67029e-05 275.524 2.67029e-05C275.786 2.67029e-05 276.005 0.101921 276.179 0.305706C276.354 0.509491 276.427 0.756941 276.398 1.04806C261.405 23.5517 253.792 34.8763 253.559 35.0219C253.443 35.1383 253.297 35.1965 253.123 35.1965C252.744 35.1965 252.482 35.0364 252.337 34.7162C252.191 34.4542 252.191 34.1922 252.337 33.9302C252.366 33.8428 255.583 29.0248 261.987 19.476C265.073 14.8763 267.431 11.3537 269.061 8.90833C270.692 6.46291 271.507 5.2402 271.507 5.2402C269.964 5.968 268.275 6.33191 266.441 6.33191ZM255.175 15.9389C255.99 15.9389 256.805 15.3275 257.62 14.1048C258.435 12.8821 258.858 11.1208 258.887 8.82099C258.887 6.81225 258.523 5.12375 257.795 3.75549C257.067 2.38722 256.092 1.68853 254.869 1.65942C254.665 1.65942 254.462 1.70308 254.258 1.79042C254.054 1.87776 253.778 2.03787 253.428 2.27077C253.079 2.50367 252.788 2.94035 252.555 3.58081C252.322 4.22128 252.133 4.99275 251.987 5.89522C251.929 6.47747 251.9 7.45272 251.9 8.82099V9.73802C251.9 12.3872 252.38 14.1922 253.341 15.1529C253.865 15.6769 254.418 15.9389 255 15.9389H255.175ZM267.97 26.3756C267.97 23.8137 268.61 21.7176 269.891 20.0874C271.172 18.4571 272.671 17.6274 274.389 17.5983C275.903 17.5983 277.213 18.3989 278.319 20C279.425 21.6012 279.993 23.7264 280.022 26.3756C280.051 29.0248 279.484 31.15 278.319 32.7511C277.155 34.3523 275.83 35.1674 274.345 35.1965C272.715 35.1965 271.245 34.3814 269.935 32.7511C268.625 31.1208 267.97 28.9957 267.97 26.3756ZM274.564 33.5371C275.379 33.5371 276.194 32.9258 277.009 31.7031C277.824 30.4804 278.246 28.7045 278.275 26.3756C278.275 24.3668 277.911 22.6783 277.184 21.3101C276.456 19.9418 275.481 19.2577 274.258 19.2577C274.054 19.2577 273.85 19.3013 273.647 19.3887C273.443 19.476 273.166 19.6361 272.817 19.869C272.468 20.1019 272.176 20.5386 271.943 21.1791C271.711 21.8195 271.521 22.591 271.376 23.4935C271.347 23.8428 271.332 24.8035 271.332 26.3756V27.3363C271.332 31.4702 272.351 33.5371 274.389 33.5371H274.564Z" fill="white"/>
</g>
<g id="Group_7">
<path id="Vector_10" d="M319.732 31.4847C319.732 32.067 319.427 32.3581 318.815 32.3581C318.67 32.3581 318.35 32.1252 317.855 31.6594C317.36 31.1936 315.991 29.8399 313.75 27.5983L309.208 23.0568L304.623 27.6419C301.537 30.6696 299.951 32.2125 299.863 32.2708C299.747 32.329 299.645 32.3581 299.558 32.3581C299.325 32.3581 299.121 32.2708 298.946 32.0961C298.772 31.9214 298.67 31.7176 298.641 31.4847C298.641 31.2809 298.844 30.9607 299.252 30.524C299.66 30.0874 301.028 28.7045 303.357 26.3756L307.898 21.8341L303.357 17.2926C300.999 14.9345 299.63 13.5517 299.252 13.1441C298.874 12.7366 298.67 12.4163 298.641 12.1834C298.641 11.9214 298.728 11.7176 298.903 11.5721C299.077 11.4265 299.296 11.3537 299.558 11.3537C299.703 11.3537 299.805 11.3683 299.863 11.3974C299.951 11.4556 301.537 12.9986 304.623 16.0262L309.208 20.6114L313.75 16.0699C315.991 13.8283 317.36 12.4745 317.855 12.0087C318.35 11.543 318.67 11.3101 318.815 11.3101C319.427 11.3101 319.732 11.6012 319.732 12.1834C319.732 12.3872 319.587 12.6492 319.296 12.9694C319.005 13.2897 317.578 14.7162 315.016 17.2489L310.475 21.8341L315.016 26.4192C317.462 28.8646 318.859 30.2766 319.208 30.655C319.558 31.0335 319.732 31.3101 319.732 31.4847Z" fill="white"/>
</g>
<g id="Group_8">
<path id="Vector_11" d="M345.199 7.51093L344.632 7.72927C344.224 7.87483 343.642 8.02039 342.885 8.16595C342.128 8.31151 341.284 8.4134 340.352 8.47162H339.522V6.46289H340.352C341.72 6.40467 342.987 6.18632 344.151 5.80787C345.316 5.42941 346.131 5.08007 346.597 4.75983C347.062 4.4396 347.47 4.11937 347.819 3.79914C347.878 3.7118 348.052 3.66813 348.343 3.66813C348.605 3.66813 348.853 3.75547 349.086 3.93014V16.9869L349.129 30.0873C349.333 30.2911 349.508 30.4221 349.653 30.4804C349.799 30.5386 350.148 30.5968 350.702 30.655C351.255 30.7133 352.157 30.7424 353.409 30.7424H354.544V32.7511H354.064C353.453 32.6638 351.138 32.6201 347.121 32.6201C343.161 32.6201 340.876 32.6638 340.265 32.7511H339.741V30.7424H340.876C341.517 30.7424 342.07 30.7424 342.536 30.7424C343.001 30.7424 343.365 30.7278 343.627 30.6987C343.889 30.6696 344.122 30.6259 344.326 30.5677C344.53 30.5095 344.646 30.4804 344.675 30.4804C344.704 30.4804 344.792 30.4076 344.937 30.262C345.083 30.1165 345.17 30.0582 345.199 30.0873V7.51093Z" fill="white"/>
<path id="Vector_12" d="M367.036 7.51093L366.469 7.72927C366.061 7.87483 365.479 8.02039 364.722 8.16595C363.965 8.31151 363.121 8.4134 362.189 8.47162H361.359V6.46289H362.189C363.557 6.40467 364.824 6.18632 365.988 5.80787C367.153 5.42941 367.968 5.08007 368.434 4.75983C368.899 4.4396 369.307 4.11937 369.656 3.79914C369.715 3.7118 369.889 3.66813 370.18 3.66813C370.442 3.66813 370.69 3.75547 370.923 3.93014V16.9869L370.966 30.0873C371.17 30.2911 371.345 30.4221 371.49 30.4804C371.636 30.5386 371.985 30.5968 372.538 30.655C373.092 30.7133 373.994 30.7424 375.246 30.7424H376.381V32.7511H375.901C375.29 32.6638 372.975 32.6201 368.958 32.6201C364.998 32.6201 362.713 32.6638 362.102 32.7511H361.578V30.7424H362.713C363.354 30.7424 363.907 30.7424 364.372 30.7424C364.838 30.7424 365.202 30.7278 365.464 30.6987C365.726 30.6696 365.959 30.6259 366.163 30.5677C366.367 30.5095 366.483 30.4804 366.512 30.4804C366.541 30.4804 366.629 30.4076 366.774 30.262C366.92 30.1165 367.007 30.0582 367.036 30.0873V7.51093Z" fill="white"/>
<path id="Vector_13" d="M399.738 32.7511C399.214 32.6638 397.336 32.6201 394.105 32.6201C390.728 32.6201 388.777 32.6638 388.253 32.7511H387.86V30.7424H389.214C389.796 30.7424 390.189 30.7424 390.393 30.7424C390.597 30.7424 390.844 30.7133 391.135 30.655C391.427 30.5968 391.63 30.524 391.747 30.4367C391.863 30.3494 391.965 30.2329 392.053 30.0873C392.082 30.0291 392.096 29.2431 392.096 27.7293V25.5459H380.786V23.5371L387.38 13.4498C391.834 6.69579 394.09 3.30423 394.149 3.27512C394.207 3.21689 394.512 3.18778 395.066 3.18778H395.852L396.114 3.44979V23.5371H400.131V25.5459H396.114V27.7729C396.114 28.9665 396.114 29.6652 396.114 29.869C396.114 30.0728 396.201 30.2475 396.376 30.393C396.609 30.5968 397.438 30.7133 398.865 30.7424H400.131V32.7511H399.738ZM392.358 23.5371V8.95197L382.795 23.4935L387.555 23.5371H392.358Z" fill="white"/>
</g>
<g id="Group_9">
<path id="Vector_14" d="M421.703 6.33191C420.626 6.33191 419.592 6.2009 418.603 5.93889C417.613 5.67688 416.827 5.41488 416.245 5.15287C415.662 4.89086 415.357 4.75985 415.327 4.75985C415.706 5.72055 415.895 7.07426 415.895 8.82099C415.895 11.4411 415.327 13.5517 414.192 15.1529C413.057 16.754 411.732 17.5692 410.218 17.5983C408.559 17.5983 407.089 16.7977 405.808 15.1965C404.527 13.5954 403.872 11.4702 403.843 8.82099C403.843 6.23001 404.498 4.11939 405.808 2.48911C407.118 0.858833 408.588 0.0291388 410.218 2.67029e-05C411.354 2.67029e-05 412.373 0.451266 413.275 1.35374C415.808 3.59537 418.603 4.71618 421.659 4.71618C425.036 4.71618 427.744 3.40614 429.782 0.786053C430.131 0.320259 430.393 0.0728094 430.568 0.0436974C430.626 0.0145853 430.699 2.67029e-05 430.786 2.67029e-05C431.048 2.67029e-05 431.266 0.101921 431.441 0.305706C431.616 0.509491 431.688 0.756941 431.659 1.04806C416.667 23.5517 409.054 34.8763 408.821 35.0219C408.704 35.1383 408.559 35.1965 408.384 35.1965C408.006 35.1965 407.744 35.0364 407.598 34.7162C407.453 34.4542 407.453 34.1922 407.598 33.9302C407.627 33.8428 410.844 29.0248 417.249 19.476C420.335 14.8763 422.693 11.3537 424.323 8.90833C425.953 6.46291 426.769 5.2402 426.769 5.2402C425.226 5.968 423.537 6.33191 421.703 6.33191ZM410.437 15.9389C411.252 15.9389 412.067 15.3275 412.882 14.1048C413.697 12.8821 414.119 11.1208 414.148 8.82099C414.148 6.81225 413.785 5.12375 413.057 3.75549C412.329 2.38722 411.354 1.68853 410.131 1.65942C409.927 1.65942 409.723 1.70308 409.52 1.79042C409.316 1.87776 409.039 2.03787 408.69 2.27077C408.341 2.50367 408.049 2.94035 407.817 3.58081C407.584 4.22128 407.394 4.99275 407.249 5.89522C407.191 6.47747 407.162 7.45272 407.162 8.82099V9.73802C407.162 12.3872 407.642 14.1922 408.603 15.1529C409.127 15.6769 409.68 15.9389 410.262 15.9389H410.437ZM423.231 26.3756C423.231 23.8137 423.872 21.7176 425.153 20.0874C426.434 18.4571 427.933 17.6274 429.651 17.5983C431.164 17.5983 432.475 18.3989 433.581 20C434.687 21.6012 435.255 23.7264 435.284 26.3756C435.313 29.0248 434.745 31.15 433.581 32.7511C432.416 34.3523 431.092 35.1674 429.607 35.1965C427.977 35.1965 426.507 34.3814 425.196 32.7511C423.886 31.1208 423.231 28.9957 423.231 26.3756ZM429.825 33.5371C430.64 33.5371 431.456 32.9258 432.271 31.7031C433.086 30.4804 433.508 28.7045 433.537 26.3756C433.537 24.3668 433.173 22.6783 432.445 21.3101C431.718 19.9418 430.742 19.2577 429.52 19.2577C429.316 19.2577 429.112 19.3013 428.908 19.3887C428.704 19.476 428.428 19.6361 428.079 19.869C427.729 20.1019 427.438 20.5386 427.205 21.1791C426.972 21.8195 426.783 22.591 426.638 23.4935C426.608 23.8428 426.594 24.8035 426.594 26.3756V27.3363C426.594 31.4702 427.613 33.5371 429.651 33.5371H429.825Z" fill="white"/>
</g>
<g id="Group_10">
<path id="Vector_15" d="M474.987 31.4847C474.987 32.067 474.682 32.3581 474.07 32.3581C473.925 32.3581 473.604 32.1252 473.109 31.6594C472.615 31.1936 471.246 29.8399 469.005 27.5983L464.463 23.0568L459.878 27.6419C456.792 30.6696 455.206 32.2125 455.118 32.2708C455.002 32.329 454.9 32.3581 454.813 32.3581C454.58 32.3581 454.376 32.2708 454.201 32.0961C454.027 31.9214 453.925 31.7176 453.896 31.4847C453.896 31.2809 454.099 30.9607 454.507 30.524C454.914 30.0874 456.283 28.7045 458.612 26.3756L463.153 21.8341L458.612 17.2926C456.254 14.9345 454.885 13.5517 454.507 13.1441C454.128 12.7366 453.925 12.4163 453.896 12.1834C453.896 11.9214 453.983 11.7176 454.158 11.5721C454.332 11.4265 454.551 11.3537 454.813 11.3537C454.958 11.3537 455.06 11.3683 455.118 11.3974C455.206 11.4556 456.792 12.9986 459.878 16.0262L464.463 20.6114L469.005 16.0699C471.246 13.8283 472.615 12.4745 473.109 12.0087C473.604 11.543 473.925 11.3101 474.07 11.3101C474.682 11.3101 474.987 11.6012 474.987 12.1834C474.987 12.3872 474.842 12.6492 474.551 12.9694C474.259 13.2897 472.833 14.7162 470.271 17.2489L465.73 21.8341L470.271 26.4192C472.716 28.8646 474.114 30.2766 474.463 30.655C474.813 31.0335 474.987 31.3101 474.987 31.4847Z" fill="white"/>
</g>
<g id="Group_11">
<path id="Vector_16" d="M511.328 32.7511C510.804 32.6638 508.926 32.6201 505.695 32.6201C502.318 32.6201 500.367 32.6638 499.843 32.7511H499.45V30.7424H500.804C501.386 30.7424 501.779 30.7424 501.983 30.7424C502.187 30.7424 502.434 30.7133 502.725 30.655C503.016 30.5968 503.22 30.524 503.337 30.4367C503.453 30.3494 503.555 30.2329 503.642 30.0873C503.671 30.0291 503.686 29.2431 503.686 27.7293V25.5459H492.376V23.5371L498.97 13.4498C503.424 6.69579 505.68 3.30423 505.738 3.27512C505.797 3.21689 506.102 3.18778 506.655 3.18778H507.441L507.703 3.44979V23.5371H511.721V25.5459H507.703V27.7729C507.703 28.9665 507.703 29.6652 507.703 29.869C507.703 30.0728 507.791 30.2475 507.965 30.393C508.198 30.5968 509.028 30.7133 510.455 30.7424H511.721V32.7511H511.328ZM503.948 23.5371V8.95197L494.385 23.4935L499.145 23.5371H503.948Z" fill="white"/>
</g>
<g id="Group_12">
<path id="Vector_17" d="M526.888 7.20524C528.518 4.84716 530.745 3.66812 533.569 3.66812C534.966 3.66812 536.364 4.04658 537.761 4.80349C539.158 5.56041 540.294 6.89956 541.167 8.82096C542.244 11.2373 542.783 14.556 542.783 18.7773C542.783 23.2897 542.157 26.7394 540.905 29.1266C540.323 30.3493 539.522 31.3246 538.503 32.0524C537.484 32.7802 536.596 33.2314 535.839 33.4061C535.083 33.5808 534.34 33.6827 533.612 33.7118C532.855 33.7118 532.099 33.6245 531.342 33.4498C530.585 33.2751 529.697 32.8093 528.678 32.0524C527.659 31.2955 526.858 30.3202 526.276 29.1266C525.024 26.7394 524.398 23.2897 524.398 18.7773C524.398 13.7118 525.228 9.85444 526.888 7.20524ZM536.713 6.68122C535.839 5.74964 534.806 5.28384 533.612 5.28384C532.39 5.28384 531.342 5.74964 530.468 6.68122C529.741 7.43814 529.26 8.48617 529.027 9.82533C528.794 11.1645 528.678 13.9592 528.678 18.2096C528.678 22.8093 528.794 25.837 529.027 27.2926C529.26 28.7482 529.784 29.8981 530.599 30.7424C531.414 31.6157 532.419 32.0524 533.612 32.0524C534.777 32.0524 535.767 31.6157 536.582 30.7424C537.426 29.869 537.95 28.6463 538.154 27.0742C538.358 25.5022 538.474 22.5473 538.503 18.2096C538.503 13.9884 538.387 11.2082 538.154 9.869C537.921 8.52984 537.441 7.46725 536.713 6.68122Z" fill="white"/>
<path id="Vector_18" d="M548.724 7.20524C550.355 4.84716 552.582 3.66812 555.406 3.66812C556.803 3.66812 558.2 4.04658 559.598 4.80349C560.995 5.56041 562.131 6.89956 563.004 8.82096C564.081 11.2373 564.62 14.556 564.62 18.7773C564.62 23.2897 563.994 26.7394 562.742 29.1266C562.16 30.3493 561.359 31.3246 560.34 32.0524C559.321 32.7802 558.433 33.2314 557.676 33.4061C556.919 33.5808 556.177 33.6827 555.449 33.7118C554.692 33.7118 553.935 33.6245 553.179 33.4498C552.422 33.2751 551.534 32.8093 550.515 32.0524C549.496 31.2955 548.695 30.3202 548.113 29.1266C546.861 26.7394 546.235 23.2897 546.235 18.7773C546.235 13.7118 547.065 9.85444 548.724 7.20524ZM558.55 6.68122C557.676 5.74964 556.643 5.28384 555.449 5.28384C554.227 5.28384 553.179 5.74964 552.305 6.68122C551.577 7.43814 551.097 8.48617 550.864 9.82533C550.631 11.1645 550.515 13.9592 550.515 18.2096C550.515 22.8093 550.631 25.837 550.864 27.2926C551.097 28.7482 551.621 29.8981 552.436 30.7424C553.251 31.6157 554.256 32.0524 555.449 32.0524C556.614 32.0524 557.604 31.6157 558.419 30.7424C559.263 29.869 559.787 28.6463 559.991 27.0742C560.195 25.5022 560.311 22.5473 560.34 18.2096C560.34 13.9884 560.224 11.2082 559.991 9.869C559.758 8.52984 559.278 7.46725 558.55 6.68122Z" fill="white"/>
<path id="Vector_19" d="M570.554 7.20524C572.184 4.84716 574.411 3.66812 577.235 3.66812C578.632 3.66812 580.03 4.04658 581.427 4.80349C582.824 5.56041 583.96 6.89956 584.833 8.82096C585.91 11.2373 586.449 14.556 586.449 18.7773C586.449 23.2897 585.823 26.7394 584.571 29.1266C583.989 30.3493 583.188 31.3246 582.169 32.0524C581.15 32.7802 580.262 33.2314 579.506 33.4061C578.749 33.5808 578.006 33.6827 577.278 33.7118C576.522 33.7118 575.765 33.6245 575.008 33.4498C574.251 33.2751 573.363 32.8093 572.344 32.0524C571.325 31.2955 570.524 30.3202 569.942 29.1266C568.69 26.7394 568.064 23.2897 568.064 18.7773C568.064 13.7118 568.894 9.85444 570.554 7.20524ZM580.379 6.68122C579.506 5.74964 578.472 5.28384 577.278 5.28384C576.056 5.28384 575.008 5.74964 574.134 6.68122C573.407 7.43814 572.926 8.48617 572.693 9.82533C572.46 11.1645 572.344 13.9592 572.344 18.2096C572.344 22.8093 572.46 25.837 572.693 27.2926C572.926 28.7482 573.45 29.8981 574.265 30.7424C575.08 31.6157 576.085 32.0524 577.278 32.0524C578.443 32.0524 579.433 31.6157 580.248 30.7424C581.092 29.869 581.616 28.6463 581.82 27.0742C582.024 25.5022 582.14 22.5473 582.169 18.2096C582.169 13.9884 582.053 11.2082 581.82 9.869C581.587 8.52984 581.107 7.46725 580.379 6.68122Z" fill="white"/>
</g>
</g>
<g id="Group 171">
<g id="Group_13">
<g id="Group_14">
<path id="Vector_20" d="M13.6651 98.3232L13.0975 98.5415C12.6899 98.6871 12.1076 98.8326 11.3507 98.9782C10.5938 99.1238 9.74956 99.2257 8.81798 99.2839H7.98828V97.2751H8.81798C10.1862 97.2169 11.4526 96.9986 12.6171 96.6201C13.7816 96.2417 14.5967 95.8923 15.0625 95.5721C15.5283 95.2519 15.9359 94.9316 16.2852 94.6114C16.3434 94.5241 16.5181 94.4804 16.8092 94.4804C17.0713 94.4804 17.3187 94.5677 17.5516 94.7424V107.799L17.5953 120.9C17.7991 121.103 17.9737 121.234 18.1193 121.293C18.2648 121.351 18.6142 121.409 19.1673 121.467C19.7205 121.526 20.6229 121.555 21.8747 121.555H23.0101V123.563H22.5298C21.9184 123.476 19.604 123.432 15.5865 123.432C11.6273 123.432 9.34199 123.476 8.73064 123.563H8.20662V121.555H9.34199C9.98246 121.555 10.5356 121.555 11.0014 121.555C11.4672 121.555 11.8311 121.54 12.0931 121.511C12.3551 121.482 12.588 121.438 12.7918 121.38C12.9956 121.322 13.112 121.293 13.1411 121.293C13.1702 121.293 13.2576 121.22 13.4031 121.074C13.5487 120.929 13.636 120.87 13.6651 120.9V98.3232Z" fill="white"/>
<path id="Vector_21" d="M28.5977 103.563C28.6268 103.505 28.8742 101.919 29.34 98.8035L30.0387 94.131C30.0387 94.0728 30.3298 94.0437 30.9121 94.0437H31.7854V94.2184C31.7854 94.5095 32.0038 94.7569 32.4405 94.9607C32.8771 95.1645 33.634 95.2955 34.7112 95.3537C35.7883 95.412 38.2483 95.4411 42.0911 95.4411H47.3749V97.1441L44.4055 101.205C44.1435 101.555 43.7068 102.137 43.0955 102.952C42.4841 103.767 42.0911 104.306 41.9164 104.568C41.7418 104.83 41.4361 105.296 40.9994 105.965C40.5627 106.635 40.2716 107.159 40.126 107.537C39.9805 107.916 39.7767 108.454 39.5147 109.153C39.2527 109.852 39.0634 110.521 38.947 111.162C38.8306 111.802 38.7141 112.588 38.5977 113.52C38.4812 114.451 38.3939 115.441 38.3356 116.489C38.2774 117.537 38.2338 118.731 38.2046 120.07C38.2046 120.477 38.2046 120.885 38.2046 121.293C38.2046 121.7 38.1901 122.05 38.161 122.341V122.734C38.0445 123.229 37.768 123.651 37.3313 124C36.8946 124.349 36.3997 124.524 35.8466 124.524C35.5263 124.524 35.2207 124.48 34.9295 124.393C34.6384 124.306 34.3327 124.029 34.0125 123.563C33.6923 123.098 33.5322 122.515 33.5322 121.817C33.5322 117.217 34.9441 112.443 37.768 107.493C38.3502 106.562 39.5729 104.801 41.4361 102.21L43.4448 99.4585H39.3837C34.3182 99.4585 31.6544 99.5459 31.3924 99.7206C31.2177 99.8079 31.0576 100.157 30.9121 100.769C30.7665 101.38 30.6209 102.006 30.4754 102.646L30.3444 103.563V103.694H28.5977V103.563Z" fill="white"/>
<path id="Vector_22" d="M51.0921 105.354C51.0921 105.354 51.0921 104.233 51.0921 101.991C51.0921 99.7497 51.8782 97.9447 53.4502 96.5764C55.0223 95.2082 56.8272 94.5095 58.8651 94.4804C60.932 94.4804 62.7661 95.0917 64.3672 96.3144C65.9684 97.5371 66.769 99.1238 66.769 101.074C66.769 101.948 66.6089 102.763 66.2886 103.52C65.9684 104.277 65.5899 104.888 65.1533 105.354C64.7166 105.82 64.2653 106.227 63.7995 106.576C63.3338 106.926 62.9553 107.188 62.6642 107.362C62.3731 107.537 62.2129 107.654 62.1838 107.712L62.7952 108.105C63.2028 108.396 63.6103 108.687 64.0179 108.978C64.4255 109.269 64.6584 109.429 64.7166 109.459C66.9 111.176 67.9917 113.345 67.9917 115.965C67.9917 118.265 67.1474 120.259 65.4589 121.948C63.7704 123.636 61.587 124.495 58.9087 124.524C56.2886 124.524 54.1343 123.782 52.4458 122.297C50.7573 120.812 49.9131 118.978 49.9131 116.795C49.9131 113.651 51.7908 111.031 55.5463 108.935L54.7602 108.367C54.1489 107.988 53.7559 107.697 53.5812 107.493C51.9218 106.067 51.0921 104.233 51.0921 101.991V105.354ZM60.5244 106.707L60.7864 106.533C60.9611 106.416 61.0921 106.329 61.1795 106.271C61.2668 106.213 61.4124 106.111 61.6161 105.965C61.8199 105.82 61.9946 105.674 62.1402 105.528C62.2857 105.383 62.4458 105.208 62.6205 105.004C62.7952 104.801 62.9553 104.611 63.1009 104.437C63.2464 104.262 63.392 104.029 63.5375 103.738C63.6831 103.447 63.8141 103.199 63.9306 102.996C64.047 102.792 64.1198 102.501 64.1489 102.122C64.178 101.744 64.2071 101.424 64.2362 101.162C64.2362 99.9098 63.8141 98.8472 62.9699 97.9738C62.1256 97.1005 61.1503 96.5473 60.0441 96.3144C59.8403 96.2853 59.36 96.2708 58.603 96.2708C57.4094 96.2708 56.2886 96.6492 55.2406 97.4061C54.1926 98.1631 53.654 99.1092 53.6249 100.245C53.6249 100.914 53.8141 101.526 54.1926 102.079C54.571 102.632 54.9495 103.054 55.3279 103.345C55.7064 103.636 56.4342 104.102 57.5113 104.742C57.7151 104.888 57.8752 104.99 57.9917 105.048L60.5244 106.707ZM58.9524 122.646C60.6409 122.646 62.0965 122.151 63.3192 121.162C64.5419 120.172 65.1533 118.978 65.1533 117.581C65.1533 117.086 65.0805 116.62 64.9349 116.183C64.7894 115.747 64.6147 115.383 64.4109 115.092C64.2071 114.801 63.8869 114.48 63.4502 114.131C63.0135 113.782 62.6787 113.52 62.4458 113.345C62.2129 113.17 61.7908 112.894 61.1795 112.515C60.5681 112.137 60.1751 111.889 60.0004 111.773C59.5929 111.511 59.1562 111.234 58.6904 110.943C58.2246 110.652 57.8461 110.405 57.555 110.201L57.2057 109.983C57.031 109.983 56.6089 110.23 55.9393 110.725C55.2697 111.22 54.571 112.02 53.8432 113.127C53.1154 114.233 52.737 115.427 52.7078 116.707C52.7078 118.425 53.3338 119.837 54.5856 120.943C55.8374 122.05 57.293 122.617 58.9524 122.646Z" fill="white"/>
</g>
<g id="Group_15">
<path id="Vector_23" d="M13.6651 157.799L13.0975 158.017C12.6899 158.163 12.1076 158.309 11.3507 158.454C10.5938 158.6 9.74956 158.702 8.81798 158.76H7.98828V156.751H8.81798C10.1862 156.693 11.4526 156.475 12.6171 156.096C13.7816 155.718 14.5967 155.368 15.0625 155.048C15.5283 154.728 15.9359 154.408 16.2852 154.087C16.3434 154 16.5181 153.956 16.8092 153.956C17.0713 153.956 17.3187 154.044 17.5516 154.218V167.275L17.5953 180.376C17.7991 180.579 17.9737 180.71 18.1193 180.769C18.2648 180.827 18.6142 180.885 19.1673 180.943C19.7205 181.001 20.6229 181.031 21.8747 181.031H23.0101V183.039H22.5298C21.9184 182.952 19.604 182.908 15.5865 182.908C11.6273 182.908 9.34199 182.952 8.73064 183.039H8.20662V181.031H9.34199C9.98246 181.031 10.5356 181.031 11.0014 181.031C11.4672 181.031 11.8311 181.016 12.0931 180.987C12.3551 180.958 12.588 180.914 12.7918 180.856C12.9956 180.798 13.112 180.769 13.1411 180.769C13.1702 180.769 13.2576 180.696 13.4031 180.55C13.5487 180.405 13.636 180.346 13.6651 180.376V157.799Z" fill="white"/>
<path id="Vector_24" d="M30.3875 157.493C32.0178 155.135 34.2449 153.956 37.0687 153.956C38.4661 153.956 39.8635 154.335 41.2609 155.092C42.6583 155.849 43.7936 157.188 44.667 159.109C45.7441 161.525 46.2827 164.844 46.2827 169.066C46.2827 173.578 45.6568 177.028 44.405 179.415C43.8227 180.638 43.0222 181.613 42.0032 182.341C40.9843 183.068 40.0964 183.52 39.3395 183.694C38.5826 183.869 37.8402 183.971 37.1124 184C36.3555 184 35.5986 183.913 34.8417 183.738C34.0848 183.563 33.1968 183.098 32.1779 182.341C31.159 181.584 30.3584 180.608 29.7762 179.415C28.5243 177.028 27.8984 173.578 27.8984 169.066C27.8984 164 28.7281 160.143 30.3875 157.493ZM40.2128 156.969C39.3395 156.038 38.306 155.572 37.1124 155.572C35.8897 155.572 34.8417 156.038 33.9683 156.969C33.2405 157.726 32.7602 158.774 32.5273 160.114C32.2944 161.453 32.1779 164.247 32.1779 168.498C32.1779 173.098 32.2944 176.125 32.5273 177.581C32.7602 179.036 33.2842 180.186 34.0993 181.031C34.9144 181.904 35.9188 182.341 37.1124 182.341C38.2769 182.341 39.2667 181.904 40.0818 181.031C40.9261 180.157 41.4501 178.934 41.6539 177.362C41.8577 175.79 41.9741 172.836 42.0032 168.498C42.0032 164.277 41.8868 161.496 41.6539 160.157C41.421 158.818 40.9406 157.755 40.2128 156.969Z" fill="white"/>
<path id="Vector_25" d="M52.2244 157.493C53.8547 155.135 56.0818 153.956 58.9057 153.956C60.303 153.956 61.7004 154.335 63.0978 155.092C64.4952 155.849 65.6305 157.188 66.5039 159.109C67.5811 161.525 68.1196 164.844 68.1196 169.066C68.1196 173.578 67.4937 177.028 66.2419 179.415C65.6597 180.638 64.8591 181.613 63.8402 182.341C62.8212 183.068 61.9333 183.52 61.1764 183.694C60.4195 183.869 59.6771 183.971 58.9493 184C58.1924 184 57.4355 183.913 56.6786 183.738C55.9217 183.563 55.0338 183.098 54.0148 182.341C52.9959 181.584 52.1953 180.608 51.6131 179.415C50.3613 177.028 49.7354 173.578 49.7354 169.066C49.7354 164 50.565 160.143 52.2244 157.493ZM62.0498 156.969C61.1764 156.038 60.1429 155.572 58.9493 155.572C57.7266 155.572 56.6786 156.038 55.8052 156.969C55.0774 157.726 54.5971 158.774 54.3642 160.114C54.1313 161.453 54.0148 164.247 54.0148 168.498C54.0148 173.098 54.1313 176.125 54.3642 177.581C54.5971 179.036 55.1211 180.186 55.9362 181.031C56.7514 181.904 57.7557 182.341 58.9493 182.341C60.1138 182.341 61.1036 181.904 61.9188 181.031C62.763 180.157 63.287 178.934 63.4908 177.362C63.6946 175.79 63.811 172.836 63.8402 168.498C63.8402 164.277 63.7237 161.496 63.4908 160.157C63.2579 158.818 62.7776 157.755 62.0498 156.969Z" fill="white"/>
</g>
<path id="Vector_26" d="M74.2358 143.476H0V140.856H74.2358V143.476Z" fill="white"/>
</g>
<g id="Group_16">
<path id="Vector_27" d="M116.691 151.817C116.691 152.399 116.386 152.69 115.774 152.69C115.629 152.69 115.308 152.457 114.814 151.991C114.319 151.525 112.95 150.172 110.709 147.93L106.167 143.389L101.582 147.974C98.4963 151.001 96.9097 152.544 96.8223 152.603C96.7059 152.661 96.604 152.69 96.5166 152.69C96.2837 152.69 96.08 152.603 95.9053 152.428C95.7306 152.253 95.6287 152.049 95.5996 151.817C95.5996 151.613 95.8034 151.293 96.211 150.856C96.6185 150.419 97.9868 149.036 100.316 146.707L104.857 142.166L100.316 137.624C97.9577 135.266 96.5894 133.884 96.211 133.476C95.8325 133.068 95.6287 132.748 95.5996 132.515C95.5996 132.253 95.6869 132.049 95.8616 131.904C96.0363 131.758 96.2546 131.686 96.5166 131.686C96.6622 131.686 96.7641 131.7 96.8223 131.729C96.9097 131.787 98.4963 133.33 101.582 136.358L106.167 140.943L110.709 136.402C112.95 134.16 114.319 132.806 114.814 132.341C115.308 131.875 115.629 131.642 115.774 131.642C116.386 131.642 116.691 131.933 116.691 132.515C116.691 132.719 116.546 132.981 116.255 133.301C115.964 133.622 114.537 135.048 111.975 137.581L107.434 142.166L111.975 146.751C114.421 149.196 115.818 150.608 116.167 150.987C116.517 151.365 116.691 151.642 116.691 151.817Z" fill="white"/>
</g>
<g id="Group_17">
<g id="Group_18">
<path id="Vector_28" d="M151.763 98.3232L151.195 98.5415C150.788 98.6871 150.205 98.8326 149.448 98.9782C148.691 99.1238 147.847 99.2257 146.916 99.2839H146.086V97.2751H146.916C148.284 97.2169 149.55 96.9986 150.715 96.6201C151.879 96.2417 152.694 95.8923 153.16 95.5721C153.626 95.2519 154.034 94.9316 154.383 94.6114C154.441 94.5241 154.616 94.4804 154.907 94.4804C155.169 94.4804 155.416 94.5677 155.649 94.7424V107.799L155.693 120.9C155.897 121.103 156.071 121.234 156.217 121.293C156.363 121.351 156.712 121.409 157.265 121.467C157.818 121.526 158.721 121.555 159.972 121.555H161.108V123.563H160.627C160.016 123.476 157.702 123.432 153.684 123.432C149.725 123.432 147.44 123.476 146.828 123.563H146.304V121.555H147.44C148.08 121.555 148.633 121.555 149.099 121.555C149.565 121.555 149.929 121.54 150.191 121.511C150.453 121.482 150.686 121.438 150.889 121.38C151.093 121.322 151.21 121.293 151.239 121.293C151.268 121.293 151.355 121.22 151.501 121.074C151.646 120.929 151.734 120.87 151.763 120.9V98.3232Z" fill="white"/>
<path id="Vector_29" d="M173.599 98.3232L173.031 98.5415C172.623 98.6871 172.041 98.8326 171.284 98.9782C170.527 99.1238 169.683 99.2257 168.752 99.2839H167.922V97.2751H168.752C170.12 97.2169 171.386 96.9986 172.551 96.6201C173.715 96.2417 174.53 95.8923 174.996 95.5721C175.462 95.2519 175.869 94.9316 176.219 94.6114C176.277 94.5241 176.452 94.4804 176.743 94.4804C177.005 94.4804 177.252 94.5677 177.485 94.7424V107.799L177.529 120.9C177.733 121.103 177.907 121.234 178.053 121.293C178.198 121.351 178.548 121.409 179.101 121.467C179.654 121.526 180.557 121.555 181.808 121.555H182.944V123.563H182.463C181.852 123.476 179.538 123.432 175.52 123.432C171.561 123.432 169.276 123.476 168.664 123.563H168.14V121.555H169.276C169.916 121.555 170.469 121.555 170.935 121.555C171.401 121.555 171.765 121.54 172.027 121.511C172.289 121.482 172.522 121.438 172.725 121.38C172.929 121.322 173.046 121.293 173.075 121.293C173.104 121.293 173.191 121.22 173.337 121.074C173.482 120.929 173.57 120.87 173.599 120.9V98.3232Z" fill="white"/>
<path id="Vector_30" d="M188.531 103.563C188.56 103.505 188.808 101.919 189.274 98.8035L189.972 94.131C189.972 94.0728 190.263 94.0437 190.846 94.0437H191.719V94.2184C191.719 94.5095 191.937 94.7569 192.374 94.9607C192.811 95.1645 193.568 95.2955 194.645 95.3537C195.722 95.412 198.182 95.4411 202.025 95.4411H207.309V97.1441L204.339 101.205C204.077 101.555 203.64 102.137 203.029 102.952C202.418 103.767 202.025 104.306 201.85 104.568C201.675 104.83 201.37 105.296 200.933 105.965C200.496 106.635 200.205 107.159 200.06 107.537C199.914 107.916 199.71 108.454 199.448 109.153C199.186 109.852 198.997 110.521 198.881 111.162C198.764 111.802 198.648 112.588 198.531 113.52C198.415 114.451 198.327 115.441 198.269 116.489C198.211 117.537 198.167 118.731 198.138 120.07C198.138 120.477 198.138 120.885 198.138 121.293C198.138 121.7 198.124 122.05 198.095 122.341V122.734C197.978 123.229 197.702 123.651 197.265 124C196.828 124.349 196.333 124.524 195.78 124.524C195.46 124.524 195.154 124.48 194.863 124.393C194.572 124.306 194.266 124.029 193.946 123.563C193.626 123.098 193.466 122.515 193.466 121.817C193.466 117.217 194.878 112.443 197.702 107.493C198.284 106.562 199.507 104.801 201.37 102.21L203.378 99.4585H199.317C194.252 99.4585 191.588 99.5459 191.326 99.7206C191.151 99.8079 190.991 100.157 190.846 100.769C190.7 101.38 190.555 102.006 190.409 102.646L190.278 103.563V103.694H188.531V103.563Z" fill="white"/>
</g>
<g id="Group_19">
<path id="Vector_31" d="M151.763 157.799L151.195 158.017C150.788 158.163 150.205 158.309 149.448 158.454C148.691 158.6 147.847 158.702 146.916 158.76H146.086V156.751H146.916C148.284 156.693 149.55 156.475 150.715 156.096C151.879 155.718 152.694 155.368 153.16 155.048C153.626 154.728 154.034 154.408 154.383 154.087C154.441 154 154.616 153.956 154.907 153.956C155.169 153.956 155.416 154.044 155.649 154.218V167.275L155.693 180.376C155.897 180.579 156.071 180.71 156.217 180.769C156.363 180.827 156.712 180.885 157.265 180.943C157.818 181.001 158.721 181.031 159.972 181.031H161.108V183.039H160.627C160.016 182.952 157.702 182.908 153.684 182.908C149.725 182.908 147.44 182.952 146.828 183.039H146.304V181.031H147.44C148.08 181.031 148.633 181.031 149.099 181.031C149.565 181.031 149.929 181.016 150.191 180.987C150.453 180.958 150.686 180.914 150.889 180.856C151.093 180.798 151.21 180.769 151.239 180.769C151.268 180.769 151.355 180.696 151.501 180.55C151.646 180.405 151.734 180.346 151.763 180.376V157.799Z" fill="white"/>
<path id="Vector_32" d="M168.485 157.493C170.115 155.135 172.343 153.956 175.166 153.956C176.564 153.956 177.961 154.335 179.359 155.092C180.756 155.849 181.891 157.188 182.765 159.109C183.842 161.525 184.38 164.844 184.38 169.066C184.38 173.578 183.754 177.028 182.503 179.415C181.92 180.638 181.12 181.613 180.101 182.341C179.082 183.068 178.194 183.52 177.437 183.694C176.68 183.869 175.938 183.971 175.21 184C174.453 184 173.696 183.913 172.939 183.738C172.182 183.563 171.294 183.098 170.276 182.341C169.257 181.584 168.456 180.608 167.874 179.415C166.622 177.028 165.996 173.578 165.996 169.066C165.996 164 166.826 160.143 168.485 157.493ZM178.311 156.969C177.437 156.038 176.404 155.572 175.21 155.572C173.987 155.572 172.939 156.038 172.066 156.969C171.338 157.726 170.858 158.774 170.625 160.114C170.392 161.453 170.276 164.247 170.276 168.498C170.276 173.098 170.392 176.125 170.625 177.581C170.858 179.036 171.382 180.186 172.197 181.031C173.012 181.904 174.016 182.341 175.21 182.341C176.375 182.341 177.364 181.904 178.179 181.031C179.024 180.157 179.548 178.934 179.752 177.362C179.955 175.79 180.072 172.836 180.101 168.498C180.101 164.277 179.984 161.496 179.752 160.157C179.519 158.818 179.038 157.755 178.311 156.969Z" fill="white"/>
<path id="Vector_33" d="M190.322 157.493C191.952 155.135 194.179 153.956 197.003 153.956C198.401 153.956 199.798 154.335 201.195 155.092C202.593 155.849 203.728 157.188 204.602 159.109C205.679 161.525 206.217 164.844 206.217 169.066C206.217 173.578 205.591 177.028 204.34 179.415C203.757 180.638 202.957 181.613 201.938 182.341C200.919 183.068 200.031 183.52 199.274 183.694C198.517 183.869 197.775 183.971 197.047 184C196.29 184 195.533 183.913 194.776 183.738C194.019 183.563 193.131 183.098 192.112 182.341C191.094 181.584 190.293 180.608 189.711 179.415C188.459 177.028 187.833 173.578 187.833 169.066C187.833 164 188.663 160.143 190.322 157.493ZM200.147 156.969C199.274 156.038 198.241 155.572 197.047 155.572C195.824 155.572 194.776 156.038 193.903 156.969C193.175 157.726 192.695 158.774 192.462 160.114C192.229 161.453 192.112 164.247 192.112 168.498C192.112 173.098 192.229 176.125 192.462 177.581C192.695 179.036 193.219 180.186 194.034 181.031C194.849 181.904 195.853 182.341 197.047 182.341C198.211 182.341 199.201 181.904 200.016 181.031C200.861 180.157 201.385 178.934 201.588 177.362C201.792 175.79 201.909 172.836 201.938 168.498C201.938 164.277 201.821 161.496 201.588 160.157C201.356 158.818 200.875 157.755 200.147 156.969Z" fill="white"/>
</g>
<path id="Vector_34" d="M212.332 143.476H138.097V140.856H212.332V143.476Z" fill="white"/>
</g>
<g id="Group_20">
<path id="Vector_35" d="M254.788 151.817C254.788 152.399 254.482 152.69 253.871 152.69C253.725 152.69 253.405 152.457 252.91 151.991C252.415 151.525 251.047 150.172 248.805 147.93L244.264 143.389L239.679 147.974C236.593 151.001 235.006 152.544 234.919 152.603C234.803 152.661 234.701 152.69 234.613 152.69C234.38 152.69 234.177 152.603 234.002 152.428C233.827 152.253 233.725 152.049 233.696 151.817C233.696 151.613 233.9 151.293 234.308 150.856C234.715 150.419 236.083 149.036 238.412 146.707L242.954 142.166L238.412 137.624C236.054 135.266 234.686 133.884 234.308 133.476C233.929 133.068 233.725 132.748 233.696 132.515C233.696 132.253 233.784 132.049 233.958 131.904C234.133 131.758 234.351 131.686 234.613 131.686C234.759 131.686 234.861 131.7 234.919 131.729C235.006 131.787 236.593 133.33 239.679 136.358L244.264 140.943L248.805 136.402C251.047 134.16 252.415 132.806 252.91 132.341C253.405 131.875 253.725 131.642 253.871 131.642C254.482 131.642 254.788 131.933 254.788 132.515C254.788 132.719 254.642 132.981 254.351 133.301C254.06 133.622 252.634 135.048 250.072 137.581L245.53 142.166L250.072 146.751C252.517 149.196 253.915 150.608 254.264 150.987C254.613 151.365 254.788 151.642 254.788 151.817Z" fill="white"/>
</g>
<g id="Group_21">
<g id="Group_22">
<path id="Vector_36" d="M289.858 98.3231L289.29 98.5415C288.882 98.687 288.3 98.8326 287.543 98.9781C286.786 99.1237 285.942 99.2256 285.01 99.2838H284.181V97.2751H285.01C286.379 97.2169 287.645 96.9985 288.809 96.6201C289.974 96.2416 290.789 95.8923 291.255 95.572C291.721 95.2518 292.128 94.9316 292.478 94.6113C292.536 94.524 292.711 94.4803 293.002 94.4803C293.264 94.4803 293.511 94.5677 293.744 94.7423V107.799L293.788 120.9C293.991 121.103 294.166 121.234 294.312 121.293C294.457 121.351 294.807 121.409 295.36 121.467C295.913 121.525 296.815 121.555 298.067 121.555H299.202V123.563H298.722C298.111 123.476 295.796 123.432 291.779 123.432C287.82 123.432 285.534 123.476 284.923 123.563H284.399V121.555H285.534C286.175 121.555 286.728 121.555 287.194 121.555C287.66 121.555 288.023 121.54 288.285 121.511C288.547 121.482 288.78 121.438 288.984 121.38C289.188 121.322 289.304 121.293 289.334 121.293C289.363 121.293 289.45 121.22 289.596 121.074C289.741 120.929 289.828 120.87 289.858 120.9V98.3231Z" fill="white"/>
<path id="Vector_37" d="M311.693 98.3231L311.126 98.5415C310.718 98.687 310.136 98.8326 309.379 98.9781C308.622 99.1237 307.778 99.2256 306.846 99.2838H306.017V97.2751H306.846C308.215 97.2169 309.481 96.9985 310.645 96.6201C311.81 96.2416 312.625 95.8923 313.091 95.572C313.557 95.2518 313.964 94.9316 314.314 94.6113C314.372 94.524 314.546 94.4803 314.838 94.4803C315.1 94.4803 315.347 94.5677 315.58 94.7423V107.799L315.624 120.9C315.827 121.103 316.002 121.234 316.148 121.293C316.293 121.351 316.643 121.409 317.196 121.467C317.749 121.525 318.651 121.555 319.903 121.555H321.038V123.563H320.558C319.947 123.476 317.632 123.432 313.615 123.432C309.656 123.432 307.37 123.476 306.759 123.563H306.235V121.555H307.37C308.011 121.555 308.564 121.555 309.03 121.555C309.495 121.555 309.859 121.54 310.121 121.511C310.383 121.482 310.616 121.438 310.82 121.38C311.024 121.322 311.14 121.293 311.169 121.293C311.199 121.293 311.286 121.22 311.431 121.074C311.577 120.929 311.664 120.87 311.693 120.9V98.3231Z" fill="white"/>
<path id="Vector_38" d="M344.396 123.563C343.872 123.476 341.995 123.432 338.763 123.432C335.386 123.432 333.436 123.476 332.912 123.563H332.519V121.555H333.872C334.455 121.555 334.848 121.555 335.051 121.555C335.255 121.555 335.503 121.525 335.794 121.467C336.085 121.409 336.289 121.336 336.405 121.249C336.521 121.162 336.623 121.045 336.711 120.9C336.74 120.841 336.754 120.055 336.754 118.541V116.358H325.444V114.349L332.038 104.262C336.492 97.508 338.749 94.1164 338.807 94.0873C338.865 94.0291 339.171 94 339.724 94H340.51L340.772 94.262V114.349H344.789V116.358H340.772V118.585C340.772 119.779 340.772 120.477 340.772 120.681C340.772 120.885 340.859 121.06 341.034 121.205C341.267 121.409 342.096 121.525 343.523 121.555H344.789V123.563H344.396ZM337.016 114.349V99.7642L327.453 114.306L332.213 114.349H337.016Z" fill="white"/>
</g>
<g id="Group_23">
<path id="Vector_39" d="M289.858 157.799L289.29 158.017C288.882 158.163 288.3 158.309 287.543 158.454C286.786 158.6 285.942 158.702 285.01 158.76H284.181V156.751H285.01C286.379 156.693 287.645 156.475 288.809 156.096C289.974 155.718 290.789 155.368 291.255 155.048C291.721 154.728 292.128 154.408 292.478 154.087C292.536 154 292.711 153.956 293.002 153.956C293.264 153.956 293.511 154.044 293.744 154.218V167.275L293.788 180.376C293.991 180.579 294.166 180.71 294.312 180.769C294.457 180.827 294.807 180.885 295.36 180.943C295.913 181.001 296.815 181.031 298.067 181.031H299.202V183.039H298.722C298.111 182.952 295.796 182.908 291.779 182.908C287.82 182.908 285.534 182.952 284.923 183.039H284.399V181.031H285.534C286.175 181.031 286.728 181.031 287.194 181.031C287.66 181.031 288.023 181.016 288.285 180.987C288.547 180.958 288.78 180.914 288.984 180.856C289.188 180.798 289.304 180.769 289.334 180.769C289.363 180.769 289.45 180.696 289.596 180.55C289.741 180.405 289.828 180.346 289.858 180.376V157.799Z" fill="white"/>
<path id="Vector_40" d="M306.58 157.493C308.21 155.135 310.437 153.956 313.261 153.956C314.659 153.956 316.056 154.335 317.453 155.092C318.851 155.849 319.986 157.188 320.859 159.109C321.937 161.525 322.475 164.844 322.475 169.066C322.475 173.578 321.849 177.028 320.597 179.415C320.015 180.638 319.215 181.613 318.196 182.341C317.177 183.068 316.289 183.52 315.532 183.694C314.775 183.869 314.033 183.971 313.305 184C312.548 184 311.791 183.913 311.034 183.738C310.277 183.563 309.389 183.098 308.37 182.341C307.351 181.584 306.551 180.608 305.969 179.415C304.717 177.028 304.091 173.578 304.091 169.066C304.091 164 304.921 160.143 306.58 157.493ZM316.405 156.969C315.532 156.038 314.498 155.572 313.305 155.572C312.082 155.572 311.034 156.038 310.161 156.969C309.433 157.726 308.953 158.774 308.72 160.114C308.487 161.453 308.37 164.247 308.37 168.498C308.37 173.098 308.487 176.125 308.72 177.581C308.953 179.036 309.477 180.186 310.292 181.031C311.107 181.904 312.111 182.341 313.305 182.341C314.469 182.341 315.459 181.904 316.274 181.031C317.118 180.157 317.642 178.934 317.846 177.362C318.05 175.79 318.167 172.836 318.196 168.498C318.196 164.277 318.079 161.496 317.846 160.157C317.613 158.818 317.133 157.755 316.405 156.969Z" fill="white"/>
<path id="Vector_41" d="M328.417 157.493C330.047 155.135 332.274 153.956 335.098 153.956C336.495 153.956 337.893 154.335 339.29 155.092C340.688 155.849 341.823 157.188 342.696 159.109C343.773 161.525 344.312 164.844 344.312 169.066C344.312 173.578 343.686 177.028 342.434 179.415C341.852 180.638 341.051 181.613 340.033 182.341C339.014 183.068 338.126 183.52 337.369 183.694C336.612 183.869 335.87 183.971 335.142 184C334.385 184 333.628 183.913 332.871 183.738C332.114 183.563 331.226 183.098 330.207 182.341C329.188 181.584 328.388 180.608 327.805 179.415C326.554 177.028 325.928 173.578 325.928 169.066C325.928 164 326.757 160.143 328.417 157.493ZM338.242 156.969C337.369 156.038 336.335 155.572 335.142 155.572C333.919 155.572 332.871 156.038 331.998 156.969C331.27 157.726 330.789 158.774 330.557 160.114C330.324 161.453 330.207 164.247 330.207 168.498C330.207 173.098 330.324 176.125 330.557 177.581C330.789 179.036 331.313 180.186 332.129 181.031C332.944 181.904 333.948 182.341 335.142 182.341C336.306 182.341 337.296 181.904 338.111 181.031C338.955 180.157 339.479 178.934 339.683 177.362C339.887 175.79 340.003 172.836 340.033 168.498C340.033 164.277 339.916 161.496 339.683 160.157C339.45 158.818 338.97 157.755 338.242 156.969Z" fill="white"/>
</g>
<path id="Vector_42" d="M350.428 143.476H276.192V140.856H350.428V143.476Z" fill="white"/>
</g>
<g id="Group_24">
<path id="Vector_43" d="M392.891 151.817C392.891 152.399 392.585 152.69 391.973 152.69C391.828 152.69 391.508 152.457 391.013 151.991C390.518 151.525 389.15 150.172 386.908 147.93L382.367 143.389L377.781 147.974C374.695 151.001 373.109 152.544 373.022 152.603C372.905 152.661 372.803 152.69 372.716 152.69C372.483 152.69 372.279 152.603 372.105 152.428C371.93 152.253 371.828 152.049 371.799 151.817C371.799 151.613 372.003 151.293 372.41 150.856C372.818 150.419 374.186 149.036 376.515 146.707L381.056 142.166L376.515 137.624C374.157 135.266 372.789 133.884 372.41 133.476C372.032 133.068 371.828 132.748 371.799 132.515C371.799 132.253 371.886 132.049 372.061 131.904C372.236 131.758 372.454 131.686 372.716 131.686C372.861 131.686 372.963 131.7 373.022 131.729C373.109 131.787 374.695 133.33 377.781 136.358L382.367 140.943L386.908 136.402C389.15 134.16 390.518 132.806 391.013 132.341C391.508 131.875 391.828 131.642 391.973 131.642C392.585 131.642 392.891 131.933 392.891 132.515C392.891 132.719 392.745 132.981 392.454 133.301C392.163 133.622 390.736 135.048 388.174 137.581L383.633 142.166L388.174 146.751C390.62 149.196 392.017 150.608 392.367 150.987C392.716 151.365 392.891 151.642 392.891 151.817Z" fill="white"/>
</g>
<g id="Group_25">
<path id="Vector_44" d="M429.23 153.083C428.706 152.996 426.829 152.952 423.597 152.952C420.22 152.952 418.27 152.996 417.746 153.083H417.353V151.074H418.706C419.289 151.074 419.682 151.074 419.885 151.074C420.089 151.074 420.337 151.045 420.628 150.987C420.919 150.929 421.123 150.856 421.239 150.769C421.355 150.681 421.457 150.565 421.545 150.419C421.574 150.361 421.588 149.575 421.588 148.061V145.878H410.278V143.869L416.872 133.782C421.326 127.028 423.583 123.636 423.641 123.607C423.699 123.549 424.005 123.52 424.558 123.52H425.344L425.606 123.782V143.869H429.623V145.878H425.606V148.105C425.606 149.298 425.606 149.997 425.606 150.201C425.606 150.405 425.693 150.579 425.868 150.725C426.101 150.929 426.93 151.045 428.357 151.074H429.623V153.083H429.23ZM421.85 143.869V129.284L412.287 143.825L417.047 143.869H421.85Z" fill="white"/>
</g>
<g id="Group_26">
<path id="Vector_45" d="M444.785 127.537C446.415 125.179 448.642 124 451.466 124C452.864 124 454.261 124.378 455.658 125.135C457.056 125.892 458.191 127.231 459.064 129.153C460.142 131.569 460.68 134.888 460.68 139.109C460.68 143.622 460.054 147.071 458.802 149.458C458.22 150.681 457.42 151.656 456.401 152.384C455.382 153.112 454.494 153.563 453.737 153.738C452.98 153.913 452.238 154.015 451.51 154.044C450.753 154.044 449.996 153.956 449.239 153.782C448.482 153.607 447.594 153.141 446.575 152.384C445.556 151.627 444.756 150.652 444.174 149.458C442.922 147.071 442.296 143.622 442.296 139.109C442.296 134.044 443.126 130.186 444.785 127.537ZM454.61 127.013C453.737 126.081 452.703 125.616 451.51 125.616C450.287 125.616 449.239 126.081 448.366 127.013C447.638 127.77 447.158 128.818 446.925 130.157C446.692 131.496 446.575 134.291 446.575 138.541C446.575 143.141 446.692 146.169 446.925 147.624C447.158 149.08 447.682 150.23 448.497 151.074C449.312 151.948 450.316 152.384 451.51 152.384C452.674 152.384 453.664 151.948 454.479 151.074C455.324 150.201 455.848 148.978 456.051 147.406C456.255 145.834 456.372 142.879 456.401 138.541C456.401 134.32 456.284 131.54 456.051 130.201C455.818 128.862 455.338 127.799 454.61 127.013Z" fill="white"/>
<path id="Vector_46" d="M466.621 127.537C468.251 125.179 470.478 124 473.302 124C474.7 124 476.097 124.378 477.494 125.135C478.892 125.892 480.027 127.231 480.9 129.153C481.978 131.569 482.516 134.888 482.516 139.109C482.516 143.622 481.89 147.071 480.638 149.458C480.056 150.681 479.256 151.656 478.237 152.384C477.218 153.112 476.33 153.563 475.573 153.738C474.816 153.913 474.074 154.015 473.346 154.044C472.589 154.044 471.832 153.956 471.075 153.782C470.318 153.607 469.43 153.141 468.411 152.384C467.392 151.627 466.592 150.652 466.01 149.458C464.758 147.071 464.132 143.622 464.132 139.109C464.132 134.044 464.962 130.186 466.621 127.537ZM476.446 127.013C475.573 126.081 474.539 125.616 473.346 125.616C472.123 125.616 471.075 126.081 470.202 127.013C469.474 127.77 468.994 128.818 468.761 130.157C468.528 131.496 468.411 134.291 468.411 138.541C468.411 143.141 468.528 146.169 468.761 147.624C468.994 149.08 469.518 150.23 470.333 151.074C471.148 151.948 472.152 152.384 473.346 152.384C474.51 152.384 475.5 151.948 476.315 151.074C477.159 150.201 477.684 148.978 477.887 147.406C478.091 145.834 478.208 142.879 478.237 138.541C478.237 134.32 478.12 131.54 477.887 130.201C477.654 128.862 477.174 127.799 476.446 127.013Z" fill="white"/>
<path id="Vector_47" d="M488.45 127.537C490.08 125.179 492.307 124 495.131 124C496.529 124 497.926 124.378 499.323 125.135C500.721 125.892 501.856 127.231 502.729 129.153C503.807 131.569 504.345 134.888 504.345 139.109C504.345 143.622 503.719 147.071 502.467 149.458C501.885 150.681 501.085 151.656 500.066 152.384C499.047 153.112 498.159 153.563 497.402 153.738C496.645 153.913 495.903 154.015 495.175 154.044C494.418 154.044 493.661 153.956 492.904 153.782C492.147 153.607 491.259 153.141 490.24 152.384C489.221 151.627 488.421 150.652 487.839 149.458C486.587 147.071 485.961 143.622 485.961 139.109C485.961 134.044 486.791 130.186 488.45 127.537ZM498.275 127.013C497.402 126.081 496.369 125.616 495.175 125.616C493.952 125.616 492.904 126.081 492.031 127.013C491.303 127.77 490.823 128.818 490.59 130.157C490.357 131.496 490.24 134.291 490.24 138.541C490.24 143.141 490.357 146.169 490.59 147.624C490.823 149.08 491.347 150.23 492.162 151.074C492.977 151.948 493.981 152.384 495.175 152.384C496.339 152.384 497.329 151.948 498.144 151.074C498.989 150.201 499.513 148.978 499.716 147.406C499.92 145.834 500.037 142.879 500.066 138.541C500.066 134.32 499.949 131.54 499.716 130.201C499.483 128.862 499.003 127.799 498.275 127.013Z" fill="white"/>
</g>
<g id="Group_27">
<path id="Vector_48" d="M520.673 137.93C520.673 137.552 520.877 137.261 521.284 137.057H549.101C549.537 137.29 549.756 137.581 549.756 137.93C549.756 138.25 549.552 138.527 549.144 138.76L535.258 138.803H521.372C520.906 138.658 520.673 138.367 520.673 137.93ZM520.673 146.402C520.673 145.965 520.906 145.674 521.372 145.528H549.144C549.552 145.819 549.756 146.111 549.756 146.402C549.756 146.78 549.537 147.071 549.101 147.275H521.284C520.877 147.071 520.673 146.78 520.673 146.402Z" fill="white"/>
</g>
<g id="Group_28">
<path id="Vector_49" d="M579.7 140.55C578.303 142.763 576.556 143.869 574.46 143.869C572.189 143.869 570.326 143.01 568.871 141.293C567.415 139.575 566.542 137.741 566.25 135.79C566.192 135.325 566.163 134.742 566.163 134.044V133.694C566.163 130.987 567.167 128.629 569.176 126.62C570.923 124.873 572.844 124 574.94 124C574.999 124 575.086 124 575.202 124C575.319 124 575.435 124.015 575.552 124.044H575.726C576.076 124.044 576.44 124.073 576.818 124.131C577.197 124.189 577.735 124.364 578.434 124.655C579.133 124.946 579.817 125.412 580.486 126.052C581.156 126.693 581.782 127.552 582.364 128.629C583.616 131.191 584.242 134.48 584.242 138.498C584.242 142.573 583.368 146.023 581.622 148.847C580.603 150.477 579.38 151.744 577.953 152.646C576.527 153.549 575.013 154.015 573.412 154.044C571.636 154.044 570.181 153.622 569.045 152.777C567.91 151.933 567.328 150.681 567.298 149.022C567.269 147.362 568.041 146.547 569.613 146.576C570.253 146.576 570.792 146.78 571.229 147.188C571.665 147.595 571.884 148.163 571.884 148.891C571.884 149.415 571.753 149.866 571.491 150.245C571.229 150.623 570.996 150.856 570.792 150.943C570.588 151.031 570.399 151.103 570.224 151.162L570.05 151.205C570.05 151.263 570.151 151.351 570.355 151.467C570.559 151.584 570.937 151.729 571.491 151.904C572.044 152.079 572.655 152.151 573.325 152.122H573.587C575.333 152.122 576.804 151.191 577.997 149.327C579.133 147.697 579.7 144.873 579.7 140.856V140.55ZM574.984 142.253C576.381 142.253 577.502 141.54 578.346 140.114C579.191 138.687 579.627 136.751 579.657 134.306C579.657 132.035 579.54 130.405 579.307 129.415C579.249 129.124 579.162 128.833 579.045 128.541C578.929 128.25 578.725 127.872 578.434 127.406C578.143 126.94 577.706 126.547 577.124 126.227C576.542 125.907 575.857 125.761 575.071 125.79C573.965 125.79 573.019 126.183 572.233 126.969C571.622 127.61 571.229 128.367 571.054 129.24C570.879 130.114 570.777 131.642 570.748 133.825C570.748 136.242 570.821 137.872 570.967 138.716C571.112 139.56 571.403 140.245 571.84 140.769C572.568 141.758 573.616 142.253 574.984 142.253Z" fill="white"/>
</g>
<g id="Group_29">
<path id="Vector_50" d="M616.039 153.083C615.515 152.996 613.637 152.952 610.406 152.952C607.029 152.952 605.078 152.996 604.554 153.083H604.161V151.074H605.515C606.097 151.074 606.49 151.074 606.694 151.074C606.898 151.074 607.145 151.045 607.436 150.987C607.727 150.929 607.931 150.856 608.048 150.769C608.164 150.681 608.266 150.565 608.353 150.419C608.382 150.361 608.397 149.575 608.397 148.061V145.878H597.087V143.869L603.681 133.782C608.135 127.028 610.391 123.636 610.449 123.607C610.508 123.549 610.813 123.52 611.366 123.52H612.152L612.414 123.782V143.869H616.432V145.878H612.414V148.105C612.414 149.298 612.414 149.997 612.414 150.201C612.414 150.405 612.502 150.579 612.676 150.725C612.909 150.929 613.739 151.045 615.166 151.074H616.432V153.083H616.039ZM608.659 143.869V129.284L599.096 143.825L603.855 143.869H608.659Z" fill="white"/>
<path id="Vector_51" d="M633.07 140.55C631.673 142.763 629.926 143.869 627.83 143.869C625.559 143.869 623.696 143.01 622.241 141.293C620.785 139.575 619.912 137.741 619.621 135.79C619.562 135.325 619.533 134.742 619.533 134.044V133.694C619.533 130.987 620.538 128.629 622.546 126.62C624.293 124.873 626.214 124 628.31 124C628.369 124 628.456 124 628.573 124C628.689 124 628.805 124.015 628.922 124.044H629.097C629.446 124.044 629.81 124.073 630.188 124.131C630.567 124.189 631.105 124.364 631.804 124.655C632.503 124.946 633.187 125.412 633.856 126.052C634.526 126.693 635.152 127.552 635.734 128.629C636.986 131.191 637.612 134.48 637.612 138.498C637.612 142.573 636.738 146.023 634.992 148.847C633.973 150.477 632.75 151.744 631.324 152.646C629.897 153.549 628.383 154.015 626.782 154.044C625.006 154.044 623.551 153.622 622.415 152.777C621.28 151.933 620.698 150.681 620.669 149.022C620.639 147.362 621.411 146.547 622.983 146.576C623.623 146.576 624.162 146.78 624.599 147.188C625.035 147.595 625.254 148.163 625.254 148.891C625.254 149.415 625.123 149.866 624.861 150.245C624.599 150.623 624.366 150.856 624.162 150.943C623.958 151.031 623.769 151.103 623.594 151.162L623.42 151.205C623.42 151.263 623.522 151.351 623.725 151.467C623.929 151.584 624.308 151.729 624.861 151.904C625.414 152.079 626.025 152.151 626.695 152.122H626.957C628.704 152.122 630.174 151.191 631.367 149.327C632.503 147.697 633.07 144.873 633.07 140.856V140.55ZM628.354 142.253C629.752 142.253 630.872 141.54 631.717 140.114C632.561 138.687 632.998 136.751 633.027 134.306C633.027 132.035 632.91 130.405 632.677 129.415C632.619 129.124 632.532 128.833 632.415 128.541C632.299 128.25 632.095 127.872 631.804 127.406C631.513 126.94 631.076 126.547 630.494 126.227C629.912 125.907 629.228 125.761 628.441 125.79C627.335 125.79 626.389 126.183 625.603 126.969C624.992 127.61 624.599 128.367 624.424 129.24C624.249 130.114 624.147 131.642 624.118 133.825C624.118 136.242 624.191 137.872 624.337 138.716C624.482 139.56 624.773 140.245 625.21 140.769C625.938 141.758 626.986 142.253 628.354 142.253Z" fill="white"/>
<path id="Vector_52" d="M641.366 139.415C641.366 134.67 642.545 130.914 644.903 128.148C647.261 125.383 649.881 124 652.763 124C654.772 124 656.213 124.524 657.087 125.572C657.96 126.62 658.397 127.785 658.397 129.065C658.397 129.793 658.193 130.376 657.785 130.812C657.378 131.249 656.81 131.467 656.082 131.467C655.413 131.467 654.859 131.263 654.423 130.856C653.986 130.448 653.768 129.881 653.768 129.153C653.768 127.872 654.452 127.1 655.82 126.838C655.18 126.198 654.277 125.834 653.113 125.747C651.046 125.747 649.343 126.62 648.004 128.367C646.635 130.288 645.951 133.229 645.951 137.188L645.995 137.362C646.14 137.188 646.257 136.999 646.344 136.795C647.538 135.048 649.095 134.175 651.017 134.175H651.191C652.53 134.175 653.71 134.451 654.728 135.004C655.427 135.412 656.126 135.994 656.825 136.751C657.523 137.508 658.091 138.338 658.528 139.24C659.139 140.667 659.445 142.224 659.445 143.913V144.699C659.445 145.368 659.372 145.994 659.226 146.576C658.906 148.294 657.974 149.968 656.432 151.598C654.889 153.229 652.938 154.044 650.58 154.044C649.765 154.044 648.979 153.927 648.222 153.694C647.465 153.461 646.65 153.025 645.776 152.384C644.903 151.744 644.161 150.885 643.549 149.808C642.938 148.731 642.414 147.319 641.977 145.572C641.541 143.825 641.337 141.773 641.366 139.415ZM650.755 135.747C649.881 135.747 649.124 135.994 648.484 136.489C647.843 136.984 647.349 137.639 646.999 138.454C646.65 139.269 646.402 140.099 646.257 140.943C646.111 141.787 646.024 142.69 645.995 143.651C645.995 146.067 646.17 147.799 646.519 148.847C646.868 149.895 647.421 150.739 648.178 151.38C648.877 151.904 649.648 152.166 650.493 152.166C651.977 152.166 653.113 151.613 653.899 150.507C654.277 149.983 654.539 149.327 654.685 148.541C654.83 147.755 654.903 146.227 654.903 143.956C654.903 141.627 654.83 140.07 654.685 139.284C654.539 138.498 654.277 137.843 653.899 137.319C653.113 136.271 652.065 135.747 650.755 135.747Z" fill="white"/>
<path id="Vector_53" d="M664.775 150.463C664.775 149.764 665.023 149.153 665.518 148.629C666.013 148.105 666.639 147.843 667.395 147.843C668.094 147.843 668.706 148.076 669.23 148.541C669.754 149.007 670.03 149.633 670.059 150.419C670.059 151.147 669.812 151.773 669.317 152.297C668.822 152.821 668.196 153.083 667.439 153.083C666.682 153.083 666.056 152.835 665.561 152.341C665.067 151.846 664.805 151.22 664.775 150.463Z" fill="white"/>
<path id="Vector_54" d="M675.34 139.415C675.34 134.67 676.519 130.914 678.877 128.148C681.235 125.383 683.855 124 686.737 124C688.746 124 690.187 124.524 691.06 125.572C691.934 126.62 692.37 127.785 692.37 129.065C692.37 129.793 692.166 130.376 691.759 130.812C691.351 131.249 690.784 131.467 690.056 131.467C689.386 131.467 688.833 131.263 688.396 130.856C687.96 130.448 687.741 129.881 687.741 129.153C687.741 127.872 688.426 127.1 689.794 126.838C689.153 126.198 688.251 125.834 687.086 125.747C685.019 125.747 683.316 126.62 681.977 128.367C680.609 130.288 679.925 133.229 679.925 137.188L679.968 137.362C680.114 137.188 680.23 136.999 680.318 136.795C681.511 135.048 683.069 134.175 684.99 134.175H685.165C686.504 134.175 687.683 134.451 688.702 135.004C689.401 135.412 690.099 135.994 690.798 136.751C691.497 137.508 692.065 138.338 692.501 139.24C693.113 140.667 693.418 142.224 693.418 143.913V144.699C693.418 145.368 693.345 145.994 693.2 146.576C692.88 148.294 691.948 149.968 690.405 151.598C688.862 153.229 686.912 154.044 684.554 154.044C683.738 154.044 682.952 153.927 682.196 153.694C681.439 153.461 680.623 153.025 679.75 152.384C678.877 151.744 678.134 150.885 677.523 149.808C676.912 148.731 676.388 147.319 675.951 145.572C675.514 143.825 675.311 141.773 675.34 139.415ZM684.728 135.747C683.855 135.747 683.098 135.994 682.458 136.489C681.817 136.984 681.322 137.639 680.973 138.454C680.623 139.269 680.376 140.099 680.23 140.943C680.085 141.787 679.998 142.69 679.968 143.651C679.968 146.067 680.143 147.799 680.492 148.847C680.842 149.895 681.395 150.739 682.152 151.38C682.851 151.904 683.622 152.166 684.466 152.166C685.951 152.166 687.086 151.613 687.872 150.507C688.251 149.983 688.513 149.327 688.658 148.541C688.804 147.755 688.877 146.227 688.877 143.956C688.877 141.627 688.804 140.07 688.658 139.284C688.513 138.498 688.251 137.843 687.872 137.319C687.086 136.271 686.038 135.747 684.728 135.747Z" fill="white"/>
<path id="Vector_55" d="M702.501 146.227C702.501 146.926 702.268 147.508 701.802 147.974C701.336 148.44 700.768 148.672 700.099 148.672H699.793C701.132 150.972 702.908 152.122 705.121 152.122C707.159 152.122 708.643 151.249 709.575 149.502C710.128 148.541 710.405 146.678 710.405 143.913C710.405 140.914 710.012 138.891 709.226 137.843C708.469 136.882 707.624 136.402 706.693 136.402H706.431C704.16 136.402 702.442 137.392 701.278 139.371C701.161 139.575 701.06 139.691 700.972 139.72C700.885 139.75 700.667 139.779 700.317 139.808C699.822 139.808 699.546 139.72 699.488 139.546C699.429 139.429 699.4 136.882 699.4 131.904V126.271C699.4 124.815 699.473 124.087 699.619 124.087C699.677 124.029 699.735 124 699.793 124C699.822 124 700.128 124.116 700.71 124.349C701.292 124.582 702.093 124.815 703.112 125.048C704.131 125.281 705.223 125.397 706.387 125.397C708.454 125.397 710.434 124.99 712.326 124.175C712.559 124.058 712.748 124 712.894 124C713.127 124 713.243 124.262 713.243 124.786V125.354C710.856 128.178 707.872 129.589 704.291 129.589C703.389 129.589 702.573 129.502 701.846 129.327L701.409 129.24V136.751C701.962 136.343 702.399 136.023 702.719 135.79C703.039 135.557 703.563 135.325 704.291 135.092C705.019 134.859 705.761 134.742 706.518 134.742C708.876 134.742 710.87 135.688 712.501 137.581C714.131 139.473 714.946 141.715 714.946 144.306C714.946 146.984 714.014 149.269 712.151 151.162C710.288 153.054 708.017 154.015 705.339 154.044C702.981 154.044 701.089 153.258 699.662 151.686C698.236 150.114 697.522 148.338 697.522 146.358C697.522 145.659 697.683 145.106 698.003 144.699C698.323 144.291 698.658 144.029 699.007 143.913C699.357 143.796 699.691 143.738 700.012 143.738C700.739 143.738 701.336 143.985 701.802 144.48C702.268 144.975 702.501 145.557 702.501 146.227Z" fill="white"/>
<path id="Vector_56" d="M719.006 139.415C719.006 134.67 720.185 130.914 722.543 128.148C724.901 125.383 727.521 124 730.403 124C732.412 124 733.853 124.524 734.726 125.572C735.6 126.62 736.036 127.785 736.036 129.065C736.036 129.793 735.832 130.376 735.425 130.812C735.017 131.249 734.45 131.467 733.722 131.467C733.052 131.467 732.499 131.263 732.062 130.856C731.626 130.448 731.407 129.881 731.407 129.153C731.407 127.872 732.092 127.1 733.46 126.838C732.819 126.198 731.917 125.834 730.752 125.747C728.685 125.747 726.982 126.62 725.643 128.367C724.275 130.288 723.591 133.229 723.591 137.188L723.634 137.362C723.78 137.188 723.896 136.999 723.984 136.795C725.177 135.048 726.735 134.175 728.656 134.175H728.831C730.17 134.175 731.349 134.451 732.368 135.004C733.067 135.412 733.765 135.994 734.464 136.751C735.163 137.508 735.731 138.338 736.167 139.24C736.779 140.667 737.084 142.224 737.084 143.913V144.699C737.084 145.368 737.011 145.994 736.866 146.576C736.546 148.294 735.614 149.968 734.071 151.598C732.528 153.229 730.578 154.044 728.22 154.044C727.404 154.044 726.618 153.927 725.862 153.694C725.105 153.461 724.29 153.025 723.416 152.384C722.543 151.744 721.8 150.885 721.189 149.808C720.578 148.731 720.054 147.319 719.617 145.572C719.18 143.825 718.977 141.773 719.006 139.415ZM728.394 135.747C727.521 135.747 726.764 135.994 726.124 136.489C725.483 136.984 724.988 137.639 724.639 138.454C724.29 139.269 724.042 140.099 723.896 140.943C723.751 141.787 723.664 142.69 723.634 143.651C723.634 146.067 723.809 147.799 724.158 148.847C724.508 149.895 725.061 150.739 725.818 151.38C726.517 151.904 727.288 152.166 728.132 152.166C729.617 152.166 730.752 151.613 731.538 150.507C731.917 149.983 732.179 149.327 732.324 148.541C732.47 147.755 732.543 146.227 732.543 143.956C732.543 141.627 732.47 140.07 732.324 139.284C732.179 138.498 731.917 137.843 731.538 137.319C730.752 136.271 729.704 135.747 728.394 135.747Z" fill="white"/>
</g>
</g>
</g>
</g>
</svg>
