<svg viewBox="0 0 1004 422" fill="none" xmlns="http://www.w3.org/2000/svg">
<g id="0116103">
<g id="claves01">
<g id="Group 98">
<path id="Rectangle 5" d="M421 214H637.745L671 254L637.745 294H421V214Z" fill="#CD08D1" fill-opacity="0.1"/>
<path id="Rectangle 5 (Stroke)" fill-rule="evenodd" clip-rule="evenodd" d="M636.338 217H424V291H636.338L667.099 254L636.338 217ZM637.745 214H421V294H637.745L671 254L637.745 214Z" fill="#CD08D1"/>
<path id="Ellipse 2" d="M462 254C462 276.091 444.091 294 422 294C399.909 294 382 276.091 382 254C382 231.909 399.909 214 422 214C444.091 214 462 231.909 462 254Z" fill="#CD08D1"/>
<path id="B" d="M405.625 270V224.5H421.219C426.365 224.5 430.281 225.531 432.969 227.594C435.656 229.656 437 232.729 437 236.812C437 238.896 436.438 240.771 435.312 242.438C434.188 244.104 432.542 245.396 430.375 246.312C432.833 246.979 434.729 248.24 436.062 250.094C437.417 251.927 438.094 254.135 438.094 256.719C438.094 260.99 436.719 264.271 433.969 266.562C431.24 268.854 427.323 270 422.219 270H405.625ZM413.531 249.469V263.688H422.312C424.792 263.688 426.729 263.073 428.125 261.844C429.521 260.615 430.219 258.906 430.219 256.719C430.219 251.99 427.802 249.573 422.969 249.469H413.531ZM413.531 243.656H421.281C423.74 243.656 425.656 243.104 427.031 242C428.427 240.875 429.125 239.292 429.125 237.25C429.125 235 428.479 233.375 427.188 232.375C425.917 231.375 423.927 230.875 421.219 230.875H413.531V243.656Z" fill="white"/>
</g>
<g id="Group 97">
<path id="Rectangle 6" d="M754 277H970.745L1004 317L970.745 357H754V277Z" fill="#CD08D1" fill-opacity="0.1"/>
<path id="Rectangle 6 (Stroke)" fill-rule="evenodd" clip-rule="evenodd" d="M969.338 280H757V354H969.338L1000.1 317L969.338 280ZM970.745 277H754V357H970.745L1004 317L970.745 277Z" fill="#CD08D1"/>
<path id="Ellipse 3" d="M795 317C795 339.091 777.091 357 755 357C732.909 357 715 339.091 715 317C715 294.909 732.909 277 755 277C777.091 277 795 294.909 795 317Z" fill="#CD08D1"/>
<path id="C" d="M772.344 324.188C771.885 329.042 770.094 332.833 766.969 335.562C763.844 338.271 759.688 339.625 754.5 339.625C750.875 339.625 747.677 338.771 744.906 337.062C742.156 335.333 740.031 332.885 738.531 329.719C737.031 326.552 736.25 322.875 736.188 318.688V314.438C736.188 310.146 736.948 306.365 738.469 303.094C739.99 299.823 742.167 297.302 745 295.531C747.854 293.76 751.146 292.875 754.875 292.875C759.896 292.875 763.938 294.24 767 296.969C770.062 299.698 771.844 303.552 772.344 308.531H764.469C764.094 305.26 763.135 302.906 761.594 301.469C760.073 300.01 757.833 299.281 754.875 299.281C751.438 299.281 748.792 300.542 746.938 303.062C745.104 305.562 744.167 309.24 744.125 314.094V318.125C744.125 323.042 745 326.792 746.75 329.375C748.521 331.958 751.104 333.25 754.5 333.25C757.604 333.25 759.938 332.552 761.5 331.156C763.062 329.76 764.052 327.438 764.469 324.188H772.344Z" fill="white"/>
</g>
<g id="Group 96">
<path id="Rectangle 7" d="M73 322H289.745L323 362L289.745 402H73V322Z" fill="#CD08D1" fill-opacity="0.1"/>
<path id="Rectangle 7 (Stroke)" fill-rule="evenodd" clip-rule="evenodd" d="M288.338 325H76V399H288.338L319.099 362L288.338 325ZM289.745 322H73V402H289.745L323 362L289.745 322Z" fill="#CD08D1"/>
<path id="Ellipse 4" d="M108 363C108 385.091 90.0914 403 68 403C45.9086 403 28 385.091 28 363C28 340.909 45.9086 323 68 323C90.0914 323 108 340.909 108 363Z" fill="#CD08D1"/>
<path id="D" d="M50.625 385V339.5H64.0625C68.0833 339.5 71.6458 340.396 74.75 342.188C77.875 343.979 80.2917 346.521 82 349.812C83.7083 353.104 84.5625 356.875 84.5625 361.125V363.406C84.5625 367.719 83.6979 371.51 81.9688 374.781C80.2604 378.052 77.8125 380.573 74.625 382.344C71.4583 384.115 67.8229 385 63.7188 385H50.625ZM58.5312 345.875V378.688H63.6875C67.8333 378.688 71.0104 377.396 73.2188 374.812C75.4479 372.208 76.5833 368.479 76.625 363.625V361.094C76.625 356.156 75.5521 352.385 73.4062 349.781C71.2604 347.177 68.1458 345.875 64.0625 345.875H58.5312Z" fill="white"/>
</g>
<g id="Group 95">
<path id="Rectangle 8" d="M422 322H638.745L672 362L638.745 402H422V322Z" fill="#CD08D1" fill-opacity="0.1"/>
<path id="Rectangle 8 (Stroke)" fill-rule="evenodd" clip-rule="evenodd" d="M637.338 325H425V399H637.338L668.099 362L637.338 325ZM638.745 322H422V402H638.745L672 362L638.745 322Z" fill="#CD08D1"/>
<path id="Ellipse 5" d="M463 362C463 384.091 445.091 402 423 402C400.909 402 383 384.091 383 362C383 339.909 400.909 322 423 322C445.091 322 463 339.909 463 362Z" fill="#CD08D1"/>
<path id="E" d="M432.219 363.688H413.531V377.688H435.375V384H405.625V338.5H435.156V344.875H413.531V357.438H432.219V363.688Z" fill="white"/>
</g>
<g id="Group 94">
<path id="Rectangle 4" d="M71 214H287.745L321 254L287.745 294H71V214Z" fill="#CD08D1" fill-opacity="0.1"/>
<path id="Rectangle 4 (Stroke)" fill-rule="evenodd" clip-rule="evenodd" d="M286.338 217H74V291H286.338L317.099 254L286.338 217ZM287.745 214H71V294H287.745L321 254L287.745 214Z" fill="#CD08D1"/>
<path id="Ellipse 1" d="M112 254C112 276.091 94.0914 294 72 294C49.9086 294 32 276.091 32 254C32 231.909 49.9086 214 72 214C94.0914 214 112 231.909 112 254Z" fill="#CD08D1"/>
<path id="A" d="M80.0938 264.406H62.4688L58.7812 275H50.5625L67.75 229.5H74.8438L92.0625 275H83.8125L80.0938 264.406ZM64.6875 258.031H77.875L71.2812 239.156L64.6875 258.031Z" fill="white"/>
</g>
<g id="11 12 13 14 15">
<path d="M170.898 270H166.539V241.102L157.797 244.312V240.375L170.219 235.711H170.898V270Z" fill="#CD08D1"/>
<path d="M197.852 270H193.492V241.102L184.75 244.312V240.375L197.172 235.711H197.852V270Z" fill="#CD08D1"/>
<path d="M498.648 270H494.289V241.102L485.547 244.312V240.375L497.969 235.711H498.648V270Z" fill="#CD08D1"/>
<path d="M533.711 270H511.352V266.883L523.164 253.758C524.914 251.773 526.117 250.164 526.773 248.93C527.445 247.68 527.781 246.391 527.781 245.062C527.781 243.281 527.242 241.82 526.164 240.68C525.086 239.539 523.648 238.969 521.852 238.969C519.695 238.969 518.016 239.586 516.812 240.82C515.625 242.039 515.031 243.742 515.031 245.93H510.695C510.695 242.789 511.703 240.25 513.719 238.312C515.75 236.375 518.461 235.406 521.852 235.406C525.023 235.406 527.531 236.242 529.375 237.914C531.219 239.57 532.141 241.781 532.141 244.547C532.141 247.906 530 251.906 525.719 256.547L516.578 266.461H533.711V270Z" fill="#CD08D1"/>
<path d="M849.555 326H845.195V297.102L836.453 300.312V296.375L848.875 291.711H849.555V326Z" fill="#CD08D1"/>
<path d="M868.562 306.828H871.82C873.867 306.797 875.477 306.258 876.648 305.211C877.82 304.164 878.406 302.75 878.406 300.969C878.406 296.969 876.414 294.969 872.43 294.969C870.555 294.969 869.055 295.508 867.93 296.586C866.82 297.648 866.266 299.062 866.266 300.828H861.93C861.93 298.125 862.914 295.883 864.883 294.102C866.867 292.305 869.383 291.406 872.43 291.406C875.648 291.406 878.172 292.258 880 293.961C881.828 295.664 882.742 298.031 882.742 301.062C882.742 302.547 882.258 303.984 881.289 305.375C880.336 306.766 879.031 307.805 877.375 308.492C879.25 309.086 880.695 310.07 881.711 311.445C882.742 312.82 883.258 314.5 883.258 316.484C883.258 319.547 882.258 321.977 880.258 323.773C878.258 325.57 875.656 326.469 872.453 326.469C869.25 326.469 866.641 325.602 864.625 323.867C862.625 322.133 861.625 319.844 861.625 317H865.984C865.984 318.797 866.57 320.234 867.742 321.312C868.914 322.391 870.484 322.93 872.453 322.93C874.547 322.93 876.148 322.383 877.258 321.289C878.367 320.195 878.922 318.625 878.922 316.578C878.922 314.594 878.312 313.07 877.094 312.008C875.875 310.945 874.117 310.398 871.82 310.367H868.562V306.828Z" fill="#CD08D1"/>
<path d="M170.898 382H166.539V353.102L157.797 356.312V352.375L170.219 347.711H170.898V382Z" fill="#CD08D1"/>
<path d="M201.906 370.539H206.641V374.078H201.906V382H197.547V374.078H182.008V371.523L197.289 347.875H201.906V370.539ZM186.93 370.539H197.547V353.805L197.031 354.742L186.93 370.539Z" fill="#CD08D1"/>
<path d="M510.555 382H506.195V353.102L497.453 356.312V352.375L509.875 347.711H510.555V382Z" fill="#CD08D1"/>
<path d="M525.25 364.891L526.984 347.875H544.469V351.883H530.664L529.633 361.188C531.305 360.203 533.203 359.711 535.328 359.711C538.438 359.711 540.906 360.742 542.734 362.805C544.562 364.852 545.477 367.625 545.477 371.125C545.477 374.641 544.523 377.414 542.617 379.445C540.727 381.461 538.078 382.469 534.672 382.469C531.656 382.469 529.195 381.633 527.289 379.961C525.383 378.289 524.297 375.977 524.031 373.023H528.133C528.398 374.977 529.094 376.453 530.219 377.453C531.344 378.438 532.828 378.93 534.672 378.93C536.688 378.93 538.266 378.242 539.406 376.867C540.562 375.492 541.141 373.594 541.141 371.172C541.141 368.891 540.516 367.062 539.266 365.688C538.031 364.297 536.383 363.602 534.32 363.602C532.43 363.602 530.945 364.016 529.867 364.844L528.719 365.781L525.25 364.891Z" fill="#CD08D1"/>
</g>
<g id="flecha">
<path id="Rectangle 2" d="M86.2001 325.008L101.482 333.133L59.5003 412.089L44.2185 403.963L86.2001 325.008Z" fill="#1043F5"/>
<path id="Rectangle 1" d="M28 337.904L118 288V345.692L73 328.096L28 337.904Z" fill="#1043F5"/>
<path id="Rectangle 3" d="M32.0385 407.21L47.6656 380.143L64.9362 379.565L49.3091 406.632L32.0385 407.21Z" fill="#1043F5"/>
<path id="Rectangle 4_2" d="M58.0894 421.845L73.7166 394.778L64.9258 379.154L49.2987 406.221L58.0894 421.845Z" fill="#1043F5"/>
</g>
</g>
<g id="enun01">
<path id="Rectangle 1_2" d="M50 0H862.539L931 91.1691L862.539 185H50V0Z" fill="#02071A"/>
<path id="Rectangle 1 (Stroke)" fill-rule="evenodd" clip-rule="evenodd" d="M860.54 4H54V181H860.506L926.023 91.2033L860.54 4ZM862.539 0H50V185H862.539L931 91.1691L862.539 0Z" fill="#CD08D1"/>
<path id="Ellipse 1_2" d="M100 100C100 127.614 77.6142 150 50 150C22.3858 150 0 127.614 0 100C0 72.3858 22.3858 50 50 50C77.6142 50 100 72.3858 100 100Z" fill="#CD08D1"/>
<path id="Ellipse 1 (Stroke)" fill-rule="evenodd" clip-rule="evenodd" d="M50 149C77.062 149 99 127.062 99 100C99 72.938 77.062 51 50 51C22.938 51 1 72.938 1 100C1 127.062 22.938 149 50 149ZM50 150C77.6142 150 100 127.614 100 100C100 72.3858 77.6142 50 50 50C22.3858 50 0 72.3858 0 100C0 127.614 22.3858 150 50 150Z" fill="black"/>
<g id="Group 16">
<g id="El producto del n&#195;&#186;mero por 12, es igual a . Determine la suma de . Nota: Cada letra representa un d&#195;&#173;gito diferente, del 0 al 9.">
<path d="M120.438 36.1699H109.346V45.2402H122.23V48H105.971V22.4062H122.055V25.1836H109.346V33.4102H120.438V36.1699Z" fill="white"/>
<path d="M129.455 48H126.203V21H129.455V48Z" fill="white"/>
<path d="M159.672 38.7012C159.672 41.5957 159.01 43.9277 157.686 45.6973C156.361 47.4668 154.568 48.3516 152.307 48.3516C149.998 48.3516 148.182 47.6191 146.857 46.1543V55.3125H143.605V28.9805H146.576L146.734 31.0898C148.059 29.4492 149.898 28.6289 152.254 28.6289C154.539 28.6289 156.344 29.4902 157.668 31.2129C159.004 32.9355 159.672 35.332 159.672 38.4023V38.7012ZM156.42 38.332C156.42 36.1875 155.963 34.4941 155.049 33.252C154.135 32.0098 152.881 31.3887 151.287 31.3887C149.318 31.3887 147.842 32.2617 146.857 34.0078V43.0957C147.83 44.8301 149.318 45.6973 151.322 45.6973C152.881 45.6973 154.117 45.082 155.031 43.8516C155.957 42.6094 156.42 40.7695 156.42 38.332Z" fill="white"/>
<path d="M173.014 31.8984C172.521 31.8164 171.988 31.7754 171.414 31.7754C169.281 31.7754 167.834 32.6836 167.072 34.5V48H163.82V28.9805H166.984L167.037 31.1777C168.104 29.4785 169.615 28.6289 171.572 28.6289C172.205 28.6289 172.686 28.7109 173.014 28.875V31.8984Z" fill="white"/>
<path d="M174.807 38.3145C174.807 36.4512 175.17 34.7754 175.896 33.2871C176.635 31.7988 177.654 30.6504 178.955 29.8418C180.268 29.0332 181.762 28.6289 183.438 28.6289C186.027 28.6289 188.119 29.5254 189.713 31.3184C191.318 33.1113 192.121 35.4961 192.121 38.4727V38.7012C192.121 40.5527 191.764 42.2168 191.049 43.6934C190.346 45.1582 189.332 46.3008 188.008 47.1211C186.695 47.9414 185.184 48.3516 183.473 48.3516C180.895 48.3516 178.803 47.4551 177.197 45.6621C175.604 43.8691 174.807 41.4961 174.807 38.543V38.3145ZM178.076 38.7012C178.076 40.8105 178.562 42.5039 179.535 43.7812C180.52 45.0586 181.832 45.6973 183.473 45.6973C185.125 45.6973 186.438 45.0527 187.41 43.7637C188.383 42.4629 188.869 40.6465 188.869 38.3145C188.869 36.2285 188.371 34.541 187.375 33.252C186.391 31.9512 185.078 31.3008 183.438 31.3008C181.832 31.3008 180.537 31.9395 179.553 33.2168C178.568 34.4941 178.076 36.3223 178.076 38.7012Z" fill="white"/>
<path d="M195.408 38.332C195.408 35.4141 196.1 33.0703 197.482 31.3008C198.865 29.5195 200.676 28.6289 202.914 28.6289C205.141 28.6289 206.904 29.3906 208.205 30.9141V21H211.457V48H208.469L208.311 45.9609C207.01 47.5547 205.199 48.3516 202.879 48.3516C200.676 48.3516 198.877 47.4492 197.482 45.6445C196.1 43.8398 195.408 41.4844 195.408 38.5781V38.332ZM198.66 38.7012C198.66 40.8574 199.105 42.5449 199.996 43.7637C200.887 44.9824 202.117 45.5918 203.688 45.5918C205.75 45.5918 207.256 44.666 208.205 42.8145V34.0781C207.232 32.2852 205.738 31.3887 203.723 31.3887C202.129 31.3887 200.887 32.0039 199.996 33.2344C199.105 34.4648 198.66 36.2871 198.66 38.7012Z" fill="white"/>
<path d="M228.262 46.1191C226.996 47.6074 225.139 48.3516 222.689 48.3516C220.662 48.3516 219.115 47.7656 218.049 46.5938C216.994 45.4102 216.461 43.6641 216.449 41.3555V28.9805H219.701V41.2676C219.701 44.1504 220.873 45.5918 223.217 45.5918C225.701 45.5918 227.354 44.666 228.174 42.8145V28.9805H231.426V48H228.332L228.262 46.1191Z" fill="white"/>
<path d="M244.012 45.6973C245.172 45.6973 246.186 45.3457 247.053 44.6426C247.92 43.9395 248.4 43.0605 248.494 42.0059H251.57C251.512 43.0957 251.137 44.1328 250.445 45.1172C249.754 46.1016 248.828 46.8867 247.668 47.4727C246.52 48.0586 245.301 48.3516 244.012 48.3516C241.422 48.3516 239.359 47.4902 237.824 45.7676C236.301 44.0332 235.539 41.666 235.539 38.666V38.1211C235.539 36.2695 235.879 34.623 236.559 33.1816C237.238 31.7402 238.211 30.6211 239.477 29.8242C240.754 29.0273 242.26 28.6289 243.994 28.6289C246.127 28.6289 247.896 29.2676 249.303 30.5449C250.721 31.8223 251.477 33.4805 251.57 35.5195H248.494C248.4 34.2891 247.932 33.2812 247.088 32.4961C246.256 31.6992 245.225 31.3008 243.994 31.3008C242.342 31.3008 241.059 31.8984 240.145 33.0938C239.242 34.2773 238.791 35.9941 238.791 38.2441V38.8594C238.791 41.0508 239.242 42.7383 240.145 43.9219C241.047 45.1055 242.336 45.6973 244.012 45.6973Z" fill="white"/>
<path d="M259.639 24.375V28.9805H263.189V31.4941H259.639V43.2891C259.639 44.0508 259.797 44.625 260.113 45.0117C260.43 45.3867 260.969 45.5742 261.73 45.5742C262.105 45.5742 262.621 45.5039 263.277 45.3633V48C262.422 48.2344 261.59 48.3516 260.781 48.3516C259.328 48.3516 258.232 47.9121 257.494 47.0332C256.756 46.1543 256.387 44.9062 256.387 43.2891V31.4941H252.924V28.9805H256.387V24.375H259.639Z" fill="white"/>
<path d="M265.791 38.3145C265.791 36.4512 266.154 34.7754 266.881 33.2871C267.619 31.7988 268.639 30.6504 269.939 29.8418C271.252 29.0332 272.746 28.6289 274.422 28.6289C277.012 28.6289 279.104 29.5254 280.697 31.3184C282.303 33.1113 283.105 35.4961 283.105 38.4727V38.7012C283.105 40.5527 282.748 42.2168 282.033 43.6934C281.33 45.1582 280.316 46.3008 278.992 47.1211C277.68 47.9414 276.168 48.3516 274.457 48.3516C271.879 48.3516 269.787 47.4551 268.182 45.6621C266.588 43.8691 265.791 41.4961 265.791 38.543V38.3145ZM269.061 38.7012C269.061 40.8105 269.547 42.5039 270.52 43.7812C271.504 45.0586 272.816 45.6973 274.457 45.6973C276.109 45.6973 277.422 45.0527 278.395 43.7637C279.367 42.4629 279.854 40.6465 279.854 38.3145C279.854 36.2285 279.355 34.541 278.359 33.252C277.375 31.9512 276.062 31.3008 274.422 31.3008C272.816 31.3008 271.521 31.9395 270.537 33.2168C269.553 34.4941 269.061 36.3223 269.061 38.7012Z" fill="white"/>
<path d="M295.322 38.332C295.322 35.4141 296.014 33.0703 297.396 31.3008C298.779 29.5195 300.59 28.6289 302.828 28.6289C305.055 28.6289 306.818 29.3906 308.119 30.9141V21H311.371V48H308.383L308.225 45.9609C306.924 47.5547 305.113 48.3516 302.793 48.3516C300.59 48.3516 298.791 47.4492 297.396 45.6445C296.014 43.8398 295.322 41.4844 295.322 38.5781V38.332ZM298.574 38.7012C298.574 40.8574 299.02 42.5449 299.91 43.7637C300.801 44.9824 302.031 45.5918 303.602 45.5918C305.664 45.5918 307.17 44.666 308.119 42.8145V34.0781C307.146 32.2852 305.652 31.3887 303.637 31.3887C302.043 31.3887 300.801 32.0039 299.91 33.2344C299.02 34.4648 298.574 36.2871 298.574 38.7012Z" fill="white"/>
<path d="M324.326 48.3516C321.748 48.3516 319.65 47.5078 318.033 45.8203C316.416 44.1211 315.607 41.8535 315.607 39.0176V38.4199C315.607 36.5332 315.965 34.8516 316.68 33.375C317.406 31.8867 318.414 30.7266 319.703 29.8945C321.004 29.0508 322.41 28.6289 323.922 28.6289C326.395 28.6289 328.316 29.4434 329.688 31.0723C331.059 32.7012 331.744 35.0332 331.744 38.0684V39.4219H318.859C318.906 41.2969 319.451 42.8145 320.494 43.9746C321.549 45.123 322.885 45.6973 324.502 45.6973C325.65 45.6973 326.623 45.4629 327.42 44.9941C328.217 44.5254 328.914 43.9043 329.512 43.1309L331.498 44.6777C329.904 47.127 327.514 48.3516 324.326 48.3516ZM323.922 31.3008C322.609 31.3008 321.508 31.7812 320.617 32.7422C319.727 33.6914 319.176 35.0273 318.965 36.75H328.492V36.5039C328.398 34.8516 327.953 33.5742 327.156 32.6719C326.359 31.7578 325.281 31.3008 323.922 31.3008Z" fill="white"/>
<path d="M339.057 48H335.805V21H339.057V48Z" fill="white"/>
<path d="M356.283 28.9805L356.389 31.3711C357.842 29.543 359.74 28.6289 362.084 28.6289C366.104 28.6289 368.131 30.8965 368.166 35.4316V48H364.914V35.4141C364.902 34.043 364.586 33.0293 363.965 32.373C363.355 31.7168 362.4 31.3887 361.1 31.3887C360.045 31.3887 359.119 31.6699 358.322 32.2324C357.525 32.7949 356.904 33.5332 356.459 34.4473V48H353.207V28.9805H356.283Z" fill="white"/>
<path d="M384.812 46.1191C383.547 47.6074 381.689 48.3516 379.24 48.3516C377.213 48.3516 375.666 47.7656 374.6 46.5938C373.545 45.4102 373.012 43.6641 373 41.3555V28.9805H376.252V41.2676C376.252 44.1504 377.424 45.5918 379.768 45.5918C382.252 45.5918 383.904 44.666 384.725 42.8145V28.9805H387.977V48H384.883L384.812 46.1191ZM382.176 21H386.113L381.402 26.168H378.783L382.176 21Z" fill="white"/>
<path d="M395.992 28.9805L396.08 31.0898C397.475 29.4492 399.355 28.6289 401.723 28.6289C404.383 28.6289 406.193 29.6484 407.154 31.6875C407.787 30.7734 408.607 30.0352 409.615 29.4727C410.635 28.9102 411.836 28.6289 413.219 28.6289C417.391 28.6289 419.512 30.8379 419.582 35.2559V48H416.33V35.4492C416.33 34.0898 416.02 33.0762 415.398 32.4082C414.777 31.7285 413.734 31.3887 412.27 31.3887C411.062 31.3887 410.061 31.752 409.264 32.4785C408.467 33.1934 408.004 34.1602 407.875 35.3789V48H404.605V35.5371C404.605 32.7715 403.252 31.3887 400.545 31.3887C398.412 31.3887 396.953 32.2969 396.168 34.1133V48H392.916V28.9805H395.992Z" fill="white"/>
<path d="M432.396 48.3516C429.818 48.3516 427.721 47.5078 426.104 45.8203C424.486 44.1211 423.678 41.8535 423.678 39.0176V38.4199C423.678 36.5332 424.035 34.8516 424.75 33.375C425.477 31.8867 426.484 30.7266 427.773 29.8945C429.074 29.0508 430.48 28.6289 431.992 28.6289C434.465 28.6289 436.387 29.4434 437.758 31.0723C439.129 32.7012 439.814 35.0332 439.814 38.0684V39.4219H426.93C426.977 41.2969 427.521 42.8145 428.564 43.9746C429.619 45.123 430.955 45.6973 432.572 45.6973C433.721 45.6973 434.693 45.4629 435.49 44.9941C436.287 44.5254 436.984 43.9043 437.582 43.1309L439.568 44.6777C437.975 47.127 435.584 48.3516 432.396 48.3516ZM431.992 31.3008C430.68 31.3008 429.578 31.7812 428.688 32.7422C427.797 33.6914 427.246 35.0273 427.035 36.75H436.562V36.5039C436.469 34.8516 436.023 33.5742 435.227 32.6719C434.43 31.7578 433.352 31.3008 431.992 31.3008Z" fill="white"/>
<path d="M452.787 31.8984C452.295 31.8164 451.762 31.7754 451.188 31.7754C449.055 31.7754 447.607 32.6836 446.846 34.5V48H443.594V28.9805H446.758L446.811 31.1777C447.877 29.4785 449.389 28.6289 451.346 28.6289C451.979 28.6289 452.459 28.7109 452.787 28.875V31.8984Z" fill="white"/>
<path d="M454.58 38.3145C454.58 36.4512 454.943 34.7754 455.67 33.2871C456.408 31.7988 457.428 30.6504 458.729 29.8418C460.041 29.0332 461.535 28.6289 463.211 28.6289C465.801 28.6289 467.893 29.5254 469.486 31.3184C471.092 33.1113 471.895 35.4961 471.895 38.4727V38.7012C471.895 40.5527 471.537 42.2168 470.822 43.6934C470.119 45.1582 469.105 46.3008 467.781 47.1211C466.469 47.9414 464.957 48.3516 463.246 48.3516C460.668 48.3516 458.576 47.4551 456.971 45.6621C455.377 43.8691 454.58 41.4961 454.58 38.543V38.3145ZM457.85 38.7012C457.85 40.8105 458.336 42.5039 459.309 43.7812C460.293 45.0586 461.605 45.6973 463.246 45.6973C464.898 45.6973 466.211 45.0527 467.184 43.7637C468.156 42.4629 468.643 40.6465 468.643 38.3145C468.643 36.2285 468.145 34.541 467.148 33.252C466.164 31.9512 464.852 31.3008 463.211 31.3008C461.605 31.3008 460.311 31.9395 459.326 33.2168C458.342 34.4941 457.85 36.3223 457.85 38.7012Z" fill="white"/>
<path d="M572.406 38.7012C572.406 41.5957 571.744 43.9277 570.42 45.6973C569.096 47.4668 567.303 48.3516 565.041 48.3516C562.732 48.3516 560.916 47.6191 559.592 46.1543V55.3125H556.34V28.9805H559.311L559.469 31.0898C560.793 29.4492 562.633 28.6289 564.988 28.6289C567.273 28.6289 569.078 29.4902 570.402 31.2129C571.738 32.9355 572.406 35.332 572.406 38.4023V38.7012ZM569.154 38.332C569.154 36.1875 568.697 34.4941 567.783 33.252C566.869 32.0098 565.615 31.3887 564.021 31.3887C562.053 31.3887 560.576 32.2617 559.592 34.0078V43.0957C560.564 44.8301 562.053 45.6973 564.057 45.6973C565.615 45.6973 566.852 45.082 567.766 43.8516C568.691 42.6094 569.154 40.7695 569.154 38.332Z" fill="white"/>
<path d="M575.693 38.3145C575.693 36.4512 576.057 34.7754 576.783 33.2871C577.521 31.7988 578.541 30.6504 579.842 29.8418C581.154 29.0332 582.648 28.6289 584.324 28.6289C586.914 28.6289 589.006 29.5254 590.6 31.3184C592.205 33.1113 593.008 35.4961 593.008 38.4727V38.7012C593.008 40.5527 592.65 42.2168 591.936 43.6934C591.232 45.1582 590.219 46.3008 588.895 47.1211C587.582 47.9414 586.07 48.3516 584.359 48.3516C581.781 48.3516 579.689 47.4551 578.084 45.6621C576.49 43.8691 575.693 41.4961 575.693 38.543V38.3145ZM578.963 38.7012C578.963 40.8105 579.449 42.5039 580.422 43.7812C581.406 45.0586 582.719 45.6973 584.359 45.6973C586.012 45.6973 587.324 45.0527 588.297 43.7637C589.27 42.4629 589.756 40.6465 589.756 38.3145C589.756 36.2285 589.258 34.541 588.262 33.252C587.277 31.9512 585.965 31.3008 584.324 31.3008C582.719 31.3008 581.424 31.9395 580.439 33.2168C579.455 34.4941 578.963 36.3223 578.963 38.7012Z" fill="white"/>
<path d="M606.279 31.8984C605.787 31.8164 605.254 31.7754 604.68 31.7754C602.547 31.7754 601.1 32.6836 600.338 34.5V48H597.086V28.9805H600.25L600.303 31.1777C601.369 29.4785 602.881 28.6289 604.838 28.6289C605.471 28.6289 605.951 28.7109 606.279 28.875V31.8984Z" fill="white"/>
<path d="M628.568 48H625.299V26.3262L618.742 28.7344V25.7812L628.059 22.2832H628.568V48Z" fill="white"/>
<path d="M654.865 48H638.096V45.6621L646.955 35.8184C648.268 34.3301 649.17 33.123 649.662 32.1973C650.166 31.2598 650.418 30.293 650.418 29.2969C650.418 27.9609 650.014 26.8652 649.205 26.0098C648.396 25.1543 647.318 24.7266 645.971 24.7266C644.354 24.7266 643.094 25.1895 642.191 26.1152C641.301 27.0293 640.855 28.3066 640.855 29.9473H637.604C637.604 27.5918 638.359 25.6875 639.871 24.2344C641.395 22.7812 643.428 22.0547 645.971 22.0547C648.35 22.0547 650.23 22.6816 651.613 23.9355C652.996 25.1777 653.688 26.8359 653.688 28.9102C653.688 31.4297 652.082 34.4297 648.871 37.9102L642.016 45.3457H654.865V48Z" fill="white"/>
<path d="M658.539 53.0977L656.693 51.832C657.795 50.2969 658.369 48.7148 658.416 47.0859V44.1504H661.598V46.6992C661.598 47.8828 661.305 49.0664 660.719 50.25C660.145 51.4336 659.418 52.3828 658.539 53.0977Z" fill="white"/>
<path d="M682.533 48.3516C679.955 48.3516 677.857 47.5078 676.24 45.8203C674.623 44.1211 673.814 41.8535 673.814 39.0176V38.4199C673.814 36.5332 674.172 34.8516 674.887 33.375C675.613 31.8867 676.621 30.7266 677.91 29.8945C679.211 29.0508 680.617 28.6289 682.129 28.6289C684.602 28.6289 686.523 29.4434 687.895 31.0723C689.266 32.7012 689.951 35.0332 689.951 38.0684V39.4219H677.066C677.113 41.2969 677.658 42.8145 678.701 43.9746C679.756 45.123 681.092 45.6973 682.709 45.6973C683.857 45.6973 684.83 45.4629 685.627 44.9941C686.424 44.5254 687.121 43.9043 687.719 43.1309L689.705 44.6777C688.111 47.127 685.721 48.3516 682.533 48.3516ZM682.129 31.3008C680.816 31.3008 679.715 31.7812 678.824 32.7422C677.934 33.6914 677.383 35.0273 677.172 36.75H686.699V36.5039C686.605 34.8516 686.16 33.5742 685.363 32.6719C684.566 31.7578 683.488 31.3008 682.129 31.3008Z" fill="white"/>
<path d="M704.805 42.9551C704.805 42.0762 704.471 41.3965 703.803 40.916C703.146 40.4238 701.992 40.002 700.34 39.6504C698.699 39.2988 697.393 38.877 696.42 38.3848C695.459 37.8926 694.744 37.3066 694.275 36.627C693.818 35.9473 693.59 35.1387 693.59 34.2012C693.59 32.6426 694.246 31.3242 695.559 30.2461C696.883 29.168 698.57 28.6289 700.621 28.6289C702.777 28.6289 704.523 29.1855 705.859 30.2988C707.207 31.4121 707.881 32.8359 707.881 34.5703H704.611C704.611 33.6797 704.23 32.9121 703.469 32.2676C702.719 31.623 701.77 31.3008 700.621 31.3008C699.438 31.3008 698.512 31.5586 697.844 32.0742C697.176 32.5898 696.842 33.2637 696.842 34.0957C696.842 34.8809 697.152 35.4727 697.773 35.8711C698.395 36.2695 699.514 36.6504 701.131 37.0137C702.76 37.377 704.078 37.8105 705.086 38.3145C706.094 38.8184 706.838 39.4277 707.318 40.1426C707.811 40.8457 708.057 41.707 708.057 42.7266C708.057 44.4258 707.377 45.791 706.018 46.8223C704.658 47.8418 702.895 48.3516 700.727 48.3516C699.203 48.3516 697.855 48.082 696.684 47.543C695.512 47.0039 694.592 46.2539 693.924 45.293C693.268 44.3203 692.939 43.2715 692.939 42.1465H696.191C696.25 43.2363 696.684 44.1035 697.492 44.748C698.312 45.3809 699.391 45.6973 700.727 45.6973C701.957 45.6973 702.941 45.4512 703.68 44.959C704.43 44.4551 704.805 43.7871 704.805 42.9551Z" fill="white"/>
<path d="M724.756 48H721.504V28.9805H724.756V48ZM721.24 23.9355C721.24 23.4082 721.398 22.9629 721.715 22.5996C722.043 22.2363 722.523 22.0547 723.156 22.0547C723.789 22.0547 724.27 22.2363 724.598 22.5996C724.926 22.9629 725.09 23.4082 725.09 23.9355C725.09 24.4629 724.926 24.9023 724.598 25.2539C724.27 25.6055 723.789 25.7812 723.156 25.7812C722.523 25.7812 722.043 25.6055 721.715 25.2539C721.398 24.9023 721.24 24.4629 721.24 23.9355Z" fill="white"/>
<path d="M729.203 38.332C729.203 35.3672 729.889 33.0117 731.26 31.2656C732.631 29.5078 734.447 28.6289 736.709 28.6289C739.029 28.6289 740.84 29.4492 742.141 31.0898L742.299 28.9805H745.27V47.543C745.27 50.0039 744.537 51.9434 743.072 53.3613C741.619 54.7793 739.662 55.4883 737.201 55.4883C735.83 55.4883 734.488 55.1953 733.176 54.6094C731.863 54.0234 730.861 53.2207 730.17 52.2012L731.857 50.25C733.252 51.9727 734.957 52.834 736.973 52.834C738.555 52.834 739.785 52.3887 740.664 51.498C741.555 50.6074 742 49.3535 742 47.7363V46.1016C740.699 47.6016 738.924 48.3516 736.674 48.3516C734.447 48.3516 732.643 47.4551 731.26 45.6621C729.889 43.8691 729.203 41.4258 729.203 38.332ZM732.473 38.7012C732.473 40.8457 732.912 42.5332 733.791 43.7637C734.67 44.9824 735.9 45.5918 737.482 45.5918C739.533 45.5918 741.039 44.6602 742 42.7969V34.1133C741.004 32.2969 739.51 31.3887 737.518 31.3887C735.936 31.3887 734.699 32.0039 733.809 33.2344C732.918 34.4648 732.473 36.2871 732.473 38.7012Z" fill="white"/>
<path d="M761.934 46.1191C760.668 47.6074 758.811 48.3516 756.361 48.3516C754.334 48.3516 752.787 47.7656 751.721 46.5938C750.666 45.4102 750.133 43.6641 750.121 41.3555V28.9805H753.373V41.2676C753.373 44.1504 754.545 45.5918 756.889 45.5918C759.373 45.5918 761.025 44.666 761.846 42.8145V28.9805H765.098V48H762.004L761.934 46.1191Z" fill="white"/>
<path d="M781.797 48C781.609 47.625 781.457 46.957 781.34 45.9961C779.828 47.5664 778.023 48.3516 775.926 48.3516C774.051 48.3516 772.51 47.8242 771.303 46.7695C770.107 45.7031 769.51 44.3555 769.51 42.7266C769.51 40.7461 770.26 39.2109 771.76 38.1211C773.271 37.0195 775.393 36.4688 778.123 36.4688H781.287V34.9746C781.287 33.8379 780.947 32.9355 780.268 32.2676C779.588 31.5879 778.586 31.248 777.262 31.248C776.102 31.248 775.129 31.541 774.344 32.127C773.559 32.7129 773.166 33.4219 773.166 34.2539H769.896C769.896 33.3047 770.23 32.3906 770.898 31.5117C771.578 30.6211 772.492 29.918 773.641 29.4023C774.801 28.8867 776.072 28.6289 777.455 28.6289C779.646 28.6289 781.363 29.1797 782.605 30.2812C783.848 31.3711 784.492 32.877 784.539 34.7988V43.5527C784.539 45.2988 784.762 46.6875 785.207 47.7188V48H781.797ZM776.4 45.5215C777.42 45.5215 778.387 45.2578 779.301 44.7305C780.215 44.2031 780.877 43.5176 781.287 42.6738V38.7715H778.738C774.754 38.7715 772.762 39.9375 772.762 42.2695C772.762 43.2891 773.102 44.0859 773.781 44.6602C774.461 45.2344 775.334 45.5215 776.4 45.5215Z" fill="white"/>
<path d="M793.17 48H789.918V21H793.17V48Z" fill="white"/>
<path d="M819.062 48C818.875 47.625 818.723 46.957 818.605 45.9961C817.094 47.5664 815.289 48.3516 813.191 48.3516C811.316 48.3516 809.775 47.8242 808.568 46.7695C807.373 45.7031 806.775 44.3555 806.775 42.7266C806.775 40.7461 807.525 39.2109 809.025 38.1211C810.537 37.0195 812.658 36.4688 815.389 36.4688H818.553V34.9746C818.553 33.8379 818.213 32.9355 817.533 32.2676C816.854 31.5879 815.852 31.248 814.527 31.248C813.367 31.248 812.395 31.541 811.609 32.127C810.824 32.7129 810.432 33.4219 810.432 34.2539H807.162C807.162 33.3047 807.496 32.3906 808.164 31.5117C808.844 30.6211 809.758 29.918 810.906 29.4023C812.066 28.8867 813.338 28.6289 814.721 28.6289C816.912 28.6289 818.629 29.1797 819.871 30.2812C821.113 31.3711 821.758 32.877 821.805 34.7988V43.5527C821.805 45.2988 822.027 46.6875 822.473 47.7188V48H819.062ZM813.666 45.5215C814.686 45.5215 815.652 45.2578 816.566 44.7305C817.48 44.2031 818.143 43.5176 818.553 42.6738V38.7715H816.004C812.02 38.7715 810.027 39.9375 810.027 42.2695C810.027 43.2891 810.367 44.0859 811.047 44.6602C811.727 45.2344 812.6 45.5215 813.666 45.5215Z" fill="white"/>
<path d="M194.828 86.2949C194.828 85.7324 194.992 85.2637 195.32 84.8887C195.66 84.5137 196.164 84.3262 196.832 84.3262C197.5 84.3262 198.004 84.5137 198.344 84.8887C198.695 85.2637 198.871 85.7324 198.871 86.2949C198.871 86.834 198.695 87.2852 198.344 87.6484C198.004 88.0117 197.5 88.1934 196.832 88.1934C196.164 88.1934 195.66 88.0117 195.32 87.6484C194.992 87.2852 194.828 86.834 194.828 86.2949Z" fill="white"/>
<path d="M213.689 88V62.4062H220.914C223.141 62.4062 225.109 62.8984 226.82 63.8828C228.531 64.8672 229.85 66.2676 230.775 68.084C231.713 69.9004 232.188 71.9863 232.199 74.3418V75.9766C232.199 78.3906 231.73 80.5059 230.793 82.3223C229.867 84.1387 228.537 85.5332 226.803 86.5059C225.08 87.4785 223.07 87.9766 220.773 88H213.689ZM217.064 65.1836V85.2402H220.615C223.217 85.2402 225.238 84.4316 226.68 82.8145C228.133 81.1973 228.859 78.8945 228.859 75.9062V74.4121C228.859 71.5059 228.174 69.25 226.803 67.6445C225.443 66.0273 223.51 65.207 221.002 65.1836H217.064Z" fill="white"/>
<path d="M244.697 88.3516C242.119 88.3516 240.021 87.5078 238.404 85.8203C236.787 84.1211 235.979 81.8535 235.979 79.0176V78.4199C235.979 76.5332 236.336 74.8516 237.051 73.375C237.777 71.8867 238.785 70.7266 240.074 69.8945C241.375 69.0508 242.781 68.6289 244.293 68.6289C246.766 68.6289 248.688 69.4434 250.059 71.0723C251.43 72.7012 252.115 75.0332 252.115 78.0684V79.4219H239.23C239.277 81.2969 239.822 82.8145 240.865 83.9746C241.92 85.123 243.256 85.6973 244.873 85.6973C246.021 85.6973 246.994 85.4629 247.791 84.9941C248.588 84.5254 249.285 83.9043 249.883 83.1309L251.869 84.6777C250.275 87.127 247.885 88.3516 244.697 88.3516ZM244.293 71.3008C242.98 71.3008 241.879 71.7812 240.988 72.7422C240.098 73.6914 239.547 75.0273 239.336 76.75H248.863V76.5039C248.77 74.8516 248.324 73.5742 247.527 72.6719C246.73 71.7578 245.652 71.3008 244.293 71.3008Z" fill="white"/>
<path d="M260.307 64.375V68.9805H263.857V71.4941H260.307V83.2891C260.307 84.0508 260.465 84.625 260.781 85.0117C261.098 85.3867 261.637 85.5742 262.398 85.5742C262.773 85.5742 263.289 85.5039 263.945 85.3633V88C263.09 88.2344 262.258 88.3516 261.449 88.3516C259.996 88.3516 258.9 87.9121 258.162 87.0332C257.424 86.1543 257.055 84.9062 257.055 83.2891V71.4941H253.592V68.9805H257.055V64.375H260.307Z" fill="white"/>
<path d="M275.564 88.3516C272.986 88.3516 270.889 87.5078 269.271 85.8203C267.654 84.1211 266.846 81.8535 266.846 79.0176V78.4199C266.846 76.5332 267.203 74.8516 267.918 73.375C268.645 71.8867 269.652 70.7266 270.941 69.8945C272.242 69.0508 273.648 68.6289 275.16 68.6289C277.633 68.6289 279.555 69.4434 280.926 71.0723C282.297 72.7012 282.982 75.0332 282.982 78.0684V79.4219H270.098C270.145 81.2969 270.689 82.8145 271.732 83.9746C272.787 85.123 274.123 85.6973 275.74 85.6973C276.889 85.6973 277.861 85.4629 278.658 84.9941C279.455 84.5254 280.152 83.9043 280.75 83.1309L282.736 84.6777C281.143 87.127 278.752 88.3516 275.564 88.3516ZM275.16 71.3008C273.848 71.3008 272.746 71.7812 271.855 72.7422C270.965 73.6914 270.414 75.0273 270.203 76.75H279.73V76.5039C279.637 74.8516 279.191 73.5742 278.395 72.6719C277.598 71.7578 276.52 71.3008 275.16 71.3008Z" fill="white"/>
<path d="M295.955 71.8984C295.463 71.8164 294.93 71.7754 294.355 71.7754C292.223 71.7754 290.775 72.6836 290.014 74.5V88H286.762V68.9805H289.926L289.979 71.1777C291.045 69.4785 292.557 68.6289 294.514 68.6289C295.146 68.6289 295.627 68.7109 295.955 68.875V71.8984Z" fill="white"/>
<path d="M302.02 68.9805L302.107 71.0898C303.502 69.4492 305.383 68.6289 307.75 68.6289C310.41 68.6289 312.221 69.6484 313.182 71.6875C313.814 70.7734 314.635 70.0352 315.643 69.4727C316.662 68.9102 317.863 68.6289 319.246 68.6289C323.418 68.6289 325.539 70.8379 325.609 75.2559V88H322.357V75.4492C322.357 74.0898 322.047 73.0762 321.426 72.4082C320.805 71.7285 319.762 71.3887 318.297 71.3887C317.09 71.3887 316.088 71.752 315.291 72.4785C314.494 73.1934 314.031 74.1602 313.902 75.3789V88H310.633V75.5371C310.633 72.7715 309.279 71.3887 306.572 71.3887C304.439 71.3887 302.98 72.2969 302.195 74.1133V88H298.943V68.9805H302.02Z" fill="white"/>
<path d="M334.064 88H330.812V68.9805H334.064V88ZM330.549 63.9355C330.549 63.4082 330.707 62.9629 331.023 62.5996C331.352 62.2363 331.832 62.0547 332.465 62.0547C333.098 62.0547 333.578 62.2363 333.906 62.5996C334.234 62.9629 334.398 63.4082 334.398 63.9355C334.398 64.4629 334.234 64.9023 333.906 65.2539C333.578 65.6055 333.098 65.7812 332.465 65.7812C331.832 65.7812 331.352 65.6055 331.023 65.2539C330.707 64.9023 330.549 64.4629 330.549 63.9355Z" fill="white"/>
<path d="M342.361 68.9805L342.467 71.3711C343.92 69.543 345.818 68.6289 348.162 68.6289C352.182 68.6289 354.209 70.8965 354.244 75.4316V88H350.992V75.4141C350.98 74.043 350.664 73.0293 350.043 72.373C349.434 71.7168 348.479 71.3887 347.178 71.3887C346.123 71.3887 345.197 71.6699 344.4 72.2324C343.604 72.7949 342.982 73.5332 342.537 74.4473V88H339.285V68.9805H342.361Z" fill="white"/>
<path d="M367.041 88.3516C364.463 88.3516 362.365 87.5078 360.748 85.8203C359.131 84.1211 358.322 81.8535 358.322 79.0176V78.4199C358.322 76.5332 358.68 74.8516 359.395 73.375C360.121 71.8867 361.129 70.7266 362.418 69.8945C363.719 69.0508 365.125 68.6289 366.637 68.6289C369.109 68.6289 371.031 69.4434 372.402 71.0723C373.773 72.7012 374.459 75.0332 374.459 78.0684V79.4219H361.574C361.621 81.2969 362.166 82.8145 363.209 83.9746C364.264 85.123 365.6 85.6973 367.217 85.6973C368.365 85.6973 369.338 85.4629 370.135 84.9941C370.932 84.5254 371.629 83.9043 372.227 83.1309L374.213 84.6777C372.619 87.127 370.229 88.3516 367.041 88.3516ZM366.637 71.3008C365.324 71.3008 364.223 71.7812 363.332 72.7422C362.441 73.6914 361.891 75.0273 361.68 76.75H371.207V76.5039C371.113 74.8516 370.668 73.5742 369.871 72.6719C369.074 71.7578 367.996 71.3008 366.637 71.3008Z" fill="white"/>
<path d="M390.701 88H387.449V61H390.701V88Z" fill="white"/>
<path d="M407.664 88C407.477 87.625 407.324 86.957 407.207 85.9961C405.695 87.5664 403.891 88.3516 401.793 88.3516C399.918 88.3516 398.377 87.8242 397.17 86.7695C395.975 85.7031 395.377 84.3555 395.377 82.7266C395.377 80.7461 396.127 79.2109 397.627 78.1211C399.139 77.0195 401.26 76.4688 403.99 76.4688H407.154V74.9746C407.154 73.8379 406.814 72.9355 406.135 72.2676C405.455 71.5879 404.453 71.248 403.129 71.248C401.969 71.248 400.996 71.541 400.211 72.127C399.426 72.7129 399.033 73.4219 399.033 74.2539H395.764C395.764 73.3047 396.098 72.3906 396.766 71.5117C397.445 70.6211 398.359 69.918 399.508 69.4023C400.668 68.8867 401.939 68.6289 403.322 68.6289C405.514 68.6289 407.23 69.1797 408.473 70.2812C409.715 71.3711 410.359 72.877 410.406 74.7988V83.5527C410.406 85.2988 410.629 86.6875 411.074 87.7188V88H407.664ZM402.268 85.5215C403.287 85.5215 404.254 85.2578 405.168 84.7305C406.082 84.2031 406.744 83.5176 407.154 82.6738V78.7715H404.605C400.621 78.7715 398.629 79.9375 398.629 82.2695C398.629 83.2891 398.969 84.0859 399.648 84.6602C400.328 85.2344 401.201 85.5215 402.268 85.5215Z" fill="white"/>
<path d="M435.508 82.9551C435.508 82.0762 435.174 81.3965 434.506 80.916C433.85 80.4238 432.695 80.002 431.043 79.6504C429.402 79.2988 428.096 78.877 427.123 78.3848C426.162 77.8926 425.447 77.3066 424.979 76.627C424.521 75.9473 424.293 75.1387 424.293 74.2012C424.293 72.6426 424.949 71.3242 426.262 70.2461C427.586 69.168 429.273 68.6289 431.324 68.6289C433.48 68.6289 435.227 69.1855 436.562 70.2988C437.91 71.4121 438.584 72.8359 438.584 74.5703H435.314C435.314 73.6797 434.934 72.9121 434.172 72.2676C433.422 71.623 432.473 71.3008 431.324 71.3008C430.141 71.3008 429.215 71.5586 428.547 72.0742C427.879 72.5898 427.545 73.2637 427.545 74.0957C427.545 74.8809 427.855 75.4727 428.477 75.8711C429.098 76.2695 430.217 76.6504 431.834 77.0137C433.463 77.377 434.781 77.8105 435.789 78.3145C436.797 78.8184 437.541 79.4277 438.021 80.1426C438.514 80.8457 438.76 81.707 438.76 82.7266C438.76 84.4258 438.08 85.791 436.721 86.8223C435.361 87.8418 433.598 88.3516 431.43 88.3516C429.906 88.3516 428.559 88.082 427.387 87.543C426.215 87.0039 425.295 86.2539 424.627 85.293C423.971 84.3203 423.643 83.2715 423.643 82.1465H426.895C426.953 83.2363 427.387 84.1035 428.195 84.748C429.016 85.3809 430.094 85.6973 431.43 85.6973C432.66 85.6973 433.645 85.4512 434.383 84.959C435.133 84.4551 435.508 83.7871 435.508 82.9551Z" fill="white"/>
<path d="M454.738 86.1191C453.473 87.6074 451.615 88.3516 449.166 88.3516C447.139 88.3516 445.592 87.7656 444.525 86.5938C443.471 85.4102 442.938 83.6641 442.926 81.3555V68.9805H446.178V81.2676C446.178 84.1504 447.35 85.5918 449.693 85.5918C452.178 85.5918 453.83 84.666 454.65 82.8145V68.9805H457.902V88H454.809L454.738 86.1191Z" fill="white"/>
<path d="M465.918 68.9805L466.006 71.0898C467.4 69.4492 469.281 68.6289 471.648 68.6289C474.309 68.6289 476.119 69.6484 477.08 71.6875C477.713 70.7734 478.533 70.0352 479.541 69.4727C480.561 68.9102 481.762 68.6289 483.145 68.6289C487.316 68.6289 489.438 70.8379 489.508 75.2559V88H486.256V75.4492C486.256 74.0898 485.945 73.0762 485.324 72.4082C484.703 71.7285 483.66 71.3887 482.195 71.3887C480.988 71.3887 479.986 71.752 479.189 72.4785C478.393 73.1934 477.93 74.1602 477.801 75.3789V88H474.531V75.5371C474.531 72.7715 473.178 71.3887 470.471 71.3887C468.338 71.3887 466.879 72.2969 466.094 74.1133V88H462.842V68.9805H465.918Z" fill="white"/>
<path d="M506.172 88C505.984 87.625 505.832 86.957 505.715 85.9961C504.203 87.5664 502.398 88.3516 500.301 88.3516C498.426 88.3516 496.885 87.8242 495.678 86.7695C494.482 85.7031 493.885 84.3555 493.885 82.7266C493.885 80.7461 494.635 79.2109 496.135 78.1211C497.646 77.0195 499.768 76.4688 502.498 76.4688H505.662V74.9746C505.662 73.8379 505.322 72.9355 504.643 72.2676C503.963 71.5879 502.961 71.248 501.637 71.248C500.477 71.248 499.504 71.541 498.719 72.127C497.934 72.7129 497.541 73.4219 497.541 74.2539H494.271C494.271 73.3047 494.605 72.3906 495.273 71.5117C495.953 70.6211 496.867 69.918 498.016 69.4023C499.176 68.8867 500.447 68.6289 501.83 68.6289C504.021 68.6289 505.738 69.1797 506.98 70.2812C508.223 71.3711 508.867 72.877 508.914 74.7988V83.5527C508.914 85.2988 509.137 86.6875 509.582 87.7188V88H506.172ZM500.775 85.5215C501.795 85.5215 502.762 85.2578 503.676 84.7305C504.59 84.2031 505.252 83.5176 505.662 82.6738V78.7715H503.113C499.129 78.7715 497.137 79.9375 497.137 82.2695C497.137 83.2891 497.477 84.0859 498.156 84.6602C498.836 85.2344 499.709 85.5215 500.775 85.5215Z" fill="white"/>
<path d="M522.15 78.332C522.15 75.4141 522.842 73.0703 524.225 71.3008C525.607 69.5195 527.418 68.6289 529.656 68.6289C531.883 68.6289 533.646 69.3906 534.947 70.9141V61H538.199V88H535.211L535.053 85.9609C533.752 87.5547 531.941 88.3516 529.621 88.3516C527.418 88.3516 525.619 87.4492 524.225 85.6445C522.842 83.8398 522.15 81.4844 522.15 78.5781V78.332ZM525.402 78.7012C525.402 80.8574 525.848 82.5449 526.738 83.7637C527.629 84.9824 528.859 85.5918 530.43 85.5918C532.492 85.5918 533.998 84.666 534.947 82.8145V74.0781C533.975 72.2852 532.48 71.3887 530.465 71.3887C528.871 71.3887 527.629 72.0039 526.738 73.2344C525.848 74.4648 525.402 76.2871 525.402 78.7012Z" fill="white"/>
<path d="M551.154 88.3516C548.576 88.3516 546.479 87.5078 544.861 85.8203C543.244 84.1211 542.436 81.8535 542.436 79.0176V78.4199C542.436 76.5332 542.793 74.8516 543.508 73.375C544.234 71.8867 545.242 70.7266 546.531 69.8945C547.832 69.0508 549.238 68.6289 550.75 68.6289C553.223 68.6289 555.145 69.4434 556.516 71.0723C557.887 72.7012 558.572 75.0332 558.572 78.0684V79.4219H545.688C545.734 81.2969 546.279 82.8145 547.322 83.9746C548.377 85.123 549.713 85.6973 551.33 85.6973C552.479 85.6973 553.451 85.4629 554.248 84.9941C555.045 84.5254 555.742 83.9043 556.34 83.1309L558.326 84.6777C556.732 87.127 554.342 88.3516 551.154 88.3516ZM550.75 71.3008C549.438 71.3008 548.336 71.7812 547.445 72.7422C546.555 73.6914 546.004 75.0273 545.793 76.75H555.32V76.5039C555.227 74.8516 554.781 73.5742 553.984 72.6719C553.188 71.7578 552.109 71.3008 550.75 71.3008Z" fill="white"/>
<path d="M785.664 86.2949C785.664 85.7324 785.828 85.2637 786.156 84.8887C786.496 84.5137 787 84.3262 787.668 84.3262C788.336 84.3262 788.84 84.5137 789.18 84.8887C789.531 85.2637 789.707 85.7324 789.707 86.2949C789.707 86.834 789.531 87.2852 789.18 87.6484C788.84 88.0117 788.336 88.1934 787.668 88.1934C787 88.1934 786.496 88.0117 786.156 87.6484C785.828 87.2852 785.664 86.834 785.664 86.2949Z" fill="white"/>
<path d="M125.641 128H122.248L109.363 108.277V128H105.971V102.406H109.363L122.283 122.217V102.406H125.641V128Z" fill="white"/>
<path d="M130.264 118.314C130.264 116.451 130.627 114.775 131.354 113.287C132.092 111.799 133.111 110.65 134.412 109.842C135.725 109.033 137.219 108.629 138.895 108.629C141.484 108.629 143.576 109.525 145.17 111.318C146.775 113.111 147.578 115.496 147.578 118.473V118.701C147.578 120.553 147.221 122.217 146.506 123.693C145.803 125.158 144.789 126.301 143.465 127.121C142.152 127.941 140.641 128.352 138.93 128.352C136.352 128.352 134.26 127.455 132.654 125.662C131.061 123.869 130.264 121.496 130.264 118.543V118.314ZM133.533 118.701C133.533 120.811 134.02 122.504 134.992 123.781C135.977 125.059 137.289 125.697 138.93 125.697C140.582 125.697 141.895 125.053 142.867 123.764C143.84 122.463 144.326 120.646 144.326 118.314C144.326 116.229 143.828 114.541 142.832 113.252C141.848 111.951 140.535 111.301 138.895 111.301C137.289 111.301 135.994 111.939 135.01 113.217C134.025 114.494 133.533 116.322 133.533 118.701Z" fill="white"/>
<path d="M156.068 104.375V108.98H159.619V111.494H156.068V123.289C156.068 124.051 156.227 124.625 156.543 125.012C156.859 125.387 157.398 125.574 158.16 125.574C158.535 125.574 159.051 125.504 159.707 125.363V128C158.852 128.234 158.02 128.352 157.211 128.352C155.758 128.352 154.662 127.912 153.924 127.033C153.186 126.154 152.816 124.906 152.816 123.289V111.494H149.354V108.98H152.816V104.375H156.068Z" fill="white"/>
<path d="M175.176 128C174.988 127.625 174.836 126.957 174.719 125.996C173.207 127.566 171.402 128.352 169.305 128.352C167.43 128.352 165.889 127.824 164.682 126.77C163.486 125.703 162.889 124.355 162.889 122.727C162.889 120.746 163.639 119.211 165.139 118.121C166.65 117.02 168.771 116.469 171.502 116.469H174.666V114.975C174.666 113.838 174.326 112.936 173.646 112.268C172.967 111.588 171.965 111.248 170.641 111.248C169.48 111.248 168.508 111.541 167.723 112.127C166.938 112.713 166.545 113.422 166.545 114.254H163.275C163.275 113.305 163.609 112.391 164.277 111.512C164.957 110.621 165.871 109.918 167.02 109.402C168.18 108.887 169.451 108.629 170.834 108.629C173.025 108.629 174.742 109.18 175.984 110.281C177.227 111.371 177.871 112.877 177.918 114.799V123.553C177.918 125.299 178.141 126.688 178.586 127.719V128H175.176ZM169.779 125.521C170.799 125.521 171.766 125.258 172.68 124.73C173.594 124.203 174.256 123.518 174.666 122.674V118.771H172.117C168.133 118.771 166.141 119.938 166.141 122.27C166.141 123.289 166.48 124.086 167.16 124.66C167.84 125.234 168.713 125.521 169.779 125.521Z" fill="white"/>
<path d="M182.91 126.295C182.91 125.732 183.074 125.264 183.402 124.889C183.742 124.514 184.246 124.326 184.914 124.326C185.582 124.326 186.086 124.514 186.426 124.889C186.777 125.264 186.953 125.732 186.953 126.295C186.953 126.834 186.777 127.285 186.426 127.648C186.086 128.012 185.582 128.193 184.914 128.193C184.246 128.193 183.742 128.012 183.402 127.648C183.074 127.285 182.91 126.834 182.91 126.295ZM182.928 110.773C182.928 110.211 183.092 109.742 183.42 109.367C183.76 108.992 184.264 108.805 184.932 108.805C185.6 108.805 186.104 108.992 186.443 109.367C186.795 109.742 186.971 110.211 186.971 110.773C186.971 111.312 186.795 111.764 186.443 112.127C186.104 112.49 185.6 112.672 184.932 112.672C184.264 112.672 183.76 112.49 183.42 112.127C183.092 111.764 182.928 111.312 182.928 110.773Z" fill="white"/>
<path d="M220 119.879C219.684 122.586 218.682 124.678 216.994 126.154C215.318 127.619 213.086 128.352 210.297 128.352C207.273 128.352 204.848 127.268 203.02 125.1C201.203 122.932 200.295 120.031 200.295 116.398V113.938C200.295 111.559 200.717 109.467 201.561 107.662C202.416 105.857 203.623 104.475 205.182 103.514C206.74 102.541 208.545 102.055 210.596 102.055C213.314 102.055 215.494 102.816 217.135 104.34C218.775 105.852 219.73 107.949 220 110.633H216.607C216.314 108.594 215.676 107.117 214.691 106.203C213.719 105.289 212.354 104.832 210.596 104.832C208.439 104.832 206.746 105.629 205.516 107.223C204.297 108.816 203.688 111.084 203.688 114.025V116.504C203.688 119.281 204.268 121.49 205.428 123.131C206.588 124.771 208.211 125.592 210.297 125.592C212.172 125.592 213.607 125.17 214.604 124.326C215.611 123.471 216.279 121.988 216.607 119.879H220Z" fill="white"/>
<path d="M235.855 128C235.668 127.625 235.516 126.957 235.398 125.996C233.887 127.566 232.082 128.352 229.984 128.352C228.109 128.352 226.568 127.824 225.361 126.77C224.166 125.703 223.568 124.355 223.568 122.727C223.568 120.746 224.318 119.211 225.818 118.121C227.33 117.02 229.451 116.469 232.182 116.469H235.346V114.975C235.346 113.838 235.006 112.936 234.326 112.268C233.646 111.588 232.645 111.248 231.32 111.248C230.16 111.248 229.188 111.541 228.402 112.127C227.617 112.713 227.225 113.422 227.225 114.254H223.955C223.955 113.305 224.289 112.391 224.957 111.512C225.637 110.621 226.551 109.918 227.699 109.402C228.859 108.887 230.131 108.629 231.514 108.629C233.705 108.629 235.422 109.18 236.664 110.281C237.906 111.371 238.551 112.877 238.598 114.799V123.553C238.598 125.299 238.82 126.688 239.266 127.719V128H235.855ZM230.459 125.521C231.479 125.521 232.445 125.258 233.359 124.73C234.273 124.203 234.936 123.518 235.346 122.674V118.771H232.797C228.812 118.771 226.82 119.938 226.82 122.27C226.82 123.289 227.16 124.086 227.84 124.66C228.52 125.234 229.393 125.521 230.459 125.521Z" fill="white"/>
<path d="M242.904 118.332C242.904 115.414 243.596 113.07 244.979 111.301C246.361 109.52 248.172 108.629 250.41 108.629C252.637 108.629 254.4 109.391 255.701 110.914V101H258.953V128H255.965L255.807 125.961C254.506 127.555 252.695 128.352 250.375 128.352C248.172 128.352 246.373 127.449 244.979 125.645C243.596 123.84 242.904 121.484 242.904 118.578V118.332ZM246.156 118.701C246.156 120.857 246.602 122.545 247.492 123.764C248.383 124.982 249.613 125.592 251.184 125.592C253.246 125.592 254.752 124.666 255.701 122.814V114.078C254.729 112.285 253.234 111.389 251.219 111.389C249.625 111.389 248.383 112.004 247.492 113.234C246.602 114.465 246.156 116.287 246.156 118.701Z" fill="white"/>
<path d="M275.758 128C275.57 127.625 275.418 126.957 275.301 125.996C273.789 127.566 271.984 128.352 269.887 128.352C268.012 128.352 266.471 127.824 265.264 126.77C264.068 125.703 263.471 124.355 263.471 122.727C263.471 120.746 264.221 119.211 265.721 118.121C267.232 117.02 269.354 116.469 272.084 116.469H275.248V114.975C275.248 113.838 274.908 112.936 274.229 112.268C273.549 111.588 272.547 111.248 271.223 111.248C270.062 111.248 269.09 111.541 268.305 112.127C267.52 112.713 267.127 113.422 267.127 114.254H263.857C263.857 113.305 264.191 112.391 264.859 111.512C265.539 110.621 266.453 109.918 267.602 109.402C268.762 108.887 270.033 108.629 271.416 108.629C273.607 108.629 275.324 109.18 276.566 110.281C277.809 111.371 278.453 112.877 278.5 114.799V123.553C278.5 125.299 278.723 126.688 279.168 127.719V128H275.758ZM270.361 125.521C271.381 125.521 272.348 125.258 273.262 124.73C274.176 124.203 274.838 123.518 275.248 122.674V118.771H272.699C268.715 118.771 266.723 119.938 266.723 122.27C266.723 123.289 267.062 124.086 267.742 124.66C268.422 125.234 269.295 125.521 270.361 125.521Z" fill="white"/>
<path d="M296.061 128H292.809V101H296.061V128Z" fill="white"/>
<path d="M309.174 128.352C306.596 128.352 304.498 127.508 302.881 125.82C301.264 124.121 300.455 121.854 300.455 119.018V118.42C300.455 116.533 300.812 114.852 301.527 113.375C302.254 111.887 303.262 110.727 304.551 109.895C305.852 109.051 307.258 108.629 308.77 108.629C311.242 108.629 313.164 109.443 314.535 111.072C315.906 112.701 316.592 115.033 316.592 118.068V119.422H303.707C303.754 121.297 304.299 122.814 305.342 123.975C306.396 125.123 307.732 125.697 309.35 125.697C310.498 125.697 311.471 125.463 312.268 124.994C313.064 124.525 313.762 123.904 314.359 123.131L316.346 124.678C314.752 127.127 312.361 128.352 309.174 128.352ZM308.77 111.301C307.457 111.301 306.355 111.781 305.465 112.742C304.574 113.691 304.023 115.027 303.812 116.75H313.34V116.504C313.246 114.852 312.801 113.574 312.004 112.672C311.207 111.758 310.129 111.301 308.77 111.301Z" fill="white"/>
<path d="M324.783 104.375V108.98H328.334V111.494H324.783V123.289C324.783 124.051 324.941 124.625 325.258 125.012C325.574 125.387 326.113 125.574 326.875 125.574C327.25 125.574 327.766 125.504 328.422 125.363V128C327.566 128.234 326.734 128.352 325.926 128.352C324.473 128.352 323.377 127.912 322.639 127.033C321.9 126.154 321.531 124.906 321.531 123.289V111.494H318.068V108.98H321.531V104.375H324.783Z" fill="white"/>
<path d="M341.342 111.898C340.85 111.816 340.316 111.775 339.742 111.775C337.609 111.775 336.162 112.684 335.4 114.5V128H332.148V108.98H335.312L335.365 111.178C336.432 109.479 337.943 108.629 339.9 108.629C340.533 108.629 341.014 108.711 341.342 108.875V111.898Z" fill="white"/>
<path d="M355.387 128C355.199 127.625 355.047 126.957 354.93 125.996C353.418 127.566 351.613 128.352 349.516 128.352C347.641 128.352 346.1 127.824 344.893 126.77C343.697 125.703 343.1 124.355 343.1 122.727C343.1 120.746 343.85 119.211 345.35 118.121C346.861 117.02 348.982 116.469 351.713 116.469H354.877V114.975C354.877 113.838 354.537 112.936 353.857 112.268C353.178 111.588 352.176 111.248 350.852 111.248C349.691 111.248 348.719 111.541 347.934 112.127C347.148 112.713 346.756 113.422 346.756 114.254H343.486C343.486 113.305 343.82 112.391 344.488 111.512C345.168 110.621 346.082 109.918 347.23 109.402C348.391 108.887 349.662 108.629 351.045 108.629C353.236 108.629 354.953 109.18 356.195 110.281C357.438 111.371 358.082 112.877 358.129 114.799V123.553C358.129 125.299 358.352 126.688 358.797 127.719V128H355.387ZM349.99 125.521C351.01 125.521 351.977 125.258 352.891 124.73C353.805 124.203 354.467 123.518 354.877 122.674V118.771H352.328C348.344 118.771 346.352 119.938 346.352 122.27C346.352 123.289 346.691 124.086 347.371 124.66C348.051 125.234 348.924 125.521 349.99 125.521Z" fill="white"/>
<path d="M381.35 111.898C380.857 111.816 380.324 111.775 379.75 111.775C377.617 111.775 376.17 112.684 375.408 114.5V128H372.156V108.98H375.32L375.373 111.178C376.439 109.479 377.951 108.629 379.908 108.629C380.541 108.629 381.021 108.711 381.35 108.875V111.898Z" fill="white"/>
<path d="M391.896 128.352C389.318 128.352 387.221 127.508 385.604 125.82C383.986 124.121 383.178 121.854 383.178 119.018V118.42C383.178 116.533 383.535 114.852 384.25 113.375C384.977 111.887 385.984 110.727 387.273 109.895C388.574 109.051 389.98 108.629 391.492 108.629C393.965 108.629 395.887 109.443 397.258 111.072C398.629 112.701 399.314 115.033 399.314 118.068V119.422H386.43C386.477 121.297 387.021 122.814 388.064 123.975C389.119 125.123 390.455 125.697 392.072 125.697C393.221 125.697 394.193 125.463 394.99 124.994C395.787 124.525 396.484 123.904 397.082 123.131L399.068 124.678C397.475 127.127 395.084 128.352 391.896 128.352ZM391.492 111.301C390.18 111.301 389.078 111.781 388.188 112.742C387.297 113.691 386.746 115.027 386.535 116.75H396.062V116.504C395.969 114.852 395.523 113.574 394.727 112.672C393.93 111.758 392.852 111.301 391.492 111.301Z" fill="white"/>
<path d="M419.16 118.701C419.16 121.596 418.498 123.928 417.174 125.697C415.85 127.467 414.057 128.352 411.795 128.352C409.486 128.352 407.67 127.619 406.346 126.154V135.312H403.094V108.98H406.064L406.223 111.09C407.547 109.449 409.387 108.629 411.742 108.629C414.027 108.629 415.832 109.49 417.156 111.213C418.492 112.936 419.16 115.332 419.16 118.402V118.701ZM415.908 118.332C415.908 116.188 415.451 114.494 414.537 113.252C413.623 112.01 412.369 111.389 410.775 111.389C408.807 111.389 407.33 112.262 406.346 114.008V123.096C407.318 124.83 408.807 125.697 410.811 125.697C412.369 125.697 413.605 125.082 414.52 123.852C415.445 122.609 415.908 120.77 415.908 118.332Z" fill="white"/>
<path d="M432.502 111.898C432.01 111.816 431.477 111.775 430.902 111.775C428.77 111.775 427.322 112.684 426.561 114.5V128H423.309V108.98H426.473L426.525 111.178C427.592 109.479 429.104 108.629 431.061 108.629C431.693 108.629 432.174 108.711 432.502 108.875V111.898Z" fill="white"/>
<path d="M443.049 128.352C440.471 128.352 438.373 127.508 436.756 125.82C435.139 124.121 434.33 121.854 434.33 119.018V118.42C434.33 116.533 434.688 114.852 435.402 113.375C436.129 111.887 437.137 110.727 438.426 109.895C439.727 109.051 441.133 108.629 442.645 108.629C445.117 108.629 447.039 109.443 448.41 111.072C449.781 112.701 450.467 115.033 450.467 118.068V119.422H437.582C437.629 121.297 438.174 122.814 439.217 123.975C440.271 125.123 441.607 125.697 443.225 125.697C444.373 125.697 445.346 125.463 446.143 124.994C446.939 124.525 447.637 123.904 448.234 123.131L450.221 124.678C448.627 127.127 446.236 128.352 443.049 128.352ZM442.645 111.301C441.332 111.301 440.23 111.781 439.34 112.742C438.449 113.691 437.898 115.027 437.688 116.75H447.215V116.504C447.121 114.852 446.676 113.574 445.879 112.672C445.082 111.758 444.004 111.301 442.645 111.301Z" fill="white"/>
<path d="M465.32 122.955C465.32 122.076 464.986 121.396 464.318 120.916C463.662 120.424 462.508 120.002 460.855 119.65C459.215 119.299 457.908 118.877 456.936 118.385C455.975 117.893 455.26 117.307 454.791 116.627C454.334 115.947 454.105 115.139 454.105 114.201C454.105 112.643 454.762 111.324 456.074 110.246C457.398 109.168 459.086 108.629 461.137 108.629C463.293 108.629 465.039 109.186 466.375 110.299C467.723 111.412 468.396 112.836 468.396 114.57H465.127C465.127 113.68 464.746 112.912 463.984 112.268C463.234 111.623 462.285 111.301 461.137 111.301C459.953 111.301 459.027 111.559 458.359 112.074C457.691 112.59 457.357 113.264 457.357 114.096C457.357 114.881 457.668 115.473 458.289 115.871C458.91 116.27 460.029 116.65 461.646 117.014C463.275 117.377 464.594 117.811 465.602 118.314C466.609 118.818 467.354 119.428 467.834 120.143C468.326 120.846 468.572 121.707 468.572 122.727C468.572 124.426 467.893 125.791 466.533 126.822C465.174 127.842 463.41 128.352 461.242 128.352C459.719 128.352 458.371 128.082 457.199 127.543C456.027 127.004 455.107 126.254 454.439 125.293C453.783 124.32 453.455 123.271 453.455 122.146H456.707C456.766 123.236 457.199 124.104 458.008 124.748C458.828 125.381 459.906 125.697 461.242 125.697C462.473 125.697 463.457 125.451 464.195 124.959C464.945 124.455 465.32 123.787 465.32 122.955Z" fill="white"/>
<path d="M480.701 128.352C478.123 128.352 476.025 127.508 474.408 125.82C472.791 124.121 471.982 121.854 471.982 119.018V118.42C471.982 116.533 472.34 114.852 473.055 113.375C473.781 111.887 474.789 110.727 476.078 109.895C477.379 109.051 478.785 108.629 480.297 108.629C482.77 108.629 484.691 109.443 486.062 111.072C487.434 112.701 488.119 115.033 488.119 118.068V119.422H475.234C475.281 121.297 475.826 122.814 476.869 123.975C477.924 125.123 479.26 125.697 480.877 125.697C482.025 125.697 482.998 125.463 483.795 124.994C484.592 124.525 485.289 123.904 485.887 123.131L487.873 124.678C486.279 127.127 483.889 128.352 480.701 128.352ZM480.297 111.301C478.984 111.301 477.883 111.781 476.992 112.742C476.102 113.691 475.551 115.027 475.34 116.75H484.867V116.504C484.773 114.852 484.328 113.574 483.531 112.672C482.734 111.758 481.656 111.301 480.297 111.301Z" fill="white"/>
<path d="M494.975 108.98L495.08 111.371C496.533 109.543 498.432 108.629 500.775 108.629C504.795 108.629 506.822 110.896 506.857 115.432V128H503.605V115.414C503.594 114.043 503.277 113.029 502.656 112.373C502.047 111.717 501.092 111.389 499.791 111.389C498.736 111.389 497.811 111.67 497.014 112.232C496.217 112.795 495.596 113.533 495.15 114.447V128H491.898V108.98H494.975Z" fill="white"/>
<path d="M516.174 104.375V108.98H519.725V111.494H516.174V123.289C516.174 124.051 516.332 124.625 516.648 125.012C516.965 125.387 517.504 125.574 518.266 125.574C518.641 125.574 519.156 125.504 519.812 125.363V128C518.957 128.234 518.125 128.352 517.316 128.352C515.863 128.352 514.768 127.912 514.029 127.033C513.291 126.154 512.922 124.906 512.922 123.289V111.494H509.459V108.98H512.922V104.375H516.174Z" fill="white"/>
<path d="M535.281 128C535.094 127.625 534.941 126.957 534.824 125.996C533.312 127.566 531.508 128.352 529.41 128.352C527.535 128.352 525.994 127.824 524.787 126.77C523.592 125.703 522.994 124.355 522.994 122.727C522.994 120.746 523.744 119.211 525.244 118.121C526.756 117.02 528.877 116.469 531.607 116.469H534.771V114.975C534.771 113.838 534.432 112.936 533.752 112.268C533.072 111.588 532.07 111.248 530.746 111.248C529.586 111.248 528.613 111.541 527.828 112.127C527.043 112.713 526.65 113.422 526.65 114.254H523.381C523.381 113.305 523.715 112.391 524.383 111.512C525.062 110.621 525.977 109.918 527.125 109.402C528.285 108.887 529.557 108.629 530.939 108.629C533.131 108.629 534.848 109.18 536.09 110.281C537.332 111.371 537.977 112.877 538.023 114.799V123.553C538.023 125.299 538.246 126.688 538.691 127.719V128H535.281ZM529.885 125.521C530.904 125.521 531.871 125.258 532.785 124.73C533.699 124.203 534.361 123.518 534.771 122.674V118.771H532.223C528.238 118.771 526.246 119.938 526.246 122.27C526.246 123.289 526.586 124.086 527.266 124.66C527.945 125.234 528.818 125.521 529.885 125.521Z" fill="white"/>
<path d="M563.793 126.119C562.527 127.607 560.67 128.352 558.221 128.352C556.193 128.352 554.646 127.766 553.58 126.594C552.525 125.41 551.992 123.664 551.98 121.355V108.98H555.232V121.268C555.232 124.15 556.404 125.592 558.748 125.592C561.232 125.592 562.885 124.666 563.705 122.814V108.98H566.957V128H563.863L563.793 126.119Z" fill="white"/>
<path d="M574.99 108.98L575.096 111.371C576.549 109.543 578.447 108.629 580.791 108.629C584.811 108.629 586.838 110.896 586.873 115.432V128H583.621V115.414C583.609 114.043 583.293 113.029 582.672 112.373C582.062 111.717 581.107 111.389 579.807 111.389C578.752 111.389 577.826 111.67 577.029 112.232C576.232 112.795 575.611 113.533 575.166 114.447V128H571.914V108.98H574.99Z" fill="white"/>
<path d="M599.916 118.332C599.916 115.414 600.607 113.07 601.99 111.301C603.373 109.52 605.184 108.629 607.422 108.629C609.648 108.629 611.412 109.391 612.713 110.914V101H615.965V128H612.977L612.818 125.961C611.518 127.555 609.707 128.352 607.387 128.352C605.184 128.352 603.385 127.449 601.99 125.645C600.607 123.84 599.916 121.484 599.916 118.578V118.332ZM603.168 118.701C603.168 120.857 603.613 122.545 604.504 123.764C605.395 124.982 606.625 125.592 608.195 125.592C610.258 125.592 611.764 124.666 612.713 122.814V114.078C611.74 112.285 610.246 111.389 608.23 111.389C606.637 111.389 605.395 112.004 604.504 113.234C603.613 114.465 603.168 116.287 603.168 118.701Z" fill="white"/>
<path d="M624.561 128H621.291V108.98H624.561V128ZM624.596 101.018H628.533L623.822 106.186H621.203L624.596 101.018Z" fill="white"/>
<path d="M629.148 118.332C629.148 115.367 629.834 113.012 631.205 111.266C632.576 109.508 634.393 108.629 636.654 108.629C638.975 108.629 640.785 109.449 642.086 111.09L642.244 108.98H645.215V127.543C645.215 130.004 644.482 131.943 643.018 133.361C641.564 134.779 639.607 135.488 637.146 135.488C635.775 135.488 634.434 135.195 633.121 134.609C631.809 134.023 630.807 133.221 630.115 132.201L631.803 130.25C633.197 131.973 634.902 132.834 636.918 132.834C638.5 132.834 639.73 132.389 640.609 131.498C641.5 130.607 641.945 129.354 641.945 127.736V126.102C640.645 127.602 638.869 128.352 636.619 128.352C634.393 128.352 632.588 127.455 631.205 125.662C629.834 123.869 629.148 121.426 629.148 118.332ZM632.418 118.701C632.418 120.846 632.857 122.533 633.736 123.764C634.615 124.982 635.846 125.592 637.428 125.592C639.479 125.592 640.984 124.66 641.945 122.797V114.113C640.949 112.297 639.455 111.389 637.463 111.389C635.881 111.389 634.645 112.004 633.754 113.234C632.863 114.465 632.418 116.287 632.418 118.701Z" fill="white"/>
<path d="M653.67 128H650.418V108.98H653.67V128ZM650.154 103.936C650.154 103.408 650.312 102.963 650.629 102.6C650.957 102.236 651.438 102.055 652.07 102.055C652.703 102.055 653.184 102.236 653.512 102.6C653.84 102.963 654.004 103.408 654.004 103.936C654.004 104.463 653.84 104.902 653.512 105.254C653.184 105.605 652.703 105.781 652.07 105.781C651.438 105.781 650.957 105.605 650.629 105.254C650.312 104.902 650.154 104.463 650.154 103.936Z" fill="white"/>
<path d="M663.303 104.375V108.98H666.854V111.494H663.303V123.289C663.303 124.051 663.461 124.625 663.777 125.012C664.094 125.387 664.633 125.574 665.395 125.574C665.77 125.574 666.285 125.504 666.941 125.363V128C666.086 128.234 665.254 128.352 664.445 128.352C662.992 128.352 661.896 127.912 661.158 127.033C660.42 126.154 660.051 124.906 660.051 123.289V111.494H656.588V108.98H660.051V104.375H663.303Z" fill="white"/>
<path d="M669.455 118.314C669.455 116.451 669.818 114.775 670.545 113.287C671.283 111.799 672.303 110.65 673.604 109.842C674.916 109.033 676.41 108.629 678.086 108.629C680.676 108.629 682.768 109.525 684.361 111.318C685.967 113.111 686.77 115.496 686.77 118.473V118.701C686.77 120.553 686.412 122.217 685.697 123.693C684.994 125.158 683.98 126.301 682.656 127.121C681.344 127.941 679.832 128.352 678.121 128.352C675.543 128.352 673.451 127.455 671.846 125.662C670.252 123.869 669.455 121.496 669.455 118.543V118.314ZM672.725 118.701C672.725 120.811 673.211 122.504 674.184 123.781C675.168 125.059 676.48 125.697 678.121 125.697C679.773 125.697 681.086 125.053 682.059 123.764C683.031 122.463 683.518 120.646 683.518 118.314C683.518 116.229 683.02 114.541 682.023 113.252C681.039 111.951 679.727 111.301 678.086 111.301C676.48 111.301 675.186 111.939 674.201 113.217C673.217 114.494 672.725 116.322 672.725 118.701Z" fill="white"/>
<path d="M104.67 158.332C104.67 155.414 105.361 153.07 106.744 151.301C108.127 149.52 109.938 148.629 112.176 148.629C114.402 148.629 116.166 149.391 117.467 150.914V141H120.719V168H117.73L117.572 165.961C116.271 167.555 114.461 168.352 112.141 168.352C109.938 168.352 108.139 167.449 106.744 165.645C105.361 163.84 104.67 161.484 104.67 158.578V158.332ZM107.922 158.701C107.922 160.857 108.367 162.545 109.258 163.764C110.148 164.982 111.379 165.592 112.949 165.592C115.012 165.592 116.518 164.666 117.467 162.814V154.078C116.494 152.285 115 151.389 112.984 151.389C111.391 151.389 110.148 152.004 109.258 153.234C108.367 154.465 107.922 156.287 107.922 158.701Z" fill="white"/>
<path d="M129.314 168H126.062V148.98H129.314V168ZM125.799 143.936C125.799 143.408 125.957 142.963 126.273 142.6C126.602 142.236 127.082 142.055 127.715 142.055C128.348 142.055 128.828 142.236 129.156 142.6C129.484 142.963 129.648 143.408 129.648 143.936C129.648 144.463 129.484 144.902 129.156 145.254C128.828 145.605 128.348 145.781 127.715 145.781C127.082 145.781 126.602 145.605 126.273 145.254C125.957 144.902 125.799 144.463 125.799 143.936Z" fill="white"/>
<path d="M136.135 168V151.494H133.129V148.98H136.135V147.029C136.135 144.99 136.68 143.414 137.77 142.301C138.859 141.188 140.4 140.631 142.393 140.631C143.143 140.631 143.887 140.73 144.625 140.93L144.449 143.566C143.898 143.461 143.312 143.408 142.691 143.408C141.637 143.408 140.822 143.719 140.248 144.34C139.674 144.949 139.387 145.828 139.387 146.977V148.98H143.447V151.494H139.387V168H136.135Z" fill="white"/>
<path d="M154.521 168.352C151.943 168.352 149.846 167.508 148.229 165.82C146.611 164.121 145.803 161.854 145.803 159.018V158.42C145.803 156.533 146.16 154.852 146.875 153.375C147.602 151.887 148.609 150.727 149.898 149.895C151.199 149.051 152.605 148.629 154.117 148.629C156.59 148.629 158.512 149.443 159.883 151.072C161.254 152.701 161.939 155.033 161.939 158.068V159.422H149.055C149.102 161.297 149.646 162.814 150.689 163.975C151.744 165.123 153.08 165.697 154.697 165.697C155.846 165.697 156.818 165.463 157.615 164.994C158.412 164.525 159.109 163.904 159.707 163.131L161.693 164.678C160.1 167.127 157.709 168.352 154.521 168.352ZM154.117 151.301C152.805 151.301 151.703 151.781 150.812 152.742C149.922 153.691 149.371 155.027 149.16 156.75H158.688V156.504C158.594 154.852 158.148 153.574 157.352 152.672C156.555 151.758 155.477 151.301 154.117 151.301Z" fill="white"/>
<path d="M174.912 151.898C174.42 151.816 173.887 151.775 173.312 151.775C171.18 151.775 169.732 152.684 168.971 154.5V168H165.719V148.98H168.883L168.936 151.178C170.002 149.479 171.514 148.629 173.471 148.629C174.104 148.629 174.584 148.711 174.912 148.875V151.898Z" fill="white"/>
<path d="M185.459 168.352C182.881 168.352 180.783 167.508 179.166 165.82C177.549 164.121 176.74 161.854 176.74 159.018V158.42C176.74 156.533 177.098 154.852 177.812 153.375C178.539 151.887 179.547 150.727 180.836 149.895C182.137 149.051 183.543 148.629 185.055 148.629C187.527 148.629 189.449 149.443 190.82 151.072C192.191 152.701 192.877 155.033 192.877 158.068V159.422H179.992C180.039 161.297 180.584 162.814 181.627 163.975C182.682 165.123 184.018 165.697 185.635 165.697C186.783 165.697 187.756 165.463 188.553 164.994C189.35 164.525 190.047 163.904 190.645 163.131L192.631 164.678C191.037 167.127 188.646 168.352 185.459 168.352ZM185.055 151.301C183.742 151.301 182.641 151.781 181.75 152.742C180.859 153.691 180.309 155.027 180.098 156.75H189.625V156.504C189.531 154.852 189.086 153.574 188.289 152.672C187.492 151.758 186.414 151.301 185.055 151.301Z" fill="white"/>
<path d="M199.732 148.98L199.838 151.371C201.291 149.543 203.189 148.629 205.533 148.629C209.553 148.629 211.58 150.896 211.615 155.432V168H208.363V155.414C208.352 154.043 208.035 153.029 207.414 152.373C206.805 151.717 205.85 151.389 204.549 151.389C203.494 151.389 202.568 151.67 201.771 152.232C200.975 152.795 200.354 153.533 199.908 154.447V168H196.656V148.98H199.732Z" fill="white"/>
<path d="M220.932 144.375V148.98H224.482V151.494H220.932V163.289C220.932 164.051 221.09 164.625 221.406 165.012C221.723 165.387 222.262 165.574 223.023 165.574C223.398 165.574 223.914 165.504 224.57 165.363V168C223.715 168.234 222.883 168.352 222.074 168.352C220.621 168.352 219.525 167.912 218.787 167.033C218.049 166.154 217.68 164.906 217.68 163.289V151.494H214.217V148.98H217.68V144.375H220.932Z" fill="white"/>
<path d="M236.189 168.352C233.611 168.352 231.514 167.508 229.896 165.82C228.279 164.121 227.471 161.854 227.471 159.018V158.42C227.471 156.533 227.828 154.852 228.543 153.375C229.27 151.887 230.277 150.727 231.566 149.895C232.867 149.051 234.273 148.629 235.785 148.629C238.258 148.629 240.18 149.443 241.551 151.072C242.922 152.701 243.607 155.033 243.607 158.068V159.422H230.723C230.77 161.297 231.314 162.814 232.357 163.975C233.412 165.123 234.748 165.697 236.365 165.697C237.514 165.697 238.486 165.463 239.283 164.994C240.08 164.525 240.777 163.904 241.375 163.131L243.361 164.678C241.768 167.127 239.377 168.352 236.189 168.352ZM235.785 151.301C234.473 151.301 233.371 151.781 232.48 152.742C231.59 153.691 231.039 155.027 230.828 156.75H240.355V156.504C240.262 154.852 239.816 153.574 239.02 152.672C238.223 151.758 237.145 151.301 235.785 151.301Z" fill="white"/>
<path d="M247.281 173.098L245.436 171.832C246.537 170.297 247.111 168.715 247.158 167.086V164.15H250.34V166.699C250.34 167.883 250.047 169.066 249.461 170.25C248.887 171.434 248.16 172.383 247.281 173.098Z" fill="white"/>
<path d="M262.592 158.332C262.592 155.414 263.283 153.07 264.666 151.301C266.049 149.52 267.859 148.629 270.098 148.629C272.324 148.629 274.088 149.391 275.389 150.914V141H278.641V168H275.652L275.494 165.961C274.193 167.555 272.383 168.352 270.062 168.352C267.859 168.352 266.061 167.449 264.666 165.645C263.283 163.84 262.592 161.484 262.592 158.578V158.332ZM265.844 158.701C265.844 160.857 266.289 162.545 267.18 163.764C268.07 164.982 269.301 165.592 270.871 165.592C272.934 165.592 274.439 164.666 275.389 162.814V154.078C274.416 152.285 272.922 151.389 270.906 151.389C269.312 151.389 268.07 152.004 267.18 153.234C266.289 154.465 265.844 156.287 265.844 158.701Z" fill="white"/>
<path d="M291.596 168.352C289.018 168.352 286.92 167.508 285.303 165.82C283.686 164.121 282.877 161.854 282.877 159.018V158.42C282.877 156.533 283.234 154.852 283.949 153.375C284.676 151.887 285.684 150.727 286.973 149.895C288.273 149.051 289.68 148.629 291.191 148.629C293.664 148.629 295.586 149.443 296.957 151.072C298.328 152.701 299.014 155.033 299.014 158.068V159.422H286.129C286.176 161.297 286.721 162.814 287.764 163.975C288.818 165.123 290.154 165.697 291.771 165.697C292.92 165.697 293.893 165.463 294.689 164.994C295.486 164.525 296.184 163.904 296.781 163.131L298.768 164.678C297.174 167.127 294.783 168.352 291.596 168.352ZM291.191 151.301C289.879 151.301 288.777 151.781 287.887 152.742C286.996 153.691 286.445 155.027 286.234 156.75H295.762V156.504C295.668 154.852 295.223 153.574 294.426 152.672C293.629 151.758 292.551 151.301 291.191 151.301Z" fill="white"/>
<path d="M306.326 168H303.074V141H306.326V168Z" fill="white"/>
<path d="M336.191 157.084C336.191 160.893 335.541 163.723 334.24 165.574C332.939 167.426 330.906 168.352 328.141 168.352C325.41 168.352 323.389 167.449 322.076 165.645C320.764 163.828 320.084 161.121 320.037 157.523V153.182C320.037 149.42 320.688 146.625 321.988 144.797C323.289 142.969 325.328 142.055 328.105 142.055C330.859 142.055 332.887 142.939 334.188 144.709C335.488 146.467 336.156 149.186 336.191 152.865V157.084ZM332.939 152.637C332.939 149.883 332.553 147.879 331.779 146.625C331.006 145.359 329.781 144.727 328.105 144.727C326.441 144.727 325.229 145.354 324.467 146.607C323.705 147.861 323.312 149.789 323.289 152.391V157.594C323.289 160.359 323.688 162.404 324.484 163.729C325.293 165.041 326.512 165.697 328.141 165.697C329.746 165.697 330.936 165.076 331.709 163.834C332.494 162.592 332.904 160.635 332.939 157.963V152.637Z" fill="white"/>
<path d="M361.363 168C361.176 167.625 361.023 166.957 360.906 165.996C359.395 167.566 357.59 168.352 355.492 168.352C353.617 168.352 352.076 167.824 350.869 166.77C349.674 165.703 349.076 164.355 349.076 162.727C349.076 160.746 349.826 159.211 351.326 158.121C352.838 157.02 354.959 156.469 357.689 156.469H360.854V154.975C360.854 153.838 360.514 152.936 359.834 152.268C359.154 151.588 358.152 151.248 356.828 151.248C355.668 151.248 354.695 151.541 353.91 152.127C353.125 152.713 352.732 153.422 352.732 154.254H349.463C349.463 153.305 349.797 152.391 350.465 151.512C351.145 150.621 352.059 149.918 353.207 149.402C354.367 148.887 355.639 148.629 357.021 148.629C359.213 148.629 360.93 149.18 362.172 150.281C363.414 151.371 364.059 152.877 364.105 154.799V163.553C364.105 165.299 364.328 166.688 364.773 167.719V168H361.363ZM355.967 165.521C356.986 165.521 357.953 165.258 358.867 164.73C359.781 164.203 360.443 163.518 360.854 162.674V158.771H358.305C354.32 158.771 352.328 159.938 352.328 162.27C352.328 163.289 352.668 164.086 353.348 164.66C354.027 165.234 354.9 165.521 355.967 165.521Z" fill="white"/>
<path d="M372.736 168H369.484V141H372.736V168Z" fill="white"/>
<path d="M399.016 156.75C398.336 157.559 397.521 158.209 396.572 158.701C395.635 159.193 394.604 159.439 393.479 159.439C392.002 159.439 390.713 159.076 389.611 158.35C388.521 157.623 387.678 156.604 387.08 155.291C386.482 153.967 386.184 152.508 386.184 150.914C386.184 149.203 386.506 147.662 387.15 146.291C387.807 144.92 388.732 143.871 389.928 143.145C391.123 142.418 392.518 142.055 394.111 142.055C396.643 142.055 398.635 143.004 400.088 144.902C401.553 146.789 402.285 149.367 402.285 152.637V153.586C402.285 158.566 401.301 162.205 399.332 164.502C397.363 166.787 394.393 167.959 390.42 168.018H389.787V165.275H390.473C393.156 165.229 395.219 164.531 396.66 163.184C398.102 161.824 398.887 159.68 399.016 156.75ZM394.006 156.75C395.096 156.75 396.098 156.416 397.012 155.748C397.938 155.08 398.611 154.254 399.033 153.27V151.969C399.033 149.836 398.57 148.102 397.645 146.766C396.719 145.43 395.547 144.762 394.129 144.762C392.699 144.762 391.551 145.312 390.684 146.414C389.816 147.504 389.383 148.945 389.383 150.738C389.383 152.484 389.799 153.926 390.631 155.062C391.475 156.188 392.6 156.75 394.006 156.75Z" fill="white"/>
<path d="M407.172 166.295C407.172 165.732 407.336 165.264 407.664 164.889C408.004 164.514 408.508 164.326 409.176 164.326C409.844 164.326 410.348 164.514 410.688 164.889C411.039 165.264 411.215 165.732 411.215 166.295C411.215 166.834 411.039 167.285 410.688 167.648C410.348 168.012 409.844 168.193 409.176 168.193C408.508 168.193 408.004 168.012 407.664 167.648C407.336 167.285 407.172 166.834 407.172 166.295Z" fill="white"/>
</g>
<g id="\overline{78ca}">
<g id="Group">
<g id="Group_2">
<g id="Group_3">
<g id="Group_4">
<path id="Vector" d="M109.241 72.5723C109.268 72.5184 109.497 71.0478 109.929 68.1606L110.577 63.8299C110.577 63.7759 110.847 63.7489 111.386 63.7489H112.196V63.9108C112.196 64.1806 112.398 64.41 112.803 64.5989C113.208 64.7878 113.909 64.9092 114.907 64.9631C115.906 65.0171 118.186 65.0441 121.748 65.0441H126.645V66.6226L123.893 70.3867C123.65 70.7105 123.245 71.2502 122.679 72.0057C122.112 72.7612 121.748 73.2604 121.586 73.5032C121.424 73.7461 121.14 74.1778 120.736 74.7984C120.331 75.419 120.061 75.9047 119.926 76.2555C119.791 76.6063 119.602 77.1054 119.36 77.753C119.117 78.4006 118.941 79.0212 118.833 79.6149C118.726 80.2085 118.618 80.937 118.51 81.8005C118.402 82.6639 118.321 83.5813 118.267 84.5527C118.213 85.5241 118.172 86.6304 118.145 87.8716C118.145 88.2494 118.145 88.6271 118.145 89.0049C118.145 89.3827 118.132 89.7065 118.105 89.9763V90.3406C117.997 90.7993 117.741 91.1905 117.336 91.5143C116.931 91.8381 116.472 92 115.96 92C115.663 92 115.38 91.9595 115.11 91.8786C114.84 91.7976 114.557 91.5413 114.26 91.1096C113.963 90.6778 113.815 90.1382 113.815 89.4906C113.815 85.2273 115.123 80.8021 117.741 76.215C118.28 75.3516 119.414 73.7191 121.14 71.3176L123.002 68.7677H119.238C114.543 68.7677 112.074 68.8487 111.831 69.0106C111.669 69.0915 111.521 69.4153 111.386 69.982C111.251 70.5486 111.116 71.1287 110.981 71.7224L110.86 72.5723V72.6937H109.241V72.5723Z" fill="white"/>
<path id="Vector_2" d="M130.085 74.2318C130.085 74.2318 130.085 73.1929 130.085 71.1152C130.085 69.0376 130.814 67.3646 132.271 66.0964C133.728 64.8282 135.401 64.1806 137.29 64.1537C139.205 64.1537 140.905 64.7203 142.389 65.8536C143.873 66.9869 144.616 68.4574 144.616 70.2653C144.616 71.0748 144.467 71.8303 144.17 72.5318C143.873 73.2334 143.523 73.8 143.118 74.2318C142.713 74.6635 142.295 75.0413 141.863 75.365C141.432 75.6888 141.081 75.9317 140.811 76.0936C140.541 76.2555 140.393 76.3634 140.366 76.4174L140.932 76.7816C141.31 77.0515 141.688 77.3213 142.066 77.5911C142.443 77.861 142.659 78.0094 142.713 78.0364C144.737 79.6283 145.749 81.6386 145.749 84.067C145.749 86.1987 144.966 88.047 143.401 89.612C141.836 91.177 139.813 91.973 137.33 92C134.902 92 132.905 91.3119 131.34 89.9358C129.775 88.5597 128.992 86.8598 128.992 84.836C128.992 81.9219 130.733 79.4934 134.214 77.5507L133.485 77.0245C132.918 76.6737 132.554 76.4039 132.392 76.215C130.854 74.8928 130.085 73.1929 130.085 71.1152V74.2318ZM138.828 75.4865L139.071 75.3246C139.232 75.2166 139.354 75.1357 139.435 75.0817C139.516 75.0278 139.651 74.9333 139.84 74.7984C140.028 74.6635 140.19 74.5286 140.325 74.3937C140.46 74.2587 140.609 74.0968 140.77 73.908C140.932 73.7191 141.081 73.5437 141.216 73.3818C141.351 73.2199 141.486 73.004 141.62 72.7342C141.755 72.4644 141.877 72.235 141.985 72.0462C142.093 71.8573 142.16 71.5874 142.187 71.2367C142.214 70.8859 142.241 70.5891 142.268 70.3462C142.268 69.186 141.877 68.2011 141.094 67.3916C140.312 66.5821 139.408 66.0694 138.382 65.8536C138.194 65.8266 137.748 65.8131 137.047 65.8131C135.941 65.8131 134.902 66.1639 133.93 66.8654C132.959 67.567 132.46 68.4439 132.433 69.4963C132.433 70.1169 132.608 70.6835 132.959 71.1962C133.31 71.7089 133.66 72.1001 134.011 72.3699C134.362 72.6398 135.037 73.0715 136.035 73.6651C136.224 73.8 136.372 73.8945 136.48 73.9484L138.828 75.4865ZM137.371 90.2596C138.936 90.2596 140.285 89.8009 141.418 88.8835C142.551 87.9661 143.118 86.8598 143.118 85.5646C143.118 85.1059 143.051 84.6741 142.916 84.2694C142.781 83.8647 142.619 83.5274 142.43 83.2575C142.241 82.9877 141.944 82.6909 141.539 82.3671C141.135 82.0433 140.824 81.8005 140.609 81.6386C140.393 81.4767 140.001 81.2203 139.435 80.8696C138.868 80.5188 138.504 80.2894 138.342 80.1815C137.964 79.9386 137.56 79.6823 137.128 79.4125C136.696 79.1427 136.345 78.9133 136.075 78.7244L135.752 78.522C135.59 78.522 135.198 78.7514 134.578 79.2101C133.957 79.6688 133.31 80.4108 132.635 81.4362C131.961 82.4615 131.61 83.5678 131.583 84.7551C131.583 86.3471 132.163 87.6558 133.323 88.6811C134.483 89.7065 135.833 90.2326 137.371 90.2596Z" fill="white"/>
</g>
<g id="Group_5">
<path id="Vector_3" d="M148.865 84.6741C148.865 81.733 150.026 79.0887 152.346 76.7412C154.667 74.3936 157.176 73.2199 159.874 73.2199C161.385 73.2199 162.573 73.5437 163.436 74.1913C164.3 74.8389 164.745 75.6888 164.772 76.7412C164.772 77.5237 164.515 78.1847 164.003 78.7244C163.49 79.2641 162.843 79.5474 162.06 79.5744C161.547 79.5744 161.143 79.4394 160.846 79.1696C160.549 78.8998 160.401 78.495 160.401 77.9554C160.401 77.4157 160.549 76.957 160.846 76.5793C161.143 76.2015 161.439 75.9182 161.736 75.7293C162.033 75.5404 162.222 75.4595 162.303 75.4864H162.343C162.343 75.4325 162.262 75.3515 162.101 75.2436C161.939 75.1357 161.655 75.0277 161.251 74.9198C160.846 74.8119 160.387 74.7579 159.874 74.7579C159.065 74.7579 158.296 74.9468 157.567 75.3246C157.001 75.5674 156.421 75.9856 155.827 76.5793C154.64 77.7665 153.776 79.4394 153.237 81.5981C152.697 83.7567 152.414 85.3217 152.387 86.2931C152.387 87.5343 152.737 88.4652 153.439 89.0858C154.033 89.7334 154.815 90.0572 155.787 90.0572H155.948C158.971 90.0572 161.466 88.9104 163.436 86.6169C163.679 86.3471 163.841 86.2121 163.922 86.2121C164.03 86.2121 164.205 86.3336 164.448 86.5764C164.691 86.8193 164.826 87.0081 164.853 87.1431C164.88 87.278 164.758 87.4803 164.489 87.7502C164.219 88.02 163.827 88.3978 163.315 88.8835C162.802 89.3691 162.195 89.7739 161.493 90.0977C160.792 90.4215 159.928 90.7588 158.903 91.1095C157.878 91.4603 156.798 91.6087 155.665 91.5548C153.641 91.5548 152.009 90.9072 150.768 89.612C149.526 88.3168 148.892 86.6709 148.865 84.6741Z" fill="white"/>
</g>
<g id="Group_6">
<path id="Vector_4" d="M166.35 84.7551C166.35 82.0298 167.376 79.4394 169.426 76.984C171.477 74.5286 173.784 73.2873 176.348 73.2604C177.724 73.2604 178.938 73.9214 179.99 75.2436C180.422 74.4341 181.043 74.0294 181.852 74.0294C182.203 74.0294 182.513 74.1373 182.783 74.3532C183.053 74.569 183.188 74.8389 183.188 75.1626C183.188 75.5134 182.688 77.6721 181.69 81.6385C180.692 85.605 180.179 87.8446 180.152 88.3573C180.152 89.0319 180.247 89.4771 180.435 89.6929C180.624 89.9088 180.908 90.0302 181.285 90.0572C181.528 90.0302 181.798 89.9088 182.095 89.6929C182.661 89.1533 183.215 87.8581 183.754 85.8074C183.916 85.2677 184.051 84.9844 184.159 84.9574C184.213 84.9305 184.348 84.917 184.564 84.917H184.726C185.238 84.917 185.495 85.0384 185.495 85.2812C185.495 85.4431 185.427 85.8074 185.292 86.374C185.157 86.9407 184.888 87.6692 184.483 88.5597C184.078 89.4501 183.646 90.1247 183.188 90.5834C182.837 90.9342 182.405 91.2175 181.892 91.4333C181.677 91.4873 181.353 91.5143 180.921 91.5143C180.004 91.5143 179.235 91.3119 178.614 90.9072C177.993 90.5024 177.589 90.0842 177.4 89.6525L177.157 89.0453C177.13 89.0184 177.076 89.0319 176.995 89.0858C176.941 89.1398 176.887 89.1938 176.833 89.2477C175.241 90.7588 173.622 91.5143 171.976 91.5143C170.492 91.5143 169.184 90.9746 168.05 89.8953C166.917 88.816 166.35 87.1026 166.35 84.7551ZM179.221 77.834C179.221 77.6721 179.154 77.3752 179.019 76.9435C178.884 76.5118 178.574 76.0396 178.088 75.5269C177.602 75.0142 176.982 74.7444 176.226 74.7174C175.282 74.7174 174.378 75.1357 173.514 75.9721C172.651 76.8086 171.976 77.9014 171.491 79.2506C170.708 81.3822 170.155 83.5948 169.831 85.8883C169.831 85.9693 169.831 86.1177 169.831 86.3336C169.831 86.5494 169.818 86.7113 169.791 86.8193C169.791 88.0335 170.034 88.87 170.519 89.3287C171.005 89.7874 171.585 90.0302 172.26 90.0572C173.285 90.0572 174.297 89.612 175.295 88.7216C176.294 87.8311 176.887 87.1431 177.076 86.6574C177.13 86.5494 177.494 85.1058 178.169 82.3266C178.843 79.5474 179.194 78.0498 179.221 77.834Z" fill="white"/>
</g>
</g>
<g id="Group_7">
<g id="Frame" clip-path="url(#clip0)">
<path id="Vector_5" d="M105.585 61.1779V59.8615H191.573V61.1779H105.585Z" fill="white"/>
</g>
</g>
</g>
</g>
</g>
<g id="\overline{abc}\;  a+b+c">
<g id="Group_8">
<g id="Group_9">
<g id="Group_10">
<g id="Group_11">
<path id="Vector_6" d="M484.323 44.7144C484.323 42.0149 485.339 39.449 487.37 37.0168C489.401 34.5846 491.686 33.3551 494.226 33.3284C495.589 33.3284 496.791 33.9832 497.834 35.2929C498.262 34.491 498.876 34.0901 499.678 34.0901C500.026 34.0901 500.333 34.197 500.6 34.4108C500.867 34.6247 501.001 34.8919 501.001 35.2127C501.001 35.5601 500.507 37.6984 499.518 41.6273C498.529 45.5563 498.021 47.7747 497.994 48.2826C497.994 48.9507 498.088 49.3918 498.275 49.6056C498.462 49.8194 498.743 49.9397 499.117 49.9664C499.357 49.9397 499.625 49.8194 499.919 49.6056C500.48 49.071 501.028 47.7881 501.562 45.7568C501.723 45.2222 501.856 44.9416 501.963 44.9149C502.017 44.8881 502.15 44.8748 502.364 44.8748H502.525C503.032 44.8748 503.286 44.995 503.286 45.2356C503.286 45.396 503.22 45.7568 503.086 46.3181C502.952 46.8793 502.685 47.601 502.284 48.483C501.883 49.365 501.455 50.0332 501.001 50.4876C500.654 50.8351 500.226 51.1157 499.718 51.3295C499.504 51.383 499.184 51.4097 498.756 51.4097C497.847 51.4097 497.086 51.2092 496.471 50.8083C495.856 50.4074 495.455 49.9931 495.268 49.5655L495.027 48.9641C495.001 48.9374 494.947 48.9507 494.867 49.0042C494.814 49.0577 494.76 49.1111 494.707 49.1646C493.13 50.6613 491.526 51.4097 489.896 51.4097C488.426 51.4097 487.129 50.8751 486.007 49.806C484.884 48.7369 484.323 47.0397 484.323 44.7144ZM497.072 37.8587C497.072 37.6984 497.005 37.4044 496.872 36.9767C496.738 36.5491 496.431 36.0813 495.95 35.5735C495.468 35.0657 494.854 34.7984 494.105 34.7717C493.17 34.7717 492.275 35.186 491.419 36.0145C490.564 36.8431 489.896 37.9255 489.415 39.2619C488.64 41.3734 488.092 43.5651 487.771 45.837C487.771 45.9171 487.771 46.0641 487.771 46.278C487.771 46.4918 487.758 46.6522 487.731 46.7591C487.731 47.9618 487.971 48.7904 488.452 49.2448C488.934 49.6991 489.508 49.9397 490.176 49.9664C491.192 49.9664 492.194 49.5254 493.183 48.6434C494.172 47.7614 494.76 47.0798 494.947 46.5987C495.001 46.4918 495.362 45.0619 496.03 42.3089C496.698 39.5559 497.045 38.0725 497.072 37.8587Z" fill="white"/>
</g>
<g id="Group_12">
<path id="Vector_7" d="M507.135 25.0695C507.135 24.8022 507.188 24.4949 507.295 24.1474C507.402 23.7999 507.563 23.6262 507.777 23.6262C507.803 23.6262 508.765 23.5594 510.663 23.4257C512.561 23.2921 513.536 23.2119 513.59 23.1852C513.911 23.1852 514.071 23.3055 514.071 23.546C514.071 23.7866 513.617 25.6976 512.708 29.2791C512.494 30.1879 512.267 31.1233 512.026 32.0855C511.786 33.0477 511.585 33.7694 511.425 34.2505L511.264 35.0122C511.264 35.0924 511.345 35.0523 511.505 34.892C512.815 33.8228 514.164 33.2883 515.554 33.2883C517.211 33.2883 518.548 33.903 519.563 35.1325C520.579 36.362 521.1 37.9122 521.127 39.7831C521.127 42.7499 520.071 45.4361 517.96 47.8416C515.848 50.247 513.576 51.4498 511.144 51.4498C509.808 51.4498 508.592 50.942 507.496 49.9263C506.4 48.9107 505.839 47.2669 505.812 44.995V44.6342C505.812 44.0729 505.919 43.2978 506.133 42.3089C506.347 41.32 507.001 38.6873 508.097 34.4109C509.434 29.1455 510.102 26.3524 510.102 26.0317C510.102 25.711 509.594 25.5239 508.578 25.4704C508.445 25.4704 508.338 25.4704 508.258 25.4704H508.057C507.79 25.4704 507.616 25.4704 507.536 25.4704C507.456 25.4704 507.362 25.4303 507.255 25.3501C507.148 25.27 507.108 25.1764 507.135 25.0695ZM517.679 37.979V37.7385C517.679 35.7606 516.864 34.7717 515.234 34.7717C514.779 34.7717 514.311 34.8786 513.83 35.0924C513.349 35.3062 512.908 35.5869 512.507 35.9343C512.106 36.2818 511.759 36.6025 511.465 36.8965C511.171 37.1905 510.93 37.4845 510.743 37.7786L510.503 38.0993L509.661 41.5472C509.073 43.8458 508.779 45.4761 508.779 46.4383C508.779 47.7213 509.1 48.6835 509.741 49.3249C510.169 49.7526 510.703 49.9664 511.345 49.9664C512.227 49.9664 513.122 49.5388 514.031 48.6835C514.699 48.0687 515.234 47.3204 515.634 46.4383C516.035 45.5563 516.476 44.1531 516.957 42.2287C517.439 40.3043 517.679 38.8878 517.679 37.979Z" fill="white"/>
</g>
<g id="Group_13">
<path id="Vector_8" d="M522.771 44.6342C522.771 41.7209 523.92 39.1016 526.219 36.7763C528.517 34.4509 531.003 33.2883 533.676 33.2883C535.173 33.2883 536.349 33.609 537.204 34.2505C538.059 34.8919 538.5 35.7339 538.527 36.7763C538.527 37.5514 538.273 38.2062 537.765 38.7407C537.257 39.2753 536.616 39.5559 535.841 39.5827C535.333 39.5827 534.932 39.449 534.638 39.1817C534.344 38.9145 534.197 38.5136 534.197 37.979C534.197 37.4444 534.344 36.9901 534.638 36.6159C534.932 36.2417 535.226 35.9611 535.52 35.774C535.814 35.5869 536.001 35.5067 536.081 35.5334H536.121C536.121 35.48 536.041 35.3998 535.881 35.2929C535.72 35.1859 535.44 35.079 535.039 34.9721C534.638 34.8652 534.184 34.8118 533.676 34.8118C532.874 34.8118 532.112 34.9989 531.391 35.373C530.829 35.6136 530.255 36.0279 529.667 36.6159C528.491 37.7919 527.635 39.449 527.101 41.5872C526.566 43.7255 526.286 45.2757 526.259 46.2379C526.259 47.4674 526.606 48.3895 527.301 49.0042C527.889 49.6457 528.664 49.9664 529.627 49.9664H529.787C532.78 49.9664 535.253 48.8305 537.204 46.5586C537.444 46.2913 537.605 46.1577 537.685 46.1577C537.792 46.1577 537.966 46.278 538.206 46.5185C538.447 46.7591 538.58 46.9462 538.607 47.0798C538.634 47.2134 538.514 47.4139 538.246 47.6812C537.979 47.9485 537.591 48.3226 537.084 48.8037C536.576 49.2848 535.974 49.6858 535.279 50.0065C534.585 50.3272 533.729 50.6613 532.714 51.0088C531.698 51.3562 530.629 51.5032 529.506 51.4498C527.502 51.4498 525.885 50.8083 524.655 49.5254C523.426 48.2425 522.798 46.6121 522.771 44.6342Z" fill="white"/>
</g>
</g>
<g id="Group_14">
<g id="Frame_2" clip-path="url(#clip1)">
<path id="Vector_9" d="M480.603 22.1383V20.8345H540.995V22.1383H480.603Z" fill="white"/>
</g>
</g>
</g>
<g id="Group 80">
<g id="Group_15">
<path id="Vector_10" d="M575 78.5292C575 75.8297 576.016 73.2638 578.047 70.8316C580.078 68.3994 582.363 67.1699 584.903 67.1432C586.266 67.1432 587.468 67.798 588.511 69.1077C588.939 68.3058 589.553 67.9049 590.355 67.9049C590.703 67.9049 591.01 68.0118 591.277 68.2256C591.544 68.4395 591.678 68.7067 591.678 69.0275C591.678 69.3749 591.184 71.5131 590.195 75.4421C589.206 79.3711 588.698 81.5895 588.671 82.0973C588.671 82.7655 588.765 83.2065 588.952 83.4204C589.139 83.6342 589.42 83.7545 589.794 83.7812C590.034 83.7545 590.302 83.6342 590.596 83.4204C591.157 82.8858 591.705 81.6029 592.239 79.5716C592.4 79.037 592.533 78.7564 592.64 78.7296C592.694 78.7029 592.827 78.6896 593.041 78.6896H593.202C593.709 78.6896 593.963 78.8098 593.963 79.0504C593.963 79.2107 593.897 79.5716 593.763 80.1328C593.629 80.6941 593.362 81.4158 592.961 82.2978C592.56 83.1798 592.132 83.848 591.678 84.3024C591.331 84.6498 590.903 84.9305 590.395 85.1443C590.181 85.1978 589.861 85.2245 589.433 85.2245C588.524 85.2245 587.763 85.024 587.148 84.6231C586.533 84.2222 586.132 83.8079 585.945 83.3803L585.704 82.7789C585.678 82.7522 585.624 82.7655 585.544 82.819C585.491 82.8724 585.437 82.9259 585.384 82.9794C583.807 84.4761 582.203 85.2245 580.573 85.2245C579.103 85.2245 577.806 84.6899 576.684 83.6208C575.561 82.5517 575 80.8545 575 78.5292ZM587.749 71.6735C587.749 71.5131 587.682 71.2191 587.549 70.7915C587.415 70.3639 587.108 69.8961 586.627 69.3883C586.145 68.8805 585.531 68.6132 584.782 68.5865C583.847 68.5865 582.952 69.0007 582.096 69.8293C581.241 70.6579 580.573 71.7403 580.092 73.0767C579.317 75.1882 578.769 77.3799 578.448 79.6518C578.448 79.7319 578.448 79.8789 578.448 80.0928C578.448 80.3066 578.435 80.4669 578.408 80.5739C578.408 81.7766 578.648 82.6052 579.129 83.0595C579.611 83.5139 580.185 83.7545 580.853 83.7812C581.869 83.7812 582.871 83.3402 583.86 82.4582C584.849 81.5761 585.437 80.8946 585.624 80.4135C585.678 80.3066 586.039 78.8766 586.707 76.1237C587.375 73.3707 587.722 71.8873 587.749 71.6735Z" fill="white"/>
</g>
<g id="Group_16">
<path id="Vector_11" d="M606.039 75.3219C606.039 75.3219 606.039 75.1481 606.039 74.8007C606.039 74.4532 606.226 74.1859 606.6 73.9988H618.588V67.9851L618.628 61.9713C618.895 61.6239 619.149 61.4501 619.389 61.4501C619.737 61.4501 620.004 61.6506 620.191 62.0515V73.9988H632.139C632.54 74.2126 632.74 74.4799 632.74 74.8007C632.74 75.1214 632.54 75.3887 632.139 75.6025H620.191V87.5498C619.977 87.924 619.737 88.1111 619.47 88.1111H619.389H619.309C618.989 88.1111 618.748 87.924 618.588 87.5498V75.6025H606.6C606.226 75.4154 606.039 75.1481 606.039 74.8007V75.3219Z" fill="white"/>
</g>
<g id="Group_17">
<path id="Vector_12" d="M646.82 58.8843C646.82 58.617 646.874 58.3096 646.981 57.9622C647.087 57.6147 647.248 57.441 647.462 57.441C647.488 57.441 648.451 57.3742 650.348 57.2405C652.246 57.1069 653.222 57.0267 653.275 57C653.596 57 653.756 57.1203 653.756 57.3608C653.756 57.6014 653.302 59.5124 652.393 63.0939C652.179 64.0027 651.952 64.9381 651.711 65.9003C651.471 66.8625 651.27 67.5842 651.11 68.0653L650.95 68.827C650.95 68.9072 651.03 68.8671 651.19 68.7067C652.5 67.6376 653.85 67.1031 655.239 67.1031C656.897 67.1031 658.233 67.7178 659.249 68.9473C660.264 70.1768 660.785 71.727 660.812 73.5979C660.812 76.5647 659.756 79.2508 657.645 81.6563C655.533 84.0618 653.262 85.2646 650.829 85.2646C649.493 85.2646 648.277 84.7568 647.181 83.7411C646.085 82.7255 645.524 81.0817 645.497 78.8098V78.449C645.497 77.8877 645.604 77.1126 645.818 76.1237C646.032 75.1348 646.687 72.5021 647.782 68.2256C649.119 62.9603 649.787 60.1672 649.787 59.8465C649.787 59.5258 649.279 59.3387 648.264 59.2852C648.13 59.2852 648.023 59.2852 647.943 59.2852H647.742C647.475 59.2852 647.301 59.2852 647.221 59.2852C647.141 59.2852 647.047 59.2451 646.94 59.1649C646.834 59.0847 646.793 58.9912 646.82 58.8843ZM657.364 71.7938V71.5532C657.364 69.5754 656.549 68.5865 654.919 68.5865C654.464 68.5865 653.997 68.6934 653.516 68.9072C653.034 69.121 652.593 69.4017 652.192 69.7491C651.792 70.0966 651.444 70.4173 651.15 70.7113C650.856 71.0053 650.616 71.2993 650.428 71.5933L650.188 71.9141L649.346 75.362C648.758 77.6605 648.464 79.2909 648.464 80.2531C648.464 81.5361 648.785 82.4983 649.426 83.1397C649.854 83.5674 650.388 83.7812 651.03 83.7812C651.912 83.7812 652.807 83.3536 653.716 82.4983C654.384 81.8835 654.919 81.1351 655.32 80.2531C655.721 79.3711 656.162 77.9679 656.643 76.0435C657.124 74.1191 657.364 72.7025 657.364 71.7938Z" fill="white"/>
</g>
<g id="Group_18">
<path id="Vector_13" d="M672.246 75.3219C672.246 75.3219 672.246 75.1481 672.246 74.8007C672.246 74.4532 672.433 74.1859 672.807 73.9988H684.795V67.9851L684.835 61.9713C685.102 61.6239 685.356 61.4501 685.597 61.4501C685.944 61.4501 686.211 61.6506 686.399 62.0515V73.9988H698.346C698.747 74.2126 698.947 74.4799 698.947 74.8007C698.947 75.1214 698.747 75.3887 698.346 75.6025H686.399V87.5498C686.185 87.924 685.944 88.1111 685.677 88.1111H685.597H685.517C685.196 88.1111 684.955 87.924 684.795 87.5498V75.6025H672.807C672.433 75.4154 672.246 75.1481 672.246 74.8007V75.3219Z" fill="white"/>
</g>
<g id="Group_19">
<path id="Vector_14" d="M711.468 78.449C711.468 75.5357 712.617 72.9164 714.916 70.591C717.214 68.2657 719.7 67.1031 722.373 67.1031C723.87 67.1031 725.046 67.4238 725.901 68.0653C726.756 68.7067 727.197 69.5487 727.224 70.591C727.224 71.3661 726.97 72.021 726.462 72.5555C725.954 73.0901 725.313 73.3707 724.538 73.3975C724.03 73.3975 723.629 73.2638 723.335 72.9965C723.041 72.7293 722.894 72.3283 722.894 71.7938C722.894 71.2592 723.041 70.8049 723.335 70.4307C723.629 70.0565 723.923 69.7758 724.217 69.5887C724.511 69.4017 724.698 69.3215 724.778 69.3482H724.818C724.818 69.2947 724.738 69.2146 724.578 69.1076C724.417 69.0007 724.137 68.8938 723.736 68.7869C723.335 68.68 722.881 68.6265 722.373 68.6265C721.571 68.6265 720.809 68.8136 720.088 69.1878C719.526 69.4284 718.952 69.8427 718.364 70.4307C717.188 71.6067 716.332 73.2638 715.798 75.402C715.263 77.5403 714.983 79.0905 714.956 80.0527C714.956 81.2821 715.303 82.2042 715.998 82.819C716.586 83.4605 717.361 83.7812 718.324 83.7812H718.484C721.477 83.7812 723.95 82.6453 725.901 80.3734C726.141 80.1061 726.302 79.9725 726.382 79.9725C726.489 79.9725 726.663 80.0928 726.903 80.3333C727.144 80.5739 727.277 80.761 727.304 80.8946C727.331 81.0282 727.211 81.2287 726.943 81.496C726.676 81.7632 726.288 82.1374 725.781 82.6185C725.273 83.0996 724.671 83.5005 723.976 83.8213C723.282 84.142 722.426 84.4761 721.411 84.8236C720.395 85.171 719.326 85.318 718.203 85.2646C716.199 85.2646 714.582 84.6231 713.352 83.3402C712.123 82.0572 711.495 80.4269 711.468 78.449Z" fill="white"/>
</g>
</g>
</g>
</g>
</g>
</g>
</g>
<defs>
<clipPath id="clip0">
<rect width="79.399" height="7.03938" fill="white" transform="matrix(1 0 0 -1 109 64.0394)"/>
</clipPath>
<clipPath id="clip1">
<rect width="55.7599" height="6.97282" fill="white" transform="matrix(1 0 0 -1 483 24.9728)"/>
</clipPath>
</defs>
</svg>
