<svg viewBox="0 0 996 417" fill="none" xmlns="http://www.w3.org/2000/svg">
<g id="0116105">
<g id="claves01">
<g id="Group 93">
<path id="Rectangle 4" d="M62.5 227.5H277.041L309.049 266L277.041 304.5H62.5V227.5Z" fill="#CD08D1" fill-opacity="0.1" stroke="#CD08D1" stroke-width="3"/>
<circle id="Ellipse 1" cx="62" cy="266" r="40" fill="#CD08D1"/>
<path id="A" d="M70.0938 276.406H52.4688L48.7812 287H40.5625L57.75 241.5H64.8438L82.0625 287H73.8125L70.0938 276.406ZM54.6875 270.031H67.875L61.2812 251.156L54.6875 270.031Z" fill="white"/>
</g>
<g id="Group 92">
<path id="Rectangle 5" d="M404.5 228.5H619.041L651.049 267L619.041 305.5H404.5V228.5Z" fill="#CD08D1" fill-opacity="0.1" stroke="#CD08D1" stroke-width="3"/>
<circle id="Ellipse 2" cx="404" cy="267" r="40" fill="#CD08D1"/>
<path id="B" d="M387.625 283V237.5H403.219C408.365 237.5 412.281 238.531 414.969 240.594C417.656 242.656 419 245.729 419 249.812C419 251.896 418.438 253.771 417.312 255.438C416.188 257.104 414.542 258.396 412.375 259.312C414.833 259.979 416.729 261.24 418.062 263.094C419.417 264.927 420.094 267.135 420.094 269.719C420.094 273.99 418.719 277.271 415.969 279.562C413.24 281.854 409.323 283 404.219 283H387.625ZM395.531 262.469V276.688H404.312C406.792 276.688 408.729 276.073 410.125 274.844C411.521 273.615 412.219 271.906 412.219 269.719C412.219 264.99 409.802 262.573 404.969 262.469H395.531ZM395.531 256.656H403.281C405.74 256.656 407.656 256.104 409.031 255C410.427 253.875 411.125 252.292 411.125 250.25C411.125 248 410.479 246.375 409.188 245.375C407.917 244.375 405.927 243.875 403.219 243.875H395.531V256.656Z" fill="white"/>
</g>
<g id="Group 91">
<path id="Rectangle 6" d="M747.5 286.5H962.041L994.049 325L962.041 363.5H747.5V286.5Z" fill="#CD08D1" fill-opacity="0.1" stroke="#CD08D1" stroke-width="3"/>
<circle id="Ellipse 3" cx="747" cy="325" r="40" fill="#CD08D1"/>
<path id="C" d="M764.344 332.188C763.885 337.042 762.094 340.833 758.969 343.562C755.844 346.271 751.688 347.625 746.5 347.625C742.875 347.625 739.677 346.771 736.906 345.062C734.156 343.333 732.031 340.885 730.531 337.719C729.031 334.552 728.25 330.875 728.188 326.688V322.438C728.188 318.146 728.948 314.365 730.469 311.094C731.99 307.823 734.167 305.302 737 303.531C739.854 301.76 743.146 300.875 746.875 300.875C751.896 300.875 755.938 302.24 759 304.969C762.062 307.698 763.844 311.552 764.344 316.531H756.469C756.094 313.26 755.135 310.906 753.594 309.469C752.073 308.01 749.833 307.281 746.875 307.281C743.438 307.281 740.792 308.542 738.938 311.062C737.104 313.562 736.167 317.24 736.125 322.094V326.125C736.125 331.042 737 334.792 738.75 337.375C740.521 339.958 743.104 341.25 746.5 341.25C749.604 341.25 751.938 340.552 753.5 339.156C755.062 337.76 756.052 335.438 756.469 332.188H764.344Z" fill="white"/>
</g>
<g id="Group 90">
<path id="Rectangle 7" d="M68.5 337.5H283.041L315.049 376L283.041 414.5H68.5V337.5Z" fill="#CD08D1" fill-opacity="0.1" stroke="#CD08D1" stroke-width="3"/>
<circle id="Ellipse 4" cx="62" cy="377" r="40" fill="#CD08D1"/>
<path id="D" d="M44.625 399V353.5H58.0625C62.0833 353.5 65.6458 354.396 68.75 356.188C71.875 357.979 74.2917 360.521 76 363.812C77.7083 367.104 78.5625 370.875 78.5625 375.125V377.406C78.5625 381.719 77.6979 385.51 75.9688 388.781C74.2604 392.052 71.8125 394.573 68.625 396.344C65.4583 398.115 61.8229 399 57.7188 399H44.625ZM52.5312 359.875V392.688H57.6875C61.8333 392.688 65.0104 391.396 67.2188 388.812C69.4479 386.208 70.5833 382.479 70.625 377.625V375.094C70.625 370.156 69.5521 366.385 67.4062 363.781C65.2604 361.177 62.1458 359.875 58.0625 359.875H52.5312Z" fill="white"/>
</g>
<g id="Group 89">
<path id="Rectangle 8" d="M409.5 338.5H624.041L656.049 377L624.041 415.5H409.5V338.5Z" fill="#CD08D1" fill-opacity="0.1" stroke="#CD08D1" stroke-width="3"/>
<circle id="Ellipse 5" cx="409" cy="377" r="40" fill="#CD08D1"/>
<path id="E" d="M418.219 378.688H399.531V392.688H421.375V399H391.625V353.5H421.156V359.875H399.531V372.438H418.219V378.688Z" fill="white"/>
</g>
<path id="10 11 12 13 9" d="M143.086 283H138.727V254.102L129.984 257.312V253.375L142.406 248.711H143.086V283ZM177.188 268.445C177.188 273.523 176.32 277.297 174.586 279.766C172.852 282.234 170.141 283.469 166.453 283.469C162.812 283.469 160.117 282.266 158.367 279.859C156.617 277.438 155.711 273.828 155.648 269.031V263.242C155.648 258.227 156.516 254.5 158.25 252.062C159.984 249.625 162.703 248.406 166.406 248.406C170.078 248.406 172.781 249.586 174.516 251.945C176.25 254.289 177.141 257.914 177.188 262.82V268.445ZM172.852 262.516C172.852 258.844 172.336 256.172 171.305 254.5C170.273 252.812 168.641 251.969 166.406 251.969C164.188 251.969 162.57 252.805 161.555 254.477C160.539 256.148 160.016 258.719 159.984 262.188V269.125C159.984 272.812 160.516 275.539 161.578 277.305C162.656 279.055 164.281 279.93 166.453 279.93C168.594 279.93 170.18 279.102 171.211 277.445C172.258 275.789 172.805 273.18 172.852 269.617V262.516ZM494.648 283H490.289V254.102L481.547 257.312V253.375L493.969 248.711H494.648V283ZM521.602 283H517.242V254.102L508.5 257.312V253.375L520.922 248.711H521.602V283ZM845.555 339H841.195V310.102L832.453 313.312V309.375L844.875 304.711H845.555V339ZM880.617 339H858.258V335.883L870.07 322.758C871.82 320.773 873.023 319.164 873.68 317.93C874.352 316.68 874.688 315.391 874.688 314.062C874.688 312.281 874.148 310.82 873.07 309.68C871.992 308.539 870.555 307.969 868.758 307.969C866.602 307.969 864.922 308.586 863.719 309.82C862.531 311.039 861.938 312.742 861.938 314.93H857.602C857.602 311.789 858.609 309.25 860.625 307.312C862.656 305.375 865.367 304.406 868.758 304.406C871.93 304.406 874.438 305.242 876.281 306.914C878.125 308.57 879.047 310.781 879.047 313.547C879.047 316.906 876.906 320.906 872.625 325.547L863.484 335.461H880.617V339ZM143.086 395H138.727V366.102L129.984 369.312V365.375L142.406 360.711H143.086V395ZM162.094 375.828H165.352C167.398 375.797 169.008 375.258 170.18 374.211C171.352 373.164 171.938 371.75 171.938 369.969C171.938 365.969 169.945 363.969 165.961 363.969C164.086 363.969 162.586 364.508 161.461 365.586C160.352 366.648 159.797 368.062 159.797 369.828H155.461C155.461 367.125 156.445 364.883 158.414 363.102C160.398 361.305 162.914 360.406 165.961 360.406C169.18 360.406 171.703 361.258 173.531 362.961C175.359 364.664 176.273 367.031 176.273 370.062C176.273 371.547 175.789 372.984 174.82 374.375C173.867 375.766 172.562 376.805 170.906 377.492C172.781 378.086 174.227 379.07 175.242 380.445C176.273 381.82 176.789 383.5 176.789 385.484C176.789 388.547 175.789 390.977 173.789 392.773C171.789 394.57 169.188 395.469 165.984 395.469C162.781 395.469 160.172 394.602 158.156 392.867C156.156 391.133 155.156 388.844 155.156 386H159.516C159.516 387.797 160.102 389.234 161.273 390.312C162.445 391.391 164.016 391.93 165.984 391.93C168.078 391.93 169.68 391.383 170.789 390.289C171.898 389.195 172.453 387.625 172.453 385.578C172.453 383.594 171.844 382.07 170.625 381.008C169.406 379.945 167.648 379.398 165.352 379.367H162.094V375.828ZM520.828 380C519.922 381.078 518.836 381.945 517.57 382.602C516.32 383.258 514.945 383.586 513.445 383.586C511.477 383.586 509.758 383.102 508.289 382.133C506.836 381.164 505.711 379.805 504.914 378.055C504.117 376.289 503.719 374.344 503.719 372.219C503.719 369.938 504.148 367.883 505.008 366.055C505.883 364.227 507.117 362.828 508.711 361.859C510.305 360.891 512.164 360.406 514.289 360.406C517.664 360.406 520.32 361.672 522.258 364.203C524.211 366.719 525.188 370.156 525.188 374.516V375.781C525.188 382.422 523.875 387.273 521.25 390.336C518.625 393.383 514.664 394.945 509.367 395.023H508.523V391.367H509.438C513.016 391.305 515.766 390.375 517.688 388.578C519.609 386.766 520.656 383.906 520.828 380ZM514.148 380C515.602 380 516.938 379.555 518.156 378.664C519.391 377.773 520.289 376.672 520.852 375.359V373.625C520.852 370.781 520.234 368.469 519 366.688C517.766 364.906 516.203 364.016 514.312 364.016C512.406 364.016 510.875 364.75 509.719 366.219C508.562 367.672 507.984 369.594 507.984 371.984C507.984 374.312 508.539 376.234 509.648 377.75C510.773 379.25 512.273 380 514.148 380Z" fill="#CD08D1"/>
<g id="flecha">
<path id="Rectangle 2" d="M66.2001 228.008L81.4819 236.133L39.5003 315.089L24.2185 306.963L66.2001 228.008Z" fill="#1043F5"/>
<path id="Rectangle 1" d="M8 240.904L98 191V248.692L53 231.096L8 240.904Z" fill="#1043F5"/>
<path id="Rectangle 3" d="M12.0385 310.21L27.6656 283.143L44.9362 282.565L29.3091 309.632L12.0385 310.21Z" fill="#1043F5"/>
<path id="Rectangle 4_2" d="M38.0894 324.845L53.7166 297.778L44.9258 282.154L29.2987 309.221L38.0894 324.845Z" fill="#1043F5"/>
</g>
</g>
<g id="enun01">
<path id="Rectangle 1_2" d="M48 2H916.608L988.446 91.1869L916.591 183H48V2Z" fill="#02071A" stroke="#CD08D1" stroke-width="4"/>
<circle id="Ellipse 1_2" cx="50" cy="92" r="49.5" fill="#CD08D1" stroke="black"/>
<g id="Group 16">
<path id="Hallar un n&#195;&#186;mero de 3 cifras que cumple . Dar como respuesta el valor de (A + B + C)" d="M120.641 42H117.248V30.1699H104.346V42H100.971V16.4062H104.346V27.4102H117.248V16.4062H120.641V42ZM137.867 42C137.68 41.625 137.527 40.957 137.41 39.9961C135.898 41.5664 134.094 42.3516 131.996 42.3516C130.121 42.3516 128.58 41.8242 127.373 40.7695C126.178 39.7031 125.58 38.3555 125.58 36.7266C125.58 34.7461 126.33 33.2109 127.83 32.1211C129.342 31.0195 131.463 30.4688 134.193 30.4688H137.357V28.9746C137.357 27.8379 137.018 26.9355 136.338 26.2676C135.658 25.5879 134.656 25.248 133.332 25.248C132.172 25.248 131.199 25.541 130.414 26.127C129.629 26.7129 129.236 27.4219 129.236 28.2539H125.967C125.967 27.3047 126.301 26.3906 126.969 25.5117C127.648 24.6211 128.562 23.918 129.711 23.4023C130.871 22.8867 132.143 22.6289 133.525 22.6289C135.717 22.6289 137.434 23.1797 138.676 24.2812C139.918 25.3711 140.562 26.877 140.609 28.7988V37.5527C140.609 39.2988 140.832 40.6875 141.277 41.7188V42H137.867ZM132.471 39.5215C133.49 39.5215 134.457 39.2578 135.371 38.7305C136.285 38.2031 136.947 37.5176 137.357 36.6738V32.7715H134.809C130.824 32.7715 128.832 33.9375 128.832 36.2695C128.832 37.2891 129.172 38.0859 129.852 38.6602C130.531 39.2344 131.404 39.5215 132.471 39.5215ZM149.24 42H145.988V15H149.24V42ZM157.994 42H154.742V15H157.994V42ZM174.957 42C174.77 41.625 174.617 40.957 174.5 39.9961C172.988 41.5664 171.184 42.3516 169.086 42.3516C167.211 42.3516 165.67 41.8242 164.463 40.7695C163.268 39.7031 162.67 38.3555 162.67 36.7266C162.67 34.7461 163.42 33.2109 164.92 32.1211C166.432 31.0195 168.553 30.4688 171.283 30.4688H174.447V28.9746C174.447 27.8379 174.107 26.9355 173.428 26.2676C172.748 25.5879 171.746 25.248 170.422 25.248C169.262 25.248 168.289 25.541 167.504 26.127C166.719 26.7129 166.326 27.4219 166.326 28.2539H163.057C163.057 27.3047 163.391 26.3906 164.059 25.5117C164.738 24.6211 165.652 23.918 166.801 23.4023C167.961 22.8867 169.232 22.6289 170.615 22.6289C172.807 22.6289 174.523 23.1797 175.766 24.2812C177.008 25.3711 177.652 26.877 177.699 28.7988V37.5527C177.699 39.2988 177.922 40.6875 178.367 41.7188V42H174.957ZM169.561 39.5215C170.58 39.5215 171.547 39.2578 172.461 38.7305C173.375 38.2031 174.037 37.5176 174.447 36.6738V32.7715H171.898C167.914 32.7715 165.922 33.9375 165.922 36.2695C165.922 37.2891 166.262 38.0859 166.941 38.6602C167.621 39.2344 168.494 39.5215 169.561 39.5215ZM191.99 25.8984C191.498 25.8164 190.965 25.7754 190.391 25.7754C188.258 25.7754 186.811 26.6836 186.049 28.5V42H182.797V22.9805H185.961L186.014 25.1777C187.08 23.4785 188.592 22.6289 190.549 22.6289C191.182 22.6289 191.662 22.7109 191.99 22.875V25.8984ZM215.668 40.1191C214.402 41.6074 212.545 42.3516 210.096 42.3516C208.068 42.3516 206.521 41.7656 205.455 40.5938C204.4 39.4102 203.867 37.6641 203.855 35.3555V22.9805H207.107V35.2676C207.107 38.1504 208.279 39.5918 210.623 39.5918C213.107 39.5918 214.76 38.666 215.58 36.8145V22.9805H218.832V42H215.738L215.668 40.1191ZM226.865 22.9805L226.971 25.3711C228.424 23.543 230.322 22.6289 232.666 22.6289C236.686 22.6289 238.713 24.8965 238.748 29.4316V42H235.496V29.4141C235.484 28.043 235.168 27.0293 234.547 26.373C233.938 25.7168 232.982 25.3887 231.682 25.3887C230.627 25.3887 229.701 25.6699 228.904 26.2324C228.107 26.7949 227.486 27.5332 227.041 28.4473V42H223.789V22.9805H226.865ZM255.658 22.9805L255.764 25.3711C257.217 23.543 259.115 22.6289 261.459 22.6289C265.479 22.6289 267.506 24.8965 267.541 29.4316V42H264.289V29.4141C264.277 28.043 263.961 27.0293 263.34 26.373C262.73 25.7168 261.775 25.3887 260.475 25.3887C259.42 25.3887 258.494 25.6699 257.697 26.2324C256.9 26.7949 256.279 27.5332 255.834 28.4473V42H252.582V22.9805H255.658ZM284.188 40.1191C282.922 41.6074 281.064 42.3516 278.615 42.3516C276.588 42.3516 275.041 41.7656 273.975 40.5938C272.92 39.4102 272.387 37.6641 272.375 35.3555V22.9805H275.627V35.2676C275.627 38.1504 276.799 39.5918 279.143 39.5918C281.627 39.5918 283.279 38.666 284.1 36.8145V22.9805H287.352V42H284.258L284.188 40.1191ZM281.551 15H285.488L280.777 20.168H278.158L281.551 15ZM295.367 22.9805L295.455 25.0898C296.85 23.4492 298.73 22.6289 301.098 22.6289C303.758 22.6289 305.568 23.6484 306.529 25.6875C307.162 24.7734 307.982 24.0352 308.99 23.4727C310.01 22.9102 311.211 22.6289 312.594 22.6289C316.766 22.6289 318.887 24.8379 318.957 29.2559V42H315.705V29.4492C315.705 28.0898 315.395 27.0762 314.773 26.4082C314.152 25.7285 313.109 25.3887 311.645 25.3887C310.438 25.3887 309.436 25.752 308.639 26.4785C307.842 27.1934 307.379 28.1602 307.25 29.3789V42H303.98V29.5371C303.98 26.7715 302.627 25.3887 299.92 25.3887C297.787 25.3887 296.328 26.2969 295.543 28.1133V42H292.291V22.9805H295.367ZM331.771 42.3516C329.193 42.3516 327.096 41.5078 325.479 39.8203C323.861 38.1211 323.053 35.8535 323.053 33.0176V32.4199C323.053 30.5332 323.41 28.8516 324.125 27.375C324.852 25.8867 325.859 24.7266 327.148 23.8945C328.449 23.0508 329.855 22.6289 331.367 22.6289C333.84 22.6289 335.762 23.4434 337.133 25.0723C338.504 26.7012 339.189 29.0332 339.189 32.0684V33.4219H326.305C326.352 35.2969 326.896 36.8145 327.939 37.9746C328.994 39.123 330.33 39.6973 331.947 39.6973C333.096 39.6973 334.068 39.4629 334.865 38.9941C335.662 38.5254 336.359 37.9043 336.957 37.1309L338.943 38.6777C337.35 41.127 334.959 42.3516 331.771 42.3516ZM331.367 25.3008C330.055 25.3008 328.953 25.7812 328.062 26.7422C327.172 27.6914 326.621 29.0273 326.41 30.75H335.938V30.5039C335.844 28.8516 335.398 27.5742 334.602 26.6719C333.805 25.7578 332.727 25.3008 331.367 25.3008ZM352.162 25.8984C351.67 25.8164 351.137 25.7754 350.562 25.7754C348.43 25.7754 346.982 26.6836 346.221 28.5V42H342.969V22.9805H346.133L346.186 25.1777C347.252 23.4785 348.764 22.6289 350.721 22.6289C351.354 22.6289 351.834 22.7109 352.162 22.875V25.8984ZM353.955 32.3145C353.955 30.4512 354.318 28.7754 355.045 27.2871C355.783 25.7988 356.803 24.6504 358.104 23.8418C359.416 23.0332 360.91 22.6289 362.586 22.6289C365.176 22.6289 367.268 23.5254 368.861 25.3184C370.467 27.1113 371.27 29.4961 371.27 32.4727V32.7012C371.27 34.5527 370.912 36.2168 370.197 37.6934C369.494 39.1582 368.48 40.3008 367.156 41.1211C365.844 41.9414 364.332 42.3516 362.621 42.3516C360.043 42.3516 357.951 41.4551 356.346 39.6621C354.752 37.8691 353.955 35.4961 353.955 32.543V32.3145ZM357.225 32.7012C357.225 34.8105 357.711 36.5039 358.684 37.7812C359.668 39.0586 360.98 39.6973 362.621 39.6973C364.273 39.6973 365.586 39.0527 366.559 37.7637C367.531 36.4629 368.018 34.6465 368.018 32.3145C368.018 30.2285 367.52 28.541 366.523 27.252C365.539 25.9512 364.227 25.3008 362.586 25.3008C360.98 25.3008 359.686 25.9395 358.701 27.2168C357.717 28.4941 357.225 30.3223 357.225 32.7012ZM383.486 32.332C383.486 29.4141 384.178 27.0703 385.561 25.3008C386.943 23.5195 388.754 22.6289 390.992 22.6289C393.219 22.6289 394.982 23.3906 396.283 24.9141V15H399.535V42H396.547L396.389 39.9609C395.088 41.5547 393.277 42.3516 390.957 42.3516C388.754 42.3516 386.955 41.4492 385.561 39.6445C384.178 37.8398 383.486 35.4844 383.486 32.5781V32.332ZM386.738 32.7012C386.738 34.8574 387.184 36.5449 388.074 37.7637C388.965 38.9824 390.195 39.5918 391.766 39.5918C393.828 39.5918 395.334 38.666 396.283 36.8145V28.0781C395.311 26.2852 393.816 25.3887 391.801 25.3887C390.207 25.3887 388.965 26.0039 388.074 27.2344C387.184 28.4648 386.738 30.2871 386.738 32.7012ZM412.49 42.3516C409.912 42.3516 407.814 41.5078 406.197 39.8203C404.58 38.1211 403.771 35.8535 403.771 33.0176V32.4199C403.771 30.5332 404.129 28.8516 404.844 27.375C405.57 25.8867 406.578 24.7266 407.867 23.8945C409.168 23.0508 410.574 22.6289 412.086 22.6289C414.559 22.6289 416.48 23.4434 417.852 25.0723C419.223 26.7012 419.908 29.0332 419.908 32.0684V33.4219H407.023C407.07 35.2969 407.615 36.8145 408.658 37.9746C409.713 39.123 411.049 39.6973 412.666 39.6973C413.814 39.6973 414.787 39.4629 415.584 38.9941C416.381 38.5254 417.078 37.9043 417.676 37.1309L419.662 38.6777C418.068 41.127 415.678 42.3516 412.49 42.3516ZM412.086 25.3008C410.773 25.3008 409.672 25.7812 408.781 26.7422C407.891 27.6914 407.34 29.0273 407.129 30.75H416.656V30.5039C416.562 28.8516 416.117 27.5742 415.32 26.6719C414.523 25.7578 413.445 25.3008 412.086 25.3008ZM437.012 27.6211H439.455C440.99 27.5977 442.197 27.1934 443.076 26.4082C443.955 25.623 444.395 24.5625 444.395 23.2266C444.395 20.2266 442.9 18.7266 439.912 18.7266C438.506 18.7266 437.381 19.1309 436.537 19.9395C435.705 20.7363 435.289 21.7969 435.289 23.1211H432.037C432.037 21.0938 432.775 19.4121 434.252 18.0762C435.74 16.7285 437.627 16.0547 439.912 16.0547C442.326 16.0547 444.219 16.6934 445.59 17.9707C446.961 19.248 447.646 21.0234 447.646 23.2969C447.646 24.4102 447.283 25.4883 446.557 26.5312C445.842 27.5742 444.863 28.3535 443.621 28.8691C445.027 29.3145 446.111 30.0527 446.873 31.084C447.646 32.1152 448.033 33.375 448.033 34.8633C448.033 37.1602 447.283 38.9824 445.783 40.3301C444.283 41.6777 442.332 42.3516 439.93 42.3516C437.527 42.3516 435.57 41.7012 434.059 40.4004C432.559 39.0996 431.809 37.3828 431.809 35.25H435.078C435.078 36.5977 435.518 37.6758 436.396 38.4844C437.275 39.293 438.453 39.6973 439.93 39.6973C441.5 39.6973 442.701 39.2871 443.533 38.4668C444.365 37.6465 444.781 36.4688 444.781 34.9336C444.781 33.4453 444.324 32.3027 443.41 31.5059C442.496 30.709 441.178 30.2988 439.455 30.2754H437.012V27.6211ZM469.391 39.6973C470.551 39.6973 471.564 39.3457 472.432 38.6426C473.299 37.9395 473.779 37.0605 473.873 36.0059H476.949C476.891 37.0957 476.516 38.1328 475.824 39.1172C475.133 40.1016 474.207 40.8867 473.047 41.4727C471.898 42.0586 470.68 42.3516 469.391 42.3516C466.801 42.3516 464.738 41.4902 463.203 39.7676C461.68 38.0332 460.918 35.666 460.918 32.666V32.1211C460.918 30.2695 461.258 28.623 461.938 27.1816C462.617 25.7402 463.59 24.6211 464.855 23.8242C466.133 23.0273 467.639 22.6289 469.373 22.6289C471.506 22.6289 473.275 23.2676 474.682 24.5449C476.1 25.8223 476.855 27.4805 476.949 29.5195H473.873C473.779 28.2891 473.311 27.2812 472.467 26.4961C471.635 25.6992 470.604 25.3008 469.373 25.3008C467.721 25.3008 466.438 25.8984 465.523 27.0938C464.621 28.2773 464.17 29.9941 464.17 32.2441V32.8594C464.17 35.0508 464.621 36.7383 465.523 37.9219C466.426 39.1055 467.715 39.6973 469.391 39.6973ZM484.139 42H480.887V22.9805H484.139V42ZM480.623 17.9355C480.623 17.4082 480.781 16.9629 481.098 16.5996C481.426 16.2363 481.906 16.0547 482.539 16.0547C483.172 16.0547 483.652 16.2363 483.98 16.5996C484.309 16.9629 484.473 17.4082 484.473 17.9355C484.473 18.4629 484.309 18.9023 483.98 19.2539C483.652 19.6055 483.172 19.7812 482.539 19.7812C481.906 19.7812 481.426 19.6055 481.098 19.2539C480.781 18.9023 480.623 18.4629 480.623 17.9355ZM490.959 42V25.4941H487.953V22.9805H490.959V21.0293C490.959 18.9902 491.504 17.4141 492.594 16.3008C493.684 15.1875 495.225 14.6309 497.217 14.6309C497.967 14.6309 498.711 14.7305 499.449 14.9297L499.273 17.5664C498.723 17.4609 498.137 17.4082 497.516 17.4082C496.461 17.4082 495.646 17.7188 495.072 18.3398C494.498 18.9492 494.211 19.8281 494.211 20.9766V22.9805H498.271V25.4941H494.211V42H490.959ZM511.068 25.8984C510.576 25.8164 510.043 25.7754 509.469 25.7754C507.336 25.7754 505.889 26.6836 505.127 28.5V42H501.875V22.9805H505.039L505.092 25.1777C506.158 23.4785 507.67 22.6289 509.627 22.6289C510.26 22.6289 510.74 22.7109 511.068 22.875V25.8984ZM525.113 42C524.926 41.625 524.773 40.957 524.656 39.9961C523.145 41.5664 521.34 42.3516 519.242 42.3516C517.367 42.3516 515.826 41.8242 514.619 40.7695C513.424 39.7031 512.826 38.3555 512.826 36.7266C512.826 34.7461 513.576 33.2109 515.076 32.1211C516.588 31.0195 518.709 30.4688 521.439 30.4688H524.604V28.9746C524.604 27.8379 524.264 26.9355 523.584 26.2676C522.904 25.5879 521.902 25.248 520.578 25.248C519.418 25.248 518.445 25.541 517.66 26.127C516.875 26.7129 516.482 27.4219 516.482 28.2539H513.213C513.213 27.3047 513.547 26.3906 514.215 25.5117C514.895 24.6211 515.809 23.918 516.957 23.4023C518.117 22.8867 519.389 22.6289 520.771 22.6289C522.963 22.6289 524.68 23.1797 525.922 24.2812C527.164 25.3711 527.809 26.877 527.855 28.7988V37.5527C527.855 39.2988 528.078 40.6875 528.523 41.7188V42H525.113ZM519.717 39.5215C520.736 39.5215 521.703 39.2578 522.617 38.7305C523.531 38.2031 524.193 37.5176 524.604 36.6738V32.7715H522.055C518.07 32.7715 516.078 33.9375 516.078 36.2695C516.078 37.2891 516.418 38.0859 517.098 38.6602C517.777 39.2344 518.65 39.5215 519.717 39.5215ZM544.027 36.9551C544.027 36.0762 543.693 35.3965 543.025 34.916C542.369 34.4238 541.215 34.002 539.562 33.6504C537.922 33.2988 536.615 32.877 535.643 32.3848C534.682 31.8926 533.967 31.3066 533.498 30.627C533.041 29.9473 532.812 29.1387 532.812 28.2012C532.812 26.6426 533.469 25.3242 534.781 24.2461C536.105 23.168 537.793 22.6289 539.844 22.6289C542 22.6289 543.746 23.1855 545.082 24.2988C546.43 25.4121 547.104 26.8359 547.104 28.5703H543.834C543.834 27.6797 543.453 26.9121 542.691 26.2676C541.941 25.623 540.992 25.3008 539.844 25.3008C538.66 25.3008 537.734 25.5586 537.066 26.0742C536.398 26.5898 536.064 27.2637 536.064 28.0957C536.064 28.8809 536.375 29.4727 536.996 29.8711C537.617 30.2695 538.736 30.6504 540.354 31.0137C541.982 31.377 543.301 31.8105 544.309 32.3145C545.316 32.8184 546.061 33.4277 546.541 34.1426C547.033 34.8457 547.279 35.707 547.279 36.7266C547.279 38.4258 546.6 39.791 545.24 40.8223C543.881 41.8418 542.117 42.3516 539.949 42.3516C538.426 42.3516 537.078 42.082 535.906 41.543C534.734 41.0039 533.814 40.2539 533.146 39.293C532.49 38.3203 532.162 37.2715 532.162 36.1465H535.414C535.473 37.2363 535.906 38.1035 536.715 38.748C537.535 39.3809 538.613 39.6973 539.949 39.6973C541.18 39.6973 542.164 39.4512 542.902 38.959C543.652 38.4551 544.027 37.7871 544.027 36.9551ZM559.654 32.332C559.654 29.3438 560.34 26.9824 561.711 25.248C563.082 23.502 564.922 22.6289 567.23 22.6289C569.48 22.6289 571.256 23.3848 572.557 24.8965L572.697 22.9805H575.686V49.3125H572.434V40.2422C571.121 41.6484 569.375 42.3516 567.195 42.3516C564.898 42.3516 563.064 41.4609 561.693 39.6797C560.334 37.8867 559.654 35.5137 559.654 32.5605V32.332ZM562.906 32.7012C562.906 34.8809 563.363 36.5918 564.277 37.834C565.203 39.0762 566.445 39.6973 568.004 39.6973C569.938 39.6973 571.414 38.8418 572.434 37.1309V27.8145C571.402 26.1387 569.938 25.3008 568.039 25.3008C566.469 25.3008 565.221 25.9277 564.295 27.1816C563.369 28.4238 562.906 30.2637 562.906 32.7012ZM592.648 40.1191C591.383 41.6074 589.525 42.3516 587.076 42.3516C585.049 42.3516 583.502 41.7656 582.436 40.5938C581.381 39.4102 580.848 37.6641 580.836 35.3555V22.9805H584.088V35.2676C584.088 38.1504 585.26 39.5918 587.604 39.5918C590.088 39.5918 591.74 38.666 592.561 36.8145V22.9805H595.812V42H592.719L592.648 40.1191ZM608.662 42.3516C606.084 42.3516 603.986 41.5078 602.369 39.8203C600.752 38.1211 599.943 35.8535 599.943 33.0176V32.4199C599.943 30.5332 600.301 28.8516 601.016 27.375C601.742 25.8867 602.75 24.7266 604.039 23.8945C605.34 23.0508 606.746 22.6289 608.258 22.6289C610.73 22.6289 612.652 23.4434 614.023 25.0723C615.395 26.7012 616.08 29.0332 616.08 32.0684V33.4219H603.195C603.242 35.2969 603.787 36.8145 604.83 37.9746C605.885 39.123 607.221 39.6973 608.838 39.6973C609.986 39.6973 610.959 39.4629 611.756 38.9941C612.553 38.5254 613.25 37.9043 613.848 37.1309L615.834 38.6777C614.24 41.127 611.85 42.3516 608.662 42.3516ZM608.258 25.3008C606.945 25.3008 605.844 25.7812 604.953 26.7422C604.062 27.6914 603.512 29.0273 603.301 30.75H612.828V30.5039C612.734 28.8516 612.289 27.5742 611.492 26.6719C610.695 25.7578 609.617 25.3008 608.258 25.3008ZM636.418 39.6973C637.578 39.6973 638.592 39.3457 639.459 38.6426C640.326 37.9395 640.807 37.0605 640.9 36.0059H643.977C643.918 37.0957 643.543 38.1328 642.852 39.1172C642.16 40.1016 641.234 40.8867 640.074 41.4727C638.926 42.0586 637.707 42.3516 636.418 42.3516C633.828 42.3516 631.766 41.4902 630.23 39.7676C628.707 38.0332 627.945 35.666 627.945 32.666V32.1211C627.945 30.2695 628.285 28.623 628.965 27.1816C629.645 25.7402 630.617 24.6211 631.883 23.8242C633.16 23.0273 634.666 22.6289 636.4 22.6289C638.533 22.6289 640.303 23.2676 641.709 24.5449C643.127 25.8223 643.883 27.4805 643.977 29.5195H640.9C640.807 28.2891 640.338 27.2812 639.494 26.4961C638.662 25.6992 637.631 25.3008 636.4 25.3008C634.748 25.3008 633.465 25.8984 632.551 27.0938C631.648 28.2773 631.197 29.9941 631.197 32.2441V32.8594C631.197 35.0508 631.648 36.7383 632.551 37.9219C633.453 39.1055 634.742 39.6973 636.418 39.6973ZM659.375 40.1191C658.109 41.6074 656.252 42.3516 653.803 42.3516C651.775 42.3516 650.229 41.7656 649.162 40.5938C648.107 39.4102 647.574 37.6641 647.562 35.3555V22.9805H650.814V35.2676C650.814 38.1504 651.986 39.5918 654.33 39.5918C656.814 39.5918 658.467 38.666 659.287 36.8145V22.9805H662.539V42H659.445L659.375 40.1191ZM670.555 22.9805L670.643 25.0898C672.037 23.4492 673.918 22.6289 676.285 22.6289C678.945 22.6289 680.756 23.6484 681.717 25.6875C682.35 24.7734 683.17 24.0352 684.178 23.4727C685.197 22.9102 686.398 22.6289 687.781 22.6289C691.953 22.6289 694.074 24.8379 694.145 29.2559V42H690.893V29.4492C690.893 28.0898 690.582 27.0762 689.961 26.4082C689.34 25.7285 688.297 25.3887 686.832 25.3887C685.625 25.3887 684.623 25.752 683.826 26.4785C683.029 27.1934 682.566 28.1602 682.438 29.3789V42H679.168V29.5371C679.168 26.7715 677.814 25.3887 675.107 25.3887C672.975 25.3887 671.516 26.2969 670.73 28.1133V42H667.479V22.9805H670.555ZM715.133 32.7012C715.133 35.5957 714.471 37.9277 713.146 39.6973C711.822 41.4668 710.029 42.3516 707.768 42.3516C705.459 42.3516 703.643 41.6191 702.318 40.1543V49.3125H699.066V22.9805H702.037L702.195 25.0898C703.52 23.4492 705.359 22.6289 707.715 22.6289C710 22.6289 711.805 23.4902 713.129 25.2129C714.465 26.9355 715.133 29.332 715.133 32.4023V32.7012ZM711.881 32.332C711.881 30.1875 711.424 28.4941 710.51 27.252C709.596 26.0098 708.342 25.3887 706.748 25.3887C704.779 25.3887 703.303 26.2617 702.318 28.0078V37.0957C703.291 38.8301 704.779 39.6973 706.783 39.6973C708.342 39.6973 709.578 39.082 710.492 37.8516C711.418 36.6094 711.881 34.7695 711.881 32.332ZM722.814 42H719.562V15H722.814V42ZM735.928 42.3516C733.35 42.3516 731.252 41.5078 729.635 39.8203C728.018 38.1211 727.209 35.8535 727.209 33.0176V32.4199C727.209 30.5332 727.566 28.8516 728.281 27.375C729.008 25.8867 730.016 24.7266 731.305 23.8945C732.605 23.0508 734.012 22.6289 735.523 22.6289C737.996 22.6289 739.918 23.4434 741.289 25.0723C742.66 26.7012 743.346 29.0332 743.346 32.0684V33.4219H730.461C730.508 35.2969 731.053 36.8145 732.096 37.9746C733.15 39.123 734.486 39.6973 736.104 39.6973C737.252 39.6973 738.225 39.4629 739.021 38.9941C739.818 38.5254 740.516 37.9043 741.113 37.1309L743.1 38.6777C741.506 41.127 739.115 42.3516 735.928 42.3516ZM735.523 25.3008C734.211 25.3008 733.109 25.7812 732.219 26.7422C731.328 27.6914 730.777 29.0273 730.566 30.75H740.094V30.5039C740 28.8516 739.555 27.5742 738.758 26.6719C737.961 25.7578 736.883 25.3008 735.523 25.3008ZM484.508 80.2949C484.508 79.7324 484.672 79.2637 485 78.8887C485.34 78.5137 485.844 78.3262 486.512 78.3262C487.18 78.3262 487.684 78.5137 488.023 78.8887C488.375 79.2637 488.551 79.7324 488.551 80.2949C488.551 80.834 488.375 81.2852 488.023 81.6484C487.684 82.0117 487.18 82.1934 486.512 82.1934C485.844 82.1934 485.34 82.0117 485 81.6484C484.672 81.2852 484.508 80.834 484.508 80.2949ZM100.971 122V96.4062H108.195C110.422 96.4062 112.391 96.8984 114.102 97.8828C115.812 98.8672 117.131 100.268 118.057 102.084C118.994 103.9 119.469 105.986 119.48 108.342V109.977C119.48 112.391 119.012 114.506 118.074 116.322C117.148 118.139 115.818 119.533 114.084 120.506C112.361 121.479 110.352 121.977 108.055 122H100.971ZM104.346 99.1836V119.24H107.896C110.498 119.24 112.52 118.432 113.961 116.814C115.414 115.197 116.141 112.895 116.141 109.906V108.412C116.141 105.506 115.455 103.25 114.084 101.645C112.725 100.027 110.791 99.207 108.283 99.1836H104.346ZM135.828 122C135.641 121.625 135.488 120.957 135.371 119.996C133.859 121.566 132.055 122.352 129.957 122.352C128.082 122.352 126.541 121.824 125.334 120.77C124.139 119.703 123.541 118.355 123.541 116.727C123.541 114.746 124.291 113.211 125.791 112.121C127.303 111.02 129.424 110.469 132.154 110.469H135.318V108.975C135.318 107.838 134.979 106.936 134.299 106.268C133.619 105.588 132.617 105.248 131.293 105.248C130.133 105.248 129.16 105.541 128.375 106.127C127.59 106.713 127.197 107.422 127.197 108.254H123.928C123.928 107.305 124.262 106.391 124.93 105.512C125.609 104.621 126.523 103.918 127.672 103.402C128.832 102.887 130.104 102.629 131.486 102.629C133.678 102.629 135.395 103.18 136.637 104.281C137.879 105.371 138.523 106.877 138.57 108.799V117.553C138.57 119.299 138.793 120.688 139.238 121.719V122H135.828ZM130.432 119.521C131.451 119.521 132.418 119.258 133.332 118.73C134.246 118.203 134.908 117.518 135.318 116.674V112.771H132.77C128.785 112.771 126.793 113.938 126.793 116.27C126.793 117.289 127.133 118.086 127.812 118.66C128.492 119.234 129.365 119.521 130.432 119.521ZM152.861 105.898C152.369 105.816 151.836 105.775 151.262 105.775C149.129 105.775 147.682 106.684 146.92 108.5V122H143.668V102.98H146.832L146.885 105.178C147.951 103.479 149.463 102.629 151.42 102.629C152.053 102.629 152.533 102.711 152.861 102.875V105.898ZM172.426 119.697C173.586 119.697 174.6 119.346 175.467 118.643C176.334 117.939 176.814 117.061 176.908 116.006H179.984C179.926 117.096 179.551 118.133 178.859 119.117C178.168 120.102 177.242 120.887 176.082 121.473C174.934 122.059 173.715 122.352 172.426 122.352C169.836 122.352 167.773 121.49 166.238 119.768C164.715 118.033 163.953 115.666 163.953 112.666V112.121C163.953 110.27 164.293 108.623 164.973 107.182C165.652 105.74 166.625 104.621 167.891 103.824C169.168 103.027 170.674 102.629 172.408 102.629C174.541 102.629 176.311 103.268 177.717 104.545C179.135 105.822 179.891 107.48 179.984 109.52H176.908C176.814 108.289 176.346 107.281 175.502 106.496C174.67 105.699 173.639 105.301 172.408 105.301C170.756 105.301 169.473 105.898 168.559 107.094C167.656 108.277 167.205 109.994 167.205 112.244V112.859C167.205 115.051 167.656 116.738 168.559 117.922C169.461 119.105 170.75 119.697 172.426 119.697ZM182.779 112.314C182.779 110.451 183.143 108.775 183.869 107.287C184.607 105.799 185.627 104.65 186.928 103.842C188.24 103.033 189.734 102.629 191.41 102.629C194 102.629 196.092 103.525 197.686 105.318C199.291 107.111 200.094 109.496 200.094 112.473V112.701C200.094 114.553 199.736 116.217 199.021 117.693C198.318 119.158 197.305 120.301 195.98 121.121C194.668 121.941 193.156 122.352 191.445 122.352C188.867 122.352 186.775 121.455 185.17 119.662C183.576 117.869 182.779 115.496 182.779 112.543V112.314ZM186.049 112.701C186.049 114.811 186.535 116.504 187.508 117.781C188.492 119.059 189.805 119.697 191.445 119.697C193.098 119.697 194.41 119.053 195.383 117.764C196.355 116.463 196.842 114.646 196.842 112.314C196.842 110.229 196.344 108.541 195.348 107.252C194.363 105.951 193.051 105.301 191.41 105.301C189.805 105.301 188.51 105.939 187.525 107.217C186.541 108.494 186.049 110.322 186.049 112.701ZM207.23 102.98L207.318 105.09C208.713 103.449 210.594 102.629 212.961 102.629C215.621 102.629 217.432 103.648 218.393 105.688C219.025 104.773 219.846 104.035 220.854 103.473C221.873 102.91 223.074 102.629 224.457 102.629C228.629 102.629 230.75 104.838 230.82 109.256V122H227.568V109.449C227.568 108.09 227.258 107.076 226.637 106.408C226.016 105.729 224.973 105.389 223.508 105.389C222.301 105.389 221.299 105.752 220.502 106.479C219.705 107.193 219.242 108.16 219.113 109.379V122H215.844V109.537C215.844 106.771 214.49 105.389 211.783 105.389C209.65 105.389 208.191 106.297 207.406 108.113V122H204.154V102.98H207.23ZM234.881 112.314C234.881 110.451 235.244 108.775 235.971 107.287C236.709 105.799 237.729 104.65 239.029 103.842C240.342 103.033 241.836 102.629 243.512 102.629C246.102 102.629 248.193 103.525 249.787 105.318C251.393 107.111 252.195 109.496 252.195 112.473V112.701C252.195 114.553 251.838 116.217 251.123 117.693C250.42 119.158 249.406 120.301 248.082 121.121C246.77 121.941 245.258 122.352 243.547 122.352C240.969 122.352 238.877 121.455 237.271 119.662C235.678 117.869 234.881 115.496 234.881 112.543V112.314ZM238.15 112.701C238.15 114.811 238.637 116.504 239.609 117.781C240.594 119.059 241.906 119.697 243.547 119.697C245.199 119.697 246.512 119.053 247.484 117.764C248.457 116.463 248.943 114.646 248.943 112.314C248.943 110.229 248.445 108.541 247.449 107.252C246.465 105.951 245.152 105.301 243.512 105.301C241.906 105.301 240.611 105.939 239.627 107.217C238.643 108.494 238.15 110.322 238.15 112.701ZM274.396 105.898C273.904 105.816 273.371 105.775 272.797 105.775C270.664 105.775 269.217 106.684 268.455 108.5V122H265.203V102.98H268.367L268.42 105.178C269.486 103.479 270.998 102.629 272.955 102.629C273.588 102.629 274.068 102.711 274.396 102.875V105.898ZM284.943 122.352C282.365 122.352 280.268 121.508 278.65 119.82C277.033 118.121 276.225 115.854 276.225 113.018V112.42C276.225 110.533 276.582 108.852 277.297 107.375C278.023 105.887 279.031 104.727 280.32 103.895C281.621 103.051 283.027 102.629 284.539 102.629C287.012 102.629 288.934 103.443 290.305 105.072C291.676 106.701 292.361 109.033 292.361 112.068V113.422H279.477C279.523 115.297 280.068 116.814 281.111 117.975C282.166 119.123 283.502 119.697 285.119 119.697C286.268 119.697 287.24 119.463 288.037 118.994C288.834 118.525 289.531 117.904 290.129 117.131L292.115 118.678C290.521 121.127 288.131 122.352 284.943 122.352ZM284.539 105.301C283.227 105.301 282.125 105.781 281.234 106.742C280.344 107.691 279.793 109.027 279.582 110.75H289.109V110.504C289.016 108.852 288.57 107.574 287.773 106.672C286.977 105.758 285.898 105.301 284.539 105.301ZM307.215 116.955C307.215 116.076 306.881 115.396 306.213 114.916C305.557 114.424 304.402 114.002 302.75 113.65C301.109 113.299 299.803 112.877 298.83 112.385C297.869 111.893 297.154 111.307 296.686 110.627C296.229 109.947 296 109.139 296 108.201C296 106.643 296.656 105.324 297.969 104.246C299.293 103.168 300.98 102.629 303.031 102.629C305.188 102.629 306.934 103.186 308.27 104.299C309.617 105.412 310.291 106.836 310.291 108.57H307.021C307.021 107.68 306.641 106.912 305.879 106.268C305.129 105.623 304.18 105.301 303.031 105.301C301.848 105.301 300.922 105.559 300.254 106.074C299.586 106.59 299.252 107.264 299.252 108.096C299.252 108.881 299.562 109.473 300.184 109.871C300.805 110.27 301.924 110.65 303.541 111.014C305.17 111.377 306.488 111.811 307.496 112.314C308.504 112.818 309.248 113.428 309.729 114.143C310.221 114.846 310.467 115.707 310.467 116.727C310.467 118.426 309.787 119.791 308.428 120.822C307.068 121.842 305.305 122.352 303.137 122.352C301.613 122.352 300.266 122.082 299.094 121.543C297.922 121.004 297.002 120.254 296.334 119.293C295.678 118.32 295.35 117.271 295.35 116.146H298.602C298.66 117.236 299.094 118.104 299.902 118.748C300.723 119.381 301.801 119.697 303.137 119.697C304.367 119.697 305.352 119.451 306.09 118.959C306.84 118.455 307.215 117.787 307.215 116.955ZM330.77 112.701C330.77 115.596 330.107 117.928 328.783 119.697C327.459 121.467 325.666 122.352 323.404 122.352C321.096 122.352 319.279 121.619 317.955 120.154V129.312H314.703V102.98H317.674L317.832 105.09C319.156 103.449 320.996 102.629 323.352 102.629C325.637 102.629 327.441 103.49 328.766 105.213C330.102 106.936 330.77 109.332 330.77 112.402V112.701ZM327.518 112.332C327.518 110.188 327.061 108.494 326.146 107.252C325.232 106.01 323.979 105.389 322.385 105.389C320.416 105.389 318.939 106.262 317.955 108.008V117.096C318.928 118.83 320.416 119.697 322.42 119.697C323.979 119.697 325.215 119.082 326.129 117.852C327.055 116.609 327.518 114.77 327.518 112.332ZM346.66 120.119C345.395 121.607 343.537 122.352 341.088 122.352C339.061 122.352 337.514 121.766 336.447 120.594C335.393 119.41 334.859 117.664 334.848 115.355V102.98H338.1V115.268C338.1 118.15 339.271 119.592 341.615 119.592C344.1 119.592 345.752 118.666 346.572 116.814V102.98H349.824V122H346.73L346.66 120.119ZM362.674 122.352C360.096 122.352 357.998 121.508 356.381 119.82C354.764 118.121 353.955 115.854 353.955 113.018V112.42C353.955 110.533 354.312 108.852 355.027 107.375C355.754 105.887 356.762 104.727 358.051 103.895C359.352 103.051 360.758 102.629 362.27 102.629C364.742 102.629 366.664 103.443 368.035 105.072C369.406 106.701 370.092 109.033 370.092 112.068V113.422H357.207C357.254 115.297 357.799 116.814 358.842 117.975C359.896 119.123 361.232 119.697 362.85 119.697C363.998 119.697 364.971 119.463 365.768 118.994C366.564 118.525 367.262 117.904 367.859 117.131L369.846 118.678C368.252 121.127 365.861 122.352 362.674 122.352ZM362.27 105.301C360.957 105.301 359.855 105.781 358.965 106.742C358.074 107.691 357.523 109.027 357.312 110.75H366.84V110.504C366.746 108.852 366.301 107.574 365.504 106.672C364.707 105.758 363.629 105.301 362.27 105.301ZM384.945 116.955C384.945 116.076 384.611 115.396 383.943 114.916C383.287 114.424 382.133 114.002 380.48 113.65C378.84 113.299 377.533 112.877 376.561 112.385C375.6 111.893 374.885 111.307 374.416 110.627C373.959 109.947 373.73 109.139 373.73 108.201C373.73 106.643 374.387 105.324 375.699 104.246C377.023 103.168 378.711 102.629 380.762 102.629C382.918 102.629 384.664 103.186 386 104.299C387.348 105.412 388.021 106.836 388.021 108.57H384.752C384.752 107.68 384.371 106.912 383.609 106.268C382.859 105.623 381.91 105.301 380.762 105.301C379.578 105.301 378.652 105.559 377.984 106.074C377.316 106.59 376.982 107.264 376.982 108.096C376.982 108.881 377.293 109.473 377.914 109.871C378.535 110.27 379.654 110.65 381.271 111.014C382.9 111.377 384.219 111.811 385.227 112.314C386.234 112.818 386.979 113.428 387.459 114.143C387.951 114.846 388.197 115.707 388.197 116.727C388.197 118.426 387.518 119.791 386.158 120.822C384.799 121.842 383.035 122.352 380.867 122.352C379.344 122.352 377.996 122.082 376.824 121.543C375.652 121.004 374.732 120.254 374.064 119.293C373.408 118.32 373.08 117.271 373.08 116.146H376.332C376.391 117.236 376.824 118.104 377.633 118.748C378.453 119.381 379.531 119.697 380.867 119.697C382.098 119.697 383.082 119.451 383.82 118.959C384.57 118.455 384.945 117.787 384.945 116.955ZM396.846 98.375V102.98H400.396V105.494H396.846V117.289C396.846 118.051 397.004 118.625 397.32 119.012C397.637 119.387 398.176 119.574 398.938 119.574C399.312 119.574 399.828 119.504 400.484 119.363V122C399.629 122.234 398.797 122.352 397.988 122.352C396.535 122.352 395.439 121.912 394.701 121.033C393.963 120.154 393.594 118.906 393.594 117.289V105.494H390.131V102.98H393.594V98.375H396.846ZM415.953 122C415.766 121.625 415.613 120.957 415.496 119.996C413.984 121.566 412.18 122.352 410.082 122.352C408.207 122.352 406.666 121.824 405.459 120.77C404.264 119.703 403.666 118.355 403.666 116.727C403.666 114.746 404.416 113.211 405.916 112.121C407.428 111.02 409.549 110.469 412.279 110.469H415.443V108.975C415.443 107.838 415.104 106.936 414.424 106.268C413.744 105.588 412.742 105.248 411.418 105.248C410.258 105.248 409.285 105.541 408.5 106.127C407.715 106.713 407.322 107.422 407.322 108.254H404.053C404.053 107.305 404.387 106.391 405.055 105.512C405.734 104.621 406.648 103.918 407.797 103.402C408.957 102.887 410.229 102.629 411.611 102.629C413.803 102.629 415.52 103.18 416.762 104.281C418.004 105.371 418.648 106.877 418.695 108.799V117.553C418.695 119.299 418.918 120.688 419.363 121.719V122H415.953ZM410.557 119.521C411.576 119.521 412.543 119.258 413.457 118.73C414.371 118.203 415.033 117.518 415.443 116.674V112.771H412.895C408.91 112.771 406.918 113.938 406.918 116.27C406.918 117.289 407.258 118.086 407.938 118.66C408.617 119.234 409.49 119.521 410.557 119.521ZM440.615 122.352C438.037 122.352 435.939 121.508 434.322 119.82C432.705 118.121 431.896 115.854 431.896 113.018V112.42C431.896 110.533 432.254 108.852 432.969 107.375C433.695 105.887 434.703 104.727 435.992 103.895C437.293 103.051 438.699 102.629 440.211 102.629C442.684 102.629 444.605 103.443 445.977 105.072C447.348 106.701 448.033 109.033 448.033 112.068V113.422H435.148C435.195 115.297 435.74 116.814 436.783 117.975C437.838 119.123 439.174 119.697 440.791 119.697C441.939 119.697 442.912 119.463 443.709 118.994C444.506 118.525 445.203 117.904 445.801 117.131L447.787 118.678C446.193 121.127 443.803 122.352 440.615 122.352ZM440.211 105.301C438.898 105.301 437.797 105.781 436.906 106.742C436.016 107.691 435.465 109.027 435.254 110.75H444.781V110.504C444.688 108.852 444.242 107.574 443.445 106.672C442.648 105.758 441.57 105.301 440.211 105.301ZM455.346 122H452.094V95H455.346V122ZM475.771 117.588L480.482 102.98H483.805L476.984 122H474.506L467.615 102.98H470.938L475.771 117.588ZM498.395 122C498.207 121.625 498.055 120.957 497.938 119.996C496.426 121.566 494.621 122.352 492.523 122.352C490.648 122.352 489.107 121.824 487.9 120.77C486.705 119.703 486.107 118.355 486.107 116.727C486.107 114.746 486.857 113.211 488.357 112.121C489.869 111.02 491.99 110.469 494.721 110.469H497.885V108.975C497.885 107.838 497.545 106.936 496.865 106.268C496.186 105.588 495.184 105.248 493.859 105.248C492.699 105.248 491.727 105.541 490.941 106.127C490.156 106.713 489.764 107.422 489.764 108.254H486.494C486.494 107.305 486.828 106.391 487.496 105.512C488.176 104.621 489.09 103.918 490.238 103.402C491.398 102.887 492.67 102.629 494.053 102.629C496.244 102.629 497.961 103.18 499.203 104.281C500.445 105.371 501.09 106.877 501.137 108.799V117.553C501.137 119.299 501.359 120.688 501.805 121.719V122H498.395ZM492.998 119.521C494.018 119.521 494.984 119.258 495.898 118.73C496.812 118.203 497.475 117.518 497.885 116.674V112.771H495.336C491.352 112.771 489.359 113.938 489.359 116.27C489.359 117.289 489.699 118.086 490.379 118.66C491.059 119.234 491.932 119.521 492.998 119.521ZM509.768 122H506.516V95H509.768V122ZM514.127 112.314C514.127 110.451 514.49 108.775 515.217 107.287C515.955 105.799 516.975 104.65 518.275 103.842C519.588 103.033 521.082 102.629 522.758 102.629C525.348 102.629 527.439 103.525 529.033 105.318C530.639 107.111 531.441 109.496 531.441 112.473V112.701C531.441 114.553 531.084 116.217 530.369 117.693C529.666 119.158 528.652 120.301 527.328 121.121C526.016 121.941 524.504 122.352 522.793 122.352C520.215 122.352 518.123 121.455 516.518 119.662C514.924 117.869 514.127 115.496 514.127 112.543V112.314ZM517.396 112.701C517.396 114.811 517.883 116.504 518.855 117.781C519.84 119.059 521.152 119.697 522.793 119.697C524.445 119.697 525.758 119.053 526.73 117.764C527.703 116.463 528.189 114.646 528.189 112.314C528.189 110.229 527.691 108.541 526.695 107.252C525.711 105.951 524.398 105.301 522.758 105.301C521.152 105.301 519.857 105.939 518.873 107.217C517.889 108.494 517.396 110.322 517.396 112.701ZM544.713 105.898C544.221 105.816 543.688 105.775 543.113 105.775C540.98 105.775 539.533 106.684 538.771 108.5V122H535.52V102.98H538.684L538.736 105.178C539.803 103.479 541.314 102.629 543.271 102.629C543.904 102.629 544.385 102.711 544.713 102.875V105.898ZM555.857 112.332C555.857 109.414 556.549 107.07 557.932 105.301C559.314 103.52 561.125 102.629 563.363 102.629C565.59 102.629 567.354 103.391 568.654 104.914V95H571.906V122H568.918L568.76 119.961C567.459 121.555 565.648 122.352 563.328 122.352C561.125 122.352 559.326 121.449 557.932 119.645C556.549 117.84 555.857 115.484 555.857 112.578V112.332ZM559.109 112.701C559.109 114.857 559.555 116.545 560.445 117.764C561.336 118.982 562.566 119.592 564.137 119.592C566.199 119.592 567.705 118.666 568.654 116.814V108.078C567.682 106.285 566.188 105.389 564.172 105.389C562.578 105.389 561.336 106.004 560.445 107.234C559.555 108.465 559.109 110.287 559.109 112.701ZM584.861 122.352C582.283 122.352 580.186 121.508 578.568 119.82C576.951 118.121 576.143 115.854 576.143 113.018V112.42C576.143 110.533 576.5 108.852 577.215 107.375C577.941 105.887 578.949 104.727 580.238 103.895C581.539 103.051 582.945 102.629 584.457 102.629C586.93 102.629 588.852 103.443 590.223 105.072C591.594 106.701 592.279 109.033 592.279 112.068V113.422H579.395C579.441 115.297 579.986 116.814 581.029 117.975C582.084 119.123 583.42 119.697 585.037 119.697C586.186 119.697 587.158 119.463 587.955 118.994C588.752 118.525 589.449 117.904 590.047 117.131L592.033 118.678C590.439 121.127 588.049 122.352 584.861 122.352ZM584.457 105.301C583.145 105.301 582.043 105.781 581.152 106.742C580.262 107.691 579.711 109.027 579.5 110.75H589.027V110.504C588.934 108.852 588.488 107.574 587.691 106.672C586.895 105.758 585.816 105.301 584.457 105.301ZM604.865 111.611C604.865 108.963 605.217 106.42 605.92 103.982C606.635 101.545 607.695 99.3301 609.102 97.3379C610.508 95.3457 611.967 93.9395 613.479 93.1191L614.146 95.2637C612.436 96.5762 611.029 98.5801 609.928 101.275C608.838 103.971 608.24 106.988 608.135 110.328L608.117 111.822C608.117 116.346 608.943 120.271 610.596 123.6C611.592 125.592 612.775 127.15 614.146 128.275L613.479 130.262C611.92 129.395 610.432 127.941 609.014 125.902C606.248 121.918 604.865 117.154 604.865 111.611ZM631.936 115.32H621.213L618.805 122H615.324L625.098 96.4062H628.051L637.842 122H634.379L631.936 115.32ZM622.232 112.543H630.934L626.574 100.572L622.232 112.543ZM659.023 108.271H666.16V111.348H659.023V119.434H655.754V111.348H648.617V108.271H655.754V100.801H659.023V108.271ZM679.572 122V96.4062H687.939C690.717 96.4062 692.803 96.9805 694.197 98.1289C695.604 99.2773 696.307 100.977 696.307 103.227C696.307 104.422 695.967 105.482 695.287 106.408C694.607 107.322 693.682 108.031 692.51 108.535C693.893 108.922 694.982 109.66 695.779 110.75C696.588 111.828 696.992 113.117 696.992 114.617C696.992 116.914 696.248 118.719 694.76 120.031C693.271 121.344 691.168 122 688.449 122H679.572ZM682.947 110.029V119.24H688.52C690.09 119.24 691.326 118.836 692.229 118.027C693.143 117.207 693.6 116.082 693.6 114.652C693.6 111.57 691.924 110.029 688.572 110.029H682.947ZM682.947 107.322H688.045C689.521 107.322 690.699 106.953 691.578 106.215C692.469 105.477 692.914 104.475 692.914 103.209C692.914 101.803 692.504 100.783 691.684 100.15C690.863 99.5059 689.615 99.1836 687.939 99.1836H682.947V107.322ZM719.738 108.271H726.875V111.348H719.738V119.434H716.469V111.348H709.332V108.271H716.469V100.801H719.738V108.271ZM759.113 113.879C758.797 116.586 757.795 118.678 756.107 120.154C754.432 121.619 752.199 122.352 749.41 122.352C746.387 122.352 743.961 121.268 742.133 119.1C740.316 116.932 739.408 114.031 739.408 110.398V107.938C739.408 105.559 739.83 103.467 740.674 101.662C741.529 99.8574 742.736 98.4746 744.295 97.5137C745.854 96.541 747.658 96.0547 749.709 96.0547C752.428 96.0547 754.607 96.8164 756.248 98.3398C757.889 99.8516 758.844 101.949 759.113 104.633H755.721C755.428 102.594 754.789 101.117 753.805 100.203C752.832 99.2891 751.467 98.832 749.709 98.832C747.553 98.832 745.859 99.6289 744.629 101.223C743.41 102.816 742.801 105.084 742.801 108.025V110.504C742.801 113.281 743.381 115.49 744.541 117.131C745.701 118.771 747.324 119.592 749.41 119.592C751.285 119.592 752.721 119.17 753.717 118.326C754.725 117.471 755.393 115.988 755.721 113.879H759.113ZM770.275 111.787C770.275 114.4 769.93 116.908 769.238 119.311C768.559 121.701 767.51 123.91 766.092 125.938C764.686 127.965 763.209 129.406 761.662 130.262L760.977 128.275C762.781 126.893 764.229 124.748 765.318 121.842C766.42 118.924 766.982 115.689 767.006 112.139V111.576C767.006 109.115 766.748 106.83 766.232 104.721C765.717 102.6 764.996 100.701 764.07 99.0254C763.156 97.3496 762.125 96.043 760.977 95.1055L761.662 93.1191C763.209 93.9746 764.68 95.4043 766.074 97.4082C767.48 99.4121 768.529 101.621 769.221 104.035C769.924 106.449 770.275 109.033 770.275 111.787Z" fill="white"/>
</g>
<g id="\overline{ABC}=A!+B!+C!">
<g id="Group">
<g id="Group_2">
<g id="Group_3">
<g id="Group_4">
<path id="Vector" d="M307.287 86.5346C307.287 87.0951 307.824 87.4221 308.899 87.5155C309.319 87.5155 309.529 87.644 309.529 87.9009C309.529 87.9242 309.506 88.0761 309.459 88.3563C309.389 88.6833 309.319 88.8935 309.249 88.9869C309.179 89.0804 309.027 89.1271 308.794 89.1271C308.747 89.1271 308.607 89.1271 308.373 89.1271C308.14 89.1271 307.743 89.1154 307.182 89.092C306.622 89.0687 305.874 89.057 304.94 89.057C303.282 89.057 302.219 89.0804 301.752 89.1271H301.472C301.308 88.9636 301.226 88.8351 301.226 88.7417C301.273 88.1111 301.425 87.7024 301.682 87.5155H302.172C303.807 87.4454 304.998 86.8615 305.746 85.7638C305.886 85.6237 308 82.0619 312.087 75.0784C316.174 68.095 318.253 64.5565 318.323 64.4631C318.486 64.1828 318.767 64.0427 319.164 64.0427H319.444H320.04C320.18 64.2529 320.25 64.3697 320.25 64.393L321.231 75.709C321.885 83.253 322.235 87.0601 322.282 87.1301C322.399 87.3871 323.158 87.5155 324.559 87.5155C325.143 87.5155 325.435 87.6323 325.435 87.8658C325.435 87.9126 325.4 88.0761 325.33 88.3563C325.26 88.7067 325.201 88.9169 325.155 88.9869C325.108 89.057 324.944 89.1037 324.664 89.1271C324.594 89.1271 324.431 89.1271 324.174 89.1271C323.917 89.1271 323.461 89.1154 322.807 89.092C322.153 89.0687 321.301 89.057 320.25 89.057C318.054 89.057 316.618 89.0804 315.941 89.1271H315.52C315.38 88.9869 315.31 88.8818 315.31 88.8118C315.31 88.7417 315.333 88.5315 315.38 88.1812C315.474 87.8775 315.544 87.6907 315.59 87.6206L315.73 87.5155H316.431C317.692 87.4454 318.44 87.2469 318.673 86.9199L318.253 81.6648H309.915L308.724 83.6968C307.766 85.3084 307.287 86.2543 307.287 86.5346ZM318.078 80.0182C318.078 79.7613 317.938 77.9395 317.657 74.5529C317.377 71.1663 317.214 69.4613 317.167 69.4379L316.221 70.9444C315.847 71.575 315.111 72.8246 314.014 74.693L310.861 80.0182L314.469 80.0533C316.875 80.0533 318.078 80.0416 318.078 80.0182Z" fill="white"/>
</g>
<g id="Group_5">
<path id="Vector_2" d="M334.369 66.8104C333.738 66.8104 333.364 66.7987 333.247 66.7753C333.131 66.752 333.072 66.6235 333.072 66.39C333.072 65.7594 333.201 65.374 333.458 65.2338C333.481 65.2105 334.999 65.1988 338.012 65.1988C344.061 65.1988 347.249 65.2222 347.576 65.2689C349.048 65.5024 350.274 66.028 351.255 66.8454C352.236 67.6629 352.738 68.7373 352.761 70.0685C352.761 71.5633 352.084 72.9063 350.729 74.0975C349.375 75.2886 347.822 76.0944 346.07 76.5148L345.72 76.6199C347.214 76.8301 348.441 77.3673 349.398 78.2315C350.356 79.0957 350.846 80.17 350.87 81.4546C350.87 83.1596 350.029 84.8062 348.347 86.3944C346.665 87.9826 344.598 88.8818 342.146 89.092C341.983 89.1154 339.519 89.1271 334.754 89.1271C330.083 89.1271 327.712 89.1037 327.642 89.057C327.549 88.9869 327.502 88.8935 327.502 88.7767C327.502 88.6132 327.525 88.4498 327.572 88.2863C327.689 87.8425 327.805 87.5973 327.922 87.5505C328.016 87.5272 328.191 87.5155 328.448 87.5155H328.658C329.289 87.5155 329.989 87.4805 330.76 87.4104C331.087 87.3403 331.309 87.2002 331.426 86.99C331.496 86.8966 332.337 83.6501 333.948 77.2505C335.56 70.851 336.365 67.476 336.365 67.1257C336.365 66.9622 335.7 66.8571 334.369 66.8104ZM349.013 70.0685C349.013 69.3679 348.838 68.7139 348.487 68.1066C348.137 67.4994 347.565 67.1023 346.771 66.9155C346.607 66.8688 345.533 66.8337 343.547 66.8104C343.08 66.8104 342.59 66.8104 342.076 66.8104C341.562 66.8104 341.153 66.8221 340.85 66.8454H340.394C340.044 66.8688 339.822 66.9855 339.729 67.1958C339.682 67.2892 339.308 68.6905 338.608 71.3998C338.608 71.4699 338.596 71.54 338.573 71.61L337.487 76.0243H340.324C342.216 76.0243 343.302 76.001 343.582 75.9543C344.984 75.7207 346.233 75.0434 347.331 73.9223C348.429 72.8012 348.989 71.5166 349.013 70.0685ZM347.121 81.1043C347.121 80.0766 346.852 79.2241 346.315 78.5468C345.778 77.8695 345.077 77.4724 344.213 77.3556C344.073 77.3323 343.104 77.3206 341.305 77.3206C338.549 77.3206 337.16 77.3323 337.136 77.3556C337.136 77.4023 336.938 78.2548 336.541 79.9131C336.144 81.5714 335.735 83.218 335.314 84.8529L334.684 87.3053C334.684 87.3987 334.824 87.4454 335.104 87.4454C335.384 87.4454 336.33 87.4688 337.942 87.5155C340.021 87.5155 341.142 87.5038 341.305 87.4805C342.753 87.317 344.085 86.6397 345.299 85.4485C346.514 84.2573 347.121 82.8093 347.121 81.1043Z" fill="white"/>
</g>
<g id="Group_6">
<path id="Vector_3" d="M354.618 80.2986C354.618 77.6127 355.401 75.0318 356.966 72.5561C358.53 70.0803 360.504 68.1184 362.886 66.6704C365.269 65.2223 367.651 64.4866 370.033 64.4632C372.135 64.4632 373.805 65.0588 375.043 66.25C375.253 66.4835 375.429 66.682 375.569 66.8455C375.709 67.009 375.802 67.1258 375.849 67.1959L375.884 67.301C375.954 67.301 376.269 66.9973 376.83 66.3901C376.993 66.25 377.169 66.0865 377.355 65.8996C377.542 65.7128 377.729 65.5259 377.916 65.3391C378.103 65.1522 378.22 65.0238 378.266 64.9537L378.792 64.4282H379.002C379.329 64.4282 379.492 64.5099 379.492 64.6734C379.492 64.7668 379.119 66.3667 378.371 69.4731C377.531 72.7196 377.11 74.3545 377.11 74.3779C377.063 74.4946 377.005 74.5647 376.935 74.5881C376.865 74.6114 376.655 74.6348 376.304 74.6581H375.744C375.604 74.518 375.534 74.4129 375.534 74.3428C375.534 74.3195 375.545 74.2377 375.569 74.0976C375.592 73.9575 375.615 73.7239 375.639 73.3969C375.662 73.0699 375.674 72.6962 375.674 72.2758C375.674 70.6175 375.3 69.1695 374.553 67.9316C373.805 66.6937 372.532 66.0631 370.734 66.0398C370.127 66.0398 369.473 66.1215 368.772 66.285C368.071 66.4485 367.231 66.7288 366.25 67.1258C365.269 67.5229 364.299 68.1768 363.342 69.0877C362.384 69.9986 361.532 71.0847 360.784 72.3459C360.037 73.6772 359.441 75.2304 358.998 77.0054C358.554 78.7805 358.332 80.2285 358.332 81.3496C358.332 84.0122 359.219 85.9274 360.994 87.0952C362.116 87.8893 363.494 88.2864 365.129 88.2864C367.254 88.2864 369.146 87.4923 370.804 85.9041C372.462 84.3159 373.56 82.5875 374.097 80.719C374.191 80.4154 374.261 80.2402 374.307 80.1935C374.354 80.1468 374.541 80.1234 374.868 80.1234C375.335 80.1234 375.569 80.2285 375.569 80.4388C375.569 80.5555 375.557 80.6606 375.534 80.7541C374.856 83.2532 373.408 85.4019 371.189 87.2003C368.971 88.9987 366.588 89.8979 364.042 89.8979C361.403 89.8979 359.173 89.0221 357.351 87.2704C355.529 85.5187 354.618 83.1948 354.618 80.2986Z" fill="white"/>
</g>
</g>
<g id="Group_7">
<g id="Frame" clip-path="url(#clip0)">
<path id="Vector_4" d="M296.583 61.6164V60.477H382.665V61.6164H296.583Z" fill="white"/>
</g>
</g>
</g>
<g id="Group_8">
<path id="Vector_5" d="M391.187 76.9704C391.187 76.6667 391.35 76.4332 391.677 76.2697H413.994C414.344 76.4565 414.519 76.6901 414.519 76.9704C414.519 77.2273 414.356 77.4492 414.029 77.636L402.888 77.671H391.747C391.374 77.5543 391.187 77.3207 391.187 76.9704ZM391.187 83.767C391.187 83.4166 391.374 83.1831 391.747 83.0663H414.029C414.356 83.2998 414.519 83.5334 414.519 83.767C414.519 84.0706 414.344 84.3042 413.994 84.4677H391.677C391.35 84.3042 391.187 84.0706 391.187 83.767Z" fill="white"/>
</g>
<g id="Group_9">
<path id="Vector_6" d="M433.501 86.5346C433.501 87.0951 434.038 87.4221 435.112 87.5155C435.533 87.5155 435.743 87.644 435.743 87.9009C435.743 87.9242 435.72 88.0761 435.673 88.3563C435.603 88.6833 435.533 88.8935 435.463 88.9869C435.393 89.0804 435.241 89.1271 435.007 89.1271C434.96 89.1271 434.82 89.1271 434.587 89.1271C434.353 89.1271 433.956 89.1154 433.396 89.092C432.835 89.0687 432.088 89.057 431.153 89.057C429.495 89.057 428.432 89.0804 427.965 89.1271H427.685C427.522 88.9636 427.44 88.8351 427.44 88.7417C427.487 88.1111 427.638 87.7024 427.895 87.5155H428.386C430.021 87.4454 431.212 86.8615 431.959 85.7638C432.099 85.6237 434.213 82.0619 438.3 75.0784C442.388 68.095 444.466 64.5565 444.536 64.4631C444.7 64.1828 444.98 64.0427 445.377 64.0427H445.658H446.253C446.393 64.2529 446.463 64.3697 446.463 64.393L447.444 75.709C448.098 83.253 448.449 87.0601 448.495 87.1301C448.612 87.3871 449.371 87.5155 450.773 87.5155C451.356 87.5155 451.648 87.6323 451.648 87.8658C451.648 87.9126 451.613 88.0761 451.543 88.3563C451.473 88.7067 451.415 88.9169 451.368 88.9869C451.321 89.057 451.158 89.1037 450.878 89.1271C450.808 89.1271 450.644 89.1271 450.387 89.1271C450.13 89.1271 449.675 89.1154 449.021 89.092C448.367 89.0687 447.514 89.057 446.463 89.057C444.268 89.057 442.831 89.0804 442.154 89.1271H441.734C441.594 88.9869 441.524 88.8818 441.524 88.8118C441.524 88.7417 441.547 88.5315 441.594 88.1812C441.687 87.8775 441.757 87.6907 441.804 87.6206L441.944 87.5155H442.645C443.906 87.4454 444.653 87.2469 444.887 86.9199L444.466 81.6648H436.128L434.937 83.6968C433.98 85.3084 433.501 86.2543 433.501 86.5346ZM444.291 80.0182C444.291 79.7613 444.151 77.9395 443.871 74.5529C443.591 71.1663 443.427 69.4613 443.38 69.4379L442.434 70.9444C442.061 71.575 441.325 72.8246 440.227 74.693L437.074 80.0182L440.683 80.0533C443.088 80.0533 444.291 80.0416 444.291 80.0182Z" fill="white"/>
</g>
<g id="Group_10">
<path id="Vector_7" d="M455.222 65.9697C455.222 65.4792 455.432 65.0354 455.853 64.6384C456.273 64.2413 456.763 64.0428 457.324 64.0428C457.885 64.0428 458.375 64.2297 458.795 64.6034C459.216 64.9771 459.438 65.4325 459.461 65.9697C459.461 66.1332 459.227 68.8074 458.76 73.9925C458.293 79.1775 458.048 81.8168 458.025 81.9102C457.978 82.097 457.756 82.1905 457.359 82.1905C456.939 82.1905 456.705 82.097 456.658 81.9102C456.635 81.8401 456.39 79.2126 455.923 74.0275C455.455 68.8425 455.222 66.1565 455.222 65.9697ZM455.257 86.9901C455.257 86.3362 455.467 85.8223 455.888 85.4486C456.308 85.0749 456.822 84.8881 457.429 84.8881C457.966 84.9348 458.433 85.1333 458.83 85.4837C459.227 85.834 459.426 86.3362 459.426 86.9901C459.426 87.6908 459.227 88.2163 458.83 88.5667C458.433 88.917 457.943 89.0922 457.359 89.0922C456.775 89.0922 456.285 88.917 455.888 88.5667C455.491 88.2163 455.28 87.6908 455.257 86.9901Z" fill="white"/>
</g>
<g id="Group_11">
<path id="Vector_8" d="M471.975 80.8241C471.975 80.8241 471.975 80.6723 471.975 80.3687C471.975 80.0651 472.139 79.8315 472.466 79.668H482.941V74.4129L482.976 69.1578C483.209 68.8542 483.431 68.7023 483.641 68.7023C483.945 68.7023 484.179 68.8775 484.342 69.2279V79.668H494.782C495.133 79.8549 495.308 80.0884 495.308 80.3687C495.308 80.649 495.133 80.8825 494.782 81.0694H484.342V91.5095C484.155 91.8365 483.945 92 483.712 92H483.641H483.571C483.291 92 483.081 91.8365 482.941 91.5095V81.0694H472.466C472.139 80.9059 471.975 80.6723 471.975 80.3687V80.8241Z" fill="white"/>
</g>
<g id="Group_12">
<path id="Vector_9" d="M513.147 66.8104C512.517 66.8104 512.143 66.7987 512.026 66.7753C511.91 66.752 511.851 66.6235 511.851 66.39C511.851 65.7594 511.98 65.374 512.237 65.2338C512.26 65.2105 513.778 65.1988 516.791 65.1988C522.84 65.1988 526.028 65.2222 526.355 65.2689C527.827 65.5024 529.053 66.028 530.034 66.8454C531.015 67.6629 531.517 68.7373 531.54 70.0685C531.54 71.5633 530.863 72.9063 529.508 74.0975C528.154 75.2886 526.601 76.0944 524.849 76.5148L524.498 76.6199C525.993 76.8301 527.219 77.3673 528.177 78.2315C529.135 79.0957 529.625 80.17 529.648 81.4546C529.648 83.1596 528.808 84.8062 527.126 86.3944C525.444 87.9826 523.377 88.8818 520.925 89.092C520.762 89.1154 518.297 89.1271 513.533 89.1271C508.862 89.1271 506.491 89.1037 506.421 89.057C506.327 88.9869 506.281 88.8935 506.281 88.7767C506.281 88.6132 506.304 88.4498 506.351 88.2863C506.468 87.8425 506.584 87.5973 506.701 87.5505C506.795 87.5272 506.97 87.5155 507.227 87.5155H507.437C508.067 87.5155 508.768 87.4805 509.539 87.4104C509.866 87.3403 510.088 87.2002 510.205 86.99C510.275 86.8966 511.115 83.6501 512.727 77.2505C514.339 70.851 515.144 67.476 515.144 67.1257C515.144 66.9622 514.479 66.8571 513.147 66.8104ZM527.792 70.0685C527.792 69.3679 527.617 68.7139 527.266 68.1066C526.916 67.4994 526.344 67.1023 525.549 66.9155C525.386 66.8688 524.312 66.8337 522.326 66.8104C521.859 66.8104 521.369 66.8104 520.855 66.8104C520.341 66.8104 519.932 66.8221 519.629 66.8454H519.173C518.823 66.8688 518.601 66.9855 518.508 67.1958C518.461 67.2892 518.087 68.6905 517.387 71.3998C517.387 71.4699 517.375 71.54 517.352 71.61L516.265 76.0243H519.103C520.995 76.0243 522.081 76.001 522.361 75.9543C523.763 75.7207 525.012 75.0434 526.11 73.9223C527.208 72.8012 527.768 71.5166 527.792 70.0685ZM525.9 81.1043C525.9 80.0766 525.631 79.2241 525.094 78.5468C524.557 77.8695 523.856 77.4724 522.992 77.3556C522.852 77.3323 521.883 77.3206 520.084 77.3206C517.328 77.3206 515.938 77.3323 515.915 77.3556C515.915 77.4023 515.717 78.2548 515.32 79.9131C514.922 81.5714 514.514 83.218 514.093 84.8529L513.463 87.3053C513.463 87.3987 513.603 87.4454 513.883 87.4454C514.163 87.4454 515.109 87.4688 516.721 87.5155C518.8 87.5155 519.921 87.5038 520.084 87.4805C521.532 87.317 522.864 86.6397 524.078 85.4485C525.293 84.2573 525.9 82.8093 525.9 81.1043Z" fill="white"/>
</g>
<g id="Group_13">
<path id="Vector_10" d="M534.378 65.9697C534.378 65.4792 534.588 65.0354 535.009 64.6384C535.429 64.2413 535.919 64.0428 536.48 64.0428C537.041 64.0428 537.531 64.2297 537.951 64.6034C538.372 64.9771 538.594 65.4325 538.617 65.9697C538.617 66.1332 538.383 68.8074 537.916 73.9925C537.449 79.1775 537.204 81.8168 537.181 81.9102C537.134 82.097 536.912 82.1905 536.515 82.1905C536.095 82.1905 535.861 82.097 535.814 81.9102C535.791 81.8401 535.546 79.2126 535.079 74.0275C534.611 68.8425 534.378 66.1565 534.378 65.9697ZM534.413 86.9901C534.413 86.3362 534.623 85.8223 535.044 85.4486C535.464 85.0749 535.978 84.8881 536.585 84.8881C537.122 84.9348 537.589 85.1333 537.986 85.4837C538.383 85.834 538.582 86.3362 538.582 86.9901C538.582 87.6908 538.383 88.2163 537.986 88.5667C537.589 88.917 537.099 89.0922 536.515 89.0922C535.931 89.0922 535.441 88.917 535.044 88.5667C534.647 88.2163 534.436 87.6908 534.413 86.9901Z" fill="white"/>
</g>
<g id="Group_14">
<path id="Vector_11" d="M551.131 80.8241C551.131 80.8241 551.131 80.6723 551.131 80.3687C551.131 80.0651 551.295 79.8315 551.622 79.668H562.097V74.4129L562.132 69.1578C562.365 68.8542 562.587 68.7023 562.797 68.7023C563.101 68.7023 563.335 68.8775 563.498 69.2279V79.668H573.938C574.289 79.8549 574.464 80.0884 574.464 80.3687C574.464 80.649 574.289 80.8825 573.938 81.0694H563.498V91.5095C563.311 91.8365 563.101 92 562.868 92H562.797H562.727C562.447 92 562.237 91.8365 562.097 91.5095V81.0694H551.622C551.295 80.9059 551.131 80.6723 551.131 80.3687V80.8241Z" fill="white"/>
</g>
<g id="Group_15">
<path id="Vector_12" d="M585.962 80.2986C585.962 77.6127 586.744 75.0318 588.309 72.5561C589.874 70.0803 591.848 68.1184 594.23 66.6704C596.612 65.2223 598.995 64.4866 601.377 64.4632C603.479 64.4632 605.149 65.0588 606.387 66.25C606.597 66.4835 606.772 66.682 606.912 66.8455C607.052 67.009 607.146 67.1258 607.193 67.1959L607.228 67.301C607.298 67.301 607.613 66.9973 608.174 66.3901C608.337 66.25 608.512 66.0865 608.699 65.8996C608.886 65.7128 609.073 65.5259 609.26 65.3391C609.446 65.1522 609.563 65.0238 609.61 64.9537L610.135 64.4282H610.346C610.673 64.4282 610.836 64.5099 610.836 64.6734C610.836 64.7668 610.462 66.3667 609.715 69.4731C608.874 72.7196 608.454 74.3545 608.454 74.3779C608.407 74.4946 608.349 74.5647 608.279 74.5881C608.209 74.6114 607.998 74.6348 607.648 74.6581H607.087C606.947 74.518 606.877 74.4129 606.877 74.3428C606.877 74.3195 606.889 74.2377 606.912 74.0976C606.936 73.9575 606.959 73.7239 606.982 73.3969C607.006 73.0699 607.017 72.6962 607.017 72.2758C607.017 70.6175 606.644 69.1695 605.896 67.9316C605.149 66.6937 603.876 66.0631 602.078 66.0398C601.47 66.0398 600.816 66.1215 600.116 66.285C599.415 66.4485 598.574 66.7288 597.593 67.1258C596.612 67.5229 595.643 68.1768 594.685 69.0877C593.728 69.9986 592.875 71.0847 592.128 72.3459C591.381 73.6772 590.785 75.2304 590.341 77.0054C589.897 78.7805 589.676 80.2285 589.676 81.3496C589.676 84.0122 590.563 85.9274 592.338 87.0952C593.459 87.8893 594.837 88.2864 596.472 88.2864C598.598 88.2864 600.489 87.4923 602.148 85.9041C603.806 84.3159 604.904 82.5875 605.441 80.719C605.534 80.4154 605.604 80.2402 605.651 80.1935C605.698 80.1468 605.885 80.1234 606.212 80.1234C606.679 80.1234 606.912 80.2285 606.912 80.4388C606.912 80.5555 606.901 80.6606 606.877 80.7541C606.2 83.2532 604.752 85.4019 602.533 87.2003C600.314 88.9987 597.932 89.8979 595.386 89.8979C592.747 89.8979 590.516 89.0221 588.695 87.2704C586.873 85.5187 585.962 83.1948 585.962 80.2986Z" fill="white"/>
</g>
<g id="Group_16">
<path id="Vector_13" d="M613.569 65.9697C613.569 65.4792 613.779 65.0354 614.199 64.6384C614.62 64.2413 615.11 64.0428 615.671 64.0428C616.231 64.0428 616.722 64.2297 617.142 64.6034C617.563 64.9771 617.784 65.4325 617.808 65.9697C617.808 66.1332 617.574 68.8074 617.107 73.9925C616.64 79.1775 616.395 81.8168 616.371 81.9102C616.325 82.097 616.103 82.1905 615.706 82.1905C615.285 82.1905 615.052 82.097 615.005 81.9102C614.982 81.8401 614.737 79.2126 614.269 74.0275C613.802 68.8425 613.569 66.1565 613.569 65.9697ZM613.604 86.9901C613.604 86.3362 613.814 85.8223 614.234 85.4486C614.655 85.0749 615.169 84.8881 615.776 84.8881C616.313 84.9348 616.78 85.1333 617.177 85.4837C617.574 85.834 617.773 86.3362 617.773 86.9901C617.773 87.6908 617.574 88.2163 617.177 88.5667C616.78 88.917 616.29 89.0922 615.706 89.0922C615.122 89.0922 614.631 88.917 614.234 88.5667C613.837 88.2163 613.627 87.6908 613.604 86.9901Z" fill="white"/>
</g>
</g>
</g>
</g>
</g>
<defs>
<clipPath id="clip0">
<rect width="79.4815" height="6.09319" fill="white" transform="matrix(1 0 0 -1 300 64.0933)"/>
</clipPath>
</defs>
</svg>
