<svg viewBox="0 0 1080 150" fill="none" xmlns="http://www.w3.org/2000/svg">
<g id="01140021">
<g id="Frame 1">
<g id="Tiempo y Cronometr&#195;&#173;a">
<path d="M200.696 89.696H194.36V46.432H186.232C184.227 46.432 182.733 46.88 181.752 47.776C180.771 48.6293 180.28 49.6533 180.28 50.848C180.28 52 180.579 52.96 181.176 53.728C181.773 54.496 182.563 54.88 183.544 54.88C184.568 54.88 185.315 54.6453 185.784 54.176C186.253 53.7067 186.616 53.2587 186.872 52.832C187.128 52.3627 187.384 52.128 187.64 52.128C187.896 52.128 188.024 52.448 188.024 53.088C188.024 53.728 187.533 54.4107 186.552 55.136C185.613 55.8187 184.504 56.16 183.224 56.16C181.944 56.16 180.92 55.6693 180.152 54.688C179.384 53.7067 179 52.4907 179 51.04C179 49.5467 179.619 48.2027 180.856 47.008C182.136 45.7707 183.949 45.152 186.296 45.152H213.496V46.432H200.696V89.696Z" fill="#2AF808"/>
<path d="M223.626 60.128V89.76H217.226V60.128H223.626ZM217.994 54.112C217.354 53.4293 217.034 52.6187 217.034 51.68C217.034 50.7413 217.354 49.952 217.994 49.312C218.677 48.6293 219.487 48.288 220.426 48.288C221.365 48.288 222.154 48.6293 222.794 49.312C223.477 49.952 223.818 50.7413 223.818 51.68C223.818 52.6187 223.477 53.4293 222.794 54.112C222.154 54.752 221.365 55.072 220.426 55.072C219.487 55.072 218.677 54.752 217.994 54.112Z" fill="#2AF808"/>
<path d="M243.244 87.456C243.842 87.8827 244.589 88.2453 245.485 88.544C246.423 88.8427 247.554 88.992 248.877 88.992C250.199 88.992 251.607 88.6933 253.101 88.096C254.594 87.456 255.639 86.5173 256.237 85.28H258.093C256.429 88.6507 252.93 90.336 247.597 90.336C243.501 90.336 240.023 88.8853 237.165 85.984C234.349 83.04 232.941 79.3707 232.941 74.976C232.941 70.5387 234.434 66.848 237.421 63.904C240.407 60.9173 243.65 59.424 247.149 59.424C250.69 59.424 253.463 60.4053 255.468 62.368C257.516 64.288 258.541 66.5707 258.541 69.216C258.541 71.8613 257.453 74.208 255.277 76.256C253.101 78.304 250.242 79.328 246.701 79.328C243.159 79.328 240.685 77.8133 239.277 74.784C239.319 75.0827 239.362 75.7227 239.405 76.704C239.49 77.6853 239.554 78.4533 239.597 79.008C239.639 79.5627 239.746 80.3307 239.917 81.312C240.13 82.2933 240.343 83.0827 240.557 83.68C240.813 84.2773 241.175 84.96 241.645 85.728C242.114 86.4533 242.647 87.0293 243.244 87.456ZM253.037 68.896C253.037 63.392 250.946 60.64 246.765 60.64C244.717 60.64 243.031 61.6427 241.709 63.648C240.429 65.6107 239.703 68 239.533 70.816C240.045 69.6213 240.813 68.6613 241.837 67.936C242.903 67.2107 243.991 66.848 245.101 66.848C246.253 66.848 246.828 67.0613 246.828 67.488C246.828 67.872 246.573 68.064 246.061 68.064C244.098 68.192 242.647 68.6827 241.709 69.536C240.813 70.3893 240.365 71.5413 240.365 72.992C240.365 74.4427 240.877 75.68 241.901 76.704C242.967 77.6853 244.205 78.176 245.613 78.176C247.917 78.176 249.73 77.2587 251.053 75.424C252.375 73.5467 253.037 71.3707 253.037 68.896Z" fill="#2AF808"/>
<path d="M275.492 69.6C275.492 70.624 275.748 71.6267 276.26 72.608C276.815 73.5467 277.561 74.016 278.5 74.016C279.481 74.016 280.228 73.9093 280.74 73.696C281.295 73.44 281.615 73.312 281.7 73.312C281.956 73.312 282.084 73.4827 282.084 73.824C282.084 74.1653 281.828 74.5067 281.316 74.848C280.847 75.1467 279.972 75.296 278.692 75.296C277.455 75.296 276.431 74.784 275.62 73.76C274.809 72.736 274.34 71.6053 274.212 70.368V89.696H267.876V60.064H274.212V69.408C274.383 66.72 275.705 64.3947 278.18 62.432C280.655 60.4267 283.236 59.424 285.924 59.424C288.655 59.424 290.596 60.256 291.748 61.92C292.943 63.5413 293.689 65.888 293.988 68.96C294.159 66.4 295.481 64.1813 297.956 62.304C300.473 60.384 303.055 59.424 305.7 59.424C308.516 59.424 310.585 60.4053 311.908 62.368C313.273 64.288 313.956 68.4053 313.956 74.72V89.696H307.556V76.384C307.556 71.3493 307.279 67.5947 306.724 65.12C306.212 62.6453 305.209 61.408 303.716 61.408C301.839 61.408 299.961 62.2827 298.084 64.032C296.207 65.7813 295.268 67.6373 295.268 69.6C295.268 70.624 295.524 71.6267 296.036 72.608C296.591 73.5467 297.465 74.016 298.66 74.016C299.385 74.016 300.004 73.9093 300.516 73.696C301.071 73.44 301.391 73.312 301.476 73.312C301.732 73.312 301.86 73.4827 301.86 73.824C301.86 74.1653 301.604 74.5067 301.092 74.848C300.623 75.1467 299.791 75.296 298.596 75.296C297.444 75.296 296.463 74.8907 295.652 74.08C294.841 73.2267 294.329 72.1387 294.116 70.816C294.159 71.6267 294.18 72.928 294.18 74.72V89.696H287.78V76.384C287.78 71.3493 287.503 67.5947 286.948 65.12C286.436 62.6453 285.433 61.408 283.94 61.408C282.063 61.408 280.185 62.2827 278.308 64.032C276.431 65.7813 275.492 67.6373 275.492 69.6Z" fill="#2AF808"/>
<path d="M331.413 60.064V63.712C335.211 60.896 338.539 59.488 341.397 59.488C343.915 59.488 346.368 60.512 348.757 62.56C350.037 63.6267 351.083 65.248 351.893 67.424C352.704 69.5573 353.109 72.0747 353.109 74.976C353.109 79.84 351.958 83.616 349.654 86.304C347.392 88.992 344.32 90.336 340.438 90.336C338.048 90.336 336 89.8667 334.294 88.928C332.63 87.9467 331.669 86.5173 331.413 84.64V105.696H325.013V60.064H331.413ZM346.71 74.144C346.71 70.3893 345.942 67.2747 344.406 64.8C342.912 62.2827 341.205 61.024 339.285 61.024C337.365 61.024 334.741 62.4107 331.413 65.184V82.72C331.541 81.6533 331.904 80.7147 332.501 79.904C333.525 78.496 334.507 77.792 335.445 77.792C335.787 77.792 335.957 78.0053 335.957 78.432C335.957 78.6453 335.573 79.008 334.805 79.52C333.355 80.544 332.63 81.8667 332.63 83.488C332.63 85.0667 333.376 86.3893 334.869 87.456C336.405 88.5227 338.005 89.056 339.669 89.056C344.363 89.056 346.71 84.0853 346.71 74.144Z" fill="#2AF808"/>
<path d="M360.603 74.912C360.603 70.56 362.096 66.912 365.083 63.968C368.112 61.024 371.974 59.552 376.667 59.552C381.403 59.552 385.243 60.9387 388.187 63.712C391.131 66.4853 392.603 70.1333 392.603 74.656C392.603 77.344 392.091 79.7333 391.067 81.824C390.043 83.872 388.72 85.472 387.099 86.624C383.771 88.8853 380.294 90.016 376.667 90.016C373.126 90.016 369.67 88.8427 366.299 86.496C364.635 85.344 363.27 83.7653 362.203 81.76C361.136 79.712 360.603 77.4293 360.603 74.912ZM378.843 70.816L376.987 70.432C376.176 70.432 375.472 70.7947 374.875 71.52C374.32 72.2027 374.043 73.0347 374.043 74.016C374.043 74.9547 374.47 75.8933 375.323 76.832C376.176 77.7707 377.371 78.24 378.907 78.24C380.486 78.24 382.022 77.4933 383.515 76C385.051 74.464 385.819 72.3093 385.819 69.536C385.819 66.7627 384.923 64.6293 383.131 63.136C381.382 61.6 379.163 60.832 376.475 60.832C374.768 60.832 373.296 61.1733 372.059 61.856C370.822 62.496 369.883 63.2853 369.243 64.224C368.603 65.1627 368.112 66.3573 367.771 67.808C367.259 69.9413 367.003 72.416 367.003 75.232C367.003 84.2347 370.288 88.736 376.859 88.736C380.742 88.736 383.302 87.264 384.539 84.32C385.606 81.8027 386.139 78.5387 386.139 74.528C385.755 75.6373 384.859 76.7467 383.451 77.856C382.086 78.9653 380.571 79.52 378.907 79.52C377.243 79.52 375.792 78.9653 374.555 77.856C373.36 76.704 372.763 75.424 372.763 74.016C372.763 72.608 373.147 71.456 373.915 70.56C374.683 69.6213 375.771 69.152 377.179 69.152C378.63 69.152 379.355 69.5573 379.355 70.368C379.355 70.6667 379.184 70.816 378.843 70.816Z" fill="#2AF808"/>
<path d="M436.157 89.888C431.976 89.888 428.989 88.3733 427.197 85.344C426.216 83.7227 425.64 82.208 425.469 80.8C425.256 79.0933 425.149 76.5333 425.149 73.12C425.149 69.664 424.957 66.7627 424.573 64.416C424.232 62.0267 423.336 60.832 421.885 60.832C420.093 60.832 418.685 61.5147 417.661 62.88C416.68 64.2027 416.189 65.5467 416.189 66.912C416.189 70.1547 417.426 71.776 419.901 71.776C420.541 71.776 421.138 71.6267 421.693 71.328C422.248 71.0293 422.546 70.88 422.589 70.88C422.888 70.88 423.037 71.136 423.037 71.648C423.037 72.1173 422.61 72.48 421.757 72.736C420.946 72.9493 420.178 73.056 419.453 73.056C418.13 73.056 417.042 72.48 416.189 71.328C415.336 70.1333 414.909 68.8107 414.909 67.36C414.909 65.0133 415.72 63.1147 417.341 61.664C418.962 60.1707 421.138 59.424 423.869 59.424C425.234 59.424 426.386 59.808 427.325 60.576C428.306 61.344 429.032 62.2613 429.501 63.328C430.013 64.352 430.418 65.7173 430.717 67.424C431.058 69.6 431.229 72.7147 431.229 76.768C431.229 80.8213 431.549 83.808 432.189 85.728C432.829 87.648 434.301 88.608 436.605 88.608C440.445 88.608 443.581 86.816 446.013 83.232C448.488 79.6053 449.725 75.424 449.725 70.688C449.725 67.7867 449.192 65.3973 448.125 63.52C447.101 61.6427 445.501 60.704 443.325 60.704C441.832 60.704 440.616 61.2373 439.677 62.304C438.738 63.3707 438.269 64.5653 438.269 65.888C438.269 67.2107 438.568 68.2773 439.165 69.088C439.805 69.856 440.594 70.24 441.533 70.24C441.917 70.24 442.386 70.1547 442.941 69.984C443.538 69.8133 443.88 69.728 443.965 69.728C444.306 69.728 444.477 69.92 444.477 70.304C444.477 71.0293 443.816 71.4347 442.493 71.52H441.789C440.253 71.52 439.058 71.008 438.205 69.984C437.394 68.9173 436.989 67.488 436.989 65.696C436.989 63.904 437.629 62.432 438.909 61.28C440.189 60.0853 441.725 59.488 443.517 59.488C445.309 59.488 446.717 59.8933 447.741 60.704C448.765 61.5147 449.512 62.688 449.981 64.224C450.792 66.8693 451.197 70.2613 451.197 74.4V94.816C451.197 98.272 449.896 100.939 447.293 102.816C444.69 104.736 441.597 105.696 438.013 105.696C434.429 105.696 431.4 104.864 428.925 103.2C426.493 101.579 425.277 99.3387 425.277 96.48C425.277 94.9013 425.533 93.7707 426.045 93.088C426.216 92.832 426.472 92.704 426.813 92.704C427.154 92.704 427.325 92.9173 427.325 93.344C427.325 93.472 427.197 93.792 426.941 94.304C426.685 94.816 426.557 95.52 426.557 96.416C426.557 98.592 427.56 100.448 429.565 101.984C431.57 103.563 433.789 104.352 436.221 104.352C438.653 104.352 440.68 103.413 442.301 101.536C443.965 99.6587 444.797 97.4613 444.797 94.944V87.2C442.493 88.992 439.613 89.888 436.157 89.888Z" fill="#2AF808"/>
<path d="M507.377 84L508.657 83.936C507.761 85.8133 506.353 87.3493 504.433 88.544C502.513 89.7387 500.017 90.336 496.945 90.336C493.873 90.336 490.993 89.632 488.305 88.224C485.617 86.7733 483.505 84.8747 481.969 82.528C478.983 77.92 477.489 72.9067 477.489 67.488C477.489 63.8613 478.193 60.3413 479.601 56.928C481.009 53.472 483.164 50.5493 486.065 48.16C488.967 45.7707 492.295 44.576 496.049 44.576C500.999 44.576 504.817 46.1547 507.505 49.312C508.956 51.0187 509.681 53.024 509.681 55.328C509.681 57.632 509.041 59.36 507.761 60.512C506.524 61.6213 505.201 62.176 503.793 62.176C502.385 62.176 501.127 61.792 500.017 61.024C498.908 60.2133 498.353 59.0827 498.353 57.632C498.353 56.8213 498.609 55.9893 499.121 55.136C499.633 54.2827 500.145 53.856 500.657 53.856C501.169 53.856 501.425 54.0267 501.425 54.368C501.425 54.4107 501.105 54.7307 500.465 55.328C499.868 55.9253 499.569 56.6933 499.569 57.632C499.569 58.528 499.975 59.3173 500.785 60C501.596 60.64 502.577 60.96 503.729 60.96C504.924 60.96 505.991 60.512 506.929 59.616C507.911 58.6773 508.401 57.376 508.401 55.712C508.401 52.8533 507.228 50.5067 504.881 48.672C502.577 46.8373 500.081 45.92 497.393 45.92C494.705 45.92 492.295 47.0507 490.161 49.312C488.028 51.5307 486.449 54.24 485.425 57.44C484.401 60.5973 483.889 63.776 483.889 66.976C483.889 70.176 484.124 73.0347 484.593 75.552C485.105 78.0267 485.895 80.3093 486.961 82.4C488.028 84.4907 489.521 86.1333 491.441 87.328C493.404 88.48 495.495 89.056 497.713 89.056C499.932 89.056 501.937 88.5653 503.729 87.584C505.521 86.56 506.737 85.3653 507.377 84Z" fill="#2AF808"/>
<path d="M539.518 62.496C539.518 62.9653 539.326 63.328 538.942 63.584C538.601 63.84 538.153 63.968 537.598 63.968C537.043 63.968 536.595 63.8187 536.254 63.52C535.913 63.1787 535.678 62.816 535.55 62.432C535.465 62.048 535.209 61.7067 534.782 61.408C534.355 61.0667 533.758 60.896 532.99 60.896C531.113 60.896 529.363 62.2613 527.742 64.992C526.121 67.7227 525.182 70.816 524.926 74.272V89.696H518.526V60.064H524.926V67.616C525.95 65.1413 527.273 63.0933 528.894 61.472C530.558 59.808 532.222 58.976 533.886 58.976C535.55 58.976 536.894 59.2747 537.918 59.872C538.985 60.4267 539.518 61.3013 539.518 62.496Z" fill="#2AF808"/>
<path d="M543.178 74.912C543.178 70.56 544.671 66.912 547.658 63.968C550.687 61.024 554.549 59.552 559.242 59.552C563.978 59.552 567.818 60.9387 570.762 63.712C573.706 66.4853 575.178 70.1333 575.178 74.656C575.178 77.344 574.666 79.7333 573.642 81.824C572.618 83.872 571.295 85.472 569.674 86.624C566.346 88.8853 562.869 90.016 559.242 90.016C555.701 90.016 552.245 88.8427 548.874 86.496C547.21 85.344 545.845 83.7653 544.778 81.76C543.711 79.712 543.178 77.4293 543.178 74.912ZM561.418 70.816L559.562 70.432C558.751 70.432 558.047 70.7947 557.45 71.52C556.895 72.2027 556.618 73.0347 556.618 74.016C556.618 74.9547 557.045 75.8933 557.898 76.832C558.751 77.7707 559.946 78.24 561.482 78.24C563.061 78.24 564.597 77.4933 566.09 76C567.626 74.464 568.394 72.3093 568.394 69.536C568.394 66.7627 567.498 64.6293 565.706 63.136C563.957 61.6 561.738 60.832 559.05 60.832C557.343 60.832 555.871 61.1733 554.634 61.856C553.397 62.496 552.458 63.2853 551.818 64.224C551.178 65.1627 550.687 66.3573 550.346 67.808C549.834 69.9413 549.578 72.416 549.578 75.232C549.578 84.2347 552.863 88.736 559.434 88.736C563.317 88.736 565.877 87.264 567.114 84.32C568.181 81.8027 568.714 78.5387 568.714 74.528C568.33 75.6373 567.434 76.7467 566.026 77.856C564.661 78.9653 563.146 79.52 561.482 79.52C559.818 79.52 558.367 78.9653 557.13 77.856C555.935 76.704 555.338 75.424 555.338 74.016C555.338 72.608 555.722 71.456 556.49 70.56C557.258 69.6213 558.346 69.152 559.754 69.152C561.205 69.152 561.93 69.5573 561.93 70.368C561.93 70.6667 561.759 70.816 561.418 70.816Z" fill="#2AF808"/>
<path d="M592.229 69.6C592.229 70.624 592.485 71.6267 592.997 72.608C593.552 73.5467 594.299 74.016 595.237 74.016C596.219 74.016 596.965 73.9093 597.477 73.696C598.032 73.44 598.352 73.312 598.438 73.312C598.694 73.312 598.822 73.4827 598.822 73.824C598.822 74.1653 598.565 74.5067 598.053 74.848C597.584 75.1467 596.709 75.296 595.429 75.296C594.192 75.296 593.168 74.784 592.357 73.76C591.547 72.736 591.077 71.6053 590.949 70.368V89.696H584.613V60.064H590.949V69.408C591.12 66.72 592.443 64.3947 594.917 62.432C597.392 60.4267 599.973 59.424 602.661 59.424C605.477 59.424 607.547 60.4053 608.869 62.368C610.235 64.288 610.917 68.4053 610.917 74.72V89.696H604.517V76.384C604.517 71.3493 604.24 67.5947 603.685 65.12C603.173 62.6453 602.171 61.408 600.677 61.408C598.8 61.408 596.923 62.2827 595.046 64.032C593.168 65.7813 592.229 67.6373 592.229 69.6Z" fill="#2AF808"/>
<path d="M619.953 74.912C619.953 70.56 621.446 66.912 624.433 63.968C627.462 61.024 631.324 59.552 636.017 59.552C640.753 59.552 644.593 60.9387 647.537 63.712C650.481 66.4853 651.953 70.1333 651.953 74.656C651.953 77.344 651.441 79.7333 650.417 81.824C649.393 83.872 648.07 85.472 646.449 86.624C643.121 88.8853 639.644 90.016 636.017 90.016C632.476 90.016 629.02 88.8427 625.649 86.496C623.985 85.344 622.62 83.7653 621.553 81.76C620.486 79.712 619.953 77.4293 619.953 74.912ZM638.193 70.816L636.337 70.432C635.526 70.432 634.822 70.7947 634.225 71.52C633.67 72.2027 633.393 73.0347 633.393 74.016C633.393 74.9547 633.82 75.8933 634.673 76.832C635.526 77.7707 636.721 78.24 638.257 78.24C639.836 78.24 641.372 77.4933 642.865 76C644.401 74.464 645.169 72.3093 645.169 69.536C645.169 66.7627 644.273 64.6293 642.481 63.136C640.732 61.6 638.513 60.832 635.825 60.832C634.118 60.832 632.646 61.1733 631.409 61.856C630.172 62.496 629.233 63.2853 628.593 64.224C627.953 65.1627 627.462 66.3573 627.121 67.808C626.609 69.9413 626.353 72.416 626.353 75.232C626.353 84.2347 629.638 88.736 636.209 88.736C640.092 88.736 642.652 87.264 643.889 84.32C644.956 81.8027 645.489 78.5387 645.489 74.528C645.105 75.6373 644.209 76.7467 642.801 77.856C641.436 78.9653 639.921 79.52 638.257 79.52C636.593 79.52 635.142 78.9653 633.905 77.856C632.71 76.704 632.113 75.424 632.113 74.016C632.113 72.608 632.497 71.456 633.265 70.56C634.033 69.6213 635.121 69.152 636.529 69.152C637.98 69.152 638.705 69.5573 638.705 70.368C638.705 70.6667 638.534 70.816 638.193 70.816Z" fill="#2AF808"/>
<path d="M669.004 69.6C669.004 70.624 669.26 71.6267 669.772 72.608C670.327 73.5467 671.074 74.016 672.012 74.016C672.994 74.016 673.74 73.9093 674.252 73.696C674.807 73.44 675.127 73.312 675.212 73.312C675.468 73.312 675.596 73.4827 675.596 73.824C675.596 74.1653 675.34 74.5067 674.828 74.848C674.359 75.1467 673.484 75.296 672.204 75.296C670.967 75.296 669.943 74.784 669.132 73.76C668.322 72.736 667.852 71.6053 667.724 70.368V89.696H661.388V60.064H667.724V69.408C667.895 66.72 669.218 64.3947 671.692 62.432C674.167 60.4267 676.748 59.424 679.436 59.424C682.167 59.424 684.108 60.256 685.26 61.92C686.455 63.5413 687.202 65.888 687.5 68.96C687.671 66.4 688.994 64.1813 691.469 62.304C693.986 60.384 696.567 59.424 699.213 59.424C702.029 59.424 704.098 60.4053 705.421 62.368C706.786 64.288 707.469 68.4053 707.469 74.72V89.696H701.069V76.384C701.069 71.3493 700.791 67.5947 700.237 65.12C699.725 62.6453 698.722 61.408 697.229 61.408C695.351 61.408 693.474 62.2827 691.596 64.032C689.719 65.7813 688.78 67.6373 688.78 69.6C688.78 70.624 689.036 71.6267 689.548 72.608C690.103 73.5467 690.978 74.016 692.172 74.016C692.898 74.016 693.517 73.9093 694.029 73.696C694.583 73.44 694.903 73.312 694.989 73.312C695.245 73.312 695.372 73.4827 695.372 73.824C695.372 74.1653 695.116 74.5067 694.604 74.848C694.135 75.1467 693.303 75.296 692.109 75.296C690.957 75.296 689.975 74.8907 689.164 74.08C688.354 73.2267 687.842 72.1387 687.628 70.816C687.671 71.6267 687.692 72.928 687.692 74.72V89.696H681.292V76.384C681.292 71.3493 681.015 67.5947 680.46 65.12C679.948 62.6453 678.946 61.408 677.452 61.408C675.575 61.408 673.698 62.2827 671.82 64.032C669.943 65.7813 669.004 67.6373 669.004 69.6Z" fill="#2AF808"/>
<path d="M726.782 87.456C727.379 87.8827 728.126 88.2453 729.022 88.544C729.961 88.8427 731.091 88.992 732.414 88.992C733.737 88.992 735.145 88.6933 736.638 88.096C738.131 87.456 739.177 86.5173 739.774 85.28H741.63C739.966 88.6507 736.467 90.336 731.134 90.336C727.038 90.336 723.561 88.8853 720.702 85.984C717.886 83.04 716.478 79.3707 716.478 74.976C716.478 70.5387 717.971 66.848 720.958 63.904C723.945 60.9173 727.187 59.424 730.686 59.424C734.227 59.424 737.001 60.4053 739.006 62.368C741.054 64.288 742.078 66.5707 742.078 69.216C742.078 71.8613 740.99 74.208 738.814 76.256C736.638 78.304 733.779 79.328 730.238 79.328C726.697 79.328 724.222 77.8133 722.814 74.784C722.857 75.0827 722.899 75.7227 722.942 76.704C723.027 77.6853 723.091 78.4533 723.134 79.008C723.177 79.5627 723.283 80.3307 723.454 81.312C723.667 82.2933 723.881 83.0827 724.094 83.68C724.35 84.2773 724.713 84.96 725.182 85.728C725.651 86.4533 726.185 87.0293 726.782 87.456ZM736.574 68.896C736.574 63.392 734.483 60.64 730.302 60.64C728.254 60.64 726.569 61.6427 725.246 63.648C723.966 65.6107 723.241 68 723.07 70.816C723.582 69.6213 724.35 68.6613 725.374 67.936C726.441 67.2107 727.529 66.848 728.638 66.848C729.79 66.848 730.366 67.0613 730.366 67.488C730.366 67.872 730.11 68.064 729.598 68.064C727.635 68.192 726.185 68.6827 725.246 69.536C724.35 70.3893 723.902 71.5413 723.902 72.992C723.902 74.4427 724.414 75.68 725.438 76.704C726.505 77.6853 727.742 78.176 729.15 78.176C731.454 78.176 733.267 77.2587 734.59 75.424C735.913 73.5467 736.574 71.3707 736.574 68.896Z" fill="#2AF808"/>
<path d="M747.318 61.344V60.064H753.206V51.296H759.606V60.064H766.326V61.344H759.606V81.12C759.606 86.4107 760.758 89.056 763.062 89.056C763.958 89.056 764.79 88.7787 765.558 88.224C766.326 87.6267 766.923 87.0507 767.35 86.496C767.776 85.8987 768.075 85.6 768.246 85.6C768.416 85.6 768.502 85.7067 768.502 85.92C768.502 86.0907 768.438 86.304 768.31 86.56C767.03 89.0773 764.683 90.336 761.27 90.336C758.539 90.336 756.512 89.2907 755.19 87.2C753.867 85.1093 753.206 82.3147 753.206 78.816V61.344H747.318Z" fill="#2AF808"/>
<path d="M797.043 62.496C797.043 62.9653 796.851 63.328 796.467 63.584C796.126 63.84 795.678 63.968 795.123 63.968C794.568 63.968 794.12 63.8187 793.779 63.52C793.438 63.1787 793.203 62.816 793.075 62.432C792.99 62.048 792.734 61.7067 792.307 61.408C791.88 61.0667 791.283 60.896 790.515 60.896C788.638 60.896 786.888 62.2613 785.267 64.992C783.646 67.7227 782.707 70.816 782.451 74.272V89.696H776.051V60.064H782.451V67.616C783.475 65.1413 784.798 63.0933 786.419 61.472C788.083 59.808 789.747 58.976 791.411 58.976C793.075 58.976 794.419 59.2747 795.443 59.872C796.51 60.4267 797.043 61.3013 797.043 62.496Z" fill="#2AF808"/>
<path d="M810.338 60.128V89.76H803.938V60.128H810.338ZM816.29 44L808.994 51.68H805.858L809.89 44H816.29Z" fill="#2AF808"/>
<path d="M830.789 90.336C827.717 90.336 824.986 89.4827 822.597 87.776C820.25 86.0267 819.077 83.616 819.077 80.544C819.077 78.752 819.504 77.1947 820.357 75.872C821.253 74.5493 822.384 73.568 823.749 72.928C826.266 71.648 828.72 71.008 831.109 71.008C833.498 71.008 836.208 71.648 839.237 72.928C839.194 67.9787 838.576 64.6933 837.381 63.072C836.229 61.408 834.437 60.576 832.005 60.576C829.573 60.576 827.461 61.024 825.669 61.92C823.92 62.816 823.045 64.0107 823.045 65.504C823.045 66.016 822.81 66.272 822.341 66.272C821.914 66.272 821.701 66.0373 821.701 65.568C821.701 63.776 822.682 62.304 824.645 61.152C826.65 59.9573 829.594 59.36 833.477 59.36C841.584 59.36 845.637 64.1387 845.637 73.696V89.696H839.237V84.64C838.938 86.304 837.978 87.6693 836.357 88.736C834.736 89.8027 832.88 90.336 830.789 90.336ZM836.421 78.368C837.957 79.4347 838.896 80.9067 839.237 82.784V74.08C836.165 72.8427 833.648 72.224 831.685 72.224C829.765 72.224 828.25 73.0347 827.141 74.656C826.032 76.2773 825.477 78.2613 825.477 80.608C825.477 82.9547 825.925 84.96 826.821 86.624C827.76 88.2453 829.146 89.056 830.981 89.056C832.858 89.056 834.501 88.5867 835.909 87.648C837.317 86.6667 838.021 85.5147 838.021 84.192C838.021 81.888 837.253 80.3093 835.717 79.456C835.077 79.072 834.757 78.7093 834.757 78.368C834.757 78.0267 834.906 77.856 835.205 77.856C835.504 77.856 835.909 78.0267 836.421 78.368Z" fill="#2AF808"/>
</g>
<path d="M161.5 26.5H845.637C855.302 26.5 863.137 34.335 863.137 44V123.196H179C169.335 123.196 161.5 115.361 161.5 105.696V26.5Z" stroke="#2AF808" stroke-opacity="0.8" stroke-width="5"/>
</g>
</g>
</svg>
