<svg viewBox="0 0 695 207" fill="none" xmlns="http://www.w3.org/2000/svg">
<path d="M192.156 30H188.387V16.8555H174.051V30H170.301V1.5625H174.051V13.7891H188.387V1.5625H192.156V30Z" fill="white"/>
<path d="M197.293 19.2383C197.293 17.168 197.697 15.306 198.504 13.6523C199.324 11.9987 200.457 10.7227 201.902 9.82422C203.361 8.92578 205.021 8.47656 206.883 8.47656C209.76 8.47656 212.085 9.47266 213.855 11.4648C215.639 13.457 216.531 16.1068 216.531 19.4141V19.668C216.531 21.7253 216.134 23.5742 215.34 25.2148C214.559 26.8424 213.432 28.112 211.961 29.0234C210.503 29.9349 208.823 30.3906 206.922 30.3906C204.057 30.3906 201.733 29.3945 199.949 27.4023C198.178 25.4102 197.293 22.7734 197.293 19.4922V19.2383ZM200.926 19.668C200.926 22.0117 201.466 23.8932 202.547 25.3125C203.641 26.7318 205.099 27.4414 206.922 27.4414C208.758 27.4414 210.216 26.7253 211.297 25.293C212.378 23.8477 212.918 21.8294 212.918 19.2383C212.918 16.9206 212.365 15.0456 211.258 13.6133C210.164 12.168 208.706 11.4453 206.883 11.4453C205.099 11.4453 203.66 12.1549 202.566 13.5742C201.473 14.9935 200.926 17.0247 200.926 19.668Z" fill="white"/>
<path d="M227.664 24.707L232.586 8.86719H236.453L227.957 33.2617C226.642 36.7773 224.552 38.5352 221.688 38.5352L221.004 38.4766L219.656 38.2227V35.293L220.633 35.3711C221.857 35.3711 222.807 35.1237 223.484 34.6289C224.174 34.1341 224.741 33.2292 225.184 31.9141L225.984 29.7656L218.445 8.86719H222.391L227.664 24.707Z" fill="white"/>
<path d="M266.141 14.1016H249.852V10.957H266.141V14.1016ZM266.141 22.207H249.852V19.082H266.141V22.207Z" fill="white"/>
<path d="M286.902 1.5625L296.199 24.7656L305.496 1.5625H310.359V30H306.609V18.9258L306.961 6.97266L297.625 30H294.754L285.438 7.03125L285.809 18.9258V30H282.059V1.5625H286.902Z" fill="white"/>
<path d="M320.34 30H316.727V8.86719H320.34V30ZM316.434 3.26172C316.434 2.67578 316.609 2.18099 316.961 1.77734C317.326 1.3737 317.859 1.17188 318.562 1.17188C319.266 1.17188 319.799 1.3737 320.164 1.77734C320.529 2.18099 320.711 2.67578 320.711 3.26172C320.711 3.84766 320.529 4.33594 320.164 4.72656C319.799 5.11719 319.266 5.3125 318.562 5.3125C317.859 5.3125 317.326 5.11719 316.961 4.72656C316.609 4.33594 316.434 3.84766 316.434 3.26172Z" fill="white"/>
<path d="M334.91 30.3906C332.046 30.3906 329.715 29.4531 327.918 27.5781C326.121 25.6901 325.223 23.1706 325.223 20.0195V19.3555C325.223 17.2591 325.62 15.3906 326.414 13.75C327.221 12.0964 328.341 10.8073 329.773 9.88281C331.219 8.94531 332.781 8.47656 334.461 8.47656C337.208 8.47656 339.344 9.38151 340.867 11.1914C342.391 13.0013 343.152 15.5924 343.152 18.9648V20.4688H328.836C328.888 22.5521 329.493 24.2383 330.652 25.5273C331.824 26.8034 333.309 27.4414 335.105 27.4414C336.382 27.4414 337.462 27.181 338.348 26.6602C339.233 26.1393 340.008 25.4492 340.672 24.5898L342.879 26.3086C341.108 29.0299 338.452 30.3906 334.91 30.3906ZM334.461 11.4453C333.003 11.4453 331.779 11.9792 330.789 13.0469C329.799 14.1016 329.188 15.5859 328.953 17.5H339.539V17.2266C339.435 15.3906 338.94 13.9714 338.055 12.9688C337.169 11.9531 335.971 11.4453 334.461 11.4453Z" fill="white"/>
<path d="M357.566 12.1094C357.02 12.0182 356.427 11.9727 355.789 11.9727C353.419 11.9727 351.811 12.9818 350.965 15V30H347.352V8.86719H350.867L350.926 11.3086C352.111 9.42057 353.79 8.47656 355.965 8.47656C356.668 8.47656 357.202 8.56771 357.566 8.75V12.1094Z" fill="white"/>
<path d="M368.992 27.4414C370.281 27.4414 371.408 27.0508 372.371 26.2695C373.335 25.4883 373.868 24.5117 373.973 23.3398H377.391C377.326 24.5508 376.909 25.7031 376.141 26.7969C375.372 27.8906 374.344 28.763 373.055 29.4141C371.779 30.0651 370.424 30.3906 368.992 30.3906C366.115 30.3906 363.823 29.4336 362.117 27.5195C360.424 25.5924 359.578 22.9622 359.578 19.6289V19.0234C359.578 16.9661 359.956 15.1367 360.711 13.5352C361.466 11.9336 362.547 10.6901 363.953 9.80469C365.372 8.91927 367.046 8.47656 368.973 8.47656C371.342 8.47656 373.309 9.1862 374.871 10.6055C376.447 12.0247 377.286 13.8672 377.391 16.1328H373.973C373.868 14.7656 373.348 13.6458 372.41 12.7734C371.486 11.888 370.34 11.4453 368.973 11.4453C367.137 11.4453 365.711 12.1094 364.695 13.4375C363.693 14.7526 363.191 16.6602 363.191 19.1602V19.8438C363.191 22.2786 363.693 24.1536 364.695 25.4688C365.698 26.7839 367.13 27.4414 368.992 27.4414Z" fill="white"/>
<path d="M380.496 19.2383C380.496 17.168 380.9 15.306 381.707 13.6523C382.527 11.9987 383.66 10.7227 385.105 9.82422C386.564 8.92578 388.224 8.47656 390.086 8.47656C392.964 8.47656 395.288 9.47266 397.059 11.4648C398.842 13.457 399.734 16.1068 399.734 19.4141V19.668C399.734 21.7253 399.337 23.5742 398.543 25.2148C397.762 26.8424 396.635 28.112 395.164 29.0234C393.706 29.9349 392.026 30.3906 390.125 30.3906C387.26 30.3906 384.936 29.3945 383.152 27.4023C381.382 25.4102 380.496 22.7734 380.496 19.4922V19.2383ZM384.129 19.668C384.129 22.0117 384.669 23.8932 385.75 25.3125C386.844 26.7318 388.302 27.4414 390.125 27.4414C391.961 27.4414 393.419 26.7253 394.5 25.293C395.581 23.8477 396.121 21.8294 396.121 19.2383C396.121 16.9206 395.568 15.0456 394.461 13.6133C393.367 12.168 391.909 11.4453 390.086 11.4453C388.302 11.4453 386.863 12.1549 385.77 13.5742C384.676 14.9935 384.129 17.0247 384.129 19.668Z" fill="white"/>
<path d="M408.191 30H404.578V0H408.191V30Z" fill="white"/>
<path d="M422.762 30.3906C419.897 30.3906 417.566 29.4531 415.77 27.5781C413.973 25.6901 413.074 23.1706 413.074 20.0195V19.3555C413.074 17.2591 413.471 15.3906 414.266 13.75C415.073 12.0964 416.193 10.8073 417.625 9.88281C419.07 8.94531 420.633 8.47656 422.312 8.47656C425.06 8.47656 427.195 9.38151 428.719 11.1914C430.242 13.0013 431.004 15.5924 431.004 18.9648V20.4688H416.688C416.74 22.5521 417.345 24.2383 418.504 25.5273C419.676 26.8034 421.16 27.4414 422.957 27.4414C424.233 27.4414 425.314 27.181 426.199 26.6602C427.085 26.1393 427.859 25.4492 428.523 24.5898L430.73 26.3086C428.96 29.0299 426.303 30.3906 422.762 30.3906ZM422.312 11.4453C420.854 11.4453 419.63 11.9792 418.641 13.0469C417.651 14.1016 417.039 15.5859 416.805 17.5H427.391V17.2266C427.286 15.3906 426.792 13.9714 425.906 12.9688C425.021 11.9531 423.823 11.4453 422.312 11.4453Z" fill="white"/>
<path d="M447.508 24.3945C447.508 23.418 447.137 22.6628 446.395 22.1289C445.665 21.582 444.383 21.1133 442.547 20.7227C440.724 20.332 439.272 19.8633 438.191 19.3164C437.124 18.7695 436.329 18.1185 435.809 17.3633C435.301 16.6081 435.047 15.7096 435.047 14.668C435.047 12.9362 435.776 11.4714 437.234 10.2734C438.706 9.07552 440.581 8.47656 442.859 8.47656C445.255 8.47656 447.195 9.09505 448.68 10.332C450.177 11.569 450.926 13.151 450.926 15.0781H447.293C447.293 14.0885 446.87 13.2357 446.023 12.5195C445.19 11.8034 444.135 11.4453 442.859 11.4453C441.544 11.4453 440.516 11.7318 439.773 12.3047C439.031 12.8776 438.66 13.6263 438.66 14.5508C438.66 15.4232 439.005 16.0807 439.695 16.5234C440.385 16.9661 441.629 17.3893 443.426 17.793C445.236 18.1966 446.701 18.6784 447.82 19.2383C448.94 19.7982 449.767 20.4753 450.301 21.2695C450.848 22.0508 451.121 23.0078 451.121 24.1406C451.121 26.0286 450.366 27.5456 448.855 28.6914C447.345 29.8242 445.385 30.3906 442.977 30.3906C441.284 30.3906 439.786 30.0911 438.484 29.4922C437.182 28.8932 436.16 28.0599 435.418 26.9922C434.689 25.9115 434.324 24.7461 434.324 23.4961H437.938C438.003 24.707 438.484 25.6706 439.383 26.3867C440.294 27.0898 441.492 27.4414 442.977 27.4414C444.344 27.4414 445.438 27.168 446.258 26.6211C447.091 26.0612 447.508 25.319 447.508 24.3945Z" fill="white"/>
<path d="M2 103.074C2 103.074 2 102.871 2 102.465C2 102.06 2.21836 101.748 2.65508 101.529H29.8409C30.3088 101.779 30.5428 102.091 30.5428 102.465C30.5428 102.84 30.3088 103.152 29.8409 103.401H2.65508C2.21836 103.183 2 102.871 2 102.465V103.074Z" fill="white"/>
<path d="M44.4397 87.1176L43.8314 87.3516C43.3947 87.5076 42.7708 87.6635 41.9598 87.8195C41.1487 87.9755 40.2441 88.0847 39.2458 88.1471H38.3568V85.9946H39.2458C40.712 85.9323 42.0689 85.6983 43.3167 85.2928C44.5645 84.8872 45.4379 84.5129 45.937 84.1698C46.4361 83.8266 46.8729 83.4835 47.2472 83.1404C47.3096 83.0468 47.4967 83 47.8087 83C48.0894 83 48.3546 83.0936 48.6041 83.2807V97.2714L48.6509 111.309C48.8693 111.527 49.0565 111.668 49.2124 111.73C49.3684 111.792 49.7427 111.855 50.3354 111.917C50.9281 111.979 51.8951 112.011 53.2365 112.011H54.4531V114.163H53.9384C53.2833 114.07 50.8033 114.023 46.4985 114.023C42.2561 114.023 39.8073 114.07 39.1523 114.163H38.5908V112.011H39.8073C40.4936 112.011 41.0863 112.011 41.5854 112.011C42.0845 112.011 42.4745 111.995 42.7552 111.964C43.036 111.933 43.2855 111.886 43.5039 111.824C43.7222 111.761 43.847 111.73 43.8782 111.73C43.9094 111.73 44.003 111.652 44.159 111.496C44.3149 111.34 44.4085 111.278 44.4397 111.309V87.1176Z" fill="white"/>
<path d="M72.1965 103.074C72.1965 103.074 72.1965 102.871 72.1965 102.465C72.1965 102.06 72.4149 101.748 72.8516 101.529H100.037C100.505 101.779 100.739 102.091 100.739 102.465C100.739 102.84 100.505 103.152 100.037 103.401H72.8516C72.4149 103.183 72.1965 102.871 72.1965 102.465V103.074Z" fill="white"/>
<path d="M125.033 87.1176L124.425 87.3516C123.988 87.5076 123.364 87.6635 122.553 87.8195C121.742 87.9755 120.838 88.0847 119.839 88.1471H118.95V85.9946H119.839C121.306 85.9323 122.663 85.6983 123.91 85.2928C125.158 84.8872 126.032 84.5129 126.531 84.1698C127.03 83.8266 127.466 83.4835 127.841 83.1404C127.903 83.0468 128.09 83 128.402 83C128.683 83 128.948 83.0936 129.198 83.2807V97.2714L129.245 111.309C129.463 111.527 129.65 111.668 129.806 111.73C129.962 111.792 130.336 111.855 130.929 111.917C131.522 111.979 132.489 112.011 133.83 112.011H135.047V114.163H134.532C133.877 114.07 131.397 114.023 127.092 114.023C122.85 114.023 120.401 114.07 119.746 114.163H119.184V112.011H120.401C121.087 112.011 121.68 112.011 122.179 112.011C122.678 112.011 123.068 111.995 123.349 111.964C123.63 111.933 123.879 111.886 124.097 111.824C124.316 111.761 124.441 111.73 124.472 111.73C124.503 111.73 124.597 111.652 124.753 111.496C124.909 111.34 125.002 111.278 125.033 111.309V87.1176Z" fill="white"/>
<path d="M151.485 103.074C151.485 103.074 151.485 102.871 151.485 102.465C151.485 102.06 151.703 101.748 152.14 101.529H166.131V94.5107L166.177 87.492C166.489 87.0865 166.786 86.8837 167.066 86.8837C167.472 86.8837 167.784 87.1176 168.002 87.5856V101.529H181.946C182.414 101.779 182.648 102.091 182.648 102.465C182.648 102.84 182.414 103.152 181.946 103.401H168.002V117.345C167.753 117.782 167.472 118 167.16 118H167.066H166.973C166.598 118 166.318 117.782 166.131 117.345V103.401H152.14C151.703 103.183 151.485 102.871 151.485 102.465V103.074Z" fill="white"/>
<path d="M205.632 87.1176L205.023 87.3516C204.587 87.5076 203.963 87.6635 203.152 87.8195C202.341 87.9755 201.436 88.0847 200.438 88.1471H199.549V85.9946H200.438C201.904 85.9323 203.261 85.6983 204.509 85.2928C205.756 84.8872 206.63 84.5129 207.129 84.1698C207.628 83.8266 208.065 83.4835 208.439 83.1404C208.502 83.0468 208.689 83 209.001 83C209.281 83 209.547 83.0936 209.796 83.2807V97.2714L209.843 111.309C210.061 111.527 210.248 111.668 210.404 111.73C210.56 111.792 210.935 111.855 211.527 111.917C212.12 111.979 213.087 112.011 214.429 112.011H215.645V114.163H215.13C214.475 114.07 211.995 114.023 207.691 114.023C203.448 114.023 200.999 114.07 200.344 114.163H199.783V112.011H200.999C201.686 112.011 202.278 112.011 202.777 112.011C203.277 112.011 203.666 111.995 203.947 111.964C204.228 111.933 204.478 111.886 204.696 111.824C204.914 111.761 205.039 111.73 205.07 111.73C205.101 111.73 205.195 111.652 205.351 111.496C205.507 111.34 205.601 111.278 205.632 111.309V87.1176Z" fill="white"/>
<path d="M232.078 103.074C232.078 103.074 232.078 102.871 232.078 102.465C232.078 102.06 232.296 101.748 232.733 101.529H246.724V94.5107L246.77 87.492C247.082 87.0865 247.379 86.8837 247.659 86.8837C248.065 86.8837 248.377 87.1176 248.595 87.5856V101.529H262.539C263.007 101.779 263.241 102.091 263.241 102.465C263.241 102.84 263.007 103.152 262.539 103.401H248.595V117.345C248.346 117.782 248.065 118 247.753 118H247.659H247.566C247.192 118 246.911 117.782 246.724 117.345V103.401H232.733C232.296 103.183 232.078 102.871 232.078 102.465V103.074Z" fill="white"/>
<path d="M286.225 87.1176L285.617 87.3516C285.18 87.5076 284.556 87.6635 283.745 87.8195C282.934 87.9755 282.03 88.0847 281.031 88.1471H280.142V85.9946H281.031C282.498 85.9323 283.854 85.6983 285.102 85.2928C286.35 84.8872 287.223 84.5129 287.723 84.1698C288.222 83.8266 288.658 83.4835 289.033 83.1404C289.095 83.0468 289.282 83 289.594 83C289.875 83 290.14 83.0936 290.39 83.2807V97.2714L290.436 111.309C290.655 111.527 290.842 111.668 290.998 111.73C291.154 111.792 291.528 111.855 292.121 111.917C292.714 111.979 293.681 112.011 295.022 112.011H296.239V114.163H295.724C295.069 114.07 292.589 114.023 288.284 114.023C284.042 114.023 281.593 114.07 280.938 114.163H280.376V112.011H281.593C282.279 112.011 282.872 112.011 283.371 112.011C283.87 112.011 284.26 111.995 284.541 111.964C284.821 111.933 285.071 111.886 285.289 111.824C285.508 111.761 285.633 111.73 285.664 111.73C285.695 111.73 285.789 111.652 285.944 111.496C286.1 111.34 286.194 111.278 286.225 111.309V87.1176Z" fill="white"/>
<path d="M312.676 103.074C312.676 103.074 312.676 102.871 312.676 102.465C312.676 102.06 312.895 101.748 313.331 101.529H327.322V94.5107L327.369 87.492C327.681 87.0865 327.977 86.8837 328.258 86.8837C328.663 86.8837 328.975 87.1176 329.194 87.5856V101.529H343.137C343.605 101.779 343.839 102.091 343.839 102.465C343.839 102.84 343.605 103.152 343.137 103.401H329.194V117.345C328.944 117.782 328.663 118 328.351 118H328.258H328.164C327.79 118 327.509 117.782 327.322 117.345V103.401H313.331C312.895 103.183 312.676 102.871 312.676 102.465V103.074Z" fill="white"/>
<path d="M366.824 87.1176L366.215 87.3516C365.779 87.5076 365.155 87.6635 364.344 87.8195C363.533 87.9755 362.628 88.0847 361.63 88.1471H360.741V85.9946H361.63C363.096 85.9323 364.453 85.6983 365.701 85.2928C366.948 84.8872 367.822 84.5129 368.321 84.1698C368.82 83.8266 369.257 83.4835 369.631 83.1404C369.693 83.0468 369.881 83 370.193 83C370.473 83 370.738 83.0936 370.988 83.2807V97.2714L371.035 111.309C371.253 111.527 371.44 111.668 371.596 111.73C371.752 111.792 372.127 111.855 372.719 111.917C373.312 111.979 374.279 112.011 375.62 112.011H376.837V114.163H376.322C375.667 114.07 373.187 114.023 368.882 114.023C364.64 114.023 362.191 114.07 361.536 114.163H360.975V112.011H362.191C362.878 112.011 363.47 112.011 363.969 112.011C364.468 112.011 364.858 111.995 365.139 111.964C365.42 111.933 365.669 111.886 365.888 111.824C366.106 111.761 366.231 111.73 366.262 111.73C366.293 111.73 366.387 111.652 366.543 111.496C366.699 111.34 366.792 111.278 366.824 111.309V87.1176Z" fill="white"/>
<path d="M393.27 103.074C393.27 103.074 393.27 102.871 393.27 102.465C393.27 102.06 393.488 101.748 393.925 101.529H407.916V94.5107L407.963 87.492C408.274 87.0865 408.571 86.8837 408.852 86.8837C409.257 86.8837 409.569 87.1176 409.787 87.5856V101.529H423.731C424.199 101.779 424.433 102.091 424.433 102.465C424.433 102.84 424.199 103.152 423.731 103.401H409.787V117.345C409.538 117.782 409.257 118 408.945 118H408.852H408.758C408.384 118 408.103 117.782 407.916 117.345V103.401H393.925C393.488 103.183 393.27 102.871 393.27 102.465V103.074Z" fill="white"/>
<path d="M447.417 87.1176L446.809 87.3516C446.372 87.5076 445.748 87.6635 444.937 87.8195C444.126 87.9755 443.222 88.0847 442.224 88.1471H441.334V85.9946H442.224C443.69 85.9323 445.047 85.6983 446.294 85.2928C447.542 84.8872 448.416 84.5129 448.915 84.1698C449.414 83.8266 449.851 83.4835 450.225 83.1404C450.287 83.0468 450.474 83 450.786 83C451.067 83 451.332 83.0936 451.582 83.2807V97.2714L451.629 111.309C451.847 111.527 452.034 111.668 452.19 111.73C452.346 111.792 452.72 111.855 453.313 111.917C453.906 111.979 454.873 112.011 456.214 112.011H457.431V114.163H456.916C456.261 114.07 453.781 114.023 449.476 114.023C445.234 114.023 442.785 114.07 442.13 114.163H441.568V112.011H442.785C443.471 112.011 444.064 112.011 444.563 112.011C445.062 112.011 445.452 111.995 445.733 111.964C446.014 111.933 446.263 111.886 446.482 111.824C446.7 111.761 446.825 111.73 446.856 111.73C446.887 111.73 446.981 111.652 447.137 111.496C447.293 111.34 447.386 111.278 447.417 111.309V87.1176Z" fill="white"/>
<path d="M475.174 103.074C475.174 103.074 475.174 102.871 475.174 102.465C475.174 102.06 475.392 101.748 475.829 101.529H503.015C503.483 101.779 503.717 102.091 503.717 102.465C503.717 102.84 503.483 103.152 503.015 103.401H475.829C475.392 103.183 475.174 102.871 475.174 102.465V103.074Z" fill="white"/>
<path d="M528.016 87.1176L527.407 87.3516C526.97 87.5076 526.347 87.6635 525.536 87.8195C524.725 87.9755 523.82 88.0847 522.822 88.1471H521.933V85.9946H522.822C524.288 85.9323 525.645 85.6983 526.893 85.2928C528.14 84.8872 529.014 84.5129 529.513 84.1698C530.012 83.8266 530.449 83.4835 530.823 83.1404C530.885 83.0468 531.073 83 531.384 83C531.665 83 531.93 83.0936 532.18 83.2807V97.2714L532.227 111.309C532.445 111.527 532.632 111.668 532.788 111.73C532.944 111.792 533.319 111.855 533.911 111.917C534.504 111.979 535.471 112.011 536.812 112.011H538.029V114.163H537.514C536.859 114.07 534.379 114.023 530.074 114.023C525.832 114.023 523.383 114.07 522.728 114.163H522.167V112.011H523.383C524.069 112.011 524.662 112.011 525.161 112.011C525.66 112.011 526.05 111.995 526.331 111.964C526.612 111.933 526.861 111.886 527.08 111.824C527.298 111.761 527.423 111.73 527.454 111.73C527.485 111.73 527.579 111.652 527.735 111.496C527.891 111.34 527.984 111.278 528.016 111.309V87.1176Z" fill="white"/>
<path d="M555.772 103.074C555.772 103.074 555.772 102.871 555.772 102.465C555.772 102.06 555.991 101.748 556.427 101.529H583.613C584.081 101.779 584.315 102.091 584.315 102.465C584.315 102.84 584.081 103.152 583.613 103.401H556.427C555.991 103.183 555.772 102.871 555.772 102.465V103.074Z" fill="white"/>
<path d="M608.609 87.1176L608.001 87.3516C607.564 87.5076 606.94 87.6635 606.129 87.8195C605.318 87.9755 604.414 88.0847 603.415 88.1471H602.526V85.9946H603.415C604.882 85.9323 606.238 85.6983 607.486 85.2928C608.734 84.8872 609.607 84.5129 610.107 84.1698C610.606 83.8266 611.042 83.4835 611.417 83.1404C611.479 83.0468 611.666 83 611.978 83C612.259 83 612.524 83.0936 612.774 83.2807V97.2714L612.82 111.309C613.039 111.527 613.226 111.668 613.382 111.73C613.538 111.792 613.912 111.855 614.505 111.917C615.098 111.979 616.065 112.011 617.406 112.011H618.623V114.163H618.108C617.453 114.07 614.973 114.023 610.668 114.023C606.426 114.023 603.977 114.07 603.322 114.163H602.76V112.011H603.977C604.663 112.011 605.256 112.011 605.755 112.011C606.254 112.011 606.644 111.995 606.925 111.964C607.206 111.933 607.455 111.886 607.673 111.824C607.892 111.761 608.017 111.73 608.048 111.73C608.079 111.73 608.173 111.652 608.329 111.496C608.484 111.34 608.578 111.278 608.609 111.309V87.1176Z" fill="white"/>
<path d="M631 100.91C631 100.532 631.203 100.241 631.61 100.038H659.387C659.823 100.27 660.041 100.561 660.041 100.91C660.041 101.23 659.837 101.506 659.43 101.738L645.564 101.782H631.698C631.233 101.637 631 101.346 631 100.91ZM631 109.369C631 108.933 631.233 108.642 631.698 108.497H659.43C659.837 108.788 660.041 109.078 660.041 109.369C660.041 109.747 659.823 110.038 659.387 110.241H631.61C631.203 110.038 631 109.747 631 109.369Z" fill="white"/>
<path d="M678.782 90.532C680.41 88.1773 682.634 87 685.453 87C686.849 87 688.244 87.3779 689.639 88.1337C691.035 88.8895 692.168 90.2267 693.041 92.1453C694.116 94.5581 694.654 97.8721 694.654 102.087C694.654 106.593 694.029 110.038 692.779 112.422C692.198 113.642 691.398 114.616 690.381 115.343C689.363 116.07 688.477 116.52 687.721 116.695C686.965 116.869 686.224 116.971 685.497 117C684.741 117 683.985 116.913 683.23 116.738C682.474 116.564 681.587 116.099 680.57 115.343C679.552 114.587 678.753 113.613 678.171 112.422C676.921 110.038 676.296 106.593 676.296 102.087C676.296 97.0291 677.125 93.1773 678.782 90.532ZM688.593 90.0087C687.721 89.0785 686.689 88.6134 685.497 88.6134C684.276 88.6134 683.23 89.0785 682.357 90.0087C681.631 90.7645 681.151 91.811 680.918 93.1483C680.686 94.4855 680.57 97.2762 680.57 101.52C680.57 106.113 680.686 109.137 680.918 110.59C681.151 112.044 681.674 113.192 682.488 114.035C683.302 114.907 684.305 115.343 685.497 115.343C686.66 115.343 687.648 114.907 688.462 114.035C689.305 113.163 689.828 111.942 690.032 110.372C690.235 108.802 690.352 105.852 690.381 101.52C690.381 97.3052 690.264 94.5291 690.032 93.1919C689.799 91.8547 689.32 90.7936 688.593 90.0087Z" fill="white"/>
<path d="M196.375 192.855H184.051V202.934H198.367V206H180.301V177.562H198.172V180.648H184.051V189.789H196.375V192.855Z" fill="white"/>
<path d="M206.395 206H202.781V176H206.395V206Z" fill="white"/>
<path d="M221.238 195.258C221.238 192.016 222.007 189.411 223.543 187.445C225.079 185.466 227.091 184.477 229.578 184.477C232.052 184.477 234.012 185.323 235.457 187.016V176H239.07V206H235.75L235.574 203.734C234.129 205.505 232.117 206.391 229.539 206.391C227.091 206.391 225.092 205.388 223.543 203.383C222.007 201.378 221.238 198.76 221.238 195.531V195.258ZM224.852 195.668C224.852 198.064 225.346 199.939 226.336 201.293C227.326 202.647 228.693 203.324 230.438 203.324C232.729 203.324 234.402 202.296 235.457 200.238V190.531C234.376 188.539 232.716 187.543 230.477 187.543C228.706 187.543 227.326 188.227 226.336 189.594C225.346 190.961 224.852 192.986 224.852 195.668Z" fill="white"/>
<path d="M248.621 206H245.008V184.867H248.621V206ZM244.715 179.262C244.715 178.676 244.891 178.181 245.242 177.777C245.607 177.374 246.141 177.172 246.844 177.172C247.547 177.172 248.081 177.374 248.445 177.777C248.81 178.181 248.992 178.676 248.992 179.262C248.992 179.848 248.81 180.336 248.445 180.727C248.081 181.117 247.547 181.312 246.844 181.312C246.141 181.312 245.607 181.117 245.242 180.727C244.891 180.336 244.715 179.848 244.715 179.262Z" fill="white"/>
<path d="M267.469 206C267.26 205.583 267.091 204.841 266.961 203.773C265.281 205.518 263.276 206.391 260.945 206.391C258.862 206.391 257.15 205.805 255.809 204.633C254.48 203.448 253.816 201.951 253.816 200.141C253.816 197.94 254.65 196.234 256.316 195.023C257.996 193.799 260.353 193.188 263.387 193.188H266.902V191.527C266.902 190.264 266.525 189.262 265.77 188.52C265.014 187.764 263.901 187.387 262.43 187.387C261.141 187.387 260.06 187.712 259.188 188.363C258.315 189.014 257.879 189.802 257.879 190.727H254.246C254.246 189.672 254.617 188.656 255.359 187.68C256.115 186.69 257.13 185.909 258.406 185.336C259.695 184.763 261.108 184.477 262.645 184.477C265.079 184.477 266.987 185.089 268.367 186.312C269.747 187.523 270.464 189.197 270.516 191.332V201.059C270.516 202.999 270.763 204.542 271.258 205.688V206H267.469ZM261.473 203.246C262.605 203.246 263.68 202.953 264.695 202.367C265.711 201.781 266.447 201.02 266.902 200.082V195.746H264.07C259.643 195.746 257.43 197.042 257.43 199.633C257.43 200.766 257.807 201.651 258.562 202.289C259.318 202.927 260.288 203.246 261.473 203.246Z" fill="white"/>
<path d="M294.871 206.391C292.007 206.391 289.676 205.453 287.879 203.578C286.082 201.69 285.184 199.171 285.184 196.02V195.355C285.184 193.259 285.581 191.391 286.375 189.75C287.182 188.096 288.302 186.807 289.734 185.883C291.18 184.945 292.742 184.477 294.422 184.477C297.169 184.477 299.305 185.382 300.828 187.191C302.352 189.001 303.113 191.592 303.113 194.965V196.469H288.797C288.849 198.552 289.454 200.238 290.613 201.527C291.785 202.803 293.27 203.441 295.066 203.441C296.342 203.441 297.423 203.181 298.309 202.66C299.194 202.139 299.969 201.449 300.633 200.59L302.84 202.309C301.069 205.03 298.413 206.391 294.871 206.391ZM294.422 187.445C292.964 187.445 291.74 187.979 290.75 189.047C289.76 190.102 289.148 191.586 288.914 193.5H299.5V193.227C299.396 191.391 298.901 189.971 298.016 188.969C297.13 187.953 295.932 187.445 294.422 187.445Z" fill="white"/>
<path d="M319.617 200.395C319.617 199.418 319.246 198.663 318.504 198.129C317.775 197.582 316.492 197.113 314.656 196.723C312.833 196.332 311.382 195.863 310.301 195.316C309.233 194.77 308.439 194.118 307.918 193.363C307.41 192.608 307.156 191.71 307.156 190.668C307.156 188.936 307.885 187.471 309.344 186.273C310.815 185.076 312.69 184.477 314.969 184.477C317.365 184.477 319.305 185.095 320.789 186.332C322.286 187.569 323.035 189.151 323.035 191.078H319.402C319.402 190.089 318.979 189.236 318.133 188.52C317.299 187.803 316.245 187.445 314.969 187.445C313.654 187.445 312.625 187.732 311.883 188.305C311.141 188.878 310.77 189.626 310.77 190.551C310.77 191.423 311.115 192.081 311.805 192.523C312.495 192.966 313.738 193.389 315.535 193.793C317.345 194.197 318.81 194.678 319.93 195.238C321.049 195.798 321.876 196.475 322.41 197.27C322.957 198.051 323.23 199.008 323.23 200.141C323.23 202.029 322.475 203.546 320.965 204.691C319.454 205.824 317.495 206.391 315.086 206.391C313.393 206.391 311.896 206.091 310.594 205.492C309.292 204.893 308.27 204.06 307.527 202.992C306.798 201.911 306.434 200.746 306.434 199.496H310.047C310.112 200.707 310.594 201.671 311.492 202.387C312.404 203.09 313.602 203.441 315.086 203.441C316.453 203.441 317.547 203.168 318.367 202.621C319.201 202.061 319.617 201.319 319.617 200.395Z" fill="white"/>
<path d="M343.27 177.562L352.566 200.766L361.863 177.562H366.727V206H362.977V194.926L363.328 182.973L353.992 206H351.121L341.805 183.031L342.176 194.926V206H338.426V177.562H343.27Z" fill="white"/>
<path d="M376.707 206H373.094V184.867H376.707V206ZM372.801 179.262C372.801 178.676 372.977 178.181 373.328 177.777C373.693 177.374 374.227 177.172 374.93 177.172C375.633 177.172 376.167 177.374 376.531 177.777C376.896 178.181 377.078 178.676 377.078 179.262C377.078 179.848 376.896 180.336 376.531 180.727C376.167 181.117 375.633 181.312 374.93 181.312C374.227 181.312 373.693 181.117 373.328 180.727C372.977 180.336 372.801 179.848 372.801 179.262Z" fill="white"/>
<path d="M391.277 206.391C388.413 206.391 386.082 205.453 384.285 203.578C382.488 201.69 381.59 199.171 381.59 196.02V195.355C381.59 193.259 381.987 191.391 382.781 189.75C383.589 188.096 384.708 186.807 386.141 185.883C387.586 184.945 389.148 184.477 390.828 184.477C393.576 184.477 395.711 185.382 397.234 187.191C398.758 189.001 399.52 191.592 399.52 194.965V196.469H385.203C385.255 198.552 385.861 200.238 387.02 201.527C388.191 202.803 389.676 203.441 391.473 203.441C392.749 203.441 393.829 203.181 394.715 202.66C395.6 202.139 396.375 201.449 397.039 200.59L399.246 202.309C397.475 205.03 394.819 206.391 391.277 206.391ZM390.828 187.445C389.37 187.445 388.146 187.979 387.156 189.047C386.167 190.102 385.555 191.586 385.32 193.5H395.906V193.227C395.802 191.391 395.307 189.971 394.422 188.969C393.536 187.953 392.339 187.445 390.828 187.445Z" fill="white"/>
<path d="M413.934 188.109C413.387 188.018 412.794 187.973 412.156 187.973C409.786 187.973 408.178 188.982 407.332 191V206H403.719V184.867H407.234L407.293 187.309C408.478 185.421 410.158 184.477 412.332 184.477C413.035 184.477 413.569 184.568 413.934 184.75V188.109Z" fill="white"/>
<path d="M425.359 203.441C426.648 203.441 427.775 203.051 428.738 202.27C429.702 201.488 430.236 200.512 430.34 199.34H433.758C433.693 200.551 433.276 201.703 432.508 202.797C431.74 203.891 430.711 204.763 429.422 205.414C428.146 206.065 426.792 206.391 425.359 206.391C422.482 206.391 420.19 205.434 418.484 203.52C416.792 201.592 415.945 198.962 415.945 195.629V195.023C415.945 192.966 416.323 191.137 417.078 189.535C417.833 187.934 418.914 186.69 420.32 185.805C421.74 184.919 423.413 184.477 425.34 184.477C427.71 184.477 429.676 185.186 431.238 186.605C432.814 188.025 433.654 189.867 433.758 192.133H430.34C430.236 190.766 429.715 189.646 428.777 188.773C427.853 187.888 426.707 187.445 425.34 187.445C423.504 187.445 422.078 188.109 421.062 189.438C420.06 190.753 419.559 192.66 419.559 195.16V195.844C419.559 198.279 420.06 200.154 421.062 201.469C422.065 202.784 423.497 203.441 425.359 203.441Z" fill="white"/>
<path d="M436.863 195.238C436.863 193.168 437.267 191.306 438.074 189.652C438.895 187.999 440.027 186.723 441.473 185.824C442.931 184.926 444.591 184.477 446.453 184.477C449.331 184.477 451.655 185.473 453.426 187.465C455.21 189.457 456.102 192.107 456.102 195.414V195.668C456.102 197.725 455.704 199.574 454.91 201.215C454.129 202.842 453.003 204.112 451.531 205.023C450.073 205.935 448.393 206.391 446.492 206.391C443.628 206.391 441.303 205.395 439.52 203.402C437.749 201.41 436.863 198.773 436.863 195.492V195.238ZM440.496 195.668C440.496 198.012 441.036 199.893 442.117 201.312C443.211 202.732 444.669 203.441 446.492 203.441C448.328 203.441 449.786 202.725 450.867 201.293C451.948 199.848 452.488 197.829 452.488 195.238C452.488 192.921 451.935 191.046 450.828 189.613C449.734 188.168 448.276 187.445 446.453 187.445C444.669 187.445 443.23 188.155 442.137 189.574C441.043 190.993 440.496 193.025 440.496 195.668Z" fill="white"/>
<path d="M464.559 206H460.945V176H464.559V206Z" fill="white"/>
<path d="M479.129 206.391C476.264 206.391 473.934 205.453 472.137 203.578C470.34 201.69 469.441 199.171 469.441 196.02V195.355C469.441 193.259 469.839 191.391 470.633 189.75C471.44 188.096 472.56 186.807 473.992 185.883C475.438 184.945 477 184.477 478.68 184.477C481.427 184.477 483.562 185.382 485.086 187.191C486.609 189.001 487.371 191.592 487.371 194.965V196.469H473.055C473.107 198.552 473.712 200.238 474.871 201.527C476.043 202.803 477.527 203.441 479.324 203.441C480.6 203.441 481.681 203.181 482.566 202.66C483.452 202.139 484.227 201.449 484.891 200.59L487.098 202.309C485.327 205.03 482.671 206.391 479.129 206.391ZM478.68 187.445C477.221 187.445 475.997 187.979 475.008 189.047C474.018 190.102 473.406 191.586 473.172 193.5H483.758V193.227C483.654 191.391 483.159 189.971 482.273 188.969C481.388 187.953 480.19 187.445 478.68 187.445Z" fill="white"/>
<path d="M503.875 200.395C503.875 199.418 503.504 198.663 502.762 198.129C502.033 197.582 500.75 197.113 498.914 196.723C497.091 196.332 495.639 195.863 494.559 195.316C493.491 194.77 492.697 194.118 492.176 193.363C491.668 192.608 491.414 191.71 491.414 190.668C491.414 188.936 492.143 187.471 493.602 186.273C495.073 185.076 496.948 184.477 499.227 184.477C501.622 184.477 503.562 185.095 505.047 186.332C506.544 187.569 507.293 189.151 507.293 191.078H503.66C503.66 190.089 503.237 189.236 502.391 188.52C501.557 187.803 500.503 187.445 499.227 187.445C497.911 187.445 496.883 187.732 496.141 188.305C495.398 188.878 495.027 189.626 495.027 190.551C495.027 191.423 495.372 192.081 496.062 192.523C496.753 192.966 497.996 193.389 499.793 193.793C501.603 194.197 503.068 194.678 504.188 195.238C505.307 195.798 506.134 196.475 506.668 197.27C507.215 198.051 507.488 199.008 507.488 200.141C507.488 202.029 506.733 203.546 505.223 204.691C503.712 205.824 501.753 206.391 499.344 206.391C497.651 206.391 496.154 206.091 494.852 205.492C493.549 204.893 492.527 204.06 491.785 202.992C491.056 201.911 490.691 200.746 490.691 199.496H494.305C494.37 200.707 494.852 201.671 495.75 202.387C496.661 203.09 497.859 203.441 499.344 203.441C500.711 203.441 501.805 203.168 502.625 202.621C503.458 202.061 503.875 201.319 503.875 200.395Z" fill="white"/>
<path fill-rule="evenodd" clip-rule="evenodd" d="M132.555 77.5573L145.446 81.5677C146.237 81.8138 146.678 82.6546 146.432 83.4456L142.422 96.3362C142.176 97.1272 141.335 97.5689 140.544 97.3228C139.753 97.0767 139.311 96.236 139.557 95.445L142.492 86.0122L86.6977 115.328L85.3023 112.672L141.097 83.3565L131.664 80.4219C130.873 80.1758 130.431 79.335 130.677 78.544C130.923 77.753 131.764 77.3112 132.555 77.5573Z" fill="#FD0C0C"/>
<path fill-rule="evenodd" clip-rule="evenodd" d="M224.555 77.5573L237.446 81.5677C238.237 81.8138 238.678 82.6546 238.432 83.4456L234.422 96.3362C234.176 97.1272 233.335 97.5689 232.544 97.3228C231.753 97.0767 231.311 96.236 231.557 95.445L234.492 86.0122L178.698 115.328L177.302 112.672L233.097 83.3565L223.664 80.4219C222.873 80.1758 222.431 79.335 222.677 78.544C222.923 77.753 223.764 77.3112 224.555 77.5573Z" fill="#FD0C0C"/>
<path fill-rule="evenodd" clip-rule="evenodd" d="M52.555 77.5573L65.4456 81.5677C66.2366 81.8138 66.6783 82.6546 66.4322 83.4456L62.4218 96.3362C62.1757 97.1272 61.335 97.5689 60.544 97.3228C59.7529 97.0767 59.3112 96.236 59.5573 95.445L62.4919 86.0122L6.69765 115.328L5.30227 112.672L61.0965 83.3565L51.6638 80.4219C50.8728 80.1758 50.431 79.335 50.6771 78.544C50.9232 77.753 51.764 77.3112 52.555 77.5573Z" fill="#FD0C0C"/>
<path fill-rule="evenodd" clip-rule="evenodd" d="M298.555 77.5573L311.446 81.5677C312.237 81.8138 312.678 82.6546 312.432 83.4456L308.422 96.3362C308.176 97.1272 307.335 97.5689 306.544 97.3228C305.753 97.0767 305.311 96.236 305.557 95.445L308.492 86.0122L252.698 115.328L251.302 112.672L307.097 83.3565L297.664 80.4219C296.873 80.1758 296.431 79.335 296.677 78.544C296.923 77.753 297.764 77.3112 298.555 77.5573Z" fill="#FD0C0C"/>
<path fill-rule="evenodd" clip-rule="evenodd" d="M390.555 77.5573L403.446 81.5677C404.237 81.8138 404.678 82.6546 404.432 83.4456L400.422 96.3362C400.176 97.1272 399.335 97.5689 398.544 97.3228C397.753 97.0767 397.311 96.236 397.557 95.445L400.492 86.0122L344.698 115.328L343.302 112.672L399.097 83.3565L389.664 80.4219C388.873 80.1758 388.431 79.335 388.677 78.544C388.923 77.753 389.764 77.3112 390.555 77.5573Z" fill="#FD0C0C"/>
<path fill-rule="evenodd" clip-rule="evenodd" d="M534.555 77.5573L547.446 81.5677C548.237 81.8138 548.678 82.6546 548.432 83.4456L544.422 96.3362C544.176 97.1272 543.335 97.5689 542.544 97.3228C541.753 97.0767 541.311 96.236 541.557 95.445L544.492 86.0122L488.698 115.328L487.302 112.672L543.097 83.3565L533.664 80.4219C532.873 80.1758 532.431 79.335 532.677 78.544C532.923 77.753 533.764 77.3112 534.555 77.5573Z" fill="#FD0C0C"/>
<path fill-rule="evenodd" clip-rule="evenodd" d="M460.555 77.5573L473.446 81.5677C474.237 81.8138 474.678 82.6546 474.432 83.4456L470.422 96.3362C470.176 97.1272 469.335 97.5689 468.544 97.3228C467.753 97.0767 467.311 96.236 467.557 95.445L470.492 86.0122L414.698 115.328L413.302 112.672L469.097 83.3565L459.664 80.4219C458.873 80.1758 458.431 79.335 458.677 78.544C458.923 77.753 459.764 77.3112 460.555 77.5573Z" fill="#FD0C0C"/>
<path fill-rule="evenodd" clip-rule="evenodd" d="M626.555 77.5573L639.446 81.5677C640.237 81.8138 640.678 82.6546 640.432 83.4456L636.422 96.3362C636.176 97.1272 635.335 97.5689 634.544 97.3228C633.753 97.0767 633.311 96.236 633.557 95.445L636.492 86.0122L580.698 115.328L579.302 112.672L635.097 83.3565L625.664 80.4219C624.873 80.1758 624.431 79.335 624.677 78.544C624.923 77.753 625.764 77.3112 626.555 77.5573Z" fill="#FD0C0C"/>
</svg>
