<svg viewBox="0 0 1080 150" fill="none" xmlns="http://www.w3.org/2000/svg">
<g id="01310021">
<g id="Frame 1">
<g id="Juegos de Ingenio">
<path d="M262.281 36.0625C260.594 36.3542 259.125 36.5521 257.875 36.6562C257.896 37.7188 258.115 39.5938 258.531 42.2812C258.948 44.9688 259.292 47.1979 259.562 48.9688C259.833 50.7396 260.083 52.5104 260.312 54.2812C260.854 58.4688 261.125 61.6458 261.125 63.8125C261.125 68.1458 260.167 71.5312 258.25 73.9688C261.167 72.0938 263.198 69.5625 264.344 66.375C264.802 65.0833 265.031 63.8021 265.031 62.5312C265.031 61.2604 264.99 60.0312 264.906 58.8438C264.823 57.6354 264.719 56.3438 264.594 54.9688C264.115 49.7396 263.344 43.4375 262.281 36.0625ZM254.531 36.9688C252.99 37.0521 251.729 37.1042 250.75 37.125C249.104 37.1667 248.281 36.625 248.281 35.5C248.281 35.0417 248.427 34.6562 248.719 34.3438C249.031 34.0104 249.417 33.8438 249.875 33.8438C256.771 33.7396 263.469 32.8125 269.969 31.0625C270.031 31.0208 270.104 31 270.188 31H270.406C270.885 31 271.271 31.1667 271.562 31.5C271.854 31.8333 272 32.1979 272 32.5938C272 33.4479 271.583 34 270.75 34.25C269.292 34.6667 267.542 35.0833 265.5 35.5C267.417 48.4792 268.375 57.25 268.375 61.8125C268.375 66.7917 266.469 71.0625 262.656 74.625C258.906 78.1458 254.5 79.9062 249.438 79.9062C245.417 79.9062 241.875 78.5833 238.812 75.9375C235.604 73.1875 234 69.8438 234 65.9062C234 62.5729 235.219 59.5625 237.656 56.875C238.01 56.5208 238.417 56.3438 238.875 56.3438C239.354 56.3438 239.75 56.5104 240.062 56.8438C240.375 57.1771 240.531 57.5625 240.531 58C240.531 58.4375 240.219 58.9896 239.594 59.6562C238.99 60.3229 238.458 61.2396 238 62.4062C237.542 63.5521 237.312 64.7708 237.312 66.0625C237.312 67.3542 237.583 68.5938 238.125 69.7812C238.667 70.9688 239.396 72 240.312 72.875C242.271 74.75 244.604 75.6875 247.312 75.6875C250.75 75.6875 253.406 74.5833 255.281 72.375C257.01 70.3542 257.875 67.5521 257.875 63.9688C257.875 60.5104 257.542 56.7083 256.875 52.5625C256.208 48.4167 255.75 45.5729 255.5 44.0312C254.917 40.4688 254.594 38.1146 254.531 36.9688Z" fill="#41D519"/>
<path d="M307.219 50.0312H305.969C305.344 50.0312 304.552 49.9896 303.594 49.9062L302.781 76.1875C304.323 75.9375 305.854 75.7708 307.375 75.6875L307.875 49.9688C307.646 50.0104 307.427 50.0312 307.219 50.0312ZM302.188 46.4375C303.312 46.6042 305.177 46.6875 307.781 46.6875C310.385 46.6875 312.854 46.3958 315.188 45.8125C315.667 45.8125 316.062 45.9896 316.375 46.3438C316.688 46.6771 316.844 47.0417 316.844 47.4375C316.844 47.8333 316.719 48.1875 316.469 48.5C316.24 48.8125 315.833 49.0312 315.25 49.1562C314.688 49.2604 314.042 49.3646 313.312 49.4688C312.583 49.5521 311.865 49.6458 311.156 49.75L310.656 75.625C312.469 75.625 313.781 75.6771 314.594 75.7812C315.927 75.9479 316.594 76.5104 316.594 77.4688C316.594 77.9896 316.417 78.3958 316.062 78.6875C315.729 79 315.375 79.1562 315 79.1562H314.812C310.208 78.5938 305.75 78.8021 301.438 79.7812H301.094C300.656 79.7812 300.271 79.6146 299.938 79.2812C299.604 78.9688 299.438 78.6042 299.438 78.1875V78.125L299.625 72.4062C296.938 77.3229 293.458 79.7812 289.188 79.7812C285.5 79.7812 282.74 78.125 280.906 74.8125C279.448 72.125 278.719 68.9583 278.719 65.3125C278.719 59.6667 279.781 54.5104 281.906 49.8438L276.281 49.6875C275.823 49.6458 275.438 49.4792 275.125 49.1875C274.833 48.875 274.688 48.5 274.688 48.0625C274.688 47.625 274.844 47.25 275.156 46.9375C275.469 46.6042 275.865 46.4375 276.344 46.4375L284.594 46.625C285.052 46.6875 285.427 46.875 285.719 47.1875C286.031 47.4792 286.188 47.7708 286.188 48.0625C286.188 48.4375 286.104 48.7917 285.938 49.125C284.542 50.5208 283.385 54.1875 282.469 60.125C282.135 62.2917 281.969 64.0312 281.969 65.3438C281.969 66.6562 282.073 67.9792 282.281 69.3125C282.51 70.625 282.896 71.8125 283.438 72.875C284.667 75.3125 286.562 76.5312 289.125 76.5312C291.688 76.5312 293.927 75.1042 295.844 72.25C297.76 69.4375 299.135 65.5312 299.969 60.5312L300.344 47.9688C300.344 47.5104 300.521 47.1458 300.875 46.875C301.229 46.5833 301.604 46.4375 302 46.4375H302.188Z" fill="#41D519"/>
<path d="M332.062 50.4688C326.583 52.4479 323.844 56.6042 323.844 62.9375C323.844 66.9167 325.219 70.25 327.969 72.9375C328.823 73.7708 329.802 74.4688 330.906 75.0312C329.115 72.3646 328.219 68.7188 328.219 64.0938C328.219 60.8229 328.458 58.3854 328.938 56.7812C329.688 54.2396 330.729 52.1354 332.062 50.4688ZM331.531 62.75C333.865 63.4792 336.542 63.8438 339.562 63.8438C342.583 63.8438 345.521 63.2083 348.375 61.9375V61.4062C348.375 56.3646 346.76 52.8854 343.531 50.9688C342.406 50.3021 341.052 49.8542 339.469 49.625C334.385 50.2083 331.74 54.5833 331.531 62.75ZM351.625 61.3438L351.562 63.1562C351.354 64.8854 348.604 66.1146 343.312 66.8438C341.625 67.0729 339.833 67.1875 337.938 67.1875C336.062 67.1875 333.948 66.8646 331.594 66.2188C332.052 70.9479 333.635 74.1458 336.344 75.8125C337.344 76.4167 338.323 76.7188 339.281 76.7188C340.26 76.7188 341.083 76.6562 341.75 76.5312C342.417 76.3854 343.073 76.1875 343.719 75.9375C345.177 75.3333 346.198 74.6042 346.781 73.75C347.135 73.3333 347.542 73.125 348 73.125C348.479 73.125 348.885 73.3021 349.219 73.6562C349.552 73.9896 349.719 74.375 349.719 74.8125C349.719 75.2292 349.583 75.5625 349.312 75.8125C348.417 77.2083 346.75 78.3125 344.312 79.125C339.792 80.6042 335.448 80.4792 331.281 78.75C326.906 76.9583 323.802 73.9375 321.969 69.6875C321.052 67.6042 320.594 65.3021 320.594 62.7812C320.594 60.2396 320.99 57.9375 321.781 55.875C322.573 53.7917 323.698 52.0417 325.156 50.625C328.135 47.7083 332.25 46.25 337.5 46.25C346.917 46.6458 351.625 51.6771 351.625 61.3438Z" fill="#41D519"/>
<path d="M379.75 63.75C379.979 62.6667 380.094 61.6146 380.094 60.5938V57.5C380.094 56.4375 380.073 55.4375 380.031 54.5C379.156 52.4167 377.646 50.8958 375.5 49.9375C374.458 49.4583 373.01 49.2083 371.156 49.1875C369.323 49.1458 367.667 49.5312 366.188 50.3438C364.708 51.1354 363.49 52.2188 362.531 53.5938C360.698 56.2188 359.781 59.7604 359.781 64.2188C359.823 67.4896 360.635 70.2083 362.219 72.375C363.99 74.7917 366.312 76 369.188 76C371.25 76 373.177 75.0625 374.969 73.1875C377.344 70.7292 378.938 67.5833 379.75 63.75ZM383.156 50.0938L383.406 63C383.406 65.2708 383.406 67.5833 383.406 69.9375C383.427 72.2917 383.354 74.6146 383.188 76.9062C382.812 82.1146 381.844 86.3125 380.281 89.5C384.49 86.9583 386.812 82.3542 387.25 75.6875C387.583 70.1458 387.75 63.8542 387.75 56.8125V50.1562H387.25L383.156 50.0938ZM381.5 46.6875L387.312 46.875C389.958 46.875 391.583 46.8125 392.188 46.6875C392.812 46.5625 393.156 46.5 393.219 46.5H393.344C393.781 46.5 394.167 46.6771 394.5 47.0312C394.833 47.3646 395 47.7396 395 48.1562C395 48.5521 394.865 48.9062 394.594 49.2188C394.344 49.5104 394.031 49.6875 393.656 49.75C392.99 49.875 392.115 49.9896 391.031 50.0938L391.094 56.8125C391.094 63.9792 390.896 70.3333 390.5 75.875C390.146 81.1875 388.406 85.6458 385.281 89.25C381.948 93.0833 377.802 95 372.844 95C369.344 95 366.406 93.9062 364.031 91.7188C361.677 89.5521 360.5 86.8333 360.5 83.5625V83.5C360.5 83.0417 360.656 82.6458 360.969 82.3125C361.281 82 361.667 81.8438 362.125 81.8438C362.604 81.8438 362.99 82 363.281 82.3125C363.594 82.6458 363.75 83.25 363.75 84.125C363.75 85 364 85.9375 364.5 86.9375C365 87.9583 365.677 88.8333 366.531 89.5625C368.24 91.0208 370.323 91.75 372.781 91.75C376.094 91.75 378.24 88.2083 379.219 81.125C379.573 78.6667 379.823 75.7396 379.969 72.3438C378.406 75.5312 375.969 77.6667 372.656 78.75C371.594 79.1042 370.26 79.2812 368.656 79.2812C367.073 79.2812 365.5 78.875 363.938 78.0625C362.375 77.25 361.052 76.1562 359.969 74.7812C357.719 71.9688 356.573 68.4688 356.531 64.2812C356.531 58.9479 357.781 54.625 360.281 51.3125C363.031 47.6875 366.833 45.875 371.688 45.875C374.917 45.9792 377.625 46.9375 379.812 48.75L379.75 48.4062V48.3438C379.75 47.9062 379.927 47.5208 380.281 47.1875C380.635 46.8542 381.021 46.6875 381.438 46.6875H381.5Z" fill="#41D519"/>
<path d="M410.031 50.2812C406.302 51.7188 403.844 54.4167 402.656 58.375C402.24 59.75 402.031 61.3021 402.031 63.0312C402.031 64.7604 402.229 66.3125 402.625 67.6875C403.021 69.0625 403.552 70.2708 404.219 71.3125C405.51 73.25 407.302 74.6875 409.594 75.625C407.51 72.7292 406.469 68.4792 406.469 62.875C406.469 57.2708 407.656 53.0729 410.031 50.2812ZM425.938 72.2188C426.917 70.9688 427.656 69.5417 428.156 67.9375C428.677 66.3333 428.938 64.8542 428.938 63.5C428.938 62.1458 428.823 60.9479 428.594 59.9062C428.365 58.8646 428.031 57.8542 427.594 56.875C427.156 55.8958 426.625 54.9792 426 54.125C425.375 53.2708 424.677 52.5208 423.906 51.875C422.219 50.5208 420.375 49.8438 418.375 49.8438C414.333 49.8438 411.698 52.2188 410.469 56.9688C410.01 58.7188 409.781 60.3438 409.781 61.8438C409.781 63.3229 409.823 64.5833 409.906 65.625C409.99 66.6458 410.135 67.6667 410.344 68.6875C410.552 69.6875 410.833 70.6562 411.188 71.5938C411.542 72.5312 412 73.3542 412.562 74.0625C413.792 75.6042 415.365 76.375 417.281 76.375C419.219 76.375 420.896 76 422.312 75.25C423.75 74.4792 424.958 73.4688 425.938 72.2188ZM432.188 63.1562C432.188 65.5521 431.74 67.7917 430.844 69.875C429.948 71.9583 428.74 73.75 427.219 75.25C423.99 78.3958 420.073 79.9688 415.469 79.9688C410.406 79.9688 406.354 78.4271 403.312 75.3438C400.292 72.2812 398.781 68.1667 398.781 63C398.781 58.1042 400.385 54.0417 403.594 50.8125C406.76 47.6042 410.719 46 415.469 46C420.302 46 424.323 47.6875 427.531 51.0625C430.635 54.3125 432.188 58.3438 432.188 63.1562Z" fill="#41D519"/>
<path d="M465.188 71.5312C465.479 70.7604 465.625 70.0208 465.625 69.3125C465.625 68.6042 465.448 67.9271 465.094 67.2812C464.76 66.6354 464.312 66.0833 463.75 65.625C463.188 65.1458 462.542 64.75 461.812 64.4375C461.083 64.1042 460.333 63.8229 459.562 63.5938C458.792 63.3646 458.031 63.1771 457.281 63.0312C456.531 62.8646 455.792 62.6979 455.062 62.5312C454.354 62.3646 453.542 62.1875 452.625 62C451.729 61.8125 450.823 61.6042 449.906 61.375C449.01 61.125 448.135 60.8229 447.281 60.4688C446.448 60.1146 445.688 59.6875 445 59.1875C443.5 58.125 442.573 56.7292 442.219 55C441.698 56.125 441.438 57.2396 441.438 58.3438C441.438 59.4479 441.625 60.375 442 61.125C442.396 61.875 442.906 62.5312 443.531 63.0938C444.177 63.6562 444.906 64.1354 445.719 64.5312C446.531 64.9062 447.375 65.2292 448.25 65.5C449.792 65.9375 451.135 66.2188 452.281 66.3438C453.448 66.4688 454.406 66.5938 455.156 66.7188C455.927 66.8229 456.729 66.9688 457.562 67.1562C458.396 67.3438 459.229 67.5729 460.062 67.8438C460.896 68.0938 461.667 68.3958 462.375 68.75C463.938 69.5417 464.875 70.4688 465.188 71.5312ZM461.594 53.1562C458.906 51.0312 455.469 49.9688 451.281 49.9688C448.76 49.9688 446.969 50.6562 445.906 52.0312C445.531 52.5312 445.344 53.125 445.344 53.8125C445.344 54.5 445.552 55.0938 445.969 55.5938C446.385 56.0729 446.917 56.5 447.562 56.875C448.208 57.25 448.927 57.5729 449.719 57.8438C450.531 58.1146 451.323 58.3438 452.094 58.5312C452.885 58.7188 453.615 58.875 454.281 59C454.969 59.125 455.771 59.2812 456.688 59.4688C457.625 59.6562 458.854 59.9896 460.375 60.4688C461.917 60.9271 463.323 61.5417 464.594 62.3125C467.469 64.1042 468.906 66.5104 468.906 69.5312C468.906 72.8646 467.323 75.5417 464.156 77.5625C461.323 79.375 458.271 80.2812 455 80.2812C449.521 80.2812 444.917 78.6875 441.188 75.5V76.5625C441.188 76.8958 441.208 77.2188 441.25 77.5312V77.6562C441.25 78.0729 441.104 78.4479 440.812 78.7812C440.542 79.1146 440.177 79.2812 439.719 79.2812C439.281 79.2812 438.885 79.1354 438.531 78.8438C438.198 78.5729 438.01 78.2292 437.969 77.8125C437.927 77.3958 437.906 76.9792 437.906 76.5625V75.25C437.906 73.5833 437.958 72.1146 438.062 70.8438C438.167 69.5521 438.229 68.7917 438.25 68.5625C438.292 68.3333 438.458 68.0833 438.75 67.8125C439.062 67.5208 439.448 67.375 439.906 67.375C440.385 67.375 440.771 67.5417 441.062 67.875C441.354 68.2083 441.5 68.5729 441.5 68.9688V69.1562C441.438 69.7188 441.375 70.3854 441.312 71.1562C444.938 75.0312 449.5 76.9688 455 76.9688C457.458 76.9688 459.448 76.5625 460.969 75.75C461.99 75.2083 462.5 74.5208 462.5 73.6875C462.5 71.9375 459.698 70.6562 454.094 69.8438C453.531 69.7604 452.729 69.6667 451.688 69.5625C450.667 69.4375 449.281 69.125 447.531 68.625C445.802 68.1042 444.24 67.3958 442.844 66.5C439.74 64.5 438.188 61.8438 438.188 58.5312C438.188 55.0104 439.552 52.1146 442.281 49.8438C444.781 47.7396 447.781 46.6875 451.281 46.6875C455.802 46.6875 459.646 47.7812 462.812 49.9688C463.604 48.0104 464.281 46.8958 464.844 46.625C465.115 46.5 465.427 46.4375 465.781 46.4375C466.156 46.4375 466.5 46.6042 466.812 46.9375C467.125 47.25 467.281 47.5938 467.281 47.9688C467.281 48.3438 467.042 48.9375 466.562 49.75C465.188 52.1042 464.323 54.7083 463.969 57.5625C463.906 57.9583 463.719 58.2917 463.406 58.5625C463.094 58.8333 462.719 58.9688 462.281 58.9688C461.844 58.9688 461.469 58.8021 461.156 58.4688C460.844 58.1146 460.688 57.7292 460.688 57.3125V57.0625C460.917 55.7708 461.219 54.4688 461.594 53.1562Z" fill="#41D519"/>
<path d="M516.656 54.875C516.073 53.125 514.885 51.7396 513.094 50.7188C511.531 49.8229 509.896 49.375 508.188 49.375C506.479 49.375 505.073 49.6042 503.969 50.0625C502.865 50.5 501.896 51.1042 501.062 51.875C500.229 52.625 499.51 53.5104 498.906 54.5312C498.323 55.5312 497.844 56.5833 497.469 57.6875C496.76 59.8125 496.406 61.8646 496.406 63.8438C496.427 65.8021 496.635 67.4896 497.031 68.9062C497.448 70.3021 498.052 71.5417 498.844 72.625C500.615 75.0417 502.938 76.25 505.812 76.25C508.292 76.25 510.49 75.0938 512.406 72.7812C513.844 71.0104 514.979 68.7708 515.812 66.0625C516.5 63.7917 516.781 62.2604 516.656 61.4688V54.875ZM519.969 75.75C521.427 75.4375 522.938 75.2292 524.5 75.125V36.4688C523.438 36.6354 522.01 36.7188 520.219 36.7188H519.969V75.75ZM514.781 33.1875C515.531 33.25 516.385 33.3125 517.344 33.375C518.302 33.4167 519.594 33.4375 521.219 33.4375C522.844 33.4375 524.365 33.2708 525.781 32.9375H526.188C526.667 32.9375 527.052 33.1042 527.344 33.4375C527.635 33.75 527.781 34.1146 527.781 34.5312V74.9062H528.406C529.865 74.9062 530.885 74.9375 531.469 75C532.073 75.0625 532.51 75.25 532.781 75.5625C533.073 75.875 533.219 76.2604 533.219 76.7188C533.219 77.1771 533.031 77.5625 532.656 77.875C532.302 78.1667 531.938 78.3125 531.562 78.3125H531.438C530.396 78.2292 529.292 78.1875 528.125 78.1875C526.979 78.1875 525.823 78.25 524.656 78.375C523.49 78.5 522.469 78.6354 521.594 78.7812C520.74 78.9479 520.052 79.0938 519.531 79.2188C519.031 79.3438 518.76 79.4167 518.719 79.4375C518.677 79.4583 518.615 79.4688 518.531 79.4688H518.312C517.833 79.4688 517.438 79.2917 517.125 78.9375C516.812 78.6042 516.656 78.2292 516.656 77.8125V72.5C515.115 75.7083 512.677 77.875 509.344 79C508.24 79.3542 506.885 79.5312 505.281 79.5312C503.698 79.5312 502.125 79.125 500.562 78.3125C499 77.5 497.677 76.4167 496.594 75.0625C494.344 72.2708 493.198 68.7708 493.156 64.5625C493.156 59.5833 494.365 55.3438 496.781 51.8438C499.385 48.0312 503.042 46.125 507.75 46.125C511.292 46.125 514.26 47.1458 516.656 49.1875V36.5938C516.656 36.5938 515.073 36.4583 511.906 36.1875C511.49 36.125 511.135 35.9375 510.844 35.625C510.573 35.3125 510.438 34.9375 510.438 34.5C510.438 34.0625 510.604 33.6979 510.938 33.4062C511.292 33.0938 511.677 32.9375 512.094 32.9375H512.281C512.302 32.9375 512.542 32.9688 513 33.0312C513.458 33.0729 514.052 33.125 514.781 33.1875Z" fill="#41D519"/>
<path d="M547.812 50.4688C542.333 52.4479 539.594 56.6042 539.594 62.9375C539.594 66.9167 540.969 70.25 543.719 72.9375C544.573 73.7708 545.552 74.4688 546.656 75.0312C544.865 72.3646 543.969 68.7188 543.969 64.0938C543.969 60.8229 544.208 58.3854 544.688 56.7812C545.438 54.2396 546.479 52.1354 547.812 50.4688ZM547.281 62.75C549.615 63.4792 552.292 63.8438 555.312 63.8438C558.333 63.8438 561.271 63.2083 564.125 61.9375V61.4062C564.125 56.3646 562.51 52.8854 559.281 50.9688C558.156 50.3021 556.802 49.8542 555.219 49.625C550.135 50.2083 547.49 54.5833 547.281 62.75ZM567.375 61.3438L567.312 63.1562C567.104 64.8854 564.354 66.1146 559.062 66.8438C557.375 67.0729 555.583 67.1875 553.688 67.1875C551.812 67.1875 549.698 66.8646 547.344 66.2188C547.802 70.9479 549.385 74.1458 552.094 75.8125C553.094 76.4167 554.073 76.7188 555.031 76.7188C556.01 76.7188 556.833 76.6562 557.5 76.5312C558.167 76.3854 558.823 76.1875 559.469 75.9375C560.927 75.3333 561.948 74.6042 562.531 73.75C562.885 73.3333 563.292 73.125 563.75 73.125C564.229 73.125 564.635 73.3021 564.969 73.6562C565.302 73.9896 565.469 74.375 565.469 74.8125C565.469 75.2292 565.333 75.5625 565.062 75.8125C564.167 77.2083 562.5 78.3125 560.062 79.125C555.542 80.6042 551.198 80.4792 547.031 78.75C542.656 76.9583 539.552 73.9375 537.719 69.6875C536.802 67.6042 536.344 65.3021 536.344 62.7812C536.344 60.2396 536.74 57.9375 537.531 55.875C538.323 53.7917 539.448 52.0417 540.906 50.625C543.885 47.7083 548 46.25 553.25 46.25C562.667 46.6458 567.375 51.6771 567.375 61.3438Z" fill="#41D519"/>
<path d="M606 36.7188C606 36.7188 605.24 36.7188 603.719 36.7188C602.99 36.7188 602.229 36.6979 601.438 36.6562L600.75 75.125H604.906L606 36.7188ZM593.188 32.5625C597.312 33.1458 601.24 33.4375 604.969 33.4375C608.698 33.4375 611.604 33.3333 613.688 33.125H613.812C614.292 33.125 614.688 33.2917 615 33.625C615.312 33.9583 615.469 34.3438 615.469 34.7812C615.469 35.1979 615.323 35.5625 615.031 35.875C614.74 36.1667 614.292 36.3438 613.688 36.4062C612.604 36.5104 611.125 36.6146 609.25 36.7188L608.25 75.25C609.438 75.3333 611.073 75.4583 613.156 75.625C614.135 75.8333 614.625 76.4271 614.625 77.4062C614.583 77.8646 614.396 78.2188 614.062 78.4688C613.75 78.7396 613.385 78.875 612.969 78.875H612.844C606.198 78.2083 599.625 78.2083 593.125 78.875H593C592.521 78.875 592.125 78.7188 591.812 78.4062C591.5 78.0729 591.344 77.6979 591.344 77.2812C591.344 76.8646 591.479 76.5 591.75 76.1875C592.042 75.875 592.479 75.6875 593.062 75.625C593.667 75.5625 594.354 75.5 595.125 75.4375C595.917 75.375 596.698 75.3125 597.469 75.25L598.188 36.375C596.396 36.25 594.583 36.0625 592.75 35.8125C592.333 35.75 591.99 35.5625 591.719 35.25C591.469 34.9375 591.344 34.5521 591.344 34.0938C591.344 33.6354 591.531 33.2708 591.906 33C592.281 32.7083 592.646 32.5625 593 32.5625H593.188Z" fill="#41D519"/>
<path d="M632.625 51.5C631.562 51.6667 630.135 51.75 628.344 51.75H628.094V75.25C629.135 75.25 630.031 75.25 630.781 75.25C631.552 75.25 632.167 75.2708 632.625 75.3125V51.5ZM628.406 48.4062C630.656 48.4062 632.615 48.2396 634.281 47.9062C634.76 47.9062 635.156 48.0833 635.469 48.4375C635.802 48.7708 635.969 49.1458 635.969 49.5625V52.7812C638.406 49.1979 641.75 47.4062 646 47.4062C650.271 47.4062 653.052 50.0312 654.344 55.2812C654.802 57.0729 655.031 58.8125 655.031 60.5C655.031 62.1875 654.979 63.6562 654.875 64.9062C654.771 66.1354 654.635 67.3646 654.469 68.5938C654.177 71.0312 653.812 73.1354 653.375 74.9062C654.167 74.9479 654.979 74.9896 655.812 75.0312C656.667 75.0729 657.427 75.125 658.094 75.1875C659.302 75.3333 659.906 75.9479 659.906 77.0312C659.865 77.4479 659.677 77.8021 659.344 78.0938C659.01 78.3646 658.635 78.5 658.219 78.5H658.094C656.094 78.2917 653.906 78.1875 651.531 78.1875C649.177 78.1875 646.969 78.4167 644.906 78.875C644.469 78.875 644.083 78.7083 643.75 78.375C643.417 78.0208 643.25 77.6458 643.25 77.25C643.25 76.8542 643.375 76.5 643.625 76.1875C643.896 75.875 644.344 75.6667 644.969 75.5625C645.906 75.375 647.573 75.1771 649.969 74.9688C650.656 72.5938 651.125 70.0104 651.375 67.2188C651.625 64.4062 651.75 62.4896 651.75 61.4688C651.75 54.2604 649.833 50.6562 646 50.6562C643.25 50.6562 640.865 51.9167 638.844 54.4375C636.927 56.7917 635.969 59.25 635.969 61.8125V61.875L635.906 75.625C636.281 75.6667 636.646 75.7083 637 75.75C637.354 75.7708 637.719 75.8125 638.094 75.875C638.49 75.9167 638.823 76.0938 639.094 76.4062C639.385 76.6979 639.531 77.0625 639.531 77.5C639.531 77.9375 639.354 78.3229 639 78.6562C638.667 78.9896 638.375 79.1562 638.125 79.1562C637.875 79.1562 637.729 79.125 637.688 79.0625C633.938 78.6875 631.354 78.5 629.938 78.5C627.167 78.5 624.979 78.6458 623.375 78.9375C621.771 79.25 620.812 79.4062 620.5 79.4062C620.208 79.4062 619.917 79.2292 619.625 78.875C619.333 78.5208 619.188 78.1458 619.188 77.75C619.188 77.3542 619.302 77 619.531 76.6875C619.76 76.375 620.167 76.1667 620.75 76.0625C621.917 75.8333 623.271 75.6458 624.812 75.5V51.625C622.021 51.5 620.427 51.3542 620.031 51.1875C619.615 51.1458 619.271 50.9688 619 50.6562C618.75 50.3438 618.625 49.9583 618.625 49.5C618.625 49.0417 618.802 48.6667 619.156 48.375C619.51 48.0625 619.802 47.9062 620.031 47.9062C620.281 47.9062 620.417 47.9167 620.438 47.9375C620.479 47.9583 620.729 47.9896 621.188 48.0312C621.646 48.0729 622.24 48.125 622.969 48.1875C624.698 48.3333 626.51 48.4062 628.406 48.4062Z" fill="#41D519"/>
<path d="M685.938 63.75C686.167 62.6667 686.281 61.6146 686.281 60.5938V57.5C686.281 56.4375 686.26 55.4375 686.219 54.5C685.344 52.4167 683.833 50.8958 681.688 49.9375C680.646 49.4583 679.198 49.2083 677.344 49.1875C675.51 49.1458 673.854 49.5312 672.375 50.3438C670.896 51.1354 669.677 52.2188 668.719 53.5938C666.885 56.2188 665.969 59.7604 665.969 64.2188C666.01 67.4896 666.823 70.2083 668.406 72.375C670.177 74.7917 672.5 76 675.375 76C677.438 76 679.365 75.0625 681.156 73.1875C683.531 70.7292 685.125 67.5833 685.938 63.75ZM689.344 50.0938L689.594 63C689.594 65.2708 689.594 67.5833 689.594 69.9375C689.615 72.2917 689.542 74.6146 689.375 76.9062C689 82.1146 688.031 86.3125 686.469 89.5C690.677 86.9583 693 82.3542 693.438 75.6875C693.771 70.1458 693.938 63.8542 693.938 56.8125V50.1562H693.438L689.344 50.0938ZM687.688 46.6875L693.5 46.875C696.146 46.875 697.771 46.8125 698.375 46.6875C699 46.5625 699.344 46.5 699.406 46.5H699.531C699.969 46.5 700.354 46.6771 700.688 47.0312C701.021 47.3646 701.188 47.7396 701.188 48.1562C701.188 48.5521 701.052 48.9062 700.781 49.2188C700.531 49.5104 700.219 49.6875 699.844 49.75C699.177 49.875 698.302 49.9896 697.219 50.0938L697.281 56.8125C697.281 63.9792 697.083 70.3333 696.688 75.875C696.333 81.1875 694.594 85.6458 691.469 89.25C688.135 93.0833 683.99 95 679.031 95C675.531 95 672.594 93.9062 670.219 91.7188C667.865 89.5521 666.688 86.8333 666.688 83.5625V83.5C666.688 83.0417 666.844 82.6458 667.156 82.3125C667.469 82 667.854 81.8438 668.312 81.8438C668.792 81.8438 669.177 82 669.469 82.3125C669.781 82.6458 669.938 83.25 669.938 84.125C669.938 85 670.188 85.9375 670.688 86.9375C671.188 87.9583 671.865 88.8333 672.719 89.5625C674.427 91.0208 676.51 91.75 678.969 91.75C682.281 91.75 684.427 88.2083 685.406 81.125C685.76 78.6667 686.01 75.7396 686.156 72.3438C684.594 75.5312 682.156 77.6667 678.844 78.75C677.781 79.1042 676.448 79.2812 674.844 79.2812C673.26 79.2812 671.688 78.875 670.125 78.0625C668.562 77.25 667.24 76.1562 666.156 74.7812C663.906 71.9688 662.76 68.4688 662.719 64.2812C662.719 58.9479 663.969 54.625 666.469 51.3125C669.219 47.6875 673.021 45.875 677.875 45.875C681.104 45.9792 683.812 46.9375 686 48.75L685.938 48.4062V48.3438C685.938 47.9062 686.115 47.5208 686.469 47.1875C686.823 46.8542 687.208 46.6875 687.625 46.6875H687.688Z" fill="#41D519"/>
<path d="M716.438 50.4688C710.958 52.4479 708.219 56.6042 708.219 62.9375C708.219 66.9167 709.594 70.25 712.344 72.9375C713.198 73.7708 714.177 74.4688 715.281 75.0312C713.49 72.3646 712.594 68.7188 712.594 64.0938C712.594 60.8229 712.833 58.3854 713.312 56.7812C714.062 54.2396 715.104 52.1354 716.438 50.4688ZM715.906 62.75C718.24 63.4792 720.917 63.8438 723.938 63.8438C726.958 63.8438 729.896 63.2083 732.75 61.9375V61.4062C732.75 56.3646 731.135 52.8854 727.906 50.9688C726.781 50.3021 725.427 49.8542 723.844 49.625C718.76 50.2083 716.115 54.5833 715.906 62.75ZM736 61.3438L735.938 63.1562C735.729 64.8854 732.979 66.1146 727.688 66.8438C726 67.0729 724.208 67.1875 722.312 67.1875C720.438 67.1875 718.323 66.8646 715.969 66.2188C716.427 70.9479 718.01 74.1458 720.719 75.8125C721.719 76.4167 722.698 76.7188 723.656 76.7188C724.635 76.7188 725.458 76.6562 726.125 76.5312C726.792 76.3854 727.448 76.1875 728.094 75.9375C729.552 75.3333 730.573 74.6042 731.156 73.75C731.51 73.3333 731.917 73.125 732.375 73.125C732.854 73.125 733.26 73.3021 733.594 73.6562C733.927 73.9896 734.094 74.375 734.094 74.8125C734.094 75.2292 733.958 75.5625 733.688 75.8125C732.792 77.2083 731.125 78.3125 728.688 79.125C724.167 80.6042 719.823 80.4792 715.656 78.75C711.281 76.9583 708.177 73.9375 706.344 69.6875C705.427 67.6042 704.969 65.3021 704.969 62.7812C704.969 60.2396 705.365 57.9375 706.156 55.875C706.948 53.7917 708.073 52.0417 709.531 50.625C712.51 47.7083 716.625 46.25 721.875 46.25C731.292 46.6458 736 51.6771 736 61.3438Z" fill="#41D519"/>
<path d="M753.125 51.5C752.062 51.6667 750.635 51.75 748.844 51.75H748.594V75.25C749.635 75.25 750.531 75.25 751.281 75.25C752.052 75.25 752.667 75.2708 753.125 75.3125V51.5ZM748.906 48.4062C751.156 48.4062 753.115 48.2396 754.781 47.9062C755.26 47.9062 755.656 48.0833 755.969 48.4375C756.302 48.7708 756.469 49.1458 756.469 49.5625V52.7812C758.906 49.1979 762.25 47.4062 766.5 47.4062C770.771 47.4062 773.552 50.0312 774.844 55.2812C775.302 57.0729 775.531 58.8125 775.531 60.5C775.531 62.1875 775.479 63.6562 775.375 64.9062C775.271 66.1354 775.135 67.3646 774.969 68.5938C774.677 71.0312 774.312 73.1354 773.875 74.9062C774.667 74.9479 775.479 74.9896 776.312 75.0312C777.167 75.0729 777.927 75.125 778.594 75.1875C779.802 75.3333 780.406 75.9479 780.406 77.0312C780.365 77.4479 780.177 77.8021 779.844 78.0938C779.51 78.3646 779.135 78.5 778.719 78.5H778.594C776.594 78.2917 774.406 78.1875 772.031 78.1875C769.677 78.1875 767.469 78.4167 765.406 78.875C764.969 78.875 764.583 78.7083 764.25 78.375C763.917 78.0208 763.75 77.6458 763.75 77.25C763.75 76.8542 763.875 76.5 764.125 76.1875C764.396 75.875 764.844 75.6667 765.469 75.5625C766.406 75.375 768.073 75.1771 770.469 74.9688C771.156 72.5938 771.625 70.0104 771.875 67.2188C772.125 64.4062 772.25 62.4896 772.25 61.4688C772.25 54.2604 770.333 50.6562 766.5 50.6562C763.75 50.6562 761.365 51.9167 759.344 54.4375C757.427 56.7917 756.469 59.25 756.469 61.8125V61.875L756.406 75.625C756.781 75.6667 757.146 75.7083 757.5 75.75C757.854 75.7708 758.219 75.8125 758.594 75.875C758.99 75.9167 759.323 76.0938 759.594 76.4062C759.885 76.6979 760.031 77.0625 760.031 77.5C760.031 77.9375 759.854 78.3229 759.5 78.6562C759.167 78.9896 758.875 79.1562 758.625 79.1562C758.375 79.1562 758.229 79.125 758.188 79.0625C754.438 78.6875 751.854 78.5 750.438 78.5C747.667 78.5 745.479 78.6458 743.875 78.9375C742.271 79.25 741.312 79.4062 741 79.4062C740.708 79.4062 740.417 79.2292 740.125 78.875C739.833 78.5208 739.688 78.1458 739.688 77.75C739.688 77.3542 739.802 77 740.031 76.6875C740.26 76.375 740.667 76.1667 741.25 76.0625C742.417 75.8333 743.771 75.6458 745.312 75.5V51.625C742.521 51.5 740.927 51.3542 740.531 51.1875C740.115 51.1458 739.771 50.9688 739.5 50.6562C739.25 50.3438 739.125 49.9583 739.125 49.5C739.125 49.0417 739.302 48.6667 739.656 48.375C740.01 48.0625 740.302 47.9062 740.531 47.9062C740.781 47.9062 740.917 47.9167 740.938 47.9375C740.979 47.9583 741.229 47.9896 741.688 48.0312C742.146 48.0729 742.74 48.125 743.469 48.1875C745.198 48.3333 747.01 48.4062 748.906 48.4062Z" fill="#41D519"/>
<path d="M795.812 51.1875C794.75 51.3542 793.323 51.4375 791.531 51.4375H791.281V74.9688C791.677 74.9271 792.062 74.9062 792.438 74.9062C793.188 74.9062 793.844 74.9062 794.406 74.9062C794.969 74.9062 795.438 74.9271 795.812 74.9688V51.1875ZM795.438 38.125C795.438 37.4792 795.208 36.9375 794.75 36.5C794.312 36.0417 793.771 35.8125 793.125 35.8125C792.479 35.8125 791.938 36.0417 791.5 36.5C791.062 36.9375 790.844 37.4792 790.844 38.125C790.844 38.7708 791.062 39.3125 791.5 39.75C791.938 40.1875 792.479 40.4062 793.125 40.4062C793.771 40.4062 794.312 40.1875 794.75 39.75C795.208 39.3125 795.438 38.7708 795.438 38.125ZM803.25 79.2188C799.812 78.5312 796.604 78.1875 793.625 78.1875C790.646 78.1875 787.438 78.5312 784 79.2188C783.521 79.2188 783.125 79.0417 782.812 78.6875C782.521 78.3333 782.375 77.9583 782.375 77.5625C782.375 77.1667 782.49 76.8125 782.719 76.5C782.969 76.1875 783.365 75.9792 783.906 75.875C784.469 75.75 785.115 75.6458 785.844 75.5625C786.594 75.4583 787.323 75.3542 788.031 75.25V51.3125L783.219 50.9062C782.802 50.8438 782.458 50.6562 782.188 50.3438C781.938 50.0312 781.812 49.6458 781.812 49.1875C781.812 48.7083 782 48.3333 782.375 48.0625C782.75 47.7917 783.115 47.6562 783.469 47.6562H783.656C783.677 47.6562 783.917 47.6875 784.375 47.75C784.833 47.7917 785.427 47.8438 786.156 47.9062C788.135 48.0729 789.948 48.1562 791.594 48.1562C793.885 48.1562 795.74 47.9896 797.156 47.6562H797.5C797.979 47.6562 798.375 47.8229 798.688 48.1562C799 48.4688 799.156 48.8333 799.156 49.25L799.094 75.25C799.823 75.3542 800.552 75.4583 801.281 75.5625C802.031 75.6458 802.698 75.75 803.281 75.875C804.365 76.0833 804.906 76.6354 804.906 77.5312C804.906 78.0104 804.729 78.4062 804.375 78.7188C804.021 79.0521 803.646 79.2188 803.25 79.2188ZM798.719 38.125C798.719 39.6875 798.177 41 797.094 42.0625C795.969 43.1458 794.646 43.6875 793.125 43.6875C791.583 43.6875 790.271 43.1458 789.188 42.0625C788.104 40.9792 787.562 39.6667 787.562 38.125C787.562 36.5833 788.104 35.2708 789.188 34.1875C790.271 33.1042 791.583 32.5625 793.125 32.5625C794.646 32.5625 795.969 33.1042 797.094 34.1875C798.177 35.25 798.719 36.5625 798.719 38.125Z" fill="#41D519"/>
<path d="M819.219 50.2812C815.49 51.7188 813.031 54.4167 811.844 58.375C811.427 59.75 811.219 61.3021 811.219 63.0312C811.219 64.7604 811.417 66.3125 811.812 67.6875C812.208 69.0625 812.74 70.2708 813.406 71.3125C814.698 73.25 816.49 74.6875 818.781 75.625C816.698 72.7292 815.656 68.4792 815.656 62.875C815.656 57.2708 816.844 53.0729 819.219 50.2812ZM835.125 72.2188C836.104 70.9688 836.844 69.5417 837.344 67.9375C837.865 66.3333 838.125 64.8542 838.125 63.5C838.125 62.1458 838.01 60.9479 837.781 59.9062C837.552 58.8646 837.219 57.8542 836.781 56.875C836.344 55.8958 835.812 54.9792 835.188 54.125C834.562 53.2708 833.865 52.5208 833.094 51.875C831.406 50.5208 829.562 49.8438 827.562 49.8438C823.521 49.8438 820.885 52.2188 819.656 56.9688C819.198 58.7188 818.969 60.3438 818.969 61.8438C818.969 63.3229 819.01 64.5833 819.094 65.625C819.177 66.6458 819.323 67.6667 819.531 68.6875C819.74 69.6875 820.021 70.6562 820.375 71.5938C820.729 72.5312 821.188 73.3542 821.75 74.0625C822.979 75.6042 824.552 76.375 826.469 76.375C828.406 76.375 830.083 76 831.5 75.25C832.938 74.4792 834.146 73.4688 835.125 72.2188ZM841.375 63.1562C841.375 65.5521 840.927 67.7917 840.031 69.875C839.135 71.9583 837.927 73.75 836.406 75.25C833.177 78.3958 829.26 79.9688 824.656 79.9688C819.594 79.9688 815.542 78.4271 812.5 75.3438C809.479 72.2812 807.969 68.1667 807.969 63C807.969 58.1042 809.573 54.0417 812.781 50.8125C815.948 47.6042 819.906 46 824.656 46C829.49 46 833.51 47.6875 836.719 51.0625C839.823 54.3125 841.375 58.3438 841.375 63.1562Z" fill="#41D519"/>
</g>
<rect x="216.5" y="13.5" width="642.375" height="99" stroke="#4CBE3A" stroke-width="5"/>
</g>
</g>
</svg>
