<svg viewBox="0 0 1011 700" fill="none" xmlns="http://www.w3.org/2000/svg">
<g id="0132102">
<g id="enunciado">
<g id="Group 71">
<path id="Rectangle 1" d="M0 61.9676C0 29.4824 23.7112 3.14789 52.9605 3.14789H966V410.18C966 442.666 942.289 469 913.039 469H0V61.9676Z" fill="#02071A"/>
<path id="Rectangle 1 (Stroke)" fill-rule="evenodd" clip-rule="evenodd" d="M960.704 8.9814H52.9605C26.6362 8.9814 5.29605 32.6849 5.29605 61.9247V463.117H913.039C939.364 463.117 960.704 439.414 960.704 410.174V8.9814ZM52.9605 3.09882C23.7112 3.09882 0 29.436 0 61.9247V469H913.039C942.289 469 966 442.662 966 410.174V3.09882H52.9605Z" fill="#F318F8"/>
<path id="Rectangle 14" d="M57.3562 3.25348C85.682 -4.06684 966 3.25348 966 3.25348V34.9447C966 34.9447 42.3683 23.2965 9.53284 34.9447C19.7497 18.1361 29.0303 10.5738 57.3562 3.25348Z" fill="#F318F8"/>
<path id="Rectangle 15" d="M932.479 10.0726H963.968V411.392C960.103 438.627 952.092 448.636 932.479 461.702C938.252 440.306 932.479 10.0726 932.479 10.0726Z" fill="#F318F8"/>
</g>
<g id="&#194;&#191;Cu&#195;&#161;ntos palitos debes mover, como m&#195;&#173;nimo, para obtener 5 cuadrados?">
<path d="M33.3359 77.5674C33.3242 78.8096 33.1953 79.8057 32.9492 80.5557C32.7148 81.2939 32.3164 82.0088 31.7539 82.7002C31.1914 83.3916 30.3711 84.3057 29.293 85.4424C28.2148 86.5674 27.6113 87.71 27.4824 88.8701L27.4473 89.5205C27.4473 90.7979 27.7871 91.7705 28.4668 92.4385C29.1465 93.1182 30.125 93.458 31.4023 93.458C32.5742 93.458 33.5234 93.124 34.25 92.4561C34.9883 91.7998 35.3574 90.9385 35.3574 89.8721H38.6094C38.5859 91.7588 37.9121 93.2998 36.5879 94.4951C35.2754 95.6904 33.5469 96.2881 31.4023 96.2881C29.1055 96.2881 27.3301 95.6963 26.0762 94.5127C24.8223 93.3408 24.1953 91.7061 24.1953 89.6084C24.1953 87.5811 25.1328 85.542 27.0078 83.4912L28.9238 81.5049C29.6973 80.5908 30.084 79.2783 30.084 77.5674H33.3359ZM33.4766 71.9951C33.4766 72.5225 33.3125 72.9678 32.9844 73.3311C32.668 73.6943 32.1934 73.876 31.5605 73.876C30.9277 73.876 30.4473 73.6943 30.1191 73.3311C29.791 72.9678 29.627 72.5225 29.627 71.9951C29.627 71.4795 29.791 71.0459 30.1191 70.6943C30.4473 70.3428 30.9277 70.167 31.5605 70.167C32.1934 70.167 32.668 70.3428 32.9844 70.6943C33.3125 71.0459 33.4766 71.4795 33.4766 71.9951Z" fill="white"/>
<path d="M61.8477 81.3994C61.5312 84.1064 60.5293 86.1982 58.8418 87.6748C57.166 89.1396 54.9336 89.8721 52.1445 89.8721C49.1211 89.8721 46.6953 88.7881 44.8672 86.6201C43.0508 84.4521 42.1426 81.5518 42.1426 77.9189V75.458C42.1426 73.0791 42.5645 70.9873 43.4082 69.1826C44.2637 67.3779 45.4707 65.9951 47.0293 65.0342C48.5879 64.0615 50.3926 63.5752 52.4434 63.5752C55.1621 63.5752 57.3418 64.3369 58.9824 65.8604C60.623 67.3721 61.5781 69.4697 61.8477 72.1533H58.4551C58.1621 70.1143 57.5234 68.6377 56.5391 67.7236C55.5664 66.8096 54.2012 66.3525 52.4434 66.3525C50.2871 66.3525 48.5938 67.1494 47.3633 68.7432C46.1445 70.3369 45.5352 72.6045 45.5352 75.5459V78.0244C45.5352 80.8018 46.1152 83.0107 47.2754 84.6514C48.4355 86.292 50.0586 87.1123 52.1445 87.1123C54.0195 87.1123 55.4551 86.6904 56.4512 85.8467C57.459 84.9912 58.127 83.5088 58.4551 81.3994H61.8477Z" fill="white"/>
<path d="M77.7031 87.6396C76.4375 89.1279 74.5801 89.8721 72.1309 89.8721C70.1035 89.8721 68.5566 89.2861 67.4902 88.1143C66.4355 86.9307 65.9023 85.1846 65.8906 82.876V70.501H69.1426V82.7881C69.1426 85.6709 70.3145 87.1123 72.6582 87.1123C75.1426 87.1123 76.7949 86.1865 77.6152 84.335V70.501H80.8672V89.5205H77.7734L77.7031 87.6396Z" fill="white"/>
<path d="M97.5664 89.5205C97.3789 89.1455 97.2266 88.4775 97.1094 87.5166C95.5977 89.0869 93.793 89.8721 91.6953 89.8721C89.8203 89.8721 88.2793 89.3447 87.0723 88.29C85.877 87.2236 85.2793 85.876 85.2793 84.2471C85.2793 82.2666 86.0293 80.7314 87.5293 79.6416C89.041 78.54 91.1621 77.9893 93.8926 77.9893H97.0566V76.4951C97.0566 75.3584 96.7168 74.4561 96.0371 73.7881C95.3574 73.1084 94.3555 72.7686 93.0312 72.7686C91.8711 72.7686 90.8984 73.0615 90.1133 73.6475C89.3281 74.2334 88.9355 74.9424 88.9355 75.7744H85.666C85.666 74.8252 86 73.9111 86.668 73.0322C87.3477 72.1416 88.2617 71.4385 89.4102 70.9229C90.5703 70.4072 91.8418 70.1494 93.2246 70.1494C95.416 70.1494 97.1328 70.7002 98.375 71.8018C99.6172 72.8916 100.262 74.3975 100.309 76.3193V85.0732C100.309 86.8193 100.531 88.208 100.977 89.2393V89.5205H97.5664ZM92.1699 87.042C93.1895 87.042 94.1562 86.7783 95.0703 86.251C95.9844 85.7236 96.6465 85.0381 97.0566 84.1943V80.292H94.5078C90.5234 80.292 88.5312 81.458 88.5312 83.79C88.5312 84.8096 88.8711 85.6064 89.5508 86.1807C90.2305 86.7549 91.1035 87.042 92.1699 87.042ZM95.1758 62.5205H99.1133L94.4023 67.6885H91.7832L95.1758 62.5205Z" fill="white"/>
<path d="M108.482 70.501L108.588 72.8916C110.041 71.0635 111.939 70.1494 114.283 70.1494C118.303 70.1494 120.33 72.417 120.365 76.9521V89.5205H117.113V76.9346C117.102 75.5635 116.785 74.5498 116.164 73.8936C115.555 73.2373 114.6 72.9092 113.299 72.9092C112.244 72.9092 111.318 73.1904 110.521 73.7529C109.725 74.3154 109.104 75.0537 108.658 75.9678V89.5205H105.406V70.501H108.482Z" fill="white"/>
<path d="M129.682 65.8955V70.501H133.232V73.0146H129.682V84.8096C129.682 85.5713 129.84 86.1455 130.156 86.5322C130.473 86.9072 131.012 87.0947 131.773 87.0947C132.148 87.0947 132.664 87.0244 133.32 86.8838V89.5205C132.465 89.7549 131.633 89.8721 130.824 89.8721C129.371 89.8721 128.275 89.4326 127.537 88.5537C126.799 87.6748 126.43 86.4268 126.43 84.8096V73.0146H122.967V70.501H126.43V65.8955H129.682Z" fill="white"/>
<path d="M135.834 79.835C135.834 77.9717 136.197 76.2959 136.924 74.8076C137.662 73.3193 138.682 72.1709 139.982 71.3623C141.295 70.5537 142.789 70.1494 144.465 70.1494C147.055 70.1494 149.146 71.0459 150.74 72.8389C152.346 74.6318 153.148 77.0166 153.148 79.9932V80.2217C153.148 82.0732 152.791 83.7373 152.076 85.2139C151.373 86.6787 150.359 87.8213 149.035 88.6416C147.723 89.4619 146.211 89.8721 144.5 89.8721C141.922 89.8721 139.83 88.9756 138.225 87.1826C136.631 85.3896 135.834 83.0166 135.834 80.0635V79.835ZM139.104 80.2217C139.104 82.3311 139.59 84.0244 140.562 85.3018C141.547 86.5791 142.859 87.2178 144.5 87.2178C146.152 87.2178 147.465 86.5732 148.438 85.2842C149.41 83.9834 149.896 82.167 149.896 79.835C149.896 77.749 149.398 76.0615 148.402 74.7725C147.418 73.4717 146.105 72.8213 144.465 72.8213C142.859 72.8213 141.564 73.46 140.58 74.7373C139.596 76.0146 139.104 77.8428 139.104 80.2217Z" fill="white"/>
<path d="M168.301 84.4756C168.301 83.5967 167.967 82.917 167.299 82.4365C166.643 81.9443 165.488 81.5225 163.836 81.1709C162.195 80.8193 160.889 80.3975 159.916 79.9053C158.955 79.4131 158.24 78.8271 157.771 78.1475C157.314 77.4678 157.086 76.6592 157.086 75.7217C157.086 74.1631 157.742 72.8447 159.055 71.7666C160.379 70.6885 162.066 70.1494 164.117 70.1494C166.273 70.1494 168.02 70.7061 169.355 71.8193C170.703 72.9326 171.377 74.3564 171.377 76.0908H168.107C168.107 75.2002 167.727 74.4326 166.965 73.7881C166.215 73.1436 165.266 72.8213 164.117 72.8213C162.934 72.8213 162.008 73.0791 161.34 73.5947C160.672 74.1104 160.338 74.7842 160.338 75.6162C160.338 76.4014 160.648 76.9932 161.27 77.3916C161.891 77.79 163.01 78.1709 164.627 78.5342C166.256 78.8975 167.574 79.3311 168.582 79.835C169.59 80.3389 170.334 80.9482 170.814 81.6631C171.307 82.3662 171.553 83.2275 171.553 84.2471C171.553 85.9463 170.873 87.3115 169.514 88.3428C168.154 89.3623 166.391 89.8721 164.223 89.8721C162.699 89.8721 161.352 89.6025 160.18 89.0635C159.008 88.5244 158.088 87.7744 157.42 86.8135C156.764 85.8408 156.436 84.792 156.436 83.667H159.688C159.746 84.7568 160.18 85.624 160.988 86.2686C161.809 86.9014 162.887 87.2178 164.223 87.2178C165.453 87.2178 166.438 86.9717 167.176 86.4795C167.926 85.9756 168.301 85.3076 168.301 84.4756Z" fill="white"/>
<path d="M200.785 80.2217C200.785 83.1162 200.123 85.4482 198.799 87.2178C197.475 88.9873 195.682 89.8721 193.42 89.8721C191.111 89.8721 189.295 89.1396 187.971 87.6748V96.833H184.719V70.501H187.689L187.848 72.6104C189.172 70.9697 191.012 70.1494 193.367 70.1494C195.652 70.1494 197.457 71.0107 198.781 72.7334C200.117 74.4561 200.785 76.8525 200.785 79.9229V80.2217ZM197.533 79.8525C197.533 77.708 197.076 76.0146 196.162 74.7725C195.248 73.5303 193.994 72.9092 192.4 72.9092C190.432 72.9092 188.955 73.7822 187.971 75.5283V84.6162C188.943 86.3506 190.432 87.2178 192.436 87.2178C193.994 87.2178 195.23 86.6025 196.145 85.3721C197.07 84.1299 197.533 82.29 197.533 79.8525Z" fill="white"/>
<path d="M216.676 89.5205C216.488 89.1455 216.336 88.4775 216.219 87.5166C214.707 89.0869 212.902 89.8721 210.805 89.8721C208.93 89.8721 207.389 89.3447 206.182 88.29C204.986 87.2236 204.389 85.876 204.389 84.2471C204.389 82.2666 205.139 80.7314 206.639 79.6416C208.15 78.54 210.271 77.9893 213.002 77.9893H216.166V76.4951C216.166 75.3584 215.826 74.4561 215.146 73.7881C214.467 73.1084 213.465 72.7686 212.141 72.7686C210.98 72.7686 210.008 73.0615 209.223 73.6475C208.438 74.2334 208.045 74.9424 208.045 75.7744H204.775C204.775 74.8252 205.109 73.9111 205.777 73.0322C206.457 72.1416 207.371 71.4385 208.52 70.9229C209.68 70.4072 210.951 70.1494 212.334 70.1494C214.525 70.1494 216.242 70.7002 217.484 71.8018C218.727 72.8916 219.371 74.3975 219.418 76.3193V85.0732C219.418 86.8193 219.641 88.208 220.086 89.2393V89.5205H216.676ZM211.279 87.042C212.299 87.042 213.266 86.7783 214.18 86.251C215.094 85.7236 215.756 85.0381 216.166 84.1943V80.292H213.617C209.633 80.292 207.641 81.458 207.641 83.79C207.641 84.8096 207.98 85.6064 208.66 86.1807C209.34 86.7549 210.213 87.042 211.279 87.042Z" fill="white"/>
<path d="M228.049 89.5205H224.797V62.5205H228.049V89.5205Z" fill="white"/>
<path d="M236.803 89.5205H233.551V70.501H236.803V89.5205ZM233.287 65.4561C233.287 64.9287 233.445 64.4834 233.762 64.1201C234.09 63.7568 234.57 63.5752 235.203 63.5752C235.836 63.5752 236.316 63.7568 236.645 64.1201C236.973 64.4834 237.137 64.9287 237.137 65.4561C237.137 65.9834 236.973 66.4229 236.645 66.7744C236.316 67.126 235.836 67.3018 235.203 67.3018C234.57 67.3018 234.09 67.126 233.762 66.7744C233.445 66.4229 233.287 65.9834 233.287 65.4561Z" fill="white"/>
<path d="M246.436 65.8955V70.501H249.986V73.0146H246.436V84.8096C246.436 85.5713 246.594 86.1455 246.91 86.5322C247.227 86.9072 247.766 87.0947 248.527 87.0947C248.902 87.0947 249.418 87.0244 250.074 86.8838V89.5205C249.219 89.7549 248.387 89.8721 247.578 89.8721C246.125 89.8721 245.029 89.4326 244.291 88.5537C243.553 87.6748 243.184 86.4268 243.184 84.8096V73.0146H239.721V70.501H243.184V65.8955H246.436Z" fill="white"/>
<path d="M252.588 79.835C252.588 77.9717 252.951 76.2959 253.678 74.8076C254.416 73.3193 255.436 72.1709 256.736 71.3623C258.049 70.5537 259.543 70.1494 261.219 70.1494C263.809 70.1494 265.9 71.0459 267.494 72.8389C269.1 74.6318 269.902 77.0166 269.902 79.9932V80.2217C269.902 82.0732 269.545 83.7373 268.83 85.2139C268.127 86.6787 267.113 87.8213 265.789 88.6416C264.477 89.4619 262.965 89.8721 261.254 89.8721C258.676 89.8721 256.584 88.9756 254.979 87.1826C253.385 85.3896 252.588 83.0166 252.588 80.0635V79.835ZM255.857 80.2217C255.857 82.3311 256.344 84.0244 257.316 85.3018C258.301 86.5791 259.613 87.2178 261.254 87.2178C262.906 87.2178 264.219 86.5732 265.191 85.2842C266.164 83.9834 266.65 82.167 266.65 79.835C266.65 77.749 266.152 76.0615 265.156 74.7725C264.172 73.4717 262.859 72.8213 261.219 72.8213C259.613 72.8213 258.318 73.46 257.334 74.7373C256.35 76.0146 255.857 77.8428 255.857 80.2217Z" fill="white"/>
<path d="M285.055 84.4756C285.055 83.5967 284.721 82.917 284.053 82.4365C283.396 81.9443 282.242 81.5225 280.59 81.1709C278.949 80.8193 277.643 80.3975 276.67 79.9053C275.709 79.4131 274.994 78.8271 274.525 78.1475C274.068 77.4678 273.84 76.6592 273.84 75.7217C273.84 74.1631 274.496 72.8447 275.809 71.7666C277.133 70.6885 278.82 70.1494 280.871 70.1494C283.027 70.1494 284.773 70.7061 286.109 71.8193C287.457 72.9326 288.131 74.3564 288.131 76.0908H284.861C284.861 75.2002 284.48 74.4326 283.719 73.7881C282.969 73.1436 282.02 72.8213 280.871 72.8213C279.688 72.8213 278.762 73.0791 278.094 73.5947C277.426 74.1104 277.092 74.7842 277.092 75.6162C277.092 76.4014 277.402 76.9932 278.023 77.3916C278.645 77.79 279.764 78.1709 281.381 78.5342C283.01 78.8975 284.328 79.3311 285.336 79.835C286.344 80.3389 287.088 80.9482 287.568 81.6631C288.061 82.3662 288.307 83.2275 288.307 84.2471C288.307 85.9463 287.627 87.3115 286.268 88.3428C284.908 89.3623 283.145 89.8721 280.977 89.8721C279.453 89.8721 278.105 89.6025 276.934 89.0635C275.762 88.5244 274.842 87.7744 274.174 86.8135C273.518 85.8408 273.189 84.792 273.189 83.667H276.441C276.5 84.7568 276.934 85.624 277.742 86.2686C278.562 86.9014 279.641 87.2178 280.977 87.2178C282.207 87.2178 283.191 86.9717 283.93 86.4795C284.68 85.9756 285.055 85.3076 285.055 84.4756Z" fill="white"/>
<path d="M300.682 79.8525C300.682 76.9346 301.373 74.5908 302.756 72.8213C304.139 71.04 305.949 70.1494 308.188 70.1494C310.414 70.1494 312.178 70.9111 313.479 72.4346V62.5205H316.73V89.5205H313.742L313.584 87.4814C312.283 89.0752 310.473 89.8721 308.152 89.8721C305.949 89.8721 304.15 88.9697 302.756 87.165C301.373 85.3604 300.682 83.0049 300.682 80.0986V79.8525ZM303.934 80.2217C303.934 82.3779 304.379 84.0654 305.27 85.2842C306.16 86.5029 307.391 87.1123 308.961 87.1123C311.023 87.1123 312.529 86.1865 313.479 84.335V75.5986C312.506 73.8057 311.012 72.9092 308.996 72.9092C307.402 72.9092 306.16 73.5244 305.27 74.7549C304.379 75.9854 303.934 77.8076 303.934 80.2217Z" fill="white"/>
<path d="M329.686 89.8721C327.107 89.8721 325.01 89.0283 323.393 87.3408C321.775 85.6416 320.967 83.374 320.967 80.5381V79.9404C320.967 78.0537 321.324 76.3721 322.039 74.8955C322.766 73.4072 323.773 72.2471 325.062 71.415C326.363 70.5713 327.77 70.1494 329.281 70.1494C331.754 70.1494 333.676 70.9639 335.047 72.5928C336.418 74.2217 337.104 76.5537 337.104 79.5889V80.9424H324.219C324.266 82.8174 324.811 84.335 325.854 85.4951C326.908 86.6436 328.244 87.2178 329.861 87.2178C331.01 87.2178 331.982 86.9834 332.779 86.5146C333.576 86.0459 334.273 85.4248 334.871 84.6514L336.857 86.1982C335.264 88.6475 332.873 89.8721 329.686 89.8721ZM329.281 72.8213C327.969 72.8213 326.867 73.3018 325.977 74.2627C325.086 75.2119 324.535 76.5479 324.324 78.2705H333.852V78.0244C333.758 76.3721 333.312 75.0947 332.516 74.1924C331.719 73.2783 330.641 72.8213 329.281 72.8213Z" fill="white"/>
<path d="M356.984 80.2217C356.984 83.1279 356.316 85.4658 354.98 87.2354C353.645 88.9932 351.852 89.8721 349.602 89.8721C347.199 89.8721 345.342 89.0225 344.029 87.3232L343.871 89.5205H340.883V62.5205H344.135V72.5928C345.447 70.9639 347.258 70.1494 349.566 70.1494C351.875 70.1494 353.686 71.0225 354.998 72.7686C356.322 74.5146 356.984 76.9053 356.984 79.9404V80.2217ZM353.732 79.8525C353.732 77.6377 353.305 75.9268 352.449 74.7197C351.594 73.5127 350.363 72.9092 348.758 72.9092C346.613 72.9092 345.072 73.9053 344.135 75.8975V84.124C345.131 86.1162 346.684 87.1123 348.793 87.1123C350.352 87.1123 351.564 86.5088 352.432 85.3018C353.299 84.0947 353.732 82.2783 353.732 79.8525Z" fill="white"/>
<path d="M368.99 89.8721C366.412 89.8721 364.314 89.0283 362.697 87.3408C361.08 85.6416 360.271 83.374 360.271 80.5381V79.9404C360.271 78.0537 360.629 76.3721 361.344 74.8955C362.07 73.4072 363.078 72.2471 364.367 71.415C365.668 70.5713 367.074 70.1494 368.586 70.1494C371.059 70.1494 372.98 70.9639 374.352 72.5928C375.723 74.2217 376.408 76.5537 376.408 79.5889V80.9424H363.523C363.57 82.8174 364.115 84.335 365.158 85.4951C366.213 86.6436 367.549 87.2178 369.166 87.2178C370.314 87.2178 371.287 86.9834 372.084 86.5146C372.881 86.0459 373.578 85.4248 374.176 84.6514L376.162 86.1982C374.568 88.6475 372.178 89.8721 368.99 89.8721ZM368.586 72.8213C367.273 72.8213 366.172 73.3018 365.281 74.2627C364.391 75.2119 363.84 76.5479 363.629 78.2705H373.156V78.0244C373.062 76.3721 372.617 75.0947 371.82 74.1924C371.023 73.2783 369.945 72.8213 368.586 72.8213Z" fill="white"/>
<path d="M391.262 84.4756C391.262 83.5967 390.928 82.917 390.26 82.4365C389.604 81.9443 388.449 81.5225 386.797 81.1709C385.156 80.8193 383.85 80.3975 382.877 79.9053C381.916 79.4131 381.201 78.8271 380.732 78.1475C380.275 77.4678 380.047 76.6592 380.047 75.7217C380.047 74.1631 380.703 72.8447 382.016 71.7666C383.34 70.6885 385.027 70.1494 387.078 70.1494C389.234 70.1494 390.98 70.7061 392.316 71.8193C393.664 72.9326 394.338 74.3564 394.338 76.0908H391.068C391.068 75.2002 390.688 74.4326 389.926 73.7881C389.176 73.1436 388.227 72.8213 387.078 72.8213C385.895 72.8213 384.969 73.0791 384.301 73.5947C383.633 74.1104 383.299 74.7842 383.299 75.6162C383.299 76.4014 383.609 76.9932 384.23 77.3916C384.852 77.79 385.971 78.1709 387.588 78.5342C389.217 78.8975 390.535 79.3311 391.543 79.835C392.551 80.3389 393.295 80.9482 393.775 81.6631C394.268 82.3662 394.514 83.2275 394.514 84.2471C394.514 85.9463 393.834 87.3115 392.475 88.3428C391.115 89.3623 389.352 89.8721 387.184 89.8721C385.66 89.8721 384.312 89.6025 383.141 89.0635C381.969 88.5244 381.049 87.7744 380.381 86.8135C379.725 85.8408 379.396 84.792 379.396 83.667H382.648C382.707 84.7568 383.141 85.624 383.949 86.2686C384.77 86.9014 385.848 87.2178 387.184 87.2178C388.414 87.2178 389.398 86.9717 390.137 86.4795C390.887 85.9756 391.262 85.3076 391.262 84.4756Z" fill="white"/>
<path d="M410.738 70.501L410.826 72.6104C412.221 70.9697 414.102 70.1494 416.469 70.1494C419.129 70.1494 420.939 71.1689 421.9 73.208C422.533 72.2939 423.354 71.5557 424.361 70.9932C425.381 70.4307 426.582 70.1494 427.965 70.1494C432.137 70.1494 434.258 72.3584 434.328 76.7764V89.5205H431.076V76.9697C431.076 75.6104 430.766 74.5967 430.145 73.9287C429.523 73.249 428.48 72.9092 427.016 72.9092C425.809 72.9092 424.807 73.2725 424.01 73.999C423.213 74.7139 422.75 75.6807 422.621 76.8994V89.5205H419.352V77.0576C419.352 74.292 417.998 72.9092 415.291 72.9092C413.158 72.9092 411.699 73.8174 410.914 75.6338V89.5205H407.662V70.501H410.738Z" fill="white"/>
<path d="M438.389 79.835C438.389 77.9717 438.752 76.2959 439.479 74.8076C440.217 73.3193 441.236 72.1709 442.537 71.3623C443.85 70.5537 445.344 70.1494 447.02 70.1494C449.609 70.1494 451.701 71.0459 453.295 72.8389C454.9 74.6318 455.703 77.0166 455.703 79.9932V80.2217C455.703 82.0732 455.346 83.7373 454.631 85.2139C453.928 86.6787 452.914 87.8213 451.59 88.6416C450.277 89.4619 448.766 89.8721 447.055 89.8721C444.477 89.8721 442.385 88.9756 440.779 87.1826C439.186 85.3896 438.389 83.0166 438.389 80.0635V79.835ZM441.658 80.2217C441.658 82.3311 442.145 84.0244 443.117 85.3018C444.102 86.5791 445.414 87.2178 447.055 87.2178C448.707 87.2178 450.02 86.5732 450.992 85.2842C451.965 83.9834 452.451 82.167 452.451 79.835C452.451 77.749 451.953 76.0615 450.957 74.7725C449.973 73.4717 448.66 72.8213 447.02 72.8213C445.414 72.8213 444.119 73.46 443.135 74.7373C442.15 76.0146 441.658 77.8428 441.658 80.2217Z" fill="white"/>
<path d="M465.775 85.1084L470.486 70.501H473.809L466.988 89.5205H464.51L457.619 70.501H460.941L465.775 85.1084Z" fill="white"/>
<path d="M484.584 89.8721C482.006 89.8721 479.908 89.0283 478.291 87.3408C476.674 85.6416 475.865 83.374 475.865 80.5381V79.9404C475.865 78.0537 476.223 76.3721 476.938 74.8955C477.664 73.4072 478.672 72.2471 479.961 71.415C481.262 70.5713 482.668 70.1494 484.18 70.1494C486.652 70.1494 488.574 70.9639 489.945 72.5928C491.316 74.2217 492.002 76.5537 492.002 79.5889V80.9424H479.117C479.164 82.8174 479.709 84.335 480.752 85.4951C481.807 86.6436 483.143 87.2178 484.76 87.2178C485.908 87.2178 486.881 86.9834 487.678 86.5146C488.475 86.0459 489.172 85.4248 489.77 84.6514L491.756 86.1982C490.162 88.6475 487.771 89.8721 484.584 89.8721ZM484.18 72.8213C482.867 72.8213 481.766 73.3018 480.875 74.2627C479.984 75.2119 479.434 76.5479 479.223 78.2705H488.75V78.0244C488.656 76.3721 488.211 75.0947 487.414 74.1924C486.617 73.2783 485.539 72.8213 484.18 72.8213Z" fill="white"/>
<path d="M504.975 73.4189C504.482 73.3369 503.949 73.2959 503.375 73.2959C501.242 73.2959 499.795 74.2041 499.033 76.0205V89.5205H495.781V70.501H498.945L498.998 72.6982C500.064 70.999 501.576 70.1494 503.533 70.1494C504.166 70.1494 504.646 70.2314 504.975 70.3955V73.4189Z" fill="white"/>
<path d="M505.695 94.6182L503.85 93.3525C504.951 91.8174 505.525 90.2354 505.572 88.6064V85.6709H508.754V88.2197C508.754 89.4033 508.461 90.5869 507.875 91.7705C507.301 92.9541 506.574 93.9033 505.695 94.6182Z" fill="white"/>
<path d="M529.426 87.2178C530.586 87.2178 531.6 86.8662 532.467 86.1631C533.334 85.46 533.814 84.5811 533.908 83.5264H536.984C536.926 84.6162 536.551 85.6533 535.859 86.6377C535.168 87.6221 534.242 88.4072 533.082 88.9932C531.934 89.5791 530.715 89.8721 529.426 89.8721C526.836 89.8721 524.773 89.0107 523.238 87.2881C521.715 85.5537 520.953 83.1865 520.953 80.1865V79.6416C520.953 77.79 521.293 76.1436 521.973 74.7021C522.652 73.2607 523.625 72.1416 524.891 71.3447C526.168 70.5479 527.674 70.1494 529.408 70.1494C531.541 70.1494 533.311 70.7881 534.717 72.0654C536.135 73.3428 536.891 75.001 536.984 77.04H533.908C533.814 75.8096 533.346 74.8018 532.502 74.0166C531.67 73.2197 530.639 72.8213 529.408 72.8213C527.756 72.8213 526.473 73.4189 525.559 74.6143C524.656 75.7979 524.205 77.5146 524.205 79.7646V80.3799C524.205 82.5713 524.656 84.2588 525.559 85.4424C526.461 86.626 527.75 87.2178 529.426 87.2178Z" fill="white"/>
<path d="M539.779 79.835C539.779 77.9717 540.143 76.2959 540.869 74.8076C541.607 73.3193 542.627 72.1709 543.928 71.3623C545.24 70.5537 546.734 70.1494 548.41 70.1494C551 70.1494 553.092 71.0459 554.686 72.8389C556.291 74.6318 557.094 77.0166 557.094 79.9932V80.2217C557.094 82.0732 556.736 83.7373 556.021 85.2139C555.318 86.6787 554.305 87.8213 552.98 88.6416C551.668 89.4619 550.156 89.8721 548.445 89.8721C545.867 89.8721 543.775 88.9756 542.17 87.1826C540.576 85.3896 539.779 83.0166 539.779 80.0635V79.835ZM543.049 80.2217C543.049 82.3311 543.535 84.0244 544.508 85.3018C545.492 86.5791 546.805 87.2178 548.445 87.2178C550.098 87.2178 551.41 86.5732 552.383 85.2842C553.355 83.9834 553.842 82.167 553.842 79.835C553.842 77.749 553.344 76.0615 552.348 74.7725C551.363 73.4717 550.051 72.8213 548.41 72.8213C546.805 72.8213 545.51 73.46 544.525 74.7373C543.541 76.0146 543.049 77.8428 543.049 80.2217Z" fill="white"/>
<path d="M564.23 70.501L564.318 72.6104C565.713 70.9697 567.594 70.1494 569.961 70.1494C572.621 70.1494 574.432 71.1689 575.393 73.208C576.025 72.2939 576.846 71.5557 577.854 70.9932C578.873 70.4307 580.074 70.1494 581.457 70.1494C585.629 70.1494 587.75 72.3584 587.82 76.7764V89.5205H584.568V76.9697C584.568 75.6104 584.258 74.5967 583.637 73.9287C583.016 73.249 581.973 72.9092 580.508 72.9092C579.301 72.9092 578.299 73.2725 577.502 73.999C576.705 74.7139 576.242 75.6807 576.113 76.8994V89.5205H572.844V77.0576C572.844 74.292 571.49 72.9092 568.783 72.9092C566.65 72.9092 565.191 73.8174 564.406 75.6338V89.5205H561.154V70.501H564.23Z" fill="white"/>
<path d="M591.881 79.835C591.881 77.9717 592.244 76.2959 592.971 74.8076C593.709 73.3193 594.729 72.1709 596.029 71.3623C597.342 70.5537 598.836 70.1494 600.512 70.1494C603.102 70.1494 605.193 71.0459 606.787 72.8389C608.393 74.6318 609.195 77.0166 609.195 79.9932V80.2217C609.195 82.0732 608.838 83.7373 608.123 85.2139C607.42 86.6787 606.406 87.8213 605.082 88.6416C603.77 89.4619 602.258 89.8721 600.547 89.8721C597.969 89.8721 595.877 88.9756 594.271 87.1826C592.678 85.3896 591.881 83.0166 591.881 80.0635V79.835ZM595.15 80.2217C595.15 82.3311 595.637 84.0244 596.609 85.3018C597.594 86.5791 598.906 87.2178 600.547 87.2178C602.199 87.2178 603.512 86.5732 604.484 85.2842C605.457 83.9834 605.943 82.167 605.943 79.835C605.943 77.749 605.445 76.0615 604.449 74.7725C603.465 73.4717 602.152 72.8213 600.512 72.8213C598.906 72.8213 597.611 73.46 596.627 74.7373C595.643 76.0146 595.15 77.8428 595.15 80.2217Z" fill="white"/>
<path d="M625.262 70.501L625.35 72.6104C626.744 70.9697 628.625 70.1494 630.992 70.1494C633.652 70.1494 635.463 71.1689 636.424 73.208C637.057 72.2939 637.877 71.5557 638.885 70.9932C639.904 70.4307 641.105 70.1494 642.488 70.1494C646.66 70.1494 648.781 72.3584 648.852 76.7764V89.5205H645.6V76.9697C645.6 75.6104 645.289 74.5967 644.668 73.9287C644.047 73.249 643.004 72.9092 641.539 72.9092C640.332 72.9092 639.33 73.2725 638.533 73.999C637.736 74.7139 637.273 75.6807 637.145 76.8994V89.5205H633.875V77.0576C633.875 74.292 632.521 72.9092 629.814 72.9092C627.682 72.9092 626.223 73.8174 625.438 75.6338V89.5205H622.186V70.501H625.262Z" fill="white"/>
<path d="M657.307 89.5205H654.037V70.501H657.307V89.5205ZM657.342 62.5381H661.279L656.568 67.7061H653.949L657.342 62.5381Z" fill="white"/>
<path d="M665.744 70.501L665.85 72.8916C667.303 71.0635 669.201 70.1494 671.545 70.1494C675.564 70.1494 677.592 72.417 677.627 76.9521V89.5205H674.375V76.9346C674.363 75.5635 674.047 74.5498 673.426 73.8936C672.816 73.2373 671.861 72.9092 670.561 72.9092C669.506 72.9092 668.58 73.1904 667.783 73.7529C666.986 74.3154 666.365 75.0537 665.92 75.9678V89.5205H662.668V70.501H665.744Z" fill="white"/>
<path d="M686.064 89.5205H682.812V70.501H686.064V89.5205ZM682.549 65.4561C682.549 64.9287 682.707 64.4834 683.023 64.1201C683.352 63.7568 683.832 63.5752 684.465 63.5752C685.098 63.5752 685.578 63.7568 685.906 64.1201C686.234 64.4834 686.398 64.9287 686.398 65.4561C686.398 65.9834 686.234 66.4229 685.906 66.7744C685.578 67.126 685.098 67.3018 684.465 67.3018C683.832 67.3018 683.352 67.126 683.023 66.7744C682.707 66.4229 682.549 65.9834 682.549 65.4561Z" fill="white"/>
<path d="M694.344 70.501L694.432 72.6104C695.826 70.9697 697.707 70.1494 700.074 70.1494C702.734 70.1494 704.545 71.1689 705.506 73.208C706.139 72.2939 706.959 71.5557 707.967 70.9932C708.986 70.4307 710.188 70.1494 711.57 70.1494C715.742 70.1494 717.863 72.3584 717.934 76.7764V89.5205H714.682V76.9697C714.682 75.6104 714.371 74.5967 713.75 73.9287C713.129 73.249 712.086 72.9092 710.621 72.9092C709.414 72.9092 708.412 73.2725 707.615 73.999C706.818 74.7139 706.355 75.6807 706.227 76.8994V89.5205H702.957V77.0576C702.957 74.292 701.604 72.9092 698.896 72.9092C696.764 72.9092 695.305 73.8174 694.52 75.6338V89.5205H691.268V70.501H694.344Z" fill="white"/>
<path d="M721.994 79.835C721.994 77.9717 722.357 76.2959 723.084 74.8076C723.822 73.3193 724.842 72.1709 726.143 71.3623C727.455 70.5537 728.949 70.1494 730.625 70.1494C733.215 70.1494 735.307 71.0459 736.9 72.8389C738.506 74.6318 739.309 77.0166 739.309 79.9932V80.2217C739.309 82.0732 738.951 83.7373 738.236 85.2139C737.533 86.6787 736.52 87.8213 735.195 88.6416C733.883 89.4619 732.371 89.8721 730.66 89.8721C728.082 89.8721 725.99 88.9756 724.385 87.1826C722.791 85.3896 721.994 83.0166 721.994 80.0635V79.835ZM725.264 80.2217C725.264 82.3311 725.75 84.0244 726.723 85.3018C727.707 86.5791 729.02 87.2178 730.66 87.2178C732.312 87.2178 733.625 86.5732 734.598 85.2842C735.57 83.9834 736.057 82.167 736.057 79.835C736.057 77.749 735.559 76.0615 734.562 74.7725C733.578 73.4717 732.266 72.8213 730.625 72.8213C729.02 72.8213 727.725 73.46 726.74 74.7373C725.756 76.0146 725.264 77.8428 725.264 80.2217Z" fill="white"/>
<path d="M743.281 94.6182L741.436 93.3525C742.537 91.8174 743.111 90.2354 743.158 88.6064V85.6709H746.34V88.2197C746.34 89.4033 746.047 90.5869 745.461 91.7705C744.887 92.9541 744.16 93.9033 743.281 94.6182Z" fill="white"/>
<path d="M775.449 80.2217C775.449 83.1162 774.787 85.4482 773.463 87.2178C772.139 88.9873 770.346 89.8721 768.084 89.8721C765.775 89.8721 763.959 89.1396 762.635 87.6748V96.833H759.383V70.501H762.354L762.512 72.6104C763.836 70.9697 765.676 70.1494 768.031 70.1494C770.316 70.1494 772.121 71.0107 773.445 72.7334C774.781 74.4561 775.449 76.8525 775.449 79.9229V80.2217ZM772.197 79.8525C772.197 77.708 771.74 76.0146 770.826 74.7725C769.912 73.5303 768.658 72.9092 767.064 72.9092C765.096 72.9092 763.619 73.7822 762.635 75.5283V84.6162C763.607 86.3506 765.096 87.2178 767.1 87.2178C768.658 87.2178 769.895 86.6025 770.809 85.3721C771.734 84.1299 772.197 82.29 772.197 79.8525Z" fill="white"/>
<path d="M791.34 89.5205C791.152 89.1455 791 88.4775 790.883 87.5166C789.371 89.0869 787.566 89.8721 785.469 89.8721C783.594 89.8721 782.053 89.3447 780.846 88.29C779.65 87.2236 779.053 85.876 779.053 84.2471C779.053 82.2666 779.803 80.7314 781.303 79.6416C782.814 78.54 784.936 77.9893 787.666 77.9893H790.83V76.4951C790.83 75.3584 790.49 74.4561 789.811 73.7881C789.131 73.1084 788.129 72.7686 786.805 72.7686C785.645 72.7686 784.672 73.0615 783.887 73.6475C783.102 74.2334 782.709 74.9424 782.709 75.7744H779.439C779.439 74.8252 779.773 73.9111 780.441 73.0322C781.121 72.1416 782.035 71.4385 783.184 70.9229C784.344 70.4072 785.615 70.1494 786.998 70.1494C789.189 70.1494 790.906 70.7002 792.148 71.8018C793.391 72.8916 794.035 74.3975 794.082 76.3193V85.0732C794.082 86.8193 794.305 88.208 794.75 89.2393V89.5205H791.34ZM785.943 87.042C786.963 87.042 787.93 86.7783 788.844 86.251C789.758 85.7236 790.42 85.0381 790.83 84.1943V80.292H788.281C784.297 80.292 782.305 81.458 782.305 83.79C782.305 84.8096 782.645 85.6064 783.324 86.1807C784.004 86.7549 784.877 87.042 785.943 87.042Z" fill="white"/>
<path d="M808.373 73.4189C807.881 73.3369 807.348 73.2959 806.773 73.2959C804.641 73.2959 803.193 74.2041 802.432 76.0205V89.5205H799.18V70.501H802.344L802.396 72.6982C803.463 70.999 804.975 70.1494 806.932 70.1494C807.564 70.1494 808.045 70.2314 808.373 70.3955V73.4189Z" fill="white"/>
<path d="M822.418 89.5205C822.23 89.1455 822.078 88.4775 821.961 87.5166C820.449 89.0869 818.645 89.8721 816.547 89.8721C814.672 89.8721 813.131 89.3447 811.924 88.29C810.729 87.2236 810.131 85.876 810.131 84.2471C810.131 82.2666 810.881 80.7314 812.381 79.6416C813.893 78.54 816.014 77.9893 818.744 77.9893H821.908V76.4951C821.908 75.3584 821.568 74.4561 820.889 73.7881C820.209 73.1084 819.207 72.7686 817.883 72.7686C816.723 72.7686 815.75 73.0615 814.965 73.6475C814.18 74.2334 813.787 74.9424 813.787 75.7744H810.518C810.518 74.8252 810.852 73.9111 811.52 73.0322C812.199 72.1416 813.113 71.4385 814.262 70.9229C815.422 70.4072 816.693 70.1494 818.076 70.1494C820.268 70.1494 821.984 70.7002 823.227 71.8018C824.469 72.8916 825.113 74.3975 825.16 76.3193V85.0732C825.16 86.8193 825.383 88.208 825.828 89.2393V89.5205H822.418ZM817.021 87.042C818.041 87.042 819.008 86.7783 819.922 86.251C820.836 85.7236 821.498 85.0381 821.908 84.1943V80.292H819.359C815.375 80.292 813.383 81.458 813.383 83.79C813.383 84.8096 813.723 85.6064 814.402 86.1807C815.082 86.7549 815.955 87.042 817.021 87.042Z" fill="white"/>
<path d="M24.5996 121.835C24.5996 119.972 24.9629 118.296 25.6895 116.808C26.4277 115.319 27.4473 114.171 28.748 113.362C30.0605 112.554 31.5547 112.149 33.2305 112.149C35.8203 112.149 37.9121 113.046 39.5059 114.839C41.1113 116.632 41.9141 119.017 41.9141 121.993V122.222C41.9141 124.073 41.5566 125.737 40.8418 127.214C40.1387 128.679 39.125 129.821 37.8008 130.642C36.4883 131.462 34.9766 131.872 33.2656 131.872C30.6875 131.872 28.5957 130.976 26.9902 129.183C25.3965 127.39 24.5996 125.017 24.5996 122.063V121.835ZM27.8691 122.222C27.8691 124.331 28.3555 126.024 29.3281 127.302C30.3125 128.579 31.625 129.218 33.2656 129.218C34.918 129.218 36.2305 128.573 37.2031 127.284C38.1758 125.983 38.6621 124.167 38.6621 121.835C38.6621 119.749 38.1641 118.062 37.168 116.772C36.1836 115.472 34.8711 114.821 33.2305 114.821C31.625 114.821 30.3301 115.46 29.3457 116.737C28.3613 118.015 27.8691 119.843 27.8691 122.222Z" fill="white"/>
<path d="M62.0938 122.222C62.0938 125.128 61.4258 127.466 60.0898 129.235C58.7539 130.993 56.9609 131.872 54.7109 131.872C52.3086 131.872 50.4512 131.022 49.1387 129.323L48.9805 131.521H45.9922V104.521H49.2441V114.593C50.5566 112.964 52.3672 112.149 54.6758 112.149C56.9844 112.149 58.7949 113.022 60.1074 114.769C61.4316 116.515 62.0938 118.905 62.0938 121.94V122.222ZM58.8418 121.853C58.8418 119.638 58.4141 117.927 57.5586 116.72C56.7031 115.513 55.4727 114.909 53.8672 114.909C51.7227 114.909 50.1816 115.905 49.2441 117.897V126.124C50.2402 128.116 51.793 129.112 53.9023 129.112C55.4609 129.112 56.6738 128.509 57.541 127.302C58.4082 126.095 58.8418 124.278 58.8418 121.853Z" fill="white"/>
<path d="M70.6191 107.896V112.501H74.1699V115.015H70.6191V126.81C70.6191 127.571 70.7773 128.146 71.0938 128.532C71.4102 128.907 71.9492 129.095 72.7109 129.095C73.0859 129.095 73.6016 129.024 74.2578 128.884V131.521C73.4023 131.755 72.5703 131.872 71.7617 131.872C70.3086 131.872 69.2129 131.433 68.4746 130.554C67.7363 129.675 67.3672 128.427 67.3672 126.81V115.015H63.9043V112.501H67.3672V107.896H70.6191Z" fill="white"/>
<path d="M85.877 131.872C83.2988 131.872 81.2012 131.028 79.584 129.341C77.9668 127.642 77.1582 125.374 77.1582 122.538V121.94C77.1582 120.054 77.5156 118.372 78.2305 116.896C78.957 115.407 79.9648 114.247 81.2539 113.415C82.5547 112.571 83.9609 112.149 85.4727 112.149C87.9453 112.149 89.8672 112.964 91.2383 114.593C92.6094 116.222 93.2949 118.554 93.2949 121.589V122.942H80.4102C80.457 124.817 81.002 126.335 82.0449 127.495C83.0996 128.644 84.4355 129.218 86.0527 129.218C87.2012 129.218 88.1738 128.983 88.9707 128.515C89.7676 128.046 90.4648 127.425 91.0625 126.651L93.0488 128.198C91.4551 130.647 89.0645 131.872 85.877 131.872ZM85.4727 114.821C84.1602 114.821 83.0586 115.302 82.168 116.263C81.2773 117.212 80.7266 118.548 80.5156 120.271H90.043V120.024C89.9492 118.372 89.5039 117.095 88.707 116.192C87.9102 115.278 86.832 114.821 85.4727 114.821Z" fill="white"/>
<path d="M100.15 112.501L100.256 114.892C101.709 113.063 103.607 112.149 105.951 112.149C109.971 112.149 111.998 114.417 112.033 118.952V131.521H108.781V118.935C108.77 117.563 108.453 116.55 107.832 115.894C107.223 115.237 106.268 114.909 104.967 114.909C103.912 114.909 102.986 115.19 102.189 115.753C101.393 116.315 100.771 117.054 100.326 117.968V131.521H97.0742V112.501H100.15Z" fill="white"/>
<path d="M124.83 131.872C122.252 131.872 120.154 131.028 118.537 129.341C116.92 127.642 116.111 125.374 116.111 122.538V121.94C116.111 120.054 116.469 118.372 117.184 116.896C117.91 115.407 118.918 114.247 120.207 113.415C121.508 112.571 122.914 112.149 124.426 112.149C126.898 112.149 128.82 112.964 130.191 114.593C131.562 116.222 132.248 118.554 132.248 121.589V122.942H119.363C119.41 124.817 119.955 126.335 120.998 127.495C122.053 128.644 123.389 129.218 125.006 129.218C126.154 129.218 127.127 128.983 127.924 128.515C128.721 128.046 129.418 127.425 130.016 126.651L132.002 128.198C130.408 130.647 128.018 131.872 124.83 131.872ZM124.426 114.821C123.113 114.821 122.012 115.302 121.121 116.263C120.23 117.212 119.68 118.548 119.469 120.271H128.996V120.024C128.902 118.372 128.457 117.095 127.66 116.192C126.863 115.278 125.785 114.821 124.426 114.821Z" fill="white"/>
<path d="M145.221 115.419C144.729 115.337 144.195 115.296 143.621 115.296C141.488 115.296 140.041 116.204 139.279 118.021V131.521H136.027V112.501H139.191L139.244 114.698C140.311 112.999 141.822 112.149 143.779 112.149C144.412 112.149 144.893 112.231 145.221 112.396V115.419Z" fill="white"/>
<path d="M158.316 118.688L159.617 105.927H172.73V108.933H162.377L161.604 115.911C162.857 115.173 164.281 114.804 165.875 114.804C168.207 114.804 170.059 115.577 171.43 117.124C172.801 118.659 173.486 120.739 173.486 123.364C173.486 126.001 172.771 128.081 171.342 129.604C169.924 131.116 167.938 131.872 165.383 131.872C163.121 131.872 161.275 131.245 159.846 129.991C158.416 128.737 157.602 127.003 157.402 124.788H160.479C160.678 126.253 161.199 127.36 162.043 128.11C162.887 128.849 164 129.218 165.383 129.218C166.895 129.218 168.078 128.702 168.934 127.671C169.801 126.64 170.234 125.216 170.234 123.399C170.234 121.688 169.766 120.317 168.828 119.286C167.902 118.243 166.666 117.722 165.119 117.722C163.701 117.722 162.588 118.032 161.779 118.653L160.918 119.356L158.316 118.688Z" fill="white"/>
<path d="M193.93 129.218C195.09 129.218 196.104 128.866 196.971 128.163C197.838 127.46 198.318 126.581 198.412 125.526H201.488C201.43 126.616 201.055 127.653 200.363 128.638C199.672 129.622 198.746 130.407 197.586 130.993C196.438 131.579 195.219 131.872 193.93 131.872C191.34 131.872 189.277 131.011 187.742 129.288C186.219 127.554 185.457 125.187 185.457 122.187V121.642C185.457 119.79 185.797 118.144 186.477 116.702C187.156 115.261 188.129 114.142 189.395 113.345C190.672 112.548 192.178 112.149 193.912 112.149C196.045 112.149 197.814 112.788 199.221 114.065C200.639 115.343 201.395 117.001 201.488 119.04H198.412C198.318 117.81 197.85 116.802 197.006 116.017C196.174 115.22 195.143 114.821 193.912 114.821C192.26 114.821 190.977 115.419 190.062 116.614C189.16 117.798 188.709 119.515 188.709 121.765V122.38C188.709 124.571 189.16 126.259 190.062 127.442C190.965 128.626 192.254 129.218 193.93 129.218Z" fill="white"/>
<path d="M216.887 129.64C215.621 131.128 213.764 131.872 211.314 131.872C209.287 131.872 207.74 131.286 206.674 130.114C205.619 128.931 205.086 127.185 205.074 124.876V112.501H208.326V124.788C208.326 127.671 209.498 129.112 211.842 129.112C214.326 129.112 215.979 128.187 216.799 126.335V112.501H220.051V131.521H216.957L216.887 129.64Z" fill="white"/>
<path d="M236.75 131.521C236.562 131.146 236.41 130.478 236.293 129.517C234.781 131.087 232.977 131.872 230.879 131.872C229.004 131.872 227.463 131.345 226.256 130.29C225.061 129.224 224.463 127.876 224.463 126.247C224.463 124.267 225.213 122.731 226.713 121.642C228.225 120.54 230.346 119.989 233.076 119.989H236.24V118.495C236.24 117.358 235.9 116.456 235.221 115.788C234.541 115.108 233.539 114.769 232.215 114.769C231.055 114.769 230.082 115.062 229.297 115.647C228.512 116.233 228.119 116.942 228.119 117.774H224.85C224.85 116.825 225.184 115.911 225.852 115.032C226.531 114.142 227.445 113.438 228.594 112.923C229.754 112.407 231.025 112.149 232.408 112.149C234.6 112.149 236.316 112.7 237.559 113.802C238.801 114.892 239.445 116.397 239.492 118.319V127.073C239.492 128.819 239.715 130.208 240.16 131.239V131.521H236.75ZM231.354 129.042C232.373 129.042 233.34 128.778 234.254 128.251C235.168 127.724 235.83 127.038 236.24 126.194V122.292H233.691C229.707 122.292 227.715 123.458 227.715 125.79C227.715 126.81 228.055 127.606 228.734 128.181C229.414 128.755 230.287 129.042 231.354 129.042Z" fill="white"/>
<path d="M243.799 121.853C243.799 118.935 244.49 116.591 245.873 114.821C247.256 113.04 249.066 112.149 251.305 112.149C253.531 112.149 255.295 112.911 256.596 114.435V104.521H259.848V131.521H256.859L256.701 129.481C255.4 131.075 253.59 131.872 251.27 131.872C249.066 131.872 247.268 130.97 245.873 129.165C244.49 127.36 243.799 125.005 243.799 122.099V121.853ZM247.051 122.222C247.051 124.378 247.496 126.065 248.387 127.284C249.277 128.503 250.508 129.112 252.078 129.112C254.141 129.112 255.646 128.187 256.596 126.335V117.599C255.623 115.806 254.129 114.909 252.113 114.909C250.52 114.909 249.277 115.524 248.387 116.755C247.496 117.985 247.051 119.808 247.051 122.222Z" fill="white"/>
<path d="M274.104 115.419C273.611 115.337 273.078 115.296 272.504 115.296C270.371 115.296 268.924 116.204 268.162 118.021V131.521H264.91V112.501H268.074L268.127 114.698C269.193 112.999 270.705 112.149 272.662 112.149C273.295 112.149 273.775 112.231 274.104 112.396V115.419Z" fill="white"/>
<path d="M288.148 131.521C287.961 131.146 287.809 130.478 287.691 129.517C286.18 131.087 284.375 131.872 282.277 131.872C280.402 131.872 278.861 131.345 277.654 130.29C276.459 129.224 275.861 127.876 275.861 126.247C275.861 124.267 276.611 122.731 278.111 121.642C279.623 120.54 281.744 119.989 284.475 119.989H287.639V118.495C287.639 117.358 287.299 116.456 286.619 115.788C285.939 115.108 284.938 114.769 283.613 114.769C282.453 114.769 281.48 115.062 280.695 115.647C279.91 116.233 279.518 116.942 279.518 117.774H276.248C276.248 116.825 276.582 115.911 277.25 115.032C277.93 114.142 278.844 113.438 279.992 112.923C281.152 112.407 282.424 112.149 283.807 112.149C285.998 112.149 287.715 112.7 288.957 113.802C290.199 114.892 290.844 116.397 290.891 118.319V127.073C290.891 128.819 291.113 130.208 291.559 131.239V131.521H288.148ZM282.752 129.042C283.771 129.042 284.738 128.778 285.652 128.251C286.566 127.724 287.229 127.038 287.639 126.194V122.292H285.09C281.105 122.292 279.113 123.458 279.113 125.79C279.113 126.81 279.453 127.606 280.133 128.181C280.812 128.755 281.686 129.042 282.752 129.042Z" fill="white"/>
<path d="M295.197 121.853C295.197 118.935 295.889 116.591 297.271 114.821C298.654 113.04 300.465 112.149 302.703 112.149C304.93 112.149 306.693 112.911 307.994 114.435V104.521H311.246V131.521H308.258L308.1 129.481C306.799 131.075 304.988 131.872 302.668 131.872C300.465 131.872 298.666 130.97 297.271 129.165C295.889 127.36 295.197 125.005 295.197 122.099V121.853ZM298.449 122.222C298.449 124.378 298.895 126.065 299.785 127.284C300.676 128.503 301.906 129.112 303.477 129.112C305.539 129.112 307.045 128.187 307.994 126.335V117.599C307.021 115.806 305.527 114.909 303.512 114.909C301.918 114.909 300.676 115.524 299.785 116.755C298.895 117.985 298.449 119.808 298.449 122.222Z" fill="white"/>
<path d="M315.447 121.835C315.447 119.972 315.811 118.296 316.537 116.808C317.275 115.319 318.295 114.171 319.596 113.362C320.908 112.554 322.402 112.149 324.078 112.149C326.668 112.149 328.76 113.046 330.354 114.839C331.959 116.632 332.762 119.017 332.762 121.993V122.222C332.762 124.073 332.404 125.737 331.689 127.214C330.986 128.679 329.973 129.821 328.648 130.642C327.336 131.462 325.824 131.872 324.113 131.872C321.535 131.872 319.443 130.976 317.838 129.183C316.244 127.39 315.447 125.017 315.447 122.063V121.835ZM318.717 122.222C318.717 124.331 319.203 126.024 320.176 127.302C321.16 128.579 322.473 129.218 324.113 129.218C325.766 129.218 327.078 128.573 328.051 127.284C329.023 125.983 329.51 124.167 329.51 121.835C329.51 119.749 329.012 118.062 328.016 116.772C327.031 115.472 325.719 114.821 324.078 114.821C322.473 114.821 321.178 115.46 320.193 116.737C319.209 118.015 318.717 119.843 318.717 122.222Z" fill="white"/>
<path d="M347.914 126.476C347.914 125.597 347.58 124.917 346.912 124.437C346.256 123.944 345.102 123.522 343.449 123.171C341.809 122.819 340.502 122.397 339.529 121.905C338.568 121.413 337.854 120.827 337.385 120.147C336.928 119.468 336.699 118.659 336.699 117.722C336.699 116.163 337.355 114.845 338.668 113.767C339.992 112.688 341.68 112.149 343.73 112.149C345.887 112.149 347.633 112.706 348.969 113.819C350.316 114.933 350.99 116.356 350.99 118.091H347.721C347.721 117.2 347.34 116.433 346.578 115.788C345.828 115.144 344.879 114.821 343.73 114.821C342.547 114.821 341.621 115.079 340.953 115.595C340.285 116.11 339.951 116.784 339.951 117.616C339.951 118.401 340.262 118.993 340.883 119.392C341.504 119.79 342.623 120.171 344.24 120.534C345.869 120.897 347.188 121.331 348.195 121.835C349.203 122.339 349.947 122.948 350.428 123.663C350.92 124.366 351.166 125.228 351.166 126.247C351.166 127.946 350.486 129.312 349.127 130.343C347.768 131.362 346.004 131.872 343.836 131.872C342.312 131.872 340.965 131.603 339.793 131.063C338.621 130.524 337.701 129.774 337.033 128.813C336.377 127.841 336.049 126.792 336.049 125.667H339.301C339.359 126.757 339.793 127.624 340.602 128.269C341.422 128.901 342.5 129.218 343.836 129.218C345.066 129.218 346.051 128.972 346.789 128.479C347.539 127.976 347.914 127.308 347.914 126.476Z" fill="white"/>
<path d="M359.217 124.313C359.24 122.919 359.398 121.817 359.691 121.009C359.984 120.2 360.582 119.304 361.484 118.319L363.787 115.946C364.771 114.833 365.264 113.638 365.264 112.36C365.264 111.13 364.941 110.169 364.297 109.478C363.652 108.774 362.715 108.423 361.484 108.423C360.289 108.423 359.328 108.739 358.602 109.372C357.875 110.005 357.512 110.854 357.512 111.921H354.26C354.283 110.022 354.957 108.493 356.281 107.333C357.617 106.161 359.352 105.575 361.484 105.575C363.699 105.575 365.422 106.173 366.652 107.368C367.895 108.552 368.516 110.181 368.516 112.255C368.516 114.306 367.566 116.327 365.668 118.319L363.752 120.218C362.896 121.167 362.469 122.532 362.469 124.313H359.217ZM359.076 129.886C359.076 129.358 359.234 128.919 359.551 128.567C359.879 128.204 360.359 128.022 360.992 128.022C361.625 128.022 362.105 128.204 362.434 128.567C362.762 128.919 362.926 129.358 362.926 129.886C362.926 130.413 362.762 130.853 362.434 131.204C362.105 131.544 361.625 131.714 360.992 131.714C360.359 131.714 359.879 131.544 359.551 131.204C359.234 130.853 359.076 130.413 359.076 129.886Z" fill="white"/>
</g>
<g id="Group 1">
<g id="palito">
<path id="Line 2 (Stroke)" fill-rule="evenodd" clip-rule="evenodd" d="M368 462C366.619 462 365.5 461.02 365.5 459.81V376.598C365.5 375.389 366.619 374.409 368 374.409C369.381 374.409 370.5 375.389 370.5 376.598V459.81C370.5 461.02 369.381 462 368 462Z" fill="white"/>
<path id="Ellipse 1" d="M368 362C371.866 362 375 368.471 375 376.453C375 384.435 371.866 390.905 368 390.905C364.134 390.905 361 384.435 361 376.453C361 368.471 364.134 362 368 362Z" fill="#D40303"/>
</g>
<g id="palito_2">
<path id="Line 2 (Stroke)_2" fill-rule="evenodd" clip-rule="evenodd" d="M368 355C366.619 355 365.5 354.02 365.5 352.81V269.598C365.5 268.389 366.619 267.409 368 267.409C369.381 267.409 370.5 268.389 370.5 269.598V352.81C370.5 354.02 369.381 355 368 355Z" fill="white"/>
<path id="Ellipse 1_2" d="M368 255C371.866 255 375 261.471 375 269.453C375 277.435 371.866 283.905 368 283.905C364.134 283.905 361 277.435 361 269.453C361 261.471 364.134 255 368 255Z" fill="#D40303"/>
</g>
<g id="palito_3">
<path id="Line 2 (Stroke)_3" fill-rule="evenodd" clip-rule="evenodd" d="M368 248C366.619 248 365.5 247.02 365.5 245.81V162.598C365.5 161.389 366.619 160.409 368 160.409C369.381 160.409 370.5 161.389 370.5 162.598V245.81C370.5 247.02 369.381 248 368 248Z" fill="white"/>
<path id="Ellipse 1_3" d="M368 148C371.866 148 375 154.471 375 162.453C375 170.435 371.866 176.905 368 176.905C364.134 176.905 361 170.435 361 162.453C361 154.471 364.134 148 368 148Z" fill="#D40303"/>
</g>
<g id="palito_4">
<path id="Line 2 (Stroke)_4" fill-rule="evenodd" clip-rule="evenodd" d="M256 255C256 253.619 256.98 252.5 258.19 252.5H341.402C342.611 252.5 343.591 253.619 343.591 255C343.591 256.381 342.611 257.5 341.402 257.5H258.19C256.98 257.5 256 256.381 256 255Z" fill="white"/>
<path id="Ellipse 1_4" d="M356 255C356 258.866 349.529 262 341.547 262C333.565 262 327.095 258.866 327.095 255C327.095 251.134 333.565 248 341.547 248C349.529 248 356 251.134 356 255Z" fill="#D40303"/>
</g>
<g id="palito_5">
<path id="Line 2 (Stroke)_5" fill-rule="evenodd" clip-rule="evenodd" d="M256 357C256 355.619 256.98 354.5 258.19 354.5H341.402C342.611 354.5 343.591 355.619 343.591 357C343.591 358.381 342.611 359.5 341.402 359.5H258.19C256.98 359.5 256 358.381 256 357Z" fill="white"/>
<path id="Ellipse 1_5" d="M356 357C356 360.866 349.529 364 341.547 364C333.565 364 327.095 360.866 327.095 357C327.095 353.134 333.565 350 341.547 350C349.529 350 356 353.134 356 357Z" fill="#D40303"/>
</g>
<g id="palito_6">
<path id="Line 2 (Stroke)_6" fill-rule="evenodd" clip-rule="evenodd" d="M381 357C381 355.619 381.98 354.5 383.19 354.5H466.402C467.611 354.5 468.591 355.619 468.591 357C468.591 358.381 467.611 359.5 466.402 359.5H383.19C381.98 359.5 381 358.381 381 357Z" fill="white"/>
<path id="Ellipse 1_6" d="M481 357C481 360.866 474.529 364 466.547 364C458.565 364 452.095 360.866 452.095 357C452.095 353.134 458.565 350 466.547 350C474.529 350 481 353.134 481 357Z" fill="#D40303"/>
</g>
<g id="palito_7">
<path id="Line 2 (Stroke)_7" fill-rule="evenodd" clip-rule="evenodd" d="M484 468C482.619 468 481.5 467.02 481.5 465.81V382.598C481.5 381.389 482.619 380.409 484 380.409C485.381 380.409 486.5 381.389 486.5 382.598V465.81C486.5 467.02 485.381 468 484 468Z" fill="white"/>
<path id="Ellipse 1_7" d="M484 368C487.866 368 491 374.471 491 382.453C491 390.435 487.866 396.905 484 396.905C480.134 396.905 477 390.435 477 382.453C477 374.471 480.134 368 484 368Z" fill="#D40303"/>
</g>
<g id="palito_8">
<path id="Line 2 (Stroke)_8" fill-rule="evenodd" clip-rule="evenodd" d="M484 354C482.619 354 481.5 353.02 481.5 351.81V268.598C481.5 267.389 482.619 266.409 484 266.409C485.381 266.409 486.5 267.389 486.5 268.598V351.81C486.5 353.02 485.381 354 484 354Z" fill="white"/>
<path id="Ellipse 1_8" d="M484 254C487.866 254 491 260.471 491 268.453C491 276.435 487.866 282.905 484 282.905C480.134 282.905 477 276.435 477 268.453C477 260.471 480.134 254 484 254Z" fill="#D40303"/>
</g>
<g id="palito_9">
<path id="Line 2 (Stroke)_9" fill-rule="evenodd" clip-rule="evenodd" d="M484 248C482.619 248 481.5 247.02 481.5 245.81V162.598C481.5 161.389 482.619 160.409 484 160.409C485.381 160.409 486.5 161.389 486.5 162.598V245.81C486.5 247.02 485.381 248 484 248Z" fill="white"/>
<path id="Ellipse 1_9" d="M484 148C487.866 148 491 154.471 491 162.453C491 170.435 487.866 176.905 484 176.905C480.134 176.905 477 170.435 477 162.453C477 154.471 480.134 148 484 148Z" fill="#D40303"/>
</g>
<g id="palito_10">
<path id="Line 2 (Stroke)_10" fill-rule="evenodd" clip-rule="evenodd" d="M507 257C507 255.619 507.98 254.5 509.19 254.5H592.402C593.611 254.5 594.591 255.619 594.591 257C594.591 258.381 593.611 259.5 592.402 259.5H509.19C507.98 259.5 507 258.381 507 257Z" fill="white"/>
<path id="Ellipse 1_10" d="M607 257C607 260.866 600.529 264 592.547 264C584.565 264 578.095 260.866 578.095 257C578.095 253.134 584.565 250 592.547 250C600.529 250 607 253.134 607 257Z" fill="#D40303"/>
</g>
<g id="palito_11">
<path id="Line 2 (Stroke)_11" fill-rule="evenodd" clip-rule="evenodd" d="M377 255C377 253.619 377.98 252.5 379.19 252.5H462.402C463.611 252.5 464.591 253.619 464.591 255C464.591 256.381 463.611 257.5 462.402 257.5H379.19C377.98 257.5 377 256.381 377 255Z" fill="white"/>
<path id="Ellipse 1_11" d="M477 255C477 258.866 470.529 262 462.547 262C454.565 262 448.095 258.866 448.095 255C448.095 251.134 454.565 248 462.547 248C470.529 248 477 251.134 477 255Z" fill="#D40303"/>
</g>
<g id="palito_12">
<path id="Line 2 (Stroke)_12" fill-rule="evenodd" clip-rule="evenodd" d="M493 357C493 355.619 493.98 354.5 495.19 354.5H578.402C579.611 354.5 580.591 355.619 580.591 357C580.591 358.381 579.611 359.5 578.402 359.5H495.19C493.98 359.5 493 358.381 493 357Z" fill="white"/>
<path id="Ellipse 1_12" d="M593 357C593 360.866 586.529 364 578.547 364C570.565 364 564.095 360.866 564.095 357C564.095 353.134 570.565 350 578.547 350C586.529 350 593 353.134 593 357Z" fill="#D40303"/>
</g>
</g>
</g>
<g id="claves01">
<g id="Group 99">
<path id="Rectangle 4" d="M68 492H284.745L318 532L284.745 572H68V492Z" fill="#F318F8" fill-opacity="0.1"/>
<path id="Rectangle 4 (Stroke)" fill-rule="evenodd" clip-rule="evenodd" d="M283.338 495H71V569H283.338L314.099 532L283.338 495ZM284.745 492H68V572H284.745L318 532L284.745 492Z" fill="#F318F8"/>
<path id="Ellipse 1_13" d="M109 532C109 554.091 91.0914 572 69 572C46.9086 572 29 554.091 29 532C29 509.909 46.9086 492 69 492C91.0914 492 109 509.909 109 532Z" fill="#F318F8"/>
<path id="A" d="M77.0938 542.406H59.4688L55.7812 553H47.5625L64.75 507.5H71.8438L89.0625 553H80.8125L77.0938 542.406ZM61.6875 536.031H74.875L68.2812 517.156L61.6875 536.031Z" fill="white"/>
</g>
<g id="Group 100">
<path id="Rectangle 5" d="M411 489H627.745L661 529L627.745 569H411V489Z" fill="#F318F8" fill-opacity="0.1"/>
<path id="Rectangle 5 (Stroke)" fill-rule="evenodd" clip-rule="evenodd" d="M626.338 492H414V566H626.338L657.099 529L626.338 492ZM627.745 489H411V569H627.745L661 529L627.745 489Z" fill="#F318F8"/>
<path id="Ellipse 2" d="M452 529C452 551.091 434.091 569 412 569C389.909 569 372 551.091 372 529C372 506.909 389.909 489 412 489C434.091 489 452 506.909 452 529Z" fill="#F318F8"/>
<path id="B" d="M395.625 545V499.5H411.219C416.365 499.5 420.281 500.531 422.969 502.594C425.656 504.656 427 507.729 427 511.812C427 513.896 426.438 515.771 425.312 517.438C424.188 519.104 422.542 520.396 420.375 521.312C422.833 521.979 424.729 523.24 426.062 525.094C427.417 526.927 428.094 529.135 428.094 531.719C428.094 535.99 426.719 539.271 423.969 541.562C421.24 543.854 417.323 545 412.219 545H395.625ZM403.531 524.469V538.688H412.312C414.792 538.688 416.729 538.073 418.125 536.844C419.521 535.615 420.219 533.906 420.219 531.719C420.219 526.99 417.802 524.573 412.969 524.469H403.531ZM403.531 518.656H411.281C413.74 518.656 415.656 518.104 417.031 517C418.427 515.875 419.125 514.292 419.125 512.25C419.125 510 418.479 508.375 417.188 507.375C415.917 506.375 413.927 505.875 411.219 505.875H403.531V518.656Z" fill="white"/>
</g>
<g id="Group 102">
<path id="Rectangle 7" d="M73 602H289.745L323 642L289.745 682H73V602Z" fill="#F318F8" fill-opacity="0.1"/>
<path id="Rectangle 7 (Stroke)" fill-rule="evenodd" clip-rule="evenodd" d="M288.338 605H76V679H288.338L319.099 642L288.338 605ZM289.745 602H73V682H289.745L323 642L289.745 602Z" fill="#F318F8"/>
<path id="Ellipse 4" d="M108 643C108 665.091 90.0914 683 68 683C45.9086 683 28 665.091 28 643C28 620.909 45.9086 603 68 603C90.0914 603 108 620.909 108 643Z" fill="#F318F8"/>
<path id="D" d="M50.625 665V619.5H64.0625C68.0833 619.5 71.6458 620.396 74.75 622.188C77.875 623.979 80.2917 626.521 82 629.812C83.7083 633.104 84.5625 636.875 84.5625 641.125V643.406C84.5625 647.719 83.6979 651.51 81.9688 654.781C80.2604 658.052 77.8125 660.573 74.625 662.344C71.4583 664.115 67.8229 665 63.7188 665H50.625ZM58.5312 625.875V658.688H63.6875C67.8333 658.688 71.0104 657.396 73.2188 654.812C75.4479 652.208 76.5833 648.479 76.625 643.625V641.094C76.625 636.156 75.5521 632.385 73.4062 629.781C71.2604 627.177 68.1458 625.875 64.0625 625.875H58.5312Z" fill="white"/>
</g>
<g id="Group 101">
<path id="Rectangle 6" d="M761 553H977.745L1011 593L977.745 633H761V553Z" fill="#F318F8" fill-opacity="0.1"/>
<path id="Rectangle 6 (Stroke)" fill-rule="evenodd" clip-rule="evenodd" d="M976.338 556H764V630H976.338L1007.1 593L976.338 556ZM977.745 553H761V633H977.745L1011 593L977.745 553Z" fill="#F318F8"/>
<path id="Ellipse 3" d="M802 593C802 615.091 784.091 633 762 633C739.909 633 722 615.091 722 593C722 570.909 739.909 553 762 553C784.091 553 802 570.909 802 593Z" fill="#F318F8"/>
<path id="C" d="M779.344 600.188C778.885 605.042 777.094 608.833 773.969 611.562C770.844 614.271 766.688 615.625 761.5 615.625C757.875 615.625 754.677 614.771 751.906 613.062C749.156 611.333 747.031 608.885 745.531 605.719C744.031 602.552 743.25 598.875 743.188 594.688V590.438C743.188 586.146 743.948 582.365 745.469 579.094C746.99 575.823 749.167 573.302 752 571.531C754.854 569.76 758.146 568.875 761.875 568.875C766.896 568.875 770.938 570.24 774 572.969C777.062 575.698 778.844 579.552 779.344 584.531H771.469C771.094 581.26 770.135 578.906 768.594 577.469C767.073 576.01 764.833 575.281 761.875 575.281C758.438 575.281 755.792 576.542 753.938 579.062C752.104 581.562 751.167 585.24 751.125 590.094V594.125C751.125 599.042 752 602.792 753.75 605.375C755.521 607.958 758.104 609.25 761.5 609.25C764.604 609.25 766.938 608.552 768.5 607.156C770.062 605.76 771.052 603.438 771.469 600.188H779.344Z" fill="white"/>
</g>
<g id="Group 103">
<path id="Rectangle 8" d="M410 601H626.745L660 641L626.745 681H410V601Z" fill="#F318F8" fill-opacity="0.1"/>
<path id="Rectangle 8 (Stroke)" fill-rule="evenodd" clip-rule="evenodd" d="M625.338 604H413V678H625.338L656.099 641L625.338 604ZM626.745 601H410V681H626.745L660 641L626.745 601Z" fill="#F318F8"/>
<path id="Ellipse 5" d="M451 641C451 663.091 433.091 681 411 681C388.909 681 371 663.091 371 641C371 618.909 388.909 601 411 601C433.091 601 451 618.909 451 641Z" fill="#F318F8"/>
<path id="E" d="M420.219 642.688H401.531V656.688H423.375V663H393.625V617.5H423.156V623.875H401.531V636.438H420.219V642.688Z" fill="white"/>
</g>
<g id="1 2 3 4 5">
<path d="M170.814 547H167.545V525.326L160.988 527.734V524.781L170.305 521.283H170.814V547Z" fill="#F318F8"/>
<path d="M518.58 547H501.811V544.662L510.67 534.818C511.982 533.33 512.885 532.123 513.377 531.197C513.881 530.26 514.133 529.293 514.133 528.297C514.133 526.961 513.729 525.865 512.92 525.01C512.111 524.154 511.033 523.727 509.686 523.727C508.068 523.727 506.809 524.189 505.906 525.115C505.016 526.029 504.57 527.307 504.57 528.947H501.318C501.318 526.592 502.074 524.688 503.586 523.234C505.109 521.781 507.143 521.055 509.686 521.055C512.064 521.055 513.945 521.682 515.328 522.936C516.711 524.178 517.402 525.836 517.402 527.91C517.402 530.43 515.797 533.43 512.586 536.91L505.73 544.346H518.58V547Z" fill="#F318F8"/>
<path d="M870.301 587.621H872.744C874.279 587.598 875.486 587.193 876.365 586.408C877.244 585.623 877.684 584.562 877.684 583.227C877.684 580.227 876.189 578.727 873.201 578.727C871.795 578.727 870.67 579.131 869.826 579.939C868.994 580.736 868.578 581.797 868.578 583.121H865.326C865.326 581.094 866.064 579.412 867.541 578.076C869.029 576.729 870.916 576.055 873.201 576.055C875.615 576.055 877.508 576.693 878.879 577.971C880.25 579.248 880.936 581.023 880.936 583.297C880.936 584.41 880.572 585.488 879.846 586.531C879.131 587.574 878.152 588.354 876.91 588.869C878.316 589.314 879.4 590.053 880.162 591.084C880.936 592.115 881.322 593.375 881.322 594.863C881.322 597.16 880.572 598.982 879.072 600.33C877.572 601.678 875.621 602.352 873.219 602.352C870.816 602.352 868.859 601.701 867.348 600.4C865.848 599.1 865.098 597.383 865.098 595.25H868.367C868.367 596.598 868.807 597.676 869.686 598.484C870.564 599.293 871.742 599.697 873.219 599.697C874.789 599.697 875.99 599.287 876.822 598.467C877.654 597.646 878.07 596.469 878.07 594.934C878.07 593.445 877.613 592.303 876.699 591.506C875.785 590.709 874.467 590.299 872.744 590.275H870.301V587.621Z" fill="#F318F8"/>
<path d="M173.855 648.404H177.406V651.059H173.855V657H170.586V651.059H158.932V649.143L170.393 631.406H173.855V648.404ZM162.623 648.404H170.586V635.854L170.199 636.557L162.623 648.404Z" fill="#F318F8"/>
<path d="M503.305 644.168L504.605 631.406H517.719V634.412H507.365L506.592 641.391C507.846 640.652 509.27 640.283 510.863 640.283C513.195 640.283 515.047 641.057 516.418 642.604C517.789 644.139 518.475 646.219 518.475 648.844C518.475 651.48 517.76 653.561 516.33 655.084C514.912 656.596 512.926 657.352 510.371 657.352C508.109 657.352 506.264 656.725 504.834 655.471C503.404 654.217 502.59 652.482 502.391 650.268H505.467C505.666 651.732 506.188 652.84 507.031 653.59C507.875 654.328 508.988 654.697 510.371 654.697C511.883 654.697 513.066 654.182 513.922 653.15C514.789 652.119 515.223 650.695 515.223 648.879C515.223 647.168 514.754 645.797 513.816 644.766C512.891 643.723 511.654 643.201 510.107 643.201C508.689 643.201 507.576 643.512 506.768 644.133L505.906 644.836L503.305 644.168Z" fill="#F318F8"/>
</g>
<g id="flecha">
<path id="Rectangle 2" d="M81.2001 603.008L96.4819 611.133L54.5003 690.089L39.2185 681.963L81.2001 603.008Z" fill="#1043F5"/>
<path id="Rectangle 1_2" d="M23 615.904L113 566V623.692L68 606.096L23 615.904Z" fill="#1043F5"/>
<path id="Rectangle 3" d="M27.0385 685.21L42.6656 658.143L59.9362 657.565L44.3091 684.632L27.0385 685.21Z" fill="#1043F5"/>
<path id="Rectangle 4_2" d="M53.0894 699.845L68.7166 672.778L59.9258 657.154L44.2987 684.221L53.0894 699.845Z" fill="#1043F5"/>
</g>
</g>
</g>
</svg>
