<svg viewBox="0 0 2160 800" fill="none" xmlns="http://www.w3.org/2000/svg">
<g id="01320023">
<g id="primero">
<g id="N&#195;&#186;meros">
<path d="M154.469 77H148.438L125.531 41.9375V77H119.5V31.5H125.531L148.5 66.7188V31.5H154.469V77Z" fill="#12E1EE"/>
<path d="M185.094 73.6562C182.844 76.3021 179.542 77.625 175.188 77.625C171.583 77.625 168.833 76.5833 166.938 74.5C165.062 72.3958 164.115 69.2917 164.094 65.1875V43.1875H169.875V65.0312C169.875 70.1562 171.958 72.7188 176.125 72.7188C180.542 72.7188 183.479 71.0729 184.938 67.7812V43.1875H190.719V77H185.219L185.094 73.6562ZM180.406 29H187.406L179.031 38.1875H174.375L180.406 29Z" fill="#12E1EE"/>
<path d="M204.969 43.1875L205.125 46.9375C207.604 44.0208 210.948 42.5625 215.156 42.5625C219.885 42.5625 223.104 44.375 224.812 48C225.938 46.375 227.396 45.0625 229.188 44.0625C231 43.0625 233.135 42.5625 235.594 42.5625C243.01 42.5625 246.781 46.4896 246.906 54.3438V77H241.125V54.6875C241.125 52.2708 240.573 50.4688 239.469 49.2812C238.365 48.0729 236.51 47.4688 233.906 47.4688C231.76 47.4688 229.979 48.1146 228.562 49.4062C227.146 50.6771 226.323 52.3958 226.094 54.5625V77H220.281V54.8438C220.281 49.9271 217.875 47.4688 213.062 47.4688C209.271 47.4688 206.677 49.0833 205.281 52.3125V77H199.5V43.1875H204.969Z" fill="#12E1EE"/>
<path d="M269.688 77.625C265.104 77.625 261.375 76.125 258.5 73.125C255.625 70.1042 254.188 66.0729 254.188 61.0312V59.9688C254.188 56.6146 254.823 53.625 256.094 51C257.385 48.3542 259.177 46.2917 261.469 44.8125C263.781 43.3125 266.281 42.5625 268.969 42.5625C273.365 42.5625 276.781 44.0104 279.219 46.9062C281.656 49.8021 282.875 53.9479 282.875 59.3438V61.75H259.969C260.052 65.0833 261.021 67.7812 262.875 69.8438C264.75 71.8854 267.125 72.9062 270 72.9062C272.042 72.9062 273.771 72.4896 275.188 71.6562C276.604 70.8229 277.844 69.7188 278.906 68.3438L282.438 71.0938C279.604 75.4479 275.354 77.625 269.688 77.625ZM268.969 47.3125C266.635 47.3125 264.677 48.1667 263.094 49.875C261.51 51.5625 260.531 53.9375 260.156 57H277.094V56.5625C276.927 53.625 276.135 51.3542 274.719 49.75C273.302 48.125 271.385 47.3125 268.969 47.3125Z" fill="#12E1EE"/>
<path d="M305.938 48.375C305.062 48.2292 304.115 48.1562 303.094 48.1562C299.302 48.1562 296.729 49.7708 295.375 53V77H289.594V43.1875H295.219L295.312 47.0938C297.208 44.0729 299.896 42.5625 303.375 42.5625C304.5 42.5625 305.354 42.7083 305.938 43V48.375Z" fill="#12E1EE"/>
<path d="M309.125 59.7812C309.125 56.4688 309.771 53.4896 311.062 50.8438C312.375 48.1979 314.188 46.1562 316.5 44.7188C318.833 43.2812 321.49 42.5625 324.469 42.5625C329.073 42.5625 332.792 44.1562 335.625 47.3438C338.479 50.5312 339.906 54.7708 339.906 60.0625V60.4688C339.906 63.7604 339.271 66.7188 338 69.3438C336.75 71.9479 334.948 73.9792 332.594 75.4375C330.26 76.8958 327.573 77.625 324.531 77.625C319.948 77.625 316.229 76.0312 313.375 72.8438C310.542 69.6562 309.125 65.4375 309.125 60.1875V59.7812ZM314.938 60.4688C314.938 64.2188 315.802 67.2292 317.531 69.5C319.281 71.7708 321.615 72.9062 324.531 72.9062C327.469 72.9062 329.802 71.7604 331.531 69.4688C333.26 67.1562 334.125 63.9271 334.125 59.7812C334.125 56.0729 333.24 53.0729 331.469 50.7812C329.719 48.4688 327.385 47.3125 324.469 47.3125C321.615 47.3125 319.312 48.4479 317.562 50.7188C315.812 52.9896 314.938 56.2396 314.938 60.4688Z" fill="#12E1EE"/>
<path d="M366.844 68.0312C366.844 66.4688 366.25 65.2604 365.062 64.4062C363.896 63.5312 361.844 62.7812 358.906 62.1562C355.99 61.5312 353.667 60.7812 351.938 59.9062C350.229 59.0312 348.958 57.9896 348.125 56.7812C347.312 55.5729 346.906 54.1354 346.906 52.4688C346.906 49.6979 348.073 47.3542 350.406 45.4375C352.76 43.5208 355.76 42.5625 359.406 42.5625C363.24 42.5625 366.344 43.5521 368.719 45.5312C371.115 47.5104 372.312 50.0417 372.312 53.125H366.5C366.5 51.5417 365.823 50.1771 364.469 49.0312C363.135 47.8854 361.448 47.3125 359.406 47.3125C357.302 47.3125 355.656 47.7708 354.469 48.6875C353.281 49.6042 352.688 50.8021 352.688 52.2812C352.688 53.6771 353.24 54.7292 354.344 55.4375C355.448 56.1458 357.438 56.8229 360.312 57.4688C363.208 58.1146 365.552 58.8854 367.344 59.7812C369.135 60.6771 370.458 61.7604 371.312 63.0312C372.188 64.2812 372.625 65.8125 372.625 67.625C372.625 70.6458 371.417 73.0729 369 74.9062C366.583 76.7188 363.448 77.625 359.594 77.625C356.885 77.625 354.49 77.1458 352.406 76.1875C350.323 75.2292 348.688 73.8958 347.5 72.1875C346.333 70.4583 345.75 68.5938 345.75 66.5938H351.531C351.635 68.5312 352.406 70.0729 353.844 71.2188C355.302 72.3438 357.219 72.9062 359.594 72.9062C361.781 72.9062 363.531 72.4688 364.844 71.5938C366.177 70.6979 366.844 69.5104 366.844 68.0312Z" fill="#12E1EE"/>
</g>
<g id="solucion_1">
<g id="Group 54">
<g id="palito">
<path id="Line 2 (Stroke)" fill-rule="evenodd" clip-rule="evenodd" d="M218 218C216.619 218 215.5 217.02 215.5 215.81V132.598C215.5 131.389 216.619 130.409 218 130.409C219.381 130.409 220.5 131.389 220.5 132.598V215.81C220.5 217.02 219.381 218 218 218Z" fill="white"/>
<path id="Ellipse 1" d="M218 118C221.866 118 225 124.471 225 132.453C225 140.435 221.866 146.905 218 146.905C214.134 146.905 211 140.435 211 132.453C211 124.471 214.134 118 218 118Z" fill="#D40303"/>
</g>
<g id="palito_2">
<path id="Line 2 (Stroke)_2" fill-rule="evenodd" clip-rule="evenodd" d="M218 331C216.619 331 215.5 330.02 215.5 328.81V245.598C215.5 244.389 216.619 243.409 218 243.409C219.381 243.409 220.5 244.389 220.5 245.598V328.81C220.5 330.02 219.381 331 218 331Z" fill="white"/>
<path id="Ellipse 1_2" d="M218 231C221.866 231 225 237.471 225 245.453C225 253.435 221.866 259.905 218 259.905C214.134 259.905 211 253.435 211 245.453C211 237.471 214.134 231 218 231Z" fill="#D40303"/>
</g>
</g>
<g id="Group 53">
<g id="palito_3">
<path id="Line 2 (Stroke)_3" fill-rule="evenodd" clip-rule="evenodd" d="M408 220C406.619 220 405.5 219.02 405.5 217.81V134.598C405.5 133.389 406.619 132.409 408 132.409C409.381 132.409 410.5 133.389 410.5 134.598V217.81C410.5 219.02 409.381 220 408 220Z" fill="white"/>
<path id="Ellipse 1_3" d="M408 120C411.866 120 415 126.471 415 134.453C415 142.435 411.866 148.905 408 148.905C404.134 148.905 401 142.435 401 134.453C401 126.471 404.134 120 408 120Z" fill="#D40303"/>
</g>
<g id="palito_4">
<path id="Line 2 (Stroke)_4" fill-rule="evenodd" clip-rule="evenodd" d="M299 326C297.619 326 296.5 325.02 296.5 323.81V240.598C296.5 239.389 297.619 238.409 299 238.409C300.381 238.409 301.5 239.389 301.5 240.598V323.81C301.5 325.02 300.381 326 299 326Z" fill="white"/>
<path id="Ellipse 1_4" d="M299 226C302.866 226 306 232.471 306 240.453C306 248.435 302.866 254.905 299 254.905C295.134 254.905 292 248.435 292 240.453C292 232.471 295.134 226 299 226Z" fill="#D40303"/>
</g>
<g id="palito_5">
<path id="Line 2 (Stroke)_5" fill-rule="evenodd" clip-rule="evenodd" d="M308 118C308 116.619 308.98 115.5 310.19 115.5H393.402C394.611 115.5 395.591 116.619 395.591 118C395.591 119.381 394.611 120.5 393.402 120.5H310.19C308.98 120.5 308 119.381 308 118Z" fill="white"/>
<path id="Ellipse 1_5" d="M408 118C408 121.866 401.529 125 393.547 125C385.565 125 379.095 121.866 379.095 118C379.095 114.134 385.565 111 393.547 111C401.529 111 408 114.134 408 118Z" fill="#D40303"/>
</g>
<g id="palito_6">
<path id="Line 2 (Stroke)_6" fill-rule="evenodd" clip-rule="evenodd" d="M306 228C306 226.619 306.98 225.5 308.19 225.5H391.402C392.611 225.5 393.591 226.619 393.591 228C393.591 229.381 392.611 230.5 391.402 230.5H308.19C306.98 230.5 306 229.381 306 228Z" fill="white"/>
<path id="Ellipse 1_6" d="M406 228C406 231.866 399.529 235 391.547 235C383.565 235 377.095 231.866 377.095 228C377.095 224.134 383.565 221 391.547 221C399.529 221 406 224.134 406 228Z" fill="#D40303"/>
</g>
<g id="palito_7">
<path id="Line 2 (Stroke)_7" fill-rule="evenodd" clip-rule="evenodd" d="M308 324C308 322.619 308.98 321.5 310.19 321.5H393.402C394.611 321.5 395.591 322.619 395.591 324C395.591 325.381 394.611 326.5 393.402 326.5H310.19C308.98 326.5 308 325.381 308 324Z" fill="white"/>
<path id="Ellipse 1_7" d="M408 324C408 327.866 401.529 331 393.547 331C385.565 331 379.095 327.866 379.095 324C379.095 320.134 385.565 317 393.547 317C401.529 317 408 320.134 408 324Z" fill="#D40303"/>
</g>
</g>
<g id="Group 52">
<g id="palito_8">
<path id="Line 2 (Stroke)_8" fill-rule="evenodd" clip-rule="evenodd" d="M582 216C580.619 216 579.5 215.02 579.5 213.81V130.598C579.5 129.389 580.619 128.409 582 128.409C583.381 128.409 584.5 129.389 584.5 130.598V213.81C584.5 215.02 583.381 216 582 216Z" fill="white"/>
<path id="Ellipse 1_8" d="M582 116C585.866 116 589 122.471 589 130.453C589 138.435 585.866 144.905 582 144.905C578.134 144.905 575 138.435 575 130.453C575 122.471 578.134 116 582 116Z" fill="#D40303"/>
</g>
<g id="palito_9">
<path id="Line 2 (Stroke)_9" fill-rule="evenodd" clip-rule="evenodd" d="M582 326C580.619 326 579.5 325.02 579.5 323.81V240.598C579.5 239.389 580.619 238.409 582 238.409C583.381 238.409 584.5 239.389 584.5 240.598V323.81C584.5 325.02 583.381 326 582 326Z" fill="white"/>
<path id="Ellipse 1_9" d="M582 226C585.866 226 589 232.471 589 240.453C589 248.435 585.866 254.905 582 254.905C578.134 254.905 575 248.435 575 240.453C575 232.471 578.134 226 582 226Z" fill="#D40303"/>
</g>
<g id="palito_10">
<path id="Line 2 (Stroke)_10" fill-rule="evenodd" clip-rule="evenodd" d="M482 114C482 112.619 482.98 111.5 484.19 111.5H567.402C568.611 111.5 569.591 112.619 569.591 114C569.591 115.381 568.611 116.5 567.402 116.5H484.19C482.98 116.5 482 115.381 482 114Z" fill="white"/>
<path id="Ellipse 1_10" d="M582 114C582 117.866 575.529 121 567.547 121C559.565 121 553.095 117.866 553.095 114C553.095 110.134 559.565 107 567.547 107C575.529 107 582 110.134 582 114Z" fill="#D40303"/>
</g>
<g id="palito_11">
<path id="Line 2 (Stroke)_11" fill-rule="evenodd" clip-rule="evenodd" d="M480 224C480 222.619 480.98 221.5 482.19 221.5H565.402C566.611 221.5 567.591 222.619 567.591 224C567.591 225.381 566.611 226.5 565.402 226.5H482.19C480.98 226.5 480 225.381 480 224Z" fill="white"/>
<path id="Ellipse 1_11" d="M580 224C580 227.866 573.529 231 565.547 231C557.565 231 551.095 227.866 551.095 224C551.095 220.134 557.565 217 565.547 217C573.529 217 580 220.134 580 224Z" fill="#D40303"/>
</g>
<g id="palito_12">
<path id="Line 2 (Stroke)_12" fill-rule="evenodd" clip-rule="evenodd" d="M482 320C482 318.619 482.98 317.5 484.19 317.5H567.402C568.611 317.5 569.591 318.619 569.591 320C569.591 321.381 568.611 322.5 567.402 322.5H484.19C482.98 322.5 482 321.381 482 320Z" fill="white"/>
<path id="Ellipse 1_12" d="M582 320C582 323.866 575.529 327 567.547 327C559.565 327 553.095 323.866 553.095 320C553.095 316.134 559.565 313 567.547 313C575.529 313 582 316.134 582 320Z" fill="#D40303"/>
</g>
</g>
<g id="Group 51">
<g id="palito_13">
<path id="Line 2 (Stroke)_13" fill-rule="evenodd" clip-rule="evenodd" d="M659 207C657.619 207 656.5 206.02 656.5 204.81V121.598C656.5 120.389 657.619 119.409 659 119.409C660.381 119.409 661.5 120.389 661.5 121.598V204.81C661.5 206.02 660.381 207 659 207Z" fill="white"/>
<path id="Ellipse 1_13" d="M659 107C662.866 107 666 113.471 666 121.453C666 129.435 662.866 135.905 659 135.905C655.134 135.905 652 129.435 652 121.453C652 113.471 655.134 107 659 107Z" fill="#D40303"/>
</g>
<g id="palito_14">
<path id="Line 2 (Stroke)_14" fill-rule="evenodd" clip-rule="evenodd" d="M768 323C766.619 323 765.5 322.02 765.5 320.81V237.598C765.5 236.389 766.619 235.409 768 235.409C769.381 235.409 770.5 236.389 770.5 237.598V320.81C770.5 322.02 769.381 323 768 323Z" fill="white"/>
<path id="Ellipse 1_14" d="M768 223C771.866 223 775 229.471 775 237.453C775 245.435 771.866 251.905 768 251.905C764.134 251.905 761 245.435 761 237.453C761 229.471 764.134 223 768 223Z" fill="#D40303"/>
</g>
<g id="palito_15">
<path id="Line 2 (Stroke)_15" fill-rule="evenodd" clip-rule="evenodd" d="M768 207C766.619 207 765.5 206.02 765.5 204.81V121.598C765.5 120.389 766.619 119.409 768 119.409C769.381 119.409 770.5 120.389 770.5 121.598V204.81C770.5 206.02 769.381 207 768 207Z" fill="white"/>
<path id="Ellipse 1_15" d="M768 107C771.866 107 775 113.471 775 121.453C775 129.435 771.866 135.905 768 135.905C764.134 135.905 761 129.435 761 121.453C761 113.471 764.134 107 768 107Z" fill="#D40303"/>
</g>
<g id="palito_16">
<path id="Line 2 (Stroke)_16" fill-rule="evenodd" clip-rule="evenodd" d="M666 221C666 219.619 666.98 218.5 668.19 218.5H751.402C752.611 218.5 753.591 219.619 753.591 221C753.591 222.381 752.611 223.5 751.402 223.5H668.19C666.98 223.5 666 222.381 666 221Z" fill="white"/>
<path id="Ellipse 1_16" d="M766 221C766 224.866 759.529 228 751.547 228C743.565 228 737.095 224.866 737.095 221C737.095 217.134 743.565 214 751.547 214C759.529 214 766 217.134 766 221Z" fill="#D40303"/>
</g>
</g>
<g id="Group 50">
<g id="palito_17">
<path id="Line 2 (Stroke)_17" fill-rule="evenodd" clip-rule="evenodd" d="M845 213C843.619 213 842.5 212.02 842.5 210.81V127.598C842.5 126.389 843.619 125.409 845 125.409C846.381 125.409 847.5 126.389 847.5 127.598V210.81C847.5 212.02 846.381 213 845 213Z" fill="white"/>
<path id="Ellipse 1_17" d="M845 113C848.866 113 852 119.471 852 127.453C852 135.435 848.866 141.905 845 141.905C841.134 141.905 838 135.435 838 127.453C838 119.471 841.134 113 845 113Z" fill="#D40303"/>
</g>
<g id="palito_18">
<path id="Line 2 (Stroke)_18" fill-rule="evenodd" clip-rule="evenodd" d="M954 325C952.619 325 951.5 324.02 951.5 322.81V239.598C951.5 238.389 952.619 237.409 954 237.409C955.381 237.409 956.5 238.389 956.5 239.598V322.81C956.5 324.02 955.381 325 954 325Z" fill="white"/>
<path id="Ellipse 1_18" d="M954 225C957.866 225 961 231.471 961 239.453C961 247.435 957.866 253.905 954 253.905C950.134 253.905 947 247.435 947 239.453C947 231.471 950.134 225 954 225Z" fill="#D40303"/>
</g>
<g id="palito_19">
<path id="Line 2 (Stroke)_19" fill-rule="evenodd" clip-rule="evenodd" d="M854 113C854 111.619 854.98 110.5 856.19 110.5H939.402C940.611 110.5 941.591 111.619 941.591 113C941.591 114.381 940.611 115.5 939.402 115.5H856.19C854.98 115.5 854 114.381 854 113Z" fill="white"/>
<path id="Ellipse 1_19" d="M954 113C954 116.866 947.529 120 939.548 120C931.566 120 925.095 116.866 925.095 113C925.095 109.134 931.566 106 939.548 106C947.529 106 954 109.134 954 113Z" fill="#D40303"/>
</g>
<g id="palito_20">
<path id="Line 2 (Stroke)_20" fill-rule="evenodd" clip-rule="evenodd" d="M852 223C852 221.619 852.98 220.5 854.19 220.5H937.402C938.611 220.5 939.591 221.619 939.591 223C939.591 224.381 938.611 225.5 937.402 225.5H854.19C852.98 225.5 852 224.381 852 223Z" fill="white"/>
<path id="Ellipse 1_20" d="M952 223C952 226.866 945.529 230 937.548 230C929.566 230 923.095 226.866 923.095 223C923.095 219.134 929.566 216 937.548 216C945.529 216 952 219.134 952 223Z" fill="#D40303"/>
</g>
<g id="palito_21">
<path id="Line 2 (Stroke)_21" fill-rule="evenodd" clip-rule="evenodd" d="M854 319C854 317.619 854.98 316.5 856.19 316.5H939.402C940.611 316.5 941.591 317.619 941.591 319C941.591 320.381 940.611 321.5 939.402 321.5H856.19C854.98 321.5 854 320.381 854 319Z" fill="white"/>
<path id="Ellipse 1_21" d="M954 319C954 322.866 947.529 326 939.548 326C931.566 326 925.095 322.866 925.095 319C925.095 315.134 931.566 312 939.548 312C947.529 312 954 315.134 954 319Z" fill="#D40303"/>
</g>
</g>
<g id="Group 49">
<g id="palito_22">
<path id="Line 2 (Stroke)_22" fill-rule="evenodd" clip-rule="evenodd" d="M109 477C107.619 477 106.5 476.02 106.5 474.81V391.598C106.5 390.389 107.619 389.409 109 389.409C110.381 389.409 111.5 390.389 111.5 391.598V474.81C111.5 476.02 110.381 477 109 477Z" fill="white"/>
<path id="Ellipse 1_22" d="M109 377C112.866 377 116 383.471 116 391.453C116 399.435 112.866 405.905 109 405.905C105.134 405.905 102 399.435 102 391.453C102 383.471 105.134 377 109 377Z" fill="#D40303"/>
</g>
<g id="palito_23">
<path id="Line 2 (Stroke)_23" fill-rule="evenodd" clip-rule="evenodd" d="M218 590C216.619 590 215.5 589.02 215.5 587.81V504.598C215.5 503.389 216.619 502.409 218 502.409C219.381 502.409 220.5 503.389 220.5 504.598V587.81C220.5 589.02 219.381 590 218 590Z" fill="white"/>
<path id="Ellipse 1_23" d="M218 490C221.866 490 225 496.471 225 504.453C225 512.435 221.866 518.905 218 518.905C214.134 518.905 211 512.435 211 504.453C211 496.471 214.134 490 218 490Z" fill="#D40303"/>
</g>
<g id="palito_24">
<path id="Line 2 (Stroke)_24" fill-rule="evenodd" clip-rule="evenodd" d="M109 583C107.619 583 106.5 582.02 106.5 580.81V497.598C106.5 496.389 107.619 495.409 109 495.409C110.381 495.409 111.5 496.389 111.5 497.598V580.81C111.5 582.02 110.381 583 109 583Z" fill="white"/>
<path id="Ellipse 1_24" d="M109 483C112.866 483 116 489.471 116 497.453C116 505.435 112.866 511.905 109 511.905C105.134 511.905 102 505.435 102 497.453C102 489.471 105.134 483 109 483Z" fill="#D40303"/>
</g>
<g id="palito_25">
<path id="Line 2 (Stroke)_25" fill-rule="evenodd" clip-rule="evenodd" d="M118 377C118 375.619 118.98 374.5 120.19 374.5H203.402C204.611 374.5 205.591 375.619 205.591 377C205.591 378.381 204.611 379.5 203.402 379.5H120.19C118.98 379.5 118 378.381 118 377Z" fill="white"/>
<path id="Ellipse 1_25" d="M218 377C218 380.866 211.529 384 203.547 384C195.565 384 189.095 380.866 189.095 377C189.095 373.134 195.565 370 203.547 370C211.529 370 218 373.134 218 377Z" fill="#D40303"/>
</g>
<g id="palito_26">
<path id="Line 2 (Stroke)_26" fill-rule="evenodd" clip-rule="evenodd" d="M116 487C116 485.619 116.98 484.5 118.19 484.5H201.402C202.611 484.5 203.591 485.619 203.591 487C203.591 488.381 202.611 489.5 201.402 489.5H118.19C116.98 489.5 116 488.381 116 487Z" fill="white"/>
<path id="Ellipse 1_26" d="M216 487C216 490.866 209.529 494 201.547 494C193.565 494 187.095 490.866 187.095 487C187.095 483.134 193.565 480 201.547 480C209.529 480 216 483.134 216 487Z" fill="#D40303"/>
</g>
<g id="palito_27">
<path id="Line 2 (Stroke)_27" fill-rule="evenodd" clip-rule="evenodd" d="M118 583C118 581.619 118.98 580.5 120.19 580.5H203.402C204.611 580.5 205.591 581.619 205.591 583C205.591 584.381 204.611 585.5 203.402 585.5H120.19C118.98 585.5 118 584.381 118 583Z" fill="white"/>
<path id="Ellipse 1_27" d="M218 583C218 586.866 211.529 590 203.547 590C195.565 590 189.095 586.866 189.095 583C189.095 579.134 195.565 576 203.547 576C211.529 576 218 579.134 218 583Z" fill="#D40303"/>
</g>
</g>
<g id="Group 48">
<g id="palito_28">
<path id="Line 2 (Stroke)_28" fill-rule="evenodd" clip-rule="evenodd" d="M404 479C402.619 479 401.5 478.02 401.5 476.81V393.598C401.5 392.389 402.619 391.409 404 391.409C405.381 391.409 406.5 392.389 406.5 393.598V476.81C406.5 478.02 405.381 479 404 479Z" fill="white"/>
<path id="Ellipse 1_28" d="M404 379C407.866 379 411 385.471 411 393.453C411 401.435 407.866 407.905 404 407.905C400.134 407.905 397 401.435 397 393.453C397 385.471 400.134 379 404 379Z" fill="#D40303"/>
</g>
<g id="palito_29">
<path id="Line 2 (Stroke)_29" fill-rule="evenodd" clip-rule="evenodd" d="M401 586C399.619 586 398.5 585.02 398.5 583.81V500.598C398.5 499.389 399.619 498.409 401 498.409C402.381 498.409 403.5 499.389 403.5 500.598V583.81C403.5 585.02 402.381 586 401 586Z" fill="white"/>
<path id="Ellipse 1_29" d="M401 486C404.866 486 408 492.471 408 500.453C408 508.435 404.866 514.905 401 514.905C397.134 514.905 394 508.435 394 500.453C394 492.471 397.134 486 401 486Z" fill="#D40303"/>
</g>
<g id="palito_30">
<path id="Line 2 (Stroke)_30" fill-rule="evenodd" clip-rule="evenodd" d="M301 373C301 371.619 301.98 370.5 303.19 370.5H386.402C387.611 370.5 388.591 371.619 388.591 373C388.591 374.381 387.611 375.5 386.402 375.5H303.19C301.98 375.5 301 374.381 301 373Z" fill="white"/>
<path id="Ellipse 1_30" d="M401 373C401 376.866 394.529 380 386.547 380C378.565 380 372.095 376.866 372.095 373C372.095 369.134 378.565 366 386.547 366C394.529 366 401 369.134 401 373Z" fill="#D40303"/>
</g>
</g>
<g id="Group 47">
<g id="palito_31">
<path id="Line 2 (Stroke)_31" fill-rule="evenodd" clip-rule="evenodd" d="M489 477C487.619 477 486.5 476.02 486.5 474.81V391.598C486.5 390.389 487.619 389.409 489 389.409C490.381 389.409 491.5 390.389 491.5 391.598V474.81C491.5 476.02 490.381 477 489 477Z" fill="white"/>
<path id="Ellipse 1_31" d="M489 377C492.866 377 496 383.471 496 391.453C496 399.435 492.866 405.905 489 405.905C485.134 405.905 482 399.435 482 391.453C482 383.471 485.134 377 489 377Z" fill="#D40303"/>
</g>
<g id="palito_32">
<path id="Line 2 (Stroke)_32" fill-rule="evenodd" clip-rule="evenodd" d="M598 475C596.619 475 595.5 474.02 595.5 472.81V389.598C595.5 388.389 596.619 387.409 598 387.409C599.381 387.409 600.5 388.389 600.5 389.598V472.81C600.5 474.02 599.381 475 598 475Z" fill="white"/>
<path id="Ellipse 1_32" d="M598 375C601.866 375 605 381.471 605 389.453C605 397.435 601.866 403.905 598 403.905C594.134 403.905 591 397.435 591 389.453C591 381.471 594.134 375 598 375Z" fill="#D40303"/>
</g>
<g id="palito_33">
<path id="Line 2 (Stroke)_33" fill-rule="evenodd" clip-rule="evenodd" d="M598 590C596.619 590 595.5 589.02 595.5 587.81V504.598C595.5 503.389 596.619 502.409 598 502.409C599.381 502.409 600.5 503.389 600.5 504.598V587.81C600.5 589.02 599.381 590 598 590Z" fill="white"/>
<path id="Ellipse 1_33" d="M598 490C601.866 490 605 496.471 605 504.453C605 512.435 601.866 518.905 598 518.905C594.134 518.905 591 512.435 591 504.453C591 496.471 594.134 490 598 490Z" fill="#D40303"/>
</g>
<g id="palito_34">
<path id="Line 2 (Stroke)_34" fill-rule="evenodd" clip-rule="evenodd" d="M489 583C487.619 583 486.5 582.02 486.5 580.81V497.598C486.5 496.389 487.619 495.409 489 495.409C490.381 495.409 491.5 496.389 491.5 497.598V580.81C491.5 582.02 490.381 583 489 583Z" fill="white"/>
<path id="Ellipse 1_34" d="M489 483C492.866 483 496 489.471 496 497.453C496 505.435 492.866 511.905 489 511.905C485.134 511.905 482 505.435 482 497.453C482 489.471 485.134 483 489 483Z" fill="#D40303"/>
</g>
<g id="palito_35">
<path id="Line 2 (Stroke)_35" fill-rule="evenodd" clip-rule="evenodd" d="M498 377C498 375.619 498.98 374.5 500.19 374.5H583.402C584.611 374.5 585.591 375.619 585.591 377C585.591 378.381 584.611 379.5 583.402 379.5H500.19C498.98 379.5 498 378.381 498 377Z" fill="white"/>
<path id="Ellipse 1_35" d="M598 377C598 380.866 591.529 384 583.547 384C575.565 384 569.095 380.866 569.095 377C569.095 373.134 575.565 370 583.547 370C591.529 370 598 373.134 598 377Z" fill="#D40303"/>
</g>
<g id="palito_36">
<path id="Line 2 (Stroke)_36" fill-rule="evenodd" clip-rule="evenodd" d="M496 487C496 485.619 496.98 484.5 498.19 484.5H581.402C582.611 484.5 583.591 485.619 583.591 487C583.591 488.381 582.611 489.5 581.402 489.5H498.19C496.98 489.5 496 488.381 496 487Z" fill="white"/>
<path id="Ellipse 1_36" d="M596 487C596 490.866 589.529 494 581.547 494C573.565 494 567.095 490.866 567.095 487C567.095 483.134 573.565 480 581.547 480C589.529 480 596 483.134 596 487Z" fill="#D40303"/>
</g>
<g id="palito_37">
<path id="Line 2 (Stroke)_37" fill-rule="evenodd" clip-rule="evenodd" d="M498 583C498 581.619 498.98 580.5 500.19 580.5H583.402C584.611 580.5 585.591 581.619 585.591 583C585.591 584.381 584.611 585.5 583.402 585.5H500.19C498.98 585.5 498 584.381 498 583Z" fill="white"/>
<path id="Ellipse 1_37" d="M598 583C598 586.866 591.529 590 583.547 590C575.565 590 569.095 586.866 569.095 583C569.095 579.134 575.565 576 583.547 576C591.529 576 598 579.134 598 583Z" fill="#D40303"/>
</g>
</g>
<g id="Group 46">
<g id="palito_38">
<path id="Line 2 (Stroke)_38" fill-rule="evenodd" clip-rule="evenodd" d="M659 474C657.619 474 656.5 473.02 656.5 471.81V388.598C656.5 387.389 657.619 386.409 659 386.409C660.381 386.409 661.5 387.389 661.5 388.598V471.81C661.5 473.02 660.381 474 659 474Z" fill="white"/>
<path id="Ellipse 1_38" d="M659 374C662.866 374 666 380.471 666 388.453C666 396.435 662.866 402.905 659 402.905C655.134 402.905 652 396.435 652 388.453C652 380.471 655.134 374 659 374Z" fill="#D40303"/>
</g>
<g id="palito_39">
<path id="Line 2 (Stroke)_39" fill-rule="evenodd" clip-rule="evenodd" d="M768 472C766.619 472 765.5 471.02 765.5 469.81V386.598C765.5 385.389 766.619 384.409 768 384.409C769.381 384.409 770.5 385.389 770.5 386.598V469.81C770.5 471.02 769.381 472 768 472Z" fill="white"/>
<path id="Ellipse 1_39" d="M768 372C771.866 372 775 378.471 775 386.453C775 394.435 771.866 400.905 768 400.905C764.134 400.905 761 394.435 761 386.453C761 378.471 764.134 372 768 372Z" fill="#D40303"/>
</g>
<g id="palito_40">
<path id="Line 2 (Stroke)_40" fill-rule="evenodd" clip-rule="evenodd" d="M768 587C766.619 587 765.5 586.02 765.5 584.81V501.598C765.5 500.389 766.619 499.409 768 499.409C769.381 499.409 770.5 500.389 770.5 501.598V584.81C770.5 586.02 769.381 587 768 587Z" fill="white"/>
<path id="Ellipse 1_40" d="M768 487C771.866 487 775 493.471 775 501.453C775 509.435 771.866 515.905 768 515.905C764.134 515.905 761 509.435 761 501.453C761 493.471 764.134 487 768 487Z" fill="#D40303"/>
</g>
<g id="palito_41">
<path id="Line 2 (Stroke)_41" fill-rule="evenodd" clip-rule="evenodd" d="M668 374C668 372.619 668.98 371.5 670.19 371.5H753.402C754.611 371.5 755.591 372.619 755.591 374C755.591 375.381 754.611 376.5 753.402 376.5H670.19C668.98 376.5 668 375.381 668 374Z" fill="white"/>
<path id="Ellipse 1_41" d="M768 374C768 377.866 761.529 381 753.547 381C745.565 381 739.095 377.866 739.095 374C739.095 370.134 745.565 367 753.547 367C761.529 367 768 370.134 768 374Z" fill="#D40303"/>
</g>
<g id="palito_42">
<path id="Line 2 (Stroke)_42" fill-rule="evenodd" clip-rule="evenodd" d="M666 484C666 482.619 666.98 481.5 668.19 481.5H751.402C752.611 481.5 753.591 482.619 753.591 484C753.591 485.381 752.611 486.5 751.402 486.5H668.19C666.98 486.5 666 485.381 666 484Z" fill="white"/>
<path id="Ellipse 1_42" d="M766 484C766 487.866 759.529 491 751.547 491C743.565 491 737.095 487.866 737.095 484C737.095 480.134 743.565 477 751.547 477C759.529 477 766 480.134 766 484Z" fill="#D40303"/>
</g>
</g>
<g id="Group 45">
<g id="palito_43">
<path id="Line 2 (Stroke)_43" fill-rule="evenodd" clip-rule="evenodd" d="M845 477C843.619 477 842.5 476.02 842.5 474.81V391.598C842.5 390.389 843.619 389.409 845 389.409C846.381 389.409 847.5 390.389 847.5 391.598V474.81C847.5 476.02 846.381 477 845 477Z" fill="white"/>
<path id="Ellipse 1_43" d="M845 377C848.866 377 852 383.471 852 391.453C852 399.435 848.866 405.905 845 405.905C841.134 405.905 838 399.435 838 391.453C838 383.471 841.134 377 845 377Z" fill="#D40303"/>
</g>
<g id="palito_44">
<path id="Line 2 (Stroke)_44" fill-rule="evenodd" clip-rule="evenodd" d="M954 475C952.619 475 951.5 474.02 951.5 472.81V389.598C951.5 388.389 952.619 387.409 954 387.409C955.381 387.409 956.5 388.389 956.5 389.598V472.81C956.5 474.02 955.381 475 954 475Z" fill="white"/>
<path id="Ellipse 1_44" d="M954 375C957.866 375 961 381.471 961 389.453C961 397.435 957.866 403.905 954 403.905C950.134 403.905 947 397.435 947 389.453C947 381.471 950.134 375 954 375Z" fill="#D40303"/>
</g>
<g id="palito_45">
<path id="Line 2 (Stroke)_45" fill-rule="evenodd" clip-rule="evenodd" d="M954 590C952.619 590 951.5 589.02 951.5 587.81V504.598C951.5 503.389 952.619 502.409 954 502.409C955.381 502.409 956.5 503.389 956.5 504.598V587.81C956.5 589.02 955.381 590 954 590Z" fill="white"/>
<path id="Ellipse 1_45" d="M954 490C957.866 490 961 496.471 961 504.453C961 512.435 957.866 518.905 954 518.905C950.134 518.905 947 512.435 947 504.453C947 496.471 950.134 490 954 490Z" fill="#D40303"/>
</g>
<g id="palito_46">
<path id="Line 2 (Stroke)_46" fill-rule="evenodd" clip-rule="evenodd" d="M845 583C843.619 583 842.5 582.02 842.5 580.81V497.598C842.5 496.389 843.619 495.409 845 495.409C846.381 495.409 847.5 496.389 847.5 497.598V580.81C847.5 582.02 846.381 583 845 583Z" fill="white"/>
<path id="Ellipse 1_46" d="M845 483C848.866 483 852 489.471 852 497.453C852 505.435 848.866 511.905 845 511.905C841.134 511.905 838 505.435 838 497.453C838 489.471 841.134 483 845 483Z" fill="#D40303"/>
</g>
<g id="palito_47">
<path id="Line 2 (Stroke)_47" fill-rule="evenodd" clip-rule="evenodd" d="M854 377C854 375.619 854.98 374.5 856.19 374.5H939.402C940.611 374.5 941.591 375.619 941.591 377C941.591 378.381 940.611 379.5 939.402 379.5H856.19C854.98 379.5 854 378.381 854 377Z" fill="white"/>
<path id="Ellipse 1_47" d="M954 377C954 380.866 947.529 384 939.548 384C931.566 384 925.095 380.866 925.095 377C925.095 373.134 931.566 370 939.548 370C947.529 370 954 373.134 954 377Z" fill="#D40303"/>
</g>
<g id="palito_48">
<path id="Line 2 (Stroke)_48" fill-rule="evenodd" clip-rule="evenodd" d="M854 583C854 581.619 854.98 580.5 856.19 580.5H939.402C940.611 580.5 941.591 581.619 941.591 583C941.591 584.381 940.611 585.5 939.402 585.5H856.19C854.98 585.5 854 584.381 854 583Z" fill="white"/>
<path id="Ellipse 1_48" d="M954 583C954 586.866 947.529 590 939.548 590C931.566 590 925.095 586.866 925.095 583C925.095 579.134 931.566 576 939.548 576C947.529 576 954 579.134 954 583Z" fill="#D40303"/>
</g>
</g>
</g>
</g>
<path id="linea" fill-rule="evenodd" clip-rule="evenodd" d="M1062 38.0001L1062 616.055H1057L1057 38.0001H1062Z" fill="#2AF808"/>
<g id="segundo">
<g id="N&#195;&#186;meros Romanos">
<path d="M1158.69 77H1152.66L1129.75 41.9375V77H1123.72V31.5H1129.75L1152.72 66.7188V31.5H1158.69V77Z" fill="#12E1EE"/>
<path d="M1189.31 73.6562C1187.06 76.3021 1183.76 77.625 1179.41 77.625C1175.8 77.625 1173.05 76.5833 1171.16 74.5C1169.28 72.3958 1168.33 69.2917 1168.31 65.1875V43.1875H1174.09V65.0312C1174.09 70.1562 1176.18 72.7188 1180.34 72.7188C1184.76 72.7188 1187.7 71.0729 1189.16 67.7812V43.1875H1194.94V77H1189.44L1189.31 73.6562ZM1184.62 29H1191.62L1183.25 38.1875H1178.59L1184.62 29Z" fill="#12E1EE"/>
<path d="M1209.19 43.1875L1209.34 46.9375C1211.82 44.0208 1215.17 42.5625 1219.38 42.5625C1224.1 42.5625 1227.32 44.375 1229.03 48C1230.16 46.375 1231.61 45.0625 1233.41 44.0625C1235.22 43.0625 1237.35 42.5625 1239.81 42.5625C1247.23 42.5625 1251 46.4896 1251.12 54.3438V77H1245.34V54.6875C1245.34 52.2708 1244.79 50.4688 1243.69 49.2812C1242.58 48.0729 1240.73 47.4688 1238.12 47.4688C1235.98 47.4688 1234.2 48.1146 1232.78 49.4062C1231.36 50.6771 1230.54 52.3958 1230.31 54.5625V77H1224.5V54.8438C1224.5 49.9271 1222.09 47.4688 1217.28 47.4688C1213.49 47.4688 1210.9 49.0833 1209.5 52.3125V77H1203.72V43.1875H1209.19Z" fill="#12E1EE"/>
<path d="M1273.91 77.625C1269.32 77.625 1265.59 76.125 1262.72 73.125C1259.84 70.1042 1258.41 66.0729 1258.41 61.0312V59.9688C1258.41 56.6146 1259.04 53.625 1260.31 51C1261.6 48.3542 1263.4 46.2917 1265.69 44.8125C1268 43.3125 1270.5 42.5625 1273.19 42.5625C1277.58 42.5625 1281 44.0104 1283.44 46.9062C1285.88 49.8021 1287.09 53.9479 1287.09 59.3438V61.75H1264.19C1264.27 65.0833 1265.24 67.7812 1267.09 69.8438C1268.97 71.8854 1271.34 72.9062 1274.22 72.9062C1276.26 72.9062 1277.99 72.4896 1279.41 71.6562C1280.82 70.8229 1282.06 69.7188 1283.12 68.3438L1286.66 71.0938C1283.82 75.4479 1279.57 77.625 1273.91 77.625ZM1273.19 47.3125C1270.85 47.3125 1268.9 48.1667 1267.31 49.875C1265.73 51.5625 1264.75 53.9375 1264.38 57H1281.31V56.5625C1281.15 53.625 1280.35 51.3542 1278.94 49.75C1277.52 48.125 1275.6 47.3125 1273.19 47.3125Z" fill="#12E1EE"/>
<path d="M1310.16 48.375C1309.28 48.2292 1308.33 48.1562 1307.31 48.1562C1303.52 48.1562 1300.95 49.7708 1299.59 53V77H1293.81V43.1875H1299.44L1299.53 47.0938C1301.43 44.0729 1304.11 42.5625 1307.59 42.5625C1308.72 42.5625 1309.57 42.7083 1310.16 43V48.375Z" fill="#12E1EE"/>
<path d="M1313.34 59.7812C1313.34 56.4688 1313.99 53.4896 1315.28 50.8438C1316.59 48.1979 1318.41 46.1562 1320.72 44.7188C1323.05 43.2812 1325.71 42.5625 1328.69 42.5625C1333.29 42.5625 1337.01 44.1562 1339.84 47.3438C1342.7 50.5312 1344.12 54.7708 1344.12 60.0625V60.4688C1344.12 63.7604 1343.49 66.7188 1342.22 69.3438C1340.97 71.9479 1339.17 73.9792 1336.81 75.4375C1334.48 76.8958 1331.79 77.625 1328.75 77.625C1324.17 77.625 1320.45 76.0312 1317.59 72.8438C1314.76 69.6562 1313.34 65.4375 1313.34 60.1875V59.7812ZM1319.16 60.4688C1319.16 64.2188 1320.02 67.2292 1321.75 69.5C1323.5 71.7708 1325.83 72.9062 1328.75 72.9062C1331.69 72.9062 1334.02 71.7604 1335.75 69.4688C1337.48 67.1562 1338.34 63.9271 1338.34 59.7812C1338.34 56.0729 1337.46 53.0729 1335.69 50.7812C1333.94 48.4688 1331.6 47.3125 1328.69 47.3125C1325.83 47.3125 1323.53 48.4479 1321.78 50.7188C1320.03 52.9896 1319.16 56.2396 1319.16 60.4688Z" fill="#12E1EE"/>
<path d="M1371.06 68.0312C1371.06 66.4688 1370.47 65.2604 1369.28 64.4062C1368.11 63.5312 1366.06 62.7812 1363.12 62.1562C1360.21 61.5312 1357.89 60.7812 1356.16 59.9062C1354.45 59.0312 1353.18 57.9896 1352.34 56.7812C1351.53 55.5729 1351.12 54.1354 1351.12 52.4688C1351.12 49.6979 1352.29 47.3542 1354.62 45.4375C1356.98 43.5208 1359.98 42.5625 1363.62 42.5625C1367.46 42.5625 1370.56 43.5521 1372.94 45.5312C1375.33 47.5104 1376.53 50.0417 1376.53 53.125H1370.72C1370.72 51.5417 1370.04 50.1771 1368.69 49.0312C1367.35 47.8854 1365.67 47.3125 1363.62 47.3125C1361.52 47.3125 1359.88 47.7708 1358.69 48.6875C1357.5 49.6042 1356.91 50.8021 1356.91 52.2812C1356.91 53.6771 1357.46 54.7292 1358.56 55.4375C1359.67 56.1458 1361.66 56.8229 1364.53 57.4688C1367.43 58.1146 1369.77 58.8854 1371.56 59.7812C1373.35 60.6771 1374.68 61.7604 1375.53 63.0312C1376.41 64.2812 1376.84 65.8125 1376.84 67.625C1376.84 70.6458 1375.64 73.0729 1373.22 74.9062C1370.8 76.7188 1367.67 77.625 1363.81 77.625C1361.1 77.625 1358.71 77.1458 1356.62 76.1875C1354.54 75.2292 1352.91 73.8958 1351.72 72.1875C1350.55 70.4583 1349.97 68.5938 1349.97 66.5938H1355.75C1355.85 68.5312 1356.62 70.0729 1358.06 71.2188C1359.52 72.3438 1361.44 72.9062 1363.81 72.9062C1366 72.9062 1367.75 72.4688 1369.06 71.5938C1370.4 70.6979 1371.06 69.5104 1371.06 68.0312Z" fill="#12E1EE"/>
<path d="M1417.84 58.5938H1407.16V77H1401.12V31.5H1416.19C1421.31 31.5 1425.25 32.6667 1428 35C1430.77 37.3333 1432.16 40.7292 1432.16 45.1875C1432.16 48.0208 1431.39 50.4896 1429.84 52.5938C1428.32 54.6979 1426.2 56.2708 1423.47 57.3125L1434.16 76.625V77H1427.72L1417.84 58.5938ZM1407.16 53.6875H1416.38C1419.35 53.6875 1421.72 52.9167 1423.47 51.375C1425.24 49.8333 1426.12 47.7708 1426.12 45.1875C1426.12 42.375 1425.28 40.2188 1423.59 38.7188C1421.93 37.2188 1419.51 36.4583 1416.34 36.4375H1407.16V53.6875Z" fill="#12E1EE"/>
<path d="M1438.16 59.7812C1438.16 56.4688 1438.8 53.4896 1440.09 50.8438C1441.41 48.1979 1443.22 46.1562 1445.53 44.7188C1447.86 43.2812 1450.52 42.5625 1453.5 42.5625C1458.1 42.5625 1461.82 44.1562 1464.66 47.3438C1467.51 50.5312 1468.94 54.7708 1468.94 60.0625V60.4688C1468.94 63.7604 1468.3 66.7188 1467.03 69.3438C1465.78 71.9479 1463.98 73.9792 1461.62 75.4375C1459.29 76.8958 1456.6 77.625 1453.56 77.625C1448.98 77.625 1445.26 76.0312 1442.41 72.8438C1439.57 69.6562 1438.16 65.4375 1438.16 60.1875V59.7812ZM1443.97 60.4688C1443.97 64.2188 1444.83 67.2292 1446.56 69.5C1448.31 71.7708 1450.65 72.9062 1453.56 72.9062C1456.5 72.9062 1458.83 71.7604 1460.56 69.4688C1462.29 67.1562 1463.16 63.9271 1463.16 59.7812C1463.16 56.0729 1462.27 53.0729 1460.5 50.7812C1458.75 48.4688 1456.42 47.3125 1453.5 47.3125C1450.65 47.3125 1448.34 48.4479 1446.59 50.7188C1444.84 52.9896 1443.97 56.2396 1443.97 60.4688Z" fill="#12E1EE"/>
<path d="M1481.62 43.1875L1481.78 46.9375C1484.26 44.0208 1487.6 42.5625 1491.81 42.5625C1496.54 42.5625 1499.76 44.375 1501.47 48C1502.59 46.375 1504.05 45.0625 1505.84 44.0625C1507.66 43.0625 1509.79 42.5625 1512.25 42.5625C1519.67 42.5625 1523.44 46.4896 1523.56 54.3438V77H1517.78V54.6875C1517.78 52.2708 1517.23 50.4688 1516.12 49.2812C1515.02 48.0729 1513.17 47.4688 1510.56 47.4688C1508.42 47.4688 1506.64 48.1146 1505.22 49.4062C1503.8 50.6771 1502.98 52.3958 1502.75 54.5625V77H1496.94V54.8438C1496.94 49.9271 1494.53 47.4688 1489.72 47.4688C1485.93 47.4688 1483.33 49.0833 1481.94 52.3125V77H1476.16V43.1875H1481.62Z" fill="#12E1EE"/>
<path d="M1553.19 77C1552.85 76.3333 1552.58 75.1458 1552.38 73.4375C1549.69 76.2292 1546.48 77.625 1542.75 77.625C1539.42 77.625 1536.68 76.6875 1534.53 74.8125C1532.41 72.9167 1531.34 70.5208 1531.34 67.625C1531.34 64.1042 1532.68 61.375 1535.34 59.4375C1538.03 57.4792 1541.8 56.5 1546.66 56.5H1552.28V53.8438C1552.28 51.8229 1551.68 50.2188 1550.47 49.0312C1549.26 47.8229 1547.48 47.2188 1545.12 47.2188C1543.06 47.2188 1541.33 47.7396 1539.94 48.7812C1538.54 49.8229 1537.84 51.0833 1537.84 52.5625H1532.03C1532.03 50.875 1532.62 49.25 1533.81 47.6875C1535.02 46.1042 1536.65 44.8542 1538.69 43.9375C1540.75 43.0208 1543.01 42.5625 1545.47 42.5625C1549.36 42.5625 1552.42 43.5417 1554.62 45.5C1556.83 47.4375 1557.98 50.1146 1558.06 53.5312V69.0938C1558.06 72.1979 1558.46 74.6667 1559.25 76.5V77H1553.19ZM1543.59 72.5938C1545.41 72.5938 1547.12 72.125 1548.75 71.1875C1550.38 70.25 1551.55 69.0312 1552.28 67.5312V60.5938H1547.75C1540.67 60.5938 1537.12 62.6667 1537.12 66.8125C1537.12 68.625 1537.73 70.0417 1538.94 71.0625C1540.15 72.0833 1541.7 72.5938 1543.59 72.5938Z" fill="#12E1EE"/>
<path d="M1572.59 43.1875L1572.78 47.4375C1575.36 44.1875 1578.74 42.5625 1582.91 42.5625C1590.05 42.5625 1593.66 46.5938 1593.72 54.6562V77H1587.94V54.625C1587.92 52.1875 1587.35 50.3854 1586.25 49.2188C1585.17 48.0521 1583.47 47.4688 1581.16 47.4688C1579.28 47.4688 1577.64 47.9688 1576.22 48.9688C1574.8 49.9688 1573.7 51.2812 1572.91 52.9062V77H1567.12V43.1875H1572.59Z" fill="#12E1EE"/>
<path d="M1600.91 59.7812C1600.91 56.4688 1601.55 53.4896 1602.84 50.8438C1604.16 48.1979 1605.97 46.1562 1608.28 44.7188C1610.61 43.2812 1613.27 42.5625 1616.25 42.5625C1620.85 42.5625 1624.57 44.1562 1627.41 47.3438C1630.26 50.5312 1631.69 54.7708 1631.69 60.0625V60.4688C1631.69 63.7604 1631.05 66.7188 1629.78 69.3438C1628.53 71.9479 1626.73 73.9792 1624.38 75.4375C1622.04 76.8958 1619.35 77.625 1616.31 77.625C1611.73 77.625 1608.01 76.0312 1605.16 72.8438C1602.32 69.6562 1600.91 65.4375 1600.91 60.1875V59.7812ZM1606.72 60.4688C1606.72 64.2188 1607.58 67.2292 1609.31 69.5C1611.06 71.7708 1613.4 72.9062 1616.31 72.9062C1619.25 72.9062 1621.58 71.7604 1623.31 69.4688C1625.04 67.1562 1625.91 63.9271 1625.91 59.7812C1625.91 56.0729 1625.02 53.0729 1623.25 50.7812C1621.5 48.4688 1619.17 47.3125 1616.25 47.3125C1613.4 47.3125 1611.09 48.4479 1609.34 50.7188C1607.59 52.9896 1606.72 56.2396 1606.72 60.4688Z" fill="#12E1EE"/>
<path d="M1658.62 68.0312C1658.62 66.4688 1658.03 65.2604 1656.84 64.4062C1655.68 63.5312 1653.62 62.7812 1650.69 62.1562C1647.77 61.5312 1645.45 60.7812 1643.72 59.9062C1642.01 59.0312 1640.74 57.9896 1639.91 56.7812C1639.09 55.5729 1638.69 54.1354 1638.69 52.4688C1638.69 49.6979 1639.85 47.3542 1642.19 45.4375C1644.54 43.5208 1647.54 42.5625 1651.19 42.5625C1655.02 42.5625 1658.12 43.5521 1660.5 45.5312C1662.9 47.5104 1664.09 50.0417 1664.09 53.125H1658.28C1658.28 51.5417 1657.6 50.1771 1656.25 49.0312C1654.92 47.8854 1653.23 47.3125 1651.19 47.3125C1649.08 47.3125 1647.44 47.7708 1646.25 48.6875C1645.06 49.6042 1644.47 50.8021 1644.47 52.2812C1644.47 53.6771 1645.02 54.7292 1646.12 55.4375C1647.23 56.1458 1649.22 56.8229 1652.09 57.4688C1654.99 58.1146 1657.33 58.8854 1659.12 59.7812C1660.92 60.6771 1662.24 61.7604 1663.09 63.0312C1663.97 64.2812 1664.41 65.8125 1664.41 67.625C1664.41 70.6458 1663.2 73.0729 1660.78 74.9062C1658.36 76.7188 1655.23 77.625 1651.38 77.625C1648.67 77.625 1646.27 77.1458 1644.19 76.1875C1642.1 75.2292 1640.47 73.8958 1639.28 72.1875C1638.11 70.4583 1637.53 68.5938 1637.53 66.5938H1643.31C1643.42 68.5312 1644.19 70.0729 1645.62 71.2188C1647.08 72.3438 1649 72.9062 1651.38 72.9062C1653.56 72.9062 1655.31 72.4688 1656.62 71.5938C1657.96 70.6979 1658.62 69.5104 1658.62 68.0312Z" fill="#12E1EE"/>
</g>
<g id="solucion_2">
<g id="Group 102">
<g id="palito_49">
<path id="Line 2 (Stroke)_49" fill-rule="evenodd" clip-rule="evenodd" d="M1170 237C1168.62 237 1167.5 236.02 1167.5 234.81V151.598C1167.5 150.389 1168.62 149.409 1170 149.409C1171.38 149.409 1172.5 150.389 1172.5 151.598V234.81C1172.5 236.02 1171.38 237 1170 237Z" fill="white"/>
<path id="Ellipse 1_49" d="M1170 137C1173.87 137 1177 143.471 1177 151.453C1177 159.435 1173.87 165.905 1170 165.905C1166.13 165.905 1163 159.435 1163 151.453C1163 143.471 1166.13 137 1170 137Z" fill="#D40303"/>
</g>
<path id="1" d="M1174.81 317H1169V278.469L1157.34 282.75V277.5L1173.91 271.281H1174.81V317Z" fill="white"/>
</g>
<g id="Group 103">
<g id="Group 61">
<g id="palito_50">
<path id="Line 2 (Stroke)_50" fill-rule="evenodd" clip-rule="evenodd" d="M1349.06 229.103C1347.87 228.412 1347.39 227.003 1347.99 225.956L1389.6 153.893C1390.2 152.845 1391.66 152.556 1392.86 153.246C1394.05 153.937 1394.53 155.345 1393.93 156.393L1352.32 228.456C1351.72 229.503 1350.26 229.793 1349.06 229.103Z" fill="white"/>
<path id="Ellipse 1_50" d="M1399.06 142.5C1402.41 144.433 1401.89 151.604 1397.9 158.516C1393.91 165.429 1387.96 169.466 1384.61 167.533C1381.26 165.6 1381.78 158.429 1385.77 151.516C1389.76 144.604 1395.71 140.567 1399.06 142.5Z" fill="#D40303"/>
</g>
<g id="palito_51">
<path id="Line 2 (Stroke)_51" fill-rule="evenodd" clip-rule="evenodd" d="M1291.06 147.5C1292.26 146.81 1293.72 147.099 1294.32 148.146L1335.93 220.21C1336.53 221.257 1336.05 222.666 1334.86 223.356C1333.66 224.047 1332.2 223.757 1331.6 222.71L1289.99 150.646C1289.39 149.599 1289.87 148.19 1291.06 147.5Z" fill="white"/>
<path id="Ellipse 1_51" d="M1341.06 234.103C1337.71 236.036 1331.76 231.999 1327.77 225.086C1323.78 218.174 1323.26 211.003 1326.61 209.07C1329.96 207.137 1335.91 211.174 1339.9 218.086C1343.89 224.999 1344.41 232.17 1341.06 234.103Z" fill="#D40303"/>
</g>
</g>
<path id="5" d="M1327.47 294.188L1329.78 271.5H1353.09V276.844H1334.69L1333.31 289.25C1335.54 287.938 1338.07 287.281 1340.91 287.281C1345.05 287.281 1348.34 288.656 1350.78 291.406C1353.22 294.135 1354.44 297.833 1354.44 302.5C1354.44 307.188 1353.17 310.885 1350.62 313.594C1348.1 316.281 1344.57 317.625 1340.03 317.625C1336.01 317.625 1332.73 316.51 1330.19 314.281C1327.65 312.052 1326.2 308.969 1325.84 305.031H1331.31C1331.67 307.635 1332.59 309.604 1334.09 310.938C1335.59 312.25 1337.57 312.906 1340.03 312.906C1342.72 312.906 1344.82 311.99 1346.34 310.156C1347.89 308.323 1348.66 305.792 1348.66 302.562C1348.66 299.521 1347.82 297.083 1346.16 295.25C1344.51 293.396 1342.31 292.469 1339.56 292.469C1337.04 292.469 1335.06 293.021 1333.62 294.125L1332.09 295.375L1327.47 294.188Z" fill="white"/>
</g>
<g id="Group 104">
<g id="Group 60">
<g id="palito_52">
<path id="Line 2 (Stroke)_52" fill-rule="evenodd" clip-rule="evenodd" d="M1510.95 228.66C1509.97 227.684 1509.88 226.199 1510.73 225.344L1569.57 166.505C1570.43 165.649 1571.91 165.748 1572.89 166.724C1573.86 167.7 1573.96 169.185 1573.11 170.04L1514.27 228.88C1513.41 229.735 1511.93 229.637 1510.95 228.66Z" fill="white"/>
<path id="Ellipse 1_52" d="M1581.66 157.95C1584.39 160.683 1582.03 167.475 1576.39 173.119C1570.75 178.763 1563.96 181.122 1561.22 178.389C1558.49 175.655 1560.85 168.864 1566.49 163.22C1572.14 157.575 1578.93 155.216 1581.66 157.95Z" fill="#D40303"/>
</g>
<g id="palito_53">
<path id="Line 2 (Stroke)_53" fill-rule="evenodd" clip-rule="evenodd" d="M1510.95 163.95C1511.93 162.974 1513.41 162.875 1514.27 163.73L1573.11 222.57C1573.96 223.425 1573.86 224.91 1572.89 225.886C1571.91 226.863 1570.43 226.961 1569.57 226.106L1510.73 167.266C1509.88 166.411 1509.97 164.926 1510.95 163.95Z" fill="white"/>
<path id="Ellipse 1_53" d="M1581.66 234.661C1578.93 237.394 1572.14 235.035 1566.49 229.391C1560.85 223.747 1558.49 216.955 1561.22 214.221C1563.96 211.488 1570.75 213.847 1576.39 219.491C1582.03 225.135 1584.39 231.927 1581.66 234.661Z" fill="#D40303"/>
</g>
</g>
<g id="10">
<path d="M1520.84 317H1515.03V278.469L1503.38 282.75V277.5L1519.94 271.281H1520.84V317Z" fill="white"/>
<path d="M1566.31 297.594C1566.31 304.365 1565.16 309.396 1562.84 312.688C1560.53 315.979 1556.92 317.625 1552 317.625C1547.15 317.625 1543.55 316.021 1541.22 312.812C1538.89 309.583 1537.68 304.771 1537.59 298.375V290.656C1537.59 283.969 1538.75 279 1541.06 275.75C1543.38 272.5 1547 270.875 1551.94 270.875C1556.83 270.875 1560.44 272.448 1562.75 275.594C1565.06 278.719 1566.25 283.552 1566.31 290.094V297.594ZM1560.53 289.688C1560.53 284.792 1559.84 281.229 1558.47 279C1557.09 276.75 1554.92 275.625 1551.94 275.625C1548.98 275.625 1546.82 276.74 1545.47 278.969C1544.11 281.198 1543.42 284.625 1543.38 289.25V298.5C1543.38 303.417 1544.08 307.052 1545.5 309.406C1546.94 311.74 1549.1 312.906 1552 312.906C1554.85 312.906 1556.97 311.802 1558.34 309.594C1559.74 307.385 1560.47 303.906 1560.53 299.156V289.688Z" fill="white"/>
</g>
</g>
<g id="Group 105">
<g id="Group 56">
<g id="palito_54">
<path id="Line 2 (Stroke)_54" fill-rule="evenodd" clip-rule="evenodd" d="M1716 244C1714.62 244 1713.5 243.02 1713.5 241.81V158.598C1713.5 157.389 1714.62 156.409 1716 156.409C1717.38 156.409 1718.5 157.389 1718.5 158.598V241.81C1718.5 243.02 1717.38 244 1716 244Z" fill="white"/>
<path id="Ellipse 1_54" d="M1716 144C1719.87 144 1723 150.471 1723 158.453C1723 166.435 1719.87 172.905 1716 172.905C1712.13 172.905 1709 166.435 1709 158.453C1709 150.471 1712.13 144 1716 144Z" fill="#D40303"/>
</g>
<g id="palito_55">
<path id="Line 2 (Stroke)_55" fill-rule="evenodd" clip-rule="evenodd" d="M1714 245C1714 243.619 1714.98 242.5 1716.19 242.5H1799.4C1800.61 242.5 1801.59 243.619 1801.59 245C1801.59 246.381 1800.61 247.5 1799.4 247.5H1716.19C1714.98 247.5 1714 246.381 1714 245Z" fill="white"/>
<path id="Ellipse 1_55" d="M1814 245C1814 248.866 1807.53 252 1799.55 252C1791.57 252 1785.09 248.866 1785.09 245C1785.09 241.134 1791.57 238 1799.55 238C1807.53 238 1814 241.134 1814 245Z" fill="#D40303"/>
</g>
</g>
<g id="50">
<path d="M1719.5 296.188L1721.81 273.5H1745.12V278.844H1726.72L1725.34 291.25C1727.57 289.938 1730.1 289.281 1732.94 289.281C1737.08 289.281 1740.38 290.656 1742.81 293.406C1745.25 296.135 1746.47 299.833 1746.47 304.5C1746.47 309.188 1745.2 312.885 1742.66 315.594C1740.14 318.281 1736.6 319.625 1732.06 319.625C1728.04 319.625 1724.76 318.51 1722.22 316.281C1719.68 314.052 1718.23 310.969 1717.88 307.031H1723.34C1723.7 309.635 1724.62 311.604 1726.12 312.938C1727.62 314.25 1729.6 314.906 1732.06 314.906C1734.75 314.906 1736.85 313.99 1738.38 312.156C1739.92 310.323 1740.69 307.792 1740.69 304.562C1740.69 301.521 1739.85 299.083 1738.19 297.25C1736.54 295.396 1734.34 294.469 1731.59 294.469C1729.07 294.469 1727.09 295.021 1725.66 296.125L1724.12 297.375L1719.5 296.188Z" fill="white"/>
<path d="M1781.31 299.594C1781.31 306.365 1780.16 311.396 1777.84 314.688C1775.53 317.979 1771.92 319.625 1767 319.625C1762.15 319.625 1758.55 318.021 1756.22 314.812C1753.89 311.583 1752.68 306.771 1752.59 300.375V292.656C1752.59 285.969 1753.75 281 1756.06 277.75C1758.38 274.5 1762 272.875 1766.94 272.875C1771.83 272.875 1775.44 274.448 1777.75 277.594C1780.06 280.719 1781.25 285.552 1781.31 292.094V299.594ZM1775.53 291.688C1775.53 286.792 1774.84 283.229 1773.47 281C1772.09 278.75 1769.92 277.625 1766.94 277.625C1763.98 277.625 1761.82 278.74 1760.47 280.969C1759.11 283.198 1758.42 286.625 1758.38 291.25V300.5C1758.38 305.417 1759.08 309.052 1760.5 311.406C1761.94 313.74 1764.1 314.906 1767 314.906C1769.85 314.906 1771.97 313.802 1773.34 311.594C1774.74 309.385 1775.47 305.906 1775.53 301.156V291.688Z" fill="white"/>
</g>
</g>
<g id="Group 106">
<g id="Group 57">
<g id="palito_56">
<path id="Line 2 (Stroke)_56" fill-rule="evenodd" clip-rule="evenodd" d="M1922 246C1920.62 246 1919.5 245.02 1919.5 243.81V160.598C1919.5 159.389 1920.62 158.409 1922 158.409C1923.38 158.409 1924.5 159.389 1924.5 160.598V243.81C1924.5 245.02 1923.38 246 1922 246Z" fill="white"/>
<path id="Ellipse 1_56" d="M1922 146C1925.87 146 1929 152.471 1929 160.453C1929 168.435 1925.87 174.905 1922 174.905C1918.13 174.905 1915 168.435 1915 160.453C1915 152.471 1918.13 146 1922 146Z" fill="#D40303"/>
</g>
<g id="palito_57">
<path id="Line 2 (Stroke)_57" fill-rule="evenodd" clip-rule="evenodd" d="M1920 247C1920 245.619 1920.98 244.5 1922.19 244.5H2005.4C2006.61 244.5 2007.59 245.619 2007.59 247C2007.59 248.381 2006.61 249.5 2005.4 249.5H1922.19C1920.98 249.5 1920 248.381 1920 247Z" fill="white"/>
<path id="Ellipse 1_57" d="M2020 247C2020 250.866 2013.53 254 2005.55 254C1997.57 254 1991.09 250.866 1991.09 247C1991.09 243.134 1997.57 240 2005.55 240C2013.53 240 2020 243.134 2020 247Z" fill="#D40303"/>
</g>
<g id="palito_58">
<path id="Line 2 (Stroke)_58" fill-rule="evenodd" clip-rule="evenodd" d="M1920 143C1920 141.619 1920.98 140.5 1922.19 140.5H2005.4C2006.61 140.5 2007.59 141.619 2007.59 143C2007.59 144.381 2006.61 145.5 2005.4 145.5H1922.19C1920.98 145.5 1920 144.381 1920 143Z" fill="white"/>
<path id="Ellipse 1_58" d="M2020 143C2020 146.866 2013.53 150 2005.55 150C1997.57 150 1991.09 146.866 1991.09 143C1991.09 139.134 1997.57 136 2005.55 136C2013.53 136 2020 139.134 2020 143Z" fill="#D40303"/>
</g>
</g>
<g id="100">
<path d="M1934.88 319H1929.06V280.469L1917.41 284.75V279.5L1933.97 273.281H1934.88V319Z" fill="white"/>
<path d="M1980.34 299.594C1980.34 306.365 1979.19 311.396 1976.88 314.688C1974.56 317.979 1970.95 319.625 1966.03 319.625C1961.18 319.625 1957.58 318.021 1955.25 314.812C1952.92 311.583 1951.71 306.771 1951.62 300.375V292.656C1951.62 285.969 1952.78 281 1955.09 277.75C1957.41 274.5 1961.03 272.875 1965.97 272.875C1970.86 272.875 1974.47 274.448 1976.78 277.594C1979.09 280.719 1980.28 285.552 1980.34 292.094V299.594ZM1974.56 291.688C1974.56 286.792 1973.88 283.229 1972.5 281C1971.12 278.75 1968.95 277.625 1965.97 277.625C1963.01 277.625 1960.85 278.74 1959.5 280.969C1958.15 283.198 1957.45 286.625 1957.41 291.25V300.5C1957.41 305.417 1958.11 309.052 1959.53 311.406C1960.97 313.74 1963.14 314.906 1966.03 314.906C1968.89 314.906 1971 313.802 1972.38 311.594C1973.77 309.385 1974.5 305.906 1974.56 301.156V291.688Z" fill="white"/>
<path d="M2016.28 299.594C2016.28 306.365 2015.12 311.396 2012.81 314.688C2010.5 317.979 2006.89 319.625 2001.97 319.625C1997.11 319.625 1993.52 318.021 1991.19 314.812C1988.85 311.583 1987.65 306.771 1987.56 300.375V292.656C1987.56 285.969 1988.72 281 1991.03 277.75C1993.34 274.5 1996.97 272.875 2001.91 272.875C2006.8 272.875 2010.41 274.448 2012.72 277.594C2015.03 280.719 2016.22 285.552 2016.28 292.094V299.594ZM2010.5 291.688C2010.5 286.792 2009.81 283.229 2008.44 281C2007.06 278.75 2004.89 277.625 2001.91 277.625C1998.95 277.625 1996.79 278.74 1995.44 280.969C1994.08 283.198 1993.39 286.625 1993.34 291.25V300.5C1993.34 305.417 1994.05 309.052 1995.47 311.406C1996.91 313.74 1999.07 314.906 2001.97 314.906C2004.82 314.906 2006.94 313.802 2008.31 311.594C2009.71 309.385 2010.44 305.906 2010.5 301.156V291.688Z" fill="white"/>
</g>
</g>
<g id="Group 107">
<g id="Group 58">
<g id="palito_59">
<path id="Line 2 (Stroke)_59" fill-rule="evenodd" clip-rule="evenodd" d="M1170 487C1168.62 487 1167.5 486.02 1167.5 484.81V401.598C1167.5 400.389 1168.62 399.409 1170 399.409C1171.38 399.409 1172.5 400.389 1172.5 401.598V484.81C1172.5 486.02 1171.38 487 1170 487Z" fill="white"/>
<path id="Ellipse 1_59" d="M1170 387C1173.87 387 1177 393.471 1177 401.453C1177 409.435 1173.87 415.905 1170 415.905C1166.13 415.905 1163 409.435 1163 401.453C1163 393.471 1166.13 387 1170 387Z" fill="#D40303"/>
</g>
<g id="palito_60">
<path id="Line 2 (Stroke)_60" fill-rule="evenodd" clip-rule="evenodd" d="M1173.5 491.062C1172.81 489.866 1173.1 488.407 1174.15 487.802L1246.21 446.196C1247.26 445.592 1248.67 446.071 1249.36 447.267C1250.05 448.462 1249.76 449.922 1248.71 450.526L1176.65 492.132C1175.6 492.737 1174.19 492.258 1173.5 491.062Z" fill="white"/>
<path id="Ellipse 1_60" d="M1260.1 441.062C1262.04 444.41 1258 450.36 1251.09 454.351C1244.17 458.342 1237 458.863 1235.07 455.515C1233.14 452.167 1237.17 446.217 1244.09 442.226C1251 438.235 1258.17 437.714 1260.1 441.062Z" fill="#D40303"/>
</g>
<g id="palito_61">
<path id="Line 2 (Stroke)_61" fill-rule="evenodd" clip-rule="evenodd" d="M1176.5 379.062C1177.19 377.866 1178.6 377.387 1179.65 377.992L1251.71 419.598C1252.76 420.203 1253.05 421.662 1252.36 422.858C1251.67 424.054 1250.26 424.533 1249.21 423.928L1177.15 382.322C1176.1 381.717 1175.81 380.258 1176.5 379.062Z" fill="white"/>
<path id="Ellipse 1_61" d="M1263.1 429.062C1261.17 432.41 1254 431.889 1247.09 427.898C1240.17 423.907 1236.14 417.958 1238.07 414.61C1240 411.262 1247.17 411.783 1254.09 415.774C1261 419.765 1265.04 425.714 1263.1 429.062Z" fill="#D40303"/>
</g>
</g>
<g id="500">
<path d="M1158.53 552.188L1160.84 529.5H1184.16V534.844H1165.75L1164.38 547.25C1166.6 545.938 1169.14 545.281 1171.97 545.281C1176.11 545.281 1179.41 546.656 1181.84 549.406C1184.28 552.135 1185.5 555.833 1185.5 560.5C1185.5 565.188 1184.23 568.885 1181.69 571.594C1179.17 574.281 1175.64 575.625 1171.09 575.625C1167.07 575.625 1163.79 574.51 1161.25 572.281C1158.71 570.052 1157.26 566.969 1156.91 563.031H1162.38C1162.73 565.635 1163.66 567.604 1165.16 568.938C1166.66 570.25 1168.64 570.906 1171.09 570.906C1173.78 570.906 1175.89 569.99 1177.41 568.156C1178.95 566.323 1179.72 563.792 1179.72 560.562C1179.72 557.521 1178.89 555.083 1177.22 553.25C1175.57 551.396 1173.38 550.469 1170.62 550.469C1168.1 550.469 1166.12 551.021 1164.69 552.125L1163.16 553.375L1158.53 552.188Z" fill="white"/>
<path d="M1220.34 555.594C1220.34 562.365 1219.19 567.396 1216.88 570.688C1214.56 573.979 1210.95 575.625 1206.03 575.625C1201.18 575.625 1197.58 574.021 1195.25 570.812C1192.92 567.583 1191.71 562.771 1191.62 556.375V548.656C1191.62 541.969 1192.78 537 1195.09 533.75C1197.41 530.5 1201.03 528.875 1205.97 528.875C1210.86 528.875 1214.47 530.448 1216.78 533.594C1219.09 536.719 1220.28 541.552 1220.34 548.094V555.594ZM1214.56 547.688C1214.56 542.792 1213.88 539.229 1212.5 537C1211.12 534.75 1208.95 533.625 1205.97 533.625C1203.01 533.625 1200.85 534.74 1199.5 536.969C1198.15 539.198 1197.45 542.625 1197.41 547.25V556.5C1197.41 561.417 1198.11 565.052 1199.53 567.406C1200.97 569.74 1203.14 570.906 1206.03 570.906C1208.89 570.906 1211 569.802 1212.38 567.594C1213.77 565.385 1214.5 561.906 1214.56 557.156V547.688Z" fill="white"/>
<path d="M1256.28 555.594C1256.28 562.365 1255.12 567.396 1252.81 570.688C1250.5 573.979 1246.89 575.625 1241.97 575.625C1237.11 575.625 1233.52 574.021 1231.19 570.812C1228.85 567.583 1227.65 562.771 1227.56 556.375V548.656C1227.56 541.969 1228.72 537 1231.03 533.75C1233.34 530.5 1236.97 528.875 1241.91 528.875C1246.8 528.875 1250.41 530.448 1252.72 533.594C1255.03 536.719 1256.22 541.552 1256.28 548.094V555.594ZM1250.5 547.688C1250.5 542.792 1249.81 539.229 1248.44 537C1247.06 534.75 1244.89 533.625 1241.91 533.625C1238.95 533.625 1236.79 534.74 1235.44 536.969C1234.08 539.198 1233.39 542.625 1233.34 547.25V556.5C1233.34 561.417 1234.05 565.052 1235.47 567.406C1236.91 569.74 1239.07 570.906 1241.97 570.906C1244.82 570.906 1246.94 569.802 1248.31 567.594C1249.71 565.385 1250.44 561.906 1250.5 557.156V547.688Z" fill="white"/>
</g>
</g>
<g id="Group 108">
<g id="Group 59">
<g id="palito_62">
<path id="Line 2 (Stroke)_62" fill-rule="evenodd" clip-rule="evenodd" d="M1402 486.739C1400.62 486.739 1399.5 485.759 1399.5 484.549V401.337C1399.5 400.128 1400.62 399.148 1402 399.148C1403.38 399.148 1404.5 400.128 1404.5 401.337V484.549C1404.5 485.759 1403.38 486.739 1402 486.739Z" fill="white"/>
<path id="Ellipse 1_62" d="M1402 386.739C1405.87 386.739 1409 393.21 1409 401.192C1409 409.174 1405.87 415.644 1402 415.644C1398.13 415.644 1395 409.174 1395 401.192C1395 393.21 1398.13 386.739 1402 386.739Z" fill="#D40303"/>
</g>
<g id="palito_63">
<path id="Line 2 (Stroke)_63" fill-rule="evenodd" clip-rule="evenodd" d="M1536 487C1534.62 487 1533.5 486.02 1533.5 484.81V401.598C1533.5 400.389 1534.62 399.409 1536 399.409C1537.38 399.409 1538.5 400.389 1538.5 401.598V484.81C1538.5 486.02 1537.38 487 1536 487Z" fill="white"/>
<path id="Ellipse 1_63" d="M1536 387C1539.87 387 1543 393.471 1543 401.453C1543 409.435 1539.87 415.905 1536 415.905C1532.13 415.905 1529 409.435 1529 401.453C1529 393.471 1532.13 387 1536 387Z" fill="#D40303"/>
</g>
<g id="palito_64">
<path id="Line 2 (Stroke)_64" fill-rule="evenodd" clip-rule="evenodd" d="M1473.06 463.103C1471.87 462.412 1471.39 461.003 1471.99 459.956L1513.6 387.893C1514.2 386.845 1515.66 386.556 1516.86 387.246C1518.05 387.937 1518.53 389.345 1517.93 390.393L1476.32 462.456C1475.72 463.503 1474.26 463.793 1473.06 463.103Z" fill="white"/>
<path id="Ellipse 1_64" d="M1523.06 376.5C1526.41 378.433 1525.89 385.604 1521.9 392.516C1517.91 399.429 1511.96 403.466 1508.61 401.533C1505.26 399.6 1505.78 392.429 1509.77 385.516C1513.76 378.604 1519.71 374.567 1523.06 376.5Z" fill="#D40303"/>
</g>
<g id="palito_65">
<path id="Line 2 (Stroke)_65" fill-rule="evenodd" clip-rule="evenodd" d="M1411.06 388.239C1412.26 387.549 1413.72 387.838 1414.32 388.885L1455.93 460.949C1456.53 461.996 1456.05 463.405 1454.86 464.095C1453.66 464.786 1452.2 464.496 1451.6 463.449L1409.99 391.385C1409.39 390.338 1409.87 388.929 1411.06 388.239Z" fill="white"/>
<path id="Ellipse 1_65" d="M1461.06 474.842C1457.71 476.775 1451.76 472.738 1447.77 465.825C1443.78 458.913 1443.26 451.742 1446.61 449.809C1449.96 447.876 1455.91 451.913 1459.9 458.825C1463.89 465.738 1464.41 472.909 1461.06 474.842Z" fill="#D40303"/>
</g>
</g>
<g id="1000">
<path d="M1417.91 571H1412.09V532.469L1400.44 536.75V531.5L1417 525.281H1417.91V571Z" fill="white"/>
<path d="M1463.38 551.594C1463.38 558.365 1462.22 563.396 1459.91 566.688C1457.59 569.979 1453.98 571.625 1449.06 571.625C1444.21 571.625 1440.61 570.021 1438.28 566.812C1435.95 563.583 1434.74 558.771 1434.66 552.375V544.656C1434.66 537.969 1435.81 533 1438.12 529.75C1440.44 526.5 1444.06 524.875 1449 524.875C1453.9 524.875 1457.5 526.448 1459.81 529.594C1462.12 532.719 1463.31 537.552 1463.38 544.094V551.594ZM1457.59 543.688C1457.59 538.792 1456.91 535.229 1455.53 533C1454.16 530.75 1451.98 529.625 1449 529.625C1446.04 529.625 1443.89 530.74 1442.53 532.969C1441.18 535.198 1440.48 538.625 1440.44 543.25V552.5C1440.44 557.417 1441.15 561.052 1442.56 563.406C1444 565.74 1446.17 566.906 1449.06 566.906C1451.92 566.906 1454.03 565.802 1455.41 563.594C1456.8 561.385 1457.53 557.906 1457.59 553.156V543.688Z" fill="white"/>
<path d="M1499.31 551.594C1499.31 558.365 1498.16 563.396 1495.84 566.688C1493.53 569.979 1489.92 571.625 1485 571.625C1480.15 571.625 1476.55 570.021 1474.22 566.812C1471.89 563.583 1470.68 558.771 1470.59 552.375V544.656C1470.59 537.969 1471.75 533 1474.06 529.75C1476.38 526.5 1480 524.875 1484.94 524.875C1489.83 524.875 1493.44 526.448 1495.75 529.594C1498.06 532.719 1499.25 537.552 1499.31 544.094V551.594ZM1493.53 543.688C1493.53 538.792 1492.84 535.229 1491.47 533C1490.09 530.75 1487.92 529.625 1484.94 529.625C1481.98 529.625 1479.82 530.74 1478.47 532.969C1477.11 535.198 1476.42 538.625 1476.38 543.25V552.5C1476.38 557.417 1477.08 561.052 1478.5 563.406C1479.94 565.74 1482.1 566.906 1485 566.906C1487.85 566.906 1489.97 565.802 1491.34 563.594C1492.74 561.385 1493.47 557.906 1493.53 553.156V543.688Z" fill="white"/>
<path d="M1535.25 551.594C1535.25 558.365 1534.09 563.396 1531.78 566.688C1529.47 569.979 1525.85 571.625 1520.94 571.625C1516.08 571.625 1512.49 570.021 1510.16 566.812C1507.82 563.583 1506.61 558.771 1506.53 552.375V544.656C1506.53 537.969 1507.69 533 1510 529.75C1512.31 526.5 1515.94 524.875 1520.88 524.875C1525.77 524.875 1529.38 526.448 1531.69 529.594C1534 532.719 1535.19 537.552 1535.25 544.094V551.594ZM1529.47 543.688C1529.47 538.792 1528.78 535.229 1527.41 533C1526.03 530.75 1523.85 529.625 1520.88 529.625C1517.92 529.625 1515.76 530.74 1514.41 532.969C1513.05 535.198 1512.35 538.625 1512.31 543.25V552.5C1512.31 557.417 1513.02 561.052 1514.44 563.406C1515.88 565.74 1518.04 566.906 1520.94 566.906C1523.79 566.906 1525.91 565.802 1527.28 563.594C1528.68 561.385 1529.41 557.906 1529.47 553.156V543.688Z" fill="white"/>
</g>
</g>
</g>
</g>
</g>
</svg>
