<svg viewBox="0 0 916 458" fill="none" xmlns="http://www.w3.org/2000/svg">
<path fill-rule="evenodd" clip-rule="evenodd" d="M243 394C241.619 394 240.5 393.02 240.5 391.81V308.598C240.5 307.389 241.619 306.409 243 306.409C244.381 306.409 245.5 307.389 245.5 308.598V391.81C245.5 393.02 244.381 394 243 394Z" fill="white"/>
<path d="M243 294C246.866 294 250 300.471 250 308.453C250 316.435 246.866 322.905 243 322.905C239.134 322.905 236 316.435 236 308.453C236 300.471 239.134 294 243 294Z" fill="#D40303"/>
<path fill-rule="evenodd" clip-rule="evenodd" d="M243 287C241.619 287 240.5 286.02 240.5 284.81V201.598C240.5 200.389 241.619 199.409 243 199.409C244.381 199.409 245.5 200.389 245.5 201.598V284.81C245.5 286.02 244.381 287 243 287Z" fill="white"/>
<path d="M243 187C246.866 187 250 193.471 250 201.453C250 209.435 246.866 215.905 243 215.905C239.134 215.905 236 209.435 236 201.453C236 193.471 239.134 187 243 187Z" fill="#D40303"/>
<path fill-rule="evenodd" clip-rule="evenodd" d="M243 180C241.619 180 240.5 179.02 240.5 177.81V94.5984C240.5 93.3891 241.619 92.4087 243 92.4087C244.381 92.4087 245.5 93.3891 245.5 94.5984V177.81C245.5 179.02 244.381 180 243 180Z" fill="white"/>
<path d="M243 80C246.866 80 250 86.4707 250 94.4526C250 102.435 246.866 108.905 243 108.905C239.134 108.905 236 102.435 236 94.4526C236 86.4707 239.134 80 243 80Z" fill="#D40303"/>
<path fill-rule="evenodd" clip-rule="evenodd" d="M131 187C131 185.619 131.98 184.5 133.19 184.5H216.402C217.611 184.5 218.591 185.619 218.591 187C218.591 188.381 217.611 189.5 216.402 189.5H133.19C131.98 189.5 131 188.381 131 187Z" fill="white"/>
<path d="M231 187C231 190.866 224.529 194 216.547 194C208.565 194 202.095 190.866 202.095 187C202.095 183.134 208.565 180 216.547 180C224.529 180 231 183.134 231 187Z" fill="#D40303"/>
<path fill-rule="evenodd" clip-rule="evenodd" d="M131 289C131 287.619 131.98 286.5 133.19 286.5H216.402C217.611 286.5 218.591 287.619 218.591 289C218.591 290.381 217.611 291.5 216.402 291.5H133.19C131.98 291.5 131 290.381 131 289Z" fill="white"/>
<path d="M231 289C231 292.866 224.529 296 216.547 296C208.565 296 202.095 292.866 202.095 289C202.095 285.134 208.565 282 216.547 282C224.529 282 231 285.134 231 289Z" fill="#D40303"/>
<path fill-rule="evenodd" clip-rule="evenodd" d="M256 289C256 287.619 256.98 286.5 258.19 286.5H341.402C342.611 286.5 343.591 287.619 343.591 289C343.591 290.381 342.611 291.5 341.402 291.5H258.19C256.98 291.5 256 290.381 256 289Z" fill="white"/>
<path d="M356 289C356 292.866 349.529 296 341.547 296C333.565 296 327.095 292.866 327.095 289C327.095 285.134 333.565 282 341.547 282C349.529 282 356 285.134 356 289Z" fill="#D40303"/>
<path fill-rule="evenodd" clip-rule="evenodd" d="M359 400C357.619 400 356.5 399.02 356.5 397.81V314.598C356.5 313.389 357.619 312.409 359 312.409C360.381 312.409 361.5 313.389 361.5 314.598V397.81C361.5 399.02 360.381 400 359 400Z" fill="white"/>
<path d="M359 300C362.866 300 366 306.471 366 314.453C366 322.435 362.866 328.905 359 328.905C355.134 328.905 352 322.435 352 314.453C352 306.471 355.134 300 359 300Z" fill="#D40303"/>
<path fill-rule="evenodd" clip-rule="evenodd" d="M359 286C357.619 286 356.5 285.02 356.5 283.81V200.598C356.5 199.389 357.619 198.409 359 198.409C360.381 198.409 361.5 199.389 361.5 200.598V283.81C361.5 285.02 360.381 286 359 286Z" fill="white"/>
<path d="M359 186C362.866 186 366 192.471 366 200.453C366 208.435 362.866 214.905 359 214.905C355.134 214.905 352 208.435 352 200.453C352 192.471 355.134 186 359 186Z" fill="#D40303"/>
<path fill-rule="evenodd" clip-rule="evenodd" d="M359 180C357.619 180 356.5 179.02 356.5 177.81V94.5984C356.5 93.3891 357.619 92.4087 359 92.4087C360.381 92.4087 361.5 93.3891 361.5 94.5984V177.81C361.5 179.02 360.381 180 359 180Z" fill="white"/>
<path d="M359 80C362.866 80 366 86.4707 366 94.4526C366 102.435 362.866 108.905 359 108.905C355.134 108.905 352 102.435 352 94.4526C352 86.4707 355.134 80 359 80Z" fill="#D40303"/>
<path fill-rule="evenodd" clip-rule="evenodd" d="M371 187C371 185.619 371.98 184.5 373.19 184.5H456.402C457.611 184.5 458.591 185.619 458.591 187C458.591 188.381 457.611 189.5 456.402 189.5H373.19C371.98 189.5 371 188.381 371 187Z" fill="white"/>
<path d="M471 187C471 190.866 464.529 194 456.547 194C448.565 194 442.095 190.866 442.095 187C442.095 183.134 448.565 180 456.547 180C464.529 180 471 183.134 471 187Z" fill="#D40303"/>
<path fill-rule="evenodd" clip-rule="evenodd" d="M252 187C252 185.619 252.98 184.5 254.19 184.5H337.402C338.611 184.5 339.591 185.619 339.591 187C339.591 188.381 338.611 189.5 337.402 189.5H254.19C252.98 189.5 252 188.381 252 187Z" fill="white"/>
<path d="M352 187C352 190.866 345.529 194 337.547 194C329.565 194 323.095 190.866 323.095 187C323.095 183.134 329.565 180 337.547 180C345.529 180 352 183.134 352 187Z" fill="#D40303"/>
<path fill-rule="evenodd" clip-rule="evenodd" d="M368 289C368 287.619 368.98 286.5 370.19 286.5H453.402C454.611 286.5 455.591 287.619 455.591 289C455.591 290.381 454.611 291.5 453.402 291.5H370.19C368.98 291.5 368 290.381 368 289Z" fill="white"/>
<path d="M468 289C468 292.866 461.529 296 453.547 296C445.565 296 439.095 292.866 439.095 289C439.095 285.134 445.565 282 453.547 282C461.529 282 468 285.134 468 289Z" fill="#D40303"/>
<path fill-rule="evenodd" clip-rule="evenodd" d="M128.188 344.834C146.293 368.322 180.724 382.971 226.855 378.507L227.144 381.493C180.276 386.029 144.707 371.178 125.812 346.666C107.477 322.88 105.077 290.293 122.927 258.314L113.267 260.729C112.463 260.93 111.649 260.442 111.448 259.638C111.247 258.834 111.736 258.02 112.539 257.819L125.636 254.545C126.44 254.344 127.254 254.832 127.455 255.636L130.729 268.733C130.93 269.537 130.442 270.351 129.638 270.552C128.834 270.753 128.02 270.264 127.819 269.461L125.444 259.96C108.214 290.964 110.713 322.164 128.188 344.834Z" fill="#2CF30B"/>
<path fill-rule="evenodd" clip-rule="evenodd" d="M117.212 355.092C164.521 404.871 249.223 421.418 342.229 365.713L343.771 368.287C249.777 424.582 163.479 408.129 115.038 357.158C67.2047 306.828 56.6643 223.22 111.707 144.063L101.924 145.676C101.106 145.811 100.335 145.257 100.2 144.44C100.065 143.622 100.618 142.851 101.436 142.716L114.756 140.52C115.574 140.385 116.345 140.939 116.48 141.756L118.676 155.077C118.81 155.894 118.257 156.666 117.44 156.801C116.622 156.935 115.85 156.382 115.716 155.564L114.115 145.855C59.8557 223.948 70.4823 305.921 117.212 355.092Z" fill="#13EBF9"/>
<path fill-rule="evenodd" clip-rule="evenodd" d="M307.432 81.3885C306.666 81.0749 306.298 80.1992 306.612 79.4324L311.721 66.9365C312.034 66.1697 312.91 65.8022 313.677 66.1157C314.444 66.4293 314.811 67.305 314.498 68.0719L310.741 77.26C381.471 49.1434 443.03 74.4672 471.262 118.44C485.589 140.754 491.307 167.848 485.245 195.076C479.183 222.311 461.366 249.55 428.858 272.23L427.142 269.77C459.134 247.45 476.442 220.814 482.317 194.424C488.193 168.027 482.661 141.746 468.738 120.06C441.355 77.4114 381.413 52.4483 311.966 80.0012L321.064 83.7207C321.83 84.0343 322.198 84.9101 321.884 85.6769C321.571 86.4437 320.695 86.8111 319.928 86.4976L307.432 81.3885Z" fill="#E79720"/>
<path fill-rule="evenodd" clip-rule="evenodd" d="M175.105 81.4964C174.279 81.5544 173.562 80.9315 173.504 80.1051L172.559 66.6382C172.501 65.8118 173.123 65.0949 173.95 65.0369C174.776 64.9789 175.493 65.6018 175.551 66.4282L176.252 76.4146C189.947 62.2304 211.155 52.4032 235.348 47.5914C261.02 42.4854 290.216 42.9909 317.747 50.047C345.28 57.1034 371.22 70.7309 390.287 91.9346C409.374 113.16 421.5 141.897 421.5 179L418.5 179C418.5 142.603 406.625 114.59 388.056 93.9406C369.468 73.2692 344.095 59.8967 317.003 52.9531C289.909 46.0092 261.168 45.5147 235.933 50.5337C212.251 55.244 191.801 64.7788 178.662 78.2394L188.362 77.5587C189.188 77.5007 189.905 78.1236 189.963 78.95C190.021 79.7764 189.398 80.4933 188.572 80.5513L175.105 81.4964Z" fill="#F3C72C"/>
<path fill-rule="evenodd" clip-rule="evenodd" d="M549 65.997L549 395.003H544L544 65.997H549Z" fill="#CD08D1"/>
<path fill-rule="evenodd" clip-rule="evenodd" d="M669 339C667.619 339 666.5 338.02 666.5 336.81V253.598C666.5 252.389 667.619 251.409 669 251.409C670.381 251.409 671.5 252.389 671.5 253.598V336.81C671.5 338.02 670.381 339 669 339Z" fill="white"/>
<path d="M669 239C672.866 239 676 245.471 676 253.453C676 261.435 672.866 267.905 669 267.905C665.134 267.905 662 261.435 662 253.453C662 245.471 665.134 239 669 239Z" fill="#D40303"/>
<path fill-rule="evenodd" clip-rule="evenodd" d="M793 340C791.619 340 790.5 339.02 790.5 337.81V254.598C790.5 253.389 791.619 252.409 793 252.409C794.381 252.409 795.5 253.389 795.5 254.598V337.81C795.5 339.02 794.381 340 793 340Z" fill="white"/>
<path d="M793 240C796.866 240 800 246.471 800 254.453C800 262.435 796.866 268.905 793 268.905C789.134 268.905 786 262.435 786 254.453C786 246.471 789.134 240 793 240Z" fill="#D40303"/>
<path fill-rule="evenodd" clip-rule="evenodd" d="M793 233C791.619 233 790.5 232.02 790.5 230.81V147.598C790.5 146.389 791.619 145.409 793 145.409C794.381 145.409 795.5 146.389 795.5 147.598V230.81C795.5 232.02 794.381 233 793 233Z" fill="white"/>
<path d="M793 133C796.866 133 800 139.471 800 147.453C800 155.435 796.866 161.905 793 161.905C789.134 161.905 786 155.435 786 147.453C786 139.471 789.134 133 793 133Z" fill="#D40303"/>
<path fill-rule="evenodd" clip-rule="evenodd" d="M681 240C681 238.619 681.98 237.5 683.19 237.5H766.402C767.611 237.5 768.591 238.619 768.591 240C768.591 241.381 767.611 242.5 766.402 242.5H683.19C681.98 242.5 681 241.381 681 240Z" fill="white"/>
<path d="M781 240C781 243.866 774.529 247 766.547 247C758.565 247 752.095 243.866 752.095 240C752.095 236.134 758.565 233 766.547 233C774.529 233 781 236.134 781 240Z" fill="#D40303"/>
<path fill-rule="evenodd" clip-rule="evenodd" d="M681 342C681 340.619 681.98 339.5 683.19 339.5H766.402C767.611 339.5 768.591 340.619 768.591 342C768.591 343.381 767.611 344.5 766.402 344.5H683.19C681.98 344.5 681 343.381 681 342Z" fill="white"/>
<path d="M781 342C781 345.866 774.529 349 766.547 349C758.565 349 752.095 345.866 752.095 342C752.095 338.134 758.565 335 766.547 335C774.529 335 781 338.134 781 342Z" fill="#D40303"/>
<path fill-rule="evenodd" clip-rule="evenodd" d="M806 342C806 340.619 806.98 339.5 808.19 339.5H891.402C892.611 339.5 893.591 340.619 893.591 342C893.591 343.381 892.611 344.5 891.402 344.5H808.19C806.98 344.5 806 343.381 806 342Z" fill="white"/>
<path d="M906 342C906 345.866 899.529 349 891.547 349C883.565 349 877.095 345.866 877.095 342C877.095 338.134 883.565 335 891.547 335C899.529 335 906 338.134 906 342Z" fill="#D40303"/>
<path fill-rule="evenodd" clip-rule="evenodd" d="M669 229C667.619 229 666.5 228.02 666.5 226.81V143.598C666.5 142.389 667.619 141.409 669 141.409C670.381 141.409 671.5 142.389 671.5 143.598V226.81C671.5 228.02 670.381 229 669 229Z" fill="white"/>
<path d="M669 129C672.866 129 676 135.471 676 143.453C676 151.435 672.866 157.905 669 157.905C665.134 157.905 662 151.435 662 143.453C662 135.471 665.134 129 669 129Z" fill="#D40303"/>
<path fill-rule="evenodd" clip-rule="evenodd" d="M909 339C907.619 339 906.5 338.02 906.5 336.81V253.598C906.5 252.389 907.619 251.409 909 251.409C910.381 251.409 911.5 252.389 911.5 253.598V336.81C911.5 338.02 910.381 339 909 339Z" fill="white"/>
<path d="M909 239C912.866 239 916 245.471 916 253.453C916 261.435 912.866 267.905 909 267.905C905.134 267.905 902 261.435 902 253.453C902 245.471 905.134 239 909 239Z" fill="#D40303"/>
<path fill-rule="evenodd" clip-rule="evenodd" d="M909 233C907.619 233 906.5 232.02 906.5 230.81V147.598C906.5 146.389 907.619 145.409 909 145.409C910.381 145.409 911.5 146.389 911.5 147.598V230.81C911.5 232.02 910.381 233 909 233Z" fill="white"/>
<path d="M909 133C912.866 133 916 139.471 916 147.453C916 155.435 912.866 161.905 909 161.905C905.134 161.905 902 155.435 902 147.453C902 139.471 905.134 133 909 133Z" fill="#D40303"/>
<path fill-rule="evenodd" clip-rule="evenodd" d="M681 126C681 124.619 681.98 123.5 683.19 123.5H766.402C767.611 123.5 768.591 124.619 768.591 126C768.591 127.381 767.611 128.5 766.402 128.5H683.19C681.98 128.5 681 127.381 681 126Z" fill="white"/>
<path d="M781 126C781 129.866 774.529 133 766.547 133C758.565 133 752.095 129.866 752.095 126C752.095 122.134 758.565 119 766.547 119C774.529 119 781 122.134 781 126Z" fill="#D40303"/>
<path fill-rule="evenodd" clip-rule="evenodd" d="M802 240C802 238.619 802.98 237.5 804.19 237.5H887.402C888.611 237.5 889.591 238.619 889.591 240C889.591 241.381 888.611 242.5 887.402 242.5H804.19C802.98 242.5 802 241.381 802 240Z" fill="white"/>
<path d="M902 240C902 243.866 895.529 247 887.547 247C879.565 247 873.095 243.866 873.095 240C873.095 236.134 879.565 233 887.547 233C895.529 233 902 236.134 902 240Z" fill="#D40303"/>
<path fill-rule="evenodd" clip-rule="evenodd" d="M806 126C806 124.619 806.98 123.5 808.19 123.5H891.402C892.611 123.5 893.591 124.619 893.591 126C893.591 127.381 892.611 128.5 891.402 128.5H808.19C806.98 128.5 806 127.381 806 126Z" fill="white"/>
<path d="M906 126C906 129.866 899.529 133 891.547 133C883.565 133 877.095 129.866 877.095 126C877.095 122.134 883.565 119 891.547 119C899.529 119 906 122.134 906 126Z" fill="#D40303"/>
</svg>
