<svg viewBox="0 0 846 345" fill="none" xmlns="http://www.w3.org/2000/svg">
<path fill-rule="evenodd" clip-rule="evenodd" d="M130 325C128.619 325 127.5 324.02 127.5 322.81V239.598C127.5 238.389 128.619 237.409 130 237.409C131.381 237.409 132.5 238.389 132.5 239.598V322.81C132.5 324.02 131.381 325 130 325Z" fill="white"/>
<path d="M130 225C133.866 225 137 231.471 137 239.453C137 247.435 133.866 253.905 130 253.905C126.134 253.905 123 247.435 123 239.453C123 231.471 126.134 225 130 225Z" fill="#D40303"/>
<path fill-rule="evenodd" clip-rule="evenodd" d="M11 327C9.61929 327 8.5 326.02 8.5 324.81L8.5 241.598C8.5 240.389 9.61929 239.409 11 239.409C12.3807 239.409 13.5 240.389 13.5 241.598L13.5 324.81C13.5 326.02 12.3807 327 11 327Z" fill="white"/>
<path d="M11 227C14.866 227 18 233.471 18 241.453C18 249.435 14.866 255.905 11 255.905C7.13401 255.905 4 249.435 4 241.453C4 233.471 7.13401 227 11 227Z" fill="#D40303"/>
<path fill-rule="evenodd" clip-rule="evenodd" d="M7 211C5.61929 211 4.5 210.02 4.5 208.81L4.5 125.598C4.5 124.389 5.61929 123.409 7 123.409C8.38071 123.409 9.5 124.389 9.5 125.598L9.5 208.81C9.5 210.02 8.38071 211 7 211Z" fill="white"/>
<path d="M7 111C10.866 111 14 117.471 14 125.453C14 133.435 10.866 139.905 7 139.905C3.13401 139.905 0 133.435 0 125.453C0 117.471 3.13401 111 7 111Z" fill="#D40303"/>
<path fill-rule="evenodd" clip-rule="evenodd" d="M7 111C5.61929 111 4.5 110.02 4.5 108.81L4.5 25.5984C4.5 24.389 5.61929 23.4086 7 23.4086C8.38071 23.4086 9.5 24.389 9.5 25.5984L9.5 108.81C9.5 110.02 8.38071 111 7 111Z" fill="white"/>
<path d="M7 11C10.866 11 14 17.4706 14 25.4526C14 33.4345 10.866 39.9052 7 39.9052C3.13401 39.9052 0 33.4345 0 25.4526C0 17.4706 3.13401 11 7 11Z" fill="#D40303"/>
<path fill-rule="evenodd" clip-rule="evenodd" d="M130 218C128.619 218 127.5 217.02 127.5 215.81V132.598C127.5 131.389 128.619 130.409 130 130.409C131.381 130.409 132.5 131.389 132.5 132.598V215.81C132.5 217.02 131.381 218 130 218Z" fill="white"/>
<path d="M130 118C133.866 118 137 124.471 137 132.453C137 140.435 133.866 146.905 130 146.905C126.134 146.905 123 140.435 123 132.453C123 124.471 126.134 118 130 118Z" fill="#D40303"/>
<path fill-rule="evenodd" clip-rule="evenodd" d="M130 111C128.619 111 127.5 110.02 127.5 108.81V25.5984C127.5 24.389 128.619 23.4086 130 23.4086C131.381 23.4086 132.5 24.389 132.5 25.5984V108.81C132.5 110.02 131.381 111 130 111Z" fill="white"/>
<path d="M130 11C133.866 11 137 17.4706 137 25.4526C137 33.4345 133.866 39.9052 130 39.9052C126.134 39.9052 123 33.4345 123 25.4526C123 17.4706 126.134 11 130 11Z" fill="#D40303"/>
<path fill-rule="evenodd" clip-rule="evenodd" d="M18 118C18 116.619 18.9804 115.5 20.1898 115.5H103.402C104.611 115.5 105.591 116.619 105.591 118C105.591 119.381 104.611 120.5 103.402 120.5H20.1898C18.9804 120.5 18 119.381 18 118Z" fill="white"/>
<path d="M118 118C118 121.866 111.529 125 103.547 125C95.5655 125 89.0948 121.866 89.0948 118C89.0948 114.134 95.5655 111 103.547 111C111.529 111 118 114.134 118 118Z" fill="#D40303"/>
<path fill-rule="evenodd" clip-rule="evenodd" d="M18 14C18 12.6193 18.9804 11.5 20.1898 11.5L103.402 11.5C104.611 11.5 105.591 12.6193 105.591 14C105.591 15.3807 104.611 16.5 103.402 16.5L20.1898 16.5C18.9804 16.5 18 15.3807 18 14Z" fill="white"/>
<path d="M118 14C118 17.866 111.529 21 103.547 21C95.5655 21 89.0948 17.866 89.0948 14C89.0948 10.134 95.5655 6.99998 103.547 6.99998C111.529 6.99998 118 10.134 118 14Z" fill="#D40303"/>
<path fill-rule="evenodd" clip-rule="evenodd" d="M258 8.99998C258 7.61927 258.98 6.49998 260.19 6.49998L343.402 6.49998C344.611 6.49998 345.591 7.61927 345.591 8.99998C345.591 10.3807 344.611 11.5 343.402 11.5L260.19 11.5C258.98 11.5 258 10.3807 258 8.99998Z" fill="white"/>
<path d="M358 8.99998C358 12.866 351.529 16 343.548 16C335.566 16 329.095 12.866 329.095 8.99998C329.095 5.13399 335.566 1.99998 343.548 1.99998C351.529 1.99998 358 5.13399 358 8.99998Z" fill="#D40303"/>
<path fill-rule="evenodd" clip-rule="evenodd" d="M21 331C21 329.619 21.9804 328.5 23.1898 328.5H106.402C107.611 328.5 108.591 329.619 108.591 331C108.591 332.381 107.611 333.5 106.402 333.5H23.1898C21.9804 333.5 21 332.381 21 331Z" fill="white"/>
<path d="M121 331C121 334.866 114.529 338 106.547 338C98.5655 338 92.0948 334.866 92.0948 331C92.0948 327.134 98.5655 324 106.547 324C114.529 324 121 327.134 121 331Z" fill="#D40303"/>
<path fill-rule="evenodd" clip-rule="evenodd" d="M18 220C18 218.619 18.9804 217.5 20.1898 217.5H103.402C104.611 217.5 105.591 218.619 105.591 220C105.591 221.381 104.611 222.5 103.402 222.5H20.1898C18.9804 222.5 18 221.381 18 220Z" fill="white"/>
<path d="M118 220C118 223.866 111.529 227 103.547 227C95.5655 227 89.0948 223.866 89.0948 220C89.0948 216.134 95.5655 213 103.547 213C111.529 213 118 216.134 118 220Z" fill="#D40303"/>
<path fill-rule="evenodd" clip-rule="evenodd" d="M143 220C143 218.619 143.98 217.5 145.19 217.5H228.402C229.611 217.5 230.591 218.619 230.591 220C230.591 221.381 229.611 222.5 228.402 222.5H145.19C143.98 222.5 143 221.381 143 220Z" fill="white"/>
<path d="M243 220C243 223.866 236.529 227 228.547 227C220.565 227 214.095 223.866 214.095 220C214.095 216.134 220.565 213 228.547 213C236.529 213 243 216.134 243 220Z" fill="#D40303"/>
<path fill-rule="evenodd" clip-rule="evenodd" d="M246 331C244.619 331 243.5 330.02 243.5 328.81V245.598C243.5 244.389 244.619 243.409 246 243.409C247.381 243.409 248.5 244.389 248.5 245.598V328.81C248.5 330.02 247.381 331 246 331Z" fill="white"/>
<path d="M246 231C249.866 231 253 237.471 253 245.453C253 253.435 249.866 259.905 246 259.905C242.134 259.905 239 253.435 239 245.453C239 237.471 242.134 231 246 231Z" fill="#D40303"/>
<path fill-rule="evenodd" clip-rule="evenodd" d="M364 329C362.619 329 361.5 328.02 361.5 326.81V243.598C361.5 242.389 362.619 241.409 364 241.409C365.381 241.409 366.5 242.389 366.5 243.598V326.81C366.5 328.02 365.381 329 364 329Z" fill="white"/>
<path d="M364 229C367.866 229 371 235.471 371 243.453C371 251.435 367.866 257.905 364 257.905C360.134 257.905 357 251.435 357 243.453C357 235.471 360.134 229 364 229Z" fill="#D40303"/>
<path fill-rule="evenodd" clip-rule="evenodd" d="M364 220C362.619 220 361.5 219.02 361.5 217.81V134.598C361.5 133.389 362.619 132.409 364 132.409C365.381 132.409 366.5 133.389 366.5 134.598V217.81C366.5 219.02 365.381 220 364 220Z" fill="white"/>
<path d="M364 120C367.866 120 371 126.471 371 134.453C371 142.435 367.866 148.905 364 148.905C360.134 148.905 357 142.435 357 134.453C357 126.471 360.134 120 364 120Z" fill="#D40303"/>
<path fill-rule="evenodd" clip-rule="evenodd" d="M366 113C364.619 113 363.5 112.02 363.5 110.81V27.5984C363.5 26.389 364.619 25.4086 366 25.4086C367.381 25.4086 368.5 26.389 368.5 27.5984V110.81C368.5 112.02 367.381 113 366 113Z" fill="white"/>
<path d="M366 13C369.866 13 373 19.4706 373 27.4526C373 35.4345 369.866 41.9052 366 41.9052C362.134 41.9052 359 35.4345 359 27.4526C359 19.4706 362.134 13 366 13Z" fill="#D40303"/>
<path fill-rule="evenodd" clip-rule="evenodd" d="M246 217C244.619 217 243.5 216.02 243.5 214.81V131.598C243.5 130.389 244.619 129.409 246 129.409C247.381 129.409 248.5 130.389 248.5 131.598V214.81C248.5 216.02 247.381 217 246 217Z" fill="white"/>
<path d="M246 117C249.866 117 253 123.471 253 131.453C253 139.435 249.866 145.905 246 145.905C242.134 145.905 239 139.435 239 131.453C239 123.471 242.134 117 246 117Z" fill="#D40303"/>
<path fill-rule="evenodd" clip-rule="evenodd" d="M246 111C244.619 111 243.5 110.02 243.5 108.81V25.5984C243.5 24.389 244.619 23.4086 246 23.4086C247.381 23.4086 248.5 24.389 248.5 25.5984V108.81C248.5 110.02 247.381 111 246 111Z" fill="white"/>
<path d="M246 11C249.866 11 253 17.4706 253 25.4526C253 33.4345 249.866 39.9052 246 39.9052C242.134 39.9052 239 33.4345 239 25.4526C239 17.4706 242.134 11 246 11Z" fill="#D40303"/>
<path fill-rule="evenodd" clip-rule="evenodd" d="M258 118C258 116.619 258.98 115.5 260.19 115.5H343.402C344.611 115.5 345.591 116.619 345.591 118C345.591 119.381 344.611 120.5 343.402 120.5H260.19C258.98 120.5 258 119.381 258 118Z" fill="white"/>
<path d="M358 118C358 121.866 351.529 125 343.548 125C335.566 125 329.095 121.866 329.095 118C329.095 114.134 335.566 111 343.548 111C351.529 111 358 114.134 358 118Z" fill="#D40303"/>
<path fill-rule="evenodd" clip-rule="evenodd" d="M143 332C143 330.619 143.98 329.5 145.19 329.5H228.402C229.611 329.5 230.591 330.619 230.591 332C230.591 333.381 229.611 334.5 228.402 334.5H145.19C143.98 334.5 143 333.381 143 332Z" fill="white"/>
<path d="M243 332C243 335.866 236.529 339 228.547 339C220.565 339 214.095 335.866 214.095 332C214.095 328.134 220.565 325 228.547 325C236.529 325 243 328.134 243 332Z" fill="#D40303"/>
<path fill-rule="evenodd" clip-rule="evenodd" d="M255 332C255 330.619 255.98 329.5 257.19 329.5H340.402C341.611 329.5 342.591 330.619 342.591 332C342.591 333.381 341.611 334.5 340.402 334.5H257.19C255.98 334.5 255 333.381 255 332Z" fill="white"/>
<path d="M355 332C355 335.866 348.529 339 340.548 339C332.566 339 326.095 335.866 326.095 332C326.095 328.134 332.566 325 340.548 325C348.529 325 355 328.134 355 332Z" fill="#D40303"/>
<path fill-rule="evenodd" clip-rule="evenodd" d="M138 11C138 9.61927 138.98 8.49998 140.19 8.49998H223.402C224.611 8.49998 225.591 9.61927 225.591 11C225.591 12.3807 224.611 13.5 223.402 13.5H140.19C138.98 13.5 138 12.3807 138 11Z" fill="white"/>
<path d="M238 11C238 14.866 231.529 18 223.547 18C215.565 18 209.095 14.866 209.095 11C209.095 7.13399 215.565 3.99998 223.547 3.99998C231.529 3.99998 238 7.13399 238 11Z" fill="#D40303"/>
<path fill-rule="evenodd" clip-rule="evenodd" d="M139 118C139 116.619 139.98 115.5 141.19 115.5H224.402C225.611 115.5 226.591 116.619 226.591 118C226.591 119.381 225.611 120.5 224.402 120.5H141.19C139.98 120.5 139 119.381 139 118Z" fill="white"/>
<path d="M239 118C239 121.866 232.529 125 224.547 125C216.565 125 210.095 121.866 210.095 118C210.095 114.134 216.565 111 224.547 111C232.529 111 239 114.134 239 118Z" fill="#D40303"/>
<path fill-rule="evenodd" clip-rule="evenodd" d="M255 220C255 218.619 255.98 217.5 257.19 217.5H340.402C341.611 217.5 342.591 218.619 342.591 220C342.591 221.381 341.611 222.5 340.402 222.5H257.19C255.98 222.5 255 221.381 255 220Z" fill="white"/>
<path d="M355 220C355 223.866 348.529 227 340.548 227C332.566 227 326.095 223.866 326.095 220C326.095 216.134 332.566 213 340.548 213C348.529 213 355 216.134 355 220Z" fill="#D40303"/>
<path fill-rule="evenodd" clip-rule="evenodd" d="M219.425 93.8466C218.449 92.8703 218.449 91.2874 219.425 90.311L269.504 40.2322C270.48 39.2559 272.063 39.2559 273.039 40.2322C274.016 41.2085 274.016 42.7914 273.039 43.7678L222.961 93.8466C221.984 94.8229 220.401 94.8229 219.425 93.8466Z" fill="#2CF30B"/>
<path fill-rule="evenodd" clip-rule="evenodd" d="M219.768 40.5394C220.744 39.5631 222.327 39.5631 223.303 40.5394L273.382 90.6182C274.359 91.5945 274.359 93.1774 273.382 94.1538C272.406 95.1301 270.823 95.1301 269.847 94.1538L219.768 44.0749C218.792 43.0986 218.792 41.5157 219.768 40.5394Z" fill="#2CF30B"/>
<path fill-rule="evenodd" clip-rule="evenodd" d="M105.425 196.847C104.449 195.87 104.449 194.287 105.425 193.311L155.504 143.232C156.48 142.256 158.063 142.256 159.039 143.232C160.016 144.209 160.016 145.791 159.039 146.768L108.961 196.847C107.984 197.823 106.401 197.823 105.425 196.847Z" fill="#2CF30B"/>
<path fill-rule="evenodd" clip-rule="evenodd" d="M105.768 143.539C106.744 142.563 108.327 142.563 109.303 143.539L159.382 193.618C160.358 194.595 160.358 196.177 159.382 197.154C158.406 198.13 156.823 198.13 155.847 197.154L105.768 147.075C104.791 146.099 104.791 144.516 105.768 143.539Z" fill="#2CF30B"/>
<path fill-rule="evenodd" clip-rule="evenodd" d="M219.425 310.847C218.449 309.87 218.449 308.287 219.425 307.311L269.504 257.232C270.48 256.256 272.063 256.256 273.039 257.232C274.016 258.209 274.016 259.791 273.039 260.768L222.961 310.847C221.984 311.823 220.401 311.823 219.425 310.847Z" fill="#2CF30B"/>
<path fill-rule="evenodd" clip-rule="evenodd" d="M219.768 257.539C220.744 256.563 222.327 256.563 223.303 257.539L273.382 307.618C274.359 308.595 274.359 310.177 273.382 311.154C272.406 312.13 270.823 312.13 269.847 311.154L219.768 261.075C218.792 260.099 218.792 258.516 219.768 257.539Z" fill="#2CF30B"/>
<path fill-rule="evenodd" clip-rule="evenodd" d="M218.425 196.847C217.449 195.87 217.449 194.287 218.425 193.311L268.504 143.232C269.48 142.256 271.063 142.256 272.039 143.232C273.016 144.209 273.016 145.791 272.039 146.768L221.961 196.847C220.984 197.823 219.401 197.823 218.425 196.847Z" fill="#2CF30B"/>
<path fill-rule="evenodd" clip-rule="evenodd" d="M218.768 143.539C219.744 142.563 221.327 142.563 222.303 143.539L272.382 193.618C273.358 194.595 273.358 196.177 272.382 197.154C271.406 198.13 269.823 198.13 268.847 197.154L218.768 147.075C217.791 146.099 217.791 144.516 218.768 143.539Z" fill="#2CF30B"/>
<path fill-rule="evenodd" clip-rule="evenodd" d="M407.035 345L404 0.999988L409 0.955872L412.035 344.956L407.035 345Z" fill="#CD08D1"/>
<path fill-rule="evenodd" clip-rule="evenodd" d="M603 329C601.619 329 600.5 328.02 600.5 326.81V243.598C600.5 242.389 601.619 241.409 603 241.409C604.381 241.409 605.5 242.389 605.5 243.598V326.81C605.5 328.02 604.381 329 603 329Z" fill="white"/>
<path d="M603 229C606.866 229 610 235.471 610 243.453C610 251.435 606.866 257.905 603 257.905C599.134 257.905 596 251.435 596 243.453C596 235.471 599.134 229 603 229Z" fill="#D40303"/>
<path fill-rule="evenodd" clip-rule="evenodd" d="M484 331C482.619 331 481.5 330.02 481.5 328.81V245.598C481.5 244.389 482.619 243.409 484 243.409C485.381 243.409 486.5 244.389 486.5 245.598V328.81C486.5 330.02 485.381 331 484 331Z" fill="white"/>
<path d="M484 231C487.866 231 491 237.471 491 245.453C491 253.435 487.866 259.905 484 259.905C480.134 259.905 477 253.435 477 245.453C477 237.471 480.134 231 484 231Z" fill="#D40303"/>
<path fill-rule="evenodd" clip-rule="evenodd" d="M838 221C836.619 221 835.5 220.02 835.5 218.81V135.598C835.5 134.389 836.619 133.409 838 133.409C839.381 133.409 840.5 134.389 840.5 135.598V218.81C840.5 220.02 839.381 221 838 221Z" fill="white"/>
<path d="M838 121C841.866 121 845 127.471 845 135.453C845 143.435 841.866 149.905 838 149.905C834.134 149.905 831 143.435 831 135.453C831 127.471 834.134 121 838 121Z" fill="#D40303"/>
<path fill-rule="evenodd" clip-rule="evenodd" d="M480 115C478.619 115 477.5 114.02 477.5 112.81V29.5984C477.5 28.389 478.619 27.4086 480 27.4086C481.381 27.4086 482.5 28.389 482.5 29.5984V112.81C482.5 114.02 481.381 115 480 115Z" fill="white"/>
<path d="M480 15C483.866 15 487 21.4706 487 29.4526C487 37.4345 483.866 43.9052 480 43.9052C476.134 43.9052 473 37.4345 473 29.4526C473 21.4706 476.134 15 480 15Z" fill="#D40303"/>
<path fill-rule="evenodd" clip-rule="evenodd" d="M603 115C601.619 115 600.5 114.02 600.5 112.81V29.5984C600.5 28.389 601.619 27.4086 603 27.4086C604.381 27.4086 605.5 28.389 605.5 29.5984V112.81C605.5 114.02 604.381 115 603 115Z" fill="white"/>
<path d="M603 15C606.866 15 610 21.4706 610 29.4526C610 37.4345 606.866 43.9052 603 43.9052C599.134 43.9052 596 37.4345 596 29.4526C596 21.4706 599.134 15 603 15Z" fill="#D40303"/>
<path fill-rule="evenodd" clip-rule="evenodd" d="M491 122C491 120.619 491.98 119.5 493.19 119.5H576.402C577.611 119.5 578.591 120.619 578.591 122C578.591 123.381 577.611 124.5 576.402 124.5H493.19C491.98 124.5 491 123.381 491 122Z" fill="white"/>
<path d="M591 122C591 125.866 584.529 129 576.548 129C568.566 129 562.095 125.866 562.095 122C562.095 118.134 568.566 115 576.548 115C584.529 115 591 118.134 591 122Z" fill="#D40303"/>
<path fill-rule="evenodd" clip-rule="evenodd" d="M491 18C491 16.6193 491.98 15.5 493.19 15.5L576.402 15.5C577.611 15.5 578.591 16.6193 578.591 18C578.591 19.3807 577.611 20.5 576.402 20.5L493.19 20.5C491.98 20.5 491 19.3807 491 18Z" fill="white"/>
<path d="M591 18C591 21.866 584.529 25 576.548 25C568.566 25 562.095 21.866 562.095 18C562.095 14.134 568.566 11 576.548 11C584.529 11 591 14.134 591 18Z" fill="#D40303"/>
<path fill-rule="evenodd" clip-rule="evenodd" d="M731 13C731 11.6193 731.98 10.5 733.19 10.5L816.402 10.5C817.611 10.5 818.591 11.6193 818.591 13C818.591 14.3807 817.611 15.5 816.402 15.5L733.19 15.5C731.98 15.5 731 14.3807 731 13Z" fill="white"/>
<path d="M831 13C831 16.866 824.529 20 816.548 20C808.566 20 802.095 16.866 802.095 13C802.095 9.13399 808.566 5.99998 816.548 5.99998C824.529 5.99998 831 9.13399 831 13Z" fill="#D40303"/>
<path fill-rule="evenodd" clip-rule="evenodd" d="M494 335C494 333.619 494.98 332.5 496.19 332.5H579.402C580.611 332.5 581.591 333.619 581.591 335C581.591 336.381 580.611 337.5 579.402 337.5H496.19C494.98 337.5 494 336.381 494 335Z" fill="white"/>
<path d="M594 335C594 338.866 587.529 342 579.548 342C571.566 342 565.095 338.866 565.095 335C565.095 331.134 571.566 328 579.548 328C587.529 328 594 331.134 594 335Z" fill="#D40303"/>
<path fill-rule="evenodd" clip-rule="evenodd" d="M491 224C491 222.619 491.98 221.5 493.19 221.5H576.402C577.611 221.5 578.591 222.619 578.591 224C578.591 225.381 577.611 226.5 576.402 226.5H493.19C491.98 226.5 491 225.381 491 224Z" fill="white"/>
<path d="M591 224C591 227.866 584.529 231 576.548 231C568.566 231 562.095 227.866 562.095 224C562.095 220.134 568.566 217 576.548 217C584.529 217 591 220.134 591 224Z" fill="#D40303"/>
<path fill-rule="evenodd" clip-rule="evenodd" d="M616 224C616 222.619 616.98 221.5 618.19 221.5H701.402C702.611 221.5 703.591 222.619 703.591 224C703.591 225.381 702.611 226.5 701.402 226.5H618.19C616.98 226.5 616 225.381 616 224Z" fill="white"/>
<path d="M716 224C716 227.866 709.529 231 701.548 231C693.566 231 687.095 227.866 687.095 224C687.095 220.134 693.566 217 701.548 217C709.529 217 716 220.134 716 224Z" fill="#D40303"/>
<path fill-rule="evenodd" clip-rule="evenodd" d="M837 333C835.619 333 834.5 332.02 834.5 330.81V247.598C834.5 246.389 835.619 245.409 837 245.409C838.381 245.409 839.5 246.389 839.5 247.598V330.81C839.5 332.02 838.381 333 837 333Z" fill="white"/>
<path d="M837 233C840.866 233 844 239.471 844 247.453C844 255.435 840.866 261.905 837 261.905C833.134 261.905 830 255.435 830 247.453C830 239.471 833.134 233 837 233Z" fill="#D40303"/>
<path fill-rule="evenodd" clip-rule="evenodd" d="M839 117C837.619 117 836.5 116.02 836.5 114.81V31.5984C836.5 30.389 837.619 29.4086 839 29.4086C840.381 29.4086 841.5 30.389 841.5 31.5984V114.81C841.5 116.02 840.381 117 839 117Z" fill="white"/>
<path d="M839 17C842.866 17 846 23.4706 846 31.4526C846 39.4345 842.866 45.9052 839 45.9052C835.134 45.9052 832 39.4345 832 31.4526C832 23.4706 835.134 17 839 17Z" fill="#D40303"/>
<path fill-rule="evenodd" clip-rule="evenodd" d="M481 218C479.619 218 478.5 217.02 478.5 215.81V132.598C478.5 131.389 479.619 130.409 481 130.409C482.381 130.409 483.5 131.389 483.5 132.598V215.81C483.5 217.02 482.381 218 481 218Z" fill="white"/>
<path d="M481 118C484.866 118 488 124.471 488 132.453C488 140.435 484.866 146.905 481 146.905C477.134 146.905 474 140.435 474 132.453C474 124.471 477.134 118 481 118Z" fill="#D40303"/>
<path fill-rule="evenodd" clip-rule="evenodd" d="M731 122C731 120.619 731.98 119.5 733.19 119.5H816.402C817.611 119.5 818.591 120.619 818.591 122C818.591 123.381 817.611 124.5 816.402 124.5H733.19C731.98 124.5 731 123.381 731 122Z" fill="white"/>
<path d="M831 122C831 125.866 824.529 129 816.548 129C808.566 129 802.095 125.866 802.095 122C802.095 118.134 808.566 115 816.548 115C824.529 115 831 118.134 831 122Z" fill="#D40303"/>
<path fill-rule="evenodd" clip-rule="evenodd" d="M616 336C616 334.619 616.98 333.5 618.19 333.5H701.402C702.611 333.5 703.591 334.619 703.591 336C703.591 337.381 702.611 338.5 701.402 338.5H618.19C616.98 338.5 616 337.381 616 336Z" fill="white"/>
<path d="M716 336C716 339.866 709.529 343 701.548 343C693.566 343 687.095 339.866 687.095 336C687.095 332.134 693.566 329 701.548 329C709.529 329 716 332.134 716 336Z" fill="#D40303"/>
<path fill-rule="evenodd" clip-rule="evenodd" d="M728 336C728 334.619 728.98 333.5 730.19 333.5H813.402C814.611 333.5 815.591 334.619 815.591 336C815.591 337.381 814.611 338.5 813.402 338.5H730.19C728.98 338.5 728 337.381 728 336Z" fill="white"/>
<path d="M828 336C828 339.866 821.529 343 813.548 343C805.566 343 799.095 339.866 799.095 336C799.095 332.134 805.566 329 813.548 329C821.529 329 828 332.134 828 336Z" fill="#D40303"/>
<path fill-rule="evenodd" clip-rule="evenodd" d="M611 15C611 13.6193 611.98 12.5 613.19 12.5H696.402C697.611 12.5 698.591 13.6193 698.591 15C698.591 16.3807 697.611 17.5 696.402 17.5H613.19C611.98 17.5 611 16.3807 611 15Z" fill="white"/>
<path d="M711 15C711 18.866 704.529 22 696.548 22C688.566 22 682.095 18.866 682.095 15C682.095 11.134 688.566 7.99998 696.548 7.99998C704.529 7.99998 711 11.134 711 15Z" fill="#D40303"/>
<path fill-rule="evenodd" clip-rule="evenodd" d="M612 122C612 120.619 612.98 119.5 614.19 119.5H697.402C698.611 119.5 699.591 120.619 699.591 122C699.591 123.381 698.611 124.5 697.402 124.5H614.19C612.98 124.5 612 123.381 612 122Z" fill="white"/>
<path d="M712 122C712 125.866 705.529 129 697.548 129C689.566 129 683.095 125.866 683.095 122C683.095 118.134 689.566 115 697.548 115C705.529 115 712 118.134 712 122Z" fill="#D40303"/>
<path fill-rule="evenodd" clip-rule="evenodd" d="M728 224C728 222.619 728.98 221.5 730.19 221.5H813.402C814.611 221.5 815.591 222.619 815.591 224C815.591 225.381 814.611 226.5 813.402 226.5H730.19C728.98 226.5 728 225.381 728 224Z" fill="white"/>
<path d="M828 224C828 227.866 821.529 231 813.548 231C805.566 231 799.095 227.866 799.095 224C799.095 220.134 805.566 217 813.548 217C821.529 217 828 220.134 828 224Z" fill="#D40303"/>
</svg>
