<svg viewBox="0 0 1011 700" fill="none" xmlns="http://www.w3.org/2000/svg">
<g id="0132103">
<g id="enunciado">
<g id="Group 71">
<path id="Rectangle 1" d="M0 64.6101C0 30.7396 23.7112 3.2821 52.9605 3.2821H966V427.672C966 461.543 942.289 489 913.039 489H0V64.6101Z" fill="#02071A"/>
<path id="Rectangle 1 (Stroke)" fill-rule="evenodd" clip-rule="evenodd" d="M960.704 9.3644H52.9605C26.6362 9.3644 5.29605 34.0787 5.29605 64.5654V482.866H913.039C939.364 482.866 960.704 458.152 960.704 427.665V9.3644ZM52.9605 3.23096C23.7112 3.23096 0 30.6913 0 64.5654V489H913.039C942.289 489 966 461.539 966 427.665V3.23096H52.9605Z" fill="#F318F8"/>
<path id="Rectangle 14" d="M57.3562 3.39222C85.682 -4.24027 966 3.39222 966 3.39222V36.4348C966 36.4348 42.3683 24.2899 9.53284 36.4348C19.7497 18.9095 29.0303 11.0247 57.3562 3.39222Z" fill="#F318F8"/>
<path id="Rectangle 15" d="M932.479 10.5021H963.968V428.936C960.103 457.331 952.092 467.768 932.479 481.391C938.252 459.082 932.479 10.5021 932.479 10.5021Z" fill="#F318F8"/>
</g>
<g id="&#194;&#191;Cu&#195;&#161;ntos palitos debes quitar, como m&#195;&#173;nimo, para obtener solo 3 cuadrados?">
<path d="M33.3359 77.5674C33.3242 78.8096 33.1953 79.8057 32.9492 80.5557C32.7148 81.2939 32.3164 82.0088 31.7539 82.7002C31.1914 83.3916 30.3711 84.3057 29.293 85.4424C28.2148 86.5674 27.6113 87.71 27.4824 88.8701L27.4473 89.5205C27.4473 90.7979 27.7871 91.7705 28.4668 92.4385C29.1465 93.1182 30.125 93.458 31.4023 93.458C32.5742 93.458 33.5234 93.124 34.25 92.4561C34.9883 91.7998 35.3574 90.9385 35.3574 89.8721H38.6094C38.5859 91.7588 37.9121 93.2998 36.5879 94.4951C35.2754 95.6904 33.5469 96.2881 31.4023 96.2881C29.1055 96.2881 27.3301 95.6963 26.0762 94.5127C24.8223 93.3408 24.1953 91.7061 24.1953 89.6084C24.1953 87.5811 25.1328 85.542 27.0078 83.4912L28.9238 81.5049C29.6973 80.5908 30.084 79.2783 30.084 77.5674H33.3359ZM33.4766 71.9951C33.4766 72.5225 33.3125 72.9678 32.9844 73.3311C32.668 73.6943 32.1934 73.876 31.5605 73.876C30.9277 73.876 30.4473 73.6943 30.1191 73.3311C29.791 72.9678 29.627 72.5225 29.627 71.9951C29.627 71.4795 29.791 71.0459 30.1191 70.6943C30.4473 70.3428 30.9277 70.167 31.5605 70.167C32.1934 70.167 32.668 70.3428 32.9844 70.6943C33.3125 71.0459 33.4766 71.4795 33.4766 71.9951Z" fill="white"/>
<path d="M61.8477 81.3994C61.5312 84.1064 60.5293 86.1982 58.8418 87.6748C57.166 89.1396 54.9336 89.8721 52.1445 89.8721C49.1211 89.8721 46.6953 88.7881 44.8672 86.6201C43.0508 84.4521 42.1426 81.5518 42.1426 77.9189V75.458C42.1426 73.0791 42.5645 70.9873 43.4082 69.1826C44.2637 67.3779 45.4707 65.9951 47.0293 65.0342C48.5879 64.0615 50.3926 63.5752 52.4434 63.5752C55.1621 63.5752 57.3418 64.3369 58.9824 65.8604C60.623 67.3721 61.5781 69.4697 61.8477 72.1533H58.4551C58.1621 70.1143 57.5234 68.6377 56.5391 67.7236C55.5664 66.8096 54.2012 66.3525 52.4434 66.3525C50.2871 66.3525 48.5938 67.1494 47.3633 68.7432C46.1445 70.3369 45.5352 72.6045 45.5352 75.5459V78.0244C45.5352 80.8018 46.1152 83.0107 47.2754 84.6514C48.4355 86.292 50.0586 87.1123 52.1445 87.1123C54.0195 87.1123 55.4551 86.6904 56.4512 85.8467C57.459 84.9912 58.127 83.5088 58.4551 81.3994H61.8477Z" fill="white"/>
<path d="M77.7031 87.6396C76.4375 89.1279 74.5801 89.8721 72.1309 89.8721C70.1035 89.8721 68.5566 89.2861 67.4902 88.1143C66.4355 86.9307 65.9023 85.1846 65.8906 82.876V70.501H69.1426V82.7881C69.1426 85.6709 70.3145 87.1123 72.6582 87.1123C75.1426 87.1123 76.7949 86.1865 77.6152 84.335V70.501H80.8672V89.5205H77.7734L77.7031 87.6396Z" fill="white"/>
<path d="M97.5664 89.5205C97.3789 89.1455 97.2266 88.4775 97.1094 87.5166C95.5977 89.0869 93.793 89.8721 91.6953 89.8721C89.8203 89.8721 88.2793 89.3447 87.0723 88.29C85.877 87.2236 85.2793 85.876 85.2793 84.2471C85.2793 82.2666 86.0293 80.7314 87.5293 79.6416C89.041 78.54 91.1621 77.9893 93.8926 77.9893H97.0566V76.4951C97.0566 75.3584 96.7168 74.4561 96.0371 73.7881C95.3574 73.1084 94.3555 72.7686 93.0312 72.7686C91.8711 72.7686 90.8984 73.0615 90.1133 73.6475C89.3281 74.2334 88.9355 74.9424 88.9355 75.7744H85.666C85.666 74.8252 86 73.9111 86.668 73.0322C87.3477 72.1416 88.2617 71.4385 89.4102 70.9229C90.5703 70.4072 91.8418 70.1494 93.2246 70.1494C95.416 70.1494 97.1328 70.7002 98.375 71.8018C99.6172 72.8916 100.262 74.3975 100.309 76.3193V85.0732C100.309 86.8193 100.531 88.208 100.977 89.2393V89.5205H97.5664ZM92.1699 87.042C93.1895 87.042 94.1562 86.7783 95.0703 86.251C95.9844 85.7236 96.6465 85.0381 97.0566 84.1943V80.292H94.5078C90.5234 80.292 88.5312 81.458 88.5312 83.79C88.5312 84.8096 88.8711 85.6064 89.5508 86.1807C90.2305 86.7549 91.1035 87.042 92.1699 87.042ZM95.1758 62.5205H99.1133L94.4023 67.6885H91.7832L95.1758 62.5205Z" fill="white"/>
<path d="M108.482 70.501L108.588 72.8916C110.041 71.0635 111.939 70.1494 114.283 70.1494C118.303 70.1494 120.33 72.417 120.365 76.9521V89.5205H117.113V76.9346C117.102 75.5635 116.785 74.5498 116.164 73.8936C115.555 73.2373 114.6 72.9092 113.299 72.9092C112.244 72.9092 111.318 73.1904 110.521 73.7529C109.725 74.3154 109.104 75.0537 108.658 75.9678V89.5205H105.406V70.501H108.482Z" fill="white"/>
<path d="M129.682 65.8955V70.501H133.232V73.0146H129.682V84.8096C129.682 85.5713 129.84 86.1455 130.156 86.5322C130.473 86.9072 131.012 87.0947 131.773 87.0947C132.148 87.0947 132.664 87.0244 133.32 86.8838V89.5205C132.465 89.7549 131.633 89.8721 130.824 89.8721C129.371 89.8721 128.275 89.4326 127.537 88.5537C126.799 87.6748 126.43 86.4268 126.43 84.8096V73.0146H122.967V70.501H126.43V65.8955H129.682Z" fill="white"/>
<path d="M135.834 79.835C135.834 77.9717 136.197 76.2959 136.924 74.8076C137.662 73.3193 138.682 72.1709 139.982 71.3623C141.295 70.5537 142.789 70.1494 144.465 70.1494C147.055 70.1494 149.146 71.0459 150.74 72.8389C152.346 74.6318 153.148 77.0166 153.148 79.9932V80.2217C153.148 82.0732 152.791 83.7373 152.076 85.2139C151.373 86.6787 150.359 87.8213 149.035 88.6416C147.723 89.4619 146.211 89.8721 144.5 89.8721C141.922 89.8721 139.83 88.9756 138.225 87.1826C136.631 85.3896 135.834 83.0166 135.834 80.0635V79.835ZM139.104 80.2217C139.104 82.3311 139.59 84.0244 140.562 85.3018C141.547 86.5791 142.859 87.2178 144.5 87.2178C146.152 87.2178 147.465 86.5732 148.438 85.2842C149.41 83.9834 149.896 82.167 149.896 79.835C149.896 77.749 149.398 76.0615 148.402 74.7725C147.418 73.4717 146.105 72.8213 144.465 72.8213C142.859 72.8213 141.564 73.46 140.58 74.7373C139.596 76.0146 139.104 77.8428 139.104 80.2217Z" fill="white"/>
<path d="M168.301 84.4756C168.301 83.5967 167.967 82.917 167.299 82.4365C166.643 81.9443 165.488 81.5225 163.836 81.1709C162.195 80.8193 160.889 80.3975 159.916 79.9053C158.955 79.4131 158.24 78.8271 157.771 78.1475C157.314 77.4678 157.086 76.6592 157.086 75.7217C157.086 74.1631 157.742 72.8447 159.055 71.7666C160.379 70.6885 162.066 70.1494 164.117 70.1494C166.273 70.1494 168.02 70.7061 169.355 71.8193C170.703 72.9326 171.377 74.3564 171.377 76.0908H168.107C168.107 75.2002 167.727 74.4326 166.965 73.7881C166.215 73.1436 165.266 72.8213 164.117 72.8213C162.934 72.8213 162.008 73.0791 161.34 73.5947C160.672 74.1104 160.338 74.7842 160.338 75.6162C160.338 76.4014 160.648 76.9932 161.27 77.3916C161.891 77.79 163.01 78.1709 164.627 78.5342C166.256 78.8975 167.574 79.3311 168.582 79.835C169.59 80.3389 170.334 80.9482 170.814 81.6631C171.307 82.3662 171.553 83.2275 171.553 84.2471C171.553 85.9463 170.873 87.3115 169.514 88.3428C168.154 89.3623 166.391 89.8721 164.223 89.8721C162.699 89.8721 161.352 89.6025 160.18 89.0635C159.008 88.5244 158.088 87.7744 157.42 86.8135C156.764 85.8408 156.436 84.792 156.436 83.667H159.688C159.746 84.7568 160.18 85.624 160.988 86.2686C161.809 86.9014 162.887 87.2178 164.223 87.2178C165.453 87.2178 166.438 86.9717 167.176 86.4795C167.926 85.9756 168.301 85.3076 168.301 84.4756Z" fill="white"/>
<path d="M200.785 80.2217C200.785 83.1162 200.123 85.4482 198.799 87.2178C197.475 88.9873 195.682 89.8721 193.42 89.8721C191.111 89.8721 189.295 89.1396 187.971 87.6748V96.833H184.719V70.501H187.689L187.848 72.6104C189.172 70.9697 191.012 70.1494 193.367 70.1494C195.652 70.1494 197.457 71.0107 198.781 72.7334C200.117 74.4561 200.785 76.8525 200.785 79.9229V80.2217ZM197.533 79.8525C197.533 77.708 197.076 76.0146 196.162 74.7725C195.248 73.5303 193.994 72.9092 192.4 72.9092C190.432 72.9092 188.955 73.7822 187.971 75.5283V84.6162C188.943 86.3506 190.432 87.2178 192.436 87.2178C193.994 87.2178 195.23 86.6025 196.145 85.3721C197.07 84.1299 197.533 82.29 197.533 79.8525Z" fill="white"/>
<path d="M216.676 89.5205C216.488 89.1455 216.336 88.4775 216.219 87.5166C214.707 89.0869 212.902 89.8721 210.805 89.8721C208.93 89.8721 207.389 89.3447 206.182 88.29C204.986 87.2236 204.389 85.876 204.389 84.2471C204.389 82.2666 205.139 80.7314 206.639 79.6416C208.15 78.54 210.271 77.9893 213.002 77.9893H216.166V76.4951C216.166 75.3584 215.826 74.4561 215.146 73.7881C214.467 73.1084 213.465 72.7686 212.141 72.7686C210.98 72.7686 210.008 73.0615 209.223 73.6475C208.438 74.2334 208.045 74.9424 208.045 75.7744H204.775C204.775 74.8252 205.109 73.9111 205.777 73.0322C206.457 72.1416 207.371 71.4385 208.52 70.9229C209.68 70.4072 210.951 70.1494 212.334 70.1494C214.525 70.1494 216.242 70.7002 217.484 71.8018C218.727 72.8916 219.371 74.3975 219.418 76.3193V85.0732C219.418 86.8193 219.641 88.208 220.086 89.2393V89.5205H216.676ZM211.279 87.042C212.299 87.042 213.266 86.7783 214.18 86.251C215.094 85.7236 215.756 85.0381 216.166 84.1943V80.292H213.617C209.633 80.292 207.641 81.458 207.641 83.79C207.641 84.8096 207.98 85.6064 208.66 86.1807C209.34 86.7549 210.213 87.042 211.279 87.042Z" fill="white"/>
<path d="M228.049 89.5205H224.797V62.5205H228.049V89.5205Z" fill="white"/>
<path d="M236.803 89.5205H233.551V70.501H236.803V89.5205ZM233.287 65.4561C233.287 64.9287 233.445 64.4834 233.762 64.1201C234.09 63.7568 234.57 63.5752 235.203 63.5752C235.836 63.5752 236.316 63.7568 236.645 64.1201C236.973 64.4834 237.137 64.9287 237.137 65.4561C237.137 65.9834 236.973 66.4229 236.645 66.7744C236.316 67.126 235.836 67.3018 235.203 67.3018C234.57 67.3018 234.09 67.126 233.762 66.7744C233.445 66.4229 233.287 65.9834 233.287 65.4561Z" fill="white"/>
<path d="M246.436 65.8955V70.501H249.986V73.0146H246.436V84.8096C246.436 85.5713 246.594 86.1455 246.91 86.5322C247.227 86.9072 247.766 87.0947 248.527 87.0947C248.902 87.0947 249.418 87.0244 250.074 86.8838V89.5205C249.219 89.7549 248.387 89.8721 247.578 89.8721C246.125 89.8721 245.029 89.4326 244.291 88.5537C243.553 87.6748 243.184 86.4268 243.184 84.8096V73.0146H239.721V70.501H243.184V65.8955H246.436Z" fill="white"/>
<path d="M252.588 79.835C252.588 77.9717 252.951 76.2959 253.678 74.8076C254.416 73.3193 255.436 72.1709 256.736 71.3623C258.049 70.5537 259.543 70.1494 261.219 70.1494C263.809 70.1494 265.9 71.0459 267.494 72.8389C269.1 74.6318 269.902 77.0166 269.902 79.9932V80.2217C269.902 82.0732 269.545 83.7373 268.83 85.2139C268.127 86.6787 267.113 87.8213 265.789 88.6416C264.477 89.4619 262.965 89.8721 261.254 89.8721C258.676 89.8721 256.584 88.9756 254.979 87.1826C253.385 85.3896 252.588 83.0166 252.588 80.0635V79.835ZM255.857 80.2217C255.857 82.3311 256.344 84.0244 257.316 85.3018C258.301 86.5791 259.613 87.2178 261.254 87.2178C262.906 87.2178 264.219 86.5732 265.191 85.2842C266.164 83.9834 266.65 82.167 266.65 79.835C266.65 77.749 266.152 76.0615 265.156 74.7725C264.172 73.4717 262.859 72.8213 261.219 72.8213C259.613 72.8213 258.318 73.46 257.334 74.7373C256.35 76.0146 255.857 77.8428 255.857 80.2217Z" fill="white"/>
<path d="M285.055 84.4756C285.055 83.5967 284.721 82.917 284.053 82.4365C283.396 81.9443 282.242 81.5225 280.59 81.1709C278.949 80.8193 277.643 80.3975 276.67 79.9053C275.709 79.4131 274.994 78.8271 274.525 78.1475C274.068 77.4678 273.84 76.6592 273.84 75.7217C273.84 74.1631 274.496 72.8447 275.809 71.7666C277.133 70.6885 278.82 70.1494 280.871 70.1494C283.027 70.1494 284.773 70.7061 286.109 71.8193C287.457 72.9326 288.131 74.3564 288.131 76.0908H284.861C284.861 75.2002 284.48 74.4326 283.719 73.7881C282.969 73.1436 282.02 72.8213 280.871 72.8213C279.688 72.8213 278.762 73.0791 278.094 73.5947C277.426 74.1104 277.092 74.7842 277.092 75.6162C277.092 76.4014 277.402 76.9932 278.023 77.3916C278.645 77.79 279.764 78.1709 281.381 78.5342C283.01 78.8975 284.328 79.3311 285.336 79.835C286.344 80.3389 287.088 80.9482 287.568 81.6631C288.061 82.3662 288.307 83.2275 288.307 84.2471C288.307 85.9463 287.627 87.3115 286.268 88.3428C284.908 89.3623 283.145 89.8721 280.977 89.8721C279.453 89.8721 278.105 89.6025 276.934 89.0635C275.762 88.5244 274.842 87.7744 274.174 86.8135C273.518 85.8408 273.189 84.792 273.189 83.667H276.441C276.5 84.7568 276.934 85.624 277.742 86.2686C278.562 86.9014 279.641 87.2178 280.977 87.2178C282.207 87.2178 283.191 86.9717 283.93 86.4795C284.68 85.9756 285.055 85.3076 285.055 84.4756Z" fill="white"/>
<path d="M300.682 79.8525C300.682 76.9346 301.373 74.5908 302.756 72.8213C304.139 71.04 305.949 70.1494 308.188 70.1494C310.414 70.1494 312.178 70.9111 313.479 72.4346V62.5205H316.73V89.5205H313.742L313.584 87.4814C312.283 89.0752 310.473 89.8721 308.152 89.8721C305.949 89.8721 304.15 88.9697 302.756 87.165C301.373 85.3604 300.682 83.0049 300.682 80.0986V79.8525ZM303.934 80.2217C303.934 82.3779 304.379 84.0654 305.27 85.2842C306.16 86.5029 307.391 87.1123 308.961 87.1123C311.023 87.1123 312.529 86.1865 313.479 84.335V75.5986C312.506 73.8057 311.012 72.9092 308.996 72.9092C307.402 72.9092 306.16 73.5244 305.27 74.7549C304.379 75.9854 303.934 77.8076 303.934 80.2217Z" fill="white"/>
<path d="M329.686 89.8721C327.107 89.8721 325.01 89.0283 323.393 87.3408C321.775 85.6416 320.967 83.374 320.967 80.5381V79.9404C320.967 78.0537 321.324 76.3721 322.039 74.8955C322.766 73.4072 323.773 72.2471 325.062 71.415C326.363 70.5713 327.77 70.1494 329.281 70.1494C331.754 70.1494 333.676 70.9639 335.047 72.5928C336.418 74.2217 337.104 76.5537 337.104 79.5889V80.9424H324.219C324.266 82.8174 324.811 84.335 325.854 85.4951C326.908 86.6436 328.244 87.2178 329.861 87.2178C331.01 87.2178 331.982 86.9834 332.779 86.5146C333.576 86.0459 334.273 85.4248 334.871 84.6514L336.857 86.1982C335.264 88.6475 332.873 89.8721 329.686 89.8721ZM329.281 72.8213C327.969 72.8213 326.867 73.3018 325.977 74.2627C325.086 75.2119 324.535 76.5479 324.324 78.2705H333.852V78.0244C333.758 76.3721 333.312 75.0947 332.516 74.1924C331.719 73.2783 330.641 72.8213 329.281 72.8213Z" fill="white"/>
<path d="M356.984 80.2217C356.984 83.1279 356.316 85.4658 354.98 87.2354C353.645 88.9932 351.852 89.8721 349.602 89.8721C347.199 89.8721 345.342 89.0225 344.029 87.3232L343.871 89.5205H340.883V62.5205H344.135V72.5928C345.447 70.9639 347.258 70.1494 349.566 70.1494C351.875 70.1494 353.686 71.0225 354.998 72.7686C356.322 74.5146 356.984 76.9053 356.984 79.9404V80.2217ZM353.732 79.8525C353.732 77.6377 353.305 75.9268 352.449 74.7197C351.594 73.5127 350.363 72.9092 348.758 72.9092C346.613 72.9092 345.072 73.9053 344.135 75.8975V84.124C345.131 86.1162 346.684 87.1123 348.793 87.1123C350.352 87.1123 351.564 86.5088 352.432 85.3018C353.299 84.0947 353.732 82.2783 353.732 79.8525Z" fill="white"/>
<path d="M368.99 89.8721C366.412 89.8721 364.314 89.0283 362.697 87.3408C361.08 85.6416 360.271 83.374 360.271 80.5381V79.9404C360.271 78.0537 360.629 76.3721 361.344 74.8955C362.07 73.4072 363.078 72.2471 364.367 71.415C365.668 70.5713 367.074 70.1494 368.586 70.1494C371.059 70.1494 372.98 70.9639 374.352 72.5928C375.723 74.2217 376.408 76.5537 376.408 79.5889V80.9424H363.523C363.57 82.8174 364.115 84.335 365.158 85.4951C366.213 86.6436 367.549 87.2178 369.166 87.2178C370.314 87.2178 371.287 86.9834 372.084 86.5146C372.881 86.0459 373.578 85.4248 374.176 84.6514L376.162 86.1982C374.568 88.6475 372.178 89.8721 368.99 89.8721ZM368.586 72.8213C367.273 72.8213 366.172 73.3018 365.281 74.2627C364.391 75.2119 363.84 76.5479 363.629 78.2705H373.156V78.0244C373.062 76.3721 372.617 75.0947 371.82 74.1924C371.023 73.2783 369.945 72.8213 368.586 72.8213Z" fill="white"/>
<path d="M391.262 84.4756C391.262 83.5967 390.928 82.917 390.26 82.4365C389.604 81.9443 388.449 81.5225 386.797 81.1709C385.156 80.8193 383.85 80.3975 382.877 79.9053C381.916 79.4131 381.201 78.8271 380.732 78.1475C380.275 77.4678 380.047 76.6592 380.047 75.7217C380.047 74.1631 380.703 72.8447 382.016 71.7666C383.34 70.6885 385.027 70.1494 387.078 70.1494C389.234 70.1494 390.98 70.7061 392.316 71.8193C393.664 72.9326 394.338 74.3564 394.338 76.0908H391.068C391.068 75.2002 390.688 74.4326 389.926 73.7881C389.176 73.1436 388.227 72.8213 387.078 72.8213C385.895 72.8213 384.969 73.0791 384.301 73.5947C383.633 74.1104 383.299 74.7842 383.299 75.6162C383.299 76.4014 383.609 76.9932 384.23 77.3916C384.852 77.79 385.971 78.1709 387.588 78.5342C389.217 78.8975 390.535 79.3311 391.543 79.835C392.551 80.3389 393.295 80.9482 393.775 81.6631C394.268 82.3662 394.514 83.2275 394.514 84.2471C394.514 85.9463 393.834 87.3115 392.475 88.3428C391.115 89.3623 389.352 89.8721 387.184 89.8721C385.66 89.8721 384.312 89.6025 383.141 89.0635C381.969 88.5244 381.049 87.7744 380.381 86.8135C379.725 85.8408 379.396 84.792 379.396 83.667H382.648C382.707 84.7568 383.141 85.624 383.949 86.2686C384.77 86.9014 385.848 87.2178 387.184 87.2178C388.414 87.2178 389.398 86.9717 390.137 86.4795C390.887 85.9756 391.262 85.3076 391.262 84.4756Z" fill="white"/>
<path d="M406.889 79.8525C406.889 76.8643 407.574 74.5029 408.945 72.7686C410.316 71.0225 412.156 70.1494 414.465 70.1494C416.715 70.1494 418.49 70.9053 419.791 72.417L419.932 70.501H422.92V96.833H419.668V87.7627C418.355 89.1689 416.609 89.8721 414.43 89.8721C412.133 89.8721 410.299 88.9814 408.928 87.2002C407.568 85.4072 406.889 83.0342 406.889 80.0811V79.8525ZM410.141 80.2217C410.141 82.4014 410.598 84.1123 411.512 85.3545C412.438 86.5967 413.68 87.2178 415.238 87.2178C417.172 87.2178 418.648 86.3623 419.668 84.6514V75.335C418.637 73.6592 417.172 72.8213 415.273 72.8213C413.703 72.8213 412.455 73.4482 411.529 74.7021C410.604 75.9443 410.141 77.7842 410.141 80.2217Z" fill="white"/>
<path d="M439.883 87.6396C438.617 89.1279 436.76 89.8721 434.311 89.8721C432.283 89.8721 430.736 89.2861 429.67 88.1143C428.615 86.9307 428.082 85.1846 428.07 82.876V70.501H431.322V82.7881C431.322 85.6709 432.494 87.1123 434.838 87.1123C437.322 87.1123 438.975 86.1865 439.795 84.335V70.501H443.047V89.5205H439.953L439.883 87.6396Z" fill="white"/>
<path d="M451.537 89.5205H448.285V70.501H451.537V89.5205ZM448.021 65.4561C448.021 64.9287 448.18 64.4834 448.496 64.1201C448.824 63.7568 449.305 63.5752 449.938 63.5752C450.57 63.5752 451.051 63.7568 451.379 64.1201C451.707 64.4834 451.871 64.9287 451.871 65.4561C451.871 65.9834 451.707 66.4229 451.379 66.7744C451.051 67.126 450.57 67.3018 449.938 67.3018C449.305 67.3018 448.824 67.126 448.496 66.7744C448.18 66.4229 448.021 65.9834 448.021 65.4561Z" fill="white"/>
<path d="M461.17 65.8955V70.501H464.721V73.0146H461.17V84.8096C461.17 85.5713 461.328 86.1455 461.645 86.5322C461.961 86.9072 462.5 87.0947 463.262 87.0947C463.637 87.0947 464.152 87.0244 464.809 86.8838V89.5205C463.953 89.7549 463.121 89.8721 462.312 89.8721C460.859 89.8721 459.764 89.4326 459.025 88.5537C458.287 87.6748 457.918 86.4268 457.918 84.8096V73.0146H454.455V70.501H457.918V65.8955H461.17Z" fill="white"/>
<path d="M480.277 89.5205C480.09 89.1455 479.938 88.4775 479.82 87.5166C478.309 89.0869 476.504 89.8721 474.406 89.8721C472.531 89.8721 470.99 89.3447 469.783 88.29C468.588 87.2236 467.99 85.876 467.99 84.2471C467.99 82.2666 468.74 80.7314 470.24 79.6416C471.752 78.54 473.873 77.9893 476.604 77.9893H479.768V76.4951C479.768 75.3584 479.428 74.4561 478.748 73.7881C478.068 73.1084 477.066 72.7686 475.742 72.7686C474.582 72.7686 473.609 73.0615 472.824 73.6475C472.039 74.2334 471.646 74.9424 471.646 75.7744H468.377C468.377 74.8252 468.711 73.9111 469.379 73.0322C470.059 72.1416 470.973 71.4385 472.121 70.9229C473.281 70.4072 474.553 70.1494 475.936 70.1494C478.127 70.1494 479.844 70.7002 481.086 71.8018C482.328 72.8916 482.973 74.3975 483.02 76.3193V85.0732C483.02 86.8193 483.242 88.208 483.688 89.2393V89.5205H480.277ZM474.881 87.042C475.9 87.042 476.867 86.7783 477.781 86.251C478.695 85.7236 479.357 85.0381 479.768 84.1943V80.292H477.219C473.234 80.292 471.242 81.458 471.242 83.79C471.242 84.8096 471.582 85.6064 472.262 86.1807C472.941 86.7549 473.814 87.042 474.881 87.042Z" fill="white"/>
<path d="M497.311 73.4189C496.818 73.3369 496.285 73.2959 495.711 73.2959C493.578 73.2959 492.131 74.2041 491.369 76.0205V89.5205H488.117V70.501H491.281L491.334 72.6982C492.4 70.999 493.912 70.1494 495.869 70.1494C496.502 70.1494 496.982 70.2314 497.311 70.3955V73.4189Z" fill="white"/>
<path d="M498.031 94.6182L496.186 93.3525C497.287 91.8174 497.861 90.2354 497.908 88.6064V85.6709H501.09V88.2197C501.09 89.4033 500.797 90.5869 500.211 91.7705C499.637 92.9541 498.91 93.9033 498.031 94.6182Z" fill="white"/>
<path d="M521.762 87.2178C522.922 87.2178 523.936 86.8662 524.803 86.1631C525.67 85.46 526.15 84.5811 526.244 83.5264H529.32C529.262 84.6162 528.887 85.6533 528.195 86.6377C527.504 87.6221 526.578 88.4072 525.418 88.9932C524.27 89.5791 523.051 89.8721 521.762 89.8721C519.172 89.8721 517.109 89.0107 515.574 87.2881C514.051 85.5537 513.289 83.1865 513.289 80.1865V79.6416C513.289 77.79 513.629 76.1436 514.309 74.7021C514.988 73.2607 515.961 72.1416 517.227 71.3447C518.504 70.5479 520.01 70.1494 521.744 70.1494C523.877 70.1494 525.646 70.7881 527.053 72.0654C528.471 73.3428 529.227 75.001 529.32 77.04H526.244C526.15 75.8096 525.682 74.8018 524.838 74.0166C524.006 73.2197 522.975 72.8213 521.744 72.8213C520.092 72.8213 518.809 73.4189 517.895 74.6143C516.992 75.7979 516.541 77.5146 516.541 79.7646V80.3799C516.541 82.5713 516.992 84.2588 517.895 85.4424C518.797 86.626 520.086 87.2178 521.762 87.2178Z" fill="white"/>
<path d="M532.115 79.835C532.115 77.9717 532.479 76.2959 533.205 74.8076C533.943 73.3193 534.963 72.1709 536.264 71.3623C537.576 70.5537 539.07 70.1494 540.746 70.1494C543.336 70.1494 545.428 71.0459 547.021 72.8389C548.627 74.6318 549.43 77.0166 549.43 79.9932V80.2217C549.43 82.0732 549.072 83.7373 548.357 85.2139C547.654 86.6787 546.641 87.8213 545.316 88.6416C544.004 89.4619 542.492 89.8721 540.781 89.8721C538.203 89.8721 536.111 88.9756 534.506 87.1826C532.912 85.3896 532.115 83.0166 532.115 80.0635V79.835ZM535.385 80.2217C535.385 82.3311 535.871 84.0244 536.844 85.3018C537.828 86.5791 539.141 87.2178 540.781 87.2178C542.434 87.2178 543.746 86.5732 544.719 85.2842C545.691 83.9834 546.178 82.167 546.178 79.835C546.178 77.749 545.68 76.0615 544.684 74.7725C543.699 73.4717 542.387 72.8213 540.746 72.8213C539.141 72.8213 537.846 73.46 536.861 74.7373C535.877 76.0146 535.385 77.8428 535.385 80.2217Z" fill="white"/>
<path d="M556.566 70.501L556.654 72.6104C558.049 70.9697 559.93 70.1494 562.297 70.1494C564.957 70.1494 566.768 71.1689 567.729 73.208C568.361 72.2939 569.182 71.5557 570.189 70.9932C571.209 70.4307 572.41 70.1494 573.793 70.1494C577.965 70.1494 580.086 72.3584 580.156 76.7764V89.5205H576.904V76.9697C576.904 75.6104 576.594 74.5967 575.973 73.9287C575.352 73.249 574.309 72.9092 572.844 72.9092C571.637 72.9092 570.635 73.2725 569.838 73.999C569.041 74.7139 568.578 75.6807 568.449 76.8994V89.5205H565.18V77.0576C565.18 74.292 563.826 72.9092 561.119 72.9092C558.986 72.9092 557.527 73.8174 556.742 75.6338V89.5205H553.49V70.501H556.566Z" fill="white"/>
<path d="M584.217 79.835C584.217 77.9717 584.58 76.2959 585.307 74.8076C586.045 73.3193 587.064 72.1709 588.365 71.3623C589.678 70.5537 591.172 70.1494 592.848 70.1494C595.438 70.1494 597.529 71.0459 599.123 72.8389C600.729 74.6318 601.531 77.0166 601.531 79.9932V80.2217C601.531 82.0732 601.174 83.7373 600.459 85.2139C599.756 86.6787 598.742 87.8213 597.418 88.6416C596.105 89.4619 594.594 89.8721 592.883 89.8721C590.305 89.8721 588.213 88.9756 586.607 87.1826C585.014 85.3896 584.217 83.0166 584.217 80.0635V79.835ZM587.486 80.2217C587.486 82.3311 587.973 84.0244 588.945 85.3018C589.93 86.5791 591.242 87.2178 592.883 87.2178C594.535 87.2178 595.848 86.5732 596.82 85.2842C597.793 83.9834 598.279 82.167 598.279 79.835C598.279 77.749 597.781 76.0615 596.785 74.7725C595.801 73.4717 594.488 72.8213 592.848 72.8213C591.242 72.8213 589.947 73.46 588.963 74.7373C587.979 76.0146 587.486 77.8428 587.486 80.2217Z" fill="white"/>
<path d="M617.598 70.501L617.686 72.6104C619.08 70.9697 620.961 70.1494 623.328 70.1494C625.988 70.1494 627.799 71.1689 628.76 73.208C629.393 72.2939 630.213 71.5557 631.221 70.9932C632.24 70.4307 633.441 70.1494 634.824 70.1494C638.996 70.1494 641.117 72.3584 641.188 76.7764V89.5205H637.936V76.9697C637.936 75.6104 637.625 74.5967 637.004 73.9287C636.383 73.249 635.34 72.9092 633.875 72.9092C632.668 72.9092 631.666 73.2725 630.869 73.999C630.072 74.7139 629.609 75.6807 629.48 76.8994V89.5205H626.211V77.0576C626.211 74.292 624.857 72.9092 622.15 72.9092C620.018 72.9092 618.559 73.8174 617.773 75.6338V89.5205H614.521V70.501H617.598Z" fill="white"/>
<path d="M649.643 89.5205H646.373V70.501H649.643V89.5205ZM649.678 62.5381H653.615L648.904 67.7061H646.285L649.678 62.5381Z" fill="white"/>
<path d="M658.08 70.501L658.186 72.8916C659.639 71.0635 661.537 70.1494 663.881 70.1494C667.9 70.1494 669.928 72.417 669.963 76.9521V89.5205H666.711V76.9346C666.699 75.5635 666.383 74.5498 665.762 73.8936C665.152 73.2373 664.197 72.9092 662.896 72.9092C661.842 72.9092 660.916 73.1904 660.119 73.7529C659.322 74.3154 658.701 75.0537 658.256 75.9678V89.5205H655.004V70.501H658.08Z" fill="white"/>
<path d="M678.4 89.5205H675.148V70.501H678.4V89.5205ZM674.885 65.4561C674.885 64.9287 675.043 64.4834 675.359 64.1201C675.688 63.7568 676.168 63.5752 676.801 63.5752C677.434 63.5752 677.914 63.7568 678.242 64.1201C678.57 64.4834 678.734 64.9287 678.734 65.4561C678.734 65.9834 678.57 66.4229 678.242 66.7744C677.914 67.126 677.434 67.3018 676.801 67.3018C676.168 67.3018 675.688 67.126 675.359 66.7744C675.043 66.4229 674.885 65.9834 674.885 65.4561Z" fill="white"/>
<path d="M686.68 70.501L686.768 72.6104C688.162 70.9697 690.043 70.1494 692.41 70.1494C695.07 70.1494 696.881 71.1689 697.842 73.208C698.475 72.2939 699.295 71.5557 700.303 70.9932C701.322 70.4307 702.523 70.1494 703.906 70.1494C708.078 70.1494 710.199 72.3584 710.27 76.7764V89.5205H707.018V76.9697C707.018 75.6104 706.707 74.5967 706.086 73.9287C705.465 73.249 704.422 72.9092 702.957 72.9092C701.75 72.9092 700.748 73.2725 699.951 73.999C699.154 74.7139 698.691 75.6807 698.562 76.8994V89.5205H695.293V77.0576C695.293 74.292 693.939 72.9092 691.232 72.9092C689.1 72.9092 687.641 73.8174 686.855 75.6338V89.5205H683.604V70.501H686.68Z" fill="white"/>
<path d="M714.33 79.835C714.33 77.9717 714.693 76.2959 715.42 74.8076C716.158 73.3193 717.178 72.1709 718.479 71.3623C719.791 70.5537 721.285 70.1494 722.961 70.1494C725.551 70.1494 727.643 71.0459 729.236 72.8389C730.842 74.6318 731.645 77.0166 731.645 79.9932V80.2217C731.645 82.0732 731.287 83.7373 730.572 85.2139C729.869 86.6787 728.855 87.8213 727.531 88.6416C726.219 89.4619 724.707 89.8721 722.996 89.8721C720.418 89.8721 718.326 88.9756 716.721 87.1826C715.127 85.3896 714.33 83.0166 714.33 80.0635V79.835ZM717.6 80.2217C717.6 82.3311 718.086 84.0244 719.059 85.3018C720.043 86.5791 721.355 87.2178 722.996 87.2178C724.648 87.2178 725.961 86.5732 726.934 85.2842C727.906 83.9834 728.393 82.167 728.393 79.835C728.393 77.749 727.895 76.0615 726.898 74.7725C725.914 73.4717 724.602 72.8213 722.961 72.8213C721.355 72.8213 720.061 73.46 719.076 74.7373C718.092 76.0146 717.6 77.8428 717.6 80.2217Z" fill="white"/>
<path d="M735.617 94.6182L733.771 93.3525C734.873 91.8174 735.447 90.2354 735.494 88.6064V85.6709H738.676V88.2197C738.676 89.4033 738.383 90.5869 737.797 91.7705C737.223 92.9541 736.496 93.9033 735.617 94.6182Z" fill="white"/>
<path d="M41.5273 122.222C41.5273 125.116 40.8652 127.448 39.541 129.218C38.2168 130.987 36.4238 131.872 34.1621 131.872C31.8535 131.872 30.0371 131.14 28.7129 129.675V138.833H25.4609V112.501H28.4316L28.5898 114.61C29.9141 112.97 31.7539 112.149 34.1094 112.149C36.3945 112.149 38.1992 113.011 39.5234 114.733C40.8594 116.456 41.5273 118.853 41.5273 121.923V122.222ZM38.2754 121.853C38.2754 119.708 37.8184 118.015 36.9043 116.772C35.9902 115.53 34.7363 114.909 33.1426 114.909C31.1738 114.909 29.6973 115.782 28.7129 117.528V126.616C29.6855 128.351 31.1738 129.218 33.1777 129.218C34.7363 129.218 35.9727 128.603 36.8867 127.372C37.8125 126.13 38.2754 124.29 38.2754 121.853Z" fill="white"/>
<path d="M57.418 131.521C57.2305 131.146 57.0781 130.478 56.9609 129.517C55.4492 131.087 53.6445 131.872 51.5469 131.872C49.6719 131.872 48.1309 131.345 46.9238 130.29C45.7285 129.224 45.1309 127.876 45.1309 126.247C45.1309 124.267 45.8809 122.731 47.3809 121.642C48.8926 120.54 51.0137 119.989 53.7441 119.989H56.9082V118.495C56.9082 117.358 56.5684 116.456 55.8887 115.788C55.209 115.108 54.207 114.769 52.8828 114.769C51.7227 114.769 50.75 115.062 49.9648 115.647C49.1797 116.233 48.7871 116.942 48.7871 117.774H45.5176C45.5176 116.825 45.8516 115.911 46.5195 115.032C47.1992 114.142 48.1133 113.438 49.2617 112.923C50.4219 112.407 51.6934 112.149 53.0762 112.149C55.2676 112.149 56.9844 112.7 58.2266 113.802C59.4688 114.892 60.1133 116.397 60.1602 118.319V127.073C60.1602 128.819 60.3828 130.208 60.8281 131.239V131.521H57.418ZM52.0215 129.042C53.041 129.042 54.0078 128.778 54.9219 128.251C55.8359 127.724 56.498 127.038 56.9082 126.194V122.292H54.3594C50.375 122.292 48.3828 123.458 48.3828 125.79C48.3828 126.81 48.7227 127.606 49.4023 128.181C50.082 128.755 50.9551 129.042 52.0215 129.042Z" fill="white"/>
<path d="M74.4512 115.419C73.959 115.337 73.4258 115.296 72.8516 115.296C70.7188 115.296 69.2715 116.204 68.5098 118.021V131.521H65.2578V112.501H68.4219L68.4746 114.698C69.541 112.999 71.0527 112.149 73.0098 112.149C73.6426 112.149 74.123 112.231 74.4512 112.396V115.419Z" fill="white"/>
<path d="M88.4961 131.521C88.3086 131.146 88.1562 130.478 88.0391 129.517C86.5273 131.087 84.7227 131.872 82.625 131.872C80.75 131.872 79.209 131.345 78.002 130.29C76.8066 129.224 76.209 127.876 76.209 126.247C76.209 124.267 76.959 122.731 78.459 121.642C79.9707 120.54 82.0918 119.989 84.8223 119.989H87.9863V118.495C87.9863 117.358 87.6465 116.456 86.9668 115.788C86.2871 115.108 85.2852 114.769 83.9609 114.769C82.8008 114.769 81.8281 115.062 81.043 115.647C80.2578 116.233 79.8652 116.942 79.8652 117.774H76.5957C76.5957 116.825 76.9297 115.911 77.5977 115.032C78.2773 114.142 79.1914 113.438 80.3398 112.923C81.5 112.407 82.7715 112.149 84.1543 112.149C86.3457 112.149 88.0625 112.7 89.3047 113.802C90.5469 114.892 91.1914 116.397 91.2383 118.319V127.073C91.2383 128.819 91.4609 130.208 91.9062 131.239V131.521H88.4961ZM83.0996 129.042C84.1191 129.042 85.0859 128.778 86 128.251C86.9141 127.724 87.5762 127.038 87.9863 126.194V122.292H85.4375C81.4531 122.292 79.4609 123.458 79.4609 125.79C79.4609 126.81 79.8008 127.606 80.4805 128.181C81.1602 128.755 82.0332 129.042 83.0996 129.042Z" fill="white"/>
<path d="M104.404 121.835C104.404 119.972 104.768 118.296 105.494 116.808C106.232 115.319 107.252 114.171 108.553 113.362C109.865 112.554 111.359 112.149 113.035 112.149C115.625 112.149 117.717 113.046 119.311 114.839C120.916 116.632 121.719 119.017 121.719 121.993V122.222C121.719 124.073 121.361 125.737 120.646 127.214C119.943 128.679 118.93 129.821 117.605 130.642C116.293 131.462 114.781 131.872 113.07 131.872C110.492 131.872 108.4 130.976 106.795 129.183C105.201 127.39 104.404 125.017 104.404 122.063V121.835ZM107.674 122.222C107.674 124.331 108.16 126.024 109.133 127.302C110.117 128.579 111.43 129.218 113.07 129.218C114.723 129.218 116.035 128.573 117.008 127.284C117.98 125.983 118.467 124.167 118.467 121.835C118.467 119.749 117.969 118.062 116.973 116.772C115.988 115.472 114.676 114.821 113.035 114.821C111.43 114.821 110.135 115.46 109.15 116.737C108.166 118.015 107.674 119.843 107.674 122.222Z" fill="white"/>
<path d="M141.898 122.222C141.898 125.128 141.23 127.466 139.895 129.235C138.559 130.993 136.766 131.872 134.516 131.872C132.113 131.872 130.256 131.022 128.943 129.323L128.785 131.521H125.797V104.521H129.049V114.593C130.361 112.964 132.172 112.149 134.48 112.149C136.789 112.149 138.6 113.022 139.912 114.769C141.236 116.515 141.898 118.905 141.898 121.94V122.222ZM138.646 121.853C138.646 119.638 138.219 117.927 137.363 116.72C136.508 115.513 135.277 114.909 133.672 114.909C131.527 114.909 129.986 115.905 129.049 117.897V126.124C130.045 128.116 131.598 129.112 133.707 129.112C135.266 129.112 136.479 128.509 137.346 127.302C138.213 126.095 138.646 124.278 138.646 121.853Z" fill="white"/>
<path d="M150.424 107.896V112.501H153.975V115.015H150.424V126.81C150.424 127.571 150.582 128.146 150.898 128.532C151.215 128.907 151.754 129.095 152.516 129.095C152.891 129.095 153.406 129.024 154.062 128.884V131.521C153.207 131.755 152.375 131.872 151.566 131.872C150.113 131.872 149.018 131.433 148.279 130.554C147.541 129.675 147.172 128.427 147.172 126.81V115.015H143.709V112.501H147.172V107.896H150.424Z" fill="white"/>
<path d="M165.682 131.872C163.104 131.872 161.006 131.028 159.389 129.341C157.771 127.642 156.963 125.374 156.963 122.538V121.94C156.963 120.054 157.32 118.372 158.035 116.896C158.762 115.407 159.77 114.247 161.059 113.415C162.359 112.571 163.766 112.149 165.277 112.149C167.75 112.149 169.672 112.964 171.043 114.593C172.414 116.222 173.1 118.554 173.1 121.589V122.942H160.215C160.262 124.817 160.807 126.335 161.85 127.495C162.904 128.644 164.24 129.218 165.857 129.218C167.006 129.218 167.979 128.983 168.775 128.515C169.572 128.046 170.27 127.425 170.867 126.651L172.854 128.198C171.26 130.647 168.869 131.872 165.682 131.872ZM165.277 114.821C163.965 114.821 162.863 115.302 161.973 116.263C161.082 117.212 160.531 118.548 160.32 120.271H169.848V120.024C169.754 118.372 169.309 117.095 168.512 116.192C167.715 115.278 166.637 114.821 165.277 114.821Z" fill="white"/>
<path d="M179.955 112.501L180.061 114.892C181.514 113.063 183.412 112.149 185.756 112.149C189.775 112.149 191.803 114.417 191.838 118.952V131.521H188.586V118.935C188.574 117.563 188.258 116.55 187.637 115.894C187.027 115.237 186.072 114.909 184.771 114.909C183.717 114.909 182.791 115.19 181.994 115.753C181.197 116.315 180.576 117.054 180.131 117.968V131.521H176.879V112.501H179.955Z" fill="white"/>
<path d="M204.635 131.872C202.057 131.872 199.959 131.028 198.342 129.341C196.725 127.642 195.916 125.374 195.916 122.538V121.94C195.916 120.054 196.273 118.372 196.988 116.896C197.715 115.407 198.723 114.247 200.012 113.415C201.312 112.571 202.719 112.149 204.23 112.149C206.703 112.149 208.625 112.964 209.996 114.593C211.367 116.222 212.053 118.554 212.053 121.589V122.942H199.168C199.215 124.817 199.76 126.335 200.803 127.495C201.857 128.644 203.193 129.218 204.811 129.218C205.959 129.218 206.932 128.983 207.729 128.515C208.525 128.046 209.223 127.425 209.82 126.651L211.807 128.198C210.213 130.647 207.822 131.872 204.635 131.872ZM204.23 114.821C202.918 114.821 201.816 115.302 200.926 116.263C200.035 117.212 199.484 118.548 199.273 120.271H208.801V120.024C208.707 118.372 208.262 117.095 207.465 116.192C206.668 115.278 205.59 114.821 204.23 114.821Z" fill="white"/>
<path d="M225.025 115.419C224.533 115.337 224 115.296 223.426 115.296C221.293 115.296 219.846 116.204 219.084 118.021V131.521H215.832V112.501H218.996L219.049 114.698C220.115 112.999 221.627 112.149 223.584 112.149C224.217 112.149 224.697 112.231 225.025 112.396V115.419Z" fill="white"/>
<path d="M248.035 126.476C248.035 125.597 247.701 124.917 247.033 124.437C246.377 123.944 245.223 123.522 243.57 123.171C241.93 122.819 240.623 122.397 239.65 121.905C238.689 121.413 237.975 120.827 237.506 120.147C237.049 119.468 236.82 118.659 236.82 117.722C236.82 116.163 237.477 114.845 238.789 113.767C240.113 112.688 241.801 112.149 243.852 112.149C246.008 112.149 247.754 112.706 249.09 113.819C250.438 114.933 251.111 116.356 251.111 118.091H247.842C247.842 117.2 247.461 116.433 246.699 115.788C245.949 115.144 245 114.821 243.852 114.821C242.668 114.821 241.742 115.079 241.074 115.595C240.406 116.11 240.072 116.784 240.072 117.616C240.072 118.401 240.383 118.993 241.004 119.392C241.625 119.79 242.744 120.171 244.361 120.534C245.99 120.897 247.309 121.331 248.316 121.835C249.324 122.339 250.068 122.948 250.549 123.663C251.041 124.366 251.287 125.228 251.287 126.247C251.287 127.946 250.607 129.312 249.248 130.343C247.889 131.362 246.125 131.872 243.957 131.872C242.434 131.872 241.086 131.603 239.914 131.063C238.742 130.524 237.822 129.774 237.154 128.813C236.498 127.841 236.17 126.792 236.17 125.667H239.422C239.48 126.757 239.914 127.624 240.723 128.269C241.543 128.901 242.621 129.218 243.957 129.218C245.188 129.218 246.172 128.972 246.91 128.479C247.66 127.976 248.035 127.308 248.035 126.476Z" fill="white"/>
<path d="M254.662 121.835C254.662 119.972 255.025 118.296 255.752 116.808C256.49 115.319 257.51 114.171 258.811 113.362C260.123 112.554 261.617 112.149 263.293 112.149C265.883 112.149 267.975 113.046 269.568 114.839C271.174 116.632 271.977 119.017 271.977 121.993V122.222C271.977 124.073 271.619 125.737 270.904 127.214C270.201 128.679 269.188 129.821 267.863 130.642C266.551 131.462 265.039 131.872 263.328 131.872C260.75 131.872 258.658 130.976 257.053 129.183C255.459 127.39 254.662 125.017 254.662 122.063V121.835ZM257.932 122.222C257.932 124.331 258.418 126.024 259.391 127.302C260.375 128.579 261.688 129.218 263.328 129.218C264.98 129.218 266.293 128.573 267.266 127.284C268.238 125.983 268.725 124.167 268.725 121.835C268.725 119.749 268.227 118.062 267.23 116.772C266.246 115.472 264.934 114.821 263.293 114.821C261.688 114.821 260.393 115.46 259.408 116.737C258.424 118.015 257.932 119.843 257.932 122.222Z" fill="white"/>
<path d="M279.588 131.521H276.336V104.521H279.588V131.521Z" fill="white"/>
<path d="M283.947 121.835C283.947 119.972 284.311 118.296 285.037 116.808C285.775 115.319 286.795 114.171 288.096 113.362C289.408 112.554 290.902 112.149 292.578 112.149C295.168 112.149 297.26 113.046 298.854 114.839C300.459 116.632 301.262 119.017 301.262 121.993V122.222C301.262 124.073 300.904 125.737 300.189 127.214C299.486 128.679 298.473 129.821 297.148 130.642C295.836 131.462 294.324 131.872 292.613 131.872C290.035 131.872 287.943 130.976 286.338 129.183C284.744 127.39 283.947 125.017 283.947 122.063V121.835ZM287.217 122.222C287.217 124.331 287.703 126.024 288.676 127.302C289.66 128.579 290.973 129.218 292.613 129.218C294.266 129.218 295.578 128.573 296.551 127.284C297.523 125.983 298.01 124.167 298.01 121.835C298.01 119.749 297.512 118.062 296.516 116.772C295.531 115.472 294.219 114.821 292.578 114.821C290.973 114.821 289.678 115.46 288.693 116.737C287.709 118.015 287.217 119.843 287.217 122.222Z" fill="white"/>
<path d="M318.664 117.142H321.107C322.643 117.118 323.85 116.714 324.729 115.929C325.607 115.144 326.047 114.083 326.047 112.747C326.047 109.747 324.553 108.247 321.564 108.247C320.158 108.247 319.033 108.651 318.189 109.46C317.357 110.257 316.941 111.317 316.941 112.642H313.689C313.689 110.614 314.428 108.933 315.904 107.597C317.393 106.249 319.279 105.575 321.564 105.575C323.979 105.575 325.871 106.214 327.242 107.491C328.613 108.769 329.299 110.544 329.299 112.817C329.299 113.931 328.936 115.009 328.209 116.052C327.494 117.095 326.516 117.874 325.273 118.39C326.68 118.835 327.764 119.573 328.525 120.604C329.299 121.636 329.686 122.896 329.686 124.384C329.686 126.681 328.936 128.503 327.436 129.851C325.936 131.198 323.984 131.872 321.582 131.872C319.18 131.872 317.223 131.222 315.711 129.921C314.211 128.62 313.461 126.903 313.461 124.771H316.73C316.73 126.118 317.17 127.196 318.049 128.005C318.928 128.813 320.105 129.218 321.582 129.218C323.152 129.218 324.354 128.808 325.186 127.987C326.018 127.167 326.434 125.989 326.434 124.454C326.434 122.966 325.977 121.823 325.062 121.026C324.148 120.229 322.83 119.819 321.107 119.796H318.664V117.142Z" fill="white"/>
<path d="M351.043 129.218C352.203 129.218 353.217 128.866 354.084 128.163C354.951 127.46 355.432 126.581 355.525 125.526H358.602C358.543 126.616 358.168 127.653 357.477 128.638C356.785 129.622 355.859 130.407 354.699 130.993C353.551 131.579 352.332 131.872 351.043 131.872C348.453 131.872 346.391 131.011 344.855 129.288C343.332 127.554 342.57 125.187 342.57 122.187V121.642C342.57 119.79 342.91 118.144 343.59 116.702C344.27 115.261 345.242 114.142 346.508 113.345C347.785 112.548 349.291 112.149 351.025 112.149C353.158 112.149 354.928 112.788 356.334 114.065C357.752 115.343 358.508 117.001 358.602 119.04H355.525C355.432 117.81 354.963 116.802 354.119 116.017C353.287 115.22 352.256 114.821 351.025 114.821C349.373 114.821 348.09 115.419 347.176 116.614C346.273 117.798 345.822 119.515 345.822 121.765V122.38C345.822 124.571 346.273 126.259 347.176 127.442C348.078 128.626 349.367 129.218 351.043 129.218Z" fill="white"/>
<path d="M374 129.64C372.734 131.128 370.877 131.872 368.428 131.872C366.4 131.872 364.854 131.286 363.787 130.114C362.732 128.931 362.199 127.185 362.188 124.876V112.501H365.439V124.788C365.439 127.671 366.611 129.112 368.955 129.112C371.439 129.112 373.092 128.187 373.912 126.335V112.501H377.164V131.521H374.07L374 129.64Z" fill="white"/>
<path d="M393.863 131.521C393.676 131.146 393.523 130.478 393.406 129.517C391.895 131.087 390.09 131.872 387.992 131.872C386.117 131.872 384.576 131.345 383.369 130.29C382.174 129.224 381.576 127.876 381.576 126.247C381.576 124.267 382.326 122.731 383.826 121.642C385.338 120.54 387.459 119.989 390.189 119.989H393.354V118.495C393.354 117.358 393.014 116.456 392.334 115.788C391.654 115.108 390.652 114.769 389.328 114.769C388.168 114.769 387.195 115.062 386.41 115.647C385.625 116.233 385.232 116.942 385.232 117.774H381.963C381.963 116.825 382.297 115.911 382.965 115.032C383.645 114.142 384.559 113.438 385.707 112.923C386.867 112.407 388.139 112.149 389.521 112.149C391.713 112.149 393.43 112.7 394.672 113.802C395.914 114.892 396.559 116.397 396.605 118.319V127.073C396.605 128.819 396.828 130.208 397.273 131.239V131.521H393.863ZM388.467 129.042C389.486 129.042 390.453 128.778 391.367 128.251C392.281 127.724 392.943 127.038 393.354 126.194V122.292H390.805C386.82 122.292 384.828 123.458 384.828 125.79C384.828 126.81 385.168 127.606 385.848 128.181C386.527 128.755 387.4 129.042 388.467 129.042Z" fill="white"/>
<path d="M400.912 121.853C400.912 118.935 401.604 116.591 402.986 114.821C404.369 113.04 406.18 112.149 408.418 112.149C410.645 112.149 412.408 112.911 413.709 114.435V104.521H416.961V131.521H413.973L413.814 129.481C412.514 131.075 410.703 131.872 408.383 131.872C406.18 131.872 404.381 130.97 402.986 129.165C401.604 127.36 400.912 125.005 400.912 122.099V121.853ZM404.164 122.222C404.164 124.378 404.609 126.065 405.5 127.284C406.391 128.503 407.621 129.112 409.191 129.112C411.254 129.112 412.76 128.187 413.709 126.335V117.599C412.736 115.806 411.242 114.909 409.227 114.909C407.633 114.909 406.391 115.524 405.5 116.755C404.609 117.985 404.164 119.808 404.164 122.222Z" fill="white"/>
<path d="M431.217 115.419C430.725 115.337 430.191 115.296 429.617 115.296C427.484 115.296 426.037 116.204 425.275 118.021V131.521H422.023V112.501H425.188L425.24 114.698C426.307 112.999 427.818 112.149 429.775 112.149C430.408 112.149 430.889 112.231 431.217 112.396V115.419Z" fill="white"/>
<path d="M445.262 131.521C445.074 131.146 444.922 130.478 444.805 129.517C443.293 131.087 441.488 131.872 439.391 131.872C437.516 131.872 435.975 131.345 434.768 130.29C433.572 129.224 432.975 127.876 432.975 126.247C432.975 124.267 433.725 122.731 435.225 121.642C436.736 120.54 438.857 119.989 441.588 119.989H444.752V118.495C444.752 117.358 444.412 116.456 443.732 115.788C443.053 115.108 442.051 114.769 440.727 114.769C439.566 114.769 438.594 115.062 437.809 115.647C437.023 116.233 436.631 116.942 436.631 117.774H433.361C433.361 116.825 433.695 115.911 434.363 115.032C435.043 114.142 435.957 113.438 437.105 112.923C438.266 112.407 439.537 112.149 440.92 112.149C443.111 112.149 444.828 112.7 446.07 113.802C447.312 114.892 447.957 116.397 448.004 118.319V127.073C448.004 128.819 448.227 130.208 448.672 131.239V131.521H445.262ZM439.865 129.042C440.885 129.042 441.852 128.778 442.766 128.251C443.68 127.724 444.342 127.038 444.752 126.194V122.292H442.203C438.219 122.292 436.227 123.458 436.227 125.79C436.227 126.81 436.566 127.606 437.246 128.181C437.926 128.755 438.799 129.042 439.865 129.042Z" fill="white"/>
<path d="M452.311 121.853C452.311 118.935 453.002 116.591 454.385 114.821C455.768 113.04 457.578 112.149 459.816 112.149C462.043 112.149 463.807 112.911 465.107 114.435V104.521H468.359V131.521H465.371L465.213 129.481C463.912 131.075 462.102 131.872 459.781 131.872C457.578 131.872 455.779 130.97 454.385 129.165C453.002 127.36 452.311 125.005 452.311 122.099V121.853ZM455.562 122.222C455.562 124.378 456.008 126.065 456.898 127.284C457.789 128.503 459.02 129.112 460.59 129.112C462.652 129.112 464.158 128.187 465.107 126.335V117.599C464.135 115.806 462.641 114.909 460.625 114.909C459.031 114.909 457.789 115.524 456.898 116.755C456.008 117.985 455.562 119.808 455.562 122.222Z" fill="white"/>
<path d="M472.561 121.835C472.561 119.972 472.924 118.296 473.65 116.808C474.389 115.319 475.408 114.171 476.709 113.362C478.021 112.554 479.516 112.149 481.191 112.149C483.781 112.149 485.873 113.046 487.467 114.839C489.072 116.632 489.875 119.017 489.875 121.993V122.222C489.875 124.073 489.518 125.737 488.803 127.214C488.1 128.679 487.086 129.821 485.762 130.642C484.449 131.462 482.938 131.872 481.227 131.872C478.648 131.872 476.557 130.976 474.951 129.183C473.357 127.39 472.561 125.017 472.561 122.063V121.835ZM475.83 122.222C475.83 124.331 476.316 126.024 477.289 127.302C478.273 128.579 479.586 129.218 481.227 129.218C482.879 129.218 484.191 128.573 485.164 127.284C486.137 125.983 486.623 124.167 486.623 121.835C486.623 119.749 486.125 118.062 485.129 116.772C484.145 115.472 482.832 114.821 481.191 114.821C479.586 114.821 478.291 115.46 477.307 116.737C476.322 118.015 475.83 119.843 475.83 122.222Z" fill="white"/>
<path d="M505.027 126.476C505.027 125.597 504.693 124.917 504.025 124.437C503.369 123.944 502.215 123.522 500.562 123.171C498.922 122.819 497.615 122.397 496.643 121.905C495.682 121.413 494.967 120.827 494.498 120.147C494.041 119.468 493.812 118.659 493.812 117.722C493.812 116.163 494.469 114.845 495.781 113.767C497.105 112.688 498.793 112.149 500.844 112.149C503 112.149 504.746 112.706 506.082 113.819C507.43 114.933 508.104 116.356 508.104 118.091H504.834C504.834 117.2 504.453 116.433 503.691 115.788C502.941 115.144 501.992 114.821 500.844 114.821C499.66 114.821 498.734 115.079 498.066 115.595C497.398 116.11 497.064 116.784 497.064 117.616C497.064 118.401 497.375 118.993 497.996 119.392C498.617 119.79 499.736 120.171 501.354 120.534C502.982 120.897 504.301 121.331 505.309 121.835C506.316 122.339 507.061 122.948 507.541 123.663C508.033 124.366 508.279 125.228 508.279 126.247C508.279 127.946 507.6 129.312 506.24 130.343C504.881 131.362 503.117 131.872 500.949 131.872C499.426 131.872 498.078 131.603 496.906 131.063C495.734 130.524 494.814 129.774 494.146 128.813C493.49 127.841 493.162 126.792 493.162 125.667H496.414C496.473 126.757 496.906 127.624 497.715 128.269C498.535 128.901 499.613 129.218 500.949 129.218C502.18 129.218 503.164 128.972 503.902 128.479C504.652 127.976 505.027 127.308 505.027 126.476Z" fill="white"/>
<path d="M516.33 124.313C516.354 122.919 516.512 121.817 516.805 121.009C517.098 120.2 517.695 119.304 518.598 118.319L520.9 115.946C521.885 114.833 522.377 113.638 522.377 112.36C522.377 111.13 522.055 110.169 521.41 109.478C520.766 108.774 519.828 108.423 518.598 108.423C517.402 108.423 516.441 108.739 515.715 109.372C514.988 110.005 514.625 110.854 514.625 111.921H511.373C511.396 110.022 512.07 108.493 513.395 107.333C514.73 106.161 516.465 105.575 518.598 105.575C520.812 105.575 522.535 106.173 523.766 107.368C525.008 108.552 525.629 110.181 525.629 112.255C525.629 114.306 524.68 116.327 522.781 118.319L520.865 120.218C520.01 121.167 519.582 122.532 519.582 124.313H516.33ZM516.189 129.886C516.189 129.358 516.348 128.919 516.664 128.567C516.992 128.204 517.473 128.022 518.105 128.022C518.738 128.022 519.219 128.204 519.547 128.567C519.875 128.919 520.039 129.358 520.039 129.886C520.039 130.413 519.875 130.853 519.547 131.204C519.219 131.544 518.738 131.714 518.105 131.714C517.473 131.714 516.992 131.544 516.664 131.204C516.348 130.853 516.189 130.413 516.189 129.886Z" fill="white"/>
</g>
<g id="Group 1">
<g id="palito">
<path id="Line 2 (Stroke)" fill-rule="evenodd" clip-rule="evenodd" d="M368 462C366.619 462 365.5 461.02 365.5 459.81V376.598C365.5 375.389 366.619 374.409 368 374.409C369.381 374.409 370.5 375.389 370.5 376.598V459.81C370.5 461.02 369.381 462 368 462Z" fill="white"/>
<path id="Ellipse 1" d="M368 362C371.866 362 375 368.471 375 376.453C375 384.435 371.866 390.905 368 390.905C364.134 390.905 361 384.435 361 376.453C361 368.471 364.134 362 368 362Z" fill="#D40303"/>
</g>
<g id="palito_2">
<path id="Line 2 (Stroke)_2" fill-rule="evenodd" clip-rule="evenodd" d="M249 464C247.619 464 246.5 463.02 246.5 461.81V378.598C246.5 377.389 247.619 376.409 249 376.409C250.381 376.409 251.5 377.389 251.5 378.598V461.81C251.5 463.02 250.381 464 249 464Z" fill="white"/>
<path id="Ellipse 1_2" d="M249 364C252.866 364 256 370.471 256 378.453C256 386.435 252.866 392.905 249 392.905C245.134 392.905 242 386.435 242 378.453C242 370.471 245.134 364 249 364Z" fill="#D40303"/>
</g>
<g id="palito_3">
<path id="Line 2 (Stroke)_3" fill-rule="evenodd" clip-rule="evenodd" d="M245 348C243.619 348 242.5 347.02 242.5 345.81V262.598C242.5 261.389 243.619 260.409 245 260.409C246.381 260.409 247.5 261.389 247.5 262.598V345.81C247.5 347.02 246.381 348 245 348Z" fill="white"/>
<path id="Ellipse 1_3" d="M245 248C248.866 248 252 254.471 252 262.453C252 270.435 248.866 276.905 245 276.905C241.134 276.905 238 270.435 238 262.453C238 254.471 241.134 248 245 248Z" fill="#D40303"/>
</g>
<g id="palito_4">
<path id="Line 2 (Stroke)_4" fill-rule="evenodd" clip-rule="evenodd" d="M245 248C243.619 248 242.5 247.02 242.5 245.81V162.598C242.5 161.389 243.619 160.409 245 160.409C246.381 160.409 247.5 161.389 247.5 162.598V245.81C247.5 247.02 246.381 248 245 248Z" fill="white"/>
<path id="Ellipse 1_4" d="M245 148C248.866 148 252 154.471 252 162.453C252 170.435 248.866 176.905 245 176.905C241.134 176.905 238 170.435 238 162.453C238 154.471 241.134 148 245 148Z" fill="#D40303"/>
</g>
<g id="palito_5">
<path id="Line 2 (Stroke)_5" fill-rule="evenodd" clip-rule="evenodd" d="M368 355C366.619 355 365.5 354.02 365.5 352.81V269.598C365.5 268.389 366.619 267.409 368 267.409C369.381 267.409 370.5 268.389 370.5 269.598V352.81C370.5 354.02 369.381 355 368 355Z" fill="white"/>
<path id="Ellipse 1_5" d="M368 255C371.866 255 375 261.471 375 269.453C375 277.435 371.866 283.905 368 283.905C364.134 283.905 361 277.435 361 269.453C361 261.471 364.134 255 368 255Z" fill="#D40303"/>
</g>
<g id="palito_6">
<path id="Line 2 (Stroke)_6" fill-rule="evenodd" clip-rule="evenodd" d="M368 248C366.619 248 365.5 247.02 365.5 245.81V162.598C365.5 161.389 366.619 160.409 368 160.409C369.381 160.409 370.5 161.389 370.5 162.598V245.81C370.5 247.02 369.381 248 368 248Z" fill="white"/>
<path id="Ellipse 1_6" d="M368 148C371.866 148 375 154.471 375 162.453C375 170.435 371.866 176.905 368 176.905C364.134 176.905 361 170.435 361 162.453C361 154.471 364.134 148 368 148Z" fill="#D40303"/>
</g>
<g id="palito_7">
<path id="Line 2 (Stroke)_7" fill-rule="evenodd" clip-rule="evenodd" d="M256 255C256 253.619 256.98 252.5 258.19 252.5H341.402C342.611 252.5 343.591 253.619 343.591 255C343.591 256.381 342.611 257.5 341.402 257.5H258.19C256.98 257.5 256 256.381 256 255Z" fill="white"/>
<path id="Ellipse 1_7" d="M356 255C356 258.866 349.529 262 341.548 262C333.566 262 327.095 258.866 327.095 255C327.095 251.134 333.566 248 341.548 248C349.529 248 356 251.134 356 255Z" fill="#D40303"/>
</g>
<g id="palito_8">
<path id="Line 2 (Stroke)_8" fill-rule="evenodd" clip-rule="evenodd" d="M256 151C256 149.619 256.98 148.5 258.19 148.5H341.402C342.611 148.5 343.591 149.619 343.591 151C343.591 152.381 342.611 153.5 341.402 153.5H258.19C256.98 153.5 256 152.381 256 151Z" fill="white"/>
<path id="Ellipse 1_8" d="M356 151C356 154.866 349.529 158 341.548 158C333.566 158 327.095 154.866 327.095 151C327.095 147.134 333.566 144 341.548 144C349.529 144 356 147.134 356 151Z" fill="#D40303"/>
</g>
<g id="palito_9">
<path id="Line 2 (Stroke)_9" fill-rule="evenodd" clip-rule="evenodd" d="M496 146C496 144.619 496.98 143.5 498.19 143.5H581.402C582.611 143.5 583.591 144.619 583.591 146C583.591 147.381 582.611 148.5 581.402 148.5H498.19C496.98 148.5 496 147.381 496 146Z" fill="white"/>
<path id="Ellipse 1_9" d="M596 146C596 149.866 589.529 153 581.548 153C573.566 153 567.095 149.866 567.095 146C567.095 142.134 573.566 139 581.548 139C589.529 139 596 142.134 596 146Z" fill="#D40303"/>
</g>
<g id="palito_10">
<path id="Line 2 (Stroke)_10" fill-rule="evenodd" clip-rule="evenodd" d="M259 468C259 466.619 259.98 465.5 261.19 465.5H344.402C345.611 465.5 346.591 466.619 346.591 468C346.591 469.381 345.611 470.5 344.402 470.5H261.19C259.98 470.5 259 469.381 259 468Z" fill="white"/>
<path id="Ellipse 1_10" d="M359 468C359 471.866 352.529 475 344.548 475C336.566 475 330.095 471.866 330.095 468C330.095 464.134 336.566 461 344.548 461C352.529 461 359 464.134 359 468Z" fill="#D40303"/>
</g>
<g id="palito_11">
<path id="Line 2 (Stroke)_11" fill-rule="evenodd" clip-rule="evenodd" d="M256 357C256 355.619 256.98 354.5 258.19 354.5H341.402C342.611 354.5 343.591 355.619 343.591 357C343.591 358.381 342.611 359.5 341.402 359.5H258.19C256.98 359.5 256 358.381 256 357Z" fill="white"/>
<path id="Ellipse 1_11" d="M356 357C356 360.866 349.529 364 341.548 364C333.566 364 327.095 360.866 327.095 357C327.095 353.134 333.566 350 341.548 350C349.529 350 356 353.134 356 357Z" fill="#D40303"/>
</g>
<g id="palito_12">
<path id="Line 2 (Stroke)_12" fill-rule="evenodd" clip-rule="evenodd" d="M381 357C381 355.619 381.98 354.5 383.19 354.5H466.402C467.611 354.5 468.591 355.619 468.591 357C468.591 358.381 467.611 359.5 466.402 359.5H383.19C381.98 359.5 381 358.381 381 357Z" fill="white"/>
<path id="Ellipse 1_12" d="M481 357C481 360.866 474.529 364 466.548 364C458.566 364 452.095 360.866 452.095 357C452.095 353.134 458.566 350 466.548 350C474.529 350 481 353.134 481 357Z" fill="#D40303"/>
</g>
<g id="palito_13">
<path id="Line 2 (Stroke)_13" fill-rule="evenodd" clip-rule="evenodd" d="M484 468C482.619 468 481.5 467.02 481.5 465.81V382.598C481.5 381.389 482.619 380.409 484 380.409C485.381 380.409 486.5 381.389 486.5 382.598V465.81C486.5 467.02 485.381 468 484 468Z" fill="white"/>
<path id="Ellipse 1_13" d="M484 368C487.866 368 491 374.471 491 382.453C491 390.435 487.866 396.905 484 396.905C480.134 396.905 477 390.435 477 382.453C477 374.471 480.134 368 484 368Z" fill="#D40303"/>
</g>
<g id="palito_14">
<path id="Line 2 (Stroke)_14" fill-rule="evenodd" clip-rule="evenodd" d="M602 466C600.619 466 599.5 465.02 599.5 463.81V380.598C599.5 379.389 600.619 378.409 602 378.409C603.381 378.409 604.5 379.389 604.5 380.598V463.81C604.5 465.02 603.381 466 602 466Z" fill="white"/>
<path id="Ellipse 1_14" d="M602 366C605.866 366 609 372.471 609 380.453C609 388.435 605.866 394.905 602 394.905C598.134 394.905 595 388.435 595 380.453C595 372.471 598.134 366 602 366Z" fill="#D40303"/>
</g>
<g id="palito_15">
<path id="Line 2 (Stroke)_15" fill-rule="evenodd" clip-rule="evenodd" d="M602 357C600.619 357 599.5 356.02 599.5 354.81V271.598C599.5 270.389 600.619 269.409 602 269.409C603.381 269.409 604.5 270.389 604.5 271.598V354.81C604.5 356.02 603.381 357 602 357Z" fill="white"/>
<path id="Ellipse 1_15" d="M602 257C605.866 257 609 263.471 609 271.453C609 279.435 605.866 285.905 602 285.905C598.134 285.905 595 279.435 595 271.453C595 263.471 598.134 257 602 257Z" fill="#D40303"/>
</g>
<g id="palito_16">
<path id="Line 2 (Stroke)_16" fill-rule="evenodd" clip-rule="evenodd" d="M604 250C602.619 250 601.5 249.02 601.5 247.81V164.598C601.5 163.389 602.619 162.409 604 162.409C605.381 162.409 606.5 163.389 606.5 164.598V247.81C606.5 249.02 605.381 250 604 250Z" fill="white"/>
<path id="Ellipse 1_16" d="M604 150C607.866 150 611 156.471 611 164.453C611 172.435 607.866 178.905 604 178.905C600.134 178.905 597 172.435 597 164.453C597 156.471 600.134 150 604 150Z" fill="#D40303"/>
</g>
<g id="palito_17">
<path id="Line 2 (Stroke)_17" fill-rule="evenodd" clip-rule="evenodd" d="M484 354C482.619 354 481.5 353.02 481.5 351.81V268.598C481.5 267.389 482.619 266.409 484 266.409C485.381 266.409 486.5 267.389 486.5 268.598V351.81C486.5 353.02 485.381 354 484 354Z" fill="white"/>
<path id="Ellipse 1_17" d="M484 254C487.866 254 491 260.471 491 268.453C491 276.435 487.866 282.905 484 282.905C480.134 282.905 477 276.435 477 268.453C477 260.471 480.134 254 484 254Z" fill="#D40303"/>
</g>
<g id="palito_18">
<path id="Line 2 (Stroke)_18" fill-rule="evenodd" clip-rule="evenodd" d="M484 248C482.619 248 481.5 247.02 481.5 245.81V162.598C481.5 161.389 482.619 160.409 484 160.409C485.381 160.409 486.5 161.389 486.5 162.598V245.81C486.5 247.02 485.381 248 484 248Z" fill="white"/>
<path id="Ellipse 1_18" d="M484 148C487.866 148 491 154.471 491 162.453C491 170.435 487.866 176.905 484 176.905C480.134 176.905 477 170.435 477 162.453C477 154.471 480.134 148 484 148Z" fill="#D40303"/>
</g>
<g id="palito_19">
<path id="Line 2 (Stroke)_19" fill-rule="evenodd" clip-rule="evenodd" d="M496 255C496 253.619 496.98 252.5 498.19 252.5H581.402C582.611 252.5 583.591 253.619 583.591 255C583.591 256.381 582.611 257.5 581.402 257.5H498.19C496.98 257.5 496 256.381 496 255Z" fill="white"/>
<path id="Ellipse 1_19" d="M596 255C596 258.866 589.529 262 581.548 262C573.566 262 567.095 258.866 567.095 255C567.095 251.134 573.566 248 581.548 248C589.529 248 596 251.134 596 255Z" fill="#D40303"/>
</g>
<g id="palito_20">
<path id="Line 2 (Stroke)_20" fill-rule="evenodd" clip-rule="evenodd" d="M381 469C381 467.619 381.98 466.5 383.19 466.5H466.402C467.611 466.5 468.591 467.619 468.591 469C468.591 470.381 467.611 471.5 466.402 471.5H383.19C381.98 471.5 381 470.381 381 469Z" fill="white"/>
<path id="Ellipse 1_20" d="M481 469C481 472.866 474.529 476 466.548 476C458.566 476 452.095 472.866 452.095 469C452.095 465.134 458.566 462 466.548 462C474.529 462 481 465.134 481 469Z" fill="#D40303"/>
</g>
<g id="palito_21">
<path id="Line 2 (Stroke)_21" fill-rule="evenodd" clip-rule="evenodd" d="M493 469C493 467.619 493.98 466.5 495.19 466.5H578.402C579.611 466.5 580.591 467.619 580.591 469C580.591 470.381 579.611 471.5 578.402 471.5H495.19C493.98 471.5 493 470.381 493 469Z" fill="white"/>
<path id="Ellipse 1_21" d="M593 469C593 472.866 586.529 476 578.548 476C570.566 476 564.095 472.866 564.095 469C564.095 465.134 570.566 462 578.548 462C586.529 462 593 465.134 593 469Z" fill="#D40303"/>
</g>
<g id="palito_22">
<path id="Line 2 (Stroke)_22" fill-rule="evenodd" clip-rule="evenodd" d="M376 148C376 146.619 376.98 145.5 378.19 145.5H461.402C462.611 145.5 463.591 146.619 463.591 148C463.591 149.381 462.611 150.5 461.402 150.5H378.19C376.98 150.5 376 149.381 376 148Z" fill="white"/>
<path id="Ellipse 1_22" d="M476 148C476 151.866 469.529 155 461.548 155C453.566 155 447.095 151.866 447.095 148C447.095 144.134 453.566 141 461.548 141C469.529 141 476 144.134 476 148Z" fill="#D40303"/>
</g>
<g id="palito_23">
<path id="Line 2 (Stroke)_23" fill-rule="evenodd" clip-rule="evenodd" d="M377 255C377 253.619 377.98 252.5 379.19 252.5H462.402C463.611 252.5 464.591 253.619 464.591 255C464.591 256.381 463.611 257.5 462.402 257.5H379.19C377.98 257.5 377 256.381 377 255Z" fill="white"/>
<path id="Ellipse 1_23" d="M477 255C477 258.866 470.529 262 462.548 262C454.566 262 448.095 258.866 448.095 255C448.095 251.134 454.566 248 462.548 248C470.529 248 477 251.134 477 255Z" fill="#D40303"/>
</g>
<g id="palito_24">
<path id="Line 2 (Stroke)_24" fill-rule="evenodd" clip-rule="evenodd" d="M493 357C493 355.619 493.98 354.5 495.19 354.5H578.402C579.611 354.5 580.591 355.619 580.591 357C580.591 358.381 579.611 359.5 578.402 359.5H495.19C493.98 359.5 493 358.381 493 357Z" fill="white"/>
<path id="Ellipse 1_24" d="M593 357C593 360.866 586.529 364 578.548 364C570.566 364 564.095 360.866 564.095 357C564.095 353.134 570.566 350 578.548 350C586.529 350 593 353.134 593 357Z" fill="#D40303"/>
</g>
</g>
</g>
<g id="claves01">
<g id="Group 99">
<path id="Rectangle 4" d="M68 492H284.745L318 532L284.745 572H68V492Z" fill="#F318F8" fill-opacity="0.1"/>
<path id="Rectangle 4 (Stroke)" fill-rule="evenodd" clip-rule="evenodd" d="M283.338 495H71V569H283.338L314.099 532L283.338 495ZM284.745 492H68V572H284.745L318 532L284.745 492Z" fill="#F318F8"/>
<path id="Ellipse 1_25" d="M109 532C109 554.091 91.0914 572 69 572C46.9086 572 29 554.091 29 532C29 509.909 46.9086 492 69 492C91.0914 492 109 509.909 109 532Z" fill="#F318F8"/>
<path id="A" d="M77.0938 542.406H59.4688L55.7812 553H47.5625L64.75 507.5H71.8438L89.0625 553H80.8125L77.0938 542.406ZM61.6875 536.031H74.875L68.2812 517.156L61.6875 536.031Z" fill="white"/>
</g>
<g id="Group 100">
<path id="Rectangle 5" d="M411 489H627.745L661 529L627.745 569H411V489Z" fill="#F318F8" fill-opacity="0.1"/>
<path id="Rectangle 5 (Stroke)" fill-rule="evenodd" clip-rule="evenodd" d="M626.338 492H414V566H626.338L657.099 529L626.338 492ZM627.745 489H411V569H627.745L661 529L627.745 489Z" fill="#F318F8"/>
<path id="Ellipse 2" d="M452 529C452 551.091 434.091 569 412 569C389.909 569 372 551.091 372 529C372 506.909 389.909 489 412 489C434.091 489 452 506.909 452 529Z" fill="#F318F8"/>
<path id="B" d="M395.625 545V499.5H411.219C416.365 499.5 420.281 500.531 422.969 502.594C425.656 504.656 427 507.729 427 511.812C427 513.896 426.438 515.771 425.312 517.438C424.188 519.104 422.542 520.396 420.375 521.312C422.833 521.979 424.729 523.24 426.062 525.094C427.417 526.927 428.094 529.135 428.094 531.719C428.094 535.99 426.719 539.271 423.969 541.562C421.24 543.854 417.323 545 412.219 545H395.625ZM403.531 524.469V538.688H412.312C414.792 538.688 416.729 538.073 418.125 536.844C419.521 535.615 420.219 533.906 420.219 531.719C420.219 526.99 417.802 524.573 412.969 524.469H403.531ZM403.531 518.656H411.281C413.74 518.656 415.656 518.104 417.031 517C418.427 515.875 419.125 514.292 419.125 512.25C419.125 510 418.479 508.375 417.188 507.375C415.917 506.375 413.927 505.875 411.219 505.875H403.531V518.656Z" fill="white"/>
</g>
<g id="Group 102">
<path id="Rectangle 7" d="M73 602H289.745L323 642L289.745 682H73V602Z" fill="#F318F8" fill-opacity="0.1"/>
<path id="Rectangle 7 (Stroke)" fill-rule="evenodd" clip-rule="evenodd" d="M288.338 605H76V679H288.338L319.099 642L288.338 605ZM289.745 602H73V682H289.745L323 642L289.745 602Z" fill="#F318F8"/>
<path id="Ellipse 4" d="M108 643C108 665.091 90.0914 683 68 683C45.9086 683 28 665.091 28 643C28 620.909 45.9086 603 68 603C90.0914 603 108 620.909 108 643Z" fill="#F318F8"/>
<path id="D" d="M50.625 665V619.5H64.0625C68.0833 619.5 71.6458 620.396 74.75 622.188C77.875 623.979 80.2917 626.521 82 629.812C83.7083 633.104 84.5625 636.875 84.5625 641.125V643.406C84.5625 647.719 83.6979 651.51 81.9688 654.781C80.2604 658.052 77.8125 660.573 74.625 662.344C71.4583 664.115 67.8229 665 63.7188 665H50.625ZM58.5312 625.875V658.688H63.6875C67.8333 658.688 71.0104 657.396 73.2188 654.812C75.4479 652.208 76.5833 648.479 76.625 643.625V641.094C76.625 636.156 75.5521 632.385 73.4062 629.781C71.2604 627.177 68.1458 625.875 64.0625 625.875H58.5312Z" fill="white"/>
</g>
<g id="Group 101">
<path id="Rectangle 6" d="M761 553H977.745L1011 593L977.745 633H761V553Z" fill="#F318F8" fill-opacity="0.1"/>
<path id="Rectangle 6 (Stroke)" fill-rule="evenodd" clip-rule="evenodd" d="M976.338 556H764V630H976.338L1007.1 593L976.338 556ZM977.745 553H761V633H977.745L1011 593L977.745 553Z" fill="#F318F8"/>
<path id="Ellipse 3" d="M802 593C802 615.091 784.091 633 762 633C739.909 633 722 615.091 722 593C722 570.909 739.909 553 762 553C784.091 553 802 570.909 802 593Z" fill="#F318F8"/>
<path id="C" d="M779.344 600.188C778.885 605.042 777.094 608.833 773.969 611.562C770.844 614.271 766.688 615.625 761.5 615.625C757.875 615.625 754.677 614.771 751.906 613.062C749.156 611.333 747.031 608.885 745.531 605.719C744.031 602.552 743.25 598.875 743.188 594.688V590.438C743.188 586.146 743.948 582.365 745.469 579.094C746.99 575.823 749.167 573.302 752 571.531C754.854 569.76 758.146 568.875 761.875 568.875C766.896 568.875 770.938 570.24 774 572.969C777.062 575.698 778.844 579.552 779.344 584.531H771.469C771.094 581.26 770.135 578.906 768.594 577.469C767.073 576.01 764.833 575.281 761.875 575.281C758.438 575.281 755.792 576.542 753.938 579.062C752.104 581.562 751.167 585.24 751.125 590.094V594.125C751.125 599.042 752 602.792 753.75 605.375C755.521 607.958 758.104 609.25 761.5 609.25C764.604 609.25 766.938 608.552 768.5 607.156C770.062 605.76 771.052 603.438 771.469 600.188H779.344Z" fill="white"/>
</g>
<g id="Group 103">
<path id="Rectangle 8" d="M410 601H626.745L660 641L626.745 681H410V601Z" fill="#F318F8" fill-opacity="0.1"/>
<path id="Rectangle 8 (Stroke)" fill-rule="evenodd" clip-rule="evenodd" d="M625.338 604H413V678H625.338L656.099 641L625.338 604ZM626.745 601H410V681H626.745L660 641L626.745 601Z" fill="#F318F8"/>
<path id="Ellipse 5" d="M451 641C451 663.091 433.091 681 411 681C388.909 681 371 663.091 371 641C371 618.909 388.909 601 411 601C433.091 601 451 618.909 451 641Z" fill="#F318F8"/>
<path id="E" d="M420.219 642.688H401.531V656.688H423.375V663H393.625V617.5H423.156V623.875H401.531V636.438H420.219V642.688Z" fill="white"/>
</g>
<g id="1 2 3 4 5">
<path d="M170.814 547H167.545V525.326L160.988 527.734V524.781L170.305 521.283H170.814V547Z" fill="#F318F8"/>
<path d="M518.58 547H501.811V544.662L510.67 534.818C511.982 533.33 512.885 532.123 513.377 531.197C513.881 530.26 514.133 529.293 514.133 528.297C514.133 526.961 513.729 525.865 512.92 525.01C512.111 524.154 511.033 523.727 509.686 523.727C508.068 523.727 506.809 524.189 505.906 525.115C505.016 526.029 504.57 527.307 504.57 528.947H501.318C501.318 526.592 502.074 524.688 503.586 523.234C505.109 521.781 507.143 521.055 509.686 521.055C512.064 521.055 513.945 521.682 515.328 522.936C516.711 524.178 517.402 525.836 517.402 527.91C517.402 530.43 515.797 533.43 512.586 536.91L505.73 544.346H518.58V547Z" fill="#F318F8"/>
<path d="M870.301 587.621H872.744C874.279 587.598 875.486 587.193 876.365 586.408C877.244 585.623 877.684 584.562 877.684 583.227C877.684 580.227 876.189 578.727 873.201 578.727C871.795 578.727 870.67 579.131 869.826 579.939C868.994 580.736 868.578 581.797 868.578 583.121H865.326C865.326 581.094 866.064 579.412 867.541 578.076C869.029 576.729 870.916 576.055 873.201 576.055C875.615 576.055 877.508 576.693 878.879 577.971C880.25 579.248 880.936 581.023 880.936 583.297C880.936 584.41 880.572 585.488 879.846 586.531C879.131 587.574 878.152 588.354 876.91 588.869C878.316 589.314 879.4 590.053 880.162 591.084C880.936 592.115 881.322 593.375 881.322 594.863C881.322 597.16 880.572 598.982 879.072 600.33C877.572 601.678 875.621 602.352 873.219 602.352C870.816 602.352 868.859 601.701 867.348 600.4C865.848 599.1 865.098 597.383 865.098 595.25H868.367C868.367 596.598 868.807 597.676 869.686 598.484C870.564 599.293 871.742 599.697 873.219 599.697C874.789 599.697 875.99 599.287 876.822 598.467C877.654 597.646 878.07 596.469 878.07 594.934C878.07 593.445 877.613 592.303 876.699 591.506C875.785 590.709 874.467 590.299 872.744 590.275H870.301V587.621Z" fill="#F318F8"/>
<path d="M173.855 648.404H177.406V651.059H173.855V657H170.586V651.059H158.932V649.143L170.393 631.406H173.855V648.404ZM162.623 648.404H170.586V635.854L170.199 636.557L162.623 648.404Z" fill="#F318F8"/>
<path d="M503.305 644.168L504.605 631.406H517.719V634.412H507.365L506.592 641.391C507.846 640.652 509.27 640.283 510.863 640.283C513.195 640.283 515.047 641.057 516.418 642.604C517.789 644.139 518.475 646.219 518.475 648.844C518.475 651.48 517.76 653.561 516.33 655.084C514.912 656.596 512.926 657.352 510.371 657.352C508.109 657.352 506.264 656.725 504.834 655.471C503.404 654.217 502.59 652.482 502.391 650.268H505.467C505.666 651.732 506.188 652.84 507.031 653.59C507.875 654.328 508.988 654.697 510.371 654.697C511.883 654.697 513.066 654.182 513.922 653.15C514.789 652.119 515.223 650.695 515.223 648.879C515.223 647.168 514.754 645.797 513.816 644.766C512.891 643.723 511.654 643.201 510.107 643.201C508.689 643.201 507.576 643.512 506.768 644.133L505.906 644.836L503.305 644.168Z" fill="#F318F8"/>
</g>
<g id="flecha">
<path id="Rectangle 2" d="M81.2001 603.008L96.4819 611.133L54.5003 690.089L39.2185 681.963L81.2001 603.008Z" fill="#1043F5"/>
<path id="Rectangle 1_2" d="M23 615.904L113 566V623.692L68 606.096L23 615.904Z" fill="#1043F5"/>
<path id="Rectangle 3" d="M27.0385 685.21L42.6656 658.143L59.9362 657.565L44.3091 684.632L27.0385 685.21Z" fill="#1043F5"/>
<path id="Rectangle 4_2" d="M53.0895 699.845L68.7166 672.778L59.9259 657.154L44.2987 684.221L53.0895 699.845Z" fill="#1043F5"/>
</g>
</g>
</g>
</svg>
