<svg viewBox="0 0 935 318" fill="none" xmlns="http://www.w3.org/2000/svg">
<g id="0132201">
<g id="Group 3">
<g id="palito">
<path id="Line 2 (Stroke)" fill-rule="evenodd" clip-rule="evenodd" d="M37.6448 125.355C36.6684 124.379 36.5702 122.894 37.4254 122.039L96.265 63.1996C97.1202 62.3444 98.6049 62.4426 99.5812 63.4189C100.558 64.3952 100.656 65.8799 99.8006 66.7351L40.9609 125.575C40.1058 126.43 38.6211 126.332 37.6448 125.355Z" fill="white"/>
<path id="Ellipse 1" d="M108.355 54.6447C111.089 57.3784 108.73 64.1699 103.086 69.814C97.4416 75.458 90.6501 77.8174 87.9164 75.0837C85.1828 72.35 87.5421 65.5585 93.1862 59.9145C98.8303 54.2704 105.622 51.911 108.355 54.6447Z" fill="#D40303"/>
</g>
<g id="palito_2">
<path id="Line 2 (Stroke)_2" fill-rule="evenodd" clip-rule="evenodd" d="M36.9498 60.9497C37.9261 59.9734 39.4108 59.8752 40.2659 60.7304L99.1056 119.57C99.9607 120.425 99.8625 121.91 98.8862 122.886C97.9099 123.863 96.4252 123.961 95.57 123.106L36.7304 64.2659C35.8752 63.4108 35.9735 61.9261 36.9498 60.9497Z" fill="white"/>
<path id="Ellipse 1_2" d="M107.66 131.66C104.927 134.394 98.1353 132.035 92.4912 126.391C86.8471 120.747 84.4878 113.955 87.2214 111.221C89.9551 108.488 96.7466 110.847 102.391 116.491C108.035 122.135 110.394 128.927 107.66 131.66Z" fill="#D40303"/>
</g>
<g id="palito_3">
<path id="Line 2 (Stroke)_3" fill-rule="evenodd" clip-rule="evenodd" d="M156 144C154.619 144 153.5 143.02 153.5 141.81V58.5984C153.5 57.389 154.619 56.4086 156 56.4086C157.381 56.4086 158.5 57.389 158.5 58.5984V141.81C158.5 143.02 157.381 144 156 144Z" fill="white"/>
<path id="Ellipse 1_3" d="M156 44C159.866 44 163 50.4706 163 58.4526C163 66.4345 159.866 72.9052 156 72.9052C152.134 72.9052 149 66.4345 149 58.4526C149 50.4706 152.134 44 156 44Z" fill="#D40303"/>
</g>
<g id="palito_4">
<path id="Line 2 (Stroke)_4" fill-rule="evenodd" clip-rule="evenodd" d="M189 144C187.619 144 186.5 143.02 186.5 141.81V58.5984C186.5 57.389 187.619 56.4086 189 56.4086C190.381 56.4086 191.5 57.389 191.5 58.5984V141.81C191.5 143.02 190.381 144 189 144Z" fill="white"/>
<path id="Ellipse 1_4" d="M189 44C192.866 44 196 50.4706 196 58.4526C196 66.4345 192.866 72.9052 189 72.9052C185.134 72.9052 182 66.4345 182 58.4526C182 50.4706 185.134 44 189 44Z" fill="#D40303"/>
</g>
<g id="palito_5">
<path id="Line 2 (Stroke)_5" fill-rule="evenodd" clip-rule="evenodd" d="M227 144C225.619 144 224.5 143.02 224.5 141.81V58.5984C224.5 57.389 225.619 56.4086 227 56.4086C228.381 56.4086 229.5 57.389 229.5 58.5984V141.81C229.5 143.02 228.381 144 227 144Z" fill="white"/>
<path id="Ellipse 1_5" d="M227 44C230.866 44 234 50.4706 234 58.4526C234 66.4345 230.866 72.9052 227 72.9052C223.134 72.9052 220 66.4345 220 58.4526C220 50.4706 223.134 44 227 44Z" fill="#D40303"/>
</g>
<g id="palito_6">
<path id="Line 2 (Stroke)_6" fill-rule="evenodd" clip-rule="evenodd" d="M254 92C254 90.6193 254.98 89.5 256.19 89.5H339.402C340.611 89.5 341.591 90.6193 341.591 92C341.591 93.3807 340.611 94.5 339.402 94.5H256.19C254.98 94.5 254 93.3807 254 92Z" fill="white"/>
<path id="Ellipse 1_6" d="M354 92C354 95.866 347.529 99 339.548 99C331.566 99 325.095 95.866 325.095 92C325.095 88.134 331.566 85 339.548 85C347.529 85 354 88.134 354 92Z" fill="#D40303"/>
</g>
<g id="palito_7">
<path id="Line 2 (Stroke)_7" fill-rule="evenodd" clip-rule="evenodd" d="M254 118C254 116.619 254.98 115.5 256.19 115.5H339.402C340.611 115.5 341.591 116.619 341.591 118C341.591 119.381 340.611 120.5 339.402 120.5H256.19C254.98 120.5 254 119.381 254 118Z" fill="white"/>
<path id="Ellipse 1_7" d="M354 118C354 121.866 347.529 125 339.548 125C331.566 125 325.095 121.866 325.095 118C325.095 114.134 331.566 111 339.548 111C347.529 111 354 114.134 354 118Z" fill="#D40303"/>
</g>
<g id="palito_8">
<path id="Line 2 (Stroke)_8" fill-rule="evenodd" clip-rule="evenodd" d="M385 149C383.619 149 382.5 148.02 382.5 146.81V63.5984C382.5 62.389 383.619 61.4086 385 61.4086C386.381 61.4086 387.5 62.389 387.5 63.5984V146.81C387.5 148.02 386.381 149 385 149Z" fill="white"/>
<path id="Ellipse 1_8" d="M385 49C388.866 49 392 55.4706 392 63.4526C392 71.4345 388.866 77.9052 385 77.9052C381.134 77.9052 378 71.4345 378 63.4526C378 55.4706 381.134 49 385 49Z" fill="#D40303"/>
</g>
<g id="palito_9">
<path id="Line 2 (Stroke)_9" fill-rule="evenodd" clip-rule="evenodd" d="M423 150C421.619 150 420.5 149.02 420.5 147.81V64.5984C420.5 63.389 421.619 62.4086 423 62.4086C424.381 62.4086 425.5 63.389 425.5 64.5984V147.81C425.5 149.02 424.381 150 423 150Z" fill="white"/>
<path id="Ellipse 1_9" d="M423 50C426.866 50 430 56.4706 430 64.4526C430 72.4345 426.866 78.9052 423 78.9052C419.134 78.9052 416 72.4345 416 64.4526C416 56.4706 419.134 50 423 50Z" fill="#D40303"/>
</g>
</g>
<g id="Group 118">
<path id="Arrow 28 (Stroke)" fill-rule="evenodd" clip-rule="evenodd" d="M173.781 168.938C183.194 169.236 193.203 163.53 198.064 150.647L199.935 151.353C194.797 164.97 184.056 171.264 173.718 170.937C164.031 170.631 154.843 164.505 151.179 153.479L147.727 159.232C147.443 159.706 146.828 159.859 146.355 159.575C145.881 159.291 145.728 158.677 146.012 158.203L150.642 150.486C150.926 150.012 151.541 149.859 152.014 150.143L159.732 154.773C160.205 155.057 160.359 155.672 160.075 156.145C159.791 156.619 159.176 156.772 158.703 156.488L153.189 153.18C156.662 163.206 165.035 168.661 173.781 168.938Z" fill="#F3F809"/>
<g id="90&#194;&#186;">
<path d="M160.59 191.75C159.91 192.559 159.096 193.209 158.146 193.701C157.209 194.193 156.178 194.44 155.053 194.44C153.576 194.44 152.287 194.076 151.186 193.35C150.096 192.623 149.252 191.604 148.654 190.291C148.057 188.967 147.758 187.508 147.758 185.914C147.758 184.203 148.08 182.662 148.725 181.291C149.381 179.92 150.307 178.871 151.502 178.145C152.697 177.418 154.092 177.055 155.686 177.055C158.217 177.055 160.209 178.004 161.662 179.902C163.127 181.789 163.859 184.367 163.859 187.637V188.586C163.859 193.566 162.875 197.205 160.906 199.502C158.938 201.787 155.967 202.959 151.994 203.018H151.361V200.275H152.047C154.73 200.229 156.793 199.531 158.234 198.184C159.676 196.824 160.461 194.68 160.59 191.75ZM155.58 191.75C156.67 191.75 157.672 191.416 158.586 190.748C159.512 190.08 160.186 189.254 160.607 188.27V186.969C160.607 184.836 160.145 183.102 159.219 181.766C158.293 180.43 157.121 179.762 155.703 179.762C154.273 179.762 153.125 180.313 152.258 181.414C151.391 182.504 150.957 183.945 150.957 185.738C150.957 187.484 151.373 188.926 152.205 190.063C153.049 191.188 154.174 191.75 155.58 191.75Z" fill="#F3F809"/>
<path d="M184.391 192.084C184.391 195.893 183.74 198.723 182.439 200.574C181.139 202.426 179.105 203.352 176.34 203.352C173.609 203.352 171.588 202.449 170.275 200.645C168.963 198.828 168.283 196.121 168.236 192.523V188.182C168.236 184.42 168.887 181.625 170.188 179.797C171.488 177.969 173.527 177.055 176.305 177.055C179.059 177.055 181.086 177.94 182.387 179.709C183.688 181.467 184.355 184.186 184.391 187.865V192.084ZM181.139 187.637C181.139 184.883 180.752 182.879 179.979 181.625C179.205 180.359 177.98 179.727 176.305 179.727C174.641 179.727 173.428 180.354 172.666 181.607C171.904 182.861 171.512 184.789 171.488 187.391V192.594C171.488 195.359 171.887 197.404 172.684 198.729C173.492 200.041 174.711 200.697 176.34 200.697C177.945 200.697 179.135 200.076 179.908 198.834C180.693 197.592 181.104 195.635 181.139 192.963V187.637Z" fill="#F3F809"/>
<path d="M188.574 183.26C188.574 181.408 189.125 179.914 190.227 178.777C191.328 177.629 192.781 177.055 194.586 177.055C196.402 177.055 197.861 177.623 198.963 178.76C200.064 179.885 200.615 181.42 200.615 183.365V184.666C200.615 186.529 200.064 188.029 198.963 189.166C197.873 190.303 196.426 190.871 194.621 190.871C192.816 190.871 191.357 190.303 190.244 189.166C189.131 188.029 188.574 186.494 188.574 184.561V183.26ZM191.439 184.666C191.439 185.838 191.721 186.758 192.283 187.426C192.857 188.094 193.637 188.428 194.621 188.428C195.594 188.428 196.355 188.094 196.906 187.426C197.469 186.746 197.75 185.815 197.75 184.631V183.26C197.75 182.1 197.463 181.186 196.889 180.518C196.326 179.85 195.559 179.516 194.586 179.516C193.637 179.516 192.881 179.838 192.318 180.482C191.756 181.127 191.463 182.018 191.439 183.154V184.666Z" fill="#F3F809"/>
</g>
</g>
<g id="Group 2">
<g id="palito_10">
<path id="Line 2 (Stroke)_10" fill-rule="evenodd" clip-rule="evenodd" d="M35.6448 293.355C34.6684 292.379 34.5702 290.894 35.4254 290.039L94.265 231.2C95.1202 230.344 96.6049 230.443 97.5812 231.419C98.5575 232.395 98.6557 233.88 97.8006 234.735L38.9609 293.575C38.1058 294.43 36.6211 294.332 35.6448 293.355Z" fill="white"/>
<path id="Ellipse 1_10" d="M106.355 222.645C109.089 225.378 106.73 232.17 101.086 237.814C95.4416 243.458 88.6501 245.817 85.9164 243.084C83.1828 240.35 85.5421 233.559 91.1862 227.914C96.8303 222.27 103.622 219.911 106.355 222.645Z" fill="#D40303"/>
</g>
<g id="palito_11">
<path id="Line 2 (Stroke)_11" fill-rule="evenodd" clip-rule="evenodd" d="M34.9498 228.95C35.9261 227.973 37.4108 227.875 38.2659 228.73L97.1056 287.57C97.9607 288.425 97.8625 289.91 96.8862 290.886C95.9099 291.863 94.4252 291.961 93.57 291.106L34.7304 232.266C33.8752 231.411 33.9735 229.926 34.9498 228.95Z" fill="white"/>
<path id="Ellipse 1_11" d="M105.66 299.66C102.927 302.394 96.1353 300.035 90.4912 294.391C84.8471 288.747 82.4878 281.955 85.2214 279.221C87.9551 276.488 94.7466 278.847 100.391 284.491C106.035 290.135 108.394 296.927 105.66 299.66Z" fill="#D40303"/>
</g>
<g id="palito_12">
<path id="Line 2 (Stroke)_12" fill-rule="evenodd" clip-rule="evenodd" d="M154 312C152.619 312 151.5 311.02 151.5 309.81V226.598C151.5 225.389 152.619 224.409 154 224.409C155.381 224.409 156.5 225.389 156.5 226.598V309.81C156.5 311.02 155.381 312 154 312Z" fill="white"/>
<path id="Ellipse 1_12" d="M154 212C157.866 212 161 218.471 161 226.453C161 234.435 157.866 240.905 154 240.905C150.134 240.905 147 234.435 147 226.453C147 218.471 150.134 212 154 212Z" fill="#D40303"/>
</g>
<g id="palito_13">
<path id="Line 2 (Stroke)_13" fill-rule="evenodd" clip-rule="evenodd" d="M111 268C111 266.619 111.98 265.5 113.19 265.5H196.402C197.611 265.5 198.591 266.619 198.591 268C198.591 269.381 197.611 270.5 196.402 270.5H113.19C111.98 270.5 111 269.381 111 268Z" fill="white"/>
<path id="Ellipse 1_13" d="M211 268C211 271.866 204.529 275 196.547 275C188.565 275 182.095 271.866 182.095 268C182.095 264.134 188.565 261 196.547 261C204.529 261 211 264.134 211 268Z" fill="#D40303"/>
</g>
<g id="palito_14">
<path id="Line 2 (Stroke)_14" fill-rule="evenodd" clip-rule="evenodd" d="M225 312C223.619 312 222.5 311.02 222.5 309.81V226.598C222.5 225.389 223.619 224.409 225 224.409C226.381 224.409 227.5 225.389 227.5 226.598V309.81C227.5 311.02 226.381 312 225 312Z" fill="white"/>
<path id="Ellipse 1_14" d="M225 212C228.866 212 232 218.471 232 226.453C232 234.435 228.866 240.905 225 240.905C221.134 240.905 218 234.435 218 226.453C218 218.471 221.134 212 225 212Z" fill="#D40303"/>
</g>
<g id="palito_15">
<path id="Line 2 (Stroke)_15" fill-rule="evenodd" clip-rule="evenodd" d="M252 260C252 258.619 252.98 257.5 254.19 257.5H337.402C338.611 257.5 339.591 258.619 339.591 260C339.591 261.381 338.611 262.5 337.402 262.5H254.19C252.98 262.5 252 261.381 252 260Z" fill="white"/>
<path id="Ellipse 1_15" d="M352 260C352 263.866 345.529 267 337.548 267C329.566 267 323.095 263.866 323.095 260C323.095 256.134 329.566 253 337.548 253C345.529 253 352 256.134 352 260Z" fill="#D40303"/>
</g>
<g id="palito_16">
<path id="Line 2 (Stroke)_16" fill-rule="evenodd" clip-rule="evenodd" d="M252 286C252 284.619 252.98 283.5 254.19 283.5H337.402C338.611 283.5 339.591 284.619 339.591 286C339.591 287.381 338.611 288.5 337.402 288.5H254.19C252.98 288.5 252 287.381 252 286Z" fill="white"/>
<path id="Ellipse 1_16" d="M352 286C352 289.866 345.529 293 337.548 293C329.566 293 323.095 289.866 323.095 286C323.095 282.134 329.566 279 337.548 279C345.529 279 352 282.134 352 286Z" fill="#D40303"/>
</g>
<g id="palito_17">
<path id="Line 2 (Stroke)_17" fill-rule="evenodd" clip-rule="evenodd" d="M383 317C381.619 317 380.5 316.02 380.5 314.81V231.598C380.5 230.389 381.619 229.409 383 229.409C384.381 229.409 385.5 230.389 385.5 231.598V314.81C385.5 316.02 384.381 317 383 317Z" fill="white"/>
<path id="Ellipse 1_17" d="M383 217C386.866 217 390 223.471 390 231.453C390 239.435 386.866 245.905 383 245.905C379.134 245.905 376 239.435 376 231.453C376 223.471 379.134 217 383 217Z" fill="#D40303"/>
</g>
<g id="palito_18">
<path id="Line 2 (Stroke)_18" fill-rule="evenodd" clip-rule="evenodd" d="M421 318C419.619 318 418.5 317.02 418.5 315.81V232.598C418.5 231.389 419.619 230.409 421 230.409C422.381 230.409 423.5 231.389 423.5 232.598V315.81C423.5 317.02 422.381 318 421 318Z" fill="white"/>
<path id="Ellipse 1_18" d="M421 218C424.866 218 428 224.471 428 232.453C428 240.435 424.866 246.905 421 246.905C417.134 246.905 414 240.435 414 232.453C414 224.471 417.134 218 421 218Z" fill="#D40303"/>
</g>
</g>
<path id="Line 3 (Stroke)" fill-rule="evenodd" clip-rule="evenodd" d="M468.489 0.961487V317.039H463.489V0.961487H468.489Z" fill="#CD08D1"/>
<path id="Arrow 29 (Stroke)" fill-rule="evenodd" clip-rule="evenodd" d="M0.480988 30.868C0.00891113 30.5814 -0.141388 29.9663 0.145264 29.4942L4.81657 21.8015C5.10323 21.3294 5.71829 21.1791 6.19035 21.4657C6.66243 21.7524 6.81273 22.3675 6.52608 22.8395L3.10567 28.4723C46.5528 17.9682 80.7664 12.9005 115.003 13.0015C149.85 13.1043 184.673 18.5618 229.229 29.0398L228.771 30.9867C184.287 20.5256 149.63 15.1036 114.997 15.0015C80.9785 14.9011 46.937 19.9335 3.5862 30.4138L9.21182 33.8298C9.6839 34.1165 9.8342 34.7315 9.54755 35.2036C9.26089 35.6757 8.64583 35.826 8.17377 35.5393L0.480988 30.868Z" fill="#F3F809"/>
<g id="Group 3_2">
<g id="palito_19">
<path id="Line 2 (Stroke)_19" fill-rule="evenodd" clip-rule="evenodd" d="M542.645 199.355C541.668 198.379 541.57 196.894 542.425 196.039L601.265 137.2C602.12 136.344 603.605 136.443 604.581 137.419C605.557 138.395 605.656 139.88 604.801 140.735L545.961 199.575C545.106 200.43 543.621 200.332 542.645 199.355Z" fill="white"/>
<path id="Ellipse 1_19" d="M613.355 128.645C616.089 131.378 613.73 138.17 608.086 143.814C602.442 149.458 595.65 151.817 592.916 149.084C590.183 146.35 592.542 139.559 598.186 133.914C603.83 128.27 610.622 125.911 613.355 128.645Z" fill="#D40303"/>
</g>
<g id="palito_20">
<path id="Line 2 (Stroke)_20" fill-rule="evenodd" clip-rule="evenodd" d="M541.95 134.95C542.926 133.973 544.411 133.875 545.266 134.73L604.106 193.57C604.961 194.425 604.863 195.91 603.886 196.886C602.91 197.863 601.425 197.961 600.57 197.106L541.73 138.266C540.875 137.411 540.973 135.926 541.95 134.95Z" fill="white"/>
<path id="Ellipse 1_20" d="M612.66 205.66C609.927 208.394 603.135 206.035 597.491 200.391C591.847 194.747 589.488 187.955 592.221 185.221C594.955 182.488 601.747 184.847 607.391 190.491C613.035 196.135 615.394 202.927 612.66 205.66Z" fill="#D40303"/>
</g>
<g id="palito_21">
<path id="Line 2 (Stroke)_21" fill-rule="evenodd" clip-rule="evenodd" d="M661 218C659.619 218 658.5 217.02 658.5 215.81V132.598C658.5 131.389 659.619 130.409 661 130.409C662.381 130.409 663.5 131.389 663.5 132.598V215.81C663.5 217.02 662.381 218 661 218Z" fill="white"/>
<path id="Ellipse 1_21" d="M661 118C664.866 118 668 124.471 668 132.453C668 140.435 664.866 146.905 661 146.905C657.134 146.905 654 140.435 654 132.453C654 124.471 657.134 118 661 118Z" fill="#D40303"/>
</g>
<g id="palito_22">
<path id="Line 2 (Stroke)_22" fill-rule="evenodd" clip-rule="evenodd" d="M694 218C692.619 218 691.5 217.02 691.5 215.81V132.598C691.5 131.389 692.619 130.409 694 130.409C695.381 130.409 696.5 131.389 696.5 132.598V215.81C696.5 217.02 695.381 218 694 218Z" fill="white"/>
<path id="Ellipse 1_22" d="M694 118C697.866 118 701 124.471 701 132.453C701 140.435 697.866 146.905 694 146.905C690.134 146.905 687 140.435 687 132.453C687 124.471 690.134 118 694 118Z" fill="#D40303"/>
</g>
<g id="palito_23">
<path id="Line 2 (Stroke)_23" fill-rule="evenodd" clip-rule="evenodd" d="M506 214C504.619 214 503.5 213.02 503.5 211.81V128.598C503.5 127.389 504.619 126.409 506 126.409C507.381 126.409 508.5 127.389 508.5 128.598V211.81C508.5 213.02 507.381 214 506 214Z" fill="white"/>
<path id="Ellipse 1_23" d="M506 114C509.866 114 513 120.471 513 128.453C513 136.435 509.866 142.905 506 142.905C502.134 142.905 499 136.435 499 128.453C499 120.471 502.134 114 506 114Z" fill="#D40303"/>
</g>
<g id="palito_24">
<path id="Line 2 (Stroke)_24" fill-rule="evenodd" clip-rule="evenodd" d="M759 166C759 164.619 759.98 163.5 761.19 163.5H844.402C845.611 163.5 846.591 164.619 846.591 166C846.591 167.381 845.611 168.5 844.402 168.5H761.19C759.98 168.5 759 167.381 759 166Z" fill="white"/>
<path id="Ellipse 1_24" d="M859 166C859 169.866 852.529 173 844.547 173C836.566 173 830.095 169.866 830.095 166C830.095 162.134 836.566 159 844.547 159C852.529 159 859 162.134 859 166Z" fill="#D40303"/>
</g>
<g id="palito_25">
<path id="Line 2 (Stroke)_25" fill-rule="evenodd" clip-rule="evenodd" d="M759 192C759 190.619 759.98 189.5 761.19 189.5H844.402C845.611 189.5 846.591 190.619 846.591 192C846.591 193.381 845.611 194.5 844.402 194.5H761.19C759.98 194.5 759 193.381 759 192Z" fill="white"/>
<path id="Ellipse 1_25" d="M859 192C859 195.866 852.529 199 844.547 199C836.566 199 830.095 195.866 830.095 192C830.095 188.134 836.566 185 844.547 185C852.529 185 859 188.134 859 192Z" fill="#D40303"/>
</g>
<g id="palito_26">
<path id="Line 2 (Stroke)_26" fill-rule="evenodd" clip-rule="evenodd" d="M890 223C888.619 223 887.5 222.02 887.5 220.81V137.598C887.5 136.389 888.619 135.409 890 135.409C891.381 135.409 892.5 136.389 892.5 137.598V220.81C892.5 222.02 891.381 223 890 223Z" fill="white"/>
<path id="Ellipse 1_26" d="M890 123C893.866 123 897 129.471 897 137.453C897 145.435 893.866 151.905 890 151.905C886.134 151.905 883 145.435 883 137.453C883 129.471 886.134 123 890 123Z" fill="#D40303"/>
</g>
<g id="palito_27">
<path id="Line 2 (Stroke)_27" fill-rule="evenodd" clip-rule="evenodd" d="M928 224C926.619 224 925.5 223.02 925.5 221.81V138.598C925.5 137.389 926.619 136.409 928 136.409C929.381 136.409 930.5 137.389 930.5 138.598V221.81C930.5 223.02 929.381 224 928 224Z" fill="white"/>
<path id="Ellipse 1_27" d="M928 124C931.866 124 935 130.471 935 138.453C935 146.435 931.866 152.905 928 152.905C924.134 152.905 921 146.435 921 138.453C921 130.471 924.134 124 928 124Z" fill="#D40303"/>
</g>
</g>
</g>
</svg>
