<svg viewBox="0 0 994 602" fill="none" xmlns="http://www.w3.org/2000/svg">
<g id="0132101">
<g id="enunciado">
<g id="Group 71">
<path id="Rectangle 1" d="M28 51.5296C28 24.5162 51.7112 2.61765 80.9605 2.61765H994V341.088C994 368.101 970.289 390 941.039 390H28V51.5296Z" fill="#02071A"/>
<path id="Rectangle 1 (Stroke)" fill-rule="evenodd" clip-rule="evenodd" d="M988.704 7.46854H80.9605C54.6362 7.46854 33.2961 27.1793 33.2961 51.4939V385.108H941.039C967.364 385.108 988.704 365.397 988.704 341.083V7.46854ZM80.9605 2.57684C51.7112 2.57684 28 24.4777 28 51.4939V390H941.039C970.289 390 994 368.099 994 341.083V2.57684H80.9605Z" fill="#F318F8"/>
<path id="Rectangle 14" d="M85.3562 2.70545C113.682 -3.38181 994 2.70545 994 2.70545V29.0585C994 29.0585 70.3683 19.3723 37.5328 29.0585C47.7497 15.0812 57.0303 8.79271 85.3562 2.70545Z" fill="#F318F8"/>
<path id="Rectangle 15" d="M960.479 8.37589H991.968V342.096C988.103 364.743 980.092 373.066 960.479 383.931C966.252 366.139 960.479 8.37589 960.479 8.37589Z" fill="#F318F8"/>
</g>
<g id="&#194;&#191;Cu&#195;&#161;ntos palitos debes mover, como m&#195;&#173;nimo, para obtener una igualdad verdadera?">
<path d="M61.3359 68.0469C61.3242 69.2891 61.1953 70.2852 60.9492 71.0352C60.7148 71.7734 60.3164 72.4883 59.7539 73.1797C59.1914 73.8711 58.3711 74.7852 57.293 75.9219C56.2148 77.0469 55.6113 78.1895 55.4824 79.3496L55.4473 80C55.4473 81.2773 55.7871 82.25 56.4668 82.918C57.1465 83.5977 58.125 83.9375 59.4023 83.9375C60.5742 83.9375 61.5234 83.6035 62.25 82.9355C62.9883 82.2793 63.3574 81.418 63.3574 80.3516H66.6094C66.5859 82.2383 65.9121 83.7793 64.5879 84.9746C63.2754 86.1699 61.5469 86.7676 59.4023 86.7676C57.1055 86.7676 55.3301 86.1758 54.0762 84.9922C52.8223 83.8203 52.1953 82.1855 52.1953 80.0879C52.1953 78.0605 53.1328 76.0215 55.0078 73.9707L56.9238 71.9844C57.6973 71.0703 58.084 69.7578 58.084 68.0469H61.3359ZM61.4766 62.4746C61.4766 63.002 61.3125 63.4473 60.9844 63.8105C60.668 64.1738 60.1934 64.3555 59.5605 64.3555C58.9277 64.3555 58.4473 64.1738 58.1191 63.8105C57.791 63.4473 57.627 63.002 57.627 62.4746C57.627 61.959 57.791 61.5254 58.1191 61.1738C58.4473 60.8223 58.9277 60.6465 59.5605 60.6465C60.1934 60.6465 60.668 60.8223 60.9844 61.1738C61.3125 61.5254 61.4766 61.959 61.4766 62.4746Z" fill="white"/>
<path d="M89.8477 71.8789C89.5312 74.5859 88.5293 76.6777 86.8418 78.1543C85.166 79.6191 82.9336 80.3516 80.1445 80.3516C77.1211 80.3516 74.6953 79.2676 72.8672 77.0996C71.0508 74.9316 70.1426 72.0312 70.1426 68.3984V65.9375C70.1426 63.5586 70.5645 61.4668 71.4082 59.6621C72.2637 57.8574 73.4707 56.4746 75.0293 55.5137C76.5879 54.541 78.3926 54.0547 80.4434 54.0547C83.1621 54.0547 85.3418 54.8164 86.9824 56.3398C88.623 57.8516 89.5781 59.9492 89.8477 62.6328H86.4551C86.1621 60.5938 85.5234 59.1172 84.5391 58.2031C83.5664 57.2891 82.2012 56.832 80.4434 56.832C78.2871 56.832 76.5938 57.6289 75.3633 59.2227C74.1445 60.8164 73.5352 63.084 73.5352 66.0254V68.5039C73.5352 71.2812 74.1152 73.4902 75.2754 75.1309C76.4355 76.7715 78.0586 77.5918 80.1445 77.5918C82.0195 77.5918 83.4551 77.1699 84.4512 76.3262C85.459 75.4707 86.127 73.9883 86.4551 71.8789H89.8477Z" fill="white"/>
<path d="M105.703 78.1191C104.438 79.6074 102.58 80.3516 100.131 80.3516C98.1035 80.3516 96.5566 79.7656 95.4902 78.5938C94.4355 77.4102 93.9023 75.6641 93.8906 73.3555V60.9805H97.1426V73.2676C97.1426 76.1504 98.3145 77.5918 100.658 77.5918C103.143 77.5918 104.795 76.666 105.615 74.8145V60.9805H108.867V80H105.773L105.703 78.1191Z" fill="white"/>
<path d="M125.566 80C125.379 79.625 125.227 78.957 125.109 77.9961C123.598 79.5664 121.793 80.3516 119.695 80.3516C117.82 80.3516 116.279 79.8242 115.072 78.7695C113.877 77.7031 113.279 76.3555 113.279 74.7266C113.279 72.7461 114.029 71.2109 115.529 70.1211C117.041 69.0195 119.162 68.4688 121.893 68.4688H125.057V66.9746C125.057 65.8379 124.717 64.9355 124.037 64.2676C123.357 63.5879 122.355 63.248 121.031 63.248C119.871 63.248 118.898 63.541 118.113 64.127C117.328 64.7129 116.936 65.4219 116.936 66.2539H113.666C113.666 65.3047 114 64.3906 114.668 63.5117C115.348 62.6211 116.262 61.918 117.41 61.4023C118.57 60.8867 119.842 60.6289 121.225 60.6289C123.416 60.6289 125.133 61.1797 126.375 62.2812C127.617 63.3711 128.262 64.877 128.309 66.7988V75.5527C128.309 77.2988 128.531 78.6875 128.977 79.7188V80H125.566ZM120.17 77.5215C121.189 77.5215 122.156 77.2578 123.07 76.7305C123.984 76.2031 124.646 75.5176 125.057 74.6738V70.7715H122.508C118.523 70.7715 116.531 71.9375 116.531 74.2695C116.531 75.2891 116.871 76.0859 117.551 76.6602C118.23 77.2344 119.104 77.5215 120.17 77.5215ZM123.176 53H127.113L122.402 58.168H119.783L123.176 53Z" fill="white"/>
<path d="M136.482 60.9805L136.588 63.3711C138.041 61.543 139.939 60.6289 142.283 60.6289C146.303 60.6289 148.33 62.8965 148.365 67.4316V80H145.113V67.4141C145.102 66.043 144.785 65.0293 144.164 64.373C143.555 63.7168 142.6 63.3887 141.299 63.3887C140.244 63.3887 139.318 63.6699 138.521 64.2324C137.725 64.7949 137.104 65.5332 136.658 66.4473V80H133.406V60.9805H136.482Z" fill="white"/>
<path d="M157.682 56.375V60.9805H161.232V63.4941H157.682V75.2891C157.682 76.0508 157.84 76.625 158.156 77.0117C158.473 77.3867 159.012 77.5742 159.773 77.5742C160.148 77.5742 160.664 77.5039 161.32 77.3633V80C160.465 80.2344 159.633 80.3516 158.824 80.3516C157.371 80.3516 156.275 79.9121 155.537 79.0332C154.799 78.1543 154.43 76.9062 154.43 75.2891V63.4941H150.967V60.9805H154.43V56.375H157.682Z" fill="white"/>
<path d="M163.834 70.3145C163.834 68.4512 164.197 66.7754 164.924 65.2871C165.662 63.7988 166.682 62.6504 167.982 61.8418C169.295 61.0332 170.789 60.6289 172.465 60.6289C175.055 60.6289 177.146 61.5254 178.74 63.3184C180.346 65.1113 181.148 67.4961 181.148 70.4727V70.7012C181.148 72.5527 180.791 74.2168 180.076 75.6934C179.373 77.1582 178.359 78.3008 177.035 79.1211C175.723 79.9414 174.211 80.3516 172.5 80.3516C169.922 80.3516 167.83 79.4551 166.225 77.6621C164.631 75.8691 163.834 73.4961 163.834 70.543V70.3145ZM167.104 70.7012C167.104 72.8105 167.59 74.5039 168.562 75.7812C169.547 77.0586 170.859 77.6973 172.5 77.6973C174.152 77.6973 175.465 77.0527 176.438 75.7637C177.41 74.4629 177.896 72.6465 177.896 70.3145C177.896 68.2285 177.398 66.541 176.402 65.252C175.418 63.9512 174.105 63.3008 172.465 63.3008C170.859 63.3008 169.564 63.9395 168.58 65.2168C167.596 66.4941 167.104 68.3223 167.104 70.7012Z" fill="white"/>
<path d="M196.301 74.9551C196.301 74.0762 195.967 73.3965 195.299 72.916C194.643 72.4238 193.488 72.002 191.836 71.6504C190.195 71.2988 188.889 70.877 187.916 70.3848C186.955 69.8926 186.24 69.3066 185.771 68.627C185.314 67.9473 185.086 67.1387 185.086 66.2012C185.086 64.6426 185.742 63.3242 187.055 62.2461C188.379 61.168 190.066 60.6289 192.117 60.6289C194.273 60.6289 196.02 61.1855 197.355 62.2988C198.703 63.4121 199.377 64.8359 199.377 66.5703H196.107C196.107 65.6797 195.727 64.9121 194.965 64.2676C194.215 63.623 193.266 63.3008 192.117 63.3008C190.934 63.3008 190.008 63.5586 189.34 64.0742C188.672 64.5898 188.338 65.2637 188.338 66.0957C188.338 66.8809 188.648 67.4727 189.27 67.8711C189.891 68.2695 191.01 68.6504 192.627 69.0137C194.256 69.377 195.574 69.8105 196.582 70.3145C197.59 70.8184 198.334 71.4277 198.814 72.1426C199.307 72.8457 199.553 73.707 199.553 74.7266C199.553 76.4258 198.873 77.791 197.514 78.8223C196.154 79.8418 194.391 80.3516 192.223 80.3516C190.699 80.3516 189.352 80.082 188.18 79.543C187.008 79.0039 186.088 78.2539 185.42 77.293C184.764 76.3203 184.436 75.2715 184.436 74.1465H187.688C187.746 75.2363 188.18 76.1035 188.988 76.748C189.809 77.3809 190.887 77.6973 192.223 77.6973C193.453 77.6973 194.438 77.4512 195.176 76.959C195.926 76.4551 196.301 75.7871 196.301 74.9551Z" fill="white"/>
<path d="M228.785 70.7012C228.785 73.5957 228.123 75.9277 226.799 77.6973C225.475 79.4668 223.682 80.3516 221.42 80.3516C219.111 80.3516 217.295 79.6191 215.971 78.1543V87.3125H212.719V60.9805H215.689L215.848 63.0898C217.172 61.4492 219.012 60.6289 221.367 60.6289C223.652 60.6289 225.457 61.4902 226.781 63.2129C228.117 64.9355 228.785 67.332 228.785 70.4023V70.7012ZM225.533 70.332C225.533 68.1875 225.076 66.4941 224.162 65.252C223.248 64.0098 221.994 63.3887 220.4 63.3887C218.432 63.3887 216.955 64.2617 215.971 66.0078V75.0957C216.943 76.8301 218.432 77.6973 220.436 77.6973C221.994 77.6973 223.23 77.082 224.145 75.8516C225.07 74.6094 225.533 72.7695 225.533 70.332Z" fill="white"/>
<path d="M244.676 80C244.488 79.625 244.336 78.957 244.219 77.9961C242.707 79.5664 240.902 80.3516 238.805 80.3516C236.93 80.3516 235.389 79.8242 234.182 78.7695C232.986 77.7031 232.389 76.3555 232.389 74.7266C232.389 72.7461 233.139 71.2109 234.639 70.1211C236.15 69.0195 238.271 68.4688 241.002 68.4688H244.166V66.9746C244.166 65.8379 243.826 64.9355 243.146 64.2676C242.467 63.5879 241.465 63.248 240.141 63.248C238.98 63.248 238.008 63.541 237.223 64.127C236.438 64.7129 236.045 65.4219 236.045 66.2539H232.775C232.775 65.3047 233.109 64.3906 233.777 63.5117C234.457 62.6211 235.371 61.918 236.52 61.4023C237.68 60.8867 238.951 60.6289 240.334 60.6289C242.525 60.6289 244.242 61.1797 245.484 62.2812C246.727 63.3711 247.371 64.877 247.418 66.7988V75.5527C247.418 77.2988 247.641 78.6875 248.086 79.7188V80H244.676ZM239.279 77.5215C240.299 77.5215 241.266 77.2578 242.18 76.7305C243.094 76.2031 243.756 75.5176 244.166 74.6738V70.7715H241.617C237.633 70.7715 235.641 71.9375 235.641 74.2695C235.641 75.2891 235.98 76.0859 236.66 76.6602C237.34 77.2344 238.213 77.5215 239.279 77.5215Z" fill="white"/>
<path d="M256.049 80H252.797V53H256.049V80Z" fill="white"/>
<path d="M264.803 80H261.551V60.9805H264.803V80ZM261.287 55.9355C261.287 55.4082 261.445 54.9629 261.762 54.5996C262.09 54.2363 262.57 54.0547 263.203 54.0547C263.836 54.0547 264.316 54.2363 264.645 54.5996C264.973 54.9629 265.137 55.4082 265.137 55.9355C265.137 56.4629 264.973 56.9023 264.645 57.2539C264.316 57.6055 263.836 57.7812 263.203 57.7812C262.57 57.7812 262.09 57.6055 261.762 57.2539C261.445 56.9023 261.287 56.4629 261.287 55.9355Z" fill="white"/>
<path d="M274.436 56.375V60.9805H277.986V63.4941H274.436V75.2891C274.436 76.0508 274.594 76.625 274.91 77.0117C275.227 77.3867 275.766 77.5742 276.527 77.5742C276.902 77.5742 277.418 77.5039 278.074 77.3633V80C277.219 80.2344 276.387 80.3516 275.578 80.3516C274.125 80.3516 273.029 79.9121 272.291 79.0332C271.553 78.1543 271.184 76.9062 271.184 75.2891V63.4941H267.721V60.9805H271.184V56.375H274.436Z" fill="white"/>
<path d="M280.588 70.3145C280.588 68.4512 280.951 66.7754 281.678 65.2871C282.416 63.7988 283.436 62.6504 284.736 61.8418C286.049 61.0332 287.543 60.6289 289.219 60.6289C291.809 60.6289 293.9 61.5254 295.494 63.3184C297.1 65.1113 297.902 67.4961 297.902 70.4727V70.7012C297.902 72.5527 297.545 74.2168 296.83 75.6934C296.127 77.1582 295.113 78.3008 293.789 79.1211C292.477 79.9414 290.965 80.3516 289.254 80.3516C286.676 80.3516 284.584 79.4551 282.979 77.6621C281.385 75.8691 280.588 73.4961 280.588 70.543V70.3145ZM283.857 70.7012C283.857 72.8105 284.344 74.5039 285.316 75.7812C286.301 77.0586 287.613 77.6973 289.254 77.6973C290.906 77.6973 292.219 77.0527 293.191 75.7637C294.164 74.4629 294.65 72.6465 294.65 70.3145C294.65 68.2285 294.152 66.541 293.156 65.252C292.172 63.9512 290.859 63.3008 289.219 63.3008C287.613 63.3008 286.318 63.9395 285.334 65.2168C284.35 66.4941 283.857 68.3223 283.857 70.7012Z" fill="white"/>
<path d="M313.055 74.9551C313.055 74.0762 312.721 73.3965 312.053 72.916C311.396 72.4238 310.242 72.002 308.59 71.6504C306.949 71.2988 305.643 70.877 304.67 70.3848C303.709 69.8926 302.994 69.3066 302.525 68.627C302.068 67.9473 301.84 67.1387 301.84 66.2012C301.84 64.6426 302.496 63.3242 303.809 62.2461C305.133 61.168 306.82 60.6289 308.871 60.6289C311.027 60.6289 312.773 61.1855 314.109 62.2988C315.457 63.4121 316.131 64.8359 316.131 66.5703H312.861C312.861 65.6797 312.48 64.9121 311.719 64.2676C310.969 63.623 310.02 63.3008 308.871 63.3008C307.688 63.3008 306.762 63.5586 306.094 64.0742C305.426 64.5898 305.092 65.2637 305.092 66.0957C305.092 66.8809 305.402 67.4727 306.023 67.8711C306.645 68.2695 307.764 68.6504 309.381 69.0137C311.01 69.377 312.328 69.8105 313.336 70.3145C314.344 70.8184 315.088 71.4277 315.568 72.1426C316.061 72.8457 316.307 73.707 316.307 74.7266C316.307 76.4258 315.627 77.791 314.268 78.8223C312.908 79.8418 311.145 80.3516 308.977 80.3516C307.453 80.3516 306.105 80.082 304.934 79.543C303.762 79.0039 302.842 78.2539 302.174 77.293C301.518 76.3203 301.189 75.2715 301.189 74.1465H304.441C304.5 75.2363 304.934 76.1035 305.742 76.748C306.562 77.3809 307.641 77.6973 308.977 77.6973C310.207 77.6973 311.191 77.4512 311.93 76.959C312.68 76.4551 313.055 75.7871 313.055 74.9551Z" fill="white"/>
<path d="M328.682 70.332C328.682 67.4141 329.373 65.0703 330.756 63.3008C332.139 61.5195 333.949 60.6289 336.188 60.6289C338.414 60.6289 340.178 61.3906 341.479 62.9141V53H344.73V80H341.742L341.584 77.9609C340.283 79.5547 338.473 80.3516 336.152 80.3516C333.949 80.3516 332.15 79.4492 330.756 77.6445C329.373 75.8398 328.682 73.4844 328.682 70.5781V70.332ZM331.934 70.7012C331.934 72.8574 332.379 74.5449 333.27 75.7637C334.16 76.9824 335.391 77.5918 336.961 77.5918C339.023 77.5918 340.529 76.666 341.479 74.8145V66.0781C340.506 64.2852 339.012 63.3887 336.996 63.3887C335.402 63.3887 334.16 64.0039 333.27 65.2344C332.379 66.4648 331.934 68.2871 331.934 70.7012Z" fill="white"/>
<path d="M357.686 80.3516C355.107 80.3516 353.01 79.5078 351.393 77.8203C349.775 76.1211 348.967 73.8535 348.967 71.0176V70.4199C348.967 68.5332 349.324 66.8516 350.039 65.375C350.766 63.8867 351.773 62.7266 353.062 61.8945C354.363 61.0508 355.77 60.6289 357.281 60.6289C359.754 60.6289 361.676 61.4434 363.047 63.0723C364.418 64.7012 365.104 67.0332 365.104 70.0684V71.4219H352.219C352.266 73.2969 352.811 74.8145 353.854 75.9746C354.908 77.123 356.244 77.6973 357.861 77.6973C359.01 77.6973 359.982 77.4629 360.779 76.9941C361.576 76.5254 362.273 75.9043 362.871 75.1309L364.857 76.6777C363.264 79.127 360.873 80.3516 357.686 80.3516ZM357.281 63.3008C355.969 63.3008 354.867 63.7812 353.977 64.7422C353.086 65.6914 352.535 67.0273 352.324 68.75H361.852V68.5039C361.758 66.8516 361.312 65.5742 360.516 64.6719C359.719 63.7578 358.641 63.3008 357.281 63.3008Z" fill="white"/>
<path d="M384.984 70.7012C384.984 73.6074 384.316 75.9453 382.98 77.7148C381.645 79.4727 379.852 80.3516 377.602 80.3516C375.199 80.3516 373.342 79.502 372.029 77.8027L371.871 80H368.883V53H372.135V63.0723C373.447 61.4434 375.258 60.6289 377.566 60.6289C379.875 60.6289 381.686 61.502 382.998 63.248C384.322 64.9941 384.984 67.3848 384.984 70.4199V70.7012ZM381.732 70.332C381.732 68.1172 381.305 66.4062 380.449 65.1992C379.594 63.9922 378.363 63.3887 376.758 63.3887C374.613 63.3887 373.072 64.3848 372.135 66.377V74.6035C373.131 76.5957 374.684 77.5918 376.793 77.5918C378.352 77.5918 379.564 76.9883 380.432 75.7812C381.299 74.5742 381.732 72.7578 381.732 70.332Z" fill="white"/>
<path d="M396.99 80.3516C394.412 80.3516 392.314 79.5078 390.697 77.8203C389.08 76.1211 388.271 73.8535 388.271 71.0176V70.4199C388.271 68.5332 388.629 66.8516 389.344 65.375C390.07 63.8867 391.078 62.7266 392.367 61.8945C393.668 61.0508 395.074 60.6289 396.586 60.6289C399.059 60.6289 400.98 61.4434 402.352 63.0723C403.723 64.7012 404.408 67.0332 404.408 70.0684V71.4219H391.523C391.57 73.2969 392.115 74.8145 393.158 75.9746C394.213 77.123 395.549 77.6973 397.166 77.6973C398.314 77.6973 399.287 77.4629 400.084 76.9941C400.881 76.5254 401.578 75.9043 402.176 75.1309L404.162 76.6777C402.568 79.127 400.178 80.3516 396.99 80.3516ZM396.586 63.3008C395.273 63.3008 394.172 63.7812 393.281 64.7422C392.391 65.6914 391.84 67.0273 391.629 68.75H401.156V68.5039C401.062 66.8516 400.617 65.5742 399.82 64.6719C399.023 63.7578 397.945 63.3008 396.586 63.3008Z" fill="white"/>
<path d="M419.262 74.9551C419.262 74.0762 418.928 73.3965 418.26 72.916C417.604 72.4238 416.449 72.002 414.797 71.6504C413.156 71.2988 411.85 70.877 410.877 70.3848C409.916 69.8926 409.201 69.3066 408.732 68.627C408.275 67.9473 408.047 67.1387 408.047 66.2012C408.047 64.6426 408.703 63.3242 410.016 62.2461C411.34 61.168 413.027 60.6289 415.078 60.6289C417.234 60.6289 418.98 61.1855 420.316 62.2988C421.664 63.4121 422.338 64.8359 422.338 66.5703H419.068C419.068 65.6797 418.688 64.9121 417.926 64.2676C417.176 63.623 416.227 63.3008 415.078 63.3008C413.895 63.3008 412.969 63.5586 412.301 64.0742C411.633 64.5898 411.299 65.2637 411.299 66.0957C411.299 66.8809 411.609 67.4727 412.23 67.8711C412.852 68.2695 413.971 68.6504 415.588 69.0137C417.217 69.377 418.535 69.8105 419.543 70.3145C420.551 70.8184 421.295 71.4277 421.775 72.1426C422.268 72.8457 422.514 73.707 422.514 74.7266C422.514 76.4258 421.834 77.791 420.475 78.8223C419.115 79.8418 417.352 80.3516 415.184 80.3516C413.66 80.3516 412.312 80.082 411.141 79.543C409.969 79.0039 409.049 78.2539 408.381 77.293C407.725 76.3203 407.396 75.2715 407.396 74.1465H410.648C410.707 75.2363 411.141 76.1035 411.949 76.748C412.77 77.3809 413.848 77.6973 415.184 77.6973C416.414 77.6973 417.398 77.4512 418.137 76.959C418.887 76.4551 419.262 75.7871 419.262 74.9551Z" fill="white"/>
<path d="M438.738 60.9805L438.826 63.0898C440.221 61.4492 442.102 60.6289 444.469 60.6289C447.129 60.6289 448.939 61.6484 449.9 63.6875C450.533 62.7734 451.354 62.0352 452.361 61.4727C453.381 60.9102 454.582 60.6289 455.965 60.6289C460.137 60.6289 462.258 62.8379 462.328 67.2559V80H459.076V67.4492C459.076 66.0898 458.766 65.0762 458.145 64.4082C457.523 63.7285 456.48 63.3887 455.016 63.3887C453.809 63.3887 452.807 63.752 452.01 64.4785C451.213 65.1934 450.75 66.1602 450.621 67.3789V80H447.352V67.5371C447.352 64.7715 445.998 63.3887 443.291 63.3887C441.158 63.3887 439.699 64.2969 438.914 66.1133V80H435.662V60.9805H438.738Z" fill="white"/>
<path d="M466.389 70.3145C466.389 68.4512 466.752 66.7754 467.479 65.2871C468.217 63.7988 469.236 62.6504 470.537 61.8418C471.85 61.0332 473.344 60.6289 475.02 60.6289C477.609 60.6289 479.701 61.5254 481.295 63.3184C482.9 65.1113 483.703 67.4961 483.703 70.4727V70.7012C483.703 72.5527 483.346 74.2168 482.631 75.6934C481.928 77.1582 480.914 78.3008 479.59 79.1211C478.277 79.9414 476.766 80.3516 475.055 80.3516C472.477 80.3516 470.385 79.4551 468.779 77.6621C467.186 75.8691 466.389 73.4961 466.389 70.543V70.3145ZM469.658 70.7012C469.658 72.8105 470.145 74.5039 471.117 75.7812C472.102 77.0586 473.414 77.6973 475.055 77.6973C476.707 77.6973 478.02 77.0527 478.992 75.7637C479.965 74.4629 480.451 72.6465 480.451 70.3145C480.451 68.2285 479.953 66.541 478.957 65.252C477.973 63.9512 476.66 63.3008 475.02 63.3008C473.414 63.3008 472.119 63.9395 471.135 65.2168C470.15 66.4941 469.658 68.3223 469.658 70.7012Z" fill="white"/>
<path d="M493.775 75.5879L498.486 60.9805H501.809L494.988 80H492.51L485.619 60.9805H488.941L493.775 75.5879Z" fill="white"/>
<path d="M512.584 80.3516C510.006 80.3516 507.908 79.5078 506.291 77.8203C504.674 76.1211 503.865 73.8535 503.865 71.0176V70.4199C503.865 68.5332 504.223 66.8516 504.938 65.375C505.664 63.8867 506.672 62.7266 507.961 61.8945C509.262 61.0508 510.668 60.6289 512.18 60.6289C514.652 60.6289 516.574 61.4434 517.945 63.0723C519.316 64.7012 520.002 67.0332 520.002 70.0684V71.4219H507.117C507.164 73.2969 507.709 74.8145 508.752 75.9746C509.807 77.123 511.143 77.6973 512.76 77.6973C513.908 77.6973 514.881 77.4629 515.678 76.9941C516.475 76.5254 517.172 75.9043 517.77 75.1309L519.756 76.6777C518.162 79.127 515.771 80.3516 512.584 80.3516ZM512.18 63.3008C510.867 63.3008 509.766 63.7812 508.875 64.7422C507.984 65.6914 507.434 67.0273 507.223 68.75H516.75V68.5039C516.656 66.8516 516.211 65.5742 515.414 64.6719C514.617 63.7578 513.539 63.3008 512.18 63.3008Z" fill="white"/>
<path d="M532.975 63.8984C532.482 63.8164 531.949 63.7754 531.375 63.7754C529.242 63.7754 527.795 64.6836 527.033 66.5V80H523.781V60.9805H526.945L526.998 63.1777C528.064 61.4785 529.576 60.6289 531.533 60.6289C532.166 60.6289 532.646 60.7109 532.975 60.875V63.8984Z" fill="white"/>
<path d="M533.695 85.0977L531.85 83.832C532.951 82.2969 533.525 80.7148 533.572 79.0859V76.1504H536.754V78.6992C536.754 79.8828 536.461 81.0664 535.875 82.25C535.301 83.4336 534.574 84.3828 533.695 85.0977Z" fill="white"/>
<path d="M557.426 77.6973C558.586 77.6973 559.6 77.3457 560.467 76.6426C561.334 75.9395 561.814 75.0605 561.908 74.0059H564.984C564.926 75.0957 564.551 76.1328 563.859 77.1172C563.168 78.1016 562.242 78.8867 561.082 79.4727C559.934 80.0586 558.715 80.3516 557.426 80.3516C554.836 80.3516 552.773 79.4902 551.238 77.7676C549.715 76.0332 548.953 73.666 548.953 70.666V70.1211C548.953 68.2695 549.293 66.623 549.973 65.1816C550.652 63.7402 551.625 62.6211 552.891 61.8242C554.168 61.0273 555.674 60.6289 557.408 60.6289C559.541 60.6289 561.311 61.2676 562.717 62.5449C564.135 63.8223 564.891 65.4805 564.984 67.5195H561.908C561.814 66.2891 561.346 65.2812 560.502 64.4961C559.67 63.6992 558.639 63.3008 557.408 63.3008C555.756 63.3008 554.473 63.8984 553.559 65.0938C552.656 66.2773 552.205 67.9941 552.205 70.2441V70.8594C552.205 73.0508 552.656 74.7383 553.559 75.9219C554.461 77.1055 555.75 77.6973 557.426 77.6973Z" fill="white"/>
<path d="M567.779 70.3145C567.779 68.4512 568.143 66.7754 568.869 65.2871C569.607 63.7988 570.627 62.6504 571.928 61.8418C573.24 61.0332 574.734 60.6289 576.41 60.6289C579 60.6289 581.092 61.5254 582.686 63.3184C584.291 65.1113 585.094 67.4961 585.094 70.4727V70.7012C585.094 72.5527 584.736 74.2168 584.021 75.6934C583.318 77.1582 582.305 78.3008 580.98 79.1211C579.668 79.9414 578.156 80.3516 576.445 80.3516C573.867 80.3516 571.775 79.4551 570.17 77.6621C568.576 75.8691 567.779 73.4961 567.779 70.543V70.3145ZM571.049 70.7012C571.049 72.8105 571.535 74.5039 572.508 75.7812C573.492 77.0586 574.805 77.6973 576.445 77.6973C578.098 77.6973 579.41 77.0527 580.383 75.7637C581.355 74.4629 581.842 72.6465 581.842 70.3145C581.842 68.2285 581.344 66.541 580.348 65.252C579.363 63.9512 578.051 63.3008 576.41 63.3008C574.805 63.3008 573.51 63.9395 572.525 65.2168C571.541 66.4941 571.049 68.3223 571.049 70.7012Z" fill="white"/>
<path d="M592.23 60.9805L592.318 63.0898C593.713 61.4492 595.594 60.6289 597.961 60.6289C600.621 60.6289 602.432 61.6484 603.393 63.6875C604.025 62.7734 604.846 62.0352 605.854 61.4727C606.873 60.9102 608.074 60.6289 609.457 60.6289C613.629 60.6289 615.75 62.8379 615.82 67.2559V80H612.568V67.4492C612.568 66.0898 612.258 65.0762 611.637 64.4082C611.016 63.7285 609.973 63.3887 608.508 63.3887C607.301 63.3887 606.299 63.752 605.502 64.4785C604.705 65.1934 604.242 66.1602 604.113 67.3789V80H600.844V67.5371C600.844 64.7715 599.49 63.3887 596.783 63.3887C594.65 63.3887 593.191 64.2969 592.406 66.1133V80H589.154V60.9805H592.23Z" fill="white"/>
<path d="M619.881 70.3145C619.881 68.4512 620.244 66.7754 620.971 65.2871C621.709 63.7988 622.729 62.6504 624.029 61.8418C625.342 61.0332 626.836 60.6289 628.512 60.6289C631.102 60.6289 633.193 61.5254 634.787 63.3184C636.393 65.1113 637.195 67.4961 637.195 70.4727V70.7012C637.195 72.5527 636.838 74.2168 636.123 75.6934C635.42 77.1582 634.406 78.3008 633.082 79.1211C631.77 79.9414 630.258 80.3516 628.547 80.3516C625.969 80.3516 623.877 79.4551 622.271 77.6621C620.678 75.8691 619.881 73.4961 619.881 70.543V70.3145ZM623.15 70.7012C623.15 72.8105 623.637 74.5039 624.609 75.7812C625.594 77.0586 626.906 77.6973 628.547 77.6973C630.199 77.6973 631.512 77.0527 632.484 75.7637C633.457 74.4629 633.943 72.6465 633.943 70.3145C633.943 68.2285 633.445 66.541 632.449 65.252C631.465 63.9512 630.152 63.3008 628.512 63.3008C626.906 63.3008 625.611 63.9395 624.627 65.2168C623.643 66.4941 623.15 68.3223 623.15 70.7012Z" fill="white"/>
<path d="M653.262 60.9805L653.35 63.0898C654.744 61.4492 656.625 60.6289 658.992 60.6289C661.652 60.6289 663.463 61.6484 664.424 63.6875C665.057 62.7734 665.877 62.0352 666.885 61.4727C667.904 60.9102 669.105 60.6289 670.488 60.6289C674.66 60.6289 676.781 62.8379 676.852 67.2559V80H673.6V67.4492C673.6 66.0898 673.289 65.0762 672.668 64.4082C672.047 63.7285 671.004 63.3887 669.539 63.3887C668.332 63.3887 667.33 63.752 666.533 64.4785C665.736 65.1934 665.273 66.1602 665.145 67.3789V80H661.875V67.5371C661.875 64.7715 660.521 63.3887 657.814 63.3887C655.682 63.3887 654.223 64.2969 653.438 66.1133V80H650.186V60.9805H653.262Z" fill="white"/>
<path d="M685.307 80H682.037V60.9805H685.307V80ZM685.342 53.0176H689.279L684.568 58.1855H681.949L685.342 53.0176Z" fill="white"/>
<path d="M693.744 60.9805L693.85 63.3711C695.303 61.543 697.201 60.6289 699.545 60.6289C703.564 60.6289 705.592 62.8965 705.627 67.4316V80H702.375V67.4141C702.363 66.043 702.047 65.0293 701.426 64.373C700.816 63.7168 699.861 63.3887 698.561 63.3887C697.506 63.3887 696.58 63.6699 695.783 64.2324C694.986 64.7949 694.365 65.5332 693.92 66.4473V80H690.668V60.9805H693.744Z" fill="white"/>
<path d="M714.064 80H710.812V60.9805H714.064V80ZM710.549 55.9355C710.549 55.4082 710.707 54.9629 711.023 54.5996C711.352 54.2363 711.832 54.0547 712.465 54.0547C713.098 54.0547 713.578 54.2363 713.906 54.5996C714.234 54.9629 714.398 55.4082 714.398 55.9355C714.398 56.4629 714.234 56.9023 713.906 57.2539C713.578 57.6055 713.098 57.7812 712.465 57.7812C711.832 57.7812 711.352 57.6055 711.023 57.2539C710.707 56.9023 710.549 56.4629 710.549 55.9355Z" fill="white"/>
<path d="M722.344 60.9805L722.432 63.0898C723.826 61.4492 725.707 60.6289 728.074 60.6289C730.734 60.6289 732.545 61.6484 733.506 63.6875C734.139 62.7734 734.959 62.0352 735.967 61.4727C736.986 60.9102 738.188 60.6289 739.57 60.6289C743.742 60.6289 745.863 62.8379 745.934 67.2559V80H742.682V67.4492C742.682 66.0898 742.371 65.0762 741.75 64.4082C741.129 63.7285 740.086 63.3887 738.621 63.3887C737.414 63.3887 736.412 63.752 735.615 64.4785C734.818 65.1934 734.355 66.1602 734.227 67.3789V80H730.957V67.5371C730.957 64.7715 729.604 63.3887 726.896 63.3887C724.764 63.3887 723.305 64.2969 722.52 66.1133V80H719.268V60.9805H722.344Z" fill="white"/>
<path d="M749.994 70.3145C749.994 68.4512 750.357 66.7754 751.084 65.2871C751.822 63.7988 752.842 62.6504 754.143 61.8418C755.455 61.0332 756.949 60.6289 758.625 60.6289C761.215 60.6289 763.307 61.5254 764.9 63.3184C766.506 65.1113 767.309 67.4961 767.309 70.4727V70.7012C767.309 72.5527 766.951 74.2168 766.236 75.6934C765.533 77.1582 764.52 78.3008 763.195 79.1211C761.883 79.9414 760.371 80.3516 758.66 80.3516C756.082 80.3516 753.99 79.4551 752.385 77.6621C750.791 75.8691 749.994 73.4961 749.994 70.543V70.3145ZM753.264 70.7012C753.264 72.8105 753.75 74.5039 754.723 75.7812C755.707 77.0586 757.02 77.6973 758.66 77.6973C760.312 77.6973 761.625 77.0527 762.598 75.7637C763.57 74.4629 764.057 72.6465 764.057 70.3145C764.057 68.2285 763.559 66.541 762.562 65.252C761.578 63.9512 760.266 63.3008 758.625 63.3008C757.02 63.3008 755.725 63.9395 754.74 65.2168C753.756 66.4941 753.264 68.3223 753.264 70.7012Z" fill="white"/>
<path d="M771.281 85.0977L769.436 83.832C770.537 82.2969 771.111 80.7148 771.158 79.0859V76.1504H774.34V78.6992C774.34 79.8828 774.047 81.0664 773.461 82.25C772.887 83.4336 772.16 84.3828 771.281 85.0977Z" fill="white"/>
<path d="M803.449 70.7012C803.449 73.5957 802.787 75.9277 801.463 77.6973C800.139 79.4668 798.346 80.3516 796.084 80.3516C793.775 80.3516 791.959 79.6191 790.635 78.1543V87.3125H787.383V60.9805H790.354L790.512 63.0898C791.836 61.4492 793.676 60.6289 796.031 60.6289C798.316 60.6289 800.121 61.4902 801.445 63.2129C802.781 64.9355 803.449 67.332 803.449 70.4023V70.7012ZM800.197 70.332C800.197 68.1875 799.74 66.4941 798.826 65.252C797.912 64.0098 796.658 63.3887 795.064 63.3887C793.096 63.3887 791.619 64.2617 790.635 66.0078V75.0957C791.607 76.8301 793.096 77.6973 795.1 77.6973C796.658 77.6973 797.895 77.082 798.809 75.8516C799.734 74.6094 800.197 72.7695 800.197 70.332Z" fill="white"/>
<path d="M819.34 80C819.152 79.625 819 78.957 818.883 77.9961C817.371 79.5664 815.566 80.3516 813.469 80.3516C811.594 80.3516 810.053 79.8242 808.846 78.7695C807.65 77.7031 807.053 76.3555 807.053 74.7266C807.053 72.7461 807.803 71.2109 809.303 70.1211C810.814 69.0195 812.936 68.4688 815.666 68.4688H818.83V66.9746C818.83 65.8379 818.49 64.9355 817.811 64.2676C817.131 63.5879 816.129 63.248 814.805 63.248C813.645 63.248 812.672 63.541 811.887 64.127C811.102 64.7129 810.709 65.4219 810.709 66.2539H807.439C807.439 65.3047 807.773 64.3906 808.441 63.5117C809.121 62.6211 810.035 61.918 811.184 61.4023C812.344 60.8867 813.615 60.6289 814.998 60.6289C817.189 60.6289 818.906 61.1797 820.148 62.2812C821.391 63.3711 822.035 64.877 822.082 66.7988V75.5527C822.082 77.2988 822.305 78.6875 822.75 79.7188V80H819.34ZM813.943 77.5215C814.963 77.5215 815.93 77.2578 816.844 76.7305C817.758 76.2031 818.42 75.5176 818.83 74.6738V70.7715H816.281C812.297 70.7715 810.305 71.9375 810.305 74.2695C810.305 75.2891 810.645 76.0859 811.324 76.6602C812.004 77.2344 812.877 77.5215 813.943 77.5215Z" fill="white"/>
<path d="M836.373 63.8984C835.881 63.8164 835.348 63.7754 834.773 63.7754C832.641 63.7754 831.193 64.6836 830.432 66.5V80H827.18V60.9805H830.344L830.396 63.1777C831.463 61.4785 832.975 60.6289 834.932 60.6289C835.564 60.6289 836.045 60.7109 836.373 60.875V63.8984Z" fill="white"/>
<path d="M850.418 80C850.23 79.625 850.078 78.957 849.961 77.9961C848.449 79.5664 846.645 80.3516 844.547 80.3516C842.672 80.3516 841.131 79.8242 839.924 78.7695C838.729 77.7031 838.131 76.3555 838.131 74.7266C838.131 72.7461 838.881 71.2109 840.381 70.1211C841.893 69.0195 844.014 68.4688 846.744 68.4688H849.908V66.9746C849.908 65.8379 849.568 64.9355 848.889 64.2676C848.209 63.5879 847.207 63.248 845.883 63.248C844.723 63.248 843.75 63.541 842.965 64.127C842.18 64.7129 841.787 65.4219 841.787 66.2539H838.518C838.518 65.3047 838.852 64.3906 839.52 63.5117C840.199 62.6211 841.113 61.918 842.262 61.4023C843.422 60.8867 844.693 60.6289 846.076 60.6289C848.268 60.6289 849.984 61.1797 851.227 62.2812C852.469 63.3711 853.113 64.877 853.16 66.7988V75.5527C853.16 77.2988 853.383 78.6875 853.828 79.7188V80H850.418ZM845.021 77.5215C846.041 77.5215 847.008 77.2578 847.922 76.7305C848.836 76.2031 849.498 75.5176 849.908 74.6738V70.7715H847.359C843.375 70.7715 841.383 71.9375 841.383 74.2695C841.383 75.2891 841.723 76.0859 842.402 76.6602C843.082 77.2344 843.955 77.5215 845.021 77.5215Z" fill="white"/>
<path d="M52.5996 112.314C52.5996 110.451 52.9629 108.775 53.6895 107.287C54.4277 105.799 55.4473 104.65 56.748 103.842C58.0605 103.033 59.5547 102.629 61.2305 102.629C63.8203 102.629 65.9121 103.525 67.5059 105.318C69.1113 107.111 69.9141 109.496 69.9141 112.473V112.701C69.9141 114.553 69.5566 116.217 68.8418 117.693C68.1387 119.158 67.125 120.301 65.8008 121.121C64.4883 121.941 62.9766 122.352 61.2656 122.352C58.6875 122.352 56.5957 121.455 54.9902 119.662C53.3965 117.869 52.5996 115.496 52.5996 112.543V112.314ZM55.8691 112.701C55.8691 114.811 56.3555 116.504 57.3281 117.781C58.3125 119.059 59.625 119.697 61.2656 119.697C62.918 119.697 64.2305 119.053 65.2031 117.764C66.1758 116.463 66.6621 114.646 66.6621 112.314C66.6621 110.229 66.1641 108.541 65.168 107.252C64.1836 105.951 62.8711 105.301 61.2305 105.301C59.625 105.301 58.3301 105.939 57.3457 107.217C56.3613 108.494 55.8691 110.322 55.8691 112.701Z" fill="white"/>
<path d="M90.0938 112.701C90.0938 115.607 89.4258 117.945 88.0898 119.715C86.7539 121.473 84.9609 122.352 82.7109 122.352C80.3086 122.352 78.4512 121.502 77.1387 119.803L76.9805 122H73.9922V95H77.2441V105.072C78.5566 103.443 80.3672 102.629 82.6758 102.629C84.9844 102.629 86.7949 103.502 88.1074 105.248C89.4316 106.994 90.0938 109.385 90.0938 112.42V112.701ZM86.8418 112.332C86.8418 110.117 86.4141 108.406 85.5586 107.199C84.7031 105.992 83.4727 105.389 81.8672 105.389C79.7227 105.389 78.1816 106.385 77.2441 108.377V116.604C78.2402 118.596 79.793 119.592 81.9023 119.592C83.4609 119.592 84.6738 118.988 85.541 117.781C86.4082 116.574 86.8418 114.758 86.8418 112.332Z" fill="white"/>
<path d="M98.6191 98.375V102.98H102.17V105.494H98.6191V117.289C98.6191 118.051 98.7773 118.625 99.0938 119.012C99.4102 119.387 99.9492 119.574 100.711 119.574C101.086 119.574 101.602 119.504 102.258 119.363V122C101.402 122.234 100.57 122.352 99.7617 122.352C98.3086 122.352 97.2129 121.912 96.4746 121.033C95.7363 120.154 95.3672 118.906 95.3672 117.289V105.494H91.9043V102.98H95.3672V98.375H98.6191Z" fill="white"/>
<path d="M113.877 122.352C111.299 122.352 109.201 121.508 107.584 119.82C105.967 118.121 105.158 115.854 105.158 113.018V112.42C105.158 110.533 105.516 108.852 106.23 107.375C106.957 105.887 107.965 104.727 109.254 103.895C110.555 103.051 111.961 102.629 113.473 102.629C115.945 102.629 117.867 103.443 119.238 105.072C120.609 106.701 121.295 109.033 121.295 112.068V113.422H108.41C108.457 115.297 109.002 116.814 110.045 117.975C111.1 119.123 112.436 119.697 114.053 119.697C115.201 119.697 116.174 119.463 116.971 118.994C117.768 118.525 118.465 117.904 119.062 117.131L121.049 118.678C119.455 121.127 117.064 122.352 113.877 122.352ZM113.473 105.301C112.16 105.301 111.059 105.781 110.168 106.742C109.277 107.691 108.727 109.027 108.516 110.75H118.043V110.504C117.949 108.852 117.504 107.574 116.707 106.672C115.91 105.758 114.832 105.301 113.473 105.301Z" fill="white"/>
<path d="M128.15 102.98L128.256 105.371C129.709 103.543 131.607 102.629 133.951 102.629C137.971 102.629 139.998 104.896 140.033 109.432V122H136.781V109.414C136.77 108.043 136.453 107.029 135.832 106.373C135.223 105.717 134.268 105.389 132.967 105.389C131.912 105.389 130.986 105.67 130.189 106.232C129.393 106.795 128.771 107.533 128.326 108.447V122H125.074V102.98H128.15Z" fill="white"/>
<path d="M152.83 122.352C150.252 122.352 148.154 121.508 146.537 119.82C144.92 118.121 144.111 115.854 144.111 113.018V112.42C144.111 110.533 144.469 108.852 145.184 107.375C145.91 105.887 146.918 104.727 148.207 103.895C149.508 103.051 150.914 102.629 152.426 102.629C154.898 102.629 156.82 103.443 158.191 105.072C159.562 106.701 160.248 109.033 160.248 112.068V113.422H147.363C147.41 115.297 147.955 116.814 148.998 117.975C150.053 119.123 151.389 119.697 153.006 119.697C154.154 119.697 155.127 119.463 155.924 118.994C156.721 118.525 157.418 117.904 158.016 117.131L160.002 118.678C158.408 121.127 156.018 122.352 152.83 122.352ZM152.426 105.301C151.113 105.301 150.012 105.781 149.121 106.742C148.23 107.691 147.68 109.027 147.469 110.75H156.996V110.504C156.902 108.852 156.457 107.574 155.66 106.672C154.863 105.758 153.785 105.301 152.426 105.301Z" fill="white"/>
<path d="M173.221 105.898C172.729 105.816 172.195 105.775 171.621 105.775C169.488 105.775 168.041 106.684 167.279 108.5V122H164.027V102.98H167.191L167.244 105.178C168.311 103.479 169.822 102.629 171.779 102.629C172.412 102.629 172.893 102.711 173.221 102.875V105.898Z" fill="white"/>
<path d="M196.898 120.119C195.633 121.607 193.775 122.352 191.326 122.352C189.299 122.352 187.752 121.766 186.686 120.594C185.631 119.41 185.098 117.664 185.086 115.355V102.98H188.338V115.268C188.338 118.15 189.51 119.592 191.854 119.592C194.338 119.592 195.99 118.666 196.811 116.814V102.98H200.062V122H196.969L196.898 120.119Z" fill="white"/>
<path d="M208.096 102.98L208.201 105.371C209.654 103.543 211.553 102.629 213.896 102.629C217.916 102.629 219.943 104.896 219.979 109.432V122H216.727V109.414C216.715 108.043 216.398 107.029 215.777 106.373C215.168 105.717 214.213 105.389 212.912 105.389C211.857 105.389 210.932 105.67 210.135 106.232C209.338 106.795 208.717 107.533 208.271 108.447V122H205.02V102.98H208.096Z" fill="white"/>
<path d="M236.625 122C236.438 121.625 236.285 120.957 236.168 119.996C234.656 121.566 232.852 122.352 230.754 122.352C228.879 122.352 227.338 121.824 226.131 120.77C224.936 119.703 224.338 118.355 224.338 116.727C224.338 114.746 225.088 113.211 226.588 112.121C228.1 111.02 230.221 110.469 232.951 110.469H236.115V108.975C236.115 107.838 235.775 106.936 235.096 106.268C234.416 105.588 233.414 105.248 232.09 105.248C230.93 105.248 229.957 105.541 229.172 106.127C228.387 106.713 227.994 107.422 227.994 108.254H224.725C224.725 107.305 225.059 106.391 225.727 105.512C226.406 104.621 227.32 103.918 228.469 103.402C229.629 102.887 230.9 102.629 232.283 102.629C234.475 102.629 236.191 103.18 237.434 104.281C238.676 105.371 239.32 106.877 239.367 108.799V117.553C239.367 119.299 239.59 120.688 240.035 121.719V122H236.625ZM231.229 119.521C232.248 119.521 233.215 119.258 234.129 118.73C235.043 118.203 235.705 117.518 236.115 116.674V112.771H233.566C229.582 112.771 227.59 113.938 227.59 116.27C227.59 117.289 227.93 118.086 228.609 118.66C229.289 119.234 230.162 119.521 231.229 119.521Z" fill="white"/>
<path d="M256.928 122H253.676V102.98H256.928V122ZM253.412 97.9355C253.412 97.4082 253.57 96.9629 253.887 96.5996C254.215 96.2363 254.695 96.0547 255.328 96.0547C255.961 96.0547 256.441 96.2363 256.77 96.5996C257.098 96.9629 257.262 97.4082 257.262 97.9355C257.262 98.4629 257.098 98.9023 256.77 99.2539C256.441 99.6055 255.961 99.7812 255.328 99.7812C254.695 99.7812 254.215 99.6055 253.887 99.2539C253.57 98.9023 253.412 98.4629 253.412 97.9355Z" fill="white"/>
<path d="M261.375 112.332C261.375 109.367 262.061 107.012 263.432 105.266C264.803 103.508 266.619 102.629 268.881 102.629C271.201 102.629 273.012 103.449 274.312 105.09L274.471 102.98H277.441V121.543C277.441 124.004 276.709 125.943 275.244 127.361C273.791 128.779 271.834 129.488 269.373 129.488C268.002 129.488 266.66 129.195 265.348 128.609C264.035 128.023 263.033 127.221 262.342 126.201L264.029 124.25C265.424 125.973 267.129 126.834 269.145 126.834C270.727 126.834 271.957 126.389 272.836 125.498C273.727 124.607 274.172 123.354 274.172 121.736V120.102C272.871 121.602 271.096 122.352 268.846 122.352C266.619 122.352 264.814 121.455 263.432 119.662C262.061 117.869 261.375 115.426 261.375 112.332ZM264.645 112.701C264.645 114.846 265.084 116.533 265.963 117.764C266.842 118.982 268.072 119.592 269.654 119.592C271.705 119.592 273.211 118.66 274.172 116.797V108.113C273.176 106.297 271.682 105.389 269.689 105.389C268.107 105.389 266.871 106.004 265.98 107.234C265.09 108.465 264.645 110.287 264.645 112.701Z" fill="white"/>
<path d="M294.105 120.119C292.84 121.607 290.982 122.352 288.533 122.352C286.506 122.352 284.959 121.766 283.893 120.594C282.838 119.41 282.305 117.664 282.293 115.355V102.98H285.545V115.268C285.545 118.15 286.717 119.592 289.061 119.592C291.545 119.592 293.197 118.666 294.018 116.814V102.98H297.27V122H294.176L294.105 120.119Z" fill="white"/>
<path d="M313.969 122C313.781 121.625 313.629 120.957 313.512 119.996C312 121.566 310.195 122.352 308.098 122.352C306.223 122.352 304.682 121.824 303.475 120.77C302.279 119.703 301.682 118.355 301.682 116.727C301.682 114.746 302.432 113.211 303.932 112.121C305.443 111.02 307.564 110.469 310.295 110.469H313.459V108.975C313.459 107.838 313.119 106.936 312.439 106.268C311.76 105.588 310.758 105.248 309.434 105.248C308.273 105.248 307.301 105.541 306.516 106.127C305.73 106.713 305.338 107.422 305.338 108.254H302.068C302.068 107.305 302.402 106.391 303.07 105.512C303.75 104.621 304.664 103.918 305.812 103.402C306.973 102.887 308.244 102.629 309.627 102.629C311.818 102.629 313.535 103.18 314.777 104.281C316.02 105.371 316.664 106.877 316.711 108.799V117.553C316.711 119.299 316.934 120.688 317.379 121.719V122H313.969ZM308.572 119.521C309.592 119.521 310.559 119.258 311.473 118.73C312.387 118.203 313.049 117.518 313.459 116.674V112.771H310.91C306.926 112.771 304.934 113.938 304.934 116.27C304.934 117.289 305.273 118.086 305.953 118.66C306.633 119.234 307.506 119.521 308.572 119.521Z" fill="white"/>
<path d="M325.342 122H322.09V95H325.342V122Z" fill="white"/>
<path d="M329.771 112.332C329.771 109.414 330.463 107.07 331.846 105.301C333.229 103.52 335.039 102.629 337.277 102.629C339.504 102.629 341.268 103.391 342.568 104.914V95H345.82V122H342.832L342.674 119.961C341.373 121.555 339.562 122.352 337.242 122.352C335.039 122.352 333.24 121.449 331.846 119.645C330.463 117.84 329.771 115.484 329.771 112.578V112.332ZM333.023 112.701C333.023 114.857 333.469 116.545 334.359 117.764C335.25 118.982 336.48 119.592 338.051 119.592C340.113 119.592 341.619 118.666 342.568 116.814V108.078C341.596 106.285 340.102 105.389 338.086 105.389C336.492 105.389 335.25 106.004 334.359 107.234C333.469 108.465 333.023 110.287 333.023 112.701Z" fill="white"/>
<path d="M362.625 122C362.438 121.625 362.285 120.957 362.168 119.996C360.656 121.566 358.852 122.352 356.754 122.352C354.879 122.352 353.338 121.824 352.131 120.77C350.936 119.703 350.338 118.355 350.338 116.727C350.338 114.746 351.088 113.211 352.588 112.121C354.1 111.02 356.221 110.469 358.951 110.469H362.115V108.975C362.115 107.838 361.775 106.936 361.096 106.268C360.416 105.588 359.414 105.248 358.09 105.248C356.93 105.248 355.957 105.541 355.172 106.127C354.387 106.713 353.994 107.422 353.994 108.254H350.725C350.725 107.305 351.059 106.391 351.727 105.512C352.406 104.621 353.32 103.918 354.469 103.402C355.629 102.887 356.9 102.629 358.283 102.629C360.475 102.629 362.191 103.18 363.434 104.281C364.676 105.371 365.32 106.877 365.367 108.799V117.553C365.367 119.299 365.59 120.688 366.035 121.719V122H362.625ZM357.229 119.521C358.248 119.521 359.215 119.258 360.129 118.73C361.043 118.203 361.705 117.518 362.115 116.674V112.771H359.566C355.582 112.771 353.59 113.938 353.59 116.27C353.59 117.289 353.93 118.086 354.609 118.66C355.289 119.234 356.162 119.521 357.229 119.521Z" fill="white"/>
<path d="M369.674 112.332C369.674 109.414 370.365 107.07 371.748 105.301C373.131 103.52 374.941 102.629 377.18 102.629C379.406 102.629 381.17 103.391 382.471 104.914V95H385.723V122H382.734L382.576 119.961C381.275 121.555 379.465 122.352 377.145 122.352C374.941 122.352 373.143 121.449 371.748 119.645C370.365 117.84 369.674 115.484 369.674 112.578V112.332ZM372.926 112.701C372.926 114.857 373.371 116.545 374.262 117.764C375.152 118.982 376.383 119.592 377.953 119.592C380.016 119.592 381.521 118.666 382.471 116.814V108.078C381.498 106.285 380.004 105.389 377.988 105.389C376.395 105.389 375.152 106.004 374.262 107.234C373.371 108.465 372.926 110.287 372.926 112.701Z" fill="white"/>
<path d="M405.99 117.588L410.701 102.98H414.023L407.203 122H404.725L397.834 102.98H401.156L405.99 117.588Z" fill="white"/>
<path d="M424.799 122.352C422.221 122.352 420.123 121.508 418.506 119.82C416.889 118.121 416.08 115.854 416.08 113.018V112.42C416.08 110.533 416.438 108.852 417.152 107.375C417.879 105.887 418.887 104.727 420.176 103.895C421.477 103.051 422.883 102.629 424.395 102.629C426.867 102.629 428.789 103.443 430.16 105.072C431.531 106.701 432.217 109.033 432.217 112.068V113.422H419.332C419.379 115.297 419.924 116.814 420.967 117.975C422.021 119.123 423.357 119.697 424.975 119.697C426.123 119.697 427.096 119.463 427.893 118.994C428.689 118.525 429.387 117.904 429.984 117.131L431.971 118.678C430.377 121.127 427.986 122.352 424.799 122.352ZM424.395 105.301C423.082 105.301 421.98 105.781 421.09 106.742C420.199 107.691 419.648 109.027 419.438 110.75H428.965V110.504C428.871 108.852 428.426 107.574 427.629 106.672C426.832 105.758 425.754 105.301 424.395 105.301Z" fill="white"/>
<path d="M445.189 105.898C444.697 105.816 444.164 105.775 443.59 105.775C441.457 105.775 440.01 106.684 439.248 108.5V122H435.996V102.98H439.16L439.213 105.178C440.279 103.479 441.791 102.629 443.748 102.629C444.381 102.629 444.861 102.711 445.189 102.875V105.898Z" fill="white"/>
<path d="M447.053 112.332C447.053 109.414 447.744 107.07 449.127 105.301C450.51 103.52 452.32 102.629 454.559 102.629C456.785 102.629 458.549 103.391 459.85 104.914V95H463.102V122H460.113L459.955 119.961C458.654 121.555 456.844 122.352 454.523 122.352C452.32 122.352 450.521 121.449 449.127 119.645C447.744 117.84 447.053 115.484 447.053 112.578V112.332ZM450.305 112.701C450.305 114.857 450.75 116.545 451.641 117.764C452.531 118.982 453.762 119.592 455.332 119.592C457.395 119.592 458.9 118.666 459.85 116.814V108.078C458.877 106.285 457.383 105.389 455.367 105.389C453.773 105.389 452.531 106.004 451.641 107.234C450.75 108.465 450.305 110.287 450.305 112.701Z" fill="white"/>
<path d="M479.906 122C479.719 121.625 479.566 120.957 479.449 119.996C477.938 121.566 476.133 122.352 474.035 122.352C472.16 122.352 470.619 121.824 469.412 120.77C468.217 119.703 467.619 118.355 467.619 116.727C467.619 114.746 468.369 113.211 469.869 112.121C471.381 111.02 473.502 110.469 476.232 110.469H479.396V108.975C479.396 107.838 479.057 106.936 478.377 106.268C477.697 105.588 476.695 105.248 475.371 105.248C474.211 105.248 473.238 105.541 472.453 106.127C471.668 106.713 471.275 107.422 471.275 108.254H468.006C468.006 107.305 468.34 106.391 469.008 105.512C469.688 104.621 470.602 103.918 471.75 103.402C472.91 102.887 474.182 102.629 475.564 102.629C477.756 102.629 479.473 103.18 480.715 104.281C481.957 105.371 482.602 106.877 482.648 108.799V117.553C482.648 119.299 482.871 120.688 483.316 121.719V122H479.906ZM474.51 119.521C475.529 119.521 476.496 119.258 477.41 118.73C478.324 118.203 478.986 117.518 479.396 116.674V112.771H476.848C472.863 112.771 470.871 113.938 470.871 116.27C470.871 117.289 471.211 118.086 471.891 118.66C472.57 119.234 473.443 119.521 474.51 119.521Z" fill="white"/>
<path d="M486.955 112.332C486.955 109.414 487.646 107.07 489.029 105.301C490.412 103.52 492.223 102.629 494.461 102.629C496.688 102.629 498.451 103.391 499.752 104.914V95H503.004V122H500.016L499.857 119.961C498.557 121.555 496.746 122.352 494.426 122.352C492.223 122.352 490.424 121.449 489.029 119.645C487.646 117.84 486.955 115.484 486.955 112.578V112.332ZM490.207 112.701C490.207 114.857 490.652 116.545 491.543 117.764C492.434 118.982 493.664 119.592 495.234 119.592C497.297 119.592 498.803 118.666 499.752 116.814V108.078C498.779 106.285 497.285 105.389 495.27 105.389C493.676 105.389 492.434 106.004 491.543 107.234C490.652 108.465 490.207 110.287 490.207 112.701Z" fill="white"/>
<path d="M515.959 122.352C513.381 122.352 511.283 121.508 509.666 119.82C508.049 118.121 507.24 115.854 507.24 113.018V112.42C507.24 110.533 507.598 108.852 508.312 107.375C509.039 105.887 510.047 104.727 511.336 103.895C512.637 103.051 514.043 102.629 515.555 102.629C518.027 102.629 519.949 103.443 521.32 105.072C522.691 106.701 523.377 109.033 523.377 112.068V113.422H510.492C510.539 115.297 511.084 116.814 512.127 117.975C513.182 119.123 514.518 119.697 516.135 119.697C517.283 119.697 518.256 119.463 519.053 118.994C519.85 118.525 520.547 117.904 521.145 117.131L523.131 118.678C521.537 121.127 519.146 122.352 515.959 122.352ZM515.555 105.301C514.242 105.301 513.141 105.781 512.25 106.742C511.359 107.691 510.809 109.027 510.598 110.75H520.125V110.504C520.031 108.852 519.586 107.574 518.789 106.672C517.992 105.758 516.914 105.301 515.555 105.301Z" fill="white"/>
<path d="M536.35 105.898C535.857 105.816 535.324 105.775 534.75 105.775C532.617 105.775 531.17 106.684 530.408 108.5V122H527.156V102.98H530.32L530.373 105.178C531.439 103.479 532.951 102.629 534.908 102.629C535.541 102.629 536.021 102.711 536.35 102.875V105.898Z" fill="white"/>
<path d="M550.395 122C550.207 121.625 550.055 120.957 549.938 119.996C548.426 121.566 546.621 122.352 544.523 122.352C542.648 122.352 541.107 121.824 539.9 120.77C538.705 119.703 538.107 118.355 538.107 116.727C538.107 114.746 538.857 113.211 540.357 112.121C541.869 111.02 543.99 110.469 546.721 110.469H549.885V108.975C549.885 107.838 549.545 106.936 548.865 106.268C548.186 105.588 547.184 105.248 545.859 105.248C544.699 105.248 543.727 105.541 542.941 106.127C542.156 106.713 541.764 107.422 541.764 108.254H538.494C538.494 107.305 538.828 106.391 539.496 105.512C540.176 104.621 541.09 103.918 542.238 103.402C543.398 102.887 544.67 102.629 546.053 102.629C548.244 102.629 549.961 103.18 551.203 104.281C552.445 105.371 553.09 106.877 553.137 108.799V117.553C553.137 119.299 553.359 120.688 553.805 121.719V122H550.395ZM544.998 119.521C546.018 119.521 546.984 119.258 547.898 118.73C548.812 118.203 549.475 117.518 549.885 116.674V112.771H547.336C543.352 112.771 541.359 113.938 541.359 116.27C541.359 117.289 541.699 118.086 542.379 118.66C543.059 119.234 543.932 119.521 544.998 119.521Z" fill="white"/>
<path d="M562.049 114.793C562.072 113.398 562.23 112.297 562.523 111.488C562.816 110.68 563.414 109.783 564.316 108.799L566.619 106.426C567.604 105.312 568.096 104.117 568.096 102.84C568.096 101.609 567.773 100.648 567.129 99.957C566.484 99.2539 565.547 98.9023 564.316 98.9023C563.121 98.9023 562.16 99.2188 561.434 99.8516C560.707 100.484 560.344 101.334 560.344 102.4H557.092C557.115 100.502 557.789 98.9727 559.113 97.8125C560.449 96.6406 562.184 96.0547 564.316 96.0547C566.531 96.0547 568.254 96.6523 569.484 97.8477C570.727 99.0312 571.348 100.66 571.348 102.734C571.348 104.785 570.398 106.807 568.5 108.799L566.584 110.697C565.729 111.646 565.301 113.012 565.301 114.793H562.049ZM561.908 120.365C561.908 119.838 562.066 119.398 562.383 119.047C562.711 118.684 563.191 118.502 563.824 118.502C564.457 118.502 564.938 118.684 565.266 119.047C565.594 119.398 565.758 119.838 565.758 120.365C565.758 120.893 565.594 121.332 565.266 121.684C564.938 122.023 564.457 122.193 563.824 122.193C563.191 122.193 562.711 122.023 562.383 121.684C562.066 121.332 561.908 120.893 561.908 120.365Z" fill="white"/>
</g>
<g id="Group 1">
<g id="palito">
<path id="Line 2 (Stroke)" fill-rule="evenodd" clip-rule="evenodd" d="M294.645 284.355C293.668 283.379 293.57 281.894 294.425 281.039L353.265 222.2C354.12 221.344 355.605 221.443 356.581 222.419C357.557 223.395 357.656 224.88 356.801 225.735L297.961 284.575C297.106 285.43 295.621 285.332 294.645 284.355Z" fill="white"/>
<path id="Ellipse 1" d="M365.355 213.645C368.089 216.378 365.73 223.17 360.086 228.814C354.442 234.458 347.65 236.817 344.916 234.084C342.183 231.35 344.542 224.559 350.186 218.914C355.83 213.27 362.622 210.911 365.355 213.645Z" fill="#D40303"/>
</g>
<g id="palito_2">
<path id="Line 2 (Stroke)_2" fill-rule="evenodd" clip-rule="evenodd" d="M293.95 219.95C294.926 218.973 296.411 218.875 297.266 219.73L356.106 278.57C356.961 279.425 356.863 280.91 355.886 281.886C354.91 282.863 353.425 282.961 352.57 282.106L293.73 223.266C292.875 222.411 292.973 220.926 293.95 219.95Z" fill="white"/>
<path id="Ellipse 1_2" d="M364.66 290.66C361.927 293.394 355.135 291.035 349.491 285.391C343.847 279.747 341.488 272.955 344.221 270.221C346.955 267.488 353.747 269.847 359.391 275.491C365.035 281.135 367.394 287.927 364.66 290.66Z" fill="#D40303"/>
</g>
<g id="palito_3">
<path id="Line 2 (Stroke)_3" fill-rule="evenodd" clip-rule="evenodd" d="M413 303C411.619 303 410.5 302.02 410.5 300.81V217.598C410.5 216.389 411.619 215.409 413 215.409C414.381 215.409 415.5 216.389 415.5 217.598V300.81C415.5 302.02 414.381 303 413 303Z" fill="white"/>
<path id="Ellipse 1_3" d="M413 203C416.866 203 420 209.471 420 217.453C420 225.435 416.866 231.905 413 231.905C409.134 231.905 406 225.435 406 217.453C406 209.471 409.134 203 413 203Z" fill="#D40303"/>
</g>
<g id="palito_4">
<path id="Line 2 (Stroke)_4" fill-rule="evenodd" clip-rule="evenodd" d="M446 303C444.619 303 443.5 302.02 443.5 300.81V217.598C443.5 216.389 444.619 215.409 446 215.409C447.381 215.409 448.5 216.389 448.5 217.598V300.81C448.5 302.02 447.381 303 446 303Z" fill="white"/>
<path id="Ellipse 1_4" d="M446 203C449.866 203 453 209.471 453 217.453C453 225.435 449.866 231.905 446 231.905C442.134 231.905 439 225.435 439 217.453C439 209.471 442.134 203 446 203Z" fill="#D40303"/>
</g>
<g id="palito_5">
<path id="Line 2 (Stroke)_5" fill-rule="evenodd" clip-rule="evenodd" d="M484 303C482.619 303 481.5 302.02 481.5 300.81V217.598C481.5 216.389 482.619 215.409 484 215.409C485.381 215.409 486.5 216.389 486.5 217.598V300.81C486.5 302.02 485.381 303 484 303Z" fill="white"/>
<path id="Ellipse 1_5" d="M484 203C487.866 203 491 209.471 491 217.453C491 225.435 487.866 231.905 484 231.905C480.134 231.905 477 225.435 477 217.453C477 209.471 480.134 203 484 203Z" fill="#D40303"/>
</g>
<g id="palito_6">
<path id="Line 2 (Stroke)_6" fill-rule="evenodd" clip-rule="evenodd" d="M511 251C511 249.619 511.98 248.5 513.19 248.5H596.402C597.611 248.5 598.591 249.619 598.591 251C598.591 252.381 597.611 253.5 596.402 253.5H513.19C511.98 253.5 511 252.381 511 251Z" fill="white"/>
<path id="Ellipse 1_6" d="M611 251C611 254.866 604.529 258 596.548 258C588.566 258 582.095 254.866 582.095 251C582.095 247.134 588.566 244 596.548 244C604.529 244 611 247.134 611 251Z" fill="#D40303"/>
</g>
<g id="palito_7">
<path id="Line 2 (Stroke)_7" fill-rule="evenodd" clip-rule="evenodd" d="M511 277C511 275.619 511.98 274.5 513.19 274.5H596.402C597.611 274.5 598.591 275.619 598.591 277C598.591 278.381 597.611 279.5 596.402 279.5H513.19C511.98 279.5 511 278.381 511 277Z" fill="white"/>
<path id="Ellipse 1_7" d="M611 277C611 280.866 604.529 284 596.548 284C588.566 284 582.095 280.866 582.095 277C582.095 273.134 588.566 270 596.548 270C604.529 270 611 273.134 611 277Z" fill="#D40303"/>
</g>
<g id="palito_8">
<path id="Line 2 (Stroke)_8" fill-rule="evenodd" clip-rule="evenodd" d="M642 308C640.619 308 639.5 307.02 639.5 305.81V222.598C639.5 221.389 640.619 220.409 642 220.409C643.381 220.409 644.5 221.389 644.5 222.598V305.81C644.5 307.02 643.381 308 642 308Z" fill="white"/>
<path id="Ellipse 1_8" d="M642 208C645.866 208 649 214.471 649 222.453C649 230.435 645.866 236.905 642 236.905C638.134 236.905 635 230.435 635 222.453C635 214.471 638.134 208 642 208Z" fill="#D40303"/>
</g>
<g id="palito_9">
<path id="Line 2 (Stroke)_9" fill-rule="evenodd" clip-rule="evenodd" d="M680 309C678.619 309 677.5 308.02 677.5 306.81V223.598C677.5 222.389 678.619 221.409 680 221.409C681.381 221.409 682.5 222.389 682.5 223.598V306.81C682.5 308.02 681.381 309 680 309Z" fill="white"/>
<path id="Ellipse 1_9" d="M680 209C683.866 209 687 215.471 687 223.453C687 231.435 683.866 237.905 680 237.905C676.134 237.905 673 231.435 673 223.453C673 215.471 676.134 209 680 209Z" fill="#D40303"/>
</g>
</g>
</g>
<g id="claves01">
<g id="Group 99">
<path id="Rectangle 4" d="M49 411H265.745L299 451L265.745 491H49V411Z" fill="#F318F8" fill-opacity="0.1"/>
<path id="Rectangle 4 (Stroke)" fill-rule="evenodd" clip-rule="evenodd" d="M264.338 414H52V488H264.338L295.099 451L264.338 414ZM265.745 411H49V491H265.745L299 451L265.745 411Z" fill="#F318F8"/>
<path id="Ellipse 1_10" d="M90 451C90 473.091 72.0914 491 50 491C27.9086 491 10 473.091 10 451C10 428.909 27.9086 411 50 411C72.0914 411 90 428.909 90 451Z" fill="#F318F8"/>
<path id="A" d="M58.0938 461.406H40.4688L36.7812 472H28.5625L45.75 426.5H52.8438L70.0625 472H61.8125L58.0938 461.406ZM42.6875 455.031H55.875L49.2812 436.156L42.6875 455.031Z" fill="white"/>
</g>
<g id="Group 100">
<path id="Rectangle 5" d="M392 408H608.745L642 448L608.745 488H392V408Z" fill="#F318F8" fill-opacity="0.1"/>
<path id="Rectangle 5 (Stroke)" fill-rule="evenodd" clip-rule="evenodd" d="M607.338 411H395V485H607.338L638.099 448L607.338 411ZM608.745 408H392V488H608.745L642 448L608.745 408Z" fill="#F318F8"/>
<path id="Ellipse 2" d="M433 448C433 470.091 415.091 488 393 488C370.909 488 353 470.091 353 448C353 425.909 370.909 408 393 408C415.091 408 433 425.909 433 448Z" fill="#F318F8"/>
<path id="B" d="M376.625 464V418.5H392.219C397.365 418.5 401.281 419.531 403.969 421.594C406.656 423.656 408 426.729 408 430.812C408 432.896 407.438 434.771 406.312 436.438C405.188 438.104 403.542 439.396 401.375 440.312C403.833 440.979 405.729 442.24 407.062 444.094C408.417 445.927 409.094 448.135 409.094 450.719C409.094 454.99 407.719 458.271 404.969 460.562C402.24 462.854 398.323 464 393.219 464H376.625ZM384.531 443.469V457.688H393.312C395.792 457.688 397.729 457.073 399.125 455.844C400.521 454.615 401.219 452.906 401.219 450.719C401.219 445.99 398.802 443.573 393.969 443.469H384.531ZM384.531 437.656H392.281C394.74 437.656 396.656 437.104 398.031 436C399.427 434.875 400.125 433.292 400.125 431.25C400.125 429 399.479 427.375 398.188 426.375C396.917 425.375 394.927 424.875 392.219 424.875H384.531V437.656Z" fill="white"/>
</g>
<g id="Group 102">
<path id="Rectangle 7" d="M54 521H270.745L304 561L270.745 601H54V521Z" fill="#F318F8" fill-opacity="0.1"/>
<path id="Rectangle 7 (Stroke)" fill-rule="evenodd" clip-rule="evenodd" d="M269.338 524H57V598H269.338L300.099 561L269.338 524ZM270.745 521H54V601H270.745L304 561L270.745 521Z" fill="#F318F8"/>
<path id="Ellipse 4" d="M89 562C89 584.091 71.0914 602 49 602C26.9086 602 9 584.091 9 562C9 539.909 26.9086 522 49 522C71.0914 522 89 539.909 89 562Z" fill="#F318F8"/>
<path id="D" d="M31.625 584V538.5H45.0625C49.0833 538.5 52.6458 539.396 55.75 541.188C58.875 542.979 61.2917 545.521 63 548.812C64.7083 552.104 65.5625 555.875 65.5625 560.125V562.406C65.5625 566.719 64.6979 570.51 62.9688 573.781C61.2604 577.052 58.8125 579.573 55.625 581.344C52.4583 583.115 48.8229 584 44.7188 584H31.625ZM39.5312 544.875V577.688H44.6875C48.8333 577.688 52.0104 576.396 54.2188 573.812C56.4479 571.208 57.5833 567.479 57.625 562.625V560.094C57.625 555.156 56.5521 551.385 54.4062 548.781C52.2604 546.177 49.1458 544.875 45.0625 544.875H39.5312Z" fill="white"/>
</g>
<g id="Group 101">
<path id="Rectangle 6" d="M742 472H958.745L992 512L958.745 552H742V472Z" fill="#F318F8" fill-opacity="0.1"/>
<path id="Rectangle 6 (Stroke)" fill-rule="evenodd" clip-rule="evenodd" d="M957.338 475H745V549H957.338L988.099 512L957.338 475ZM958.745 472H742V552H958.745L992 512L958.745 472Z" fill="#F318F8"/>
<path id="Ellipse 3" d="M783 512C783 534.091 765.091 552 743 552C720.909 552 703 534.091 703 512C703 489.909 720.909 472 743 472C765.091 472 783 489.909 783 512Z" fill="#F318F8"/>
<path id="C" d="M760.344 519.188C759.885 524.042 758.094 527.833 754.969 530.562C751.844 533.271 747.688 534.625 742.5 534.625C738.875 534.625 735.677 533.771 732.906 532.062C730.156 530.333 728.031 527.885 726.531 524.719C725.031 521.552 724.25 517.875 724.188 513.688V509.438C724.188 505.146 724.948 501.365 726.469 498.094C727.99 494.823 730.167 492.302 733 490.531C735.854 488.76 739.146 487.875 742.875 487.875C747.896 487.875 751.938 489.24 755 491.969C758.062 494.698 759.844 498.552 760.344 503.531H752.469C752.094 500.26 751.135 497.906 749.594 496.469C748.073 495.01 745.833 494.281 742.875 494.281C739.438 494.281 736.792 495.542 734.938 498.062C733.104 500.562 732.167 504.24 732.125 509.094V513.125C732.125 518.042 733 521.792 734.75 524.375C736.521 526.958 739.104 528.25 742.5 528.25C745.604 528.25 747.938 527.552 749.5 526.156C751.062 524.76 752.052 522.438 752.469 519.188H760.344Z" fill="white"/>
</g>
<g id="Group 103">
<path id="Rectangle 8" d="M391 520H607.745L641 560L607.745 600H391V520Z" fill="#F318F8" fill-opacity="0.1"/>
<path id="Rectangle 8 (Stroke)" fill-rule="evenodd" clip-rule="evenodd" d="M606.338 523H394V597H606.338L637.099 560L606.338 523ZM607.745 520H391V600H607.745L641 560L607.745 520Z" fill="#F318F8"/>
<path id="Ellipse 5" d="M432 560C432 582.091 414.091 600 392 600C369.909 600 352 582.091 352 560C352 537.909 369.909 520 392 520C414.091 520 432 537.909 432 560Z" fill="#F318F8"/>
<path id="E" d="M401.219 561.688H382.531V575.688H404.375V582H374.625V536.5H404.156V542.875H382.531V555.438H401.219V561.688Z" fill="white"/>
</g>
<g id="1 2 3 4 5">
<path d="M151.814 466H148.545V444.326L141.988 446.734V443.781L151.305 440.283H151.814V466Z" fill="#F318F8"/>
<path d="M499.58 466H482.811V463.662L491.67 453.818C492.982 452.33 493.885 451.123 494.377 450.197C494.881 449.26 495.133 448.293 495.133 447.297C495.133 445.961 494.729 444.865 493.92 444.01C493.111 443.154 492.033 442.727 490.686 442.727C489.068 442.727 487.809 443.189 486.906 444.115C486.016 445.029 485.57 446.307 485.57 447.947H482.318C482.318 445.592 483.074 443.688 484.586 442.234C486.109 440.781 488.143 440.055 490.686 440.055C493.064 440.055 494.945 440.682 496.328 441.936C497.711 443.178 498.402 444.836 498.402 446.91C498.402 449.43 496.797 452.43 493.586 455.91L486.73 463.346H499.58V466Z" fill="#F318F8"/>
<path d="M851.301 506.621H853.744C855.279 506.598 856.486 506.193 857.365 505.408C858.244 504.623 858.684 503.562 858.684 502.227C858.684 499.227 857.189 497.727 854.201 497.727C852.795 497.727 851.67 498.131 850.826 498.939C849.994 499.736 849.578 500.797 849.578 502.121H846.326C846.326 500.094 847.064 498.412 848.541 497.076C850.029 495.729 851.916 495.055 854.201 495.055C856.615 495.055 858.508 495.693 859.879 496.971C861.25 498.248 861.936 500.023 861.936 502.297C861.936 503.41 861.572 504.488 860.846 505.531C860.131 506.574 859.152 507.354 857.91 507.869C859.316 508.314 860.4 509.053 861.162 510.084C861.936 511.115 862.322 512.375 862.322 513.863C862.322 516.16 861.572 517.982 860.072 519.33C858.572 520.678 856.621 521.352 854.219 521.352C851.816 521.352 849.859 520.701 848.348 519.4C846.848 518.1 846.098 516.383 846.098 514.25H849.367C849.367 515.598 849.807 516.676 850.686 517.484C851.564 518.293 852.742 518.697 854.219 518.697C855.789 518.697 856.99 518.287 857.822 517.467C858.654 516.646 859.07 515.469 859.07 513.934C859.07 512.445 858.613 511.303 857.699 510.506C856.785 509.709 855.467 509.299 853.744 509.275H851.301V506.621Z" fill="#F318F8"/>
<path d="M154.855 567.404H158.406V570.059H154.855V576H151.586V570.059H139.932V568.143L151.393 550.406H154.855V567.404ZM143.623 567.404H151.586V554.854L151.199 555.557L143.623 567.404Z" fill="#F318F8"/>
<path d="M484.305 563.168L485.605 550.406H498.719V553.412H488.365L487.592 560.391C488.846 559.652 490.27 559.283 491.863 559.283C494.195 559.283 496.047 560.057 497.418 561.604C498.789 563.139 499.475 565.219 499.475 567.844C499.475 570.48 498.76 572.561 497.33 574.084C495.912 575.596 493.926 576.352 491.371 576.352C489.109 576.352 487.264 575.725 485.834 574.471C484.404 573.217 483.59 571.482 483.391 569.268H486.467C486.666 570.732 487.188 571.84 488.031 572.59C488.875 573.328 489.988 573.697 491.371 573.697C492.883 573.697 494.066 573.182 494.922 572.15C495.789 571.119 496.223 569.695 496.223 567.879C496.223 566.168 495.754 564.797 494.816 563.766C493.891 562.723 492.654 562.201 491.107 562.201C489.689 562.201 488.576 562.512 487.768 563.133L486.906 563.836L484.305 563.168Z" fill="#F318F8"/>
</g>
<g id="flecha">
<path id="Rectangle 2" d="M58.2001 411.008L73.4819 419.133L31.5003 498.089L16.2185 489.963L58.2001 411.008Z" fill="#1043F5"/>
<path id="Rectangle 1_2" d="M0 423.904L90 374V431.692L45 414.096L0 423.904Z" fill="#1043F5"/>
<path id="Rectangle 3" d="M4.03848 493.21L19.6656 466.143L36.9363 465.565L21.3091 492.632L4.03848 493.21Z" fill="#1043F5"/>
<path id="Rectangle 4_2" d="M30.0894 507.845L45.7166 480.778L36.9259 465.154L21.2987 492.221L30.0894 507.845Z" fill="#1043F5"/>
</g>
</g>
</g>
</svg>
