<svg viewBox="0 0 990 838" fill="none" xmlns="http://www.w3.org/2000/svg">
<g id="0132104">
<g id="enunciado">
<g id="Group 71">
<path id="Rectangle 1" d="M24 82.183C24 39.1003 47.7112 4.1748 76.9605 4.1748H990V543.992C990 587.075 966.289 622 937.039 622H24V82.183Z" fill="#02071A"/>
<path id="Rectangle 1 (Stroke)" fill-rule="evenodd" clip-rule="evenodd" d="M984.704 11.9114H76.9605C50.6362 11.9114 29.2961 43.3476 29.2961 82.1261V614.198H937.039C963.364 614.198 984.704 582.762 984.704 543.983V11.9114ZM76.9605 4.10974C47.7112 4.10974 24 39.0389 24 82.1261V621.999H937.039C966.289 621.999 990 587.07 990 543.983V4.10974H76.9605Z" fill="#F318F8"/>
<path id="Rectangle 14" d="M81.3562 4.31484C109.682 -5.39355 990 4.31484 990 4.31484V46.3445C990 46.3445 66.3683 30.8964 33.5328 46.3445C43.7497 24.0526 53.0303 14.0232 81.3562 4.31484Z" fill="#F318F8"/>
<path id="Rectangle 15" d="M956.479 13.3585H987.968V545.599C984.103 581.718 976.092 594.993 956.479 612.321C962.252 583.945 956.479 13.3585 956.479 13.3585Z" fill="#F318F8"/>
</g>
<g id="Si la rueda &#226;&#128;&#156;E&#226;&#128;&#157; gira en sentido antihorario, &#194;&#191;cu&#195;&#161;ntas ruedas giran en sentido horario?">
<path d="M57.5117 84.0802C54.6172 83.2482 52.5078 82.2286 51.1836 81.0216C49.8711 79.8029 49.2148 78.3029 49.2148 76.5216C49.2148 74.506 50.0176 72.8419 51.623 71.5294C53.2402 70.2052 55.3379 69.5431 57.916 69.5431C59.6738 69.5431 61.2383 69.8829 62.6094 70.5626C63.9922 71.2423 65.0586 72.1798 65.8086 73.3751C66.5703 74.5704 66.9512 75.8771 66.9512 77.295H63.5586C63.5586 75.7482 63.0664 74.5353 62.082 73.6564C61.0977 72.7657 59.709 72.3204 57.916 72.3204C56.252 72.3204 54.9512 72.6896 54.0137 73.4279C53.0879 74.1544 52.625 75.1681 52.625 76.4689C52.625 77.5118 53.0645 78.3966 53.9434 79.1232C54.834 79.838 56.3398 80.4943 58.4609 81.0919C60.5938 81.6896 62.2578 82.3517 63.4531 83.0782C64.6602 83.7931 65.5508 84.631 66.125 85.5919C66.7109 86.5529 67.0039 87.6837 67.0039 88.9845C67.0039 91.0587 66.1953 92.7228 64.5781 93.9767C62.9609 95.2189 60.7988 95.84 58.0918 95.84C56.334 95.84 54.6934 95.506 53.1699 94.838C51.6465 94.1583 50.4688 93.2325 49.6367 92.0607C48.8164 90.8888 48.4062 89.5587 48.4062 88.0704H51.7988C51.7988 89.6173 52.3672 90.8419 53.5039 91.7443C54.6523 92.6349 56.1816 93.0802 58.0918 93.0802C59.873 93.0802 61.2383 92.7169 62.1875 91.9904C63.1367 91.2638 63.6113 90.2736 63.6113 89.0197C63.6113 87.7657 63.1719 86.799 62.293 86.1193C61.4141 85.4279 59.8203 84.7482 57.5117 84.0802Z" fill="white"/>
<path d="M74.3691 95.4884H71.1172V76.4689H74.3691V95.4884ZM70.8535 71.424C70.8535 70.8966 71.0117 70.4513 71.3281 70.088C71.6562 69.7247 72.1367 69.5431 72.7695 69.5431C73.4023 69.5431 73.8828 69.7247 74.2109 70.088C74.5391 70.4513 74.7031 70.8966 74.7031 71.424C74.7031 71.9513 74.5391 72.3907 74.2109 72.7423C73.8828 73.0939 73.4023 73.2697 72.7695 73.2697C72.1367 73.2697 71.6562 73.0939 71.3281 72.7423C71.0117 72.3907 70.8535 71.9513 70.8535 71.424Z" fill="white"/>
<path d="M92.0527 95.4884H88.8008V68.4884H92.0527V95.4884Z" fill="white"/>
<path d="M109.016 95.4884C108.828 95.1134 108.676 94.4454 108.559 93.4845C107.047 95.0548 105.242 95.84 103.145 95.84C101.27 95.84 99.7285 95.3126 98.5215 94.2579C97.3262 93.1915 96.7285 91.8439 96.7285 90.215C96.7285 88.2345 97.4785 86.6993 98.9785 85.6095C100.49 84.5079 102.611 83.9572 105.342 83.9572H108.506V82.463C108.506 81.3263 108.166 80.424 107.486 79.756C106.807 79.0763 105.805 78.7365 104.48 78.7365C103.32 78.7365 102.348 79.0294 101.562 79.6154C100.777 80.2013 100.385 80.9103 100.385 81.7423H97.1152C97.1152 80.7931 97.4492 79.879 98.1172 79.0001C98.7969 78.1095 99.7109 77.4064 100.859 76.8907C102.02 76.3751 103.291 76.1173 104.674 76.1173C106.865 76.1173 108.582 76.6681 109.824 77.7697C111.066 78.8595 111.711 80.3654 111.758 82.2872V91.0411C111.758 92.7872 111.98 94.1759 112.426 95.2072V95.4884H109.016ZM103.619 93.0099C104.639 93.0099 105.605 92.7462 106.52 92.2189C107.434 91.6915 108.096 91.006 108.506 90.1622V86.2599H105.957C101.973 86.2599 99.9805 87.4259 99.9805 89.7579C99.9805 90.7775 100.32 91.5743 101 92.1486C101.68 92.7228 102.553 93.0099 103.619 93.0099Z" fill="white"/>
<path d="M134.979 79.3868C134.486 79.3048 133.953 79.2638 133.379 79.2638C131.246 79.2638 129.799 80.172 129.037 81.9884V95.4884H125.785V76.4689H128.949L129.002 78.6661C130.068 76.9669 131.58 76.1173 133.537 76.1173C134.17 76.1173 134.65 76.1993 134.979 76.3634V79.3868Z" fill="white"/>
<path d="M149.727 93.6075C148.461 95.0958 146.604 95.84 144.154 95.84C142.127 95.84 140.58 95.254 139.514 94.0822C138.459 92.8986 137.926 91.1525 137.914 88.8439V76.4689H141.166V88.756C141.166 91.6388 142.338 93.0802 144.682 93.0802C147.166 93.0802 148.818 92.1544 149.639 90.3029V76.4689H152.891V95.4884H149.797L149.727 93.6075Z" fill="white"/>
<path d="M165.74 95.84C163.162 95.84 161.064 94.9962 159.447 93.3087C157.83 91.6095 157.021 89.3419 157.021 86.506V85.9083C157.021 84.0216 157.379 82.34 158.094 80.8634C158.82 79.3751 159.828 78.215 161.117 77.3829C162.418 76.5392 163.824 76.1173 165.336 76.1173C167.809 76.1173 169.73 76.9318 171.102 78.5607C172.473 80.1896 173.158 82.5216 173.158 85.5568V86.9103H160.273C160.32 88.7853 160.865 90.3029 161.908 91.463C162.963 92.6115 164.299 93.1857 165.916 93.1857C167.064 93.1857 168.037 92.9513 168.834 92.4825C169.631 92.0138 170.328 91.3927 170.926 90.6193L172.912 92.1661C171.318 94.6154 168.928 95.84 165.74 95.84ZM165.336 78.7892C164.023 78.7892 162.922 79.2697 162.031 80.2306C161.141 81.1798 160.59 82.5157 160.379 84.2384H169.906V83.9923C169.812 82.34 169.367 81.0626 168.57 80.1603C167.773 79.2462 166.695 78.7892 165.336 78.7892Z" fill="white"/>
<path d="M176.146 85.8204C176.146 82.9025 176.838 80.5587 178.221 78.7892C179.604 77.0079 181.414 76.1173 183.652 76.1173C185.879 76.1173 187.643 76.879 188.943 78.4025V68.4884H192.195V95.4884H189.207L189.049 93.4493C187.748 95.0431 185.938 95.84 183.617 95.84C181.414 95.84 179.615 94.9376 178.221 93.1329C176.838 91.3282 176.146 88.9728 176.146 86.0665V85.8204ZM179.398 86.1896C179.398 88.3458 179.844 90.0333 180.734 91.2521C181.625 92.4708 182.855 93.0802 184.426 93.0802C186.488 93.0802 187.994 92.1544 188.943 90.3029V81.5665C187.971 79.7736 186.477 78.8771 184.461 78.8771C182.867 78.8771 181.625 79.4923 180.734 80.7228C179.844 81.9532 179.398 83.7755 179.398 86.1896Z" fill="white"/>
<path d="M209 95.4884C208.812 95.1134 208.66 94.4454 208.543 93.4845C207.031 95.0548 205.227 95.84 203.129 95.84C201.254 95.84 199.713 95.3126 198.506 94.2579C197.311 93.1915 196.713 91.8439 196.713 90.215C196.713 88.2345 197.463 86.6993 198.963 85.6095C200.475 84.5079 202.596 83.9572 205.326 83.9572H208.49V82.463C208.49 81.3263 208.15 80.424 207.471 79.756C206.791 79.0763 205.789 78.7365 204.465 78.7365C203.305 78.7365 202.332 79.0294 201.547 79.6154C200.762 80.2013 200.369 80.9103 200.369 81.7423H197.1C197.1 80.7931 197.434 79.879 198.102 79.0001C198.781 78.1095 199.695 77.4064 200.844 76.8907C202.004 76.3751 203.275 76.1173 204.658 76.1173C206.85 76.1173 208.566 76.6681 209.809 77.7697C211.051 78.8595 211.695 80.3654 211.742 82.2872V91.0411C211.742 92.7872 211.965 94.1759 212.41 95.2072V95.4884H209ZM203.604 93.0099C204.623 93.0099 205.59 92.7462 206.504 92.2189C207.418 91.6915 208.08 91.006 208.49 90.1622V86.2599H205.941C201.957 86.2599 199.965 87.4259 199.965 89.7579C199.965 90.7775 200.305 91.5743 200.984 92.1486C201.664 92.7228 202.537 93.0099 203.604 93.0099Z" fill="white"/>
<path d="M228.195 68.1544L230.059 69.42C228.969 70.9083 228.406 72.5138 228.371 74.2365V76.6271H225.137V74.588C225.137 73.3927 225.418 72.2091 225.98 71.0372C226.555 69.8654 227.293 68.9044 228.195 68.1544ZM233.732 68.1544L235.596 69.42C234.506 70.9083 233.943 72.5138 233.908 74.2365V76.6271H230.674V74.588C230.674 73.3927 230.955 72.2091 231.518 71.0372C232.092 69.8654 232.83 68.9044 233.732 68.1544Z" fill="white"/>
<path d="M253.473 83.6583H242.381V92.7286H255.266V95.4884H239.006V69.8947H255.09V72.672H242.381V80.8986H253.473V83.6583Z" fill="white"/>
<path d="M259.396 77.1017L257.551 75.8361C258.641 74.3126 259.203 72.7072 259.238 71.0197V68.4884H262.455V70.7736C262.443 71.9454 262.15 73.1173 261.576 74.2892C261.014 75.4493 260.287 76.3868 259.396 77.1017ZM264.793 77.1017L262.947 75.8361C264.037 74.3126 264.6 72.7072 264.635 71.0197V68.4884H267.852V70.7736C267.84 71.9454 267.547 73.1173 266.973 74.2892C266.41 75.4493 265.684 76.3868 264.793 77.1017Z" fill="white"/>
<path d="M279.98 85.8204C279.98 82.8556 280.666 80.5001 282.037 78.754C283.408 76.9962 285.225 76.1173 287.486 76.1173C289.807 76.1173 291.617 76.9376 292.918 78.5782L293.076 76.4689H296.047V95.0314C296.047 97.4923 295.314 99.4318 293.85 100.85C292.396 102.268 290.439 102.977 287.979 102.977C286.607 102.977 285.266 102.684 283.953 102.098C282.641 101.512 281.639 100.709 280.947 99.6896L282.635 97.7384C284.029 99.4611 285.734 100.322 287.75 100.322C289.332 100.322 290.562 99.8771 291.441 98.9865C292.332 98.0958 292.777 96.8419 292.777 95.2247V93.59C291.477 95.09 289.701 95.84 287.451 95.84C285.225 95.84 283.42 94.9435 282.037 93.1505C280.666 91.3575 279.98 88.9142 279.98 85.8204ZM283.25 86.1896C283.25 88.3341 283.689 90.0216 284.568 91.2521C285.447 92.4708 286.678 93.0802 288.26 93.0802C290.311 93.0802 291.816 92.1486 292.777 90.2853V81.6017C291.781 79.7853 290.287 78.8771 288.295 78.8771C286.713 78.8771 285.477 79.4923 284.586 80.7228C283.695 81.9532 283.25 83.7755 283.25 86.1896Z" fill="white"/>
<path d="M304.502 95.4884H301.25V76.4689H304.502V95.4884ZM300.986 71.424C300.986 70.8966 301.145 70.4513 301.461 70.088C301.789 69.7247 302.27 69.5431 302.902 69.5431C303.535 69.5431 304.016 69.7247 304.344 70.088C304.672 70.4513 304.836 70.8966 304.836 71.424C304.836 71.9513 304.672 72.3907 304.344 72.7423C304.016 73.0939 303.535 73.2697 302.902 73.2697C302.27 73.2697 301.789 73.0939 301.461 72.7423C301.145 72.3907 300.986 71.9513 300.986 71.424Z" fill="white"/>
<path d="M318.916 79.3868C318.424 79.3048 317.891 79.2638 317.316 79.2638C315.184 79.2638 313.736 80.172 312.975 81.9884V95.4884H309.723V76.4689H312.887L312.939 78.6661C314.006 76.9669 315.518 76.1173 317.475 76.1173C318.107 76.1173 318.588 76.1993 318.916 76.3634V79.3868Z" fill="white"/>
<path d="M332.961 95.4884C332.773 95.1134 332.621 94.4454 332.504 93.4845C330.992 95.0548 329.188 95.84 327.09 95.84C325.215 95.84 323.674 95.3126 322.467 94.2579C321.271 93.1915 320.674 91.8439 320.674 90.215C320.674 88.2345 321.424 86.6993 322.924 85.6095C324.436 84.5079 326.557 83.9572 329.287 83.9572H332.451V82.463C332.451 81.3263 332.111 80.424 331.432 79.756C330.752 79.0763 329.75 78.7365 328.426 78.7365C327.266 78.7365 326.293 79.0294 325.508 79.6154C324.723 80.2013 324.33 80.9103 324.33 81.7423H321.061C321.061 80.7931 321.395 79.879 322.062 79.0001C322.742 78.1095 323.656 77.4064 324.805 76.8907C325.965 76.3751 327.236 76.1173 328.619 76.1173C330.811 76.1173 332.527 76.6681 333.77 77.7697C335.012 78.8595 335.656 80.3654 335.703 82.2872V91.0411C335.703 92.7872 335.926 94.1759 336.371 95.2072V95.4884H332.961ZM327.564 93.0099C328.584 93.0099 329.551 92.7462 330.465 92.2189C331.379 91.6915 332.041 91.006 332.451 90.1622V86.2599H329.902C325.918 86.2599 323.926 87.4259 323.926 89.7579C323.926 90.7775 324.266 91.5743 324.945 92.1486C325.625 92.7228 326.498 93.0099 327.564 93.0099Z" fill="white"/>
<path d="M357.623 95.84C355.045 95.84 352.947 94.9962 351.33 93.3087C349.713 91.6095 348.904 89.3419 348.904 86.506V85.9083C348.904 84.0216 349.262 82.34 349.977 80.8634C350.703 79.3751 351.711 78.215 353 77.3829C354.301 76.5392 355.707 76.1173 357.219 76.1173C359.691 76.1173 361.613 76.9318 362.984 78.5607C364.355 80.1896 365.041 82.5216 365.041 85.5568V86.9103H352.156C352.203 88.7853 352.748 90.3029 353.791 91.463C354.846 92.6115 356.182 93.1857 357.799 93.1857C358.947 93.1857 359.92 92.9513 360.717 92.4825C361.514 92.0138 362.211 91.3927 362.809 90.6193L364.795 92.1661C363.201 94.6154 360.811 95.84 357.623 95.84ZM357.219 78.7892C355.906 78.7892 354.805 79.2697 353.914 80.2306C353.023 81.1798 352.473 82.5157 352.262 84.2384H361.789V83.9923C361.695 82.34 361.25 81.0626 360.453 80.1603C359.656 79.2462 358.578 78.7892 357.219 78.7892Z" fill="white"/>
<path d="M371.896 76.4689L372.002 78.8595C373.455 77.0314 375.354 76.1173 377.697 76.1173C381.717 76.1173 383.744 78.3849 383.779 82.92V95.4884H380.527V82.9025C380.516 81.5314 380.199 80.5177 379.578 79.8615C378.969 79.2052 378.014 78.8771 376.713 78.8771C375.658 78.8771 374.732 79.1583 373.936 79.7208C373.139 80.2833 372.518 81.0216 372.072 81.9357V95.4884H368.82V76.4689H371.896Z" fill="white"/>
<path d="M408.688 90.4435C408.688 89.5646 408.354 88.8849 407.686 88.4044C407.029 87.9122 405.875 87.4904 404.223 87.1388C402.582 86.7872 401.275 86.3654 400.303 85.8732C399.342 85.381 398.627 84.795 398.158 84.1154C397.701 83.4357 397.473 82.6271 397.473 81.6896C397.473 80.131 398.129 78.8126 399.441 77.7345C400.766 76.6564 402.453 76.1173 404.504 76.1173C406.66 76.1173 408.406 76.674 409.742 77.7872C411.09 78.9005 411.764 80.3243 411.764 82.0587H408.494C408.494 81.1681 408.113 80.4005 407.352 79.756C406.602 79.1115 405.652 78.7892 404.504 78.7892C403.32 78.7892 402.395 79.047 401.727 79.5626C401.059 80.0782 400.725 80.7521 400.725 81.5841C400.725 82.3693 401.035 82.9611 401.656 83.3595C402.277 83.7579 403.396 84.1388 405.014 84.5021C406.643 84.8654 407.961 85.299 408.969 85.8029C409.977 86.3068 410.721 86.9161 411.201 87.631C411.693 88.3341 411.939 89.1954 411.939 90.215C411.939 91.9142 411.26 93.2794 409.9 94.3107C408.541 95.3302 406.777 95.84 404.609 95.84C403.086 95.84 401.738 95.5704 400.566 95.0314C399.395 94.4923 398.475 93.7423 397.807 92.7814C397.15 91.8087 396.822 90.7599 396.822 89.6349H400.074C400.133 90.7247 400.566 91.5919 401.375 92.2365C402.195 92.8693 403.273 93.1857 404.609 93.1857C405.84 93.1857 406.824 92.9396 407.562 92.4474C408.312 91.9435 408.688 91.2755 408.688 90.4435Z" fill="white"/>
<path d="M424.068 95.84C421.49 95.84 419.393 94.9962 417.775 93.3087C416.158 91.6095 415.35 89.3419 415.35 86.506V85.9083C415.35 84.0216 415.707 82.34 416.422 80.8634C417.148 79.3751 418.156 78.215 419.445 77.3829C420.746 76.5392 422.152 76.1173 423.664 76.1173C426.137 76.1173 428.059 76.9318 429.43 78.5607C430.801 80.1896 431.486 82.5216 431.486 85.5568V86.9103H418.602C418.648 88.7853 419.193 90.3029 420.236 91.463C421.291 92.6115 422.627 93.1857 424.244 93.1857C425.393 93.1857 426.365 92.9513 427.162 92.4825C427.959 92.0138 428.656 91.3927 429.254 90.6193L431.24 92.1661C429.646 94.6154 427.256 95.84 424.068 95.84ZM423.664 78.7892C422.352 78.7892 421.25 79.2697 420.359 80.2306C419.469 81.1798 418.918 82.5157 418.707 84.2384H428.234V83.9923C428.141 82.34 427.695 81.0626 426.898 80.1603C426.102 79.2462 425.023 78.7892 423.664 78.7892Z" fill="white"/>
<path d="M438.342 76.4689L438.447 78.8595C439.9 77.0314 441.799 76.1173 444.143 76.1173C448.162 76.1173 450.189 78.3849 450.225 82.92V95.4884H446.973V82.9025C446.961 81.5314 446.645 80.5177 446.023 79.8615C445.414 79.2052 444.459 78.8771 443.158 78.8771C442.104 78.8771 441.178 79.1583 440.381 79.7208C439.584 80.2833 438.963 81.0216 438.518 81.9357V95.4884H435.266V76.4689H438.342Z" fill="white"/>
<path d="M459.541 71.8634V76.4689H463.092V78.9825H459.541V90.7775C459.541 91.5392 459.699 92.1134 460.016 92.5001C460.332 92.8751 460.871 93.0626 461.633 93.0626C462.008 93.0626 462.523 92.9923 463.18 92.8517V95.4884C462.324 95.7228 461.492 95.84 460.684 95.84C459.23 95.84 458.135 95.4005 457.396 94.5216C456.658 93.6427 456.289 92.3947 456.289 90.7775V78.9825H452.826V76.4689H456.289V71.8634H459.541Z" fill="white"/>
<path d="M470.439 95.4884H467.188V76.4689H470.439V95.4884ZM466.924 71.424C466.924 70.8966 467.082 70.4513 467.398 70.088C467.727 69.7247 468.207 69.5431 468.84 69.5431C469.473 69.5431 469.953 69.7247 470.281 70.088C470.609 70.4513 470.773 70.8966 470.773 71.424C470.773 71.9513 470.609 72.3907 470.281 72.7423C469.953 73.0939 469.473 73.2697 468.84 73.2697C468.207 73.2697 467.727 73.0939 467.398 72.7423C467.082 72.3907 466.924 71.9513 466.924 71.424Z" fill="white"/>
<path d="M474.869 85.8204C474.869 82.9025 475.561 80.5587 476.943 78.7892C478.326 77.0079 480.137 76.1173 482.375 76.1173C484.602 76.1173 486.365 76.879 487.666 78.4025V68.4884H490.918V95.4884H487.93L487.771 93.4493C486.471 95.0431 484.66 95.84 482.34 95.84C480.137 95.84 478.338 94.9376 476.943 93.1329C475.561 91.3282 474.869 88.9728 474.869 86.0665V85.8204ZM478.121 86.1896C478.121 88.3458 478.566 90.0333 479.457 91.2521C480.348 92.4708 481.578 93.0802 483.148 93.0802C485.211 93.0802 486.717 92.1544 487.666 90.3029V81.5665C486.693 79.7736 485.199 78.8771 483.184 78.8771C481.59 78.8771 480.348 79.4923 479.457 80.7228C478.566 81.9532 478.121 83.7755 478.121 86.1896Z" fill="white"/>
<path d="M495.119 85.8029C495.119 83.9396 495.482 82.2638 496.209 80.7755C496.947 79.2872 497.967 78.1388 499.268 77.3302C500.58 76.5216 502.074 76.1173 503.75 76.1173C506.34 76.1173 508.432 77.0138 510.025 78.8068C511.631 80.5997 512.434 82.9845 512.434 85.9611V86.1896C512.434 88.0411 512.076 89.7052 511.361 91.1818C510.658 92.6466 509.645 93.7892 508.32 94.6095C507.008 95.4298 505.496 95.84 503.785 95.84C501.207 95.84 499.115 94.9435 497.51 93.1505C495.916 91.3575 495.119 88.9845 495.119 86.0314V85.8029ZM498.389 86.1896C498.389 88.299 498.875 89.9923 499.848 91.2697C500.832 92.547 502.145 93.1857 503.785 93.1857C505.438 93.1857 506.75 92.5411 507.723 91.2521C508.695 89.9513 509.182 88.1349 509.182 85.8029C509.182 83.7169 508.684 82.0294 507.688 80.7404C506.703 79.4396 505.391 78.7892 503.75 78.7892C502.145 78.7892 500.85 79.4279 499.865 80.7052C498.881 81.9825 498.389 83.8107 498.389 86.1896Z" fill="white"/>
<path d="M537.184 95.4884C536.996 95.1134 536.844 94.4454 536.727 93.4845C535.215 95.0548 533.41 95.84 531.312 95.84C529.438 95.84 527.896 95.3126 526.689 94.2579C525.494 93.1915 524.896 91.8439 524.896 90.215C524.896 88.2345 525.646 86.6993 527.146 85.6095C528.658 84.5079 530.779 83.9572 533.51 83.9572H536.674V82.463C536.674 81.3263 536.334 80.424 535.654 79.756C534.975 79.0763 533.973 78.7365 532.648 78.7365C531.488 78.7365 530.516 79.0294 529.73 79.6154C528.945 80.2013 528.553 80.9103 528.553 81.7423H525.283C525.283 80.7931 525.617 79.879 526.285 79.0001C526.965 78.1095 527.879 77.4064 529.027 76.8907C530.188 76.3751 531.459 76.1173 532.842 76.1173C535.033 76.1173 536.75 76.6681 537.992 77.7697C539.234 78.8595 539.879 80.3654 539.926 82.2872V91.0411C539.926 92.7872 540.148 94.1759 540.594 95.2072V95.4884H537.184ZM531.787 93.0099C532.807 93.0099 533.773 92.7462 534.688 92.2189C535.602 91.6915 536.264 91.006 536.674 90.1622V86.2599H534.125C530.141 86.2599 528.148 87.4259 528.148 89.7579C528.148 90.7775 528.488 91.5743 529.168 92.1486C529.848 92.7228 530.721 93.0099 531.787 93.0099Z" fill="white"/>
<path d="M548.1 76.4689L548.205 78.8595C549.658 77.0314 551.557 76.1173 553.9 76.1173C557.92 76.1173 559.947 78.3849 559.982 82.92V95.4884H556.73V82.9025C556.719 81.5314 556.402 80.5177 555.781 79.8615C555.172 79.2052 554.217 78.8771 552.916 78.8771C551.861 78.8771 550.936 79.1583 550.139 79.7208C549.342 80.2833 548.721 81.0216 548.275 81.9357V95.4884H545.023V76.4689H548.1Z" fill="white"/>
<path d="M569.299 71.8634V76.4689H572.85V78.9825H569.299V90.7775C569.299 91.5392 569.457 92.1134 569.773 92.5001C570.09 92.8751 570.629 93.0626 571.391 93.0626C571.766 93.0626 572.281 92.9923 572.938 92.8517V95.4884C572.082 95.7228 571.25 95.84 570.441 95.84C568.988 95.84 567.893 95.4005 567.154 94.5216C566.416 93.6427 566.047 92.3947 566.047 90.7775V78.9825H562.584V76.4689H566.047V71.8634H569.299Z" fill="white"/>
<path d="M580.197 95.4884H576.945V76.4689H580.197V95.4884ZM576.682 71.424C576.682 70.8966 576.84 70.4513 577.156 70.088C577.484 69.7247 577.965 69.5431 578.598 69.5431C579.23 69.5431 579.711 69.7247 580.039 70.088C580.367 70.4513 580.531 70.8966 580.531 71.424C580.531 71.9513 580.367 72.3907 580.039 72.7423C579.711 73.0939 579.23 73.2697 578.598 73.2697C577.965 73.2697 577.484 73.0939 577.156 72.7423C576.84 72.3907 576.682 71.9513 576.682 71.424Z" fill="white"/>
<path d="M588.67 78.7716C590.111 77.0021 591.986 76.1173 594.295 76.1173C598.314 76.1173 600.342 78.3849 600.377 82.92V95.4884H597.125V82.9025C597.113 81.5314 596.797 80.5177 596.176 79.8615C595.566 79.2052 594.611 78.8771 593.311 78.8771C592.256 78.8771 591.33 79.1583 590.533 79.7208C589.736 80.2833 589.115 81.0216 588.67 81.9357V95.4884H585.418V68.4884H588.67V78.7716Z" fill="white"/>
<path d="M604.385 85.8029C604.385 83.9396 604.748 82.2638 605.475 80.7755C606.213 79.2872 607.232 78.1388 608.533 77.3302C609.846 76.5216 611.34 76.1173 613.016 76.1173C615.605 76.1173 617.697 77.0138 619.291 78.8068C620.896 80.5997 621.699 82.9845 621.699 85.9611V86.1896C621.699 88.0411 621.342 89.7052 620.627 91.1818C619.924 92.6466 618.91 93.7892 617.586 94.6095C616.273 95.4298 614.762 95.84 613.051 95.84C610.473 95.84 608.381 94.9435 606.775 93.1505C605.182 91.3575 604.385 88.9845 604.385 86.0314V85.8029ZM607.654 86.1896C607.654 88.299 608.141 89.9923 609.113 91.2697C610.098 92.547 611.41 93.1857 613.051 93.1857C614.703 93.1857 616.016 92.5411 616.988 91.2521C617.961 89.9513 618.447 88.1349 618.447 85.8029C618.447 83.7169 617.949 82.0294 616.953 80.7404C615.969 79.4396 614.656 78.7892 613.016 78.7892C611.41 78.7892 610.115 79.4279 609.131 80.7052C608.146 81.9825 607.654 83.8107 607.654 86.1896Z" fill="white"/>
<path d="M634.971 79.3868C634.479 79.3048 633.945 79.2638 633.371 79.2638C631.238 79.2638 629.791 80.172 629.029 81.9884V95.4884H625.777V76.4689H628.941L628.994 78.6661C630.061 76.9669 631.572 76.1173 633.529 76.1173C634.162 76.1173 634.643 76.1993 634.971 76.3634V79.3868Z" fill="white"/>
<path d="M649.016 95.4884C648.828 95.1134 648.676 94.4454 648.559 93.4845C647.047 95.0548 645.242 95.84 643.145 95.84C641.27 95.84 639.729 95.3126 638.521 94.2579C637.326 93.1915 636.729 91.8439 636.729 90.215C636.729 88.2345 637.479 86.6993 638.979 85.6095C640.49 84.5079 642.611 83.9572 645.342 83.9572H648.506V82.463C648.506 81.3263 648.166 80.424 647.486 79.756C646.807 79.0763 645.805 78.7365 644.48 78.7365C643.32 78.7365 642.348 79.0294 641.562 79.6154C640.777 80.2013 640.385 80.9103 640.385 81.7423H637.115C637.115 80.7931 637.449 79.879 638.117 79.0001C638.797 78.1095 639.711 77.4064 640.859 76.8907C642.02 76.3751 643.291 76.1173 644.674 76.1173C646.865 76.1173 648.582 76.6681 649.824 77.7697C651.066 78.8595 651.711 80.3654 651.758 82.2872V91.0411C651.758 92.7872 651.98 94.1759 652.426 95.2072V95.4884H649.016ZM643.619 93.0099C644.639 93.0099 645.605 92.7462 646.52 92.2189C647.434 91.6915 648.096 91.006 648.506 90.1622V86.2599H645.957C641.973 86.2599 639.98 87.4259 639.98 89.7579C639.98 90.7775 640.32 91.5743 641 92.1486C641.68 92.7228 642.553 93.0099 643.619 93.0099Z" fill="white"/>
<path d="M666.049 79.3868C665.557 79.3048 665.023 79.2638 664.449 79.2638C662.316 79.2638 660.869 80.172 660.107 81.9884V95.4884H656.855V76.4689H660.02L660.072 78.6661C661.139 76.9669 662.65 76.1173 664.607 76.1173C665.24 76.1173 665.721 76.1993 666.049 76.3634V79.3868Z" fill="white"/>
<path d="M672.588 95.4884H669.336V76.4689H672.588V95.4884ZM669.072 71.424C669.072 70.8966 669.23 70.4513 669.547 70.088C669.875 69.7247 670.355 69.5431 670.988 69.5431C671.621 69.5431 672.102 69.7247 672.43 70.088C672.758 70.4513 672.922 70.8966 672.922 71.424C672.922 71.9513 672.758 72.3907 672.43 72.7423C672.102 73.0939 671.621 73.2697 670.988 73.2697C670.355 73.2697 669.875 73.0939 669.547 72.7423C669.23 72.3907 669.072 71.9513 669.072 71.424Z" fill="white"/>
<path d="M676.947 85.8029C676.947 83.9396 677.311 82.2638 678.037 80.7755C678.775 79.2872 679.795 78.1388 681.096 77.3302C682.408 76.5216 683.902 76.1173 685.578 76.1173C688.168 76.1173 690.26 77.0138 691.854 78.8068C693.459 80.5997 694.262 82.9845 694.262 85.9611V86.1896C694.262 88.0411 693.904 89.7052 693.189 91.1818C692.486 92.6466 691.473 93.7892 690.148 94.6095C688.836 95.4298 687.324 95.84 685.613 95.84C683.035 95.84 680.943 94.9435 679.338 93.1505C677.744 91.3575 676.947 88.9845 676.947 86.0314V85.8029ZM680.217 86.1896C680.217 88.299 680.703 89.9923 681.676 91.2697C682.66 92.547 683.973 93.1857 685.613 93.1857C687.266 93.1857 688.578 92.5411 689.551 91.2521C690.523 89.9513 691.01 88.1349 691.01 85.8029C691.01 83.7169 690.512 82.0294 689.516 80.7404C688.531 79.4396 687.219 78.7892 685.578 78.7892C683.973 78.7892 682.678 79.4279 681.693 80.7052C680.709 81.9825 680.217 83.8107 680.217 86.1896Z" fill="white"/>
<path d="M698.234 100.586L696.389 99.3204C697.49 97.7853 698.064 96.2032 698.111 94.5743V91.6388H701.293V94.1876C701.293 95.3712 701 96.5548 700.414 97.7384C699.84 98.922 699.113 99.8712 698.234 100.586Z" fill="white"/>
<path d="M722.211 83.5353C722.199 84.7775 722.07 85.7736 721.824 86.5236C721.59 87.2618 721.191 87.9767 720.629 88.6681C720.066 89.3595 719.246 90.2736 718.168 91.4103C717.09 92.5353 716.486 93.6779 716.357 94.838L716.322 95.4884C716.322 96.7657 716.662 97.7384 717.342 98.4064C718.021 99.0861 719 99.4259 720.277 99.4259C721.449 99.4259 722.398 99.0919 723.125 98.424C723.863 97.7677 724.232 96.9064 724.232 95.84H727.484C727.461 97.7267 726.787 99.2677 725.463 100.463C724.15 101.658 722.422 102.256 720.277 102.256C717.98 102.256 716.205 101.664 714.951 100.481C713.697 99.3087 713.07 97.674 713.07 95.5763C713.07 93.549 714.008 91.5099 715.883 89.4591L717.799 87.4728C718.572 86.5587 718.959 85.2462 718.959 83.5353H722.211ZM722.352 77.963C722.352 78.4904 722.188 78.9357 721.859 79.299C721.543 79.6622 721.068 79.8439 720.436 79.8439C719.803 79.8439 719.322 79.6622 718.994 79.299C718.666 78.9357 718.502 78.4904 718.502 77.963C718.502 77.4474 718.666 77.0138 718.994 76.6622C719.322 76.3107 719.803 76.1349 720.436 76.1349C721.068 76.1349 721.543 76.3107 721.859 76.6622C722.188 77.0138 722.352 77.4474 722.352 77.963Z" fill="white"/>
<path d="M739.016 93.1857C740.176 93.1857 741.189 92.8341 742.057 92.131C742.924 91.4279 743.404 90.549 743.498 89.4943H746.574C746.516 90.5841 746.141 91.6212 745.449 92.6056C744.758 93.59 743.832 94.3751 742.672 94.9611C741.523 95.547 740.305 95.84 739.016 95.84C736.426 95.84 734.363 94.9786 732.828 93.256C731.305 91.5216 730.543 89.1544 730.543 86.1544V85.6095C730.543 83.7579 730.883 82.1115 731.562 80.67C732.242 79.2286 733.215 78.1095 734.48 77.3126C735.758 76.5157 737.264 76.1173 738.998 76.1173C741.131 76.1173 742.9 76.756 744.307 78.0333C745.725 79.3107 746.48 80.9689 746.574 83.0079H743.498C743.404 81.7775 742.936 80.7697 742.092 79.9845C741.26 79.1876 740.229 78.7892 738.998 78.7892C737.346 78.7892 736.062 79.3868 735.148 80.5822C734.246 81.7657 733.795 83.4825 733.795 85.7325V86.3478C733.795 88.5392 734.246 90.2267 735.148 91.4103C736.051 92.5939 737.34 93.1857 739.016 93.1857Z" fill="white"/>
<path d="M761.973 93.6075C760.707 95.0958 758.85 95.84 756.4 95.84C754.373 95.84 752.826 95.254 751.76 94.0822C750.705 92.8986 750.172 91.1525 750.16 88.8439V76.4689H753.412V88.756C753.412 91.6388 754.584 93.0802 756.928 93.0802C759.412 93.0802 761.064 92.1544 761.885 90.3029V76.4689H765.137V95.4884H762.043L761.973 93.6075Z" fill="white"/>
<path d="M781.836 95.4884C781.648 95.1134 781.496 94.4454 781.379 93.4845C779.867 95.0548 778.062 95.84 775.965 95.84C774.09 95.84 772.549 95.3126 771.342 94.2579C770.146 93.1915 769.549 91.8439 769.549 90.215C769.549 88.2345 770.299 86.6993 771.799 85.6095C773.311 84.5079 775.432 83.9572 778.162 83.9572H781.326V82.463C781.326 81.3263 780.986 80.424 780.307 79.756C779.627 79.0763 778.625 78.7365 777.301 78.7365C776.141 78.7365 775.168 79.0294 774.383 79.6154C773.598 80.2013 773.205 80.9103 773.205 81.7423H769.936C769.936 80.7931 770.27 79.879 770.938 79.0001C771.617 78.1095 772.531 77.4064 773.68 76.8907C774.84 76.3751 776.111 76.1173 777.494 76.1173C779.686 76.1173 781.402 76.6681 782.645 77.7697C783.887 78.8595 784.531 80.3654 784.578 82.2872V91.0411C784.578 92.7872 784.801 94.1759 785.246 95.2072V95.4884H781.836ZM776.439 93.0099C777.459 93.0099 778.426 92.7462 779.34 92.2189C780.254 91.6915 780.916 91.006 781.326 90.1622V86.2599H778.777C774.793 86.2599 772.801 87.4259 772.801 89.7579C772.801 90.7775 773.141 91.5743 773.82 92.1486C774.5 92.7228 775.373 93.0099 776.439 93.0099ZM779.445 68.4884H783.383L778.672 73.6564H776.053L779.445 68.4884Z" fill="white"/>
<path d="M792.752 76.4689L792.857 78.8595C794.311 77.0314 796.209 76.1173 798.553 76.1173C802.572 76.1173 804.6 78.3849 804.635 82.92V95.4884H801.383V82.9025C801.371 81.5314 801.055 80.5177 800.434 79.8615C799.824 79.2052 798.869 78.8771 797.568 78.8771C796.514 78.8771 795.588 79.1583 794.791 79.7208C793.994 80.2833 793.373 81.0216 792.928 81.9357V95.4884H789.676V76.4689H792.752Z" fill="white"/>
<path d="M813.951 71.8634V76.4689H817.502V78.9825H813.951V90.7775C813.951 91.5392 814.109 92.1134 814.426 92.5001C814.742 92.8751 815.281 93.0626 816.043 93.0626C816.418 93.0626 816.934 92.9923 817.59 92.8517V95.4884C816.734 95.7228 815.902 95.84 815.094 95.84C813.641 95.84 812.545 95.4005 811.807 94.5216C811.068 93.6427 810.699 92.3947 810.699 90.7775V78.9825H807.236V76.4689H810.699V71.8634H813.951Z" fill="white"/>
<path d="M833.059 95.4884C832.871 95.1134 832.719 94.4454 832.602 93.4845C831.09 95.0548 829.285 95.84 827.188 95.84C825.312 95.84 823.771 95.3126 822.564 94.2579C821.369 93.1915 820.771 91.8439 820.771 90.215C820.771 88.2345 821.521 86.6993 823.021 85.6095C824.533 84.5079 826.654 83.9572 829.385 83.9572H832.549V82.463C832.549 81.3263 832.209 80.424 831.529 79.756C830.85 79.0763 829.848 78.7365 828.523 78.7365C827.363 78.7365 826.391 79.0294 825.605 79.6154C824.82 80.2013 824.428 80.9103 824.428 81.7423H821.158C821.158 80.7931 821.492 79.879 822.16 79.0001C822.84 78.1095 823.754 77.4064 824.902 76.8907C826.062 76.3751 827.334 76.1173 828.717 76.1173C830.908 76.1173 832.625 76.6681 833.867 77.7697C835.109 78.8595 835.754 80.3654 835.801 82.2872V91.0411C835.801 92.7872 836.023 94.1759 836.469 95.2072V95.4884H833.059ZM827.662 93.0099C828.682 93.0099 829.648 92.7462 830.562 92.2189C831.477 91.6915 832.139 91.006 832.549 90.1622V86.2599H830C826.016 86.2599 824.023 87.4259 824.023 89.7579C824.023 90.7775 824.363 91.5743 825.043 92.1486C825.723 92.7228 826.596 93.0099 827.662 93.0099Z" fill="white"/>
<path d="M851.973 90.4435C851.973 89.5646 851.639 88.8849 850.971 88.4044C850.314 87.9122 849.16 87.4904 847.508 87.1388C845.867 86.7872 844.561 86.3654 843.588 85.8732C842.627 85.381 841.912 84.795 841.443 84.1154C840.986 83.4357 840.758 82.6271 840.758 81.6896C840.758 80.131 841.414 78.8126 842.727 77.7345C844.051 76.6564 845.738 76.1173 847.789 76.1173C849.945 76.1173 851.691 76.674 853.027 77.7872C854.375 78.9005 855.049 80.3243 855.049 82.0587H851.779C851.779 81.1681 851.398 80.4005 850.637 79.756C849.887 79.1115 848.938 78.7892 847.789 78.7892C846.605 78.7892 845.68 79.047 845.012 79.5626C844.344 80.0782 844.01 80.7521 844.01 81.5841C844.01 82.3693 844.32 82.9611 844.941 83.3595C845.562 83.7579 846.682 84.1388 848.299 84.5021C849.928 84.8654 851.246 85.299 852.254 85.8029C853.262 86.3068 854.006 86.9161 854.486 87.631C854.979 88.3341 855.225 89.1954 855.225 90.215C855.225 91.9142 854.545 93.2794 853.186 94.3107C851.826 95.3302 850.062 95.84 847.895 95.84C846.371 95.84 845.023 95.5704 843.852 95.0314C842.68 94.4923 841.76 93.7423 841.092 92.7814C840.436 91.8087 840.107 90.7599 840.107 89.6349H843.359C843.418 90.7247 843.852 91.5919 844.66 92.2365C845.48 92.8693 846.559 93.1857 847.895 93.1857C849.125 93.1857 850.109 92.9396 850.848 92.4474C851.598 91.9435 851.973 91.2755 851.973 90.4435Z" fill="white"/>
<path d="M58.6543 121.387C58.1621 121.305 57.6289 121.264 57.0547 121.264C54.9219 121.264 53.4746 122.172 52.7129 123.988V137.488H49.4609V118.469H52.625L52.6777 120.666C53.7441 118.967 55.2559 118.117 57.2129 118.117C57.8457 118.117 58.3262 118.199 58.6543 118.363V121.387Z" fill="white"/>
<path d="M73.4023 135.608C72.1367 137.096 70.2793 137.84 67.8301 137.84C65.8027 137.84 64.2559 137.254 63.1895 136.082C62.1348 134.899 61.6016 133.152 61.5898 130.844V118.469H64.8418V130.756C64.8418 133.639 66.0137 135.08 68.3574 135.08C70.8418 135.08 72.4941 134.154 73.3145 132.303V118.469H76.5664V137.488H73.4727L73.4023 135.608Z" fill="white"/>
<path d="M89.416 137.84C86.8379 137.84 84.7402 136.996 83.123 135.309C81.5059 133.609 80.6973 131.342 80.6973 128.506V127.908C80.6973 126.022 81.0547 124.34 81.7695 122.863C82.4961 121.375 83.5039 120.215 84.793 119.383C86.0938 118.539 87.5 118.117 89.0117 118.117C91.4844 118.117 93.4062 118.932 94.7773 120.561C96.1484 122.19 96.834 124.522 96.834 127.557V128.91H83.9492C83.9961 130.785 84.541 132.303 85.584 133.463C86.6387 134.611 87.9746 135.186 89.5918 135.186C90.7402 135.186 91.7129 134.951 92.5098 134.483C93.3066 134.014 94.0039 133.393 94.6016 132.619L96.5879 134.166C94.9941 136.615 92.6035 137.84 89.416 137.84ZM89.0117 120.789C87.6992 120.789 86.5977 121.27 85.707 122.231C84.8164 123.18 84.2656 124.516 84.0547 126.238H93.582V125.992C93.4883 124.34 93.043 123.063 92.2461 122.16C91.4492 121.246 90.3711 120.789 89.0117 120.789Z" fill="white"/>
<path d="M99.8223 127.82C99.8223 124.902 100.514 122.559 101.896 120.789C103.279 119.008 105.09 118.117 107.328 118.117C109.555 118.117 111.318 118.879 112.619 120.402V110.488H115.871V137.488H112.883L112.725 135.449C111.424 137.043 109.613 137.84 107.293 137.84C105.09 137.84 103.291 136.938 101.896 135.133C100.514 133.328 99.8223 130.973 99.8223 128.067V127.82ZM103.074 128.19C103.074 130.346 103.52 132.033 104.41 133.252C105.301 134.471 106.531 135.08 108.102 135.08C110.164 135.08 111.67 134.154 112.619 132.303V123.567C111.646 121.774 110.152 120.877 108.137 120.877C106.543 120.877 105.301 121.492 104.41 122.723C103.52 123.953 103.074 125.776 103.074 128.19Z" fill="white"/>
<path d="M132.676 137.488C132.488 137.113 132.336 136.445 132.219 135.484C130.707 137.055 128.902 137.84 126.805 137.84C124.93 137.84 123.389 137.313 122.182 136.258C120.986 135.192 120.389 133.844 120.389 132.215C120.389 130.234 121.139 128.699 122.639 127.609C124.15 126.508 126.271 125.957 129.002 125.957H132.166V124.463C132.166 123.326 131.826 122.424 131.146 121.756C130.467 121.076 129.465 120.736 128.141 120.736C126.98 120.736 126.008 121.029 125.223 121.615C124.438 122.201 124.045 122.91 124.045 123.742H120.775C120.775 122.793 121.109 121.879 121.777 121C122.457 120.109 123.371 119.406 124.52 118.891C125.68 118.375 126.951 118.117 128.334 118.117C130.525 118.117 132.242 118.668 133.484 119.77C134.727 120.859 135.371 122.365 135.418 124.287V133.041C135.418 134.787 135.641 136.176 136.086 137.207V137.488H132.676ZM127.279 135.01C128.299 135.01 129.266 134.746 130.18 134.219C131.094 133.692 131.756 133.006 132.166 132.162V128.26H129.617C125.633 128.26 123.641 129.426 123.641 131.758C123.641 132.777 123.98 133.574 124.66 134.149C125.34 134.723 126.213 135.01 127.279 135.01Z" fill="white"/>
<path d="M151.59 132.443C151.59 131.565 151.256 130.885 150.588 130.404C149.932 129.912 148.777 129.49 147.125 129.139C145.484 128.787 144.178 128.365 143.205 127.873C142.244 127.381 141.529 126.795 141.061 126.115C140.604 125.436 140.375 124.627 140.375 123.69C140.375 122.131 141.031 120.813 142.344 119.734C143.668 118.656 145.355 118.117 147.406 118.117C149.562 118.117 151.309 118.674 152.645 119.787C153.992 120.901 154.666 122.324 154.666 124.059H151.396C151.396 123.168 151.016 122.401 150.254 121.756C149.504 121.111 148.555 120.789 147.406 120.789C146.223 120.789 145.297 121.047 144.629 121.563C143.961 122.078 143.627 122.752 143.627 123.584C143.627 124.369 143.938 124.961 144.559 125.359C145.18 125.758 146.299 126.139 147.916 126.502C149.545 126.865 150.863 127.299 151.871 127.803C152.879 128.307 153.623 128.916 154.104 129.631C154.596 130.334 154.842 131.195 154.842 132.215C154.842 133.914 154.162 135.279 152.803 136.311C151.443 137.33 149.68 137.84 147.512 137.84C145.988 137.84 144.641 137.57 143.469 137.031C142.297 136.492 141.377 135.742 140.709 134.781C140.053 133.809 139.725 132.76 139.725 131.635H142.977C143.035 132.725 143.469 133.592 144.277 134.236C145.098 134.869 146.176 135.186 147.512 135.186C148.742 135.186 149.727 134.94 150.465 134.447C151.215 133.943 151.59 133.276 151.59 132.443Z" fill="white"/>
<path d="M167.234 127.82C167.234 124.856 167.92 122.5 169.291 120.754C170.662 118.996 172.479 118.117 174.74 118.117C177.061 118.117 178.871 118.938 180.172 120.578L180.33 118.469H183.301V137.031C183.301 139.492 182.568 141.432 181.104 142.85C179.65 144.268 177.693 144.977 175.232 144.977C173.861 144.977 172.52 144.684 171.207 144.098C169.895 143.512 168.893 142.709 168.201 141.69L169.889 139.738C171.283 141.461 172.988 142.322 175.004 142.322C176.586 142.322 177.816 141.877 178.695 140.986C179.586 140.096 180.031 138.842 180.031 137.225V135.59C178.73 137.09 176.955 137.84 174.705 137.84C172.479 137.84 170.674 136.943 169.291 135.151C167.92 133.358 167.234 130.914 167.234 127.82ZM170.504 128.19C170.504 130.334 170.943 132.022 171.822 133.252C172.701 134.471 173.932 135.08 175.514 135.08C177.564 135.08 179.07 134.149 180.031 132.285V123.602C179.035 121.785 177.541 120.877 175.549 120.877C173.967 120.877 172.73 121.492 171.84 122.723C170.949 123.953 170.504 125.776 170.504 128.19Z" fill="white"/>
<path d="M191.756 137.488H188.504V118.469H191.756V137.488ZM188.24 113.424C188.24 112.897 188.398 112.451 188.715 112.088C189.043 111.725 189.523 111.543 190.156 111.543C190.789 111.543 191.27 111.725 191.598 112.088C191.926 112.451 192.09 112.897 192.09 113.424C192.09 113.951 191.926 114.391 191.598 114.742C191.27 115.094 190.789 115.27 190.156 115.27C189.523 115.27 189.043 115.094 188.715 114.742C188.398 114.391 188.24 113.951 188.24 113.424Z" fill="white"/>
<path d="M206.17 121.387C205.678 121.305 205.145 121.264 204.57 121.264C202.438 121.264 200.99 122.172 200.229 123.988V137.488H196.977V118.469H200.141L200.193 120.666C201.26 118.967 202.771 118.117 204.729 118.117C205.361 118.117 205.842 118.199 206.17 118.363V121.387Z" fill="white"/>
<path d="M220.215 137.488C220.027 137.113 219.875 136.445 219.758 135.484C218.246 137.055 216.441 137.84 214.344 137.84C212.469 137.84 210.928 137.313 209.721 136.258C208.525 135.192 207.928 133.844 207.928 132.215C207.928 130.234 208.678 128.699 210.178 127.609C211.689 126.508 213.811 125.957 216.541 125.957H219.705V124.463C219.705 123.326 219.365 122.424 218.686 121.756C218.006 121.076 217.004 120.736 215.68 120.736C214.52 120.736 213.547 121.029 212.762 121.615C211.977 122.201 211.584 122.91 211.584 123.742H208.314C208.314 122.793 208.648 121.879 209.316 121C209.996 120.109 210.91 119.406 212.059 118.891C213.219 118.375 214.49 118.117 215.873 118.117C218.064 118.117 219.781 118.668 221.023 119.77C222.266 120.859 222.91 122.365 222.957 124.287V133.041C222.957 134.787 223.18 136.176 223.625 137.207V137.488H220.215ZM214.818 135.01C215.838 135.01 216.805 134.746 217.719 134.219C218.633 133.692 219.295 133.006 219.705 132.162V128.26H217.156C213.172 128.26 211.18 129.426 211.18 131.758C211.18 132.777 211.52 133.574 212.199 134.149C212.879 134.723 213.752 135.01 214.818 135.01Z" fill="white"/>
<path d="M231.131 118.469L231.236 120.859C232.689 119.031 234.588 118.117 236.932 118.117C240.951 118.117 242.979 120.385 243.014 124.92V137.488H239.762V124.902C239.75 123.531 239.434 122.518 238.812 121.861C238.203 121.205 237.248 120.877 235.947 120.877C234.893 120.877 233.967 121.158 233.17 121.721C232.373 122.283 231.752 123.022 231.307 123.936V137.488H228.055V118.469H231.131Z" fill="white"/>
<path d="M264.74 137.84C262.162 137.84 260.064 136.996 258.447 135.309C256.83 133.609 256.021 131.342 256.021 128.506V127.908C256.021 126.022 256.379 124.34 257.094 122.863C257.82 121.375 258.828 120.215 260.117 119.383C261.418 118.539 262.824 118.117 264.336 118.117C266.809 118.117 268.73 118.932 270.102 120.561C271.473 122.19 272.158 124.522 272.158 127.557V128.91H259.273C259.32 130.785 259.865 132.303 260.908 133.463C261.963 134.611 263.299 135.186 264.916 135.186C266.064 135.186 267.037 134.951 267.834 134.483C268.631 134.014 269.328 133.393 269.926 132.619L271.912 134.166C270.318 136.615 267.928 137.84 264.74 137.84ZM264.336 120.789C263.023 120.789 261.922 121.27 261.031 122.231C260.141 123.18 259.59 124.516 259.379 126.238H268.906V125.992C268.812 124.34 268.367 123.063 267.57 122.16C266.773 121.246 265.695 120.789 264.336 120.789Z" fill="white"/>
<path d="M279.014 118.469L279.119 120.859C280.572 119.031 282.471 118.117 284.814 118.117C288.834 118.117 290.861 120.385 290.896 124.92V137.488H287.645V124.902C287.633 123.531 287.316 122.518 286.695 121.861C286.086 121.205 285.131 120.877 283.83 120.877C282.775 120.877 281.85 121.158 281.053 121.721C280.256 122.283 279.635 123.022 279.189 123.936V137.488H275.938V118.469H279.014Z" fill="white"/>
<path d="M315.805 132.443C315.805 131.565 315.471 130.885 314.803 130.404C314.146 129.912 312.992 129.49 311.34 129.139C309.699 128.787 308.393 128.365 307.42 127.873C306.459 127.381 305.744 126.795 305.275 126.115C304.818 125.436 304.59 124.627 304.59 123.69C304.59 122.131 305.246 120.813 306.559 119.734C307.883 118.656 309.57 118.117 311.621 118.117C313.777 118.117 315.523 118.674 316.859 119.787C318.207 120.901 318.881 122.324 318.881 124.059H315.611C315.611 123.168 315.23 122.401 314.469 121.756C313.719 121.111 312.77 120.789 311.621 120.789C310.438 120.789 309.512 121.047 308.844 121.563C308.176 122.078 307.842 122.752 307.842 123.584C307.842 124.369 308.152 124.961 308.773 125.359C309.395 125.758 310.514 126.139 312.131 126.502C313.76 126.865 315.078 127.299 316.086 127.803C317.094 128.307 317.838 128.916 318.318 129.631C318.811 130.334 319.057 131.195 319.057 132.215C319.057 133.914 318.377 135.279 317.018 136.311C315.658 137.33 313.895 137.84 311.727 137.84C310.203 137.84 308.855 137.57 307.684 137.031C306.512 136.492 305.592 135.742 304.924 134.781C304.268 133.809 303.939 132.76 303.939 131.635H307.191C307.25 132.725 307.684 133.592 308.492 134.236C309.312 134.869 310.391 135.186 311.727 135.186C312.957 135.186 313.941 134.94 314.68 134.447C315.43 133.943 315.805 133.276 315.805 132.443Z" fill="white"/>
<path d="M331.186 137.84C328.607 137.84 326.51 136.996 324.893 135.309C323.275 133.609 322.467 131.342 322.467 128.506V127.908C322.467 126.022 322.824 124.34 323.539 122.863C324.266 121.375 325.273 120.215 326.562 119.383C327.863 118.539 329.27 118.117 330.781 118.117C333.254 118.117 335.176 118.932 336.547 120.561C337.918 122.19 338.604 124.522 338.604 127.557V128.91H325.719C325.766 130.785 326.311 132.303 327.354 133.463C328.408 134.611 329.744 135.186 331.361 135.186C332.51 135.186 333.482 134.951 334.279 134.483C335.076 134.014 335.773 133.393 336.371 132.619L338.357 134.166C336.764 136.615 334.373 137.84 331.186 137.84ZM330.781 120.789C329.469 120.789 328.367 121.27 327.477 122.231C326.586 123.18 326.035 124.516 325.824 126.238H335.352V125.992C335.258 124.34 334.812 123.063 334.016 122.16C333.219 121.246 332.141 120.789 330.781 120.789Z" fill="white"/>
<path d="M345.459 118.469L345.564 120.859C347.018 119.031 348.916 118.117 351.26 118.117C355.279 118.117 357.307 120.385 357.342 124.92V137.488H354.09V124.902C354.078 123.531 353.762 122.518 353.141 121.861C352.531 121.205 351.576 120.877 350.275 120.877C349.221 120.877 348.295 121.158 347.498 121.721C346.701 122.283 346.08 123.022 345.635 123.936V137.488H342.383V118.469H345.459Z" fill="white"/>
<path d="M366.658 113.863V118.469H370.209V120.983H366.658V132.777C366.658 133.539 366.816 134.113 367.133 134.5C367.449 134.875 367.988 135.063 368.75 135.063C369.125 135.063 369.641 134.992 370.297 134.852V137.488C369.441 137.723 368.609 137.84 367.801 137.84C366.348 137.84 365.252 137.401 364.514 136.522C363.775 135.643 363.406 134.395 363.406 132.777V120.983H359.943V118.469H363.406V113.863H366.658Z" fill="white"/>
<path d="M377.557 137.488H374.305V118.469H377.557V137.488ZM374.041 113.424C374.041 112.897 374.199 112.451 374.516 112.088C374.844 111.725 375.324 111.543 375.957 111.543C376.59 111.543 377.07 111.725 377.398 112.088C377.727 112.451 377.891 112.897 377.891 113.424C377.891 113.951 377.727 114.391 377.398 114.742C377.07 115.094 376.59 115.27 375.957 115.27C375.324 115.27 374.844 115.094 374.516 114.742C374.199 114.391 374.041 113.951 374.041 113.424Z" fill="white"/>
<path d="M381.986 127.82C381.986 124.902 382.678 122.559 384.061 120.789C385.443 119.008 387.254 118.117 389.492 118.117C391.719 118.117 393.482 118.879 394.783 120.402V110.488H398.035V137.488H395.047L394.889 135.449C393.588 137.043 391.777 137.84 389.457 137.84C387.254 137.84 385.455 136.938 384.061 135.133C382.678 133.328 381.986 130.973 381.986 128.067V127.82ZM385.238 128.19C385.238 130.346 385.684 132.033 386.574 133.252C387.465 134.471 388.695 135.08 390.266 135.08C392.328 135.08 393.834 134.154 394.783 132.303V123.567C393.811 121.774 392.316 120.877 390.301 120.877C388.707 120.877 387.465 121.492 386.574 122.723C385.684 123.953 385.238 125.776 385.238 128.19Z" fill="white"/>
<path d="M402.236 127.803C402.236 125.94 402.6 124.264 403.326 122.776C404.064 121.287 405.084 120.139 406.385 119.33C407.697 118.522 409.191 118.117 410.867 118.117C413.457 118.117 415.549 119.014 417.143 120.807C418.748 122.6 419.551 124.984 419.551 127.961V128.19C419.551 130.041 419.193 131.705 418.479 133.182C417.775 134.647 416.762 135.789 415.438 136.609C414.125 137.43 412.613 137.84 410.902 137.84C408.324 137.84 406.232 136.943 404.627 135.151C403.033 133.358 402.236 130.984 402.236 128.031V127.803ZM405.506 128.19C405.506 130.299 405.992 131.992 406.965 133.27C407.949 134.547 409.262 135.186 410.902 135.186C412.555 135.186 413.867 134.541 414.84 133.252C415.812 131.951 416.299 130.135 416.299 127.803C416.299 125.717 415.801 124.029 414.805 122.74C413.82 121.44 412.508 120.789 410.867 120.789C409.262 120.789 407.967 121.428 406.982 122.705C405.998 123.983 405.506 125.811 405.506 128.19Z" fill="white"/>
<path d="M435.811 120.772C437.252 119.002 439.127 118.117 441.436 118.117C445.455 118.117 447.482 120.385 447.518 124.92V137.488H444.266V124.902C444.254 123.531 443.938 122.518 443.316 121.861C442.707 121.205 441.752 120.877 440.451 120.877C439.396 120.877 438.471 121.158 437.674 121.721C436.877 122.283 436.256 123.022 435.811 123.936V137.488H432.559V110.488H435.811V120.772Z" fill="white"/>
<path d="M451.525 127.803C451.525 125.94 451.889 124.264 452.615 122.776C453.354 121.287 454.373 120.139 455.674 119.33C456.986 118.522 458.48 118.117 460.156 118.117C462.746 118.117 464.838 119.014 466.432 120.807C468.037 122.6 468.84 124.984 468.84 127.961V128.19C468.84 130.041 468.482 131.705 467.768 133.182C467.064 134.647 466.051 135.789 464.727 136.609C463.414 137.43 461.902 137.84 460.191 137.84C457.613 137.84 455.521 136.943 453.916 135.151C452.322 133.358 451.525 130.984 451.525 128.031V127.803ZM454.795 128.19C454.795 130.299 455.281 131.992 456.254 133.27C457.238 134.547 458.551 135.186 460.191 135.186C461.844 135.186 463.156 134.541 464.129 133.252C465.102 131.951 465.588 130.135 465.588 127.803C465.588 125.717 465.09 124.029 464.094 122.74C463.109 121.44 461.797 120.789 460.156 120.789C458.551 120.789 457.256 121.428 456.271 122.705C455.287 123.983 454.795 125.811 454.795 128.19Z" fill="white"/>
<path d="M482.111 121.387C481.619 121.305 481.086 121.264 480.512 121.264C478.379 121.264 476.932 122.172 476.17 123.988V137.488H472.918V118.469H476.082L476.135 120.666C477.201 118.967 478.713 118.117 480.67 118.117C481.303 118.117 481.783 118.199 482.111 118.363V121.387Z" fill="white"/>
<path d="M496.156 137.488C495.969 137.113 495.816 136.445 495.699 135.484C494.188 137.055 492.383 137.84 490.285 137.84C488.41 137.84 486.869 137.313 485.662 136.258C484.467 135.192 483.869 133.844 483.869 132.215C483.869 130.234 484.619 128.699 486.119 127.609C487.631 126.508 489.752 125.957 492.482 125.957H495.646V124.463C495.646 123.326 495.307 122.424 494.627 121.756C493.947 121.076 492.945 120.736 491.621 120.736C490.461 120.736 489.488 121.029 488.703 121.615C487.918 122.201 487.525 122.91 487.525 123.742H484.256C484.256 122.793 484.59 121.879 485.258 121C485.938 120.109 486.852 119.406 488 118.891C489.16 118.375 490.432 118.117 491.814 118.117C494.006 118.117 495.723 118.668 496.965 119.77C498.207 120.859 498.852 122.365 498.898 124.287V133.041C498.898 134.787 499.121 136.176 499.566 137.207V137.488H496.156ZM490.76 135.01C491.779 135.01 492.746 134.746 493.66 134.219C494.574 133.692 495.236 133.006 495.646 132.162V128.26H493.098C489.113 128.26 487.121 129.426 487.121 131.758C487.121 132.777 487.461 133.574 488.141 134.149C488.82 134.723 489.693 135.01 490.76 135.01Z" fill="white"/>
<path d="M513.189 121.387C512.697 121.305 512.164 121.264 511.59 121.264C509.457 121.264 508.01 122.172 507.248 123.988V137.488H503.996V118.469H507.16L507.213 120.666C508.279 118.967 509.791 118.117 511.748 118.117C512.381 118.117 512.861 118.199 513.189 118.363V121.387Z" fill="white"/>
<path d="M519.729 137.488H516.477V118.469H519.729V137.488ZM516.213 113.424C516.213 112.897 516.371 112.451 516.688 112.088C517.016 111.725 517.496 111.543 518.129 111.543C518.762 111.543 519.242 111.725 519.57 112.088C519.898 112.451 520.062 112.897 520.062 113.424C520.062 113.951 519.898 114.391 519.57 114.742C519.242 115.094 518.762 115.27 518.129 115.27C517.496 115.27 517.016 115.094 516.688 114.742C516.371 114.391 516.213 113.951 516.213 113.424Z" fill="white"/>
<path d="M524.088 127.803C524.088 125.94 524.451 124.264 525.178 122.776C525.916 121.287 526.936 120.139 528.236 119.33C529.549 118.522 531.043 118.117 532.719 118.117C535.309 118.117 537.4 119.014 538.994 120.807C540.6 122.6 541.402 124.984 541.402 127.961V128.19C541.402 130.041 541.045 131.705 540.33 133.182C539.627 134.647 538.613 135.789 537.289 136.609C535.977 137.43 534.465 137.84 532.754 137.84C530.176 137.84 528.084 136.943 526.479 135.151C524.885 133.358 524.088 130.984 524.088 128.031V127.803ZM527.357 128.19C527.357 130.299 527.844 131.992 528.816 133.27C529.801 134.547 531.113 135.186 532.754 135.186C534.406 135.186 535.719 134.541 536.691 133.252C537.664 131.951 538.15 130.135 538.15 127.803C538.15 125.717 537.652 124.029 536.656 122.74C535.672 121.44 534.359 120.789 532.719 120.789C531.113 120.789 529.818 121.428 528.834 122.705C527.85 123.983 527.357 125.811 527.357 128.19Z" fill="white"/>
<path d="M549.295 130.281C549.318 128.887 549.477 127.785 549.77 126.977C550.062 126.168 550.66 125.272 551.562 124.287L553.865 121.914C554.85 120.801 555.342 119.606 555.342 118.328C555.342 117.098 555.02 116.137 554.375 115.445C553.73 114.742 552.793 114.391 551.562 114.391C550.367 114.391 549.406 114.707 548.68 115.34C547.953 115.973 547.59 116.822 547.59 117.889H544.338C544.361 115.99 545.035 114.461 546.359 113.301C547.695 112.129 549.43 111.543 551.562 111.543C553.777 111.543 555.5 112.141 556.73 113.336C557.973 114.52 558.594 116.149 558.594 118.223C558.594 120.274 557.645 122.295 555.746 124.287L553.83 126.186C552.975 127.135 552.547 128.5 552.547 130.281H549.295ZM549.154 135.854C549.154 135.326 549.312 134.887 549.629 134.535C549.957 134.172 550.438 133.99 551.07 133.99C551.703 133.99 552.184 134.172 552.512 134.535C552.84 134.887 553.004 135.326 553.004 135.854C553.004 136.381 552.84 136.82 552.512 137.172C552.184 137.512 551.703 137.682 551.07 137.682C550.438 137.682 549.957 137.512 549.629 137.172C549.312 136.82 549.154 136.381 549.154 135.854Z" fill="white"/>
</g>
<g id="Group 125">
<path id="Union" fill-rule="evenodd" clip-rule="evenodd" d="M629.228 193.242L647 162.503L642.671 160L624.908 190.725C619.52 188.023 613.438 186.503 607 186.503C605.991 186.503 604.99 186.54 604 186.613V186.503L418 186.503H415V186.613C408.584 187.089 402.589 189.078 397.371 192.225L333.763 223.794L270.643 192.234C268.842 191.147 266.948 190.197 264.977 189.401L264.236 189.03L264.203 189.097C259.789 187.421 255.002 186.503 250 186.503C227.909 186.503 210 204.411 210 226.503C210 204.411 192.091 186.503 170 186.503C147.909 186.503 130 204.411 130 226.503C130 204.411 112.091 186.503 90 186.503C67.9086 186.503 50 204.411 50 226.503C50 248.594 67.9086 266.503 90 266.503C112.091 266.503 130 248.594 130 226.503C130 248.594 147.909 266.503 170 266.503C192.091 266.503 210 248.594 210 226.503C210 248.594 227.909 266.503 250 266.503C257.797 266.503 265.073 264.272 271.225 260.413L333.755 229.38L408 266.503L408.56 265.382C411.587 266.114 414.748 266.503 418 266.503H586.308L534.072 362.503H515H513V362.552C491.838 363.594 475 381.082 475 402.503C475 417.798 483.585 431.088 496.199 437.817L459.671 501L464 503.503L500.771 439.898C505.192 441.581 509.988 442.503 515 442.503C516.009 442.503 517.01 442.465 518 442.392V442.503H704.9L766.37 454.879L790 511.503L790.739 511.194C794.325 529.605 810.54 543.503 830 543.503C839.984 543.503 849.115 539.844 856.123 533.795C853.483 539.133 852 545.145 852 551.503C852 573.594 869.909 591.503 892 591.503C914.091 591.503 932 573.594 932 551.503C932 529.411 914.091 511.503 892 511.503C882.016 511.503 872.885 515.161 865.877 521.21C868.517 515.872 870 509.861 870 503.503C870 484.848 857.231 469.177 839.957 464.752L839.987 464.601L769.961 450.502L745.713 392.397C741.236 375.198 725.6 362.503 707 362.503C705.307 362.503 703.638 362.608 702 362.812V362.503H539.765L592 266.503H607C629.091 266.503 647 248.594 647 226.503C647 212.637 639.945 200.419 629.228 193.242ZM418 191.503C411.414 191.503 405.253 193.322 399.991 196.485L400 196.503L399.791 196.606C389.722 202.752 383 213.842 383 226.503C383 245.832 398.67 261.503 418 261.503C437.33 261.503 453 245.832 453 226.503C453 207.173 437.33 191.503 418 191.503ZM437.38 191.503C449.677 198.326 458 211.442 458 226.503C458 241.563 449.677 254.679 437.38 261.503H587.62C575.323 254.679 567 241.563 567 226.503C567 211.442 575.323 198.326 587.62 191.503H437.38ZM622.4 195.064L605.671 224L610 226.503L626.719 197.582C635.945 203.885 642 214.487 642 226.503C642 245.832 626.33 261.503 607 261.503C587.67 261.503 572 245.832 572 226.503C572 207.173 587.67 191.503 607 191.503C612.526 191.503 617.753 192.783 622.4 195.064ZM125 226.503C125 245.832 109.33 261.503 90 261.503C70.67 261.503 55 245.832 55 226.503C55 207.173 70.67 191.503 90 191.503C109.33 191.503 125 207.173 125 226.503ZM537.044 367.503L536.393 368.698C547.577 375.791 555 388.28 555 402.503C555 417.563 546.677 430.679 534.38 437.503H687.62C675.323 430.679 667 417.563 667 402.503C667 387.442 675.323 374.326 687.62 367.503H537.044ZM513.608 400.113L529.617 370.691C525.169 368.644 520.218 367.503 515 367.503C495.67 367.503 480 383.173 480 402.503C480 421.832 495.67 437.503 515 437.503C534.33 437.503 550 421.832 550 402.503C550 390.176 543.628 379.337 533.997 373.102L518 402.503L513.608 400.113ZM250 191.503C254.57 191.503 258.936 192.379 262.939 193.972L268.216 196.61C278.281 202.757 285 213.845 285 226.503C285 238.928 278.526 249.84 268.766 256.051L262.777 259.024L262.808 259.085C258.841 260.645 254.521 261.503 250 261.503C230.67 261.503 215 245.832 215 226.503C215 207.173 230.67 191.503 250 191.503ZM290 226.503C290 218.185 287.461 210.46 283.116 204.061L328.152 226.579L283.131 248.922C287.467 242.527 290 234.811 290 226.503ZM385.319 249.572L339.366 226.595L384.941 203.976C380.561 210.392 378 218.148 378 226.503C378 235.094 380.709 243.053 385.319 249.572ZM205 226.503C205 245.832 189.33 261.503 170 261.503C150.67 261.503 135 245.832 135 226.503C135 207.173 150.67 191.503 170 191.503C189.33 191.503 205 207.173 205 226.503ZM737 384.503L737.018 384.495C730.898 374.314 719.744 367.503 707 367.503C687.67 367.503 672 383.173 672 402.503C672 417.658 681.633 430.563 695.109 435.431L705.163 437.455C705.771 437.487 706.384 437.503 707 437.503C726.33 437.503 742 421.832 742 402.503C742 399.563 741.638 396.708 740.955 393.979L737 384.503ZM764.046 449.311L746.669 407.672C744.692 422.991 734.049 435.594 719.816 440.405L764.046 449.311ZM790.24 499.095L772.285 456.07L818.116 465.298C803.179 469.939 791.993 483.098 790.24 499.095ZM865 503.503C865 522.832 849.33 538.503 830 538.503C810.67 538.503 795 522.832 795 503.503C795 484.173 810.67 468.503 830 468.503C849.33 468.503 865 484.173 865 503.503ZM892 586.503C911.33 586.503 927 570.832 927 551.503C927 532.173 911.33 516.503 892 516.503C872.67 516.503 857 532.173 857 551.503C857 570.832 872.67 586.503 892 586.503Z" fill="#2CF30B"/>
<path id="E" d="M257.438 165.17H246.346V174.24H259.23V177H242.971V151.406H259.055V154.184H246.346V162.41H257.438V165.17Z" fill="#2CF30B"/>
</g>
</g>
<g id="claves01">
<g id="Group 99">
<path id="Rectangle 4" d="M47 647H263.745L297 687L263.745 727H47V647Z" fill="#F318F8" fill-opacity="0.1"/>
<path id="Rectangle 4 (Stroke)" fill-rule="evenodd" clip-rule="evenodd" d="M262.338 650H50V724H262.338L293.099 687L262.338 650ZM263.745 647H47V727H263.745L297 687L263.745 647Z" fill="#F318F8"/>
<path id="Ellipse 1" d="M88 687C88 709.091 70.0914 727 48 727C25.9086 727 8 709.091 8 687C8 664.909 25.9086 647 48 647C70.0914 647 88 664.909 88 687Z" fill="#F318F8"/>
<path id="A" d="M56.0938 697.406H38.4688L34.7812 708H26.5625L43.75 662.5H50.8438L68.0625 708H59.8125L56.0938 697.406ZM40.6875 691.031H53.875L47.2812 672.156L40.6875 691.031Z" fill="white"/>
</g>
<g id="Group 100">
<path id="Rectangle 5" d="M390 644H606.745L640 684L606.745 724H390V644Z" fill="#F318F8" fill-opacity="0.1"/>
<path id="Rectangle 5 (Stroke)" fill-rule="evenodd" clip-rule="evenodd" d="M605.338 647H393V721H605.338L636.099 684L605.338 647ZM606.745 644H390V724H606.745L640 684L606.745 644Z" fill="#F318F8"/>
<path id="Ellipse 2" d="M431 684C431 706.091 413.091 724 391 724C368.909 724 351 706.091 351 684C351 661.909 368.909 644 391 644C413.091 644 431 661.909 431 684Z" fill="#F318F8"/>
<path id="B" d="M374.625 700V654.5H390.219C395.365 654.5 399.281 655.531 401.969 657.594C404.656 659.656 406 662.729 406 666.812C406 668.896 405.438 670.771 404.312 672.438C403.188 674.104 401.542 675.396 399.375 676.312C401.833 676.979 403.729 678.24 405.062 680.094C406.417 681.927 407.094 684.135 407.094 686.719C407.094 690.99 405.719 694.271 402.969 696.562C400.24 698.854 396.323 700 391.219 700H374.625ZM382.531 679.469V693.688H391.312C393.792 693.688 395.729 693.073 397.125 691.844C398.521 690.615 399.219 688.906 399.219 686.719C399.219 681.99 396.802 679.573 391.969 679.469H382.531ZM382.531 673.656H390.281C392.74 673.656 394.656 673.104 396.031 672C397.427 670.875 398.125 669.292 398.125 667.25C398.125 665 397.479 663.375 396.188 662.375C394.917 661.375 392.927 660.875 390.219 660.875H382.531V673.656Z" fill="white"/>
</g>
<g id="Group 102">
<path id="Rectangle 7" d="M52 757H268.745L302 797L268.745 837H52V757Z" fill="#F318F8" fill-opacity="0.1"/>
<path id="Rectangle 7 (Stroke)" fill-rule="evenodd" clip-rule="evenodd" d="M267.338 760H55V834H267.338L298.099 797L267.338 760ZM268.745 757H52V837H268.745L302 797L268.745 757Z" fill="#F318F8"/>
<path id="Ellipse 4" d="M87 798C87 820.091 69.0914 838 47 838C24.9086 838 7 820.091 7 798C7 775.909 24.9086 758 47 758C69.0914 758 87 775.909 87 798Z" fill="#F318F8"/>
<path id="D" d="M29.625 820V774.5H43.0625C47.0833 774.5 50.6458 775.396 53.75 777.188C56.875 778.979 59.2917 781.521 61 784.812C62.7083 788.104 63.5625 791.875 63.5625 796.125V798.406C63.5625 802.719 62.6979 806.51 60.9688 809.781C59.2604 813.052 56.8125 815.573 53.625 817.344C50.4583 819.115 46.8229 820 42.7188 820H29.625ZM37.5312 780.875V813.688H42.6875C46.8333 813.688 50.0104 812.396 52.2188 809.812C54.4479 807.208 55.5833 803.479 55.625 798.625V796.094C55.625 791.156 54.5521 787.385 52.4062 784.781C50.2604 782.177 47.1458 780.875 43.0625 780.875H37.5312Z" fill="white"/>
</g>
<g id="Group 101">
<path id="Rectangle 6" d="M740 708H956.745L990 748L956.745 788H740V708Z" fill="#F318F8" fill-opacity="0.1"/>
<path id="Rectangle 6 (Stroke)" fill-rule="evenodd" clip-rule="evenodd" d="M955.338 711H743V785H955.338L986.099 748L955.338 711ZM956.745 708H740V788H956.745L990 748L956.745 708Z" fill="#F318F8"/>
<path id="Ellipse 3" d="M781 748C781 770.091 763.091 788 741 788C718.909 788 701 770.091 701 748C701 725.909 718.909 708 741 708C763.091 708 781 725.909 781 748Z" fill="#F318F8"/>
<path id="C" d="M758.344 755.188C757.885 760.042 756.094 763.833 752.969 766.562C749.844 769.271 745.688 770.625 740.5 770.625C736.875 770.625 733.677 769.771 730.906 768.062C728.156 766.333 726.031 763.885 724.531 760.719C723.031 757.552 722.25 753.875 722.188 749.688V745.438C722.188 741.146 722.948 737.365 724.469 734.094C725.99 730.823 728.167 728.302 731 726.531C733.854 724.76 737.146 723.875 740.875 723.875C745.896 723.875 749.938 725.24 753 727.969C756.062 730.698 757.844 734.552 758.344 739.531H750.469C750.094 736.26 749.135 733.906 747.594 732.469C746.073 731.01 743.833 730.281 740.875 730.281C737.438 730.281 734.792 731.542 732.938 734.062C731.104 736.562 730.167 740.24 730.125 745.094V749.125C730.125 754.042 731 757.792 732.75 760.375C734.521 762.958 737.104 764.25 740.5 764.25C743.604 764.25 745.938 763.552 747.5 762.156C749.062 760.76 750.052 758.438 750.469 755.188H758.344Z" fill="white"/>
</g>
<g id="Group 103">
<path id="Rectangle 8" d="M389 756H605.745L639 796L605.745 836H389V756Z" fill="#F318F8" fill-opacity="0.1"/>
<path id="Rectangle 8 (Stroke)" fill-rule="evenodd" clip-rule="evenodd" d="M604.338 759H392V833H604.338L635.099 796L604.338 759ZM605.745 756H389V836H605.745L639 796L605.745 756Z" fill="#F318F8"/>
<path id="Ellipse 5" d="M430 796C430 818.091 412.091 836 390 836C367.909 836 350 818.091 350 796C350 773.909 367.909 756 390 756C412.091 756 430 773.909 430 796Z" fill="#F318F8"/>
<path id="E_2" d="M399.219 797.688H380.531V811.688H402.375V818H372.625V772.5H402.156V778.875H380.531V791.438H399.219V797.688Z" fill="white"/>
</g>
<g id="6 7 3 4 5">
<path d="M151.889 676.389V679.148H151.291C148.76 679.195 146.744 679.945 145.244 681.398C143.744 682.852 142.877 684.896 142.643 687.533C143.99 685.986 145.83 685.213 148.162 685.213C150.389 685.213 152.164 685.998 153.488 687.568C154.824 689.139 155.492 691.166 155.492 693.65C155.492 696.287 154.771 698.396 153.33 699.979C151.9 701.561 149.979 702.352 147.564 702.352C145.115 702.352 143.129 701.414 141.605 699.539C140.082 697.652 139.32 695.227 139.32 692.262V691.014C139.32 686.303 140.322 682.705 142.326 680.221C144.342 677.725 147.336 676.447 151.309 676.389H151.889ZM147.617 687.92C146.504 687.92 145.479 688.254 144.541 688.922C143.604 689.59 142.953 690.428 142.59 691.436V692.631C142.59 694.74 143.064 696.439 144.014 697.729C144.963 699.018 146.146 699.662 147.564 699.662C149.029 699.662 150.178 699.123 151.01 698.045C151.854 696.967 152.275 695.555 152.275 693.809C152.275 692.051 151.848 690.633 150.992 689.555C150.148 688.465 149.023 687.92 147.617 687.92Z" fill="#F318F8"/>
<path d="M497.334 678.234L486.734 702H483.324L493.889 679.078H480.037V676.406H497.334V678.234Z" fill="#F318F8"/>
<path d="M849.301 742.621H851.744C853.279 742.598 854.486 742.193 855.365 741.408C856.244 740.623 856.684 739.562 856.684 738.227C856.684 735.227 855.189 733.727 852.201 733.727C850.795 733.727 849.67 734.131 848.826 734.939C847.994 735.736 847.578 736.797 847.578 738.121H844.326C844.326 736.094 845.064 734.412 846.541 733.076C848.029 731.729 849.916 731.055 852.201 731.055C854.615 731.055 856.508 731.693 857.879 732.971C859.25 734.248 859.936 736.023 859.936 738.297C859.936 739.41 859.572 740.488 858.846 741.531C858.131 742.574 857.152 743.354 855.91 743.869C857.316 744.314 858.4 745.053 859.162 746.084C859.936 747.115 860.322 748.375 860.322 749.863C860.322 752.16 859.572 753.982 858.072 755.33C856.572 756.678 854.621 757.352 852.219 757.352C849.816 757.352 847.859 756.701 846.348 755.4C844.848 754.1 844.098 752.383 844.098 750.25H847.367C847.367 751.598 847.807 752.676 848.686 753.484C849.564 754.293 850.742 754.697 852.219 754.697C853.789 754.697 854.99 754.287 855.822 753.467C856.654 752.646 857.07 751.469 857.07 749.934C857.07 748.445 856.613 747.303 855.699 746.506C854.785 745.709 853.467 745.299 851.744 745.275H849.301V742.621Z" fill="#F318F8"/>
<path d="M152.855 803.404H156.406V806.059H152.855V812H149.586V806.059H137.932V804.143L149.393 786.406H152.855V803.404ZM141.623 803.404H149.586V790.854L149.199 791.557L141.623 803.404Z" fill="#F318F8"/>
<path d="M482.305 799.168L483.605 786.406H496.719V789.412H486.365L485.592 796.391C486.846 795.652 488.27 795.283 489.863 795.283C492.195 795.283 494.047 796.057 495.418 797.604C496.789 799.139 497.475 801.219 497.475 803.844C497.475 806.48 496.76 808.561 495.33 810.084C493.912 811.596 491.926 812.352 489.371 812.352C487.109 812.352 485.264 811.725 483.834 810.471C482.404 809.217 481.59 807.482 481.391 805.268H484.467C484.666 806.732 485.188 807.84 486.031 808.59C486.875 809.328 487.988 809.697 489.371 809.697C490.883 809.697 492.066 809.182 492.922 808.15C493.789 807.119 494.223 805.695 494.223 803.879C494.223 802.168 493.754 800.797 492.816 799.766C491.891 798.723 490.654 798.201 489.107 798.201C487.689 798.201 486.576 798.512 485.768 799.133L484.906 799.836L482.305 799.168Z" fill="#F318F8"/>
</g>
<g id="flecha">
<path id="Rectangle 2" d="M58.2001 647.008L73.4819 655.133L31.5003 734.089L16.2185 725.963L58.2001 647.008Z" fill="#1043F5"/>
<path id="Rectangle 1_2" d="M0 659.904L90 610V667.692L45 650.096L0 659.904Z" fill="#1043F5"/>
<path id="Rectangle 3" d="M4.03848 729.21L19.6656 702.143L36.9363 701.565L21.3091 728.632L4.03848 729.21Z" fill="#1043F5"/>
<path id="Rectangle 4_2" d="M30.0894 743.845L45.7166 716.778L36.9259 701.154L21.2987 728.221L30.0894 743.845Z" fill="#1043F5"/>
</g>
</g>
</g>
</svg>
