<svg viewBox="0 0 882 519" fill="none" xmlns="http://www.w3.org/2000/svg">
<g id="0122208">
<g id="Group 164">
<g id="text">
<path d="M13.3506 26.7705L21.8818 2.14062H26.1885L15.1143 32H11.6279L0.574219 2.14062H4.86035L13.3506 26.7705Z" fill="white"/>
<path d="M27.665 20.7002C27.665 18.5264 28.0889 16.5713 28.9365 14.835C29.7979 13.0986 30.9873 11.7588 32.5049 10.8154C34.0361 9.87207 35.7793 9.40039 37.7344 9.40039C40.7559 9.40039 43.1963 10.4463 45.0557 12.5381C46.9287 14.6299 47.8652 17.4121 47.8652 20.8848V21.1514C47.8652 23.3115 47.4482 25.2529 46.6143 26.9756C45.7939 28.6846 44.6113 30.0176 43.0664 30.9746C41.5352 31.9316 39.7715 32.4102 37.7754 32.4102C34.7676 32.4102 32.3271 31.3643 30.4541 29.2725C28.5947 27.1807 27.665 24.4121 27.665 20.9668V20.7002ZM31.4795 21.1514C31.4795 23.6123 32.0469 25.5879 33.1816 27.0781C34.3301 28.5684 35.8613 29.3135 37.7754 29.3135C39.7031 29.3135 41.2344 28.5615 42.3691 27.0576C43.5039 25.54 44.0713 23.4209 44.0713 20.7002C44.0713 18.2666 43.4902 16.2979 42.3281 14.7939C41.1797 13.2764 39.6484 12.5176 37.7344 12.5176C35.8613 12.5176 34.3506 13.2627 33.2021 14.7529C32.0537 16.2432 31.4795 18.376 31.4795 21.1514Z" fill="white"/>
<path d="M56.7451 32H52.9512V0.5H56.7451V32Z" fill="white"/>
<path d="M67.9834 4.4375V9.81055H72.126V12.7432H67.9834V26.5039C67.9834 27.3926 68.168 28.0625 68.5371 28.5137C68.9062 28.9512 69.5352 29.1699 70.4238 29.1699C70.8613 29.1699 71.4629 29.0879 72.2285 28.9238V32C71.2305 32.2734 70.2598 32.4102 69.3164 32.4102C67.6211 32.4102 66.3428 31.8975 65.4814 30.8721C64.6201 29.8467 64.1895 28.3906 64.1895 26.5039V12.7432H60.1494V9.81055H64.1895V4.4375H67.9834Z" fill="white"/>
<path d="M85.7842 32.4102C82.7764 32.4102 80.3291 31.4258 78.4424 29.457C76.5557 27.4746 75.6123 24.8291 75.6123 21.5205V20.8232C75.6123 18.6221 76.0293 16.6602 76.8633 14.9375C77.7109 13.2012 78.8867 11.8477 80.3906 10.877C81.9082 9.89258 83.5488 9.40039 85.3125 9.40039C88.1973 9.40039 90.4395 10.3506 92.0391 12.251C93.6387 14.1514 94.4385 16.8721 94.4385 20.4131V21.9922H79.4062C79.4609 24.1797 80.0967 25.9502 81.3135 27.3037C82.5439 28.6436 84.1025 29.3135 85.9893 29.3135C87.3291 29.3135 88.4639 29.04 89.3936 28.4932C90.3232 27.9463 91.1367 27.2217 91.834 26.3193L94.1514 28.124C92.292 30.9814 89.5029 32.4102 85.7842 32.4102ZM85.3125 12.5176C83.7812 12.5176 82.4961 13.0781 81.457 14.1992C80.418 15.3066 79.7754 16.8652 79.5293 18.875H90.6445V18.5879C90.5352 16.6602 90.0156 15.1699 89.0859 14.1172C88.1562 13.0508 86.8984 12.5176 85.3125 12.5176Z" fill="white"/>
<path d="M97.8428 20.7002C97.8428 18.5264 98.2666 16.5713 99.1143 14.835C99.9756 13.0986 101.165 11.7588 102.683 10.8154C104.214 9.87207 105.957 9.40039 107.912 9.40039C110.934 9.40039 113.374 10.4463 115.233 12.5381C117.106 14.6299 118.043 17.4121 118.043 20.8848V21.1514C118.043 23.3115 117.626 25.2529 116.792 26.9756C115.972 28.6846 114.789 30.0176 113.244 30.9746C111.713 31.9316 109.949 32.4102 107.953 32.4102C104.945 32.4102 102.505 31.3643 100.632 29.2725C98.7725 27.1807 97.8428 24.4121 97.8428 20.9668V20.7002ZM101.657 21.1514C101.657 23.6123 102.225 25.5879 103.359 27.0781C104.508 28.5684 106.039 29.3135 107.953 29.3135C109.881 29.3135 111.412 28.5615 112.547 27.0576C113.682 25.54 114.249 23.4209 114.249 20.7002C114.249 18.2666 113.668 16.2979 112.506 14.7939C111.357 13.2764 109.826 12.5176 107.912 12.5176C106.039 12.5176 104.528 13.2627 103.38 14.7529C102.231 16.2432 101.657 18.376 101.657 21.1514Z" fill="white"/>
<path d="M147.759 32H143.965V0.5H147.759V32Z" fill="white"/>
<path d="M152.845 20.7002C152.845 18.5264 153.269 16.5713 154.116 14.835C154.978 13.0986 156.167 11.7588 157.685 10.8154C159.216 9.87207 160.959 9.40039 162.914 9.40039C165.936 9.40039 168.376 10.4463 170.235 12.5381C172.108 14.6299 173.045 17.4121 173.045 20.8848V21.1514C173.045 23.3115 172.628 25.2529 171.794 26.9756C170.974 28.6846 169.791 30.0176 168.246 30.9746C166.715 31.9316 164.951 32.4102 162.955 32.4102C159.947 32.4102 157.507 31.3643 155.634 29.2725C153.774 27.1807 152.845 24.4121 152.845 20.9668V20.7002ZM156.659 21.1514C156.659 23.6123 157.227 25.5879 158.361 27.0781C159.51 28.5684 161.041 29.3135 162.955 29.3135C164.883 29.3135 166.414 28.5615 167.549 27.0576C168.684 25.54 169.251 23.4209 169.251 20.7002C169.251 18.2666 168.67 16.2979 167.508 14.7939C166.359 13.2764 164.828 12.5176 162.914 12.5176C161.041 12.5176 159.53 13.2627 158.382 14.7529C157.233 16.2432 156.659 18.376 156.659 21.1514Z" fill="white"/>
<path d="M190.723 26.1143C190.723 25.0889 190.333 24.2959 189.554 23.7354C188.788 23.1611 187.441 22.6689 185.514 22.2588C183.6 21.8486 182.075 21.3564 180.94 20.7822C179.819 20.208 178.985 19.5244 178.438 18.7314C177.905 17.9385 177.639 16.9951 177.639 15.9014C177.639 14.083 178.404 12.5449 179.936 11.2871C181.48 10.0293 183.449 9.40039 185.842 9.40039C188.357 9.40039 190.395 10.0498 191.953 11.3486C193.525 12.6475 194.312 14.3086 194.312 16.332H190.497C190.497 15.293 190.053 14.3975 189.164 13.6455C188.289 12.8936 187.182 12.5176 185.842 12.5176C184.461 12.5176 183.381 12.8184 182.602 13.4199C181.822 14.0215 181.433 14.8076 181.433 15.7783C181.433 16.6943 181.795 17.3848 182.52 17.8496C183.244 18.3145 184.55 18.7588 186.437 19.1826C188.337 19.6064 189.875 20.1123 191.051 20.7002C192.227 21.2881 193.095 21.999 193.655 22.833C194.229 23.6533 194.517 24.6582 194.517 25.8477C194.517 27.8301 193.724 29.4229 192.138 30.626C190.552 31.8154 188.494 32.4102 185.965 32.4102C184.188 32.4102 182.615 32.0957 181.248 31.4668C179.881 30.8379 178.808 29.9629 178.028 28.8418C177.263 27.707 176.88 26.4834 176.88 25.1709H180.674C180.742 26.4424 181.248 27.4541 182.191 28.2061C183.148 28.9443 184.406 29.3135 185.965 29.3135C187.4 29.3135 188.549 29.0264 189.41 28.4521C190.285 27.8643 190.723 27.085 190.723 26.1143Z" fill="white"/>
<path d="M213.445 9.81055L213.548 12.2715C215.175 10.3574 217.369 9.40039 220.131 9.40039C223.234 9.40039 225.347 10.5898 226.468 12.9688C227.206 11.9023 228.163 11.041 229.339 10.3848C230.528 9.72852 231.93 9.40039 233.543 9.40039C238.41 9.40039 240.885 11.9775 240.967 17.1318V32H237.173V17.3574C237.173 15.7715 236.811 14.5889 236.086 13.8096C235.361 13.0166 234.145 12.6201 232.436 12.6201C231.027 12.6201 229.858 13.0439 228.929 13.8916C227.999 14.7256 227.459 15.8535 227.309 17.2754V32H223.494V17.46C223.494 14.2334 221.915 12.6201 218.757 12.6201C216.269 12.6201 214.566 13.6797 213.65 15.7988V32H209.856V9.81055H213.445Z" fill="white"/>
<path d="M255.917 32.4102C252.909 32.4102 250.462 31.4258 248.575 29.457C246.688 27.4746 245.745 24.8291 245.745 21.5205V20.8232C245.745 18.6221 246.162 16.6602 246.996 14.9375C247.844 13.2012 249.02 11.8477 250.523 10.877C252.041 9.89258 253.682 9.40039 255.445 9.40039C258.33 9.40039 260.572 10.3506 262.172 12.251C263.771 14.1514 264.571 16.8721 264.571 20.4131V21.9922H249.539C249.594 24.1797 250.229 25.9502 251.446 27.3037C252.677 28.6436 254.235 29.3135 256.122 29.3135C257.462 29.3135 258.597 29.04 259.526 28.4932C260.456 27.9463 261.27 27.2217 261.967 26.3193L264.284 28.124C262.425 30.9814 259.636 32.4102 255.917 32.4102ZM255.445 12.5176C253.914 12.5176 252.629 13.0781 251.59 14.1992C250.551 15.3066 249.908 16.8652 249.662 18.875H260.777V18.5879C260.668 16.6602 260.148 15.1699 259.219 14.1172C258.289 13.0508 257.031 12.5176 255.445 12.5176Z" fill="white"/>
<path d="M272.569 9.81055L272.692 12.5996C274.388 10.4668 276.603 9.40039 279.337 9.40039C284.026 9.40039 286.392 12.0459 286.433 17.3369V32H282.639V17.3164C282.625 15.7168 282.256 14.5342 281.531 13.7686C280.82 13.0029 279.706 12.6201 278.188 12.6201C276.958 12.6201 275.878 12.9482 274.948 13.6045C274.019 14.2607 273.294 15.1221 272.774 16.1885V32H268.98V9.81055H272.569Z" fill="white"/>
<path d="M291.149 20.7002C291.149 18.5264 291.573 16.5713 292.421 14.835C293.282 13.0986 294.472 11.7588 295.989 10.8154C297.521 9.87207 299.264 9.40039 301.219 9.40039C304.24 9.40039 306.681 10.4463 308.54 12.5381C310.413 14.6299 311.35 17.4121 311.35 20.8848V21.1514C311.35 23.3115 310.933 25.2529 310.099 26.9756C309.278 28.6846 308.096 30.0176 306.551 30.9746C305.02 31.9316 303.256 32.4102 301.26 32.4102C298.252 32.4102 295.812 31.3643 293.938 29.2725C292.079 27.1807 291.149 24.4121 291.149 20.9668V20.7002ZM294.964 21.1514C294.964 23.6123 295.531 25.5879 296.666 27.0781C297.814 28.5684 299.346 29.3135 301.26 29.3135C303.188 29.3135 304.719 28.5615 305.854 27.0576C306.988 25.54 307.556 23.4209 307.556 20.7002C307.556 18.2666 306.975 16.2979 305.812 14.7939C304.664 13.2764 303.133 12.5176 301.219 12.5176C299.346 12.5176 297.835 13.2627 296.687 14.7529C295.538 16.2432 294.964 18.376 294.964 21.1514Z" fill="white"/>
<path d="M326.833 13.2148C326.259 13.1191 325.637 13.0713 324.967 13.0713C322.479 13.0713 320.79 14.1309 319.901 16.25V32H316.107V9.81055H319.799L319.86 12.374C321.104 10.3916 322.868 9.40039 325.151 9.40039C325.89 9.40039 326.45 9.49609 326.833 9.6875V13.2148Z" fill="white"/>
<path d="M339.138 32.4102C336.13 32.4102 333.683 31.4258 331.796 29.457C329.909 27.4746 328.966 24.8291 328.966 21.5205V20.8232C328.966 18.6221 329.383 16.6602 330.217 14.9375C331.064 13.2012 332.24 11.8477 333.744 10.877C335.262 9.89258 336.902 9.40039 338.666 9.40039C341.551 9.40039 343.793 10.3506 345.393 12.251C346.992 14.1514 347.792 16.8721 347.792 20.4131V21.9922H332.76C332.814 24.1797 333.45 25.9502 334.667 27.3037C335.897 28.6436 337.456 29.3135 339.343 29.3135C340.683 29.3135 341.817 29.04 342.747 28.4932C343.677 27.9463 344.49 27.2217 345.188 26.3193L347.505 28.124C345.646 30.9814 342.856 32.4102 339.138 32.4102ZM338.666 12.5176C337.135 12.5176 335.85 13.0781 334.811 14.1992C333.771 15.3066 333.129 16.8652 332.883 18.875H343.998V18.5879C343.889 16.6602 343.369 15.1699 342.439 14.1172C341.51 13.0508 340.252 12.5176 338.666 12.5176Z" fill="white"/>
<path d="M365.121 26.1143C365.121 25.0889 364.731 24.2959 363.952 23.7354C363.187 23.1611 361.84 22.6689 359.912 22.2588C357.998 21.8486 356.474 21.3564 355.339 20.7822C354.218 20.208 353.384 19.5244 352.837 18.7314C352.304 17.9385 352.037 16.9951 352.037 15.9014C352.037 14.083 352.803 12.5449 354.334 11.2871C355.879 10.0293 357.848 9.40039 360.24 9.40039C362.756 9.40039 364.793 10.0498 366.352 11.3486C367.924 12.6475 368.71 14.3086 368.71 16.332H364.896C364.896 15.293 364.451 14.3975 363.562 13.6455C362.688 12.8936 361.58 12.5176 360.24 12.5176C358.859 12.5176 357.779 12.8184 357 13.4199C356.221 14.0215 355.831 14.8076 355.831 15.7783C355.831 16.6943 356.193 17.3848 356.918 17.8496C357.643 18.3145 358.948 18.7588 360.835 19.1826C362.735 19.6064 364.273 20.1123 365.449 20.7002C366.625 21.2881 367.493 21.999 368.054 22.833C368.628 23.6533 368.915 24.6582 368.915 25.8477C368.915 27.8301 368.122 29.4229 366.536 30.626C364.95 31.8154 362.893 32.4102 360.363 32.4102C358.586 32.4102 357.014 32.0957 355.646 31.4668C354.279 30.8379 353.206 29.9629 352.427 28.8418C351.661 27.707 351.278 26.4834 351.278 25.1709H355.072C355.141 26.4424 355.646 27.4541 356.59 28.2061C357.547 28.9443 358.805 29.3135 360.363 29.3135C361.799 29.3135 362.947 29.0264 363.809 28.4521C364.684 27.8643 365.121 27.085 365.121 26.1143Z" fill="white"/>
<path d="M373.734 30.0107C373.734 29.3545 373.926 28.8076 374.309 28.3701C374.705 27.9326 375.293 27.7139 376.072 27.7139C376.852 27.7139 377.439 27.9326 377.836 28.3701C378.246 28.8076 378.451 29.3545 378.451 30.0107C378.451 30.6396 378.246 31.166 377.836 31.5898C377.439 32.0137 376.852 32.2256 376.072 32.2256C375.293 32.2256 374.705 32.0137 374.309 31.5898C373.926 31.166 373.734 30.6396 373.734 30.0107ZM373.755 11.9023C373.755 11.2461 373.946 10.6992 374.329 10.2617C374.726 9.82422 375.313 9.60547 376.093 9.60547C376.872 9.60547 377.46 9.82422 377.856 10.2617C378.267 10.6992 378.472 11.2461 378.472 11.9023C378.472 12.5312 378.267 13.0576 377.856 13.4814C377.46 13.9053 376.872 14.1172 376.093 14.1172C375.313 14.1172 374.726 13.9053 374.329 13.4814C373.946 13.0576 373.755 12.5312 373.755 11.9023Z" fill="white"/>
</g>
<g id="cartas">
<g id="Group 32">
<path id="Rectangle 23" d="M26 63H95V166H26V63Z" fill="#492EBD"/>
<path id="1" d="M66.4268 129H60.5V106.154L53.4248 108.349V103.529L65.791 99.0996H66.4268V129Z" fill="white"/>
</g>
<g id="Group 33">
<path id="Rectangle 24" d="M139 63H208V166H139V63Z" fill="#492EBD"/>
<path id="2" d="M183.497 129H163.03V124.939L172.689 114.645C174.016 113.195 174.993 111.931 175.622 110.851C176.265 109.771 176.586 108.745 176.586 107.774C176.586 106.448 176.251 105.409 175.581 104.657C174.911 103.892 173.954 103.509 172.71 103.509C171.37 103.509 170.311 103.974 169.531 104.903C168.766 105.819 168.383 107.029 168.383 108.533H162.436C162.436 106.715 162.866 105.054 163.728 103.55C164.603 102.046 165.833 100.87 167.419 100.022C169.005 99.1611 170.803 98.7305 172.812 98.7305C175.889 98.7305 178.274 99.4688 179.97 100.945C181.679 102.422 182.533 104.507 182.533 107.2C182.533 108.677 182.15 110.181 181.385 111.712C180.619 113.243 179.307 115.027 177.447 117.064L170.659 124.222H183.497V129Z" fill="white"/>
</g>
<g id="Group 34">
<path id="Rectangle 25" d="M252 63H321V166H252V63Z" fill="#492EBD"/>
<path id="3" d="M284.06 111.445H287.218C288.722 111.445 289.836 111.069 290.561 110.317C291.285 109.565 291.647 108.567 291.647 107.323C291.647 106.12 291.285 105.184 290.561 104.514C289.85 103.844 288.865 103.509 287.607 103.509C286.473 103.509 285.522 103.823 284.757 104.452C283.991 105.067 283.608 105.874 283.608 106.872H277.682C277.682 105.313 278.099 103.919 278.933 102.688C279.78 101.444 280.956 100.474 282.46 99.7764C283.978 99.0791 285.646 98.7305 287.464 98.7305C290.622 98.7305 293.097 99.4893 294.888 101.007C296.679 102.511 297.574 104.589 297.574 107.241C297.574 108.608 297.157 109.866 296.323 111.015C295.489 112.163 294.396 113.045 293.042 113.66C294.724 114.262 295.975 115.164 296.795 116.367C297.629 117.57 298.046 118.992 298.046 120.633C298.046 123.285 297.075 125.411 295.134 127.011C293.206 128.61 290.649 129.41 287.464 129.41C284.483 129.41 282.043 128.624 280.143 127.052C278.256 125.479 277.312 123.401 277.312 120.817H283.239C283.239 121.938 283.656 122.854 284.49 123.565C285.338 124.276 286.377 124.632 287.607 124.632C289.016 124.632 290.116 124.263 290.909 123.524C291.716 122.772 292.119 121.781 292.119 120.551C292.119 117.57 290.479 116.08 287.197 116.08H284.06V111.445Z" fill="white"/>
</g>
<g id="Group 35">
<path id="Rectangle 26" d="M365 63H434V166H365V63Z" fill="#492EBD"/>
<path id="4" d="M404.564 117.762H407.948V122.54H404.564V129H398.638V122.54H386.395L386.128 118.808L398.576 99.1406H404.564V117.762ZM392.034 117.762H398.638V107.221L398.248 107.897L392.034 117.762Z" fill="white"/>
</g>
<g id="Group 36">
<path id="Rectangle 27" d="M478 63H547V166H478V63Z" fill="#492EBD"/>
<path id="5" d="M502.912 114.316L504.635 99.1406H521.369V104.083H509.495L508.757 110.502C510.165 109.75 511.662 109.374 513.248 109.374C516.092 109.374 518.32 110.256 519.934 112.02C521.547 113.783 522.354 116.251 522.354 119.423C522.354 121.351 521.943 123.08 521.123 124.611C520.316 126.129 519.154 127.312 517.637 128.159C516.119 128.993 514.328 129.41 512.264 129.41C510.459 129.41 508.784 129.048 507.239 128.323C505.694 127.585 504.471 126.553 503.568 125.227C502.68 123.9 502.208 122.39 502.153 120.694H508.019C508.142 121.938 508.572 122.909 509.311 123.606C510.062 124.29 511.04 124.632 512.243 124.632C513.583 124.632 514.615 124.153 515.34 123.196C516.064 122.226 516.427 120.858 516.427 119.095C516.427 117.399 516.01 116.101 515.176 115.198C514.342 114.296 513.159 113.845 511.628 113.845C510.22 113.845 509.078 114.214 508.203 114.952L507.629 115.485L502.912 114.316Z" fill="white"/>
</g>
<g id="Group 37">
<path id="Rectangle 28" d="M591 63H660V166H591V63Z" fill="#492EBD"/>
<path id="6" d="M631.108 98.833V103.714H630.534C627.854 103.755 625.694 104.452 624.054 105.806C622.427 107.159 621.449 109.039 621.121 111.445C622.707 109.832 624.71 109.025 627.13 109.025C629.728 109.025 631.792 109.955 633.323 111.814C634.854 113.674 635.62 116.121 635.62 119.156C635.62 121.098 635.196 122.854 634.349 124.427C633.515 125.999 632.325 127.223 630.78 128.098C629.249 128.973 627.513 129.41 625.571 129.41C622.427 129.41 619.884 128.316 617.942 126.129C616.015 123.941 615.051 121.022 615.051 117.372V115.239C615.051 111.999 615.659 109.142 616.876 106.667C618.106 104.179 619.863 102.258 622.146 100.904C624.443 99.5371 627.103 98.8467 630.124 98.833H631.108ZM625.325 113.783C624.368 113.783 623.5 114.036 622.721 114.542C621.941 115.034 621.367 115.69 620.998 116.511V118.315C620.998 120.298 621.388 121.85 622.167 122.971C622.946 124.078 624.04 124.632 625.448 124.632C626.72 124.632 627.745 124.133 628.524 123.135C629.317 122.123 629.714 120.817 629.714 119.218C629.714 117.591 629.317 116.278 628.524 115.28C627.731 114.282 626.665 113.783 625.325 113.783Z" fill="white"/>
</g>
<g id="Group 38">
<path id="Rectangle 29" d="M704 63H773V166H704V63Z" fill="#492EBD"/>
<path id="7" d="M746.333 102.463L734.787 129H728.532L740.099 103.939H725.251V99.1406H746.333V102.463Z" fill="white"/>
</g>
</g>
<g id="tex">
<path d="M323.264 212.69C319.887 211.72 317.426 210.53 315.881 209.122C314.35 207.7 313.584 205.95 313.584 203.872C313.584 201.521 314.521 199.579 316.394 198.048C318.28 196.503 320.728 195.73 323.735 195.73C325.786 195.73 327.611 196.127 329.211 196.92C330.824 197.713 332.068 198.807 332.943 200.201C333.832 201.596 334.276 203.12 334.276 204.774H330.318C330.318 202.97 329.744 201.555 328.596 200.529C327.447 199.49 325.827 198.971 323.735 198.971C321.794 198.971 320.276 199.401 319.183 200.263C318.103 201.11 317.562 202.293 317.562 203.811C317.562 205.027 318.075 206.06 319.101 206.907C320.14 207.741 321.896 208.507 324.371 209.204C326.859 209.901 328.801 210.674 330.195 211.521C331.604 212.355 332.643 213.333 333.312 214.454C333.996 215.575 334.338 216.895 334.338 218.412C334.338 220.832 333.395 222.773 331.508 224.236C329.621 225.686 327.099 226.41 323.94 226.41C321.89 226.41 319.976 226.021 318.198 225.241C316.421 224.448 315.047 223.368 314.076 222.001C313.119 220.634 312.641 219.082 312.641 217.346H316.599C316.599 219.15 317.262 220.579 318.588 221.632C319.928 222.671 321.712 223.19 323.94 223.19C326.019 223.19 327.611 222.767 328.719 221.919C329.826 221.071 330.38 219.916 330.38 218.453C330.38 216.99 329.867 215.862 328.842 215.069C327.816 214.263 325.957 213.47 323.264 212.69Z" fill="white"/>
<path d="M352.508 223.806C351.031 225.542 348.864 226.41 346.007 226.41C343.642 226.41 341.837 225.727 340.593 224.359C339.362 222.979 338.74 220.941 338.727 218.248V203.811H342.521V218.146C342.521 221.509 343.888 223.19 346.622 223.19C349.521 223.19 351.448 222.11 352.405 219.95V203.811H356.199V226H352.59L352.508 223.806Z" fill="white"/>
<path d="M365.551 203.811L365.653 206.271C367.28 204.357 369.475 203.4 372.236 203.4C375.34 203.4 377.452 204.59 378.573 206.969C379.312 205.902 380.269 205.041 381.444 204.385C382.634 203.729 384.035 203.4 385.648 203.4C390.516 203.4 392.99 205.978 393.072 211.132V226H389.278V211.357C389.278 209.771 388.916 208.589 388.191 207.81C387.467 207.017 386.25 206.62 384.541 206.62C383.133 206.62 381.964 207.044 381.034 207.892C380.104 208.726 379.564 209.854 379.414 211.275V226H375.6V211.46C375.6 208.233 374.021 206.62 370.862 206.62C368.374 206.62 366.672 207.68 365.756 209.799V226H361.962V203.811H365.551Z" fill="white"/>
<path d="M412.514 226C412.295 225.562 412.117 224.783 411.98 223.662C410.217 225.494 408.111 226.41 405.664 226.41C403.477 226.41 401.679 225.795 400.271 224.564C398.876 223.32 398.179 221.748 398.179 219.848C398.179 217.537 399.054 215.746 400.804 214.475C402.567 213.189 405.042 212.547 408.228 212.547H411.919V210.804C411.919 209.478 411.522 208.425 410.729 207.646C409.937 206.853 408.768 206.456 407.223 206.456C405.869 206.456 404.734 206.798 403.818 207.481C402.902 208.165 402.444 208.992 402.444 209.963H398.63C398.63 208.855 399.02 207.789 399.799 206.764C400.592 205.725 401.658 204.904 402.998 204.303C404.352 203.701 405.835 203.4 407.448 203.4C410.005 203.4 412.008 204.043 413.457 205.328C414.906 206.6 415.658 208.356 415.713 210.599V220.812C415.713 222.849 415.973 224.469 416.492 225.672V226H412.514ZM406.218 223.108C407.407 223.108 408.535 222.801 409.602 222.186C410.668 221.57 411.44 220.771 411.919 219.786V215.233H408.945C404.297 215.233 401.973 216.594 401.973 219.314C401.973 220.504 402.369 221.434 403.162 222.104C403.955 222.773 404.974 223.108 406.218 223.108Z" fill="white"/>
<path d="M425.249 203.811L425.372 206.6C427.067 204.467 429.282 203.4 432.017 203.4C436.706 203.4 439.071 206.046 439.112 211.337V226H435.318V211.316C435.305 209.717 434.936 208.534 434.211 207.769C433.5 207.003 432.386 206.62 430.868 206.62C429.638 206.62 428.558 206.948 427.628 207.604C426.698 208.261 425.974 209.122 425.454 210.188V226H421.66V203.811H425.249Z" fill="white"/>
<path d="M474.427 226H454.862V223.272L465.198 211.788C466.729 210.052 467.782 208.644 468.356 207.563C468.944 206.47 469.238 205.342 469.238 204.18C469.238 202.621 468.767 201.343 467.823 200.345C466.88 199.347 465.622 198.848 464.05 198.848C462.163 198.848 460.693 199.388 459.641 200.468C458.602 201.534 458.082 203.024 458.082 204.938H454.288C454.288 202.19 455.17 199.969 456.934 198.273C458.711 196.578 461.083 195.73 464.05 195.73C466.825 195.73 469.02 196.462 470.633 197.925C472.246 199.374 473.053 201.309 473.053 203.729C473.053 206.668 471.18 210.168 467.434 214.229L459.436 222.903H474.427V226Z" fill="white"/>
<path d="M496.555 203.934C496.555 205.424 496.158 206.75 495.365 207.912C494.586 209.074 493.526 209.983 492.187 210.64C493.745 211.31 494.976 212.287 495.878 213.572C496.794 214.857 497.252 216.313 497.252 217.94C497.252 220.524 496.377 222.582 494.627 224.113C492.891 225.645 490.601 226.41 487.757 226.41C484.886 226.41 482.582 225.645 480.846 224.113C479.123 222.568 478.262 220.511 478.262 217.94C478.262 216.327 478.699 214.871 479.574 213.572C480.463 212.273 481.687 211.289 483.245 210.619C481.919 209.963 480.873 209.054 480.107 207.892C479.342 206.729 478.959 205.41 478.959 203.934C478.959 201.418 479.766 199.422 481.379 197.945C482.992 196.469 485.118 195.73 487.757 195.73C490.382 195.73 492.501 196.469 494.114 197.945C495.741 199.422 496.555 201.418 496.555 203.934ZM493.458 217.858C493.458 216.19 492.925 214.83 491.858 213.777C490.806 212.725 489.425 212.198 487.716 212.198C486.007 212.198 484.633 212.718 483.594 213.757C482.568 214.796 482.056 216.163 482.056 217.858C482.056 219.554 482.555 220.887 483.553 221.857C484.564 222.828 485.966 223.313 487.757 223.313C489.534 223.313 490.929 222.828 491.94 221.857C492.952 220.873 493.458 219.54 493.458 217.858ZM487.757 198.848C486.267 198.848 485.057 199.312 484.127 200.242C483.211 201.158 482.753 202.409 482.753 203.995C482.753 205.513 483.204 206.743 484.106 207.687C485.022 208.616 486.239 209.081 487.757 209.081C489.274 209.081 490.484 208.616 491.387 207.687C492.303 206.743 492.761 205.513 492.761 203.995C492.761 202.478 492.289 201.24 491.346 200.283C490.402 199.326 489.206 198.848 487.757 198.848Z" fill="white"/>
</g>
<g id="tex_2">
<path d="M25.3438 282.198H12.4033V292.78H27.4355V296H8.46582V266.141H27.2305V269.381H12.4033V278.979H25.3438V282.198Z" fill="white"/>
<path d="M35.3311 273.811L35.4541 276.6C37.1494 274.467 39.3643 273.4 42.0986 273.4C46.7881 273.4 49.1533 276.046 49.1943 281.337V296H45.4004V281.316C45.3867 279.717 45.0176 278.534 44.293 277.769C43.582 277.003 42.4678 276.62 40.9502 276.62C39.7197 276.62 38.6396 276.948 37.71 277.604C36.7803 278.261 36.0557 279.122 35.5361 280.188V296H31.7422V273.811H35.3311Z" fill="white"/>
<path d="M60.0635 268.438V273.811H64.2061V276.743H60.0635V290.504C60.0635 291.393 60.248 292.062 60.6172 292.514C60.9863 292.951 61.6152 293.17 62.5039 293.17C62.9414 293.17 63.543 293.088 64.3086 292.924V296C63.3105 296.273 62.3398 296.41 61.3965 296.41C59.7012 296.41 58.4229 295.897 57.5615 294.872C56.7002 293.847 56.2695 292.391 56.2695 290.504V276.743H52.2295V273.811H56.2695V268.438H60.0635Z" fill="white"/>
<path d="M67.2412 284.7C67.2412 282.526 67.665 280.571 68.5127 278.835C69.374 277.099 70.5635 275.759 72.0811 274.815C73.6123 273.872 75.3555 273.4 77.3105 273.4C80.332 273.4 82.7725 274.446 84.6318 276.538C86.5049 278.63 87.4414 281.412 87.4414 284.885V285.151C87.4414 287.312 87.0244 289.253 86.1904 290.976C85.3701 292.685 84.1875 294.018 82.6426 294.975C81.1113 295.932 79.3477 296.41 77.3516 296.41C74.3438 296.41 71.9033 295.364 70.0303 293.272C68.1709 291.181 67.2412 288.412 67.2412 284.967V284.7ZM71.0557 285.151C71.0557 287.612 71.623 289.588 72.7578 291.078C73.9062 292.568 75.4375 293.313 77.3516 293.313C79.2793 293.313 80.8105 292.562 81.9453 291.058C83.0801 289.54 83.6475 287.421 83.6475 284.7C83.6475 282.267 83.0664 280.298 81.9043 278.794C80.7559 277.276 79.2246 276.518 77.3105 276.518C75.4375 276.518 73.9268 277.263 72.7783 278.753C71.6299 280.243 71.0557 282.376 71.0557 285.151Z" fill="white"/>
<path d="M95.7881 273.811L95.9111 276.6C97.6064 274.467 99.8213 273.4 102.556 273.4C107.245 273.4 109.61 276.046 109.651 281.337V296H105.857V281.316C105.844 279.717 105.475 278.534 104.75 277.769C104.039 277.003 102.925 276.62 101.407 276.62C100.177 276.62 99.0967 276.948 98.167 277.604C97.2373 278.261 96.5127 279.122 95.9932 280.188V296H92.1992V273.811H95.7881Z" fill="white"/>
<path d="M124.273 293.313C125.627 293.313 126.81 292.903 127.821 292.083C128.833 291.263 129.394 290.237 129.503 289.007H133.092C133.023 290.278 132.586 291.488 131.779 292.637C130.973 293.785 129.893 294.701 128.539 295.385C127.199 296.068 125.777 296.41 124.273 296.41C121.252 296.41 118.846 295.405 117.055 293.396C115.277 291.372 114.389 288.61 114.389 285.11V284.475C114.389 282.314 114.785 280.394 115.578 278.712C116.371 277.03 117.506 275.725 118.982 274.795C120.473 273.865 122.229 273.4 124.253 273.4C126.741 273.4 128.806 274.146 130.446 275.636C132.101 277.126 132.982 279.061 133.092 281.439H129.503C129.394 280.004 128.847 278.828 127.862 277.912C126.892 276.982 125.688 276.518 124.253 276.518C122.325 276.518 120.828 277.215 119.762 278.609C118.709 279.99 118.183 281.993 118.183 284.618V285.336C118.183 287.893 118.709 289.861 119.762 291.242C120.814 292.623 122.318 293.313 124.273 293.313Z" fill="white"/>
<path d="M146.565 296.41C143.558 296.41 141.11 295.426 139.224 293.457C137.337 291.475 136.394 288.829 136.394 285.521V284.823C136.394 282.622 136.811 280.66 137.645 278.938C138.492 277.201 139.668 275.848 141.172 274.877C142.689 273.893 144.33 273.4 146.094 273.4C148.979 273.4 151.221 274.351 152.82 276.251C154.42 278.151 155.22 280.872 155.22 284.413V285.992H140.188C140.242 288.18 140.878 289.95 142.095 291.304C143.325 292.644 144.884 293.313 146.771 293.313C148.11 293.313 149.245 293.04 150.175 292.493C151.104 291.946 151.918 291.222 152.615 290.319L154.933 292.124C153.073 294.981 150.284 296.41 146.565 296.41ZM146.094 276.518C144.562 276.518 143.277 277.078 142.238 278.199C141.199 279.307 140.557 280.865 140.311 282.875H151.426V282.588C151.316 280.66 150.797 279.17 149.867 278.117C148.938 277.051 147.68 276.518 146.094 276.518Z" fill="white"/>
<path d="M172.549 290.114C172.549 289.089 172.159 288.296 171.38 287.735C170.614 287.161 169.268 286.669 167.34 286.259C165.426 285.849 163.901 285.356 162.767 284.782C161.646 284.208 160.812 283.524 160.265 282.731C159.731 281.938 159.465 280.995 159.465 279.901C159.465 278.083 160.23 276.545 161.762 275.287C163.307 274.029 165.275 273.4 167.668 273.4C170.184 273.4 172.221 274.05 173.779 275.349C175.352 276.647 176.138 278.309 176.138 280.332H172.323C172.323 279.293 171.879 278.397 170.99 277.646C170.115 276.894 169.008 276.518 167.668 276.518C166.287 276.518 165.207 276.818 164.428 277.42C163.648 278.021 163.259 278.808 163.259 279.778C163.259 280.694 163.621 281.385 164.346 281.85C165.07 282.314 166.376 282.759 168.263 283.183C170.163 283.606 171.701 284.112 172.877 284.7C174.053 285.288 174.921 285.999 175.481 286.833C176.056 287.653 176.343 288.658 176.343 289.848C176.343 291.83 175.55 293.423 173.964 294.626C172.378 295.815 170.32 296.41 167.791 296.41C166.014 296.41 164.441 296.096 163.074 295.467C161.707 294.838 160.634 293.963 159.854 292.842C159.089 291.707 158.706 290.483 158.706 289.171H162.5C162.568 290.442 163.074 291.454 164.018 292.206C164.975 292.944 166.232 293.313 167.791 293.313C169.227 293.313 170.375 293.026 171.236 292.452C172.111 291.864 172.549 291.085 172.549 290.114Z" fill="white"/>
<path d="M199.024 290.853L204.521 273.811H208.396L200.439 296H197.548L189.509 273.811H193.385L199.024 290.853Z" fill="white"/>
<path d="M210.714 284.7C210.714 282.526 211.138 280.571 211.985 278.835C212.847 277.099 214.036 275.759 215.554 274.815C217.085 273.872 218.828 273.4 220.783 273.4C223.805 273.4 226.245 274.446 228.104 276.538C229.978 278.63 230.914 281.412 230.914 284.885V285.151C230.914 287.312 230.497 289.253 229.663 290.976C228.843 292.685 227.66 294.018 226.115 294.975C224.584 295.932 222.82 296.41 220.824 296.41C217.816 296.41 215.376 295.364 213.503 293.272C211.644 291.181 210.714 288.412 210.714 284.967V284.7ZM214.528 285.151C214.528 287.612 215.096 289.588 216.23 291.078C217.379 292.568 218.91 293.313 220.824 293.313C222.752 293.313 224.283 292.562 225.418 291.058C226.553 289.54 227.12 287.421 227.12 284.7C227.12 282.267 226.539 280.298 225.377 278.794C224.229 277.276 222.697 276.518 220.783 276.518C218.91 276.518 217.399 277.263 216.251 278.753C215.103 280.243 214.528 282.376 214.528 285.151Z" fill="white"/>
<path d="M239.794 296H236V264.5H239.794V296Z" fill="white"/>
<path d="M251.032 268.438V273.811H255.175V276.743H251.032V290.504C251.032 291.393 251.217 292.062 251.586 292.514C251.955 292.951 252.584 293.17 253.473 293.17C253.91 293.17 254.512 293.088 255.277 292.924V296C254.279 296.273 253.309 296.41 252.365 296.41C250.67 296.41 249.392 295.897 248.53 294.872C247.669 293.847 247.238 292.391 247.238 290.504V276.743H243.198V273.811H247.238V268.438H251.032Z" fill="white"/>
<path d="M273.324 296C273.105 295.562 272.928 294.783 272.791 293.662C271.027 295.494 268.922 296.41 266.475 296.41C264.287 296.41 262.489 295.795 261.081 294.564C259.687 293.32 258.989 291.748 258.989 289.848C258.989 287.537 259.864 285.746 261.614 284.475C263.378 283.189 265.853 282.547 269.038 282.547H272.729V280.804C272.729 279.478 272.333 278.425 271.54 277.646C270.747 276.853 269.578 276.456 268.033 276.456C266.68 276.456 265.545 276.798 264.629 277.481C263.713 278.165 263.255 278.992 263.255 279.963H259.44C259.44 278.855 259.83 277.789 260.609 276.764C261.402 275.725 262.469 274.904 263.809 274.303C265.162 273.701 266.646 273.4 268.259 273.4C270.815 273.4 272.818 274.043 274.268 275.328C275.717 276.6 276.469 278.356 276.523 280.599V290.812C276.523 292.849 276.783 294.469 277.303 295.672V296H273.324ZM267.028 293.108C268.218 293.108 269.346 292.801 270.412 292.186C271.479 291.57 272.251 290.771 272.729 289.786V285.233H269.756C265.107 285.233 262.783 286.594 262.783 289.314C262.783 290.504 263.18 291.434 263.973 292.104C264.766 292.773 265.784 293.108 267.028 293.108Z" fill="white"/>
<path d="M286.039 273.811L286.142 276.271C287.769 274.357 289.963 273.4 292.725 273.4C295.828 273.4 297.94 274.59 299.062 276.969C299.8 275.902 300.757 275.041 301.933 274.385C303.122 273.729 304.523 273.4 306.137 273.4C311.004 273.4 313.479 275.978 313.561 281.132V296H309.767V281.357C309.767 279.771 309.404 278.589 308.68 277.81C307.955 277.017 306.738 276.62 305.029 276.62C303.621 276.62 302.452 277.044 301.522 277.892C300.593 278.726 300.053 279.854 299.902 281.275V296H296.088V281.46C296.088 278.233 294.509 276.62 291.351 276.62C288.862 276.62 287.16 277.68 286.244 279.799V296H282.45V273.811H286.039Z" fill="white"/>
<path d="M318.298 284.7C318.298 282.526 318.722 280.571 319.569 278.835C320.431 277.099 321.62 275.759 323.138 274.815C324.669 273.872 326.412 273.4 328.367 273.4C331.389 273.4 333.829 274.446 335.688 276.538C337.562 278.63 338.498 281.412 338.498 284.885V285.151C338.498 287.312 338.081 289.253 337.247 290.976C336.427 292.685 335.244 294.018 333.699 294.975C332.168 295.932 330.404 296.41 328.408 296.41C325.4 296.41 322.96 295.364 321.087 293.272C319.228 291.181 318.298 288.412 318.298 284.967V284.7ZM322.112 285.151C322.112 287.612 322.68 289.588 323.814 291.078C324.963 292.568 326.494 293.313 328.408 293.313C330.336 293.313 331.867 292.562 333.002 291.058C334.137 289.54 334.704 287.421 334.704 284.7C334.704 282.267 334.123 280.298 332.961 278.794C331.812 277.276 330.281 276.518 328.367 276.518C326.494 276.518 324.983 277.263 323.835 278.753C322.687 280.243 322.112 282.376 322.112 285.151Z" fill="white"/>
<path d="M356.176 290.114C356.176 289.089 355.786 288.296 355.007 287.735C354.241 287.161 352.895 286.669 350.967 286.259C349.053 285.849 347.528 285.356 346.394 284.782C345.272 284.208 344.438 283.524 343.892 282.731C343.358 281.938 343.092 280.995 343.092 279.901C343.092 278.083 343.857 276.545 345.389 275.287C346.934 274.029 348.902 273.4 351.295 273.4C353.811 273.4 355.848 274.05 357.406 275.349C358.979 276.647 359.765 278.309 359.765 280.332H355.95C355.95 279.293 355.506 278.397 354.617 277.646C353.742 276.894 352.635 276.518 351.295 276.518C349.914 276.518 348.834 276.818 348.055 277.42C347.275 278.021 346.886 278.808 346.886 279.778C346.886 280.694 347.248 281.385 347.973 281.85C348.697 282.314 350.003 282.759 351.89 283.183C353.79 283.606 355.328 284.112 356.504 284.7C357.68 285.288 358.548 285.999 359.108 286.833C359.683 287.653 359.97 288.658 359.97 289.848C359.97 291.83 359.177 293.423 357.591 294.626C356.005 295.815 353.947 296.41 351.418 296.41C349.641 296.41 348.068 296.096 346.701 295.467C345.334 294.838 344.261 293.963 343.481 292.842C342.716 291.707 342.333 290.483 342.333 289.171H346.127C346.195 290.442 346.701 291.454 347.645 292.206C348.602 292.944 349.859 293.313 351.418 293.313C352.854 293.313 354.002 293.026 354.863 292.452C355.738 291.864 356.176 291.085 356.176 290.114Z" fill="white"/>
<path d="M394.218 268.273L381.852 296H377.873L390.198 269.258H374.038V266.141H394.218V268.273Z" fill="white"/>
<path d="M418.232 293.313C419.586 293.313 420.769 292.903 421.78 292.083C422.792 291.263 423.353 290.237 423.462 289.007H427.051C426.982 290.278 426.545 291.488 425.738 292.637C424.932 293.785 423.852 294.701 422.498 295.385C421.158 296.068 419.736 296.41 418.232 296.41C415.211 296.41 412.805 295.405 411.014 293.396C409.236 291.372 408.348 288.61 408.348 285.11V284.475C408.348 282.314 408.744 280.394 409.537 278.712C410.33 277.03 411.465 275.725 412.941 274.795C414.432 273.865 416.188 273.4 418.212 273.4C420.7 273.4 422.765 274.146 424.405 275.636C426.06 277.126 426.941 279.061 427.051 281.439H423.462C423.353 280.004 422.806 278.828 421.821 277.912C420.851 276.982 419.647 276.518 418.212 276.518C416.284 276.518 414.787 277.215 413.721 278.609C412.668 279.99 412.142 281.993 412.142 284.618V285.336C412.142 287.893 412.668 289.861 413.721 291.242C414.773 292.623 416.277 293.313 418.232 293.313Z" fill="white"/>
<path d="M445.016 296C444.797 295.562 444.619 294.783 444.482 293.662C442.719 295.494 440.613 296.41 438.166 296.41C435.979 296.41 434.181 295.795 432.772 294.564C431.378 293.32 430.681 291.748 430.681 289.848C430.681 287.537 431.556 285.746 433.306 284.475C435.069 283.189 437.544 282.547 440.729 282.547H444.421V280.804C444.421 279.478 444.024 278.425 443.231 277.646C442.438 276.853 441.27 276.456 439.725 276.456C438.371 276.456 437.236 276.798 436.32 277.481C435.404 278.165 434.946 278.992 434.946 279.963H431.132C431.132 278.855 431.521 277.789 432.301 276.764C433.094 275.725 434.16 274.904 435.5 274.303C436.854 273.701 438.337 273.4 439.95 273.4C442.507 273.4 444.51 274.043 445.959 275.328C447.408 276.6 448.16 278.356 448.215 280.599V290.812C448.215 292.849 448.475 294.469 448.994 295.672V296H445.016ZM438.72 293.108C439.909 293.108 441.037 292.801 442.104 292.186C443.17 291.57 443.942 290.771 444.421 289.786V285.233H441.447C436.799 285.233 434.475 286.594 434.475 289.314C434.475 290.504 434.871 291.434 435.664 292.104C436.457 292.773 437.476 293.108 438.72 293.108Z" fill="white"/>
<path d="M464.888 277.215C464.313 277.119 463.691 277.071 463.021 277.071C460.533 277.071 458.845 278.131 457.956 280.25V296H454.162V273.811H457.854L457.915 276.374C459.159 274.392 460.923 273.4 463.206 273.4C463.944 273.4 464.505 273.496 464.888 273.688V277.215Z" fill="white"/>
<path d="M474.567 268.438V273.811H478.71V276.743H474.567V290.504C474.567 291.393 474.752 292.062 475.121 292.514C475.49 292.951 476.119 293.17 477.008 293.17C477.445 293.17 478.047 293.088 478.812 292.924V296C477.814 296.273 476.844 296.41 475.9 296.41C474.205 296.41 472.927 295.897 472.065 294.872C471.204 293.847 470.773 292.391 470.773 290.504V276.743H466.733V273.811H470.773V268.438H474.567Z" fill="white"/>
<path d="M496.859 296C496.641 295.562 496.463 294.783 496.326 293.662C494.562 295.494 492.457 296.41 490.01 296.41C487.822 296.41 486.024 295.795 484.616 294.564C483.222 293.32 482.524 291.748 482.524 289.848C482.524 287.537 483.399 285.746 485.149 284.475C486.913 283.189 489.388 282.547 492.573 282.547H496.265V280.804C496.265 279.478 495.868 278.425 495.075 277.646C494.282 276.853 493.113 276.456 491.568 276.456C490.215 276.456 489.08 276.798 488.164 277.481C487.248 278.165 486.79 278.992 486.79 279.963H482.976C482.976 278.855 483.365 277.789 484.145 276.764C484.938 275.725 486.004 274.904 487.344 274.303C488.697 273.701 490.181 273.4 491.794 273.4C494.351 273.4 496.354 274.043 497.803 275.328C499.252 276.6 500.004 278.356 500.059 280.599V290.812C500.059 292.849 500.318 294.469 500.838 295.672V296H496.859ZM490.563 293.108C491.753 293.108 492.881 292.801 493.947 292.186C495.014 291.57 495.786 290.771 496.265 289.786V285.233H493.291C488.643 285.233 486.318 286.594 486.318 289.314C486.318 290.504 486.715 291.434 487.508 292.104C488.301 292.773 489.319 293.108 490.563 293.108Z" fill="white"/>
<path d="M518.926 290.114C518.926 289.089 518.536 288.296 517.757 287.735C516.991 287.161 515.645 286.669 513.717 286.259C511.803 285.849 510.278 285.356 509.144 284.782C508.022 284.208 507.188 283.524 506.642 282.731C506.108 281.938 505.842 280.995 505.842 279.901C505.842 278.083 506.607 276.545 508.139 275.287C509.684 274.029 511.652 273.4 514.045 273.4C516.561 273.4 518.598 274.05 520.156 275.349C521.729 276.647 522.515 278.309 522.515 280.332H518.7C518.7 279.293 518.256 278.397 517.367 277.646C516.492 276.894 515.385 276.518 514.045 276.518C512.664 276.518 511.584 276.818 510.805 277.42C510.025 278.021 509.636 278.808 509.636 279.778C509.636 280.694 509.998 281.385 510.723 281.85C511.447 282.314 512.753 282.759 514.64 283.183C516.54 283.606 518.078 284.112 519.254 284.7C520.43 285.288 521.298 285.999 521.858 286.833C522.433 287.653 522.72 288.658 522.72 289.848C522.72 291.83 521.927 293.423 520.341 294.626C518.755 295.815 516.697 296.41 514.168 296.41C512.391 296.41 510.818 296.096 509.451 295.467C508.084 294.838 507.011 293.963 506.231 292.842C505.466 291.707 505.083 290.483 505.083 289.171H508.877C508.945 290.442 509.451 291.454 510.395 292.206C511.352 292.944 512.609 293.313 514.168 293.313C515.604 293.313 516.752 293.026 517.613 292.452C518.488 291.864 518.926 291.085 518.926 290.114Z" fill="white"/>
</g>
</g>
<g id="\frac{n \times (n+1)}{2}\geq 28\;\;&#10;        n \times (n+1) \geq 56\;\;&#10;        n \times (n+1) \geq 7 \times 8&#10;        \therefore n = 7&#10;             ">
<g id="Group">
<g id="Group 163">
<g id="Group_2">
<g id="Group_3">
<g id="Group_4">
<path id="Vector" d="M117.075 357.417C117.103 357.25 117.144 357.026 117.2 356.746C117.256 356.467 117.424 355.935 117.704 355.153C117.983 354.37 118.263 353.713 118.542 353.182C118.822 352.65 119.283 352.133 119.926 351.63C120.569 351.127 121.213 350.889 121.856 350.917C122.862 350.917 123.701 351.168 124.372 351.672C125.043 352.175 125.462 352.65 125.63 353.098C125.798 353.545 125.882 353.839 125.882 353.978C125.882 354.034 125.896 354.062 125.924 354.062L126.385 353.601C128.09 351.812 130.034 350.917 132.214 350.917C133.724 350.917 134.94 351.294 135.863 352.049C136.786 352.804 137.261 353.908 137.289 355.362C137.317 356.816 136.786 359.011 135.695 361.947C134.605 364.882 134.074 366.658 134.102 367.273C134.102 368 134.339 368.363 134.815 368.363C134.982 368.363 135.108 368.349 135.192 368.321C136.003 368.182 136.73 367.65 137.373 366.728C138.016 365.805 138.505 364.687 138.841 363.373C138.897 363.149 139.176 363.037 139.68 363.037C140.239 363.037 140.518 363.149 140.518 363.373C140.518 363.401 140.462 363.61 140.351 364.002C140.127 364.813 139.819 365.609 139.428 366.392C139.036 367.175 138.393 367.958 137.499 368.741C136.604 369.524 135.639 369.901 134.605 369.873C133.291 369.873 132.34 369.496 131.753 368.741C131.166 367.986 130.872 367.203 130.872 366.392C130.872 365.861 131.376 364.183 132.382 361.36C133.389 358.536 133.906 356.411 133.934 354.985C133.934 353.335 133.319 352.511 132.089 352.511H131.879C129.474 352.511 127.447 353.922 125.798 356.746L125.504 357.25L124.12 362.869C123.198 366.532 122.666 368.503 122.527 368.783C122.163 369.538 121.562 369.915 120.723 369.915C120.36 369.915 120.066 369.831 119.843 369.663C119.619 369.496 119.465 369.328 119.381 369.16C119.297 368.992 119.269 368.853 119.297 368.741C119.297 368.377 119.829 366.099 120.891 361.905C121.953 357.711 122.513 355.432 122.569 355.069C122.597 354.929 122.61 354.607 122.61 354.104C122.61 353.014 122.275 352.469 121.604 352.469C120.542 352.469 119.661 353.867 118.962 356.662C118.794 357.222 118.71 357.515 118.71 357.543C118.654 357.711 118.389 357.795 117.913 357.795H117.326C117.158 357.627 117.075 357.501 117.075 357.417Z" fill="white"/>
</g>
<g id="Group_5">
<path id="Vector_2" d="M177.097 368.237C177.097 368.797 176.804 369.076 176.216 369.076C176.077 369.076 175.769 368.852 175.294 368.405C174.819 367.958 173.504 366.658 171.352 364.505L166.99 360.143L162.586 364.547C159.623 367.455 158.099 368.936 158.015 368.992C157.903 369.048 157.805 369.076 157.722 369.076C157.498 369.076 157.302 368.992 157.134 368.825C156.967 368.657 156.869 368.461 156.841 368.237C156.841 368.042 157.037 367.734 157.428 367.315C157.819 366.895 159.133 365.567 161.37 363.331L165.732 358.969L161.37 354.607C159.105 352.343 157.791 351.015 157.428 350.623C157.064 350.232 156.869 349.924 156.841 349.701C156.841 349.449 156.925 349.253 157.092 349.113C157.26 348.974 157.47 348.904 157.722 348.904C157.861 348.904 157.959 348.918 158.015 348.946C158.099 349.002 159.623 350.483 162.586 353.391L166.99 357.795L171.352 353.433C173.504 351.28 174.819 349.98 175.294 349.533C175.769 349.085 176.077 348.862 176.216 348.862C176.804 348.862 177.097 349.141 177.097 349.701C177.097 349.896 176.957 350.148 176.678 350.455C176.398 350.763 175.028 352.133 172.568 354.565L168.206 358.969L172.568 363.373C174.916 365.721 176.258 367.077 176.594 367.441C176.929 367.804 177.097 368.07 177.097 368.237Z" fill="white"/>
</g>
<g id="Group_6">
<path id="Vector_3" d="M196.565 358.969C196.565 357.04 196.705 355.209 196.984 353.475C197.264 351.742 197.586 350.246 197.949 348.988C198.313 347.73 198.83 346.499 199.501 345.297C200.172 344.095 200.703 343.158 201.094 342.487C201.486 341.816 202.073 341.089 202.856 340.306C203.639 339.524 204.1 339.048 204.24 338.881C204.38 338.713 204.729 338.419 205.288 338H205.834H206.001C206.393 338 206.588 338.126 206.588 338.377C206.588 338.461 206.351 338.755 205.875 339.258C205.4 339.761 204.827 340.502 204.156 341.481C203.485 342.459 202.8 343.662 202.101 345.087C201.402 346.513 200.815 348.443 200.34 350.875C199.864 353.307 199.627 356.005 199.627 358.969C199.627 361.933 199.864 364.617 200.34 367.021C200.815 369.426 201.388 371.369 202.059 372.851C202.73 374.333 203.415 375.535 204.114 376.458C204.813 377.38 205.4 378.121 205.875 378.68C206.351 379.239 206.588 379.533 206.588 379.561C206.588 379.813 206.379 379.938 205.959 379.938H205.834H205.288L204.114 378.932C201.486 376.555 199.571 373.592 198.368 370.041C197.166 366.49 196.565 362.8 196.565 358.969Z" fill="white"/>
</g>
<g id="Group_7">
<path id="Vector_4" d="M209.818 357.417C209.846 357.25 209.888 357.026 209.944 356.746C209.999 356.467 210.167 355.935 210.447 355.153C210.726 354.37 211.006 353.713 211.286 353.182C211.565 352.65 212.026 352.133 212.67 351.63C213.313 351.127 213.956 350.889 214.599 350.917C215.605 350.917 216.444 351.168 217.115 351.672C217.786 352.175 218.205 352.65 218.373 353.098C218.541 353.545 218.625 353.839 218.625 353.978C218.625 354.034 218.639 354.062 218.667 354.062L219.128 353.601C220.834 351.812 222.777 350.917 224.958 350.917C226.467 350.917 227.684 351.294 228.606 352.049C229.529 352.804 230.004 353.908 230.032 355.362C230.06 356.816 229.529 359.011 228.438 361.947C227.348 364.882 226.817 366.658 226.845 367.273C226.845 368 227.082 368.363 227.558 368.363C227.726 368.363 227.851 368.349 227.935 368.321C228.746 368.182 229.473 367.65 230.116 366.728C230.759 365.805 231.248 364.687 231.584 363.373C231.64 363.149 231.919 363.037 232.423 363.037C232.982 363.037 233.261 363.149 233.261 363.373C233.261 363.401 233.206 363.61 233.094 364.002C232.87 364.813 232.562 365.609 232.171 366.392C231.78 367.175 231.137 367.958 230.242 368.741C229.347 369.524 228.383 369.901 227.348 369.873C226.034 369.873 225.083 369.496 224.496 368.741C223.909 367.986 223.616 367.203 223.616 366.392C223.616 365.861 224.119 364.183 225.125 361.36C226.132 358.536 226.649 356.411 226.677 354.985C226.677 353.335 226.062 352.511 224.832 352.511H224.622C222.218 352.511 220.191 353.922 218.541 356.746L218.247 357.25L216.863 362.869C215.941 366.532 215.41 368.503 215.27 368.783C214.906 369.538 214.305 369.915 213.466 369.915C213.103 369.915 212.809 369.831 212.586 369.663C212.362 369.496 212.208 369.328 212.124 369.16C212.04 368.992 212.013 368.853 212.04 368.741C212.04 368.377 212.572 366.099 213.634 361.905C214.697 357.711 215.256 355.432 215.312 355.069C215.34 354.929 215.354 354.607 215.354 354.104C215.354 353.014 215.018 352.469 214.347 352.469C213.285 352.469 212.404 353.867 211.705 356.662C211.537 357.222 211.453 357.515 211.453 357.543C211.397 357.711 211.132 357.795 210.656 357.795H210.069C209.902 357.627 209.818 357.501 209.818 357.417Z" fill="white"/>
</g>
<g id="Group_8">
<path id="Vector_5" d="M245.772 359.515C245.772 359.515 245.772 359.333 245.772 358.969C245.772 358.606 245.967 358.326 246.359 358.131H258.898V351.84L258.94 345.549C259.22 345.186 259.486 345.004 259.737 345.004C260.101 345.004 260.38 345.214 260.576 345.633V358.131H273.074C273.493 358.354 273.703 358.634 273.703 358.969C273.703 359.305 273.493 359.585 273.074 359.808H260.576V372.306C260.352 372.697 260.101 372.893 259.821 372.893H259.737H259.653C259.318 372.893 259.066 372.697 258.898 372.306V359.808H246.359C245.967 359.612 245.772 359.333 245.772 358.969V359.515Z" fill="white"/>
</g>
<g id="Group_9">
<path id="Vector_6" d="M294.303 345.213L293.758 345.423C293.366 345.563 292.807 345.703 292.08 345.842C291.353 345.982 290.543 346.08 289.648 346.136H288.851V344.207H289.648C290.962 344.151 292.178 343.941 293.297 343.578C294.415 343.214 295.198 342.879 295.645 342.571C296.092 342.264 296.484 341.956 296.819 341.649C296.875 341.565 297.043 341.523 297.323 341.523C297.574 341.523 297.812 341.607 298.036 341.774V354.314L298.078 366.896C298.273 367.091 298.441 367.217 298.581 367.273C298.721 367.329 299.056 367.385 299.587 367.441C300.119 367.497 300.985 367.525 302.188 367.525H303.278V369.454H302.817C302.23 369.37 300.007 369.328 296.148 369.328C292.346 369.328 290.151 369.37 289.564 369.454H289.061V367.525H290.151C290.766 367.525 291.298 367.525 291.745 367.525C292.192 367.525 292.542 367.511 292.793 367.483C293.045 367.455 293.269 367.413 293.464 367.357C293.66 367.301 293.772 367.273 293.8 367.273C293.828 367.273 293.912 367.203 294.051 367.063C294.191 366.924 294.275 366.868 294.303 366.896V345.213Z" fill="white"/>
</g>
<g id="Group_10">
<path id="Vector_7" d="M308.856 338.042L309.024 338C309.163 338 309.303 338 309.443 338H309.946L311.12 339.006C313.749 341.383 315.664 344.347 316.866 347.897C318.068 351.448 318.669 355.139 318.669 358.969C318.669 360.87 318.53 362.702 318.25 364.463C317.97 366.225 317.649 367.72 317.285 368.951C316.922 370.181 316.405 371.411 315.734 372.641C315.063 373.871 314.531 374.808 314.14 375.451C313.749 376.094 313.175 376.807 312.421 377.59C311.666 378.373 311.218 378.834 311.078 378.974C310.939 379.114 310.617 379.379 310.114 379.771C310.03 379.855 309.974 379.911 309.946 379.938H309.443C309.219 379.938 309.065 379.938 308.982 379.938C308.898 379.938 308.828 379.897 308.772 379.813C308.716 379.729 308.674 379.603 308.646 379.435C308.674 379.407 308.828 379.226 309.107 378.89C313.441 374.389 315.608 367.748 315.608 358.969C315.608 350.19 313.441 343.55 309.107 339.048C308.828 338.713 308.674 338.531 308.646 338.503C308.646 338.279 308.716 338.126 308.856 338.042Z" fill="white"/>
</g>
</g>
<g id="Group_11">
<path id="Vector_8" d="M213.508 410.008C212.753 410.008 212.152 409.756 211.705 409.253C211.258 408.75 211.034 408.135 211.034 407.408C211.034 405.423 211.775 403.703 213.257 402.249C214.738 400.796 216.584 400.069 218.793 400.069C221.337 400.069 223.462 400.851 225.167 402.417C226.873 403.983 227.739 406.01 227.767 408.498C227.767 409.701 227.488 410.847 226.929 411.937C226.369 413.028 225.698 413.978 224.916 414.789C224.133 415.6 223.014 416.634 221.561 417.893C220.554 418.759 219.156 420.045 217.367 421.751L214.892 424.099L218.08 424.141C222.469 424.141 224.804 424.072 225.083 423.932C225.279 423.876 225.615 422.632 226.09 420.199V420.073H227.767V420.199C227.739 420.283 227.558 421.555 227.222 424.016C226.887 426.476 226.677 427.762 226.593 427.874V428H211.034V427.203V426.7C211.034 426.504 211.118 426.294 211.286 426.071C211.453 425.847 211.873 425.358 212.544 424.603C213.355 423.708 214.053 422.925 214.641 422.254C214.892 421.975 215.368 421.457 216.067 420.702C216.766 419.948 217.241 419.43 217.492 419.151C217.744 418.871 218.149 418.41 218.709 417.767C219.268 417.124 219.659 416.648 219.883 416.341C220.107 416.033 220.428 415.614 220.848 415.083C221.267 414.551 221.561 414.104 221.728 413.741C221.896 413.377 222.106 412.972 222.357 412.524C222.609 412.077 222.791 411.63 222.903 411.182C223.014 410.735 223.112 410.316 223.196 409.924C223.28 409.533 223.322 409.071 223.322 408.54C223.322 406.779 222.847 405.255 221.896 403.969C220.945 402.683 219.589 402.04 217.828 402.04C216.905 402.04 216.095 402.277 215.396 402.753C214.697 403.228 214.207 403.689 213.928 404.137C213.648 404.584 213.508 404.85 213.508 404.934C213.508 404.961 213.578 404.975 213.718 404.975C214.221 404.975 214.738 405.171 215.27 405.563C215.801 405.954 216.067 406.597 216.067 407.492C216.067 408.191 215.843 408.778 215.396 409.253C214.948 409.728 214.319 409.98 213.508 410.008Z" fill="white"/>
</g>
<path id="Vector_9" d="M326.847 390.003H112V387.487H326.847V390.003Z" fill="white"/>
</g>
<g id="Group_12">
<path id="Vector_10" d="M347.012 373.395C347.012 373.172 347.096 372.976 347.263 372.808C347.431 372.64 347.571 372.557 347.683 372.557C347.906 372.557 350.059 373.507 354.141 375.408C358.223 377.31 362.277 379.225 366.303 381.154C370.33 383.083 372.343 384.062 372.343 384.09C372.538 384.23 372.636 384.439 372.636 384.719C372.636 384.998 372.538 385.208 372.343 385.348C372.287 385.404 368.205 387.347 360.096 391.177L348.018 396.881H347.767C347.263 396.825 347.012 396.545 347.012 396.042C347.012 396.014 347.012 395.972 347.012 395.916C346.984 395.721 347.193 395.497 347.641 395.245C348.172 394.966 350.269 393.959 353.932 392.226C356.112 391.191 357.93 390.339 359.384 389.668L369.784 384.719L358.629 379.435C356.699 378.512 354.463 377.449 351.918 376.247C349.458 375.101 348.032 374.416 347.641 374.192C347.249 373.969 347.04 373.703 347.012 373.395ZM347.054 404.178C347.054 403.899 347.263 403.619 347.683 403.34H371.965C372.412 403.507 372.636 403.787 372.636 404.178C372.636 404.514 372.426 404.793 372.007 405.017H347.641C347.249 404.821 347.054 404.542 347.054 404.178Z" fill="white"/>
</g>
<g id="Group_13">
<path id="Vector_11" d="M392.377 381.238C391.622 381.238 391.021 380.987 390.573 380.483C390.126 379.98 389.902 379.365 389.902 378.638C389.902 376.653 390.643 374.934 392.125 373.48C393.607 372.026 395.452 371.299 397.661 371.299C400.205 371.299 402.33 372.082 404.036 373.647C405.741 375.213 406.608 377.24 406.636 379.729C406.636 380.931 406.356 382.077 405.797 383.167C405.238 384.258 404.567 385.208 403.784 386.019C403.001 386.83 401.883 387.865 400.429 389.123C399.422 389.989 398.024 391.276 396.235 392.981L393.761 395.33L396.948 395.372C401.338 395.372 403.672 395.302 403.952 395.162C404.147 395.106 404.483 393.862 404.958 391.429V391.304H406.636V391.429C406.608 391.513 406.426 392.785 406.091 395.246C405.755 397.706 405.545 398.992 405.461 399.104V399.23H389.902V398.433V397.93C389.902 397.734 389.986 397.524 390.154 397.301C390.322 397.077 390.741 396.588 391.412 395.833C392.223 394.938 392.922 394.155 393.509 393.484C393.761 393.205 394.236 392.688 394.935 391.933C395.634 391.178 396.109 390.661 396.361 390.381C396.612 390.101 397.018 389.64 397.577 388.997C398.136 388.354 398.528 387.879 398.751 387.571C398.975 387.263 399.297 386.844 399.716 386.313C400.135 385.782 400.429 385.334 400.597 384.971C400.764 384.607 400.974 384.202 401.226 383.755C401.477 383.307 401.659 382.86 401.771 382.413C401.883 381.965 401.981 381.546 402.064 381.154C402.148 380.763 402.19 380.302 402.19 379.77C402.19 378.009 401.715 376.485 400.764 375.199C399.814 373.913 398.458 373.27 396.696 373.27C395.774 373.27 394.963 373.508 394.264 373.983C393.565 374.458 393.076 374.92 392.796 375.367C392.516 375.814 392.377 376.08 392.377 376.164C392.377 376.192 392.447 376.206 392.586 376.206C393.09 376.206 393.607 376.401 394.138 376.793C394.669 377.184 394.935 377.827 394.935 378.722C394.935 379.421 394.711 380.008 394.264 380.483C393.817 380.959 393.187 381.21 392.377 381.238Z" fill="white"/>
<path id="Vector_12" d="M411.71 381.741C411.71 381.741 411.71 380.665 411.71 378.512C411.71 376.359 412.465 374.626 413.975 373.312C415.485 371.998 417.218 371.327 419.175 371.299C421.161 371.299 422.922 371.886 424.46 373.06C425.997 374.234 426.766 375.758 426.766 377.631C426.766 378.47 426.613 379.253 426.305 379.98C425.997 380.707 425.634 381.294 425.215 381.741C424.795 382.189 424.362 382.58 423.914 382.916C423.467 383.251 423.104 383.503 422.824 383.67C422.544 383.838 422.391 383.95 422.363 384.006L422.95 384.383C423.341 384.663 423.733 384.943 424.124 385.222C424.516 385.502 424.739 385.656 424.795 385.684C426.892 387.333 427.941 389.416 427.941 391.932C427.941 394.141 427.13 396.056 425.508 397.678C423.887 399.3 421.79 400.124 419.217 400.152C416.701 400.152 414.632 399.439 413.01 398.013C411.389 396.588 410.578 394.826 410.578 392.729C410.578 389.71 412.381 387.193 415.988 385.18L415.233 384.635C414.646 384.272 414.269 383.992 414.101 383.796C412.507 382.426 411.71 380.665 411.71 378.512V381.741ZM420.769 383.041L421.021 382.874C421.188 382.762 421.314 382.678 421.398 382.622C421.482 382.566 421.622 382.468 421.818 382.328C422.013 382.189 422.181 382.049 422.321 381.909C422.461 381.769 422.614 381.601 422.782 381.406C422.95 381.21 423.104 381.028 423.243 380.861C423.383 380.693 423.523 380.469 423.663 380.19C423.803 379.91 423.928 379.672 424.04 379.477C424.152 379.281 424.222 379.001 424.25 378.638C424.278 378.274 424.306 377.967 424.334 377.715C424.334 376.513 423.928 375.492 423.118 374.654C422.307 373.815 421.37 373.284 420.308 373.06C420.112 373.032 419.651 373.018 418.924 373.018C417.777 373.018 416.701 373.382 415.695 374.108C414.688 374.835 414.171 375.744 414.143 376.834C414.143 377.478 414.325 378.065 414.688 378.596C415.051 379.127 415.415 379.533 415.778 379.812C416.142 380.092 416.841 380.539 417.875 381.154C418.071 381.294 418.225 381.392 418.337 381.448L420.769 383.041ZM419.259 398.349C420.881 398.349 422.279 397.874 423.453 396.923C424.627 395.972 425.215 394.826 425.215 393.484C425.215 393.009 425.145 392.561 425.005 392.142C424.865 391.723 424.697 391.373 424.502 391.094C424.306 390.814 423.998 390.506 423.579 390.171C423.16 389.835 422.838 389.584 422.614 389.416C422.391 389.248 421.985 388.983 421.398 388.619C420.811 388.256 420.434 388.018 420.266 387.906C419.874 387.655 419.455 387.389 419.008 387.109C418.56 386.83 418.197 386.592 417.917 386.396L417.582 386.187C417.414 386.187 417.009 386.424 416.366 386.9C415.722 387.375 415.051 388.144 414.352 389.206C413.654 390.269 413.29 391.415 413.262 392.645C413.262 394.295 413.863 395.651 415.065 396.713C416.268 397.776 417.666 398.321 419.259 398.349Z" fill="white"/>
</g>
</g>
<g id="Group 158">
<g id="Group 162">
<g id="Group_14">
<path id="Vector_13" d="M117 496.418C117.028 496.25 117.07 496.026 117.126 495.747C117.182 495.467 117.349 494.936 117.629 494.153C117.909 493.37 118.188 492.713 118.468 492.182C118.747 491.651 119.209 491.133 119.852 490.63C120.495 490.127 121.138 489.889 121.781 489.917C122.788 489.917 123.626 490.169 124.297 490.672C124.968 491.175 125.388 491.651 125.555 492.098C125.723 492.545 125.807 492.839 125.807 492.979C125.807 493.035 125.821 493.062 125.849 493.062L126.31 492.601C128.016 490.812 129.959 489.917 132.14 489.917C133.65 489.917 134.866 490.295 135.789 491.049C136.711 491.804 137.186 492.909 137.214 494.363C137.242 495.816 136.711 498.011 135.621 500.947C134.53 503.883 133.999 505.658 134.027 506.273C134.027 507 134.265 507.364 134.74 507.364C134.908 507.364 135.034 507.35 135.117 507.322C135.928 507.182 136.655 506.651 137.298 505.728C137.941 504.805 138.431 503.687 138.766 502.373C138.822 502.149 139.102 502.037 139.605 502.037C140.164 502.037 140.444 502.149 140.444 502.373C140.444 502.401 140.388 502.611 140.276 503.002C140.052 503.813 139.745 504.61 139.353 505.392C138.962 506.175 138.319 506.958 137.424 507.741C136.529 508.524 135.565 508.901 134.53 508.873C133.216 508.873 132.266 508.496 131.679 507.741C131.091 506.986 130.798 506.203 130.798 505.392C130.798 504.861 131.301 503.184 132.308 500.36C133.314 497.536 133.831 495.411 133.859 493.985C133.859 492.336 133.244 491.511 132.014 491.511H131.804C129.4 491.511 127.373 492.923 125.723 495.747L125.43 496.25L124.046 501.87C123.123 505.532 122.592 507.503 122.452 507.783C122.089 508.538 121.487 508.915 120.649 508.915C120.285 508.915 119.992 508.831 119.768 508.664C119.544 508.496 119.391 508.328 119.307 508.16C119.223 507.993 119.195 507.853 119.223 507.741C119.223 507.378 119.754 505.099 120.816 500.905C121.879 496.711 122.438 494.432 122.494 494.069C122.522 493.929 122.536 493.608 122.536 493.104C122.536 492.014 122.2 491.469 121.529 491.469C120.467 491.469 119.586 492.867 118.887 495.663C118.719 496.222 118.636 496.515 118.636 496.543C118.58 496.711 118.314 496.795 117.839 496.795H117.252C117.084 496.627 117 496.501 117 496.418Z" fill="white"/>
</g>
<g id="Group_15">
<path id="Vector_14" d="M177.023 507.237C177.023 507.797 176.729 508.076 176.142 508.076C176.002 508.076 175.695 507.852 175.219 507.405C174.744 506.958 173.43 505.658 171.277 503.505L166.915 499.143L162.512 503.547C159.548 506.455 158.024 507.936 157.941 507.992C157.829 508.048 157.731 508.076 157.647 508.076C157.423 508.076 157.228 507.992 157.06 507.825C156.892 507.657 156.794 507.461 156.766 507.237C156.766 507.042 156.962 506.734 157.353 506.315C157.745 505.895 159.059 504.567 161.296 502.331L165.657 497.969L161.296 493.607C159.031 491.343 157.717 490.015 157.353 489.623C156.99 489.232 156.794 488.924 156.766 488.701C156.766 488.449 156.85 488.253 157.018 488.113C157.186 487.974 157.395 487.904 157.647 487.904C157.787 487.904 157.885 487.918 157.941 487.946C158.024 488.002 159.548 489.483 162.512 492.391L166.915 496.795L171.277 492.433C173.43 490.28 174.744 488.98 175.219 488.533C175.695 488.085 176.002 487.862 176.142 487.862C176.729 487.862 177.023 488.141 177.023 488.701C177.023 488.896 176.883 489.148 176.603 489.455C176.324 489.763 174.954 491.133 172.493 493.565L168.132 497.969L172.493 502.373C174.842 504.721 176.184 506.077 176.519 506.441C176.855 506.804 177.023 507.07 177.023 507.237Z" fill="white"/>
</g>
<g id="Group_16">
<path id="Vector_15" d="M196.491 497.969C196.491 496.04 196.63 494.209 196.91 492.475C197.19 490.742 197.511 489.246 197.875 487.988C198.238 486.73 198.755 485.5 199.426 484.297C200.097 483.095 200.628 482.159 201.02 481.488C201.411 480.816 201.998 480.09 202.781 479.307C203.564 478.524 204.026 478.049 204.165 477.881C204.305 477.713 204.655 477.419 205.214 477H205.759H205.927C206.318 477 206.514 477.126 206.514 477.378C206.514 477.461 206.276 477.755 205.801 478.258C205.326 478.761 204.752 479.502 204.081 480.481C203.41 481.46 202.725 482.662 202.026 484.088C201.327 485.514 200.74 487.443 200.265 489.875C199.79 492.308 199.552 495.006 199.552 497.969C199.552 500.933 199.79 503.617 200.265 506.022C200.74 508.426 201.313 510.369 201.985 511.851C202.656 513.333 203.341 514.535 204.039 515.458C204.738 516.38 205.326 517.121 205.801 517.681C206.276 518.24 206.514 518.533 206.514 518.561C206.514 518.813 206.304 518.939 205.885 518.939H205.759H205.214L204.039 517.932C201.411 515.556 199.496 512.592 198.294 509.041C197.092 505.49 196.491 501.8 196.491 497.969Z" fill="white"/>
</g>
<g id="Group_17">
<path id="Vector_16" d="M209.743 496.418C209.771 496.25 209.813 496.026 209.869 495.747C209.925 495.467 210.093 494.936 210.372 494.153C210.652 493.37 210.931 492.713 211.211 492.182C211.491 491.651 211.952 491.133 212.595 490.63C213.238 490.127 213.881 489.889 214.524 489.917C215.531 489.917 216.369 490.169 217.04 490.672C217.711 491.175 218.131 491.651 218.299 492.098C218.466 492.545 218.55 492.839 218.55 492.979C218.55 493.035 218.564 493.062 218.592 493.062L219.053 492.601C220.759 490.812 222.702 489.917 224.883 489.917C226.393 489.917 227.609 490.295 228.532 491.049C229.454 491.804 229.93 492.909 229.958 494.363C229.985 495.816 229.454 498.011 228.364 500.947C227.273 503.883 226.742 505.658 226.77 506.273C226.77 507 227.008 507.364 227.483 507.364C227.651 507.364 227.777 507.35 227.861 507.322C228.671 507.182 229.398 506.651 230.041 505.728C230.684 504.805 231.174 503.687 231.509 502.373C231.565 502.149 231.845 502.037 232.348 502.037C232.907 502.037 233.187 502.149 233.187 502.373C233.187 502.401 233.131 502.611 233.019 503.002C232.795 503.813 232.488 504.61 232.096 505.392C231.705 506.175 231.062 506.958 230.167 507.741C229.273 508.524 228.308 508.901 227.273 508.873C225.959 508.873 225.009 508.496 224.422 507.741C223.834 506.986 223.541 506.203 223.541 505.392C223.541 504.861 224.044 503.184 225.051 500.36C226.057 497.536 226.574 495.411 226.602 493.985C226.602 492.336 225.987 491.511 224.757 491.511H224.547C222.143 491.511 220.116 492.923 218.466 495.747L218.173 496.25L216.789 501.87C215.866 505.532 215.335 507.503 215.195 507.783C214.832 508.538 214.231 508.915 213.392 508.915C213.028 508.915 212.735 508.831 212.511 508.664C212.287 508.496 212.134 508.328 212.05 508.16C211.966 507.993 211.938 507.853 211.966 507.741C211.966 507.378 212.497 505.099 213.56 500.905C214.622 496.711 215.181 494.432 215.237 494.069C215.265 493.929 215.279 493.608 215.279 493.104C215.279 492.014 214.943 491.469 214.272 491.469C213.21 491.469 212.329 492.867 211.63 495.663C211.463 496.222 211.379 496.515 211.379 496.543C211.323 496.711 211.057 496.795 210.582 496.795H209.995C209.827 496.627 209.743 496.501 209.743 496.418Z" fill="white"/>
</g>
<g id="Group_18">
<path id="Vector_17" d="M245.697 498.514C245.697 498.514 245.697 498.333 245.697 497.969C245.697 497.606 245.893 497.326 246.284 497.13H258.824V490.84L258.866 484.549C259.145 484.185 259.411 484.004 259.663 484.004C260.026 484.004 260.306 484.213 260.501 484.633V497.13H272.999C273.419 497.354 273.628 497.634 273.628 497.969C273.628 498.305 273.419 498.584 272.999 498.808H260.501V511.306C260.278 511.697 260.026 511.893 259.747 511.893H259.663H259.579C259.243 511.893 258.992 511.697 258.824 511.306V498.808H246.284C245.893 498.612 245.697 498.333 245.697 497.969V498.514Z" fill="white"/>
</g>
<g id="Group_19">
<path id="Vector_18" d="M294.229 484.214L293.683 484.423C293.292 484.563 292.733 484.703 292.006 484.843C291.279 484.982 290.468 485.08 289.573 485.136H288.777V483.207H289.573C290.887 483.151 292.104 482.941 293.222 482.578C294.34 482.214 295.123 481.879 295.571 481.571C296.018 481.264 296.409 480.956 296.745 480.649C296.801 480.565 296.969 480.523 297.248 480.523C297.5 480.523 297.737 480.607 297.961 480.775V493.314L298.003 505.896C298.199 506.092 298.366 506.217 298.506 506.273C298.646 506.329 298.982 506.385 299.513 506.441C300.044 506.497 300.911 506.525 302.113 506.525H303.203V508.454H302.742C302.155 508.37 299.932 508.328 296.074 508.328C292.271 508.328 290.077 508.37 289.489 508.454H288.986V506.525H290.077C290.692 506.525 291.223 506.525 291.67 506.525C292.118 506.525 292.467 506.511 292.719 506.483C292.97 506.455 293.194 506.413 293.39 506.357C293.585 506.301 293.697 506.273 293.725 506.273C293.753 506.273 293.837 506.203 293.977 506.064C294.117 505.924 294.201 505.868 294.229 505.896V484.214Z" fill="white"/>
</g>
<g id="Group_20">
<path id="Vector_19" d="M308.781 477.042L308.949 477C309.089 477 309.229 477 309.368 477H309.872L311.046 478.007C313.674 480.383 315.589 483.347 316.791 486.898C317.994 490.448 318.595 494.139 318.595 497.969C318.595 499.871 318.455 501.702 318.175 503.463C317.896 505.225 317.574 506.721 317.211 507.951C316.847 509.181 316.33 510.411 315.659 511.641C314.988 512.872 314.457 513.808 314.065 514.451C313.674 515.094 313.101 515.807 312.346 516.59C311.591 517.373 311.144 517.834 311.004 517.974C310.864 518.114 310.543 518.38 310.039 518.771C309.955 518.855 309.9 518.911 309.872 518.939H309.368C309.145 518.939 308.991 518.939 308.907 518.939C308.823 518.939 308.753 518.897 308.697 518.813C308.641 518.729 308.599 518.603 308.572 518.435C308.599 518.407 308.753 518.226 309.033 517.89C313.366 513.389 315.533 506.749 315.533 497.969C315.533 489.19 313.366 482.55 309.033 478.049C308.753 477.713 308.599 477.531 308.572 477.503C308.572 477.28 308.641 477.126 308.781 477.042Z" fill="white"/>
</g>
<g id="Group_21">
<path id="Vector_20" d="M337.711 482.619C337.711 482.396 337.794 482.2 337.962 482.032C338.13 481.865 338.27 481.781 338.382 481.781C338.605 481.781 340.758 482.731 344.84 484.633C348.922 486.534 352.976 488.449 357.002 490.378C361.028 492.307 363.041 493.286 363.041 493.314C363.237 493.454 363.335 493.663 363.335 493.943C363.335 494.223 363.237 494.432 363.041 494.572C362.986 494.628 358.904 496.571 350.795 500.401L338.717 506.105H338.465C337.962 506.049 337.711 505.77 337.711 505.266C337.711 505.238 337.711 505.196 337.711 505.141C337.683 504.945 337.892 504.721 338.34 504.47C338.871 504.19 340.968 503.183 344.63 501.45C346.811 500.415 348.629 499.563 350.082 498.892L360.483 493.943L349.328 488.659C347.398 487.736 345.162 486.674 342.617 485.471C340.157 484.325 338.731 483.64 338.34 483.416C337.948 483.193 337.738 482.927 337.711 482.619ZM337.752 513.402C337.752 513.123 337.962 512.843 338.382 512.564H362.664C363.111 512.731 363.335 513.011 363.335 513.402C363.335 513.738 363.125 514.018 362.706 514.241H338.34C337.948 514.045 337.752 513.766 337.752 513.402Z" fill="white"/>
</g>
<g id="Group_22">
<path id="Vector_21" d="M385.382 501.869C385.382 502.54 385.158 503.1 384.711 503.547C384.264 503.994 383.719 504.218 383.076 504.218H382.782C384.068 506.427 385.774 507.531 387.898 507.531C389.856 507.531 391.282 506.692 392.176 505.015C392.707 504.092 392.973 502.303 392.973 499.647C392.973 496.767 392.596 494.824 391.841 493.817C391.114 492.895 390.303 492.433 389.408 492.433H389.157C386.976 492.433 385.326 493.384 384.208 495.285C384.096 495.481 383.998 495.593 383.914 495.621C383.83 495.649 383.621 495.677 383.285 495.704C382.81 495.704 382.544 495.621 382.488 495.453C382.432 495.341 382.405 492.895 382.405 488.114V482.703C382.405 481.306 382.474 480.607 382.614 480.607C382.67 480.551 382.726 480.523 382.782 480.523C382.81 480.523 383.104 480.635 383.663 480.858C384.222 481.082 384.991 481.306 385.969 481.529C386.948 481.753 387.996 481.865 389.115 481.865C391.1 481.865 393.001 481.473 394.818 480.69C395.042 480.579 395.224 480.523 395.364 480.523C395.587 480.523 395.699 480.774 395.699 481.278V481.823C393.406 484.535 390.541 485.891 387.102 485.891C386.235 485.891 385.452 485.807 384.753 485.639L384.334 485.555V492.769C384.865 492.377 385.284 492.07 385.592 491.846C385.899 491.622 386.403 491.399 387.102 491.175C387.801 490.951 388.514 490.84 389.241 490.84C391.505 490.84 393.42 491.748 394.986 493.566C396.552 495.383 397.335 497.536 397.335 500.024C397.335 502.596 396.44 504.791 394.651 506.609C392.861 508.426 390.68 509.349 388.108 509.376C385.843 509.376 384.026 508.622 382.656 507.112C381.286 505.602 380.601 503.896 380.601 501.995C380.601 501.324 380.755 500.793 381.062 500.402C381.37 500.01 381.692 499.759 382.027 499.647C382.363 499.535 382.684 499.479 382.992 499.479C383.691 499.479 384.264 499.717 384.711 500.192C385.158 500.667 385.382 501.226 385.382 501.869Z" fill="white"/>
<path id="Vector_22" d="M401.235 495.327C401.235 490.77 402.367 487.163 404.632 484.507C406.897 481.851 409.413 480.523 412.181 480.523C414.11 480.523 415.494 481.026 416.333 482.032C417.172 483.039 417.591 484.157 417.591 485.388C417.591 486.087 417.395 486.646 417.004 487.065C416.613 487.484 416.067 487.694 415.368 487.694C414.725 487.694 414.194 487.498 413.775 487.107C413.355 486.716 413.146 486.17 413.146 485.471C413.146 484.241 413.803 483.5 415.117 483.249C414.502 482.634 413.635 482.284 412.517 482.2C410.531 482.2 408.896 483.039 407.61 484.717C406.296 486.562 405.639 489.386 405.639 493.188L405.681 493.356C405.82 493.188 405.932 493.006 406.016 492.811C407.162 491.133 408.658 490.294 410.503 490.294H410.671C411.957 490.294 413.09 490.56 414.068 491.091C414.739 491.483 415.41 492.042 416.081 492.769C416.752 493.496 417.298 494.293 417.717 495.159C418.304 496.529 418.598 498.025 418.598 499.647V500.402C418.598 501.045 418.528 501.646 418.388 502.205C418.08 503.855 417.186 505.462 415.704 507.028C414.222 508.594 412.349 509.376 410.084 509.376C409.301 509.376 408.546 509.265 407.819 509.041C407.092 508.817 406.31 508.398 405.471 507.783C404.632 507.168 403.919 506.343 403.332 505.308C402.745 504.274 402.242 502.918 401.822 501.24C401.403 499.563 401.207 497.592 401.235 495.327ZM410.252 491.804C409.413 491.804 408.686 492.042 408.071 492.517C407.456 492.992 406.981 493.622 406.645 494.404C406.31 495.187 406.072 495.984 405.932 496.795C405.792 497.606 405.708 498.472 405.681 499.395C405.681 501.716 405.848 503.379 406.184 504.386C406.519 505.392 407.051 506.203 407.777 506.818C408.448 507.321 409.189 507.573 410 507.573C411.426 507.573 412.517 507.042 413.271 505.979C413.635 505.476 413.887 504.847 414.026 504.092C414.166 503.337 414.236 501.869 414.236 499.689C414.236 497.452 414.166 495.956 414.026 495.201C413.887 494.446 413.635 493.817 413.271 493.314C412.517 492.307 411.51 491.804 410.252 491.804Z" fill="white"/>
</g>
</g>
<path id="Line 10 (Stroke)" fill-rule="evenodd" clip-rule="evenodd" d="M488 518L483 338L487.998 337.861L492.998 517.861L488 518Z" fill="#CD08D1"/>
<g id="Group 159">
<g id="Group 161">
<g id="Group_23">
<path id="Vector_23" d="M529 371.418C529.028 371.25 529.07 371.026 529.126 370.747C529.182 370.467 529.349 369.936 529.629 369.153C529.909 368.37 530.188 367.713 530.468 367.182C530.747 366.651 531.209 366.133 531.852 365.63C532.495 365.127 533.138 364.889 533.781 364.917C534.788 364.917 535.626 365.169 536.297 365.672C536.968 366.175 537.388 366.651 537.555 367.098C537.723 367.545 537.807 367.839 537.807 367.979C537.807 368.035 537.821 368.062 537.849 368.062L538.31 367.601C540.016 365.812 541.959 364.917 544.14 364.917C545.65 364.917 546.866 365.295 547.789 366.049C548.711 366.804 549.186 367.909 549.214 369.363C549.242 370.816 548.711 373.011 547.621 375.947C546.53 378.883 545.999 380.658 546.027 381.273C546.027 382 546.265 382.364 546.74 382.364C546.908 382.364 547.034 382.35 547.117 382.322C547.928 382.182 548.655 381.651 549.298 380.728C549.941 379.805 550.431 378.687 550.766 377.373C550.822 377.149 551.102 377.037 551.605 377.037C552.164 377.037 552.444 377.149 552.444 377.373C552.444 377.401 552.388 377.611 552.276 378.002C552.052 378.813 551.745 379.61 551.353 380.392C550.962 381.175 550.319 381.958 549.424 382.741C548.529 383.524 547.565 383.901 546.53 383.873C545.216 383.873 544.266 383.496 543.679 382.741C543.091 381.986 542.798 381.203 542.798 380.392C542.798 379.861 543.301 378.184 544.308 375.36C545.314 372.536 545.831 370.411 545.859 368.985C545.859 367.336 545.244 366.511 544.014 366.511H543.804C541.4 366.511 539.373 367.923 537.723 370.747L537.43 371.25L536.046 376.87C535.123 380.532 534.592 382.503 534.452 382.783C534.089 383.538 533.487 383.915 532.649 383.915C532.285 383.915 531.992 383.831 531.768 383.664C531.544 383.496 531.391 383.328 531.307 383.16C531.223 382.993 531.195 382.853 531.223 382.741C531.223 382.378 531.754 380.099 532.816 375.905C533.879 371.711 534.438 369.432 534.494 369.069C534.522 368.929 534.536 368.608 534.536 368.104C534.536 367.014 534.2 366.469 533.529 366.469C532.467 366.469 531.586 367.867 530.887 370.663C530.719 371.222 530.636 371.515 530.636 371.543C530.58 371.711 530.314 371.795 529.839 371.795H529.252C529.084 371.627 529 371.501 529 371.418Z" fill="white"/>
</g>
<g id="Group_24">
<path id="Vector_24" d="M589.022 382.237C589.022 382.797 588.729 383.076 588.142 383.076C588.002 383.076 587.694 382.852 587.219 382.405C586.744 381.958 585.43 380.658 583.277 378.505L578.915 374.143L574.512 378.547C571.548 381.455 570.024 382.936 569.94 382.992C569.829 383.048 569.731 383.076 569.647 383.076C569.423 383.076 569.227 382.992 569.06 382.825C568.892 382.657 568.794 382.461 568.766 382.237C568.766 382.042 568.962 381.734 569.353 381.315C569.745 380.895 571.059 379.567 573.295 377.331L577.657 372.969L573.295 368.607C571.031 366.343 569.717 365.015 569.353 364.623C568.99 364.232 568.794 363.924 568.766 363.701C568.766 363.449 568.85 363.253 569.018 363.113C569.185 362.974 569.395 362.904 569.647 362.904C569.787 362.904 569.884 362.918 569.94 362.946C570.024 363.002 571.548 364.483 574.512 367.391L578.915 371.795L583.277 367.433C585.43 365.28 586.744 363.98 587.219 363.533C587.694 363.085 588.002 362.862 588.142 362.862C588.729 362.862 589.022 363.141 589.022 363.701C589.022 363.896 588.883 364.148 588.603 364.455C588.323 364.763 586.954 366.133 584.493 368.565L580.131 372.969L584.493 377.373C586.842 379.721 588.184 381.077 588.519 381.441C588.855 381.804 589.022 382.07 589.022 382.237Z" fill="white"/>
</g>
<g id="Group_25">
<path id="Vector_25" d="M608.491 372.969C608.491 371.04 608.63 369.209 608.91 367.475C609.19 365.742 609.511 364.246 609.875 362.988C610.238 361.73 610.755 360.5 611.426 359.297C612.097 358.095 612.628 357.159 613.02 356.488C613.411 355.816 613.998 355.09 614.781 354.307C615.564 353.524 616.026 353.049 616.165 352.881C616.305 352.713 616.655 352.419 617.214 352H617.759H617.927C618.318 352 618.514 352.126 618.514 352.378C618.514 352.461 618.276 352.755 617.801 353.258C617.326 353.761 616.752 354.502 616.081 355.481C615.41 356.46 614.725 357.662 614.026 359.088C613.327 360.514 612.74 362.443 612.265 364.875C611.79 367.308 611.552 370.006 611.552 372.969C611.552 375.933 611.79 378.617 612.265 381.022C612.74 383.426 613.313 385.369 613.985 386.851C614.656 388.333 615.341 389.535 616.039 390.458C616.738 391.38 617.326 392.121 617.801 392.681C618.276 393.24 618.514 393.533 618.514 393.561C618.514 393.813 618.304 393.939 617.885 393.939H617.759H617.214L616.039 392.932C613.411 390.556 611.496 387.592 610.294 384.041C609.092 380.49 608.491 376.8 608.491 372.969Z" fill="white"/>
</g>
<g id="Group_26">
<path id="Vector_26" d="M621.743 371.418C621.771 371.25 621.813 371.026 621.869 370.747C621.925 370.467 622.093 369.936 622.372 369.153C622.652 368.37 622.931 367.713 623.211 367.182C623.491 366.651 623.952 366.133 624.595 365.63C625.238 365.127 625.881 364.889 626.524 364.917C627.531 364.917 628.369 365.169 629.04 365.672C629.711 366.175 630.131 366.651 630.299 367.098C630.466 367.545 630.55 367.839 630.55 367.979C630.55 368.035 630.564 368.062 630.592 368.062L631.053 367.601C632.759 365.812 634.702 364.917 636.883 364.917C638.393 364.917 639.609 365.295 640.532 366.049C641.454 366.804 641.93 367.909 641.958 369.363C641.985 370.816 641.454 373.011 640.364 375.947C639.273 378.883 638.742 380.658 638.77 381.273C638.77 382 639.008 382.364 639.483 382.364C639.651 382.364 639.777 382.35 639.861 382.322C640.671 382.182 641.398 381.651 642.041 380.728C642.684 379.805 643.174 378.687 643.509 377.373C643.565 377.149 643.845 377.037 644.348 377.037C644.907 377.037 645.187 377.149 645.187 377.373C645.187 377.401 645.131 377.611 645.019 378.002C644.795 378.813 644.488 379.61 644.096 380.392C643.705 381.175 643.062 381.958 642.167 382.741C641.273 383.524 640.308 383.901 639.273 383.873C637.959 383.873 637.009 383.496 636.422 382.741C635.834 381.986 635.541 381.203 635.541 380.392C635.541 379.861 636.044 378.184 637.051 375.36C638.057 372.536 638.574 370.411 638.602 368.985C638.602 367.336 637.987 366.511 636.757 366.511H636.547C634.143 366.511 632.116 367.923 630.466 370.747L630.173 371.25L628.789 376.87C627.866 380.532 627.335 382.503 627.195 382.783C626.832 383.538 626.231 383.915 625.392 383.915C625.028 383.915 624.735 383.831 624.511 383.664C624.287 383.496 624.134 383.328 624.05 383.16C623.966 382.993 623.938 382.853 623.966 382.741C623.966 382.378 624.497 380.099 625.56 375.905C626.622 371.711 627.181 369.432 627.237 369.069C627.265 368.929 627.279 368.608 627.279 368.104C627.279 367.014 626.943 366.469 626.272 366.469C625.21 366.469 624.329 367.867 623.63 370.663C623.463 371.222 623.379 371.515 623.379 371.543C623.323 371.711 623.057 371.795 622.582 371.795H621.995C621.827 371.627 621.743 371.501 621.743 371.418Z" fill="white"/>
</g>
<g id="Group_27">
<path id="Vector_27" d="M657.697 373.514C657.697 373.514 657.697 373.333 657.697 372.969C657.697 372.606 657.893 372.326 658.284 372.13H670.824V365.84L670.866 359.549C671.145 359.185 671.411 359.004 671.663 359.004C672.026 359.004 672.306 359.213 672.501 359.633V372.13H684.999C685.418 372.354 685.628 372.634 685.628 372.969C685.628 373.305 685.418 373.584 684.999 373.808H672.501V386.306C672.278 386.697 672.026 386.893 671.746 386.893H671.663H671.579C671.243 386.893 670.992 386.697 670.824 386.306V373.808H658.284C657.893 373.612 657.697 373.333 657.697 372.969V373.514Z" fill="white"/>
</g>
<g id="Group_28">
<path id="Vector_28" d="M706.229 359.214L705.683 359.423C705.292 359.563 704.733 359.703 704.006 359.843C703.279 359.982 702.468 360.08 701.573 360.136H700.777V358.207H701.573C702.887 358.151 704.104 357.941 705.222 357.578C706.34 357.214 707.123 356.879 707.571 356.571C708.018 356.264 708.409 355.956 708.745 355.649C708.801 355.565 708.969 355.523 709.248 355.523C709.5 355.523 709.737 355.607 709.961 355.775V368.314L710.003 380.896C710.199 381.092 710.367 381.217 710.506 381.273C710.646 381.329 710.982 381.385 711.513 381.441C712.044 381.497 712.911 381.525 714.113 381.525H715.203V383.454H714.742C714.155 383.37 711.932 383.328 708.074 383.328C704.271 383.328 702.077 383.37 701.49 383.454H700.986V381.525H702.077C702.692 381.525 703.223 381.525 703.67 381.525C704.118 381.525 704.467 381.511 704.719 381.483C704.97 381.455 705.194 381.413 705.39 381.357C705.586 381.301 705.697 381.273 705.725 381.273C705.753 381.273 705.837 381.203 705.977 381.064C706.117 380.924 706.201 380.868 706.229 380.896V359.214Z" fill="white"/>
</g>
<g id="Group_29">
<path id="Vector_29" d="M720.781 352.042L720.949 352C721.089 352 721.229 352 721.368 352H721.872L723.046 353.007C725.674 355.383 727.589 358.347 728.791 361.898C729.994 365.448 730.595 369.139 730.595 372.969C730.595 374.871 730.455 376.702 730.175 378.463C729.896 380.225 729.574 381.721 729.211 382.951C728.847 384.181 728.33 385.411 727.659 386.641C726.988 387.872 726.457 388.808 726.065 389.451C725.674 390.094 725.101 390.807 724.346 391.59C723.591 392.373 723.144 392.834 723.004 392.974C722.864 393.114 722.543 393.38 722.039 393.771C721.955 393.855 721.9 393.911 721.872 393.939H721.368C721.145 393.939 720.991 393.939 720.907 393.939C720.823 393.939 720.753 393.897 720.697 393.813C720.641 393.729 720.599 393.603 720.572 393.435C720.599 393.407 720.753 393.226 721.033 392.89C725.366 388.389 727.533 381.749 727.533 372.969C727.533 364.19 725.366 357.55 721.033 353.049C720.753 352.713 720.599 352.531 720.572 352.503C720.572 352.28 720.641 352.126 720.781 352.042Z" fill="white"/>
</g>
<g id="Group_30">
<path id="Vector_30" d="M749.71 357.619C749.71 357.396 749.794 357.2 749.962 357.032C750.13 356.865 750.27 356.781 750.381 356.781C750.605 356.781 752.758 357.731 756.84 359.633C760.922 361.534 764.976 363.449 769.002 365.378C773.028 367.307 775.041 368.286 775.041 368.314C775.237 368.454 775.335 368.663 775.335 368.943C775.335 369.223 775.237 369.432 775.041 369.572C774.985 369.628 770.903 371.571 762.795 375.401L750.717 381.105H750.465C749.962 381.049 749.71 380.77 749.71 380.266C749.71 380.238 749.71 380.196 749.71 380.141C749.682 379.945 749.892 379.721 750.34 379.47C750.871 379.19 752.968 378.183 756.63 376.45C758.811 375.415 760.628 374.563 762.082 373.892L772.483 368.943L761.327 363.659C759.398 362.736 757.162 361.674 754.617 360.471C752.157 359.325 750.731 358.64 750.34 358.416C749.948 358.193 749.738 357.927 749.71 357.619ZM749.752 388.402C749.752 388.123 749.962 387.843 750.381 387.564H774.664C775.111 387.731 775.335 388.011 775.335 388.402C775.335 388.738 775.125 389.018 774.706 389.241H750.34C749.948 389.045 749.752 388.766 749.752 388.402Z" fill="white"/>
</g>
<g id="Group_31">
<path id="Vector_31" d="M792.811 364.246C792.839 364.19 793.076 362.666 793.524 359.675L794.195 355.187C794.195 355.131 794.474 355.103 795.034 355.103H795.872V355.271C795.872 355.551 796.082 355.788 796.501 355.984C796.921 356.18 797.648 356.306 798.682 356.361C799.717 356.417 802.079 356.445 805.77 356.445H810.844V358.081L807.993 361.981C807.741 362.317 807.322 362.876 806.735 363.659C806.147 364.442 805.77 364.959 805.602 365.211C805.434 365.462 805.141 365.909 804.721 366.553C804.302 367.196 804.022 367.699 803.883 368.062C803.743 368.426 803.547 368.943 803.296 369.614C803.044 370.285 802.862 370.928 802.75 371.543C802.639 372.158 802.527 372.913 802.415 373.808C802.303 374.703 802.219 375.653 802.163 376.66C802.107 377.666 802.065 378.813 802.037 380.099C802.037 380.49 802.037 380.882 802.037 381.273C802.037 381.664 802.023 382 801.995 382.28V382.657C801.884 383.132 801.618 383.538 801.199 383.873C800.779 384.209 800.304 384.376 799.773 384.376C799.465 384.376 799.172 384.335 798.892 384.251C798.612 384.167 798.319 383.901 798.011 383.454C797.704 383.006 797.55 382.447 797.55 381.776C797.55 377.359 798.906 372.773 801.618 368.02C802.177 367.126 803.351 365.434 805.141 362.946L807.07 360.304H803.17C798.305 360.304 795.747 360.388 795.495 360.555C795.327 360.639 795.173 360.975 795.034 361.562C794.894 362.149 794.754 362.75 794.614 363.365L794.488 364.246V364.372H792.811V364.246Z" fill="white"/>
</g>
<g id="Group_32">
<path id="Vector_32" d="M847.218 382.237C847.218 382.797 846.924 383.076 846.337 383.076C846.197 383.076 845.89 382.852 845.414 382.405C844.939 381.958 843.625 380.658 841.472 378.505L837.111 374.143L832.707 378.547C829.743 381.455 828.22 382.936 828.136 382.992C828.024 383.048 827.926 383.076 827.842 383.076C827.618 383.076 827.423 382.992 827.255 382.825C827.087 382.657 826.989 382.461 826.961 382.237C826.961 382.042 827.157 381.734 827.549 381.315C827.94 380.895 829.254 379.567 831.491 377.331L835.852 372.969L831.491 368.607C829.226 366.343 827.912 365.015 827.549 364.623C827.185 364.232 826.989 363.924 826.961 363.701C826.961 363.449 827.045 363.253 827.213 363.113C827.381 362.974 827.59 362.904 827.842 362.904C827.982 362.904 828.08 362.918 828.136 362.946C828.22 363.002 829.743 364.483 832.707 367.391L837.111 371.795L841.472 367.433C843.625 365.28 844.939 363.98 845.414 363.533C845.89 363.085 846.197 362.862 846.337 362.862C846.924 362.862 847.218 363.141 847.218 363.701C847.218 363.896 847.078 364.148 846.798 364.455C846.519 364.763 845.149 366.133 842.688 368.565L838.327 372.969L842.688 377.373C845.037 379.721 846.379 381.077 846.714 381.441C847.05 381.804 847.218 382.07 847.218 382.237Z" fill="white"/>
</g>
<g id="Group_33">
<path id="Vector_33" d="M865.679 365.965C865.679 365.965 865.679 364.889 865.679 362.736C865.679 360.583 866.434 358.85 867.944 357.536C869.454 356.222 871.187 355.551 873.144 355.523C875.129 355.523 876.891 356.11 878.429 357.284C879.966 358.458 880.735 359.982 880.735 361.855C880.735 362.694 880.581 363.477 880.274 364.204C879.966 364.931 879.603 365.518 879.183 365.965C878.764 366.413 878.331 366.804 877.883 367.14C877.436 367.475 877.073 367.727 876.793 367.895C876.513 368.062 876.36 368.174 876.332 368.23L876.919 368.608C877.31 368.887 877.702 369.167 878.093 369.446C878.484 369.726 878.708 369.88 878.764 369.908C880.861 371.557 881.909 373.64 881.909 376.156C881.909 378.365 881.099 380.28 879.477 381.902C877.855 383.524 875.758 384.349 873.186 384.376C870.67 384.376 868.601 383.664 866.979 382.238C865.358 380.812 864.547 379.05 864.547 376.953C864.547 373.934 866.35 371.417 869.957 369.404L869.202 368.859C868.615 368.496 868.237 368.216 868.07 368.02C866.476 366.65 865.679 364.889 865.679 362.736V365.965ZM874.738 367.265L874.99 367.098C875.157 366.986 875.283 366.902 875.367 366.846C875.451 366.79 875.591 366.692 875.786 366.553C875.982 366.413 876.15 366.273 876.29 366.133C876.429 365.993 876.583 365.826 876.751 365.63C876.919 365.434 877.073 365.252 877.212 365.085C877.352 364.917 877.492 364.693 877.632 364.414C877.771 364.134 877.897 363.896 878.009 363.701C878.121 363.505 878.191 363.225 878.219 362.862C878.247 362.498 878.275 362.191 878.303 361.939C878.303 360.737 877.897 359.717 877.086 358.878C876.276 358.039 875.339 357.508 874.277 357.284C874.081 357.256 873.62 357.242 872.893 357.242C871.746 357.242 870.67 357.606 869.663 358.333C868.657 359.06 868.14 359.968 868.112 361.059C868.112 361.702 868.293 362.289 868.657 362.82C869.02 363.351 869.384 363.757 869.747 364.036C870.111 364.316 870.81 364.763 871.844 365.378C872.04 365.518 872.194 365.616 872.305 365.672L874.738 367.265ZM873.228 382.573C874.85 382.573 876.248 382.098 877.422 381.147C878.596 380.197 879.183 379.05 879.183 377.708C879.183 377.233 879.114 376.786 878.974 376.366C878.834 375.947 878.666 375.597 878.47 375.318C878.275 375.038 877.967 374.731 877.548 374.395C877.128 374.06 876.807 373.808 876.583 373.64C876.36 373.472 875.954 373.207 875.367 372.843C874.78 372.48 874.402 372.242 874.235 372.13C873.843 371.879 873.424 371.613 872.977 371.334C872.529 371.054 872.166 370.816 871.886 370.621L871.551 370.411C871.383 370.411 870.977 370.649 870.334 371.124C869.691 371.599 869.02 372.368 868.321 373.43C867.622 374.493 867.259 375.639 867.231 376.869C867.231 378.519 867.832 379.875 869.034 380.937C870.237 382 871.634 382.545 873.228 382.573Z" fill="white"/>
</g>
</g>
<g id="Group 160">
<g id="Group_34">
<path id="Vector_34" d="M648.443 439.114C648.443 438.387 648.694 437.786 649.198 437.31C649.701 436.835 650.302 436.597 651.001 436.597C651.672 436.597 652.245 436.835 652.72 437.31C653.196 437.786 653.447 438.387 653.475 439.114C653.503 439.841 653.266 440.442 652.762 440.917C652.259 441.392 651.658 441.63 650.959 441.63C650.232 441.63 649.631 441.392 649.156 440.917C648.68 440.442 648.443 439.841 648.443 439.114ZM640.516 454.757C641.243 454.757 641.83 454.995 642.278 455.47C642.725 455.945 642.963 456.546 642.991 457.273C642.991 457.944 642.767 458.531 642.32 459.035C641.872 459.538 641.257 459.79 640.474 459.79C639.747 459.79 639.16 459.552 638.713 459.077C638.266 458.601 638.028 458 638 457.273C638 456.546 638.238 455.945 638.713 455.47C639.188 454.995 639.789 454.757 640.516 454.757ZM658.969 457.273C658.969 456.546 659.207 455.945 659.682 455.47C660.158 454.995 660.759 454.757 661.486 454.757C662.157 454.757 662.73 454.995 663.205 455.47C663.68 455.945 663.932 456.546 663.96 457.273C663.96 457.916 663.736 458.489 663.289 458.993C662.842 459.496 662.227 459.762 661.444 459.79C660.717 459.79 660.13 459.552 659.682 459.077C659.235 458.601 658.997 458 658.969 457.273Z" fill="white"/>
</g>
<g id="Group_35">
<path id="Vector_35" d="M677.494 444.314C677.522 444.147 677.564 443.923 677.619 443.643C677.675 443.364 677.843 442.832 678.123 442.05C678.402 441.267 678.682 440.61 678.962 440.078C679.241 439.547 679.702 439.03 680.345 438.527C680.989 438.024 681.632 437.786 682.275 437.814C683.281 437.814 684.12 438.065 684.791 438.569C685.462 439.072 685.881 439.547 686.049 439.995C686.217 440.442 686.301 440.736 686.301 440.875C686.301 440.931 686.315 440.959 686.343 440.959L686.804 440.498C688.51 438.708 690.453 437.814 692.634 437.814C694.143 437.814 695.36 438.191 696.282 438.946C697.205 439.701 697.68 440.805 697.708 442.259C697.736 443.713 697.205 445.908 696.114 448.844C695.024 451.779 694.493 453.555 694.521 454.17C694.521 454.897 694.758 455.26 695.234 455.26C695.401 455.26 695.527 455.246 695.611 455.218C696.422 455.079 697.149 454.547 697.792 453.625C698.435 452.702 698.924 451.584 699.26 450.27C699.316 450.046 699.595 449.934 700.099 449.934C700.658 449.934 700.937 450.046 700.937 450.27C700.937 450.298 700.881 450.507 700.77 450.899C700.546 451.709 700.238 452.506 699.847 453.289C699.456 454.072 698.812 454.855 697.918 455.638C697.023 456.421 696.058 456.798 695.024 456.77C693.71 456.77 692.759 456.393 692.172 455.638C691.585 454.883 691.291 454.1 691.291 453.289C691.291 452.758 691.795 451.08 692.801 448.257C693.808 445.433 694.325 443.308 694.353 441.882C694.353 440.232 693.738 439.407 692.508 439.407H692.298C689.894 439.407 687.866 440.819 686.217 443.643L685.923 444.147L684.539 449.766C683.617 453.429 683.085 455.4 682.946 455.68C682.582 456.435 681.981 456.812 681.142 456.812C680.779 456.812 680.485 456.728 680.262 456.56C680.038 456.393 679.884 456.225 679.8 456.057C679.716 455.889 679.688 455.75 679.716 455.638C679.716 455.274 680.248 452.996 681.31 448.802C682.373 444.608 682.932 442.329 682.988 441.966C683.016 441.826 683.03 441.504 683.03 441.001C683.03 439.911 682.694 439.366 682.023 439.366C680.961 439.366 680.08 440.763 679.381 443.559C679.213 444.119 679.129 444.412 679.129 444.44C679.073 444.608 678.808 444.692 678.332 444.692H677.745C677.578 444.524 677.494 444.398 677.494 444.314Z" fill="white"/>
</g>
<g id="Group_36">
<path id="Vector_36" d="M715.775 441.798C715.775 441.434 715.971 441.155 716.362 440.959H743.077C743.497 441.183 743.706 441.462 743.706 441.798C743.706 442.105 743.511 442.371 743.119 442.595L729.783 442.637H716.446C715.999 442.497 715.775 442.217 715.775 441.798ZM715.775 449.934C715.775 449.515 715.999 449.235 716.446 449.095H743.119C743.511 449.375 743.706 449.654 743.706 449.934C743.706 450.297 743.497 450.577 743.077 450.773H716.362C715.971 450.577 715.775 450.297 715.775 449.934Z" fill="white"/>
</g>
<g id="Group_37">
<path id="Vector_37" d="M760.012 437.143C760.04 437.087 760.278 435.563 760.725 432.571L761.396 428.084C761.396 428.028 761.676 428 762.235 428H763.074V428.168C763.074 428.447 763.283 428.685 763.703 428.881C764.122 429.076 764.849 429.202 765.884 429.258C766.918 429.314 769.281 429.342 772.971 429.342H778.046V430.978L775.194 434.878C774.942 435.213 774.523 435.773 773.936 436.556C773.349 437.338 772.971 437.856 772.803 438.107C772.636 438.359 772.342 438.806 771.923 439.449C771.503 440.092 771.224 440.596 771.084 440.959C770.944 441.323 770.748 441.84 770.497 442.511C770.245 443.182 770.064 443.825 769.952 444.44C769.84 445.055 769.728 445.81 769.616 446.705C769.504 447.599 769.42 448.55 769.365 449.556C769.309 450.563 769.267 451.709 769.239 452.995C769.239 453.387 769.239 453.778 769.239 454.17C769.239 454.561 769.225 454.897 769.197 455.176V455.554C769.085 456.029 768.819 456.434 768.4 456.77C767.981 457.105 767.505 457.273 766.974 457.273C766.666 457.273 766.373 457.231 766.093 457.147C765.814 457.064 765.52 456.798 765.213 456.351C764.905 455.903 764.751 455.344 764.751 454.673C764.751 450.255 766.107 445.67 768.819 440.917C769.379 440.022 770.553 438.331 772.342 435.843L774.271 433.2H770.371C765.506 433.2 762.948 433.284 762.696 433.452C762.529 433.536 762.375 433.871 762.235 434.459C762.095 435.046 761.955 435.647 761.816 436.262L761.69 437.143V437.268H760.012V437.143Z" fill="white"/>
</g>
</g>
</g>
</g>
</g>
</g>
</g>
</svg>
