<svg viewBox="0 0 803 565" fill="none" xmlns="http://www.w3.org/2000/svg">
<g id="0122223">
<g id="Group 149">
<g id="Group 147">
<path id="Vector" d="M13.5446 17.4649C13.5446 12.6217 17.4789 8.68736 22.3153 8.68736C27.1516 8.68736 31.0928 12.6217 31.0928 17.4649V26.7282H39.7802V17.4649C39.7802 7.83389 31.9463 0 22.3153 0C12.6842 0 4.85034 7.83389 4.85034 17.4649V26.7282H13.5377V17.4649H13.5446Z" fill="#78A3AD"/>
<path id="Vector_2" d="M31.0927 26.7354V26.8394H13.5445V26.7354H4.85021V26.8394H3.75388C1.67919 26.8394 0 28.5186 0 30.5864V56.246C0 58.3138 1.67919 59.9999 3.75388 59.9999H40.8694C42.9441 59.9999 44.6233 58.3207 44.6233 56.246V30.5864C44.6233 28.5186 42.9441 26.8394 40.8694 26.8394H39.7731V26.7354H31.0927V26.7354Z" fill="#FCC21B"/>
<path id="Vector_3" d="M26.2771 40.9601C26.2771 38.7744 24.5008 36.998 22.3151 36.998C20.1294 36.998 18.353 38.7674 18.353 40.9601C18.353 42.6185 19.38 44.0409 20.8302 44.6238L20.74 44.9985L19.4632 50.4593H25.1739L23.8971 44.9985L23.8139 44.6238C24.5431 44.3285 25.1673 43.8218 25.6062 43.169C26.0452 42.5161 26.2788 41.7468 26.2771 40.9601V40.9601Z" fill="#2F2F2F"/>
</g>
<g id="Group 151">
<path id="Vector_4" d="M22.9203 129.352C25.2891 128.595 27.5266 127.289 29.4078 125.408C35.6766 119.139 35.6766 108.97 29.4078 102.702C23.1391 96.4328 12.9703 96.4328 6.70156 102.702C0.432813 108.97 0.432813 119.139 6.70156 125.408C8.58281 127.289 10.8203 128.595 13.1891 129.352V141.627L16.4328 144.877L13.1891 148.12L16.4328 151.364L13.1891 154.608V157.852L18.0578 162.72L22.9266 157.852V129.352H22.9203ZM14.8078 110.808C13.0203 109.02 13.0203 106.114 14.8078 104.32C16.5953 102.527 19.5016 102.527 21.2953 104.32C23.0891 106.114 23.0891 109.02 21.2953 110.808C20.8696 111.234 20.364 111.573 19.8074 111.803C19.2508 112.034 18.6541 112.153 18.0516 112.153C17.449 112.153 16.8523 112.034 16.2957 111.803C15.7391 111.573 15.2335 111.234 14.8078 110.808Z" fill="#FCC21B"/>
<g id="No es">
<path d="M113.722 144H108.533L95.2236 122.815V144H90.0352V114.141H95.2236L108.574 135.407V114.141H113.722V144Z" fill="white"/>
<path d="M118.438 132.7C118.438 130.526 118.869 128.571 119.73 126.835C120.592 125.085 121.802 123.745 123.36 122.815C124.919 121.872 126.71 121.4 128.733 121.4C131.728 121.4 134.154 122.364 136.014 124.292C137.887 126.22 138.898 128.776 139.049 131.962L139.069 133.131C139.069 135.318 138.646 137.273 137.798 138.996C136.964 140.719 135.761 142.052 134.188 142.995C132.63 143.938 130.825 144.41 128.774 144.41C125.644 144.41 123.135 143.371 121.248 141.293C119.375 139.201 118.438 136.419 118.438 132.946V132.7ZM123.422 133.131C123.422 135.414 123.894 137.205 124.837 138.504C125.78 139.789 127.093 140.432 128.774 140.432C130.456 140.432 131.762 139.775 132.691 138.463C133.635 137.15 134.106 135.229 134.106 132.7C134.106 130.458 133.621 128.681 132.65 127.368C131.693 126.056 130.388 125.399 128.733 125.399C127.106 125.399 125.814 126.049 124.857 127.348C123.9 128.633 123.422 130.561 123.422 133.131Z" fill="white"/>
<path d="M163.515 144.41C160.356 144.41 157.793 143.419 155.824 141.437C153.869 139.44 152.892 136.788 152.892 133.479V132.864C152.892 130.649 153.315 128.674 154.163 126.938C155.024 125.188 156.228 123.827 157.772 122.856C159.317 121.886 161.04 121.4 162.94 121.4C165.962 121.4 168.293 122.364 169.934 124.292C171.588 126.22 172.415 128.947 172.415 132.475V134.484H157.916C158.066 136.316 158.675 137.766 159.741 138.832C160.821 139.898 162.175 140.432 163.802 140.432C166.085 140.432 167.944 139.509 169.38 137.663L172.066 140.227C171.178 141.553 169.988 142.585 168.498 143.323C167.021 144.048 165.36 144.41 163.515 144.41ZM162.92 125.399C161.553 125.399 160.445 125.878 159.598 126.835C158.764 127.792 158.23 129.125 157.998 130.834H167.493V130.465C167.384 128.797 166.939 127.539 166.16 126.691C165.381 125.83 164.301 125.399 162.92 125.399Z" fill="white"/>
<path d="M188.739 137.971C188.739 137.082 188.37 136.405 187.632 135.94C186.907 135.476 185.697 135.065 184.002 134.71C182.307 134.354 180.892 133.903 179.757 133.356C177.269 132.153 176.024 130.41 176.024 128.127C176.024 126.213 176.831 124.613 178.444 123.328C180.058 122.043 182.108 121.4 184.597 121.4C187.249 121.4 189.389 122.057 191.016 123.369C192.656 124.682 193.477 126.384 193.477 128.476H188.493C188.493 127.519 188.138 126.726 187.427 126.097C186.716 125.454 185.772 125.133 184.597 125.133C183.503 125.133 182.607 125.386 181.91 125.892C181.227 126.397 180.885 127.074 180.885 127.922C180.885 128.688 181.206 129.282 181.849 129.706C182.491 130.13 183.79 130.561 185.745 130.998C187.7 131.422 189.231 131.935 190.339 132.536C191.46 133.124 192.287 133.835 192.82 134.669C193.367 135.503 193.641 136.515 193.641 137.704C193.641 139.7 192.813 141.32 191.159 142.564C189.505 143.795 187.338 144.41 184.658 144.41C182.84 144.41 181.22 144.082 179.798 143.426C178.376 142.77 177.269 141.867 176.476 140.719C175.683 139.57 175.286 138.333 175.286 137.007H180.126C180.194 138.183 180.639 139.092 181.459 139.734C182.279 140.363 183.366 140.678 184.72 140.678C186.032 140.678 187.03 140.432 187.714 139.939C188.397 139.434 188.739 138.777 188.739 137.971Z" fill="white"/>
</g>
</g>
<g id="Group 152">
<path id="Vector_5" d="M22.9203 232.352C25.2891 231.595 27.5266 230.289 29.4078 228.408C35.6766 222.139 35.6766 211.97 29.4078 205.702C23.1391 199.433 12.9703 199.433 6.70156 205.702C0.432813 211.97 0.432813 222.139 6.70156 228.408C8.58281 230.289 10.8203 231.595 13.1891 232.352V244.627L16.4328 247.877L13.1891 251.12L16.4328 254.364L13.1891 257.608V260.852L18.0578 265.72L22.9266 260.852V232.352H22.9203ZM14.8078 213.808C13.0203 212.02 13.0203 209.114 14.8078 207.32C16.5953 205.527 19.5016 205.527 21.2953 207.32C23.0891 209.114 23.0891 212.02 21.2953 213.808C20.8696 214.234 20.364 214.573 19.8074 214.803C19.2508 215.034 18.6541 215.153 18.0516 215.153C17.449 215.153 16.8523 215.034 16.2957 214.803C15.7391 214.573 15.2335 214.234 14.8078 213.808Z" fill="#FCC21B"/>
<g id="No es_2">
<path d="M113.722 243H108.533L95.2236 221.815V243H90.0352V213.141H95.2236L108.574 234.407V213.141H113.722V243Z" fill="white"/>
<path d="M118.438 231.7C118.438 229.526 118.869 227.571 119.73 225.835C120.592 224.085 121.802 222.745 123.36 221.815C124.919 220.872 126.71 220.4 128.733 220.4C131.728 220.4 134.154 221.364 136.014 223.292C137.887 225.22 138.898 227.776 139.049 230.962L139.069 232.131C139.069 234.318 138.646 236.273 137.798 237.996C136.964 239.719 135.761 241.052 134.188 241.995C132.63 242.938 130.825 243.41 128.774 243.41C125.644 243.41 123.135 242.371 121.248 240.293C119.375 238.201 118.438 235.419 118.438 231.946V231.7ZM123.422 232.131C123.422 234.414 123.894 236.205 124.837 237.504C125.78 238.789 127.093 239.432 128.774 239.432C130.456 239.432 131.762 238.775 132.691 237.463C133.635 236.15 134.106 234.229 134.106 231.7C134.106 229.458 133.621 227.681 132.65 226.368C131.693 225.056 130.388 224.399 128.733 224.399C127.106 224.399 125.814 225.049 124.857 226.348C123.9 227.633 123.422 229.561 123.422 232.131Z" fill="white"/>
<path d="M163.515 243.41C160.356 243.41 157.793 242.419 155.824 240.437C153.869 238.44 152.892 235.788 152.892 232.479V231.864C152.892 229.649 153.315 227.674 154.163 225.938C155.024 224.188 156.228 222.827 157.772 221.856C159.317 220.886 161.04 220.4 162.94 220.4C165.962 220.4 168.293 221.364 169.934 223.292C171.588 225.22 172.415 227.947 172.415 231.475V233.484H157.916C158.066 235.316 158.675 236.766 159.741 237.832C160.821 238.898 162.175 239.432 163.802 239.432C166.085 239.432 167.944 238.509 169.38 236.663L172.066 239.227C171.178 240.553 169.988 241.585 168.498 242.323C167.021 243.048 165.36 243.41 163.515 243.41ZM162.92 224.399C161.553 224.399 160.445 224.878 159.598 225.835C158.764 226.792 158.23 228.125 157.998 229.834H167.493V229.465C167.384 227.797 166.939 226.539 166.16 225.691C165.381 224.83 164.301 224.399 162.92 224.399Z" fill="white"/>
<path d="M188.739 236.971C188.739 236.082 188.37 235.405 187.632 234.94C186.907 234.476 185.697 234.065 184.002 233.71C182.307 233.354 180.892 232.903 179.757 232.356C177.269 231.153 176.024 229.41 176.024 227.127C176.024 225.213 176.831 223.613 178.444 222.328C180.058 221.043 182.108 220.4 184.597 220.4C187.249 220.4 189.389 221.057 191.016 222.369C192.656 223.682 193.477 225.384 193.477 227.476H188.493C188.493 226.519 188.138 225.726 187.427 225.097C186.716 224.454 185.772 224.133 184.597 224.133C183.503 224.133 182.607 224.386 181.91 224.892C181.227 225.397 180.885 226.074 180.885 226.922C180.885 227.688 181.206 228.282 181.849 228.706C182.491 229.13 183.79 229.561 185.745 229.998C187.7 230.422 189.231 230.935 190.339 231.536C191.46 232.124 192.287 232.835 192.82 233.669C193.367 234.503 193.641 235.515 193.641 236.704C193.641 238.7 192.813 240.32 191.159 241.564C189.505 242.795 187.338 243.41 184.658 243.41C182.84 243.41 181.22 243.082 179.798 242.426C178.376 241.77 177.269 240.867 176.476 239.719C175.683 238.57 175.286 237.333 175.286 236.007H180.126C180.194 237.183 180.639 238.092 181.459 238.734C182.279 239.363 183.366 239.678 184.72 239.678C186.032 239.678 187.03 239.432 187.714 238.939C188.397 238.434 188.739 237.777 188.739 236.971Z" fill="white"/>
</g>
</g>
<g id="Group 153">
<path id="Vector_6" d="M25.9203 335.352C28.2891 334.595 30.5266 333.289 32.4078 331.408C38.6766 325.139 38.6766 314.97 32.4078 308.702C26.1391 302.433 15.9703 302.433 9.70156 308.702C3.43281 314.97 3.43281 325.139 9.70156 331.408C11.5828 333.289 13.8203 334.595 16.1891 335.352V347.627L19.4328 350.877L16.1891 354.12L19.4328 357.364L16.1891 360.608V363.852L21.0578 368.72L25.9266 363.852V335.352H25.9203ZM17.8078 316.808C16.0203 315.02 16.0203 312.114 17.8078 310.32C19.5953 308.527 22.5016 308.527 24.2953 310.32C26.0891 312.114 26.0891 315.02 24.2953 316.808C23.8696 317.234 23.364 317.573 22.8074 317.803C22.2508 318.034 21.6541 318.153 21.0516 318.153C20.449 318.153 19.8523 318.034 19.2957 317.803C18.7391 317.573 18.2335 317.234 17.8078 316.808Z" fill="#FCC21B"/>
<g id="No es_3">
<path d="M117.722 346H112.533L99.2236 324.815V346H94.0352V316.141H99.2236L112.574 337.407V316.141H117.722V346Z" fill="white"/>
<path d="M122.438 334.7C122.438 332.526 122.869 330.571 123.73 328.835C124.592 327.085 125.802 325.745 127.36 324.815C128.919 323.872 130.71 323.4 132.733 323.4C135.728 323.4 138.154 324.364 140.014 326.292C141.887 328.22 142.898 330.776 143.049 333.962L143.069 335.131C143.069 337.318 142.646 339.273 141.798 340.996C140.964 342.719 139.761 344.052 138.188 344.995C136.63 345.938 134.825 346.41 132.774 346.41C129.644 346.41 127.135 345.371 125.248 343.293C123.375 341.201 122.438 338.419 122.438 334.946V334.7ZM127.422 335.131C127.422 337.414 127.894 339.205 128.837 340.504C129.78 341.789 131.093 342.432 132.774 342.432C134.456 342.432 135.762 341.775 136.691 340.463C137.635 339.15 138.106 337.229 138.106 334.7C138.106 332.458 137.621 330.681 136.65 329.368C135.693 328.056 134.388 327.399 132.733 327.399C131.106 327.399 129.814 328.049 128.857 329.348C127.9 330.633 127.422 332.561 127.422 335.131Z" fill="white"/>
<path d="M167.515 346.41C164.356 346.41 161.793 345.419 159.824 343.437C157.869 341.44 156.892 338.788 156.892 335.479V334.864C156.892 332.649 157.315 330.674 158.163 328.938C159.024 327.188 160.228 325.827 161.772 324.856C163.317 323.886 165.04 323.4 166.94 323.4C169.962 323.4 172.293 324.364 173.934 326.292C175.588 328.22 176.415 330.947 176.415 334.475V336.484H161.916C162.066 338.316 162.675 339.766 163.741 340.832C164.821 341.898 166.175 342.432 167.802 342.432C170.085 342.432 171.944 341.509 173.38 339.663L176.066 342.227C175.178 343.553 173.988 344.585 172.498 345.323C171.021 346.048 169.36 346.41 167.515 346.41ZM166.92 327.399C165.553 327.399 164.445 327.878 163.598 328.835C162.764 329.792 162.23 331.125 161.998 332.834H171.493V332.465C171.384 330.797 170.939 329.539 170.16 328.691C169.381 327.83 168.301 327.399 166.92 327.399Z" fill="white"/>
<path d="M192.739 339.971C192.739 339.082 192.37 338.405 191.632 337.94C190.907 337.476 189.697 337.065 188.002 336.71C186.307 336.354 184.892 335.903 183.757 335.356C181.269 334.153 180.024 332.41 180.024 330.127C180.024 328.213 180.831 326.613 182.444 325.328C184.058 324.043 186.108 323.4 188.597 323.4C191.249 323.4 193.389 324.057 195.016 325.369C196.656 326.682 197.477 328.384 197.477 330.476H192.493C192.493 329.519 192.138 328.726 191.427 328.097C190.716 327.454 189.772 327.133 188.597 327.133C187.503 327.133 186.607 327.386 185.91 327.892C185.227 328.397 184.885 329.074 184.885 329.922C184.885 330.688 185.206 331.282 185.849 331.706C186.491 332.13 187.79 332.561 189.745 332.998C191.7 333.422 193.231 333.935 194.339 334.536C195.46 335.124 196.287 335.835 196.82 336.669C197.367 337.503 197.641 338.515 197.641 339.704C197.641 341.7 196.813 343.32 195.159 344.564C193.505 345.795 191.338 346.41 188.658 346.41C186.84 346.41 185.22 346.082 183.798 345.426C182.376 344.77 181.269 343.867 180.476 342.719C179.683 341.57 179.286 340.333 179.286 339.007H184.126C184.194 340.183 184.639 341.092 185.459 341.734C186.279 342.363 187.366 342.678 188.72 342.678C190.032 342.678 191.03 342.432 191.714 341.939C192.397 341.434 192.739 340.777 192.739 339.971Z" fill="white"/>
</g>
</g>
<g id="Group 154">
<path id="Vector_7" d="M22.9203 428.352C25.2891 427.595 27.5266 426.289 29.4078 424.408C35.6766 418.139 35.6766 407.97 29.4078 401.702C23.1391 395.433 12.9703 395.433 6.70156 401.702C0.432813 407.97 0.432813 418.139 6.70156 424.408C8.58281 426.289 10.8203 427.595 13.1891 428.352V440.627L16.4328 443.877L13.1891 447.12L16.4328 450.364L13.1891 453.608V456.852L18.0578 461.72L22.9266 456.852V428.352H22.9203ZM14.8078 409.808C13.0203 408.02 13.0203 405.114 14.8078 403.32C16.5953 401.527 19.5016 401.527 21.2953 403.32C23.0891 405.114 23.0891 408.02 21.2953 409.808C20.8696 410.234 20.364 410.573 19.8074 410.803C19.2508 411.034 18.6541 411.153 18.0516 411.153C17.449 411.153 16.8523 411.034 16.2957 410.803C15.7391 410.573 15.2335 410.234 14.8078 409.808Z" fill="#FCC21B"/>
<g id="No es_4">
<path d="M117.722 443H112.533L99.2236 421.815V443H94.0352V413.141H99.2236L112.574 434.407V413.141H117.722V443Z" fill="white"/>
<path d="M122.438 431.7C122.438 429.526 122.869 427.571 123.73 425.835C124.592 424.085 125.802 422.745 127.36 421.815C128.919 420.872 130.71 420.4 132.733 420.4C135.728 420.4 138.154 421.364 140.014 423.292C141.887 425.22 142.898 427.776 143.049 430.962L143.069 432.131C143.069 434.318 142.646 436.273 141.798 437.996C140.964 439.719 139.761 441.052 138.188 441.995C136.63 442.938 134.825 443.41 132.774 443.41C129.644 443.41 127.135 442.371 125.248 440.293C123.375 438.201 122.438 435.419 122.438 431.946V431.7ZM127.422 432.131C127.422 434.414 127.894 436.205 128.837 437.504C129.78 438.789 131.093 439.432 132.774 439.432C134.456 439.432 135.762 438.775 136.691 437.463C137.635 436.15 138.106 434.229 138.106 431.7C138.106 429.458 137.621 427.681 136.65 426.368C135.693 425.056 134.388 424.399 132.733 424.399C131.106 424.399 129.814 425.049 128.857 426.348C127.9 427.633 127.422 429.561 127.422 432.131Z" fill="white"/>
<path d="M167.515 443.41C164.356 443.41 161.793 442.419 159.824 440.437C157.869 438.44 156.892 435.788 156.892 432.479V431.864C156.892 429.649 157.315 427.674 158.163 425.938C159.024 424.188 160.228 422.827 161.772 421.856C163.317 420.886 165.04 420.4 166.94 420.4C169.962 420.4 172.293 421.364 173.934 423.292C175.588 425.22 176.415 427.947 176.415 431.475V433.484H161.916C162.066 435.316 162.675 436.766 163.741 437.832C164.821 438.898 166.175 439.432 167.802 439.432C170.085 439.432 171.944 438.509 173.38 436.663L176.066 439.227C175.178 440.553 173.988 441.585 172.498 442.323C171.021 443.048 169.36 443.41 167.515 443.41ZM166.92 424.399C165.553 424.399 164.445 424.878 163.598 425.835C162.764 426.792 162.23 428.125 161.998 429.834H171.493V429.465C171.384 427.797 170.939 426.539 170.16 425.691C169.381 424.83 168.301 424.399 166.92 424.399Z" fill="white"/>
<path d="M192.739 436.971C192.739 436.082 192.37 435.405 191.632 434.94C190.907 434.476 189.697 434.065 188.002 433.71C186.307 433.354 184.892 432.903 183.757 432.356C181.269 431.153 180.024 429.41 180.024 427.127C180.024 425.213 180.831 423.613 182.444 422.328C184.058 421.043 186.108 420.4 188.597 420.4C191.249 420.4 193.389 421.057 195.016 422.369C196.656 423.682 197.477 425.384 197.477 427.476H192.493C192.493 426.519 192.138 425.726 191.427 425.097C190.716 424.454 189.772 424.133 188.597 424.133C187.503 424.133 186.607 424.386 185.91 424.892C185.227 425.397 184.885 426.074 184.885 426.922C184.885 427.688 185.206 428.282 185.849 428.706C186.491 429.13 187.79 429.561 189.745 429.998C191.7 430.422 193.231 430.935 194.339 431.536C195.46 432.124 196.287 432.835 196.82 433.669C197.367 434.503 197.641 435.515 197.641 436.704C197.641 438.7 196.813 440.32 195.159 441.564C193.505 442.795 191.338 443.41 188.658 443.41C186.84 443.41 185.22 443.082 183.798 442.426C182.376 441.77 181.269 440.867 180.476 439.719C179.683 438.57 179.286 437.333 179.286 436.007H184.126C184.194 437.183 184.639 438.092 185.459 438.734C186.279 439.363 187.366 439.678 188.72 439.678C190.032 439.678 191.03 439.432 191.714 438.939C192.397 438.434 192.739 437.777 192.739 436.971Z" fill="white"/>
</g>
</g>
<path id="Vector_8" d="M22.9203 531.352C25.2891 530.595 27.5266 529.289 29.4078 527.408C35.6766 521.139 35.6766 510.97 29.4078 504.702C23.1391 498.433 12.9703 498.433 6.70156 504.702C0.432813 510.97 0.432813 521.139 6.70156 527.408C8.58281 529.289 10.8203 530.595 13.1891 531.352V543.627L16.4328 546.877L13.1891 550.12L16.4328 553.364L13.1891 556.608V559.852L18.0578 564.72L22.9266 559.852V531.352H22.9203ZM14.8078 512.808C13.0203 511.02 13.0203 508.114 14.8078 506.32C16.5953 504.527 19.5016 504.527 21.2953 506.32C23.0891 508.114 23.0891 511.02 21.2953 512.808C20.8696 513.234 20.364 513.573 19.8074 513.803C19.2508 514.034 18.6541 514.153 18.0516 514.153C17.449 514.153 16.8523 514.034 16.2957 513.803C15.7391 513.573 15.2335 513.234 14.8078 512.808Z" fill="#FCC21B"/>
</g>
<g id="Group 150">
<g id="Group 148">
<path id="Vector_9" d="M317.545 24.4649C317.545 19.6217 321.479 15.6874 326.315 15.6874C331.152 15.6874 335.093 19.6217 335.093 24.4649V33.7282H343.78V24.4649C343.78 14.8339 335.946 7 326.315 7C316.684 7 308.85 14.8339 308.85 24.4649V33.7282H317.538V24.4649H317.545Z" fill="#78A3AD"/>
<path id="Vector_10" d="M335.093 33.7354V33.8394H317.545V33.7354H308.85V33.8394H307.754C305.679 33.8394 304 35.5186 304 37.5864V63.246C304 65.3138 305.679 66.9999 307.754 66.9999H344.869C346.944 66.9999 348.623 65.3207 348.623 63.246V37.5864C348.623 35.5186 346.944 33.8394 344.869 33.8394H343.773V33.7354H335.093V33.7354Z" fill="#FCC21B"/>
<path id="Vector_11" d="M330.277 47.9601C330.277 45.7744 328.501 43.998 326.315 43.998C324.129 43.998 322.353 45.7674 322.353 47.9601C322.353 49.6185 323.38 51.0409 324.83 51.6238L324.74 51.9985L323.463 57.4593H329.174L327.897 51.9985L327.814 51.6238C328.543 51.3285 329.167 50.8218 329.606 50.169C330.045 49.5161 330.279 48.7468 330.277 47.9601V47.9601Z" fill="#2F2F2F"/>
</g>
<g id="Group 155">
<path id="Vector_12" d="M332.92 129.352C335.289 128.595 337.527 127.289 339.408 125.408C345.677 119.139 345.677 108.97 339.408 102.702C333.139 96.4328 322.97 96.4328 316.702 102.702C310.433 108.97 310.433 119.139 316.702 125.408C318.583 127.289 320.82 128.595 323.189 129.352V141.627L326.433 144.877L323.189 148.12L326.433 151.364L323.189 154.608V157.852L328.058 162.72L332.927 157.852V129.352H332.92ZM324.808 110.808C323.02 109.02 323.02 106.114 324.808 104.32C326.595 102.527 329.502 102.527 331.295 104.32C333.089 106.114 333.089 109.02 331.295 110.808C330.87 111.234 330.364 111.573 329.807 111.803C329.251 112.034 328.654 112.153 328.052 112.153C327.449 112.153 326.852 112.034 326.296 111.803C325.739 111.573 325.234 111.234 324.808 110.808Z" fill="#FCC21B"/>
<g id="No es_5">
<path d="M437.722 144H432.533L419.224 122.815V144H414.035V114.141H419.224L432.574 135.407V114.141H437.722V144Z" fill="white"/>
<path d="M442.438 132.7C442.438 130.526 442.869 128.571 443.73 126.835C444.592 125.085 445.802 123.745 447.36 122.815C448.919 121.872 450.71 121.4 452.733 121.4C455.728 121.4 458.154 122.364 460.014 124.292C461.887 126.22 462.898 128.776 463.049 131.962L463.069 133.131C463.069 135.318 462.646 137.273 461.798 138.996C460.964 140.719 459.761 142.052 458.188 142.995C456.63 143.938 454.825 144.41 452.774 144.41C449.644 144.41 447.135 143.371 445.248 141.293C443.375 139.201 442.438 136.419 442.438 132.946V132.7ZM447.422 133.131C447.422 135.414 447.894 137.205 448.837 138.504C449.78 139.789 451.093 140.432 452.774 140.432C454.456 140.432 455.762 139.775 456.691 138.463C457.635 137.15 458.106 135.229 458.106 132.7C458.106 130.458 457.621 128.681 456.65 127.368C455.693 126.056 454.388 125.399 452.733 125.399C451.106 125.399 449.814 126.049 448.857 127.348C447.9 128.633 447.422 130.561 447.422 133.131Z" fill="white"/>
<path d="M487.515 144.41C484.356 144.41 481.793 143.419 479.824 141.437C477.869 139.44 476.892 136.788 476.892 133.479V132.864C476.892 130.649 477.315 128.674 478.163 126.938C479.024 125.188 480.228 123.827 481.772 122.856C483.317 121.886 485.04 121.4 486.94 121.4C489.962 121.4 492.293 122.364 493.934 124.292C495.588 126.22 496.415 128.947 496.415 132.475V134.484H481.916C482.066 136.316 482.675 137.766 483.741 138.832C484.821 139.898 486.175 140.432 487.802 140.432C490.085 140.432 491.944 139.509 493.38 137.663L496.066 140.227C495.178 141.553 493.988 142.585 492.498 143.323C491.021 144.048 489.36 144.41 487.515 144.41ZM486.92 125.399C485.553 125.399 484.445 125.878 483.598 126.835C482.764 127.792 482.23 129.125 481.998 130.834H491.493V130.465C491.384 128.797 490.939 127.539 490.16 126.691C489.381 125.83 488.301 125.399 486.92 125.399Z" fill="white"/>
<path d="M512.739 137.971C512.739 137.082 512.37 136.405 511.632 135.94C510.907 135.476 509.697 135.065 508.002 134.71C506.307 134.354 504.892 133.903 503.757 133.356C501.269 132.153 500.024 130.41 500.024 128.127C500.024 126.213 500.831 124.613 502.444 123.328C504.058 122.043 506.108 121.4 508.597 121.4C511.249 121.4 513.389 122.057 515.016 123.369C516.656 124.682 517.477 126.384 517.477 128.476H512.493C512.493 127.519 512.138 126.726 511.427 126.097C510.716 125.454 509.772 125.133 508.597 125.133C507.503 125.133 506.607 125.386 505.91 125.892C505.227 126.397 504.885 127.074 504.885 127.922C504.885 128.688 505.206 129.282 505.849 129.706C506.491 130.13 507.79 130.561 509.745 130.998C511.7 131.422 513.231 131.935 514.339 132.536C515.46 133.124 516.287 133.835 516.82 134.669C517.367 135.503 517.641 136.515 517.641 137.704C517.641 139.7 516.813 141.32 515.159 142.564C513.505 143.795 511.338 144.41 508.658 144.41C506.84 144.41 505.22 144.082 503.798 143.426C502.376 142.77 501.269 141.867 500.476 140.719C499.683 139.57 499.286 138.333 499.286 137.007H504.126C504.194 138.183 504.639 139.092 505.459 139.734C506.279 140.363 507.366 140.678 508.72 140.678C510.032 140.678 511.03 140.432 511.714 139.939C512.397 139.434 512.739 138.777 512.739 137.971Z" fill="white"/>
</g>
</g>
<g id="Group 156">
<path id="Vector_13" d="M332.92 228.352C335.289 227.595 337.527 226.289 339.408 224.408C345.677 218.139 345.677 207.97 339.408 201.702C333.139 195.433 322.97 195.433 316.702 201.702C310.433 207.97 310.433 218.139 316.702 224.408C318.583 226.289 320.82 227.595 323.189 228.352V240.627L326.433 243.877L323.189 247.12L326.433 250.364L323.189 253.608V256.852L328.058 261.72L332.927 256.852V228.352H332.92ZM324.808 209.808C323.02 208.02 323.02 205.114 324.808 203.32C326.595 201.527 329.502 201.527 331.295 203.32C333.089 205.114 333.089 208.02 331.295 209.808C330.87 210.234 330.364 210.573 329.807 210.803C329.251 211.034 328.654 211.153 328.052 211.153C327.449 211.153 326.852 211.034 326.296 210.803C325.739 210.573 325.234 210.234 324.808 209.808Z" fill="#FCC21B"/>
<g id="No es_6">
<path d="M435.722 243H430.533L417.224 221.815V243H412.035V213.141H417.224L430.574 234.407V213.141H435.722V243Z" fill="white"/>
<path d="M440.438 231.7C440.438 229.526 440.869 227.571 441.73 225.835C442.592 224.085 443.802 222.745 445.36 221.815C446.919 220.872 448.71 220.4 450.733 220.4C453.728 220.4 456.154 221.364 458.014 223.292C459.887 225.22 460.898 227.776 461.049 230.962L461.069 232.131C461.069 234.318 460.646 236.273 459.798 237.996C458.964 239.719 457.761 241.052 456.188 241.995C454.63 242.938 452.825 243.41 450.774 243.41C447.644 243.41 445.135 242.371 443.248 240.293C441.375 238.201 440.438 235.419 440.438 231.946V231.7ZM445.422 232.131C445.422 234.414 445.894 236.205 446.837 237.504C447.78 238.789 449.093 239.432 450.774 239.432C452.456 239.432 453.762 238.775 454.691 237.463C455.635 236.15 456.106 234.229 456.106 231.7C456.106 229.458 455.621 227.681 454.65 226.368C453.693 225.056 452.388 224.399 450.733 224.399C449.106 224.399 447.814 225.049 446.857 226.348C445.9 227.633 445.422 229.561 445.422 232.131Z" fill="white"/>
<path d="M485.515 243.41C482.356 243.41 479.793 242.419 477.824 240.437C475.869 238.44 474.892 235.788 474.892 232.479V231.864C474.892 229.649 475.315 227.674 476.163 225.938C477.024 224.188 478.228 222.827 479.772 221.856C481.317 220.886 483.04 220.4 484.94 220.4C487.962 220.4 490.293 221.364 491.934 223.292C493.588 225.22 494.415 227.947 494.415 231.475V233.484H479.916C480.066 235.316 480.675 236.766 481.741 237.832C482.821 238.898 484.175 239.432 485.802 239.432C488.085 239.432 489.944 238.509 491.38 236.663L494.066 239.227C493.178 240.553 491.988 241.585 490.498 242.323C489.021 243.048 487.36 243.41 485.515 243.41ZM484.92 224.399C483.553 224.399 482.445 224.878 481.598 225.835C480.764 226.792 480.23 228.125 479.998 229.834H489.493V229.465C489.384 227.797 488.939 226.539 488.16 225.691C487.381 224.83 486.301 224.399 484.92 224.399Z" fill="white"/>
<path d="M510.739 236.971C510.739 236.082 510.37 235.405 509.632 234.94C508.907 234.476 507.697 234.065 506.002 233.71C504.307 233.354 502.892 232.903 501.757 232.356C499.269 231.153 498.024 229.41 498.024 227.127C498.024 225.213 498.831 223.613 500.444 222.328C502.058 221.043 504.108 220.4 506.597 220.4C509.249 220.4 511.389 221.057 513.016 222.369C514.656 223.682 515.477 225.384 515.477 227.476H510.493C510.493 226.519 510.138 225.726 509.427 225.097C508.716 224.454 507.772 224.133 506.597 224.133C505.503 224.133 504.607 224.386 503.91 224.892C503.227 225.397 502.885 226.074 502.885 226.922C502.885 227.688 503.206 228.282 503.849 228.706C504.491 229.13 505.79 229.561 507.745 229.998C509.7 230.422 511.231 230.935 512.339 231.536C513.46 232.124 514.287 232.835 514.82 233.669C515.367 234.503 515.641 235.515 515.641 236.704C515.641 238.7 514.813 240.32 513.159 241.564C511.505 242.795 509.338 243.41 506.658 243.41C504.84 243.41 503.22 243.082 501.798 242.426C500.376 241.77 499.269 240.867 498.476 239.719C497.683 238.57 497.286 237.333 497.286 236.007H502.126C502.194 237.183 502.639 238.092 503.459 238.734C504.279 239.363 505.366 239.678 506.72 239.678C508.032 239.678 509.03 239.432 509.714 238.939C510.397 238.434 510.739 237.777 510.739 236.971Z" fill="white"/>
</g>
</g>
<g id="Group 157">
<path id="Vector_14" d="M334.92 331.352C337.289 330.595 339.527 329.289 341.408 327.408C347.677 321.139 347.677 310.97 341.408 304.702C335.139 298.433 324.97 298.433 318.702 304.702C312.433 310.97 312.433 321.139 318.702 327.408C320.583 329.289 322.82 330.595 325.189 331.352V343.627L328.433 346.877L325.189 350.12L328.433 353.364L325.189 356.608V359.852L330.058 364.72L334.927 359.852V331.352H334.92ZM326.808 312.808C325.02 311.02 325.02 308.114 326.808 306.32C328.595 304.527 331.502 304.527 333.295 306.32C335.089 308.114 335.089 311.02 333.295 312.808C332.87 313.234 332.364 313.573 331.807 313.803C331.251 314.034 330.654 314.153 330.052 314.153C329.449 314.153 328.852 314.034 328.296 313.803C327.739 313.573 327.234 313.234 326.808 312.808Z" fill="#FCC21B"/>
<g id="No es_7">
<path d="M435.722 352H430.533L417.224 330.815V352H412.035V322.141H417.224L430.574 343.407V322.141H435.722V352Z" fill="white"/>
<path d="M440.438 340.7C440.438 338.526 440.869 336.571 441.73 334.835C442.592 333.085 443.802 331.745 445.36 330.815C446.919 329.872 448.71 329.4 450.733 329.4C453.728 329.4 456.154 330.364 458.014 332.292C459.887 334.22 460.898 336.776 461.049 339.962L461.069 341.131C461.069 343.318 460.646 345.273 459.798 346.996C458.964 348.719 457.761 350.052 456.188 350.995C454.63 351.938 452.825 352.41 450.774 352.41C447.644 352.41 445.135 351.371 443.248 349.293C441.375 347.201 440.438 344.419 440.438 340.946V340.7ZM445.422 341.131C445.422 343.414 445.894 345.205 446.837 346.504C447.78 347.789 449.093 348.432 450.774 348.432C452.456 348.432 453.762 347.775 454.691 346.463C455.635 345.15 456.106 343.229 456.106 340.7C456.106 338.458 455.621 336.681 454.65 335.368C453.693 334.056 452.388 333.399 450.733 333.399C449.106 333.399 447.814 334.049 446.857 335.348C445.9 336.633 445.422 338.561 445.422 341.131Z" fill="white"/>
<path d="M485.515 352.41C482.356 352.41 479.793 351.419 477.824 349.437C475.869 347.44 474.892 344.788 474.892 341.479V340.864C474.892 338.649 475.315 336.674 476.163 334.938C477.024 333.188 478.228 331.827 479.772 330.856C481.317 329.886 483.04 329.4 484.94 329.4C487.962 329.4 490.293 330.364 491.934 332.292C493.588 334.22 494.415 336.947 494.415 340.475V342.484H479.916C480.066 344.316 480.675 345.766 481.741 346.832C482.821 347.898 484.175 348.432 485.802 348.432C488.085 348.432 489.944 347.509 491.38 345.663L494.066 348.227C493.178 349.553 491.988 350.585 490.498 351.323C489.021 352.048 487.36 352.41 485.515 352.41ZM484.92 333.399C483.553 333.399 482.445 333.878 481.598 334.835C480.764 335.792 480.23 337.125 479.998 338.834H489.493V338.465C489.384 336.797 488.939 335.539 488.16 334.691C487.381 333.83 486.301 333.399 484.92 333.399Z" fill="white"/>
<path d="M510.739 345.971C510.739 345.082 510.37 344.405 509.632 343.94C508.907 343.476 507.697 343.065 506.002 342.71C504.307 342.354 502.892 341.903 501.757 341.356C499.269 340.153 498.024 338.41 498.024 336.127C498.024 334.213 498.831 332.613 500.444 331.328C502.058 330.043 504.108 329.4 506.597 329.4C509.249 329.4 511.389 330.057 513.016 331.369C514.656 332.682 515.477 334.384 515.477 336.476H510.493C510.493 335.519 510.138 334.726 509.427 334.097C508.716 333.454 507.772 333.133 506.597 333.133C505.503 333.133 504.607 333.386 503.91 333.892C503.227 334.397 502.885 335.074 502.885 335.922C502.885 336.688 503.206 337.282 503.849 337.706C504.491 338.13 505.79 338.561 507.745 338.998C509.7 339.422 511.231 339.935 512.339 340.536C513.46 341.124 514.287 341.835 514.82 342.669C515.367 343.503 515.641 344.515 515.641 345.704C515.641 347.7 514.813 349.32 513.159 350.564C511.505 351.795 509.338 352.41 506.658 352.41C504.84 352.41 503.22 352.082 501.798 351.426C500.376 350.77 499.269 349.867 498.476 348.719C497.683 347.57 497.286 346.333 497.286 345.007H502.126C502.194 346.183 502.639 347.092 503.459 347.734C504.279 348.363 505.366 348.678 506.72 348.678C508.032 348.678 509.03 348.432 509.714 347.939C510.397 347.434 510.739 346.777 510.739 345.971Z" fill="white"/>
</g>
</g>
<path id="Vector_15" d="M332.92 434.352C335.289 433.595 337.527 432.289 339.408 430.408C345.677 424.139 345.677 413.97 339.408 407.702C333.139 401.433 322.97 401.433 316.702 407.702C310.433 413.97 310.433 424.139 316.702 430.408C318.583 432.289 320.82 433.595 323.189 434.352V446.627L326.433 449.877L323.189 453.12L326.433 456.364L323.189 459.608V462.852L328.058 467.72L332.927 462.852V434.352H332.92ZM324.808 415.808C323.02 414.02 323.02 411.114 324.808 409.32C326.595 407.527 329.502 407.527 331.295 409.32C333.089 411.114 333.089 414.02 331.295 415.808C330.87 416.234 330.364 416.573 329.807 416.803C329.251 417.034 328.654 417.153 328.052 417.153C327.449 417.153 326.852 417.034 326.296 416.803C325.739 416.573 325.234 416.234 324.808 415.808Z" fill="#FCC21B"/>
</g>
<g id="4 + 3 = 7">
<path d="M663.093 222.356H666.805V226.355H663.093V233H658.109V226.355H645.21L645.066 223.32L657.945 203.141H663.093V222.356ZM650.296 222.356H658.109V209.888L657.74 210.544L650.296 222.356Z" fill="white"/>
<path d="M692.398 216.573H700.191V221.126H692.398V230.006H687.559V221.126H679.725V216.573H687.559V208.268H692.398V216.573Z" fill="white"/>
<path d="M720.207 215.794H723.242C724.773 215.78 725.983 215.384 726.872 214.604C727.774 213.825 728.226 212.697 728.226 211.221C728.226 209.799 727.85 208.698 727.098 207.919C726.359 207.126 725.225 206.729 723.693 206.729C722.354 206.729 721.253 207.119 720.392 207.898C719.53 208.664 719.1 209.669 719.1 210.913H714.116C714.116 209.382 714.52 207.987 715.326 206.729C716.146 205.472 717.281 204.494 718.73 203.797C720.193 203.086 721.827 202.73 723.632 202.73C726.612 202.73 728.95 203.482 730.646 204.986C732.354 206.477 733.209 208.555 733.209 211.221C733.209 212.561 732.778 213.825 731.917 215.015C731.069 216.19 729.969 217.079 728.615 217.681C730.256 218.241 731.5 219.123 732.348 220.326C733.209 221.529 733.64 222.965 733.64 224.633C733.64 227.312 732.717 229.445 730.871 231.031C729.039 232.617 726.626 233.41 723.632 233.41C720.761 233.41 718.409 232.645 716.577 231.113C714.745 229.582 713.829 227.545 713.829 225.002H718.812C718.812 226.314 719.25 227.381 720.125 228.201C721.014 229.021 722.203 229.432 723.693 229.432C725.238 229.432 726.455 229.021 727.344 228.201C728.232 227.381 728.677 226.191 728.677 224.633C728.677 223.061 728.212 221.851 727.282 221.003C726.353 220.155 724.972 219.731 723.14 219.731H720.207V215.794Z" fill="white"/>
<path d="M767.19 217.004H749.513V212.861H767.19V217.004ZM767.19 225.699H749.513V221.577H767.19V225.699Z" fill="white"/>
<path d="M802.607 205.909L790.672 233H785.442L797.357 207.14H781.915V203.141H802.607V205.909Z" fill="white"/>
</g>
</g>
</svg>
