<svg width="744" height="230" viewBox="0 0 744 230" fill="none" xmlns="http://www.w3.org/2000/svg">
<g id="0122225">
<g id="Group 175">
<g id="Group 166">
<path id="Ellipse 58" d="M60 30C60 46.5685 46.5685 60 30 60C13.4315 60 0 46.5685 0 30C0 13.4315 13.4315 0 30 0C46.5685 0 60 13.4315 60 30Z" fill="#1043F5"/>
<path id="1" d="M35.7295 47H30.7666V23.0264L23.4453 25.5283V21.3242L35.0938 17.0381H35.7295V47Z" fill="white"/>
</g>
<g id="Group 167">
<path id="Ellipse 58_2" d="M133 30C133 46.5685 119.569 60 103 60C86.4315 60 73 46.5685 73 30C73 13.4315 86.4315 0 103 0C119.569 0 133 13.4315 133 30Z" fill="#1043F5"/>
<path id="2" d="M115.312 47H95.2354V43.5752L105.182 32.7266C106.617 31.127 107.636 29.7939 108.237 28.7275C108.853 27.6475 109.16 26.5674 109.16 25.4873C109.16 24.0654 108.757 22.917 107.95 22.042C107.157 21.167 106.084 20.7295 104.73 20.7295C103.117 20.7295 101.866 21.2217 100.978 22.2061C100.089 23.1904 99.6445 24.5371 99.6445 26.2461H94.6611C94.6611 24.4277 95.0713 22.7939 95.8916 21.3447C96.7256 19.8818 97.9082 18.7471 99.4395 17.9404C100.984 17.1338 102.762 16.7305 104.771 16.7305C107.67 16.7305 109.953 17.4619 111.621 18.9248C113.303 20.374 114.144 22.3838 114.144 24.9541C114.144 26.4443 113.72 28.0098 112.872 29.6504C112.038 31.2773 110.664 33.1299 108.75 35.208L101.449 43.0215H115.312V47Z" fill="white"/>
</g>
<g id="Group 172">
<path id="Ellipse 58_3" d="M198 100C198 116.569 184.569 130 168 130C151.431 130 138 116.569 138 100C138 83.4315 151.431 70 168 70C184.569 70 198 83.4315 198 100Z" fill="#CD08D1"/>
<path id="3" d="M165.998 99.7939H169.033C170.564 99.7803 171.774 99.3838 172.663 98.6045C173.565 97.8252 174.017 96.6973 174.017 95.2207C174.017 93.7988 173.641 92.6982 172.889 91.9189C172.15 91.126 171.016 90.7295 169.484 90.7295C168.145 90.7295 167.044 91.1191 166.183 91.8984C165.321 92.6641 164.891 93.6689 164.891 94.9131H159.907C159.907 93.3818 160.311 91.9873 161.117 90.7295C161.938 89.4717 163.072 88.4941 164.521 87.7969C165.984 87.0859 167.618 86.7305 169.423 86.7305C172.403 86.7305 174.741 87.4824 176.437 88.9863C178.146 90.4766 179 92.5547 179 95.2207C179 96.5605 178.569 97.8252 177.708 99.0146C176.86 100.19 175.76 101.079 174.406 101.681C176.047 102.241 177.291 103.123 178.139 104.326C179 105.529 179.431 106.965 179.431 108.633C179.431 111.312 178.508 113.445 176.662 115.031C174.83 116.617 172.417 117.41 169.423 117.41C166.552 117.41 164.2 116.645 162.368 115.113C160.536 113.582 159.62 111.545 159.62 109.002H164.604C164.604 110.314 165.041 111.381 165.916 112.201C166.805 113.021 167.994 113.432 169.484 113.432C171.029 113.432 172.246 113.021 173.135 112.201C174.023 111.381 174.468 110.191 174.468 108.633C174.468 107.061 174.003 105.851 173.073 105.003C172.144 104.155 170.763 103.731 168.931 103.731H165.998V99.7939Z" fill="white"/>
</g>
<g id="Group 173">
<path id="Ellipse 58_4" d="M430 105C430 121.569 416.569 135 400 135C383.431 135 370 121.569 370 105C370 88.4315 383.431 75 400 75C416.569 75 430 88.4315 430 105Z" fill="#CD08D1"/>
<path id="6" d="M407.739 91.9971V96.1191H407.124C404.335 96.1602 402.106 96.9258 400.438 98.416C398.771 99.9062 397.779 102.019 397.465 104.753C399.064 103.071 401.108 102.23 403.597 102.23C406.235 102.23 408.313 103.16 409.831 105.02C411.362 106.879 412.128 109.278 412.128 112.218C412.128 115.253 411.232 117.714 409.441 119.601C407.664 121.474 405.326 122.41 402.428 122.41C399.447 122.41 397.027 121.31 395.168 119.108C393.322 116.907 392.399 114.022 392.399 110.454V108.752C392.399 103.516 393.671 99.4141 396.214 96.4473C398.771 93.4805 402.441 91.9971 407.227 91.9971H407.739ZM402.387 106.25C401.293 106.25 400.288 106.558 399.372 107.173C398.47 107.788 397.807 108.608 397.383 109.634V111.151C397.383 113.366 397.848 115.13 398.777 116.442C399.707 117.741 400.91 118.391 402.387 118.391C403.863 118.391 405.032 117.837 405.894 116.729C406.755 115.622 407.186 114.166 407.186 112.361C407.186 110.557 406.748 109.087 405.873 107.952C404.998 106.817 403.836 106.25 402.387 106.25Z" fill="white"/>
</g>
<g id="Group 174">
<path id="Ellipse 58_5" d="M674 110C674 126.569 660.569 140 644 140C627.431 140 614 126.569 614 110C614 93.4315 627.431 80 644 80C660.569 80 674 93.4315 674 110Z" fill="#CD08D1"/>
<path id="9" d="M650.365 114.511C648.697 116.274 646.749 117.156 644.521 117.156C641.896 117.156 639.804 116.24 638.245 114.408C636.687 112.562 635.907 110.143 635.907 107.148C635.907 105.18 636.304 103.396 637.097 101.796C637.89 100.196 639.018 98.9521 640.48 98.0635C641.943 97.1748 643.639 96.7305 645.566 96.7305C648.574 96.7305 650.96 97.8516 652.724 100.094C654.487 102.336 655.369 105.337 655.369 109.097V110.491C655.369 115.878 654.152 119.986 651.719 122.816C649.285 125.646 645.655 127.082 640.829 127.123H640.234V123.001H640.952C643.892 122.96 646.147 122.256 647.72 120.889C649.292 119.508 650.174 117.382 650.365 114.511ZM645.566 113.26C646.564 113.26 647.501 112.973 648.376 112.398C649.251 111.824 649.928 111.031 650.406 110.02V108.071C650.406 105.87 649.955 104.1 649.053 102.76C648.15 101.42 646.981 100.75 645.546 100.75C644.11 100.75 642.962 101.345 642.101 102.534C641.253 103.71 640.829 105.2 640.829 107.005C640.829 108.878 641.26 110.389 642.121 111.537C642.982 112.686 644.131 113.26 645.566 113.26Z" fill="white"/>
</g>
<g id="Group 168">
<path id="Ellipse 58_6" d="M284 35C284 51.5685 270.569 65 254 65C237.431 65 224 51.5685 224 35C224 18.4315 237.431 5 254 5C270.569 5 284 18.4315 284 35Z" fill="#1043F5"/>
<path id="4" d="M263.093 41.3564H266.805V45.3555H263.093V52H258.109V45.3555H245.21L245.066 42.3203L257.945 22.1406H263.093V41.3564ZM250.296 41.3564H258.109V28.8877L257.74 29.5439L250.296 41.3564Z" fill="white"/>
</g>
<g id="Group 169">
<path id="Ellipse 58_7" d="M358 35C358 51.5685 344.569 65 328 65C311.431 65 298 51.5685 298 35C298 18.4315 311.431 5 328 5C344.569 5 358 18.4315 358 35Z" fill="#1043F5"/>
<path id="5" d="M319.568 37.1934L321.188 22.1406H337.226V26.4473H325.331L324.511 33.584C325.892 32.791 327.45 32.3945 329.187 32.3945C332.03 32.3945 334.238 33.3037 335.811 35.1221C337.396 36.9404 338.189 39.3877 338.189 42.4639C338.189 45.499 337.314 47.9189 335.564 49.7236C333.814 51.5146 331.415 52.4102 328.366 52.4102C325.632 52.4102 323.362 51.6377 321.558 50.0928C319.767 48.5342 318.796 46.4834 318.646 43.9404H323.465C323.656 45.3896 324.176 46.5039 325.023 47.2832C325.871 48.0488 326.979 48.4316 328.346 48.4316C329.877 48.4316 331.066 47.8848 331.914 46.791C332.775 45.6973 333.206 44.207 333.206 42.3203C333.206 40.502 332.734 39.0664 331.791 38.0137C330.848 36.9473 329.549 36.4141 327.895 36.4141C326.992 36.4141 326.227 36.5371 325.598 36.7832C324.969 37.0156 324.285 37.4805 323.547 38.1777L319.568 37.1934Z" fill="white"/>
</g>
<g id="Group 170">
<path id="Ellipse 58_8" d="M509 35C509 51.5685 495.569 65 479 65C462.431 65 449 51.5685 449 35C449 18.4315 462.431 5 479 5C495.569 5 509 18.4315 509 35Z" fill="#1043F5"/>
<path id="7" d="M489.107 24.9092L477.172 52H471.942L483.857 26.1396H468.415V22.1406H489.107V24.9092Z" fill="white"/>
</g>
<g id="Group 171">
<path id="Ellipse 58_9" d="M582 35C582 51.5685 568.569 65 552 65C535.431 65 522 51.5685 522 35C522 18.4315 535.431 5 552 5C568.569 5 582 18.4315 582 35Z" fill="#1043F5"/>
<path id="8" d="M561.041 30.0156C561.041 31.4785 560.665 32.7842 559.913 33.9326C559.161 35.0674 558.136 35.9629 556.837 36.6191C558.396 37.3438 559.592 38.335 560.426 39.5928C561.273 40.8506 561.697 42.2725 561.697 43.8584C561.697 46.4834 560.809 48.5684 559.031 50.1133C557.254 51.6445 554.889 52.4102 551.936 52.4102C548.969 52.4102 546.59 51.6377 544.799 50.0928C543.021 48.5479 542.133 46.4697 542.133 43.8584C542.133 42.2588 542.557 40.8232 543.404 39.5518C544.252 38.2803 545.441 37.3027 546.973 36.6191C545.688 35.9629 544.669 35.0674 543.917 33.9326C543.179 32.7842 542.81 31.4785 542.81 30.0156C542.81 27.4727 543.63 25.4561 545.271 23.9658C546.911 22.4756 549.126 21.7305 551.915 21.7305C554.718 21.7305 556.939 22.4756 558.58 23.9658C560.221 25.4561 561.041 27.4727 561.041 30.0156ZM556.714 43.6123C556.714 42.1357 556.27 40.9463 555.381 40.0439C554.506 39.1279 553.344 38.6699 551.895 38.6699C550.445 38.6699 549.283 39.1211 548.408 40.0234C547.547 40.9258 547.116 42.1221 547.116 43.6123C547.116 45.0752 547.54 46.2441 548.388 47.1191C549.249 47.9941 550.432 48.4316 551.936 48.4316C553.439 48.4316 554.608 48.0078 555.442 47.1602C556.29 46.3125 556.714 45.1299 556.714 43.6123ZM556.078 30.2002C556.078 28.9014 555.702 27.835 554.95 27.001C554.198 26.1533 553.187 25.7295 551.915 25.7295C550.644 25.7295 549.639 26.1328 548.9 26.9395C548.162 27.7324 547.793 28.8193 547.793 30.2002C547.793 31.5674 548.162 32.6543 548.9 33.4609C549.652 34.2676 550.664 34.6709 551.936 34.6709C553.207 34.6709 554.212 34.2676 554.95 33.4609C555.702 32.6543 556.078 31.5674 556.078 30.2002Z" fill="white"/>
</g>
</g>
<g id="#Extraidos = 20 + 1 = 21">
<path d="M312.745 220.592H308.151L306.593 229H303.147L304.706 220.592H299.969V217.352H305.321L306.511 210.933H301.527V207.672H307.126L308.726 199.141H312.15L310.551 207.672H315.165L316.765 199.141H320.189L318.59 207.672H322.855V210.933H317.975L316.785 217.352H321.317V220.592H316.17L314.611 229H311.187L312.745 220.592ZM308.767 217.352H313.36L314.55 210.933H309.956L308.767 217.352Z" fill="white"/>
<path d="M344.122 215.67H331.858V224.857H346.193V229H326.67V199.141H346.05V203.324H331.858V211.568H344.122V215.67Z" fill="white"/>
<path d="M357.903 214.111L362.128 206.811H367.665L360.877 217.741L367.891 229H362.395L357.965 221.412L353.556 229H348.019L355.032 217.741L348.265 206.811H353.761L357.903 214.111Z" fill="white"/>
<path d="M377.304 201.417V206.811H381.221V210.502H377.304V222.889C377.304 223.736 377.468 224.352 377.796 224.734C378.138 225.104 378.739 225.288 379.601 225.288C380.175 225.288 380.756 225.22 381.344 225.083V228.938C380.209 229.253 379.115 229.41 378.062 229.41C374.234 229.41 372.32 227.298 372.32 223.073V210.502H368.67V206.811H372.32V201.417H377.304Z" fill="white"/>
<path d="M396.663 211.363C396.007 211.254 395.33 211.199 394.633 211.199C392.35 211.199 390.812 212.074 390.019 213.824V229H385.035V206.811H389.793L389.916 209.292C391.119 207.364 392.787 206.4 394.92 206.4C395.631 206.4 396.219 206.496 396.684 206.688L396.663 211.363Z" fill="white"/>
<path d="M412.454 229C412.235 228.576 412.044 227.886 411.88 226.929C410.294 228.583 408.353 229.41 406.056 229.41C403.827 229.41 402.009 228.774 400.601 227.503C399.192 226.231 398.488 224.659 398.488 222.786C398.488 220.421 399.363 218.609 401.113 217.352C402.877 216.08 405.393 215.444 408.66 215.444H411.716V213.988C411.716 212.84 411.395 211.924 410.752 211.24C410.109 210.543 409.132 210.194 407.819 210.194C406.685 210.194 405.755 210.481 405.03 211.056C404.306 211.616 403.943 212.334 403.943 213.209H398.96C398.96 211.992 399.363 210.857 400.17 209.805C400.977 208.738 402.07 207.904 403.451 207.303C404.846 206.701 406.397 206.4 408.106 206.4C410.704 206.4 412.775 207.057 414.32 208.369C415.865 209.668 416.658 211.5 416.699 213.865V223.873C416.699 225.869 416.979 227.462 417.54 228.651V229H412.454ZM406.979 225.411C407.963 225.411 408.886 225.172 409.747 224.693C410.622 224.215 411.278 223.572 411.716 222.766V218.582H409.029C407.184 218.582 405.796 218.903 404.866 219.546C403.937 220.188 403.472 221.098 403.472 222.273C403.472 223.23 403.786 223.996 404.415 224.57C405.058 225.131 405.912 225.411 406.979 225.411Z" fill="white"/>
<path d="M427.22 229H422.236V206.811H427.22V229ZM421.929 201.048C421.929 200.282 422.168 199.646 422.646 199.141C423.139 198.635 423.836 198.382 424.738 198.382C425.641 198.382 426.338 198.635 426.83 199.141C427.322 199.646 427.568 200.282 427.568 201.048C427.568 201.8 427.322 202.429 426.83 202.935C426.338 203.427 425.641 203.673 424.738 203.673C423.836 203.673 423.139 203.427 422.646 202.935C422.168 202.429 421.929 201.8 421.929 201.048Z" fill="white"/>
<path d="M431.731 217.741C431.731 214.323 432.524 211.582 434.11 209.518C435.696 207.439 437.822 206.4 440.488 206.4C442.84 206.4 444.74 207.221 446.189 208.861V197.5H451.173V229H446.661L446.415 226.703C444.925 228.508 442.936 229.41 440.447 229.41C437.85 229.41 435.744 228.364 434.131 226.272C432.531 224.181 431.731 221.337 431.731 217.741ZM436.715 218.172C436.715 220.428 437.146 222.191 438.007 223.463C438.882 224.721 440.119 225.35 441.719 225.35C443.756 225.35 445.246 224.44 446.189 222.622V213.147C445.273 211.37 443.797 210.481 441.76 210.481C440.146 210.481 438.902 211.124 438.027 212.409C437.152 213.681 436.715 215.602 436.715 218.172Z" fill="white"/>
<path d="M455.438 217.7C455.438 215.526 455.869 213.571 456.73 211.835C457.592 210.085 458.802 208.745 460.36 207.815C461.919 206.872 463.71 206.4 465.733 206.4C468.728 206.4 471.154 207.364 473.014 209.292C474.887 211.22 475.898 213.776 476.049 216.962L476.069 218.131C476.069 220.318 475.646 222.273 474.798 223.996C473.964 225.719 472.761 227.052 471.188 227.995C469.63 228.938 467.825 229.41 465.774 229.41C462.644 229.41 460.135 228.371 458.248 226.293C456.375 224.201 455.438 221.419 455.438 217.946V217.7ZM460.422 218.131C460.422 220.414 460.894 222.205 461.837 223.504C462.78 224.789 464.093 225.432 465.774 225.432C467.456 225.432 468.762 224.775 469.691 223.463C470.635 222.15 471.106 220.229 471.106 217.7C471.106 215.458 470.621 213.681 469.65 212.368C468.693 211.056 467.388 210.399 465.733 210.399C464.106 210.399 462.814 211.049 461.857 212.348C460.9 213.633 460.422 215.561 460.422 218.131Z" fill="white"/>
<path d="M492.722 222.971C492.722 222.082 492.353 221.405 491.614 220.94C490.89 220.476 489.68 220.065 487.984 219.71C486.289 219.354 484.874 218.903 483.739 218.356C481.251 217.153 480.007 215.41 480.007 213.127C480.007 211.213 480.813 209.613 482.427 208.328C484.04 207.043 486.091 206.4 488.579 206.4C491.231 206.4 493.371 207.057 494.998 208.369C496.639 209.682 497.459 211.384 497.459 213.476H492.476C492.476 212.519 492.12 211.726 491.409 211.097C490.698 210.454 489.755 210.133 488.579 210.133C487.485 210.133 486.59 210.386 485.893 210.892C485.209 211.397 484.867 212.074 484.867 212.922C484.867 213.688 485.188 214.282 485.831 214.706C486.474 215.13 487.772 215.561 489.728 215.998C491.683 216.422 493.214 216.935 494.321 217.536C495.442 218.124 496.27 218.835 496.803 219.669C497.35 220.503 497.623 221.515 497.623 222.704C497.623 224.7 496.796 226.32 495.142 227.564C493.487 228.795 491.32 229.41 488.641 229.41C486.822 229.41 485.202 229.082 483.78 228.426C482.358 227.77 481.251 226.867 480.458 225.719C479.665 224.57 479.269 223.333 479.269 222.007H484.108C484.177 223.183 484.621 224.092 485.441 224.734C486.262 225.363 487.349 225.678 488.702 225.678C490.015 225.678 491.013 225.432 491.696 224.939C492.38 224.434 492.722 223.777 492.722 222.971Z" fill="white"/>
<path d="M530.538 213.004H512.86V208.861H530.538V213.004ZM530.538 221.699H512.86V217.577H530.538V221.699Z" fill="white"/>
<path d="M566.16 229H546.083V225.575L556.029 214.727C557.465 213.127 558.483 211.794 559.085 210.728C559.7 209.647 560.008 208.567 560.008 207.487C560.008 206.065 559.604 204.917 558.798 204.042C558.005 203.167 556.932 202.729 555.578 202.729C553.965 202.729 552.714 203.222 551.825 204.206C550.937 205.19 550.492 206.537 550.492 208.246H545.509C545.509 206.428 545.919 204.794 546.739 203.345C547.573 201.882 548.756 200.747 550.287 199.94C551.832 199.134 553.609 198.73 555.619 198.73C558.518 198.73 560.801 199.462 562.469 200.925C564.15 202.374 564.991 204.384 564.991 206.954C564.991 208.444 564.567 210.01 563.72 211.65C562.886 213.277 561.512 215.13 559.598 217.208L552.297 225.021H566.16V229Z" fill="white"/>
<path d="M589.416 216.429C589.416 220.722 588.609 223.962 586.996 226.149C585.396 228.323 582.956 229.41 579.675 229.41C576.448 229.41 574.015 228.351 572.374 226.231C570.747 224.099 569.913 220.947 569.872 216.777V211.609C569.872 207.316 570.672 204.097 572.271 201.95C573.885 199.804 576.339 198.73 579.634 198.73C582.901 198.73 585.335 199.776 586.935 201.868C588.548 203.96 589.375 207.091 589.416 211.261V216.429ZM584.433 210.851C584.433 208.048 584.05 205.997 583.284 204.698C582.519 203.386 581.302 202.729 579.634 202.729C578.007 202.729 576.811 203.352 576.045 204.596C575.279 205.826 574.876 207.754 574.835 210.379V217.146C574.835 219.936 575.225 222.014 576.004 223.381C576.783 224.748 578.007 225.432 579.675 225.432C581.274 225.432 582.457 224.803 583.223 223.545C583.988 222.273 584.392 220.291 584.433 217.598V210.851Z" fill="white"/>
<path d="M616.117 212.573H623.91V217.126H616.117V226.006H611.277V217.126H603.443V212.573H611.277V204.268H616.117V212.573Z" fill="white"/>
<path d="M651.657 229H646.694V205.026L639.373 207.528V203.324L651.021 199.038H651.657V229Z" fill="white"/>
<path d="M690.909 213.004H673.231V208.861H690.909V213.004ZM690.909 221.699H673.231V217.577H690.909V221.699Z" fill="white"/>
<path d="M726.531 229H706.454V225.575L716.4 214.727C717.836 213.127 718.854 211.794 719.456 210.728C720.071 209.647 720.379 208.567 720.379 207.487C720.379 206.065 719.976 204.917 719.169 204.042C718.376 203.167 717.303 202.729 715.949 202.729C714.336 202.729 713.085 203.222 712.196 204.206C711.308 205.19 710.863 206.537 710.863 208.246H705.88C705.88 206.428 706.29 204.794 707.11 203.345C707.944 201.882 709.127 200.747 710.658 199.94C712.203 199.134 713.98 198.73 715.99 198.73C718.889 198.73 721.172 199.462 722.84 200.925C724.521 202.374 725.362 204.384 725.362 206.954C725.362 208.444 724.938 210.01 724.091 211.65C723.257 213.277 721.883 215.13 719.969 217.208L712.668 225.021H726.531V229Z" fill="white"/>
<path d="M743.819 229H738.856V205.026L731.535 207.528V203.324L743.184 199.038H743.819V229Z" fill="white"/>
</g>
</g>
</svg>
