<svg viewBox="0 0 1080 150" fill="none" xmlns="http://www.w3.org/2000/svg">
<g id="01290021">
<g id="Frame 1">
<g id="Parentesco familiar">
<path d="M205.092 56.376C209.615 56.376 213.092 57.3573 215.524 59.32C217.999 61.2827 219.236 63.8853 219.236 67.128C219.236 68.408 219.044 69.752 218.66 71.16C217.466 75.4267 215.098 78.584 211.556 80.632C208.058 82.68 203.62 83.704 198.244 83.704H191.652L189.476 91.448C189.391 91.704 189.348 92.0453 189.348 92.472C189.348 93.0693 189.476 93.56 189.732 93.944C190.031 94.328 190.458 94.776 191.012 95.288C191.482 95.7147 191.802 96.0347 191.972 96.248C192.143 96.4613 192.228 96.7173 192.228 97.016C192.228 97.7413 191.887 98.2533 191.204 98.552C190.522 98.8507 189.519 99 188.196 99H172.132C171.023 99 170.191 98.808 169.636 98.424C169.082 97.9973 168.89 97.4213 169.06 96.696C169.146 96.312 169.316 96.0133 169.572 95.8C169.786 95.544 170.127 95.2667 170.596 94.968C171.322 94.5413 171.898 94.0933 172.324 93.624C172.751 93.1547 173.092 92.4293 173.348 91.448L181.156 63.864C181.327 63.3093 181.412 62.776 181.412 62.264C181.412 61.7947 181.327 61.4107 181.156 61.112C181.028 60.7707 180.836 60.3867 180.58 59.96C180.196 59.4053 180.004 58.9573 180.004 58.616C180.004 58.488 180.047 58.2533 180.132 57.912C180.303 57.3573 180.666 56.9733 181.22 56.76C181.818 56.504 182.714 56.376 183.908 56.376H205.092ZM203.428 70.008C203.898 68.4293 204.132 67.0427 204.132 65.848C204.132 63.3733 202.98 62.136 200.676 62.136H197.796L193.252 77.944H196.068C197.86 77.944 199.311 77.3893 200.42 76.28C201.572 75.128 202.575 73.0373 203.428 70.008Z" fill="#F3C72C"/>
<path d="M240.332 65.144C245.238 65.144 249.164 66.0613 252.108 67.896C255.052 69.688 256.524 72.44 256.524 76.152C256.524 77.56 256.268 79.16 255.756 80.952L253.132 89.784C253.089 89.9547 253.068 90.168 253.068 90.424C253.068 91.1067 253.345 91.448 253.9 91.448C254.412 91.448 254.838 91.2347 255.18 90.808C255.564 90.3387 255.82 90.104 255.948 90.104C256.161 90.104 256.332 90.2533 256.46 90.552C256.63 90.8507 256.716 91.192 256.716 91.576C256.758 92.728 256.31 93.9013 255.372 95.096C254.476 96.2907 253.26 97.272 251.724 98.04C250.188 98.808 248.502 99.192 246.668 99.192C244.449 99.192 242.55 98.7867 240.972 97.976C239.393 97.1653 238.305 95.9707 237.708 94.392C236.428 95.928 234.913 97.1227 233.164 97.976C231.414 98.7867 229.537 99.192 227.532 99.192C225.27 99.192 223.372 98.7653 221.836 97.912C220.3 97.016 219.148 95.8853 218.38 94.52C217.654 93.112 217.292 91.64 217.292 90.104C217.292 89.4213 217.356 88.76 217.484 88.12C218.166 85.176 219.638 82.9573 221.9 81.464C224.204 79.9707 226.934 79.224 230.092 79.224C233.633 79.224 237.11 79.7787 240.524 80.888L242.124 76.664C242.678 74.872 242.956 73.4853 242.956 72.504C242.913 71.48 242.572 70.712 241.932 70.2C241.292 69.688 240.31 69.432 238.988 69.432C239.244 70.1147 239.372 70.8187 239.372 71.544C239.372 73.1227 238.774 74.488 237.58 75.64C236.385 76.792 234.678 77.368 232.46 77.368C230.369 77.368 228.726 76.92 227.532 76.024C226.38 75.0853 225.804 73.9333 225.804 72.568C225.804 70.4347 226.998 68.664 229.388 67.256C231.777 65.848 235.425 65.144 240.332 65.144ZM236.748 84.536C235.553 84.536 234.572 85.0053 233.804 85.944C233.078 86.84 232.716 87.8213 232.716 88.888C232.716 89.5707 232.865 90.1253 233.164 90.552C233.505 90.9787 233.974 91.192 234.572 91.192C235.126 91.192 235.724 90.9787 236.364 90.552C237.046 90.0827 237.537 89.4 237.836 88.504L239.18 84.728C238.454 84.6 237.644 84.536 236.748 84.536Z" fill="#F3C72C"/>
<path d="M293.983 65.144C296.372 65.144 298.271 65.8693 299.679 67.32C301.129 68.7707 301.855 70.5627 301.855 72.696C301.855 73.5067 301.769 74.2533 301.599 74.936C301.172 76.6853 300.361 78.0293 299.167 78.968C297.972 79.9067 296.543 80.376 294.879 80.376C293.257 80.376 292.02 79.992 291.167 79.224C290.356 78.456 289.631 77.432 288.991 76.152C288.649 75.4267 288.329 74.8933 288.031 74.552C287.732 74.2107 287.391 74.04 287.007 74.04C286.58 74.04 286.196 74.2107 285.855 74.552C285.556 74.8933 285.279 75.4907 285.023 76.344L280.095 92.344C280.009 92.5573 279.967 92.8773 279.967 93.304C279.967 93.8587 280.116 94.328 280.415 94.712C280.756 95.0533 281.204 95.3947 281.759 95.736C282.271 96.0773 282.612 96.3547 282.783 96.568C282.953 96.7813 283.017 97.0587 282.975 97.4C282.889 97.9547 282.569 98.36 282.015 98.616C281.503 98.872 280.607 99 279.327 99H262.943C261.833 99 261.044 98.8293 260.575 98.488C260.063 98.104 259.871 97.6133 259.999 97.016C260.169 96.504 260.617 96.056 261.343 95.672C261.983 95.3307 262.516 94.9253 262.943 94.456C263.369 93.9867 263.732 93.24 264.031 92.216L269.727 73.72C269.812 73.5067 269.855 73.208 269.855 72.824C269.855 72.3547 269.748 71.992 269.535 71.736C269.364 71.48 269.065 71.16 268.639 70.776C268.212 70.4347 267.913 70.136 267.743 69.88C267.572 69.624 267.551 69.2827 267.679 68.856C267.935 67.8747 269.279 67.0213 271.711 66.296C274.143 65.528 276.681 65.144 279.327 65.144C281.076 65.144 282.527 65.5493 283.679 66.36C284.831 67.128 285.577 68.2373 285.919 69.688C287.967 66.6587 290.655 65.144 293.983 65.144Z" fill="#F3C72C"/>
<path d="M324.517 64.824C329.936 64.824 333.861 65.6987 336.293 67.448C338.725 69.1547 339.941 71.352 339.941 74.04C339.941 74.8507 339.856 75.5973 339.685 76.28C339.045 79.096 337.253 81.1227 334.309 82.36C331.408 83.5547 327.973 84.152 324.005 84.152C322 84.152 320.123 84.024 318.373 83.768C318.331 85.9867 318.928 87.544 320.165 88.44C321.403 89.336 323.131 89.784 325.349 89.784C326.373 89.784 327.355 89.6773 328.293 89.464C329.232 89.208 330.427 88.8453 331.877 88.376C333.072 87.9493 333.883 87.736 334.309 87.736C334.779 87.736 335.013 88.0133 335.013 88.568C335.056 90.0613 334.501 91.64 333.349 93.304C332.197 94.9253 330.491 96.312 328.229 97.464C325.968 98.616 323.237 99.192 320.037 99.192C315.301 99.192 311.419 97.9973 308.389 95.608C305.36 93.2187 303.845 89.7413 303.845 85.176C303.845 83.896 304.016 82.4027 304.357 80.696C305.424 75.448 307.749 71.5013 311.333 68.856C314.96 66.168 319.355 64.824 324.517 64.824ZM318.821 79.928C318.992 79.9707 319.227 79.992 319.525 79.992C321.317 79.992 322.683 79.16 323.621 77.496C324.56 75.832 325.008 73.976 324.965 71.928C324.923 70.7333 324.581 70.136 323.941 70.136C323.472 70.136 322.917 70.52 322.277 71.288C321.637 72.0133 320.997 73.1227 320.357 74.616C319.76 76.1093 319.248 77.88 318.821 79.928Z" fill="#F3C72C"/>
<path d="M381.45 90.168C381.364 90.3387 381.322 90.5947 381.322 90.936C381.322 91.2347 381.386 91.4693 381.514 91.64C381.684 91.8107 381.898 91.896 382.154 91.896C382.666 91.896 383.092 91.6827 383.434 91.256C383.818 90.7867 384.074 90.552 384.202 90.552C384.415 90.552 384.586 90.7013 384.714 91C384.842 91.256 384.906 91.576 384.906 91.96C384.948 93.1973 384.543 94.4133 383.69 95.608C382.836 96.76 381.578 97.72 379.914 98.488C378.292 99.2133 376.33 99.576 374.026 99.576C371.21 99.576 368.97 98.936 367.306 97.656C365.642 96.3333 364.788 94.584 364.746 92.408C364.746 90.8293 365.13 89.0587 365.898 87.096L369.418 77.88C369.631 77.3253 369.738 76.8773 369.738 76.536C369.738 75.9813 369.546 75.5547 369.162 75.256C368.82 74.9147 368.394 74.744 367.882 74.744C366.943 74.744 366.047 75.192 365.194 76.088C364.34 76.9413 363.722 78.008 363.338 79.288L359.37 92.344C359.199 92.8133 359.114 93.2613 359.114 93.688C359.114 94.2 359.22 94.6267 359.434 94.968C359.647 95.2667 359.946 95.5867 360.33 95.928C360.628 96.184 360.842 96.4187 360.97 96.632C361.098 96.8453 361.119 97.1013 361.034 97.4C360.863 97.9547 360.458 98.36 359.818 98.616C359.178 98.872 358.175 99 356.81 99H342.218C341.108 99 340.319 98.8293 339.85 98.488C339.338 98.104 339.146 97.6133 339.274 97.016C339.444 96.504 339.892 96.056 340.618 95.672C341.258 95.3307 341.791 94.9253 342.218 94.456C342.644 93.9867 343.007 93.24 343.306 92.216L349.002 73.72C349.087 73.5067 349.13 73.208 349.13 72.824C349.13 72.3547 349.023 71.992 348.81 71.736C348.639 71.48 348.34 71.16 347.914 70.776C347.487 70.4347 347.188 70.136 347.018 69.88C346.847 69.624 346.826 69.2827 346.954 68.856C347.21 67.8747 348.554 67.0213 350.986 66.296C353.418 65.528 355.956 65.144 358.602 65.144C360.735 65.144 362.42 65.7413 363.658 66.936C364.895 68.088 365.45 69.7093 365.322 71.8C367.071 69.2827 368.927 67.5547 370.89 66.616C372.852 65.6347 374.986 65.144 377.29 65.144C379.892 65.144 381.983 65.9333 383.562 67.512C385.183 69.0907 385.994 71.1387 385.994 73.656C385.994 74.9787 385.78 76.28 385.354 77.56L381.45 90.168Z" fill="#F3C72C"/>
<path d="M419.454 65.976C420.265 65.976 420.884 66.1467 421.31 66.488C421.78 66.8293 422.014 67.2987 422.014 67.896C422.014 68.0667 421.972 68.3653 421.886 68.792C421.332 70.6693 420.052 71.608 418.046 71.608H414.334L409.534 87.416C409.321 88.056 409.214 88.7173 409.214 89.4C409.214 90.168 409.428 90.7013 409.854 91C410.281 91.2987 410.878 91.448 411.646 91.448C412.329 91.448 413.182 91.3627 414.206 91.192C414.718 91.064 415.166 91 415.55 91C415.849 91 416.062 91.1067 416.19 91.32C416.361 91.4907 416.446 91.7253 416.446 92.024C416.489 92.8773 415.849 93.9227 414.526 95.16C413.246 96.3547 411.497 97.4 409.278 98.296C407.06 99.1493 404.606 99.576 401.918 99.576C399.017 99.576 396.692 98.9147 394.942 97.592C393.193 96.2693 392.318 94.456 392.318 92.152C392.318 91.0853 392.489 90.0613 392.83 89.08L396.926 76.408C397.14 75.6827 397.246 75.1067 397.246 74.68C397.246 73.8267 397.033 73.1013 396.606 72.504C396.222 71.9067 395.668 71.288 394.942 70.648C394.302 70.0507 393.854 69.56 393.598 69.176C393.342 68.7493 393.278 68.2587 393.406 67.704C393.577 67.1493 393.94 66.7227 394.494 66.424C395.049 66.1253 395.924 65.976 397.118 65.976H400.702L404.734 61.944C406.142 60.536 407.422 59.5547 408.574 59C409.769 58.4453 411.305 58.168 413.182 58.168C415.87 58.168 417.214 59.192 417.214 61.24C417.214 61.88 417.129 62.4773 416.958 63.032L416.062 65.976H419.454Z" fill="#F3C72C"/>
<path d="M443.242 64.824C448.661 64.824 452.586 65.6987 455.018 67.448C457.45 69.1547 458.666 71.352 458.666 74.04C458.666 74.8507 458.581 75.5973 458.41 76.28C457.77 79.096 455.978 81.1227 453.034 82.36C450.133 83.5547 446.698 84.152 442.73 84.152C440.725 84.152 438.848 84.024 437.098 83.768C437.056 85.9867 437.653 87.544 438.89 88.44C440.128 89.336 441.856 89.784 444.074 89.784C445.098 89.784 446.08 89.6773 447.018 89.464C447.957 89.208 449.152 88.8453 450.602 88.376C451.797 87.9493 452.608 87.736 453.034 87.736C453.504 87.736 453.738 88.0133 453.738 88.568C453.781 90.0613 453.226 91.64 452.074 93.304C450.922 94.9253 449.216 96.312 446.954 97.464C444.693 98.616 441.962 99.192 438.762 99.192C434.026 99.192 430.144 97.9973 427.114 95.608C424.085 93.2187 422.57 89.7413 422.57 85.176C422.57 83.896 422.741 82.4027 423.082 80.696C424.149 75.448 426.474 71.5013 430.058 68.856C433.685 66.168 438.08 64.824 443.242 64.824ZM437.546 79.928C437.717 79.9707 437.952 79.992 438.25 79.992C440.042 79.992 441.408 79.16 442.346 77.496C443.285 75.832 443.733 73.976 443.69 71.928C443.648 70.7333 443.306 70.136 442.666 70.136C442.197 70.136 441.642 70.52 441.002 71.288C440.362 72.0133 439.722 73.1227 439.082 74.616C438.485 76.1093 437.973 77.88 437.546 79.928Z" fill="#F3C72C"/>
<path d="M481.615 64.568C485.156 64.568 488.207 64.888 490.767 65.528C493.369 66.168 495.353 67.064 496.719 68.216C498.127 69.368 498.831 70.6693 498.831 72.12C498.831 73.6133 498.233 74.8293 497.039 75.768C495.887 76.7067 494.265 77.176 492.175 77.176C490.041 77.176 488.228 76.6427 486.735 75.576C485.284 74.5093 484.559 73.1653 484.559 71.544C484.559 70.9893 484.644 70.456 484.815 69.944C484.047 69.7307 483.364 69.624 482.767 69.624C481.7 69.624 480.804 69.88 480.079 70.392C479.396 70.904 479.076 71.6293 479.119 72.568C479.119 73.6773 479.673 74.616 480.783 75.384C481.892 76.152 483.684 77.112 486.159 78.264C488.292 79.2027 490.041 80.0773 491.407 80.888C492.815 81.656 493.988 82.6373 494.927 83.832C495.908 85.0267 496.399 86.4347 496.399 88.056C496.399 88.3973 496.313 89.0373 496.143 89.976C495.46 92.8347 493.561 95.096 490.447 96.76C487.332 98.424 483.236 99.256 478.159 99.256C472.441 99.256 467.897 98.488 464.527 96.952C461.199 95.416 459.535 93.304 459.535 90.616C459.535 88.7813 460.089 87.3947 461.199 86.456C462.308 85.5173 463.78 85.048 465.615 85.048C467.748 85.048 469.561 85.7093 471.055 87.032C472.591 88.3547 473.359 90.04 473.359 92.088C473.359 92.6427 473.295 93.2187 473.167 93.816C474.191 94.072 475.172 94.2 476.111 94.2C477.22 94.2 478.137 93.9013 478.863 93.304C479.588 92.7067 479.951 91.8747 479.951 90.808C479.908 89.8267 479.417 88.9947 478.479 88.312C477.54 87.5867 476.047 86.7333 473.999 85.752C472.079 84.856 470.5 84.024 469.263 83.256C468.025 82.4453 466.959 81.4427 466.063 80.248C465.209 79.0533 464.783 77.6453 464.783 76.024C464.783 72.5253 466.233 69.752 469.135 67.704C472.079 65.6133 476.239 64.568 481.615 64.568Z" fill="#F3C72C"/>
<path d="M524.928 64.824C527.531 64.824 529.814 65.208 531.776 65.976C533.739 66.7013 535.254 67.7253 536.32 69.048C537.43 70.328 537.984 71.7573 537.984 73.336C537.984 75.0427 537.387 76.4507 536.192 77.56C535.04 78.6693 533.462 79.224 531.456 79.224C529.408 79.224 527.808 78.712 526.656 77.688C525.504 76.6213 524.928 75.192 524.928 73.4C524.928 72.5467 525.056 71.6507 525.312 70.712C523.52 71.1813 521.92 72.12 520.512 73.528C519.147 74.8933 518.23 76.7067 517.76 78.968C517.504 80.248 517.376 81.4 517.376 82.424C517.376 84.728 518.016 86.4773 519.296 87.672C520.576 88.8667 522.411 89.464 524.8 89.464C526.166 89.464 527.339 89.336 528.32 89.08C529.302 88.7813 530.304 88.3973 531.328 87.928C532.182 87.5013 532.8 87.288 533.184 87.288C533.44 87.288 533.611 87.352 533.696 87.48C533.782 87.5653 533.824 87.7787 533.824 88.12C533.867 89.6987 533.206 91.3627 531.84 93.112C530.518 94.8187 528.662 96.2693 526.272 97.464C523.926 98.616 521.28 99.192 518.336 99.192C515.264 99.192 512.534 98.6373 510.144 97.528C507.798 96.376 505.963 94.7547 504.64 92.664C503.36 90.5307 502.72 88.056 502.72 85.24C502.72 83.9173 502.891 82.4453 503.232 80.824C504.384 75.5333 506.923 71.544 510.848 68.856C514.816 66.168 519.51 64.824 524.928 64.824Z" fill="#F3C72C"/>
<path d="M564.352 65.144C570.154 65.144 574.421 66.3173 577.152 68.664C579.925 71.0107 581.312 74.0827 581.312 77.88C581.312 79.16 581.141 80.5893 580.8 82.168C579.989 85.6667 578.474 88.7387 576.256 91.384C574.037 93.9867 571.306 96.0133 568.064 97.464C564.864 98.872 561.386 99.576 557.632 99.576C551.701 99.576 547.306 98.4027 544.448 96.056C541.632 93.6667 540.224 90.5093 540.224 86.584C540.224 85.2613 540.394 83.7893 540.736 82.168C541.546 78.84 543.082 75.896 545.344 73.336C547.648 70.7333 550.442 68.728 553.728 67.32C557.056 65.8693 560.597 65.144 564.352 65.144ZM564.16 70.84C563.264 70.84 562.304 71.6507 561.28 73.272C560.298 74.8507 559.125 77.8587 557.76 82.296C556.394 86.7333 555.712 89.848 555.712 91.64C555.712 92.5787 555.861 93.2187 556.16 93.56C556.458 93.8587 556.864 94.008 557.376 94.008C558.272 94.0933 559.189 93.3253 560.128 91.704C561.109 90.0827 562.325 86.9253 563.776 82.232C565.098 78.0933 565.76 75.0853 565.76 73.208C565.76 72.312 565.61 71.6933 565.312 71.352C565.056 71.0107 564.672 70.84 564.16 70.84Z" fill="#F3C72C"/>
<path d="M626.908 51.704C631.474 51.704 634.887 52.408 637.148 53.816C639.452 55.1813 640.604 56.8667 640.604 58.872C640.604 60.4933 639.922 61.752 638.556 62.648C637.234 63.5013 635.484 63.928 633.308 63.928C631.303 63.928 629.746 63.4373 628.636 62.456C627.527 61.4747 626.972 60.2587 626.972 58.808C626.972 57.912 627.25 56.9733 627.804 55.992C626.524 55.992 625.458 56.312 624.604 56.952C623.751 57.5493 623.09 58.5947 622.62 60.088C622.364 61.0267 622.236 61.9013 622.236 62.712C622.236 63.736 622.407 64.5467 622.748 65.144C623.132 65.6987 623.666 65.976 624.348 65.976H628.124C630.343 65.976 631.452 66.6587 631.452 68.024C631.452 68.1947 631.41 68.4507 631.324 68.792C631.068 69.7307 630.535 70.4347 629.724 70.904C628.956 71.3733 627.783 71.608 626.204 71.608H624.284L617.948 92.344C617.82 92.856 617.756 93.304 617.756 93.688C617.756 94.2427 617.863 94.6907 618.076 95.032C618.29 95.3307 618.588 95.6293 618.972 95.928C619.271 96.2267 619.484 96.4827 619.612 96.696C619.74 96.8667 619.762 97.1013 619.676 97.4C619.463 97.9547 619.036 98.36 618.396 98.616C617.756 98.872 616.775 99 615.452 99H600.86C599.751 99 598.94 98.8293 598.428 98.488C597.916 98.104 597.746 97.6133 597.916 97.016C598.087 96.504 598.535 96.056 599.26 95.672C599.9 95.3307 600.434 94.9253 600.86 94.456C601.287 93.9867 601.65 93.24 601.948 92.216L606.94 75.832C607.154 75.192 607.26 74.5307 607.26 73.848C607.26 72.9947 607.068 72.3333 606.684 71.864C606.343 71.352 605.81 70.7973 605.084 70.2C604.615 69.816 604.252 69.496 603.996 69.24C603.783 68.9413 603.676 68.6 603.676 68.216C603.634 67.4053 603.911 66.8293 604.508 66.488C605.148 66.1467 606.343 65.976 608.092 65.976H609.692C609.394 64.9093 609.244 63.8427 609.244 62.776C609.244 61.7093 609.436 60.6 609.82 59.448C610.631 57.272 612.359 55.4373 615.004 53.944C617.692 52.4507 621.66 51.704 626.908 51.704Z" fill="#F3C72C"/>
<path d="M653.469 65.144C658.376 65.144 662.301 66.0613 665.245 67.896C668.189 69.688 669.661 72.44 669.661 76.152C669.661 77.56 669.405 79.16 668.893 80.952L666.269 89.784C666.227 89.9547 666.205 90.168 666.205 90.424C666.205 91.1067 666.483 91.448 667.037 91.448C667.549 91.448 667.976 91.2347 668.317 90.808C668.701 90.3387 668.957 90.104 669.085 90.104C669.299 90.104 669.469 90.2533 669.597 90.552C669.768 90.8507 669.853 91.192 669.853 91.576C669.896 92.728 669.448 93.9013 668.509 95.096C667.613 96.2907 666.397 97.272 664.861 98.04C663.325 98.808 661.64 99.192 659.805 99.192C657.587 99.192 655.688 98.7867 654.109 97.976C652.531 97.1653 651.443 95.9707 650.845 94.392C649.565 95.928 648.051 97.1227 646.301 97.976C644.552 98.7867 642.675 99.192 640.669 99.192C638.408 99.192 636.509 98.7653 634.973 97.912C633.437 97.016 632.285 95.8853 631.517 94.52C630.792 93.112 630.429 91.64 630.429 90.104C630.429 89.4213 630.493 88.76 630.621 88.12C631.304 85.176 632.776 82.9573 635.037 81.464C637.341 79.9707 640.072 79.224 643.229 79.224C646.771 79.224 650.248 79.7787 653.661 80.888L655.261 76.664C655.816 74.872 656.093 73.4853 656.093 72.504C656.051 71.48 655.709 70.712 655.069 70.2C654.429 69.688 653.448 69.432 652.125 69.432C652.381 70.1147 652.509 70.8187 652.509 71.544C652.509 73.1227 651.912 74.488 650.717 75.64C649.523 76.792 647.816 77.368 645.597 77.368C643.507 77.368 641.864 76.92 640.669 76.024C639.517 75.0853 638.941 73.9333 638.941 72.568C638.941 70.4347 640.136 68.664 642.525 67.256C644.915 65.848 648.563 65.144 653.469 65.144ZM649.885 84.536C648.691 84.536 647.709 85.0053 646.941 85.944C646.216 86.84 645.853 87.8213 645.853 88.888C645.853 89.5707 646.003 90.1253 646.301 90.552C646.643 90.9787 647.112 91.192 647.709 91.192C648.264 91.192 648.861 90.9787 649.501 90.552C650.184 90.0827 650.675 89.4 650.973 88.504L652.317 84.728C651.592 84.6 650.781 84.536 649.885 84.536Z" fill="#F3C72C"/>
<path d="M736.56 90.168C736.475 90.3387 736.432 90.5947 736.432 90.936C736.432 91.2347 736.496 91.4693 736.624 91.64C736.795 91.8107 737.008 91.896 737.264 91.896C737.776 91.896 738.203 91.6827 738.544 91.256C738.928 90.7867 739.184 90.552 739.312 90.552C739.526 90.552 739.696 90.7013 739.824 91C739.952 91.256 740.016 91.576 740.016 91.96C740.059 93.1973 739.654 94.4133 738.8 95.608C737.947 96.76 736.688 97.72 735.024 98.488C733.403 99.2133 731.44 99.576 729.136 99.576C726.32 99.576 724.08 98.936 722.416 97.656C720.752 96.3333 719.899 94.584 719.856 92.408C719.856 90.8293 720.24 89.0587 721.008 87.096L724.528 77.88C724.742 77.3253 724.848 76.8773 724.848 76.536C724.848 75.9813 724.656 75.5547 724.272 75.256C723.931 74.9147 723.504 74.744 722.992 74.744C722.267 74.744 721.52 75.064 720.752 75.704C719.984 76.344 719.302 77.3467 718.704 78.712L715.184 90.168C715.099 90.3387 715.056 90.5947 715.056 90.936C715.056 91.2347 715.12 91.4693 715.248 91.64C715.419 91.8107 715.632 91.896 715.888 91.896C716.4 91.896 716.827 91.6827 717.168 91.256C717.552 90.7867 717.808 90.552 717.936 90.552C718.15 90.552 718.32 90.7013 718.448 91C718.576 91.256 718.64 91.576 718.64 91.96C718.683 93.1973 718.278 94.4133 717.424 95.608C716.571 96.76 715.312 97.72 713.648 98.488C712.027 99.2133 710.064 99.576 707.76 99.576C704.944 99.576 702.704 98.936 701.04 97.656C699.376 96.3333 698.523 94.584 698.48 92.408C698.48 90.8293 698.864 89.0587 699.632 87.096L703.152 77.88C703.366 77.3253 703.472 76.8773 703.472 76.536C703.472 75.9813 703.28 75.5547 702.896 75.256C702.555 74.9147 702.128 74.744 701.616 74.744C700.891 74.744 700.144 75.064 699.376 75.704C698.608 76.3013 697.968 77.2827 697.456 78.648L693.232 92.344C693.062 92.8133 692.976 93.2613 692.976 93.688C692.976 94.2 693.083 94.6267 693.296 94.968C693.51 95.2667 693.808 95.5867 694.192 95.928C694.491 96.184 694.704 96.4187 694.832 96.632C694.96 96.8453 694.982 97.1013 694.896 97.4C694.726 97.9547 694.32 98.36 693.68 98.616C693.04 98.872 692.038 99 690.672 99H676.08C674.971 99 674.182 98.8293 673.712 98.488C673.2 98.104 673.008 97.6133 673.136 97.016C673.307 96.504 673.755 96.056 674.48 95.672C675.12 95.3307 675.654 94.9253 676.08 94.456C676.507 93.9867 676.87 93.24 677.168 92.216L682.864 73.72C682.95 73.5067 682.992 73.208 682.992 72.824C682.992 72.3547 682.886 71.992 682.672 71.736C682.502 71.48 682.203 71.16 681.776 70.776C681.35 70.4347 681.051 70.136 680.88 69.88C680.71 69.624 680.688 69.2827 680.816 68.856C681.072 67.8747 682.416 67.0213 684.848 66.296C687.28 65.528 689.819 65.144 692.464 65.144C694.555 65.144 696.198 65.72 697.392 66.872C698.63 68.024 699.227 69.6027 699.184 71.608C700.934 69.176 702.768 67.4907 704.688 66.552C706.651 65.6133 708.763 65.144 711.024 65.144C713.499 65.144 715.504 65.8693 717.04 67.32C718.619 68.728 719.494 70.584 719.664 72.888C721.499 69.9867 723.462 67.9813 725.552 66.872C727.643 65.72 729.926 65.144 732.4 65.144C735.003 65.144 737.094 65.9333 738.672 67.512C740.294 69.0907 741.104 71.1387 741.104 73.656C741.104 74.9787 740.891 76.28 740.464 77.56L736.56 90.168Z" fill="#F3C72C"/>
<path d="M762.791 65.144C765.265 65.144 767.079 65.6133 768.231 66.552C769.383 67.4907 769.959 68.7707 769.959 70.392C769.959 71.3733 769.809 72.312 769.511 73.208L763.623 92.344C763.495 92.856 763.431 93.304 763.431 93.688C763.431 94.2427 763.537 94.6907 763.751 95.032C763.964 95.3307 764.263 95.6293 764.647 95.928C764.945 96.2267 765.159 96.4827 765.287 96.696C765.415 96.8667 765.436 97.1013 765.351 97.4C765.137 97.9547 764.711 98.36 764.071 98.616C763.431 98.872 762.449 99 761.127 99H746.535C745.425 99 744.615 98.8293 744.103 98.488C743.591 98.104 743.42 97.6133 743.591 97.016C743.761 96.504 744.209 96.056 744.935 95.672C745.575 95.3307 746.108 94.9253 746.535 94.456C746.961 93.9867 747.324 93.24 747.623 92.216L753.191 73.72C753.319 73.336 753.383 73.016 753.383 72.76C753.383 72.2907 753.276 71.928 753.063 71.672C752.849 71.3733 752.529 71.0747 752.103 70.776C751.676 70.4347 751.377 70.136 751.207 69.88C751.036 69.624 751.015 69.2827 751.143 68.856C751.399 67.8747 752.743 67.0213 755.175 66.296C757.607 65.528 760.145 65.144 762.791 65.144ZM767.079 51C768.743 51 770.129 51.5547 771.239 52.664C772.348 53.7307 772.903 55.0533 772.903 56.632C772.903 57.7413 772.604 58.8293 772.007 59.896C771.452 60.9627 770.641 61.8373 769.575 62.52C768.551 63.16 767.399 63.48 766.119 63.48C764.497 63.48 763.132 62.9467 762.023 61.88C760.956 60.7707 760.401 59.4053 760.359 57.784C760.359 56.7173 760.636 55.672 761.191 54.648C761.745 53.5813 762.535 52.7067 763.559 52.024C764.583 51.3413 765.756 51 767.079 51Z" fill="#F3C72C"/>
<path d="M793.012 51.704C795.487 51.704 797.3 52.1733 798.452 53.112C799.647 54.0507 800.244 55.3307 800.244 56.952C800.244 57.8907 800.095 58.808 799.796 59.704L789.748 92.344C789.62 92.856 789.556 93.304 789.556 93.688C789.556 94.2427 789.663 94.6907 789.876 95.032C790.09 95.3307 790.388 95.6293 790.772 95.928C791.071 96.2267 791.284 96.4827 791.412 96.696C791.54 96.8667 791.562 97.1013 791.476 97.4C791.263 97.9547 790.836 98.36 790.196 98.616C789.556 98.872 788.575 99 787.252 99H772.66C771.551 99 770.74 98.8293 770.228 98.488C769.716 98.104 769.546 97.6133 769.716 97.016C769.887 96.504 770.335 96.056 771.06 95.672C771.7 95.3307 772.234 94.9253 772.66 94.456C773.087 93.9867 773.45 93.24 773.748 92.216L783.476 60.28C783.604 59.896 783.668 59.576 783.668 59.32C783.668 58.8507 783.54 58.4667 783.284 58.168C783.071 57.8693 782.772 57.5707 782.388 57.272C781.962 56.9307 781.642 56.632 781.428 56.376C781.258 56.12 781.236 55.7787 781.364 55.352C781.62 54.3707 782.964 53.5173 785.396 52.792C787.828 52.0667 790.367 51.704 793.012 51.704Z" fill="#F3C72C"/>
<path d="M816.066 65.144C818.54 65.144 820.354 65.6133 821.506 66.552C822.658 67.4907 823.234 68.7707 823.234 70.392C823.234 71.3733 823.084 72.312 822.786 73.208L816.898 92.344C816.77 92.856 816.706 93.304 816.706 93.688C816.706 94.2427 816.812 94.6907 817.026 95.032C817.239 95.3307 817.538 95.6293 817.922 95.928C818.22 96.2267 818.434 96.4827 818.562 96.696C818.69 96.8667 818.711 97.1013 818.626 97.4C818.412 97.9547 817.986 98.36 817.346 98.616C816.706 98.872 815.724 99 814.402 99H799.81C798.7 99 797.89 98.8293 797.378 98.488C796.866 98.104 796.695 97.6133 796.866 97.016C797.036 96.504 797.484 96.056 798.21 95.672C798.85 95.3307 799.383 94.9253 799.81 94.456C800.236 93.9867 800.599 93.24 800.898 92.216L806.466 73.72C806.594 73.336 806.658 73.016 806.658 72.76C806.658 72.2907 806.551 71.928 806.338 71.672C806.124 71.3733 805.804 71.0747 805.378 70.776C804.951 70.4347 804.652 70.136 804.482 69.88C804.311 69.624 804.29 69.2827 804.418 68.856C804.674 67.8747 806.018 67.0213 808.45 66.296C810.882 65.528 813.42 65.144 816.066 65.144ZM820.354 51C822.018 51 823.404 51.5547 824.514 52.664C825.623 53.7307 826.178 55.0533 826.178 56.632C826.178 57.7413 825.879 58.8293 825.282 59.896C824.727 60.9627 823.916 61.8373 822.85 62.52C821.826 63.16 820.674 63.48 819.394 63.48C817.772 63.48 816.407 62.9467 815.298 61.88C814.231 60.7707 813.676 59.4053 813.634 57.784C813.634 56.7173 813.911 55.672 814.466 54.648C815.02 53.5813 815.81 52.7067 816.834 52.024C817.858 51.3413 819.031 51 820.354 51Z" fill="#F3C72C"/>
<path d="M848.719 65.144C853.626 65.144 857.551 66.0613 860.495 67.896C863.439 69.688 864.911 72.44 864.911 76.152C864.911 77.56 864.655 79.16 864.143 80.952L861.519 89.784C861.477 89.9547 861.455 90.168 861.455 90.424C861.455 91.1067 861.733 91.448 862.287 91.448C862.799 91.448 863.226 91.2347 863.567 90.808C863.951 90.3387 864.207 90.104 864.335 90.104C864.549 90.104 864.719 90.2533 864.847 90.552C865.018 90.8507 865.103 91.192 865.103 91.576C865.146 92.728 864.698 93.9013 863.759 95.096C862.863 96.2907 861.647 97.272 860.111 98.04C858.575 98.808 856.89 99.192 855.055 99.192C852.837 99.192 850.938 98.7867 849.359 97.976C847.781 97.1653 846.693 95.9707 846.095 94.392C844.815 95.928 843.301 97.1227 841.551 97.976C839.802 98.7867 837.925 99.192 835.919 99.192C833.658 99.192 831.759 98.7653 830.223 97.912C828.687 97.016 827.535 95.8853 826.767 94.52C826.042 93.112 825.679 91.64 825.679 90.104C825.679 89.4213 825.743 88.76 825.871 88.12C826.554 85.176 828.026 82.9573 830.287 81.464C832.591 79.9707 835.322 79.224 838.479 79.224C842.021 79.224 845.498 79.7787 848.911 80.888L850.511 76.664C851.066 74.872 851.343 73.4853 851.343 72.504C851.301 71.48 850.959 70.712 850.319 70.2C849.679 69.688 848.698 69.432 847.375 69.432C847.631 70.1147 847.759 70.8187 847.759 71.544C847.759 73.1227 847.162 74.488 845.967 75.64C844.773 76.792 843.066 77.368 840.847 77.368C838.757 77.368 837.114 76.92 835.919 76.024C834.767 75.0853 834.191 73.9333 834.191 72.568C834.191 70.4347 835.386 68.664 837.775 67.256C840.165 65.848 843.813 65.144 848.719 65.144ZM845.135 84.536C843.941 84.536 842.959 85.0053 842.191 85.944C841.466 86.84 841.103 87.8213 841.103 88.888C841.103 89.5707 841.253 90.1253 841.551 90.552C841.893 90.9787 842.362 91.192 842.959 91.192C843.514 91.192 844.111 90.9787 844.751 90.552C845.434 90.0827 845.925 89.4 846.223 88.504L847.567 84.728C846.842 84.6 846.031 84.536 845.135 84.536Z" fill="#F3C72C"/>
<path d="M902.37 65.144C904.76 65.144 906.658 65.8693 908.066 67.32C909.517 68.7707 910.242 70.5627 910.242 72.696C910.242 73.5067 910.157 74.2533 909.986 74.936C909.56 76.6853 908.749 78.0293 907.554 78.968C906.36 79.9067 904.93 80.376 903.266 80.376C901.645 80.376 900.408 79.992 899.554 79.224C898.744 78.456 898.018 77.432 897.378 76.152C897.037 75.4267 896.717 74.8933 896.418 74.552C896.12 74.2107 895.778 74.04 895.394 74.04C894.968 74.04 894.584 74.2107 894.242 74.552C893.944 74.8933 893.666 75.4907 893.41 76.344L888.482 92.344C888.397 92.5573 888.354 92.8773 888.354 93.304C888.354 93.8587 888.504 94.328 888.802 94.712C889.144 95.0533 889.592 95.3947 890.146 95.736C890.658 96.0773 891 96.3547 891.17 96.568C891.341 96.7813 891.405 97.0587 891.362 97.4C891.277 97.9547 890.957 98.36 890.402 98.616C889.89 98.872 888.994 99 887.714 99H871.33C870.221 99 869.432 98.8293 868.962 98.488C868.45 98.104 868.258 97.6133 868.386 97.016C868.557 96.504 869.005 96.056 869.73 95.672C870.37 95.3307 870.904 94.9253 871.33 94.456C871.757 93.9867 872.12 93.24 872.418 92.216L878.114 73.72C878.2 73.5067 878.242 73.208 878.242 72.824C878.242 72.3547 878.136 71.992 877.922 71.736C877.752 71.48 877.453 71.16 877.026 70.776C876.6 70.4347 876.301 70.136 876.13 69.88C875.96 69.624 875.938 69.2827 876.066 68.856C876.322 67.8747 877.666 67.0213 880.098 66.296C882.53 65.528 885.069 65.144 887.714 65.144C889.464 65.144 890.914 65.5493 892.066 66.36C893.218 67.128 893.965 68.2373 894.306 69.688C896.354 66.6587 899.042 65.144 902.37 65.144Z" fill="#F3C72C"/>
</g>
<path d="M151.5 33.5H910.242C919.907 33.5 927.742 41.335 927.742 51V117.076H169C159.335 117.076 151.5 109.241 151.5 99.576V33.5Z" stroke="#F3C72C" stroke-opacity="0.8" stroke-width="5"/>
</g>
</g>
</svg>
