<svg viewBox="0 0 543 270" fill="none" xmlns="http://www.w3.org/2000/svg">
<g id="0129201">
<g id="Yo &#195;&#186;nico Hermano">
<path d="M158.973 121.84L166.395 107.562H170.652L160.848 125.395V136H157.098V125.395L147.293 107.562H151.59L158.973 121.84Z" fill="white"/>
<path d="M171.512 125.238C171.512 123.168 171.915 121.306 172.723 119.652C173.543 117.999 174.676 116.723 176.121 115.824C177.579 114.926 179.24 114.477 181.102 114.477C183.979 114.477 186.303 115.473 188.074 117.465C189.858 119.457 190.75 122.107 190.75 125.414V125.668C190.75 127.725 190.353 129.574 189.559 131.215C188.777 132.842 187.651 134.112 186.18 135.023C184.721 135.935 183.042 136.391 181.141 136.391C178.276 136.391 175.952 135.395 174.168 133.402C172.397 131.41 171.512 128.773 171.512 125.492V125.238ZM175.145 125.668C175.145 128.012 175.685 129.893 176.766 131.312C177.859 132.732 179.318 133.441 181.141 133.441C182.977 133.441 184.435 132.725 185.516 131.293C186.596 129.848 187.137 127.829 187.137 125.238C187.137 122.921 186.583 121.046 185.477 119.613C184.383 118.168 182.924 117.445 181.102 117.445C179.318 117.445 177.879 118.155 176.785 119.574C175.691 120.993 175.145 123.025 175.145 125.668Z" fill="white"/>
<path d="M287.703 133.91C286.297 135.564 284.233 136.391 281.512 136.391C279.259 136.391 277.54 135.74 276.355 134.438C275.184 133.122 274.591 131.182 274.578 128.617V114.867H278.191V128.52C278.191 131.723 279.493 133.324 282.098 133.324C284.858 133.324 286.694 132.296 287.605 130.238V114.867H291.219V136H287.781L287.703 133.91ZM284.773 106H289.148L283.914 111.742H281.004L284.773 106Z" fill="white"/>
<path d="M300.145 114.867L300.262 117.523C301.876 115.492 303.986 114.477 306.59 114.477C311.056 114.477 313.309 116.996 313.348 122.035V136H309.734V122.016C309.721 120.492 309.37 119.366 308.68 118.637C308.003 117.908 306.941 117.543 305.496 117.543C304.324 117.543 303.296 117.855 302.41 118.48C301.525 119.105 300.835 119.926 300.34 120.941V136H296.727V114.867H300.145Z" fill="white"/>
<path d="M322.723 136H319.109V114.867H322.723V136ZM318.816 109.262C318.816 108.676 318.992 108.181 319.344 107.777C319.708 107.374 320.242 107.172 320.945 107.172C321.648 107.172 322.182 107.374 322.547 107.777C322.911 108.181 323.094 108.676 323.094 109.262C323.094 109.848 322.911 110.336 322.547 110.727C322.182 111.117 321.648 111.312 320.945 111.312C320.242 111.312 319.708 111.117 319.344 110.727C318.992 110.336 318.816 109.848 318.816 109.262Z" fill="white"/>
<path d="M337 133.441C338.289 133.441 339.415 133.051 340.379 132.27C341.342 131.488 341.876 130.512 341.98 129.34H345.398C345.333 130.551 344.917 131.703 344.148 132.797C343.38 133.891 342.352 134.763 341.062 135.414C339.786 136.065 338.432 136.391 337 136.391C334.122 136.391 331.831 135.434 330.125 133.52C328.432 131.592 327.586 128.962 327.586 125.629V125.023C327.586 122.966 327.964 121.137 328.719 119.535C329.474 117.934 330.555 116.69 331.961 115.805C333.38 114.919 335.053 114.477 336.98 114.477C339.35 114.477 341.316 115.186 342.879 116.605C344.454 118.025 345.294 119.867 345.398 122.133H341.98C341.876 120.766 341.355 119.646 340.418 118.773C339.493 117.888 338.348 117.445 336.98 117.445C335.145 117.445 333.719 118.109 332.703 119.438C331.701 120.753 331.199 122.66 331.199 125.16V125.844C331.199 128.279 331.701 130.154 332.703 131.469C333.706 132.784 335.138 133.441 337 133.441Z" fill="white"/>
<path d="M348.504 125.238C348.504 123.168 348.908 121.306 349.715 119.652C350.535 117.999 351.668 116.723 353.113 115.824C354.572 114.926 356.232 114.477 358.094 114.477C360.971 114.477 363.296 115.473 365.066 117.465C366.85 119.457 367.742 122.107 367.742 125.414V125.668C367.742 127.725 367.345 129.574 366.551 131.215C365.77 132.842 364.643 134.112 363.172 135.023C361.714 135.935 360.034 136.391 358.133 136.391C355.268 136.391 352.944 135.395 351.16 133.402C349.389 131.41 348.504 128.773 348.504 125.492V125.238ZM352.137 125.668C352.137 128.012 352.677 129.893 353.758 131.312C354.852 132.732 356.31 133.441 358.133 133.441C359.969 133.441 361.427 132.725 362.508 131.293C363.589 129.848 364.129 127.829 364.129 125.238C364.129 122.921 363.576 121.046 362.469 119.613C361.375 118.168 359.917 117.445 358.094 117.445C356.31 117.445 354.871 118.155 353.777 119.574C352.684 120.993 352.137 123.025 352.137 125.668Z" fill="white"/>
<path d="M404.617 136H400.848V122.855H386.512V136H382.762V107.562H386.512V119.789H400.848V107.562H404.617V136Z" fill="white"/>
<path d="M419.48 136.391C416.616 136.391 414.285 135.453 412.488 133.578C410.691 131.69 409.793 129.171 409.793 126.02V125.355C409.793 123.259 410.19 121.391 410.984 119.75C411.792 118.096 412.911 116.807 414.344 115.883C415.789 114.945 417.352 114.477 419.031 114.477C421.779 114.477 423.914 115.382 425.438 117.191C426.961 119.001 427.723 121.592 427.723 124.965V126.469H413.406C413.458 128.552 414.064 130.238 415.223 131.527C416.395 132.803 417.879 133.441 419.676 133.441C420.952 133.441 422.033 133.181 422.918 132.66C423.803 132.139 424.578 131.449 425.242 130.59L427.449 132.309C425.678 135.03 423.022 136.391 419.48 136.391ZM419.031 117.445C417.573 117.445 416.349 117.979 415.359 119.047C414.37 120.102 413.758 121.586 413.523 123.5H424.109V123.227C424.005 121.391 423.51 119.971 422.625 118.969C421.74 117.953 420.542 117.445 419.031 117.445Z" fill="white"/>
<path d="M442.137 118.109C441.59 118.018 440.997 117.973 440.359 117.973C437.99 117.973 436.382 118.982 435.535 121V136H431.922V114.867H435.438L435.496 117.309C436.681 115.421 438.361 114.477 440.535 114.477C441.238 114.477 441.772 114.568 442.137 114.75V118.109Z" fill="white"/>
<path d="M448.875 114.867L448.973 117.211C450.522 115.388 452.612 114.477 455.242 114.477C458.198 114.477 460.21 115.609 461.277 117.875C461.98 116.859 462.892 116.039 464.012 115.414C465.145 114.789 466.479 114.477 468.016 114.477C472.651 114.477 475.008 116.931 475.086 121.84V136H471.473V122.055C471.473 120.544 471.128 119.418 470.438 118.676C469.747 117.921 468.589 117.543 466.961 117.543C465.62 117.543 464.507 117.947 463.621 118.754C462.736 119.548 462.221 120.622 462.078 121.977V136H458.445V122.152C458.445 119.079 456.941 117.543 453.934 117.543C451.564 117.543 449.943 118.552 449.07 120.57V136H445.457V114.867H448.875Z" fill="white"/>
<path d="M493.602 136C493.393 135.583 493.224 134.841 493.094 133.773C491.414 135.518 489.409 136.391 487.078 136.391C484.995 136.391 483.283 135.805 481.941 134.633C480.613 133.448 479.949 131.951 479.949 130.141C479.949 127.94 480.783 126.234 482.449 125.023C484.129 123.799 486.486 123.188 489.52 123.188H493.035V121.527C493.035 120.264 492.658 119.262 491.902 118.52C491.147 117.764 490.034 117.387 488.562 117.387C487.273 117.387 486.193 117.712 485.32 118.363C484.448 119.014 484.012 119.802 484.012 120.727H480.379C480.379 119.672 480.75 118.656 481.492 117.68C482.247 116.69 483.263 115.909 484.539 115.336C485.828 114.763 487.241 114.477 488.777 114.477C491.212 114.477 493.12 115.089 494.5 116.312C495.88 117.523 496.596 119.197 496.648 121.332V131.059C496.648 132.999 496.896 134.542 497.391 135.688V136H493.602ZM487.605 133.246C488.738 133.246 489.812 132.953 490.828 132.367C491.844 131.781 492.579 131.02 493.035 130.082V125.746H490.203C485.776 125.746 483.562 127.042 483.562 129.633C483.562 130.766 483.94 131.651 484.695 132.289C485.451 132.927 486.421 133.246 487.605 133.246Z" fill="white"/>
<path d="M505.73 114.867L505.848 117.523C507.462 115.492 509.572 114.477 512.176 114.477C516.642 114.477 518.895 116.996 518.934 122.035V136H515.32V122.016C515.307 120.492 514.956 119.366 514.266 118.637C513.589 117.908 512.527 117.543 511.082 117.543C509.91 117.543 508.882 117.855 507.996 118.48C507.111 119.105 506.421 119.926 505.926 120.941V136H502.312V114.867H505.73Z" fill="white"/>
<path d="M523.426 125.238C523.426 123.168 523.829 121.306 524.637 119.652C525.457 117.999 526.59 116.723 528.035 115.824C529.493 114.926 531.154 114.477 533.016 114.477C535.893 114.477 538.217 115.473 539.988 117.465C541.772 119.457 542.664 122.107 542.664 125.414V125.668C542.664 127.725 542.267 129.574 541.473 131.215C540.691 132.842 539.565 134.112 538.094 135.023C536.635 135.935 534.956 136.391 533.055 136.391C530.19 136.391 527.866 135.395 526.082 133.402C524.311 131.41 523.426 128.773 523.426 125.492V125.238ZM527.059 125.668C527.059 128.012 527.599 129.893 528.68 131.312C529.773 132.732 531.232 133.441 533.055 133.441C534.891 133.441 536.349 132.725 537.43 131.293C538.51 129.848 539.051 127.829 539.051 125.238C539.051 122.921 538.497 121.046 537.391 119.613C536.297 118.168 534.839 117.445 533.016 117.445C531.232 117.445 529.793 118.155 528.699 119.574C527.605 120.993 527.059 123.025 527.059 125.668Z" fill="white"/>
</g>
<g id="Group 14">
<g id="Padre">
<path d="M125.051 18.8672V30H121.301V1.5625H131.789C134.901 1.5625 137.336 2.35677 139.094 3.94531C140.865 5.53385 141.75 7.63672 141.75 10.2539C141.75 13.0143 140.884 15.1432 139.152 16.6406C137.434 18.125 134.966 18.8672 131.75 18.8672H125.051ZM125.051 15.8008H131.789C133.794 15.8008 135.331 15.332 136.398 14.3945C137.466 13.444 138 12.0768 138 10.293C138 8.60026 137.466 7.24609 136.398 6.23047C135.331 5.21484 133.866 4.6875 132.004 4.64844H125.051V15.8008Z" fill="white"/>
<path d="M158.781 30C158.573 29.5833 158.404 28.8411 158.273 27.7734C156.594 29.5182 154.589 30.3906 152.258 30.3906C150.174 30.3906 148.462 29.8047 147.121 28.6328C145.793 27.4479 145.129 25.9505 145.129 24.1406C145.129 21.9401 145.962 20.2344 147.629 19.0234C149.309 17.7995 151.665 17.1875 154.699 17.1875H158.215V15.5273C158.215 14.2643 157.837 13.2617 157.082 12.5195C156.327 11.7643 155.214 11.3867 153.742 11.3867C152.453 11.3867 151.372 11.7122 150.5 12.3633C149.628 13.0143 149.191 13.8021 149.191 14.7266H145.559C145.559 13.6719 145.93 12.6562 146.672 11.6797C147.427 10.6901 148.443 9.90885 149.719 9.33594C151.008 8.76302 152.421 8.47656 153.957 8.47656C156.392 8.47656 158.299 9.08854 159.68 10.3125C161.06 11.5234 161.776 13.1966 161.828 15.332V25.0586C161.828 26.9987 162.076 28.5417 162.57 29.6875V30H158.781ZM152.785 27.2461C153.918 27.2461 154.992 26.9531 156.008 26.3672C157.023 25.7812 157.759 25.0195 158.215 24.082V19.7461H155.383C150.956 19.7461 148.742 21.0417 148.742 23.6328C148.742 24.7656 149.12 25.651 149.875 26.2891C150.63 26.9271 151.6 27.2461 152.785 27.2461Z" fill="white"/>
<path d="M166.613 19.2578C166.613 16.0156 167.382 13.4115 168.918 11.4453C170.454 9.46615 172.466 8.47656 174.953 8.47656C177.427 8.47656 179.387 9.32292 180.832 11.0156V0H184.445V30H181.125L180.949 27.7344C179.504 29.5052 177.492 30.3906 174.914 30.3906C172.466 30.3906 170.467 29.388 168.918 27.3828C167.382 25.3776 166.613 22.7604 166.613 19.5312V19.2578ZM170.227 19.668C170.227 22.0638 170.721 23.9388 171.711 25.293C172.701 26.6471 174.068 27.3242 175.812 27.3242C178.104 27.3242 179.777 26.2956 180.832 24.2383V14.5312C179.751 12.5391 178.091 11.543 175.852 11.543C174.081 11.543 172.701 12.2266 171.711 13.5938C170.721 14.9609 170.227 16.9857 170.227 19.668Z" fill="white"/>
<path d="M200.285 12.1094C199.738 12.0182 199.146 11.9727 198.508 11.9727C196.138 11.9727 194.53 12.9818 193.684 15V30H190.07V8.86719H193.586L193.645 11.3086C194.829 9.42057 196.509 8.47656 198.684 8.47656C199.387 8.47656 199.921 8.56771 200.285 8.75V12.1094Z" fill="white"/>
<path d="M212.004 30.3906C209.139 30.3906 206.809 29.4531 205.012 27.5781C203.215 25.6901 202.316 23.1706 202.316 20.0195V19.3555C202.316 17.2591 202.714 15.3906 203.508 13.75C204.315 12.0964 205.435 10.8073 206.867 9.88281C208.312 8.94531 209.875 8.47656 211.555 8.47656C214.302 8.47656 216.438 9.38151 217.961 11.1914C219.484 13.0013 220.246 15.5924 220.246 18.9648V20.4688H205.93C205.982 22.5521 206.587 24.2383 207.746 25.5273C208.918 26.8034 210.402 27.4414 212.199 27.4414C213.475 27.4414 214.556 27.181 215.441 26.6602C216.327 26.1393 217.102 25.4492 217.766 24.5898L219.973 26.3086C218.202 29.0299 215.546 30.3906 212.004 30.3906ZM211.555 11.4453C210.096 11.4453 208.872 11.9792 207.883 13.0469C206.893 14.1016 206.281 15.5859 206.047 17.5H216.633V17.2266C216.529 15.3906 216.034 13.9714 215.148 12.9688C214.263 11.9531 213.065 11.4453 211.555 11.4453Z" fill="white"/>
</g>
<path id="Arrow 1 (Stroke)" fill-rule="evenodd" clip-rule="evenodd" d="M184.142 90.6863L171.414 103.414C170.633 104.195 169.367 104.195 168.586 103.414L155.858 90.6863C155.077 89.9052 155.077 88.6389 155.858 87.8579C156.639 87.0768 157.905 87.0768 158.686 87.8579L168 97.1716V36H172V97.1716L181.314 87.8579C182.095 87.0768 183.361 87.0768 184.142 87.8579C184.923 88.6389 184.923 89.9052 184.142 90.6863Z" fill="#2CF30B"/>
</g>
<g id="Group 15">
<path id="Arrow 2 (Stroke)" fill-rule="evenodd" clip-rule="evenodd" d="M62.1421 196.686L49.4142 209.414C48.6332 210.195 47.3668 210.195 46.5858 209.414L33.8579 196.686C33.0768 195.905 33.0768 194.639 33.8579 193.858C34.6389 193.077 35.9052 193.077 36.6863 193.858L46 203.172V142H50V203.172L59.3137 193.858C60.0948 193.077 61.3611 193.077 62.1421 193.858C62.9232 194.639 62.9232 195.905 62.1421 196.686Z" fill="#E8A1EE"/>
<g id="Mujer">
<path d="M5.14453 107.562L14.4414 130.766L23.7383 107.562H28.6016V136H24.8516V124.926L25.2031 112.973L15.8672 136H12.9961L3.67969 113.031L4.05078 124.926V136H0.300781V107.562H5.14453Z" fill="white"/>
<path d="M47.7031 133.91C46.2969 135.564 44.2331 136.391 41.5117 136.391C39.2591 136.391 37.5404 135.74 36.3555 134.438C35.1836 133.122 34.5911 131.182 34.5781 128.617V114.867H38.1914V128.52C38.1914 131.723 39.4935 133.324 42.0977 133.324C44.8581 133.324 46.694 132.296 47.6055 130.238V114.867H51.2188V136H47.7812L47.7031 133.91Z" fill="white"/>
<path d="M60.457 114.867V138.441C60.457 142.504 58.6146 144.535 54.9297 144.535C54.1354 144.535 53.3997 144.418 52.7227 144.184V141.293C53.1393 141.397 53.6862 141.449 54.3633 141.449C55.1706 141.449 55.7826 141.228 56.1992 140.785C56.6289 140.355 56.8438 139.6 56.8438 138.52V114.867H60.457ZM56.4727 109.262C56.4727 108.689 56.6484 108.201 57 107.797C57.3646 107.38 57.8919 107.172 58.582 107.172C59.2852 107.172 59.819 107.374 60.1836 107.777C60.5482 108.181 60.7305 108.676 60.7305 109.262C60.7305 109.848 60.5482 110.336 60.1836 110.727C59.819 111.117 59.2852 111.312 58.582 111.312C57.8789 111.312 57.3516 111.117 57 110.727C56.6484 110.336 56.4727 109.848 56.4727 109.262Z" fill="white"/>
<path d="M75.0664 136.391C72.2018 136.391 69.8711 135.453 68.0742 133.578C66.2773 131.69 65.3789 129.171 65.3789 126.02V125.355C65.3789 123.259 65.776 121.391 66.5703 119.75C67.3776 118.096 68.4974 116.807 69.9297 115.883C71.375 114.945 72.9375 114.477 74.6172 114.477C77.3646 114.477 79.5 115.382 81.0234 117.191C82.5469 119.001 83.3086 121.592 83.3086 124.965V126.469H68.9922C69.0443 128.552 69.6497 130.238 70.8086 131.527C71.9805 132.803 73.4648 133.441 75.2617 133.441C76.5378 133.441 77.6185 133.181 78.5039 132.66C79.3893 132.139 80.1641 131.449 80.8281 130.59L83.0352 132.309C81.2643 135.03 78.6081 136.391 75.0664 136.391ZM74.6172 117.445C73.1589 117.445 71.9349 117.979 70.9453 119.047C69.9557 120.102 69.3438 121.586 69.1094 123.5H79.6953V123.227C79.5911 121.391 79.0964 119.971 78.2109 118.969C77.3255 117.953 76.1276 117.445 74.6172 117.445Z" fill="white"/>
<path d="M97.7227 118.109C97.1758 118.018 96.5833 117.973 95.9453 117.973C93.5755 117.973 91.9674 118.982 91.1211 121V136H87.5078V114.867H91.0234L91.082 117.309C92.2669 115.421 93.9466 114.477 96.1211 114.477C96.8242 114.477 97.3581 114.568 97.7227 114.75V118.109Z" fill="white"/>
</g>
</g>
<g id="Group 16">
<g id="hijo">
<path d="M21.3477 235.426C22.9492 233.46 25.0326 232.477 27.5977 232.477C32.0638 232.477 34.3164 234.996 34.3555 240.035V254H30.7422V240.016C30.7292 238.492 30.3776 237.366 29.6875 236.637C29.0104 235.908 27.9492 235.543 26.5039 235.543C25.332 235.543 24.3034 235.855 23.418 236.48C22.5326 237.105 21.8424 237.926 21.3477 238.941V254H17.7344V224H21.3477V235.426Z" fill="white"/>
<path d="M43.6914 254H40.0781V232.867H43.6914V254ZM39.7852 227.262C39.7852 226.676 39.9609 226.181 40.3125 225.777C40.6771 225.374 41.2109 225.172 41.9141 225.172C42.6172 225.172 43.151 225.374 43.5156 225.777C43.8802 226.181 44.0625 226.676 44.0625 227.262C44.0625 227.848 43.8802 228.336 43.5156 228.727C43.151 229.117 42.6172 229.312 41.9141 229.312C41.2109 229.312 40.6771 229.117 40.3125 228.727C39.9609 228.336 39.7852 227.848 39.7852 227.262Z" fill="white"/>
<path d="M53.2227 232.867V256.441C53.2227 260.504 51.3802 262.535 47.6953 262.535C46.901 262.535 46.1654 262.418 45.4883 262.184V259.293C45.9049 259.397 46.4518 259.449 47.1289 259.449C47.9362 259.449 48.5482 259.228 48.9648 258.785C49.3945 258.355 49.6094 257.6 49.6094 256.52V232.867H53.2227ZM49.2383 227.262C49.2383 226.689 49.4141 226.201 49.7656 225.797C50.1302 225.38 50.6576 225.172 51.3477 225.172C52.0508 225.172 52.5846 225.374 52.9492 225.777C53.3138 226.181 53.4961 226.676 53.4961 227.262C53.4961 227.848 53.3138 228.336 52.9492 228.727C52.5846 229.117 52.0508 229.312 51.3477 229.312C50.6445 229.312 50.1172 229.117 49.7656 228.727C49.4141 228.336 49.2383 227.848 49.2383 227.262Z" fill="white"/>
<path d="M58.1055 243.238C58.1055 241.168 58.5091 239.306 59.3164 237.652C60.1367 235.999 61.2695 234.723 62.7148 233.824C64.1732 232.926 65.8333 232.477 67.6953 232.477C70.5729 232.477 72.8971 233.473 74.668 235.465C76.4518 237.457 77.3438 240.107 77.3438 243.414V243.668C77.3438 245.725 76.9466 247.574 76.1523 249.215C75.3711 250.842 74.2448 252.112 72.7734 253.023C71.3151 253.935 69.6354 254.391 67.7344 254.391C64.8698 254.391 62.5456 253.395 60.7617 251.402C58.9909 249.41 58.1055 246.773 58.1055 243.492V243.238ZM61.7383 243.668C61.7383 246.012 62.2786 247.893 63.3594 249.312C64.4531 250.732 65.9115 251.441 67.7344 251.441C69.5703 251.441 71.0286 250.725 72.1094 249.293C73.1901 247.848 73.7305 245.829 73.7305 243.238C73.7305 240.921 73.1771 239.046 72.0703 237.613C70.9766 236.168 69.5182 235.445 67.6953 235.445C65.9115 235.445 64.4727 236.155 63.3789 237.574C62.2852 238.993 61.7383 241.025 61.7383 243.668Z" fill="white"/>
</g>
<path id="Arrow 4 (Stroke)" fill-rule="evenodd" clip-rule="evenodd" d="M156.272 139.608C157.593 139.206 158.99 139.951 159.392 141.272L165.943 162.797C166.345 164.118 165.6 165.515 164.279 165.917C162.958 166.319 161.561 165.574 161.159 164.253L156.344 148.432C146.241 166.586 136.823 179.142 125.701 188.462C113.518 198.671 99.4727 204.841 80.7098 210.397L79.2902 205.603C97.7486 200.137 111.054 194.212 122.49 184.63C132.932 175.88 141.968 163.953 151.88 146.171L136.203 150.943C134.882 151.345 133.485 150.6 133.083 149.279C132.681 147.958 133.426 146.561 134.747 146.159L156.272 139.608Z" fill="#E8A1EE"/>
</g>
<g id="t&#195;&#173;o">
<path d="M396.637 162.75V167.867H400.582V170.66H396.637V183.766C396.637 184.612 396.812 185.25 397.164 185.68C397.516 186.096 398.115 186.305 398.961 186.305C399.378 186.305 399.951 186.227 400.68 186.07V189C399.729 189.26 398.805 189.391 397.906 189.391C396.292 189.391 395.074 188.902 394.254 187.926C393.434 186.949 393.023 185.562 393.023 183.766V170.66H389.176V167.867H393.023V162.75H396.637Z" fill="white"/>
<path d="M408.746 189H405.113V167.867H408.746V189ZM408.785 159.02H413.16L407.926 164.762H405.016L408.785 159.02Z" fill="white"/>
<path d="M413.746 178.238C413.746 176.168 414.15 174.306 414.957 172.652C415.777 170.999 416.91 169.723 418.355 168.824C419.814 167.926 421.474 167.477 423.336 167.477C426.214 167.477 428.538 168.473 430.309 170.465C432.092 172.457 432.984 175.107 432.984 178.414V178.668C432.984 180.725 432.587 182.574 431.793 184.215C431.012 185.842 429.885 187.112 428.414 188.023C426.956 188.935 425.276 189.391 423.375 189.391C420.51 189.391 418.186 188.395 416.402 186.402C414.632 184.41 413.746 181.773 413.746 178.492V178.238ZM417.379 178.668C417.379 181.012 417.919 182.893 419 184.312C420.094 185.732 421.552 186.441 423.375 186.441C425.211 186.441 426.669 185.725 427.75 184.293C428.831 182.848 429.371 180.829 429.371 178.238C429.371 175.921 428.818 174.046 427.711 172.613C426.617 171.168 425.159 170.445 423.336 170.445C421.552 170.445 420.113 171.155 419.02 172.574C417.926 173.993 417.379 176.025 417.379 178.668Z" fill="white"/>
</g>
<path id="Arrow 3 (Stroke)" fill-rule="evenodd" clip-rule="evenodd" d="M352.304 172.519C353.675 172.687 354.649 173.934 354.481 175.304L351.743 197.637C351.575 199.007 350.328 199.982 348.958 199.814C347.587 199.646 346.612 198.399 346.78 197.029L348.79 180.636C312.472 208.317 279.846 224.927 242.192 234.065C202.975 243.582 158.455 244.954 98.897 242.498L99.103 237.502C158.557 239.954 202.502 238.552 241.013 229.206C277.817 220.275 309.799 204.051 345.653 176.741L329.363 174.743C327.993 174.575 327.018 173.328 327.186 171.958C327.354 170.587 328.601 169.612 329.971 169.78L352.304 172.519Z" fill="#13EBF9"/>
<path id="Arrow 5 (Stroke)" fill-rule="evenodd" clip-rule="evenodd" d="M246.55 58.3584L240.589 36.6623C240.224 35.3309 241.006 33.9551 242.338 33.5893L264.034 27.6288C265.365 27.2631 266.741 28.0459 267.107 29.3772C267.473 30.7086 266.69 32.0844 265.358 32.4502L249.482 36.8118L360.236 99.8271L357.764 104.173L247.01 41.1576L251.371 57.0339C251.737 58.3652 250.954 59.7411 249.623 60.1068C248.291 60.4726 246.916 59.6898 246.55 58.3584Z" fill="#E79720"/>
<path id="Ellipse 6 (Stroke)" fill-rule="evenodd" clip-rule="evenodd" d="M170.5 161C192.998 161 211 143.411 211 122C211 100.589 192.998 83 170.5 83C148.002 83 130 100.589 130 122C130 143.411 148.002 161 170.5 161ZM170.5 165C195.077 165 215 145.748 215 122C215 98.2518 195.077 79 170.5 79C145.923 79 126 98.2518 126 122C126 145.748 145.923 165 170.5 165Z" fill="#FD0C0C"/>
</g>
</svg>
