<svg viewBox="0 0 804 211" fill="none" xmlns="http://www.w3.org/2000/svg">
<g id="0129202">
<g id="Yo">
<path d="M43.9727 147.84L51.3945 133.562H55.6523L45.8477 151.395V162H42.0977V151.395L32.293 133.562H36.5898L43.9727 147.84Z" fill="white"/>
<path d="M56.5117 151.238C56.5117 149.168 56.9154 147.306 57.7227 145.652C58.543 143.999 59.6758 142.723 61.1211 141.824C62.5794 140.926 64.2396 140.477 66.1016 140.477C68.9792 140.477 71.3034 141.473 73.0742 143.465C74.8581 145.457 75.75 148.107 75.75 151.414V151.668C75.75 153.725 75.3529 155.574 74.5586 157.215C73.7773 158.842 72.651 160.112 71.1797 161.023C69.7214 161.935 68.0417 162.391 66.1406 162.391C63.276 162.391 60.9518 161.395 59.168 159.402C57.3971 157.41 56.5117 154.773 56.5117 151.492V151.238ZM60.1445 151.668C60.1445 154.012 60.6849 155.893 61.7656 157.312C62.8594 158.732 64.3177 159.441 66.1406 159.441C67.9766 159.441 69.4349 158.725 70.5156 157.293C71.5964 155.848 72.1367 153.829 72.1367 151.238C72.1367 148.921 71.5833 147.046 70.4766 145.613C69.3828 144.168 67.9245 143.445 66.1016 143.445C64.3177 143.445 62.8789 144.155 61.7852 145.574C60.6914 146.993 60.1445 149.025 60.1445 151.668Z" fill="white"/>
</g>
<path id="Arrow 6 (Stroke)" fill-rule="evenodd" clip-rule="evenodd" d="M40.8579 73.3137L53.5858 60.5858C54.3669 59.8047 55.6332 59.8047 56.4142 60.5858L69.1422 73.3137C69.9232 74.0948 69.9232 75.3611 69.1422 76.1421C68.3611 76.9232 67.0948 76.9232 66.3137 76.1421L57 66.8284V112H53V66.8284L43.6863 76.1421C42.9053 76.9232 41.6389 76.9232 40.8579 76.1421C40.0768 75.3611 40.0768 74.0948 40.8579 73.3137Z" fill="#E8A1EE"/>
<g id="Madre">
<path d="M5.14453 1.5625L14.4414 24.7656L23.7383 1.5625H28.6016V30H24.8516V18.9258L25.2031 6.97266L15.8672 30H12.9961L3.67969 7.03125L4.05078 18.9258V30H0.300781V1.5625H5.14453Z" fill="white"/>
<path d="M47.7031 30C47.4948 29.5833 47.3255 28.8411 47.1953 27.7734C45.5156 29.5182 43.5104 30.3906 41.1797 30.3906C39.0964 30.3906 37.3841 29.8047 36.043 28.6328C34.7148 27.4479 34.0508 25.9505 34.0508 24.1406C34.0508 21.9401 34.8841 20.2344 36.5508 19.0234C38.2305 17.7995 40.5872 17.1875 43.6211 17.1875H47.1367V15.5273C47.1367 14.2643 46.7591 13.2617 46.0039 12.5195C45.2487 11.7643 44.1354 11.3867 42.6641 11.3867C41.375 11.3867 40.2943 11.7122 39.4219 12.3633C38.5495 13.0143 38.1133 13.8021 38.1133 14.7266H34.4805C34.4805 13.6719 34.8516 12.6562 35.5938 11.6797C36.349 10.6901 37.3646 9.90885 38.6406 9.33594C39.9297 8.76302 41.3424 8.47656 42.8789 8.47656C45.3138 8.47656 47.2214 9.08854 48.6016 10.3125C49.9818 11.5234 50.6979 13.1966 50.75 15.332V25.0586C50.75 26.9987 50.9974 28.5417 51.4922 29.6875V30H47.7031ZM41.707 27.2461C42.8398 27.2461 43.9141 26.9531 44.9297 26.3672C45.9453 25.7812 46.681 25.0195 47.1367 24.082V19.7461H44.3047C39.8776 19.7461 37.6641 21.0417 37.6641 23.6328C37.6641 24.7656 38.0417 25.651 38.7969 26.2891C39.5521 26.9271 40.5221 27.2461 41.707 27.2461Z" fill="white"/>
<path d="M55.5352 19.2578C55.5352 16.0156 56.3034 13.4115 57.8398 11.4453C59.3763 9.46615 61.388 8.47656 63.875 8.47656C66.349 8.47656 68.3086 9.32292 69.7539 11.0156V0H73.3672V30H70.0469L69.8711 27.7344C68.4258 29.5052 66.4141 30.3906 63.8359 30.3906C61.388 30.3906 59.3893 29.388 57.8398 27.3828C56.3034 25.3776 55.5352 22.7604 55.5352 19.5312V19.2578ZM59.1484 19.668C59.1484 22.0638 59.6432 23.9388 60.6328 25.293C61.6224 26.6471 62.9896 27.3242 64.7344 27.3242C67.026 27.3242 68.6992 26.2956 69.7539 24.2383V14.5312C68.6732 12.5391 67.013 11.543 64.7734 11.543C63.0026 11.543 61.6224 12.2266 60.6328 13.5938C59.6432 14.9609 59.1484 16.9857 59.1484 19.668Z" fill="white"/>
<path d="M89.207 12.1094C88.6602 12.0182 88.0677 11.9727 87.4297 11.9727C85.0599 11.9727 83.4518 12.9818 82.6055 15V30H78.9922V8.86719H82.5078L82.5664 11.3086C83.7513 9.42057 85.431 8.47656 87.6055 8.47656C88.3086 8.47656 88.8424 8.56771 89.207 8.75V12.1094Z" fill="white"/>
<path d="M100.926 30.3906C98.0612 30.3906 95.7305 29.4531 93.9336 27.5781C92.1367 25.6901 91.2383 23.1706 91.2383 20.0195V19.3555C91.2383 17.2591 91.6354 15.3906 92.4297 13.75C93.237 12.0964 94.3568 10.8073 95.7891 9.88281C97.2344 8.94531 98.7969 8.47656 100.477 8.47656C103.224 8.47656 105.359 9.38151 106.883 11.1914C108.406 13.0013 109.168 15.5924 109.168 18.9648V20.4688H94.8516C94.9036 22.5521 95.5091 24.2383 96.668 25.5273C97.8398 26.8034 99.3242 27.4414 101.121 27.4414C102.397 27.4414 103.478 27.181 104.363 26.6602C105.249 26.1393 106.023 25.4492 106.688 24.5898L108.895 26.3086C107.124 29.0299 104.467 30.3906 100.926 30.3906ZM100.477 11.4453C99.0182 11.4453 97.7943 11.9792 96.8047 13.0469C95.8151 14.1016 95.2031 15.5859 94.9688 17.5H105.555V17.2266C105.451 15.3906 104.956 13.9714 104.07 12.9688C103.185 11.9531 101.987 11.4453 100.477 11.4453Z" fill="white"/>
</g>
<path id="Arrow 7 (Stroke)" fill-rule="evenodd" clip-rule="evenodd" d="M170.7 3.85787L183.428 16.5858C184.209 17.3668 184.209 18.6332 183.428 19.4142L170.7 32.1421C169.919 32.9232 168.653 32.9232 167.872 32.1421C167.091 31.3611 167.091 30.0948 167.872 29.3137L177.186 20H110.986V16H177.186L167.872 6.68629C167.091 5.90524 167.091 4.63891 167.872 3.85787C168.653 3.07682 169.919 3.07682 170.7 3.85787Z" fill="#E79720"/>
<g id="Esposo">
<path d="M213.375 16.8555H201.051V26.9336H215.367V30H197.301V1.5625H215.172V4.64844H201.051V13.7891H213.375V16.8555Z" fill="white"/>
<path d="M231.773 24.3945C231.773 23.418 231.402 22.6628 230.66 22.1289C229.931 21.582 228.648 21.1133 226.812 20.7227C224.99 20.332 223.538 19.8633 222.457 19.3164C221.389 18.7695 220.595 18.1185 220.074 17.3633C219.566 16.6081 219.312 15.7096 219.312 14.668C219.312 12.9362 220.042 11.4714 221.5 10.2734C222.971 9.07552 224.846 8.47656 227.125 8.47656C229.521 8.47656 231.461 9.09505 232.945 10.332C234.443 11.569 235.191 13.151 235.191 15.0781H231.559C231.559 14.0885 231.135 13.2357 230.289 12.5195C229.456 11.8034 228.401 11.4453 227.125 11.4453C225.81 11.4453 224.781 11.7318 224.039 12.3047C223.297 12.8776 222.926 13.6263 222.926 14.5508C222.926 15.4232 223.271 16.0807 223.961 16.5234C224.651 16.9661 225.895 17.3893 227.691 17.793C229.501 18.1966 230.966 18.6784 232.086 19.2383C233.206 19.7982 234.033 20.4753 234.566 21.2695C235.113 22.0508 235.387 23.0078 235.387 24.1406C235.387 26.0286 234.632 27.5456 233.121 28.6914C231.611 29.8242 229.651 30.3906 227.242 30.3906C225.549 30.3906 224.052 30.0911 222.75 29.4922C221.448 28.8932 220.426 28.0599 219.684 26.9922C218.954 25.9115 218.59 24.7461 218.59 23.4961H222.203C222.268 24.707 222.75 25.6706 223.648 26.3867C224.56 27.0898 225.758 27.4414 227.242 27.4414C228.609 27.4414 229.703 27.168 230.523 26.6211C231.357 26.0612 231.773 25.319 231.773 24.3945Z" fill="white"/>
<path d="M257.945 19.668C257.945 22.8841 257.21 25.4753 255.738 27.4414C254.267 29.4076 252.275 30.3906 249.762 30.3906C247.197 30.3906 245.178 29.5768 243.707 27.9492V38.125H240.094V8.86719H243.395L243.57 11.2109C245.042 9.38802 247.086 8.47656 249.703 8.47656C252.242 8.47656 254.247 9.43359 255.719 11.3477C257.203 13.2617 257.945 15.9245 257.945 19.3359V19.668ZM254.332 19.2578C254.332 16.875 253.824 14.9935 252.809 13.6133C251.793 12.2331 250.4 11.543 248.629 11.543C246.441 11.543 244.801 12.513 243.707 14.4531V24.5508C244.788 26.4779 246.441 27.4414 248.668 27.4414C250.4 27.4414 251.773 26.7578 252.789 25.3906C253.818 24.0104 254.332 21.9661 254.332 19.2578Z" fill="white"/>
<path d="M261.598 19.2383C261.598 17.168 262.001 15.306 262.809 13.6523C263.629 11.9987 264.762 10.7227 266.207 9.82422C267.665 8.92578 269.326 8.47656 271.188 8.47656C274.065 8.47656 276.389 9.47266 278.16 11.4648C279.944 13.457 280.836 16.1068 280.836 19.4141V19.668C280.836 21.7253 280.439 23.5742 279.645 25.2148C278.863 26.8424 277.737 28.112 276.266 29.0234C274.807 29.9349 273.128 30.3906 271.227 30.3906C268.362 30.3906 266.038 29.3945 264.254 27.4023C262.483 25.4102 261.598 22.7734 261.598 19.4922V19.2383ZM265.23 19.668C265.23 22.0117 265.771 23.8932 266.852 25.3125C267.945 26.7318 269.404 27.4414 271.227 27.4414C273.062 27.4414 274.521 26.7253 275.602 25.293C276.682 23.8477 277.223 21.8294 277.223 19.2383C277.223 16.9206 276.669 15.0456 275.562 13.6133C274.469 12.168 273.01 11.4453 271.188 11.4453C269.404 11.4453 267.965 12.1549 266.871 13.5742C265.777 14.9935 265.23 17.0247 265.23 19.668Z" fill="white"/>
<path d="M297.672 24.3945C297.672 23.418 297.301 22.6628 296.559 22.1289C295.829 21.582 294.547 21.1133 292.711 20.7227C290.888 20.332 289.436 19.8633 288.355 19.3164C287.288 18.7695 286.493 18.1185 285.973 17.3633C285.465 16.6081 285.211 15.7096 285.211 14.668C285.211 12.9362 285.94 11.4714 287.398 10.2734C288.87 9.07552 290.745 8.47656 293.023 8.47656C295.419 8.47656 297.359 9.09505 298.844 10.332C300.341 11.569 301.09 13.151 301.09 15.0781H297.457C297.457 14.0885 297.034 13.2357 296.188 12.5195C295.354 11.8034 294.299 11.4453 293.023 11.4453C291.708 11.4453 290.68 11.7318 289.938 12.3047C289.195 12.8776 288.824 13.6263 288.824 14.5508C288.824 15.4232 289.169 16.0807 289.859 16.5234C290.549 16.9661 291.793 17.3893 293.59 17.793C295.4 18.1966 296.865 18.6784 297.984 19.2383C299.104 19.7982 299.931 20.4753 300.465 21.2695C301.012 22.0508 301.285 23.0078 301.285 24.1406C301.285 26.0286 300.53 27.5456 299.02 28.6914C297.509 29.8242 295.549 30.3906 293.141 30.3906C291.448 30.3906 289.951 30.0911 288.648 29.4922C287.346 28.8932 286.324 28.0599 285.582 26.9922C284.853 25.9115 284.488 24.7461 284.488 23.4961H288.102C288.167 24.707 288.648 25.6706 289.547 26.3867C290.458 27.0898 291.656 27.4414 293.141 27.4414C294.508 27.4414 295.602 27.168 296.422 26.6211C297.255 26.0612 297.672 25.319 297.672 24.3945Z" fill="white"/>
<path d="M305.035 19.2383C305.035 17.168 305.439 15.306 306.246 13.6523C307.066 11.9987 308.199 10.7227 309.645 9.82422C311.103 8.92578 312.763 8.47656 314.625 8.47656C317.503 8.47656 319.827 9.47266 321.598 11.4648C323.382 13.457 324.273 16.1068 324.273 19.4141V19.668C324.273 21.7253 323.876 23.5742 323.082 25.2148C322.301 26.8424 321.174 28.112 319.703 29.0234C318.245 29.9349 316.565 30.3906 314.664 30.3906C311.799 30.3906 309.475 29.3945 307.691 27.4023C305.921 25.4102 305.035 22.7734 305.035 19.4922V19.2383ZM308.668 19.668C308.668 22.0117 309.208 23.8932 310.289 25.3125C311.383 26.7318 312.841 27.4414 314.664 27.4414C316.5 27.4414 317.958 26.7253 319.039 25.293C320.12 23.8477 320.66 21.8294 320.66 19.2383C320.66 16.9206 320.107 15.0456 319 13.6133C317.906 12.168 316.448 11.4453 314.625 11.4453C312.841 11.4453 311.402 12.1549 310.309 13.5742C309.215 14.9935 308.668 17.0247 308.668 19.668Z" fill="white"/>
</g>
<path id="Arrow 11 (Stroke)" fill-rule="evenodd" clip-rule="evenodd" d="M394.714 3.85787L407.442 16.5858C408.223 17.3668 408.223 18.6332 407.442 19.4142L394.714 32.1421C393.933 32.9232 392.667 32.9232 391.886 32.1421C391.105 31.3611 391.105 30.0948 391.886 29.3137L401.2 20H335V16H401.2L391.886 6.68629C391.105 5.90524 391.105 4.63891 391.886 3.85787C392.667 3.07682 393.933 3.07682 394.714 3.85787Z" fill="#E79720"/>
<g id="Hermano">
<path d="M435.156 30H431.387V16.8555H417.051V30H413.301V1.5625H417.051V13.7891H431.387V1.5625H435.156V30Z" fill="white"/>
<path d="M450.02 30.3906C447.155 30.3906 444.824 29.4531 443.027 27.5781C441.23 25.6901 440.332 23.1706 440.332 20.0195V19.3555C440.332 17.2591 440.729 15.3906 441.523 13.75C442.331 12.0964 443.451 10.8073 444.883 9.88281C446.328 8.94531 447.891 8.47656 449.57 8.47656C452.318 8.47656 454.453 9.38151 455.977 11.1914C457.5 13.0013 458.262 15.5924 458.262 18.9648V20.4688H443.945C443.997 22.5521 444.603 24.2383 445.762 25.5273C446.934 26.8034 448.418 27.4414 450.215 27.4414C451.491 27.4414 452.572 27.181 453.457 26.6602C454.342 26.1393 455.117 25.4492 455.781 24.5898L457.988 26.3086C456.217 29.0299 453.561 30.3906 450.02 30.3906ZM449.57 11.4453C448.112 11.4453 446.888 11.9792 445.898 13.0469C444.909 14.1016 444.297 15.5859 444.062 17.5H454.648V17.2266C454.544 15.3906 454.049 13.9714 453.164 12.9688C452.279 11.9531 451.081 11.4453 449.57 11.4453Z" fill="white"/>
<path d="M472.676 12.1094C472.129 12.0182 471.536 11.9727 470.898 11.9727C468.529 11.9727 466.921 12.9818 466.074 15V30H462.461V8.86719H465.977L466.035 11.3086C467.22 9.42057 468.9 8.47656 471.074 8.47656C471.777 8.47656 472.311 8.56771 472.676 8.75V12.1094Z" fill="white"/>
<path d="M479.414 8.86719L479.512 11.2109C481.061 9.38802 483.151 8.47656 485.781 8.47656C488.737 8.47656 490.749 9.60938 491.816 11.875C492.52 10.8594 493.431 10.0391 494.551 9.41406C495.684 8.78906 497.018 8.47656 498.555 8.47656C503.19 8.47656 505.547 10.931 505.625 15.8398V30H502.012V16.0547C502.012 14.5443 501.667 13.418 500.977 12.6758C500.286 11.9206 499.128 11.543 497.5 11.543C496.159 11.543 495.046 11.9466 494.16 12.7539C493.275 13.5482 492.76 14.6224 492.617 15.9766V30H488.984V16.1523C488.984 13.0794 487.48 11.543 484.473 11.543C482.103 11.543 480.482 12.5521 479.609 14.5703V30H475.996V8.86719H479.414Z" fill="white"/>
<path d="M524.141 30C523.932 29.5833 523.763 28.8411 523.633 27.7734C521.953 29.5182 519.948 30.3906 517.617 30.3906C515.534 30.3906 513.822 29.8047 512.48 28.6328C511.152 27.4479 510.488 25.9505 510.488 24.1406C510.488 21.9401 511.322 20.2344 512.988 19.0234C514.668 17.7995 517.025 17.1875 520.059 17.1875H523.574V15.5273C523.574 14.2643 523.197 13.2617 522.441 12.5195C521.686 11.7643 520.573 11.3867 519.102 11.3867C517.812 11.3867 516.732 11.7122 515.859 12.3633C514.987 13.0143 514.551 13.8021 514.551 14.7266H510.918C510.918 13.6719 511.289 12.6562 512.031 11.6797C512.786 10.6901 513.802 9.90885 515.078 9.33594C516.367 8.76302 517.78 8.47656 519.316 8.47656C521.751 8.47656 523.659 9.08854 525.039 10.3125C526.419 11.5234 527.135 13.1966 527.188 15.332V25.0586C527.188 26.9987 527.435 28.5417 527.93 29.6875V30H524.141ZM518.145 27.2461C519.277 27.2461 520.352 26.9531 521.367 26.3672C522.383 25.7812 523.118 25.0195 523.574 24.082V19.7461H520.742C516.315 19.7461 514.102 21.0417 514.102 23.6328C514.102 24.7656 514.479 25.651 515.234 26.2891C515.99 26.9271 516.96 27.2461 518.145 27.2461Z" fill="white"/>
<path d="M536.27 8.86719L536.387 11.5234C538.001 9.49219 540.111 8.47656 542.715 8.47656C547.181 8.47656 549.434 10.9961 549.473 16.0352V30H545.859V16.0156C545.846 14.4922 545.495 13.3659 544.805 12.6367C544.128 11.9076 543.066 11.543 541.621 11.543C540.449 11.543 539.421 11.8555 538.535 12.4805C537.65 13.1055 536.96 13.9258 536.465 14.9414V30H532.852V8.86719H536.27Z" fill="white"/>
<path d="M553.965 19.2383C553.965 17.168 554.368 15.306 555.176 13.6523C555.996 11.9987 557.129 10.7227 558.574 9.82422C560.033 8.92578 561.693 8.47656 563.555 8.47656C566.432 8.47656 568.757 9.47266 570.527 11.4648C572.311 13.457 573.203 16.1068 573.203 19.4141V19.668C573.203 21.7253 572.806 23.5742 572.012 25.2148C571.23 26.8424 570.104 28.112 568.633 29.0234C567.174 29.9349 565.495 30.3906 563.594 30.3906C560.729 30.3906 558.405 29.3945 556.621 27.4023C554.85 25.4102 553.965 22.7734 553.965 19.4922V19.2383ZM557.598 19.668C557.598 22.0117 558.138 23.8932 559.219 25.3125C560.312 26.7318 561.771 27.4414 563.594 27.4414C565.43 27.4414 566.888 26.7253 567.969 25.293C569.049 23.8477 569.59 21.8294 569.59 19.2383C569.59 16.9206 569.036 15.0456 567.93 13.6133C566.836 12.168 565.378 11.4453 563.555 11.4453C561.771 11.4453 560.332 12.1549 559.238 13.5742C558.145 14.9935 557.598 17.0247 557.598 19.668Z" fill="white"/>
</g>
<path id="Arrow 12 (Stroke)" fill-rule="evenodd" clip-rule="evenodd" d="M644.714 3.85787L657.442 16.5858C658.223 17.3668 658.223 18.6332 657.442 19.4142L644.714 32.1421C643.933 32.9232 642.667 32.9232 641.886 32.1421C641.105 31.3611 641.105 30.0948 641.886 29.3137L651.2 20H585V16H651.2L641.886 6.68629C641.105 5.90524 641.105 4.63891 641.886 3.85787C642.667 3.07682 643.933 3.07682 644.714 3.85787Z" fill="#E79720"/>
<g id="Esposa">
<path d="M694.375 17.8555H682.051V27.9336H696.367V31H678.301V2.5625H696.172V5.64844H682.051V14.7891H694.375V17.8555Z" fill="white"/>
<path d="M712.773 25.3945C712.773 24.418 712.402 23.6628 711.66 23.1289C710.931 22.582 709.648 22.1133 707.812 21.7227C705.99 21.332 704.538 20.8633 703.457 20.3164C702.389 19.7695 701.595 19.1185 701.074 18.3633C700.566 17.6081 700.312 16.7096 700.312 15.668C700.312 13.9362 701.042 12.4714 702.5 11.2734C703.971 10.0755 705.846 9.47656 708.125 9.47656C710.521 9.47656 712.461 10.0951 713.945 11.332C715.443 12.569 716.191 14.151 716.191 16.0781H712.559C712.559 15.0885 712.135 14.2357 711.289 13.5195C710.456 12.8034 709.401 12.4453 708.125 12.4453C706.81 12.4453 705.781 12.7318 705.039 13.3047C704.297 13.8776 703.926 14.6263 703.926 15.5508C703.926 16.4232 704.271 17.0807 704.961 17.5234C705.651 17.9661 706.895 18.3893 708.691 18.793C710.501 19.1966 711.966 19.6784 713.086 20.2383C714.206 20.7982 715.033 21.4753 715.566 22.2695C716.113 23.0508 716.387 24.0078 716.387 25.1406C716.387 27.0286 715.632 28.5456 714.121 29.6914C712.611 30.8242 710.651 31.3906 708.242 31.3906C706.549 31.3906 705.052 31.0911 703.75 30.4922C702.448 29.8932 701.426 29.0599 700.684 27.9922C699.954 26.9115 699.59 25.7461 699.59 24.4961H703.203C703.268 25.707 703.75 26.6706 704.648 27.3867C705.56 28.0898 706.758 28.4414 708.242 28.4414C709.609 28.4414 710.703 28.168 711.523 27.6211C712.357 27.0612 712.773 26.319 712.773 25.3945Z" fill="white"/>
<path d="M738.945 20.668C738.945 23.8841 738.21 26.4753 736.738 28.4414C735.267 30.4076 733.275 31.3906 730.762 31.3906C728.197 31.3906 726.178 30.5768 724.707 28.9492V39.125H721.094V9.86719H724.395L724.57 12.2109C726.042 10.388 728.086 9.47656 730.703 9.47656C733.242 9.47656 735.247 10.4336 736.719 12.3477C738.203 14.2617 738.945 16.9245 738.945 20.3359V20.668ZM735.332 20.2578C735.332 17.875 734.824 15.9935 733.809 14.6133C732.793 13.2331 731.4 12.543 729.629 12.543C727.441 12.543 725.801 13.513 724.707 15.4531V25.5508C725.788 27.4779 727.441 28.4414 729.668 28.4414C731.4 28.4414 732.773 27.7578 733.789 26.3906C734.818 25.0104 735.332 22.9661 735.332 20.2578Z" fill="white"/>
<path d="M742.598 20.2383C742.598 18.168 743.001 16.306 743.809 14.6523C744.629 12.9987 745.762 11.7227 747.207 10.8242C748.665 9.92578 750.326 9.47656 752.188 9.47656C755.065 9.47656 757.389 10.4727 759.16 12.4648C760.944 14.457 761.836 17.1068 761.836 20.4141V20.668C761.836 22.7253 761.439 24.5742 760.645 26.2148C759.863 27.8424 758.737 29.112 757.266 30.0234C755.807 30.9349 754.128 31.3906 752.227 31.3906C749.362 31.3906 747.038 30.3945 745.254 28.4023C743.483 26.4102 742.598 23.7734 742.598 20.4922V20.2383ZM746.23 20.668C746.23 23.0117 746.771 24.8932 747.852 26.3125C748.945 27.7318 750.404 28.4414 752.227 28.4414C754.062 28.4414 755.521 27.7253 756.602 26.293C757.682 24.8477 758.223 22.8294 758.223 20.2383C758.223 17.9206 757.669 16.0456 756.562 14.6133C755.469 13.168 754.01 12.4453 752.188 12.4453C750.404 12.4453 748.965 13.1549 747.871 14.5742C746.777 15.9935 746.23 18.0247 746.23 20.668Z" fill="white"/>
<path d="M778.672 25.3945C778.672 24.418 778.301 23.6628 777.559 23.1289C776.829 22.582 775.547 22.1133 773.711 21.7227C771.888 21.332 770.436 20.8633 769.355 20.3164C768.288 19.7695 767.493 19.1185 766.973 18.3633C766.465 17.6081 766.211 16.7096 766.211 15.668C766.211 13.9362 766.94 12.4714 768.398 11.2734C769.87 10.0755 771.745 9.47656 774.023 9.47656C776.419 9.47656 778.359 10.0951 779.844 11.332C781.341 12.569 782.09 14.151 782.09 16.0781H778.457C778.457 15.0885 778.034 14.2357 777.188 13.5195C776.354 12.8034 775.299 12.4453 774.023 12.4453C772.708 12.4453 771.68 12.7318 770.938 13.3047C770.195 13.8776 769.824 14.6263 769.824 15.5508C769.824 16.4232 770.169 17.0807 770.859 17.5234C771.549 17.9661 772.793 18.3893 774.59 18.793C776.4 19.1966 777.865 19.6784 778.984 20.2383C780.104 20.7982 780.931 21.4753 781.465 22.2695C782.012 23.0508 782.285 24.0078 782.285 25.1406C782.285 27.0286 781.53 28.5456 780.02 29.6914C778.509 30.8242 776.549 31.3906 774.141 31.3906C772.448 31.3906 770.951 31.0911 769.648 30.4922C768.346 29.8932 767.324 29.0599 766.582 27.9922C765.853 26.9115 765.488 25.7461 765.488 24.4961H769.102C769.167 25.707 769.648 26.6706 770.547 27.3867C771.458 28.0898 772.656 28.4414 774.141 28.4414C775.508 28.4414 776.602 28.168 777.422 27.6211C778.255 27.0612 778.672 26.319 778.672 25.3945Z" fill="white"/>
<path d="M800.039 31C799.831 30.5833 799.661 29.8411 799.531 28.7734C797.852 30.5182 795.846 31.3906 793.516 31.3906C791.432 31.3906 789.72 30.8047 788.379 29.6328C787.051 28.4479 786.387 26.9505 786.387 25.1406C786.387 22.9401 787.22 21.2344 788.887 20.0234C790.566 18.7995 792.923 18.1875 795.957 18.1875H799.473V16.5273C799.473 15.2643 799.095 14.2617 798.34 13.5195C797.585 12.7643 796.471 12.3867 795 12.3867C793.711 12.3867 792.63 12.7122 791.758 13.3633C790.885 14.0143 790.449 14.8021 790.449 15.7266H786.816C786.816 14.6719 787.188 13.6562 787.93 12.6797C788.685 11.6901 789.701 10.9089 790.977 10.3359C792.266 9.76302 793.678 9.47656 795.215 9.47656C797.65 9.47656 799.557 10.0885 800.938 11.3125C802.318 12.5234 803.034 14.1966 803.086 16.332V26.0586C803.086 27.9987 803.333 29.5417 803.828 30.6875V31H800.039ZM794.043 28.2461C795.176 28.2461 796.25 27.9531 797.266 27.3672C798.281 26.7812 799.017 26.0195 799.473 25.082V20.7461H796.641C792.214 20.7461 790 22.0417 790 24.6328C790 25.7656 790.378 26.651 791.133 27.2891C791.888 27.9271 792.858 28.2461 794.043 28.2461Z" fill="white"/>
</g>
<path id="Arrow 9 (Stroke)" fill-rule="evenodd" clip-rule="evenodd" d="M737.642 85.9402L724.914 98.6681C724.133 99.4492 722.867 99.4492 722.086 98.6681L709.358 85.9402C708.577 85.1591 708.577 83.8928 709.358 83.1118C710.139 82.3307 711.405 82.3307 712.186 83.1118L721.5 92.4255V48.7462H725.5V92.4255L734.814 83.1118C735.595 82.3307 736.861 82.3307 737.642 83.1118C738.423 83.8928 738.423 85.1591 737.642 85.9402Z" fill="#13EBF9"/>
<g id="hijo">
<path d="M700.348 144.426C701.949 142.46 704.033 141.477 706.598 141.477C711.064 141.477 713.316 143.996 713.355 149.035V163H709.742V149.016C709.729 147.492 709.378 146.366 708.688 145.637C708.01 144.908 706.949 144.543 705.504 144.543C704.332 144.543 703.303 144.855 702.418 145.48C701.533 146.105 700.842 146.926 700.348 147.941V163H696.734V133H700.348V144.426Z" fill="white"/>
<path d="M722.691 163H719.078V141.867H722.691V163ZM718.785 136.262C718.785 135.676 718.961 135.181 719.312 134.777C719.677 134.374 720.211 134.172 720.914 134.172C721.617 134.172 722.151 134.374 722.516 134.777C722.88 135.181 723.062 135.676 723.062 136.262C723.062 136.848 722.88 137.336 722.516 137.727C722.151 138.117 721.617 138.312 720.914 138.312C720.211 138.312 719.677 138.117 719.312 137.727C718.961 137.336 718.785 136.848 718.785 136.262Z" fill="white"/>
<path d="M732.223 141.867V165.441C732.223 169.504 730.38 171.535 726.695 171.535C725.901 171.535 725.165 171.418 724.488 171.184V168.293C724.905 168.397 725.452 168.449 726.129 168.449C726.936 168.449 727.548 168.228 727.965 167.785C728.395 167.355 728.609 166.6 728.609 165.52V141.867H732.223ZM728.238 136.262C728.238 135.689 728.414 135.201 728.766 134.797C729.13 134.38 729.658 134.172 730.348 134.172C731.051 134.172 731.585 134.374 731.949 134.777C732.314 135.181 732.496 135.676 732.496 136.262C732.496 136.848 732.314 137.336 731.949 137.727C731.585 138.117 731.051 138.312 730.348 138.312C729.645 138.312 729.117 138.117 728.766 137.727C728.414 137.336 728.238 136.848 728.238 136.262Z" fill="white"/>
<path d="M737.105 152.238C737.105 150.168 737.509 148.306 738.316 146.652C739.137 144.999 740.27 143.723 741.715 142.824C743.173 141.926 744.833 141.477 746.695 141.477C749.573 141.477 751.897 142.473 753.668 144.465C755.452 146.457 756.344 149.107 756.344 152.414V152.668C756.344 154.725 755.947 156.574 755.152 158.215C754.371 159.842 753.245 161.112 751.773 162.023C750.315 162.935 748.635 163.391 746.734 163.391C743.87 163.391 741.546 162.395 739.762 160.402C737.991 158.41 737.105 155.773 737.105 152.492V152.238ZM740.738 152.668C740.738 155.012 741.279 156.893 742.359 158.312C743.453 159.732 744.911 160.441 746.734 160.441C748.57 160.441 750.029 159.725 751.109 158.293C752.19 156.848 752.73 154.829 752.73 152.238C752.73 149.921 752.177 148.046 751.07 146.613C749.977 145.168 748.518 144.445 746.695 144.445C744.911 144.445 743.473 145.155 742.379 146.574C741.285 147.993 740.738 150.025 740.738 152.668Z" fill="white"/>
</g>
<path id="Arrow 10 (Stroke)" fill-rule="evenodd" clip-rule="evenodd" d="M644.66 134.879L657.412 147.583C658.194 148.363 658.196 149.629 657.417 150.412L644.712 163.163C643.933 163.945 642.666 163.948 641.884 163.168C641.101 162.389 641.099 161.122 641.879 160.34L651.175 151.009L100.004 152.022L99.9963 148.022L651.168 147.009L641.837 137.712C641.055 136.933 641.052 135.666 641.832 134.884C642.611 134.101 643.878 134.099 644.66 134.879Z" fill="#2CF30B"/>
<g id="Primo">
<path d="M700.051 198.867V210H696.301V181.562H706.789C709.901 181.562 712.336 182.357 714.094 183.945C715.865 185.534 716.75 187.637 716.75 190.254C716.75 193.014 715.884 195.143 714.152 196.641C712.434 198.125 709.966 198.867 706.75 198.867H700.051ZM700.051 195.801H706.789C708.794 195.801 710.331 195.332 711.398 194.395C712.466 193.444 713 192.077 713 190.293C713 188.6 712.466 187.246 711.398 186.23C710.331 185.215 708.866 184.688 707.004 184.648H700.051V195.801Z" fill="white"/>
<path d="M731.184 192.109C730.637 192.018 730.044 191.973 729.406 191.973C727.036 191.973 725.428 192.982 724.582 195V210H720.969V188.867H724.484L724.543 191.309C725.728 189.421 727.408 188.477 729.582 188.477C730.285 188.477 730.819 188.568 731.184 188.75V192.109Z" fill="white"/>
<path d="M738.449 210H734.836V188.867H738.449V210ZM734.543 183.262C734.543 182.676 734.719 182.181 735.07 181.777C735.435 181.374 735.969 181.172 736.672 181.172C737.375 181.172 737.909 181.374 738.273 181.777C738.638 182.181 738.82 182.676 738.82 183.262C738.82 183.848 738.638 184.336 738.273 184.727C737.909 185.117 737.375 185.312 736.672 185.312C735.969 185.312 735.435 185.117 735.07 184.727C734.719 184.336 734.543 183.848 734.543 183.262Z" fill="white"/>
<path d="M747.648 188.867L747.746 191.211C749.296 189.388 751.385 188.477 754.016 188.477C756.971 188.477 758.983 189.609 760.051 191.875C760.754 190.859 761.665 190.039 762.785 189.414C763.918 188.789 765.253 188.477 766.789 188.477C771.424 188.477 773.781 190.931 773.859 195.84V210H770.246V196.055C770.246 194.544 769.901 193.418 769.211 192.676C768.521 191.921 767.362 191.543 765.734 191.543C764.393 191.543 763.28 191.947 762.395 192.754C761.509 193.548 760.995 194.622 760.852 195.977V210H757.219V196.152C757.219 193.079 755.715 191.543 752.707 191.543C750.337 191.543 748.716 192.552 747.844 194.57V210H744.23V188.867H747.648Z" fill="white"/>
<path d="M778.371 199.238C778.371 197.168 778.775 195.306 779.582 193.652C780.402 191.999 781.535 190.723 782.98 189.824C784.439 188.926 786.099 188.477 787.961 188.477C790.839 188.477 793.163 189.473 794.934 191.465C796.717 193.457 797.609 196.107 797.609 199.414V199.668C797.609 201.725 797.212 203.574 796.418 205.215C795.637 206.842 794.51 208.112 793.039 209.023C791.581 209.935 789.901 210.391 788 210.391C785.135 210.391 782.811 209.395 781.027 207.402C779.257 205.41 778.371 202.773 778.371 199.492V199.238ZM782.004 199.668C782.004 202.012 782.544 203.893 783.625 205.312C784.719 206.732 786.177 207.441 788 207.441C789.836 207.441 791.294 206.725 792.375 205.293C793.456 203.848 793.996 201.829 793.996 199.238C793.996 196.921 793.443 195.046 792.336 193.613C791.242 192.168 789.784 191.445 787.961 191.445C786.177 191.445 784.738 192.155 783.645 193.574C782.551 194.993 782.004 197.025 782.004 199.668Z" fill="white"/>
</g>
</g>
</svg>
